<?xml version="1.0" encoding="iso-8859-1"?>
<!-- Generator: Adobe Illustrator 19.0.0, SVG Export Plug-In . SVG Version: 6.00 Build 0)  -->
<svg version="1.1" id="Capa_1" xmlns="http://www.w3.org/2000/svg" xmlns:xlink="http://www.w3.org/1999/xlink" x="0px" y="0px"
	 viewBox="0 0 512 512" style="enable-background:new 0 0 512 512;" xml:space="preserve">
<g>
	<path style="fill:#FA9E3E;" d="M125.839,223.99h49.369v56.61h-49.369c-15.632,0-28.305-12.673-28.305-28.305
		S110.206,223.99,125.839,223.99z"/>
	<path style="fill:#FA9E3E;" d="M386.161,223.99h-49.369v56.61h49.369c15.632,0,28.305-12.673,28.305-28.305
		S401.793,223.99,386.161,223.99z"/>
</g>
<path style="fill:#5B5BB2;" d="M203.072,363.444h105.855c41.621,0,75.362,33.741,75.362,75.362V504.5H127.71v-65.694
	C127.71,397.184,161.451,363.444,203.072,363.444z"/>
<path style="fill:#3F3F93;" d="M308.927,363.444h-22.632c41.621,0,75.362,33.741,75.362,75.362V504.5h22.632v-65.695
	C384.289,397.184,350.549,363.444,308.927,363.444z"/>
<g>
	<path style="fill:#7676C1;" d="M294.479,356h-38.479v77.5l35-7.027L347,454l-16.255-69.26C326.794,367.903,311.773,356,294.479,356
		z"/>
	<path style="fill:#7676C1;" d="M217.52,356h38.48v77.5l-35-7.027l-56,27.527l16.255-69.26C185.205,367.903,200.225,356,217.52,356z
		"/>
</g>
<polygon style="fill:#FA9E3E;" points="298.1,267.73 298.1,363.08 255.999,433.5 213.899,363.08 213.899,267.73 "/>
<path style="fill:#FA8500;" d="M116.999,148.59v57.265c0,34.173,27.702,61.875,61.875,61.875h154.25
	c34.173,0,61.875-27.702,61.875-61.875V148.59H116.999z"/>
<path style="fill:#FFB56B;" d="M255.999,342.79L255.999,342.79c-61.919,0-112.115-50.195-112.115-112.115V117.281h224.229v113.394
	C368.115,292.595,317.919,342.79,255.999,342.79z"/>
<path style="fill:#EF9245;" d="M344.781,117.281v125.062c0,53.578-41.949,97.354-94.795,100.286
	c1.992,0.105,3.996,0.161,6.014,0.161l0,0c61.919,0,112.115-50.195,112.115-112.115V117.281H344.781z"/>
<path style="fill:#FA8500;" d="M270.75,257.5h-29.5c-18.501,0-33.5,14.998-33.5,33.5l0,0h18.47c6.164,0,12.039-2.663,16.057-7.339
	c3.318-3.861,8.231-6.308,13.723-6.308c5.492,0,10.406,2.447,13.723,6.308c4.017,4.675,9.892,7.339,16.056,7.339h18.47l0,0
	C304.25,272.498,289.251,257.5,270.75,257.5z"/>
<rect x="103.999" y="115.72" style="fill:#484655;" width="304" height="37"/>
<g>
	<path style="fill:#FFB700;" d="M350.167,160.221c-4.143,0-7.5-3.357-7.5-7.5v-37c0-4.143,3.357-7.5,7.5-7.5s7.5,3.357,7.5,7.5v37
		C357.667,156.863,354.31,160.221,350.167,160.221z"/>
	<path style="fill:#FFB700;" d="M161.832,160.221c-4.142,0-7.5-3.357-7.5-7.5v-37c0-4.143,3.358-7.5,7.5-7.5s7.5,3.357,7.5,7.5v37
		C169.332,156.863,165.975,160.221,161.832,160.221z"/>
</g>
<path style="fill:#5B5BB2;" d="M113.499,115.803c1.616-30.886,0.045-67.186-5.158-98.138c-0.893-5.312,3.158-10.165,8.545-10.165
	h278.225c5.387,0,9.438,4.853,8.545,10.165c-5.203,30.952-6.774,67.252-5.158,98.138H113.499z"/>
<path style="fill:#3F3F93;" d="M395.113,7.5h-23.5c5.387,0,9.438,4.853,8.546,10.165c-5.203,30.952-6.774,67.252-5.158,98.138h23.5
	c-1.616-30.886-0.045-67.187,5.158-98.138C404.551,12.353,400.5,7.5,395.113,7.5z"/>
<path style="fill:#35343F;" d="M140.309,152.721c27.835,32.763,69.331,53.559,115.691,53.559s87.855-20.795,115.691-53.559
	L140.309,152.721L140.309,152.721z"/>
<path style="fill:#FA8500;" d="M295.41,504.5h-36.76l-114.35-114.35c-5.08-5.07-5.08-13.31,0-18.38c2.54-2.54,5.87-3.81,9.19-3.81
	c3.33,0,6.65,1.27,9.19,3.81l2.11,2.11l70.79,70.79L295.41,504.5z"/>
<polygon style="fill:#CE6A06;" points="307.68,504.5 246.369,504.5 211.059,469.19 235.579,444.67 241.719,438.53 "/>
<ellipse style="fill:#FFB700;" cx="255.999" cy="71.5" rx="40.08" ry="22.5"/>
<path d="M305.6,339.539c23.504-10.708,42.893-28.736,55.334-51.439h25.227c19.745,0,35.809-16.064,35.809-35.81
	c0-14.129-8.429-26.79-20.873-32.531c0.927-4.547,1.403-9.196,1.403-13.898V160.22h5.5c4.143,0,7.5-3.357,7.5-7.5v-37
	c0-4.143-3.357-7.5-7.5-7.5h-2.32c-1.078-30.154,0.835-62.309,5.374-89.312c0.795-4.73-0.523-9.537-3.612-13.19
	C404.368,2.084,399.874,0,395.112,0H116.887c-4.762,0-9.255,2.084-12.33,5.719c-3.09,3.652-4.407,8.46-3.612,13.189
	c0.863,5.131,1.643,10.538,2.318,16.071c0.502,4.11,4.234,7.045,8.354,6.535c4.111-0.502,7.038-4.241,6.536-8.354
	c-0.703-5.755-1.515-11.387-2.415-16.739c-0.081-0.479,0.103-0.817,0.271-1.016c0.228-0.27,0.523-0.406,0.878-0.406h278.225
	c0.354,0,0.65,0.137,0.878,0.406c0.169,0.198,0.353,0.536,0.272,1.016c-4.672,27.792-6.665,60.817-5.596,91.798H216.669
	c-4.142,0-7.5,3.357-7.5,7.5s3.358,7.5,7.5,7.5h6.168c0.348,0.05,0.701,0.084,1.064,0.084H398.5c0.356,0,0.708-0.034,1.057-0.084
	h0.943v22h-32.39h-224.22h-32.39v-22h0.943c0.349,0.05,0.7,0.084,1.057,0.084h58.128c0.362,0,0.715-0.034,1.064-0.084h13.988
	c4.142,0,7.5-3.357,7.5-7.5s-3.358-7.5-7.5-7.5h-65.348c0.491-14.441,0.319-29.713-0.511-44.637
	c-0.23-4.136-3.764-7.289-7.905-7.071c-4.136,0.229-7.302,3.77-7.072,7.905c0.815,14.664,0.971,29.655,0.473,43.803h-2.317
	c-4.142,0-7.5,3.357-7.5,7.5v37c0,4.143,3.358,7.5,7.5,7.5h5.5v45.641c0,4.703,0.477,9.354,1.403,13.899
	c-12.444,5.742-20.872,18.402-20.872,32.531c0,19.745,16.064,35.81,35.81,35.81h25.236c12.433,22.703,31.82,40.73,55.324,51.439
	v10.367c-13.276,3.396-24.25,12.715-29.779,25.197l-8.638-8.638c-3.874-3.872-9.021-6.005-14.492-6.005
	c-5.472,0-10.619,2.133-14.489,6.001c-3.876,3.869-6.012,9.019-6.012,14.499c0,5.48,2.135,10.63,6.007,14.494l25.948,25.948
	l-7.247,30.885c-0.663,2.823,0.362,5.775,2.631,7.581c1.354,1.078,3.006,1.632,4.671,1.632c1.126,0,2.258-0.253,3.308-0.77
	l24.113-11.852l14.171,14.171l-0.836,0.836c-1.407,1.407-2.197,3.314-2.197,5.304c0,1.989,0.79,3.896,2.197,5.304L228.262,497
	H135.21v-58.19c0-7.044,1.072-13.983,3.186-20.625c1.257-3.947-0.924-8.165-4.872-9.422c-3.946-1.259-8.165,0.924-9.421,4.871
	c-2.583,8.115-3.893,16.586-3.893,25.176v65.69c0,4.143,3.358,7.5,7.5,7.5h118.66h61.31h76.61c4.143,0,7.5-3.357,7.5-7.5v-65.69
	c0-41.666-30.519-76.45-71.44-82.071c-4.405-3.122-9.389-5.462-14.75-6.833L305.6,339.539L305.6,339.539z M304.953,366.112
	c0.039-0.087,0.071-0.176,0.106-0.265c0.047-0.117,0.1-0.232,0.141-0.351c1.983,0.765,3.859,1.748,5.614,2.902
	c0.814,1.062,1.906,1.904,3.185,2.41c4.602,4.003,7.983,9.411,9.449,15.645l12.627,53.819l-41.767-20.533
	c-1.035-0.509-2.168-0.77-3.309-0.77c-0.493,0-0.988,0.049-1.477,0.147l-18.395,3.695l33.409-55.883
	C304.694,366.665,304.829,366.391,304.953,366.112z M225.268,346.301c0.289,0.077,0.579,0.15,0.868,0.224
	c1.089,0.281,2.182,0.547,3.278,0.796c0.198,0.045,0.395,0.094,0.593,0.138c1.244,0.276,2.493,0.528,3.745,0.764
	c0.299,0.056,0.598,0.109,0.897,0.163c1.147,0.207,2.296,0.399,3.45,0.572c0.15,0.023,0.3,0.049,0.45,0.071
	c1.27,0.185,2.544,0.345,3.822,0.49c0.309,0.035,0.618,0.067,0.927,0.1c1.217,0.128,2.438,0.242,3.662,0.333
	c0.086,0.007,0.172,0.015,0.259,0.022c1.294,0.093,2.592,0.16,3.893,0.212c0.316,0.013,0.632,0.024,0.949,0.034
	c1.31,0.042,2.622,0.071,3.938,0.071c1.316,0,2.628-0.029,3.938-0.071c0.316-0.01,0.633-0.021,0.949-0.034
	c1.301-0.052,2.599-0.118,3.893-0.212c0.087-0.006,0.173-0.015,0.259-0.022c1.224-0.091,2.444-0.205,3.661-0.333
	c0.309-0.032,0.617-0.065,0.926-0.1c1.279-0.145,2.554-0.305,3.825-0.49c0.147-0.021,0.293-0.047,0.44-0.069
	c1.158-0.174,2.311-0.367,3.461-0.574c0.297-0.053,0.593-0.106,0.889-0.162c1.255-0.236,2.507-0.489,3.753-0.766
	c0.192-0.043,0.384-0.09,0.576-0.134c1.103-0.251,2.203-0.519,3.299-0.801c0.285-0.073,0.571-0.145,0.855-0.221
	c1.226-0.326,2.448-0.669,3.664-1.035c0.069-0.021,0.14-0.038,0.209-0.059v10.971v4.829l-34.597,57.876l-34.6-57.875v-4.829v-10.971
	c0.07,0.021,0.141,0.039,0.211,0.06C222.824,345.633,224.044,345.976,225.268,346.301z M354.159,160.221
	c-26.556,24.681-61.49,38.559-98.159,38.559s-71.604-13.878-98.159-38.559L354.159,160.221L354.159,160.221z M386.16,273.1h-18.289
	c0.025-0.067,0.047-0.136,0.072-0.203c1.105-2.918,2.095-5.868,2.962-8.852c0.012-0.008,0.023-0.016,0.035-0.023
	c0.103-0.067,0.202-0.138,0.304-0.205c0.712-0.469,1.415-0.949,2.107-1.442c0.254-0.18,0.503-0.365,0.754-0.549
	c0.549-0.401,1.092-0.81,1.627-1.226c0.254-0.197,0.507-0.395,0.758-0.595c0.581-0.465,1.153-0.939,1.717-1.422
	c0.173-0.147,0.349-0.29,0.52-0.439c0.725-0.632,1.436-1.277,2.133-1.936c0.16-0.152,0.315-0.309,0.474-0.463
	c0.536-0.517,1.065-1.041,1.583-1.574c0.223-0.229,0.441-0.461,0.661-0.693c0.461-0.488,0.915-0.982,1.361-1.483
	c0.206-0.231,0.414-0.461,0.617-0.695c0.539-0.62,1.066-1.25,1.582-1.889c0.087-0.108,0.178-0.212,0.264-0.32
	c0.592-0.742,1.166-1.499,1.727-2.265c0.172-0.234,0.337-0.473,0.505-0.71c0.392-0.549,0.776-1.102,1.152-1.663
	c0.189-0.282,0.375-0.565,0.56-0.85c0.362-0.558,0.714-1.122,1.06-1.69c0.158-0.26,0.319-0.517,0.474-0.779
	c0.48-0.814,0.948-1.636,1.396-2.471c0.065-0.122,0.125-0.247,0.19-0.369c0.384-0.727,0.755-1.46,1.114-2.202
	c0.141-0.292,0.276-0.586,0.413-0.88c0.154-0.331,0.316-0.657,0.465-0.99c6.334,3.628,10.512,10.485,10.512,18.071
	C406.97,263.765,397.635,273.1,386.16,273.1z M387.5,205.86c0,5.646-0.856,11.19-2.55,16.492c-2.091,6.593-5.41,12.653-9.722,17.919
	c0.249-3.173,0.382-6.369,0.382-9.592v-70.46h11.89L387.5,205.86L387.5,205.86z M136.389,160.22v70.46
	c0,3.222,0.134,6.419,0.382,9.591c-4.313-5.268-7.634-11.332-9.728-17.932c-1.688-5.288-2.544-10.832-2.544-16.479v-45.64H136.389z
	 M125.839,273.1c-11.475,0-20.81-9.335-20.81-20.81c0-7.586,4.178-14.443,10.512-18.071c0.153,0.343,0.319,0.68,0.478,1.02
	c0.129,0.276,0.255,0.552,0.387,0.826c0.377,0.78,0.767,1.553,1.172,2.316c0.045,0.086,0.087,0.174,0.133,0.26
	c0.454,0.847,0.929,1.682,1.417,2.508c0.141,0.239,0.289,0.474,0.433,0.711c0.36,0.593,0.727,1.18,1.104,1.761
	c0.175,0.27,0.352,0.539,0.531,0.806c0.388,0.579,0.785,1.152,1.19,1.719c0.158,0.221,0.312,0.444,0.472,0.663
	c0.566,0.773,1.145,1.537,1.743,2.286c0.071,0.09,0.147,0.176,0.219,0.265c0.53,0.658,1.073,1.306,1.627,1.944
	c0.198,0.228,0.401,0.452,0.602,0.678c0.451,0.506,0.908,1.005,1.374,1.497c0.217,0.23,0.434,0.459,0.655,0.686
	c0.52,0.535,1.05,1.061,1.588,1.579c0.158,0.152,0.312,0.309,0.471,0.46c0.697,0.66,1.408,1.305,2.133,1.937
	c0.172,0.149,0.349,0.293,0.522,0.441c0.563,0.481,1.134,0.955,1.713,1.418c0.252,0.202,0.508,0.4,0.763,0.599
	c0.534,0.415,1.076,0.823,1.623,1.223c0.251,0.184,0.501,0.369,0.755,0.55c0.695,0.494,1.399,0.976,2.113,1.446
	c0.1,0.066,0.196,0.135,0.297,0.2c0.013,0.009,0.026,0.018,0.039,0.026c0.869,2.988,1.861,5.942,2.969,8.862
	c0.024,0.063,0.044,0.128,0.068,0.191h-18.293V273.1z M162.311,277.251c-0.426-0.853-0.837-1.711-1.238-2.572
	c-0.16-0.345-0.313-0.693-0.47-1.04c-0.225-0.497-0.45-0.993-0.666-1.493c-0.213-0.492-0.419-0.987-0.625-1.483
	c-0.141-0.339-0.282-0.677-0.419-1.017c-0.24-0.597-0.474-1.196-0.703-1.797c-0.085-0.223-0.17-0.447-0.254-0.67
	c-0.257-0.688-0.507-1.377-0.749-2.07c-0.04-0.114-0.079-0.229-0.118-0.343c-0.848-2.457-1.606-4.944-2.265-7.453
	c-0.011-0.041-0.027-0.079-0.038-0.12c-2.242-8.57-3.376-17.432-3.376-26.514v-56.104c28.815,25.133,65.829,39.204,104.61,39.204
	c38.78,0,75.795-14.072,104.61-39.204v56.105c0,9.07-1.132,17.922-3.367,26.485c-0.014,0.05-0.034,0.098-0.047,0.149
	c-0.668,2.544-1.435,5.061-2.293,7.545c-0.025,0.071-0.049,0.143-0.074,0.214c-0.248,0.712-0.506,1.42-0.768,2.126
	c-0.084,0.226-0.17,0.451-0.256,0.676c-0.223,0.585-0.451,1.169-0.684,1.75c-0.156,0.387-0.316,0.771-0.476,1.156
	c-0.184,0.442-0.367,0.885-0.557,1.324c-0.257,0.593-0.522,1.184-0.791,1.774c-0.115,0.254-0.227,0.509-0.344,0.762
	c-0.407,0.875-0.824,1.747-1.257,2.614c-11.42,22.916-30.744,40.816-54.42,50.407c-12.465,5.063-25.68,7.629-39.277,7.629
	c-1.7,0-3.394-0.04-5.081-0.12c-0.914-0.043-1.826-0.101-2.736-0.168c-8.328-0.611-16.482-2.201-24.377-4.758
	c-0.583-0.189-1.163-0.389-1.743-0.588c-0.211-0.072-0.423-0.14-0.634-0.214c-1.581-0.555-3.151-1.148-4.709-1.781
	c-0.002-0.001-0.004-0.001-0.006-0.002C193.042,318.068,173.723,300.169,162.311,277.251z M188.561,386.453
	c2.284-9.739,9.227-17.48,18.238-20.957c0.04,0.118,0.093,0.232,0.139,0.349c0.035,0.089,0.068,0.178,0.106,0.266
	c0.124,0.279,0.259,0.554,0.417,0.818l33.409,55.883l-18.395-3.695c-0.489-0.098-0.984-0.147-1.477-0.147
	c-0.166,0-0.331,0.006-0.497,0.017l-32.054-32.055L188.561,386.453z M181.215,437.673l-5.292,2.6l1.5-6.392l3.248,3.248
	L181.215,437.673z M199.233,434.478c0-0.001-0.001-0.001-0.001-0.001l-20.73-20.73c-0.002-0.002-0.004-0.003-0.006-0.005
	l-28.899-28.899c-1.037-1.035-1.608-2.413-1.608-3.882s0.571-2.847,1.612-3.886c1.041-1.041,2.422-1.614,3.888-1.614
	s2.847,0.573,3.886,1.612l17.501,17.501c0.003,0.003,0.006,0.008,0.01,0.011l38.38,38.38c0.002,0.002,0.005,0.004,0.007,0.006
	l11.699,11.7l-7.773,7.773L199.233,434.478z M249.477,497l-27.81-27.81l0.827-0.827c0.003-0.003,0.007-0.006,0.01-0.009l18.38-18.38
	l0,0l0.836-0.835L289.575,497H249.477z M376.79,438.81V497h-66.004l-56.116-56.125c0.061,0.011,0.122,0.018,0.184,0.027
	c0.089,0.014,0.176,0.029,0.266,0.04c0.057,0.007,0.115,0.017,0.172,0.023c0.02,0.002,0.039,0.001,0.059,0.003
	c0.216,0.019,0.432,0.032,0.647,0.032c0.001,0,0.002,0,0.003,0l0,0l0,0c0.075,0,0.149-0.011,0.224-0.013
	c0.121-0.004,0.241-0.012,0.362-0.022c0.118-0.009,0.236-0.011,0.352-0.026c0.107-0.014,0.211-0.039,0.317-0.057
	c0.074-0.012,0.147-0.013,0.221-0.028l32.502-6.528l53.713,26.405c1.05,0.517,2.182,0.77,3.308,0.77
	c1.665,0,3.317-0.554,4.671-1.632c2.27-1.806,3.294-4.758,2.632-7.581l-16.251-69.264c-0.527-2.243-1.223-4.413-2.064-6.502
	C360.221,386.987,376.79,411.027,376.79,438.81z"/>
<path d="M310.323,232.962c4.143,0,7.5-3.357,7.5-7.5v-2c0-4.143-3.357-7.5-7.5-7.5c-4.142,0-7.5,3.357-7.5,7.5v2
	C302.823,229.605,306.181,232.962,310.323,232.962z"/>
<path d="M209.175,225.462v-2c0-4.143-3.358-7.5-7.5-7.5s-7.5,3.357-7.5,7.5v2c0,4.143,3.358,7.5,7.5,7.5
	S209.175,229.605,209.175,225.462z"/>
<path d="M226.219,298.5c8.386,0,16.312-3.627,21.746-9.951c2.018-2.349,4.946-3.695,8.034-3.695c3.088,0,6.017,1.347,8.034,3.694
	c5.434,6.325,13.358,9.952,21.745,9.952h18.471c4.143,0,7.5-3.357,7.5-7.5c0-22.607-18.393-41-41-41h-29.5
	c-22.607,0-41,18.393-41,41c0,4.143,3.358,7.5,7.5,7.5H226.219z M241.249,265h29.5c11.729,0,21.671,7.809,24.897,18.5h-9.868
	c-4.008,0-7.786-1.723-10.367-4.728c-4.872-5.668-11.947-8.919-19.412-8.919c-7.466,0-14.542,3.251-19.412,8.92
	c-2.581,3.004-6.359,4.727-10.368,4.727h-9.868C219.579,272.809,229.52,265,241.249,265z"/>
<path d="M255.999,101.5c26.678,0,47.575-13.178,47.575-30s-20.898-30-47.575-30c-26.678,0-47.575,13.178-47.575,30
	S229.322,101.5,255.999,101.5z M255.999,56.5c18.644,0,32.575,7.919,32.575,15s-13.931,15-32.575,15
	c-18.644,0-32.575-7.919-32.575-15S237.355,56.5,255.999,56.5z"/>
<g>
</g>
<g>
</g>
<g>
</g>
<g>
</g>
<g>
</g>
<g>
</g>
<g>
</g>
<g>
</g>
<g>
</g>
<g>
</g>
<g>
</g>
<g>
</g>
<g>
</g>
<g>
</g>
<g>
</g>
</svg>
