<?xml version="1.0" encoding="iso-8859-1"?>
<!-- Generator: Adobe Illustrator 19.0.0, SVG Export Plug-In . SVG Version: 6.00 Build 0)  -->
<svg version="1.1" id="Capa_1" xmlns="http://www.w3.org/2000/svg" xmlns:xlink="http://www.w3.org/1999/xlink" x="0px" y="0px"
	 viewBox="0 0 512 512" style="enable-background:new 0 0 512 512;" xml:space="preserve">
<path style="fill:#FA8500;" d="M375.624,258.256l-10.709-0.93c2.09-8.53,3.19-17.449,3.19-26.629V168.97
	C253.8,183.84,195.913,137.112,176.964,117.303c-4.9-5.13-7.2-8.45-7.2-8.45c0.85,2.72,1.6,5.54,2.22,8.45
	c5.69,26.759,0.73,60.567-28.089,84.646v28.749c0,2.48,0.08,4.93,0.25,7.37l-19.639-1.71
	C83.009,128.962,106.648,48.526,156.005,53.266c0-29.499,152.043-91.036,232.799,9.81
	C436.991,123.262,375.624,258.256,375.624,258.256z"/>
<path style="fill:#CE6A06;" d="M388.804,63.073C352.348,17.548,301.363,5.118,256.397,7.892
	c38.483,2.447,78.687,17.443,108.908,55.181c30.771,38.434,16.869,107.367,2.8,152.179v15.443c0,9.18-1.1,18.099-3.19,26.629
	l10.709,0.93C375.624,258.254,436.991,123.26,388.804,63.073z"/>
<g>
	<path style="fill:#FA9E3E;" d="M125.846,224.004h49.367v56.607h-49.367c-15.631,0-28.304-12.672-28.304-28.304
		S110.214,224.004,125.846,224.004z"/>
	<path style="fill:#FA9E3E;" d="M386.155,224.004h-49.367v56.607h49.367c15.631,0,28.304-12.672,28.304-28.304
		S401.787,224.004,386.155,224.004z"/>
</g>
<path style="fill:#484655;" d="M203.076,363.451h105.85c41.619,0,75.358,33.739,75.358,75.358v65.692H127.718v-65.692
	C127.718,397.19,161.457,363.451,203.076,363.451z"/>
<g>
	<path style="fill:#35343F;" d="M308.926,363.451h-22.631c41.619,0,75.358,33.739,75.358,75.358v65.692h22.631v-65.692
		C384.283,397.19,350.545,363.451,308.926,363.451z"/>
	<path style="fill:#35343F;" d="M298.098,267.742v95.345c-28.066,23.004-56.13,23.004-84.196,0v-95.345H298.098z"/>
</g>
<path style="fill:#F0EEEE;" d="M237.668,377.066c12.221,4.362,24.443,4.362,36.665,0v-59.39h-36.665L237.668,377.066
	L237.668,377.066z"/>
<path style="fill:#FFB56B;" d="M368.105,168.967c0,2.718,0,5.436,0,8.155c0,6.207,0,12.413,0,18.62c0,6.775,0,13.548,0,20.323
	c0,4.421,0,8.842,0,13.263c0,7.693-0.618,15.313-2.068,22.875c-2.327,12.135-6.756,23.909-12.963,34.59
	c-6.163,10.603-14.015,20.12-23.215,28.227c-6.139,5.41-12.903,10.115-20.074,14.052c-6.222,3.417-12.806,6.287-19.588,8.389
	c-8.529,2.643-17.208,4.342-26.115,5.042c-9.504,0.747-19.162,0.156-28.529-1.574c-12.008-2.217-23.606-6.418-34.263-12.374
	c-10.814-6.044-20.605-13.915-28.86-23.151c-7.793-8.72-14.219-18.638-18.959-29.331c-4.91-11.077-7.986-22.946-9.091-35.011
	c-0.571-6.234-0.485-12.474-0.485-18.724c0-6.178,0-12.355,0-18.533c0-0.484-0.163-1.308,0-1.772c0.175-0.5,1.113-1.031,1.53-1.396
	c1.117-0.975,2.209-1.978,3.276-3.007c3.934-3.796,7.513-7.96,10.637-12.446c5.752-8.26,9.902-17.575,12.27-27.354
	c2.202-9.088,2.886-18.522,2.19-27.841c-0.318-4.265-0.925-8.509-1.814-12.691c1.057,0,2.113,0,3.17,0c0.474,0,1.109-0.113,1.574,0
	c0.329,0.08,0.401,0.173,0.669,0.45c1.085,1.123,2.192,2.224,3.318,3.306c2.71,2.605,5.529,5.096,8.435,7.48
	c7.732,6.346,16.072,11.94,24.804,16.813c11.447,6.389,23.576,11.529,36.066,15.5c15.706,4.993,31.972,8.135,48.368,9.722
	c20.318,1.967,40.825,1.56,61.111-0.587C362.37,169.679,365.24,169.34,368.105,168.967z"/>
<path style="fill:#EF9245;" d="M368.105,168.967c0,2.813,0,5.625,0,8.438c0,6.411,0,12.821,0,19.231c0,6.847,0,13.693,0,20.54
	c0,4.216,0,8.433,0,12.648c0,9.352-1.026,18.616-3.242,27.707c-3.014,12.36-8.211,24.187-15.214,34.804
	c-6.893,10.448-15.53,19.689-25.44,27.33c-6.215,4.792-12.978,8.949-20.078,12.296c-5.872,2.769-11.97,5.098-18.24,6.8
	c-9.357,2.54-18.951,3.895-28.645,4.021c-2.418,0.032-4.83-0.039-7.245-0.144c10.348-0.576,20.594-2.754,30.272-6.464
	c9.348-3.583,18.144-8.579,26.019-14.758c7.854-6.163,14.783-13.492,20.493-21.681c5.747-8.242,10.247-17.343,13.29-26.919
	c3.129-9.842,4.689-20.141,4.702-30.465c0.004-2.803,0-5.605,0-8.408c0-6.441,0-12.88,0-19.321c0-7.414,0-14.827,0-22.241
	c0-5.616,0-11.231,0-16.846c0-1.245-0.199-2.678,0-3.91c0.013-0.079-0.044-0.275,0-0.341c0.18-0.268,1.467-0.155,1.85-0.181
	c3.589-0.245,7.175-0.547,10.754-0.904C360.961,169.844,364.536,169.431,368.105,168.967z"/>
<path d="M256,288.495c13.493,0,26.141-6.632,33.83-17.738c2.358-3.405,1.509-8.078-1.896-10.435
	c-3.406-2.359-8.078-1.508-10.435,1.896c-4.89,7.063-12.926,11.277-21.499,11.277c-8.573,0-16.61-4.216-21.5-11.277
	c-2.358-3.406-7.03-4.254-10.434-1.896c-3.405,2.357-4.254,7.03-1.897,10.435C229.86,281.864,242.507,288.495,256,288.495z"/>
<path d="M310.322,232.975c4.142,0,7.5-3.357,7.5-7.5v-2c0-4.143-3.358-7.5-7.5-7.5c-4.142,0-7.5,3.357-7.5,7.5v2
	C302.822,229.618,306.18,232.975,310.322,232.975z"/>
<path d="M201.68,215.976c-4.142,0-7.5,3.357-7.5,7.5v2c0,4.143,3.358,7.5,7.5,7.5c4.142,0,7.5-3.357,7.5-7.5v-2
	C209.18,219.334,205.822,215.976,201.68,215.976z"/>
<path d="M360.92,288.11h25.235c19.745,0,35.808-16.063,35.808-35.808c0-15.504-9.671-28.697-23.567-33.67
	c6.48-20.474,13.626-48.134,15.738-75.584c2.811-36.532-3.743-65.018-19.477-84.665c-24.511-30.608-58.371-50.041-97.922-56.197
	c-41.956-6.53-78.308,3.056-96.243,9.352c-14.336,5.033-26.784,11.317-35.996,18.174c-7.123,5.301-11.888,10.614-14.252,15.873
	c-18.54,0.593-33.861,11.747-43.595,31.964c-1.796,3.731-0.228,8.214,3.504,10.011c3.733,1.796,8.214,0.228,10.011-3.505
	c5.603-11.638,16.249-25.142,35.126-23.326c2.101,0.195,4.195-0.494,5.759-1.916c1.564-1.421,2.456-3.437,2.456-5.55
	c0-4.339,12.669-17.291,41.956-27.573c16.607-5.829,50.25-14.711,88.968-8.684c36.294,5.65,66.077,22.726,88.522,50.754
	c13.032,16.274,30.11,57.092,0.381,148.745h-7.727v-47.538c0-2.158-0.929-4.211-2.551-5.635c-1.621-1.424-3.777-2.082-5.917-1.803
	c-103.46,13.454-158.801-24.488-180.795-45.466c-1.465-1.397-2.782-2.719-3.955-3.946c-4.348-4.552-6.45-7.529-6.459-7.541
	c-2.11-3.046-6.129-4.092-9.457-2.468c-3.329,1.627-4.972,5.44-3.867,8.977c0.806,2.578,1.494,5.194,2.043,7.772
	c3.039,14.29,6.631,50.434-25.562,77.33c-1.705,1.426-2.691,3.533-2.691,5.756v14.56h-10.549c-0.157,0-0.313,0.01-0.469,0.012
	c-13.112-39.706-17.663-77.563-12.799-107.141c0.672-4.087-2.096-7.945-6.184-8.617c-4.082-0.679-7.946,2.096-8.617,6.184
	c-5.193,31.575-0.601,71.433,12.914,112.93c-12.333,5.776-20.654,18.334-20.654,32.429c0,19.744,16.063,35.808,35.808,35.808h25.244
	c12.431,22.7,31.814,40.727,55.312,51.436v16.401h-3.33c-8.379,0-16.465,1.261-24.094,3.585c-3.396-1.98-7.789-1.005-10.003,2.309
	c-0.4,0.599-0.696,1.235-0.905,1.888c-28.238,13.219-47.855,41.897-47.855,75.083V504.5c0,4.143,3.358,7.5,7.5,7.5h256.567
	c4.142,0,7.5-3.357,7.5-7.5v-65.687c0-13.05-2.95-25.544-8.767-37.132c-1.859-3.703-6.367-5.199-10.068-3.339
	c-3.702,1.858-5.196,6.366-3.338,10.066c4.76,9.482,7.173,19.711,7.173,30.404v58.187H135.214v-58.187
	c0-28.166,17.247-52.373,41.731-62.628l73.387,49.027c1.28,0.855,2.727,1.265,4.159,1.265c0.253,0,0.505-0.02,0.756-0.046
	c0.252,0.025,0.504,0.046,0.757,0.046c1.432,0,2.879-0.409,4.159-1.265l73.946-49.401c6.632,2.65,12.855,6.335,18.393,10.98
	c1.405,1.179,3.116,1.754,4.816,1.754c2.141,0,4.267-0.911,5.75-2.68c2.662-3.174,2.247-7.904-0.926-10.565
	c-6.083-5.103-12.846-9.251-20.036-12.391c-0.166-0.365-0.355-0.723-0.585-1.068c-2.104-3.151-6.178-4.188-9.494-2.581
	c-7.461-2.168-15.234-3.313-23.103-3.313h-3.33v-16.401C329.105,328.836,348.49,310.809,360.92,288.11z M290.599,345.218v14.239
	c-2.928,2.228-5.853,4.179-8.77,5.853v-17.809c0.752-0.166,1.499-0.353,2.247-0.533c0.499-0.12,0.999-0.237,1.497-0.363
	c0.663-0.169,1.324-0.347,1.984-0.528c0.644-0.176,1.286-0.358,1.927-0.544C289.855,345.424,290.23,345.329,290.599,345.218z
	 M262.461,372.351c-0.037,0.005-0.073,0.012-0.11,0.017c-0.648,0.095-1.295,0.173-1.941,0.239c-0.137,0.014-0.273,0.026-0.409,0.038
	c-0.623,0.058-1.245,0.107-1.866,0.138c-0.032,0.002-0.063,0.002-0.095,0.003c-0.681,0.032-1.361,0.051-2.04,0.051
	s-1.359-0.018-2.04-0.051c-0.032-0.001-0.063-0.001-0.095-0.003c-0.621-0.031-1.243-0.081-1.866-0.138
	c-0.137-0.013-0.273-0.024-0.41-0.038c-0.646-0.066-1.293-0.144-1.941-0.239c-0.037-0.005-0.074-0.012-0.11-0.017
	c-1.452-0.217-2.908-0.507-4.368-0.868v-21.672c0.229,0.021,0.459,0.035,0.689,0.054c0.199,0.017,0.399,0.033,0.598,0.049
	c0.38,0.03,0.76,0.062,1.141,0.088c1.096,0.077,2.194,0.138,3.294,0.184c0.121,0.005,0.241,0.01,0.362,0.015
	c0.301,0.012,0.604,0.018,0.906,0.028c1.232,0.039,2.465,0.065,3.698,0.067c0.048,0,0.095,0.003,0.143,0.003
	c0.048,0,0.095-0.002,0.143-0.003c1.233-0.001,2.466-0.028,3.698-0.067c0.301-0.009,0.603-0.016,0.904-0.028
	c0.122-0.005,0.243-0.01,0.365-0.015c1.099-0.046,2.197-0.108,3.293-0.184c0.38-0.026,0.758-0.058,1.137-0.088
	c0.201-0.016,0.402-0.033,0.603-0.05c0.229-0.019,0.459-0.034,0.687-0.054v21.672C265.37,371.843,263.914,372.134,262.461,372.351z
	 M221.402,359.457v-14.239c0.365,0.11,0.734,0.204,1.1,0.311c0.653,0.19,1.306,0.375,1.962,0.554
	c0.646,0.177,1.292,0.351,1.941,0.516c0.536,0.137,1.075,0.263,1.613,0.392c0.718,0.172,1.434,0.352,2.155,0.511v17.809
	C227.255,363.636,224.33,361.685,221.402,359.457z M406.963,252.303c0,11.474-9.335,20.809-20.809,20.809h-18.299
	c0.076-0.201,0.144-0.405,0.22-0.607c0.242-0.647,0.475-1.297,0.705-1.947c0.162-0.457,0.324-0.914,0.481-1.373
	c0.227-0.668,0.443-1.339,0.658-2.011c0.142-0.444,0.288-0.887,0.425-1.333c0.225-0.733,0.436-1.47,0.647-2.207
	c0.11-0.384,0.226-0.767,0.332-1.152c0.308-1.122,0.602-2.247,0.876-3.376c0.279-1.137,0.539-2.279,0.784-3.426
	c0.082-0.384,0.151-0.772,0.23-1.157c0.155-0.764,0.312-1.527,0.452-2.294c0.086-0.474,0.159-0.951,0.24-1.426
	c0.116-0.683,0.236-1.365,0.34-2.051c0.078-0.513,0.142-1.029,0.213-1.544c0.09-0.651,0.185-1.301,0.264-1.954
	c0.065-0.537,0.117-1.076,0.175-1.613c0.068-0.634,0.141-1.268,0.199-1.904c0.051-0.551,0.088-1.104,0.131-1.656
	c0.049-0.625,0.101-1.25,0.14-1.877c0.035-0.559,0.057-1.12,0.084-1.681c0.03-0.622,0.063-1.245,0.083-1.868
	c0.018-0.564,0.025-1.13,0.036-1.695c0.009-0.486,0.028-0.972,0.031-1.459h10.552c0.626,0,1.247,0.029,1.892,0.091
	C398.654,232.542,406.963,241.639,406.963,252.303z M105.038,252.303c0-9.861,6.996-18.431,16.678-20.386
	c1.316-0.274,2.706-0.413,4.131-0.413h10.552c0.005,0.71,0.029,1.408,0.046,2.111c0.01,0.417,0.013,0.838,0.027,1.251
	c0.044,1.249,0.106,2.482,0.189,3.68c0.085,1.325,0.2,2.645,0.329,3.961c0.032,0.332,0.066,0.665,0.101,0.996
	c0.138,1.308,0.29,2.613,0.471,3.912c0.002,0.014,0.004,0.027,0.006,0.041c0.18,1.294,0.39,2.582,0.612,3.866
	c0.057,0.329,0.115,0.657,0.175,0.986c0.234,1.286,0.481,2.57,0.757,3.845c0.003,0.013,0.006,0.027,0.009,0.04
	c0.276,1.272,0.58,2.535,0.897,3.796c0.08,0.319,0.162,0.637,0.244,0.954c0.33,1.268,0.674,2.532,1.047,3.788
	c0,0.002,0.001,0.003,0.001,0.005c0.373,1.257,0.775,2.506,1.19,3.751c0.101,0.304,0.204,0.607,0.308,0.91
	c0.427,1.245,0.866,2.485,1.335,3.717h-18.298C114.372,273.111,105.038,263.777,105.038,252.303z M162.326,277.262
	c-6.201-12.421-9.799-25.772-10.697-39.72c-0.154-2.209-0.232-4.513-0.232-6.849v-6.689v-18.64c0.651-0.587,1.291-1.181,1.922-1.782
	c15.138-14.436,24.539-33.113,27.361-53.504c0.823-5.947,1.087-12.04,0.77-18.216c18.988,16.386,53.814,38.437,108.531,45.33
	c20.64,2.601,44.105,3.049,70.626,0.215v46.598v6.689c0,8.431-1.001,16.789-2.978,24.859c-0.227,0.935-0.468,1.868-0.722,2.797
	c-1.777,6.506-4.201,12.856-7.224,18.918c-11.408,22.911-30.728,40.809-54.407,50.403c-0.003,0.001-0.007,0.003-0.01,0.004
	c-0.832,0.338-1.669,0.663-2.51,0.979c-0.268,0.101-0.537,0.195-0.806,0.294c-0.601,0.22-1.202,0.438-1.807,0.647
	c-0.257,0.089-0.514,0.174-0.771,0.26c-0.648,0.218-1.297,0.432-1.949,0.637c-0.197,0.062-0.395,0.123-0.592,0.184
	c-0.759,0.234-1.52,0.46-2.285,0.676c-0.093,0.026-0.185,0.053-0.278,0.079c-3.668,1.026-7.397,1.852-11.163,2.468
	c-8.395,1.393-17.141,1.741-25.712,1.045c-1.429-0.116-2.853-0.261-4.27-0.436c-1.416-0.174-2.824-0.377-4.222-0.609
	c-0.004-0.001-0.009-0.001-0.013-0.001c-0.001,0-0.003,0-0.004,0c-3.755-0.614-7.475-1.439-11.136-2.463
	c-0.103-0.029-0.207-0.059-0.31-0.088c-0.757-0.214-1.511-0.439-2.262-0.67c-0.199-0.061-0.397-0.122-0.595-0.185
	c-0.656-0.206-1.309-0.421-1.96-0.641c-0.251-0.085-0.503-0.168-0.754-0.254c-0.617-0.213-1.231-0.436-1.844-0.66
	c-0.257-0.094-0.514-0.185-0.77-0.281c-0.848-0.319-1.692-0.646-2.531-0.987C193.052,318.077,173.736,300.178,162.326,277.262z
	 M314.08,371.156l-58.829,39.301l-58.667-39.193c2.137-0.204,4.3-0.318,6.49-0.318h8.673c7.622,5.881,15.341,10.234,23.103,13.048
	c0.103,0.042,0.197,0.098,0.303,0.135c1.992,0.71,3.987,1.306,5.986,1.812c0.11,0.028,0.22,0.053,0.329,0.08
	c0.803,0.199,1.606,0.382,2.41,0.548c0.235,0.049,0.47,0.095,0.705,0.141c0.672,0.13,1.345,0.249,2.018,0.357
	c0.318,0.051,0.636,0.102,0.955,0.148c0.585,0.084,1.169,0.155,1.754,0.221c0.38,0.044,0.76,0.09,1.14,0.126
	c0.521,0.049,1.042,0.083,1.562,0.118c0.425,0.029,0.85,0.065,1.275,0.085c0.49,0.022,0.98,0.027,1.47,0.037
	c0.415,0.009,0.831,0.031,1.246,0.031s0.831-0.023,1.246-0.031c0.49-0.01,0.98-0.015,1.47-0.037c0.425-0.02,0.85-0.056,1.275-0.085
	c0.521-0.035,1.042-0.07,1.563-0.119c0.38-0.036,0.76-0.083,1.139-0.126c0.585-0.066,1.17-0.138,1.754-0.221
	c0.319-0.046,0.637-0.097,0.955-0.148c0.673-0.107,1.345-0.226,2.018-0.356c0.235-0.046,0.47-0.092,0.706-0.141
	c0.804-0.166,1.607-0.349,2.41-0.548c0.109-0.027,0.219-0.052,0.329-0.08c1.999-0.506,3.994-1.102,5.986-1.812
	c0.105-0.038,0.2-0.094,0.303-0.135c7.763-2.814,15.481-7.168,23.103-13.048h8.673C310.653,370.947,312.369,371.026,314.08,371.156z
	"/>
<g>
	<path style="fill:#FFB700;" d="M256,478.169c-4.142,0-7.5-3.357-7.5-7.5v-51.692c0-4.143,3.358-7.5,7.5-7.5
		c4.142,0,7.5,3.357,7.5,7.5v51.692C263.5,474.811,260.142,478.169,256,478.169z"/>
	<path style="fill:#FFB700;" d="M274.333,441.475h-36.665c-4.142,0-7.5-3.357-7.5-7.5c0-4.143,3.358-7.5,7.5-7.5h36.665
		c4.142,0,7.5,3.357,7.5,7.5C281.833,438.118,278.475,441.475,274.333,441.475z"/>
</g>
<g>
</g>
<g>
</g>
<g>
</g>
<g>
</g>
<g>
</g>
<g>
</g>
<g>
</g>
<g>
</g>
<g>
</g>
<g>
</g>
<g>
</g>
<g>
</g>
<g>
</g>
<g>
</g>
<g>
</g>
</svg>
