<?xml version="1.0" encoding="iso-8859-1"?>
<!-- Generator: Adobe Illustrator 19.0.0, SVG Export Plug-In . SVG Version: 6.00 Build 0)  -->
<svg version="1.1" id="Capa_1" xmlns="http://www.w3.org/2000/svg" xmlns:xlink="http://www.w3.org/1999/xlink" x="0px" y="0px"
	 viewBox="0 0 512.023 512.023" style="enable-background:new 0 0 512.023 512.023;" xml:space="preserve">
<g transform="translate(0 -1)">
	<g transform="translate(1 2)">
		<path style="fill:#6A1B9A;" d="M417.145,169.69c0,89.544-72.59,162.133-162.133,162.133c-4.267,0-8.619-0.171-12.8-0.512
			c-84.284-6.714-149.258-77.07-149.258-161.621S157.928,14.782,242.211,8.068c4.181-0.341,8.533-0.512,12.8-0.512
			c43,0,84.24,17.082,114.646,47.488S417.145,126.689,417.145,169.69z"/>
		<ellipse style="fill:#9D27B0;" cx="242.211" cy="169.69" rx="149.333" ry="161.621"/>
		<g>
			<path style="fill:#4E342E;" d="M451.278,417.156v68.267c-0.028,9.414-7.653,17.039-17.067,17.067h-358.4
				c-9.414-0.028-17.039-7.653-17.067-17.067v-68.267H451.278z"/>
			<path style="fill:#4E342E;" d="M33.145,383.023h443.733c9.426,0,17.067,7.641,17.067,17.067v8.533
				c0,9.426-7.641,17.067-17.067,17.067H33.145c-9.426,0-17.067-7.641-17.067-17.067v-8.533
				C16.078,390.664,23.719,383.023,33.145,383.023z"/>
		</g>
		<g>
			<path style="fill:#795548;" d="M425.678,417.156v68.267c-0.028,9.414-7.653,17.039-17.067,17.067h-332.8
				c-9.414-0.028-17.039-7.653-17.067-17.067V425.69h-25.6v-8.533H425.678z"/>
			<path style="fill:#795548;" d="M33.145,383.023h418.133c9.426,0,17.067,7.641,17.067,17.067v8.533
				c0,9.426-7.641,17.067-17.067,17.067H33.145c-9.426,0-17.067-7.641-17.067-17.067v-8.533
				C16.078,390.664,23.719,383.023,33.145,383.023z"/>
		</g>
		<path style="fill:#424242;" d="M348.878,331.823v68.267H161.145v-68.267c0.028-9.414,7.653-17.039,17.067-17.067h153.6
			C341.225,314.784,348.85,322.409,348.878,331.823z"/>
		<path style="fill:#9E9E9E;" d="M323.278,331.823v68.267H161.145v-68.267c0.028-9.414,7.653-17.039,17.067-17.067h128
			C315.625,314.784,323.25,322.409,323.278,331.823z"/>
		<polygon style="fill:#AD1457;" points="374.478,383.023 255.011,468.356 232.91,453.679 127.011,383.023 		"/>
		<polygon style="fill:#E91E63;" points="331.811,383.023 232.91,453.679 127.011,383.023 		"/>
	</g>
	<g>
		<path d="M8.545,402.09v8.533c0,14.138,11.462,25.6,25.6,25.6h17.067v51.2c0,14.138,11.462,25.6,25.6,25.6h358.4
			c14.138,0,25.6-11.462,25.6-25.6v-51.2h17.067c14.138,0,25.6-11.462,25.6-25.6v-8.533c0-14.138-11.462-25.6-25.6-25.6H358.411
			v-42.667c-0.028-7.477-3.342-14.564-9.062-19.379c68.311-44.669,95.42-131.46,64.678-207.068S303.304-11.481,223.204,4.192
			S85.321,90.071,85.345,171.69c-0.209,57.647,28.93,111.438,77.329,142.754c-5.72,4.815-9.035,11.902-9.062,19.379v42.667H34.145
			C20.006,376.49,8.545,387.951,8.545,402.09z M25.611,410.623v-8.533c0-4.713,3.821-8.533,8.533-8.533h91.307l38.4,25.6H34.145
			C29.432,419.156,25.611,415.336,25.611,410.623z M162.145,393.556h186.701l-93.013,66.432l-99.661-66.432H162.145z
			 M443.745,487.423c0,4.713-3.821,8.533-8.533,8.533h-358.4c-4.713,0-8.533-3.821-8.533-8.533v-51.2h121.173l61.85,41.233
			c2.949,1.968,6.808,1.906,9.694-0.154l57.489-41.079h125.261V487.423z M486.411,402.09v8.533c0,4.713-3.82,8.533-8.533,8.533
			H342.377l35.84-25.6h99.661C482.591,393.556,486.411,397.377,486.411,402.09z M102.411,171.69
			C102.353,96.177,157.19,31.822,231.756,19.897s146.738,32.118,170.232,103.883c23.494,71.765-8.66,149.962-75.841,184.442H185.876
			C134.491,282.138,102.2,229.315,102.411,171.69z M170.678,333.823c0-4.713,3.82-8.533,8.533-8.533h153.6
			c4.713,0,8.533,3.82,8.533,8.533v42.667H170.678V333.823z"/>
		<path d="M256.012,52.223c15.956-0.024,31.753,3.168,46.447,9.387c1.054,0.442,2.185,0.671,3.328,0.674
			c4.06,0.002,7.559-2.857,8.366-6.836s-1.299-7.975-5.038-9.557c-16.801-7.105-34.861-10.756-53.103-10.735
			c-4.713,0-8.533,3.821-8.533,8.533S251.299,52.223,256.012,52.223z"/>
		<path d="M355.049,104.95c13.338,19.699,20.455,42.949,20.429,66.739c0,4.713,3.82,8.533,8.533,8.533s8.533-3.821,8.533-8.533
			c0.025-27.196-8.111-53.775-23.356-76.297c-4.905-7.249-10.488-14.015-16.674-20.207c-3.384-2.978-8.5-2.811-11.682,0.383
			c-3.182,3.193-3.331,8.31-0.341,11.684C345.887,92.683,350.761,98.608,355.049,104.95z"/>
		<path d="M236.854,239.956c31.073-1.012,55.485-26.949,54.613-58.027c0.665-25.804-19.632-47.302-45.431-48.119
			c-21.581,0.655-38.581,18.616-38.05,40.201c-0.439,18.218,13.937,33.362,32.154,33.869c4.713,0,8.533-3.82,8.533-8.533
			c0-4.713-3.82-8.533-8.533-8.533c-8.789-0.509-15.523-8.009-15.087-16.802c-0.537-12.162,8.827-22.486,20.983-23.134
			c16.393,0.788,29.078,14.655,28.407,31.053c0.873,21.654-15.899,39.95-37.547,40.96c-28.264-1.219-50.23-25.047-49.152-53.316
			c0-37.922,28.493-68.779,63.522-68.779c44.962,0,81.545,39.526,81.545,88.107c0,4.713,3.821,8.533,8.533,8.533
			c4.713,0,8.533-3.821,8.533-8.533c0-58.027-44.237-105.173-98.611-105.173c-44.433,0-80.589,38.511-80.589,85.845
			C169.596,207.253,199.179,238.717,236.854,239.956z"/>
	</g>
</g>
<g>
</g>
<g>
</g>
<g>
</g>
<g>
</g>
<g>
</g>
<g>
</g>
<g>
</g>
<g>
</g>
<g>
</g>
<g>
</g>
<g>
</g>
<g>
</g>
<g>
</g>
<g>
</g>
<g>
</g>
</svg>
