<?xml version="1.0" encoding="iso-8859-1"?>
<!-- Generator: Adobe Illustrator 19.0.0, SVG Export Plug-In . SVG Version: 6.00 Build 0)  -->
<svg version="1.1" id="Capa_1" xmlns="http://www.w3.org/2000/svg" xmlns:xlink="http://www.w3.org/1999/xlink" x="0px" y="0px"
	 viewBox="0 0 512 512" style="enable-background:new 0 0 512 512;" xml:space="preserve">
<path style="fill:#D0589B;" d="M59.435,122.422l0.481-1.719c6.408-22.918,24.317-40.827,47.235-47.235l1.719-0.481l-1.719-0.481
	c-22.918-6.408-40.827-24.317-47.235-47.235l-0.481-1.719l-0.481,1.719c-6.408,22.918-24.317,40.827-47.235,47.235L10,72.987
	l1.719,0.481c22.918,6.408,40.827,24.317,47.235,47.235L59.435,122.422z"/>
<path style="fill:#6ABBCA;" d="M500.319,377.517c-22.408-6.266-39.919-23.776-46.184-46.185l-0.47-1.681l-0.47,1.681
	c-6.266,22.408-23.776,39.919-46.184,46.185l-1.681,0.47l1.681,0.47c22.408,6.266,39.918,23.776,46.184,46.185l0.47,1.681
	l0.47-1.681c6.266-22.408,23.776-39.919,46.184-46.185l1.681-0.47L500.319,377.517z"/>
<path style="fill:#EBB865;" d="M139.827,374.666c74.46,17.747,152.049,17.747,226.509,0l0.117,0.707
	c41.362-33.213,67.848-84.194,67.848-141.368c0-100.084-81.135-181.219-181.219-181.219S71.862,133.92,71.862,234.005
	c0,20.634,3.457,40.459,9.809,58.938c8.57-8.275,14.967-18.783,18.281-30.636l0.481-1.719l0.481,1.719
	c6.408,22.918,24.317,40.827,47.235,47.235l1.719,0.481l-1.719,0.481c-17.341,4.849-31.81,16.286-40.603,31.492
	c9.256,12.454,20.076,23.672,32.164,33.378L139.827,374.666L139.827,374.666z"/>
<path style="fill:#6ABBCA;" d="M366.335,374.666c-74.46,17.747-152.049,17.747-226.509,0l0,0l-0.117,0.707l-18.668,113.076H385.12
	l-18.668-113.076L366.335,374.666z M301.697,437.448v1.182v11.816c-7.831,0-14.179,6.348-14.179,14.179h-39.533h-9.255h-20.087
	c0-7.831-6.348-14.179-14.179-14.179V438.63v-1.182v-11.815c7.831,0,14.179-6.348,14.179-14.179h20.087h9.255h39.533
	c0,7.831,6.348,14.179,14.179,14.179V437.448z"/>
<path style="fill:#CE466C;" d="M287.519,411.454h-39.533h-9.255h-20.087c0,7.831-6.348,14.179-14.179,14.179v11.815v1.182v11.816
	c7.831,0,14.179,6.348,14.179,14.179h20.087h9.255h39.533c0-7.831,6.348-14.179,14.179-14.179V438.63v-1.182v-11.815
	C293.867,425.632,287.519,419.284,287.519,411.454z"/>
<path style="fill:#D4EAFA;" d="M148.148,310.503l1.719-0.481l-1.719-0.481c-22.918-6.408-40.827-24.317-47.235-47.235l-0.481-1.719
	l-0.481,1.719c-3.314,11.854-9.711,22.361-18.281,30.636c-7.999,7.725-17.89,13.505-28.955,16.599l-1.719,0.481l1.719,0.481
	c22.918,6.408,40.827,24.317,47.236,47.236l0.481,1.719l0.481-1.719c1.559-5.577,3.805-10.854,6.632-15.744
	C116.339,326.789,130.807,315.352,148.148,310.503z"/>
<path d="M7.308,63.355C2.987,64.563,0,68.5,0,72.986s2.987,8.423,7.308,9.631l1.718,0.48c19.425,5.432,34.867,20.873,40.299,40.298
	l0.48,1.719c1.208,4.32,5.145,7.308,9.631,7.308s8.423-2.987,9.631-7.308l0.48-1.719c5.432-19.424,20.872-34.866,40.295-40.298
	l1.72-0.48c4.321-1.207,7.31-5.145,7.31-9.631s-2.988-8.424-7.31-9.631l-1.717-0.48C90.419,57.443,74.979,42.003,69.547,22.58
	l-0.48-1.72c-1.207-4.321-5.145-7.31-9.631-7.31s-8.424,2.988-9.631,7.31l-0.48,1.717C43.892,42.003,28.45,57.444,9.026,62.875
	L7.308,63.355z M59.436,48.507c6.235,9.855,14.624,18.244,24.479,24.479c-9.854,6.236-18.243,14.625-24.479,24.479
	C53.2,87.611,44.811,79.222,34.957,72.986C44.811,66.751,53.199,58.362,59.436,48.507z"/>
<path d="M504.697,368.357l-1.686-0.472c-18.918-5.29-33.956-20.328-39.246-39.243l-0.47-1.682c-1.206-4.32-5.143-7.309-9.628-7.31
	c-0.001,0-0.002,0-0.003,0c-4.484,0-8.421,2.986-9.63,7.305l-0.472,1.684c-5.29,18.918-20.328,33.956-39.251,39.247l-1.681,0.471
	c-4.318,1.21-7.304,5.147-7.303,9.633s2.988,8.421,7.309,9.628l1.68,0.47c18.918,5.29,33.956,20.328,39.247,39.251l0.471,1.681
	c1.21,4.317,5.146,7.303,9.63,7.303c0.001,0,0.002,0,0.003,0c4.485-0.001,8.421-2.988,9.628-7.309l0.47-1.68
	c5.29-18.918,20.328-33.956,39.245-39.246l1.681-0.47c4.32-1.207,7.308-5.143,7.309-9.628
	C512.001,373.505,509.016,369.567,504.697,368.357z M453.665,401.508c-6.033-9.438-14.082-17.488-23.521-23.521
	c9.438-6.033,17.487-14.082,23.521-23.521c6.032,9.438,14.082,17.488,23.52,23.521C467.746,384.02,459.697,392.068,453.665,401.508z
	"/>
<path d="M444.3,234.005c0-105.438-85.78-191.219-191.219-191.219S61.862,128.566,61.862,234.005c0,19.361,2.902,38.054,8.277,55.68
	c-5.908,4.637-12.724,8.159-20.121,10.228l-1.719,0.481c-4.318,1.209-7.304,5.146-7.303,9.632c0.001,4.484,2.988,8.42,7.308,9.628
	l1.718,0.48c19.426,5.432,34.866,20.872,40.3,40.302l0.481,1.719c1.209,4.318,5.145,7.303,9.629,7.303c0.001,0,0.002,0,0.003,0
	c4.484-0.001,8.42-2.988,9.628-7.308l0.291-1.04c5.773,6.476,11.977,12.559,18.57,18.201l-16.367,99.139H93.268
	c-5.522,0-10,4.478-10,10s4.478,10,10,10h27.773h264.08h27.773c5.522,0,10-4.478,10-10s-4.478-10-10-10h-19.289l-16.367-99.139
	C418.255,344.211,444.3,292.095,444.3,234.005z M107.864,324.607c-2.724,3.097-5.219,6.398-7.432,9.895
	c-5.722-9.043-13.272-16.829-22.088-22.871c-0.792-0.543-1.579-1.094-2.392-1.608c0.443-0.28,0.866-0.588,1.303-0.876
	c5.916-3.912,11.277-8.599,15.929-13.926c2.65-3.035,5.086-6.261,7.248-9.677c6.236,9.856,14.623,18.243,24.479,24.479
	C118.553,314.045,112.817,318.976,107.864,324.607z M132.827,478.449l14.111-85.469l1.026-6.214
	c14.845,3.197,29.84,5.701,44.919,7.523c39.934,4.823,80.463,4.823,120.398,0c15.079-1.822,30.073-4.326,44.918-7.523l1.026,6.215
	l14.111,85.47H132.827V478.449z M362.997,365.173c-71.933,16.974-147.897,16.976-219.832,0
	c-8.499-7.134-16.296-15.076-23.274-23.708c7.595-10.186,18.444-17.835,30.949-21.332l1.719-0.48
	c4.319-1.208,7.307-5.144,7.308-9.628c0.001-4.485-2.984-8.423-7.303-9.632l-1.724-0.483c-19.425-5.432-34.865-20.872-40.297-40.297
	l-0.48-1.719c-1.208-4.319-5.144-7.307-9.628-7.308c-0.001,0-0.002,0-0.003,0c-4.483,0-8.42,2.985-9.629,7.303l-0.483,1.723
	c-1.095,3.915-2.602,7.664-4.46,11.206c-2.609-11.863-3.998-24.178-3.998-36.813c0-94.41,76.809-171.219,171.219-171.219
	S424.3,139.595,424.3,234.005C424.3,286.609,400.447,333.74,362.997,365.173z"/>
<path d="M309.544,111.293c-5.014-2.312-10.956-0.12-13.268,4.896s-0.119,10.956,4.896,13.268
	c40.675,18.744,66.956,59.781,66.956,104.548c0,5.522,4.478,10,10,10s10-4.478,10-10
	C388.129,181.46,357.282,133.292,309.544,111.293z"/>
<path d="M279.1,106.25c-0.25-0.61-0.56-1.19-0.92-1.73c-0.37-0.55-0.78-1.06-1.25-1.52c-0.46-0.46-0.97-0.88-1.52-1.24
	c-0.54-0.36-1.12-0.67-1.721-0.92c-0.609-0.25-1.239-0.44-1.87-0.57c-1.289-0.26-2.619-0.26-3.909,0
	c-0.641,0.13-1.271,0.32-1.87,0.57c-0.601,0.25-1.181,0.56-1.73,0.92c-0.54,0.36-1.06,0.78-1.52,1.24s-0.88,0.97-1.24,1.52
	c-0.36,0.54-0.67,1.13-0.92,1.73c-0.25,0.6-0.44,1.229-0.57,1.87c-0.13,0.64-0.2,1.3-0.2,1.949c0,0.65,0.07,1.311,0.2,1.961
	c0.13,0.63,0.32,1.26,0.57,1.869c0.25,0.601,0.56,1.181,0.92,1.721c0.36,0.55,0.78,1.06,1.24,1.52c0.46,0.47,0.979,0.88,1.52,1.25
	c0.55,0.36,1.13,0.67,1.73,0.92s1.229,0.44,1.87,0.57c0.64,0.13,1.3,0.189,1.949,0.189c0.65,0,1.311-0.06,1.96-0.189
	c0.631-0.13,1.261-0.32,1.87-0.57c0.601-0.25,1.181-0.56,1.721-0.92c0.55-0.37,1.06-0.78,1.52-1.25c0.47-0.46,0.88-0.97,1.25-1.52
	c0.36-0.54,0.67-1.12,0.92-1.721c0.25-0.609,0.44-1.239,0.57-1.869c0.13-0.65,0.189-1.311,0.189-1.961
	c0-0.649-0.06-1.31-0.189-1.949C279.54,107.479,279.35,106.85,279.1,106.25z"/>
<path d="M307.332,417.373c-1.605-1.097-3.544-1.741-5.635-1.741c-2.304,0-4.179-1.875-4.179-4.179c0-5.162-3.912-9.409-8.933-9.941
	c-0.351-0.037-0.707-0.059-1.067-0.059h-68.875c-0.361,0-0.716,0.021-1.067,0.059c-5.021,0.533-8.933,4.78-8.933,9.941
	c0,2.304-1.875,4.179-4.179,4.179c-2.09,0-4.03,0.644-5.635,1.741c-2.635,1.801-4.365,4.827-4.365,8.259v24.813
	c0,5.522,4.478,10,10,10c2.304,0,4.179,1.875,4.179,4.179c0,5.522,4.478,10,10,10h68.875c5.522,0,10-4.478,10-10
	c0-2.304,1.875-4.179,4.179-4.179c5.522,0,10-4.478,10-10v-24.813C311.697,422.2,309.967,419.173,307.332,417.373z M291.697,442.611
	c-5.308,2.421-9.592,6.705-12.013,12.013h-53.207c-2.421-5.308-6.705-9.592-12.013-12.013v-9.146c4.698-2.143,8.588-5.75,11.1-10.23
	c8.988,1.301,18.173,1.988,27.516,1.988s18.528-0.687,27.516-1.988c2.512,4.48,6.402,8.087,11.1,10.23L291.697,442.611
	L291.697,442.611z"/>
<g>
</g>
<g>
</g>
<g>
</g>
<g>
</g>
<g>
</g>
<g>
</g>
<g>
</g>
<g>
</g>
<g>
</g>
<g>
</g>
<g>
</g>
<g>
</g>
<g>
</g>
<g>
</g>
<g>
</g>
</svg>
