<?xml version="1.0" encoding="iso-8859-1"?>
<!-- Generator: Adobe Illustrator 19.0.0, SVG Export Plug-In . SVG Version: 6.00 Build 0)  -->
<svg version="1.1" id="Capa_1" xmlns="http://www.w3.org/2000/svg" xmlns:xlink="http://www.w3.org/1999/xlink" x="0px" y="0px"
	 viewBox="0 0 512.001 512.001" style="enable-background:new 0 0 512.001 512.001;" xml:space="preserve">
<path id="SVGCleanerId_0" style="fill:#F0EEEE;" d="M201.143,358.3h109.715c43.139,0,78.11,34.971,78.11,78.11v68.09H123.033v-68.09
	C123.033,393.271,158.004,358.3,201.143,358.3z"/>
<g>
	<path id="SVGCleanerId_0_1_" style="fill:#F0EEEE;" d="M201.143,358.3h109.715c43.139,0,78.11,34.971,78.11,78.11v68.09H123.033
		v-68.09C123.033,393.271,158.004,358.3,201.143,358.3z"/>
</g>
<path style="fill:#D9D4D4;" d="M310.857,358.3h-23.321c43.139,0,78.11,34.971,78.11,78.11v68.09h23.321v-68.09
	C388.967,393.271,353.996,358.3,310.857,358.3z"/>
<path style="fill:#FB403F;" d="M351.119,466c0.657-30.263,6.78-60.245,15.473-84.294c-14.174-14.439-33.904-23.406-55.735-23.406
	H201.143c-21.832,0-41.561,8.967-55.735,23.406c8.693,24.049,14.817,54.031,15.473,84.294H351.119z"/>
<g>
	<path style="fill:#C21C1C;" d="M359.335,405.623c2.115-8.43,4.562-16.46,7.258-23.917l0,0c-4.427-4.51-9.396-8.485-14.801-11.821
		c-0.003-0.002-0.007-0.005-0.01-0.007c-1.055-0.651-2.127-1.275-3.214-1.876c-0.032-0.018-0.062-0.036-0.094-0.054
		c-1.053-0.58-2.122-1.133-3.204-1.665c-0.069-0.034-0.136-0.072-0.205-0.105c-1.045-0.511-2.107-0.993-3.178-1.457
		c-0.109-0.047-0.215-0.1-0.324-0.146c-1.028-0.441-2.072-0.851-3.122-1.248c-0.158-0.06-0.312-0.127-0.47-0.185
		c-1.007-0.373-2.027-0.715-3.053-1.047c-0.208-0.067-0.411-0.144-0.62-0.21c-0.978-0.308-1.97-0.584-2.965-0.854
		c-0.263-0.071-0.521-0.154-0.785-0.223c-0.952-0.248-1.918-0.462-2.884-0.674c-0.313-0.069-0.621-0.151-0.935-0.216
		c-0.927-0.191-1.865-0.349-2.804-0.507c-0.361-0.061-0.718-0.137-1.081-0.193c-0.912-0.141-1.836-0.246-2.758-0.355
		c-0.396-0.047-0.787-0.11-1.185-0.151c-0.96-0.098-1.931-0.16-2.901-0.223c-0.366-0.024-0.727-0.065-1.095-0.083
		c-1.337-0.068-2.683-0.103-4.038-0.103c-0.003,0-0.006,0-0.009,0h-23.321C319.741,358.3,347.386,377.795,359.335,405.623z"/>
	<path style="fill:#C21C1C;" d="M201.5,307v51.3c36.333,18.933,72.667,18.933,109,0V307H201.5z"/>
</g>
<circle style="fill:#F0EEEE;" cx="256" cy="173.13" r="165.63"/>
<path style="fill:#D9D4D4;" d="M256,7.5c-4.019,0-8.003,0.151-11.95,0.433c85.898,6.125,153.683,77.743,153.683,165.201
	S329.947,332.21,244.05,338.335c3.947,0.281,7.931,0.433,11.95,0.433c91.477,0,165.634-74.157,165.634-165.634S347.477,7.5,256,7.5z
	"/>
<path style="fill:#3D5868;" d="M256,276.72c51.276,0,106.434-5.233,146.802-26.831c12.022-22.946,18.832-49.053,18.832-76.755
	c0-11.255-1.128-22.246-3.267-32.87C380.463,98.268,321.828,87.678,256,87.678s-124.464,10.59-162.367,52.586
	c-2.139,10.625-3.267,21.616-3.267,32.87c0,27.701,6.81,53.809,18.832,76.755C149.566,271.486,204.724,276.72,256,276.72z"/>
<path style="fill:#2A434F;" d="M421.488,166.45c-0.023-0.579-0.037-1.161-0.066-1.739c-0.056-1.106-0.13-2.206-0.207-3.306
	c-0.02-0.281-0.032-0.563-0.054-0.843c-0.096-1.275-0.209-2.545-0.334-3.812c-0.01-0.101-0.017-0.202-0.027-0.303
	c-0.549-5.471-1.364-10.864-2.431-16.166c-0.001-0.006-0.002-0.013-0.004-0.019c-9.222-10.217-19.679-18.563-31.161-25.362
	c6.805,18.115,10.527,37.739,10.527,58.233c0,33.03-9.673,63.796-26.334,89.633c11.147-3.454,21.705-7.689,31.403-12.878
	c2.978-5.684,5.634-11.564,7.948-17.612c0.046-0.12,0.091-0.239,0.137-0.359c0.53-1.396,1.042-2.8,1.535-4.214
	c0.038-0.108,0.076-0.215,0.114-0.323c1.568-4.521,2.943-9.133,4.121-13.822c0.066-0.263,0.128-0.527,0.193-0.79
	c0.307-1.25,0.6-2.506,0.879-3.767c0.08-0.364,0.16-0.728,0.238-1.093c0.261-1.218,0.506-2.442,0.74-3.67
	c0.064-0.339,0.132-0.677,0.195-1.016c0.279-1.517,0.54-3.04,0.777-4.571c0.004-0.024,0.008-0.048,0.012-0.073
	c0.245-1.585,0.464-3.177,0.663-4.777c0.042-0.341,0.077-0.685,0.117-1.028c0.143-1.208,0.275-2.419,0.392-3.634
	c0.05-0.52,0.094-1.042,0.139-1.564c0.092-1.063,0.174-2.129,0.246-3.197c0.037-0.555,0.074-1.111,0.105-1.667
	c0.063-1.1,0.111-2.203,0.153-3.308c0.018-0.496,0.042-0.99,0.056-1.487c0.045-1.589,0.074-3.183,0.074-4.784
	c0-1.414-0.018-2.825-0.053-4.23C421.56,168.083,421.521,167.268,421.488,166.45z"/>
<path d="M409.182,253.792c0.087-0.142,0.186-0.275,0.264-0.423c4.444-8.483,8.147-17.349,11.116-26.461
	c0.096-0.292,0.192-0.585,0.286-0.878c0.273-0.852,0.542-1.706,0.801-2.562c0.345-1.135,0.681-2.275,1.004-3.419
	c0.143-0.51,0.279-1.023,0.418-1.535c0.298-1.095,0.584-2.193,0.861-3.295c0.093-0.371,0.188-0.741,0.278-1.112
	c0.366-1.499,0.711-3.005,1.037-4.516c0.035-0.165,0.069-0.329,0.103-0.494c0.331-1.559,0.643-3.125,0.931-4.697
	c0.009-0.046,0.018-0.092,0.026-0.138c0.301-1.645,0.576-3.297,0.83-4.956c0.019-0.125,0.037-0.249,0.056-0.374
	c0.486-3.228,0.883-6.48,1.187-9.753c0.027-0.294,0.053-0.589,0.079-0.883c0.127-1.447,0.24-2.897,0.331-4.352
	c0.01-0.152,0.022-0.304,0.032-0.456c0.087-1.462,0.15-2.928,0.2-4.396c0.018-0.508,0.032-1.015,0.045-1.523
	c0.031-1.228,0.051-2.458,0.056-3.69c0.001-0.248,0.011-0.495,0.011-0.742c0-2.96-0.078-5.92-0.229-8.876
	c-0.006-0.13-0.017-0.258-0.024-0.388c-0.07-1.318-0.151-2.635-0.251-3.951c-0.027-0.353-0.063-0.702-0.092-1.054
	c-0.09-1.1-0.183-2.2-0.294-3.297c-0.035-0.35-0.08-0.697-0.117-1.046c-0.119-1.111-0.242-2.222-0.382-3.33
	c-0.027-0.211-0.059-0.421-0.087-0.632c-0.515-3.952-1.156-7.882-1.939-11.774c-0.015-0.073-0.042-0.142-0.058-0.214
	C409.601,59.608,339.632,0,256,0c-47.423,0-91.68,18.802-124.617,52.942c-2.876,2.981-2.791,7.729,0.19,10.605
	c2.98,2.877,7.73,2.79,10.605-0.19C172.263,32.174,212.686,15,256,15c67.411,0,125.095,42.405,147.804,101.938
	C360.635,84.788,303.241,80.178,256,80.178c-47.265,0-104.693,4.615-147.869,36.808c4.159-10.953,9.546-21.461,16.122-31.339
	c2.295-3.448,1.361-8.104-2.087-10.399c-3.447-2.296-8.103-1.362-10.399,2.087c-12.488,18.758-21.084,39.581-25.482,61.435
	c-0.001,0.005-0.003,0.01-0.004,0.015c-0.012,0.061-0.022,0.123-0.035,0.185c-0.243,1.213-0.47,2.429-0.687,3.648
	c-0.048,0.267-0.094,0.534-0.141,0.801c-0.209,1.208-0.407,2.417-0.59,3.63c-0.015,0.099-0.032,0.198-0.047,0.297
	c-0.2,1.337-0.383,2.677-0.551,4.02c-0.027,0.216-0.051,0.432-0.077,0.649c-0.133,1.094-0.256,2.191-0.368,3.289
	c-0.034,0.33-0.068,0.66-0.1,0.991c-0.112,1.159-0.214,2.32-0.303,3.484c-0.012,0.157-0.027,0.314-0.039,0.471
	c-0.092,1.248-0.168,2.498-0.233,3.75c-0.025,0.475-0.044,0.951-0.065,1.427c-0.035,0.795-0.065,1.591-0.089,2.387
	c-0.017,0.551-0.034,1.101-0.045,1.652c-0.017,0.833-0.026,1.668-0.031,2.502c-0.003,0.389-0.014,0.778-0.014,1.167
	c0,0.247,0.01,0.495,0.011,0.742c0.005,1.232,0.025,2.462,0.056,3.69c0.013,0.508,0.028,1.015,0.045,1.523
	c0.05,1.469,0.113,2.935,0.2,4.396c0.009,0.152,0.022,0.304,0.032,0.456c0.091,1.455,0.204,2.905,0.331,4.352
	c0.026,0.294,0.051,0.589,0.079,0.883c0.304,3.273,0.701,6.525,1.187,9.753c0.019,0.125,0.037,0.25,0.056,0.374
	c0.254,1.658,0.529,3.311,0.83,4.956c0.008,0.046,0.018,0.092,0.026,0.138c0.289,1.572,0.6,3.138,0.931,4.697
	c0.035,0.165,0.068,0.33,0.103,0.494c0.326,1.512,0.672,3.018,1.037,4.517c0.09,0.37,0.185,0.739,0.277,1.109
	c0.277,1.104,0.564,2.204,0.863,3.301c0.138,0.511,0.274,1.022,0.416,1.531c0.323,1.145,0.659,2.286,1.005,3.422
	c0.259,0.856,0.528,1.708,0.8,2.559c0.094,0.293,0.191,0.585,0.287,0.878c2.968,9.113,6.671,17.978,11.116,26.461
	c0.077,0.148,0.176,0.28,0.263,0.422c19.204,36.457,51.195,65.707,91.182,81.033v16.281c-1.416,0.116-2.828,0.256-4.225,0.441
	c-4.107,0.544-6.994,4.313-6.451,8.419c0.5,3.772,3.722,6.517,7.426,6.517c0.328,0,0.66-0.021,0.994-0.066
	c2.634-0.349,5.325-0.541,8.017-0.593c16.18,8.175,32.453,12.818,48.739,13.906V458.5h-80.385
	c-1.26-25.333-6.157-51.437-14.032-74.711c3.716-3.332,7.768-6.257,12.09-8.728c3.596-2.056,4.845-6.638,2.788-10.233
	c-2.055-3.596-6.635-4.844-10.233-2.789c-6.726,3.846-12.907,8.603-18.382,14.134c-0.099,0.09-0.2,0.175-0.295,0.272
	c-15.812,16.096-24.52,37.393-24.52,59.966v68.09c0,4.142,3.357,7.5,7.5,7.5h265.94c4.143,0,7.5-3.358,7.5-7.5v-68.09
	c0-23.097-9.21-44.073-24.131-59.488c-0.13-0.156-0.251-0.318-0.395-0.465c-14.554-14.831-33.498-23.666-53.943-25.342v-16.291
	C357.987,319.498,389.978,290.248,409.182,253.792z M256,95.178c76.004,0,124.064,14.997,155.381,48.566
	c0.089,0.469,0.186,0.935,0.27,1.406c0.004,0.023,0.008,0.046,0.012,0.07c0.213,1.191,0.41,2.388,0.596,3.588
	c0.032,0.208,0.064,0.417,0.095,0.625c0.154,1.021,0.297,2.047,0.431,3.074c0.043,0.329,0.085,0.659,0.126,0.988
	c0.115,0.923,0.22,1.85,0.319,2.778c0.042,0.394,0.085,0.788,0.124,1.182c0.089,0.9,0.167,1.802,0.241,2.706
	c0.032,0.396,0.067,0.791,0.096,1.187c0.072,0.969,0.131,1.942,0.185,2.916c0.018,0.317,0.039,0.633,0.055,0.95
	c0.061,1.219,0.107,2.441,0.14,3.667c0.002,0.067,0.005,0.133,0.007,0.2c0.034,1.346,0.052,2.695,0.052,4.049
	c0,0.273-0.007,0.544-0.008,0.817c-0.005,1.029-0.02,2.058-0.046,3.087c-0.012,0.497-0.027,0.993-0.044,1.489
	c-0.038,1.113-0.086,2.226-0.148,3.338c-0.012,0.215-0.019,0.432-0.032,0.647c-0.081,1.351-0.183,2.7-0.298,4.047
	c-0.027,0.318-0.056,0.636-0.085,0.953c-0.257,2.814-0.587,5.62-0.994,8.414c-0.029,0.196-0.058,0.391-0.087,0.587
	c-0.421,2.818-0.918,5.624-1.489,8.413c-0.057,0.277-0.116,0.553-0.174,0.83c-0.248,1.177-0.509,2.351-0.783,3.522
	c-0.053,0.224-0.101,0.45-0.155,0.674c-0.283,1.187-0.587,2.368-0.897,3.548c-0.158,0.599-0.32,1.196-0.485,1.792
	c-0.157,0.57-0.321,1.137-0.485,1.705c-2.742,9.49-6.352,18.656-10.76,27.386C364.631,261.091,318.417,269.22,256,269.22
	s-108.631-8.129-141.16-24.842c-4.408-8.731-8.018-17.896-10.76-27.386c-0.164-0.568-0.327-1.136-0.485-1.705
	c-0.165-0.596-0.327-1.193-0.485-1.792c-0.311-1.18-0.615-2.363-0.898-3.551c-0.053-0.221-0.101-0.444-0.153-0.665
	c-0.275-1.173-0.536-2.349-0.784-3.528c-0.058-0.276-0.117-0.553-0.174-0.83c-0.571-2.789-1.068-5.595-1.489-8.413
	c-0.029-0.196-0.059-0.391-0.087-0.587c-0.407-2.794-0.737-5.6-0.994-8.414c-0.029-0.318-0.058-0.635-0.085-0.953
	c-0.115-1.348-0.217-2.697-0.298-4.047c-0.013-0.215-0.02-0.432-0.032-0.647c-0.062-1.112-0.109-2.224-0.147-3.338
	c-0.017-0.496-0.032-0.992-0.044-1.489c-0.025-1.028-0.04-2.057-0.046-3.087c-0.001-0.272-0.008-0.544-0.008-0.817
	c0-1.803,0.038-3.601,0.098-5.397c0.009-0.281,0.018-0.562,0.029-0.842c0.068-1.756,0.162-3.508,0.288-5.255
	c0.016-0.227,0.038-0.453,0.055-0.68c0.118-1.548,0.261-3.092,0.424-4.632c0.036-0.345,0.069-0.691,0.108-1.035
	c0.186-1.656,0.399-3.307,0.636-4.953c0.055-0.382,0.115-0.762,0.173-1.143c0.227-1.494,0.472-2.983,0.741-4.468
	c0.043-0.24,0.082-0.48,0.126-0.719c0.015-0.081,0.034-0.161,0.049-0.242C131.916,110.18,179.98,95.178,256,95.178z M128.45,266.584
	c32.542,11.841,74.574,17.635,127.55,17.635s95.007-5.795,127.55-17.635c-18.518,25.299-44.534,45.134-75.518,55.923
	c-16.68,5.814-34.186,8.762-52.031,8.762c-3.346,0-6.68-0.104-9.999-0.31c-1.21-0.075-2.418-0.167-3.624-0.27
	c-13.127-1.119-25.997-3.855-38.411-8.183C172.983,311.718,146.967,291.883,128.45,266.584z M209,339.81
	c0.051,0.014,0.102,0.026,0.153,0.04c1.668,0.468,3.343,0.905,5.023,1.322c0.363,0.09,0.727,0.18,1.091,0.268
	c1.673,0.404,3.35,0.787,5.034,1.141c0.245,0.052,0.492,0.098,0.737,0.148c1.577,0.324,3.159,0.625,4.745,0.904
	c0.273,0.048,0.545,0.1,0.818,0.147c1.694,0.29,3.393,0.551,5.096,0.79c0.367,0.052,0.734,0.101,1.101,0.15
	c1.729,0.232,3.461,0.444,5.199,0.624c0.153,0.016,0.307,0.028,0.46,0.043c1.654,0.166,3.312,0.305,4.973,0.425
	c0.323,0.023,0.645,0.049,0.968,0.07c1.721,0.114,3.446,0.201,5.174,0.264c0.351,0.013,0.703,0.022,1.055,0.033
	c1.788,0.054,3.578,0.091,5.373,0.091c1.795,0,3.585-0.037,5.373-0.091c0.352-0.011,0.704-0.02,1.055-0.033
	c1.728-0.063,3.453-0.15,5.174-0.264c0.323-0.021,0.646-0.047,0.969-0.07c1.661-0.119,3.318-0.258,4.972-0.425
	c0.154-0.015,0.308-0.027,0.461-0.043c1.739-0.18,3.472-0.393,5.201-0.624c0.366-0.049,0.731-0.098,1.097-0.149
	c1.705-0.24,3.406-0.501,5.102-0.791c0.269-0.046,0.537-0.097,0.806-0.145c1.593-0.281,3.182-0.583,4.766-0.908
	c0.24-0.049,0.48-0.094,0.72-0.145c1.69-0.354,3.372-0.739,5.05-1.144c0.356-0.086,0.712-0.174,1.068-0.262
	c1.687-0.419,3.37-0.857,5.044-1.328c0.048-0.013,0.096-0.024,0.144-0.038v13.86c-15.494,7.456-30.807,11.245-46.117,11.386
	c-0.29-0.034-0.584-0.056-0.883-0.056c-0.299,0-0.593,0.022-0.883,0.056c-15.31-0.141-30.623-3.93-46.117-11.386v-13.86H209z
	 M263.5,379.728c16.278-1.087,32.543-5.726,48.716-13.894c0.712,0.013,1.427,0.02,2.134,0.054c0.29,0.014,0.578,0.042,0.867,0.059
	c0.885,0.054,1.768,0.115,2.643,0.202c0.268,0.026,0.534,0.062,0.801,0.091c0.916,0.101,1.829,0.212,2.735,0.349
	c0.189,0.028,0.377,0.061,0.566,0.091c1.01,0.16,2.014,0.336,3.009,0.539c0.075,0.015,0.15,0.031,0.225,0.047
	c12.399,2.567,23.612,8.401,32.712,16.55c-7.87,23.267-12.765,49.361-14.024,74.684H263.5V379.728z M130.53,436.41
	c0-14.229,4.207-27.835,12.006-39.388c6.528,21.951,10.341,46.032,10.845,69.141c0.089,4.078,3.42,7.336,7.498,7.336h87.62V497
	H130.53V436.41z M381.47,497H263.5v-23.5h87.62c4.078,0,7.409-3.259,7.498-7.336c0.504-23.099,4.314-47.168,10.836-69.111
	c7.583,11.253,12.015,24.797,12.015,39.358V497H381.47z"/>
<g>
</g>
<g>
</g>
<g>
</g>
<g>
</g>
<g>
</g>
<g>
</g>
<g>
</g>
<g>
</g>
<g>
</g>
<g>
</g>
<g>
</g>
<g>
</g>
<g>
</g>
<g>
</g>
<g>
</g>
</svg>
