<?xml version="1.0" encoding="iso-8859-1"?>
<!-- Generator: Adobe Illustrator 19.0.0, SVG Export Plug-In . SVG Version: 6.00 Build 0)  -->
<svg version="1.1" id="Capa_1" xmlns="http://www.w3.org/2000/svg" xmlns:xlink="http://www.w3.org/1999/xlink" x="0px" y="0px"
	 viewBox="0 0 511.999 511.999" style="enable-background:new 0 0 511.999 511.999;" xml:space="preserve">
<path style="fill:#5CDBF1;" d="M203.073,363.444h105.855c41.621,0,75.362,33.741,75.362,75.362V504.5H127.711v-65.694
	C127.711,397.184,161.452,363.444,203.073,363.444z"/>
<path style="fill:#37B7C4;" d="M308.927,363.444h-22.632c41.621,0,75.362,33.741,75.362,75.362V504.5h22.632v-65.695
	C384.289,397.184,350.548,363.444,308.927,363.444z"/>
<path style="fill:#5880A2;" d="M350,504.5V375.633c-9.301-6.059-20.017-10.114-31.55-11.569L256,463.609l-62.651-99.52
	c-11.456,1.477-22.103,5.52-31.349,11.544V504.5H350z"/>
<path style="fill:#3F6582;" d="M350,398.563v-22.93c-0.001-0.001-0.002-0.001-0.002-0.001c-1.121-0.73-2.263-1.43-3.424-2.1
	c-0.086-0.05-0.173-0.1-0.259-0.149c-1.158-0.663-2.335-1.298-3.53-1.9c-0.007-0.004-0.014-0.007-0.021-0.011
	c-3.1-1.56-6.322-2.911-9.648-4.038c-0.031-0.01-0.062-0.021-0.093-0.031c-4.669-1.574-9.544-2.704-14.573-3.338l-3.226,5.142
	C329.621,375.197,341.749,385.529,350,398.563z"/>
<path style="fill:#FA9E3E;" d="M298.1,363.08v-95.35h-84.2v95.35l17.493,19.772c13.076,14.78,36.139,14.78,49.215,0L298.1,363.08z"
	/>
<path style="fill:#FFB56B;" d="M256,342.79L256,342.79c-61.919,0-112.115-50.195-112.115-112.115V117.281h224.229v113.394
	C368.115,292.595,317.919,342.79,256,342.79z"/>
<path style="fill:#EF9245;" d="M344.781,117.281v125.062c0,53.578-41.949,97.354-94.795,100.286
	c1.992,0.105,3.996,0.161,6.014,0.161l0,0c61.919,0,112.115-50.195,112.115-112.115V117.281H344.781z"/>
<path style="fill:#FA8500;" d="M256,33.927c-77.872,0-141,72.8-141,162.603c0,47.592,17.732,90.406,45.99,120.142
	c-6.402-37.228-5.331-104.429,20.229-154.572c7.212,8.863,39.917,38.179,83.112,45.679c-4.319-6.818-12.958-32.725-8.639-48.406
	c4.319,13.635,37.43,41.309,68.109,47.724c13.019,2.723,40.57,36.126,21.892,114.902C377.027,292.176,397,247.043,397,196.53
	C397,106.727,333.872,33.927,256,33.927z"/>
<path style="fill:#CE6A06;" d="M256,33.927c-2.083,0-4.154,0.063-6.216,0.166c68.655,3.753,123.403,75.037,123.403,162.437
	c0,33.456-8.028,64.547-21.781,90.398c-0.847,10.522-2.659,22.186-5.714,35.072C377.027,292.176,397,247.043,397,196.53
	C397,106.727,333.872,33.927,256,33.927z"/>
<path style="fill:#5CDBF1;" d="M170.823,22.229L165.542,67.5h180.917l-5.282-45.271c-0.98-8.397-8.094-14.729-16.548-14.729H187.371
	C178.917,7.5,171.803,13.832,170.823,22.229z"/>
<path style="fill:#37B7C4;" d="M341.177,22.229c-0.98-8.397-8.093-14.729-16.548-14.729h-25c8.454,0,15.568,6.332,16.548,14.729
	l5.282,45.271h25L341.177,22.229z"/>
<path style="fill:#5CDBF1;" d="M124.768,74.536l3.924,9.974C131.895,92.649,139.75,98,148.496,98h215.008
	c8.746,0,16.601-5.351,19.804-13.49l3.924-9.974c1.329-3.379-1.161-7.036-4.793-7.036H129.561
	C125.93,67.5,123.439,71.157,124.768,74.536z"/>
<path style="fill:#37B7C4;" d="M382.439,67.5h-28.333c3.631,0,6.122,3.657,4.793,7.036l-3.924,9.974
	C351.772,92.649,343.917,98,335.171,98h28.333c8.746,0,16.602-5.351,19.804-13.49l3.924-9.974
	C388.561,71.157,386.07,67.5,382.439,67.5z"/>
<polygon style="fill:#5880A2;" points="156.5,33.5 355.5,33.5 361.5,67.5 150.5,67.5 "/>
<polygon style="fill:#3F6582;" points="355.5,33.5 329.406,33.5 335.406,67.5 361.5,67.5 "/>
<g>
	<path style="fill:#F0EEEE;" d="M267.952,376.401l-4.033,18.336c-0.691,18.735,13.647,25.343,23.237,22.87
		c23.786-6.134,25.036,23.388,32.071,22.025C339.827,374.207,288.317,359.212,267.952,376.401z"/>
	<path style="fill:#F0EEEE;" d="M244.048,376.401l4.033,18.336c0.691,18.735-13.647,25.343-23.237,22.87
		c-23.786-6.134-25.036,23.388-32.071,22.025C172.173,374.207,223.683,359.212,244.048,376.401z"/>
</g>
<path style="fill:#D9D4D4;" d="M256,365.272c-8.728,0-15.804,7.076-15.804,15.804v17.176c0,8.728,7.076,15.804,15.804,15.804
	c8.728,0,15.804-7.076,15.804-15.804v-17.176C271.804,372.348,264.728,365.272,256,365.272z"/>
<line style="fill:none;stroke:#FFB700;stroke-width:15;stroke-linecap:round;stroke-linejoin:round;stroke-miterlimit:10;" x1="233.75" y1="477.25" x2="233.75" y2="477.25"/>
<path d="M354.487,369.638c-0.131-0.098-0.255-0.203-0.392-0.292c-6.366-4.148-13.153-7.346-20.283-9.582
	c-0.142-0.045-0.283-0.092-0.426-0.136c-1.052-0.324-2.113-0.624-3.18-0.905c-0.402-0.107-0.805-0.211-1.21-0.312
	c-0.897-0.222-1.798-0.434-2.706-0.626c-0.622-0.133-1.248-0.253-1.875-0.372c-0.366-0.069-0.733-0.133-1.101-0.197
	c-1.168-0.205-2.344-0.386-3.529-0.542c-0.131-0.017-0.261-0.039-0.392-0.055c-0.024-0.003-0.048-0.001-0.072-0.004
	c-3.407-0.428-6.87-0.675-10.391-0.675h-3.33v-16.398c12.422-5.684,23.837-13.539,33.658-23.055
	c-0.279,1.255-0.566,2.515-0.866,3.781c-0.766,3.23,0.683,6.579,3.561,8.233c1.167,0.67,2.455,0.997,3.735,0.997
	c1.879,0,3.741-0.705,5.172-2.066c34.089-32.436,53.64-80.148,53.64-130.903c0-34.486-8.823-67.299-25.585-95.487
	c5.037-3.188,9.068-7.932,11.372-13.787l3.924-9.975c1.533-3.898,1.041-8.291-1.317-11.753C390.536,62.066,386.627,60,382.439,60
	h-14.647l-4.907-27.804C362.253,28.612,359.139,26,355.5,26h-6.331l-0.539-4.639C347.209,9.184,336.891,0,324.63,0H187.37
	c-12.261,0-22.579,9.184-24,21.364L162.831,26H156.5c-3.639,0-6.753,2.612-7.386,6.196L144.208,60h-14.647
	c-4.188,0-8.097,2.066-10.455,5.528s-2.851,7.855-1.317,11.754l3.925,9.975c2.304,5.857,6.338,10.603,11.378,13.791
	c-6.077,10.247-11.169,21.194-15.148,32.677c-1.356,3.913,0.717,8.186,4.631,9.542c0.813,0.281,1.641,0.415,2.456,0.415
	c3.106,0,6.012-1.945,7.086-5.047c4.068-11.74,9.388-22.87,15.824-33.156c0.186,0.003,0.369,0.021,0.556,0.021h215.008
	c0.177,0,0.35-0.017,0.526-0.02c16.664,26.572,25.47,57.942,25.47,91.05c0,37.104-11.286,72.366-31.557,100.146
	c0.251-2.007,0.473-3.994,0.663-5.957c5.479-56.798-16.158-87.384-33.27-90.961c-12.703-2.658-27.646-9.887-40.996-19.831
	c-12.834-9.561-20.142-18.532-21.5-22.822c-1.003-3.167-3.953-5.285-7.292-5.234c-3.322,0.064-6.206,2.304-7.088,5.507
	c-3.236,11.745-0.409,27.765,3.371,39.77c-34.71-10.297-59.896-33.764-64.793-39.781c-1.601-1.968-4.093-2.997-6.609-2.725
	c-2.522,0.268-4.738,1.792-5.89,4.052c-3.783,7.421-6.992,15.069-9.712,22.779c-1.088,3.084-2.098,6.177-3.035,9.269
	s-1.8,6.184-2.597,9.263c-7.564,29.255-9.026,57.446-8.978,75.375c0.01,3.775,0.087,7.095,0.188,9.874v0.001
	c0.08,2.211,0.184,4.41,0.312,6.585c-18.128-27.056-28.218-60.617-28.218-95.31c0-10.107,0.839-20.201,2.495-30
	c0.69-4.085-2.061-7.955-6.146-8.646c-4.084-0.686-7.955,2.062-8.645,6.146c-1.795,10.623-2.705,21.558-2.705,32.5
	c0,47.508,17.515,93.18,48.054,125.307c2.275,2.393,5.849,3.019,8.8,1.536c2.952-1.481,4.587-4.719,4.027-7.974
	c-0.226-1.316-0.438-2.675-0.642-4.054c10.84,11.848,23.986,21.503,38.66,28.207v16.388h-3.33c-3.617,0-7.173,0.259-10.67,0.71
	c-0.004,0-0.007,0-0.011,0.001c-0.017,0.002-0.033,0.005-0.05,0.007c-1.457,0.189-2.902,0.415-4.334,0.68
	c-0.102,0.019-0.205,0.036-0.307,0.055c-0.772,0.146-1.541,0.298-2.305,0.465c-0.765,0.165-1.525,0.342-2.283,0.528
	c-0.512,0.127-1.02,0.26-1.528,0.396c-0.964,0.257-1.924,0.527-2.876,0.818c-0.246,0.076-0.49,0.158-0.735,0.236
	c-1.115,0.353-2.223,0.726-3.321,1.126c-0.018,0.007-0.036,0.012-0.054,0.019c-1.244,0.455-2.474,0.944-3.695,1.46
	c-0.029,0.012-0.058,0.024-0.087,0.036c-4.462,1.889-8.773,4.176-12.906,6.866c-0.138,0.09-0.263,0.195-0.394,0.293
	c-22.454,14.84-37.305,40.299-37.305,69.173v65.69c0,4.143,3.358,7.5,7.5,7.5H162h188h34.29c4.142,0,7.5-3.357,7.5-7.5v-65.69
	C391.79,409.937,376.94,384.479,354.487,369.638z M178.27,23.1c0.539-4.617,4.451-8.1,9.101-8.1h137.26
	c4.65,0,8.562,3.482,9.101,8.097L334.068,26H177.932L178.27,23.1z M150.486,75c0.007,0,0.015,0.001,0.023,0.001
	c0.007,0,0.014-0.001,0.022-0.001H176.5c4.142,0,7.5-3.357,7.5-7.5s-3.358-7.5-7.5-7.5h-17.061l3.353-19h6.717h172.98h6.717
	l3.353,19H206.496c-4.142,0-7.5,3.357-7.5,7.5s3.358,7.5,7.5,7.5h154.973c0.007,0,0.015,0.001,0.022,0.001
	c0.007,0,0.015-0.001,0.023-0.001h17.476l-2.662,6.765c-1.717,4.365-5.43,7.455-9.867,8.415c-0.004,0.001-0.008,0.001-0.012,0.002
	c-0.953,0.205-1.938,0.318-2.945,0.318H148.496c-0.956,0-1.89-0.104-2.798-0.29c-0.109-0.023-0.218-0.044-0.328-0.063
	c-4.363-1.001-8.002-4.073-9.698-8.383L133.01,75H150.486z M225.278,346.307c0.284,0.075,0.569,0.147,0.853,0.22
	c1.091,0.281,2.185,0.547,3.283,0.797c0.2,0.045,0.399,0.095,0.599,0.139c1.242,0.275,2.488,0.527,3.739,0.762
	c0.303,0.057,0.607,0.111,0.91,0.165c1.137,0.205,2.278,0.395,3.422,0.567c0.159,0.024,0.317,0.051,0.476,0.075
	c1.266,0.185,2.536,0.344,3.81,0.488c0.313,0.035,0.626,0.068,0.939,0.101c1.21,0.127,2.422,0.241,3.639,0.331
	c0.093,0.007,0.185,0.016,0.277,0.023c1.292,0.093,2.589,0.159,3.889,0.211c0.316,0.013,0.632,0.023,0.947,0.034
	c1.31,0.042,2.622,0.071,3.938,0.071c1.316,0,2.628-0.029,3.938-0.071c0.316-0.01,0.632-0.021,0.947-0.034
	c1.299-0.052,2.596-0.118,3.889-0.211c0.092-0.007,0.184-0.016,0.277-0.023c1.216-0.09,2.428-0.204,3.638-0.331
	c0.314-0.033,0.629-0.066,0.943-0.102c1.272-0.144,2.542-0.303,3.807-0.488c0.161-0.023,0.321-0.051,0.482-0.076
	c1.142-0.171,2.279-0.361,3.414-0.565c0.306-0.055,0.611-0.109,0.916-0.166c1.248-0.235,2.493-0.486,3.732-0.761
	c0.205-0.045,0.408-0.096,0.613-0.142c1.092-0.248,2.18-0.513,3.265-0.792c0.289-0.074,0.578-0.147,0.867-0.223
	c1.227-0.326,2.449-0.669,3.666-1.034c0.069-0.021,0.139-0.038,0.208-0.059v15.024l-1.742,1.969l-0.136,0.154
	c-0.155-0.005-0.309,0-0.464-0.003c-0.428-0.008-0.856-0.012-1.284-0.007c-0.228,0.003-0.455,0.008-0.682,0.014
	c-0.436,0.012-0.87,0.031-1.304,0.056c-0.213,0.012-0.426,0.024-0.639,0.04c-0.467,0.034-0.932,0.078-1.395,0.128
	c-0.174,0.018-0.349,0.034-0.523,0.054c-0.597,0.071-1.192,0.154-1.782,0.251c-0.037,0.006-0.074,0.01-0.11,0.016
	c-0.643,0.107-1.282,0.23-1.915,0.366c-0.113,0.024-0.225,0.054-0.338,0.079c-0.501,0.113-0.999,0.232-1.493,0.363
	c-0.19,0.05-0.378,0.106-0.567,0.159c-0.414,0.117-0.826,0.238-1.235,0.367c-0.21,0.066-0.418,0.136-0.626,0.206
	c-0.387,0.13-0.77,0.266-1.15,0.408c-0.121,0.045-0.245,0.083-0.365,0.129c-0.073-0.076-0.15-0.148-0.224-0.223
	c-0.095-0.097-0.191-0.191-0.287-0.286c-0.29-0.285-0.586-0.563-0.89-0.832c-0.072-0.064-0.142-0.13-0.215-0.193
	c-0.368-0.319-0.747-0.624-1.134-0.919c-0.096-0.073-0.194-0.142-0.29-0.213c-0.314-0.231-0.633-0.454-0.958-0.669
	c-0.108-0.072-0.215-0.144-0.324-0.214c-0.411-0.262-0.828-0.515-1.255-0.751c-0.059-0.033-0.12-0.062-0.179-0.094
	c-0.376-0.204-0.759-0.397-1.146-0.58c-0.125-0.059-0.251-0.117-0.377-0.174c-0.393-0.177-0.79-0.345-1.194-0.501
	c-0.061-0.024-0.121-0.05-0.182-0.073c-0.458-0.173-0.924-0.328-1.393-0.472c-0.125-0.038-0.252-0.073-0.378-0.11
	c-0.379-0.109-0.761-0.208-1.146-0.298c-0.117-0.027-0.232-0.057-0.349-0.082c-0.482-0.105-0.968-0.195-1.459-0.269
	c-0.1-0.015-0.2-0.025-0.3-0.039c-0.408-0.056-0.818-0.101-1.23-0.136c-0.138-0.011-0.276-0.023-0.415-0.032
	c-0.506-0.033-1.013-0.056-1.525-0.056c-0.511,0-1.019,0.023-1.525,0.056c-0.139,0.009-0.277,0.021-0.415,0.032
	c-0.411,0.035-0.821,0.079-1.227,0.135c-0.101,0.014-0.203,0.024-0.304,0.04c-0.489,0.074-0.973,0.164-1.454,0.268
	c-0.122,0.026-0.243,0.057-0.364,0.086c-0.377,0.088-0.75,0.185-1.12,0.292c-0.135,0.039-0.27,0.076-0.404,0.117
	c-0.461,0.142-0.918,0.294-1.368,0.463c-0.086,0.032-0.169,0.069-0.254,0.102c-0.371,0.145-0.738,0.299-1.1,0.462
	c-0.151,0.068-0.301,0.137-0.45,0.208c-0.334,0.159-0.663,0.326-0.989,0.5c-0.109,0.058-0.221,0.113-0.329,0.173
	c-0.398,0.221-0.787,0.456-1.172,0.7c-0.156,0.099-0.309,0.202-0.463,0.305c-0.255,0.17-0.506,0.346-0.754,0.526
	c-0.155,0.113-0.311,0.224-0.464,0.34c-0.346,0.265-0.686,0.538-1.018,0.823c-0.149,0.128-0.292,0.263-0.439,0.395
	c-0.21,0.19-0.418,0.382-0.621,0.58c-0.159,0.154-0.316,0.31-0.471,0.469c-0.048,0.049-0.099,0.096-0.146,0.145
	c-0.131-0.05-0.266-0.092-0.398-0.141c-0.358-0.133-0.719-0.261-1.083-0.384c-0.229-0.077-0.457-0.153-0.688-0.226
	c-0.382-0.121-0.767-0.234-1.155-0.343c-0.214-0.06-0.426-0.123-0.641-0.18c-0.456-0.121-0.917-0.231-1.38-0.336
	c-0.149-0.034-0.296-0.073-0.446-0.105c-0.624-0.134-1.252-0.255-1.885-0.361c-0.071-0.012-0.142-0.02-0.213-0.031
	c-0.558-0.09-1.119-0.17-1.683-0.237c-0.183-0.022-0.367-0.038-0.551-0.057c-0.456-0.049-0.914-0.092-1.373-0.126
	c-0.213-0.016-0.426-0.027-0.64-0.04c-0.437-0.025-0.874-0.045-1.313-0.056c-0.222-0.006-0.443-0.011-0.665-0.014
	c-0.437-0.005-0.874-0.001-1.312,0.007c-0.149,0.003-0.298-0.002-0.447,0.002l-0.136-0.154l-1.742-1.969v-15.024
	c0.067,0.02,0.135,0.037,0.201,0.057C222.822,345.636,224.048,345.98,225.278,346.307z M250.038,404.032
	c-1.507-1.551-2.338-3.604-2.338-5.782v-17.17c0-1.185,0.245-2.324,0.744-3.424c1.33-2.969,4.296-4.887,7.556-4.887
	c3.26,0,6.226,1.918,7.572,4.923c0.483,1.063,0.728,2.203,0.728,3.388v17.17c0,0.272-0.013,0.543-0.039,0.81
	c-0.18,1.873-0.981,3.616-2.306,4.979c-1.576,1.625-3.691,2.521-5.955,2.521C253.735,406.56,251.621,405.664,250.038,404.032z
	 M201.072,390.097c1.659-2.583,3.537-4.628,5.488-6.272c0.123-0.093,0.238-0.192,0.353-0.292c5.127-4.169,10.701-5.541,14.163-5.973
	c0.683-0.087,1.365-0.141,2.044-0.178c0.227-0.012,0.452-0.015,0.679-0.021c0.432-0.013,0.861-0.016,1.289-0.008
	c0.363,0.006,0.723,0.022,1.083,0.042c0.363,0.02,0.723,0.046,1.082,0.081c0.353,0.034,0.704,0.076,1.053,0.124
	c0.359,0.049,0.714,0.105,1.067,0.169c0.337,0.061,0.672,0.128,1.004,0.201c0.354,0.079,0.705,0.166,1.052,0.26
	c0.318,0.085,0.632,0.175,0.943,0.273c0.153,0.048,0.301,0.105,0.453,0.156c-0.027,0.264-0.044,0.53-0.062,0.795
	c-0.009,0.13-0.023,0.259-0.03,0.39c-0.021,0.411-0.032,0.823-0.032,1.237v17.17c0,0.687,0.039,1.368,0.098,2.046
	c0.011,0.125,0.02,0.25,0.032,0.374c0.067,0.649,0.16,1.293,0.28,1.93c0.023,0.123,0.05,0.244,0.075,0.366
	c0.135,0.657,0.288,1.309,0.478,1.949c0.001,0.005,0.003,0.009,0.005,0.014c0.189,0.635,0.413,1.257,0.655,1.871
	c0.047,0.119,0.092,0.239,0.141,0.358c0.206,0.5,0.424,0.994,0.665,1.478c-2.69,1.866-5.917,2.357-8.414,1.712
	c-16.26-4.196-25.175,4.438-30.338,12.234C194.29,409.28,195.86,398.213,201.072,390.097z M245.85,419.25
	c3.12,1.512,6.568,2.31,10.15,2.31c3.582,0,7.03-0.798,10.149-2.309c1.913,1.649,4.04,2.996,6.3,4.028l-16.461,26.238l-16.504-26.21
	C241.769,422.271,243.919,420.914,245.85,419.25z M285.289,410.348c-2.5,0.642-5.728,0.154-8.417-1.711
	c0.242-0.486,0.461-0.983,0.668-1.485c0.046-0.112,0.089-0.226,0.133-0.339c0.245-0.621,0.472-1.25,0.662-1.891
	c0-0.001,0.001-0.002,0.001-0.004c0.19-0.641,0.344-1.295,0.479-1.953c0.025-0.121,0.052-0.242,0.075-0.364
	c0.12-0.637,0.213-1.281,0.28-1.93c0.013-0.124,0.022-0.249,0.032-0.374c0.059-0.677,0.098-1.358,0.098-2.046v-17.17
	c0-0.414-0.011-0.825-0.032-1.235c-0.009-0.173-0.027-0.345-0.04-0.517c-0.017-0.224-0.029-0.448-0.052-0.67
	c0.191-0.065,0.378-0.137,0.572-0.196c0.168-0.052,0.336-0.105,0.506-0.153c0.577-0.164,1.162-0.311,1.759-0.434
	c0.129-0.026,0.261-0.045,0.391-0.07c0.497-0.094,1.001-0.173,1.509-0.239c0.198-0.025,0.395-0.051,0.594-0.072
	c0.617-0.065,1.238-0.117,1.867-0.139c0.101-0.004,0.204,0,0.305-0.003c0.56-0.014,1.123-0.009,1.688,0.011
	c0.193,0.007,0.385,0.015,0.578,0.026c0.653,0.037,1.308,0.088,1.964,0.171c0.011,0.001,0.022,0.002,0.033,0.003
	c4.847,0.604,13.888,3.037,19.986,12.534c5.211,8.116,6.782,19.184,4.696,32.486c-4.229-6.387-10.974-13.335-22.209-13.335
	C290.933,409.248,288.23,409.588,285.289,410.348z M165.336,282.891c0-0.008-0.001-0.015-0.001-0.023
	c-0.012-0.391-0.021-0.808-0.031-1.217c-0.007-0.274-0.015-0.537-0.021-0.819c-0.008-0.386-0.015-0.796-0.022-1.197
	c-0.006-0.333-0.013-0.657-0.018-1c-0.006-0.397-0.009-0.814-0.013-1.223c-0.004-0.367-0.008-0.727-0.011-1.104
	c-0.003-0.417-0.003-0.853-0.003-1.283c-0.001-0.395-0.003-0.784-0.002-1.189c0.001-0.442,0.004-0.9,0.007-1.354
	c0.003-0.411,0.004-0.819,0.009-1.24c0.005-0.458,0.013-0.932,0.02-1.401c0.007-0.443,0.012-0.884,0.021-1.337
	c0.009-0.468,0.021-0.95,0.032-1.428c0.011-0.47,0.022-0.937,0.035-1.417c0.014-0.488,0.031-0.987,0.047-1.484
	c0.016-0.488,0.032-0.975,0.051-1.472c0.019-0.509,0.042-1.028,0.064-1.546c0.021-0.504,0.043-1.009,0.067-1.521
	c0.025-0.525,0.053-1.058,0.081-1.591c0.027-0.522,0.055-1.045,0.086-1.575c0.031-0.544,0.066-1.095,0.101-1.647
	c0.034-0.536,0.068-1.073,0.105-1.616c0.038-0.558,0.079-1.122,0.121-1.687c0.041-0.554,0.083-1.11,0.127-1.672
	c0.045-0.567,0.093-1.14,0.141-1.714c0.049-0.575,0.099-1.152,0.151-1.734c0.052-0.573,0.106-1.151,0.162-1.731
	c0.057-0.594,0.116-1.19,0.177-1.79c0.06-0.586,0.122-1.174,0.186-1.766c0.065-0.604,0.133-1.21,0.203-1.819
	c0.069-0.598,0.14-1.2,0.213-1.804c0.074-0.614,0.151-1.232,0.23-1.852c0.078-0.609,0.157-1.221,0.24-1.835
	c0.084-0.624,0.171-1.251,0.259-1.88c0.087-0.618,0.176-1.237,0.268-1.859c0.094-0.636,0.192-1.275,0.291-1.915
	c0.097-0.624,0.195-1.249,0.296-1.877c0.105-0.648,0.215-1.299,0.325-1.951c0.106-0.625,0.213-1.251,0.324-1.879
	c0.117-0.661,0.239-1.324,0.362-1.988c0.117-0.631,0.233-1.262,0.356-1.895c0.129-0.667,0.263-1.336,0.398-2.005
	c0.127-0.633,0.254-1.266,0.387-1.901c0.142-0.677,0.29-1.357,0.438-2.037c0.138-0.634,0.275-1.268,0.42-1.905
	c0.155-0.686,0.319-1.374,0.481-2.062c0.149-0.631,0.296-1.261,0.45-1.894c0.17-0.697,0.35-1.396,0.528-2.094
	c0.16-0.628,0.317-1.256,0.483-1.885c0.186-0.704,0.381-1.408,0.574-2.113c0.171-0.624,0.339-1.248,0.516-1.873
	c0.203-0.716,0.417-1.432,0.629-2.149c0.181-0.613,0.358-1.226,0.545-1.84c0.223-0.73,0.457-1.459,0.689-2.189
	c0.191-0.6,0.376-1.201,0.572-1.801c0.245-0.748,0.503-1.494,0.758-2.241c0.197-0.58,0.389-1.16,0.592-1.739
	c0.276-0.787,0.568-1.572,0.855-2.358c0.196-0.536,0.385-1.072,0.586-1.607c0.333-0.884,0.682-1.765,1.029-2.646
	c0.171-0.433,0.333-0.868,0.507-1.3c0.529-1.312,1.073-2.62,1.635-3.923c14.021,12.743,43.003,33.812,79.603,40.167
	c2.92,0.505,5.87-0.756,7.519-3.223c1.648-2.467,1.688-5.674,0.1-8.181c-2.194-3.464-5.468-12.429-7.297-21.863
	c3.531,3.355,7.568,6.744,12.011,10.054c2.209,1.645,4.981,3.609,8.212,5.695c9.693,6.258,23.517,13.617,38.674,16.789
	c0.724,0.151,1.674,0.588,2.773,1.335c2.747,1.868,6.421,5.675,9.807,11.802c0.677,1.225,1.343,2.544,1.987,3.958
	c0.145,0.319,0.291,0.646,0.436,0.98c0.025,0.057,0.049,0.117,0.074,0.174c0.12,0.278,0.24,0.559,0.36,0.847
	c0.045,0.107,0.089,0.22,0.133,0.328c0.1,0.245,0.2,0.489,0.3,0.741c0.05,0.126,0.1,0.258,0.149,0.386
	c0.094,0.243,0.189,0.484,0.283,0.734c0.052,0.138,0.103,0.282,0.155,0.422c0.091,0.246,0.182,0.492,0.272,0.744
	c0.056,0.156,0.11,0.317,0.166,0.475c0.085,0.244,0.17,0.486,0.255,0.736c0.059,0.173,0.116,0.353,0.174,0.529
	c0.08,0.244,0.161,0.487,0.241,0.736c0.059,0.184,0.116,0.374,0.175,0.562c0.077,0.249,0.155,0.496,0.231,0.75
	c0.059,0.197,0.117,0.4,0.176,0.6c0.074,0.253,0.148,0.506,0.221,0.764c0.059,0.208,0.116,0.422,0.174,0.634
	c0.071,0.258,0.142,0.516,0.211,0.78c0.058,0.222,0.116,0.449,0.173,0.675c0.066,0.261,0.133,0.52,0.198,0.786
	c0.057,0.234,0.113,0.474,0.17,0.713c0.064,0.268,0.127,0.536,0.189,0.809c0.055,0.241,0.108,0.488,0.162,0.733
	c0.061,0.277,0.122,0.553,0.181,0.835c0.054,0.254,0.105,0.514,0.157,0.772c0.057,0.281,0.113,0.562,0.168,0.848
	c0.051,0.264,0.1,0.534,0.15,0.802c0.053,0.29,0.107,0.58,0.159,0.875c0.048,0.275,0.094,0.554,0.141,0.833
	c0.049,0.295,0.099,0.591,0.146,0.891c0.046,0.289,0.09,0.583,0.134,0.876c0.045,0.3,0.09,0.6,0.133,0.905
	c0.042,0.299,0.083,0.602,0.123,0.905c0.041,0.309,0.082,0.619,0.121,0.932c0.039,0.31,0.076,0.623,0.112,0.938
	c0.037,0.315,0.073,0.63,0.107,0.949c0.035,0.324,0.068,0.652,0.101,0.981c0.032,0.319,0.063,0.64,0.093,0.964
	c0.031,0.335,0.06,0.673,0.088,1.013c0.027,0.329,0.054,0.659,0.08,0.993c0.026,0.345,0.05,0.692,0.074,1.042
	c0.023,0.336,0.045,0.674,0.065,1.015c0.021,0.358,0.041,0.718,0.06,1.081c0.018,0.342,0.034,0.686,0.049,1.033
	c0.016,0.369,0.031,0.74,0.044,1.114c0.013,0.351,0.024,0.705,0.034,1.06c0.011,0.379,0.02,0.76,0.028,1.144
	c0.007,0.361,0.013,0.723,0.018,1.088c0.005,0.39,0.008,0.781,0.01,1.176c0.002,0.367,0.002,0.737,0.001,1.109
	c-0.001,0.402-0.003,0.807-0.008,1.215c-0.004,0.375-0.01,0.754-0.017,1.134c-0.007,0.414-0.016,0.829-0.027,1.249
	c-0.01,0.383-0.022,0.769-0.035,1.157c-0.014,0.425-0.029,0.852-0.046,1.282c-0.016,0.394-0.034,0.791-0.053,1.189
	c-0.021,0.435-0.042,0.872-0.067,1.312c-0.022,0.402-0.047,0.808-0.073,1.215c-0.028,0.445-0.056,0.892-0.088,1.343
	c-0.029,0.415-0.061,0.835-0.094,1.255c-0.035,0.452-0.07,0.904-0.109,1.362c-0.013,0.149-0.027,0.301-0.04,0.45
	c-11.624,17.922-28.803,32.145-48.55,40.156c-12.475,5.057-25.691,7.62-39.283,7.62c-3.398,0-6.772-0.16-10.117-0.48
	c-10.036-0.958-19.809-3.348-29.163-7.141C195.171,318.928,176.986,303.065,165.336,282.891z M135.21,438.81
	c0-18.395,7.366-35.094,19.29-47.33V497h-19.29L135.21,438.81L135.21,438.81z M376.79,497H357.5v-38c0-4.143-3.358-7.5-7.5-7.5
	c-4.142,0-7.5,3.357-7.5,7.5v38h-173V379.864c0.316-0.181,0.627-0.369,0.946-0.544c0.198-0.109,0.396-0.217,0.594-0.324
	c0.758-0.408,1.525-0.801,2.3-1.18c0.163-0.08,0.324-0.163,0.487-0.241c1.864-0.894,3.776-1.704,5.729-2.428
	c0.31-0.114,0.623-0.219,0.935-0.329c0.605-0.214,1.212-0.421,1.824-0.619c0.492-0.158,0.987-0.309,1.483-0.455
	c0.397-0.118,0.796-0.23,1.196-0.34c0.636-0.175,1.273-0.348,1.916-0.504c0.122-0.03,0.246-0.056,0.368-0.085
	c0.787-0.187,1.577-0.364,2.374-0.523l2.794,4.438c-1.452,1.638-2.794,3.39-3.996,5.261c-6.64,10.342-12.522,29.127-2.834,59.892
	c0.827,2.626,3.027,4.589,5.731,5.111c0.735,0.142,1.434,0.208,2.101,0.208c6.492,0,9.868-6.329,12.396-11.068
	c4.947-9.276,8.256-13.442,16.866-11.318l26.944,42.791c1.373,2.181,3.77,3.504,6.347,3.504c0.002,0,0.004,0,0.006,0
	c2.579-0.002,4.976-1.329,6.347-3.514l26.824-42.756c8.697-2.188,12.009,1.975,16.979,11.293c2.528,4.74,5.903,11.068,12.396,11.068
	c0.667,0,1.366-0.066,2.101-0.208c2.704-0.522,4.904-2.485,5.731-5.111c9.689-30.765,3.807-49.55-2.833-59.892
	c-1.234-1.922-2.614-3.721-4.112-5.396l2.725-4.344c0.677,0.133,1.347,0.286,2.017,0.439c0.321,0.074,0.644,0.145,0.964,0.223
	c0.537,0.131,1.069,0.273,1.602,0.417c0.541,0.147,1.079,0.299,1.614,0.46c0.382,0.113,0.763,0.228,1.142,0.348
	c0.827,0.264,1.647,0.54,2.46,0.834c0.113,0.041,0.227,0.077,0.339,0.119c2.035,0.749,4.025,1.593,5.964,2.526
	c0.061,0.03,0.121,0.061,0.182,0.09c0.882,0.428,1.753,0.876,2.614,1.341c0.129,0.07,0.258,0.14,0.387,0.211
	c0.355,0.195,0.699,0.404,1.05,0.605V429c0,4.143,3.358,7.5,7.5,7.5c4.142,0,7.5-3.357,7.5-7.5v-37.521
	c11.924,12.236,19.29,28.935,19.29,47.33V497L376.79,497z"/>
<path d="M310.324,232.962c4.142,0,7.5-3.357,7.5-7.5v-2c0-4.143-3.358-7.5-7.5-7.5c-4.142,0-7.5,3.357-7.5,7.5v2
	C302.824,229.605,306.182,232.962,310.324,232.962z"/>
<path d="M201.676,215.962c-4.142,0-7.5,3.357-7.5,7.5v2c0,4.143,3.358,7.5,7.5,7.5s7.5-3.357,7.5-7.5v-2
	C209.176,219.319,205.818,215.962,201.676,215.962z"/>
<path d="M256,288.484c13.494,0,26.142-6.632,33.832-17.739c2.358-3.405,1.509-8.078-1.896-10.435
	c-3.406-2.359-8.078-1.508-10.436,1.896c-4.89,7.063-12.927,11.278-21.5,11.278c-8.573,0-16.611-4.216-21.501-11.278
	c-2.357-3.405-7.029-4.255-10.436-1.896c-3.405,2.357-4.254,7.03-1.896,10.435C229.858,281.853,242.506,288.484,256,288.484z"/>
<path d="M240.68,474.38c-0.19-0.45-0.42-0.89-0.69-1.29c-0.28-0.42-0.59-0.8-0.94-1.14c-0.34-0.351-0.73-0.66-1.14-0.94
	c-0.4-0.27-0.84-0.5-1.29-0.69c-0.45-0.18-0.93-0.329-1.41-0.42c-0.96-0.199-1.96-0.199-2.93,0c-0.47,0.091-0.95,0.24-1.4,0.42
	c-0.45,0.19-0.89,0.421-1.29,0.69c-0.41,0.28-0.8,0.59-1.14,0.94c-0.35,0.34-0.66,0.72-0.94,1.14c-0.27,0.4-0.5,0.84-0.69,1.29
	c-0.18,0.45-0.33,0.93-0.42,1.4c-0.1,0.489-0.15,0.979-0.15,1.47s0.05,0.979,0.15,1.46c0.09,0.48,0.24,0.96,0.42,1.41
	c0.19,0.449,0.42,0.89,0.69,1.29c0.28,0.409,0.59,0.8,0.94,1.14c0.34,0.35,0.73,0.66,1.14,0.94c0.4,0.27,0.84,0.5,1.29,0.689
	c0.45,0.18,0.93,0.33,1.4,0.42c0.49,0.101,0.98,0.15,1.47,0.15s0.98-0.05,1.46-0.15c0.48-0.09,0.96-0.24,1.41-0.42
	c0.45-0.189,0.89-0.42,1.29-0.689c0.41-0.28,0.8-0.591,1.14-0.94c0.35-0.34,0.66-0.73,0.94-1.14c0.27-0.4,0.5-0.841,0.69-1.29
	c0.18-0.45,0.33-0.931,0.42-1.41c0.1-0.48,0.15-0.97,0.15-1.46s-0.05-0.98-0.15-1.47C241.01,475.31,240.86,474.83,240.68,474.38z"/>
<g>
</g>
<g>
</g>
<g>
</g>
<g>
</g>
<g>
</g>
<g>
</g>
<g>
</g>
<g>
</g>
<g>
</g>
<g>
</g>
<g>
</g>
<g>
</g>
<g>
</g>
<g>
</g>
<g>
</g>
</svg>
