<?xml version="1.0" encoding="iso-8859-1"?>
<!-- Generator: Adobe Illustrator 19.0.0, SVG Export Plug-In . SVG Version: 6.00 Build 0)  -->
<svg version="1.1" id="Capa_1" xmlns="http://www.w3.org/2000/svg" xmlns:xlink="http://www.w3.org/1999/xlink" x="0px" y="0px"
	 viewBox="0 0 511.997 511.997" style="enable-background:new 0 0 511.997 511.997;" xml:space="preserve">
<g>
	<path style="fill:#FA9E3E;" d="M125.836,223.99h49.369v56.61h-49.369c-15.632,0-28.305-12.673-28.305-28.305
		S110.204,223.99,125.836,223.99z"/>
	<path style="fill:#FA9E3E;" d="M386.158,223.99h-49.369v56.61h49.369c15.632,0,28.305-12.673,28.305-28.305
		S401.79,223.99,386.158,223.99z"/>
</g>
<path style="fill:#F0EEEE;" d="M203.07,363.444h105.855c41.621,0,75.362,33.741,75.362,75.362V504.5H127.708v-65.694
	C127.708,397.184,161.449,363.444,203.07,363.444z"/>
<g>
	<path style="fill:#49B6F2;" d="M268.997,449.167l21.308,4.486c6.549,1.379,12.119,5.654,15.145,11.623l19.881,39.224h-39.038
		l-25.296-44.333L268.997,449.167z"/>
	<path style="fill:#49B6F2;" d="M241.983,449.167l-21.308,4.486c-6.549,1.379-12.119,5.654-15.145,11.623L185.65,504.5h39.038
		l25.295-44.333L241.983,449.167z"/>
</g>
<circle style="fill:#2E93CC;" cx="255.997" cy="443.67" r="22"/>
<path style="fill:#D9D4D4;" d="M308.924,363.444h-22.632c41.621,0,75.362,33.741,75.362,75.362V504.5h22.632v-65.695
	C384.286,397.184,350.545,363.444,308.924,363.444z"/>
<path style="fill:#E5E3E3;" d="M308.927,358.44h-45.029l-7.901,75.06l125.245-29.714C368.204,376.97,340.69,358.44,308.927,358.44z"
	/>
<path style="fill:#49B6F2;" d="M258.367,418.433c-3.396,0-6.474-2.322-7.292-5.77c-0.956-4.03,1.536-8.072,5.566-9.029
	l110.021-26.103c4.039-0.954,8.073,1.537,9.029,5.566c0.956,4.03-1.536,8.072-5.566,9.029l-110.021,26.102
	C259.522,418.366,258.94,418.433,258.367,418.433z"/>
<path style="fill:#E5E3E3;" d="M203.067,358.44h45.029l7.901,75.06l-125.245-29.714C143.789,376.97,171.304,358.44,203.067,358.44z"
	/>
<path style="fill:#49B6F2;" d="M253.627,418.433c-0.573,0-1.155-0.066-1.737-0.204l-110.02-26.102
	c-4.03-0.957-6.523-4.999-5.566-9.029s5-6.519,9.029-5.566l110.02,26.103c4.03,0.957,6.522,4.999,5.566,9.029
	C260.1,416.11,257.023,418.433,253.627,418.433z"/>
<polygon style="fill:#FA9E3E;" points="298.097,267.73 298.097,363.08 255.997,433.5 213.897,363.08 213.897,267.73 "/>
<path style="fill:#3E3D49;" d="M116.997,148.59v57.265c0,34.173,27.702,61.875,61.875,61.875h154.25
	c34.173,0,61.875-27.702,61.875-61.875V148.59H116.997z"/>
<path style="fill:#FFB56B;" d="M255.997,342.79L255.997,342.79c-61.919,0-112.115-50.195-112.115-112.115V117.281h224.229v113.394
	C368.112,292.595,317.916,342.79,255.997,342.79z"/>
<path style="fill:#EF9245;" d="M344.778,117.281v125.062c0,53.578-41.949,97.354-94.795,100.286
	c1.992,0.105,3.996,0.161,6.014,0.161l0,0c61.919,0,112.115-50.195,112.115-112.115V117.281H344.778z"/>
<path style="fill:#E5E3E3;" d="M193.306,7.5h125.382c25.59,0,47.135,19.142,50.148,44.554l4.719,39.808H138.44l4.719-39.808
	C146.171,26.642,167.716,7.5,193.306,7.5z"/>
<path style="fill:#CECCCC;" d="M368.836,52.054C365.823,26.642,344.278,7.5,318.688,7.5h-24c25.59,0,47.135,19.142,50.147,44.554
	l4.719,39.808h24L368.836,52.054z"/>
<path style="fill:#F0EEEE;" d="M415.664,80.969c-106.444-23.07-212.889-23.07-319.333,0l10,84.852
	c99.333-17.638,199.111-17.638,299.333,0L415.664,80.969z"/>
<path style="fill:#D9D4D4;" d="M392.253,76.282l-10.104,85.736c7.836,1.164,15.674,2.423,23.515,3.803l10-84.852
	C407.86,79.278,400.057,77.726,392.253,76.282z"/>
<path style="fill:#49B6F2;" d="M412.58,114.702c-0.488,0-0.984-0.048-1.481-0.147c-102.918-20.625-207.285-20.625-310.203,0
	c-4.06,0.815-8.014-1.818-8.827-5.88c-0.814-4.062,1.818-8.014,5.88-8.827c104.873-21.019,211.225-21.018,316.098,0
	c4.062,0.813,6.694,4.766,5.88,8.827C419.212,112.239,416.081,114.702,412.58,114.702z"/>
<path d="M402.497,172.889c0.628,0.109,1.255,0.21,1.883,0.32c2.027,0.352,4.116-0.144,5.77-1.375
	c1.652-1.232,2.725-3.089,2.966-5.136l10-84.85c0.452-3.837-2.084-7.39-5.859-8.208c-12.991-2.816-26.087-5.297-39.188-7.445
	l-1.783-15.026C372.83,21.997,348.068,0,318.687,0h-125.38c-12.014,0-23.545,3.648-33.347,10.547
	c-3.387,2.384-4.2,7.063-1.815,10.45c2.383,3.386,7.061,4.2,10.45,1.815C175.855,17.701,184.4,15,193.307,15h125.38
	c21.782,0,40.14,16.308,42.702,37.934l1.293,10.895c-6.79-0.975-13.572-1.864-20.33-2.649c-4.103-0.473-7.838,2.471-8.315,6.585
	c-0.478,4.114,2.471,7.838,6.585,8.315c22.178,2.575,44.613,6.205,66.796,10.807l-8.274,70.206c-0.98-0.163-1.961-0.326-2.941-0.485
	c-3.165-0.515-6.323-1.007-9.474-1.488c-5.943-0.907-11.849-1.757-17.638-2.525c-2.353-0.311-4.706-0.612-7.06-0.904
	c-70.667-8.75-141.997-8.758-212.249-0.019c-2.298,0.286-4.594,0.58-6.889,0.885c-3.121,0.418-6.223,0.855-9.312,1.3
	c-6.037,0.87-11.998,1.785-17.789,2.741c-0.96,0.156-1.938,0.318-2.941,0.486l-8.273-70.197
	c68.568-14.221,137.995-18.81,206.467-13.639c4.137,0.317,7.731-2.784,8.043-6.914c0.313-4.13-2.783-7.731-6.914-8.043
	c-53.999-4.079-108.571-2.209-162.862,5.546l1.293-10.893c0.421-3.499,1.256-6.924,2.482-10.181c1.46-3.876-0.498-8.202-4.375-9.662
	c-3.877-1.461-8.202,0.498-9.662,4.375c-1.65,4.382-2.773,8.984-3.339,13.689l-1.784,15.032c-13.087,2.14-26.153,4.618-39.186,7.442
	c-3.776,0.818-6.313,4.371-5.86,8.208l10,84.85c0.241,2.05,1.317,3.91,2.975,5.142c1.303,0.968,2.873,1.48,4.474,1.48
	c0.435,0,0.872-0.038,1.307-0.115c0.638-0.113,1.248-0.219,1.863-0.327v32.982c0,4.688,0.478,9.338,1.407,13.896
	c-12.446,5.74-20.877,18.402-20.877,32.533c0,19.745,16.064,35.81,35.81,35.81h25.226c12.433,22.701,31.823,40.729,55.335,51.439
	v11.401h-3.33c-33.39,0-64.425,19.457-79.065,49.57c-0.995,2.047-1.007,4.436-0.032,6.492c0.409,0.863,0.981,1.62,1.661,2.257
	c-3.597,9.395-5.424,19.299-5.424,29.55v65.69c0,4.143,3.357,7.5,7.5,7.5h57.94h39.04h61.606h39.03h58.96c4.143,0,7.5-3.357,7.5-7.5
	v-65.69c0-10.253-1.827-20.156-5.424-29.55c0.681-0.637,1.253-1.395,1.662-2.259c0.975-2.059,0.962-4.447-0.035-6.495
	c-3.67-7.535-8.394-14.509-14.04-20.728c-2.785-3.067-7.528-3.294-10.595-0.511c-3.066,2.785-3.295,7.528-0.511,10.595
	c2.546,2.804,4.866,5.792,6.942,8.939L271.548,422.1l32.986-55.174c0.19-0.317,0.35-0.649,0.49-0.988h3.902
	c11.29,0,22.115,2.523,32.174,7.501c1.069,0.529,2.203,0.78,3.32,0.78c2.762,0,5.42-1.532,6.728-4.176
	c1.838-3.712,0.317-8.211-3.396-10.048c-12.145-6.011-25.208-9.058-38.826-9.058h-3.329v-11.402
	c23.516-10.714,42.906-28.743,55.334-51.439h25.225c19.745,0,35.81-16.064,35.81-35.81c0-14.131-8.431-26.793-20.876-32.533
	c0.929-4.559,1.407-9.208,1.407-13.896L402.497,172.889L402.497,172.889z M387.497,205.86c0,5.618-0.857,11.166-2.548,16.49
	c-0.258,0.812-0.535,1.616-0.829,2.411c-0.094,0.252-0.199,0.498-0.296,0.749c-0.209,0.539-0.416,1.079-0.641,1.611
	c-0.128,0.301-0.269,0.595-0.402,0.894c-0.211,0.472-0.418,0.946-0.641,1.412c-0.153,0.319-0.32,0.63-0.479,0.945
	c-0.22,0.435-0.436,0.873-0.667,1.301c-0.176,0.326-0.364,0.645-0.547,0.967c-0.231,0.408-0.459,0.818-0.701,1.22
	c-0.197,0.327-0.405,0.647-0.608,0.97c-0.243,0.386-0.483,0.773-0.736,1.153c-0.217,0.326-0.445,0.645-0.669,0.966
	c-0.255,0.365-0.508,0.732-0.772,1.091c-0.236,0.32-0.481,0.634-0.724,0.949c-0.268,0.348-0.534,0.697-0.811,1.039
	c-0.065,0.08-0.134,0.158-0.199,0.238c0.043-0.526,0.082-1.054,0.112-1.586c0.014-0.203,0.026-0.407,0.038-0.61
	c0.005-0.092,0.011-0.171,0.016-0.272c0.027-0.376,0.047-0.748,0.065-1.122l0.026-0.486c0.002-0.039,0.004-0.077,0.005-0.116
	c0.016-0.377,0.023-0.73,0.035-1.097c0.01-0.282,0.019-0.564,0.027-0.846c0.033-1.173,0.055-2.324,0.055-3.449v-62.041
	c0.996,0.142,1.993,0.286,2.992,0.432c0.766,0.112,1.53,0.221,2.298,0.336c1.569,0.233,3.144,0.474,4.72,0.716
	c0.545,0.084,1.089,0.164,1.635,0.249c0.081,0.013,0.163,0.026,0.245,0.039L387.497,205.86L387.497,205.86z M136.579,240.039
	c-0.289-0.356-0.567-0.72-0.846-1.084c-0.232-0.302-0.467-0.602-0.693-0.909c-0.273-0.371-0.534-0.75-0.798-1.128
	c-0.215-0.309-0.435-0.616-0.644-0.93c-0.26-0.39-0.508-0.789-0.758-1.186c-0.197-0.312-0.398-0.622-0.588-0.938
	c-0.248-0.412-0.482-0.832-0.719-1.251c-0.176-0.312-0.359-0.621-0.529-0.937c-0.236-0.439-0.458-0.886-0.683-1.332
	c-0.154-0.306-0.315-0.607-0.464-0.916c-0.231-0.48-0.445-0.969-0.662-1.457c-0.126-0.283-0.26-0.562-0.381-0.847
	c-0.234-0.551-0.45-1.112-0.666-1.672c-0.089-0.231-0.187-0.457-0.273-0.689c-0.295-0.797-0.572-1.602-0.83-2.415
	c-1.69-5.321-2.548-10.869-2.548-16.488v-35.472c0.031-0.005,0.06-0.01,0.091-0.015c0.551-0.087,1.111-0.17,1.664-0.256
	c1.549-0.24,3.101-0.48,4.666-0.714c0.749-0.112,1.504-0.221,2.256-0.331c1.068-0.157,2.139-0.313,3.213-0.467v62.074
	c0,1.125,0.022,2.276,0.055,3.449c0.008,0.282,0.017,0.564,0.027,0.845c0.012,0.367,0.019,0.721,0.035,1.097
	c0.001,0.039,0.003,0.077,0.005,0.116l0.026,0.486c0.018,0.369,0.038,0.737,0.064,1.109c0.005,0.1,0.013,0.204,0.018,0.305
	c0.012,0.19,0.023,0.38,0.035,0.57c0.03,0.536,0.07,1.067,0.114,1.606C136.705,240.189,136.64,240.115,136.579,240.039z
	 M125.837,273.1c-11.475,0-20.81-9.335-20.81-20.81c0-7.586,4.179-14.444,10.514-18.072c0.152,0.34,0.317,0.673,0.474,1.011
	c0.131,0.28,0.259,0.561,0.393,0.838c0.372,0.77,0.757,1.533,1.157,2.287c0.05,0.095,0.097,0.192,0.148,0.287
	c0.452,0.844,0.925,1.675,1.411,2.498c0.145,0.246,0.297,0.487,0.445,0.731c0.356,0.585,0.718,1.166,1.091,1.74
	c0.179,0.275,0.359,0.549,0.541,0.822c0.382,0.571,0.774,1.135,1.173,1.694c0.163,0.229,0.323,0.46,0.489,0.687
	c0.563,0.769,1.138,1.528,1.732,2.273c0.083,0.105,0.171,0.205,0.255,0.309c0.518,0.641,1.046,1.273,1.587,1.896
	c0.206,0.237,0.417,0.47,0.626,0.705c0.441,0.495,0.889,0.984,1.345,1.466c0.225,0.238,0.45,0.475,0.678,0.71
	c0.509,0.524,1.028,1.038,1.555,1.547c0.168,0.162,0.331,0.328,0.501,0.488c0.693,0.656,1.401,1.298,2.122,1.927
	c0.179,0.156,0.364,0.306,0.545,0.461c0.556,0.474,1.118,0.942,1.69,1.399c0.256,0.205,0.515,0.407,0.775,0.608
	c0.531,0.413,1.068,0.818,1.612,1.216c0.253,0.185,0.504,0.372,0.76,0.554c0.7,0.498,1.41,0.985,2.13,1.459
	c0.092,0.061,0.182,0.125,0.274,0.185c0.017,0.011,0.034,0.023,0.051,0.035l0,0c0.396,1.364,0.825,2.719,1.27,4.067
	c0.1,0.305,0.201,0.609,0.304,0.913c0.447,1.321,0.912,2.635,1.404,3.938c0.016,0.043,0.03,0.087,0.047,0.131H125.837z
	 M251.405,472.808c1.51,0.237,3.042,0.362,4.592,0.362c1.225,0,2.438-0.101,3.643-0.25L273.381,497h-35.78L251.405,472.808z
	 M270.497,443.67c0,1.609-0.264,3.191-0.788,4.715c-1.234,3.612-3.913,6.623-7.322,8.305c-0.486,0.24-0.988,0.453-1.502,0.636
	c-0.002,0.001-0.004,0.002-0.007,0.003c-3.308,1.184-7.038,1.115-10.316-0.214c-3.946-1.593-6.982-4.826-8.334-8.887
	c-0.485-1.45-0.731-2.983-0.731-4.559c0-1.947,0.407-3.858,1.153-5.627l11.615,2.755c0.096,0.023,0.193,0.032,0.289,0.051
	c0.106,0.021,0.21,0.042,0.317,0.058c0.067,0.01,0.133,0.024,0.201,0.033c0.278,0.034,0.556,0.052,0.833,0.055
	c0.029,0,0.056,0.007,0.085,0.007c0.292,0,0.587-0.018,0.883-0.054c0.013-0.002,0.026-0.005,0.039-0.007
	c0.005-0.001,0.009-0.002,0.014-0.002c0.102-0.013,0.201-0.036,0.302-0.053c0.167-0.028,0.334-0.049,0.501-0.088l11.615-2.755
	C270.09,439.812,270.497,441.723,270.497,443.67z M203.067,365.94h3.896c0.006,0.014,0.015,0.027,0.021,0.042
	c0.136,0.325,0.293,0.642,0.475,0.947l32.985,55.174l-98.234-23.301C155.594,378.582,178.568,365.94,203.067,365.94z
	 M135.207,438.81c0-8.734,1.61-17.157,4.79-25.117l87.951,20.862c-0.951,2.924-1.451,5.999-1.451,9.115
	c0,0.363,0.03,0.721,0.043,1.082l-7.409,1.56c-8.816,1.857-16.212,7.534-20.293,15.578L181.041,497h-45.834V438.81z M197.857,497
	l14.358-28.326c2.013-3.968,5.66-6.768,10.006-7.685l8.675-1.826c1.786,2.897,4.055,5.455,6.707,7.569L220.332,497H197.857z
	 M290.652,497l-16.97-29.736c0.071-0.053,0.135-0.115,0.205-0.169c0.642-0.492,1.27-1.003,1.869-1.545
	c0.004-0.004,0.009-0.007,0.013-0.011c0.604-0.547,1.178-1.126,1.736-1.721c0.101-0.108,0.203-0.214,0.302-0.323
	c0.535-0.588,1.048-1.195,1.534-1.823c0.076-0.097,0.146-0.197,0.221-0.296c0.47-0.623,0.919-1.262,1.339-1.92
	c0.023-0.036,0.05-0.068,0.073-0.104l7.788,1.639c4.346,0.916,7.988,3.714,9.996,7.682L313.117,497H290.652z M376.787,497h-46.854
	l-17.794-35.105c-4.069-8.045-11.464-13.725-20.288-15.583l-6.408-1.348c0.019-0.431,0.053-0.86,0.053-1.293
	c0-3.116-0.5-6.191-1.451-9.115l87.951-20.863c3.18,7.959,4.789,16.382,4.789,25.117V497H376.787z M255.997,418.884l-34.6-57.875
	v-2.568V345.21c0.07,0.021,0.141,0.038,0.211,0.059c1.214,0.365,2.434,0.708,3.659,1.033c0.288,0.077,0.577,0.149,0.866,0.224
	c1.09,0.281,2.182,0.547,3.279,0.796c0.198,0.045,0.395,0.094,0.592,0.138c1.244,0.276,2.493,0.528,3.745,0.764
	c0.299,0.056,0.598,0.109,0.896,0.163c1.147,0.207,2.296,0.399,3.45,0.572c0.15,0.023,0.3,0.049,0.45,0.071
	c1.27,0.185,2.544,0.345,3.822,0.49c0.309,0.035,0.618,0.067,0.927,0.1c1.217,0.128,2.438,0.242,3.662,0.333
	c0.086,0.006,0.172,0.015,0.259,0.022c1.294,0.093,2.592,0.16,3.893,0.212c0.316,0.013,0.632,0.024,0.949,0.034
	c1.31,0.042,2.622,0.071,3.939,0.071c1.316,0,2.629-0.029,3.939-0.071c0.316-0.01,0.632-0.021,0.948-0.034
	c1.301-0.052,2.6-0.118,3.895-0.212c0.085-0.006,0.17-0.015,0.255-0.021c1.226-0.091,2.448-0.206,3.667-0.334
	c0.307-0.032,0.615-0.065,0.922-0.099c1.28-0.145,2.557-0.305,3.828-0.491c0.145-0.021,0.289-0.046,0.434-0.068
	c1.16-0.174,2.316-0.367,3.468-0.575c0.295-0.053,0.59-0.105,0.885-0.161c1.256-0.236,2.509-0.489,3.756-0.766
	c0.192-0.043,0.383-0.09,0.575-0.134c1.104-0.251,2.204-0.519,3.3-0.801c0.285-0.073,0.57-0.145,0.854-0.221
	c1.226-0.326,2.448-0.669,3.664-1.035c0.07-0.021,0.14-0.038,0.21-0.059v13.212c0,0.007-0.001,0.013-0.001,0.019
	c0,0.007,0.001,0.013,0.001,0.019v2.549L255.997,418.884z M295.275,327.661c-12.465,5.063-25.68,7.629-39.278,7.629
	c-2.55,0-5.086-0.09-7.606-0.27c-8.401-0.6-16.625-2.198-24.586-4.776c-0.263-0.085-0.524-0.178-0.787-0.266
	c-0.531-0.177-1.062-0.351-1.591-0.536c-1.58-0.555-3.15-1.148-4.708-1.781c-0.002-0.001-0.004-0.001-0.006-0.002
	c-23.682-9.594-43.006-27.493-54.417-50.41c-0.395-0.792-0.781-1.59-1.156-2.393c-0.493-1.056-0.962-2.124-1.42-3.198
	c-0.935-2.194-1.803-4.42-2.586-6.678c-0.875-2.522-1.654-5.08-2.333-7.663c-0.009-0.034-0.016-0.069-0.025-0.104
	c-0.286-1.099-0.557-2.209-0.809-3.325c-0.026-0.115-0.047-0.231-0.073-0.346c-0.223-0.999-0.433-2.001-0.626-3.003
	c-0.397-2.072-0.734-4.159-1.005-6.257l-0.029-0.224c-0.135-1.058-0.254-2.119-0.356-3.183c-0.01-0.097-0.017-0.199-0.026-0.297
	c-0.092-0.976-0.17-1.954-0.234-2.933c-0.005-0.089-0.011-0.176-0.019-0.263c-0.003-0.037-0.004-0.073-0.006-0.11
	c-0.059-0.947-0.102-1.896-0.136-2.845c-0.008-0.242-0.016-0.485-0.023-0.723c-0.029-1.007-0.048-2.016-0.048-3.026v-64.091
	c0.046-0.006,0.092-0.012,0.138-0.018c4.008-0.499,8.019-0.964,12.034-1.405c0.408-0.045,0.816-0.092,1.224-0.137
	c3.874-0.42,7.752-0.809,11.632-1.174c0.538-0.051,1.075-0.103,1.612-0.153c3.803-0.351,7.61-0.674,11.418-0.974
	c0.604-0.047,1.207-0.096,1.811-0.142c3.782-0.289,7.565-0.552,11.351-0.79c0.608-0.038,1.216-0.075,1.824-0.112
	c3.802-0.231,7.605-0.437,11.41-0.617c0.569-0.027,1.139-0.051,1.708-0.077c3.863-0.174,7.729-0.325,11.595-0.447
	c0.465-0.015,0.93-0.026,1.395-0.04c3.981-0.118,7.964-0.213,11.948-0.275c0.282-0.004,0.565-0.006,0.847-0.01
	c8.351-0.122,16.706-0.12,25.063,0.006c0.26,0.004,0.519,0.006,0.779,0.01c4.016,0.064,8.032,0.161,12.049,0.282
	c0.43,0.013,0.861,0.024,1.291,0.037c3.909,0.124,7.817,0.278,11.725,0.455c0.529,0.024,1.059,0.047,1.588,0.072
	c3.852,0.182,7.704,0.393,11.556,0.628c0.568,0.035,1.136,0.07,1.704,0.105c3.838,0.242,7.676,0.51,11.513,0.804
	c0.56,0.043,1.119,0.087,1.679,0.131c3.865,0.304,7.728,0.632,11.591,0.989c0.499,0.046,0.997,0.095,1.496,0.142
	c3.934,0.37,7.867,0.765,11.798,1.19c0.378,0.041,0.756,0.085,1.134,0.126c4.061,0.445,8.121,0.915,12.178,1.419
	c0.043,0.005,0.087,0.011,0.13,0.017v64.048c0,1.01-0.02,2.018-0.048,3.026c-0.007,0.238-0.015,0.481-0.023,0.723
	c-0.033,0.935-0.076,1.869-0.134,2.801c-0.002,0.051-0.004,0.102-0.008,0.154c-0.008,0.087-0.013,0.175-0.019,0.263
	c-0.064,0.969-0.141,1.937-0.231,2.902c-0.011,0.116-0.019,0.226-0.031,0.344c-0.102,1.059-0.22,2.114-0.354,3.168l-0.029,0.218
	c-0.272,2.1-0.608,4.188-1.006,6.261c-0.441,2.28-0.954,4.559-1.533,6.776c-1.811,6.892-4.333,13.598-7.499,19.941
	C338.286,300.165,318.962,318.065,295.275,327.661z M386.157,273.1h-18.289c0.017-0.044,0.031-0.09,0.048-0.135
	c0.492-1.301,0.956-2.614,1.403-3.933c0.103-0.305,0.204-0.61,0.305-0.916c0.444-1.349,0.873-2.702,1.269-4.066
	c0.017-0.011,0.033-0.023,0.05-0.034c0.095-0.062,0.187-0.128,0.282-0.191c0.718-0.472,1.425-0.957,2.122-1.453
	c0.257-0.183,0.51-0.371,0.764-0.557c0.542-0.397,1.077-0.8,1.606-1.211c0.262-0.203,0.523-0.407,0.781-0.613
	c0.565-0.452,1.121-0.915,1.67-1.383c0.188-0.16,0.38-0.316,0.566-0.478c0.718-0.626,1.423-1.266,2.113-1.919
	c0.175-0.166,0.344-0.338,0.518-0.505c0.52-0.502,1.033-1.011,1.537-1.528c0.232-0.239,0.46-0.48,0.689-0.722
	c0.451-0.477,0.895-0.961,1.331-1.451c0.214-0.239,0.428-0.477,0.639-0.719c0.532-0.613,1.052-1.235,1.561-1.866
	c0.092-0.114,0.189-0.224,0.28-0.339c0.592-0.742,1.165-1.497,1.725-2.263c0.171-0.233,0.335-0.471,0.503-0.707
	c0.393-0.552,0.78-1.108,1.158-1.672c0.186-0.277,0.369-0.556,0.551-0.836c0.369-0.568,0.727-1.143,1.079-1.722
	c0.151-0.249,0.306-0.495,0.454-0.746c0.485-0.821,0.957-1.65,1.408-2.492c0.053-0.098,0.101-0.2,0.153-0.299
	c0.398-0.75,0.781-1.509,1.151-2.275c0.136-0.28,0.265-0.563,0.397-0.845c0.157-0.336,0.321-0.669,0.473-1.008
	c6.335,3.628,10.513,10.486,10.513,18.072C406.967,263.765,397.632,273.1,386.157,273.1z"/>
<path d="M287.933,260.31c-3.406-2.359-8.077-1.508-10.435,1.896c-4.891,7.063-12.928,11.278-21.501,11.278
	c-8.573,0-16.61-4.216-21.501-11.278c-2.357-3.406-7.029-4.256-10.435-1.896c-3.405,2.358-4.255,7.03-1.897,10.435
	c7.691,11.107,20.339,17.739,33.833,17.739s26.142-6.632,33.833-17.739C292.188,267.34,291.339,262.668,287.933,260.31z"/>
<path d="M310.32,215.962c-4.143,0-7.5,3.357-7.5,7.5v2c0,4.143,3.357,7.5,7.5,7.5s7.5-3.357,7.5-7.5v-2
	C317.82,219.319,314.463,215.962,310.32,215.962z"/>
<path d="M201.674,215.962c-4.143,0-7.5,3.357-7.5,7.5v2c0,4.143,3.357,7.5,7.5,7.5s7.5-3.357,7.5-7.5v-2
	C209.174,219.319,205.816,215.962,201.674,215.962z"/>
<g>
</g>
<g>
</g>
<g>
</g>
<g>
</g>
<g>
</g>
<g>
</g>
<g>
</g>
<g>
</g>
<g>
</g>
<g>
</g>
<g>
</g>
<g>
</g>
<g>
</g>
<g>
</g>
<g>
</g>
</svg>
