<?xml version="1.0" encoding="iso-8859-1"?>
<!-- Generator: Adobe Illustrator 19.0.0, SVG Export Plug-In . SVG Version: 6.00 Build 0)  -->
<svg version="1.1" id="Capa_1" xmlns="http://www.w3.org/2000/svg" xmlns:xlink="http://www.w3.org/1999/xlink" x="0px" y="0px"
	 viewBox="0 0 512 512" style="enable-background:new 0 0 512 512;" xml:space="preserve">
<polygon style="fill:#FA9E3E;" points="298.1,363.08 298.1,267.73 213.9,267.73 213.9,363.08 256,387.67 "/>
<path style="fill:#F0EEEE;" d="M203.073,363.444h105.855c41.621,0,75.362,33.741,75.362,75.362V504.5H127.711v-65.694
	C127.711,397.184,161.452,363.444,203.073,363.444z"/>
<path style="fill:#D9D4D4;" d="M308.927,363.444h-22.632c41.621,0,75.362,33.741,75.362,75.362V504.5h22.632v-65.695
	C384.289,397.184,350.548,363.444,308.927,363.444z"/>
<path style="fill:#5B5BB2;" d="M256,7.5c-97.478,0-176.5,55.549-176.5,103.46s79.022,86.75,176.5,86.75s176.5-38.839,176.5-86.75
	S353.478,7.5,256,7.5z"/>
<path style="fill:#3F3F93;" d="M256,7.5c-2.02,0-4.029,0.032-6.033,0.08c88.425,2.228,159.199,56.463,159.199,103.38
	c0,46.918-70.774,85.13-159.199,86.694c2.004,0.033,4.013,0.056,6.033,0.056c97.478,0,176.5-38.839,176.5-86.75S353.478,7.5,256,7.5
	z"/>
<path style="fill:#F0EEEE;" d="M115,135.888v112.407h282V135.888c0-16.114-13.063-29.178-29.178-29.178H144.178
	C128.063,106.71,115,119.773,115,135.888z"/>
<g>
	<path style="fill:#FA9E3E;" d="M125.839,223.99h49.369v56.61h-49.369c-15.632,0-28.305-12.673-28.305-28.305
		S110.207,223.99,125.839,223.99z"/>
	<path style="fill:#FA9E3E;" d="M386.161,223.99h-49.369v56.61h49.369c15.632,0,28.305-12.673,28.305-28.305
		S401.793,223.99,386.161,223.99z"/>
</g>
<path style="fill:#FFB56B;" d="M256,342.79L256,342.79c-61.919,0-112.115-50.195-112.115-112.115V117.281h224.229v113.394
	C368.115,292.595,317.919,342.79,256,342.79z"/>
<path style="fill:#EF9245;" d="M344.781,117.281v125.062c0,53.578-41.949,97.354-94.794,100.286
	c1.992,0.105,3.996,0.161,6.014,0.161l0,0c61.919,0,112.115-50.195,112.115-112.115V117.281H344.781z"/>
<path style="fill:#FFB700;" d="M115,135.888v6.822h282v-6.822c0-16.114-13.063-29.178-29.178-29.178H144.178
	C128.063,106.71,115,119.773,115,135.888z"/>
<path style="fill:#484655;" d="M142.24,142.71c-0.002,0.111-0.01,0.222-0.01,0.333c0,27.982,50.936,50.667,113.77,50.667
	c62.833,0,113.77-22.684,113.77-50.667c0-0.111-0.008-0.222-0.009-0.333H142.24z"/>
<path style="fill:#F0EEEE;" d="M209,274.895v8.078h94v-8.078c0-17.074-13.842-30.916-30.916-30.916h-32.168
	C222.841,243.979,209,257.82,209,274.895z"/>
<g>
	<circle style="fill:#FFB700;" cx="213.9" cy="410.99" r="13.448"/>
	<circle style="fill:#FFB700;" cx="213.9" cy="469.79" r="13.448"/>
	<rect x="293.33" y="417.95" style="fill:#FFB700;" width="62.33" height="22.08"/>
</g>
<circle style="fill:#FFD100;" cx="324.5" cy="469.79" r="14.09"/>
<circle style="fill:#F0EEEE;" cx="256" cy="75.835" r="48.875"/>
<path d="M404.5,221.557v-54.431c23.239-16.135,35.5-35.489,35.5-56.166c0-26.497-20.131-54.221-55.232-76.064
	C348.606,12.393,302.876,0,256,0c-49.3,0-98.476,14.176-134.92,38.893c-3.428,2.325-4.322,6.989-1.997,10.417
	c2.325,3.427,6.988,4.323,10.417,1.997C163.52,28.233,209.628,15,256,15c44.112,0,87.028,11.589,120.842,32.631
	C406.997,66.396,425,90.071,425,110.96c0,15.302-9.581,27.884-20.5,37.257v-5.507v-6.82c0-20.226-16.455-36.68-36.68-36.68h-60.54
	c3.262-7.127,5.095-15.039,5.095-23.375c0-31.085-25.29-56.375-56.375-56.375s-56.375,25.29-56.375,56.375
	c0,8.336,1.833,16.248,5.095,23.375h-60.54c-20.226,0-36.68,16.455-36.68,36.68v6.82v5.507C96.581,138.844,87,126.262,87,110.96
	c0-13.062,6.971-27.251,20.159-41.035c2.864-2.993,2.759-7.74-0.234-10.604c-2.993-2.864-7.74-2.76-10.604,0.234
	C80.41,76.184,72,93.96,72,110.96c0,20.677,12.26,40.03,35.5,56.166v54.431c-10.454,6.259-17.47,17.69-17.47,30.733
	c0,19.746,16.064,35.81,35.81,35.81h25.227c12.442,22.704,31.832,40.731,55.333,51.438v16.402h-3.33
	c-45.689,0-82.86,37.175-82.86,82.87v65.69c0,4.142,3.358,7.5,7.5,7.5h256.58c4.142,0,7.5-3.358,7.5-7.5v-65.69
	c0-45.695-37.171-82.87-82.86-82.87h-3.33v-16.402c23.495-10.705,42.879-28.724,55.332-51.438h25.228
	c19.746,0,35.81-16.064,35.81-35.81C421.97,239.247,414.954,227.815,404.5,221.557z M386.16,216.49h-10.55v-63.467
	c0.313-0.931,0.583-1.868,0.808-2.813H389.5v66.441C388.4,216.549,387.287,216.49,386.16,216.49z M256,34.46
	c22.814,0,41.375,18.561,41.375,41.375S278.814,117.21,256,117.21c-22.815,0-41.375-18.561-41.375-41.375S233.185,34.46,256,34.46z
	 M214.754,114.21c10.3,11.063,24.974,18,41.246,18c16.271,0,30.946-6.938,41.246-18h70.574c0.72,0,1.432,0.037,2.135,0.106
	c0.017,0.001,0.034,0.002,0.05,0.004c0.687,0.069,1.364,0.173,2.031,0.305c0.031,0.006,0.062,0.01,0.093,0.017
	c0.654,0.132,1.296,0.297,1.927,0.487c0.041,0.012,0.083,0.023,0.124,0.035c0.62,0.19,1.226,0.411,1.821,0.654
	c0.049,0.02,0.099,0.038,0.148,0.058c0.584,0.244,1.154,0.516,1.711,0.808c0.054,0.028,0.11,0.055,0.164,0.084
	c0.548,0.294,1.081,0.613,1.6,0.951c0.056,0.037,0.114,0.072,0.17,0.109c0.511,0.34,1.005,0.703,1.484,1.083
	c0.057,0.045,0.115,0.089,0.172,0.135c0.471,0.382,0.925,0.785,1.363,1.205c0.056,0.054,0.113,0.106,0.168,0.16
	c0.43,0.422,0.842,0.862,1.236,1.318c0.053,0.062,0.107,0.122,0.159,0.184c0.387,0.458,0.755,0.934,1.104,1.423
	c0.049,0.068,0.098,0.136,0.146,0.205c0.342,0.492,0.664,1,0.965,1.52c0.043,0.074,0.086,0.148,0.128,0.223
	c0.295,0.523,0.567,1.06,0.819,1.608c0.037,0.08,0.073,0.16,0.109,0.241c0.245,0.552,0.466,1.115,0.665,1.69
	c0.029,0.083,0.057,0.167,0.085,0.251c0.192,0.578,0.36,1.167,0.504,1.766c0.021,0.086,0.04,0.172,0.06,0.259
	c0.136,0.602,0.248,1.214,0.333,1.834c0.012,0.088,0.023,0.176,0.034,0.264c0.078,0.624,0.13,1.256,0.153,1.895
	c0.001,0.039,0.002,0.079,0.003,0.118H212c-4.142,0-7.5,3.358-7.5,7.5s3.358,7.5,7.5,7.5h148.587
	c-3.646,7.861-13.111,15.538-27.191,21.809C312.847,181.17,285.361,186.21,256,186.21s-56.847-5.04-77.396-14.191
	c-14.08-6.271-23.546-13.948-27.192-21.809H182c4.142,0,7.5-3.358,7.5-7.5s-3.358-7.5-7.5-7.5h-39.449
	c-0.06-0.003-0.118-0.011-0.179-0.012c-0.108-0.001-0.213,0.009-0.32,0.012h-19.535c0.001-0.039,0.002-0.079,0.003-0.118
	c0.023-0.639,0.075-1.271,0.153-1.895c0.011-0.088,0.022-0.176,0.034-0.264c0.085-0.62,0.197-1.231,0.333-1.834
	c0.02-0.087,0.039-0.173,0.06-0.259c0.143-0.598,0.312-1.187,0.504-1.766c0.028-0.084,0.056-0.168,0.085-0.251
	c0.199-0.574,0.42-1.138,0.665-1.69c0.036-0.08,0.072-0.16,0.109-0.241c0.251-0.548,0.524-1.085,0.819-1.608
	c0.042-0.075,0.085-0.149,0.128-0.223c0.301-0.521,0.623-1.028,0.965-1.52c0.048-0.069,0.097-0.137,0.146-0.205
	c0.349-0.49,0.716-0.965,1.104-1.423c0.052-0.062,0.106-0.123,0.16-0.184c0.394-0.456,0.806-0.896,1.236-1.318
	c0.055-0.054,0.112-0.107,0.168-0.16c0.438-0.42,0.891-0.823,1.363-1.205c0.057-0.046,0.115-0.09,0.172-0.135
	c0.479-0.381,0.973-0.743,1.484-1.083c0.056-0.037,0.114-0.072,0.17-0.109c0.519-0.338,1.051-0.657,1.6-0.951
	c0.054-0.029,0.11-0.056,0.164-0.084c0.557-0.292,1.127-0.564,1.711-0.808c0.049-0.02,0.099-0.038,0.148-0.058
	c0.595-0.243,1.201-0.464,1.821-0.654c0.041-0.013,0.083-0.023,0.124-0.035c0.631-0.19,1.273-0.354,1.927-0.487
	c0.031-0.006,0.062-0.011,0.093-0.017c0.667-0.132,1.344-0.236,2.031-0.305c0.016-0.002,0.033-0.002,0.05-0.004
	c0.703-0.069,1.415-0.106,2.135-0.106L214.754,114.21L214.754,114.21z M122.5,150.21h13.082c0.225,0.944,0.495,1.882,0.808,2.813
	v63.467h-10.55c-1.127,0-2.239,0.059-3.34,0.161V150.21z M125.84,273.1c-11.475,0-20.81-9.336-20.81-20.81
	c0-11.469,9.335-20.8,20.81-20.8h10.553c0.008,1.221,0.04,2.438,0.084,3.652c0.002,0.062,0.001,0.126,0.004,0.188
	c0.001,0.084,0.003,0.168,0.007,0.252c0.008,0.182,0.019,0.361,0.028,0.543c0.041,0.936,0.092,1.871,0.155,2.803l0.003,0.052
	c0.001,0.013,0.002,0.026,0.003,0.04c0.082,1.213,0.182,2.423,0.301,3.628c0.002,0.016,0.003,0.032,0.005,0.048l0.016,0.154
	c0.003,0.029,0.007,0.059,0.01,0.089c1.045,10.373,3.419,20.458,7.114,30.161H125.84z M151.572,236.901V236.9
	c0.001,0.012,0,0.024,0.001,0.036v-0.001C151.572,236.924,151.572,236.913,151.572,236.901z M376.79,438.81V497H135.21v-58.19
	c0-37.424,30.442-67.87,67.86-67.87h11.45h82.96h11.45C346.348,370.94,376.79,401.386,376.79,438.81z M221.4,355.94v-10.731
	c0.065,0.02,0.131,0.036,0.196,0.055c1.224,0.368,2.453,0.714,3.687,1.041c0.277,0.073,0.554,0.143,0.831,0.215
	c1.105,0.285,2.214,0.555,3.327,0.808c0.186,0.042,0.37,0.088,0.556,0.129c1.25,0.277,2.505,0.531,3.764,0.768
	c0.292,0.055,0.585,0.107,0.877,0.159c1.155,0.208,2.314,0.402,3.476,0.576c0.144,0.022,0.287,0.047,0.431,0.068
	c1.273,0.186,2.551,0.346,3.833,0.491c0.304,0.034,0.609,0.066,0.914,0.098c1.222,0.129,2.446,0.243,3.674,0.335
	c0.084,0.006,0.168,0.015,0.252,0.021c1.295,0.093,2.594,0.16,3.895,0.212c0.316,0.013,0.632,0.024,0.948,0.034
	c1.31,0.042,2.622,0.071,3.939,0.071c1.317,0,2.629-0.029,3.939-0.071c0.316-0.01,0.632-0.021,0.948-0.034
	c1.302-0.052,2.601-0.118,3.895-0.212c0.084-0.006,0.168-0.015,0.253-0.021c1.228-0.091,2.453-0.206,3.674-0.335
	c0.304-0.032,0.608-0.064,0.911-0.098c1.283-0.145,2.562-0.306,3.837-0.492c0.14-0.021,0.279-0.045,0.419-0.066
	c1.169-0.175,2.333-0.37,3.495-0.58c0.287-0.052,0.574-0.103,0.86-0.156c1.263-0.238,2.523-0.492,3.776-0.77
	c0.178-0.04,0.355-0.083,0.533-0.124c1.124-0.255,2.244-0.528,3.36-0.816c0.269-0.069,0.538-0.137,0.806-0.208
	c1.24-0.329,2.475-0.677,3.705-1.046c0.063-0.019,0.126-0.034,0.189-0.053v10.731h-69.2V355.94z M295.278,327.661
	c-12.463,5.062-25.678,7.629-39.278,7.629c-1.7,0-3.394-0.04-5.081-0.12c-0.921-0.044-1.839-0.102-2.755-0.169
	c-10.001-0.736-19.751-2.884-29.1-6.421c-0.784-0.296-1.564-0.602-2.342-0.918h-0.001c-0.002-0.001-0.004-0.001-0.005-0.002
	c-23.669-9.589-42.993-27.489-54.399-50.375c-0.008-0.016-0.016-0.032-0.023-0.048c-0.417-0.837-0.819-1.678-1.212-2.522
	c-0.08-0.169-0.158-0.341-0.236-0.513c-0.318-0.692-0.627-1.387-0.929-2.084c-0.131-0.303-0.264-0.618-0.4-0.942
	c-0.235-0.556-0.465-1.114-0.689-1.674c-0.028-0.07-0.058-0.14-0.086-0.21c-0.016-0.039-0.032-0.078-0.048-0.118
	c-0.077-0.182-0.145-0.368-0.215-0.554l-0.309-0.817c-0.1-0.267-0.199-0.532-0.273-0.718c-0.259-0.678-0.499-1.356-0.732-2.034
	c-0.012-0.036-0.025-0.072-0.038-0.107c-0.15-0.417-0.292-0.843-0.425-1.261c-0.014-0.042-0.027-0.083-0.042-0.125
	c-0.151-0.445-0.293-0.89-0.439-1.355c-0.463-1.467-0.875-2.874-1.249-4.263l-0.316-1.199c-0.071-0.26-0.133-0.52-0.204-0.813
	c-0.163-0.662-0.327-1.333-0.49-2.085c-0.278-1.22-0.538-2.47-0.807-3.898c-0.097-0.484-0.178-0.961-0.259-1.444l-0.018-0.131
	c-0.017-0.123-0.037-0.246-0.061-0.368c-0.043-0.227-0.08-0.454-0.117-0.681c-0.014-0.091-0.029-0.182-0.043-0.273
	c-0.012-0.098-0.025-0.195-0.041-0.292c-0.061-0.362-0.112-0.723-0.174-1.155c-0.05-0.329-0.092-0.659-0.134-0.988
	c-0.006-0.045-0.022-0.159-0.029-0.208c-0.009-0.071-0.018-0.143-0.028-0.214c-0.011-0.113-0.023-0.227-0.039-0.34
	c-0.048-0.34-0.088-0.688-0.14-1.13c-0.029-0.232-0.052-0.465-0.077-0.699c-0.057-0.539-0.112-1.079-0.162-1.619
	c-0.037-0.415-0.073-0.84-0.109-1.291c-0.039-0.501-0.074-1.003-0.107-1.505l-0.031-0.57c-0.005-0.101-0.014-0.208-0.025-0.316
	l-0.022-0.477c-0.002-0.053-0.005-0.105-0.009-0.158c-0.001-0.015-0.001-0.031-0.002-0.046c-0.024-0.49-0.045-0.98-0.062-1.471
	c-0.048-1.283-0.078-2.587-0.078-3.885v-0.002v-6.689v-50.848c5.682,4.625,12.752,8.856,21.111,12.579
	c22.428,9.988,52.081,15.489,83.499,15.489s61.071-5.501,83.498-15.489c8.36-3.723,15.43-7.954,21.111-12.579v50.848v6.689v0.002
	c0,1.3-0.03,2.604-0.078,3.887c-0.018,0.49-0.038,0.979-0.062,1.468c-0.001,0.015-0.001,0.031-0.002,0.046
	c-0.003,0.053-0.006,0.106-0.009,0.158l-0.021,0.463c-0.011,0.109-0.02,0.219-0.025,0.329l-0.03,0.554
	c-0.032,0.506-0.068,1.011-0.108,1.515c-0.037,0.476-0.079,0.95-0.122,1.424c-0.052,0.561-0.107,1.122-0.168,1.682
	c-0.022,0.195-0.043,0.389-0.07,0.603c-0.041,0.348-0.081,0.696-0.129,1.036c-0.016,0.108-0.026,0.216-0.037,0.324
	c-0.01,0.078-0.02,0.157-0.03,0.235l-0.009,0.063c-0.007,0.047-0.013,0.093-0.019,0.14c-0.042,0.329-0.084,0.658-0.145,1.058
	c-0.052,0.362-0.103,0.723-0.164,1.085c-0.014,0.083-0.027,0.185-0.039,0.282c-0.014,0.09-0.028,0.179-0.043,0.268
	c-0.038,0.232-0.075,0.464-0.119,0.696c-0.023,0.122-0.043,0.245-0.06,0.368l-0.018,0.13c-0.081,0.484-0.163,0.966-0.273,1.521
	c-0.255,1.352-0.514,2.603-0.811,3.904c-0.145,0.671-0.309,1.342-0.48,2.038c-0.063,0.259-0.125,0.519-0.212,0.837l-0.29,1.102
	c-0.384,1.427-0.796,2.833-1.263,4.313c-0.143,0.454-0.285,0.898-0.435,1.343c-0.014,0.042-0.028,0.083-0.042,0.125
	c-0.134,0.418-0.275,0.844-0.425,1.261c-0.013,0.036-0.025,0.072-0.038,0.107c-0.232,0.676-0.471,1.352-0.7,1.953
	c-0.003,0.009-0.007,0.017-0.01,0.026c-0.1,0.255-0.198,0.513-0.295,0.773l-0.309,0.817c-0.07,0.187-0.138,0.373-0.215,0.554
	c-0.017,0.04-0.033,0.079-0.048,0.118c-0.01,0.025-0.021,0.051-0.03,0.076c-0.181,0.453-0.37,0.904-0.558,1.355
	c-0.198,0.48-0.395,0.952-0.592,1.406c-0.3,0.693-0.608,1.384-0.924,2.072c-0.077,0.173-0.156,0.345-0.236,0.513
	c-0.396,0.851-0.801,1.698-1.221,2.541c-0.001,0.001-0.001,0.003-0.002,0.005C338.275,300.172,318.951,318.071,295.278,327.661z
	 M386.16,273.1h-18.281c3.696-9.707,6.071-19.795,7.115-30.172c0.003-0.026,0.006-0.052,0.009-0.078l0.016-0.154
	c0.001-0.013,0.003-0.026,0.004-0.039c0.12-1.22,0.221-2.445,0.304-3.673c0.001-0.014,0.002-0.026,0.003-0.039l0.005-0.088
	c0.06-0.908,0.111-1.819,0.151-2.732c0.009-0.181,0.02-0.36,0.028-0.543c0.002-0.06,0.004-0.142,0.006-0.223
	c0.003-0.065,0.001-0.133,0.004-0.198c0.044-1.221,0.077-2.444,0.085-3.671h10.553c11.475,0,20.81,9.331,20.81,20.8
	C406.97,263.765,397.635,273.1,386.16,273.1z"/>
<path d="M310.324,215.962c-4.142,0-7.5,3.358-7.5,7.5v2c0,4.142,3.358,7.5,7.5,7.5s7.5-3.358,7.5-7.5v-2
	C317.824,219.32,314.466,215.962,310.324,215.962z"/>
<path d="M209.176,225.462v-2c0-4.142-3.358-7.5-7.5-7.5s-7.5,3.358-7.5,7.5v2c0,4.142,3.358,7.5,7.5,7.5
	S209.176,229.605,209.176,225.462z"/>
<path d="M272.084,236.479h-32.168c-21.183,0-38.416,17.233-38.416,38.416v8.077c0,4.142,3.358,7.5,7.5,7.5h94
	c4.142,0,7.5-3.358,7.5-7.5v-8.077C310.5,253.712,293.267,236.479,272.084,236.479z M295.5,275.472h-79v-0.577
	c0-12.912,10.504-23.416,23.416-23.416h32.168c12.912,0,23.416,10.504,23.416,23.416V275.472z"/>
<path d="M213.9,390.045c-11.551,0-20.948,9.397-20.948,20.947c0,11.551,9.397,20.948,20.948,20.948s20.948-9.397,20.948-20.948
	C234.848,399.442,225.451,390.045,213.9,390.045z M213.9,416.94c-3.28,0-5.948-2.668-5.948-5.948c0-3.279,2.668-5.947,5.948-5.947
	s5.948,2.668,5.948,5.947C219.848,414.272,217.18,416.94,213.9,416.94z"/>
<path d="M213.9,448.845c-11.551,0-20.948,9.397-20.948,20.948c0,11.55,9.397,20.947,20.948,20.947s20.948-9.397,20.948-20.947
	C234.848,458.242,225.451,448.845,213.9,448.845z M213.9,475.74c-3.28,0-5.948-2.668-5.948-5.947c0-3.28,2.668-5.948,5.948-5.948
	s5.948,2.668,5.948,5.948C219.848,473.072,217.18,475.74,213.9,475.74z"/>
<path d="M285.833,417.952v22.082c0,4.142,3.358,7.5,7.5,7.5H317v2.046c-8.21,3.057-14.085,10.952-14.085,20.214
	c0,11.902,9.683,21.584,21.585,21.584c11.902,0,21.585-9.683,21.585-21.584c0-9.262-5.875-17.157-14.085-20.214v-2.046h23.666
	c4.142,0,7.5-3.358,7.5-7.5v-22.082c0-4.142-3.358-7.5-7.5-7.5h-62.333C289.191,410.452,285.833,413.81,285.833,417.952z
	 M324.5,476.377c-3.631,0-6.585-2.954-6.585-6.584c0-3.631,2.954-6.585,6.585-6.585c3.631,0,6.585,2.954,6.585,6.585
	C331.085,473.424,328.131,476.377,324.5,476.377z M300.833,425.452h47.333v7.082h-47.333V425.452z"/>
<path d="M248.5,105.562v1.44c0,4.142,3.358,7.5,7.5,7.5s7.5-3.358,7.5-7.5v-1.44c6.698-1.438,12.835-4.796,17.755-9.814
	c2.899-2.958,2.852-7.707-0.105-10.606c-2.958-2.899-7.707-2.852-10.606,0.105c-2.033,2.074-4.43,3.642-7.043,4.678V73.619
	c6.756-2.915,11.5-9.637,11.5-17.451c0-10.477-8.523-19-19-19c-10.477,0-19,8.523-19,19c0,7.813,4.744,14.536,11.5,17.451v16.305
	c-2.613-1.036-5.011-2.604-7.044-4.678c-2.9-2.957-7.648-3.004-10.606-0.105c-2.957,2.9-3.005,7.648-0.105,10.606
	C235.665,100.766,241.802,104.123,248.5,105.562z M256,52.168c2.206,0,4,1.794,4,4s-1.794,4-4,4s-4-1.794-4-4
	C252,53.963,253.794,52.168,256,52.168z"/>
<g>
</g>
<g>
</g>
<g>
</g>
<g>
</g>
<g>
</g>
<g>
</g>
<g>
</g>
<g>
</g>
<g>
</g>
<g>
</g>
<g>
</g>
<g>
</g>
<g>
</g>
<g>
</g>
<g>
</g>
</svg>
