<?xml version="1.0" encoding="iso-8859-1"?>
<!-- Generator: Adobe Illustrator 19.0.0, SVG Export Plug-In . SVG Version: 6.00 Build 0)  -->
<svg version="1.1" id="Capa_1" xmlns="http://www.w3.org/2000/svg" xmlns:xlink="http://www.w3.org/1999/xlink" x="0px" y="0px"
	 viewBox="0 0 511.999 511.999" style="enable-background:new 0 0 511.999 511.999;" xml:space="preserve">
<path style="fill:#F0EEEE;" d="M203.072,363.444h105.855c41.621,0,75.362,33.741,75.362,75.362V504.5H127.71v-65.694
	C127.71,397.184,161.451,363.444,203.072,363.444z"/>
<path style="fill:#D9D4D4;" d="M308.927,363.444h-22.632c41.621,0,75.362,33.741,75.362,75.362V504.5h22.632v-65.695
	C384.289,397.184,350.547,363.444,308.927,363.444z"/>
<polygon style="fill:#FA9E3E;" points="298.099,363.08 298.099,267.73 213.899,267.73 213.899,363.08 255.999,387.67 "/>
<path style="fill:#F0EEEE;" d="M255.999,7.5c-97.478,0-176.5,55.549-176.5,103.46s79.022,86.75,176.5,86.75
	s176.5-38.839,176.5-86.75S353.477,7.5,255.999,7.5z"/>
<path style="fill:#D9D4D4;" d="M255.999,7.5c-2.02,0-4.029,0.032-6.033,0.08c88.425,2.228,159.199,56.463,159.199,103.38
	c0,46.918-70.774,85.13-159.199,86.694c2.004,0.033,4.013,0.056,6.033,0.056c97.478,0,176.5-38.839,176.5-86.75
	S353.477,7.5,255.999,7.5z"/>
<path style="fill:#BF612C;" d="M114.999,135.888v112.407h282V135.888c0-16.114-13.063-29.178-29.178-29.178H144.177
	C128.063,106.71,114.999,119.773,114.999,135.888z"/>
<g>
	<path style="fill:#FA9E3E;" d="M125.838,223.99h49.369v56.61h-49.369c-15.632,0-28.305-12.673-28.305-28.305
		S110.206,223.99,125.838,223.99z"/>
	<path style="fill:#FA9E3E;" d="M386.161,223.99h-49.369v56.61h49.369c15.632,0,28.305-12.673,28.305-28.305
		S401.792,223.99,386.161,223.99z"/>
</g>
<path style="fill:#FFB56B;" d="M255.999,342.79L255.999,342.79c-61.919,0-112.115-50.195-112.115-112.115V117.281h224.229v113.394
	C368.115,292.595,317.919,342.79,255.999,342.79z"/>
<path style="fill:#EF9245;" d="M344.781,117.281v125.062c0,53.578-41.949,97.354-94.795,100.286
	c1.992,0.105,3.996,0.161,6.014,0.161l0,0c61.919,0,112.115-50.195,112.115-112.115V117.281H344.781z"/>
<path style="fill:#FFD100;" d="M114.999,135.888v6.822h282v-6.822c0-16.114-13.063-29.178-29.178-29.178H144.177
	C128.063,106.71,114.999,119.773,114.999,135.888z"/>
<path style="fill:#3D5868;" d="M142.24,142.71c-0.002,0.111-0.01,0.222-0.01,0.333c0,27.982,50.936,50.667,113.77,50.667
	c62.833,0,113.77-22.684,113.77-50.667c0-0.111-0.008-0.222-0.009-0.333H142.24z"/>
<g>
	<polygon style="fill:#D9D4D4;" points="323.378,364.833 308.792,351 255.999,388.774 295.313,428.088 	"/>
	<polygon style="fill:#D9D4D4;" points="188.621,364.833 203.206,351 255.999,388.774 216.686,428.088 	"/>
</g>
<path style="fill:#304A56;" d="M279.815,412.59c-6.098,6.098-14.514,9.868-23.816,9.868c-9.302,0-17.718-3.77-23.816-9.868
	l23.816-23.816L279.815,412.59z"/>
<path style="fill:#3D5868;" d="M277.631,504.5h-43.265l8.251-84.812c4.1,1.782,8.622,2.771,13.381,2.771
	c4.759,0,9.281-0.989,13.381-2.771L277.631,504.5z"/>
<path style="fill:#F2AD00;" d="M273.13,68.786l-1.145,1.145l-11.261,11.261c-2.612,2.602-6.837,2.602-9.449,0l-11.261-11.261
	l-1.145-1.145c-2.613-2.613-2.613-6.848,0-9.46l12.406-12.406c2.613-2.613,6.837-2.613,9.449,0l9.094,9.094l3.313,3.313
	C275.743,61.938,275.743,66.173,273.13,68.786z"/>
<g>
	<path style="fill:#FFD100;" d="M341,47.308l-17.298,20.555c-3.88,4.603-9.583,7.259-15.597,7.259h-30.927l-5.192-5.191l1.145-1.145
		c2.613-2.613,2.613-6.848,0-9.46l-3.313-3.313l12.029-8.705C281.846,47.308,341,47.308,341,47.308z"/>
	<path style="fill:#FFD100;" d="M238.868,68.786l1.145,1.145l-5.192,5.191h-30.927c-6.014,0-11.717-2.657-15.597-7.259
		l-17.298-20.555h59.153l12.029,8.705l-3.313,3.313C236.255,61.938,236.255,66.173,238.868,68.786z"/>
</g>
<path d="M404.5,221.557v-54.431c23.24-16.135,35.5-35.489,35.5-56.166c0-26.497-20.131-54.221-55.232-76.064
	C348.605,12.393,302.875,0,255.999,0c-49.731,0-99.204,14.377-135.734,39.446c-3.415,2.344-4.284,7.013-1.94,10.428
	c2.344,3.415,7.011,4.284,10.428,1.94C162.845,28.418,209.225,15,255.999,15c44.112,0,87.028,11.589,120.842,32.631
	C406.997,66.396,425,90.071,425,110.96c0,15.302-9.581,27.884-20.5,37.257v-5.507v-6.82v-0.002
	c0-20.224-16.454-36.678-36.678-36.678h-13.788c-4.142,0-7.5,3.358-7.5,7.5s3.358,7.5,7.5,7.5h13.788
	c11.726,0,21.308,9.359,21.667,21H369.76h-1.65h-224.22h-1.65h-19.723c0.001-0.042,0.002-0.085,0.003-0.127
	c0.023-0.632,0.075-1.257,0.151-1.874c0.012-0.095,0.023-0.191,0.036-0.285c0.084-0.612,0.194-1.216,0.329-1.811
	c0.021-0.095,0.043-0.189,0.066-0.284c0.142-0.59,0.308-1.17,0.496-1.74c0.031-0.093,0.062-0.186,0.094-0.278
	c0.196-0.565,0.414-1.12,0.654-1.663c0.04-0.09,0.08-0.178,0.121-0.267c0.247-0.539,0.515-1.067,0.805-1.581
	c0.047-0.084,0.096-0.167,0.144-0.251c0.297-0.511,0.612-1.01,0.948-1.494c0.054-0.078,0.109-0.154,0.164-0.231
	c0.343-0.48,0.704-0.947,1.084-1.398c0.06-0.071,0.121-0.14,0.181-0.209c0.388-0.447,0.791-0.88,1.213-1.294
	c0.063-0.062,0.128-0.122,0.193-0.184c0.43-0.412,0.875-0.808,1.338-1.184c0.065-0.053,0.132-0.103,0.198-0.156
	c0.471-0.374,0.956-0.73,1.458-1.064c0.065-0.043,0.132-0.084,0.198-0.127c0.51-0.332,1.034-0.646,1.573-0.935
	c0.063-0.034,0.128-0.065,0.191-0.098c0.549-0.287,1.11-0.555,1.685-0.796c0.057-0.024,0.116-0.045,0.174-0.069
	c0.587-0.24,1.185-0.457,1.796-0.645c0.048-0.015,0.098-0.027,0.146-0.041c0.625-0.188,1.26-0.351,1.907-0.482
	c0.037-0.007,0.074-0.013,0.111-0.02c0.662-0.131,1.334-0.234,2.016-0.303c0.02-0.002,0.039-0.003,0.059-0.004
	c0.7-0.069,1.409-0.106,2.126-0.106c0.002,0,0.003,0,0.005,0h179.195c4.142,0,7.5-3.358,7.5-7.5s-3.358-7.5-7.5-7.5H144.177
	c-20.224,0-36.678,16.454-36.678,36.678v0.002v6.82v5.507c-10.919-9.372-20.5-21.954-20.5-37.256
	c0-13.027,6.949-27.191,20.095-40.961c2.86-2.996,2.75-7.744-0.246-10.604s-7.744-2.75-10.604,0.246
	c-15.861,16.614-24.245,34.36-24.245,51.319c0,20.677,12.26,40.03,35.5,56.166v54.431c-10.454,6.259-17.47,17.69-17.47,30.733
	c0,19.746,16.064,35.81,35.81,35.81h25.219c9.755,17.8,23.889,32.867,41.121,43.757c4.577,2.893,9.331,5.449,14.219,7.678v4.679
	c-2.752-1.295-6.077-0.813-8.35,1.342l-13.072,12.391c-37.661,8.377-64.768,42.014-64.768,80.862v65.69c0,4.142,3.358,7.5,7.5,7.5
	h106.658h43.265h106.658c4.142,0,7.5-3.358,7.5-7.5v-65.69c0-38.848-27.108-72.485-64.768-80.862l-13.072-12.391
	c-2.272-2.154-5.598-2.637-8.35-1.342v-4.679c4.888-2.229,9.642-4.785,14.219-7.678c17.232-10.891,31.367-25.958,41.122-43.757
	h25.219c19.746,0,35.81-16.064,35.81-35.81C421.969,239.247,414.953,227.815,404.5,221.557z M389.5,150.21v66.441
	c-1.1-0.102-2.213-0.161-3.34-0.161h-10.55v-63.488c0.312-0.925,0.58-1.856,0.805-2.792H389.5z M360.592,150.21
	c-4.214,9.054-16.336,17.897-33.571,24.428c-19.694,7.462-44.917,11.572-71.022,11.572s-51.328-4.11-71.023-11.572
	c-17.228-6.528-29.347-15.366-33.57-24.428H360.592z M122.499,150.21h13.085c0.225,0.937,0.493,1.868,0.805,2.793v63.487h-10.55
	c-1.127,0-2.239,0.059-3.34,0.161V150.21z M125.839,273.1c-11.475,0-20.81-9.336-20.81-20.81c0-11.469,9.335-20.8,20.81-20.8h10.553
	c0.013,1.961,0.076,3.912,0.181,5.855c0.017,0.309,0.038,0.617,0.057,0.925c0.047,0.763,0.101,1.524,0.162,2.284
	c0.027,0.333,0.054,0.665,0.083,0.997c0.075,0.838,0.159,1.675,0.251,2.509c0.023,0.209,0.042,0.419,0.066,0.628
	c0.12,1.034,0.253,2.066,0.4,3.094c0.037,0.259,0.079,0.517,0.117,0.776c0.116,0.779,0.239,1.557,0.37,2.333
	c0.057,0.334,0.115,0.668,0.174,1.001c0.134,0.753,0.277,1.504,0.425,2.254c0.056,0.282,0.109,0.565,0.167,0.846
	c0.209,1.013,0.428,2.023,0.664,3.029c0.035,0.15,0.074,0.3,0.11,0.45c0.204,0.859,0.419,1.716,0.642,2.571
	c0.084,0.319,0.171,0.638,0.257,0.957c0.193,0.712,0.393,1.422,0.599,2.13c0.092,0.316,0.183,0.632,0.278,0.947
	c0.263,0.875,0.536,1.748,0.819,2.618c0.038,0.117,0.073,0.235,0.112,0.353c0.322,0.978,0.66,1.951,1.009,2.921
	c0.106,0.294,0.216,0.587,0.324,0.881c0.154,0.418,0.303,0.837,0.461,1.253h-18.281V273.1z M266.391,412.81
	c-1.472,0.64-2.989,1.13-4.538,1.485c-0.239,0.054-0.477,0.11-0.717,0.158c-0.221,0.044-0.443,0.082-0.666,0.12
	c-0.284,0.048-0.568,0.094-0.854,0.133c-0.205,0.028-0.41,0.055-0.615,0.078c-0.316,0.036-0.635,0.064-0.954,0.089
	c-0.183,0.014-0.365,0.031-0.549,0.041c-0.44,0.025-0.882,0.038-1.326,0.041c-0.058,0.001-0.115,0.004-0.172,0.004
	c-0.058,0-0.115-0.004-0.172-0.004c-0.444-0.003-0.886-0.016-1.326-0.041c-0.184-0.01-0.366-0.027-0.549-0.041
	c-0.319-0.025-0.637-0.053-0.954-0.089c-0.206-0.023-0.411-0.05-0.615-0.078c-0.286-0.039-0.57-0.085-0.854-0.133
	c-0.222-0.038-0.445-0.076-0.666-0.12c-0.241-0.048-0.479-0.103-0.717-0.158c-1.549-0.355-3.066-0.845-4.538-1.485
	c-0.006-0.003-0.013-0.004-0.019-0.007c-0.69-0.299-1.372-0.618-2.034-0.977l12.444-12.448l12.444,12.448
	c-0.663,0.359-1.344,0.677-2.035,0.977C266.404,412.805,266.396,412.807,266.391,412.81z M203.878,360.701l39.259,28.092
	c0.054,0.04,0.108,0.08,0.163,0.12l1.139,0.814l-17.561,17.561c-0.019,0.019-0.035,0.04-0.053,0.059l-7.711,7.713l-21.489-48.43
	L203.878,360.701z M135.21,438.81c0-30.448,20.315-56.998,49.084-65.238l25.541,57.56c1.002,2.259,3.054,3.88,5.484,4.332
	c0.274,0.051,0.548,0.081,0.822,0.101c0.082,0.006,0.163,0.008,0.245,0.011c0.101,0.004,0.203,0.014,0.304,0.014
	c0.093,0,0.185-0.01,0.278-0.014c0.098-0.004,0.195-0.007,0.292-0.014c0.203-0.016,0.405-0.041,0.605-0.073
	c0.073-0.012,0.147-0.019,0.22-0.033c0.272-0.052,0.541-0.117,0.805-0.198c0.044-0.013,0.087-0.032,0.131-0.047
	c0.219-0.072,0.435-0.152,0.647-0.244c0.081-0.035,0.16-0.075,0.241-0.113c0.173-0.082,0.344-0.171,0.511-0.267
	c0.083-0.048,0.165-0.096,0.246-0.147c0.167-0.104,0.328-0.217,0.487-0.335c0.068-0.051,0.139-0.099,0.205-0.152
	c0.22-0.175,0.434-0.36,0.635-0.561l10.676-10.679c0.654,0.452,1.316,0.887,1.992,1.299L227.561,497H135.21V438.81z M242.632,497
	l6.577-67.598c0.09,0.015,0.182,0.025,0.273,0.04c0.313,0.049,0.627,0.094,0.942,0.136c0.322,0.044,0.645,0.083,0.969,0.119
	c0.292,0.032,0.584,0.064,0.877,0.09c0.355,0.032,0.71,0.056,1.066,0.078c0.27,0.017,0.54,0.038,0.811,0.05
	c0.477,0.021,0.954,0.03,1.431,0.035c0.141,0.001,0.28,0.01,0.421,0.01c0.141,0,0.28-0.009,0.421-0.01
	c0.477-0.005,0.954-0.014,1.431-0.035c0.271-0.012,0.541-0.033,0.811-0.05c0.356-0.022,0.712-0.046,1.066-0.078
	c0.293-0.026,0.585-0.058,0.878-0.09c0.324-0.036,0.646-0.075,0.969-0.119c0.315-0.042,0.629-0.087,0.942-0.136
	c0.091-0.014,0.182-0.025,0.273-0.04L269.367,497H242.632z M376.789,438.81V497h-92.352l-7.101-72.987
	c0.676-0.411,1.339-0.847,1.993-1.299l10.103,10.106l0.572,0.572l0,0l0.001,0.001c0.001,0.001,0.003,0.002,0.004,0.004
	c0.199,0.199,0.411,0.382,0.628,0.556c0.07,0.056,0.143,0.106,0.215,0.159c0.155,0.114,0.311,0.224,0.473,0.325
	c0.086,0.054,0.173,0.105,0.26,0.155c0.16,0.092,0.323,0.176,0.489,0.255c0.087,0.042,0.173,0.085,0.262,0.123
	c0.198,0.085,0.399,0.16,0.603,0.228c0.059,0.02,0.115,0.044,0.174,0.062c0.26,0.08,0.524,0.143,0.791,0.194
	c0.084,0.016,0.168,0.024,0.253,0.038c0.19,0.029,0.38,0.054,0.572,0.069c0.103,0.008,0.207,0.012,0.311,0.015
	c0.089,0.003,0.178,0.013,0.268,0.013c0.098,0,0.197-0.01,0.296-0.013c0.085-0.003,0.171-0.006,0.256-0.012
	c0.27-0.02,0.54-0.05,0.81-0.1c0.003-0.001,0.006-0.001,0.009-0.001c2.43-0.452,4.482-2.072,5.484-4.332l25.541-57.56
	C356.474,381.812,376.789,408.362,376.789,438.81z M314.375,366.629l-21.488,48.428l-7.734-7.736
	c-0.011-0.011-0.02-0.023-0.031-0.034l-16.892-16.893l-0.669-0.669l1.18-0.844c0.021-0.015,0.054-0.038,0.085-0.062l7.53-5.388
	l31.766-22.731L314.375,366.629z M290.599,345.204v9.59l-17.355,12.419l-12.955,9.27l-4.29,2.504l-4.29-2.504l-12.955-9.27
	l-17.355-12.419v-9.59c0.288,0.087,0.58,0.16,0.869,0.245c0.481,0.141,0.965,0.274,1.448,0.409c0.92,0.258,1.842,0.511,2.768,0.747
	c0.365,0.092,0.731,0.177,1.096,0.266c1.034,0.253,2.069,0.498,3.109,0.723c0.268,0.058,0.538,0.109,0.807,0.165
	c1.125,0.235,2.252,0.46,3.384,0.662c0.21,0.038,0.421,0.068,0.632,0.105c1.18,0.204,2.363,0.398,3.55,0.566
	c0.21,0.03,0.421,0.052,0.631,0.081c1.181,0.161,2.365,0.313,3.553,0.439c0.299,0.032,0.601,0.053,0.901,0.082
	c1.099,0.108,2.199,0.213,3.303,0.291c0.55,0.039,1.103,0.059,1.654,0.09c0.863,0.049,1.724,0.106,2.589,0.137
	c1.432,0.051,2.867,0.078,4.305,0.078c1.438,0,2.873-0.027,4.305-0.078c0.865-0.031,1.726-0.088,2.589-0.137
	c0.551-0.032,1.104-0.051,1.654-0.09c1.104-0.078,2.204-0.183,3.303-0.291c0.3-0.03,0.601-0.05,0.901-0.082
	c1.188-0.126,2.371-0.278,3.553-0.439c0.21-0.029,0.421-0.051,0.631-0.081c1.187-0.168,2.37-0.362,3.55-0.566
	c0.21-0.036,0.422-0.067,0.632-0.105c1.132-0.202,2.259-0.428,3.384-0.662c0.269-0.056,0.539-0.107,0.807-0.165
	c1.04-0.225,2.076-0.47,3.109-0.723c0.365-0.089,0.732-0.174,1.096-0.266c0.926-0.236,1.847-0.489,2.767-0.747
	c0.483-0.135,0.967-0.268,1.448-0.409C290.019,345.365,290.312,345.291,290.599,345.204z M296.06,327.399
	c-0.262,0.074-0.522,0.157-0.777,0.261c-6.207,2.516-12.594,4.415-19.115,5.69c-0.084,0.016-0.168,0.033-0.251,0.049
	c-0.763,0.147-1.529,0.287-2.296,0.417c-0.354,0.06-0.711,0.112-1.066,0.168c-0.926,0.147-1.854,0.282-2.784,0.404
	c-0.647,0.084-1.294,0.165-1.944,0.238c-0.4,0.045-0.801,0.089-1.202,0.13c-1.025,0.102-2.052,0.196-3.084,0.269
	c-0.155,0.011-0.31,0.017-0.464,0.028c-0.957,0.063-1.918,0.113-2.88,0.15c-0.294,0.011-0.587,0.022-0.881,0.031
	c-1.102,0.034-2.205,0.058-3.314,0.058c-1.108,0-2.212-0.023-3.314-0.058c-0.294-0.009-0.588-0.02-0.881-0.031
	c-0.963-0.038-1.923-0.087-2.88-0.15c-0.155-0.01-0.31-0.017-0.464-0.028c-1.032-0.073-2.059-0.166-3.085-0.269
	c-0.401-0.04-0.802-0.085-1.202-0.13c-0.65-0.072-1.297-0.154-1.944-0.238c-0.931-0.122-1.859-0.257-2.785-0.404
	c-0.355-0.056-0.712-0.109-1.066-0.168c-0.767-0.13-1.532-0.27-2.296-0.417c-0.084-0.016-0.167-0.033-0.251-0.049
	c-6.521-1.275-12.908-3.173-19.115-5.69c-0.255-0.103-0.515-0.186-0.776-0.26c-22.926-9.446-42.081-26.941-53.639-50.144
	c-7.241-14.53-10.913-30.201-10.913-46.575v-6.689v-50.855c20.996,17.158,59.819,28.075,104.61,28.075
	c44.792,0,83.617-10.917,104.61-28.071v50.851v6.689c0,2.047-0.057,4.083-0.172,6.107c-0.057,1.012-0.129,2.021-0.215,3.027
	c-0.161,1.882-0.376,3.753-0.636,5.612c-0.189,1.353-0.408,2.7-0.65,4.041c-1.06,5.871-2.623,11.621-4.685,17.227
	c-1.317,3.58-2.832,7.104-4.554,10.561c0,0.001-0.001,0.002-0.001,0.003C338.138,300.458,318.984,317.953,296.06,327.399z
	 M386.159,273.1h-18.281c0.158-0.415,0.306-0.832,0.459-1.248c0.109-0.296,0.22-0.591,0.326-0.887
	c0.348-0.97,0.686-1.942,1.008-2.919c0.039-0.118,0.074-0.237,0.113-0.355c0.283-0.869,0.556-1.742,0.819-2.617
	c0.094-0.313,0.185-0.628,0.276-0.942c0.207-0.71,0.407-1.422,0.6-2.135c0.086-0.318,0.173-0.637,0.257-0.955
	c0.224-0.855,0.438-1.713,0.643-2.573c0.035-0.149,0.074-0.297,0.109-0.447c0.235-1.007,0.455-2.018,0.664-3.032
	c0.058-0.279,0.11-0.56,0.166-0.84c0.149-0.752,0.292-1.506,0.427-2.261c0.059-0.331,0.117-0.663,0.173-0.995
	c0.132-0.777,0.255-1.556,0.371-2.337c0.039-0.258,0.08-0.516,0.117-0.774c0.146-1.029,0.28-2.06,0.4-3.094
	c0.024-0.208,0.043-0.417,0.066-0.624c0.092-0.837,0.176-1.675,0.251-2.515c0.029-0.33,0.056-0.662,0.083-0.993
	c0.061-0.76,0.115-1.522,0.162-2.285c0.019-0.308,0.04-0.616,0.057-0.925c0.105-1.943,0.168-3.894,0.181-5.855h10.553
	c11.475,0,20.81,9.331,20.81,20.8C406.969,263.765,397.635,273.1,386.159,273.1z"/>
<path d="M310.323,215.962c-4.142,0-7.5,3.358-7.5,7.5v2c0,4.142,3.358,7.5,7.5,7.5c4.142,0,7.5-3.358,7.5-7.5v-2
	C317.823,219.32,314.466,215.962,310.323,215.962z"/>
<path d="M201.675,215.962c-4.142,0-7.5,3.358-7.5,7.5v2c0,4.142,3.358,7.5,7.5,7.5s7.5-3.358,7.5-7.5v-2
	C209.175,219.32,205.817,215.962,201.675,215.962z"/>
<path d="M203.895,82.622h30.927c1.936,0,3.792-0.753,5.186-2.091l5.975,5.975c2.76,2.749,6.386,4.124,10.013,4.124
	c3.631,0,7.263-1.378,10.032-4.135l5.964-5.964c1.395,1.337,3.25,2.091,5.186,2.091h30.927c8.239,0,16.014-3.618,21.335-9.93
	l17.298-20.555c1.878-2.231,2.292-5.35,1.061-7.994c-1.231-2.644-3.883-4.335-6.8-4.335h-59.153c-1.579,0-3.118,0.499-4.397,1.424
	l-6.849,4.957l-4.572-4.572c-2.68-2.681-6.241-4.157-10.028-4.157s-7.348,1.476-10.028,4.156l-4.573,4.573l-6.849-4.957
	c-1.279-0.926-2.818-1.424-4.397-1.424h-59.153c-2.917,0-5.569,1.691-6.8,4.335c-1.23,2.645-0.816,5.763,1.062,7.994l17.302,20.56
	C187.88,79.004,195.656,82.622,203.895,82.622z M284.276,54.808h40.61l-6.918,8.221c-2.461,2.919-6.056,4.593-9.863,4.593h-25.973
	c0.038-0.146,0.059-0.294,0.092-0.44c0.048-0.213,0.096-0.425,0.133-0.639c0.04-0.229,0.07-0.458,0.099-0.687
	c0.027-0.216,0.056-0.431,0.073-0.648c0.019-0.23,0.025-0.46,0.033-0.691c0.007-0.218,0.016-0.435,0.013-0.652
	c-0.003-0.231-0.019-0.461-0.033-0.691c-0.013-0.217-0.024-0.434-0.048-0.65c-0.025-0.23-0.063-0.459-0.099-0.688
	c-0.034-0.215-0.064-0.429-0.108-0.642c-0.047-0.229-0.108-0.456-0.166-0.683c-0.054-0.209-0.103-0.418-0.166-0.625
	c-0.07-0.228-0.154-0.451-0.236-0.675c-0.073-0.202-0.141-0.405-0.223-0.604c-0.093-0.225-0.203-0.444-0.308-0.664
	c-0.091-0.191-0.176-0.385-0.277-0.573c-0.016-0.03-0.029-0.063-0.045-0.093L284.276,54.808z M267.255,64.056L255.999,75.31
	l-11.254-11.254l11.254-11.255L267.255,64.056z M227.723,54.808l3.405,2.464c-0.008,0.015-0.014,0.032-0.022,0.047
	c-0.253,0.467-0.475,0.949-0.673,1.441c-0.055,0.136-0.098,0.276-0.148,0.415c-0.134,0.366-0.256,0.737-0.359,1.115
	c-0.048,0.175-0.091,0.352-0.132,0.529c-0.086,0.368-0.154,0.74-0.21,1.116c-0.025,0.165-0.054,0.328-0.073,0.495
	c-0.061,0.537-0.101,1.079-0.101,1.627c0,0.422,0.025,0.84,0.061,1.255c0.008,0.096,0.017,0.191,0.027,0.287
	c0.044,0.408,0.101,0.813,0.179,1.213c0.009,0.046,0.021,0.092,0.031,0.138c0.046,0.226,0.094,0.451,0.151,0.674h-25.964
	c-3.807,0-7.402-1.674-9.859-4.588l-6.922-8.226h40.609V54.808z"/>
<path d="M313.5,454.594c-4.142,0-7.5,3.358-7.5,7.5s3.358,7.5,7.5,7.5h35c4.142,0,7.5-3.358,7.5-7.5s-3.358-7.5-7.5-7.5H313.5z"/>
<path d="M287.935,260.31c-3.406-2.358-8.078-1.509-10.436,1.896c-4.89,7.062-12.928,11.278-21.5,11.278
	c-8.573,0-16.61-4.216-21.501-11.278c-2.357-3.406-7.03-4.254-10.436-1.896c-3.405,2.358-4.254,7.03-1.896,10.435
	c7.691,11.108,20.339,17.739,33.833,17.739c13.494,0,26.142-6.631,33.832-17.739C292.19,267.34,291.341,262.668,287.935,260.31z"/>
<g>
</g>
<g>
</g>
<g>
</g>
<g>
</g>
<g>
</g>
<g>
</g>
<g>
</g>
<g>
</g>
<g>
</g>
<g>
</g>
<g>
</g>
<g>
</g>
<g>
</g>
<g>
</g>
<g>
</g>
</svg>
