<?xml version="1.0" encoding="iso-8859-1"?>
<!-- Generator: Adobe Illustrator 19.0.0, SVG Export Plug-In . SVG Version: 6.00 Build 0)  -->
<svg version="1.1" id="Capa_1" xmlns="http://www.w3.org/2000/svg" xmlns:xlink="http://www.w3.org/1999/xlink" x="0px" y="0px"
	 viewBox="0 0 511.999 511.999" style="enable-background:new 0 0 511.999 511.999;" xml:space="preserve">
<g>
	<path style="fill:#FB403F;" d="M443.935,159.036c0-26.442-21.435-47.877-47.877-47.877c-7.653,0-14.88,1.805-21.296,4.997
		c-4.859-9.765-14.934-16.478-26.581-16.478c-16.391,0-29.679,13.288-29.679,29.679s13.288,29.679,29.679,29.679
		c0,6.061,1.138,11.853,3.192,17.19c-7.499,7.054-12.189,17.061-12.189,28.169c0,21.36,17.315,38.675,38.675,38.675
		s38.675-17.315,38.675-38.675c0-0.688-0.02-1.372-0.055-2.052C432.706,194.678,443.935,178.171,443.935,159.036z"/>
	<path style="fill:#FB403F;" d="M68.067,159.036c0-26.442,21.435-47.877,47.877-47.877c7.653,0,14.88,1.805,21.296,4.997
		c4.859-9.765,14.934-16.478,26.581-16.478c16.391,0,29.679,13.288,29.679,29.679s-13.288,29.679-29.679,29.679
		c0,6.061-1.138,11.853-3.192,17.19c7.499,7.054,12.189,17.061,12.189,28.169c0,21.36-17.315,38.675-38.675,38.675
		s-38.675-17.315-38.675-38.675c0-0.688,0.02-1.372,0.055-2.052C79.296,194.678,68.067,178.171,68.067,159.036z"/>
</g>
<path style="fill:#C21C1C;" d="M443.935,159.036c0-26.442-21.435-47.877-47.877-47.877c-4.15,0-8.168,0.547-12.006,1.542
	c20.589,5.356,35.79,24.069,35.79,46.335c0,19.135-11.23,35.642-27.455,43.307c0.035,0.679,0.055,1.363,0.055,2.052
	c0,17.152-11.17,31.687-26.629,36.752c3.793,1.243,7.839,1.923,12.046,1.923c21.36,0,38.675-17.315,38.675-38.675
	c0-0.688-0.02-1.372-0.055-2.052C432.706,194.678,443.935,178.171,443.935,159.036z"/>
<g>
	<path style="fill:#FA9E3E;" d="M125.84,223.99h49.369v56.61H125.84c-15.632,0-28.305-12.673-28.305-28.305
		S110.208,223.99,125.84,223.99z"/>
	<path style="fill:#FA9E3E;" d="M386.162,223.99h-49.369v56.61h49.369c15.632,0,28.305-12.673,28.305-28.305
		S401.794,223.99,386.162,223.99z"/>
</g>
<path style="fill:#FFB700;" d="M203.074,363.444h105.855c41.621,0,75.362,33.741,75.362,75.362V504.5H127.712v-65.694
	C127.712,397.184,161.453,363.444,203.074,363.444z"/>
<path style="fill:#49B6F2;" d="M308.931,363.44h-52.93V504.5h128.29v-65.69C384.291,397.18,350.551,363.44,308.931,363.44z"/>
<path style="fill:#2E93CC;" d="M308.928,363.444h-22.632c41.621,0,75.362,33.741,75.362,75.362V504.5h22.632v-65.695
	C384.29,397.184,350.549,363.444,308.928,363.444z"/>
<path style="fill:#F0EEEE;" d="M321.463,359.704c0.423-1.634,0.65-3.322,0.65-5.051c0-14.309-15.2-25.909-33.949-25.909
	c-14.358,0-26.625,6.805-31.588,16.417c-0.192-0.002-0.382-0.015-0.574-0.015s-0.382,0.012-0.574,0.015
	c-4.963-9.612-17.23-16.417-31.588-16.417c-18.75,0-33.949,11.6-33.949,25.909c0,1.729,0.227,3.417,0.65,5.051
	c-7.015,5.453-11.534,13.965-11.534,23.538c0,16.46,13.344,29.804,29.804,29.804c2.363,0,4.659-0.284,6.864-0.803
	c7.678,14.418,22.854,24.238,40.329,24.238s32.651-9.82,40.329-24.238c2.204,0.52,4.5,0.803,6.863,0.803
	c16.46,0,29.803-13.344,29.803-29.804C332.997,373.669,328.478,365.157,321.463,359.704z"/>
<path style="fill:#FA9E3E;" d="M298.101,267.73v97.244c0,20.493-16.613,37.106-37.106,37.106h-9.989
	c-20.493,0-37.106-16.613-37.106-37.106V267.73H298.101z"/>
<path style="fill:#F0EEEE;" d="M256.001,342.79L256.001,342.79c-61.919,0-112.115-50.195-112.115-112.115v-35.29
	c0-58.048,47.057-105.104,105.104-105.104h14.021c58.047,0,105.104,47.057,105.104,105.104v35.29
	C368.116,292.595,317.92,342.79,256.001,342.79z"/>
<path style="fill:#D9D4D4;" d="M368.116,230.675v-35.29c0-25.014-8.744-47.982-23.334-66.028v112.986
	c0,53.578-41.949,97.354-94.794,100.286h0.001c0.981,0.052,1.965,0.091,2.951,0.118c0.016,0,0.032,0.001,0.048,0.002
	c1.001,0.027,2.005,0.041,3.013,0.041l0,0C317.92,342.79,368.116,292.595,368.116,230.675z"/>
<path style="fill:#49B6F2;" d="M191.856,71.645V102h128.29V71.645c0-35.426-28.719-64.145-64.145-64.145l0,0
	C220.575,7.5,191.856,36.219,191.856,71.645z"/>
<path style="fill:#2E93CC;" d="M256.001,7.5L256.001,7.5c-4.128,0-8.161,0.405-12.072,1.15
	c29.653,5.649,52.073,31.697,52.073,62.995V102h24.144V71.645C320.146,36.219,291.427,7.5,256.001,7.5z"/>
<path style="fill:#FFB700;" d="M191.856,71.645V102h128.29V71.645c0-2.589-0.171-5.136-0.469-7.645H192.325
	C192.027,66.508,191.856,69.056,191.856,71.645z"/>
<path style="fill:#D69400;" d="M320.077,68.928c-0.016-0.348-0.028-0.698-0.05-1.045c-0.039-0.668-0.093-1.333-0.152-1.996
	c-0.058-0.632-0.125-1.261-0.199-1.888l0,0h-24.141c0.298,2.508,0.466,5.056,0.466,7.645V102h24.144V71.645
	C320.146,70.734,320.115,69.83,320.077,68.928z"/>
<path style="fill:#49B6F2;" d="M156.001,127v-5.995c0-16.968,13.755-30.724,30.724-30.724h138.552
	c16.968,0,30.724,13.756,30.724,30.724V127H156.001z"/>
<path style="fill:#2E93CC;" d="M325.277,90.281h-25.218c16.968,0,30.724,13.756,30.724,30.724V127h25.218v-5.995
	C356.001,104.037,342.246,90.281,325.277,90.281z"/>
<circle style="fill:#FB403F;" cx="256.001" cy="263.83" r="21.667"/>
<path d="M396.059,103.659c-6.328,0-12.47,1.044-18.334,3.111c-6.508-8.559-16.391-13.884-27.309-14.526
	c-6.17-5.4-14.082-8.852-22.775-9.384V71.64c0-1.001-0.031-2.027-0.078-3.064c-0.015-0.341-0.027-0.682-0.047-1.022
	c-0.049-0.829-0.114-1.669-0.192-2.514c-0.044-0.478-0.092-0.954-0.146-1.43c-0.017-0.158-0.03-0.313-0.048-0.471
	c-0.013-0.114-0.037-0.224-0.055-0.336C322.705,27.458,292.509,0,256.001,0c-19.138,0-37.13,7.453-50.666,20.989
	c-11.458,11.467-18.533,26.133-20.435,41.975c-0.008,0.059-0.022,0.116-0.029,0.175c-0.013,0.114-0.022,0.226-0.035,0.34
	c-0.068,0.603-0.132,1.207-0.185,1.814c-0.068,0.765-0.123,1.523-0.167,2.275c-0.021,0.385-0.037,0.772-0.053,1.158
	c-0.042,0.986-0.071,1.962-0.071,2.915V82.86c-8.693,0.532-16.605,3.984-22.775,9.384c-10.918,0.642-20.801,5.967-27.309,14.526
	c-5.864-2.067-12.006-3.111-18.334-3.111c-5.243,0-10.433,0.732-15.424,2.178c-3.979,1.151-6.271,5.311-5.118,9.29
	c1.152,3.979,5.308,6.276,9.29,5.118c3.635-1.053,7.421-1.586,11.252-1.586c6.298,0,12.339,1.417,17.956,4.212
	c1.048,0.521,2.192,0.785,3.341,0.785c0.804,0,1.609-0.129,2.386-0.39c1.886-0.633,3.443-1.988,4.329-3.77
	c1.379-2.772,3.273-5.156,5.528-7.073c-0.635,2.759-0.982,5.627-0.982,8.576v6c0,3.589,2.522,6.585,5.889,7.322
	c-11.683,18.092-18,39.294-18,61.067v21.101h-10.55c-6.516,0-12.625,1.758-17.895,4.811c-3.237-4.994-4.979-10.815-4.979-16.906
	c0-0.555,0.016-1.105,0.045-1.653c0.162-3.042-1.532-5.879-4.286-7.18c-14.068-6.645-23.159-20.983-23.159-36.526
	c0-8.843,2.805-17.237,8.109-24.276c2.493-3.308,1.833-8.01-1.476-10.503c-3.308-2.492-8.011-1.831-10.503,1.476
	c-7.282,9.661-11.131,21.178-11.131,33.304c0,19.692,10.636,37.972,27.465,47.826c0.469,8.958,3.494,17.436,8.707,24.607
	c-4.215,5.872-6.707,13.059-6.707,20.821c0,19.746,16.064,35.811,35.81,35.811h25.235c9.97,18.204,24.417,33.391,41.868,44.219
	c-6.691,6.013-10.554,13.895-10.554,22.333c0,0.723,0.029,1.446,0.087,2.17c-0.733,0.727-1.424,1.487-2.089,2.265
	c-0.007,0.002-0.015,0.003-0.022,0.005c-6.778,1.93-13.302,4.732-19.385,8.326c-8.3,4.898-15.634,11.158-21.8,18.611
	c-12.232,14.796-18.97,33.54-18.97,52.779v65.69c0,4.143,3.357,7.5,7.5,7.5h256.58c4.143,0,7.5-3.357,7.5-7.5v-65.69
	c0-23.916-10.333-46.666-28.35-62.417c-3.12-2.727-7.858-2.407-10.583,0.71c-2.727,3.119-2.408,7.857,0.71,10.583
	c14.759,12.902,23.224,31.536,23.224,51.124V497H263.501v-53.567c14.905-2.113,28.234-10.436,36.66-23.012
	c1.011,0.083,2.022,0.125,3.032,0.125c20.568,0,37.303-16.734,37.303-37.304c0-10.047-3.949-19.45-10.971-26.419
	c0.058-0.723,0.087-1.447,0.087-2.17c0-8.439-3.863-16.321-10.555-22.334c17.454-10.83,31.901-26.017,41.868-44.219h25.236
	c19.745,0,35.81-16.064,35.81-35.811c0-7.762-2.492-14.95-6.707-20.821c5.214-7.171,8.239-15.65,8.707-24.607
	c16.829-9.854,27.465-28.134,27.465-47.826C451.436,128.501,426.594,103.659,396.059,103.659z M163.549,119.5
	c0.776-12.106,10.872-21.72,23.172-21.72h5.141h128.279h5.141c12.3,0,22.396,9.613,23.172,21.72h-5.642H169.19H163.549z
	 M215.944,31.594C226.645,20.893,240.87,15,256.001,15c25.988,0,47.928,17.599,54.568,41.5h-67.238c-4.143,0-7.5,3.357-7.5,7.5
	s3.357,7.5,7.5,7.5h69.306c0,0.047,0.003,0.093,0.003,0.14v11.14H199.361V71.64c0-0.047,0.003-0.093,0.003-0.14h13.966
	c4.143,0,7.5-3.357,7.5-7.5s-3.357-7.5-7.5-7.5h-11.916C203.986,47.176,208.921,38.623,215.944,31.594z M125.841,273.101
	c-11.475,0-20.81-9.336-20.81-20.811c0-5.428,2.108-10.361,5.527-14.069c0.549-0.319,1.07-0.705,1.54-1.176
	c0.338-0.338,0.633-0.703,0.893-1.084c3.542-2.791,7.999-4.471,12.849-4.471h10.553c0.006,0.858,0.021,1.715,0.045,2.57
	c0.002,0.063,0.003,0.126,0.005,0.189c0.029,1.028,0.075,2.052,0.13,3.074c0.018,0.333,0.04,0.665,0.061,0.997
	c0.046,0.737,0.098,1.472,0.157,2.206c0.028,0.351,0.057,0.702,0.088,1.053c0.072,0.813,0.154,1.623,0.243,2.432
	c0.025,0.232,0.047,0.465,0.074,0.696c0.119,1.025,0.251,2.046,0.396,3.065c0.04,0.278,0.085,0.555,0.126,0.833
	c0.114,0.761,0.234,1.52,0.362,2.277c0.058,0.344,0.118,0.687,0.18,1.03c0.132,0.74,0.272,1.478,0.418,2.215
	c0.058,0.293,0.114,0.587,0.174,0.88c0.208,1.007,0.426,2.011,0.66,3.012c0.039,0.167,0.082,0.332,0.122,0.498
	c0.201,0.844,0.411,1.685,0.631,2.524c0.085,0.324,0.173,0.647,0.261,0.97c0.192,0.709,0.391,1.416,0.597,2.122
	c0.092,0.316,0.183,0.632,0.278,0.948c0.265,0.88,0.539,1.758,0.824,2.632c0.036,0.112,0.07,0.225,0.107,0.336
	c0.324,0.981,0.663,1.958,1.013,2.932c0.102,0.284,0.209,0.566,0.313,0.849c0.156,0.424,0.307,0.849,0.468,1.271L125.841,273.101
	L125.841,273.101z M225.271,346.302c0.288,0.077,0.577,0.149,0.866,0.224c1.09,0.281,2.182,0.547,3.279,0.796
	c0.198,0.045,0.395,0.094,0.592,0.138c1.244,0.276,2.493,0.528,3.745,0.764c0.299,0.056,0.598,0.109,0.896,0.163
	c1.147,0.207,2.296,0.399,3.45,0.572c0.15,0.023,0.3,0.049,0.45,0.071c1.27,0.185,2.544,0.345,3.822,0.49
	c0.309,0.035,0.618,0.067,0.927,0.1c1.217,0.128,2.438,0.242,3.662,0.333c0.086,0.007,0.172,0.015,0.259,0.022
	c1.294,0.093,2.592,0.16,3.893,0.212c0.316,0.013,0.632,0.023,0.949,0.034c1.31,0.042,2.622,0.071,3.939,0.071
	c1.316,0,2.629-0.029,3.939-0.071c0.316-0.01,0.632-0.021,0.948-0.034c1.301-0.052,2.6-0.118,3.895-0.212
	c0.085-0.006,0.17-0.015,0.255-0.022c1.226-0.091,2.448-0.205,3.667-0.334c0.307-0.033,0.615-0.065,0.922-0.099
	c1.28-0.145,2.557-0.305,3.828-0.491c0.145-0.021,0.289-0.046,0.434-0.068c1.16-0.174,2.316-0.367,3.468-0.575
	c0.295-0.053,0.59-0.105,0.885-0.161c1.256-0.236,2.509-0.489,3.756-0.766c0.192-0.043,0.383-0.09,0.575-0.134
	c1.104-0.251,2.204-0.519,3.3-0.801c0.285-0.073,0.57-0.145,0.854-0.221c1.226-0.326,2.448-0.669,3.664-1.034
	c0.07-0.021,0.14-0.038,0.21-0.059v19.761c0,16.327-13.283,29.61-29.61,29.61h-9.98c-16.327,0-29.609-13.283-29.609-29.61V345.21
	c0.07,0.021,0.141,0.039,0.211,0.06C222.826,345.633,224.047,345.976,225.271,346.302z M135.211,497v-58.19
	c0-15.758,5.516-31.107,15.529-43.22c5.054-6.108,11.063-11.24,17.866-15.254c1.05-0.62,2.119-1.205,3.199-1.767
	c-0.191,1.538-0.299,3.096-0.299,4.672c0,20.569,16.734,37.304,37.303,37.304c1.01,0,2.021-0.042,3.032-0.125
	c8.426,12.576,21.755,20.898,36.66,23.012V497H135.211z M325.496,383.242c0,12.298-10.005,22.304-22.303,22.304
	c-1.713,0-3.443-0.203-5.145-0.603c-3.315-0.787-6.739,0.768-8.34,3.775c-6.654,12.498-19.57,20.263-33.708,20.263
	s-27.054-7.765-33.708-20.263c-1.601-3.007-5.029-4.561-8.34-3.775c-1.701,0.4-3.432,0.603-5.145,0.603
	c-12.298,0-22.303-10.006-22.303-22.304c0-6.931,3.147-13.352,8.636-17.616c2.363-1.837,3.408-4.903,2.658-7.801
	c-0.272-1.052-0.41-2.119-0.41-3.172c0-5.245,3.362-10.257,9.012-13.75v24.066c0,24.599,20.012,44.61,44.609,44.61h9.98
	c24.599,0,44.61-20.012,44.61-44.61v-24.064c5.649,3.492,9.011,8.503,9.011,13.748c0,1.056-0.138,2.121-0.409,3.168
	c-0.752,2.898,0.293,5.967,2.657,7.805C322.349,369.891,325.496,376.311,325.496,383.242z M295.279,327.661
	c-12.465,5.063-25.68,7.629-39.278,7.629c-2.55,0-5.086-0.09-7.606-0.27c-8.401-0.6-16.625-2.198-24.586-4.776
	c-0.263-0.085-0.524-0.178-0.787-0.266c-0.531-0.176-1.062-0.351-1.591-0.536c-1.58-0.554-3.15-1.148-4.708-1.781
	c-0.002-0.001-0.004-0.001-0.006-0.002c-23.673-9.59-42.994-27.49-54.406-50.407c-7.247-14.523-10.921-30.192-10.921-46.572v-6.689
	V195.39c0-22.17,7.55-43.659,21.324-60.89h166.572c13.774,17.23,21.324,38.72,21.324,60.89v28.601v6.689
	c0,1.024-0.015,2.045-0.043,3.063c-0.091,3.231-0.333,6.432-0.712,9.602c-1.412,11.811-4.812,23.174-10.17,33.913
	C338.278,300.169,318.958,318.068,295.279,327.661z M386.161,273.101h-18.286c0.166-0.435,0.322-0.872,0.482-1.308
	c0.097-0.265,0.197-0.529,0.293-0.795c0.354-0.985,0.697-1.973,1.025-2.965c0.025-0.075,0.047-0.151,0.072-0.226
	c0.299-0.912,0.584-1.828,0.86-2.746c0.09-0.299,0.176-0.599,0.263-0.898c0.211-0.723,0.415-1.448,0.612-2.175
	c0.084-0.311,0.169-0.621,0.251-0.932c0.225-0.858,0.44-1.718,0.646-2.581c0.036-0.15,0.074-0.299,0.11-0.448
	c0.235-1.005,0.455-2.013,0.663-3.025c0.059-0.288,0.114-0.576,0.171-0.865c0.147-0.741,0.288-1.484,0.421-2.23
	c0.061-0.341,0.121-0.682,0.178-1.024c0.129-0.76,0.249-1.522,0.363-2.285c0.041-0.275,0.086-0.549,0.125-0.825
	c0.145-1.02,0.278-2.042,0.396-3.068c0.027-0.231,0.048-0.464,0.074-0.696c0.089-0.809,0.171-1.62,0.243-2.432
	c0.031-0.352,0.06-0.704,0.088-1.057c0.059-0.73,0.11-1.462,0.156-2.196c0.021-0.335,0.043-0.67,0.062-1.006
	c0.055-1.022,0.101-2.046,0.13-3.073c0.002-0.062,0.003-0.124,0.004-0.186c0.023-0.855,0.039-1.712,0.045-2.57h10.553
	c4.85,0,9.307,1.681,12.849,4.471c0.26,0.381,0.555,0.746,0.893,1.084c0.47,0.47,0.991,0.856,1.541,1.176
	c3.419,3.708,5.527,8.641,5.527,14.069C406.971,263.765,397.636,273.101,386.161,273.101z M413.276,195.561
	c-2.754,1.301-4.448,4.138-4.286,7.18c0.029,0.548,0.045,1.099,0.045,1.653c0,6.092-1.743,11.913-4.98,16.906
	c-5.269-3.053-11.379-4.811-17.895-4.811h-10.55V195.39c0-21.773-6.317-42.975-18-61.067c3.367-0.738,5.889-3.733,5.889-7.322v-6
	c0-2.949-0.347-5.817-0.982-8.576c2.255,1.917,4.149,4.3,5.528,7.073c0.886,1.781,2.443,3.137,4.329,3.77
	c1.886,0.633,3.945,0.49,5.727-0.396c5.617-2.795,11.658-4.212,17.956-4.212c22.264,0,40.377,18.112,40.377,40.376
	C436.436,174.578,427.345,188.916,413.276,195.561z"/>
<path d="M287.937,295.719c-3.404-2.359-8.077-1.51-10.435,1.896c-4.891,7.062-12.929,11.278-21.501,11.278
	s-16.61-4.217-21.501-11.278c-2.357-3.406-7.032-4.253-10.435-1.896c-3.405,2.358-4.255,7.03-1.896,10.435
	c7.692,11.107,20.34,17.739,33.833,17.739s26.141-6.632,33.833-17.739C292.192,302.749,291.343,298.077,287.937,295.719z"/>
<path d="M310.324,225.962c-4.143,0-7.5,3.357-7.5,7.5v2c0,4.143,3.357,7.5,7.5,7.5s7.5-3.357,7.5-7.5v-2
	C317.824,229.319,314.467,225.962,310.324,225.962z"/>
<path d="M201.678,225.962c-4.143,0-7.5,3.357-7.5,7.5v2c0,4.143,3.357,7.5,7.5,7.5s7.5-3.357,7.5-7.5v-2
	C209.178,229.319,205.82,225.962,201.678,225.962z"/>
<path d="M256.001,293c16.083,0,29.167-13.084,29.167-29.167c0-16.082-13.084-29.166-29.167-29.166s-29.167,13.084-29.167,29.166
	C226.834,279.916,239.918,293,256.001,293z M256.001,249.667c7.811,0,14.167,6.355,14.167,14.166S263.812,278,256.001,278
	s-14.167-6.355-14.167-14.167S248.19,249.667,256.001,249.667z"/>
<g>
</g>
<g>
</g>
<g>
</g>
<g>
</g>
<g>
</g>
<g>
</g>
<g>
</g>
<g>
</g>
<g>
</g>
<g>
</g>
<g>
</g>
<g>
</g>
<g>
</g>
<g>
</g>
<g>
</g>
</svg>
