<?xml version="1.0" encoding="iso-8859-1"?>
<!-- Generator: Adobe Illustrator 19.0.0, SVG Export Plug-In . SVG Version: 6.00 Build 0)  -->
<svg version="1.1" id="Capa_1" xmlns="http://www.w3.org/2000/svg" xmlns:xlink="http://www.w3.org/1999/xlink" x="0px" y="0px"
	 viewBox="0 0 512 512" style="enable-background:new 0 0 512 512;" xml:space="preserve">
<g>
	<path style="fill:#FA9E3E;" d="M125.838,223.99h49.369v56.61h-49.369c-15.632,0-28.305-12.673-28.305-28.305
		S110.206,223.99,125.838,223.99z"/>
	<path style="fill:#FA9E3E;" d="M386.16,223.99h-49.369v56.61h49.369c15.632,0,28.305-12.673,28.305-28.305
		S401.792,223.99,386.16,223.99z"/>
</g>
<path style="fill:#F0EEEE;" d="M203.072,363.444h105.855c41.621,0,75.362,33.741,75.362,75.362V504.5H127.71v-65.694
	C127.71,397.184,161.451,363.444,203.072,363.444z"/>
<path style="fill:#D9D4D4;" d="M308.926,363.444h-22.632c41.621,0,75.362,33.741,75.362,75.362V504.5h22.632v-65.695
	C384.288,397.184,350.548,363.444,308.926,363.444z"/>
<path style="fill:#B19D7D;" d="M367.436,504.5c-14.444-38.498-5.322-75.809,6.453-103.883
	c-11.575-19.647-31.798-33.57-55.441-36.553c1.313,39.872-15.512,99.811-62.449,140.367
	c-46.936-40.556-63.762-100.495-62.449-140.367c-23.643,2.983-43.867,16.907-55.441,36.553
	c11.775,28.074,20.897,65.385,6.453,103.883H367.436z"/>
<g>
	<polygon style="fill:#D9D4D4;" points="255.999,433.5 289.299,413.667 341.299,458.333 328.632,356 279.437,353.141 	"/>
	<polygon style="fill:#D9D4D4;" points="255.999,433.5 222.699,413.667 170.699,458.333 183.366,356 232.561,353.141 	"/>
</g>
<polygon style="fill:#FA9E3E;" points="298.099,267.73 298.099,363.08 255.999,433.5 213.899,363.08 213.899,267.73 "/>
<path style="fill:#FA8500;" d="M116.999,176.5v29.355c0,34.173,27.702,61.875,61.875,61.875h154.25
	c34.173,0,61.875-27.702,61.875-61.875V176.5H116.999z"/>
<path style="fill:#FFB56B;" d="M255.999,342.79L255.999,342.79c-61.919,0-112.115-50.195-112.115-112.115V117.281h224.229v113.394
	C368.114,292.595,317.918,342.79,255.999,342.79z"/>
<path style="fill:#EF9245;" d="M344.78,117.281v125.062c0,53.578-41.949,97.354-94.794,100.286c1.992,0.105,3.996,0.161,6.014,0.161
	l0,0c61.919,0,112.115-50.195,112.115-112.115V117.281H344.78z"/>
<path style="fill:#ECE6B6;" d="M383.873,145.096H128.125v-10.395c0-65.207,52.86-118.067,118.067-118.067h19.614
	c65.207,0,118.067,52.86,118.067,118.067L383.873,145.096L383.873,145.096z"/>
<g>
	<path style="fill:#E7CF90;" d="M265.806,16.634h-19.614c-0.733,0-1.463,0.014-2.193,0.028
		c64.193,1.17,115.874,53.566,115.874,118.039v10.395h24v-10.395C383.873,69.494,331.012,16.634,265.806,16.634z"/>
	<path style="fill:#E7CF90;" d="M383.873,145.096H128.125l-51.162,35.039c-5.61,3.842-2.891,12.625,3.909,12.625h350.254
		c6.8,0,9.519-8.783,3.909-12.625L383.873,145.096z"/>
</g>
<path style="fill:#C6AB6F;" d="M435.035,180.135l-51.162-35.039h-40.25l51.162,35.039c5.61,3.842,2.891,12.625-3.909,12.625h40.25
	C437.926,192.759,440.645,183.977,435.035,180.135z"/>
<path d="M310.323,232.962c4.142,0,7.5-3.357,7.5-7.5v-2c0-4.143-3.358-7.5-7.5-7.5s-7.5,3.357-7.5,7.5v2
	C302.823,229.605,306.181,232.962,310.323,232.962z"/>
<path d="M201.675,232.962c4.142,0,7.5-3.357,7.5-7.5v-2c0-4.143-3.358-7.5-7.5-7.5s-7.5,3.357-7.5,7.5v2
	C194.175,229.605,197.533,232.962,201.675,232.962z"/>
<path d="M439.276,173.941l-47.903-32.794v-6.446c0-69.238-56.329-125.567-125.566-125.567h-2.308V7.5c0-4.143-3.358-7.5-7.5-7.5
	s-7.5,3.357-7.5,7.5v1.634h-2.307c-41.057,0-79.598,20.139-103.098,53.87c-2.368,3.398-1.532,8.073,1.867,10.441
	c3.399,2.366,8.074,1.533,10.441-1.867c20.696-29.708,54.637-47.444,90.79-47.444h19.614c60.966,0,110.566,49.601,110.566,110.567
	v2.895h-48.623c-0.026,0-0.051,0.004-0.077,0.004h-9.612c-4.142,0-7.5,3.357-7.5,7.5s3.358,7.5,7.5,7.5h63.489l47.707,32.66h-34.257
	h-26.89h-224.22h-26.89H82.743l47.708-32.66h157.618c4.142,0,7.5-3.357,7.5-7.5s-3.358-7.5-7.5-7.5h-6.992
	c-0.026,0-0.051-0.004-0.077-0.004H135.626v-2.895c0-13.168,2.289-26.047,6.804-38.28c1.434-3.886-0.554-8.198-4.439-9.633
	c-3.886-1.436-8.199,0.555-9.633,4.439c-5.13,13.901-7.731,28.527-7.731,43.474v6.446l-47.911,32.799
	c-5.243,3.599-7.5,10.096-5.617,16.168c1.883,6.068,7.417,10.145,13.771,10.145h28.63v5.601c0,4.688,0.478,9.337,1.407,13.896
	c-12.446,5.74-20.878,18.402-20.878,32.533c0,19.745,16.064,35.81,35.81,35.81h25.225c12.432,22.701,31.823,40.728,55.335,51.439
	v7.605l-23.466,1.368c-3.615,0.211-6.563,2.974-7.007,6.567l-0.704,5.682c-2.07,0.74-4.099,1.558-6.084,2.453
	c-0.193,0.086-0.384,0.175-0.576,0.262c-0.811,0.373-1.615,0.759-2.411,1.157c-0.47,0.233-0.939,0.469-1.404,0.711
	c-0.4,0.21-0.796,0.427-1.192,0.643c-13.131,7.108-24.164,17.672-31.91,30.827c-0.187,0.318-0.34,0.649-0.477,0.986
	c-7.001,12.237-10.959,26.302-10.959,41.005V504.5c0,4.143,3.358,7.5,7.5,7.5h16.849h222.88h16.849c4.142,0,7.5-3.357,7.5-7.5
	v-65.694c0-21.895-8.41-42.391-23.686-57.966c-0.216-0.22-0.428-0.443-0.646-0.66c-0.252-0.251-0.489-0.512-0.744-0.761
	c-0.172-0.168-0.351-0.323-0.534-0.47c-1.19-1.138-2.402-2.254-3.663-3.325c-3.156-2.683-7.89-2.296-10.571,0.862
	c-2.681,3.157-2.295,7.891,0.862,10.571c1.78,1.512,3.472,3.108,5.078,4.78c0.063,0.065,0.128,0.129,0.191,0.195
	c0.496,0.52,0.981,1.05,1.46,1.585c0.099,0.11,0.196,0.222,0.294,0.332c2.055,2.33,3.95,4.793,5.667,7.384
	c-13.712,34.362-16.52,66.471-8.385,95.667h-82.626c14.803-15.865,26.953-34.658,35.803-55.419l26.126,22.438
	c1.391,1.195,3.132,1.811,4.888,1.811c1.21,0,2.428-0.293,3.542-0.89c2.73-1.465,4.28-4.457,3.9-7.532l-12.67-102.33
	c-0.445-3.593-3.392-6.354-7.007-6.565l-23.466-1.368v-7.606c23.517-10.714,42.907-28.743,55.335-51.439h25.225
	c19.746,0,35.81-16.064,35.81-35.81c0-14.131-8.431-26.793-20.877-32.533c0.929-4.56,1.407-9.209,1.407-13.896v-5.601h28.63
	c6.354,0,11.889-4.077,13.772-10.145C446.783,184.042,444.526,177.545,439.276,173.941z M374.409,420.925
	c1.559,5.752,2.38,11.747,2.38,17.881V497h-4.018C365.204,473.61,365.73,448.546,374.409,420.925z M136.389,200.26v30.42
	c0,1.128,0.022,2.285,0.055,3.465c0.008,0.266,0.016,0.531,0.025,0.797c0.013,0.377,0.02,0.74,0.036,1.127
	c0.001,0.037,0.003,0.074,0.005,0.111l0.024,0.467c0.02,0.38,0.039,0.759,0.066,1.141c0.005,0.116,0.014,0.236,0.021,0.354
	c0.009,0.15,0.018,0.3,0.028,0.451c0.031,0.564,0.074,1.121,0.119,1.673c-0.062-0.075-0.127-0.149-0.188-0.225
	c-0.291-0.359-0.571-0.726-0.852-1.092c-0.229-0.298-0.462-0.594-0.684-0.897c-0.276-0.375-0.54-0.758-0.806-1.139
	c-0.214-0.307-0.431-0.61-0.638-0.921c-0.261-0.392-0.51-0.792-0.76-1.19c-0.196-0.311-0.397-0.619-0.586-0.935
	c-0.247-0.411-0.481-0.831-0.717-1.248c-0.177-0.314-0.36-0.623-0.532-0.941c-0.236-0.437-0.457-0.883-0.68-1.327
	c-0.155-0.307-0.317-0.61-0.466-0.92c-0.229-0.477-0.442-0.962-0.657-1.447c-0.128-0.287-0.264-0.57-0.386-0.859
	c-0.236-0.556-0.453-1.121-0.671-1.686c-0.087-0.225-0.182-0.446-0.266-0.673c-0.295-0.797-0.573-1.602-0.831-2.416
	c-1.691-5.325-2.548-10.873-2.548-16.49v-5.601h11.889V200.26z M125.839,273.1c-11.475,0-20.81-9.335-20.81-20.81
	c0-7.586,4.178-14.444,10.513-18.072c0.156,0.348,0.324,0.69,0.486,1.035c0.125,0.268,0.248,0.537,0.377,0.803
	c0.382,0.79,0.777,1.573,1.188,2.347c0.041,0.077,0.078,0.155,0.119,0.232c0.455,0.849,0.93,1.685,1.42,2.513
	c0.14,0.238,0.287,0.471,0.43,0.707c0.36,0.593,0.728,1.182,1.106,1.763c0.176,0.271,0.353,0.54,0.532,0.808
	c0.385,0.575,0.78,1.143,1.181,1.706c0.162,0.227,0.32,0.456,0.484,0.681c0.563,0.769,1.139,1.529,1.734,2.274
	c0.082,0.103,0.169,0.202,0.252,0.305c0.519,0.643,1.049,1.276,1.59,1.9c0.206,0.237,0.416,0.47,0.625,0.704
	c0.441,0.495,0.889,0.983,1.345,1.465c0.226,0.239,0.451,0.477,0.68,0.713c0.507,0.521,1.023,1.033,1.547,1.539
	c0.171,0.165,0.337,0.334,0.509,0.497c0.691,0.654,1.397,1.295,2.117,1.922c0.185,0.161,0.376,0.316,0.563,0.475
	c0.549,0.468,1.104,0.93,1.668,1.382c0.262,0.21,0.527,0.416,0.792,0.622c0.522,0.406,1.051,0.804,1.586,1.195
	c0.262,0.192,0.522,0.385,0.787,0.574c0.675,0.48,1.36,0.949,2.054,1.406c0.118,0.078,0.233,0.16,0.352,0.238
	c0.013,0.009,0.026,0.018,0.039,0.026c0,0.001,0.001,0.002,0.001,0.004c0.396,1.362,0.824,2.715,1.268,4.062
	c0.101,0.305,0.201,0.61,0.304,0.914c0.449,1.326,0.915,2.645,1.41,3.953c0.015,0.039,0.027,0.078,0.042,0.117H125.839z
	 M225.268,346.301c0.289,0.077,0.579,0.15,0.868,0.224c1.089,0.281,2.182,0.547,3.278,0.796c0.198,0.045,0.395,0.094,0.593,0.138
	c1.244,0.276,2.493,0.528,3.745,0.764c0.299,0.056,0.598,0.109,0.897,0.163c1.147,0.207,2.296,0.399,3.45,0.572
	c0.15,0.023,0.3,0.049,0.45,0.071c1.27,0.185,2.544,0.345,3.822,0.49c0.309,0.035,0.618,0.067,0.927,0.1
	c1.217,0.128,2.438,0.242,3.662,0.333c0.086,0.007,0.172,0.015,0.259,0.022c1.294,0.093,2.592,0.16,3.893,0.212
	c0.316,0.013,0.632,0.024,0.949,0.034c1.31,0.042,2.622,0.071,3.938,0.071c1.316,0,2.628-0.029,3.938-0.071
	c0.316-0.01,0.633-0.021,0.949-0.034c1.301-0.052,2.599-0.118,3.893-0.212c0.086-0.006,0.172-0.015,0.259-0.022
	c1.224-0.091,2.445-0.205,3.662-0.333c0.309-0.033,0.617-0.065,0.925-0.1c1.279-0.145,2.555-0.305,3.826-0.49
	c0.147-0.021,0.293-0.047,0.44-0.069c1.158-0.174,2.311-0.367,3.462-0.574c0.296-0.053,0.593-0.106,0.888-0.162
	c1.255-0.236,2.507-0.489,3.753-0.766c0.193-0.043,0.384-0.09,0.577-0.134c1.103-0.251,2.202-0.518,3.298-0.801
	c0.285-0.073,0.571-0.145,0.855-0.221c1.226-0.326,2.447-0.669,3.663-1.034c0.07-0.021,0.141-0.038,0.211-0.059v9.011v6.789
	l-34.599,57.875l-34.6-57.875v-6.789v-9.011c0.07,0.021,0.141,0.039,0.211,0.06C222.824,345.633,224.044,345.976,225.268,346.301z
	 M206.399,362.17v0.91c0,1.355,0.367,2.685,1.063,3.849l26.865,44.936l-7.79-4.639c-2.769-1.648-6.28-1.344-8.723,0.754
	l-37.287,32.023l8.991-72.608c0.005-0.041,0.011-0.082,0.015-0.124l0.514-4.147L206.399,362.17z M135.21,438.806
	c0-6.104,0.844-12.07,2.411-17.78c8.648,27.582,9.164,52.613,1.608,75.974h-4.018L135.21,438.806L135.21,438.806z M154.889,497
	c8.129-29.173,5.331-61.254-8.353-95.585c5.675-8.573,13.249-15.857,22.22-21.149c0.169-0.099,0.339-0.197,0.509-0.294
	c0.539-0.312,1.085-0.615,1.634-0.913c0.514-0.276,1.032-0.546,1.555-0.809c0.215-0.109,0.429-0.22,0.645-0.326l-9.841,79.485
	c-0.38,3.075,1.169,6.067,3.899,7.531c1.114,0.598,2.332,0.891,3.542,0.891c1.756,0,3.497-0.616,4.888-1.811l26.126-22.438
	c8.85,20.761,21,39.553,35.803,55.419h-82.627V497z M255.999,494.336c-18.148-17.051-32.652-38.65-42.316-63.036l9.811-8.427
	l28.667,17.071c0.02,0.012,0.042,0.018,0.062,0.03c0.11,0.064,0.225,0.118,0.338,0.177c0.114,0.059,0.229,0.115,0.346,0.168
	c0.111,0.05,0.219,0.105,0.332,0.15c0.092,0.037,0.187,0.061,0.28,0.094c0.045,0.016,0.09,0.03,0.135,0.045
	c0.102,0.034,0.202,0.073,0.306,0.103c0.119,0.034,0.24,0.059,0.361,0.087c0.128,0.03,0.256,0.054,0.386,0.076
	c0.114,0.02,0.225,0.049,0.341,0.064c0.05,0.006,0.1,0.004,0.15,0.01c0.089,0.009,0.179,0.011,0.268,0.018
	c0.124,0.009,0.248,0.022,0.372,0.024c0.054,0.001,0.107,0.011,0.162,0.011s0.108-0.009,0.162-0.011
	c0.125-0.003,0.248-0.016,0.372-0.024c0.089-0.007,0.179-0.008,0.267-0.018c0.05-0.005,0.101-0.003,0.15-0.01
	c0.115-0.015,0.227-0.044,0.34-0.064c0.129-0.023,0.257-0.047,0.386-0.076c0.121-0.028,0.242-0.053,0.361-0.087
	c0.104-0.029,0.204-0.069,0.307-0.103c0.044-0.015,0.089-0.029,0.133-0.045c0.093-0.033,0.188-0.058,0.28-0.094
	c0.113-0.045,0.221-0.099,0.332-0.149c0.117-0.053,0.233-0.109,0.348-0.169c0.113-0.058,0.227-0.112,0.337-0.176
	c0.02-0.012,0.042-0.018,0.062-0.03l28.667-17.071l9.811,8.427C288.651,455.686,274.147,477.285,255.999,494.336z M321.954,363.123
	l9.518,76.88l-37.288-32.023c-1.394-1.196-3.135-1.81-4.887-1.81c-1.32,0-2.647,0.348-3.836,1.056l-7.79,4.639l26.865-44.936
	c0.695-1.163,1.063-2.493,1.063-3.849v-0.91L321.954,363.123z M295.277,327.661c-12.465,5.063-25.68,7.629-39.278,7.629
	c-1.7,0-3.394-0.04-5.081-0.12c-0.914-0.043-1.826-0.101-2.736-0.168c-8.328-0.611-16.482-2.201-24.377-4.758
	c-0.583-0.189-1.163-0.389-1.743-0.588c-0.211-0.072-0.423-0.14-0.634-0.214c-1.581-0.555-3.151-1.148-4.709-1.781
	c-0.002-0.001-0.004-0.001-0.006-0.002c-23.681-9.594-43.005-27.494-54.416-50.41c-0.395-0.792-0.781-1.59-1.156-2.393
	c-2.626-5.622-4.755-11.51-6.339-17.54c-0.296-1.135-0.576-2.284-0.837-3.44c-0.01-0.045-0.018-0.09-0.028-0.134
	c-0.238-1.061-0.46-2.127-0.666-3.194c-0.4-2.087-0.739-4.189-1.012-6.303l-0.021-0.156c-0.136-1.067-0.256-2.138-0.359-3.211
	c-0.009-0.092-0.016-0.187-0.025-0.279c-0.095-1.01-0.176-2.022-0.242-3.036c-0.004-0.065-0.007-0.13-0.013-0.194
	c-0.062-0.985-0.107-1.972-0.141-2.959c-0.008-0.233-0.016-0.467-0.022-0.695c-0.029-1.011-0.048-2.022-0.048-3.035v-30.42h209.22
	v30.42c0,1.013-0.019,2.025-0.048,3.035c-0.006,0.228-0.014,0.462-0.022,0.694c-0.035,0.988-0.079,1.975-0.141,2.96
	c-0.006,0.064-0.009,0.129-0.013,0.193c-0.065,1.006-0.146,2.01-0.24,3.012c-0.01,0.105-0.017,0.203-0.027,0.31
	c-0.104,1.073-0.223,2.143-0.359,3.211l-0.019,0.14c-0.273,2.116-0.612,4.219-1.013,6.309c-0.204,1.056-0.424,2.113-0.66,3.165
	c-0.013,0.056-0.023,0.113-0.036,0.169c-0.261,1.154-0.54,2.302-0.836,3.436c-0.226,0.861-0.464,1.719-0.712,2.574
	c-1.74,5.989-4.017,11.818-6.787,17.367C338.288,300.165,318.964,318.065,295.277,327.661z M386.159,273.1h-18.29
	c0.015-0.04,0.028-0.082,0.044-0.122c0.493-1.304,0.958-2.619,1.405-3.941c0.105-0.309,0.207-0.619,0.309-0.929
	c0.442-1.341,0.869-2.688,1.263-4.045c0.001-0.004,0.003-0.009,0.004-0.013c0.013-0.009,0.026-0.018,0.039-0.026
	c0.119-0.077,0.233-0.16,0.352-0.238c0.694-0.457,1.379-0.926,2.054-1.406c0.265-0.188,0.525-0.382,0.787-0.574
	c0.535-0.392,1.064-0.79,1.586-1.195c0.265-0.206,0.53-0.412,0.792-0.622c0.564-0.452,1.119-0.914,1.668-1.382
	c0.187-0.159,0.378-0.314,0.563-0.475c0.719-0.627,1.424-1.267,2.116-1.921c0.174-0.164,0.341-0.335,0.513-0.501
	c0.522-0.504,1.037-1.015,1.542-1.534c0.23-0.237,0.456-0.476,0.683-0.716c0.454-0.48,0.9-0.967,1.34-1.46
	c0.211-0.236,0.423-0.471,0.63-0.71c0.538-0.62,1.065-1.25,1.581-1.889c0.086-0.106,0.175-0.209,0.26-0.316
	c0.594-0.744,1.169-1.503,1.731-2.271c0.166-0.227,0.326-0.458,0.489-0.688c0.4-0.56,0.792-1.124,1.175-1.696
	c0.182-0.271,0.361-0.544,0.539-0.817c0.375-0.577,0.739-1.16,1.096-1.749c0.146-0.241,0.296-0.479,0.439-0.721
	c0.487-0.825,0.961-1.658,1.415-2.504c0.047-0.087,0.089-0.176,0.136-0.264c0.405-0.763,0.794-1.534,1.17-2.313
	c0.132-0.272,0.258-0.547,0.386-0.822c0.16-0.341,0.326-0.679,0.48-1.023c6.335,3.628,10.513,10.486,10.513,18.072
	C406.969,263.765,397.634,273.1,386.159,273.1z M387.499,205.86c0,5.617-0.857,11.165-2.548,16.491
	c-0.258,0.813-0.535,1.616-0.83,2.412c-0.089,0.24-0.19,0.474-0.282,0.713c-0.213,0.553-0.426,1.106-0.657,1.649
	c-0.12,0.283-0.253,0.56-0.378,0.841c-0.218,0.49-0.434,0.982-0.666,1.465c-0.146,0.303-0.304,0.599-0.455,0.899
	c-0.228,0.452-0.452,0.905-0.692,1.349c-0.169,0.313-0.35,0.619-0.525,0.928c-0.238,0.421-0.473,0.844-0.722,1.258
	c-0.19,0.316-0.391,0.625-0.588,0.937c-0.25,0.397-0.498,0.797-0.758,1.187c-0.209,0.314-0.429,0.621-0.645,0.931
	c-0.263,0.377-0.524,0.755-0.796,1.126c-0.228,0.31-0.466,0.614-0.701,0.919c-0.276,0.358-0.55,0.718-0.835,1.069
	c-0.063,0.078-0.129,0.153-0.193,0.23c0.046-0.554,0.088-1.109,0.119-1.671c0.01-0.149,0.018-0.299,0.028-0.448
	c0.007-0.118,0.015-0.231,0.021-0.357c0.026-0.374,0.046-0.744,0.065-1.116l0.025-0.486c0.002-0.039,0.004-0.079,0.006-0.118
	c0.016-0.387,0.023-0.75,0.036-1.127c0.009-0.266,0.018-0.531,0.025-0.797c0.033-1.18,0.055-2.337,0.055-3.465v-30.42h11.89
	L387.499,205.86L387.499,205.86z"/>
<path d="M165.429,122.56c0.27,0.41,0.59,0.79,0.93,1.141c0.35,0.34,0.73,0.659,1.14,0.93c0.41,0.27,0.84,0.5,1.3,0.689
	c0.45,0.191,0.92,0.33,1.4,0.431c0.49,0.09,0.98,0.14,1.47,0.14s0.98-0.05,1.46-0.14c0.48-0.101,0.95-0.24,1.41-0.431
	c0.45-0.189,0.88-0.42,1.29-0.689c0.41-0.271,0.789-0.59,1.14-0.93c0.35-0.351,0.66-0.73,0.93-1.141c0.27-0.41,0.5-0.85,0.69-1.3
	c0.19-0.45,0.33-0.92,0.43-1.4c0.1-0.489,0.15-0.979,0.15-1.47c0-0.49-0.05-0.979-0.15-1.46c-0.1-0.479-0.24-0.95-0.43-1.41
	c-0.19-0.45-0.42-0.89-0.69-1.29c-0.27-0.41-0.58-0.8-0.93-1.14c-0.35-0.35-0.73-0.66-1.14-0.93c-0.41-0.271-0.84-0.511-1.29-0.69
	c-0.46-0.189-0.93-0.34-1.41-0.43c-0.97-0.2-1.96-0.2-2.93,0c-0.48,0.09-0.95,0.24-1.4,0.43c-0.46,0.18-0.89,0.42-1.3,0.69
	c-0.41,0.27-0.79,0.58-1.14,0.93c-0.34,0.34-0.66,0.729-0.93,1.14c-0.27,0.4-0.5,0.84-0.69,1.29c-0.19,0.46-0.33,0.931-0.43,1.41
	c-0.09,0.48-0.14,0.97-0.14,1.46s0.05,0.98,0.14,1.47c0.1,0.48,0.24,0.95,0.43,1.4S165.159,122.149,165.429,122.56z"/>
<path d="M221.649,122.56c0.28,0.41,0.59,0.79,0.93,1.141c0.35,0.34,0.73,0.659,1.15,0.93c0.4,0.27,0.84,0.5,1.29,0.689
	c0.45,0.191,0.92,0.33,1.4,0.431c0.49,0.09,0.98,0.14,1.47,0.14s0.98-0.05,1.46-0.14c0.481-0.101,0.95-0.24,1.41-0.431
	c0.45-0.189,0.89-0.42,1.29-0.689c0.41-0.271,0.8-0.59,1.14-0.93c0.35-0.351,0.66-0.73,0.93-1.141c0.28-0.41,0.51-0.85,0.691-1.3
	c0.19-0.45,0.34-0.92,0.43-1.4c0.1-0.489,0.15-0.979,0.15-1.47c0-0.49-0.05-0.979-0.15-1.46c-0.09-0.479-0.24-0.95-0.43-1.41
	c-0.18-0.45-0.41-0.89-0.691-1.29c-0.27-0.41-0.58-0.8-0.93-1.14c-0.34-0.35-0.73-0.66-1.14-0.93c-0.4-0.271-0.84-0.511-1.29-0.69
	c-0.46-0.189-0.93-0.34-1.41-0.43c-0.96-0.2-1.96-0.2-2.93,0c-0.48,0.09-0.95,0.24-1.4,0.43c-0.45,0.18-0.89,0.42-1.29,0.69
	c-0.42,0.27-0.8,0.58-1.15,0.93c-0.34,0.34-0.65,0.729-0.93,1.14c-0.27,0.4-0.5,0.84-0.69,1.29c-0.18,0.46-0.33,0.931-0.42,1.41
	c-0.1,0.48-0.15,0.97-0.15,1.46s0.05,0.98,0.15,1.47c0.09,0.48,0.24,0.95,0.42,1.4C221.149,121.71,221.379,122.149,221.649,122.56z"
	/>
<path d="M277.869,122.56c0.28,0.41,0.59,0.79,0.94,1.141c0.34,0.34,0.73,0.659,1.14,0.93c0.4,0.27,0.84,0.5,1.29,0.689
	c0.46,0.191,0.93,0.33,1.41,0.431c0.48,0.09,0.97,0.14,1.46,0.14s0.98-0.05,1.47-0.14c0.48-0.101,0.95-0.24,1.4-0.431
	c0.45-0.189,0.89-0.42,1.3-0.689c0.41-0.271,0.79-0.59,1.14-0.93c0.34-0.351,0.65-0.73,0.93-1.141c0.27-0.41,0.5-0.85,0.69-1.3
	c0.19-0.45,0.33-0.92,0.43-1.4c0.09-0.489,0.14-0.979,0.14-1.47c0-0.49-0.05-0.979-0.14-1.46c-0.1-0.479-0.24-0.95-0.43-1.41
	c-0.19-0.45-0.42-0.89-0.69-1.29c-0.28-0.41-0.59-0.8-0.93-1.14c-0.35-0.35-0.73-0.66-1.14-0.93c-0.41-0.271-0.85-0.511-1.3-0.69
	c-0.45-0.189-0.92-0.34-1.4-0.43c-0.97-0.2-1.97-0.2-2.93,0c-0.48,0.09-0.95,0.24-1.41,0.43c-0.45,0.18-0.89,0.42-1.29,0.69
	c-0.41,0.27-0.8,0.58-1.14,0.93c-0.35,0.34-0.66,0.729-0.94,1.14c-0.27,0.4-0.5,0.84-0.68,1.29c-0.19,0.46-0.34,0.931-0.43,1.41
	c-0.1,0.48-0.15,0.97-0.15,1.46s0.05,0.98,0.15,1.47c0.09,0.48,0.24,0.95,0.43,1.4C277.369,121.71,277.599,122.149,277.869,122.56z"
	/>
<path d="M334.099,122.56c0.27,0.41,0.58,0.79,0.93,1.141c0.35,0.34,0.73,0.659,1.14,0.93c0.41,0.27,0.84,0.5,1.29,0.689
	c0.46,0.191,0.93,0.33,1.41,0.431c0.48,0.09,0.97,0.14,1.46,0.14s0.99-0.05,1.47-0.14c0.48-0.101,0.95-0.24,1.4-0.431
	c0.45-0.189,0.89-0.42,1.3-0.689c0.41-0.271,0.79-0.59,1.14-0.93c0.34-0.351,0.66-0.73,0.93-1.141c0.27-0.41,0.5-0.85,0.69-1.3
	c0.19-0.45,0.33-0.92,0.43-1.4c0.1-0.489,0.14-0.979,0.14-1.47c0-0.49-0.04-0.979-0.14-1.46c-0.1-0.479-0.24-0.95-0.43-1.41
	c-0.19-0.45-0.42-0.89-0.69-1.29c-0.27-0.41-0.59-0.8-0.93-1.14c-0.35-0.35-0.73-0.66-1.14-0.93c-0.41-0.271-0.85-0.511-1.3-0.69
	c-0.45-0.189-0.92-0.34-1.4-0.43c-0.97-0.2-1.97-0.2-2.93,0c-0.48,0.09-0.95,0.24-1.41,0.43c-0.45,0.18-0.88,0.42-1.29,0.69
	c-0.41,0.27-0.79,0.58-1.14,0.93c-0.35,0.34-0.66,0.729-0.93,1.14c-0.27,0.4-0.5,0.84-0.69,1.29c-0.19,0.46-0.33,0.931-0.43,1.41
	c-0.1,0.48-0.15,0.97-0.15,1.46s0.05,0.98,0.15,1.47c0.1,0.48,0.24,0.95,0.43,1.4S333.829,122.149,334.099,122.56z"/>
<path d="M262.929,455.63c-0.19-0.45-0.42-0.89-0.69-1.29c-0.28-0.41-0.59-0.8-0.94-1.14c-1.74-1.75-4.33-2.551-6.77-2.051
	c-0.47,0.091-0.95,0.24-1.4,0.42c-0.45,0.19-0.89,0.421-1.29,0.69c-0.41,0.28-0.8,0.59-1.14,0.94c-0.35,0.34-0.66,0.729-0.94,1.14
	c-0.27,0.4-0.5,0.84-0.68,1.29c-0.191,0.45-0.34,0.93-0.43,1.4c-0.1,0.489-0.15,0.979-0.15,1.47s0.05,0.979,0.15,1.47
	c0.09,0.47,0.24,0.95,0.43,1.4c0.18,0.449,0.41,0.89,0.68,1.29c0.28,0.409,0.59,0.8,0.94,1.14c0.34,0.35,0.73,0.66,1.14,0.93
	c0.4,0.28,0.84,0.511,1.29,0.7c0.45,0.18,0.93,0.33,1.4,0.42c0.49,0.101,0.98,0.15,1.47,0.15c1.97,0,3.91-0.8,5.3-2.2
	c0.35-0.34,0.66-0.73,0.94-1.14c0.27-0.4,0.5-0.841,0.69-1.29c0.18-0.45,0.33-0.931,0.42-1.4c0.1-0.49,0.15-0.979,0.15-1.47
	s-0.05-0.98-0.15-1.47C263.259,456.56,263.109,456.08,262.929,455.63z"/>
<path d="M322.348,270.391c-2.475,0.837-4.226,2.841-4.849,5.19c-5.13-1.863-10.054-6.556-15.059-11.616l-1.238-1.255
	c-4.682-4.754-9.522-9.67-15.508-13.295c-9.527-5.768-21.104-1.117-29.694,7.298c-8.59-8.414-20.166-13.064-29.695-7.298
	c-5.985,3.625-10.826,8.541-15.508,13.295l-1.237,1.255c-5.005,5.061-9.928,9.751-15.059,11.616
	c-0.622-2.351-2.374-4.354-4.85-5.191c-3.924-1.326-8.181,0.778-9.507,4.702c-1.496,4.424-0.649,8.721,2.324,11.789
	c2.905,2.998,7.061,3.993,10.659,3.993c1.88,0,3.608-0.271,4.927-0.672c8.772-2.661,15.763-9.21,22.171-15.69l1.259-1.277
	c4.221-4.286,8.207-8.334,12.589-10.987c2.846-1.727,10.633,2.696,15.663,10.31c0.277,0.421,0.597,0.817,0.962,1.181
	c0.36,0.36,0.751,0.676,1.166,0.95c0.001,0.001,0.001,0.001,0.001,0.001c0.013,0.008,0.025,0.014,0.037,0.022
	c0.194,0.127,0.393,0.245,0.597,0.352c0.104,0.055,0.211,0.1,0.317,0.15c0.112,0.052,0.222,0.108,0.336,0.155
	c0.151,0.062,0.304,0.113,0.458,0.165c0.073,0.025,0.145,0.053,0.218,0.075c0.167,0.051,0.335,0.09,0.504,0.129
	c0.066,0.015,0.131,0.034,0.198,0.047c0.163,0.033,0.326,0.055,0.49,0.076c0.078,0.01,0.155,0.024,0.234,0.032
	c0.145,0.014,0.29,0.02,0.435,0.026c0.101,0.004,0.201,0.011,0.303,0.011c0.121,0,0.241-0.008,0.362-0.013
	c0.125-0.006,0.25-0.01,0.375-0.022c0.099-0.01,0.197-0.026,0.296-0.04c0.143-0.02,0.286-0.039,0.429-0.067
	c0.088-0.017,0.174-0.041,0.261-0.062c0.148-0.035,0.296-0.069,0.443-0.113c0.097-0.029,0.191-0.066,0.287-0.099
	c0.131-0.045,0.262-0.088,0.391-0.141c0.14-0.057,0.276-0.125,0.412-0.19c0.081-0.039,0.163-0.073,0.243-0.115
	c0.657-0.345,1.27-0.79,1.81-1.331c0.364-0.363,0.684-0.759,0.96-1.179c5.03-7.613,12.813-12.037,15.662-10.31
	c4.382,2.653,8.369,6.701,12.59,10.987l1.26,1.277c6.408,6.48,13.399,13.029,22.17,15.69c1.318,0.4,3.047,0.672,4.928,0.672
	c3.598,0,7.753-0.995,10.658-3.993c2.973-3.068,3.82-7.365,2.324-11.789C330.528,271.168,326.272,269.065,322.348,270.391z"/>
<g>
</g>
<g>
</g>
<g>
</g>
<g>
</g>
<g>
</g>
<g>
</g>
<g>
</g>
<g>
</g>
<g>
</g>
<g>
</g>
<g>
</g>
<g>
</g>
<g>
</g>
<g>
</g>
<g>
</g>
</svg>
