<?xml version="1.0" encoding="iso-8859-1"?>
<!-- Generator: Adobe Illustrator 19.0.0, SVG Export Plug-In . SVG Version: 6.00 Build 0)  -->
<svg version="1.1" id="Capa_1" xmlns="http://www.w3.org/2000/svg" xmlns:xlink="http://www.w3.org/1999/xlink" x="0px" y="0px"
	 viewBox="0 0 511.999 511.999" style="enable-background:new 0 0 511.999 511.999;" xml:space="preserve">
<path style="fill:#484655;" d="M108.088,170.379v90.301c0,72.16,58.497,130.657,130.657,130.657h34.505
	c72.16,0,130.657-58.497,130.657-130.657v-90.301c0-68.909-55.862-124.771-124.771-124.771h-46.277
	C163.95,45.609,108.088,101.47,108.088,170.379z"/>
<path style="fill:#FB403F;" d="M203.07,363.444h105.855c41.621,0,75.362,33.741,75.362,75.362V504.5H127.708v-65.694
	C127.708,397.185,161.449,363.444,203.07,363.444z"/>
<path style="fill:#C21C1C;" d="M308.925,363.444h-22.632c41.621,0,75.362,33.741,75.362,75.362v65.695h22.632v-65.695
	C384.286,397.185,350.546,363.444,308.925,363.444z"/>
<polygon style="fill:#F0EEEE;" points="298.097,347.001 213.897,347.001 165.664,437.667 206.331,433.972 255.997,482.001 
	305.664,433.972 346.331,437.667 "/>
<g>
	<polygon style="fill:#FA9E3E;" points="298.097,363.081 298.097,267.731 213.897,267.731 213.897,363.081 255.997,482.001 	"/>
	<path style="fill:#FA9E3E;" d="M125.836,228.99h49.369v56.61h-49.369c-15.632,0-28.305-12.672-28.305-28.305
		S110.204,228.99,125.836,228.99z"/>
	<path style="fill:#FA9E3E;" d="M386.158,228.99h-49.369v56.61h49.369c15.632,0,28.305-12.672,28.305-28.305
		S401.791,228.99,386.158,228.99z"/>
</g>
<path style="fill:#FFB56B;" d="M332.876,117.281c19.458,0,35.231,15.774,35.231,35.231v78.169c0,61.91-50.19,112.11-112.11,112.11
	s-112.11-50.2-112.11-112.11v-29.81l30.31-13.09c5.77-2.49,11.99-3.78,18.29-3.78h50.56c40.87,0,75.08-28.5,83.83-66.72
	L332.876,117.281L332.876,117.281z"/>
<path style="fill:#EF9245;" d="M368.107,230.681v-78.169c0-15.28-9.729-28.284-23.329-33.165v122.996
	c0,53.578-41.949,97.354-94.794,100.286h0.002c0.98,0.052,1.962,0.091,2.948,0.118c0.017,0.001,0.034,0.002,0.05,0.002
	c1.001,0.027,2.004,0.041,3.011,0.041c0.001,0,0.001,0,0.002,0C317.917,342.791,368.107,292.591,368.107,230.681z"/>
<polygon style="fill:#FB403F;" points="319.497,7.501 255.997,20.605 193.174,7.501 146.674,76.367 255.997,95.001 365.997,76.367 
	"/>
<polygon style="fill:#C21C1C;" points="341.721,80.479 365.997,76.367 319.497,7.501 295.753,12.401 "/>
<path d="M360.336,358.376c1.464,1.464,3.383,2.195,5.302,2.195c1.92,0,3.84-0.732,5.305-2.198
	c20.282-20.292,33.493-45.756,38.376-73.788c7.967-6.769,12.65-16.74,12.65-27.294c0-9.632-3.813-18.69-10.56-25.375V170.38
	c0-34.787-13.76-68.119-38.015-92.785c0.309-1.87-0.094-3.813-1.179-5.422l-46.5-68.87c-1.701-2.519-4.757-3.761-7.731-3.148
	l-61.977,12.786L194.709,0.159c-2.984-0.623-6.043,0.621-7.747,3.145l-46.5,68.87c-0.969,1.436-1.384,3.139-1.244,4.818
	c-7.732,7.748-14.48,16.388-20.084,25.802c-2.119,3.56-0.951,8.162,2.608,10.281c1.203,0.716,2.524,1.057,3.829,1.057
	c2.557,0,5.049-1.308,6.452-3.664c5.608-9.419,12.499-17.974,20.494-25.494l102.222,17.421c0.417,0.071,0.839,0.106,1.26,0.106
	c0.419,0,0.838-0.035,1.253-0.105l102.341-17.337c23.44,22.13,36.817,53.021,36.817,85.322V223c-3.309-0.99-6.763-1.509-10.25-1.509
	h-10.55v-68.98c0-22.583-17.612-41.117-39.821-42.619c0.5-3.935,0.761-7.909,0.761-11.89c0-4.143-3.358-7.5-7.5-7.5
	s-7.5,3.357-7.5,7.5c0,5.943-0.667,11.867-1.981,17.606c-3.899,17.03-13.582,32.489-27.268,43.528
	c-14.083,11.36-31.113,17.365-49.251,17.365h-50.56c-7.352,0-14.506,1.479-21.264,4.395l-30.31,13.09
	c-0.008,0.003-0.015,0.008-0.023,0.012l-16.159,6.979c-3.802,1.643-5.553,6.057-3.91,9.859c1.224,2.833,3.987,4.527,6.889,4.527
	c0.993,0,2.001-0.198,2.971-0.617l5.706-2.464v9.209h-10.55c-3.487,0-6.942,0.519-10.25,1.509v-52.62
	c0-11.661,1.708-23.184,5.075-34.245c1.207-3.963-1.028-8.153-4.991-9.359c-3.964-1.21-8.153,1.028-9.359,4.99
	c-3.799,12.479-5.726,25.472-5.726,38.614v61.536c-6.749,6.689-10.56,15.744-10.56,25.374c0,10.544,4.674,20.507,12.628,27.275
	c6.021,34.541,24.972,65.358,52.891,86.42c-21.348,15.006-35.338,39.804-35.338,67.824v65.69c0,4.143,3.358,7.5,7.5,7.5h256.58
	c4.142,0,7.5-3.357,7.5-7.5v-65.69c0-44.871-35.85-81.501-80.406-82.807l-5.787-10.872v-5.586
	c21.624-9.874,39.984-26.143,52.427-46.443h28.133c2.054,0,4.081-0.19,6.074-0.53c-5.534,20.805-16.4,39.692-31.898,55.199
	C357.404,350.699,357.406,355.448,360.336,358.376z M256.001,87.393L159.4,70.929l37.175-55.059l57.89,12.071
	c1.005,0.209,2.042,0.21,3.046,0.004l58.58-12.085l37.172,55.055L256.001,87.393z M136.529,236.491
	c0.022,0.445,0.053,0.889,0.08,1.333c0.017,0.285,0.032,0.57,0.051,0.855c0.076,1.131,0.165,2.26,0.272,3.387
	c0.018,0.185,0.04,0.37,0.058,0.555c0.097,0.965,0.206,1.928,0.326,2.89c0.039,0.31,0.078,0.62,0.119,0.929
	c0.142,1.071,0.295,2.141,0.466,3.207c0.01,0.06,0.018,0.121,0.027,0.181c0.181,1.117,0.382,2.23,0.594,3.341
	c0.059,0.307,0.12,0.613,0.181,0.919c0.18,0.907,0.371,1.811,0.572,2.713c0.052,0.232,0.1,0.464,0.153,0.695
	c0.25,1.089,0.516,2.175,0.796,3.256c0.071,0.274,0.146,0.546,0.219,0.819c0.23,0.861,0.469,1.72,0.718,2.576
	c0.086,0.294,0.169,0.588,0.257,0.881c0.32,1.07,0.652,2.136,1.002,3.196c0.059,0.178,0.122,0.355,0.182,0.533
	c0.304,0.908,0.62,1.811,0.946,2.711c0.111,0.307,0.223,0.613,0.336,0.919c0.356,0.959,0.722,1.914,1.103,2.864
	c0.042,0.106,0.082,0.212,0.125,0.318c0.343,0.848,0.695,1.692,1.057,2.531h-20.332c-4.308,0-8.439-1.303-11.949-3.768
	c-5.548-3.896-8.861-10.267-8.861-17.042c0-6.326,2.829-12.23,7.768-16.202c3.729-3.008,8.239-4.598,13.042-4.598L136.529,236.491
	L136.529,236.491z M119.756,292.569c1.995,0.341,4.024,0.531,6.081,0.531h28.133c12.446,20.302,30.804,36.569,52.427,46.443v5.587
	l-5.784,10.874c-10.864,0.318-21.207,2.728-30.641,6.856C145.154,346.132,127.388,321.145,119.756,292.569z M225.292,346.304
	c0.274,0.073,0.549,0.142,0.823,0.212c1.104,0.284,2.211,0.554,3.322,0.807c0.191,0.043,0.381,0.091,0.572,0.133
	c1.248,0.277,2.501,0.53,3.757,0.767c0.295,0.056,0.592,0.108,0.888,0.161c1.146,0.207,2.296,0.399,3.449,0.572
	c0.153,0.023,0.305,0.049,0.458,0.072c1.27,0.186,2.544,0.346,3.822,0.49c0.308,0.035,0.616,0.067,0.924,0.1
	c1.212,0.128,2.426,0.241,3.644,0.332c0.093,0.007,0.186,0.017,0.279,0.023c1.292,0.093,2.588,0.16,3.886,0.212
	c0.315,0.013,0.631,0.024,0.947,0.034c1.309,0.042,2.62,0.071,3.936,0.071c1.315,0,2.626-0.029,3.935-0.071
	c0.316-0.01,0.631-0.021,0.947-0.034c1.298-0.052,2.594-0.118,3.886-0.212c0.093-0.007,0.185-0.016,0.278-0.023
	c1.218-0.091,2.432-0.205,3.644-0.332c0.308-0.033,0.616-0.065,0.924-0.1c1.277-0.145,2.552-0.305,3.822-0.49
	c0.153-0.022,0.305-0.049,0.458-0.072c1.153-0.173,2.302-0.365,3.449-0.572c0.296-0.053,0.592-0.106,0.887-0.161
	c1.257-0.237,2.51-0.49,3.758-0.767c0.191-0.042,0.38-0.089,0.57-0.133c1.112-0.253,2.221-0.523,3.326-0.808
	c0.273-0.071,0.547-0.139,0.82-0.212c1.238-0.329,2.473-0.676,3.701-1.045c0.065-0.019,0.13-0.035,0.195-0.055v1.796v14.785
	l-34.6,97.74l-34.6-97.74v-14.785v-1.796c0.066,0.02,0.132,0.036,0.197,0.056C222.822,345.629,224.055,345.976,225.292,346.304z
	 M210.957,428.073c-0.072-0.057-0.149-0.107-0.224-0.161c-0.131-0.095-0.262-0.19-0.398-0.277c-0.099-0.063-0.201-0.118-0.303-0.176
	c-0.116-0.066-0.231-0.132-0.35-0.191c-0.118-0.059-0.238-0.113-0.359-0.165c-0.106-0.046-0.212-0.091-0.319-0.132
	c-0.134-0.052-0.27-0.098-0.407-0.142c-0.097-0.031-0.195-0.059-0.293-0.086c-0.147-0.04-0.295-0.077-0.444-0.109
	c-0.092-0.019-0.185-0.034-0.278-0.05c-0.155-0.026-0.309-0.051-0.466-0.068c-0.099-0.01-0.198-0.014-0.297-0.021
	c-0.149-0.009-0.297-0.021-0.447-0.022c-0.015,0-0.029-0.002-0.044-0.002c-0.226,0-0.453,0.01-0.68,0.031l-26.843,2.442
	l30.294-56.943l29.184,82.438l-26.743-25.86C211.354,428.399,211.159,428.231,210.957,428.073z M273.71,454.44l29.184-82.442
	l30.295,56.946l-26.843-2.442c-2.172-0.206-4.325,0.56-5.893,2.077L273.71,454.44z M376.787,438.81V497h-241.58v-58.19
	c0-33.726,24.726-61.785,56.998-67l-33.159,62.338c-1.294,2.432-1.15,5.378,0.374,7.672c1.525,2.296,4.188,3.58,6.927,3.319
	l37.237-3.389l47.2,45.642c0.001,0.001,0.002,0.002,0.003,0.003c0.01,0.009,0.021,0.017,0.03,0.026
	c0.019,0.018,0.039,0.033,0.058,0.051c0.048,0.044,0.098,0.085,0.147,0.129c0.107,0.095,0.211,0.194,0.323,0.282
	c0.075,0.06,0.155,0.11,0.232,0.167c0.059,0.043,0.118,0.086,0.179,0.128c0.034,0.023,0.066,0.049,0.1,0.072
	c0.028,0.018,0.055,0.041,0.083,0.059c0.224,0.144,0.454,0.273,0.689,0.391c0.021,0.01,0.042,0.018,0.063,0.029
	c0.039,0.019,0.079,0.035,0.118,0.053c0.066,0.031,0.131,0.061,0.197,0.09c0.194,0.084,0.391,0.159,0.59,0.227
	c0.058,0.019,0.114,0.04,0.172,0.059c0.047,0.014,0.092,0.034,0.139,0.047c0.005,0.002,0.011,0.002,0.017,0.004
	c0.189,0.054,0.38,0.098,0.572,0.137c0.031,0.006,0.061,0.016,0.092,0.022c0.051,0.01,0.104,0.014,0.156,0.022
	c0.046,0.008,0.091,0.017,0.137,0.024c0.063,0.009,0.126,0.015,0.189,0.023c0.303,0.038,0.608,0.063,0.914,0.064
	c0.003,0,0.007,0.001,0.01,0.001h0.001h0.002h0.001h0.001c0.003,0,0.007-0.001,0.01-0.001c0.306-0.001,0.612-0.026,0.915-0.064
	c0.063-0.008,0.125-0.013,0.187-0.022c0.046-0.007,0.092-0.016,0.138-0.024c0.052-0.009,0.104-0.013,0.155-0.022
	c0.031-0.006,0.061-0.016,0.093-0.022c0.196-0.04,0.392-0.084,0.585-0.14h0.001c0.048-0.014,0.095-0.033,0.142-0.048
	c0.058-0.018,0.114-0.039,0.172-0.059c0.2-0.068,0.398-0.143,0.594-0.228c0.064-0.028,0.127-0.057,0.191-0.086
	c0.04-0.019,0.081-0.035,0.121-0.055c0.021-0.01,0.042-0.018,0.063-0.029c0.235-0.118,0.465-0.247,0.689-0.391
	c0.028-0.018,0.055-0.041,0.083-0.059c0.034-0.023,0.067-0.049,0.1-0.072c0.061-0.042,0.12-0.085,0.179-0.128
	c0.077-0.057,0.157-0.107,0.232-0.167c0.111-0.088,0.216-0.187,0.323-0.282c0.049-0.043,0.1-0.084,0.147-0.129
	c0.019-0.018,0.039-0.033,0.058-0.051c0.01-0.009,0.021-0.017,0.03-0.026c0.001-0.001,0.002-0.002,0.004-0.003l47.2-45.642
	l37.237,3.389c2.744,0.256,5.402-1.024,6.927-3.319c1.524-2.294,1.667-5.24,0.374-7.672l-33.159-62.338
	C352.062,377.025,376.787,405.085,376.787,438.81z M295.28,327.66c-9.368,3.798-19.145,6.191-29.174,7.151
	c-3.343,0.32-6.715,0.48-10.108,0.48c-5.091,0-10.131-0.361-15.102-1.079c-8.284-1.197-16.374-3.387-24.181-6.551
	c-21.885-8.873-40.328-25.116-51.935-45.744c-8.762-15.541-13.393-33.258-13.393-51.236v-1.689v-23.188l25.782-11.136
	c4.26-1.838,8.738-2.883,13.339-3.116c0.657-0.033,1.317-0.05,1.979-0.05h50.56c21.293,0,42.129-7.348,58.669-20.69
	c0.971-0.784,1.923-1.589,2.861-2.409c0.316-0.276,0.62-0.564,0.932-0.844c0.614-0.552,1.226-1.105,1.824-1.673
	c0.362-0.344,0.714-0.697,1.071-1.046c0.532-0.522,1.064-1.044,1.583-1.578c0.368-0.378,0.728-0.764,1.09-1.148
	c0.491-0.522,0.979-1.047,1.457-1.579c0.361-0.402,0.716-0.808,1.07-1.215c0.462-0.532,0.918-1.069,1.367-1.611
	c0.347-0.418,0.691-0.839,1.031-1.263c0.441-0.551,0.874-1.109,1.303-1.67c0.325-0.426,0.651-0.851,0.969-1.282
	c0.429-0.582,0.846-1.171,1.262-1.763c0.297-0.423,0.598-0.843,0.888-1.271c0.431-0.636,0.847-1.281,1.263-1.927
	c0.254-0.394,0.514-0.784,0.762-1.182c0.498-0.8,0.977-1.611,1.45-2.426c0.148-0.254,0.304-0.502,0.449-0.757
	c0.608-1.069,1.195-2.15,1.761-3.241c0.171-0.329,0.328-0.666,0.495-0.997c0.389-0.773,0.776-1.548,1.144-2.331
	c0.203-0.432,0.392-0.869,0.587-1.304c0.313-0.695,0.626-1.391,0.922-2.094c0.198-0.469,0.384-0.943,0.575-1.415
	c0.273-0.679,0.543-1.36,0.8-2.045c0.184-0.49,0.36-0.982,0.535-1.475c0.242-0.68,0.478-1.362,0.704-2.049
	c0.164-0.498,0.324-0.998,0.48-1.499c0.097-0.312,0.205-0.621,0.299-0.934h0.227c15.29,0,27.73,12.439,27.73,27.729v76.48v1.689
	c0,2.247-0.072,4.49-0.216,6.726c-0.08,1.244-0.187,2.484-0.311,3.722c-1.213,12.115-4.521,23.938-9.776,34.865
	c-0.279,0.58-0.575,1.152-0.865,1.727c-0.211,0.419-0.413,0.842-0.63,1.258c-0.515,0.988-1.046,1.967-1.594,2.938
	c-0.001,0.001-0.001,0.003-0.002,0.004c0,0.001-0.001,0.001-0.001,0.002C335.608,302.544,317.165,318.788,295.28,327.66z
	 M365.825,278.1c0.363-0.841,0.716-1.687,1.059-2.537c0.037-0.091,0.071-0.183,0.108-0.275c0.388-0.966,0.76-1.938,1.123-2.914
	c0.11-0.296,0.218-0.593,0.326-0.89c0.331-0.913,0.651-1.83,0.96-2.751c0.056-0.167,0.115-0.333,0.171-0.5
	c0.352-1.065,0.685-2.137,1.007-3.212c0.085-0.286,0.167-0.572,0.25-0.859c0.252-0.866,0.494-1.735,0.726-2.606
	c0.071-0.265,0.144-0.53,0.213-0.796c0.281-1.086,0.549-2.176,0.8-3.27c0.052-0.224,0.098-0.45,0.149-0.675
	c0.203-0.908,0.395-1.819,0.577-2.732c0.06-0.303,0.121-0.606,0.179-0.91c0.213-1.113,0.414-2.229,0.596-3.348
	c0.009-0.054,0.016-0.107,0.024-0.161c0.172-1.072,0.325-2.147,0.468-3.224c0.041-0.31,0.08-0.619,0.119-0.929
	c0.12-0.961,0.229-1.924,0.326-2.889c0.019-0.185,0.041-0.37,0.058-0.556c0.108-1.127,0.197-2.256,0.273-3.387
	c0.019-0.285,0.034-0.57,0.051-0.855c0.027-0.444,0.058-0.888,0.08-1.333h10.691c4.802,0,9.312,1.59,13.049,4.604
	c4.932,3.967,7.761,9.87,7.761,16.196c0,6.775-3.313,13.146-8.86,17.042c-3.51,2.465-7.642,3.768-11.95,3.768h-20.334V278.1z"/>
<path d="M310.321,215.962c-4.142,0-7.5,3.357-7.5,7.5v2c0,4.143,3.358,7.5,7.5,7.5s7.5-3.357,7.5-7.5v-2
	C317.821,219.32,314.463,215.962,310.321,215.962z"/>
<path d="M201.674,215.962c-4.142,0-7.5,3.357-7.5,7.5v2c0,4.143,3.358,7.5,7.5,7.5s7.5-3.357,7.5-7.5v-2
	C209.174,219.32,205.816,215.962,201.674,215.962z"/>
<path d="M287.933,260.31c-3.406-2.359-8.078-1.508-10.436,1.897c-4.89,7.063-12.927,11.278-21.5,11.278
	c-8.573,0-16.611-4.216-21.501-11.278c-2.358-3.405-7.03-4.255-10.435-1.897c-3.405,2.357-4.254,7.03-1.897,10.436
	c7.69,11.107,20.338,17.739,33.833,17.739c13.494,0,26.142-6.632,33.832-17.739C292.188,267.34,291.339,262.668,287.933,260.31z"/>
<path d="M304.664,45.834h-34c-1.989,0-3.897,0.79-5.303,2.197l-9.194,9.194l-9.195-9.195c-1.406-1.406-3.314-2.196-5.303-2.196h-34
	c-4.142,0-7.5,3.357-7.5,7.5s3.358,7.5,7.5,7.5h30.893l10.993,10.993c0.313,0.526,0.687,1.025,1.139,1.477
	c1.464,1.464,3.384,2.196,5.303,2.196c0.056,0,0.113-0.007,0.169-0.008c0.056,0.001,0.113,0.008,0.169,0.008
	c1.919,0,3.839-0.732,5.303-2.196c0.453-0.453,0.827-0.953,1.14-1.479l10.991-10.991h30.894c4.142,0,7.5-3.357,7.5-7.5
	S308.806,45.834,304.664,45.834z"/>
<g>
</g>
<g>
</g>
<g>
</g>
<g>
</g>
<g>
</g>
<g>
</g>
<g>
</g>
<g>
</g>
<g>
</g>
<g>
</g>
<g>
</g>
<g>
</g>
<g>
</g>
<g>
</g>
<g>
</g>
</svg>
