<?xml version="1.0" encoding="iso-8859-1"?>
<!-- Generator: Adobe Illustrator 19.0.0, SVG Export Plug-In . SVG Version: 6.00 Build 0)  -->
<svg version="1.1" id="Capa_1" xmlns="http://www.w3.org/2000/svg" xmlns:xlink="http://www.w3.org/1999/xlink" x="0px" y="0px"
	 viewBox="0 0 512 512" style="enable-background:new 0 0 512 512;" xml:space="preserve">
<path style="fill:#FFB700;" d="M256.022,7.501c-60.046,6.121-191.53,51.326-183.185,81.478s30.938,69.675,62.04,81.918h242.291
	c31.102-12.243,53.695-51.766,62.04-81.918S316.068,13.622,256.022,7.501z"/>
<rect x="112.52" y="143.79" style="fill:#BF612C;" width="287" height="122.5"/>
<path style="fill:#F0EEEE;" d="M203.095,363.444H308.95c41.621,0,75.362,33.741,75.362,75.362V504.5H127.733v-65.694
	C127.733,397.185,161.473,363.444,203.095,363.444z"/>
<path style="fill:#FFB700;" d="M203.095,363.444H308.95c41.621,0,75.362,33.741,75.362,75.362V504.5H127.733v-65.694
	C127.733,397.185,161.473,363.444,203.095,363.444z"/>
<path style="fill:#D69400;" d="M308.949,363.444h-22.501c41.621,0,75.362,33.741,75.362,75.362V504.5h22.501v-65.695
	C384.311,397.185,350.57,363.444,308.949,363.444z"/>
<g>
	<path style="fill:#FFD100;" d="M292.27,347.5l-36.248,66.993l37,29.007l27.588-60.224c4.421-9.65,0.452-21.07-9.001-25.898
		L292.27,347.5z"/>
	<path style="fill:#FFD100;" d="M219.774,347.5l36.248,66.993l-37,29.007l-27.588-60.224c-4.421-9.65-0.452-21.07,9.001-25.898
		L219.774,347.5z"/>
</g>
<g>
	<path style="fill:#FA9E3E;" d="M213.926,281.73v90.668c0,23.249,18.847,42.096,42.096,42.096l0,0
		c23.249,0,42.096-18.847,42.096-42.096V281.73H213.926z"/>
	<path style="fill:#FA9E3E;" d="M125.861,237.99h49.369v56.61h-49.369c-15.632,0-28.305-12.672-28.305-28.305
		C97.556,250.663,110.229,237.99,125.861,237.99z"/>
	<path style="fill:#FA9E3E;" d="M386.183,237.99h-49.369v56.61h49.369c15.632,0,28.305-12.672,28.305-28.305
		C414.488,250.663,401.815,237.99,386.183,237.99z"/>
</g>
<path style="fill:#FFB56B;" d="M368.137,244.676c0,61.919-50.195,112.115-112.115,112.115l0,0
	c-61.919,0-112.115-50.195-112.115-112.115V143.792h224.229L368.137,244.676L368.137,244.676z"/>
<path style="fill:#EF9245;" d="M344.802,143.792v112.551c0,53.578-41.949,97.354-94.794,100.286
	c1.992,0.105,3.996,0.161,6.014,0.161l0,0c61.919,0,112.115-50.195,112.115-112.115V143.792H344.802z"/>
<polygon style="fill:#2A434F;" points="233.027,432.521 256.022,455.516 279.017,432.521 256.022,414.493 "/>
<polygon style="fill:#3D5868;" points="267.979,443.558 256.022,455.516 244.064,443.558 231.967,504.5 280.077,504.5 "/>
<g>
	<rect x="112.52" y="122.52" style="fill:#FFFFFF;" width="41" height="28.478"/>
	<rect x="194.52" y="122.52" style="fill:#FFFFFF;" width="41" height="28.478"/>
	<rect x="276.52" y="122.52" style="fill:#FFFFFF;" width="41" height="28.478"/>
	<rect x="358.52" y="122.52" style="fill:#FFFFFF;" width="41" height="28.478"/>
	<rect x="153.52" y="93.82" style="fill:#FFFFFF;" width="41" height="28.478"/>
	<rect x="235.52" y="93.82" style="fill:#FFFFFF;" width="41" height="28.478"/>
	<rect x="317.52" y="93.82" style="fill:#FFFFFF;" width="41" height="28.478"/>
</g>
<g>
	<rect x="153.52" y="122.52" style="fill:#484655;" width="41" height="28.478"/>
	<rect x="235.52" y="122.52" style="fill:#484655;" width="41" height="28.478"/>
	<rect x="317.52" y="122.52" style="fill:#484655;" width="41" height="28.478"/>
	<rect x="112.52" y="93.82" style="fill:#484655;" width="41" height="28.478"/>
	<rect x="194.52" y="93.82" style="fill:#484655;" width="41" height="28.478"/>
	<rect x="276.52" y="93.82" style="fill:#484655;" width="41" height="28.478"/>
	<rect x="358.52" y="93.82" style="fill:#484655;" width="41" height="28.478"/>
	<path style="fill:#484655;" d="M328.803,190.334H183.24c-21.723,0-39.333-17.61-39.333-39.333l0,0h224.229l0,0
		C368.137,172.724,350.526,190.334,328.803,190.334z"/>
</g>
<path d="M407.598,159.212c20.213-19.879,33.315-48.281,38.838-68.233c1.098-3.969,1.326-10.281-3.824-17.815
	c-13.338-19.513-56.768-37.582-81.471-46.616C324.596,13.181,283.632,2.776,256.783,0.04c-0.506-0.053-1.016-0.053-1.521,0
	c-26.08,2.658-64.613,12.29-100.562,25.135c-3.9,1.394-5.933,5.686-4.539,9.586c1.394,3.902,5.686,5.931,9.586,4.539
	c34.011-12.152,71.672-21.636,96.275-24.259c25.73,2.74,64.842,12.746,99.967,25.593c38.587,14.113,66.341,29.438,74.239,40.994
	c1.05,1.534,2.205,3.709,1.751,5.349c-4.019,14.521-12.429,33.925-24.957,50.227v-14.681c0-0.038-0.005-0.075-0.006-0.112
	c0-0.038,0.006-0.075,0.006-0.112V93.82c0-4.143-3.357-7.5-7.5-7.5h-41h-41h-41h-41h-41h-41h-41c-4.143,0-7.5,3.357-7.5,7.5v28.479
	c0,0.038,0.005,0.074,0.006,0.112c0,0.038-0.006,0.074-0.006,0.112v14.682c-12.529-16.302-20.939-35.707-24.957-50.227
	c-0.662-2.393,1.898-7.456,11.073-14.488c9.116-6.986,23.272-14.712,40.94-22.342c3.803-1.643,5.554-6.057,3.912-9.859
	c-1.643-3.803-6.055-5.552-9.859-3.912C80.67,56.01,60.873,73.871,65.608,90.978c5.522,19.951,18.623,48.353,38.836,68.232
	c0.186,0.183,0.379,0.353,0.578,0.513v77.483c-9.055,6.503-14.97,17.113-14.97,29.085c0,19.745,16.064,35.81,35.81,35.81h25.215
	c5.467,9.973,12.3,19.092,20.362,27.154c8.195,8.194,17.382,15.056,27.414,20.511l-1.833,0.936c-3.257,1.665-6.04,3.889-8.29,6.497
	c-39.268,6.876-68.497,41.397-68.497,81.607V504.5c0,4.143,3.358,7.5,7.5,7.5h104.234h48.109H384.31c4.142,0,7.5-3.357,7.5-7.5
	v-65.694c0-28.009-13.995-53.92-37.437-69.312c-3.462-2.273-8.111-1.31-10.386,2.153c-2.273,3.462-1.31,8.112,2.153,10.386
	c19.204,12.609,30.669,33.833,30.669,56.773V497h-90.577l-10.118-50.973l3.504-3.504l8.774,6.879
	c1.334,1.046,2.967,1.598,4.628,1.598c0.59,0,1.185-0.069,1.77-0.212c2.232-0.541,4.092-2.076,5.049-4.164l27.59-60.22v-0.001
	c6.11-13.341,0.661-29.023-12.407-35.703l-1.86-0.95c20.105-10.935,36.71-27.428,47.792-47.651h25.227
	c19.745,0,35.809-16.064,35.809-35.81c0-11.972-5.915-22.582-14.97-29.085v-77.482C407.22,159.564,407.413,159.395,407.598,159.212z
	 M325.022,143.501v-13.478h26v13.478H325.022z M284.022,143.501v-13.478h26v13.478H284.022z M243.022,143.501v-13.478h26v13.478
	H243.022z M202.022,143.501v-13.478h26v13.478H202.022z M161.022,143.501v-13.478h26v13.478H161.022z M120.022,130.023h26v13.478
	h-2.11h-23.89V130.023z M153.522,158.501h41h41h41h41h41h1.227c-1.355,5.635-4.237,10.805-8.44,15.007
	c-6.014,6.012-14.006,9.323-22.507,9.323h-145.56c-14.969,0-27.557-10.387-30.938-24.33H153.522z M368.132,143.501h-2.11v-13.478h26
	v13.478H368.132z M392.022,114.798h-26V101.32h26V114.798z M351.022,114.798h-26V101.32h26V114.798z M310.022,114.798h-26V101.32h26
	V114.798z M269.022,114.798h-26V101.32h26V114.798z M228.022,114.798h-26V101.32h26V114.798z M187.022,114.798h-26V101.32h26
	V114.798z M120.022,101.32h26v13.479h-26V101.32z M120.022,158.501h16.39v71.99h-10.55c-1.989,0-3.938,0.17-5.84,0.484V158.501z
	 M125.862,287.1c-11.475,0-20.81-9.335-20.81-20.81c0-11.469,9.335-20.8,20.81-20.8h10.553c0.006,0.853,0.021,1.704,0.044,2.554
	c0.002,0.071,0.003,0.142,0.005,0.213c0.03,1.023,0.075,2.043,0.13,3.061c0.018,0.335,0.041,0.669,0.062,1.004
	c0.046,0.732,0.097,1.462,0.155,2.192c0.029,0.355,0.057,0.711,0.089,1.066c0.072,0.805,0.153,1.608,0.241,2.409
	c0.026,0.239,0.048,0.478,0.076,0.717c0.118,1.021,0.25,2.039,0.394,3.055c0.041,0.286,0.087,0.57,0.129,0.856
	c0.112,0.752,0.231,1.504,0.358,2.253c0.059,0.349,0.12,0.697,0.182,1.045c0.131,0.735,0.27,1.468,0.415,2.2
	c0.059,0.296,0.115,0.593,0.175,0.888c0.208,1.007,0.426,2.011,0.66,3.012c0.038,0.163,0.08,0.324,0.119,0.487
	c0.202,0.849,0.414,1.695,0.634,2.539c0.084,0.319,0.171,0.638,0.257,0.957c0.194,0.717,0.395,1.431,0.603,2.145
	c0.09,0.308,0.178,0.616,0.271,0.924c0.272,0.905,0.553,1.807,0.847,2.706c0.028,0.087,0.054,0.175,0.083,0.261
	c0.327,0.991,0.669,1.978,1.023,2.961c0.095,0.265,0.194,0.528,0.291,0.792c0.161,0.438,0.317,0.878,0.484,1.314L125.862,287.1
	L125.862,287.1z M243.056,363.591c2.7,0.29,5.416,0.49,8.147,0.598c0.284,0.011,0.568,0.021,0.852,0.03
	c1.319,0.043,2.641,0.072,3.967,0.072c1.326,0,2.648-0.029,3.967-0.072c0.284-0.009,0.568-0.019,0.853-0.03
	c2.735-0.108,5.455-0.308,8.158-0.599c0.121-0.013,0.243-0.026,0.364-0.039c7.225-0.8,14.326-2.25,21.259-4.346V372.4
	c0,9.245-3.598,17.93-10.135,24.458c-6.533,6.534-15.223,10.133-24.466,10.133c-19.078,0-34.6-15.517-34.6-34.591v-13.196
	c6.931,2.096,14.029,3.546,21.251,4.346C242.8,363.564,242.928,363.577,243.056,363.591z M203.843,364.06l2.579-1.317v9.657
	c0,0.775,0.023,1.544,0.059,2.31c0.011,0.235,0.027,0.468,0.041,0.702c0.033,0.547,0.074,1.091,0.125,1.633
	c0.023,0.246,0.046,0.493,0.073,0.738c0.065,0.598,0.141,1.192,0.227,1.784c0.023,0.157,0.041,0.316,0.066,0.474
	c0.115,0.741,0.247,1.476,0.395,2.206c0.037,0.184,0.081,0.365,0.12,0.548c0.119,0.554,0.245,1.105,0.382,1.652
	c0.059,0.234,0.12,0.467,0.182,0.7c0.14,0.526,0.289,1.047,0.446,1.565c0.06,0.199,0.117,0.399,0.179,0.597
	c0.222,0.703,0.457,1.401,0.709,2.091c0.027,0.074,0.058,0.147,0.086,0.221c0.229,0.616,0.47,1.225,0.723,1.83
	c0.086,0.206,0.176,0.409,0.264,0.613c0.211,0.487,0.429,0.969,0.655,1.447c0.096,0.202,0.191,0.405,0.289,0.606
	c0.279,0.57,0.567,1.133,0.867,1.691c0.045,0.084,0.087,0.169,0.132,0.253c0.349,0.64,0.714,1.27,1.09,1.893
	c0.099,0.164,0.203,0.325,0.304,0.488c0.286,0.462,0.579,0.919,0.88,1.371c0.127,0.19,0.254,0.379,0.383,0.568
	c0.313,0.456,0.633,0.906,0.961,1.35c0.106,0.144,0.208,0.289,0.316,0.432c0.436,0.579,0.883,1.149,1.343,1.708
	c0.078,0.095,0.16,0.186,0.239,0.281c0.386,0.462,0.78,0.917,1.182,1.364c0.149,0.165,0.3,0.328,0.451,0.492
	c0.358,0.388,0.722,0.769,1.093,1.146c0.149,0.151,0.296,0.303,0.447,0.453c0.497,0.493,1.002,0.977,1.52,1.449
	c0.016,0.014,0.031,0.029,0.046,0.044c0.536,0.487,1.085,0.959,1.642,1.423c0.159,0.132,0.32,0.26,0.481,0.39
	c0.411,0.333,0.827,0.661,1.248,0.981c0.182,0.138,0.364,0.276,0.548,0.412c0.46,0.339,0.926,0.67,1.397,0.994
	c0.129,0.089,0.255,0.181,0.385,0.268c0.6,0.404,1.21,0.795,1.828,1.173c0.141,0.086,0.285,0.167,0.426,0.252
	c0.485,0.29,0.975,0.572,1.47,0.846c0.204,0.113,0.409,0.223,0.614,0.332c0.469,0.25,0.942,0.492,1.419,0.728
	c0.188,0.092,0.373,0.187,0.562,0.277c0.658,0.314,1.322,0.618,1.996,0.904c0.05,0.021,0.101,0.04,0.152,0.061
	c0.513,0.216,1.03,0.426,1.552,0.625l-16.537,12.966l-23.629-51.572C195.495,374.142,197.953,367.07,203.843,364.06z
	 M135.233,438.806c0-29.711,19.479-55.63,46.898-64.551c-0.112,4.059,0.677,8.206,2.483,12.15l27.59,60.22
	c0.957,2.088,2.817,3.623,5.049,4.164c0.586,0.143,1.179,0.212,1.77,0.212c1.661,0,3.294-0.552,4.628-1.598l8.774-6.879l3.504,3.504
	L225.81,497h-90.577V438.806z M256.022,444.909l-11.707-11.707l11.707-9.178l11.707,9.178L256.022,444.909z M263.357,458.788
	L270.941,497h-29.84l7.585-38.213l2.032,2.031c0.25,0.25,0.518,0.471,0.792,0.679c1.332,1.006,2.919,1.518,4.51,1.518
	c1.591,0,3.178-0.511,4.51-1.518c0.275-0.207,0.542-0.428,0.792-0.679L263.357,458.788z M313.793,380.158L313.793,380.158
	l-23.629,51.572l-16.515-12.948c0.206-0.078,0.407-0.17,0.612-0.251c0.438-0.173,0.874-0.35,1.306-0.536
	c0.34-0.146,0.678-0.296,1.015-0.45c0.426-0.194,0.85-0.395,1.271-0.602c0.333-0.163,0.664-0.329,0.994-0.501
	c0.416-0.216,0.829-0.441,1.239-0.669c0.324-0.18,0.647-0.361,0.967-0.548c0.409-0.24,0.813-0.49,1.215-0.742
	c0.31-0.194,0.622-0.387,0.928-0.589c0.406-0.267,0.804-0.545,1.202-0.824c0.293-0.205,0.588-0.406,0.877-0.619
	c0.409-0.3,0.808-0.613,1.209-0.926c0.268-0.209,0.539-0.412,0.803-0.628c0.435-0.355,0.86-0.726,1.285-1.097
	c0.217-0.189,0.44-0.371,0.654-0.565c0.634-0.572,1.256-1.161,1.864-1.769c9.371-9.358,14.531-21.813,14.531-35.067v-9.657
	l2.576,1.316C314.091,367.07,316.548,374.142,313.793,380.158z M295.302,341.661c-0.011,0.004-0.022,0.009-0.032,0.013
	c-0.678,0.275-1.36,0.54-2.043,0.801c-1.721,0.659-3.535,1.295-5.404,1.89c-5.111,1.631-10.335,2.86-15.635,3.682
	c-0.021,0.003-0.043,0.007-0.064,0.01c-2.591,0.4-5.2,0.701-7.823,0.907c-0.084,0.006-0.167,0.015-0.251,0.021
	c-1.22,0.093-2.444,0.161-3.669,0.211c-0.228,0.009-0.457,0.017-0.685,0.024c-1.222,0.042-2.446,0.07-3.673,0.07
	c-1.226,0-2.45-0.028-3.672-0.07c-0.229-0.008-0.457-0.015-0.686-0.024c-1.226-0.05-2.449-0.118-3.669-0.211
	c-0.084-0.006-0.167-0.014-0.25-0.021c-1.288-0.101-2.572-0.222-3.853-0.37c-0.001,0-0.002,0-0.003,0
	c-1.324-0.153-2.643-0.332-3.958-0.535c-0.029-0.004-0.058-0.009-0.087-0.014c-5.297-0.823-10.518-2.051-15.627-3.681
	c-1.861-0.593-3.672-1.228-5.39-1.886c-0.698-0.266-1.395-0.538-2.089-0.819c-13.023-5.272-24.695-13.015-34.691-23.012
	c-8.022-8.022-14.658-17.238-19.721-27.393c-7.241-14.529-10.913-30.199-10.913-46.574v-6.689v-52.683
	c8.361,7.763,19.548,12.522,31.83,12.522h145.561c11.914,0,23.144-4.429,31.83-12.495v52.655v6.689c0,3.07-0.129,6.115-0.387,9.133
	c-1.116,13.076-4.643,25.635-10.526,37.441C338.299,314.169,318.976,332.07,295.302,341.661z M386.182,287.1h-18.281
	c0.159-0.416,0.307-0.835,0.461-1.253c0.108-0.294,0.219-0.587,0.324-0.881c0.348-0.969,0.686-1.942,1.008-2.919
	c0.041-0.124,0.078-0.25,0.119-0.374c0.281-0.862,0.551-1.727,0.812-2.594c0.096-0.319,0.188-0.64,0.281-0.96
	c0.205-0.702,0.403-1.406,0.594-2.112c0.088-0.325,0.177-0.65,0.262-0.976c0.219-0.837,0.429-1.677,0.629-2.518
	c0.04-0.168,0.084-0.335,0.123-0.503c0.233-0.999,0.451-2.001,0.658-3.006c0.061-0.298,0.118-0.597,0.177-0.895
	c0.145-0.73,0.283-1.462,0.414-2.196c0.062-0.348,0.123-0.696,0.182-1.044c0.128-0.754,0.247-1.51,0.36-2.267
	c0.042-0.279,0.087-0.557,0.126-0.836c0.145-1.017,0.277-2.037,0.395-3.06c0.028-0.238,0.049-0.477,0.076-0.716
	c0.088-0.803,0.169-1.608,0.241-2.414c0.031-0.352,0.06-0.704,0.088-1.057c0.059-0.732,0.111-1.465,0.156-2.2
	c0.021-0.333,0.043-0.665,0.061-0.998c0.055-1.02,0.101-2.042,0.13-3.066c0.002-0.069,0.003-0.139,0.005-0.208
	c0.023-0.85,0.039-1.702,0.044-2.555h10.553c11.475,0,20.809,9.331,20.809,20.8C406.992,277.765,397.657,287.1,386.182,287.1z
	 M386.182,230.491h-10.55v-71.99h16.39v72.474C390.12,230.661,388.171,230.491,386.182,230.491z"/>
<path d="M201.699,459.02h-48.177c-4.143,0-7.5,3.358-7.5,7.5c0,4.143,3.357,7.5,7.5,7.5h48.177c4.143,0,7.5-3.357,7.5-7.5
	C209.199,462.378,205.841,459.02,201.699,459.02z"/>
<path d="M287.958,267.31c-3.406-2.36-8.077-1.508-10.436,1.897c-4.891,7.063-12.928,11.278-21.501,11.278
	c-8.573,0-16.61-4.216-21.501-11.278c-2.357-3.406-7.029-4.257-10.436-1.897c-3.405,2.358-4.255,7.03-1.896,10.436
	c7.691,11.107,20.339,17.739,33.833,17.739s26.142-6.632,33.833-17.739C292.213,274.34,291.364,269.668,287.958,267.31z"/>
<path d="M310.345,222.962c-4.142,0-7.5,3.357-7.5,7.5v2c0,4.143,3.358,7.5,7.5,7.5c4.143,0,7.5-3.357,7.5-7.5v-2
	C317.845,226.32,314.488,222.962,310.345,222.962z"/>
<path d="M201.699,222.962c-4.143,0-7.5,3.357-7.5,7.5v2c0,4.143,3.357,7.5,7.5,7.5s7.5-3.357,7.5-7.5v-2
	C209.199,226.32,205.841,222.962,201.699,222.962z"/>
<g>
</g>
<g>
</g>
<g>
</g>
<g>
</g>
<g>
</g>
<g>
</g>
<g>
</g>
<g>
</g>
<g>
</g>
<g>
</g>
<g>
</g>
<g>
</g>
<g>
</g>
<g>
</g>
<g>
</g>
</svg>
