<?xml version="1.0" encoding="iso-8859-1"?>
<!-- Generator: Adobe Illustrator 19.0.0, SVG Export Plug-In . SVG Version: 6.00 Build 0)  -->
<svg version="1.1" id="Capa_1" xmlns="http://www.w3.org/2000/svg" xmlns:xlink="http://www.w3.org/1999/xlink" x="0px" y="0px"
	 viewBox="0 0 512 512" style="enable-background:new 0 0 512 512;" xml:space="preserve">
<path style="fill:#49B6F2;" d="M212.091,363.444h105.855c41.621,0,75.362,33.741,75.362,75.362V504.5H136.73v-65.695
	C136.73,397.184,170.47,363.444,212.091,363.444z"/>
<path style="fill:#2E93CC;" d="M317.946,363.444h-22.632c41.621,0,75.362,33.741,75.362,75.362V504.5h22.632v-65.695
	C393.308,397.184,359.567,363.444,317.946,363.444z"/>
<polygon style="fill:#FA9E3E;" points="307.119,363.08 307.119,267.73 222.919,267.73 222.919,363.08 265.019,387.67 "/>
<g>
	<polygon style="fill:#D9D4D4;" points="332.397,364.833 317.812,351 265.019,388.774 304.333,428.088 	"/>
	<polygon style="fill:#D9D4D4;" points="197.641,364.833 212.226,351 265.019,388.774 225.705,428.088 	"/>
</g>
<path style="fill:#484655;" d="M328.253,398.543h-31.466l-2.591-13.643c-0.809-4.263-4.536-7.348-8.875-7.348h-40.603
	c-4.339,0-8.065,3.085-8.875,7.348l-2.591,13.643h-31.466c-10.754,0-19.471,8.718-19.471,19.471v67.014
	c0,10.754,8.718,19.471,19.471,19.471h126.467c10.754,0,19.471-8.718,19.471-19.471v-67.014
	C347.724,407.261,339.006,398.543,328.253,398.543z"/>
<path style="fill:#35343F;" d="M328.253,398.543h-22.155c10.754,0,19.471,8.718,19.471,19.471v67.014
	c0,10.754-8.718,19.471-19.471,19.471h22.155c10.754,0,19.471-8.718,19.471-19.471v-67.014
	C347.724,407.261,339.006,398.543,328.253,398.543z"/>
<path style="fill:#FFB700;" d="M328.253,398.543h-31.466l-2.591-13.643c-0.809-4.263-4.536-7.348-8.875-7.348h-40.603
	c-4.339,0-8.065,3.085-8.875,7.348l-2.591,13.643h-31.466c-10.754,0-19.471,8.718-19.471,19.471v15.141h165.41v-15.141
	C347.724,407.261,339.006,398.543,328.253,398.543z"/>
<path style="fill:#D69400;" d="M325.568,418.015v15.141h22.156v-15.141c0-10.754-8.718-19.471-19.471-19.471h-22.155
	C316.851,398.543,325.568,407.261,325.568,418.015z"/>
<circle style="fill:#5CDBF1;" cx="265.019" cy="451.52" r="30.05"/>
<rect x="121.019" y="126" style="fill:#696970;" width="288" height="129"/>
<g>
	<path style="fill:#FA9E3E;" d="M134.858,223.99h49.369v56.61h-49.369c-15.632,0-28.305-12.673-28.305-28.305
		S119.225,223.99,134.858,223.99z"/>
	<path style="fill:#FA9E3E;" d="M395.18,223.99h-49.369v56.61h49.369c15.632,0,28.305-12.673,28.305-28.305
		S410.812,223.99,395.18,223.99z"/>
</g>
<path style="fill:#FFB56B;" d="M265.019,342.79L265.019,342.79c-61.919,0-112.115-50.195-112.115-112.115V117.281h224.229v113.394
	C377.134,292.595,326.938,342.79,265.019,342.79z"/>
<path style="fill:#EF9245;" d="M353.799,117.281v125.062c0,53.578-41.949,97.354-94.795,100.286
	c1.992,0.105,3.996,0.161,6.014,0.161l0,0c61.919,0,112.115-50.195,112.115-112.115V117.281H353.799z"/>
<path style="fill:#484655;" d="M433.352,106.269c0,29.491-23.907,53.398-53.398,53.398H189.352
	c-120.667,0-110.503-66.027-110.503-66.027s17.837,6.239,32.502,6.239C94.123,82.652,72.685,37.667,86.571,7.5
	c54.553,36.5,98.661,45.37,172.434,45.37h120.949C409.445,52.87,433.352,76.778,433.352,106.269L433.352,106.269z"/>
<path style="fill:#35343F;" d="M379.954,52.87H356.91c29.491,0,53.398,23.907,53.398,53.398l0,0
	c0,29.491-23.907,53.398-53.398,53.398h23.044c29.491,0,53.398-23.907,53.398-53.398l0,0
	C433.352,76.778,409.445,52.87,379.954,52.87z"/>
<path d="M416.519,223.554v-68.618c14.764-11.123,24.33-28.797,24.33-48.666c0-33.58-27.315-60.9-60.891-60.9H259.009
	c-67.878,0-112.54-6.821-168.27-44.104c-1.825-1.22-4.093-1.581-6.207-0.984c-2.113,0.596-3.859,2.089-4.777,4.083
	c-8.88,19.303-4.668,41.417,0.429,56.568c3.453,10.262,8.405,20.477,14.02,29.208c-7.219-1.626-12.785-3.548-12.878-3.581
	c-2.104-0.734-4.427-0.497-6.337,0.65c-1.911,1.147-3.213,3.086-3.551,5.289c-0.121,0.786-2.803,19.459,10.99,38.086
	c12.375,16.711,33.548,27.823,62.982,33.079v52.826h-10.55c-2.164,0-4.28,0.204-6.34,0.573V179.92c0-4.142-3.358-7.5-7.5-7.5
	s-7.5,3.358-7.5,7.5v43.64c-8.775,6.531-14.47,16.977-14.47,28.73c0,19.746,16.064,35.81,35.81,35.81h25.225
	c8.505,15.53,20.277,28.857,34.389,39.165l-3.246,2.25c-12.951,8.973-21.628,23.069-23.805,38.674
	c-1.949,13.966,1.454,28.185,9.354,39.749c-1.258,3.114-1.958,6.512-1.958,10.071v15.15v51.87c0,4.298,1.015,8.361,2.811,11.97
	h-33.4v-58.194c0-14.436,4.47-28.217,12.927-39.852c2.436-3.351,1.694-8.041-1.657-10.476c-3.352-2.437-8.042-1.693-10.476,1.657
	c-10.333,14.215-15.795,31.045-15.795,48.671V504.5c0,4.142,3.358,7.5,7.5,7.5h65.059h126.46h65.059c4.143,0,7.5-3.358,7.5-7.5
	v-65.694c0-17.487-5.384-34.209-15.568-48.359c-2.42-3.361-7.107-4.124-10.468-1.706c-3.362,2.42-4.126,7.107-1.706,10.469
	c8.336,11.581,12.742,25.274,12.742,39.596V497h-33.4c1.796-3.609,2.811-7.673,2.811-11.97v-51.87v-15.15
	c0-3.559-0.7-6.957-1.958-10.07c6.929-10.142,10.388-22.326,9.819-34.592c-0.004-0.203-0.016-0.405-0.036-0.606
	c-0.087-1.518-0.217-3.036-0.428-4.551c-2.178-15.606-10.854-29.702-23.805-38.674l-3.248-2.251
	c14.114-10.309,25.885-23.636,34.39-39.165h25.225c19.745,0,35.809-16.065,35.809-35.81
	C430.989,240.881,425.531,230.237,416.519,223.554z M401.519,217.069c-2.085-0.375-4.206-0.578-6.34-0.578h-10.55v-49.517
	c5.903-0.451,11.573-1.739,16.89-3.759L401.519,217.069L401.519,217.069z M86.654,103.754c6.873,1.758,16.178,3.626,24.695,3.626
	c3.034,0,5.768-1.827,6.929-4.63c1.161-2.803,0.519-6.028-1.626-8.173c-13.336-13.337-31.741-48.679-26.039-75.5
	c24.895,15.713,47.791,25.721,73.146,32.072c25.807,6.464,54.293,9.222,95.25,9.222h120.949c25.304,0,45.891,20.591,45.891,45.9
	s-20.587,45.9-45.891,45.9h-2.829h-187.78c-3.214,0-6.368-0.049-9.458-0.145c-9.268-0.291-17.95-1.016-25.908-2.167
	c-0.002,0-0.004,0-0.006-0.001C100.728,142.169,89.006,117.314,86.654,103.754z M134.859,273.1c-11.475,0-20.81-9.336-20.81-20.81
	c0-11.469,9.335-20.8,20.81-20.8h10.553c0.013,1.961,0.076,3.911,0.181,5.854c0.017,0.31,0.038,0.619,0.057,0.928
	c0.047,0.761,0.101,1.521,0.162,2.28c0.027,0.333,0.054,0.667,0.083,1c0.075,0.837,0.158,1.672,0.25,2.505
	c0.023,0.21,0.042,0.421,0.067,0.631c0.12,1.034,0.253,2.065,0.399,3.093c0.037,0.259,0.079,0.518,0.117,0.777
	c0.116,0.779,0.239,1.557,0.37,2.333c0.056,0.334,0.115,0.667,0.174,1c0.134,0.752,0.276,1.502,0.425,2.251
	c0.056,0.283,0.11,0.567,0.168,0.85c0.209,1.012,0.428,2.022,0.663,3.028c0.035,0.151,0.075,0.301,0.11,0.452
	c0.204,0.858,0.418,1.714,0.641,2.566c0.084,0.322,0.172,0.643,0.259,0.964c0.192,0.71,0.391,1.417,0.597,2.123
	c0.092,0.317,0.184,0.634,0.279,0.95c0.262,0.873,0.534,1.743,0.817,2.611c0.039,0.12,0.075,0.24,0.114,0.359
	c0.322,0.977,0.66,1.95,1.008,2.92c0.106,0.295,0.217,0.589,0.325,0.884c0.153,0.417,0.302,0.835,0.46,1.251L134.859,273.1
	L134.859,273.1z M199.771,341.844l8.49-5.884c2.344,1.263,4.723,2.469,7.158,3.578v4.677c-2.752-1.294-6.077-0.812-8.35,1.342
	l-13.064,12.384c-3.105,0.691-6.161,1.559-9.158,2.602C187.823,353.044,192.926,346.587,199.771,341.844z M234.302,346.305
	c0.277,0.074,0.554,0.143,0.831,0.215c1.105,0.285,2.214,0.555,3.327,0.808c0.186,0.042,0.37,0.088,0.556,0.129
	c1.25,0.277,2.505,0.531,3.764,0.768c0.292,0.055,0.585,0.107,0.877,0.159c1.155,0.208,2.314,0.402,3.476,0.576
	c0.144,0.022,0.287,0.047,0.431,0.068c1.273,0.186,2.551,0.346,3.833,0.491c0.304,0.034,0.609,0.066,0.914,0.099
	c1.222,0.129,2.446,0.243,3.674,0.335c0.084,0.006,0.168,0.015,0.252,0.021c1.294,0.094,2.594,0.16,3.895,0.212
	c0.316,0.013,0.632,0.024,0.948,0.034c1.31,0.042,2.622,0.071,3.939,0.071s2.629-0.029,3.939-0.071
	c0.316-0.01,0.632-0.021,0.948-0.034c1.301-0.052,2.601-0.118,3.895-0.212c0.084-0.006,0.168-0.015,0.252-0.021
	c1.229-0.091,2.453-0.206,3.676-0.335c0.304-0.032,0.607-0.064,0.91-0.098c1.283-0.145,2.563-0.306,3.838-0.492
	c0.139-0.02,0.276-0.044,0.415-0.065c1.171-0.175,2.337-0.37,3.5-0.58c0.286-0.052,0.571-0.102,0.856-0.156
	c1.264-0.238,2.525-0.492,3.78-0.771c0.176-0.039,0.351-0.082,0.527-0.122c1.126-0.255,2.249-0.529,3.367-0.818
	c0.267-0.069,0.534-0.136,0.801-0.207c1.241-0.329,2.477-0.677,3.708-1.047c0.062-0.019,0.125-0.034,0.187-0.053v9.584
	l-21.327,15.257h-26.546l-21.327-15.258v-9.583c0.065,0.02,0.131,0.036,0.196,0.055
	C231.839,345.632,233.068,345.977,234.302,346.305z M348.116,378.013c-0.276,6.183-1.924,12.159-4.859,17.601
	c-4.108-2.762-9.014-4.417-14.293-4.555l7.758-17.48C340.648,374.704,344.454,376.191,348.116,378.013z M247.175,437.744
	c4.305-5.576,10.809-8.773,17.843-8.773c0.879,0,1.75,0.05,2.61,0.148c6.017,0.688,11.468,3.748,15.243,8.638
	c3.072,3.962,4.696,8.721,4.696,13.764c0,12.439-10.116,22.56-22.55,22.56c-12.434,0-22.55-10.121-22.55-22.56
	C242.469,446.477,244.093,441.718,247.175,437.744z M292.242,425.66c-0.066-0.07-0.136-0.134-0.203-0.204
	c-0.183-0.19-0.371-0.374-0.557-0.56c-0.299-0.299-0.601-0.595-0.909-0.883c-0.2-0.187-0.403-0.369-0.606-0.551
	c-0.307-0.274-0.616-0.543-0.931-0.806c-0.211-0.176-0.422-0.35-0.637-0.522c-0.322-0.257-0.647-0.507-0.977-0.753
	c-0.214-0.16-0.427-0.32-0.644-0.475c-0.347-0.248-0.699-0.485-1.054-0.721c-0.207-0.138-0.413-0.279-0.623-0.412
	c-0.4-0.254-0.807-0.495-1.216-0.733c-0.171-0.1-0.339-0.206-0.512-0.303c-0.588-0.33-1.183-0.646-1.788-0.943
	c-0.024-0.012-0.049-0.022-0.073-0.034c-0.577-0.282-1.162-0.549-1.754-0.801c-0.201-0.086-0.406-0.162-0.609-0.244
	c-0.419-0.17-0.84-0.338-1.265-0.492c-0.243-0.089-0.49-0.169-0.736-0.252c-0.392-0.133-0.785-0.263-1.182-0.384
	c-0.263-0.079-0.527-0.153-0.792-0.227c-0.388-0.108-0.778-0.211-1.17-0.307c-0.272-0.066-0.544-0.13-0.818-0.19
	c-0.394-0.087-0.791-0.166-1.189-0.24c-0.273-0.051-0.546-0.102-0.821-0.147c-0.412-0.068-0.826-0.124-1.242-0.178
	c-0.263-0.034-0.526-0.072-0.79-0.101c-0.458-0.05-0.919-0.085-1.381-0.118c-0.225-0.016-0.448-0.039-0.673-0.051
	c-0.688-0.037-1.379-0.059-2.074-0.059s-1.387,0.022-2.075,0.059c-0.225,0.012-0.448,0.035-0.673,0.051
	c-0.462,0.033-0.923,0.068-1.382,0.118c-0.265,0.029-0.527,0.067-0.791,0.101c-0.414,0.054-0.828,0.11-1.239,0.177
	c-0.277,0.045-0.552,0.097-0.827,0.148c-0.395,0.074-0.788,0.152-1.18,0.238c-0.278,0.061-0.555,0.126-0.831,0.193
	c-0.385,0.094-0.768,0.195-1.149,0.301c-0.273,0.076-0.546,0.152-0.816,0.234c-0.383,0.116-0.763,0.242-1.142,0.37
	c-0.26,0.088-0.521,0.173-0.778,0.267c-0.398,0.145-0.79,0.302-1.183,0.46c-0.231,0.093-0.465,0.18-0.694,0.278
	c-0.496,0.212-0.986,0.439-1.472,0.672c-0.134,0.064-0.271,0.124-0.404,0.189c-0.573,0.283-1.138,0.582-1.697,0.895
	c-0.228,0.128-0.45,0.267-0.676,0.399c-0.35,0.206-0.701,0.412-1.044,0.629c-0.252,0.16-0.499,0.329-0.747,0.494
	c-0.309,0.206-0.617,0.413-0.92,0.629c-0.254,0.181-0.503,0.368-0.753,0.556c-0.289,0.217-0.576,0.437-0.859,0.662
	c-0.248,0.198-0.493,0.399-0.736,0.603c-0.277,0.232-0.55,0.47-0.82,0.711c-0.236,0.21-0.471,0.421-0.702,0.638
	c-0.272,0.255-0.538,0.517-0.804,0.781c-0.217,0.216-0.435,0.429-0.648,0.651c-0.06,0.062-0.123,0.121-0.182,0.184h-47.973v-7.65
	c0-6.6,5.37-11.97,11.97-11.97h10.81h20.65c3.602,0,6.696-2.561,7.368-6.101l2.59-13.638c0.138-0.725,0.774-1.251,1.512-1.251h4.62
	h31.36h4.62c0.738,0,1.374,0.526,1.512,1.249l2.59,13.64c0.672,3.539,3.766,6.101,7.368,6.101h20.65h10.811
	c6.601,0,11.97,5.37,11.97,11.97v7.65h-47.978V425.66z M193.318,373.583l7.755,17.475c-5.278,0.139-10.185,1.794-14.292,4.555
	c-2.937-5.445-4.585-11.426-4.859-17.613C185.586,376.179,189.399,374.708,193.318,373.583z M206.643,366.629l6.254-5.929
	l5.644,4.038c0.005,0.004,0.009,0.008,0.014,0.011l14.353,10.267c-0.195,0.198-0.378,0.408-0.562,0.616
	c-0.066,0.075-0.137,0.145-0.202,0.221c-0.285,0.333-0.556,0.678-0.815,1.033c-0.062,0.085-0.117,0.175-0.177,0.262
	c-0.191,0.275-0.378,0.553-0.553,0.84c-0.081,0.133-0.155,0.269-0.233,0.404c-0.144,0.251-0.283,0.505-0.414,0.765
	c-0.076,0.15-0.148,0.302-0.219,0.455c-0.12,0.258-0.233,0.521-0.341,0.786c-0.063,0.155-0.126,0.31-0.184,0.468
	c-0.106,0.288-0.201,0.581-0.291,0.877c-0.043,0.14-0.09,0.277-0.13,0.418c-0.122,0.439-0.23,0.884-0.316,1.338l-1.432,7.539h-9.563
	L206.643,366.629z M312.562,391.04h-9.564l-1.432-7.54c-0.086-0.454-0.195-0.899-0.316-1.338c-0.039-0.14-0.086-0.277-0.129-0.415
	c-0.091-0.297-0.186-0.591-0.293-0.88c-0.058-0.157-0.121-0.311-0.183-0.465c-0.107-0.266-0.22-0.529-0.341-0.788
	c-0.071-0.153-0.144-0.305-0.22-0.455c-0.131-0.259-0.27-0.513-0.413-0.764c-0.077-0.135-0.152-0.272-0.233-0.405
	c-0.175-0.287-0.361-0.565-0.553-0.84c-0.06-0.086-0.115-0.176-0.177-0.261c-0.258-0.356-0.53-0.701-0.815-1.034
	c-0.064-0.075-0.134-0.145-0.2-0.219c-0.185-0.209-0.369-0.419-0.564-0.618l6.757-4.834l7.595-5.433
	c0.002-0.001,0.004-0.003,0.006-0.005l5.654-4.045l6.254,5.929L312.562,391.04z M201.789,497c-6.601,0-11.97-5.37-11.97-11.97
	v-44.37h39.238c-1.047,3.478-1.587,7.122-1.587,10.86c0,20.711,16.845,37.56,37.55,37.56s37.55-16.85,37.55-37.56
	c0-3.737-0.54-7.382-1.587-10.86h39.237v44.37c0,6.601-5.369,11.97-11.97,11.97H201.789z M330.267,341.845
	c6.845,4.742,11.949,11.2,14.925,18.7c-2.994-1.041-6.048-1.91-9.155-2.601l-13.067-12.387c-2.274-2.154-5.599-2.637-8.351-1.341
	v-4.677c2.435-1.109,4.814-2.315,7.157-3.579L330.267,341.845z M304.296,327.661c-12.463,5.062-25.678,7.629-39.277,7.629
	c-1.7,0-3.394-0.04-5.081-0.12c-0.921-0.044-1.839-0.102-2.755-0.169c-10.001-0.736-19.751-2.885-29.1-6.421
	c-0.784-0.297-1.564-0.603-2.342-0.918h-0.001c-0.002-0.001-0.004-0.001-0.006-0.002c-23.681-9.594-43.005-27.493-54.413-50.404
	c-7.241-14.531-10.913-30.201-10.913-46.575v-6.69v-58.227c0.026,0.003,0.053,0.005,0.079,0.008
	c0.161,0.017,0.325,0.031,0.486,0.047c1.194,0.121,2.4,0.233,3.618,0.338c0.423,0.036,0.85,0.07,1.276,0.105
	c1.021,0.083,2.049,0.16,3.086,0.231c0.411,0.028,0.82,0.058,1.234,0.084c1.414,0.091,2.838,0.174,4.28,0.244
	c0.076,0.004,0.154,0.006,0.231,0.01c1.368,0.065,2.751,0.119,4.144,0.165c0.444,0.015,0.891,0.027,1.337,0.04
	c1.09,0.031,2.187,0.057,3.291,0.077c0.443,0.008,0.884,0.017,1.329,0.023c1.505,0.021,3.019,0.035,4.55,0.035h180.28v56.82v6.69
	c0,0.98-0.015,1.958-0.041,2.933c-0.02,0.722-0.053,1.442-0.088,2.162c-0.011,0.231-0.017,0.464-0.029,0.695
	c-0.313,5.718-1.087,11.385-2.316,16.917c-1.566,7.112-3.9,14.067-6.942,20.725c-0.046,0.101-0.089,0.204-0.136,0.305
	c-0.363,0.787-0.741,1.568-1.124,2.346c-0.08,0.164-0.155,0.33-0.237,0.493C347.307,300.166,327.983,318.065,304.296,327.661z
	 M395.179,273.1h-18.293c0.005-0.013,0.009-0.027,0.014-0.04c4.53-11.909,7.08-24.389,7.612-37.275
	c0.018-0.432,0.041-0.863,0.055-1.295c0.016-0.508,0.021-1.018,0.03-1.527c0.009-0.491,0.026-0.981,0.029-1.472h10.553
	c3.572,0,7.082,0.917,10.177,2.664c6.559,3.671,10.633,10.62,10.633,18.136C415.989,263.765,406.654,273.1,395.179,273.1z"/>
<path d="M319.342,215.962c-4.143,0-7.5,3.358-7.5,7.5v2c0,4.142,3.357,7.5,7.5,7.5s7.5-3.358,7.5-7.5v-2
	C326.842,219.32,323.485,215.962,319.342,215.962z"/>
<path d="M210.695,215.962c-4.142,0-7.5,3.358-7.5,7.5v2c0,4.142,3.358,7.5,7.5,7.5s7.5-3.358,7.5-7.5v-2
	C218.195,219.32,214.837,215.962,210.695,215.962z"/>
<path d="M296.955,260.31c-3.406-2.358-8.077-1.509-10.435,1.896c-4.891,7.063-12.928,11.279-21.501,11.279
	s-16.61-4.216-21.501-11.278c-2.357-3.405-7.03-4.254-10.435-1.896s-4.254,7.03-1.897,10.435
	c7.691,11.108,20.339,17.739,33.833,17.739c13.493,0,26.142-6.631,33.833-17.739C301.21,267.34,300.361,262.668,296.955,260.31z"/>
<g>
</g>
<g>
</g>
<g>
</g>
<g>
</g>
<g>
</g>
<g>
</g>
<g>
</g>
<g>
</g>
<g>
</g>
<g>
</g>
<g>
</g>
<g>
</g>
<g>
</g>
<g>
</g>
<g>
</g>
</svg>
