<?xml version="1.0" encoding="iso-8859-1"?>
<!-- Generator: Adobe Illustrator 19.0.0, SVG Export Plug-In . SVG Version: 6.00 Build 0)  -->
<svg version="1.1" id="Capa_1" xmlns="http://www.w3.org/2000/svg" xmlns:xlink="http://www.w3.org/1999/xlink" x="0px" y="0px"
	 viewBox="0 0 511.999 511.999" style="enable-background:new 0 0 511.999 511.999;" xml:space="preserve">
<path style="fill:#F0EEEE;" d="M203.071,363.444h105.855c41.621,0,75.362,33.741,75.362,75.362V504.5H127.709v-65.694
	C127.709,397.184,161.45,363.444,203.071,363.444z"/>
<path style="fill:#78D6D1;" d="M203.071,363.444h105.855c41.621,0,75.362,33.741,75.362,75.362V504.5H127.709v-65.694
	C127.709,397.184,161.45,363.444,203.071,363.444z"/>
<path style="fill:#53BCB7;" d="M308.925,363.444h-22.501c41.621,0,75.362,33.741,75.362,75.362V504.5h22.501v-65.695
	C384.287,397.184,350.546,363.444,308.925,363.444z"/>
<path style="fill:#F3F3F3;" d="M255.998,425.493c34.858,0,63.581-26.722,66.788-60.755c-4.495-0.836-9.123-1.294-13.86-1.294
	H203.071c-4.737,0-9.365,0.458-13.86,1.294C192.417,398.771,221.14,425.493,255.998,425.493z"/>
<path style="fill:#FA9E3E;" d="M213.902,267.729v90.668c0,23.249,18.847,42.096,42.096,42.096l0,0
	c23.249,0,42.096-18.847,42.096-42.096v-90.668H213.902z"/>
<path style="fill:#CB715B;" d="M120.203,75.42c-10.872,57.476-13.36,115.923-5.205,172.875c94,0,188,0,282,0
	c8.155-56.952,5.667-115.399-5.205-172.875c-1.992-10.531-10.028-18.887-20.442-21.424c-82.123-20.001-148.583-20.001-230.706,0
	C130.231,56.532,122.195,64.888,120.203,75.42z"/>
<g>
	<path style="fill:#FA9E3E;" d="M125.837,223.99h49.369v56.61h-49.369c-15.632,0-28.305-12.673-28.305-28.305
		S110.205,223.99,125.837,223.99z"/>
	<path style="fill:#FA9E3E;" d="M386.159,223.99H336.79v56.61h49.369c15.632,0,28.305-12.673,28.305-28.305
		S401.791,223.99,386.159,223.99z"/>
</g>
<path style="fill:#FFB56B;" d="M255.998,342.79L255.998,342.79c-61.919,0-112.115-50.195-112.115-112.115V117.281h224.229v113.394
	C368.113,292.595,317.917,342.79,255.998,342.79z"/>
<path style="fill:#EF9245;" d="M344.779,117.281v125.062c0,53.578-41.949,97.354-94.795,100.286
	c1.992,0.105,3.996,0.161,6.014,0.161l0,0c61.919,0,112.115-50.195,112.115-112.115V117.281H344.779z"/>
<path style="fill:#78D6D1;" d="M401.758,170.59c-98.16-29.08-195.34-29.13-291.51-0.15c0.54-31.69,3.99-63.5,9.95-95.02
	c2-10.53,10.03-18.89,20.45-21.42c82.12-20.01,148.58-20.01,230.7,0c10.42,2.53,18.45,10.89,20.45,21.42
	C397.768,106.99,401.218,138.85,401.758,170.59z"/>
<path style="fill:#53BCB7;" d="M368.489,69.672c5.936,31.392,9.445,63.062,10.181,94.63c7.69,1.924,15.385,4.006,23.087,6.288
	c-0.54-31.74-3.99-63.6-9.96-95.17c-2-10.53-10.03-18.89-20.45-21.42c-5.956-1.451-11.821-2.785-17.625-4.025
	C361.304,53.883,366.855,61.068,368.489,69.672z"/>
<circle style="fill:#F0EEEE;" cx="255.998" cy="60.25" r="52.75"/>
<path style="fill:#78D6D1;" d="M331.588,275.53c0,19.02-6.12,36.49-16.33,50.32c-8.6,5.37-17.97,9.6-27.92,12.49
	c-9.94,2.9-20.46,4.45-31.34,4.45c-21.76,0-42.07-6.21-59.26-16.94c-10.21-13.83-16.33-31.3-16.33-50.32
	c0-11.09,2.07-21.66,5.83-31.29c45.66,16.54,92.09,16.34,139.29-0.58C329.428,253.44,331.588,264.21,331.588,275.53z"/>
<path d="M310.321,226.962c4.143,0,7.5-3.358,7.5-7.5v-2c0-4.142-3.357-7.5-7.5-7.5s-7.5,3.358-7.5,7.5v2
	C302.821,223.605,306.179,226.962,310.321,226.962z"/>
<path d="M201.675,209.962c-4.143,0-7.5,3.358-7.5,7.5v2c0,4.142,3.357,7.5,7.5,7.5s7.5-3.358,7.5-7.5v-2
	C209.175,213.32,205.817,209.962,201.675,209.962z"/>
<path d="M307.162,338.794c0.796-0.377,1.588-0.762,2.376-1.157c0.732-0.366,1.462-0.736,2.186-1.116
	c0.582-0.307,1.157-0.627,1.734-0.944c19.966-10.937,36.451-27.363,47.465-47.476h25.235c19.745,0,35.81-16.064,35.81-35.81
	c0-11.801-5.745-22.284-14.582-28.809c1.522-17.29,2.151-34.875,1.858-52.705c0.003-0.105,0.015-0.208,0.013-0.313
	c-0.155-9.086-0.556-18.26-1.187-27.497c-0.01-0.142-0.019-0.285-0.029-0.427c-0.211-3.049-0.446-6.104-0.708-9.166
	c-0.03-0.347-0.062-0.694-0.092-1.041c-0.248-2.835-0.515-5.674-0.807-8.519c-0.026-0.252-0.049-0.503-0.075-0.755
	c-0.295-2.834-0.617-5.674-0.955-8.517c-0.083-0.701-0.168-1.402-0.254-2.104c-0.341-2.784-0.698-5.57-1.082-8.361
	c-0.069-0.506-0.145-1.013-0.215-1.519c-0.352-2.518-0.722-5.038-1.108-7.561c-0.092-0.6-0.18-1.199-0.274-1.799
	c-0.44-2.82-0.903-5.642-1.385-8.466c-0.107-0.628-0.218-1.257-0.327-1.885c-0.511-2.94-1.037-5.882-1.594-8.826
	c-0.317-1.67-0.755-3.3-1.303-4.878c-3.839-11.049-13.12-19.608-24.74-22.43c-22.093-5.381-42.563-9.207-62.436-11.701
	C301.119,14.364,280.21,0,255.998,0c-33.222,0-60.25,27.028-60.25,60.25s27.028,60.25,60.25,60.25
	c14.481,0,28.479-5.214,39.417-14.682c3.131-2.711,3.473-7.447,0.762-10.579c-2.712-3.132-7.447-3.473-10.58-0.762
	c-8.211,7.108-18.723,11.023-29.599,11.023c-24.951,0-45.25-20.299-45.25-45.25S231.047,15,255.998,15s45.25,20.299,45.25,45.25
	c0,4.518-0.662,8.974-1.968,13.246c-1.21,3.961,1.02,8.154,4.98,9.364c3.958,1.212,8.154-1.018,9.365-4.98
	c1.74-5.694,2.622-11.625,2.622-17.63c0-3.221-0.261-6.382-0.75-9.468c17.224,2.414,35.016,5.863,54.08,10.507
	c7.579,1.84,13.409,7.937,14.851,15.525c0.642,3.394,1.249,6.787,1.829,10.177c0.167,0.976,0.316,1.949,0.478,2.923
	c0.402,2.422,0.799,4.845,1.17,7.263c0.176,1.149,0.336,2.295,0.505,3.442c0.329,2.238,0.653,4.475,0.955,6.709
	c0.167,1.24,0.322,2.478,0.481,3.717c0.272,2.117,0.537,4.233,0.784,6.346c0.157,1.343,0.305,2.684,0.452,4.025
	c0.216,1.967,0.422,3.931,0.617,5.893c0.146,1.478,0.286,2.955,0.42,4.43c0.161,1.766,0.31,3.53,0.453,5.292
	c0.134,1.656,0.266,3.312,0.384,4.965c0.108,1.5,0.203,2.997,0.298,4.494c0.119,1.885,0.239,3.77,0.338,5.649
	c0.061,1.149,0.107,2.293,0.161,3.44c0.077,1.66,0.148,3.318,0.209,4.974c-8.086-2.238-16.184-4.286-24.178-6.114
	c-2.378-0.545-4.756-1.073-7.134-1.583c-42.364-9.1-84.857-12.816-127.113-11.166c-0.448,0.017-0.897,0.028-1.345,0.046
	c-0.458,0.019-0.916,0.047-1.374,0.067c-6.658,0.296-13.31,0.719-19.954,1.282c-0.049,0.004-0.098,0.009-0.147,0.013
	c-7.052,0.6-14.095,1.35-21.128,2.251c-0.146,0.019-0.292,0.04-0.437,0.059c-8.563,1.105-17.111,2.44-25.641,3.991
	c-7.784,1.415-15.554,3.005-23.306,4.792c-0.001,0-0.001,0-0.002,0.001c-8.013,1.841-16.103,3.907-24.158,6.167
	c0.048-1.293,0.105-2.589,0.163-3.885c0.07-1.57,0.137-3.14,0.221-4.715c0.087-1.63,0.19-3.264,0.293-4.898
	c0.108-1.714,0.217-3.429,0.342-5.148c0.109-1.515,0.23-3.033,0.352-4.551c0.151-1.87,0.31-3.742,0.481-5.618
	c0.128-1.401,0.26-2.804,0.399-4.208c0.2-2.017,0.412-4.037,0.635-6.059c0.143-1.298,0.285-2.596,0.437-3.896
	c0.251-2.142,0.52-4.288,0.796-6.435c0.155-1.21,0.306-2.419,0.47-3.63c0.305-2.258,0.633-4.521,0.966-6.783
	c0.165-1.121,0.321-2.24,0.493-3.362c0.374-2.443,0.775-4.889,1.182-7.336c0.158-0.948,0.303-1.893,0.465-2.842
	c0.58-3.389,1.187-6.78,1.829-10.174c0.09-0.475,0.198-0.943,0.321-1.406c1.857-6.934,7.425-12.4,14.536-14.127
	c11.692-2.849,23.225-5.314,34.278-7.328c4.075-0.742,6.777-4.647,6.035-8.722c-0.743-4.076-4.654-6.779-8.723-6.035
	c-11.342,2.065-23.165,4.593-35.136,7.51c-13.286,3.226-23.511,13.945-26.05,27.314c-0.555,2.935-1.079,5.868-1.589,8.8
	c-0.112,0.644-0.225,1.287-0.335,1.931c-0.478,2.803-0.938,5.604-1.375,8.402c-0.1,0.638-0.194,1.275-0.291,1.912
	c-0.377,2.467-0.739,4.932-1.083,7.395c-0.077,0.548-0.158,1.096-0.233,1.644c-0.377,2.748-0.728,5.491-1.065,8.232
	c-0.093,0.761-0.185,1.522-0.275,2.283c-0.33,2.778-0.645,5.553-0.933,8.323c-0.04,0.388-0.076,0.775-0.116,1.163
	c-0.271,2.659-0.521,5.313-0.754,7.963c-0.042,0.477-0.086,0.954-0.127,1.43c-0.25,2.929-0.475,5.851-0.677,8.767
	c-0.025,0.355-0.047,0.709-0.071,1.064c-0.415,6.153-0.725,12.277-0.929,18.364c-0.006,0.189-0.013,0.377-0.019,0.566
	c-0.087,2.689-0.161,5.372-0.207,8.046c-0.001,0.074,0.008,0.146,0.009,0.219c-0.302,17.913,0.323,35.581,1.852,52.95
	c-8.837,6.525-14.582,17.008-14.582,28.809c0,19.746,16.064,35.81,35.81,35.81h25.235c11.08,20.231,27.693,36.731,47.81,47.664
	c0.464,0.253,0.924,0.511,1.391,0.758c0.797,0.42,1.604,0.824,2.412,1.226c0.676,0.337,1.354,0.668,2.036,0.992
	c0.56,0.266,1.113,0.541,1.677,0.798v16.402h-3.33c-1.306,0-2.618,0.035-3.934,0.1c-0.954,0.045-1.899,0.124-2.845,0.201
	c-0.315,0.026-0.629,0.042-0.944,0.072c-1.194,0.111-2.378,0.254-3.556,0.416c-0.063,0.009-0.125,0.015-0.188,0.024
	c-1.248,0.173-2.486,0.378-3.716,0.607c-0.018,0.003-0.036,0.006-0.054,0.009c-0.005,0.001-0.01,0.003-0.015,0.003
	c-38.426,7.183-67.608,40.956-67.608,81.439v65.69c0,4.142,3.357,7.5,7.5,7.5h256.58c4.143,0,7.5-3.358,7.5-7.5v-65.69
	c0-40.483-29.182-74.256-67.608-81.439c-0.005-0.001-0.01-0.002-0.015-0.003c-0.018-0.003-0.036-0.005-0.053-0.009
	c-1.23-0.229-2.468-0.433-3.716-0.607c-0.063-0.009-0.125-0.015-0.188-0.024c-1.179-0.161-2.363-0.305-3.556-0.416
	c-0.315-0.03-0.629-0.046-0.944-0.072c-0.946-0.077-1.891-0.156-2.845-0.201c-1.315-0.064-2.628-0.1-3.934-0.1h-3.33v-16.402
	C306.124,339.298,306.64,339.042,307.162,338.794z M290.598,345.208V358.4c0,1.404-0.082,2.796-0.247,4.149
	c-0.914,7.643-4.424,14.853-9.887,20.308c-6.534,6.535-15.223,10.133-24.466,10.133c-1.642,0-3.26-0.115-4.846-0.338
	c-0.621-0.087-1.235-0.196-1.845-0.316c-14.459-2.839-25.863-14.698-27.664-29.8c-0.163-1.341-0.245-2.733-0.245-4.137v-13.191
	c0.065,0.02,0.132,0.036,0.197,0.056c1.224,0.368,2.453,0.714,3.686,1.041c0.276,0.073,0.553,0.143,0.83,0.214
	c1.106,0.285,2.216,0.556,3.33,0.809c0.185,0.042,0.368,0.088,0.553,0.129c1.25,0.278,2.506,0.531,3.766,0.768
	c0.291,0.055,0.582,0.106,0.874,0.159c1.157,0.209,2.316,0.403,3.48,0.577c0.143,0.021,0.285,0.046,0.428,0.067
	c1.274,0.186,2.552,0.346,3.834,0.491c0.304,0.034,0.608,0.066,0.913,0.098c1.222,0.129,2.447,0.243,3.675,0.335
	c0.084,0.006,0.167,0.015,0.251,0.021c1.295,0.093,2.594,0.16,3.896,0.212c0.205,0.008,0.409,0.021,0.614,0.028
	c0.157,0.006,0.314,0.006,0.47,0.011c1.265,0.039,2.532,0.066,3.803,0.066c1.281,0,2.558-0.027,3.833-0.067
	c0.163-0.005,0.326-0.005,0.489-0.011c0.189-0.007,0.376-0.019,0.565-0.027c1.302-0.052,2.601-0.118,3.895-0.212
	c0.084-0.006,0.168-0.015,0.252-0.021c1.181-0.088,2.357-0.197,3.531-0.319c0.086-0.009,0.172-0.017,0.258-0.026
	c0.266-0.028,0.531-0.058,0.796-0.088c1.283-0.145,2.563-0.306,3.838-0.492c0.139-0.02,0.276-0.044,0.415-0.065
	c1.171-0.175,2.337-0.371,3.5-0.58c0.285-0.052,0.571-0.102,0.856-0.156c1.264-0.238,2.525-0.492,3.78-0.771
	c0.176-0.039,0.351-0.083,0.527-0.122c1.126-0.256,2.249-0.529,3.367-0.818c0.267-0.069,0.534-0.136,0.801-0.207
	c1.241-0.329,2.477-0.677,3.708-1.047C290.472,345.243,290.536,345.227,290.598,345.208z M205.899,322.509
	c-0.354-0.193-0.71-0.381-1.061-0.578c-0.842-0.474-1.678-0.962-2.508-1.46c-0.135-0.08-0.268-0.162-0.402-0.243
	c-9.177-12.937-14.019-28.358-14.019-44.698c0-7.463,1.014-14.752,3.018-21.754c42.532,13.77,86.178,13.566,129.964-0.611
	c2.124,7.191,3.197,14.686,3.197,22.365c0,16.339-4.842,31.76-14.018,44.697c-0.157,0.095-0.313,0.191-0.471,0.285
	c-0.768,0.46-1.541,0.914-2.32,1.354c-0.537,0.302-1.081,0.592-1.624,0.884c-0.983,0.532-1.975,1.047-2.974,1.547
	c-0.749,0.373-1.499,0.744-2.259,1.1c-0.519,0.244-1.041,0.482-1.564,0.717c-0.908,0.408-1.823,0.803-2.745,1.186
	c-0.404,0.168-0.804,0.345-1.21,0.508c-0.042,0.017-0.083,0.032-0.125,0.049c-0.986,0.394-1.978,0.772-2.975,1.136
	c-0.066,0.024-0.132,0.048-0.198,0.072c-2.099,0.759-4.222,1.453-6.368,2.077c-5.837,1.703-11.828,2.884-17.907,3.539
	c-0.116,0.012-0.232,0.026-0.348,0.038c-2.275,0.238-4.562,0.398-6.858,0.487c-0.258,0.01-0.516,0.019-0.774,0.027
	c-1.116,0.035-2.233,0.059-3.352,0.059c-1.086,0-2.17-0.022-3.253-0.055c-0.24-0.007-0.48-0.017-0.719-0.026
	c-1.048-0.039-2.094-0.089-3.138-0.16c-0.016-0.001-0.032-0.002-0.048-0.003c-11.492-0.783-22.719-3.458-33.267-7.881
	c-0.678-0.284-1.353-0.576-2.023-0.874c-0.643-0.286-1.287-0.571-1.925-0.87c-0.608-0.285-1.208-0.585-1.809-0.881
	C208.497,323.89,207.191,323.215,205.899,322.509z M151.388,167.511c0.175-0.038,0.35-0.079,0.524-0.117
	c0.923-0.2,1.847-0.39,2.77-0.584c1.294-0.273,2.589-0.547,3.884-0.809c0.965-0.195,1.931-0.381,2.897-0.571
	c1.255-0.246,2.511-0.493,3.767-0.73c0.989-0.186,1.979-0.364,2.969-0.544c1.235-0.224,2.47-0.449,3.705-0.663
	c1.005-0.175,2.01-0.342,3.016-0.51c1.221-0.204,2.442-0.407,3.663-0.602c1.02-0.163,2.04-0.32,3.06-0.476
	c1.207-0.185,2.415-0.367,3.624-0.543c1.029-0.15,2.059-0.295,3.089-0.438c1.204-0.167,2.409-0.331,3.614-0.489
	c1.032-0.135,2.065-0.268,3.098-0.396c1.2-0.15,2.4-0.294,3.601-0.435c1.041-0.122,2.081-0.241,3.122-0.357
	c1.197-0.132,2.395-0.259,3.593-0.382c1.039-0.107,2.079-0.213,3.119-0.314c1.203-0.116,2.407-0.225,3.61-0.332
	c1.038-0.092,2.075-0.185,3.114-0.271c1.206-0.099,2.411-0.19,3.618-0.281c1.036-0.078,2.072-0.157,3.108-0.228
	c1.216-0.083,2.433-0.157,3.65-0.231c1.025-0.062,2.05-0.128,3.075-0.184c1.24-0.068,2.481-0.124,3.721-0.182
	c1.002-0.047,2.004-0.098,3.006-0.139c1.282-0.052,2.564-0.091,3.846-0.133c0.963-0.031,1.925-0.069,2.888-0.094
	c1.375-0.036,2.751-0.059,4.127-0.084c0.869-0.016,1.738-0.039,2.608-0.05c1.769-0.022,3.539-0.029,5.308-0.032
	c0.588-0.001,1.176-0.006,1.765-0.005c2.117,0.004,4.234,0.021,6.352,0.052c0.856,0.013,1.713,0.038,2.569,0.055
	c1.391,0.028,2.783,0.054,4.175,0.094c0.969,0.028,1.938,0.068,2.906,0.102c1.281,0.045,2.561,0.086,3.842,0.141
	c1.011,0.043,2.021,0.097,3.032,0.147c1.24,0.061,2.481,0.12,3.721,0.19c1.032,0.058,2.064,0.127,3.096,0.192
	c1.219,0.077,2.438,0.153,3.656,0.238c1.048,0.074,2.097,0.156,3.146,0.237c1.202,0.092,2.404,0.185,3.606,0.286
	c1.059,0.089,2.118,0.186,3.176,0.282c1.195,0.108,2.39,0.218,3.585,0.336c1.061,0.104,2.122,0.214,3.184,0.326
	c1.194,0.125,2.388,0.253,3.582,0.386c1.061,0.119,2.121,0.242,3.182,0.368c1.194,0.142,2.389,0.287,3.584,0.438
	c1.061,0.133,2.121,0.271,3.182,0.411c1.197,0.159,2.394,0.322,3.59,0.49c1.056,0.148,2.111,0.297,3.166,0.452
	c1.203,0.176,2.406,0.358,3.609,0.543c1.052,0.162,2.103,0.324,3.155,0.493c1.207,0.194,2.414,0.395,3.621,0.597
	c1.045,0.175,2.09,0.35,3.135,0.532c1.222,0.213,2.444,0.434,3.665,0.656c1.028,0.187,2.055,0.371,3.083,0.565
	c1.245,0.234,2.489,0.478,3.734,0.722c1.007,0.197,2.014,0.391,3.022,0.595c1.27,0.256,2.539,0.524,3.808,0.791
	c0.982,0.206,1.963,0.407,2.945,0.619c0.184,0.04,0.368,0.083,0.552,0.123v51.808c-20.656,11.274-41.281,19.339-61.694,24.141
	c-0.101,0.023-0.202,0.049-0.302,0.072c-0.772,0.18-1.544,0.351-2.316,0.522c-0.799,0.175-1.598,0.35-2.397,0.516
	c-0.3,0.063-0.6,0.125-0.9,0.187c-26.505,5.368-52.864,5.21-78.824-0.468c-21.094-4.661-42.091-12.968-62.787-24.856
	L151.388,167.511L151.388,167.511z M336.544,297.441c1.683-7.076,2.544-14.415,2.544-21.911c0-9.42-1.383-18.612-4.078-27.433
	c8.464-3.305,16.943-7.129,25.434-11.469c-0.059,1.066-0.131,2.129-0.222,3.188c-1.117,13.08-4.646,25.637-10.537,37.441
	C346.065,284.526,341.643,291.286,336.544,297.441z M386.158,273.1h-18.285c0.163-0.427,0.316-0.856,0.473-1.284
	c0.102-0.276,0.206-0.552,0.305-0.829c0.351-0.977,0.692-1.957,1.017-2.942c0.033-0.101,0.063-0.203,0.097-0.304
	c0.289-0.883,0.565-1.769,0.833-2.658c0.095-0.317,0.187-0.635,0.279-0.953c0.205-0.702,0.403-1.405,0.594-2.111
	c0.089-0.327,0.178-0.655,0.264-0.983c0.216-0.825,0.423-1.652,0.621-2.481c0.043-0.181,0.091-0.362,0.133-0.543
	c0.232-0.994,0.45-1.992,0.656-2.992c0.063-0.307,0.121-0.615,0.182-0.922c0.143-0.72,0.28-1.442,0.409-2.166
	c0.064-0.355,0.126-0.711,0.186-1.067c0.125-0.741,0.243-1.483,0.354-2.228c0.044-0.292,0.091-0.583,0.132-0.876
	c0.144-1.012,0.276-2.027,0.394-3.045c0.028-0.246,0.051-0.493,0.078-0.739c0.087-0.795,0.168-1.592,0.239-2.391
	c0.032-0.356,0.061-0.713,0.089-1.069c0.059-0.728,0.11-1.458,0.155-2.189c0.021-0.336,0.044-0.672,0.062-1.009
	c0.055-1.02,0.101-2.042,0.13-3.067c0.002-0.064,0.003-0.128,0.005-0.192c0.023-0.855,0.039-1.711,0.045-2.569h10.553
	c11.475,0,20.81,9.331,20.81,20.8C406.968,263.765,397.633,273.1,386.158,273.1z M392.877,217.131
	c-2.178-0.415-4.422-0.641-6.719-0.641h-10.55v-45.238c6.211,1.538,12.454,3.212,18.682,4.991
	C394.376,190.038,393.917,203.68,392.877,217.131z M117.706,176.071c6.213-1.803,12.454-3.498,18.681-5.053v45.472h-10.55
	c-2.297,0-4.541,0.226-6.719,0.641C118.075,203.624,117.616,189.925,117.706,176.071z M125.838,273.1
	c-11.475,0-20.81-9.336-20.81-20.81c0-11.469,9.335-20.8,20.81-20.8h10.553c0.006,0.858,0.021,1.714,0.045,2.569
	c0.002,0.064,0.003,0.128,0.005,0.191c0.029,1.026,0.075,2.048,0.13,3.068c0.018,0.337,0.041,0.673,0.062,1.009
	c0.045,0.731,0.097,1.461,0.155,2.189c0.029,0.356,0.057,0.713,0.089,1.069c0.071,0.799,0.152,1.597,0.239,2.393
	c0.027,0.245,0.049,0.492,0.078,0.737c0.118,1.018,0.249,2.032,0.393,3.044c0.042,0.295,0.09,0.589,0.134,0.884
	c0.111,0.74,0.227,1.48,0.352,2.217c0.061,0.359,0.123,0.718,0.188,1.077c0.128,0.716,0.264,1.431,0.405,2.144
	c0.062,0.315,0.122,0.631,0.187,0.946c0.205,0.995,0.421,1.988,0.652,2.976c0.046,0.198,0.098,0.395,0.145,0.593
	c0.194,0.81,0.395,1.618,0.606,2.424c0.09,0.342,0.183,0.682,0.275,1.023c0.187,0.688,0.38,1.374,0.579,2.058
	c0.097,0.333,0.193,0.666,0.293,0.998c0.257,0.854,0.523,1.705,0.8,2.553c0.044,0.135,0.085,0.271,0.129,0.406
	c0.322,0.974,0.659,1.944,1.006,2.911c0.106,0.295,0.217,0.589,0.325,0.883c0.153,0.416,0.302,0.834,0.46,1.249h-18.285V273.1z
	 M162.309,277.251c-6.32-12.665-9.921-26.202-10.739-40.323c8.379,4.464,16.796,8.373,25.246,11.729
	c-2.582,8.646-3.907,17.651-3.907,26.872c0,7.496,0.861,14.835,2.544,21.911C170.352,291.284,165.93,284.523,162.309,277.251z
	 M311.949,371.017c0.491,0.023,0.982,0.055,1.474,0.089c0.263,0.017,0.523,0.039,0.785,0.06c-2.613,11.918-8.86,22.799-18.012,31.18
	c-11.015,10.088-25.292,15.644-40.198,15.644c-10.396,0-20.628-2.725-29.59-7.881c-3.59-2.065-8.175-0.829-10.241,2.761
	c-2.065,3.59-0.829,8.175,2.761,10.241c11.234,6.463,24.053,9.879,37.07,9.879c18.666,0,36.54-6.955,50.329-19.583
	c11.554-10.581,19.39-24.364,22.605-39.454c27.684,8.559,47.856,34.395,47.856,64.857V497h-241.58v-58.19
	c0-30.46,20.168-56.294,47.849-64.855c2.018,9.437,5.866,18.458,11.342,26.461c1.453,2.124,3.804,3.265,6.196,3.265
	c1.459,0,2.934-0.425,4.229-1.311c3.418-2.339,4.293-7.007,1.954-10.425c-4.306-6.293-7.356-13.372-8.986-20.78
	c0.265-0.021,0.529-0.043,0.795-0.061c0.487-0.033,0.975-0.065,1.461-0.088c1.003-0.044,2.008-0.077,3.022-0.077h4.929
	c0.01,0.039,0.023,0.078,0.033,0.117c0.062,0.235,0.133,0.466,0.198,0.699c0.131,0.469,0.262,0.938,0.406,1.402
	c0.085,0.275,0.179,0.545,0.269,0.818c0.138,0.417,0.276,0.833,0.424,1.245c0.103,0.286,0.212,0.569,0.32,0.853
	c0.149,0.391,0.3,0.781,0.458,1.167c0.118,0.288,0.241,0.574,0.365,0.859c0.163,0.376,0.329,0.75,0.501,1.121
	c0.131,0.284,0.265,0.565,0.401,0.846c0.178,0.366,0.361,0.728,0.547,1.089c0.143,0.276,0.286,0.552,0.434,0.826
	c0.195,0.36,0.397,0.716,0.6,1.07c0.151,0.263,0.301,0.527,0.456,0.787c0.218,0.364,0.444,0.721,0.671,1.079
	c0.153,0.242,0.303,0.486,0.461,0.725c0.255,0.387,0.519,0.765,0.785,1.144c0.141,0.201,0.276,0.406,0.42,0.605
	c0.408,0.564,0.825,1.12,1.255,1.666c0.051,0.065,0.105,0.127,0.156,0.191c0.392,0.493,0.792,0.979,1.202,1.455
	c0.165,0.192,0.337,0.377,0.505,0.566c0.3,0.338,0.6,0.676,0.908,1.005c0.199,0.212,0.403,0.417,0.605,0.626
	c0.289,0.297,0.577,0.594,0.873,0.884c0.217,0.213,0.44,0.421,0.661,0.631c0.291,0.275,0.584,0.549,0.881,0.817
	c0.231,0.208,0.465,0.411,0.699,0.615c0.299,0.26,0.601,0.516,0.906,0.768c0.24,0.199,0.482,0.395,0.727,0.589
	c0.31,0.247,0.624,0.489,0.94,0.728c0.247,0.187,0.494,0.373,0.745,0.556c0.326,0.237,0.656,0.468,0.987,0.697
	c0.249,0.172,0.498,0.346,0.751,0.514c0.349,0.232,0.703,0.456,1.058,0.679c0.242,0.152,0.482,0.308,0.727,0.456
	c0.396,0.239,0.798,0.468,1.201,0.697c0.213,0.121,0.422,0.247,0.636,0.364c0.611,0.335,1.228,0.658,1.854,0.967
	c0.046,0.023,0.093,0.044,0.139,0.066c0.598,0.293,1.201,0.575,1.812,0.845c0.225,0.099,0.454,0.19,0.681,0.286
	c0.429,0.182,0.859,0.363,1.294,0.534c0.266,0.104,0.535,0.199,0.803,0.299c0.403,0.149,0.806,0.298,1.213,0.437
	c0.286,0.098,0.574,0.189,0.863,0.281c0.396,0.127,0.793,0.252,1.193,0.37c0.298,0.088,0.598,0.17,0.898,0.252
	c0.398,0.109,0.797,0.213,1.198,0.312c0.304,0.075,0.61,0.147,0.916,0.216c0.405,0.092,0.812,0.177,1.221,0.259
	c0.306,0.061,0.613,0.122,0.921,0.177c0.418,0.075,0.839,0.142,1.26,0.207c0.303,0.046,0.605,0.094,0.909,0.135
	c0.441,0.059,0.884,0.108,1.328,0.155c0.289,0.031,0.577,0.066,0.868,0.092c0.493,0.044,0.989,0.075,1.485,0.104
	c0.245,0.015,0.487,0.036,0.733,0.047c0.744,0.033,1.491,0.052,2.242,0.052c13.25,0,25.706-5.159,35.068-14.523
	c0.696-0.695,1.361-1.416,2.012-2.149c0.141-0.159,0.282-0.317,0.421-0.478c0.626-0.724,1.234-1.463,1.816-2.221
	c0.094-0.122,0.183-0.248,0.275-0.371c0.527-0.699,1.034-1.412,1.523-2.137c0.093-0.138,0.19-0.275,0.281-0.414
	c0.526-0.798,1.026-1.612,1.505-2.439c0.1-0.173,0.197-0.347,0.295-0.521c0.469-0.832,0.921-1.674,1.341-2.531
	c0.012-0.025,0.026-0.049,0.038-0.074c0.43-0.882,0.826-1.78,1.204-2.686c0.076-0.182,0.151-0.363,0.225-0.545
	c0.363-0.9,0.704-1.809,1.014-2.73c0.035-0.104,0.066-0.21,0.1-0.315c0.285-0.866,0.545-1.741,0.782-2.623
	c0.027-0.099,0.062-0.195,0.088-0.294h4.94C309.941,370.94,310.946,370.972,311.949,371.017z"/>
<path d="M262.238,56.09c-0.28-0.41-0.591-0.8-0.94-1.14c-1.39-1.4-3.32-2.2-5.3-2.2c-1.98,0-3.91,0.8-5.3,2.2
	c-0.351,0.34-0.66,0.73-0.94,1.14c-0.27,0.4-0.5,0.84-0.69,1.29c-0.18,0.45-0.329,0.93-0.42,1.4c-0.1,0.49-0.149,0.98-0.149,1.47
	s0.05,0.98,0.149,1.47c0.091,0.47,0.24,0.95,0.42,1.4c0.19,0.45,0.421,0.89,0.69,1.29c0.28,0.41,0.59,0.8,0.94,1.14
	c1.39,1.4,3.33,2.2,5.3,2.2s3.91-0.8,5.3-2.2c0.35-0.34,0.66-0.73,0.94-1.14c0.27-0.4,0.5-0.84,0.689-1.29
	c0.18-0.45,0.33-0.93,0.42-1.4c0.101-0.49,0.15-0.98,0.15-1.47s-0.05-0.98-0.15-1.47c-0.09-0.47-0.24-0.95-0.42-1.4
	C262.738,56.93,262.508,56.49,262.238,56.09z"/>
<g>
</g>
<g>
</g>
<g>
</g>
<g>
</g>
<g>
</g>
<g>
</g>
<g>
</g>
<g>
</g>
<g>
</g>
<g>
</g>
<g>
</g>
<g>
</g>
<g>
</g>
<g>
</g>
<g>
</g>
</svg>
