<?xml version="1.0" encoding="iso-8859-1"?>
<!-- Generator: Adobe Illustrator 19.0.0, SVG Export Plug-In . SVG Version: 6.00 Build 0)  -->
<svg version="1.1" id="Capa_1" xmlns="http://www.w3.org/2000/svg" xmlns:xlink="http://www.w3.org/1999/xlink" x="0px" y="0px"
	 viewBox="0 0 512 512" style="enable-background:new 0 0 512 512;" xml:space="preserve">
<path style="fill:#2D6CCF;" d="M369.984,46.333c-34.464,0-64.56-15.614-80.708-38.833h-66.554
	c-16.148,23.219-46.243,38.833-80.708,38.833c-18.371,0-35.499-4.439-49.936-12.099c-2.91-1.544-6.412,0.596-6.412,3.889v61.679
	c0,43.805,35.511,79.316,79.316,79.316h182.035c43.805,0,79.316-35.511,79.316-79.316V38.124c0-3.294-3.503-5.433-6.412-3.889
	C405.483,41.895,388.355,46.333,369.984,46.333z"/>
<path style="fill:#2159AA;" d="M419.921,34.234c-5.052,2.68-10.44,4.956-16.088,6.796v58.773c0,43.805-35.511,79.316-79.316,79.316
	h22.501c43.805,0,79.316-35.511,79.316-79.316V38.124C426.333,34.83,422.831,32.691,419.921,34.234z"/>
<path style="fill:#825939;" d="M113,132.455c0-12.671,10.272-22.943,22.943-22.943h240.113c12.671,0,22.943,10.272,22.943,22.943
	v139.271H113V132.455z"/>
<path style="fill:#FFB700;" d="M376.057,109.512H135.943c-12.671,0-22.943,10.272-22.943,22.943v5.337h286v-5.337
	C399,119.784,388.728,109.512,376.057,109.512z"/>
<path style="fill:#F0EEEE;" d="M203.073,363.444h105.855c41.621,0,75.362,33.741,75.362,75.362V504.5H127.711v-65.694
	C127.711,397.184,161.452,363.444,203.073,363.444z"/>
<path style="fill:#2D6CCF;" d="M203.073,363.444h105.855c41.621,0,75.362,33.741,75.362,75.362V504.5H127.711v-65.694
	C127.711,397.184,161.452,363.444,203.073,363.444z"/>
<path style="fill:#2159AA;" d="M308.927,363.444h-22.501c41.621,0,75.362,33.741,75.362,75.362V504.5h22.501v-65.695
	C384.289,397.184,350.548,363.444,308.927,363.444z"/>
<g>
	<path style="fill:#4A89E5;" d="M292.248,347.5L256,414.493l37,29.007l27.588-60.224c4.421-9.65,0.452-21.07-9.001-25.898
		L292.248,347.5z"/>
	<path style="fill:#4A89E5;" d="M219.752,347.5L256,414.493L219,443.5l-27.588-60.224c-4.421-9.65-0.452-21.07,9.001-25.898
		L219.752,347.5z"/>
</g>
<g>
	<path style="fill:#FA9E3E;" d="M213.904,281.729v90.668c0,23.249,18.847,42.096,42.096,42.096l0,0
		c23.249,0,42.096-18.847,42.096-42.096v-90.668H213.904z"/>
	<path style="fill:#FA9E3E;" d="M125.839,237.99h49.369v56.61h-49.369c-15.632,0-28.305-12.673-28.305-28.305
		C97.534,250.662,110.207,237.99,125.839,237.99z"/>
	<path style="fill:#FA9E3E;" d="M386.161,237.99h-49.369v56.61h49.369c15.632,0,28.305-12.673,28.305-28.305
		C414.466,250.662,401.793,237.99,386.161,237.99z"/>
</g>
<path style="fill:#FFB56B;" d="M368.115,244.675c0,61.919-50.195,112.115-112.115,112.115l0,0
	c-61.919,0-112.115-50.195-112.115-112.115V137.792h224.229L368.115,244.675L368.115,244.675z"/>
<path style="fill:#EF9245;" d="M344.781,137.792v118.551c0,53.578-41.949,97.354-94.795,100.286
	c1.992,0.105,3.996,0.161,6.014,0.161l0,0c61.919,0,112.115-50.195,112.115-112.115V137.792H344.781z"/>
<g>
	<path style="fill:#5880A2;" d="M375.629,232.118c0,25.929-21.02,46.948-46.948,46.948l0,0c-25.929,0-46.948-21.019-46.948-46.948
		v-20.601h93.897v20.601H375.629z"/>
	<path style="fill:#5880A2;" d="M183.32,279.066L183.32,279.066c-25.929,0-46.948-21.019-46.948-46.948v-20.601h93.897v20.601
		C230.268,258.046,209.248,279.066,183.32,279.066z"/>
</g>
<path style="fill:#2D6CCF;" d="M133.118,137.792c17.683,27.483,48.539,45.687,83.647,45.687h78.47
	c35.109,0,65.964-18.204,83.647-45.687H133.118z"/>
<path style="fill:#D69400;" d="M290.177,55.664c-14.013,0-26.438-6.786-34.177-17.248c-7.74,10.462-20.164,17.248-34.177,17.248
	c-0.64,0-1.275-0.02-1.908-0.048C219.32,58.876,219,62.231,219,65.663c0,24.205,15.437,44.797,37,52.489
	c21.563-7.692,37-28.284,37-52.489c0-3.432-0.32-6.787-0.915-10.047C291.452,55.644,290.817,55.664,290.177,55.664z"/>
<polygon style="fill:#2A434F;" points="233.005,432.52 256,455.515 278.995,432.52 256,414.493 "/>
<polygon style="fill:#3D5868;" points="267.958,443.557 256,455.515 244.042,443.558 231.945,504.5 280.055,504.5 "/>
<path d="M433.83,99.8V38.12c0-4.209-2.154-8.019-5.763-10.192c-3.594-2.165-7.951-2.289-11.662-0.324
	c-13.844,7.344-29.897,11.226-46.425,11.226c-30.712,0-59.274-13.645-74.542-35.611C294.037,1.203,291.736,0,289.28,0h-66.56
	c-2.456,0-4.757,1.203-6.158,3.219c-15.268,21.966-43.83,35.611-74.542,35.611c-16.528,0-32.581-3.882-46.432-11.229
	c-3.705-1.961-8.063-1.838-11.655,0.327c-3.608,2.173-5.763,5.983-5.763,10.192V64c0,4.142,3.357,7.5,7.5,7.5
	c4.143,0,7.5-3.358,7.5-7.5V43.156c14.896,6.996,31.675,10.674,48.85,10.674c34.054,0,66.027-14.786,84.505-38.83h58.951
	c18.478,24.044,50.451,38.83,84.505,38.83c17.178,0,33.957-3.679,48.85-10.674V99.8c0,14.481-4.376,28.452-12.33,40.218v-2.226
	v-5.336c0-16.787-13.657-30.443-30.443-30.443h-70.564c-4.143,0-7.5,3.358-7.5,7.5s3.357,7.5,7.5,7.5h70.564
	c0.511,0,1.015,0.028,1.513,0.077c0.165,0.016,0.325,0.047,0.488,0.068c0.33,0.043,0.66,0.087,0.984,0.151
	c0.191,0.038,0.377,0.088,0.566,0.133c0.288,0.068,0.576,0.137,0.858,0.221c0.196,0.058,0.387,0.127,0.58,0.193
	c0.267,0.091,0.532,0.185,0.791,0.29c0.192,0.078,0.38,0.163,0.569,0.248c0.25,0.113,0.497,0.231,0.74,0.357
	c0.185,0.096,0.366,0.196,0.547,0.299c0.236,0.135,0.468,0.276,0.696,0.424c0.173,0.112,0.346,0.225,0.514,0.343
	c0.224,0.157,0.441,0.323,0.656,0.491c0.159,0.125,0.319,0.249,0.474,0.38c0.213,0.181,0.417,0.372,0.62,0.564
	c0.142,0.134,0.287,0.266,0.423,0.405c0.207,0.211,0.401,0.433,0.596,0.656c0.118,0.135,0.241,0.264,0.354,0.403
	c0.219,0.268,0.422,0.549,0.623,0.832c0.074,0.105,0.156,0.204,0.228,0.311c0.265,0.395,0.514,0.802,0.742,1.221
	c0.051,0.093,0.092,0.193,0.141,0.287c0.171,0.33,0.337,0.662,0.485,1.005c0.07,0.163,0.127,0.332,0.192,0.497
	c0.11,0.283,0.221,0.567,0.315,0.858c0.061,0.19,0.111,0.386,0.165,0.579c0.077,0.276,0.153,0.552,0.215,0.833
	c0.046,0.207,0.081,0.417,0.118,0.627c0.031,0.174,0.056,0.35,0.081,0.527h-12.429c-0.007,0-0.014-0.002-0.021-0.002H133.12
	c-0.007,0-0.014,0.002-0.021,0.002H120.67c0.025-0.176,0.05-0.352,0.08-0.527c0.037-0.21,0.072-0.42,0.118-0.627
	c0.062-0.281,0.137-0.557,0.215-0.833c0.054-0.194,0.103-0.389,0.165-0.579c0.094-0.291,0.204-0.574,0.315-0.858
	c0.065-0.165,0.121-0.335,0.192-0.497c0.147-0.341,0.312-0.672,0.482-1c0.05-0.096,0.092-0.198,0.144-0.293
	c0.229-0.419,0.477-0.826,0.742-1.221c0.072-0.107,0.154-0.206,0.228-0.311c0.201-0.283,0.404-0.564,0.623-0.832
	c0.113-0.139,0.236-0.268,0.354-0.403c0.194-0.222,0.389-0.445,0.596-0.656c0.137-0.14,0.282-0.271,0.424-0.405
	c0.203-0.192,0.407-0.383,0.62-0.564c0.154-0.131,0.314-0.255,0.474-0.38c0.215-0.168,0.432-0.334,0.656-0.491
	c0.169-0.118,0.341-0.232,0.515-0.343c0.228-0.147,0.46-0.288,0.696-0.424c0.18-0.103,0.362-0.203,0.547-0.299
	c0.243-0.126,0.49-0.244,0.74-0.357c0.188-0.085,0.377-0.17,0.569-0.248c0.259-0.105,0.525-0.199,0.791-0.29
	c0.193-0.066,0.384-0.135,0.58-0.193c0.282-0.084,0.57-0.153,0.858-0.221c0.188-0.045,0.374-0.095,0.565-0.133
	c0.324-0.064,0.654-0.108,0.984-0.151c0.163-0.021,0.323-0.052,0.488-0.068c0.498-0.049,1.003-0.077,1.514-0.077H204
	c4.143,0,7.5-3.358,7.5-7.5s-3.357-7.5-7.5-7.5h-68.057c-16.786,0-30.443,13.657-30.443,30.443v5.336v2.226
	c-7.954-11.766-12.33-25.736-12.33-40.218V94c0-4.142-3.357-7.5-7.5-7.5c-4.143,0-7.5,3.358-7.5,7.5v5.8
	c0,23.996,9.922,46.84,27.33,63.227v73.822c-9.338,6.468-15.47,17.249-15.47,29.441c0,19.746,16.064,35.81,35.81,35.81h25.211
	c5.445,9.94,12.278,19.058,20.366,27.153c8.195,8.195,17.383,15.058,27.413,20.512l-1.825,0.932
	c-3.158,1.609-5.962,3.827-8.26,6.496c-39.286,6.851-68.535,41.382-68.535,81.617v65.69c0,4.142,3.357,7.5,7.5,7.5h104.235h48.109
	H384.29c4.143,0,7.5-3.358,7.5-7.5v-65.69c0-40.229-29.241-74.757-68.519-81.614c-2.306-2.674-5.118-4.889-8.27-6.495l-1.861-0.951
	c20.11-10.936,36.713-27.431,47.785-47.65h25.235c19.745,0,35.81-16.065,35.81-35.81c0-12.192-6.132-22.973-15.47-29.441v-73.822
	C423.908,146.64,433.83,123.796,433.83,99.8z M363.766,145.292c-0.38,0.426-0.766,0.85-1.155,1.269
	c-17.341,18.697-41.896,29.42-67.371,29.42h-78.48c-6.369,0-12.68-0.67-18.835-1.968c-3.078-0.649-6.117-1.454-9.104-2.411
	c-0.747-0.239-1.491-0.488-2.231-0.746c-14.065-4.904-26.905-13.194-37.201-24.296c-0.389-0.419-0.774-0.842-1.155-1.268
	L363.766,145.292L363.766,145.292z M155.567,260.152c-1.69-1.672-3.24-3.507-4.624-5.492c-0.001-0.001-0.002-0.003-0.003-0.004
	c-3.638-5.214-5.974-11.297-6.761-17.634c-0.204-1.566-0.308-3.216-0.308-4.902v-13.1h0.02h78.88v13.1
	c0,21.753-17.697,39.45-39.449,39.45c-1.611,0-3.21-0.099-4.789-0.292C169.846,270.213,161.765,266.282,155.567,260.152z
	 M237.77,219.016h36.461v10.604H237.77V219.016z M289.23,232.12v-13.1h78.88h0.02v13.1c0,1.686-0.104,3.336-0.313,4.946
	c-0.098,0.787-0.22,1.57-0.366,2.349c-1.021,5.452-3.208,10.681-6.394,15.245c-7.383,10.588-19.487,16.91-32.378,16.91
	c-10.539,0-20.445-4.103-27.895-11.553C293.334,252.566,289.23,242.659,289.23,232.12z M281.81,204.02
	c-0.026,0-0.051-0.004-0.077-0.004h-51.465c-0.026,0-0.051,0.004-0.077,0.004H151.39v-35.39c0.129,0.1,0.263,0.191,0.393,0.29
	c1.009,0.771,2.027,1.529,3.061,2.263c0.036,0.025,0.071,0.052,0.107,0.078c1.063,0.753,2.144,1.478,3.232,2.191
	c0.235,0.153,0.469,0.307,0.704,0.459c1.075,0.691,2.159,1.366,3.257,2.018c0.169,0.101,0.341,0.197,0.511,0.297
	c1.016,0.596,2.042,1.175,3.077,1.736c0.19,0.103,0.377,0.209,0.567,0.311c1.125,0.602,2.262,1.182,3.407,1.744
	c0.241,0.118,0.482,0.233,0.724,0.35c1.167,0.561,2.34,1.109,3.526,1.628c0.014,0.006,0.027,0.012,0.041,0.018
	c1.197,0.523,2.407,1.017,3.622,1.496c0.252,0.1,0.505,0.199,0.758,0.297c1.194,0.46,2.395,0.902,3.605,1.32
	c0.185,0.064,0.371,0.123,0.556,0.186c1.119,0.379,2.245,0.74,3.376,1.082c0.201,0.061,0.402,0.125,0.603,0.185
	c1.225,0.363,2.458,0.702,3.697,1.021c0.261,0.067,0.523,0.132,0.785,0.197c1.266,0.316,2.537,0.617,3.816,0.887
	c0.006,0.001,0.011,0.003,0.017,0.004c1.282,0.27,2.571,0.509,3.863,0.732c0.271,0.047,0.543,0.094,0.814,0.139
	c1.265,0.209,2.534,0.397,3.808,0.56c0.206,0.026,0.412,0.048,0.619,0.073c1.172,0.143,2.347,0.266,3.526,0.37
	c0.213,0.019,0.426,0.041,0.64,0.059c1.28,0.105,2.564,0.184,3.85,0.243c0.28,0.013,0.56,0.022,0.84,0.033
	c1.32,0.05,2.642,0.083,3.967,0.083h78.48c1.325,0,2.647-0.034,3.967-0.083c0.28-0.011,0.56-0.02,0.841-0.033
	c1.286-0.059,2.57-0.138,3.85-0.243c0.214-0.017,0.426-0.04,0.64-0.059c1.178-0.104,2.354-0.227,3.526-0.37
	c0.206-0.025,0.413-0.047,0.619-0.073c1.274-0.163,2.543-0.352,3.808-0.56c0.272-0.045,0.543-0.092,0.815-0.139
	c1.293-0.223,2.582-0.462,3.863-0.732c0.006-0.001,0.011-0.003,0.017-0.004c1.279-0.27,2.55-0.571,3.817-0.887
	c0.261-0.065,0.522-0.129,0.782-0.197c1.24-0.32,2.474-0.658,3.7-1.022c0.2-0.059,0.398-0.122,0.597-0.183
	c1.134-0.343,2.263-0.705,3.385-1.085c0.183-0.062,0.367-0.121,0.55-0.184c1.211-0.418,2.414-0.861,3.609-1.322
	c0.251-0.097,0.502-0.196,0.753-0.295c1.217-0.48,2.428-0.974,3.627-1.498c0.011-0.005,0.022-0.01,0.033-0.015
	c1.19-0.52,2.367-1.069,3.537-1.632c0.239-0.115,0.478-0.229,0.716-0.346c1.148-0.563,2.287-1.144,3.414-1.748
	c0.187-0.1,0.371-0.204,0.557-0.305c1.04-0.565,2.072-1.147,3.094-1.746c0.165-0.097,0.332-0.191,0.497-0.288
	c1.101-0.654,2.188-1.33,3.266-2.023c0.232-0.149,0.463-0.301,0.694-0.452c1.092-0.715,2.177-1.443,3.243-2.198
	c0.028-0.02,0.055-0.04,0.083-0.06c1.044-0.74,2.07-1.505,3.088-2.283c0.127-0.097,0.258-0.187,0.384-0.284v35.39H281.81V204.02z
	 M120.5,145.292h8.639c2.238,3.195,4.669,6.27,7.25,9.214v49.514h-0.02c-4.143,0-7.5,3.358-7.5,7.5v18.97h-3.03
	c-1.814,0-3.597,0.138-5.34,0.4L120.5,145.292L120.5,145.292z M125.84,287.1c-11.475,0-20.81-9.336-20.81-20.81
	c0-11.469,9.335-20.8,20.81-20.8h4.695c0.232,0.915,0.496,1.821,0.775,2.723c0.074,0.238,0.15,0.474,0.227,0.711
	c0.267,0.822,0.55,1.639,0.856,2.448c0.043,0.114,0.081,0.229,0.125,0.343c0.346,0.896,0.721,1.781,1.114,2.658
	c0.103,0.23,0.21,0.458,0.316,0.686c0.35,0.755,0.716,1.502,1.101,2.24c0.074,0.142,0.143,0.286,0.218,0.427
	c0.449,0.842,0.924,1.67,1.416,2.488c0.131,0.217,0.266,0.432,0.4,0.647c0.17,0.273,0.333,0.551,0.507,0.821
	c0.141,0.991,0.298,1.979,0.463,2.964c0.014,0.085,0.026,0.171,0.04,0.256c0.247,1.449,0.529,2.888,0.828,4.323
	c0.075,0.361,0.152,0.721,0.231,1.081c0.314,1.438,0.644,2.872,1.011,4.296c0.007,0.029,0.016,0.057,0.023,0.085
	c0.362,1.401,0.758,2.792,1.17,4.178c0.105,0.353,0.211,0.705,0.32,1.057c0.43,1.395,0.876,2.785,1.357,4.163
	c0.038,0.107,0.079,0.213,0.117,0.32c0.317,0.902,0.641,1.801,0.98,2.695L125.84,287.1L125.84,287.1z M225.284,360.305
	c0.276,0.073,0.553,0.143,0.83,0.214c1.106,0.285,2.216,0.556,3.33,0.809c0.185,0.042,0.368,0.088,0.553,0.129
	c1.25,0.278,2.506,0.531,3.766,0.768c0.291,0.055,0.582,0.106,0.874,0.159c1.157,0.209,2.316,0.403,3.48,0.577
	c0.143,0.021,0.285,0.046,0.428,0.067c1.274,0.186,2.552,0.346,3.834,0.491c0.304,0.034,0.608,0.066,0.913,0.098
	c1.222,0.129,2.447,0.243,3.675,0.335c0.084,0.006,0.167,0.015,0.251,0.021c1.295,0.093,2.594,0.16,3.896,0.212
	c0.316,0.013,0.632,0.024,0.948,0.034c1.31,0.042,2.622,0.071,3.939,0.071s2.629-0.029,3.939-0.071
	c0.316-0.01,0.632-0.021,0.948-0.034c1.302-0.052,2.601-0.118,3.895-0.212c0.084-0.006,0.168-0.015,0.252-0.021
	c1.229-0.091,2.453-0.206,3.675-0.335c0.304-0.032,0.607-0.064,0.91-0.098c1.283-0.145,2.563-0.306,3.838-0.492
	c0.139-0.02,0.276-0.044,0.415-0.065c1.171-0.175,2.337-0.371,3.5-0.58c0.285-0.051,0.571-0.102,0.856-0.156
	c1.264-0.238,2.525-0.492,3.78-0.771c0.176-0.039,0.351-0.082,0.527-0.122c1.126-0.255,2.249-0.529,3.367-0.818
	c0.267-0.069,0.534-0.136,0.801-0.207c1.241-0.329,2.477-0.677,3.708-1.047c0.062-0.019,0.125-0.034,0.187-0.053V372.4
	c0,9.245-3.598,17.93-10.134,24.457c-6.534,6.535-15.223,10.133-24.466,10.133c-19.078,0-34.6-15.517-34.6-34.59v-13.191
	c0.065,0.02,0.132,0.036,0.197,0.056C222.822,359.632,224.051,359.978,225.284,360.305z M312.863,368.251
	c0.293,0.446,0.555,0.906,0.786,1.377c1.613,3.297,1.679,7.13,0.122,10.528l-23.629,51.574l-16.514-12.948
	c0.208-0.079,0.41-0.171,0.617-0.253c0.435-0.172,0.867-0.348,1.297-0.532c0.343-0.147,0.683-0.298,1.022-0.453
	c0.424-0.193,0.845-0.393,1.264-0.599c0.334-0.164,0.667-0.331,0.998-0.503c0.416-0.216,0.827-0.44,1.237-0.668
	c0.324-0.18,0.646-0.36,0.966-0.548c0.411-0.241,0.816-0.492,1.221-0.745c0.308-0.193,0.617-0.384,0.921-0.584
	c0.41-0.27,0.814-0.552,1.217-0.834c0.288-0.202,0.578-0.399,0.862-0.608c0.416-0.305,0.824-0.625,1.232-0.944
	c0.26-0.203,0.524-0.401,0.78-0.61c0.445-0.363,0.88-0.742,1.314-1.122c0.208-0.182,0.421-0.355,0.626-0.541
	c0.635-0.573,1.258-1.163,1.867-1.771c9.37-9.358,14.53-21.812,14.53-35.067v-9.658l2.585,1.32
	C310.076,365.026,311.694,366.476,312.863,368.251z M262.654,438.254L256,444.909l-11.707-11.707L256,424.023l11.707,9.178
	l-5.051,5.051C262.656,438.253,262.655,438.253,262.654,438.254z M197.666,378.692c-0.051-0.164-0.079-0.331-0.123-0.496
	c-0.09-0.334-0.185-0.667-0.246-1.005c-0.036-0.199-0.046-0.4-0.072-0.6c-0.04-0.306-0.088-0.612-0.105-0.919
	c-0.012-0.215,0.003-0.43,0.002-0.645c0-0.293-0.009-0.585,0.011-0.877c0.016-0.221,0.057-0.44,0.084-0.66
	c0.036-0.283,0.063-0.567,0.119-0.847c0.044-0.222,0.112-0.439,0.169-0.659c0.07-0.274,0.133-0.549,0.223-0.819
	c0.072-0.218,0.168-0.429,0.253-0.644c0.104-0.264,0.202-0.529,0.325-0.787c0.101-0.211,0.224-0.414,0.337-0.62
	c0.144-0.262,0.281-0.526,0.445-0.78c0.021-0.032,0.044-0.063,0.065-0.095c1.158-1.769,2.77-3.213,4.667-4.18l2.579-1.317v9.658
	c0,0.775,0.023,1.544,0.059,2.31c0.011,0.235,0.027,0.468,0.041,0.702c0.033,0.547,0.074,1.091,0.125,1.633
	c0.023,0.247,0.046,0.493,0.073,0.738c0.065,0.598,0.141,1.192,0.227,1.784c0.023,0.157,0.041,0.316,0.065,0.473
	c0.115,0.741,0.247,1.476,0.395,2.206c0.037,0.184,0.081,0.365,0.12,0.548c0.119,0.554,0.245,1.105,0.383,1.652
	c0.059,0.234,0.12,0.468,0.182,0.701c0.14,0.525,0.289,1.047,0.446,1.566c0.06,0.199,0.117,0.398,0.179,0.596
	c0.222,0.703,0.457,1.402,0.709,2.091c0.027,0.074,0.058,0.147,0.085,0.221c0.229,0.616,0.471,1.226,0.723,1.831
	c0.086,0.205,0.175,0.408,0.264,0.612c0.211,0.487,0.43,0.97,0.656,1.449c0.095,0.202,0.19,0.404,0.288,0.605
	c0.28,0.572,0.57,1.138,0.871,1.697c0.044,0.081,0.084,0.164,0.128,0.246c0.35,0.641,0.715,1.272,1.092,1.896
	c0.098,0.162,0.201,0.321,0.3,0.482c0.288,0.464,0.582,0.924,0.884,1.378c0.126,0.189,0.252,0.376,0.38,0.563
	c0.314,0.458,0.637,0.91,0.966,1.357c0.104,0.141,0.205,0.285,0.311,0.425c0.437,0.581,0.885,1.152,1.347,1.712
	c0.075,0.091,0.153,0.178,0.229,0.269c0.39,0.466,0.787,0.925,1.193,1.377c0.146,0.163,0.295,0.323,0.443,0.484
	c0.361,0.391,0.729,0.776,1.102,1.156c0.146,0.148,0.29,0.298,0.438,0.444c0.505,0.5,1.018,0.993,1.544,1.472
	c0.007,0.007,0.015,0.014,0.022,0.021c0.538,0.489,1.09,0.963,1.649,1.429c0.155,0.129,0.313,0.254,0.47,0.381
	c0.415,0.337,0.834,0.667,1.26,0.991c0.179,0.136,0.358,0.272,0.54,0.406c0.463,0.342,0.933,0.676,1.408,1.002
	c0.126,0.086,0.249,0.176,0.375,0.261c0.602,0.405,1.213,0.797,1.833,1.176c0.137,0.084,0.277,0.163,0.415,0.245
	c0.489,0.292,0.982,0.577,1.481,0.853c0.202,0.111,0.405,0.22,0.608,0.329c0.47,0.251,0.945,0.494,1.424,0.73
	c0.187,0.092,0.372,0.187,0.56,0.277c0.659,0.315,1.323,0.618,1.997,0.904c0.047,0.02,0.096,0.038,0.143,0.058
	c0.515,0.217,1.034,0.428,1.558,0.628l-16.537,12.966l-23.629-51.573C198.008,379.676,197.822,379.187,197.666,378.692z
	 M135.21,438.81c0-29.719,19.474-55.646,46.889-64.563c-0.002,0.073,0.002,0.146,0,0.218c-0.004,0.215-0.001,0.429,0,0.644
	c0.001,0.33,0.005,0.659,0.018,0.989c0.009,0.225,0.024,0.449,0.039,0.674c0.021,0.321,0.046,0.642,0.079,0.962
	c0.023,0.228,0.05,0.455,0.079,0.683c0.041,0.319,0.087,0.637,0.139,0.954c0.037,0.226,0.075,0.452,0.118,0.677
	c0.061,0.321,0.13,0.64,0.203,0.959c0.05,0.22,0.098,0.439,0.154,0.658c0.083,0.329,0.178,0.657,0.274,0.984
	c0.06,0.206,0.116,0.411,0.182,0.616c0.115,0.359,0.243,0.716,0.373,1.072c0.061,0.169,0.117,0.339,0.182,0.508
	c0.202,0.523,0.419,1.043,0.655,1.557l27.59,60.22c0.957,2.088,2.817,3.623,5.049,4.165c0.285,0.069,0.572,0.12,0.86,0.155
	c0.119,0.014,0.238,0.015,0.356,0.024c0.169,0.012,0.337,0.029,0.506,0.03c0.016,0,0.031,0.003,0.047,0.003
	c0.044,0,0.088-0.01,0.132-0.011c0.315-0.006,0.627-0.033,0.938-0.078c0.1-0.014,0.2-0.029,0.299-0.048
	c0.354-0.066,0.704-0.149,1.046-0.265c0.035-0.012,0.068-0.029,0.103-0.041c0.314-0.112,0.618-0.249,0.916-0.402
	c0.088-0.045,0.174-0.091,0.26-0.14c0.323-0.183,0.638-0.381,0.934-0.613l8.773-6.879l3.504,3.504L225.788,497H135.21V438.81z
	 M241.08,497l7.585-38.213l2.031,2.031c0.356,0.356,0.739,0.666,1.142,0.936c2.499,1.672,5.781,1.681,8.288,0.025
	c0.416-0.275,0.81-0.595,1.177-0.961l2.031-2.031L270.92,497H241.08z M376.79,438.81V497h-90.578l-10.118-50.972l3.504-3.504
	l8.773,6.879c0.297,0.232,0.612,0.431,0.935,0.614c0.085,0.048,0.169,0.093,0.256,0.138c0.302,0.156,0.61,0.295,0.928,0.408
	c0.031,0.011,0.06,0.026,0.091,0.036c0.344,0.117,0.697,0.201,1.054,0.267c0.096,0.018,0.191,0.032,0.288,0.046
	c0.317,0.046,0.636,0.074,0.957,0.079c0.04,0.001,0.079,0.01,0.119,0.01c0.014,0,0.029-0.002,0.043-0.003
	c0.187-0.001,0.374-0.018,0.561-0.033c0.101-0.008,0.202-0.008,0.302-0.02c0.289-0.035,0.577-0.086,0.863-0.155
	c2.232-0.542,4.092-2.077,5.049-4.165l27.59-60.22l0,0c0.236-0.515,0.452-1.035,0.655-1.558c0.065-0.169,0.12-0.339,0.182-0.508
	c0.13-0.356,0.258-0.712,0.372-1.071c0.065-0.204,0.121-0.41,0.181-0.615c0.096-0.328,0.19-0.655,0.274-0.985
	c0.055-0.219,0.104-0.438,0.153-0.658c0.073-0.319,0.142-0.639,0.203-0.96c0.043-0.225,0.081-0.45,0.118-0.676
	c0.052-0.319,0.099-0.637,0.139-0.957c0.029-0.226,0.055-0.452,0.078-0.679c0.033-0.322,0.058-0.645,0.079-0.967
	c0.015-0.223,0.03-0.445,0.039-0.668c0.014-0.333,0.017-0.667,0.018-1c0.001-0.211,0.005-0.421,0-0.631
	c-0.001-0.074,0.002-0.148,0-0.222C357.316,383.164,376.79,409.091,376.79,438.81z M295.277,341.661
	c-12.463,5.062-25.678,7.629-39.277,7.629c-1.7,0-3.394-0.04-5.081-0.12c-0.921-0.044-1.838-0.102-2.755-0.169
	c-10.841-0.798-21.388-3.256-31.449-7.343c-13.021-5.271-24.693-13.013-34.688-23.008c-8.054-8.062-14.688-17.278-19.724-27.394
	c-0.579-1.163-1.128-2.339-1.662-3.52c-0.145-0.321-0.287-0.643-0.429-0.965c-0.441-1.002-0.867-2.009-1.275-3.023
	c-0.083-0.207-0.172-0.412-0.254-0.619c-0.4-1.012-0.773-2.034-1.141-3.058c0.09,0.048,0.184,0.089,0.275,0.137
	c0.529,0.281,1.07,0.54,1.608,0.803c0.448,0.219,0.891,0.445,1.345,0.652c0.546,0.249,1.103,0.474,1.658,0.705
	c0.46,0.191,0.915,0.391,1.379,0.57c0.564,0.217,1.138,0.408,1.709,0.607c0.468,0.162,0.931,0.335,1.403,0.484
	c0.583,0.185,1.176,0.342,1.766,0.507c0.471,0.132,0.938,0.276,1.413,0.395c0.609,0.153,1.227,0.276,1.842,0.408
	c0.465,0.1,0.927,0.213,1.395,0.301c0.649,0.121,1.305,0.211,1.96,0.309c0.443,0.066,0.883,0.148,1.329,0.204
	c0.733,0.091,1.473,0.147,2.211,0.208c0.374,0.031,0.745,0.079,1.12,0.103c1.117,0.069,2.239,0.106,3.366,0.106
	c25.721,0,47.319-17.934,52.985-41.95h39.373c2.082,8.904,6.374,17.143,12.625,24.036c0.606,0.669,1.231,1.324,1.874,1.967
	c10.284,10.284,23.958,15.947,38.503,15.947c1.127,0,2.249-0.036,3.366-0.105c0.372-0.023,0.739-0.071,1.109-0.102
	c0.743-0.061,1.486-0.118,2.223-0.209c0.439-0.055,0.872-0.136,1.309-0.201c0.661-0.099,1.324-0.189,1.979-0.312
	c0.463-0.087,0.919-0.199,1.379-0.298c0.621-0.133,1.244-0.258,1.858-0.412c0.472-0.118,0.935-0.261,1.403-0.392
	c0.593-0.166,1.189-0.324,1.775-0.51c0.473-0.15,0.937-0.322,1.405-0.485c0.57-0.198,1.143-0.389,1.705-0.605
	c0.467-0.18,0.925-0.381,1.387-0.573c0.552-0.23,1.105-0.454,1.649-0.701c0.458-0.209,0.905-0.437,1.357-0.658
	c0.534-0.261,1.069-0.517,1.593-0.796c0.091-0.048,0.186-0.089,0.276-0.138c-0.368,1.022-0.741,2.042-1.141,3.053
	c-0.085,0.215-0.177,0.428-0.264,0.642c-0.406,1.004-0.828,2.003-1.266,2.995c-0.144,0.326-0.288,0.652-0.435,0.976
	c-0.532,1.173-1.078,2.341-1.654,3.497c-0.003,0.007-0.006,0.013-0.01,0.02C338.277,314.169,318.956,332.068,295.277,341.661z
	 M386.16,287.1h-18.294c0.345-0.909,0.675-1.823,0.997-2.74c0.029-0.084,0.062-0.166,0.091-0.25
	c0.485-1.388,0.936-2.787,1.368-4.192c0.106-0.344,0.209-0.688,0.312-1.033c0.412-1.381,0.806-2.768,1.168-4.165
	c0.01-0.038,0.021-0.076,0.031-0.114c0.366-1.421,0.696-2.852,1.01-4.287c0.08-0.364,0.158-0.729,0.234-1.094
	c0.299-1.434,0.581-2.872,0.827-4.319c0.015-0.086,0.026-0.173,0.04-0.258c0.166-0.986,0.323-1.975,0.464-2.967
	c0.179-0.277,0.346-0.561,0.52-0.842c0.127-0.204,0.254-0.407,0.378-0.612c0.497-0.824,0.975-1.658,1.427-2.506
	c0.073-0.136,0.139-0.275,0.21-0.412c0.384-0.737,0.75-1.482,1.1-2.235c0.111-0.238,0.222-0.475,0.329-0.715
	c0.387-0.864,0.757-1.735,1.098-2.618c0.058-0.151,0.109-0.304,0.166-0.455c0.285-0.757,0.551-1.52,0.801-2.288
	c0.091-0.28,0.182-0.559,0.268-0.84c0.273-0.884,0.531-1.772,0.758-2.669h4.695c2.604,0,5.088,0.502,7.387,1.379
	c1.132,1.201,2.654,2.024,4.366,2.273c5.463,3.753,9.056,10.036,9.056,17.148C406.97,277.765,397.635,287.1,386.16,287.1z
	 M386.16,230.49h-3.03v-18.97c0-4.142-3.357-7.5-7.5-7.5h-0.02v-49.514c2.581-2.944,5.012-6.02,7.25-9.215h8.639v85.598
	C389.757,230.628,387.975,230.49,386.16,230.49z"/>
<path d="M283.77,277.402c-3.404-2.358-8.078-1.509-10.435,1.896c-3.943,5.694-10.423,9.094-17.334,9.094
	c-6.911,0-13.391-3.399-17.334-9.094c-2.358-3.405-7.032-4.254-10.436-1.896c-3.405,2.358-4.255,7.031-1.896,10.436
	c6.745,9.739,17.835,15.554,29.666,15.554c11.831,0,22.921-5.815,29.666-15.554C288.024,284.433,287.175,279.761,283.77,277.402z"/>
<path d="M256,125.652c0.853,0,1.705-0.146,2.521-0.436c25.109-8.958,41.979-32.89,41.979-59.553c0-3.789-0.349-7.622-1.037-11.393
	c-0.673-3.689-3.969-6.317-7.713-6.147c-0.522,0.024-1.045,0.041-1.573,0.041c-11.208,0-21.468-5.179-28.147-14.209
	c-1.414-1.912-3.651-3.04-6.029-3.04c-2.378,0-4.615,1.128-6.029,3.04c-6.68,9.03-16.939,14.209-28.148,14.209
	c-0.528,0-1.052-0.018-1.573-0.041c-3.745-0.169-7.04,2.458-7.713,6.147c-0.688,3.771-1.037,7.605-1.037,11.393
	c0,26.663,16.87,50.595,41.98,59.553C254.295,125.506,255.148,125.652,256,125.652z M226.5,65.663c0-0.907,0.026-1.817,0.079-2.729
	c10.999-1.064,21.38-5.786,29.421-13.298c8.041,7.512,18.422,12.233,29.421,13.298c0.053,0.912,0.079,1.822,0.079,2.729
	c0,19.433-11.747,36.963-29.5,44.445C238.247,102.626,226.5,85.096,226.5,65.663z"/>
<g>
</g>
<g>
</g>
<g>
</g>
<g>
</g>
<g>
</g>
<g>
</g>
<g>
</g>
<g>
</g>
<g>
</g>
<g>
</g>
<g>
</g>
<g>
</g>
<g>
</g>
<g>
</g>
<g>
</g>
</svg>
