<?xml version="1.0" encoding="iso-8859-1"?>
<!-- Generator: Adobe Illustrator 19.0.0, SVG Export Plug-In . SVG Version: 6.00 Build 0)  -->
<svg version="1.1" id="Capa_1" xmlns="http://www.w3.org/2000/svg" xmlns:xlink="http://www.w3.org/1999/xlink" x="0px" y="0px"
	 viewBox="0 0 512 512" style="enable-background:new 0 0 512 512;" xml:space="preserve">
<path style="fill:#FB403F;" d="M203.074,363.444h105.855c41.621,0,75.362,33.741,75.362,75.362V504.5H127.712v-65.694
	C127.712,397.184,161.453,363.444,203.074,363.444z"/>
<path style="fill:#C21C1C;" d="M308.928,363.444h-22.632c41.621,0,75.362,33.741,75.362,75.362V504.5h22.632v-65.695
	C384.29,397.184,350.549,363.444,308.928,363.444z"/>
<g>
	<polygon style="fill:#FF6464;" points="289.001,342.79 269.761,392.33 310.325,421.667 314.334,359 	"/>
	<polygon style="fill:#FF6464;" points="223.001,342.79 242.241,392.33 201.677,421.667 197.668,359 	"/>
</g>
<polygon style="fill:#FA9E3E;" points="298.101,267.73 298.101,363.08 269.761,392.33 242.241,392.33 213.901,363.08 
	213.901,267.73 "/>
<rect x="112.001" y="159" style="fill:#696970;" width="288" height="96"/>
<g>
	<path style="fill:#FA9E3E;" d="M125.84,223.99h49.369v56.61H125.84c-15.632,0-28.305-12.672-28.305-28.305
		C97.535,236.662,110.208,223.99,125.84,223.99z"/>
	<path style="fill:#FA9E3E;" d="M386.162,223.99h-49.369v56.61h49.369c15.632,0,28.305-12.672,28.305-28.305
		S401.794,223.99,386.162,223.99z"/>
</g>
<path style="fill:#FFB56B;" d="M256.001,342.79L256.001,342.79c-61.919,0-112.115-50.195-112.115-112.115V117.281h224.229v113.394
	C368.116,292.595,317.92,342.79,256.001,342.79z"/>
<path style="fill:#EF9245;" d="M344.782,117.281v125.062c0,53.578-41.949,97.354-94.795,100.286
	c1.992,0.105,3.996,0.161,6.014,0.161l0,0c61.919,0,112.115-50.195,112.115-112.115V117.281H344.782z"/>
<g>
	<polygon style="fill:#F0EEEE;" points="174.001,439.5 166.001,504.5 346.001,504.5 338.001,439.5 	"/>
	<polygon style="fill:#F0EEEE;" points="145.001,7.5 112.001,158.973 256.001,173.667 400.001,158.973 367.001,7.5 	"/>
</g>
<polygon style="fill:#D9D4D4;" points="367.001,7.5 344.26,7.5 377.751,161.229 400.001,158.973 "/>
<path style="fill:#FB403F;" d="M256.001,149.18c-0.254,0-0.509-0.013-0.762-0.039l-137.18-14c-4.12-0.421-7.12-4.102-6.699-8.223
	c0.42-4.121,4.114-7.121,8.223-6.7l136.418,13.923l136.418-13.922c4.135-0.428,7.803,2.58,8.223,6.7
	c0.421,4.121-2.579,7.802-6.699,8.223l-137.18,14C256.51,149.168,256.255,149.18,256.001,149.18z"/>
<path d="M338.208,376.842c-0.973,0-1.961-0.19-2.914-0.592c-6.918-2.92-14.237-4.651-21.755-5.146
	c-4.133-0.272-7.264-3.843-6.991-7.976c0.271-4.134,3.836-7.265,7.976-6.992c9.19,0.604,18.142,2.722,26.605,6.294
	c3.815,1.611,5.603,6.01,3.992,9.826C343.912,375.12,341.132,376.842,338.208,376.842z"/>
<path d="M384.291,512h-256.58c-4.143,0-7.5-3.358-7.5-7.5v-65.69c0-43.478,33.938-79.792,77.262-82.673
	c4.135-0.272,7.706,2.852,7.981,6.986c0.275,4.133-2.852,7.706-6.985,7.981c-35.472,2.359-63.258,32.1-63.258,67.707V497h241.58
	v-58.19c0-17.228-6.463-33.652-18.197-46.248c-2.823-3.03-2.656-7.776,0.375-10.6c3.032-2.825,7.777-2.656,10.6,0.375
	c14.331,15.381,22.223,35.437,22.223,56.472v65.69C391.791,508.642,388.434,512,384.291,512z"/>
<path d="M310.322,429.17c-1.553,0-3.095-0.481-4.396-1.423l-40.561-29.34c-1.764-1.275-2.886-3.253-3.076-5.421
	c-0.189-2.168,0.571-4.311,2.085-5.874l26.228-27.071V348.61c0-2.741,1.495-5.264,3.899-6.58c2.405-1.315,5.336-1.215,7.645,0.263
	l16.229,10.39c2.299,1.472,3.617,4.078,3.441,6.802l-0.3,4.62l-3.71,58.042c-0.174,2.726-1.816,5.142-4.287,6.306
	C312.501,428.934,311.409,429.17,310.322,429.17z M281.173,391.329l22.53,16.297l2.858-44.696l-0.959-0.613v0.763
	c0,1.955-0.764,3.833-2.128,5.233l-0.351,0.36L281.173,391.329z"/>
<path d="M201.68,429.17c-1.087,0-2.179-0.236-3.196-0.715c-2.471-1.165-4.113-3.581-4.287-6.306l-4.01-62.663
	c-0.177-2.725,1.142-5.331,3.441-6.802l16.23-10.39c2.31-1.479,5.238-1.578,7.645-0.263c2.404,1.316,3.899,3.838,3.899,6.58v11.432
	l26.227,27.069c1.514,1.563,2.274,3.707,2.085,5.874c-0.19,2.168-1.313,4.146-3.076,5.421l-40.561,29.34
	C204.774,428.689,203.232,429.17,201.68,429.17z M205.441,362.931l0.014,0.204l2.844,44.492l22.529-16.297l-22.307-23.023
	c-1.359-1.4-2.12-3.275-2.12-5.226v-0.764L205.441,362.931z"/>
<path d="M269.761,399.83h-27.52c-2.03,0-3.974-0.823-5.387-2.281l-28.332-29.243c-1.36-1.4-2.121-3.275-2.121-5.226v-28.47
	c0-2.496,1.241-4.828,3.311-6.222c2.069-1.393,4.699-1.667,7.011-0.727c12.463,5.062,25.678,7.629,39.277,7.629
	c13.601,0,26.815-2.567,39.278-7.629c2.314-0.938,4.941-0.667,7.011,0.727c2.07,1.393,3.311,3.726,3.311,6.222v28.47
	c0,1.955-0.764,3.833-2.128,5.233l-0.351,0.36l-27.976,28.875C273.734,399.007,271.791,399.83,269.761,399.83z M245.418,384.83
	h21.166l24.018-24.79v-14.832c-11.16,3.376-22.756,5.082-34.601,5.082c-11.845,0-23.439-1.706-34.6-5.082v14.833L245.418,384.83z"/>
<path d="M112.001,235.11c-1.307,0-2.613-0.341-3.78-1.023c-2.304-1.344-3.72-3.811-3.72-6.477V159c0-4.142,3.357-7.5,7.5-7.5h0.29
	c0.255,0,0.509,0.013,0.763,0.039l31.6,3.23c3.827,0.391,6.737,3.614,6.737,7.461v61.76c0,4.142-3.357,7.5-7.5,7.5h-18.05
	c-3.572,0-7.082,0.917-10.151,2.65C114.545,234.787,113.272,235.11,112.001,235.11z M119.501,167.276v49.78
	c2.084-0.374,4.206-0.566,6.34-0.566h10.55v-47.488L119.501,167.276z"/>
<path d="M146.534,262.501c-3.432,0-6.527-2.369-7.311-5.857c-0.461-2.049-0.875-4.187-1.233-6.354
	c-0.674-4.085,2.091-7.945,6.176-8.621c4.092-0.677,7.946,2.087,8.624,6.172c0.317,1.915,0.677,3.77,1.068,5.513
	c0.124,0.553,0.184,1.105,0.185,1.648c0.001,3.432-2.369,6.53-5.857,7.314C147.632,262.442,147.078,262.501,146.534,262.501z"/>
<path d="M365.468,262.501c-0.543,0-1.095-0.059-1.647-0.183c-3.489-0.782-5.86-3.879-5.861-7.311c0-0.543,0.06-1.096,0.184-1.648
	c0.002-0.007,0.003-0.014,0.005-0.021c0.393-1.754,0.751-3.602,1.064-5.495c0.678-4.084,4.529-6.849,8.624-6.172
	c4.085,0.676,6.85,4.535,6.176,8.621c-0.355,2.15-0.77,4.286-1.232,6.35C371.997,260.13,368.9,262.501,365.468,262.501z"/>
<path d="M400.001,235.11c-1.272,0-2.543-0.323-3.689-0.97c-3.069-1.733-6.579-2.65-10.151-2.65h-18.05c-4.143,0-7.5-3.358-7.5-7.5
	v-61.76c0-3.847,2.91-7.07,6.737-7.461l31.6-3.23c0.254-0.026,0.508-0.039,0.763-0.039h0.29c4.143,0,7.5,3.358,7.5,7.5v68.61
	c0,2.667-1.416,5.133-3.72,6.477C402.614,234.769,401.308,235.11,400.001,235.11z M375.611,216.49h10.55
	c2.134,0,4.256,0.191,6.34,0.566v-49.78l-16.89,1.727V216.49z"/>
<path d="M155.591,288.1h-29.75c-19.745,0-35.81-16.064-35.81-35.81c0-12.94,7.015-24.905,18.307-31.225
	c5.29-2.988,11.352-4.575,17.503-4.575h18.05c4.143,0,7.5,3.358,7.5,7.5v6.69c0,1.542,0.03,2.962,0.093,4.34
	c0.002,0.037,0.003,0.074,0.004,0.111c0.008,0.236,0.014,0.473,0.028,0.709l0.063,1.102c0.021,0.476,0.044,0.847,0.075,1.225
	c0.005,0.049,0.008,0.099,0.012,0.148c0.034,0.544,0.077,1.08,0.13,1.617c0.004,0.039,0.007,0.079,0.01,0.118
	c0.036,0.435,0.071,0.852,0.115,1.277c0.036,0.316,0.079,0.693,0.113,1.076c0.099,0.872,0.205,1.735,0.33,2.599
	c0.005,0.035,0.01,0.07,0.014,0.105c0.118,0.907,0.252,1.806,0.404,2.694c0.324,1.959,0.673,3.761,1.076,5.555
	c1.821,8.271,4.66,16.301,8.445,23.901c1.158,2.325,1.031,5.083-0.336,7.292C160.601,286.756,158.189,288.1,155.591,288.1z
	 M125.841,231.49c-3.572,0-7.082,0.917-10.151,2.65c-6.584,3.685-10.658,10.634-10.658,18.15c0,11.475,9.335,20.81,20.81,20.81
	h18.293c-2.039-5.375-3.685-10.888-4.917-16.487c-0.454-2.017-0.868-4.155-1.226-6.322c-0.174-1.006-0.338-2.099-0.481-3.204
	c-0.148-1.031-0.275-2.063-0.393-3.105c-0.007-0.062-0.013-0.124-0.018-0.186c-0.024-0.279-0.058-0.558-0.09-0.838
	c-0.062-0.596-0.107-1.104-0.149-1.629c-0.064-0.661-0.116-1.321-0.16-1.992c-0.045-0.555-0.079-1.101-0.103-1.657l-0.055-0.942
	c-0.022-0.326-0.035-0.709-0.047-1.095c-0.06-1.34-0.094-2.707-0.103-4.153H125.841z"/>
<path d="M386.161,288.1h-29.75c-2.598,0-5.01-1.344-6.377-3.552s-1.494-4.967-0.336-7.292c3.785-7.6,6.624-15.63,8.438-23.869
	c0.406-1.815,0.766-3.669,1.075-5.539c0.16-0.936,0.294-1.835,0.412-2.742c0.004-0.035,0.009-0.07,0.014-0.105
	c0.125-0.863,0.232-1.727,0.33-2.599c0.034-0.383,0.077-0.765,0.121-1.148c0.036-0.354,0.071-0.77,0.107-1.205
	c0.003-0.039,0.006-0.078,0.01-0.118c0.053-0.536,0.096-1.072,0.13-1.617c0.004-0.049,0.007-0.099,0.012-0.148
	c0.031-0.378,0.054-0.749,0.07-1.127l0.064-1.138c0.019-0.298,0.024-0.534,0.032-0.771c0.001-0.037,0.002-0.074,0.004-0.111
	c0.063-1.377,0.093-2.797,0.093-4.34v-6.69c0-4.142,3.357-7.5,7.5-7.5h18.05c6.151,0,12.213,1.587,17.528,4.589
	c11.267,6.306,18.281,18.271,18.281,31.21C421.971,272.036,405.906,288.1,386.161,288.1z M367.868,273.1h18.293
	c11.475,0,20.81-9.335,20.81-20.81c0-7.516-4.074-14.465-10.633-18.136c-3.095-1.748-6.605-2.664-10.177-2.664h-10.553
	c-0.009,1.446-0.043,2.813-0.102,4.153c-0.012,0.386-0.025,0.771-0.051,1.157l-0.056,0.978c-0.02,0.463-0.053,1.004-0.098,1.56
	c-0.044,0.67-0.097,1.331-0.16,1.992c-0.043,0.524-0.087,1.03-0.141,1.545c-0.041,0.364-0.074,0.643-0.099,0.922
	c-0.005,0.062-0.011,0.124-0.018,0.186c-0.117,1.042-0.244,2.074-0.393,3.105c-0.144,1.105-0.309,2.198-0.489,3.252
	c-0.347,2.102-0.761,4.238-1.224,6.302C371.551,262.222,369.906,267.729,367.868,273.1z"/>
<path d="M310.324,232.962c-4.143,0-7.5-3.358-7.5-7.5v-2c0-4.142,3.357-7.5,7.5-7.5s7.5,3.358,7.5,7.5v2
	C317.824,229.605,314.467,232.962,310.324,232.962z"/>
<path d="M201.678,232.962c-4.143,0-7.5-3.358-7.5-7.5v-2c0-4.142,3.357-7.5,7.5-7.5s7.5,3.358,7.5,7.5v2
	C209.178,229.605,205.82,232.962,201.678,232.962z"/>
<path d="M256.001,350.29c-15.544,0-30.657-2.938-44.922-8.731c-27.068-10.966-49.161-31.428-62.202-57.615
	c-4.332-8.697-7.582-17.893-9.66-27.331c-1.874-8.432-2.826-17.162-2.826-25.933v-68.45c0-2.122,0.898-4.144,2.473-5.566
	c1.574-1.421,3.671-2.11,5.789-1.895l111.348,11.362l111.349-11.362c2.116-0.215,4.215,0.474,5.789,1.895
	c1.574,1.422,2.473,3.444,2.473,5.566v68.45c0,8.771-0.952,17.501-2.829,25.947c-2.075,9.423-5.325,18.619-9.658,27.317
	c-13.04,26.186-35.132,46.648-62.206,57.617C286.659,347.353,271.545,350.29,256.001,350.29z M151.391,170.534v60.146
	c0,7.678,0.832,15.313,2.472,22.693c1.817,8.253,4.656,16.284,8.441,23.883c11.409,22.909,30.733,40.809,54.414,50.402
	c12.469,5.064,25.684,7.631,39.283,7.631c13.601,0,26.815-2.567,39.278-7.629c23.687-9.596,43.011-27.496,54.418-50.404
	c3.786-7.6,6.625-15.631,8.439-23.87c1.643-7.394,2.475-15.029,2.475-22.707v-60.146L256.762,181.13
	c-0.508,0.052-1.016,0.052-1.523,0L151.391,170.534z"/>
<path d="M256.001,288.484c-13.493,0-26.142-6.631-33.833-17.739c-2.358-3.405-1.509-8.077,1.896-10.436
	c3.403-2.358,8.078-1.509,10.435,1.896c4.891,7.063,12.928,11.279,21.501,11.279s16.61-4.216,21.501-11.279
	c2.358-3.405,7.029-4.254,10.435-1.896c3.405,2.358,4.255,7.03,1.897,10.436C282.143,281.853,269.494,288.484,256.001,288.484z"/>
<path d="M346.001,512h-180c-2.148,0-4.194-0.921-5.618-2.531c-1.423-1.609-2.088-3.752-1.825-5.885l8-65
	c0.462-3.76,3.655-6.584,7.443-6.584h164c3.788,0,6.981,2.824,7.443,6.584l8,65c0.263,2.132-0.402,4.275-1.825,5.885
	C350.195,511.079,348.149,512,346.001,512z M174.481,497h163.041l-6.154-50H180.635L174.481,497z"/>
<path d="M338.001,447c-4.143,0-7.5-3.358-7.5-7.5V361c0-4.142,3.357-7.5,7.5-7.5s7.5,3.358,7.5,7.5v78.5
	C345.501,443.642,342.144,447,338.001,447z"/>
<path d="M174.001,447c-4.143,0-7.5-3.358-7.5-7.5V361c0-4.142,3.357-7.5,7.5-7.5s7.5,3.358,7.5,7.5v78.5
	C181.501,443.642,178.144,447,174.001,447z"/>
<path d="M256.001,181.17c-0.254,0-0.508-0.013-0.762-0.039l-144.005-14.7c-2.124-0.218-4.054-1.332-5.307-3.061
	s-1.709-3.91-1.255-5.997l18-82.63c0.882-4.046,4.873-6.613,8.925-5.732c4.047,0.882,6.613,4.878,5.731,8.924l-16.213,74.427
	l134.886,13.769l134.885-13.768L360.959,15H151.043l-7.174,32.936c-0.882,4.047-4.87,6.616-8.925,5.732
	c-4.047-0.881-6.613-4.877-5.732-8.924l8.46-38.84C138.424,2.458,141.474,0,145.001,0h222c3.527,0,6.577,2.458,7.328,5.903
	l33,151.47c0.454,2.087-0.002,4.268-1.255,5.997c-1.253,1.729-3.183,2.842-5.307,3.061l-31.894,3.26l-112.111,11.44
	C256.509,181.157,256.255,181.17,256.001,181.17z"/>
<g>
</g>
<g>
</g>
<g>
</g>
<g>
</g>
<g>
</g>
<g>
</g>
<g>
</g>
<g>
</g>
<g>
</g>
<g>
</g>
<g>
</g>
<g>
</g>
<g>
</g>
<g>
</g>
<g>
</g>
</svg>
