<?xml version="1.0" encoding="iso-8859-1"?>
<!-- Generator: Adobe Illustrator 19.0.0, SVG Export Plug-In . SVG Version: 6.00 Build 0)  -->
<svg version="1.1" id="Capa_1" xmlns="http://www.w3.org/2000/svg" xmlns:xlink="http://www.w3.org/1999/xlink" x="0px" y="0px"
	 viewBox="0 0 511.998 511.998" style="enable-background:new 0 0 511.998 511.998;" xml:space="preserve">
<path style="fill:#D9D4D4;" d="M304.077,363.437h-22.633c41.622,0,75.365,33.742,75.365,75.365v65.697h22.633v-65.697
	C379.441,397.179,345.7,363.437,304.077,363.437z"/>
<path style="fill:#F0EEEE;" d="M198.219,363.437h105.859c41.622,0,75.365,33.742,75.365,75.365v65.697H122.854v-65.697
	C122.854,397.179,156.596,363.437,198.219,363.437z"/>
<g>
	<path style="fill:#484655;" d="M155.644,376.62v127.879h95.503l-71.21-138.812C171.126,367.886,162.924,371.626,155.644,376.62z"/>
	<path style="fill:#484655;" d="M322.357,365.686l-71.21,138.812h95.503V376.62C339.372,371.626,331.169,367.886,322.357,365.686z"
		/>
</g>
<path style="fill:#A04C22;" d="M386.819,243.909c27.334-28.253,26.579-100.923-7.378-150.924h-47.499v149.347L386.819,243.909z"/>
<path style="fill:#BF612C;" d="M427.664,44.233c-2.66,16.041-20.101,65.292-64.402,93.843
	c-39.761,25.621-101.154,34.581-192.907-12.09c0,0,12.4,56.912-31.321,68.482v49.442h-20.891
	c-27.331-18.511-57.822-108.654-4.67-158.086C94.812,50.573,144.384-4.319,228.157,9.732c52.662,8.84,138.955,5.42,160.176,0
	c12.13,18.971,6.17,42.171,0,48.842C407.503,53.923,424.364,46.133,427.664,44.233z"/>
<g>
	<path style="fill:#B25628;" d="M200.335,13.732c52.662,8.84,138.955,5.42,160.176,0c12.13,18.971,6.17,42.171,0,48.842
		c12.667-3.072,24.323-7.515,31.727-10.724c4.024-10.112,5.513-27.388-3.905-42.117c-21.221,5.42-107.514,8.84-160.176,0
		c-22.444-3.764-42.429-2.576-59.309,1.853C178.69,11.226,189.207,11.865,200.335,13.732z"/>
	<path style="fill:#B25628;" d="M398.068,55.907c-5.788,20.628-23.99,61.268-62.628,86.169
		c-11.272,7.264-24.287,13.186-39.235,16.884c27.191-1.316,49.287-9.433,67.057-20.884c44.302-28.551,61.742-77.803,64.402-93.843
		C424.938,45.802,412.957,51.389,398.068,55.907z"/>
</g>
<g>
	<polygon style="fill:#FA9E3E;" points="293.249,363.074 293.249,267.721 209.046,267.721 209.046,363.074 251.148,387.665 	"/>
	<path style="fill:#FA9E3E;" d="M120.982,223.979h49.371v56.612h-49.371c-15.633,0-28.306-12.673-28.306-28.306
		S105.35,223.979,120.982,223.979z"/>
	<path style="fill:#FA9E3E;" d="M381.313,223.979h-49.371v56.612h49.371c15.633,0,28.306-12.673,28.306-28.306
		S396.946,223.979,381.313,223.979z"/>
</g>
<path style="fill:#FFB56B;" d="M363.262,138.076v92.593c0,30.961-12.55,58.982-32.831,79.273
	c-20.291,20.291-48.322,32.841-79.283,32.841c-0.97,0-1.93-0.01-2.89-0.04h-0.13c-0.92-0.02-1.84-0.06-2.75-0.11
	c-0.07,0-0.13,0-0.2-0.01h-0.04c-59.132-3.12-106.104-52.062-106.104-111.954v-36.201c43.722-11.57,31.321-68.482,31.321-68.482
	c75.423,38.371,130.335,39.141,169.576,23.961C348.421,146.666,356.181,142.636,363.262,138.076z"/>
<path style="fill:#EF9245;" d="M363.262,138.076v92.593c0,30.961-12.55,58.982-32.831,79.273
	c-20.291,20.291-48.322,32.841-79.283,32.841c-0.97,0-1.93-0.01-2.89-0.04h-0.13c-0.92-0.02-1.84-0.06-2.75-0.11
	c-0.07,0-0.13,0-0.2-0.01c52.822-2.95,94.753-46.722,94.753-100.294v-92.383C348.421,146.666,356.181,142.636,363.262,138.076z"/>
<g>
	<path style="fill:#FB403F;" d="M290.602,423.227l-33.136-12.426v-33.972l33.136-12.426c9.773-3.665,20.2,3.56,20.2,13.998v30.828
		C310.802,419.667,300.375,426.892,290.602,423.227z"/>
	<path style="fill:#FB403F;" d="M211.693,423.227l33.136-12.426v-33.972l-33.136-12.426c-9.773-3.665-20.2,3.56-20.2,13.998v30.828
		C191.494,419.667,201.92,426.892,211.693,423.227z"/>
</g>
<path style="fill:#C21C1C;" d="M251.148,367.981c-7.428,0-13.45,6.022-13.45,13.45V406.2c0,7.428,6.021,13.45,13.45,13.45
	c7.429,0,13.45-6.022,13.45-13.45v-24.768C264.598,374.002,258.576,367.981,251.148,367.981z"/>
<path d="M435.063,45.46c0.474-2.86-0.743-5.738-3.125-7.39c-2.382-1.651-5.505-1.784-8.017-0.336
	c-2.114,1.217-10.934,5.331-22.388,9.189c2.66-11.886,1.974-27.38-6.883-41.231c-1.743-2.725-5.033-4.028-8.175-3.226
	c-20.409,5.213-106.003,8.443-157.078-0.13c-40.173-6.74-77.627,1.268-102.754,21.969c-3.197,2.634-3.654,7.36-1.02,10.558
	c2.634,3.198,7.361,3.654,10.557,1.02c10.302-8.487,39.761-27.306,90.733-18.753c49.853,8.369,128.773,5.933,157.493,1.055
	c6.666,14.667,2.245,31.159-1.582,35.296c-2.246,2.428-2.636,6.04-0.961,8.892c1.675,2.851,5.02,4.27,8.234,3.49
	c9.723-2.358,18.864-5.477,26.137-8.321c-7.28,20.519-24.46,53.236-57.037,74.231c-1.221,0.787-2.456,1.545-3.701,2.285
	c-0.514,0.305-1.036,0.596-1.554,0.893c-0.735,0.423-1.471,0.845-2.214,1.252c-0.608,0.333-1.223,0.653-1.836,0.975
	c-0.678,0.356-1.358,0.71-2.043,1.054c-0.619,0.31-1.241,0.612-1.865,0.912c-0.728,0.349-1.459,0.692-2.193,1.026
	c-0.567,0.258-1.135,0.514-1.706,0.764c-0.883,0.386-1.773,0.76-2.666,1.125c-0.425,0.174-0.848,0.352-1.275,0.521
	c-1.288,0.51-2.585,1.003-3.894,1.469c-0.039,0.014-0.078,0.03-0.118,0.044c-5.866,2.086-11.934,3.742-18.197,4.966
	c-0.018,0.004-0.036,0.007-0.055,0.01c-1.535,0.299-3.081,0.572-4.639,0.82c-0.049,0.008-0.098,0.015-0.146,0.023
	c-1.556,0.245-3.123,0.465-4.702,0.659c-0.021,0.003-0.042,0.005-0.062,0.008c-6.459,0.789-13.107,1.144-19.935,1.063
	c-2.047-0.025-4.111-0.091-6.192-0.195c-0.085-0.004-0.17-0.009-0.255-0.013c-23.193-1.194-48.473-7.269-75.504-18.129
	c-0.213-0.086-0.427-0.171-0.64-0.258c-1.132-0.458-2.266-0.921-3.404-1.395c-0.006-0.003-0.012-0.005-0.018-0.008
	c-2.014-0.839-4.04-1.712-6.073-2.603c-0.802-0.352-1.605-0.706-2.411-1.067c-0.726-0.325-1.453-0.651-2.181-0.982
	c-1.476-0.672-2.954-1.351-4.44-2.05c-0.362-0.171-0.727-0.348-1.091-0.52c-1.334-0.633-2.672-1.276-4.015-1.93
	c-0.471-0.23-0.943-0.46-1.415-0.693c-1.662-0.818-3.327-1.646-5.002-2.498c-2.581-1.312-5.681-1.017-7.972,0.747
	c-2.293,1.764-3.366,4.695-2.76,7.523c0.028,0.132,2.813,13.4,0.595,27.559c-2.719,17.358-11.636,28.154-26.504,32.088
	c-3.29,0.871-5.581,3.847-5.581,7.25v22.011h-10.55c-4.743,0-9.358,0.925-13.652,2.7c-7.663-13.872-14.966-35.004-15.515-58.669
	c-0.458-19.785,3.813-47.849,26.765-69.193c2.485-2.311,3.108-6.002,1.521-9.001c-5.115-9.661-2.877-19.389-0.1-25.849
	c1.637-3.805-0.121-8.216-3.927-9.853c-3.806-1.637-8.216,0.122-9.853,3.927c-4.915,11.429-5.473,23.145-1.697,33.565
	c-40.221,41.791-30.416,107.28-9.595,143.642c-6.192,6.586-9.757,15.35-9.757,24.533c0,19.747,16.065,35.811,35.811,35.811h25.227
	c12.433,22.702,31.825,40.729,55.337,51.44v16.403h-3.33c-6.873,0-13.549,0.856-19.94,2.441c-0.053,0.012-0.106,0.019-0.158,0.032
	c-0.034,0.008-0.067,0.019-0.1,0.027c-0.774,0.195-1.538,0.414-2.304,0.63c-0.505,0.142-1.012,0.279-1.514,0.431
	c-0.633,0.192-1.258,0.4-1.884,0.606c-0.65,0.214-1.3,0.43-1.943,0.659c-0.5,0.179-0.995,0.366-1.49,0.554
	c-0.78,0.295-1.555,0.6-2.325,0.919c-0.374,0.155-0.746,0.313-1.118,0.474c-0.896,0.386-1.784,0.789-2.665,1.207
	c-0.255,0.121-0.511,0.241-0.765,0.365c-1.002,0.488-1.993,0.997-2.975,1.526c-0.14,0.076-0.282,0.149-0.422,0.225
	c-1.111,0.606-2.209,1.238-3.293,1.896c-0.016,0.01-0.033,0.019-0.048,0.029c-1.308,0.795-2.603,1.615-3.87,2.485
	c-0.177,0.121-0.339,0.258-0.503,0.393c-21.463,14.992-35.542,39.861-35.542,67.971v65.692c0,4.142,3.357,7.5,7.5,7.5h32.791h95.503
	h95.503h32.791c4.143,0,7.5-3.358,7.5-7.5v-65.692c0-28.11-14.078-52.98-35.542-67.971c-0.164-0.135-0.326-0.272-0.503-0.393
	c-1.267-0.87-2.563-1.69-3.87-2.485c-0.016-0.01-0.032-0.019-0.048-0.029c-1.084-0.658-2.182-1.29-3.293-1.896
	c-0.14-0.077-0.282-0.15-0.422-0.225c-0.982-0.529-1.974-1.038-2.975-1.526c-0.254-0.124-0.51-0.244-0.765-0.365
	c-0.882-0.418-1.769-0.821-2.665-1.207c-0.371-0.16-0.744-0.318-1.118-0.474c-0.77-0.318-1.545-0.623-2.325-0.919
	c-0.495-0.188-0.991-0.375-1.49-0.554c-0.644-0.229-1.293-0.445-1.943-0.659c-0.626-0.207-1.251-0.414-1.884-0.606
	c-0.502-0.152-1.009-0.289-1.514-0.431c-0.766-0.216-1.53-0.435-2.304-0.63c-0.034-0.008-0.067-0.019-0.1-0.027
	c-0.052-0.013-0.104-0.02-0.157-0.032c-6.391-1.585-13.067-2.442-19.942-2.442h-3.33V339.53
	c23.511-10.714,42.897-28.743,55.327-51.439h25.236c19.746,0,35.81-16.065,35.81-35.811c0-10.099-4.211-19.228-10.961-25.743
	c8.783-22.482,9.993-52.855,3.099-82.699c-0.932-4.036-4.955-6.55-8.996-5.62c-4.035,0.932-6.552,4.96-5.619,8.996
	c9.908,42.891,10.68,46.238-1.102,71.417c-3.818-1.391-7.936-2.152-12.23-2.152h-10.55v-74.406
	C415.33,111.461,432.28,62.245,435.063,45.46z M120.983,273.091c-11.475,0-20.811-9.336-20.811-20.811
	c0-6.722,3.283-13.068,8.781-16.976c3.524-2.502,7.685-3.825,12.028-3.825h10.553c0.006,0.853,0.021,1.704,0.044,2.553
	c0.002,0.072,0.003,0.145,0.005,0.217c0.029,1.022,0.075,2.041,0.13,3.058c0.018,0.335,0.041,0.669,0.061,1.004
	c0.045,0.732,0.097,1.462,0.156,2.191c0.029,0.357,0.057,0.713,0.089,1.069c0.071,0.799,0.152,1.596,0.239,2.392
	c0.027,0.245,0.05,0.491,0.078,0.735c0.118,1.019,0.25,2.036,0.394,3.049c0.041,0.289,0.088,0.577,0.131,0.866
	c0.112,0.746,0.229,1.491,0.354,2.233c0.06,0.356,0.122,0.712,0.186,1.068c0.129,0.722,0.266,1.443,0.408,2.162
	c0.061,0.309,0.119,0.618,0.183,0.927c0.206,0.999,0.423,1.995,0.654,2.987c0.044,0.188,0.093,0.375,0.138,0.563
	c0.196,0.819,0.399,1.636,0.612,2.451c0.089,0.341,0.182,0.681,0.275,1.022c0.186,0.685,0.378,1.369,0.577,2.051
	c0.098,0.337,0.195,0.674,0.296,1.01c0.252,0.837,0.513,1.671,0.783,2.503c0.05,0.153,0.096,0.307,0.146,0.46
	c0.319,0.967,0.653,1.929,0.997,2.888c0.112,0.313,0.23,0.625,0.345,0.938c0.149,0.405,0.293,0.811,0.447,1.214L120.983,273.091
	L120.983,273.091z M220.431,346.298c0.276,0.073,0.553,0.143,0.83,0.214c1.106,0.285,2.216,0.556,3.33,0.809
	c0.185,0.042,0.368,0.088,0.553,0.129c1.25,0.278,2.506,0.531,3.766,0.768c0.291,0.055,0.582,0.106,0.874,0.159
	c1.156,0.209,2.316,0.403,3.48,0.577c0.143,0.021,0.285,0.046,0.428,0.067c1.274,0.186,2.552,0.346,3.834,0.491
	c0.304,0.034,0.608,0.066,0.912,0.098c1.222,0.129,2.447,0.243,3.675,0.335c0.084,0.006,0.167,0.015,0.251,0.021
	c1.295,0.093,2.594,0.16,3.896,0.212c0.316,0.013,0.632,0.024,0.948,0.034c1.31,0.042,2.622,0.071,3.939,0.071
	s2.629-0.029,3.939-0.071c0.316-0.01,0.632-0.021,0.948-0.034c1.302-0.052,2.601-0.118,3.895-0.212
	c0.084-0.006,0.168-0.015,0.252-0.021c1.229-0.091,2.453-0.206,3.676-0.335c0.304-0.032,0.607-0.064,0.91-0.098
	c1.283-0.145,2.563-0.306,3.838-0.492c0.139-0.02,0.276-0.044,0.415-0.065c1.17-0.175,2.335-0.37,3.497-0.58
	c0.287-0.052,0.574-0.103,0.861-0.157c1.263-0.238,2.523-0.492,3.777-0.771c0.177-0.039,0.354-0.083,0.531-0.123
	c1.124-0.255,2.243-0.528,3.359-0.816c0.27-0.07,0.54-0.137,0.809-0.209c1.239-0.329,2.473-0.676,3.702-1.046
	c0.063-0.019,0.127-0.035,0.19-0.054v13.01l-20.542,7.698c-0.026-0.023-0.054-0.043-0.08-0.066c-0.423-0.379-0.861-0.74-1.313-1.082
	c-0.103-0.078-0.21-0.151-0.315-0.227c-0.367-0.268-0.742-0.524-1.126-0.768c-0.134-0.085-0.268-0.171-0.404-0.253
	c-0.487-0.294-0.982-0.576-1.491-0.829c-0.008-0.004-0.017-0.007-0.025-0.012c-0.502-0.249-1.017-0.472-1.538-0.681
	c-0.149-0.06-0.299-0.115-0.449-0.172c-0.428-0.16-0.861-0.306-1.3-0.439c-0.122-0.037-0.242-0.078-0.365-0.113
	c-0.547-0.154-1.101-0.286-1.662-0.395c-0.127-0.025-0.256-0.042-0.384-0.065c-0.454-0.08-0.91-0.144-1.371-0.194
	c-0.162-0.017-0.323-0.035-0.486-0.049c-0.58-0.049-1.163-0.082-1.751-0.082c-0.588,0-1.171,0.034-1.751,0.082
	c-0.162,0.014-0.323,0.032-0.485,0.049c-0.462,0.05-0.921,0.115-1.376,0.195c-0.125,0.022-0.252,0.039-0.377,0.064
	c-0.563,0.11-1.12,0.242-1.669,0.397c-0.117,0.033-0.23,0.072-0.346,0.107c-0.449,0.135-0.893,0.285-1.331,0.449
	c-0.14,0.052-0.28,0.104-0.418,0.16c-1.075,0.43-2.111,0.946-3.098,1.545c-0.112,0.068-0.222,0.138-0.332,0.208
	c-0.425,0.268-0.84,0.55-1.244,0.849c-0.069,0.051-0.14,0.098-0.208,0.15c-0.473,0.358-0.931,0.735-1.374,1.133
	c-0.016,0.014-0.033,0.026-0.049,0.041l-20.542-7.698v-13.01c0.065,0.02,0.132,0.036,0.197,0.056
	C217.968,345.625,219.197,345.971,220.431,346.298z M303.3,409.226c0,3.129-1.755,4.993-2.801,5.826
	c-1.793,1.426-4.076,1.956-6.263,1.458c-0.32-0.076-0.667-0.182-1.005-0.306l-21.233-7.958c0.008-0.076,0.005-0.154,0.011-0.23
	c0.053-0.604,0.089-1.21,0.089-1.819v-24.761c0-0.634-0.037-1.238-0.094-1.835c-0.007-0.069-0.004-0.143-0.011-0.212l21.273-7.972
	c0.141-0.054,0.287-0.1,0.429-0.145c2.264-0.693,4.661-0.278,6.585,1.143c1.919,1.417,3.02,3.601,3.02,5.992v9.81L303.3,409.226
	L303.3,409.226z M230.298,408.245l-21.204,7.946c-0.372,0.138-0.725,0.246-1.019,0.315c-2.194,0.506-4.482-0.025-6.278-1.455
	c-1.046-0.833-2.801-2.696-2.801-5.826v-30.821c0-2.392,1.101-4.576,3.02-5.992c1.313-0.97,2.849-1.472,4.41-1.472
	c0.676,0,1.357,0.094,2.027,0.285c0.125,0.043,0.25,0.082,0.376,0.118c0.067,0.02,0.133,0.045,0.235,0.084l21.237,7.959
	c-0.007,0.069-0.004,0.143-0.011,0.212c-0.056,0.598-0.094,1.202-0.094,1.835v24.761c0,0.609,0.036,1.215,0.089,1.82
	C230.293,408.092,230.29,408.169,230.298,408.245z M245.965,409.115c-0.502-0.882-0.768-1.891-0.768-2.919v-24.761
	c0-0.216,0.011-0.401,0.033-0.565c0.008-0.063,0.016-0.126,0.022-0.189c0.041-0.371,0.122-0.742,0.241-1.106
	c0.002-0.005,0.003-0.009,0.005-0.014c0.046-0.139,0.102-0.276,0.16-0.413c0.026-0.059,0.052-0.118,0.076-0.178
	c0.011-0.023,0.024-0.045,0.035-0.068v0.001c0.002-0.004,0.004-0.008,0.006-0.012c0.062-0.129,0.123-0.258,0.195-0.383
	c1.059-1.864,3.042-3.022,5.178-3.022s4.119,1.158,5.191,3.046c0.072,0.125,0.134,0.256,0.195,0.387
	c0.014,0.027,0.025,0.054,0.04,0.082c0.026,0.069,0.056,0.135,0.084,0.203c0.043,0.105,0.086,0.211,0.122,0.318
	c0.01,0.029,0.02,0.059,0.028,0.081c0.113,0.353,0.193,0.716,0.233,1.079c0.007,0.063,0.015,0.126,0.022,0.189
	c0.023,0.164,0.033,0.349,0.033,0.565v24.761c0,1.028-0.266,2.037-0.772,2.927c-1.059,1.864-3.042,3.022-5.178,3.022
	S247.028,410.987,245.965,409.115z M130.353,438.807c0-17.616,6.748-33.682,17.791-45.76v103.951h-17.791L130.353,438.807
	L130.353,438.807z M163.145,496.999V380.722c1.629-0.988,3.309-1.899,5.024-2.75c0.269-0.133,0.535-0.275,0.806-0.404
	c0.633-0.303,1.277-0.586,1.92-0.87c0.434-0.191,0.865-0.387,1.303-0.569c0.537-0.224,1.081-0.432,1.624-0.642
	c0.572-0.22,1.145-0.44,1.724-0.645c0.186-0.066,0.374-0.126,0.56-0.19l7.888,15.375v19.199c0,6.881,3.083,13.283,8.458,17.563
	c4.039,3.214,8.934,4.908,13.952,4.908c0.756,0,1.516-0.044,2.275-0.122c0.422,0.073,0.849,0.124,1.281,0.124
	c1.173,0,2.363-0.276,3.474-0.857c0.35-0.183,0.672-0.396,0.979-0.624l22.681-8.5c3.8,3.435,8.792,5.429,14.051,5.429
	c5.261,0,10.253-1.995,14.053-5.429l16.763,6.282l-30.816,60.069l-20.768-40.475c-1.891-3.685-6.411-5.14-10.097-3.249
	c-3.685,1.891-5.14,6.411-3.249,10.097l21.836,42.557L163.145,496.999L163.145,496.999z M263.425,496.999l33.512-65.324
	c0.146-0.007,0.29-0.028,0.436-0.038c0.271-0.018,0.542-0.042,0.812-0.07c0.33-0.034,0.659-0.077,0.987-0.126
	c0.269-0.04,0.537-0.084,0.805-0.134c0.327-0.061,0.651-0.133,0.975-0.209c0.263-0.062,0.525-0.124,0.785-0.195
	c0.325-0.089,0.647-0.19,0.968-0.294c0.253-0.082,0.506-0.161,0.756-0.251c0.326-0.118,0.647-0.252,0.968-0.385
	c0.238-0.099,0.477-0.193,0.712-0.301c0.331-0.152,0.656-0.321,0.981-0.49c0.216-0.112,0.435-0.216,0.648-0.336
	c0.354-0.198,0.699-0.417,1.044-0.635c0.174-0.11,0.353-0.211,0.526-0.326c0.512-0.344,1.014-0.708,1.502-1.096
	c5.375-4.279,8.458-10.68,8.458-17.563v-19.199l7.888-15.375c0.186,0.064,0.375,0.124,0.56,0.19
	c0.579,0.205,1.152,0.425,1.724,0.645c0.543,0.21,1.087,0.418,1.623,0.641c0.438,0.182,0.871,0.378,1.305,0.569
	c0.643,0.284,1.287,0.566,1.919,0.869c0.271,0.13,0.537,0.271,0.806,0.404c1.715,0.851,3.394,1.762,5.024,2.75v116.277h-75.726
	V496.999z M371.942,438.807v58.192h-17.791V393.047C365.194,405.124,371.942,421.191,371.942,438.807z M290.426,327.654
	c-12.463,5.062-25.679,7.629-39.278,7.629c-1.7,0-3.394-0.04-5.081-0.12c-0.914-0.043-1.826-0.101-2.736-0.168
	c-10.848-0.797-21.402-3.255-31.468-7.344c-23.682-9.593-43.007-27.494-54.416-50.406c-7.241-14.531-10.913-30.202-10.913-46.577
	v-6.69v-24.041c17.718-6.685,28.726-21.413,31.973-42.932c0.748-4.957,0.996-9.767,0.971-14.103
	c-0.008-1.445-0.047-2.837-0.108-4.165c2.286,1.071,4.556,2.101,6.821,3.111c0.358,0.16,0.715,0.315,1.072,0.473
	c2.031,0.898,4.053,1.772,6.066,2.62c0.227,0.096,0.455,0.193,0.682,0.288c28.393,11.9,55.052,18.852,79.827,20.828
	c0.094,0.008,0.187,0.014,0.28,0.021c1.922,0.151,3.833,0.271,5.732,0.362c0.143,0.007,0.287,0.015,0.431,0.022
	c3.901,0.177,7.755,0.229,11.559,0.152c0.032-0.001,0.064-0.002,0.095-0.003c1.754-0.036,3.496-0.103,5.229-0.194
	c0.203-0.011,0.405-0.022,0.607-0.033c1.637-0.092,3.265-0.206,4.883-0.346c0.153-0.013,0.306-0.024,0.458-0.038
	c3.582-0.32,7.12-0.753,10.609-1.31c0.026-0.004,0.052-0.009,0.079-0.013c1.607-0.258,3.203-0.544,4.791-0.852
	c0.366-0.071,0.731-0.147,1.096-0.22c1.264-0.255,2.521-0.526,3.772-0.814c0.44-0.101,0.88-0.201,1.319-0.306
	c1.247-0.299,2.487-0.616,3.721-0.947c0.367-0.098,0.737-0.19,1.102-0.291c1.538-0.426,3.069-0.871,4.587-1.347
	c0.049-0.015,0.097-0.032,0.146-0.048c0.054-0.017,0.107-0.035,0.161-0.052c1.453-0.46,2.896-0.948,4.331-1.456
	c0.246-0.087,0.493-0.17,0.738-0.258c1.312-0.472,2.613-0.97,3.909-1.481c0.43-0.17,0.86-0.339,1.288-0.513
	c1.196-0.486,2.385-0.99,3.566-1.509c0.491-0.216,0.979-0.436,1.467-0.658c1.159-0.526,2.312-1.064,3.456-1.621
	c0.441-0.215,0.878-0.439,1.317-0.659c0.397-0.199,0.797-0.393,1.192-0.596v72.929v6.69c0,3.892-0.22,7.83-0.654,11.71
	c-1.358,12.204-4.813,23.934-10.27,34.867C333.43,300.156,314.108,318.056,290.426,327.654z M402.123,252.28
	c0,11.475-9.335,20.811-20.81,20.811h-18.295c0.449-1.181,0.877-2.369,1.288-3.564c0.02-0.059,0.038-0.119,0.058-0.178
	c0.483-1.413,0.931-2.837,1.36-4.267c0.125-0.415,0.244-0.832,0.364-1.248c0.347-1.205,0.675-2.416,0.984-3.633
	c0.082-0.322,0.17-0.643,0.249-0.966c0.367-1.5,0.705-3.009,1.014-4.526c0.07-0.346,0.132-0.695,0.199-1.041
	c0.237-1.219,0.455-2.444,0.655-3.673c0.07-0.431,0.14-0.862,0.206-1.294c0.233-1.546,0.447-3.096,0.621-4.656
	c0.12-1.074,0.225-2.152,0.316-3.232c0.031-0.367,0.052-0.735,0.08-1.103c0.054-0.715,0.109-1.431,0.15-2.147
	c0.025-0.434,0.04-0.869,0.06-1.303c0.03-0.65,0.062-1.3,0.082-1.95c0.014-0.467,0.019-0.933,0.028-1.399
	c0.009-0.477,0.025-0.954,0.028-1.43h10.553C392.788,231.479,402.123,240.811,402.123,252.28z"/>
<path d="M305.473,215.951c-4.143,0-7.5,3.358-7.5,7.5v2c0,4.142,3.357,7.5,7.5,7.5s7.5-3.358,7.5-7.5v-2
	C312.973,219.309,309.616,215.951,305.473,215.951z"/>
<path d="M196.823,215.951c-4.143,0-7.5,3.358-7.5,7.5v2c0,4.142,3.357,7.5,7.5,7.5c4.143,0,7.5-3.358,7.5-7.5v-2
	C204.323,219.309,200.965,215.951,196.823,215.951z"/>
<path d="M283.086,260.299c-3.406-2.358-8.078-1.509-10.435,1.896c-4.891,7.063-12.928,11.279-21.502,11.279
	c-8.573,0-16.611-4.216-21.502-11.279c-2.357-3.405-7.032-4.254-10.436-1.896c-3.405,2.358-4.255,7.03-1.896,10.435
	c7.691,11.108,20.341,17.74,33.834,17.74s26.143-6.631,33.834-17.74C287.341,267.331,286.491,262.659,283.086,260.299z"/>
<g>
</g>
<g>
</g>
<g>
</g>
<g>
</g>
<g>
</g>
<g>
</g>
<g>
</g>
<g>
</g>
<g>
</g>
<g>
</g>
<g>
</g>
<g>
</g>
<g>
</g>
<g>
</g>
<g>
</g>
</svg>
