<?xml version="1.0" encoding="iso-8859-1"?>
<!-- Generator: Adobe Illustrator 19.0.0, SVG Export Plug-In . SVG Version: 6.00 Build 0)  -->
<svg version="1.1" id="Capa_1" xmlns="http://www.w3.org/2000/svg" xmlns:xlink="http://www.w3.org/1999/xlink" x="0px" y="0px"
	 viewBox="0 0 512.001 512.001" style="enable-background:new 0 0 512.001 512.001;" xml:space="preserve">
<path style="fill:#484655;" d="M125.263,152c-7.264,35.952-7.264,73.048,0,109c87.157,0,174.314,0,261.471,0
	c7.264-35.952,7.264-73.048,0-109C299.577,152,212.42,152,125.263,152z"/>
<path style="fill:#F0EEEE;" d="M203.071,363.444h105.855c41.621,0,75.362,33.741,75.362,75.362V504.5H127.71v-65.694
	C127.71,397.184,161.45,363.444,203.071,363.444z"/>
<path style="fill:#FB403F;" d="M203.071,363.444h105.855c41.621,0,75.362,33.741,75.362,75.362V504.5H127.71v-65.694
	C127.71,397.184,161.45,363.444,203.071,363.444z"/>
<path style="fill:#C21C1C;" d="M308.926,363.444h-22.501c41.621,0,75.362,33.741,75.362,75.362V504.5h22.501v-65.695
	C384.288,397.184,350.547,363.444,308.926,363.444z"/>
<path style="fill:#78D6D1;" d="M255.999,433.972l-63.994-11.061c-15.848-2.739-30.339,9.463-30.339,25.545v23.211h-11.455V504.5
	h211.576v-32.833h-11.455v-23.211c0-16.083-14.492-28.284-30.339-25.545L255.999,433.972"/>
<g>
	<path style="fill:#FA9E3E;" d="M213.903,267.729v90.668c0,23.249,18.847,42.096,42.096,42.096l0,0
		c23.249,0,42.096-18.847,42.096-42.096v-90.668H213.903z"/>
	<path style="fill:#FA9E3E;" d="M125.838,223.99h49.369v56.61h-49.369c-15.632,0-28.305-12.673-28.305-28.305
		S110.205,223.99,125.838,223.99z"/>
	<path style="fill:#FA9E3E;" d="M386.16,223.99h-49.369v56.61h49.369c15.632,0,28.305-12.673,28.305-28.305
		S401.792,223.99,386.16,223.99z"/>
</g>
<path style="fill:#FFB56B;" d="M255.999,342.79L255.999,342.79c-61.919,0-112.115-50.195-112.115-112.115V117.281h224.229v113.394
	C368.113,292.595,317.918,342.79,255.999,342.79z"/>
<path style="fill:#EF9245;" d="M344.779,117.281v125.062c0,53.578-41.949,97.354-94.794,100.286
	c1.992,0.105,3.996,0.161,6.014,0.161l0,0c61.919,0,112.115-50.195,112.115-112.115V117.281H344.779z"/>
<path style="fill:#D69400;" d="M319.909,7.5h-21.717c-4.632,0-9.167,1.329-13.066,3.829l-8.116,5.203
	c-12.804,8.208-29.216,8.208-42.02,0l-8.116-5.203c-3.899-2.5-8.434-3.829-13.066-3.829h-17.346
	c-16.129,0-30.289,10.729-34.653,26.256l-37.621,133.855h267.996l-37.62-133.855C350.198,18.229,336.038,7.5,319.909,7.5z"/>
<path style="fill:#B77A00;" d="M332.412,33.756l33.783,133.855h25.987l-37.62-133.855C350.198,18.229,336.038,7.5,319.909,7.5
	h-18.818C315.669,7.5,328.468,18.229,332.412,33.756z"/>
<path style="fill:#825939;" d="M140.875,108.232l-16.689,59.379h267.996l-16.206-57.661C343.56,98.128,301.706,91,255.999,91
	C212.545,91,172.566,97.439,140.875,108.232z"/>
<path style="fill:#684229;" d="M375.976,109.95c-8.211-2.994-17.031-5.684-26.362-8.037l16.581,65.698h25.987L375.976,109.95z"/>
<g>
	<path style="fill:#FFB700;" d="M255.999,192.914c-53.779,0-107.559-9.67-158.741-29.011c-8.783-3.318-13.213-13.129-9.894-21.912
		c3.319-8.782,13.128-13.212,21.911-9.893c94.617,35.752,198.83,35.752,293.447,0c8.782-3.318,18.593,1.111,21.911,9.893
		c3.319,8.783-1.11,18.593-9.894,21.912C363.557,183.243,309.778,192.914,255.999,192.914z"/>
	<circle style="fill:#FFB700;" cx="319.019" cy="457.33" r="13.667"/>
	<circle style="fill:#FFB700;" cx="192.969" cy="457.33" r="13.667"/>
</g>
<path d="M310.322,209.962c-4.143,0-7.5,3.358-7.5,7.5v2c0,4.142,3.357,7.5,7.5,7.5s7.5-3.358,7.5-7.5v-2
	C317.822,213.32,314.465,209.962,310.322,209.962z"/>
<path d="M201.676,209.962c-4.143,0-7.5,3.358-7.5,7.5v2c0,4.142,3.357,7.5,7.5,7.5s7.5-3.358,7.5-7.5v-2
	C209.176,213.32,205.818,209.962,201.676,209.962z"/>
<path d="M287.935,260.31c-3.406-2.358-8.078-1.509-10.436,1.896c-4.891,7.063-12.928,11.279-21.501,11.279
	c-8.573,0-16.61-4.216-21.501-11.279c-2.357-3.405-7.032-4.254-10.436-1.896c-3.405,2.358-4.255,7.03-1.896,10.435
	c7.691,11.108,20.34,17.739,33.833,17.739c13.493,0,26.142-6.631,33.833-17.739C292.19,267.34,291.341,262.668,287.935,260.31z"/>
<path d="M431.646,139.345c-2.308-6.123-6.865-10.979-12.831-13.673c-5.964-2.693-12.62-2.901-18.749-0.587
	c-3.607,1.364-7.266,2.679-10.938,3.947l-5.928-21.109c-0.009-0.033-0.024-0.063-0.033-0.096L361.78,31.733
	C356.534,13.049,339.316,0,319.909,0h-21.721c-6.072,0-11.987,1.734-17.104,5.014l-8.125,5.203
	c-10.303,6.61-23.618,6.609-33.925-0.003l-8.118-5.198C225.797,1.734,219.882,0,213.809,0h-17.35
	c-19.408,0-36.626,13.049-41.87,31.73l-20.923,74.449c-0.002,0.007-0.005,0.014-0.007,0.022l-6.797,24.19
	c-5.02-1.679-10.02-3.45-14.931-5.307c-6.124-2.313-12.78-2.105-18.747,0.588c-5.966,2.693-10.523,7.549-12.828,13.666
	c-2.315,6.12-2.106,12.776,0.587,18.741c2.692,5.963,7.545,10.523,13.669,12.838c6.336,2.392,12.765,4.655,19.181,6.759
	c-1.4,13.73-1.797,27.59-1.187,41.352c-13.396,5.319-22.575,18.408-22.575,33.263c0,19.746,16.064,35.81,35.809,35.81h25.227
	c12.443,22.705,31.833,40.732,55.334,51.438v16.402h-3.33c-0.934,0-1.858,0.04-2.784,0.071c-0.755-3.344-3.738-5.844-7.311-5.844
	c-4.143,0-7.5,3.358-7.5,7.5v0.172c-37.263,8.093-65.266,41.315-65.266,80.971v65.69c0,4.142,3.357,7.5,7.5,7.5h22.502h211.576
	h22.502c4.143,0,7.5-3.358,7.5-7.5v-65.69c0-39.656-28.002-72.879-65.266-80.971v-0.172c0-4.142-3.357-7.5-7.5-7.5
	c-3.573,0-6.556,2.5-7.311,5.844c-0.926-0.031-1.85-0.071-2.784-0.071h-3.33v-16.402c23.503-10.708,42.892-28.735,55.334-51.438
	h25.227c19.745,0,35.809-16.064,35.809-35.81c0-14.864-9.191-27.961-22.575-33.268c0.609-13.76,0.212-27.618-1.187-41.346
	c6.417-2.104,12.845-4.367,19.181-6.759c0.002-0.001,0.003-0.001,0.004-0.002c6.12-2.314,10.973-6.873,13.665-12.836
	C433.75,152.113,433.959,145.458,431.646,139.345z M169.03,35.787C172.466,23.548,183.745,15,196.459,15h17.35
	c3.197,0,6.314,0.915,9.015,2.646l8.115,5.197c15.222,9.764,34.895,9.765,50.114,0.003l8.122-5.201
	c2.699-1.73,5.815-2.645,9.013-2.645h21.721c12.714,0,23.993,8.548,27.43,20.789l17.592,62.592
	C333.063,88.743,294.984,83.5,255.999,83.5c-16.225,0-32.378,0.894-48.011,2.657c-4.116,0.464-7.076,4.177-6.612,8.293
	c0.465,4.116,4.167,7.08,8.294,6.612c15.076-1.7,30.664-2.563,46.329-2.563c41.435,0,81.659,6.099,113.804,17.216l5.048,17.961
	c-0.127,0.039-0.253,0.078-0.38,0.117c-0.934,0.284-1.878,0.564-2.822,0.844c-0.449,0.133-0.893,0.268-1.343,0.399
	c-1.399,0.409-2.807,0.814-4.223,1.213c-69.16,19.416-142.115,20.175-211.578,2.307c-2.867-0.737-5.729-1.495-8.583-2.296
	c-1.588-0.447-3.167-0.908-4.742-1.371l0.369-1.313l5.475-19.481c10.356-3.34,21.518-6.198,33.236-8.507
	c4.063-0.801,6.709-4.745,5.908-8.809c-0.801-4.064-4.745-6.71-8.809-5.908c-8.83,1.74-17.367,3.784-25.524,6.101L169.03,35.787z
	 M136.341,184.433c0.016,0.004,0.031,0.009,0.047,0.013v32.044h-8.884c-0.425-11.412-0.118-22.89,0.914-34.285
	c0.287,0.084,0.574,0.159,0.861,0.242C131.636,183.128,133.992,183.796,136.341,184.433z M125.839,273.1
	c-11.475,0-20.809-9.336-20.809-20.81c0-9.941,7.067-18.523,16.844-20.414c1.286-0.256,2.62-0.386,3.966-0.386h10.554
	c0.004,0.362,0.009,0.724,0.015,1.087l0.003,0.188c0.004,0.217,0.013,0.431,0.017,0.648c0.01,0.446,0.02,0.892,0.035,1.337
	c0.001,0.01,0,0.021,0.001,0.031c0.012,0.569,0.035,1.134,0.064,1.635c0.007,0.157,0.018,0.316,0.025,0.474
	c0.026,0.52,0.056,1.039,0.089,1.557c0.012,0.196,0.021,0.392,0.036,0.587c0.032,0.49,0.071,0.99,0.112,1.509
	c0.902,11.197,3.354,22.066,7.321,32.498c0.007,0.019,0.014,0.039,0.021,0.058L125.839,273.1L125.839,273.1z M225.283,346.305
	c0.276,0.073,0.553,0.143,0.83,0.214c1.106,0.285,2.216,0.556,3.33,0.809c0.185,0.042,0.368,0.088,0.553,0.129
	c1.25,0.278,2.506,0.531,3.766,0.768c0.291,0.055,0.583,0.106,0.874,0.159c1.156,0.209,2.316,0.403,3.48,0.577
	c0.143,0.021,0.285,0.046,0.428,0.067c1.274,0.186,2.552,0.346,3.834,0.491c0.304,0.034,0.608,0.066,0.913,0.098
	c1.222,0.129,2.447,0.243,3.675,0.335c0.084,0.006,0.167,0.015,0.251,0.021c1.295,0.093,2.594,0.16,3.895,0.212
	c0.316,0.013,0.632,0.024,0.948,0.034c1.31,0.042,2.622,0.071,3.939,0.071c1.317,0,2.629-0.029,3.939-0.071
	c0.316-0.01,0.632-0.021,0.948-0.034c1.302-0.052,2.601-0.118,3.895-0.212c0.084-0.006,0.168-0.015,0.252-0.021
	c1.229-0.091,2.453-0.206,3.676-0.335c0.304-0.032,0.607-0.064,0.91-0.098c1.283-0.145,2.563-0.306,3.838-0.492
	c0.139-0.02,0.276-0.044,0.415-0.065c1.171-0.175,2.337-0.371,3.5-0.58c0.286-0.052,0.571-0.102,0.856-0.156
	c1.264-0.238,2.525-0.492,3.78-0.771c0.176-0.039,0.351-0.083,0.527-0.122c1.126-0.256,2.249-0.529,3.367-0.818
	c0.267-0.069,0.534-0.136,0.801-0.207c1.241-0.329,2.477-0.677,3.708-1.047c0.062-0.019,0.125-0.034,0.187-0.053V358.4
	c0,1.404-0.082,2.796-0.247,4.149c-0.914,7.643-4.424,14.853-9.887,20.308c-6.534,6.535-15.223,10.133-24.466,10.133
	c-1.642,0-3.26-0.115-4.846-0.338c-0.621-0.087-1.235-0.196-1.846-0.316c-14.459-2.839-25.863-14.698-27.663-29.8
	c-0.163-1.341-0.245-2.733-0.245-4.137v-13.191c0.066,0.02,0.132,0.036,0.198,0.056C222.82,345.632,224.049,345.978,225.283,346.305
	z M135.209,438.81c0-31.338,21.352-57.771,50.266-65.543v41.838c-7.07,0.444-13.875,3.121-19.412,7.783
	c-7.561,6.366-11.896,15.685-11.896,25.568v15.71h-3.955c-4.143,0-7.5,3.358-7.5,7.5V497h-7.502v-58.19H135.209z M192.974,451.167
	c3.4,0,6.166,2.767,6.166,6.167s-2.766,6.167-6.166,6.167s-6.167-2.766-6.167-6.167S189.574,451.167,192.974,451.167z
	 M376.789,438.81V497h-7.502v-25.333c0-4.142-3.357-7.5-7.5-7.5h-3.955v-15.71c0-9.883-4.336-19.203-11.896-25.568
	c-5.537-4.662-12.342-7.34-19.412-7.783v-41.837C355.437,381.039,376.789,407.472,376.789,438.81z M319.023,451.167
	c3.4,0,6.167,2.767,6.167,6.167s-2.767,6.167-6.167,6.167s-6.166-2.766-6.166-6.167S315.623,451.167,319.023,451.167z
	 M311.523,371.006v45.757l-55.524,9.597l-32.321-5.587c-4.087-0.705-7.962,2.032-8.668,6.113c-0.705,4.081,2.031,7.962,6.113,8.668
	l33.599,5.807c0.041,0.007,0.082,0.009,0.123,0.016c0.122,0.019,0.245,0.034,0.369,0.048c0.118,0.012,0.236,0.021,0.354,0.029
	c0.104,0.006,0.207,0.012,0.311,0.013c0.043,0.001,0.087,0.006,0.13,0.006c0.11,0,0.218-0.01,0.327-0.015
	c0.079-0.004,0.158-0.004,0.237-0.01c0.237-0.018,0.472-0.046,0.704-0.086l0,0l0,0c0.029-0.005,0.059-0.01,0.088-0.015l54.159-9.361
	v5.578c-7.975,3.037-13.666,10.741-13.666,19.769c0,11.671,9.495,21.167,21.166,21.167c11.672,0,21.167-9.495,21.167-21.167
	c0-9.028-5.692-16.732-13.667-19.769v-7.388c3.553,0.409,6.948,1.826,9.751,4.186c4.167,3.509,6.558,8.646,6.558,14.094v23.21
	c0,4.142,3.357,7.5,7.5,7.5h3.955V497H157.711v-17.833h3.955c4.143,0,7.5-3.358,7.5-7.5v-23.21c0-5.448,2.391-10.585,6.558-14.094
	c2.803-2.36,6.197-3.777,9.751-4.186v7.388c-7.975,3.037-13.667,10.741-13.667,19.769c0,11.671,9.495,21.167,21.167,21.167
	c11.671,0,21.166-9.495,21.166-21.167c0-9.028-5.691-16.732-13.666-19.769v-66.559c0.862-0.033,1.725-0.066,2.595-0.066h4.929
	c0.01,0.039,0.023,0.078,0.033,0.117c0.062,0.235,0.133,0.466,0.198,0.699c0.131,0.469,0.262,0.938,0.406,1.402
	c0.085,0.275,0.179,0.545,0.269,0.818c0.138,0.417,0.276,0.833,0.424,1.245c0.103,0.286,0.212,0.569,0.32,0.853
	c0.149,0.391,0.3,0.781,0.458,1.167c0.118,0.288,0.241,0.574,0.365,0.859c0.163,0.376,0.329,0.75,0.501,1.121
	c0.131,0.284,0.265,0.565,0.401,0.846c0.178,0.366,0.361,0.728,0.547,1.089c0.143,0.276,0.286,0.552,0.434,0.826
	c0.195,0.36,0.397,0.716,0.6,1.07c0.151,0.263,0.301,0.527,0.456,0.787c0.218,0.364,0.444,0.721,0.671,1.079
	c0.153,0.242,0.303,0.486,0.461,0.725c0.255,0.387,0.519,0.765,0.785,1.144c0.141,0.201,0.276,0.406,0.42,0.605
	c0.407,0.564,0.825,1.12,1.255,1.666c0.051,0.065,0.105,0.127,0.156,0.191c0.392,0.493,0.792,0.979,1.202,1.455
	c0.165,0.192,0.337,0.377,0.505,0.566c0.3,0.338,0.599,0.676,0.908,1.005c0.199,0.212,0.403,0.417,0.605,0.626
	c0.289,0.297,0.577,0.594,0.873,0.884c0.217,0.213,0.44,0.421,0.661,0.631c0.291,0.275,0.584,0.549,0.881,0.817
	c0.231,0.208,0.464,0.411,0.699,0.615c0.299,0.26,0.601,0.516,0.906,0.768c0.24,0.199,0.482,0.395,0.727,0.589
	c0.31,0.247,0.624,0.489,0.941,0.728c0.247,0.187,0.494,0.373,0.745,0.556c0.326,0.237,0.656,0.468,0.987,0.697
	c0.249,0.172,0.498,0.346,0.751,0.514c0.349,0.232,0.704,0.456,1.059,0.679c0.242,0.152,0.482,0.308,0.727,0.456
	c0.396,0.239,0.798,0.468,1.201,0.697c0.213,0.121,0.422,0.247,0.636,0.364c0.611,0.335,1.228,0.658,1.854,0.967
	c0.046,0.023,0.093,0.044,0.139,0.066c0.598,0.293,1.201,0.575,1.812,0.845c0.225,0.099,0.454,0.19,0.681,0.286
	c0.429,0.182,0.858,0.363,1.294,0.534c0.266,0.104,0.535,0.199,0.803,0.299c0.403,0.149,0.806,0.298,1.213,0.437
	c0.286,0.098,0.574,0.189,0.862,0.281c0.396,0.127,0.793,0.252,1.193,0.37c0.298,0.088,0.598,0.17,0.898,0.252
	c0.398,0.109,0.797,0.213,1.198,0.312c0.304,0.075,0.609,0.147,0.916,0.216c0.405,0.092,0.812,0.177,1.221,0.259
	c0.306,0.061,0.613,0.122,0.921,0.177c0.418,0.075,0.839,0.142,1.26,0.207c0.303,0.046,0.605,0.094,0.909,0.135
	c0.441,0.059,0.884,0.108,1.328,0.155c0.289,0.031,0.577,0.066,0.868,0.092c0.493,0.044,0.989,0.075,1.485,0.104
	c0.244,0.015,0.487,0.036,0.733,0.047c0.744,0.033,1.491,0.052,2.242,0.052c13.25,0,25.706-5.159,35.068-14.523
	c0.696-0.695,1.361-1.416,2.012-2.149c0.141-0.159,0.282-0.317,0.421-0.478c0.626-0.724,1.234-1.463,1.816-2.221
	c0.094-0.122,0.183-0.248,0.276-0.371c0.527-0.699,1.034-1.412,1.522-2.137c0.093-0.138,0.19-0.275,0.281-0.414
	c0.526-0.798,1.026-1.612,1.505-2.439c0.1-0.173,0.197-0.347,0.295-0.521c0.469-0.832,0.921-1.674,1.341-2.531
	c0.012-0.025,0.026-0.049,0.038-0.074c0.43-0.882,0.826-1.78,1.204-2.686c0.076-0.182,0.151-0.363,0.225-0.545
	c0.363-0.9,0.704-1.809,1.014-2.73c0.035-0.104,0.066-0.21,0.1-0.315c0.285-0.866,0.545-1.741,0.782-2.623
	c0.027-0.099,0.062-0.195,0.088-0.294h4.94C309.799,370.94,310.661,370.973,311.523,371.006z M295.276,327.661
	c-12.463,5.062-25.678,7.629-39.277,7.629c-1.7,0-3.394-0.04-5.081-0.12c-0.914-0.043-1.826-0.101-2.736-0.168
	c-10.848-0.797-21.401-3.255-31.466-7.344c-23.669-9.588-42.994-27.489-54.414-50.404c-0.002-0.004-0.003-0.007-0.005-0.011
	c-0.658-1.318-1.279-2.657-1.882-4.008c-0.105-0.233-0.21-0.467-0.313-0.701c-1.901-4.349-3.512-8.848-4.806-13.442
	c-0.01-0.037-0.014-0.075-0.025-0.113c-0.9-3.219-1.661-6.546-2.266-9.889c-0.02-0.118-0.041-0.235-0.063-0.353l-0.033-0.189
	c-0.092-0.534-0.184-1.077-0.281-1.712c-0.082-0.498-0.152-0.994-0.217-1.444c-0.263-1.941-0.479-3.858-0.638-5.636
	c-0.019-0.24-0.035-0.48-0.054-0.719c-0.041-0.528-0.079-1.057-0.113-1.587c-0.008-0.134-0.018-0.268-0.025-0.402
	c-0.002-0.032-0.009-0.157-0.011-0.189c-0.012-0.173-0.021-0.345-0.031-0.521c-0.036-0.695-0.066-1.393-0.089-2.091
	c-0.001-0.028-0.001-0.057-0.003-0.085c-0.017-0.352-0.021-0.709-0.028-1.065c-0.018-0.805-0.034-1.611-0.034-2.419v-6.689v-35.743
	c0.859,0.202,1.72,0.391,2.58,0.588c0.973,0.223,1.945,0.449,2.919,0.666c1.328,0.296,2.659,0.58,3.99,0.864
	c0.923,0.197,1.845,0.398,2.77,0.59c1.453,0.3,2.909,0.586,4.364,0.873c0.805,0.158,1.61,0.324,2.416,0.478
	c2.039,0.389,4.081,0.763,6.125,1.124c0.223,0.039,0.445,0.083,0.668,0.122c2.261,0.397,4.526,0.774,6.793,1.137
	c0.762,0.122,1.525,0.232,2.288,0.35c1.516,0.234,3.032,0.469,4.551,0.688c0.907,0.131,1.815,0.251,2.722,0.376
	c1.376,0.19,2.753,0.38,4.131,0.558c0.965,0.125,1.932,0.24,2.899,0.358c1.326,0.162,2.652,0.323,3.979,0.473
	c0.991,0.113,1.982,0.218,2.974,0.324c1.307,0.14,2.614,0.276,3.922,0.404c1.003,0.098,2.006,0.192,3.01,0.284
	c1.303,0.119,2.607,0.233,3.911,0.341c1.004,0.083,2.008,0.164,3.012,0.24c1.31,0.1,2.62,0.192,3.93,0.28
	c0.995,0.067,1.991,0.134,2.987,0.195c1.34,0.081,2.68,0.153,4.02,0.223c0.964,0.05,1.928,0.103,2.893,0.147
	c1.4,0.064,2.8,0.115,4.201,0.166c0.906,0.033,1.812,0.071,2.719,0.098c1.545,0.047,3.09,0.079,4.635,0.11
	c0.762,0.015,1.523,0.038,2.285,0.05c2.306,0.035,4.612,0.055,6.919,0.055c2.307,0,4.613-0.02,6.919-0.055
	c0.762-0.012,1.524-0.034,2.285-0.05c1.545-0.031,3.09-0.063,4.635-0.11c0.908-0.028,1.816-0.066,2.724-0.099
	c1.397-0.051,2.794-0.102,4.191-0.166c0.969-0.044,1.937-0.097,2.906-0.148c1.337-0.07,2.675-0.141,4.012-0.222
	c0.997-0.061,1.994-0.128,2.991-0.195c1.306-0.088,2.612-0.18,3.918-0.279c1.012-0.077,2.023-0.158,3.034-0.242
	c1.297-0.107,2.593-0.221,3.888-0.339c1.01-0.092,2.019-0.187,3.029-0.286c1.298-0.127,2.595-0.262,3.892-0.401
	c1.003-0.107,2.006-0.214,3.008-0.328c1.312-0.149,2.623-0.308,3.934-0.468c0.98-0.12,1.961-0.237,2.941-0.363
	c1.359-0.175,2.716-0.363,4.073-0.55c0.927-0.128,1.854-0.251,2.779-0.384c1.482-0.214,2.962-0.443,4.442-0.671
	c0.799-0.123,1.599-0.239,2.398-0.367c2.223-0.355,4.444-0.726,6.662-1.115c0.332-0.058,0.663-0.121,0.995-0.18
	c1.969-0.349,3.937-0.708,5.901-1.083c0.835-0.159,1.667-0.331,2.501-0.495c1.427-0.281,2.854-0.561,4.279-0.855
	c0.937-0.194,1.871-0.398,2.807-0.598c1.322-0.282,2.645-0.564,3.964-0.858c0.97-0.216,1.938-0.441,2.906-0.663
	c0.865-0.199,1.732-0.388,2.596-0.592v35.743v6.689c0,0.806-0.016,1.609-0.034,2.411c-0.007,0.359-0.01,0.719-0.028,1.073
	c-0.001,0.028-0.002,0.057-0.003,0.085c-0.021,0.629-0.048,1.256-0.08,1.882c-0.012,0.242-0.023,0.483-0.039,0.73
	c-0.002,0.032-0.009,0.157-0.011,0.189c-0.007,0.134-0.017,0.268-0.025,0.402c-0.04,0.641-0.084,1.281-0.136,1.919
	c-0.008,0.107-0.018,0.221-0.026,0.324c-0.164,1.841-0.38,3.758-0.635,5.643c-0.072,0.506-0.143,1.003-0.239,1.592
	c-0.083,0.543-0.175,1.086-0.279,1.697l-0.021,0.112c-0.022,0.117-0.043,0.235-0.063,0.353c-0.604,3.343-1.366,6.67-2.266,9.889
	c-0.011,0.039-0.015,0.079-0.026,0.119c-1.29,4.585-2.902,9.084-4.803,13.434c-0.103,0.235-0.209,0.47-0.314,0.705
	c-0.602,1.349-1.223,2.688-1.881,4.005c-0.002,0.004-0.003,0.007-0.005,0.011C338.276,300.17,318.951,318.07,295.276,327.661z
	 M382.713,182.449c0.289-0.083,0.577-0.159,0.865-0.243c1.032,11.395,1.339,22.873,0.914,34.285h-8.884v-32.044
	c0.04-0.011,0.08-0.023,0.12-0.034C378.054,183.781,380.383,183.122,382.713,182.449z M406.968,252.29
	c0,11.475-9.335,20.81-20.809,20.81h-18.292c0.018-0.047,0.034-0.094,0.051-0.14c3.991-10.521,6.44-21.486,7.315-32.784
	c0.03-0.38,0.061-0.76,0.086-1.14c0.014-0.183,0.023-0.365,0.034-0.548c0.028-0.444,0.057-0.888,0.08-1.333
	c0.012-0.235,0.023-0.46,0.033-0.666c0.033-0.569,0.057-1.138,0.068-1.708c0.001-0.01,0-0.021,0.001-0.031
	c0.015-0.448,0.025-0.896,0.035-1.345c0.004-0.216,0.013-0.428,0.017-0.645l0.003-0.183c0.006-0.364,0.011-0.725,0.015-1.087h10.554
	c1.346,0,2.68,0.13,4.006,0.394C399.901,233.767,406.968,242.349,406.968,252.29z M417.385,151.906
	c-1.044,2.312-2.924,4.079-5.295,4.977c-8.009,3.023-16.17,5.838-24.259,8.368c-0.001,0-0.003,0.001-0.005,0.001
	c-2.836,0.889-5.687,1.74-8.538,2.57c-4.362,1.269-8.728,2.475-13.056,3.586c-35.97,9.29-73.058,14.001-110.234,14.001
	c-4.647,0-9.293-0.074-13.935-0.221c-32.496-1.029-64.827-5.652-96.309-13.783c-4.099-1.053-8.235-2.19-12.372-3.387
	c-3.076-0.89-6.152-1.808-9.212-2.767c-0.001,0-0.003-0.001-0.004-0.001c-8.087-2.529-16.249-5.345-24.256-8.367
	c-2.373-0.897-4.255-2.666-5.299-4.979c-1.044-2.312-1.125-4.892-0.226-7.271c0.894-2.37,2.658-4.249,4.969-5.292
	c1.248-0.564,2.575-0.847,3.906-0.847c1.135,0,2.271,0.206,3.364,0.619c7.574,2.864,15.345,5.549,23.102,7.982
	c3.952,1.237,8.033,2.449,12.135,3.604c4.667,1.309,9.35,2.537,14.048,3.683c0.929,0.227,1.862,0.436,2.792,0.656
	c1.422,0.337,2.843,0.68,4.267,1.002c0.28,0.063,0.561,0.12,0.841,0.182c2.077,0.465,4.156,0.92,6.238,1.353
	c0.127,0.026,0.254,0.049,0.381,0.076c2.236,0.462,4.474,0.91,6.715,1.336c0.577,0.11,1.157,0.207,1.735,0.314
	c1.792,0.333,3.583,0.665,5.378,0.974c0.936,0.161,1.873,0.305,2.81,0.46c1.44,0.238,2.879,0.484,4.32,0.707
	c1.329,0.206,2.661,0.39,3.992,0.583c1.049,0.152,2.098,0.316,3.148,0.46c1.666,0.229,3.334,0.435,5.002,0.644
	c0.718,0.09,1.436,0.191,2.154,0.277c54.913,6.589,110.788,2.35,164.459-12.718c2.659-0.749,5.293-1.518,7.889-2.301
	c0.116-0.035,0.235-0.069,0.351-0.104c2.709-0.82,5.375-1.656,7.977-2.502c0.002-0.001,0.004-0.002,0.006-0.002
	c6.36-2.059,12.755-4.301,19.005-6.664c2.378-0.898,4.961-0.817,7.273,0.227c2.31,1.043,4.075,2.922,4.972,5.3
	C418.51,147.015,418.429,149.594,417.385,151.906z"/>
<path d="M228.332,485.833h55.334c4.143,0,7.5-3.358,7.5-7.5s-3.357-7.5-7.5-7.5h-55.334c-4.143,0-7.5,3.358-7.5,7.5
	S224.189,485.833,228.332,485.833z"/>
<g>
</g>
<g>
</g>
<g>
</g>
<g>
</g>
<g>
</g>
<g>
</g>
<g>
</g>
<g>
</g>
<g>
</g>
<g>
</g>
<g>
</g>
<g>
</g>
<g>
</g>
<g>
</g>
<g>
</g>
</svg>
