<?xml version="1.0" encoding="iso-8859-1"?>
<!-- Generator: Adobe Illustrator 19.0.0, SVG Export Plug-In . SVG Version: 6.00 Build 0)  -->
<svg version="1.1" id="Capa_1" xmlns="http://www.w3.org/2000/svg" xmlns:xlink="http://www.w3.org/1999/xlink" x="0px" y="0px"
	 viewBox="0 0 512.001 512.001" style="enable-background:new 0 0 512.001 512.001;" xml:space="preserve">
<path style="fill:#35343F;" d="M245.957,9.106L57.509,70.432c-4.99,1.624-4.99,8.683,0,10.307l188.446,61.326
	c6.529,2.125,13.563,2.125,20.09,0l188.447-61.326c4.99-1.624,4.99-8.683,0-10.307L266.047,9.106
	C259.518,6.981,252.484,6.981,245.957,9.106z"/>
<path style="fill:#FA8500;" d="M394.038,370.35c1.28,6.187,1.96,12.538,1.96,19.028c0,62.784-62.678,81.622-139.996,81.622
	s-139.996-18.837-139.996-81.622c0-6.491,0.68-12.842,1.96-19.028c17.92-93.021,17.92-96.279,0-189.301
	c-1.28-6.187-1.96-12.547-1.96-19.028c0-10.027,1.6-19.749,4.6-29.011h270.793c3,9.262,4.6,18.984,4.6,29.011
	c0,6.482-0.68,12.842-1.96,19.028C376.118,274.071,376.118,277.329,394.038,370.35z"/>
<path style="fill:#CE6A06;" d="M394.038,181.05c1.28-6.187,1.96-12.547,1.96-19.028c0-10.027-1.6-19.749-4.6-29.011h-22.999
	c3,9.262,4.6,18.984,4.6,29.011c0,6.482-0.68,12.842-1.96,19.028c-17.92,93.021-17.92,96.279,0,189.301
	c1.28,6.186,1.96,12.538,1.96,19.028c0,59.64-56.558,79.622-128.496,81.475c3.793,0.098,7.627,0.148,11.5,0.148
	c77.318,0,139.996-18.837,139.996-81.622c0-6.491-0.68-12.842-1.96-19.028C376.118,277.329,376.118,274.071,394.038,181.05z"/>
<g>
	<path style="fill:#FA9E3E;" d="M125.789,224.719l49.368-0.085l0.097,56.608l-49.368,0.085
		c-15.632,0.027-28.326-12.624-28.353-28.255C97.507,237.44,110.157,224.746,125.789,224.719z"/>
	<path style="fill:#FA9E3E;" d="M386.104,224.273l-49.368,0.085l0.097,56.608l49.368-0.085
		c15.632-0.027,28.282-12.721,28.255-28.352C414.43,236.896,401.735,224.245,386.104,224.273z"/>
</g>
<path style="fill:#484655;" d="M203.075,363.447h105.852c41.62,0,75.36,33.74,75.36,75.36V504.5H127.716v-65.693
	C127.716,397.187,161.455,363.447,203.075,363.447z"/>
<path style="fill:#35343F;" d="M308.927,363.447h-22.631c41.62,0,75.36,33.74,75.36,75.36V504.5h22.631v-65.693
	C384.287,397.187,350.547,363.447,308.927,363.447z"/>
<path style="fill:#F0EEEE;" d="M256.001,471.001l78.421-103.121c-7.964-2.863-16.546-4.432-25.495-4.432H203.075
	c-8.95,0-17.532,1.569-25.495,4.432L256.001,471.001z"/>
<path style="fill:#FA9E3E;" d="M298.1,364.935v-97.199h-84.198v97.199c0,19.963,16.184,36.148,36.148,36.148h11.903
	C281.916,401.083,298.1,384.898,298.1,364.935z"/>
<path style="fill:#FFB56B;" d="M286.53,186.749c-30.221-8.447-56.167-20.908-73.478-34.127h-21.151
	c0.08,1.12,0.131,2.248,0.131,3.388c0,26.099-21.159,47.249-47.249,47.249c-0.3,0-0.6-0.02-0.89-0.02v27.449
	c0,61.908,50.189,112.107,112.107,112.107s112.107-50.199,112.107-112.107v-35.149C346.339,198.078,317.25,195.328,286.53,186.749z"
	/>
<path style="fill:#EF9245;" d="M344.779,196.31v46.039c0,53.577-41.948,97.351-94.791,100.283c0.99,0.052,1.983,0.092,2.98,0.119
	c0.006,0,0.012,0,0.019,0.001c1.002,0.027,2.007,0.041,3.015,0.041l0,0l0,0c61.918,0,112.107-50.199,112.107-112.107v-35.149
	C361.041,196.362,353.194,196.619,344.779,196.31z"/>
<path style="fill:#484655;" d="M107.883,79.27c0,32.092,0,64.184,0,96.276c95.451-30.567,200.784-30.567,296.235,0
	c0-32.092,0-64.184,0-96.276C308.667,48.703,203.335,48.703,107.883,79.27z"/>
<path d="M456.817,63.3L268.366,1.97c-8.093-2.627-16.642-2.626-24.726,0.002l-56.528,18.399c-3.939,1.282-6.092,5.515-4.811,9.453
	c1.283,3.94,5.516,6.097,9.453,4.811l56.526-18.398c4.979-1.619,10.467-1.618,15.45-0.001l162.546,52.9v12.907l-14.659,4.772v-7.541
	c0-3.261-2.107-6.148-5.212-7.143c-96.989-31.063-203.817-31.063-300.807,0c-3.105,0.994-5.212,3.882-5.212,7.143v7.541L65.9,75.587
	l97.334-31.673c3.939-1.281,6.093-5.514,4.811-9.452c-1.282-3.941-5.515-6.096-9.453-4.812L55.191,63.298
	c-5.334,1.732-8.921,6.664-8.927,12.272c-0.005,5.613,3.576,10.557,8.921,12.304l45.2,14.714v72.962
	c0,2.395,1.143,4.645,3.077,6.057c1.934,1.412,4.425,1.816,6.706,1.088c0.149-0.048,0.3-0.093,0.449-0.141
	c2.724,14.147,4.916,25.599,6.727,35.693c-15.68,3.831-27.34,18.008-27.307,34.846c0.019,9.563,3.758,18.546,10.531,25.294
	c6.195,6.173,14.248,9.792,22.89,10.354c-1.315,19.607-5.55,42.266-12.846,80.142c-1.397,6.77-2.105,13.666-2.105,20.497
	c0,16.441,4.031,30.884,11.985,42.982c-0.165,2.132-0.275,4.279-0.275,6.452v65.688c0,4.143,3.358,7.5,7.5,7.5h256.573
	c4.142,0,7.5-3.357,7.5-7.5v-65.688c0-35.827-22.854-66.409-54.745-77.95c-0.027-0.01-0.053-0.025-0.081-0.035
	c-0.858-0.309-1.723-0.591-2.589-0.871c-0.584-0.189-1.171-0.37-1.761-0.546c-0.899-0.269-1.799-0.533-2.706-0.771
	c-0.48-0.126-0.967-0.234-1.451-0.351c-0.776-0.189-1.553-0.374-2.334-0.54c-0.508-0.107-1.019-0.203-1.53-0.301
	c-0.775-0.149-1.551-0.291-2.331-0.417c-0.512-0.083-1.025-0.16-1.539-0.234c-0.803-0.115-1.608-0.216-2.415-0.308
	c-0.494-0.056-0.988-0.113-1.485-0.16c-0.883-0.084-1.769-0.147-2.656-0.203c-0.426-0.027-0.849-0.062-1.277-0.082
	c-1.317-0.062-2.636-0.1-3.961-0.1h-3.33v-16.402c23.399-10.668,42.725-28.582,55.152-51.115l12.743-0.021
	c1.271,20.803,5.619,44.118,13.179,83.364c0.007,0.033,0.013,0.066,0.02,0.101c1.198,5.788,1.805,11.679,1.805,17.509
	c0,4.143,3.358,7.5,7.5,7.5c4.142,0,7.5-3.357,7.5-7.5c0-6.831-0.708-13.726-2.105-20.494
	c-7.338-38.093-11.591-60.865-12.875-80.585c8.697-0.565,16.793-4.222,22.998-10.45c6.751-6.776,10.459-15.775,10.44-25.338
	c-0.032-16.763-11.638-30.842-27.22-34.689c1.78-9.894,3.952-21.246,6.65-35.272c0.152,0.049,0.295,0.093,0.449,0.143
	c0.747,0.238,1.517,0.355,2.282,0.355c1.571,0,3.124-0.494,4.424-1.443c1.934-1.412,3.077-3.662,3.077-6.057v-72.962l14.659-4.772
	v132.192c0,4.143,3.358,7.5,7.5,7.5c4.142,0,7.5-3.357,7.5-7.5V92.932l15.55-5.062c5.337-1.744,8.918-6.688,8.913-12.301
	C465.733,69.962,462.146,65.03,456.817,63.3z M379.683,216.788l-4.075,0.007v-21.256c0-2.141-0.915-4.179-2.514-5.603
	c-1.599-1.424-3.733-2.1-5.855-1.847c-21.53,2.512-50.211-0.61-78.689-8.563c-17.945-5.017-34.706-11.589-49.012-19.108
	c49.803-1.641,100.199,4.416,147.399,17.787c-0.084,0.439-0.153,0.886-0.243,1.321c-0.007,0.035-0.014,0.071-0.021,0.106
	C383.81,194.513,381.534,206.411,379.683,216.788z M396.617,84.777v12.421c0,0.02,0,0.041,0,0.061v68.129
	c-57.944-17.196-120.829-23.614-181.93-18.563c-2.542,0.209-5.093,0.447-7.646,0.698c-3.373,0.331-6.748,0.691-10.108,1.092
	c-0.592,0.071-1.18,0.15-1.771,0.223c-1.373,0.169-2.747,0.336-4.113,0.516c-0.001,0-0.002,0-0.004,0c-0.001,0-0.002,0-0.004,0
	c-0.001,0-0.001,0-0.001,0c-25.692,3.363-51.147,8.761-75.656,16.045V97.259c0-0.021,0-0.041,0-0.061V84.777
	C206.29,56.839,305.713,56.839,396.617,84.777z M144.785,195.758l-0.208-0.006c-0.23-0.008-0.459-0.014-0.684-0.014
	c-4.142,0-7.5,3.357-7.5,7.5V217.2l-4,0.007c-1.884-10.594-4.178-22.582-7.066-37.576c-0.007-0.035-0.014-0.07-0.021-0.105
	c-0.089-0.428-0.157-0.867-0.239-1.299c18.997-5.393,38.527-9.639,58.272-12.634C179.015,182.858,163.281,195.758,144.785,195.758z
	 M105.035,253.062c-0.022-11.472,9.293-20.822,20.762-20.845l10.607-0.018c0.006,0.47,0.021,0.938,0.032,1.406
	c0.007,0.303,0.012,0.606,0.021,0.909c0.033,1.06,0.076,2.117,0.136,3.171c0.009,0.161,0.022,0.32,0.032,0.481
	c0.055,0.902,0.12,1.801,0.195,2.699c0.028,0.335,0.059,0.67,0.09,1.005c0.069,0.758,0.146,1.514,0.23,2.269
	c0.036,0.321,0.07,0.643,0.108,0.965c0.124,1.039,0.257,2.076,0.408,3.109c0.007,0.047,0.015,0.093,0.022,0.14
	c0.146,0.992,0.307,1.98,0.478,2.965c0.056,0.325,0.117,0.649,0.176,0.973c0.134,0.736,0.274,1.47,0.422,2.202
	c0.067,0.331,0.133,0.662,0.202,0.992c0.185,0.879,0.38,1.756,0.585,2.63c0.034,0.147,0.065,0.294,0.1,0.441
	c0.24,1.007,0.497,2.01,0.764,3.01c0.081,0.303,0.167,0.605,0.25,0.907c0.2,0.725,0.406,1.449,0.62,2.171
	c0.098,0.331,0.196,0.661,0.297,0.991c0.242,0.791,0.493,1.579,0.752,2.366c0.071,0.215,0.137,0.43,0.209,0.645
	c0.33,0.984,0.675,1.964,1.031,2.94c0.096,0.264,0.198,0.526,0.296,0.789c0.177,0.474,0.35,0.949,0.533,1.421l-18.522,0.031
	c-0.014,0-0.027,0-0.041,0c-5.539,0-10.749-2.153-14.674-6.064C107.219,263.839,105.045,258.62,105.035,253.062z M123.505,389.379
	c0-5.83,0.607-11.721,1.805-17.509c0.007-0.033,0.013-0.067,0.02-0.101c7.526-39.066,11.855-62.268,13.155-82.965l12.964-0.022
	c12.447,22.373,31.702,40.163,54.956,50.761v16.4h-3.33c-1.324,0-2.644,0.038-3.961,0.1c-0.428,0.02-0.851,0.056-1.277,0.082
	c-0.887,0.056-1.773,0.119-2.656,0.203c-0.497,0.047-0.991,0.104-1.485,0.16c-0.807,0.091-1.612,0.193-2.415,0.308
	c-0.515,0.074-1.028,0.151-1.539,0.234c-0.779,0.127-1.555,0.268-2.331,0.417c-0.511,0.098-1.022,0.193-1.53,0.301
	c-0.781,0.166-1.558,0.352-2.334,0.54c-0.484,0.117-0.97,0.226-1.451,0.351c-0.907,0.238-1.807,0.501-2.706,0.771
	c-0.59,0.176-1.177,0.357-1.761,0.546c-0.866,0.28-1.731,0.561-2.589,0.871c-0.028,0.01-0.053,0.024-0.081,0.035
	c-22.362,8.092-40.261,25.555-48.971,47.619C124.343,402.595,123.505,396.219,123.505,389.379z M225.271,346.305
	c0.289,0.077,0.579,0.15,0.868,0.224c1.089,0.28,2.182,0.547,3.278,0.796c0.198,0.045,0.395,0.094,0.593,0.138
	c1.244,0.276,2.493,0.528,3.745,0.764c0.299,0.056,0.598,0.109,0.897,0.163c1.147,0.207,2.296,0.399,3.45,0.572
	c0.15,0.023,0.3,0.049,0.45,0.071c1.27,0.185,2.544,0.345,3.822,0.49c0.309,0.035,0.618,0.067,0.927,0.1
	c1.218,0.128,2.438,0.242,3.662,0.333c0.086,0.007,0.172,0.015,0.259,0.022c1.294,0.093,2.592,0.16,3.893,0.212
	c0.316,0.012,0.632,0.024,0.949,0.034c1.31,0.042,2.622,0.071,3.938,0.071c1.316,0,2.628-0.029,3.938-0.071
	c0.316-0.01,0.633-0.021,0.949-0.034c1.301-0.052,2.599-0.118,3.893-0.212c0.086-0.006,0.172-0.015,0.259-0.022
	c1.224-0.091,2.445-0.205,3.663-0.333c0.308-0.033,0.617-0.065,0.925-0.1c1.279-0.145,2.554-0.305,3.825-0.49
	c0.149-0.022,0.297-0.048,0.446-0.07c1.155-0.173,2.307-0.366,3.455-0.573c0.298-0.054,0.596-0.106,0.893-0.162
	c1.254-0.236,2.504-0.488,3.748-0.765c0.196-0.043,0.391-0.092,0.587-0.136c1.099-0.25,2.193-0.516,3.284-0.797
	c0.289-0.074,0.578-0.147,0.866-0.223c1.224-0.325,2.443-0.668,3.657-1.033c0.071-0.021,0.142-0.038,0.213-0.06v18.23v1.49
	c0,0.987-0.05,1.963-0.148,2.925c-1.47,14.429-13.692,25.724-28.501,25.724h-11.9c-14.81,0-27.031-11.296-28.501-25.724
	c-0.098-0.962-0.148-1.938-0.148-2.925v-1.49v-18.23c0.07,0.021,0.141,0.039,0.211,0.06
	C222.827,345.637,224.047,345.98,225.271,346.305z M376.788,438.812V497H135.215v-58.188c0-27.449,16.388-51.128,39.883-61.808
	l74.935,98.536c1.418,1.865,3.626,2.96,5.97,2.96c2.343,0,4.552-1.095,5.97-2.96l74.935-98.536
	C360.4,387.684,376.788,411.362,376.788,438.812z M312.303,371.029c0.356,0.017,0.71,0.052,1.065,0.076
	c0.762,0.049,1.523,0.099,2.278,0.174c0.419,0.041,0.836,0.1,1.254,0.149c0.684,0.08,1.368,0.16,2.046,0.261
	c0.454,0.067,0.905,0.151,1.358,0.227c0.479,0.081,0.957,0.165,1.433,0.257l-65.734,86.44l-65.734-86.44
	c0.476-0.091,0.953-0.175,1.432-0.256c0.453-0.077,0.904-0.16,1.359-0.228c0.677-0.101,1.361-0.18,2.045-0.261
	c0.418-0.049,0.835-0.108,1.254-0.149c0.755-0.075,1.516-0.124,2.278-0.174c0.355-0.023,0.709-0.058,1.065-0.076
	c1.118-0.055,2.242-0.086,3.373-0.086h3.742c0.016,0.113,0.038,0.224,0.054,0.336c0.043,0.295,0.094,0.588,0.143,0.881
	c0.066,0.397,0.135,0.793,0.213,1.187c0.059,0.299,0.122,0.595,0.187,0.892c0.084,0.383,0.171,0.765,0.265,1.144
	c0.073,0.297,0.15,0.593,0.229,0.888c0.101,0.374,0.207,0.745,0.317,1.115c0.087,0.292,0.175,0.584,0.268,0.873
	c0.118,0.368,0.244,0.733,0.372,1.096c0.1,0.284,0.198,0.567,0.303,0.848c0.138,0.367,0.284,0.73,0.431,1.092
	c0.109,0.27,0.215,0.54,0.33,0.807c0.162,0.377,0.335,0.749,0.507,1.12c0.113,0.244,0.221,0.491,0.339,0.733
	c0.208,0.428,0.428,0.847,0.65,1.267c0.094,0.179,0.182,0.362,0.279,0.54c0.319,0.585,0.651,1.161,0.996,1.73
	c0.124,0.204,0.257,0.402,0.384,0.604c0.231,0.367,0.461,0.735,0.703,1.095c0.16,0.239,0.329,0.471,0.494,0.707
	c0.221,0.315,0.44,0.631,0.669,0.94c0.18,0.244,0.367,0.482,0.552,0.721c0.225,0.292,0.45,0.583,0.683,0.868
	c0.196,0.241,0.397,0.477,0.597,0.713c0.234,0.276,0.469,0.55,0.71,0.819c0.208,0.233,0.42,0.463,0.633,0.692
	c0.245,0.263,0.492,0.522,0.743,0.779c0.219,0.224,0.441,0.447,0.665,0.666c0.257,0.251,0.517,0.498,0.779,0.743
	c0.228,0.213,0.457,0.425,0.69,0.633c0.271,0.242,0.548,0.479,0.825,0.715c0.234,0.199,0.466,0.398,0.704,0.592
	c0.29,0.236,0.587,0.465,0.883,0.694c0.235,0.181,0.467,0.366,0.706,0.542c0.321,0.238,0.65,0.466,0.977,0.696
	c0.222,0.156,0.441,0.316,0.667,0.468c0.418,0.281,0.845,0.55,1.274,0.817c0.143,0.089,0.281,0.184,0.425,0.271
	c0.569,0.346,1.148,0.678,1.734,0.998c0.209,0.114,0.424,0.219,0.635,0.33c0.388,0.204,0.775,0.408,1.169,0.6
	c0.251,0.123,0.508,0.236,0.762,0.354c0.362,0.168,0.724,0.336,1.091,0.494c0.271,0.116,0.545,0.225,0.819,0.336
	c0.359,0.146,0.718,0.291,1.081,0.427c0.282,0.106,0.568,0.206,0.853,0.306c0.362,0.127,0.725,0.252,1.091,0.37
	c0.291,0.094,0.583,0.183,0.876,0.271c0.369,0.11,0.739,0.216,1.112,0.316c0.295,0.08,0.591,0.157,0.889,0.231
	c0.379,0.094,0.761,0.181,1.143,0.264c0.297,0.065,0.594,0.13,0.893,0.189c0.394,0.077,0.79,0.146,1.187,0.212
	c0.293,0.049,0.585,0.101,0.88,0.144c0.418,0.062,0.84,0.111,1.261,0.161c0.279,0.033,0.557,0.07,0.837,0.098
	c0.468,0.046,0.94,0.077,1.412,0.108c0.239,0.016,0.475,0.038,0.715,0.05c0.713,0.035,1.43,0.055,2.152,0.055h11.9
	c0.722,0,1.439-0.02,2.152-0.055c0.24-0.012,0.476-0.034,0.715-0.05c0.472-0.031,0.944-0.062,1.412-0.108
	c0.281-0.028,0.558-0.065,0.837-0.098c0.422-0.05,0.843-0.099,1.261-0.161c0.295-0.043,0.587-0.095,0.88-0.144
	c0.397-0.067,0.794-0.135,1.187-0.212c0.299-0.059,0.596-0.124,0.892-0.189c0.383-0.084,0.764-0.171,1.143-0.264
	c0.298-0.074,0.594-0.151,0.889-0.231c0.373-0.1,0.743-0.206,1.112-0.316c0.293-0.088,0.585-0.177,0.876-0.271
	c0.366-0.118,0.729-0.243,1.091-0.37c0.285-0.1,0.57-0.2,0.853-0.306c0.363-0.136,0.722-0.281,1.081-0.427
	c0.273-0.111,0.548-0.22,0.819-0.336c0.367-0.158,0.729-0.326,1.091-0.494c0.254-0.118,0.51-0.231,0.762-0.354
	c0.394-0.192,0.781-0.396,1.169-0.6c0.211-0.111,0.426-0.216,0.635-0.33c0.586-0.32,1.164-0.652,1.734-0.998
	c0.144-0.087,0.282-0.182,0.425-0.271c0.429-0.267,0.856-0.536,1.274-0.817c0.225-0.152,0.444-0.312,0.667-0.468
	c0.328-0.229,0.656-0.457,0.978-0.696c0.238-0.177,0.471-0.361,0.706-0.542c0.296-0.229,0.593-0.458,0.883-0.694
	c0.238-0.194,0.471-0.394,0.704-0.592c0.277-0.236,0.554-0.472,0.825-0.715c0.233-0.208,0.461-0.42,0.69-0.633
	c0.263-0.245,0.523-0.492,0.779-0.743c0.224-0.22,0.446-0.442,0.665-0.666c0.251-0.257,0.498-0.516,0.743-0.779
	c0.213-0.229,0.425-0.459,0.633-0.692c0.241-0.27,0.476-0.544,0.71-0.819c0.201-0.236,0.402-0.472,0.597-0.713
	c0.232-0.286,0.458-0.577,0.683-0.868c0.185-0.24,0.372-0.478,0.552-0.721c0.229-0.309,0.448-0.625,0.669-0.94
	c0.165-0.235,0.333-0.468,0.494-0.707c0.242-0.36,0.472-0.728,0.703-1.095c0.127-0.202,0.26-0.4,0.384-0.604
	c0.344-0.568,0.677-1.145,0.996-1.73c0.097-0.177,0.185-0.361,0.279-0.54c0.221-0.42,0.442-0.839,0.65-1.267
	c0.118-0.242,0.226-0.489,0.339-0.733c0.172-0.372,0.345-0.743,0.507-1.12c0.115-0.267,0.221-0.538,0.33-0.807
	c0.147-0.362,0.294-0.725,0.431-1.092c0.105-0.281,0.204-0.565,0.303-0.848c0.128-0.364,0.253-0.729,0.372-1.096
	c0.093-0.29,0.181-0.581,0.268-0.873c0.11-0.37,0.217-0.741,0.317-1.115c0.079-0.295,0.156-0.591,0.229-0.888
	c0.094-0.379,0.181-0.761,0.265-1.144c0.065-0.296,0.128-0.593,0.187-0.892c0.077-0.394,0.146-0.79,0.213-1.187
	c0.049-0.293,0.099-0.586,0.143-0.881c0.016-0.112,0.039-0.223,0.054-0.336h3.742C310.061,370.943,311.185,370.974,312.303,371.029z
	 M295.278,327.666c-12.465,5.063-25.679,7.629-39.277,7.629c-1.7,0-3.394-0.04-5.081-0.12c-0.914-0.043-1.826-0.101-2.735-0.168
	c-10.848-0.797-21.399-3.255-31.466-7.343c-23.437-9.498-42.648-27.176-54.095-49.778c-7.452-14.709-11.23-30.589-11.23-47.199v-6
	v-14.332c24.499-3.001,44.249-22.44,47.625-46.883c0.2-0.024,0.401-0.044,0.601-0.068c1.929-0.227,3.861-0.441,5.795-0.644
	c0.704-0.074,1.407-0.142,2.111-0.213c1.486-0.149,2.971-0.292,4.454-0.427c0.408-0.037,0.815-0.072,1.222-0.108
	c18.506,12.938,43.694,24.237,71.311,31.958c27.222,7.603,53.867,10.991,76.096,9.731v20.604v6.38c0,2.063-0.058,4.114-0.174,6.154
	c-0.065,1.133-0.151,2.262-0.252,3.388c-1.164,13.051-4.728,25.575-10.647,37.343C338.12,300.317,318.853,318.107,295.278,327.666z
	 M406.957,252.541c0.011,5.557-2.144,10.785-6.067,14.723c-3.924,3.938-9.147,6.112-14.706,6.123l-18.427,0.03
	c0.163-0.425,0.317-0.854,0.476-1.281c0.107-0.289,0.217-0.578,0.323-0.869c0.352-0.972,0.694-1.948,1.02-2.928
	c0.051-0.152,0.097-0.306,0.147-0.458c0.276-0.841,0.542-1.685,0.799-2.531c0.097-0.319,0.19-0.638,0.284-0.958
	c0.21-0.716,0.414-1.434,0.61-2.153c0.085-0.312,0.172-0.624,0.254-0.937c0.248-0.938,0.486-1.878,0.711-2.822
	c0.016-0.069,0.035-0.137,0.051-0.206c0.239-1.012,0.461-2.028,0.673-3.047c0.062-0.3,0.12-0.6,0.18-0.9
	c0.149-0.745,0.291-1.491,0.426-2.239c0.059-0.328,0.118-0.656,0.174-0.984c0.143-0.833,0.276-1.669,0.401-2.506
	c0.03-0.203,0.064-0.404,0.093-0.607c0.149-1.033,0.283-2.07,0.405-3.109c0.031-0.266,0.057-0.533,0.087-0.799
	c0.087-0.79,0.167-1.581,0.239-2.374c0.031-0.338,0.06-0.676,0.087-1.015c0.064-0.789,0.12-1.579,0.169-2.371
	c0.017-0.276,0.037-0.551,0.053-0.826c0.058-1.052,0.104-2.107,0.135-3.164c0.006-0.203,0.007-0.406,0.012-0.609
	c0.016-0.643,0.032-1.285,0.038-1.93l10.519-0.018c0.013,0,0.026,0,0.04,0C397.609,231.776,406.935,241.083,406.957,252.541z
	 M441.275,77.158v-3.142l4.827,1.571L441.275,77.158z"/>
<path d="M310.323,215.969c-4.142,0-7.5,3.357-7.5,7.5v2c0,4.143,3.358,7.5,7.5,7.5s7.5-3.357,7.5-7.5v-2
	C317.823,219.327,314.466,215.969,310.323,215.969z"/>
<path d="M201.679,215.969c-4.142,0-7.5,3.357-7.5,7.5v2c0,4.143,3.358,7.5,7.5,7.5c4.142,0,7.5-3.357,7.5-7.5v-2
	C209.179,219.327,205.821,215.969,201.679,215.969z"/>
<path d="M287.936,260.316c-3.406-2.358-8.078-1.508-10.436,1.896c-4.89,7.063-12.927,11.278-21.499,11.278
	c-8.573,0-16.611-4.216-21.5-11.278c-2.358-3.405-7.03-4.255-10.435-1.896c-3.405,2.357-4.254,7.03-1.897,10.435
	c7.69,11.107,20.337,17.739,33.832,17.739c13.494,0,26.141-6.632,33.831-17.739C292.19,267.345,291.341,262.673,287.936,260.316z"/>
<g>
</g>
<g>
</g>
<g>
</g>
<g>
</g>
<g>
</g>
<g>
</g>
<g>
</g>
<g>
</g>
<g>
</g>
<g>
</g>
<g>
</g>
<g>
</g>
<g>
</g>
<g>
</g>
<g>
</g>
</svg>
