<?xml version="1.0" encoding="iso-8859-1"?>
<!-- Generator: Adobe Illustrator 19.0.0, SVG Export Plug-In . SVG Version: 6.00 Build 0)  -->
<svg version="1.1" id="Capa_1" xmlns="http://www.w3.org/2000/svg" xmlns:xlink="http://www.w3.org/1999/xlink" x="0px" y="0px"
	 viewBox="0 0 511.998 511.998" style="enable-background:new 0 0 511.998 511.998;" xml:space="preserve">
<path style="fill:#468466;" d="M203.071,363.444h105.855c41.621,0,75.362,33.741,75.362,75.362V504.5H127.71v-65.694
	C127.71,397.184,161.45,363.444,203.071,363.444z"/>
<path style="fill:#346349;" d="M308.926,363.444h-22.632c41.621,0,75.362,33.741,75.362,75.362V504.5h22.632v-65.695
	C384.288,397.184,350.547,363.444,308.926,363.444z"/>
<polygon style="fill:#FA9E3E;" points="298.099,267.73 298.099,363.08 255.999,445 213.899,363.08 213.899,267.73 "/>
<path style="fill:#049B64;" d="M292.23,374.5c-24.16,15.33-48.314,15.337-72.462,0l36.231,70.5L292.23,374.5z"/>
<g>
	<path style="fill:#FA9E3E;" d="M125.838,220.99h49.369v56.61h-49.369c-15.632,0-28.305-12.673-28.305-28.305
		S110.205,220.99,125.838,220.99z"/>
	<path style="fill:#FA9E3E;" d="M386.16,220.99h-49.369v56.61h49.369c15.632,0,28.305-12.673,28.305-28.305
		S401.792,220.99,386.16,220.99z"/>
</g>
<path style="fill:#FFB56B;" d="M255.999,342.79L255.999,342.79c-61.919,0-112.115-50.195-112.115-112.115V117.281h224.229v113.394
	C368.114,292.595,317.918,342.79,255.999,342.79z"/>
<path style="fill:#EF9245;" d="M344.779,117.281v125.062c0,53.578-41.949,97.354-94.795,100.286
	c1.992,0.105,3.996,0.161,6.014,0.161l0,0c61.919,0,112.115-50.195,112.115-112.115V117.281H344.779z"/>
<path style="fill:#468466;" d="M423.665,189.121l-21.23-34.33l-2.316-43.845C397.055,52.952,349.138,7.5,291.063,7.5h-70.129
	c-58.075,0-105.992,45.452-109.056,103.447l-2.316,43.845l-21.229,34.329L81.08,283.73h19.064l35.977-76.246l41.376-22.909h157.002
	l41.376,22.909l35.977,76.246h19.065L423.665,189.121z"/>
<path style="fill:#346349;" d="M423.665,189.121l-21.23-34.33l-2.316-43.845C397.055,52.952,349.138,7.5,291.063,7.5h-24
	c58.075,0,105.992,45.452,109.056,103.447l2.316,43.845l21.23,34.33l6.295,82.12l5.893,12.489h19.065L423.665,189.121z"/>
<g>
	<polygon style="fill:#5C9979;" points="298.099,334.609 323.166,364.793 340.999,446.333 298.099,420.667 298.099,441.333 
		224.999,504.5 298.099,363.08 	"/>
	<polygon style="fill:#5C9979;" points="241.7,472.191 255.986,444.551 213.874,363.08 213.874,334.609 188.806,364.793 
		170.974,446.333 213.874,420.667 213.874,441.333 	"/>
</g>
<rect x="293.169" y="478.67" style="fill:#FFB700;" width="68.49" height="25.833"/>
<rect x="327.409" y="478.67" style="fill:#FB403F;" width="34.24" height="25.833"/>
<path d="M310.322,215.962c-4.143,0-7.5,3.357-7.5,7.5v2c0,4.143,3.357,7.5,7.5,7.5s7.5-3.357,7.5-7.5v-2
	C317.822,219.319,314.465,215.962,310.322,215.962z"/>
<path d="M201.675,215.962c-4.142,0-7.5,3.357-7.5,7.5v2c0,4.143,3.358,7.5,7.5,7.5s7.5-3.357,7.5-7.5v-2
	C209.175,219.319,205.817,215.962,201.675,215.962z"/>
<path d="M287.935,260.31c-3.406-2.359-8.077-1.508-10.435,1.896c-4.891,7.063-12.928,11.278-21.501,11.278
	c-8.573,0-16.611-4.216-21.501-11.278c-2.357-3.405-7.03-4.255-10.435-1.896c-3.405,2.357-4.254,7.03-1.897,10.435
	c7.69,11.107,20.338,17.739,33.833,17.739c13.494,0,26.142-6.632,33.833-17.739C292.19,267.34,291.341,262.668,287.935,260.31z"/>
<path d="M438.397,283.157l-7.25-94.61c-0.092-1.195-0.469-2.352-1.1-3.371l-20.221-32.698l-2.219-41.923
	C404.338,48.562,353.142,0,291.058,0h-70.12c-36.315,0-69.934,16.468-92.233,45.18c-2.54,3.271-1.948,7.983,1.323,10.523
	c3.272,2.541,7.984,1.949,10.524-1.322C159.989,29.354,189.289,15,220.939,15h70.12c54.105,0,98.72,42.32,101.571,96.347l2.32,43.84
	c0.066,1.257,0.448,2.478,1.11,3.548l20.27,32.778l6.492,84.718h-6.219l-33.941-71.948c-0.671-1.425-1.773-2.601-3.151-3.363
	l-41.379-22.91c-1.111-0.615-2.362-0.939-3.633-0.939h-157c-1.271,0-2.521,0.323-3.633,0.939l-41.379,22.91
	c-1.378,0.762-2.48,1.939-3.152,3.363L95.394,276.23h-6.219l6.492-84.718l20.271-32.778c0.662-1.07,1.044-2.291,1.111-3.548
	l2.319-43.838c0.604-11.351,3.047-22.383,7.263-32.793c1.555-3.84-0.297-8.212-4.136-9.767c-3.839-1.557-8.212,0.296-9.767,4.136
	c-4.841,11.954-7.646,24.614-8.338,37.629l-2.218,41.924l-20.221,32.698c-0.63,1.02-1.007,2.176-1.099,3.371l-7.25,94.61
	c-0.16,2.083,0.557,4.138,1.976,5.67s3.414,2.403,5.502,2.403h19.07c2.902,0,5.544-1.675,6.783-4.3l2.693-5.709
	c4.98,2.531,10.517,3.878,16.214,3.878h23.627c11.569,22.635,29.839,40.826,52.382,52.257l-17.151,20.647
	c-37.528,8.487-64.488,42.026-64.488,80.806v65.69c0,4.143,3.358,7.5,7.5,7.5h165.457h34.245h34.244h22.634
	c4.143,0,7.5-3.357,7.5-7.5v-65.69c0-26.589-12.9-51.747-34.509-67.298c-3.361-2.418-8.048-1.654-10.469,1.707
	c-2.419,3.362-1.655,8.049,1.707,10.469c17.702,12.739,28.271,33.346,28.271,55.122V497h-7.634v-18.333c0-4.143-3.358-7.5-7.5-7.5
	h-34.244h-34.245c-4.143,0-7.5,3.357-7.5,7.5V497h-40.518l57.854-49.992c1.649-1.425,2.597-3.496,2.597-5.675v-7.439l31.549,18.876
	c2.569,1.535,5.802,1.399,8.229-0.348c2.429-1.746,3.587-4.769,2.948-7.691l-17.833-81.54c-0.257-1.172-0.791-2.266-1.558-3.189
	l-18.799-22.637c22.548-11.43,40.823-29.623,52.395-52.265h23.627c5.697,0,11.233-1.346,16.213-3.877l2.693,5.708
	c1.238,2.625,3.881,4.3,6.783,4.3h19.07c2.089,0,4.083-0.871,5.502-2.403C437.841,287.295,438.556,285.24,438.397,283.157z
	 M125.839,270.1c-3.458,0-6.815-0.853-9.809-2.453l18.473-39.156h1.886v2.189c0,1.512,0.038,3.018,0.093,4.521
	c0.013,0.345,0.025,0.69,0.041,1.034c0.067,1.48,0.154,2.957,0.275,4.427c0.015,0.179,0.035,0.356,0.05,0.535
	c0.116,1.347,0.258,2.688,0.419,4.025c0.038,0.314,0.073,0.628,0.114,0.941c0.186,1.449,0.397,2.894,0.637,4.332
	c0.044,0.265,0.094,0.529,0.14,0.794c0.223,1.287,0.467,2.57,0.733,3.848c0.053,0.258,0.103,0.516,0.158,0.774
	c0.306,1.424,0.64,2.842,0.999,4.254c0.078,0.305,0.16,0.61,0.24,0.915c0.342,1.304,0.704,2.603,1.091,3.895
	c0.048,0.161,0.092,0.324,0.141,0.485c0.427,1.405,0.887,2.801,1.367,4.192c0.051,0.149,0.094,0.3,0.146,0.449L125.839,270.1
	L125.839,270.1z M225.265,346.303c0.294,0.078,0.589,0.152,0.883,0.228c1.079,0.277,2.16,0.541,3.246,0.787
	c0.209,0.047,0.416,0.099,0.625,0.145c1.238,0.274,2.481,0.525,3.727,0.76c0.306,0.058,0.613,0.112,0.92,0.167
	c1.133,0.204,2.269,0.394,3.409,0.565c0.162,0.024,0.323,0.052,0.485,0.076c1.264,0.184,2.534,0.344,3.806,0.487
	c0.314,0.036,0.628,0.068,0.943,0.102c1.209,0.127,2.421,0.24,3.637,0.331c0.093,0.007,0.185,0.016,0.278,0.023
	c1.292,0.093,2.589,0.159,3.889,0.211c0.316,0.013,0.632,0.023,0.948,0.034c1.31,0.042,2.622,0.071,3.938,0.071
	c1.316,0,2.628-0.029,3.938-0.071c0.316-0.01,0.632-0.021,0.947-0.034c1.299-0.052,2.596-0.118,3.889-0.211
	c0.092-0.007,0.184-0.016,0.276-0.023c1.216-0.09,2.429-0.204,3.638-0.331c0.314-0.033,0.628-0.066,0.942-0.102
	c1.273-0.144,2.542-0.303,3.807-0.488c0.161-0.023,0.321-0.051,0.482-0.076c1.141-0.171,2.279-0.361,3.413-0.565
	c0.306-0.055,0.612-0.109,0.917-0.167c1.248-0.235,2.492-0.486,3.731-0.76c0.206-0.046,0.411-0.097,0.618-0.143
	c1.089-0.247,2.175-0.512,3.257-0.79c0.292-0.075,0.583-0.148,0.874-0.225c1.224-0.325,2.444-0.667,3.658-1.032
	c0.07-0.021,0.142-0.039,0.212-0.06v16.045l-4.124,7.978c-20.504,12.334-40.49,12.33-60.975-0.014l-2.004-3.877l-2.096-4.079
	v-16.053c0.072,0.022,0.145,0.04,0.217,0.061C222.827,345.638,224.044,345.979,225.265,346.303z M217.578,414.146
	c-2.349-1.33-5.232-1.298-7.55,0.088l-28.019,16.76l13.736-62.816l10.633-12.801v7.704c0,1.219,0.297,2.419,0.865,3.497l3.402,6.582
	l36.793,71.593l-7.426,14.366l-18.635-20.671V420.67C221.379,417.97,219.927,415.478,217.578,414.146z M255.988,428.214
	l-19.446-37.625c12.948,3.943,25.939,3.945,38.895,0.001L255.988,428.214z M354.155,486.167V497h-19.244v-10.833H354.155z
	 M300.666,486.167h19.245V497h-19.245V486.167z M135.209,497v-58.19c0-28.496,17.763-53.542,43.603-63.411l-15.16,69.329
	c-0.639,2.923,0.519,5.944,2.947,7.691c2.429,1.746,5.662,1.882,8.23,0.348l31.55-18.871v7.435c0,1.854,0.688,3.645,1.929,5.021
	l24.346,27.006L220.433,497H135.209z M329.967,430.993L301.95,414.23c-2.317-1.385-5.2-1.419-7.55-0.088
	c-2.35,1.332-3.801,3.824-3.801,6.524V437.9l-41.083,35.501l6.128-11.855l6.034-11.671c0.378-0.44,0.719-0.918,0.991-1.448
	l36.231-70.5c0.001-0.002,0.002-0.004,0.003-0.007l5.733-11.156l0.124-0.241c0.002-0.003,0.003-0.007,0.005-0.01l0.003-0.006
	c0.029-0.056,0.048-0.115,0.076-0.171c0.102-0.212,0.202-0.424,0.284-0.643c0.003-0.009,0.005-0.018,0.008-0.027
	c0.304-0.826,0.462-1.701,0.462-2.586v-7.701l10.63,12.801L329.967,430.993z M295.281,327.669
	c-8.576,3.477-17.503,5.775-26.662,6.872c-4.163,0.499-8.374,0.749-12.621,0.749s-8.458-0.25-12.621-0.749
	c-9.158-1.097-18.085-3.395-26.66-6.871c-24.745-10.036-44.547-28.934-55.758-53.211c-6.35-13.772-9.57-28.501-9.57-43.779v-9.689
	V207.6l28.047-15.529h153.125l28.048,15.529v13.391v9.689c0,1.91-0.05,3.811-0.151,5.702c-0.703,13.242-3.864,26.025-9.42,38.077
	l0,0C339.825,298.737,320.023,317.634,295.281,327.669z M386.159,270.1h-17.194c0.055-0.158,0.101-0.318,0.155-0.475
	c0.475-1.376,0.93-2.757,1.353-4.146c0.057-0.188,0.109-0.378,0.165-0.566c0.376-1.259,0.729-2.525,1.063-3.795
	c0.086-0.327,0.174-0.653,0.257-0.98c0.354-1.396,0.685-2.798,0.988-4.206c0.06-0.279,0.114-0.559,0.171-0.839
	c0.26-1.252,0.499-2.508,0.718-3.769c0.049-0.282,0.102-0.562,0.149-0.844c0.237-1.428,0.447-2.862,0.632-4.301
	c0.042-0.326,0.079-0.652,0.118-0.978c0.159-1.322,0.299-2.648,0.415-3.979c0.016-0.189,0.038-0.377,0.053-0.567
	c0.12-1.466,0.208-2.939,0.274-4.415c0.016-0.347,0.029-0.694,0.041-1.041c0.055-1.502,0.093-3.006,0.093-4.518v-2.189h1.886
	l18.473,39.156C392.974,269.247,389.617,270.1,386.159,270.1z"/>
<path d="M232.503,94.717l23.496-11.675l23.496,11.675c1.072,0.532,2.21,0.785,3.331,0.785c2.758,0,5.412-1.527,6.723-4.165
	c1.843-3.709,0.33-8.21-3.38-10.054L259.336,67.95c-2.101-1.045-4.571-1.045-6.674,0l-26.834,13.333
	c-3.709,1.844-5.222,6.345-3.379,10.054C224.292,95.047,228.792,96.558,232.503,94.717z"/>
<path d="M222.448,118.835c1.844,3.71,6.344,5.222,10.054,3.38l23.497-11.675l23.496,11.675c1.072,0.532,2.21,0.785,3.331,0.785
	c2.758,0,5.412-1.527,6.723-4.165c1.843-3.709,0.33-8.21-3.38-10.054l-26.833-13.333c-2.101-1.045-4.571-1.045-6.674,0
	l-26.834,13.333C222.118,110.625,220.606,115.126,222.448,118.835z"/>
<g>
</g>
<g>
</g>
<g>
</g>
<g>
</g>
<g>
</g>
<g>
</g>
<g>
</g>
<g>
</g>
<g>
</g>
<g>
</g>
<g>
</g>
<g>
</g>
<g>
</g>
<g>
</g>
<g>
</g>
</svg>
