<?xml version="1.0" encoding="iso-8859-1"?>
<!-- Generator: Adobe Illustrator 19.0.0, SVG Export Plug-In . SVG Version: 6.00 Build 0)  -->
<svg version="1.1" id="Capa_1" xmlns="http://www.w3.org/2000/svg" xmlns:xlink="http://www.w3.org/1999/xlink" x="0px" y="0px"
	 viewBox="0 0 512 512" style="enable-background:new 0 0 512 512;" xml:space="preserve">
<path style="fill:#A54925;" d="M373.348,7.475c-21.192,0-39.614,11.839-49.025,29.263c27.855,18.401,47.862,47.728,53.899,81.879
	c28.467-2.472,50.808-26.349,50.808-55.458C429.03,32.403,404.1,7.475,373.348,7.475z"/>
<path style="fill:#933C21;" d="M420.208,33.096c22.966,35.722-1.164,83.256-43.684,85.649c-1.144-6.509-2.8-12.841-4.916-18.958
	C404.012,96.356,426.928,65.61,420.208,33.096z"/>
<path style="fill:#B25830;" d="M371.635,40.675c-10.878,0-20.013,7.375-22.741,17.391c7.821,8.818,14.408,18.756,19.483,29.548
	c1.067,0.146,2.15,0.251,3.258,0.251c13.032,0,23.596-10.563,23.596-23.596C395.23,51.237,384.667,40.675,371.635,40.675z"/>
<path style="fill:#BC5F3B;" d="M340.553,231.236c-47.915,44.613-122.263,44.351-169.868-0.705
	c-8.877,6.237-14.686,16.549-14.686,28.227v67.062c52.125,1.107,81.704,81.881,52.431,140.045h98.236
	c-28.481-56.597-1.413-133.682,47.6-139.701v-67.405C354.267,247.511,348.882,237.53,340.553,231.236z"/>
<path style="fill:#B25830;" d="M296.342,465.865c-61.443-52.54-67.092-144.873-12.959-204.402
	c-39.334,8.861-81.759-1.649-112.698-30.932c-8.877,6.237-14.686,16.549-14.686,28.227v67.062
	c52.125,1.107,81.704,81.881,52.431,140.045L296.342,465.865L296.342,465.865z"/>
<path style="fill:#A54925;" d="M468.888,317.484l-88.505-84.059c-8.615-8.185-19.789-11.993-30.791-11.52
	c-2.849,3.267-7.867,6.377-11.04,9.331c8.33,6.295,13.713,16.275,13.713,27.522v67.933l1.396,1.326
	c1.473-0.136,2.954-0.232,4.454-0.232c28.419,0,54.561,23.105,63.377,58.056c16.057,7.817,35.977,4.773,48.929-8.866
	C486.426,360.125,485.738,333.487,468.888,317.484z"/>
<path style="fill:#933C21;" d="M428.902,362.727l-76.636-62.984v26.947l1.396,1.326c1.473-0.136,2.954-0.232,4.454-0.232
	c28.419,0,54.561,23.105,63.377,58.056c16.057,7.817,35.977,4.773,48.929-8.866c3.203-3.372,5.725-7.141,7.596-11.133
	C463.099,375.222,443.262,374.53,428.902,362.727z"/>
<path style="fill:#A54925;" d="M156.982,327.785c0.347,0,0.686,0.027,1.031,0.036c-0.005,0-0.01-0.002-0.014-0.002v-69.062
	c0-11.678,5.809-21.989,14.686-28.227c0.057,0.052,0.114,0.104,0.171,0.156c-2.957-2.789-7.778-5.719-10.45-8.782
	c-11.002-0.474-22.175,3.335-30.789,11.52l-88.506,84.059c-16.851,16.003-17.536,42.641-1.533,59.491
	c13.944,14.68,35.955,17.086,52.536,6.884C103.332,349.94,129.101,327.785,156.982,327.785z"/>
<path style="fill:#933C21;" d="M158,300.356l-74.88,62.169c-14.309,11.882-34.157,12.666-49.124,3.345
	c10.773,22.954,38.997,30.986,60.118,17.988c9.218-33.919,34.987-56.073,62.868-56.073c0.347,0,0.686,0.027,1.031,0.036
	c-0.005,0-0.01-0.002-0.014-0.002V300.356z"/>
<ellipse style="fill:#BC613C;" cx="154.982" cy="415.111" rx="64.964" ry="89.327"/>
<ellipse style="fill:#E5955E;" cx="154.982" cy="453.394" rx="37.123" ry="51.044"/>
<ellipse style="fill:#BC613C;" cx="360.117" cy="415.111" rx="64.964" ry="89.327"/>
<g>
	<path style="fill:#AA502D;" d="M376.677,339.706c8.927,0,17.432,2.478,25.175,6.957c-11.289-13.027-25.845-20.878-41.735-20.878
		c-35.879,0-64.964,39.993-64.964,89.325c0,37.058,16.413,68.844,39.789,82.368C288.712,444.128,316.146,339.706,376.677,339.706z"
		/>
	<path style="fill:#AA502D;" d="M106.579,429.031c0-63.503,47.2-107.208,90.139-82.368c-11.289-13.027-25.845-20.878-41.735-20.878
		c-35.879,0-64.964,39.993-64.964,89.325c0,37.058,16.413,68.844,39.789,82.368C115.608,481.093,106.579,456.513,106.579,429.031z"
		/>
</g>
<ellipse style="fill:#E5955E;" cx="360.117" cy="453.394" rx="37.123" ry="51.044"/>
<g>
	<path style="fill:#DB8C52;" d="M166.019,404.643c-23.989-10.253-48.159,14.506-48.159,48.75c0,28.19,16.62,51.042,37.122,51.042
		c3.843,0,7.551-0.804,11.037-2.294C131.38,487.329,131.399,419.446,166.019,404.643z"/>
	<path style="fill:#DB8C52;" d="M371.153,404.643c-24.005-10.26-48.159,14.528-48.159,48.75c0,34.043,24.032,59.06,48.159,48.748
		C336.514,487.33,336.531,419.446,371.153,404.643z"/>
	<path style="fill:#DB8C52;" d="M194.845,344.614c27.51,29.437,32.974,82.725,13.585,121.251h98.236
		c-18.609-36.981-14.358-87.581,10.488-117.72C288.785,287.655,225.015,285.852,194.845,344.614z"/>
</g>
<path style="fill:#D8774C;" d="M257.574,301.677c-27.499-1.225-49.919,17.993-62.724,42.928
	c28.214,30.184,32.456,83.753,13.581,121.259h87.913C248.363,424.837,233.482,358.261,257.574,301.677z"/>
<path style="fill:#C9724C;" d="M256,15.747c-68.72,0-124.627,55.907-124.627,124.627c0,68.719,55.908,124.626,124.627,124.626
	s124.626-55.907,124.626-124.626C380.627,71.654,324.72,15.747,256,15.747z"/>
<path style="fill:#C16B3D;" d="M151.375,140.374c0-65.354,50.566-119.114,114.627-124.225
	c-72.618-5.803-134.628,51.709-134.628,124.225c0,72.385,61.879,130.036,134.628,124.224
	C201.939,259.488,151.375,205.727,151.375,140.374z"/>
<path style="fill:#A54925;" d="M186.391,37.591c-9.265-17.886-27.93-30.116-49.462-30.116c-30.752,0-55.683,24.93-55.683,55.684
	c0,29.688,23.233,53.94,52.507,55.587C139.672,85.065,159.169,56.061,186.391,37.591z"/>
<path style="fill:#933C21;" d="M90.07,33.096c-22.966,35.722,1.164,83.256,43.684,85.649c1.144-6.509,2.8-12.841,4.915-18.958
	C106.265,96.356,83.351,65.61,90.07,33.096z"/>
<path style="fill:#B25830;" d="M140.363,40.675c-13.03,0-23.596,10.563-23.596,23.595c0,14.056,12.323,25.336,26.858,23.345
	c5.074-10.794,11.655-20.738,19.476-29.559C160.37,48.043,151.24,40.675,140.363,40.675z"/>
<g>
	<circle style="fill:#414356;" cx="307.163" cy="124.399" r="16.241"/>
	<circle style="fill:#414356;" cx="203.506" cy="124.399" r="16.241"/>
</g>
<g>
	<path style="fill:#2D313F;" d="M307.162,124.403c0-6.007,3.271-11.241,8.121-14.051c-2.391-1.385-5.158-2.19-8.121-2.19
		c-8.971,0-16.241,7.272-16.241,16.241c0,8.969,7.272,16.24,16.241,16.24c2.961,0,5.729-0.806,8.121-2.191
		C310.433,135.643,307.162,130.41,307.162,124.403z"/>
	<path style="fill:#2D313F;" d="M203.508,124.403c0-6.007,3.27-11.241,8.121-14.051c-2.39-1.385-5.158-2.19-8.12-2.19
		c-8.971,0-16.241,7.272-16.241,16.241c0,8.969,7.272,16.24,16.241,16.24c2.961,0,5.729-0.806,8.12-2.191
		C206.779,135.643,203.508,130.41,203.508,124.403z"/>
</g>
<ellipse style="fill:#A54925;" cx="255.999" cy="174.873" rx="38.572" ry="22.622"/>
<path style="fill:#91381D;" d="M240.01,174.869c0-10.189,11.488-18.801,27.281-21.634c-3.572-0.641-7.363-0.987-11.292-0.987
	c-21.303,0-38.572,10.129-38.572,22.621c0,12.494,17.269,22.622,38.572,22.622c3.929,0,7.72-0.347,11.292-0.987
	C251.499,193.672,240.01,185.059,240.01,174.869z"/>
<path d="M474.053,312.071L474.053,312.071l-88.504-84.058c-6.224-5.912-13.671-10.007-21.742-12.072
	c4.305-6.138,8.1-12.654,11.324-19.494c1.766-3.747,0.159-8.217-3.588-9.982c-3.748-1.767-8.216-0.16-9.982,3.587
	c-22.028,46.745-73.455,74.586-126.33,65.122c-83.772-15.12-125.32-114.145-72.556-184.64
	c21.294-28.371,55.202-46.758,93.325-46.758c75.449,0,131.566,71.133,113.17,144.927c-1.002,4.02,1.444,8.091,5.463,9.093
	c4.02,0.997,8.09-1.445,9.092-5.463c3.709-14.88,4.921-30.966,2.986-47.41c28.734-6.19,49.819-31.66,49.819-61.737
	C436.531,28.344,408.187,0,373.348,0c-20.596,0-39.664,9.987-51.439,26.499c-40.377-23.455-91.401-24.069-133.04,0.723
	C177.151,10.258,157.903,0,136.93,0c-34.84,0-63.184,28.345-63.184,63.185c0,30.733,22.049,56.579,51.501,62.082
	c-3.71,32.263,4.478,64.302,23.011,90.66c-8.094,2.06-15.567,6.159-21.807,12.086l-55.804,53.002
	c-3.003,2.853-3.125,7.601-0.273,10.605c2.852,3.003,7.599,3.125,10.604,0.273l55.805-53.003c6.115-5.81,13.93-9.112,22.266-9.466
	c0.235,0.256,0.472,0.512,0.709,0.766c-6.904,7.424-11.259,17.609-11.259,28.595v59.908c-30.343,3.523-51.883,30.586-60.771,60.178
	c-13.454,6.818-30.17,4.063-40.711-7.035c-13.131-13.826-12.566-35.758,1.26-48.888l15.232-14.468
	c3.003-2.853,3.125-7.602,0.273-10.605c-2.853-3.004-7.601-3.125-10.604-0.273l-15.232,14.468
	c-19.869,18.87-20.679,50.224-1.807,70.096c12.368,13.021,30.766,18.109,47.759,13.994c-4.34,29.485,1.417,62.262,19.081,86.548
	c30.907,42.498,83.178,38.2,109.952-9.318h89.235c12.467,22.128,32.796,38.57,57.95,38.57c45.953,0,79.603-55.549,71.182-115.089
	c16.457,2.938,33.084-2.62,44.56-14.706C494.732,362.298,493.924,330.944,474.053,312.071z M357.51,56.624
	c7.925-14.593,30.219-8.94,30.219,7.672c0,8.37-6.421,15.267-14.595,16.025C368.805,71.896,363.568,63.954,357.51,56.624z
	 M373.348,15.001c26.568,0,48.183,21.615,48.183,48.184c0,22.527-15.971,42.002-37.407,46.95c-1.24-5.247-2.861-10.579-4.785-15.71
	c13.431-3.436,23.392-15.64,23.392-30.129c0-29.545-37.605-42.423-55.705-18.933c-3.948-3.791-8.139-7.352-12.56-10.643
	C343.473,22.418,357.847,15.001,373.348,15.001z M138.867,80.321c-8.176-0.757-14.599-7.655-14.599-16.025
	c0-16.643,22.298-22.243,30.216-7.68C148.433,63.942,143.2,71.885,138.867,80.321z M127.793,110.496
	c-22.347-4.279-39.046-23.951-39.046-47.312c0-26.568,21.615-48.184,48.183-48.184c15.91,0,30.524,7.741,39.476,20.563
	c-4.007,3.051-7.821,6.328-11.433,9.799c-18.107-23.496-55.706-10.602-55.706,18.933c0,14.49,9.963,26.695,23.397,30.13
	C130.719,99.624,129.036,105.17,127.793,110.496z M318.859,335.35c-31.856-54.08-92.869-54.83-125.78-2.725
	c-8.936-7.377-18.981-12.032-29.579-13.659c0-61.961-2.097-68.391,7.102-78.4c48.843,41.707,120.753,41.907,169.81,0.823
	c4.162,4.914,6.353,11.055,6.353,17.394v61.143C336.088,322.539,326.713,328.13,318.859,335.35z M125.361,453.42
	c0-23.604,13.565-43.543,29.621-43.543s29.621,19.939,29.621,43.543c0,23.602-13.565,43.541-29.621,43.541
	S125.361,477.02,125.361,453.42z M197.929,469.417c7.887-36.937-12.741-74.543-42.947-74.543c-30.252,0-50.823,37.664-42.947,74.544
	c-34.381-55.091-3.99-137.502,43.788-136.073v-0.001C205.023,334.782,230.238,417.641,197.929,469.417z M219.871,458.39
	c13.871-37.252,8.753-84.512-15.928-114.766c27.434-47.259,78.489-45.716,104.354,3.569
	c-21.973,29.923-26.526,75.062-13.071,111.196L219.871,458.39L219.871,458.39z M330.495,453.42
	c0-23.604,13.565-43.543,29.621-43.543s29.621,19.939,29.621,43.543c0,23.602-13.565,43.541-29.621,43.541
	S330.495,477.02,330.495,453.42z M403.063,469.419c12.876-60.297-44.091-99.368-75.263-56.504
	c-11.332,15.58-14.74,37.259-10.632,56.504c-31.957-51.209-7.783-130.16,38.012-135.784c0.001,0,0.002,0,0.003,0
	C406.437,327.387,437.615,414.054,403.063,469.419z M427.808,380.427c-9.186-32.187-32.92-61.032-66.042-62.092
	c0-63.628,0.199-61.773-0.569-66.458c-1.272-7.773-4.704-14.96-9.823-20.764c0.531-0.558,1.055-1.123,1.576-1.69
	c8.337,0.354,16.152,3.655,22.268,9.467l88.505,84.059l0,0c6.697,6.359,10.516,14.948,10.754,24.183
	C475.103,371.414,450.919,389.11,427.808,380.427z"/>
<path d="M255.132,225.951c17.698,19.52,50.368,7.008,50.368-19.416c0-4.143-3.358-7.501-7.501-7.501s-7.501,3.357-7.501,7.501
	c0,7.684-6.25,13.934-13.934,13.934c-7.683,0-13.933-6.25-13.933-13.934v-1.819c22.582-2.044,39.44-14.405,39.44-29.819
	c0-16.891-20.237-30.121-46.072-30.121s-46.072,13.23-46.072,30.121c0,15.017,16.001,27.132,37.705,29.638v2.001
	c0,7.684-6.25,13.934-13.934,13.934c-7.684,0-13.935-6.25-13.935-13.934c0-4.143-3.358-7.501-7.501-7.501s-7.501,3.357-7.501,7.501
	C204.763,232.948,237.425,245.481,255.132,225.951z M224.928,174.896c0-7.138,13.288-15.12,31.071-15.12s31.071,7.983,31.071,15.12
	c0,7.139-13.288,15.121-31.071,15.121S224.928,182.035,224.928,174.896z"/>
<path d="M330.904,124.429c0-13.092-10.65-23.742-23.741-23.742c-13.091,0-23.742,10.65-23.742,23.742
	c0,13.091,10.651,23.741,23.742,23.741C320.254,148.17,330.904,137.52,330.904,124.429z M298.423,124.429
	c0-4.819,3.921-8.741,8.741-8.741s8.74,3.921,8.74,8.741c0,4.818-3.92,8.74-8.74,8.74
	C302.344,133.169,298.423,129.248,298.423,124.429z"/>
<path d="M227.249,124.429c0-13.092-10.65-23.742-23.741-23.742c-13.091,0-23.742,10.65-23.742,23.742
	c0,13.091,10.651,23.741,23.742,23.741C216.598,148.17,227.249,137.52,227.249,124.429z M203.508,133.169
	c-4.819,0-8.741-3.921-8.741-8.74c0-4.819,3.921-8.741,8.741-8.741c4.819,0,8.74,3.921,8.74,8.741
	C212.248,129.248,208.327,133.169,203.508,133.169z"/>
<g>
</g>
<g>
</g>
<g>
</g>
<g>
</g>
<g>
</g>
<g>
</g>
<g>
</g>
<g>
</g>
<g>
</g>
<g>
</g>
<g>
</g>
<g>
</g>
<g>
</g>
<g>
</g>
<g>
</g>
</svg>
