<svg height="512pt" viewBox="-2 0 512 512" width="512pt" xmlns="http://www.w3.org/2000/svg"><path d="m253.980469 64.125-226.210938 155.519531h452.417969zm0 0" fill="#ef3535"/><g fill="#d33131"><path d="m253.980469 64.125 149.597656 124.53125c7.261719 6.046875 2.988281 17.859375-6.460937 17.859375h-350.25l-19.097657 13.128906h452.421875zm0 0"/><path d="m253.980469 64.125 149.597656 124.53125c7.261719 6.046875 2.988281 17.859375-6.460937 17.859375h-350.25l-19.097657 13.128906h452.421875zm0 0"/><path d="m294.375 218.636719-40.394531-154.511719 12.019531 131.371094c.542969 5.917968-4.113281 11.019531-10.054688 11.019531h-38.949218l-3.410156 13.128906h80.789062l-.261719-1.007812zm0 0"/><path d="m253.980469 64.125-148.609375 137.042969c-3.730469 3.4375-8.617188 5.347656-13.691406 5.347656h-44.8125l-19.097657 13.128906h90.484375l11.457032-13.128906h-.554688zm0 0"/></g><path d="m253.980469 64.125-135.726563 155.519531h95.332032zm0 0" fill="#e1ebef"/><path d="m253.980469 64.125-62.023438 130.847656c-3.34375 7.050782-10.449219 11.542969-18.253906 11.542969h-43.992187l-11.457032 13.128906h95.332032l3.410156-13.128906zm0 0" fill="#c4d3d6"/><path d="m253.980469 64.125 135.722656 155.519531h-95.328125zm0 0" fill="#e1ebef"/><path d="m253.980469 64.125 85.523437 126.640625c4.527344 6.707031-.277344 15.75-8.371094 15.75h-40.167968l3.410156 13.128906h95.328125zm0 0" fill="#c4d3d6"/><path d="m433.734375 256 22.21875 248.425781h-403.945313l22.21875-248.425781zm0 0" fill="#e1ebef"/><path d="m433.734375 256h-359.507813l-7.109374 79.496094c1.941406.179687 3.90625.28125 5.894531.28125 17.699219 0 33.726562-7.285156 45.242187-19.015625 11.515625 11.730469 27.542969 19.015625 45.242188 19.015625 17.699218 0 33.726562-7.285156 45.242187-19.015625 11.515625 11.730469 27.542969 19.015625 45.242188 19.015625s33.726562-7.285156 45.242187-19.015625c11.515625 11.730469 27.542969 19.015625 45.242188 19.015625 17.699218 0 33.726562-7.285156 45.242187-19.015625 11.515625 11.730469 27.542969 19.015625 45.242188 19.015625 1.988281 0 3.953125-.101563 5.898437-.28125zm0 0" fill="#c4d3d6"/><path d="m143.90625 256-22.21875 248.425781h69.679688l22.21875-248.425781zm0 0" fill="#ef3535"/><path d="m163.496094 335.777344c17.375 0 33.132812-7.035156 44.601562-18.394532l5.488282-61.382812h-69.679688l-6.625 74.082031c7.996094 3.648438 16.867188 5.695313 26.214844 5.695313zm0 0" fill="#d33131"/><path d="m364.054688 256 22.21875 248.425781s-38.1875 0-69.679688 0l-22.21875-248.425781zm0 0" fill="#ef3535"/><path d="m344.464844 335.777344c9.34375 0 18.21875-2.046875 26.214844-5.695313l-6.625-74.082031h-69.679688l5.488281 61.382812c11.46875 11.359376 27.222657 18.394532 44.601563 18.394532zm0 0" fill="#d33131"/><path d="m320.632812 377.183594-67.664062-10.097656-67.660156 10.097656-12.117188 127.242187h159.558594zm0 0" fill="#565656"/><path d="m27.769531 256h90.484375v16.359375c0 24.988281-20.253906 45.242187-45.242187 45.242187-24.984375 0-45.242188-20.253906-45.242188-45.242187zm0 0" fill="#ef3535"/><path d="m89.976562 256v16.359375c0 20.046875-13.042968 37.039063-31.101562 42.976563 4.449219 1.464843 9.199219 2.265624 14.136719 2.265624 24.984375 0 45.242187-20.253906 45.242187-45.242187v-16.359375zm0 0" fill="#d33131"/><path d="m208.738281 256h90.484375v16.359375c0 24.988281-20.253906 45.242187-45.242187 45.242187s-45.242188-20.253906-45.242188-45.242187zm0 0" fill="#ef3535"/><path d="m389.703125 256h90.484375v16.359375c0 24.988281-20.253906 45.242187-45.242188 45.242187-24.984374 0-45.242187-20.253906-45.242187-45.242187zm0 0" fill="#ef3535"/><path d="m451.914062 256v16.359375c0 20.046875-13.046874 37.039063-31.105468 42.976563 4.449218 1.464843 9.199218 2.265624 14.136718 2.265624 24.988282 0 45.242188-20.253906 45.242188-45.242187v-16.359375zm0 0" fill="#d33131"/><path d="m118.253906 256h90.484375v16.359375c0 24.988281-20.253906 45.242187-45.242187 45.242187-24.984375 0-45.242188-20.253906-45.242188-45.242187zm0 0" fill="#e1ebef"/><path d="m299.222656 256h90.484375v16.359375c0 24.988281-20.257812 45.242187-45.242187 45.242187-24.988282 0-45.242188-20.253906-45.242188-45.242187zm0 0" fill="#e1ebef"/><path d="m361.429688 256v16.359375c0 20.046875-13.042969 37.039063-31.105469 42.976563 4.449219 1.464843 9.199219 2.265624 14.140625 2.265624 24.984375 0 45.238281-20.253906 45.238281-45.242187v-16.359375zm0 0" fill="#c4d3d6"/><path d="m270.945312 256v16.359375c0 20.046875-13.042968 37.039063-31.101562 42.976563 4.449219 1.464843 9.195312 2.265624 14.136719 2.265624 24.984375 0 45.242187-20.253906 45.242187-45.242187v-16.359375zm0 0" fill="#d33131"/><path d="m180.460938 256v16.359375c0 20.046875-13.042969 37.039063-31.101563 42.976563 4.449219 1.464843 9.199219 2.265624 14.136719 2.265624 24.984375 0 45.242187-20.253906 45.242187-45.242187v-16.359375zm0 0" fill="#c4d3d6"/><path d="m253.980469 64.125h80.789062l-18.179687-28.273438 18.179687-28.277343h-80.789062zm0 0" fill="#ffd432"/><path d="m7.574219 219.644531h492.8125v36.355469h-492.8125zm0 0" fill="#757574"/><path d="m449.894531 219.644531v12.117188c0 3.347656-2.714843 6.058593-6.058593 6.058593h-436.261719v18.179688h492.8125v-36.355469zm0 0" fill="#565656"/><path d="m500.386719 212.070312h-17.84375l-204.175781-140.371093h56.402343c2.769531 0 5.320313-1.511719 6.648438-3.945313 1.324219-2.429687 1.21875-5.394531-.277344-7.722656l-15.542969-24.179688 15.542969-24.179687c1.496094-2.332031 1.605469-5.292969.277344-7.726563-1.328125-2.433593-3.878907-3.945312-6.648438-3.945312h-80.789062c-4.183594 0-7.574219 3.390625-7.574219 7.574219v52.566406l-114.148438 78.480469c-3.449218 2.371094-4.320312 7.085937-1.953124 10.53125 2.371093 3.449218 7.085937 4.320312 10.535156 1.953125l67.953125-46.71875-93.980469 107.683593h-62.65625l55.039062-37.835937c3.445313-2.371094 4.320313-7.085937 1.949219-10.53125-2.371093-3.449219-7.085937-4.320313-10.53125-1.953125l-73.195312 50.320312h-17.84375c-4.183594 0-7.574219 3.394532-7.574219 7.574219v36.355469c0 4.183594 3.390625 7.574219 7.574219 7.574219h12.621093v8.785156c0 24.835937 17.234376 45.707031 40.371094 51.320313l-16.101562 180.070312c-.191406 2.117188.519531 4.21875 1.953125 5.785156 1.433593 1.570313 3.464843 2.464844 5.589843 2.464844h403.945313c2.125 0 4.152344-.894531 5.589844-2.464844 1.433593-1.566406 2.144531-3.667968 1.953125-5.785156l-13.460938-150.476562c-.371094-4.167969-4.054687-7.234376-8.21875-6.871094-4.167968.371094-7.242187 4.050781-6.867187 8.21875l12.722656 142.230468h-54.472656l-16.347657-182.816406c5.117188-3.984375 9.488282-8.878906 12.855469-14.453125 9.253907 15.324219 26.070313 25.59375 45.242188 25.59375 29.121093 0 52.816406-23.691406 52.816406-52.816406v-8.785156h12.621094c4.183593 0 7.574219-3.390625 7.574219-7.574219v-36.355469c0-4.183593-3.390626-7.574219-7.574219-7.574219zm-107.238281 0-93.984376-107.6875 156.640626 107.6875zm-123.769532-118.777343 103.664063 118.777343h-72.8125zm15.203125 118.777343h-61.203125l30.601563-117.816406zm-23.027343-196.921874h59.339843l-10.675781 16.605468c-1.605469 2.496094-1.605469 5.695313 0 8.191406l10.675781 16.609376h-59.339843zm-22.976563 78.144531-30.851563 118.777343h-72.808593zm-203.234375 179.066406v-8.785156h75.335938v8.785156c0 20.769531-16.898438 37.667969-37.667969 37.667969s-37.667969-16.898438-37.667969-37.667969zm108.5625-8.785156h57.257812v8.785156c0 20.769531-16.898437 37.667969-37.667968 37.667969-20.769532 0-37.667969-16.894532-37.667969-37.667969v-8.785156zm110.074219 61.601562c14.6875 0 27.988281-6.03125 37.570312-15.738281l5.054688 56.503906-42.515625-6.347656c-.742188-.109375-1.496094-.109375-2.238282 0l-40.46875 6.042969 5.027344-56.199219c9.582032 9.707031 22.882813 15.738281 37.570313 15.738281zm37.667969-61.601562v8.785156c0 20.769531-16.898438 37.667969-37.667969 37.667969s-37.667969-16.894532-37.667969-37.667969v-8.785156zm-216.003907 61.535156c18.074219-.890625 33.78125-10.910156 42.609375-25.527344 3.367188 5.574219 7.738282 10.46875 12.855469 14.453125l-16.347656 182.816406h-54.472657zm69.957031-3.058594c5.589844 2.019531 11.617188 3.125 17.894532 3.125 14.765625 0 28.125-6.097656 37.71875-15.898437l-5.246094 58.65625-11.777344 1.757812c-3.445312.515625-6.09375 3.308594-6.421875 6.773438l-11.464843 120.386718h-36.335938zm170.988282 174.800781h-135.070313l10.769531-113.050781 60.679688-9.058593 60.683594 9.058593 10.765625 113.050781zm61.402344 0h-38.355469l-11.464844-120.386718c-.332031-3.464844-2.980469-6.257813-6.421875-6.773438l-9.730469-1.453125-5.277343-58.960937c9.597656 9.800781 22.957031 15.898437 37.722656 15.898437 6.277344 0 12.300781-1.109375 17.894531-3.128906zm-33.527344-186.824218c-20.773438 0-37.667969-16.894532-37.667969-37.667969v-8.785156h75.335937v8.785156c0 20.769531-16.898437 37.667969-37.667968 37.667969zm128.148437-37.667969c0 20.769531-16.894531 37.667969-37.667969 37.667969-20.769531 0-37.667968-16.894532-37.667968-37.667969v-8.785156h75.335937zm20.199219-23.933594h-477.664062v-21.207031h477.664062zm0 0"/></svg>