<?xml version="1.0" encoding="iso-8859-1"?>
<!-- Generator: Adobe Illustrator 19.0.0, SVG Export Plug-In . SVG Version: 6.00 Build 0)  -->
<svg version="1.1" id="Capa_1" xmlns="http://www.w3.org/2000/svg" xmlns:xlink="http://www.w3.org/1999/xlink" x="0px" y="0px"
	 viewBox="0 0 511.999 511.999" style="enable-background:new 0 0 511.999 511.999;" xml:space="preserve">
<g>
	<path style="fill:#FFDBA9;" d="M289.714,504.486h-67.429c-2.767,0-5.01-2.243-5.01-5.01v-27.389c0-2.767,2.243-5.01,5.01-5.01
		h67.429c2.767,0,5.01,2.243,5.01,5.01v27.389C294.725,502.243,292.482,504.486,289.714,504.486z"/>
	<path style="fill:#FFDBA9;" d="M304.013,394.212h-96.024c-2.624,0-4.752-2.127-4.752-4.752V359.9c0-2.624,2.127-4.752,4.752-4.752
		h96.024c2.624,0,4.752,2.127,4.752,4.752v29.559C308.764,392.084,306.637,394.212,304.013,394.212z"/>
</g>
<g>
	<path style="fill:#FFC473;" d="M304.013,394.212h-21.564v-39.063h21.564c2.624,0,4.752,2.127,4.752,4.752v29.559
		C308.764,392.084,306.637,394.212,304.013,394.212z"/>
	<path style="fill:#FFC473;" d="M289.714,504.486H271.03v-37.409h18.685c2.767,0,5.01,2.243,5.01,5.01v27.389
		C294.725,502.243,292.482,504.486,289.714,504.486z"/>
</g>
<path style="fill:#6B6C8A;" d="M292.04,355.149l22.618-232.031c0.093-0.959-0.091-1.924-0.532-2.78L256,7.491v347.657H292.04z"/>
<path style="fill:#595B75;" d="M314.658,123.116l-22.615,232.032h-22.966l22.615-232.032c0.1-0.952-0.09-1.924-0.531-2.775
	l-35.16-68.256V7.495l58.126,112.844C314.567,121.192,314.748,122.164,314.658,123.116z"/>
<path style="fill:#B7C1CA;" d="M219.961,355.149l-22.618-232.031c-0.093-0.959,0.091-1.924,0.532-2.78L256,7.491v347.657H219.961z"
	/>
<rect x="228.971" y="394.209" style="fill:#B76035;" width="54.063" height="72.864"/>
<rect x="256.002" y="394.209" style="fill:#A04C27;" width="27.031" height="72.864"/>
<path d="M320.806,116.897L262.681,4.05c-0.015-0.03-0.037-0.055-0.053-0.084c-0.111-0.208-0.245-0.4-0.375-0.597
	c-0.102-0.155-0.194-0.317-0.306-0.463c-0.134-0.173-0.289-0.327-0.437-0.489c-0.132-0.143-0.255-0.296-0.396-0.427
	c-0.161-0.15-0.342-0.277-0.515-0.412c-0.15-0.117-0.292-0.244-0.451-0.348c-0.182-0.121-0.381-0.217-0.575-0.322
	c-0.17-0.093-0.335-0.195-0.512-0.274c-0.182-0.081-0.377-0.138-0.567-0.205c-0.208-0.073-0.411-0.154-0.625-0.209
	c-0.034-0.009-0.065-0.025-0.099-0.033c-0.159-0.038-0.319-0.046-0.478-0.073c-0.222-0.039-0.441-0.083-0.667-0.102
	c-0.204-0.017-0.406-0.01-0.609-0.01c-0.215-0.001-0.429-0.008-0.646,0.011c-0.212,0.018-0.418,0.061-0.627,0.096
	c-0.171,0.029-0.342,0.038-0.513,0.079c-0.037,0.009-0.069,0.026-0.106,0.036c-0.194,0.05-0.379,0.125-0.568,0.19
	c-0.21,0.072-0.423,0.135-0.623,0.225c-0.154,0.069-0.297,0.16-0.446,0.239c-0.216,0.115-0.437,0.223-0.639,0.357
	c-0.141,0.093-0.266,0.207-0.401,0.31c-0.191,0.146-0.387,0.286-0.563,0.449c-0.135,0.125-0.252,0.271-0.378,0.407
	c-0.154,0.167-0.315,0.327-0.453,0.506c-0.111,0.144-0.202,0.305-0.304,0.459c-0.13,0.197-0.265,0.39-0.377,0.6
	c-0.016,0.03-0.038,0.054-0.053,0.084l-58.124,112.844c-1.106,2.147-1.567,4.552-1.332,6.952l21.815,223.786h-3.691
	c-6.763,0-12.267,5.503-12.267,12.268v29.558c0,6.764,5.503,12.268,12.267,12.268h13.468v4.895c0,4.15,3.364,7.515,7.515,7.515
	s7.515-3.364,7.515-7.515v-4.895h39.031v57.834h-39.031v-6.179c0-4.15-3.364-7.515-7.515-7.515s-7.515,3.365-7.515,7.515v6.221
	c-6.518,0.431-11.695,5.857-11.695,12.483v27.389c0,6.906,5.618,12.525,12.525,12.525h67.429c6.906,0,12.525-5.618,12.525-12.525
	v-27.389c0-6.626-5.175-12.053-11.695-12.483v-57.876h13.468c6.763,0,12.267-5.503,12.267-12.268v-29.558
	c0-6.764-5.503-12.268-12.267-12.268h-3.69l12.211-125.255c0.402-4.131-2.619-7.805-6.75-8.208c-4.141-0.414-7.806,2.619-8.208,6.75
	L285.22,347.633h-21.705V38.493l43.591,84.63l-5.038,51.687c-0.402,4.131,2.619,7.806,6.75,8.208c4.122,0.399,7.805-2.62,8.208-6.75
	l5.109-52.417C322.372,121.447,321.911,119.042,320.806,116.897z M287.21,496.97h-62.42v-22.379h4.179h54.061h4.179v22.379H287.21z
	 M292.039,362.664h9.21v24.033H283.03H228.97h-18.219v-24.033h9.21H256H292.039z M226.779,347.634l-21.885-224.511l43.591-84.63
	v309.14H226.779z"/>
<g>
</g>
<g>
</g>
<g>
</g>
<g>
</g>
<g>
</g>
<g>
</g>
<g>
</g>
<g>
</g>
<g>
</g>
<g>
</g>
<g>
</g>
<g>
</g>
<g>
</g>
<g>
</g>
<g>
</g>
</svg>
