<?xml version="1.0" encoding="iso-8859-1"?>
<!-- Generator: Adobe Illustrator 19.0.0, SVG Export Plug-In . SVG Version: 6.00 Build 0)  -->
<svg version="1.1" id="Capa_1" xmlns="http://www.w3.org/2000/svg" xmlns:xlink="http://www.w3.org/1999/xlink" x="0px" y="0px"
	 viewBox="0 0 511.997 511.997" style="enable-background:new 0 0 511.997 511.997;" xml:space="preserve">
<path style="fill:#FEDFC5;" d="M451.326,173.444c0,8.266-6.698,14.964-14.964,14.964H261.826c-8.266,0-14.964-6.698-14.964-14.964
	c0-8.255,6.698-14.953,14.964-14.953h174.535C444.628,158.49,451.326,165.188,451.326,173.444z"/>
<path style="fill:#FECBAA;" d="M285.718,158.49v29.918h-23.891c-8.266,0-14.964-6.698-14.964-14.964
	c0-8.255,6.698-14.953,14.964-14.953L285.718,158.49L285.718,158.49z"/>
<path style="fill:#FEDFC5;" d="M211.964,173.444c0,8.266-6.698,14.964-14.964,14.964H22.464c-8.266,0-14.964-6.698-14.964-14.964
	c0-8.255,6.698-14.953,14.964-14.953h174.535C205.265,158.49,211.964,165.188,211.964,173.444z"/>
<path style="fill:#FECBAA;" d="M211.964,173.444c0,8.266-6.698,14.964-14.964,14.964h-23.891V158.49H197
	C205.265,158.49,211.964,165.188,211.964,173.444z"/>
<rect x="184.84" y="158.489" style="fill:#FD6096;" width="89.14" height="161.98"/>
<g>
	<path style="fill:#FC3E81;" d="M273.986,199.709v120.76h-89.145v-41.381C263.338,266.486,273.986,199.709,273.986,199.709z"/>
	<path style="fill:#FC3E81;" d="M264.685,158.49c-9.941,8.789-22.995,14.132-37.266,14.132s-27.326-5.344-37.266-14.132H264.685z"/>
</g>
<path style="fill:#FEDFC5;" d="M271.991,116.318c0,24.617-19.956,44.572-44.572,44.572s-44.572-19.956-44.572-44.572
	c0-0.64,0.011-1.28,0.043-1.92c1.003-23.731,20.553-42.653,44.53-42.653s43.527,18.921,44.53,42.653
	C271.98,115.038,271.991,115.678,271.991,116.318z"/>
<path style="fill:#FECBAA;" d="M271.948,114.398c-0.693,0.074-1.408,0.106-2.122,0.106h-84.815c-0.715,0-1.429-0.032-2.122-0.106
	c1.003-23.731,20.553-42.653,44.53-42.653S270.946,90.667,271.948,114.398z"/>
<path style="fill:#C97F4C;" d="M267.2,37.865c0,4.341-1.045,8.433-2.894,12.046c-4.38,8.568-13.302,14.433-23.594,14.433
	c-13.762,0-25.07-10.494-26.354-23.911c-0.086-0.843-0.125-1.706-0.125-2.568c0-14.634,11.855-26.489,26.479-26.489
	C255.346,11.376,267.2,23.231,267.2,37.865z"/>
<path style="fill:#AA6344;" d="M264.306,49.911c-4.38,8.568-13.302,14.433-23.594,14.433c-13.762,0-25.07-10.494-26.354-23.911
	c1.993-0.24,4.015-0.364,6.057-0.364h14.001C245.322,40.069,255.595,43.634,264.306,49.911z"/>
<path style="fill:#C97F4C;" d="M269.829,102.772c5.813,0,10.112-5.36,8.919-11.049c-4.956-23.617-22.918-41.116-44.328-41.116
	h-14.004c-21.41,0-39.372,17.499-44.328,41.116c-1.194,5.689,3.106,11.049,8.919,11.049
	C185.007,102.772,269.829,102.772,269.829,102.772z"/>
<path style="fill:#4C60E1;" d="M476.387,452.008L301.683,345.326c-17.202-10.504-27.695-29.206-27.695-49.362l0,0H184.84l0,0
	c0,13.064-10.59,23.654-23.654,23.654h-34.593c-24.602,0-44.546,19.944-44.546,44.546v100.605c0,8.328,6.4,15.493,14.718,15.884
	c8.881,0.418,16.213-6.659,16.213-15.448v-101.04c0-7.52,6.096-13.616,13.616-13.616H227.49c15.302,0,30.307,4.219,43.366,12.194
	l189.411,115.663c2.516,1.537,5.297,2.269,8.045,2.269c5.211,0,10.299-2.634,13.214-7.408
	C485.978,465.977,483.677,456.459,476.387,452.008z"/>
<g>
	<path style="fill:#E3F4FF;" d="M120.272,473.89v17.457c0,5.123-4.153,9.275-9.275,9.275H49.988c-3.405,0-6.166-2.76-6.166-6.166
		v-1.323c0-14.033,11.376-25.41,25.41-25.41h44.874C117.511,467.724,120.272,470.484,120.272,473.89z"/>
	<path style="fill:#E3F4FF;" d="M428.051,491.346L428.051,491.346c0,5.123,4.153,9.275,9.275,9.275h61.008
		c3.405,0,6.166-2.76,6.166-6.166v-1.323c0-14.033-11.376-25.41-25.41-25.41h-27.417
		C438.627,467.723,428.051,478.299,428.051,491.346z"/>
</g>
<path d="M203.833,212.119c0.633,0.297,10.82,4.963,25.115,4.963c7.283,0,15.634-1.212,24.326-4.831
	c3.765-1.568,5.547-5.892,3.98-9.658c-1.568-3.767-5.892-5.548-9.658-3.98c-19.468,8.104-37.193,0.264-37.516,0.119
	c-3.686-1.711-8.068-0.121-9.797,3.562C198.551,205.988,200.14,210.386,203.833,212.119z"/>
<path d="M209.843,114.481h-0.089c-4.08,0-7.341,3.307-7.341,7.386s3.351,7.386,7.431,7.386s7.386-3.307,7.386-7.386
	S213.923,114.481,209.843,114.481z"/>
<path d="M245.054,129.254c4.08,0,7.386-3.307,7.386-7.386s-3.307-7.386-7.386-7.386h-0.089c-4.08,0-7.341,3.307-7.341,7.386
	S240.974,129.254,245.054,129.254z"/>
<path d="M491.131,462.693c-0.784-6.93-4.683-13.167-10.793-16.898l-98.826-60.347c-3.479-2.125-8.026-1.028-10.153,2.454
	c-2.126,3.482-1.026,8.027,2.455,10.153l98.825,60.347c0.885,0.54,1.627,1.238,2.228,2.032h-23.105c-2.016,0-3.986,0.2-5.896,0.569
	L274.712,356.489c-14.229-8.689-30.563-13.282-47.236-13.282h-5.287c0.003-0.087,0.013-0.173,0.013-0.261v-39.577h44.834
	c2.292,19.769,13.662,37.827,30.817,48.302l46.405,28.337c3.482,2.126,8.027,1.028,10.154-2.454
	c2.125-3.482,1.026-8.027-2.454-10.153l-46.406-28.337c-14.908-9.104-24.169-25.611-24.169-43.081c0-0.007-0.001-0.013-0.001-0.019
	V195.761h155.064c12.326,0,22.353-10.028,22.353-22.353c0-12.326-10.027-22.354-22.353-22.354H265.981
	c8.326-9.221,13.404-21.427,13.404-34.8c0-2.934-0.246-5.853-0.731-8.725c1.489-0.945,2.839-2.128,3.983-3.537
	c3.16-3.893,4.381-8.945,3.349-13.862c-2.781-13.254-9.101-24.585-17.623-32.804c4.01-5.68,6.228-12.529,6.228-19.567
	c0-18.683-15.2-33.883-33.883-33.883c-18.682,0-33.882,15.2-33.882,33.883c0,2.443,0.263,4.838,0.767,7.175
	c-18.857,5.396-34.004,22.479-38.77,45.195c-1.032,4.917,0.189,9.969,3.349,13.862c1.15,1.416,2.507,2.606,4.006,3.553
	c-0.485,2.869-0.755,5.78-0.755,8.709c0,13.372,5.078,25.579,13.404,34.8H22.353C10.027,151.054,0,161.082,0,173.407
	c0,12.326,10.027,22.354,22.353,22.354h86.365c4.08,0,7.386-3.307,7.386-7.386s-3.307-7.386-7.386-7.386H22.353
	c-4.18,0-7.581-3.401-7.581-7.581s3.401-7.581,7.581-7.581h155.064v15.162h-35.038c-4.08,0-7.386,3.307-7.386,7.386
	s3.307,7.386,7.386,7.386h35.038v100.221c0,0.01,0.001,0.019,0.001,0.029c-0.016,8.963-7.311,16.25-16.277,16.25h-34.608
	c-28.647,0-51.954,23.306-51.954,51.953v96.22h-5.435c-18.09,0-32.807,14.717-32.807,32.808v1.323
	c0,7.474,6.08,13.555,13.554,13.555h61.037c9.19,0,16.666-7.476,16.666-16.666V473.99c0-5.217-2.967-9.747-7.297-12.012v-27.461
	c0-4.079-3.307-7.386-7.386-7.386s-7.386,3.307-7.386,7.386v25.918H89.351v-96.22c0-20.502,16.679-37.181,37.181-37.181h34.608
	c14.578,0,26.841-10.098,30.164-23.665h16.124v39.577c0,0.088,0.01,0.174,0.013,0.261h-80.91c-11.585,0-21.009,9.424-21.009,21.008
	v36.643c0,4.079,3.307,7.386,7.386,7.386s7.386-3.307,7.386-7.386v-36.643c0-3.438,2.798-6.235,6.236-6.235h100.943
	c13.955,0,27.627,3.844,39.537,11.117l163.468,99.821c-5.989,5.659-9.738,13.666-9.738,22.537c0,9.19,7.476,16.666,16.666,16.666
	h61.037c7.474,0,13.554-6.081,13.554-13.555v-1.323C512,479.364,503.333,467.479,491.131,462.693z M112.821,491.455
	c0,1.044-0.849,1.893-1.893,1.893H51.109v-0.105c0-9.945,8.09-18.035,18.034-18.035h43.677L112.821,491.455L112.821,491.455z
	 M444.026,173.408c0,4.18-3.401,7.581-7.581,7.581H281.381v-15.162h155.064C440.625,165.826,444.026,169.227,444.026,173.408z
	 M190.194,116.254c0-2.076,0.189-4.136,0.527-6.166h73.362c0.338,2.03,0.529,4.09,0.529,6.166c0,20.517-16.692,37.209-37.209,37.209
	S190.194,136.771,190.194,116.254z M240.707,18.649c10.537,0,19.11,8.573,19.11,19.11c0,3.968-1.19,7.714-3.396,10.878
	c-3.431-1.808-7.048-3.208-10.804-4.141l1.712-3.467c1.806-3.658,0.306-8.087-3.352-9.894c-3.66-1.805-8.088-0.305-9.894,3.352
	l-4.266,8.638h-7.46c-0.505-1.727-0.761-3.522-0.761-5.367C221.598,27.222,230.17,18.649,240.707,18.649z M183.279,93.164
	c4.357-20.763,19.62-35.265,37.12-35.265h13.979c0.009,0,0.017,0.001,0.026,0.001c0.006,0,0.011-0.001,0.017-0.001
	c17.494,0.006,32.753,14.506,37.109,35.265c0.156,0.741-0.16,1.268-0.361,1.516c-0.235,0.289-0.657,0.634-1.333,0.634h-38.22v-4.937
	c0-4.079-3.307-7.386-7.386-7.386s-7.386,3.307-7.386,7.386v4.937h-4.403V82.708c0-4.079-3.307-7.386-7.386-7.386
	s-7.386,3.307-7.386,7.386v12.607h-12.693c-0.676,0-1.098-0.345-1.333-0.634C183.439,94.432,183.123,93.905,183.279,93.164z
	 M211.68,165.826c0.023,0,0.046-0.003,0.069-0.003c4.943,1.564,10.2,2.413,15.654,2.413c5.45,0,10.704-0.847,15.643-2.41h23.561
	v122.77H192.19v-122.77H211.68z M497.227,493.348h-59.818c-1.044,0-1.893-0.849-1.893-1.893c0-8.959,7.288-16.247,16.246-16.247
	h27.43c9.945,0,18.035,8.09,18.035,18.035V493.348z"/>
<g>
</g>
<g>
</g>
<g>
</g>
<g>
</g>
<g>
</g>
<g>
</g>
<g>
</g>
<g>
</g>
<g>
</g>
<g>
</g>
<g>
</g>
<g>
</g>
<g>
</g>
<g>
</g>
<g>
</g>
</svg>
