<svg height="511pt" viewBox="-36 0 511 511.99512" width="511pt" xmlns="http://www.w3.org/2000/svg"><path d="m230.371094 385.191406h-19.699219c-62.628906 0-120.191406 35.566406-147.097656 92.121094-3.992188 8.390625-7.648438 17.433594-10.828125 27.167969h335.574218c-2.890624-8.847657-6.175781-17.125-9.746093-24.859375-26.644531-57.699219-84.648438-94.429688-148.203125-94.429688zm0 0" fill="#ff7ab8"/><path d="m388.320312 504.480469h-25.167968c-2.890625-8.851563-6.175782-17.121094-9.746094-24.859375-26.222656-56.796875-82.84375-93.277344-145.226562-94.402344.824218-.019531 1.65625-.027344 2.488281-.027344h19.699219c63.554687 0 121.566406 36.726563 148.199218 94.429688 3.582032 7.738281 6.859375 16.011718 9.753906 24.859375zm0 0" fill="#ff5ca8"/><path d="m217.699219 449.347656h5.671875c18.023437 0 34.589844-10.234375 42.332031-26.511718 1.148437-2.414063 2.199219-5.015626 3.117187-7.820313h-96.574218c.828125 2.546875 1.777344 4.929687 2.804687 7.15625 7.667969 16.605469 24.359375 27.175781 42.648438 27.175781zm0 0" fill="#ffbfab"/><path d="m47.136719 199.277344c0-95.765625 77.632812-173.398438 173.398437-173.398438s173.398438 77.632813 173.398438 173.398438l-.011719 45.90625v44.25c0 68.984375-55.445313 124.996094-124.085937 125.570312-.363282.011719-.71875.011719-1.082032.011719h-96.445312c-.355469 0-.71875 0-1.074219-.011719-68.628906-.574218-124.097656-56.585937-124.097656-125.570312zm0 0" fill="#ffcebf"/><path d="m393.9375 199.277344-.011719 45.902344v44.257812c0 68.976562-55.445312 124.996094-124.09375 125.566406-.359375.011719-.710937.011719-1.082031.011719h-24.308594c.359375 0 .710938 0 1.082032-.011719 68.636718-.570312 124.082031-56.589844 124.082031-125.566406v-44.257812l.011719-45.902344c0-91.675782-71.144532-166.738282-161.234376-172.972656 4.019532-.28125 8.070313-.421876 12.152344-.421876 95.761719 0 173.402344 77.628907 173.402344 173.394532zm0 0" fill="#ffbfab"/><path d="m47.136719 208.128906h-2.1875c-20.398438 0-36.929688 16.589844-36.929688 37.054688 0 20.460937 16.53125 37.050781 36.929688 37.050781h2.1875zm0 0" fill="#ffcebf"/><path d="m393.925781 208.128906h2.191407c20.394531 0 36.929687 16.589844 36.929687 37.054688 0 20.460937-16.535156 37.050781-36.929687 37.050781h-2.191407zm0 0" fill="#ffbfab"/><path d="m393.011719 173.007812c-.910157-9.800781-2.339844-26.824218-4.664063-36.273437-5.449218-22.132813-15.300781-43.109375-28.996094-61.398437-58.601562-78.308594-178.996093-91.074219-253.148437-26.414063-26.402344 23.039063-45.109375 53.980469-53.480469 87.8125-3.933594 15.898437-5.25 54.359375-5.875 71.816406-.1875 5.257813 1.734375 10.363281 5.339844 14.191407 6.59375 6.988281 16.433594 11.414062 26.398438 11.414062 10.527343 0 19.90625-4.945312 25.945312-12.632812 1.222656-1.554688 3.527344-1.554688 4.75.003906 6.035156 7.683594 15.410156 12.628906 25.933594 12.628906 10.539062 0 19.914062-4.945312 25.949218-12.628906 1.222657-1.558594 3.527344-1.558594 4.75 0 6.03125 7.683594 15.40625 12.628906 25.945313 12.628906s19.914063-4.945312 25.949219-12.628906c1.21875-1.558594 3.527344-1.558594 4.746094 0 6.035156 7.683594 15.410156 12.628906 25.949218 12.628906 10.527344 0 19.902344-4.945312 25.933594-12.628906 1.222656-1.558594 3.53125-1.558594 4.753906-.003906 6.039063 7.6875 15.414063 12.632812 25.941406 12.632812 10.539063 0 19.914063-4.945312 25.949219-12.632812 1.21875-1.554688 3.527344-1.554688 4.75 0 6.03125 7.6875 15.40625 12.632812 25.945313 12.632812 10.144531 0 20.164062-4.582031 26.757812-11.804688.40625-.445312.800782-.894531 1.179688-1.359374 3.148437-3.835938 4.695312-8.738282 4.484375-13.699219-.253907-6.085938-.621094-28.175781-1.1875-34.285157zm0 0" fill="#7c7b7b"/><path d="m394.203125 207.289062c.207031 4.957032-1.34375 9.871094-4.496094 13.703126-.375.464843-.769531.914062-1.167969 1.355468-6.59375 7.226563-16.617187 11.808594-26.761718 11.808594h-.210938c.265625-.265625.519532-.53125.761719-.792969.394531-.441406.792969-.894531 1.175781-1.355469 3.152344-3.832031 4.695313-8.746093 4.484375-13.703124-.253906-6.089844-.617187-12.214844-1.1875-18.328126-.90625-9.792968-2.335937-42.78125-4.660156-52.230468-5.453125-22.128906-15.308594-43.109375-29-61.394532-44.949219-60.058593-126.246094-81.570312-195.152344-59.144531 73.300781-38.386719 170.566407-19.761719 221.363281 48.132813 13.691407 18.28125 23.550782 39.265625 28.992188 61.390625 2.332031 9.453125 3.753906 26.480469 4.667969 36.273437.5625 6.113282.9375 28.195313 1.191406 34.285156zm0 0" fill="#727272"/><path d="m140.671875 307.398438c0 9.953124-8.070313 18.027343-18.027344 18.027343s-18.027343-8.074219-18.027343-18.027343c0-9.957032 8.070312-18.03125 18.027343-18.03125s18.027344 8.074218 18.027344 18.03125zm0 0" fill="#ff9a9a"/><path d="m336.449219 307.398438c0 9.953124-8.070313 18.027343-18.027344 18.027343s-18.027344-8.074219-18.027344-18.027343c0-9.957032 8.070313-18.03125 18.027344-18.03125s18.027344 8.074218 18.027344 18.03125zm0 0" fill="#ff9a9a"/><path d="m341.042969 160.515625c19.980469-6.042969 29.09375-25.515625 31.84375-44.78125 3.078125-21.558594 3.570312-46.371094-2.242188-67.445313-4.242187-15.386718-13.742187-29.019531-29.601562-33.816406 0 0-47.273438-14.039062-91.273438 43.066406v59.914063c44 57.101563 91.273438 43.0625 91.273438 43.0625zm0 0" fill="#ffc1de"/><path d="m372.882812 115.734375c-2.746093 19.265625-11.859374 38.742187-31.835937 44.777344 0 0-9.472656 2.816406-23.890625.792969 2.476562-.390626 3.839844-.792969 3.839844-.792969 19.980468-6.035157 29.09375-25.511719 31.839844-44.777344 3.078124-21.554687 3.566406-46.363281-2.246094-67.445313-4.242188-15.386718-13.742188-29.023437-29.59375-33.8125 0 0-1.363282-.402343-3.839844-.792968 14.417969-2.023438 23.890625.792968 23.890625.792968 15.859375 4.792969 25.351563 18.425782 29.601563 33.8125 5.804687 21.082032 5.3125 45.890626 2.234374 67.445313zm0 0" fill="#ffa4cf"/><path d="m100.019531 160.515625c-19.976562-6.042969-29.089843-25.515625-31.84375-44.78125-3.078125-21.558594-3.570312-46.371094 2.242188-67.445313 4.242187-15.386718 13.746093-29.019531 29.601562-33.816406 0 0 47.277344-14.039062 91.277344 43.066406v59.914063c-44 57.101563-91.277344 43.0625-91.277344 43.0625zm0 0" fill="#ffc1de"/><path d="m229.515625 124.863281h-18.402344c-15.339843 0-27.890625-12.550781-27.890625-27.890625v-17.433594c0-15.339843 12.550782-27.890624 27.890625-27.890624h18.402344c15.34375 0 27.894531 12.550781 27.894531 27.890624v17.433594c0 15.339844-12.550781 27.890625-27.894531 27.890625zm0 0" fill="#ff7ab8"/><path d="m257.410156 79.535156v17.433594c0 15.34375-12.550781 27.894531-27.898437 27.894531h-18.394531c-.28125 0-.558594 0-.839844-.019531 14.953125-.441406 27.046875-12.808594 27.046875-27.875v-17.433594c0-15.058594-12.089844-27.425781-27.046875-27.867187.28125-.019531.558594-.019531.839844-.019531h18.394531c15.351562 0 27.898437 12.550781 27.898437 27.886718zm0 0" fill="#ff5ca8"/><path d="m148.785156 248.355469c-4.152344 0-7.515625 3.367187-7.515625 7.519531v18.472656c0 4.152344 3.363281 7.519532 7.515625 7.519532s7.519532-3.367188 7.519532-7.519532v-18.472656c0-4.152344-3.367188-7.519531-7.519532-7.519531zm0 0"/><path d="m292.277344 248.355469c-4.152344 0-7.515625 3.367187-7.515625 7.519531v18.472656c0 4.152344 3.363281 7.519532 7.515625 7.519532s7.519531-3.367188 7.519531-7.519532v-18.472656c0-4.152344-3.367187-7.519531-7.519531-7.519531zm0 0"/><path d="m242.320312 324.578125c-3.28125-2.542969-8.007812-1.9375-10.546874 1.347656-2.65625 3.433594-6.664063 5.402344-10.996094 5.402344-4.332032 0-8.339844-1.96875-10.996094-5.402344-2.539062-3.28125-7.261719-3.882812-10.546875-1.34375-3.28125 2.539063-3.882813 7.261719-1.34375 10.546875 5.527344 7.140625 13.867187 11.234375 22.886719 11.234375 9.023437 0 17.367187-4.097656 22.890625-11.242187 2.539062-3.28125 1.9375-8.003906-1.347657-10.542969zm0 0"/><path d="m439.460938 235.273438c-4.222657-18.625-19.433594-32.113282-37.9375-34.332032-.03125-1.230468-.066407-2.554687-.101563-3.945312-.53125-20.78125-.75-41.644532-5.773437-62.0625-3.101563-12.597656-7.640626-24.925782-13.417969-36.597656 1.011719-15.996094.457031-34.65625-4.339844-52.046876-5.53125-20.066406-17.847656-33.921874-34.707031-39.019531-1.414063-.421875-24.039063-6.757812-52.6875 6.5-16.027344-6.496093-33.15625-10.828125-50.890625-12.710937-31.070313-3.292969-61.917969 1.164062-89.652344 12.421875-28.359375-12.886719-50.683594-6.625-52.109375-6.203125-10.429688 3.15625-19.375 9.886718-25.863281 19.472656-2.324219 3.4375-1.425781 8.113281 2.015625 10.4375 3.4375 2.328125 8.109375 1.429688 10.4375-2.011719 4.59375-6.789062 10.570312-11.332031 17.683594-13.484375 1.703124-.480468 41.296874-11.003906 80.441406 36.9375-1.796875 2.445313-3.28125 5.132813-4.40625 7.996094-7.226563-3.8125-17.625-8.5-28.089844-10.480469-4.082031-.769531-8.015625 1.910157-8.785156 5.988281-.773438 4.082032 1.910156 8.015626 5.988281 8.785157 11.085937 2.097656 22.636719 8.175781 28.4375 11.546875v10.054687c-5.800781 3.371094-17.351563 9.449219-28.4375 11.546875-4.078125.769532-6.761719 4.703125-5.988281 8.785156.679687 3.605469 3.835937 6.121094 7.378906 6.121094.460938 0 .933594-.042968 1.40625-.132812 10.242188-1.9375 20.410156-6.46875 27.617188-10.234375 1.054687 3.027343 2.507812 5.867187 4.300781 8.460937-38.953125 47.136719-78.167969 36.703125-79.785157 36.246094-19.148437-5.789062-24.871093-26.695312-26.574218-38.644531-2.574219-18.015625-2.863282-35.34375-.839844-50.117188.566406-4.113281-2.3125-7.902343-6.425781-8.46875-4.113281-.558593-7.90625 2.3125-8.46875 6.425781-1.714844 12.515626-1.730469 25.019532-1.042969 35.941407-5.773438 11.625-10.304688 23.875-13.421875 36.472656-2.648437 10.714844-4.144531 30.625-5.046875 48.199219-.011719 0-.023438.003906-.03125.007812-.476562 5.320313-.726562 17.253906-.726562 17.808594-22.003907 2.652344-39.121094 21.472656-39.121094 44.242188 0 22.765624 17.117187 41.585937 39.121094 44.25 0 35.34375 13.667968 68.628906 38.484374 93.722656 10.25 10.367187 21.914063 18.832031 34.546876 25.222656-24.070313 16.738281-43.300782 39.289062-55.867188 65.703125-4.273438 8.988281-8.039062 18.429687-11.183594 28.066406-.75 2.289063-.355468 4.796875 1.058594 6.746094s3.679688 3.105469 6.085938 3.105469h335.574218c2.40625 0 4.671875-1.15625 6.085938-3.105469 1.414062-1.949219 1.808594-4.457031 1.058594-6.746094-2.867188-8.78125-6.253907-17.421875-10.066407-25.679687-12.84375-27.816406-32.820312-51.050782-57.164062-67.996094 12.707031-6.402344 24.433593-14.898438 34.734375-25.316406 24.808594-25.09375 38.472656-58.378906 38.472656-93.722656v-.019532c10.464844-1.273437 20.253906-6.253906 27.445312-14.117187 2.800782-3.0625 2.589844-7.820313-.476562-10.621094-3.0625-2.800781-7.820312-2.589844-10.621094.472656-4.34375 4.75-10.113281 7.914063-16.339844 9.074219v-58.097656c11.445313 2.074218 20.6875 10.734375 23.347657 22.46875.917969 4.050781 4.945312 6.589844 8.992187 5.671875 4.054688-.914063 6.59375-4.941407 5.675782-8.988281zm-399.84375 38.957031c-13.679688-2.527344-24.082032-14.589844-24.082032-29.046875 0-14.460938 10.398438-26.523438 24.082032-29.050782zm299.25-252.558594c15.792968 4.777344 22.148437 19.980469 24.53125 28.617187 6.121093 22.195313 4.492187 47.261719 2.046874 64.382813-1.703124 11.9375-7.417968 32.820313-26.523437 38.628906-2.046875.570313-41.226563 10.71875-80.070313-36.515625 1.738282-2.566406 3.144532-5.378906 4.167969-8.367187 7.222657 3.800781 17.566407 8.453125 27.980469 10.425781.476562.085938.945312.128906 1.410156.128906 3.539063 0 6.695313-2.511718 7.375-6.121094.773438-4.078124-1.910156-8.011718-5.988281-8.785156-11.367187-2.148437-23.226563-8.488281-28.871094-11.796875v-9.554687c5.625-3.304688 17.453125-9.632813 28.871094-11.792969 4.078125-.769531 6.761719-4.707031 5.988281-8.785156-.769531-4.082031-4.699218-6.761719-8.785156-5.988281-10.640625 2.011718-21.207031 6.824218-28.445312 10.667968-1.09375-2.824218-2.535157-5.476562-4.28125-7.902344 39.222656-48.265624 78.964843-37.703124 80.59375-37.242187zm-171.917969 1.597656c22.417969-7.246093 46.664062-9.84375 71.070312-7.257812 12.253907 1.300781 24.179688 3.890625 35.597657 7.613281-8.699219 6.191406-17.65625 14.398438-26.511719 25.199219-5.1875-2.980469-11.1875-4.695313-17.589844-4.695313h-18.402344c-6.273437 0-12.167969 1.648438-17.285156 4.523438-8.984375-10.925782-18.066406-19.179688-26.878906-25.382813zm23.453125 70.730469c-.101563-5.554688-.207032-11.730469.550781-17.25 1.367187-9.914062 9.875-17.585938 20.160156-17.585938h18.402344c8.871094 0 16.285156 5.972657 19.324219 14.121094 2.652344 7.097656 1.050781 15.75 1.050781 23.261719v.425781c0 11.230469-9.140625 20.371094-20.375 20.371094 0 0-18.394531 0-18.402344 0-5.863281 0-11.523437-2.597656-15.367187-7.023438-4.214844-4.855468-5.238282-10.492187-5.34375-16.320312zm181.34375 388.773438c2.132812 4.617187 4.121094 9.363281 5.953125 14.191406h-314.332031c2.121093-5.605469 4.464843-11.097656 6.996093-16.421875 12.546875-26.371094 32.375-48.542969 57.34375-64.121094.546875-.339844 1.105469-.660156 1.65625-.992187 11.996094 4.101562 24.632813 6.460937 37.597657 6.972656.402343.984375.820312 1.964844 1.261718 2.921875 8.847656 19.160156 28.269532 31.542969 49.476563 31.542969h5.671875c20.9375 0 40.21875-12.089844 49.121094-30.804688.570312-1.191406 1.101562-2.417969 1.609374-3.660156 12.890626-.511719 25.457032-2.839844 37.394532-6.902344 25.882812 15.730469 47.140625 38.886719 60.25 67.273438zm-188.023438-60.238282h73.636719c-6.949219 11.820313-19.945313 19.292969-33.988281 19.292969h-5.671875c-14.019531 0-26.960938-7.457031-33.976563-19.292969zm202.6875-187.957031-.007812 54.855469c0 31.363281-12.121094 60.890625-34.128906 83.152344-21.992188 22.246093-51.292969 34.636718-82.5 34.898437-.0625.003906-.121094.003906-.179688.007813-.28125.007812-.5625.007812-.84375.007812h-96.445312c-.269532 0-.550782 0-.820313-.007812-.0625-.003907-.125-.003907-.1875-.007813-31.207031-.261719-60.503906-12.65625-82.503906-34.898437-22.015625-22.261719-34.140625-51.792969-34.140625-83.152344v-54.964844c7.105468 4.597656 15.539062 7.207031 23.933594 7.207031 10.71875 0 20.78125-4.15625 28.316406-11.554687 7.527344 7.398437 17.589844 11.554687 28.3125 11.554687 10.726562 0 20.792968-4.15625 28.320312-11.554687 7.53125 7.398437 17.59375 11.554687 28.324219 11.554687 10.726563 0 20.792969-4.15625 28.320313-11.554687 7.527343 7.398437 17.59375 11.554687 28.320312 11.554687 10.722656 0 20.785156-4.15625 28.3125-11.554687 7.535156 7.398437 17.597656 11.554687 28.320312 11.554687 10.726563 0 20.792969-4.15625 28.320313-11.554687 7.527344 7.398437 17.59375 11.554687 28.320313 11.554687 8.710937 0 17.40625-2.78125 24.636718-7.664062zm-2.507812-18.359375c-.292969.355469-.59375.703125-.921875 1.0625-5.269531 5.769531-13.394531 9.355469-21.207031 9.355469-7.863282 0-15.164063-3.554688-20.03125-9.753907-2.015626-2.570312-5.035157-4.042968-8.289063-4.042968-3.25 0-6.273437 1.472656-8.289063 4.042968-4.863281 6.199219-12.167968 9.753907-20.03125 9.753907-7.855468 0-15.160156-3.554688-20.03125-9.757813-2.019531-2.570312-5.039062-4.042968-8.289062-4.042968-3.25.003906-6.273438 1.476562-8.289062 4.046874-4.867188 6.199219-12.164063 9.753907-20.023438 9.753907-7.863281 0-15.164062-3.554688-20.03125-9.753907-2.015625-2.570312-5.039062-4.042968-8.289062-4.042968s-6.269532 1.472656-8.289063 4.042968c-4.863281 6.199219-12.164063 9.753907-20.03125 9.753907-7.863281 0-15.167969-3.554688-20.03125-9.757813-2.019531-2.566406-5.039063-4.039062-8.289063-4.039062s-6.269531 1.472656-8.289062 4.042968c-4.867188 6.199219-12.167969 9.753907-20.03125 9.753907-7.859375 0-15.15625-3.554688-20.023438-9.753907-2.015624-2.570312-5.035156-4.042968-8.289062-4.046874-3.25 0-6.269531 1.472656-8.285156 4.042968-4.875 6.203125-12.179688 9.757813-20.035156 9.757813-7.640626 0-15.660157-3.46875-20.925782-9.046875-3.597656-3.8125-3.007812-9.289063-3.007812-14.140625-.03125-.011719-.0625-.023438-.097656-.03125.664062-17.960938 2.089843-51.242188 5.464843-64.878907.878907-3.550781 1.882813-7.0625 3-10.539062 5.558594 20.59375 17.671875 34.523438 34.875 39.726562.699219.207032 6.617188 1.859376 15.902344 1.859376 18.15625 0 49.175781-6.359376 79.160156-42.226563 5.3125 3.183594 11.523438 5.023437 18.15625 5.023437h18.402344c6.753906 0 13.070313-1.902343 18.445313-5.195312 30.023437 36.023438 61.054687 42.417969 79.246093 42.417969 9.324219 0 15.273438-1.675781 15.976563-1.882813.011718-.003906.023437-.007812.035156-.011718 17.164062-5.191407 29.273438-19.128907 34.832031-39.734376 1.117188 3.488282 2.121094 7.007813 2.996094 10.550782 2 8.128906 3.351563 22.867187 4.242187 32.621094l.238282 2.554687c.355468 3.839844.648437 15.304687.863281 23.675781.15625 6.152344 1.765625 13.660156-2.488281 18.839844zm0 0"/></svg>