<?xml version="1.0" encoding="iso-8859-1"?>
<!-- Generator: Adobe Illustrator 19.0.0, SVG Export Plug-In . SVG Version: 6.00 Build 0)  -->
<svg version="1.1" id="Capa_1" xmlns="http://www.w3.org/2000/svg" xmlns:xlink="http://www.w3.org/1999/xlink" x="0px" y="0px"
	 viewBox="0 0 512 512" style="enable-background:new 0 0 512 512;" xml:space="preserve">
<g>
	<path style="fill:#A8503C;" d="M129,311l-36.124,17.951c0,0-0.821,23.345-8.703,49.764c-7.559,25.334,12.095,50.575,38.504,49.37
		c4.289-0.196,8.839-0.54,13.656-1.063L209,384.333L129,311z"/>
	<path style="fill:#A8503C;" d="M383,311l36.124,17.951c0,0,0.821,23.345,8.703,49.764c7.559,25.334-12.095,50.575-38.504,49.37
		c-4.289-0.196-8.839-0.54-13.656-1.063L303,384.333L383,311z"/>
</g>
<path style="fill:#ED6883;" d="M187.54,392.479c-50.131,0-90.767,40.636-90.767,90.757V504.5h50.776l0,0l7.5-9.548l7.5,9.548l0,0
	h39.282l81.401-112.021H187.54z"/>
<path style="fill:#FA9EB0;" d="M324.459,392.479h-41.227l-41.434,33.919l-39.967,32.472v45.63h147.62l0,0l7.5-7.049l7.5,7.049l0,0
	h50.776v-21.264C415.226,433.115,374.59,392.479,324.459,392.479z"/>
<polygon style="fill:#A8503C;" points="419.124,229.544 256,214.589 92.876,229.544 92.876,298.57 419.124,298.57 "/>
<circle style="fill:#E3B098;" cx="402.42" cy="298.99" r="34.31"/>
<ellipse style="fill:#FBC4AC;" cx="256" cy="288.15" rx="149.37" ry="138.87"/>
<path style="fill:#E3B098;" d="M136.626,288.154c0-71.988,58.921-131.18,134.374-138.175c-4.934-0.457-9.937-0.694-15-0.694
	c-73.898,0-135.253,49.891-147.243,115.416c-18.566,0.438-33.484,15.615-33.484,34.286c0,18.947,15.36,34.307,34.307,34.307
	c1.876,0,3.512-0.156,4.953-0.446c20.014,54.768,75.789,94.174,141.467,94.174c5.063,0,10.066-0.237,15-0.695
	C195.547,419.333,136.626,360.142,136.626,288.154z"/>
<g>
	<path style="fill:#A8503C;" d="M116.5,192l-7.743,72.701c0,0,106.743,3.386,147.243-35.157V192H116.5z"/>
	<path style="fill:#A8503C;" d="M395.5,192H256v37.544c40.5,38.544,147.249,35.136,147.249,35.136L395.5,192z"/>
</g>
<path style="fill:#F3F5E6;" d="M372.728,7.5c-25.988,0-48.341,15.499-58.364,37.75C304.341,22.999,281.988,7.5,256,7.5
	s-48.341,15.499-58.364,37.75C187.613,22.999,165.259,7.5,139.271,7.5c-35.345,0-63.998,28.653-63.998,63.998
	c0,17.084,6.694,32.604,17.602,44.081l0.001,0.001v84.053L256,214.589l163.124-14.955V115.58l0.001-0.001
	c10.908-11.477,17.602-26.997,17.602-44.081C436.726,36.153,408.074,7.5,372.728,7.5z"/>
<rect x="92.88" y="199.63" style="fill:#FA9EB0;" width="326.25" height="29.911"/>
<g>
	<path style="fill:#F98084;" d="M349.236,328.844h-21.804c-4.142,0-7.5-3.358-7.5-7.5s3.358-7.5,7.5-7.5h21.804
		c4.142,0,7.5,3.358,7.5,7.5S353.378,328.844,349.236,328.844z"/>
	<path style="fill:#F98084;" d="M184.568,328.844h-21.805c-4.142,0-7.5-3.358-7.5-7.5s3.358-7.5,7.5-7.5h21.805
		c4.142,0,7.5,3.358,7.5,7.5S188.711,328.844,184.568,328.844z"/>
</g>
<path d="M256,177.631c4.142,0,7.5-3.358,7.5-7.5V86.416c0-4.142-3.358-7.5-7.5-7.5s-7.5,3.358-7.5,7.5v83.715
	C248.5,174.273,251.858,177.631,256,177.631z"/>
<path d="M180.82,177.631c4.142,0,7.5-3.358,7.5-7.5V86.416c0-4.142-3.358-7.5-7.5-7.5s-7.5,3.358-7.5,7.5v83.715
	C173.32,174.273,176.678,177.631,180.82,177.631z"/>
<path d="M331.179,177.631c4.142,0,7.5-3.358,7.5-7.5V86.416c0-4.142-3.358-7.5-7.5-7.5s-7.5,3.358-7.5,7.5v83.715
	C323.679,174.273,327.037,177.631,331.179,177.631z"/>
<circle cx="236.63" cy="472" r="9.192"/>
<circle cx="313.43" cy="472" r="9.192"/>
<path d="M338.333,305.314c4.142,0,7.5-3.358,7.5-7.5v-16.009c0-4.142-3.358-7.5-7.5-7.5s-7.5,3.358-7.5,7.5v16.009
	C330.833,301.956,334.191,305.314,338.333,305.314z"/>
<path d="M173.666,305.314c4.142,0,7.5-3.358,7.5-7.5v-16.009c0-4.142-3.358-7.5-7.5-7.5s-7.5,3.358-7.5,7.5v16.009
	C166.166,301.956,169.524,305.314,173.666,305.314z"/>
<path d="M275.662,308.277c-3.119-2.726-7.856-2.407-10.583,0.711c-2.195,2.511-5.504,3.952-9.079,3.952s-6.885-1.44-9.08-3.952
	c-2.727-3.118-7.464-3.437-10.583-0.711s-3.437,7.464-0.711,10.583c5.044,5.77,12.47,9.08,20.374,9.08
	c7.903,0,15.329-3.31,20.373-9.08C279.099,315.742,278.781,311.003,275.662,308.277z"/>
<path d="M426.623,118.483c11.374-13.028,17.604-29.594,17.604-46.984C444.227,32.074,412.153,0,372.729,0
	c-23.42,0-45.117,11.523-58.364,30.22C301.116,11.524,279.419,0,256,0c-23.42,0-45.117,11.523-58.364,30.22
	C184.388,11.524,162.691,0,139.271,0C99.847,0,67.773,32.074,67.773,71.499c0,17.39,6.229,33.956,17.603,46.983v146.539
	c-10.626,7.628-17.603,20.077-17.603,33.967c0,13.919,6.844,26.263,17.336,33.866c-0.616,7.674-2.533,24.982-8.124,43.718
	c-3.849,12.901-1.878,26.766,5.408,38.041c5.174,8.007,12.59,14.094,21.165,17.606c-9.363,15.33-14.285,32.772-14.285,51.019V504.5
	c0,4.142,3.358,7.5,7.5,7.5h318.453c4.142,0,7.5-3.358,7.5-7.5v-21.264c0-18.247-4.923-35.688-14.286-51.019
	c8.577-3.512,15.994-9.602,21.168-17.611c7.284-11.274,9.253-25.138,5.404-38.036c-5.626-18.859-7.523-36.048-8.129-43.714
	c10.496-7.603,17.343-19.948,17.343-33.87c0-13.89-6.977-26.339-17.603-33.967V118.483z M82.773,71.499
	C82.773,40.345,108.118,15,139.271,15c22.18,0,42.405,13.083,51.526,33.331c1.212,2.69,3.888,4.419,6.838,4.419
	c2.951,0,5.626-1.73,6.838-4.42C213.594,28.083,233.819,15,256,15c22.18,0,42.405,13.083,51.526,33.331
	c1.212,2.69,3.888,4.419,6.838,4.419s5.626-1.73,6.838-4.42C330.323,28.083,350.548,15,372.729,15
	c31.153,0,56.498,25.345,56.498,56.499c0,14.515-5.491,28.303-15.464,38.836c-1.349,1.379-2.139,3.252-2.139,5.245v76.553H169.335
	c-4.142,0-7.5,3.358-7.5,7.5s3.358,7.5,7.5,7.5h242.288v14.911h-20.17H256H120.547h-20.171v-14.911h39.52c4.142,0,7.5-3.358,7.5-7.5
	s-3.358-7.5-7.5-7.5h-39.52l-0.001-76.554c0-1.923-0.739-3.773-2.063-5.167C88.292,99.87,82.773,86.05,82.773,71.499z
	 M320.171,405.031c-33.07,15.628-71.325,18.71-106.463,8.53c-42.073-12.191-75.781-42.071-90.921-80.19
	c-0.038-0.097-0.076-0.195-0.114-0.292c-6.683-16.943-9.514-35.325-8.244-53.492c0.172-2.442,0.419-4.881,0.736-7.31
	c0.058,0,0.107,0,0.169,0c13.254,0,39.657-0.706,67.605-5.427c32.415-5.476,56.941-14.686,73.061-27.407
	c16.12,12.721,40.646,21.931,73.06,27.407c27.95,4.722,54.355,5.427,67.608,5.427c0.059,0,0.109,0,0.167,0
	c0.315,2.419,0.562,4.848,0.733,7.281c1.285,18.238-1.609,36.578-8.269,53.591c-0.025,0.063-0.049,0.126-0.074,0.189
	C376.424,365.721,350.868,390.524,320.171,405.031z M386.727,237.044c0.526,1.151,1.03,2.31,1.519,3.475
	c2.286,5.439,4.187,11.039,5.672,16.749c-38.281-0.256-83.609-5.889-113.267-20.224H386.727z M119.139,253.451
	c1.655-5.601,3.707-11.094,6.134-16.407H231.35c-29.659,14.334-74.986,19.967-113.268,20.224
	C118.414,255.99,118.766,254.717,119.139,253.451z M100.376,258.22v-21.176h8.578c-2.715,6.779-4.862,13.707-6.455,20.756
	c-0.013,0.002-0.026,0.005-0.039,0.008C101.766,257.929,101.064,258.065,100.376,258.22z M99.852,274.04
	c-0.113,1.112-0.215,2.227-0.301,3.344c-1.237,16.037,0.318,32.359,4.656,47.854c-0.233-0.048-0.463-0.104-0.695-0.158
	c-11.83-2.745-20.739-13.947-20.739-26.092C82.773,287.75,89.891,277.977,99.852,274.04z M94.992,406.471
	c-4.974-7.697-6.264-16.792-3.632-25.611c4.893-16.397,7.156-31.624,8.187-41.289c0.038,0.009,0.076,0.015,0.113,0.024
	c2.463,0.608,4.997,0.983,7.529,1.126c0.792,0.045,1.588,0.073,2.398,0.073c8.251,19.979,21.097,37.985,37.646,52.833
	c-11.896,5.381-22.708,13.158-31.615,22.702c-0.98,1.05-1.947,2.118-2.88,3.211C105.501,417.56,99.173,412.94,94.992,406.471z
	 M104.273,483.236c0-27.429,13.715-52.678,35.318-68.012c6.477-4.58,13.584-8.247,21.094-10.813
	c16.782,11.999,35.811,20.609,56.065,25.473c0.094,0.022,4.739,1.094,6.981,1.531l-26.629,21.635
	c-1.753,1.424-2.771,3.563-2.771,5.821V497h-31.782v-37.312c0-4.142-3.358-7.5-7.5-7.5s-7.5,3.358-7.5,7.5V497h-43.275v-13.764
	H104.273z M407.727,497h-43.276v-37.312c0-4.142-3.358-7.5-7.5-7.5s-7.5,3.358-7.5,7.5V497h-140.12v-34.56l34.87-28.331
	c1.8,0.125,3.61,0.214,5.426,0.282c18.633,0.694,37.368-1.675,55.202-7.136c16.559-5.071,32.373-12.772,46.474-22.838
	c6.808,2.325,13.303,5.561,19.298,9.562c22.869,15.264,37.126,41.753,37.126,69.257V497z M412.457,339.57
	c1.033,9.631,3.3,24.924,8.182,41.29c2.631,8.817,1.342,17.912-3.629,25.607c-4.179,6.469-10.505,11.089-17.74,13.07
	c-0.37-0.433-0.75-0.857-1.128-1.283c-7.955-8.989-17.689-16.606-28.396-22.198c-1.636-0.854-3.3-1.666-4.982-2.427
	c16.551-14.849,29.396-32.854,37.655-52.834c0.803,0,1.6-0.028,2.392-0.073C407.387,340.575,409.952,340.187,412.457,339.57z
	 M414.787,322.748c-2.195,1.147-4.567,1.993-6.994,2.489c1.116-3.985,2.033-8.026,2.785-12.095
	c2.176-11.779,2.789-23.834,1.869-35.776c-0.086-1.111-0.187-2.219-0.299-3.325c9.963,3.936,17.079,13.71,17.079,24.948
	C429.227,309.307,423.356,318.269,414.787,322.748z M409.541,257.808c-0.014-0.002-0.028-0.006-0.042-0.008
	c-1.593-7.05-3.74-13.977-6.454-20.756h8.579v21.176C410.936,258.066,410.236,257.928,409.541,257.808z"/>
<g>
</g>
<g>
</g>
<g>
</g>
<g>
</g>
<g>
</g>
<g>
</g>
<g>
</g>
<g>
</g>
<g>
</g>
<g>
</g>
<g>
</g>
<g>
</g>
<g>
</g>
<g>
</g>
<g>
</g>
</svg>
