<svg height="512pt" viewBox="-21 0 512 512.00047" width="512pt" xmlns="http://www.w3.org/2000/svg"><path d="m426.675781 452.265625h-8.535156v-42.664063c6.789063 0 13.300781-2.703124 18.09375-7.511718 2.714844-2.671875 4.761719-5.945313 5.972656-9.554688 1.03125-2.726562 1.554688-5.621094 1.535157-8.535156 0-14.136719-11.460938-25.597656-25.601563-25.597656h-17.578125c58.71875-58.515625 76.371094-146.660156 44.71875-223.273438-31.65625-76.613281-106.375-126.589844-189.273438-126.59375-2.898437 0-5.714843.082032-8.53125.167969-50.78125 2.082031-98.960937 23.011719-135.136718 58.710937-11.492188-11.308593-16.917969-28.585937-22.902344-58.503906-11.878906 59.355469-21.503906 68.984375-80.894531 80.859375 36.164062 7.230469 53.835937 13.699219 64.851562 31.003907-40.171875 79.082031-24.800781 175.042968 38.058594 237.628906h-17.578125c-14.136719 0-25.597656 11.460937-25.597656 25.597656-.019532 2.914062.5 5.808594 1.535156 8.535156 3.539062 10.253906 13.214844 17.117188 24.0625 17.066406v42.664063h-8.53125c-6.789062 0-13.300781 2.703125-18.09375 7.511719-2.714844 2.671875-4.761719 5.945312-5.972656 9.554687-1.03125 2.726563-1.554688 5.621094-1.535156 8.535157 0 14.136718 11.460937 25.601562 25.601562 25.601562h341.332031c14.136719 0 25.601563-11.464844 25.601563-25.601562.015625-2.914063-.503906-5.808594-1.539063-8.535157-3.535156-10.253906-13.214843-17.117187-24.0625-17.066406zm0 0" fill="#2fa8cc"/><path d="m460.808594 213.332031c.054687 54.453125-21.632813 106.675781-60.246094 145.070313h-289.109375c-62.867187-62.589844-78.234375-158.5625-38.058594-237.65625l38.914063-53.332032c36.179687-35.707031 84.375-56.640624 135.167968-58.710937 2.816407-.085937 5.632813-.167969 8.53125-.167969 113.097657.027344 204.773438 91.703125 204.800782 204.796875zm0 0" fill="#0377bc"/><path d="m439.476562 213.332031c.054688 54.453125-21.632812 106.675781-60.246093 145.070313h-272.042969c-62.867188-62.589844-78.238281-158.5625-38.058594-237.65625l38.910156-53.332032c36.183594-35.707031 84.378907-56.640624 135.167969-58.710937 109.675781 4.628906 196.21875 94.859375 196.269531 204.628906zm0 0" fill="#02a9f4"/><g fill="#37474f"><path d="m452.277344 477.867188c0 14.136718-11.464844 25.601562-25.601563 25.601562h-341.332031c-14.140625 0-25.601562-11.464844-25.601562-25.601562-.019532-2.914063.503906-5.808594 1.535156-8.535157 1.210937-3.609375 3.257812-6.882812 5.972656-9.554687 4.792969-4.808594 11.304688-7.511719 18.09375-7.511719h341.332031c10.847657-.050781 20.527344 6.8125 24.0625 17.066406 1.035157 2.726563 1.554688 5.621094 1.539063 8.535157zm0 0"/><path d="m93.875 409.601562h324.265625v42.664063h-324.265625zm0 0"/><path d="m443.742188 384c.019531 2.914062-.503907 5.808594-1.535157 8.535156-1.210937 3.609375-3.257812 6.882813-5.972656 9.554688-4.792969 4.808594-11.304687 7.511718-18.09375 7.511718h-324.265625c-10.847656.050782-20.523438-6.8125-24.0625-17.066406-1.035156-2.726562-1.554688-5.621094-1.535156-8.535156 0-14.136719 11.460937-25.597656 25.597656-25.597656h324.265625c14.140625 0 25.601563 11.460937 25.601563 25.597656zm0 0"/></g><path d="m430.941406 477.867188c0 14.136718-11.460937 25.601562-25.597656 25.601562h-320c-14.140625 0-25.601562-11.464844-25.601562-25.601562-.019532-2.914063.503906-5.808594 1.535156-8.535157 1.210937-3.609375 3.257812-6.882812 5.972656-9.554687 4.792969-4.808594 11.304688-7.511719 18.09375-7.511719h320c10.847656-.050781 20.523438 6.8125 24.0625 17.066406 1.035156 2.726563 1.554688 5.621094 1.535156 8.535157zm0 0" fill="#607d8b"/><path d="m422.410156 384c.015625 2.914062-.503906 5.808594-1.539062 8.535156-1.210938 3.609375-3.257813 6.882813-5.972656 9.554688-4.792969 4.808594-11.300782 7.511718-18.089844 7.511718h-302.933594c-10.847656.050782-20.523438-6.8125-24.0625-17.066406-1.035156-2.726562-1.554688-5.621094-1.535156-8.535156 0-14.136719 11.460937-25.597656 25.597656-25.597656h302.933594c14.140625 0 25.601562 11.460937 25.601562 25.597656zm0 0" fill="#607d8b"/><path d="m52.234375 102.316406c-14-5.945312-28.671875-10.15625-43.691406-12.546875 6.570312-1.277343 12.457031-2.558593 17.832031-3.921875 9.964844 3.023438 18.90625 8.71875 25.859375 16.46875zm0 0" fill="#f5f5f5"/><path d="m170.335938 89.769531c-59.394532 11.863281-69.035157 21.503907-80.898438 80.898438-2.335938-13.507813-5.9375-26.761719-10.75-39.59375 9.042969-31.234375 21.589844-41.644531 56.746094-50.179688 11.425781 3.726563 23.082031 6.691407 34.902344 8.875zm0 0" fill="#cfd8dc"/><path d="m135.433594 80.894531c-35.15625 8.535157-47.703125 18.945313-56.746094 50.179688-4.609375-12.746094-14.140625-23.105469-26.453125-28.757813-6.953125-7.75-15.894531-13.445312-25.859375-16.46875 35.160156-8.535156 47.703125-18.945312 56.75-50.179687 2.21875-7.59375 4.265625-16.46875 6.3125-26.792969 5.546875 27.390625 10.410156 44.203125 20.140625 55.550781 6.949219 7.75 15.894531 13.445313 25.855469 16.46875zm0 0" fill="#f5f5f5"/><path d="m153.265625 76.972656c-6.570313 1.277344-12.457031 2.558594-17.832031 3.921875-9.960938-3.023437-18.90625-8.71875-25.855469-16.46875 13.996094 5.945313 28.667969 10.15625 43.6875 12.546875zm0 0" fill="#f5f5f5"/><path d="m179.207031 200.535156c0 25.917969-21.011719 46.933594-46.929687 46.933594-25.921875 0-46.933594-21.015625-46.933594-46.933594 0-25.921875 21.011719-46.933594 46.933594-46.933594 25.917968 0 46.929687 21.011719 46.929687 46.933594zm0 0" fill="#00bcd4"/><path d="m396.519531 241.152344-18.628906-11.988282c-1.183594-.761718-2.664063-.894531-3.960937-.351562l-20.480469 8.535156c-1.496094.625-3.21875.34375-4.445313-.722656-1.222656-1.066406-1.734375-2.734375-1.320312-4.304688l5.640625-21.417968c.367187-1.355469.050781-2.800782-.855469-3.875l-14.4375-16.734375c-1.058594-1.230469-1.324219-2.957031-.691406-4.449219.636718-1.496094 2.066406-2.5 3.6875-2.589844l22.117187-1.253906c1.40625-.078125 2.679688-.839844 3.414063-2.039062l11.476562-18.96875c.84375-1.386719 2.398438-2.175782 4.015625-2.035157 1.617188.140625 3.015625 1.1875 3.605469 2.699219l8.03125 20.648438c.503906 1.3125 1.625 2.289062 2.992188 2.613281l21.554687 5.121093c1.582031.375 2.808594 1.613282 3.171875 3.199219.363281 1.582031-.203125 3.230469-1.464844 4.257813l-17.160156 13.984375c-1.085938.890625-1.667969 2.253906-1.550781 3.652343l1.816406 22.085938c.121094 1.605469-.671875 3.144531-2.050781 3.976562-1.382813.832032-3.113282.816407-4.476563-.042968zm0 0" fill="#283593"/><path d="m297.601562 157.464844-15.558593-7.882813c-1.253907-.636719-2.742188-.617187-3.976563.058594l-15.359375 8.355469c-1.421875.75-3.144531.636718-4.453125-.292969-1.3125-.925781-1.992187-2.511719-1.757812-4.101563l2.6875-17.238281c.214844-1.386719-.261719-2.789062-1.28125-3.753906l-12.679688-11.949219c-1.210937-1.109375-1.675781-2.820312-1.195312-4.390625.480468-1.574219 1.820312-2.730469 3.449218-2.972656l17.226563-2.765625c1.386719-.222656 2.574219-1.117188 3.175781-2.386719l7.484375-15.753906c.6875-1.484375 2.164063-2.441406 3.800781-2.46875 1.636719-.023437 3.144532.886719 3.878907 2.347656l7.960937 15.523438c.640625 1.25 1.851563 2.105469 3.242188 2.289062l17.304687 2.242188c1.613281.207031 2.96875 1.316406 3.492188 2.851562.527343 1.539063.132812 3.242188-1.015625 4.394531l-12.304688 12.363282c-.988281.996094-1.425781 2.410156-1.167968 3.789062l3.207031 17.152344c.308593 1.609375-.328125 3.25-1.640625 4.226562-1.3125.980469-3.070313 1.121094-4.519532.363282zm0 0" fill="#ffeb3a"/><path d="m282.855469 319.042969-21.617188-16.382813c-1.117187-.851562-2.582031-1.09375-3.914062-.65625l-25.753907 8.53125c-1.542968.511719-3.238281.101563-4.378906-1.058594-1.140625-1.15625-1.523437-2.859374-.988281-4.390624l8.90625-25.601563c.460937-1.328125.238281-2.796875-.597656-3.925781l-16.050781-21.894532c-.980469-1.3125-1.128907-3.066406-.378907-4.519531.75-1.457031 2.269531-2.351562 3.90625-2.308593l27.117188.632812c1.402343.027344 2.730469-.636719 3.550781-1.777344l15.828125-22.03125c.949219-1.320312 2.5625-1.988281 4.167969-1.722656 1.601562.265625 2.914062 1.417969 3.382812 2.976562l7.851563 25.964844c.410156 1.34375 1.453125 2.402344 2.789062 2.824219l25.839844 8.253906c1.550781.492188 2.683594 1.820313 2.925781 3.429688.242188 1.605469-.445312 3.210937-1.78125 4.140625l-22.273437 15.488281c-1.148438.800781-1.832031 2.117187-1.824219 3.523437l.144531 27.125c-.003906 1.621094-.925781 3.097657-2.378906 3.8125-1.453125.71875-3.183594.550782-4.472656-.433593zm0 0" fill="#9d27b0"/><path d="m256.007812 0c-52.800781-.109375-103.742187 19.480469-142.863281 54.9375-6.828125-10.144531-10.753906-24.746094-15.359375-47.734375-.808594-3.976563-4.304687-6.835937-8.363281-6.835937s-7.554687 2.859374-8.363281 6.835937c-11.195313 56.054687-18.132813 62.992187-74.222656 74.207031-3.976563.804688-6.835938 4.300782-6.835938 8.359375 0 4.058594 2.859375 7.558594 6.835938 8.363281 30.71875 6.152344 46.675781 11.09375 56.679687 23.460938-13.8125 28.605469-20.9375 59.976562-20.839844 91.738281-.121093 49.992188 17.445313 98.410157 49.585938 136.695313-16.839844.730468-30.601563 13.695312-32.335938 30.460937s9.082031 32.273438 25.417969 36.433594v26.8125c-18.851562 0-34.136719 15.28125-34.136719 34.132813 0 18.851562 15.285157 34.132812 34.136719 34.132812h341.332031c18.851563 0 34.132813-15.28125 34.132813-34.132812 0-18.851563-15.28125-34.132813-34.132813-34.132813v-26.8125c16.335938-4.160156 27.152344-19.667969 25.417969-36.433594s-15.496094-29.730469-32.339844-30.460937c53.054688-63.566406 64.535156-152.09375 29.449219-227.089844-35.082031-75-110.394531-122.921875-193.195313-122.9375zm-212.375 89.769531c22.519532-5.699219 40.105469-23.285156 45.804688-45.804687 3.160156 10.953125 8.886719 20.996094 16.699219 29.292968 0 0 .050781.09375.085937.136719s.222656.121094.316406.214844c8.203126 7.515625 18.023438 13.046875 28.707032 16.160156-22.523438 5.703125-40.105469 23.289063-45.808594 45.808594-2.222656-6.894531-5.285156-13.484375-9.121094-19.625-.15625-.277344-.332031-.546875-.519531-.804687-8.652344-12.492188-21.472656-21.492188-36.164063-25.378907zm29.863282 51.578125c3.125 10.1875 5.65625 20.546875 7.578125 31.027344.808593 3.976562 4.304687 6.835938 8.363281 6.835938s7.554688-2.859376 8.363281-6.835938c11.210938-56.058594 18.152344-62.996094 74.238281-74.242188 3.980469-.804687 6.835938-4.304687 6.835938-8.363281 0-4.058593-2.855469-7.554687-6.835938-8.359375-16.167968-2.167968-31.851562-7.054687-46.394531-14.449218 78.800781-70.066407 198.894531-65.292969 271.886719 10.804687 72.988281 76.101563 72.75 196.292969-.542969 272.101563h-281.957031c-53.632812-55.300782-69.886719-136.890626-41.542969-208.519532zm370.246094 336.519532c0 9.425781-7.640626 17.066406-17.066407 17.066406h-341.332031c-9.425781 0-17.066406-7.640625-17.066406-17.066406 0-9.425782 7.640625-17.066407 17.066406-17.066407h341.332031c9.425781 0 17.066407 7.640625 17.066407 17.066407zm-341.332032-34.132813v-25.601563h307.199219v25.601563zm332.796875-59.734375c0 9.425781-7.640625 17.066406-17.066406 17.066406h-324.265625c-9.425781 0-17.066406-7.640625-17.066406-17.066406s7.640625-17.066406 17.066406-17.066406h324.265625c9.425781 0 17.066406 7.640625 17.066406 17.066406zm0 0"/><path d="m256.007812 51.199219c61.265626-.121094 117.332032 34.417969 144.777344 89.191406 1.292969 2.859375 4.046875 4.777344 7.175782 5 3.125.21875 6.125-1.292969 7.804687-3.941406 1.679687-2.644531 1.773437-6 .242187-8.738281-30.328124-60.539063-92.289062-98.714844-160-98.578126-4.710937 0-8.53125 3.820313-8.53125 8.535157 0 4.710937 3.820313 8.53125 8.53125 8.53125zm0 0"/><path d="m132.277344 256c4.054687 0 7.550781-2.851562 8.359375-6.828125 6.214843-31.015625 9.226562-34.027344 40.246093-40.242187 3.976563-.808594 6.832032-4.304688 6.832032-8.363282s-2.855469-7.554687-6.832032-8.359375c-31.019531-6.214843-34.03125-9.226562-40.246093-40.246093-.804688-3.976563-4.304688-6.835938-8.359375-6.835938-4.058594 0-7.558594 2.859375-8.363282 6.835938-6.214843 31.019531-9.226562 34.03125-40.246093 40.246093-3.976563.804688-6.832031 4.300781-6.832031 8.359375s2.855468 7.554688 6.832031 8.363282c31.019531 6.214843 34.03125 9.226562 40.246093 40.242187.808594 3.976563 4.304688 6.828125 8.363282 6.828125zm0-72.53125c3.523437 7.5 9.5625 13.539062 17.066406 17.066406-7.503906 3.527344-13.542969 9.5625-17.066406 17.066406-3.527344-7.503906-9.566406-13.539062-17.070313-17.066406 7.503907-3.527344 13.542969-9.566406 17.070313-17.066406zm0 0"/><path d="m390.511719 150.511719c-1.175781-3.03125-3.96875-5.128907-7.207031-5.417969-3.234376-.285156-6.355469 1.292969-8.042969 4.070312l-14.839844 24.40625-28.5 1.601563c-3.242187.1875-6.097656 2.199219-7.363281 5.1875-1.269532 2.992187-.730469 6.441406 1.390625 8.902344l18.617187 21.648437-7.277344 27.613282c-.828124 3.140624.203126 6.480468 2.652344 8.609374 2.449219 2.132813 5.898438 2.6875 8.894532 1.433594l26.339843-11.015625 24.023438 15.453125c2.730469 1.753906 6.214843 1.808594 9 .136719 2.78125-1.667969 4.375-4.769531 4.113281-8.003906l-2.335938-28.464844 22.117188-18.058594c2.519531-2.050781 3.652344-5.351562 2.929688-8.519531-.726563-3.164062-3.183594-5.644531-6.34375-6.394531l-27.785157-6.574219zm5.171875 55.78125c-2.175782 1.777343-3.335938 4.507812-3.105469 7.304687l1.285156 15.703125-13.242187-8.535156c-1.375-.886719-2.980469-1.355469-4.617188-1.355469-1.132812-.003906-2.25.222656-3.292968.664063l-14.507813 6.066406 4.011719-15.230469c.714844-2.710937.050781-5.601562-1.773438-7.730468l-10.242187-11.945313 15.726562-.855469c2.8125-.152344 5.367188-1.683594 6.828125-4.085937l8.183594-13.457031 5.707031 14.683593c1.015625 2.613281 3.246094 4.5625 5.972657 5.214844l15.363281 3.617187zm0 0"/><path d="m250.410156 137.25-3.675781 23.570312c-.5 3.207032.863281 6.417969 3.519531 8.289063 2.652344 1.867187 6.136719 2.066406 8.988282.515625l20.941406-11.417969 21.28125 10.753907c2.898437 1.464843 6.375 1.15625 8.972656-.792969 2.59375-1.945313 3.859375-5.199219 3.265625-8.390625l-4.386719-23.449219 16.820313-16.859375c2.304687-2.300781 3.101562-5.714844 2.050781-8.796875-1.054688-3.085937-3.769531-5.300781-7-5.710937l-23.648438-3.074219-10.878906-21.203125c-1.449218-2.921875-4.464844-4.734375-7.722656-4.644532-3.246094.050782-6.183594 1.941407-7.578125 4.875l-10.238281 21.546876-23.554688 3.789062c-3.203125.515625-5.839844 2.808594-6.796875 5.910156-.957031 3.105469-.066406 6.484375 2.292969 8.714844zm17.859375-18.636719c2.777344-.445312 5.15625-2.230469 6.359375-4.769531l4.726563-9.976562 5.042969 9.832031c1.28125 2.5 3.710937 4.210937 6.496093 4.574219l10.945313 1.414062-7.789063 7.828125c-1.980469 1.992187-2.851562 4.832031-2.328125 7.59375l2.027344 10.863281-9.855469-4.992187c-2.503906-1.269531-5.476562-1.226563-7.941406.117187l-9.695313 5.285156 1.707032-10.90625c.433594-2.777343-.523438-5.585937-2.5625-7.519531l-8.027344-7.585937zm0 0"/><path d="m226.3125 278.765625-11.007812 31.660156c-1.066407 3.066407-.300782 6.472657 1.980468 8.789063 2.277344 2.3125 5.671875 3.136718 8.753906 2.117187l31.839844-10.523437 26.714844 20.285156c1.480469 1.109375 3.273438 1.707031 5.121094 1.707031 2.269531 0 4.449218-.90625 6.050781-2.515625s2.496094-3.789062 2.484375-6.0625l-.171875-33.527344 27.511719-19.148437c2.667968-1.851563 4.050781-5.0625 3.570312-8.277344-.484375-3.210937-2.753906-5.871093-5.847656-6.859375l-31.941406-10.1875-9.675782-32.09375c-.941406-3.109375-3.566406-5.414062-6.769531-5.945312-3.203125-.535156-6.429687.796875-8.328125 3.433594l-19.566406 27.222656-33.511719-.683594c-3.242187-.039062-6.234375 1.734375-7.753906 4.601562-1.496094 2.882813-1.226563 6.367188.699219 8.984376zm24.859375-22.765625c2.800781.023438 5.445313-1.300781 7.105469-3.558594l12.09375-16.828125 5.972656 19.839844c.8125 2.6875 2.898438 4.804687 5.570312 5.660156l19.75 6.296875-17.015624 11.84375c-2.304688 1.605469-3.671876 4.242188-3.652344 7.046875l.101562 20.71875-16.511718-12.515625c-2.238282-1.699218-5.167969-2.1875-7.835938-1.304687l-19.675781 6.507812 6.824219-19.574219c.921874-2.652343.476562-5.589843-1.183594-7.851562l-12.261719-16.707031zm0 0"/></svg>