<?xml version="1.0" encoding="iso-8859-1"?>
<!-- Generator: Adobe Illustrator 19.1.0, SVG Export Plug-In . SVG Version: 6.00 Build 0)  -->
<svg version="1.1" id="Capa_1" xmlns="http://www.w3.org/2000/svg" xmlns:xlink="http://www.w3.org/1999/xlink" x="0px" y="0px"
	 viewBox="0 0 454.11 454.11" style="enable-background:new 0 0 454.11 454.11;" xml:space="preserve">
<g>
	<path style="fill:#EA5F2F;" d="M303.58,272.069l-4.43-1.17c-1.9-0.5-3.79-0.74-5.65-0.74c-11,0-20.74,8.31-21.9,19.83
		c-0.01-0.01-0.01-0.02-0.02-0.02v0.24c0.01-0.07,0.01-0.15,0.02-0.22c3.23,2.04,7.05,3.23,11.15,3.23
		c11.51,0,20.84-9.33,20.84-20.84c0-0.1,0-0.19-0.01-0.29V272.069z M150.5,272.089c-0.01,0.1-0.01,0.19-0.01,0.29
		c0,11.51,9.33,20.84,20.84,20.84c4.11,0,7.94-1.19,11.17-3.25c-1.36-13.44-14.43-22.52-27.54-19.06L150.5,272.089z M227.05,425.359
		c8.36,0,16.09-4.46,20.27-11.7l0.43-0.75c1.64-2.84,2.45-6,2.45-9.14c0-4.14-1.4-8.25-4.15-11.59c-3.47-4.23-8.66-6.68-14.13-6.68
		h-9.73c-2.73,0-5.4,0.61-7.81,1.75c-2.42,1.14-4.58,2.82-6.32,4.93c-4.83,5.88-5.5,14.14-1.7,20.73l0.43,0.75
		c2.09,3.62,5.07,6.55,8.57,8.57C218.86,424.249,222.88,425.359,227.05,425.359z M167.11,393.009l-1.11,0.24c-41-53-94,4-160-39
		c26-14,43-57,43-57s-13-13-26-7c10-31,49-40,60-64c-14,12-41,4-41,4s20.12,0,37.25-36.81c1.97-4.23,3.9-8.94,5.75-14.19
		c11.93-33.79,40.1-46.95,57.75-51.98c5.73-14.08,2.15-30.7-9.78-41.13l-68.29-59.7c7.69-12.43,25.07-15.45,36.51-5.44l74.51,65.14
		c1.93,1.68,3.64,3.53,5.12,5.5h24.35v1.57l21.88,21.89l-21.88,21.89l21.88,21.88l-38.18,38.19l-27.81-27.82l-27.82,27.82
		l-15.7-15.71l-15.71,15.71l15.71,15.7l15.7-15.7l27.82,27.81l27.81-27.81l38.18,38.18l-21.88,21.89l21.88,21.89l-9.33,17.11
		l9.33,15.13l-20.04,20.04l20.04,20.04l20.05-20.04l-20.05-20.04l9.34-15.13l-9.34-17.11l21.89-21.89l-21.89-21.89l38.19-38.18
		l27.81,27.81l27.82-27.81l15.7,15.7l15.71-15.7l-15.71-15.71l-15.7,15.71l-27.82-27.82l-27.81,27.82l-38.19-38.19l21.89-21.88
		l-21.89-21.89l21.89-21.89v-1.57h24.35c1.48-1.97,3.19-3.82,5.12-5.5l74.51-65.14c11.44-10,28.82-6.99,36.5,5.43l-0.62,0.01
		l-68.29,59.7c-11.87,10.38-15.48,26.89-9.86,40.93c17.6,4.88,46.37,17.93,58.46,52.18c1.85,5.25,3.78,9.96,5.75,14.19
		c17.13,36.81,37.25,36.81,37.25,36.81s-27,8-41-4c11,24,50,33,60,64c-13-6-26,7-26,7s17,43,43,57c-66,43-119-14-160,39l-1.11-0.24
		c-0.77,3.5-1.4,7.24-1.89,11.24c-3.48,28.67-29.61,35.83-58.06,34.75c-28.44,1.08-54.57-6.08-58.05-34.75
		C168.51,400.249,167.88,396.509,167.11,393.009z M360.72,286.249l15.71-15.71l-15.71-15.71l-15.7,15.71L360.72,286.249z
		 M328.11,171.099c4.49-4.49,3.86-12.4-1.42-17.67c-5.27-5.28-13.18-5.91-17.67-1.42c-4.49,4.49-3.86,12.41,1.41,17.68
		C315.7,174.959,323.62,175.599,328.11,171.099z M326.69,240.689c5.28-5.27,5.91-13.19,1.42-17.68c-4.49-4.49-12.41-3.86-17.68,1.41
		c-5.27,5.28-5.9,13.19-1.41,17.68C313.51,246.589,321.42,245.959,326.69,240.689z M325.72,288.239c0-1.31-0.53-2.6-1.46-3.53
		c-0.93-0.93-2.22-1.46-3.54-1.46s-2.61,0.53-3.53,1.46c-0.93,0.93-1.47,2.22-1.47,3.53c0,1.32,0.54,2.61,1.47,3.54
		c0.92,0.93,2.21,1.46,3.53,1.46s2.61-0.53,3.54-1.46C325.19,290.849,325.72,289.559,325.72,288.239z M314.56,300.909
		c0-1.71-0.7-3.38-1.91-4.59c-1.21-1.21-2.88-1.91-4.6-1.91c-1.71,0-3.38,0.7-4.59,1.91c-1.21,1.2-1.91,2.88-1.91,4.59
		s0.7,3.39,1.91,4.6c1.21,1.21,2.88,1.9,4.59,1.9c1.72,0,3.39-0.69,4.6-1.9C313.86,304.299,314.56,302.619,314.56,300.909z
		 M299.39,310.909c0-2.1-0.86-4.17-2.35-5.66c-1.48-1.48-3.55-2.34-5.65-2.34c-2.11,0-4.17,0.86-5.66,2.34
		c-1.49,1.49-2.34,3.56-2.34,5.66c0,2.11,0.85,4.17,2.34,5.66c1.49,1.49,3.55,2.34,5.66,2.34c2.1,0,4.17-0.85,5.65-2.34
		C298.53,315.079,299.39,313.019,299.39,310.909z M280.94,158.289l-15.7-15.71l-15.71,15.71l15.71,15.7L280.94,158.289z
		 M265.24,251.239l15.7-15.71l-15.7-15.7l-15.71,15.7L265.24,251.239z M227.05,382.119l15.13-15.13l-15.13-15.13l-15.12,15.13
		L227.05,382.119z M188.87,251.239l15.71-15.71l-15.71-15.7l-15.7,15.7L188.87,251.239z M188.87,173.989l15.71-15.7l-15.71-15.71
		l-15.7,15.71L188.87,173.989z M170.72,310.909c0-2.1-0.85-4.16-2.34-5.65c-1.49-1.49-3.55-2.35-5.66-2.35
		c-2.1,0-4.16,0.86-5.65,2.35c-1.49,1.49-2.35,3.55-2.35,5.65c0,2.11,0.86,4.17,2.35,5.66c1.48,1.49,3.55,2.34,5.65,2.34
		c2.11,0,4.17-0.85,5.66-2.34C169.87,315.079,170.72,313.019,170.72,310.909z M152.55,300.909c0-1.71-0.69-3.38-1.9-4.59
		c-1.21-1.21-2.89-1.91-4.6-1.91c-1.71,0-3.38,0.7-4.59,1.91c-1.21,1.2-1.91,2.88-1.91,4.59s0.7,3.39,1.91,4.6
		c1.21,1.21,2.88,1.9,4.59,1.9c1.71,0,3.39-0.69,4.6-1.9C151.86,304.299,152.55,302.619,152.55,300.909z M143.68,169.689
		c5.27-5.27,5.9-13.19,1.41-17.68c-4.49-4.49-12.4-3.86-17.67,1.42c-5.28,5.27-5.91,13.18-1.42,17.67
		C130.49,175.599,138.41,174.959,143.68,169.689z M145.09,242.099c4.49-4.49,3.86-12.4-1.41-17.68c-5.27-5.27-13.19-5.9-17.68-1.41
		c-4.49,4.49-3.86,12.41,1.42,17.68C132.69,245.959,140.6,246.589,145.09,242.099z M138.39,288.249c0-1.32-0.54-2.61-1.47-3.54
		c-0.93-0.93-2.22-1.46-3.53-1.46c-1.32,0-2.61,0.53-3.54,1.46c-0.93,0.93-1.46,2.22-1.46,3.54c0,1.31,0.53,2.6,1.46,3.53
		c0.93,0.93,2.22,1.47,3.54,1.47c1.32,0,2.6-0.54,3.53-1.47C137.85,290.849,138.39,289.559,138.39,288.249z M109.09,270.539
		l-15.7-15.71l-15.71,15.71l15.71,15.71L109.09,270.539z"/>
	<path style="fill:#F9CD16;" d="M399.1,48.599c19.7,46.55,12.08,100.17-19.81,139.39l-4.43,5.45c-1.97-4.23-3.9-8.94-5.75-14.19
		c-12.09-34.25-40.86-47.3-58.46-52.18c-5.62-14.04-2.01-30.55,9.86-40.93l68.29-59.7l0.62-0.01c0.65,1.06,1.23,2.18,1.73,3.36
		L399.1,48.599z"/>
	<polygon style="fill:#F9CD16;" points="376.43,270.539 360.72,286.249 345.02,270.539 360.72,254.829 	"/>
	<polygon style="fill:#52CE7F;" points="352.28,197.059 336.57,212.759 320.87,197.059 336.57,181.349 	"/>
	<path style="fill:#5484EF;" d="M326.69,153.429c5.28,5.27,5.91,13.18,1.42,17.67c-4.49,4.5-12.41,3.86-17.68-1.41
		c-5.27-5.27-5.9-13.19-1.41-17.68C313.51,147.519,321.42,148.149,326.69,153.429z"/>
	<path style="fill:#5484EF;" d="M328.11,223.009c4.49,4.49,3.86,12.41-1.42,17.68c-5.27,5.27-13.18,5.9-17.67,1.41
		c-4.49-4.49-3.86-12.4,1.41-17.68C315.7,219.149,323.62,218.519,328.11,223.009z"/>
	<path style="fill:#F9CD16;" d="M324.26,284.709c0.93,0.93,1.46,2.22,1.46,3.53c0,1.32-0.53,2.61-1.46,3.54
		c-0.93,0.93-2.22,1.46-3.54,1.46s-2.61-0.53-3.53-1.46c-0.93-0.93-1.47-2.22-1.47-3.54c0-1.31,0.54-2.6,1.47-3.53
		c0.92-0.93,2.21-1.46,3.53-1.46S323.33,283.779,324.26,284.709z"/>
	<polygon style="fill:#F9CD16;" points="320.87,197.059 293.05,224.869 265.24,197.059 293.05,169.239 	"/>
	<path style="fill:#F9CD16;" d="M312.65,296.319c1.21,1.21,1.91,2.88,1.91,4.59s-0.7,3.39-1.91,4.6c-1.21,1.21-2.88,1.9-4.6,1.9
		c-1.71,0-3.38-0.69-4.59-1.9c-1.21-1.21-1.91-2.89-1.91-4.6s0.7-3.39,1.91-4.59c1.21-1.21,2.88-1.91,4.59-1.91
		C309.77,294.409,311.44,295.109,312.65,296.319z"/>
	<path style="fill:#F9CD16;" d="M303.58,272.089c0.01,0.1,0.01,0.19,0.01,0.29c0,11.51-9.33,20.84-20.84,20.84
		c-4.1,0-7.92-1.19-11.15-3.23c1.16-11.52,10.9-19.83,21.9-19.83c1.86,0,3.75,0.24,5.65,0.74l4.43,1.17V272.089z"/>
	<path style="fill:#F9CD16;" d="M297.04,305.249c1.49,1.49,2.35,3.56,2.35,5.66c0,2.11-0.86,4.17-2.35,5.66
		c-1.48,1.49-3.55,2.34-5.65,2.34c-2.11,0-4.17-0.85-5.66-2.34c-1.49-1.49-2.34-3.55-2.34-5.66c0-2.1,0.85-4.17,2.34-5.66
		c1.49-1.48,3.55-2.34,5.66-2.34C293.49,302.909,295.56,303.769,297.04,305.249z"/>
	<polygon style="fill:#5484EF;" points="265.24,142.579 280.94,158.289 265.24,173.989 249.53,158.289 	"/>
	<polygon style="fill:#52CE7F;" points="280.94,235.529 265.24,251.239 249.53,235.529 265.24,219.829 	"/>
	<path style="fill:#52CE7F;" d="M265.24,197.059l-38.19,38.18l-38.18-38.18l38.18-38.19L265.24,197.059z M227.05,211.109
		l14.06-14.05l-14.06-14.06L213,197.059L227.05,211.109z"/>
	<polygon style="fill:#52CE7F;" points="248.94,91.639 248.94,93.209 227.05,115.099 205.17,93.209 205.17,91.639 227.05,91.639 	
		"/>
	<polygon style="fill:#F9CD16;" points="248.94,257.129 227.05,279.019 205.17,257.129 227.05,235.239 	"/>
	<polygon style="fill:#F9CD16;" points="248.94,136.989 227.05,158.869 205.17,136.989 227.05,115.099 	"/>
	<path style="fill:#964502;" d="M250.2,403.769c0,3.14-0.81,6.3-2.45,9.14l-0.43,0.75c-4.18,7.24-11.91,11.7-20.27,11.7
		c-4.17,0-8.19-1.11-11.69-3.13c-3.5-2.02-6.48-4.95-8.57-8.57l-0.43-0.75c-3.8-6.59-3.13-14.85,1.7-20.73
		c1.74-2.11,3.9-3.79,6.32-4.93c2.41-1.14,5.08-1.75,7.81-1.75h9.73c5.47,0,10.66,2.45,14.13,6.68
		C248.8,395.519,250.2,399.629,250.2,403.769z"/>
	<polygon style="fill:#F9CD16;" points="247.1,331.299 227.05,351.339 207.01,331.299 227.05,311.259 	"/>
	<polygon style="fill:#52CE7F;" points="242.18,366.989 227.05,382.119 211.93,366.989 227.05,351.859 	"/>
	<polygon style="fill:#5484EF;" points="241.11,197.059 227.05,211.109 213,197.059 227.05,182.999 	"/>
	<polygon style="fill:#52CE7F;" points="227.05,279.019 236.39,296.129 227.05,311.259 217.72,296.129 	"/>
	<polygon style="fill:#52CE7F;" points="204.58,235.529 188.87,251.239 173.17,235.529 188.87,219.829 	"/>
	<polygon style="fill:#5484EF;" points="204.58,158.289 188.87,173.989 173.17,158.289 188.87,142.579 	"/>
	<polygon style="fill:#F9CD16;" points="161.06,169.239 188.87,197.059 161.06,224.869 133.24,197.059 	"/>
	<path style="fill:#F9CD16;" d="M182.5,289.969c-3.23,2.06-7.06,3.25-11.17,3.25c-11.51,0-20.84-9.33-20.84-20.84
		c0-0.1,0-0.19,0.01-0.29l4.46-1.18C168.07,267.449,181.14,276.529,182.5,289.969z"/>
	<path style="fill:#F9CD16;" d="M168.38,305.259c1.49,1.49,2.34,3.55,2.34,5.65c0,2.11-0.85,4.17-2.34,5.66
		c-1.49,1.49-3.55,2.34-5.66,2.34c-2.1,0-4.17-0.85-5.65-2.34c-1.49-1.49-2.35-3.55-2.35-5.66c0-2.1,0.86-4.16,2.35-5.65
		c1.49-1.49,3.55-2.35,5.65-2.35C164.83,302.909,166.89,303.769,168.38,305.259z"/>
	<path style="fill:#F9CD16;" d="M150.65,296.319c1.21,1.21,1.9,2.88,1.9,4.59s-0.69,3.39-1.9,4.6c-1.21,1.21-2.89,1.9-4.6,1.9
		c-1.71,0-3.38-0.69-4.59-1.9c-1.21-1.21-1.91-2.89-1.91-4.6s0.7-3.39,1.91-4.59c1.21-1.21,2.88-1.91,4.59-1.91
		C147.76,294.409,149.44,295.109,150.65,296.319z"/>
	<path style="fill:#5484EF;" d="M145.09,152.009c4.49,4.49,3.86,12.41-1.41,17.68c-5.27,5.27-13.19,5.91-17.68,1.41
		c-4.49-4.49-3.86-12.4,1.42-17.67C132.69,148.149,140.6,147.519,145.09,152.009z"/>
	<path style="fill:#5484EF;" d="M143.68,224.419c5.27,5.28,5.9,13.19,1.41,17.68c-4.49,4.49-12.4,3.86-17.67-1.41
		c-5.28-5.27-5.91-13.19-1.42-17.68C130.49,218.519,138.41,219.149,143.68,224.419z"/>
	<path style="fill:#F9CD16;" d="M132.97,86.139c11.93,10.43,15.51,27.05,9.78,41.13c-17.65,5.03-45.82,18.19-57.75,51.98
		c-1.85,5.25-3.78,9.96-5.75,14.19l-4.43-5.45c-31.89-39.22-39.51-92.84-19.81-139.39l7.95-18.81c0.5-1.18,1.08-2.3,1.72-3.35
		L132.97,86.139z"/>
	<path style="fill:#F9CD16;" d="M136.92,284.709c0.93,0.93,1.47,2.22,1.47,3.54c0,1.31-0.54,2.6-1.47,3.53
		c-0.93,0.93-2.21,1.47-3.53,1.47c-1.32,0-2.61-0.54-3.54-1.47c-0.93-0.93-1.46-2.22-1.46-3.53c0-1.32,0.53-2.61,1.46-3.54
		c0.93-0.93,2.22-1.46,3.54-1.46C134.7,283.249,135.99,283.779,136.92,284.709z"/>
	<polygon style="fill:#52CE7F;" points="117.54,181.349 133.24,197.059 117.54,212.759 101.83,197.059 	"/>
	<polygon style="fill:#F9CD16;" points="93.39,254.829 109.09,270.539 93.39,286.249 77.68,270.539 	"/>
	<path style="fill:none;stroke:#333333;stroke-width:12;stroke-linecap:round;stroke-linejoin:round;stroke-miterlimit:10;" d="
		M158,124.249c0,0-6.26,0.46-15.25,3.02c-17.65,5.03-45.82,18.19-57.75,51.98c-1.85,5.25-3.78,9.96-5.75,14.19
		C62.12,230.249,42,230.249,42,230.249s27,8,41-4c-11,24-50,33-60,64c13-6,26,7,26,7s-17,43-43,57c66,43,119-14,160,39"/>
	<path style="fill:none;stroke:#333333;stroke-width:12;stroke-linecap:round;stroke-linejoin:round;stroke-miterlimit:10;" d="
		M79.25,193.439l-4.43-5.45c-31.89-39.22-39.51-92.84-19.81-139.39l7.95-18.81c0.5-1.18,1.08-2.3,1.72-3.35
		c7.69-12.43,25.07-15.45,36.51-5.44l74.51,65.14c1.93,1.68,3.64,3.53,5.12,5.5c5.4,7.15,7.87,15.94,7.24,24.61"/>
	<path style="fill:none;stroke:#333333;stroke-width:8;stroke-linecap:round;stroke-linejoin:round;stroke-miterlimit:10;" d="
		M64.68,26.439l68.29,59.7c11.93,10.43,15.51,27.05,9.78,41.13"/>
	<path style="fill:none;stroke:#333333;stroke-width:8;stroke-linecap:round;stroke-linejoin:round;stroke-miterlimit:10;" d="
		M310.73,127.269c-0.03-0.07-0.05-0.13-0.08-0.2c-5.62-14.04-2.01-30.55,9.86-40.93l68.29-59.7"/>
	<path style="fill:none;stroke:#333333;stroke-width:12;stroke-linecap:round;stroke-linejoin:round;stroke-miterlimit:10;" d="
		M296.11,124.249c0,0,5.94,0.43,14.54,2.82c17.6,4.88,46.37,17.93,58.46,52.18c1.85,5.25,3.78,9.96,5.75,14.19
		c17.13,36.81,37.25,36.81,37.25,36.81s-27,8-41-4c11,24,50,33,60,64c-13-6-26,7-26,7s17,43,43,57c-66,43-119-14-160,39"/>
	<path style="fill:none;stroke:#333333;stroke-width:12;stroke-linecap:round;stroke-linejoin:round;stroke-miterlimit:10;" d="
		M367.11,301.249c0,0,5,20-10,31c-14.09,10.33-58.18,6.55-70.11,60.76c-0.77,3.5-1.4,7.24-1.89,11.24
		c-3.48,28.67-29.61,35.83-58.06,34.75c-28.44,1.08-54.57-6.08-58.05-34.75c-0.49-4-1.12-7.74-1.89-11.24
		c-11.93-54.21-56.02-50.43-70.11-60.76c-15-11-10-31-10-31"/>
	<path style="fill:none;stroke:#333333;stroke-width:12;stroke-linecap:round;stroke-linejoin:round;stroke-miterlimit:10;" d="
		M266.05,116.249c-0.63-8.67,1.84-17.46,7.24-24.61c1.48-1.97,3.19-3.82,5.12-5.5l74.51-65.14c11.44-10,28.82-6.99,36.5,5.43
		c0.65,1.06,1.23,2.18,1.73,3.36l7.95,18.81c19.7,46.55,12.08,100.17-19.81,139.39l-4.43,5.45"/>
	
		<polyline style="fill:none;stroke:#333333;stroke-width:12;stroke-linecap:round;stroke-linejoin:round;stroke-miterlimit:10;" points="
		273.29,91.639 248.94,91.639 227.05,91.639 205.17,91.639 180.82,91.639 	"/>
	<path style="fill:none;stroke:#333333;stroke-width:8;stroke-linecap:round;stroke-linejoin:round;stroke-miterlimit:10;" d="
		M172.17,353.249l5.77-28.25c1.04-5.07,3-9.85,5.75-14.14c2.74-4.28,6.27-8.06,10.44-11.12c6.21-4.55,10.95-10.66,13.83-17.58"/>
	<path style="fill:none;stroke:#333333;stroke-width:8;stroke-linecap:round;stroke-linejoin:round;stroke-miterlimit:10;" d="
		M246.15,282.159c2.88,6.92,7.62,13.03,13.83,17.58c4.17,3.06,7.7,6.84,10.44,11.12c2.75,4.29,4.71,9.07,5.75,14.14l5.77,28.25"/>
	<path style="fill:none;stroke:#333333;stroke-width:8;stroke-linejoin:round;stroke-miterlimit:10;" d="M206.79,413.659l-0.43-0.75
		c-3.8-6.59-3.13-14.85,1.7-20.73c1.74-2.11,3.9-3.79,6.32-4.93c2.41-1.14,5.08-1.75,7.81-1.75h9.73c5.47,0,10.66,2.45,14.13,6.68
		c2.75,3.34,4.15,7.45,4.15,11.59c0,3.14-0.81,6.3-2.45,9.14l-0.43,0.75c-4.18,7.24-11.91,11.7-20.27,11.7
		c-4.17,0-8.19-1.11-11.69-3.13C211.86,420.209,208.88,417.279,206.79,413.659z"/>
	<path style="fill:none;stroke:#333333;stroke-width:8;stroke-linecap:round;stroke-linejoin:round;stroke-miterlimit:10;" d="
		M150.5,272.089l-6.12,1.61c-9.61,2.54-19.5-2.97-22.39-12.48l-1.82-5.97"/>
	<path style="fill:none;stroke:#333333;stroke-width:8;stroke-linecap:round;stroke-linejoin:round;stroke-miterlimit:10;" d="
		M150.5,272.089c-0.01,0.1-0.01,0.19-0.01,0.29c0,11.51,9.33,20.84,20.84,20.84c4.11,0,7.94-1.19,11.17-3.25
		c-1.36-13.44-14.43-22.52-27.54-19.06L150.5,272.089z"/>
	<path style="fill:none;stroke:#333333;stroke-width:8;stroke-linecap:round;stroke-linejoin:round;stroke-miterlimit:10;" d="
		M271.6,289.989c1.16-11.52,10.9-19.83,21.9-19.83c1.86,0,3.75,0.24,5.65,0.74l4.43,1.17l6.15,1.63c9.61,2.54,19.5-2.98,22.4-12.48
		l1.81-5.97"/>
	<path style="fill:none;stroke:#333333;stroke-width:8;stroke-linecap:round;stroke-linejoin:round;stroke-miterlimit:10;" d="
		M271.6,289.989c-0.01-0.01-0.01-0.02-0.02-0.02v0.24C271.59,290.139,271.59,290.059,271.6,289.989z"/>
	<path style="fill:none;stroke:#333333;stroke-width:8;stroke-linecap:round;stroke-linejoin:round;stroke-miterlimit:10;" d="
		M303.58,272.089c0.01,0.1,0.01,0.19,0.01,0.29c0,11.51-9.33,20.84-20.84,20.84c-4.1,0-7.92-1.19-11.15-3.23"/>
	
		<line style="fill:none;stroke:#333333;stroke-width:8;stroke-linejoin:round;stroke-miterlimit:10;" x1="227.05" y1="425.359" x2="227.05" y2="438.999"/>
	<polygon style="fill:none;stroke:#333333;stroke-width:8;stroke-linejoin:round;stroke-miterlimit:10;" points="227.05,235.239 
		188.87,197.059 227.05,158.869 265.24,197.059 	"/>
	<polygon style="fill:none;stroke:#333333;stroke-width:8;stroke-linejoin:round;stroke-miterlimit:10;" points="227.05,211.109 
		213,197.059 227.05,182.999 241.11,197.059 	"/>
	<polygon style="fill:none;stroke:#333333;stroke-width:8;stroke-linejoin:round;stroke-miterlimit:10;" points="320.87,197.059 
		293.05,224.869 265.24,197.059 293.05,169.239 	"/>
	<polygon style="fill:none;stroke:#333333;stroke-width:8;stroke-linejoin:round;stroke-miterlimit:10;" points="336.57,212.759 
		320.87,197.059 336.57,181.349 352.28,197.059 	"/>
	<polygon style="fill:none;stroke:#333333;stroke-width:8;stroke-linejoin:round;stroke-miterlimit:10;" points="265.24,173.989 
		249.53,158.289 265.24,142.579 280.94,158.289 	"/>
	<polygon style="fill:none;stroke:#333333;stroke-width:8;stroke-linejoin:round;stroke-miterlimit:10;" points="188.87,173.989 
		173.17,158.289 188.87,142.579 204.58,158.289 	"/>
	<polygon style="fill:none;stroke:#333333;stroke-width:8;stroke-linejoin:round;stroke-miterlimit:10;" points="265.24,251.239 
		249.53,235.529 265.24,219.829 280.94,235.529 	"/>
	<polygon style="fill:none;stroke:#333333;stroke-width:8;stroke-linejoin:round;stroke-miterlimit:10;" points="188.87,251.239 
		173.17,235.529 188.87,219.829 204.58,235.529 	"/>
	<polygon style="fill:none;stroke:#333333;stroke-width:8;stroke-linejoin:round;stroke-miterlimit:10;" points="93.39,286.249 
		77.68,270.539 93.39,254.829 109.09,270.539 	"/>
	<polygon style="fill:none;stroke:#333333;stroke-width:8;stroke-linejoin:round;stroke-miterlimit:10;" points="360.72,286.249 
		345.02,270.539 360.72,254.829 376.43,270.539 	"/>
	<polygon style="fill:none;stroke:#333333;stroke-width:8;stroke-linejoin:round;stroke-miterlimit:10;" points="117.54,212.759 
		101.83,197.059 117.54,181.349 133.24,197.059 	"/>
	<polygon style="fill:none;stroke:#333333;stroke-width:8;stroke-linejoin:round;stroke-miterlimit:10;" points="188.87,197.059 
		161.06,224.869 133.24,197.059 161.06,169.239 	"/>
	<polygon style="fill:none;stroke:#333333;stroke-width:8;stroke-linejoin:round;stroke-miterlimit:10;" points="227.05,158.869 
		205.17,136.989 227.05,115.099 248.94,136.989 	"/>
	<polyline style="fill:none;stroke:#333333;stroke-width:8;stroke-linejoin:round;stroke-miterlimit:10;" points="248.94,93.209 
		227.05,115.099 205.17,93.209 	"/>
	<polygon style="fill:none;stroke:#333333;stroke-width:8;stroke-linejoin:round;stroke-miterlimit:10;" points="227.05,279.019 
		205.17,257.129 227.05,235.239 248.94,257.129 	"/>
	<polygon style="fill:none;stroke:#333333;stroke-width:8;stroke-linejoin:round;stroke-miterlimit:10;" points="227.05,382.119 
		211.93,366.989 227.05,351.859 242.18,366.989 	"/>
	<polygon style="fill:none;stroke:#333333;stroke-width:8;stroke-linejoin:round;stroke-miterlimit:10;" points="227.05,311.259 
		217.72,296.129 227.05,279.019 236.39,296.129 	"/>
	<polygon style="fill:none;stroke:#333333;stroke-width:8;stroke-linejoin:round;stroke-miterlimit:10;" points="227.05,351.339 
		207.01,331.299 227.05,311.259 247.1,331.299 	"/>
	<path style="fill:none;stroke:#333333;stroke-width:8;stroke-linejoin:round;stroke-miterlimit:10;" d="M143.68,169.689
		c5.27-5.27,5.9-13.19,1.41-17.68c-4.49-4.49-12.4-3.86-17.67,1.42c-5.28,5.27-5.91,13.18-1.42,17.67
		C130.49,175.599,138.41,174.959,143.68,169.689z"/>
	<path style="fill:none;stroke:#333333;stroke-width:8;stroke-linejoin:round;stroke-miterlimit:10;" d="M310.43,169.689
		c-5.27-5.27-5.9-13.19-1.41-17.68c4.49-4.49,12.4-3.86,17.67,1.42c5.28,5.27,5.91,13.18,1.42,17.67
		C323.62,175.599,315.7,174.959,310.43,169.689z"/>
	<path style="fill:none;stroke:#333333;stroke-width:8;stroke-linejoin:round;stroke-miterlimit:10;" d="M143.68,224.419
		c5.27,5.28,5.9,13.19,1.41,17.68c-4.49,4.49-12.4,3.86-17.67-1.41c-5.28-5.27-5.91-13.19-1.42-17.68
		C130.49,218.519,138.41,219.149,143.68,224.419z"/>
	<path style="fill:none;stroke:#333333;stroke-width:8;stroke-linejoin:round;stroke-miterlimit:10;" d="M310.43,224.419
		c-5.27,5.28-5.9,13.19-1.41,17.68c4.49,4.49,12.4,3.86,17.67-1.41c5.28-5.27,5.91-13.19,1.42-17.68
		C323.62,218.519,315.7,219.149,310.43,224.419z"/>
</g>
<g>
</g>
<g>
</g>
<g>
</g>
<g>
</g>
<g>
</g>
<g>
</g>
<g>
</g>
<g>
</g>
<g>
</g>
<g>
</g>
<g>
</g>
<g>
</g>
<g>
</g>
<g>
</g>
<g>
</g>
</svg>
