<svg height="512pt" viewBox="0 0 512 512" width="512pt" xmlns="http://www.w3.org/2000/svg"><path d="m503.464844 443.734375c0 42.664063-34.132813 59.730469-68.265625 59.730469-42.664063 0-85.332031-42.664063-162.132813-42.664063-59.734375 0-136.53125 42.664063-187.734375 42.664063-51.199219 0-76.796875-34.132813-76.796875-76.796875 0-59.734375 42.664063-76.800781 68.265625-76.800781 8.582031-.039063 17.152344.703124 25.597657 2.21875l8.023437 1.023437c-3.53125 8.976563-7.992187 17.554687-13.3125 25.601563 20.660156 9.417968 42.554687 15.855468 65.023437 19.113281v3.242187c0 4.714844 3.820313 8.535156 8.535157 8.535156h68.265625c4.710937 0 8.53125-3.820312 8.53125-8.535156v-2.046875c42.085937-4.140625 83.480468-13.546875 123.222656-27.988281 6.34375 6.210938 13.164062 11.917969 20.394531 17.066406l1.453125.167969c16.09375-7.488281 33.472656-11.835937 51.199219-12.800781 42.664063 0 59.730469 25.601562 59.730469 68.269531zm0 0" fill="#5068c1"/><path d="m503.464844 443.734375c0 42.664063-34.132813 59.730469-68.265625 59.730469-4.003907 0-8-.34375-11.945313-1.023438 29.011719-4.007812 54.613282-21.757812 54.613282-58.707031 0-37.890625-13.484376-62.378906-46.421876-67.242187 4.0625-.675782 8.171876-1.015626 12.289063-1.027344 42.664063 0 59.730469 25.601562 59.730469 68.269531zm0 0" fill="#354aa3"/><path d="m290.132812 179.199219c1.46875 53.292969 17.621094 105.144531 46.679688 149.847656 1.191406 1.960937 2.472656 3.921875 3.839844 5.800781 1.023437 1.535156 2.046875 3.074219 3.070312 4.523438 8.03125 11.332031 17.054688 21.925781 26.964844 31.660156-39.742188 14.441406-81.136719 23.847656-123.222656 27.988281v2.046875c0 4.714844-3.820313 8.535156-8.53125 8.535156h-68.265625c-4.714844 0-8.535157-3.820312-8.535157-8.535156v-3.242187c-22.46875-3.257813-44.363281-9.695313-65.023437-19.113281 5.320313-8.046876 9.78125-16.625 13.3125-25.601563 2.59375-6.390625 4.84375-12.910156 6.742187-19.542969.679688-2.21875 1.277344-4.519531 1.875-6.910156 6.292969-25.917969 9.300782-52.523438 8.960938-79.191406 0-107.347656 23.980469-230.738282 172.542969-238.589844 4.863281-.171875 9.984375-.339844 15.191406-.339844 110.933594 0 145.066406 110.929688 145.066406 110.929688-11.035156-10.257813-23.441406-18.929688-36.863281-25.769532-20.179688-10.792968-42.65625-16.589843-65.539062-16.894531-3.65625-.023437-7.3125.261719-10.921876.851563-36.09375 5.460937-57.34375 39.339844-57.34375 101.546875zm0 0" fill="#354aa3"/><path d="m423.9375 93.695312c-20.179688-10.792968-42.65625-16.589843-65.539062-16.894531-3.65625-.023437-7.3125.261719-10.921876.851563-4.871093-.546875-9.773437-.832032-14.675781-.851563-42.667969 0-68.265625 34.132813-68.265625 102.398438 1.46875 53.292969 17.621094 105.144531 46.675782 149.847656 1.195312 1.960937 2.472656 3.921875 3.839843 5.800781 1.023438 1.535156 2.046875 3.074219 3.070313 4.523438 8.03125 11.332031 17.054687 21.925781 26.96875 31.660156-39.742188 14.441406-81.140625 23.847656-123.222656 27.988281v2.046875c0 4.714844-3.820313 8.535156-8.535157 8.535156h-42.664062c-4.714844 0-8.535157-3.820312-8.535157-8.535156v-3.242187c-22.46875-3.257813-44.363281-9.695313-65.023437-19.113281 5.320313-8.046876 9.78125-16.625 13.3125-25.601563 2.59375-6.390625 4.84375-12.910156 6.742187-19.542969.679688-2.21875 1.277344-4.519531 1.875-6.910156 6.292969-25.917969 9.300782-52.523438 8.960938-79.191406 0-107.347656 23.980469-230.738282 172.542969-238.589844 69.546875 4.523438 106.667969 53.589844 123.394531 84.820312zm0 0" fill="#5068c1"/><path d="m170.667969 324.265625h68.265625c4.710937 0 8.53125 3.820313 8.53125 8.535156v68.265625c0 4.714844-3.820313 8.535156-8.53125 8.535156h-68.265625c-4.714844 0-8.535157-3.820312-8.535157-8.535156v-68.265625c0-4.714843 3.820313-8.535156 8.535157-8.535156zm0 0" fill="#ffc900"/><path d="m370.6875 371.03125c-7.765625 2.8125-16.894531 5.886719-27.136719 8.957031-31.328125 9.476563-63.511719 15.847657-96.085937 19.03125v-50.347656c30.523437-2.535156 60.570312-9.136719 89.347656-19.625 1.277344 1.960937 2.558594 3.921875 3.839844 5.800781 1.023437 1.535156 2.046875 3.074219 3.070312 4.523438 8.03125 11.332031 17.054688 21.925781 26.964844 31.660156zm0 0" fill="#bc2b6a"/><path d="m343.550781 379.988281c-31.328125 9.476563-63.511719 15.847657-96.085937 19.03125v-42.839843c21.722656-3.503907 43.066406-9.046876 63.746094-16.554688 1.28125 1.964844 2.558593 3.925781 3.839843 5.804688 1.023438 1.535156 2.046875 3.070312 3.070313 4.523437 7.605468 10.71875 16.113281 20.765625 25.429687 30.035156zm0 0" fill="#ef3a76"/><path d="m162.132812 342.441406v55.382813c-22.46875-3.257813-44.363281-9.695313-65.023437-19.113281 5.320313-8.046876 9.78125-16.625 13.3125-25.601563 2.59375-6.390625 4.84375-12.910156 6.742187-19.542969.679688-2.21875 1.277344-4.519531 1.875-6.910156 13.78125 6.742188 28.222657 12.03125 43.09375 15.785156zm0 0" fill="#ef3a76"/><path d="m485.632812 169.558594 1.535157 26.707031-26.113281-9.554687-.253907-.085938-12.800781 4.691406-13.566406 4.949219.511718-9.554687 1.023438-17.152344-17.835938-20.738282 27.308594-6.824218 2.558594-3.757813 12.800781-18.773437 15.359375 22.53125 27.304688 6.824218zm0 0" fill="#ffc900"/><path d="m460.03125 169.558594 1.023438 17.152344-.253907-.085938-12.800781 4.691406-12.800781-4.691406-.253907.085938 1.023438-17.152344-17.835938-20.738282 27.308594-6.824218 2.558594-3.757813 2.558594 3.757813 27.308594 6.824218zm0 0" fill="#ffc900"/><path d="m435.199219 512c-19.96875 0-38.824219-8.054688-60.671875-17.382812-27.75-11.851563-59.203125-25.285157-101.460938-25.285157-29.679687 0-64.539062 11.257813-98.261718 22.1875-32.664063 10.511719-63.511719 20.480469-89.472657 20.480469-51.839843 0-85.332031-33.492188-85.332031-85.332031 0-67.5 50.234375-85.335938 76.800781-85.335938 9.089844-.023437 18.164063.773438 27.109375 2.375l.929688.117188c10.425781-31.027344 15.375-63.632813 14.625-96.359375 0-61.207032 0-247.464844 196.269531-247.464844 115.898437 0 152.863281 115.789062 153.222656 116.957031 1.140625 3.742188-.410156 7.78125-3.761719 9.796875-3.351562 2.015625-7.648437 1.496094-10.417968-1.261718-.402344-.386719-41.054688-40.160157-96.378906-40.160157-49.371094 0-59.730469 51.039063-59.730469 93.867188 0 73.234375 41.136719 159.984375 94.222656 199.679687 16.035156-7.175781 33.289063-11.230468 50.84375-11.945312 31.136719 0 68.265625 13.328125 68.265625 76.800781 0 50.386719-41.371094 68.265625-76.800781 68.265625zm-162.132813-59.734375c45.746094 0 80.359375 14.78125 108.160156 26.660156 20.121094 8.59375 37.496094 16.007813 53.972657 16.007813 28.878906 0 59.734375-13.449219 59.734375-51.199219 0-41.3125-15.796875-59.734375-51.199219-59.734375-16.578125.914062-32.824219 5.023438-47.839844 12.109375-1.390625.59375-2.917969.8125-4.417969.621094l-1.46875-.179688c-1.394531-.171875-2.726562-.6875-3.875-1.5-59.597656-42.128906-104.53125-134.921875-104.53125-215.851562 0-96.527344 48.117188-110.933594 76.796876-110.933594 28.660156.484375 56.632812 8.859375 80.847656 24.203125-17.699219-31.078125-55.058594-75.402344-123.511719-75.402344-122.257813 0-179.199219 73.207032-179.199219 230.398438.949219 37.121094-5.238281 74.078125-18.230468 108.863281-1.457032 3.566406-5.125 5.714844-8.949219 5.238281l-8.003907-.992187c-8.101562-1.457031-16.320312-2.1875-24.550781-2.175781-22.1875 0-59.734375 14.378906-59.734375 68.269531 0 32.996093 17.921875 68.265625 68.265625 68.265625 23.273438 0 52.90625-9.566406 84.234375-19.695313 34.96875-11.289062 71.140625-22.972656 103.5-22.972656zm0 0"/><path d="m452.265625 418.132812c-27.085937-.832031-53.0625-10.945312-73.574219-28.65625-2.386718-1.894531-3.582031-4.921874-3.136718-7.9375.449218-3.015624 2.472656-5.566406 5.308593-6.6875 2.835938-1.117187 6.054688-.640624 8.445313 1.253907 17.511718 15.277343 39.734375 24.085937 62.957031 24.960937 4.714844 0 8.535156 3.820313 8.535156 8.535156 0 4.710938-3.820312 8.53125-8.535156 8.53125zm0 0"/><path d="m51.199219 418.132812c-4.710938 0-8.53125-3.820312-8.53125-8.53125 0-4.714843 3.820312-8.535156 8.53125-8.535156 14.679687 0 37.273437-14.207031 52.652343-54.253906 1.046876-2.90625 3.582032-5.019531 6.632813-5.527344 3.046875-.503906 6.132813.679688 8.058594 3.09375 1.929687 2.414063 2.40625 5.679688 1.238281 8.542969-15.445312 40.226563-41.726562 65.210937-68.582031 65.210937zm0 0"/><path d="m238.933594 418.132812h-68.265625c-9.425781 0-17.066407-7.640624-17.066407-17.066406v-68.265625c0-9.425781 7.640626-17.066406 17.066407-17.066406h68.265625c9.425781 0 17.066406 7.640625 17.066406 17.066406v68.265625c0 9.425782-7.640625 17.066406-17.066406 17.066406zm-68.265625-85.332031v68.265625h68.265625v-68.265625zm0 0"/><path d="m247.464844 407.507812c-4.710938 0-8.53125-3.820312-8.53125-8.53125v-50.261718c-.015625-4.453125 3.394531-8.167969 7.832031-8.535156 29.738281-2.511719 59.007813-8.976563 87.042969-19.214844 3.753906-1.371094 7.953125.046875 10.109375 3.414062 9.304687 14.695313 20.253906 28.277344 32.640625 40.488282 2.109375 2.046874 3.015625 5.03125 2.40625 7.902343-.613282 2.875-2.660156 5.230469-5.417969 6.238281-40.378906 14.714844-82.453125 24.277344-125.226563 28.457032-.316406.027344-.582031.042968-.855468.042968zm8.535156-51.019531v33.007813c33.757812-3.960938 67.019531-11.378906 99.257812-22.144532-7.960937-8.828124-15.289062-18.207031-21.929687-28.066406-25.039063 8.648438-50.984375 14.417969-77.328125 17.203125zm0 0"/><path d="m162.132812 406.375c-.429687 0-.855468-.035156-1.28125-.101562-23.261718-3.410157-45.929687-10.078126-67.335937-19.808594-2.273437-1.046875-3.96875-3.039063-4.644531-5.449219-.675782-2.40625-.257813-4.992187 1.136718-7.066406 9.660157-15.175781 16.667969-31.882813 20.722657-49.410157.632812-2.488281 2.359375-4.5625 4.695312-5.636718 2.332031-1.078125 5.027344-1.042969 7.335938.089844 13.269531 6.480468 27.175781 11.578124 41.488281 15.214843 3.777344.96875 6.417969 4.371094 6.417969 8.269531v55.363282c0 4.714844-3.820313 8.535156-8.535157 8.535156zm-52.617187-31.574219c14.234375 5.742188 29 10.070313 44.085937 12.917969v-38.707031c-9.890624-2.820313-19.582031-6.292969-29.015624-10.390625-3.679688 12.578125-8.734376 24.714844-15.070313 36.1875zm0 0"/><path d="m213.332031 384h-17.066406c-4.710937 0-8.53125-3.820312-8.53125-8.535156 0-4.710938 3.820313-8.53125 8.53125-8.53125h17.066406c4.714844 0 8.535157 3.820312 8.535157 8.53125 0 4.714844-3.820313 8.535156-8.535157 8.535156zm0 0"/><path d="m487.167969 204.800781c-1-.003906-1.996094-.183593-2.933594-.53125l-23.433594-8.53125-23.433593 8.53125c-2.703126.992188-5.722657.550781-8.03125-1.167969-2.308594-1.722656-3.597657-4.488281-3.421876-7.363281l1.367188-23.261719-15.617188-18.132812c-1.929687-2.246094-2.558593-5.328125-1.664062-8.148438.898438-2.820312 3.191406-4.972656 6.058594-5.695312l24.191406-6.058594 13.5-19.804687c1.675781-2.203125 4.28125-3.5 7.050781-3.5 2.765625 0 5.375 1.296875 7.046875 3.5l13.5 19.804687 24.191406 6.058594c2.871094.722656 5.164063 2.875 6.058594 5.695312.894532 2.820313.265625 5.902344-1.664062 8.148438l-15.613282 18.132812 1.363282 23.261719c.140625 2.347657-.699219 4.652344-2.3125 6.363281-1.617188 1.710938-3.867188 2.675782-6.21875 2.671876zm-26.367188-26.734375c1 0 1.996094.179688 2.933594.527344l14.132813 5.179688-.800782-13.722657c-.132812-2.210937.601563-4.386719 2.046875-6.066406l8.839844-10.238281-13.917969-3.492188c-2.027344-.5-3.800781-1.734375-4.976562-3.464844l-8.257813-12.167968-8.277343 12.152344c-1.175782 1.726562-2.945313 2.960937-4.976563 3.464843l-13.917969 3.488281 8.839844 10.242188c1.445312 1.679688 2.179688 3.855469 2.050781 6.066406l-.785156 13.738282 14.148437-5.179688c.933594-.347656 1.921876-.527344 2.917969-.527344zm0 0"/><path d="m384 290.132812c-4.710938 0-8.535156-3.820312-8.535156-8.53125v-34.136718c0-4.710938 3.824218-8.53125 8.535156-8.53125s8.535156 3.820312 8.535156 8.53125v34.136718c0 4.710938-3.824218 8.53125-8.535156 8.53125zm0 0"/><path d="m401.066406 273.066406h-34.132812c-4.714844 0-8.535156-3.820312-8.535156-8.53125 0-4.714844 3.820312-8.535156 8.535156-8.535156h34.132812c4.714844 0 8.535156 3.820312 8.535156 8.535156 0 4.710938-3.820312 8.53125-8.535156 8.53125zm0 0"/><path d="m25.601562 221.867188c-4.714843 0-8.535156-3.820313-8.535156-8.535157v-34.132812c0-4.710938 3.820313-8.53125 8.535156-8.53125 4.710938 0 8.53125 3.820312 8.53125 8.53125v34.132812c0 4.714844-3.820312 8.535157-8.53125 8.535157zm0 0"/><path d="m42.667969 204.800781h-34.132813c-4.714844 0-8.535156-3.820312-8.535156-8.535156 0-4.710937 3.820312-8.53125 8.535156-8.53125h34.132813c4.710937 0 8.53125 3.820313 8.53125 8.53125 0 4.714844-3.820313 8.535156-8.53125 8.535156zm0 0"/><path d="m93.867188 51.199219c-4.714844 0-8.535157-3.820313-8.535157-8.53125v-34.132813c0-4.714844 3.820313-8.535156 8.535157-8.535156 4.710937 0 8.53125 3.820312 8.53125 8.535156v34.132813c0 4.710937-3.820313 8.53125-8.53125 8.53125zm0 0"/><path d="m110.933594 34.132812h-34.132813c-4.714843 0-8.535156-3.820312-8.535156-8.53125 0-4.714843 3.820313-8.535156 8.535156-8.535156h34.132813c4.710937 0 8.53125 3.820313 8.53125 8.535156 0 4.710938-3.820313 8.53125-8.53125 8.53125zm0 0"/></svg>