<svg height="512pt" viewBox="0 0 512 512.04071" width="512pt" xmlns="http://www.w3.org/2000/svg"><path d="m36.695312 512.039062c-3.777343 0-7.503906-.847656-10.914062-2.472656-13.816406-6.746094-23.355469-19.933594-25.4375-35.167968-1.398438-8.9375 2.089844-17.941407 9.148438-23.601563 14.222656-11.714844 58.324218-49.304687 160.332031-145.066406 3.394531-3.269531 8.800781-3.167969 12.070312.226562s3.167969 8.800781-.226562 12.070313c-1.058594 1.058594-105.71875 105.265625-119.867188 173.710937-1.589843 7.664063-6.628906 14.164063-13.652343 17.613281-3.5625 1.761719-7.480469 2.679688-11.453126 2.6875zm0 0" fill="#388c41"/><path d="m449.402344 174.503906c-37.960938-37.957031-99.503906-37.957031-137.464844 0 37.957031-37.960937 37.957031-99.503906-.003906-137.464844-37.960938-37.957031-99.503906-37.957031-137.464844 0-37.960938 37.960938-37.960938 99.503907-.003906 137.464844-37.960938-37.957031-99.507813-37.957031-137.464844.003906-37.960938 37.964844-37.960938 99.507813.003906 137.46875 38.425782 37.957032 100.230469 37.957032 138.65625 0-38.285156 37.632813-38.820312 99.171876-1.195312 137.464844 37.964844 37.953125 99.507812 37.953125 137.472656 0 4.367188-4.386718 8.304688-9.175781 11.757812-14.3125-4.457031-.273437-7.9375-3.957031-7.960937-8.421875v-34.132812c0-4.714844 3.820313-8.535157 8.535156-8.535157h15.972657c.996093-26.910156-9.257813-53.023437-28.304688-72.0625 19.039062 19.046876 45.152344 29.300782 72.0625 28.304688v-15.972656c0-4.714844 3.824219-8.535156 8.535156-8.535156h34.132813c4.46875.019531 8.152343 3.503906 8.421875 7.960937 24.085937-16.203125 39.648437-42.335937 42.417968-71.234375 2.773438-28.894531-7.539062-57.511719-28.105468-77.996094zm0 0" fill="#5ab862"/><path d="m449.367188 311.933594c-4.34375 4.390625-9.117188 8.335937-14.25 11.777344-.3125-4.445313-3.992188-7.902344-8.449219-7.9375h-6.996094c1.449219-1.195313 2.730469-2.472657 4.09375-3.839844 26.128906-26.152344 35.160156-64.859375 23.300781-99.871094-11.859375-35.015625-42.550781-60.269531-79.191406-65.164062 41.28125-5.46875 81.457031 15.972656 99.894531 53.3125 18.4375 37.335937 11.035157 82.269531-18.402343 111.722656zm0 0" fill="#388c41"/><path d="m330.070312 149.375c-16.578124 4.328125-31.695312 13.019531-43.773437 25.171875 26.109375-26.171875 35.128906-64.882813 23.277344-99.898437-11.855469-35.019532-42.53125-60.292969-79.171875-65.222657 35.683594-4.710937 71.050781 10.675781 91.929687 39.992188 20.882813 29.320312 23.859375 67.773437 7.738281 99.957031zm0 0" fill="#388c41"/><path d="m503.46875 392.574219v34.132812c0 4.714844-3.820312 8.535157-8.535156 8.535157h-51.199219c-4.710937 0-8.53125 3.820312-8.53125 8.53125v51.199218c0 4.714844-3.820313 8.535156-8.535156 8.535156h-34.132813c-4.710937 0-8.535156-3.820312-8.535156-8.535156v-51.199218c0-4.710938-3.820312-8.53125-8.53125-8.53125h-51.199219c-4.714843 0-8.535156-3.820313-8.535156-8.535157v-34.132812c0-4.714844 3.820313-8.535157 8.535156-8.535157h51.199219c4.710938 0 8.53125-3.820312 8.53125-8.53125v-51.199218c0-4.714844 3.824219-8.535156 8.535156-8.535156h34.132813c4.714843 0 8.535156 3.820312 8.535156 8.535156v51.199218c0 4.710938 3.820313 8.53125 8.53125 8.53125h51.199219c4.714844 0 8.535156 3.820313 8.535156 8.535157zm0 0" fill="#ffa700"/><path d="m477.867188 392.574219v34.132812c0 4.714844-3.820313 8.535157-8.53125 8.535157h-51.199219c-4.714844 0-8.535157 3.820312-8.535157 8.53125v51.199218c0 4.714844-3.820312 8.535156-8.53125 8.535156h-8.535156c-4.710937 0-8.535156-3.820312-8.535156-8.535156v-51.199218c0-4.710938-3.820312-8.53125-8.53125-8.53125h-51.199219c-4.714843 0-8.535156-3.820313-8.535156-8.535157v-34.132812c0-4.714844 3.820313-8.535157 8.535156-8.535157h51.199219c4.710938 0 8.53125-3.820312 8.53125-8.53125v-51.199218c0-4.714844 3.824219-8.535156 8.535156-8.535156h8.535156c4.710938 0 8.53125 3.820312 8.53125 8.535156v51.199218c0 4.710938 3.820313 8.53125 8.535157 8.53125h51.199219c4.710937 0 8.53125 3.820313 8.53125 8.535157zm0 0" fill="#ffc900"/><path d="m426.667969 512.039062h-34.132813c-9.425781 0-17.066406-7.640624-17.066406-17.066406v-51.199218h-51.199219c-9.425781 0-17.066406-7.640626-17.066406-17.066407v-34.132812c0-9.425781 7.640625-17.066407 17.066406-17.066407h51.199219v-51.199218c0-9.425782 7.640625-17.066406 17.066406-17.066406h34.132813c9.425781 0 17.066406 7.640624 17.066406 17.066406v51.199218h51.199219c9.425781 0 17.066406 7.640626 17.066406 17.066407v34.132812c0 9.425781-7.640625 17.066407-17.066406 17.066407h-51.199219v51.199218c0 9.425782-7.640625 17.066406-17.066406 17.066406zm-102.398438-119.464843v34.132812h51.199219c9.425781 0 17.066406 7.640625 17.066406 17.066407v51.199218h34.132813v-51.199218c0-9.425782 7.640625-17.066407 17.066406-17.066407h51.199219v-34.132812h-51.199219c-9.425781 0-17.066406-7.640625-17.066406-17.066407v-51.199218h-34.132813v51.199218c0 9.425782-7.640625 17.066407-17.066406 17.066407zm0 0"/><path d="m36.695312 512.039062c-3.777343 0-7.503906-.847656-10.914062-2.472656-13.816406-6.746094-23.355469-19.933594-25.4375-35.167968-1.398438-8.9375 2.089844-17.941407 9.148438-23.601563 14.222656-11.714844 58.324218-49.304687 160.332031-145.066406 3.394531-3.269531 8.800781-3.167969 12.070312.226562s3.167969 8.800781-.226562 12.070313c-1.058594 1.058594-105.71875 105.265625-119.867188 173.710937-1.589843 7.664063-6.628906 14.164063-13.652343 17.613281-3.5625 1.761719-7.480469 2.679688-11.453126 2.6875zm46.933594-103.5c-35.628906 32.1875-54.785156 48.410157-63.316406 55.46875-2.324219 1.769532-3.535156 4.640626-3.175781 7.542969 1.074219 9.785157 7.085937 18.339844 15.933593 22.664063 2.367188 1.121094 5.121094 1.078125 7.457032-.109375 2.320312-1.125 3.992187-3.257813 4.53125-5.777344 5.128906-24.78125 20.402344-53.027344 38.570312-79.789063zm0 0"/><path d="m243.203125 486.390625c-35.070313.164063-67.894531-17.226563-87.449219-46.335937-19.554687-29.109376-23.246094-66.074219-9.832031-98.476563-39.585937 15.804687-84.78125 6.539063-114.953125-23.566406-35.488281-35.511719-41.113281-91.082031-13.460938-132.984375 27.648438-41.902344 80.953126-58.585938 127.5625-39.921875-17.710937-44.140625-3.765624-94.679688 34.074219-123.496094 37.84375-28.8125 90.269531-28.8125 128.113281 0 37.84375 28.816406 51.789063 79.355469 34.078126 123.496094 39.285156-15.679688 84.132812-6.484375 114.082031 23.390625 41.289062 41.296875 41.289062 108.246094 0 149.539062-4.773438 4.746094-9.984375 9.035156-15.566407 12.800782-2.535156 1.703124-5.785156 1.925781-8.527343.578124-2.738281-1.347656-4.550781-4.058593-4.75-7.105468h-34.039063v15.972656c.003906 4.601562-3.644531 8.378906-8.242187 8.535156-14.730469.488282-29.402344-2.085937-43.085938-7.5625 5.484375 13.683594 8.0625 28.355469 7.570313 43.085938-.15625 4.597656-3.933594 8.246094-8.535156 8.242187h-15.972657v34.132813c3.035157.1875 5.738281 1.984375 7.082031 4.714844 1.34375 2.726562 1.121094 5.96875-.582031 8.488281-3.765625 5.578125-8.050781 10.792969-12.796875 15.5625-19.824218 19.835937-46.730468 30.957031-74.769531 30.910156zm-61.507813-168.378906c-34.640624 34.296875-34.917968 90.183593-.617187 124.824219 34.300781 34.640624 90.1875 34.914062 124.828125.613281 1.824219-1.835938 3.597656-3.78125 5.296875-5.828125-2.589844-3.046875-4.007813-6.914063-4-10.914063v-34.132812c0-9.425781 7.640625-17.066407 17.066406-17.066407h7.363281c-1.144531-21.695312-10.316406-42.1875-25.726562-57.496093-3.234375-3.351563-3.1875-8.671875.101562-11.964844 3.292969-3.289063 8.613282-3.335937 11.964844-.101563 15.308594 15.410157 35.800782 24.578126 57.496094 25.71875v-7.355468c0-9.425782 7.640625-17.066406 17.066406-17.066406h34.132813c3.984375 0 7.835937 1.417968 10.871093 4 2.050782-1.707032 3.996094-3.472657 5.828126-5.296876 16.636718-16.632812 25.984374-39.195312 25.984374-62.722656 0-23.523437-9.347656-46.085937-25.984374-62.71875-34.628907-34.621094-90.765626-34.621094-125.394532 0-2.144531 2.21875-5.316406 3.109375-8.300781 2.328125s-5.3125-3.113281-6.09375-6.097656c-.78125-2.980469.109375-6.15625 2.328125-8.296875 34.609375-34.632812 34.597656-90.765625-.03125-125.382812-34.625-34.621094-90.757812-34.621094-125.382812 0-34.625 34.617187-34.636719 90.75-.027344 125.382812 3.234375 3.347656 3.1875 8.671875-.105469 11.960938-3.289063 3.292968-8.613281 3.339843-11.960937.105468-34.640626-34.628906-90.789063-34.617187-125.417969.019532-34.628907 34.640624-34.617188 90.792968.019531 125.421874 34.976562 34.910157 91.617188 34.910157 126.59375 0 2.140625-2.21875 5.316406-3.109374 8.296875-2.328124 2.984375.78125 5.316406 3.109374 6.097656 6.09375.777344 2.984374-.109375 6.15625-2.328125 8.300781zm0 0"/><path d="m68.269531 201.027344c-3.675781 0-6.933593-2.351563-8.097656-5.835938-1.160156-3.484375.039063-7.320312 2.976563-9.523437 12.300781-9.144531 27.230468-14.058594 42.554687-14.003907 4.714844 0 8.535156 3.820313 8.535156 8.53125 0 4.714844-3.820312 8.535157-8.535156 8.535157-11.632813-.042969-22.96875 3.679687-32.316406 10.605469-1.476563 1.101562-3.273438 1.695312-5.117188 1.691406zm0 0"/><path d="m43.949219 264.574219c-4.050781-.007813-7.535157-2.859375-8.347657-6.828125-.972656-4.773438-1.464843-9.632813-1.464843-14.503906-.011719-8.25 1.402343-16.441407 4.179687-24.210938 1.597656-4.421875 6.472656-6.71875 10.902344-5.132812 4.425781 1.582031 6.738281 6.453124 5.164062 10.882812-2.117187 5.925781-3.195312 12.167969-3.179687 18.460938-.003906 3.722656.371094 7.441406 1.117187 11.09375.511719 2.511718-.132812 5.121093-1.753906 7.105468-1.625 1.984375-4.054687 3.136719-6.617187 3.132813zm0 0"/><path d="m410.738281 196.308594c-1.425781 0-2.824219-.359375-4.070312-1.042969-9.335938-5.03125-19.929688-7.246094-30.5-6.375-4.699219.386719-8.820313-3.109375-9.207031-7.808594-.386719-4.695312 3.109374-8.820312 7.808593-9.207031 13.882813-1.105469 27.789063 1.8125 40.054688 8.40625 3.425781 1.867188 5.148437 5.820312 4.183593 9.601562-.964843 3.78125-4.371093 6.425782-8.269531 6.425782zm0 0"/><path d="m187.734375 84.28125c-2.996094-.003906-5.773437-1.582031-7.308594-4.152344-1.539062-2.574218-1.613281-5.765625-.199219-8.40625 8.390626-15.5 22.1875-27.375 38.765626-33.367187 4.433593-1.570313 9.300781.738281 10.886718 5.167969 1.585938 4.425781-.710937 9.300781-5.132812 10.898437-12.617188 4.5625-23.117188 13.597656-29.511719 25.386719-1.488281 2.753906-4.367187 4.472656-7.5 4.472656zm0 0"/></svg>