<svg height="512pt" viewBox="-98 0 512 512.001" width="512pt" xmlns="http://www.w3.org/2000/svg"><path d="m158.300781 7.5c70.328125 0 128.796875 54.152344 134.175781 124.273438l16.539063 215.496093c1.359375 17.734375-12.664063 32.871094-30.445313 32.871094h-240.539062c-17.785156 0-31.808594-15.136719-30.445312-32.871094l16.535156-215.496093c5.382812-70.121094 63.851562-124.273438 134.179687-124.273438zm0 0" fill="#6e7093"/><path d="m309.015625 347.269531-16.539063-215.496093c-5.378906-70.121094-63.847656-124.273438-134.175781-124.273438-3.851562 0-7.667969.171875-11.445312.492188 65.132812 5.5 117.648437 57.503906 122.734375 123.78125l16.539062 215.496093c1.359375 17.734375-12.660156 32.871094-30.445312 32.871094h22.886718c17.785157 0 31.804688-15.136719 30.445313-32.871094zm0 0" fill="#4e5173"/><path d="m262.949219 371.464844c-1.882813-.789063-2.148438-.828125-63.894531-23.949219v-59.472656h-81.507813v59.472656c-66.578125 24.917969-63.089844 23.539063-65.6875 24.738281-18.273437 8.460938-30.148437 26.824219-30.148437 47.199219v80.9375c0 2.269531 1.839843 4.109375 4.109374 4.109375h264.960938c2.269531 0 4.109375-1.839844 4.109375-4.109375v-80.9375c0-20.753906-12.40625-39.824219-31.941406-47.988281zm0 0" fill="#6e7093"/><path d="m262.949219 371.464844c-1.882813-.789063-2.148438-.828125-63.894531-23.949219v-59.472656h-22.296876v51.730469c0 4.65625 2.890626 8.824218 7.25 10.457031 54.523438 20.410156 54.839844 20.476562 56.644532 21.234375 19.535156 8.164062 31.941406 27.234375 31.941406 47.988281v80.9375c0 2.269531-1.839844 4.109375-4.109375 4.109375h22.296875c2.269531 0 4.109375-1.839844 4.109375-4.109375v-80.9375c0-20.753906-12.40625-39.824219-31.941406-47.988281zm0 0" fill="#4e5173"/><path d="m261.097656 370.730469-62.042968-23.214844v-59.472656h-81.507813v59.472656l-62.046875 23.214844c-2.476562.925781-4.851562 2.03125-7.113281 3.292969 19.488281 41.132812 61.375 69.585937 109.914062 69.585937 48.535157 0 90.425781-28.453125 109.910157-69.585937-2.261719-1.261719-4.632813-2.367188-7.113282-3.292969zm0 0" fill="#e6eff5"/><path d="m184.007812 350.230469c54.523438 20.410156 54.839844 20.476562 56.644532 21.234375 8.214844 3.433594 15.167968 8.804687 20.46875 15.410156 2.605468-4.125 4.984375-8.410156 7.089844-12.851562-1.652344-.921876-3.367188-1.757813-5.136719-2.503907-.042969-.019531-.082031-.039062-.125-.054687-.007813-.003906-.019531-.007813-.027344-.011719-.535156-.222656-1.078125-.4375-1.628906-.644531-.214844-.082032-.46875-.179688-.761719-.289063l-20.039062-7.5c-9.199219-3.4375-22.390626-8.371093-41.4375-15.503906v-59.472656h-22.296876v51.730469c0 4.65625 2.890626 8.824218 7.25 10.457031zm0 0" fill="#c5d3d6"/><path d="m48.390625 374.023438c2.257813-1.261719 4.632813-2.367188 7.109375-3.292969l29.5625-11.0625c.671875.132812 1.347656.25 2.011719.398437 5.1875 1.140625 11.375 4.097656 11.210937 9.40625-.25 8.042969-14.65625 10.097656-14.242187 18.132813.199219 3.902343 4.207031 6.589843 8.058593 7.246093 3.851563.65625 7.820313-.054687 11.703126.394532 9.800781 1.140625 17.640624 10.027344 19.234374 19.761718 1.234376 7.527344-.804687 15.253907-4.734374 21.851563-30.855469-10.75-56.054688-33.578125-69.914063-62.835937zm0 0" fill="#ed6161"/><path d="m158.300781 116.722656c-60.328125 0-109.234375 16.632813-109.234375 84.597656 0 67.964844 48.90625 123.0625 109.234375 123.0625s109.234375-55.097656 109.234375-123.0625c0-67.964843-48.90625-84.597656-109.234375-84.597656zm0 0" fill="#f9c295"/><path d="m208.808594 122.238281c22.722656 12.210938 37.058594 33.953125 37.058594 70.75 0 67.964844-48.90625 123.0625-109.234376 123.0625-8.339843 0-16.460937-1.058593-24.265624-3.050781 13.964843 7.300781 29.523437 11.382812 45.933593 11.382812 60.328125 0 109.234375-55.097656 109.234375-123.0625 0-47.433593-23.824218-69.859374-58.726562-79.082031zm0 0" fill="#e59f6a"/><path d="m49.066406 164.355469v34.632812c72.824219-92.183593 145.644532-92.183593 218.46875 0v-34.632812c0-10.3125-3.726562-20.296875-10.511718-28.0625-65.816407-75.292969-131.628907-75.292969-197.445313 0-6.789063 7.765625-10.511719 17.75-10.511719 28.0625zm0 0" fill="#e6eff5"/><path d="m257.023438 136.292969c-9.285157-10.621094-18.570313-19.742188-27.855469-27.367188 2.335937 3.457031 4.671875 7.046875 7.007812 10.800781 6.109375 9.820313 9.457031 22.4375 9.457031 35.480469v18.851563c7.300782 7.390625 14.601563 15.6875 21.902344 24.929687v-34.632812c0-10.3125-3.726562-20.296875-10.511718-28.0625zm0 0" fill="#c5d3d6"/><path d="m194.300781 433.589844h-23v-23.089844h-26v23.089844h-23v24.949218h23v45.960938h26v-45.960938h23zm0 0" fill="#f9dc6a"/><path d="m316.488281 346.695312-16.53125-215.5c-2.746093-35.804687-18.765625-68.960937-45.113281-93.359374-26.355469-24.398438-60.644531-37.835938-96.542969-37.835938-43.152343 0-83.464843 19.277344-110.597656 52.890625-2.601563 3.222656-2.097656 7.945313 1.125 10.546875s7.945313 2.097656 10.546875-1.125c24.273438-30.070312 60.328125-47.3125 98.925781-47.3125 32.109375 0 62.777344 12.019531 86.355469 33.84375 23.558594 21.820312 37.890625 51.472656 40.347656 83.5l16.527344 215.503906c.5 6.464844-1.652344 12.644532-6.058594 17.40625-4.167968 4.503906-9.761718 7.09375-15.84375 7.363282-4.148437-3.25-8.777344-5.980469-13.804687-8.085938-.296875-.121094-.546875-.222656-.9375-.375-.382813-.152344-.765625-.304688-1.15625-.449219-.0625-.023437-.128907-.046875-.195313-.070312-1.59375-.601563-4.523437-1.699219-10.605468-3.972657-8.1875-3.058593-22.15625-8.28125-46.378907-17.351562v-24.445312c40.292969-20.539063 68.386719-65.972657 68.476563-118.625.003906-.085938.007812-.167969.007812-.253907v-34.628906c0-12.160156-4.394531-23.878906-12.367187-33-34.238281-39.175781-69.355469-59.035156-104.367188-59.035156s-70.128906 19.859375-104.367187 59.03125c-7.976563 9.125-12.367188 20.84375-12.367188 33v34.632812c0 .082031.003906.167969.003906.253907.089844 52.648437 28.1875 98.085937 68.480469 118.625v24.441406c-14.09375 5.273437-24.785156 9.269531-32.929687 12.316406-26.28125 9.828125-26.28125 9.828125-28.144532 10.695312l-.269531.125c-1.316406.609376-2.601562 1.265626-3.859375 1.960938-.082031.046875-.167968.09375-.25.144531-2.671875 1.5-5.203125 3.199219-7.578125 5.066407-6.101562-.257813-11.710937-2.851563-15.890625-7.363282-4.40625-4.761718-6.558594-10.941406-6.058594-17.410156l16.527344-215.5c1.203125-15.691406 5.222656-30.792969 11.945313-44.894531 1.78125-3.738281.195312-8.214844-3.542969-10-3.742188-1.78125-8.214844-.195313-10 3.542969-7.519531 15.773437-12.011719 32.667968-13.355469 50.203124l-16.53125 215.496094c-.8125 10.523438 2.832031 21 10.003907 28.75 4.136718 4.464844 9.261718 7.835938 14.886718 9.886719-6.878906 9.832031-10.792968 21.703125-10.792968 34.121094v80.941406c0 6.402344 5.207031 11.609375 11.609374 11.609375h264.960938c6.398438 0 11.609375-5.207031 11.609375-11.609375v-34.167969c0-4.144531-3.359375-7.5-7.5-7.5-4.144531 0-7.5 3.355469-7.5 7.5v30.777344h-35.289063v-41.875c0-4.144531-3.359374-7.5-7.5-7.5-4.144531 0-7.5 3.355469-7.5 7.5v41.875h-58.300781v-30.957031h15.5c4.140625 0 7.5-3.359375 7.5-7.5v-14.960938c29.335938-10.496093 54.007813-31.433593 69.214844-58.644531.203125.164062.402344.328125.601563.496094.261718.261718.542968.507812.839843.726562 9.347657 8.292969 14.933594 20.300782 14.933594 33.289063v16.761719c0 4.140624 3.359375 7.5 7.5 7.5s7.5-3.359376 7.5-7.5v-16.761719c0-12.519531-3.882813-24.355469-10.734375-34.144531 5.601562-2.054688 10.707031-5.414063 14.824219-9.863282 7.171875-7.746094 10.820312-18.226562 10.007812-28.746094zm-259.921875-182.339843c0-8.527344 3.074219-16.738281 8.660156-23.125 31.265626-35.769531 62.578126-53.90625 93.074219-53.90625 30.492188 0 61.808594 18.136719 93.074219 53.90625 5.582031 6.386719 8.660156 14.597656 8.660156 23.125v14.074219c-33.484375-37.234376-67.640625-56.078126-101.734375-56.078126-34.097656 0-68.25 18.84375-101.734375 56.078126zm.027344 37.214843c34.199219-42.617187 68.410156-64.21875 101.707031-64.21875s67.503907 21.601563 101.703125 64.21875c-1.210937 62.535157-46.367187 112.980469-101.703125 112.980469-55.335937 0-100.492187-50.445312-101.707031-112.980469zm-27.382812 217.878907c0-13.507813 6.195312-26.148438 16.386718-34.488281 15.207032 27.195312 39.875 48.125 69.203125 58.621093v14.960938c0 4.140625 3.359375 7.5 7.5 7.5h15.5v30.957031h-58.300781v-41.875c0-4.144531-3.359375-7.5-7.5-7.5-4.144531 0-7.5 3.355469-7.5 7.5v41.875h-35.289062zm157.589843 31.59375h-15.5c-4.140625 0-7.5 3.355469-7.5 7.5v38.457031h-11v-38.457031c0-4.144531-3.359375-7.5-7.5-7.5h-15.5v-9.953125h15.5c4.140625 0 7.5-3.355469 7.5-7.5v-15.589844h11v15.589844c0 4.140625 3.359375 7.5 7.5 7.5h15.5zm12.878907-22.679688c-1.363282-1.402343-3.269532-2.273437-5.378907-2.273437h-15.5v-15.589844c0-4.140625-3.359375-7.5-7.5-7.5h-26c-4.140625 0-7.5 3.359375-7.5 7.5v15.589844h-15.5c-2.109375 0-4.015625.871094-5.378906 2.273437-24.65625-9.601562-45.339844-27.628906-58.269531-50.792969 3.070312-1.171874 9.4375-3.554687 23.722656-8.894531 1.058594-.398437 2.160156-.808593 3.308594-1.238281 2.4375.566406 4.027344 1.402344 4.785156 1.96875-.824219.855469-2.582031 2.097656-3.71875 2.894531-4.230469 2.980469-10.617188 7.480469-10.195312 15.6875.359374 7.023438 6.238281 12.886719 14.292968 14.257813 4.933594.839844 8.765625.0625 12.089844.449218 3.382812.394532 6.746094 2.460938 9.226562 5.664063 1.480469 1.910156 3.695313 2.90625 5.9375 2.90625 1.601563 0 3.21875-.511719 4.585938-1.570313 3.273438-2.535156 3.875-7.246093 1.335938-10.519531-5.007813-6.46875-11.882813-10.511719-19.351563-11.378906-2.296875-.265625-4.484375-.21875-6.414063-.179687-1.808593.039062-3.519531.074218-4.898437-.160157-.480469-.082031-.914063-.238281-1.257813-.40625.875-.789062 2.320313-1.808593 3.285157-2.488281 4.042969-2.847656 10.15625-7.15625 10.394531-14.859375.101562-3.222656-.875-6.191406-2.773438-8.746094 5.132813-1.921875 10.835938-4.054687 17.171876-6.425781 2.929687-1.097656 4.871093-3.894531 4.871093-7.023438v-23.355468c10.542969 3.507812 21.703125 5.394531 33.25 5.394531s22.707031-1.882813 33.25-5.394531v23.355468c0 3.125 1.941407 5.925782 4.871094 7.023438 27.253906 10.207031 42.535156 15.917969 51.257813 19.183594 5.820312 2.171875 8.707031 3.25 10.277343 3.84375-12.933593 23.171875-33.621093 41.203125-58.277343 50.804687zm0 0"/><path d="m108.550781 208.488281c-4.140625 0-7.5-3.359375-7.5-7.5v-2c0-4.140625 3.359375-7.5 7.5-7.5s7.5 3.359375 7.5 7.5v2c0 4.140625-3.359375 7.5-7.5 7.5zm0 0"/><path d="m208.050781 208.488281c-4.140625 0-7.5-3.359375-7.5-7.5v-2c0-4.140625 3.359375-7.5 7.5-7.5s7.5 3.359375 7.5 7.5v2c0 4.140625-3.359375 7.5-7.5 7.5zm0 0"/><path d="m158.296875 270.289062c-12.878906 0-25.320313-5.386718-34.132813-14.785156-2.832031-3.019531-2.683593-7.765625.339844-10.601562 3.019532-2.832032 7.765625-2.679688 10.597656.339844 6.078126 6.480468 14.316407 10.046874 23.195313 10.046874 8.882813 0 17.121094-3.566406 23.199219-10.046874 2.835937-3.019532 7.582031-3.171876 10.601562-.339844 3.019532 2.835937 3.171875 7.582031.339844 10.601562-8.816406 9.398438-21.257812 14.785156-34.140625 14.785156zm0 0"/></svg>