<?xml version="1.0" encoding="iso-8859-1"?>
<!-- Generator: Adobe Illustrator 19.0.0, SVG Export Plug-In . SVG Version: 6.00 Build 0)  -->
<svg version="1.1" id="Capa_1" xmlns="http://www.w3.org/2000/svg" xmlns:xlink="http://www.w3.org/1999/xlink" x="0px" y="0px"
	 viewBox="0 0 512.043 512.043" style="enable-background:new 0 0 512.043 512.043;" xml:space="preserve">
<g transform="translate(-1 -1)">
	<g transform="translate(1)">
		<path style="fill:#0377BC;" d="M395.896,266.838L189.219,473.515c-41.332,41.332-108.343,41.332-149.675,0
			c-41.332-41.332-41.332-108.343,0-149.675l187.989-187.904l18.688-18.773L395.896,266.838z"/>
		<path style="fill:#02A9F4;" d="M366.968,262.392L155.248,472.961c-15.648,15.573-35.69,25.981-57.429,29.824
			c-39.651-6.858-72.161-35.27-84.267-73.646S11.766,348.84,40.304,320.47l207.198-199.979L366.968,262.392z"/>
		<path style="fill:#2E7D32;" d="M356.728,299.691c0,23.552-64.085,42.667-143.275,42.667c-6.059,0-12.032-0.085-17.92-0.341
			c-70.656-2.645-125.355-20.565-125.355-42.325c0-21.76,54.699-39.68,125.355-42.325c5.888-0.256,11.861-0.341,17.92-0.341
			C292.643,257.025,356.728,276.139,356.728,299.691z"/>
		<path style="fill:#4CAF50;" d="M320.803,299.691c0,21.76-54.613,39.68-125.269,42.325
			c-70.656-2.645-125.355-20.565-125.355-42.325c0-21.76,54.699-39.68,125.355-42.325
			C266.189,260.011,320.803,277.931,320.803,299.691z"/>
		<path style="fill:#2E7D32;" d="M350.328,312.491L189.219,473.515c-24.108,24.158-58.414,35.159-92.075,29.525
			c21.802-3.541,41.93-13.874,57.515-29.525L293.069,335.19c26.88-5.376,47.36-13.397,57.173-22.784L350.328,312.491z"/>
		<path style="fill:#4CAF50;" d="M293.069,335.19L154.659,473.515c-15.585,15.651-35.713,25.984-57.515,29.525
			c-39.129-6.462-71.359-34.263-83.496-72.019s-2.14-79.13,25.896-107.181l7.424-7.424l29.611-29.525l0.085,0.085
			c-3.856,3.136-6.21,7.752-6.485,12.715c0,21.76,54.955,39.765,125.781,42.325c5.717,0.256,11.605,0.341,17.493,0.341
			C240.16,342.523,266.821,340.123,293.069,335.19z"/>
		<path style="fill:#CDDC39;" d="M293.069,335.19c-26.248,4.933-52.909,7.333-79.616,7.168c-5.888,0-11.776-0.085-17.493-0.341
			L293.069,335.19z"/>
		<path style="fill:#0377BC;" d="M477.987,230.998l-37.461,37.376l-0.683-0.683c-7.168,7.168-20.139,7.424-36.437,1.877
			c-26.283-8.704-61.269-32.256-94.464-65.451c-53.76-53.76-82.261-112.299-63.573-130.901l20.309-20.309l17.067-17.152
			L477.987,230.998z"/>
		<path style="fill:#02A9F4;" d="M443.768,230.998l-37.376,37.376l-0.683-0.683c-0.689,0.717-1.463,1.347-2.304,1.877
			c-26.283-8.704-61.269-32.256-94.464-65.451c-53.76-53.76-82.261-112.299-63.573-130.901l20.309-20.309L443.768,230.998z"/>
		<g>
			<path style="fill:#65DDB9;" d="M62.328,373.931c-1.576-1.597-2.49-3.731-2.56-5.973l0.179-1.621
				c0.107-0.565,0.287-1.113,0.538-1.63c0.174-0.512,0.418-0.997,0.725-1.442c0.341-0.454,0.714-0.881,1.118-1.28
				c0.793-0.78,1.732-1.395,2.765-1.809c1.019-0.43,2.104-0.683,3.209-0.751c3.43,0.029,6.51,2.11,7.817,5.282
				c1.393,3.156,0.656,6.847-1.843,9.225c-0.411,0.393-0.85,0.755-1.314,1.084c-0.445,0.309-0.934,0.551-1.451,0.717
				c-0.512,0.257-1.058,0.441-1.621,0.546l-1.587,0.213c-1.117-0.034-2.218-0.28-3.243-0.725
				C64.035,375.343,63.107,374.719,62.328,373.931z"/>
			<path style="fill:#65DDB9;" d="M104.995,416.598c-1.576-1.597-2.49-3.731-2.56-5.973l0.179-1.621
				c0.107-0.565,0.287-1.113,0.538-1.63c0.174-0.512,0.418-0.997,0.725-1.442c0.341-0.454,0.714-0.881,1.118-1.28
				c0.793-0.78,1.732-1.395,2.765-1.809c1.019-0.43,2.104-0.683,3.209-0.751c3.43,0.029,6.51,2.11,7.817,5.282
				c1.393,3.156,0.656,6.847-1.843,9.225c-0.411,0.393-0.85,0.755-1.314,1.084c-0.445,0.309-0.934,0.551-1.451,0.717
				c-0.512,0.257-1.058,0.441-1.621,0.546l-1.587,0.213c-1.117-0.034-2.218-0.28-3.243-0.725
				C106.702,418.01,105.773,417.386,104.995,416.598z"/>
			<path style="fill:#65DDB9;" d="M113.528,467.798c-1.576-1.597-2.49-3.731-2.56-5.973l0.179-1.621
				c0.107-0.565,0.287-1.113,0.538-1.63c0.174-0.512,0.418-0.997,0.725-1.442c0.341-0.454,0.714-0.881,1.118-1.28
				c0.793-0.78,1.732-1.395,2.765-1.809c1.019-0.43,2.104-0.683,3.209-0.751c3.43,0.029,6.51,2.11,7.817,5.282
				c1.393,3.156,0.656,6.847-1.843,9.225c-0.411,0.393-0.85,0.755-1.314,1.084c-0.445,0.309-0.934,0.551-1.451,0.717
				c-0.512,0.257-1.058,0.441-1.621,0.546l-1.587,0.213c-1.117-0.034-2.218-0.28-3.243-0.725
				C115.235,469.21,114.307,468.586,113.528,467.798z"/>
		</g>
		<path style="fill:#4CAF50;" d="M147.661,390.998c-1.576-1.597-2.49-3.731-2.56-5.973l0.179-1.621
			c0.107-0.565,0.287-1.113,0.538-1.63c0.174-0.512,0.418-0.997,0.725-1.442c0.341-0.454,0.714-0.881,1.118-1.28
			c0.793-0.78,1.732-1.395,2.765-1.809c1.019-0.43,2.104-0.683,3.209-0.751c3.43,0.029,6.51,2.11,7.817,5.282
			c1.393,3.156,0.656,6.847-1.843,9.225c-0.411,0.393-0.85,0.755-1.314,1.084c-0.445,0.309-0.934,0.551-1.451,0.717
			c-0.512,0.257-1.058,0.441-1.621,0.546l-1.587,0.213c-1.117-0.034-2.218-0.28-3.243-0.725
			C149.368,392.41,148.44,391.786,147.661,390.998z"/>
		<g>
			<path style="fill:#65DDB9;" d="M173.261,433.665c-1.576-1.597-2.49-3.731-2.56-5.973l0.179-1.621
				c0.107-0.565,0.287-1.113,0.538-1.63c0.174-0.512,0.418-0.997,0.725-1.442c0.341-0.454,0.714-0.881,1.118-1.28
				c0.793-0.78,1.732-1.395,2.765-1.809c1.019-0.43,2.104-0.683,3.209-0.751c3.43,0.029,6.51,2.11,7.817,5.282
				c1.393,3.156,0.656,6.847-1.843,9.225c-0.411,0.393-0.85,0.755-1.314,1.084c-0.445,0.309-0.934,0.551-1.451,0.717
				c-0.512,0.257-1.058,0.441-1.621,0.546l-1.587,0.213c-1.117-0.034-2.218-0.28-3.243-0.725
				C174.968,435.077,174.04,434.453,173.261,433.665z"/>
			<path style="fill:#65DDB9;" d="M224.461,382.465c-1.576-1.597-2.49-3.731-2.56-5.973l0.179-1.621
				c0.107-0.565,0.287-1.113,0.538-1.63c0.174-0.512,0.418-0.997,0.725-1.442c0.341-0.454,0.714-0.881,1.118-1.28
				c0.793-0.78,1.732-1.395,2.765-1.809c1.019-0.43,2.104-0.683,3.209-0.751c3.43,0.029,6.51,2.11,7.817,5.282
				c1.393,3.156,0.656,6.847-1.843,9.225c-0.411,0.393-0.85,0.755-1.314,1.084c-0.445,0.309-0.934,0.551-1.451,0.717
				c-0.512,0.257-1.058,0.441-1.621,0.546l-1.587,0.213c-1.117-0.034-2.218-0.28-3.243-0.725
				C226.168,383.877,225.24,383.253,224.461,382.465z"/>
			<path style="fill:#65DDB9;" d="M53.795,425.131c-1.576-1.597-2.49-3.731-2.56-5.973l0.179-1.621
				c0.107-0.565,0.287-1.113,0.538-1.63c0.174-0.512,0.418-0.997,0.725-1.442c0.341-0.454,0.714-0.881,1.118-1.28
				c0.793-0.78,1.732-1.395,2.765-1.809c1.019-0.43,2.104-0.683,3.209-0.751c3.43,0.029,6.51,2.11,7.817,5.282
				c1.393,3.156,0.656,6.847-1.843,9.225c-0.411,0.393-0.85,0.755-1.314,1.084c-0.445,0.309-0.934,0.551-1.451,0.717
				c-0.512,0.257-1.058,0.441-1.621,0.546l-1.587,0.213c-1.117-0.034-2.218-0.28-3.243-0.725
				C55.502,426.543,54.573,425.919,53.795,425.131z"/>
		</g>
		<path style="fill:#0377BC;" d="M477.304,230.315c-5.973,5.973-16.043,7.083-28.757,4.096
			c-26.88-6.315-65.707-31.147-102.229-67.669c-53.76-53.76-82.176-112.384-63.573-130.987c1.815-1.83,4.038-3.204,6.485-4.011
			c13.909-5.291,38.315,2.56,65.963,20.053l9.557,6.741l89.771,89.771c2.304,3.157,4.523,6.315,6.741,9.557
			C481.912,190.465,489.08,218.454,477.304,230.315z"/>
		<path style="fill:#02A9F4;" d="M455.203,230.315c-1.865,1.87-4.146,3.273-6.656,4.096c-26.88-6.315-65.707-31.147-102.229-67.669
			c-53.76-53.76-82.176-112.384-63.573-130.987c1.815-1.83,4.038-3.204,6.485-4.011c15.633,4.202,30.456,10.979,43.861,20.053
			l9.557,6.741l89.771,89.771c2.304,3.157,4.523,6.315,6.741,9.557C459.811,190.465,466.979,218.454,455.203,230.315z"/>
		<path style="fill:#FF9801;" d="M500.626,102.23l-53.495,53.495c-10.24,10.24-38.562-1.621-63.369-26.453
			c-24.806-24.832-36.634-53.163-26.453-63.369l53.521-53.47L500.626,102.23z"/>
		
			<ellipse transform="matrix(-0.7071 -0.7071 0.7071 -0.7071 735.3393 420.975)" style="fill:#F57C00;" cx="454.856" cy="58.194" rx="63.497" ry="26.453"/>
	</g>
	<g>
		<path d="M480.608,33.451C456.186,9.063,423.622-7.62,406.795,5.735c-0.348,0.199-0.681,0.421-0.998,0.666l-41.02,41.02
			l-4.019-2.833c-38.025-24.09-68.267-29.517-83.046-14.865l-37.419,37.419c-10.419,10.428-10.086,27.657-2.833,47.727
			L34.511,317.825c-44.659,44.659-44.659,117.065,0,161.724s117.065,44.659,161.724,0L399.14,276.651
			c8.17,3.204,16.828,4.988,25.6,5.274c8.198,0.429,16.215-2.516,22.187-8.149l37.419-37.419
			c14.626-14.737,9.199-45.005-15.061-83.285c-0.853-1.271-1.775-2.509-2.654-3.763l40.107-40.107l0.853-0.853
			c0.256-0.322,0.484-0.664,0.683-1.024C521.662,90.36,504.962,57.848,480.608,33.451z M468.525,45.535
			c24.098,24.107,30.652,47.061,26.197,51.541c-4.48,4.454-27.426-2.074-51.55-26.189c-24.124-24.115-30.652-47.07-26.189-51.541
			c1.276-0.996,2.886-1.464,4.497-1.306C430.304,18.04,449.035,26.053,468.525,45.535z M442.072,149.692
			c-1.758,1.707-7.782,1.877-16.887-1.929c-12.888-5.968-24.557-14.275-34.415-24.499c-24.107-24.107-30.814-46.933-26.453-51.302
			l36.087-36.087c6.368,17.899,16.894,34.031,30.711,47.07c13.055,13.802,29.216,24.29,47.138,30.592L442.072,149.692z
			 M347.42,304.231l-4.267,4.267c-15.983,12.331-62.729,25.327-128.683,25.327c-82.261,0-134.758-20.215-134.758-34.133
			c0.14-1.905,0.915-3.708,2.202-5.12l3.115-3.115c15.266-12.51,62.49-25.899,129.442-25.899c82.27,0,134.767,20.215,134.767,34.133
			C349.111,301.355,348.477,302.94,347.42,304.231z M184.169,467.482c-37.995,37.995-99.597,37.995-137.591,0
			c-37.995-37.995-37.995-99.597,0-137.591l19.14-19.106c14.78,26.351,82.091,40.107,148.753,40.107
			c32.818,0.345,65.551-3.402,97.442-11.153L184.169,467.482z M363.164,288.487c-14.942-26.291-82.142-39.996-148.693-39.996
			c-32.915-0.346-65.745,3.426-97.724,11.23l128-128c15.648,28.981,35.582,55.434,59.127,78.464
			c23.018,23.554,49.459,43.499,78.43,59.162L363.164,288.487z M315.966,198.094c-25.378-23.965-46.014-52.498-60.826-84.105
			c-7.083-17.195-7.799-29.705-2.765-34.739l18.091-18.15c5.171,31.881,35.2,76.058,70.827,111.676
			c23.581,24.396,50.922,44.851,80.981,60.587c9.615,4.927,19.889,8.442,30.507,10.436l-17.92,17.92
			C423.307,273.238,372.499,254.627,315.966,198.094z M455.059,162.433c21.154,33.399,23.893,55.134,17.22,61.85
			c-4.668,4.668-18.295,5.478-42.556-6.298c-28.348-14.895-54.129-34.232-76.365-57.276
			c-56.516-56.508-75.093-107.332-63.607-118.886c6.724-6.682,28.467-3.951,61.508,16.973l1.254,0.853l-0.23,0.23
			c-16.085,16.094,1.118,50.125,26.453,75.435c11.414,11.814,24.954,21.368,39.91,28.16c5.997,2.706,12.47,4.2,19.046,4.395
			c6.101,0.279,12.052-1.943,16.478-6.153l0.239-0.239c0.196,0.341,0.435,0.666,0.64,0.956H455.059z"/>
		<path d="M69.301,359.425c-1.114,0.053-2.21,0.295-3.243,0.717c-1.023,0.428-1.951,1.055-2.731,1.843
			c-0.393,0.411-0.755,0.85-1.084,1.314c-0.307,0.445-0.551,0.93-0.725,1.442c-0.25,0.517-0.431,1.065-0.538,1.63l-0.213,1.587
			c0.07,2.243,0.984,4.376,2.56,5.973c0.792,0.779,1.732,1.392,2.765,1.801c1.012,0.453,2.101,0.71,3.209,0.759l1.621-0.179
			c0.563-0.106,1.109-0.289,1.621-0.546c0.514-0.164,1.001-0.406,1.442-0.717c0.458-0.338,0.889-0.712,1.289-1.118
			c2.503-2.392,3.227-6.101,1.809-9.259C75.771,361.526,72.711,359.462,69.301,359.425z"/>
		<path d="M113.589,418.979c0.563-0.106,1.109-0.289,1.621-0.546c0.514-0.164,1.001-0.406,1.442-0.717
			c0.458-0.338,0.889-0.712,1.289-1.118c2.503-2.392,3.227-6.101,1.809-9.259c-1.313-3.147-4.373-5.211-7.782-5.248
			c-1.114,0.053-2.21,0.295-3.243,0.717c-1.032,0.414-1.972,1.029-2.765,1.809c-0.393,0.411-0.755,0.85-1.084,1.314
			c-0.307,0.445-0.551,0.93-0.725,1.442c-0.25,0.517-0.431,1.065-0.538,1.63l-0.179,1.621c0.07,2.243,0.984,4.376,2.56,5.973
			c0.792,0.779,1.732,1.392,2.765,1.801c1.012,0.453,2.101,0.71,3.209,0.759L113.589,418.979z"/>
		<path d="M120.501,453.291c-1.114,0.053-2.21,0.295-3.243,0.717c-1.032,0.414-1.972,1.029-2.765,1.809
			c-0.393,0.411-0.755,0.85-1.084,1.314c-0.307,0.445-0.551,0.93-0.725,1.442c-0.25,0.517-0.431,1.065-0.538,1.63l-0.179,1.621
			c0.07,2.243,0.984,4.376,2.56,5.973c0.792,0.779,1.732,1.392,2.765,1.801c1.012,0.453,2.101,0.71,3.209,0.759l1.621-0.179
			c0.563-0.106,1.109-0.289,1.621-0.546c0.514-0.164,1.001-0.406,1.442-0.717c0.458-0.338,0.889-0.712,1.289-1.118
			c2.503-2.392,3.227-6.101,1.809-9.259C126.971,455.392,123.911,453.329,120.501,453.291z"/>
		<path d="M154.635,376.491c-1.114,0.053-2.21,0.295-3.243,0.717c-1.032,0.414-1.972,1.029-2.765,1.809
			c-0.393,0.411-0.755,0.85-1.084,1.314c-0.307,0.445-0.551,0.93-0.725,1.442c-0.25,0.517-0.431,1.065-0.538,1.63l-0.179,1.621
			c0.07,2.243,0.984,4.376,2.56,5.973c0.792,0.779,1.732,1.392,2.765,1.801c1.012,0.453,2.101,0.71,3.209,0.759l1.621-0.179
			c0.563-0.106,1.109-0.289,1.621-0.546c0.514-0.164,1.001-0.406,1.442-0.717c0.458-0.338,0.889-0.712,1.289-1.118
			c2.503-2.392,3.227-6.101,1.809-9.259C161.105,378.592,158.044,376.529,154.635,376.491z"/>
		<path d="M180.235,419.158c-1.114,0.053-2.21,0.295-3.243,0.717c-1.032,0.414-1.972,1.029-2.765,1.809
			c-0.393,0.411-0.755,0.85-1.084,1.314c-0.307,0.445-0.551,0.93-0.725,1.442c-0.25,0.517-0.431,1.065-0.538,1.63l-0.179,1.621
			c0.07,2.243,0.984,4.376,2.56,5.973c0.792,0.779,1.732,1.392,2.765,1.801c1.012,0.453,2.101,0.71,3.209,0.759l1.621-0.179
			c0.563-0.106,1.109-0.289,1.621-0.546c0.514-0.164,1.001-0.406,1.442-0.717c0.458-0.338,0.889-0.712,1.289-1.118
			c2.503-2.392,3.227-6.101,1.809-9.259C186.705,421.259,183.644,419.195,180.235,419.158z"/>
		<path d="M239.251,373.24c-1.307-3.172-4.386-5.253-7.817-5.282c-1.114,0.053-2.21,0.295-3.243,0.717
			c-1.032,0.414-1.972,1.029-2.765,1.809c-0.393,0.411-0.755,0.85-1.084,1.314c-0.307,0.445-0.551,0.93-0.725,1.442
			c-0.25,0.517-0.431,1.065-0.538,1.63l-0.179,1.621c0.07,2.243,0.984,4.376,2.56,5.973c0.792,0.779,1.732,1.392,2.765,1.801
			c1.012,0.453,2.101,0.71,3.209,0.759l1.621-0.179c0.563-0.106,1.109-0.289,1.621-0.546c0.514-0.164,1.001-0.406,1.442-0.717
			c0.458-0.338,0.889-0.712,1.289-1.118c2.503-2.392,3.227-6.101,1.809-9.259L239.251,373.24z"/>
		<path d="M60.768,410.625c-1.114,0.053-2.21,0.295-3.243,0.717c-1.023,0.428-1.951,1.055-2.731,1.843
			c-0.393,0.411-0.755,0.85-1.084,1.314c-0.307,0.445-0.551,0.93-0.725,1.442c-0.25,0.517-0.431,1.065-0.538,1.63l-0.213,1.587
			c0.07,2.243,0.984,4.376,2.56,5.973c0.792,0.779,1.732,1.392,2.765,1.801c1.012,0.453,2.101,0.71,3.209,0.759l1.621-0.179
			c0.563-0.106,1.109-0.289,1.621-0.546c0.514-0.164,1.001-0.406,1.442-0.717c0.458-0.338,0.889-0.712,1.289-1.118
			c2.503-2.392,3.227-6.101,1.809-9.259C67.238,412.726,64.178,410.662,60.768,410.625z"/>
	</g>
</g>
<g>
</g>
<g>
</g>
<g>
</g>
<g>
</g>
<g>
</g>
<g>
</g>
<g>
</g>
<g>
</g>
<g>
</g>
<g>
</g>
<g>
</g>
<g>
</g>
<g>
</g>
<g>
</g>
<g>
</g>
</svg>
