<?xml version="1.0" encoding="iso-8859-1"?>
<!-- Generator: Adobe Illustrator 21.0.0, SVG Export Plug-In . SVG Version: 6.00 Build 0)  -->
<svg xmlns="http://www.w3.org/2000/svg" xmlns:xlink="http://www.w3.org/1999/xlink" version="1.1" id="Capa_1" x="0px" y="0px" viewBox="0 0 512 512" style="enable-background:new 0 0 512 512;" xml:space="preserve" width="512" height="512">
<g>
	<path style="fill:#EF5350;" d="M354.031,103.506c0,26.877,21.788,48.666,48.666,48.666c26.877,0,48.666-21.788,48.666-48.666   S411.847,7.5,402.697,7.5C393.548,7.5,354.031,76.628,354.031,103.506z"/>
	<path style="fill:#FFCA28;" d="M380.494,109.071c0,12.262,9.941,22.203,22.203,22.203c12.262,0,22.203-9.941,22.203-22.203   s-18.029-43.801-22.203-43.801C398.523,65.269,380.494,96.808,380.494,109.071z"/>
	
		<rect x="351.022" y="152.171" transform="matrix(-1 -4.488067e-11 4.488067e-11 -1 805.3945 354.694)" style="fill:#E0E0E0;" width="103.35" height="50.351"/>
	<path style="fill:#BDBDBD;" d="M414.372,152.171v8.475c0,12.082-9.794,21.876-21.876,21.876h-41.474v20h103.35v-50.351H414.372z"/>
	
		<rect x="345.991" y="202.523" transform="matrix(-1 -7.688929e-11 7.688929e-11 -1 805.3945 450.519)" style="fill:#42A5F5;" width="113.413" height="45.474"/>
	<path style="fill:#1976D2;" d="M419.404,202.522v6.917c0,10.249-8.308,18.557-18.557,18.557h-54.856v20h113.413v-45.474H419.404z"/>
	<path style="fill:#BDBDBD;" d="M341.169,163.111c-10.883,0-19.706,8.823-19.706,19.706c0,10.883,8.823,19.706,19.706,19.706h9.853   v-39.411H341.169z"/>
	<path style="fill:#FFCCBC;" d="M264.855,207.978c-14.768,14.768-4.309,40.019,16.576,40.019l178.807,0   c17.558,0,32.338,13.85,32.69,31.405c0.361,18.009-14.13,32.721-32.056,32.721h-70.146l81.085,0   c17.558,0,32.338,13.85,32.69,31.405c0.361,18.009-14.13,32.721-32.056,32.721h-81.718l71.913,0   c17.558,0,32.337,13.85,32.689,31.405c0.361,18.009-14.129,32.721-32.056,32.721c-18.553,0-72.547,0-72.547,0h53.395   c17.558,0,32.338,13.85,32.69,31.405c0.361,18.009-14.129,32.721-32.056,32.721l-148.952,0c-40.186,0-76.919-14.786-105.054-39.215   c-10.969-9.524-25.148-14.531-39.675-14.531L7.501,450.747V237.623l94.681,0.002c23.549,0,46.134-9.354,62.785-26.006   l80.225-80.225c7.284-7.284,17.164-11.377,27.466-11.377h26.852c17.708,0,32.063,14.355,32.063,32.063v0   c0,17.654-14.271,31.986-31.924,32.062l-5.928,0.082c-3.289,0.014-6.44,1.327-8.765,3.653L264.855,207.978z"/>
	<path style="fill:#FF8A65;" d="M463.265,376.248h-10.292c1.514,3.725,2.355,7.795,2.355,12.063l0,0   c0,17.708-14.355,32.063-32.063,32.063h-12.539c-11.046,0-20,8.954-20,20v0h72.539c17.708,0,32.063-14.355,32.063-32.063l0,0   C495.328,390.603,480.973,376.248,463.265,376.248z"/>
	<path style="fill:#FF8A65;" d="M472.142,312.122H461.85c1.514,3.725,2.355,7.795,2.355,12.063l0,0   c0,17.708-14.355,32.063-32.063,32.063h-21.539c-11.046,0-20,8.954-20,20v0h81.539c17.708,0,32.063-14.355,32.063-32.063l0,0   C504.205,326.477,489.85,312.122,472.142,312.122z"/>
	<path style="fill:#FF8A65;" d="M460.865,247.996h-10.292c1.514,3.725,2.355,7.795,2.355,12.063l0,0   c0,17.708-14.355,32.063-32.063,32.063h-9.539c-11.046,0-20,8.954-20,20l0,0h69.539c17.708,0,32.063-14.355,32.063-32.063l0,0   C492.928,262.352,478.573,247.996,460.865,247.996z"/>
	<path style="fill:#FF8A65;" d="M444.122,440.374h-9.712c1.468,3.524,2.321,7.364,2.402,11.405   c0.361,18.009-14.13,32.721-32.056,32.721H255.803c-17.8,0-34.921-2.906-50.919-8.261c25.836,17.822,57.158,28.261,90.919,28.261   h148.952c17.927,0,32.417-14.712,32.056-32.721C476.459,454.224,461.68,440.374,444.122,440.374z"/>
	<g>
		<path d="M402.697,138.773c16.378,0,29.703-13.325,29.703-29.703c0-9.493-7.287-24.164-10.42-30.031    c-11.358-21.27-16.319-21.27-19.283-21.27s-7.925,0-19.282,21.27c-3.134,5.867-10.421,20.538-10.421,30.031    C372.994,125.448,386.319,138.773,402.697,138.773z M402.697,75.905c5.683,8.359,14.703,26.051,14.703,33.165    c0,8.107-6.596,14.703-14.703,14.703s-14.703-6.596-14.703-14.703C387.994,101.957,397.014,84.265,402.697,75.905z"/>
		<path d="M490.164,379.585c3.861-1.938,7.418-4.526,10.537-7.708c19.017-19.403,13.394-51.915-12.104-63.596    c7.54-7.374,12.057-17.677,11.829-29.03c-0.384-19.138-14.888-35.071-33.522-38.191v-38.537c0-3.277-2.104-6.055-5.032-7.076    v-43.275c0-4.143-3.357-7.5-7.5-7.5h-13.519c11.067-10.265,18.01-24.917,18.01-41.166c0-23.661-24.593-69.783-38.625-89.18    C412.782,4.017,407.863,0,402.697,0c-3.242,0-9.278,0-25.359,26.13c-2.171,3.527-1.071,8.147,2.457,10.318    c3.526,2.169,8.146,1.069,10.318-2.457c6.009-9.765,10.22-15.058,12.598-17.582c13.589,14.489,41.152,66.874,41.152,87.097    c0,22.699-18.467,41.166-41.166,41.166c-22.698,0-41.165-18.467-41.165-41.166c0-7.953,4.539-22.311,12.454-39.391    c1.742-3.758,0.106-8.217-3.651-9.958c-3.758-1.744-8.216-0.106-9.958,3.651c-6.316,13.629-13.845,32.621-13.845,45.697    c0,16.249,6.943,30.901,18.01,41.166h-13.52c-4.143,0-7.5,3.357-7.5,7.5v3.439c-1.917,0.02-2.717-0.056-4.624,0.102    c2.147-23.355-16.322-43.196-39.388-43.196h-26.853c-12.379,0-24.016,4.82-32.769,13.572l-80.225,80.226    c-15.354,15.354-35.768,23.81-57.482,23.81l-94.681-0.002c-1.989,0-3.896,0.79-5.303,2.196c-1.407,1.407-2.197,3.314-2.197,5.304    v213.124c0,4.142,3.357,7.5,7.499,7.5c0.103,0,40.317,0.004,40.215,0.004c4.142,0,7.5-3.357,7.5-7.499    c0-4.143-3.357-7.501-7.5-7.501l-32.715-0.003V245.123l87.181,0.002c25.721,0,49.902-10.016,68.088-28.202l80.225-80.226    c5.92-5.92,13.791-9.18,22.163-9.18h26.853c13.544,0,24.563,11.019,24.563,24.563c0,13.485-10.971,24.504-24.527,24.563    l-5.855,0.081c-5.301,0.022-10.286,2.099-14.038,5.85l-20.099,20.1c-19.489,19.486-5.72,52.822,21.879,52.822h178.807    c13.625,0,24.926,10.791,25.192,24.056c0.275,13.797-10.796,25.07-24.559,25.07h-70.146c-4.143,0-7.5,3.357-7.5,7.5    s3.357,7.5,7.5,7.5h81.085c13.625,0,24.926,10.791,25.191,24.056c0.275,13.797-10.797,25.07-24.559,25.07h-81.718    c-4.142,0-7.5,3.357-7.5,7.5c0,4.142,3.357,7.5,7.5,7.5l71.913,0.001c13.624,0,24.925,10.791,25.19,24.055    c0.275,13.796-10.793,25.07-24.557,25.07h-72.547c-4.143,0-7.5,3.357-7.5,7.5s3.357,7.5,7.5,7.5h53.396    c13.625,0,24.926,10.791,25.191,24.055C469.588,485.728,458.519,497,444.756,497H295.802c-36.813,0-72.376-13.274-100.137-37.378    c-12.157-10.554-27.993-16.367-44.592-16.368c-2.723,0-68.478-0.003-68.359-0.003c-4.142,0-7.5,3.357-7.5,7.5    c0,4.142,3.357,7.5,7.5,7.5l68.358,0.003c12.986,0.001,25.331,4.51,34.759,12.694C216.321,497.421,255.376,512,295.802,512    h148.953c10.718,0,20.752-4.216,28.255-11.871c14.413-14.703,15.313-38.085,1.229-53.783c6.491-1.859,12.423-5.378,17.289-10.343    C506.877,420.342,506.777,395.011,490.164,379.585z M358.522,159.672h88.35v35.351h-17.442c-4.143,0-7.5,3.357-7.5,7.5    s3.357,7.5,7.5,7.5h22.475v30.474h-98.413v-30.474h40.938c4.143,0,7.5-3.357,7.5-7.5s-3.357-7.5-7.5-7.5h-35.907V159.672z     M343.522,170.611v24.411h-2.353c-6.73,0-12.206-5.476-12.206-12.206c0-6.729,5.476-12.205,12.206-12.205H343.522z     M270.159,213.28l20.098-20.099c0.935-0.935,2.176-1.451,3.567-1.458c4.115-0.299,11.309,0.841,20.773-3.087    c2.487,11.365,12.093,20.094,23.894,21.253v30.607h-57.06C267.239,240.496,260.116,223.321,270.159,213.28z"/>
		<circle cx="378.791" cy="178.189" r="7.5"/>
		<circle cx="402.697" cy="178.189" r="7.5"/>
		<circle cx="426.604" cy="178.189" r="7.5"/>
	</g>
</g>















</svg>
