<svg height="512pt" viewBox="0 0 512 512.00048" width="512pt" xmlns="http://www.w3.org/2000/svg"><path d="m503.46875 162.132812v221.867188c0 14.140625-11.464844 25.601562-25.601562 25.601562-14.140626 0-25.601563-11.460937-25.601563-25.601562v-34.132812h-17.066406c-2.792969-.03125-5.574219-.40625-8.277344-1.109376-13.226563-3.414062-25.855469-14.25-25.855469-27.050781v-14.507812h-7.679687c-19.3125-.027344-34.957031-15.675781-34.988281-34.984375v-30.292969c36.269531-31.402344 68.269531-72.875 68.269531-121.429687.0625-19.949219-4.929688-39.589844-14.507813-57.089844-.597656-1.277344-1.28125-2.472656-1.960937-3.667969 59.390625.339844 93.269531 42.835937 93.269531 102.398437zm0 0" fill="#ffc900"/><path d="m477.867188 162.132812v221.867188c.003906 9.152344-4.875 17.609375-12.800782 22.1875-7.925781-4.578125-12.804687-13.035156-12.800781-22.1875v-34.132812h-17.066406c-2.792969-.03125-5.574219-.40625-8.277344-1.109376-13.226563-3.414062-25.855469-14.25-25.855469-27.050781v-14.507812h-7.679687c-19.3125-.027344-34.957031-15.675781-34.988281-34.984375v-30.292969c36.269531-31.402344 68.269531-72.875 68.269531-121.429687.0625-19.949219-4.929688-39.589844-14.507813-57.089844 42.238282 11.351562 65.707032 49.152344 65.707032 98.730468zm0 0" fill="#ffeb49"/><path d="m101.792969 59.734375c-10.847657 18.421875-16.53125 39.421875-16.460938 60.800781 0 48.484375 31.992188 89.949219 68.269531 121.410156v30.269532c0 19.320312-15.664062 34.984375-34.988281 34.984375h-7.679687v14.507812c0 15.574219-18.570313 28.160157-34.132813 28.160157h-17.066406v34.132812c0 14.140625-11.460937 25.601562-25.601563 25.601562-14.136718 0-25.597656-11.460937-25.597656-25.601562v-221.867188c0-59.527343 33.910156-102.074218 93.257813-102.398437zm0 0" fill="#ffeb49"/><path d="m324.265625 8.535156c-4.199219-.003906-8.390625.308594-12.542969.9375-23.296875 3.414063-39.679687 16.808594-55.722656 36.4375-3.980469-4.917968-8.257812-9.589844-12.800781-13.996094-14.410157-15.199218-34.523438-23.675781-55.464844-23.378906-4.371094.007813-8.730469.320313-13.058594.9375-50.429687 6.996094-89.34375 54.101563-89.34375 111.105469 0 93.183594 118.273438 160.511719 157.867188 180.5625 8.023437 3.925781 12.800781 6.058594 12.800781 6.058594s170.667969-74.664063 170.667969-186.621094c0-61.867187-45.824219-112.042969-102.402344-112.042969zm0 0" fill="#ef3a76"/><path d="m426.667969 120.578125c0 111.957031-170.667969 186.621094-170.667969 186.621094s-4.777344-2.132813-12.800781-6.058594c39.59375-20.050781 157.867187-87.378906 157.867187-180.5625 0-57.003906-38.910156-104.109375-89.34375-111.105469 4.152344-.628906 8.34375-.941406 12.542969-.9375 56.578125 0 102.402344 50.175782 102.402344 112.042969zm0 0" fill="#bc2b6a"/><path d="m256 315.734375c-1.175781 0-2.335938-.246094-3.414062-.71875-7.183594-3.140625-175.785157-78.242187-175.785157-194.480469 0-66.457031 49.765625-120.535156 110.933594-120.535156 26.5625-.0859375 51.707031 11.972656 68.265625 32.742188 16.558594-20.769532 41.703125-32.8281255 68.265625-32.742188 61.167969 0 110.933594 54.078125 110.933594 120.535156 0 116.238282-168.601563 191.339844-175.785157 194.480469-1.078124.472656-2.238281.71875-3.414062.71875zm-68.265625-298.667969c-51.753906 0-93.867187 46.414063-93.867187 103.46875 0 96.679688 138.425781 166.101563 162.132812 177.277344 23.707031-11.1875 162.132812-80.699219 162.132812-177.269531 0-57.0625-42.109374-103.476563-93.867187-103.476563-27.9375 0-44.859375 13.652344-61.660156 34.210938-1.679688 1.886718-4.082031 2.964844-6.605469 2.964844s-4.925781-1.078126-6.605469-2.964844c-16.800781-20.558594-33.722656-34.210938-61.660156-34.210938zm0 0"/><path d="m137.171875 76.800781c-3.273437 0-6.257813-1.875-7.683594-4.824219-1.421875-2.949218-1.035156-6.453124 1.003907-9.015624 13.660156-17.867188 34.753906-28.488282 57.242187-28.828126 4.710937 0 8.53125 3.820313 8.53125 8.535157 0 4.710937-3.820313 8.53125-8.53125 8.53125-17.277344.355469-33.445313 8.601562-43.878906 22.375-1.617188 2.039062-4.078125 3.226562-6.683594 3.226562zm0 0"/><path d="m123.402344 153.601562c-3.722656-.007812-7.007813-2.425781-8.125-5.972656-2.832032-8.757812-4.296875-17.894531-4.34375-27.09375-.003906-6.683594.683594-13.351562 2.054687-19.890625.605469-3.011719 2.777344-5.464843 5.691407-6.429687 2.910156-.964844 6.117187-.289063 8.398437 1.769531 2.277344 2.054687 3.273437 5.175781 2.613281 8.175781-1.136718 5.382813-1.710937 10.871094-1.707031 16.375.050781 7.457032 1.242187 14.859375 3.539063 21.953125.816406 2.59375.347656 5.417969-1.257813 7.609375-1.609375 2.191406-4.164063 3.484375-6.882813 3.484375zm0 0"/><path d="m290.132812 67.285156c-3.441406.015625-6.554687-2.042968-7.894531-5.210937-1.335937-3.171875-.640625-6.835938 1.769531-9.296875 9.863282-12.039063 24.695313-18.910156 40.257813-18.644532 4.714844 0 8.535156 3.820313 8.535156 8.535157 0 4.710937-3.820312 8.53125-8.535156 8.53125-10.945313-.191407-21.335937 4.8125-28.003906 13.492187-1.609375 1.660156-3.820313 2.59375-6.128907 2.59375zm0 0"/><path d="m452.265625 358.402344c-4.710937 0-8.53125-3.824219-8.53125-8.535156v-179.199219c0-4.714844 3.820313-8.535157 8.53125-8.535157 4.714844 0 8.535156 3.820313 8.535156 8.535157v179.199219c0 4.710937-3.820312 8.535156-8.535156 8.535156zm0 0"/><path d="m401.066406 315.734375c-4.710937 0-8.53125-3.820313-8.53125-8.535156v-59.730469c0-4.714844 3.820313-8.535156 8.53125-8.535156 4.714844 0 8.535156 3.820312 8.535156 8.535156v59.730469c0 4.714843-3.820312 8.535156-8.535156 8.535156zm0 0"/><path d="m273.066406 375.46875c-2.261718-.003906-4.433594-.902344-6.03125-2.5l-11.035156-11.035156-11.035156 11.035156c-3.347656 3.230469-8.667969 3.1875-11.960938-.105469-3.292968-3.292969-3.335937-8.613281-.101562-11.960937l17.066406-17.066406c3.332031-3.332032 8.730469-3.332032 12.066406 0l17.066406 17.066406c2.4375 2.4375 3.167969 6.109375 1.847657 9.296875-1.320313 3.1875-4.429688 5.265625-7.882813 5.269531zm0 0"/><path d="m256 426.667969c-4.710938 0-8.53125-3.820313-8.53125-8.535157v-68.265624c0-4.710938 3.820312-8.535157 8.53125-8.535157 4.714844 0 8.535156 3.824219 8.535156 8.535157v68.265624c0 4.714844-3.820312 8.535157-8.535156 8.535157zm0 0"/><path d="m145.066406 435.199219c-2.261718 0-4.433594-.898438-6.03125-2.5l-11.035156-11.03125-11.035156 11.03125c-3.347656 3.234375-8.667969 3.1875-11.960938-.101563-3.292968-3.292968-3.335937-8.617187-.101562-11.964844l17.066406-17.066406c3.332031-3.332031 8.730469-3.332031 12.066406 0l17.066406 17.066406c2.4375 2.441407 3.167969 6.113282 1.847657 9.300782-1.320313 3.1875-4.429688 5.265625-7.882813 5.265625zm0 0"/><path d="m128 512c-4.710938 0-8.53125-3.820312-8.53125-8.53125v-93.867188c0-4.714843 3.820312-8.535156 8.53125-8.535156 4.714844 0 8.535156 3.820313 8.535156 8.535156v93.867188c0 4.710938-3.820312 8.53125-8.535156 8.53125zm0 0"/><path d="m401.066406 435.199219c-2.261718 0-4.433594-.898438-6.03125-2.5l-11.035156-11.03125-11.035156 11.03125c-3.347656 3.234375-8.667969 3.1875-11.960938-.101563-3.292968-3.292968-3.335937-8.617187-.101562-11.964844l17.066406-17.066406c3.332031-3.332031 8.730469-3.332031 12.066406 0l17.066406 17.066406c2.4375 2.441407 3.167969 6.113282 1.847657 9.300782-1.320313 3.1875-4.429688 5.265625-7.882813 5.265625zm0 0"/><path d="m384 512c-4.710938 0-8.53125-3.820312-8.53125-8.53125v-93.867188c0-4.714843 3.820312-8.535156 8.53125-8.535156 4.714844 0 8.535156 3.820313 8.535156 8.535156v93.867188c0 4.710938-3.820312 8.53125-8.535156 8.53125zm0 0"/><path d="m477.867188 418.132812c-18.851563 0-34.132813-15.28125-34.132813-34.132812v-25.597656h-8.535156c-19.726563 0-42.664063-16.042969-42.664063-36.695313v-5.972656c-23.6875-.5-42.636718-19.828125-42.667968-43.519531v-30.261719c0-2.472656 1.074218-4.828125 2.945312-6.449219 43.339844-37.605468 65.320312-76.28125 65.320312-114.96875.058594-19.835937-5.214843-39.324218-15.265624-56.421875-1.578126-2.640625-1.613282-5.921875-.09375-8.59375 1.453124-2.738281 4.347656-4.394531 7.441406-4.269531 61.839844.292969 101.785156 43.828125 101.785156 110.882812v221.867188c0 18.851562-15.28125 34.132812-34.132812 34.132812zm-110.933594-172.3125v26.394532c.027344 14.597656 11.855468 26.425781 26.453125 26.453125h7.679687c4.714844 0 8.535156 3.820312 8.535156 8.53125v14.507812c0 10.402344 14.316407 19.625 25.597657 19.625h17.066406c4.714844 0 8.535156 3.824219 8.535156 8.535157v34.132812c0 9.425781 7.640625 17.066406 17.066407 17.066406 9.425781 0 17.066406-7.640625 17.066406-17.066406v-221.867188c0-52.050781-26.546875-86.476562-70.273438-92.789062 6.976563 16.164062 10.5625 33.589844 10.539063 51.199219 0 42.921875-22.960938 85.109375-68.265625 125.277343zm0 0"/><path d="m59.734375 358.402344c-4.714844 0-8.535156-3.824219-8.535156-8.535156v-179.199219c0-4.714844 3.820312-8.535157 8.535156-8.535157 4.710937 0 8.53125 3.820313 8.53125 8.535157v179.199219c0 4.710937-3.820313 8.535156-8.53125 8.535156zm0 0"/><path d="m110.933594 315.734375c-4.710938 0-8.535156-3.820313-8.535156-8.535156v-59.730469c0-4.714844 3.824218-8.535156 8.535156-8.535156 4.710937 0 8.535156 3.820312 8.535156 8.535156v59.730469c0 4.714843-3.824219 8.535156-8.535156 8.535156zm0 0"/><path d="m34.132812 418.132812c-18.851562 0-34.132812-15.28125-34.132812-34.132812v-221.867188c0-67.054687 39.945312-110.589843 101.75-110.933593h.042969c3.070312 0 5.902343 1.644531 7.421875 4.308593 1.519531 2.664063 1.492187 5.9375-.074219 8.578126-10.0625 17.105468-15.335937 36.601562-15.273437 56.449218 0 38.6875 21.980468 77.363282 65.324218 114.96875 1.867188 1.621094 2.941406 3.976563 2.941406 6.449219v30.261719c-.035156 23.6875-18.980468 43.011718-42.664062 43.519531v5.972656c0 20.652344-22.9375 36.695313-42.667969 36.695313h-8.535156v25.597656c0 18.851562-15.28125 34.132812-34.132813 34.132812zm53.214844-348.789062c-43.734375 6.3125-70.28125 40.738281-70.28125 92.789062v221.867188c0 9.425781 7.640625 17.066406 17.066406 17.066406 9.425782 0 17.066407-7.640625 17.066407-17.066406v-34.132812c0-4.710938 3.820312-8.535157 8.535156-8.535157h17.066406c11.28125 0 25.597657-9.257812 25.597657-19.625v-14.507812c0-4.710938 3.824218-8.53125 8.535156-8.53125h7.679687c14.597657-.027344 26.425781-11.855469 26.453125-26.453125v-26.367188c-45.304687-40.195312-68.265625-82.382812-68.265625-125.3125-.023437-17.605468 3.566407-35.03125 10.546875-51.191406zm0 0"/><path d="m256 477.867188c-4.710938 0-8.53125-3.820313-8.53125-8.535157v-17.066406c0-4.710937 3.820312-8.53125 8.53125-8.53125 4.714844 0 8.535156 3.820313 8.535156 8.53125v17.066406c0 4.714844-3.820312 8.535157-8.535156 8.535157zm0 0"/></svg>