<?xml version="1.0" encoding="iso-8859-1"?>
<!-- Generator: Adobe Illustrator 21.0.0, SVG Export Plug-In . SVG Version: 6.00 Build 0)  -->
<svg xmlns="http://www.w3.org/2000/svg" xmlns:xlink="http://www.w3.org/1999/xlink" version="1.1" id="Capa_1" x="0px" y="0px" viewBox="0 0 512.124 512.124" style="enable-background:new 0 0 512.124 512.124;" xml:space="preserve" width="512" height="512">
<g>
	<path style="fill:#8D6E63;" d="M422.506,440.234l-116.327-28.461l-3.157,24.048c-0.241,1.837-0.895,3.53-1.86,4.99l112.41,32.769   c7.673,2.237,15.686-2.273,17.754-9.994l1.56-5.821C434.954,450.046,430.27,442.134,422.506,440.234z"/>
	<path style="fill:#FFF176;" d="M335.73,419.003l8.209-59.966h-13.162c-10.113,0-18.659,7.497-19.975,17.524l-4.623,35.212   L335.73,419.003z"/>
	<path style="fill:#FFF9C4;" d="M301.162,440.812c-2.137,3.235-5.802,5.332-9.906,5.332h-96.582   c-5.957,0-10.991-4.416-11.766-10.322l-7.781-59.26c-1.316-10.027-9.862-17.524-19.975-17.524H141.99l12.96,94.67   c1.638,11.962,8.661,22.516,19.063,28.645l27.624,16.278c6.659,3.924,14.248,5.994,21.977,5.994h38.702   c7.729,0,15.318-2.069,21.977-5.994l27.624-16.278c10.402-6.129,17.425-16.683,19.063-28.645l0.553-4.042L301.162,440.812z"/>
	<path style="fill:#FFF176;" d="M301.162,440.812c-2.137,3.235-5.802,5.332-9.906,5.332h-4.149   c-3.368,6.667-8.6,12.326-15.19,16.209l-27.624,16.278c-6.659,3.924-14.248,5.994-21.977,5.994h-38.702   c-2.221,0-4.43-0.171-6.608-0.508l24.631,14.514c6.659,3.924,14.248,5.994,21.977,5.994h38.702c7.729,0,15.318-2.07,21.977-5.994   l27.624-16.278c10.402-6.129,17.425-16.684,19.063-28.646l0.553-4.042L301.162,440.812z"/>
	<path style="fill:#FFF9C4;" d="M116.331,315.072c4.627-3.105,7.158-8.516,6.749-14.073l-1.244-16.895l241.665-64.754   c2.625,11.62,3.606,23.835,2.682,36.377l-3.334,45.272c-0.409,5.557,2.122,10.968,6.749,14.073   c6.423,4.309,10.65,11.637,10.65,19.953c0,13.261-10.75,24.011-24.012,24.011h-25.459c-10.113,0-18.659,7.497-19.975,17.524   l-7.781,59.26c-0.775,5.906-5.809,10.322-11.766,10.322h-96.582c-5.957,0-10.991-4.416-11.766-10.322l-7.781-59.26   c-1.316-10.027-9.862-17.524-19.975-17.524h-25.459c-13.261,0-24.012-10.75-24.012-24.011   C105.681,326.71,109.908,319.382,116.331,315.072z"/>
	<path style="fill:#FFF176;" d="M369.598,315.072c-4.627-3.105-7.158-8.516-6.749-14.073l3.334-45.272   c0.924-12.542-0.057-24.757-2.682-36.377l-37.009,9.916c-0.047,2.143-0.15,4.297-0.309,6.461l-3.334,45.272   c-0.409,5.557,2.122,10.968,6.749,14.073c6.423,4.309,10.65,11.637,10.65,19.953c0,13.261-10.75,24.011-24.012,24.011h-25.459   c-10.113,0-18.659,7.497-19.975,17.524l-7.781,59.26c-0.775,5.906-5.809,10.322-11.766,10.322h-69.619l1.271,9.678   c0.775,5.906,5.809,10.322,11.766,10.322h96.582c5.957,0,10.991-4.416,11.766-10.322l7.781-59.26   c1.316-10.027,9.862-17.524,19.975-17.524h25.459c13.261,0,24.012-10.75,24.012-24.011   C380.249,326.71,376.021,319.381,369.598,315.072z"/>
	<path style="fill:#F9A825;" d="M225.723,362.542c0,9.522,7.719,11.901,17.242,11.901c9.522,0,17.242-2.379,17.242-11.901   s-7.719-34.483-17.242-34.483C233.443,328.059,225.723,353.02,225.723,362.542z"/>
	<circle style="fill:#F9A825;" cx="298.86" cy="295.518" r="36.775"/>
	<path style="fill:#546E7A;" d="M71.42,297.613l347.345-93.071c4.908-1.315,7.821-6.36,6.506-11.269l-5.281-19.707   c-1.315-4.908-6.36-7.821-11.269-6.506L61.376,260.131c-4.908,1.315-7.821,6.36-6.506,11.269l5.281,19.707   C61.466,296.016,66.511,298.928,71.42,297.613z"/>
	<path style="fill:#37474F;" d="M425.271,193.274l-5.281-19.707c-1.315-4.908-6.36-7.821-11.269-6.506l-25.933,6.949l2.482,9.264   c1.315,4.908-1.598,9.953-6.506,11.269L57.353,280.664l2.798,10.443c1.315,4.908,6.36,7.821,11.269,6.506l347.345-93.071   C423.673,203.227,426.586,198.182,425.271,193.274z"/>
	<path style="fill:#546E7A;" d="M78.4,66.5L297.163,7.883c6.016-1.612,12.173,2.072,13.596,8.136l39.144,166.802l-229.709,61.55   L70.693,80.345C68.894,74.382,72.384,68.112,78.4,66.5z"/>
	<path style="fill:#37474F;" d="M310.76,16.019c-1.423-6.064-7.58-9.748-13.596-8.136l-22.222,5.955l20.098,85.642   c8.284,35.299-12.959,70.797-47.981,80.181l-135.44,36.291l8.577,28.42l229.709-61.55L310.76,16.019z"/>
	<polygon style="fill:#FF7043;" points="338.835,135.657 349.903,182.821 120.195,244.371 106.198,197.992  "/>
	<path style="fill:#E64A19;" d="M287.158,149.504c-8.663,14.355-22.676,25.487-40.1,30.156l-135.44,36.291l5.316,17.616   l3.261,10.804l229.709-61.55l-11.068-47.164L287.158,149.504z"/>
	<polygon style="fill:#FFEE58;" points="365.102,426.189 336.351,419.155 328.419,448.758 356.835,457.041  "/>
	<path style="fill:#FF7043;" d="M422.506,440.234l-13.548-3.315l-8.777,32.757l13.39,3.903c7.673,2.237,15.686-2.273,17.754-9.994   l1.56-5.821C434.954,450.045,430.27,442.134,422.506,440.234z"/>
	<path style="fill:#F9A825;" d="M202.99,262.359c12.338,5.935,20.854,18.552,20.854,33.159c0,20.31-16.465,36.775-36.775,36.775   s-36.775-16.465-36.775-36.775c0-7.704,2.373-14.851,6.422-20.76L202.99,262.359z"/>
	<g>
		<path d="M242.965,381.943c21.527,0,24.742-12.156,24.742-19.401c0-9.778-7.712-41.983-24.742-41.983    c-17.029,0-24.741,32.205-24.741,41.983C218.223,369.788,221.438,381.943,242.965,381.943z M242.965,335.831    c3.894,3.056,9.742,18.781,9.742,26.711c0,1.961,0,4.401-9.742,4.401c-9.741,0-9.741-2.44-9.741-4.401    C233.223,354.611,239.072,338.887,242.965,335.831z"/>
		<path d="M311.956,337.821c3.957-1.224,6.173-5.424,4.949-9.381c-1.224-3.958-5.421-6.174-9.381-4.949    c-18.817,5.819-37.938-8.31-37.938-27.974c0-16.142,13.132-29.275,29.274-29.275c19.485,0,33.657,18.829,28.065,37.638    c-1.181,3.971,1.081,8.146,5.051,9.327c3.975,1.179,8.146-1.082,9.327-5.051c8.465-28.469-13.002-56.914-42.443-56.914    c-24.413,0-44.274,19.862-44.274,44.275C254.586,325.243,283.487,346.627,311.956,337.821z"/>
		<path d="M440.857,452.986c-0.449-9.189-6.845-17.658-16.567-20.038c-0.101,0,3.64,0.89-80.211-19.625l6.405-46.787h5.754    c17.375,0,31.512-14.136,31.512-31.511c0-10.524-5.223-20.312-13.972-26.181c-2.342-1.572-3.664-4.367-3.448-7.294l3.333-45.272    c0.779-10.577,0.291-21.141-1.451-31.497l48.494-12.994c8.915-2.388,14.199-11.537,11.81-20.455l-5.281-19.707    c-2.388-8.915-11.537-14.199-20.454-11.81l-51.344,13.758c-9.248-39.407-31.62-134.741-37.376-159.267    c-2.392-10.196-12.724-16.378-22.839-13.667L76.459,59.256c-10.117,2.71-15.972,13.23-12.946,23.255l7.475,24.77    c1.197,3.966,5.383,6.208,9.347,5.013c3.965-1.197,6.21-5.381,5.013-9.347l-7.475-24.771c-0.576-1.908,0.54-3.916,2.468-4.432    l218.763-58.618c1.924-0.518,3.898,0.664,4.354,2.605l26.415,112.561l-18.147,4.863c-4.001,1.072-6.375,5.185-5.304,9.186    c1.072,4,5.183,6.372,9.186,5.303l17.694-4.741c4.731,20.16,5.714,24.347,7.639,32.553l-215.666,57.788l-9.661-32.011    L281.8,158.704c4.001-1.072,6.375-5.185,5.304-9.186c-1.072-4.001-5.188-6.374-9.186-5.304l-166.64,44.651l-15.817-52.411    c-1.197-3.966-5.384-6.209-9.347-5.013c-3.965,1.197-6.21,5.381-5.013,9.347c0.169,0.559,24.815,82.225,29.678,98.34    l-51.343,13.757c-8.915,2.388-14.198,11.537-11.81,20.455l5.281,19.706c2.388,8.916,11.536,14.199,20.454,11.811    c0.101,0-1.982,0.531,41.662-11.163l0.579,7.856c0.215,2.927-1.105,5.722-3.448,7.293c-8.749,5.869-13.972,15.657-13.972,26.181    c0,17.375,14.136,31.512,31.512,31.512h5.754l12.072,88.188c1.961,14.324,10.23,26.75,22.686,34.089l27.624,16.278    c7.807,4.6,16.723,7.032,25.785,7.032h38.702c9.062,0,17.978-2.432,25.785-7.032l27.624-16.278    c11.128-6.557,18.914-17.173,21.846-29.577c0.112,0.033,73.766,21.503,73.902,21.543c11.774,3.432,23.95-3.503,27.098-15.252    C440.044,460.031,441.064,457.234,440.857,452.986z M365.979,451.894l4.468-16.676l29.283,7.164l-4.809,17.948L365.979,451.894z     M312.526,421.047l14.596,3.571l-3.964,14.794l-12.562-3.662L312.526,421.047z M337.562,443.611l4.134-15.427l14.177,3.469    l-4.298,16.043C345.797,446.011,349.022,446.951,337.562,443.611z M329.429,409.74l-14.938-3.655l3.748-28.548    c0.824-6.271,6.214-11,12.54-11h4.565L329.429,409.74z M69.478,290.369c0.101,0-0.62,0.216-1.291-0.17    c-0.278-0.161-0.642-0.47-0.792-1.033l-5.281-19.707c-0.243-0.906,0.296-1.84,1.202-2.083    c361.323-96.816,347.442-93.132,347.794-93.132c0.7,0,1.422,0.466,1.635,1.264l5.281,19.707c0.242,0.903-0.286,1.838-1.203,2.083    C351.843,214.709,134.227,273.019,69.478,290.369z M216.344,295.518c0,16.142-13.132,29.275-29.274,29.275    c-22.481,0-36.35-24.307-25.558-43.555l40.554-10.867C210.817,275.616,216.344,285.218,216.344,295.518z M113.181,335.025    c0-5.515,2.74-10.646,7.329-13.725c6.811-4.569,10.662-12.559,10.051-20.852l-0.789-10.706l14.055-3.766    c-6.1,27.756,15.146,53.816,43.243,53.816c24.413,0,44.274-19.862,44.274-44.275c0-11.186-4.31-21.826-11.639-29.873    l137.943-36.962c1.355,8.718,1.711,17.598,1.055,26.493l-3.334,45.272c-0.61,8.293,3.241,16.283,10.05,20.852    c4.589,3.079,7.329,8.21,7.329,13.725c0,9.104-7.407,16.511-16.512,16.511c-48.345,0-7.331,0-25.459,0    c-13.827,0-25.612,10.338-27.412,24.048c-0.769,5.855-5.758,43.858-7.78,59.259c-0.285,2.166-2.146,3.799-4.33,3.799h-9.635    v-18.514c0-4.142-3.358-7.5-7.5-7.5s-7.5,3.358-7.5,7.5v18.514h-16.157v-18.514c0-4.142-3.358-7.5-7.5-7.5s-7.5,3.358-7.5,7.5    v18.514h-16.157v-18.514c0-4.142-3.358-7.5-7.5-7.5s-7.5,3.358-7.5,7.5v18.514h-9.634c-2.184,0-4.045-1.633-4.33-3.799    l-7.781-59.26c-1.8-13.709-13.584-24.048-27.412-24.048c-17.467,0,16.39,0-25.459,0    C120.588,351.537,113.181,344.13,113.181,335.025z M308.109,475.891l-27.624,16.278c-5.501,3.241-11.784,4.955-18.169,4.955    h-38.702c-6.385,0-12.668-1.713-18.169-4.955l-27.624-16.278c-8.478-4.996-14.105-13.452-15.44-23.201l-11.794-86.153h4.565    c6.325,0,11.716,4.729,12.54,11l7.781,59.26c1.261,9.604,9.516,16.846,19.202,16.846h9.634v11.804c0,4.142,3.358,7.5,7.5,7.5    s7.5-3.358,7.5-7.5v-11.804h16.157v11.804c0,4.142,3.358,7.5,7.5,7.5s7.5-3.358,7.5-7.5v-11.804h16.157v11.804    c0,4.142,3.358,7.5,7.5,7.5s7.5-3.358,7.5-7.5v-11.804h9.635c4.585,0,8.848-1.623,12.202-4.35l19.683,5.738    C321.284,463.785,315.9,471.3,308.109,475.891z M409.324,464.53l4.979-18.582l6.42,1.571c3.674,0.899,5.9,4.638,4.917,8.306    c-1.693,6.318-1.624,6.226-1.999,7.008c-1.369,2.862-4.691,4.5-7.971,3.547L409.324,464.53z"/>
		<path d="M434.473,314.671c0-4.142-3.358-7.5-7.5-7.5c-4.142,0-7.5,3.358-7.5,7.5c0,5.644-1.778,8.077-4.469,11.759    c-3.279,4.486-7.359,10.069-7.359,20.61c0,10.541,4.08,16.124,7.359,20.609c2.691,3.683,4.469,6.115,4.469,11.759    c0,5.642-1.778,8.075-4.469,11.756c-3.278,4.485-7.359,10.068-7.359,20.608c0,4.142,3.358,7.5,7.5,7.5s7.5-3.358,7.5-7.5    c0-5.642,1.778-8.075,4.469-11.756c3.278-4.485,7.359-10.068,7.359-20.608c0-10.541-4.08-16.124-7.359-20.61    c-2.691-3.683-4.469-6.115-4.469-11.759s1.778-8.077,4.469-11.759C430.393,330.795,434.473,325.212,434.473,314.671z"/>
		<path d="M457.713,358.795c-2.691-3.683-4.469-6.115-4.469-11.759c0-4.142-3.358-7.5-7.5-7.5s-7.5,3.358-7.5,7.5    c0,10.541,4.081,16.124,7.359,20.609c2.692,3.683,4.47,6.116,4.47,11.759s-1.778,8.077-4.47,11.759    c-3.278,4.486-7.359,10.069-7.359,20.609c0,4.142,3.358,7.5,7.5,7.5s7.5-3.358,7.5-7.5c0-5.644,1.778-8.076,4.469-11.759    c3.279-4.486,7.359-10.069,7.359-20.61S460.991,363.28,457.713,358.795z"/>
	</g>
</g>















</svg>
