<?xml version="1.0" encoding="iso-8859-1"?>
<!-- Generator: Adobe Illustrator 19.0.0, SVG Export Plug-In . SVG Version: 6.00 Build 0)  -->
<svg version="1.1" id="Capa_1" xmlns="http://www.w3.org/2000/svg" xmlns:xlink="http://www.w3.org/1999/xlink" x="0px" y="0px"
	 viewBox="0 0 511.999 511.999" style="enable-background:new 0 0 511.999 511.999;" xml:space="preserve">
<path style="fill:#F0F2FF;" d="M325.211,186.099L325.211,186.099c-21.501-3.791-34.009-26.465-25.749-46.675l18.314-44.804
	c6.872-16.814,24.54-26.561,42.428-23.406l0,0c8.522,1.503,14.372,9.42,13.305,18.009l-8.374,67.379
	C362.718,176.047,344.506,189.502,325.211,186.099z"/>
<path style="opacity:0.15;fill:#8C6023;enable-background:new    ;" d="M325.211,186.099L325.211,186.099
	c-21.501-3.791-34.009-26.465-25.749-46.675l18.314-44.804c6.872-16.814,24.54-26.561,42.428-23.406l0,0
	c8.522,1.503,14.372,9.42,13.305,18.009l-8.374,67.379C362.718,176.047,344.506,189.502,325.211,186.099z"/>
<path style="fill:#7F9AE6;" d="M358.908,195.787c0.001-72.08-58.888-130.7-130.968-130.383
	c-67.343,0.296-122.621,51.65-129.142,117.346c-0.732,7.372-5.95,13.588-13.104,15.511c-6.58,1.768-13.388,2.884-20.34,3.281
	c-9.887,0.564-14.779,12.5-8.05,19.767c4.636,5.005,10.004,9.363,15.967,12.909c-18.001,17.369-29.2,41.74-29.2,68.73
	c0,5.881,0.534,11.637,1.553,17.224c0.792,4.34-1.64,8.653-5.741,10.281c-6.382,2.534-12.99,4.621-19.791,6.211
	c-13.457,3.146-17.106,20.678-6.104,29.043c17.946,13.646,40.615,21.398,65.134,20.356c3.864-0.164,7.672-0.556,11.415-1.152
	c14.334,8.594,31.106,13.539,49.036,13.539c44.755,0,82.314-30.788,92.667-72.338C302.528,324.145,358.907,266.551,358.908,195.787z
	"/>
<path style="fill:#F0F2FF;" d="M294.779,452.648H98.724c-19,0-32.689-18.224-27.399-36.471l0,0
	c18.293-63.095,45.658-123.197,81.237-178.421l10.152-15.759l150.164,32.355l20.498,154.229
	C336.478,431.918,318.32,452.648,294.779,452.648z"/>
<path style="fill:#DBE1FF;" d="M294.779,452.648H98.724c-19,0-32.689-18.224-27.399-36.471l0,0
	c18.293-63.095,45.658-123.197,81.237-178.421l10.152-15.759l150.164,32.355l20.498,154.229
	C336.478,431.918,318.32,452.648,294.779,452.648z"/>
<path style="fill:#909DE0;" d="M312.878,254.353l-150.164-32.355l-10.152,15.759c-12.278,19.058-23.554,38.708-33.84,58.85
	c12.108,46.261,47.833,117.402,98.799,156.042h77.258c23.543,0,41.699-20.73,38.597-44.067L312.878,254.353z"/>
<path style="fill:#F0F2FF;" d="M296.926,426.313L171.34,314.058c-41.381-36.989-43.178-101.153-3.931-140.4l0,0
	c67.896-67.896,178.899-64.788,242.89,6.801l62.528,69.953c44.046,49.277,41.943,124.374-4.791,171.11l0,0
	C421.3,468.257,346.202,470.36,296.926,426.313z"/>
<path style="fill:#DBE1FF;" d="M451.522,435.412c-164.779-2.689-271.319-179.886-238.035-294.419
	c-16.64,7.958-32.253,18.839-46.08,32.664l0,0c-39.247,39.246-37.45,103.41,3.931,140.4l125.585,112.255
	C340.74,465.478,404.969,468.153,451.522,435.412z"/>
<g>
	<ellipse style="fill:#E38892;" cx="241.667" cy="278.449" rx="30.766" ry="24.501"/>
	<ellipse style="fill:#E38892;" cx="434.823" cy="278.449" rx="30.766" ry="24.501"/>
</g>
<path style="fill:#7F9AE6;" d="M342.504,95.537c-29.914,19.149-68.425,19.372-98.539,0.67c-7.719-4.794-17.434,1.638-16.2,10.641
	c1.994,14.546,8.87,28.549,20.641,39.359c24.878,22.85,63.716,22.85,88.594,0c12.288-11.286,19.243-26.053,20.876-41.283
	C358.775,96.538,349.609,90.989,342.504,95.537z"/>
<path style="fill:#F0F2FF;" d="M200.846,201.738L200.846,201.738c-21.501-3.791-34.009-26.465-25.749-46.675l18.314-44.804
	c6.872-16.814,24.54-26.56,42.427-23.406l0,0c8.522,1.503,14.372,9.42,13.305,18.009l-8.374,67.379
	C238.353,191.687,220.142,205.141,200.846,201.738z"/>
<path style="fill:#DBE1FF;" d="M200.846,201.738L200.846,201.738c-21.501-3.791-34.009-26.465-25.749-46.675l18.314-44.804
	c6.872-16.814,24.54-26.56,42.427-23.406l0,0c8.522,1.503,14.372,9.42,13.305,18.009l-8.374,67.379
	C238.353,191.687,220.142,205.141,200.846,201.738z"/>
<path style="fill:#72CDA2;" d="M336.462,231.692L336.462,231.692c-18.233-6.975-32.636-21.378-39.61-39.61l0,0
	c-4.708-12.306-0.649-26.243,9.93-34.097l134.582-99.92c8.284-6.151,19.825-5.302,27.121,1.994l0,0
	c7.296,7.296,8.144,18.837,1.994,27.121l-99.92,134.582C362.705,232.341,348.768,236.4,336.462,231.692z"/>
<path style="opacity:0.2;fill:#2C6245;enable-background:new    ;" d="M350.359,125.63l-43.577,32.354
	c-10.579,7.854-14.637,21.791-9.93,34.097l0,0c6.975,18.233,21.378,32.635,39.61,39.61l0,0c12.306,4.708,26.243,0.649,34.097-9.93
	l7.617-10.259C334.605,209.661,338.778,162.796,350.359,125.63z"/>
<path style="fill:#E38892;" d="M468.485,60.058c-7.296-7.296-18.837-8.144-27.121-1.994l-56.196,41.722
	c14.155,9.624,34.472,19.024,58.902,22.963l26.409-35.57C476.63,78.895,475.782,67.354,468.485,60.058L468.485,60.058z"/>
<path style="fill:#F8E47C;" d="M318.157,149.538c12.653,13.32,41.419,31.377,79.245,36.068l46.668-62.857
	c-24.43-3.938-44.746-13.338-58.902-22.963L318.157,149.538z"/>
<path style="opacity:0.2;fill:#C97B00;enable-background:new    ;" d="M318.157,149.538c5.396,5.681,13.732,12.221,24.442,18.221
	c0.261-13.546,3.509-28.49,7.759-42.128L318.157,149.538z"/>
<path d="M478.418,245.414l-62.528-69.953c-0.289-0.323-0.588-0.651-0.886-0.979l61.498-82.833
	c8.303-11.184,7.137-27.046-2.713-36.896c-9.849-9.848-25.711-11.013-36.895-2.711l-56.412,41.882l0.469-3.777
	c1.561-12.559-6.98-24.121-19.446-26.32c-19.455-3.426-38.982,6.18-48.374,23.174C289.025,68.116,259.623,57.9,228.533,57.9
	c-0.207,0-0.419,0-0.627,0.001c-34.296,0.15-67.115,12.976-92.409,36.113c-25.129,22.987-40.813,54.237-44.164,87.993
	c-0.425,4.282-3.474,7.902-7.586,9.007c-6.152,1.652-12.484,2.674-18.821,3.036c-7.528,0.431-13.967,5.067-16.805,12.102
	c-2.821,6.994-1.411,14.753,3.678,20.249c3.056,3.3,6.383,6.328,9.948,9.058c-16.301,18.716-25.18,42.354-25.18,67.485
	c0,6.229,0.563,12.477,1.675,18.569c0.147,0.806-0.339,1.65-1.129,1.965c-6.1,2.421-12.401,4.399-18.731,5.879
	c-9.054,2.116-15.891,9.105-17.839,18.239c-1.96,9.185,1.451,18.412,8.901,24.077c17.576,13.365,38.946,20.987,60.982,21.887
	c-2.207,6.807-4.312,13.649-6.305,20.526c-3.185,10.984-1.072,22.528,5.797,31.672c6.869,9.144,17.369,14.388,28.805,14.388H227.77
	c4.142,0,7.5-3.357,7.5-7.5c0-4.143-3.358-7.5-7.5-7.5H98.724c-6.675,0-12.802-3.061-16.812-8.398
	c-4.009-5.336-5.242-12.073-3.383-18.485c2.874-9.914,5.985-19.756,9.313-29.521c0.118-0.295,0.223-0.596,0.303-0.908
	c13.107-38.281,29.69-75.341,49.494-110.676c5.752,16.14,15.489,30.679,28.702,42.49l125.585,112.256
	c4.555,4.072,9.321,7.766,14.256,11.094c-3.605,1.406-7.467,2.148-11.405,2.148H261.27c-4.142,0-7.5,3.357-7.5,7.5
	c0,4.143,3.358,7.5,7.5,7.5h33.508c9.545,0,18.79-2.943,26.539-8.352c18.444,9.137,38.534,13.69,58.605,13.69
	c33.892-0.001,67.718-12.963,93.417-38.66C522.854,377.309,525.086,297.623,478.418,245.414z M445.836,64.086
	c5.257-3.903,12.714-3.355,17.347,1.275c4.631,4.63,5.179,12.088,1.275,17.347l-23.643,31.845
	c-18.085-3.499-32.45-9.863-42.282-15.347L445.836,64.086z M385.464,108.909c13.535,8.423,29.255,14.92,45.546,18.851
	l-36.972,49.799c-29.634-4.581-51.942-17.465-64.12-27.409L385.464,108.909z M303.857,189.402c-3.491-9.127-0.45-19.57,7.395-25.396
	l6.286-4.667c13.571,12.073,36.898,25.589,66.519,31.661l-19.52,26.291c-5.824,7.846-16.267,10.885-25.396,7.395l0,0
	C322.923,218.483,310.061,205.621,303.857,189.402z M358.9,78.6c4.593,0.811,7.74,5.07,7.165,9.698l-1.323,10.648
	c-1.171-4.05-3.791-7.586-7.54-9.906c-5.79-3.582-12.97-3.514-18.739,0.18c-4.151,2.657-8.552,4.93-13.121,6.826
	C331.24,83.46,345.094,76.166,358.9,78.6z M131.641,244.914c0.104,3.731,0.404,7.421,0.887,11.063
	c-23.024,38.923-42.137,80.04-57.052,122.66c-20.547,0.14-40.647-6.504-56.951-18.902c-2.819-2.145-4.057-5.511-3.311-9.006
	c0.734-3.443,3.196-5.972,6.583-6.764c7.048-1.647,14.063-3.849,20.851-6.543c7.426-2.948,11.779-10.77,10.352-18.599
	c-0.95-5.207-1.432-10.549-1.432-15.878c0-24.099,9.556-46.59,26.908-63.332c1.683-1.624,2.512-3.939,2.243-6.262
	c-0.27-2.322-1.607-4.387-3.616-5.582c-5.307-3.156-10.117-7.045-14.297-11.559c-1.613-1.742-1.078-3.689-0.772-4.446
	c0.313-0.776,1.305-2.597,3.748-2.736c7.36-0.421,14.714-1.606,21.857-3.525c10.101-2.713,17.585-11.56,18.622-22.013
	c2.985-30.072,16.964-57.918,39.361-78.406c22.54-20.619,51.786-32.048,82.351-32.182c0.187-0.001,0.371-0.001,0.559-0.001
	c33.52,0,64.855,13.326,88.283,37.562c2.011,2.08,5.039,2.815,7.78,1.897c7.732-2.597,15.119-6.132,21.955-10.507
	c1.219-0.779,2.253-0.371,2.759-0.057c0.582,0.359,1.247,1.056,1.11,2.328c-0.544,5.068-1.758,10.036-3.608,14.798l-44.5,33.039
	c-1.494,1.109-2.879,2.322-4.161,3.615c-16.447,1.536-32.601-3.809-44.669-14.893c-0.366-0.336-0.733-0.699-1.099-1.055
	l4.206-33.843c1.561-12.56-6.98-24.121-19.446-26.319c-21.211-3.742-42.524,8.015-50.673,27.954l-18.314,44.804
	c-1.753,4.289-2.758,8.738-3.043,13.207c-1.07,1.015-2.072,1.987-3.006,2.921C141.65,188.81,130.831,215.998,131.641,244.914z
	 M462.731,416.218c-22.782,22.783-52.761,34.272-82.807,34.271c-27.841-0.002-55.742-9.871-78.002-29.768L176.338,308.466
	c-15.395-13.761-25.282-31.847-28.545-51.83c-0.03-0.267-0.073-0.531-0.131-0.792c-0.574-3.724-0.919-7.512-1.027-11.35
	c-0.63-22.517,6.979-43.81,21.542-60.654c0.172,0.418,0.339,0.838,0.525,1.252c4.67,10.398,13.471,18.519,24.146,22.278
	c0.824,0.29,1.665,0.428,2.491,0.428c3.093,0,5.989-1.928,7.074-5.011c1.376-3.907-0.676-8.189-4.583-9.565
	c-6.819-2.401-12.449-7.604-15.445-14.273c-1.489-3.317-2.271-6.815-2.349-10.33c-0.002-0.103,0.001-0.206-0.005-0.309
	c-0.036-3.512,0.629-7.036,2.007-10.407l18.314-44.804c5.498-13.449,19.876-21.38,34.183-18.858c4.593,0.811,7.74,5.069,7.164,9.697
	l-8.373,67.379c-0.778,6.258-3.75,12.056-8.367,16.324c-3.042,2.813-3.229,7.558-0.417,10.599c2.811,3.043,7.557,3.229,10.598,0.417
	c7.214-6.669,11.856-15.722,13.071-25.489l1.975-15.891c11.389,8.155,24.859,12.82,38.885,13.489
	c-2.359,7.688-2.235,16.131,0.774,23.996c7.726,20.196,23.74,36.21,43.936,43.936l0,0c4.267,1.632,8.704,2.417,13.099,2.417
	c11.447,0,22.606-5.326,29.7-14.881l29.298-39.462l61.354,68.64C508.602,301.69,506.624,372.326,462.731,416.218z M264.797,225.154
	c-14.366,0-26.054,11.688-26.054,26.054c0,4.143,3.358,7.5,7.5,7.5s7.5-3.357,7.5-7.5c0-6.095,4.958-11.053,11.053-11.053
	s11.053,4.958,11.053,11.053c0,4.143,3.358,7.5,7.5,7.5c4.142,0,7.5-3.357,7.5-7.5C290.85,236.842,279.163,225.154,264.797,225.154z
	 M393.144,258.708c4.142,0,7.5-3.357,7.5-7.5c0-6.095,4.958-11.053,11.053-11.053s11.053,4.958,11.053,11.053
	c0,4.143,3.358,7.5,7.5,7.5c4.142,0,7.5-3.357,7.5-7.5c0-14.365-11.687-26.054-26.054-26.054s-26.054,11.688-26.054,26.054
	C385.644,255.351,389.002,258.708,393.144,258.708z M375.169,345.029c0-4.053-3.286-7.339-7.339-7.339
	c-4.053,0-7.339,3.286-7.339,7.339c0,4.053,3.286,7.339,7.339,7.339C371.883,352.368,375.169,349.082,375.169,345.029z
	 M440.093,392.907c-3.122-2.722-7.859-2.398-10.582,0.725c-5.504,6.313-13.452,9.935-21.806,9.935s-16.302-3.621-21.806-9.935
	c-2.723-3.123-7.46-3.447-10.582-0.725c-3.122,2.723-3.446,7.46-0.725,10.582c8.354,9.582,20.424,15.077,33.113,15.077
	s24.758-5.495,33.112-15.077C443.541,400.368,443.216,395.63,440.093,392.907z M447.582,337.689c-4.053,0-7.339,3.286-7.339,7.339
	c0,4.053,3.286,7.339,7.339,7.339c4.053,0,7.339-3.286,7.339-7.339C454.921,340.975,451.636,337.689,447.582,337.689z"/>
<g>
</g>
<g>
</g>
<g>
</g>
<g>
</g>
<g>
</g>
<g>
</g>
<g>
</g>
<g>
</g>
<g>
</g>
<g>
</g>
<g>
</g>
<g>
</g>
<g>
</g>
<g>
</g>
<g>
</g>
</svg>
