<svg height="512pt" viewBox="-63 0 512 512.00089" width="512pt" xmlns="http://www.w3.org/2000/svg"><path d="m313.871094 353.164062-60.246094-22.546874v-71.914063h-121.734375v71.914063l-60.246094 22.546874c-23.945312 8.957032-39.8125 31.835938-39.8125 57.402344v89.089844c0 2.675781 2.167969 4.84375 4.84375 4.84375h312.167969c2.671875 0 4.839844-2.167969 4.839844-4.84375v-89.089844c0-25.5625-15.867188-48.445312-39.8125-57.402344zm0 0" fill="#b78358"/><path d="m313.871094 353.164062-60.246094-22.546874v-71.914063h-22.5v81.917969l60.246094 22.542968c23.945312 8.957032 39.8125 31.839844 39.8125 57.402344v83.933594h17.65625c2.675781 0 4.84375-2.167969 4.84375-4.84375v-89.089844c0-25.5625-15.867188-48.445312-39.8125-57.402344zm0 0" fill="#935d38"/><path d="m192.757812 288.449219c-53.03125-.546875-78.015624-30.175781-91-53.226563-1.003906-1.777344-3.464843-2.042968-4.828124-.523437-8.476563 9.433593-24.21875 29.859375-31.335938 45.539062-1.046875 2.3125-4.332031 2.332031-5.425781.042969-13.695313-28.609375-19.910157-79.332031-18.730469-102.3125.128906-2.480469-2.652344-4.011719-4.703125-2.605469-7.898437 5.414063-16.707031 14.003907-24.113281 21.429688-1.972656 1.980469-5.363282.40625-5.109375-2.378907 14.109375-156.214843 141.015625-211.621093 185.246093-177.023437 44.230469-34.597656 171.136719 20.808594 185.246094 177.023437.253906 2.785157-3.136718 4.359376-5.113281 2.375-7.402344-7.425781-16.210937-16.015624-24.109375-21.429687-2.050781-1.40625-4.832031.125-4.707031 2.609375 1.183593 22.980469-5.03125 73.703125-18.726563 102.3125-1.097656 2.289062-4.378906 2.269531-5.429687-.042969-7.113281-15.679687-22.855469-36.109375-31.332031-45.539062-1.363282-1.519531-3.824219-1.253907-4.828126.519531-12.984374 23.054688-37.96875 52.683594-91 53.230469zm0 0" fill="#b78358"/><path d="m317.410156 171.382812c1.273438-37.660156-29.625-69.738281-67.308594-69.8125-24.175781-.050781-45.394531 12.625-57.34375 31.710938-11.949218-19.085938-33.167968-31.761719-57.34375-31.710938-37.683593.074219-68.582031 32.152344-67.308593 69.8125.355469 10.449219 3.078125 20.292969 7.65625 29.003907h8.765625c29.757812 0 54.773437 22.328125 58.144531 51.890625l3.347656 29.34375c2.710938 23.761718 22.820313 41.710937 46.738281 41.710937 23.917969 0 44.03125-17.949219 46.738282-41.710937l3.347656-29.34375c3.371094-29.5625 28.390625-51.890625 58.144531-51.890625h8.765625c4.578125-8.710938 7.304688-18.554688 7.65625-29.003907zm0 0" fill="#fdeaaf"/><path d="m250.101562 101.570312c-3.347656-.007812-6.636718.238282-9.855468.703126 29.949218 4.839843 53.171875 34.621093 52.121094 69.109374-.316407 10.449219-2.765626 20.292969-6.886719 29.003907h-7.882813c-26.769531 0-49.273437 22.328125-52.308594 51.890625l-3.007812 29.34375c-2.210938 21.542968-17.285156 38.304687-36.117188 41.25 2.160157.304687 4.359376.460937 6.59375.460937 23.917969 0 44.027344-17.949219 46.738282-41.710937l3.347656-29.34375c3.371094-29.5625 28.390625-51.890625 58.144531-51.890625h8.765625c4.578125-8.710938 7.304688-18.554688 7.65625-29.003907 1.273438-37.660156-29.625-69.738281-67.308594-69.8125zm0 0" fill="#f8cc7c"/><path d="m211.5 246.210938c0 10.351562-8.390625 21.117187-18.742188 21.117187-10.351562 0-18.742187-10.765625-18.742187-21.117187 0-10.351563 8.390625-12.9375 18.742187-12.9375 10.351563.003906 18.742188 2.585937 18.742188 12.9375zm0 0" fill="#6e7093"/><path d="m345.488281 64.546875c0 19.40625-6.628906 37.257813-17.746093 51.4375-11.582032-25.433594-34.359376-44.703125-62.027344-51.492187 14.824218-23.148438 40.765625-38.488282 70.289062-38.488282h.058594c6.019531 11.519532 9.425781 24.640625 9.425781 38.542969zm0 0" fill="#f8cc7c"/><path d="m336.0625 26h-.058594c-3.351562 0-6.65625.210938-9.90625.59375 2.476563 7.890625 3.8125 16.285156 3.8125 24.988281 0 16.847657-5.003906 32.519531-13.597656 45.640625 4.511719 5.746094 8.367188 12.035156 11.429688 18.761719 11.117187-14.179687 17.746093-32.03125 17.746093-51.4375 0-13.902344-3.40625-27.023437-9.425781-38.546875zm0 0" fill="#d3a159"/><path d="m40.027344 64.546875c0 19.40625 6.628906 37.257813 17.746094 51.4375 11.582031-25.433594 34.359374-44.703125 62.027343-51.492187-14.824219-23.148438-40.765625-38.488282-70.289062-38.488282h-.058594c-6.019531 11.519532-9.425781 24.640625-9.425781 38.542969zm0 0" fill="#f8cc7c"/><path d="m273.328125 337.992188v12.824218c0 20.710938-7.828125 39.582032-20.667969 53.855469-1 1.113281-.542968 2.878906.871094 3.367187l17.695312 6.078126c1.640626.566406 1.917969 2.769531.464844 3.722656l-18.128906 11.902344c-.988281.644531-1.242188 1.980468-.5625 2.945312l12.953125 18.410156c1.296875 1.84375-.839844 4.148438-2.777344 2.996094l-44.164062-26.351562c-.511719-.308594-1.125-.375-1.695313-.191407-8.804687 2.816407-18.257812 4.1875-28.097656 3.757813-43.253906-1.882813-77.03125-38.199219-77.03125-81.496094v-11.824219l-28.875 10.808594v155.699219h218.894531v-155.699219zm0 0" fill="#e6eff5"/><path d="m385.46875 193.742188c-3.738281-41.453126-15.34375-78.417969-34.503906-109.925782 1.339844-6.261718 2.023437-12.707031 2.023437-19.269531 0-14.617187-3.554687-29.144531-10.277343-42.019531-1.292969-2.472656-3.914063-4.027344-6.707032-4.027344-13.136718 0-25.828125 2.789062-37.371094 7.988281-18.859374-13.527343-39.011718-22.257812-58.542968-25.324219-18.410156-2.890624-34.96875-.355468-47.332032 7.132813-12.359374-7.488281-28.921874-10.023437-47.332031-7.132813-19.53125 3.066407-39.6875 11.796876-58.546875 25.328126-11.554687-5.199219-24.261718-7.992188-37.425781-7.992188-2.792969 0-5.351563 1.554688-6.644531 4.027344-6.726563 12.875-10.28125 27.402344-10.28125 42.019531 0 6.5625.683594 13.007813 2.027344 19.269531-19.164063 31.507813-30.769532 68.472656-34.507813 109.902344-.414063 4.453125 1.933594 8.554688 5.984375 10.457031 4.054688 1.910157 8.726562 1.09375 11.910156-2.089843 5.253906-5.273438 10.695313-10.59375 15.882813-15 .070312 3.75.257812 7.820312.5625 12.101562.277343 3.949219 3.570312 6.96875 7.472656 6.96875.179687 0 .359375-.007812.539063-.019531 4.128906-.292969 7.242187-3.878907 6.949218-8.011719-.542968-7.652344-.6875-14.492188-.421875-19.765625.210938-4.015625-1.835937-7.726563-5.34375-9.6875-3.519531-1.96875-7.769531-1.773437-11.082031.503906-5.222656 3.578125-10.695312 8.324219-16.121094 13.449219 3.921875-29.324219 12.164063-56.035156 24.59375-79.707031 2.910156 6.226562 6.554688 12.152343 10.902344 17.695312 1.429688 1.824219 3.613281 2.871094 5.898438 2.871094.296874 0 .59375-.015625.890624-.050781 2.601563-.3125 4.851563-1.957032 5.9375-4.339844 10.695313-23.5 32-41.1875 56.988282-47.320312 2.351562-.578126 4.28125-2.25 5.179687-4.5.894531-2.246094.65625-4.789063-.648437-6.828126-6.605469-10.3125-15.03125-18.992187-24.71875-25.730468 36.28125-23.714844 70.417968-24.175782 86.738281-11.414063 2.714844 2.121094 6.523437 2.121094 9.238281 0 16.320313-12.761719 50.457032-12.300781 86.734375 11.414063-9.683593 6.738281-18.109375 15.417968-24.714843 25.730468-1.304688 2.039063-1.546876 4.582032-.648438 6.828126.898438 2.25 2.824219 3.921874 5.175781 4.5 24.988281 6.132812 46.292969 23.824218 56.988281 47.320312 1.085938 2.382812 3.335938 4.027344 5.9375 4.339844.300782.035156.597657.050781.890626.050781 2.289062 0 4.472656-1.046875 5.902343-2.871094 4.347657-5.542969 7.992188-11.46875 10.898438-17.695312 12.429687 23.667969 20.671875 50.375 24.597656 79.707031-5.425781-5.125-10.898437-9.871094-16.109375-13.441406-3.324219-2.285156-7.578125-2.484375-11.09375-.515625-3.507812 1.964843-5.554688 5.675781-5.347656 9.679687 1.039062 20.226563-4.0625 62.398438-14.351563 90.011719-8.273437-14.574219-20.613281-30.371094-28.09375-38.703125-2.261719-2.496094-5.609375-3.761719-8.960937-3.378906-3.339844.375-6.316406 2.347656-7.957032 5.265625-7.679687 13.632812-16.789062 24.25-27.617187 32.140625-.191406.125-.378906.257812-.5625.394531l1.25-10.949219c2.941406-25.792968 24.734375-45.242187 50.695313-45.242187h8.765624c2.785157 0 5.339844-1.542969 6.636719-4.007813 5.265625-10.011718 8.128907-20.859375 8.515625-32.242187.683594-20.277344-6.832031-39.625-21.167968-54.484375-14.320313-14.84375-33.363282-23.039063-53.621094-23.082032h-.15625c-22.355469 0-43.058594 9.738282-57.203125 26.507813-14.148438-16.769531-34.84375-26.507813-57.203125-26.507813h-.15625c-20.257813.042969-39.300782 8.238282-53.621094 23.082032-14.335938 14.859375-21.855469 34.207031-21.167969 54.484375.386719 11.382812 3.25 22.230469 8.515625 32.242187 1.296875 2.464844 3.851563 4.007813 6.636719 4.007813h8.765625c25.960938 0 47.753906 19.449219 50.695312 45.242187l1.246094 10.949219c-.179687-.136719-.367187-.269531-.558594-.394531-10.828124-7.890625-19.9375-18.503906-27.613281-32.132813-1.644531-2.925781-4.621093-4.898437-7.960937-5.273437-3.351563-.382813-6.699219.882812-8.988282 3.410156-7.457031 8.308594-19.796874 24.101562-28.0625 38.671875-4.140624-11.078125-7.75-25.25-10.402343-40.988281-.6875-4.085938-4.554688-6.839844-8.640625-6.152344-4.085938.691406-6.839844 4.558594-6.148438 8.644531 2.570313 15.261719 7.316406 36.960938 15.3125 53.644531 1.757813 3.695313 5.378906 5.980469 9.464844 5.980469h.097656c4.125-.039062 7.75-2.394531 9.460938-6.152343 5.742187-12.667969 17.671875-28.882813 26.042968-38.941407 7.429688 11.925781 16.007813 21.671875 25.917969 29.40625v51.617188l-19.683593 7.367187-24.023438 8.988282c-.058594.023437-.121094.046874-.179688.070312l-11.484374 4.300781c-23.25 8.699219-40.054688 29.328125-43.863282 53.832031-.636718 4.09375 2.167969 7.925782 6.261719 8.5625.390625.0625.777344.089844 1.160156.089844 3.632813 0 6.824219-2.644531 7.402344-6.347656 2.976563-19.160156 16.117187-35.285156 34.296875-42.089844l1.535156-.574218v137.382812h-36.472656v-65.378906c0-4.144532-3.359375-7.5-7.5-7.5-4.144531 0-7.5 3.355468-7.5 7.5v68.039062c0 6.804688 5.53125 12.339844 12.339844 12.339844h312.164062c6.804688 0 12.339844-5.535156 12.339844-12.339844v-89.089844c0-28.539062-17.957031-54.429687-44.683594-64.425781l-11.472656-4.296875c-.0625-.023437-.125-.050781-.191406-.074218l-25.324219-9.476563-18.378906-6.878906v-51.617188c9.90625-7.734375 18.484375-17.480469 25.914062-29.40625 8.386719 10.082031 20.304688 26.28125 26.042969 38.9375 1.699219 3.753907 5.316406 6.113281 9.4375 6.160157h.117188c4.085937 0 7.707031-2.285157 9.472656-5.976563 12.78125-26.699219 19.125-70.042969 19.582031-96.421875 5.1875 4.402344 10.628906 9.722656 15.890625 15.007812 3.171875 3.167969 7.839844 3.984376 11.898438 2.074219 4.042968-1.902343 6.390624-6.003906 5.976562-10.433593zm-277.957031-133.316407c-20.773438 7.664063-38.667969 22.246094-50.429688 41.042969-3.117187-5.570312-5.496093-11.472656-7.097656-17.613281-.070313-.410157-.171875-.8125-.304687-1.207031-1.425782-5.855469-2.152344-11.914063-2.152344-18.101563 0-10.652344 2.257812-21.25 6.5625-30.910156 10.492187.625 20.5625 3.382812 29.683594 7.992187.304687.1875.625.351563.949218.488282 8.628906 4.515624 16.378906 10.703124 22.789063 18.308593zm220.921875 41.042969c-11.761719-18.796875-29.65625-33.378906-50.429688-41.042969 6.421875-7.621093 14.191406-13.816406 22.847656-18.332031.285157-.128906.566407-.269531.839844-.433594 9.128906-4.617187 19.214844-7.390625 29.738282-8.019531 4.300781 9.660156 6.558593 20.253906 6.558593 30.90625 0 6.1875-.726562 12.25-2.152343 18.101563-.132813.394531-.234376.796874-.304688 1.207031-1.605469 6.140625-3.980469 12.042969-7.097656 17.613281zm-243.90625 91.417969h-4.050782c-2.980468-6.855469-4.617187-14.15625-4.875-21.757813-.546874-16.183594 5.480469-31.652344 16.96875-43.5625 11.476563-11.894531 26.695313-18.460937 42.859376-18.496094 20.789062-.039062 39.890624 10.496094 50.972656 28.191407 1.371094 2.1875 3.769531 3.519531 6.355468 3.519531 2.582032 0 4.984376-1.332031 6.355469-3.519531 11.058594-17.660157 30.058594-28.191407 50.847657-28.191407h.125c16.160156.035157 31.382812 6.601563 42.855468 18.496094 11.492188 11.910156 17.519532 27.382813 16.972656 43.5625-.257812 7.601563-1.894531 14.902344-4.875 21.757813h-4.050781c-33.589843 0-61.792969 25.164062-65.597656 58.542969l-3.347656 29.339843c-2.277344 19.988281-19.167969 35.0625-39.285157 35.0625-20.117187 0-37.007812-15.074219-39.289062-35.0625l-3.34375-29.339843c-3.804688-33.375-32.007812-58.542969-65.597656-58.542969zm6.28125 304.113281v-143l13.878906-5.195312v1.011718c0 22.921875 8.644531 44.734375 24.332031 61.414063 15.789063 16.789062 37.054688 26.582031 59.875 27.570312 9.613281.421875 19.136719-.71875 28.34375-3.386719l42.09375 25.117188c3.925781 2.34375 8.835938 1.640625 11.941407-1.710938 3.109374-3.351562 3.441406-8.300781.8125-12.039062l-9.738282-13.835938 13.460938-8.835937c3.082031-2.023437 4.710937-5.554687 4.253906-9.210937-.460938-3.65625-2.914062-6.675782-6.398438-7.871094l-10.328124-3.550782c11.328124-15.160156 17.492187-33.578124 17.492187-52.65625v-2.011718l13.878906 5.195312v142.996094zm255.371094-86.433594v86.433594h-36.472657v-137.382812l1.535157.574218c20.898437 7.820313 34.9375 28.0625 34.9375 50.375zm-80.351563-67.375v7.625c0 18.0625-6.65625 35.40625-18.742187 48.839844-2.160157 2.398438-2.964844 5.695312-2.15625 8.816406.8125 3.121094 3.113281 5.609375 6.164062 6.65625l7.257812 2.496094-8.90625 5.84375c-2.15625 1.417969-3.671874 3.6875-4.15625 6.222656-.339843 1.777344-.15625 3.617188.492188 5.289063l-22.925781-13.679688c-2.355469-1.40625-5.203125-1.730469-7.824219-.890625-8.246094 2.636719-16.820312 3.785156-25.484375 3.40625-18.890625-.820312-36.503906-8.9375-49.597656-22.859375-13.066407-13.890625-20.261719-32.054687-20.261719-51.140625v-6.625l14.828125-5.550781c2.929687-1.09375 4.871094-3.894531 4.871094-7.023437v-43.070313c5.25 25.007813 27.355469 43.285156 53.371093 43.285156 26.019532 0 48.121094-18.277343 53.371094-43.285156v43.070313c0 3.128906 1.941406 5.929687 4.871094 7.023437zm0 0"/><path d="m192.757812 274.828125c7.015626 0 13.925782-3.394531 18.964844-9.316406 4.625-5.433594 7.277344-12.46875 7.277344-19.300781 0-7.632813-3.410156-20.433594-26.242188-20.433594-22.832031 0-26.242187 12.800781-26.242187 20.433594 0 6.832031 2.652344 13.867187 7.277344 19.300781 5.039062 5.921875 11.953125 9.316406 18.964843 9.316406zm0-34.054687c11.242188 0 11.242188 3.140624 11.242188 5.4375 0 6.742187-5.675781 13.617187-11.242188 13.617187-5.570312 0-11.242187-6.875-11.242187-13.617187 0-2.296876 0-5.4375 11.242187-5.4375zm0 0"/><path d="m140.089844 183.828125c-4.144532 0-7.5-3.359375-7.5-7.5v-6.332031c0-4.144532 3.355468-7.5 7.5-7.5 4.144531 0 7.5 3.355468 7.5 7.5v6.332031c0 4.140625-3.355469 7.5-7.5 7.5zm0 0"/><path d="m245.425781 183.828125c-4.144531 0-7.5-3.359375-7.5-7.5v-6.332031c0-4.144532 3.355469-7.5 7.5-7.5 4.140625 0 7.5 3.355468 7.5 7.5v6.332031c0 4.140625-3.359375 7.5-7.5 7.5zm0 0"/></svg>