<?xml version="1.0" encoding="iso-8859-1"?>
<!-- Generator: Adobe Illustrator 18.0.0, SVG Export Plug-In . SVG Version: 6.00 Build 0)  -->
<!DOCTYPE svg PUBLIC "-//W3C//DTD SVG 1.1//EN" "http://www.w3.org/Graphics/SVG/1.1/DTD/svg11.dtd">
<svg version="1.1" id="Capa_1" xmlns="http://www.w3.org/2000/svg" xmlns:xlink="http://www.w3.org/1999/xlink" x="0px" y="0px"
	 viewBox="0 0 476.399 476.399" style="enable-background:new 0 0 476.399 476.399;" xml:space="preserve">
<g>
	<linearGradient id="SVGID_1_" gradientUnits="userSpaceOnUse" x1="46.6623" y1="218.2638" x2="46.6623" y2="239.0038">
		<stop  offset="0" style="stop-color:#FFFFFF"/>
		<stop  offset="0.1483" style="stop-color:#F3F3F3"/>
		<stop  offset="0.4168" style="stop-color:#D3D3D3"/>
		<stop  offset="0.7721" style="stop-color:#A0A0A0"/>
		<stop  offset="1" style="stop-color:#7B7B7B"/>
	</linearGradient>
	<path style="fill:url(#SVGID_1_);" d="M49.664,236.014c-0.37,0.22-0.74,0.42-1.1,0.66c-1.28,0.82-2.54,1.6-3.78,2.33
		c-1.22-4.73-2.18-12.5,1.23-20.74C47.124,225.564,48.664,232.134,49.664,236.014z"/>
	<linearGradient id="SVGID_2_" gradientUnits="userSpaceOnUse" x1="30.3603" y1="219.2538" x2="30.3603" y2="246.4338">
		<stop  offset="0" style="stop-color:#FFFFFF"/>
		<stop  offset="0.1483" style="stop-color:#F3F3F3"/>
		<stop  offset="0.4168" style="stop-color:#D3D3D3"/>
		<stop  offset="0.7721" style="stop-color:#A0A0A0"/>
		<stop  offset="1" style="stop-color:#7B7B7B"/>
	</linearGradient>
	<path style="fill:url(#SVGID_2_);" d="M24.324,219.254c3.43,9.93,8.8,18.94,12.17,24.08c-3.25,1.45-6.28,2.5-9.03,3.1
		C25.454,238.354,23.804,227.634,24.324,219.254z"/>
	<linearGradient id="SVGID_3_" gradientUnits="userSpaceOnUse" x1="24.4287" y1="140.2138" x2="24.4287" y2="122.0938">
		<stop  offset="0" style="stop-color:#FFFFFF"/>
		<stop  offset="0.2343" style="stop-color:#FCFCFC"/>
		<stop  offset="0.4049" style="stop-color:#F3F3F3"/>
		<stop  offset="0.5551" style="stop-color:#E3E3E3"/>
		<stop  offset="0.6937" style="stop-color:#CCCCCC"/>
		<stop  offset="0.8243" style="stop-color:#B0B0B0"/>
		<stop  offset="0.9473" style="stop-color:#8C8C8C"/>
		<stop  offset="1" style="stop-color:#7B7B7B"/>
	</linearGradient>
	<path style="fill:url(#SVGID_3_);" d="M23.674,122.094l4.15,4.26c-0.34,2.02-0.85,5.38-1.32,9.71l-0.64-0.86
		c-0.37,0.27-1.8,1.45-4.83,5.01C21.604,134.344,22.664,127.684,23.674,122.094z"/>
	<linearGradient id="SVGID_4_" gradientUnits="userSpaceOnUse" x1="39.8637" y1="156.1238" x2="39.8637" y2="132.9538">
		<stop  offset="0" style="stop-color:#FFFFFF"/>
		<stop  offset="0.2343" style="stop-color:#FCFCFC"/>
		<stop  offset="0.4049" style="stop-color:#F3F3F3"/>
		<stop  offset="0.5551" style="stop-color:#E3E3E3"/>
		<stop  offset="0.6937" style="stop-color:#CCCCCC"/>
		<stop  offset="0.8243" style="stop-color:#B0B0B0"/>
		<stop  offset="0.9473" style="stop-color:#8C8C8C"/>
		<stop  offset="1" style="stop-color:#7B7B7B"/>
	</linearGradient>
	<path style="fill:url(#SVGID_4_);" d="M46.294,140.144c-2.14,2.71-7.71,9.75-12.86,15.98c-0.01-9.35,0.8-17.64,1.51-23.17
		C38.484,135.774,42.284,138.184,46.294,140.144z"/>
	<linearGradient id="SVGID_5_" gradientUnits="userSpaceOnUse" x1="57.9937" y1="160.5438" x2="57.9937" y2="143.3338">
		<stop  offset="0" style="stop-color:#FFFFFF"/>
		<stop  offset="0.2343" style="stop-color:#FCFCFC"/>
		<stop  offset="0.4049" style="stop-color:#F3F3F3"/>
		<stop  offset="0.5551" style="stop-color:#E3E3E3"/>
		<stop  offset="0.6937" style="stop-color:#CCCCCC"/>
		<stop  offset="0.8243" style="stop-color:#B0B0B0"/>
		<stop  offset="0.9473" style="stop-color:#8C8C8C"/>
		<stop  offset="1" style="stop-color:#7B7B7B"/>
	</linearGradient>
	<path style="fill:url(#SVGID_5_);" d="M63.454,145.574c-4.1,4.42-7.81,9.8-10.92,14.97l1.66-17.21
		C57.204,144.324,60.304,145.064,63.454,145.574z"/>
	<linearGradient id="SVGID_6_" gradientUnits="userSpaceOnUse" x1="75.5137" y1="153.6788" x2="63.5537" y2="153.6788">
		<stop  offset="0" style="stop-color:#000000"/>
		<stop  offset="1" style="stop-color:#FF0000"/>
	</linearGradient>
	<path style="fill:url(#SVGID_6_);" d="M75.514,146.324l-5.27,13.46c-0.16,0.4-0.24,0.83-0.26,1.25c-2.5-1.18-4.67-2.12-6.43-2.84
		c3.33-4.75,7.06-9.09,10.93-11.85C74.834,146.334,75.174,146.334,75.514,146.324z"/>
	<linearGradient id="SVGID_7_" gradientUnits="userSpaceOnUse" x1="88.2887" y1="153.8038" x2="88.2887" y2="145.3745">
		<stop  offset="0" style="stop-color:#FFFFFF"/>
		<stop  offset="0.2343" style="stop-color:#FCFCFC"/>
		<stop  offset="0.4049" style="stop-color:#F3F3F3"/>
		<stop  offset="0.5551" style="stop-color:#E3E3E3"/>
		<stop  offset="0.6937" style="stop-color:#CCCCCC"/>
		<stop  offset="0.8243" style="stop-color:#B0B0B0"/>
		<stop  offset="0.9473" style="stop-color:#8C8C8C"/>
		<stop  offset="1" style="stop-color:#7B7B7B"/>
	</linearGradient>
	<path style="fill:url(#SVGID_7_);" d="M95.394,147.714l-14.21,6.09l3.19-8.16l2.54-0.22
		C89.954,145.154,92.954,146.004,95.394,147.714z"/>
	<linearGradient id="SVGID_8_" gradientUnits="userSpaceOnUse" x1="106.7737" y1="165.9438" x2="106.7737" y2="156.4338">
		<stop  offset="0" style="stop-color:#FFFFFF"/>
		<stop  offset="0.2343" style="stop-color:#FCFCFC"/>
		<stop  offset="0.4049" style="stop-color:#F3F3F3"/>
		<stop  offset="0.5551" style="stop-color:#E3E3E3"/>
		<stop  offset="0.6937" style="stop-color:#CCCCCC"/>
		<stop  offset="0.8243" style="stop-color:#B0B0B0"/>
		<stop  offset="0.9473" style="stop-color:#8C8C8C"/>
		<stop  offset="1" style="stop-color:#7B7B7B"/>
	</linearGradient>
	<path style="fill:url(#SVGID_8_);" d="M111.464,160.764l-9.38,5.18l1.53-9.51C105.904,158.434,108.594,159.904,111.464,160.764z"/>
	<linearGradient id="SVGID_9_" gradientUnits="userSpaceOnUse" x1="127.0237" y1="190.5613" x2="137.4437" y2="190.5613">
		<stop  offset="0" style="stop-color:#FFFFFF"/>
		<stop  offset="0.2343" style="stop-color:#FCFCFC"/>
		<stop  offset="0.4049" style="stop-color:#F3F3F3"/>
		<stop  offset="0.5551" style="stop-color:#E3E3E3"/>
		<stop  offset="0.6937" style="stop-color:#CCCCCC"/>
		<stop  offset="0.8243" style="stop-color:#B0B0B0"/>
		<stop  offset="0.9473" style="stop-color:#8C8C8C"/>
		<stop  offset="1" style="stop-color:#7B7B7B"/>
	</linearGradient>
	<path style="fill:url(#SVGID_9_);" d="M134.894,186.454c0.56,2.31,1.41,4.54,2.55,6.61c-2.62,1.01-6.36,1.98-10.42,1.46
		C130.324,191.924,132.904,189.124,134.894,186.454z"/>
	<linearGradient id="SVGID_10_" gradientUnits="userSpaceOnUse" x1="168.026" y1="222.7508" x2="114.1337" y2="222.7508">
		<stop  offset="0" style="stop-color:#000000"/>
		<stop  offset="1" style="stop-color:#FF0000"/>
	</linearGradient>
	<path style="fill:url(#SVGID_10_);" d="M167.044,206.274c2.03,10.15,0.92,18.01-3.39,24.01c-5.95,8.29-18.57,13.43-37.51,15.28
		c-4.22,0.42-8.22,0.46-12.01,0.25c5.53-3.68,9.69-9.14,11.85-15.77c3.13-9.61,1.39-20.17-4.66-28.25
		c-0.13-0.19-0.28-0.36-0.42-0.54c2.88,1.03,5.72,1.44,8.37,1.44c5.57-0.01,10.37-1.76,13.28-3.13c0.33,0.3,0.66,0.58,1.01,0.86
		c5.34,4.31,12.02,6.24,18.82,5.42C163.964,205.654,165.564,205.794,167.044,206.274z"/>
	<linearGradient id="SVGID_11_" gradientUnits="userSpaceOnUse" x1="95.9587" y1="229.4238" x2="95.9587" y2="269.7337">
		<stop  offset="0" style="stop-color:#000000"/>
		<stop  offset="1" style="stop-color:#FF0000"/>
	</linearGradient>
	<path style="fill:url(#SVGID_11_);" d="M57.814,261.984c-7.33-5.27-16.29-7.62-25.23-6.61c-4.48,0.5-9.54,0.6-13.93-0.47
		c1.08,0.1,2.24,0.17,3.51,0.17c8.37,0,18.71-3.93,30.74-11.68c7.41-4.78,16.67-5.01,24.16-0.6c3.72,2.19,8.29,4.46,13.66,6.39
		c1.16,0.41,6.04,1.91,7.25,2.22c8.26,2.11,17.97,3.2,28.95,2.13c21.63-2.12,35.78-8.2,43.23-18.59c1.24-1.72,2.27-3.57,3.11-5.52
		c-1.68,9.03-5.86,17.52-12.24,24.43c-9.83,10.65-23.78,16.42-38.26,15.84c-8.3-0.33-16.58-2.55-23.93-6.4l-9.1-4.78
		c-7.24-3.79-15.87-2.35-22.03,3.02C64.934,263.934,60.794,264.134,57.814,261.984z"/>
	<linearGradient id="SVGID_12_" gradientUnits="userSpaceOnUse" x1="95.5237" y1="165.4338" x2="76.7037" y2="165.4338">
		<stop  offset="0" style="stop-color:#000000"/>
		<stop  offset="1" style="stop-color:#FF0000"/>
	</linearGradient>
	<path style="fill:url(#SVGID_12_);" d="M95.524,156.364l-2.65,16.42c-0.09,0.58-0.05,1.17,0.1,1.72
		c-5.77-4.11-11.35-7.45-16.27-10.08L95.524,156.364z"/>
	<linearGradient id="SVGID_13_" gradientUnits="userSpaceOnUse" x1="133.3437" y1="177.4338" x2="96.9237" y2="177.4338">
		<stop  offset="0" style="stop-color:#000000"/>
		<stop  offset="1" style="stop-color:#FF0000"/>
	</linearGradient>
	<path style="fill:url(#SVGID_13_);" d="M132.994,168.504l0.35,3.86c-0.73,2.45-4.5,13.03-17.04,19.59
		c-0.74,0.39-1.32,0.99-1.69,1.7c-5.67-6.29-11.73-11.68-17.69-16.24c0.63-0.02,1.26-0.18,1.83-0.49l28.43-15.71
		c0.8,0.27,1.58,0.65,2.28,1.15C131.484,163.794,132.774,166.034,132.994,168.504z"/>
	<linearGradient id="SVGID_14_" gradientUnits="userSpaceOnUse" x1="173.2937" y1="143.7088" x2="179.3537" y2="143.7088">
		<stop  offset="0" style="stop-color:#FFFFFF"/>
		<stop  offset="0.2343" style="stop-color:#FCFCFC"/>
		<stop  offset="0.4049" style="stop-color:#F3F3F3"/>
		<stop  offset="0.5551" style="stop-color:#E3E3E3"/>
		<stop  offset="0.6937" style="stop-color:#CCCCCC"/>
		<stop  offset="0.8243" style="stop-color:#B0B0B0"/>
		<stop  offset="0.9473" style="stop-color:#8C8C8C"/>
		<stop  offset="1" style="stop-color:#7B7B7B"/>
	</linearGradient>
	<path style="fill:url(#SVGID_14_);" d="M179.354,141.294c-0.96,1.68-1.93,3.65-2.72,5.72c-0.32-0.49-0.64-1-0.94-1.54
		c-1.01-1.75-1.8-3.5-2.4-5.07C175.304,140.784,177.324,141.074,179.354,141.294z"/>
	<linearGradient id="SVGID_15_" gradientUnits="userSpaceOnUse" x1="183.1237" y1="148.6836" x2="203.8533" y2="148.6836">
		<stop  offset="0" style="stop-color:#FFFFFF"/>
		<stop  offset="0.2343" style="stop-color:#FCFCFC"/>
		<stop  offset="0.4049" style="stop-color:#F3F3F3"/>
		<stop  offset="0.5551" style="stop-color:#E3E3E3"/>
		<stop  offset="0.6937" style="stop-color:#CCCCCC"/>
		<stop  offset="0.8243" style="stop-color:#B0B0B0"/>
		<stop  offset="0.9473" style="stop-color:#8C8C8C"/>
		<stop  offset="1" style="stop-color:#7B7B7B"/>
	</linearGradient>
	<path style="fill:url(#SVGID_15_);" d="M203.764,139.994c0.31,4.83-0.05,11.59-3.25,15.03c-1.77,1.91-4.39,2.65-8.02,2.24
		c-3.48-0.39-6.6-1.54-9.37-3.43c0.27-3.65,3.18-8.95,5.39-12.12C193.624,141.644,198.724,141.074,203.764,139.994z"/>
	<linearGradient id="SVGID_16_" gradientUnits="userSpaceOnUse" x1="150.1037" y1="110.6144" x2="167.7737" y2="110.6144">
		<stop  offset="0" style="stop-color:#999999"/>
		<stop  offset="1" style="stop-color:#656565"/>
	</linearGradient>
	<path style="fill:url(#SVGID_16_);" d="M167.774,109.074l-15.21,4.18c-0.69-1.2-1.5-2.33-2.46-3.34
		C155.734,107.654,161.954,107.364,167.774,109.074z"/>
	<linearGradient id="SVGID_17_" gradientUnits="userSpaceOnUse" x1="33.8563" y1="70.2179" x2="33.8563" y2="102.6238">
		<stop  offset="0.0126" style="stop-color:#919191"/>
		<stop  offset="1" style="stop-color:#000000"/>
	</linearGradient>
	<path style="fill:url(#SVGID_17_);" d="M40.034,73.224l4.63,8.09c-2.45,14.6-14.26,19.65-20.53,21.31l-0.9-7.89
		c-0.93-8.17,1.68-16.38,7.17-22.52c1.29-1.45,3.14-2.17,5.08-1.96C37.414,70.454,39.074,71.544,40.034,73.224z"/>
	<linearGradient id="SVGID_18_" gradientUnits="userSpaceOnUse" x1="388.4137" y1="134.1915" x2="264.8837" y2="134.1915">
		<stop  offset="0.3425" style="stop-color:#222222"/>
		<stop  offset="1" style="stop-color:#656565"/>
	</linearGradient>
	<path style="fill:url(#SVGID_18_);" d="M376.394,138.534c3.26,4.11,6.61,8.32,12.02,11.58c-9.92,6.02-23.88,6.56-27.31,6.6
		c-8.35-3.61-14.62-6.13-17.16-7.13c-7.96-10.96-20.68-17.47-34.29-17.47h-14.03c-9.13-7.79-19.57-13.71-30.74-17.57
		c18-2.76,46.84-5.23,73.16,1.12C363.004,121.694,370.124,130.644,376.394,138.534z"/>
	<linearGradient id="SVGID_19_" gradientUnits="userSpaceOnUse" x1="115.8498" y1="47.1628" x2="314.4037" y2="391.0682">
		<stop  offset="0" style="stop-color:#666666"/>
		<stop  offset="0.3425" style="stop-color:#222222"/>
		<stop  offset="1" style="stop-color:#656565"/>
	</linearGradient>
	<path style="fill:url(#SVGID_19_);" d="M460.594,279.654l-45.28-0.61c-1.72-0.01-3.29,1.08-3.84,2.73
		c-0.56,1.65,0.02,3.47,1.43,4.5l33.29,24.36l-83.5,2.67c-1.01,0.03-2.01,0.38-2.74,1.08c-1.44,1.38-1.63,3.49-0.64,5.06
		l21.21,33.45l-79.26-39.92c-1.43-0.72-3.15-0.52-4.37,0.51c-1.23,1.03-1.72,2.69-1.25,4.22l11.13,36.71l-29.79-26.4
		c-1.19-1.06-2.9-1.31-4.34-0.64s-2.35,2.13-2.32,3.72l0.54,24.72l-8.78-9.2c-0.89-0.93-2.16-1.47-3.44-1.31
		c-2.11,0.25-3.58,2.02-3.55,4.02l0.6,48.02l-25.33-35.91c-0.7-0.98-1.8-1.6-3-1.68c-1.19-0.09-2.37,0.38-3.19,1.26l-23.62,25.33
		l1.58-25.26c0.09-1.58-0.66-3.14-2.05-3.89c-1.98-1.07-4.35-0.34-5.41,1.52c-0.07,0.11-5.79,9.93-15.23,13.49
		c2.74-12.6,0.04-24.79-8.04-36.32c-25.85-36.88-99.18-55.32-113.43-55.32c-15.23,0-38.98-2.88-46.76-19.87
		c5.65,2.73,13.18,3.65,22.27,2.63c6.96-0.79,13.94,1.05,19.66,5.16c6.05,4.35,14.46,3.89,20-1.09c3.59-3.23,8.88-3.89,13.15-1.65
		l8.82,4.63c8.4,4.41,17.85,6.94,27.33,7.32c16.82,0.65,33.03-6.04,44.46-18.41c11.23-12.16,16.63-28.49,14.89-44.92
		c-0.5-4.68-2.58-9.13-6.14-12.21c-4.02-3.49-9.22-5-14.46-4.22c-1.88,0.28-3.81,0.31-5.64-0.2c-7.72-2.16-12.64-8.2-13.29-15.37
		l-1.27-14.27c-0.33-3.61-1.71-7.09-4.13-9.79c-4.19-4.65-10.45-6.48-16.31-5.02c-4.74,1.18-9.83-0.47-12.97-4.2l-3.59-4.27
		c-4.36-5.19-11.01-7.95-17.76-7.36l-8.37,0.72c-16.01,1.38-31.65-4.43-42.87-15.93l-6.04-6.19c-1.52-1.57-2.7-3.45-3.46-5.49
		c9.75-2.37,23.45-9.89,26.84-26.73c1.99-0.07,3.99,0.83,5.3,2.72c0.48,0.69,0.72,1.51,0.87,2.34c1.31,7.13,6.72,12.77,13.8,14.38
		l40.84,9.3c7.25,1.65,14.93,1.68,22.2,0.09c2.71-0.59,5.45-0.01,7.7,1.64c2.11,1.55,3.43,3.96,3.82,6.56l3.06,20.48
		c0.33,2.18,2.36,3.69,4.55,3.36c2.18-0.33,3.69-2.37,3.36-4.55l-0.67-4.47c0.27,0.17,0.55,0.32,0.86,0.42l4.86,1.62
		c0.42,0.14,0.83,0.26,1.25,0.39c2.38,9.75,10.37,25.2,27.48,27.1c0.93,0.11,1.82,0.15,2.66,0.15c6.18,0,9.96-2.58,12.12-4.91
		c0.36-0.4,0.7-0.82,1.03-1.26c9.63,5.25,26.22,7.3,28.36,7.54c0.15,0.02,0.3,0.03,0.46,0.03c2,0,3.73-1.51,3.97-3.54
		c0.25-2.2-1.33-4.18-3.52-4.44c-7.41-0.85-19.98-3.37-25.92-6.85c0.63-2.43,1-5.15,1.06-8.17c0.05-2.2-0.07-4.22-0.22-5.82
		c4.96-1.12,10.12,0.83,13.09,5.05c4.88,6.93,12.79,10.98,21.15,10.98c1.01,0,2.02-0.06,3.04-0.18c2.19-0.26,3.76-2.25,3.5-4.44
		c-0.25-2.19-2.24-3.77-4.44-3.51c-6.52,0.77-12.93-2.09-16.71-7.46c-5.18-7.35-14.41-10.49-23-7.82
		c-14.05,4.37-28.87,4.22-42.83-0.43l-4.86-1.62c-1.58-0.52-3.25-0.01-4.28,1.18l-1.32-8.8l51.71-14.2c2.2-0.61,3.67,0.6,4.2,1.15
		c0.52,0.55,1.68,2.06,0.99,4.23c-0.38,1.21-0.17,2.54,0.59,3.57c0.75,1.03,1.95,1.64,3.22,1.64h18.03
		c21.3,0,41.82,7.75,57.79,21.83c0.74,0.65,1.68,1,2.65,1h15.52c11.38,0,22,5.61,28.41,15.01c0.45,0.66,1.1,1.18,1.85,1.47
		c0.72,0.28,68.23,26.75,96.5,50.81c-28.01,13.19-52,17.85-71.39,13.87c-1.46-0.3-2.97,0.23-3.91,1.39
		c-12,14.77-34.19,12.17-47.32,8.93l14.53-2.46c1.81-0.31,3.18-1.81,3.32-3.64c0.14-1.83-0.98-3.52-2.72-4.1
		c-0.09-0.03-3.97-1.34-9.42-3.83c15.36,2.02,29.42,1.75,30.33,1.73c1.84-0.05,3.41-1.33,3.82-3.13c0.4-1.79-0.47-3.63-2.12-4.45
		l-42.6-21.28l18.56-1.96c4.59,0.64,9.36,0.48,14.14-0.59l9.67-2.17c20.68-4.65,41.94,4.41,52.92,22.52
		c0.75,1.24,2.07,1.92,3.42,1.92c0.71,0,1.43-0.18,2.07-0.58c1.89-1.14,2.5-3.6,1.35-5.49c-12.76-21.05-37.48-31.57-61.51-26.18
		l-9.68,2.17c-14.39,3.24-28.83-3.83-35.11-17.16c-4.42-9.39-12.57-16.78-22.36-20.25l-20.45-7.27c-2.08-0.74-4.37,0.35-5.11,2.43
		c-0.74,2.08,0.35,4.37,2.43,5.11l20.45,7.27c7.79,2.76,14.28,8.64,17.8,16.12c3.12,6.61,7.84,11.99,13.52,15.84l-16.57,1.74
		c-1.76,0.19-3.2,1.52-3.51,3.27c-0.32,1.75,0.55,3.5,2.14,4.29l38.55,19.26c-10.95-0.78-24.66-2.59-34.44-6.73
		c-1.82-0.77-3.94-0.09-4.97,1.6c-1.03,1.7-0.67,3.89,0.85,5.16c6.59,5.49,14.11,9.76,20.33,12.79l-26.82,4.55
		c-2.17,0.37-3.64,2.44-3.27,4.61c0.33,1.96,2.02,3.34,3.94,3.34c0.22,0,0.45-0.02,0.67-0.06l8.84-1.5
		c1.42,0.53,2.76,0.97,3.45,1.26c0.46,0.18,11.36,4.61,24.92,5.99c2.62,0.26,5.16,0.39,7.61,0.39c13.99,0,25.25-4.28,32.97-12.58
		c14.49,2.48,31.07,0.73,49.51-5.15l18.79,11.66l-14.78,2.68c-1.21,0.22-2.31,0.92-2.91,1.99c-0.99,1.79-0.49,3.93,1.03,5.12
		L460.594,279.654z M280.084,301.784c1.1-1.92,0.43-4.37-1.49-5.46c-1.91-1.1-4.36-0.43-5.45,1.48c-0.1,0.17-8.18,14.19-19.08,24.7
		c-0.59-12.02-6.35-23.2-6.66-23.8c-0.69-1.32-2.05-2.14-3.54-2.15h-0.01c-1.48,0-2.84,0.82-3.53,2.13
		c-0.48,0.89-9.55,18.25-11.29,38.27c-9.56-20.07-13.16-50.94-13.2-51.31c-0.25-2.2-2.23-3.77-4.43-3.53
		c-2.19,0.25-3.77,2.23-3.52,4.43c0.22,1.98,5.67,48.7,22.35,66.95c0.78,0.85,1.86,1.31,2.96,1.31c0.56,0,1.13-0.12,1.67-0.37
		c1.58-0.73,2.51-2.4,2.29-4.13c-1.83-14.7,2.9-30.26,6.53-39.52c1.86,5.73,3.45,13.43,1.65,19.91c-0.45,1.63,0.16,3.36,1.54,4.34
		c1.38,0.97,3.22,0.98,4.61,0.01C267.264,324.004,279.564,302.684,280.084,301.784z"/>
	<path d="M278.594,296.324c1.92,1.09,2.59,3.54,1.49,5.46c-0.52,0.9-12.82,22.22-28.6,33.26c-1.39,0.97-3.23,0.96-4.61-0.01
		c-1.38-0.98-1.99-2.71-1.54-4.34c1.8-6.48,0.21-14.18-1.65-19.91c-3.63,9.26-8.36,24.82-6.53,39.52c0.22,1.73-0.71,3.4-2.29,4.13
		c-0.54,0.25-1.11,0.37-1.67,0.37c-1.1,0-2.18-0.46-2.96-1.31c-16.68-18.25-22.13-64.97-22.35-66.95c-0.25-2.2,1.33-4.18,3.52-4.43
		c2.2-0.24,4.18,1.33,4.43,3.53c0.04,0.37,3.64,31.24,13.2,51.31c1.74-20.02,10.81-37.38,11.29-38.27c0.69-1.31,2.05-2.13,3.53-2.13
		h0.01c1.49,0.01,2.85,0.83,3.54,2.15c0.31,0.6,6.07,11.78,6.66,23.8c10.9-10.51,18.98-24.53,19.08-24.7
		C274.234,295.894,276.684,295.224,278.594,296.324z"/>
	<path d="M474.864,280.654l-45.54-35.62l16.23-2.94c1.28-0.24,2.43-1.01,3-2.18c0.94-1.92,0.24-4.12-1.47-5.18l-22.15-13.74
		c6.53-2.5,13.25-5.46,20.2-8.92c0.7-0.35,1.32-0.86,1.73-1.53c0.99-1.66,0.68-3.67-0.59-4.93c-15.17-15.17-46.42-31.3-70.65-42.43
		c7.74-1.56,16.77-4.71,23.12-11.01c0.67-0.67,1.14-1.56,1.22-2.5c0.18-1.89-0.95-3.56-2.63-4.17c-7.23-2.58-10.52-6.71-14.68-11.94
		c-6.72-8.47-15.09-19.01-42.73-25.68c-41.58-10.03-87.5,0.55-94.11,2.18c-4-0.51-8.05-0.78-12.12-0.78h-13.74
		c-0.32-2.59-1.46-5.04-3.33-6.99c-3.12-3.23-7.74-4.51-12.08-3.32l-24.79,6.81l-2.86-1.55c-11.02-5.99-24.25-5.61-34.9,0.85
		c-2.71-0.74-5.58-0.84-8.36-0.23c-6.13,1.33-12.6,1.31-18.72-0.09l-40.83-9.29c-3.97-0.91-7.01-4.09-7.73-8.09
		c-0.74-4.17-3.29-7.74-6.99-9.79c-2.65-1.47-5.64-2.04-8.56-1.66l-3.6-6.3c-2.35-4.1-6.51-6.98-11.23-7.37
		c-4.39-0.36-8.58,1.31-11.54,4.62c-7,7.84-10.33,18.32-9.15,28.76l1.39,12.18c0.15,1.38,0.44,2.73,0.84,4.05
		c-1.14,5.41-6.01,29.51-4.68,40.48c0.13,1.1,0.63,2.15,1.49,2.85c0.77,0.63,1.65,0.9,2.51,0.9c1.25,0,2.46-0.59,3.22-1.63
		c2.27-3.08,4.1-5.45,5.58-7.28c-0.28,5.9-0.32,12.56,0.15,19.51c0.08,1.25,0.69,2.45,1.72,3.16c1.72,1.17,3.94,0.84,5.25-0.62
		c3.33-3.69,8.16-9.57,12.32-14.74l-2.49,25.97c-0.18,1.85,0.84,3.69,2.59,4.32c0.46,0.16,0.92,0.24,1.37,0.24
		c1.58,0,3.06-0.95,3.69-2.46c0.07-0.16,3.59-8.54,8.92-17.51c8.99,3.57,36.79,16.16,55.77,41.52c4.49,6,5.78,13.84,3.45,20.99
		c-2.27,6.97-7.54,12.19-14.45,14.31c-0.04,0.02-0.08,0.03-0.12,0.04c-3.42,1.03-7.09,0.9-10.45-0.31
		c-4.81-1.72-8.9-3.76-12.23-5.72c-7.37-4.34-16.01-5.33-24.01-3.07c-1.48-5.95-3.83-16.72-4.32-26.6
		c-0.08-1.63-1.15-3.05-2.68-3.58c-1.54-0.53-3.25-0.08-4.33,1.14c-6.59,7.53-9.23,15.38-9.93,22.31c-3.22-6.6-6.11-14.3-6.69-21.51
		c-0.12-1.56-1.14-2.9-2.6-3.44c-1.46-0.54-3.11-0.18-4.21,0.93c-9.81,9.8-5.47,34.25-2.99,44.87c-2.83-0.28-3.48-0.93-3.51-0.96
		c-0.27-0.29-0.13-1.97-0.06-2.88c0.22-2.84,0.65-8.12-4.79-10.84c-3.85-1.92-6.47-0.66-7.69,0.26c-4.23,3.2-3.52,11.2-2.66,15.92
		c0.23,25.5,21.08,40.12,57.32,40.12c11.9,0,82.71,17.43,106.88,51.91c8.01,11.43,9.7,23.08,5.15,35.61
		c-0.45,1.26-0.25,2.66,0.55,3.74c0.79,1.07,2.09,1.69,3.41,1.62c8.19-0.41,14.75-4.51,19.42-8.77l-1.51,24.17
		c-0.08,1.33,0.42,2.67,1.46,3.5c1.7,1.36,4.06,1.12,5.45-0.38l27.88-29.89l29.92,42.41c0.76,1.08,1.99,1.7,3.27,1.7
		c0.41,0,0.83-0.07,1.23-0.2c1.67-0.54,2.79-2.1,2.77-3.85l-0.64-50.75l8.89,9.3c0.89,0.94,2.17,1.48,3.45,1.32
		c2.12-0.27,3.58-2.06,3.53-4.07l-0.56-25.86l33.53,29.71c1.54,1.37,3.93,1.36,5.48-0.16c1.08-1.07,1.4-2.69,0.96-4.14l-12.49-41.17
		l83.84,42.24c1.87,0.94,4.19,0.3,5.28-1.59c0.76-1.32,0.63-2.97-0.18-4.25l-25.12-39.64l88.23-2.82c1.71-0.05,3.19-1.18,3.69-2.81
		c0.51-1.64-0.08-3.41-1.46-4.41l-32.55-23.82l44.61,0.59h0.04c1.12,0,2.21-0.43,2.95-1.26
		C476.984,284.684,476.634,282.034,474.864,280.654z M338.044,115.664c24.96,6.03,32.08,14.98,38.35,22.87
		c3.26,4.11,6.61,8.32,12.02,11.58c-9.92,6.02-23.88,6.56-27.31,6.6c-8.35-3.61-14.62-6.13-17.16-7.13
		c-7.96-10.96-20.68-17.47-34.29-17.47h-14.03c-9.13-7.79-19.57-13.71-30.74-17.57C282.884,111.784,311.724,109.314,338.044,115.664
		z M167.774,109.074l-15.21,4.18c-0.69-1.2-1.5-2.33-2.46-3.34C155.734,107.654,161.954,107.364,167.774,109.074z M30.404,72.214
		c1.29-1.45,3.14-2.17,5.08-1.96c1.93,0.2,3.59,1.29,4.55,2.97l4.63,8.09c-2.45,14.6-14.26,19.65-20.53,21.31l-0.9-7.89
		C22.304,86.564,24.914,78.354,30.404,72.214z M21.034,140.214c0.57-5.87,1.63-12.53,2.64-18.12l4.15,4.26
		c-0.292,1.735-0.709,4.464-1.119,7.941l-1.481,1.409l0.017,0.022C24.507,136.382,23.177,137.696,21.034,140.214z M33.434,156.124
		c-0.01-9.35,0.8-17.64,1.51-23.17c3.54,2.82,7.34,5.23,11.35,7.19C44.154,142.854,38.584,149.894,33.434,156.124z M52.534,160.544
		l1.66-17.21c3.01,0.99,6.11,1.73,9.26,2.24C59.354,149.994,55.644,155.374,52.534,160.544z M70.244,159.784
		c-0.16,0.4-0.24,0.83-0.26,1.25c-2.5-1.18-4.67-2.12-6.43-2.84c3.33-4.75,7.06-9.09,10.93-11.85c0.35-0.01,0.69-0.01,1.03-0.02
		L70.244,159.784z M92.974,174.504c-5.77-4.11-11.35-7.45-16.27-10.08l18.82-8.06l-2.65,16.42
		C92.784,173.364,92.824,173.954,92.974,174.504z M81.184,153.804l3.19-8.16l2.54-0.22c3.04-0.27,6.04,0.58,8.48,2.29
		L81.184,153.804z M116.304,191.954c-0.74,0.39-1.32,0.99-1.69,1.7c-5.67-6.29-11.73-11.68-17.69-16.24
		c0.63-0.02,1.26-0.18,1.83-0.49l28.43-15.71c0.8,0.27,1.58,0.65,2.28,1.15c2.02,1.43,3.31,3.67,3.53,6.14l0.35,3.86
		C132.614,174.814,128.844,185.394,116.304,191.954z M102.084,165.944l1.53-9.51c2.29,2,4.98,3.47,7.85,4.33L102.084,165.944z
		 M134.894,186.454c0.56,2.31,1.41,4.54,2.55,6.61c-2.62,1.01-6.36,1.98-10.42,1.46
		C130.324,191.924,132.904,189.124,134.894,186.454z M125.984,230.044c3.13-9.61,1.39-20.17-4.66-28.25
		c-0.13-0.19-0.28-0.36-0.42-0.54c2.88,1.03,5.72,1.44,8.37,1.44c5.57-0.01,10.37-1.76,13.28-3.13c0.33,0.3,0.66,0.58,1.01,0.86
		c5.34,4.31,12.02,6.24,18.82,5.42c1.58-0.19,3.18-0.05,4.66,0.43c2.03,10.15,0.92,18.01-3.39,24.01
		c-5.95,8.29-18.57,13.43-37.51,15.28c-4.22,0.42-8.22,0.46-12.01,0.25C119.664,242.134,123.824,236.674,125.984,230.044z
		 M46.014,218.264c1.11,7.3,2.65,13.87,3.65,17.75c-0.37,0.22-0.74,0.42-1.1,0.66c-1.28,0.82-2.54,1.6-3.78,2.33
		C43.564,234.274,42.604,226.504,46.014,218.264z M24.324,219.254c3.43,9.93,8.8,18.94,12.17,24.08c-3.25,1.45-6.28,2.5-9.03,3.1
		C25.454,238.354,23.804,227.634,24.324,219.254z M22.164,255.074c8.37,0,18.71-3.93,30.74-11.68c7.41-4.78,16.67-5.01,24.16-0.6
		c3.72,2.19,8.29,4.46,13.66,6.39c1.16,0.41,6.04,1.91,7.25,2.22c8.26,2.11,17.97,3.2,28.95,2.13c21.63-2.12,35.78-8.2,43.23-18.59
		c1.24-1.72,2.27-3.57,3.11-5.52c-1.68,9.03-5.86,17.52-12.24,24.43c-9.83,10.65-23.78,16.42-38.26,15.84
		c-8.3-0.33-16.58-2.55-23.93-6.4l-9.1-4.78c-7.24-3.79-15.87-2.35-22.03,3.02c-2.77,2.4-6.91,2.6-9.89,0.45
		c-7.33-5.27-16.29-7.62-25.23-6.61c-4.48,0.5-9.54,0.6-13.93-0.47C19.734,255.004,20.894,255.074,22.164,255.074z M415.314,279.044
		c-1.72-0.01-3.29,1.08-3.84,2.73c-0.56,1.65,0.02,3.47,1.43,4.5l33.29,24.36l-83.5,2.67c-1.01,0.03-2.01,0.38-2.74,1.08
		c-1.44,1.38-1.63,3.49-0.64,5.06l21.21,33.45l-79.26-39.92c-1.43-0.72-3.15-0.52-4.37,0.51c-1.23,1.03-1.72,2.69-1.25,4.22
		l11.13,36.71l-29.79-26.4c-1.19-1.06-2.9-1.31-4.34-0.64s-2.35,2.13-2.32,3.72l0.54,24.72l-8.78-9.2
		c-0.89-0.93-2.16-1.47-3.44-1.31c-2.11,0.25-3.58,2.02-3.55,4.02l0.6,48.02l-25.33-35.91c-0.7-0.98-1.8-1.6-3-1.68
		c-1.19-0.09-2.37,0.38-3.19,1.26l-23.62,25.33l1.58-25.26c0.09-1.58-0.66-3.14-2.05-3.89c-1.98-1.07-4.35-0.34-5.41,1.52
		c-0.07,0.11-5.79,9.93-15.23,13.49c2.74-12.6,0.04-24.79-8.04-36.32c-25.85-36.88-99.18-55.32-113.43-55.32
		c-15.23,0-38.98-2.88-46.76-19.87c5.65,2.73,13.18,3.65,22.27,2.63c6.96-0.79,13.94,1.05,19.66,5.16c6.05,4.35,14.46,3.89,20-1.09
		c3.59-3.23,8.88-3.89,13.15-1.65l8.82,4.63c8.4,4.41,17.85,6.94,27.33,7.32c16.82,0.65,33.03-6.04,44.46-18.41
		c11.23-12.16,16.63-28.49,14.89-44.92c-0.5-4.68-2.58-9.13-6.14-12.21c-4.02-3.49-9.22-5-14.46-4.22c-1.88,0.28-3.81,0.31-5.64-0.2
		c-7.72-2.16-12.64-8.2-13.29-15.37l-1.27-14.27c-0.33-3.61-1.71-7.09-4.13-9.79c-4.19-4.65-10.45-6.48-16.31-5.02
		c-4.74,1.18-9.83-0.47-12.97-4.2l-3.59-4.27c-4.36-5.19-11.01-7.95-17.76-7.36l-8.37,0.72c-16.01,1.38-31.65-4.43-42.87-15.93
		l-6.04-6.19c-1.52-1.57-2.7-3.45-3.46-5.49c9.75-2.37,23.45-9.89,26.84-26.73c1.99-0.07,3.99,0.83,5.3,2.72
		c0.48,0.69,0.72,1.51,0.87,2.34c1.31,7.13,6.72,12.77,13.8,14.38l40.84,9.3c7.25,1.65,14.93,1.68,22.2,0.09
		c2.71-0.59,5.45-0.01,7.7,1.64c2.11,1.55,3.43,3.96,3.82,6.56l3.06,20.48c0.33,2.18,2.36,3.69,4.55,3.36
		c2.18-0.33,3.69-2.37,3.36-4.55l-0.67-4.47c0.27,0.17,0.55,0.32,0.86,0.42l4.86,1.62c0.42,0.14,0.83,0.26,1.25,0.39
		c2.38,9.75,10.37,25.2,27.48,27.1c0.93,0.11,1.82,0.15,2.66,0.15c6.18,0,9.96-2.58,12.12-4.91c0.36-0.4,0.7-0.82,1.03-1.26
		c9.63,5.25,26.22,7.3,28.36,7.54c0.15,0.02,0.3,0.03,0.46,0.03c2,0,3.73-1.51,3.97-3.54c0.25-2.2-1.33-4.18-3.52-4.44
		c-7.41-0.85-19.98-3.37-25.92-6.85c0.63-2.43,1-5.15,1.06-8.17c0.05-2.2-0.07-4.22-0.22-5.82c4.96-1.12,10.12,0.83,13.09,5.05
		c4.88,6.93,12.79,10.98,21.15,10.98c1.01,0,2.02-0.06,3.04-0.18c2.19-0.26,3.76-2.25,3.5-4.44c-0.25-2.19-2.24-3.77-4.44-3.51
		c-6.52,0.77-12.93-2.09-16.71-7.46c-5.18-7.35-14.41-10.49-23-7.82c-14.05,4.37-28.87,4.22-42.83-0.43l-4.86-1.62
		c-1.58-0.52-3.25-0.01-4.28,1.18l-1.32-8.8l51.71-14.2c2.2-0.61,3.67,0.6,4.2,1.15c0.52,0.55,1.68,2.06,0.99,4.23
		c-0.38,1.21-0.17,2.54,0.59,3.57c0.75,1.03,1.95,1.64,3.22,1.64h18.03c21.3,0,41.82,7.75,57.79,21.83c0.74,0.65,1.68,1,2.65,1
		h15.52c11.38,0,22,5.61,28.41,15.01c0.45,0.66,1.1,1.18,1.85,1.47c0.72,0.28,68.23,26.75,96.5,50.81
		c-28.01,13.19-52,17.85-71.39,13.87c-1.46-0.3-2.97,0.23-3.91,1.39c-12,14.77-34.19,12.17-47.32,8.93l14.53-2.46
		c1.81-0.31,3.18-1.81,3.32-3.64c0.14-1.83-0.98-3.52-2.72-4.1c-0.09-0.03-3.97-1.34-9.42-3.83c15.36,2.02,29.42,1.75,30.33,1.73
		c1.84-0.05,3.41-1.33,3.82-3.13c0.4-1.79-0.47-3.63-2.12-4.45l-42.6-21.28l18.56-1.96c4.59,0.64,9.36,0.48,14.14-0.59l9.67-2.17
		c20.68-4.65,41.94,4.41,52.92,22.52c0.75,1.24,2.07,1.92,3.42,1.92c0.71,0,1.43-0.18,2.07-0.58c1.89-1.14,2.5-3.6,1.35-5.49
		c-12.76-21.05-37.48-31.57-61.51-26.18l-9.68,2.17c-14.39,3.24-28.83-3.83-35.11-17.16c-4.42-9.39-12.57-16.78-22.36-20.25
		l-20.45-7.27c-2.08-0.74-4.37,0.35-5.11,2.43c-0.74,2.08,0.35,4.37,2.43,5.11l20.45,7.27c7.79,2.76,14.28,8.64,17.8,16.12
		c3.12,6.61,7.84,11.99,13.52,15.84l-16.57,1.74c-1.76,0.19-3.2,1.52-3.51,3.27c-0.32,1.75,0.55,3.5,2.14,4.29l38.55,19.26
		c-10.95-0.78-24.66-2.59-34.44-6.73c-1.82-0.77-3.94-0.09-4.97,1.6c-1.03,1.7-0.67,3.89,0.85,5.16
		c6.59,5.49,14.11,9.76,20.33,12.79l-26.82,4.55c-2.17,0.37-3.64,2.44-3.27,4.61c0.33,1.96,2.02,3.34,3.94,3.34
		c0.22,0,0.45-0.02,0.67-0.06l8.84-1.5c1.42,0.53,2.76,0.97,3.45,1.26c0.46,0.18,11.36,4.61,24.92,5.99
		c2.62,0.26,5.16,0.39,7.61,0.39c13.99,0,25.25-4.28,32.97-12.58c14.49,2.48,31.07,0.73,49.51-5.15l18.79,11.66l-14.78,2.68
		c-1.21,0.22-2.31,0.92-2.91,1.99c-0.99,1.79-0.49,3.93,1.03,5.12l43.22,33.81L415.314,279.044z M173.294,140.404
		c2.01,0.38,4.03,0.67,6.06,0.89c-0.96,1.68-1.93,3.65-2.72,5.72c-0.32-0.49-0.64-1-0.94-1.54
		C174.684,143.724,173.894,141.974,173.294,140.404z M183.124,153.834c0.27-3.65,3.18-8.95,5.39-12.12
		c5.11-0.07,10.21-0.64,15.25-1.72c0.31,4.83-0.05,11.59-3.25,15.03c-1.77,1.91-4.39,2.65-8.02,2.24
		C189.014,156.874,185.894,155.724,183.124,153.834z"/>
</g>
<g>
</g>
<g>
</g>
<g>
</g>
<g>
</g>
<g>
</g>
<g>
</g>
<g>
</g>
<g>
</g>
<g>
</g>
<g>
</g>
<g>
</g>
<g>
</g>
<g>
</g>
<g>
</g>
<g>
</g>
</svg>
