<svg height="480pt" viewBox="-40 0 480 480.00003" width="480pt" xmlns="http://www.w3.org/2000/svg"><path d="m160 248h128v80h-128zm0 0" fill="#4398d1"/><path d="m296 96h-144v-44.167969c0-20.390625 6.191406-31.960937 16.503906-38.832031 4.886719-3.261719 10.628906-5 16.503906-5h5.984376c5.875 0 11.617187 1.738281 16.503906 5 9.996094 6.65625 23.011718 6.65625 33.007812 0 4.886719-3.261719 10.628906-5 16.503906-5h5.984376c5.875 0 11.617187 1.738281 16.503906 5 10.3125 6.871094 16.503906 18.441406 16.503906 38.832031zm0 0" fill="#995023"/><path d="m279.496094 13c-4.886719-3.261719-10.628906-5-16.503906-5h-5.984376c-4.507812.007812-8.957031 1.042969-13.007812 3.023438 1.210938.578124 2.378906 1.238281 3.496094 1.976562 10.3125 6.871094 16.503906 18.441406 16.503906 38.832031v60.167969h32v-60.167969c0-20.390625-6.191406-31.960937-16.503906-38.832031zm0 0" fill="#8f4b21"/><path d="m152 160h-16c-17.671875 0-32-14.328125-32-32s14.328125-32 32-32h176c17.671875 0 32 14.328125 32 32s-14.328125 32-32 32h-16" fill="#7a3e1a"/><path d="m152 72h144v24h-144zm0 0" fill="#e3e3e1"/><path d="m264 72h32v24h-32zm0 0" fill="#dbdbd9"/><path d="m152 104v72c0 39.765625 32.234375 72 72 72s72-32.234375 72-72v-72zm0 0" fill="#fec9a3"/><path d="m152 104h144v24h-144zm0 0" fill="#fec093"/><path d="m264 112v64c-.023438 33.582031-23.257812 62.6875-56 70.152344 21.359375 4.941406 43.808594-.148438 60.949219-13.8125 17.144531-13.667969 27.105469-34.414063 27.050781-56.339844v-64zm0 0" fill="#fec093"/><path d="m188 144c-6.628906 0-12-5.371094-12-12s5.371094-12 12-12 12 5.371094 12 12-5.371094 12-12 12zm0 0" fill="#7a3e1a"/><path d="m260 144c-6.628906 0-12-5.371094-12-12s5.371094-12 12-12 12 5.371094 12 12-5.371094 12-12 12zm0 0" fill="#7a3e1a"/><path d="m72 408v64c30.929688 0 56-25.070312 56-56v-8zm0 0" fill="#feb784"/><path d="m72 408h56v16h-56zm0 0" fill="#f4a876"/><g fill="#d13e37"><path d="m320 480v-72h56v-104c0-30.929688-25.070312-56-56-56h-192c-30.925781 0-56 25.070312-56 56v104h56v72"/><path d="m128 280h32v32h-32zm0 0"/><path d="m192 280h32v32h-32zm0 0"/><path d="m320 280h32v32h-32zm0 0"/><path d="m256 280h32v32h-32zm0 0"/><path d="m128 344h32v32h-32zm0 0"/><path d="m192 344h32v32h-32zm0 0"/><path d="m320 344h32v32h-32zm0 0"/><path d="m256 344h32v32h-32zm0 0"/><path d="m96 280h-18.535156c-3.589844 7.492188-5.457032 15.691406-5.464844 24v8h24zm0 0"/></g><path d="m192 248h32v32h-32zm0 0" fill="#dd4a43"/><path d="m128 248h32v32h-32zm0 0" fill="#dd4a43"/><path d="m256 248h32v32h-32zm0 0" fill="#dd4a43"/><path d="m96 258.078125c-7.976562 5.574219-14.363281 13.128906-18.535156 21.921875h18.535156zm0 0" fill="#dd4a43"/><path d="m352 280v-21.921875c-9.375-6.566406-20.550781-10.085937-32-10.078125v32zm0 0" fill="#dd4a43"/><path d="m72 312h24v32h-24zm0 0" fill="#dd4a43"/><path d="m256 312h32v32h-32zm0 0" fill="#dd4a43"/><path d="m192 312h32v32h-32zm0 0" fill="#dd4a43"/><path d="m128 312h32v32h-32zm0 0" fill="#dd4a43"/><path d="m224 312h32v32h-32zm0 0" fill="#c43a34"/><path d="m224 248h32v32h-32zm0 0" fill="#c43a34"/><path d="m224 344h32v32h-32zm0 0" fill="#b53630"/><path d="m224 280h32v32h-32zm0 0" fill="#b53630"/><path d="m288 312h32v32h-32zm0 0" fill="#c43a34"/><path d="m288 248h32v32h-32zm0 0" fill="#c43a34"/><path d="m288 344h32v32h-32zm0 0" fill="#b53630"/><path d="m288 280h32v32h-32zm0 0" fill="#b53630"/><path d="m352 312h24v32h-24zm0 0" fill="#c43a34"/><path d="m352 258.078125v21.921875h18.535156c-4.171875-8.792969-10.558594-16.347656-18.535156-21.921875zm0 0" fill="#c43a34"/><path d="m352 344h24v32h-24zm0 0" fill="#b53630"/><path d="m352 312h24v-8c-.007812-8.308594-1.875-16.507812-5.464844-24h-18.535156zm0 0" fill="#b53630"/><path d="m160 312h32v32h-32zm0 0" fill="#c43a34"/><path d="m160 248h32v32h-32zm0 0" fill="#c43a34"/><path d="m160 344h32v32h-32zm0 0" fill="#b53630"/><path d="m160 280h32v32h-32zm0 0" fill="#b53630"/><path d="m96 312h32v32h-32zm0 0" fill="#c43a34"/><path d="m96 344h32v32h-32zm0 0" fill="#b53630"/><path d="m96 280h32v32h-32zm0 0" fill="#b53630"/><path d="m96 280h32v-32c-11.449219-.007812-22.621094 3.511719-32 10.078125zm0 0" fill="#c43a34"/><path d="m320 312h32v32h-32zm0 0" fill="#dd4a43"/><path d="m72 344h24v32h-24zm0 0" fill="#d13e37"/><path d="m176 248 48 80 48-80zm0 0" fill="#4398d1"/><path d="m392 408h-72v-32h72zm0 0" fill="#dd4a43"/><path d="m320 480v-72h56v72" fill="#feb784"/><path d="m128 248h32v80h-32zm0 0" fill="#7a3e1a"/><path d="m288 248h32v80h-32zm0 0" fill="#7a3e1a"/><path d="m128 328v152h192v-152zm0 0" fill="#995023"/><path d="m128 456v24h192v-141.304688c-51.457031 74.960938-136.113281 105.234376-192 117.304688zm0 0" fill="#8f4b21"/><path d="m152 352h16v16h-16zm0 0" fill="#7a3e1a"/><path d="m280 352h16v16h-16zm0 0" fill="#7a3e1a"/><path d="m272 480h-96l-16-16v-72h128v72zm0 0" fill="#7a3e1a"/><path d="m224 160c26.511719 0 48 21.492188 48 48v32c0 26.507812-21.488281 48-48 48-26.507812 0-48-21.492188-48-48v-32c0-26.507812 21.492188-48 48-48zm0 0" fill="#dbdbd9"/><path d="m224 160c26.511719 0 48 21.492188 48 48v32c0 26.507812-21.488281 48-48 48-26.507812 0-48-21.492188-48-48v-32c0-26.507812 21.492188-48 48-48zm0 0" fill="#e3e3e1"/><path d="m304 176h-8v-48h8c13.253906 0 24 10.746094 24 24s-10.746094 24-24 24zm0 0" fill="#feb784"/><path d="m144 128h8v48h-8c-13.253906 0-24-10.746094-24-24s10.746094-24 24-24zm0 0" fill="#feb784"/><path d="m40 176h32v192h-32zm0 0" fill="#995023"/><path d="m40 448h32v32h-32zm0 0" fill="#995023"/><path d="m114.34375 2.34375c-11.785156 11.71875-18.390625 27.667969-18.34375 44.289062v65.367188c-.042969 10.132812-6.445312 19.148438-16 22.527344v-87.894532c-.035156-12.375 4.882812-24.25 13.65625-32.976562l-11.3125-11.3125c-11.785156 11.71875-18.390625 27.667969-18.34375 44.289062v89.367188h-16v-89.367188c-.035156-12.375 4.882812-24.25 13.65625-32.976562l-11.3125-11.3125c-11.785156 11.71875-18.390625 27.667969-18.34375 44.289062v87.894532c-9.554688-3.378906-15.957031-12.394532-16-22.527344v-65.367188c-.035156-12.375 4.882812-24.25 13.65625-32.976562l-11.3125-11.3125c-11.785156 11.71875-18.390625 27.667969-18.34375 44.289062v65.367188c.0273438 22.082031 17.917969 39.972656 40 40v24h32v-24c22.082031-.027344 39.972656-17.917969 40-40v-65.367188c-.035156-12.375 4.882812-24.25 13.65625-32.976562zm0 0" fill="#dbdbd9"/><path d="m24 368h48c8.835938 0 16 7.164062 16 16v48c0 8.835938-7.164062 16-16 16h-48zm0 0" fill="#fec9a3"/><path d="m224 208c-8.347656-.351562-16.1875-4.109375-21.6875-10.398438l11.375-11.203124c2.269531 3.492187 6.148438 5.601562 10.3125 5.601562s8.042969-2.109375 10.3125-5.601562l11.375 11.203124c-5.5 6.289063-13.339844 10.046876-21.6875 10.398438zm0 0" fill="#995023"/><path d="m320 408h56v16h-56zm0 0" fill="#f4a876"/><path d="m178.953125 256.433594c8.023437 21.804687 30.511719 34.734375 53.394531 30.695312 22.882813-4.042968 39.585938-23.894531 39.652344-47.128906v-32c-.007812-6.988281-1.546875-13.886719-4.511719-20.214844-19.488281 44.214844-51.488281 60.214844-88.535156 68.648438zm0 0" fill="#dbdbd9"/><path d="m188 120c-6.628906 0-12 5.371094-12 12s5.371094 12 12 12 12-5.371094 12-12-5.371094-12-12-12zm0 0"/><path d="m260 120c-6.628906 0-12 5.371094-12 12s5.371094 12 12 12 12-5.371094 12-12-5.371094-12-12-12zm0 0"/><path d="m152 352h16v16h-16zm0 0"/><path d="m280 352h16v16h-16zm0 0"/><path d="m152 456c0 2.121094.84375 4.15625 2.34375 5.65625l16 16c1.5 1.5 3.535156 2.34375 5.65625 2.34375h96c2.121094 0 4.15625-.84375 5.65625-2.34375l16-16c1.5-1.5 2.34375-3.535156 2.34375-5.65625v-64c0-4.417969-3.582031-8-8-8h-128c-4.417969 0-8 3.582031-8 8zm16-56h112v52.6875l-11.3125 11.3125h-89.375l-11.3125-11.3125zm0 0"/><path d="m32 360h-8c-4.417969 0-8 3.582031-8 8v80c0 4.417969 3.582031 8 8 8h8v24h16v-24h16v24h16v-.550781c15.480469-1.964844 29.707031-9.527344 40-21.257813v21.808594h16v-144h176v144h16v-56h40v56h16v-56h8c4.417969 0 8-3.582031 8-8v-32c0-4.417969-3.582031-8-8-8h-8v-72c-.039062-35.328125-28.671875-63.960938-64-64h-40v-7.023438c13.328125-13.078124 21.667969-30.402343 23.578125-48.976562h.421875c14.144531-.050781 26.574219-9.398438 30.542969-22.976562 14.480469-9.894532 20.824219-28.066407 15.652343-44.824219-5.175781-16.753907-20.660156-28.1875-38.195312-28.199219h-8v-36.167969c0-21.601562-6.558594-36.488281-20.070312-45.496093-6.199219-4.140626-13.484376-6.3437505-20.9375-6.335938h-5.984376c-7.453124-.0078125-14.738281 2.195312-20.9375 6.335938-7.304687 4.886718-16.835937 4.886718-24.140624 0-6.199219-4.140626-13.484376-6.3437505-20.9375-6.335938h-5.984376c-7.453124-.0078125-14.738281 2.195312-20.9375 6.335938-13.511718 9.007812-20.070312 23.886718-20.070312 45.496093v36.167969h-8c-8.683594.03125-17.117188 2.914062-24 8.207031v-49.597656c-.035156-12.375 4.882812-24.25 13.65625-32.976563l-11.3125-11.289062c-11.785156 11.71875-18.390625 27.667969-18.34375 44.289062v65.367188c-.042969 10.132812-6.445312 19.148438-16 22.527344v-87.894532c-.035156-12.375 4.882812-24.25 13.65625-32.976562l-11.3125-11.3125c-11.785156 11.71875-18.390625 27.667969-18.34375 44.289062v89.367188h-16v-89.367188c-.035156-12.375 4.882812-24.25 13.65625-32.976562l-11.3125-11.3125c-11.785156 11.71875-18.390625 27.667969-18.34375 44.289062v87.894532c-9.554688-3.378906-15.957031-12.394532-16-22.527344v-65.367188c-.035156-12.375 4.882812-24.25 13.65625-32.976562l-11.3125-11.3125c-11.785156 11.71875-18.390625 27.667969-18.34375 44.289062v65.367188c.0234375 19 13.390625 35.371094 32 39.199219zm16-176h16v176h-16zm48 208h24v16h-24zm24-64v48h-25.472656c-2.417969-6.777344-7.75-12.109375-14.527344-14.527344v-57.472656c.042969-23.398438 16.933594-43.359375 40-47.28125zm-80 112h-8v-64h40c4.417969 0 8 3.582031 8 8v48c0 4.417969-3.582031 8-8 8zm40 23.273438v-8.746094c9.554688-3.378906 15.957031-12.394532 16-22.527344v-8h23.335938c-3.449219 20.113281-19.21875 35.855469-39.335938 39.273438zm56-143.273438v-64h16v64zm34.398438-64c3.035156 10.101562 8.859374 19.140625 16.800781 26.078125l22.6875 37.921875h-41.886719v-64zm53.601562 24c-22.082031-.027344-39.972656-17.917969-40-40v-32c0-22.089844 17.910156-40 40-40s40 17.910156 40 40v32c-.027344 22.082031-17.917969 39.972656-40 40zm10.257812 15.015625-10.257812 17.359375-10.398438-17.390625c3.425782.664063 6.90625 1.003906 10.398438 1.015625 3.441406-.015625 6.875-.34375 10.257812-.984375zm149.742188 112.984375h-56v-16h56zm-16-104v72h-40v-119.28125c23.066406 3.921875 39.957031 23.882812 40 47.28125zm-56-48v64h-16v-64zm-32 0v64h-41.953125l22.136719-37.335938c8.273437-7.011718 14.339844-16.273437 17.457031-26.664062zm-.054688-49.046875c-.515624-30.53125-25.414062-55.007813-55.945312-55.007813s-55.425781 24.476563-55.945312 55.007813c-5.261719-9.46875-8.03125-20.121094-8.054688-30.953125v-72h128v72c-.023438 10.832031-2.792969 21.484375-8.054688 30.953125zm24.054688-38.953125v-32c8.835938 0 16 7.164062 16 16s-7.164062 16-16 16zm8-64c8.394531.003906 16.175781 4.394531 20.519531 11.578125s4.621094 16.113281.730469 23.550781c-5.101562-11.609375-16.570312-19.109375-29.25-19.128906v-16zm-139.054688-84.34375c3.570313-2.386719 7.769532-3.660156 12.0625-3.65625h5.984376c4.296874-.003906 8.496093 1.269531 12.0625 3.65625 12.679687 8.476562 29.214843 8.476562 41.890624 0 3.570313-2.386719 7.769532-3.660156 12.0625-3.65625h5.984376c4.296874-.003906 8.496093 1.269531 12.0625 3.65625 5.554687 3.695312 12.945312 11.0625 12.945312 32.175781v4.167969h-128v-4.167969c0-21.113281 7.390625-28.480469 12.945312-32.175781zm-12.945312 52.34375h128v16h-128zm-24 32h8v16c-12.628906.023438-24.058594 7.472656-29.183594 19.015625-3.964844-7.40625-3.726562-16.351563.621094-23.539063s12.164062-11.550781 20.5625-11.476562zm-8 48c0-8.835938 7.164062-16 16-16v32c-8.835938 0-16-7.164062-16-16zm-29.480469-10.289062c2.863281 7.789062 8.070313 14.496093 14.90625 19.199218 3.925781 13.636719 16.382813 23.042969 30.574219 23.089844h.425781c1.90625 18.574219 10.246094 35.898438 23.574219 48.976562v7.023438h-40c-18.394531.011719-35.890625 7.960938-48 21.808594v-110.609375c6.90625-1.460938 13.300781-4.734375 18.519531-9.488281zm-34.519531 26.289062h-16v-16h16zm0 0"/><path d="m213.6875 186.398438-11.375 11.203124c5.289062 6.558594 13.261719 10.375 21.6875 10.375s16.398438-3.816406 21.6875-10.375l-11.375-11.203124c-2.269531 3.492187-6.148438 5.601562-10.3125 5.601562s-8.042969-2.109375-10.3125-5.601562zm0 0"/></svg>