<?xml version="1.0" encoding="iso-8859-1"?>
<!-- Generator: Adobe Illustrator 19.0.0, SVG Export Plug-In . SVG Version: 6.00 Build 0)  -->
<svg version="1.1" id="Capa_1" xmlns="http://www.w3.org/2000/svg" xmlns:xlink="http://www.w3.org/1999/xlink" x="0px" y="0px"
	 viewBox="0 0 512.001 512.001" style="enable-background:new 0 0 512.001 512.001;" xml:space="preserve">
<g>
	<path style="fill:#FA9E3E;" d="M126.892,223.99h49.369v56.61h-49.369c-15.632,0-28.305-12.673-28.305-28.305
		S111.259,223.99,126.892,223.99z"/>
	<path style="fill:#FA9E3E;" d="M387.213,223.99h-49.369v56.61h49.369c15.632,0,28.305-12.673,28.305-28.305
		S402.846,223.99,387.213,223.99z"/>
</g>
<path style="fill:#B19D7D;" d="M204.125,363.444H309.98c41.621,0,75.362,33.741,75.362,75.362V504.5H128.764v-65.694
	C128.764,397.184,162.504,363.444,204.125,363.444z"/>
<g>
	<path style="fill:#E7CF90;" d="M309.982,363.44h-0.124l-42.555,52.893l51.322,88.167h66.717v-65.69
		C385.342,397.18,351.603,363.44,309.982,363.44z"/>
	<path style="fill:#E7CF90;" d="M246.801,416.333l-42.555-52.893h-0.123c-13.98,0-27.06,3.81-38.28,10.44
		c-7.56,4.46-14.27,10.21-19.83,16.93c-10.78,13.04-17.25,29.77-17.25,48v65.69h66.717L246.801,416.333z"/>
</g>
<path style="fill:#D3B97D;" d="M309.98,363.444h-22.632c41.621,0,75.362,33.741,75.362,75.362V504.5h22.632v-65.695
	C385.342,397.184,351.601,363.444,309.98,363.444z"/>
<path style="fill:#C6AA71;" d="M342.053,367.67c-1.02-7.82-7.68-13.67-15.57-13.67h-5.33h-128.2h-5.33
	c-7.89,0-14.55,5.85-15.57,13.67l-10.92,83.83l61.89-35.06c8.59,4.86,18.5,7.64,29.04,7.64h9.98c10.55,0,20.46-2.78,29.04-7.64
	l61.89,35.06L342.053,367.67z"/>
<path style="fill:#FA9E3E;" d="M299.153,267.73v97.244c0,20.493-16.613,37.106-37.106,37.106h-9.989
	c-20.493,0-37.106-16.613-37.106-37.106V267.73H299.153z"/>
<path style="fill:#484655;" d="M118.053,148.59v57.265c0,34.173,27.702,61.875,61.875,61.875h154.25
	c34.173,0,61.875-27.702,61.875-61.875V148.59H118.053z"/>
<path style="fill:#FFB56B;" d="M257.053,342.79L257.053,342.79c-61.919,0-112.115-50.195-112.115-112.115V117.281h224.229v113.394
	C369.167,292.595,318.971,342.79,257.053,342.79z"/>
<path style="fill:#EF9245;" d="M345.833,117.281v125.062c0,53.578-41.949,97.354-94.795,100.286
	c1.992,0.105,3.996,0.161,6.014,0.161l0,0c61.919,0,112.115-50.195,112.115-112.115V117.281H345.833z"/>
<ellipse style="fill:#C6AA71;" cx="256" cy="174.69" rx="103.41" ry="56.769"/>
<path style="fill:#B19D7D;" d="M411.327,130.037c-11.638-20.92-27.544-29.256-110.477-84.641
	c-13.067-8.726-28.758-13.426-44.853-13.426l0,0c-16.095,0-31.786,4.7-44.853,13.426c-82.933,55.384-98.839,63.72-110.476,84.641
	c-10.65,19.145,0.159,39.214,19.338,37.005h271.983C411.168,169.252,421.977,149.182,411.327,130.037z"/>
<path style="fill:#E7CF90;" d="M247.512,27.016C190.52,46.085,117.911,92.89,117.911,167.053
	c92.058,34.769,184.116,34.769,276.174,0c0-74.163-72.609-120.968-129.601-140.036C258.957,25.167,253.039,25.167,247.512,27.016z"
	/>
<path style="fill:#C6AA71;" d="M255.248,27.322c48.418,21.099,108.865,70.025,119.723,146.433
	c6.371-2.073,12.743-4.296,19.114-6.702c0-74.163-72.609-120.968-129.601-140.037c-4.274-1.43-8.781-1.741-13.161-0.959
	C252.646,26.339,253.958,26.76,255.248,27.322z"/>
<path d="M402.145,219.757c0.93-4.559,1.408-9.209,1.408-13.896v-32.483c6.169-1.945,11.44-5.961,14.939-11.606
	c6.294-10.152,6.063-23.378-0.614-35.375c-9.049-16.282-20.628-25.647-55.476-49.054c-2.136-2.183-4.349-4.344-6.658-6.478
	c-18.038-16.667-38.214-28.836-55.861-37.428c5.597-3.339,9.17-8.735,9.17-14.936c0-10.374-9.993-18.5-22.75-18.5
	c-7.984,0-21.848,6.361-29.25,10.069C249.651,6.361,235.786,0,227.803,0c-12.757,0-22.75,8.126-22.75,18.5
	c0,5.859,3.189,11,8.263,14.367c-6.977,3.36-13.774,6.979-20.245,10.826c-3.561,2.117-4.731,6.72-2.615,10.279
	c2.117,3.562,6.722,4.73,10.279,2.615c15.148-9.006,32.146-16.769,49.157-22.455c3.995-1.336,8.217-1.336,12.212,0
	c18.605,6.223,54.187,20.7,83.461,47.749c2.306,2.13,4.511,4.287,6.624,6.467c0.03,0.031,0.061,0.062,0.092,0.093
	c21.393,22.112,32.868,46.76,34.177,73.438c-6.566,2.39-13.104,4.591-19.51,6.565c-0.01,0.003-0.019,0.006-0.029,0.009
	c-0.446,0.14-0.904,0.279-1.357,0.418c-2.667,0.819-5.433,1.635-8.425,2.48c-33.555,9.468-67.347,14.202-101.139,14.202
	s-67.585-4.735-101.142-14.203c-2.595-0.73-5.188-1.493-7.745-2.28c-7.119-2.149-14.352-4.561-21.566-7.188
	c2.047-40.674,27.975-70.037,49.867-87.753c3.22-2.605,3.718-7.328,1.112-10.548c-2.605-3.22-7.326-3.72-10.548-1.112
	c-5.895,4.77-11.331,9.72-16.316,14.829c-34.9,23.44-46.486,32.806-55.54,49.095c-6.674,11.995-6.902,25.218-0.61,35.37
	c3.89,6.279,9.975,10.537,17.044,12.179v31.918c0,4.688,0.478,9.338,1.407,13.896c-12.446,5.74-20.877,18.402-20.877,32.533
	c0,19.746,16.064,35.811,35.81,35.811h25.235c12.434,22.703,31.821,40.731,55.325,51.439v6.961h-19.83
	c-11.337,0-21.009,8.282-22.863,19.388c-0.919,0.497-1.833,1.004-2.728,1.532c-8.3,4.898-15.634,11.158-21.8,18.611
	c-12.232,14.796-18.97,33.54-18.97,52.779v65.69c0,4.143,3.357,7.5,7.5,7.5h66.695c0.005,0,0.01,0.001,0.015,0.001
	s0.01-0.001,0.015-0.001h123.138h66.717c4.143,0,7.5-3.357,7.5-7.5v-65.69c0-17.856-5.591-34.866-16.168-49.189
	c-2.462-3.334-7.159-4.04-10.488-1.578c-3.332,2.461-4.039,7.156-1.578,10.488c8.658,11.725,13.234,25.653,13.234,40.279V497
	h-54.904l-40.047-68.796c2.745-0.905,5.438-1.968,8.046-3.226l58.339,33.048c1.149,0.651,2.424,0.975,3.696,0.975
	c1.465,0,2.926-0.429,4.189-1.278c2.357-1.587,3.616-4.371,3.249-7.19L349.49,366.7c-1.502-11.516-11.393-20.2-23.008-20.2h-19.83
	v-6.961c23.508-10.711,42.895-28.74,55.325-51.438h25.236c19.745,0,35.81-16.064,35.81-35.811
	C423.022,238.159,414.591,225.497,402.145,219.757z M286.303,15c4.822,0,7.75,2.431,7.75,3.5s-2.928,3.5-7.75,3.5
	c-2.111,0-6.522-1.435-11.57-3.5C279.78,16.435,284.191,15,286.303,15z M227.803,15c2.111,0,6.522,1.435,11.57,3.5
	c-5.048,2.065-9.459,3.5-11.57,3.5c-4.822,0-7.75-2.431-7.75-3.5S222.98,15,227.803,15z M385.174,224.764
	c-0.09,0.244-0.193,0.482-0.286,0.724c-0.212,0.548-0.422,1.096-0.651,1.635c-0.126,0.296-0.265,0.586-0.396,0.879
	c-0.213,0.477-0.422,0.956-0.648,1.426c-0.151,0.314-0.314,0.621-0.471,0.931c-0.222,0.44-0.441,0.883-0.675,1.316
	c-0.173,0.321-0.359,0.635-0.539,0.953c-0.234,0.413-0.465,0.828-0.709,1.234c-0.193,0.322-0.398,0.636-0.598,0.953
	c-0.247,0.392-0.491,0.785-0.748,1.17c-0.213,0.319-0.436,0.631-0.655,0.946c-0.26,0.372-0.517,0.746-0.786,1.111
	c-0.231,0.314-0.472,0.622-0.71,0.931c-0.272,0.354-0.543,0.709-0.824,1.056c-0.064,0.079-0.131,0.155-0.195,0.233
	c0.045-0.552,0.083-1.107,0.121-1.668c0.002-0.027,0.003-0.053,0.005-0.08c0.007-0.112,0.013-0.224,0.02-0.336
	c0.008-0.132,0.018-0.267,0.023-0.398c0.026-0.375,0.045-0.75,0.063-1.125l0.026-0.507c0.002-0.036,0.004-0.071,0.005-0.107
	c0.015-0.352,0.021-0.681,0.033-1.024c0.011-0.309,0.021-0.618,0.03-0.927c0.032-1.161,0.054-2.3,0.054-3.414V181.1
	c3.931-1.271,7.902-2.623,11.89-4.043v28.804c0,5.619-0.857,11.167-2.549,16.491C385.746,223.164,385.467,223.968,385.174,224.764z
	 M137.627,240.031c-0.281-0.347-0.552-0.702-0.824-1.056c-0.238-0.31-0.479-0.617-0.711-0.931c-0.268-0.365-0.525-0.737-0.784-1.109
	c-0.22-0.316-0.444-0.629-0.658-0.949c-0.255-0.383-0.499-0.775-0.744-1.165c-0.201-0.319-0.407-0.635-0.601-0.958
	c-0.243-0.404-0.472-0.816-0.704-1.226c-0.182-0.321-0.369-0.638-0.544-0.962c-0.23-0.427-0.446-0.863-0.665-1.297
	c-0.16-0.317-0.327-0.63-0.482-0.951c-0.222-0.462-0.428-0.934-0.637-1.403c-0.134-0.301-0.277-0.598-0.406-0.902
	c-0.223-0.526-0.428-1.062-0.635-1.596c-0.099-0.256-0.207-0.507-0.302-0.764c-0.294-0.796-0.572-1.599-0.829-2.412
	c-1.69-5.321-2.548-10.869-2.548-16.488v-28.063c3.978,1.392,7.946,2.721,11.89,3.971v48.911c0,1.113,0.022,2.252,0.054,3.414
	c0.009,0.309,0.019,0.617,0.03,0.926c0.012,0.344,0.018,0.673,0.033,1.024c0.001,0.036,0.003,0.071,0.005,0.107l0.026,0.507
	c0.018,0.375,0.037,0.75,0.063,1.125c0.006,0.133,0.016,0.269,0.024,0.403c0.007,0.109,0.012,0.219,0.019,0.328
	c0.002,0.028,0.003,0.054,0.005,0.082c0.038,0.552,0.075,1.1,0.121,1.668C137.758,240.186,137.691,240.11,137.627,240.031z
	 M165.098,189.544c0.629,0.153,1.258,0.297,1.887,0.447c1.14,0.271,2.279,0.548,3.419,0.809c0.166,0.038,0.332,0.072,0.498,0.11
	c0.116,0.026,0.231,0.051,0.347,0.077c0.758,0.172,1.516,0.336,2.274,0.503c1.016,0.224,2.033,0.451,3.05,0.667
	c0.395,0.084,0.791,0.165,1.186,0.247c0.682,0.143,1.364,0.279,2.046,0.418c0.986,0.201,1.971,0.401,2.957,0.593
	c0.514,0.101,1.029,0.201,1.543,0.299c0.571,0.109,1.142,0.215,1.713,0.322c0.987,0.184,1.975,0.365,2.962,0.541
	c0.626,0.112,1.252,0.225,1.877,0.333c0.444,0.077,0.888,0.153,1.331,0.229c1.027,0.175,2.054,0.341,3.081,0.507
	c0.712,0.115,1.424,0.233,2.136,0.344c0.316,0.049,0.632,0.1,0.948,0.149c1.114,0.171,2.229,0.33,3.344,0.491
	c0.719,0.104,1.439,0.212,2.158,0.312c1.632,0.227,3.264,0.439,4.896,0.644c0.43,0.054,0.86,0.114,1.29,0.167
	c0.242,0.03,0.485,0.058,0.728,0.087c0.551,0.066,1.102,0.125,1.653,0.189c1.28,0.148,2.561,0.298,3.841,0.434
	c0.271,0.029,0.543,0.054,0.814,0.082c0.663,0.069,1.326,0.13,1.99,0.195c1.131,0.111,2.263,0.223,3.394,0.324
	c0.392,0.035,0.783,0.069,1.175,0.103c0.592,0.051,1.184,0.096,1.777,0.144c1.091,0.089,2.182,0.175,3.273,0.254
	c0.503,0.036,1.006,0.075,1.509,0.109c0.491,0.034,0.981,0.063,1.472,0.095c1.093,0.071,2.185,0.135,3.278,0.197
	c0.605,0.034,1.209,0.071,1.814,0.102c0.371,0.019,0.742,0.036,1.113,0.054c1.142,0.055,2.284,0.1,3.426,0.145
	c0.673,0.026,1.347,0.057,2.02,0.08c0.247,0.008,0.494,0.017,0.741,0.025c1.288,0.041,2.575,0.068,3.863,0.096
	c0.617,0.013,1.233,0.032,1.85,0.042c2.246,0.037,4.493,0.054,6.739,0.051c0.563-0.001,1.127-0.009,1.691-0.013
	c1.34-0.008,2.681-0.016,4.021-0.038c0.258-0.004,0.516-0.009,0.774-0.014c0.619-0.012,1.237-0.032,1.856-0.046
	c1.193-0.028,2.386-0.057,3.579-0.097c0.376-0.012,0.753-0.023,1.129-0.036c0.547-0.02,1.093-0.047,1.64-0.069
	c1.157-0.047,2.314-0.098,3.47-0.155c0.483-0.024,0.966-0.044,1.448-0.07c0.445-0.024,0.891-0.053,1.336-0.079
	c1.17-0.067,2.339-0.141,3.509-0.218c0.571-0.038,1.142-0.07,1.713-0.111c0.328-0.023,0.655-0.05,0.983-0.074
	c1.244-0.091,2.488-0.194,3.731-0.298c0.614-0.051,1.227-0.096,1.841-0.15c0.205-0.018,0.41-0.037,0.615-0.055
	c1.494-0.135,2.988-0.284,4.482-0.436c0.465-0.047,0.93-0.089,1.395-0.138c2.078-0.22,4.156-0.456,6.234-0.711
	c0.128-0.016,0.256-0.032,0.384-0.048c0.602-0.074,1.203-0.158,1.805-0.235c1.333-0.171,2.666-0.343,3.998-0.528
	c0.249-0.035,0.499-0.067,0.748-0.102c0.605-0.085,1.211-0.181,1.816-0.269c1.213-0.177,2.427-0.356,3.64-0.545
	c0.364-0.057,0.728-0.108,1.092-0.166c0.523-0.083,1.045-0.174,1.568-0.259c1.191-0.194,2.382-0.393,3.572-0.598
	c0.471-0.081,0.941-0.155,1.412-0.238c0.411-0.072,0.822-0.152,1.234-0.225c1.217-0.219,2.435-0.445,3.652-0.676
	c0.553-0.105,1.106-0.201,1.658-0.308c0.288-0.056,0.576-0.116,0.864-0.172c1.328-0.26,2.655-0.533,3.983-0.807
	c0.565-0.117,1.131-0.225,1.696-0.344c0.157-0.033,0.314-0.069,0.471-0.102c1.855-0.394,3.709-0.803,5.563-1.225
	c0.159-0.036,0.317-0.069,0.476-0.105c0.025-0.006,0.05-0.011,0.075-0.017c0.198-0.045,0.397-0.095,0.595-0.141
	c1.689-0.39,3.378-0.786,5.066-1.199c-12.601,19.842-49.593,34.517-91.322,34.517c-41.733,0-78.73-14.675-91.332-34.517
	C164.813,189.478,164.956,189.51,165.098,189.544z M404.768,133.688c3.936,7.069,4.309,14.803,0.975,20.181
	c-1.156,1.865-2.688,3.292-4.494,4.278c-1.083-14.753-4.871-28.902-11.344-42.379C397.245,122.138,401.178,127.228,404.768,133.688z
	 M106.259,153.862c-3.334-5.38-2.963-13.11,0.97-20.179c3.634-6.538,7.615-11.671,15.133-18.154
	c-6.576,13.604-10.479,27.885-11.598,42.625C108.952,157.165,107.417,155.732,106.259,153.862z M126.892,273.101
	c-11.475,0-20.81-9.336-20.81-20.811c0-7.586,4.179-14.444,10.514-18.072c0.15,0.335,0.312,0.663,0.467,0.995
	c0.135,0.288,0.267,0.577,0.405,0.863c0.365,0.755,0.743,1.502,1.134,2.242c0.058,0.109,0.111,0.221,0.17,0.33
	c0.45,0.84,0.921,1.667,1.405,2.486c0.149,0.253,0.305,0.501,0.457,0.751c0.351,0.577,0.708,1.149,1.075,1.716
	c0.183,0.281,0.367,0.561,0.554,0.84c0.376,0.562,0.762,1.117,1.155,1.667c0.169,0.237,0.335,0.477,0.507,0.712
	c0.56,0.765,1.133,1.52,1.724,2.261c0.091,0.114,0.187,0.224,0.278,0.337c0.51,0.631,1.031,1.254,1.563,1.867
	c0.21,0.242,0.424,0.479,0.637,0.718c0.438,0.49,0.882,0.975,1.334,1.453c0.228,0.241,0.455,0.482,0.687,0.72
	c0.503,0.518,1.016,1.026,1.536,1.528c0.174,0.168,0.343,0.341,0.519,0.507c0.691,0.654,1.395,1.293,2.114,1.919
	c0.186,0.162,0.377,0.317,0.564,0.477c0.549,0.468,1.104,0.93,1.668,1.382c0.261,0.209,0.525,0.414,0.789,0.619
	c0.525,0.408,1.056,0.808,1.594,1.202c0.259,0.189,0.516,0.381,0.778,0.567c0.681,0.485,1.372,0.958,2.073,1.419
	c0.112,0.074,0.221,0.152,0.334,0.226c0.014,0.009,0.028,0.019,0.042,0.028c0.001,0.004,0.002,0.008,0.004,0.012
	c0.394,1.356,0.822,2.703,1.265,4.046c0.101,0.306,0.202,0.612,0.305,0.917c0.45,1.326,0.917,2.646,1.414,3.956
	c0.015,0.04,0.028,0.08,0.043,0.12L126.892,273.101L126.892,273.101z M226.323,346.302c0.288,0.077,0.577,0.149,0.866,0.224
	c1.09,0.281,2.182,0.547,3.279,0.796c0.198,0.045,0.395,0.094,0.593,0.138c1.244,0.276,2.493,0.528,3.745,0.764
	c0.299,0.056,0.598,0.109,0.896,0.163c1.147,0.207,2.296,0.399,3.45,0.572c0.15,0.023,0.3,0.049,0.45,0.071
	c1.27,0.185,2.544,0.345,3.822,0.49c0.309,0.035,0.618,0.067,0.927,0.1c1.217,0.128,2.438,0.242,3.662,0.333
	c0.086,0.007,0.172,0.015,0.259,0.022c1.294,0.093,2.592,0.16,3.893,0.212c0.316,0.013,0.632,0.023,0.949,0.034
	c1.31,0.042,2.622,0.071,3.939,0.071c1.317,0,2.628-0.029,3.939-0.071c0.316-0.01,0.633-0.021,0.949-0.034
	c1.301-0.052,2.599-0.118,3.893-0.212c0.087-0.006,0.173-0.015,0.259-0.022c1.224-0.091,2.444-0.205,3.661-0.333
	c0.309-0.033,0.617-0.065,0.926-0.1c1.279-0.145,2.554-0.305,3.825-0.491c0.147-0.021,0.293-0.047,0.44-0.069
	c1.158-0.174,2.311-0.367,3.461-0.574c0.296-0.053,0.593-0.106,0.889-0.162c1.255-0.236,2.507-0.489,3.753-0.766
	c0.192-0.043,0.383-0.09,0.576-0.134c1.103-0.251,2.203-0.519,3.299-0.801c0.285-0.073,0.571-0.145,0.855-0.221
	c1.226-0.326,2.448-0.669,3.664-1.035c0.069-0.021,0.14-0.038,0.209-0.059V354v10.97c0,16.327-13.282,29.61-29.609,29.61h-9.98
	c-16.327,0-29.609-13.283-29.609-29.61V354v-8.791c0.07,0.021,0.141,0.039,0.211,0.06
	C223.878,345.633,225.098,345.976,226.323,346.302z M136.263,438.81c0-15.758,5.516-31.107,15.529-43.22
	c3.11-3.758,6.584-7.144,10.38-10.13l-8.476,65.071c-0.367,2.819,0.892,5.603,3.249,7.19c2.359,1.588,5.412,1.705,7.885,0.304
	l58.34-33.049c2.609,1.258,5.302,2.32,8.046,3.225L191.167,497h-54.905L136.263,438.81L136.263,438.81z M305.582,497h-97.059
	l38.22-65.66c1.768,0.142,3.54,0.24,5.319,0.24h9.98c1.779,0,3.551-0.097,5.319-0.239L305.582,497z M326.482,361.5
	c4.106,0,7.603,3.069,8.133,7.139l8.979,68.929l-48.815-27.653c-2.292-1.298-5.099-1.3-7.393,0
	c-7.699,4.36-16.463,6.666-25.344,6.666h-9.98c-8.871,0-17.636-2.306-25.347-6.668c-2.295-1.298-5.099-1.296-7.39,0.002
	l-48.815,27.653l8.98-68.928c0.53-4.07,4.026-7.14,8.133-7.14h19.83v3.47c0,24.599,20.012,44.61,44.609,44.61h9.98
	c24.598,0,44.609-20.012,44.609-44.61v-3.47L326.482,361.5L326.482,361.5z M296.329,327.661c-12.465,5.063-25.68,7.629-39.277,7.629
	c-2.55,0-5.086-0.09-7.606-0.27c-8.401-0.6-16.625-2.198-24.586-4.776c-0.263-0.085-0.524-0.178-0.787-0.266
	c-0.531-0.176-1.062-0.351-1.591-0.536c-1.58-0.554-3.15-1.148-4.708-1.781c-0.002-0.001-0.004-0.001-0.006-0.002
	c-23.673-9.59-42.994-27.49-54.407-50.408c-0.794-1.591-1.548-3.204-2.259-4.835c-0.493-1.13-0.958-2.272-1.411-3.418
	c-0.771-1.955-1.484-3.931-2.135-5.927c-0.621-1.904-1.192-3.822-1.7-5.754c-0.009-0.034-0.016-0.069-0.025-0.104
	c-0.286-1.099-0.557-2.209-0.809-3.325c-0.026-0.115-0.047-0.231-0.073-0.346c-0.223-0.999-0.433-2.001-0.626-3.003
	c-0.398-2.077-0.735-4.169-1.008-6.272l-0.026-0.201c-0.135-1.062-0.255-2.127-0.358-3.195c-0.006-0.063-0.012-0.128-0.018-0.191
	c-0.098-1.04-0.182-2.083-0.249-3.127c0-0.002,0-0.004,0-0.004c-0.003-0.038-0.005-0.075-0.008-0.112
	c-0.004-0.047-0.005-0.092-0.008-0.138c-0.059-0.942-0.102-1.886-0.135-2.831c-0.009-0.268-0.018-0.536-0.025-0.798
	c-0.028-0.997-0.048-1.994-0.048-2.993v-32.579c15.934,24.225,56.055,40.859,103.561,40.859c49.758,0,91.418-18.251,105.66-44.36
	v36.08c0,0.999-0.02,1.996-0.048,2.993c-0.007,0.262-0.016,0.53-0.025,0.798c-0.034,0.945-0.076,1.889-0.135,2.832
	c-0.003,0.046-0.004,0.09-0.008,0.137c-0.003,0.037-0.005,0.074-0.008,0.11v0.003c-0.064,0.991-0.145,1.98-0.237,2.967
	c-0.012,0.13-0.022,0.259-0.035,0.391l-0.001,0.01c-0.102,1.049-0.219,2.095-0.352,3.139l-0.029,0.223
	c-0.271,2.095-0.607,4.178-1.003,6.247c-0.199,1.037-0.416,2.076-0.648,3.112c-0.018,0.08-0.033,0.16-0.05,0.239
	c-0.26,1.152-0.54,2.3-0.836,3.435c-0.225,0.857-0.462,1.712-0.709,2.564c-1.735,5.97-4.017,11.802-6.8,17.378
	C339.329,300.169,320.009,318.069,296.329,327.661z M387.213,273.101h-18.295c0.016-0.041,0.029-0.084,0.045-0.125
	c0.495-1.308,0.963-2.626,1.411-3.95c0.104-0.306,0.205-0.613,0.306-0.919c0.443-1.343,0.871-2.69,1.265-4.047
	c0,0,0.002-0.007,0.003-0.01c0.014-0.009,0.028-0.019,0.042-0.028c0.113-0.073,0.221-0.152,0.334-0.226
	c0.701-0.461,1.392-0.935,2.073-1.419c0.262-0.186,0.519-0.378,0.778-0.567c0.538-0.394,1.069-0.794,1.594-1.202
	c0.264-0.205,0.528-0.411,0.789-0.619c0.563-0.451,1.117-0.912,1.665-1.379c0.189-0.161,0.381-0.317,0.568-0.48
	c0.718-0.625,1.422-1.264,2.112-1.918c0.178-0.168,0.349-0.342,0.524-0.511c0.518-0.5,1.029-1.007,1.53-1.522
	c0.233-0.24,0.462-0.482,0.692-0.725c0.449-0.475,0.891-0.957,1.326-1.445c0.215-0.241,0.432-0.481,0.644-0.726
	c0.527-0.607,1.042-1.224,1.547-1.849c0.097-0.12,0.198-0.235,0.293-0.355c0.589-0.739,1.16-1.492,1.718-2.254
	c0.176-0.24,0.345-0.485,0.518-0.727c0.388-0.545,0.77-1.094,1.143-1.65c0.189-0.283,0.377-0.567,0.562-0.853
	c0.363-0.559,0.716-1.124,1.062-1.694c0.157-0.258,0.317-0.513,0.47-0.772c0.481-0.815,0.95-1.639,1.398-2.474
	c0.065-0.121,0.124-0.246,0.189-0.367c0.384-0.727,0.757-1.462,1.115-2.204c0.141-0.291,0.275-0.585,0.412-0.878
	c0.154-0.329,0.315-0.655,0.463-0.987c6.335,3.628,10.514,10.486,10.514,18.072C408.022,263.765,398.687,273.101,387.213,273.101z"
	/>
<path d="M288.989,260.31c-3.406-2.358-8.078-1.508-10.435,1.896c-4.891,7.063-12.928,11.278-21.501,11.278
	s-16.61-4.216-21.501-11.278c-2.357-3.406-7.029-4.255-10.436-1.896c-3.405,2.358-4.255,7.03-1.896,10.435
	c7.691,11.107,20.339,17.739,33.833,17.739c13.494,0,26.142-6.632,33.833-17.739C293.243,267.34,292.394,262.668,288.989,260.31z"/>
<path d="M311.376,232.962c-4.142,0-7.5,3.357-7.5,7.5v2c0,4.143,3.358,7.5,7.5,7.5c4.143,0,7.5-3.357,7.5-7.5v-2
	C318.876,236.319,315.518,232.962,311.376,232.962z"/>
<path d="M202.729,232.962c-4.143,0-7.5,3.357-7.5,7.5v2c0,4.143,3.357,7.5,7.5,7.5s7.5-3.357,7.5-7.5v-2
	C210.229,236.319,206.872,232.962,202.729,232.962z"/>
<path d="M255.583,441.149c-0.471,0.091-0.95,0.24-1.4,0.42c-0.45,0.19-0.89,0.421-1.29,0.69c-0.42,0.28-0.8,0.59-1.14,0.94
	c-0.351,0.34-0.66,0.72-0.94,1.14c-0.27,0.4-0.5,0.84-0.691,1.29c-0.18,0.45-0.329,0.93-0.42,1.399
	c-0.1,0.49-0.149,0.98-0.149,1.471c0,1.979,0.8,3.91,2.2,5.3c0.34,0.35,0.72,0.66,1.14,0.94c0.4,0.27,0.84,0.5,1.29,0.68
	c0.45,0.19,0.93,0.34,1.4,0.43c0.489,0.101,0.98,0.15,1.47,0.15c1.979,0,3.91-0.8,5.3-2.2c1.4-1.39,2.2-3.32,2.2-5.3
	c0-0.49-0.05-0.98-0.15-1.471c-0.09-0.47-0.24-0.949-0.42-1.399c-0.189-0.45-0.42-0.89-0.689-1.29c-0.28-0.42-0.591-0.8-0.94-1.14
	C260.612,441.45,258.022,440.649,255.583,441.149z"/>
<path d="M263.982,476.63c-0.189-0.45-0.42-0.89-0.689-1.29c-0.28-0.41-0.591-0.8-0.94-1.14c-1.73-1.74-4.33-2.551-6.77-2.051
	c-0.471,0.091-0.95,0.24-1.4,0.431c-0.45,0.18-0.89,0.41-1.29,0.68c-0.41,0.28-0.8,0.59-1.14,0.94c-0.351,0.34-0.66,0.729-0.94,1.14
	c-0.27,0.4-0.5,0.84-0.691,1.29c-0.18,0.45-0.329,0.93-0.42,1.41c-0.1,0.479-0.149,0.97-0.149,1.46c0,1.979,0.8,3.91,2.2,5.3
	c0.34,0.35,0.73,0.66,1.14,0.94c0.4,0.27,0.84,0.5,1.29,0.689c0.45,0.18,0.93,0.33,1.4,0.42c0.489,0.101,0.98,0.15,1.47,0.15
	c1.979,0,3.91-0.8,5.3-2.2c1.4-1.39,2.2-3.32,2.2-5.3c0-0.49-0.05-0.98-0.15-1.46C264.312,477.56,264.161,477.08,263.982,476.63z"/>
<g>
</g>
<g>
</g>
<g>
</g>
<g>
</g>
<g>
</g>
<g>
</g>
<g>
</g>
<g>
</g>
<g>
</g>
<g>
</g>
<g>
</g>
<g>
</g>
<g>
</g>
<g>
</g>
<g>
</g>
</svg>
