<?xml version="1.0" encoding="iso-8859-1"?>
<!-- Generator: Adobe Illustrator 19.0.0, SVG Export Plug-In . SVG Version: 6.00 Build 0)  -->
<svg version="1.1" id="Capa_1" xmlns="http://www.w3.org/2000/svg" xmlns:xlink="http://www.w3.org/1999/xlink" x="0px" y="0px"
	 viewBox="0 0 512 512" style="enable-background:new 0 0 512 512;" xml:space="preserve">
<rect x="114.001" y="170.5" style="fill:#BF612C;" width="284" height="78.8"/>
<path style="fill:#F0EEEE;" d="M203.074,363.444h105.855c41.621,0,75.362,33.741,75.362,75.362V504.5H127.712v-65.694
	C127.712,397.184,161.452,363.444,203.074,363.444z"/>
<path style="fill:#D9D4D4;" d="M308.927,363.444h-22.632c41.621,0,75.362,33.741,75.362,75.362V504.5h22.632v-65.695
	C384.289,397.184,350.548,363.444,308.927,363.444z"/>
<path style="fill:#FA8500;" d="M349.451,375.25V504.5h-24.57V365.14C333.75,367.04,342.04,370.52,349.451,375.25z"/>
<rect x="310.891" y="454.5" style="fill:#FFB700;" width="52.55" height="24.333"/>
<path style="fill:#FA8500;" d="M187.12,365.14V504.5h-24.57V375.25C169.961,370.52,178.251,367.04,187.12,365.14z"/>
<rect x="148.561" y="454.5" style="fill:#FFB700;" width="52.55" height="24.333"/>
<polygon style="fill:#D9D4D4;" points="314,351 272.5,351 239.501,351 198.001,351 155.501,423.5 218.9,410.5 213.9,428 
	256,478.833 298.1,428 293.1,410.5 356.5,423.5 "/>
<g>
	<polygon style="fill:#FA9E3E;" points="298.1,267.73 298.1,363.08 256,478.833 213.9,363.08 213.9,267.73 	"/>
	<path style="fill:#FA9E3E;" d="M125.84,220.99h49.369v56.61h-49.369c-15.632,0-28.305-12.673-28.305-28.305
		S110.208,220.99,125.84,220.99z"/>
	<path style="fill:#FA9E3E;" d="M386.161,220.99h-49.369v56.61h49.369c15.632,0,28.305-12.673,28.305-28.305
		S401.793,220.99,386.161,220.99z"/>
</g>
<path style="fill:#FFB56B;" d="M256,342.79L256,342.79c-61.919,0-112.115-50.195-112.115-112.115V117.281h224.229v113.394
	C368.115,292.595,317.919,342.79,256,342.79z"/>
<path style="fill:#EF9245;" d="M344.781,117.281v125.062c0,53.578-41.949,97.354-94.795,100.286
	c1.992,0.105,3.996,0.161,6.014,0.161l0,0c61.919,0,112.115-50.195,112.115-112.115V117.281H344.781z"/>
<g>
	<path style="fill:#5880A2;" d="M323.647,256.746h-17.792c-14.76,0-26.725-11.965-26.725-26.725v-19.614
		c22.905-9.654,46.368-9.23,70.32,0v20.536C349.451,245.194,337.898,256.746,323.647,256.746z"/>
	<path style="fill:#5880A2;" d="M207.068,256.746h-17.792c-14.76,0-26.725-11.965-26.725-26.725v-19.614
		c22.904-9.654,46.368-9.23,70.319,0v20.536C232.87,245.194,221.318,256.746,207.068,256.746z"/>
</g>
<path style="fill:#484655;" d="M324.1,7.5h-6.098c-9.977,0-19.626,3.568-27.202,10.06l-4.48,3.839
	c-17.448,14.949-43.189,14.949-60.637,0l-4.48-3.839c-7.577-6.492-17.225-10.06-27.202-10.06l0,0
	c-19.76,0-36.823,13.835-40.906,33.169L128.099,159H390L365.007,40.669C360.922,21.335,343.86,7.5,324.1,7.5z"/>
<polygon style="fill:#3D5868;" points="128.099,159 390,159 377.915,101.786 140.184,101.786 "/>
<path style="fill:#35343F;" d="M365.007,40.668C360.922,21.335,343.86,7.5,324.1,7.5h-6.098c-3.114,0-6.197,0.348-9.194,1.023
	c15.669,3.529,28.275,15.892,31.707,32.145L365.509,159H390L365.007,40.668z"/>
<polygon style="fill:#2A434F;" points="377.915,101.786 353.424,101.786 365.509,159 390,159 "/>
<path style="fill:#595866;" d="M84.501,149.972v3.293c0,18.064,14.643,32.707,32.707,32.707h277.586
	c18.064,0,32.707-14.643,32.707-32.707v-3.293H84.501z"/>
<path style="fill:#35343F;" d="M394.167,149.972v3.293c0,18.064-14.643,32.707-32.707,32.707h33.333
	c18.064,0,32.707-14.643,32.707-32.707v-3.293H394.167z"/>
<path d="M356.951,230.943v-20.536c0-3.102-1.909-5.883-4.803-6.998c-26.25-10.116-51.795-10.086-75.93,0.087
	c-2.779,1.172-4.587,3.895-4.587,6.911v3.083h-31.26v-3.083c0-3.102-1.909-5.883-4.803-6.998
	c-26.247-10.116-51.794-10.086-75.93,0.087c-2.78,1.172-4.587,3.895-4.587,6.911v19.613c0,18.872,15.354,34.226,34.226,34.226
	h17.792c18.363,0,33.303-14.939,33.303-33.303v-2.453h31.261v1.53c0,18.872,15.353,34.226,34.225,34.226h17.792
	C342.011,264.246,356.951,249.307,356.951,230.943z M225.37,230.943c0,10.092-8.21,18.303-18.303,18.303h-17.792
	c-10.601,0-19.226-8.625-19.226-19.226v-14.489c17.797-6.373,35.984-6.324,55.32,0.145v15.267H225.37z M341.951,230.943
	c0,10.092-8.211,18.303-18.303,18.303h-17.792c-10.601,0-19.225-8.625-19.225-19.226v-14.489
	c17.796-6.373,35.984-6.324,55.319,0.145v15.267H341.951z"/>
<path d="M427.5,142.47h-33.328l-8.914-42.228c-0.005-0.026-0.014-0.05-0.02-0.076l-12.891-61.047C367.554,16.451,347.263,0,324.1,0
	H318c-11.751,0-23.144,4.213-32.081,11.865l-4.479,3.839c-14.739,12.63-36.139,12.631-50.88,0l-4.482-3.841
	C217.144,4.213,205.752,0,194.001,0c-11.261,0-22.288,3.907-31.054,11.005c-8.748,7.095-14.854,17.077-17.194,28.115l-12.892,61.053
	c-0.005,0.023-0.013,0.045-0.018,0.069l-8.914,42.228H84.501c-4.142,0-7.5,3.357-7.5,7.5v3.29c0,18.463,12.513,34.049,29.5,38.751
	v27.174c-9.897,6.376-16.47,17.485-16.47,30.106c0,19.746,16.064,35.811,35.81,35.811h23.627
	c12.338,24.138,32.297,43.226,56.933,54.449v3.951h-8.4c-2.662,0-5.124,1.411-6.47,3.707l-6.248,10.658
	c-9.292,2.034-18.143,5.694-26.159,10.719c-0.424,0.218-0.823,0.476-1.195,0.767c-7.147,4.65-13.604,10.39-19.056,17.064
	c-12.034,14.73-18.661,33.337-18.661,52.391V504.5c0,4.143,3.358,7.5,7.5,7.5h34.839h24.57h137.76h24.57h34.839
	c4.143,0,7.5-3.357,7.5-7.5v-65.694c0-7.777-1.078-15.479-3.205-22.892c-1.143-3.982-5.298-6.283-9.277-5.141
	c-3.981,1.143-6.283,5.296-5.141,9.277c1.74,6.066,2.623,12.377,2.623,18.755V497h-19.839v-10.67h6.489c4.142,0,7.5-3.357,7.5-7.5
	V454.5c0-4.143-3.358-7.5-7.5-7.5h-6.489v-16.025c2.222-0.134,4.313-1.243,5.647-3.109c1.725-2.407,1.87-5.605,0.373-8.159
	l-6.021-10.27v-18.554c1.655,1.656,3.238,3.39,4.721,5.219c1.482,1.828,3.647,2.776,5.831,2.776c1.659,0,3.329-0.548,4.719-1.674
	c3.217-2.609,3.711-7.332,1.103-10.55c-5.497-6.779-12.022-12.6-19.255-17.306c-0.365-0.286-0.755-0.539-1.169-0.754
	c-8.02-5.03-16.877-8.692-26.181-10.729l-6.248-10.658c-1.347-2.296-3.809-3.707-6.471-3.707h-8.4v-3.95
	c24.634-11.221,44.593-30.308,56.933-54.449h23.627c19.745,0,35.81-16.064,35.81-35.811c0-12.621-6.573-23.729-16.47-30.106V192.01
	c16.987-4.701,29.5-20.287,29.5-38.751v-3.29C435,145.827,431.643,142.47,427.5,142.47z M160.428,42.226
	c1.629-7.683,5.879-14.633,11.963-19.566c6.099-4.94,13.774-7.66,21.61-7.66c8.176,0,16.103,2.933,22.32,8.256l4.48,3.839
	c20.395,17.477,50.002,17.475,70.401,0l4.477-3.837C301.897,17.933,309.824,15,318,15h6.1c16.117,0,30.236,11.448,33.572,27.22
	l10.995,52.07H197.711c-4.142,0-7.5,3.357-7.5,7.5s3.358,7.5,7.5,7.5h174.124l7.006,33.18H139.26l7.006-33.18h21.445
	c4.142,0,7.5-3.357,7.5-7.5s-3.358-7.5-7.5-7.5h-18.277L160.428,42.226z M121.501,193.47h14.89v20.021h-10.55
	c-1.47,0-2.916,0.099-4.34,0.272V193.47z M125.84,270.101c-11.475,0-20.81-9.336-20.81-20.811c0-11.469,9.335-20.8,20.81-20.8h10.55
	v2.189c0,1.511,0.038,3.016,0.093,4.518c0.013,0.347,0.026,0.695,0.041,1.042c0.067,1.478,0.154,2.951,0.275,4.419
	c0.015,0.184,0.036,0.368,0.052,0.552c0.116,1.338,0.257,2.671,0.417,3.999c0.039,0.321,0.075,0.642,0.116,0.963
	c0.186,1.443,0.396,2.881,0.634,4.313c0.046,0.276,0.098,0.551,0.146,0.826c0.221,1.272,0.462,2.54,0.724,3.802
	c0.056,0.269,0.107,0.539,0.165,0.808c0.304,1.416,0.637,2.826,0.993,4.23c0.08,0.317,0.165,0.632,0.248,0.948
	c0.338,1.287,0.695,2.569,1.077,3.846c0.052,0.174,0.1,0.35,0.153,0.525c0.425,1.396,0.882,2.785,1.36,4.167
	c0.053,0.154,0.098,0.31,0.151,0.464H125.84z M225.267,346.303c0.294,0.078,0.589,0.152,0.883,0.228
	c1.079,0.277,2.16,0.54,3.246,0.787c0.209,0.048,0.416,0.099,0.625,0.145c1.238,0.274,2.481,0.525,3.727,0.76
	c0.306,0.058,0.613,0.112,0.92,0.167c1.133,0.204,2.269,0.394,3.409,0.565c0.162,0.024,0.323,0.052,0.485,0.076
	c1.264,0.184,2.534,0.344,3.806,0.488c0.314,0.036,0.628,0.068,0.943,0.102c1.209,0.127,2.421,0.24,3.637,0.331
	c0.093,0.007,0.185,0.016,0.278,0.023c1.292,0.093,2.589,0.159,3.889,0.211c0.316,0.013,0.632,0.024,0.948,0.034
	c1.31,0.042,2.622,0.071,3.938,0.071c1.316,0,2.628-0.029,3.938-0.071c0.316-0.01,0.632-0.021,0.947-0.034
	c1.299-0.052,2.596-0.118,3.889-0.211c0.092-0.007,0.184-0.016,0.276-0.023c1.216-0.091,2.429-0.204,3.638-0.331
	c0.314-0.033,0.628-0.066,0.942-0.102c1.273-0.144,2.543-0.303,3.807-0.488c0.161-0.023,0.32-0.051,0.481-0.075
	c1.142-0.171,2.28-0.361,3.415-0.566c0.305-0.055,0.61-0.109,0.915-0.166c1.249-0.235,2.494-0.486,3.733-0.761
	c0.204-0.045,0.408-0.096,0.612-0.142c1.092-0.248,2.181-0.513,3.266-0.792c0.289-0.074,0.578-0.147,0.867-0.223
	c1.227-0.325,2.449-0.669,3.666-1.034c0.069-0.021,0.139-0.038,0.208-0.059V351v10.759L256,456.888l-34.6-95.129V351v-5.787
	c0.072,0.022,0.145,0.04,0.217,0.061C222.829,345.638,224.046,345.979,225.267,346.303z M305.311,425.94l-1.602-5.608l13.671,2.803
	V447h-6.49c-4.142,0-7.5,3.357-7.5,7.5v24.33c0,4.143,3.358,7.5,7.5,7.5h6.49V497H194.62v-10.67h6.49c4.142,0,7.5-3.357,7.5-7.5
	V454.5c0-4.143-3.358-7.5-7.5-7.5h-6.49v-23.866l13.671-2.803l-1.603,5.608c-0.68,2.379-0.143,4.939,1.436,6.845l42.1,50.83l0,0
	c0.168,0.203,0.349,0.395,0.539,0.581c0.018,0.018,0.036,0.038,0.054,0.056c0.014,0.014,0.03,0.025,0.044,0.038
	c0.017,0.016,0.035,0.029,0.052,0.044c0.135,0.125,0.275,0.246,0.421,0.362c0.073,0.058,0.145,0.114,0.22,0.169
	c0.131,0.096,0.266,0.187,0.404,0.276c0.081,0.052,0.16,0.105,0.243,0.154c0.024,0.014,0.046,0.031,0.07,0.044
	c0.055,0.032,0.114,0.053,0.17,0.083c0.031,0.017,0.061,0.033,0.092,0.049c0.068,0.035,0.133,0.074,0.202,0.107
	c0.101,0.049,0.204,0.093,0.307,0.137c0.1,0.043,0.201,0.082,0.302,0.12c0.11,0.042,0.219,0.087,0.331,0.123
	c0.061,0.02,0.125,0.033,0.187,0.052c0.013,0.004,0.026,0.007,0.039,0.011c0.11,0.032,0.219,0.064,0.33,0.091
	c0.15,0.036,0.3,0.065,0.452,0.092c0.081,0.015,0.162,0.031,0.244,0.044c0.063,0.009,0.126,0.02,0.189,0.027
	c0.279,0.033,0.559,0.052,0.84,0.054c0.014,0,0.028,0.003,0.042,0.003c0.001,0,0.001,0,0.001,0c0.001,0,0.002,0,0.002,0
	s0.001,0,0.002,0c0,0,0.001,0,0.002,0c0.014,0,0.029-0.003,0.043-0.003c0.28-0.002,0.558-0.02,0.835-0.053
	c0.064-0.008,0.127-0.018,0.191-0.027c0.084-0.012,0.166-0.03,0.249-0.045c0.148-0.027,0.295-0.054,0.442-0.09
	c0.115-0.028,0.228-0.061,0.342-0.094c0.007-0.002,0.014-0.004,0.022-0.006c0.066-0.02,0.134-0.034,0.2-0.055
	c0.109-0.035,0.214-0.079,0.321-0.12c0.105-0.04,0.209-0.08,0.313-0.124c0.101-0.043,0.201-0.086,0.299-0.134
	c0.072-0.035,0.14-0.075,0.21-0.111c0.026-0.014,0.053-0.028,0.079-0.042c0.059-0.032,0.12-0.054,0.178-0.087
	c0.025-0.014,0.048-0.032,0.073-0.046c0.08-0.047,0.157-0.099,0.235-0.149c0.14-0.089,0.277-0.181,0.409-0.278
	c0.074-0.055,0.148-0.111,0.22-0.169c0.143-0.114,0.281-0.233,0.414-0.356c0.02-0.019,0.042-0.034,0.062-0.053
	c0.013-0.012,0.027-0.022,0.039-0.034c0.02-0.019,0.039-0.041,0.059-0.06c0.188-0.183,0.367-0.374,0.533-0.574
	c0.001-0.001,0.003-0.003,0.004-0.004l42.1-50.83C305.454,430.879,305.99,428.318,305.311,425.94z M355.94,462v9.33h-6.489h-24.57
	h-6.49V462h6.49h24.57H355.94z M170.051,428.172l9.57-1.962V447h-9.57L170.051,428.172L170.051,428.172z M156.061,471.33V462h6.49
	h24.57h6.49v9.33h-6.49h-24.57H156.061z M225.146,415.941l9,24.746l-11.949-14.427L225.146,415.941z M277.854,440.685l9-24.744
	l2.948,10.318L277.854,440.685z M202.298,358.5h4.103v4.58c0,0.874,0.153,1.742,0.452,2.563l13.65,37.529
	c-1.007-0.22-2.065-0.234-3.108-0.02l-46.911,9.618L202.298,358.5z M170.051,383.849v-4.309c1.187-0.667,2.401-1.291,3.632-1.887
	L170.051,383.849z M135.212,438.806c0-18.349,7.52-35.4,19.839-47.824v18.456l-6.02,10.27c-1.498,2.555-1.352,5.752,0.372,8.159
	c1.335,1.865,3.427,2.974,5.648,3.108V447h-6.49c-4.142,0-7.5,3.357-7.5,7.5v24.33c0,4.143,3.358,7.5,7.5,7.5h6.49V497h-19.839
	L135.212,438.806L135.212,438.806z M170.051,497v-10.67h9.57V497H170.051z M341.951,497h-9.57v-10.67h9.57V497z M332.38,447v-20.79
	l9.57,1.962V447H332.38z M341.951,379.521v4.328l-3.635-6.201C339.543,378.24,340.76,378.856,341.951,379.521z M309.703,358.5
	l31.815,54.272l-46.911-9.618c-0.502-0.103-1.006-0.153-1.507-0.153c-0.541,0-1.078,0.059-1.602,0.173l13.65-37.529
	c0.299-0.821,0.452-1.689,0.452-2.563v-4.58h4.103V358.5z M295.283,327.669c-12.475,5.058-25.691,7.621-39.282,7.621
	c-3.398,0-6.772-0.16-10.117-0.48c-0.964-0.092-1.924-0.201-2.882-0.319c-9.025-1.115-17.825-3.393-26.283-6.822h-0.001
	c-24.743-10.038-44.545-28.935-55.755-53.208c-6.35-13.772-9.571-28.503-9.571-43.78v-9.689V193.47h209.22v27.521v9.689
	c0,1.91-0.05,3.811-0.151,5.702c-0.703,13.242-3.864,26.025-9.42,38.078l0,0C339.826,298.736,320.024,317.633,295.283,327.669z
	 M386.16,270.101h-17.194c0.054-0.155,0.099-0.312,0.152-0.467c0.478-1.384,0.935-2.773,1.36-4.17c0.05-0.166,0.096-0.333,0.146-0.5
	c0.386-1.289,0.746-2.584,1.087-3.884c0.08-0.305,0.162-0.61,0.24-0.916c0.359-1.413,0.693-2.831,0.999-4.257
	c0.054-0.254,0.103-0.51,0.156-0.765c0.266-1.282,0.511-2.568,0.735-3.859c0.046-0.262,0.095-0.523,0.139-0.785
	c0.24-1.44,0.451-2.885,0.637-4.336c0.04-0.312,0.076-0.625,0.113-0.937c0.161-1.338,0.303-2.68,0.42-4.027
	c0.016-0.179,0.035-0.357,0.05-0.536c0.12-1.47,0.208-2.946,0.275-4.426c0.016-0.345,0.029-0.69,0.041-1.036
	c0.055-1.503,0.093-3.008,0.093-4.52v-2.189h10.55c11.475,0,20.81,9.331,20.81,20.8C406.97,260.765,397.635,270.101,386.16,270.101z
	 M386.16,213.49h-10.55v-20.02h14.89v20.293C389.076,213.59,387.63,213.49,386.16,213.49z M394.79,178.47h-26.68h-224.22h-26.68
	c-12.467,0-22.849-9.096-24.858-21h37.628c0.012,0,0.025,0.002,0.037,0.002c0.015,0,0.03-0.002,0.045-0.002H388.06
	c0.008,0,0.015,0.002,0.022,0.002c0.012,0,0.025-0.002,0.037-0.002h31.529C417.641,169.374,407.257,178.47,394.79,178.47z"/>
<path d="M282.103,277.099c-6.242-2.695-15.757-4.241-26.103-4.241c-10.347,0-19.861,1.546-26.104,4.241
	c-3.803,1.643-5.554,6.057-3.912,9.859c1.642,3.803,6.055,5.553,9.858,3.912c3.372-1.457,10.439-3.013,20.157-3.013
	c9.719,0,16.785,1.557,20.158,3.013c0.969,0.418,1.977,0.616,2.969,0.616c2.902,0,5.666-1.695,6.89-4.529
	C287.658,283.154,285.906,278.741,282.103,277.099z"/>
<g>
</g>
<g>
</g>
<g>
</g>
<g>
</g>
<g>
</g>
<g>
</g>
<g>
</g>
<g>
</g>
<g>
</g>
<g>
</g>
<g>
</g>
<g>
</g>
<g>
</g>
<g>
</g>
<g>
</g>
</svg>
