<?xml version="1.0" encoding="iso-8859-1"?>
<!-- Generator: Adobe Illustrator 19.0.0, SVG Export Plug-In . SVG Version: 6.00 Build 0)  -->
<svg version="1.1" id="Capa_1" xmlns="http://www.w3.org/2000/svg" xmlns:xlink="http://www.w3.org/1999/xlink" x="0px" y="0px"
	 viewBox="0 0 496 496" style="enable-background:new 0 0 496 496;" xml:space="preserve">
<g>
	<g>
		<g>
			<rect x="72" y="96" width="16" height="16"/>
			<path d="M495.008,451.728C485.048,421.856,480,390.744,480,359.24v-80.616c0-16.48-6.688-32.624-18.344-44.28
				S433.856,216,417.376,216h-5.704c-3.128-8.056-7.856-15.496-14.016-21.656C386,182.688,369.856,176,353.376,176H219.312
				l-52.032-52.032l-21.592-93.592c-1.96-8.464-9.4-14.376-18.08-14.376c-8,0-15.08,5.104-17.6,12.688L98.232,64h-9.264
				c-13.08,0-25.376,5.096-34.624,14.344S40,99.888,40,112.968v1.616l-25.984,10.392C5.496,128.392,0,136.52,0,145.688
				c0,10.096,6.784,18.552,16,21.296v2.896C16,186.48,29.512,200,46.128,200c17.848,0,33.888,9.912,41.864,25.872
				c4.176,8.36,3.552,18.376-1.624,26.152C82.2,258.28,80,265.552,80,273.056c0,11.856,5.664,23.192,15.16,30.312l19.456,14.6
				c0.24,0.288,0.512,0.552,0.76,0.832l-66.44,44.296C33.32,373.504,24,390.928,24,409.688V424c0,13.232,10.768,24,24,24
				s24-10.768,24-24v-10.504l85.096-32.728L166.96,435l-27.92,11.168c-6.704,2.672-11.04,9.064-11.04,16.296
				c0,9.672,7.864,17.536,17.536,17.536H200c13.232,0,24-10.768,24-24v-51.856c0-12.544,2.408-24.808,7.152-36.44
				c1.264-3.08,2.32-6.224,3.312-9.368c26.6-2.752,52.584-9.128,77.672-18.752c0.328,10.512,1.576,21.016,3.856,31.304
				l11.096,49.912l-31.664,24.68c-7.256,5.672-9.496,15.72-5.328,23.88c3.392,6.624,10.208,10.64,17.496,10.64
				c1.4,0,2.824-0.152,4.232-0.456l52.784-11.48c10.952-2.392,18.896-12.248,18.896-23.456v-37.952
				c0-10.472,1.616-20.744,4.712-30.656c5.224,22.144,15.208,43.088,29.528,60.992L432,454.808v-20.872
				c6.688,12.864,15.392,24.776,25.944,35.328l5.088,5.088c3.592,3.584,8.568,5.648,13.656,5.648
				c10.648,0,19.312-8.664,19.312-19.312v-2.848C496,455.768,495.672,453.712,495.008,451.728z M113.176,296.872l-8.416-6.304
				c-5.488-4.112-8.76-10.664-8.76-17.512c0-4.336,1.272-8.536,3.68-12.152c8.36-12.544,9.368-28.712,2.624-42.192
				C91.6,197.304,70.072,184,46.128,184C38.336,184,32,177.664,32,169.872V168h24v-16H22.312c-3.488,0-6.312-2.832-6.312-6.312
				c0-2.592,1.56-4.896,3.96-5.856L56,125.416v-12.448c0-8.68,3.52-17.168,9.656-23.312C71.8,83.52,80.288,80,88.968,80h20.8
				l15.416-46.248c0.744-2.184,4.416-2.008,4.912,0.224l22.624,98.056l53.104,53.104c-17.016,26.976-27.088,57.432-29.336,89.12
				C166.152,266.056,160,253.584,160,240v-22.816l-26.248,32.832C122.896,263.568,115.824,279.824,113.176,296.872z M56,402.504V424
				c0,4.416-3.584,8-8,8s-8-3.584-8-8v-14.312c0-13.4,6.656-25.84,17.816-33.28l68.92-45.944c7.744,6.96,16.4,12.84,25.736,17.472
				c0.352,5.608,0.936,11.2,1.848,16.76L56,402.504z M480,460.688c0,2.704-3.752,4.248-5.656,2.344l-5.088-5.088
				C445.232,433.92,432,401.976,432,368h-16v37.24c-10.424-19.776-16-41.96-16-64.472v-18.072V320v-32h-16v32v2.704
				c0,13.424-2.576,26.52-7.656,38.952c-5.864,14.352-8.84,29.496-8.84,45.008v37.952c0,3.736-2.648,7.024-6.304,7.816
				l-52.784,11.48c-1.696,0.376-3.344-0.384-4.072-1.832c-0.704-1.376-0.32-3.024,0.92-3.992l39.632-30.88l-13.28-59.792
				c-2.4-10.824-3.616-21.92-3.616-32.976V288h-16v34.52c-23.624,9.632-48.328,16.032-73.64,19.144
				c1.008-6.248,1.64-12.56,1.64-18.96V312h-16v10.704c0,13.424-2.576,26.52-7.656,38.952c-5.536,13.552-8.344,27.848-8.344,42.488
				V456c0,4.416-3.584,8-8,8h-54.464c-0.848,0-1.536-0.688-1.536-1.536c0-0.632,0.376-1.192,0.968-1.432L185.04,445l-14.584-80.232
				c-1.632-8.968-2.456-18.128-2.456-27.2V312h-16v17.576c-9.008-5.488-17.056-12.456-23.872-20.496
				c0.632-17.808,6.96-35.128,18.12-49.056l0.816-1.024c4.912,14.784,15.504,27.224,29.992,34.48L192,300.944V288
				c0-34.208,9.848-67.328,28.392-96h132.984c12.272,0,24.288,4.976,32.968,13.656S400,226.352,400,238.624V264h16v-25.376
				c0-2.216-0.144-4.424-0.384-6.624h1.76c12.272,0,24.288,4.976,32.968,13.656S464,266.352,464,278.624v80.616
				c0,33.224,5.328,66.048,15.824,97.528c0.12,0.352,0.176,0.712,0.176,1.064V460.688z"/>
			<rect x="432" y="264" width="16" height="32"/>
			<rect x="416" y="312" width="16" height="32"/>
		</g>
	</g>
</g>
<g>
</g>
<g>
</g>
<g>
</g>
<g>
</g>
<g>
</g>
<g>
</g>
<g>
</g>
<g>
</g>
<g>
</g>
<g>
</g>
<g>
</g>
<g>
</g>
<g>
</g>
<g>
</g>
<g>
</g>
</svg>
