<?xml version="1.0" encoding="iso-8859-1"?>
<!-- Generator: Adobe Illustrator 19.0.0, SVG Export Plug-In . SVG Version: 6.00 Build 0)  -->
<svg version="1.1" id="Capa_1" xmlns="http://www.w3.org/2000/svg" xmlns:xlink="http://www.w3.org/1999/xlink" x="0px" y="0px"
	 viewBox="0 0 512 512" style="enable-background:new 0 0 512 512;" xml:space="preserve">
<path style="fill:#FB403F;" d="M124,127.871v71.76h264v-71.76c0-55.75-45.194-100.943-100.943-100.943h-62.113
	C169.194,26.927,124,72.121,124,127.871z"/>
<path style="fill:#C21C1C;" d="M287.057,26.927h-23.885c55.75,0,100.943,45.194,100.943,100.943v71.76H388v-71.76
	C388,72.121,342.806,26.927,287.057,26.927z"/>
<path style="fill:#FFB700;" d="M305.267,114.305h-1.057V32.099c0-13.586-11.013-24.599-24.599-24.599H232.39
	c-13.586,0-24.599,11.013-24.599,24.599v82.206h-1.057c-16.34,0-29.586,13.246-29.586,29.586v26.403h30.643v2.616h96.419v-2.616
	h30.643v-26.403C334.853,127.552,321.606,114.305,305.267,114.305z"/>
<path style="fill:#FF6464;" d="M452.7,226.35c0-48.902-88.066-88.544-196.7-88.544S59.3,177.448,59.3,226.35v18.971h3.969
	C81.556,291.026,160.895,342.79,256,342.79s174.444-51.764,192.731-97.469h3.969V226.35z"/>
<path style="fill:#B71C1C;" d="M256,171.203c-108.634,0-196.7,33.184-196.7,74.118S147.366,342.79,256,342.79
	s196.7-56.535,196.7-97.469S364.634,171.203,256,171.203z"/>
<path style="fill:#F0EEEE;" d="M203.073,363.444h105.855c41.621,0,75.362,33.741,75.362,75.362V504.5H127.711v-65.694
	C127.711,397.184,161.452,363.444,203.073,363.444z"/>
<path style="fill:#FB403F;" d="M203.073,363.444h105.855c41.621,0,75.362,33.741,75.362,75.362V504.5H127.711v-65.694
	C127.711,397.184,161.452,363.444,203.073,363.444z"/>
<path style="fill:#C21C1C;" d="M308.927,363.444h-22.501c41.621,0,75.362,33.741,75.362,75.362V504.5h22.501v-65.695
	C384.289,397.184,350.548,363.444,308.927,363.444z"/>
<path style="fill:#FFB700;" d="M336.792,465.486H175.208c-4.143,0-7.5-3.358-7.5-7.5s3.357-7.5,7.5-7.5h161.584
	c4.143,0,7.5,3.358,7.5,7.5S340.935,465.486,336.792,465.486z"/>
<g>
	<path style="fill:#484655;" d="M293.232,349.5h-33.889l4.531,50.747l41.546,23.991c5.103,2.947,11.39,2.947,16.493,0.001l0,0
		c5.733-3.31,8.931-9.727,8.122-16.297l-3.576-29.052C324.396,362.108,310.141,349.5,293.232,349.5z"/>
	<path style="fill:#484655;" d="M218.768,349.5h33.888l-4.531,50.747l-41.546,23.991c-5.103,2.947-11.39,2.947-16.493,0.001l0,0
		c-5.733-3.31-8.931-9.727-8.122-16.297l3.576-29.052C187.605,362.108,201.859,349.5,218.768,349.5z"/>
</g>
<path style="fill:#884130;" d="M213.904,267.729v90.668c0,23.249,18.847,42.096,42.096,42.096l0,0
	c23.249,0,42.096-18.847,42.096-42.096v-90.668H213.904z"/>
<path style="fill:#A1513D;" d="M125.839,223.99h49.369v56.61h-49.369c-15.632,0-28.305-12.673-28.305-28.305
	S110.207,223.99,125.839,223.99z"/>
<path style="fill:#884130;" d="M386.161,223.99h-49.369v56.61h49.369c15.632,0,28.305-12.673,28.305-28.305
	S401.793,223.99,386.161,223.99z"/>
<path style="fill:#B45F4A;" d="M368.11,184.42v46.26c0,30.96-12.55,58.98-32.83,79.27c-20.29,20.29-48.32,32.84-79.28,32.84
	c-0.97,0-1.93-0.01-2.89-0.04h-0.13c-0.92-0.02-1.84-0.06-2.75-0.11c-0.07,0-0.13,0-0.2-0.01h-0.04
	c-59.13-3.12-106.1-52.06-106.1-111.95v-46.26c31.81-8.33,70.44-13.22,112.11-13.22c31.95,0,62.11,2.87,88.78,7.97
	C352.9,180.72,360.69,182.48,368.11,184.42z"/>
<path style="fill:#A1513D;" d="M368.11,184.42v46.26c0,30.96-12.55,58.98-32.83,79.27c-20.29,20.29-48.32,32.84-79.28,32.84
	c-0.97,0-1.93-0.01-2.89-0.04h-0.13c-0.92-0.02-1.84-0.06-2.75-0.11c-0.07,0-0.13,0-0.2-0.01c52.82-2.95,94.75-46.72,94.75-100.29
	v-63.17C352.9,180.72,360.69,182.48,368.11,184.42z"/>
<rect x="239.112" y="73.498" transform="matrix(-0.7071 0.7071 -0.7071 -0.7071 500.9355 -26.7199)" style="fill:#D69400;" width="33.779" height="33.779"/>
<path d="M398.165,156.903c-16.614-7.478-35.584-13.49-56.139-17.894c-2.117-16.026-14.506-28.859-30.316-31.64V37.741
	c17.962,4.909,34.213,15.163,46.446,29.492c14.408,16.876,22.344,38.411,22.344,60.638v1.52c0,4.142,3.357,7.5,7.5,7.5
	s7.5-3.358,7.5-7.5v-1.52c0-25.794-9.211-50.789-25.936-70.377c-15.458-18.107-36.45-30.625-59.531-35.612
	C305.754,9.177,293.738,0,279.61,0h-47.22c-14.127,0-26.143,9.177-30.422,21.881c-23.081,4.987-44.072,17.505-59.531,35.612
	C125.711,77.081,116.5,102.076,116.5,127.87v27.862c-0.893,0.388-1.786,0.775-2.665,1.171C73.831,174.91,51.8,199.573,51.8,226.35
	v18.97c0,23.419,23.008,49.843,61.546,70.684c26.261,14.202,56.56,24.297,88.417,29.707c-5.889,2.689-11.097,6.752-15.147,11.886
	c-17.993,3.631-34.388,13.224-46.436,27.257c-12.877,14.997-19.969,34.159-19.969,53.956v65.69c0,4.142,3.357,7.5,7.5,7.5h256.58
	c4.143,0,7.5-3.358,7.5-7.5v-65.69c0-19.796-7.092-38.958-19.969-53.956c-12.049-14.033-28.444-23.627-46.436-27.257
	c-4.083-5.172-9.334-9.257-15.271-11.943C395.173,331.043,460.2,284.573,460.2,245.32v-18.97
	C460.2,199.573,438.169,174.91,398.165,156.903z M131.5,127.87c0-22.227,7.936-43.762,22.344-60.638
	c12.234-14.329,28.484-24.582,46.446-29.492v27.82c0,4.142,3.358,7.5,7.5,7.5c4.143,0,7.5-3.358,7.5-7.5V32.1
	c0-9.429,7.671-17.1,17.1-17.1h47.221c9.429,0,17.1,7.671,17.1,17.1v82.21c0,4.142,3.357,7.5,7.5,7.5h1.06
	c9.372,0,17.394,5.873,20.593,14.129c-22.087-3.695-45.657-5.629-69.862-5.629s-47.775,1.934-69.863,5.629
	c3.199-8.257,11.221-14.129,20.593-14.129h1.059c4.143,0,7.5-3.358,7.5-7.5V95.55c0-4.142-3.357-7.5-7.5-7.5
	c-4.142,0-7.5,3.358-7.5,7.5v11.82c-15.81,2.78-28.199,15.613-30.316,31.64c-13.594,2.912-26.489,6.532-38.474,10.811L131.5,127.87
	L131.5,127.87z M119.992,170.581c2.213-0.996,4.472-1.964,6.773-2.904c0.084-0.033,0.169-0.067,0.252-0.103
	c15.252-6.215,32.392-11.214,50.83-14.889c0.499-0.046,0.984-0.141,1.45-0.28c23.858-4.648,49.843-7.095,76.703-7.095
	c26.86,0,52.846,2.447,76.703,7.095c0.466,0.139,0.951,0.234,1.45,0.28c21.326,4.25,40.914,10.271,57.855,17.896
	c24.526,11.04,41.463,24.769,48.913,39.198c-0.191-0.164-0.394-0.325-0.588-0.488c-0.298-0.25-0.597-0.5-0.901-0.749
	c-0.417-0.342-0.842-0.682-1.272-1.021c-0.307-0.243-0.614-0.485-0.928-0.727c-0.45-0.346-0.91-0.69-1.372-1.033
	c-0.31-0.23-0.616-0.46-0.932-0.689c-0.5-0.363-1.013-0.722-1.528-1.082c-0.293-0.205-0.581-0.411-0.878-0.615
	c-0.628-0.429-1.271-0.855-1.919-1.28c-0.198-0.13-0.389-0.261-0.588-0.39c-0.854-0.552-1.725-1.1-2.613-1.644
	c-0.231-0.142-0.472-0.281-0.706-0.422c-0.662-0.4-1.328-0.799-2.009-1.194c-0.348-0.202-0.707-0.401-1.06-0.602
	c-0.583-0.332-1.167-0.663-1.764-0.991c-0.394-0.217-0.796-0.431-1.196-0.646c-0.572-0.308-1.145-0.615-1.729-0.92
	c-0.425-0.222-0.857-0.442-1.288-0.663c-0.576-0.294-1.156-0.587-1.742-0.878c-0.446-0.221-0.896-0.441-1.348-0.66
	c-0.592-0.287-1.191-0.573-1.794-0.857c-0.459-0.216-0.919-0.432-1.385-0.647c-0.618-0.285-1.244-0.567-1.873-0.848
	c-0.465-0.208-0.929-0.417-1.401-0.623c-0.662-0.29-1.334-0.576-2.008-0.863c-0.45-0.191-0.897-0.384-1.353-0.574
	c-0.752-0.313-1.518-0.622-2.284-0.931c-0.394-0.159-0.781-0.319-1.178-0.477c-1.168-0.463-2.351-0.921-3.552-1.374
	c-32.414-12.214-73.831-19.74-118.481-21.685c-0.32-0.014-0.641-0.027-0.961-0.04c-2.281-0.095-4.567-0.179-6.864-0.245
	c-0.064-0.002-0.126-0.004-0.19-0.006c-2.273-0.064-4.556-0.111-6.843-0.146c-0.516-0.008-1.031-0.015-1.548-0.021
	c-2.276-0.029-4.556-0.049-6.845-0.049c-2.289,0-4.57,0.02-6.847,0.049c-0.514,0.007-1.027,0.013-1.54,0.021
	c-2.292,0.036-4.578,0.082-6.856,0.146c-0.048,0.001-0.096,0.003-0.144,0.005c-2.319,0.066-4.628,0.152-6.931,0.248
	c-0.301,0.013-0.602,0.024-0.902,0.038c-44.661,1.943-86.09,9.469-118.511,21.686c-1.201,0.452-2.383,0.911-3.552,1.374
	c-0.397,0.158-0.785,0.318-1.178,0.477c-0.766,0.309-1.532,0.618-2.284,0.931c-0.456,0.19-0.902,0.383-1.353,0.574
	c-0.674,0.286-1.346,0.573-2.008,0.863c-0.471,0.206-0.935,0.415-1.401,0.623c-0.629,0.281-1.255,0.564-1.873,0.848
	c-0.465,0.214-0.925,0.43-1.385,0.647c-0.603,0.284-1.202,0.57-1.794,0.857c-0.452,0.219-0.902,0.439-1.348,0.66
	c-0.587,0.291-1.167,0.584-1.743,0.878c-0.431,0.22-0.863,0.441-1.288,0.663c-0.584,0.305-1.157,0.612-1.729,0.92
	c-0.4,0.215-0.802,0.43-1.196,0.646c-0.598,0.329-1.183,0.661-1.768,0.994c-0.351,0.2-0.708,0.398-1.055,0.599
	c-0.683,0.396-1.349,0.796-2.013,1.196c-0.233,0.141-0.473,0.279-0.703,0.421c-0.888,0.544-1.759,1.092-2.613,1.644
	c-0.2,0.129-0.39,0.261-0.588,0.39c-0.648,0.425-1.292,0.85-1.919,1.28c-0.298,0.204-0.585,0.41-0.878,0.615
	c-0.514,0.359-1.028,0.719-1.528,1.082c-0.315,0.229-0.622,0.459-0.932,0.689c-0.462,0.343-0.923,0.687-1.372,1.033
	c-0.314,0.241-0.621,0.484-0.928,0.727c-0.429,0.339-0.855,0.679-1.272,1.021c-0.304,0.249-0.604,0.498-0.901,0.749
	c-0.194,0.163-0.397,0.325-0.588,0.488C78.529,195.35,95.466,181.621,119.992,170.581z M368.352,271.803
	c0.1-0.27,0.201-0.54,0.299-0.811c0.353-0.981,0.695-1.966,1.021-2.954c0.029-0.086,0.055-0.173,0.083-0.26
	c0.295-0.901,0.577-1.805,0.85-2.712c0.091-0.304,0.179-0.609,0.268-0.913c0.209-0.717,0.412-1.436,0.607-2.158
	c0.086-0.315,0.172-0.63,0.254-0.945c0.223-0.851,0.436-1.705,0.64-2.561c0.037-0.156,0.078-0.31,0.114-0.466
	c0.235-1.003,0.454-2.01,0.662-3.019c0.06-0.291,0.115-0.582,0.173-0.874c0.146-0.738,0.287-1.479,0.419-2.22
	c0.061-0.343,0.121-0.686,0.179-1.029c0.128-0.758,0.249-1.519,0.362-2.28c0.041-0.276,0.086-0.552,0.126-0.829
	c0.145-1.019,0.278-2.041,0.396-3.066c0.027-0.232,0.048-0.465,0.074-0.697c0.089-0.809,0.171-1.619,0.243-2.431
	c0.031-0.352,0.06-0.704,0.088-1.057c0.059-0.73,0.11-1.462,0.156-2.195c0.021-0.335,0.044-0.67,0.062-1.006
	c0.055-1.022,0.101-2.046,0.13-3.073c0.002-0.062,0.003-0.124,0.004-0.186c0.023-0.855,0.039-1.712,0.045-2.57h10.553
	c11.475,0,20.81,9.331,20.81,20.8c0,11.475-9.335,20.81-20.81,20.81h-18.286C368.038,272.669,368.193,272.236,368.352,271.803z
	 M360.61,190.262v33.729v6.689c0,1.024-0.015,2.045-0.043,3.063c-0.09,3.205-0.328,6.38-0.702,9.525
	c-1.406,11.839-4.81,23.227-10.18,33.989c-11.408,22.912-30.728,40.812-54.407,50.404c-12.463,5.062-25.678,7.629-39.278,7.629
	c-1.7,0-3.394-0.04-5.081-0.12c-0.914-0.043-1.826-0.101-2.736-0.168c-10.848-0.797-21.401-3.255-31.467-7.344
	c-23.673-9.59-42.994-27.489-54.406-50.407c-7.247-14.522-10.921-30.191-10.921-46.572v-6.689v-33.728
	c25.229-6.129,53.637-9.909,83.392-11.128c0.196-0.008,0.39-0.016,0.586-0.024c2.201-0.088,4.408-0.163,6.623-0.222
	c0.077-0.002,0.155-0.003,0.232-0.005c1.986-0.052,3.979-0.09,5.974-0.12c0.509-0.007,1.017-0.015,1.527-0.021
	c2.088-0.025,4.179-0.042,6.276-0.042c2.097,0,4.187,0.017,6.274,0.042c0.512,0.006,1.024,0.014,1.535,0.021
	c1.986,0.03,3.968,0.067,5.944,0.119c0.089,0.002,0.178,0.004,0.267,0.006c2.204,0.059,4.401,0.134,6.592,0.221
	c0.216,0.009,0.431,0.018,0.646,0.027C307.006,180.356,335.4,184.135,360.61,190.262z M290.601,358.4
	c0,1.398-0.083,2.79-0.248,4.148c-0.915,7.644-4.424,14.854-9.887,20.309c-0.618,0.618-1.256,1.211-1.913,1.777
	c-0.962,0.829-1.977,1.58-3.015,2.293c-2.507,1.722-5.212,3.12-8.083,4.124c-1.623,0.568-3.295,1.016-5.005,1.338
	c-0.002,0.001-0.004,0.001-0.007,0.002c-3.156,0.596-6.46,0.745-9.691,0.447c-1.078-0.1-2.148-0.25-3.203-0.449
	c-10.997-2.071-20.2-9.49-24.86-19.323c-1.553-3.278-2.602-6.824-3.044-10.529c-0.163-1.341-0.245-2.733-0.245-4.137v-8.54v-1.43
	c11.438,1.227,23.007,1.86,34.6,1.86c11.746,0,23.31-0.664,34.601-1.897v1.467L290.601,358.4L290.601,358.4z M144.125,273.1H125.84
	c-11.475,0-20.81-9.336-20.81-20.81c0-11.469,9.335-20.8,20.81-20.8h10.553c0.006,0.858,0.021,1.714,0.045,2.569
	c0.002,0.064,0.003,0.128,0.005,0.191c0.029,1.026,0.075,2.048,0.13,3.068c0.018,0.337,0.041,0.673,0.062,1.009
	c0.045,0.731,0.097,1.461,0.155,2.189c0.029,0.356,0.057,0.713,0.089,1.069c0.071,0.799,0.152,1.597,0.239,2.393
	c0.027,0.245,0.049,0.492,0.078,0.737c0.118,1.018,0.249,2.032,0.393,3.044c0.042,0.295,0.09,0.589,0.134,0.884
	c0.111,0.74,0.227,1.48,0.352,2.217c0.061,0.359,0.123,0.718,0.188,1.077c0.128,0.716,0.264,1.431,0.405,2.144
	c0.062,0.315,0.122,0.631,0.187,0.946c0.205,0.995,0.421,1.988,0.652,2.976c0.046,0.198,0.098,0.395,0.145,0.593
	c0.194,0.81,0.395,1.618,0.606,2.424c0.09,0.342,0.183,0.682,0.275,1.023c0.187,0.688,0.38,1.374,0.579,2.058
	c0.097,0.333,0.193,0.666,0.293,0.998c0.257,0.854,0.523,1.705,0.8,2.553c0.044,0.135,0.085,0.271,0.129,0.406
	c0.322,0.974,0.659,1.944,1.006,2.911c0.106,0.295,0.217,0.589,0.325,0.883C143.818,272.267,143.967,272.685,144.125,273.1z
	 M66.8,245.32c0-16.212,19.229-32.756,52.759-45.391c5.354-2.018,10.978-3.898,16.831-5.644v22.205h-10.55
	c-19.745,0-35.81,16.06-35.81,35.8c0,19.746,16.064,35.81,35.81,35.81h25.235c8.449,15.427,20.118,28.678,34.1,38.957
	c-23.198-5.504-45.144-13.674-64.694-24.247C87.871,285.175,66.8,262.609,66.8,245.32z M206.43,360.118
	c0.009,0.285,0.033,0.566,0.047,0.85c0.012,0.247,0.024,0.492,0.041,0.737c0.058,0.884,0.131,1.762,0.236,2.622
	c0.105,0.884,0.242,1.759,0.392,2.628c0.039,0.224,0.079,0.448,0.121,0.671c0.15,0.802,0.314,1.599,0.502,2.386
	c0.016,0.066,0.028,0.133,0.044,0.198c0.204,0.845,0.436,1.679,0.683,2.506c0.062,0.209,0.127,0.417,0.192,0.625
	c0.228,0.73,0.47,1.454,0.73,2.169c0.038,0.104,0.072,0.21,0.111,0.314c0.298,0.801,0.619,1.59,0.956,2.371
	c0.082,0.19,0.167,0.377,0.251,0.565c0.3,0.672,0.614,1.337,0.943,1.993c0.062,0.123,0.12,0.249,0.183,0.371
	c0.385,0.753,0.792,1.493,1.214,2.223c0.096,0.167,0.197,0.331,0.295,0.496c0.369,0.62,0.75,1.232,1.145,1.834
	c0.086,0.131,0.169,0.265,0.256,0.395c0.468,0.7,0.955,1.386,1.457,2.059c0.105,0.14,0.213,0.277,0.319,0.416
	c0.435,0.571,0.883,1.131,1.342,1.682c0.11,0.132,0.218,0.266,0.329,0.397c0.545,0.639,1.106,1.266,1.684,1.876
	c0.107,0.113,0.218,0.223,0.326,0.335c0.501,0.52,1.014,1.029,1.538,1.527c0.133,0.127,0.265,0.255,0.4,0.38
	c0.617,0.573,1.247,1.133,1.894,1.675c0.102,0.085,0.206,0.166,0.308,0.25c0.568,0.468,1.146,0.922,1.735,1.364
	c0.157,0.118,0.313,0.237,0.471,0.353c0.682,0.5,1.375,0.986,2.084,1.451c0.089,0.058,0.18,0.113,0.27,0.171
	c0.634,0.411,1.28,0.805,1.935,1.187c0.101,0.059,0.197,0.125,0.299,0.183l-28.328,16.36c-2.777,1.601-6.225,1.6-8.998,0.001
	c-2.774-1.6-4.497-4.582-4.497-7.783c0-0.376,0.023-0.75,0.064-1.103l3.582-29.06c0.062-0.506,0.137-1.008,0.227-1.505
	c0.629-3.48,1.946-6.737,3.933-9.71C199.523,365.008,202.727,362.117,206.43,360.118z M360.441,394.626
	c10.542,12.279,16.349,27.971,16.349,44.184V497H135.21v-58.19c0-16.214,5.807-31.905,16.35-44.184
	c7.321-8.527,16.597-15.057,26.907-19.074c-0.002,0.011-0.003,0.021-0.005,0.032c-0.145,0.793-0.268,1.589-0.365,2.389l-3.585,29.09
	c-0.114,0.967-0.172,1.941-0.172,2.897c0,8.546,4.6,16.507,12.005,20.778c0.906,0.522,1.84,0.979,2.794,1.373
	c0.019,0.008,0.037,0.017,0.056,0.025c0.255,0.105,0.515,0.192,0.773,0.288c0.234,0.087,0.466,0.182,0.702,0.262
	c0.12,0.04,0.243,0.07,0.364,0.109c0.876,0.279,1.763,0.515,2.661,0.69c0.05,0.01,0.1,0.015,0.15,0.024
	c0.972,0.184,1.952,0.312,2.937,0.375c0.174,0.011,0.348,0.009,0.521,0.017c0.344,0.015,0.687,0.033,1.031,0.033h0.001
	c0.345,0,0.69-0.019,1.035-0.033c0.173-0.007,0.346-0.005,0.519-0.017c3.623-0.233,7.204-1.283,10.443-3.15l39.95-23.072
	c0.146,0.017,0.294,0.022,0.44,0.038c0.613,0.065,1.227,0.116,1.843,0.158c0.264,0.018,0.526,0.041,0.789,0.055
	c0.881,0.047,1.763,0.076,2.646,0.076s1.766-0.03,2.647-0.076c0.262-0.014,0.522-0.037,0.783-0.055
	c0.619-0.042,1.237-0.094,1.853-0.159c0.145-0.015,0.291-0.021,0.436-0.037l39.956,23.076c0.462,0.266,0.931,0.516,1.406,0.749
	c0.719,0.353,1.456,0.655,2.2,0.931c0.24,0.089,0.477,0.187,0.718,0.268c2.482,0.833,5.073,1.249,7.665,1.249
	c3.6,0,7.201-0.807,10.508-2.414c0.025-0.012,0.051-0.022,0.076-0.034c0.476-0.233,0.945-0.483,1.407-0.749
	c7.403-4.27,12.003-12.231,12.003-20.777c0-0.956-0.058-1.93-0.177-2.938l-3.578-29.04c-0.098-0.802-0.221-1.601-0.367-2.396
	c-0.002-0.012-0.003-0.023-0.005-0.035C343.845,379.569,353.119,386.098,360.441,394.626z M314.864,368.596
	c2.261,3.385,3.657,7.153,4.152,11.212l3.575,29.009c0.046,0.393,0.068,0.767,0.068,1.143c0,3.201-1.723,6.184-4.495,7.782
	c-2.775,1.6-6.225,1.601-8.994,0.003l-28.37-16.384c0.009-0.005,0.018-0.012,0.027-0.017c0.84-0.486,1.662-1.004,2.473-1.54
	c0.122-0.08,0.244-0.158,0.365-0.24c0.777-0.523,1.538-1.072,2.286-1.641c0.142-0.107,0.283-0.216,0.423-0.325
	c0.743-0.577,1.473-1.174,2.185-1.796c0.11-0.096,0.217-0.195,0.326-0.292c0.743-0.66,1.474-1.337,2.182-2.045
	c7.83-7.817,12.865-18.165,14.177-29.124c0.105-0.866,0.179-1.745,0.237-2.628c0.017-0.251,0.029-0.501,0.042-0.753
	c0.014-0.282,0.037-0.561,0.047-0.844C309.274,362.119,312.481,365.014,314.864,368.596z M391.519,302.81
	c-19.55,10.572-41.496,18.743-64.694,24.247c13.984-10.28,25.653-23.532,34.1-38.957h25.236c19.745,0,35.81-16.064,35.81-35.81
	c0-19.74-16.064-35.8-35.81-35.8h-10.55v-22.205c5.852,1.746,11.477,3.626,16.831,5.644c33.529,12.635,52.759,29.179,52.759,45.391
	C445.2,262.609,424.129,285.175,391.519,302.81z"/>
<path d="M310.323,226.962c4.143,0,7.5-3.358,7.5-7.5v-2c0-4.142-3.357-7.5-7.5-7.5s-7.5,3.358-7.5,7.5v2
	C302.823,223.605,306.181,226.962,310.323,226.962z"/>
<path d="M201.677,209.962c-4.143,0-7.5,3.358-7.5,7.5v2c0,4.142,3.357,7.5,7.5,7.5s7.5-3.358,7.5-7.5v-2
	C209.177,213.32,205.819,209.962,201.677,209.962z"/>
<path d="M256,273.484c-8.573,0-16.61-4.216-21.501-11.279c-2.357-3.405-7.032-4.254-10.435-1.896
	c-3.405,2.358-4.255,7.03-1.896,10.435c7.691,11.108,20.34,17.739,33.833,17.739c13.493,0,26.142-6.631,33.833-17.739
	c2.358-3.405,1.509-8.077-1.897-10.435s-8.077-1.509-10.435,1.896C272.61,269.268,264.573,273.484,256,273.484z"/>
<path d="M250.696,119.578c1.465,1.464,3.385,2.197,5.304,2.197c1.919,0,3.839-0.732,5.304-2.197l23.886-23.885
	c1.406-1.406,2.196-3.314,2.196-5.303s-0.79-3.897-2.196-5.303l-23.886-23.885c-2.93-2.929-7.678-2.929-10.607,0l-23.886,23.885
	c-1.406,1.406-2.196,3.314-2.196,5.303s0.79,3.897,2.196,5.303L250.696,119.578z M256,77.111l13.279,13.279L256,103.669
	L242.721,90.39L256,77.111z"/>
<path d="M244.75,441.472h22.5c4.143,0,7.5-3.358,7.5-7.5s-3.357-7.5-7.5-7.5h-22.5c-4.143,0-7.5,3.358-7.5,7.5
	C237.25,438.114,240.607,441.472,244.75,441.472z"/>
<path d="M267.25,474.5h-22.5c-4.143,0-7.5,3.358-7.5,7.5s3.357,7.5,7.5,7.5h22.5c4.143,0,7.5-3.358,7.5-7.5
	S271.393,474.5,267.25,474.5z"/>
<g>
</g>
<g>
</g>
<g>
</g>
<g>
</g>
<g>
</g>
<g>
</g>
<g>
</g>
<g>
</g>
<g>
</g>
<g>
</g>
<g>
</g>
<g>
</g>
<g>
</g>
<g>
</g>
<g>
</g>
</svg>
