<?xml version="1.0" encoding="iso-8859-1"?>
<!-- Generator: Adobe Illustrator 19.0.0, SVG Export Plug-In . SVG Version: 6.00 Build 0)  -->
<svg version="1.1" id="Capa_1" xmlns="http://www.w3.org/2000/svg" xmlns:xlink="http://www.w3.org/1999/xlink" x="0px" y="0px"
	 viewBox="0 0 512 512" style="enable-background:new 0 0 512 512;" xml:space="preserve">
<g>
	<path style="fill:#FFA733;" d="M331.301,413.39v78.066c0,7.188-5.827,13.015-13.015,13.015H197.234
		c-7.188,0-13.015-5.827-13.015-13.015V413.39H331.301z"/>
	<path style="fill:#FFA733;" d="M474.538,292.287c-7.708,25.327-30.349,48.084-53.315,41.064
		c-23.442-7.122-28.916-39.045-21.418-63.806c8.25-27.063,31.415-47.711,53.329-41.064
		C473.768,234.759,483.359,263.327,474.538,292.287z"/>
	
		<ellipse transform="matrix(0.2911 0.9567 -0.9567 0.2911 337.2477 115.4191)" style="fill:#FFA733;" cx="90.742" cy="285.275" rx="54.811" ry="39.058"/>
</g>
<path style="fill:#FFB655;" d="M432.945,209.682l-10.844,99.029c0,47.22-49.861,94.682-95.937,122.765
	c-24.84,15.141-48.586,24.649-62.823,25.463c-48.666,2.771-140.727-67.673-157.826-123.086c-3.072-10.121-0.653,4.568-14.759-124.18
	c0-87.292,49.038-141.691,109.983-163.027C300.792,11.614,432.945,65.702,432.945,209.682z"/>
<path style="fill:#FFC477;" d="M432.945,209.682l-10.844,99.029c0,47.22-49.861,94.682-95.937,122.765
	c-9.257,3.474-17.38,5.522-23.665,5.884c-48.666,2.771-140.737-67.673-157.826-123.076c-3.072-10.121-0.653,4.558-14.77-124.19
	c0-67.522,29.338-115.365,70.835-143.448C300.792,11.614,432.945,65.702,432.945,209.682z"/>
<path style="fill:#AA6100;" d="M157.244,88.132c-15.282,10.312-23.796,17.27-28.485,24.79c-5.552,8.916-5.753,18.625-5.452,35.674
	c0.251,14.438-3.434,28.676-10.603,41.216l-14.96,37.049l-2.611,6.466c-1.526,3.785-6.828,4.036-8.645,0.382
	c-12.31-24.76-9.93-45.975-9.93-99.752C76.559,91.887,121.972,66.063,157.244,88.132z"/>
<path style="fill:#CC7400;" d="M123.307,148.596c0.251,14.438-3.434,28.676-10.603,41.216l-14.96,37.049v-85.163
	c0-15.894,12.882-28.776,28.776-28.776h2.239C123.207,121.838,123.006,131.547,123.307,148.596z"/>
<path style="fill:#884D00;" d="M444.833,192.272c0,10.261-2.008,29.067-6.637,41.889c-1.526,4.227-7.54,4.076-8.785-0.241
	c-23.756-82.603-17.691-58.265-20.693-89.842c-49.841-42.923-140.265-29.76-199.835-20.171c-19.117,3.072-35.041,5.773-45.443,6.145
	C90.505,132.692,40.132,36.324,35.353,27.468c-3.464-6.416,1.516-14.097,8.775-13.565c22.28,7.089,43.003,10.281,62.652,11.085
	c63.375,2.57,115.546-19.87,172.776-17.44C475.767,15.961,444.833,128.927,444.833,192.272z"/>
<path style="fill:#AA6100;" d="M444.833,192.272c0,10.261-2.008,29.067-6.637,41.889c-1.526,4.227-7.54,4.076-8.785-0.241
	c-23.756-82.603-17.691-58.265-20.693-89.842c-49.841-42.923-140.265-29.76-199.835-20.171
	c-57.723-16.175-96.649-88.778-102.101-98.919c63.375,2.57,115.546-19.87,172.776-17.44
	C475.767,15.961,444.833,128.927,444.833,192.272z"/>
<path style="fill:#884D00;" d="M415.944,133.193c-1.146,3.524-4.404,13.303-7.221,10.884
	c-49.044-43.746-142.453-29.452-207.46-19.007c-0.072,0.014-0.146,0.014-0.218,0.029c-3.08-1.686,151.123-39.67,204.423-15.548
	C414.462,113.62,418.981,123.806,415.944,133.193z"/>
<path style="fill:#1D1D1F;" d="M243.11,231.831l-3.123,30.413c-2.129,20.613-19.489,36.276-40.202,36.276h-46.286
	c-20.723,0-38.073-15.663-40.202-36.276l-3.454-33.615c-1.366-13.253,9.036-24.78,22.36-24.78h85.655
	C232.909,203.849,244.656,216.861,243.11,231.831z"/>
<path style="fill:#2D2D30;" d="M243.11,231.831l-3.123,30.413c-2.129,20.613-19.489,36.276-40.202,36.276h-13.153
	c-20.723,0-38.073-15.663-40.202-36.276l-3.454-33.615c-1.365-13.253,9.036-24.78,22.36-24.78h52.522
	C232.909,203.849,244.656,216.861,243.11,231.831z"/>
<path style="fill:#1D1D1F;" d="M412.241,228.628l-3.464,33.615c-2.119,20.613-19.478,36.276-40.192,36.276h-46.297
	c-20.713,0-38.073-15.663-40.192-36.276l-3.133-30.413c-1.536-14.97,10.211-27.983,25.252-27.983h85.665
	C403.205,203.849,413.607,215.375,412.241,228.628z"/>
<path style="fill:#2D2D30;" d="M412.241,228.628l-3.464,33.615c-2.119,20.613-19.478,36.276-40.192,36.276h-13.163
	c-20.713,0-38.073-15.663-40.192-36.276l-3.133-30.413c-1.536-14.97,10.211-27.983,25.252-27.983h52.532
	C403.205,203.849,413.607,215.375,412.241,228.628z"/>
<g>
	<path style="fill:#020202;" d="M300.644,368.465c-42.872,24.676-77.973,2.772-79.487,1.8c-3.48-2.255-8.133-1.272-10.401,2.205
		c-2.273,3.483-1.291,8.149,2.192,10.422c1.153,0.752,19.38,12.343,46.01,12.343c14.4,0,31.26-3.391,49.199-13.717
		c3.605-2.074,4.845-6.679,2.77-10.283C308.852,367.629,304.247,366.39,300.644,368.465z"/>
	<path style="fill:#020202;" d="M449.602,220.034c1.968-10.633,2.761-21.306,2.761-27.762c0-42.507,12.039-100.377-27.812-143.388
		C379.261,0.016,291.966,2.013,279.577,0.007c-4.127-0.181-7.661,3.062-7.832,7.219s3.062,7.661,7.219,7.832
		c10.485,1.648,93.773,0.071,134.532,44.058c32,34.522,25.85,81.704,23.716,137.163c-0.518,12.088-2.31,19.837-3.203,24.94
		c-0.131,0.03-0.261,0.07-0.392,0.11c-11.146-38.927-15.519-49.926-16.366-64.309c-0.963-16.906-0.633-16.259-5.884-20.543
		c-61.119-49.692-169.456-23.975-233.692-15.362c-4.127,0.552-7.018,4.337-6.466,8.464c0.552,4.117,4.337,7.018,8.464,6.466
		c54.928-7.389,165.142-33.767,221.824,11.818c2.335,26.852-1.431,10.026,12.882,61.136c0,0,0,0,0,0.01
		c0.001,0.003,0.002,0.006,0.003,0.009c-5.802-8.214-15.085-12.7-24.502-12.7h-28.244c-4.159,0-7.53,3.372-7.53,7.53
		c0,4.159,3.372,7.53,7.53,7.53h28.244c8.75,0,15.795,7.565,14.87,16.476l-3.464,33.615c-1.727,16.828-15.794,29.519-32.702,29.519
		h-46.297c-16.918,0-30.975-12.691-32.702-29.519c-3.085-31.114-3.451-30.842-3.142-34.027h0.009
		c0.876-8.919,8.358-16.065,18.242-16.065h29.159c4.159,0,7.53-3.372,7.53-7.53c0-4.159-3.372-7.53-7.53-7.53h-29.639
		c-11.353,0-22.199,5.898-28.26,16.065h-29.824c-6.004-10.082-16.844-16.065-28.274-16.065h-85.655
		c-5.643,0-11.125,1.596-15.834,4.538l3.133-7.761c14.475-25.663,10.6-45.817,11.456-60.373c8.226,2.737,16.162,4.056,17.741,4.056
		c3.685,0,6.898-2.701,7.44-6.446c0.602-4.117-2.249-7.942-6.366-8.534c-47.609-6.945-83.984-56.128-107.794-97.904
		c-0.581-1.085,0.125-2.216,1.044-2.44c82.338,25.748,144.906-0.215,206.813-5.603c4.147-0.361,7.209-4.016,6.848-8.153
		c-0.361-4.147-4.006-7.209-8.153-6.848C185.374,6.357,125.337,31.834,46.407,6.724c-7.736-2.487-19.709,4.481-19.709,16.366
		c0,4.832,2.162,8.113,2.319,8.504C42.15,56.057,59.555,80.516,79.28,99.588c-12.198,18.204-10.176,33.511-10.352,56.588
		c-0.241,31.828-0.371,50.644,5.803,68.878c-14.289,3.423-24.054,14.578-28.816,28.776c-14.114,42.06,18.354,96.586,56.257,92.442
		c14.089,31.786,45.719,62.768,74.52,83.396v61.789c0,11.326,9.217,20.543,20.543,20.543h121.048
		c11.336,0,20.553-9.217,20.553-20.543v-59.098c34.83-22.822,69.661-55.474,83.988-90.866c18.05,3.547,34.685-7.012,45.895-21.627
		C497.325,282.571,487.625,225.21,449.602,220.034z M132.203,211.379h85.655c10.153,0,17.862,8.271,17.862,17.792
		c0,1.534-1.308,13.917-3.223,32.3c-1.751,16.95-15.941,29.519-32.712,29.519h-46.286c-16.908,0-30.975-12.691-32.712-29.519
		l-3.454-33.615C116.408,218.942,123.455,211.379,132.203,211.379z M60.594,294.444c-8.817-28.978,3.325-58.344,25.824-55.072
		c8.573,79.592,9.157,86.972,10.452,91.971C79.911,330.222,65.899,311.896,60.594,294.444z M90.585,224.482
		c-8.416-20.793-6.496-41.805-6.496-90.525c0-8.826,2.329-17.119,6.597-24.208c7.827,6.382,16.615,12.371,25.694,16.888
		c-2.443,18.634,3.73,35.058-10.211,59.44C105.87,186.586,90.626,224.381,90.585,224.482z M323.775,491.457
		c0,3.022-2.46,5.482-5.492,5.482H197.235c-3.022,0-5.482-2.46-5.482-5.482v-51.718c20.047,12.466,48.573,26.072,72.02,24.72
		c14.428-0.833,36.517-9.257,60.002-22.822V491.457z M414.571,308.711c0,3.705-0.351,7.42-1.014,11.135
		c-0.934,5.301-2.52,10.603-4.659,15.864c-23.02,56.987-111.887,111.757-145.988,113.708
		c-48.063,2.722-140.902-72.44-151.591-122.494c-1.071-4.882-2.239-18.417-9.94-89.27c0.682-1.17,0.851-1.844,1.476-3.333
		l2.952,28.696c2.53,24.529,23.033,43.033,47.692,43.033h46.286c9.719,0,18.786-2.872,26.376-7.862v17.169
		c0,11.737,9.559,21.296,21.306,21.296h26.316c4.157,0,7.53-3.374,7.53-7.53c0-4.157-3.374-7.53-7.53-7.53h-26.316
		c-3.444,0-6.245-2.801-6.245-6.235v-33.083c8.104-13.896,5.924-24.523,9.378-49.67c0.181-1.727,0.221-3.454,0.12-5.161h20.631
		c-0.248,4.505,0.225,4.93,3.255,35.573c2.52,24.529,23.023,43.033,47.682,43.033h46.297c24.659,0,45.162-18.505,47.682-43.033
		c3.633-35.397,3.495-33.577,3.576-35.082c0.029,0.101,2.384,8.316,2.568,8.786C414.036,313.126,414.571,308.001,414.571,308.711z
		 M467.333,290.096c-5.495,18.071-21.844,38.84-39.871,36.889c1.386-5.914,2.139-11.878,2.169-17.852
		c0.014-0.129,8.031-73.437,8.012-73.265C461.247,228.543,477.227,257.602,467.333,290.096z"/>
</g>
<g>
</g>
<g>
</g>
<g>
</g>
<g>
</g>
<g>
</g>
<g>
</g>
<g>
</g>
<g>
</g>
<g>
</g>
<g>
</g>
<g>
</g>
<g>
</g>
<g>
</g>
<g>
</g>
<g>
</g>
</svg>
