<?xml version="1.0" encoding="iso-8859-1"?>
<!-- Generator: Adobe Illustrator 19.0.0, SVG Export Plug-In . SVG Version: 6.00 Build 0)  -->
<svg version="1.1" id="Capa_1" xmlns="http://www.w3.org/2000/svg" xmlns:xlink="http://www.w3.org/1999/xlink" x="0px" y="0px"
	 viewBox="0 0 512 512" style="enable-background:new 0 0 512 512;" xml:space="preserve">
<rect x="143.893" y="202.83" style="fill:#D9D4D4;" width="224.22" height="235.17"/>
<path style="fill:#484655;" d="M203.076,363.444h105.855c41.621,0,75.362,33.741,75.362,75.362V504.5H127.714v-65.694
	C127.714,397.184,161.455,363.444,203.076,363.444z"/>
<path style="fill:#35343F;" d="M308.93,363.444h-22.632c41.621,0,75.362,33.741,75.362,75.362V504.5h22.632v-65.695
	C384.292,397.184,350.551,363.444,308.93,363.444z"/>
<rect x="209.673" y="267.73" style="fill:#F0EEEE;" width="92.67" height="95.71"/>
<path style="fill:#FFB56B;" d="M368.113,166.54v64.14c0,61.91-50.19,112.11-112.11,112.11s-112.11-50.2-112.11-112.11v-64.14
	c3.85,1.73,8.12,2.69,12.61,2.69c10.19,0,19.23-4.93,24.88-12.54c5.64,7.61,14.68,12.54,24.87,12.54s19.23-4.93,24.88-12.54
	c5.64,7.61,14.68,12.54,24.87,12.54c10.19,0,19.23-4.93,24.88-12.54c5.64,7.61,14.68,12.54,24.87,12.54s19.23-4.93,24.88-12.54
	c5.64,7.61,14.68,12.54,24.87,12.54C359.993,169.23,364.263,168.27,368.113,166.54z"/>
<path style="fill:#EF9245;" d="M344.783,167.317v75.026c0,53.578-41.949,97.354-94.794,100.286c0.99,0.052,1.983,0.092,2.98,0.119
	c0.006,0,0.012,0.001,0.019,0.001c1.002,0.027,2.007,0.041,3.015,0.041l0,0c2.841,0,5.657-0.108,8.445-0.315
	c0.144-0.011,0.289-0.023,0.433-0.034c1.704-0.134,3.397-0.306,5.079-0.515c55.332-6.872,98.152-54.062,98.152-111.246v-64.14
	c-3.85,1.73-8.12,2.69-12.61,2.69C351.734,169.23,348.124,168.552,344.783,167.317z"/>
<path style="fill:#D9D4D4;" d="M307.655,439.154l-23.597-75.711h-12.722h-30.667h-12.722l-23.597,75.711
	c-1.909,6.125,2.668,12.346,9.084,12.346h15.448l-1.015,7.585c-1.163,8.69,5.597,16.415,14.364,16.415h27.543
	c8.768,0,15.528-7.725,14.364-16.415l-1.015-7.585h15.448C304.987,451.5,309.564,445.28,307.655,439.154z"/>
<g>
	<path style="fill:#F0EEEE;" d="M240.67,363.444l-12.803,95.641c-1.163,8.69,5.596,16.415,14.365,16.415h27.543
		c8.768,0,15.528-7.725,14.365-16.415l-12.803-95.641H240.67z"/>
	<path style="fill:#F0EEEE;" d="M450.273,374.76c-0.19,11.5-5.11,21.8-12.86,29.24c-7.75,7.42-18.33,11.98-29.83,11.98
		c-21.79,0-39.47-17.67-39.47-39.47v-195.1c0-6.844-5.632-12.21-12.475-12.181c-0.045,0-0.09,0-0.135,0
		c-10.19,0-19.23-4.93-24.87-12.54c-5.65,7.61-14.69,12.54-24.88,12.54s-19.23-4.93-24.87-12.54c-5.65,7.61-14.69,12.54-24.88,12.54
		s-19.23-4.93-24.87-12.54c-5.65,7.61-14.69,12.54-24.88,12.54s-19.23-4.93-24.87-12.54c-5.65,7.61-14.69,12.54-24.88,12.54
		c-0.045,0-0.09,0-0.135,0c-6.844-0.029-12.475,5.337-12.475,12.181v195.1c0,21.8-17.68,39.47-39.47,39.47h-0.75
		c-23.17,0-41.94-18.78-41.94-41.94c0-12.99,5.9-24.6,15.18-32.3c-3.2-4.96-5.06-10.86-5.06-17.2c0-8.43,3.28-16.08,8.63-21.78
		c-5.35-5.69-8.63-13.35-8.63-21.78c0-10.69,5.28-20.15,13.38-25.92c-6.99-5.47-11.48-13.98-11.48-23.54
		c0-7.62,2.86-14.57,7.55-19.85c-4.69-5.28-7.55-12.23-7.55-19.85c0-10.93,5.87-20.49,14.62-25.71
		c-8.75-5.22-14.62-14.78-14.62-25.71c0-9.97,4.89-18.8,12.4-24.24c-2.38-5.21-3.71-10.99-3.71-17.09
		c0-21.95,17.12-39.9,38.73-41.24c5.5-16.37,20.95-28.16,39.17-28.16c6.77,0,13.15,1.63,18.79,4.52
		c7.21-12.11,20.42-20.23,35.54-20.23c5.35,0,10.46,1.03,15.16,2.88c7.13-5.83,16.24-9.34,26.17-9.34c9.93,0,19.04,3.51,26.17,9.34
		c4.7-1.85,9.81-2.88,15.16-2.88c15.12,0,28.33,8.12,35.54,20.23c5.64-2.89,12.02-4.52,18.79-4.52c18.22,0,33.67,11.79,39.17,28.16
		c21.61,1.34,38.73,19.29,38.73,41.24c0,6.1-1.33,11.88-3.71,17.09c7.51,5.44,12.4,14.27,12.4,24.24c0,10.93-5.87,20.49-14.62,25.71
		c8.75,5.22,14.62,14.78,14.62,25.71c0,7.62-2.86,14.57-7.55,19.85c4.69,5.28,7.55,12.23,7.55,19.85c0,9.56-4.49,18.07-11.48,23.54
		c8.1,5.77,13.38,15.23,13.38,25.92c0,8.43-3.28,16.09-8.63,21.78c5.35,5.7,8.63,13.35,8.63,21.78c0,6.34-1.86,12.24-5.06,17.2
		C444.543,349.58,450.493,361.48,450.273,374.76z"/>
</g>
<path style="fill:#D9D4D4;" d="M435.093,341.74c3.2-4.96,5.06-10.86,5.06-17.2c0-8.43-3.28-16.08-8.63-21.78
	c5.35-5.69,8.63-13.35,8.63-21.78c0-10.69-5.28-20.15-13.38-25.92c6.99-5.47,11.48-13.98,11.48-23.54c0-7.62-2.86-14.57-7.55-19.85
	c4.69-5.28,7.55-12.23,7.55-19.85c0-10.93-5.87-20.49-14.62-25.71c8.75-5.22,14.62-14.78,14.62-25.71c0-9.97-4.89-18.8-12.4-24.24
	c2.38-5.21,3.71-10.99,3.71-17.09c0-21.95-17.12-39.9-38.73-41.24c-5.5-16.37-20.95-28.16-39.17-28.16
	c-4.176,0-8.201,0.624-11.998,1.778c12.775,3.874,22.929,13.764,27.169,26.382c21.61,1.34,38.73,19.29,38.73,41.24
	c0,6.1-1.33,11.88-3.71,17.09c7.51,5.44,12.4,14.27,12.4,24.24c0,10.93-5.87,20.49-14.62,25.71c8.75,5.22,14.62,14.78,14.62,25.71
	c0,7.62-2.86,14.57-7.55,19.85c4.69,5.28,7.55,12.23,7.55,19.85c0,9.56-4.49,18.07-11.48,23.54c8.1,5.77,13.38,15.23,13.38,25.92
	c0,8.43-3.28,16.09-8.63,21.78c5.35,5.7,8.63,13.35,8.63,21.78c0,6.34-1.86,12.24-5.06,17.2c9.45,7.84,15.4,19.74,15.18,33.02
	c-0.19,11.5-5.11,21.8-12.86,29.24c-4.892,4.684-10.913,8.223-17.579,10.2c3.712,1.156,7.658,1.78,11.749,1.78
	c11.5,0,22.08-4.56,29.83-11.98c7.75-7.44,12.67-17.74,12.86-29.24C450.493,361.48,444.543,349.58,435.093,341.74z"/>
<path d="M310.326,232.962c4.143,0,7.5-3.357,7.5-7.5v-2c0-4.143-3.357-7.5-7.5-7.5s-7.5,3.357-7.5,7.5v2
	C302.826,229.605,306.184,232.962,310.326,232.962z"/>
<path d="M201.68,232.962c4.143,0,7.5-3.357,7.5-7.5v-2c0-4.143-3.357-7.5-7.5-7.5s-7.5,3.357-7.5,7.5v2
	C194.18,229.605,197.537,232.962,201.68,232.962z"/>
<path d="M256.003,284.484c13.494,0,26.142-6.632,33.833-17.739c2.358-3.405,1.509-8.077-1.897-10.435s-8.077-1.508-10.435,1.896
	c-4.891,7.063-12.928,11.278-21.501,11.278s-16.61-4.216-21.501-11.278c-2.357-3.406-7.029-4.255-10.435-1.896
	c-3.405,2.358-4.255,7.03-1.896,10.435C229.861,277.853,242.509,284.484,256.003,284.484z"/>
<path d="M424.653,404.122c-5.22,2.852-11.122,4.358-17.07,4.358c-17.628,0-31.97-14.342-31.97-31.971V230.68v-49.27
	c0-5.242-2.046-10.167-5.761-13.865c-3.769-3.753-8.793-5.815-14.126-5.815c-0.029,0-0.06,0-0.089,0l-0.135,0.001
	c-2.344,0-4.625-0.338-6.792-0.988c-4.766-1.429-8.975-4.365-12.053-8.519c-1.413-1.907-3.647-3.033-6.022-3.034
	c-0.001,0-0.002,0-0.003,0c-2.373,0-4.607,1.124-6.023,3.029c-3.645,4.912-8.866,8.121-14.718,9.152
	c-1.35,0.238-2.734,0.36-4.14,0.36c-2.344,0-4.625-0.338-6.792-0.988c-4.766-1.429-8.975-4.365-12.053-8.519
	c-1.413-1.907-3.647-3.033-6.022-3.034c-0.001,0-0.002,0-0.003,0c-2.373,0-4.607,1.124-6.023,3.029
	c-3.645,4.912-8.866,8.121-14.718,9.152c-1.35,0.238-2.734,0.36-4.14,0.36c-2.344,0-4.625-0.338-6.792-0.988
	c-4.766-1.429-8.975-4.365-12.053-8.519c-1.413-1.907-3.648-3.033-6.023-3.034c-0.001,0-0.002,0-0.003,0
	c-2.373,0-4.607,1.124-6.022,3.029c-3.645,4.912-8.866,8.121-14.718,9.152c-1.35,0.238-2.734,0.36-4.14,0.36
	c-2.344,0-4.625-0.338-6.792-0.988c-4.766-1.429-8.975-4.365-12.053-8.519c-1.413-1.907-3.648-3.033-6.023-3.034
	c-0.001,0-0.002,0-0.003,0c-2.373,0-4.607,1.124-6.022,3.029c-1.605,2.163-3.52,3.989-5.655,5.451
	c-3.833,2.624-8.385,4.06-13.199,4.061c-0.025,0-0.091-0.001-0.106-0.001c-0.03,0-0.06,0-0.09,0c-5.364,0-10.39,2.063-14.157,5.815
	c-3.715,3.698-5.761,8.623-5.761,13.865v49.27v145.83c0,17.629-14.342,31.971-31.97,31.971h-0.675c-0.026,0-0.051-0.004-0.077-0.004
	c-8.902,0-17.026-3.395-23.145-8.957c-6.933-6.304-11.292-15.393-11.292-25.479c0-1.278,0.071-2.546,0.209-3.801
	c0.004-0.037,0.01-0.074,0.014-0.111c0.065-0.571,0.144-1.139,0.236-1.704c0.017-0.104,0.038-0.207,0.056-0.31
	c0.085-0.491,0.18-0.98,0.286-1.466c0.033-0.151,0.069-0.301,0.104-0.451c0.1-0.428,0.207-0.854,0.323-1.278
	c0.053-0.192,0.107-0.383,0.163-0.573c0.108-0.368,0.223-0.734,0.343-1.098c0.077-0.232,0.154-0.465,0.236-0.695
	c0.107-0.303,0.222-0.603,0.337-0.903c0.108-0.278,0.214-0.557,0.329-0.832c0.091-0.219,0.189-0.434,0.285-0.651
	c0.152-0.343,0.302-0.688,0.464-1.025c0.029-0.06,0.06-0.118,0.089-0.177c5.6-11.459,17.373-19.372,30.963-19.372
	c4.143,0,7.5-3.358,7.5-7.5c0-4.143-3.357-7.5-7.5-7.5c-8.518,0-16.54,2.165-23.544,5.975c-0.501-1.957-0.773-3.977-0.773-6.027
	v-0.005c0-0.73,0.038-1.455,0.103-2.175c0.006-0.063,0.008-0.126,0.014-0.188c0.067-0.686,0.167-1.365,0.291-2.039
	c0.017-0.092,0.032-0.185,0.049-0.277c0.127-0.647,0.283-1.286,0.461-1.918c0.033-0.115,0.064-0.231,0.098-0.345
	c0.181-0.606,0.387-1.204,0.615-1.793c0.052-0.135,0.105-0.269,0.159-0.402c0.229-0.564,0.481-1.12,0.753-1.666
	c0.074-0.148,0.15-0.295,0.227-0.442c0.275-0.525,0.569-1.041,0.883-1.546c0.095-0.153,0.193-0.303,0.291-0.453
	c0.319-0.489,0.654-0.969,1.01-1.436c0.114-0.15,0.232-0.298,0.35-0.445c0.359-0.451,0.734-0.892,1.127-1.32
	c4.447-4.831,10.818-7.864,17.886-7.864c4.143,0,7.5-3.357,7.5-7.5s-3.357-7.5-7.5-7.5c-8.043,0-15.527,2.432-21.763,6.593
	c-1.664-3.333-2.554-7.026-2.554-10.836c0-0.007,0.001-0.014,0.001-0.021c0-0.455,0.016-0.908,0.041-1.36
	c0.007-0.116,0.018-0.231,0.026-0.346c0.025-0.356,0.056-0.71,0.097-1.063c0.012-0.104,0.026-0.207,0.039-0.31
	c0.05-0.385,0.107-0.768,0.175-1.149c0.01-0.059,0.021-0.119,0.032-0.178c0.698-3.741,2.267-7.263,4.56-10.281
	c0.059-0.078,0.121-0.154,0.181-0.231c0.206-0.264,0.417-0.523,0.634-0.779c0.104-0.122,0.209-0.243,0.314-0.363
	c0.183-0.207,0.371-0.41,0.561-0.611c0.124-0.132,0.248-0.264,0.375-0.393c0.199-0.201,0.404-0.396,0.61-0.591
	c0.2-0.189,0.403-0.374,0.609-0.556c0.221-0.195,0.442-0.388,0.67-0.575c0.16-0.131,0.324-0.256,0.487-0.383
	c0.19-0.148,0.381-0.295,0.576-0.438c4.021-2.943,8.974-4.686,14.327-4.686c4.873,0,9.572,1.435,13.591,4.149
	c3.433,2.317,8.095,1.416,10.413-2.017c2.318-3.432,1.416-8.094-2.017-10.413c-6.507-4.396-14.11-6.72-21.987-6.72
	c-6.222,0-12.108,1.459-17.343,4.043c-3.263-3.962-5.074-8.931-5.074-14.191c0-5.48,2.009-10.762,5.657-14.869
	c2.523-2.841,2.523-7.12,0-9.961c-3.648-4.107-5.657-9.389-5.657-14.869c0-7.852,4.2-15.235,10.963-19.268
	c2.268-1.354,3.657-3.8,3.657-6.441c0-2.641-1.389-5.087-3.657-6.44c-6.864-4.096-10.963-11.3-10.963-19.271
	c0-7.156,3.477-13.947,9.3-18.165c2.894-2.096,3.907-5.942,2.422-9.191c-2.012-4.403-3.032-9.104-3.032-13.973
	c0-5.054,1.086-9.912,3.228-14.439c1.771-3.744,0.172-8.216-3.572-9.986c-3.744-1.771-8.215-0.172-9.986,3.572
	c-3.099,6.548-4.669,13.565-4.669,20.854c0,5.1,0.776,10.074,2.313,14.854c-6.971,6.97-11.002,16.508-11.002,26.476
	c0,9.631,3.781,18.836,10.261,25.711c-6.478,6.873-10.261,16.08-10.261,25.71c0,7.067,1.997,13.932,5.709,19.85
	c-3.712,5.918-5.709,12.782-5.709,19.85c0,8.597,2.888,16.729,8.112,23.27c-0.331,0.371-0.65,0.751-0.966,1.134
	c-0.022,0.027-0.046,0.052-0.068,0.079c-0.332,0.403-0.652,0.815-0.966,1.229c-0.071,0.093-0.145,0.183-0.215,0.277
	c-0.199,0.267-0.387,0.542-0.579,0.814c-2.544,3.593-4.499,7.627-5.727,11.967c-0.002,0.005-0.003,0.011-0.005,0.017
	c-0.154,0.545-0.297,1.095-0.428,1.65c-0.014,0.059-0.027,0.118-0.041,0.177c-0.117,0.508-0.226,1.018-0.324,1.533
	c-0.023,0.122-0.043,0.244-0.065,0.366c-0.083,0.461-0.161,0.923-0.227,1.389c-0.029,0.201-0.051,0.404-0.077,0.606
	c-0.05,0.397-0.101,0.794-0.14,1.196c-0.031,0.321-0.05,0.644-0.074,0.966c-0.021,0.295-0.048,0.588-0.062,0.885
	c-0.031,0.633-0.049,1.269-0.049,1.906v0.001v0.003c0,0.003,0,0.007,0,0.007c0.003,7.832,2.307,15.366,6.583,21.771
	c-0.171,0.257-0.319,0.527-0.484,0.787c-0.217,0.342-0.431,0.687-0.638,1.036c-0.209,0.354-0.417,0.708-0.615,1.068
	c-0.337,0.612-0.661,1.233-0.966,1.865c-0.146,0.304-0.279,0.614-0.417,0.922c-0.211,0.467-0.413,0.938-0.606,1.414
	c-0.122,0.303-0.245,0.606-0.36,0.912c-0.27,0.72-0.523,1.447-0.751,2.186c-0.066,0.213-0.121,0.429-0.183,0.644
	c-0.18,0.621-0.345,1.247-0.495,1.88c-0.057,0.242-0.115,0.483-0.168,0.727c-0.176,0.81-0.332,1.628-0.457,2.455
	c-0.018,0.119-0.029,0.24-0.046,0.36c-0.104,0.738-0.185,1.484-0.248,2.234c-0.019,0.23-0.038,0.459-0.053,0.69
	c-0.056,0.857-0.095,1.72-0.095,2.591c0,0.002,0,0.004,0,0.004v0.004v0.001c0,0,0,0.002,0,0.003
	c0.001,5.43,1.116,10.749,3.258,15.665c-3.461,3.685-6.297,7.85-8.462,12.336c-0.025,0.052-0.05,0.104-0.075,0.157
	c-0.299,0.624-0.584,1.254-0.856,1.89c-0.061,0.143-0.122,0.285-0.182,0.428c-0.228,0.546-0.444,1.097-0.652,1.651
	c-0.087,0.231-0.173,0.462-0.257,0.694c-0.168,0.471-0.328,0.945-0.482,1.42c-0.102,0.313-0.203,0.626-0.299,0.942
	c-0.121,0.4-0.233,0.802-0.343,1.206c-0.106,0.387-0.213,0.774-0.31,1.165c-0.084,0.338-0.159,0.679-0.236,1.019
	c-0.102,0.452-0.204,0.905-0.294,1.362c-0.055,0.282-0.102,0.566-0.152,0.849c-0.091,0.512-0.182,1.024-0.258,1.541
	c-0.033,0.226-0.057,0.454-0.087,0.681c-0.075,0.572-0.149,1.143-0.205,1.721c-0.014,0.146-0.021,0.294-0.034,0.44
	c-0.124,1.426-0.2,2.865-0.2,4.323c0,13.631,5.545,25.992,14.498,34.945c8.952,8.954,21.314,14.5,34.946,14.5h0.75
	c6.372,0,12.449-1.281,17.995-3.59c-1.426,6.08-2.204,12.407-2.204,18.916V504.5c0,4.143,3.357,7.5,7.5,7.5h256.578
	c4.143,0,7.5-3.357,7.5-7.5v-65.694c0-6.509-0.778-12.835-2.204-18.916c5.546,2.309,11.623,3.59,17.995,3.59
	c8.453,0,16.843-2.142,24.262-6.194c3.635-1.985,4.972-6.542,2.986-10.178C432.845,403.474,428.29,402.139,424.653,404.122z
	 M309.833,355.966v-18.455c21.792-10.999,39.316-28.239,50.78-48.94v85.536C346.651,362.931,329.018,356.173,309.833,355.966z
	 M221.702,345.306c0.203,0.061,0.408,0.116,0.611,0.176c1.234,0.362,2.473,0.702,3.717,1.023c0.31,0.08,0.619,0.163,0.929,0.24
	c1.379,0.345,2.764,0.665,4.155,0.96c0.282,0.06,0.566,0.113,0.848,0.171c1.236,0.252,2.475,0.484,3.72,0.697
	c0.267,0.046,0.533,0.096,0.801,0.139c1.409,0.23,2.824,0.433,4.244,0.614c0.324,0.041,0.648,0.077,0.972,0.116
	c1.309,0.155,2.622,0.292,3.939,0.404c0.177,0.015,0.353,0.035,0.53,0.049c1.446,0.117,2.898,0.201,4.355,0.266
	c0.342,0.015,0.686,0.028,1.029,0.04c1.479,0.053,2.962,0.09,4.45,0.09c1.489,0,2.971-0.037,4.45-0.09
	c0.343-0.013,0.686-0.025,1.029-0.04c1.456-0.065,2.908-0.149,4.354-0.266c0.177-0.014,0.354-0.034,0.531-0.049
	c1.318-0.112,2.631-0.249,3.94-0.404c0.323-0.038,0.647-0.075,0.969-0.116c1.421-0.18,2.837-0.383,4.247-0.614
	c0.266-0.044,0.531-0.093,0.797-0.139c1.247-0.213,2.489-0.445,3.726-0.698c0.28-0.057,0.562-0.11,0.842-0.17
	c1.393-0.294,2.78-0.616,4.16-0.96c0.308-0.077,0.614-0.159,0.921-0.238c1.249-0.323,2.493-0.664,3.731-1.027
	c0.199-0.059,0.4-0.113,0.599-0.172c1.375-0.412,2.741-0.854,4.102-1.316c0.143-0.048,0.288-0.089,0.431-0.138v12.087h-77.66
	v-12.087c0.145,0.05,0.292,0.091,0.437,0.14C218.968,344.454,220.331,344.895,221.702,345.306z M206.253,176.73
	c8.58,0,16.878-2.921,23.562-8.09c0.446-0.344,0.884-0.699,1.315-1.063c6.457,5.467,14.622,8.728,23.161,9.115
	c0.569,0.026,1.14,0.039,1.712,0.039c8.58,0,16.878-2.921,23.562-8.09c0.446-0.344,0.884-0.699,1.315-1.063
	c6.457,5.467,14.621,8.728,23.161,9.115c0.569,0.026,1.14,0.039,1.712,0.039c8.58,0,16.878-2.921,23.562-8.09
	c0.446-0.344,0.884-0.699,1.315-1.063c6.457,5.467,14.621,8.728,23.161,9.115c0.569,0.026,1.14,0.039,1.712,0.039h0.19
	c0.002,0,0.004-0.001,0.007-0.001c1.367,0.002,2.634,0.514,3.568,1.444c0.613,0.61,1.345,1.668,1.345,3.236v49.27
	c0,40.944-24.094,78.349-61.385,95.293c-13.599,6.183-28.142,9.317-43.226,9.317c-1.885,0-3.763-0.049-5.63-0.147
	c-13.075-0.685-25.697-3.761-37.597-9.172c-37.289-16.943-61.383-54.348-61.383-95.292v-49.27c0-1.568,0.731-2.626,1.345-3.236
	c0.936-0.932,2.204-1.444,3.593-1.444c0.006,0,0.02,0,0.03,0c0.005,0,0.009,0.001,0.013,0.001h0.13c8.58,0,16.878-2.921,23.562-8.09
	c0.446-0.344,0.884-0.699,1.315-1.063c6.457,5.467,14.622,8.728,23.161,9.115C205.11,176.717,205.681,176.73,206.253,176.73z
	 M202.173,337.511v18.455c-19.185,0.207-36.819,6.965-50.78,18.141v-85.535C162.857,309.272,180.382,326.513,202.173,337.511z
	 M376.792,497H135.214v-58.194c0-37.419,30.442-67.862,67.861-67.862h14.68l-20.565,65.98c-1.232,3.954,0.974,8.159,4.929,9.392
	c3.954,1.231,8.159-0.974,9.392-4.929l19.559-62.752l-2.678,20.008c-0.55,4.105,2.333,7.879,6.438,8.429
	c4.103,0.541,7.879-2.333,8.429-6.439l3.974-29.688h17.541l11.932,89.137c0.272,2.027-0.321,3.992-1.669,5.532
	c-1.347,1.54-3.216,2.388-5.262,2.388h-27.543c-2.046,0-3.915-0.848-5.262-2.388c-1.348-1.54-1.94-3.505-1.669-5.532l3.961-29.59
	c0.55-4.105-2.333-7.879-6.439-8.429c-4.1-0.543-7.88,2.332-8.429,6.439l-3.961,29.59c-0.842,6.286,1.071,12.628,5.248,17.4
	c4.176,4.772,10.208,7.51,16.55,7.51h27.543c6.342,0,12.374-2.737,16.55-7.51c4.177-4.772,6.09-11.114,5.248-17.4l-10.636-79.456
	l19.559,62.751c1.001,3.212,3.962,5.271,7.158,5.271c0.739,0,1.491-0.11,2.233-0.342c3.955-1.233,6.161-5.438,4.929-9.392
	l-20.565-65.98h14.68c37.419,0,67.861,30.443,67.861,67.862V497H376.792z"/>
<path d="M457.777,374.035c0-0.23-0.014-0.456-0.017-0.685c-0.007-0.475-0.016-0.949-0.036-1.422c-0.015-0.36-0.037-0.718-0.06-1.077
	c-0.03-0.468-0.064-0.934-0.107-1.399c-0.032-0.345-0.069-0.688-0.107-1.03c-0.055-0.486-0.116-0.969-0.185-1.452
	c-0.044-0.306-0.091-0.611-0.141-0.915c-0.085-0.528-0.18-1.052-0.282-1.576c-0.048-0.246-0.097-0.491-0.149-0.735
	c-0.125-0.593-0.262-1.182-0.409-1.769c-0.041-0.164-0.082-0.327-0.124-0.49c-0.177-0.678-0.369-1.352-0.575-2.021
	c-0.02-0.064-0.039-0.128-0.059-0.191c-2.206-7.074-5.979-13.59-11.13-19.066c2.137-4.902,3.249-10.208,3.256-15.623
	c0-0.014,0.002-0.028,0.002-0.042c0-0.883-0.04-1.756-0.097-2.625c-0.014-0.213-0.031-0.425-0.049-0.637
	c-0.064-0.78-0.148-1.555-0.257-2.322c-0.013-0.094-0.022-0.19-0.036-0.284c-0.126-0.84-0.285-1.67-0.464-2.492
	c-0.049-0.227-0.104-0.452-0.157-0.678c-0.155-0.657-0.326-1.306-0.514-1.95c-0.057-0.196-0.107-0.393-0.167-0.588
	c-0.231-0.749-0.487-1.486-0.761-2.214c-0.11-0.294-0.228-0.584-0.346-0.875c-0.199-0.492-0.408-0.979-0.626-1.462
	c-0.134-0.297-0.261-0.595-0.402-0.889c-0.307-0.637-0.634-1.262-0.974-1.879c-0.195-0.355-0.401-0.705-0.607-1.055
	c-0.209-0.353-0.425-0.701-0.644-1.047c-0.164-0.259-0.311-0.527-0.481-0.783c4.262-6.386,6.562-13.894,6.579-21.697
	c0-0.027,0.004-0.054,0.004-0.081c0-0.143-0.009-0.284-0.011-0.427c-0.005-0.488-0.014-0.976-0.037-1.462
	c-0.017-0.353-0.048-0.702-0.074-1.053c-0.02-0.266-0.035-0.533-0.061-0.799c-0.041-0.434-0.096-0.864-0.151-1.294
	c-0.022-0.169-0.04-0.338-0.064-0.507c-0.07-0.491-0.152-0.977-0.239-1.462c-0.018-0.097-0.034-0.194-0.052-0.291
	c-0.1-0.535-0.214-1.065-0.336-1.592c-0.009-0.039-0.018-0.078-0.027-0.117c-1.173-4.986-3.296-9.606-6.169-13.663
	c-0.19-0.27-0.377-0.542-0.575-0.808c-0.07-0.094-0.145-0.185-0.216-0.278c-0.314-0.415-0.635-0.826-0.966-1.229
	c-0.022-0.027-0.045-0.052-0.068-0.079c-0.316-0.382-0.635-0.763-0.966-1.134c5.225-6.541,8.112-14.674,8.112-23.27
	c0-7.067-1.997-13.932-5.709-19.85c3.712-5.918,5.709-12.782,5.709-19.85c0-9.63-3.782-18.837-10.261-25.71
	c6.48-6.875,10.261-16.08,10.261-25.711c0-9.968-4.031-19.506-11.001-26.476c1.536-4.78,2.311-9.755,2.311-14.854
	c0-24.083-17.61-44.374-40.906-48.18c-7.828-17.361-25.144-28.721-44.494-28.721c-5.575,0-10.975,0.915-16.125,2.727
	C326.343,13.39,312.23,6.46,297.333,6.46c-4.716,0-9.358,0.673-13.855,2.005C275.41,2.981,265.804,0,256.003,0
	s-19.407,2.981-27.476,8.465c-4.496-1.332-9.139-2.005-13.854-2.005c-14.896,0-29.01,6.93-38.205,18.437
	c-5.15-1.812-10.55-2.727-16.125-2.727c-19.35,0-36.666,11.359-44.494,28.72c-3.468,0.567-6.86,1.506-10.132,2.808
	c-3.849,1.532-5.727,5.894-4.195,9.742c1.531,3.848,5.896,5.723,9.742,4.195c3.309-1.317,6.799-2.098,10.374-2.319
	c3.045-0.188,5.673-2.204,6.644-5.097c4.632-13.786,17.516-23.049,32.061-23.049c5.414,0,10.586,1.243,15.37,3.694
	c3.517,1.803,7.839,0.563,9.864-2.838c6.176-10.373,17.053-16.566,29.096-16.566c4.26,0,8.436,0.794,12.414,2.359
	c2.524,0.993,5.392,0.545,7.494-1.174C240.61,17.716,248.219,15,256.003,15s15.393,2.716,21.422,7.646
	c2.102,1.72,4.97,2.168,7.494,1.174c3.978-1.565,8.154-2.359,12.414-2.359c12.043,0,22.92,6.193,29.096,16.566
	c2.024,3.4,6.346,4.642,9.864,2.838c4.784-2.451,9.956-3.694,15.37-3.694c14.545,0,27.429,9.263,32.061,23.049
	c0.972,2.893,3.6,4.908,6.646,5.097c17.772,1.103,31.694,15.929,31.694,33.755c0,4.868-1.02,9.569-3.032,13.974
	c-1.484,3.249-0.471,7.095,2.422,9.189c5.823,4.219,9.3,11.01,9.3,18.166c0,7.971-4.099,15.175-10.963,19.271
	c-2.269,1.353-3.657,3.8-3.657,6.44c0,2.642,1.39,5.088,3.657,6.441c6.763,4.033,10.963,11.417,10.963,19.268
	c0,5.48-2.009,10.762-5.657,14.869c-2.523,2.841-2.523,7.12,0,9.961c3.648,4.107,5.657,9.389,5.657,14.869
	c0,5.26-1.811,10.229-5.074,14.191c-5.235-2.584-11.121-4.043-17.343-4.043c-7.877,0-15.48,2.323-21.987,6.72
	c-3.433,2.319-4.335,6.981-2.017,10.413c2.318,3.433,6.979,4.335,10.413,2.017c4.019-2.715,8.718-4.149,13.591-4.149
	c5.353,0,10.306,1.743,14.327,4.686c0.195,0.143,0.387,0.29,0.576,0.438c0.163,0.127,0.328,0.252,0.487,0.383
	c0.23,0.188,0.453,0.383,0.675,0.579c0.203,0.179,0.402,0.362,0.599,0.547c0.209,0.197,0.416,0.394,0.617,0.597
	c0.126,0.127,0.247,0.259,0.37,0.389c0.192,0.203,0.382,0.408,0.566,0.617c0.104,0.118,0.208,0.237,0.31,0.358
	c0.22,0.259,0.434,0.522,0.642,0.79c0.057,0.073,0.115,0.145,0.172,0.219c2.299,3.024,3.872,6.557,4.567,10.309
	c0.008,0.041,0.015,0.081,0.022,0.122c0.073,0.403,0.133,0.81,0.185,1.218c0.01,0.082,0.022,0.165,0.032,0.248
	c0.045,0.383,0.078,0.767,0.105,1.153c0.006,0.087,0.015,0.173,0.02,0.26c0.027,0.465,0.043,0.932,0.043,1.401
	c0,3.81-0.89,7.504-2.554,10.838c-6.236-4.161-13.72-6.593-21.763-6.593c-4.143,0-7.5,3.357-7.5,7.5s3.357,7.5,7.5,7.5
	c7.068,0,13.439,3.033,17.886,7.864c0.394,0.429,0.769,0.87,1.129,1.322c0.117,0.146,0.234,0.293,0.348,0.442
	c0.356,0.469,0.693,0.95,1.013,1.441c0.097,0.148,0.193,0.296,0.287,0.447c0.316,0.509,0.612,1.028,0.888,1.556
	c0.074,0.142,0.148,0.284,0.219,0.428c0.275,0.552,0.529,1.113,0.761,1.683c0.051,0.127,0.101,0.254,0.151,0.382
	c0.231,0.597,0.44,1.202,0.623,1.816c0.031,0.105,0.06,0.211,0.09,0.317c0.181,0.642,0.34,1.291,0.468,1.948
	c0.016,0.08,0.028,0.161,0.043,0.241c0.126,0.686,0.228,1.378,0.296,2.076c0.005,0.047,0.007,0.094,0.011,0.141
	c0.066,0.732,0.105,1.47,0.105,2.212c0,2.051-0.272,4.071-0.773,6.028c-7.004-3.809-15.026-5.974-23.544-5.974
	c-4.143,0-7.5,3.357-7.5,7.5c0,4.142,3.357,7.5,7.5,7.5c14.214,0,26.443,8.656,31.696,20.972c0.02,0.047,0.04,0.093,0.06,0.14
	c0.189,0.448,0.366,0.901,0.536,1.358c0.043,0.116,0.084,0.232,0.126,0.349c0.148,0.412,0.29,0.828,0.423,1.247
	c0.055,0.174,0.105,0.349,0.157,0.523c0.113,0.378,0.224,0.758,0.325,1.141c0.063,0.242,0.117,0.486,0.175,0.73
	c0.079,0.33,0.16,0.659,0.229,0.992c0.094,0.455,0.174,0.914,0.249,1.374c0.039,0.234,0.076,0.469,0.109,0.705
	c0.071,0.496,0.136,0.994,0.185,1.496c0.022,0.222,0.034,0.447,0.051,0.669c0.031,0.393,0.061,0.786,0.08,1.182
	c0.012,0.265,0.014,0.532,0.02,0.799c0.01,0.454,0.023,0.908,0.016,1.365c-0.064,3.866-0.78,7.648-2.132,11.24
	c-1.459,3.877,0.502,8.202,4.379,9.66c0.87,0.327,1.762,0.482,2.64,0.482c3.033,0,5.89-1.854,7.021-4.861
	c1.96-5.208,2.999-10.685,3.091-16.273c0.003-0.214-0.006-0.425-0.005-0.638C457.769,374.176,457.777,374.106,457.777,374.035z"/>
<g>
</g>
<g>
</g>
<g>
</g>
<g>
</g>
<g>
</g>
<g>
</g>
<g>
</g>
<g>
</g>
<g>
</g>
<g>
</g>
<g>
</g>
<g>
</g>
<g>
</g>
<g>
</g>
<g>
</g>
</svg>
