<?xml version="1.0" encoding="iso-8859-1"?>
<!-- Generator: Adobe Illustrator 19.0.0, SVG Export Plug-In . SVG Version: 6.00 Build 0)  -->
<svg version="1.1" id="Layer_1" xmlns="http://www.w3.org/2000/svg" xmlns:xlink="http://www.w3.org/1999/xlink" x="0px" y="0px"
	 viewBox="0 0 512.001 512.001" style="enable-background:new 0 0 512.001 512.001;" xml:space="preserve">
<path style="fill:#9AD14B;" d="M407.455,156.636c7.893,1.316,13.232,8.785,11.905,16.678c-1.316,7.904-8.785,13.232-16.678,11.916
	c-7.893-1.316-13.232-8.785-11.916-16.689C392.081,160.648,399.55,155.31,407.455,156.636z"/>
<path style="fill:#2BA5F7;" d="M319.095,229.492c7.187,3.523,10.155,12.21,6.621,19.396c-3.523,7.187-12.21,10.155-19.396,6.621
	s-10.155-12.221-6.621-19.396C303.232,228.927,311.919,225.959,319.095,229.492z"/>
<path style="fill:#F95428;" d="M93.133,161.344c8.013,0,14.504,6.491,14.504,14.493s-6.491,14.493-14.504,14.493
	c-8.002,0-14.493-6.491-14.493-14.493S85.131,161.344,93.133,161.344z"/>
<path style="fill:#E09B2D;" d="M147.474,230.177l20.462-20.451c5.425-5.425,11.818-9.666,18.777-12.547
	c6.947-2.881,14.471-4.403,22.147-4.403c3.218,0,4.327-4.251,1.544-5.838c-28.823-16.483-48.241-47.523-48.241-83.109
	c0-21.799,7.295-41.902,19.57-57.983c18.179-23.821,47.284-38.858,79.836-37.619c22.93,0.87,43.772,9.894,59.798,24.202
	c19.853,17.711,32.313,43.522,32.15,71.954c-0.196,35.335-19.559,66.137-48.219,82.543c-1.098,0.631-1.598,1.674-1.598,2.707
	c0,1.587,1.174,3.142,3.12,3.142c15.352,0,30.073,6.099,40.935,16.95l43.577,43.577l32.15,32.15
	c6.578,6.589,9.872,15.221,9.872,23.854c0,8.622-3.294,17.244-9.872,23.832c-13.166,13.166-34.509,13.166-47.676,0l-35.988-35.988
	l8.459,82.358l8.926,86.947c0.12,1.185,0.185,2.359,0.185,3.512c0,18.483-15.015,33.878-33.933,33.878
	c-17.276,0-31.78-12.993-33.704-30.16l-9.742-74.215c-1.261-11.286-10.807-19.831-22.169-19.831s-20.908,8.546-22.169,19.831
	l-9.742,74.215c-0.968,8.589-5.067,16.135-11.101,21.517c-6.012,5.393-13.96,8.644-22.604,8.644
	c-20.103,0-35.792-17.385-33.748-37.39l3.631-35.39v-0.011l13.754-133.905l-35.988,35.988c-6.589,6.589-15.21,9.872-23.843,9.872
	c-8.622,0-17.255-3.283-23.832-9.872c-13.166-13.166-13.166-34.509,0-47.686L147.474,230.177z M306.32,255.51
	c7.187,3.534,15.874,0.565,19.396-6.621c3.534-7.187,0.565-15.874-6.621-19.396c-7.176-3.534-15.863-0.565-19.396,6.621
	C296.165,243.289,299.133,251.976,306.32,255.51z"/>
<g>
	<path style="fill:#C9841F;" d="M177.027,466.456l3.631-35.39v-0.011l11.859-115.451c1.014-9.871-6.732-18.454-16.655-18.454l0,0
		l-16.403,133.905v0.011l-3.631,35.39c-2.044,20.005,13.645,37.39,33.748,37.39c3.688,0,7.246-0.596,10.585-1.694
		C185.477,497.323,175.36,482.762,177.027,466.456z"/>
	<path style="fill:#C9841F;" d="M110.749,333.139c-13.166-13.166-13.166-34.509,0-47.686l55.275-55.275l20.462-20.451
		c5.425-5.425,11.818-9.666,18.777-12.547c6.947-2.881,14.471-4.403,22.147-4.403c3.218,0,4.327-4.251,1.544-5.838
		c-28.823-16.483-48.241-47.523-48.241-83.109c0-21.799,7.295-41.902,19.57-57.983c15.45-20.246,38.793-34.137,65.434-37.094
		c-2.246-0.247-4.509-0.437-6.799-0.524c-32.552-1.239-61.657,13.797-79.836,37.619c-12.275,16.08-19.57,36.183-19.57,57.983
		c0,35.585,19.418,66.626,48.241,83.109c2.783,1.587,1.674,5.838-1.544,5.838c-7.676,0-15.2,1.522-22.147,4.403
		c-6.958,2.881-13.351,7.121-18.777,12.547l-20.462,20.451l-55.275,55.275c-13.166,13.177-13.166,34.52,0,47.686
		c6.578,6.589,15.21,9.872,23.832,9.872c3.585,0,7.166-0.575,10.603-1.709C119.146,339.705,114.594,336.991,110.749,333.139z"/>
	<path style="fill:#C9841F;" d="M308.301,473.686l-9.742-74.215c-1.261-11.286-10.807-19.831-22.169-19.831
		c-3.825,0-7.433,0.987-10.601,2.702c6.24,3.38,10.732,9.643,11.569,17.128l9.742,74.215c1.924,17.168,16.428,30.16,33.704,30.16
		c3.716,0,7.278-0.601,10.608-1.696C319.109,498.102,309.814,487.188,308.301,473.686z"/>
</g>
<g>
	<path style="fill:#333333;" d="M429.245,279.691l-29.186-29.186l9.573-57.392c3.057-0.628,5.98-1.88,8.597-3.748
		c4.923-3.516,8.183-8.74,9.177-14.707c0.996-5.968-0.391-11.966-3.909-16.889c-3.515-4.924-8.739-8.184-14.706-9.178
		c-5.972-0.996-11.967,0.392-16.889,3.909c-4.924,3.516-8.184,8.739-9.178,14.706c-0.996,5.968,0.391,11.966,3.909,16.89
		c1.868,2.616,4.228,4.745,6.915,6.331l-7.657,45.91l-22.248-22.248c4.175-1.237,6.668-5.556,5.586-9.815
		c-1.109-4.365-5.55-7.004-9.91-5.897l-9.27,2.354c-8.364-7.264-18.271-12.229-28.941-14.57
		c25.137-19.378,40.383-49.575,40.565-81.729c0.12-21.289-6.264-41.752-18.173-59.092c2.942-0.65,5.417-2.889,6.179-6.014
		c1.065-4.375-1.617-8.787-5.993-9.854l-10.663-2.599l1.604-3.381c1.93-4.07,0.196-8.932-3.874-10.862
		c-4.064-1.929-8.931-0.196-10.86,3.874l-1.47,3.1C301.972,7.69,282.445,0.859,261.88,0.077
		c-28.535-1.077-55.529,9.197-76.044,28.947c-1.605,1.545-3.146,3.137-4.638,4.763l-4.534-4.534c-3.185-3.185-8.348-3.185-11.531,0
		c-3.105,3.104-3.183,8.09-0.234,11.289l-6.493,1.146c-4.435,0.783-7.396,5.012-6.614,9.447c0.698,3.955,4.138,6.739,8.021,6.739
		c0.471,0,0.947-0.041,1.426-0.126l3.824-0.675c-7.228,14.3-11.054,30.206-11.054,46.76c0,32.401,15.251,62.824,40.563,82.327
		c-12.184,2.675-23.372,8.769-32.406,17.801l-14.685,14.685l-33.645-33.645c1.247-2.805,1.955-5.902,1.955-9.164
		c0-12.49-10.161-22.65-22.65-22.65c-12.49,0-22.652,10.161-22.652,22.65s10.161,22.65,22.652,22.65
		c3.263,0,6.358-0.707,9.163-1.954l33.645,33.645l-43.41,43.41l-3.464-3.88c-2.998-3.359-8.154-3.652-11.513-0.653
		c-3.361,2.999-3.652,8.154-0.653,11.514l4.56,5.108c-4.741,6.907-7.3,15.067-7.3,23.624c0,11.184,4.359,21.698,12.262,29.595
		c7.899,7.912,18.411,12.27,29.604,12.27c11.186,0,21.701-4.355,29.611-12.264l19.767-19.767l-9.657,94.038l-0.66-0.66
		c-3.186-3.185-8.349-3.185-11.531,0c-3.186,3.185-3.186,8.347-0.001,11.531l5.045,5.045l-4.978,2.687
		c-3.963,2.139-5.442,7.086-3.302,11.049c1.473,2.732,4.282,4.283,7.182,4.283c1.307,0,2.634-0.315,3.866-0.98l1.055-0.57
		l-2.061,20.076c-1.21,11.826,2.663,23.669,10.629,32.491c7.962,8.82,19.344,13.878,31.228,13.878
		c10.374,0,20.336-3.808,28.042-10.714c7.699-6.884,12.584-16.33,13.761-26.606l9.732-74.148c0.007-0.051,0.013-0.103,0.018-0.155
		c0.801-7.17,6.847-12.577,14.063-12.577c7.215,0,13.26,5.407,14.062,12.577c0.005,0.052,0.012,0.104,0.018,0.155l9.733,74.151
		c2.426,21.282,20.383,37.317,41.802,37.317c23.205,0,42.084-18.857,42.084-42.035c0-1.436-0.077-2.902-0.227-4.337l-8.272-80.544
		l8.426-2.949c4.25-1.487,6.491-6.139,5.003-10.39c-1.486-4.25-6.137-6.491-10.391-5.003l-4.751,1.662l-5.06-49.272l19.767,19.767
		c7.911,7.911,18.427,12.267,29.609,12.267c11.184,0,21.697-4.358,29.601-12.267c7.909-7.91,12.264-18.421,12.264-29.599
		C441.51,298.116,437.155,287.6,429.245,279.691z M398.809,169.888c0.279-1.671,1.192-3.132,2.57-4.117
		c1.087-0.776,2.361-1.182,3.672-1.182c0.35,0,0.703,0.029,1.058,0.088c1.671,0.278,3.133,1.192,4.117,2.57
		c0.984,1.379,1.373,3.058,1.095,4.728l0,0c-0.279,1.671-1.192,3.133-2.57,4.117c-1.38,0.985-3.058,1.373-4.729,1.095
		c-1.67-0.278-3.133-1.192-4.117-2.57S398.531,171.559,398.809,169.888z M86.796,175.837c0-3.498,2.845-6.342,6.343-6.342
		s6.342,2.845,6.342,6.342s-2.844,6.342-6.342,6.342S86.796,179.335,86.796,175.837z M417.711,327.371
		c-4.825,4.828-11.241,7.488-18.066,7.488c-6.826,0-13.247-2.66-18.076-7.491L345.58,291.38c-2.441-2.44-6.154-3.078-9.268-1.598
		c-3.116,1.482-4.962,4.764-4.61,8.198l17.389,169.331c0.092,0.89,0.14,1.784,0.14,2.655c0,14.185-11.563,25.726-25.775,25.726
		c-13.134,0-24.141-9.849-25.606-22.909c-0.005-0.051-0.012-0.102-0.018-0.153l-9.732-74.148
		c-1.762-15.394-14.756-26.992-30.26-26.992c-15.502,0-28.495,11.595-30.26,26.986l-9.733,74.152
		c-0.007,0.049-0.012,0.099-0.018,0.148c-0.711,6.318-3.707,12.125-8.441,16.358c-4.718,4.228-10.813,6.557-17.164,6.557
		c-7.383,0-14.175-3.018-19.123-8.498c-4.95-5.483-7.263-12.551-6.509-19.9l17.387-169.315c0.352-3.432-1.494-6.715-4.61-8.198
		c-3.116-1.481-6.828-0.841-9.268,1.598l-35.988,35.988c-4.83,4.828-11.251,7.488-18.08,7.488c-6.83,0-13.245-2.657-18.069-7.49
		c-4.828-4.825-7.489-11.24-7.489-18.066c0-6.827,2.66-13.247,7.492-18.078l49.512-49.513l16,16c1.593,1.592,3.68,2.389,5.767,2.389
		c2.086,0,4.174-0.796,5.767-2.389c3.185-3.185,3.185-8.348,0-11.531l-16.001-16l14.685-14.685
		c9.394-9.393,21.881-14.565,35.168-14.565c5.186,0,9.563-3.364,10.895-8.37c1.334-5.015-0.8-10.119-5.31-12.7
		c-27.221-15.573-44.132-44.703-44.132-76.025c0-24.01,9.529-46.405,26.83-63.061c17.293-16.648,40.088-25.31,64.113-24.398
		c22.694,0.862,43.914,10.463,59.749,27.031c15.833,16.565,24.483,38.206,24.353,60.933c-0.175,31.103-17.078,60.036-44.112,75.51
		c-4.517,2.585-6.656,7.697-5.321,12.719c1.331,5.001,5.707,8.362,10.891,8.362c13.283,0,25.77,5.172,35.161,14.565l40.611,40.611
		l-2.413,14.466c-0.741,4.441,2.259,8.644,6.701,9.385c0.454,0.075,0.906,0.112,1.351,0.112c3.914,0,7.368-2.826,8.034-6.814
		l0.497-2.979l20.951,20.951c4.828,4.828,7.489,11.25,7.489,18.079C425.202,316.122,422.541,322.539,417.711,327.371z"/>
	<path style="fill:#333333;" d="M209.263,110.186l6.535-6.535l6.535,6.535c1.592,1.593,3.679,2.389,5.766,2.389
		c2.086,0,4.174-0.796,5.767-2.389c3.185-3.185,3.185-8.348-0.001-11.531l-6.534-6.534l6.534-6.534
		c3.186-3.185,3.186-8.347,0.001-11.531c-3.186-3.185-8.349-3.186-11.531,0l-6.535,6.535l-6.535-6.535
		c-3.183-3.186-8.347-3.185-11.531,0c-3.185,3.185-3.185,8.348,0.001,11.531l6.534,6.534l-6.534,6.534
		c-3.186,3.185-3.186,8.347-0.001,11.531c1.593,1.593,3.679,2.389,5.767,2.389C205.585,112.574,207.672,111.778,209.263,110.186z"/>
	<path style="fill:#333333;" d="M281.811,110.186c1.593,1.593,3.679,2.389,5.767,2.389c2.086,0,4.174-0.796,5.766-2.389l6.535-6.535
		l6.535,6.535c1.592,1.593,3.679,2.389,5.766,2.389s4.174-0.796,5.767-2.389c3.185-3.185,3.185-8.348-0.001-11.531l-6.534-6.534
		l6.534-6.534c3.186-3.185,3.186-8.347,0.001-11.531c-3.186-3.185-8.349-3.186-11.531,0l-6.535,6.535l-6.535-6.535
		c-3.183-3.186-8.347-3.185-11.531,0c-3.185,3.185-3.185,8.348,0.001,11.531l6.534,6.534l-6.534,6.534
		C278.626,101.838,278.626,107,281.811,110.186z"/>
	<path style="fill:#333333;" d="M262.489,151.918c0,4.503,3.65,8.154,8.154,8.154s8.154-3.651,8.154-8.154v-3.443h9.302v3.443
		c0,4.503,3.65,8.154,8.154,8.154c4.504,0,8.154-3.651,8.154-8.154v-3.443h3.081c4.504,0,8.154-3.651,8.154-8.154
		c0-4.503-3.65-8.154-8.154-8.154h-3.081v-2.356c0-4.503-3.65-8.154-8.154-8.154c-4.504,0-8.154,3.651-8.154,8.154v2.356h-9.302
		v-2.356c0-4.503-3.65-8.154-8.154-8.154c-4.504,0-8.154,3.651-8.154,8.154v2.356h-9.302v-2.356c0-4.503-3.65-8.154-8.154-8.154
		s-8.154,3.651-8.154,8.154v2.356h-9.301v-2.356c0-4.503-3.65-8.154-8.154-8.154s-8.154,3.651-8.154,8.154v2.356h-3.081
		c-4.504,0-8.154,3.651-8.154,8.154c0,4.503,3.65,8.154,8.154,8.154h3.081v3.443c0,4.503,3.65,8.154,8.154,8.154
		s8.154-3.651,8.154-8.154v-3.443h9.301v3.443c0,4.503,3.65,8.154,8.154,8.154s8.154-3.651,8.154-8.154v-3.443h9.302
		L262.489,151.918L262.489,151.918z"/>
	<path style="fill:#333333;" d="M322.695,222.169c-5.43-2.666-11.573-3.059-17.301-1.107c-5.727,1.954-10.348,6.021-13.015,11.451
		c-2.668,5.431-3.061,11.575-1.108,17.301c1.038,3.042,2.688,5.759,4.806,8.05l-35.819,72.929
		c-1.985,4.042-0.319,8.928,3.724,10.914c1.157,0.568,2.381,0.837,3.589,0.837c3.013,0,5.909-1.675,7.325-4.561l35.819-72.929
		c0.653,0.057,1.306,0.094,1.958,0.094c8.371,0,16.435-4.656,20.367-12.662l0,0c2.667-5.431,3.059-11.575,1.107-17.301
		C332.193,229.457,328.125,224.836,322.695,222.169z M318.402,245.294c-1.543,3.14-5.354,4.439-8.49,2.897
		c-1.52-0.747-2.659-2.041-3.206-3.644c-0.547-1.604-0.436-3.324,0.31-4.845c0.748-1.52,2.042-2.658,3.646-3.206
		c0.671-0.229,1.363-0.342,2.054-0.342c0.956,0,1.907,0.219,2.79,0.653c1.52,0.747,2.659,2.041,3.206,3.644
		C319.258,242.054,319.149,243.774,318.402,245.294z"/>
</g>
<g>
</g>
<g>
</g>
<g>
</g>
<g>
</g>
<g>
</g>
<g>
</g>
<g>
</g>
<g>
</g>
<g>
</g>
<g>
</g>
<g>
</g>
<g>
</g>
<g>
</g>
<g>
</g>
<g>
</g>
</svg>
