<?xml version="1.0" encoding="iso-8859-1"?>
<!-- Generator: Adobe Illustrator 19.0.0, SVG Export Plug-In . SVG Version: 6.00 Build 0)  -->
<svg version="1.1" id="Capa_1" xmlns="http://www.w3.org/2000/svg" xmlns:xlink="http://www.w3.org/1999/xlink" x="0px" y="0px"
	 viewBox="0 0 511.998 511.998" style="enable-background:new 0 0 511.998 511.998;" xml:space="preserve">
<path style="fill:#FA8500;" d="M361.756,366.833H150.244c-21.147,0-38.202-17.309-37.891-38.454l3.06-241.501
	C116.063,42.851,151.939,7.5,195.972,7.5h89.076c26.024,0,50.305,13.083,64.618,34.819l13.979,21.228h7.336
	c14.014,0,25.431,11.251,25.638,25.263l3.029,239.571C399.958,349.525,382.903,366.833,361.756,366.833z"/>
<path style="fill:#CE6A06;" d="M396.618,88.81c-0.206-14.012-11.624-25.263-25.638-25.263h-7.336l-13.979-21.228
	C335.353,20.583,311.073,7.5,285.048,7.5h-26.733c26.024,0,50.305,13.083,64.618,34.819l13.979,21.228h7.336
	c14.014,0,25.431,11.251,25.638,25.263l3.029,239.571c0.311,21.145-16.744,38.453-37.891,38.453h26.733
	c21.147,0,38.202-17.308,37.891-38.453L396.618,88.81z"/>
<path style="fill:#F0EEEE;" d="M203.073,363.444h105.855c41.621,0,75.362,33.741,75.362,75.362V504.5H127.711v-65.694
	C127.711,397.184,161.452,363.444,203.073,363.444z"/>
<path style="fill:#EF9AD3;" d="M203.073,363.444h105.855c41.621,0,75.362,33.741,75.362,75.362V504.5H127.711v-65.694
	C127.711,397.184,161.452,363.444,203.073,363.444z"/>
<path style="fill:#D67ABC;" d="M308.927,363.444h-22.501c41.621,0,75.362,33.741,75.362,75.362V504.5h22.501v-65.695
	C384.289,397.184,350.548,363.444,308.927,363.444z"/>
<polygon style="fill:#F0EEEE;" points="328.333,347.324 290.648,340.324 221.351,340.324 183.667,347.324 154.333,443.333 
	188,417.667 256,441.667 324,417.667 357.667,443.333 "/>
<path style="fill:#884130;" d="M313.885,363.593c-1.641-0.088-3.291-0.149-4.959-0.149h-11.143c0.198-1.656,0.312-3.337,0.312-5.047
	v-90.668h-84.192v90.668c0,1.709,0.114,3.391,0.312,5.047h-11.143c-1.668,0-3.318,0.061-4.959,0.149
	c-5.036,24.401,4.575,75.787,57.886,94.907C309.312,439.38,318.922,387.993,313.885,363.593z"/>
<path style="fill:#A1513D;" d="M125.839,223.99h49.369v56.61h-49.369c-15.632,0-28.305-12.673-28.305-28.305
	S110.207,223.99,125.839,223.99z"/>
<path style="fill:#884130;" d="M386.161,223.99h-49.369v56.61h49.369c15.632,0,28.305-12.673,28.305-28.305
	S401.793,223.99,386.161,223.99z"/>
<path style="fill:#B45F4A;" d="M368.109,171.72v58.96c0,61.91-50.19,112.11-112.11,112.11s-112.11-50.2-112.11-112.11V166h122.15
	c30.25,0,56.11-18.79,66.53-45.34C353.32,128.33,368.109,148.3,368.109,171.72z"/>
<path style="fill:#A1513D;" d="M368.109,230.68v-58.96c0-18.496-9.229-34.834-23.329-44.667v115.29
	c0,53.578-41.949,97.353-94.794,100.286c0.001,0,0.003,0,0.004,0c0.978,0.052,1.96,0.091,2.945,0.118
	c0.017,0,0.034,0.001,0.051,0.002c1.001,0.027,2.004,0.041,3.011,0.041c0.001,0,0.001,0,0.002,0
	C317.92,342.79,368.109,292.59,368.109,230.68z"/>
<g>
	<circle style="fill:#F0EEEE;" cx="387.04" cy="277.85" r="14.12"/>
	<circle style="fill:#F0EEEE;" cx="124.96" cy="277.85" r="14.12"/>
</g>
<path d="M287.936,260.31c-3.406-2.358-8.078-1.51-10.436,1.896c-4.89,7.062-12.928,11.278-21.5,11.278
	c-8.573,0-16.61-4.216-21.501-11.278c-2.358-3.406-7.03-4.254-10.435-1.896s-4.254,7.03-1.897,10.435
	c7.691,11.108,20.339,17.739,33.833,17.739c13.494,0,26.142-6.631,33.832-17.739C292.19,267.34,291.341,262.668,287.936,260.31z"/>
<path d="M310.324,209.962c-4.142,0-7.5,3.358-7.5,7.5v2c0,4.142,3.358,7.5,7.5,7.5s7.5-3.358,7.5-7.5v-2
	C317.824,213.32,314.466,209.962,310.324,209.962z"/>
<path d="M201.676,209.962c-4.142,0-7.5,3.358-7.5,7.5v2c0,4.142,3.358,7.5,7.5,7.5s7.5-3.358,7.5-7.5v-2
	C209.176,213.32,205.818,209.962,201.676,209.962z"/>
<path d="M421.97,252.29c0-12.091-6.221-23.371-16.165-29.92l-1.686-133.672c-0.27-18.002-15.136-32.648-33.139-32.648h-3.297
	l-11.75-17.856C340.18,14.278,313.682,0,285.049,0h-89.08c-24.802,0-48.587,10.545-65.257,28.933
	c-2.782,3.069-2.549,7.812,0.519,10.594c3.069,2.782,7.811,2.549,10.594-0.519C155.658,23.75,175.393,15,195.97,15h89.08
	c23.571,0,45.387,11.755,58.355,31.442l13.97,21.23c1.387,2.108,3.742,3.377,6.265,3.377h7.34c9.855,0,17.993,8.018,18.141,17.855
	l1.613,127.883c-1.506-0.191-3.029-0.298-4.573-0.298h-10.55v-44.77c0-25.808-16.251-49.154-40.44-58.095
	c-3.828-1.416-8.089,0.493-9.581,4.294c-9.675,24.651-33.049,40.58-59.548,40.58H161.667H143.89h-8.519c-4.142,0-7.5,3.358-7.5,7.5
	s3.358,7.5,7.5,7.5h1.019v42.99h-10.55c-1.544,0-3.068,0.107-4.573,0.298l1.642-129.794c0.125-8.198,1.588-16.213,4.351-23.825
	c1.414-3.894-0.597-8.196-4.491-9.609c-3.896-1.413-8.196,0.597-9.609,4.491c-3.333,9.184-5.1,18.845-5.25,28.734l-1.716,135.586
	c-9.948,6.554-16.165,17.832-16.165,29.919c0,11.034,4.961,21.199,13.444,27.95c0.26,2.344,0.899,4.622,1.893,6.747l-0.516,41.283
	c-0.18,12.248,4.457,23.799,13.058,32.526c8.601,8.728,20.082,13.534,32.331,13.534h0.824c-19.097,15.46-30.854,39.037-30.854,64.48
	v65.69c0,4.142,3.358,7.5,7.5,7.5h256.58c4.142,0,7.5-3.358,7.5-7.5v-65.69c0-33.492-20.361-63.763-51.042-76.516l-5.245-17.164
	c-0.816-2.674-3.053-4.672-5.802-5.183l-18.089-3.363c17.203-9.029,31.954-22.097,43.075-38.302
	c2.265-3.301,4.336-6.704,6.245-10.181h7.095c3.698,6.841,10.923,11.38,19.014,11.38c1.621,0,3.206-0.187,4.741-0.527l0.37,29.534
	c0.163,11.433-6.001,21.886-16.087,27.279c-3.653,1.953-5.031,6.498-3.078,10.15c1.351,2.527,3.942,3.965,6.62,3.965
	c1.193,0,2.404-0.286,3.53-0.888c15.056-8.05,24.257-23.653,24.013-40.708l-0.516-41.301c0.995-2.128,1.633-4.404,1.893-6.745
	C417.009,273.489,421.97,263.324,421.97,252.29z M395.129,233.518c7.193,3.434,11.841,10.803,11.841,18.772
	c0,4.192-1.23,8.169-3.461,11.516c-0.167-0.196-0.342-0.383-0.516-0.573c-0.053-0.058-0.103-0.117-0.157-0.174
	c-0.387-0.413-0.792-0.807-1.21-1.188c-0.082-0.075-0.164-0.149-0.248-0.222c-0.424-0.374-0.86-0.735-1.312-1.075
	c-0.062-0.047-0.127-0.091-0.189-0.137c-0.443-0.326-0.898-0.636-1.365-0.928c-0.051-0.032-0.1-0.066-0.151-0.097
	c-0.487-0.299-0.99-0.574-1.501-0.834c-0.1-0.051-0.199-0.101-0.3-0.15c-0.509-0.249-1.028-0.48-1.559-0.689
	c-0.087-0.034-0.175-0.065-0.263-0.098c-0.531-0.202-1.071-0.386-1.621-0.546c-0.035-0.01-0.068-0.022-0.103-0.032
	c-0.566-0.161-1.144-0.294-1.728-0.41c-0.11-0.022-0.219-0.044-0.33-0.064c-0.572-0.104-1.151-0.186-1.737-0.245
	c-0.107-0.011-0.214-0.018-0.322-0.027c-0.613-0.052-1.232-0.087-1.858-0.087c-0.383,0-0.763,0.011-1.141,0.03
	c-0.126,0.007-0.25,0.02-0.376,0.029c-0.251,0.017-0.503,0.034-0.751,0.06c-0.147,0.015-0.293,0.037-0.439,0.056
	c-0.224,0.028-0.448,0.055-0.67,0.09c-0.155,0.024-0.308,0.055-0.462,0.083c-0.211,0.038-0.422,0.075-0.63,0.119
	c-0.156,0.033-0.311,0.071-0.466,0.108c-0.203,0.048-0.406,0.095-0.606,0.148c-0.157,0.042-0.311,0.088-0.467,0.133
	c-0.195,0.057-0.39,0.113-0.583,0.175c-0.156,0.05-0.311,0.104-0.465,0.158c-0.189,0.065-0.377,0.131-0.563,0.202
	c-0.154,0.058-0.306,0.12-0.459,0.181c-0.183,0.074-0.365,0.149-0.545,0.228c-0.151,0.066-0.3,0.134-0.449,0.203
	c-0.178,0.083-0.355,0.167-0.531,0.255c-0.146,0.073-0.292,0.148-0.436,0.224c-0.173,0.092-0.345,0.185-0.516,0.281
	c-0.142,0.08-0.283,0.161-0.423,0.244c-0.168,0.099-0.334,0.202-0.499,0.306c-0.138,0.087-0.275,0.174-0.411,0.263
	c-0.164,0.108-0.325,0.22-0.486,0.332c-0.132,0.092-0.263,0.184-0.392,0.279c-0.159,0.117-0.316,0.237-0.471,0.359
	c-0.125,0.097-0.251,0.194-0.374,0.294c-0.156,0.127-0.308,0.257-0.46,0.388c-0.118,0.101-0.236,0.201-0.352,0.305
	c-0.152,0.137-0.301,0.278-0.449,0.419c-0.109,0.104-0.22,0.206-0.328,0.312c-0.15,0.149-0.296,0.303-0.442,0.456
	c-0.083,0.087-0.169,0.17-0.251,0.259c0.108-0.382,0.2-0.768,0.304-1.151c0.055-0.203,0.108-0.407,0.161-0.611
	c0.33-1.242,0.64-2.488,0.93-3.741c0.035-0.153,0.07-0.307,0.105-0.46c0.297-1.306,0.571-2.618,0.823-3.936
	c0.023-0.119,0.046-0.237,0.069-0.356c0.256-1.361,0.489-2.727,0.697-4.1c0.013-0.084,0.027-0.168,0.04-0.252
	c0.215-1.437,0.407-2.879,0.57-4.327c0.002-0.021,0.005-0.042,0.008-0.063c0.329-2.94,0.554-5.902,0.666-8.886
	c0.011-0.302,0.011-0.605,0.021-0.907c0.03-0.975,0.061-1.95,0.067-2.929h10.553C389.306,231.49,392.319,232.17,395.129,233.518z
	 M116.884,233.512c2.797-1.342,5.811-2.022,8.956-2.022h10.553c0.006,0.979,0.038,1.954,0.067,2.929
	c0.009,0.302,0.009,0.605,0.021,0.907c0.112,2.984,0.338,5.946,0.666,8.886c0.002,0.021,0.005,0.042,0.008,0.063
	c0.163,1.448,0.355,2.89,0.57,4.327c0.013,0.084,0.027,0.168,0.04,0.252c0.208,1.372,0.441,2.739,0.697,4.1
	c0.022,0.119,0.046,0.237,0.069,0.356c0.252,1.317,0.526,2.629,0.822,3.936c0.035,0.154,0.07,0.307,0.105,0.46
	c0.289,1.252,0.6,2.499,0.93,3.741c0.054,0.203,0.106,0.407,0.161,0.611c0.104,0.383,0.196,0.769,0.304,1.151
	c-0.081-0.088-0.168-0.172-0.251-0.259c-0.146-0.153-0.292-0.307-0.442-0.456c-0.107-0.106-0.218-0.208-0.328-0.312
	c-0.148-0.141-0.297-0.282-0.449-0.419c-0.115-0.104-0.234-0.204-0.352-0.305c-0.152-0.131-0.304-0.261-0.46-0.388
	c-0.123-0.1-0.249-0.197-0.374-0.294c-0.156-0.121-0.312-0.242-0.471-0.359c-0.129-0.095-0.261-0.187-0.392-0.279
	c-0.161-0.113-0.322-0.224-0.486-0.332c-0.136-0.09-0.273-0.177-0.411-0.263c-0.165-0.104-0.331-0.206-0.499-0.306
	c-0.14-0.083-0.281-0.164-0.423-0.244c-0.171-0.096-0.343-0.189-0.516-0.281c-0.145-0.076-0.29-0.151-0.436-0.224
	c-0.176-0.087-0.353-0.172-0.531-0.255c-0.149-0.069-0.298-0.137-0.449-0.203c-0.18-0.079-0.362-0.154-0.545-0.228
	c-0.152-0.062-0.305-0.123-0.459-0.181c-0.186-0.07-0.374-0.136-0.563-0.202c-0.155-0.054-0.309-0.108-0.465-0.158
	c-0.193-0.062-0.388-0.118-0.583-0.175c-0.155-0.045-0.31-0.091-0.467-0.133c-0.201-0.053-0.403-0.1-0.606-0.148
	c-0.155-0.036-0.31-0.075-0.466-0.108c-0.209-0.044-0.42-0.081-0.63-0.119c-0.154-0.028-0.307-0.058-0.462-0.083
	c-0.222-0.035-0.446-0.062-0.67-0.09c-0.146-0.019-0.292-0.041-0.439-0.056c-0.249-0.026-0.5-0.043-0.751-0.06
	c-0.125-0.009-0.25-0.022-0.376-0.029c-0.378-0.02-0.758-0.03-1.141-0.03c-0.626,0-1.245,0.035-1.858,0.087
	c-0.107,0.009-0.215,0.016-0.322,0.027c-0.586,0.059-1.165,0.141-1.738,0.245c-0.109,0.02-0.218,0.042-0.327,0.064
	c-0.586,0.116-1.166,0.249-1.734,0.411c-0.029,0.008-0.057,0.019-0.086,0.027c-0.562,0.163-1.112,0.351-1.654,0.558
	c-0.077,0.029-0.154,0.056-0.231,0.086c-0.543,0.214-1.074,0.45-1.594,0.705c-0.083,0.041-0.165,0.082-0.247,0.124
	c-0.531,0.269-1.052,0.555-1.557,0.865c-0.019,0.012-0.038,0.025-0.057,0.037c-0.523,0.324-1.03,0.67-1.522,1.036
	c-0.02,0.015-0.04,0.029-0.06,0.043c-0.491,0.368-0.964,0.759-1.422,1.167c-0.037,0.033-0.074,0.066-0.111,0.099
	c-0.69,0.624-1.345,1.286-1.949,1.995c-2.23-3.347-3.461-7.324-3.461-11.516C105.03,244.321,109.678,236.953,116.884,233.512z
	 M119.287,281.274c-0.635-1.037-0.957-2.189-0.957-3.424c0-0.23,0.014-0.49,0.038-0.721c0.36-3.363,3.194-5.899,6.592-5.899
	c3.65,0,6.62,2.97,6.62,6.62c0,0.441-0.041,0.866-0.128,1.296c-0.61,3.09-3.341,5.333-6.492,5.333
	C122.631,284.48,120.513,283.287,119.287,281.274z M128.593,350.268c-5.758-5.844-8.864-13.578-8.743-21.794l0.369-29.521
	c1.535,0.341,3.121,0.527,4.741,0.527c8.097,0,15.328-4.546,19.02-11.38h7.089c1.908,3.477,3.979,6.88,6.244,10.181
	c11.122,16.206,25.873,29.275,43.074,38.302l-18.088,3.363c-2.749,0.511-4.986,2.509-5.802,5.183l-4.34,14.201H150.24
	C142.04,359.33,134.352,356.112,128.593,350.268z M226.204,346.543c9.671,2.485,19.641,3.747,29.796,3.747
	c10.164,0,20.142-1.264,29.819-3.753c0.007-0.002,0.014-0.003,0.021-0.005c1.595-0.411,3.183-0.851,4.761-1.329V358.4
	c0,1.31-0.087,2.663-0.266,4.137c-0.259,2.131,0.408,4.271,1.832,5.877c1.424,1.606,3.467,2.526,5.614,2.526h9.593
	c1.237,14.436-2.572,34.355-14.419,51.207c-0.001,0.002-0.002,0.004-0.004,0.006c-8.93,12.728-21.353,22.253-36.95,28.34
	c-0.975-0.38-1.937-0.774-2.887-1.182c-14.25-6.109-25.692-15.227-34.067-27.164c-11.847-16.852-15.656-36.771-14.419-51.207h9.593
	c2.146,0,4.19-0.92,5.614-2.526c1.423-1.606,2.09-3.746,1.831-5.877c-0.179-1.474-0.266-2.827-0.266-4.137v-13.197
	c1.565,0.473,3.139,0.911,4.72,1.318C226.148,346.528,226.176,346.536,226.204,346.543z M184.542,370.143
	c0.005-0.016,0.006-0.032,0.011-0.047l0.301-0.984c0.012-0.038,0.023-0.076,0.035-0.114l4.625-15.135l16.886-3.139v5.217l-4.78,0.01
	c-0.081,0-0.163,0.001-0.244,0.004l-0.807,0.027c-0.533,0.011-1.061,0.034-1.575,0.062c-0.003,0-0.005,0-0.008,0
	c-0.026,0.001-0.051,0.003-0.077,0.003c-0.044,0.003-0.092,0.003-0.136,0.005c-0.013,0.001-0.027,0.002-0.04,0.003
	c-0.345,0.013-0.691,0.027-1.037,0.047l0.001,0.018c-0.001,0-0.002,0-0.003,0l-0.001-0.017c-2.175,0.121-4.087,1.17-5.376,2.744
	c-0.002,0.003-0.004,0.005-0.006,0.008c-0.238,0.291-0.452,0.601-0.645,0.926c-0.021,0.036-0.042,0.072-0.063,0.108
	c-0.184,0.322-0.347,0.656-0.482,1.005c-0.01,0.026-0.018,0.053-0.027,0.079c-0.134,0.356-0.244,0.724-0.323,1.103
	c-0.002,0.008-0.005,0.015-0.007,0.023c-0.001,0.006-0.003,0.013-0.004,0.019c-0.006,0.028-0.011,0.056-0.016,0.085
	c-0.135,0.659-0.257,1.342-0.373,2.038c-0.03,0.178-0.059,0.356-0.087,0.536c-0.117,0.738-0.226,1.489-0.32,2.264
	c-0.006,0.049-0.01,0.1-0.016,0.149c-0.088,0.735-0.163,1.49-0.229,2.256c-0.017,0.196-0.034,0.392-0.05,0.59
	c-0.064,0.815-0.12,1.641-0.159,2.487c-0.004,0.091-0.006,0.185-0.01,0.276c-0.033,0.778-0.054,1.569-0.065,2.371
	c-0.003,0.206-0.006,0.411-0.007,0.618c-0.006,0.881,0,1.773,0.022,2.68c0.003,0.129,0.01,0.261,0.014,0.391
	c0.024,0.813,0.061,1.637,0.108,2.47c0.012,0.213,0.023,0.424,0.037,0.638c0.06,0.936,0.133,1.882,0.225,2.84
	c0.015,0.16,0.034,0.322,0.05,0.482c0.085,0.849,0.184,1.706,0.295,2.57c0.027,0.21,0.052,0.419,0.081,0.63
	c0.133,0.982,0.282,1.973,0.449,2.972c0.031,0.185,0.066,0.372,0.098,0.557c0.153,0.88,0.319,1.767,0.5,2.658
	c0.041,0.203,0.08,0.405,0.122,0.608c0.213,1.018,0.445,2.042,0.695,3.072c0.049,0.204,0.103,0.408,0.154,0.612
	c0.229,0.913,0.472,1.831,0.731,2.751c0.052,0.185,0.101,0.369,0.154,0.554c0.301,1.044,0.623,2.093,0.965,3.144
	c0.071,0.218,0.146,0.437,0.219,0.655c0.313,0.941,0.643,1.885,0.99,2.83c0.06,0.161,0.115,0.323,0.176,0.484
	c0.396,1.059,0.817,2.119,1.257,3.18c0.039,0.095,0.073,0.189,0.112,0.284l-6.386-2.253c-2.383-0.84-5.031-0.425-7.042,1.107
	l-15.143,11.54L184.542,370.143z M376.79,438.81V497H135.21v-58.19c0-22.804,11.52-43.788,29.839-56.218l-17.891,58.546
	c-0.238,0.779-0.344,1.573-0.326,2.357c0.043,1.958,0.854,3.844,2.283,5.226c0.286,0.276,0.596,0.533,0.931,0.765
	c0.329,0.229,0.671,0.427,1.023,0.597c0.115,0.056,0.237,0.091,0.354,0.14c0.241,0.102,0.481,0.206,0.73,0.282
	c0.144,0.044,0.291,0.065,0.436,0.1c0.228,0.055,0.455,0.114,0.686,0.147c0.158,0.022,0.316,0.023,0.475,0.036
	c0.193,0.015,0.386,0.043,0.58,0.043c0.027,0,0.054-0.006,0.081-0.007c0.222-0.002,0.442-0.031,0.663-0.053
	c0.171-0.017,0.343-0.022,0.513-0.051c0.232-0.039,0.458-0.107,0.685-0.168c0.155-0.042,0.313-0.069,0.466-0.121
	c0.251-0.085,0.493-0.202,0.736-0.314c0.122-0.056,0.249-0.097,0.368-0.161c0.357-0.19,0.703-0.409,1.033-0.66l30.448-23.205
	l18.878,6.662c0.124,0.167,0.255,0.327,0.38,0.493c0.332,0.442,0.672,0.876,1.011,1.311c0.393,0.503,0.787,1.004,1.189,1.497
	c0.349,0.428,0.704,0.85,1.06,1.271c0.41,0.484,0.822,0.966,1.241,1.441c0.365,0.414,0.736,0.822,1.108,1.229
	c0.426,0.465,0.855,0.926,1.29,1.382c0.382,0.4,0.768,0.796,1.157,1.188c0.443,0.448,0.891,0.89,1.344,1.328
	c0.396,0.383,0.795,0.764,1.199,1.14c0.462,0.431,0.93,0.857,1.401,1.278c0.411,0.367,0.823,0.733,1.241,1.093
	c0.48,0.414,0.966,0.821,1.455,1.225c0.425,0.351,0.851,0.702,1.283,1.046c0.499,0.398,1.006,0.788,1.514,1.176
	c0.438,0.334,0.875,0.668,1.32,0.995c0.519,0.382,1.046,0.754,1.574,1.126c0.451,0.317,0.9,0.635,1.357,0.945
	c0.54,0.366,1.089,0.721,1.638,1.077c0.461,0.299,0.919,0.6,1.387,0.892c0.564,0.352,1.138,0.692,1.711,1.034
	c0.469,0.279,0.934,0.562,1.409,0.834c0.591,0.339,1.193,0.665,1.793,0.993c0.473,0.259,0.942,0.522,1.421,0.774
	c0.623,0.328,1.26,0.642,1.893,0.958c0.471,0.235,0.937,0.477,1.414,0.706c0.671,0.322,1.356,0.63,2.038,0.94
	c0.455,0.207,0.903,0.421,1.362,0.622c0.765,0.335,1.546,0.653,2.324,0.973c0.39,0.16,0.773,0.329,1.167,0.485
	c1.179,0.469,2.373,0.921,3.583,1.355c1.638,0.588,3.429,0.588,5.066,0c1.21-0.434,2.404-0.887,3.583-1.355
	c0.394-0.156,0.776-0.325,1.167-0.485c0.779-0.32,1.559-0.638,2.324-0.973c0.46-0.201,0.908-0.415,1.362-0.622
	c0.682-0.31,1.367-0.617,2.038-0.94c0.477-0.229,0.943-0.471,1.414-0.706c0.634-0.316,1.27-0.63,1.893-0.958
	c0.479-0.252,0.948-0.515,1.421-0.774c0.6-0.328,1.203-0.654,1.793-0.993c0.475-0.272,0.94-0.555,1.409-0.834
	c0.573-0.342,1.147-0.682,1.711-1.034c0.467-0.292,0.926-0.593,1.387-0.892c0.549-0.356,1.098-0.711,1.637-1.077
	c0.457-0.31,0.907-0.628,1.357-0.945c0.528-0.372,1.055-0.744,1.574-1.126c0.445-0.327,0.882-0.661,1.32-0.995
	c0.508-0.388,1.015-0.778,1.514-1.176c0.432-0.344,0.858-0.694,1.283-1.046c0.489-0.404,0.975-0.811,1.455-1.225
	c0.418-0.36,0.831-0.726,1.241-1.093c0.471-0.422,0.939-0.847,1.401-1.278c0.403-0.376,0.802-0.757,1.199-1.14
	c0.453-0.438,0.901-0.881,1.344-1.328c0.389-0.393,0.775-0.788,1.157-1.188c0.435-0.456,0.865-0.917,1.29-1.382
	c0.372-0.407,0.743-0.815,1.108-1.229c0.419-0.475,0.831-0.957,1.241-1.441c0.356-0.421,0.711-0.843,1.06-1.271
	c0.402-0.493,0.796-0.994,1.189-1.497c0.339-0.435,0.679-0.869,1.011-1.311c0.125-0.166,0.256-0.326,0.38-0.493l18.878-6.662
	l30.448,23.205c0.33,0.251,0.676,0.47,1.033,0.66c0.119,0.063,0.245,0.104,0.367,0.16c0.244,0.113,0.486,0.229,0.738,0.315
	c0.149,0.05,0.303,0.077,0.454,0.118c0.232,0.063,0.462,0.132,0.699,0.172c0.164,0.028,0.33,0.032,0.495,0.049
	c0.227,0.023,0.454,0.052,0.682,0.055c0.026,0,0.052,0.006,0.078,0.006c0.188,0,0.374-0.028,0.561-0.042
	c0.166-0.012,0.331-0.014,0.496-0.037c0.224-0.032,0.445-0.091,0.666-0.143c0.152-0.036,0.305-0.059,0.454-0.104
	c0.245-0.074,0.482-0.178,0.721-0.278c0.12-0.05,0.244-0.086,0.362-0.143c0.352-0.17,0.695-0.368,1.023-0.597
	c0.334-0.233,0.645-0.489,0.931-0.765c1.429-1.382,2.24-3.268,2.284-5.226c0.017-0.783-0.088-1.578-0.326-2.357l-17.891-58.546
	C365.27,395.022,376.79,416.006,376.79,438.81z M327.447,370.096c0.005,0.015,0.006,0.031,0.011,0.047l16.231,53.102l-15.143-11.54
	c-0.299-0.228-0.616-0.423-0.94-0.601c-0.098-0.054-0.199-0.1-0.299-0.15c-0.24-0.118-0.484-0.223-0.734-0.314
	c-0.108-0.039-0.214-0.08-0.323-0.114c-0.308-0.097-0.621-0.176-0.939-0.232c-0.042-0.007-0.083-0.021-0.125-0.027
	c-0.358-0.057-0.72-0.083-1.083-0.088c-0.035,0-0.069-0.008-0.104-0.008c-0.067,0-0.134,0.015-0.202,0.017
	c-0.286,0.008-0.572,0.032-0.857,0.072c-0.109,0.016-0.217,0.029-0.326,0.05c-0.374,0.07-0.746,0.16-1.11,0.288l-6.386,2.253
	c0.042-0.1,0.077-0.2,0.118-0.3c0.436-1.052,0.854-2.103,1.247-3.153c0.066-0.175,0.126-0.35,0.19-0.525
	c0.341-0.928,0.665-1.855,0.973-2.78c0.076-0.229,0.155-0.459,0.229-0.688c0.339-1.044,0.66-2.086,0.959-3.124
	c0.056-0.195,0.107-0.388,0.162-0.582c0.255-0.908,0.496-1.813,0.721-2.715c0.053-0.212,0.109-0.425,0.16-0.637
	c0.25-1.026,0.48-2.046,0.692-3.06c0.043-0.207,0.082-0.412,0.124-0.618c0.18-0.889,0.346-1.772,0.498-2.65
	c0.032-0.186,0.067-0.374,0.099-0.559c0.167-1,0.316-1.991,0.449-2.974c0.028-0.209,0.053-0.416,0.08-0.624
	c0.111-0.868,0.211-1.728,0.296-2.581c0.016-0.157,0.034-0.316,0.049-0.473c0.091-0.96,0.165-1.908,0.225-2.846
	c0.014-0.21,0.024-0.418,0.036-0.628c0.048-0.84,0.085-1.671,0.109-2.491c0.004-0.123,0.01-0.248,0.013-0.371
	c0.023-0.911,0.028-1.807,0.022-2.692c-0.001-0.202-0.005-0.402-0.007-0.603c-0.011-0.809-0.032-1.608-0.065-2.392
	c-0.004-0.087-0.005-0.175-0.009-0.261c-0.039-0.849-0.095-1.679-0.159-2.496c-0.015-0.194-0.032-0.385-0.049-0.577
	c-0.067-0.771-0.142-1.531-0.231-2.271c-0.005-0.046-0.01-0.094-0.015-0.14c-0.095-0.777-0.204-1.53-0.321-2.27
	c-0.028-0.178-0.057-0.354-0.086-0.53c-0.113-0.675-0.232-1.338-0.362-1.979c-0.602-3.36-3.442-5.965-6.964-6.161
	c-0.34-0.019-0.68-0.033-1.02-0.046c-0.009,0-0.02-0.001-0.029-0.002c-0.608-0.036-1.216-0.06-1.73-0.069l-0.9-0.03
	c-0.081-0.002-0.163-0.004-0.244-0.004l-4.78-0.01v-5.217l16.886,3.139L327.447,370.096z M295.28,327.66
	c-1.382,0.56-2.776,1.089-4.178,1.588c-0.046,0.016-0.091,0.034-0.137,0.05c-1.39,0.493-2.789,0.955-4.194,1.388
	c-0.053,0.016-0.105,0.033-0.158,0.049c-1.425,0.436-2.856,0.841-4.292,1.213c-0.008,0.002-0.017,0.004-0.025,0.006
	c-1.458,0.377-2.92,0.721-4.385,1.031c-14.287,3.058-29.515,3.062-43.838-0.004c-1.453-0.307-2.905-0.649-4.354-1.024
	c-0.021-0.005-0.043-0.011-0.064-0.017c-1.423-0.369-2.841-0.771-4.254-1.203c-0.063-0.019-0.126-0.039-0.189-0.059
	c-1.398-0.43-2.79-0.89-4.174-1.381c-0.046-0.017-0.093-0.034-0.139-0.051c-1.402-0.5-2.797-1.028-4.18-1.589
	c0,0-0.001,0-0.002-0.001c-24.049-9.746-42.926-27.574-54.079-49.635c-0.095-0.26-0.198-0.518-0.323-0.768
	c-2.713-5.444-4.925-11.047-6.632-16.784c-0.016-0.055-0.031-0.11-0.047-0.165c-0.316-1.068-0.61-2.142-0.891-3.22
	c-0.229-0.887-0.454-1.775-0.66-2.669c-0.072-0.31-0.135-0.622-0.205-0.933c-0.202-0.915-0.396-1.833-0.574-2.757
	c-0.05-0.259-0.099-0.519-0.147-0.779c-0.199-1.077-0.385-2.159-0.551-3.246c-0.016-0.102-0.033-0.204-0.049-0.306
	c-0.368-2.455-0.646-4.935-0.841-7.435c-0.02-0.262-0.038-0.525-0.056-0.787c-0.068-0.963-0.121-1.93-0.163-2.899
	c-0.013-0.313-0.029-0.626-0.04-0.94c-0.042-1.215-0.068-2.433-0.068-3.656v-6.69V173.5h10.276H266.04
	c30.055,0,56.854-16.601,70.273-42.901c14.769,8.155,24.297,23.916,24.297,41.122v52.27v6.69c0,1.223-0.027,2.441-0.068,3.656
	c-0.011,0.314-0.027,0.627-0.04,0.94c-0.042,0.969-0.095,1.935-0.163,2.898c-0.018,0.263-0.036,0.526-0.056,0.788
	c-0.195,2.5-0.473,4.98-0.841,7.435c-0.015,0.102-0.033,0.203-0.048,0.305c-0.166,1.088-0.352,2.17-0.551,3.249
	c-0.048,0.259-0.096,0.517-0.146,0.776c-0.178,0.924-0.372,1.842-0.574,2.758c-0.069,0.311-0.133,0.623-0.205,0.933
	c-0.208,0.901-0.434,1.795-0.665,2.687c-0.278,1.068-0.571,2.132-0.883,3.191c-0.017,0.059-0.034,0.119-0.051,0.178
	c-1.706,5.736-3.918,11.338-6.631,16.781c-0.124,0.25-0.227,0.506-0.321,0.765C338.212,300.082,319.333,317.912,295.28,327.66z
	 M380.54,279.112c-0.081-0.396-0.121-0.821-0.121-1.262c0-3.65,2.97-6.62,6.62-6.62c0.212,0,0.423,0.01,0.63,0.029
	c3.105,0.29,5.611,2.706,5.959,5.848c0.026,0.269,0.041,0.52,0.041,0.743c0,1.235-0.322,2.387-0.965,3.437
	c-1.218,2-3.336,3.193-5.665,3.193C383.889,284.48,381.158,282.237,380.54,279.112z"/>
<path d="M262.92,479.13c-0.18-0.45-0.41-0.89-0.68-1.29c-0.28-0.41-0.59-0.8-0.94-1.14c-0.34-0.35-0.73-0.66-1.14-0.94
	c-0.4-0.27-0.84-0.5-1.29-0.69c-0.45-0.18-0.93-0.33-1.4-0.42c-0.97-0.2-1.97-0.2-2.93,0c-0.48,0.09-0.96,0.24-1.41,0.42
	c-0.45,0.19-0.89,0.42-1.29,0.69c-0.41,0.28-0.8,0.59-1.14,0.94c-0.35,0.34-0.66,0.73-0.94,1.14c-0.27,0.4-0.5,0.84-0.69,1.29
	c-0.18,0.45-0.33,0.93-0.42,1.41c-0.1,0.48-0.15,0.97-0.15,1.46s0.05,0.98,0.15,1.46c0.09,0.48,0.24,0.96,0.42,1.41
	c0.19,0.45,0.42,0.89,0.69,1.29c0.28,0.41,0.59,0.8,0.94,1.14c0.34,0.35,0.73,0.66,1.14,0.94c0.4,0.27,0.84,0.5,1.29,0.69
	c0.45,0.18,0.93,0.33,1.41,0.42c0.48,0.1,0.97,0.15,1.46,0.15s0.98-0.05,1.47-0.15c0.47-0.09,0.95-0.24,1.4-0.42
	c0.45-0.19,0.89-0.42,1.29-0.69c0.41-0.28,0.8-0.59,1.14-0.94c0.35-0.34,0.66-0.73,0.94-1.14c0.27-0.4,0.5-0.84,0.68-1.29
	c0.19-0.45,0.34-0.93,0.43-1.41c0.1-0.48,0.15-0.97,0.15-1.46s-0.05-0.98-0.15-1.46C263.26,480.06,263.109,479.58,262.92,479.13z"/>
<g>
</g>
<g>
</g>
<g>
</g>
<g>
</g>
<g>
</g>
<g>
</g>
<g>
</g>
<g>
</g>
<g>
</g>
<g>
</g>
<g>
</g>
<g>
</g>
<g>
</g>
<g>
</g>
<g>
</g>
</svg>
