<?xml version="1.0" encoding="iso-8859-1"?>
<!-- Generator: Adobe Illustrator 19.0.0, SVG Export Plug-In . SVG Version: 6.00 Build 0)  -->
<svg version="1.1" id="Capa_1" xmlns="http://www.w3.org/2000/svg" xmlns:xlink="http://www.w3.org/1999/xlink" x="0px" y="0px"
	 viewBox="0 0 511.996 511.996" style="enable-background:new 0 0 511.996 511.996;" xml:space="preserve">
<path style="fill:#3D5868;" d="M238.078,7.5h35.841c67.974,0,123.079,55.105,123.079,123.08V245h-282V130.58
	C114.998,62.605,170.103,7.5,238.078,7.5z"/>
<path style="fill:#2A434F;" d="M273.918,7.5h-24.453c67.975,0,123.08,55.105,123.08,123.08V245h24.453V130.58
	C396.998,62.605,341.893,7.5,273.918,7.5z"/>
<path style="fill:#F0EEEE;" d="M203.071,363.444h105.855c41.621,0,75.362,33.741,75.362,75.362V504.5H127.709v-65.694
	C127.709,397.184,161.45,363.444,203.071,363.444z"/>
<path style="fill:#484655;" d="M203.071,363.444h105.855c41.621,0,75.362,33.741,75.362,75.362V504.5H127.709v-65.694
	C127.709,397.184,161.45,363.444,203.071,363.444z"/>
<path style="fill:#35343F;" d="M308.925,363.444h-22.501c41.621,0,75.362,33.741,75.362,75.362V504.5h22.501v-65.695
	C384.287,397.184,350.546,363.444,308.925,363.444z"/>
<g>
	<path style="fill:#575663;" d="M326.057,423.002l4.337,6.529c2.816,4.239,1.955,9.922-1.99,13.137l-51.217,41.743l-19.21-120.967
		h50.95c9.97,0,19.48,1.94,28.19,5.46l7.606,28.447c0.912,3.411-0.064,7.05-2.561,9.547L326.057,423.002z"/>
	<path style="fill:#575663;" d="M254.018,363.444l-19.21,120.967l-51.217-41.743c-3.944-3.215-4.805-8.898-1.99-13.137l4.337-6.529
		l-16.105-16.105c-2.497-2.497-3.473-6.135-2.561-9.547l7.606-28.447c8.71-3.52,18.22-5.46,28.19-5.46L254.018,363.444
		L254.018,363.444z"/>
</g>
<path style="fill:#F0EEEE;" d="M326.058,365.42l-51.84,126.2l-5.29,12.88h-25.86l-5.29-12.88l-51.84-126.2
	c5.51-1.28,11.24-1.98,17.13-1.98h105.86C314.818,363.44,320.548,364.14,326.058,365.42z"/>
<path style="fill:#2A434F;" d="M255.998,406.493L255.998,406.493c-11.195,0-21.361-4.378-28.902-11.505
	c-0.985,2.994-1.525,6.189-1.525,9.512c0,16.804,13.623,30.427,30.427,30.427s30.427-13.623,30.427-30.427
	c0-3.323-0.54-6.519-1.525-9.512C277.359,402.115,267.193,406.493,255.998,406.493z"/>
<g>
	<path style="fill:#D9D4D4;" d="M326.058,365.42l-26.51,64.54l-43.55-29.47v-37.05h52.93
		C314.818,363.44,320.548,364.14,326.058,365.42z"/>
	<path style="fill:#D9D4D4;" d="M255.998,363.44v37.05l-43.55,29.47l-26.51-64.54c5.51-1.28,11.24-1.98,17.13-1.98L255.998,363.44
		L255.998,363.44z"/>
</g>
<path style="fill:#884130;" d="M213.902,267.729v96.668c0,23.249,18.847,42.096,42.096,42.096l0,0
	c23.249,0,42.096-18.847,42.096-42.096v-96.668H213.902z"/>
<path style="fill:#A1513D;" d="M125.837,223.99h49.369v56.61h-49.369c-15.632,0-28.305-12.673-28.305-28.305
	S110.205,223.99,125.837,223.99z"/>
<path style="fill:#884130;" d="M386.159,223.99H336.79v56.61h49.369c15.632,0,28.305-12.673,28.305-28.305
	S401.791,223.99,386.159,223.99z"/>
<path style="fill:#B45F4A;" d="M368.108,155.45v75.23c0,61.91-50.19,112.11-112.11,112.11s-112.11-50.2-112.11-112.11v-56.77
	c22.57-6,40.15-24.25,45.2-47.2c29.86,26.43,69.11,42.49,112.12,42.49C324.968,169.2,347.588,164.3,368.108,155.45z"/>
<path style="fill:#A1513D;" d="M368.108,230.68v-75.23c-7.51,3.239-15.304,5.943-23.329,8.077v78.816
	c0,53.578-41.949,97.353-94.794,100.286c0.001,0,0.003,0,0.004,0c0.979,0.052,1.96,0.091,2.945,0.118
	c0.017,0,0.034,0.001,0.051,0.002c1.001,0.027,2.004,0.041,3.011,0.041c0.001,0,0.001,0,0.001,0
	C317.918,342.79,368.108,292.59,368.108,230.68z"/>
<path style="fill:#3D5868;" d="M274.218,491.62l-5.29,12.88h-25.86l-5.29-12.88l8.3-58.36c3.11,1.08,6.44,1.67,9.92,1.67
	c3.48,0,6.81-0.59,9.92-1.67L274.218,491.62z"/>
<path d="M255.998,288.484c13.494,0,26.142-6.631,33.832-17.739c2.358-3.405,1.509-8.078-1.896-10.435
	c-3.406-2.358-8.078-1.51-10.436,1.896c-4.89,7.062-12.928,11.278-21.5,11.278c-8.573,0-16.61-4.216-21.501-11.278
	c-2.357-3.406-7.03-4.254-10.436-1.896c-3.405,2.358-4.254,7.03-1.896,10.435C229.856,281.853,242.504,288.484,255.998,288.484z"/>
<path d="M310.322,226.962c4.142,0,7.5-3.358,7.5-7.5v-2c0-4.142-3.358-7.5-7.5-7.5s-7.5,3.358-7.5,7.5v2
	C302.822,223.605,306.18,226.962,310.322,226.962z"/>
<path d="M201.674,209.962c-4.142,0-7.5,3.358-7.5,7.5v2c0,4.142,3.358,7.5,7.5,7.5s7.5-3.358,7.5-7.5v-2
	C209.174,213.32,205.816,209.962,201.674,209.962z"/>
<path d="M360.931,288.1h25.227c19.746,0,35.81-16.065,35.81-35.81c0-13.043-7.016-24.475-17.47-30.733V130.58
	C404.498,58.578,345.92,0,273.918,0h-35.84c-35.95,0-69.442,14.299-94.307,40.263c-2.865,2.992-2.763,7.739,0.229,10.604
	c2.991,2.865,7.739,2.762,10.604-0.229C176.613,27.656,206.258,15,238.078,15h35.84c63.731,0,115.58,51.849,115.58,115.58v86.071
	c-1.1-0.102-2.213-0.161-3.34-0.161h-10.55v-61.04c0-2.524-1.27-4.879-3.378-6.266c-2.108-1.387-4.774-1.62-7.092-0.621
	c-20.212,8.717-41.721,13.137-63.93,13.137c-39.513,0-77.565-14.421-107.149-40.606c-1.991-1.762-4.765-2.337-7.293-1.515
	c-2.528,0.823-4.431,2.923-5.002,5.52c-4.399,19.991-20.022,36.305-39.802,41.564c-3.286,0.874-5.573,3.848-5.573,7.248v42.58
	h-10.55c-1.127,0-2.239,0.059-3.34,0.161V130.58c0-20.171,5.272-40.03,15.247-57.43c2.06-3.594,0.817-8.177-2.777-10.237
	c-3.593-2.058-8.175-0.817-10.237,2.777c-11.274,19.667-17.234,42.106-17.234,64.89v90.977c-10.454,6.259-17.47,17.69-17.47,30.733
	c0,19.746,16.064,35.81,35.81,35.81h25.227c12.442,22.704,31.832,40.731,55.333,51.438v16.402h-3.33
	c-0.747,0-1.495,0.011-2.242,0.031c-0.029,0-0.049,0.002-0.077,0.002c-0.031,0.001-0.062,0.002-0.093,0.003
	c-0.035,0.001-0.079,0.002-0.108,0.003c-0.08,0-0.159,0.001-0.238,0.004c-0.405,0.013-0.802,0.03-1.19,0.049
	c-0.056,0.003-0.112,0.007-0.169,0.009c-0.233,0.012-0.469,0.024-0.689,0.039c-0.521,0.029-1.046,0.074-1.571,0.115
	c-0.243,0.019-0.485,0.032-0.728,0.053c-0.026,0.002-0.053,0.004-0.079,0.006c-0.063,0.005-0.124,0.013-0.187,0.019
	c-0.538,0.048-1.075,0.106-1.611,0.164c-0.149,0.016-0.297,0.029-0.447,0.045l-0.121,0.013c-0.001,0-0.002,0-0.003,0
	c-0.003,0-0.006,0.001-0.008,0.001l-0.008,0.001c-0.289,0.033-0.581,0.077-0.872,0.113c-0.749,0.094-1.498,0.192-2.243,0.306
	c-0.87,0.133-1.738,0.278-2.604,0.44c-0.481,0.09-0.961,0.19-1.44,0.289c-0.703,0.144-1.404,0.298-2.103,0.46
	c-0.427,0.1-0.854,0.196-1.279,0.302c-1.055,0.263-2.107,0.546-3.152,0.851c-0.305,0.089-0.607,0.188-0.911,0.281
	c-0.845,0.258-1.687,0.529-2.525,0.814c-0.343,0.117-0.685,0.234-1.026,0.355c-1.091,0.388-2.177,0.791-3.253,1.225
	c-0.006,0.003-0.013,0.005-0.019,0.007c-31.506,12.705-51.865,42.877-51.865,76.866v65.69c0,4.142,3.358,7.5,7.5,7.5h115.36h25.86
	h115.36c4.142,0,7.5-3.358,7.5-7.5v-65.69c0-33.989-20.358-64.161-51.86-76.864c-0.003-0.001-0.006-0.002-0.01-0.004
	c-1.082-0.437-2.174-0.842-3.27-1.231c-0.337-0.12-0.676-0.236-1.014-0.351c-0.846-0.288-1.695-0.562-2.549-0.822
	c-0.297-0.091-0.592-0.188-0.889-0.275c-1.05-0.307-2.105-0.59-3.164-0.855c-0.42-0.105-0.841-0.2-1.262-0.298
	c-0.705-0.164-1.413-0.319-2.122-0.465c-0.476-0.098-0.951-0.197-1.429-0.286c-0.876-0.163-1.754-0.311-2.634-0.445
	c-0.742-0.114-1.488-0.21-2.234-0.304c-0.29-0.036-0.58-0.081-0.871-0.113c-0.002,0-0.004,0-0.006,0
	c-0.003,0-0.006-0.001-0.009-0.001l-0.11-0.012c-0.15-0.017-0.3-0.029-0.449-0.046c-0.536-0.058-1.071-0.116-1.609-0.163
	c-0.063-0.005-0.125-0.014-0.187-0.019c-0.035-0.003-0.069-0.005-0.104-0.008c-0.001,0-0.001,0-0.002,0
	c-0.754-0.063-1.515-0.124-2.204-0.162c-0.035-0.002-0.071-0.003-0.106-0.005c-0.104-0.006-0.208-0.009-0.312-0.015
	c-0.021-0.001-0.042-0.002-0.063-0.003c-0.254-0.013-0.507-0.026-0.761-0.036c-0.291-0.013-0.578-0.033-0.872-0.042
	c-0.08-0.003-0.108-0.004-0.188-0.004c-0.11-0.004-0.22-0.007-0.331-0.008c-0.747-0.021-1.494-0.031-2.24-0.031h-3.33v-16.402
	C329.101,328.829,348.49,310.802,360.931,288.1z M337.482,399.284c0.219,0.821-0.021,1.707-0.627,2.313l-16.1,16.1
	c-2.525,2.525-2.92,6.48-0.943,9.455l4.334,6.521c0.685,1.033,0.477,2.405-0.475,3.183l-28.329,23.085l35.116-85.494
	c0.138,0.046,0.278,0.087,0.417,0.134L337.482,399.284z M290.292,432.753l-12.532,30.509l-3.621-25.457
	c4.057-2.209,7.7-5.152,10.731-8.72L290.292,432.753z M263.62,426.128c-0.054,0.017-0.109,0.028-0.162,0.046
	c-1.796,0.624-3.667,1.014-5.556,1.17c-0.006,0.001-0.013,0.001-0.019,0.001c-1.254,0.103-2.515,0.103-3.769,0
	c-0.006,0-0.013-0.001-0.019-0.001c-1.889-0.157-3.759-0.547-5.556-1.17c-0.053-0.018-0.108-0.029-0.161-0.046
	c-3.284-1.154-6.265-3.04-8.713-5.529l10.306-6.973c0.166,0.02,0.334,0.027,0.5,0.045c0.305,0.034,0.608,0.077,0.916,0.105
	c0.363,0.034,0.728,0.051,1.091,0.077c0.252,0.018,0.503,0.039,0.755,0.053c0.152,0.009,0.303,0.023,0.456,0.03
	c0.77,0.036,1.54,0.054,2.31,0.054c0.79,0,1.58-0.02,2.37-0.058c0.153-0.007,0.304-0.02,0.457-0.028
	c0.227-0.013,0.454-0.034,0.681-0.05c0.043-0.003,0.087-0.006,0.13-0.009c0.355-0.026,0.711-0.045,1.066-0.078
	c0.326-0.03,0.65-0.072,0.975-0.108c0.116-0.013,0.233-0.018,0.349-0.032l10.306,6.973
	C269.885,423.088,266.903,424.974,263.62,426.128z M191.24,417.695l-16.098-16.088c-0.607-0.609-0.847-1.499-0.628-2.319
	l6.608-24.706c0.138-0.047,0.278-0.088,0.416-0.134l35.116,85.494l-28.32-23.079c-0.961-0.785-1.169-2.156-0.49-3.181l4.34-6.53
	C194.162,424.177,193.766,420.22,191.24,417.695z M221.704,432.753l5.421-3.668c3.031,3.569,6.674,6.511,10.731,8.72l-3.621,25.457
	L221.704,432.753z M290.598,345.209v18.231v0.96c0,1.156-0.056,2.303-0.167,3.438c-0.778,7.945-4.247,15.308-9.966,21.019
	c-0.212,0.212-0.433,0.413-0.649,0.618l-0.653,0.607c-1.233,1.104-2.498,2.096-3.761,2.946c-0.106,0.072-0.211,0.146-0.314,0.223
	l-0.305,0.192c-0.003,0.002-0.006,0.004-0.009,0.006l-0.057,0.036c-0.224,0.144-0.439,0.28-0.694,0.435
	c-0.617,0.379-1.318,0.775-2.142,1.211c-0.04,0.021-0.079,0.043-0.119,0.064c-0.048,0.027-0.098,0.054-0.154,0.083
	c-0.013,0.007-0.026,0.013-0.039,0.02c-0.059,0.03-0.124,0.062-0.21,0.101l-0.616,0.294c-0.083,0.036-0.167,0.073-0.249,0.112
	c-0.873,0.411-1.673,0.744-2.449,1.02c-0.091,0.032-0.183,0.067-0.273,0.103c-0.095,0.038-0.185,0.07-0.334,0.122
	c-0.43,0.154-0.858,0.29-1.258,0.416c-1.271,0.383-2.537,0.693-3.761,0.92c-0.052,0.01-0.103,0.022-0.155,0.033
	c-0.14,0.025-0.28,0.049-0.42,0.073c-0.146,0.025-0.292,0.048-0.439,0.071c-0.215,0.033-0.429,0.068-0.645,0.098
	c-0.148,0.02-0.298,0.036-0.447,0.055c-0.171,0.021-0.343,0.041-0.515,0.059c-0.226,0.025-0.452,0.052-0.678,0.072
	c-0.083,0.007-0.167,0.012-0.25,0.018c-0.227,0.019-0.454,0.033-0.682,0.047c-0.23,0.014-0.459,0.032-0.689,0.042
	c-0.307,0.013-0.615,0.016-0.922,0.021c-0.224,0.004-0.448,0.012-0.672,0.011c-0.314-0.001-0.629-0.012-0.943-0.021
	c-0.217-0.006-0.435-0.008-0.652-0.018c-0.287-0.014-0.572-0.038-0.859-0.059c-0.274-0.02-0.549-0.036-0.821-0.063
	c-0.226-0.022-0.451-0.052-0.676-0.078c-0.36-0.042-0.72-0.084-1.076-0.137c-0.147-0.022-0.293-0.048-0.439-0.071
	c-1.041-0.169-2.07-0.379-3.078-0.638c-0.001,0-0.001,0-0.002,0c-1.068-0.275-2.115-0.603-3.141-0.975
	c-0.055-0.019-0.112-0.041-0.167-0.06c-1.52-0.561-2.99-1.227-4.402-1.987c-0.093-0.05-0.185-0.1-0.275-0.15
	c-0.928-0.51-1.833-1.059-2.707-1.65l-0.004-0.002c-1.768-1.195-3.417-2.553-4.932-4.046c-0.105-0.103-0.209-0.206-0.312-0.309
	c-0.34-0.343-0.674-0.691-1-1.048c-0.014-0.016-0.029-0.031-0.043-0.047c-5.577-6.143-8.98-14.293-8.98-23.223v-0.96v-18.231
	c0.065,0.02,0.131,0.036,0.196,0.055c1.224,0.368,2.453,0.714,3.687,1.041c0.277,0.074,0.554,0.143,0.831,0.215
	c1.105,0.285,2.214,0.555,3.327,0.808c0.186,0.042,0.37,0.088,0.556,0.129c1.25,0.277,2.505,0.531,3.764,0.768
	c0.292,0.055,0.584,0.107,0.877,0.159c1.155,0.208,2.314,0.402,3.476,0.576c0.144,0.022,0.287,0.047,0.431,0.068
	c1.273,0.186,2.551,0.346,3.833,0.491c0.304,0.034,0.609,0.066,0.914,0.099c1.222,0.129,2.446,0.243,3.674,0.335
	c0.084,0.006,0.168,0.015,0.252,0.021c1.295,0.093,2.594,0.16,3.895,0.212c0.316,0.013,0.632,0.024,0.948,0.034
	c1.31,0.042,2.622,0.071,3.939,0.071c1.317,0,2.629-0.029,3.939-0.071c0.316-0.01,0.632-0.021,0.948-0.034
	c1.301-0.052,2.6-0.118,3.895-0.212c0.084-0.006,0.168-0.015,0.253-0.021c1.228-0.091,2.453-0.206,3.674-0.335
	c0.304-0.032,0.608-0.064,0.911-0.098c1.283-0.145,2.562-0.306,3.837-0.492c0.14-0.02,0.279-0.045,0.419-0.066
	c1.169-0.175,2.333-0.37,3.495-0.579c0.287-0.052,0.574-0.103,0.86-0.156c1.263-0.238,2.523-0.492,3.776-0.771
	c0.178-0.039,0.355-0.083,0.533-0.124c1.124-0.255,2.244-0.528,3.36-0.816c0.269-0.069,0.538-0.137,0.806-0.208
	c1.24-0.329,2.475-0.676,3.705-1.046C290.472,345.243,290.536,345.227,290.598,345.209z M406.968,252.29
	c0,11.475-9.335,20.81-20.81,20.81h-18.281c0.159-0.418,0.309-0.839,0.463-1.259c0.107-0.29,0.216-0.58,0.321-0.872
	c0.349-0.972,0.688-1.947,1.011-2.927c0.037-0.112,0.07-0.225,0.107-0.337c0.286-0.876,0.56-1.755,0.825-2.636
	c0.093-0.31,0.183-0.622,0.273-0.933c0.208-0.713,0.409-1.429,0.603-2.146c0.085-0.315,0.172-0.631,0.254-0.947
	c0.225-0.859,0.441-1.721,0.646-2.585c0.035-0.146,0.073-0.29,0.107-0.436c0.236-1.008,0.456-2.02,0.665-3.034
	c0.057-0.279,0.11-0.558,0.165-0.837c0.149-0.753,0.292-1.508,0.427-2.264c0.059-0.331,0.117-0.662,0.173-0.994
	c0.132-0.777,0.255-1.555,0.371-2.336c0.039-0.259,0.08-0.517,0.117-0.777c0.146-1.028,0.28-2.059,0.399-3.093
	c0.024-0.209,0.043-0.419,0.066-0.628c0.092-0.835,0.176-1.672,0.251-2.511c0.029-0.331,0.056-0.663,0.083-0.995
	c0.061-0.759,0.115-1.52,0.162-2.282c0.019-0.309,0.04-0.618,0.057-0.928c0.105-1.942,0.168-3.893,0.181-5.854h10.553
	C397.633,231.49,406.968,240.821,406.968,252.29z M125.838,273.1c-11.475,0-20.81-9.336-20.81-20.81c0-11.469,9.335-20.8,20.81-20.8
	h10.553c0.013,1.961,0.076,3.911,0.181,5.854c0.017,0.31,0.038,0.619,0.057,0.928c0.047,0.761,0.101,1.521,0.162,2.28
	c0.027,0.334,0.054,0.667,0.083,1c0.075,0.837,0.158,1.672,0.25,2.505c0.023,0.21,0.042,0.421,0.067,0.631
	c0.12,1.035,0.253,2.067,0.4,3.096c0.036,0.256,0.078,0.511,0.116,0.767c0.117,0.783,0.24,1.564,0.372,2.343
	c0.056,0.331,0.114,0.662,0.173,0.993c0.135,0.757,0.278,1.511,0.427,2.264c0.055,0.279,0.108,0.558,0.165,0.837
	c0.209,1.015,0.43,2.028,0.665,3.037c0.033,0.141,0.07,0.28,0.103,0.421c0.207,0.871,0.424,1.738,0.651,2.604
	c0.082,0.312,0.167,0.623,0.251,0.935c0.195,0.722,0.398,1.442,0.607,2.16c0.089,0.307,0.178,0.614,0.27,0.92
	c0.269,0.896,0.548,1.789,0.839,2.679c0.032,0.097,0.061,0.195,0.093,0.293c0.325,0.985,0.666,1.966,1.017,2.944
	c0.1,0.28,0.206,0.558,0.308,0.837c0.157,0.428,0.31,0.857,0.472,1.283L125.838,273.1L125.838,273.1z M162.301,277.255
	c-7.241-14.531-10.913-30.201-10.913-46.575v-6.69v-44.559c19.04-6.769,34.055-21.261,41.532-39.806
	c30.905,23.985,68.933,37.075,108.288,37.075c20.467,0,40.399-3.439,59.4-10.236v57.526v6.69c0,5.117-0.359,10.165-1.073,15.131
	c-1.571,10.925-4.862,21.454-9.84,31.444c-0.001,0.001-0.001,0.003-0.002,0.005c-11.421,22.912-30.744,40.811-54.418,50.402
	c-12.463,5.062-25.678,7.629-39.278,7.629c-1.7,0-3.394-0.04-5.081-0.12c-0.921-0.044-1.839-0.102-2.755-0.169
	c-10.001-0.736-19.751-2.885-29.1-6.421c-0.783-0.297-1.564-0.603-2.342-0.918h-0.001c-0.002-0.001-0.004-0.001-0.005-0.002
	C193.045,318.07,173.721,300.169,162.301,277.255z M206.828,370.94c0.041,0.311,0.097,0.616,0.144,0.925
	c0.011,0.074,0.023,0.148,0.035,0.222c0.918,5.871,2.866,11.402,5.66,16.404c0.024,0.043,0.05,0.086,0.074,0.13
	c0.029,0.051,0.056,0.104,0.085,0.155c0.045,0.08,0.094,0.159,0.139,0.239c0.249,0.434,0.503,0.866,0.765,1.292
	c0.057,0.093,0.11,0.187,0.167,0.279c0.018,0.029,0.036,0.058,0.054,0.088c0.045,0.073,0.095,0.143,0.141,0.215
	c0.04,0.064,0.083,0.126,0.124,0.19c0.192,0.299,0.384,0.599,0.582,0.894c0.084,0.125,0.164,0.254,0.249,0.378
	c0.063,0.092,0.129,0.182,0.192,0.273c0.13,0.188,0.266,0.373,0.399,0.559c0.104,0.145,0.205,0.29,0.31,0.434
	c0.108,0.149,0.212,0.301,0.323,0.449c0.116,0.155,0.238,0.306,0.356,0.46c0.165,0.216,0.333,0.43,0.502,0.643
	c0.001,0.001,0.001,0.002,0.002,0.003c0.018,0.023,0.035,0.046,0.053,0.068c0.129,0.163,0.254,0.329,0.385,0.491
	c0.181,0.222,0.37,0.436,0.555,0.655c0.172,0.204,0.342,0.408,0.517,0.609c0.101,0.116,0.198,0.234,0.3,0.348
	c0.22,0.247,0.45,0.486,0.675,0.729c0.068,0.074,0.136,0.148,0.205,0.221c0.137,0.146,0.269,0.297,0.408,0.441
	c0.052,0.054,0.103,0.109,0.155,0.162c0.23,0.237,0.469,0.465,0.704,0.698c0.248,0.246,0.49,0.497,0.744,0.737
	c0.029,0.029,0.062,0.055,0.091,0.084c0.011,0.01,0.021,0.021,0.032,0.031c0.032,0.031,0.066,0.062,0.099,0.092l0.154,0.144
	c0.109,0.103,0.218,0.202,0.327,0.302c0.075,0.067,0.144,0.14,0.221,0.205c0.285,0.266,0.573,0.521,0.873,0.771
	c0.306,0.274,0.617,0.536,0.93,0.781c0.189,0.16,0.39,0.319,0.589,0.479c0.069,0.056,0.133,0.11,0.205,0.167
	c0.309,0.243,0.63,0.486,0.968,0.733c0.006,0.004,0.012,0.008,0.018,0.013c0.02,0.014,0.035,0.027,0.055,0.042
	c0.008,0.006,0.018,0.01,0.026,0.016c0.599,0.447,1.208,0.885,1.825,1.296l0.747,0.498c0.187,0.129,0.378,0.256,0.58,0.383
	c0.045,0.028,0.097,0.058,0.143,0.086c0.153,0.095,0.306,0.189,0.474,0.287c0.044,0.027,0.093,0.053,0.137,0.081
	c0.076,0.046,0.16,0.093,0.237,0.139c0.383,0.232,0.773,0.464,1.182,0.693c0.053,0.029,0.098,0.059,0.152,0.089l-7.012,4.744
	c-0.004,0.002-0.007,0.005-0.01,0.008l-8.992,6.085l-19.434-47.312c1.072-0.106,2.144-0.185,3.216-0.239
	c0.067-0.004,0.134-0.007,0.201-0.01c1.069-0.051,2.137-0.08,3.202-0.08h3.76V370.94z M135.208,438.81
	c0-22.154,10.567-42.319,27.886-54.879l-3.072,11.485c-1.593,5.967,0.128,12.396,4.504,16.789l11.766,11.759l-0.946,1.423
	c-4.959,7.483-3.456,17.41,3.504,23.097l49.755,40.547l3.274,7.97h-96.671V438.81z M248.095,497l-2.605-6.343l6.884-48.4
	c0.209,0.02,0.421,0.029,0.631,0.045c0.223,0.017,0.446,0.034,0.669,0.048c1.546,0.094,3.102,0.094,4.648,0
	c0.224-0.014,0.446-0.031,0.669-0.048c0.21-0.017,0.421-0.025,0.631-0.045l6.884,48.4L263.901,497H248.095z M376.788,438.81V497
	h-96.671l3.274-7.97l49.764-40.553c6.952-5.681,8.455-15.608,3.49-23.099l-0.941-1.417l11.759-11.759
	c4.379-4.379,6.108-10.812,4.512-16.791l-3.071-11.482C366.22,396.489,376.788,416.655,376.788,438.81z M315.547,371.269
	l-19.434,47.312l-8.992-6.085c-0.004-0.002-0.007-0.005-0.01-0.008l-7.005-4.74c0.765-0.427,1.518-0.875,2.262-1.344
	c0.011-0.007,0.022-0.014,0.034-0.021c1.301-0.821,2.567-1.705,3.795-2.651c0.137-0.105,0.278-0.206,0.414-0.312
	c0.008-0.006,0.015-0.012,0.022-0.018c0.109-0.085,0.213-0.175,0.32-0.261c0.26-0.209,0.52-0.418,0.777-0.632
	c0.287-0.24,0.567-0.485,0.847-0.731c0.382-0.333,0.76-0.671,1.133-1.017c0.14-0.13,0.284-0.251,0.421-0.387
	c0.031-0.028,0.062-0.062,0.093-0.09c0.296-0.272,0.591-0.554,0.891-0.863l0,0l0,0l0.001-0.001c0.002-0.002,0.003-0.004,0.005-0.005
	c0.294-0.294,0.575-0.597,0.861-0.898c0.177-0.186,0.36-0.368,0.533-0.556c0.06-0.065,0.117-0.133,0.177-0.198
	c0.164-0.18,0.321-0.363,0.482-0.545c0.051-0.057,0.102-0.115,0.153-0.173c0.182-0.208,0.37-0.411,0.549-0.621
	c0.108-0.128,0.21-0.259,0.317-0.387c0.176-0.212,0.349-0.427,0.522-0.641c0.149-0.185,0.304-0.366,0.45-0.553
	c0.158-0.202,0.306-0.41,0.461-0.614c0.163-0.216,0.327-0.431,0.486-0.649c0.089-0.122,0.183-0.24,0.271-0.362
	c0.219-0.305,0.426-0.618,0.638-0.928c0.128-0.187,0.26-0.371,0.385-0.56c0.04-0.061,0.084-0.12,0.124-0.181
	c0.235-0.358,0.457-0.723,0.682-1.086c0.129-0.208,0.265-0.413,0.391-0.622c0.237-0.394,0.46-0.796,0.685-1.196
	c0.104-0.184,0.214-0.365,0.315-0.551c0.042-0.076,0.079-0.154,0.12-0.23c0.105-0.196,0.204-0.394,0.307-0.591
	c0.08-0.153,0.16-0.306,0.238-0.46c0.086-0.168,0.177-0.334,0.261-0.503c0.074-0.149,0.14-0.301,0.212-0.451
	c0.113-0.236,0.223-0.473,0.332-0.711c0.028-0.06,0.056-0.118,0.083-0.178c0.073-0.16,0.153-0.318,0.224-0.479
	c0.104-0.233,0.197-0.471,0.296-0.706c0.102-0.241,0.205-0.482,0.303-0.725c0.057-0.141,0.12-0.28,0.176-0.422
	c0.137-0.348,0.261-0.7,0.391-1.051c0.077-0.208,0.158-0.415,0.232-0.624c0.025-0.07,0.053-0.139,0.077-0.209
	c0.17-0.487,0.325-0.98,0.479-1.473c0.046-0.147,0.098-0.292,0.143-0.439c0.157-0.517,0.299-1.04,0.439-1.563
	c0.034-0.126,0.073-0.25,0.105-0.376c0.02-0.077,0.036-0.155,0.055-0.233c0.057-0.225,0.106-0.452,0.16-0.677
	c0.057-0.241,0.117-0.481,0.171-0.723c0.025-0.111,0.055-0.221,0.079-0.332c0.033-0.154,0.058-0.309,0.09-0.464
	c0.055-0.269,0.106-0.538,0.156-0.808c0.034-0.182,0.073-0.362,0.105-0.544c0.01-0.058,0.023-0.115,0.033-0.172
	c0-0.001,0-0.002,0.001-0.003c0.041-0.241,0.072-0.484,0.11-0.725c0.043-0.273,0.086-0.546,0.124-0.82
	c0.022-0.154,0.05-0.306,0.07-0.461h3.754C311.129,370.94,313.339,371.05,315.547,371.269z"/>
<g>
</g>
<g>
</g>
<g>
</g>
<g>
</g>
<g>
</g>
<g>
</g>
<g>
</g>
<g>
</g>
<g>
</g>
<g>
</g>
<g>
</g>
<g>
</g>
<g>
</g>
<g>
</g>
<g>
</g>
</svg>
