<?xml version="1.0" encoding="iso-8859-1"?>
<!-- Generator: Adobe Illustrator 19.0.0, SVG Export Plug-In . SVG Version: 6.00 Build 0)  -->
<svg version="1.1" id="Capa_1" xmlns="http://www.w3.org/2000/svg" xmlns:xlink="http://www.w3.org/1999/xlink" x="0px" y="0px"
	 viewBox="0 0 511.999 511.999" style="enable-background:new 0 0 511.999 511.999;" xml:space="preserve">
<path style="fill:#BA7F52;" d="M143.044,14.594c-20.905-3.98-26.358,23.882-27.267,25.587c-0.909,1.706,43.325-3.127,53.323,18.48
	l13.33-6.823C182.43,44.445,163.948,18.574,143.044,14.594z"/>
<path style="fill:#825939;" d="M360.538,170.511c39.493-14.147,74.698-58.246,70.761-98.837
	c-4.355-44.893-123.564-133.593-331.668,32.583c-38.346,30.62-18.088,77.794,50.259,73.313
	C224.149,172.703,360.538,170.511,360.538,170.511z"/>
<path style="fill:#684229;" d="M431.297,71.674c-2.359-24.321-38.433-61.495-104.085-64.038
	c50.004,9.475,77.373,40.211,79.418,61.291c3.937,40.59-31.267,84.689-70.761,98.837c0,0-136.389,2.191-210.648,7.06
	c-2.94,0.193-5.785,0.283-8.546,0.29c9.346,2.326,20.439,3.294,33.213,2.457c74.261-4.868,210.648-7.06,210.648-7.06
	C400.03,156.363,435.236,112.265,431.297,71.674z"/>
<path style="fill:#F0EEEE;" d="M201.17,363.442h105.855c41.621,0,75.363,33.741,75.363,75.363V504.5H125.807v-65.695
	C125.807,397.182,159.548,363.442,201.17,363.442z"/>
<path style="fill:#EF9AD3;" d="M201.17,363.442h105.855c41.621,0,75.363,33.741,75.363,75.363V504.5H125.807v-65.695
	C125.807,397.182,159.548,363.442,201.17,363.442z"/>
<path style="fill:#D67ABC;" d="M307.025,363.442h-22.501c41.621,0,75.363,33.741,75.363,75.363v65.696h22.501v-65.696
	C382.388,397.182,348.646,363.442,307.025,363.442z"/>
<path style="fill:#FA9E3E;" d="M333.168,368.106c-8.145-3.013-16.951-4.664-26.143-4.664h-11.143
	c0.198-1.656,0.312-3.337,0.312-5.047v-90.669h-84.193v90.669c0,1.709,0.114,3.391,0.312,5.047H201.17
	c-9.193,0-17.998,1.651-26.143,4.664c14.137,29.439,44.231,49.764,79.071,49.764c7.619,0,15.011-0.972,22.059-2.799l27.442,18.899
	l-2.377-29.835C314.947,395.368,326.07,382.887,333.168,368.106z"/>
<path style="fill:#FFB700;" d="M141.986,151.415v116.171c-4.72,2.27-10.02,3.55-15.61,3.55c-19.87,0-35.98-16.11-35.98-35.98
	c0-12.28,6.15-23.11,15.54-29.61c-0.87-2.51-1.35-5.2-1.35-8c0-12.62,9.54-23,21.79-24.35v-14.47
	C131.816,156.085,139.116,152.435,141.986,151.415z"/>
<path style="fill:#FA9E3E;" d="M123.935,223.986h49.37v56.611h-49.37c-15.632,0-28.305-12.672-28.305-28.305
	S108.303,223.986,123.935,223.986z"/>
<path style="fill:#FFB700;" d="M421.079,217.626c0,19.87-16.11,35.98-35.98,35.98c-6.93,0-13.4-1.96-18.89-5.35V118.615
	c4.55-0.25,10.57-0.48,16.18-0.7v23.91c13.53,0,24.5,10.97,24.5,24.5c0,7.16-3.07,13.6-7.96,18.08
	C411.929,189.826,421.079,202.656,421.079,217.626z"/>
<path style="fill:#FA9E3E;" d="M384.26,223.986h-49.37v56.611h49.37c15.632,0,28.305-12.672,28.305-28.305
	S399.892,223.986,384.26,223.986z"/>
<path style="fill:#FFB56B;" d="M366.209,118.615v112.061c0,30.96-12.55,58.981-32.83,79.271c-20.29,20.29-48.321,32.84-79.281,32.84
	c-0.97,0-1.93-0.01-2.89-0.04h-0.13c-0.92-0.02-1.84-0.06-2.75-0.11c-0.07,0-0.13,0-0.2-0.01h-0.04
	c-59.131-3.12-106.101-52.061-106.101-111.951v-79.261c58.311-20.7,145.152-28.01,200.892-31.45
	C351.469,119.435,359.319,118.995,366.209,118.615z"/>
<path style="fill:#EF9245;" d="M366.209,118.615v112.061c0,30.96-12.55,58.981-32.83,79.271c-20.29,20.29-48.321,32.84-79.281,32.84
	c-0.97,0-1.93-0.01-2.89-0.04h-0.13c-0.92-0.02-1.84-0.06-2.75-0.11c-0.07,0-0.13,0-0.2-0.01
	c52.821-2.95,94.751-46.721,94.751-100.291V119.965C351.469,119.435,359.319,118.995,366.209,118.615z"/>
<g>
	<circle style="fill:#F0EEEE;" cx="303.595" cy="206.702" r="28.832"/>
	<circle style="fill:#F0EEEE;" cx="204.594" cy="206.702" r="28.832"/>
</g>
<path d="M410.213,182.119c2.705-4.774,4.176-10.216,4.176-15.793c0-7.073-2.307-13.616-6.206-18.919
	c21.71-22.731,33.066-50.849,30.581-76.457c-0.962-9.91-6.334-20.884-15.124-30.902c-9.371-10.679-22.212-19.9-37.136-26.668
	c-20.841-9.452-56.208-18.792-106.335-9.622c-30.39,5.56-62.265,17.163-95.269,34.634c-7.483-12.086-22.912-27.82-40.451-31.164
	c-10.627-2.022-20.227,1.983-27.037,11.278c-4.904,6.694-7.275,14.558-8.288,17.917c-0.106,0.353-0.191,0.643-0.262,0.858
	c-0.906,2.167-0.762,4.713,0.422,6.757c2.267,3.913,5.725,4.01,11.452,4.171c7.489,0.21,25.016,0.704,35.14,6.885
	c-10.767,6.681-21.637,13.948-32.603,21.817c-3.365,2.415-4.136,7.101-1.721,10.466c2.415,3.365,7.1,4.136,10.466,1.721
	c18.092-12.983,35.885-24.289,53.326-33.903c0.112-0.062,0.226-0.119,0.333-0.186c33.866-18.632,66.398-30.862,97.19-36.496
	c46.311-8.475,78.549-0.04,97.441,8.527c28.117,12.751,42.271,32.452,43.526,45.36c2.057,21.197-8.261,45.788-27.14,65.313
	c-2.144-1.076-4.421-1.924-6.806-2.499v-10.076c3.171-0.129,5.791-0.255,7.483-0.384c4.13-0.316,7.222-3.92,6.906-8.05
	c-0.317-4.129-3.914-7.226-8.051-6.906c-2.575,0.197-8.143,0.407-14.132,0.624l-1.263,0.049c-0.662,0.026-1.326,0.052-1.991,0.078
	c-1.462,0.058-2.921,0.116-4.356,0.175c-3.129,0.129-6.127,0.262-8.688,0.403c-0.002,0-0.003,0-0.004,0
	c-51.053,2.828-157.285,8.712-226.317,33.221c-0.001,0-0.001,0-0.001,0h-0.001c-0.32,0.114-0.669,0.247-1.047,0.398
	c-0.076,0.03-0.166,0.07-0.244,0.102c-1.09,0.444-2.391,1.023-3.941,1.745c-0.128,0.06-0.273,0.129-0.404,0.191
	c-0.434,0.203-0.869,0.408-1.338,0.631c-1.843,0.878-3.959,1.908-6.359,3.081l-3.051,1.487c-1.832,0.893-4.068,1.973-5.105,2.41
	c-3.817,1.607-5.609,6.005-4.002,9.823c0.529,1.257,1.372,2.278,2.386,3.047c-15.269-4.305-25.343-12.827-27.85-23.743
	c-2.565-11.166,3.189-23.341,15.763-33.385l1.152-0.914c0.901-0.715,1.799-1.428,2.696-2.131c3.261-2.554,3.834-7.268,1.281-10.529
	c-2.555-3.262-7.268-3.834-10.529-1.281c-0.924,0.723-1.847,1.456-2.774,2.192l-1.163,0.923
	c-17.281,13.803-24.952,31.474-21.045,48.483c3.205,13.951,13.673,25.07,29.403,31.695c-3.918,5.327-6.217,11.897-6.217,18.973
	c0,1.717,0.138,3.425,0.412,5.111c-9.225,8.206-14.603,20.012-14.603,32.499c0,7.389,1.891,14.615,5.445,21.038
	c1.954,18.032,17.247,31.903,35.595,31.903h25.236c12.434,22.703,31.82,40.731,55.325,51.439v16.402h-3.33
	c-0.595,0-1.201,0.01-1.874,0.021c-0.523,0.011-1.045,0.031-1.56,0.051c-0.026,0.001-0.052,0.003-0.078,0.004
	c-0.206,0.009-0.411,0.022-0.617,0.033c-0.22,0.012-0.44,0.018-0.658,0.035c-0.452,0.022-0.918,0.053-1.442,0.089l-0.351,0.03
	c-0.137,0.01-0.276,0.024-0.413,0.035c-0.222,0.018-0.444,0.036-0.665,0.057c-0.168,0.015-0.334,0.028-0.504,0.043l-0.136,0.013
	c-0.094,0.008-0.187,0.018-0.28,0.031c-0.015,0.001-0.03,0.003-0.045,0.005c-0.652,0.065-1.291,0.141-1.88,0.218
	c-0.094,0.012-0.191,0.025-0.286,0.037c-0.129,0.017-0.258,0.032-0.386,0.05c-0.448,0.059-0.902,0.122-1.379,0.196l-0.145,0.025
	c-0.561,0.084-1.112,0.178-1.661,0.275c-0.219,0.038-0.436,0.079-0.655,0.119c-0.905,0.166-1.82,0.351-2.742,0.554
	c-0.43,0.094-0.857,0.197-1.285,0.298c-0.343,0.081-0.684,0.153-1.027,0.238c-0.492,0.114-0.984,0.245-1.467,0.379
	c-0.137,0.035-0.285,0.075-0.471,0.127c-0.53,0.138-1.061,0.295-1.581,0.456c-0.563,0.155-1.117,0.327-1.67,0.509
	c-0.029,0.009-0.058,0.018-0.087,0.027c-0.594,0.187-1.177,0.384-1.759,0.593c-0.345,0.119-0.682,0.254-1.025,0.377
	c-0.205,0.074-0.414,0.138-0.619,0.214c-0.073,0.027-0.142,0.063-0.214,0.092c-32.319,12.04-53.898,42.977-53.898,77.641v65.691
	c0,4.142,3.358,7.5,7.5,7.5h256.583c4.143,0,7.5-3.358,7.5-7.5v-65.691c0-34.664-21.58-65.602-53.9-77.641
	c-0.072-0.029-0.14-0.065-0.212-0.092c-0.203-0.075-0.409-0.138-0.612-0.211c-0.345-0.124-0.684-0.26-1.032-0.38
	c-0.582-0.209-1.164-0.406-1.757-0.592c-0.031-0.01-0.064-0.02-0.095-0.029c-0.552-0.182-1.105-0.353-1.666-0.507
	c-0.521-0.161-1.057-0.321-1.665-0.479c-0.038-0.011-0.078-0.021-0.116-0.031c-0.03-0.008-0.061-0.016-0.091-0.024
	c-0.061-0.016-0.12-0.033-0.183-0.049c-0.482-0.133-0.974-0.265-1.466-0.378c-0.344-0.086-0.685-0.158-1.029-0.238
	c-0.426-0.1-0.851-0.203-1.278-0.296c-0.935-0.205-1.86-0.393-2.771-0.559c-0.22-0.04-0.44-0.081-0.661-0.119
	c-0.537-0.095-1.07-0.186-1.609-0.267c-0.072-0.013-0.17-0.029-0.221-0.037c-0.452-0.07-0.901-0.132-1.335-0.189
	c-0.118-0.016-0.236-0.03-0.354-0.046c-0.078-0.01-0.163-0.022-0.239-0.031c-0.643-0.084-1.275-0.158-1.916-0.223
	c-0.035-0.004-0.071-0.008-0.107-0.012c-0.084-0.01-0.167-0.02-0.251-0.027l-0.136-0.013c-0.168-0.015-0.333-0.028-0.5-0.042
	c-0.23-0.021-0.46-0.039-0.69-0.058c-0.136-0.011-0.274-0.025-0.411-0.035l-0.414-0.035c-0.45-0.03-0.909-0.061-1.361-0.083
	c-0.226-0.018-0.45-0.024-0.676-0.036c-0.195-0.009-0.388-0.023-0.583-0.031c-0.027-0.001-0.056-0.004-0.084-0.004
	c-0.522-0.02-1.045-0.04-1.645-0.053c-0.597-0.01-1.201-0.02-1.797-0.02h-3.33v-16.402c23.508-10.71,42.895-28.738,55.326-51.439
	h25.235c19.745,0,35.81-16.064,35.81-35.81c0-2.615-0.283-5.2-0.841-7.729c6.056-7.649,9.352-17.056,9.352-26.931
	C428.579,203.274,421.6,190.152,410.213,182.119z M108.905,37.18c0.086-0.21,0.173-0.374,0.244-0.507
	C109.06,36.84,108.979,37.008,108.905,37.18z M126.164,33.382c5.188-11.716,11.169-12.241,15.477-11.421
	c12.744,2.431,24.545,14.983,30.111,23.671c-0.707,0.404-1.412,0.802-2.12,1.211C158.113,35.875,138.402,33.911,126.164,33.382z
	 M399.389,166.326c0,4.828-1.963,9.285-5.526,12.55c-1.888,1.729-2.763,4.302-2.321,6.823s2.139,4.644,4.501,5.629
	c10.653,4.442,17.537,14.764,17.537,26.298c0,3.906-0.786,7.701-2.284,11.199c-0.076-0.088-0.159-0.17-0.236-0.257
	c-0.14-0.158-0.285-0.311-0.428-0.466c-0.432-0.469-0.875-0.925-1.33-1.37c-0.145-0.141-0.286-0.285-0.433-0.424
	c-0.577-0.545-1.169-1.072-1.78-1.577c-0.123-0.102-0.251-0.197-0.375-0.297c-0.514-0.413-1.038-0.811-1.573-1.196
	c-0.182-0.13-0.363-0.261-0.547-0.388c-0.658-0.454-1.325-0.894-2.011-1.303c-0.024-0.014-0.049-0.027-0.073-0.041
	c-0.667-0.396-1.351-0.763-2.044-1.116c-0.201-0.102-0.403-0.201-0.606-0.299c-0.604-0.293-1.216-0.57-1.837-0.83
	c-0.135-0.057-0.267-0.119-0.403-0.174c-0.74-0.299-1.492-0.57-2.253-0.819c-0.195-0.064-0.393-0.121-0.59-0.182
	c-0.617-0.191-1.24-0.365-1.869-0.522c-0.197-0.049-0.392-0.102-0.59-0.148c-0.787-0.183-1.581-0.342-2.384-0.472
	c-0.149-0.024-0.299-0.04-0.448-0.062c-0.678-0.101-1.362-0.181-2.05-0.243c-0.225-0.02-0.449-0.04-0.676-0.056
	c-0.829-0.058-1.661-0.098-2.5-0.098h-10.55v-90.717c0.389-0.017,0.785-0.033,1.18-0.049v16.106c0,4.142,3.358,7.5,7.5,7.5
	C391.763,149.325,399.389,156.951,399.389,166.326z M110.205,211.712c2.768-1.916,3.92-5.441,2.817-8.622
	c-0.621-1.793-0.936-3.658-0.936-5.544c0-8.683,6.496-15.946,15.111-16.895c3.801-0.419,6.679-3.631,6.679-7.455v-9.784
	c0.201-0.098,0.405-0.198,0.61-0.298v53.373h-10.55c-0.607,0-1.21,0.016-1.81,0.046c-0.199,0.01-0.395,0.031-0.592,0.044
	c-0.399,0.027-0.798,0.051-1.192,0.091c-0.239,0.024-0.474,0.059-0.712,0.088c-0.351,0.042-0.702,0.081-1.049,0.134
	c-0.252,0.038-0.5,0.086-0.75,0.13c-0.328,0.057-0.657,0.11-0.982,0.176c-0.259,0.052-0.515,0.114-0.772,0.172
	c-0.311,0.07-0.623,0.137-0.93,0.215c-0.262,0.066-0.52,0.142-0.779,0.214c-0.298,0.083-0.597,0.164-0.892,0.254
	c-0.261,0.08-0.519,0.168-0.778,0.254c-0.288,0.095-0.576,0.189-0.86,0.291c-0.258,0.093-0.512,0.193-0.768,0.292
	c-0.28,0.108-0.559,0.215-0.835,0.33c-0.253,0.105-0.503,0.217-0.753,0.328c-0.271,0.12-0.543,0.24-0.811,0.367
	c-0.249,0.118-0.494,0.241-0.739,0.365c-0.263,0.132-0.525,0.264-0.785,0.402c-0.243,0.129-0.482,0.264-0.721,0.398
	c-0.255,0.144-0.51,0.288-0.761,0.438c-0.236,0.141-0.469,0.285-0.701,0.431c-0.247,0.155-0.493,0.311-0.736,0.472
	c-0.229,0.152-0.455,0.307-0.681,0.463c-0.239,0.166-0.476,0.334-0.711,0.506c-0.221,0.161-0.439,0.326-0.656,0.492
	c-0.232,0.178-0.462,0.358-0.689,0.542c-0.211,0.17-0.421,0.343-0.628,0.518c-0.224,0.189-0.445,0.381-0.664,0.575
	c-0.203,0.18-0.404,0.361-0.602,0.545c-0.096,0.089-0.197,0.174-0.292,0.265C101.216,220.476,105.003,215.313,110.205,211.712z
	 M123.936,273.097c-11.02,0-20.144-8.604-20.771-19.572c-0.023-0.413-0.039-0.825-0.039-1.238c0-11.469,9.335-20.8,20.81-20.8
	h10.553c0.006,0.895,0.022,1.789,0.047,2.68c0,0.004,0,0.008,0,0.012c0.03,1.055,0.077,2.106,0.134,3.155
	c0.017,0.32,0.039,0.639,0.059,0.958c0.046,0.748,0.099,1.495,0.159,2.24c0.028,0.346,0.056,0.692,0.087,1.037
	c0.072,0.813,0.154,1.624,0.243,2.433c0.026,0.234,0.048,0.469,0.074,0.703c0.118,1.021,0.25,2.039,0.395,3.054
	c0.041,0.291,0.088,0.581,0.132,0.871c0.111,0.744,0.228,1.487,0.354,2.228c0.061,0.358,0.123,0.715,0.187,1.073
	c0.128,0.718,0.264,1.433,0.406,2.147c0.062,0.315,0.122,0.63,0.187,0.944c0.205,0.995,0.421,1.987,0.652,2.975
	c0.047,0.202,0.1,0.402,0.148,0.603c0.193,0.805,0.393,1.607,0.602,2.408c0.091,0.348,0.186,0.695,0.28,1.041
	c0.184,0.679,0.375,1.357,0.572,2.033c0.099,0.341,0.197,0.682,0.3,1.022c0.25,0.829,0.509,1.655,0.777,2.479
	c0.052,0.16,0.1,0.322,0.153,0.482c0.318,0.964,0.652,1.924,0.996,2.881c0.113,0.315,0.231,0.629,0.347,0.944
	c0.148,0.402,0.292,0.806,0.444,1.206h-18.288V273.097z M307.028,370.938c1.207,0,2.409,0.037,3.608,0.1
	c0.028,0.002,0.057,0.002,0.085,0.005c0.093,0.007,0.185,0.013,0.276,0.018c0.053,0.003,0.104,0.006,0.158,0.009
	c1.132,0.068,2.26,0.159,3.382,0.283c0.07,0.008,0.139,0.014,0.209,0.022c1.134,0.128,2.262,0.29,3.384,0.475
	c0.166,0.027,0.334,0.054,0.502,0.083c1.052,0.182,2.099,0.392,3.14,0.623c0.118,0.026,0.237,0.056,0.355,0.083
	c-6.313,10.104-14.815,18.708-24.946,25.179c-2.337,1.493-3.659,4.153-3.439,6.918l1.126,14.113l-14.456-9.957
	c-1.791-1.234-4.029-1.63-6.139-1.083c-6.543,1.698-13.33,2.56-20.175,2.56c-12.628,0-24.701-2.847-35.884-8.463
	c-3.704-1.858-8.21-0.365-10.068,3.337c-1.858,3.702-0.365,8.21,3.337,10.068c13.291,6.674,27.629,10.058,42.617,10.058
	c6.942,0,13.842-0.749,20.557-2.229l24.69,17.005c1.276,0.879,2.764,1.323,4.254,1.323c1.292,0,2.587-0.333,3.75-1.005
	c2.507-1.447,3.956-4.207,3.727-7.092l-2.031-25.461c11.277-7.983,20.652-18.29,27.53-30.219
	c23.206,11.207,38.314,34.859,38.314,61.117v58.191H133.308v-58.191c0-26.255,15.107-49.907,38.309-61.115
	c3.775,6.546,8.315,12.624,13.561,18.128c1.474,1.546,3.45,2.326,5.43,2.326c1.859,0,3.722-0.687,5.173-2.071
	c2.999-2.858,3.113-7.605,0.255-10.603c-3.763-3.948-7.097-8.244-9.967-12.836c0.121-0.028,0.242-0.057,0.362-0.084
	c1.037-0.23,2.08-0.44,3.128-0.621c0.171-0.03,0.342-0.057,0.513-0.085c1.047-0.173,2.1-0.32,3.156-0.443
	c0.184-0.022,0.368-0.044,0.552-0.064c1.07-0.116,2.144-0.204,3.222-0.269c0.065-0.003,0.131-0.009,0.196-0.012
	c0.092-0.004,0.185-0.01,0.277-0.018c0.028-0.002,0.057-0.002,0.085-0.005c1.198-0.063,2.4-0.1,3.608-0.1h11.15
	c0.267,0,0.53-0.015,0.79-0.042c0.042-0.004,0.082-0.014,0.124-0.019c0.219-0.027,0.437-0.06,0.65-0.105
	c0.049-0.01,0.096-0.026,0.145-0.037c0.204-0.048,0.406-0.1,0.603-0.164c0.058-0.019,0.114-0.043,0.172-0.063
	c0.183-0.065,0.365-0.132,0.541-0.21c0.07-0.031,0.137-0.066,0.206-0.099c0.159-0.076,0.316-0.154,0.469-0.241
	c0.079-0.045,0.155-0.094,0.232-0.141c0.136-0.084,0.271-0.17,0.401-0.263c0.083-0.059,0.164-0.121,0.245-0.183
	c0.119-0.092,0.235-0.186,0.348-0.284c0.081-0.071,0.16-0.142,0.238-0.217c0.108-0.103,0.212-0.209,0.313-0.318
	c0.045-0.048,0.095-0.091,0.139-0.14c0.027-0.031,0.049-0.065,0.076-0.095c0.102-0.118,0.197-0.242,0.291-0.366
	c0.059-0.078,0.119-0.154,0.174-0.233c0.1-0.144,0.192-0.294,0.282-0.445c0.039-0.065,0.081-0.128,0.118-0.194
	c0.109-0.196,0.208-0.399,0.3-0.605c0.011-0.024,0.024-0.048,0.035-0.072c0.203-0.472,0.36-0.969,0.463-1.486
	c0.007-0.035,0.01-0.071,0.016-0.107c0.039-0.214,0.073-0.429,0.094-0.648c0.01-0.101,0.01-0.204,0.016-0.306
	c0.007-0.138,0.021-0.275,0.021-0.415c0-0.018-0.003-0.036-0.003-0.054c-0.001-0.106-0.011-0.212-0.016-0.318
	c-0.008-0.159-0.014-0.319-0.032-0.475c-0.002-0.019-0.002-0.038-0.004-0.057c-0.179-1.474-0.266-2.827-0.266-4.137V345.2
	c11.16,3.376,22.755,5.087,34.6,5.087c11.846,0,23.441-1.711,34.6-5.087v13.197c0,1.315-0.087,2.668-0.265,4.137
	c-0.002,0.019-0.002,0.038-0.004,0.057c-0.018,0.156-0.024,0.316-0.032,0.475c-0.005,0.106-0.015,0.212-0.016,0.318
	c0,0.018-0.003,0.036-0.003,0.054c0,0.14,0.013,0.277,0.021,0.415c0.006,0.102,0.006,0.205,0.016,0.306
	c0.021,0.222,0.055,0.44,0.095,0.655c0.006,0.033,0.009,0.066,0.015,0.099c0.103,0.518,0.26,1.015,0.464,1.488
	c0.008,0.019,0.019,0.037,0.027,0.056c0.094,0.213,0.196,0.421,0.308,0.623c0.034,0.061,0.073,0.118,0.108,0.178
	c0.093,0.157,0.189,0.313,0.293,0.462c0.052,0.074,0.108,0.145,0.163,0.218c0.098,0.131,0.198,0.26,0.305,0.384
	c0.025,0.029,0.046,0.061,0.071,0.09c0.041,0.047,0.088,0.087,0.131,0.133c0.105,0.113,0.213,0.223,0.324,0.329
	c0.076,0.072,0.153,0.142,0.231,0.21c0.115,0.1,0.233,0.196,0.353,0.29c0.079,0.061,0.159,0.122,0.241,0.18
	c0.131,0.093,0.266,0.18,0.404,0.265c0.077,0.047,0.152,0.096,0.23,0.14c0.153,0.087,0.311,0.166,0.47,0.242
	c0.068,0.033,0.135,0.068,0.204,0.099c0.177,0.078,0.359,0.146,0.543,0.211c0.057,0.02,0.112,0.043,0.17,0.062
	c0.198,0.064,0.401,0.117,0.606,0.165c0.048,0.011,0.094,0.026,0.142,0.037c0.213,0.045,0.431,0.078,0.651,0.105
	c0.042,0.005,0.082,0.014,0.124,0.019c0.26,0.027,0.523,0.042,0.79,0.042h11.147V370.938z M293.375,327.658
	c-12.463,5.062-25.678,7.629-39.277,7.629c-13.6,0-26.815-2.567-39.284-7.631c-23.672-9.59-42.993-27.489-54.406-50.408
	c-7.247-14.522-10.921-30.191-10.921-46.573v-6.689v-67.214c0.266-0.089,0.53-0.178,0.798-0.266c0.43-0.142,0.861-0.283,1.294-0.423
	c0.627-0.204,1.257-0.406,1.89-0.607c0.425-0.135,0.852-0.27,1.28-0.403c0.651-0.204,1.306-0.405,1.963-0.606
	c0.416-0.127,0.833-0.254,1.251-0.38c0.685-0.206,1.374-0.41,2.065-0.613c0.397-0.117,0.792-0.234,1.191-0.35
	c0.737-0.214,1.478-0.425,2.221-0.635c0.358-0.101,0.715-0.204,1.074-0.304c0.837-0.234,1.679-0.465,2.523-0.694
	c0.27-0.074,0.537-0.148,0.808-0.221c1.092-0.294,2.189-0.586,3.292-0.873c0.027-0.007,0.054-0.014,0.081-0.021
	c2.316-0.603,4.658-1.19,7.022-1.763c0.185-0.045,0.373-0.089,0.558-0.133c0.978-0.236,1.958-0.469,2.943-0.7
	c0.289-0.068,0.58-0.134,0.87-0.201c0.883-0.205,1.768-0.409,2.656-0.61c0.345-0.078,0.691-0.155,1.037-0.232
	c0.839-0.188,1.68-0.375,2.524-0.559c0.373-0.082,0.747-0.162,1.12-0.243c0.825-0.179,1.651-0.356,2.48-0.531
	c0.381-0.08,0.762-0.16,1.143-0.24c0.833-0.174,1.668-0.347,2.504-0.518c0.373-0.076,0.747-0.152,1.121-0.228
	c0.851-0.172,1.704-0.342,2.559-0.511c0.364-0.072,0.728-0.144,1.092-0.215c0.878-0.172,1.758-0.341,2.639-0.51
	c0.34-0.065,0.679-0.13,1.019-0.195c0.932-0.176,1.867-0.35,2.803-0.523c0.287-0.053,0.574-0.107,0.862-0.16
	c1.041-0.191,2.085-0.379,3.13-0.565c0.182-0.033,0.364-0.066,0.547-0.098c5.029-0.892,10.098-1.732,15.184-2.523
	c0.1-0.016,0.201-0.031,0.302-0.046c1.146-0.178,2.293-0.354,3.44-0.527c0.226-0.034,0.453-0.068,0.679-0.102
	c1.028-0.154,2.056-0.307,3.085-0.457c0.276-0.04,0.552-0.08,0.828-0.12c0.986-0.143,1.973-0.285,2.959-0.425
	c0.292-0.041,0.584-0.082,0.876-0.123c0.969-0.136,1.939-0.271,2.908-0.404c0.304-0.042,0.607-0.083,0.911-0.125
	c0.967-0.132,1.935-0.262,2.901-0.39c0.293-0.039,0.587-0.078,0.88-0.117c0.982-0.13,1.963-0.257,2.944-0.384
	c0.279-0.036,0.558-0.072,0.837-0.108c1.028-0.132,2.056-0.261,3.083-0.389c0.216-0.027,0.432-0.054,0.647-0.081
	c1.109-0.138,2.216-0.273,3.323-0.407c0.143-0.017,0.285-0.035,0.428-0.052c6.346-0.764,12.65-1.464,18.87-2.107
	c0.107-0.011,0.214-0.022,0.321-0.033c1.112-0.115,2.221-0.227,3.327-0.338c0.205-0.021,0.409-0.041,0.614-0.061
	c1.011-0.101,2.02-0.201,3.026-0.299c0.249-0.024,0.498-0.048,0.747-0.072c0.962-0.093,1.923-0.185,2.88-0.276
	c0.266-0.025,0.53-0.05,0.795-0.075c0.939-0.088,1.876-0.175,2.81-0.261c0.28-0.026,0.56-0.051,0.839-0.077
	c0.931-0.085,1.859-0.168,2.785-0.251c0.255-0.023,0.509-0.045,0.764-0.068c0.96-0.085,1.916-0.169,2.869-0.251
	c0.223-0.019,0.446-0.039,0.668-0.058c0.997-0.086,1.989-0.17,2.978-0.253c0.171-0.014,0.344-0.029,0.515-0.043
	c1.081-0.091,2.157-0.179,3.227-0.267c0.076-0.006,0.154-0.013,0.23-0.019c4.692-0.382,9.286-0.734,13.757-1.06
	c0.011-0.001,0.022-0.002,0.034-0.002c1.078-0.079,2.148-0.155,3.211-0.231c0.136-0.009,0.271-0.019,0.407-0.029
	c0.94-0.067,1.876-0.132,2.804-0.197c0.196-0.014,0.391-0.027,0.586-0.04c0.868-0.06,1.732-0.119,2.589-0.177
	c0.215-0.014,0.429-0.029,0.643-0.043c0.846-0.057,1.686-0.113,2.521-0.168c0.199-0.013,0.397-0.026,0.595-0.039
	c0.845-0.055,1.685-0.11,2.519-0.164c0.188-0.012,0.377-0.024,0.565-0.036c0.863-0.055,1.72-0.11,2.569-0.164
	c0.136-0.008,0.273-0.017,0.41-0.026c0.921-0.058,1.834-0.115,2.739-0.17c0.06-0.004,0.121-0.008,0.181-0.011
	c5.781-0.356,11.216-0.67,16.247-0.953v97.441v6.689c0,3.071-0.129,6.118-0.387,9.136c-1.117,13.08-4.646,25.637-10.537,37.441
	C336.375,300.166,317.054,318.066,293.375,327.658z M384.259,273.097h-18.285c0.163-0.428,0.316-0.859,0.475-1.289
	c0.101-0.274,0.204-0.548,0.303-0.823c0.352-0.978,0.693-1.96,1.018-2.946c0.032-0.098,0.062-0.196,0.094-0.294
	c0.29-0.886,0.568-1.776,0.836-2.668c0.095-0.315,0.186-0.632,0.278-0.948c0.205-0.704,0.404-1.409,0.596-2.117
	c0.089-0.326,0.177-0.652,0.263-0.978c0.217-0.828,0.424-1.659,0.623-2.491c0.042-0.178,0.089-0.355,0.131-0.534
	c0.232-0.995,0.45-1.994,0.657-2.995c0.063-0.305,0.12-0.611,0.181-0.916c0.143-0.723,0.28-1.447,0.41-2.173
	c0.063-0.354,0.125-0.707,0.185-1.062c0.126-0.743,0.243-1.488,0.355-2.234c0.043-0.29,0.09-0.58,0.132-0.871
	c0.144-1.013,0.276-2.029,0.394-3.048c0.028-0.244,0.051-0.489,0.078-0.734c0.087-0.797,0.168-1.595,0.239-2.396
	c0.032-0.355,0.06-0.711,0.089-1.067c0.059-0.729,0.11-1.459,0.156-2.191c0.021-0.336,0.044-0.671,0.062-1.008
	c0.055-1.021,0.101-2.043,0.13-3.069c0.002-0.063,0.003-0.127,0.005-0.19c0.023-0.855,0.039-1.711,0.045-2.569h10.553
	c2.188,0,4.32,0.346,6.335,0.992c6.044,1.94,11.026,6.591,13.248,12.759c0,0.001,0.001,0.002,0.001,0.002
	c0.813,2.26,1.225,4.63,1.225,7.046C405.069,263.761,395.734,273.097,384.259,273.097z"/>
<path d="M325.793,257.152c-3.86-1.503-8.207,0.41-9.709,4.271c-1.567,4.031-4.27,6.396-7.817,6.839
	c-4.179,0.525-8.596-1.712-11.532-5.828c-13.048-18.288-26.329-23.204-42.638-15.588c-16.305-7.616-29.588-2.699-42.637,15.588
	c-2.937,4.117-7.356,6.351-11.533,5.828c-3.546-0.443-6.249-2.809-7.817-6.839c-1.502-3.86-5.847-5.774-9.708-4.271
	c-3.86,1.501-5.772,5.848-4.271,9.708c3.584,9.214,10.851,15.15,19.936,16.286c1.02,0.128,2.041,0.19,3.06,0.19
	c8.623-0.001,17.052-4.492,22.544-12.191c11.566-16.212,18.096-14.222,26.735-9.34c0.051,0.029,0.104,0.05,0.155,0.078
	c0.12,0.064,0.242,0.125,0.365,0.183c0.111,0.052,0.222,0.101,0.334,0.147c0.106,0.043,0.213,0.083,0.321,0.122
	c0.13,0.046,0.26,0.09,0.391,0.129c0.096,0.028,0.192,0.053,0.289,0.078c0.141,0.036,0.281,0.069,0.423,0.096
	c0.097,0.019,0.194,0.033,0.291,0.048c0.138,0.021,0.277,0.04,0.415,0.053c0.111,0.01,0.222,0.016,0.333,0.022
	c0.124,0.006,0.247,0.012,0.37,0.012c0.131,0,0.261-0.006,0.391-0.012c0.104-0.005,0.208-0.01,0.312-0.02
	c0.145-0.014,0.29-0.034,0.435-0.056c0.091-0.014,0.182-0.028,0.272-0.045c0.147-0.028,0.293-0.063,0.439-0.1
	c0.091-0.023,0.182-0.047,0.272-0.073c0.136-0.04,0.27-0.085,0.405-0.134c0.104-0.037,0.206-0.076,0.308-0.117
	c0.115-0.047,0.229-0.098,0.343-0.151c0.121-0.056,0.24-0.116,0.358-0.179c0.052-0.028,0.106-0.05,0.158-0.079
	c8.644-4.884,15.173-6.869,26.736,9.34c5.493,7.7,13.92,12.191,22.544,12.191c1.019,0,2.041-0.063,3.06-0.19
	c9.086-1.136,16.353-7.072,19.938-16.286C331.566,263,329.654,258.653,325.793,257.152z"/>
<path d="M303.599,170.368c-16.18,0-29.919,10.634-34.607,25.278c-9.862-3.538-19.925-3.538-29.787,0
	c-4.689-14.645-18.427-25.279-34.608-25.279c-20.034,0-36.332,16.298-36.332,36.332s16.298,36.332,36.332,36.332
	c18.471,0,33.755-13.858,36.03-31.721c9.117-4.505,17.827-4.505,26.944,0c2.274,17.863,17.559,31.721,36.029,31.721
	c20.033,0,36.332-16.298,36.332-36.332S323.632,170.368,303.599,170.368z M204.595,228.032c-11.763,0-21.332-9.569-21.332-21.332
	s9.569-21.332,21.332-21.332s21.333,9.569,21.333,21.332S216.358,228.032,204.595,228.032z M303.599,228.032
	c-11.763,0-21.332-9.569-21.332-21.332s9.569-21.332,21.332-21.332c11.763,0,21.332,9.569,21.332,21.332
	S315.362,228.032,303.599,228.032z"/>
<g>
</g>
<g>
</g>
<g>
</g>
<g>
</g>
<g>
</g>
<g>
</g>
<g>
</g>
<g>
</g>
<g>
</g>
<g>
</g>
<g>
</g>
<g>
</g>
<g>
</g>
<g>
</g>
<g>
</g>
</svg>
