<?xml version="1.0" encoding="iso-8859-1"?>
<!-- Generator: Adobe Illustrator 19.0.0, SVG Export Plug-In . SVG Version: 6.00 Build 0)  -->
<svg version="1.1" id="Capa_1" xmlns="http://www.w3.org/2000/svg" xmlns:xlink="http://www.w3.org/1999/xlink" x="0px" y="0px"
	 viewBox="0 0 511.999 511.999" style="enable-background:new 0 0 511.999 511.999;" xml:space="preserve">
<path style="fill:#484655;" d="M151.822,345.606h208.354c26.638,0,47.943-22.133,46.927-48.753l-7.369-192.99
	c-1.423-37.276-32.056-66.761-69.36-66.761h-148.75c-37.303,0-67.936,29.485-69.36,66.761l-7.369,192.99
	C103.879,323.473,125.183,345.606,151.822,345.606z"/>
<path id="SVGCleanerId_0" style="fill:#F0EEEE;" d="M203.061,363.415h105.876c41.629,0,75.377,33.748,75.377,75.377v65.707H127.684
	v-65.707C127.684,397.161,161.432,363.415,203.061,363.415z"/>
<g>
	<path id="SVGCleanerId_0_1_" style="fill:#F0EEEE;" d="M203.061,363.415h105.876c41.629,0,75.377,33.748,75.377,75.377v65.707
		H127.684v-65.707C127.684,397.161,161.432,363.415,203.061,363.415z"/>
</g>
<path style="fill:#D9D4D4;" d="M308.936,363.415H286.43c41.629,0,75.377,33.748,75.377,75.377v65.707h22.505V438.79
	C384.312,397.161,350.565,363.415,308.936,363.415z"/>
<path style="fill:#78D6D1;" d="M255.998,468.491c53.322-23.148,62.934-75.356,57.897-104.896c-1.641-0.107-3.292-0.18-4.96-0.18
	H203.061c-1.668,0-3.319,0.074-4.96,0.18C193.064,393.136,202.676,445.344,255.998,468.491z"/>
<g>
	<path style="fill:#FA9E3E;" d="M213.894,267.681v90.686c0,23.254,18.851,42.104,42.104,42.104l0,0
		c23.254,0,42.104-18.851,42.104-42.104v-90.686H213.894z"/>
	<path style="fill:#FA9E3E;" d="M125.812,223.933h49.379v56.621h-49.379c-15.635,0-28.311-12.674-28.311-28.311
		C97.501,236.608,110.177,223.933,125.812,223.933z"/>
	<path style="fill:#FA9E3E;" d="M386.185,223.933h-49.379v56.621h49.379c15.635,0,28.311-12.674,28.311-28.311
		C414.495,236.608,401.82,223.933,386.185,223.933z"/>
</g>
<path style="fill:#FFB56B;" d="M368.13,191.737v38.888c0,30.966-12.552,58.992-32.836,79.285
	c-20.294,20.294-48.329,32.846-79.295,32.846c-0.97,0-1.93-0.01-2.891-0.04h-0.13c-0.92-0.02-1.84-0.06-2.751-0.11
	c-0.07,0-0.13,0-0.2-0.01h-0.04c-59.142-3.121-106.121-52.07-106.121-111.972v-44.839c97.719-2.36,149.369-33.006,179.525-61.132
	c2.35,17.043,10.142,35.767,21.404,49.44C351.487,182.225,359.409,188.577,368.13,191.737z"/>
<path style="fill:#EF9245;" d="M368.13,191.737v38.888c0,30.966-12.552,58.992-32.836,79.285
	c-20.294,20.294-48.329,32.846-79.295,32.846c-0.97,0-1.93-0.01-2.891-0.04h-0.13c-0.92-0.02-1.84-0.06-2.751-0.11
	c-0.07,0-0.13,0-0.2-0.01c52.83-2.951,94.769-46.729,94.769-100.31v-68.193C351.487,182.225,359.409,188.577,368.13,191.737z"/>
<path style="fill:#F0EEEE;" d="M136.197,31.106c12.999,28.7,25.996,57.398,38.995,86.098c51.561-21.319,110.053-21.319,161.616,0
	c12.998-28.699,25.996-57.398,38.995-86.098C299.358-0.5,212.639-0.5,136.197,31.106z"/>
<g>
	<path style="fill:#78D6D1;" d="M369.186,45.71c2.204-4.868,4.41-9.736,6.614-14.604C299.358-0.5,212.64-0.5,136.197,31.106
		c2.204,4.868,4.409,9.736,6.614,14.604C215.402,17.63,296.594,17.63,369.186,45.71z"/>
	<path style="fill:#78D6D1;" d="M168.051,101.44c2.379,5.255,4.76,10.509,7.139,15.764c51.561-21.319,110.053-21.319,161.616,0
		c2.379-5.255,4.76-10.509,7.139-15.764C287.605,79.303,224.393,79.303,168.051,101.44z"/>
</g>
<path d="M413.77,275.057c5.138-6.201,8.231-14.155,8.231-22.818c0-9.633-3.832-18.384-10.043-24.826l-4.725-123.841
	c-0.877-22.823-11.895-44.015-29.801-57.882l5.204-11.49c0.837-1.851,0.889-3.964,0.141-5.854c-0.747-1.889-2.23-3.396-4.109-4.172
	c-77.958-32.231-167.381-32.231-245.339,0c-1.878,0.776-3.361,2.282-4.109,4.172c-0.748,1.89-0.697,4.003,0.141,5.854l5.205,11.49
	c-7.903,6.124-14.608,13.78-19.593,22.429c-2.068,3.59-0.836,8.177,2.754,10.245c1.18,0.68,2.467,1.003,3.739,1.003
	c2.595,0,5.118-1.348,6.506-3.757c3.415-5.925,7.849-11.253,13.011-15.755c9.123,20.148,18.246,40.296,27.378,60.444
	c1.67,3.685,5.961,5.38,9.698,3.836c44.599-18.437,95.1-20.263,140.874-5.5c-0.226,0.167-0.449,0.339-0.657,0.533
	c-36.85,34.369-87.206,53.473-153.501,58.134c-6.858,0.482-13.887,0.81-21.088,0.984c-0.002,0-0.004,0-0.007,0
	c-3.913,0.098-7.963,0.148-12.034,0.148c-4.143,0-7.501,3.359-7.501,7.501s3.359,7.501,7.501,7.501c1.581,0,3.153-0.014,4.721-0.029
	v23.023h-10.552c-3.616,0-7.106,0.543-10.4,1.544l4.342-113.794c0.035-0.823,0.078-1.646,0.149-2.47
	c0.355-4.127-2.703-7.762-6.83-8.117c-4.134-0.357-7.762,2.704-8.117,6.83c-0.101,1.168-0.155,2.276-0.192,3.148l-4.725,123.839
	c-6.211,6.442-10.043,15.193-10.043,24.826c0,8.664,3.093,16.617,8.231,22.818l-0.824,21.513
	c-0.572,14.928,4.818,29.079,15.179,39.844c10.361,10.766,24.296,16.694,39.236,16.694h31.536c4.143,0,7.501-3.359,7.501-7.501
	c0-4.143-3.359-7.501-7.501-7.501h-31.536c-10.824,0-20.919-4.296-28.426-12.095c-7.505-7.798-11.411-18.051-10.997-28.866
	l0.441-11.532c3.533,1.378,7.332,2.217,11.302,2.4v8.278c0,4.143,3.359,7.501,7.501,7.501c4.143,0,7.501-3.359,7.501-7.501v-8.234
	h11.903c12.445,22.708,31.838,40.74,55.344,51.448v16.405h-3.331c-0.429,0-0.869,0.002-1.346,0.01c-0.055,0.001-0.115,0-0.169,0.001
	c-0.015,0-0.03,0.001-0.045,0.002c-0.025,0-0.045,0-0.07,0.001c-0.123,0.004-0.245,0.013-0.368,0.017
	c-21.637,0.514-41.899,9.283-57.099,24.743c-15.334,15.597-23.779,36.234-23.779,58.111v65.703c0,4.143,3.359,7.501,7.501,7.501
	h256.63c4.143,0,7.501-3.359,7.501-7.501v-65.703c0-21.877-8.445-42.514-23.779-58.111c-14.781-15.034-34.351-23.726-55.286-24.668
	c-0.736-0.037-1.483-0.07-2.263-0.096c-0.516-0.012-1.031-0.012-1.547-0.012h-3.331v-2.801h54.571
	c14.941,0,28.875-5.929,39.237-16.694c10.36-10.765,15.75-24.916,15.179-39.844L413.77,275.057z M380.357,258.926
	c-4.143,0-7.501,3.359-7.501,7.501v6.625h-4.956c0.158-0.415,0.306-0.832,0.459-1.248c0.109-0.296,0.22-0.591,0.326-0.887
	c0.348-0.97,0.686-1.942,1.008-2.92c0.039-0.118,0.074-0.237,0.113-0.355c0.283-0.869,0.556-1.742,0.819-2.618
	c0.094-0.313,0.185-0.628,0.276-0.942c0.207-0.71,0.407-1.422,0.6-2.135c0.086-0.318,0.173-0.637,0.257-0.955
	c0.224-0.855,0.438-1.713,0.643-2.573c0.035-0.149,0.074-0.297,0.109-0.447c0.235-1.007,0.455-2.018,0.664-3.033
	c0.058-0.279,0.11-0.56,0.166-0.84c0.149-0.752,0.292-1.506,0.427-2.261c0.059-0.331,0.117-0.663,0.173-0.995
	c0.132-0.777,0.255-1.556,0.371-2.337c0.039-0.258,0.08-0.516,0.117-0.775c0.146-1.029,0.28-2.06,0.4-3.095
	c0.024-0.208,0.043-0.417,0.066-0.624c0.092-0.837,0.176-1.675,0.251-2.515c0.029-0.331,0.056-0.662,0.083-0.993
	c0.061-0.76,0.115-1.522,0.162-2.286c0.019-0.308,0.04-0.616,0.057-0.925c0.105-1.943,0.168-3.895,0.181-5.856h10.555
	c11.477,0,20.814,9.333,20.814,20.804c0,10.912-8.446,19.872-19.141,20.729v-6.541C387.858,262.285,384.499,258.926,380.357,258.926
	z M392.24,104.146l4.344,113.83c-3.294-1.001-6.783-1.544-10.4-1.544h-10.552v-15.27c1.57,0.177,3.145,0.277,4.721,0.277
	c4.143,0,7.501-3.359,7.501-7.501s-3.359-7.501-7.501-7.501c-3.229,0-6.475-0.587-9.671-1.753
	c-11.754-4.252-21.928-15.573-29.143-28.979c-5.06-9.403-8.662-19.829-10.325-29.567c-0.144-0.841-0.276-1.678-0.391-2.507
	c-0.038-0.274-0.102-0.539-0.168-0.803c1.096,0.431,2.194,0.858,3.284,1.309c0.936,0.387,1.907,0.57,2.863,0.57
	c2.86,0,5.584-1.645,6.835-4.406c9.135-20.155,18.262-40.309,27.387-60.464C383.796,70.972,391.581,86.987,392.24,104.146z
	 M179.081,107.612c-9.438-20.828-18.871-41.658-28.301-62.485l-4.511-9.959c70.171-26.899,149.286-26.899,219.457,0l-5.187,11.451
	c-9.206,20.331-18.413,40.662-27.625,60.992C283.642,89.177,228.355,89.177,179.081,107.612z M139.143,273.053v-6.625
	c0-4.143-3.359-7.501-7.501-7.501c-4.143,0-7.501,3.359-7.501,7.501v6.541c-10.695-0.857-19.141-9.818-19.141-20.729
	c0-11.471,9.337-20.804,20.814-20.804h10.555c0.013,1.961,0.076,3.913,0.181,5.856c0.017,0.309,0.038,0.617,0.057,0.925
	c0.047,0.763,0.101,1.524,0.162,2.284c0.027,0.333,0.054,0.665,0.083,0.997c0.075,0.838,0.159,1.675,0.251,2.509
	c0.023,0.209,0.042,0.419,0.066,0.627c0.12,1.035,0.254,2.068,0.4,3.098c0.036,0.256,0.078,0.51,0.116,0.765
	c0.117,0.783,0.24,1.565,0.372,2.344c0.056,0.332,0.114,0.663,0.173,0.994c0.135,0.756,0.278,1.509,0.427,2.261
	c0.055,0.28,0.108,0.561,0.166,0.84c0.209,1.015,0.429,2.026,0.665,3.035c0.034,0.144,0.071,0.287,0.105,0.431
	c0.206,0.866,0.422,1.73,0.648,2.591c0.082,0.315,0.168,0.629,0.253,0.943c0.195,0.718,0.396,1.435,0.604,2.149
	c0.09,0.31,0.179,0.62,0.272,0.929c0.267,0.89,0.544,1.776,0.832,2.661c0.034,0.104,0.065,0.208,0.099,0.312
	c0.324,0.983,0.664,1.961,1.014,2.937c0.102,0.285,0.209,0.568,0.314,0.852c0.156,0.424,0.307,0.849,0.468,1.272h-4.955V273.053z
	 M162.283,277.209c-7.242-14.533-10.915-30.207-10.915-46.584v-6.69v-30.878c1.481-0.058,2.946-0.132,4.413-0.202
	c0.717-0.034,1.443-0.061,2.158-0.099c2.221-0.117,4.426-0.249,6.615-0.397c0.7-0.047,1.388-0.105,2.084-0.156
	c1.488-0.107,2.979-0.213,4.452-0.335c0.938-0.077,1.862-0.168,2.794-0.251c1.219-0.109,2.443-0.213,3.652-0.331
	c0.985-0.097,1.956-0.206,2.934-0.309c1.14-0.12,2.284-0.236,3.416-0.365c1.005-0.115,1.998-0.242,2.997-0.364
	c1.085-0.132,2.175-0.261,3.252-0.402c1.015-0.133,2.018-0.277,3.026-0.417c1.045-0.145,2.093-0.287,3.13-0.44
	c1.009-0.149,2.006-0.309,3.008-0.466c1.021-0.16,2.044-0.317,3.058-0.485c1-0.166,1.989-0.342,2.983-0.515
	c0.996-0.174,1.994-0.346,2.982-0.527c0.992-0.182,1.973-0.374,2.958-0.564c0.975-0.188,1.952-0.375,2.92-0.572
	c0.977-0.198,1.946-0.405,2.916-0.611c0.957-0.203,1.915-0.406,2.865-0.617c0.966-0.215,1.924-0.438,2.883-0.66
	c0.937-0.218,1.874-0.435,2.804-0.66c0.953-0.231,1.898-0.469,2.844-0.708c0.921-0.233,1.84-0.466,2.754-0.707
	c0.937-0.246,1.867-0.5,2.796-0.754c0.907-0.249,1.812-0.499,2.713-0.755c0.919-0.262,1.832-0.529,2.744-0.799
	c0.894-0.264,1.785-0.531,2.672-0.803c0.903-0.277,1.802-0.56,2.698-0.845c0.879-0.28,1.754-0.563,2.626-0.851
	c0.887-0.293,1.77-0.59,2.65-0.891c0.865-0.296,1.727-0.596,2.586-0.9c0.87-0.308,1.736-0.619,2.599-0.935
	c0.853-0.313,1.702-0.63,2.548-0.95c0.851-0.322,1.7-0.648,2.544-0.978c0.842-0.33,1.68-0.665,2.516-1.003
	c0.833-0.337,1.664-0.675,2.49-1.02c0.831-0.347,1.655-0.7,2.478-1.055c0.814-0.351,1.628-0.703,2.435-1.062
	c0.821-0.365,1.635-0.737,2.448-1.11c0.795-0.364,1.589-0.729,2.376-1.101c0.812-0.384,1.616-0.775,2.42-1.167
	c0.775-0.378,1.551-0.754,2.318-1.139c0.802-0.402,1.596-0.814,2.391-1.225c0.755-0.39,1.511-0.778,2.259-1.176
	c0.796-0.423,1.583-0.856,2.371-1.288c0.732-0.401,1.466-0.799,2.191-1.207c0.794-0.447,1.578-0.905,2.364-1.36
	c0.705-0.409,1.412-0.814,2.11-1.229c0.791-0.471,1.572-0.954,2.355-1.434c0.68-0.417,1.364-0.83,2.038-1.254
	c0.793-0.499,1.574-1.01,2.358-1.518c0.649-0.42,1.302-0.835,1.945-1.262c0.805-0.535,1.598-1.083,2.395-1.628
	c0.609-0.417,1.224-0.828,1.828-1.251c0.831-0.582,1.649-1.179,2.47-1.772c0.555-0.401,1.117-0.795,1.667-1.202
	c0.912-0.674,1.81-1.364,2.711-2.052c0.446-0.341,0.9-0.674,1.343-1.019c1.337-1.04,2.662-2.096,3.972-3.169
	c0.21,0.756,0.429,1.513,0.657,2.271c0.078,0.261,0.163,0.522,0.243,0.783c0.154,0.498,0.307,0.996,0.468,1.494
	c0.1,0.31,0.206,0.619,0.309,0.929c0.15,0.45,0.299,0.899,0.455,1.349c0.115,0.333,0.235,0.665,0.354,0.997
	c0.152,0.426,0.304,0.853,0.462,1.279c0.128,0.345,0.259,0.689,0.39,1.033c0.158,0.414,0.316,0.828,0.479,1.242
	c0.138,0.35,0.278,0.699,0.42,1.048c0.164,0.406,0.33,0.812,0.499,1.217c0.148,0.354,0.298,0.707,0.449,1.06
	c0.171,0.397,0.343,0.794,0.519,1.19c0.158,0.358,0.318,0.716,0.48,1.072c0.177,0.389,0.357,0.778,0.539,1.166
	c0.168,0.358,0.335,0.717,0.507,1.074c0.184,0.383,0.372,0.764,0.56,1.145c0.178,0.36,0.355,0.719,0.536,1.078
	c0.189,0.373,0.383,0.744,0.576,1.115c0.188,0.361,0.374,0.721,0.565,1.08c0.195,0.365,0.396,0.727,0.595,1.09
	c0.198,0.361,0.394,0.723,0.596,1.081c0.196,0.347,0.397,0.69,0.597,1.035c0.213,0.368,0.423,0.739,0.639,1.104
	c0.147,0.248,0.299,0.491,0.448,0.737c0.51,0.844,1.031,1.679,1.563,2.505c0.178,0.277,0.353,0.556,0.533,0.831
	c0.259,0.394,0.524,0.781,0.788,1.17c0.192,0.283,0.381,0.569,0.576,0.85c0.266,0.384,0.538,0.763,0.809,1.142
	c0.199,0.278,0.396,0.558,0.597,0.834c0.275,0.377,0.555,0.749,0.835,1.12c0.204,0.271,0.407,0.542,0.613,0.81
	c0.285,0.37,0.574,0.735,0.864,1.1c0.208,0.262,0.416,0.523,0.626,0.781c0.294,0.362,0.592,0.72,0.891,1.077
	c0.212,0.253,0.425,0.504,0.64,0.754c0.304,0.354,0.611,0.704,0.92,1.052c0.215,0.242,0.431,0.482,0.648,0.72
	c0.316,0.347,0.634,0.692,0.955,1.033c0.214,0.227,0.431,0.451,0.647,0.676c0.33,0.342,0.661,0.682,0.996,1.017
	c0.211,0.21,0.424,0.416,0.637,0.623c0.347,0.338,0.693,0.675,1.045,1.005c0.203,0.19,0.409,0.375,0.613,0.562
	c0.368,0.337,0.735,0.673,1.108,1.001c0.179,0.157,0.361,0.307,0.541,0.462c0.404,0.347,0.808,0.695,1.219,1.031
	c0.088,0.072,0.178,0.14,0.266,0.211c1.485,1.203,3.011,2.326,4.572,3.369c0.178,0.119,0.354,0.243,0.534,0.36
	c0.388,0.253,0.781,0.492,1.173,0.734c0.247,0.152,0.492,0.309,0.741,0.457c0.368,0.219,0.74,0.427,1.111,0.636
	c0.28,0.158,0.56,0.319,0.842,0.471c0.355,0.192,0.714,0.374,1.072,0.557c0.206,0.105,0.41,0.218,0.617,0.321v27.256v6.69
	c0,5.118-0.359,10.167-1.073,15.135c-1.571,10.928-4.863,21.458-9.842,31.45c-0.001,0.001-0.001,0.003-0.002,0.005
	c-11.423,22.917-30.75,40.819-54.429,50.412c-12.465,5.063-25.683,7.63-39.286,7.63c-1.7,0-3.395-0.04-5.082-0.12
	c-0.921-0.044-1.839-0.102-2.756-0.169c-10.003-0.736-19.755-2.885-29.106-6.422c-0.784-0.296-1.564-0.603-2.342-0.919h-0.001
	c-0.002-0.001-0.004-0.001-0.005-0.002C193.033,318.032,173.705,300.128,162.283,277.209z M221.638,362.508
	c-0.163-1.344-0.246-2.736-0.246-4.138v-13.194c0.065,0.02,0.131,0.036,0.196,0.055c1.224,0.368,2.453,0.714,3.688,1.041
	c0.277,0.074,0.554,0.143,0.831,0.215c1.105,0.285,2.214,0.555,3.328,0.808c0.186,0.042,0.37,0.088,0.556,0.129
	c1.25,0.277,2.505,0.531,3.765,0.768c0.292,0.055,0.585,0.107,0.877,0.16c1.155,0.208,2.314,0.402,3.477,0.576
	c0.144,0.022,0.287,0.047,0.431,0.068c1.273,0.186,2.551,0.346,3.834,0.491c0.304,0.034,0.609,0.066,0.914,0.099
	c1.222,0.129,2.446,0.243,3.675,0.335c0.084,0.006,0.168,0.015,0.252,0.021c1.295,0.094,2.594,0.16,3.896,0.212
	c0.316,0.013,0.632,0.024,0.948,0.034c1.31,0.042,2.623,0.071,3.94,0.071c1.317,0,2.63-0.029,3.94-0.071
	c0.316-0.01,0.632-0.021,0.948-0.034c1.302-0.052,2.602-0.118,3.896-0.212c0.084-0.006,0.168-0.015,0.253-0.021
	c1.228-0.091,2.453-0.206,3.675-0.335c0.304-0.032,0.608-0.064,0.911-0.098c1.283-0.145,2.563-0.305,3.838-0.492
	c0.14-0.02,0.279-0.045,0.419-0.066c1.169-0.175,2.333-0.37,3.496-0.58c0.287-0.052,0.574-0.103,0.86-0.156
	c1.263-0.238,2.523-0.492,3.777-0.77c0.178-0.039,0.355-0.083,0.533-0.124c1.124-0.255,2.244-0.528,3.361-0.816
	c0.269-0.069,0.538-0.137,0.806-0.208c1.24-0.329,2.475-0.677,3.706-1.046c0.063-0.019,0.126-0.034,0.189-0.053v13.193
	c0,1.401-0.083,2.794-0.247,4.15c-0.915,7.646-4.425,14.857-9.888,20.312c-6.536,6.536-15.227,10.136-24.472,10.136
	c-2.189,0-4.337-0.204-6.421-0.596C234.986,389.628,223.451,377.708,221.638,362.508z M376.812,438.795v58.201H135.185v-58.201
	c0-17.917,6.916-34.82,19.475-47.592c9.625-9.789,21.729-16.292,34.926-18.942c-0.979,16.25,2.042,33.674,8.689,49.142
	c10.44,24.295,29.368,42.957,54.738,53.97c0.953,0.414,1.969,0.62,2.987,0.62c1.017,0,2.034-0.206,2.987-0.62
	c25.37-11.012,44.298-29.675,54.738-53.97c6.647-15.468,9.669-32.892,8.689-49.144c13.188,2.647,25.298,9.151,34.926,18.944
	C369.897,403.977,376.812,420.878,376.812,438.795z M255.998,460.259c-44.87-21.157-53.272-64.466-51.255-89.346h3.245
	c0.01,0.037,0.022,0.074,0.031,0.111c0.065,0.248,0.14,0.492,0.208,0.738c0.128,0.457,0.255,0.913,0.395,1.364
	c0.088,0.282,0.184,0.56,0.276,0.84c0.135,0.41,0.271,0.819,0.417,1.224c0.105,0.291,0.216,0.578,0.326,0.866
	c0.095,0.248,0.182,0.5,0.281,0.747c0.055,0.137,0.117,0.271,0.173,0.408c0.119,0.291,0.243,0.579,0.368,0.867
	c0.162,0.373,0.327,0.745,0.497,1.113c0.132,0.286,0.267,0.571,0.405,0.854c0.176,0.363,0.358,0.723,0.543,1.081
	c0.144,0.278,0.288,0.556,0.437,0.831c0.194,0.359,0.395,0.713,0.598,1.066c0.152,0.264,0.302,0.53,0.458,0.791
	c0.216,0.362,0.441,0.717,0.667,1.073c0.155,0.244,0.306,0.491,0.465,0.732c0.254,0.385,0.517,0.762,0.781,1.139
	c0.141,0.202,0.278,0.408,0.422,0.608c0.406,0.562,0.823,1.116,1.251,1.661c0.054,0.069,0.111,0.135,0.166,0.204
	c0.39,0.49,0.787,0.973,1.195,1.447c0.165,0.192,0.338,0.378,0.506,0.567c0.299,0.338,0.599,0.675,0.907,1.005
	c0.198,0.211,0.402,0.416,0.603,0.624c0.289,0.298,0.579,0.596,0.876,0.887c0.217,0.213,0.439,0.421,0.66,0.629
	c0.291,0.275,0.584,0.549,0.881,0.817c0.231,0.208,0.464,0.412,0.699,0.615c0.3,0.26,0.602,0.517,0.908,0.769
	c0.24,0.198,0.481,0.394,0.724,0.587c0.311,0.247,0.625,0.49,0.942,0.73c0.247,0.187,0.493,0.373,0.743,0.555
	c0.327,0.238,0.658,0.469,0.991,0.699c0.248,0.171,0.495,0.344,0.746,0.512c0.351,0.233,0.706,0.457,1.063,0.682
	c0.241,0.152,0.48,0.307,0.724,0.454c0.397,0.24,0.8,0.469,1.204,0.699c0.211,0.12,0.419,0.245,0.632,0.362
	c0.616,0.338,1.239,0.664,1.87,0.976c0.038,0.019,0.077,0.036,0.115,0.054c0.6,0.295,1.208,0.578,1.821,0.849
	c0.223,0.098,0.451,0.188,0.675,0.283c0.431,0.183,0.862,0.365,1.298,0.536c0.265,0.104,0.534,0.199,0.802,0.298
	c0.403,0.15,0.806,0.298,1.214,0.438c0.286,0.098,0.574,0.189,0.862,0.281c0.396,0.127,0.793,0.252,1.193,0.37
	c0.298,0.088,0.598,0.17,0.899,0.252c0.397,0.109,0.796,0.213,1.197,0.312c0.305,0.075,0.611,0.147,0.918,0.217
	c0.404,0.091,0.811,0.177,1.218,0.258c0.307,0.061,0.615,0.122,0.924,0.178c0.417,0.075,0.836,0.142,1.256,0.206
	c0.304,0.047,0.607,0.095,0.913,0.136c0.439,0.059,0.882,0.107,1.324,0.155c0.29,0.031,0.579,0.067,0.871,0.093
	c0.493,0.044,0.989,0.074,1.486,0.104c0.244,0.015,0.487,0.036,0.732,0.047c0.744,0.033,1.491,0.052,2.243,0.052
	c13.252,0,25.71-5.16,35.076-14.526c0.696-0.695,1.361-1.416,2.012-2.149c0.141-0.159,0.283-0.317,0.422-0.478
	c0.626-0.723,1.233-1.462,1.814-2.219c0.095-0.124,0.185-0.25,0.278-0.374c0.525-0.697,1.031-1.408,1.518-2.131
	c0.095-0.14,0.192-0.278,0.285-0.419c0.525-0.797,1.024-1.609,1.502-2.434c0.101-0.175,0.199-0.352,0.298-0.528
	c0.466-0.827,0.915-1.663,1.333-2.516c0.015-0.03,0.031-0.059,0.046-0.089c0.429-0.879,0.824-1.775,1.201-2.678
	c0.077-0.185,0.154-0.369,0.229-0.555c0.362-0.898,0.703-1.805,1.012-2.724c0.036-0.108,0.068-0.217,0.104-0.325
	c0.284-0.863,0.542-1.735,0.779-2.614c0.027-0.1,0.062-0.197,0.089-0.297h3.256C309.271,395.793,300.868,439.102,255.998,460.259z
	 M388.605,326.01c-7.506,7.8-17.601,12.095-28.426,12.095h-51.663c22.194-10.844,40.511-28.29,52.436-50.05h11.902v8.235
	c0,4.143,3.359,7.501,7.501,7.501c4.143,0,7.501-3.359,7.501-7.501v-8.278c3.97-0.184,7.77-1.022,11.302-2.4l0.441,11.532
	C400.017,307.96,396.111,318.212,388.605,326.01z"/>
<path d="M255.998,288.441c13.497,0,26.147-6.632,33.84-17.742c2.358-3.406,1.509-8.08-1.897-10.438
	c-3.407-2.358-8.08-1.509-10.437,1.897c-4.891,7.063-12.931,11.28-21.505,11.28s-16.613-4.217-21.504-11.28
	c-2.357-3.407-7.031-4.255-10.438-1.897c-3.406,2.358-4.255,7.031-1.896,10.438C229.851,281.808,242.502,288.441,255.998,288.441z"
	/>
<path d="M310.333,226.907c4.143,0,7.501-3.359,7.501-7.501v-2c0-4.143-3.359-7.501-7.501-7.501c-4.143,0-7.501,3.359-7.501,7.501v2
	C302.832,223.548,306.19,226.907,310.333,226.907z"/>
<path d="M201.664,209.904c-4.143,0-7.501,3.359-7.501,7.501v2c0,4.143,3.359,7.501,7.501,7.501s7.501-3.359,7.501-7.501v-2
	C209.165,213.261,205.807,209.904,201.664,209.904z"/>
<path d="M270.696,44.603H263.5v-7.196c0-4.143-3.359-7.501-7.501-7.501c-4.143,0-7.501,3.359-7.501,7.501v7.196h-7.196
	c-4.143,0-7.501,3.359-7.501,7.501s3.359,7.501,7.501,7.501h7.196v7.196c0,4.143,3.359,7.501,7.501,7.501
	c4.143,0,7.501-3.359,7.501-7.501v-7.196h7.196c4.143,0,7.501-3.359,7.501-7.501S274.839,44.603,270.696,44.603z"/>
<g>
</g>
<g>
</g>
<g>
</g>
<g>
</g>
<g>
</g>
<g>
</g>
<g>
</g>
<g>
</g>
<g>
</g>
<g>
</g>
<g>
</g>
<g>
</g>
<g>
</g>
<g>
</g>
<g>
</g>
</svg>
