<?xml version="1.0" encoding="iso-8859-1"?>
<!-- Generator: Adobe Illustrator 19.0.0, SVG Export Plug-In . SVG Version: 6.00 Build 0)  -->
<svg version="1.1" id="Capa_1" xmlns="http://www.w3.org/2000/svg" xmlns:xlink="http://www.w3.org/1999/xlink" x="0px" y="0px"
	 viewBox="0 0 511.998 511.998" style="enable-background:new 0 0 511.998 511.998;" xml:space="preserve">
<path style="fill:#484655;" d="M308.925,366.447h-10.831v-11.79c0-2.018-1.636-3.653-3.653-3.653h-76.884
	c-2.018,0-3.653,1.636-3.653,3.653v11.79h-10.831c-41.62,0-75.361,33.74-75.361,75.361V504.5h256.574v-62.693
	C384.286,400.186,350.546,366.447,308.925,366.447z"/>
<rect x="222.996" y="296.006" style="fill:#FA9E3E;" width="65.999" height="54.999"/>
<path style="fill:#F0EEEE;" d="M420.997,76.526c0,0,21-6.441,37.499-3.39C377.997-37.369,266.332,21.612,255.999,37.205
	C245.666,21.612,134.001-37.369,53.502,73.136c16.5-3.051,37.499,3.39,37.499,3.39S35.17,97.128,44.336,196.654
	c6-13.012,26-24.538,36.666-24.538c-7.333,11.525-22,34.496-4.667,73.179c4-12.842,21.634-40.032,51.377-4.378h256.574
	c29.743-35.654,47.377-8.464,51.377,4.378c17.333-38.682,2.667-61.654-4.667-73.179c10.667,0,30.667,11.525,36.666,24.538
	C476.829,97.128,420.997,76.526,420.997,76.526z"/>
<g>
	<path style="fill:#D9D4D4;" d="M420.997,76.526c0,0,21-6.441,37.499-3.39C418.169,17.777,370.019,4.955,330.707,7.903
		c32.371,2.657,68.592,19.306,99.792,65.234c-15.387-3.051-34.97,3.39-34.97,3.39s43.961,17.404,44.457,97.454
		c10.487,3.769,23.119,12.789,27.677,22.673C476.829,97.128,420.997,76.526,420.997,76.526z"/>
	<path style="fill:#D9D4D4;" d="M439.048,196.654c-5.595-13.012-24.247-24.538-34.193-24.538
		c5.448,9.181,15.219,25.637,10.804,51.501c10.949,2.266,17.715,14.323,20.005,21.678c11.326-25.277,8.988-43.841,3.961-56.891
		C439.476,191.094,439.29,193.838,439.048,196.654z"/>
</g>
<g>
	<path style="fill:#FA9E3E;" d="M125.84,213.995h49.368v56.609H125.84c-15.632,0-28.305-12.672-28.305-28.305
		S110.208,213.995,125.84,213.995z"/>
	<path style="fill:#FA9E3E;" d="M386.158,213.995H336.79v56.609h49.368c15.632,0,28.305-12.672,28.305-28.305
		S401.79,213.995,386.158,213.995z"/>
</g>
<path style="fill:#FFB56B;" d="M368.107,150.066v69.29c0,62.123-50.829,113.891-112.95,113.433
	c-30.626-0.225-58.331-12.731-78.437-32.836c-20.28-20.29-32.829-48.309-32.829-79.269v-70.619c0-6.77,1.2-13.26,3.4-19.27
	c7.85-21.47,28.46-36.789,52.649-36.789c23.022,0,42.8,13.876,51.432,33.722c0.805,1.851,2.608,3.067,4.627,3.067l0,0
	c2.019,0,3.822-1.216,4.627-3.067c8.632-19.847,28.411-33.722,51.432-33.722c24.19,0,44.799,15.32,52.649,36.789
	C366.908,136.806,368.107,143.296,368.107,150.066z"/>
<path style="fill:#EF9245;" d="M364.708,130.796c-7.85-21.47-28.46-36.789-52.649-36.789c-3.141,0-6.219,0.267-9.22,0.764
	c18.006,3.333,32.775,17.35,38.893,36.025c1.971,6.01,3.046,12.5,3.046,19.27v69.29c0,59.814-42.22,110.02-95.039,113.261
	c1.795,0.099,3.601,0.159,5.418,0.172c62.122,0.457,112.95-51.31,112.95-113.433v-69.29
	C368.107,143.296,366.908,136.806,364.708,130.796z"/>
<path style="fill:#F0EEEE;" d="M255.999,251.533c19.708,0,37.493,8.185,50.18,21.326c1.839-4.115,2.87-8.67,2.87-13.469
	c0-18.258-14.801-33.058-33.058-33.058c-7.514,0-14.439,2.511-19.991,6.734c-5.552-4.223-12.477-6.734-19.991-6.734
	c-18.258,0-33.058,14.801-33.058,33.058c0,4.799,1.031,9.354,2.87,13.469C218.506,259.718,236.292,251.533,255.999,251.533z"/>
<path style="fill:#CFF4FF;" d="M192,367.264c-36.369,5.357-64.288,36.685-64.288,74.544v62.693H192V367.264z"/>
<path id="SVGCleanerId_0" style="fill:#CFF4FF;" d="M319.998,367.264c36.369,5.357,64.288,36.685,64.288,74.544v62.693h-64.288
	V367.264z"/>
<g>
	<path id="SVGCleanerId_0_1_" style="fill:#CFF4FF;" d="M319.998,367.264c36.369,5.357,64.288,36.685,64.288,74.544v62.693h-64.288
		V367.264z"/>
</g>
<path style="fill:#ADE0F3;" d="M319.998,367.264v6.783c25.091,12.231,42.384,37.969,42.384,67.761V504.5h21.904v-62.693
	C384.286,403.949,356.368,372.62,319.998,367.264z"/>
<g>
	<path style="fill:#E6FAFF;" d="M192,367.264c-5.296,0.78-10.405,2.126-15.282,3.947l-24.218,45.791l15.435,15.435l-15.435,20.065
		l30.657,51.999H192V367.264z"/>
	<path style="fill:#E6FAFF;" d="M319.998,367.264c5.296,0.78,10.405,2.126,15.282,3.947l24.218,45.791l-15.435,15.435l15.435,20.065
		L328.841,504.5h-8.843V367.264z"/>
</g>
<path d="M453.828,94.853c-4.461-6.124-9.085-10.897-13.335-14.566c5.411-0.596,11.351-0.752,16.64,0.225
	c3.019,0.559,6.073-0.78,7.71-3.378c1.636-2.598,1.523-5.931-0.284-8.413C422.203,10.575,372.281-0.737,337.933,0.044
	c-36.57,0.812-68.022,15.364-81.909,26.593c-9.727-7.898-27.701-16.93-48.553-22.09c-24.611-6.091-62.085-9.098-100.845,11.164
	c-3.671,1.919-5.091,6.45-3.172,10.121c1.919,3.671,6.452,5.092,10.121,3.172c34.597-18.087,68.196-15.365,90.293-9.896
	c26.164,6.475,43.422,18.536,45.88,22.244c1.39,2.096,3.737,3.356,6.252,3.356c2.515-0.001,4.862-1.261,6.251-3.357
	c1.322-1.995,9.155-8.5,23.82-14.833c11.488-4.962,29.869-10.981,52.194-11.477c20-0.438,39.085,3.68,56.765,12.256
	c17.265,8.375,33.204,21.044,47.533,37.755c-12.478,0.892-23.126,4.109-23.767,4.305c-3.076,0.943-5.233,3.735-5.323,6.951
	c-0.09,3.217,1.858,6.123,4.876,7.237c0.125,0.048,12.657,5.016,23.977,21.006c12.702,17.944,19.107,42.936,18.827,72.988
	c-9.605-7.71-21.672-12.923-30.157-12.923c-2.736,0-5.238,1.518-6.556,3.917c-1.318,2.399-1.207,5.353,0.262,7.662
	c5.845,9.194,15.948,25.088,9.45,50.911c-0.741-0.889-1.536-1.766-2.388-2.618c-6.187-6.186-13.707-9.171-21.53-8.669
	c-6.364-5.79-14.816-9.324-24.078-9.324h-10.55v-56.429c0-7.506-1.298-14.857-3.857-21.849c-1.423-3.889-5.729-5.89-9.621-4.464
	c-3.89,1.424-5.889,5.732-4.465,9.622c1.953,5.334,2.943,10.95,2.943,16.691v69.289c0,45.834-30.376,87.444-73.877,101.189
	c-10.194,3.232-20.774,4.821-31.518,4.749c-1.281-0.009-2.559-0.041-3.835-0.097c-8.928-0.386-17.714-1.9-26.175-4.512
	c-16.198-4.981-31.13-13.983-43.179-26.033c-7.994-7.999-14.534-17.063-19.488-26.871c-0.129-0.318-0.282-0.624-0.452-0.918
	c-6.993-14.19-10.695-29.901-10.695-46.179v-70.619c0-5.741,0.99-11.357,2.944-16.695c6.969-19.06,25.296-31.865,45.605-31.865
	c19.346,0,36.832,11.466,44.558,29.228c2.011,4.594,6.525,7.562,11.501,7.562c2.435,0,4.813-0.714,6.876-2.064
	c0.029-0.019,0.059-0.039,0.087-0.058c1.976-1.333,3.538-3.198,4.545-5.457c7.719-17.746,25.206-29.212,44.551-29.212
	c11.146,0,21.618,3.667,30.283,10.605c3.236,2.59,7.954,2.065,10.542-1.167c2.589-3.233,2.066-7.954-1.167-10.543
	c-11.192-8.96-25.276-13.895-39.657-13.895c-23.605,0-45.097,13.044-56.061,33.578C245,99.527,223.525,86.505,199.938,86.505
	c-26.583,0-50.571,16.764-59.692,41.71c-2.56,6.992-3.857,14.343-3.857,21.849v56.429h-10.55c-9.262,0-17.714,3.534-24.079,9.324
	c-7.826-0.502-15.344,2.484-21.53,8.669c-0.938,0.938-1.807,1.906-2.61,2.888c-3.361-12.736-3.771-30.035,9.708-51.236
	c1.469-2.31,1.563-5.236,0.244-7.634c-1.317-2.399-3.837-3.89-6.573-3.89c-8.486,0-20.551,5.212-30.157,12.924
	c-0.28-30.052,6.125-55.045,18.827-72.989c11.319-15.99,23.852-20.958,23.927-20.988c3.019-1.114,4.99-4.029,4.9-7.246
	c-0.09-3.217-2.222-6.018-5.298-6.961c-0.641-0.196-11.288-3.414-23.77-4.305c6.425-7.496,13.181-14.192,20.187-20.001
	c3.19-2.643,3.632-7.371,0.987-10.56c-2.643-3.189-7.371-3.63-10.561-0.987c-11.654,9.666-22.625,21.516-32.604,35.22
	c-1.807,2.482-1.919,5.814-0.282,8.412c1.635,2.597,4.688,3.939,7.709,3.378c5.288-0.977,11.226-0.82,16.64-0.225
	c-4.25,3.668-8.874,8.441-13.335,14.566c-22.556,30.968-24.036,72.828-21.307,102.49c0.312,3.38,2.854,6.129,6.198,6.704
	c3.354,0.578,6.66-1.169,8.081-4.251c2.459-5.331,8.206-10.497,14.267-14.267c-5.602,14.347-8.405,34.968,4.078,62.831
	c1.214,2.709,3.902,4.434,6.843,4.434c0.148,0,0.299-0.004,0.449-0.013c3.112-0.186,5.786-2.279,6.714-5.256
	c1.101-3.538,3.583-8.613,7.248-12.324c-0.463,2.294-0.709,4.665-0.709,7.093c0,19.746,16.064,35.809,35.809,35.809h25.182
	c5.404,9.847,12.233,18.987,20.395,27.153c12.453,12.453,27.607,22.047,44.082,27.984v10.461c-5.169,0.969-9.096,5.509-9.096,10.955
	v4.29h-3.331c-4.095,0-8.119,0.31-12.057,0.887c-0.036,0.005-0.073,0.005-0.109,0.01c-0.039,0.006-0.078,0.013-0.116,0.019
	c-0.307,0.046-0.611,0.098-0.916,0.148c-0.724,0.116-1.447,0.243-2.17,0.379c-0.237,0.044-0.474,0.087-0.71,0.134
	c-0.095,0.019-0.19,0.034-0.285,0.054c-0.332,0.067-0.661,0.142-0.991,0.213c-0.524,0.113-1.048,0.228-1.571,0.351
	c-0.356,0.083-0.711,0.171-1.066,0.259c-0.519,0.129-1.034,0.265-1.549,0.404c-0.199,0.054-0.397,0.107-0.596,0.162
	c-0.555,0.154-1.108,0.314-1.66,0.48c-0.554,0.166-1.105,0.339-1.654,0.516c-0.619,0.2-1.236,0.406-1.85,0.62
	c-0.112,0.039-0.223,0.08-0.334,0.12c-0.426,0.151-0.853,0.3-1.276,0.458c-0.023,0.009-0.047,0.017-0.071,0.025
	c-0.025,0.009-0.048,0.022-0.073,0.031c-0.8,0.3-1.592,0.617-2.382,0.941c-0.375,0.154-0.752,0.304-1.124,0.463
	c-0.987,0.422-1.963,0.868-2.932,1.328c-0.167,0.079-0.337,0.153-0.503,0.233c-10.029,4.844-19.079,11.697-26.52,20.24
	c-5.788,6.647-10.425,14.121-13.805,22.115c-0.083,0.196-0.156,0.398-0.238,0.595c-0.398,0.962-0.786,1.928-1.147,2.905
	c-0.215,0.578-0.409,1.166-0.611,1.751c-0.21,0.608-0.424,1.215-0.62,1.828c-0.221,0.69-0.422,1.387-0.625,2.084
	c-0.153,0.526-0.308,1.052-0.45,1.582c-0.196,0.729-0.377,1.464-0.554,2.201c-0.125,0.519-0.247,1.038-0.361,1.56
	c-0.161,0.733-0.311,1.47-0.453,2.21c-0.106,0.554-0.204,1.109-0.298,1.665c-0.12,0.709-0.237,1.419-0.339,2.134
	c-0.09,0.629-0.166,1.261-0.241,1.893c-0.078,0.651-0.159,1.301-0.221,1.957c-0.075,0.778-0.126,1.559-0.179,2.341
	c-0.035,0.525-0.081,1.046-0.106,1.573c-0.064,1.327-0.101,2.658-0.101,3.992v62.693c0,4.142,3.357,7.5,7.5,7.5h55.444h8.844
	h127.998h8.844h55.444c4.142,0,7.5-3.358,7.5-7.5v-62.693c0-1.334-0.037-2.665-0.101-3.992c-0.025-0.527-0.072-1.049-0.106-1.573
	c-0.053-0.781-0.104-1.563-0.178-2.341c-0.063-0.656-0.144-1.306-0.221-1.957c-0.076-0.632-0.151-1.264-0.241-1.893
	c-0.102-0.715-0.218-1.425-0.339-2.134c-0.094-0.556-0.192-1.111-0.298-1.665c-0.141-0.74-0.292-1.477-0.453-2.21
	c-0.115-0.522-0.237-1.041-0.361-1.56c-0.177-0.737-0.358-1.472-0.554-2.201c-0.143-0.53-0.297-1.055-0.45-1.582
	c-0.203-0.697-0.404-1.395-0.625-2.084c-0.195-0.613-0.41-1.22-0.62-1.828c-0.202-0.584-0.396-1.172-0.611-1.751
	c-0.361-0.976-0.749-1.943-1.147-2.905c-0.082-0.197-0.155-0.399-0.238-0.595c-3.38-7.994-8.017-15.468-13.805-22.115
	c-7.441-8.543-16.49-15.396-26.52-20.24c-0.166-0.08-0.336-0.154-0.502-0.233c-0.969-0.46-1.945-0.905-2.932-1.328
	c-0.372-0.16-0.749-0.309-1.124-0.463c-0.79-0.324-1.582-0.641-2.382-0.941c-0.025-0.01-0.048-0.022-0.073-0.031
	c-0.023-0.009-0.047-0.017-0.071-0.025c-0.423-0.158-0.85-0.306-1.276-0.458c-0.112-0.039-0.223-0.081-0.334-0.12
	c-0.614-0.214-1.23-0.421-1.85-0.62c-0.549-0.178-1.1-0.35-1.654-0.516c-0.552-0.165-1.104-0.326-1.66-0.48
	c-0.198-0.055-0.397-0.109-0.595-0.162c-0.515-0.139-1.03-0.275-1.549-0.404c-0.355-0.088-0.709-0.176-1.066-0.259
	c-0.523-0.123-1.047-0.238-1.572-0.351c-0.33-0.071-0.658-0.146-0.99-0.212c-0.095-0.019-0.191-0.035-0.286-0.054
	c-0.236-0.046-0.473-0.089-0.71-0.134c-0.723-0.136-1.446-0.263-2.17-0.379c-0.305-0.049-0.609-0.102-0.916-0.148
	c-0.039-0.006-0.078-0.013-0.116-0.019c-0.037-0.005-0.073-0.005-0.11-0.01c-3.938-0.576-7.961-0.887-12.056-0.887h-3.329v-4.29
	c0-5.446-3.926-9.986-9.096-10.955v-10.668c21.745-8.043,41.205-22.647,55.23-41.582c3.181-4.295,6.04-8.756,8.602-13.347h25.827
	c19.745,0,35.809-16.064,35.809-35.809c0-2.41-0.243-4.765-0.7-7.043c4.802,4.925,7.202,12.154,7.239,12.273
	c0.928,2.977,3.602,5.07,6.714,5.256c0.15,0.009,0.301,0.013,0.449,0.013c2.94,0,5.629-1.725,6.843-4.434
	c12.48-27.856,9.683-48.473,4.072-62.835c6.063,3.77,11.814,8.937,14.273,14.27c1.421,3.082,4.728,4.825,8.081,4.251
	c3.345-0.575,5.887-3.324,6.198-6.704C477.864,167.68,476.384,125.82,453.828,94.853z M125.841,263.104
	c-11.475,0-20.81-9.335-20.81-20.81c0-11.469,9.335-20.8,20.81-20.8h10.56c0.095,14.441,2.734,28.481,7.705,41.609H125.841z
	 M255.999,340.296c0.303,0,0.605-0.015,0.908-0.017c0.87-0.008,1.739-0.023,2.607-0.05c0.568-0.017,1.135-0.035,1.702-0.061
	c0.86-0.038,1.718-0.091,2.576-0.148c0.66-0.044,1.319-0.09,1.978-0.145c1.028-0.086,2.054-0.183,3.078-0.296
	c0.516-0.057,1.029-0.122,1.544-0.186c0.864-0.107,1.727-0.223,2.588-0.349c0.462-0.068,0.925-0.134,1.386-0.208
	c1.272-0.202,2.541-0.419,3.805-0.663c0.052-0.01,0.105-0.02,0.157-0.031c1.06-0.206,2.117-0.426,3.171-0.662v6.023H230.5v-5.933
	c0.902,0.196,1.807,0.378,2.714,0.554c0.083,0.016,0.164,0.035,0.247,0.05c1.268,0.242,2.541,0.457,3.818,0.658
	c0.347,0.055,0.694,0.105,1.041,0.156c1.026,0.152,2.054,0.291,3.085,0.417c0.293,0.036,0.585,0.075,0.878,0.109
	c1.279,0.146,2.561,0.272,3.847,0.378c0.275,0.022,0.55,0.039,0.826,0.059c1.05,0.079,2.103,0.143,3.157,0.194
	c0.359,0.017,0.717,0.035,1.076,0.049c1.303,0.052,2.607,0.09,3.914,0.099C255.401,340.295,255.7,340.296,255.999,340.296z
	 M173.239,427.134l-11.52-11.52l20.251-38.29c0.083-0.027,0.165-0.057,0.249-0.085c0.572-0.185,1.146-0.358,1.721-0.528
	c0.186-0.055,0.373-0.106,0.56-0.159v115.46l-22.966-38.954l12.345-16.048C176.176,434.024,175.901,429.797,173.239,427.134z
	 M135.212,441.807c0-1.097,0.031-2.186,0.083-3.27c0.021-0.428,0.058-0.854,0.087-1.281c0.043-0.644,0.086-1.288,0.147-1.927
	c0.051-0.531,0.116-1.06,0.18-1.59c0.062-0.523,0.125-1.047,0.2-1.567c0.083-0.578,0.176-1.153,0.274-1.727
	c0.079-0.465,0.161-0.929,0.249-1.391c0.114-0.596,0.235-1.19,0.365-1.782c0.096-0.439,0.199-0.876,0.304-1.313
	c0.142-0.591,0.287-1.181,0.445-1.768c0.122-0.452,0.253-0.899,0.383-1.347c0.161-0.552,0.321-1.105,0.495-1.653
	c0.17-0.532,0.355-1.058,0.537-1.585c0.156-0.45,0.305-0.901,0.47-1.347c0.32-0.863,0.659-1.717,1.013-2.564
	c0.042-0.101,0.079-0.203,0.122-0.304c3.863-9.106,9.659-17.201,16.872-23.766l-11.565,21.868c-1.539,2.91-1.001,6.482,1.326,8.809
	l10.778,10.779l-11.419,14.845c-1.867,2.427-2.071,5.744-0.517,8.382l23.989,40.69h-34.816L135.212,441.807L135.212,441.807z
	 M328.058,376.711c0.575,0.17,1.15,0.343,1.721,0.528c0.083,0.027,0.165,0.057,0.249,0.085l20.251,38.29l-11.52,11.52
	c-2.663,2.664-2.938,6.89-0.641,9.876l12.345,16.048l-22.966,38.954v-115.46C327.685,376.604,327.872,376.656,328.058,376.711z
	 M376.786,497.001H341.97l23.989-40.69c1.555-2.638,1.351-5.955-0.517-8.382l-11.419-14.845l10.778-10.779
	c2.327-2.327,2.865-5.9,1.326-8.809l-11.565-21.868c7.212,6.565,13.009,14.66,16.872,23.766c0.042,0.101,0.079,0.203,0.121,0.304
	c0.354,0.846,0.692,1.701,1.013,2.564c0.165,0.446,0.314,0.898,0.47,1.347c0.183,0.527,0.367,1.052,0.537,1.585
	c0.174,0.548,0.335,1.1,0.495,1.653c0.131,0.448,0.262,0.896,0.383,1.347c0.158,0.587,0.303,1.177,0.445,1.768
	c0.105,0.436,0.208,0.873,0.304,1.313c0.13,0.592,0.251,1.186,0.365,1.782c0.088,0.462,0.17,0.926,0.249,1.391
	c0.097,0.574,0.191,1.15,0.274,1.727c0.074,0.52,0.137,1.043,0.2,1.567c0.063,0.529,0.128,1.058,0.179,1.59
	c0.061,0.639,0.104,1.283,0.147,1.927c0.029,0.427,0.066,0.853,0.087,1.281c0.052,1.084,0.083,2.173,0.083,3.27v55.191H376.786z
	 M308.925,373.947c1.199,0,2.39,0.033,3.573,0.095v122.959H199.5V374.042c1.184-0.062,2.375-0.095,3.573-0.095h10.831
	c4.143,0,7.5-3.358,7.5-7.5v-7.944H223h65.999h1.596v7.944c0,4.142,3.357,7.5,7.5,7.5H308.925z M386.157,263.104h-18.754
	c5.143-13.193,7.912-27.214,8.162-41.609h10.592c11.475,0,20.81,9.331,20.81,20.8C406.967,253.768,397.632,263.104,386.157,263.104z
	"/>
<path d="M317.821,193.467c0-4.142-3.357-7.5-7.5-7.5c-4.142,0-7.5,3.358-7.5,7.5v2c0,4.142,3.358,7.5,7.5,7.5
	c4.143,0,7.5-3.358,7.5-7.5V193.467z"/>
<path d="M209.177,195.467v-2c0-4.142-3.357-7.5-7.5-7.5c-4.143,0-7.5,3.358-7.5,7.5v2c0,4.142,3.357,7.5,7.5,7.5
	C205.819,202.967,209.177,199.609,209.177,195.467z"/>
<path d="M204.522,280.246c2.459,0.431,4.962-0.386,6.692-2.178c11.851-12.275,27.756-19.035,44.784-19.035
	s32.934,6.76,44.784,19.035c1.426,1.476,3.379,2.29,5.396,2.29c0.431,0,0.865-0.037,1.297-0.113
	c2.454-0.431,4.534-2.053,5.551-4.328c2.337-5.231,3.522-10.792,3.522-16.529c0-22.364-18.195-40.558-40.559-40.558
	c-7.106,0-13.923,1.806-19.991,5.261c-6.067-3.456-12.884-5.261-19.991-5.261c-22.364,0-40.559,18.195-40.559,40.558
	c0,5.737,1.186,11.298,3.523,16.529C199.988,278.193,202.068,279.815,204.522,280.246z M236.009,233.832
	c5.633,0,10.976,1.799,15.45,5.203c2.684,2.041,6.399,2.04,9.081,0.001c4.477-3.404,9.819-5.204,15.451-5.204
	c13.922,0,25.279,11.188,25.555,25.044c-13.133-9.643-28.905-14.842-45.545-14.842s-32.412,5.199-45.545,14.842
	C210.729,245.019,222.087,233.832,236.009,233.832z"/>
<g>
</g>
<g>
</g>
<g>
</g>
<g>
</g>
<g>
</g>
<g>
</g>
<g>
</g>
<g>
</g>
<g>
</g>
<g>
</g>
<g>
</g>
<g>
</g>
<g>
</g>
<g>
</g>
<g>
</g>
</svg>
