<?xml version="1.0" encoding="iso-8859-1"?>
<!-- Generator: Adobe Illustrator 19.0.0, SVG Export Plug-In . SVG Version: 6.00 Build 0)  -->
<svg version="1.1" id="Layer_1" xmlns="http://www.w3.org/2000/svg" xmlns:xlink="http://www.w3.org/1999/xlink" x="0px" y="0px"
	 viewBox="0 0 512.002 512.002" style="enable-background:new 0 0 512.002 512.002;" xml:space="preserve">
<g>
	<path style="fill:#F9C573;" d="M430.218,345.972L430.218,345.972v25.789c0,16.832,13.646,30.478,30.478,30.478l0,0V376.45
		C460.696,359.617,447.05,345.972,430.218,345.972z"/>
	<path style="fill:#F9C573;" d="M430.218,395.205L430.218,395.205v25.789c0,16.832,13.646,30.478,30.478,30.478l0,0v-25.789
		C460.696,408.85,447.05,395.205,430.218,395.205z"/>
	<path style="fill:#F9C573;" d="M430.218,296.739L430.218,296.739v25.789c0,16.832,13.646,30.478,30.478,30.478l0,0v-25.789
		C460.696,310.383,447.05,296.739,430.218,296.739z"/>
	<path style="fill:#F9C573;" d="M491.173,345.972L491.173,345.972v25.789c0,16.832-13.646,30.478-30.478,30.478l0,0V376.45
		C460.696,359.617,474.342,345.972,491.173,345.972z"/>
	<path style="fill:#F9C573;" d="M491.173,395.205L491.173,395.205v25.789c0,16.832-13.646,30.478-30.478,30.478l0,0v-25.789
		C460.696,408.85,474.342,395.205,491.173,395.205z"/>
	<path style="fill:#F9C573;" d="M491.173,296.739L491.173,296.739v25.789c0,16.832-13.646,30.478-30.478,30.478l0,0v-25.789
		C460.696,310.383,474.342,296.739,491.173,296.739z"/>
</g>
<g>
	<path style="fill:#E0B394;" d="M130.044,225.211c-14.536-0.645-26.105-12.637-26.105-27.324c0-15.098,12.238-27.348,27.348-27.348
		c1.36,0,2.696,0.094,4.009,0.293L130.044,225.211z"/>
	<path style="fill:#E0B394;" d="M377.172,225.211c14.536-0.645,26.117-12.637,26.117-27.324c0-15.098-12.25-27.348-27.36-27.348
		c-1.36,0-2.708,0.105-4.009,0.293L377.172,225.211z"/>
</g>
<path style="fill:#F9C573;" d="M308.893,324.299H198.342c-40.038,0-72.497,32.458-72.497,72.497v106.415h255.544V396.796
	C381.39,356.756,348.932,324.299,308.893,324.299z"/>
<polyline style="fill:#E0B394;" points="299.336,306.717 299.336,416.448 207.903,416.448 207.903,306.717 "/>
<path style="fill:#E2AF66;" d="M243.011,324.299h-44.669c-40.038,0-72.497,32.458-72.497,72.497v106.415h44.669V396.796
	C170.514,356.756,202.973,324.299,243.011,324.299z"/>
<path style="fill:#F7CBA4;" d="M214.051,343.424l-48.118-34.96c-25.428-18.474-39.184-49.025-36.161-80.31l8.346-86.367
	c5.749-59.484,55.736-104.874,115.497-104.874l0,0c59.761,0,109.748,45.39,115.497,104.874l8.346,86.367
	c3.023,31.285-10.732,61.835-36.161,80.31l-48.118,34.96C269.586,360.563,237.642,360.563,214.051,343.424z"/>
<path style="fill:#E0B394;" d="M159.716,245.174c-0.809,13.68,3.646,27.137,12.461,37.628l50.292,61.799
	c2.626,3.13,5.603,5.756,8.827,7.854c-6.049-2.11-11.863-5.134-17.243-9.038l-48.12-34.956
	c-25.425-18.474-39.176-49.022-36.151-80.309l8.334-86.369C143.813,82.88,192.882,37.796,251.88,36.941
	c-36.339,0.879-77.487,35.131-79.632,71.611L159.716,245.174z"/>
<g>
	<path style="fill:#E2AF66;" d="M474.278,146.943c0,13.598-29.81,25.789-76.874,34.018c-4.994-6.342-12.766-10.421-21.475-10.421
		c-1.36,0-2.708,0.105-4.009,0.293l-2.813-29.048c-1.16-12.015-4.126-23.456-8.616-34.065
		C428.351,115.363,474.278,130.063,474.278,146.943z"/>
	<path style="fill:#E2AF66;" d="M146.725,107.721c-4.49,10.609-7.455,22.049-8.616,34.065l-2.813,29.048
		c-1.313-0.199-2.649-0.293-4.009-0.293c-8.71,0-16.47,4.079-21.475,10.421c-47.053-8.229-76.851-20.42-76.851-34.018
		C32.961,130.063,78.877,115.363,146.725,107.721z"/>
</g>
<path style="fill:#F9C573;" d="M377.781,109.889H129.458l24.324-83.556c4.091-14.067,19.6-21.358,33.045-15.532l24.652,10.679
	l42.024,18.216h0.234l66.664-28.895c13.445-5.826,28.966,1.465,33.057,15.532L377.781,109.889z"/>
<path style="fill:#E2AF66;" d="M211.478,21.48l-13.668,88.409h-68.352l24.324-83.556c4.091-14.067,19.6-21.358,33.045-15.532
	L211.478,21.48z"/>
<path style="fill:#F95428;" d="M381.392,392.558v110.646H331.76v-90.331c0-25.132,12.918-48.495,34.205-61.846l0.234-0.188
	C375.683,362.128,381.392,376.675,381.392,392.558z"/>
<path style="fill:#E54728;" d="M125.846,392.558v110.646h49.632v-90.331c0-25.132-12.918-48.495-34.205-61.846l-0.234-0.188
	C131.555,362.128,125.846,376.675,125.846,392.558z"/>
<rect x="207.905" y="467.436" style="fill:#E2AF66;" width="91.433" height="35.764"/>
<path d="M293.046,261.613c-10.597,10.597-24.687,16.433-39.673,16.433c-14.987,0-29.077-5.836-39.673-16.433
	c-3.433-3.433-8.999-3.435-12.434,0c-3.433,3.433-3.433,9,0,12.433c13.918,13.919,32.422,21.583,52.106,21.583
	c19.683,0,38.187-7.665,52.106-21.583c3.433-3.433,3.433-9,0-12.433C302.046,258.181,296.482,258.179,293.046,261.613z"/>
<path d="M209.981,219.774v-14.062c0-4.855-3.935-8.792-8.792-8.792c-4.857,0-8.792,3.936-8.792,8.792v14.062
	c0,4.855,3.935,8.792,8.792,8.792C206.046,228.566,209.981,224.63,209.981,219.774z"/>
<path d="M279.241,165.502c-3.435,3.433-3.435,8.999-0.001,12.433s9,3.435,12.433,0c7.656-7.655,20.113-7.655,27.769,0
	c1.716,1.717,3.967,2.575,6.216,2.575c2.249,0,4.5-0.858,6.217-2.575c3.433-3.433,3.433-9-0.001-12.433
	C317.362,150.991,293.752,150.991,279.241,165.502z"/>
<path d="M215.073,177.934c1.717,1.717,3.967,2.575,6.217,2.575c2.249,0,4.5-0.858,6.216-2.575c3.435-3.433,3.435-8.999,0.001-12.433
	c-7.03-7.03-16.376-10.9-26.318-10.9c-9.94,0-19.287,3.872-26.316,10.9c-3.433,3.433-3.433,9,0.001,12.433
	c3.432,3.435,8.999,3.433,12.433,0c3.708-3.709,8.638-5.751,13.883-5.751C206.434,172.184,211.364,174.226,215.073,177.934z"/>
<path d="M35.792,42.805c10.827,0,19.635,8.808,19.635,19.635c0,4.855,3.935,8.792,8.792,8.792c4.857,0,8.792-3.936,8.792-8.792
	c0-10.827,8.808-19.635,19.635-19.635c4.856,0,8.792-3.936,8.792-8.792s-3.935-8.792-8.792-8.792
	c-11.386,0-21.593,5.139-28.426,13.219c-6.833-8.08-17.041-13.219-28.426-13.219c-4.857,0-8.792,3.936-8.792,8.792
	S30.936,42.805,35.792,42.805z"/>
<path d="M499.921,200.808c-11.386,0-21.593,5.139-28.426,13.219c-6.833-8.08-17.041-13.219-28.426-13.219
	c-4.857,0-8.792,3.936-8.792,8.792c0,4.855,3.935,8.792,8.792,8.792c10.827,0,19.635,8.808,19.635,19.635
	c0,4.855,3.935,8.792,8.792,8.792c4.857,0,8.792-3.936,8.792-8.792c0-10.827,8.808-19.635,19.635-19.635
	c4.857,0,8.792-3.936,8.792-8.792C508.712,204.744,504.776,200.808,499.921,200.808z"/>
<path d="M305.557,196.921c-4.857,0-8.792,3.936-8.792,8.792v14.062c0,4.855,3.935,8.792,8.792,8.792s8.792-3.936,8.792-8.792
	v-14.062C314.349,200.857,310.414,196.921,305.557,196.921z"/>
<path d="M253.373,256.704c12.281,0,22.272-9.991,22.272-22.272v-41.614c0-4.855-3.935-8.792-8.792-8.792s-8.792,3.936-8.792,8.792
	v41.614c0,2.586-2.103,4.689-4.689,4.689s-4.689-2.103-4.689-4.689v-41.614c0-4.855-3.935-8.792-8.792-8.792
	c-4.857,0-8.792,3.936-8.792,8.792v41.614C231.101,246.713,241.093,256.704,253.373,256.704z"/>
<path d="M482.828,146.943c0-13.891-14.933-25.008-45.652-33.987c-4.669-1.363-9.544,1.312-10.906,5.972
	c-1.362,4.661,1.312,9.543,5.972,10.905c27.402,8.01,33.003,15.533,33.003,17.11c0,0.128-3.902,13.24-64.923,24.516
	c-5.683-5.327-12.889-8.658-20.673-9.494l-2.031-21.026c-0.748-7.741-2.211-15.351-4.352-22.757
	c11.318,1.511,21.945,3.231,31.702,5.145c4.763,0.938,9.385-2.171,10.319-6.935c0.935-4.765-2.17-9.385-6.935-10.32
	c-7.52-1.475-15.533-2.836-23.946-4.079l-22.741-78.118c-2.654-9.126-9.112-16.68-17.717-20.725c-8.61-4.048-18.55-4.2-27.278-0.418
	l-63.286,27.43L190.085,2.732c-8.725-3.779-18.662-3.628-27.268,0.417c-8.604,4.045-15.061,11.6-17.713,20.725l-22.74,78.117
	c-24.411,3.613-45.235,8.218-61.018,13.549c-25.178,8.502-37.418,18.775-37.418,31.405c0,10.625,8.529,19.486,26.077,27.089
	c11.691,5.065,27.3,9.563,46.482,13.415c-1.02,3.371-1.58,6.887-1.58,10.44c0,16.261,10.665,30.036,25.519,34.564
	c-1.381,32.448,13.673,63.928,40.09,83.123l48.122,34.969c13.38,9.718,29.057,14.577,44.733,14.577s31.352-4.86,44.726-14.578
	l48.118-34.967c26.431-19.206,41.486-50.687,40.093-83.123c14.861-4.528,25.531-18.303,25.531-34.564
	c0-3.553-0.562-7.067-1.579-10.435C459.049,177.716,482.828,164.427,482.828,146.943z M161.987,28.786
	c1.262-4.345,4.215-7.798,8.311-9.724c4.099-1.926,8.643-1.995,12.795-0.196l66.676,28.894c1.103,0.478,2.293,0.726,3.496,0.726
	h0.234c1.203,0,2.393-0.246,3.496-0.726l66.664-28.894c4.153-1.802,8.703-1.731,12.804,0.197c4.099,1.927,7.052,5.379,8.316,9.725
	l20.575,70.679c-1.369-0.162-2.732-0.326-4.118-0.482c-32.782-3.702-70.079-5.659-107.858-5.659
	c-37.733,0-74.982,1.952-107.731,5.643c-0.049,0.005-0.098,0.009-0.148,0.015c-1.376,0.155-2.729,0.318-4.088,0.478L161.987,28.786z
	 M41.511,146.943c0-3.474,16.817-18.811,91.962-28.771c-2.144,7.41-3.608,15.022-4.356,22.766l-2.033,21.028
	c-7.778,0.844-14.986,4.168-20.673,9.493C45.412,160.183,41.511,147.072,41.511,146.943z M112.49,197.888
	c0-4.216,1.375-8.183,3.982-11.481c2.32-2.939,5.399-5.039,8.846-6.155l-3.274,33.872
	C116.328,210.959,112.49,204.876,112.49,197.888z M335.88,301.351l-48.12,34.967c-20.567,14.945-48.212,14.945-68.788,0
	l-48.121-34.967c-22.797-16.565-35.281-44.29-32.58-72.359l8.345-86.362c0.889-9.189,2.947-18.16,6.105-26.743
	c30.853-3.259,65.518-4.978,100.655-4.978c35.124,0,69.781,1.72,100.632,4.977c3.158,8.584,5.216,17.555,6.105,26.745L368.46,229
	C371.174,257.056,358.689,284.779,335.88,301.351z M384.689,214.128l-3.274-33.877c3.451,1.116,6.534,3.221,8.861,6.176
	c2.605,3.281,3.981,7.244,3.981,11.462C394.257,204.879,390.413,210.963,384.689,214.128z"/>
<path d="M354.394,329.474c-4.156-2.514-9.559-1.186-12.075,2.968c-2.514,4.153-1.186,9.559,2.968,12.074
	c2.548,1.543,4.956,3.285,7.219,5.207c-18.813,15.43-29.779,38.359-29.779,63.15v81.54h-14.84V467.44
	c0-4.855-3.935-8.792-8.792-8.792h-91.433c-4.857,0-8.792,3.936-8.792,8.792v26.973h-14.84v-81.54
	c0-20.951-7.911-40.878-22.277-56.109c-3.33-3.532-8.896-3.695-12.428-0.363c-3.533,3.331-3.695,8.895-0.365,12.428
	c11.274,11.957,17.485,27.599,17.485,44.046v81.54h-32.049v-52.316c0-4.855-3.935-8.792-8.792-8.792
	c-4.856,0-8.792,3.936-8.792,8.792v61.108c0,4.855,3.935,8.792,8.792,8.792h255.544c4.857,0,8.792-3.936,8.792-8.792v-28.86
	c0-4.855-3.935-8.792-8.792-8.792c-4.857,0-8.792,3.936-8.792,8.792v20.068h-32.049v-81.54c0-19.585,8.724-37.681,23.662-49.795
	c5.441,8.812,8.386,19.026,8.386,29.48v52.48c0,4.855,3.935,8.792,8.792,8.792c4.857,0,8.792-3.936,8.792-8.792v-52.48
	c0-17.307-6.127-34.132-17.24-47.36C367.484,338.961,361.324,333.671,354.394,329.474z M216.453,476.231h73.85v18.181h-73.85
	V476.231z"/>
<path d="M207.661,359.83c-4.857,0-8.792,3.936-8.792,8.792v47.827c0,4.855,3.935,8.792,8.792,8.792h91.433
	c4.856,0,8.792-3.936,8.792-8.792v-47.827c0-4.855-3.935-8.792-8.792-8.792s-8.792,3.936-8.792,8.792v39.035h-73.85v-39.035
	C216.453,363.766,212.518,359.83,207.661,359.83z"/>
<path d="M490.933,287.946c-12.288,0-23.272,5.677-30.478,14.543c-7.206-8.866-18.189-14.543-30.478-14.543
	c-4.857,0-8.792,3.936-8.792,8.792v25.789c0,5.84,1.292,11.382,3.588,16.369c-2.173,1.601-3.588,4.17-3.588,7.076v25.789
	c0,5.84,1.292,11.382,3.588,16.369c-2.173,1.601-3.588,4.17-3.588,7.076v25.789c0,18.63,13.046,34.26,30.478,38.265v43.952
	c0,4.855,3.935,8.792,8.792,8.792c4.857,0,8.792-3.936,8.792-8.792v-43.952c17.432-4.004,30.478-19.635,30.478-38.265v-25.789
	c0-2.906-1.416-5.474-3.588-7.076c2.296-4.987,3.588-10.529,3.588-16.369v-25.789c0-2.906-1.416-5.474-3.588-7.076
	c2.296-4.987,3.588-10.529,3.588-16.369v-25.789C499.725,291.882,495.788,287.946,490.933,287.946z M482.141,307.392v15.135
	c0,8.829-5.304,16.444-12.894,19.823v-15.135C469.247,318.386,474.551,310.771,482.141,307.392z M438.769,356.625
	c7.59,3.38,12.894,10.994,12.894,19.823v15.135c-7.59-3.379-12.894-10.994-12.894-19.823V356.625z M482.141,371.76
	c0,8.829-5.304,16.444-12.894,19.823v-15.135c0-8.829,5.304-16.444,12.894-19.823V371.76z M438.769,307.392
	c7.59,3.38,12.894,10.994,12.894,19.823v15.135c-7.59-3.38-12.894-10.994-12.894-19.823V307.392z M438.769,420.993v-15.135
	c7.59,3.38,12.894,10.994,12.894,19.823v15.135C444.074,437.438,438.769,429.823,438.769,420.993z M482.141,420.993
	c0,8.829-5.304,16.444-12.894,19.823v-15.135c0-8.829,5.304-16.444,12.894-19.823V420.993z"/>
<path d="M138.095,379.078v-70.814c0-4.855-3.935-8.792-8.792-8.792s-8.792,3.936-8.792,8.792v70.814
	c0,16.834-8.401,31.734-21.222,40.758V308.46c0-4.855-3.935-8.792-8.792-8.792s-8.792,3.936-8.792,8.792v119.195
	c-3.546,0.804-7.229,1.243-11.014,1.243c-3.785,0-7.468-0.438-11.014-1.243V308.46c0-4.855-3.935-8.792-8.792-8.792
	s-8.792,3.936-8.792,8.792v111.375c-12.822-9.023-21.222-23.923-21.222-40.758v-70.814c0-4.855-3.935-8.792-8.792-8.792
	s-8.792,3.936-8.792,8.792v70.814c0,34.184,25.586,62.486,58.611,66.811v57.322c0,4.855,3.935,8.792,8.792,8.792
	c4.857,0,8.792-3.936,8.792-8.792v-57.322C112.508,441.564,138.095,413.262,138.095,379.078z"/>
<g>
</g>
<g>
</g>
<g>
</g>
<g>
</g>
<g>
</g>
<g>
</g>
<g>
</g>
<g>
</g>
<g>
</g>
<g>
</g>
<g>
</g>
<g>
</g>
<g>
</g>
<g>
</g>
<g>
</g>
</svg>
