<?xml version="1.0" encoding="iso-8859-1"?>
<!-- Generator: Adobe Illustrator 19.0.0, SVG Export Plug-In . SVG Version: 6.00 Build 0)  -->
<svg version="1.1" id="Layer_1" xmlns="http://www.w3.org/2000/svg" xmlns:xlink="http://www.w3.org/1999/xlink" x="0px" y="0px"
	 viewBox="0 0 512.001 512.001" style="enable-background:new 0 0 512.001 512.001;" xml:space="preserve">
<rect x="107.518" y="110.304" transform="matrix(-0.4842 -0.875 0.875 -0.4842 142.5178 350.1219)" style="fill:#272F37;" width="133.888" height="45.495"/>
<path style="opacity:0.2;enable-background:new    ;" d="M161.96,63.461l-39.804,22.028l28.809,52.057
	c12.809-8.21,26.502-14.966,40.848-20.142L161.96,63.461z"/>
<path style="fill:#C39774;" d="M422.113,255.84c-18.671-71.847-83.767-124.974-161.349-125.438
	c-92.827-0.555-168.78,76.603-168.78,169.433v78.509c0,34.523-14.014,67.569-38.833,91.567l0,0
	c-5.853,5.66-3.565,15.515,4.182,18.018l18.761,6.061c69.487,22.449,145.658,6.83,200.701-41.156l0,0l-47.767-98.947l51.861-55.592
	C280.89,298.296,367.861,278.26,422.113,255.84z"/>
<path style="opacity:0.08;enable-background:new    ;" d="M74.234,462.847c24.819-23.998,38.833-57.044,38.833-91.567v-78.509
	c0-70.365,43.646-131.715,105.197-157.051c-72.429,18.906-126.279,85.953-126.279,164.116v78.509
	c0,34.523-14.014,67.569-38.833,91.567l0,0c-5.853,5.66-3.565,15.515,4.182,18.018l18.761,6.061
	c46.592,15.053,96.181,12.965,140.398-4.494c-38.554,10.637-80.004,10.13-119.316-2.57l-18.761-6.061
	C70.668,478.362,68.382,468.507,74.234,462.847L74.234,462.847z"/>
<g>
	<path style="opacity:0.2;fill:#FFFFFF;enable-background:new    ;" d="M260.764,130.402c-0.141-0.001-0.281,0.003-0.421,0.003
		c-0.496,3.276-0.755,6.631-0.755,10.046c0,36.78,29.816,66.596,66.596,66.596c21.724,0,41.014-10.406,53.17-26.502
		C349.143,149.821,307.192,130.679,260.764,130.402z"/>
	<circle style="opacity:0.2;fill:#FFFFFF;enable-background:new    ;" cx="219.284" cy="206.235" r="24.216"/>
</g>
<path style="opacity:0.08;enable-background:new    ;" d="M422.113,255.84c-6.65-25.589-19.192-48.799-36.087-68.106
	c-0.826,0.74-1.618,1.534-2.335,2.432l-51.379,64.395c-7.724,9.681-19.916,14.663-32.21,13.163L190.919,254.4
	c-12.696-1.549-24.022,8.042-24.585,20.82l-4.215,95.534c-0.601,13.624,4.565,26.872,14.231,36.493l68.7,68.377
	c11.16-6.523,21.802-14.119,31.746-22.789l0,0l-47.767-98.947l51.861-55.592C280.89,298.296,367.861,278.26,422.113,255.84z"/>
<path style="fill:#FDD05F;" d="M485.052,273.533l-69.839,54.239c-18.508,14.374-42.479,19.704-65.334,14.53l-48.243-10.923
	c-9.672-2.19-19.29,3.861-21.503,13.526l-5.988,26.149c-1.536,6.71-0.147,13.757,3.822,19.38l63.99,90.679
	c6.116,8.667-0.082,20.628-10.69,20.628h-27.821c-7.731,0-15.146-3.062-20.627-8.515l-86.383-85.978
	c-9.666-9.621-14.832-22.868-14.231-36.493l4.215-95.534c0.564-12.778,11.89-22.369,24.585-20.82l109.183,13.325
	c12.294,1.5,24.486-3.482,32.21-13.163l51.379-64.395c7.369-9.235,21.086-10.128,29.589-1.925l53.492,51.604
	C496.64,249.282,495.786,265.196,485.052,273.533z"/>
<path style="opacity:0.3;fill:#FFFFFF;enable-background:new    ;" d="M433.366,188.241c-8.504-8.203-22.22-7.31-29.589,1.925
	l-3.727,4.672c2.433,25.79,24.14,45.971,50.566,45.971c10.482,0,20.22-3.176,28.31-8.616L433.366,188.241z"/>
<path style="fill:#DE2A4E;" d="M76.425,182.279C116.546,119.29,185.019,81.685,259.588,81.685V18.698
	c0-6.093-5.069-10.96-11.157-10.727c-45.955,1.766-91.021,14.405-130.987,36.826c-38.596,21.651-72.009,52.101-97.203,88.482
	c-3.466,5.005-2.073,11.891,3.061,15.162L76.425,182.279z"/>
<path style="opacity:0.15;enable-background:new    ;" d="M109.158,137.693l-54.92-45.016c-3.77,3.757-7.437,7.617-10.998,11.576
	l55.822,45.755c0.479,0.393,0.997,0.695,1.529,0.959c3.429-3.702,6.963-7.283,10.617-10.716
	C110.724,139.294,110.041,138.417,109.158,137.693z M121.885,42.363c-1.486,0.799-2.968,1.608-4.442,2.434
	c-3.159,1.773-6.271,3.625-9.359,5.514l36.944,62.343c0.24,0.406,0.52,0.77,0.816,1.116c4.434-2.732,8.962-5.303,13.582-7.704
	c-0.176-0.523-0.406-1.036-0.699-1.53L121.885,42.363z M222.563,84.829l-13.75-72.59c-0.001-0.004-0.002-0.008-0.003-0.014
	c-5.231,0.926-10.435,1.987-15.602,3.196l13.708,72.373c0.02,0.105,0.049,0.205,0.073,0.309c5.134-1.273,10.329-2.357,15.576-3.256
	C222.564,84.841,222.564,84.834,222.563,84.829z"/>
<path style="fill:#272F37;" d="M90.63,181.452c36.945-53.229,95.983-85.658,160.628-88.229c4.66-0.186,8.329-4.043,8.329-8.705
	V70.31c-78.476,0-150.535,39.574-192.756,105.858l11.982,7.632C82.747,186.306,87.972,185.283,90.63,181.452z"/>
<path d="M492.386,234.114l-53.492-51.603c-5.663-5.462-13.413-8.295-21.265-7.792c-7.852,0.511-15.17,4.331-20.078,10.482
	l-1.58,1.98c-14.946-18.302-33.596-33.602-54.449-44.588c-24.707-13.017-52.617-19.985-80.712-20.153
	c-18.114-0.091-35.849,2.617-52.737,7.908l-10.746-19.418c17.266-5.67,35.474-9.005,54.245-9.752
	c8.958-0.356,15.974-7.675,15.974-16.661V18.698c0-5.128-2.035-9.91-5.731-13.468c-3.7-3.56-8.557-5.41-13.694-5.216
	c-47.141,1.811-93.677,14.895-134.576,37.839C74.065,60.001,39.536,91.43,13.694,128.745c-2.92,4.216-3.969,9.306-2.956,14.335
	c1.015,5.031,3.957,9.319,8.284,12.076l43.525,27.725c0.001,0.001,0.003,0.002,0.004,0.003l11.982,7.632
	c2.794,1.779,5.909,2.634,8.985,2.634c5.269,0,10.423-2.507,13.652-7.158c12.762-18.388,28.169-34.136,45.539-46.917l10.929,19.749
	c-5.87,4.54-11.505,9.475-16.866,14.805c-34.017,33.814-52.751,78.635-52.751,126.206v78.51c0,32.184-13.269,63.472-36.406,85.843
	c-4.777,4.62-6.733,11.244-5.23,17.718c1.503,6.474,6.176,11.558,12.499,13.601l18.761,6.061
	c21.43,6.924,44.004,10.435,66.556,10.434c10.371,0,20.742-0.743,30.988-2.238c30.144-4.397,59.426-15.326,85.105-31.704
	l20.905,20.807c7.02,6.987,16.34,10.835,26.244,10.835h27.821c7.894,0,15.054-4.354,18.686-11.362
	c3.632-7.009,3.061-15.369-1.491-21.819l-63.99-90.679c-2.662-3.771-3.597-8.514-2.567-13.012l5.989-26.149
	c1.23-5.374,6.608-8.76,11.984-7.539l48.243,10.924c25.273,5.724,51.509-0.111,71.976-16.006l69.84-54.239
	c6.942-5.391,11.193-13.517,11.663-22.293C502.07,248.751,498.712,240.218,492.386,234.114z M64.509,165.248l-36.93-23.523
	c-0.866-0.552-1.141-1.359-1.228-1.792c-0.087-0.431-0.147-1.28,0.436-2.121c24.472-35.337,57.167-65.1,94.553-86.07
	c38.709-21.716,82.763-34.1,127.396-35.813c1.044-0.034,1.722,0.469,2.04,0.776c0.317,0.305,0.849,0.97,0.849,1.993v43.787
	C176.164,64.98,107.201,102.854,64.509,165.248z M84.09,176.912c-0.216,0.309-0.662,0.385-0.999,0.173l-2.389-1.522l0,0
	l-1.441-0.917l-1.319-0.84c39.742-57.786,103.692-92.909,173.682-95.391v6.103c0,0.398-0.306,0.734-0.683,0.75
	c-32.944,1.311-65.524,10.334-94.218,26.096C128.032,127.122,102.915,149.789,84.09,176.912z M192.936,135.88
	c-9.067,3.805-17.827,8.39-26.197,13.729l-10.778-19.475c8.405-5.179,17.191-9.705,26.295-13.553L192.936,135.88z M168.893,494.006
	c-30.131,4.396-61.373,1.771-90.351-7.592l-18.761-6.062c-1.324-0.428-1.747-1.467-1.882-2.049s-0.212-1.702,0.788-2.669
	c26.221-25.354,41.261-60.816,41.261-97.292v-78.51c0-43.299,17.066-84.109,48.054-114.912
	c30.229-30.05,69.885-46.561,111.764-46.561c0.317,0,0.637,0.001,0.953,0.003c25.917,0.155,50.607,6.318,73.386,18.317
	c19.985,10.529,37.739,25.423,51.68,43.271l-39.609,49.643c-5.955,7.463-15.546,11.379-25.021,10.225l-109.183-13.324
	c-8.245-1.005-16.612,1.496-22.953,6.865c-6.34,5.369-10.186,13.209-10.552,21.508l-4.215,95.534
	c-0.699,15.826,5.34,31.312,16.569,42.487l53.882,53.629C221.65,480.64,195.641,490.104,168.893,494.006z M480.168,267.245
	l-69.84,54.239c-16.69,12.962-38.083,17.72-58.692,13.052l-48.243-10.924c-13.922-3.152-27.837,5.603-31.023,19.515l-5.989,26.149
	c-2.038,8.903-0.187,18.288,5.078,25.749l63.99,90.679c1.621,2.297,0.794,4.478,0.363,5.309c-0.431,0.831-1.736,2.764-4.547,2.764
	h-27.821c-5.665,0-10.995-2.201-15.009-6.197l-86.384-85.978c-8.06-8.022-12.395-19.137-11.894-30.498l4.215-95.534
	c0.174-3.939,1.926-7.51,4.934-10.057c2.56-2.168,5.701-3.315,8.992-3.315c0.576,0,1.157,0.035,1.741,0.106l109.183,13.324
	c14.929,1.824,30.021-4.348,39.398-16.101l51.38-64.395c2.148-2.693,5.224-4.299,8.662-4.523c3.44-0.23,6.696,0.97,9.175,3.362
	l53.492,51.603c2.999,2.893,4.592,6.94,4.368,11.1C485.474,260.836,483.459,264.689,480.168,267.245z"/>
<g>
</g>
<g>
</g>
<g>
</g>
<g>
</g>
<g>
</g>
<g>
</g>
<g>
</g>
<g>
</g>
<g>
</g>
<g>
</g>
<g>
</g>
<g>
</g>
<g>
</g>
<g>
</g>
<g>
</g>
</svg>
