<?xml version="1.0" encoding="iso-8859-1"?>
<!-- Generator: Adobe Illustrator 19.0.0, SVG Export Plug-In . SVG Version: 6.00 Build 0)  -->
<svg version="1.1" id="Capa_1" xmlns="http://www.w3.org/2000/svg" xmlns:xlink="http://www.w3.org/1999/xlink" x="0px" y="0px"
	 viewBox="0 0 512.004 512.004" style="enable-background:new 0 0 512.004 512.004;" xml:space="preserve">
<g>
	<path style="fill:#F8E4D3;" d="M353.692,226.278c0,0,7.298-37.577,55.007-34.896s72.15,3,87.021-2.495s13.032,37.665-22.562,41.468
		s-85.674-12.993-115.661,2.468C357.497,232.823,350.934,234.094,353.692,226.278z"/>
	<path style="fill:#F8E4D3;" d="M158.312,226.278c0,0-7.298-37.577-55.007-34.896s-72.15,3-87.021-2.495
		s-13.032,37.665,22.562,41.468s85.674-12.993,115.661,2.468C154.507,232.823,161.07,234.094,158.312,226.278z"/>
</g>
<g>
	<path style="fill:#E8C5A7;" d="M332.18,255.215c0,0,8.957-37.207,56.499-32.353c47.542,4.853,71.944,6.286,87.044,1.473
		c15.1-4.812,11.348,38.221-24.378,40.397c-35.727,2.177-85.011-16.885-115.653-2.806
		C335.691,261.927,329.078,262.898,332.18,255.215z"/>
	<path style="fill:#E8C5A7;" d="M182.596,255.215c0,0-8.957-37.207-56.499-32.353c-47.542,4.853-71.944,6.286-87.044,1.473
		c-15.1-4.812-11.348,38.221,24.378,40.397c35.727,2.177,85.011-16.885,115.653-2.806
		C179.085,261.927,185.698,262.898,182.596,255.215z"/>
</g>
<g>
	<path style="fill:#F8E4D3;" d="M209.034,281.058c0,0-11.322-36.538-58.452-28.564c-47.131,7.974-71.389,11.01-86.766,7.203
		c-15.376-3.807-8.876,38.887,26.915,38.707c35.791-0.181,83.75-22.448,115.229-10.416
		C205.961,287.987,212.622,288.521,209.034,281.058z"/>
	<path style="fill:#F8E4D3;" d="M305.742,281.058c0,0,11.322-36.538,58.452-28.564c47.131,7.974,71.389,11.01,86.766,7.203
		c15.376-3.807,8.876,38.887-26.915,38.707c-35.791-0.181-83.75-22.448-115.229-10.416
		C308.815,287.987,302.154,288.521,305.742,281.058z"/>
</g>
<path style="fill:#E9937C;" d="M257.509,435.477c-36.725,0-21.67,68.992-44.74,69.021c-20.623,0.026-29.781-65.463-37.945-110.154
	c-22.166-121.325,18.145-178.848,82.429-178.848s104.892,57.523,82.726,178.848c-8.165,44.691-17.323,110.18-37.946,110.154
	C278.964,504.469,294.234,435.477,257.509,435.477z"/>
<path style="fill:#CF7D68;" d="M257.253,215.496c-5.235,0-10.307,0.389-15.204,1.155c55.269,8.644,87.878,66.248,67.517,177.693
	c-5.514,30.181-11.482,69.842-21.127,92.41c2.512,10.142,5.945,17.734,13.594,17.744c20.623,0.026,29.781-65.463,37.946-110.154
	C362.145,273.019,321.537,215.496,257.253,215.496z"/>
<path style="fill:#B11E48;" d="M256.256,271.563c0.555,0.776,1.708,0.776,2.263,0c4.482-6.268,22.26-28.03,53.065-28.03
	c32.084,0,54.196,30.491,54.196,66c0,41.101-30.142,89.733-108.392,132c-78.251-42.267-108.392-90.899-108.392-132
	c0-35.509,22.112-66,54.196-66C233.996,243.533,251.775,265.295,256.256,271.563z"/>
<path style="fill:#8F193A;" d="M311.584,243.533c-5.761,0-11.066,0.762-15.914,2.041c24.384,7.372,40.277,33.858,40.277,63.959
	c0,38.379-26.287,83.322-93.476,123.52c4.766,2.852,9.733,5.68,14.916,8.48c78.251-42.267,108.392-90.898,108.392-132
	C365.78,274.023,343.668,243.533,311.584,243.533z"/>
<path style="fill:#E9937C;" d="M353.847,135.887c0,53.848-31.418,92.5-96.459,92.5s-96.459-38.652-96.459-92.5
	s16.408-102.5,96.459-102.5S353.847,82.04,353.847,135.887z"/>
<path style="fill:#CF7D68;" d="M257.388,33.387c-5.289,0-10.293,0.218-15.041,0.631c67.099,5.827,81.418,51.58,81.418,101.869
	c0,49.51-26.584,86.148-81.418,91.733c4.804,0.49,9.801,0.767,15.041,0.767c65.04,0,96.459-38.652,96.459-92.5
	C353.847,82.04,337.439,33.387,257.388,33.387z"/>
<path style="fill:#77433F;" d="M366.725,88.887c0-7.508-4.483-13.947-10.897-16.802c-0.723-0.322-1.146-1.065-1.141-1.86
	c0-0.02,0-0.039,0-0.059c0-8.766-6.1-16.095-14.264-17.938c-1.114-0.251-1.78-1.409-1.439-2.504
	c1.73-5.557,0.933-12.229-4.115-18.822c-0.123-0.161-0.274-0.309-0.438-0.429c-7.7-5.658-15.606-5.618-21.553-2.383
	c-1.059,0.576-2.379,0.094-2.794-1.043c-2.567-7.031-9.275-12.049-17.157-12.049c-4.956,0-9.447,1.986-12.738,5.207
	c-1.017,0.995-2.71,0.587-3.206-0.75c-2.838-7.649-10.58-12.889-19.392-11.819c-0.112,0-0.295,0-0.407,0
	c-8.812-1.071-16.553,4.17-19.392,11.819c-0.496,1.337-2.189,1.745-3.206,0.75c-3.29-3.221-7.781-5.207-12.737-5.207
	c-7.882,0-14.59,5.018-17.159,12.048c-0.415,1.137-1.735,1.619-2.794,1.043c-5.947-3.235-13.853-3.274-21.553,2.384
	c-0.163,0.12-0.314,0.268-0.438,0.429c-5.048,6.593-5.845,13.264-4.115,18.822c0.341,1.095-0.325,2.253-1.439,2.504
	c-8.164,1.843-14.264,9.172-14.264,17.938c0,0.02,0,0.039,0,0.059c0.005,0.795-0.418,1.538-1.141,1.86
	c-6.414,2.855-10.897,9.294-10.897,16.802c0,6.241,3.097,11.749,7.826,15.071c0.808,0.568,1.084,1.623,0.654,2.514
	c-2.883,5.983-2.678,13.741,3.052,21.32c0.124,0.163,0.275,0.314,0.44,0.435c14.969,11.037,31.26,0.537,31.26-13.789
	c0-0.605-0.03-1.203-0.088-1.793c-0.144-1.46,1.327-2.563,2.679-2.013c5.775,2.348,13.011,1.818,19.984-3.411
	c0.168-0.126,0.322-0.281,0.447-0.45c6.782-9.193,5.576-18.799,0.425-24.976c-0.819-0.982-0.499-2.452,0.633-3.04
	c3.528-1.834,6.382-4.789,8.101-8.399c0.601-1.261,2.284-1.512,3.22-0.478c3.34,3.689,8.144,6.009,13.497,6.009
	c6.569,0,12.315-3.489,15.535-8.721c0.771-1.253,2.575-1.253,3.347,0c3.22,5.232,8.966,8.721,15.535,8.721
	c5.353,0,10.157-2.32,13.497-6.009c0.936-1.034,2.619-0.783,3.22,0.478c1.719,3.61,4.573,6.565,8.101,8.399
	c1.132,0.588,1.451,2.059,0.633,3.04c-5.151,6.177-6.357,15.783,0.425,24.976c0.125,0.169,0.279,0.325,0.447,0.45
	c6.971,5.227,14.206,5.759,19.98,3.412c1.386-0.563,2.815,0.6,2.675,2.096c-0.446,4.754,0.935,10.046,5.109,15.309
	c0.123,0.156,0.273,0.299,0.434,0.414c14.883,10.667,30.95,0.214,30.95-14.014c0-2.852-0.657-5.544-1.814-7.95
	c-0.432-0.898-0.164-1.961,0.65-2.533C363.629,100.633,366.725,95.127,366.725,88.887z"/>
<g>
	<path style="fill:#633532;" d="M251.041,7.918c-0.305,0.066-0.605,0.148-0.904,0.23C250.446,8.148,250.755,8.072,251.041,7.918z"/>
	<path style="fill:#633532;" d="M358.903,103.956c4.727-3.323,7.823-8.829,7.823-15.069c0-7.508-4.483-13.947-10.897-16.802
		c-0.723-0.322-1.146-1.065-1.141-1.86c0-0.02,0-0.039,0-0.059c0-8.766-6.1-16.095-14.264-17.938
		c-1.114-0.251-1.78-1.409-1.439-2.504c1.73-5.558,0.933-12.229-4.115-18.822c-0.123-0.161-0.274-0.309-0.438-0.429
		c-7.7-5.658-15.606-5.618-21.553-2.383c-0.724,0.394-1.563,0.284-2.158-0.182c0.659,3.253,0.439,6.376-0.443,9.208
		c-0.341,1.095,0.325,2.253,1.439,2.504c8.164,1.843,14.264,9.172,14.264,17.938c0,0.02,0,0.039,0,0.059
		c-0.005,0.795,0.418,1.538,1.141,1.86c6.414,2.855,10.897,9.294,10.897,16.802c0,6.24-3.096,11.746-7.823,15.069
		c-0.813,0.572-1.082,1.635-0.65,2.533c1.156,2.406,1.814,5.098,1.814,7.95c0,6.19-3.043,11.664-7.706,14.997
		c0.469,3.611,2.02,7.417,5.028,11.211c0.123,0.156,0.273,0.299,0.434,0.414c14.883,10.667,30.95,0.214,30.95-14.014
		c0-2.852-0.657-5.544-1.814-7.95C357.821,105.591,358.089,104.528,358.903,103.956z"/>
</g>
<path style="fill:#F8E4D3;" d="M164.92,311.473c0,17.121-9.189,31-26.374,31s-33.434-19.764-29.811-36.5
	c3.376-15.591,12.626-25.5,29.811-25.5S164.92,294.352,164.92,311.473z"/>
<g>
	<path style="fill:#E9937C;" d="M164.92,311.473c0,17.121-9.189,31-26.374,31s-33.434-19.764-29.811-36.5
		c3.376-15.591,12.626-25.5,29.811-25.5S164.92,294.352,164.92,311.473z"/>
	<path style="fill:#E9937C;" d="M349.856,311.473c0,17.121,9.189,31,26.374,31s33.434-19.764,29.811-36.5
		c-3.376-15.591-12.626-25.5-29.811-25.5S349.856,294.352,349.856,311.473z"/>
</g>
<path d="M510.619,190.142c-2.874-7.625-10.063-11.036-17.477-8.291c-13.54,4.998-37.879,4.638-84.006,2.038
	c-27.704-1.558-43.3,9.497-51.507,19.044c-7.987,9.29-10.577,18.751-11.165,21.333c-7.002,4.596-11.868,10.181-15.199,15.32
	c-1.884-0.71-3.808-1.323-5.772-1.824c-4.223-4.933-8.892-9.285-13.969-13.031c17.828-8.717,28.873-21.199,35.645-32.461
	c2.135-3.55,0.987-8.158-2.563-10.292c-3.549-2.135-8.158-0.988-10.293,2.563c-14.299,23.779-40.895,36.348-76.914,36.348
	c-55.109,0-87.294-29.448-88.885-80.964c1.516,0.262,3.036,0.396,4.549,0.396c3.967,0,7.882-0.906,11.521-2.744
	c7.274-3.673,12.26-10.404,13.746-18.214c6.789,0.63,13.807-1.469,20.044-6.145c0.749-0.563,1.411-1.23,1.976-1.994
	c6.847-9.281,8.006-20.202,3.462-29.205c0.938-0.814,1.818-1.695,2.632-2.635c4.081,2.587,8.848,4.003,13.746,4.003
	c6.483,0,12.552-2.389,17.209-6.605c4.656,4.217,10.726,6.605,17.208,6.605c4.898,0,9.665-1.417,13.746-4.003
	c0.813,0.939,1.693,1.82,2.632,2.634c-4.544,9.002-3.386,19.922,3.452,29.192c0.56,0.762,1.228,1.438,1.993,2.012
	c6.233,4.674,13.251,6.771,20.042,6.139c0.887,4.633,3.023,9.15,6.337,13.326c0.561,0.711,1.22,1.338,1.95,1.861
	c6.694,4.798,14.342,6.635,21.517,5.38c-0.179,5.612-0.714,11.05-1.634,16.196c-0.729,4.078,1.985,7.974,6.063,8.703
	c0.446,0.08,0.891,0.119,1.329,0.119c3.564,0,6.725-2.55,7.374-6.181c1.295-7.244,1.952-14.94,1.952-22.877
	c0-1.459-0.018-2.983-0.044-4.533c3.976-4.614,6.264-10.563,6.264-16.916c0-2.446-0.337-4.838-1.005-7.15
	c4.857-4.824,7.663-11.441,7.663-18.402c0-9.036-4.708-17.34-12.241-22.01c-1.112-8.941-6.715-16.538-14.773-20.231
	c0.647-6.924-1.539-13.972-6.381-20.296c-0.556-0.728-1.212-1.372-1.958-1.921c-7.586-5.575-16.333-7.334-24.296-5.084
	c-4.685-7.255-12.818-11.846-21.651-11.846c-4.341,0-8.529,1.077-12.252,3.103c-5.269-7.252-14.037-11.361-23.287-10.485
	c-9.252-0.874-18.019,3.232-23.287,10.486c-3.724-2.026-7.912-3.104-12.252-3.104c-8.834,0-16.967,4.59-21.652,11.846
	c-7.962-2.25-16.708-0.491-24.291,5.082c-0.743,0.545-1.403,1.192-1.957,1.917c-4.847,6.331-7.034,13.379-6.387,20.303
	c-8.058,3.694-13.66,11.291-14.773,20.232c-7.533,4.671-12.241,12.975-12.241,22.009c0,6.958,2.803,13.572,7.658,18.396
	c-2.397,8.188-0.573,17.017,5.248,24.832c-0.018,1.216-0.027,2.467-0.027,3.773c0,29.47,8.98,54.256,25.968,71.68
	c6.744,6.917,14.731,12.615,23.806,17.043c-5.144,3.786-9.87,8.197-14.138,13.208c-1.882,0.489-3.726,1.085-5.535,1.767
	c-3.871-5.98-9.742-12.45-18.505-17.317c-1.158-3.952-4.073-11.698-10.638-19.334c-8.207-9.546-23.807-20.591-51.508-19.044
	c-11.507,0.649-20.438,1.09-28.105,1.387c-4.139,0.16-7.364,3.646-7.203,7.785c0.16,4.139,3.666,7.366,7.785,7.204
	c7.757-0.301,16.771-0.745,28.366-1.399c23.567-1.327,35.626,8.348,41.636,16.854c-6.229-0.935-12.917-1.048-20.026-0.323
	c-45.976,4.7-70.273,6.167-84.007,1.794c-4.659-1.482-8.224-0.434-10.391,0.708c-0.883,0.465-1.693,1.037-2.439,1.692
	c-7.856-4.187-11.087-11.01-12.19-14.116c-1.443-4.064-1.436-7.272-1.132-9.026c7.082,2.368,15.98,3.685,27.807,4.127
	c4.17,0.175,7.621-3.075,7.775-7.214c0.154-4.139-3.075-7.62-7.215-7.775c-11.042-0.413-18.88-1.6-24.661-3.733
	c-4.831-1.787-9.679-1.021-13.296,2.105c-4.972,4.297-6.772,12.365-4.816,21.582c2.104,9.92,9.079,21.872,22.427,28.186
	c0.061,5.746,1.86,12.128,5.193,17.895c4.609,7.974,11.629,13.999,20.146,17.419c0.152,4.264,1.317,8.928,3.522,13.541
	c6.99,14.621,21.355,23.328,38.458,23.327c0.084,0,0.17,0,0.254,0c3.243-0.015,6.715-0.202,10.465-0.564
	c-1.761,9.728,1.404,20.737,8.601,29.657c7.563,9.376,18.297,14.973,28.715,14.973c3.924,0,7.595-0.587,10.97-1.69
	c3.663,8.883,8.549,17.63,14.601,26.198c0.903,6.925,2.013,14.047,3.326,21.215c0.848,4.641,1.706,9.506,2.588,14.5
	c0.764,4.331,1.545,8.757,2.351,13.216c0.655,3.625,3.814,6.168,7.372,6.168c0.442,0,0.892-0.04,1.342-0.121
	c4.076-0.736,6.784-4.638,6.048-8.714c-0.802-4.439-1.58-8.845-2.341-13.156c-0.652-3.697-1.292-7.322-1.925-10.841
	c14.152,14.369,31.772,28.056,52.603,40.818c-8.464,9.503-11.49,24.327-14.045,36.877c-1.938,9.517-4.593,22.55-8.676,22.556
	c-0.001,0-0.002,0-0.003,0c-1.533,0-9.636-2.16-19.306-44.587c-0.921-4.039-4.937-6.567-8.98-5.646
	c-4.038,0.92-6.566,4.94-5.646,8.979c6.341,27.82,15.328,56.254,33.929,56.254c0.008,0,0.019,0,0.026,0
	c16.319-0.023,20.056-18.373,23.353-34.562c2.552-12.529,5.412-26.547,12.858-31.967c1.597,0.891,3.205,1.777,4.835,2.657
	c1.112,0.601,2.338,0.901,3.564,0.901c1.227,0,2.452-0.3,3.565-0.901c1.672-0.903,3.323-1.813,4.96-2.727
	c7.494,5.363,10.323,19.439,12.846,32.016c3.249,16.199,6.933,34.56,23.269,34.583c0.009,0,0.018,0,0.026,0
	c15.934,0,24.132-21.101,28.913-36.977c5.705-18.944,10.006-43.32,13.801-64.827c0.881-4.993,1.739-9.858,2.587-14.496
	c1.313-7.174,2.423-14.305,3.327-21.244c6.043-8.559,10.922-17.297,14.581-26.17c3.375,1.103,7.046,1.69,10.97,1.69
	c10.418,0,21.153-5.598,28.716-14.974c7.195-8.92,10.361-19.928,8.599-29.656c3.75,0.363,7.22,0.55,10.461,0.565
	c0.086,0,0.169,0,0.254,0c17.106,0,31.473-8.707,38.462-23.327c2.204-4.61,3.368-9.271,3.522-13.533
	c9.068-3.627,16.378-10.174,20.956-18.905c3.096-5.903,4.599-12.254,4.369-17.846C509.312,222.231,514.932,201.588,510.619,190.142z
	 M162.013,78.934c3.417-1.523,5.609-4.96,5.586-8.769c0-5.054,3.539-9.522,8.417-10.622c2.564-0.58,4.79-2.219,6.106-4.499
	c1.318-2.283,1.625-5.035,0.842-7.551c-1.132-3.634-0.284-7.565,2.454-11.418c4.444-3.021,9.004-3.521,12.907-1.398
	c2.43,1.321,5.304,1.518,7.885,0.543c2.574-0.973,4.593-3.015,5.537-5.602c1.556-4.26,5.62-7.122,10.114-7.122
	c2.81,0,5.471,1.09,7.492,3.067c2.292,2.245,5.53,3.162,8.661,2.464c3.148-0.705,5.697-2.935,6.821-5.963
	c1.752-4.719,6.456-7.595,11.456-6.983c0.3,0.037,0.602,0.055,0.904,0.055h0.407c0.303,0,0.604-0.018,0.904-0.055
	c4.983-0.611,9.705,2.264,11.456,6.983c1.123,3.028,3.673,5.257,6.819,5.963c3.127,0.701,6.367-0.217,8.664-2.463
	c2.021-1.978,4.682-3.067,7.492-3.067c4.493,0,8.558,2.862,10.113,7.12c0.945,2.588,2.964,4.631,5.539,5.604
	c2.583,0.976,5.456,0.776,7.883-0.544c3.907-2.125,8.469-1.621,12.907,1.397c2.737,3.849,3.587,7.783,2.457,11.414
	c-0.785,2.516-0.48,5.269,0.837,7.553c1.316,2.282,3.543,3.923,6.109,4.502c4.876,1.101,8.415,5.568,8.415,10.635
	c-0.023,3.797,2.171,7.235,5.592,8.758c3.916,1.743,6.446,5.648,6.446,9.95c0,3.553-1.733,6.893-4.635,8.934
	c-3.822,2.686-5.125,7.698-3.097,11.92c0.712,1.48,1.073,3.062,1.073,4.699c0,4.122-2.264,7.844-5.907,9.716
	c-3.822,1.962-8.257,1.473-12.561-1.375c-2.319-3.132-3.348-6.274-3.06-9.348c0.312-3.314-1.147-6.602-3.808-8.58
	c-2.66-1.979-6.086-2.415-9.157-1.167c-3.728,1.513-7.971,0.798-12.022-2.005c-3.621-5.315-3.729-10.908-0.245-15.083
	c1.845-2.214,2.578-5.104,2.01-7.928c-0.569-2.837-2.372-5.231-4.944-6.568c-2.077-1.08-3.778-2.845-4.79-4.969
	c-1.36-2.857-4.041-4.837-7.17-5.296c-3.125-0.458-6.26,0.666-8.381,3.009c-2.068,2.285-4.888,3.543-7.938,3.543
	c-3.743,0-7.162-1.926-9.149-5.152c-1.737-2.823-4.751-4.509-8.06-4.509c-3.31,0-6.323,1.686-8.062,4.509
	c-1.985,3.226-5.404,5.152-9.148,5.152c-3.05,0-5.869-1.258-7.938-3.543c-2.123-2.343-5.254-3.466-8.381-3.009
	c-3.129,0.459-5.81,2.439-7.169,5.295c-1.013,2.125-2.714,3.891-4.79,4.97c-2.574,1.337-4.377,3.733-4.946,6.571
	c-0.566,2.825,0.168,5.715,2.014,7.928c3.481,4.175,3.372,9.771-0.246,15.08c-4.056,2.805-8.298,3.52-12.026,2.006
	c-3.086-1.254-6.528-0.812-9.208,1.188c-2.681,2.002-4.087,5.183-3.759,8.516c0.033,0.341,0.051,0.694,0.051,1.051
	c0,4.153-2.288,7.888-5.971,9.749c-3.881,1.959-8.365,1.406-12.705-1.548c-3.076-4.394-3.727-8.954-1.82-12.911
	c2.03-4.211,0.727-9.219-3.098-11.906c-2.904-2.042-4.639-5.382-4.639-8.936C155.56,84.585,158.091,80.679,162.013,78.934z
	 M257.4,235.888c13.996,0,26.042-1.697,36.433-4.545c2.972,1.547,5.812,3.313,8.516,5.288c-22.156,2.899-37.14,15.718-44.949,24.412
	c-7.834-8.719-22.884-21.586-45.145-24.436c2.743-2.008,5.627-3.798,8.647-5.36C231.986,234.315,244.212,235.888,257.4,235.888z
	 M41.383,244.115c-2.897-5.011-3.438-9.654-3.087-12.175c16.366,4.668,40.988,3.243,88.57-1.621
	c11.128-1.138,20.756,0.169,28.611,3.879c5.6,2.647,9.722,6.217,12.745,9.843c-5.947-0.398-12.259-0.057-18.875,1.061
	c-45.603,7.71-69.761,10.772-83.721,7.315c-4.447-1.102-8.741-0.146-11.903,2.546C47.253,252.267,43.486,247.753,41.383,244.115z
	 M90.703,290.908c-14.171,0.054-21.051-7.856-23.913-12.588c-2.802-4.631-3.419-8.805-3.267-10.994
	c16.613,3.591,41.101,0.551,88.322-7.434c1.985-0.335,3.928-0.587,5.826-0.758c-3.481,4.524-6.499,9.637-8.969,15.274
	c-3.147-0.936-6.539-1.436-10.146-1.436c-14.066,0-24.837,5.766-31.411,16.536C100.867,290.423,95.455,290.886,90.703,290.908z
	 M121.516,325.582c-4.612-5.718-6.647-12.455-5.441-18.022c2.894-13.363,10.037-19.587,22.482-19.587
	c13.915,0,18.873,12.139,18.873,23.5s-4.958,23.5-18.873,23.5C132.718,334.973,126.188,331.375,121.516,325.582z M162.405,340.097
	c6.354-6.774,10.025-16.678,10.025-28.625c0-12.365-3.929-22.547-10.701-29.329c7.858-19.32,23.389-31.116,41.474-31.116
	c27.064,0,42.788,19.053,46.96,24.888c1.665,2.333,4.37,3.726,7.234,3.728c0.001,0,0.002,0,0.004,0c2.863,0,5.567-1.392,7.235-3.724
	c4.174-5.839,19.896-24.892,46.962-24.892c18.085,0,33.617,11.797,41.474,31.117c-6.772,6.782-10.701,16.964-10.701,29.329
	c0,11.946,3.67,21.85,10.025,28.624c-9.367,24.482-33.649,58.953-94.995,92.884C196.056,399.051,171.772,364.58,162.405,340.097z
	 M330.008,407.587c-3.723,21.098-7.942,45.012-13.392,63.109c-7.696,25.558-13.868,26.302-14.554,26.302h-0.001
	c-4.064-0.006-6.676-13.026-8.583-22.533c-2.528-12.602-5.521-27.487-14.026-36.986c20.781-12.744,38.36-26.41,52.484-40.755
	C331.303,400.249,330.661,403.883,330.008,407.587z M393.285,325.582c-4.673,5.793-11.202,9.391-17.04,9.391
	c-13.916,0-18.874-12.139-18.874-23.5s4.958-23.5,18.874-23.5c12.444,0,19.587,6.224,22.481,19.587
	C399.931,313.127,397.897,319.864,393.285,325.582z M448.01,278.32c-2.851,4.711-9.714,12.588-23.729,12.588
	c-0.063,0-0.127,0-0.188,0c-4.747-0.021-10.159-0.484-16.438-1.399c-6.573-10.769-17.344-16.536-31.41-16.536
	c-3.608,0-7,0.499-10.147,1.436c-2.47-5.637-5.488-10.75-8.969-15.274c1.898,0.171,3.84,0.423,5.825,0.759
	c47.223,7.984,71.709,11.024,88.323,7.434C451.429,269.515,450.813,273.689,448.01,278.32z M473.931,243.177
	c-1.726,3.292-5.542,8.699-12.867,11.775c-3.161-2.682-7.451-3.633-11.887-2.535c-13.958,3.458-38.117,0.396-83.724-7.315
	c-6.616-1.118-12.928-1.46-18.875-1.062c2.53-3.033,5.849-6.05,10.181-8.51c8.319-4.722,18.813-6.474,31.176-5.212
	c47.592,4.866,72.216,6.29,88.579,1.619C476.841,234.341,476.303,238.654,473.931,243.177z M495.999,204.623
	c-0.941,2.987-3.752,9.595-10.88,14.055c-3.228-2.232-7.354-2.855-11.655-1.487c-13.735,4.374-38.031,2.905-84.006-1.794
	c-8.327-0.85-16.062-0.548-23.16,0.875c0.791-1.171,1.68-2.367,2.705-3.56c8.736-10.162,21.961-14.819,39.29-13.846
	c47.736,2.691,72.396,2.992,88.56-2.42C497.137,198.057,497.169,200.912,495.999,204.623z"/>
<path d="M220.464,189.984c6.972,5.682,20.285,12.339,36.005,12.339c10.903,0,22.966-3.205,34.867-12.16
	c3.31-2.491,3.974-7.193,1.483-10.502c-2.491-3.31-7.193-3.974-10.503-1.483c-26.759,20.135-51.299,1.038-52.397,0.162
	c-3.21-2.598-7.919-2.111-10.53,1.093C216.772,182.643,217.254,187.367,220.464,189.984z"/>
<path d="M299.232,147.622c5.885,0.622,10.138,2.395,10.275,2.452c0.971,0.421,1.982,0.62,2.978,0.62
	c2.888,0,5.641-1.678,6.873-4.492c1.663-3.794-0.065-8.217-3.859-9.879c-0.636-0.278-6.451-2.748-14.691-3.618
	c-7.582-0.8-15.608,0.396-15.946,0.447c-4.092,0.621-6.902,4.439-6.286,8.531c0.617,4.093,4.435,6.908,8.529,6.3
	C287.169,147.974,293.607,147.029,299.232,147.622z"/>
<path d="M233.457,141.694c0.622-4.095-2.194-7.919-6.289-8.541c-0.338-0.051-8.362-1.248-15.946-0.447
	c-8.238,0.87-14.054,3.339-14.69,3.618c-3.781,1.657-5.496,6.051-3.857,9.84c1.224,2.829,3.991,4.518,6.896,4.518
	c0.986,0,1.988-0.195,2.95-0.605c0.043-0.018,4.325-1.825,10.277-2.454c5.624-0.593,12.064,0.352,12.119,0.36
	C229.005,148.606,232.835,145.789,233.457,141.694z"/>
<g>
</g>
<g>
</g>
<g>
</g>
<g>
</g>
<g>
</g>
<g>
</g>
<g>
</g>
<g>
</g>
<g>
</g>
<g>
</g>
<g>
</g>
<g>
</g>
<g>
</g>
<g>
</g>
<g>
</g>
</svg>
