<?xml version="1.0" encoding="iso-8859-1"?>
<!-- Generator: Adobe Illustrator 21.0.0, SVG Export Plug-In . SVG Version: 6.00 Build 0)  -->
<svg xmlns="http://www.w3.org/2000/svg" xmlns:xlink="http://www.w3.org/1999/xlink" version="1.1" id="Capa_1" x="0px" y="0px" viewBox="0 0 512.027 512.027" style="enable-background:new 0 0 512.027 512.027;" xml:space="preserve" width="512" height="512">
<g>
	<path style="fill:#FFCA28;" d="M503.755,154.242c0,16.474-13.355,29.828-29.828,29.828s-29.828-13.355-29.828-29.828   s26.075-52.8,29.828-52.8S503.755,137.768,503.755,154.242z"/>
	<path style="fill:#FFA000;" d="M473.927,101.442c-0.95,0-3.334,2.334-6.36,6.079c7.902,11.84,16.188,27.434,16.188,36.721   c0,16.474-13.355,29.828-29.828,29.828c-0.797,0-1.584-0.041-2.365-0.102c5.466,6.192,13.457,10.102,22.365,10.102   c16.474,0,29.828-13.354,29.828-29.828C503.755,137.768,477.68,101.442,473.927,101.442z"/>
	<path style="fill:#90CAF9;" d="M385.989,182.521l-55.726-55.726c-6.466-6.466-16.95-6.466-23.417,0L115.742,317.899l79.143,79.143   l191.104-191.104C392.455,199.471,392.455,188.987,385.989,182.521z"/>
	<path style="fill:#42A5F5;" d="M385.989,182.521l-55.726-55.726c-6.466-6.466-16.95-6.466-23.417,0l-8.292,8.292l18.605,18.605   c22.388,22.388,22.388,58.686,0,81.074L174.884,377.042l20,20l191.104-191.104C392.455,199.471,392.455,188.987,385.989,182.521z"/>
	
		<rect x="67.304" y="363.518" transform="matrix(0.7071 0.7071 -0.7071 0.7071 322.2661 52.8334)" style="fill:#42A5F5;" width="60.108" height="103.816"/>
	<path style="fill:#EF5350;" d="M184.104,428.764L84.02,328.68c-3.4-3.4-3.4-8.912,0-12.311l8.94-8.94c3.4-3.4,8.912-3.4,12.311,0   l100.084,100.084c3.4,3.4,3.4,8.912,0,12.311l-8.94,8.94C193.016,432.164,187.504,432.164,184.104,428.764z"/>
	<path style="fill:#90CAF9;" d="M184.104,428.764L84.02,328.68c-3.4-3.4-3.4-8.912,0-12.311l8.94-8.94c3.4-3.4,8.912-3.4,12.311,0   l100.084,100.084c3.4,3.4,3.4,8.912,0,12.311l-8.94,8.94C193.016,432.164,187.504,432.164,184.104,428.764z"/>
	<path style="fill:#90CAF9;" d="M66.552,500.533l-54.301-54.301c-5.32-5.32-5.32-13.945,0-19.265l1.986-1.986   c5.32-5.32,13.945-5.32,19.265,0l54.301,54.301c5.32,5.32,5.32,13.945,0,19.265l-1.986,1.986   C80.498,505.852,71.872,505.852,66.552,500.533z"/>
	<path style="fill:#42A5F5;" d="M394.994,134.975l-17.186-17.186c-2.122-2.123-5.564-2.123-7.686,0l-24.432,24.432l24.872,24.872   l24.432-24.432C397.117,140.539,397.117,137.098,394.994,134.975z"/>
	<path style="fill:#E0E0E0;" d="M394.22,134.201l-15.637-15.637L488.775,8.372c1.159-1.159,3.039-1.159,4.198,0l0,0   c7.477,7.477,7.477,19.599,0,27.076L394.22,134.201z"/>
	<path style="fill:#FFCA28;" d="M115.742,317.899l79.143,79.143l97.253-97.253c-66.351-0.805-71.659-23.206-132.23-26.055   L115.742,317.899z"/>
	<path style="fill:#FFA000;" d="M174.884,377.042l20,20l97.253-97.253c-14.849-0.18-26.636-1.444-36.674-3.326L174.884,377.042z"/>
	<g>
		<path d="M496.602,117.679c-14.889-23.737-20.148-23.737-22.676-23.737s-7.786,0-22.675,23.737    c-6.685,10.657-14.653,25.651-14.653,36.563c0,20.583,16.745,37.329,37.328,37.329s37.329-16.746,37.329-37.329    C511.256,143.33,503.287,128.336,496.602,117.679z M473.927,176.57c-12.312,0-22.328-10.017-22.328-22.329    c0-10.359,14.746-33.558,22.328-42.745c7.582,9.187,22.329,32.385,22.329,42.745C496.256,166.554,486.239,176.57,473.927,176.57z"/>
		<path d="M498.276,40.751c10.389-10.389,10.389-27.293,0-37.682c-4.093-4.092-10.712-4.091-14.805,0l-35.88,35.879    c-2.929,2.929-2.929,7.678,0,10.606c2.929,2.929,7.677,2.929,10.607,0l32.025-32.025c1.7,4.206,0.849,9.211-2.556,12.615    l-93.449,93.449l-5.031-5.03l44.262-44.261c2.929-2.929,2.929-7.678,0-10.606c-2.93-2.929-7.678-2.929-10.607,0l-45.467,45.466    c-4.523-1.23-9.258,0.023-12.559,3.323l-19.129,19.129l-10.123-10.123c-9.402-9.402-24.619-9.403-34.024,0l-185.8,185.8    l-5.168-5.168c-6.319-6.316-16.599-6.317-22.918,0.001l-8.94,8.94c-6.333,6.333-6.333,16.584,0,22.917l23.488,23.488    l-19.758,19.759c-2.929,2.929-2.929,7.678,0,10.606c2.93,2.929,7.678,2.929,10.607,0l19.758-19.759l10.645,10.645l-62.802,62.802    l-10.645-10.645l18.295-18.295c2.929-2.929,2.929-7.678,0-10.606c-2.93-2.929-7.678-2.929-10.607,0l-18.294,18.295l-0.596-0.596    c-8.234-8.234-21.636-8.235-29.872,0l-1.986,1.986c-8.234,8.236-8.234,21.636,0,29.872l54.302,54.301    c8.255,8.255,21.617,8.255,29.872,0l1.985-1.986c8.255-8.254,8.257-21.616,0.001-29.872l-0.596-0.596l62.802-62.802l23.487,23.487    c6.334,6.333,16.584,6.334,22.919,0l8.939-8.94c6.317-6.318,6.317-16.599,0-22.917l-5.167-5.167L243,359.533    c2.929-2.929,2.929-7.678,0-10.606c-2.93-2.929-7.678-2.929-10.607,0l-37.508,37.509l-68.536-68.536l36.493-36.493    c50.647,3.089,60.696,21.095,111.948,25.124l-17.648,17.648c-2.929,2.929-2.929,7.678,0,10.606c2.929,2.928,7.677,2.93,10.607,0    c18.683-18.683,105.155-105.156,123.542-123.543c9.4-9.399,9.406-24.619,0.001-34.024l-10.124-10.124l19.128-19.129    c3.334-3.333,4.54-8.083,3.324-12.559L498.276,40.751z M82.5,493.243l-1.986,1.986c-2.392,2.392-6.265,2.393-8.657,0    l-54.302-54.301c-2.388-2.387-2.388-6.271,0-8.659l1.985-1.986c2.387-2.386,6.271-2.389,8.659,0    c81.693,81.694,0.592,0.593,54.302,54.302C84.892,486.977,84.895,490.849,82.5,493.243z M81.904,462.775L71.26,452.131    l62.802-62.802l10.645,10.645L81.904,462.775z M200.052,414.521l-8.938,8.939c-0.472,0.471-1.232,0.473-1.705,0.001c0,0,0,0,0,0    c-11.023-11.023-90.094-90.093-100.085-100.084c-0.472-0.472-0.473-1.233,0-1.705l8.94-8.94c0.468-0.469,1.235-0.47,1.704,0    c20.511,20.511,76.497,76.497,100.084,100.084C200.521,413.286,200.521,414.051,200.052,414.521z M380.684,200.635l-20.876,20.876    l-19.445-19.445c-2.93-2.929-7.678-2.929-10.607,0c-2.929,2.929-2.929,7.678,0,10.606l19.446,19.446l-18.556,18.556L311.2,231.228    c-2.93-2.929-7.678-2.929-10.607,0c-2.929,2.929-2.929,7.678,0,10.606l19.446,19.446l-18.556,18.556l-19.446-19.446    c-2.93-2.929-7.678-2.929-10.607,0c-2.929,2.929-2.929,7.678,0,10.606l19.446,19.446l-1.791,1.79    c-56.17-1.304-65.254-18.928-112.433-24.639l135.496-135.497c3.547-3.545,9.277-3.536,12.811,0    c59.399,59.399-3.7-3.7,55.727,55.726C384.223,191.361,384.227,197.094,380.684,200.635z M370.562,156.487l-14.266-14.266    l17.669-17.669l14.265,14.265L370.562,156.487z"/>
	</g>
</g>















</svg>
