<?xml version="1.0" encoding="iso-8859-1"?>
<!-- Generator: Adobe Illustrator 19.0.0, SVG Export Plug-In . SVG Version: 6.00 Build 0)  -->
<svg version="1.1" id="Capa_1" xmlns="http://www.w3.org/2000/svg" xmlns:xlink="http://www.w3.org/1999/xlink" x="0px" y="0px"
	 viewBox="0 0 512 512" style="enable-background:new 0 0 512 512;" xml:space="preserve">
<path style="fill:#F0EEEE;" d="M310.278,29.667c-1.015,0-2.023,0.03-3.026,0.081C296.233,16.341,277.396,7.5,255.999,7.5
	s-40.234,8.841-51.254,22.247c-1.003-0.051-2.011-0.081-3.026-0.081c-34.242,0-62,29.299-62,65.441s27.758,65.441,62,65.441
	c23.371,0,43.713-13.654,54.279-33.812c10.566,20.157,30.908,33.812,54.279,33.812c34.242,0,62-29.299,62-65.441
	C372.278,58.966,344.52,29.667,310.278,29.667z"/>
<path style="fill:#D9D4D4;" d="M310.278,29.667c-1.015,0-2.023,0.03-3.026,0.081C296.233,16.341,277.396,7.5,255.999,7.5
	c-5.537,0-10.897,0.603-16,1.713c14.617,3.179,27.086,10.597,35.253,20.534c1.003-0.051,2.011-0.081,3.026-0.081
	c34.242,0,62,29.299,62,65.441c0,30.302-19.516,55.783-46.002,63.23c5.105,1.437,10.467,2.211,16.002,2.211
	c34.242,0,62-29.299,62-65.441C372.278,58.966,344.52,29.667,310.278,29.667z"/>
<path style="fill:#FA8500;" d="M114.256,182.987v144.667c0,23.844,13.467,45.679,34.818,56.294
	c73.281,36.433,144.772,35.601,214.598,0.109c20.987-10.668,34.07-32.366,34.07-55.909V182.987
	c0-74.234-60.178-134.412-134.413-134.412h-14.66C174.435,48.574,114.256,108.753,114.256,182.987z"/>
<path style="fill:#CE6A06;" d="M263.33,48.574h-14.661c-1.659,0-3.309,0.041-4.954,0.1c71.938,2.607,129.459,61.738,129.459,134.312
	v145.161c0,23.542-13.083,45.241-34.07,55.909c-31.126,15.822-62.585,24.735-94.384,26.551
	c40.188,2.333,79.831-6.666,118.952-26.551c20.987-10.668,34.07-32.366,34.07-55.909v-145.16
	C397.742,108.753,337.564,48.574,263.33,48.574z"/>
<g>
	<path style="fill:#FA9E3E;" d="M125.838,223.99h49.369v56.61h-49.369c-15.632,0-28.305-12.673-28.305-28.305
		S110.206,223.99,125.838,223.99z"/>
	<path style="fill:#FA9E3E;" d="M386.16,223.99h-49.369v56.61h49.369c15.632,0,28.305-12.673,28.305-28.305
		S401.793,223.99,386.16,223.99z"/>
</g>
<path style="fill:#484655;" d="M203.072,363.444h105.855c41.621,0,75.362,33.741,75.362,75.362V504.5H127.71v-65.694
	C127.71,397.184,161.451,363.444,203.072,363.444z"/>
<path style="fill:#35343F;" d="M308.927,363.444h-22.632c41.621,0,75.362,33.741,75.362,75.362V504.5h22.632v-65.695
	C384.288,397.184,350.548,363.444,308.927,363.444z"/>
<g>
	<path style="fill:#F0EEEE;" d="M357.939,441.53c-5.593-28.99-14.016-55.024-24.562-76.667c-0.964-1.978-2.732-3.455-4.867-3.99
		c-0.057-0.014-0.113-0.028-0.17-0.042c-5.801-1.442-10.846,4.135-8.819,9.758c7.769,21.559,13.931,47.074,17.987,75.262
		c-54.97,10.36-109.32,10.42-163.05,0.19c4.056-28.264,10.228-53.845,18.015-75.453c2.019-5.603-2.993-11.207-8.774-9.773
		c-0.056,0.014-0.111,0.028-0.167,0.042c-2.15,0.538-3.941,2.011-4.912,4.004c-10.563,21.674-18.997,47.752-24.592,76.791
		c-3.803,19.735-6.289,40.839-7.249,62.85h218.438C364.255,482.445,361.759,461.297,357.939,441.53z"/>
	<path style="fill:#F0EEEE;" d="M277.219,349.5h-42.433c-16.592,0-31.882,9.002-39.947,23.502
		c-29.066,52.261,46.849,35.453,56.523,15.498h9.272c9.716,20.04,86.236,36.907,56.147-16.168
		C308.734,358.136,293.538,349.5,277.219,349.5z"/>
</g>
<path style="fill:#FA9E3E;" d="M296.849,267.73v95.35l-5.158,8.628c-16.704,27.94-57.18,27.94-73.884,0l-5.158-8.628v-95.35H296.849
	z"/>
<path style="fill:#FFB56B;" d="M368.109,193.47v37.21c0,61.91-50.19,112.11-112.11,112.11s-112.11-50.2-112.11-112.11v-31.44
	c0-35.15,18.19-66.04,45.68-83.78c7.78,27.81,33.31,48.21,63.61,48.21h38.49c28.07,0,55.13,10.45,75.91,29.32L368.109,193.47z"/>
<path style="fill:#EF9245;" d="M368.109,230.68v-37.21l-0.53-0.48c-6.96-6.321-14.628-11.691-22.8-16.046v65.399
	c0,53.578-41.949,97.354-94.794,100.286c0.99,0.052,1.983,0.092,2.98,0.119c0.006,0,0.012,0.001,0.019,0.001
	c1.002,0.027,2.007,0.041,3.015,0.041l0,0l0,0C317.919,342.79,368.109,292.59,368.109,230.68z"/>
<path d="M421.969,252.29c0-12.73-6.686-23.922-16.727-30.27v-39.033c0-30.266-9.53-58.345-25.739-81.407
	c0.179-2.133,0.276-4.298,0.276-6.469c0-40.116-31.018-72.772-69.205-72.939C297.554,8.227,277.453,0,255.999,0
	s-41.555,8.227-54.575,22.171c-38.188,0.167-69.205,32.823-69.205,72.939c0,2.145,0.095,4.284,0.27,6.394
	c-9.737,13.891-17.002,29.53-21.224,45.863c-1.037,4.01,1.373,8.102,5.384,9.139c0.63,0.162,1.261,0.24,1.883,0.24
	c3.337,0,6.382-2.244,7.256-5.625c9.521-36.827,35.962-68.182,70.73-83.873c3.776-1.704,5.455-6.146,3.751-9.921
	c-1.704-3.775-6.145-5.458-9.921-3.751c-15.451,6.973-29.711,16.839-41.796,28.849c5.457-25.865,27.216-45.255,53.167-45.255
	c0.822,0,1.692,0.024,2.66,0.071c2.373,0.106,4.657-0.896,6.164-2.729C220.584,22.294,237.576,15,255.999,15
	s35.416,7.294,45.455,19.512c1.508,1.834,3.813,2.852,6.164,2.729c0.969-0.048,1.839-0.071,2.661-0.071
	c25.988,0,47.771,19.443,53.191,45.361c-25.684-25.604-61.096-41.456-100.141-41.456h-14.66c-9.516,0-19.03,0.948-28.277,2.818
	c-4.06,0.821-6.686,4.778-5.864,8.838c0.821,4.061,4.78,6.679,8.838,5.865c8.271-1.673,16.784-2.521,25.304-2.521h14.661
	c69.98,0,126.913,56.933,126.913,126.912v20.62c-0.271-0.353-0.57-0.69-0.911-0.999l-16.181-14.689
	c-0.004-0.003-0.007-0.007-0.011-0.011l-0.519-0.47c-22.204-20.163-50.954-31.268-80.952-31.268h-38.49
	c-2.453,0-4.879-0.154-7.269-0.455c-23.099-2.906-42.741-19.476-49.122-42.288c-1.439-5.11-2.169-10.432-2.169-15.816v-7.28
	c0-4.143-3.358-7.5-7.5-7.5s-7.5,3.357-7.5,7.5v7.28c0,4.922,0.493,9.806,1.456,14.577c-28.074,20.137-44.686,52.286-44.686,87.053
	v17.25h-10.55c-1.375,0-2.735,0.082-4.08,0.234V182.99c0-1.116,0.009-2.213,0.038-3.319c0.105-4.141-3.166-7.583-7.307-7.688
	c-0.065-0.001-0.13-0.002-0.194-0.002c-4.054,0-7.39,3.233-7.494,7.309c-0.031,1.233-0.042,2.455-0.042,3.7v39.018
	c-10.298,6.49-16.73,17.896-16.73,30.282c0,12.399,6.44,23.814,16.73,30.294v45.066c0,24.166,12.048,46.095,31.94,58.989
	c-11.922,14.702-18.489,33.193-18.489,52.171v65.69c0,4.143,3.358,7.5,7.5,7.5h19.07h218.44h19.07c4.143,0,7.5-3.357,7.5-7.5v-65.69
	c0-33.58-20.532-64.007-51.407-76.688c-0.09-0.187-0.176-0.372-0.267-0.56c-1.953-3.987-5.515-6.891-9.771-7.965
	c-0.025-0.006-0.051-0.013-0.076-0.019c-0.087-0.022-0.175-0.043-0.265-0.063c-4.626-1.105-9.301,0.031-12.804,2.844
	c-1.277-0.127-2.56-0.232-3.848-0.299c-2.735-2.527-5.751-4.755-9.002-6.665v-9.29c24.081-10.638,43.918-28.865,56.593-52.005
	h25.217c1.381,0,2.742-0.087,4.083-0.24v40.287c0,11.895-3.695,23.237-10.686,32.801c-2.444,3.344-1.715,8.036,1.629,10.48
	c1.335,0.976,2.884,1.446,4.42,1.446c2.312,0,4.592-1.065,6.061-3.075c8.882-12.15,13.576-26.554,13.576-41.652V282.57
	C415.283,276.219,421.969,265.024,421.969,252.29z M384.287,215.66c2.041,0,4.074-0.828,5.555-2.458
	c0.143-0.158,0.273-0.323,0.4-0.489v4.016c-1.341-0.153-2.702-0.24-4.083-0.24h-10.55v-6.08l3.638,3.303
	C380.684,215.018,382.489,215.66,384.287,215.66z M117.354,233.301c2.652-1.201,5.507-1.811,8.485-1.811h10.553
	c0.013,1.961,0.076,3.913,0.181,5.855c0.017,0.308,0.038,0.615,0.057,0.923c0.047,0.764,0.101,1.527,0.162,2.288
	c0.027,0.331,0.053,0.662,0.083,0.993c0.075,0.842,0.159,1.681,0.252,2.519c0.023,0.206,0.042,0.412,0.065,0.617
	c0.12,1.037,0.254,2.071,0.401,3.102c0.036,0.251,0.077,0.502,0.114,0.753c0.117,0.788,0.241,1.574,0.374,2.359
	c0.056,0.328,0.113,0.656,0.171,0.983c0.136,0.761,0.279,1.519,0.43,2.276c0.055,0.276,0.107,0.552,0.163,0.827
	c0.209,1.017,0.43,2.031,0.666,3.041c0.032,0.138,0.068,0.276,0.101,0.414c0.207,0.873,0.425,1.743,0.652,2.611
	c0.082,0.312,0.167,0.622,0.251,0.933c0.195,0.722,0.398,1.441,0.607,2.159c0.09,0.308,0.178,0.615,0.27,0.922
	c0.268,0.89,0.545,1.778,0.833,2.663c0.034,0.103,0.065,0.207,0.099,0.311c0.324,0.982,0.664,1.96,1.014,2.935
	c0.103,0.286,0.21,0.571,0.315,0.856c0.156,0.423,0.306,0.847,0.467,1.269h-18.281c-2.977,0-5.831-0.609-8.512-1.824
	c-7.471-3.349-12.298-10.802-12.298-18.986C105.029,244.111,109.856,236.662,117.354,233.301z M121.759,327.65v-39.784
	c1.345,0.152,2.705,0.234,4.08,0.234h25.225c12.202,22.258,31.151,40.081,54.085,50.864v12.09c-2.245,1.505-4.358,3.179-6.339,4.997
	c-1.343,0.069-2.68,0.178-4.013,0.31c-3.544-2.849-8.257-3.976-12.894-2.833c-0.117,0.029-0.232,0.061-0.348,0.095
	c-4.226,1.097-7.747,3.986-9.683,7.959c-0.092,0.19-0.182,0.381-0.274,0.571c-3.652,1.495-7.216,3.254-10.621,5.267
	c-4.089,2.412-7.94,5.159-11.537,8.214C132.285,365.782,121.759,347.696,121.759,327.65z M224.234,346.027
	c0.255,0.07,0.511,0.136,0.766,0.204c1.136,0.304,2.276,0.592,3.42,0.863c0.226,0.053,0.45,0.11,0.676,0.162
	c1.289,0.296,2.583,0.569,3.881,0.822c0.293,0.057,0.587,0.11,0.881,0.165c1.167,0.218,2.337,0.421,3.511,0.604
	c0.19,0.03,0.379,0.063,0.57,0.092c1.311,0.198,2.627,0.37,3.946,0.525c0.314,0.037,0.629,0.07,0.944,0.105
	c1.24,0.135,2.483,0.255,3.73,0.352c0.117,0.009,0.233,0.021,0.349,0.03c1.338,0.1,2.682,0.171,4.028,0.227
	c0.324,0.013,0.649,0.025,0.974,0.036c1.36,0.045,2.722,0.076,4.089,0.076c1.266,0,2.528-0.027,3.789-0.066
	c0.309-0.009,0.617-0.02,0.925-0.032c1.255-0.048,2.507-0.11,3.756-0.197c0.053-0.004,0.106-0.009,0.159-0.013
	c1.206-0.086,2.407-0.195,3.607-0.316c0.301-0.031,0.602-0.061,0.902-0.094c1.238-0.135,2.474-0.284,3.706-0.457
	c0.095-0.013,0.189-0.03,0.283-0.043c1.156-0.166,2.309-0.352,3.459-0.551c0.289-0.05,0.578-0.1,0.866-0.153
	c1.223-0.221,2.443-0.458,3.658-0.717c0.119-0.025,0.237-0.054,0.356-0.08c1.122-0.244,2.241-0.507,3.356-0.783
	c0.272-0.068,0.545-0.134,0.817-0.204c1.207-0.308,2.411-0.632,3.609-0.978c0.034-0.01,0.068-0.018,0.102-0.028v8.322v7.103
	l-0.476,0.797l-3.62,6.062c-0.014,0.023-0.029,0.045-0.043,0.069c-0.364,0.605-0.744,1.195-1.138,1.773
	c-0.103,0.152-0.212,0.298-0.317,0.448c-0.334,0.474-0.675,0.941-1.028,1.396c-0.087,0.112-0.175,0.223-0.263,0.333
	c-0.436,0.546-0.882,1.082-1.345,1.599c-0.001,0.001-0.003,0.003-0.004,0.004c-3.554,3.957-7.906,7.015-12.75,9.009
	c-0.16,0.065-0.323,0.126-0.484,0.189c-0.439,0.173-0.882,0.336-1.329,0.491c-0.336,0.116-0.674,0.228-1.015,0.334
	c-0.246,0.078-0.494,0.149-0.742,0.221c-0.465,0.134-0.931,0.266-1.404,0.381c-0.027,0.007-0.054,0.012-0.081,0.019
	c-0.594,0.143-1.194,0.274-1.8,0.389c-0.386,0.074-0.772,0.138-1.16,0.199c-0.125,0.02-0.25,0.043-0.376,0.061
	c-0.369,0.055-0.738,0.1-1.108,0.143c-0.407,0.046-0.816,0.086-1.226,0.118c-0.332,0.027-0.664,0.049-0.997,0.066
	c-0.487,0.025-0.975,0.041-1.466,0.047c-0.25,0.003-0.5,0.006-0.75,0.003c-0.579-0.005-1.156-0.023-1.73-0.055
	c-0.348-0.02-0.696-0.051-1.044-0.081c-0.243-0.021-0.486-0.045-0.728-0.07c-0.383-0.042-0.766-0.083-1.148-0.137
	c-1.936-0.265-3.826-0.69-5.658-1.257c-0.076-0.024-0.153-0.044-0.229-0.069c-0.519-0.164-1.031-0.346-1.54-0.533
	c-0.145-0.053-0.29-0.105-0.435-0.161c-0.482-0.185-0.959-0.382-1.431-0.588c-0.159-0.069-0.317-0.14-0.474-0.211
	c-0.466-0.211-0.929-0.431-1.385-0.662c-0.143-0.073-0.284-0.149-0.426-0.224c-0.469-0.246-0.935-0.498-1.393-0.765
	c-0.079-0.046-0.156-0.096-0.235-0.143c-1.517-0.902-2.964-1.921-4.331-3.044c-0.107-0.088-0.217-0.17-0.322-0.259
	c-0.344-0.29-0.678-0.594-1.011-0.897c-0.196-0.178-0.393-0.354-0.585-0.537c-0.294-0.279-0.579-0.567-0.864-0.857
	c-0.223-0.228-0.445-0.457-0.663-0.692c-0.254-0.273-0.504-0.55-0.75-0.832c-0.242-0.278-0.479-0.561-0.713-0.847
	c-0.214-0.26-0.427-0.52-0.634-0.788c-0.27-0.35-0.53-0.71-0.789-1.071c-0.16-0.223-0.324-0.441-0.479-0.668
	c-0.409-0.6-0.806-1.211-1.182-1.841l-4.099-6.863v-5.771v-10.402c0.083,0.026,0.167,0.047,0.249,0.073
	C221.671,345.298,222.95,345.674,224.234,346.027z M350.574,442.953c0.05,0.257,0.094,0.517,0.143,0.774
	c0.394,2.059,0.774,4.128,1.137,6.21c0.149,0.855,0.286,1.719,0.43,2.578c0.254,1.515,0.506,3.031,0.744,4.557
	c0.151,0.968,0.292,1.942,0.436,2.914c0.213,1.434,0.422,2.871,0.62,4.314c0.138,1.007,0.271,2.017,0.403,3.028
	c0.187,1.435,0.366,2.874,0.539,4.317c0.12,1.006,0.239,2.013,0.352,3.022c0.167,1.489,0.324,2.984,0.477,4.48
	c0.098,0.964,0.199,1.926,0.29,2.892c0.155,1.632,0.295,3.271,0.432,4.911c0.07,0.836,0.147,1.67,0.212,2.508
	c0.175,2.251,0.333,4.509,0.475,6.773c0.014,0.229,0.033,0.456,0.047,0.685c0.002,0.028,0.003,0.055,0.004,0.083H154.682
	c0.001-0.022,0.002-0.045,0.004-0.068c0.013-0.215,0.031-0.429,0.044-0.644c0.142-2.275,0.301-4.543,0.477-6.805
	c0.064-0.825,0.14-1.646,0.208-2.469c0.138-1.649,0.279-3.297,0.435-4.939c0.09-0.95,0.189-1.896,0.285-2.844
	c0.154-1.515,0.312-3.027,0.481-4.534c0.11-0.982,0.225-1.962,0.342-2.942c0.176-1.475,0.359-2.946,0.55-4.413
	c0.126-0.972,0.253-1.944,0.386-2.912c0.205-1.494,0.421-2.982,0.641-4.467c0.136-0.917,0.269-1.835,0.41-2.749
	c0.251-1.615,0.516-3.219,0.784-4.822c0.128-0.766,0.25-1.536,0.382-2.298c0.409-2.355,0.834-4.7,1.282-7.027
	c5.17-26.85,12.742-51.018,22.533-71.892c0.466-1.019,0.952-2.037,1.395-3.033c0.024-0.006,0.049-0.012,0.074-0.019
	c-0.196,0.544-0.386,1.099-0.579,1.647c-0.302,0.853-0.606,1.702-0.902,2.565c-0.219,0.639-0.432,1.291-0.649,1.935
	c-0.267,0.795-0.537,1.584-0.799,2.387c-0.22,0.673-0.433,1.358-0.649,2.037c-0.252,0.788-0.507,1.571-0.754,2.367
	c-0.211,0.679-0.415,1.37-0.623,2.054c-0.245,0.808-0.494,1.611-0.735,2.426c-0.2,0.677-0.393,1.367-0.59,2.049
	c-0.241,0.836-0.486,1.666-0.722,2.509c-0.179,0.639-0.352,1.289-0.529,1.933c-0.247,0.899-0.497,1.794-0.739,2.702
	c-0.174,0.653-0.341,1.317-0.512,1.975c-0.237,0.908-0.476,1.812-0.707,2.729c-0.173,0.684-0.338,1.378-0.508,2.066
	c-0.223,0.905-0.449,1.805-0.667,2.717c-0.158,0.659-0.308,1.329-0.463,1.992c-0.222,0.951-0.447,1.898-0.664,2.857
	c-0.135,0.599-0.264,1.207-0.397,1.809c-0.23,1.039-0.462,2.074-0.685,3.123c-0.076,0.356-0.148,0.718-0.223,1.075
	c-0.274,1.3-0.546,2.601-0.81,3.915c-0.077,0.383-0.149,0.772-0.225,1.155c-0.59,2.98-1.16,5.989-1.7,9.04
	c-0.022,0.127-0.043,0.256-0.066,0.383c-0.888,5.04-1.711,10.174-2.462,15.401c-0.57,3.969,2.082,7.685,6.021,8.434
	c1.697,0.323,3.396,0.636,5.096,0.939c0.401,0.072,0.803,0.137,1.204,0.207c1.296,0.227,2.592,0.454,3.889,0.669
	c0.654,0.108,1.308,0.209,1.963,0.314c1.048,0.169,2.095,0.341,3.144,0.503c0.689,0.106,1.38,0.203,2.07,0.306
	c1.015,0.151,2.029,0.306,3.045,0.45c0.698,0.099,1.397,0.189,2.095,0.285c1.009,0.138,2.017,0.279,3.026,0.41
	c0.723,0.094,1.447,0.179,2.171,0.269c0.984,0.123,1.969,0.249,2.954,0.365c0.759,0.09,1.519,0.17,2.279,0.255
	c0.951,0.107,1.9,0.218,2.852,0.318c0.787,0.083,1.576,0.158,2.364,0.237c0.924,0.093,1.848,0.189,2.773,0.276
	c0.822,0.077,1.645,0.145,2.468,0.218c0.89,0.079,1.78,0.161,2.67,0.234c0.849,0.07,1.698,0.13,2.547,0.195
	c0.867,0.066,1.734,0.136,2.602,0.197c0.854,0.06,1.71,0.111,2.564,0.166c0.863,0.055,1.726,0.115,2.59,0.165
	c0.856,0.05,1.713,0.091,2.569,0.136c0.864,0.045,1.727,0.094,2.591,0.134c0.857,0.04,1.714,0.071,2.57,0.105
	c0.865,0.035,1.729,0.074,2.595,0.104s1.732,0.051,2.598,0.076c0.855,0.025,1.711,0.053,2.567,0.073
	c0.874,0.02,1.749,0.031,2.624,0.046c0.85,0.014,1.7,0.033,2.55,0.042c0.879,0.01,1.759,0.011,2.638,0.015
	c0.767,0.004,1.533,0.013,2.3,0.013c0.078,0,0.155-0.001,0.233-0.001c0.946,0,1.893-0.01,2.84-0.017
	c0.791-0.006,1.582-0.007,2.374-0.017c0.956-0.012,1.912-0.033,2.869-0.051c0.781-0.015,1.562-0.025,2.343-0.044
	c0.966-0.023,1.932-0.056,2.899-0.086c0.774-0.024,1.547-0.043,2.322-0.071c0.965-0.035,1.931-0.079,2.896-0.12
	c0.776-0.033,1.551-0.061,2.327-0.098c0.963-0.046,1.926-0.101,2.889-0.153c0.779-0.042,1.557-0.08,2.336-0.126
	c0.976-0.058,1.953-0.126,2.93-0.19c0.764-0.05,1.528-0.096,2.293-0.15c0.975-0.069,1.949-0.148,2.924-0.224
	c0.77-0.06,1.54-0.115,2.311-0.179c0.975-0.081,1.951-0.171,2.927-0.259c0.766-0.068,1.532-0.132,2.299-0.204
	c0.995-0.094,1.99-0.198,2.985-0.299c0.749-0.076,1.498-0.147,2.247-0.226c0.999-0.106,1.999-0.222,2.998-0.335
	c0.745-0.084,1.49-0.163,2.235-0.251c1.006-0.119,2.012-0.248,3.018-0.373c0.739-0.092,1.477-0.179,2.216-0.275
	c1.021-0.133,2.042-0.275,3.063-0.415c0.724-0.099,1.447-0.192,2.17-0.294c1.039-0.147,2.078-0.305,3.117-0.459
	c0.706-0.104,1.412-0.204,2.117-0.312c1.081-0.166,2.161-0.342,3.242-0.515c0.664-0.107,1.328-0.207,1.992-0.317
	c1.192-0.197,2.383-0.404,3.574-0.61c0.553-0.095,1.106-0.186,1.658-0.283c1.744-0.308,3.488-0.627,5.232-0.955
	c3.947-0.743,6.608-4.464,6.035-8.439c-2.016-13.998-4.534-27.343-7.529-39.962c-0.05-0.212-0.098-0.428-0.149-0.64
	c-0.288-1.205-0.585-2.397-0.882-3.589c-0.098-0.392-0.192-0.791-0.29-1.182c-0.242-0.958-0.492-1.903-0.74-2.852
	c-0.161-0.616-0.317-1.238-0.48-1.85c-0.2-0.75-0.407-1.489-0.611-2.233c-0.218-0.798-0.433-1.603-0.655-2.394
	c-0.177-0.632-0.362-1.254-0.542-1.882c-0.255-0.891-0.508-1.786-0.769-2.668c-0.156-0.528-0.318-1.046-0.476-1.571
	c-0.292-0.972-0.583-1.948-0.882-2.909c-0.12-0.386-0.244-0.763-0.365-1.147c-0.343-1.089-0.686-2.179-1.037-3.255
	c-0.096-0.294-0.196-0.582-0.293-0.875c-0.381-1.157-0.764-2.312-1.156-3.453c-0.059-0.173-0.121-0.342-0.181-0.515
	c-0.426-1.234-0.854-2.463-1.291-3.678c0.009,0.003,0.017,0.005,0.025,0.007l-0.001,0.003c0.494,1.016,0.978,2.032,1.466,3.076
	c3.046,6.5,5.879,13.326,8.492,20.458C342.338,407.359,347.022,424.526,350.574,442.953z M303.069,367.285
	c0.001-0.001,0.002-0.003,0.002-0.004l0.114-0.186c2.788,2.579,5.17,5.581,7.07,8.934c3.005,5.301,9.383,18.06,3.728,22.039
	c-6.315,4.442-23.224,1.879-35.196-3.898c0.075-0.04,0.146-0.087,0.22-0.128c0.891-0.484,1.77-0.989,2.628-1.527
	c0.115-0.072,0.225-0.152,0.34-0.225c0.743-0.474,1.473-0.968,2.189-1.481c0.267-0.191,0.528-0.39,0.791-0.587
	c0.57-0.426,1.132-0.864,1.684-1.315c0.263-0.215,0.525-0.429,0.784-0.649c0.61-0.52,1.206-1.057,1.791-1.607
	c0.163-0.153,0.332-0.299,0.493-0.455c0.732-0.707,1.444-1.44,2.136-2.195c0.181-0.198,0.354-0.405,0.532-0.606
	c0.512-0.577,1.013-1.164,1.501-1.767c0.154-0.191,0.312-0.378,0.464-0.572c0.07-0.089,0.134-0.185,0.204-0.275
	c0.447-0.576,0.881-1.165,1.305-1.763c0.147-0.207,0.302-0.404,0.446-0.614c0.051-0.074,0.098-0.152,0.148-0.227
	c0.581-0.855,1.147-1.725,1.684-2.622L303.069,367.285z M329.001,439.763c-48.995,8.422-98.051,8.487-146.038,0.199
	c1.659-10.446,3.612-20.475,5.843-30.059c0.149,0.112,0.286,0.229,0.44,0.339c4.965,3.548,11.626,5.048,18.864,5.048
	c15.48,0,33.587-6.865,43.33-15.232c0.175,0.011,0.354,0.008,0.53,0.017c0.826,0.046,1.652,0.074,2.478,0.079
	c0.101,0.001,0.2,0.01,0.301,0.01c0.002,0,0,0,0.001,0c0.131,0,0.259-0.012,0.389-0.012c0.824-0.006,1.647-0.033,2.469-0.079
	c0.417-0.023,0.831-0.056,1.245-0.089c0.49-0.04,0.978-0.087,1.466-0.141c6.467,5.706,16.575,10.677,27.537,13.394
	c4.119,1.021,9.97,2.117,16.107,2.117c6.465,0,13.248-1.217,18.652-5.02c0.201-0.142,0.382-0.291,0.575-0.436
	C325.406,419.426,327.35,429.389,329.001,439.763z M207.273,368.703l4.099,6.856c0.536,0.897,1.102,1.769,1.686,2.625
	c0.076,0.111,0.151,0.223,0.228,0.334c0.153,0.22,0.318,0.428,0.474,0.645c0.359,0.501,0.72,1,1.096,1.485
	c0.179,0.233,0.359,0.464,0.542,0.693c0.151,0.188,0.308,0.368,0.461,0.553c0.296,0.358,0.594,0.714,0.899,1.064
	c0.311,0.357,0.625,0.711,0.945,1.058c0.11,0.119,0.219,0.237,0.33,0.355c0.232,0.246,0.469,0.485,0.705,0.725
	c0.433,0.443,0.87,0.881,1.318,1.307c0.096,0.091,0.19,0.185,0.286,0.275c0.102,0.096,0.211,0.183,0.314,0.278
	c0.026,0.024,0.053,0.047,0.079,0.07c0.526,0.482,1.055,0.96,1.599,1.418c0.038,0.032,0.078,0.061,0.116,0.093
	c0.137,0.115,0.28,0.223,0.418,0.337c0.141,0.115,0.283,0.229,0.426,0.343c0.795,0.634,1.607,1.243,2.436,1.827
	c0.1,0.071,0.2,0.142,0.301,0.212c0.903,0.625,1.824,1.219,2.764,1.782c0.038,0.022,0.074,0.046,0.112,0.069
	c0.841,0.5,1.697,0.973,2.566,1.423c0.082,0.042,0.162,0.086,0.244,0.128c0.083,0.042,0.163,0.087,0.246,0.129
	c-11.919,5.422-27.892,7.617-33.996,3.253c-5.473-3.911,0.572-16.263,3.427-21.395c1.613-2.903,3.587-5.564,5.865-7.929
	C207.264,368.71,207.269,368.707,207.273,368.703z M135.209,438.81c0-15.757,5.516-31.106,15.529-43.219
	c3.339-4.036,7.093-7.645,11.218-10.786c-0.079,0.21-0.152,0.427-0.23,0.637c-0.693,1.868-1.376,3.75-2.04,5.657
	c-0.082,0.235-0.16,0.475-0.241,0.71c-0.591,1.71-1.168,3.438-1.735,5.178c-0.185,0.567-0.368,1.136-0.55,1.706
	c-0.538,1.686-1.067,3.384-1.583,5.097c-0.096,0.318-0.196,0.632-0.291,0.952c-0.595,1.995-1.172,4.012-1.736,6.044
	c-0.153,0.549-0.301,1.103-0.452,1.655c-0.444,1.629-0.878,3.269-1.303,4.921c-0.134,0.522-0.271,1.04-0.403,1.565
	c-0.524,2.078-1.035,4.172-1.529,6.286c-0.1,0.429-0.196,0.864-0.295,1.294c-0.405,1.76-0.799,3.533-1.183,5.316
	c-0.129,0.602-0.259,1.203-0.386,1.807c-0.459,2.185-0.908,4.381-1.336,6.601c-0.467,2.427-0.911,4.871-1.337,7.327
	c-0.139,0.801-0.266,1.61-0.4,2.413c-0.279,1.664-0.555,3.329-0.814,5.005c-0.149,0.961-0.287,1.928-0.43,2.893
	c-0.227,1.536-0.451,3.074-0.663,4.619c-0.14,1.022-0.272,2.048-0.405,3.074c-0.195,1.507-0.385,3.016-0.565,4.53
	c-0.125,1.046-0.245,2.094-0.362,3.144c-0.17,1.519-0.33,3.041-0.485,4.567c-0.105,1.042-0.211,2.083-0.309,3.127
	c-0.149,1.576-0.285,3.158-0.417,4.741c-0.083,0.994-0.17,1.985-0.247,2.981c-0.134,1.735-0.251,3.475-0.366,5.218
	c-0.056,0.849-0.119,1.695-0.17,2.545c-0.012,0.194-0.027,0.387-0.039,0.581h-4.445L135.209,438.81L135.209,438.81z M376.789,438.81
	V497h-4.444c-0.011-0.195-0.027-0.389-0.039-0.585c-0.052-0.868-0.117-1.731-0.174-2.597c-0.114-1.732-0.231-3.464-0.364-5.188
	c-0.077-1.002-0.165-1.998-0.248-2.997c-0.133-1.585-0.269-3.168-0.418-4.746c-0.099-1.049-0.205-2.094-0.311-3.14
	c-0.155-1.526-0.316-3.049-0.486-4.568c-0.118-1.055-0.239-2.107-0.365-3.158c-0.181-1.515-0.371-3.024-0.566-4.531
	c-0.134-1.031-0.267-2.061-0.408-3.088c-0.212-1.545-0.437-3.083-0.665-4.619c-0.144-0.969-0.283-1.941-0.433-2.907
	c-0.26-1.671-0.536-3.332-0.815-4.991c-0.137-0.813-0.265-1.63-0.406-2.44c-0.428-2.459-0.874-4.905-1.343-7.334
	c-0.427-2.217-0.876-4.41-1.335-6.593c-0.125-0.594-0.252-1.185-0.38-1.776c-0.386-1.795-0.783-3.579-1.191-5.35
	c-0.095-0.414-0.187-0.832-0.284-1.245c-0.496-2.122-1.009-4.224-1.536-6.311c-0.125-0.495-0.254-0.985-0.381-1.478
	c-0.431-1.678-0.873-3.344-1.324-4.999c-0.145-0.532-0.289-1.066-0.436-1.596c-0.568-2.043-1.147-4.072-1.746-6.078
	c-0.081-0.271-0.166-0.538-0.247-0.808c-0.529-1.758-1.071-3.5-1.624-5.229c-0.176-0.55-0.352-1.099-0.53-1.646
	c-0.568-1.746-1.147-3.478-1.738-5.193c-0.081-0.233-0.158-0.47-0.239-0.703c-0.666-1.914-1.35-3.804-2.045-5.679
	c-0.073-0.197-0.142-0.401-0.215-0.598C366.557,397.469,376.789,417.353,376.789,438.81z M294.113,328.127
	c-12.131,4.753-24.954,7.163-38.113,7.163c-3.509,0-6.991-0.17-10.441-0.51c-1.097-0.108-2.19-0.24-3.281-0.382
	c-8.966-1.17-17.696-3.494-26.085-6.953c-0.213-0.088-0.427-0.17-0.639-0.259l0,0c0,0-0.001-0.001-0.002-0.001
	c-23.131-9.707-42.042-27.44-53.249-49.929c-7.241-14.531-10.913-30.202-10.913-46.576v-6.689v-24.75
	c0-28.238,12.74-54.479,34.497-71.899c0.129,0.292,0.27,0.576,0.402,0.865c0.164,0.358,0.328,0.716,0.498,1.071
	c0.252,0.526,0.512,1.046,0.776,1.565c0.167,0.329,0.331,0.659,0.502,0.985c0.298,0.565,0.607,1.121,0.919,1.677
	c0.151,0.27,0.297,0.542,0.452,0.81c0.444,0.768,0.902,1.528,1.373,2.278c0.03,0.047,0.057,0.096,0.087,0.144
	c0.506,0.803,1.029,1.592,1.564,2.373c0.15,0.219,0.308,0.431,0.46,0.648c0.389,0.553,0.78,1.104,1.182,1.645
	c0.203,0.272,0.412,0.539,0.619,0.808c0.366,0.477,0.734,0.953,1.111,1.42c0.228,0.283,0.461,0.562,0.694,0.842
	c0.369,0.445,0.742,0.886,1.121,1.321c0.244,0.28,0.491,0.558,0.739,0.834c0.383,0.427,0.771,0.848,1.164,1.265
	c0.252,0.268,0.505,0.535,0.761,0.799c0.408,0.421,0.823,0.835,1.241,1.245c0.25,0.245,0.497,0.493,0.75,0.735
	c0.455,0.435,0.919,0.861,1.385,1.284c0.225,0.204,0.446,0.412,0.673,0.614c0.588,0.521,1.186,1.031,1.791,1.533
	c0.112,0.094,0.222,0.191,0.335,0.284c0.729,0.598,1.469,1.183,2.22,1.753c0.155,0.117,0.314,0.228,0.469,0.344
	c0.591,0.441,1.185,0.877,1.789,1.301c0.259,0.182,0.524,0.356,0.785,0.535c0.509,0.348,1.02,0.693,1.538,1.028
	c0.298,0.193,0.599,0.379,0.9,0.568c0.493,0.309,0.988,0.614,1.488,0.912c0.317,0.189,0.637,0.373,0.957,0.557
	c0.495,0.285,0.994,0.564,1.496,0.836c0.327,0.178,0.654,0.354,0.984,0.527c0.511,0.268,1.026,0.528,1.543,0.784
	c0.325,0.161,0.649,0.323,0.976,0.479c0.547,0.261,1.099,0.511,1.652,0.758c0.303,0.136,0.605,0.276,0.91,0.407
	c0.638,0.275,1.283,0.536,1.929,0.793c0.226,0.09,0.45,0.186,0.677,0.274c0.881,0.34,1.769,0.665,2.664,0.972
	c0.126,0.043,0.254,0.08,0.38,0.123c0.764,0.257,1.532,0.505,2.306,0.738c0.308,0.092,0.619,0.175,0.928,0.264
	c0.599,0.171,1.198,0.34,1.802,0.497c0.357,0.093,0.717,0.177,1.076,0.264c0.564,0.137,1.129,0.27,1.697,0.394
	c0.379,0.083,0.759,0.159,1.14,0.236c0.556,0.112,1.114,0.218,1.674,0.317c0.388,0.069,0.777,0.135,1.167,0.197
	c0.562,0.09,1.127,0.172,1.692,0.249c0.389,0.053,0.777,0.106,1.167,0.153c0.584,0.07,1.171,0.128,1.759,0.184
	c0.373,0.036,0.744,0.075,1.118,0.105c0.646,0.051,1.294,0.088,1.943,0.122c0.318,0.017,0.634,0.041,0.953,0.053
	c0.969,0.039,1.94,0.061,2.916,0.061h38.49c1.54,0,3.076,0.036,4.608,0.103c0.065,0.003,0.13,0.004,0.194,0.007
	c1.481,0.067,2.957,0.169,4.429,0.297c0.114,0.01,0.228,0.017,0.342,0.028c1.434,0.13,2.862,0.293,4.285,0.481
	c0.148,0.02,0.296,0.036,0.444,0.057c1.395,0.19,2.783,0.411,4.165,0.656c0.172,0.031,0.345,0.059,0.518,0.091
	c1.361,0.248,2.714,0.526,4.062,0.827c0.189,0.042,0.379,0.083,0.568,0.126c1.332,0.306,2.657,0.639,3.975,0.996
	c0.197,0.053,0.395,0.106,0.592,0.161c1.308,0.362,2.608,0.751,3.9,1.163c0.2,0.064,0.4,0.128,0.6,0.193
	c1.286,0.419,2.564,0.863,3.833,1.332c0.198,0.073,0.395,0.147,0.592,0.221c1.268,0.477,2.527,0.977,3.775,1.503
	c0.19,0.08,0.379,0.161,0.568,0.242c1.253,0.536,2.496,1.095,3.728,1.679c0.174,0.083,0.348,0.168,0.522,0.251
	c1.242,0.598,2.473,1.218,3.691,1.865c0.154,0.082,0.308,0.166,0.462,0.249c1.232,0.662,2.454,1.346,3.661,2.058
	c0.13,0.077,0.258,0.156,0.387,0.233c1.228,0.731,2.444,1.485,3.644,2.268c0.094,0.061,0.187,0.125,0.281,0.187
	c1.23,0.808,2.447,1.64,3.646,2.501c0.051,0.037,0.102,0.075,0.153,0.112c2.492,1.798,4.915,3.709,7.26,5.734
	c0.018,0.016,0.037,0.031,0.056,0.047v27.154v6.689c0,4.094-0.229,8.143-0.687,12.142c-1.372,11.996-4.795,23.535-10.226,34.433
	C338.071,300.582,318.331,318.648,294.113,328.127z M386.159,273.101h-18.281c0.156-0.41,0.303-0.822,0.454-1.233
	c0.111-0.303,0.225-0.605,0.335-0.909c0.346-0.964,0.682-1.931,1.002-2.902c0.046-0.141,0.089-0.282,0.134-0.423
	c0.275-0.845,0.54-1.692,0.796-2.543c0.099-0.328,0.194-0.658,0.289-0.987c0.201-0.691,0.396-1.384,0.585-2.079
	c0.091-0.334,0.182-0.667,0.269-1.001c0.215-0.823,0.421-1.649,0.619-2.478c0.043-0.18,0.09-0.36,0.132-0.54
	c0.232-0.995,0.45-1.993,0.656-2.994c0.063-0.304,0.12-0.61,0.181-0.915c0.143-0.723,0.281-1.448,0.41-2.174
	c0.063-0.353,0.125-0.705,0.184-1.058c0.127-0.748,0.245-1.498,0.357-2.25c0.042-0.283,0.088-0.566,0.129-0.85
	c0.144-1.016,0.276-2.034,0.395-3.055c0.028-0.242,0.05-0.485,0.077-0.727c0.087-0.799,0.168-1.601,0.24-2.404
	c0.031-0.354,0.06-0.707,0.089-1.061c0.059-0.73,0.11-1.463,0.156-2.196c0.021-0.333,0.043-0.667,0.061-1.001
	c0.055-1.019,0.1-2.04,0.13-3.063c0.002-0.07,0.003-0.141,0.005-0.211c0.023-0.85,0.039-1.701,0.044-2.555h10.553
	c11.475,0,20.81,9.331,20.81,20.8C406.969,263.765,397.634,273.101,386.159,273.101z"/>
<path d="M287.936,260.31c-3.406-2.358-8.077-1.508-10.435,1.896c-4.891,7.063-12.928,11.278-21.501,11.278
	s-16.611-4.216-21.501-11.278c-2.357-3.405-7.03-4.255-10.435-1.896c-3.405,2.357-4.254,7.03-1.897,10.435
	c7.69,11.107,20.338,17.739,33.833,17.739c13.494,0,26.142-6.632,33.833-17.739C292.191,267.34,291.341,262.668,287.936,260.31z"/>
<path d="M310.322,215.962c-4.142,0-7.5,3.357-7.5,7.5v2c0,4.143,3.358,7.5,7.5,7.5c4.143,0,7.5-3.357,7.5-7.5v-2
	C317.822,219.319,314.465,215.962,310.322,215.962z"/>
<path d="M201.676,215.962c-4.142,0-7.5,3.357-7.5,7.5v2c0,4.143,3.358,7.5,7.5,7.5s7.5-3.357,7.5-7.5v-2
	C209.176,219.319,205.818,215.962,201.676,215.962z"/>
<g>
</g>
<g>
</g>
<g>
</g>
<g>
</g>
<g>
</g>
<g>
</g>
<g>
</g>
<g>
</g>
<g>
</g>
<g>
</g>
<g>
</g>
<g>
</g>
<g>
</g>
<g>
</g>
<g>
</g>
</svg>
