<svg height="512pt" viewBox="0 0 512.0002 512" width="512pt" xmlns="http://www.w3.org/2000/svg"><path d="m89.601562 128h-38.402343c-9.984375.015625-19.566407-3.945312-26.625-11.007812-3.296875-3.363282-3.296875-8.753907 0-12.117188 7.058593-7.0625 16.640625-11.023438 26.625-11.007812h38.402343zm0 0" fill="#4caf50"/><path d="m422.398438 128h38.402343c9.984375.015625 19.566407-3.945312 26.625-11.007812 3.296875-3.363282 3.296875-8.753907 0-12.117188-7.058593-7.0625-16.640625-11.023438-26.625-11.007812h-38.402343zm0 0" fill="#4caf50"/><path d="m375.125 318.890625c-1.621094 14.847656-8.191406 77.738281-8.191406 107.777344-8.4375-1.589844-17.015625-2.332031-25.601563-2.21875-3.929687-.003907-7.863281.195312-11.773437.597656h-.171875c-30.34375 1.511719-57.90625 18.144531-73.386719 44.285156-3.515625-6.238281-7.820312-12.003906-12.800781-17.152343-27.21875-28.328126-66.644531-28.925782-86.1875-27.132813h-.167969c-3.953125.332031-7.882812.875-11.777344 1.621094v-2.21875c-.339844-30.804688-6.570312-91.050781-8.191406-105.558594l9.726562-2.390625c19.125-4.660156 32.589844-21.785156 32.597657-41.46875v-14.851562h153.601562v14.59375c-.007812 19.746093 13.4375 36.957031 32.597657 41.726562l1.023437.257812zm0 0" fill="#bfa885"/><path d="m369.066406 172.800781 23.46875-113.066406c9.054688-.011719 17.742188 3.582031 24.148438 9.984375 6.402344 6.402344 9.996094 15.09375 9.984375 24.148438v170.667968c0 14.136719 11.460937 25.597656 25.597656 25.597656h11.4375c9.054687-.007812 17.742187 3.585938 24.148437 9.984376l1.023438 1.023437c3.328125 3.355469 3.328125 8.765625 0 12.117187l-1.023438 1.023438c-6.40625 6.402344-15.09375 9.992188-24.148437 9.984375h-28.503906c-23.5625 0-42.664063-19.101563-42.664063-42.664063v-26.453124zm0 0" fill="#8bc34a"/><path d="m119.464844 255.148438v26.453124c0 11.3125-4.492188 22.167969-12.496094 30.167969-8 8.003907-18.851562 12.496094-30.167969 12.496094h-28.503906c-9.054687.007813-17.742187-3.582031-24.148437-9.984375l-1.023438-1.023438c-3.328125-3.351562-3.328125-8.761718 0-12.117187l1.023438-1.023437c6.40625-6.398438 15.09375-9.992188 24.148437-9.984376h11.4375c14.136719 0 25.597656-11.460937 25.597656-25.597656v-170.667968c0-18.851563 15.285157-34.132813 34.132813-34.132813v8.53125l15.644531 123.734375zm0 0" fill="#8bc34a"/><path d="m119.464844 448-8.53125 55.464844h-93.867188c-4.710937 0-8.53125-3.820313-8.53125-8.53125v-98.046875c-.003906-27.589844 18.910156-51.585938 45.738282-58.027344l48.894531-11.863281c10.039062 39.582031 15.507812 80.179687 16.296875 121.003906zm0 0" fill="#ffe0b2"/><path d="m503.464844 396.886719v98.046875c0 4.710937-3.820313 8.53125-8.53125 8.53125h-93.867188l-19.199218-58.28125s10.238281-55.550782 25.429687-112.382813c.511719-1.964843 1.023437-3.839843 1.535156-5.804687l8.105469 1.964844 40.789062 9.898437c26.828126 6.441406 45.742188 30.4375 45.738282 58.027344zm0 0" fill="#bfa885"/><path d="m358.398438 102.398438v113.410156c.007812 19.410156-10.964844 37.152344-28.328126 45.824218l-51.199218 25.597657c-11.046875 5.523437-23.730469 6.828125-35.671875 3.671875-3.496094-.800782-6.878907-2.035156-10.070313-3.671875l-51.199218-25.597657c-17.363282-8.671874-28.335938-26.414062-28.328126-45.824218v-130.476563c0-33.023437 27.304688-56.148437 60.328126-56.148437h89.003906c33.023437 0 55.464844 40.191406 55.464844 73.214844zm0 0" fill="#bfa885"/><path d="m332.800781 102.398438v113.410156c.003907 19.410156-10.964843 37.152344-28.332031 45.824218l-51.199219 25.597657c-3.191406 1.636719-6.574219 2.871093-10.070312 3.671875-3.496094-.800782-6.878907-2.035156-10.070313-3.671875l-51.199218-25.597657c-17.363282-8.671874-28.335938-26.414062-28.328126-45.824218v-130.476563c0-33.023437 27.304688-56.148437 60.328126-56.148437h63.402343c33.027344 0 55.46875 40.191406 55.46875 73.214844zm0 0" fill="#ffe0b2"/><path d="m454.742188 244.992188-1.023438 1.023437c-6.40625 6.398437-15.09375 9.992187-24.152344 9.984375h-28.5c-23.5625 0-42.667968-19.101562-42.667968-42.667969v-110.933593c0-32.988282-26.742188-59.730469-59.730469-59.730469h-85.335938c-32.988281 0-59.730469 26.742187-59.730469 59.730469v110.933593c0 23.566407-19.105468 42.667969-42.667968 42.667969h-28.5c-9.058594.007812-17.742188-3.585938-24.152344-9.984375l-1.023438-1.023437c-3.328124-3.355469-3.328124-8.765626 0-12.117188l1.023438-1.023438c6.410156-6.402343 15.09375-9.992187 24.152344-9.984374h11.433594c14.136718 0 25.597656-11.460938 25.597656-25.601563v-128c0-32.988281 26.746094-59.730469 59.734375-59.730469h170.667969c11.316406 0 22.167968 4.492188 30.167968 12.496094 8.003906 8 12.5 18.851562 12.5 30.167969v145.066406c0 14.140625 11.460938 25.601563 25.597656 25.601563h11.433594c9.058594-.007813 17.746094 3.582031 24.152344 9.984374l1.023438 1.023438c3.328124 3.351562 3.328124 8.761719 0 12.117188zm0 0" fill="#2e7d32"/><path d="m349.527344 318.890625c-1.625 14.507813-7.851563 74.753906-8.195313 105.558594v2.21875c-3.894531-.746094-7.824219-1.289063-11.773437-1.621094h-.171875c-19.542969-1.792969-58.964844-1.195313-86.1875 27.132813-27.21875-28.328126-66.644531-28.925782-86.1875-27.132813h-.167969c-3.914062-.402344-7.84375-.601563-11.777344-.597656-.339844-30.804688-6.570312-91.050781-8.191406-105.558594l9.726562-2.390625c19.125-4.660156 32.589844-21.785156 32.597657-41.46875v-14.851562h128v14.59375c-.007813 19.746093 13.4375 36.957031 32.597656 41.726562l1.023437.257812zm0 0" fill="#ffe0b2"/><path d="m477.867188 396.886719v98.046875c0 4.710937-3.820313 8.53125-8.535157 8.53125h-68.265625l-19.199218-58.28125s10.238281-55.550782 25.429687-112.382813l24.832031 6.058594c26.828125 6.441406 45.738282 30.4375 45.738282 58.027344zm0 0" fill="#ffe0b2"/><path d="m429.140625 244.992188-1.023437 1.023437c-6.40625 6.398437-15.09375 9.992187-24.148438 9.984375h-2.902344c-23.5625 0-42.667968-19.101562-42.667968-42.667969v-110.933593c0-32.988282-26.742188-59.730469-59.730469-59.730469h-110.933594c-32.992187 0-59.734375 26.742187-59.734375 59.730469v110.933593c0 23.566407-19.101562 42.667969-42.667969 42.667969h-2.898437c-9.058594.007812-17.742188-3.585938-24.152344-9.984375l-1.023438-1.023437c-3.328124-3.355469-3.328124-8.765626 0-12.117188l1.023438-1.023438c6.410156-6.402343 15.09375-9.992187 24.152344-9.984374h11.433594c14.136718 0 25.597656-11.460938 25.597656-25.601563v-128c0-32.988281 26.746094-59.730469 59.734375-59.730469h145.066406c23.566406 0 42.667969 19.101563 42.667969 42.664063v145.066406c0 14.140625 11.460937 25.601563 25.601562 25.601563h11.433594c9.054688-.007813 17.742188 3.582031 24.148438 9.984374l1.023437 1.023438c3.328125 3.351562 3.328125 8.761719 0 12.117188zm0 0" fill="#4caf50"/><path d="m401.066406 443.734375v59.730469h-290.132812v-59.730469c4.5-39.0625 1.871094-78.617187-7.765625-116.738281l33.707031-8.105469c1.621094 14.847656 8.191406 77.738281 8.191406 107.777344 0 0 76.800782-17.066407 110.933594 42.664062 34.132812-59.730469 110.933594-42.664062 110.933594-42.664062 0-30.039063 6.570312-92.929688 8.191406-107.777344l33.707031 8.105469c-9.636719 38.121094-12.265625 77.675781-7.765625 116.738281zm0 0" fill="#795548"/><path d="m460.800781 136.535156c12.253907.039063 24.011719-4.824218 32.65625-13.511718 1.03125-1.0625 1.914063-2.257813 2.628907-3.558594h7.378906c4.714844 0 8.535156-3.820313 8.535156-8.53125 0-4.714844-3.820312-8.535156-8.535156-8.535156h-7.378906c-.714844-1.296876-1.597657-2.492188-2.628907-3.558594-8.644531-8.683594-20.402343-13.546875-32.65625-13.507813h-26.453125c-3.375-16.785156-16.496094-29.90625-33.28125-33.277343v-.855469c-.027344-28.265625-22.933594-51.1718752-51.199218-51.199219h-170.667969c-31.34375.0546875-58.628907 21.429688-66.183594 51.847656-17.625 2.679688-31.726563 16.03125-35.363281 33.484375h-26.453125c-12.253907-.039062-24.011719 4.824219-32.65625 13.507813-1.03125 1.066406-1.914063 2.261718-2.628907 3.558594h-7.378906c-4.714844 0-8.535156 3.820312-8.535156 8.535156 0 4.710937 3.820312 8.53125 8.535156 8.53125h7.378906c.714844 1.300781 1.597657 2.496094 2.628907 3.558594 8.644531 8.6875 20.402343 13.550781 32.65625 13.511718h25.601562v77.34375c-9.285156 1.152344-17.921875 5.355469-24.558593 11.949219l-1.042969 1.039063c-1.027344 1.058593-1.914063 2.246093-2.636719 3.53125h-22.960938c-4.714843 0-8.535156 3.820312-8.535156 8.535156 0 4.710937 3.820313 8.53125 8.535156 8.53125h22.960938c.722656 1.289062 1.609375 2.476562 2.636719 3.535156l1.042969 1.039062c6.636718 6.59375 15.273437 10.796876 24.558593 11.949219v.546875c0 9.425782-7.640625 17.066406-17.066406 17.066406h-11.4375c-11.308594.023438-22.15625 4.511719-30.179687 12.484376l-1.023438 1.023437c-1.039062 1.0625-1.925781 2.257813-2.648438 3.558594h-5.910156c-4.714844 0-8.535156 3.820312-8.535156 8.53125 0 4.714843 3.820312 8.535156 8.535156 8.535156h5.910156c.722657 1.296875 1.609376 2.496094 2.648438 3.558594l1.023438 1.023437c7.402343 7.28125 17.195312 11.621094 27.5625 12.21875-27.386719 9.519532-45.7304692 35.355469-45.679688 64.351563v98.046875c0 9.425781 7.640625 17.066406 17.066406 17.066406h477.867188c9.425781 0 17.066406-7.640625 17.066406-17.066406v-98.046875c.050781-28.996094-18.289062-54.832031-45.679688-64.351563 10.367188-.597656 20.160157-4.9375 27.5625-12.21875l1.023438-1.023437c1.039062-1.0625 1.925781-2.261719 2.648438-3.558594h5.910156c4.714844 0 8.535156-3.820313 8.535156-8.535156 0-4.710938-3.820312-8.53125-8.535156-8.53125h-5.910156c-.722657-1.300781-1.609376-2.496094-2.648438-3.558594l-1.023438-1.023437c-8.023437-7.972657-18.871093-12.460938-30.179687-12.484376h-11.4375c-9.425781 0-17.066406-7.640624-17.066406-17.066406v-.546875c9.285156-1.152343 17.921875-5.355469 24.558593-11.949219l1.042969-1.039062c1.027344-1.058594 1.914063-2.246094 2.636719-3.535156h22.960938c4.714843 0 8.535156-3.820313 8.535156-8.53125 0-4.714844-3.820313-8.535156-8.535156-8.535156h-22.960938c-.722656-1.285157-1.609375-2.472657-2.636719-3.53125l-1.042969-1.039063c-6.636718-6.59375-15.273437-10.796875-24.558593-11.949219v-77.34375zm17.570313-28.078125c-.292969.796875-.464844 1.628907-.503906 2.476563.039062.855468.210937 1.703125.503906 2.507812-5.03125 3.890625-11.210938 6.011719-17.570313 6.023438h-25.601562v-17.066406h25.601562c6.367188.011718 12.546875 2.144531 17.570313 6.058593zm-67.765625-32.75c4.8125 4.820313 7.519531 11.351563 7.527343 18.160157v119.464843c-9.425781 0-17.066406-7.640625-17.066406-17.066406v-126.539063c3.578125 1.269532 6.835938 3.3125 9.539063 5.980469zm-299.671875-5.980469v126.539063c0 9.425781-7.640625 17.066406-17.066406 17.066406v-119.464843c.011718-10.847657 6.847656-20.511719 17.066406-24.140626zm-59.734375 49.738282c-7.730469.042968-15.152344-3.035156-20.589844-8.53125 5.449219-5.480469 12.863281-8.554688 20.589844-8.535156h25.601562v17.066406zm-22.039063 187.734375 1.023438-1.023438c4.8125-4.789062 11.324218-7.488281 18.113281-7.507812h11.4375c18.851563 0 34.132813-15.285157 34.132813-34.132813h17.066406v17.066406c0 18.851563-15.28125 34.132813-34.132813 34.132813h-28.503906c-6.785156-.015625-13.296875-2.703125-18.113281-7.484375zm122.878906-63.480469c4.421876 8.4375 10.808594 15.683594 18.628907 21.121094v10.191406c.003906 15.746094-10.765625 29.453125-26.070313 33.175781l-29.363281 7.109375c8.222656-9.304687 12.765625-21.296875 12.765625-33.714844v-20.054687c9.617188-3.425781 17.996094-9.640625 24.0625-17.851563zm231.960938 17.828125v20.054687c.007812 12.425782 4.5625 24.417969 12.800781 33.722657l-28.261719-6.828125-1.042968-.253906c-15.378906-3.8125-26.175782-17.625-26.164063-33.46875v-9.933594c7.8125-5.449219 14.195313-12.703125 18.605469-21.144532 6.066406 8.210938 14.445312 14.425782 24.0625 17.851563zm8.535156 182.765625v50.621094h-273.070312v-50.621094c4.214844-37.082031 2.199218-74.609375-5.972656-111.027344l15.882812-3.839844c2.277344 21.554688 7.160156 71.5625 7.160156 97.222657 0 2.585937 1.171875 5.035156 3.191406 6.65625 2.019532 1.617187 4.664063 2.234375 7.191407 1.671875.699219-.15625 71.015625-15.097656 101.675781 38.570312.308594.40625.617188.808594.929688 1.210938.621093.78125 1.378906 1.445312 2.234374 1.964844.648438.371093 1.339844.65625 2.058594.851562.710938.183594 1.445313.277344 2.183594.273438.730469 0 1.460938-.09375 2.167969-.28125.71875-.195313 1.410156-.480469 2.054687-.855469.859375-.515625 1.613282-1.179688 2.238282-1.960938.308593-.402343.621093-.808593.929687-1.210937 30.546875-53.445313 98.796875-39.203125 101.691406-38.5625 2.527344.5625 5.171875-.054688 7.191407-1.671875 2.019531-1.621094 3.191406-4.070313 3.191406-6.65625 0-25.660157 4.882812-75.667969 7.117187-97.222657l15.882813 3.839844c-8.15625 36.421875-10.160156 73.949219-5.929688 111.027344zm-204.800781-169.28125v-.957031l26.195313 13.097656c-.375.941406-.578126 1.945313-.597657 2.960937 0 8.535157-2.617187 33.222657-14.566406 45.167969-2.21875 2.140625-3.105469 5.316407-2.324219 8.296875.78125 2.984375 3.109375 5.316406 6.09375 6.097656 2.984375.777344 6.15625-.109374 8.296875-2.328124 15.308594-15.308594 18.628907-41.199219 19.355469-52.128907 16.625 7.988281 36.011719 7.84375 52.523438-.386719l41.554687-20.777343v.699219c-.03125 23.667968 16.074219 44.308593 39.042969 50.03125l2.558594.613281c-1.894532 18.082031-6.324219 62.558593-7.269532 91.453125-19.628906-2.058594-63.320312-2.382813-94.046875 27.671875v-34.941407c0-4.714843-3.820312-8.535156-8.535156-8.535156-4.710937 0-8.53125 3.820313-8.53125 8.535156v34.925782c-30.71875-30.054688-74.4375-29.722656-94.046875-27.683594-.945312-28.894531-5.375-73.386719-7.269531-91.449219l2.484375-.605469c22.941406-5.589843 39.085937-26.144531 39.082031-49.757812zm162.132813-61.699219v2.492188c.054687 16.175781-9.09375 30.976562-23.585938 38.160156l-51.199219 25.601563c-12.019531 5.972656-26.144531 5.972656-38.164062 0l-51.199219-25.601563c-14.492188-7.183594-23.640625-21.984375-23.585938-38.160156v-113.425781c.027344-28.261719 22.933594-51.171876 51.199219-51.199219h85.335938c28.265625.027343 51.171875 22.9375 51.199219 51.199219zm-332.800782 183.554688c-.035156-23.675781 16.214844-44.269531 39.253906-49.734375l40.660157-9.847656c7.589843 34.535156 9.464843 70.082031 5.546875 105.226562-.070313.394531-.113282.796875-.128906 1.203125v51.199219h-85.332032zm477.867188 0v98.046875h-85.332032v-51.199219c0-.402344-.027343-.804687-.085937-1.203125-3.917969-35.144531-2.042969-70.691406 5.546875-105.226562l40.667969 9.847656c23.015625 5.488281 39.242187 26.074218 39.203125 49.734375zm-42.667969-98.21875h11.4375c6.785156.011719 13.296875 2.703125 18.113281 7.484375l1.023438 1.074218-1.023438 1.023438c-4.816406 4.78125-11.328125 7.46875-18.113281 7.484375h-28.503906c-18.851563 0-34.132813-15.28125-34.132813-34.132813v-17.066406h17.066406c0 18.847656 15.28125 34.132813 34.132813 34.132813zm-3.53125-59.734375-1.042969 1.039062c-4.808594 4.785156-11.3125 7.476563-18.097656 7.492188h-28.527344c-18.851562 0-34.132812-15.28125-34.132812-34.132813v-110.933593c-.042969-37.683594-30.582032-68.222657-68.265625-68.265626h-85.335938c-37.683593.042969-68.222656 30.582032-68.265625 68.265626v110.933593c0 18.851563-15.28125 34.132813-34.132812 34.132813h-28.527344c-6.785156-.015625-13.289062-2.707032-18.097656-7.492188l-1.042969-1.039062 1.042969-1.042969c4.808594-4.78125 11.3125-7.472656 18.097656-7.492187h11.460938c18.851562 0 34.132812-15.28125 34.132812-34.132813v-128c.027344-28.265625 22.933594-51.171875 51.199219-51.199219h170.667969c18.851562 0 34.132812 15.28125 34.132812 34.132813v145.066406c0 18.851563 15.28125 34.132813 34.132812 34.132813h11.460938c6.785156.019531 13.289062 2.710937 18.097656 7.492187zm0 0"/><path d="m221.867188 145.066406v-8.53125c4.710937 0 8.53125-3.820312 8.53125-8.535156 0-4.710938-3.820313-8.535156-8.53125-8.535156h-25.601563c-4.710937 0-8.53125 3.824218-8.53125 8.535156 0 4.714844 3.820313 8.535156 8.53125 8.535156h8.535156v8.53125c0 4.714844 3.820313 8.535156 8.53125 8.535156 4.714844 0 8.535157-3.820312 8.535157-8.535156zm0 0"/><path d="m290.132812 221.867188h-68.265624c-4.714844 0-8.535157 3.820312-8.535157 8.53125 0 4.714843 3.820313 8.535156 8.535157 8.535156h68.265624c4.714844 0 8.535157-3.820313 8.535157-8.535156 0-4.710938-3.820313-8.53125-8.535157-8.53125zm0 0"/><path d="m315.734375 119.464844h-25.601563c-4.710937 0-8.53125 3.824218-8.53125 8.535156 0 4.714844 3.820313 8.535156 8.53125 8.535156v8.53125c0 4.714844 3.820313 8.535156 8.535157 8.535156 4.710937 0 8.53125-3.820312 8.53125-8.535156v-8.53125h8.535156c4.710937 0 8.53125-3.820312 8.53125-8.535156 0-4.710938-3.820313-8.535156-8.53125-8.535156zm0 0"/></svg>