<?xml version="1.0" encoding="iso-8859-1"?>
<!-- Generator: Adobe Illustrator 19.0.0, SVG Export Plug-In . SVG Version: 6.00 Build 0)  -->
<svg version="1.1" id="Capa_1" xmlns="http://www.w3.org/2000/svg" xmlns:xlink="http://www.w3.org/1999/xlink" x="0px" y="0px"
	 viewBox="0 0 512.019 512.019" style="enable-background:new 0 0 512.019 512.019;" xml:space="preserve">
<path style="fill:#FDC9A6;" d="M102.107,256.01l-71.86,43.604c-24.069,8.721-25.988,45.671-15.349,61.046l52.325,78.487
	l14.311,43.604h43.604l11.852-43.604l-29.293-8.721c0,0-5.59-61.046-31.753-69.767c0,0,43.604,0,52.325-43.604"/>
<path style="fill:#F6BB92;" d="M84.665,299.614h-1.823c-12.968,0-24.619,7.203-30.401,18.802l-1.727,3.453
	c-2.163,4.308-0.419,9.549,3.881,11.703c4.308,2.163,9.549,0.401,11.703-3.889l1.735-3.462c2.826-5.66,8.503-9.166,14.808-9.166
	h1.823c4.823,0,8.721-3.907,8.721-8.721C93.386,303.521,89.487,299.614,84.665,299.614z"/>
<path style="fill:#FDC9A6;" d="M416.056,256.01l65.694-43.604c24.069-8.721,25.988-45.671,15.349-61.046l-52.325-78.487
	l-14.311-43.604h-43.604l-11.852,43.604l29.293,8.721c0,0,5.59,61.046,31.753,69.767c0,0-43.604,0-52.325,43.604"/>
<path style="fill:#F6BB92;" d="M429.146,212.405h-1.814c-4.823,0-8.721-3.907-8.721-8.721s3.898-8.721,8.721-8.721h1.814
	c6.314,0,11.991-3.506,14.808-9.157l1.744-3.471c2.154-4.299,7.404-6.061,11.703-3.889c4.299,2.163,6.044,7.404,3.881,11.703
	l-1.735,3.462C453.757,205.202,442.106,212.405,429.146,212.405z"/>
<path style="fill:#DC4D41;" d="M258.209,449.725c-2.32,0-4.535-0.916-6.166-2.555l-135.67-135.661
	c-30.601-30.601-30.601-80.397,0-110.999c30.61-30.601,80.397-30.601,111.007,0l30.828,30.837l30.837-30.837
	c14.817-14.825,34.534-22.988,55.491-22.988c20.965,0,40.683,8.163,55.499,22.988l0,0c30.601,30.601,30.601,80.397,0,110.999
	L264.375,447.17C262.736,448.81,260.52,449.725,258.209,449.725z"/>
<g>
	<path style="fill:#C7463B;" d="M189.315,290.893c-9.619,0-17.442-7.823-17.442-17.442s7.823-17.442,17.442-17.442
		c9.619,0,17.442,7.823,17.442,17.442S198.934,290.893,189.315,290.893z M189.315,273.451v0.009V273.451z"/>
	<path style="fill:#C7463B;" d="M328.848,290.893c-9.619,0-17.442-7.823-17.442-17.442s7.823-17.442,17.442-17.442
		s17.442,7.823,17.442,17.442S338.467,290.893,328.848,290.893z M328.848,273.451v0.009V273.451z"/>
	<path style="fill:#C7463B;" d="M259.081,351.939c-1.683,0-3.375-0.488-4.84-1.465l-26.162-17.442
		c-4.012-2.669-5.093-8.084-2.416-12.096c2.66-4.012,8.076-5.093,12.096-2.416l21.322,14.215l21.322-14.215
		c4.02-2.677,9.427-1.596,12.096,2.416c2.677,4.003,1.596,9.427-2.416,12.096l-26.162,17.442
		C262.456,351.45,260.773,351.939,259.081,351.939z"/>
</g>
<path d="M59.313,442.993l13.936,42.479c1.169,3.576,4.509,6,8.285,6h43.604c3.933,0,7.387-2.634,8.416-6.436l11.852-43.604
	c1.247-4.57-1.387-9.296-5.93-10.648l-23.782-7.081c-1.666-12.61-6.689-40.561-19.709-57.924
	c14.511-4.997,30.357-15.916,37.927-36.732L252.044,447.17c1.64,1.64,3.846,2.555,6.166,2.555c2.32,0,4.535-0.916,6.166-2.555
	l135.67-135.67c13.761-13.761,21.279-31.404,22.665-49.438l63.069-41.851c11.006-4.369,19.29-13.814,23.407-26.721
	c5.145-16.125,3.131-35.494-4.814-46.962l-51.671-77.502l-13.953-42.479c-1.177-3.584-4.526-6-8.285-6h-43.604
	c-3.933,0-7.387,2.634-8.416,6.436l-11.843,43.604c-1.247,4.57,1.387,9.296,5.93,10.648l23.773,7.081
	c1.666,12.61,6.698,40.561,19.709,57.924c-14.921,5.145-31.229,16.587-38.52,38.59c-10.212-4.735-21.375-7.308-32.956-7.308
	c-20.956,0-40.674,8.163-55.491,22.988l-30.837,30.837l-30.828-30.837c-30.61-30.601-80.397-30.601-111.007,0
	c-14.014,14.014-21.523,32.049-22.709,50.424L26.41,291.739c-11.084,4.334-19.439,13.814-23.581,26.79
	c-5.145,16.125-3.131,35.494,4.901,47.092L59.313,442.993z M436.053,160.08c4.273,0,7.919-3.096,8.607-7.326
	c0.68-4.221-1.797-8.32-5.852-9.671c-15.636-5.215-24.165-44.223-25.831-62.293c-0.331-3.549-2.782-6.541-6.201-7.561l-21.122-6.288
	l7.866-28.953h30.619l12.349,37.604c0.244,0.75,0.593,1.456,1.029,2.119l52.412,78.618c4.299,6.209,6.462,19.831,2.625,31.857
	c-1.814,5.686-5.669,13.09-13.77,16.02c-0.645,0.235-1.273,0.549-1.849,0.933l-55.264,36.68
	c-2.765-15.139-9.95-29.625-21.628-41.311c-2.259-2.259-4.657-4.299-7.125-6.244C401.179,160.874,434.632,160.089,436.053,160.08z
	 M128.705,212.842c11.904-11.904,27.532-17.852,43.168-17.852s31.273,5.956,43.168,17.852l36.994,37.002
	c1.64,1.64,3.846,2.555,6.166,2.555c2.32,0,4.535-0.916,6.166-2.555l37.003-37.002c11.529-11.529,26.86-17.878,43.159-17.878
	c16.308,0,31.639,6.349,43.168,17.878c23.799,23.799,23.799,62.528,0,86.327L258.192,428.673L128.688,299.169
	C104.906,275.37,104.906,236.649,128.705,212.842z M19.45,323.832c1.814-5.686,5.669-13.09,13.77-16.02
	c0.541-0.192,1.055-0.445,1.552-0.741l60.034-36.427c2.817,14.982,10.003,29.293,21.567,40.866l3.488,3.488
	c-0.035,0.122-0.122,0.218-0.14,0.349c-7.238,36.174-42.287,36.593-43.779,36.593c-4.273,0-7.919,3.096-8.607,7.326
	c-0.68,4.221,1.796,8.32,5.852,9.671c15.636,5.215,24.157,44.215,25.822,62.293c0.331,3.549,2.782,6.541,6.201,7.561l21.139,6.288
	l-7.884,28.953H87.848l-12.34-37.604c-0.244-0.75-0.593-1.456-1.029-2.119L22.154,355.82
	C17.767,349.479,15.605,335.866,19.45,323.832z"/>
<path d="M54.595,333.573c4.308,2.163,9.549,0.401,11.703-3.889l1.735-3.462c2.826-5.66,8.503-9.166,14.808-9.166h1.823
	c4.823,0,8.721-3.907,8.721-8.721c0-4.814-3.898-8.721-8.721-8.721h-1.823c-12.968,0-24.619,7.203-30.401,18.802l-1.727,3.453
	C48.552,326.169,50.296,331.41,54.595,333.573z"/>
<circle cx="189.315" cy="273.451" r="17.442"/>
<circle cx="328.848" cy="273.451" r="17.442"/>
<path d="M254.25,350.474c1.456,0.977,3.148,1.465,4.831,1.465c1.683,0,3.375-0.488,4.84-1.465l26.162-17.442
	c4.012-2.669,5.093-8.084,2.416-12.096c-2.669-4.012-8.075-5.093-12.096-2.416l-21.322,14.215l-21.322-14.215
	c-4.02-2.677-9.436-1.596-12.096,2.416c-2.677,4.003-1.596,9.427,2.416,12.096L254.25,350.474z"/>
<path d="M427.332,212.405h1.814c12.959,0,24.61-7.203,30.401-18.785l1.735-3.462c2.163-4.308,0.419-9.549-3.881-11.703
	c-4.299-2.171-9.549-0.41-11.703,3.889l-1.744,3.471c-2.817,5.642-8.494,9.148-14.808,9.148h-1.814
	c-4.823,0-8.721,3.907-8.721,8.721S422.51,212.405,427.332,212.405z"/>
<g>
</g>
<g>
</g>
<g>
</g>
<g>
</g>
<g>
</g>
<g>
</g>
<g>
</g>
<g>
</g>
<g>
</g>
<g>
</g>
<g>
</g>
<g>
</g>
<g>
</g>
<g>
</g>
<g>
</g>
</svg>
