<?xml version="1.0" encoding="iso-8859-1"?>
<!-- Generator: Adobe Illustrator 19.0.0, SVG Export Plug-In . SVG Version: 6.00 Build 0)  -->
<svg version="1.1" id="Layer_1" xmlns="http://www.w3.org/2000/svg" xmlns:xlink="http://www.w3.org/1999/xlink" x="0px" y="0px"
	 viewBox="0 0 511.996 511.996" style="enable-background:new 0 0 511.996 511.996;" xml:space="preserve">
<path style="fill:#967ADC;" d="M394.497,205.181c-2.5,0.5-40-2.5-43-2.5s-29.499-5.36-29.499-5.36s-140,1.859-145.75,2.859
	s-37.25,8.5-37.25,8.5l-24.5,1l-27,19.641l17.5,14.859l48,12.5l149,2.516l45.499-6.516l55.5-8.422l18.499-11.078v-15
	C421.496,218.181,396.997,204.681,394.497,205.181z"/>
<polygon style="fill:#5D9CEC;" points="415.746,434.936 394.497,421.311 316.748,383.186 275.498,469.936 262.248,485.186 
	247.248,480.186 233.248,466.436 212.498,427.686 195.498,383.186 101.249,433.686 96.999,484.686 109.499,486.936 283.748,489.186 
	416.996,484.686 "/>
<polygon style="fill:#F5F7FA;" points="302.67,337.031 272.342,326.687 260.67,324.031 238.334,326.687 207.334,339.344 
	198.998,372.686 208.334,426.686 232.67,478.03 263.998,486.686 287.67,454.03 306.67,395.343 314.342,361.686 "/>
<polygon style="fill:#EAC6BB;" points="338.498,259.931 176.248,256.681 176.248,265.181 180.248,308.187 197.748,340.687 
	218.998,324.031 264.248,321.937 282.748,326.687 314.342,337.437 323.248,328.187 339.998,298.937 "/>
<polygon style="fill:#AC92EB;" points="307.342,148.01 281.998,79.994 264.662,47.994 236.662,66.01 213.998,133.353 
	193.998,216.009 235.998,228.259 283.342,229.321 314.342,222.009 314.342,200.681 "/>
<path d="M479.996,410.655c-5.891,0-10.656,4.781-10.656,10.656c0,5.906,4.766,10.688,10.656,10.688s10.656-4.781,10.656-10.688
	C490.652,415.436,485.887,410.655,479.996,410.655z"/>
<path d="M394.653,111.994c5.906,0,10.687-4.781,10.687-10.672s-4.78-10.672-10.687-10.672c-5.875,0-10.656,4.781-10.656,10.672
	S388.778,111.994,394.653,111.994z"/>
<path d="M74.664,282.656c-5.891,0-10.664,4.781-10.664,10.656C64,299.218,68.773,304,74.664,304s10.672-4.781,10.672-10.688
	C85.335,287.437,80.554,282.656,74.664,282.656z"/>
<path d="M10.664,175.79C4.773,175.79,0,180.571,0,186.462s4.773,10.656,10.664,10.656s10.672-4.766,10.672-10.656
	S16.555,175.79,10.664,175.79z"/>
<path d="M31.999,410.655c-5.89,0-10.664,4.781-10.664,10.656c0,5.906,4.773,10.688,10.664,10.688s10.664-4.781,10.664-10.688
	C42.664,415.436,37.89,410.655,31.999,410.655z"/>
<path d="M483.09,47.994c5.875,0,10.656-4.781,10.656-10.672s-4.781-10.671-10.656-10.671c-5.906,0-10.688,4.78-10.688,10.671
	S477.184,47.994,483.09,47.994z"/>
<path d="M95.999,58.65v10.672c0,5.891,4.773,10.672,10.664,10.672s10.672-4.781,10.672-10.672V58.65
	c5.891,0,10.664-4.766,10.664-10.656s-4.773-10.672-10.664-10.672V26.651c0-5.875-4.781-10.656-10.672-10.656
	s-10.664,4.781-10.664,10.656v10.671c-5.89,0-10.664,4.781-10.664,10.672S90.109,58.65,95.999,58.65z"/>
<path d="M501.34,186.649v-10.656c0-5.891-4.781-10.672-10.688-10.672c-5.875,0-10.656,4.781-10.656,10.672v10.656
	c-5.891,0-10.656,4.781-10.656,10.672s4.766,10.672,10.656,10.672v10.656c0,5.906,4.781,10.672,10.656,10.672
	c5.906,0,10.688-4.766,10.688-10.672v-10.656c5.875,0,10.656-4.781,10.656-10.672S507.215,186.649,501.34,186.649z"/>
<path d="M479.246,300.469c-3.125-13.156-16.125-23.624-33.938-27.249c-13.781-2.82-31.781-1.383-40.969,11.062
	c-4.437,6.031-13.718,23.75-42.921,107.812c-0.188,0.562-0.391,1.094-0.578,1.656c-26.296-10.438-33.374-17.938-35.218-21.562
	c-0.078-0.156-0.125-0.281-0.188-0.438l-0.188-25.5c15.594-20.874,26.749-46.937,26.749-73.967c0-1.93-0.062-3.852-0.125-5.742
	c9.516-1.203,18.484-2.578,26.781-4.141c16.484-3.094,29.577-6.781,38.937-10.938c13.094-5.812,19.75-13.312,19.75-22.234
	c0-8.938-6.656-16.422-19.75-22.234c-9.359-4.156-22.452-7.844-38.937-10.938c-15.875-3-34.25-5.328-54.218-6.938
	c-3.359-16.094-8.031-37.296-13.281-58.374c-6.281-25.156-12.188-45.266-17.562-59.781c-7.469-20.188-14.906-33.641-26.93-33.641
	c-23.539,0-43.727,29.5-63.507,92.828c-6.734,21.531-12.086,42.874-15.781,58.968c-19.891,1.625-38.203,3.953-54.023,6.938
	c-16.492,3.094-29.586,6.781-38.938,10.938c-13.101,5.812-19.75,13.297-19.75,22.234c0,8.922,6.648,16.422,19.75,22.234
	c9.352,4.156,22.445,7.844,38.938,10.938c8.289,1.562,17.258,2.938,26.781,4.141c-0.078,1.891-0.141,3.812-0.141,5.742
	c0,27.03,11.156,53.093,26.758,73.967l-0.18,25.5c-0.062,0.156-0.117,0.281-0.188,0.438c-1.938,3.781-9.531,11.781-38.703,22.906
	c-8.227,3.125-14.477,7.875-32.945,12.844l-1.273,0.375c-16.812,5.562-28.125,21.156-28.125,38.75v48.938h169.985
	c0.227,0,0.453,0,0.68,0c0.227,0,0.453,0,0.68,0h84.586c0.016,0,0.047,0,0.077,0c0.016,0,0.031,0,0.062,0h85.249v-48.938
	c0-17.594-11.312-33.188-28.124-38.75l-1.266-0.375c-7.172-1.938-12.5-3.812-16.828-5.594
	c17.375-50.094,34.687-96.749,41.062-105.374c2.156-2.938,10.062-4.781,19.547-2.844c9,1.844,16.344,6.594,17.453,11.281
	c1.125,4.75-3.844,12.031-13.328,19.5c-1.078,0.844-1.422,0.688-2.094,0.281c-1.484-0.938-2.547-3.062-2.234-4.438
	c1.297-5.75-2.312-11.469-8.047-12.75c-5.75-1.312-11.453,2.312-12.766,8.062c-2.312,10.188,2.5,21.375,11.656,27.155
	c8.469,5.344,18.688,4.75,26.688-1.562C470.152,332.375,483.34,317.719,479.246,300.469z M353.903,413.936
	c-8.938,26.219-16.593,49.375-20.312,60.719h-45.719c5.625-8.219,10.906-18.75,15.859-31.656
	c5.891-15.344,10.703-32.844,13.547-48.531C325.373,401.124,337.31,407.436,353.903,413.936z M255.998,474.655h-0.352
	c-6.383-0.438-17.227-12.625-27.469-39.281c-9.812-25.531-14.937-53.219-14.937-67.375c0-13.344,3.609-26.937,27.335-30.874
	c-3.5,1.75-5.914,5.343-5.914,9.53c0,5.906,4.781,10.656,10.672,10.656h21.328c5.898,0,10.68-4.75,10.68-10.656
	c0-4.188-2.422-7.78-5.922-9.53c23.734,3.938,27.344,17.53,27.344,30.874c0,14.156-5.141,41.844-14.953,67.375
	c-10.234,26.656-21.078,38.844-27.461,39.281H255.998z M223.514,136.51c7.516-24.062,15.188-43.109,22.781-56.625
	c8.617-15.312,14.953-19.641,18.273-20.812c3.172,4.297,12.367,21.141,27.602,83.781c3.984,16.421,7.578,32.593,10.391,45.89
	c-9.156,1.234-16.875,1.203-19.281,0.094c-4.453-3.594-11-3.062-14.773,1.297c-3.859,4.453-3.383,11.188,1.062,15.047
	c4.508,3.906,11.289,5.812,20.992,5.812c3.031,0,6.344-0.188,9.969-0.562c2.219-0.219,4.359-0.5,6.344-0.781
	c0.266,1.281,0.5,2.5,0.719,3.594c-7.359,2.5-23.344,5.406-51.594,5.406c-28.383,0-44.531-2.922-52.031-5.469
	C206.842,199.227,213.756,167.712,223.514,136.51z M97.866,229.227c4.383-2.859,16.328-8.453,46.898-13.547
	c11.5-1.906,24.257-3.5,37.875-4.719c-0.672,3.344-1.055,5.375-1.125,5.719l-0.852,4.562l2.75,3.75c4.125,5.594,19.047,15,72.585,15
	c23.062,0,63.094-1.984,72.297-15.266l2.547-3.672l-0.843-4.373c-0.016-0.094-0.406-2.156-1.125-5.781
	c13.812,1.25,26.718,2.859,38.358,4.781c30.578,5.094,42.515,10.688,46.89,13.547c-4.375,2.844-16.312,8.453-46.89,13.531
	c-30.624,5.094-70.14,7.891-111.233,7.891c-41.101,0-80.609-2.797-111.233-7.891C114.194,237.681,102.249,232.071,97.866,229.227z
	 M181.381,268.821c23.039,2.078,48.398,3.172,74.617,3.172c26.219,0,51.578-1.094,74.625-3.172c0.031,1.141,0.047,2.297,0.047,3.461
	c0,19.968-7.969,41.624-22.141,60.718c-2.531-2.906-5.469-5.469-8.812-7.719c-10.641-7.156-24.938-10.625-43.719-10.625
	c-18.773,0-33.078,3.469-43.726,10.625c-3.344,2.25-6.281,4.812-8.812,7.719c-14.164-19.094-22.133-40.75-22.133-60.718
	C181.327,271.118,181.342,269.962,181.381,268.821z M106.663,447.061c0-8.281,5.289-15.656,13.18-18.406l0.625-0.156
	c14.461-3.906,22.766-7.875,28.836-10.781c2.352-1.125,4.211-2.031,5.968-2.688c18.086-6.906,30.906-13.531,39.445-20.562
	c2.844,15.688,7.648,33.188,13.547,48.531c4.953,12.906,10.242,23.438,15.859,31.656h-117.46L106.663,447.061L106.663,447.061z
	 M391.528,428.499l0.625,0.156c7.891,2.781,13.187,10.125,13.187,18.406v27.594h-49.312c5.312-16.156,11.297-34.062,17.469-52.125
	C378.216,424.436,384.044,426.468,391.528,428.499z"/>
<g>
</g>
<g>
</g>
<g>
</g>
<g>
</g>
<g>
</g>
<g>
</g>
<g>
</g>
<g>
</g>
<g>
</g>
<g>
</g>
<g>
</g>
<g>
</g>
<g>
</g>
<g>
</g>
<g>
</g>
</svg>
