<svg id="Layer_3" enable-background="new 0 0 64 64" height="512" viewBox="0 0 64 64" width="512" xmlns="http://www.w3.org/2000/svg"><g><g><path d="m37 35h3c6.075 0 11 4.925 11 11v4h-38v-4c0-6.075 4.925-11 11-11h3l5 5z" fill="#8892a0"/></g><g><path d="m20.5 48c9.84 0 18.263-5.278 21.764-12.764-.731-.153-1.488-.236-2.264-.236h-3l-5 5-5-5h-3c-6.075 0-11 4.925-11 11v.927c2.356.692 4.876 1.073 7.5 1.073z" fill="#b8bec6"/></g><g><path d="m44.879 4.879-.757-.757c-1.359-1.359-3.201-2.122-5.122-2.122h-14c-1.921 0-3.763.763-5.121 2.121l-.757.757c-1.359 1.359-2.122 3.201-2.122 5.122s.763 3.763 2.121 5.121l1.879 1.879v-2h8c2.482 0 4.781-1.302 6.058-3.43l.942-1.57.942 1.57c1.277 2.128 3.576 3.43 6.058 3.43v2l1.879-1.879c1.358-1.358 2.121-3.2 2.121-5.121s-.763-3.763-2.121-5.121z" fill="#815643"/></g><g><path d="m37.867 2h-12.867c-1.921 0-3.763.763-5.121 2.121l-.757.757c-1.359 1.359-2.122 3.201-2.122 5.122 0 .154.013.307.023.46 2.055.974 4.433 1.54 6.977 1.54 7.112 0 12.971-4.359 13.867-10z" fill="#9a7869"/></g><g><path d="m32 31c-6.075 0-11-4.925-11-11v-5h8c2.482 0 4.781-1.302 6.058-3.43l.942-1.57.942 1.57c1.277 2.128 3.576 3.43 6.058 3.43v5c0 6.075-4.925 11-11 11z" fill="#f2cbae"/></g><g><path d="m32 31c-1.802 0-3.499-.442-5-1.21v5.21l5 5 5-5v-5.21c-1.501.768-3.198 1.21-5 1.21z" fill="#f2cbae"/></g><g><path d="m21 20v-3h-1c-1.657 0-3 1.343-3 3s1.343 3 3 3h1.425c-.271-.955-.425-1.959-.425-3z" fill="#f2cbae"/></g><g><path d="m44 17h-1v3c0 1.041-.154 2.045-.425 3h1.425c1.657 0 3-1.343 3-3s-1.343-3-3-3z" fill="#f2cbae"/></g><g><path d="m40.485 27c1.571-1.902 2.515-4.341 2.515-7h-22c0 2.659.944 5.098 2.515 7z" fill="#4d5d7a"/></g><g><path d="m54 54h-44c-1.105 0-2-.895-2-2 0-1.105.895-2 2-2h44c1.105 0 2 .895 2 2 0 1.105-.895 2-2 2z" fill="#976947"/></g><g><path d="m54 58h-44c-1.105 0-2-.895-2-2 0-1.105.895-2 2-2h44c1.105 0 2 .895 2 2 0 1.105-.895 2-2 2z" fill="#976947"/></g><g><path d="m54 62h-44c-1.105 0-2-.895-2-2 0-1.105.895-2 2-2h44c1.105 0 2 .895 2 2 0 1.105-.895 2-2 2z" fill="#976947"/></g><g><path d="m52 50h-2v-4c0-5.514-4.486-10-10-10h-3v-2h3c6.617 0 12 5.383 12 12z"/></g><g><path d="m14 50h-2v-4c0-6.617 5.383-12 12-12h3v2h-3c-5.514 0-10 4.486-10 10z"/></g><g><path d="m32 32c-6.617 0-12-5.383-12-12v-5c0-.552.447-1 1-1h8c2.118 0 4.11-1.128 5.2-2.944l.942-1.57c.361-.603 1.354-.603 1.715 0l.942 1.57c1.091 1.816 3.083 2.944 5.201 2.944.553 0 1 .448 1 1v5c0 6.617-5.383 12-12 12zm-10-16v4c0 5.514 4.486 10 10 10s10-4.486 10-10v-4.063c-2.433-.308-4.64-1.726-5.915-3.853l-.085-.141-.085.142c-1.448 2.415-4.099 3.915-6.915 3.915z"/></g><g><path d="m44 24h-1v-2h1c1.103 0 2-.897 2-2s-.897-2-2-2h-1c-.404 0-.77-.244-.924-.617-.155-.374-.069-.804.217-1.09l1.879-1.879c1.179-1.179 1.828-2.746 1.828-4.414s-.649-3.235-1.828-4.414l-.758-.758c-1.18-1.179-2.747-1.828-4.414-1.828h-14c-1.667 0-3.234.649-4.414 1.828l-.758.758c-1.179 1.179-1.828 2.746-1.828 4.414s.649 3.235 1.828 4.414l1.879 1.879c.286.286.372.716.217 1.09-.154.373-.52.617-.924.617h-1c-1.103 0-2 .897-2 2s.897 2 2 2h1v2h-1c-2.206 0-4-1.794-4-4 0-1.779 1.168-3.291 2.777-3.809l-.363-.363c-1.557-1.556-2.414-3.626-2.414-5.828s.857-4.272 2.414-5.828l.758-.758c1.557-1.557 3.627-2.414 5.828-2.414h14c2.201 0 4.271.857 5.828 2.414l.758.758c1.557 1.556 2.414 3.626 2.414 5.828s-.857 4.272-2.414 5.828l-.363.363c1.609.518 2.777 2.03 2.777 3.809 0 2.206-1.794 4-4 4z"/></g><g><path d="m54 63h-44c-1.654 0-3-1.346-3-3s1.346-3 3-3h44c1.654 0 3 1.346 3 3s-1.346 3-3 3zm-44-4c-.552 0-1 .449-1 1s.448 1 1 1h44c.552 0 1-.449 1-1s-.448-1-1-1z"/></g><g><path d="m54 59h-44c-1.654 0-3-1.346-3-3s1.346-3 3-3h44c1.654 0 3 1.346 3 3s-1.346 3-3 3zm-44-4c-.552 0-1 .449-1 1s.448 1 1 1h44c.552 0 1-.449 1-1s-.448-1-1-1z"/></g><g><path d="m54 55h-44c-1.654 0-3-1.346-3-3s1.346-3 3-3h44c1.654 0 3 1.346 3 3s-1.346 3-3 3zm-44-4c-.552 0-1 .449-1 1s.448 1 1 1h44c.552 0 1-.449 1-1s-.448-1-1-1z"/></g><g><path d="m13 57.172h2v5.657h-2z" transform="matrix(.707 -.707 .707 .707 -38.326 27.473)"/></g><g><path d="m19 57.172h2v5.657h-2z" transform="matrix(.707 -.707 .707 .707 -36.569 31.716)"/></g><g><path d="m25 57.172h2v5.657h-2z" transform="matrix(.707 -.707 .707 .707 -34.811 35.958)"/></g><g><path d="m31 57.172h2v5.657h-2z" transform="matrix(.707 -.707 .707 .707 -33.054 40.201)"/></g><g><path d="m37 57.172h2v5.657h-2z" transform="matrix(.707 -.707 .707 .707 -31.297 44.444)"/></g><g><path d="m43 57.172h2v5.657h-2z" transform="matrix(.707 -.707 .707 .707 -29.539 48.686)"/></g><g><path d="m49 57.172h2v5.657h-2z" transform="matrix(.707 -.707 .707 .707 -27.782 52.929)"/></g><g><path d="m13 53.172h2v5.657h-2z" transform="matrix(.707 -.707 .707 .707 -35.498 26.302)"/></g><g><path d="m19 53.172h2v5.657h-2z" transform="matrix(.707 -.707 .707 .707 -33.74 30.544)"/></g><g><path d="m25 53.172h2v5.657h-2z" transform="matrix(.707 -.707 .707 .707 -31.983 34.787)"/></g><g><path d="m31 53.172h2v5.657h-2z" transform="matrix(.707 -.707 .707 .707 -30.225 39.029)"/></g><g><path d="m37 53.172h2v5.657h-2z" transform="matrix(.707 -.707 .707 .707 -28.468 43.272)"/></g><g><path d="m43 53.172h2v5.657h-2z" transform="matrix(.707 -.707 .707 .707 -26.711 47.515)"/></g><g><path d="m49 53.172h2v5.657h-2z" transform="matrix(.707 -.707 .707 .707 -24.953 51.757)"/></g><g><path d="m13 49.172h2v5.657h-2z" transform="matrix(.707 -.707 .707 .707 -32.669 25.13)"/></g><g><path d="m19 49.172h2v5.657h-2z" transform="matrix(.707 -.707 .707 .707 -30.912 29.373)"/></g><g><path d="m25 49.172h2v5.657h-2z" transform="matrix(.707 -.707 .707 .707 -29.154 33.615)"/></g><g><path d="m31 49.172h2v5.657h-2z" transform="matrix(.707 -.707 .707 .707 -27.397 37.858)"/></g><g><path d="m37 49.172h2v5.657h-2z" transform="matrix(.707 -.707 .707 .707 -25.64 42.101)"/></g><g><path d="m43 49.172h2v5.657h-2z" transform="matrix(.707 -.707 .707 .707 -23.882 46.343)"/></g><g><path d="m49 49.172h2v5.657h-2z" transform="matrix(.707 -.707 .707 .707 -22.125 50.586)"/></g><g><path d="m32 41c-.256 0-.512-.098-.707-.293l-5-5c-.188-.187-.293-.442-.293-.707v-5h2v4.586l4 4 4-4v-4.586h2v5c0 .265-.105.52-.293.707l-5 5c-.195.195-.451.293-.707.293z"/></g><g><path d="m21 19h22v2h-22z"/></g><g><path d="m23 26h18v2h-18z"/></g><g><path d="m31 40h2v10h-2z"/></g><g><path d="m20 44h2v6h-2z"/></g><g><path d="m42 44h2v6h-2z"/></g></g></svg>