<?xml version="1.0" encoding="iso-8859-1"?>
<!-- Generator: Adobe Illustrator 19.0.0, SVG Export Plug-In . SVG Version: 6.00 Build 0)  -->
<svg version="1.1" id="Layer_1" xmlns="http://www.w3.org/2000/svg" xmlns:xlink="http://www.w3.org/1999/xlink" x="0px" y="0px"
	 viewBox="0 0 512 512" style="enable-background:new 0 0 512 512;" xml:space="preserve">
<path style="fill:#9DBF8C;" d="M285.501,387.487h32.886c49.659,0,89.916,45.599,89.916,87.819v28.977H96.91v-40.35
	c0-42.219,40.257-76.445,89.916-76.445h37.895H285.501z"/>
<g>
	<path style="opacity:0.39;fill:#7D966E;enable-background:new    ;" d="M318.387,387.487h-32.886H283.4
		c49.659,0,89.916,45.599,89.916,87.819v28.977h34.987v-28.977C408.302,433.085,368.046,387.487,318.387,387.487z"/>
	<path style="fill:#7D966E;" d="M320.445,387.487h-32.886H226.78h-37.896c-0.131,0-0.259,0.004-0.39,0.004v116.791H325.87V387.676
		C324.074,387.556,322.267,387.487,320.445,387.487z"/>
</g>
<path style="fill:#775F45;" d="M93.696,167.397v-17.021c0-23.463,5.74-45.65,15.886-65.225c0,0,11.939-23.954,49.561-54.578
	c20.602-16.769,48.816-22.855,77.209-22.855h37.285c78.462,0,142.657,64.195,142.657,142.657v17.021H93.696V167.397z"/>
<path style="fill:#DD8E92;" d="M392.654,248.102c23.639,0,42.803-19.164,42.803-42.803s-19.164-42.803-42.803-42.803H115.228
	c-23.639,0-42.803,19.164-42.803,42.803s19.164,42.803,42.803,42.803H392.654z"/>
<g>
	<path style="fill:#F9C3C2;" d="M283.388,365.04v62.269c0,7.191-5.829,13.02-13.02,13.02h-32.782c-7.191,0-13.02-5.829-13.02-13.02
		V365.04H283.388z"/>
	<path style="fill:#F9C3C2;" d="M157.929,339.632c25.437,21.993,56.791,38.198,92.867,38.198h5.616
		c72.9,0,132.545-59.645,132.545-132.545v-57.71v-24.533c0-23.179-5.802-45.002-16.071-63.988c-4.863-8.992-16-12.47-25.062-7.737
		l-18.009,9.404l14.749,28.47H146.851V81.038c-17.89,22.601-28.6,51.112-28.6,82.003v24.533v57.71
		c0,17.958,3.619,35.112,10.165,50.767C128.416,296.052,139.324,323.545,157.929,339.632z"/>
</g>
<g style="opacity:0.19;">
	<path style="fill:#DD8E92;" d="M372.885,99.053c-4.863-8.992-16-12.47-25.062-7.737l-11.135,5.815
		c0.433,0.612,0.845,1.246,1.21,1.922c10.27,18.987,16.071,40.808,16.071,63.988v24.533v57.71
		c0,67.811-51.612,124.144-117.492,131.678c4.686,0.563,9.458,0.866,14.318,0.866h5.616c72.9,0,132.545-59.645,132.545-132.545
		v-57.71v-24.533C388.957,139.862,383.156,118.039,372.885,99.053z"/>
</g>
<path style="fill:#B1DEE0;" d="M172.372,190.932c0.343,2.445,3.087,27.706,0.686,48.893c-2.401,21.187-3.43,32.595-0.686,52.151
	c2.744,19.557,2.058,45.633-0.343,59.485c0,0,26.06,17.476,48.752,22.577c0,0,6.13-44.725,0.985-66.231s-1.029-52.36-1.029-52.36
	s4.459-52.36-1.715-64.515L172.372,190.932L172.372,190.932z"/>
<path style="fill:#DD8E92;" d="M342.849,197.964h-66.373c-4.262,0-7.718-3.454-7.718-7.718s3.456-7.718,7.718-7.718h66.373
	c4.262,0,7.718,3.454,7.718,7.718S347.111,197.964,342.849,197.964z"/>
<path style="fill:#B1DEE0;" d="M335.474,351.461c11.468-8.134-3.087-39.929-0.343-59.485c2.744-19.557,1.715-30.965-0.686-52.151
	c-2.401-21.187,0.343-46.448,0.686-48.893h-46.649c-6.174,12.155-1.715,64.515-1.715,64.515s4.116,30.856-1.029,52.36
	s1.08,66.378,1.08,66.378S308.058,370.909,335.474,351.461z"/>
<g>
	<path style="fill:#DD8E92;" d="M259.497,237.067h-14.063c-2.317,0-4.512-1.041-5.979-2.837c-1.465-1.795-2.047-4.153-1.584-6.424
		l6.861-33.614c0.852-4.176,4.929-6.875,9.105-6.019c4.177,0.852,6.871,4.929,6.019,9.106l-4.97,24.353h4.611
		c4.262,0,7.718,3.454,7.718,7.718C267.215,233.612,263.759,237.067,259.497,237.067z"/>
	<path style="fill:#DD8E92;" d="M237.021,283.898c-1.975,0-3.95-0.753-5.457-2.26c-3.014-3.014-3.014-7.901,0-10.914
		c6.015-6.016,14.01-9.327,22.516-9.327s16.503,3.312,22.516,9.327c3.014,3.014,3.013,7.901,0,10.914
		c-3.014,3.013-7.901,3.014-10.915-0.001c-3.098-3.099-7.219-4.806-11.601-4.806c-4.383,0-8.503,1.706-11.601,4.806
		C240.971,283.144,238.996,283.898,237.021,283.898z"/>
	<path style="fill:#DD8E92;" d="M231.028,197.964h-66.373c-4.262,0-7.718-3.454-7.718-7.718s3.455-7.718,7.718-7.718h66.373
		c4.262,0,7.718,3.454,7.718,7.718S235.29,197.964,231.028,197.964z"/>
</g>
<path d="M233.622,270.723c-3.014,3.014-3.014,7.901,0,10.914c1.507,1.507,3.482,2.26,5.457,2.26s3.95-0.753,5.457-2.261
	c3.099-3.099,7.22-4.806,11.601-4.806s8.503,1.706,11.601,4.806c3.015,3.015,7.901,3.014,10.915,0.001
	c3.014-3.014,3.014-7.901,0-10.914c-6.015-6.016-14.01-9.327-22.516-9.327C247.632,261.396,239.636,264.708,233.622,270.723z"/>
<path d="M398.348,255.675c26.165-1.871,46.886-23.742,46.886-50.376c0-16.016-7.5-30.303-19.162-39.565v-15.359
	C426.072,67.458,358.614,0,275.697,0h-37.285c-28.934,0-57.085,8.332-81.407,24.095c-3.577,2.318-4.597,7.096-2.279,10.674
	c2.318,3.578,7.098,4.598,10.674,2.279c21.816-14.139,47.063-21.613,73.011-21.613h37.285c74.405,0,134.939,60.533,134.939,134.939
	v6.99c-3.866-1.287-7.938-2.118-12.153-2.431c-1.527-27.723-10.857-53.891-27.266-76.104c-2.259-3.057-6.408-4.013-9.78-2.256
	l-33.137,17.303c-3.769,1.969-5.237,6.616-3.281,10.392l8.912,17.202H156.627V81.038c0-3.285-2.08-6.21-5.182-7.29
	c-3.103-1.075-6.549-0.077-8.587,2.501c-18.118,22.89-28.414,49.966-30.033,78.739c-3.213,0.283-6.338,0.87-9.351,1.727v-6.34
	c0-21.694,5.054-42.444,15.021-61.674c1.961-3.785,0.484-8.442-3.301-10.404c-3.784-1.959-8.442-0.483-10.404,3.301
	c-10.959,21.145-16.752,44.927-16.752,68.777v13.772c-12.861,9.167-21.271,24.192-21.271,41.153
	c0,26.402,20.362,48.125,46.204,50.324c1.096,14.951,4.574,29.51,10.384,43.406c1.644,3.934,6.167,5.787,10.098,4.144
	c3.932-1.644,5.787-6.165,4.143-10.098c-6.348-15.186-9.567-31.265-9.567-47.79V163.04c0-19.64,4.5-38.528,13.163-55.699v21.847
	c0,4.263,3.455,7.718,7.718,7.718h197.713c2.695,0,5.194-1.405,6.594-3.708c1.399-2.302,1.498-5.168,0.258-7.561l-11.211-21.64
	l20.308-10.605c13.58,20.546,20.725,44.485,20.725,69.646v82.245c0,35.937-15.271,68.369-39.657,91.166
	c-0.86-13.154-0.697-29.943,1.192-43.402c2.892-20.606,1.762-32.72-0.661-54.093c-1.66-14.644-0.736-31.841,0.045-40.992h0.689
	c4.262,0,7.718-3.454,7.718-7.718s-3.456-7.718-7.718-7.718h-66.373c-4.262,0-7.718,3.454-7.718,7.718s3.456,7.718,7.718,7.718
	h2.294c-2.77,18.882-0.324,50.735,0.307,58.139c0.01,0.121,0.024,0.244,0.04,0.364c0.039,0.294,3.871,29.665-0.885,49.545
	c-4.119,17.218-1.427,47.652,0.226,62.15c-7.158,1.281-14.526,1.95-22.046,1.95h-5.616c-7.363,0-14.636-0.648-21.756-1.907
	c1.654-14.48,4.355-44.956,0.232-62.192c-4.743-19.826-0.923-49.253-0.885-49.545c0.016-0.12,0.03-0.243,0.04-0.364
	c0.63-7.404,3.076-39.258,0.306-58.139h2.294c4.262,0,7.718-3.454,7.718-7.718s-3.456-7.718-7.718-7.718h-66.373
	c-4.262,0-7.718,3.454-7.718,7.718s3.456,7.718,7.718,7.718h0.688c0.78,9.154,1.705,26.358,0.046,40.992
	c-2.422,21.374-3.552,33.487-0.661,54.093c1.894,13.505,2.054,30.363,1.183,43.537c-0.864-0.806-1.723-1.621-2.568-2.454
	c-3.037-2.989-7.925-2.953-10.914,0.085c-2.99,3.037-2.952,7.924,0.085,10.914c16.666,16.409,36.676,28.171,58.423,34.637h-24.112
	c-0.107,0-0.213,0.003-0.32,0.003c-0.024,0-0.046-0.003-0.07-0.003c-0.036,0-0.072,0.005-0.108,0.005
	c-53.607,0.233-97.136,37.893-97.136,84.157c0,4.263,3.455,7.718,7.718,7.718c4.262,0,7.718-3.454,7.718-7.718
	c0-35.609,32.559-64.974,74.09-68.39v101.022H98.965c-4.262,0-7.718,3.454-7.718,7.718c0,4.263,3.455,7.718,7.718,7.718h311.392
	c4.262,0,7.718-3.454,7.718-7.718v-28.977c0-22.809-10.398-46.548-28.53-65.132c-17.199-17.628-38.774-28.13-61.436-30.071
	c-0.71-0.215-1.462-0.333-2.242-0.333c-0.414,0-0.816,0.042-1.212,0.105c-1.402-0.066-2.805-0.105-4.213-0.105h-22.116
	C353.123,363.5,394.012,314.591,398.348,255.675z M82.201,205.299c0-17.753,13.257-32.459,30.39-34.762v69.524
	C95.459,237.759,82.201,223.053,82.201,205.299z M398.733,240.148v-69.695c17.459,2.001,31.064,16.862,31.064,34.847
	C429.798,223.286,416.191,238.146,398.733,240.148z M295.301,309.604c5.257-21.973,1.581-52.027,1.199-54.984
	c-1.779-20.998-2.181-46.329-0.144-56.658h32.398c-0.801,9.856-1.691,27.113,0.08,42.73c2.34,20.654,3.348,31.416,0.711,50.211
	c-2.601,18.542-2.207,42.229-0.316,57.155c-10.205,7.048-21.502,12.623-33.587,16.401
	C294.094,350.244,291.92,323.737,295.301,309.604z M182.074,290.904c-2.637-18.795-1.629-29.557,0.711-50.211
	c1.769-15.607,0.88-32.871,0.079-42.73h32.398c2.034,10.325,1.634,35.656-0.142,56.658c-0.383,2.962-4.057,33.013,1.199,54.984
	c3.387,14.156,1.2,40.727-0.351,54.925c-11.913-3.702-23.222-9.199-33.593-16.358C184.279,333.254,184.681,309.492,182.074,290.904z
	 M196.212,395.205h22.694v45.124c0,4.263,3.455,7.718,7.718,7.718c4.262,0,7.718-3.454,7.718-7.718v-51.296
	c0.102-0.499,0.155-1.016,0.155-1.546s-0.054-1.045-0.155-1.546v-1.622c6.094,0.808,12.273,1.228,18.512,1.228h5.616
	c6.533,0,12.96-0.459,19.258-1.328v56.109c0,4.263,3.455,7.718,7.718,7.718s7.718-3.454,7.718-7.718v-45.124h24.988v101.36H196.212
	V395.205z M402.642,475.306v21.259h-69.054V396.378C373.358,403.5,402.642,441.853,402.642,475.306z"/>
<path d="M255.896,188.172c-4.176-0.856-8.253,1.843-9.105,6.019l-6.861,33.614c-0.463,2.271,0.118,4.63,1.584,6.424
	c1.466,1.796,3.661,2.837,5.979,2.837h14.064c4.262,0,7.718-3.454,7.718-7.718c0-4.263-3.456-7.718-7.718-7.718h-4.611l4.97-24.353
	C262.766,193.101,260.071,189.024,255.896,188.172z"/>
<g>
</g>
<g>
</g>
<g>
</g>
<g>
</g>
<g>
</g>
<g>
</g>
<g>
</g>
<g>
</g>
<g>
</g>
<g>
</g>
<g>
</g>
<g>
</g>
<g>
</g>
<g>
</g>
<g>
</g>
</svg>
