<?xml version="1.0" encoding="iso-8859-1"?>
<!-- Generator: Adobe Illustrator 19.0.0, SVG Export Plug-In . SVG Version: 6.00 Build 0)  -->
<svg version="1.1" id="Layer_1" xmlns="http://www.w3.org/2000/svg" xmlns:xlink="http://www.w3.org/1999/xlink" x="0px" y="0px"
	 viewBox="0 0 512 512" style="enable-background:new 0 0 512 512;" xml:space="preserve">
<path style="fill:#FFDC64;" d="M281.583,418.761l-64.143-25.657h-68.552l-64.143,25.657c-13.013,5.205-21.546,17.809-21.546,31.824
	V504.5h51.414l0,0h137.103l0,0h51.414v-53.915C303.129,436.57,294.596,423.966,281.583,418.761z"/>
<g>
	<path style="fill:#FFC850;" d="M108.423,471.573l-36.996-43.162c-5.167,6.073-8.23,13.853-8.23,22.174V504.5h51.414v-16.197
		C114.612,482.166,112.417,476.232,108.423,471.573z"/>
	<path style="fill:#FFC850;" d="M257.904,471.573l36.996-43.162c5.167,6.073,8.23,13.853,8.23,22.174V504.5h-51.414v-16.197
		C251.716,482.166,253.911,476.232,257.904,471.573z"/>
	<path style="fill:#FFC850;" d="M217.44,393.103h-68.552l-25.622,10.249c0.899,32.343,27.338,58.303,59.898,58.303
		s59-25.96,59.898-58.303L217.44,393.103z"/>
</g>
<rect x="354.54" y="453.09" style="fill:#E6AF78;" width="34.28" height="51.41"/>
<path style="fill:#D29B6E;" d="M363.656,492.896h-9.113v-25.707h26.251v8.569C380.794,485.223,373.121,492.896,363.656,492.896z"/>
<path style="fill:#E6AF78;" d="M183.164,435.948L183.164,435.948c-18.93,0-34.276-15.346-34.276-34.276V341.69h68.552v59.983
	C217.44,420.602,202.094,435.948,183.164,435.948z"/>
<path style="fill:#D29B6E;" d="M148.888,388.069c10.868,3.237,22.357,5.034,34.276,5.034s23.408-1.797,34.276-5.034v-46.38h-68.552
	V388.069z"/>
<path style="fill:#F0C087;" d="M285.991,238.862h-8.569v-51.414H88.905v51.414h-8.569c-9.465,0-17.138,7.673-17.138,17.138
	s7.673,17.138,17.138,17.138h8.569c0,52.058,42.201,94.259,94.259,94.259s94.259-42.201,94.259-94.259h8.569
	c9.465,0,17.138-7.673,17.138-17.138C303.129,246.535,295.456,238.862,285.991,238.862z"/>
<path style="fill:#E6AF78;" d="M88.905,187.448v51.414h-7.652c-8.537,0-16.45,5.833-17.82,14.259
	c-1.747,10.737,6.495,20.017,16.903,20.017h8.569c0,52.058,42.201,94.259,94.259,94.259c8.924,0,17.525-1.323,25.707-3.641
	c-39.546-11.201-68.552-47.484-68.552-90.618v-85.69H88.905z"/>
<path style="fill:#785546;" d="M200.302,110.328h-34.276c-47.325,0-85.69,38.365-85.69,85.69v42.845h13.355
	c7.377,0,13.926-4.721,16.259-11.719l2.905-8.716c1.065-3.195,3.853-5.463,7.204-5.809c20.56-2.12,93.769-10.51,123.088-25.17
	l13.229,39.695c2.332,6.999,8.882,11.719,16.259,11.719h13.357v-42.845C285.991,148.692,247.627,110.328,200.302,110.328z"/>
<path style="fill:#64463C;" d="M140.319,196.017c0-42.945,31.625-78.406,72.836-84.623c-4.203-0.634-8.473-1.067-12.853-1.067
	h-34.276c-47.325,0-85.69,38.364-85.69,85.69v42.845h13.356c7.377,0,13.926-4.721,16.259-11.72l2.905-8.716
	c1.065-3.196,3.854-5.464,7.204-5.809c4.529-0.467,11.654-1.246,20.26-2.322v-14.278H140.319z"/>
<polygon style="fill:#FFDC64;" points="183.164,7.5 131.75,144.603 234.578,144.603 "/>
<polygon style="fill:#FFC850;" points="183.164,7.5 174.595,144.603 131.75,144.603 "/>
<path style="fill:#F0C087;" d="M388.819,401.672h-34.276c-9.465,0-17.138,7.673-17.138,17.138v34.276
	c0,9.465,7.673,17.138,17.138,17.138h17.138c9.465,0,17.138-7.673,17.138-17.138V401.672z"/>
<g>
	<path style="fill:#FF507D;" d="M448.802,84.621c0,68.552-34.528,128.534-77.121,128.534S294.56,153.172,294.56,84.621
		c0-42.593,34.528-77.121,77.121-77.121S448.802,42.028,448.802,84.621z"/>
	<polygon style="fill:#FF507D;" points="388.819,247.431 354.543,247.431 363.112,204.586 380.25,204.586 	"/>
</g>
<path style="fill:#D23C69;" d="M337.405,67.483c0-24.061,11.027-45.538,28.293-59.681c-39.788,3.063-71.138,36.246-71.138,76.819
	c0,68.552,34.528,128.534,77.121,128.534c13.931,0,26.963-6.506,38.243-17.541C369.485,191.464,337.405,133.534,337.405,67.483z"/>
<polygon style="fill:#FF507D;" points="158.076,74.4 199.823,51.922 183.164,7.5 "/>
<polygon style="fill:#D23C69;" points="179.71,62.751 183.164,7.5 158.076,74.4 "/>
<polygon style="fill:#FF507D;" points="222.76,113.088 210.153,79.473 141.061,119.776 131.75,144.603 169.358,144.603 "/>
<polygon style="fill:#D23C69;" points="177.473,98.535 141.061,119.776 131.75,144.603 169.358,144.603 174.796,141.395 "/>
<path d="M284.649,280.638h1.342c13.585,0,24.638-11.052,24.638-24.638c0-10.972-7.208-20.291-17.138-23.471v-36.512
	c0-20.23-6.374-39.474-18.434-55.649c-11.763-15.779-27.838-27.241-46.498-33.172L190.186,4.867C189.088,1.939,186.29,0,183.164,0
	s-5.925,1.939-7.022,4.867l-38.374,102.331c-18.394,5.849-34.895,17.613-46.49,33.16c-12.064,16.178-18.441,35.425-18.441,55.66
	v36.512c-9.93,3.18-17.138,12.499-17.138,23.471c0,13.585,11.053,24.638,24.638,24.638h1.342
	c2.78,38.011,26.536,70.285,59.709,85.28v22.108l-59.429,23.771c-15.953,6.382-26.261,21.607-26.261,38.788V504.5
	c0,4.142,3.358,7.5,7.5,7.5s7.5-3.358,7.5-7.5v-53.915c0-11.012,6.607-20.771,16.832-24.861l53.937-21.575
	c1.287,21.886,19.493,39.299,41.697,39.299c22.203,0,40.409-17.413,41.696-39.299l53.938,21.575
	c10.225,4.09,16.832,13.849,16.832,24.861V504.5c0,4.142,3.358,7.5,7.5,7.5s7.5-3.358,7.5-7.5v-53.915
	c0-17.181-10.308-32.406-26.261-38.788l-59.429-23.771v-22.108C258.113,350.923,281.869,318.649,284.649,280.638z M142.572,137.104
	l3.489-9.303l60.885-35.519l5.204,13.877l-53.049,30.945H142.572z M162.514,83.925l33.891-19.754l5.198,13.862l-47.207,27.539
	L162.514,83.925z M217.494,120.407l6.261,16.697h-34.884L217.494,120.407z M183.164,28.86l7.898,21.063l-20.216,11.784
	L183.164,28.86z M96.405,273.138c0-4.142-3.358-7.5-7.5-7.5h-8.569c-5.314,0-9.638-4.323-9.638-9.638s4.324-9.638,9.638-9.638H93.69
	c10.622,0,20.015-6.77,23.374-16.847l2.99-8.97c8.2-0.265,24.879-1.171,44.97-4.262c38.046-5.853,68.613-16.338,90.851-31.164
	c3.447-2.298,4.378-6.954,2.08-10.401s-6.955-4.377-10.4-2.08c-48.885,32.59-132.11,33.016-132.943,33.016
	c-3.228,0-6.094,2.066-7.115,5.128l-4.663,13.989c-1.314,3.942-4.988,6.59-9.143,6.59h-5.854v-35.345
	c0-29.976,16.756-56.627,42.783-69.759l-5.892,15.712c-0.864,2.303-0.543,4.884,0.858,6.905c1.401,2.022,3.705,3.228,6.165,3.228
	h102.828c2.46,0,4.763-1.206,6.165-3.228c1.401-2.022,1.722-4.602,0.858-6.906l-5.892-15.712
	c26.026,13.133,42.783,39.786,42.783,69.759v35.345h-5.854c-4.155,0-7.829-2.648-9.143-6.59l-4.663-13.988
	c-1.31-3.929-5.555-6.053-9.487-4.743c-3.929,1.31-6.053,5.557-4.743,9.487l4.663,13.988c3.358,10.077,12.751,16.847,23.374,16.847
	h13.354c5.314,0,9.638,4.323,9.638,9.638s-4.324,9.638-9.638,9.638h-8.569c-4.142,0-7.5,3.358-7.5,7.5
	c0,47.839-38.92,86.759-86.759,86.759S96.405,320.977,96.405,273.138z M209.939,401.672c0,14.764-12.012,26.776-26.776,26.776
	s-26.776-12.012-26.776-26.776v-30.351c8.535,2.33,17.512,3.575,26.776,3.575s18.241-1.246,26.776-3.575V401.672z"/>
<path d="M140.319,248.5c-4.142,0-7.5,3.358-7.5,7.5v8.569c0,4.142,3.358,7.5,7.5,7.5s7.5-3.358,7.5-7.5V256
	C147.819,251.858,144.461,248.5,140.319,248.5z"/>
<path d="M226.009,272.069c4.142,0,7.5-3.358,7.5-7.5V256c0-4.142-3.358-7.5-7.5-7.5s-7.5,3.358-7.5,7.5v8.569
	C218.509,268.711,221.867,272.069,226.009,272.069z"/>
<path d="M213.633,313.208c3.2-2.63,3.662-7.356,1.032-10.556s-7.356-3.662-10.556-1.031c-5.306,4.361-12.94,6.863-20.945,6.863
	s-15.638-2.501-20.944-6.863c-3.199-2.63-7.926-2.168-10.556,1.031c-2.63,3.2-2.168,7.926,1.032,10.556
	c8.061,6.626,18.882,10.275,30.469,10.275C194.751,323.483,205.572,319.834,213.633,313.208z"/>
<path d="M103.714,448.926c-2.297-3.447-6.955-4.378-10.4-2.08c-3.447,2.297-4.378,6.954-2.08,10.4l15.878,23.817V504.5
	c0,4.142,3.358,7.5,7.5,7.5s7.5-3.358,7.5-7.5v-25.707c0-1.481-0.438-2.928-1.26-4.16L103.714,448.926z"/>
<path d="M273.014,446.846c-3.445-2.297-8.103-1.367-10.4,2.08l-17.138,25.707c-0.821,1.232-1.26,2.679-1.26,4.16V504.5
	c0,4.142,3.358,7.5,7.5,7.5s7.5-3.358,7.5-7.5v-23.436l15.878-23.817C277.392,453.8,276.46,449.144,273.014,446.846z"/>
<path d="M371.681,0c-46.66,0-84.621,37.961-84.621,84.621c0,34.751,8.394,68.062,23.635,93.796
	c12.001,20.264,27.063,33.748,43.539,39.328l-6.967,27.867c-0.561,2.24-0.057,4.614,1.364,6.435
	c1.421,1.821,3.602,2.885,5.912,2.885h9.638v139.241h-9.638c-13.585,0-24.638,11.053-24.638,24.638v34.276
	c0,10.971,7.209,20.286,17.138,23.467V504.5c0,4.142,3.358,7.5,7.5,7.5s7.5-3.358,7.5-7.5v-26.776h9.638
	c3.418,0,6.676-0.701,9.638-1.965V504.5c0,4.142,3.358,7.5,7.5,7.5s7.5-3.358,7.5-7.5v-51.414v-51.414c0-4.142-3.358-7.5-7.5-7.5
	h-9.638V254.931h9.638c2.31,0,4.49-1.064,5.912-2.884c1.421-1.821,1.925-4.194,1.364-6.435l-6.967-27.867
	c16.476-5.58,31.538-19.064,43.539-39.328c15.242-25.735,23.635-59.045,23.635-93.796C456.302,37.961,418.341,0,371.681,0z
	 M381.319,453.086c0,5.314-4.323,9.638-9.638,9.638h-17.138c-5.314,0-9.638-4.323-9.638-9.638V418.81
	c0-5.314,4.323-9.638,9.638-9.638h26.776V453.086z M374.394,220.655l4.819,19.276h-15.064l4.819-19.276H374.394z M419.76,170.773
	c-13.322,22.494-30.397,34.882-48.079,34.882c-17.683,0-34.757-12.388-48.08-34.882c-13.689-23.115-21.541-54.516-21.541-86.152
	C302.06,46.232,333.291,15,371.681,15s69.621,31.232,69.621,69.621C441.302,116.257,433.45,147.658,419.76,170.773z"/>
<path d="M421.013,74.547c-4.759-23.335-25.506-40.271-49.332-40.271c-4.142,0-7.5,3.358-7.5,7.5s3.358,7.5,7.5,7.5
	c16.728,0,31.293,11.889,34.634,28.269c0.725,3.553,3.85,6.003,7.341,6.003c0.497,0,1.001-0.05,1.506-0.153
	C419.221,82.567,421.84,78.606,421.013,74.547z"/>
<g>
</g>
<g>
</g>
<g>
</g>
<g>
</g>
<g>
</g>
<g>
</g>
<g>
</g>
<g>
</g>
<g>
</g>
<g>
</g>
<g>
</g>
<g>
</g>
<g>
</g>
<g>
</g>
<g>
</g>
</svg>
