<?xml version="1.0" encoding="iso-8859-1"?>
<!-- Generator: Adobe Illustrator 19.0.0, SVG Export Plug-In . SVG Version: 6.00 Build 0)  -->
<svg version="1.1" id="Layer_1" xmlns="http://www.w3.org/2000/svg" xmlns:xlink="http://www.w3.org/1999/xlink" x="0px" y="0px"
	 viewBox="0 0 511.998 511.998" style="enable-background:new 0 0 511.998 511.998;" xml:space="preserve">
<path style="fill:#363640;" d="M380.34,346.128H131.659c-38.437,0-69.596,31.16-69.596,69.596v88.414h387.874v-88.414
	C449.937,377.287,418.777,346.128,380.34,346.128z"/>
<polygon style="fill:#FFF7E6;" points="219.328,504.138 292.671,504.138 356.093,346.128 155.907,346.128 "/>
<path style="fill:#5A4146;" d="M109.947,198.454v-27.832C109.947,90.089,175.466,24.57,256,24.57s146.053,65.519,146.053,146.053
	v27.832H109.947z"/>
<g>
	<circle style="fill:#F2B09D;" cx="140.17" cy="205.794" r="34.652"/>
	<circle style="fill:#F2B09D;" cx="371.822" cy="205.794" r="34.652"/>
</g>
<path style="opacity:0.1;enable-background:new    ;" d="M94.197,357.085c12.712,20.395,31.465,32.069,51.626,32.069h220.357
	c20.161,0,38.914-11.674,51.625-32.069c-10.817-6.925-23.665-10.956-37.462-10.956H131.659
	C117.862,346.128,105.013,350.159,94.197,357.085z"/>
<path style="fill:#FFBBA8;" d="M366.179,223.112v-52.489c0-60.851-49.328-110.179-110.179-110.179l0,0
	c-60.85,0-110.179,49.328-110.179,110.179v52.489c-23.32,0-42.225,31.304-42.225,69.919s18.904,69.919,42.225,69.919h220.358
	c23.32,0,42.225-31.304,42.225-69.919C408.404,254.416,389.499,223.112,366.179,223.112z"/>
<g>
	<path style="fill:#5A4146;" d="M232.879,201.773c-19.288-17.441-29.184,18.952-55.361-2.757c0,0-8.343,48.602,37.351,38.947
		s31.924-28.412,31.924-28.412L232.879,201.773z"/>
	<path style="fill:#5A4146;" d="M279.12,201.773c19.288-17.441,29.184,18.952,55.361-2.757c0,0,8.343,48.602-37.351,38.947
		s-31.924-28.412-31.924-28.412L279.12,201.773z"/>
</g>
<path style="fill:#E18CAF;" d="M256,178.652c-12.77,0-23.121,10.352-23.121,23.121v3.868c0,12.77,10.352,23.121,23.121,23.121
	c12.77,0,23.121-10.352,23.121-23.121v-3.868C279.121,189.003,268.77,178.652,256,178.652z"/>
<path style="fill:#735359;" d="M369.361,37.454C332.749,42.01,319.628-21.067,256,24.448
	c-63.628-45.515-76.749,17.562-113.361,13.005c-4.724-0.588-7.969,4.654-5.151,8.49C150.476,63.622,183.75,91.332,256,64.423
	c72.25,26.909,105.524-0.801,118.512-18.479C377.33,42.107,374.085,36.867,369.361,37.454z"/>
<path style="fill:#8C656D;" d="M151.612,60.29C181.88,55.008,197.846,5.909,256,47.508c58.154-41.599,74.12,7.501,104.388,12.782
	c6.219-4.724,10.827-9.858,14.125-14.346c2.818-3.836-0.427-9.078-5.151-8.49c-36.612,4.556-49.733-58.521-113.361-13.005
	C192.372-21.067,179.252,42.01,142.64,37.454c-4.724-0.588-7.969,4.654-5.151,8.49C140.785,50.433,145.394,55.567,151.612,60.29z"/>
<g>
	<path style="fill:#CC5051;" d="M201.178,390.711c2.512,23.262,43.647-9.625,43.647-9.625v-15.632c0,0-41.135-32.886-43.647-9.625
		V390.711z"/>
	<path style="fill:#CC5051;" d="M310.82,390.711c-2.512,23.262-43.647-9.625-43.647-9.625v-15.632c0,0,41.135-32.886,43.647-9.625
		V390.711z"/>
</g>
<path style="fill:#FF6465;" d="M261.346,355.495h-10.692c-9.817,0-17.775,7.958-17.775,17.775l0,0
	c0,9.817,7.958,17.775,17.775,17.775h10.692c9.817,0,17.775-7.958,17.775-17.775l0,0
	C279.121,363.453,271.163,355.495,261.346,355.495z"/>
<path style="fill:#2B2B33;" d="M256,255.636L256,255.636c-17.97,0-32.536,14.566-32.536,32.536v14.17
	c0,0.214,0.012,0.426,0.016,0.638l32.52,2.996l32.519-2.997c0.004-0.213,0.016-0.424,0.016-0.638v-14.17
	C288.536,270.204,273.968,255.636,256,255.636z"/>
<path style="fill:#FF6465;" d="M288.52,302.98c-9.098-3.986-20.344-6.346-32.519-6.346l0,0c-12.176,0-23.421,2.359-32.52,6.346
	c0.342,17.673,14.765,31.897,32.52,31.897l0,0C273.755,334.878,288.177,320.654,288.52,302.98z"/>
<path d="M237.364,133.479c-5.671-10.726-17.849-17.657-31.027-17.657s-25.355,6.93-31.026,17.657
	c-2.029,3.838-0.562,8.594,3.277,10.624c3.837,2.03,8.594,0.562,10.624-3.277c2.981-5.638,9.703-9.281,17.126-9.281
	c7.423,0,14.146,3.644,17.127,9.281c1.411,2.668,4.136,4.189,6.958,4.189c1.239-0.001,2.496-0.293,3.666-0.913
	C237.927,142.073,239.393,137.318,237.364,133.479z"/>
<path d="M206.337,146.89c-10.093,0-19.442,5.349-23.818,13.624c-2.03,3.838-0.564,8.595,3.274,10.624
	c3.839,2.032,8.595,0.563,10.624-3.274c1.686-3.19,5.58-5.251,9.92-5.251c4.34,0,8.233,2.062,9.921,5.251
	c1.41,2.667,4.135,4.188,6.957,4.188c1.239,0,2.496-0.293,3.667-0.914c3.838-2.029,5.305-6.786,3.274-10.624
	C225.781,152.238,216.431,146.89,206.337,146.89z"/>
<path d="M336.632,133.479c-5.671-10.726-17.848-17.657-31.026-17.657s-25.356,6.93-31.027,17.657
	c-2.029,3.838-0.562,8.594,3.277,10.624c3.838,2.03,8.594,0.563,10.624-3.277c2.981-5.638,9.704-9.281,17.127-9.281
	c7.423,0,14.145,3.644,17.126,9.281c1.411,2.668,4.136,4.189,6.958,4.189c1.239,0,2.496-0.293,3.666-0.913
	C337.194,142.073,338.661,137.318,336.632,133.479z"/>
<path d="M305.606,146.89c-10.094,0-19.443,5.349-23.819,13.624c-2.03,3.838-0.564,8.595,3.274,10.624
	c3.839,2.031,8.595,0.563,10.624-3.274c1.686-3.19,5.58-5.251,9.921-5.251s8.232,2.061,9.919,5.25
	c1.41,2.668,4.136,4.189,6.958,4.189c1.239,0,2.496-0.293,3.666-0.913c3.838-2.029,5.306-6.786,3.277-10.624
	C325.05,152.238,315.701,146.89,305.606,146.89z"/>
<circle cx="253.947" cy="433.129" r="8.887"/>
<circle cx="253.947" cy="473.755" r="8.887"/>
<path d="M308.212,247.002c9.732-0.083,19.233-2.99,25.841-10.83c5.23-6.205,8.178-14.644,8.758-25.081
	c0.335-6.028,1.526-16.801-5.631-19.447c-3.612-1.335-6.523,0.523-9.354,2.588c-3.352,2.444-7.291,4.416-11.556,3.965
	c-4.318-0.457-8.094-3.024-11.868-4.949c-4.486-2.288-9.234-4.24-14.353-4.24c-1.864,0-3.701,0.277-5.511,0.777
	c-4.696-11.147-15.733-18.994-28.567-18.994c-12.835,0-23.871,7.846-28.566,18.994c-1.811-0.5-3.648-0.777-5.511-0.777
	c-9.376,0-15.996,6.709-24.662,8.878c-5.494,1.375-10.625-1.522-14.723-4.921c-3.608-2.991-9.219-2.08-11.694,1.902
	c-2.579,4.15-1.939,11.58-1.679,16.224c0.474,8.492,2.624,17.249,7.941,24.066c5.262,6.746,13.319,10.721,21.741,11.667
	c5.886,0.661,11.876,0.05,17.65-1.17c12.748-2.694,22.268-6.284,28.898-10.904c3.311,1.211,6.883,1.872,10.607,1.872
	s7.297-0.661,10.608-1.872c6.629,4.62,16.149,8.209,28.899,10.904C299.617,246.53,303.936,247.038,308.212,247.002z
	 M213.214,230.272c-3.452,0.728-6.64,1.1-9.477,1.1c-0.001,0-0.003,0-0.004,0c-6.256-0.001-10.767-1.736-13.792-5.305
	c-3.033-3.577-4.407-8.736-4.928-13.61c3.021,1.044,6.051,1.56,9.122,1.56c7.602-0.001,13.804-3.245,18.788-5.851
	c3.379-1.767,6.57-3.436,8.97-3.436c0.703,0,1.698,0.128,3.097,0.933c0.001,0.817,0.042,1.623,0.105,2.423
	c0.007,0.089,0.013,0.177,0.02,0.266c0.531,6.093,2.832,11.684,6.386,16.258C227.425,226.515,221.584,228.504,213.214,230.272z
	 M247.494,218.292c-2.161-1.449-3.961-3.438-5.147-5.815c-1.686-3.382-1.635-7.023-1.636-10.704c0-8.414,6.845-15.26,15.26-15.26
	s15.26,6.846,15.261,15.259c0,2.198,0.145,4.464-0.26,6.635c-0.287,1.541-0.822,3.037-1.556,4.42
	c-2.608,4.91-7.892,8.074-13.445,8.074C252.927,220.9,249.973,219.953,247.494,218.292z M280.442,224.61
	c0.001-0.001,0.002-0.003,0.003-0.004c3.549-4.569,5.848-10.151,6.382-16.236c0.009-0.105,0.016-0.21,0.024-0.314
	c0.061-0.781,0.101-1.567,0.102-2.364c0-0.01,0.001-0.02,0.001-0.03c1.398-0.805,2.393-0.933,3.096-0.933
	c2.399,0,5.59,1.67,8.967,3.436c4.985,2.606,11.186,5.851,18.789,5.851c0,0,0.003,0,0.004,0c3.071-0.001,6.101-0.517,9.121-1.561
	c-0.52,4.876-1.894,10.036-4.925,13.613c-3.025,3.567-7.536,5.303-13.793,5.303c-0.001,0-0.001,0-0.002,0
	c-2.84,0-6.031-0.371-9.483-1.1C290.358,228.504,284.518,226.515,280.442,224.61z"/>
<path d="M296.356,302.988c0.007-0.214,0.013-0.429,0.013-0.646v-14.17c0-22.275-18.122-40.397-40.397-40.397
	s-40.397,18.122-40.397,40.397v14.17c0,0.221,0.006,0.439,0.014,0.657l0.004,0.132v0.001v0.001
	c0.422,21.838,18.538,39.606,40.38,39.606s39.957-17.767,40.379-39.606v-0.001v-0.001L296.356,302.988z M231.296,288.173
	c0-13.605,11.07-24.675,24.676-24.675c13.605,0,24.674,11.07,24.674,24.675v3.765c-8.018-2.164-16.374-3.163-24.675-3.163
	c-8.28,0-16.672,1.004-24.675,3.163L231.296,288.173L231.296,288.173z M255.971,327.017c-11.511,0-21.326-8.081-23.966-18.868
	c-0.354-1.454,21.366-3.653,23.967-3.653c7.837,0,15.718,1.04,23.204,3.396c0.258,0.081,0.506,0.173,0.762,0.257
	C277.298,318.935,267.484,327.017,255.971,327.017z"/>
<path d="M405.147,342.354c4.356-8.402,7.63-18.367,9.475-29.518c0.71-4.283-2.189-8.33-6.472-9.039
	c-4.279-0.704-8.33,2.189-9.039,6.472c-4.024,24.308-16.426,42.376-30.132,44.59c-0.089,0.014-0.179,0.024-0.269,0.037
	c-2.897,0.423-5.975,0.194-8.899,0.194c-2.988,0-5.978,0-8.966,0c-0.614,0-1.228,0-1.844,0h-30.383
	c-0.003-0.035-0.007-0.069-0.01-0.105c-0.124-1.141-0.332-2.278-0.627-3.388c-1.717-6.47-5.87-9.315-8.429-10.48
	c-11.953-5.443-25.71,3.495-35.467,9.779c-0.041,0.026-0.079,0.049-0.12,0.075c-0.273,0.176-4.166-1.886-4.697-2.059
	c-2.557-0.83-5.262-1.279-7.952-1.279c-3.923,0-8.083-0.206-12.085,0.139c-2.157,0.187-4.306,0.526-6.383,1.145
	c-0.749,0.223-4.492,2.297-5.018,1.959c-9.507-6.107-23.825-15.05-35.441-9.761c-2.56,1.166-6.712,4.01-8.434,10.498
	c-0.304,1.145-0.491,2.303-0.632,3.477c-10.127,0.003-20.256-0.002-30.383-0.002c-4.433,0-8.866,0-13.299,0
	c-2.93,0-5.874,0.115-8.728-0.666c-6.744-1.847-11.984-7.205-15.421-11.84c-0.174-0.234-0.367-0.447-0.563-0.656
	c-8.149-11.467-13.501-29.289-13.501-48.896c0-21.435,6.395-40.735,15.85-51.93c0.205-0.188,0.402-0.387,0.59-0.6
	c4.533-5.139,10.817-9.529,17.924-9.529c4.342,0,7.861-3.519,7.861-7.861v-51.5v-0.989c0-13.867,3.009-27.663,8.4-40.42
	c7.419-17.558,20.245-33.111,35.949-43.889c0.872-0.598,3.247-2.814,4.345-2.827c0.11-0.001,0.223-0.006,0.333-0.008
	c13.447-0.187,26.805-2.542,39.696-6.306c4.572-1.335,9.112-2.772,13.597-4.38c0.651-0.234,3.421,1.193,4.078,1.416
	c15.766,5.353,32.439,9.036,49.21,9.269c0.111,0.001,0.224,0.006,0.335,0.008c11.171,6.894,21.039,15.938,28.754,26.568
	c7.623,10.503,13.484,22.412,16.661,35.023c2.103,8.349,3.28,16.93,3.28,25.545l-0.001,52.489c0,2.085,0.828,4.084,2.302,5.559
	c2.179,2.181,4.579,2.099,7.422,2.406c6.431,0.693,11.891,4.697,16.062,9.425c0.071,0.082,0.151,0.152,0.225,0.23
	c7.773,8.96,13.626,23.379,15.533,40.259c0.486,4.314,4.376,7.414,8.693,6.929c4.313-0.487,7.416-4.38,6.929-8.694
	c-1.832-16.217-6.961-31.194-14.505-42.484c8.477-7.946,13.361-19.015,13.361-30.945c0-6.769-1.597-13.168-4.424-18.854v-16.321
	c0-39.371-15.366-77.478-42.433-105.983c5.969-4.891,10.347-9.931,13.367-14.042c2.955-4.023,3.394-9.28,1.147-13.72
	c-2.29-4.521-6.852-7.33-11.908-7.33c-2.701,0-5.249,0.435-7.95,0.013c-8.615-1.348-15.892-7.162-22.738-12.144
	C328.154,9.253,315.441,0,297.636,0c-12.849,0-26.52,4.883-41.665,14.906C240.826,4.883,227.155,0,214.305,0
	c-17.806,0-30.52,9.253-41.736,17.417c-6.608,4.81-13.341,10.335-21.576,11.949c-3.025,0.593-6.056,0.181-9.107,0.181
	c-5.056,0-9.62,2.809-11.908,7.33c-2.248,4.44-1.809,9.698,1.148,13.721c3.021,4.111,7.4,9.154,13.37,14.045
	c-8.072,8.488-15.174,17.855-21.148,27.971c-2.207,3.738-0.966,8.558,2.772,10.766c3.739,2.207,8.558,0.968,10.766-2.772
	c5.831-9.873,12.839-18.966,20.881-27.099c-0.081,0.082,19.299,7.155,20.979,7.745c-1.039-0.365-10.413,10.691-11.57,11.956
	c-3.585,3.921-6.783,8.109-9.701,12.547c-6.37,9.692-11.337,20.308-14.651,31.424c-2.396,8.037-3.965,16.567-4.579,25.029
	c-0.02,0.281-0.045,0.561-0.064,0.842c-0.006,0.093-0.015,0.186-0.021,0.278c-0.026,0.001-0.052,0.005-0.08,0.006
	c-7.111,0.342-14.155,2.542-20.216,6.273c-0.027,0.017-0.056,0.03-0.083,0.047c0.099-14.32,2.389-28.421,6.811-41.926
	c1.351-4.127-0.898-8.567-5.025-9.918c-4.128-1.351-8.567,0.899-9.918,5.025c-5.04,15.391-7.594,31.467-7.594,47.783v16.321
	c-2.826,5.686-4.424,12.085-4.424,18.854c0,11.906,4.866,22.955,13.312,30.897c-9.439,14.065-15.238,33.953-15.238,56.337
	c0,18.892,4.133,36.003,11.095,49.341C75.748,352.838,54.2,382.086,54.2,415.723v28.944c0,4.343,3.519,7.861,7.861,7.861
	s7.861-3.519,7.861-7.861v-28.944c0-28.309,19.137-52.725,46.126-59.725c6.729,7.604,14.776,12.626,23.593,14.235
	c0.078,0.015,0.154,0.03,0.232,0.044c1.914,0.345,3.866,0.523,5.81,0.529c0.036,0,0.071,0.004,0.135,0.004h11.805l50.359,125.465
	h-69.199v-89.511c0-4.342-3.519-7.861-7.861-7.861c-4.343,0-7.861,3.519-7.861,7.861v89.511H69.923v-20.164
	c0-4.342-3.519-7.861-7.861-7.861s-7.861,3.519-7.861,7.861v28.026c0,4.342,3.519,7.861,7.861,7.861h387.874
	c4.342,0,7.861-3.519,7.861-7.861v-88.415C457.798,382.068,436.226,352.806,405.147,342.354z M116.889,192.624
	c2.295-4.044,5.615-7.514,9.679-9.907c0.031-0.019,0.064-0.037,0.095-0.056c3.43-2.012,7.31-3.222,11.27-3.551v37.052
	c-5.977,1.406-11.573,4.401-16.615,8.702c-5.062-4.975-7.961-11.768-7.961-19.067C113.356,201.17,114.623,196.618,116.889,192.624z
	 M377.22,179.568c12.111,2.504,21.368,13.693,21.368,26.23c0,7.312-2.909,14.117-7.986,19.093c-0.383-0.328-0.772-0.631-1.16-0.943
	c-0.048-0.039-0.095-0.079-0.144-0.116c-4.772-3.806-9.914-6.396-15.286-7.664v-0.058l0.001-36.998
	c1.028,0.086,2.046,0.222,3.047,0.423C377.113,179.546,377.167,179.556,377.22,179.568z M394.077,169.611
	c-6.058-3.729-13.105-5.935-20.214-6.273c-0.027-0.001-0.053-0.005-0.08-0.006c-0.006-0.093-0.015-0.186-0.021-0.278
	c-0.018-0.281-0.043-0.561-0.064-0.842c-1.628-22.452-9.911-44.2-23.303-62.266c-4.208-5.678-8.926-10.97-14.106-15.778
	c-0.334-0.31-2.85-3.082-3.317-2.979c7.57-1.664,14.651-4.227,21.203-7.678c25.256,25.567,39.729,60.243,39.984,96.147
	C394.133,169.642,394.105,169.628,394.077,169.611z M181.82,30.129c10.18-7.408,19.795-14.407,32.485-14.407
	c10.735,0,22.868,4.946,37.092,15.121c2.735,1.957,6.412,1.957,9.147,0c14.223-10.174,26.356-15.121,37.091-15.121
	c12.688,0,22.303,6.997,32.481,14.406c10.223,7.441,20.784,15.13,34.615,15.416c-3.458,3.945-7.826,7.926-13.281,11.411
	c-0.086,0.049-0.177,0.083-0.262,0.136c-22.479,14.2-50.903,12.234-75.516,5.47c-4.134-1.136-8.278-2.338-12.298-3.835
	c-2.382-0.888-4.804-2.164-7.405-2.164c-0.93,0-1.858,0.165-2.743,0.495c-29.759,11.091-66.523,18.004-94.572-1.318
	c-2.255-1.553-4.406-3.26-6.436-5.099c-0.763-0.692-4.209-5.113-5.011-5.095C161.038,45.255,171.6,37.568,181.82,30.129z
	 M213.434,355.822c4.972,1.16,9.464,4.318,13.74,6.928c0.015,0.009,0.031,0.02,0.046,0.029c-0.269-0.166-1.942,6.747-1.999,7.197
	c-0.561,4.448,0.012,9.026,1.741,13.166c-8.624,5.263-14.499,7.255-17.358,7.256c-0.156,0-0.285-0.007-0.39-0.016
	c-0.055-0.171-0.117-0.436-0.174-0.774V362.95c0-0.192-0.015-0.379-0.028-0.568v-6.07c0.033-0.22,0.068-0.406,0.104-0.561
	c0.005-0.022,0.009-0.035,0.015-0.056c0.029-0.122,0.059-0.23,0.086-0.313c0.104-0.009,0.232-0.017,0.389-0.017
	C210.915,355.367,212.189,355.532,213.434,355.822z M286.495,361.683c4.697-2.9,10.453-6.316,15.843-6.316
	c0.157,0,0.286,0.007,0.389,0.017c0.085,0.009,0.204,0.859,0.204,0.93v33.139c-0.063,0.431-0.139,0.732-0.203,0.93
	c-0.104,0.009-0.233,0.017-0.391,0.017c-2.859,0-8.733-1.993-17.356-7.257c0.245,0.15,1.801-6.932,1.851-7.488
	c0.4-4.378-0.305-8.86-2.11-12.874C285.293,362.428,285.885,362.061,286.495,361.683z M261.317,363.356
	c4.052,0,7.909,2.724,9.307,6.51c0.656,1.779,0.783,3.743,0.362,5.592c-0.949,4.157-5.489,6.951-9.668,6.951
	c-0.003,0-10.671,0-10.691,0c-3.943,0-8.725-2.984-9.644-6.865c-0.39-1.649-0.342-3.379,0.118-5.009
	c1.183-4.192,5.187-7.179,9.527-7.179H261.317z M193.29,370.812c0,7.377-1.156,15.88,0.427,23.096
	c0.516,2.35,1.427,4.685,2.842,6.644c6.154,8.518,16.931,6.924,25.434,3.552c4.392-1.742,9.665-4.439,16.011-8.534
	c0.013,0.007,0.025,0.013,0.038,0.02c6.237,3.498,13.034,3.315,19.953,3.315c5.655,0,10.979-0.478,15.987-3.328
	c0.031,0.02,0.061,0.038,0.091,0.058c6.179,3.983,12.663,7.649,19.722,9.821c0.033,0.009,0.065,0.019,0.096,0.029
	c9.281,2.833,13.697,0.83,15.661-0.064c2.56-1.166,6.716-4.012,8.433-10.495c0.521-1.967,1.102-24.116,0.668-24.116h18.722
	l-50.048,124.692h-62.712l-50.048-124.692h18.723V370.812z M442.076,496.278H388.88v-89.511c0-4.342-3.519-7.861-7.861-7.861
	s-7.861,3.519-7.861,7.861v89.511h-69.199l50.359-125.465c0,0,11.833,0,11.862,0c1.358,0,2.729-0.085,4.078-0.251
	c9.581-1.149,18.386-6.305,25.678-14.566c26.997,6.994,46.141,31.415,46.141,59.729L442.076,496.278L442.076,496.278z"/>
<g>
</g>
<g>
</g>
<g>
</g>
<g>
</g>
<g>
</g>
<g>
</g>
<g>
</g>
<g>
</g>
<g>
</g>
<g>
</g>
<g>
</g>
<g>
</g>
<g>
</g>
<g>
</g>
<g>
</g>
</svg>
