<?xml version="1.0" encoding="iso-8859-1"?>
<!-- Generator: Adobe Illustrator 19.0.0, SVG Export Plug-In . SVG Version: 6.00 Build 0)  -->
<svg version="1.1" id="Capa_1" xmlns="http://www.w3.org/2000/svg" xmlns:xlink="http://www.w3.org/1999/xlink" x="0px" y="0px"
	 viewBox="0 0 512.002 512.002" style="enable-background:new 0 0 512.002 512.002;" xml:space="preserve">
<rect x="115.75" y="153.5" style="fill:#484655;" width="280.5" height="101.5"/>
<g>
	<path style="fill:#FA9E3E;" d="M125.839,223.99h49.369v56.61h-49.369c-15.632,0-28.305-12.673-28.305-28.305
		S110.207,223.99,125.839,223.99z"/>
	<path style="fill:#FA9E3E;" d="M386.161,223.99h-49.369v56.61h49.369c15.632,0,28.305-12.673,28.305-28.305
		S401.793,223.99,386.161,223.99z"/>
</g>
<path style="fill:#FB403F;" d="M203.073,363.444h105.855c41.621,0,75.362,33.741,75.362,75.362V504.5H127.711v-65.694
	C127.711,397.184,161.452,363.444,203.073,363.444z"/>
<path style="fill:#C21C1C;" d="M308.927,363.444h-22.632c41.621,0,75.362,33.741,75.362,75.362V504.5h22.632v-65.695
	C384.289,397.184,350.548,363.444,308.927,363.444z"/>
<path style="fill:#5880A2;" d="M349.451,375.25V504.5h-24.57V365.14C333.75,367.04,342.04,370.52,349.451,375.25z"/>
<rect x="310.891" y="442.33" style="fill:#FFB700;" width="52.55" height="24.333"/>
<path style="fill:#5880A2;" d="M187.12,365.14V504.5h-24.57V375.25C169.96,370.52,178.25,367.04,187.12,365.14z"/>
<rect x="148.56" y="442.33" style="fill:#FFB700;" width="52.55" height="24.333"/>
<polygon style="fill:#FA9E3E;" points="298.1,267.73 298.1,363.08 256,400 213.9,363.08 213.9,267.73 "/>
<path style="fill:#FFB56B;" d="M143.89,164v66.68c0,61.91,50.19,112.11,112.11,112.11s112.11-50.2,112.11-112.11V164H143.89z"/>
<path style="fill:#EF9245;" d="M344.781,242.342c0,53.578-41.949,97.354-94.795,100.286c0.99,0.052,1.984,0.092,2.981,0.119
	c0.006,0,0.012,0.001,0.018,0.001c1.002,0.027,2.007,0.041,3.015,0.041l0,0c2.841,0,5.657-0.108,8.445-0.315
	c0.145-0.011,0.289-0.023,0.433-0.034c1.704-0.134,3.397-0.306,5.079-0.515c55.332-6.872,98.152-54.062,98.152-111.246V164h-23.329
	L344.781,242.342L344.781,242.342z"/>
<path style="fill:#FB403F;" d="M135.825,19.586L135.825,19.586c0,6.675,5.411,12.086,12.086,12.086h7.402
	c5.795,0,10.493,4.698,10.493,10.493l0,0c0,5.795-4.698,10.493-10.493,10.493h-5.927c-11.422,0-20.682,9.259-20.682,20.682v58.189
	h254.591v-28.502c0-52.759-42.769-95.528-95.528-95.528H147.911C141.236,7.5,135.825,12.911,135.825,19.586z"/>
<g>
	<path style="fill:#C21C1C;" d="M287.767,7.5h-22.686c52.759,0,95.528,42.769,95.528,95.528v28.502h22.686v-28.502
		C383.296,50.269,340.526,7.5,287.767,7.5z"/>
	<path style="fill:#C21C1C;" d="M123.546,117.817h264.908c14.336,0,25.958,11.622,25.958,25.958v11.462
		c0,14.336-11.622,25.958-25.958,25.958H123.546c-14.336,0-25.958-11.622-25.958-25.958v-11.462
		C97.589,129.439,109.21,117.817,123.546,117.817z"/>
</g>
<path style="fill:#931111;" d="M388.454,117.817h-23.622c14.336,0,25.958,11.622,25.958,25.958v11.462
	c0,14.336-11.622,25.958-25.958,25.958h23.622c14.336,0,25.958-11.622,25.958-25.958v-11.462
	C414.411,129.439,402.79,117.817,388.454,117.817z"/>
<path style="fill:#484655;" d="M366.77,226.08c-5.24,33.58-25.37,62.23-53.44,78.96v-10.83c0-28.65-23.23-51.88-51.88-51.88h-10.9
	c-28.65,0-51.88,23.23-51.88,51.88v10.83c-28.07-16.73-48.2-45.38-53.44-78.96h-1.34v66.68c0,61.91,50.19,112.11,112.11,112.11
	s112.11-50.2,112.11-112.11v-66.68L366.77,226.08L366.77,226.08z M282.667,311.027c0,8.821-7.151,15.973-15.973,15.973h-21.388
	c-8.821,0-15.973-7.151-15.973-15.973v-3.761c0-14.728,11.939-26.667,26.667-26.667l0,0c14.728,0,26.667,11.939,26.667,26.667
	V311.027z"/>
<path d="M310.324,215.962c-4.142,0-7.5,3.357-7.5,7.5v2c0,4.143,3.358,7.5,7.5,7.5s7.5-3.357,7.5-7.5v-2
	C317.824,219.319,314.466,215.962,310.324,215.962z"/>
<path d="M201.676,215.962c-4.142,0-7.5,3.357-7.5,7.5v2c0,4.143,3.358,7.5,7.5,7.5s7.5-3.357,7.5-7.5v-2
	C209.176,219.319,205.818,215.962,201.676,215.962z"/>
<path d="M289.75,301.924c-1.023-6.536-3.91-12.609-8.409-17.578c-0.381-0.421-0.774-0.834-1.178-1.239
	C273.71,276.653,265.128,273.1,256,273.1c-18.841,0-34.17,15.328-34.17,34.17v3.761c0,12.941,10.533,23.47,23.48,23.47h21.38
	c12.947,0,23.48-10.528,23.48-23.47v-3.761c0-1.139-0.055-2.271-0.165-3.39C289.94,303.223,289.852,302.572,289.75,301.924z
	 M275.171,311.03c0,4.67-3.804,8.47-8.48,8.47h-21.38c-4.676,0-8.48-3.8-8.48-8.47v-3.761c0-10.57,8.6-19.17,19.17-19.17
	c0.64,0,1.276,0.031,1.905,0.093c4.402,0.431,8.484,2.354,11.652,5.521c0.036,0.036,0.066,0.076,0.101,0.112
	c0.413,0.42,0.81,0.853,1.179,1.303c0.09,0.11,0.165,0.228,0.252,0.34c0.302,0.385,0.601,0.771,0.871,1.175
	c0.175,0.262,0.323,0.538,0.484,0.808c0.16,0.266,0.333,0.525,0.478,0.798c0.184,0.345,0.339,0.704,0.501,1.059
	c0.096,0.21,0.208,0.413,0.296,0.627c0.22,0.53,0.409,1.072,0.58,1.621c0.014,0.045,0.034,0.088,0.048,0.134
	c0.16,0.529,0.289,1.069,0.404,1.613c0.014,0.068,0.037,0.134,0.051,0.202c0.244,1.227,0.368,2.487,0.368,3.766V311.03z"/>
<path d="M375.61,288.1h10.55c19.746,0,35.81-16.064,35.81-35.81c0-13.351-7.354-25.011-18.22-31.165v-36.133
	c11.051-5.638,18.16-16.984,18.16-29.752v-11.47c0-17.654-13.754-32.147-31.11-33.357v-7.382c0-20.365-5.935-40.06-17.164-56.951
	c-2.292-3.448-6.947-4.388-10.398-2.095c-3.45,2.293-4.387,6.948-2.094,10.397c9.588,14.425,14.656,31.247,14.656,48.648v7.29
	H194.82c-4.142,0-7.5,3.357-7.5,7.5s3.358,7.5,7.5,7.5h193.63c10.179,0,18.46,8.276,18.46,18.449v11.471
	c0,8.104-5.185,15.175-12.925,17.601c-1.778,0.563-3.641,0.849-5.535,0.849h-20.34H143.89h-20.34c-1.002,0-1.994-0.085-2.97-0.244
	c-0.873-0.143-1.737-0.343-2.587-0.612c-7.718-2.418-12.903-9.488-12.903-17.593V143.77c0-10.173,8.281-18.449,18.46-18.449h41.27
	c4.142,0,7.5-3.357,7.5-7.5s-3.358-7.5-7.5-7.5H136.2V73.34c0-7.267,5.917-13.18,13.19-13.18h5.92c0.007,0,0.013-0.001,0.02-0.001
	H191c4.142,0,7.5-3.357,7.5-7.5s-3.358-7.5-7.5-7.5h-17.954c0.163-0.98,0.264-1.976,0.264-2.989c0-9.925-8.075-18-18-18h-7.4
	c-1.221,0-2.371-0.477-3.237-1.344c-0.866-0.866-1.343-2.016-1.343-3.236c0-2.531,2.055-4.59,4.58-4.59h139.86
	c20.124,0,39.066,6.611,54.779,19.118c3.241,2.579,7.959,2.044,10.539-1.197s2.043-7.959-1.197-10.539
	C333.495,7.739,311.322,0,287.77,0H147.91c-10.796,0-19.58,8.788-19.58,19.59c0,5.229,2.038,10.145,5.736,13.843
	c3.699,3.7,8.615,5.737,13.844,5.737h7.4c1.654,0,3,1.346,3,3c0,1.082-0.546,1.79-0.859,2.103c-0.332,0.331-1.051,0.884-2.133,0.887
	h-0.005c-0.007,0-0.013,0.001-0.019,0.001h-5.903c-15.544,0-28.19,12.642-28.19,28.18v37.072
	c-17.357,1.211-31.11,15.704-31.11,33.357v11.471c0,12.774,7.116,24.125,18.16,29.755v36.13
	c-10.866,6.154-18.22,17.813-18.22,31.165c0,19.745,16.064,35.81,35.81,35.81h10.55v4.66c0,27.072,9.059,53.007,25.678,74.046
	c-0.653,0.374-1.307,0.737-1.958,1.132c-0.556,0.331-1.112,0.675-1.6,0.993c-0.01,0.007-0.02,0.014-0.031,0.02
	c-0.008,0.006-0.017,0.01-0.025,0.016c-0.004,0.003-0.008,0.006-0.012,0.009c-23.941,15.334-38.233,41.433-38.233,69.835v65.69
	c0,4.143,3.358,7.5,7.5,7.5h34.84h24.57h137.76h24.57h34.84c4.142,0,7.5-3.357,7.5-7.5v-65.69c0-28.429-14.318-54.552-38.245-69.844
	c-0.544-0.354-1.1-0.698-1.609-1.002c-0.682-0.413-1.342-0.798-1.995-1.172c16.613-21.038,25.668-46.967,25.668-74.033L375.61,288.1
	L375.61,288.1z M360.205,222.458c-0.036,0.065-0.067,0.133-0.101,0.199c-0.083,0.162-0.162,0.327-0.233,0.496
	c-0.035,0.082-0.068,0.165-0.1,0.249c-0.064,0.168-0.121,0.339-0.174,0.513c-0.024,0.079-0.049,0.156-0.07,0.236
	c-0.067,0.253-0.125,0.509-0.166,0.772c-4.101,26.281-17.942,49.692-38.623,65.951c-1.735-31.197-27.664-56.045-59.287-56.045h-10.9
	c-31.623,0-57.552,24.848-59.287,56.045c-20.68-16.259-34.521-39.67-38.623-65.951c-0.041-0.263-0.099-0.52-0.166-0.772
	c-0.021-0.08-0.047-0.157-0.07-0.236c-0.052-0.174-0.11-0.345-0.174-0.513c-0.032-0.084-0.065-0.167-0.1-0.249
	c-0.072-0.169-0.15-0.334-0.234-0.497c-0.034-0.066-0.065-0.133-0.1-0.198c-0.122-0.221-0.253-0.436-0.396-0.642
	c-0.004-0.005-0.006-0.011-0.01-0.016v-33.11h209.22v33.11c-0.004,0.005-0.006,0.011-0.01,0.016
	C360.458,222.023,360.327,222.238,360.205,222.458z M386.16,273.1h-10.55v-41.61h10.55c2.105,0,4.135,0.32,6.052,0.903
	c0.815,0.522,1.737,0.89,2.727,1.065c7.094,3.318,12.031,10.501,12.031,18.832C406.97,263.765,397.635,273.1,386.16,273.1z
	 M386.16,216.49h-10.55v-27.8h12.84c0.009,0,0.019-0.001,0.028-0.001c0.091,0,0.181,0,0.272-0.001v27.906
	C387.895,216.533,387.033,216.49,386.16,216.49z M123.25,188.689c0.091,0.001,0.181,0.001,0.272,0.001
	c0.009,0,0.019,0.001,0.028,0.001h12.84v27.8h-10.55c-0.872,0-1.733,0.042-2.59,0.104V188.689z M125.84,273.1
	c-11.475,0-20.81-9.335-20.81-20.81c0-8.331,4.938-15.514,12.031-18.832c0.99-0.175,1.912-0.542,2.727-1.065
	c1.916-0.583,3.947-0.903,6.051-0.903h10.55v41.61H125.84z M355.94,459.17h-37.55v-9.34h37.55V459.17z M317.38,434.83h-6.49
	c-4.142,0-7.5,3.357-7.5,7.5v24.34c0,4.143,3.358,7.5,7.5,7.5h6.49V497H194.62v-22.83h6.49c4.142,0,7.5-3.357,7.5-7.5v-24.34
	c0-4.143-3.358-7.5-7.5-7.5h-31.06v-55.323c0.166-0.093,0.329-0.187,0.497-0.28c0.02-0.011,0.039-0.022,0.059-0.033
	c0.372-0.207,0.753-0.406,1.153-0.614c0.196-0.103,0.412-0.206,0.614-0.309c0.886,0.865,1.789,1.715,2.702,2.554
	c0.228,0.209,0.461,0.413,0.691,0.621c0.842,0.762,1.695,1.511,2.558,2.249c0.298,0.254,0.595,0.509,0.895,0.76
	c0.134,0.112,0.266,0.228,0.401,0.34v26.365c0,4.143,3.358,7.5,7.5,7.5s7.5-3.357,7.5-7.5v-15.715
	c18.471,11.109,39.427,16.925,61.38,16.925c21.954,0,42.91-5.816,61.38-16.924V434.83z M156.06,459.17v-9.34h37.55v9.34H156.06z
	 M135.21,438.81c0-18.263,7.219-35.364,19.84-47.968v43.988h-6.49c-4.142,0-7.5,3.357-7.5,7.5v24.34c0,4.143,3.358,7.5,7.5,7.5h6.49
	V497h-19.84V438.81z M170.05,497v-22.83h9.57V497H170.05z M332.38,497v-22.83h9.57V497H332.38z M376.79,438.81V497h-19.84v-22.83
	h6.49c4.142,0,7.5-3.357,7.5-7.5v-24.34c0-4.143-3.358-7.5-7.5-7.5h-31.06v-50.034c0.136-0.113,0.27-0.231,0.405-0.344
	c0.294-0.247,0.586-0.496,0.878-0.746c0.876-0.749,1.742-1.509,2.596-2.282c0.217-0.197,0.438-0.389,0.654-0.588
	c0.918-0.843,1.825-1.696,2.714-2.565c0.209,0.107,0.428,0.211,0.634,0.318c0.38,0.198,0.761,0.397,1.167,0.623
	c0.173,0.095,0.349,0.197,0.522,0.294v33.223c0,4.142,3.358,7.5,7.5,7.5s7.5-3.358,7.5-7.5v-21.897
	C369.56,403.423,376.79,420.535,376.79,438.81z M360.61,292.76c0,26.594-9.987,51.938-28.124,71.364
	c-3.742,4.01-7.852,7.769-12.22,11.173c-18.511,14.44-40.733,22.073-64.267,22.073s-45.756-7.633-64.27-22.076
	c-1.519-1.184-2.994-2.425-4.446-3.691c-2.721-2.372-5.331-4.866-7.772-7.481c-18.135-19.425-28.122-44.769-28.122-71.362V280.6
	v-13.804c0.581,1.046,1.182,2.081,1.794,3.108c0.177,0.297,0.359,0.59,0.539,0.886c0.449,0.739,0.904,1.473,1.369,2.202
	c0.211,0.33,0.422,0.659,0.636,0.987c0.474,0.727,0.956,1.447,1.446,2.163c0.193,0.283,0.383,0.567,0.579,0.848
	c1.368,1.965,2.796,3.889,4.281,5.77c0.222,0.281,0.45,0.559,0.674,0.838c0.533,0.663,1.073,1.321,1.621,1.973
	c0.26,0.31,0.522,0.618,0.786,0.925c0.555,0.647,1.118,1.286,1.687,1.922c0.24,0.267,0.477,0.537,0.719,0.803
	c0.809,0.887,1.628,1.764,2.464,2.627c0.004,0.004,0.007,0.007,0.011,0.011c0.83,0.856,1.677,1.698,2.535,2.53
	c0.265,0.257,0.535,0.51,0.802,0.765c0.611,0.583,1.228,1.161,1.852,1.731c0.308,0.282,0.618,0.562,0.929,0.84
	c0.631,0.565,1.27,1.122,1.914,1.674c0.282,0.242,0.561,0.486,0.846,0.725c0.924,0.778,1.858,1.546,2.808,2.298
	c0.001,0.001,0.002,0.001,0.003,0.002c0.947,0.749,1.909,1.481,2.881,2.203c0.303,0.225,0.61,0.445,0.916,0.668
	c0.688,0.502,1.381,0.998,2.082,1.486c0.348,0.243,0.697,0.483,1.048,0.723c0.705,0.48,1.416,0.952,2.133,1.419
	c0.321,0.209,0.639,0.42,0.962,0.626c1.031,0.657,2.071,1.305,3.125,1.933c2.318,1.383,5.199,1.41,7.545,0.079
	c2.346-1.333,3.795-3.823,3.795-6.521v-10.83c0-24.471,19.909-44.38,44.38-44.38h10.9c24.471,0,44.38,19.909,44.38,44.38v10.83
	c0,2.698,1.449,5.188,3.795,6.521c0.291,0.165,0.591,0.309,0.896,0.432c0.069,0.028,0.142,0.045,0.211,0.07
	c0.239,0.088,0.478,0.174,0.722,0.237c0.085,0.022,0.172,0.031,0.257,0.05c0.232,0.051,0.464,0.102,0.699,0.131
	c0.098,0.012,0.197,0.011,0.296,0.019c0.208,0.017,0.415,0.04,0.623,0.04c0.016,0,0.031-0.003,0.047-0.003
	c0.149-0.001,0.297-0.02,0.445-0.03c0.179-0.012,0.359-0.016,0.537-0.041c0.158-0.022,0.312-0.063,0.469-0.095
	c0.166-0.034,0.334-0.059,0.499-0.104c0.189-0.052,0.372-0.126,0.557-0.193c0.128-0.046,0.258-0.081,0.384-0.135
	c0.308-0.131,0.61-0.283,0.902-0.458c1.055-0.629,2.095-1.276,3.126-1.934c0.322-0.205,0.638-0.416,0.958-0.624
	c0.718-0.467,1.431-0.94,2.137-1.422c0.35-0.239,0.699-0.479,1.046-0.721c0.701-0.489,1.395-0.985,2.085-1.488
	c0.304-0.222,0.61-0.44,0.912-0.665c1.948-1.448,3.847-2.951,5.694-4.505c0.284-0.239,0.562-0.482,0.843-0.723
	c0.645-0.553,1.285-1.112,1.917-1.678c0.31-0.277,0.618-0.556,0.924-0.836c0.626-0.572,1.245-1.152,1.858-1.736
	c0.267-0.254,0.536-0.506,0.8-0.762c0.857-0.833,1.704-1.674,2.535-2.53c0.004-0.004,0.007-0.007,0.011-0.011
	c0.837-0.863,1.656-1.741,2.465-2.628c0.242-0.266,0.48-0.536,0.72-0.804c0.567-0.633,1.129-1.271,1.682-1.916
	c0.266-0.31,0.531-0.622,0.794-0.935c0.544-0.647,1.079-1.3,1.609-1.958c0.228-0.284,0.459-0.565,0.685-0.851
	c0.735-0.931,1.46-1.87,2.167-2.822c0.004-0.005,0.008-0.011,0.012-0.016c0.714-0.962,1.41-1.938,2.095-2.921
	c0.201-0.289,0.396-0.581,0.595-0.871c0.483-0.707,0.959-1.417,1.426-2.134c0.22-0.337,0.438-0.675,0.654-1.014
	c0.456-0.715,0.903-1.436,1.344-2.161c0.187-0.308,0.378-0.615,0.562-0.925c0.608-1.022,1.206-2.051,1.784-3.091
	c0.001-0.002,0.002-0.004,0.003-0.006V280.6v12.16H360.61z"/>
<path d="M253.13,427.05c-0.45,0.18-0.89,0.41-1.29,0.68c-0.41,0.28-0.8,0.59-1.14,0.94c-0.35,0.34-0.66,0.73-0.94,1.14
	c-0.27,0.4-0.5,0.84-0.69,1.29c-0.18,0.45-0.33,0.93-0.42,1.41c-0.1,0.48-0.15,0.97-0.15,1.46s0.05,0.98,0.15,1.47
	c0.09,0.48,0.24,0.95,0.42,1.4c0.19,0.45,0.42,0.89,0.69,1.29c0.28,0.42,0.59,0.8,0.94,1.14c0.34,0.351,0.73,0.66,1.14,0.94
	c0.4,0.27,0.84,0.5,1.29,0.689c0.45,0.181,0.93,0.33,1.41,0.42c0.48,0.101,0.97,0.15,1.46,0.15s0.98-0.05,1.47-0.15
	c0.47-0.09,0.95-0.239,1.4-0.42c0.45-0.189,0.89-0.42,1.29-0.689c0.41-0.28,0.8-0.59,1.14-0.94c0.35-0.34,0.66-0.72,0.94-1.14
	c0.27-0.4,0.5-0.84,0.69-1.29c0.18-0.45,0.33-0.92,0.42-1.4c0.1-0.489,0.15-0.98,0.15-1.47s-0.05-0.979-0.15-1.46
	c-0.09-0.48-0.24-0.95-0.42-1.41c-0.19-0.45-0.42-0.89-0.69-1.29c-0.28-0.41-0.59-0.8-0.94-1.14c-0.34-0.351-0.73-0.66-1.14-0.94
	c-0.4-0.27-0.84-0.5-1.29-0.68c-0.45-0.19-0.93-0.34-1.4-0.43c-0.97-0.2-1.97-0.2-2.93,0
	C254.06,426.71,253.58,426.859,253.13,427.05z"/>
<path d="M262.93,468.8c-0.19-0.45-0.42-0.89-0.69-1.3c-0.28-0.41-0.59-0.79-0.94-1.141c-0.34-0.34-0.73-0.659-1.14-0.93
	c-0.4-0.27-0.84-0.5-1.29-0.689c-0.45-0.19-0.93-0.33-1.4-0.431c-0.97-0.19-1.97-0.19-2.94,0c-0.47,0.101-0.95,0.24-1.4,0.431
	c-0.45,0.189-0.89,0.42-1.29,0.689c-0.41,0.271-0.8,0.59-1.14,0.93c-0.35,0.351-0.66,0.73-0.93,1.141c-0.27,0.41-0.51,0.85-0.69,1.3
	c-0.19,0.45-0.34,0.92-0.43,1.4c-0.1,0.479-0.15,0.979-0.15,1.47c0,0.49,0.05,0.98,0.15,1.46c0.09,0.479,0.24,0.95,0.43,1.41
	c0.18,0.45,0.42,0.88,0.69,1.29s0.58,0.79,0.93,1.14c0.34,0.35,0.73,0.66,1.14,0.93c0.4,0.27,0.84,0.5,1.29,0.69
	c0.45,0.189,0.93,0.33,1.4,0.43c0.49,0.101,0.98,0.15,1.47,0.15c0.49,0,0.98-0.05,1.47-0.15c0.47-0.1,0.95-0.24,1.4-0.43
	c0.45-0.19,0.89-0.42,1.29-0.69c0.41-0.27,0.8-0.58,1.14-0.93c0.35-0.35,0.66-0.729,0.94-1.14c0.27-0.41,0.5-0.84,0.69-1.29
	c0.18-0.46,0.33-0.931,0.42-1.41c0.1-0.48,0.15-0.97,0.15-1.46s-0.05-0.99-0.15-1.47C263.26,469.72,263.11,469.25,262.93,468.8z"/>
<g>
</g>
<g>
</g>
<g>
</g>
<g>
</g>
<g>
</g>
<g>
</g>
<g>
</g>
<g>
</g>
<g>
</g>
<g>
</g>
<g>
</g>
<g>
</g>
<g>
</g>
<g>
</g>
<g>
</g>
</svg>
