<?xml version="1.0" encoding="iso-8859-1"?>
<!-- Generator: Adobe Illustrator 19.0.0, SVG Export Plug-In . SVG Version: 6.00 Build 0)  -->
<svg version="1.1" id="Capa_1" xmlns="http://www.w3.org/2000/svg" xmlns:xlink="http://www.w3.org/1999/xlink" x="0px" y="0px"
	 viewBox="0 0 512.001 512.001" style="enable-background:new 0 0 512.001 512.001;" xml:space="preserve">
<path style="fill:#49B6F2;" d="M203.073,363.444h105.855c41.621,0,75.362,33.741,75.362,75.362V504.5H127.711v-65.694
	C127.711,397.184,161.452,363.444,203.073,363.444z"/>
<path style="fill:#2E93CC;" d="M308.927,363.444h-22.632c41.621,0,75.362,33.741,75.362,75.362V504.5h22.632v-65.695
	C384.289,397.184,350.548,363.444,308.927,363.444z"/>
<path style="fill:#484655;" d="M308.927,363.444H203.073c-41.621,0-75.362,33.741-75.362,75.362v24.569h256.578v-24.569
	C384.289,397.184,350.548,363.444,308.927,363.444z"/>
<path style="fill:#35343F;" d="M361.657,438.805v24.57h22.632v-24.57c0-6.203-0.765-12.225-2.178-17.992
	c-0.153-0.622-0.315-1.241-0.483-1.857c-1.064-3.908-2.438-7.686-4.088-11.314c-2.251-4.948-5.002-9.621-8.222-13.927
	c-0.723-0.967-1.469-1.916-2.237-2.847c-13.823-16.749-34.741-27.425-58.153-27.425h-22.632
	C327.916,363.444,361.657,397.184,361.657,438.805z"/>
<g>
	<path style="fill:#6BCCF7;" d="M291.936,342.79l-28.035,60.71l45.61,17.211c3.655,1.379,7.595-1.198,7.796-5.099l2.359-45.811
		c0.191-3.701-1.47-7.254-4.431-9.482L291.936,342.79z"/>
	<path style="fill:#6BCCF7;" d="M220.064,342.79l28.035,60.71l-45.611,17.211c-3.655,1.379-7.595-1.198-7.796-5.099l-2.359-45.811
		c-0.191-3.701,1.47-7.254,4.431-9.482L220.064,342.79z"/>
</g>
<path style="fill:#884130;" d="M298.1,267.73v95.35l-21.281,35.609C272.441,406.014,264.534,410.5,256,410.5l0,0
	c-8.534,0-16.441-4.486-20.819-11.811L213.9,363.08v-95.35L298.1,267.73L298.1,267.73z"/>
<rect x="112" y="128.5" style="fill:#696970;" width="288" height="126.5"/>
<path style="fill:#A1513D;" d="M125.839,223.99h49.369v56.61h-49.369c-15.632,0-28.305-12.673-28.305-28.305
	S110.207,223.99,125.839,223.99z"/>
<path style="fill:#884130;" d="M386.161,223.99h-49.369v56.61h49.369c15.632,0,28.305-12.673,28.305-28.305
	S401.793,223.99,386.161,223.99z"/>
<path style="fill:#B45F4A;" d="M256,342.79L256,342.79c-61.919,0-112.115-50.195-112.115-112.115V117.281h224.229v113.394
	C368.115,292.595,317.919,342.79,256,342.79z"/>
<path style="fill:#A1513D;" d="M344.781,117.281v125.062c0,53.578-41.949,97.354-94.795,100.286
	c1.992,0.105,3.996,0.161,6.014,0.161l0,0c61.919,0,112.115-50.195,112.115-112.115V117.281H344.781z"/>
<path style="fill:#2E93CC;" d="M135.772,151.166l32.354,43.38c21.524-12.452,52.913-20.301,87.874-20.301s66.35,7.849,87.874,20.301
	l32.354-43.38C296.076,133.189,215.924,133.189,135.772,151.166z"/>
<path style="fill:#49B6F2;" d="M362.233,19.5l-79.899-12h-52.667l-79.899,12l-45,81.5v58c100.822-28.445,201.644-28.445,302.466,0
	v-58L362.233,19.5z"/>
<path style="fill:#2E93CC;" d="M362.233,19.5l-79.899-12h-24.477l79.899,12l45,81.5v51.673c8.159,1.929,16.318,4.025,24.477,6.327
	v-58L362.233,19.5z"/>
<path style="fill:#F0EEEE;" d="M344.5,449.5h-30.818c-4.143,0-7.5-3.358-7.5-7.5s3.357-7.5,7.5-7.5H344.5c4.143,0,7.5,3.358,7.5,7.5
	S348.643,449.5,344.5,449.5z"/>
<path d="M310.323,232.962c4.143,0,7.5-3.358,7.5-7.5v-2c0-4.142-3.357-7.5-7.5-7.5s-7.5,3.358-7.5,7.5v2
	C302.823,229.605,306.181,232.962,310.323,232.962z"/>
<path d="M201.677,215.962c-4.143,0-7.5,3.358-7.5,7.5v2c0,4.142,3.357,7.5,7.5,7.5s7.5-3.358,7.5-7.5v-2
	C209.177,219.32,205.819,215.962,201.677,215.962z"/>
<path d="M360.934,288.1h25.226c19.745,0,35.81-16.064,35.81-35.81c0-11.409-5.458-22.053-14.47-28.736v-57.076
	c1.522-0.055,3.013-0.556,4.257-1.498c1.873-1.418,2.974-3.631,2.974-5.98v-58c0-1.268-0.321-2.515-0.935-3.625l-45-81.5
	c-1.128-2.043-3.144-3.445-5.451-3.792l-79.9-12C283.075,0.028,282.703,0,282.33,0h-52.66c-0.373,0-0.745,0.028-1.114,0.083
	l-79.9,12c-2.308,0.347-4.323,1.748-5.451,3.792l-13.13,23.78c-2.002,3.626-0.686,8.188,2.94,10.191
	c3.625,2,8.188,0.686,10.19-2.941l11.34-20.538L230.23,15h51.539l75.686,11.367l42.275,76.566v46.25
	c-1.094-0.291-2.194-0.566-3.291-0.85c-1.124-0.292-2.245-0.586-3.371-0.871c-1.548-0.391-3.097-0.768-4.647-1.146
	c-1.057-0.258-2.112-0.522-3.169-0.773c-1.749-0.416-3.495-0.814-5.242-1.212c-0.856-0.195-1.713-0.399-2.568-0.59
	c-2.605-0.581-5.205-1.143-7.795-1.682c-24.52-5.136-49.213-8.59-73.922-10.395c-0.187-0.014-0.374-0.029-0.561-0.042
	c-2.812-0.202-5.623-0.381-8.435-0.54c-0.371-0.021-0.743-0.044-1.114-0.064c-2.66-0.145-5.32-0.269-7.979-0.375
	c-0.526-0.021-1.053-0.043-1.579-0.063c-2.531-0.094-5.063-0.169-7.593-0.228c-0.655-0.015-1.31-0.03-1.964-0.043
	c-2.427-0.048-4.854-0.079-7.28-0.094c-0.752-0.005-1.504-0.008-2.255-0.009c-2.349-0.005-4.697,0.003-7.045,0.029
	c-0.82,0.009-1.64,0.021-2.46,0.034c-2.298,0.035-4.596,0.082-6.893,0.146c-0.848,0.024-1.695,0.053-2.542,0.08
	c-2.29,0.075-4.58,0.16-6.868,0.264c-0.816,0.037-1.63,0.08-2.446,0.121c-2.339,0.117-4.677,0.243-7.013,0.39
	c-0.22,0.014-0.44,0.023-0.66,0.037c-0.056,0.004-0.11,0.014-0.165,0.019c-2.159,0.139-4.319,0.272-6.476,0.438
	c-4.13,0.316-7.222,3.921-6.905,8.051c0.317,4.13,3.926,7.225,8.052,6.905c2.37-0.182,4.743-0.331,7.115-0.481
	c2.197-0.138,4.396-0.257,6.596-0.368c0.816-0.041,1.632-0.084,2.448-0.121c2.164-0.099,4.329-0.181,6.495-0.253
	c0.832-0.028,1.664-0.055,2.496-0.079c2.186-0.062,4.372-0.11,6.56-0.145c0.783-0.013,1.567-0.023,2.35-0.032
	c2.257-0.026,4.514-0.04,6.773-0.037c0.676,0.001,1.353,0.005,2.029,0.008c2.373,0.012,4.746,0.036,7.12,0.08
	c0.512,0.009,1.023,0.023,1.534,0.034c2.542,0.054,5.085,0.122,7.629,0.213c0.257,0.009,0.515,0.021,0.772,0.031
	c29.288,1.09,58.642,4.594,87.761,10.501l-21.489,28.803C318.792,173.3,288.001,166.74,256,166.74s-62.792,6.56-85.732,18.133
	l-21.489-28.803c0.145-0.03,0.291-0.058,0.437-0.087c10.804-2.189,21.743-4.062,32.588-5.584c1.44-0.202,2.881-0.423,4.321-0.613
	c4.107-0.544,6.994-4.313,6.451-8.419c-0.545-4.106-4.315-6.994-8.42-6.451c-1.219,0.161-2.439,0.35-3.659,0.52
	c-0.026,0.003-0.052,0.003-0.079,0.007c-0.245,0.034-0.492,0.075-0.738,0.109c-2.894,0.407-5.784,0.83-8.676,1.283
	c-0.152,0.024-0.303,0.05-0.455,0.074c-9.466,1.489-18.906,3.199-28.185,5.15c-0.759,0.158-1.518,0.323-2.277,0.489l-0.639,0.139
	c-2.864,0.612-5.733,1.249-8.608,1.91c-0.111,0.025-0.222,0.051-0.333,0.077c-1.998,0.461-3.995,0.933-5.993,1.417
	c-0.638,0.154-1.273,0.31-1.909,0.466c-1.529,0.376-3.054,0.754-4.58,1.143c-1.168,0.296-2.325,0.598-3.485,0.901
	c-0.756,0.197-1.515,0.386-2.269,0.586v-46.251l16.287-29.509c2.001-3.626,0.685-8.188-2.942-10.19
	c-3.624-1.999-8.189-0.684-10.191,2.942l-17.221,31.2c-0.612,1.109-0.934,2.356-0.934,3.624v58c0,2.349,1.101,4.563,2.974,5.98
	c1.244,0.941,2.735,1.443,4.257,1.498v57.078c-9.019,6.693-14.47,17.332-14.47,28.733c0,19.746,16.064,35.81,35.81,35.81h25.226
	c12.433,22.701,31.824,40.728,55.335,51.438v4.139l-14.148,10.647c-1.078,0.81-2.064,1.745-2.938,2.764
	c-39.627,6.619-69.104,41.159-69.104,81.721v65.69c0,4.142,3.357,7.5,7.5,7.5h256.58c4.143,0,7.5-3.358,7.5-7.5v-65.69
	c0-40.563-29.479-75.104-69.108-81.721c-0.876-1.022-1.859-1.954-2.932-2.761l-14.149-10.649v-4.141
	C329.114,328.825,348.502,310.798,360.934,288.1z M265.818,399.818C262.946,401.899,259.551,403,256,403
	c-2.895,0-5.754-0.754-8.251-2.173c-0.539-0.308-1.069-0.65-1.577-1.016c-1.843-1.331-3.377-3.005-4.557-4.973l-1.345-2.251
	l-18.87-31.584V347.42v-2.211c0.065,0.02,0.132,0.036,0.197,0.056c1.224,0.368,2.453,0.713,3.686,1.041
	c0.276,0.073,0.553,0.143,0.83,0.214c1.106,0.285,2.216,0.556,3.33,0.809c0.185,0.042,0.368,0.088,0.553,0.129
	c1.25,0.278,2.506,0.531,3.766,0.768c0.291,0.055,0.582,0.106,0.874,0.159c1.157,0.209,2.316,0.403,3.48,0.577
	c0.143,0.021,0.285,0.046,0.428,0.067c1.274,0.186,2.552,0.346,3.834,0.491c0.304,0.034,0.608,0.066,0.913,0.098
	c1.222,0.129,2.447,0.243,3.675,0.335c0.084,0.006,0.167,0.015,0.251,0.021c1.295,0.093,2.594,0.16,3.896,0.212
	c0.316,0.013,0.632,0.024,0.948,0.034c1.31,0.042,2.622,0.071,3.939,0.071c1.317,0,2.629-0.029,3.939-0.071
	c0.316-0.01,0.632-0.021,0.948-0.034c1.301-0.052,2.6-0.118,3.895-0.212c0.085-0.006,0.169-0.015,0.254-0.021
	c1.228-0.091,2.451-0.206,3.672-0.334c0.305-0.032,0.609-0.064,0.914-0.098c1.282-0.145,2.56-0.305,3.834-0.491
	c0.142-0.021,0.284-0.046,0.426-0.067c1.165-0.174,2.326-0.369,3.484-0.578c0.29-0.052,0.58-0.104,0.869-0.158
	c1.26-0.237,2.516-0.491,3.767-0.769c0.185-0.041,0.369-0.087,0.553-0.128c1.115-0.253,2.225-0.524,3.333-0.809
	c0.275-0.071,0.551-0.14,0.826-0.213c1.234-0.328,2.464-0.673,3.688-1.041c0.066-0.02,0.132-0.036,0.198-0.056v2.211v13.581
	l-20.213,33.832C269.207,396.803,267.673,398.478,265.818,399.818z M383.768,160.617c1.598,0.386,3.195,0.781,4.793,1.182
	c0.879,0.221,1.757,0.44,2.635,0.665c0.436,0.112,0.869,0.229,1.305,0.342v54.249c-0.557-0.1-1.117-0.185-1.679-0.259
	c-0.105-0.014-0.212-0.023-0.317-0.036c-0.58-0.071-1.161-0.126-1.745-0.169c-0.183-0.013-0.366-0.026-0.55-0.037
	c-0.681-0.039-1.364-0.066-2.049-0.066h-10.55v-51.942l3.714-4.981c0.582,0.136,1.164,0.266,1.747,0.404
	C381.97,160.184,382.869,160.4,383.768,160.617z M386.16,273.1h-18.293c0.118-0.311,0.221-0.626,0.336-0.938
	c0.303-0.818,0.599-1.638,0.884-2.462c0.168-0.488,0.332-0.977,0.494-1.467c0.262-0.793,0.515-1.588,0.76-2.386
	c0.152-0.496,0.305-0.992,0.451-1.49c0.246-0.839,0.477-1.682,0.704-2.526c0.12-0.446,0.246-0.891,0.361-1.339
	c0.316-1.233,0.614-2.471,0.889-3.713c0.01-0.046,0.023-0.092,0.033-0.138c0.232-1.034,0.451-2.085,0.656-3.142
	c0.206-1.061,0.398-2.133,0.576-3.208c0.001-0.008,0.001-0.015,0.003-0.023c0.176-1.032,0.337-2.101,0.478-3.181
	c0.001-0.006,0.001-0.012,0.002-0.018c0.019-0.134,0.033-0.27,0.051-0.405c0.123-0.891,0.238-1.783,0.339-2.683
	c0.007-0.062,0.013-0.124,0.018-0.186c0.024-0.279,0.058-0.558,0.099-0.922c0.054-0.515,0.098-1.02,0.141-1.545
	c0.017-0.176,0.027-0.355,0.043-0.531c0.017-0.205,0.034-0.41,0.05-0.616c0.022-0.282,0.049-0.561,0.068-0.845
	c0.045-0.555,0.078-1.097,0.098-1.56l0.012-0.205c0.01-0.183,0.021-0.365,0.031-0.548l0.013-0.225
	c0.025-0.385,0.039-0.771,0.051-1.157c0.017-0.39,0.028-0.789,0.041-1.184c0.006-0.212,0.016-0.425,0.022-0.637
	c0.02-0.76,0.035-1.532,0.039-2.331h10.553c0.459,0,0.917,0.016,1.373,0.046c3.094,0.204,6.107,1.095,8.804,2.618
	c6.559,3.671,10.633,10.62,10.633,18.136C406.97,263.765,397.635,273.1,386.16,273.1z M123.791,216.556
	c-0.184,0.01-0.367,0.023-0.55,0.037c-0.579,0.042-1.157,0.097-1.733,0.167c-0.111,0.013-0.222,0.023-0.333,0.037
	c-0.561,0.074-1.12,0.158-1.675,0.258v-54.249c0.355-0.092,0.709-0.188,1.064-0.279c1.253-0.321,2.514-0.637,3.777-0.951
	c0.94-0.234,1.88-0.466,2.821-0.696c1.707-0.415,3.417-0.826,5.136-1.226c0.126-0.029,0.252-0.058,0.378-0.087l3.714,4.981v51.942
	h-10.55C125.155,216.49,124.473,216.517,123.791,216.556z M125.84,273.1c-11.475,0-20.81-9.336-20.81-20.81
	c0-7.516,4.074-14.465,10.658-18.15c3.069-1.733,6.579-2.65,10.151-2.65h10.553c0.005,0.8,0.019,1.572,0.04,2.331
	c0.005,0.213,0.016,0.426,0.022,0.638c0.013,0.395,0.023,0.794,0.041,1.183c0.012,0.386,0.025,0.769,0.047,1.095l0.017,0.288
	c0.011,0.203,0.024,0.406,0.035,0.609l0.003,0.045c0.023,0.556,0.058,1.102,0.103,1.657c0.018,0.281,0.045,0.557,0.067,0.835
	c0.017,0.211,0.033,0.423,0.051,0.634c0.015,0.174,0.025,0.349,0.042,0.523c0.043,0.524,0.088,1.033,0.149,1.629
	c0.032,0.28,0.065,0.559,0.09,0.838c0.005,0.062,0.011,0.124,0.018,0.186c0.098,0.873,0.21,1.737,0.329,2.601
	c0.022,0.165,0.04,0.331,0.063,0.495c0,0.003,0.001,0.006,0.001,0.009c0.143,1.097,0.306,2.182,0.478,3.183
	c0.001,0.007,0.001,0.014,0.002,0.021c0.175,1.06,0.365,2.113,0.566,3.152c0.004,0.022,0.008,0.044,0.012,0.066
	c0.067,0.347,0.144,0.68,0.214,1.023c0.142,0.7,0.283,1.405,0.435,2.081c0,0.002,0.001,0.005,0.002,0.007
	c0.002,0.008,0.003,0.016,0.005,0.024c0.001,0.003,0.002,0.005,0.003,0.008c0.284,1.285,0.593,2.565,0.92,3.841
	c0.109,0.425,0.229,0.847,0.342,1.271c0.233,0.869,0.471,1.737,0.724,2.6c0.142,0.486,0.291,0.969,0.439,1.453
	c0.249,0.81,0.505,1.618,0.771,2.423c0.16,0.484,0.321,0.967,0.488,1.45c0.286,0.828,0.583,1.652,0.888,2.474
	c0.115,0.311,0.218,0.625,0.335,0.935H125.84V273.1z M162.303,277.256c-3.784-7.597-6.622-15.625-8.443-23.892
	c-0.61-2.747-1.108-5.53-1.493-8.337c-0.001-0.009-0.002-0.018-0.003-0.027c-0.015-0.101-0.025-0.204-0.039-0.305
	c-0.229-1.706-0.415-3.421-0.56-5.143c-0.017-0.192-0.032-0.386-0.047-0.579c-0.058-0.744-0.109-1.489-0.152-2.234l-0.029-0.502
	c-0.034-0.655-0.058-1.311-0.08-1.968c-0.012-0.327-0.024-0.654-0.033-0.988c-0.021-0.867-0.035-1.734-0.035-2.602v-6.69v-39.337
	l10.729,14.382c2.275,3.051,6.477,3.913,9.77,2.006c21.185-12.266,51.843-19.3,84.112-19.3s62.928,7.035,84.112,19.3
	c1.179,0.682,2.473,1.01,3.753,1.01c2.299,0,4.555-1.057,6.017-3.016l10.729-14.382v39.337v6.69c0,0.868-0.014,1.736-0.035,2.602
	c-0.008,0.334-0.021,0.661-0.033,0.988c-0.022,0.656-0.046,1.311-0.08,1.966l-0.026,0.463c-0.043,0.761-0.095,1.521-0.155,2.28
	c-0.015,0.19-0.029,0.38-0.046,0.569c-0.147,1.745-0.336,3.484-0.569,5.214c-0.011,0.079-0.019,0.159-0.03,0.238
	c-0.001,0.005-0.001,0.011-0.002,0.017c-0.385,2.807-0.882,5.59-1.493,8.34v0.001v0.001c-0.002,0.009-0.004,0.019-0.006,0.028
	c-0.454,2.06-0.971,4.106-1.552,6.137c-1.741,6.091-4.048,12.033-6.888,17.733c-11.408,22.909-30.732,40.809-54.419,50.404
	c-12.463,5.062-25.678,7.629-39.277,7.629c-1.7,0-3.394-0.04-5.081-0.12c-0.914-0.043-1.826-0.101-2.736-0.168
	c-10.848-0.797-21.401-3.255-31.467-7.344C193.036,318.065,173.712,300.165,162.303,277.256z M206.4,362.451v0.629
	c0,0.342,0.024,0.682,0.07,1.018c0.016,0.12,0.051,0.237,0.073,0.356c0.04,0.214,0.075,0.428,0.133,0.637
	c0.038,0.138,0.096,0.27,0.142,0.406c0.063,0.185,0.119,0.372,0.197,0.552c0.057,0.132,0.132,0.256,0.196,0.385
	c0.083,0.165,0.156,0.334,0.251,0.492l21.285,35.619c0.04,0.066,0.08,0.133,0.12,0.199l-26.81,10.112l-2.236-43.425
	c-0.033-0.664,0.109-1.314,0.44-1.938c0.241-0.463,0.58-0.86,1.008-1.182L206.4,362.451z M185.004,373.369l2.195,42.625
	c0.217,4.214,2.454,8.109,5.985,10.421c0.395,0.259,0.806,0.487,1.223,0.7c0.085,0.044,0.17,0.088,0.256,0.13
	c0.409,0.198,0.825,0.376,1.25,0.53c0.074,0.027,0.148,0.049,0.222,0.074c0.403,0.138,0.81,0.258,1.223,0.356
	c0.056,0.013,0.11,0.03,0.166,0.043c0.443,0.1,0.892,0.173,1.342,0.227c0.095,0.012,0.19,0.021,0.286,0.031
	c0.436,0.043,0.873,0.072,1.311,0.072c0.017,0,0.034-0.002,0.051-0.002c0.069,0,0.137-0.008,0.206-0.009
	c0.4-0.008,0.799-0.034,1.197-0.077c0.147-0.016,0.293-0.038,0.439-0.059c0.337-0.048,0.671-0.11,1.004-0.185
	c0.139-0.031,0.279-0.059,0.417-0.095c0.458-0.118,0.913-0.253,1.359-0.421l35.846-13.521c0.011,0.006,0.023,0.012,0.034,0.018
	l-16.385,15.292c-1.52,1.418-2.383,3.404-2.383,5.483v20.875h-87.04V438.81C135.21,407.949,156.035,381.338,185.004,373.369z
	 M135.21,470.875h87.04V497h-87.04L135.21,470.875L135.21,470.875z M237.25,497v-26.125h139.54V497H237.25z M376.79,438.81v17.065
	H237.25v-17.616l21.89-20.431c4.181-0.41,8.195-1.637,11.876-3.623l35.849,13.522c0.445,0.168,0.899,0.303,1.355,0.421
	c0.142,0.037,0.285,0.066,0.429,0.098c0.327,0.073,0.656,0.134,0.987,0.182c0.152,0.022,0.304,0.045,0.457,0.061
	c0.384,0.042,0.769,0.066,1.155,0.075c0.083,0.002,0.165,0.011,0.247,0.011c0.015,0,0.029,0.002,0.043,0.002
	c0.434,0,0.867-0.029,1.299-0.071c0.103-0.01,0.205-0.021,0.308-0.033c0.445-0.054,0.887-0.125,1.324-0.224
	c0.064-0.014,0.126-0.033,0.19-0.049c0.403-0.097,0.801-0.214,1.194-0.348c0.079-0.027,0.159-0.051,0.238-0.08
	c0.422-0.153,0.836-0.33,1.242-0.527c0.088-0.043,0.175-0.088,0.262-0.132c0.416-0.213,0.826-0.44,1.22-0.698
	c3.531-2.311,5.769-6.207,5.985-10.419l2.195-42.627C355.965,381.338,376.79,407.949,376.79,438.81z M310.733,366.315
	c0.425,0.32,0.764,0.717,1.034,1.237c0.301,0.565,0.443,1.214,0.411,1.876l-2.236,43.43l-26.81-10.112
	c0.04-0.066,0.08-0.132,0.12-0.199l0,0c0.002-0.003,0.004-0.006,0.006-0.009l21.28-35.61c0.095-0.159,0.168-0.328,0.251-0.493
	c0.064-0.127,0.137-0.249,0.193-0.379c0.08-0.185,0.139-0.378,0.204-0.569c0.044-0.131,0.1-0.258,0.137-0.391
	c0.059-0.211,0.094-0.428,0.135-0.643c0.022-0.118,0.056-0.234,0.072-0.353c0.046-0.337,0.07-0.677,0.07-1.019v-0.628
	L310.733,366.315z"/>
<path d="M256,288.484c13.493,0,26.142-6.631,33.833-17.739c2.358-3.405,1.509-8.077-1.897-10.435s-8.077-1.509-10.435,1.896
	c-4.891,7.063-12.928,11.279-21.501,11.279s-16.61-4.216-21.501-11.279c-2.357-3.405-7.032-4.254-10.435-1.896
	c-3.405,2.358-4.255,7.03-1.896,10.435C229.858,281.853,242.507,288.484,256,288.484z"/>
<path d="M262.93,442.13c-0.189-0.45-0.42-0.89-0.7-1.29c-0.27-0.41-0.58-0.8-0.93-1.14c-1.74-1.75-4.33-2.55-6.77-2.05
	c-0.471,0.09-0.95,0.24-1.4,0.42c-0.45,0.19-0.89,0.42-1.29,0.69c-0.41,0.28-0.8,0.59-1.14,0.94c-0.351,0.34-0.66,0.73-0.94,1.14
	c-0.27,0.4-0.5,0.84-0.69,1.29c-0.18,0.45-0.329,0.93-0.42,1.41c-0.1,0.48-0.149,0.97-0.149,1.46c0,1.98,0.8,3.91,2.2,5.3
	c0.34,0.35,0.73,0.66,1.14,0.94c0.4,0.27,0.84,0.5,1.29,0.69c0.45,0.18,0.93,0.33,1.4,0.42c0.489,0.1,0.979,0.15,1.47,0.15
	c1.97,0,3.91-0.8,5.3-2.2c1.4-1.39,2.2-3.33,2.2-5.3c0-0.49-0.05-0.98-0.15-1.46C263.26,443.06,263.109,442.58,262.93,442.13z"/>
<path d="M262.93,480.13c-0.189-0.45-0.42-0.89-0.7-1.29c-0.27-0.41-0.58-0.8-0.93-1.14c-1.74-1.75-4.33-2.55-6.77-2.05
	c-0.471,0.09-0.95,0.24-1.4,0.42c-0.45,0.19-0.89,0.42-1.29,0.69c-0.41,0.28-0.8,0.59-1.14,0.94c-0.351,0.34-0.66,0.73-0.94,1.14
	c-0.27,0.4-0.5,0.84-0.69,1.29c-0.18,0.45-0.329,0.93-0.42,1.41c-0.1,0.48-0.149,0.97-0.149,1.46s0.05,0.98,0.149,1.47
	c0.091,0.47,0.24,0.95,0.42,1.4c0.19,0.45,0.421,0.89,0.69,1.29c0.28,0.41,0.59,0.8,0.94,1.14c0.34,0.35,0.73,0.66,1.14,0.94
	c0.4,0.27,0.84,0.5,1.29,0.69c0.45,0.18,0.93,0.33,1.4,0.42c0.489,0.1,0.979,0.15,1.47,0.15c1.979,0,3.91-0.8,5.3-2.2
	c1.4-1.4,2.2-3.33,2.2-5.3c0-0.49-0.05-0.98-0.15-1.46C263.26,481.06,263.109,480.58,262.93,480.13z"/>
<g>
</g>
<g>
</g>
<g>
</g>
<g>
</g>
<g>
</g>
<g>
</g>
<g>
</g>
<g>
</g>
<g>
</g>
<g>
</g>
<g>
</g>
<g>
</g>
<g>
</g>
<g>
</g>
<g>
</g>
</svg>
