<?xml version="1.0" encoding="iso-8859-1"?>
<!-- Generator: Adobe Illustrator 19.0.0, SVG Export Plug-In . SVG Version: 6.00 Build 0)  -->
<svg version="1.1" id="Capa_1" xmlns="http://www.w3.org/2000/svg" xmlns:xlink="http://www.w3.org/1999/xlink" x="0px" y="0px"
	 viewBox="0 0 512 512" style="enable-background:new 0 0 512 512;" xml:space="preserve">
<path style="fill:#898890;" d="M297.772,293.545h-0.374C283.479,351.736,231.134,395,168.677,395S53.875,351.736,39.955,293.545
	h-0.373L7.5,325.627V504.5h322.347l0.007-178.873L297.772,293.545z"/>
<g>
	<path style="fill:#57565C;" d="M195.896,395C250.867,395,298,361.482,318,313.772l-20.228-20.228h-0.374
		c-12.896,53.909-58.772,95.001-115.113,100.757C186.761,394.76,191.3,395,195.896,395z"/>
	<path style="fill:#57565C;" d="M46.573,313.772c-2.723-6.497-4.949-13.253-6.618-20.227h-0.373L7.5,325.627V504.5h27.219V325.627
		L46.573,313.772z"/>
</g>
<g>
	<rect x="7.5" y="431.56" style="fill:#C6C5CA;" width="60.968" height="72.938"/>
	<rect x="268.89" y="431.56" style="fill:#C6C5CA;" width="60.968" height="72.938"/>
</g>
<g>
	<rect x="7.5" y="431.56" style="fill:#898890;" width="27.22" height="72.938"/>
	<rect x="268.89" y="431.56" style="fill:#898890;" width="27.22" height="72.938"/>
	<path style="fill:#898890;" d="M258.337,293.545V136.66c0-38.287-24.002-70.963-57.777-83.818L196.347,37h23.736
		C234.12,37,245.5,25.621,245.5,11.583V7.5h-76.823c-11.688,0-21.914,7.862-24.919,19.157l-6.965,26.185l0,0
		c-33.775,12.855-57.776,45.531-57.776,83.818v156.885H39.955C53.875,351.736,106.22,395,168.677,395
		s114.802-43.264,128.722-101.455L258.337,293.545L258.337,293.545z"/>
</g>
<g>
	<path style="fill:#57565C;" d="M171.396,174.363c0,13.807-11.193,25-25,25s-25-11.193-25-25v-19.05h50V174.363z"/>
	<path style="fill:#57565C;" d="M252.233,174.363c0,13.807-11.193,25-25,25s-25-11.193-25-25v-19.05h50V174.363z"/>
	<path style="fill:#57565C;" d="M216.888,248.777c0,16.508-13.382,29.89-29.89,29.89s-29.89-13.382-29.89-29.89V226l29.89-15
		l29.89,15V248.777z"/>
	<path style="fill:#57565C;" d="M69.907,293.545H39.955C53.875,351.736,106.22,395,168.677,395c5.064,0,10.06-0.289,14.976-0.843
		C127.938,387.882,82.698,347.018,69.907,293.545z"/>
	<path style="fill:#57565C;" d="M108.969,136.66c0-38.287,24.001-70.962,57.776-83.818l0,0l6.965-26.185
		C176.715,15.362,186.941,7.5,198.629,7.5h-29.952c-11.688,0-21.914,7.862-24.919,19.157l-6.965,26.185l0,0
		c-33.775,12.855-57.776,45.531-57.776,83.818v156.885h29.952C108.969,293.545,108.969,136.66,108.969,136.66z"/>
</g>
<g>
	<path style="fill:#FFDAAA;" d="M153.075,174.363c0,13.807-11.193,25-25,25s-25-11.193-25-25v-19.05h50V174.363z"/>
	<path style="fill:#FFDAAA;" d="M233.912,174.363c0,13.807-11.193,25-25,25s-25-11.193-25-25v-19.05h50V174.363z"/>
	<path style="fill:#FFDAAA;" d="M198.567,248.777c0,16.508-13.382,29.89-29.89,29.89s-29.89-13.382-29.89-29.89V226l29.89-15
		l29.89,15V248.777z"/>
</g>
<g>
	<path style="fill:#FF9478;" d="M208.912,199.363c3.637,0,7.089-0.783,10.206-2.179c-8.717-3.905-14.794-12.65-14.794-22.821v-19.05
		h-20.412v19.05C183.912,188.17,195.105,199.363,208.912,199.363z"/>
	<path style="fill:#FF9478;" d="M123.487,174.363v-19.05h-20.412v19.05c0,13.807,11.193,25,25,25c3.637,0,7.089-0.783,10.206-2.179
		C129.564,193.279,123.487,184.534,123.487,174.363z"/>
	<path style="fill:#FF9478;" d="M159.199,248.776V226l19.684-9.878L168.677,211l-29.89,15v22.776c0,16.508,13.382,29.89,29.89,29.89
		c3.585,0,7.021-0.632,10.206-1.79C167.401,272.706,159.199,261.7,159.199,248.776z"/>
</g>
<g>
	<polygon style="fill:#FFB655;" points="380.746,504.5 350.47,504.5 350.313,241.638 380.588,241.638 	"/>
	<polygon style="fill:#FFB655;" points="380.504,115.667 350.229,115.692 350.203,136.941 380.478,136.915 	"/>
</g>
<g>
	<polygon style="fill:#FF7956;" points="365.531,504.5 350.337,504.5 350.258,241.638 365.452,241.638 	"/>
	<polygon style="fill:#FF7956;" points="365.41,115.667 350.216,115.692 350.203,136.941 365.397,136.915 	"/>
</g>
<rect x="346.2" y="136.92" style="fill:#C6C5CA;" width="38.498" height="104.72"/>
<g>
	<rect x="346.2" y="136.92" style="fill:#898890;" width="19.249" height="104.72"/>
	<path style="fill:#898890;" d="M437.056,122.869v-1.036c37.248,0,67.444,30.196,67.444,67.444s-30.196,67.444-67.444,67.444l0,0
		c0-22.84-18.516-41.356-41.356-41.356h-11.001v-51.14H395.7C418.54,164.225,437.056,145.71,437.056,122.869z"/>
</g>
<path style="fill:#57565C;" d="M461.301,252.213c-2.247-20.719-19.791-36.848-41.107-36.848h-11v-51.139h11
	c21.658,0,39.415-16.651,41.198-37.848c-7.551-2.924-15.752-4.544-24.335-4.544v1.036c0,22.84-18.516,41.356-41.356,41.356h-11
	v51.139h11c22.84,0,41.356,18.516,41.356,41.356l0,0C445.605,256.721,453.775,255.114,461.301,252.213z"/>
<g>
	<rect x="301.5" y="395.43" style="fill:#1D1D1F;" width="15" height="15"/>
	<rect x="301.5" y="370.43" style="fill:#1D1D1F;" width="15" height="15"/>
	<rect x="301.5" y="345.43" style="fill:#1D1D1F;" width="15" height="15"/>
</g>
<g>
	<rect x="232" y="445" style="fill:#FFFFFF;" width="15" height="37.533"/>
	<rect x="232" y="395" style="fill:#FFFFFF;" width="15" height="15"/>
	<rect x="232" y="420" style="fill:#FFFFFF;" width="15" height="15"/>
</g>
<g>
	<path style="fill:#1D1D1F;" d="M208.11,347.523l6.947,13.295c4.768-2.492,9.377-5.396,13.699-8.634l-8.992-12.006
		C216.086,342.934,212.165,345.404,208.11,347.523z"/>
	<path style="fill:#1D1D1F;" d="M226.81,334.28l10.229,10.972c8.962-8.354,16.243-18.146,21.642-29.104l-13.455-6.629
		C240.633,318.839,234.437,327.17,226.81,334.28z"/>
	<path style="fill:#1D1D1F;" d="M186.57,355.287l3.131,14.67c5.274-1.126,10.496-2.694,15.52-4.66l-5.467-13.969
		C195.485,352.999,191.05,354.331,186.57,355.287z"/>
	<path style="fill:#1D1D1F;" d="M81.432,371.953c25.004,19.983,55.173,30.547,87.245,30.547s62.241-10.563,87.245-30.547
		c24.264-19.394,41.584-46.619,48.771-76.663l2.212-9.245h-41.067V136.659c0-20.088-6.081-39.368-17.584-55.755
		c-10.489-14.941-24.747-26.501-41.408-33.613l-0.742-2.791h13.98C238.233,44.5,253,29.733,253,11.583V0h-84.323
		c-15.066,0-28.294,10.169-32.167,24.729l-6.001,22.563c-16.661,7.112-30.919,18.672-41.407,33.613
		c-11.504,16.387-17.584,35.666-17.584,55.754v149.386H30.449l2.212,9.245C39.848,325.334,57.168,352.56,81.432,371.953z
		 M117.974,301.045v-15H86.518V136.659c0-33.888,21.276-64.755,52.943-76.808l0.027-0.01c9.323-3.543,19.144-5.341,29.189-5.341v-15
		c-7.185,0-14.272,0.792-21.196,2.336l3.525-13.252C153.134,20.586,160.4,15,168.677,15h68.996c-1.6,8.251-8.878,14.5-17.59,14.5
		h-33.49l7.706,28.982l3.593,1.368c31.668,12.053,52.945,42.92,52.945,76.809v164.386h36.684
		c-16.479,51.358-64.058,86.455-118.844,86.455S66.312,352.403,49.833,301.045H117.974z"/>
</g>
<g>
	<path style="fill:#FFFFFF;" d="M219.61,85.614c-3.949-3.96-8.351-7.454-13.081-10.386l-7.9,12.75
		c3.744,2.32,7.23,5.089,10.36,8.228L219.61,85.614z"/>
	<path style="fill:#FFFFFF;" d="M225.158,127.954l14.82-2.32c-1.772-11.318-6.313-22.231-13.131-31.558l-12.109,8.852
		C220.151,110.333,223.755,118.987,225.158,127.954z"/>
	<path style="fill:#FFFFFF;" d="M190.797,83.937l5.809-13.83c-0.749-0.314-1.505-0.617-2.271-0.909l-11.976-4.558l-5.336,14.02
		l11.974,4.557C189.603,83.446,190.202,83.687,190.797,83.937z"/>
</g>
<g>
	<path style="fill:#1D1D1F;" d="M160.575,174.363v-26.55h-65v26.55c0,17.921,14.579,32.5,32.5,32.5S160.575,192.284,160.575,174.363
		z M110.575,174.363v-11.55h35v11.55c0,9.649-7.851,17.5-17.5,17.5S110.575,184.013,110.575,174.363z"/>
	<path style="fill:#1D1D1F;" d="M208.912,206.863c17.921,0,32.5-14.579,32.5-32.5v-26.55h-65v26.55
		C176.412,192.284,190.991,206.863,208.912,206.863z M191.412,162.813h35v11.55c0,9.649-7.851,17.5-17.5,17.5s-17.5-7.851-17.5-17.5
		V162.813z"/>
	<path style="fill:#1D1D1F;" d="M131.287,248.776c0,20.617,16.772,37.391,37.39,37.391s37.391-16.773,37.391-37.391v-27.404
		l-37.391-18.764l-37.39,18.764V248.776z M146.287,230.628l22.39-11.236l22.391,11.236v18.148c0,12.347-10.044,22.391-22.391,22.391
		c-12.346,0-22.39-10.044-22.39-22.391V230.628z"/>
	<polygon style="fill:#1D1D1F;" points="373.088,261.643 373.24,497 357.966,497 357.813,261.633 342.813,261.643 342.976,512 
		388.25,512 388.088,261.633 	"/>
	
		<rect x="357.87" y="93.045" transform="matrix(-7.799998e-004 -1 1 -7.799998e-004 249.9748 481.1404)" style="fill:#1D1D1F;" width="15" height="45.27"/>
	<path style="fill:#1D1D1F;" d="M437.056,114.333h-7.5v8.536c0,18.669-15.188,33.856-33.855,33.856H392.2v-27.309h-53.498v119.721
		H392.2v-26.272h3.501c18.668,0,33.855,15.188,33.855,33.856v7.5h7.5c41.324,0,74.944-33.62,74.944-74.944
		S478.38,114.333,437.056,114.333z M377.199,234.138h-23.498v-89.721h23.498V234.138z M479.443,231.664
		c-9.688,9.688-22.108,15.651-35.523,17.171c-3.78-23.204-23.964-40.97-48.22-40.97h-3.501v-36.14h3.501
		c24.607,0,45.024-18.286,48.374-41.984C473.832,133.229,497,158.599,497,189.277C497,205.289,490.765,220.342,479.443,231.664z"/>
</g>
<g>
	<path style="fill:#FFFFFF;" d="M470.947,192.942c-1.237,11.534-8.198,21.555-18.621,26.806l6.748,13.396
		c14.991-7.553,25.005-21.983,26.787-38.603L470.947,192.942z"/>
	<path style="fill:#FFFFFF;" d="M470.845,184.758l14.869-1.979c-0.783-5.89-2.613-11.529-5.438-16.762l-13.199,7.127
		C469.034,176.771,470.302,180.678,470.845,184.758z"/>
	<path style="fill:#FFFFFF;" d="M462.354,166.461l11.133-10.053c-3.981-4.409-8.667-8.025-13.928-10.749l-6.896,13.32
		C456.321,160.874,459.582,163.391,462.354,166.461z"/>
</g>
<path style="fill:#1D1D1F;" d="M318.983,304.148l-10.607,10.605l13.978,13.979l-0.003,95.328h-45.964v-46.666h-15V497H75.968
	v-28.934h42.006v-15H75.968v-75.67h-15v46.665H15v-95.328l13.979-13.978l-10.607-10.607L0,322.521V512h337.354V322.521
	L318.983,304.148z M50.972,497v-36.434h-15V497H15v-57.938h45.968V497H50.972z M276.386,497v-57.938h45.964v9.739h-22.98v15h22.979
	L322.348,497H276.386z"/>
<g>
</g>
<g>
</g>
<g>
</g>
<g>
</g>
<g>
</g>
<g>
</g>
<g>
</g>
<g>
</g>
<g>
</g>
<g>
</g>
<g>
</g>
<g>
</g>
<g>
</g>
<g>
</g>
<g>
</g>
</svg>
