<?xml version="1.0" encoding="iso-8859-1"?>
<!-- Generator: Adobe Illustrator 19.0.0, SVG Export Plug-In . SVG Version: 6.00 Build 0)  -->
<svg version="1.1" id="Capa_1" xmlns="http://www.w3.org/2000/svg" xmlns:xlink="http://www.w3.org/1999/xlink" x="0px" y="0px"
	 viewBox="0 0 512.001 512.001" style="enable-background:new 0 0 512.001 512.001;" xml:space="preserve">
<path style="fill:#B45F4A;" d="M313.094,352.335h-11.882l0.202-0.392v-102.86h-90.831v102.859l0.202,0.392h-11.882
	c-44.899,0-81.297,36.398-81.297,81.297V504.5h276.785v-70.868C394.391,388.733,357.993,352.335,313.094,352.335z"/>
<path style="fill:#A1513D;" d="M313.094,352.335h-11.882l0.202-0.392v-102.86h-23.396v102.859l-0.202,0.392h11.881
	c44.899,0,81.297,36.398,81.297,81.297V504.5h23.397v-70.868C394.391,388.733,357.993,352.335,313.094,352.335z"/>
<path style="fill:#FFB56B;" d="M255.999,331L255.999,331c-77.358,0-140.069-62.711-140.069-140.069v-56.754
	C115.93,64.215,172.645,7.5,242.607,7.5h26.784c69.962,0,126.677,56.715,126.677,126.677v56.754
	C396.068,268.289,333.357,331,255.999,331z"/>
<path style="fill:#FB403F;" d="M255.999,331L255.999,331c-77.358,0-140.069-62.711-140.069-140.069v-56.754
	C115.93,64.215,172.645,7.5,242.607,7.5h26.784c69.962,0,126.677,56.715,126.677,126.677v56.754
	C396.068,268.289,333.357,331,255.999,331z"/>
<path style="fill:#C21C1C;" d="M269.391,7.5h-22.995c69.962,0,126.677,56.715,126.677,126.677v56.754
	c0,73.486-56.593,133.748-128.572,139.597c3.793,0.308,7.626,0.472,11.498,0.472l0,0c77.358,0,140.069-62.711,140.069-140.069
	v-56.754C396.068,64.215,339.354,7.5,269.391,7.5z"/>
<path style="fill:#F0EEEE;" d="M396.068,145.004c-33.294-24.04-74-21.737-83.069-16.504c2.5-6,4.75-36.75-17.5-57.5
	c4,24.5-12,60-39.5,72.5c-27.5-12.5-43.5-48-39.5-72.5c-22.25,20.75-20,51.5-17.5,57.5c-9.07-5.232-49.775-7.536-83.069,16.504
	v45.926c0,11.094,1.296,21.883,3.733,32.232c29.485,0.803,62.877,13.315,42.391,71.657C186.901,317.303,219.85,331,255.999,331l0,0
	c36.149,0,69.098-13.697,93.946-36.18c-20.486-58.341,12.905-70.854,42.391-71.657c2.437-10.349,3.733-21.139,3.733-32.232
	L396.068,145.004L396.068,145.004z"/>
<g>
	<path style="fill:#D9D4D4;" d="M260.656,330.915c15.292-0.5,30.473-3.499,44.789-8.903c14.454-5.456,27.971-13.329,39.869-23.184
		c0.884-0.733,1.76-1.476,2.627-2.23c0.481-0.419,0.96-0.841,1.435-1.266c0.111-0.1,0.542-0.412,0.569-0.512
		c0.039-0.146-0.209-0.6-0.261-0.749c-0.765-2.214-1.48-4.445-2.136-6.694c-1.148-3.941-2.114-7.939-2.807-11.987
		c-9.111,12.033-20.162,22.583-32.609,31.121c-12.646,8.675-26.711,15.251-41.486,19.364c-8.537,2.377-17.299,3.932-26.131,4.651
		C249.885,330.962,255.272,331.092,260.656,330.915z"/>
	<path style="fill:#D9D4D4;" d="M373.073,134.177c0,2.734,0,5.469,0,8.203c0,6.126,0,12.251,0,18.376c0,6.4,0,12.801,0,19.201
		c0,3.559,0.001,7.118,0,10.677c-0.003,10.723-1.168,21.425-3.578,31.877c-0.361,1.567-0.75,3.128-1.165,4.682
		c6.408-2.309,13.215-3.406,19.993-3.847c0.791-0.051,1.582-0.093,2.374-0.127c0.399-0.017,0.888,0.039,1.274-0.046
		c0.486-0.107,0.361,0.001,0.493-0.57c0.399-1.729,0.766-3.465,1.098-5.207c0.666-3.488,1.201-7.002,1.597-10.531
		c0.773-6.892,0.907-13.788,0.907-20.711c0-6.594,0-13.189,0-19.783c0-6.132,0-12.264,0-18.396c0-0.752,0-1.503,0-2.255
		c0-0.819,0.038-0.695-0.777-1.271c-5.546-3.923-11.497-7.263-17.712-10.003c-1.494-0.659-3.003-1.283-4.526-1.873
		C373.06,133.108,373.073,133.642,373.073,134.177z"/>
</g>
<g>
	<path style="fill:#B45F4A;" d="M285.919,227.061h-59.837c-22.525,0-39.409,20.623-34.962,42.705l4.996,24.807
		c1.503,7.462,1.09,15.181-1.187,22.443C213.385,325.973,234.104,331,255.999,331l0,0c21.894,0,42.613-5.027,61.071-13.984
		c-2.276-7.261-2.689-14.98-1.186-22.443l4.996-24.807C325.328,247.684,308.443,227.061,285.919,227.061z"/>
	<path style="fill:#B45F4A;" d="M279.872,182.01c4.372,14.864,18.109,26.941,35.902,29.534c21.885,3.19,42.637-9.521,47.268-29.011
		c0.034-0.143,0.067-0.287,0.099-0.43c2.359-10.492-4.351-21.192-15.524-25.096c-3.545-1.239-7.259-2.193-11.115-2.827
		c-20.63-3.391-40.358,3.162-53.363,15.882C279.903,173.226,278.614,177.734,279.872,182.01z"/>
	<path style="fill:#B45F4A;" d="M232.128,182.01c-4.372,14.864-18.109,26.941-35.902,29.534
		c-21.885,3.19-42.637-9.521-47.268-29.011c-0.034-0.143-0.067-0.287-0.1-0.43c-2.359-10.492,4.351-21.192,15.524-25.096
		c3.545-1.239,7.259-2.193,11.115-2.827c20.63-3.391,40.358,3.162,53.363,15.882C232.096,173.226,233.385,177.734,232.128,182.01z"
		/>
</g>
<path style="fill:#F0EEEE;" d="M242.607,7.5c-2.899,0-5.772,0.106-8.623,0.298c-0.195,2.54-0.313,5.103-0.313,7.693
	c0,23.774,8.377,45.587,22.328,62.667c13.951-17.08,22.328-38.893,22.328-62.667c0-2.59-0.117-5.153-0.313-7.693
	c-2.85-0.192-5.724-0.298-8.623-0.298C269.392,7.5,242.607,7.5,242.607,7.5z"/>
<path style="fill:#A1513D;" d="M310.06,314.349c-0.807-2.575-1.368-5.208-1.704-7.866c-11.061,8.273-23.312,15.036-36.453,19.972
	C285.365,324.238,298.182,320.113,310.06,314.349z"/>
<path d="M277.894,164.699c-5.236,5.122-7.236,12.566-5.218,19.427c5.361,18.226,21.854,31.901,42.016,34.84
	c2.612,0.381,5.208,0.565,7.776,0.564c22.686-0.001,42.919-14.42,47.869-35.26l0.121-0.522c3.173-14.115-5.583-28.655-20.368-33.821
	c-3.997-1.396-8.16-2.455-12.372-3.148C315.469,143.124,293.107,149.822,277.894,164.699z M355.823,180.461l-0.078,0.339
	c-3.732,15.713-20.819,25.962-38.89,23.322c-14.383-2.096-26.075-11.607-29.788-24.229c0,0,0,0,0-0.001
	c-0.462-1.57,0.017-3.199,1.315-4.469c9.658-9.446,23.139-14.628,37.33-14.628c3.167,0,6.37,0.258,9.573,0.784
	c3.36,0.553,6.677,1.396,9.857,2.507C352.734,166.739,357.326,173.777,355.823,180.461z"/>
<path d="M234.104,164.699c-15.213-14.877-37.577-21.577-59.823-17.92c-4.213,0.692-8.376,1.751-12.373,3.148
	c-14.785,5.166-23.541,19.706-20.368,33.819l0.12,0.521c4.951,20.845,25.182,35.264,47.87,35.264c2.566,0,5.165-0.185,7.775-0.564
	c20.163-2.939,36.655-16.613,42.017-34.84v0.001C241.341,177.266,239.341,169.821,234.104,164.699z M224.932,179.893
	c0,0.001,0,0.001,0,0.001c-3.713,12.622-15.405,22.133-29.789,24.229c-18.078,2.641-35.155-7.609-38.89-23.326l-0.078-0.337
	c-1.502-6.682,3.09-13.72,10.681-16.372c3.181-1.11,6.497-1.954,9.858-2.507c3.203-0.526,6.404-0.784,9.572-0.784
	c14.19,0,27.673,5.183,37.33,14.628C224.915,176.693,225.395,178.322,224.932,179.893z"/>
<path d="M319.25,176.744c-4.143,0-7.5,3.357-7.5,7.5v2.219c0,4.143,3.357,7.5,7.5,7.5s7.5-3.357,7.5-7.5v-2.219
	C326.75,180.102,323.393,176.744,319.25,176.744z"/>
<path d="M192.749,176.744c-4.143,0-7.5,3.357-7.5,7.5v2.219c0,4.143,3.357,7.5,7.5,7.5s7.5-3.357,7.5-7.5v-2.219
	C200.249,180.102,196.893,176.744,192.749,176.744z"/>
<path d="M255.999,275.979c14.701,0,28.48-7.225,36.86-19.327c2.358-3.405,1.509-8.077-1.897-10.436
	c-3.407-2.359-8.077-1.509-10.436,1.896c-5.579,8.057-14.748,12.866-24.528,12.866c-9.78,0-18.949-4.81-24.528-12.866
	c-2.357-3.406-7.029-4.256-10.436-1.896c-3.405,2.358-4.255,7.03-1.896,10.436C227.52,268.755,241.298,275.979,255.999,275.979z"/>
<path d="M356.021,450.204c-20.27,13.121-48.582,13.121-68.854,0c-3.478-2.251-8.12-1.258-10.371,2.221
	c-2.251,3.477-1.257,8.12,2.221,10.371c12.534,8.113,27.556,12.171,42.578,12.171c15.021,0,30.043-4.058,42.577-12.171
	c3.477-2.251,4.472-6.895,2.221-10.371C364.143,448.947,359.497,447.953,356.021,450.204z"/>
<path d="M224.831,450.204c-20.272,13.121-48.584,13.121-68.855,0c-3.477-2.251-8.12-1.258-10.371,2.221
	c-2.251,3.477-1.257,8.12,2.221,10.371c12.534,8.113,27.556,12.171,42.577,12.171c15.023,0,30.044-4.058,42.578-12.171
	c3.478-2.251,4.472-6.895,2.221-10.371C232.952,448.947,228.307,447.953,224.831,450.204z"/>
<path d="M278.563,0.32c-0.016-0.001-0.03-0.004-0.046-0.005c-0.061-0.004-0.12-0.005-0.181-0.009
	c-1.351-0.089-2.707-0.158-4.068-0.207c-0.203-0.008-0.406-0.016-0.608-0.023C272.242,0.03,270.82,0,269.393,0h-26.785
	c-1.421,0-2.838,0.03-4.253,0.075c-0.26,0.008-0.522,0.022-0.783,0.032c-1.196,0.045-2.39,0.106-3.582,0.182
	c-0.17,0.011-0.337,0.014-0.507,0.026c-0.061,0.004-0.119,0.015-0.18,0.021C198.171,2.78,165.23,18.972,141.8,45.623
	c-2.735,3.111-2.43,7.851,0.681,10.585c3.112,2.734,7.851,2.432,10.585-0.681c18.989-21.6,45.009-35.468,73.121-39.383
	c0.15,24.281,8.654,47.966,24.004,66.759c1.425,1.744,3.557,2.756,5.809,2.756c2.252,0,4.384-1.012,5.809-2.756
	c15.352-18.795,23.856-42.483,24.005-66.766c57.101,7.905,101.405,56.41,102.722,115.34c-5.64-3.043-11.589-5.637-17.815-7.725
	c-3.924-1.316-8.178,0.799-9.495,4.726c-1.317,3.927,0.799,8.179,4.726,9.495c8.134,2.729,15.726,6.41,22.619,10.966v41.993
	c0,1.097-0.015,2.191-0.042,3.282c-0.01,0.417-0.03,0.833-0.044,1.25c-0.023,0.671-0.044,1.341-0.077,2.009
	c-0.025,0.503-0.059,1.005-0.089,1.507c-0.035,0.581-0.068,1.164-0.111,1.743c-0.038,0.524-0.085,1.047-0.13,1.571
	c-0.048,0.563-0.095,1.126-0.15,1.687c-0.05,0.507-0.106,1.012-0.162,1.518c-0.064,0.588-0.13,1.175-0.202,1.76
	c-0.057,0.46-0.119,0.92-0.18,1.38c-0.086,0.645-0.175,1.29-0.271,1.933c-0.057,0.387-0.118,0.772-0.179,1.158
	c-0.117,0.737-0.238,1.473-0.366,2.206c-0.05,0.283-0.101,0.566-0.152,0.849c-0.073,0.4-0.153,0.797-0.23,1.196
	c-19.985,1.59-34.263,8.436-42.496,20.393c-9.143,13.281-9.963,32.108-2.458,56.01c-5.82,4.897-12.063,9.305-18.67,13.157
	c-0.174-3.176,0.049-6.367,0.679-9.483c0-0.003,0.001-0.005,0.001-0.005l4.99-24.801c2.566-12.74-0.683-25.814-8.914-35.868
	c-8.231-10.056-20.404-15.822-33.398-15.822h-59.84c-12.994,0-25.167,5.767-33.398,15.822s-11.48,23.128-8.914,35.866l4.991,24.808
	c0.63,3.116,0.854,6.307,0.679,9.483c-6.607-3.852-12.85-8.26-18.67-13.157c7.505-23.902,6.685-42.729-2.458-56.01
	c-8.232-11.957-22.511-18.803-42.496-20.393c-0.076-0.398-0.157-0.796-0.23-1.196c-0.051-0.283-0.102-0.566-0.152-0.849
	c-0.129-0.733-0.25-1.469-0.366-2.206c-0.061-0.386-0.122-0.772-0.179-1.158c-0.096-0.643-0.185-1.288-0.271-1.933
	c-0.061-0.46-0.123-0.92-0.18-1.38c-0.072-0.586-0.137-1.173-0.202-1.76c-0.056-0.506-0.112-1.012-0.162-1.518
	c-0.055-0.561-0.102-1.124-0.15-1.687c-0.045-0.524-0.092-1.047-0.13-1.571c-0.042-0.579-0.076-1.161-0.111-1.743
	c-0.03-0.502-0.064-1.004-0.089-1.507c-0.033-0.668-0.054-1.339-0.077-2.009c-0.014-0.417-0.034-0.833-0.044-1.25
	c-0.027-1.091-0.042-2.185-0.042-3.282v-41.995c30.812-20.39,66.016-17.29,71.821-13.939c2.787,1.607,6.287,1.264,8.702-0.858
	c2.415-2.123,3.21-5.544,1.973-8.513c-0.858-2.188-2.86-17.309,3.954-32.639c1.518,7.42,4.176,14.972,7.886,22.191
	c8.294,16.14,20.77,28.623,35.13,35.15c1.973,0.896,4.234,0.896,6.207,0c14.359-6.527,26.836-19.011,35.13-35.15
	c3.71-7.22,6.368-14.771,7.886-22.192c6.814,15.33,4.813,30.448,3.958,32.63c-1.237,2.969-0.444,6.395,1.971,8.518
	c2.416,2.123,5.913,2.473,8.7,0.863c1.736-1.001,9.206-2.887,21.227-2.311c4.087,0.188,7.651-2.996,7.849-7.134
	c0.198-4.137-2.996-7.651-7.134-7.849c-6.087-0.293-11.787-0.073-16.7,0.595c0.39-14.223-3.459-36.075-21.374-52.783
	c-2.345-2.187-5.821-2.639-8.652-1.129c-2.828,1.513-4.382,4.657-3.865,7.822c3.327,20.377-9.632,50.636-32.098,62.912
	c-22.466-12.276-35.425-42.535-32.098-62.912c0.517-3.165-1.037-6.31-3.865-7.822c-2.831-1.51-6.307-1.059-8.652,1.129
	c-17.906,16.699-21.76,38.535-21.375,52.759c-16.371-2.301-42.482,0.24-66.538,13.196c0.417-18.249,5.029-36.301,13.423-52.375
	c1.917-3.672,0.495-8.203-3.177-10.12c-3.671-1.919-8.203-0.495-10.12,3.177c-9.922,19.003-15.167,40.451-15.167,62.025v10.828
	v45.926c0,1.365,0.022,2.726,0.059,4.083c0.011,0.388,0.031,0.775,0.044,1.163c0.035,0.981,0.074,1.96,0.127,2.936
	c0.024,0.441,0.056,0.882,0.084,1.323c0.059,0.927,0.124,1.853,0.201,2.775c0.038,0.456,0.08,0.912,0.122,1.367
	c0.084,0.907,0.175,1.811,0.275,2.713c0.051,0.464,0.104,0.929,0.16,1.392c0.107,0.889,0.224,1.774,0.347,2.658
	c0.066,0.474,0.129,0.949,0.2,1.423c0.128,0.86,0.269,1.717,0.412,2.572c0.082,0.494,0.159,0.989,0.246,1.482
	c0.142,0.797,0.298,1.589,0.452,2.381c0.278,1.43,0.576,2.854,0.895,4.274c0.061,0.268,0.115,0.538,0.177,0.805
	c0.047,0.202,0.086,0.405,0.134,0.606c0.015,0.063,0.043,0.12,0.059,0.183c6.929,29.147,22.525,54.972,43.908,74.589
	c0.214,0.253,0.44,0.499,0.691,0.726c10.384,9.396,21.938,17.173,34.294,23.202c0.113,0.062,0.223,0.128,0.34,0.184
	c0.494,0.24,0.999,0.463,1.496,0.698c0.335,0.158,0.671,0.314,1.007,0.469c0.824,0.38,1.649,0.757,2.481,1.122
	c0.153,0.067,0.307,0.131,0.459,0.198c1.976,0.861,3.97,1.682,5.98,2.455v16.12h-4.18c-48.959,0-88.79,39.835-88.79,88.8v70.87
	c0,4.143,3.357,7.5,7.5,7.5H394.39c4.143,0,7.5-3.357,7.5-7.5v-70.87c0-16.451-4.534-32.518-13.112-46.46
	c-2.17-3.528-6.793-4.628-10.317-2.458c-3.528,2.17-4.629,6.79-2.458,10.317c7.123,11.578,10.888,24.926,10.888,38.601V497H125.109
	v-63.37c0-40.693,33.103-73.8,73.79-73.8h11.89c2.641,0,5.086-1.389,6.44-3.655c1.019-1.707,1.307-3.724,0.851-5.607v-16.995
	c7.878,2.091,15.919,3.52,24.065,4.278c0.127,0.012,0.255,0.024,0.383,0.035c0.628,0.057,1.257,0.112,1.887,0.161
	c0.259,0.02,0.519,0.037,0.778,0.056c0.048,0.003,0.095,0.007,0.143,0.01c0.22,0.016,0.44,0.033,0.66,0.047
	c0.625,0.042,1.251,0.079,1.877,0.113c0.311,0.017,0.623,0.035,0.935,0.05c0.192,0.009,0.384,0.019,0.576,0.028
	c0.696,0.031,1.394,0.053,2.091,0.074c0.304,0.009,0.607,0.023,0.912,0.03c0.108,0.003,0.217,0.006,0.325,0.008
	c1.095,0.024,2.191,0.038,3.288,0.038c1.206,0,2.411-0.017,3.613-0.046c0.145-0.003,0.289-0.008,0.433-0.012
	c0.358-0.01,0.716-0.028,1.074-0.041c0.691-0.024,1.382-0.046,2.072-0.079c0.301-0.014,0.6-0.031,0.9-0.047
	c0.379-0.02,0.757-0.047,1.135-0.07c0.501-0.031,1.003-0.061,1.504-0.098c0.463-0.033,0.925-0.07,1.387-0.108
	c0.356-0.029,0.712-0.059,1.068-0.09c0.353-0.031,0.705-0.065,1.056-0.099c0.617-0.059,1.233-0.124,1.847-0.191
	c0.554-0.06,1.107-0.124,1.66-0.19c0.682-0.082,1.363-0.169,2.042-0.26c0.251-0.034,0.502-0.064,0.753-0.099
	c0.433-0.06,0.865-0.125,1.298-0.189c0.487-0.073,0.973-0.149,1.459-0.227c0.281-0.045,0.561-0.089,0.841-0.136
	c0.589-0.097,1.178-0.194,1.766-0.297c0.284-0.051,0.567-0.107,0.851-0.159c0.258-0.047,0.516-0.096,0.773-0.145
	c2.006-0.378,4.007-0.783,5.994-1.244c1.471-0.344,2.934-0.717,4.392-1.104v16.999c-0.455,1.884-0.169,3.9,0.851,5.607
	c1.353,2.267,3.799,3.655,6.439,3.655h11.89c16.297,0,31.741,5.206,44.664,15.055c1.357,1.035,2.955,1.536,4.54,1.535
	c2.261,0,4.495-1.018,5.971-2.954c2.511-3.294,1.876-8-1.419-10.511c-15.558-11.857-34.146-18.125-53.756-18.125h-4.18v-16.12
	c2.009-0.772,4.002-1.593,5.977-2.454c0.154-0.067,0.31-0.132,0.464-0.199c0.832-0.366,1.657-0.742,2.481-1.122
	c0.336-0.155,0.672-0.312,1.007-0.469c0.498-0.235,1.002-0.458,1.496-0.698c0.117-0.057,0.227-0.122,0.339-0.184
	c12.356-6.03,23.91-13.806,34.294-23.202c0.251-0.227,0.477-0.473,0.691-0.726c21.383-19.618,36.978-45.442,43.908-74.589
	c0.017-0.063,0.044-0.119,0.059-0.183c0.047-0.201,0.087-0.405,0.134-0.606c0.062-0.267,0.117-0.537,0.177-0.805
	c0.32-1.419,0.618-2.844,0.895-4.274c0.154-0.792,0.311-1.584,0.452-2.381c0.087-0.493,0.164-0.988,0.246-1.482
	c0.143-0.855,0.283-1.712,0.412-2.572c0.07-0.474,0.134-0.948,0.2-1.423c0.123-0.884,0.24-1.769,0.347-2.658
	c0.056-0.464,0.108-0.928,0.16-1.392c0.1-0.902,0.191-1.807,0.275-2.713c0.042-0.456,0.084-0.911,0.122-1.367
	c0.076-0.922,0.141-1.848,0.201-2.775c0.028-0.441,0.06-0.881,0.084-1.323c0.054-0.976,0.093-1.955,0.127-2.936
	c0.014-0.388,0.034-0.775,0.044-1.163c0.037-1.357,0.059-2.717,0.059-4.083v-45.926v-10.828
	C403.568,63.274,348.286,5.05,278.563,0.32z M270.826,15.491c0,17.761-5.213,35.174-14.827,49.966
	c-9.614-14.792-14.827-32.205-14.827-49.966c0-0.157,0.001-0.315,0.001-0.472c0.478-0.006,0.955-0.019,1.434-0.019h26.785
	c0.479,0,0.956,0.012,1.434,0.018C270.826,15.175,270.826,15.334,270.826,15.491z M203.462,293.091l-4.99-24.803
	c-1.675-8.313,0.444-16.843,5.815-23.403c5.371-6.562,13.313-10.324,21.792-10.324h59.84c8.479,0,16.421,3.763,21.792,10.324
	c5.371,6.561,7.49,15.091,5.815,23.405l-4.989,24.795c-1.306,6.459-1.37,13.143-0.217,19.643
	c-5.114,2.205-10.391,4.102-15.811,5.657c-0.256,0.073-0.513,0.144-0.769,0.216c-0.704,0.197-1.41,0.389-2.119,0.575
	c-0.383,0.1-0.766,0.199-1.15,0.295c-0.582,0.147-1.167,0.289-1.752,0.428c-0.462,0.11-0.925,0.22-1.389,0.325
	c-0.508,0.115-1.017,0.224-1.527,0.333c-0.52,0.111-1.039,0.224-1.56,0.329c-0.44,0.089-0.882,0.17-1.324,0.254
	c-1.347,0.257-2.699,0.496-4.055,0.711c-0.287,0.045-0.574,0.092-0.861,0.136c-0.504,0.077-1.01,0.146-1.516,0.217
	c-0.227,0.032-0.454,0.065-0.682,0.096c-0.449,0.06-0.899,0.117-1.349,0.173c-0.296,0.037-0.591,0.073-0.887,0.107
	c-0.394,0.046-0.787,0.092-1.182,0.135c-0.686,0.074-1.373,0.142-2.06,0.205c-0.449,0.042-0.897,0.083-1.347,0.12
	c-0.13,0.01-0.26,0.02-0.39,0.03c-0.671,0.053-1.343,0.1-2.015,0.143c-0.283,0.018-0.565,0.038-0.848,0.054
	c-0.267,0.015-0.535,0.03-0.802,0.044c-0.731,0.038-1.463,0.068-2.195,0.094c-0.138,0.005-0.275,0.011-0.413,0.016
	c-0.293,0.01-0.585,0.021-0.878,0.029c-1.146,0.029-2.293,0.049-3.441,0.049c-1.634,0-3.264-0.041-4.891-0.1
	c-0.365-0.013-0.73-0.025-1.095-0.042c-1.445-0.064-2.887-0.155-4.325-0.265c-0.224-0.017-0.448-0.033-0.672-0.052
	c-0.265-0.022-0.529-0.047-0.794-0.071c-1.257-0.11-2.511-0.24-3.762-0.386c-0.011-0.001-0.022-0.003-0.033-0.004
	c-0.52-0.061-1.041-0.122-1.561-0.189c-1.242-0.16-2.48-0.342-3.715-0.537c-0.662-0.105-1.324-0.214-1.984-0.329
	c-1.061-0.184-2.118-0.384-3.173-0.594c-0.08-0.016-0.161-0.03-0.241-0.046c-0.522-0.105-1.041-0.218-1.561-0.329
	c-0.347-0.074-0.695-0.15-1.041-0.227c-0.65-0.145-1.3-0.294-1.948-0.449c-0.56-0.134-1.12-0.269-1.678-0.41
	c-0.384-0.097-0.767-0.195-1.15-0.295c-0.616-0.162-1.229-0.329-1.841-0.499c-0.145-0.04-0.29-0.079-0.434-0.119
	c-0.204-0.057-0.409-0.113-0.612-0.172c-0.95-0.273-1.897-0.553-2.839-0.846c-0.048-0.015-0.095-0.031-0.142-0.046
	c-4.379-1.369-8.658-2.966-12.83-4.765C204.831,306.229,204.768,299.546,203.462,293.091z M129.798,231.534
	c10.067,1.481,20.494,5.12,26.156,13.345c5.579,8.103,6.423,20.109,2.547,35.776C145.651,266.703,135.753,249.997,129.798,231.534z
	 M353.497,280.655c-3.877-15.668-3.032-27.673,2.547-35.776c5.662-8.225,16.089-11.864,26.156-13.345
	C376.245,249.997,366.347,266.703,353.497,280.655z"/>
<g>
</g>
<g>
</g>
<g>
</g>
<g>
</g>
<g>
</g>
<g>
</g>
<g>
</g>
<g>
</g>
<g>
</g>
<g>
</g>
<g>
</g>
<g>
</g>
<g>
</g>
<g>
</g>
<g>
</g>
</svg>
