<svg height="511pt" viewBox="-80 0 511 511.99958" width="511pt" xmlns="http://www.w3.org/2000/svg"><path d="m288.765625 389.71875-36.433594-23.554688 52.3125-80.914062c6.503907-10.0625 19.933594-12.945312 29.992188-6.441406 10.0625 6.503906 12.945312 19.933594 6.441406 29.996094zm0 0" fill="#c97e67"/><path d="m252.824219 120.367188s4.945312-75.824219 86.386719-70.003907c4.210937.300781 6.871093 4.648438 5.234374 8.539063-8.082031 19.234375-34.222656 67.371094-91.621093 61.464844zm0 0" fill="#4b5055"/><path d="m250.304688 93.109375s74.589843-14.484375 89.660156 65.761719c.777344 4.144531-2.75 7.824218-6.925782 7.230468-20.660156-2.929687-73.855468-15.976562-82.734374-72.992187zm0 0" fill="#5a5f64"/><path d="m339.84375 474.164062c0 8.355469-3.378906 15.929688-8.859375 21.398438-5.476563 5.488281-13.054687 8.871094-21.410156 8.871094h-271.238281c-16.628907 0-30.238282-13.410156-30.269532-30.027344-.070312-38.289062 15.425782-72.957031 40.507813-98.039062 19.179687-19.1875 43.980469-32.757813 71.707031-38.046876 11.105469-2.117187 19.167969-11.792968 19.167969-23.101562v-42.09375h69.011719v42.101562c0 11.261719 7.992187 20.96875 19.070312 23.074219 63.953125 12.160157 112.3125 68.367188 112.3125 135.863281zm0 0" fill="#4b5055"/><path d="m339.84375 474.164062c0 8.355469-3.378906 15.929688-8.859375 21.398438-5.476563 5.488281-13.054687 8.871094-21.410156 8.871094h-241.980469c-16.628906 0-30.238281-13.410156-30.269531-30.027344-.070313-38.289062 15.429687-72.957031 40.511719-98.039062 19.179687-19.1875 43.976562-32.757813 71.703124-38.046876 11.109376-2.117187 19.167969-11.792968 19.167969-23.101562v-42.09375h39.753907v42.101562c0 11.261719 7.992187 20.96875 19.070312 23.074219 63.953125 12.160157 112.3125 68.367188 112.3125 135.863281zm0 0" fill="#5a5f64"/><path d="m277.410156 110.839844v92.800781c0 47.601563-56.21875 87.535156-88.824218 98.460937-5.761719 1.925782-10.785157 2.945313-14.628907 2.945313-12.816406 0-38.683593-11.351563-61.34375-29.703125-22.660156-18.351562-42.113281-43.707031-42.113281-71.703125v-92.800781c0-57.136719 46.320312-103.457032 103.457031-103.457032 4.960938 0 9.84375.351563 14.628907 1.027344 50.203124 7.105469 88.824218 50.257813 88.824218 102.429688zm0 0" fill="#5a5f64"/><path d="m277.410156 110.839844v92.800781c0 47.601563-56.21875 87.535156-88.824218 98.460937-13.429688-4.5-30.855469-13.914062-46.714844-26.757812-22.660156-18.351562-42.113282-43.707031-42.113282-71.703125v-92.800781c0-52.171875 38.621094-95.324219 88.828126-102.429688 50.203124 7.105469 88.824218 50.257813 88.824218 102.429688zm0 0" fill="#7d8287"/><path d="m260.035156 162.121094c.34375 14.945312-11.773437 27.191406-26.554687 27.191406h-119.050781c-14.609376 0-26.566407-11.953125-26.566407-26.574219 0-14.621093 11.964844-26.566406 26.566407-26.566406h118.496093c14.519531 0 26.777344 11.421875 27.109375 25.949219zm0 0" fill="#f2bb88"/><path d="m260.035156 162.121094c.34375 14.945312-11.773437 27.191406-26.554687 27.191406h-96.179688c-14.609375 0-26.566406-11.953125-26.566406-26.574219 0-14.621093 11.957031-26.566406 26.566406-26.566406h95.625c14.519531 0 26.777344 11.421875 27.109375 25.949219zm0 0" fill="#f2d1a5"/><path d="m72.234375 90.386719c4.027344 1.121093 8.203125-1.230469 9.3125-5.265625 5.742187-20.664063 18.101563-38.199219 34.40625-50.578125 62.992187-47.859375 153.890625-2.804688 153.890625 76.296875v92.808594c0 15.480468-6.699219 31.277343-19.894531 46.957031-4.175781 4.941406-.558594 12.441406 5.789062 12.441406 2.148438 0 4.289063-.917969 5.792969-2.695313 15.558594-18.484374 23.445312-37.5625 23.445312-56.703124v-46.277344c20.445313 12.363281 44.652344 16.355468 48.914063 16.355468 8.644531 0 15.097656-7.835937 13.511719-16.253906-4.148438-22.117187-12.957032-39.519531-26.222656-51.871094 10.332031-8.933593 22.359374-25.007812 30.246093-43.765624 3.628907-8.675782-2.320312-18.355469-11.671875-19.019532-24.824218-1.78125-47.355468 3.042969-66.148437 19.128906-45.1875-91.980468-179.636719-78.15625-206.636719 19.128907-1.121094 4.027343 1.242188 8.203125 5.265625 9.3125zm259.910156 67.933593c-11.804687-1.878906-31.054687-6.742187-47.167969-19.273437v-13.4375c8.464844-2.230469 16.476563-5.769531 24.003907-10.625 11.511719 9.878906 19.289062 24.417969 23.164062 43.335937zm4.542969-100.53125c-10.253906 23.308594-27.597656 43.988282-51.730469 51.960938-.085937-10.71875-1.726562-21.726562-5.234375-32.699219 14.816406-15.648437 35.363282-20.449219 56.964844-19.261719zm0 0"/><path d="m233.136719 163.277344c0 6.769531-5.488281 12.257812-12.257813 12.257812-6.769531 0-12.257812-5.488281-12.257812-12.257812 0-6.769532 5.488281-12.257813 12.257812-12.257813 6.769532 0 12.257813 5.488281 12.257813 12.257813zm0 0"/><path d="m139.289062 163.277344c0 6.769531-5.488281 12.257812-12.257812 12.257812s-12.257812-5.488281-12.257812-12.257812c0-6.769532 5.488281-12.257813 12.257812-12.257813s12.257812 5.488281 12.257812 12.257813zm0 0"/><path d="m232.925781 128.605469h-118.496093c-18.820313 0-34.132813 15.3125-34.132813 34.132812 0 18.824219 15.3125 34.140625 34.132813 34.140625h119.050781c9.238281 0 17.902343-3.65625 24.394531-10.304687 21.351562-21.847657 5.265625-57.96875-24.949219-57.96875zm14.125 47.390625c-3.621093 3.707031-8.441406 5.75-13.570312 5.75h-119.050781c-10.476563 0-19-8.527344-19-19.007813 0-10.476562 8.523437-19 19-19h118.496093c17.039063 0 26.050781 20.058594 14.125 32.257813zm0 0"/><path d="m338.742188 272.460938c-13.539063-8.769532-31.648438-4.921876-40.457032 8.675781l-38.378906 59.355469c-9.867188-4.339844-20.25-7.585938-30.964844-9.625-7.484375-1.421876-12.914062-8-12.914062-15.648438v-17.546875c7.6875-4.410156 15.417968-9.605469 22.609375-15.304687 3.269531-2.601563 3.824219-7.355469 1.230469-10.632813-2.601563-3.269531-7.363282-3.824219-10.632813-1.222656-12.378906 9.824219-39.628906 26.96875-55.277344 26.96875-22.824219 0-95.890625-43.296875-95.890625-93.832031v-90.628907c0-4.179687-3.390625-7.570312-7.566406-7.570312s-7.566406 3.390625-7.566406 7.570312v90.628907c0 39.496093 34.703125 74.367187 68.949218 94.042968v17.527344c0 7.636719-5.480468 14.226562-13.015624 15.667969-28.714844 5.476562-54.867188 19.351562-75.648438 40.136719-27.285156 27.289062-42.71875 63.722656-42.71875 103.394531.03125 20.722656 17 37.582031 37.835938 37.582031h271.238281c20.90625 0 37.835937-16.894531 37.835937-37.835938 0-11.882812-1.433594-23.710937-4.257812-35.152343-1.007813-4.054688-5.113282-6.527344-9.171875-5.527344-4.054688 1.007813-6.527344 5.105469-5.519531 9.160156 2.535156 10.25 3.816406 20.855469 3.816406 31.519531 0 12.460938-10.054688 22.703126-22.703125 22.703126h-21.453125v-51.886719c0-4.179688-3.386719-7.566407-7.566406-7.566407-4.179688 0-7.566407 3.386719-7.566407 7.566407v51.886719h-198.066406v-51.886719c0-4.179688-3.386719-7.566407-7.566406-7.566407-4.179688 0-7.566407 3.386719-7.566407 7.566407v51.886719h-21.453124c-12.28125 0-22.703126-9.8125-22.703126-22.703126 0-34.917968 13.601563-67.75 38.289063-92.449218 18.625-18.613282 42.0625-31.054688 67.78125-35.96875 14.667969-2.792969 25.3125-15.636719 25.3125-30.527344v-9.816406c21.75 9.609375 32.203125 9.542968 53.878906-.03125v9.847656c0 14.910156 10.601563 27.734375 25.222657 30.519531 39.867187 7.605469 74.332031 33.804688 92.476562 70.128907 1.867188 3.734374 6.410156 5.246093 10.152344 3.390624 3.730468-1.867187 5.253906-6.414062 3.390625-10.148437-6.417969-12.855469-14.671875-24.566406-24.367188-34.847656l39.660157-61.355469c8.78125-13.554688 4.90625-31.679688-8.6875-40.445312zm-4.015626 32.234374-38.09375 58.929688c-7.164062-6.152344-14.902343-11.613281-23.117187-16.292969l37.484375-57.972656c2.046875-3.167969 5.203125-5.347656 8.898438-6.144531 12.324218-2.660156 21.605468 11 14.828124 21.480468zm0 0"/></svg>