<?xml version="1.0" encoding="iso-8859-1"?>
<!-- Generator: Adobe Illustrator 19.0.0, SVG Export Plug-In . SVG Version: 6.00 Build 0)  -->
<svg version="1.1" id="Capa_1" xmlns="http://www.w3.org/2000/svg" xmlns:xlink="http://www.w3.org/1999/xlink" x="0px" y="0px"
	 viewBox="0 0 512 512" style="enable-background:new 0 0 512 512;" xml:space="preserve">
<path style="fill:#B19D7D;" d="M203.072,363.444h105.855c41.621,0,75.362,33.741,75.362,75.362V504.5H127.71v-65.694
	C127.71,397.184,161.451,363.444,203.072,363.444z"/>
<path style="fill:#968163;" d="M308.926,363.444h-22.632c41.621,0,75.362,33.741,75.362,75.362V504.5h22.632v-65.695
	C384.288,397.184,350.547,363.444,308.926,363.444z"/>
<g>
	<polygon style="fill:#CCB89B;" points="311.781,323.667 259.791,364.448 311.781,405.228 343.348,369.933 	"/>
	<polygon style="fill:#CCB89B;" points="200.217,323.667 168.65,369.933 200.217,405.228 252.207,364.448 	"/>
</g>
<path style="fill:#E7CF90;" d="M307.989,323.667h-103.98c-60.9,0-110.27-74.513-110.27-135.413V169.76
	c0-89.614,72.646-162.26,162.26-162.26l0,0c89.614,0,162.26,72.646,162.26,162.26v18.494
	C418.259,249.154,368.89,323.667,307.989,323.667z"/>
<g>
	<path style="fill:#484655;" d="M366.249,50.723c-8.674-8.038-18.226-15.139-28.5-21.144V147.5h28.5V50.723z"/>
	<path style="fill:#484655;" d="M145.749,50.723V147.5h28.5V29.579C163.975,35.583,154.423,42.685,145.749,50.723z"/>
</g>
<path style="fill:#FB403F;" d="M255.999,7.5L255.999,7.5c-8.694,0-17.225,0.692-25.548,2.008L238.123,141h35.751l7.672-131.492
	C273.224,8.192,264.693,7.5,255.999,7.5z"/>
<path style="fill:#696970;" d="M306.68,209.667H205.317l-23.133,89.266c-3.214,12.403,0.474,25.577,9.66,34.509l46.319,45.034h35.67
	l46.319-45.034c9.187-8.932,12.874-22.106,9.66-34.509L306.68,209.667z"/>
<path style="fill:#5880A2;" d="M89.666,152.215v44.147c0,11.354,4.512,22.234,12.548,30.255
	c17.996,17.962,52.65,48.346,85.983,53.958c37.999,6.397,36.272-53.578,67.802-53.578s29.803,59.975,67.802,53.578
	c33.333-5.612,67.988-35.996,85.983-53.958c8.036-8.021,12.548-18.902,12.548-30.255v-44.147c0-15.829-10.791-29.67-26.172-33.406
	c-93.44-22.698-186.881-22.698-280.322,0C100.457,122.546,89.666,136.387,89.666,152.215z"/>
<path style="fill:#484655;" d="M255.999,342.79c-11.23,0-20.333,9.103-20.333,20.333V504.5h40.667V363.123
	C276.332,351.893,267.229,342.79,255.999,342.79z"/>
<polygon style="fill:#E7CF90;" points="304.208,439.667 304.208,462.52 319.95,472.51 341.96,472.51 357.702,462.52 
	357.702,439.667 "/>
<path d="M387.651,288.715c14.924-17.94,26.53-40.313,32.805-63.143c6.05-8.477,9.373-18.788,9.373-29.212v-44.14
	c0-10.065-3.569-19.677-10.076-27.268c-7.735-28.346-22.813-54.328-43.72-75.224c-1.502-1.503-3.035-2.963-4.583-4.402
	c-0.035-0.034-0.066-0.072-0.102-0.105c-0.12-0.111-0.244-0.217-0.364-0.328c-0.945-0.872-1.898-1.731-2.86-2.58
	c-0.116-0.102-0.231-0.205-0.347-0.307C339.359,17.062,303.919,2.518,266.132,0.308c-0.032-0.002-0.063-0.004-0.095-0.006
	c-1.048-0.061-2.097-0.112-3.148-0.154c-0.152-0.006-0.303-0.011-0.455-0.017C260.295,0.052,258.151,0,255.999,0
	c-0.529,0-1.057,0.02-1.585,0.025c-0.846,0.008-1.692,0.019-2.537,0.039c-0.732,0.018-1.463,0.037-2.194,0.064
	c-1.262,0.046-2.522,0.103-3.782,0.177c-0.649,0.038-1.297,0.087-1.945,0.133c-0.913,0.064-1.826,0.135-2.738,0.214
	c-0.611,0.053-1.222,0.102-1.832,0.161c-1.327,0.129-2.651,0.276-3.973,0.436c-0.597,0.072-1.192,0.151-1.788,0.229
	c-1.036,0.137-2.071,0.283-3.103,0.439c-5.652,0.851-11.254,1.972-16.775,3.388c-4.013,1.028-6.431,5.115-5.402,9.128
	c1.029,4.012,5.118,6.429,9.128,5.401c1.983-0.509,3.981-0.963,5.986-1.391l4.461,76.518c-15.374,0.737-30.842,2.095-46.169,4.045
	V33.942c2.876-1.572,5.805-3.069,8.797-4.469c3.752-1.755,5.371-6.219,3.617-9.971s-6.219-5.371-9.971-3.617
	C138.787,37.119,105.37,76.81,92.239,124.96c-6.506,7.598-10.068,17.202-10.068,27.259v44.141c0,10.428,3.326,20.743,9.374,29.213
	c6.275,22.829,17.881,45.201,32.804,63.141c15.704,18.879,34.2,32.054,53.684,38.304c1.441,2.922,3.193,5.653,5.252,8.164
	l-20.829,30.52c-0.275,0.402-0.494,0.827-0.681,1.261c-25.753,14.781-41.563,41.88-41.563,71.843V504.5c0,4.143,3.358,7.5,7.5,7.5
	h107.956h40.667h107.956c4.142,0,7.5-3.357,7.5-7.5v-65.694c0-20.262-7.391-39.766-20.813-54.919
	c-2.746-3.102-7.486-3.39-10.587-0.642c-3.1,2.746-3.388,7.486-0.642,10.587c10.989,12.407,17.042,28.38,17.042,44.974V497h-92.956
	V392.839l23.317,18.292c1.37,1.075,3.002,1.6,4.626,1.6c2.066,0,4.118-0.85,5.594-2.5l31.57-35.301
	c2.299-2.571,2.549-6.379,0.604-9.228l-20.83-30.521c2.063-2.515,3.814-5.246,5.253-8.162
	C353.451,320.769,371.947,307.594,387.651,288.715z M243.153,452.241c0.003-0.08,0.012-0.157,0.012-0.237
	c0-7.076,5.757-12.833,12.833-12.833c7.076,0,12.833,5.757,12.833,12.833v19.593c-3.843-2.006-8.206-3.148-12.833-3.148
	c-4.627,0-8.99,1.141-12.833,3.148v-19.118C243.166,452.398,243.156,452.321,243.153,452.241z M104.368,217.709
	c-0.008-0.01-0.015-0.021-0.023-0.032c-0.006-0.008-0.011-0.016-0.017-0.024c-4.616-6.092-7.158-13.651-7.158-21.293v-44.14
	c0-6.86,2.581-13.392,7.277-18.413c0.006-0.006,0.011-0.013,0.017-0.019c0.005-0.006,0.01-0.012,0.015-0.017
	c3.548-3.797,8.087-6.449,13.13-7.672c9.928-2.41,19.868-4.567,29.552-6.412c9.335-1.789,18.801-3.363,28.145-4.681
	c20.132-2.864,40.59-4.671,60.806-5.371c6.598-0.231,13.243-0.346,19.887-0.346c1.661,0,3.32,0.029,4.981,0.043
	c4.981,0.043,9.958,0.13,14.907,0.303c0.001,0,0.003,0,0.004,0c20.213,0.7,40.67,2.507,60.811,5.372
	c9.335,1.316,18.801,2.891,28.136,4.68c0.003,0.001,0.007,0.001,0.01,0.002c9.675,1.843,19.615,4.001,29.545,6.412
	c5.038,1.221,9.576,3.873,13.135,7.679c0.01,0.011,0.019,0.022,0.03,0.033c4.689,5.01,7.272,11.545,7.272,18.408v44.141
	c0,7.665-2.557,15.247-7.207,21.358c-0.959,1.266-2.015,2.476-3.131,3.592c-16.857,16.818-49.776,45.896-80.948,51.692
	c-0.348,0.068-0.695,0.129-0.989,0.181c-14.447,2.429-20.926-7.427-30.299-23.711c-8.088-14.05-17.254-29.974-36.257-29.974
	s-28.169,15.924-36.257,29.973c-0.794,1.378-1.565,2.707-2.324,3.99c-8.203,13.87-14.756,21.943-28.015,19.715
	c-0.001,0-0.002,0-0.003,0c-0.241-0.043-0.482-0.086-0.722-0.132c-0.102-0.019-0.196-0.036-0.308-0.058
	c-31.087-5.779-64.007-34.857-80.858-51.67C106.39,220.194,105.334,218.984,104.368,217.709z M153.249,103.317V54.04
	c4.293-3.816,8.805-7.397,13.5-10.718V101.1c-0.118,0.018-0.237,0.038-0.356,0.056c-0.944,0.145-1.89,0.3-2.835,0.449
	c-1.393,0.22-2.786,0.438-4.18,0.669c-1.022,0.169-2.043,0.347-3.065,0.521C155.292,102.97,154.27,103.138,153.249,103.317z
	 M330.249,33.908v65.099c-15.33-1.95-30.798-3.308-46.169-4.045l4.462-76.543C303.169,21.533,317.191,26.746,330.249,33.908z
	 M358.749,54.045v49.272c-1.003-0.177-2.008-0.341-3.012-0.512c-1.043-0.178-2.084-0.36-3.127-0.532
	c-1.362-0.225-2.723-0.438-4.084-0.654c-0.979-0.155-1.958-0.315-2.935-0.465c-0.114-0.018-0.228-0.037-0.342-0.054V43.322
	c4.601,3.253,9.022,6.761,13.238,10.491C358.574,53.891,358.662,53.968,358.749,54.045z M197.073,328.059
	c-2.915-2.83-5.137-6.177-6.606-9.954c-2.165-5.55-2.517-11.527-1.017-17.294l3.175-12.256c0.409,0.014,0.813,0.02,1.214,0.02
	c20.702-0.002,30.711-17.385,38.904-31.618c8.042-13.974,13.621-22.457,23.256-22.457c4.214,0,7.652,1.623,10.86,4.618
	c3.236,3.224,7.118,8.668,12.397,17.838c0.272,0.473,0.547,0.95,0.824,1.43c0.044,0.075,0.088,0.151,0.131,0.227
	c0.247,0.429,0.497,0.859,0.748,1.291c0.026,0.045,0.052,0.089,0.078,0.134c0.272,0.466,0.546,0.934,0.823,1.403
	c0.01,0.017,0.02,0.033,0.03,0.05c7.759,13.139,17.707,27.087,36.262,27.073c0.105,0,0.211-0.001,0.317-0.002
	c0.302-0.003,0.599,0.004,0.906-0.006l3.177,12.264c1.498,5.759,1.146,11.736-1.022,17.293c-1.466,3.771-3.688,7.117-6.63,9.974
	l-31.431,30.562c-2.148-13.226-13.645-23.357-27.469-23.357c-13.824,0-25.322,10.132-27.469,23.359l-30.433-29.586
	c-0.001-0.001-0.003-0.002-0.004-0.003L197.073,328.059z M243.166,377.652v-0.006v-1.628c0-0.03,0.002-0.059,0.002-0.089
	c0-0.016-0.001-0.031-0.002-0.046v-12.436c0-7.076,5.757-12.833,12.833-12.833c7.076,0,12.833,5.757,12.833,12.833v12.436
	c0,0.016-0.001,0.031-0.002,0.046c0,0.03,0.002,0.059,0.002,0.089v1.628c0,0.002,0,0.004,0,0.004v5.389
	c-3.843-2.006-8.206-3.147-12.833-3.147c-4.627,0-8.99,1.141-12.833,3.147L243.166,377.652L243.166,377.652z M338.444,309.151
	c0.117-4.042-0.335-8.107-1.375-12.102l-2.898-11.188c13.542-3.919,34.37-13.254,60.606-35.28
	C381.284,277.198,360.789,298.728,338.444,309.151z M399.599,111.992c-0.556-0.159-1.106-0.333-1.67-0.469
	c-8.1-1.967-16.205-3.761-24.18-5.367V69.368C384.634,82.121,393.369,96.524,399.599,111.992z M239.561,15.882
	c0.889-0.094,1.779-0.187,2.67-0.266c0.668-0.059,1.337-0.106,2.007-0.157c0.865-0.065,1.729-0.133,2.595-0.184
	c0.697-0.041,1.394-0.066,2.092-0.098c0.845-0.038,1.69-0.083,2.536-0.107c0.728-0.021,1.457-0.023,2.185-0.034
	c2.237-0.034,4.474-0.034,6.71,0.028c0.107,0.003,0.214,0.009,0.322,0.012c1.334,0.04,2.668,0.096,4.001,0.17
	c0.16,0.009,0.319,0.02,0.479,0.029c1.33,0.078,2.658,0.17,3.985,0.282c0.079,0.007,0.157,0.013,0.235,0.02
	c1.428,0.123,2.855,0.264,4.279,0.426l-4.572,78.431c-0.629-0.014-1.259-0.02-1.888-0.032c-0.713-0.014-1.426-0.025-2.14-0.036
	c-2.965-0.046-5.932-0.077-8.901-0.077c-0.104,0-0.208,0-0.312,0c-2.971,0.001-5.939,0.032-8.906,0.077
	c-0.712,0.011-1.423,0.022-2.134,0.036c-0.631,0.012-1.262,0.018-1.892,0.032l-4.572-78.419
	C238.748,15.97,239.154,15.925,239.561,15.882z M138.249,69.227v36.929c-7.977,1.607-16.08,3.4-24.177,5.366
	c-0.572,0.139-1.13,0.314-1.693,0.476C118.662,96.319,127.419,81.902,138.249,69.227z M117.221,250.583
	c26.266,22.052,47.105,31.381,60.604,35.282l-2.895,11.176c-1.04,4-1.493,8.067-1.376,12.11
	C151.21,298.728,130.715,277.198,117.221,250.583z M194.036,346.035l31.032,30.169l-23.946,18.785l-22.968-25.682L194.036,346.035z
	 M135.21,438.806c0-24.106,12.493-45.952,32.93-58.194l26.489,29.619c1.476,1.65,3.527,2.5,5.594,2.5c1.624,0,3.257-0.525,4.626-1.6
	l23.317-18.292v13.642c0,0.141,0.013,0.278,0.021,0.417c-0.008,0.276-0.021,0.551-0.021,0.828c0,4.143,3.358,7.5,7.5,7.5
	s7.5-3.357,7.5-7.5c0-7.076,5.757-12.833,12.833-12.833s12.833,5.757,12.833,12.833v19.593c-3.843-2.006-8.206-3.147-12.833-3.147
	c-15.348,0-27.833,12.485-27.833,27.833c0,0.08,0.01,0.158,0.012,0.237c-0.002,0.08-0.012,0.157-0.012,0.237V497H135.21V438.806z
	 M243.166,497v-0.717c0-7.077,5.757-12.834,12.833-12.834c7.076,0,12.833,5.757,12.833,12.834V497H243.166z M310.876,394.989
	l-23.946-18.785l31.032-30.169l15.882,23.272L310.876,394.989z"/>
<path d="M293.544,320.11c1.47,1.999,3.744,3.058,6.048,3.058c1.542,0,3.099-0.475,4.437-1.459c3.337-2.453,4.053-7.148,1.6-10.485
	l-12.99-17.667c-2.454-3.337-7.149-4.054-10.485-1.599c-3.337,2.453-4.053,7.147-1.6,10.485L293.544,320.11z"/>
<path d="M207.968,321.709c1.338,0.984,2.894,1.459,4.437,1.459c2.304,0,4.579-1.06,6.048-3.058l12.99-17.667
	c2.454-3.338,1.737-8.032-1.6-10.485c-3.337-2.455-8.032-1.737-10.485,1.599l-12.99,17.667
	C203.915,314.561,204.631,319.256,207.968,321.709z"/>
<path d="M296.708,439.667v22.853c0,2.567,1.313,4.957,3.481,6.332l15.742,9.99c1.202,0.763,2.595,1.168,4.019,1.168h22.009
	c1.423,0,2.817-0.405,4.019-1.167l15.743-9.99c2.168-1.376,3.481-3.766,3.481-6.333v-22.853c0-4.143-3.358-7.5-7.5-7.5h-53.494
	C300.066,432.167,296.708,435.524,296.708,439.667z M311.708,447.167h38.494v11.23l-10.421,6.613h-17.652l-10.421-6.613V447.167z"/>
<g>
</g>
<g>
</g>
<g>
</g>
<g>
</g>
<g>
</g>
<g>
</g>
<g>
</g>
<g>
</g>
<g>
</g>
<g>
</g>
<g>
</g>
<g>
</g>
<g>
</g>
<g>
</g>
<g>
</g>
</svg>
