<?xml version="1.0" encoding="iso-8859-1"?>
<!-- Generator: Adobe Illustrator 19.0.0, SVG Export Plug-In . SVG Version: 6.00 Build 0)  -->
<svg version="1.1" id="Capa_1" xmlns="http://www.w3.org/2000/svg" xmlns:xlink="http://www.w3.org/1999/xlink" x="0px" y="0px"
	 viewBox="0 0 512 512" style="enable-background:new 0 0 512 512;" xml:space="preserve">
<path style="fill:#D9D4D4;" d="M399.999,137.31V255h-34.54c1.74-7.83,2.65-15.97,2.65-24.32v-46.7c0-2.63-0.1-5.25-0.29-7.83
	c-1.08,0.12-2.19,0.18-3.3,0.18c-17.57,0-31.82-15.05-31.82-33.63c0-10.36,4.43-19.62,11.4-25.79c-5.3-6.47-11.37-12.29-18.07-17.34
	c-13.08,10.52-39.53,17.71-70.03,17.71s-56.95-7.19-70.03-17.71c-6.7,5.05-12.77,10.87-18.07,17.34c6.97,6.17,11.4,15.43,11.4,25.79
	c0,18.58-14.25,33.63-31.82,33.63c-1.11,0-2.22-0.06-3.3-0.18c-0.19,2.58-0.29,5.2-0.29,7.83v46.7c0,8.35,0.91,16.49,2.65,24.32
	h-34.54V137.31c0-54.03,43.8-97.83,97.83-97.83h0.99c-1.66-1.76-14.14-15.63-9.14-31.98c15.34,17.83,47.32,24.83,59.99,29.48
	c-6.67-7.36-5.67-29.48-5.67-29.48s37.51,30.32,52.27,32.17C359.458,42.82,399.999,85.33,399.999,137.31z"/>
<path style="fill:#C6BEBE;" d="M308.268,39.67c-14.76-1.85-52.27-32.17-52.27-32.17s-0.403,8.981,1.028,17.402
	c10.498,7.128,21.994,13.922,28.741,14.768c51.19,3.15,91.73,45.66,91.73,97.64V255h22.501V137.31
	C399.999,85.33,359.458,42.82,308.268,39.67z"/>
<path style="fill:#F0EEEE;" d="M203.072,363.444h105.855c41.621,0,75.362,33.741,75.362,75.362V504.5H127.71v-65.695
	C127.71,397.185,161.451,363.444,203.072,363.444z"/>
<g>
	<path style="fill:#FA9E3E;" d="M298.099,267.73v95.35l-18.765,19.368c-6.12,6.317-14.54,9.882-23.335,9.882l0,0
		c-8.795,0-17.215-3.566-23.335-9.882l-18.765-19.368v-95.35L298.099,267.73L298.099,267.73z"/>
	<path style="fill:#FA9E3E;" d="M125.838,223.99h49.369v56.61h-49.369c-15.632,0-28.305-12.673-28.305-28.305
		S110.206,223.99,125.838,223.99z"/>
	<path style="fill:#FA9E3E;" d="M386.16,223.99h-49.369v56.61h49.369c15.632,0,28.305-12.673,28.305-28.305
		S401.793,223.99,386.16,223.99z"/>
</g>
<path style="fill:#FFB56B;" d="M368.108,183.98v46.7c0,0.97-0.01,1.93-0.04,2.89c-0.02,0.97-0.06,1.92-0.11,2.88
	c-0.04,0.95-0.1,1.91-0.18,2.86c-0.07,0.94-0.15,1.89-0.25,2.83c-0.06,0.64-0.13,1.28-0.22,1.92c-0.05,0.55-0.12,1.1-0.2,1.65
	c-0.04,0.29-0.08,0.58-0.13,0.87c-0.08,0.65-0.18,1.3-0.29,1.95c-0.05,0.36-0.11,0.72-0.18,1.07c-0.11,0.71-0.24,1.41-0.38,2.12
	c-0.03,0.21-0.07,0.42-0.12,0.63c-0.14,0.75-0.3,1.49-0.46,2.23c-0.04,0.23-0.09,0.46-0.15,0.69c-0.11,0.51-0.23,1.02-0.35,1.52
	c-0.09,0.38-0.18,0.75-0.28,1.13c-0.13,0.54-0.27,1.08-0.42,1.62c-0.02,0.11-0.05,0.23-0.09,0.34c-0.18,0.67-0.36,1.34-0.56,2.01
	c-0.04,0.17-0.09,0.33-0.14,0.5c-0.19,0.63-0.37,1.25-0.57,1.87c-0.23,0.76-0.48,1.51-0.74,2.27c-0.25,0.75-0.51,1.5-0.78,2.24
	c-0.22,0.6-0.44,1.2-0.67,1.8c-0.22,0.59-0.45,1.18-0.69,1.77c-0.2,0.51-0.41,1.01-0.62,1.52c-0.13,0.32-0.26,0.63-0.4,0.95
	c-0.15,0.36-0.31,0.71-0.47,1.07c-0.24,0.55-0.48,1.1-0.74,1.64c-1.47,3.19-3.08,6.31-4.84,9.33c-0.36,0.63-0.73,1.26-1.11,1.88
	c-0.05,0.08-0.1,0.15-0.15,0.23c-0.37,0.62-0.75,1.23-1.14,1.83c-0.1,0.18-0.21,0.34-0.32,0.51c-0.36,0.56-0.72,1.11-1.08,1.65
	c-0.12,0.19-0.25,0.37-0.37,0.55c-0.34,0.5-0.68,0.99-1.02,1.48c-0.18,0.25-0.36,0.51-0.54,0.76c-0.9,1.26-1.82,2.51-2.78,3.73
	c-0.73,0.94-1.48,1.87-2.24,2.78c-0.49,0.6-0.99,1.19-1.49,1.77c-0.02,0.02-0.03,0.03-0.04,0.04c-0.56,0.65-1.13,1.29-1.71,1.93
	c-0.03,0.04-0.07,0.07-0.1,0.11c-0.37,0.4-0.74,0.81-1.12,1.21c-0.3,0.33-0.6,0.65-0.91,0.96c-0.17,0.18-0.35,0.37-0.53,0.55
	c-0.37,0.38-0.74,0.76-1.11,1.13c-0.63,0.63-1.28,1.26-1.92,1.88c-0.6,0.57-1.21,1.14-1.82,1.69l-0.41,0.37
	c-0.51,0.47-1.03,0.93-1.56,1.38l-1.68,1.43c-0.3,0.27-0.6,0.52-0.91,0.76l-4.27,3.33c-1.31,0.98-2.66,1.93-4.02,2.85l-1.65,1.09
	c-0.46,0.31-0.93,0.61-1.4,0.89l-1.79,1.11c-0.68,0.41-1.36,0.81-2.04,1.2c-0.71,0.41-1.42,0.81-2.14,1.2l-0.47,0.26
	c-1.51,0.82-3.04,1.6-4.59,2.34c-0.75,0.36-1.5,0.71-2.25,1.06l-0.71,0.31c-0.53,0.24-1.06,0.47-1.6,0.7l-0.8,0.34
	c-0.71,0.3-1.42,0.59-2.14,0.87c-0.73,0.29-1.45,0.57-2.19,0.84l-6.08,2.05c-0.6,0.19-1.2,0.37-1.81,0.54
	c-0.43,0.13-0.87,0.25-1.31,0.36l-2.14,0.57c-0.56,0.14-1.12,0.28-1.69,0.41c-0.4,0.1-0.8,0.19-1.21,0.28l-2.34,0.5
	c-0.68,0.14-1.37,0.27-2.05,0.4l-3.06,0.51c-0.53,0.09-1.05,0.16-1.58,0.23l-1.04,0.14c-0.49,0.07-0.98,0.13-1.48,0.18l-1.13,0.13
	c-0.33,0.04-0.66,0.07-0.99,0.1c-0.68,0.07-1.37,0.13-2.06,0.18l-0.8,0.06c-0.59,0.05-1.17,0.09-1.76,0.11l-0.84,0.05
	c-0.74,0.04-1.49,0.07-2.24,0.08l-3.31,0.06c-0.84,0-1.67-0.01-2.5-0.03c-0.68-0.01-1.35-0.03-2.02-0.06
	c-0.47-0.02-0.95-0.04-1.43-0.07c-50.91-2.66-92.82-39.28-103.51-87.63c-1.74-7.83-2.65-15.97-2.65-24.32v-46.7
	c0-2.63,0.1-5.25,0.29-7.83c1.08,0.12,2.19,0.18,3.3,0.18c17.57,0,31.82-15.05,31.82-33.63c0-10.36-4.43-19.62-11.4-25.79
	c5.3-6.47,11.37-12.29,18.07-17.34c13.08,10.52,39.53,17.71,70.03,17.71s56.95-7.19,70.03-17.71c6.7,5.05,12.77,10.87,18.07,17.34
	c-6.97,6.17-11.4,15.43-11.4,25.79c0,10.69,4.72,20.22,12.08,26.38c5.42,4.54,12.29,7.25,19.74,7.25c1.11,0,2.22-0.06,3.3-0.18
	C368.009,178.73,368.108,181.35,368.108,183.98z"/>
<path style="fill:#EF9245;" d="M368.108,183.98v46.7c0,0.97-0.01,1.93-0.04,2.89c-0.02,0.97-0.06,1.92-0.11,2.88
	c-0.04,0.95-0.1,1.91-0.18,2.86c-0.07,0.94-0.15,1.89-0.25,2.83c-0.06,0.64-0.13,1.28-0.22,1.92c-0.05,0.55-0.12,1.1-0.2,1.65
	c-0.04,0.29-0.08,0.58-0.13,0.87c-0.08,0.65-0.18,1.3-0.29,1.95c-0.05,0.36-0.11,0.72-0.18,1.07c-0.11,0.71-0.24,1.41-0.38,2.12
	c-0.03,0.21-0.07,0.42-0.12,0.63c-0.14,0.75-0.3,1.49-0.46,2.23c-0.04,0.23-0.09,0.46-0.15,0.69c-0.11,0.51-0.23,1.02-0.35,1.52
	c-0.09,0.38-0.18,0.75-0.28,1.13c-0.13,0.54-0.27,1.08-0.42,1.62c-0.02,0.11-0.05,0.23-0.09,0.34c-0.18,0.67-0.36,1.34-0.56,2.01
	c-0.04,0.17-0.09,0.33-0.14,0.5c-0.19,0.63-0.37,1.25-0.57,1.87c-0.23,0.76-0.48,1.51-0.74,2.27c-0.25,0.75-0.51,1.5-0.78,2.24
	c-0.22,0.6-0.44,1.2-0.67,1.8c-0.22,0.59-0.45,1.18-0.69,1.77c-0.2,0.51-0.41,1.01-0.62,1.52c-0.13,0.32-0.26,0.63-0.4,0.95
	c-0.15,0.36-0.31,0.71-0.47,1.07c-0.24,0.55-0.48,1.1-0.74,1.64c-1.47,3.19-3.08,6.31-4.84,9.33c-0.36,0.63-0.73,1.26-1.11,1.88
	c-0.05,0.08-0.1,0.15-0.15,0.23c-0.37,0.62-0.75,1.23-1.14,1.83c-0.1,0.18-0.21,0.34-0.32,0.51c-0.36,0.56-0.72,1.11-1.08,1.65
	c-0.12,0.19-0.25,0.37-0.37,0.55c-0.34,0.5-0.68,0.99-1.02,1.48c-0.18,0.25-0.36,0.51-0.54,0.76c-0.9,1.26-1.83,2.51-2.78,3.73
	c-0.73,0.94-1.48,1.87-2.24,2.78c-0.49,0.6-0.99,1.19-1.49,1.77c-0.02,0.02-0.03,0.03-0.04,0.04c-0.56,0.65-1.13,1.29-1.71,1.93
	c-0.03,0.04-0.07,0.07-0.1,0.11c-0.37,0.4-0.74,0.81-1.12,1.21c-0.3,0.33-0.6,0.65-0.91,0.96c-0.17,0.18-0.35,0.37-0.53,0.55
	c-0.37,0.38-0.74,0.76-1.11,1.13c-0.63,0.63-1.28,1.26-1.92,1.88c-0.6,0.57-1.21,1.14-1.82,1.69l-0.41,0.37
	c-0.51,0.47-1.03,0.93-1.56,1.38l-1.68,1.43c-0.3,0.27-0.6,0.52-0.91,0.76l-4.27,3.33c-1.32,0.98-2.66,1.93-4.02,2.85l-1.65,1.09
	c-0.46,0.31-0.93,0.61-1.4,0.89l-1.79,1.11c-0.68,0.41-1.36,0.81-2.04,1.2c-0.71,0.41-1.42,0.81-2.14,1.2l-0.47,0.26
	c-1.51,0.81-3.04,1.6-4.59,2.34c-0.75,0.36-1.5,0.71-2.25,1.06l-0.71,0.31c-0.53,0.24-1.06,0.47-1.6,0.7l-0.8,0.34
	c-0.71,0.3-1.42,0.59-2.14,0.87c-0.73,0.29-1.45,0.57-2.19,0.84l-6.08,2.05c-0.6,0.19-1.2,0.37-1.81,0.54
	c-0.43,0.13-0.87,0.25-1.31,0.36l-2.14,0.57c-0.56,0.14-1.12,0.28-1.69,0.41c-0.4,0.1-0.8,0.19-1.21,0.28l-2.34,0.5
	c-0.68,0.14-1.37,0.27-2.05,0.4l-3.06,0.51c-0.53,0.09-1.05,0.16-1.58,0.23l-1.04,0.14c-0.49,0.07-0.98,0.13-1.48,0.18l-1.13,0.13
	c-0.33,0.04-0.66,0.07-0.99,0.1c-0.68,0.07-1.37,0.13-2.06,0.18l-0.8,0.06c-0.59,0.05-1.17,0.09-1.76,0.11l-0.84,0.05
	c-0.74,0.04-1.49,0.07-2.24,0.08l-3.31,0.06c-0.84,0-1.67-0.01-2.5-0.03c-0.68-0.01-1.35-0.03-2.02-0.06
	c-0.47-0.02-0.95-0.04-1.43-0.07c52.81-2.96,94.73-46.73,94.73-100.29v-73.26c5.42,4.54,12.29,7.25,19.74,7.25
	c1.11,0,2.22-0.06,3.3-0.18C368.009,178.73,368.108,181.35,368.108,183.98z"/>
<path style="fill:#D9D4D4;" d="M309.642,288.582l-0.038-0.469c-1.904-23.415-21.462-41.447-44.954-41.447h-17.3
	c-23.492,0-43.05,18.032-44.954,41.447l-0.038,0.469c-34.838-19.018-58.472-55.983-58.472-98.47v40.564
	c0,61.919,50.195,112.115,112.115,112.115l0,0c61.919,0,112.115-50.195,112.115-112.115v-40.564
	C368.113,232.599,344.479,269.564,309.642,288.582z M255.999,302.227c-11.518,0-22.629-1.74-33.088-4.966
	c3.983-13.72,14.857-23.418,27.502-23.418h11.172c12.645,0,23.519,9.698,27.502,23.418
	C278.628,300.487,267.517,302.227,255.999,302.227L255.999,302.227z"/>
<path style="fill:#FB403F;" d="M308.927,363.444h-10.828V504.5h86.189v-65.695C384.288,397.185,350.548,363.444,308.927,363.444z"/>
<path style="fill:#C21C1C;" d="M308.927,363.444h-22.632c41.621,0,75.362,33.741,75.362,75.362V504.5h22.632v-65.695
	C384.288,397.185,350.548,363.444,308.927,363.444z"/>
<path style="fill:#FB403F;" d="M203.072,363.444h10.827V504.5h-86.189v-65.695C127.71,397.185,161.451,363.444,203.072,363.444z"/>
<g>
	<path style="fill:#FF6464;" d="M359.999,425l-37.731-62.463c-2.003-4.006-6.098-6.537-10.577-6.537h-13.592v148.5l48.192-40.208
		L333.499,436L359.999,425z"/>
	<path style="fill:#FF6464;" d="M151.999,425l37.731-62.463c2.003-4.006,6.098-6.537,10.577-6.537h13.592v148.5l-48.192-40.208
		L178.499,436L151.999,425z"/>
</g>
<g>
	<path style="fill:#2A434F;" d="M301.232,425.982l-40.129-14.113v-34.411l40.129-14.113c7.501-2.638,14.531,4.953,11.327,12.23
		l-8.406,19.089l8.406,19.089C315.763,421.03,308.733,428.621,301.232,425.982z"/>
	<path style="fill:#2A434F;" d="M210.767,425.982l40.129-14.113v-34.411l-40.129-14.113c-7.501-2.638-14.531,4.953-11.327,12.23
		l8.406,19.089l-8.406,19.089C196.236,421.03,203.266,428.621,210.767,425.982z"/>
</g>
<path style="fill:#3D5868;" d="M255.999,372.085L255.999,372.085c-7.908,0-14.318,6.411-14.318,14.318v16.521
	c0,7.908,6.411,14.318,14.318,14.318l0,0c7.908,0,14.318-6.411,14.318-14.318v-16.521
	C270.318,378.495,263.906,372.085,255.999,372.085z"/>
<path d="M310.323,213.963c4.142,0,7.5-3.358,7.5-7.5v-2c0-4.142-3.358-7.5-7.5-7.5s-7.5,3.358-7.5,7.5v2
	C302.823,210.605,306.181,213.963,310.323,213.963z"/>
<path d="M201.676,196.963c-4.142,0-7.5,3.358-7.5,7.5v2c0,4.142,3.358,7.5,7.5,7.5s7.5-3.358,7.5-7.5v-2
	C209.176,200.321,205.818,196.963,201.676,196.963z"/>
<path d="M261.589,266.34h-11.18c-15.742,0-29.688,11.584-34.702,28.826c-1.143,3.931,1.077,8.052,4.988,9.26
	c11.396,3.52,23.274,5.304,35.303,5.304c12.029,0,23.907-1.785,35.303-5.304c3.911-1.208,6.131-5.33,4.988-9.26
	C291.277,277.924,277.331,266.34,261.589,266.34z M233.191,292.234c4.032-6.723,10.379-10.894,17.217-10.894h11.18
	c6.838,0,13.185,4.171,17.217,10.894C263.902,295.551,248.096,295.551,233.191,292.234z"/>
<path d="M335.132,320.37c0.065-0.058,0.131-0.116,0.196-0.173c1.216-1.08,2.414-2.185,3.592-3.319
	c0.011-0.01,0.022-0.021,0.033-0.032c0.546-0.526,1.092-1.053,1.63-1.591c0.454-0.454,0.885-0.926,1.331-1.386
	c0.317-0.328,0.635-0.656,0.948-0.987c0.908-0.959,1.797-1.934,2.672-2.921c0.174-0.197,0.35-0.392,0.523-0.591
	c1.009-1.153,1.993-2.325,2.956-3.515c0.038-0.047,0.077-0.094,0.115-0.141c4.444-5.509,8.405-11.389,11.818-17.613h25.214
	c19.746,0,35.81-16.065,35.81-35.81c0-11.753-5.695-22.199-14.47-28.73v-86.25c0-55.45-43.237-101.565-98.491-105.108
	c-8.878-1.32-33.512-18.59-48.295-30.535c-2.2-1.779-5.213-2.166-7.793-1.006c-2.579,1.161-4.286,3.674-4.414,6.5
	c-0.106,2.346-0.317,10.05,0.958,18c-14.154-4.544-32.359-11.231-42.1-22.553c-1.782-2.072-4.551-3.01-7.226-2.449
	c-2.675,0.562-4.833,2.533-5.632,5.147c-3.268,10.686-0.763,20.31,2.717,27.421c-16.579,1.979-32.407,7.857-46.356,17.29
	c-3.431,2.32-4.332,6.983-2.012,10.414c2.32,3.432,6.982,4.333,10.414,2.012c14.959-10.116,32.443-15.464,50.559-15.464h0.99
	c2.994,0,5.7-1.78,6.886-4.529s0.624-5.939-1.43-8.117c-0.662-0.702-4.239-4.649-6.464-10.208
	c13.18,8.491,29.089,13.465,40.725,17.102c3.409,1.065,6.353,1.986,8.55,2.792c3.239,1.189,6.874,0.013,8.803-2.849
	c1.93-2.862,1.656-6.671-0.661-9.229c-1.243-1.371-2.211-4.576-2.859-8.528c13.073,9.639,32.041,22.327,42.969,23.697
	c0.157,0.02,0.314,0.034,0.472,0.044c47.49,2.922,84.69,42.523,84.69,90.154v79.753c-2.059-0.37-4.176-0.573-6.34-0.573h-10.55
	v-26.38v-6.13c0-2.764-0.104-5.584-0.31-8.381c-0.038-0.508-0.126-1.007-0.263-1.49c-0.409-1.448-1.249-2.752-2.424-3.729
	c-1.568-1.302-3.602-1.911-5.622-1.685c-0.8,0.089-1.632,0.134-2.471,0.134c-13.41,0-24.32-11.722-24.32-26.13
	c0-7.831,3.233-15.184,8.871-20.174c3.018-2.671,3.385-7.251,0.831-10.369c-5.664-6.913-12.176-13.163-19.358-18.577
	c-0.937-0.706-2-1.145-3.096-1.356c-2.113-0.407-4.357,0.084-6.119,1.501c-11.747,9.448-36.179,15.657-62.751,16.036
	c-0.857,0.012-1.716,0.018-2.578,0.018s-1.721-0.006-2.578-0.018c-1.714-0.024-3.42-0.073-5.113-0.145
	c-0.847-0.036-1.691-0.078-2.531-0.126c-23.537-1.34-44.497-7.231-55.106-15.764c-2.676-2.152-6.472-2.212-9.215-0.145
	c-7.182,5.413-13.694,11.663-19.358,18.577c-2.554,3.118-2.188,7.697,0.831,10.369c5.638,4.991,8.871,12.344,8.871,20.174
	c0,14.408-10.91,26.13-24.32,26.13c-0.839,0-1.67-0.045-2.471-0.134c-2.025-0.227-4.055,0.383-5.622,1.685
	c-1.175,0.977-2.015,2.28-2.424,3.729c-0.137,0.483-0.225,0.982-0.263,1.49c-0.206,2.797-0.31,5.617-0.31,8.381v6.13v26.38h-10.55
	c-2.134,0-4.256,0.204-6.34,0.578V137.31c0-20.269,6.553-39.415,18.952-55.368c2.542-3.271,1.951-7.982-1.32-10.524
	c-3.269-2.542-7.981-1.951-10.524,1.32c-14.463,18.61-22.108,40.939-22.108,64.572v86.246c-9.019,6.693-14.47,17.332-14.47,28.734
	c0,19.746,16.064,35.81,35.81,35.81h10.55v14.797c0,20.067,16.326,36.393,36.393,36.393c7.733,0,14.905-2.432,20.807-6.561
	c1.889,1.158,3.824,2.277,5.799,3.347c2.292,1.232,4.639,2.365,7.011,3.447v8.977h-6.09c-7.025,0-13.361,3.724-16.79,9.775
	c-36.855,8.922-63.31,42.321-63.31,80.535v65.69c0,4.142,3.358,7.5,7.5,7.5h256.58c4.142,0,7.5-3.358,7.5-7.5v-65.69
	c0-38.289-26.429-71.625-63.315-80.545c-3.431-6.046-9.763-9.766-16.785-9.766h-6.09v-8.918
	C316.242,334.729,326.185,328.284,335.132,320.37z M260.266,335.198c-1.42,0.058-2.842,0.092-4.267,0.092
	c-11.325,0-22.459-1.795-33.088-5.335c-5.639-1.88-11.164-4.266-16.4-7.079c-0.829-0.449-1.651-0.908-2.465-1.376
	c3.254-5.447,5.13-11.809,5.13-18.602v-11.214c0.351-0.77,0.583-1.599,0.657-2.466l0.042-0.499
	c1.572-19.372,18.033-34.547,37.475-34.547h17.3c19.442,0,35.902,15.175,37.477,34.576l0.04,0.47
	c0.215,2.525,1.691,4.771,3.923,5.97s4.919,1.191,7.144-0.023c19.007-10.376,34.455-25.449,45.224-43.327
	c-0.106,0.515-0.207,1.032-0.321,1.545c-3.471,15.706-10.624,30.428-20.689,42.926c-0.033,0.041-0.067,0.082-0.1,0.123
	c-0.842,1.042-1.706,2.067-2.588,3.077c-0.148,0.17-0.299,0.337-0.448,0.506c-0.769,0.869-1.553,1.725-2.351,2.569
	c-0.268,0.283-0.539,0.564-0.81,0.844c-0.859,0.889-1.727,1.772-2.618,2.632c-0.002,0.002-0.004,0.004-0.006,0.006
	c-1.03,0.993-2.084,1.964-3.156,2.916c-0.053,0.047-0.106,0.094-0.16,0.141c-1.074,0.95-2.168,1.88-3.284,2.786
	c-17.364,14.112-38.984,22.288-61.326,23.279C260.488,335.191,260.376,335.194,260.266,335.198z M260.613,381.381
	c1.244,1.14,1.999,2.647,2.169,4.302c0.024,0.236,0.036,0.476,0.036,0.717v16.52c0,1.827-0.707,3.542-2.002,4.836l-0.087,0.08
	c-0.048,0.043-0.096,0.085-0.143,0.129c-1.244,1.146-2.873,1.776-4.588,1.776s-3.345-0.631-4.614-1.8
	c-1.422-1.298-2.206-3.08-2.206-5.02V386.4c0-0.253,0.015-0.503,0.041-0.75c0.176-1.642,0.93-3.139,2.18-4.285
	c1.25-1.151,2.883-1.786,4.598-1.786C257.712,379.579,259.346,380.215,260.613,381.381z M255.999,424.741
	c3.852,0,7.569-1.022,10.839-2.899l23.761,8.353V497h-69.2v-24.53c0-4.142-3.358-7.5-7.5-7.5s-7.5,3.358-7.5,7.5v16.004
	l-31.507-26.29l10.441-23.094c0.836-1.85,0.887-3.959,0.141-5.847c-0.746-1.887-2.225-3.392-4.1-4.17l-18.448-7.658l28.417-47.043
	c0.223,1.423,0.625,2.84,1.233,4.22l7.078,16.067l-7.081,16.072c-2.703,6.149-1.545,13.029,3.021,17.955
	c2.927,3.157,6.762,4.962,10.805,5.274v8.539c0,4.142,3.358,7.5,7.5,7.5s7.5-3.358,7.5-7.5v-12.307l23.763-8.353
	C248.432,423.718,252.148,424.741,255.999,424.741z M276.818,379.88l26.893-9.462c0.651-0.23,1.222-0.087,1.694,0.422
	c0.469,0.506,0.566,1.081,0.291,1.707l-8.41,19.09c-0.849,1.926-0.849,4.121,0,6.047l8.407,19.084
	c0.279,0.634,0.182,1.213-0.289,1.721c-0.469,0.506-1.037,0.644-1.688,0.415l-26.885-9.451c0.01-0.033,0.017-0.068,0.027-0.101
	c0.037-0.121,0.065-0.246,0.1-0.368c0.143-0.498,0.27-1.001,0.377-1.51c0.043-0.204,0.08-0.41,0.117-0.616
	c0.083-0.458,0.15-0.919,0.204-1.383c0.023-0.197,0.049-0.392,0.067-0.589c0.058-0.65,0.096-1.305,0.096-1.966V386.4
	c0-0.496-0.023-0.99-0.057-1.482c-0.009-0.129-0.019-0.258-0.031-0.387c-0.038-0.441-0.087-0.88-0.152-1.316
	c-0.008-0.053-0.013-0.107-0.021-0.16c-0.075-0.483-0.171-0.962-0.278-1.438c-0.026-0.117-0.055-0.232-0.083-0.348
	c-0.101-0.417-0.213-0.83-0.339-1.24C276.844,379.98,276.833,379.929,276.818,379.88z M319.423,378.592
	c0.16-0.364,0.305-0.731,0.438-1.099c0.047-0.131,0.086-0.262,0.13-0.393c0.08-0.24,0.159-0.479,0.228-0.72
	c0.044-0.154,0.081-0.308,0.12-0.463c0.056-0.22,0.111-0.44,0.158-0.661c0.035-0.162,0.064-0.324,0.093-0.487
	c0.023-0.127,0.053-0.253,0.073-0.38l28.408,47.028l-18.448,7.658c-1.874,0.778-3.353,2.283-4.1,4.17
	c-0.746,1.888-0.695,3.997,0.141,5.847l10.441,23.094l-31.507,26.29v-54.497c0.077-0.006,0.153-0.022,0.23-0.029
	c0.215-0.02,0.427-0.052,0.641-0.08c0.316-0.042,0.631-0.087,0.943-0.147c0.22-0.042,0.436-0.093,0.654-0.145
	c0.302-0.071,0.602-0.149,0.9-0.238c0.217-0.065,0.432-0.134,0.647-0.208c0.292-0.101,0.581-0.211,0.868-0.329
	c0.21-0.086,0.419-0.173,0.626-0.269c0.286-0.132,0.566-0.276,0.845-0.424c0.197-0.105,0.395-0.207,0.588-0.32
	c0.285-0.167,0.563-0.351,0.839-0.536c0.176-0.118,0.354-0.229,0.526-0.354c0.301-0.219,0.59-0.457,0.879-0.698
	c0.136-0.114,0.278-0.218,0.411-0.336c0.417-0.37,0.821-0.76,1.207-1.177c1.142-1.231,2.07-2.585,2.779-4.019
	c2.126-4.301,2.27-9.324,0.243-13.936c-0.001-0.002-0.002-0.004-0.003-0.006l-7.078-16.066L319.423,378.592z M235.132,380.058
	c-0.121,0.397-0.23,0.798-0.328,1.201c-0.029,0.121-0.06,0.242-0.087,0.364c-0.107,0.474-0.202,0.95-0.277,1.432
	c-0.009,0.054-0.014,0.109-0.022,0.164c-0.065,0.435-0.114,0.873-0.152,1.313c-0.011,0.129-0.022,0.258-0.031,0.387
	c-0.034,0.492-0.057,0.986-0.057,1.482v16.52c0,0.497,0.023,0.992,0.057,1.485c0.009,0.129,0.019,0.258,0.031,0.387
	c0.038,0.441,0.087,0.88,0.152,1.317c0.008,0.054,0.013,0.108,0.021,0.162c0.075,0.484,0.171,0.962,0.278,1.438
	c0.027,0.118,0.056,0.236,0.084,0.353c0.1,0.413,0.211,0.822,0.335,1.228c0.016,0.052,0.027,0.107,0.043,0.159l-26.902,9.457
	c-0.649,0.231-1.216,0.088-1.685-0.417c-0.471-0.508-0.568-1.087-0.292-1.715l8.41-19.09c0.849-1.927,0.849-4.121,0-6.047
	L206.3,372.55c-0.276-0.627-0.179-1.203,0.289-1.708c0.326-0.352,0.7-0.529,1.113-0.529c0.184,0,0.376,0.035,0.576,0.105
	l26.898,9.464C235.161,379.939,235.15,379.999,235.132,380.058z M201.676,228.14c-11.953,0-21.677-9.725-21.677-21.677
	c0-11.953,9.725-21.677,21.677-21.677c11.953,0,21.678,9.725,21.678,21.677C223.353,218.415,213.629,228.14,201.676,228.14z
	 M406.969,252.29c0,11.475-9.335,20.81-20.81,20.81h-18.294c4.362-11.457,6.899-23.44,7.563-35.806
	c0.014-0.247,0.02-0.495,0.031-0.742c0.04-0.84,0.08-1.68,0.103-2.523c0.023-0.846,0.03-1.692,0.036-2.539h10.561
	C397.634,231.491,406.969,240.821,406.969,252.29z M151.389,183.98c0-0.117,0-0.234,0.001-0.352
	c19.853-2.06,35.409-19.629,35.409-40.928c0-9.542-3.145-18.665-8.8-25.938c2.591-2.761,5.348-5.375,8.251-7.826
	c12.312,7.706,30.84,13.041,51.73,15.007c5.849,0.55,11.884,0.836,18.019,0.836c6.135,0,12.169-0.286,18.019-0.836
	c20.89-1.965,39.418-7.3,51.73-15.007c2.903,2.451,5.66,5.065,8.251,7.826c-5.655,7.273-8.8,16.396-8.8,25.938
	c0,21.299,15.557,38.869,35.409,40.928c0,0.117,0,0.234,0,0.352v6.13c0,34.784-17.241,67.015-45.612,86.405
	c-2.692-8.913-7.724-16.993-14.693-23.418c-9.742-8.98-22.404-13.927-35.655-13.927h-17.3c-13.251,0-25.913,4.946-35.655,13.927
	c-0.87,0.802-1.71,1.63-2.519,2.483v-13.213c16.639-3.471,29.178-18.249,29.178-35.904c0-20.224-16.454-36.677-36.678-36.677
	s-36.677,16.453-36.677,36.677c0,17.654,12.538,32.432,29.177,35.904v32.105c-4.832-3.549-9.38-7.489-13.563-11.842
	c-11.129-11.563-19.554-25.706-24.362-40.899c-3.226-10.203-4.861-20.841-4.861-31.62L151.389,183.98L151.389,183.98z
	 M105.029,252.29c0-7.516,4.074-14.465,10.659-18.15c3.069-1.733,6.58-2.65,10.151-2.65H136.4c0.006,0.847,0.013,1.693,0.036,2.539
	c0.023,0.843,0.063,1.683,0.103,2.523c0.012,0.247,0.018,0.495,0.031,0.742c0.663,12.367,3.201,24.351,7.563,35.806h-0.234
	c-0.003,0-0.006-0.001-0.01-0.001c-0.003,0-0.006,0.001-0.01,0.001h-18.04C114.364,273.101,105.029,263.765,105.029,252.29z
	 M151.389,302.897v-14.206c3.78,6.803,8.227,13.259,13.286,19.235c2.676,3.162,7.408,3.555,10.57,0.879s3.555-7.409,0.879-10.57
	c-5.446-6.434-10.096-13.491-13.822-20.98c-3.792-7.61-6.592-15.536-8.412-23.708c-0.011-0.058-0.017-0.115-0.029-0.173
	c-0.115-0.517-0.216-1.037-0.323-1.556c4.61,7.637,10.07,14.776,16.265,21.211c7.262,7.557,15.448,14.088,24.374,19.484v10.385
	c0,5.335-1.976,10.208-5.218,13.959c-0.906,0.54-1.715,1.272-2.349,2.199c-0.069,0.101-0.127,0.207-0.19,0.311
	c-3.705,3.073-8.458,4.923-13.636,4.923C160.986,324.29,151.389,314.694,151.389,302.897z M135.209,438.811
	c0-25.419,14.292-48.232,35.823-59.823l-25.452,42.135c-1.13,1.87-1.388,4.14-0.707,6.216s2.233,3.751,4.251,4.589l19.354,8.034
	l-9.602,21.24c-1.388,3.07-0.558,6.689,2.029,8.849l32.3,26.951h-57.996V438.811z M376.789,438.811V497h-57.995l32.3-26.951
	c2.587-2.159,3.417-5.778,2.029-8.849l-9.603-21.24l19.354-8.034c2.018-0.837,3.57-2.513,4.251-4.589s0.423-4.346-0.707-6.216
	l-25.463-42.153C362.504,390.544,376.789,413.335,376.789,438.811z M290.599,356v3.13l-23.751,8.358
	c-3.274-1.882-6.995-2.908-10.849-2.908c-3.857,0-7.58,1.027-10.851,2.907l-23.749-8.357V356v-10.811
	c11.181,3.373,22.8,5.101,34.6,5.101c1.632,0,3.257-0.041,4.878-0.105c0.127-0.005,0.255-0.008,0.382-0.014
	c10.062-0.433,19.901-2.1,29.34-4.938L290.599,356L290.599,356z"/>
<path d="M251.839,448.74c0.4,0.27,0.84,0.5,1.29,0.69c0.45,0.18,0.93,0.33,1.41,0.42c0.48,0.1,0.97,0.15,1.46,0.15
	c0.49,0,0.98-0.05,1.47-0.15c0.47-0.09,0.95-0.24,1.4-0.42c0.45-0.19,0.89-0.42,1.29-0.69c0.41-0.28,0.8-0.59,1.14-0.94
	c0.35-0.34,0.66-0.73,0.94-1.14c0.27-0.4,0.5-0.84,0.69-1.29c0.18-0.45,0.33-0.93,0.42-1.4c0.1-0.49,0.15-0.98,0.15-1.47
	s-0.05-0.98-0.15-1.47c-0.09-0.47-0.24-0.95-0.42-1.4c-0.19-0.45-0.42-0.89-0.69-1.29c-0.28-0.41-0.59-0.8-0.94-1.14
	c-1.74-1.74-4.33-2.55-6.76-2.05c-0.48,0.09-0.96,0.24-1.41,0.42c-0.45,0.19-0.89,0.42-1.29,0.69c-0.41,0.28-0.8,0.59-1.14,0.94
	c-0.35,0.34-0.66,0.73-0.94,1.14c-0.27,0.4-0.5,0.84-0.69,1.29c-0.18,0.45-0.33,0.93-0.42,1.4c-0.1,0.49-0.15,0.98-0.15,1.47
	c0,1.97,0.8,3.91,2.2,5.3C251.038,448.15,251.428,448.46,251.839,448.74z"/>
<path d="M262.928,471.88c-0.19-0.45-0.42-0.89-0.69-1.29c-0.28-0.41-0.59-0.8-0.94-1.14c-0.34-0.35-0.73-0.66-1.14-0.94
	c-0.4-0.27-0.84-0.5-1.29-0.68c-0.45-0.19-0.93-0.34-1.4-0.43c-0.97-0.2-1.97-0.2-2.94,0c-0.47,0.09-0.95,0.24-1.4,0.43
	c-0.45,0.18-0.89,0.41-1.29,0.68c-0.41,0.28-0.8,0.59-1.14,0.94c-0.35,0.34-0.66,0.73-0.94,1.14c-0.27,0.4-0.5,0.84-0.68,1.29
	c-0.19,0.45-0.34,0.93-0.43,1.4c-0.1,0.49-0.15,0.98-0.15,1.47s0.05,0.98,0.15,1.47c0.09,0.47,0.24,0.95,0.43,1.4
	c0.18,0.45,0.41,0.89,0.68,1.29c0.28,0.41,0.59,0.8,0.94,1.14c0.34,0.35,0.73,0.66,1.14,0.94c0.4,0.27,0.84,0.5,1.29,0.69
	c0.45,0.18,0.93,0.33,1.4,0.42c0.49,0.1,0.98,0.15,1.47,0.15c0.49,0,0.98-0.05,1.47-0.15c0.47-0.09,0.95-0.24,1.4-0.42
	c0.45-0.19,0.89-0.42,1.29-0.69c0.41-0.28,0.8-0.59,1.14-0.94c0.35-0.34,0.66-0.73,0.94-1.14c0.27-0.4,0.5-0.84,0.69-1.29
	c0.18-0.45,0.33-0.93,0.42-1.4c0.1-0.49,0.15-0.98,0.15-1.47s-0.05-0.98-0.15-1.47C263.259,472.811,263.108,472.33,262.928,471.88z"
	/>
<g>
</g>
<g>
</g>
<g>
</g>
<g>
</g>
<g>
</g>
<g>
</g>
<g>
</g>
<g>
</g>
<g>
</g>
<g>
</g>
<g>
</g>
<g>
</g>
<g>
</g>
<g>
</g>
<g>
</g>
</svg>
