<?xml version="1.0" encoding="iso-8859-1"?>
<!-- Generator: Adobe Illustrator 19.0.0, SVG Export Plug-In . SVG Version: 6.00 Build 0)  -->
<svg version="1.1" id="Capa_1" xmlns="http://www.w3.org/2000/svg" xmlns:xlink="http://www.w3.org/1999/xlink" x="0px" y="0px"
	 viewBox="0 0 512 512" style="enable-background:new 0 0 512 512;" xml:space="preserve">
<g>
	<path style="fill:#9E9D9D;" d="M407.193,202.667h-23.549v-39.333h23.549c8.717,0,15.784,7.067,15.784,15.784v7.766
		C422.977,195.6,415.91,202.667,407.193,202.667z"/>
	<path style="fill:#9E9D9D;" d="M104.805,202.667h23.549v-39.333h-23.549c-8.717,0-15.784,7.067-15.784,15.784v7.766
		C89.021,195.6,96.088,202.667,104.805,202.667z"/>
</g>
<path style="fill:#49B6F2;" d="M203.071,363.444h105.855c41.621,0,75.362,33.741,75.362,75.362V504.5H127.71v-65.694
	C127.71,397.184,161.45,363.444,203.071,363.444z"/>
<path style="fill:#2E93CC;" d="M308.926,363.444H289.26c39.7,0,71.882,32.183,71.882,71.882V504.5h23.145v-65.695
	C384.288,397.184,350.547,363.444,308.926,363.444z"/>
<polygon style="fill:#C7C7C7;" points="171.764,453.5 162.499,504.5 349.499,504.5 340.234,453.5 "/>
<path style="fill:#FFB56B;" d="M213.903,267.729v90.668c0,19.653,13.469,36.158,31.679,40.794l10.417-10.417l10.417,10.417
	c18.21-4.636,31.679-21.141,31.679-40.794v-90.668L213.903,267.729L213.903,267.729z"/>
<g>
	<polygon style="fill:#68C8FC;" points="323.377,364.833 308.792,351 255.999,388.774 295.313,428.088 	"/>
	<polygon style="fill:#68C8FC;" points="188.621,364.833 203.206,351 255.999,388.774 216.685,428.088 	"/>
</g>
<path style="fill:#C7C7C7;" d="M297.538,7.5H214.46c-52.722,0-95.461,42.739-95.461,95.461v187.378
	c0,22.32,16.417,41.275,38.52,44.389c65.654,9.252,131.307,9.252,196.961,0c22.102-3.115,38.52-22.069,38.52-44.389V102.961
	C392.999,50.239,350.259,7.5,297.538,7.5z"/>
<path style="fill:#B2B1AF;" d="M392.999,102.961c0-52.722-42.74-95.461-95.461-95.461h-22.875c52.722,0,95.461,42.739,95.461,95.461
	v187.378c0,22.32-16.418,41.275-38.52,44.389c-29.014,4.089-58.029,6.363-87.043,6.838c36.639,0.6,73.279-1.675,109.918-6.838
	c22.102-3.115,38.52-22.069,38.52-44.389V102.961z"/>
<rect x="160.569" y="159.18" style="fill:#5880A2;" width="190.85" height="74.67"/>
<path d="M407.188,155.83h-6.689v-52.87C400.499,46.188,354.311,0,297.539,0h-83.08c-23.603,0-46.663,8.187-64.934,23.053
	c-3.213,2.614-3.698,7.338-1.084,10.551s7.337,3.699,10.551,1.084C174.595,21.992,194.294,15,214.459,15h83.08
	c48.501,0,87.96,39.458,87.96,87.96v60.37v39.34v87.67c0,18.492-13.786,34.383-32.066,36.963
	c-64.653,9.109-130.216,9.109-194.865,0.001c-18.282-2.581-32.068-18.472-32.068-36.964V102.96c0-16.737,4.718-33.018,13.643-47.082
	c2.219-3.497,1.184-8.131-2.314-10.351c-3.498-2.221-8.132-1.183-10.351,2.314c-10.454,16.471-15.979,35.531-15.979,55.119v52.87
	h-6.69c-12.842,0-23.29,10.448-23.29,23.29v7.76c0,12.842,10.448,23.29,23.29,23.29h6.69v80.17
	c0,25.921,19.333,48.197,44.974,51.817c13.437,1.893,26.914,3.38,40.413,4.503l-11.908,11.288
	c-37.661,8.377-64.768,42.014-64.768,80.862v65.69c0,4.142,3.358,7.5,7.5,7.5h34.79h187h34.79c4.143,0,7.5-3.358,7.5-7.5v-65.69
	c0-38.848-27.107-72.484-64.768-80.862l-11.908-11.288c13.499-1.123,26.977-2.61,40.415-4.504
	c25.638-3.62,44.971-25.896,44.971-51.816v-80.17h6.689c12.843,0,23.291-10.448,23.291-23.29v-7.76
	C430.479,166.278,420.031,155.83,407.188,155.83z M104.809,195.17c-4.571,0-8.29-3.719-8.29-8.29v-7.76
	c0-4.571,3.719-8.29,8.29-8.29h6.69v24.34L104.809,195.17L104.809,195.17z M303.899,390.239l-11.013,24.819l-18.539-18.544
	l-2.594-2.595c-0.01-0.011-0.019-0.023-0.03-0.033l-4.165-4.165l40.562-29.022l6.255,5.929L303.899,390.239z M197.622,366.629
	l6.255-5.929l40.563,29.022l-4.165,4.165c-0.008,0.008-0.015,0.017-0.023,0.025l-21.141,21.147L197.622,366.629z M290.598,348.276
	v6.516l-3.535,2.53c-0.009,0.007-0.019,0.011-0.028,0.018l-31.036,22.208l-31.036-22.208c-0.01-0.007-0.02-0.012-0.03-0.019
	l-3.535-2.529v-6.516c11.527,0.56,23.063,0.859,34.6,0.859S279.071,348.836,290.598,348.276z M135.209,438.81
	c0-29.563,19.153-55.449,46.6-64.471V446h-10.045c-3.625,0-6.731,2.593-7.379,6.159L156.238,497h-21.03v-58.19H135.209z
	 M171.484,497l6.54-36h3.785v8c0,4.142,3.358,7.5,7.5,7.5s7.5-3.358,7.5-7.5v-67.22l13.024,29.353
	c1.002,2.259,3.054,3.88,5.484,4.332c0.274,0.051,0.548,0.081,0.823,0.101c0.082,0.006,0.163,0.008,0.245,0.011
	c0.101,0.004,0.203,0.014,0.304,0.014c0.093,0,0.185-0.01,0.278-0.014c0.098-0.004,0.196-0.007,0.293-0.014
	c0.202-0.015,0.402-0.041,0.601-0.073c0.075-0.012,0.151-0.019,0.226-0.034c0.271-0.051,0.539-0.116,0.802-0.197
	c0.049-0.015,0.096-0.036,0.145-0.052c0.214-0.071,0.425-0.149,0.632-0.239c0.084-0.036,0.166-0.078,0.249-0.117
	c0.17-0.081,0.338-0.168,0.502-0.262c0.085-0.049,0.169-0.098,0.252-0.15c0.165-0.103,0.325-0.214,0.482-0.331
	c0.07-0.052,0.141-0.1,0.209-0.155c0.22-0.175,0.433-0.359,0.634-0.561l34.005-34.014l34.006,34.015
	c0.201,0.201,0.413,0.385,0.632,0.56c0.071,0.057,0.145,0.107,0.217,0.161c0.153,0.113,0.308,0.222,0.469,0.322
	c0.088,0.056,0.177,0.108,0.267,0.159c0.156,0.09,0.316,0.172,0.478,0.25c0.091,0.043,0.181,0.089,0.273,0.128
	c0.19,0.082,0.383,0.153,0.578,0.219c0.066,0.022,0.131,0.05,0.198,0.07c0.258,0.079,0.52,0.142,0.784,0.193
	c0.087,0.017,0.176,0.026,0.263,0.039c0.187,0.029,0.374,0.053,0.563,0.068c0.104,0.008,0.208,0.012,0.313,0.015
	c0.09,0.003,0.178,0.013,0.268,0.013c0.098,0,0.197-0.01,0.296-0.013c0.085-0.003,0.17-0.006,0.255-0.012
	c0.273-0.02,0.547-0.051,0.82-0.101c2.43-0.452,4.481-2.072,5.484-4.332l13.025-29.354V446h-95.886c-4.142,0-7.5,3.358-7.5,7.5
	s3.358,7.5,7.5,7.5h95.886v8c0,4.142,3.357,7.5,7.5,7.5s7.5-3.358,7.5-7.5v-8h3.784l6.54,36H171.484z M376.789,438.81V497h-21.03
	l-8.146-44.84c-0.647-3.567-3.754-6.16-7.379-6.16h-10.045v-71.66C357.636,383.362,376.789,409.247,376.789,438.81z M415.479,186.88
	c0,4.571-3.72,8.29-8.291,8.29h-6.689v-24.34h6.689c4.571,0,8.291,3.719,8.291,8.29L415.479,186.88L415.479,186.88z"/>
<path d="M351.425,241.346c4.143,0,7.5-3.358,7.5-7.5v-74.669c0-4.142-3.357-7.5-7.5-7.5H160.573c-4.142,0-7.5,3.358-7.5,7.5v74.669
	c0,4.142,3.358,7.5,7.5,7.5L351.425,241.346L351.425,241.346z M168.073,166.677h175.852v59.669H168.073V166.677z"/>
<g>
</g>
<g>
</g>
<g>
</g>
<g>
</g>
<g>
</g>
<g>
</g>
<g>
</g>
<g>
</g>
<g>
</g>
<g>
</g>
<g>
</g>
<g>
</g>
<g>
</g>
<g>
</g>
<g>
</g>
</svg>
