<svg id="Capa_1" enable-background="new 0 0 512.735 512.735" height="512" viewBox="0 0 512.735 512.735" width="512" xmlns="http://www.w3.org/2000/svg"><path d="m126.582 338.781c0 71.679 58.107 129.786 129.786 129.786s129.786-58.107 129.786-129.786l-43.121-17.119-18.931 29.764c-11.371 17.878-31.09 28.705-52.278 28.705h-30.913c-21.188 0-40.906-10.827-52.278-28.705l-18.931-29.764z" fill="#f1f1f4"/><path d="m346.09 322.875c-2.163 69.784-59.413 125.691-129.722 125.691-12.898 0-25.357-1.882-37.117-5.385 21.561 15.952 48.237 25.385 77.116 25.385 71.679 0 129.786-58.107 129.786-129.786z" fill="#dfdde2"/><path d="m317.401 226.295c-4.652 0-8.609 3.391-9.322 7.988l-5.582 36.007c-.457 2.946-1.823 5.554-3.786 7.555-1.517 2.503-4.265 4.144-7.356 4.144h-69.975c-3.091 0-5.839-1.641-7.356-4.145-1.963-2.002-3.33-4.609-3.786-7.555l-5.582-36.007c-.713-4.597-4.67-7.988-9.322-7.988h-17.104l7.744 56.567c.915 6.684 5.027 12.504 11.021 15.599l22.141 11.433c5.693 2.94 12.007 4.474 18.413 4.474h37.636c6.407 0 12.721-1.534 18.413-4.474l22.141-11.433c5.994-3.095 10.106-8.915 11.021-15.599l7.744-56.567h-17.103z" fill="#c6c1c8"/><path d="m351.967 193.105c-3.493-2.344-5.404-6.429-5.095-10.624l2.443-33.17c.765-10.385-.129-20.468-2.448-29.992h-181.136c-2.249 9.226-3.122 18.967-2.384 28.985l2.517 34.177c.309 4.195-1.602 8.28-5.095 10.624-4.849 3.253-8.04 8.785-8.04 15.063 0 10.011 8.116 18.127 18.127 18.127h24.479c4.652 0 8.609 3.391 9.322 7.988l5.582 36.007c1.044 6.733 6.84 11.7 13.653 11.7h64.952c6.813 0 12.609-4.967 13.653-11.7l5.582-36.007c.713-4.597 4.67-7.988 9.322-7.988h24.479c10.011 0 18.127-8.116 18.127-18.127 0-6.277-3.191-11.81-8.04-15.063z" fill="#f1f1f4"/><path d="m351.93 193.081c-3.486-2.326-5.366-6.42-5.058-10.6l2.443-33.17c.765-10.385-.129-20.468-2.448-29.992h-27.323c.093 3.293.019 6.626-.229 9.992l-2.443 33.17c-.308 4.18 1.572 8.273 5.058 10.6 4.946 3.301 8.178 8.97 8.075 15.387-.161 9.976-8.638 17.828-18.615 17.828h-3.135c-16.653 0-30.82 12.14-33.371 28.596l-2.387 15.399c-1.044 6.733-6.84 11.7-13.653 11.7h-49.892l1.287 8.3c1.044 6.733 6.84 11.7 13.653 11.7h64.952c6.813 0 12.609-4.967 13.653-11.7l5.582-36.007c.713-4.597 4.67-7.988 9.322-7.988h23.989c9.977 0 18.454-7.852 18.615-17.828.103-6.417-3.129-12.086-8.075-15.387z" fill="#dfdde2"/><path d="m243.12 163.991c0 13.864-11.239 25.102-25.102 25.102-13.864 0-25.102-11.239-25.102-25.102v-10.037h50.204z" fill="#665e66"/><path d="m269.615 163.991c0 13.864 11.239 25.102 25.102 25.102s25.102-11.239 25.102-25.102v-10.037h-50.204z" fill="#665e66"/><path d="m349.361 93.544h-185.987v-86.044l45.83 42.676 47.164-42.676 47.163 42.676 45.83-42.676z" fill="#f9f48e"/><path d="m309.361 44.747v14.036c0 8.152-6.609 14.761-14.761 14.761h-131.226v20h185.987v-86.044z" fill="#f6e738"/><path d="m349.361 119.319h-185.987c-5.879 0-10.646-4.766-10.646-10.646v-4.483c0-5.879 4.766-10.646 10.646-10.646h185.987c5.879 0 10.646 4.766 10.646 10.646v4.483c0 5.88-4.766 10.646-10.646 10.646z" fill="#f9f48e"/><path d="m329.453 263.193-2.693 19.669c-.915 6.684-5.027 12.504-11.021 15.599l-22.141 11.433c-5.693 2.94-12.007 4.474-18.413 4.474h-37.635c-6.407 0-12.721-1.534-18.413-4.474l-22.141-11.433c-5.994-3.095-10.106-8.915-11.021-15.599l-2.693-19.669h-50.768l56.12 88.232c11.371 17.878 31.09 28.705 52.278 28.705h30.913c21.188 0 40.906-10.827 52.278-28.705l56.12-88.232z" fill="#544f57"/><ellipse cx="256.368" cy="424.348" fill="#e28086" rx="14.954" ry="19.459"/><path d="m91.538 338.781c0-3.862 3.131-6.994 6.994-6.994h21.06c3.86 0 6.99 3.13 6.99 6.99 0 71.679 58.107 129.79 129.786 129.79s129.786-58.107 129.786-129.786c0-3.862 3.131-6.994 6.994-6.994h21.057c3.862 0 6.994 3.131 6.994 6.994v1.624c0 91.033-73.797 164.83-164.83 164.83s-164.83-73.797-164.83-164.83v-1.624z" fill="#f9f48e"/><path d="m414.204 331.787h-21.057c-3.862 0-6.994 3.131-6.994 6.994 0 54.068-33.062 100.414-80.073 119.924-25.817 16.782-56.627 26.53-89.713 26.53-18.523 0-36.332-3.055-52.951-8.69 26.462 18.102 58.47 28.69 92.951 28.69 91.033 0 164.83-73.797 164.83-164.83v-1.624c.001-3.863-3.131-6.994-6.993-6.994z" fill="#f6e738"/><path d="m452.983 400.032c-.033-20.936-12.794-39.742-32.225-47.512-6.202 85.376-77.432 152.715-164.391 152.715h196.78z" fill="#544f57"/><path d="m91.977 352.52c-19.431 7.77-32.192 26.577-32.225 47.512l-.164 105.203h196.78c-86.959 0-158.189-67.339-164.391-152.715z" fill="#665e66"/><path d="m240.911 380.13s33.159-.031 34.274-.091v-63.67h-37.635v63.67c1.115.06 2.236.091 3.361.091z" fill="#dfdde2"/><path d="m246.662 202.539c-3.996-1.069-8.113 1.302-9.186 5.304l-2.623 9.788c-1.276 4.763 2.32 9.443 7.25 9.443 3.311 0 6.342-2.21 7.24-5.561l2.623-9.788c1.072-4.001-1.303-8.113-5.304-9.186z"/><path d="m263.391 221.512c1.073 4.003 5.184 6.374 9.186 5.304 4.001-1.072 6.375-5.185 5.304-9.186l-2.623-9.788c-1.072-4.001-5.185-6.372-9.186-5.304-4.001 1.072-6.375 5.185-5.304 9.186z"/><path d="m218.017 196.594c17.977 0 32.603-14.625 32.603-32.602v-10.038c0-4.142-3.358-7.5-7.5-7.5h-50.205c-4.142 0-7.5 3.358-7.5 7.5v10.038c0 17.977 14.625 32.602 32.602 32.602zm-17.602-35.14h35.205v2.538c0 9.706-7.896 17.602-17.603 17.602s-17.602-7.896-17.602-17.602z"/><path d="m294.718 196.594c17.977 0 32.602-14.625 32.602-32.602v-10.038c0-4.142-3.358-7.5-7.5-7.5h-50.205c-4.142 0-7.5 3.358-7.5 7.5v10.038c0 17.977 14.626 32.602 32.603 32.602zm-17.603-35.14h35.205v2.538c0 9.706-7.896 17.602-17.602 17.602s-17.603-7.896-17.603-17.602z"/><path d="m244.355 64.042h4.512v4.513c0 4.142 3.358 7.5 7.5 7.5s7.5-3.358 7.5-7.5v-4.513h4.512c4.142 0 7.5-3.358 7.5-7.5s-3.358-7.5-7.5-7.5h-4.512v-4.512c0-4.142-3.358-7.5-7.5-7.5s-7.5 3.358-7.5 7.5v4.512h-4.512c-4.142 0-7.5 3.358-7.5 7.5s3.358 7.5 7.5 7.5z"/><path d="m256.368 451.307c12.381 0 22.454-12.094 22.454-26.959s-10.073-26.958-22.454-26.958-22.454 12.094-22.454 26.958c-.001 14.865 10.072 26.959 22.454 26.959zm0-38.918c3.526 0 7.454 4.911 7.454 11.958s-3.928 11.959-7.454 11.959-7.454-4.912-7.454-11.959 3.928-11.958 7.454-11.958z"/><circle cx="304.92" cy="412.516" r="7.5"/><circle cx="331.61" cy="393.15" r="7.5"/><circle cx="350.515" cy="364.774" r="7.5"/><circle cx="207.815" cy="412.516" r="7.5"/><circle cx="181.125" cy="393.15" r="7.5"/><circle cx="162.22" cy="364.774" r="7.5"/><path d="m52.252 400.02-.165 105.203c-.006 4.145 3.354 7.512 7.5 7.512h393.561c4.145 0 7.506-3.366 7.5-7.512l-.165-105.203c-.035-22.283-12.405-42.221-31.944-52.196.164-3.854.158-6.417.158-9.043 0-7.992-6.502-14.494-14.494-14.494h-21.057c-4.313 0-8.192 1.894-10.849 4.893l-28.071-11.144 4.263-6.702c2.223-3.495 1.192-8.131-2.303-10.354-3.496-2.224-8.131-1.192-10.354 2.303l-6.919 10.878h-17.83c-4.142 0-7.5 3.358-7.5 7.5s3.358 7.5 7.5 7.5h8.289l-11.599 18.239c-8.065 12.681-20.723 21.259-35.087 24.151v-20.708h7.747c4.142 0 7.5-3.358 7.5-7.5s-3.358-7.5-7.5-7.5h-7.747v-14.574c4.993-.799 9.86-2.389 14.355-4.711l22.14-11.433c8.154-4.211 13.766-12.153 15.011-21.247l1.805-13.186h30.566l-1.633 2.567c-2.223 3.495-1.191 8.13 2.303 10.353 3.517 2.238 8.145 1.169 10.354-2.303l8.964-14.092c3.172-4.987-.42-11.525-6.329-11.525h-42.172l2.998-21.898h.832c14.131 0 25.627-11.496 25.627-25.627 0-8.559-4.247-16.518-11.361-21.292-1.221-.819-1.908-2.292-1.794-3.845l2.443-33.17c.601-8.15.26-16.264-1.01-24.217 6.845-2.599 11.723-9.226 11.723-16.972v-4.483c0-7.333-4.372-13.663-10.646-16.522 0-24.192 0-54.896 0-80.167 0-2.985-1.77-5.686-4.507-6.877-2.735-1.189-5.919-.646-8.104 1.388l-40.792 37.984-42.059-38.055c-2.857-2.585-7.207-2.585-10.064 0l-42.059 38.057-40.792-37.985c-2.184-2.034-5.368-2.579-8.104-1.388-2.737 1.191-4.507 3.892-4.507 6.877v80.167c-6.274 2.859-10.646 9.19-10.646 16.522v4.483c0 7.698 4.819 14.292 11.599 16.924-1.212 7.656-1.536 15.447-.961 23.257l2.516 34.178c.115 1.552-.573 3.025-1.794 3.845-7.114 4.773-11.361 12.732-11.361 21.291 0 14.131 11.496 25.627 25.627 25.627h.832l2.998 21.898h-42.172c-5.91 0-9.5 6.54-6.328 11.525l32.323 50.818-28.07 11.144c-2.657-2.999-6.535-4.893-10.847-4.893h-21.059c-7.992 0-14.494 6.502-14.494 14.494 0 2.856-.003 5.26.158 9.043-19.538 9.977-31.908 29.914-31.943 52.197zm393.231.024.153 97.691h-50.296v-26.372c0-4.142-3.358-7.5-7.5-7.5s-7.5 3.358-7.5 7.5v26.372h-53.667c53.091-23.818 92.025-73.744 100.361-133.341 11.428 8.054 18.427 21.189 18.449 35.65zm-177.798-27.414h-22.635v-21.787h22.636v21.787zm-22.635-36.787v-13.975h22.636v13.975zm-74.176-311.111 33.219 30.932c2.85 2.653 7.255 2.686 10.143.073l42.131-38.122 42.131 38.122c2.888 2.613 7.294 2.581 10.143-.073l33.219-30.932v24.31h-4.512c-4.142 0-7.5 3.358-7.5 7.5s3.358 7.5 7.5 7.5h4.512v22.002h-8.985c-4.142 0-7.5 3.358-7.5 7.5s3.358 7.5 7.5 7.5h16.485c1.734 0 3.146 1.411 3.146 3.146v4.483c0 1.734-1.411 3.146-3.146 3.146h-185.986c-1.734 0-3.146-1.411-3.146-3.146v-4.483c0-1.735 1.411-3.146 3.146-3.146h134.502c4.142 0 7.5-3.358 7.5-7.5s-3.358-7.5-7.5-7.5h-127.002c0-7.587 0-13.376 0-22.002h4.512c4.142 0 7.5-3.358 7.5-7.5s-3.358-7.5-7.5-7.5h-4.512c0-5.546 0-15.55 0-24.31zm-10.646 183.436c0-3.55 1.764-6.853 4.718-8.834 5.689-3.817 8.906-10.485 8.397-17.403l-2.517-34.177c-.518-7.039-.181-14.057 1.003-20.934h168.943c1.25 7.187 1.607 14.543 1.063 21.941l-2.443 33.171c-.509 6.918 2.709 13.586 8.397 17.402 2.955 1.982 4.718 5.285 4.718 8.835 0 5.86-4.767 10.627-10.627 10.627-6.6 0-20.364 0-24.479 0-8.408 0-15.445 6.03-16.734 14.339l-5.582 36.007c-.48 3.099-3.105 5.349-6.242 5.349h-9.485v-22.466c0-4.142-3.358-7.5-7.5-7.5s-7.5 3.358-7.5 7.5v22.466h-15.982v-22.466c0-4.142-3.358-7.5-7.5-7.5s-7.5 3.358-7.5 7.5v22.466h-9.485c-3.136 0-5.761-2.25-6.242-5.349l-5.582-36.007c-1.288-8.309-8.325-14.34-16.733-14.34-6.083 0-18.138 0-24.479 0-5.86 0-10.627-4.767-10.627-10.627zm35.106 25.627c.96 0 1.763.688 1.91 1.637l5.582 36.007c1.622 10.459 10.481 18.051 21.065 18.051h64.952c10.584 0 19.443-7.591 21.065-18.051l5.582-36.007c.147-.949.951-1.638 1.911-1.638h8.507c-18.693 136.545 10.498-76.686-6.578 48.05-.583 4.26-3.212 7.98-7.032 9.953l-22.141 11.433c-4.608 2.38-9.785 3.638-14.972 3.638h-37.635c-5.187 0-10.364-1.258-14.972-3.638l-22.141-11.433c-3.819-1.972-6.448-5.693-7.031-9.953-8.73-63.771-4.653-33.988-6.578-48.05h8.506zm-18.595 36.898 1.805 13.186c1.245 9.093 6.856 17.036 15.011 21.247l22.14 11.433c4.495 2.321 9.362 3.911 14.355 4.711v14.574h-7.747c-4.142 0-7.5 3.358-7.5 7.5s3.358 7.5 7.5 7.5h7.747v20.708c-14.364-2.892-27.022-11.471-35.088-24.152l-11.6-18.238h8.289c4.142 0 7.5-3.358 7.5-7.5s-3.358-7.5-7.5-7.5h-17.829l-27.648-43.469zm-77.702 68.594h20.045c.083 22.49 5.719 44.765 16.31 64.451 1.963 3.647 6.511 5.014 10.159 3.051 3.647-1.963 5.014-6.511 3.051-10.159-8.707-16.182-13.65-34.335-14.415-52.8l32.517-12.909c.076.119 15.683 24.656 15.613 24.547 12.563 19.739 33.854 31.68 57.174 32.147 2.349.047 34.179-.009 33.753 0 23.327-.467 44.624-12.415 57.186-32.165l15.602-24.529 32.518 12.91c-2.658 65.096-56.445 117.235-122.182 117.235-33.263 0-64.368-13.122-87.586-36.948-2.892-2.967-7.641-3.028-10.606-.137-2.966 2.891-3.028 7.639-.137 10.606 26.066 26.749 60.986 41.479 98.329 41.479 75.529 0 137.007-61.314 137.285-136.779h20.045c0 89.822-72.085 158.448-157.33 158.448-85.091 0-157.331-68.49-157.331-158.448zm-13.335 25.107c8.336 59.597 47.269 109.524 100.361 133.341h-53.667v-26.372c0-4.142-3.358-7.5-7.5-7.5s-7.5 3.358-7.5 7.5v26.372h-50.297l.153-97.691c.023-14.461 7.021-27.596 18.45-35.65z"/></svg>