<?xml version="1.0" encoding="iso-8859-1"?>
<!-- Generator: Adobe Illustrator 19.0.0, SVG Export Plug-In . SVG Version: 6.00 Build 0)  -->
<svg version="1.1" id="Capa_1" xmlns="http://www.w3.org/2000/svg" xmlns:xlink="http://www.w3.org/1999/xlink" x="0px" y="0px"
	 viewBox="0 0 511.997 511.997" style="enable-background:new 0 0 511.997 511.997;" xml:space="preserve">
<path style="fill:#484655;" d="M386.298,154.496v94.794h-27.49c1.01-6.05,1.54-12.27,1.54-18.61v-36.67
	c-90.17-4.89-142.85-27.75-172.76-58.83c-0.81,31-22.46,56.81-51.46,63.92v31.58c0,6.34,0.53,12.56,1.54,18.61h-27.49v-94.794
	c0-33.814,27.412-61.226,61.226-61.226h153.669C358.886,93.27,386.298,120.682,386.298,154.496z"/>
<path style="fill:#49B6F2;" d="M195.31,363.444h105.855c41.621,0,75.362,33.741,75.362,75.362V504.5H119.949v-65.694
	C119.949,397.184,153.689,363.444,195.31,363.444z"/>
<path style="fill:#2E93CC;" d="M301.165,363.444h-22.632c41.621,0,75.362,33.741,75.362,75.362V504.5h22.632v-65.695
	C376.527,397.184,342.786,363.444,301.165,363.444z"/>
<g>
	<path style="fill:#FA9E3E;" d="M290.338,267.73v100.25c0,23.251-18.849,42.1-42.1,42.1l0,0c-23.251,0-42.1-18.849-42.1-42.1V267.73
		H290.338z"/>
	<path style="fill:#FA9E3E;" d="M118.077,220.99h49.369v56.61h-49.369c-15.632,0-28.305-12.673-28.305-28.305
		S102.444,220.99,118.077,220.99z"/>
	<path style="fill:#FA9E3E;" d="M378.399,220.99H329.03v56.61h49.369c15.632,0,28.305-12.673,28.305-28.305
		S394.031,220.99,378.399,220.99z"/>
</g>
<path style="fill:#FFB56B;" d="M360.348,194.01v36.67c0,6.34-0.53,12.56-1.54,18.61c-8.86,53.06-54.99,93.5-110.57,93.5
	s-101.71-40.44-110.57-93.5c-1.01-6.05-1.54-12.27-1.54-18.61V199.1c29-7.11,50.65-32.92,51.46-63.92
	C217.498,166.26,270.178,189.12,360.348,194.01z"/>
<path style="fill:#EF9245;" d="M337.018,242.342c0,53.568-41.934,97.338-94.766,100.284c0.061,0.003,0.122,0.007,0.183,0.01
	c0.785,0.04,1.572,0.07,2.36,0.094c0.183,0.006,0.366,0.014,0.55,0.019c0.961,0.025,1.925,0.04,2.892,0.04l0,0l0,0
	c55.58,0,101.71-40.44,110.57-93.5c1.01-6.05,1.54-12.27,1.54-18.61v-36.67c-8.078-0.438-15.843-1.026-23.329-1.746V242.342z"/>
<path style="fill:#49B6F2;" d="M271.404,7.5h-46.333c-63.455,0-114.896,51.441-114.896,114.896V156c124.486-76,216.528-76,276.125,0
	v-33.604C386.3,58.941,334.86,7.5,271.404,7.5z"/>
<path style="fill:#2E93CC;" d="M271.404,7.5h-28C306.859,7.5,358.3,58.941,358.3,122.396v5.331
	c10.015,7.828,19.351,17.245,28,28.274v-33.604C386.3,58.941,334.86,7.5,271.404,7.5z"/>
<path style="fill:#F0EEEE;" d="M421.148,110.72c-10.03-40.65-88.34-56.28-174.9-34.92c-18.67,4.61-36.2,10.56-52.11,17.47
	c-39.366,17.104-68.816,40.07-81.154,63.045c32.327-18.542,80.913-30.341,135.254-30.341c55.936,0,105.778,12.5,138.062,31.989
	v17.575C412.548,154.849,426.288,131.519,421.148,110.72z"/>
<path style="fill:#D9D4D4;" d="M421.148,110.72c-9.15-37.083-75.126-53.338-152.349-39.69
	c65.882-6.301,118.873,10.207,127.002,43.156c3.334,13.491-1.283,28.046-12.096,42.255c0.875,0.504,1.744,1.01,2.595,1.523v17.575
	C412.548,154.849,426.288,131.519,421.148,110.72z"/>
<path style="fill:#FA8500;" d="M155.071,476.01v28.49h186.333v-28.49c0-16.39-13.287-29.677-29.677-29.677H184.748
	C168.358,446.333,155.071,459.62,155.071,476.01z"/>
<path style="fill:#F0EEEE;" d="M232.383,461.175l9.01,7.771l-9.526,35.553h28.392l7.625-28.455l11.689-2.225
	c9.501-1.808,16.271-10.266,15.953-19.933l-0.984-29.995c-0.122-3.705-2.653-6.895-6.234-7.854l-3.965-1.063
	c-2.198-0.589-4.428,0.831-4.825,3.071l-4.327,24.42c-1.24,7.001-8.21,11.436-15.077,9.596l0,0
	c-6.867-1.84-10.685-9.166-8.259-15.849l8.463-23.312c0.776-2.138-0.445-4.483-2.643-5.072l-3.965-1.063
	c-3.581-0.959-7.368,0.537-9.326,3.685l-15.85,25.484C223.426,444.149,225.059,454.859,232.383,461.175z"/>
<path d="M393.798,216.967v-37.839c27.889-22.938,40.175-47.773,34.631-70.208h-0.001c-4.671-18.926-21.468-33.509-47.907-41.99
	c-9.828-19.306-24.583-35.672-42.863-47.462C317.914,6.732,295.004,0,271.408,0h-46.34c-31.325,0-61.13,11.826-83.923,33.301
	c-3.015,2.841-3.156,7.587-0.316,10.602c2.84,3.014,7.586,3.155,10.602,0.316C171.43,25.377,197.581,15,225.068,15h46.34
	c20.706,0,40.804,5.904,58.121,17.074c12.191,7.863,22.588,18.049,30.669,29.915c-33.445-5.962-74.35-3.687-115.748,6.53
	c-18.683,4.613-36.615,10.626-53.301,17.872c-31.683,13.766-57.415,31.467-73.474,50.179v-14.174
	c0-20.021,5.544-39.551,16.032-56.479c2.182-3.521,1.096-8.145-2.425-10.326s-8.144-1.096-10.326,2.426
	c-11.96,19.303-18.281,41.564-18.281,64.379V156c0,0.016,0.002,0.032,0.002,0.048v60.92c-12.252,5.857-20.41,18.433-20.41,32.321
	c0,19.746,16.064,35.811,35.81,35.811h23.624c12.326,24.138,32.288,43.224,56.936,54.441v16.398h-3.33
	c-2.1,0-4.175,0.105-6.236,0.259v-4.533c0-4.143-3.358-7.5-7.5-7.5s-7.5,3.357-7.5,7.5v7.044
	c-35.431,9.404-61.624,41.745-61.624,80.098v65.69c0,4.143,3.358,7.5,7.5,7.5h35.124h76.796h28.39h81.147h35.123
	c4.142,0,7.5-3.357,7.5-7.5v-65.69c0-27.699-13.751-53.448-36.786-68.88c-3.44-2.308-8.1-1.385-10.405,2.056
	c-2.306,3.441-1.385,8.1,2.057,10.405c18.869,12.642,30.134,33.733,30.134,56.419V497h-20.123v-20.989
	c0-16.733-11.004-31.021-26.5-35.625v-75.742c0-0.053,0.001-0.106,0-0.158v-12.818c0-4.143-3.358-7.5-7.5-7.5s-7.5,3.357-7.5,7.5
	v4.526c-2.076-0.155-4.157-0.253-6.236-0.253h-3.33v-16.399c24.65-11.219,44.61-30.304,56.936-54.441h23.624
	c19.746,0,35.81-16.064,35.81-35.811C414.208,235.398,406.046,222.82,393.798,216.967z M360.754,186.52
	c-73.794-4.001-127.762-20.74-160.669-49.776c15.448-2.146,31.634-3.271,48.153-3.271c50.814,0,98.072,10.458,130.56,28.794v51.237
	c-0.134-0.001-0.266-0.014-0.4-0.014h-10.55v-19.48C367.848,190.025,364.732,186.736,360.754,186.52z M197.125,100.148
	c15.917-6.912,33.049-12.654,50.919-17.067c40.818-10.073,80.907-12.105,112.884-5.72c29.587,5.906,48.883,18.72,52.938,35.155
	c0.001,0.001,0.001,0.001,0.001,0.001c3.414,13.814-3.825,30.266-20.066,46.43v-0.984c0-0.053-0.009-0.104-0.01-0.156
	c-0.005-0.242-0.019-0.481-0.047-0.716c-0.012-0.102-0.03-0.201-0.046-0.302c-0.032-0.2-0.07-0.397-0.117-0.591
	c-0.022-0.092-0.045-0.183-0.07-0.274c-0.064-0.228-0.139-0.451-0.224-0.669c-0.019-0.05-0.035-0.101-0.055-0.15
	c-0.112-0.271-0.239-0.533-0.381-0.788c-0.029-0.051-0.061-0.1-0.091-0.15c-0.118-0.2-0.244-0.394-0.379-0.581
	c-0.05-0.07-0.102-0.139-0.155-0.207c-0.139-0.18-0.287-0.353-0.442-0.52c-0.044-0.047-0.085-0.097-0.13-0.143
	c-0.205-0.209-0.421-0.406-0.649-0.59c-0.037-0.03-0.077-0.056-0.114-0.085c-0.202-0.158-0.413-0.303-0.631-0.44
	c-0.029-0.018-0.054-0.04-0.084-0.058c-34.813-21.016-86.547-33.068-141.938-33.068c-39.902,0-78.168,6.327-109.446,17.774
	C153.25,123.002,173.306,110.498,197.125,100.148z M179.716,140.25c-1.907,16.643-10.682,31.493-23.676,41.268
	c-6.334,4.765-13.666,8.329-21.698,10.298c-3.355,0.822-5.714,3.83-5.714,7.284v0.001v14.39h-10.55c-0.134,0-0.266,0.013-0.4,0.014
	v-51.221C134.783,152.643,156.036,145.165,179.716,140.25z M118.078,270.101c-11.475,0-20.81-9.336-20.81-20.811
	c0-9.208,6.165-17.422,15.006-19.979c1.873-0.545,3.826-0.821,5.804-0.821h10.55v2.189c0,6.643,0.553,13.319,1.643,19.846
	c0.253,1.514,0.543,3.02,0.854,4.521c0.096,0.462,0.201,0.921,0.302,1.381c0.234,1.065,0.48,2.126,0.743,3.183
	c0.124,0.499,0.249,0.996,0.379,1.493c0.291,1.11,0.601,2.216,0.924,3.317c0.112,0.382,0.217,0.766,0.333,1.147
	c0.445,1.462,0.916,2.916,1.417,4.36c0.02,0.057,0.036,0.115,0.056,0.172h-17.201V270.101z M217.507,346.301
	c0.289,0.077,0.579,0.15,0.868,0.224c1.089,0.281,2.182,0.547,3.278,0.796c0.198,0.045,0.395,0.094,0.593,0.138
	c1.244,0.276,2.493,0.528,3.745,0.764c0.299,0.056,0.598,0.109,0.897,0.163c1.147,0.207,2.296,0.399,3.45,0.572
	c0.15,0.023,0.3,0.049,0.45,0.071c1.27,0.185,2.544,0.345,3.822,0.49c0.309,0.035,0.618,0.067,0.927,0.1
	c1.217,0.128,2.438,0.242,3.662,0.333c0.086,0.007,0.172,0.015,0.259,0.022c1.294,0.093,2.592,0.16,3.893,0.212
	c0.316,0.013,0.632,0.024,0.949,0.034c1.31,0.042,2.622,0.071,3.938,0.071c1.316,0,2.628-0.029,3.938-0.071
	c0.317-0.01,0.633-0.021,0.949-0.034c1.301-0.052,2.599-0.118,3.893-0.212c0.086-0.006,0.172-0.015,0.259-0.022
	c1.224-0.091,2.445-0.205,3.662-0.333c0.309-0.033,0.617-0.065,0.925-0.1c1.279-0.145,2.555-0.305,3.826-0.491
	c0.146-0.021,0.292-0.047,0.438-0.069c1.159-0.174,2.313-0.367,3.464-0.574c0.296-0.053,0.591-0.106,0.886-0.161
	c1.256-0.236,2.509-0.489,3.756-0.766c0.191-0.043,0.38-0.089,0.571-0.133c1.106-0.251,2.208-0.52,3.307-0.803
	c0.283-0.073,0.566-0.144,0.848-0.219c1.229-0.326,2.453-0.67,3.671-1.037c0.068-0.02,0.138-0.038,0.206-0.058v22.771
	c0,14.741-9.371,27.81-23.086,32.642c-0.046-0.013-0.092-0.026-0.139-0.039l-3.958-1.057c-0.522-0.14-1.048-0.243-1.575-0.328
	c-0.135-0.022-0.27-0.042-0.406-0.06c-0.517-0.07-1.034-0.123-1.55-0.141c-0.012-0.001-0.024-0.002-0.035-0.002
	c-0.524-0.017-1.047,0.001-1.567,0.035c-0.134,0.009-0.268,0.02-0.402,0.032c-0.513,0.047-1.023,0.109-1.527,0.205
	c-0.009,0.001-0.017,0.002-0.026,0.004c-0.513,0.098-1.017,0.23-1.517,0.377c-0.125,0.037-0.249,0.075-0.374,0.115
	c-0.489,0.157-0.973,0.329-1.445,0.532c-0.008,0.003-0.016,0.006-0.024,0.009c-0.478,0.207-0.942,0.444-1.398,0.697
	c-0.115,0.063-0.228,0.128-0.342,0.195c-0.439,0.257-0.871,0.529-1.285,0.829c-0.01,0.007-0.021,0.013-0.031,0.02
	c-6.929-1.238-13.363-4.581-18.381-9.6c-6.535-6.534-10.133-15.223-10.133-24.466v-22.771c0.07,0.021,0.141,0.039,0.211,0.06
	C215.063,345.633,216.283,345.976,217.507,346.301z M127.448,438.81c0-30.006,19.578-55.509,46.624-64.447v66.04
	c-15.311,4.6-26.5,18.819-26.5,35.608V497h-20.124V438.81z M162.571,476.011c0-8.36,4.651-15.652,11.5-19.431v5.087
	c0,4.143,3.358,7.5,7.5,7.5s7.5-3.357,7.5-7.5v-7.834h6.499c4.142,0,7.5-3.357,7.5-7.5s-3.358-7.5-7.5-7.5h-6.499v-67.594
	c2.055-0.189,4.133-0.298,6.236-0.298h3.426c0.71,12.135,5.765,23.447,14.431,32.112c5.51,5.511,12.217,9.601,19.519,12.017
	l-10.513,16.907c-7.111,11.425-4.873,26.096,5.32,34.883l5.445,4.696L226.113,497h-63.542L162.571,476.011L162.571,476.011z
	 M241.643,497l6.999-26.107c0.746-2.78-0.166-5.742-2.346-7.622l-9.011-7.772c-4.558-3.93-5.559-10.488-2.378-15.599l15.834-25.465
	c0.027-0.036,0.053-0.071,0.079-0.107c0.205-0.286,0.583-0.413,0.952-0.313l0.148,0.04l-7.107,19.583
	c-0.786,2.154-1.185,4.412-1.185,6.712c0,8.869,5.984,16.664,14.548,18.954c5.296,1.419,10.987,0.546,15.614-2.399
	c4.625-2.943,7.827-7.729,8.783-13.126l3.641-20.536l0.151,0.041c0.385,0.103,0.664,0.452,0.676,0.852l0.99,30v0.001
	c0.199,6.01-3.947,11.189-9.853,12.314l-11.69,2.22c-2.829,0.537-5.1,2.646-5.845,5.426L254.503,497H241.643z M307.404,371.225
	v75.246v0.007v15.189c0,4.143,3.358,7.5,7.5,7.5s7.5-3.357,7.5-7.5v-5.101c6.904,3.782,11.5,11.097,11.5,19.444V497h-63.871
	l3.879-14.47l7.069-1.343c13.217-2.519,22.487-14.103,22.042-27.545l-0.99-29.995c-0.228-7.055-4.963-13.022-11.788-14.853
	l-3.953-1.058c-3.068-0.823-6.369-0.32-9.053,1.384c-2.685,1.704-4.546,4.478-5.107,7.619l-4.33,24.421
	c-0.309,1.74-1.428,2.683-2.067,3.09c-0.641,0.407-1.973,1.021-3.681,0.564c-2.018-0.54-3.427-2.376-3.427-4.465
	c0-0.54,0.093-1.068,0.28-1.582l8.46-23.31c0.231-0.636,0.396-1.281,0.511-1.929c17.047-7.355,28.74-23.823,29.86-42.59h3.429
	C303.248,370.94,305.332,371.036,307.404,371.225z M287.516,327.661c-12.465,5.063-25.68,7.629-39.278,7.629
	c-1.7,0-3.394-0.04-5.081-0.12c-0.914-0.043-1.826-0.101-2.735-0.167c-10.848-0.797-21.401-3.255-31.467-7.343
	c-24.759-10.033-44.561-28.927-55.756-53.199c-3.874-8.402-6.611-17.286-8.133-26.405c-0.954-5.713-1.438-11.559-1.438-17.375
	v-9.689v-16.249c18.679-6.189,33.852-19.413,42.768-36.258c2.972-5.615,5.249-11.632,6.729-17.926
	c15.079,12.591,33.746,22.958,55.69,30.91c28.51,10.331,63.48,16.918,104.033,19.604v19.918v9.689
	c0,5.816-0.484,11.662-1.438,17.375c-0.19,1.14-0.4,2.276-0.628,3.408c-1.597,7.924-4.115,15.645-7.506,22.997l0,0
	C332.081,298.733,312.28,317.626,287.516,327.661z M378.398,270.101h-17.202c0.02-0.057,0.036-0.114,0.056-0.171
	c0.501-1.445,0.973-2.899,1.418-4.362c0.116-0.38,0.22-0.764,0.332-1.146c0.323-1.102,0.633-2.207,0.925-3.317
	c0.13-0.497,0.256-0.995,0.38-1.494c0.263-1.057,0.509-2.118,0.743-3.182c0.101-0.46,0.207-0.92,0.302-1.381
	c0.311-1.502,0.601-3.008,0.854-4.521c1.09-6.526,1.643-13.203,1.643-19.846v-2.189h10.55c1.979,0,3.931,0.276,5.816,0.825
	c8.828,2.553,14.994,10.767,14.994,19.975C399.208,260.765,389.873,270.101,378.398,270.101z"/>
<path d="M280.174,260.31c-3.406-2.358-8.078-1.508-10.436,1.896c-4.89,7.063-12.927,11.278-21.501,11.278
	c-8.574,0-16.611-4.216-21.5-11.278c-2.357-3.405-7.029-4.255-10.436-1.896c-3.405,2.357-4.254,7.03-1.896,10.435
	c7.69,11.107,20.338,17.739,33.832,17.739c13.494,0,26.142-6.632,33.833-17.739C284.428,267.34,283.579,262.667,280.174,260.31z"/>
<path d="M302.561,215.962c-4.142,0-7.5,3.357-7.5,7.5v2c0,4.143,3.358,7.5,7.5,7.5s7.5-3.357,7.5-7.5v-2
	C310.061,219.319,306.704,215.962,302.561,215.962z"/>
<path d="M193.914,215.962c-4.142,0-7.5,3.357-7.5,7.5v2c0,4.143,3.358,7.5,7.5,7.5s7.5-3.357,7.5-7.5v-2
	C201.414,219.319,198.056,215.962,193.914,215.962z"/>
<g>
</g>
<g>
</g>
<g>
</g>
<g>
</g>
<g>
</g>
<g>
</g>
<g>
</g>
<g>
</g>
<g>
</g>
<g>
</g>
<g>
</g>
<g>
</g>
<g>
</g>
<g>
</g>
<g>
</g>
</svg>
