<?xml version="1.0" encoding="iso-8859-1"?>
<!-- Generator: Adobe Illustrator 19.0.0, SVG Export Plug-In . SVG Version: 6.00 Build 0)  -->
<svg version="1.1" id="Capa_1" xmlns="http://www.w3.org/2000/svg" xmlns:xlink="http://www.w3.org/1999/xlink" x="0px" y="0px"
	 viewBox="0 0 511.998 511.998" style="enable-background:new 0 0 511.998 511.998;" xml:space="preserve">
<path style="fill:#484655;" d="M193.029,363.436h105.861c41.624,0,75.367,33.743,75.367,75.367v65.698H117.662v-65.699
	C117.662,397.178,151.405,363.436,193.029,363.436z"/>
<g>
	<path style="fill:#35343F;" d="M298.891,363.436h-22.634c41.624,0,75.367,33.743,75.367,75.367v65.699h22.634v-65.701
		C374.258,397.178,340.515,363.436,298.891,363.436z"/>
	<polygon style="fill:#35343F;" points="288.063,267.716 288.063,363.072 264.531,393.494 227.389,393.494 203.857,363.072 
		203.857,267.716 	"/>
</g>
<path style="fill:#484655;" d="M378.429,191.051L378.429,191.051c-3.124-3.1-4.881-7.319-4.881-11.721v-10.106
	c0-70.465-57.123-127.588-127.588-127.588l0,0c-70.465,0-127.588,57.123-127.588,127.588v10.106c0,4.401-1.757,8.621-4.881,11.721
	l0,0c-3.746,3.717-5.489,9.003-4.691,14.219l6.058,39.59c2.181,14.254,9.906,27.07,21.49,35.655l0,0
	c22.271,37.289,63.021,62.264,109.61,62.264l0,0c46.59,0,87.34-24.976,109.611-62.264l0,0c11.585-8.587,19.309-21.401,21.49-35.656
	l6.058-39.59C383.918,200.053,382.175,194.769,378.429,191.051z"/>
<path style="fill:#FFB56B;" d="M212.386,146.63c-37.966,0-68.743,30.777-68.743,68.743v11.54
	c0,63.984,45.806,115.867,102.318,115.867s102.317-51.883,102.317-115.867v-11.54c0-37.966-30.777-68.743-68.743-68.743
	L212.386,146.63L212.386,146.63z"/>
<path style="fill:#5CDBF1;" d="M336.96,14.942c-60.667-9.966-121.334-9.966-182.001,0c-22.359,3.673-38.567,20.137-38.567,39.393
	v5.489c0,35.188,30.47,65.191,71.666,70.231c0.401,0.049,0.801,0.097,1.202,0.145c12.59,1.508,25.083-3.267,32.231-12.157
	l0.383-0.476c4.033-5.015,10.743-8.018,17.916-8.018h12.338c7.174,0,13.883,3.002,17.916,8.018l0.383,0.476
	c7.148,8.89,19.641,13.666,32.231,12.157c0.401-0.048,0.801-0.096,1.202-0.145c41.196-5.04,71.666-35.043,71.666-70.231v-5.489
	C375.528,35.08,359.32,18.616,336.96,14.942z"/>
<circle style="fill:#484655;" cx="245.957" cy="279.481" r="41.003"/>
<circle style="fill:#49B6F2;" cx="245.957" cy="279.481" r="17.001"/>
<path d="M302.104,229.022c4.142,0,7.501-3.357,7.501-7.501v-2.066c0-4.143-3.358-7.501-7.501-7.501s-7.501,3.357-7.501,7.501v2.066
	C294.603,225.664,297.961,229.022,302.104,229.022z"/>
<path d="M189.816,211.955c-4.142,0-7.501,3.357-7.501,7.501v2.066c0,4.143,3.358,7.501,7.501,7.501c4.142,0,7.501-3.357,7.501-7.501
	v-2.066C197.317,215.312,193.958,211.955,189.816,211.955z"/>
<path d="M406.03,298.764c-6.519-13.394-18.541-22.674-32.651-25.704c5.754-7.936,9.585-17.172,11.094-27.062l6.06-39.591
	c1.159-7.564-1.391-15.295-6.816-20.677c-0.85-0.845-1.515-1.833-1.97-2.926c-0.463-1.114-0.697-2.284-0.697-3.476v-10.101
	c0-22.03-5.388-43.709-15.604-63.057c11.386-13.4,17.583-29.612,17.583-46.348v-5.488c0-22.846-18.863-42.525-44.852-46.794
	c-61.191-10.052-123.241-10.052-184.433,0c-25.989,4.269-44.852,23.949-44.852,46.794v5.488c0,19.064,8.038,37.452,22.632,51.774
	c14.336,14.068,34.089,23.268,55.693,25.911l1.152,0.14c15.183,1.814,30.113-3.893,38.971-14.907l0.38-0.474
	c2.589-3.219,7.215-5.218,12.072-5.218h12.338c4.857,0,9.483,1.999,12.069,5.215l0.386,0.479
	c7.767,9.658,20.206,15.237,33.387,15.237c1.847,0,3.711-0.109,5.577-0.333l1.224-0.148c18.569-2.272,35.805-9.435,49.394-20.381
	c7.787,16.174,11.882,34.006,11.882,52.111v10.101c0,3.175,0.62,6.279,1.848,9.238c1.224,2.935,2.988,5.56,5.25,7.81
	c2.037,2.021,2.993,4.921,2.558,7.761l-6.061,39.596c-1.679,11.001-7.136,20.94-15.449,28.254h-5.977
	c5.013-14.314,7.56-29.435,7.56-45.073V215.37c0-42.041-34.203-76.244-76.245-76.244h-67.145c-42.042,0-76.245,34.203-76.245,76.244
	v11.541c0,22.035,5.28,43.192,14.724,61.592c-2.917-3.777-5.623-7.724-8.079-11.835c-0.507-0.85-1.178-1.591-1.973-2.18
	c-10.062-7.459-16.647-18.384-18.542-30.765l-6.059-39.59c-0.434-2.837,0.523-5.738,2.561-7.761
	c4.51-4.478,7.097-10.69,7.097-17.045v-10.106c0-11.078,1.506-22.048,4.476-32.604c1.122-3.987-1.201-8.13-5.188-9.252
	c-3.988-1.122-8.13,1.2-9.252,5.188c-3.342,11.879-5.037,24.216-5.037,36.667v10.106c0,2.385-0.971,4.717-2.663,6.396
	c-5.429,5.387-7.98,13.117-6.822,20.678l6.059,39.59c2.42,15.816,10.647,29.828,23.227,39.626
	c11.733,19.164,28.164,35.221,47.6,46.498c5.81,3.371,11.862,6.274,18.086,8.729v15.084h-3.33c-5.943,0-11.847,0.63-17.522,1.866
	c-9.601,2.058-18.697,5.799-27.04,11.126c-23.985,15.329-38.304,41.454-38.304,69.885v65.693c0,4.143,3.358,7.501,7.501,7.501
	h256.598c4.142,0,7.501-3.357,7.501-7.501v-65.693c0-17.142-5.212-33.442-14.605-47.047l33.535-42.777
	C412.023,334.525,414.07,315.283,406.03,298.764z M302.889,122.618l-1.122,0.136c-9.932,1.187-19.94-2.505-25.492-9.408
	l-0.386-0.479c-5.448-6.773-14.331-10.818-23.761-10.818H239.79c-9.431,0-18.313,4.044-23.764,10.821l-0.38,0.474
	c-5.553,6.905-15.563,10.604-25.497,9.41l-1.181-0.143c-37.1-4.539-65.076-31.531-65.076-62.786v-5.488
	c0-15.465,13.577-28.919,32.282-31.992c59.576-9.786,119.992-9.786,179.569,0c18.706,3.073,32.282,16.527,32.282,31.992v5.488
	C368.027,91.078,340.05,118.071,302.889,122.618z M242.797,350.229c1.052,0.033,2.106,0.052,3.163,0.052
	c1.323,0,2.641-0.036,3.956-0.087c0.329-0.013,0.658-0.028,0.986-0.044c1.313-0.064,2.623-0.145,3.927-0.261h0.001
	c1.305-0.116,2.603-0.268,3.899-0.435c0.322-0.042,0.644-0.085,0.965-0.13c2.588-0.361,5.157-0.824,7.706-1.39
	c0.316-0.07,0.631-0.142,0.946-0.215c1.272-0.296,2.54-0.607,3.801-0.954l0.001-0.001c1.258-0.346,2.509-0.727,3.756-1.124
	c0.313-0.1,0.626-0.201,0.938-0.304c1.24-0.408,2.477-0.832,3.706-1.292c0.004-0.001,0.009-0.003,0.013-0.004v16.466l-19.712,25.487
	h-29.78l-19.712-25.487v-14.728C221.583,348.481,232.138,349.98,242.797,350.229z M125.162,438.807
	c0-23.286,11.731-44.686,31.377-57.243c6.825-4.357,14.263-7.419,22.134-9.105c4.653-1.014,9.482-1.528,14.353-1.528h7.428
	l21.001,27.151c1.42,1.836,3.611,2.911,5.933,2.911h11.071V497H125.162C125.162,497,125.162,438.807,125.162,438.807z
	 M366.758,497.001H253.46v-96.007h11.071c2.322,0,4.512-1.075,5.933-2.911l20.999-27.151h7.431c4.871,0,9.701,0.515,14.379,1.534
	c7.845,1.68,15.282,4.741,22.105,9.097c6.196,3.96,11.603,8.802,16.105,14.302c0.203,0.301,0.434,0.586,0.684,0.858
	c9.344,11.803,14.591,26.52,14.591,42.085L366.758,497.001L366.758,497.001z M388.885,339.728l-31.575,40.277
	c-4.16-4.121-8.79-7.847-13.857-11.085c-8.34-5.324-17.436-9.066-27.011-11.118c-5.701-1.242-11.605-1.872-17.548-1.872h-3.33
	v-18.928c11.463-6.517,21.73-15.163,30.563-25.762c2.652-3.183,2.222-7.912-0.96-10.565c-3.181-2.65-7.912-2.221-10.564,0.96
	c-8.569,10.283-18.648,18.434-29.96,24.229c-12.192,6.247-25.207,9.416-38.683,9.416c-0.894,0-1.786-0.024-2.679-0.044
	c-0.785-0.025-1.57-0.058-2.352-0.104c-0.922-0.054-1.84-0.127-2.757-0.212c-9.876-0.911-19.459-3.561-28.601-7.922
	c-0.291-0.139-0.579-0.288-0.869-0.43c-0.476-0.234-0.954-0.463-1.427-0.706c-34.098-17.447-56.13-56.288-56.13-98.95v-11.541
	c0-33.77,27.474-61.243,61.244-61.243h67.145c33.77,0,61.244,27.474,61.244,61.243v11.541c0,15.762-2.887,30.912-8.575,45.073
	h-62.919c-3.176-9.853-12.428-17.001-23.323-17.001c-13.51,0-24.502,10.991-24.502,24.502s10.992,24.502,24.502,24.502
	c10.895,0,20.147-7.148,23.323-17.001h9.323c-3.416,14.872-16.751,26.002-32.645,26.002c-18.473,0-33.502-15.029-33.502-33.502
	s15.029-33.502,33.502-33.502c9.419,0,18.139,3.803,24.554,10.71c2.818,3.034,7.565,3.21,10.6,0.391
	c3.035-2.818,3.21-7.565,0.391-10.601c-9.15-9.852-22.106-15.501-35.544-15.501c-26.745,0-48.503,21.758-48.503,48.503
	s21.758,48.503,48.503,48.503c24.195,0,44.305-17.807,47.921-41.003h69.333c12.774,0,23.738,6.856,29.328,18.343
	C398.132,316.815,396.765,329.675,388.885,339.728z M255.461,279.486c0,5.238-4.262,9.501-9.501,9.501
	c-5.238,0-9.501-4.262-9.501-9.501s4.262-9.501,9.501-9.501C251.198,269.986,255.461,274.248,255.461,279.486z"/>
<g>
</g>
<g>
</g>
<g>
</g>
<g>
</g>
<g>
</g>
<g>
</g>
<g>
</g>
<g>
</g>
<g>
</g>
<g>
</g>
<g>
</g>
<g>
</g>
<g>
</g>
<g>
</g>
<g>
</g>
</svg>
