<?xml version="1.0" encoding="iso-8859-1"?>
<!-- Generator: Adobe Illustrator 19.0.0, SVG Export Plug-In . SVG Version: 6.00 Build 0)  -->
<svg version="1.1" id="Capa_1" xmlns="http://www.w3.org/2000/svg" xmlns:xlink="http://www.w3.org/1999/xlink" x="0px" y="0px"
	 viewBox="0 0 511.998 511.998" style="enable-background:new 0 0 511.998 511.998;" xml:space="preserve">
<path style="fill:#FFB98A;" d="M369.085,176.211H357.22v72.992h11.865c13.06,0,23.645-10.587,23.645-23.645v-25.701
	C392.73,186.798,382.145,176.211,369.085,176.211z"/>
<path style="fill:#F7931E;" d="M453.454,198.386c-5.688-42.838-28.796-68.654-44.442-81.563l29.433,1.267
	c0.063,0.003,0.125,0.004,0.186,0.004c1.768,0,3.392-1.083,4.174-2.804c0.81-1.78,0.565-3.907-0.624-5.422
	c-21.147-26.951-46.134-39.323-65.029-44.993c4.817-2.399,9.29-5.805,12.891-10.585c6.047-8.025,6.7-15.983,6.755-16.864
	c0.126-2.057-0.616-4.26-2.352-5.134c-0.728-0.366-1.455-0.563-2.16-0.563c-0.91,0-1.777,0.331-2.547,1.052
	c-0.613,0.209-2.564,0.731-6.701,0.731c-9.479,0.001-28.57-2.634-65.695-15.188c-11.42-3.862-22.685-5.821-33.479-5.821
	c-7.015,0-13.935,0.827-20.597,2.461C252.236,10.01,240.432,7.5,228.15,7.5c-10.797,0-22.065,1.959-33.49,5.823
	c-37.122,12.553-56.215,15.188-65.696,15.188c-4.133,0-6.084-0.521-6.7-0.73c-0.768-0.723-1.636-1.054-2.548-1.054
	c-0.702,0-1.431,0.196-2.159,0.563c-1.737,0.873-2.48,3.078-2.353,5.138c0.054,0.881,0.71,8.839,6.757,16.863
	c3.601,4.777,8.073,8.184,12.892,10.582c-18.895,5.67-43.883,18.041-65.033,44.995c-1.188,1.515-1.434,3.642-0.624,5.422
	c0.783,1.721,2.405,2.804,4.174,2.804c0.062,0,0.124-0.001,0.186-0.004l29.434-1.267c-15.647,12.909-38.755,38.726-44.443,81.563
	c-0.227,1.705,0.378,3.415,1.601,4.526c0.85,0.773,1.916,1.181,3,1.181c0.474,0,0.951-0.078,1.416-0.238l16.648-5.732
	c-0.47,16.428,2.372,55.644,35.421,89.587c28.138,28.898,29.681,39.003,29.69,40.819c-1.133,1.2-1.644,2.978-1.263,4.713
	c0.496,2.257,2.368,3.851,4.523,3.851h0.002c0.815,0,7.443-0.228,16.143-6.889c-5.536-19.076-10.947-39.898-10.947-48.424v-27.577
	h-11.864c-13.06,0-23.646-10.587-23.646-23.645v-25.701c0-13.059,10.586-23.645,23.646-23.645h11.864V153.84
	c0-1.589,0.94-3.026,2.395-3.664c0.516-0.226,1.063-0.336,1.605-0.336c0.986,0,1.959,0.364,2.712,1.06
	c10.74,9.903,23.129,16.618,36.824,19.958c0.392,0.095,0.791,0.144,1.187,0.144c2.087,0,3.973-1.317,4.691-3.279l6.647-18.126
	c0.438-1.193,1.415-2.107,2.635-2.463c0.368-0.107,0.745-0.16,1.12-0.16c0.867,0,1.721,0.281,2.426,0.819
	c13.775,10.508,34.617,23.746,55.682,27.144c0.262,0.042,0.533,0.064,0.796,0.064c1.116,0,2.215-0.381,3.093-1.071
	c1.095-0.862,1.785-2.155,1.893-3.546l1.596-20.744c0.111-1.442,0.992-2.712,2.304-3.321c0.537-0.249,1.112-0.372,1.684-0.372
	c0.826,0,1.647,0.256,2.34,0.756c12.361,8.913,34.053,20.212,67.195,23.422c2.05,0.198,3.614,1.922,3.614,3.982v2.106h11.865
	c13.06,0,23.645,10.587,23.645,23.645v25.701c0,13.059-10.585,23.645-23.645,23.645H357.22v27.577
	c0,9.127-6.203,32.354-12.122,52.44c9.386,7.681,16.679,7.872,17.32,7.872c2.156,0,4.028-1.595,4.523-3.852
	c0.381-1.738-0.132-3.52-1.268-4.719c-0.031-1.914,1.481-11.836,29.695-40.813c33.05-33.943,35.893-73.159,35.422-89.587
	l16.647,5.732c0.464,0.16,0.942,0.238,1.417,0.238c1.082,0,2.148-0.407,2.998-1.181
	C453.075,201.801,453.681,200.091,453.454,198.386z"/>
<g>
	<path style="fill:#FFB98A;" d="M154.781,176.211h-11.864c-13.06,0-23.646,10.587-23.646,23.645v25.701
		c0,13.059,10.586,23.645,23.646,23.645h11.864V176.211z"/>
	<path style="fill:#FFB98A;" d="M85.6,389.289v45.037c0,6.99,2.135,13.711,6.175,19.439c-3.924,3.451-6.175,8.39-6.175,13.549
		v31.948c0,2.893,2.373,5.237,5.298,5.237h28.344V355.27C100.62,355.692,85.6,370.785,85.6,389.289z"/>
	<path style="fill:#FFB98A;" d="M426.402,389.289c0-18.769-15.449-34.039-34.44-34.039h-54.849
		c-1.577,4.959-2.577,8.002-2.577,8.002c-1.086,3.963-4.338,4.813-7.227,1.892l-5.738-5.804l-16.836,29.162
		c-2.053,3.558-5.416,3.558-7.469,0l-9.082-15.73c-4.099,1.374-28.448,30.73-28.448,30.73c-0.382,0.662-0.81,1.199-1.265,1.615
		l121.53,99.383h41.104c2.926,0,5.298-2.345,5.298-5.237v-31.948c0-5.159-2.25-10.098-6.175-13.549
		c4.04-5.728,6.175-12.449,6.175-19.439v-45.038H426.402z"/>
</g>
<path style="fill:#775436;" d="M258.472,405.117c0,0,0,0-0.001,0c-1.994,1.819-4.532,1.281-6.205-1.615
	c0,0-24.349-29.355-28.449-30.73l-9.081,15.73c-2.054,3.558-5.416,3.558-7.47,0L190.43,359.34l-5.738,5.804
	c-2.889,2.922-6.141,2.071-7.227-1.892c0,0-1-3.043-2.577-8.002h-55.646V504.5h260.759L258.472,405.117z"/>
<g style="opacity:0.15;">
	<rect x="119.241" y="355.25" style="fill:#3D0072;" width="29" height="149.25"/>
</g>
<path style="fill:#FFC7A9;" d="M353.606,170.123c-33.143-3.21-54.834-14.509-67.195-23.422c-0.693-0.5-1.514-0.756-2.34-0.756
	c-0.572,0-1.147,0.123-1.684,0.372c-1.312,0.609-2.192,1.879-2.304,3.321l-1.596,20.744c-0.107,1.391-0.798,2.684-1.893,3.546
	c-0.878,0.69-1.977,1.071-3.093,1.071c-0.263,0-0.534-0.021-0.796-0.064c-21.065-3.398-41.907-16.637-55.682-27.144
	c-0.705-0.538-1.56-0.819-2.426-0.819c-0.374,0-0.751,0.053-1.12,0.16c-1.22,0.355-2.198,1.27-2.635,2.463l-6.647,18.126
	c-0.719,1.962-2.604,3.279-4.691,3.279c-0.396,0-0.795-0.049-1.187-0.144c-13.694-3.34-26.083-10.055-36.824-19.958
	c-0.753-0.695-1.726-1.06-2.712-1.06c-0.542,0-1.088,0.11-1.605,0.336c-1.455,0.638-2.395,2.075-2.395,3.664v66.941
	c0,33.219,16.003,62.7,40.72,81.155V270c0-12.702,10.297-23,23-23h23.724c1.724,3.027,4.977,5.085,8.692,5.085h14.168
	c4.129,0,7.693-2.105,9.214-5.085h19.202c12.702,0,23,10.298,23,23v31.935c24.716-18.455,40.719-47.936,40.719-81.155v-46.676
	C357.22,172.045,355.655,170.321,353.606,170.123z"/>
<g>
	<path id="SVGCleanerId_0" style="fill:#F7931E;" d="M316.501,301.935V270c0-12.702-10.298-23-23-23h-19.202
		c-1.521,2.98-5.085,5.085-9.214,5.085h-14.168c-3.715,0-6.968-2.058-8.692-5.085h-23.724c-12.703,0-23,10.298-23,23v31.935
		c-24.717-18.455-40.72-47.936-40.72-81.155v56c0,17.455,22.684,86.472,22.684,86.472c1.086,3.963,4.338,4.813,7.227,1.892
		l5.738-5.804l16.836,29.162c2.054,3.558,5.416,3.558,7.47,0l9.081-15.73c4.1,1.374,28.449,30.73,28.449,30.73
		c2.054,3.558,5.416,3.558,7.47,0c0,0,24.35-29.355,28.448-30.73l9.082,15.73c2.053,3.558,5.416,3.558,7.469,0l16.836-29.162
		l5.738,5.804c2.889,2.922,6.141,2.071,7.227-1.892c0,0,22.684-69.02,22.684-86.472v-56
		C357.22,253.999,341.217,283.48,316.501,301.935z"/>
</g>
<path style="opacity:0.15;fill:#490089;enable-background:new    ;" d="M195.501,301.935v-26.694
	c-10.084-15.733-15.939-34.425-15.939-54.461v-57.041c-6.436-3.401-12.478-7.685-18.07-12.84c-0.753-0.695-1.726-1.06-2.712-1.06
	c-0.542,0-1.088,0.11-1.605,0.336c-1.455,0.638-2.395,2.075-2.395,3.664v66.941C154.781,253.999,170.784,283.48,195.501,301.935z"/>
<g>
	<path id="SVGCleanerId_0_1_" style="fill:#F7931E;" d="M316.501,301.935V270c0-12.702-10.298-23-23-23h-19.202
		c-1.521,2.98-5.085,5.085-9.214,5.085h-14.168c-3.715,0-6.968-2.058-8.692-5.085h-23.724c-12.703,0-23,10.298-23,23v31.935
		c-24.717-18.455-40.72-47.936-40.72-81.155v56c0,17.455,22.684,86.472,22.684,86.472c1.086,3.963,4.338,4.813,7.227,1.892
		l5.738-5.804l16.836,29.162c2.054,3.558,5.416,3.558,7.47,0l9.081-15.73c4.1,1.374,28.449,30.73,28.449,30.73
		c2.054,3.558,5.416,3.558,7.47,0c0,0,24.35-29.355,28.448-30.73l9.082,15.73c2.053,3.558,5.416,3.558,7.469,0l16.836-29.162
		l5.738,5.804c2.889,2.922,6.141,2.071,7.227-1.892c0,0,22.684-69.02,22.684-86.472v-56
		C357.22,253.999,341.217,283.48,316.501,301.935z"/>
</g>
<g>
	<path id="SVGCleanerId_0_2_" style="fill:#F7931E;" d="M316.501,301.935V270c0-12.702-10.298-23-23-23h-19.202
		c-1.521,2.98-5.085,5.085-9.214,5.085h-14.168c-3.715,0-6.968-2.058-8.692-5.085h-23.724c-12.703,0-23,10.298-23,23v31.935
		c-24.717-18.455-40.72-47.936-40.72-81.155v56c0,17.455,22.684,86.472,22.684,86.472c1.086,3.963,4.338,4.813,7.227,1.892
		l5.738-5.804l16.836,29.162c2.054,3.558,5.416,3.558,7.47,0l9.081-15.73c4.1,1.374,28.449,30.73,28.449,30.73
		c2.054,3.558,5.416,3.558,7.47,0c0,0,24.35-29.355,28.448-30.73l9.082,15.73c2.053,3.558,5.416,3.558,7.469,0l16.836-29.162
		l5.738,5.804c2.889,2.922,6.141,2.071,7.227-1.892c0,0,22.684-69.02,22.684-86.472v-56
		C357.22,253.999,341.217,283.48,316.501,301.935z"/>
</g>
<g style="opacity:0.15;">
	<path style="fill:#3D0072;" d="M186.732,294.582c-19.666-18.465-31.95-44.698-31.95-73.802v56
		c0,17.455,22.684,86.472,22.684,86.472c1.086,3.963,4.338,4.813,7.227,1.892l5.738-5.804l16.836,29.162
		c1.693,2.933,4.273,3.442,6.279,1.54C204.855,361.215,192.484,319.119,186.732,294.582z"/>
</g>
<g>
	<ellipse style="fill:#046699;" cx="307.741" cy="205.53" rx="13.477" ry="13.529"/>
	<ellipse style="fill:#046699;" cx="204.26" cy="205.53" rx="13.477" ry="13.529"/>
</g>
<path style="fill:#FB8276;" d="M220.326,313.536c-1.896,0-3.431-1.536-3.431-3.431v-24.697c0-7.945,6.463-14.408,14.407-14.408
	h49.397c7.944,0,14.407,6.463,14.407,14.408v24.697c0,1.895-1.535,3.431-3.43,3.431H220.326z"/>
<path style="fill:#FFFFFF;" d="M280.699,271h-49.397c-7.944,0-14.407,6.463-14.407,14.408v8.919h78.211v-8.919
	C295.107,277.463,288.644,271,280.699,271z"/>
<path d="M460.889,197.398c-4.428-33.35-19.095-56.994-32.546-72.237l9.75,0.42c0.181,0.008,0.36,0.012,0.538,0.012
	c4.694,0,9.013-2.826,11.001-7.199c1.956-4.302,1.347-9.467-1.551-13.156c-17.787-22.669-38.213-35.459-55.249-42.667
	c1.138-1.19,2.205-2.447,3.199-3.768c7.212-9.569,8.139-19.1,8.252-20.919c0.326-5.326-2.212-10.15-6.467-12.292
	c-3.727-1.876-7.884-1.773-11.215,0.213c-3.548,0.505-19.754,1.342-66.858-14.586c-19.27-6.518-38.142-7.915-55.761-4.116
	C252.663,2.388,240.622,0,228.15,0c-11.618,0-23.693,2.092-35.892,6.219c-47.099,15.927-63.354,15.079-66.85,14.589
	c-3.327-1.989-7.495-2.093-11.219-0.22c-4.262,2.143-6.801,6.972-6.47,12.3c0.111,1.812,1.034,11.336,8.254,20.917
	c0.995,1.319,2.062,2.575,3.198,3.765c-17.037,7.208-37.463,19.999-55.251,42.668c-2.897,3.692-3.506,8.855-1.551,13.157
	c1.989,4.373,6.307,7.198,11.001,7.198c0.181,0,0.363-0.004,0.508-0.011l9.722-0.418c-1.786,2.016-3.512,4.089-5.175,6.215
	c-2.552,3.263-1.976,7.977,1.286,10.528c3.263,2.553,7.976,1.976,10.528-1.286c5.204-6.652,11.1-12.713,17.524-18.014
	c2.487-2.052,3.384-5.463,2.229-8.473c-1.154-3.009-4.094-4.941-7.324-4.806l-23.553,1.014
	C98.758,82.26,121.228,71.79,137.01,67.055c2.947-0.885,5.055-3.48,5.317-6.546c0.262-3.065-1.375-5.98-4.13-7.352
	c-4.17-2.076-7.617-4.896-10.245-8.382c-2.515-3.337-3.837-6.672-4.527-9.103c1.453,0.199,3.275,0.337,5.54,0.337
	c14.403,0,37.951-5.389,68.099-15.583C207.712,16.826,218.171,15,228.15,15c11.207,0,21.987,2.289,32.041,6.805
	c1.523,0.685,3.235,0.842,4.858,0.442c6.075-1.489,12.403-2.245,18.811-2.245c9.975,0,20.431,1.825,31.077,5.426
	c30.148,10.194,53.693,15.583,68.092,15.583c0.002,0,0.004,0,0.006,0c2.266,0,4.088-0.138,5.541-0.337
	c-0.689,2.432-2.012,5.767-4.526,9.103c-2.625,3.485-6.071,6.307-10.243,8.385c-2.754,1.371-4.391,4.286-4.129,7.352
	c0.262,3.066,2.37,5.66,5.317,6.545c15.779,4.734,38.248,15.205,57.89,38.285l-23.552-1.014c-3.239-0.157-6.169,1.797-7.324,4.806
	c-1.155,3.01-0.258,6.421,2.228,8.473c15.605,12.875,35.116,35.798,41.165,72.614l-12.172-4.19c-2.329-0.8-4.901-0.408-6.884,1.049
	c-1.983,1.459-3.125,3.797-3.055,6.258c0.155,5.407-0.068,14.006-2.016,24.264c-0.772,4.069,1.9,7.994,5.97,8.767
	c0.473,0.09,0.942,0.133,1.407,0.133c3.531,0,6.677-2.506,7.359-6.103c1.183-6.227,1.802-11.928,2.094-16.824l6.883,2.37
	c1.247,0.43,2.547,0.648,3.864,0.648c2.969,0,5.826-1.113,8.043-3.131C459.948,205.689,461.441,201.553,460.889,197.398z"/>
<path d="M433.902,434.326V430.5h0.323c4.143,0,7.5-3.357,7.5-7.5s-3.357-7.5-7.5-7.5h-0.323v-12.095
	c3.603-0.549,6.364-3.649,6.364-7.405c0-3.762-2.772-6.867-6.382-7.408c-0.379-22.582-19.033-40.842-41.923-40.842h-44.614
	c0.665-2.143,1.362-4.408,2.082-6.772c6.682,3.346,11.638,3.614,12.988,3.614c5.718,0,10.591-4.007,11.85-9.746
	c0.565-2.583,0.323-5.221-0.636-7.578c1.389-3.486,6.742-13.408,27.11-34.327c8.064-8.282,14.969-17.447,20.524-27.241
	c2.044-3.603,0.78-8.18-2.823-10.224c-3.6-2.045-8.181-0.78-10.224,2.823c-4.924,8.679-11.056,16.814-18.226,24.178
	c-21.083,21.653-31.787,37.11-31.821,45.949c-1.239-0.501-2.714-1.231-4.352-2.252c5.563-19.288,10.898-40.189,10.898-49.395
	v-20.077h4.365c17.173,0,31.145-13.972,31.145-31.145v-25.701c0-17.174-13.972-31.145-31.145-31.145h-5.703
	c-1.75-3.311-5.069-5.668-9.054-6.053c-31.473-3.049-51.92-13.668-63.531-22.04c-1.971-1.422-4.297-2.173-6.727-2.173
	c-1.659,0-3.333,0.369-4.845,1.07c-3.765,1.749-6.302,5.407-6.621,9.548l-1.384,17.979c-18.639-3.804-37.156-15.683-49.648-25.212
	c-2.857-2.182-6.746-2.903-10.194-1.897c-3.493,1.018-6.326,3.665-7.578,7.081l-5.866,15.996
	c-11.592-3.195-22.132-9.117-31.355-17.622c-2.13-1.966-4.899-3.048-7.799-3.048c-1.595,0-3.145,0.324-4.616,0.967
	c-4.182,1.833-6.883,5.968-6.883,10.533v14.871h-4.364c-17.174,0-31.146,13.972-31.146,31.145v25.701
	c0,17.174,13.972,31.145,31.146,31.145h4.364v20.077c0,8.548,4.6,27.177,9.71,45.235c-1.173,0.656-2.237,1.148-3.168,1.512
	c0-0.012,0-0.022,0-0.034c-0.043-8.771-11.045-24.682-31.816-46.016c-31.307-32.153-33.715-69.553-33.298-84.14
	c0.07-2.461-1.071-4.8-3.055-6.258s-4.559-1.849-6.884-1.049l-12.17,4.19c1.128-6.834,2.776-13.484,4.915-19.823
	c1.325-3.925-0.783-8.18-4.707-9.505c-3.923-1.325-8.18,0.782-9.504,4.708c-2.88,8.531-4.963,17.547-6.191,26.796
	c-0.552,4.156,0.94,8.292,3.989,11.063c2.221,2.02,5.079,3.133,8.047,3.133c1.315,0,2.614-0.218,3.857-0.646l6.9-2.376
	c1.24,20.227,8.134,54.361,37.354,84.372c20.256,20.803,25.663,30.825,27.085,34.388c-0.939,2.344-1.172,4.96-0.611,7.52
	c1.26,5.736,6.133,9.742,11.85,9.742c1.219,0,5.634-0.22,11.673-2.963c1.184,3.946,2.332,7.69,3.396,11.12h-23.365h-21.244h-0.798
	c-0.261,0-0.518,0.014-0.772,0.039c-20.434,0.75-37.172,16.041-39.955,35.711h-3.177c-4.142,0-7.5,3.357-7.5,7.5s3.358,7.5,7.5,7.5
	H78.1v7h-5.63c-4.142,0-7.5,3.357-7.5,7.5s3.358,7.5,7.5,7.5h5.63v6h-2.63c-4.142,0-7.5,3.357-7.5,7.5s3.358,7.5,7.5,7.5h3.256
	c0.702,3.986,1.986,7.839,3.827,11.458c-2.874,4.206-4.453,9.201-4.453,14.357v4.185h-2.63c-4.142,0-7.5,3.357-7.5,7.5
	s3.358,7.5,7.5,7.5h2.63v12.763c0,7.023,5.741,12.737,12.798,12.737h28.344h21.761H342.6h37.401h41.104
	c7.057,0,12.798-5.714,12.798-12.737V479.44c3.717-0.445,6.599-3.603,6.599-7.44c0-3.897-2.971-7.096-6.77-7.463
	c-0.461-4.158-1.929-8.135-4.281-11.579C432.376,447.204,433.902,440.861,433.902,434.326z M385.23,199.856v25.701
	c0,8.902-7.242,16.145-16.145,16.145h-4.365v-22.041h5.291c4.142,0,7.5-3.357,7.5-7.5s-3.358-7.5-7.5-7.5h-5.291V183.71h4.365
	C377.987,183.711,385.23,190.954,385.23,199.856z M162.281,161.417c10.265,8.063,21.759,13.679,34.272,16.73
	c0.97,0.234,1.963,0.354,2.95,0.354c5.222,0,9.937-3.295,11.733-8.197l5.031-13.72c14.355,10.461,34.539,22.417,55.249,25.758
	c3.411,0.549,6.998-0.382,9.718-2.521c2.737-2.156,4.461-5.385,4.729-8.862l1.133-14.727c13.162,8.421,33.618,17.715,62.623,21.024
	v43.525c0,24.929-9.789,47.608-25.719,64.414V270c0-16.817-13.683-30.5-30.5-30.5h-10.916v-4.016c0-4.143-3.357-7.5-7.5-7.5
	s-7.5,3.357-7.5,7.5v8.163c-0.208,0.294-1.057,0.938-2.5,0.938h-14.168c-1.355,0-2.5-1.145-2.5-2.5V203c0-4.143-3.358-7.5-7.5-7.5
	s-7.5,3.357-7.5,7.5v36.5h-14.915c-16.818,0-30.5,13.683-30.5,30.5v15.195c-15.93-16.806-25.72-39.485-25.72-64.415V161.417z
	 M142.917,241.703c-8.903,0-16.146-7.243-16.146-16.145v-25.701c0-8.902,7.243-16.145,16.146-16.145h4.364v20.951h-5.291
	c-4.142,0-7.5,3.357-7.5,7.5s3.358,7.5,7.5,7.5h5.291v22.041L142.917,241.703L142.917,241.703z M162.281,276.085
	c7.22,12.198,16.902,23.027,28.732,31.86c2.274,1.698,5.313,1.966,7.849,0.695c2.537-1.272,4.139-3.867,4.139-6.705V270
	c0-8.547,6.953-15.5,15.5-15.5H238.6c3.165,3.141,7.518,5.085,12.317,5.085h14.168c5.067,0,9.625-1.967,12.823-5.085h15.593
	c8.547,0,15.5,6.953,15.5,15.5v31.935c0,2.838,1.602,5.433,4.139,6.705c2.537,1.269,5.573,1.002,7.849-0.695
	c11.83-8.834,21.512-19.662,28.732-31.86v0.695c0,11.249-11.883,51.893-20.758,79.368l-2.058-2.082
	c-1.645-1.662-3.964-2.466-6.291-2.165c-2.32,0.299-4.368,1.663-5.537,3.688l-14.076,24.379l-6.32-10.946
	c-1.783-3.089-5.494-4.492-8.879-3.361c-1.934,0.648-5.903,1.98-29.799,30.603c-23.896-28.623-27.866-29.955-29.801-30.603
	c-0.786-0.264-1.589-0.39-2.382-0.39c-2.621,0-5.127,1.38-6.496,3.751l-6.323,10.949l-14.076-24.381
	c-1.169-2.025-3.217-3.39-5.538-3.688c-2.318-0.295-4.646,0.502-6.291,2.166l-2.058,2.08c-8.875-27.473-20.757-68.117-20.757-79.367
	V276.085z M93.1,486.5h0.901c4.142,0,7.5-3.357,7.5-7.5s-3.358-7.5-7.5-7.5H93.1v-4.185c0-3.004,1.322-5.889,3.628-7.917
	c2.877-2.53,3.384-6.823,1.176-9.954c-1.726-2.447-2.987-5.131-3.789-7.949c4.089-0.062,7.387-3.39,7.387-7.494
	c0-4.143-3.358-7.5-7.5-7.5h-0.901v-6h2.9c4.142,0,7.5-3.357,7.5-7.5s-3.358-7.5-7.5-7.5H93.1v-7h4.095c4.142,0,7.5-3.357,7.5-7.5
	s-3.358-7.5-7.5-7.5h-3.441c2.083-9.182,9.007-16.577,17.989-19.448V497H93.1V486.5z M387.501,497v-66.5c0-4.143-3.357-7.5-7.5-7.5
	s-7.5,3.357-7.5,7.5v58.178l-33.752-27.601c-3.208-2.623-7.933-2.147-10.554,1.058c-2.622,3.207-2.148,7.932,1.058,10.554
	L358.982,497h-45.481v-8.5c0-4.143-3.357-7.5-7.5-7.5s-7.5,3.357-7.5,7.5v8.5h-50v-8.5c0-4.143-3.358-7.5-7.5-7.5
	s-7.5,3.357-7.5,7.5v8.5h-46v-8.5c0-4.143-3.358-7.5-7.5-7.5s-7.5,3.357-7.5,7.5v8.5h-45.759V362.75h42.67
	c0.384,1.182,0.683,2.098,0.879,2.693c1.572,5.438,5.834,8.938,10.911,8.938c2.67,0,5.321-1.004,7.603-2.855l11.966,20.727
	c2.355,4.079,6.084,6.419,10.231,6.419s7.876-2.34,10.23-6.419l4.473-7.748c5.377,5.686,13.492,15.005,20.449,23.377
	c2.366,3.689,5.92,5.79,9.848,5.79c0.338,0,0.67-0.036,1.002-0.067l41.25,33.734c3.207,2.623,7.932,2.149,10.554-1.058
	c2.622-3.207,2.148-7.932-1.058-10.554l-38.71-31.655c6.135-7.271,12.685-14.733,17.258-19.567l4.472,7.746
	c2.354,4.08,6.084,6.421,10.231,6.421c4.148,0,7.877-2.341,10.23-6.419l11.967-20.728c2.281,1.853,4.932,2.856,7.602,2.856
	c0.001,0,0.001,0,0.001,0c5.076,0,9.339-3.5,10.911-8.938c0.195-0.594,0.497-1.518,0.878-2.693h49.373
	c14.587,0,26.494,11.48,26.92,25.75h-11.882c-4.143,0-7.5,3.357-7.5,7.5s3.357,7.5,7.5,7.5h11.901v12h-9.901
	c-4.143,0-7.5,3.357-7.5,7.5s3.357,7.5,7.5,7.5h9.901v3.826c0,5.434-1.661,10.661-4.804,15.117
	c-2.209,3.131-1.701,7.424,1.177,9.954c1.568,1.38,2.668,3.161,3.22,5.103h-10.719c-4.143,0-7.5,3.357-7.5,7.5s3.357,7.5,7.5,7.5
	h11.126V497H387.501z"/>
<path d="M307.739,226.559c11.566,0,20.977-9.434,20.977-21.029s-9.41-21.029-20.977-21.029s-20.977,9.434-20.977,21.029
	S296.173,226.559,307.739,226.559z M307.739,199.5c3.296,0,5.977,2.705,5.977,6.029s-2.681,6.029-5.977,6.029
	s-5.977-2.705-5.977-6.029S304.443,199.5,307.739,199.5z"/>
<path d="M204.264,226.559c11.566,0,20.976-9.434,20.976-21.029s-9.41-21.029-20.976-21.029c-11.567,0-20.978,9.434-20.978,21.029
	S192.697,226.559,204.264,226.559z M204.264,199.5c3.295,0,5.976,2.705,5.976,6.029s-2.681,6.029-5.976,6.029
	c-3.296,0-5.978-2.705-5.978-6.029S200.967,199.5,204.264,199.5z"/>
<path d="M220.326,321.036h71.351c6.026,0,10.93-4.903,10.93-10.931v-24.697c0-12.08-9.827-21.908-21.907-21.908h-49.397
	c-12.08,0-21.907,9.828-21.907,21.908v24.697C209.395,316.133,214.298,321.036,220.326,321.036z M276.471,278.5h4.228
	c3.809,0,6.907,3.099,6.907,6.908v1.419h-11.135V278.5z M250.531,278.5h10.939v8.327h-10.939V278.5z M224.395,285.408
	c0-3.81,3.099-6.908,6.907-6.908h4.229v8.327h-11.136V285.408z M224.395,301.827h63.211v4.209h-63.211L224.395,301.827
	L224.395,301.827z"/>
<path d="M156.501,406v-16c0-4.143-3.358-7.5-7.5-7.5s-7.5,3.357-7.5,7.5v16c0,4.143,3.358,7.5,7.5,7.5S156.501,410.143,156.501,406z
	"/>
<path d="M178.001,408.5c-4.142,0-7.5,3.357-7.5,7.5v16c0,4.143,3.358,7.5,7.5,7.5s7.5-3.357,7.5-7.5v-16
	C185.501,411.857,182.143,408.5,178.001,408.5z"/>
<path d="M223.001,405.5c-4.142,0-7.5,3.357-7.5,7.5v16c0,4.143,3.358,7.5,7.5,7.5s7.5-3.357,7.5-7.5v-16
	C230.501,408.857,227.143,405.5,223.001,405.5z"/>
<path d="M270.001,443.5c-4.143,0-7.5,3.357-7.5,7.5v16c0,4.143,3.357,7.5,7.5,7.5s7.5-3.357,7.5-7.5v-16
	C277.501,446.857,274.144,443.5,270.001,443.5z"/>
<path d="M205.001,445.5c-4.142,0-7.5,3.357-7.5,7.5v16c0,4.143,3.358,7.5,7.5,7.5s7.5-3.357,7.5-7.5v-16
	C212.501,448.857,209.143,445.5,205.001,445.5z"/>
<path d="M152.001,451.5c-4.142,0-7.5,3.357-7.5,7.5v16c0,4.143,3.358,7.5,7.5,7.5s7.5-3.357,7.5-7.5v-16
	C159.501,454.857,156.143,451.5,152.001,451.5z"/>
<g>
</g>
<g>
</g>
<g>
</g>
<g>
</g>
<g>
</g>
<g>
</g>
<g>
</g>
<g>
</g>
<g>
</g>
<g>
</g>
<g>
</g>
<g>
</g>
<g>
</g>
<g>
</g>
<g>
</g>
</svg>
