<?xml version="1.0" encoding="iso-8859-1"?>
<!-- Generator: Adobe Illustrator 19.0.0, SVG Export Plug-In . SVG Version: 6.00 Build 0)  -->
<svg version="1.1" id="Capa_1" xmlns="http://www.w3.org/2000/svg" xmlns:xlink="http://www.w3.org/1999/xlink" x="0px" y="0px"
	 viewBox="0 0 512 512" style="enable-background:new 0 0 512 512;" xml:space="preserve">
<path style="fill:#D19546;" d="M435.388,438.545c-1.009-0.903-1.172-2.407-0.377-3.502c5.191-7.163,7.936-15.625,7.936-24.473
	c0-23.06-18.801-41.821-41.91-41.821c-3.927,0-44.503,0-44.503,0c-2.237,0-4.219-1.505-4.817-3.662
	c-5.793-20.847-23.929-38.084-48.127-47.987c-14.365,7.035-30.514,10.99-47.589,10.99c-17.074,0-33.223-3.955-47.589-10.991
	c-24.198,9.903-42.334,27.14-48.127,47.988c-0.599,2.156-2.58,3.661-4.817,3.661c0,0-40.576,0-44.503,0
	c-23.109,0-41.91,18.761-41.91,41.821c0,8.847,2.744,17.31,7.936,24.473c0.795,1.095,0.632,2.599-0.377,3.502
	c-8.514,7.618-13.397,18.506-13.397,29.87v31.012c0,2.801,2.276,5.073,5.085,5.073h375.4c2.809,0,5.085-2.272,5.085-5.073v-31.012
	C448.785,457.051,443.901,446.163,435.388,438.545z"/>
<path style="opacity:0.15;fill:#490089;enable-background:new    ;" d="M89.466,499.427v-31.012c0-11.364,4.884-22.252,13.397-29.87
	c1.009-0.903,1.172-2.407,0.377-3.502c-5.191-7.163-7.935-15.625-7.935-24.473c0-23.06,18.801-41.821,41.91-41.821
	c-11.331,0-24.131,0-26.251,0c-23.109,0-41.91,18.761-41.91,41.821c0,8.847,2.744,17.31,7.936,24.473
	c0.795,1.095,0.632,2.599-0.377,3.502c-8.514,7.618-13.397,18.506-13.397,29.87v31.012c0,2.801,2.276,5.073,5.085,5.073h26.251
	C91.742,504.5,89.466,502.228,89.466,499.427z"/>
<path style="fill:#5DC647;" d="M448.261,462H406v22h42.785v-15.585C448.785,466.253,448.606,464.108,448.261,462z"/>
<path style="fill:#D19546;" d="M147.722,223.82c2.153,57.951,49.804,104.271,108.278,104.271
	c58.477,0,106.125-46.321,108.278-104.271H147.722z"/>
<g>
	<path style="fill:#C0272D;" d="M331.234,223.82v73.889c19.509-18.825,31.965-44.902,33.042-73.889H331.234z"/>
	<path style="fill:#C0272D;" d="M147.724,223.82c1.077,28.987,13.533,55.064,33.042,73.889V223.82H147.724z"/>
</g>
<path style="fill:#FB8276;" d="M215.196,294.965c-2.168,0-3.924-1.757-3.924-3.924v-28.248c0-9.086,7.392-16.479,16.479-16.479
	h56.498c9.086,0,16.479,7.393,16.479,16.479v28.248c0,2.167-1.756,3.924-3.924,3.924H215.196z"/>
<path style="fill:#FFFFFF;" d="M284.249,246.314h-56.498c-9.086,0-16.479,7.393-16.479,16.479v10.201h89.455v-10.201
	C300.728,253.706,293.335,246.314,284.249,246.314z"/>
<path style="fill:#C0272D;" d="M139.073,223.82c-2.762,0-5-2.239-5-5v-90.028C134.073,61.911,188.77,7.5,256,7.5
	s121.927,54.411,121.927,121.292v90.028c0,2.761-2.238,5-5,5L139.073,223.82L139.073,223.82z"/>
<g style="opacity:0.15;">
	<path style="fill:#330068;" d="M208,17.302v18.301c17.528-14.53,39.192-24.282,62.963-27.189C266.059,7.815,261.065,7.5,256,7.5
		c-18.16,0-35.401,3.977-50.901,11.09C206.059,18.149,207.026,17.719,208,17.302z"/>
	<path style="fill:#330068;" d="M164,218.82v-27.776c-7.956-5.921-14.756-14.204-20.061-24.64
		c-6.958-13.689-9.203-26.792-9.583-29.28c-1.087-7.253,1.011-14.547,5.748-20.065c4.737-5.521,11.626-8.689,18.897-8.689h6.732
		c1.806-10.55,5.007-20.629,9.371-30.07C169.608,74.512,166,68.18,166,61V47.051c-19.82,21.577-31.927,50.278-31.927,81.741v90.028
		c0,2.761,2.238,5,5,5H169C166.238,223.82,164,221.581,164,218.82z"/>
</g>
<g>
	<path style="fill:#5DC647;" d="M307,18.635V61c0,11.598,9.402,21,21,21s21-9.402,21-21V50.449
		C337.557,37.026,323.24,26.106,307,18.635z"/>
	<path style="fill:#5DC647;" d="M187,82c11.598,0,21-9.402,21-21V17.302c-16.067,6.872-30.363,17.081-42,29.749V61
		C166,72.598,175.402,82,187,82z"/>
</g>
<path style="fill:#FFC502;" d="M371.898,117.062c-4.74-5.524-11.629-8.693-18.9-8.693H322.76c-28.796,0-52.303,10.279-66.76,29.058
	c-14.456-18.778-37.963-29.058-66.76-29.058h-30.238c-7.271,0-14.16,3.169-18.897,8.689c-4.737,5.519-6.835,12.812-5.748,20.065
	c0.38,2.488,2.625,15.591,9.583,29.28c11.588,22.795,30.287,35.35,52.656,35.35h35.049L251,168.229c2.75-4.763,7.25-4.763,10,0
	l19.355,33.525h35.049c22.369,0,41.068-12.555,52.657-35.352c6.958-13.69,9.203-26.792,9.59-29.331
	C378.731,129.871,376.633,122.577,371.898,117.062z"/>
<path style="fill:#203A74;" d="M356.521,130.318c-0.883-1.028-2.169-1.62-3.523-1.62H322.76c-16.743,0-39.457,4.124-52.587,23.771
	c-4.597,6.879-6.694,13.752-7.65,18.395l6.096,10.559h46.786c14.561,0,26.52-8.385,34.583-24.249
	c5.791-11.394,7.533-22.65,7.605-23.124C357.794,132.709,357.402,131.346,356.521,130.318z"/>
<path style="opacity:0.15;fill:#0A0014;enable-background:new    ;" d="M322.76,128.699c-16.743,0-39.457,4.124-52.587,23.771
	c-4.597,6.879-6.694,13.752-7.65,18.395l6.096,10.559h27.026c-1.262,0-2.47-0.515-3.346-1.426c-0.876-0.912-1.345-2.142-1.296-3.406
	c0.018-0.497,0.549-12.308,8.443-24.122c13.13-19.647,35.844-23.771,52.587-23.771L322.76,128.699L322.76,128.699z"/>
<path style="fill:#203A74;" d="M249.477,170.865c-0.956-4.643-3.054-11.517-7.65-18.395c-13.13-19.647-35.844-23.771-52.587-23.771
	h-30.238c-1.354,0-2.64,0.591-3.522,1.62c-0.882,1.028-1.273,2.391-1.072,3.732c0.072,0.474,1.814,11.73,7.605,23.124
	c8.064,15.864,20.021,24.249,34.583,24.249h46.786L249.477,170.865z"/>
<g style="opacity:0.15;">
	<path style="fill:#0A0014;" d="M191.657,157.175c-5.791-11.394-7.533-22.65-7.605-23.124c-0.201-1.341,0.19-2.704,1.072-3.732
		c0.883-1.028,2.169-1.62,3.523-1.62h-29.645c-1.354,0-2.64,0.591-3.522,1.62c-0.882,1.028-1.273,2.391-1.072,3.732
		c0.072,0.474,1.814,11.73,7.605,23.124c8.064,15.864,20.021,24.249,34.583,24.249h29.645
		C211.679,181.424,199.721,173.039,191.657,157.175z"/>
</g>
<path style="fill:#5DC647;" d="M293.095,223.82L261,168.229c-2.75-4.763-7.25-4.763-10,0l-32.095,55.591H293.095z"/>
<path style="fill:#FFC502;" d="M273.456,93c-0.478,0-0.957-0.114-1.396-0.345L256,84.212l-16.06,8.443
	c-0.439,0.231-0.919,0.345-1.396,0.345c-0.622,0-1.24-0.193-1.764-0.573c-0.924-0.671-1.386-1.809-1.193-2.934l3.067-17.883
	l-12.993-12.665c-0.818-0.797-1.112-1.989-0.76-3.076c0.354-1.086,1.292-1.877,2.422-2.042l17.956-2.609l8.03-16.271
	c0.506-1.024,1.549-1.672,2.69-1.672c1.141,0,2.185,0.648,2.69,1.672l8.03,16.271l17.956,2.609c1.13,0.164,2.068,0.956,2.422,2.042
	c0.353,1.087,0.059,2.278-0.76,3.076L273.346,71.61l3.067,17.883c0.192,1.125-0.27,2.263-1.193,2.934
	C274.696,92.807,274.078,93,273.456,93z"/>
<path d="M227,371.5h-45c-4.143,0-7.5,3.358-7.5,7.5s3.357,7.5,7.5,7.5h45c4.686,0,8.5,3.813,8.5,8.5c0,4.142,3.357,7.5,7.5,7.5
	s7.5-3.358,7.5-7.5C250.5,382.042,239.958,371.5,227,371.5z"/>
<path d="M331,371.5h-46c-12.958,0-23.5,10.542-23.5,23.5c0,4.142,3.357,7.5,7.5,7.5s7.5-3.358,7.5-7.5c0-4.687,3.814-8.5,8.5-8.5h46
	c4.143,0,7.5-3.358,7.5-7.5S335.143,371.5,331,371.5z"/>
<path d="M256,484.5c4.143,0,7.5-3.358,7.5-7.5v-57c0-4.142-3.357-7.5-7.5-7.5c-4.143,0-7.5,3.358-7.5,7.5v57
	C248.5,481.142,251.857,484.5,256,484.5z"/>
<path d="M443.418,435.919c4.61-7.646,7.028-16.328,7.028-25.349c0-27.196-22.165-49.321-49.41-49.321h-42.634
	c-5.684-18.244-19.832-33.838-38.891-44.662c28.454-18.727,48.203-49.648,51.759-85.268h1.656c6.893,0,12.5-5.607,12.5-12.5v-90.028
	C385.427,57.776,327.366,0,256,0S126.573,57.776,126.573,128.792v90.028c0,6.893,5.607,12.5,12.5,12.5h1.656
	c3.553,35.592,23.275,66.493,51.694,85.224c-1.881,1.062-3.727,2.164-5.515,3.328c-3.472,2.259-4.454,6.905-2.195,10.377
	c2.26,3.471,6.906,4.453,10.377,2.194c4.128-2.687,8.558-5.063,13.213-7.135c0.353,0.16,0.707,0.315,1.062,0.472v15.99
	c0,4.142,3.357,7.5,7.5,7.5s7.5-3.358,7.5-7.5v-10.576c10.06,2.86,20.67,4.397,31.635,4.397s21.575-1.537,31.635-4.397v10.576
	c0,4.142,3.357,7.5,7.5,7.5s7.5-3.358,7.5-7.5v-15.99c0.383-0.169,0.766-0.338,1.147-0.512
	c20.559,9.137,35.762,24.025,40.708,41.826c1.496,5.391,6.449,9.155,12.044,9.155h44.503c18.974,0,34.41,15.396,34.41,34.321
	c0,7.256-2.251,14.196-6.505,20.067c-3.061,4.217-2.44,10.019,1.445,13.496c3.283,2.939,5.894,6.478,7.74,10.366H413.5V432
	c0-4.142-3.357-7.5-7.5-7.5s-7.5,3.358-7.5,7.5v65H355c-4.143,0-7.5,3.358-7.5,7.5s3.357,7.5,7.5,7.5h88.7
	c6.939,0,12.585-5.64,12.585-12.573v-31.012C456.285,456.332,451.641,444.707,443.418,435.919z M338.734,277.341V231.32h17.459
	C354.242,248.291,348.059,263.989,338.734,277.341z M370.427,216.32h-73.002l-4.079-7.066h22.059
	c22.689,0,41.955-11.245,55.022-31.865L370.427,216.32L370.427,216.32z M314.5,31.033c10.11,6.006,19.215,13.518,27,22.223V61
	c0,7.444-6.056,13.5-13.5,13.5s-13.5-6.056-13.5-13.5V31.033z M173.5,50.023c7.886-8.165,16.983-15.162,27-20.711V61
	c0,7.444-6.056,13.5-13.5,13.5s-13.5-6.056-13.5-13.5V50.023z M301.2,110.153c-1.158-3.976-5.32-6.262-9.298-5.103
	c-14.105,4.109-26.358,11.293-35.898,20.981c-16.018-16.292-39.367-25.162-66.764-25.162h-30.238c-5.213,0-10.268,1.26-14.791,3.586
	c2.897-13.166,8.093-25.486,15.145-36.523C162.461,80.307,173.676,89.5,187,89.5c15.715,0,28.5-12.785,28.5-28.5V22.37
	C228.097,17.613,241.746,15,256,15c15.393,0,30.082,3.045,43.5,8.551V61c0,15.715,12.785,28.5,28.5,28.5
	c12.139,0,22.523-7.632,26.624-18.347c6.046,10.191,10.528,21.4,13.148,33.294c-4.52-2.321-9.568-3.578-14.775-3.578H338
	c-4.143,0-7.5,3.358-7.5,7.5s3.357,7.5,7.5,7.5h14.998c5.08,0,9.895,2.215,13.21,6.078c3.315,3.862,4.783,8.969,4.029,13.994
	c-0.35,2.296-2.421,14.389-8.861,27.062c-10.244,20.152-26.571,31.251-45.972,31.251h-30.719l-3.077-5.33h33.796
	c17.32,0,31.977-10.068,41.269-28.351c6.197-12.193,8.134-24.078,8.337-25.41c0.524-3.499-0.495-7.044-2.799-9.729
	c-2.31-2.691-5.668-4.234-9.213-4.234H322.76c-33.646,0-50.56,14.739-58.822,27.104c-2.098,3.138-3.729,6.26-5.019,9.228
	c-0.946-0.242-1.922-0.374-2.919-0.374c-0.998,0-1.973,0.132-2.92,0.374c-1.289-2.968-2.921-6.089-5.018-9.228
	c-8.263-12.365-25.176-27.104-58.822-27.104h-30.238c-3.545,0-6.903,1.544-9.215,4.236c-2.302,2.684-3.321,6.229-2.794,9.746
	c0.2,1.315,2.138,13.202,8.334,25.393c9.292,18.282,23.948,28.351,41.269,28.351h33.796l-3.077,5.33h-30.719
	c-19.4,0-35.727-11.098-45.971-31.249c-6.435-12.66-8.505-24.724-8.852-26.993c-0.761-5.078,0.705-10.205,4.022-14.07
	c3.313-3.86,8.126-6.073,13.206-6.073h30.238c26.245,0,47.844,9.281,60.816,26.133c1.42,1.844,3.616,2.925,5.943,2.925
	c2.327,0,4.523-1.081,5.942-2.925c8.299-10.779,19.79-18.366,34.155-22.551C300.074,118.293,302.359,114.129,301.2,110.153z
	 M256,174.569l24.104,41.751h-48.209L256,174.569z M196.596,173.924c-11.716,0-21.102-6.778-27.898-20.147
	c-3.493-6.874-5.361-13.694-6.233-17.578h26.775c14.914,0,35.063,3.546,46.352,20.438c3.121,4.671,4.892,9.375,5.895,13.071
	l-2.434,4.216H196.596z M272.948,173.924l-2.435-4.216c1.003-3.697,2.773-8.4,5.895-13.071
	c11.289-16.893,31.438-20.438,46.352-20.438h26.775c-0.874,3.89-2.741,10.707-6.233,17.578
	c-6.796,13.369-16.182,20.147-27.897,20.147H272.948z M173.266,277.341c-9.324-13.352-15.508-29.05-17.459-46.021h17.459V277.341z
	 M141.573,216.32v-38.931c13.067,20.62,32.334,31.865,55.023,31.865h22.059l-4.079,7.066H141.573z M256,320.591
	c-26.05,0-49.82-9.931-67.734-26.202v-63.07h135.469v63.07C305.82,310.66,282.05,320.591,256,320.591z M441.285,497H413.5v-5.5
	h27.785V497z M441.285,476.5H413.5v-7h27.785V476.5z"/>
<path d="M313,497H113.5v-65c0-4.142-3.357-7.5-7.5-7.5s-7.5,3.358-7.5,7.5v65H70.715v-28.585c0-9.233,3.973-18.083,10.9-24.281
	c3.885-3.477,4.506-9.279,1.448-13.492c-4.258-5.875-6.509-12.815-6.509-20.071c0-18.925,15.436-34.321,34.41-34.321h44.503
	c5.595,0,10.547-3.765,12.044-9.153c0.823-2.965,1.959-5.91,3.375-8.754c1.845-3.709,0.335-8.211-3.373-10.056
	c-3.707-1.844-8.211-0.336-10.057,3.373c-1.55,3.115-2.844,6.332-3.858,9.591h-42.634c-27.245,0-49.41,22.125-49.41,49.321
	c0,9.019,2.417,17.7,7.028,25.348c-8.223,8.789-12.867,20.414-12.867,32.497v31.012C55.715,506.36,61.36,512,68.3,512H111h202
	c4.143,0,7.5-3.358,7.5-7.5S317.143,497,313,497z"/>
<path d="M284.249,238.814h-56.498c-13.222,0-23.979,10.757-23.979,23.979v28.248c0,6.299,5.125,11.424,11.424,11.424h81.607
	c6.299,0,11.424-5.125,11.424-11.424v-28.248C308.228,249.57,297.471,238.814,284.249,238.814z M248.666,253.814h14.668v11.68
	h-14.668L248.666,253.814L248.666,253.814z M218.773,262.793c0-4.951,4.027-8.979,8.979-8.979h5.915v11.68h-14.893L218.773,262.793
	L218.773,262.793z M293.228,287.465h-74.455v-6.971h74.455V287.465z M293.228,265.494h-14.893v-11.68h5.915
	c4.951,0,8.979,4.028,8.979,8.979v2.701H293.228z"/>
<path d="M285.755,46.406l-14.054-2.042l-6.286-12.738c-1.783-3.609-5.391-5.851-9.415-5.851c-4.024,0-7.632,2.242-9.416,5.853
	l-6.285,12.735l-14.054,2.042c-3.981,0.579-7.23,3.315-8.478,7.149c-1.242,3.829-0.224,7.953,2.658,10.761l10.17,9.913
	l-2.401,14.001c-0.679,3.967,0.922,7.9,4.185,10.271c1.806,1.309,3.938,2,6.165,2c1.695,0,3.385-0.417,4.887-1.206L256,92.685
	l12.57,6.609c1.501,0.789,3.19,1.206,4.886,1.206c2.228,0,4.359-0.691,6.173-2.006c3.255-2.365,4.855-6.298,4.176-10.27l-2.4-13.997
	l10.169-9.912c2.883-2.809,3.901-6.933,2.657-10.769C292.984,49.72,289.736,46.984,285.755,46.406z M268.11,66.239
	c-1.768,1.723-2.574,4.205-2.156,6.639l1.525,8.896l-7.989-4.201c-1.093-0.574-2.291-0.861-3.49-0.861s-2.398,0.287-3.49,0.861
	l-7.989,4.201l1.525-8.896c0.418-2.433-0.389-4.916-2.156-6.639l-6.464-6.301l8.932-1.298c2.443-0.355,4.555-1.889,5.647-4.102
	L256,46.442l3.995,8.095c1.093,2.213,3.204,3.748,5.648,4.102l8.932,1.298L268.11,66.239z"/>
<g>
</g>
<g>
</g>
<g>
</g>
<g>
</g>
<g>
</g>
<g>
</g>
<g>
</g>
<g>
</g>
<g>
</g>
<g>
</g>
<g>
</g>
<g>
</g>
<g>
</g>
<g>
</g>
<g>
</g>
</svg>
