<?xml version="1.0" encoding="iso-8859-1"?>
<!-- Generator: Adobe Illustrator 19.0.0, SVG Export Plug-In . SVG Version: 6.00 Build 0)  -->
<svg version="1.1" id="Layer_1" xmlns="http://www.w3.org/2000/svg" xmlns:xlink="http://www.w3.org/1999/xlink" x="0px" y="0px"
	 viewBox="0 0 512.001 512.001" style="enable-background:new 0 0 512.001 512.001;" xml:space="preserve">
<path style="fill:#FFCDC1;" d="M109.047,138.894h-0.109c-18.05,0-32.681,14.631-32.681,32.681s14.631,32.681,32.681,32.681h147.064
	v-65.362C256.002,138.894,109.047,138.894,109.047,138.894z"/>
<path style="fill:#FFAB97;" d="M403.066,138.894h-0.109H256.003v65.362h147.064c18.05,0,32.681-14.631,32.681-32.681
	S421.115,138.894,403.066,138.894z"/>
<path style="fill:#7F7774;" d="M479.321,329.532c0-24.065-19.508-43.574-43.574-43.574l-32.681,92.596l32.681,92.596h43.574V329.532
	z"/>
<path style="fill:#A99E9B;" d="M76.258,285.958c-24.066,0-43.574,19.509-43.574,43.574v141.617h403.063V285.958H76.258z"/>
<path style="fill:#FFF3D4;" d="M384.861,73.532h-43.574l29.099,430.297c18.05,0,32.681-14.631,32.681-32.681V144.341
	C403.066,118.686,396.456,94.551,384.861,73.532z"/>
<path style="fill:#FFFFFF;" d="M341.286,73.532H127.143c-11.595,21.018-18.205,45.154-18.205,70.808v326.808
	c0,18.05,14.631,32.681,32.681,32.681c12.308,0,23.023-6.807,28.596-16.859c5.573,10.052,16.288,16.859,28.596,16.859
	c12.308,0,23.023-6.807,28.596-16.859c5.573,10.052,16.288,16.859,28.596,16.859c12.308,0,23.023-6.807,28.596-16.859
	c5.573,10.052,16.288,16.859,28.596,16.859s23.023-6.807,28.596-16.859c5.573,10.052,16.288,16.859,28.596,16.859V144.341
	L341.286,73.532z"/>
<path style="fill:#FFAB97;" d="M256.003,29.958l81.702,147.064h32.681v-32.681C370.385,81.169,319.173,29.958,256.003,29.958z"/>
<path style="fill:#FFCDC1;" d="M256.003,29.958c-63.172,0-114.383,51.211-114.383,114.383v32.681h196.085v-32.681
	C337.705,81.169,301.125,29.958,256.003,29.958z"/>
<g>
	<path style="fill:#FFD159;" d="M174.301,294.128c-4.513,0-8.17-3.657-8.17-8.17v-10.894c0-4.513,3.657-8.17,8.17-8.17
		c4.513,0,8.17,3.657,8.17,8.17v10.894C182.471,290.471,178.813,294.128,174.301,294.128z"/>
	<path style="fill:#FFD159;" d="M337.705,381.277c-4.513,0-8.17-3.657-8.17-8.17v-10.894c0-4.513,3.657-8.17,8.17-8.17
		s8.17,3.657,8.17,8.17v10.894C345.875,377.62,342.217,381.277,337.705,381.277z"/>
	<path style="fill:#FFD159;" d="M305.024,413.957c-4.513,0-8.17-3.657-8.17-8.17v-10.894c0-4.513,3.657-8.17,8.17-8.17
		c4.513,0,8.17,3.657,8.17,8.17v10.894C313.194,410.3,309.536,413.957,305.024,413.957z"/>
</g>
<path d="M435.747,277.787c-4.513,0-8.17,3.657-8.17,8.17c0,4.513,3.657,8.17,8.17,8.17c19.522,0,35.404,15.882,35.404,35.404
	v133.447h-59.915V211.603c18.624-3.795,32.681-20.3,32.681-40.029c0-19.897-14.301-36.508-33.237-40.116
	c-1.814-21.671-8.164-42.839-18.665-61.873c-1.438-2.606-4.179-4.223-7.154-4.223h-35.229
	c-21.472-25.415-53.077-41.999-88.522-43.46l-8.693-17.385c-2.018-4.035-6.923-5.67-10.962-3.654
	c-4.035,2.019-5.671,6.925-3.654,10.962l5.319,10.639c-4.522,0.475-8.97,1.202-13.334,2.156L219.735,4.517
	c-2.019-4.035-6.923-5.67-10.962-3.654c-4.035,2.019-5.671,6.925-3.654,10.962l8.719,17.437c-20.163,7.411-37.85,19.983-51.467,36.1
	h-35.229c-2.975,0-5.716,1.618-7.153,4.223c-10.499,19.031-16.849,40.194-18.665,61.86c-18.898,3.577-33.239,20.205-33.239,40.129
	c0,19.728,14.057,36.233,32.681,40.029v194.184c0,4.513,3.657,8.17,8.17,8.17c4.513,0,8.17-3.657,8.17-8.17V144.342
	c0-21.76,5.158-43.314,14.955-62.638h18.643c-10.952,18.343-17.258,39.766-17.258,62.638v32.681c0,4.513,3.657,8.17,8.17,8.17
	h228.765c4.513,0,8.17-3.657,8.17-8.17v-32.681c0-22.872-6.304-44.296-17.258-62.638h18.643
	c9.796,19.324,14.955,40.878,14.955,62.638V471.15c0,13.515-10.996,24.511-24.511,24.511c-8.904,0-17.125-4.847-21.449-12.65
	c-1.44-2.597-4.177-4.208-7.146-4.208s-5.705,1.611-7.146,4.208c-4.326,7.803-12.546,12.65-21.449,12.65
	c-8.903,0-17.125-4.847-21.449-12.65c-1.44-2.597-4.177-4.208-7.146-4.208s-5.705,1.611-7.146,4.208
	c-4.326,7.803-12.546,12.65-21.449,12.65c-8.903,0-17.125-4.847-21.449-12.65c-1.44-2.597-4.177-4.208-7.146-4.208
	s-5.705,1.611-7.146,4.208c-4.326,7.803-12.546,12.65-21.449,12.65c-8.903,0-17.125-4.847-21.449-12.65
	c-1.44-2.597-4.177-4.208-7.146-4.208s-5.705,1.611-7.146,4.208c-4.326,7.803-12.546,12.65-21.449,12.65
	c-13.515,0-24.511-10.996-24.511-24.511v-32.681c0-4.513-3.657-8.17-8.17-8.17s-8.17,3.657-8.17,8.17v24.511H40.852V329.533
	c0-19.522,15.882-35.404,35.404-35.404c4.513,0,8.17-3.657,8.17-8.17s-3.657-8.17-8.17-8.17c-28.531,0-51.745,23.213-51.745,51.745
	V471.15c0,4.513,3.657,8.17,8.17,8.17h68.907c3.795,18.624,20.3,32.681,40.029,32.681c10.836,0,21.062-4.303,28.596-11.684
	c7.534,7.38,17.76,11.684,28.596,11.684c10.836,0,21.062-4.303,28.596-11.684c7.534,7.38,17.76,11.684,28.596,11.684
	c10.836,0,21.062-4.303,28.596-11.684c7.534,7.38,17.76,11.684,28.596,11.684s21.062-4.303,28.596-11.684
	c7.534,7.38,17.76,11.684,28.596,11.684c19.728,0,36.233-14.057,40.029-32.681h68.907c4.513,0,8.17-3.657,8.17-8.17V329.533
	C487.491,301.001,464.278,277.787,435.747,277.787z M84.428,171.575c0-10.651,6.831-19.733,16.34-23.105v46.211
	C91.259,191.308,84.428,182.226,84.428,171.575z M362.215,168.851H149.79v-24.511c0-58.559,47.635-106.201,106.192-106.213
	c58.606,0.02,106.233,47.658,106.233,106.213V168.851z M427.577,171.575c0,10.651-6.831,19.733-16.34,23.105V148.47
	C420.745,151.842,427.577,160.924,427.577,171.575z"/>
<path d="M256.003,230.558c11.504,0,21.82-7.281,25.672-18.118c1.512-4.252-0.709-8.924-4.962-10.435
	c-4.25-1.515-8.923,0.709-10.434,4.961c-1.543,4.338-5.672,7.252-10.277,7.252c-4.605,0-8.734-2.914-10.277-7.252
	c-1.511-4.252-6.188-6.475-10.434-4.961c-4.252,1.511-6.473,6.183-4.962,10.435C234.182,223.277,244.499,230.558,256.003,230.558z"
	/>
<path d="M225.501,130.724h-18.519c-4.513,0-8.17,3.657-8.17,8.17s3.657,8.17,8.17,8.17h10.814c1.121,3.173,4.148,5.447,7.705,5.447
	c4.513,0,8.17-3.657,8.17-8.17v-5.447C233.671,134.381,230.013,130.724,225.501,130.724z"/>
<path d="M305.024,130.724h-18.519c-4.513,0-8.17,3.657-8.17,8.17v5.447c0,4.513,3.657,8.17,8.17,8.17
	c3.558,0,6.584-2.273,7.705-5.447h10.814c4.513,0,8.17-3.657,8.17-8.17C313.194,134.381,309.536,130.724,305.024,130.724z"/>
<g>
</g>
<g>
</g>
<g>
</g>
<g>
</g>
<g>
</g>
<g>
</g>
<g>
</g>
<g>
</g>
<g>
</g>
<g>
</g>
<g>
</g>
<g>
</g>
<g>
</g>
<g>
</g>
<g>
</g>
</svg>
