<svg height="512pt" viewBox="-2 0 512 512" width="512pt" xmlns="http://www.w3.org/2000/svg"><path d="m178.589844 122.496094v59.242187h30.113281v-14.179687c1.992187-1.996094 3.113281-3.113282 5.109375-5.109375h19.894531c1.996094 1.996093 3.113281 3.113281 5.109375 5.109375v14.179687h30.113282v-14.179687c1.996093-1.996094 3.113281-3.113282 5.109374-5.109375h19.894532c1.996094 1.996093 3.117187 3.113281 5.109375 5.109375v14.179687h30.113281v-59.242187zm0 0" fill="#ffb655"/><g fill="#fff5cc"><path d="m280.335938 59.5-26.683594 23-26.683594-23v-52h53.367188zm0 0"/><path d="m333.789062 79.5-26.683593 23-26.683594-23v-52h53.367187zm0 0"/><path d="m226.882812 69.5-26.683593 23-26.683594-23v-52h53.367187zm0 0"/></g><path d="m473.375 16.324219-.839844 4.976562c-4.964844 29.398438.171875 60.03125 14.46875 86.246094l11.644532 21.359375-143.089844 141.957031-31.714844-31.460937 127.675781-126.726563c-15.246093-31.730469-20.8125-67.867187-15.8125-102.609375zm0 0" fill="#b77062"/><path d="m14.917969 474.785156 4.972656-.839844c29.398437-4.96875 60.03125.171876 86.25 14.464844l21.355469 11.648438 141.976562-143.113282-31.460937-31.710937-126.746094 127.695313c-31.730469-15.25-67.867187-20.8125-102.609375-15.8125zm0 0" fill="#b77062"/><path d="m321.570312 237.039062 36.097657 36.09375-85.941407 85.9375-36.09375-36.09375zm0 0" fill="#fff5cc"/><path d="m188.382812 375.234375v-193.496094h20.320313v-14.179687c1.992187-1.996094 3.113281-3.113282 5.109375-5.109375h19.894531l5.109375 5.109375v14.179687h30.113282v-14.179687c1.996093-1.996094 3.113281-3.113282 5.109374-5.109375h19.894532c1.996094 1.996093 3.117187 3.113281 5.109375 5.109375v14.179687h20.320312v57.511719l-83.730469 83.730469 2.316407 2.316406zm83.34375-16.160156-2.25-2.125-81.09375 81.738281v65.8125h130.980469v-193.058594zm0 0" fill="#ffb655"/><path d="m178.589844 122.496094h30v59.242187h-30zm0 0" fill="#ff7956"/><path d="m246.96875 59.5v-52h-20v52l26.683594 23 10-8.617188zm0 0" fill="#ffc477"/><path d="m300.421875 79.5v-52h-20v52l26.683594 23 10-8.617188zm0 0" fill="#ffc477"/><path d="m193.515625 69.5v-52h-20v52l26.683594 23 10-8.617188zm0 0" fill="#ffc477"/><path d="m353.84375 239.402344 127.675781-126.726563c-14.535156-30.246093-20.269531-64.496093-16.445312-97.730469l-29.367188-4.882812c-5 34.746094.566407 70.878906 15.8125 102.609375l-127.675781 126.730469 31.714844 31.460937 15-14.878906zm0 0" fill="#895247"/><path d="m141.265625 452.929688 111.742187-112.578126-14.996093-15.117187-118.1875 119.070313c7.316406 2.40625 14.484375 5.28125 21.441406 8.625zm0 0" fill="#895247"/><path d="m38.65625 437.117188c3.355469-.484376 6.726562-.867188 10.105469-1.15625-13.355469-1.121094-26.832031-.753907-40.105469 1.15625l6.261719 37.667968 4.972656-.839844c8.140625-1.375 16.375-1.976562 24.582031-1.824218zm0 0" fill="#895247"/><path d="m265.632812 322.980469 70.9375-70.9375-15-15-85.9375 85.9375 36.09375 36.09375 15-15zm0 0" fill="#ffc477"/><path d="m298.929688 167.558594.058593-.054688-5.054687-5.054687h-19.894532c-1.996093 1.996093-3.113281 3.113281-5.109374 5.109375v14.179687h30zm0 0" fill="#ff7956"/><path d="m299.476562 356.949219 2.25 2.125 17.636719-17.632813v-30l-47.636719 47.632813-2.25-2.125-81.09375 81.738281v65.8125h30v-65.8125zm0 0" fill="#ff7956"/><path d="m218.382812 181.738281h20.320313v-14.179687l.054687-.054688-5.050781-5.054687h-19.894531c-1.996094 1.996093-3.117188 3.113281-5.109375 5.109375v14.179687h-20.320313v193.496094l30-30.222656zm0 0" fill="#ff7956"/><path d="m192.699219 114.996094h-21.609375v74.242187h45.113281v-18.574219l.714844-.714843h13.683593l.714844.714843v18.574219h45.113282v-18.574219l.714843-.714843h13.683594l.71875.71875v18.574219h45.113281v-74.242188h-22.054687v-9.0625l26.683593-23v-62.9375h-53.453124v-20h-68.367188v10h-53.453125v62.9375l26.683594 23zm15-19.058594 25.027343-21.574219 13.425782 11.574219v29.058594h-38.453125zm113.957031 78.300781h-15.109375v-9.785156l-9.503906-9.503906h-26.109375l-9.503906 9.503906v9.785156h-15.113282v-9.785156l-9.503906-9.503906h-26.109375l-9.5 9.503906v9.785156h-15.113281v-44.242187h135.570312v44.242187zm-60.503906-59.242187v-29.058594l11.769531-10.144531v7.144531l26.683594 23v9.058594zm26.769531-79.996094h38.367187v41.0625l-11.683593 10.070312v-43.378906h-15v43.378906l-11.683594-10.070312zm-53.453125-20h38.367188v41.0625l-11.683594 10.070312v-43.378906h-15v43.378906l-11.683594-10.070312zm-53.453125 51.0625v-41.0625h38.367187v41.0625l-11.683593 10.070312v-43.378906h-15v43.378906zm0 0"/><path d="m225.027344 322.980469 46.699218 46.703125 96.546876-96.546875-46.703126-46.703125zm64.179687-42.96875 10.878907-10.878907 25.488281 25.488282-10.875 10.878906zm14.882813 36.09375-10.875 10.878906-25.492188-25.488281 10.878906-10.878906zm-57.851563 6.875 10.878907-10.878907 25.488281 25.488282-10.878907 10.878906zm89.945313-38.964844-25.488282-25.488281 10.875-10.878906 25.492188 25.488281zm0 0"/><path d="m180.882812 201.738281h15v145.105469h-15zm0 0"/><path d="m311.863281 201.738281h15v14.226563h-15zm0 0"/><path d="m311.863281 497h-115.980469v-29.914062h-15v44.914062h145.980469v-172.273438h-15zm0 0"/><path d="m493.589844 103.960938c-13.496094-24.75-18.347656-53.660157-13.660156-81.414063l2.09375-12.386719-52.648438-8.753906c-1.417969 9.851562-3.953125 24.5625-2.515625 46.050781l-82.910156 82.910157 10.609375 10.605468 74.539062-74.539062c2.605469 15.367187 7.101563 30.421875 13.410156 44.617187l-109.707031 108.894531 10.566407 10.648438 117.222656-116.355469-2.3125-4.8125c-13.425782-27.941406-19.039063-59.855469-16.0625-90.675781l22.53125 3.746094c-4.5625 30.300781.96875 61.683594 15.671875 88.644531l8.945312 16.410156-124.972656 123.984375 10.566406 10.648438 132.972657-131.921875zm0 0"/><path d="m250.125 365.800781-123.984375 124.976563-16.410156-8.949219c-26.964844-14.703125-58.347657-20.234375-88.644531-15.667969l-3.746094-22.535156c30.824218-2.976562 62.734375 2.636719 90.675781 16.0625l4.8125 2.3125 116.355469-117.222656-10.648438-10.566406-108.890625 109.707031c-14.199219-6.308594-29.25-10.804688-44.621093-13.410157l108.882812-108.878906-10.609375-10.605468-117.25 117.25c-21.136719-1.417969-35.558594 1.003906-46.046875 2.511718l8.753906 52.648438 12.386719-2.09375c27.75-4.6875 56.660156.164062 81.410156 13.660156l26.304688 14.339844 131.921875-132.972656zm0 0"/><path d="m361.738281 243.648438-10.605469-10.605469 50.039063-50.039063 10.609375 10.605469zm57.113281-57.109376-10.605468-10.605468 10.605468-10.609375 10.605469 10.609375zm17.675782-17.679687-10.605469-10.605469 10.605469-10.605468 10.609375 10.605468zm0 0" fill="#fff"/><path d="m301.863281 479.5h-15v-57.703125h15zm0-67.703125h-15v-15h15zm0-25h-15v-15h15zm0 0" fill="#fff"/></svg>