<?xml version="1.0" encoding="iso-8859-1"?>
<!-- Generator: Adobe Illustrator 19.0.0, SVG Export Plug-In . SVG Version: 6.00 Build 0)  -->
<svg version="1.1" id="Capa_1" xmlns="http://www.w3.org/2000/svg" xmlns:xlink="http://www.w3.org/1999/xlink" x="0px" y="0px"
	 viewBox="0 0 512.001 512.001" style="enable-background:new 0 0 512.001 512.001;" xml:space="preserve">
<path style="fill:#B67F5F;" d="M395.156,411.717l-99.077-35.475h-80.161l-99.077,35.475c-22.31,7.988-37.197,29.131-37.197,52.828
	V504.5h352.71v-39.955C432.354,440.848,417.467,419.705,395.156,411.717z"/>
<path style="fill:#A06E50;" d="M218,495.885l37.999-8.835l37.999,8.835c4.55,1.058,9.225,1.595,13.893,1.595
	c23.274,0,44.261-13.112,53.465-33.406c5.785-12.755,12.845-33.297,14.418-59.297l-79.695-28.535h-80.161l-79.694,28.534
	c1.572,25.998,8.632,46.541,14.417,59.298c9.204,20.293,30.191,33.406,53.466,33.406C208.776,497.48,213.45,496.943,218,495.885z"/>
<path style="fill:#EDEBED;" d="M351.888,385.082c-0.411-6.493-4.983-12.164-11.587-14.305l-0.002-0.001
	c-18.688-5.91-38.172-8.918-57.773-8.918H229.47c-19.6,0-39.084,3.008-57.772,8.918l-0.003,0.001
	c-6.603,2.141-11.175,7.813-11.587,14.305c-1.86,29.322,5.116,52.927,12.433,69.059c6.558,14.459,23.642,22.127,40.011,18.321
	l37.999-8.835c3.583-0.833,7.31-0.833,10.893,0l37.999,8.835c16.369,3.806,33.453-3.862,40.011-18.321
	C346.772,438.008,353.748,414.403,351.888,385.082z"/>
<path style="fill:#E3AA75;" d="M199.886,344.177v40.081c0,26.563,25.123,48.097,56.113,48.097c30.991,0,56.113-21.534,56.113-48.097
	v-40.081H199.886z"/>
<path style="fill:#D29B6E;" d="M255.999,392.274c20.175,0,39.271-5.185,56.113-14.181v-33.916H199.886v33.916
	C216.728,387.089,235.824,392.274,255.999,392.274z"/>
<path style="fill:#DBD9DC;" d="M268.023,135.758h-24.049c-35.417,0-64.129-28.712-64.129-64.129l0,0
	c0-35.417,28.712-64.129,64.129-64.129h24.049c35.417,0,64.129,28.712,64.129,64.129l0,0
	C332.152,107.047,303.441,135.758,268.023,135.758z"/>
<path style="fill:#C9C6CA;" d="M381.988,256c16.404-19.511,26.317-44.66,26.317-72.145c0-61.981-50.245-112.226-112.226-112.226
	h-80.161c-61.981,0-112.226,50.245-112.226,112.226c0,27.485,9.913,52.634,26.317,72.145H381.988z"/>
<path style="fill:#B7B2B8;" d="M316.12,264.016H195.878c-33.204,0-60.121-26.917-60.121-60.121l0,0
	c0-33.204,26.917-60.121,60.121-60.121H316.12c33.204,0,60.121,26.917,60.121,60.121l0,0
	C376.241,237.099,349.324,264.016,316.12,264.016z"/>
<path style="fill:#F5B97D;" d="M372.233,231.952h-9.159c-6.01,0-10.881-4.872-10.881-10.881v-29.2
	c0-13.282-10.767-24.048-24.048-24.048h-144.29c-13.282,0-24.048,10.767-24.048,24.048v29.2c0,6.009-4.871,10.881-10.881,10.881
	h-9.159c-11.068,0-20.04,8.972-20.04,20.04c0,11.068,8.972,20.04,20.04,20.04h12.429c4.106,53.795,48.958,96.194,103.805,96.194
	s99.699-42.398,103.805-96.194h12.429c11.068,0,20.04-8.973,20.04-20.04C392.273,240.924,383.301,231.952,372.233,231.952z"/>
<path style="fill:#E3AA75;" d="M183.854,167.823c-13.282,0-24.048,10.767-24.048,24.048v29.2c0,6.088-4.986,10.82-11.072,10.881
	h-8.968c-11.068,0-20.04,8.972-20.04,20.04c0,11.068,8.972,20.04,20.04,20.04h12.429c4.106,53.795,48.958,96.194,103.805,96.194
	c5.484,0,10.83-0.534,16.083-1.351c-49.946-7.708-88.228-50.754-88.228-102.859v-40.081c0-17.709,14.355-32.065,32.065-32.065
	h96.194c8.854,0,16.032-7.178,16.032-16.032v-8.016H183.854V167.823z"/>
<path d="M285.323,309.436c2.948-2.909,2.98-7.658,0.071-10.606c-2.91-2.949-7.657-2.981-10.606-0.071
	c-2.737,2.701-9.299,5.855-18.781,5.855s-16.044-3.154-18.781-5.855c-2.948-2.908-7.697-2.877-10.606,0.071
	s-2.877,7.698,0.071,10.606c6.46,6.373,17.419,10.177,29.316,10.177S278.863,315.808,285.323,309.436z"/>
<path d="M397.412,404.75l-37.76-13.327c-0.045-2.239-0.132-4.508-0.278-6.816c-0.612-9.633-7.19-17.862-16.811-20.981l-22.951-7.258
	v-0.577c25.017-17.394,42.615-44.739,47.014-76.258h5.607c15.186,0,27.54-12.354,27.54-27.541c0-2.355-0.298-4.642-0.857-6.826
	c11.049-18.497,16.889-39.626,16.889-61.312c0-50.656-31.624-94.062-76.164-111.52c0.002-0.235,0.011-0.471,0.011-0.705
	C339.652,32.133,307.52,0,268.023,0h-24.049c-39.496,0-71.629,32.133-71.629,71.629c0,0.235,0.009,0.47,0.011,0.706
	c-44.54,17.459-76.164,60.865-76.164,111.521c0,21.681,5.842,42.814,16.89,61.311c-0.559,2.184-0.857,4.471-0.857,6.826
	c0,15.186,12.354,27.541,27.54,27.541h5.607c4.399,31.519,21.997,58.864,47.014,76.258v0.577l-23.003,7.275
	c-9.568,3.103-16.146,11.332-16.759,20.965c-0.144,2.271-0.233,4.544-0.279,6.816l-37.759,13.327
	c-25.386,8.959-42.441,33.066-42.441,59.986V504.5c0,4.142,3.357,7.5,7.5,7.5c4.143,0,7.5-3.358,7.5-7.5v-39.764
	c0-6.644,1.367-13.061,3.861-18.939l36.69,31.448c5.451,4.673,8.578,11.471,8.578,18.651v8.604c0,4.142,3.357,7.5,7.5,7.5
	s7.5-3.358,7.5-7.5v-8.604c0-11.564-5.036-22.513-13.816-30.04l-38.424-32.935c5.404-6.246,12.412-11.156,20.546-14.027
	l33.239-11.731c0.049,0.612,0.095,1.224,0.152,1.834c0.361,3.889,3.63,6.806,7.459,6.806c0.232,0,0.468-0.011,0.703-0.033
	c4.124-0.383,7.157-4.038,6.773-8.162c-0.674-7.246-0.778-14.665-0.31-22.052c0.219-3.452,2.737-6.454,6.363-7.629l18.428-5.828
	v12.159c0,30.656,28.537,55.597,63.613,55.597s63.613-24.94,63.613-55.597v-12.159l18.376,5.811
	c3.678,1.192,6.196,4.194,6.415,7.646c1.817,28.656-5.402,51.429-11.778,65.487c-5.014,11.053-18.545,17.122-31.482,14.113
	L266.061,457c-6.583-1.53-13.541-1.53-20.122,0l-35.083,8.157c-12.938,3.009-26.469-3.06-31.482-14.114
	c-1.909-4.208-3.626-8.595-5.103-13.038c-1.308-3.931-5.557-6.058-9.482-4.751c-3.931,1.307-6.059,5.552-4.752,9.483
	c1.642,4.938,3.552,9.818,5.677,14.502c8.038,17.724,28.45,27.201,48.539,22.528l35.084-8.157c4.359-1.014,8.968-1.014,13.327,0
	l35.083,8.157c3.439,0.8,6.886,1.185,10.281,1.185c16.432-0.001,31.596-9.024,38.258-23.712
	c5.311-11.709,11.149-28.851,12.888-50.079l33.247,11.734c8.133,2.871,15.141,7.781,20.546,14.027l-38.424,32.935
	c-8.78,7.527-13.816,18.476-13.816,30.04v8.604c0,4.142,3.357,7.5,7.5,7.5s7.5-3.358,7.5-7.5v-8.604
	c0-7.18,3.127-13.978,8.578-18.651l36.69-31.448c2.495,5.878,3.861,12.295,3.861,18.939V504.5c0,4.142,3.357,7.5,7.5,7.5
	s7.5-3.358,7.5-7.5v-39.764C439.853,437.816,422.798,413.709,397.412,404.75z M243.975,15h24.049
	c29.85,0,54.362,23.22,56.465,52.543c-9.11-2.226-18.623-3.415-28.409-3.415h-80.162c-9.786,0-19.298,1.189-28.409,3.415
	C189.612,38.22,214.124,15,243.975,15z M300.088,224.452c-9.253,0-17.448,4.592-22.445,11.611
	c-6.309-2.338-13.779-3.595-21.644-3.595c-7.85,0-15.321,1.269-21.635,3.607c-4.995-7.026-13.195-11.623-22.453-11.623h-46.212
	c1.034-2.647,1.608-5.523,1.608-8.532v-24.049c0-9.125,7.424-16.548,16.548-16.548h104.21c4.143,0,7.5-3.358,7.5-7.5
	s-3.357-7.5-7.5-7.5h-104.21c-17.396,0-31.548,14.152-31.548,31.548v24.049c0,4.705-3.828,8.532-8.532,8.532h-4.009
	c-6.64,0-12.739,2.363-17.5,6.291c-7.26-14.484-11.072-30.505-11.072-46.888c0-57.746,46.979-104.726,104.726-104.726h80.162
	c57.746,0,104.726,46.98,104.726,104.726c0,16.386-3.81,32.405-11.071,46.889c-4.761-3.929-10.861-6.292-17.501-6.292h-3.999
	c-0.003,0-0.006,0-0.01,0h-0.01c-4.7-0.006-8.523-3.83-8.523-8.532v-24.049c0-17.396-14.152-31.548-31.548-31.548h-8.02
	c-4.143,0-7.5,3.358-7.5,7.5s3.357,7.5,7.5,7.5h8.02c9.125,0,16.548,7.423,16.548,16.548v24.049c0,3.009,0.574,5.885,1.608,8.532
	 M296.603,239.954v8.727c0,4.142,3.357,7.5,7.5,7.5s7.5-3.358,7.5-7.5v-8.723c5.216,1.52,9.041,6.334,9.041,12.034
	c0,6.915-5.626,12.54-12.541,12.54h-8.016c-6.915,0-12.54-5.625-12.54-12.541C287.548,246.287,291.38,241.469,296.603,239.954z
	 M200.41,239.954v8.727c0,4.142,3.357,7.5,7.5,7.5s7.5-3.358,7.5-7.5v-8.723c5.215,1.52,9.04,6.334,9.04,12.034
	c0,6.915-5.625,12.54-12.54,12.54h-8.016c-6.915,0-12.541-5.625-12.541-12.541C191.353,246.287,195.187,241.469,200.41,239.954z
	 M159.289,264.017c0-4.142-3.357-7.5-7.5-7.5s-7.5,3.358-7.5,7.5c0,0.173,0.006,0.344,0.007,0.516h-4.531
	c-6.915,0-12.54-5.625-12.54-12.541c0-6.915,5.625-12.54,12.54-12.54h39.622c-1.934,3.764-3.033,8.025-3.033,12.54
	c0,15.186,12.354,27.54,27.541,27.54h8.016c15.186,0,27.54-12.354,27.54-27.541c0-0.597-0.026-1.188-0.063-1.775
	c4.654-1.757,10.492-2.749,16.612-2.749c6.137,0,11.966,0.988,16.613,2.744c-0.038,0.589-0.064,1.182-0.064,1.781
	c0,15.186,12.354,27.54,27.54,27.54h8.016c15.187,0,27.541-12.354,27.541-27.541c0-4.515-1.099-8.776-3.033-12.54h39.622
	c6.915,0,12.54,5.625,12.54,12.54s-5.625,12.541-12.54,12.541h-4.531c0.001-0.172,0.007-0.344,0.007-0.516
	c0-4.142-3.357-7.5-7.5-7.5s-7.5,3.358-7.5,7.5c0,53.326-43.384,96.709-96.71,96.709S159.289,317.342,159.289,264.017z
	 M255.999,424.855c-26.806,0-48.613-18.211-48.613-40.597v-19.677c14.705,7.137,31.2,11.145,48.613,11.145
	s33.908-4.007,48.613-11.145v19.677C304.612,406.644,282.805,424.855,255.999,424.855z"/>
<g>
</g>
<g>
</g>
<g>
</g>
<g>
</g>
<g>
</g>
<g>
</g>
<g>
</g>
<g>
</g>
<g>
</g>
<g>
</g>
<g>
</g>
<g>
</g>
<g>
</g>
<g>
</g>
<g>
</g>
</svg>
