<?xml version="1.0" encoding="iso-8859-1"?>
<!-- Generator: Adobe Illustrator 19.0.0, SVG Export Plug-In . SVG Version: 6.00 Build 0)  -->
<svg version="1.1" id="Layer_1" xmlns="http://www.w3.org/2000/svg" xmlns:xlink="http://www.w3.org/1999/xlink" x="0px" y="0px"
	 viewBox="0 0 512 512" style="enable-background:new 0 0 512 512;" xml:space="preserve">
<g>
	<path style="fill:#C39B6E;" d="M359.977,80.012c42.664,0,39.997-71.995,97.951-71.995c35.331,0,57.329,34.665,39.997,71.995
		c-13.475,29.022-31.998,63.996-23.998,87.994L359.977,80.012z"/>
	<path style="fill:#C39B6E;" d="M151.99,80.012c-42.664,0-39.997-71.995-97.951-71.995c-35.331,0-57.329,34.665-39.997,71.995
		c13.475,29.022,31.998,63.996,23.998,87.994L151.99,80.012z"/>
</g>
<path style="fill:#AA825A;" d="M255.983,48.014c-136.958,0-247.984,71.995-247.984,247.984
	c0,135.991,111.026,207.987,247.984,207.987s247.984-71.995,247.984-207.987C503.967,120.009,392.942,48.014,255.983,48.014z"/>
<path style="fill:#8C705C;" d="M255.983,88.011c-88.359,0-191.988,56.839-191.988,195.777c0,107.361,85.955,164.199,191.988,164.199
	s191.988-56.838,191.988-164.199C447.971,144.85,344.344,88.011,255.983,88.011z"/>
<g>
	<path style="fill:#7C665D;" d="M221.355,271.999c-4.805-16.211-15.324-47.997-45.971-47.997
		c-22.986,0-89.628,48.745-107.266,103.993c-15.324,47.997,75.874,127.992,160.9,127.992
		C270.337,455.988,234.389,315.982,221.355,271.999z"/>
	<path style="fill:#7C665D;" d="M290.934,271.999c4.805-16.211,15.324-47.997,45.972-47.997c22.986,0,89.627,48.745,107.266,103.993
		c15.324,47.997-75.874,127.992-160.9,127.992C241.953,455.988,277.9,315.982,290.934,271.999z"/>
</g>
<path style="fill:#C39B6E;" d="M191.988,415.99c0,25.771,41.906,47.997,63.996,47.997s63.996-22.226,63.996-47.997H191.988z"/>
<path style="fill:#D7B487;" d="M273.238,256h-34.511c-9.16,0-17.496,5.175-21.533,13.397
	c-16.026,32.643-45.936,116.404-33.207,154.592c7.155,21.465,55.996,0,71.995,0s64.841,21.465,71.995,0
	c12.729-38.188-17.18-121.949-33.207-154.592C290.734,261.175,282.399,256,273.238,256z"/>
<g>
	<circle style="fill:#464655;" cx="175.989" cy="256.003" r="15.999"/>
	<circle style="fill:#464655;" cx="335.978" cy="256.003" r="15.999"/>
	<ellipse style="fill:#464655;" cx="255.983" cy="370.996" rx="41.497" ry="25.998"/>
</g>
<path d="M191.988,256c0-8.821-7.178-15.999-15.999-15.999S159.99,247.179,159.99,256c0,8.821,7.178,15.999,15.999,15.999
	S191.988,264.822,191.988,256z"/>
<path d="M335.978,240.001c-8.821,0-15.999,7.178-15.999,15.999c0,8.821,7.178,15.999,15.999,15.999s15.999-7.178,15.999-15.999
	C351.977,247.179,344.8,240.001,335.978,240.001z"/>
<path d="M480.176,148.99c2.021-2.536,2.377-6.155,0.61-9.098c-3.258-5.43,4.003-18.456,11.69-32.246
	c4.033-7.234,8.603-15.433,12.704-24.265c9.658-20.803,9.032-42.394-1.719-59.238C493.676,8.81,477.079,0.017,457.927,0.017
	c-28.379,0-41.502,21.828-53.081,41.084c-5.793,9.634-11.129,18.499-17.783,24.243c-37.798-16.571-83.12-25.33-131.081-25.33
	c-47.409,0-92.227,8.572-129.762,24.775c-6.361-5.752-11.538-14.362-17.145-23.687C97.498,21.845,84.376,0.017,55.996,0.017
	c-19.153,0-35.749,8.793-45.535,24.125C-0.289,40.986-0.915,62.578,8.743,83.381c4.101,8.832,8.67,17.031,12.704,24.265
	c7.688,13.791,14.949,26.816,11.69,32.246c-1.378,2.298-1.462,5.006-0.476,7.291c-7.697,15.818-13.427,32.576-17.478,46.67
	C5.535,227.435,0,264.667,0,295.998c0,67.265,26.185,123.169,75.723,161.669c22.907,17.802,50.313,31.512,81.46,40.748
	c30.358,9.003,63.6,13.568,98.802,13.568s68.444-4.565,98.802-13.568c31.146-9.237,58.553-22.947,81.459-40.748
	c49.537-38.501,75.722-94.405,75.722-161.669c0-31.327-5.533-68.554-15.18-102.133C492.891,180.302,487.439,164.274,480.176,148.99z
	 M255.983,495.985c-145.785,0-239.985-78.5-239.985-199.987c0-29.899,5.308-65.52,14.562-97.727
	c10.117-35.21,23.976-62.7,39.024-77.407c3.16-3.088,3.218-8.152,0.129-11.312c-3.088-3.161-8.152-3.218-11.312-0.129
	c-4.093,4-7.901,8.532-11.44,13.434c-2.717-7.169-6.994-14.842-11.541-23.001c-4.088-7.334-8.315-14.917-12.167-23.213
	c-7.312-15.749-7.059-31.747,0.694-43.893c6.788-10.636,18.469-16.735,32.049-16.735c19.33,0,28.616,15.445,39.368,33.33
	c10.897,18.123,23.247,38.666,48.626,38.666c4.418,0,7.999-3.582,7.999-7.999c0-2.809-1.45-5.274-3.64-6.702
	c32.098-11.335,68.902-17.297,107.633-17.297c39.26,0,76.545,6.121,108.949,17.761c-1.827,1.466-2.999,3.714-2.999,6.238
	c0,4.418,3.582,7.999,7.999,7.999c25.378,0,37.729-20.542,48.625-38.666c10.752-17.885,20.039-33.33,39.369-33.33
	c13.58,0,25.26,6.1,32.048,16.733c7.753,12.147,8.006,28.145,0.694,43.894c-3.852,8.294-8.079,15.878-12.167,23.213
	c-4.939,8.859-9.555,17.146-12.204,24.835c-3.896-5.598-8.125-10.762-12.717-15.25c-3.159-3.089-8.222-3.031-11.312,0.128
	c-3.088,3.159-3.031,8.224,0.128,11.312c15.043,14.706,28.898,42.194,39.012,77.401c9.252,32.204,14.559,67.82,14.559,97.716
	C495.968,417.485,401.768,495.985,255.983,495.985z"/>
<path d="M460.079,63.003c3.736,2.083,8.48,0.854,10.723-2.831c2.297-3.773,1.1-8.694-2.674-10.992
	c-3.828-2.33-11.635-4.955-20.924,3.646c-4.464,4.133-8.719,10.215-13.226,16.653c-8.075,11.539-17.229,24.618-27.575,26.686
	c-4.333,0.866-7.142,5.082-6.276,9.413c0.761,3.803,4.101,6.433,7.836,6.433c0.52,0,1.048-0.052,1.577-0.157
	c16.637-3.327,28.23-19.893,37.546-33.202C451.108,72.908,457.102,64.345,460.079,63.003z"/>
<path d="M105.562,96.166c-10.345-2.069-19.499-15.147-27.575-26.686c-4.507-6.438-8.762-12.52-13.226-16.653
	c-9.289-8.599-17.096-5.975-20.924-3.646c-3.774,2.297-4.941,7.203-2.644,10.975c2.231,3.666,6.967,4.884,10.692,2.848
	c2.979,1.342,8.972,9.904,12.993,15.649c9.315,13.31,20.909,29.875,37.546,33.202c0.53,0.106,1.057,0.157,1.577,0.157
	c3.735,0,7.076-2.63,7.835-6.433C112.704,101.246,109.894,97.032,105.562,96.166z"/>
<path d="M311.668,277.782c-0.362-1.26-1.04-2.449-2.033-3.442c-3.124-3.123-8.188-3.123-11.312,0.002
	c-4.095,4.097-1.727,9.016-0.949,10.632c0.461,0.959,1.159,2.338,2.041,4.081c7.066,13.959,28.564,56.439,28.564,86.937
	c0,18.545-3.014,30.369-9.213,36.149c-7.657,7.139-21.661,6.157-39.388,4.913c-4.991-0.35-10.111-0.694-15.402-0.893
	c0.001-0.058,0.009-0.114,0.009-0.172v-15.973c1.806,0.009,3.535,0.016,5.161,0.016c17.916,0,34.837,0,34.837-24.04
	c0-22.055-21.532-39.997-47.997-39.997s-47.997,17.943-47.997,39.997c0,6.644,1.045,16.016,10.079,20.696
	c5.995,3.105,14.042,3.345,24.757,3.345c1.625,0,3.355-0.007,5.161-0.016v15.973c0,0.06,0.008,0.116,0.009,0.175
	c-5.378,0.206-10.578,0.567-15.647,0.934c-17.613,1.274-31.525,2.28-39.134-4.801c-6.207-5.774-9.223-17.649-9.223-36.306
	c0-21.362,10.622-53.315,29.91-89.973c1.562-2.969,2.088-3.969,2.088-6.021c0-4.418-3.582-7.999-7.999-7.999
	c-3.336,0-6.195,2.042-7.396,4.943c-0.171,0.339-0.462,0.888-0.852,1.628c-20.772,39.477-31.751,73.166-31.751,97.424
	c0,23.669,4.552,38.928,14.325,48.019c0.565,0.525,1.143,1.022,1.731,1.496c1.192,25.54,32.182,54.477,71.938,54.477
	c39.84,0,70.874-29.06,71.944-54.637c0.593-0.479,1.179-0.975,1.748-1.506c9.757-9.097,14.302-24.302,14.302-47.851
	c0-34.316-22.005-77.794-30.288-94.161C312.88,280.23,312.046,278.583,311.668,277.782z M309.656,285.635
	c0.667-0.672,1.191-1.433,1.571-2.245C310.866,284.169,310.355,284.932,309.656,285.635z M225.424,382.482
	c-0.356-0.185-1.439-0.745-1.439-6.49c0-13.232,14.354-23.998,31.998-23.998c17.644,0,31.998,10.766,31.998,23.998
	c0,5.743-1.084,6.305-1.44,6.49c-2.998,1.553-12.012,1.553-17.398,1.553c-1.805,0-3.72-0.009-5.75-0.019
	c-2.319-0.012-4.786-0.023-7.411-0.023c-2.624,0-5.092,0.012-7.411,0.023c-2.03,0.01-3.946,0.019-5.75,0.019
	C237.437,384.034,228.421,384.034,225.424,382.482z M255.983,463.987c-26.752,0-47.406-16.203-53.867-30.917
	c4.021,0.655,8.25,0.906,12.635,0.906c6.022,0,12.328-0.456,18.748-0.92c7.255-0.524,14.756-1.067,22.484-1.067
	c7.654,0,15.086,0.521,22.274,1.025c11.189,0.785,22.03,1.545,31.641-0.057C303.493,447.702,282.803,463.987,255.983,463.987z"/>
<path d="M263.983,439.989h-15.999c-4.418,0-7.999,3.582-7.999,7.999c0,4.418,3.582,7.999,7.999,7.999h15.999
	c4.418,0,7.999-3.582,7.999-7.999C271.982,443.57,268.401,439.989,263.983,439.989z"/>
<g>
</g>
<g>
</g>
<g>
</g>
<g>
</g>
<g>
</g>
<g>
</g>
<g>
</g>
<g>
</g>
<g>
</g>
<g>
</g>
<g>
</g>
<g>
</g>
<g>
</g>
<g>
</g>
<g>
</g>
</svg>
