<svg height="512pt" viewBox="-80 0 511 512" width="512pt" xmlns="http://www.w3.org/2000/svg"><path d="m302.894531 339.71875-76.429687-28.601562v-73.257813h-100.40625v73.257813l-76.429688 28.601562c-25.035156 9.367188-41.625 33.289062-41.625 60.015625v99.703125c0 2.796875 2.265625 5.0625 5.0625 5.0625h326.390625c2.796875 0 5.0625-2.265625 5.0625-5.0625v-99.703125c0-26.726563-16.589843-50.648437-41.625-60.015625zm0 0" fill="#f8cc7c"/><path d="m302.894531 339.71875-76.429687-28.601562v-73.257813h-22.742188v73.257813l76.429688 28.601562c25.035156 9.367188 41.625 33.289062 41.625 60.015625v99.703125c0 2.796875-2.265625 5.0625-5.0625 5.0625h22.742187c2.796875 0 5.0625-2.265625 5.0625-5.0625v-99.703125c0-26.726563-16.589843-50.648437-41.625-60.015625zm0 0" fill="#d3a159"/><path d="m248.730469 331.257812c-12.140625 28.007813-40.003907 47.609376-72.46875 47.609376-32.46875 0-60.332031-19.601563-72.46875-47.609376-12.824219 42.605469-15.566407 115.289063 12.828125 173.242188h119.28125c28.394531-57.953125 25.652344-130.636719 12.828125-173.242188zm0 0" fill="#935d38"/><path d="m254.484375 356.582031c-1.523437-9.21875-3.476563-17.753906-5.753906-25.324219-12.140625 28.007813-40.003907 47.609376-72.46875 47.609376-32.46875 0-60.332031-19.601563-72.46875-47.609376-5.929688 19.695313-9.691407 45.820313-9.230469 73.945313 15.515625 6.429687 32.53125 9.988281 50.375 9.988281 45.6875 0 85.933594-23.273437 109.546875-58.609375zm0 0" fill="#4e5173"/><path d="m176.261719 378.867188c36.367187 0 66.972656-24.585938 76.15625-58.039063l-25.953125-9.710937v-72.21875c-.433594-.359376-.882813-.695313-1.324219-1.039063h-97.757813c-.441406.34375-.890624.679687-1.324218 1.039063v72.21875l-25.957032 9.710937c9.183594 33.453125 39.792969 58.039063 76.160157 58.039063zm0 0" fill="#f9c295"/><path d="m225.140625 237.859375h-97.757813c-.441406.34375-.890624.679687-1.324218 1.039063v54.355468c19.457031 15.355469 43.144531 24.375 68.703125 24.375 11.878906 0 23.347656-1.957031 34.183593-5.582031l-2.480468-.929687v-72.21875c-.433594-.359376-.882813-.695313-1.324219-1.039063zm0 0" fill="#e59f6a"/><path d="m302.3125 219.851562h-36.214844v-63.011718h36.214844c10.421875 0 18.867188 8.449218 18.867188 18.867187v25.273438c0 10.421875-8.445313 18.871093-18.867188 18.871093zm0 0" fill="#e59f6a"/><path d="m50.210938 219.851562h36.214843v-63.011718h-36.214843c-10.421876 0-18.871094 8.449218-18.871094 18.867187v25.273438c0 10.421875 8.449218 18.871093 18.871094 18.871093zm0 0" fill="#e59f6a"/><path d="m296.148438 160.890625c0-74.59375-53.675782-135.0625-119.886719-135.0625-66.210938 0-119.886719 60.46875-119.886719 135.0625s53.675781 135.066406 119.886719 135.066406c66.210937 0 119.886719-60.472656 119.886719-135.066406zm0 0" fill="#e6eff5"/><path d="m176.261719 25.828125c-2.078125 0-4.140625.0625-6.191407.179687 57.109376 3.628907 102.523438 62.632813 102.523438 134.882813 0 72.253906-45.414062 131.257813-102.523438 134.886719 2.050782.117187 4.113282.179687 6.191407.179687 66.210937 0 119.886719-60.472656 119.886719-135.066406s-53.675782-135.0625-119.886719-135.0625zm0 0" fill="#c5d3d6"/><g fill="#935d38"><path d="m158.195312 17.582031v31.050781c0 7.015626 5.691407 12.703126 12.707032 12.703126h10.714844c7.019531 0 12.707031-5.6875 12.707031-12.703126v-31.050781c0-5.566406-4.515625-10.082031-10.082031-10.082031h-15.964844c-5.566406 0-10.082032 4.515625-10.082032 10.082031zm0 0"/><path d="m300.9375 108.441406h-8.273438c-7.003906 0-12.679687 5.679688-12.679687 12.679688v10.769531c0 7 5.675781 12.679687 12.679687 12.679687h8.273438c6.605469 0 11.960938-5.355468 11.960938-11.960937v-12.207031c0-6.605469-5.355469-11.960938-11.960938-11.960938zm0 0"/><path d="m51.582031 108.441406h8.277344c7 0 12.679687 5.679688 12.679687 12.679688v10.769531c0 7-5.679687 12.679687-12.679687 12.679687h-8.277344c-6.605469 0-11.960937-5.355468-11.960937-11.960937v-12.207031c0-6.605469 5.355468-11.960938 11.960937-11.960938zm0 0"/></g><path d="m255.246094 158.820312c0-12.910156-12.128906-23.378906-27.09375-23.378906s-27.09375 10.46875-27.09375 23.378906c0 12.910157 12.128906 23.375 27.09375 23.375s27.09375-10.464843 27.09375-23.375zm0 0" fill="#4e5173"/><path d="m151.464844 158.820312c0-12.910156-12.132813-23.378906-27.097656-23.378906-14.960938 0-27.09375 10.46875-27.09375 23.378906 0 12.910157 12.132812 23.375 27.09375 23.375 14.964843 0 27.097656-10.464843 27.097656-23.375zm0 0" fill="#4e5173"/><path d="m174.828125 126.527344-32.898437-33.789063c-2.144532-2.203125.011718-5.816406 2.96875-4.980469l30.816406 8.753907c.355468.101562.734375.101562 1.09375 0l30.8125-8.753907c2.957031-.835937 5.113281 2.777344 2.972656 4.980469l-32.902344 33.789063c-.78125.808594-2.078125.808594-2.863281 0zm0 0" fill="#ed6161"/><path d="m108.660156 317.628906-34.445312 12.886719-19.429688 36.710937 23.214844 13.109376-23.214844 34.773437s20.617188 62.660156 46.710938 89.390625h15.125c-31.707032-64.71875-24.59375-147.816406-7.960938-186.871094zm0 0" fill="#d3a159"/><path d="m251.027344 504.5c26.09375-26.730469 46.707031-89.390625 46.707031-89.390625l-23.214844-34.773437 23.214844-13.109376-19.429687-36.710937-34.445313-12.886719c16.636719 39.054688 23.75 122.152344-7.957031 186.871094zm0 0" fill="#d3a159"/><path d="m305.519531 332.695312-24.386719-9.125c-.066406-.027343-.132812-.054687-.199218-.078124l-34.445313-12.890626c-.070312-.027343-.140625-.050781-.210937-.074218l-12.316406-4.609375v-17.863281c10.878906-6.191407 21.003906-14.171876 30.054687-23.796876 2.835937-3.019531 2.691406-7.765624-.328125-10.601562-3.015625-2.839844-7.761719-2.691406-10.601562.328125-8.898438 9.464844-18.953126 17.117187-29.773438 22.789063-.207031.09375-.410156.199218-.609375.3125-14.433594 7.445312-30.222656 11.375-46.441406 11.375-65.625 0-116.75-63.460938-112.097657-136.851563 9.066407-1.980469 15.871094-10.070313 15.871094-19.71875v-10.765625c0-5.453125-2.171875-10.40625-5.695312-14.039062 14.574218-35.457032 43.003906-61.578126 76.355468-70.429688v11.976562c0 11.140626 9.066407 20.203126 20.207032 20.203126h10.714844c11.144531 0 20.207031-9.0625 20.207031-20.203126v-11.976562c33.355469 8.847656 61.78125 34.972656 76.355469 70.429688-3.523438 3.632812-5.695313 8.585937-5.695313 14.039062v10.765625c0 9.648437 6.808594 17.738281 15.871094 19.71875 1.484375 23.355469-2.675781 45.585937-10.917969 64.871094-.132812.261719-.25.535156-.351562.816406-2.097657 4.824219-4.476563 9.511719-7.121094 14.039063-2.089844 3.574218-.886719 8.167968 2.691406 10.257812 1.1875.695312 2.492188 1.027344 3.777344 1.027344 2.578125 0 5.085937-1.332032 6.480468-3.714844 2.195313-3.757812 4.226563-7.613281 6.082032-11.558594h13.3125c14.542968 0 26.371094-11.828125 26.371094-26.367187v-25.269531c0-12.171876-8.285157-22.441407-19.515626-25.46875 6.632813-3.105469 11.234376-9.839844 11.234376-17.632813v-12.207031c0-10.730469-8.730469-19.460938-19.460938-19.460938h-8.273438c-.265624 0-.523437.007813-.785156.015625-16.96875-40.917969-50.664062-70.746093-90.054687-79.746093v-3.628907c0-9.695312-7.886719-17.582031-17.582031-17.582031h-15.964844c-9.691406 0-17.582032 7.886719-17.582032 17.582031v3.628907c-39.386718 9-73.085937 38.832031-90.054687 79.75-.257813-.011719-.523437-.015626-.785156-.015626h-8.273438c-10.730469 0-19.460937 8.726563-19.460937 19.457032v12.207031c0 7.792969 4.605468 14.53125 11.234375 17.636719-11.226563 3.023437-19.515625 13.292968-19.515625 25.464844v25.269531c0 14.542969 11.832031 26.371093 26.371094 26.371093h13.367187c12.289063 25.996094 31.554687 47.25 54.980469 60.628907v17.941406l-12.316406 4.605469c-.070313.023437-.140626.050781-.210938.074218l-34.445312 12.890626c-.066407.027343-.136719.054687-.203126.082031l-24.375 9.121093c-6.472656 2.417969-12.542968 5.746094-18.042968 9.898438-3.308594 2.496094-3.964844 7.199219-1.46875 10.503906 1.472656 1.953125 3.71875 2.980469 5.992187 2.980469 1.570313 0 3.160157-.492187 4.511719-1.511719 4.34375-3.277344 9.140625-5.910156 14.257812-7.824218l6.089844-2.277344-10.191406 19.25c-1.898438 3.59375-.59375 8.042968 2.941406 10.039062l16.179688 9.136719-18.726563 28.054687c-1.28125 1.917969-1.609375 4.316407-.890625 6.507813.75 2.273437 16.304688 49.082031 37.992188 79.546875h-20.878906v-12.5c0-4.140625-3.359376-7.5-7.5-7.5-4.140626 0-7.5 3.359375-7.5 7.5v12.5h-34.273438v-97.261719c0-8.785156 2.085938-17.574219 6.03125-25.417969 1.859375-3.703124.367188-8.210937-3.332031-10.070312-3.699219-1.863281-8.207031-.371094-10.070313 3.332031-4.992187 9.925781-7.628906 21.046875-7.628906 32.15625v99.703125c0 6.925782 5.632812 12.558594 12.558594 12.558594h326.402344c6.925781 0 12.558593-5.632812 12.558593-12.558594v-99.703125c0-29.703125-18.6875-56.644531-46.5-67.042969zm8.160157-156.984374v25.269531c0 6.269531-5.101563 11.371093-11.367188 11.371093h-7.210938c5.257813-15.222656 8.152344-31.40625 8.511719-47.9375 5.65625.648438 10.066407 5.46875 10.066407 11.296876zm-8.28125-55.308594v12.207031c0 2.460937-2 4.460937-4.460938 4.460937-5.472656-.003906-3.46875 0-8.273438 0-2.855468 0-5.179687-2.324218-5.179687-5.179687v-10.769531c0-2.855469 2.324219-5.179688 5.179687-5.179688h8.273438c2.460938 0 4.460938 2.003906 4.460938 4.460938zm-137.117188-105.402344h15.960938c1.425781 0 2.582031 1.15625 2.582031 2.582031v9.539063c-.003907.171875-.003907.339844 0 .507812v21.003906c0 2.867188-2.335938 5.203126-5.203125 5.203126h-10.71875c-2.871094 0-5.203125-2.335938-5.203125-5.203126v-21.003906c.003906-.167968.003906-.335937 0-.507812v-9.539063c0-1.425781 1.15625-2.582031 2.582031-2.582031zm-121.160156 105.402344c0-2.457032 2-4.460938 4.460937-4.460938h8.277344c2.855469 0 5.179687 2.324219 5.179687 5.183594v10.765625c0 2.855469-2.324218 5.179687-5.179687 5.179687-2.0625 0-3.613281 0-8.277344 0-2.457031 0-4.460937-2-4.460937-4.460937zm3.089844 91.949218c-6.269532 0-11.371094-5.101562-11.371094-11.371093v-25.269531c0-5.828126 4.410156-10.648438 10.070312-11.296876.367188 16.859376 3.363282 33.003907 8.542969 47.9375zm200.296874 189.066407c-.074218 24.800781-3.558593 61.101562-19.351562 95.582031h-109.789062c-12.90625-28.183594-17.59375-57.578125-18.914063-80.917969 12.785156 4.101563 26.078125 6.3125 39.660156 6.582031h.152344c4.074219 0 7.414063-3.257812 7.496094-7.347656.082031-4.140625-3.207031-7.566406-7.347657-7.648437-13.902343-.277344-27.46875-2.832031-40.390624-7.597657.011718-5.792968.203124-11.5625.566406-17.246093.675781-10.425781 1.9375-20.578125 3.714844-30.042969.101562-.539062.207031-1.078125.3125-1.613281 16.074218 21.839843 41.769531 35.203125 69.644531 35.203125 27.867187 0 53.554687-13.355469 69.632812-35.183594.234375 1.210938.464844 2.433594.683594 3.667969-18.199219 25.921875-45.085937 43.699219-76.007813 50.191406-4.054687.851563-6.652343 4.824219-5.800781 8.878906.851563 4.054688 4.824219 6.652344 8.878907 5.800781 29.636718-6.21875 55.957031-21.675781 75.714843-44.175781.777344 8.445313 1.171875 17.144531 1.144531 25.867188zm-121.820312-83.273438c2.929688-1.097656 4.875-3.894531 4.875-7.023437v-15.898438c13.351562 5.332032 27.726562 8.238282 42.699219 8.238282 14.742187 0 29.148437-2.808594 42.699219-8.191407v15.851563c0 3.128906 1.941406 5.929687 4.871093 7.023437l14.328125 5.363281c.898438 2.300782 1.753906 4.714844 2.566406 7.230469-11.859374 24.773438-36.871093 40.632813-64.464843 40.632813s-52.605469-15.859375-64.464844-40.632813c.808594-2.515625 1.667969-4.929687 2.566406-7.230469zm-23.9375 178.855469c-20.253906-22.617188-37.15625-68.027344-41.660156-80.816406l21.148437-31.683594c1.160157-1.734375 1.542969-3.875 1.058594-5.902344-.484375-2.03125-1.789063-3.769531-3.605469-4.792968l-16.859375-9.519532 14.679688-27.738281 16.75-6.265625c-6.375 21.722656-9.636719 48.3125-9.199219 75.042969.003906.230469.015625.453125.042969.675781.527343 29.683594 5.652343 61.621094 17.894531 91zm142.773438 0c19.554687-46.933594 20.953124-100.390625 14.453124-140.753906-.011718-.296875-.042968-.589844-.09375-.886719-1.484374-8.984375-3.375-17.414063-5.621093-25.082031l16.75 6.269531 14.679687 27.734375-16.859375 9.523438c-1.816406 1.023437-3.121093 2.761718-3.605469 4.789062-.484374 2.03125-.101562 4.167969 1.058594 5.902344l21.148438 31.6875c-4.5 12.785156-21.382813 58.175781-41.660156 80.816406zm89.496093 0h-34.273437v-12.5c0-4.144531-3.355469-7.5-7.5-7.5-4.140625 0-7.5 3.355469-7.5 7.5v12.5h-20.878906c21.691406-30.464844 37.242187-77.273438 37.992187-79.546875.71875-2.191406.394531-4.589844-.886719-6.507813l-18.730468-28.054687 16.179687-9.136719c3.539063-1.996094 4.839844-6.449218 2.941406-10.039062l-10.1875-19.25 6.089844 2.277344c21.984375 8.21875 36.753906 29.519531 36.753906 52.996093zm0 0"/><path d="m228.152344 127.941406c-19.074219 0-34.59375 13.851563-34.59375 30.878906 0 17.023438 15.519531 30.875 34.59375 30.875 19.078125 0 34.597656-13.851562 34.597656-30.875 0-17.027343-15.519531-30.878906-34.597656-30.878906zm0 46.753906c-10.804688 0-19.59375-7.121093-19.59375-15.875 0-8.753906 8.792968-15.878906 19.59375-15.878906 10.804687 0 19.597656 7.125 19.597656 15.878906 0 8.753907-8.792969 15.875-19.597656 15.875zm0 0"/><path d="m158.964844 158.820312c0-17.027343-15.519532-30.878906-34.597656-30.878906-19.074219 0-34.59375 13.851563-34.59375 30.878906 0 17.023438 15.519531 30.875 34.59375 30.875 19.078124 0 34.597656-13.851562 34.597656-30.875zm-34.597656 15.875c-10.804688 0-19.59375-7.121093-19.59375-15.875 0-8.753906 8.789062-15.878906 19.59375-15.878906 10.804687 0 19.597656 7.125 19.597656 15.878906 0 8.753907-8.792969 15.875-19.597656 15.875zm0 0"/><path d="m167.210938 202.386719c6.261718-3.851563 11.839843-3.851563 18.101562 0 1.222656.753906 2.582031 1.113281 3.921875 1.113281 2.519531 0 4.976563-1.269531 6.394531-3.570312 2.171875-3.527344 1.070313-8.144532-2.457031-10.316407-11.0625-6.808593-22.757813-6.808593-33.820313 0-3.527343 2.171875-4.628906 6.789063-2.457031 10.316407 2.167969 3.527343 6.789063 4.628906 10.316407 2.457031zm0 0"/><path d="m200.003906 224.5h-1c-4.144531 0-7.5 3.355469-7.5 7.5s3.355469 7.5 7.5 7.5h1c4.140625 0 7.5-3.355469 7.5-7.5s-3.359375-7.5-7.5-7.5zm0 0"/><path d="m200.003906 256h-1c-4.144531 0-7.5 3.355469-7.5 7.5s3.355469 7.5 7.5 7.5h1c4.140625 0 7.5-3.355469 7.5-7.5s-3.359375-7.5-7.5-7.5zm0 0"/><path d="m153.519531 224.5h-1c-4.140625 0-7.5 3.355469-7.5 7.5s3.359375 7.5 7.5 7.5h1c4.140625 0 7.5-3.355469 7.5-7.5s-3.359375-7.5-7.5-7.5zm0 0"/><path d="m153.519531 256h-1c-4.140625 0-7.5 3.355469-7.5 7.5s3.359375 7.5 7.5 7.5h1c4.140625 0 7.5-3.355469 7.5-7.5s-3.359375-7.5-7.5-7.5zm0 0"/><path d="m176.261719 134.632812c2.546875 0 5.027343-1.046874 6.804687-2.871093l32.902344-33.792969c3.363281-3.453125 3.964844-8.5625 1.492188-12.703125-2.472657-4.140625-7.246094-6.039063-11.886719-4.71875l-29.3125 8.324219-29.3125-8.324219c-4.640625-1.316406-9.417969.578125-11.886719 4.71875-2.472656 4.144531-1.871094 9.25 1.492188 12.707031l32.898437 33.789063c1.777344 1.824219 4.257813 2.871093 6.808594 2.871093zm-2.597657-30.90625c1.699219.480469 3.492188.484376 5.191407 0l14.613281-4.148437-17.207031 17.671875-17.207031-17.671875zm0 0"/><path d="m231.875 201.75c-4.144531 0-7.5 3.355469-7.5 7.5s3.355469 7.5 7.5 7.5h1c4.140625 0 7.5-3.355469 7.5-7.5s-3.359375-7.5-7.5-7.5zm0 0"/><path d="m248.207031 219.167969c-4.140625 0-7.5 3.355469-7.5 7.5 0 4.140625 3.359375 7.5 7.5 7.5h1c4.140625 0 7.5-3.359375 7.5-7.5 0-4.144531-3.359375-7.5-7.5-7.5zm0 0"/><path d="m119.648438 201.75c-4.140626 0-7.5 3.355469-7.5 7.5s3.359374 7.5 7.5 7.5h1c4.140624 0 7.5-3.355469 7.5-7.5s-3.359376-7.5-7.5-7.5zm0 0"/><path d="m103.316406 219.167969c-4.144531 0-7.5 3.355469-7.5 7.5 0 4.140625 3.355469 7.5 7.5 7.5h1c4.140625 0 7.5-3.359375 7.5-7.5 0-4.144531-3.359375-7.5-7.5-7.5zm0 0"/></svg>