<svg height="511pt" viewBox="-22 0 511 511.99876" width="511pt" xmlns="http://www.w3.org/2000/svg"><path d="m342.355469 352.886719-40.496094-15.15625c36.015625-31.476563 68.28125-64.097657 72.292969-112.976563 4.667968-56.90625-19.410156-124.34375-45.183594-148.5-25.773438-24.160156-87.304688-54.03125-103.125-59.546875-21.992188-8.597656-56.078125-17-73.695312 4.113281-17.617188 21.113282-71.167969 71.402344-81.113282 74.488282-9.945312 3.089844-49.605468-3.5-58.328125-9.851563-8.40625-6.121093-15.132812 46.839844 69.304688 78.164063-4.222657 20.136718-6.101563 41.273437-4.472657 61.132812 4.007813 48.878906 36.277344 81.5 72.292969 112.980469l-40.5 15.152344c-23.03125 8.621093-38.296875 30.628906-38.296875 55.222656v91.730469c0 2.574218 2.085938 4.660156 4.660156 4.660156h300.300782c2.574218 0 4.660156-2.085938 4.660156-4.660156v-91.730469c0-24.59375-15.265625-46.605469-38.300781-55.222656zm0 0" fill="#6e7093"/><path d="m342.355469 352.886719-40.496094-15.152344c36.015625-31.480469 68.28125-64.101563 72.292969-112.980469 4.667968-56.90625-19.410156-124.34375-45.183594-148.5-25.773438-24.160156-87.304688-54.03125-103.125-59.546875-14.886719-5.820312-35.304688-11.535156-52.417969-8.085937 10.242188 1.609375 20.296875 4.832031 28.621094 8.085937 15.820313 5.515625 77.347656 35.386719 103.121094 59.546875 25.773437 24.160156 49.855469 91.59375 45.1875 148.5-3.816407 46.496094-33.203125 78.28125-67.0625 108.367188-2.359375 2.097656-1.644531 5.953125 1.3125 7.0625l33.953125 12.703125c23.03125 8.617187 38.296875 30.628906 38.296875 55.222656v91.730469c0 2.574218-2.082031 4.660156-4.65625 4.660156h23.796875c2.574218 0 4.660156-2.085938 4.660156-4.660156v-91.730469c0-24.59375-15.265625-46.605469-38.300781-55.222656zm0 0" fill="#4e5173"/><path d="m330.128906 181.113281c0-57.59375-46.6875-90.726562-104.285156-90.726562-57.59375 0-104.28125 33.132812-104.28125 90.726562 0 32.332031 14.726562 61.210938 37.828125 80.335938 3.554687 2.941406 5.589844 7.328125 5.589844 11.941406v22.136719c0 10.921875 8.394531 20.324218 19.308593 20.835937 11.648438.546875 21.265626-8.734375 21.265626-20.261719 0 11.203126 9.085937 20.285157 20.289062 20.285157 11.207031 0 20.289062-9.082031 20.289062-20.285157 0 11.527344 9.617188 20.8125 21.269532 20.261719 10.910156-.511719 19.304687-9.914062 19.304687-20.835937v-22.136719c0-4.613281 2.039063-9 5.589844-11.941406 23.101563-19.125 37.832031-48.003907 37.832031-80.335938zm0 0" fill="#e6eff5"/><path d="m225.84375 90.386719c-3.421875 0-6.804688.121093-10.140625.355469 52.835937 3.671874 94.140625 36.199218 94.140625 90.371093 0 32.332031-14.730469 61.210938-37.832031 80.335938-3.550781 2.941406-5.589844 7.328125-5.589844 11.941406v22.136719c0 7.601562-4.066406 14.453125-10.21875 18.097656 3.265625 1.90625 7.101563 2.933594 11.195313 2.738281 10.914062-.511719 19.308593-9.914062 19.308593-20.835937v-22.136719c0-4.613281 2.035157-9 5.589844-11.941406 23.101563-19.125 37.832031-48.003907 37.832031-80.335938 0-57.59375-46.691406-90.726562-104.285156-90.726562zm0 0" fill="#c5d3d6"/><path d="m294.734375 199.160156c0 16.539063-10.746094 20.539063-24.003906 20.539063-13.257813 0-24.003907-4-24.003907-20.539063 0-16.535156 10.746094-34.394531 24.003907-34.394531 13.253906 0 24.003906 17.859375 24.003906 34.394531zm0 0" fill="#4e5173"/><path d="m204.960938 199.160156c0 16.539063-10.746094 20.539063-24 20.539063-13.257813 0-24.003907-4-24.003907-20.539063 0-16.535156 10.746094-34.394531 24.003907-34.394531 13.253906 0 24 17.859375 24 34.394531zm0 0" fill="#4e5173"/><path d="m454.984375 446.070312c20.339844-68.792968-10.632813-140.558593-70.621094-174.289062l-27.507812 47.648438c50.824219 25.816406 84.804687 74.992187 92.363281 129.925781.34375 2.496093 3.828125 2.84375 4.605469.449219.402343-1.238282.789062-2.480469 1.160156-3.734376zm0 0" fill="#d8e6f0"/><path d="m409.308594 289.386719c-7.613282-6.628907-15.949219-12.546875-24.945313-17.605469l-27.507812 47.648438c9.164062 4.652343 17.773437 10.078124 25.785156 16.148437zm0 0" fill="#97aeba"/><path d="m375.410156 282.101562-128.40625 222.398438h-29.644531l135.8125-235.246094zm0 0" fill="#e59f6a"/><path d="m357.523438 243.195312-40.011719 69.300782c-1.175781 2.039062-.480469 4.648437 1.5625 5.828125l30.890625 17.835937c2.039062 1.175782 4.648437.476563 5.824218-1.5625l40.011719-69.304687c1.179688-2.039063.480469-4.644531-1.558593-5.824219l-30.894532-17.835938c-2.039062-1.175781-4.648437-.476562-5.824218 1.5625zm0 0" fill="#bdcdd6"/><path d="m80.210938 265.480469c1.234374 2.8125 3.988281 4.484375 6.871093 4.484375 1.007813 0 2.03125-.203125 3.011719-.632813 3.792969-1.664062 5.515625-6.085937 3.851562-9.878906-12.914062-29.425781-11.136718-63.085937-4.59375-94.292969.03125-.160156.0625-.316406.082032-.472656 3.105468-14.707031 7.605468-29.320312 13.34375-42.917969 1.609375-3.816406-.175782-8.214843-3.992188-9.828125-3.816406-1.609375-8.214844.179688-9.824218 3.996094-5.039063 11.9375-9.179688 24.625-12.328126 37.511719-39.617187-16.515625-53.417968-36.933594-58.164062-48.042969-1.796875-4.207031-2.566406-7.664062-2.835938-10.230469 16.054688 6.089844 47.199219 10.53125 57.625 7.296875 12.910157-4.007812 68.121094-57.042968 84.648438-76.847656 6.445312-7.722656 23.488281-18.246094 65.207031-1.929688.085938.03125.175781.0625.261719.09375 14.835938 5.171876 75.769531 34.789063 100.464844 57.9375 22.128906 20.742188 44.820312 79.289063 43.328125 133.375-.113281 4.140626 3.148437 7.589844 7.289062 7.703126 4.121094.125 7.589844-3.148438 7.703125-7.289063 1.476563-53.578125-20.082031-118.503906-48.066406-144.730469-26.988281-25.300781-88.863281-55.214844-105.648438-61.109375-37.882812-14.78125-66.253906-12.59375-82.054687 6.339844-18.8125 22.539063-69.699219 69.09375-77.578125 72.132813-7.804688 2.421874-45-3.878907-51.691406-8.753907-3.109375-2.261719-7.046875-2.542969-10.285156-.734375-4.59375 2.566406-6.867188 8.75-6.230469 16.96875.527343 6.859375 3.539062 20.746094 17.757812 36.679688 12.847657 14.390625 31.351563 26.5 55.074219 36.039062-6.050781 32.917969-6.558594 66.75 6.773438 97.132813zm0 0"/><path d="m183.9375 323.855469c.453125.019531.902344.03125 1.355469.03125 7.175781 0 13.933593-2.699219 19.15625-7.679688.382812-.367187.757812-.746093 1.117187-1.128906 5.074219 5.417969 12.289063 8.808594 20.277344 8.808594 7.992188 0 15.207031-3.390625 20.28125-8.808594.359375.386719.734375.761719 1.117188 1.128906 5.546874 5.292969 12.851562 8.007813 20.511718 7.648438 14.832032-.699219 26.453125-13.144531 26.453125-28.328125v-22.136719c0-2.40625 1.046875-4.652344 2.875-6.164063 25.769531-21.335937 40.546875-52.722656 40.546875-86.113281 0-29.734375-11.511718-54.894531-33.289062-72.757812-20.015625-16.421875-47.890625-25.464844-78.496094-25.464844-30.601562 0-58.476562 9.042969-78.496094 25.464844-21.773437 17.863281-33.285156 43.023437-33.285156 72.757812 0 33.390625 14.777344 64.78125 40.546875 86.113281 1.828125 1.511719 2.875 3.757813 2.875 6.164063v22.136719c0 15.183594 11.621094 27.628906 26.453125 28.328125zm-54.875-142.742188c0-41.425781 29.925781-83.226562 96.78125-83.226562 66.859375 0 96.785156 41.800781 96.785156 83.226562 0 28.910157-12.796875 56.085938-35.113281 74.558594-5.28125 4.371094-8.308594 10.828125-8.308594 17.71875v22.136719c0 7.042968-5.453125 13.03125-12.160156 13.347656-3.53125.164062-6.898437-1.082031-9.453125-3.519531s-3.960938-5.726563-3.960938-9.253907v-17.15625c0-4.140624-3.359374-7.496093-7.5-7.496093-4.140624 0-7.5 3.355469-7.5 7.496093v17.15625c0 7.050782-5.734374 12.789063-12.789062 12.789063-7.050781 0-12.789062-5.738281-12.789062-12.789063v-17.15625c0-4.140624-3.355469-7.496093-7.496094-7.496093-4.144532 0-7.5 3.355469-7.5 7.496093v17.15625c0 3.527344-1.40625 6.816407-3.964844 9.253907-2.550781 2.4375-5.902344 3.683593-9.449219 3.519531-6.707031-.316406-12.164062-6.304688-12.164062-13.347656v-22.136719c0-6.890625-3.027344-13.347656-8.304688-17.71875-22.316406-18.472656-35.113281-45.648437-35.113281-74.558594zm0 0"/><path d="m270.730469 227.199219c26.039062 0 31.503906-15.246094 31.503906-28.039063 0-9.589844-3.023437-19.632812-8.285156-27.550781-6.152344-9.25-14.398438-14.34375-23.21875-14.34375-8.820313 0-17.066407 5.09375-23.21875 14.34375-5.265625 7.917969-8.28125 17.960937-8.28125 27.550781 0 12.792969 5.464843 28.039063 31.5 28.039063zm0-54.933594c8.019531 0 16.503906 13.824219 16.503906 26.894531 0 8.457032-2.628906 13.042969-16.503906 13.042969-13.871094 0-16.503907-4.585937-16.503907-13.042969 0-13.070312 8.484376-26.894531 16.503907-26.894531zm0 0"/><path d="m212.460938 199.160156c0-9.589844-3.019532-19.632812-8.285157-27.550781-6.148437-9.25-14.394531-14.34375-23.214843-14.34375-8.820313 0-17.066407 5.09375-23.21875 14.34375-5.261719 7.917969-8.285157 17.960937-8.285157 27.550781 0 12.792969 5.464844 28.039063 31.503907 28.039063 26.035156 0 31.5-15.246094 31.5-28.039063zm-48.003907 0c0-13.070312 8.484375-26.894531 16.503907-26.894531 8.019531 0 16.503906 13.824219 16.503906 26.894531 0 8.457032-2.628906 13.042969-16.503906 13.042969-13.875-.003906-16.503907-4.585937-16.503907-13.042969zm0 0"/><path d="m207.835938 241.820312c2.695312 3.144532 7.429687 3.507813 10.574218.8125 5.417969-4.644531 9.449219-4.644531 14.871094 0 1.414062 1.210938 3.148438 1.804688 4.875 1.804688 2.117188 0 4.214844-.890625 5.699219-2.617188 2.695312-3.144531 2.332031-7.878906-.8125-10.574218-11.089844-9.507813-23.300781-9.507813-34.390625 0-3.148438 2.695312-3.511719 7.429687-.816406 10.574218zm0 0"/><path d="m400.132812 272.789062 2.164063-3.746093c1.570313-2.71875 1.988281-5.890625 1.175781-8.925781-.8125-3.035157-2.761718-5.570313-5.480468-7.140626l-30.894532-17.835937c-2.722656-1.574219-5.894531-1.988281-8.925781-1.175781-3.035156.8125-5.574219 2.761718-7.144531 5.484375l-40.007813 69.296875c-2.816406 4.875-1.734375 10.945312 2.269531 14.585937l-100.257812 173.667969h-77.5v-48.460938c0-4.144531-3.355469-7.5-7.5-7.5-4.140625 0-7.496094 3.355469-7.496094 7.5v48.460938h-42v-88.890625c0-21.347656 13.433594-40.71875 33.425782-48.199219l40.5-15.15625c2.472656-.921875 4.277343-3.082031 4.75-5.679687.472656-2.59375-.457032-5.25-2.445313-6.988281-16.773437-14.660157-34.078125-30.707032-46.992187-48.691407-2.414063-3.363281-7.101563-4.132812-10.464844-1.714843-3.363282 2.414062-4.132813 7.097656-1.71875 10.464843 11.34375 15.792969 25.558594 29.929688 39.945312 42.929688l-28.828125 10.789062c-25.824219 9.660157-43.171875 34.675781-43.171875 62.246094v91.730469c0 6.703125 5.453125 12.160156 12.160156 12.160156h300.300782c6.703125 0 12.160156-5.457031 12.160156-12.160156v-91.730469c0-18.121094-7.535156-35.675781-20.667969-48.167969-3-2.855468-7.746093-2.734375-10.601562.265625s-2.734375 7.746094.265625 10.601563c10.171875 9.675781 16.003906 23.269531 16.003906 37.300781v88.890625h-41.996094v-48.460938c0-4.144531-3.359375-7.5-7.5-7.5s-7.5 3.355469-7.5 7.5v48.460938h-56.164062l88.519531-153.328125c1.167969.371094 2.371094.554687 3.5625.554687 4.070313 0 8.03125-2.109374 10.207031-5.878906l3.171875-5.492187c41.328125 25.605469 69.664063 69.011719 76.335938 117.519531.628906 4.59375 4.292969 8.089844 8.917969 8.507812.304687.027344.605468.039063.90625.039063 4.242187 0 8.003906-2.691406 9.347656-6.8125.421875-1.300781.820312-2.605469 1.207031-3.914063 19.457031-65.789062-6-136.84375-62.039063-175.40625zm-36.113281-25.84375s0 0 .003907-.003906c-.003907.003906-.003907.007813-.007813.011719zm-1.617187 2.800782 25.289062 14.601562-36.777344 63.699219-25.289062-14.601563zm-132.054688 247.253906 95.796875-165.9375 9.25 5.339844-92.71875 160.597656zm221.601563-71.558594c-11.996094-43.660156-40.304688-81.75-78.992188-105.578125l19.652344-34.039062c44.863281 31.425781 67.695313 86.011719 59.339844 139.617187zm0 0"/></svg>