<svg height="512pt" viewBox="-100 0 512 512" width="512pt" xmlns="http://www.w3.org/2000/svg"><path d="m198.148438 200.554688 32.742187-14.511719c-5.253906 11.507812 1.402344 24.859375 10.761719 33.953125s21.363281 15.738281 30.28125 25.195312c11.210937 11.886719 16.84375 28 15.242187 43.601563l-32.738281 14.511719c1.597656-15.601563-4.035156-31.710938-15.246094-43.601563-8.917968-9.453125-20.921875-16.101563-30.28125-25.195313s-16.015625-22.445312-10.761718-33.953124zm0 0" fill="#c5d3d6"/><path d="m241.652344 219.996094c-9.359375-9.09375-16.015625-22.445313-10.761719-33.953125l-32.742187 14.511719c-5.253907 11.507812 1.402343 24.859374 10.761718 33.953124s21.363282 15.742188 30.28125 25.195313c3.421875 3.628906 6.316406 7.652344 8.652344 11.933594 8.890625-7.757813 16.828125-16.835938 23.5625-26.984375-8.859375-9.167969-20.574219-15.738282-29.753906-24.65625zm0 0" fill="#b1bfc4"/><path d="m266.9375 351.78125-65.941406-24.675781c-.78125-.292969-1.300782-1.039063-1.300782-1.871094v-63.066406h-88.332031v63.066406c0 .832031-.515625 1.578125-1.296875 1.871094l-65.945312 24.675781c-22.023438 8.242188-36.617188 29.289062-36.617188 52.804688v95.460937c0 2.460937 1.992188 4.453125 4.453125 4.453125h287.148438c2.460937 0 4.453125-1.992188 4.453125-4.453125v-95.460937c0-23.515626-14.59375-44.5625-36.621094-52.804688zm0 0" fill="#e6eff5"/><path d="m266.9375 351.78125-65.941406-24.675781c-.78125-.292969-1.300782-1.039063-1.300782-1.871094v-63.066406h-23.882812v59.839843c0 2.773438 1.71875 5.257813 4.320312 6.226563l62.921876 23.546875c22.023437 8.242188 36.621093 29.289062 36.621093 52.804688v95.460937c0 2.460937-1.996093 4.453125-4.457031 4.453125h23.886719c2.460937 0 4.453125-1.992188 4.453125-4.453125v-95.460937c0-23.515626-14.59375-44.5625-36.621094-52.804688zm0 0" fill="#c5d3d6"/><path d="m111.363281 289.46875c18.847657 12.996094 41.007813 20.492188 64.722657 20.492188 8.074218 0 15.964843-.878907 23.609374-2.539063v-45.253906h-88.332031zm0 0" fill="#c5d3d6"/><path d="m279.675781 147.359375c0-77.242187-55.582031-139.859375-124.144531-139.859375s-124.144531 62.617188-124.144531 139.859375 55.582031 139.859375 124.144531 139.859375 124.144531-62.617188 124.144531-139.859375zm0 0" fill="#e6eff5"/><path d="m155.53125 7.5c-2.117188 0-4.214844.0625-6.304688.179688 59.289063 3.699218 106.449219 64.820312 106.449219 139.679687s-47.160156 135.980469-106.449219 139.679687c2.085938.117188 4.1875.179688 6.304688.179688 68.5625 0 124.144531-62.617188 124.144531-139.859375 0-77.246094-55.582031-139.859375-124.144531-139.859375zm0 0" fill="#c5d3d6"/><path d="m39.953125 96.214844c-5.527344 15.84375-8.566406 33.09375-8.566406 51.144531 0 2.144531.050781 4.277344.136719 6.398437 39.078124 25.277344 121.292968 47.695313 240.832031 41.007813 4.734375-14.804687 7.320312-30.765625 7.320312-47.40625 0-7.175781-.484375-14.222656-1.40625-21.105469-129.425781 15.253906-201.816406-7.042968-238.316406-30.039062zm0 0" fill="#f9c295"/><path d="m209.199219 165.167969c-4.144531 0-7.5-3.359375-7.5-7.5v-1c0-4.144531 3.355469-7.5 7.5-7.5 4.140625 0 7.5 3.355469 7.5 7.5v1c0 4.140625-3.359375 7.5-7.5 7.5zm0 0"/><path d="m101.863281 165.167969c-4.140625 0-7.5-3.359375-7.5-7.5v-1c0-4.144531 3.359375-7.5 7.5-7.5 4.144531 0 7.5 3.355469 7.5 7.5v1c0 4.140625-3.355469 7.5-7.5 7.5zm0 0"/><path d="m278.269531 126.253906c-8.085937.953125-15.949219 1.757813-23.59375 2.425782 2.371094 22.148437.570313 45.167968-5.894531 67.042968 7.691406-.195312 15.546875-.507812 23.574219-.960937 7.085937-22.15625 8.945312-45.953125 5.914062-68.507813zm0 0" fill="#e59f6a"/><path d="m269.570312 344.753906-24.875-9.304687c-.132812-.050781-.265624-.101563-.398437-.148438l-37.097656-13.875v-38.535156c9.664062-4.632813 18.738281-10.523437 27.050781-17.492187 9.324219 10.199218 14.074219 24.027343 12.730469 37.144531-.585938 5.730469 5.253906 9.949219 10.5 7.621093l32.742187-14.519531c2.457032-1.089843 4.144532-3.414062 4.417969-6.089843 1.835937-17.898438-4.453125-35.945313-17.253906-49.511719-3.832031-4.0625-8.097657-7.582031-12.398438-10.898438 5.832031-9.746093 10.652344-20.308593 14.289063-31.5.082031-.195312.15625-.394531.21875-.597656 7.589844-23.730469 9.324218-48.5625 6.203125-71.792969-.011719-.09375-.027344-.183594-.042969-.277344-3.695312-27.035156-13.980469-51.679687-28.957031-71.800781-.066407-.117187-.132813-.234375-.207031-.351562-.304688-.480469-.652344-.914063-1.039063-1.296875-24.15625-31.523438-59.992187-51.527344-99.921875-51.527344-34.910156 0-67.792969 15.125-92.589844 42.589844-2.777344 3.074218-2.535156 7.816406.539063 10.59375s7.816406 2.535156 10.59375-.539063c2.046875-2.265625 4.152343-4.4375 6.316406-6.511719 20.496094 17.957032 49.785156 36.632813 72.449219 46.882813-27.199219 8.246094-53.429688 12.753906-75.5625 12.894531-9.917969-3.605468-19.359375-7.875-28.121094-12.910156 2.355469-5.929688 5.105469-11.675781 8.238281-17.191406 2.046875-3.601563.785157-8.179688-2.816406-10.226563-3.605469-2.042969-8.179687-.78125-10.226563 2.820313-4.535156 7.988281-8.34375 16.402344-11.402343 25.132812-.027344.070313-.054688.140625-.078125.210938-15.222656 43.632812-11.226563 94.324218 13 135.0625.253906.574218.578125 1.109375.964844 1.597656 14.085937 23.03125 33.855468 41.375 57.023437 52.488281v23.714844.019531 14.796875l-62.371094 23.332031c-7.691406 2.886719-14.648437 7.140626-20.675781 12.648438-3.058594 2.792969-3.273438 7.535156-.480469 10.59375 1.480469 1.621094 3.507813 2.441406 5.539063 2.441406 1.808594 0 3.617187-.648437 5.058594-1.960937 4.605468-4.210938 9.933593-7.464844 15.816406-9.675781l.496094-.183594c41.28125 36.390625 83.003906 55.949218 132.320312 61.648437-30.117188 16.492188-67.195312 30.644531-110.058594 35.878907v-12.90625c0-4.140626-3.359375-7.5-7.5-7.5-4.144531 0-7.5 3.359374-7.5 7.5v21.160156.167968 11.417969c-10.589844-2.640625-24.230468-8.773437-39.503906-24.484375v-46.925781c0-4.828125.707031-9.597656 2.105469-14.183594 1.207031-3.960937-1.027344-8.152343-4.988281-9.359375-3.957032-1.207031-8.152344 1.023438-9.359376 4.988282-1.828124 6-2.757812 12.246093-2.757812 18.554687v95.472656c0 6.589844 5.363281 11.949219 11.960938 11.949219h121.519531.042969.050781 165.527343c6.59375 0 11.960938-5.359375 11.960938-11.949219v-95.472656c0-26.492187-16.675781-50.535156-41.492188-59.824219zm-212.363281-126.253906c-8.566406-15.191406-14.476562-32.488281-16.976562-51.039062 21.085937 10.980468 48.425781 19.929687 80.089843 26.148437 21.449219 4.210937 44.277344 7.078125 68.332032 8.589844-22.933594 5.863281-53 11.816406-82.871094 14.703125h-.003906c-.082032.007812-.164063.011718-.25.023437-17.679688 1.703125-33.914063 2.230469-48.320313 1.574219zm175.484375-15.03125c9.425782-.035156 19.015625-.253906 28.75-.664062-7.597656 18.613281-18.894531 34.898437-32.816406 47.632812-36.855469-5.285156-70.496094-14.429688-93.054688-22.160156 43.632813-6.652344 83.503907-17.898438 97.121094-24.808594zm33.785156 46.867188c8.648438 9.164062 13.519532 21.410156 13.46875 33.460937l-18.042968 8c-1.367188-13.402344-7.164063-26.285156-16.699219-36.644531 4.054687-4.230469 7.875-8.746094 11.429687-13.511719 3.570313 2.785156 6.917969 5.59375 9.84375 8.695313zm-110.945312-235.335938c32.65625 0 62.222656 15.308594 83.414062 39.929688-19.847656 11.914062-41.15625 22.132812-63.480468 30.441406-17.8125-4.035156-56.570313-25.847656-83.484375-49.023438 18.765625-13.890625 40.691406-21.347656 63.550781-21.347656zm22.996094 85.230469c.082031-.03125.164062-.058594.246094-.089844 24.425781-8.953125 47.714843-20.113281 69.332031-33.21875 10.355469 15.304687 17.828125 33.242187 21.503906 52.757813-39.972656 4.277343-98.359375 7.1875-151.507813-2.824219 19.3125-3.46875 39.855469-9.089844 60.425782-16.625zm-55.507813 32.742187c42.453125 7.152344 92.414063 7.679688 148.613281 1.578125 1.5 17.546875-.097656 35.738281-4.957031 53-12.066406.597657-23.898437.902344-35.480469.921875-.273437-.015625-.546874-.015625-.824218 0-38.6875.011719-74.597656-3.191406-107.160156-9.582031-34.230469-6.722656-63.957032-17.089844-84.304688-29.363281-.21875-13.746094 1.5-28.105469 5.382812-42.0625 21.335938 11.726562 47.765626 20.292968 78.730469 25.507812zm-55.78125 100.789063c.785157.007812 1.574219.007812 2.371094.007812 10.96875 0 22.738281-.570312 35.175781-1.707031 17.128906 8.785156 60.089844 22.792969 107.414063 30.960938-16.789063 10.632812-36.117188 16.695312-56.667969 16.695312-35.246094 0-66.886719-17.828125-88.292969-45.957031zm88.292969 60.957031c12.722656 0 25.023438-2.03125 36.667969-5.816406v36.328125c0 3.96875 2.398437 7.457031 6.164062 8.902343l13.171875 4.929688c-42.835937 1.703125-73.257812-17.039062-92.675781-35.609375v-14.550781c11.648437 3.785156 23.953125 5.816406 36.671875 5.816406zm-92.253906 57.902344 49.484375-18.511719c3.707031-1.421875 6.101562-4.910156 6.101562-8.878906v-1.839844c20.519531 16.460937 49.242188 30.828125 86.972657 30.828125 11.050781 0 22.882812-1.234375 35.503906-4.007812l18.917968 7.074218c-10.097656 11.789063-30.042968 31.042969-58.386718 49.597656-52.832032-1.816406-96.125-18.695312-138.59375-54.261718zm146.476562 67.046875c29.507813-19.234375 52.824219-41.078125 64.527344-55.746094 13.351562 8.945313 21.78125 24.179687 21.78125 40.660156v46.921875c-15.273438 15.710938-28.917969 21.84375-39.503906 24.484375v-14.957031c0-.019531 0-.039062 0-.058594v-17.730468c0-4.140626-3.355469-7.5-7.5-7.5-4.144532 0-7.5 3.359374-7.5 7.5v14.007812c-16.070313 11.5625-59.195313 36.035156-108.3125 39.753906h-63.742188v-11.925781c0-.054687 0-.113281 0-.167969v-13.65625c61.28125-7.140625 109.875-31.785156 140.25-51.585937zm31.804688 65.242187v.164063 11.925781h-43.808594c18.0625-6.996094 33.234375-15.15625 43.808594-21.761719zm-226.558594-12.984375c12.359375 10.1875 25.257812 16.511719 39.503906 19.425781v5.648438h-39.503906zm241.558594 25.074219v-5.648438c14.246094-2.914062 27.144531-9.238281 39.503906-19.425781v25.074219zm0 0"/></svg>