<?xml version="1.0" encoding="iso-8859-1"?>
<!-- Generator: Adobe Illustrator 19.0.0, SVG Export Plug-In . SVG Version: 6.00 Build 0)  -->
<svg version="1.1" id="Layer_1" xmlns="http://www.w3.org/2000/svg" xmlns:xlink="http://www.w3.org/1999/xlink" x="0px" y="0px"
	 viewBox="0 0 512.001 512.001" style="enable-background:new 0 0 512.001 512.001;" xml:space="preserve">
<path style="fill:#E5A430;" d="M102.701,361.343c-3.989,0-7.853-1.489-10.884-4.193c-52.634-46.966-82.99-114.3-82.99-184.771
	c0-1.867,0-3.652,0-5.448c0-61.542,50.161-111.611,111.816-111.611c0.892,0,1.798,0.011,2.697,0.032
	c60.791,1.432,109.74,52.011,109.113,112.749c-0.472,45.906-28.553,86.129-70.754,102.672l0,0l-8.33,2.91
	c-27.781,8.476-43.538,37.819-35.303,65.567c1.835,4.865,1.275,10.254-1.557,14.594C113.489,358.47,108.199,361.343,102.701,361.343
	C102.702,361.343,102.702,361.343,102.701,361.343z"/>
<path style="fill:#E7D96B;" d="M122.646,84.77c-0.666-0.016-1.339-0.025-2.002-0.025c-45.431,0-82.391,36.961-82.391,82.391
	c0,1.409,0.036,2.851,0.109,4.284l0.022,0.45v0.451c-0.02,28.218,5.425,55.869,15.7,81.537
	c9.308,23.251,39.423,29.288,57.352,11.802c2.589-2.525,5.357-4.889,8.289-7.071c5.45-4.056,11.483-7.262,17.795-9.773l4.745-1.887
	c1.669-0.664,3.37-1.245,5.069-1.826c33.068-11.279,55.335-41.929,55.697-77.098C203.492,123.167,167.432,85.826,122.646,84.77z"/>
<g>
	<path style="fill:#E5A430;" d="M185.379,399.588c-10.393,0.68-21.041-0.302-31.354-3.024c-10.315-2.712-20.285-7.148-29.37-13.115
		l-0.227-0.149c-5.986-3.932-7.652-11.974-3.719-17.96c3.932-5.986,11.974-7.652,17.96-3.719c0.518,0.34,1.058,0.762,1.51,1.159
		c6.057,5.401,13.068,9.882,20.721,13.148c7.649,3.272,15.938,5.318,24.479,6.006l0.133,0.011c4.869,0.392,8.499,4.659,8.107,9.528
		C193.262,395.905,189.692,399.31,185.379,399.588z"/>
	<circle style="fill:#E5A430;" cx="217.747" cy="393.711" r="8.828"/>
</g>
<path style="fill:#706B63;" d="M105.384,218.442l-35.686-35.671c-8.52-8.519-13.79-20.289-13.79-33.291
	c0-26.001,21.079-47.08,47.08-47.08c13.001,0,24.771,5.269,33.291,13.79l35.672,35.685L105.384,218.442z"/>
<path style="fill:#5B5751;" d="M181.653,203.177c2.399-5.648,3.726-11.862,3.726-18.386c0-26.001-21.079-47.08-47.08-47.08
	s-47.08,21.079-47.08,47.08s21.079,47.08,47.08,47.08c6.524,0,12.736-1.328,18.386-3.728L181.653,203.177z"/>
<path style="fill:#91928F;" d="M268.483,290.009l-86.832-86.832l-30.869-30.869c-6.894-6.894-18.073-6.894-24.968,0
	s-6.895,18.073,0,24.968l30.869,30.869l86.832,86.832c3.447,3.447,7.966,5.172,12.483,5.172c4.517,0,9.037-1.724,12.483-5.172
	C275.379,308.082,275.379,296.903,268.483,290.009z"/>
<path style="fill:#7F8383;" d="M125.815,197.275l30.869,30.869l86.832,86.832c3.447,3.447,7.966,5.172,12.483,5.172
	c4.517,0,9.037-1.724,12.483-5.172L125.815,172.308C118.919,179.202,118.919,190.381,125.815,197.275z"/>
<circle style="fill:#6F7475;" cx="256" cy="302.493" r="17.655"/>
<path style="fill:#91928F;" d="M243.517,221.992l86.832,86.832l30.869,30.869c6.894,6.894,18.073,6.894,24.968,0
	c6.895-6.894,6.895-18.073,0-24.968l-30.869-30.869l-86.832-86.832c-3.447-3.447-7.966-5.172-12.483-5.172
	s-9.037,1.724-12.483,5.172C236.621,203.919,236.621,215.098,243.517,221.992z"/>
<path style="fill:#7F8383;" d="M386.185,314.726l-30.869-30.87l-86.832-86.832c-3.447-3.447-7.966-5.172-12.483-5.172
	c-4.517,0-9.037,1.724-12.483,5.172l142.669,142.669C393.081,332.799,393.081,321.62,386.185,314.726z"/>
<path style="fill:#E5A430;" d="M409.299,150.658c3.989,0,7.853,1.489,10.884,4.193c52.634,46.966,82.99,114.3,82.99,184.771
	c0,1.867,0,3.652,0,5.448c0,61.542-50.161,111.611-111.816,111.611c-0.892,0-1.798-0.011-2.697-0.032
	c-60.791-1.432-109.74-52.011-109.112-112.749c0.472-45.906,28.553-86.129,70.754-102.672l0,0l8.33-2.91
	c27.781-8.476,43.538-37.819,35.303-65.567c-1.835-4.865-1.275-10.255,1.557-14.594
	C398.511,153.531,403.801,150.658,409.299,150.658C409.298,150.658,409.298,150.658,409.299,150.658z"/>
<path style="fill:#E7D96B;" d="M473.638,340.581l-0.022-0.45v-0.451c0.02-28.218-5.425-55.869-15.7-81.537
	c-9.308-23.252-39.424-29.282-57.357-11.797c-2.581,2.516-5.338,4.873-8.258,7.048c-5.457,4.064-11.498,7.277-17.82,9.792
	l-4.89,1.944c-1.575,0.626-3.178,1.175-4.782,1.72c-1.601,0.543-3.176,1.131-4.725,1.763c-8.689,3.549-18.676,1.336-25.313-5.301
	l-8.838-8.838c-9.69,6.944-18.134,15.351-25.068,24.867l9.197,9.197c6.631,6.631,8.446,16.566,4.926,25.26
	c-3.799,9.381-5.91,19.582-6.019,30.197c-0.463,44.839,35.598,82.179,80.384,83.236c0.666,0.016,1.339,0.025,2.002,0.025
	c45.431,0,82.391-36.961,82.391-82.391C473.747,343.456,473.711,342.014,473.638,340.581z"/>
<g>
	<path style="fill:#E5A430;" d="M326.621,112.413c10.393-0.68,21.041,0.302,31.354,3.024c10.315,2.712,20.285,7.148,29.37,13.115
		l0.227,0.149c5.986,3.932,7.652,11.974,3.719,17.96c-3.932,5.986-11.974,7.652-17.96,3.719c-0.518-0.34-1.058-0.762-1.51-1.159
		c-6.057-5.401-13.068-9.882-20.721-13.148c-7.649-3.272-15.938-5.318-24.479-6.006l-0.133-0.011
		c-4.869-0.392-8.499-4.659-8.107-9.528C318.738,116.096,322.308,112.691,326.621,112.413z"/>
	<circle style="fill:#E5A430;" cx="294.253" cy="118.29" r="8.828"/>
</g>
<path style="fill:#706B63;" d="M376.096,396.171L340.411,360.5c-8.52-8.519-13.79-20.289-13.79-33.291
	c0-26.001,21.079-47.08,47.08-47.08c13.001,0,24.771,5.27,33.291,13.79l35.672,35.685L376.096,396.171z"/>
<circle style="fill:#5B5751;" cx="409.012" cy="362.52" r="47.08"/>
<path d="M282.483,302.493c0-7.074-2.755-13.724-7.758-18.726l-82.882-82.882c1.564-5.195,2.363-10.585,2.363-16.093
	c0-14.888-5.86-28.425-15.382-38.454c-0.195-0.242-0.405-0.478-0.631-0.704l-35.673-35.685
	c-10.558-10.56-24.597-16.376-39.532-16.376c-30.827,0-55.908,25.081-55.908,55.908c0,14.934,5.816,28.973,16.377,39.535
	l35.686,35.671c0.221,0.221,0.453,0.427,0.691,0.62c10.03,9.528,23.572,15.393,38.465,15.393c5.508,0,10.897-0.799,16.093-2.362
	l82.882,82.882c5.002,5.001,11.652,7.757,18.726,7.757s13.724-2.755,18.725-7.757C279.729,316.218,282.483,309.568,282.483,302.493z
	 M232.228,291.204l-69.38-69.38c-0.009-0.009-0.019-0.019-0.028-0.028l-30.764-30.764c-1.668-1.667-2.586-3.884-2.586-6.242
	s0.918-4.575,2.586-6.242c1.668-1.668,3.884-2.586,6.242-2.586c2.358,0,4.575,0.918,6.242,2.586l30.759,30.759
	c0.012,0.012,0.025,0.024,0.036,0.036l69.377,69.377C239.255,281.322,234.829,285.747,232.228,291.204z M138.299,223.044
	c-21.092,0-38.253-17.16-38.253-38.253c0-5.186,1.017-10.211,3.023-14.934c1.906-4.488-0.187-9.67-4.675-11.576
	c-4.487-1.903-9.67,0.188-11.575,4.675c-2.708,6.378-4.169,13.121-4.384,20.066l-6.495-6.492
	c-7.226-7.224-11.204-16.83-11.204-27.049c0-21.093,17.161-38.253,38.253-38.253c10.219,0,19.824,3.979,27.048,11.204l6.492,6.496
	c-6.946,0.214-13.69,1.676-20.068,4.384c-4.488,1.906-6.581,7.088-4.675,11.576c1.906,4.488,7.088,6.579,11.576,4.675
	c4.723-2.006,9.749-3.023,14.936-3.023c21.092,0,38.253,17.16,38.253,38.253c0,0.261-0.014,0.52-0.019,0.782l-19.507-19.51
	c-5.002-5.001-11.651-7.757-18.726-7.757c-7.075,0-13.724,2.755-18.725,7.757c-5.003,5.001-7.758,11.651-7.758,18.726
	c0,7.075,2.755,13.725,7.758,18.726l19.507,19.507C138.819,223.03,138.56,223.044,138.299,223.044z M262.242,308.734
	c-1.668,1.668-3.884,2.586-6.242,2.586c-1.975,0-3.846-0.652-5.384-1.842c-0.23-0.297-0.472-0.586-0.744-0.858
	c-1.637-1.636-2.538-3.812-2.538-6.128c0-4.779,3.888-8.665,8.665-8.665c2.315,0,4.491,0.902,6.128,2.538
	c0.273,0.272,0.563,0.516,0.859,0.745c1.189,1.537,1.841,3.409,1.841,5.382C264.828,304.85,263.91,307.068,262.242,308.734z"/>
<path d="M102.701,352.516c-1.817,0-3.597-0.694-5.006-1.95c-50.867-45.39-80.04-110.335-80.04-178.185v-5.448
	c0-56.674,46.2-102.784,102.989-102.784c0.82,0,1.656,0.009,2.488,0.029c55.99,1.318,101.071,47.897,100.493,103.834
	c-0.051,4.875,3.861,8.868,8.736,8.918c0.032,0,0.062,0,0.093,0c4.833,0,8.776-3.894,8.825-8.737
	c0.678-65.542-52.137-120.12-117.725-121.665c-0.97-0.024-1.948-0.034-2.912-0.034C54.12,46.493,0,100.521,0,166.931v5.448
	c0,72.875,31.324,142.622,85.943,191.361c4.652,4.145,10.604,6.43,16.759,6.43c4.875,0,8.828-3.951,8.828-8.828
	C111.53,356.467,107.576,352.516,102.701,352.516z"/>
<path d="M126.529,336.739c-6.848-23.074,6.349-47.574,29.417-54.611c0.113-0.034,0.224-0.072,0.334-0.109l8.33-2.91
	c4.603-1.608,7.031-6.643,5.424-11.245c-1.607-4.602-6.644-7.029-11.244-5.424l-8.171,2.854
	c-32.198,9.929-50.594,44.191-41.015,76.468c1.138,3.836,4.652,6.318,8.459,6.318c0.832,0,1.677-0.119,2.515-0.367
	C125.252,346.326,127.915,341.412,126.529,336.739z"/>
<path d="M229.517,209.509c0,7.075,2.754,13.725,7.757,18.726l57.348,57.348c1.723,1.723,3.983,2.585,6.242,2.585
	s4.519-0.862,6.242-2.585c3.447-3.449,3.447-9.037,0-12.485l-57.348-57.348c-1.668-1.667-2.585-3.884-2.585-6.242
	s0.918-4.575,2.586-6.242c1.668-1.668,3.884-2.586,6.242-2.586c2.358,0,4.575,0.918,6.242,2.586l46.618,46.618
	c3.447,3.446,9.037,3.446,12.483,0c3.447-3.449,3.447-9.037,0-12.485l-46.617-46.618c-5.002-5.001-11.652-7.757-18.726-7.757
	s-13.724,2.755-18.725,7.757C232.271,195.783,229.517,202.434,229.517,209.509z"/>
<path d="M426.057,148.26c-4.652-4.145-10.604-6.43-16.759-6.43c-4.875,0-8.828,3.951-8.828,8.828c0,4.876,3.952,8.828,8.828,8.828
	c1.817,0,3.597,0.694,5.006,1.95c50.868,45.39,80.042,110.335,80.042,178.185v5.448c0,56.674-46.2,102.784-102.988,102.784
	c-0.82,0-1.656-0.009-2.488-0.029c-55.99-1.318-101.071-47.897-100.493-103.834c0.051-4.875-3.861-8.868-8.736-8.918
	c-0.032,0-0.062,0-0.093,0c-4.833,0-8.776,3.894-8.825,8.737c-0.678,65.542,52.137,120.12,117.725,121.665
	c0.97,0.024,1.948,0.034,2.912,0.034c66.524,0,120.644-54.028,120.644-120.439v-5.448C512,266.747,480.676,196.999,426.057,148.26z"
	/>
<path d="M385.471,175.262c6.848,23.074-6.349,47.574-29.417,54.611c-0.113,0.034-0.224,0.072-0.334,0.109l-8.33,2.91
	c-4.603,1.608-7.031,6.643-5.424,11.245c1.271,3.64,4.685,5.919,8.334,5.919c0.965,0,1.948-0.16,2.911-0.496l8.171-2.854
	c32.198-9.929,50.594-44.191,41.015-76.468c-1.388-4.674-6.302-7.339-10.974-5.952C386.748,165.676,384.085,170.59,385.471,175.262z
	"/>
<path d="M333.719,366.272c0.031,0.031,0.055,0.065,0.086,0.095l0.099,0.099c0.089,0.091,0.173,0.187,0.264,0.278
	c0.044,0.044,0.091,0.08,0.135,0.122l35.164,35.176c0.004,0.004,0.007,0.008,0.011,0.012c0.004,0.004,0.008,0.007,0.012,0.011
	c10.558,10.552,24.591,16.364,39.521,16.364c30.827,0,55.908-25.081,55.908-55.908c0-14.934-5.816-28.973-16.377-39.535
	l-35.164-35.149c-0.049-0.052-0.093-0.108-0.144-0.159c-0.107-0.107-0.219-0.205-0.326-0.311l-0.052-0.051
	c-0.015-0.015-0.033-0.029-0.049-0.045c-10.508-10.298-24.369-15.971-39.105-15.971c-5.591,0-10.989,0.835-16.086,2.369
	l-18.617-18.617c-3.447-3.446-9.037-3.446-12.483,0c-3.447,3.449-3.447,9.037,0,12.485l14.416,14.415
	c-4.789,3.478-9.007,7.694-12.485,12.485l-4.269-4.269c-3.446-3.447-9.036-3.449-12.483-0.001c-3.447,3.447-3.447,9.037,0,12.483
	l8.47,8.471c-1.536,5.099-2.371,10.497-2.371,16.087C317.793,341.927,323.45,355.766,333.719,366.272z M400.399,299.827
	l35.661,35.645c7.226,7.224,11.204,16.83,11.204,27.049c0,21.093-17.161,38.253-38.253,38.253c-10.219,0-19.824-3.979-27.048-11.204
	l-0.001-0.001c-14.914-14.914-14.914-39.183,0-54.098c4.61-4.61,10.338-7.98,16.564-9.748c4.69-1.331,7.413-6.211,6.083-10.903
	c-1.331-4.688-6.212-7.414-10.903-6.082c-9.117,2.587-17.495,7.514-24.229,14.248c-10.454,10.454-15.88,24.053-16.308,37.78
	l-6.784-6.787c-7.053-7.192-10.938-16.679-10.938-26.769c0-21.093,17.161-38.253,38.253-38.253
	C383.758,288.957,393.216,292.819,400.399,299.827z"/>
<g>
</g>
<g>
</g>
<g>
</g>
<g>
</g>
<g>
</g>
<g>
</g>
<g>
</g>
<g>
</g>
<g>
</g>
<g>
</g>
<g>
</g>
<g>
</g>
<g>
</g>
<g>
</g>
<g>
</g>
</svg>
