<?xml version="1.0" encoding="iso-8859-1"?>
<!-- Generator: Adobe Illustrator 19.0.0, SVG Export Plug-In . SVG Version: 6.00 Build 0)  -->
<svg version="1.1" id="Capa_1" xmlns="http://www.w3.org/2000/svg" xmlns:xlink="http://www.w3.org/1999/xlink" x="0px" y="0px"
	 viewBox="0 0 512.002 512.002" style="enable-background:new 0 0 512.002 512.002;" xml:space="preserve">
<path style="fill:#FFB229;" d="M438.518,486.89v17.61H73.484v-17.61c0-49.851,19.97-95.031,52.371-127.961
	c3.04-3.09,6.19-6.07,9.44-8.94c11.81-10.43,24.98-19.35,39.22-26.46c4.39-2.2,8.88-4.22,13.46-6.06c3.34-1.35,6.73-2.59,10.17-3.74
	c18.19-6.08,37.64-9.36,57.851-9.36c20.22,0,39.67,3.28,57.861,9.36c3.43,1.15,6.82,2.39,10.16,3.74c4.59,1.84,9.08,3.86,13.47,6.06
	c13.77,6.88,26.55,15.45,38.06,25.44c3.28,2.84,6.45,5.8,9.51,8.86l0.01,0.01C418.088,390.859,438.518,436.489,438.518,486.89z"/>
<path style="fill:#FF8B00;" d="M393.398,504.5H270.296L125.854,358.928c3.04-3.09,6.19-6.07,9.44-8.94
	c11.81-10.43,24.98-19.35,39.22-26.46c4.39-2.2,8.88-4.22,13.46-6.06c3.34-1.35,6.73-2.59,10.17-3.74
	c18.19-6.08,37.64-9.36,57.851-9.36c20.22,0,39.67,3.28,57.861,9.36c3.43,1.15,6.82,2.39,10.16,3.74c4.59,1.84,9.08,3.86,13.47,6.06
	c13.77,6.88,26.55,15.45,38.06,25.44c3.28,2.84,6.45,5.8,9.51,8.86l0.01,0.01l-69.171,69.171L393.398,504.5z"/>
<path style="fill:#FECBAA;" d="M334.287,321.958l-80.711,80.711l-79.121-79.111c0.03-0.01,0.04-0.02,0.06-0.03
	c7.58-3.8,15.48-7.08,23.63-9.8c1.34-0.45,2.68-0.88,4.03-1.29c4.23-1.3,8.52-2.45,12.87-3.45c13.17-3.03,26.87-4.62,40.95-4.62
	c13.94,0,27.51,1.56,40.55,4.52c4.49,1.02,8.92,2.2,13.27,3.54c1.35,0.42,2.7,0.85,4.04,1.3
	C320.867,316.068,327.687,318.818,334.287,321.958z"/>
<g>
	<path style="fill:#FFAE85;" d="M334.287,321.958l-80.711,80.711l-79.121-79.111c0.03-0.01,0.04-0.02,0.06-0.03
		c7.58-3.8,15.48-7.08,23.63-9.8c1.34-0.45,2.68-0.88,4.03-1.29c4.23-1.3,8.52-2.45,12.87-3.45c0.4,2.13,0.61,4.33,0.62,6.57
		c12.32,1.64,22.73,9.39,28.07,20.1c3.84-1.36,7.97-2.11,12.26-2.11c4.16,0,8.16,0.71,11.89,1.98
		c5.36-10.64,15.74-18.34,28.01-19.97c0.01-2.28,0.23-4.51,0.65-6.67c4.49,1.02,8.92,2.2,13.27,3.54c1.35,0.42,2.7,0.85,4.04,1.3
		C320.867,316.068,327.687,318.818,334.287,321.958z"/>
	<path style="fill:#FFAE85;" d="M334.289,321.959l-80.715,80.715L174.46,323.56c0.021-0.01,0.031-0.021,0.052-0.031
		c7.585-3.798,15.484-7.083,23.633-9.803c1.339-0.45,2.678-0.879,4.028-1.287L256,366.255l53.817-53.828
		c1.35,0.419,2.699,0.847,4.038,1.297C320.866,316.069,327.687,318.82,334.289,321.959z"/>
</g>
<path style="fill:#F47400;" d="M375.547,348.968l-68.841,68.851l-9.19,9.19l-9.2,9.2l-29.18-29.19l-12.33-12.33l18.39-18.39
	l58.821-58.831c4.59,1.84,9.08,3.86,13.47,6.06c8.52,4.26,16.66,9.16,24.36,14.66C366.587,341.568,371.167,345.168,375.547,348.968z
	"/>
<g>
	<polygon style="fill:#F25600;" points="306.707,417.819 297.517,427.009 288.316,436.209 259.136,407.019 246.806,394.689 
		265.196,376.298 	"/>
	<path style="fill:#F25600;" d="M361.847,338.188c-5.79,7.52-14.42,12.75-24.28,14.06c-0.12,20.19-16.57,36.59-36.8,36.59
		c-4.16,0-8.15-0.71-11.88-1.99c-5.61,11.14-16.72,19.07-29.75,20.17l-12.33-12.33l9.19-9.19l68.021-68.031
		c4.59,1.84,9.08,3.86,13.47,6.06C346.007,327.788,354.147,332.688,361.847,338.188z"/>
</g>
<path style="fill:#F47400;" d="M375.007,504.5h-86.401L135.295,349.988c4.65-4.1,9.51-7.98,14.57-11.59
	c7.78-5.59,16.02-10.56,24.65-14.87c4.39-2.2,8.88-4.22,13.46-6.06L375.007,504.5z"/>
<path style="fill:#F25600;" d="M273.326,402.819c-5.17,2.77-11.07,4.34-17.33,4.34c-14.41,0-26.91-8.33-32.94-20.43
	c-3.84,1.36-7.96,2.11-12.26,2.11c-20.22,0-36.68-16.4-36.8-36.59c-9.76-1.3-18.33-6.44-24.13-13.85
	c7.78-5.59,16.02-10.56,24.65-14.87c4.39-2.2,8.88-4.22,13.46-6.06L273.326,402.819z"/>
<rect x="222.014" y="236.813" style="fill:#FECBAA;" width="67.983" height="78.451"/>
<path style="fill:#FFAE85;" d="M289.992,236.811v52.751c-10.891,3.848-22.31,5.841-33.991,5.841c-11.682,0-23.1-1.993-33.991-5.841
	v-52.751L289.992,236.811L289.992,236.811z"/>
<path style="fill:#FECBAA;" d="M415.651,145.053c0,15.438-12.518,27.956-27.956,27.956c-4.066,0-7.914-0.87-11.395-2.428
	c-9.758-4.363-16.549-14.155-16.549-25.528c0-12.048,7.627-22.321,18.313-26.249c3.001-1.099,6.242-1.706,9.632-1.706
	C403.134,117.096,415.651,129.615,415.651,145.053z"/>
<path style="fill:#FFAE85;" d="M378.063,118.802v26.043c0,8.715-0.596,17.316-1.764,25.734
	c-9.758-4.363-16.549-14.155-16.549-25.528C359.751,133.005,367.378,122.731,378.063,118.802z"/>
<path style="fill:#FECBAA;" d="M152.252,145.053c0,11.372-6.791,21.164-16.549,25.528c-3.482,1.558-7.33,2.428-11.395,2.428
	c-15.438,0-27.956-12.518-27.956-27.956s12.518-27.956,27.956-27.956c3.39,0,6.631,0.607,9.632,1.706
	C144.624,122.731,152.252,133.005,152.252,145.053z"/>
<path style="fill:#FFAE85;" d="M152.252,145.053c0,11.372-6.791,21.164-16.549,25.528c-1.168-8.418-1.764-17.018-1.764-25.734
	v-26.043C144.624,122.731,152.252,133.005,152.252,145.053z"/>
<path style="fill:#FECBAA;" d="M363.174,114.667v30.172c0,74.929-47.99,135.672-107.173,135.672
	c-59.194,0-107.173-60.743-107.173-135.672v-30.172c0-13.569,2.521-26.552,7.135-38.5c15.452-40.174,54.424-68.673,100.038-68.673
	h0.01c45.615,0,84.575,28.498,100.038,68.673C360.653,88.115,363.174,101.098,363.174,114.667z"/>
<path style="fill:#FEDFC5;" d="M360.382,90.225c-16.93-38.89-57.281-66.251-104.371-66.251h-0.01
	c-47.081,0-87.451,27.36-104.371,66.251c1.12-4.82,2.58-9.52,4.33-14.06c15.46-40.17,54.431-68.671,100.041-68.671h0.01
	c45.611,0,84.571,28.5,100.041,68.671C357.802,80.705,359.252,85.405,360.382,90.225z"/>
<circle style="fill:#864A2D;" cx="178.873" cy="315.774" r="23.803"/>
<circle style="fill:#C97F4C;" cx="210.793" cy="352.034" r="23.803"/>
<g>
	<circle style="fill:#864A2D;" cx="256.004" cy="370.354" r="23.803"/>
	<circle style="fill:#864A2D;" cx="332.695" cy="315.774" r="23.803"/>
</g>
<circle style="fill:#C97F4C;" cx="300.775" cy="352.034" r="23.803"/>
<path d="M428.237,406.552c-1.753-3.752-6.215-5.375-9.97-3.62c-3.753,1.753-5.373,6.217-3.62,9.97
	c10.863,23.253,16.372,48.147,16.372,73.985V504.5c0,4.143,3.357,7.5,7.5,7.5c4.143,0,7.5-3.357,7.5-7.5v-17.613
	C446.02,458.836,440.037,431.809,428.237,406.552z"/>
<path d="M78.225,444.724c-4.074-0.786-8.001,1.877-8.786,5.942c-2.293,11.879-3.456,24.065-3.456,36.22V504.5
	c0,4.143,3.357,7.5,7.5,7.5c4.143,0,7.5-3.357,7.5-7.5v-17.613c0-11.202,1.071-22.432,3.185-33.376
	C84.952,449.443,82.291,445.509,78.225,444.724z"/>
<path d="M297.493,278.431c14.932-7.205,28.594-18.345,40.174-33.004c15.6-19.748,26.054-44.216,30.53-70.804
	c5.716,3.765,12.489,5.881,19.503,5.881c19.549,0,35.453-15.904,35.453-35.453s-15.904-35.453-35.453-35.453
	c-6.032,0-11.88,1.576-17.037,4.408C370.303,51.082,319.008,0,256.001,0C193.003,0,141.714,51.067,141.34,113.978
	c-5.152-2.826-10.991-4.381-17.037-4.381c-19.549,0-35.453,15.904-35.453,35.453s15.904,35.453,35.453,35.453
	c7.035,0,13.792-2.102,19.507-5.872c1.594,9.417,3.951,18.617,7.068,27.533c1.367,3.91,5.643,5.972,9.555,4.605
	c3.91-1.367,5.972-5.645,4.605-9.555c-5.777-16.525-8.706-34.146-8.706-52.373v-30.173c0-54.959,44.712-99.67,99.67-99.67
	s99.67,44.712,99.67,99.67v30.173c0,70.674-44.712,128.172-99.67,128.172c-29.262,0-56.959-16.521-75.988-45.329
	c-2.283-3.456-6.937-4.407-10.392-2.124c-3.456,2.283-4.407,6.936-2.124,10.392c12.698,19.223,28.912,33.671,47.013,42.414v23.047
	c-2.347,0.523-4.688,1.099-7.015,1.712c-4.869-10.976-15.863-18.656-28.624-18.656c-17.261,0-31.304,14.042-31.304,31.303
	c0,4.675,1.037,9.11,2.883,13.098c-31.323,20.992-56.194,51.369-70.423,86.203c-1.566,3.835,0.272,8.213,4.107,9.779
	c0.929,0.379,1.889,0.559,2.833,0.559c2.957,0,5.759-1.76,6.946-4.666c5.268-12.896,12.122-25.127,20.306-36.403l124.219,124.219
	c1.465,1.464,3.385,2.196,5.304,2.196c1.919,0,3.839-0.732,5.304-2.196c2.929-2.93,2.929-7.678,0-10.607L123.605,372.514
	c3.457-4,7.089-7.849,10.89-11.527l148.808,148.818c1.465,1.465,3.384,2.197,5.304,2.197c1.919,0,3.839-0.732,5.303-2.196
	c2.93-2.929,2.93-7.678,0.001-10.606L145.73,351.009c4.533-3.694,9.25-7.161,14.136-10.383c5.273,4.042,11.86,6.451,19.002,6.451
	c0.343,0,0.682-0.015,1.021-0.026c-0.26,1.622-0.4,3.284-0.4,4.979c0,17.261,14.042,31.304,31.303,31.304
	c5.527,0,10.72-1.446,15.232-3.97c3.88,12.881,15.846,22.292,29.975,22.292c1.747,0,3.458-0.151,5.128-0.427l108.574,108.574
	c1.465,1.464,3.385,2.196,5.304,2.196s3.839-0.732,5.304-2.196c2.929-2.93,2.929-7.678,0-10.607l-72.189-72.189l67.691-67.691
	c1.333,1.253,2.65,2.521,3.943,3.815c6.357,6.356,12.302,13.303,17.668,20.647c1.469,2.01,3.749,3.076,6.062,3.076
	c1.535,0,3.084-0.471,4.419-1.445c3.344-2.443,4.074-7.136,1.631-10.48c-5.82-7.967-12.271-15.505-19.172-22.403
	c-8.892-8.899-18.676-16.916-29.142-23.886c1.779-3.928,2.778-8.281,2.778-12.866c0-17.261-14.043-31.303-31.304-31.303
	c-12.722,0-23.687,7.632-28.578,18.554c-2.198-0.574-4.407-1.117-6.623-1.611v-22.983H297.493z M141.157,156.634
	c-3.827,5.554-10.128,8.87-16.854,8.87c-11.278,0-20.453-9.175-20.453-20.453s9.175-20.453,20.453-20.453
	c6.727,0,13.027,3.315,16.854,8.87c0.055,0.079,0.117,0.15,0.174,0.227v11.149c0,3.734,0.113,7.446,0.338,11.132
	C141.489,156.184,141.317,156.402,141.157,156.634z M387.7,124.597c11.278,0,20.453,9.175,20.453,20.453
	s-9.175,20.453-20.453,20.453c-7.141,0-13.596-3.607-17.363-9.661c0.22-3.642,0.334-7.309,0.334-10.999v-11.107
	C374.479,127.998,380.766,124.597,387.7,124.597z M256.001,288.015c9.043,0,17.916-1.299,26.491-3.809v29.053
	c0,4.143,3.357,7.5,7.5,7.5c2.929,0,5.459-1.683,6.694-4.131c1.599,0.381,3.194,0.776,4.779,1.202
	c0.064,0.987,0.171,1.963,0.326,2.923c-0.34-0.011-0.679-0.026-1.022-0.026c-14.051,0-25.968,9.306-29.915,22.078
	c-4.422-2.394-9.482-3.755-14.854-3.755c-5.527,0-10.72,1.445-15.231,3.969c-3.88-12.881-15.847-22.292-29.976-22.292
	c-0.343,0-0.682,0.015-1.022,0.026c0.148-0.92,0.251-1.854,0.316-2.799c1.734-0.47,3.478-0.909,5.227-1.325
	c1.235,2.448,3.765,4.131,6.694,4.131c4.143,0,7.5-3.357,7.5-7.5v-29.092C238.095,286.694,246.973,288.015,256.001,288.015z
	 M284.466,352.03c0-8.989,7.313-16.303,16.304-16.303c8.989,0,16.303,7.313,16.303,16.303s-7.313,16.304-16.303,16.304
	C291.779,368.334,284.466,361.021,284.466,352.03z M162.566,315.774c0-8.989,7.313-16.303,16.304-16.303
	c8.989,0,16.303,7.313,16.303,16.303s-7.313,16.304-16.303,16.304C169.879,332.077,162.566,324.764,162.566,315.774z
	 M210.793,368.334c-8.989,0-16.303-7.313-16.303-16.304c0-8.989,7.313-16.303,16.303-16.303c8.99,0,16.304,7.313,16.304,16.303
	C227.098,361.021,219.784,368.334,210.793,368.334z M239.698,370.353c0-8.989,7.313-16.303,16.303-16.303
	c8.99,0,16.304,7.313,16.304,16.303s-7.313,16.304-16.304,16.304C247.012,386.657,239.698,379.343,239.698,370.353z
	 M297.515,416.401l-21.774-21.774c4.737-3.86,8.329-9.073,10.176-15.047c4.422,2.394,9.482,3.756,14.854,3.756
	c17.261,0,31.303-14.043,31.303-31.304c0-1.695-0.14-3.357-0.4-4.979c0.34,0.011,0.679,0.026,1.021,0.026
	c7.233,0,13.896-2.473,19.202-6.608c4.302,2.823,8.483,5.833,12.523,9.026L297.515,416.401z M332.694,299.471
	c8.99,0,16.304,7.313,16.304,16.303s-7.313,16.304-16.304,16.304c-8.989,0-16.303-7.313-16.303-16.304
	C316.392,306.784,323.705,299.471,332.694,299.471z"/>
<path d="M194.806,133.44c-2.04-3.605-6.616-4.873-10.221-2.832c-3.605,2.04-4.873,6.616-2.832,10.221
	c5.029,8.886,14.34,14.19,24.906,14.19c10.102,0,19.188-4.769,25.587-13.428c2.462-3.331,1.758-8.027-1.574-10.488
	c-3.33-2.462-8.026-1.758-10.488,1.574c-3.601,4.871-8.151,7.342-13.524,7.342C201.417,140.019,197.208,137.682,194.806,133.44z"/>
<path d="M304.167,155.019c10.102,0,19.188-4.769,25.587-13.428c2.462-3.331,1.758-8.027-1.574-10.488
	c-3.33-2.462-8.026-1.758-10.488,1.574c-3.601,4.871-8.151,7.342-13.524,7.342c-5.242,0-9.451-2.337-11.854-6.579
	c-2.04-3.605-6.616-4.873-10.221-2.832c-3.605,2.04-4.873,6.616-2.832,10.221C284.289,149.714,293.6,155.019,304.167,155.019z"/>
<path d="M235.957,53.85h-0.097c-4.143,0-7.451,3.357-7.451,7.5s3.405,7.5,7.548,7.5s7.5-3.357,7.5-7.5S240.1,53.85,235.957,53.85z"
	/>
<path d="M212.836,53.85c-4.143,0-7.452,3.357-7.452,7.5s3.406,7.5,7.549,7.5c4.143,0,7.5-3.357,7.5-7.5s-3.357-7.5-7.5-7.5H212.836z
	"/>
<path d="M224.879,35.771h-0.097c-4.143,0-7.451,3.357-7.451,7.5s3.405,7.5,7.548,7.5c4.143,0,7.5-3.357,7.5-7.5
	S229.022,35.771,224.879,35.771z"/>
<path d="M269.728,195.347c-1.47,8.964-7.243,15.47-13.727,15.47c-6.484,0-12.256-6.506-13.726-15.47
	c-0.67-4.087-4.519-6.858-8.615-6.188c-4.087,0.67-6.857,4.527-6.188,8.615c2.664,16.248,14.662,28.042,28.528,28.042
	c13.865,0,25.863-11.793,28.529-28.042c0.67-4.087-2.1-7.944-6.188-8.615C274.249,188.485,270.399,191.259,269.728,195.347z"/>
<g>
</g>
<g>
</g>
<g>
</g>
<g>
</g>
<g>
</g>
<g>
</g>
<g>
</g>
<g>
</g>
<g>
</g>
<g>
</g>
<g>
</g>
<g>
</g>
<g>
</g>
<g>
</g>
<g>
</g>
</svg>
