<?xml version="1.0" encoding="iso-8859-1"?>
<!-- Generator: Adobe Illustrator 19.0.0, SVG Export Plug-In . SVG Version: 6.00 Build 0)  -->
<svg version="1.1" id="Layer_1" xmlns="http://www.w3.org/2000/svg" xmlns:xlink="http://www.w3.org/1999/xlink" x="0px" y="0px"
	 viewBox="0 0 512 512" style="enable-background:new 0 0 512 512;" xml:space="preserve">
<path style="fill:#E7E4CD;" d="M188.291,358.306c-30.144,17.609-52.81,46.614-62.104,81.105
	C164.308,461.69,208.66,474.468,256,474.468s91.692-12.779,129.814-35.057c-9.294-34.491-31.96-63.497-62.104-81.105
	L188.291,358.306L188.291,358.306z"/>
<g>
	<path style="fill:#BD7155;" d="M256,474.468c37.479,0,73.079-8.016,105.203-22.407H150.797
		C182.921,466.452,218.521,474.468,256,474.468z"/>
	<path style="fill:#BD7155;" d="M129.223,429.654h253.554c-2.767-7.829-6.245-15.32-10.345-22.407H139.568
		C135.468,414.335,131.991,421.825,129.223,429.654z"/>
	<path style="fill:#BD7155;" d="M330.311,362.433H181.689c-9.557,6.351-18.256,13.887-25.882,22.407h200.386
		C348.567,376.32,339.867,368.785,330.311,362.433z"/>
</g>
<g>
	<path style="opacity:0.2;fill:#47423F;enable-background:new    ;" d="M356.832,385.565c-2.505-2.839-5.128-5.57-7.861-8.19
		c-6.15-5.89-12.854-11.203-20.033-15.85c-1.716-1.111-3.459-2.187-5.228-3.221h-11.692H188.291
		c-14.06,8.213-26.492,18.908-36.7,31.481c36.485,13.251,78.689,17.461,104.683,17.461c11.84,0,27.065-0.887,43.585-3.118
		c6.432-0.868,12.159,4.129,12.159,10.619v53.608c5.293-1.174,10.521-2.515,15.685-4.01c7.45-2.156,14.759-4.639,21.915-7.434
		c1.772-0.691,3.535-1.403,5.287-2.132c0.643-0.268,1.286-0.536,1.926-0.809c10-4.258,19.678-9.125,28.982-14.562
		C380.361,419.174,370.3,400.831,356.832,385.565z"/>
	<path style="opacity:0.2;fill:#47423F;enable-background:new    ;" d="M184.298,464.347v-60.764
		c-13.617,13.774-23.292,31.449-27.203,51.199C165.925,458.457,175.003,461.658,184.298,464.347z"/>
</g>
<g>
	<path style="fill:#CE9276;" d="M189.152,358.306c3.537,33.799,32.114,60.145,66.848,60.145s63.312-26.347,66.848-60.145H189.152z"
		/>
	<path style="fill:#CE9276;" d="M356.832,385.565c-2.505-2.839-5.128-5.57-7.861-8.19c-8.134,7.792-15.292,16.592-21.268,26.207
		c13.618,13.774,23.292,31.449,27.203,51.199c0.643-0.268,1.286-0.536,1.926-0.809c10-4.258,19.678-9.125,28.982-14.562
		C380.361,419.174,370.3,400.831,356.832,385.565z"/>
</g>
<path style="fill:#DFB296;" d="M163.03,377.376c-17.43,16.697-30.377,38.035-36.844,62.035c9.901,5.785,20.225,10.923,30.909,15.371
	c3.91-19.75,13.585-37.426,27.203-51.199C178.322,393.969,171.164,385.167,163.03,377.376z"/>
<path style="fill:#CE9276;" d="M429.654,166.372c-8.218,0-15.969,1.979-22.825,5.467c-8.18-30.943-24.293-60.447-45.808-83.881
	L109.313,298.802c4.2,17.121,9.735,31.647,16.671,38.355c25.548,24.713,86.509,36.48,130.29,36.48
	c43.781,0,104.195-11.767,129.743-36.48c11.526-11.149,19.188-43.87,23.274-74.25c6.229,2.755,13.115,4.297,20.363,4.297
	c27.844,0,50.416-22.572,50.416-50.416S457.498,166.372,429.654,166.372z"/>
<path style="fill:#DFB296;" d="M109.313,298.802c30.001,16.487,77.439,24.419,113.35,24.419c43.781,0,104.195-11.767,129.743-36.48
	c18.267-17.669,26.832-89.528,26.832-120.369c0-26.521-6.597-53.598-18.216-78.413C333.219,57.676,296.394,37.532,256,37.532
	c-71.652,0-132.079,63.376-150.829,134.308c-6.854-3.488-14.606-5.467-22.825-5.467c-27.844,0-50.416,22.572-50.416,50.416
	s22.572,50.416,50.416,50.416c7.249,0,14.134-1.542,20.363-4.297C104.337,275.006,106.533,287.471,109.313,298.802z"/>
<path style="opacity:0.2;fill:#5B341A;enable-background:new    ;" d="M409.291,262.909c-17.698-7.823-30.052-25.52-30.052-46.116
	l0,0v-0.006c0.158-3.008-1.375-5.924-4.053-7.302c-6.385-3.285-12.752,1.265-12.752,7.302c0,0.002,0,0.003,0,0.006l0,0
	c0,18.565-15.051,33.605-33.616,33.605h-14.004c-9.279,0-16.8,7.522-16.8,16.8l0,0c0,13.921-11.286,25.208-25.208,25.208h-33.622
	c-13.916,0-25.197-11.281-25.197-25.197v-0.011c0-9.279-7.521-16.8-16.8-16.8h-14.004c-18.565,0-33.616-15.04-33.616-33.605l0,0
	v-0.006c0.158-3.008-1.375-5.924-4.053-7.302c-6.385-3.285-12.752,1.265-12.752,7.302c0,0.002,0,0.003,0,0.006l0,0
	c0,20.595-12.354,38.292-30.052,46.116c1.628,12.098,3.824,24.563,6.603,35.893c4.2,17.121,9.735,31.647,16.671,38.355
	c25.548,24.713,86.509,36.48,130.29,36.48c43.781,0,104.195-11.767,129.743-36.48C397.542,326.008,405.204,293.289,409.291,262.909z
	"/>
<circle style="fill:#BD7155;" cx="429.654" cy="216.788" r="16.805"/>
<circle style="fill:#CE9276;" cx="82.346" cy="216.788" r="16.805"/>
<g>
	<path style="opacity:0.4;fill:#AD712C;enable-background:new    ;" d="M397.947,176.344l8.882-4.505l0,0
		c-8.18-30.943-24.293-60.447-45.807-83.881C333.219,57.676,296.394,37.532,256,37.532c-71.652,0-132.079,63.376-150.829,134.308
		c-0.919-0.467-1.855-0.903-2.805-1.315c0.957,0.415,1.9,0.854,2.824,1.324l8.862,4.496c3.457,1.754,7.651,1.086,10.392-1.656
		c0,0,33.223-33.223,44.298-44.298c0.233-0.233,0.466-0.464,0.7-0.695c9.797-9.644,24.802-11.281,36.75-4.479
		c14.693,8.366,31.692,13.145,49.809,13.145c18.117,0,35.116-4.779,49.81-13.145c11.947-6.802,26.951-5.165,36.75,4.479
		c0.234,0.231,0.467,0.462,0.699,0.695c11.075,11.075,44.298,44.298,44.298,44.298C390.296,177.43,394.49,178.099,397.947,176.344z"
		/>
	<path style="fill:#AD712C;" d="M263.842,234.993c-3.637,0-6.723,2.314-7.894,5.546c-1.244-3.085-4.261-5.266-7.791-5.266
		c-18.533,0-33.611,15.078-33.611,33.611c0,4.64,3.761,8.403,8.403,8.403c16.507,0,30.264-11.965,33.075-27.677
		c2.924,15.574,16.616,27.397,33.026,27.397c4.642,0,8.403-3.762,8.403-8.403C297.453,250.071,282.375,234.993,263.842,234.993z"/>
</g>
<g>
	<path style="fill:#CE9276;" d="M199.982,250.398c-18.533,0-33.611-15.078-33.611-33.611c0-4.642,3.762-8.403,8.403-8.403
		s8.403,3.761,8.403,8.403c0,9.266,7.539,16.805,16.805,16.805c4.64,0,8.403,3.761,8.403,8.403S204.623,250.398,199.982,250.398z"/>
	<path style="fill:#CE9276;" d="M312.018,250.398c-4.642,0-8.403-3.761-8.403-8.403s3.761-8.403,8.403-8.403
		c9.266,0,16.805-7.539,16.805-16.805c0-4.642,3.761-8.403,8.403-8.403c4.642,0,8.403,3.761,8.403,8.403
		C345.628,235.321,330.55,250.398,312.018,250.398z"/>
	<path style="fill:#CE9276;" d="M92.214,351.229l-4.574,22.116l16.871-4.899c4.3,6.02,12.976,6.738,18.208,1.507l0,0
		c4.139-4.139,4.679-10.661,1.276-15.424l-12.298-17.216c-4.3-6.02-12.976-6.738-18.208-1.507l0,0
		C89.352,339.943,88.812,346.466,92.214,351.229z"/>
</g>
<path style="fill:#DFB296;" d="M104.795,403.722L104.795,403.722c-9.475,9.475-24.836,9.475-34.311,0l-6.611-6.611
	c-13.126-13.126-13.126-34.407,0-47.532l0,0c8.294-8.294,22.051-7.156,28.868,2.39l14.641,20.497
	C114.276,382.114,113.181,395.335,104.795,403.722z"/>
<circle style="fill:#47423F;" cx="136.123" cy="435.256" r="39.212"/>
<path style="fill:#5B5751;" d="M164.131,424.053c0-7.962-2.38-15.366-6.458-21.551c-6.185-4.078-13.589-6.458-21.551-6.458
	c-21.656,0-39.212,17.556-39.212,39.212c0,7.962,2.38,15.366,6.458,21.551c6.185,4.078,13.589,6.458,21.551,6.458
	C146.575,463.265,164.131,445.709,164.131,424.053z"/>
<circle style="fill:#706B63;" cx="124.919" cy="424.053" r="16.805"/>
<circle style="fill:#47423F;" cx="47.615" cy="308.656" r="39.212"/>
<path style="fill:#5B5751;" d="M75.624,297.453c0-7.962-2.38-15.366-6.458-21.551c-6.185-4.078-13.589-6.458-21.551-6.458
	c-21.656,0-39.212,17.556-39.212,39.212c0,7.962,2.38,15.366,6.458,21.551c6.185,4.078,13.589,6.458,21.551,6.458
	C58.068,336.665,75.624,319.109,75.624,297.453z"/>
<circle style="fill:#706B63;" cx="36.411" cy="297.453" r="16.805"/>
<path style="fill:#DFB296;" d="M419.786,351.229l4.574,22.116l-16.871-4.899c-4.3,6.02-12.976,6.738-18.208,1.507l0,0
	c-4.139-4.139-4.679-10.661-1.276-15.424l12.298-17.216c4.3-6.02,12.976-6.738,18.208-1.507l0,0
	C422.648,339.943,423.188,346.466,419.786,351.229z"/>
<path style="fill:#CE9276;" d="M407.205,403.722L407.205,403.722c9.475,9.475,24.836,9.475,34.311,0l6.611-6.611
	c13.126-13.126,13.126-34.407,0-47.532l0,0c-8.294-8.294-22.051-7.156-28.868,2.39l-14.641,20.497
	C397.724,382.114,398.819,395.335,407.205,403.722z"/>
<circle style="fill:#47423F;" cx="375.877" cy="435.256" r="39.212"/>
<path style="fill:#5B5751;" d="M403.886,424.053c0-7.962-2.38-15.366-6.458-21.551c-6.185-4.078-13.589-6.458-21.551-6.458
	c-21.656,0-39.212,17.556-39.212,39.212c0,7.962,2.38,15.366,6.458,21.551c6.185,4.078,13.589,6.458,21.551,6.458
	C386.33,463.265,403.886,445.709,403.886,424.053z"/>
<circle style="fill:#706B63;" cx="364.674" cy="424.053" r="16.805"/>
<circle style="fill:#47423F;" cx="464.385" cy="308.656" r="39.212"/>
<path style="fill:#5B5751;" d="M492.394,297.453c0-7.962-2.38-15.366-6.458-21.551c-6.185-4.078-13.589-6.458-21.551-6.458
	c-21.656,0-39.212,17.556-39.212,39.212c0,7.962,2.38,15.366,6.458,21.551c6.185,4.078,13.589,6.458,21.551,6.458
	C474.838,336.665,492.394,319.109,492.394,297.453z"/>
<circle style="fill:#706B63;" cx="453.182" cy="297.453" r="16.805"/>
<circle cx="256" cy="62.74" r="8.403"/>
<circle cx="230.792" cy="90.748" r="8.403"/>
<circle cx="208.385" cy="73.943" r="8.403"/>
<circle cx="174.775" cy="96.35" r="8.403"/>
<circle cx="258.801" cy="113.155" r="8.403"/>
<circle cx="298.013" cy="101.952" r="8.403"/>
<circle cx="309.217" cy="68.341" r="8.403"/>
<circle cx="342.827" cy="101.952" r="8.403"/>
<path d="M512,308.656c0-24.987-19.352-45.525-43.853-47.452c12.437-10.792,20.325-26.696,20.325-44.416
	c0-32.433-26.387-58.818-58.818-58.818c-5.962,0-11.767,0.873-17.348,2.603c-9.105-28.8-24.906-56.31-45.094-78.297
	C335.748,48.004,296.251,29.129,256,29.129c-31.066,0-61.825,11.236-88.952,32.494c-25.099,19.67-45.608,46.503-59.309,77.601
	c-1.871,4.247,0.055,9.206,4.301,11.077c4.246,1.871,9.206-0.055,11.077-4.301C149.899,85.213,202.06,45.934,256,45.934
	c35.489,0,70.589,16.943,98.834,47.707c20.497,22.326,36.077,50.859,43.872,80.345c0.649,2.455,2.373,4.485,4.691,5.522
	c2.319,1.036,4.979,0.971,7.244-0.18c5.939-3.022,12.336-4.553,19.015-4.553c23.167,0,42.013,18.847,42.013,42.013
	s-18.848,42.013-42.014,42.013c-3.818,0-7.559-0.514-11.182-1.518c1.757-14.761,2.78-29.508,2.78-40.495
	c0-4.634,3.769-8.403,8.403-8.403s8.403,3.769,8.403,8.403c0,4.64,3.761,8.403,8.403,8.403c4.642,0,8.403-3.762,8.403-8.403
	c0-13.9-11.309-25.208-25.208-25.208s-25.208,11.308-25.208,25.208c0,11.959-1.302,28.781-3.482,44.999v0.001
	c-4.694,34.902-12.661,61.468-20.79,69.331c-14.347,13.878-43.735,25.068-80.628,30.699c-4.588,0.7-7.738,4.987-7.038,9.575
	c0.634,4.158,4.216,7.135,8.295,7.135c0.422,0,0.849-0.031,1.279-0.097c2.079-0.317,4.317-0.682,6.669-1.093
	c-9.694,19.771-29.82,32.712-52.752,32.712c-22.968,0-43.112-12.973-52.79-32.789c2.365,0.415,4.612,0.782,6.703,1.102
	c0.431,0.066,0.86,0.097,1.284,0.097c4.078,0,7.658-2.975,8.295-7.131c0.702-4.587-2.446-8.875-7.032-9.579
	c-36.977-5.668-66.367-16.833-80.634-30.633c-2.905-2.81-8.633-11.005-14.353-34.319c-2.501-10.194-4.727-22.301-6.436-35.012
	c-2.181-16.213-3.483-33.035-3.483-44.998c0-13.9-11.308-25.208-25.208-25.208s-25.208,11.308-25.208,25.208
	c0,4.64,3.762,8.403,8.403,8.403s8.403-3.762,8.403-8.403c0-4.634,3.769-8.403,8.403-8.403c4.634,0,8.403,3.769,8.403,8.403
	c0,10.99,1.024,25.738,2.78,40.495c-3.623,1.004-7.364,1.518-11.182,1.518c-23.167,0-42.013-18.847-42.013-42.013
	s18.847-42.013,42.013-42.013c6.678,0,13.076,1.533,19.013,4.553c0.007,0.003,0.012,0.006,0.019,0.009
	c0.003,0.001,0.007,0.004,0.01,0.006l8.863,4.496c2.502,1.269,5.195,1.887,7.865,1.887c4.497,0,8.928-1.752,12.27-5.094
	l44.298-44.298l0.653-0.648c6.958-6.852,17.938-8.153,26.698-3.165c16.366,9.32,35.028,14.245,53.965,14.245
	c18.936,0,37.599-4.925,53.967-14.245c8.76-4.987,19.737-3.684,26.698,3.167l44.948,44.943c3.283,3.282,8.602,3.282,11.884,0
	s3.281-8.602,0-11.882l-44.305-44.304l-0.741-0.734c-12.292-12.101-31.539-14.482-46.799-5.792
	c-13.839,7.878-29.625,12.043-45.652,12.043c-16.028,0-31.813-4.164-45.652-12.044c-15.264-8.688-34.509-6.308-46.799,5.79
	l-45.047,45.04c-0.171,0.171-0.434,0.212-0.65,0.103l-8.862-4.496c-0.001,0-0.002-0.001-0.003-0.001
	c-0.002-0.001-0.004-0.002-0.007-0.003c-8.321-4.234-17.281-6.38-26.634-6.38c-32.433,0-58.818,26.385-58.818,58.818
	c0,17.721,7.888,33.624,20.324,44.416C19.351,263.131,0,283.669,0,308.656c0,26.255,21.359,47.615,47.615,47.615
	c0.559,0,1.111-0.024,1.666-0.043c-6.864,15.433-3.987,34.184,8.651,46.823l6.61,6.61c6.368,6.368,14.733,9.552,23.097,9.552
	c1.246,0,2.492-0.08,3.731-0.221c-1.851,5.077-2.862,10.554-2.862,16.263c0,26.255,21.359,47.615,47.615,47.615
	s47.615-21.359,47.615-47.615c0-5.537-0.96-10.852-2.706-15.799c5.139-7.007,11.183-13.185,18.03-18.487
	c2.864,3.283,6.01,6.332,9.42,9.091c13.39,10.829,30.266,16.793,47.519,16.793c17.239,0,34.102-5.955,47.488-16.769
	c3.277-2.647,6.315-5.56,9.089-8.694l9.862,8.018c3.074,3.14,5.928,6.508,8.529,10.047c-1.746,4.947-2.706,10.264-2.706,15.8
	c0,26.255,21.359,47.615,47.615,47.615s47.615-21.359,47.615-47.615c0-5.709-1.012-11.186-2.862-16.262
	c1.239,0.141,2.484,0.221,3.73,0.221c8.363,0,16.73-3.184,23.096-9.551l6.612-6.611c12.638-12.639,15.513-31.39,8.65-46.823
	c0.555,0.019,1.108,0.043,1.666,0.043C490.641,356.271,512,334.912,512,308.656z M142.263,388.05
	c-2.012-0.261-4.059-0.409-6.141-0.409c-5.629,0-11.029,0.988-16.046,2.79c0.371-3.107,0.313-6.258-0.221-9.364
	c3.287-0.94,6.324-2.692,8.805-5.172c6.132-6.131,7.625-15.242,4.128-22.863c8.85,5.651,19.03,10.182,29.358,13.798
	C154.828,373.21,148.164,380.286,142.263,388.05z M99.052,346.345c-1.018-1.425-0.858-3.36,0.38-4.598
	c1.018-1.018,2.203-1.083,2.819-1.033c0.615,0.05,1.774,0.311,2.609,1.482l12.298,17.216c1.018,1.426,0.858,3.36-0.381,4.599
	c-1.017,1.018-2.201,1.084-2.818,1.033c-0.615-0.05-1.771-0.311-2.608-1.48l-11.773-16.481c-0.114-0.16-0.238-0.311-0.354-0.468
	C99.166,346.525,99.115,346.432,99.052,346.345z M82.346,275.606c4.59,0,9.103-0.523,13.5-1.562
	c1.527,9.636,3.305,18.602,5.305,26.758c2.353,9.59,4.916,17.665,7.716,24.327c-1.67-0.603-3.419-1.016-5.229-1.166
	c-4.23-0.348-8.393,0.649-11.975,2.75c2.293-5.571,3.567-11.667,3.567-18.058c0-12.835-5.113-24.492-13.399-33.064
	C82.003,275.595,82.173,275.606,82.346,275.606z M16.805,308.656c0-16.989,13.821-30.81,30.81-30.81s30.81,13.821,30.81,30.81
	s-13.821,30.81-30.81,30.81S16.805,325.645,16.805,308.656z M76.426,397.779l-6.61-6.61c-4.761-4.762-7.383-11.091-7.383-17.825
	c0-6.733,2.623-13.063,7.383-17.825c1.995-1.995,4.68-3.099,7.475-3.099c0.291,0,0.585,0.012,0.878,0.036
	c3.106,0.257,5.926,1.859,7.736,4.394l11.768,16.475c0.001,0.001,0.001,0.002,0.002,0.004c0.001,0.001,0.002,0.002,0.003,0.003
	l2.868,4.014c4.525,6.334,3.814,14.928-1.691,20.432C92.67,403.964,82.609,403.962,76.426,397.779z M136.123,466.066
	c-16.989,0-30.81-13.821-30.81-30.81c0-16.989,13.821-30.81,30.81-30.81s30.81,13.821,30.81,30.81
	C166.932,452.245,153.112,466.066,136.123,466.066z M171.907,403.896c-3.586-4.087-7.857-7.558-12.635-10.229
	c6.589-7.889,14.113-14.902,22.446-20.99c0.64,0.162,1.278,0.324,1.912,0.48c1.473,4.854,3.439,9.54,5.848,13.99
	C183,392.081,177.122,397.672,171.907,403.896z M495.195,308.656c0,16.989-13.822,30.81-30.81,30.81s-30.81-13.821-30.81-30.81
	s13.822-30.81,30.81-30.81S495.195,291.667,495.195,308.656z M369.731,388.051c-5.885-7.745-12.53-14.808-19.829-21.177
	c10.298-3.619,20.455-8.156,29.299-13.82c-3.484,7.615-1.989,16.713,4.137,22.839c2.48,2.48,5.518,4.233,8.805,5.172
	c-0.534,3.106-0.592,6.257-0.222,9.364c-5.016-1.802-10.417-2.79-16.046-2.79C373.794,387.641,371.746,387.79,369.731,388.051z
	 M412.949,346.345c-0.06,0.085-0.111,0.175-0.168,0.262c-0.12,0.16-0.244,0.314-0.361,0.477l-11.769,16.479
	c-0.837,1.171-1.994,1.431-2.61,1.482c-0.614,0.048-1.8-0.015-2.819-1.033c-1.239-1.239-1.399-3.173-0.381-4.598l12.299-17.218
	c0.836-1.171,1.993-1.431,2.609-1.482c0.62-0.05,1.8,0.016,2.819,1.033C413.806,342.985,413.966,344.919,412.949,346.345z
	 M430.17,275.593c-8.286,8.572-13.399,20.229-13.399,33.064c0,6.39,1.274,12.486,3.567,18.059c-3.582-2.102-7.743-3.099-11.975-2.75
	c-1.815,0.15-3.568,0.566-5.243,1.171c6.14-14.525,10.285-33.623,13.039-51.09c4.396,1.037,8.908,1.561,13.497,1.561
	C429.827,275.606,429.997,275.595,430.17,275.593z M334.078,397.277c-0.213-0.216-0.439-0.421-0.676-0.613l-11.133-9.051
	c2.512-4.563,4.554-9.382,6.076-14.376c0.665-0.164,1.335-0.334,2.007-0.504c8.306,6.077,15.805,13.073,22.372,20.937
	c-4.783,2.673-9.056,6.147-12.644,10.24C338.163,401.624,336.174,399.397,334.078,397.277z M375.877,466.066
	c-16.988,0-30.81-13.821-30.81-30.81c0-16.989,13.822-30.81,30.81-30.81s30.81,13.821,30.81,30.81
	C406.687,452.245,392.865,466.066,375.877,466.066z M442.187,391.168l-6.612,6.611c-6.182,6.183-16.245,6.183-22.427,0
	c-5.504-5.504-6.216-14.097-1.691-20.432l14.638-20.497c1.812-2.535,4.632-4.137,7.737-4.394c0.294-0.024,0.585-0.036,0.877-0.036
	c2.795,0,5.481,1.104,7.475,3.099C452.013,365.348,452.013,381.34,442.187,391.168z"/>
<path d="M289.05,260.481c-9.266,0-16.805-7.539-16.805-16.805c0-4.64-3.761-8.403-8.403-8.403c-3.584,0-6.635,2.247-7.842,5.406
	c-1.208-3.158-4.258-5.406-7.842-5.406c-4.642,0-8.403,3.762-8.403,8.403c0,9.266-7.539,16.805-16.805,16.805
	c-4.642,0-8.403,3.762-8.403,8.403c0,4.64,3.761,8.403,8.403,8.403c16.458,0,30.182-11.895,33.05-27.537
	c2.868,15.642,16.592,27.537,33.05,27.537c4.642,0,8.403-3.762,8.403-8.403C297.453,264.244,293.692,260.481,289.05,260.481z"/>
<path d="M240.767,195.564c-2.599,0-5.164-1.203-6.807-3.469c-5.155-7.103-12.613-12.52-21.004-15.251
	c-4.412-1.436-6.825-6.179-5.389-10.591c1.436-4.414,6.183-6.825,10.592-5.389c11.909,3.878,22.077,11.264,29.402,21.362
	c2.726,3.757,1.89,9.01-1.867,11.736C244.204,195.043,242.477,195.564,240.767,195.564z"/>
<path d="M271.236,195.566c-1.711,0-3.437-0.521-4.928-1.603c-3.757-2.726-4.591-7.98-1.865-11.736
	c7.336-10.108,17.504-17.495,29.406-21.362c4.409-1.434,9.153,0.98,10.587,5.394c1.434,4.413-0.981,9.154-5.394,10.588
	c-8.501,2.763-15.761,8.036-20.996,15.25C276.399,194.363,273.836,195.566,271.236,195.566z"/>
<circle cx="199.982" cy="216.788" r="16.805"/>
<circle cx="312.018" cy="216.788" r="16.805"/>
<g>
</g>
<g>
</g>
<g>
</g>
<g>
</g>
<g>
</g>
<g>
</g>
<g>
</g>
<g>
</g>
<g>
</g>
<g>
</g>
<g>
</g>
<g>
</g>
<g>
</g>
<g>
</g>
<g>
</g>
</svg>
