<?xml version="1.0" encoding="iso-8859-1"?>
<!-- Generator: Adobe Illustrator 19.0.0, SVG Export Plug-In . SVG Version: 6.00 Build 0)  -->
<svg version="1.1" id="Layer_1" xmlns="http://www.w3.org/2000/svg" xmlns:xlink="http://www.w3.org/1999/xlink" x="0px" y="0px"
	 viewBox="0 0 511.996 511.996" style="enable-background:new 0 0 511.996 511.996;" xml:space="preserve">
<path style="fill:#C98A2E;" d="M493.562,223.505c-1.949-1.602-4.513-2.246-6.989-1.756c-0.816,0.162-1.644,0.244-2.464,0.244
	c-7.425,0-13.467-6.051-13.467-13.488v-8.992c12.377,0,22.445-10.085,22.445-22.48v-22.485c0-3.196-1.806-6.116-4.666-7.543
	c-2.857-1.429-6.279-1.115-8.833,0.807c-5.861,4.411-12.834,6.741-20.168,6.741v-11.24c0-29.518-11.989-58.487-32.894-79.483
	c-1.938-1.946-4.702-2.828-7.41-2.359c-2.707,0.468-5.017,2.224-6.188,4.709c-2.779,5.888-8.758,9.691-15.235,9.691
	c-9.282,0-16.834-7.564-16.834-16.86v-5.62c0-21.199-15.036-39.714-35.752-44.023c-4.516-0.939-8.942,1.921-9.945,6.418
	c-3.407,15.279-17.228,26.366-32.862,26.366l-9.861-9.877C278.461,18.272,259.935,9.864,240.275,8.6
	c-3.018-0.196-5.918,1.248-7.583,3.778c-10.457,15.882-31.113,21.649-48.055,13.404c-3.782-1.84-7.768-3.29-11.846-4.311
	c-13.194-3.303-27.287-2.061-39.682,3.501c-2.304,1.035-4.024,3.048-4.684,5.486c-0.662,2.438-0.194,5.043,1.272,7.099
	c2.843,3.986,4.335,8.612,4.44,13.752c0.234,11.596-7.188,24.904-18.461,33.106c-0.499,0.363-1,0.713-1.511,1.053
	c-10.757,7.182-22.778,10.136-33.842,8.32c-2.648-0.439-5.347,0.416-7.266,2.295c-1.918,1.879-2.827,4.559-2.447,7.217
	c2.23,15.586,0.084,31.855-5.738,43.52c-3.236,6.483-9.981,10.154-17.17,9.374c-2.845-0.312-5.456-1.257-7.76-2.808
	c-2.115-1.425-4.762-1.814-7.199-1.06c-2.436,0.754-4.401,2.572-5.342,4.941c-3.087,7.773-6.935,17.491-10.125,25.637
	c-3.995,10.203-1.575,21.801,6.162,29.554c5.957,5.965,9.303,13.894,9.425,22.314l0.008,0.634
	c0.084,5.738-2.454,11.102-6.952,14.706l-0.179,0.143c-4.392,3.519-6.88,8.762-6.83,14.38l0.019,2.131
	c-0.001,0.065-0.002,0.128-0.002,0.188c0,0.237,0.01,0.473,0.029,0.706c0.284,6.126,2.982,11.924,7.474,15.997
	c2.552,2.293,4.55,4.766,5.78,7.152c0.018,0.034,0.035,0.067,0.053,0.1c0.275,0.518,0.549,1.14,0.864,1.859l0.089,0.201
	c0.019,0.044,0.038,0.087,0.058,0.129c0.287,0.624,0.542,1.262,0.761,1.898c0.422,1.233,0.72,2.508,0.888,3.791
	c0.155,1.499,0.3,3.074,0.264,4.487c-0.035,1.323-0.208,2.672-0.51,4.008c-0.38,1.516-0.8,3.11-1.381,4.557
	c-0.562,1.407-1.279,2.804-2.132,4.152c-3.436,5.282-4.358,11.694-2.599,18.074c1.612,6.092,5.952,11.224,11.976,14.119
	c1.324,0.623,2.634,1.399,4.122,2.445c0.031,0.022,0.065,0.044,0.097,0.066c1.244,0.849,2.385,1.793,3.426,2.843
	c0.851,0.849,1.705,1.901,2.689,3.314c0.033,0.048,0.067,0.097,0.102,0.144c0.786,1.08,1.459,2.238,2.002,3.44
	c0.26,0.578,0.497,1.18,0.704,1.792c0.257,0.812,0.499,1.626,0.741,2.44c0.341,1.244,0.563,2.554,0.661,3.894
	c0.174,3.517-0.121,6.488-0.941,9.374c-0.864,3.089-1.081,6.218-0.644,9.305c0.011,0.081,0.024,0.164,0.038,0.245
	c0.522,3.042,1.647,5.926,3.374,8.618c1.824,2.802,4.046,5.052,6.676,6.735c2.661,1.662,5.577,2.749,8.668,3.23
	c1.576,0.245,3.097,0.627,4.603,1.163c1.728,0.597,3.098,1.181,4.23,1.807c1.216,0.665,2.351,1.44,3.373,2.304
	c0.066,0.055,0.132,0.11,0.2,0.164c1.22,0.968,2.199,1.888,3.055,2.884c0.745,0.849,1.508,1.937,2.4,3.423
	c0.027,0.045,0.055,0.09,0.083,0.135c0.708,1.133,1.314,2.366,1.824,3.735c0.538,1.402,0.918,3.12,1.191,4.459
	c0.301,1.483,0.462,3.044,0.481,4.641c0.035,3.127,0.695,6.167,1.96,9.036c0.028,0.065,0.057,0.129,0.088,0.193
	c1.303,2.766,3.206,5.251,5.682,7.412c2.399,2.074,5.1,3.6,8.032,4.537c0.097,0.031,0.194,0.061,0.293,0.088
	c3.019,0.846,6.123,1.066,9.233,0.658c1.586-0.211,3.156-0.274,4.571-0.19c1.616,0.111,3.307,0.245,4.747,0.574
	c1.351,0.293,2.659,0.717,3.91,1.268c1.577,0.69,2.834,1.285,3.9,1.984c1.108,0.71,2.159,1.547,3.12,2.487
	c0.099,0.097,0.2,0.19,0.305,0.282c1,0.885,1.928,1.894,2.765,3.01c0.828,1.1,1.607,2.378,2.312,3.804
	c0.034,0.07,0.071,0.138,0.107,0.208c0.704,1.329,1.298,2.776,1.766,4.297c0.918,2.992,2.412,5.722,4.378,8.038
	c1.943,2.347,4.442,4.216,7.741,5.757c2.86,1.294,5.875,1.99,8.979,2.067c3.051,0.071,6.253-0.602,9.353-1.963
	c1.47-0.656,2.963-1.164,4.501-1.528c0.589-0.144,1.265-0.259,2.046-0.391l0.368-0.063c0.721-0.126,1.443-0.218,2.228-0.28
	c2.419-0.21,5.033,0.085,8.449,0.959c2.362,0.679,4.827,1.932,7.531,3.824c2.143,1.57,4.324,3.918,6.311,6.797
	c1.735,2.576,3.944,4.738,6.553,6.418c2.865,1.851,5.924,2.969,9.093,3.318c3.089,0.387,6.147,0.158,9.145-0.679
	c3.237-0.926,6.065-2.45,8.327-4.454c2.429-2.099,5.043-3.638,7.77-4.577c0.119-0.042,0.237-0.085,0.354-0.132
	c2.608-1.031,5.302-1.508,7.949-1.444c0.154,0.004,0.305,0.004,0.459,0c2.659-0.071,5.341,0.415,7.949,1.445
	c0.117,0.046,0.236,0.089,0.354,0.13c2.712,0.934,5.315,2.463,7.736,4.546c2.331,2.056,5.145,3.565,8.416,4.502
	c2.016,0.562,4.084,0.844,6.176,0.844c0.968,0,1.941-0.061,2.917-0.181c3.169-0.352,6.227-1.468,9.08-3.311
	c2.639-1.699,4.86-3.88,6.541-6.391c1.993-2.893,4.182-5.255,6.336-6.832c2.703-1.893,5.169-3.144,7.532-3.823
	c3.411-0.872,6.024-1.17,8.525-0.952c0.707,0.055,1.431,0.147,2.194,0.281l0.329,0.056c0.779,0.132,1.453,0.246,2.101,0.404
	c1.483,0.352,2.975,0.86,4.489,1.534c3.053,1.339,6.284,2.015,9.323,1.942c3.085-0.078,6.101-0.773,9.058-2.111
	c3.201-1.497,5.7-3.366,7.579-5.638c2.03-2.394,3.525-5.124,4.441-8.111c0.47-1.53,1.064-2.978,1.766-4.302
	c0.036-0.069,0.071-0.137,0.106-0.207c0.706-1.425,1.484-2.704,2.32-3.814c0.831-1.107,1.759-2.117,2.757-3
	c0.105-0.092,0.207-0.188,0.306-0.284c0.957-0.935,2.005-1.771,3.196-2.535c0.995-0.653,2.246-1.243,3.844-1.942
	c1.231-0.543,2.539-0.967,3.984-1.281c1.344-0.308,3.036-0.443,4.561-0.547c1.512-0.084,3.08-0.025,4.666,0.184
	c3.11,0.408,6.214,0.19,9.232-0.658c0.098-0.027,0.196-0.056,0.292-0.088c2.931-0.936,5.634-2.463,8.059-4.561
	c2.449-2.137,4.352-4.623,5.655-7.39c0.029-0.063,0.058-0.125,0.087-0.189c1.264-2.868,1.925-5.91,1.96-9.037
	c0.02-1.601,0.181-3.162,0.48-4.638c0.273-1.341,0.654-3.061,1.218-4.533c0.484-1.296,1.088-2.529,1.797-3.663
	c0.027-0.044,0.055-0.088,0.081-0.132c0.897-1.495,1.66-2.583,2.467-3.501c0.79-0.921,1.767-1.839,2.987-2.807
	c0.071-0.055,0.138-0.111,0.207-0.169c1.02-0.862,2.152-1.637,3.413-2.324c1.089-0.604,2.459-1.188,4.274-1.814
	c1.421-0.508,2.938-0.889,4.519-1.135c3.093-0.482,6.009-1.569,8.739-3.277c2.556-1.635,4.778-3.886,6.633-6.735
	c1.697-2.645,2.822-5.529,3.344-8.571c0.015-0.08,0.026-0.161,0.038-0.241c0.438-3.083,0.22-6.215-0.652-9.339
	c-0.812-2.857-1.107-5.829-0.933-9.344c0.098-1.339,0.32-2.648,0.661-3.894c0.242-0.813,0.483-1.626,0.74-2.437
	c0.203-0.605,0.441-1.207,0.706-1.795c0.542-1.202,1.215-2.359,2.001-3.439c0.034-0.047,0.069-0.093,0.101-0.141
	c1-1.437,1.829-2.459,2.727-3.354c1.003-1.01,2.142-1.955,3.391-2.807c0.031-0.022,0.063-0.043,0.094-0.065
	c1.488-1.045,2.799-1.823,4.182-2.474c5.965-2.863,10.304-7.995,11.917-14.088c1.759-6.38,0.837-12.792-2.6-18.074
	c-0.854-1.351-1.571-2.747-2.138-4.169c-0.576-1.432-0.996-3.025-1.376-4.54c-0.303-1.336-0.475-2.685-0.509-3.998
	c-0.036-1.418,0.108-2.998,0.263-4.502c0.167-1.285,0.466-2.557,0.888-3.788c0.217-0.633,0.474-1.274,0.763-1.902
	c0.019-0.042,0.037-0.083,0.056-0.126l0.076-0.174c0.321-0.731,0.598-1.363,0.928-1.986c1.23-2.386,3.228-4.859,5.807-7.178
	c4.584-4.155,7.305-10.157,7.466-16.463c0.001-0.071,0.002-0.143,0.002-0.214V230.02
	C496.641,227.497,495.511,225.107,493.562,223.505z M392.641,278.53c-1.841,22.311-14.548,43.017-33.994,55.39
	c-0.164,0.105-0.26,0.281-0.26,0.474c0,7.513-2.311,22.426-17.79,37.904l-0.339,0.336c-6.35,6.239-14.732,9.663-23.625,9.663
	c-1.638,0-3.297-0.118-4.931-0.353c-10.419-1.497-19.288-7.549-24.341-16.604c-1.811-3.248-4.064-6.229-6.698-8.863
	c-6.588-6.588-15.326-10.713-24.601-11.616l-0.207-0.021l-0.12-0.005c-0.251,0.02-0.459,0.206-0.508,0.453
	c-0.026,0.132,0,0.243,0.026,0.313l0.088,0.235c1.25,3.54,1.884,7.253,1.884,11.038c0,18.284-14.874,33.159-33.159,33.159
	s-33.159-14.874-33.159-33.159c0-8.169,3.001-16.02,8.449-22.106c0.147-0.164,0.182-0.401,0.091-0.606
	c-0.09-0.201-0.292-0.33-0.516-0.33c-0.16,0-0.311,0.069-0.417,0.187c-2.668,2.978-6.484,4.684-10.471,4.684
	c-2.611,0-5.169-0.728-7.394-2.106c-3.183-1.966-5.417-5.065-6.28-8.72c-0.862-3.653-0.251-7.423,1.723-10.614
	c9.325-15.087,14.254-32.482,14.254-50.309c0-0.309-0.253-0.562-0.562-0.562s-0.562,0.253-0.562,0.562
	c0,18.284-14.874,33.159-33.159,33.159s-33.159-14.874-33.159-33.159l0.002-0.21c0.079-3.155,0.731-6.184,1.938-9.006
	c1.277-2.911,3.241-5.557,5.709-7.726c4.996-4.329,8.282-9.456,9.812-15.286c1.484-5.694,1.124-11.836-1.077-18.243
	c-1.068-2.881-1.462-5.944-1.203-9.36l0.012-0.145c0.167-1.797,0.477-3.365,0.944-4.795c0.496-1.493,1.126-2.919,1.886-4.279
	c0.891-1.57,1.795-2.854,2.788-3.975l0.124-0.137c1.053-1.135,2.213-2.166,3.45-3.064c2.664-1.949,5.639-3.218,8.818-3.753
	c6.297-1.175,11.567-3.895,15.669-8.085c4.088-4.221,6.763-9.706,7.922-16.274c0.506-3.184,1.717-6.175,3.602-8.892
	c0.843-1.226,1.841-2.412,2.944-3.493l0.148-0.141c1.106-1.034,2.367-1.968,3.855-2.857c1.381-0.816,2.797-1.476,4.242-1.985
	c1.494-0.515,3.018-0.832,4.842-1.013l0.158-0.013c0.672-0.055,1.339-0.081,1.982-0.081c2.613,0,5.101,0.454,7.396,1.352
	c3.634,1.316,7.22,1.984,10.658,1.984c2.305,0,4.571-0.302,6.736-0.898c5.582-1.546,10.525-4.897,14.679-9.958
	c2.163-2.595,4.762-4.625,7.56-5.922c2.889-1.303,5.913-1.99,9.066-2.07l0.219-0.007l0.219,0.007
	c3.154,0.081,6.178,0.768,8.99,2.037c2.876,1.332,5.476,3.362,7.596,5.909c4.191,5.106,9.137,8.458,14.732,10.009
	c2.151,0.591,4.417,0.894,6.721,0.894c3.438,0,7.023-0.668,10.657-1.984c2.295-0.898,4.784-1.352,7.398-1.352
	c0.642,0,1.309,0.026,1.982,0.081l0.158,0.013c1.824,0.181,3.348,0.498,4.797,0.998c1.49,0.524,2.906,1.185,4.249,1.977
	c1.523,0.91,2.786,1.847,3.898,2.884l0.133,0.127c1.105,1.08,2.106,2.269,2.975,3.534c1.864,2.686,3.075,5.677,3.582,8.862
	c1.159,6.566,3.835,12.053,7.954,16.306c4.069,4.159,9.341,6.878,15.635,8.051c3.176,0.535,6.152,1.803,8.845,3.772
	c1.212,0.879,2.372,1.91,3.425,3.045l0.124,0.137c0.994,1.121,1.897,2.404,2.758,3.922c0.789,1.413,1.42,2.838,1.903,4.291
	c0.48,1.469,0.788,3.037,0.957,4.834l0.012,0.145c0.259,3.415-0.134,6.478-1.202,9.357c-2.201,6.407-2.562,12.55-1.073,18.26
	c1.525,5.815,4.811,10.942,9.762,15.23c2.514,2.21,4.478,4.857,5.725,7.696c1.238,2.892,1.889,5.922,1.968,9.076l0.002,11.44
	L392.641,278.53z"/>
<path style="fill:#FFF35F;" d="M458.005,313.026l-0.125-0.525c-0.646-2.851-1.01-5.745-1.086-8.611
	c-0.07-2.72,0.143-5.23,0.382-7.538l0.031-0.314l0.042-0.313c0.371-2.842,1.032-5.661,1.967-8.391
	c0.451-1.315,0.976-2.635,1.561-3.923l0.079-0.18c0.402-0.914,0.9-2.045,1.594-3.364c0.345-0.663,0.709-1.321,1.094-1.973
	c5.922-10.037,9.303-21.364,9.484-33.002c0.009-0.586-0.373-1.102-0.928-1.291c-14.566-5.003-25.063-18.846-25.063-35.096v-23.587
	c0-3.576-2.779-6.355-6.326-6.807c-2.762-0.352-4.896-2.71-4.896-5.566v-29.233c0-17.572-5.383-34.904-15.109-49.485
	c-0.406-0.608-1.224-0.764-1.847-0.381c-6.265,3.86-13.571,6.029-21.165,6.029c-22.298,0-40.439-18.152-40.439-40.465v-5.62
	c0-5.128-1.847-9.925-4.956-13.668c-0.581-0.699-1.667-0.616-2.168,0.142c-10.406,15.708-28.285,25.891-47.829,25.891h-9.229
	c-0.357,0-0.7-0.143-0.953-0.396l-16.384-16.408c-7.914-7.927-17.874-13.326-28.655-15.641c-0.462-0.099-0.941,0.06-1.265,0.404
	c-11.548,12.306-27.698,19.415-44.91,19.415c-9.298,0.001-18.247-2.06-26.595-6.121c-2.315-1.126-4.755-2.014-7.256-2.64
	c-2.757-0.69-5.609-1.061-8.483-1.102c-0.558,0.656-0.763,0.899-1.321,1.556c0.28,1.976,0.443,3.985,0.484,6.013
	c0.388,19.26-10.67,39.934-28.176,52.669c-0.761,0.553-1.522,1.085-2.289,1.595c-9.729,6.496-20.322,10.619-31.073,12.147
	c-0.649,0.092-1.131,0.631-1.148,1.286c-0.378,14.11-3.482,27.659-9.058,38.83c-6.94,13.903-20.88,22.54-36.381,22.541
	c-1.479,0-3.553-0.153-5.063-0.317c-0.192-0.02-0.097-0.008-0.001,0.005c-1.505,3.809-3.505,7.568-4.967,11.11
	c-0.803,1.945-0.315,4.169,1.15,5.68c9.948,10.26,15.528,23.74,15.734,38.105l0.008,0.573c0.171,11.636-4.368,22.578-12.609,30.649
	c-0.549,0.537-0.549,1.405,0.001,1.94c3.904,3.791,7.014,7.895,9.264,12.226c0.696,1.315,1.231,2.538,1.583,3.343l0.063,0.142
	c0.592,1.3,1.126,2.64,1.594,4.003c0.928,2.713,1.587,5.528,1.958,8.364l0.042,0.32l0.033,0.32c0.238,2.305,0.448,4.807,0.381,7.538
	c-0.075,2.862-0.442,5.754-1.086,8.598l-0.124,0.522c-0.59,2.358-1.288,4.913-2.358,7.572c-0.763,1.914-1.664,3.8-2.688,5.635
	c-0.371,0.664-0.133,1.49,0.535,1.855c1.656,0.905,3.311,1.936,5.006,3.118l0.058,0.04c2.445,1.671,4.724,3.568,6.779,5.637
	c1.823,1.824,3.497,3.854,5.257,6.371c1.684,2.332,3.136,4.841,4.334,7.488c0.577,1.279,1.097,2.604,1.547,3.939l0.139,0.424
	c0.3,0.948,0.584,1.898,0.867,2.847l0.141,0.493c0.743,2.718,1.225,5.545,1.433,8.401l0.034,0.547
	c0.251,5.06-0.117,9.758-1.112,14.238c-0.164,0.74,0.297,1.456,1.037,1.614c2.069,0.441,4.107,1.015,6.09,1.716
	c2.962,1.03,5.514,2.144,7.798,3.404c2.51,1.378,4.875,2.989,7.036,4.795c2.299,1.84,4.276,3.727,6.034,5.763
	c1.64,1.882,3.146,3.987,4.724,6.602c1.51,2.428,2.8,5.058,3.836,7.82c1.132,2.976,1.792,5.885,2.244,8.11
	c0.417,2.055,0.698,4.164,0.842,6.306c0.051,0.758,0.698,1.318,1.454,1.26c1.23-0.094,2.455-0.142,3.663-0.142
	c0.892,0,1.786,0.026,2.654,0.078l0.208,0.013c2.402,0.164,5.213,0.398,8.255,1.081c2.853,0.628,5.644,1.538,8.254,2.686
	c2.272,0.996,4.723,2.142,7.253,3.787c2.326,1.498,4.52,3.234,6.522,5.157c2.088,1.88,4.014,3.989,5.702,6.239
	c1.657,2.199,3.164,4.647,4.512,7.33c0.946,1.805,1.786,3.698,2.508,5.655c0.262,0.711,1.04,1.066,1.748,0.797
	c1.977-0.751,3.996-1.372,6.028-1.856c1.398-0.336,2.673-0.551,3.571-0.702l0.335-0.057c1.422-0.247,2.828-0.424,4.293-0.541
	c1.135-0.096,2.294-0.144,3.445-0.144c4.023,0,8.083,0.559,12.777,1.757l0.344,0.088l0.342,0.099
	c4.904,1.411,9.66,3.755,14.536,7.168l0.419,0.3c3.742,2.743,7.229,6.262,10.387,10.481c0.455,0.608,1.308,0.724,1.91,0.261
	c4.035-3.107,8.393-5.49,12.937-7.082c5.115-1.979,10.447-2.982,15.851-2.982c0.216,0,0.433,0.001,0.676,0.006
	c0.255-0.005,0.508-0.007,0.762-0.007c5.386,0,10.716,1.008,15.799,2.98c4.588,1.62,8.931,3.998,12.946,7.087
	c0.602,0.463,1.454,0.347,1.91-0.261c3.16-4.223,6.647-7.743,10.393-10.486l0.411-0.294c4.876-3.413,9.634-5.758,14.545-7.171
	l0.335-0.097l0.338-0.085c4.686-1.198,8.747-1.757,12.783-1.757c1.18,0,2.371,0.051,3.54,0.149c1.395,0.114,2.822,0.296,4.248,0.542
	l0.257,0.045c1.001,0.169,2.241,0.379,3.683,0.726c1.996,0.477,3.995,1.095,5.943,1.833c0.709,0.269,1.485-0.085,1.748-0.797
	c0.712-1.931,1.541-3.804,2.483-5.609c1.338-2.679,2.868-5.165,4.513-7.344c1.705-2.272,3.623-4.374,5.718-6.263
	c2.004-1.925,4.218-3.673,6.587-5.201c2.48-1.614,4.939-2.761,7.145-3.725c2.643-1.166,5.459-2.084,8.378-2.726
	c2.951-0.665,5.711-0.895,8.073-1.058l0.31-0.02c0.876-0.048,1.761-0.073,2.654-0.073c1.22,0,2.449,0.047,3.667,0.139
	c0.756,0.057,1.402-0.502,1.453-1.26c0.144-2.141,0.426-4.256,0.845-6.327c0.451-2.212,1.115-5.133,2.269-8.172
	c1.02-2.712,2.297-5.311,3.8-7.729c1.586-2.63,3.117-4.764,4.801-6.695c1.714-1.983,3.668-3.844,5.963-5.681
	c2.165-1.809,4.546-3.429,7.08-4.82c2.287-1.262,4.785-2.349,7.845-3.411c1.936-0.686,3.945-1.25,6.001-1.688
	c0.741-0.157,1.203-0.875,1.039-1.615c-0.999-4.498-1.363-9.183-1.114-14.235l0.034-0.547c0.209-2.855,0.69-5.682,1.433-8.4
	l0.17-0.591c0.273-0.919,0.547-1.84,0.839-2.756l0.123-0.377c0.453-1.352,0.985-2.702,1.567-3.99
	c1.203-2.666,2.69-5.223,4.365-7.528c1.749-2.498,3.424-4.521,5.253-6.352c2.037-2.05,4.314-3.941,6.769-5.621
	c1.724-1.204,3.371-2.232,5.042-3.144c0.668-0.364,0.906-1.19,0.536-1.856c-1.028-1.843-1.928-3.728-2.676-5.608
	C459.29,317.928,458.594,315.379,458.005,313.026z M416.165,280.47c-2.119,25.684-15,49.712-35.085,66.275
	c-0.233,0.192-0.391,0.452-0.452,0.749c-2.365,11.576-8.486,26.643-23.341,41.496l-0.487,0.481
	c-10.784,10.595-25.048,16.43-40.167,16.43c-2.759,0-5.549-0.2-8.288-0.594c-7.785-1.12-15.071-3.74-21.528-7.64
	c-8.168-4.932-18.452-4.088-25.669,2.153c-9.954,8.605-22.92,13.818-37.08,13.818c-31.299,0-56.763-25.463-56.763-56.763
	c0-0.132-0.001-0.067-0.001-0.001c-8.054-5.301-13.68-14.142-15.907-23.579c-0.008-0.033-0.016-0.066-0.024-0.099
	c-1.311-5.627-5.472-10.091-11.023-11.693c-23.679-6.832-41.048-28.702-41.048-54.55l0.01-0.801
	c0.154-6.157,1.443-12.11,3.831-17.694l0.085-0.199c2.641-6.022,6.704-11.547,11.747-15.979l0.125-0.11
	c1.758-1.523,2.224-2.638,2.424-3.396c0.352-1.35-0.065-3.138-0.504-4.458c-2.144-5.948-2.975-12.332-2.471-18.978l0.046-0.556
	c0.334-3.569,0.993-6.819,2.046-10.043c0.959-2.882,2.196-5.691,3.677-8.344l0.079-0.141c1.704-3.001,3.553-5.612,5.655-7.984
	l0.48-0.531c2.096-2.26,4.415-4.317,6.817-6.062c5.585-4.087,11.824-6.754,18.547-7.931c1.94-0.382,2.661-1.018,2.957-1.316
	c0.724-0.769,1.253-2.043,1.576-3.794c1.093-6.613,3.606-12.79,7.421-18.289c1.706-2.481,3.678-4.825,5.862-6.968l0.563-0.538
	c2.345-2.191,4.915-4.112,7.86-5.873l0.117-0.069c2.691-1.588,5.52-2.909,8.409-3.924l0.138-0.048
	c3.217-1.108,6.553-1.823,10.199-2.185l0.568-0.051c1.296-0.106,2.61-0.16,3.905-0.16c5.423,0,10.669,0.95,15.6,2.822
	c1.28,0.445,2.083,0.514,2.455,0.514c0.257,0,0.415-0.036,0.438-0.042c1.004-0.278,2.038-1.341,2.73-2.183l0.114-0.137
	c4.369-5.244,9.822-9.472,15.767-12.227l0.221-0.102c5.745-2.591,11.856-3.987,18.065-4.145l0.925-0.028l0.827,0.025
	c6.309,0.163,12.396,1.548,18.09,4.117l0.21,0.096c6.007,2.781,11.477,7.009,15.821,12.228l0.102,0.123
	c1.033,1.26,1.974,2.013,2.746,2.228c0.042,0.011,0.199,0.048,0.463,0.048c0.372,0,1.173-0.069,2.454-0.514
	c4.931-1.873,10.178-2.822,15.603-2.822c1.294,0,2.608,0.054,3.936,0.163l0.536,0.047c3.646,0.362,6.969,1.072,10.155,2.172l0,0
	c2.93,1.001,5.749,2.302,8.413,3.881l0.247,0.146c2.974,1.776,5.562,3.708,7.914,5.907l0.51,0.489
	c2.199,2.148,4.194,4.519,5.872,6.959c3.857,5.556,6.364,11.725,7.457,18.336c0.323,1.751,0.864,3.038,1.61,3.831
	c0.27,0.269,0.99,0.903,2.924,1.281c6.718,1.177,12.961,3.848,18.497,7.894c2.459,1.785,4.771,3.837,6.869,6.099l0.481,0.532
	c2.101,2.369,3.941,4.963,5.622,7.928l0.079,0.139c1.498,2.683,2.74,5.491,3.691,8.345l0.043,0.13
	c1.026,3.143,1.687,6.402,2.021,9.967l0.046,0.555c0.505,6.647-0.326,13.03-2.469,18.977c-0.439,1.321-0.857,3.111-0.51,4.435
	c0.191,0.729,0.646,1.875,2.383,3.379l0.127,0.111c5.07,4.456,9.136,9.968,11.758,15.942l0.088,0.203
	c2.41,5.632,3.709,11.61,3.863,17.768l0.008,0.294l0.002,12.652c0,0.037-0.001,0.074-0.004,0.111L416.165,280.47z"/>
<g>
	<path style="fill:#47423F;" d="M257.787,469.277c-9.311,0-16.86-7.549-16.86-16.86c0-9.311,7.549-16.86,16.86-16.86
		c92.967,0,168.603-75.635,168.603-168.603c0-9.311,7.549-16.86,16.86-16.86c9.311,0,16.86,7.549,16.86,16.86
		C460.11,378.515,369.348,469.277,257.787,469.277z"/>
	<path style="fill:#47423F;" d="M460.11,266.954H426.39c0-92.967-75.635-168.603-168.603-168.603V64.631
		C369.348,64.631,460.11,155.393,460.11,266.954z"/>
</g>
<g>
	<path style="fill:#5B5751;" d="M257.787,469.277c-111.561,0-202.323-90.762-202.323-202.323S146.226,64.631,257.787,64.631
		c9.311,0,16.86,7.549,16.86,16.86s-7.549,16.86-16.86,16.86c-92.967,0-168.603,75.635-168.603,168.603
		s75.635,168.603,168.603,168.603c9.311,0,16.86,7.549,16.86,16.86C274.648,461.728,267.099,469.277,257.787,469.277z"/>
	<path style="fill:#5B5751;" d="M257.787,81.491v16.86c92.967,0,168.603,75.635,168.603,168.603h16.86
		C443.25,164.526,360.216,81.491,257.787,81.491z"/>
	<path style="fill:#5B5751;" d="M443.25,266.954c0-5.672-0.269-11.28-0.768-16.822c-8.953,0.404-16.093,7.769-16.093,16.822
		c0,92.967-75.635,168.603-168.603,168.603c-9.053,0-16.417,7.141-16.822,16.093c5.541,0.498,11.15,0.768,16.822,0.768
		C360.216,452.417,443.25,369.382,443.25,266.954z"/>
</g>
<path style="fill:#47423F;" d="M257.787,435.557c-92.967,0-168.603-75.635-168.603-168.603S164.82,98.352,257.787,98.352
	c9.053,0,16.417-7.141,16.822-16.093c-5.541-0.498-11.15-0.768-16.822-0.768c-102.428,0-185.463,83.035-185.463,185.463
	s83.035,185.463,185.463,185.463c5.672,0,11.28-0.269,16.822-0.768C274.205,442.698,266.84,435.557,257.787,435.557z"/>
<path d="M355.236,175.487c-1.849-0.91-3.491-2.138-4.875-3.628c-1.452-1.423-2.646-3.11-3.533-5.009
	c-0.922-1.858-1.574-3.888-1.824-6.097c-1.049-8.849-6.581-17.305-14.998-22.274c-8.387-5.018-18.293-5.73-26.28-2.262
	c-1.99,0.885-4.039,1.357-6.06,1.443c-2.03,0.116-4.069-0.043-5.994-0.619c-3.878-1.032-7.435-3.405-10.051-6.864
	c-5.223-7.143-14.15-11.619-23.836-11.594c-9.685-0.024-18.611,4.451-23.837,11.595c-2.613,3.459-6.171,5.831-10.049,6.863
	c-1.925,0.577-3.964,0.734-5.994,0.619c-2.021-0.087-4.071-0.559-6.061-1.443c-7.985-3.468-17.891-2.756-26.278,2.262
	c-8.416,4.968-13.949,13.424-14.999,22.274c-0.25,2.21-0.901,4.239-1.823,6.097c-0.887,1.898-2.081,3.586-3.533,5.007
	c-1.385,1.49-3.027,2.718-4.876,3.629c-1.81,0.946-3.785,1.616-5.935,1.874c-8.614,1.077-16.847,6.761-21.682,15.406
	c-4.885,8.617-5.577,18.792-2.201,26.996c0.861,2.043,1.32,4.149,1.405,6.225c0.111,2.085-0.04,4.18-0.602,6.158
	c-1.004,3.984-3.316,7.639-6.683,10.324c-6.954,5.366-11.311,14.537-11.287,24.486l0,0l0,0l0,0l0,0
	c0,23.552,19.161,42.713,42.713,42.713c5.237,0,10.258-0.948,14.898-2.681c-0.934,1.784-1.933,3.535-2.995,5.255
	c-3.315,5.363-4.343,11.695-2.894,17.831c1.449,6.137,5.2,11.342,10.561,14.656c2.138,1.322,4.413,2.265,6.744,2.843
	c-0.677,3.031-1.023,6.15-1.023,9.303c0,23.552,19.161,42.713,42.713,42.713c23.203,0,42.143-18.598,42.7-41.668
	c2.609,1.407,5.021,3.193,7.142,5.315c2.009,2.008,3.727,4.283,5.11,6.76c6.516,11.681,17.933,19.484,31.322,21.407
	c13.557,1.95,26.892-2.4,36.567-11.906c0.167-0.164,0.335-0.328,0.472-0.468c11.857-11.856,18.95-25.784,20.318-39.698
	c19.87-14.269,32.661-36.537,34.499-60.445c0.018-0.229,0.026-0.459,0.026-0.689v-11.24l0,0c0.024-9.95-4.334-19.12-11.289-24.487
	c-3.366-2.684-5.679-6.338-6.682-10.323c-0.562-1.978-0.714-4.072-0.603-6.159c0.084-2.076,0.543-4.182,1.405-6.226
	c3.377-8.202,2.683-18.378-2.202-26.994c-4.836-8.645-13.068-14.329-21.683-15.407C359.021,177.104,357.046,176.434,355.236,175.487
	z M365.551,199.525c0.663,0.747,1.226,1.595,1.734,2.492c0.504,0.9,0.917,1.836,1.235,2.789c0.312,0.957,0.469,1.965,0.562,2.955
	c0.151,1.999-0.005,3.954-0.731,5.871c-2.83,8.174-3.167,16.063-1.297,23.237c1.883,7.173,5.911,13.856,12.401,19.476
	c1.475,1.296,2.729,2.9,3.524,4.711c0.774,1.811,1.208,3.823,1.26,5.899v10.884c-1.625,19.704-12.866,37.993-30.118,48.971
	c-2.594,1.65-4.164,4.512-4.164,7.586c0,6.208-1.987,18.61-15.32,31.942l-0.308,0.305c-5.664,5.564-13.472,8.096-21.429,6.957
	c-7.791-1.12-14.413-5.627-18.174-12.368c-2.191-3.927-4.915-7.532-8.097-10.715c-7.975-7.974-18.528-12.954-29.748-14.046
	c-0.58-0.071-1.173-0.085-1.774-0.04c-4.023,0.302-7.352,3.251-8.143,7.205c-0.338,1.694-0.18,3.431,0.432,5.01
	c0.931,2.636,1.403,5.404,1.403,8.23c0,13.635-11.093,24.728-24.728,24.728s-24.728-11.093-24.728-24.728
	c0-6.091,2.237-11.945,6.299-16.483c2.366-2.643,2.954-6.428,1.507-9.668c-1.447-3.238-4.666-5.322-8.213-5.322
	c-2.557,0-4.994,1.089-6.7,2.996c-1.82,2.033-4.824,2.467-7.142,1.032c-1.277-0.788-2.17-2.028-2.514-3.489
	c-0.344-1.461-0.101-2.97,0.688-4.245c10.149-16.42,15.514-35.349,15.514-54.742c0-4.966-4.026-8.992-8.992-8.992
	s-8.992,4.026-8.992,8.992c0,13.635-11.093,24.728-24.728,24.728s-24.728-11.093-24.728-24.728c0.052-2.076,0.484-4.088,1.26-5.899
	c0.795-1.811,2.049-3.415,3.523-4.71c6.49-5.621,10.519-12.305,12.401-19.477c1.87-7.173,1.532-15.062-1.297-23.236
	c-0.726-1.916-0.882-3.872-0.731-5.872c0.093-0.99,0.25-1.999,0.562-2.955c0.318-0.954,0.732-1.889,1.235-2.789
	c0.508-0.897,1.071-1.744,1.734-2.492c0.682-0.735,1.425-1.396,2.218-1.972c1.577-1.153,3.359-1.951,5.324-2.272
	c8.331-1.537,15.098-5.241,20.236-10.493c5.112-5.277,8.718-12.228,10.214-20.785c0.311-2.021,1.089-3.851,2.213-5.471
	c0.559-0.815,1.203-1.577,1.919-2.278c0.728-0.68,1.552-1.26,2.426-1.782c0.876-0.517,1.786-0.942,2.714-1.268
	c0.931-0.321,1.913-0.482,2.876-0.578c1.946-0.156,3.849,0.003,5.715,0.751c7.957,2.907,15.637,3.253,22.621,1.332
	c6.984-1.934,13.488-6.072,18.96-12.738c1.261-1.515,2.822-2.803,4.586-3.62c1.764-0.796,3.723-1.241,5.743-1.293
	c2.021,0.053,3.979,0.497,5.743,1.293c1.764,0.817,3.324,2.105,4.585,3.619c5.473,6.668,11.978,10.805,18.961,12.74
	c6.982,1.922,14.663,1.575,22.619-1.332c1.867-0.747,3.771-0.907,5.716-0.751c0.963,0.096,1.946,0.256,2.876,0.578
	c0.928,0.326,1.839,0.751,2.715,1.268c0.873,0.522,1.697,1.1,2.425,1.782c0.717,0.7,1.36,1.465,1.919,2.278
	c1.124,1.62,1.902,3.45,2.213,5.469c1.496,8.558,5.102,15.509,10.214,20.788c5.138,5.251,11.904,8.955,20.235,10.49
	c1.967,0.32,3.747,1.12,5.326,2.273C364.126,198.129,364.869,198.789,365.551,199.525z"/>
<path d="M330.974,39.291c6.256-5.829,10.557-13.432,12.405-21.672c16.562,3.441,29.05,18.173,29.05,35.772v5.62
	c0,13.945,11.333,25.29,25.265,25.29c10.087,0,18.81-5.947,22.858-14.523c19.266,19.349,30.437,45.916,30.437,73.534v11.24
	c0,4.657,3.773,8.43,8.43,8.43c9.46,0,18.2-3.141,25.238-8.435v22.485c0,4.657,3.773,8.43,8.43,8.43c4.657,0,8.43-3.773,8.43-8.43
	v-56.201c0-4.657-3.773-8.43-8.43-8.43c-4.657,0-8.43,3.773-8.43,8.43c0,10.984-7.024,20.355-16.807,23.839v-1.359
	c0-37.828-18.04-73.963-48.259-96.662c-2.554-1.918-5.974-2.228-8.83-0.8c-2.857,1.428-4.662,4.347-4.662,7.541v5.62
	c0,4.649-3.77,8.43-8.404,8.43s-8.404-3.781-8.404-8.43v-5.62C389.29,23.952,365.37,0,335.968,0c-4.657,0-8.43,3.773-8.43,8.43
	c0,7.105-2.862,13.685-8.057,18.525c-3.407,3.173-3.595,8.508-0.422,11.915C322.234,42.277,327.57,42.467,330.974,39.291z"/>
<path d="M89.177,102.65c0.163,0,0.326-0.004,0.491-0.015c9.999-0.573,20.088-4.085,29.179-10.154
	c0.601-0.401,1.193-0.814,1.78-1.241c13.617-9.908,22.229-25.649,21.937-40.1c-0.138-6.868-2.217-13.164-6.005-18.477
	c10.646-4.778,22.659-5.9,34.181-3.016c3.516,0.88,6.951,2.131,10.208,3.715c20.947,10.193,46.175,2.804,58.783-16.351
	c17.662,1.136,34.113,8.568,46.741,21.217l9.861,9.877c3.289,3.296,8.627,3.301,11.921,0.01c3.296-3.29,3.3-8.628,0.01-11.921
	l-9.861-9.877C281.46,9.346,258.93,0,234.964,0c-3.196,0-6.115,1.805-7.542,4.665c-7.212,14.445-24.751,20.519-39.097,13.537
	c-4.306-2.093-8.843-3.744-13.488-4.907c-19.677-4.93-40.444-1.009-56.983,10.746c-2.259,1.607-3.584,4.222-3.544,6.995
	s1.441,5.348,3.747,6.888c4.963,3.314,7.537,7.876,7.651,13.559c0.181,8.967-5.847,19.466-14.993,26.121
	c-0.405,0.294-0.816,0.581-1.232,0.859c-6.592,4.403-13.779,6.942-20.781,7.343c-4.648,0.265-8.2,4.25-7.933,8.899
	C81.025,99.187,84.741,102.65,89.177,102.65z"/>
<path d="M504.883,210.753c0-4.657-3.773-8.43-8.43-8.43c-4.657,0-8.43,3.773-8.43,8.43c0,1.057-1.896,2.81-3.914,2.81
	c-2.777,0-5.037-2.269-5.037-5.058v-8.992c0-4.657-3.773-8.43-8.43-8.43c-4.657,0-8.43,3.773-8.43,8.43v8.992
	c0,12.085,9.823,21.918,21.897,21.918c1.399,0,2.772-0.141,4.102-0.405v36.935c-0.102,4.021-1.774,7.78-4.698,10.432
	c-3.193,2.871-5.857,6.106-7.639,9.562c-0.46,0.864-0.84,1.744-1.231,2.631c-0.406,0.885-0.764,1.78-1.075,2.688
	c-0.622,1.813-1.051,3.669-1.288,5.55c-0.196,1.888-0.364,3.777-0.316,5.685c0.051,1.906,0.297,3.83,0.74,5.752
	c0.482,1.931,0.991,3.825,1.75,5.715c0.753,1.887,1.708,3.758,2.872,5.589c2.231,3.407,2.629,7.445,1.549,11.318
	c-1.016,3.892-3.859,6.972-7.424,8.684c-1.954,0.919-3.706,2-5.378,3.174c-1.705,1.162-3.252,2.447-4.63,3.839
	c-1.39,1.386-2.564,2.901-3.656,4.47c-1.13,1.553-2.087,3.2-2.867,4.929c-0.39,0.863-0.736,1.748-1.037,2.649
	c-0.289,0.909-0.561,1.822-0.831,2.734c-0.509,1.834-0.834,3.74-0.97,5.701c-0.205,3.958,0.055,7.986,1.238,12.154
	c0.537,1.923,0.69,3.921,0.416,5.853c-0.326,1.9-1.046,3.754-2.131,5.445c-1.096,1.683-2.439,3.136-4.081,4.187
	c-1.661,1.039-3.522,1.741-5.493,2.048c-2.132,0.33-4.157,0.845-6.06,1.525c-1.924,0.664-3.81,1.43-5.522,2.38
	c-1.723,0.942-3.316,2.033-4.769,3.262c-1.502,1.191-2.91,2.481-4.145,3.921c-1.252,1.424-2.314,3.016-3.298,4.655
	c-1.009,1.615-1.862,3.348-2.549,5.187c-0.7,1.828-1.177,3.817-1.579,5.8c-0.402,1.982-0.623,4.059-0.649,6.217
	c-0.024,1.997-0.454,3.942-1.245,5.734c-0.826,1.756-2.057,3.309-3.57,4.63c-1.52,1.314-3.245,2.296-5.084,2.883
	c-1.888,0.529-3.873,0.679-5.855,0.417c-2.141-0.282-4.231-0.359-6.252-0.243c-2.003,0.137-4.054,0.309-5.961,0.746
	c-1.92,0.417-3.758,1.015-5.501,1.784c-1.746,0.763-3.484,1.569-5.07,2.609c-1.596,1.023-3.088,2.21-4.462,3.553
	c-1.424,1.261-2.732,2.681-3.91,4.248c-1.18,1.566-2.222,3.296-3.135,5.137c-0.945,1.784-1.743,3.711-2.376,5.771
	c-0.586,1.906-1.548,3.645-2.813,5.138c-1.254,1.516-2.901,2.601-4.721,3.452c-1.83,0.827-3.769,1.271-5.697,1.32
	c-1.931,0.044-3.904-0.435-5.726-1.234c-1.977-0.882-3.962-1.552-5.935-2.019c-0.989-0.242-1.963-0.398-2.954-0.566
	c-0.994-0.174-1.982-0.3-2.963-0.375c-3.935-0.339-7.702,0.272-11.376,1.218c-3.647,1.028-7.06,2.875-10.235,5.105
	c-3.156,2.295-5.97,5.418-8.373,8.907c-1.104,1.649-2.522,3.028-4.163,4.086c-1.639,1.059-3.498,1.813-5.496,2.025
	c-1.992,0.254-3.98,0.11-5.846-0.41c-1.868-0.535-3.605-1.372-5.134-2.729c-3.299-2.849-6.866-4.904-10.538-6.169
	c-3.686-1.457-7.483-2.134-11.278-2.032c-3.796-0.103-7.592,0.576-11.277,2.032c-3.672,1.265-7.238,3.319-10.537,6.167
	c-1.53,1.357-3.268,2.195-5.136,2.73c-1.866,0.52-3.853,0.664-5.846,0.41c-1.999-0.211-3.858-0.966-5.496-2.025
	c-1.64-1.057-3.058-2.436-4.162-4.086c-2.404-3.489-5.218-6.611-8.374-8.907c-3.175-2.23-6.588-4.077-10.235-5.105
	c-3.674-0.946-7.44-1.559-11.375-1.218c-0.981,0.075-1.969,0.201-2.962,0.375c-0.991,0.169-1.965,0.325-2.954,0.566
	c-1.973,0.465-3.958,1.136-5.935,2.019c-1.822,0.799-3.796,1.278-5.727,1.234c-1.929-0.048-3.867-0.492-5.698-1.32
	c-1.819-0.851-3.466-1.937-4.721-3.452c-1.266-1.493-2.228-3.232-2.813-5.137c-0.633-2.06-1.431-3.987-2.376-5.771
	c-0.913-1.843-1.955-3.573-3.135-5.138c-1.178-1.569-2.485-2.987-3.91-4.248c-1.375-1.343-2.866-2.531-4.462-3.554
	c-1.586-1.04-3.324-1.846-5.07-2.609c-1.742-0.768-3.58-1.366-5.501-1.783c-1.905-0.437-3.957-0.609-5.96-0.746
	c-2.02-0.117-4.109-0.039-6.251,0.243c-1.982,0.261-3.968,0.112-5.856-0.417c-1.839-0.587-3.564-1.569-5.084-2.883
	c-1.513-1.321-2.745-2.875-3.57-4.629c-0.791-1.793-1.222-3.735-1.245-5.734c-0.025-2.158-0.246-4.238-0.649-6.218
	c-0.402-1.983-0.88-3.972-1.58-5.8c-0.687-1.84-1.54-3.574-2.55-5.188c-0.984-1.639-2.046-3.229-3.298-4.655
	c-1.236-1.439-2.645-2.729-4.145-3.921c-1.453-1.229-3.047-2.319-4.769-3.261c-1.712-0.95-3.598-1.715-5.522-2.38
	c-1.903-0.679-3.926-1.195-6.058-1.525c-1.973-0.306-3.833-1.009-5.494-2.048c-1.642-1.051-2.985-2.504-4.081-4.187
	c-1.084-1.691-1.804-3.544-2.131-5.445c-0.273-1.932-0.121-3.93,0.416-5.85c1.182-4.169,1.441-8.2,1.236-12.156
	c-0.136-1.961-0.461-3.867-0.97-5.701c-0.27-0.912-0.542-1.825-0.831-2.734c-0.301-0.904-0.646-1.788-1.037-2.65
	c-0.78-1.728-1.738-3.374-2.867-4.928c-1.093-1.569-2.266-3.083-3.656-4.47c-1.379-1.392-2.925-2.676-4.63-3.839
	c-1.673-1.175-3.425-2.255-5.378-3.173c-3.565-1.712-6.409-4.793-7.425-8.685c-1.079-3.872-0.682-7.911,1.549-11.317
	c1.163-1.831,2.119-3.703,2.872-5.59c0.759-1.888,1.268-3.783,1.75-5.715c0.443-1.922,0.689-3.845,0.74-5.753
	c0.048-1.907-0.121-3.796-0.317-5.684c-0.237-1.882-0.668-3.736-1.288-5.55c-0.31-0.907-0.669-1.803-1.075-2.688
	c-0.391-0.887-0.77-1.767-1.231-2.631c-1.78-3.456-4.445-6.691-7.638-9.561c-2.926-2.653-4.597-6.413-4.7-10.433h-0.009
	c0-0.025,0.003-0.048,0.003-0.072l-0.02-2.318c-0.027-3.021,1.307-5.834,3.671-7.729l0.169-0.135
	c6.553-5.25,10.242-13.062,10.12-21.417l-0.008-0.616c-0.153-10.639-4.376-20.641-11.888-28.166
	c-5.373-5.382-7.052-13.438-4.279-20.523c3.184-8.133,7.028-17.837,10.111-25.597c3.354,2.258,7.285,3.726,11.547,4.194
	c10.738,1.168,20.803-4.315,25.633-13.988c8.828-17.683,9.963-42.839,2.891-64.087c-1.471-4.419-6.245-6.807-10.66-5.337
	c-4.419,1.471-6.807,6.244-5.337,10.66c5.646,16.965,4.851,37.552-1.978,51.232c-2.509,5.025-7.299,4.92-8.711,4.759
	c-1.411-0.155-6.12-1.084-7.484-6.545c-0.886-3.549-3.959-6.121-7.61-6.369c-3.635-0.263-7.042,1.888-8.399,5.284
	c-0.092,0.229-9.245,23.15-15.704,39.646c-5.215,13.32-2.057,28.464,8.046,38.583c4.399,4.405,6.871,10.263,6.961,16.481
	l0.008,0.617c0.045,3.128-1.34,6.055-3.814,8.036l-0.17,0.136c-6.414,5.139-10.05,12.804-9.978,21.025l0.02,2.315
	c0.002,0.263,0.02,0.523,0.046,0.779c0.2,4.206,1.102,8.274,2.693,11.947c1.871,3.917,4.468,7.385,7.686,10.161
	c1.547,1.372,2.93,2.969,3.879,4.712c0.966,1.744,1.578,3.629,1.824,5.565c0.208,1.942,0.197,3.915-0.201,5.852
	c-0.405,1.938-1.19,3.841-2.376,5.608c-2.476,3.597-3.86,7.624-4.501,11.9c-0.157,1.067-0.263,2.148-0.317,3.239
	c-0.067,1.094-0.053,2.187,0.064,3.275c0.198,2.181,0.607,4.379,1.225,6.551c1.144,4.374,3.491,8.239,6.224,11.528
	c0.694,0.819,1.423,1.598,2.186,2.335c0.785,0.726,1.638,1.399,2.501,2.033c1.735,1.263,3.591,2.341,5.545,3.211
	c1.946,0.85,3.544,2.064,4.986,3.452c1.439,1.389,2.578,3.015,3.383,4.794c0.825,1.768,1.225,3.735,1.416,5.693
	c0.176,1.965-0.025,4.005-0.647,6.03c-0.632,2.052-1.043,4.168-1.236,6.314c-0.147,2.12-0.026,4.244,0.283,6.377
	c0.316,2.129,0.845,4.251,1.58,6.332c0.804,2.038,1.839,4.016,3.054,5.917c1.238,1.887,2.549,3.689,4.139,5.218
	c1.583,1.534,3.289,2.9,5.09,4.072c3.546,2.389,7.7,3.825,11.948,4.381c2.095,0.275,4.028,0.942,5.738,1.921
	c1.777,0.923,3.334,2.157,4.612,3.633c1.283,1.471,2.268,3.202,2.948,5.076c0.726,1.833,1.111,3.843,1.086,5.957
	c-0.026,2.145,0.178,4.286,0.598,6.395c0.41,2.12,1.16,4.087,2.048,6.053c0.904,1.949,2.012,3.834,3.303,5.619
	c1.306,1.77,2.886,3.342,4.58,4.831c1.713,1.469,3.505,2.794,5.427,3.855c1.952,1.025,3.976,1.852,6.036,2.471
	c2.069,0.604,4.135,1.051,6.278,1.177c2.149,0.117,4.299,0.012,6.419-0.317c2.091-0.327,4.136-0.233,6.054,0.224
	c1.936,0.432,3.803,1.142,5.439,2.204c1.643,1.054,3.087,2.418,4.256,4.045c1.196,1.58,2.145,3.375,2.712,5.415
	c1.167,4.105,3.162,8.047,6.038,11.205c2.839,3.221,6.362,6.027,10.513,7.812c2.057,0.931,4.169,1.658,6.297,2.175
	c2.15,0.462,4.342,0.651,6.493,0.663c2.155,0.003,4.285-0.207,6.354-0.632c2.085-0.466,4.132-1.208,6.072-2.124
	c3.842-1.847,7.932-1.901,11.711-0.916c3.759,1.044,7.085,3.629,9.362,7.106c1.143,1.802,2.477,3.474,3.978,5.003
	c1.504,1.515,3.158,2.957,4.988,4.044c1.821,1.126,3.779,2.086,5.838,2.863c2.059,0.774,4.214,1.402,6.459,1.644
	c2.238,0.287,4.472,0.363,6.661,0.233c1.095-0.065,2.177-0.181,3.244-0.348c1.07-0.203,2.126-0.479,3.16-0.792
	c4.139-1.288,7.93-3.245,11.133-6.133c3.163-2.874,7.077-4.254,10.976-4.155c3.899-0.099,7.813,1.282,10.978,4.155
	c3.203,2.888,6.994,4.845,11.132,6.133c1.033,0.314,2.09,0.589,3.16,0.792c1.067,0.166,2.15,0.283,3.244,0.348
	c2.188,0.13,4.423,0.054,6.661-0.233c2.245-0.243,4.401-0.869,6.46-1.644c2.059-0.776,4.016-1.737,5.838-2.863
	c1.83-1.087,3.486-2.529,4.988-4.044c1.501-1.529,2.836-3.202,3.979-5.004c2.276-3.475,5.601-6.062,9.361-7.104
	c3.779-0.986,7.869-0.931,11.712,0.915c1.94,0.915,3.987,1.658,6.071,2.124c2.069,0.425,4.199,0.634,6.354,0.632
	c2.151-0.012,4.343-0.201,6.492-0.663c2.128-0.517,4.24-1.243,6.297-2.175c4.152-1.785,7.674-4.591,10.513-7.812
	c2.876-3.158,4.872-7.099,6.038-11.206c0.566-2.039,1.516-3.835,2.712-5.414c1.168-1.625,2.611-2.99,4.256-4.044
	c1.637-1.063,3.502-1.774,5.439-2.205c1.919-0.456,3.964-0.551,6.055-0.224c2.12,0.329,4.27,0.434,6.419,0.317
	c2.141-0.126,4.207-0.573,6.277-1.177c2.06-0.618,4.085-1.446,6.036-2.471c1.922-1.06,3.715-2.386,5.427-3.855
	c1.694-1.489,3.274-3.061,4.579-4.831c1.293-1.785,2.4-3.67,3.303-5.619c0.889-1.966,1.638-3.933,2.049-6.053
	c0.422-2.11,0.625-4.251,0.598-6.396c-0.026-2.113,0.359-4.123,1.085-5.956c0.68-1.874,1.666-3.604,2.948-5.076
	c1.278-1.476,2.835-2.709,4.613-3.633c1.71-0.979,3.644-1.647,5.739-1.921c4.248-0.557,8.402-1.993,11.948-4.381
	c1.801-1.173,3.507-2.539,5.09-4.072c1.59-1.528,2.901-3.33,4.14-5.218c1.215-1.9,2.249-3.879,3.054-5.917
	c0.734-2.081,1.264-4.203,1.58-6.332c0.31-2.131,0.431-4.257,0.283-6.378c-0.193-2.146-0.605-4.261-1.236-6.314
	c-0.624-2.024-0.824-4.064-0.647-6.029c0.191-1.958,0.591-3.924,1.416-5.692c0.805-1.778,1.945-3.405,3.383-4.795
	c1.442-1.388,3.04-2.603,4.987-3.453c1.955-0.87,3.809-1.947,5.545-3.21c0.863-0.633,1.716-1.306,2.501-2.034
	c0.763-0.736,1.493-1.516,2.186-2.333c2.734-3.289,5.079-7.154,6.224-11.528c0.618-2.173,1.026-4.37,1.225-6.551
	c0.116-1.088,0.13-2.182,0.064-3.277c-0.054-1.09-0.16-2.172-0.317-3.238c-0.641-4.276-2.025-8.304-4.502-11.901
	c-1.185-1.767-1.97-3.67-2.375-5.607c-0.398-1.937-0.409-3.909-0.201-5.85c0.246-1.937,0.858-3.821,1.824-5.566
	c0.949-1.744,2.332-3.341,3.88-4.713c3.218-2.775,5.813-6.243,7.685-10.16c1.699-3.921,2.622-8.29,2.734-12.799V210.75h-0.178
	V210.753z"/>
<g>
</g>
<g>
</g>
<g>
</g>
<g>
</g>
<g>
</g>
<g>
</g>
<g>
</g>
<g>
</g>
<g>
</g>
<g>
</g>
<g>
</g>
<g>
</g>
<g>
</g>
<g>
</g>
<g>
</g>
</svg>
