<?xml version="1.0" encoding="iso-8859-1"?>
<!-- Generator: Adobe Illustrator 19.0.0, SVG Export Plug-In . SVG Version: 6.00 Build 0)  -->
<svg version="1.1" id="Capa_1" xmlns="http://www.w3.org/2000/svg" xmlns:xlink="http://www.w3.org/1999/xlink" x="0px" y="0px"
	 viewBox="0 0 512.001 512.001" style="enable-background:new 0 0 512.001 512.001;" xml:space="preserve">
<path style="fill:#F4A45B;" d="M292.381,363.444h-10.827V267.73h-84.2v95.714h-10.827c-41.621,0-75.362,33.741-75.362,75.362V504.5
	h256.578v-65.695C367.743,397.184,334.002,363.444,292.381,363.444z"/>
<path style="fill:#E58945;" d="M292.381,363.444h-22.632c41.621,0,75.362,33.741,75.362,75.362V504.5h22.632v-65.695
	C367.743,397.184,334.003,363.444,292.381,363.444z"/>
<path style="fill:#35343F;" d="M409.227,178.434V84.026c0-42.264-34.262-76.526-76.526-76.526l0,0
	c-42.264,0-76.526,34.262-76.526,76.526v140.976c0,49.164,39.855,89.019,89.019,89.019l0,0c49.164,0,89.019-39.855,89.019-89.019
	v-21.583l0,0C420.413,203.419,409.227,192.233,409.227,178.434z"/>
<circle style="fill:#5CDBF1;" cx="318.419" cy="80.67" r="46.1"/>
<path style="fill:#484655;" d="M101.212,167.378v88.635h276.484v-88.635c0-76.349-61.893-138.242-138.242-138.242l0,0
	C163.105,29.136,101.212,91.029,101.212,167.378z"/>
<g>
	<path style="fill:#FA9E3E;" d="M109.293,220.99h49.369v56.61h-49.369c-15.632,0-28.305-12.673-28.305-28.305
		S93.661,220.99,109.293,220.99z"/>
	<path style="fill:#FA9E3E;" d="M369.615,220.99h-49.369v56.61h49.369c15.632,0,28.305-12.673,28.305-28.305
		S385.247,220.99,369.615,220.99z"/>
</g>
<path style="fill:#FFB56B;" d="M239.454,342.79L239.454,342.79c-61.919,0-112.115-50.195-112.115-112.115V192.76
	c0-32.297,26.182-58.479,58.479-58.479h107.271c32.297,0,58.479,26.182,58.479,58.479v37.915
	C351.569,292.595,301.373,342.79,239.454,342.79z"/>
<path style="fill:#EF9245;" d="M351.569,230.675V192.76c0-19.105-9.165-36.067-23.334-46.739v96.321
	c0,53.578-41.949,97.354-94.794,100.286h0.001c0.981,0.052,1.965,0.091,2.951,0.118c0.016,0,0.032,0.001,0.048,0.002
	c1.001,0.027,2.005,0.041,3.013,0.041l0,0c5.805,0,11.507-0.441,17.074-1.292C310.344,333.275,351.569,286.79,351.569,230.675z"/>
<path style="fill:#F0EEEE;" d="M77.787,144.117v8.945c0,10.757,8.72,19.477,19.477,19.477h284.379
	c10.757,0,19.477-8.72,19.477-19.477v-8.945c0-10.757-8.72-19.477-19.477-19.477H97.265C86.508,124.64,77.787,133.36,77.787,144.117
	z"/>
<g>
	<path style="fill:#EF9AD3;" d="M401.121,156.09H77.787c-4.143,0-7.5-3.357-7.5-7.5s3.357-7.5,7.5-7.5h323.334
		c4.143,0,7.5,3.357,7.5,7.5C408.621,152.732,405.264,156.09,401.121,156.09z"/>
	<path style="fill:#EF9AD3;" d="M343.499,504.5c-13.524-18.342-21.522-41.009-21.522-65.547c0-21.784,6.303-42.094,17.18-59.213
		c-10.472-8.305-23.196-13.893-37.112-15.679V383.8c0,34.568-28.023,62.591-62.591,62.591l0,0
		c-34.568,0-62.591-28.023-62.591-62.591v-19.739c-13.916,1.786-26.64,7.374-37.112,15.679c10.877,17.119,17.18,37.429,17.18,59.213
		c0,24.538-7.998,47.204-21.522,65.547L343.499,504.5L343.499,504.5z"/>
</g>
<path style="fill:#D67ABC;" d="M333.137,375.429c-0.072-0.047-0.145-0.093-0.217-0.139c-1.977-1.265-4.018-2.438-6.114-3.518
	c-0.189-0.097-0.376-0.195-0.566-0.29c-0.657-0.331-1.317-0.656-1.984-0.968c-0.123-0.058-0.249-0.111-0.372-0.168
	c-1.193-0.551-2.406-1.068-3.632-1.557c-0.349-0.139-0.698-0.28-1.049-0.414c-0.575-0.219-1.153-0.432-1.734-0.638
	c-0.456-0.161-0.917-0.313-1.377-0.466c-0.805-0.267-1.617-0.521-2.434-0.762c-0.592-0.174-1.184-0.346-1.782-0.506
	c-0.488-0.131-0.979-0.254-1.471-0.375c-0.629-0.155-1.262-0.3-1.898-0.438c-0.412-0.09-0.823-0.187-1.238-0.27
	c-0.981-0.197-1.97-0.371-2.965-0.529c-0.399-0.064-0.801-0.118-1.202-0.176c-0.35-0.05-0.704-0.089-1.056-0.134v6.623
	c11.627,5.524,21.603,13.943,29.024,24.319c2.308-5.322,5.007-10.435,8.088-15.284C337.225,378.208,335.215,376.77,333.137,375.429z
	"/>
<path d="M434.214,195.92c-4.671,0-9.063-1.819-12.366-5.124c-3.305-3.304-5.124-7.695-5.124-12.366v-94.4
	c0-46.335-37.691-84.03-84.02-84.03c-22.452,0-43.556,8.739-59.424,24.606c-0.257,0.257-0.512,0.532-0.768,0.796
	c-10.758-2.497-21.807-3.762-33.059-3.762c-18.378,0-36.291,3.374-53.244,10.031c-16.411,6.452-31.362,15.721-44.438,27.547
	c-3.071,2.779-3.31,7.522-0.531,10.594c2.779,3.072,7.521,3.31,10.594,0.531c11.729-10.609,25.142-18.924,39.86-24.711
	c15.196-5.967,31.265-8.992,47.759-8.992c11.326,0,22.422,1.424,33.173,4.238c0.272,0.09,0.549,0.162,0.827,0.22
	c6.372,1.713,12.621,3.913,18.723,6.604c6.465,2.853,12.679,6.236,18.58,10.093c17.701,11.57,32.576,27.4,42.929,45.942v0.001
	c2.417,4.332,4.583,8.816,6.493,13.403H118.714c3.689-8.862,8.357-17.32,13.96-25.236c2.394-3.381,1.593-8.062-1.788-10.454
	c-3.38-2.394-8.063-1.594-10.454,1.788c-7.45,10.524-13.435,21.906-17.832,33.902h-5.336c-14.877,0-26.98,12.104-26.98,26.98v8.94
	c0,13.673,10.226,24.994,23.43,26.739v37.259c-12.144,5.906-20.229,18.449-20.229,32.231c0,19.745,16.064,35.81,35.81,35.81h23.634
	c12.322,24.14,32.28,43.225,56.927,54.443v16.397h-3.33c-3.469,0-6.881,0.239-10.239,0.655c-0.126,0.01-0.251,0.012-0.377,0.028
	c-0.364,0.047-0.726,0.107-1.089,0.159c-0.463,0.066-0.927,0.129-1.387,0.202c-1.074,0.171-2.145,0.361-3.21,0.575
	c-0.437,0.088-0.87,0.188-1.304,0.282c-0.745,0.162-1.488,0.333-2.227,0.515c-0.466,0.115-0.933,0.229-1.396,0.352
	c-1.042,0.276-2.078,0.568-3.107,0.884c-0.38,0.117-0.755,0.247-1.132,0.369c-0.767,0.248-1.531,0.506-2.29,0.777
	c-0.419,0.15-0.838,0.3-1.254,0.456c-0.988,0.37-1.971,0.755-2.944,1.163c-0.209,0.088-0.416,0.178-0.624,0.268
	c-0.97,0.416-1.931,0.853-2.885,1.306c-0.29,0.138-0.578,0.278-0.866,0.419c-1.012,0.495-2.017,1.007-3.01,1.544
	c-0.05,0.027-0.102,0.053-0.152,0.08c-1.122,0.61-2.228,1.251-3.322,1.913c-0.098,0.059-0.195,0.12-0.293,0.18
	c-2.878,1.757-5.662,3.685-8.323,5.796c-0.187,0.148-0.364,0.304-0.533,0.466c-18.824,15.204-30.893,38.454-30.893,64.482v65.69
	c0,4.143,3.357,7.5,7.5,7.5h24.245h208.085h24.245c4.143,0,7.5-3.357,7.5-7.5v-65.69c0-26.027-12.07-49.277-30.893-64.482
	c-0.169-0.162-0.347-0.317-0.533-0.466c-2.662-2.111-5.446-4.039-8.323-5.796c-0.098-0.06-0.195-0.121-0.293-0.18
	c-1.095-0.662-2.2-1.303-3.322-1.913c-0.05-0.027-0.102-0.053-0.152-0.08c-0.992-0.537-1.997-1.049-3.01-1.544
	c-0.288-0.141-0.577-0.281-0.866-0.419c-0.954-0.453-1.915-0.891-2.885-1.306c-0.208-0.089-0.416-0.18-0.624-0.268
	c-0.973-0.408-1.956-0.793-2.944-1.163c-0.416-0.156-0.835-0.307-1.254-0.456c-0.759-0.271-1.523-0.528-2.29-0.777
	c-0.378-0.122-0.752-0.252-1.132-0.369c-1.029-0.317-2.066-0.608-3.107-0.884c-0.463-0.123-0.93-0.237-1.396-0.352
	c-0.74-0.182-1.482-0.354-2.227-0.515c-0.435-0.094-0.867-0.195-1.304-0.282c-1.065-0.213-2.135-0.404-3.21-0.575
	c-0.461-0.073-0.924-0.136-1.387-0.202c-0.363-0.052-0.725-0.112-1.089-0.159c-0.124-0.016-0.249-0.018-0.373-0.027
	c-3.359-0.417-6.773-0.656-10.243-0.656h-3.33v-16.398c24.65-11.22,44.607-30.305,56.927-54.442h23.634
	c19.745,0,35.809-16.064,35.809-35.81c0-15.725-10.523-29.837-25.594-34.319c-3.307-0.982-6.743-1.48-10.216-1.48h-10.55v-20.73
	c0-4.301-0.426-8.551-1.241-12.72h23.82c7.967,0,15.137-3.474,20.08-8.983v7.373c0,8.678,3.38,16.836,9.517,22.974
	c4.328,4.327,9.662,7.284,15.474,8.651V225c0,43.063-33.637,78.806-76.577,81.374c-4.135,0.247-7.286,3.799-7.039,7.934
	c0.238,3.983,3.542,7.054,7.479,7.053c0.15,0,0.303-0.004,0.454-0.014c50.851-3.04,90.683-45.361,90.683-96.347v-21.58
	C441.714,199.277,438.356,195.92,434.214,195.92z M314.261,42.293c1.375-0.147,2.761-0.223,4.153-0.223
	c21.284,0,38.601,17.315,38.601,38.6c0,0.191-0.001,0.382-0.004,0.572c-0.987-1.342-2.005-2.659-3.036-3.966
	c-0.224-0.283-0.448-0.566-0.674-0.848c-1.083-1.351-2.185-2.686-3.314-3.997c-0.137-0.159-0.278-0.315-0.416-0.473
	c-1.067-1.228-2.155-2.436-3.262-3.628c-0.192-0.207-0.381-0.416-0.574-0.622c-1.179-1.255-2.382-2.488-3.604-3.701
	c-0.243-0.241-0.488-0.479-0.733-0.719c-2.528-2.475-5.144-4.858-7.843-7.144c-0.257-0.218-0.513-0.436-0.771-0.652
	c-1.323-1.105-2.663-2.189-4.024-3.248c-0.224-0.174-0.451-0.344-0.675-0.516c-1.296-0.996-2.607-1.972-3.935-2.924
	c-0.16-0.115-0.318-0.233-0.478-0.347c-1.414-1.005-2.85-1.98-4.299-2.935c-0.297-0.196-0.595-0.39-0.894-0.584
	C317.085,44.035,315.683,43.148,314.261,42.293z M121.085,180.04c-0.816,4.169-1.241,8.419-1.241,12.72v20.73h-10.55
	c-0.194,0-0.386,0.018-0.58,0.021V180.04H121.085z M109.294,270.1c-11.475,0-20.81-9.335-20.81-20.81
	c0-9.138,6.113-17.338,14.865-19.94c1.92-0.57,3.919-0.859,5.944-0.859h10.55v2.189c0,1.132,0.017,2.261,0.048,3.388
	c0.002,0.082,0.007,0.164,0.01,0.246c0.361,12.234,2.553,24.143,6.528,35.568c0.025,0.072,0.047,0.145,0.073,0.217L109.294,270.1
	L109.294,270.1z M118.664,438.81c0-18.36,7.339-35.029,19.222-47.259c7.566,14.585,11.545,30.798,11.545,47.402
	c0,20.919-6.181,40.905-17.901,58.047h-12.865L118.664,438.81L118.664,438.81z M149.204,497
	c9.997-17.633,15.227-37.449,15.227-58.047c0-20.088-5.069-39.689-14.717-57.115c0.408-0.265,0.815-0.533,1.229-0.789
	c0.211-0.13,0.419-0.263,0.631-0.391c0.77-0.465,1.551-0.913,2.341-1.348c0.115-0.063,0.228-0.132,0.344-0.194
	c0.88-0.478,1.774-0.934,2.678-1.374c0.314-0.153,0.634-0.294,0.951-0.442c0.585-0.273,1.172-0.543,1.766-0.8
	c0.411-0.178,0.825-0.348,1.239-0.517c0.514-0.211,1.032-0.415,1.552-0.613c0.442-0.168,0.885-0.335,1.331-0.495
	c0.522-0.186,1.05-0.361,1.578-0.535c0.436-0.144,0.871-0.293,1.31-0.428c0.892-0.274,1.792-0.531,2.7-0.768v10.658
	c0,38.648,31.442,70.091,70.091,70.091s70.091-31.442,70.091-70.091v-10.658c0.908,0.238,1.807,0.495,2.7,0.768
	c0.439,0.135,0.874,0.285,1.31,0.428c0.528,0.174,1.056,0.349,1.578,0.535c0.446,0.159,0.889,0.326,1.331,0.495
	c0.52,0.198,1.037,0.402,1.551,0.613c0.415,0.17,0.829,0.34,1.24,0.518c0.593,0.257,1.18,0.526,1.764,0.799
	c0.317,0.148,0.637,0.29,0.951,0.443c0.903,0.44,1.797,0.896,2.678,1.374c0.115,0.063,0.228,0.131,0.344,0.194
	c0.79,0.435,1.571,0.883,2.341,1.348c0.212,0.128,0.421,0.261,0.631,0.391c0.414,0.256,0.821,0.524,1.229,0.789
	c-9.648,17.427-14.717,37.027-14.717,57.115c0,20.598,5.229,40.414,15.227,58.047h-180.5V497z M360.244,438.81V497h-12.865
	c-11.721-17.142-17.901-37.128-17.901-58.047c0-16.604,3.979-32.817,11.545-47.402C352.905,403.781,360.244,420.451,360.244,438.81z
	 M292.384,370.94c0.725,0,1.442,0.032,2.161,0.055v12.806c0,30.377-24.714,55.091-55.091,55.091s-55.091-24.714-55.091-55.091
	v-12.806c0.719-0.023,1.436-0.055,2.161-0.055h10.83c4.143,0,7.5-3.358,7.5-7.5v-18.23c0.07,0.021,0.141,0.039,0.211,0.06
	c1.214,0.365,2.434,0.708,3.659,1.033c0.288,0.077,0.577,0.149,0.866,0.224c1.09,0.281,2.182,0.547,3.279,0.796
	c0.198,0.045,0.395,0.094,0.592,0.138c1.244,0.276,2.493,0.528,3.745,0.764c0.299,0.056,0.598,0.109,0.896,0.163
	c1.147,0.207,2.296,0.399,3.45,0.572c0.15,0.023,0.3,0.049,0.45,0.071c1.27,0.185,2.544,0.345,3.822,0.49
	c0.309,0.035,0.618,0.067,0.927,0.1c1.217,0.128,2.438,0.242,3.662,0.333c0.086,0.007,0.172,0.015,0.259,0.022
	c1.294,0.093,2.592,0.16,3.893,0.212c0.316,0.013,0.632,0.023,0.949,0.034c1.31,0.042,2.622,0.071,3.938,0.071
	c1.316,0,2.628-0.029,3.939-0.071c0.316-0.01,0.633-0.021,0.949-0.034c1.301-0.052,2.599-0.118,3.893-0.212
	c0.087-0.006,0.173-0.015,0.259-0.022c1.224-0.091,2.444-0.205,3.662-0.333c0.309-0.032,0.617-0.065,0.926-0.1
	c1.279-0.145,2.554-0.305,3.825-0.49c0.147-0.021,0.293-0.047,0.44-0.069c1.158-0.174,2.311-0.367,3.461-0.574
	c0.297-0.053,0.593-0.106,0.889-0.162c1.255-0.236,2.507-0.489,3.753-0.766c0.192-0.043,0.383-0.09,0.576-0.134
	c1.103-0.251,2.203-0.519,3.299-0.801c0.285-0.073,0.571-0.145,0.855-0.221c1.226-0.326,2.448-0.669,3.664-1.035
	c0.069-0.021,0.14-0.038,0.209-0.059v18.23c0,4.142,3.357,7.5,7.5,7.5H292.384z M369.614,228.49c2.025,0,4.024,0.289,5.942,0.858
	c8.754,2.604,14.867,10.804,14.867,19.941c0,11.475-9.335,20.81-20.809,20.81h-17.208c0.028-0.079,0.052-0.16,0.08-0.24
	c3.971-11.42,6.16-23.321,6.52-35.547c0.002-0.082,0.007-0.163,0.01-0.245c0.031-1.127,0.048-2.256,0.048-3.388v-2.189
	L369.614,228.49L369.614,228.49z M344.064,192.76v28.23v9.689c0,0.988-0.014,1.977-0.042,2.964c-0.002,0.077-0.007,0.153-0.009,0.23
	c-0.209,6.895-1.091,13.758-2.635,20.442c-0.804,3.47-1.783,6.892-2.928,10.243c-0.026,0.075-0.053,0.15-0.079,0.225
	c-0.253,0.736-0.514,1.469-0.784,2.198c-0.123,0.331-0.252,0.66-0.378,0.99c-0.185,0.485-0.368,0.97-0.56,1.452
	c-0.252,0.629-0.513,1.255-0.778,1.881c-0.086,0.203-0.167,0.409-0.254,0.612c-0.295,0.685-0.602,1.367-0.912,2.048
	c-0.074,0.161-0.143,0.325-0.217,0.485c-0.002,0.004-0.003,0.009-0.005,0.013c-11.192,24.272-30.988,43.164-55.751,53.199
	c-12.465,5.063-25.68,7.629-39.277,7.629c-2.55,0-5.086-0.09-7.606-0.27c-8.401-0.6-16.625-2.198-24.586-4.776
	c-0.263-0.085-0.524-0.178-0.787-0.266c-0.531-0.177-1.062-0.351-1.591-0.536c-1.58-0.555-3.15-1.148-4.708-1.781
	c-0.002-0.001-0.004-0.001-0.006-0.002c-24.757-10.033-44.554-28.925-55.747-53.201c-0.001-0.003-0.002-0.006-0.003-0.009
	c-0.047-0.102-0.091-0.206-0.138-0.308c-0.34-0.742-0.673-1.487-0.995-2.234c-0.077-0.178-0.148-0.359-0.224-0.538
	c-0.275-0.648-0.545-1.298-0.806-1.95c-0.188-0.472-0.368-0.948-0.55-1.424c-0.13-0.339-0.263-0.678-0.389-1.018
	c-0.265-0.718-0.522-1.44-0.772-2.164c-0.03-0.087-0.062-0.173-0.091-0.26c-1.144-3.348-2.122-6.766-2.925-10.231
	c-1.545-6.69-2.427-13.554-2.636-20.45c-0.002-0.076-0.007-0.152-0.009-0.229c-0.028-0.988-0.042-1.976-0.042-2.964v-9.689v-28.23
	c0-4.326,0.536-8.586,1.599-12.72h206.023C343.528,184.174,344.064,188.434,344.064,192.76z M393.624,153.061
	c0,6.605-5.374,11.979-11.98,11.979h-33.67H130.935h-33.67c-6.606,0-11.98-5.374-11.98-11.979v-8.94
	c0-6.606,5.374-11.98,11.98-11.98h10.657c0.008,0,0.017,0.002,0.025,0.002s0.016-0.002,0.025-0.002h262.957
	c0.008,0,0.016,0.002,0.025,0.002c0.009,0,0.017-0.002,0.025-0.002h10.667c6.606,0,11.98,5.374,11.98,11.98v8.94H393.624z
	 M381.644,117.14h-5.361c-2.198-5.983-4.787-11.837-7.751-17.483c2.301-6.046,3.483-12.413,3.483-18.987
	c0-29.555-24.045-53.6-53.601-53.6c-8.208,0-16.281,1.882-23.576,5.463c-1.849-0.761-3.712-1.471-5.583-2.153
	C301.509,20.42,316.687,15,332.704,15c38.058,0,69.02,30.967,69.02,69.03v42.093C396.78,120.614,389.611,117.14,381.644,117.14z"/>
<path d="M293.777,232.962c4.143,0,7.5-3.357,7.5-7.5v-2c0-4.143-3.357-7.5-7.5-7.5s-7.5,3.357-7.5,7.5v2
	C286.277,229.605,289.635,232.962,293.777,232.962z"/>
<path d="M185.131,232.962c4.143,0,7.5-3.357,7.5-7.5v-2c0-4.143-3.357-7.5-7.5-7.5s-7.5,3.357-7.5,7.5v2
	C177.631,229.605,180.988,232.962,185.131,232.962z"/>
<path d="M239.454,288.484c13.494,0,26.142-6.632,33.833-17.739c2.358-3.405,1.509-8.077-1.897-10.435
	c-3.406-2.359-8.078-1.508-10.435,1.896c-4.891,7.063-12.928,11.278-21.501,11.278s-16.61-4.216-21.501-11.278
	c-2.357-3.406-7.029-4.256-10.436-1.896c-3.405,2.358-4.255,7.03-1.896,10.435C213.312,281.853,225.96,288.484,239.454,288.484z"/>
<g>
</g>
<g>
</g>
<g>
</g>
<g>
</g>
<g>
</g>
<g>
</g>
<g>
</g>
<g>
</g>
<g>
</g>
<g>
</g>
<g>
</g>
<g>
</g>
<g>
</g>
<g>
</g>
<g>
</g>
</svg>
