<svg height="512pt" viewBox="-28 0 512 512.00215" width="512pt" xmlns="http://www.w3.org/2000/svg"><path d="m432.335938 504.171875h-407.355469c-11.175781 0-19.351563-10.515625-16.613281-21.34375l18.910156-74.628906c5.710937-22.554688 22.167968-40.847657 43.992187-48.910157l99.648438-36.804687c2.667969-.984375 5.636719-.722656 8.089843.71875l49.648438 29.144531 49.175781-29.28125c2.460938-1.464844 5.453125-1.742187 8.140625-.746094l100.074219 36.96875c21.824219 8.0625 38.28125 26.355469 43.992187 48.910157l18.910157 74.628906c2.738281 10.828125-5.4375 21.34375-16.613281 21.34375zm0 0" fill="#868491"/><path d="m171.824219 352.347656 28.214843-16.800781-21.03125-12.347656c-2.453124-1.4375-5.421874-1.699219-8.089843-.714844l-30.667969 11.324219zm0 0" fill="#787784"/><path d="m448.949219 482.828125-18.910157-74.628906c-5.710937-22.554688-22.167968-40.847657-43.992187-48.910157l-100.074219-36.972656c-2.6875-.992187-5.679687-.714844-8.140625.75l-17.867187 10.640625 69.25 25.582031c21.824218 8.0625 38.28125 26.355469 43.992187 48.910157l18.910157 74.628906c2.734374 10.828125-5.441407 21.34375-16.613282 21.34375h56.832032c11.175781 0 19.351562-10.515625 16.613281-21.34375zm0 0" fill="#787784"/><path d="m170.914062 322.480469-33.273437 12.292969 46.117187 45.863281c3.320313 3.304687 8.632813 3.472656 12.15625.386719l32.742188-28.679688-49.652344-29.144531c-2.453125-1.441407-5.421875-1.703125-8.089844-.71875zm0 0" fill="#4f495b"/><path d="m285.96875 322.320312 33.707031 12.453126-47.546875 45.921874c-3.386718 3.265626-8.726562 3.34375-12.199218.171876l-31.273438-28.523438 49.171875-29.273438c2.460937-1.46875 5.453125-1.742187 8.140625-.75zm0 0" fill="#4f495b"/><path d="m228.800781 305.859375c-20.78125.398437-37.789062-17.007813-37.789062-37.792969v-46.359375c0-25.75 18.539062-47.363281 44.085937-51.386719 21.851563-3.441406 37.9375-22.789062 37.414063-44.996093-.546875-23.347657-19.992188-42.789063-43.339844-43.339844-12.109375-.273437-23.511719 4.203125-32.144531 12.632813-8.636719 8.4375-13.394532 19.730468-13.394532 31.800781 0 20.414062-16.5 36.972656-36.894531 37.066406-20.890625.097656-37.480469-17.621094-37.234375-38.511719.375-31.660156 13.027344-61.222656 35.722656-83.390625 23.035157-22.5 53.484376-34.445312 85.691407-33.714843 30.484375.71875 59.230469 13.066406 80.9375 34.773437 21.707031 21.710937 34.058593 50.453125 34.777343 80.9375.679688 28.984375-9.214843 57.132813-27.867187 79.253906-13.101563 15.53125-29.847656 27.335938-48.546875 34.449219-3.03125 1.152344-5.070312 4.023438-5.070312 7.269531v24.246094c0 20.230469-16.207032 36.675781-36.347657 37.0625zm0 0" fill="#ffd782"/><path d="m183.632812 126.417969c0-12.070313 4.757813-23.363281 13.394532-31.800781 7.261718-7.097657 16.496094-11.378907 26.457031-12.394532-7.214844-5.511718-16.097656-8.890625-25.636719-9.113281-12.113281-.273437-23.515625 4.199219-32.148437 12.632813-8.636719 8.4375-13.390625 19.730468-13.390625 31.800781 0 18.117187-13.003906 33.1875-30.1875 36.417969 6.539062 5.929687 15.132812 9.570312 24.617187 9.523437 20.394531-.09375 36.894531-16.652344 36.894531-37.066406zm0 0" fill="#ffc36f"/><path d="m346.628906 123.582031c-.714844-30.488281-13.066406-59.230469-34.773437-80.9375-18.488281-18.488281-42.078125-30.179687-67.5-33.691406 13.320312 5.871094 25.585937 14.226563 36.171875 24.816406 21.710937 21.707031 34.0625 50.449219 34.777344 80.9375.683593 28.984375-9.214844 57.128907-27.867188 79.25-9.230469 10.945313-20.273438 20.042969-32.53125 26.945313-13.027344 7.335937-21.082031 21.128906-21.082031 36.078125v2.941406c0 18.121094-13.007813 33.199219-30.195313 36.421875 6.699219 6.042969 15.527344 9.699219 25.171875 9.515625 20.140625-.386719 36.347657-16.832031 36.347657-37.0625v-24.246094c0-3.246093 2.035156-6.113281 5.070312-7.269531 18.695312-7.109375 35.445312-18.914062 48.546875-34.449219 18.648437-22.121093 28.546875-50.265625 27.863281-79.25zm0 0" fill="#ffc36f"/><path d="m456.542969 480.90625-9.742188-38.4375c-1.0625-4.195312-5.320312-6.730469-9.515625-5.667969-4.191406 1.0625-6.726562 5.320313-5.667968 9.511719l9.738281 38.433594c.710937 2.804687.097656 5.726562-1.679688 8.007812-1.773437 2.277344-4.449219 3.585938-7.339843 3.585938h-407.355469c-2.890625 0-5.566407-1.308594-7.339844-3.585938-1.777344-2.28125-2.390625-5.203125-1.683594-8.003906l18.910157-74.628906c5.078124-20.058594 19.703124-36.3125 39.113281-43.484375l61.683593-22.785157 48.472657 48.207032c1.523437 1.511718 3.519531 2.277344 5.523437 2.277344 1.835938 0 3.679688-.644532 5.160156-1.941407l33.734376-29.550781 32.28125 29.445312c1.496093 1.363282 3.386718 2.046876 5.273437 2.046876 1.964844 0 3.925781-.734376 5.441406-2.199219l50.03125-48.316407 61.753907 22.8125c19.410156 7.171876 34.035156 23.429688 39.113281 43.488282l2.050781 8.089844c1.0625 4.191406 5.320312 6.726562 9.515625 5.667968 4.191406-1.066406 6.730469-5.324218 5.667969-9.519531l-2.050782-8.082031c-6.347656-25.0625-24.613281-45.375-48.867187-54.335938l-100.078125-36.96875c-4.929688-1.820312-10.347656-1.324218-14.863281 1.363282l-3.558594 2.121093-41.636719 24.789063-39.300781-23.066406-6.355469-3.730469c-.5625-.332031-1.136718-.628907-1.722656-.890625-4.113281-1.835938-8.769531-2.003906-13.046875-.421875l-33.277344 12.292969c-.007812.003906-.019531.007812-.027343.011718l-66.34375 24.503906c-24.253907 8.957032-42.523438 29.269532-48.867188 54.332032l-18.914062 74.632812c-1.902344 7.523438-.257813 15.347656 4.507812 21.46875 4.765625 6.117188 11.945312 9.625 19.699219 9.625h407.355469c7.753906 0 14.933593-3.507812 19.699218-9.625 4.765625-6.121094 6.410156-13.949218 4.507813-21.472656zm-266.546875-105.109375-38.136719-37.925781 21.769531-8.039063c.46875-.175781.984375-.128906 1.414063.125l.960937.5625 39.328125 23.085938zm75.960937-.03125-24.21875-22.09375 28.746094-17.117187 11.347656-6.757813c.433594-.257813.949219-.304687 1.421875-.128906l22.015625 8.128906zm0 0"/><path d="m220.828125 390.335938v83.496093c0 4.324219 3.503906 7.832031 7.828125 7.832031 4.328125 0 7.832031-3.507812 7.832031-7.832031v-83.496093c0-4.328126-3.503906-7.832032-7.832031-7.832032-4.324219 0-7.828125 3.503906-7.828125 7.832032zm0 0"/><path d="m146.121094 51.917969c1.46875-1.613281 3.007812-3.203125 4.574218-4.734375 21.492188-20.988282 49.933594-32.148438 80.039063-31.488282 28.460937.667969 55.304687 12.207032 75.582031 32.484376 20.277344 20.277343 31.816406 47.121093 32.484375 75.582031.636719 27.074219-8.605469 53.363281-26.023437 74.019531-12.125 14.382812-27.804688 25.507812-45.34375 32.179688-6.050782 2.304687-10.117188 8.164062-10.117188 14.585937v24.25c0 15.816406-12.859375 28.929687-28.664062 29.230469-7.691406.15625-15.054688-2.820313-20.699219-8.359375-5.789063-5.679688-9.113281-13.554688-9.113281-21.605469v-46.359375c0-21.871094 15.761718-40.230469 37.476562-43.648437 11.335938-1.789063 21.925782-7.414063 29.828125-15.84375 2.957031-3.15625 2.796875-8.113282-.359375-11.070313-3.152344-2.953125-8.109375-2.796875-11.066406.359375-5.609375 5.984375-12.816406 9.816406-20.839844 11.082031-29.375 4.628907-50.699218 29.492188-50.699218 59.121094v46.359375c0 12.226562 5.03125 24.175781 13.804687 32.785156 8.464844 8.304688 19.484375 12.847656 31.109375 12.847656.285156 0 .570312-.003906.855469-.007812 24.277343-.464844 44.03125-20.601562 44.03125-44.890625l.023437-24.199219c20.015625-7.613281 37.910156-20.3125 51.746094-36.71875 19.886719-23.582031 30.4375-53.585937 29.710938-84.484375-.765626-32.507812-13.929688-63.152343-37.070313-86.292969-23.136719-23.136718-53.78125-36.300781-86.296875-37.0664058-34.390625-.7968752-66.8125 11.9843748-91.34375 35.9414058-1.78125 1.742188-3.53125 3.550782-5.203125 5.382813-2.914063 3.195313-2.6875 8.148437.507813 11.066406 3.199218 2.914063 8.148437 2.6875 11.066406-.507812zm0 0"/><path d="m146.566406 171.316406h.207032c24.640624-.113281 44.691406-20.253906 44.691406-44.898437 0-9.941407 3.917968-19.246094 11.03125-26.199219 7.105468-6.9375 16.507812-10.609375 26.492187-10.40625 19.230469.453125 35.242188 16.464844 35.695313 35.695312.101562 4.324219 3.722656 7.707032 8.011718 7.644532 4.324219-.101563 7.75-3.6875 7.648438-8.011719-.648438-27.46875-23.519531-50.339844-50.996094-50.988281-14.226562-.292969-27.652344 4.957031-37.792968 14.863281-10.160157 9.921875-15.753907 23.207031-15.753907 37.402344 0 16.046875-13.054687 29.164062-29.097656 29.234375-7.621094.039062-14.941406-3.007813-20.464844-8.570313-5.757812-5.800781-9.003906-13.824219-8.90625-22.019531.210938-17.660156 4.398438-34.429688 12.457031-49.84375 2.003907-3.832031.519532-8.566406-3.3125-10.570312-3.832031-2-8.566406-.515626-10.570312 3.3125-9.207031 17.621093-13.996094 36.769531-14.234375 56.917968-.144531 12.363282 4.757813 24.476563 13.453125 33.234375 8.457031 8.523438 19.613281 13.207031 31.441406 13.203125zm0 0"/></svg>