<?xml version="1.0" encoding="iso-8859-1"?>
<!-- Generator: Adobe Illustrator 19.0.0, SVG Export Plug-In . SVG Version: 6.00 Build 0)  -->
<svg version="1.1" id="Capa_1" xmlns="http://www.w3.org/2000/svg" xmlns:xlink="http://www.w3.org/1999/xlink" x="0px" y="0px"
	 viewBox="0 0 512.002 512.002" style="enable-background:new 0 0 512.002 512.002;" xml:space="preserve">
<path style="fill:#898890;" d="M318.958,372.26v-69.249H193.041v69.249L84.625,424.482c0,0,45.515,63.348,171.375,63.348
	s171.375-63.348,171.375-63.348L318.958,372.26z"/>
<path style="fill:#787680;" d="M193.041,303.011v69.249L84.625,424.482c0,0,45.515,63.348,171.375,63.348V303.011H193.041z"/>
<path style="fill:#ACABB1;" d="M256.166,504.502c-49.887,0-93.763-9.428-130.411-28.022c-29.84-15.14-46.172-32.233-51.809-38.88
	c-5.956-7.022-5.09-17.543,1.932-23.498c7.022-5.956,17.544-5.091,23.498,1.932c7.807,9.205,52.054,55.124,156.79,55.124
	c104.091,0,148.658-45.672,156.535-54.827c6.004-6.979,16.531-7.77,23.511-1.765c6.98,6.005,7.77,16.532,1.765,23.512
	C424.57,453.66,371.839,504.502,256.166,504.502z"/>
<path style="fill:#898890;" d="M156.096,466.546c2.138-4.182,5.441-7.377,9.308-9.402c-41.122-14.305-61.033-35.221-66.028-41.11
	c-5.955-7.023-16.476-7.887-23.498-1.932s-7.887,16.476-1.932,23.498c5.636,6.647,21.969,23.741,51.809,38.88
	c10.287,5.219,21.164,9.689,32.563,13.458C153.263,483.444,152.102,474.357,156.096,466.546z"/>
<path style="fill:#ACABB1;" d="M255.576,399.002c-42.368,0-68.2-13.566-69.279-14.144c-6.958-3.724-9.58-12.384-5.855-19.342
	c3.713-6.936,12.33-9.564,19.277-5.89c0.473,0.242,21.372,10.796,55.857,10.796c34.826,0,56.613-10.75,56.823-10.859
	c7.013-3.622,15.633-0.873,19.254,6.139c3.622,7.012,0.874,15.632-6.138,19.254C324.405,385.53,297.835,399.002,255.576,399.002z"/>
<path style="fill:#898890;" d="M219.233,380.676c1.647-5.668,5.641-10.007,10.613-12.296c-18.898-3.081-29.787-8.58-30.127-8.754
	c-6.946-3.673-15.564-1.046-19.277,5.89c-3.725,6.958-1.103,15.618,5.855,19.342c0.743,0.398,13.229,6.956,34.769,11
	C218.515,391.414,217.691,385.986,219.233,380.676z"/>
<path style="fill:#787680;" d="M256.423,328.614h-0.846c-68.324,0-124.225-55.901-124.225-124.225v-72.662
	c0-68.324,55.901-124.225,124.225-124.225h0.846c68.324,0,124.225,55.901,124.225,124.225v72.662
	C380.647,272.712,324.746,328.614,256.423,328.614z"/>
<path style="fill:#57565C;" d="M193.041,204.389v-72.662c0-57.837,40.061-106.767,93.803-120.426
	c-9.744-2.476-19.935-3.798-30.422-3.798h-0.846c-68.324,0-124.225,55.901-124.225,124.225v72.662
	c0,68.324,55.901,124.225,124.225,124.225h0.846c10.486,0,20.678-1.322,30.422-3.798
	C233.102,311.156,193.041,262.226,193.041,204.389z"/>
<path style="fill:#C6C5CA;" d="M368.754,135.592l-88.849-46.577c-15.235-7.987-33.42-7.987-48.656,0l-88.85,46.577
	c-13.244,6.943-21.476,20.686-21.436,35.639c0.056,21.207,3.826,52.035,21.618,77.756c5.327,7.701,13.169,13.309,22.187,15.828
	c19.124,5.343,56.445,15.727,76.78,21.384c9.182,2.554,18.874,2.554,28.057,0c20.336-5.656,57.656-16.041,76.78-21.384
	c9.018-2.52,16.86-8.128,22.187-15.828c17.791-25.721,21.561-56.549,21.617-77.756C390.23,156.278,381.998,142.535,368.754,135.592z
	"/>
<path style="fill:#ACABB1;" d="M231.249,89.015l-88.85,46.577c-13.244,6.943-21.476,20.686-21.436,35.639
	c0.056,21.207,3.826,52.035,21.618,77.756c5.326,7.701,13.169,13.309,22.187,15.828c19.124,5.343,56.445,15.727,76.78,21.384
	c4.591,1.277,9.31,1.916,14.028,1.916V83.025C247.221,83.025,238.866,85.022,231.249,89.015z"/>
<path style="fill:#898890;" d="M164.768,264.816c13.194,3.686,35.049,9.772,54.012,15.049
	c-16.123-20.958-25.739-47.147-25.739-75.477v-72.662c0-8.169,0.8-16.161,2.324-23.9l-52.966,27.766
	c-13.244,6.943-21.476,20.686-21.436,35.639c0.056,21.207,3.826,52.035,21.618,77.756
	C147.907,256.688,155.75,262.296,164.768,264.816z"/>
<path style="fill:#ACABB1;" d="M270.113,257.519c-9.178,2.553-18.866,2.553-28.044,0c-15.506-4.313-72.351-20.7-111.842-32.313
	c3.076,8.12,7.103,16.174,12.365,23.781c5.327,7.701,13.169,13.309,22.187,15.828c19.124,5.343,56.445,15.727,76.78,21.384
	c9.182,2.554,18.874,2.554,28.057,0c20.336-5.656,57.656-16.041,76.78-21.384c9.018-2.52,16.86-8.128,22.187-15.828
	c4.801-6.94,8.572-14.253,11.534-21.647C344.855,236.975,287.969,252.552,270.113,257.519z"/>
<path style="fill:#898890;" d="M241.559,286.198c4.588,1.276,9.303,1.914,14.018,1.915v-28.689
	c-4.545-0.045-9.085-0.676-13.508-1.906c-15.506-4.313-72.351-20.699-111.842-32.313c3.076,8.12,7.103,16.174,12.365,23.781
	c5.327,7.701,13.169,13.309,22.187,15.829C183.903,270.157,221.223,280.542,241.559,286.198z"/>
<path style="fill:#787680;" d="M218.776,279.859c-7.923-10.3-14.263-21.869-18.674-34.329c-22.196-6.4-48.561-14.057-69.875-20.325
	c3.076,8.12,7.103,16.174,12.365,23.781c5.327,7.701,13.169,13.309,22.187,15.829C177.969,268.5,199.816,274.583,218.776,279.859z"
	/>
<path style="fill:#ACABB1;" d="M279.904,117.783l110.22,57.818c0.04-1.495,0.062-2.955,0.065-4.369
	c0.04-14.953-8.192-28.696-21.436-35.639l-88.849-46.577c-15.235-7.987-33.42-7.987-48.656,0l-88.849,46.576
	c-13.244,6.943-21.476,20.686-21.436,35.639c0.007,2.489,0.067,5.116,0.193,7.846l110.093-61.295
	C246.484,109.796,264.669,109.796,279.904,117.783z"/>
<path style="fill:#898890;" d="M231.249,89.015l-88.85,46.577c-13.244,6.943-21.476,20.686-21.436,35.639
	c0.007,2.489,0.067,5.116,0.193,7.846l110.093-61.295c7.618-3.993,15.973-5.99,24.328-5.99V83.025
	C247.221,83.025,238.866,85.022,231.249,89.015z"/>
<path style="fill:#787680;" d="M121.156,179.078l71.886-40.023v-7.328c0-8.169,0.8-16.161,2.324-23.901l-52.967,27.766
	c-13.244,6.943-21.476,20.686-21.436,35.639C120.97,173.721,121.03,176.347,121.156,179.078z"/>
<g>
	<circle style="fill:#898890;" cx="299.399" cy="166.87" r="10.797"/>
	<circle style="fill:#898890;" cx="288.599" cy="218.92" r="10.797"/>
	<circle style="fill:#898890;" cx="338.779" cy="197.33" r="10.797"/>
</g>
<g>
	<circle style="fill:#787680;" cx="211.749" cy="166.87" r="10.797"/>
	<circle style="fill:#787680;" cx="222.549" cy="218.92" r="10.797"/>
</g>
<circle style="fill:#57565C;" cx="172.379" cy="197.33" r="10.797"/>
<path d="M299.4,148.577c-10.089,0-18.297,8.208-18.297,18.297s8.208,18.297,18.297,18.297s18.297-8.208,18.297-18.297
	S309.489,148.577,299.4,148.577z M299.4,170.171c-1.818,0-3.297-1.479-3.297-3.297s1.479-3.297,3.297-3.297s3.297,1.479,3.297,3.297
	S301.218,170.171,299.4,170.171z"/>
<path d="M288.603,200.627c-10.09,0-18.298,8.208-18.298,18.297s8.208,18.297,18.298,18.297c10.089,0,18.297-8.208,18.297-18.297
	S298.692,200.627,288.603,200.627z M288.603,222.221c-1.818,0-3.298-1.479-3.298-3.297s1.479-3.297,3.298-3.297
	s3.297,1.479,3.297,3.297S290.422,222.221,288.603,222.221z"/>
<path d="M357.074,197.33c0-10.089-8.208-18.297-18.297-18.297s-18.297,8.208-18.297,18.297s8.208,18.297,18.297,18.297
	S357.074,207.419,357.074,197.33z M335.48,197.33c0-1.818,1.479-3.297,3.297-3.297s3.297,1.479,3.297,3.297
	s-1.479,3.297-3.297,3.297S335.48,199.148,335.48,197.33z"/>
<path d="M230.05,166.874c0-10.089-8.208-18.297-18.297-18.297s-18.297,8.208-18.297,18.297s8.208,18.297,18.297,18.297
	S230.05,176.963,230.05,166.874z M208.457,166.874c0-1.818,1.479-3.297,3.297-3.297s3.297,1.479,3.297,3.297
	s-1.479,3.297-3.297,3.297S208.457,168.692,208.457,166.874z"/>
<path d="M204.254,218.924c0,10.089,8.208,18.297,18.297,18.297s18.297-8.208,18.297-18.297s-8.208-18.297-18.297-18.297
	S204.254,208.835,204.254,218.924z M225.847,218.924c0,1.818-1.479,3.297-3.297,3.297s-3.297-1.479-3.297-3.297
	s1.479-3.297,3.297-3.297S225.847,217.106,225.847,218.924z"/>
<path d="M172.376,179.033c-10.089,0-18.297,8.208-18.297,18.297s8.208,18.297,18.297,18.297s18.297-8.208,18.297-18.297
	S182.465,179.033,172.376,179.033z M172.376,200.627c-1.818,0-3.297-1.479-3.297-3.297s1.479-3.297,3.297-3.297
	s3.297,1.479,3.297,3.297S174.194,200.627,172.376,200.627z"/>
<path d="M449.443,425.395c-0.483-6.438-3.445-12.304-8.34-16.515s-11.133-6.255-17.574-5.78c-4.785,0.359-9.252,2.09-12.959,4.962
	l-69.93-33.684c0.413-4.147-0.364-8.329-2.322-12.118c-2.601-5.037-6.915-8.609-11.859-10.422v-36.037
	c4.134-2.604,8.135-5.44,11.974-8.508c22.292-17.82,38.365-42.595,45.486-69.947c1.086-2.282,2.085-4.578,3.014-6.881
	c0.07-0.153,0.13-0.311,0.191-0.469c8.383-21.002,10.525-42.513,10.568-58.745c0.028-10.624-3.422-20.669-9.543-28.801v-10.723
	c0-72.633-59.092-131.725-131.725-131.725c0,0-61.057-1-100.506,45.813c-2.669,3.167-2.361,7.871,0.773,10.579
	s7.871,2.361,10.579-0.773c22.297-25.814,55.283-40.619,88.309-40.619c62.12,0,116.313,51.123,117.541,114.43
	c-0.293-0.162-89.732-47.059-89.732-47.059c-17.414-9.129-38.206-9.128-55.62,0c0,0-88.866,46.586-88.874,46.591
	c0.407-17.668,4.711-34.591,12.827-50.339c1.897-3.682,0.451-8.205-3.231-10.103c-3.684-1.898-8.206-0.45-10.103,3.231
	c-9.507,18.45-14.533,39.188-14.533,59.974v9.634c-6.648,8.316-10.418,18.788-10.388,29.891c0.05,19.112,3.011,45.542,15.647,69.846
	c7.662,26.175,23.602,49.784,45.238,66.815c3.623,2.852,7.358,5.495,11.193,7.928v36.007c-4.848,1.777-9.095,5.242-11.711,10.13
	c-2.065,3.858-2.906,8.148-2.481,12.406l-69.613,33.532c-3.72-2.98-8.238-4.79-13.095-5.189c-6.438-0.527-12.691,1.48-17.615,5.655
	c-4.924,4.176-7.927,10.02-8.456,16.455s1.479,12.691,5.655,17.614c5.931,6.993,23.077,24.96,54.135,40.718
	c37.709,19.132,82.728,28.833,133.805,28.833c118.865,0,173.563-52.838,187.496-69.032
	C447.873,438.075,449.926,431.834,449.443,425.395z M187.055,369.056c1.214-2.268,4.953-4.631,9.245-2.755
	c0.953,0.417,23.096,11.621,59.277,11.621c37.079,0,60.024-11.571,60.265-11.695c3.325-1.718,7.432-0.409,9.149,2.917
	c0.832,1.611,1.906,6.559-2.919,9.148c-1.035,0.555-26.028,13.209-66.496,13.209c-40.51,0-64.782-12.623-65.74-13.256
	C185.055,375.086,186.199,370.655,187.055,369.056z M263.076,406.359c39.739-1.471,64.774-14.167,65.881-14.739
	c1.929-0.996,3.67-2.252,5.187-3.721l65.081,31.348c-16.754,14.946-58.265,42.766-136.149,44.334L263.076,406.359L263.076,406.359z
	 M311.458,351.818c-0.819,0.301-20.629,9.606-48.381,10.921v-26.804c16.747-0.865,33.199-4.976,48.381-11.99V351.818z
	 M248.077,251.186c-1.341-0.244-73.374-20.739-112.108-32.111c-4.237-12.34-6.244-24.755-7.049-35.736l105.891-58.956
	c4.216-2.2,8.695-3.675,13.266-4.449L248.077,251.186L248.077,251.186z M148.749,244.721c-1.734-2.507-3.318-5.071-4.779-7.672
	c37.156,10.859,101.409,28.979,104.107,29.343v13.564c-1.517-0.257-62.169-17.022-81.291-22.364
	C159.485,255.552,153.079,250.981,148.749,244.721z M263.077,266.514c3.045-0.358,33.921-8.639,57.865-15.203
	c3.994-1.095,6.345-5.221,5.25-9.216c-1.096-3.995-5.219-6.348-9.217-5.25c-16.709,4.581-52.21,14.25-53.898,14.517V119.936
	c4.599,0.779,9.105,2.266,13.343,4.488l106.021,55.615c-0.661,12.345-2.782,26.811-7.97,41.068
	c-9.044,2.472-19.275,5.271-29.789,8.149c-3.995,1.094-6.347,5.219-5.253,9.214c0.912,3.332,4.107,6.283,9.214,5.253
	c6.058-1.221,11.83-3.238,17.444-4.773c-1.153,1.95-2.373,3.878-3.683,5.771c-4.33,6.26-10.735,10.831-18.036,12.872
	c-19.122,5.342-79.774,22.106-81.291,22.364L263.077,266.514L263.077,266.514z M365.271,142.235
	c8.184,4.29,13.993,11.729,16.305,20.412l-98.19-51.507c-6.423-3.367-13.307-5.483-20.31-6.366V91.169
	c4.599,0.779,9.107,2.267,13.345,4.489L365.271,142.235z M145.882,142.235l88.849-46.577c4.24-2.222,8.747-3.71,13.346-4.489v13.605
	c-7.003,0.883-13.887,2.999-20.311,6.366c-0.056,0.029-0.111,0.059-0.166,0.09l-98.759,54.985
	C130.369,156.022,136.597,147.102,145.882,142.235z M159.885,271.128c0.945,0.33,59.316,16.64,79.654,22.297
	c5.247,1.459,10.641,2.189,16.038,2.189c5.396,0,10.793-0.73,16.038-2.189c20.338-5.657,79.542-22.227,80.882-22.738
	c-21.282,30.921-58.415,51.784-96.075,50.426C216.333,319.668,181.266,301.759,159.885,271.128z M248.077,335.899v26.839
	c-27.454-1.312-46.653-10.59-47.536-10.914V324.04C215.423,330.955,231.45,334.97,248.077,335.899z M432.291,433.186
	c-12.88,14.971-63.646,63.815-176.125,63.815c-48.696,0-91.431-9.155-127.018-27.21c-28.624-14.522-44.14-30.743-49.482-37.043
	c-1.584-1.868-2.346-4.242-2.146-6.684c0.201-2.441,1.34-4.659,3.208-6.244c1.869-1.584,4.245-2.345,6.684-2.146
	c2.442,0.201,4.659,1.34,6.243,3.209c6.708,7.909,32.876,34.816,87.992,48.976c4.009,1.027,8.1-1.386,9.13-5.398
	s-1.386-8.1-5.398-9.13c-38.068-9.78-61.061-26.13-72.364-36.201l64.852-31.238c1.44,1.394,3.074,2.606,4.89,3.578
	c1.08,0.578,25.508,13.405,65.318,14.887v57.194c-11.07-0.263-21.854-1.06-32.146-2.396c-4.11-0.535-7.87,2.364-8.403,6.472
	c-0.533,4.107,2.364,7.87,6.472,8.403c13.423,1.743,27.61,2.626,42.166,2.626c107.362,0,153.968-47.844,162.221-57.436
	c1.598-1.856,3.822-2.98,6.266-3.164c2.435-0.184,4.811,0.595,6.668,2.193s2.981,3.823,3.165,6.266S433.889,431.329,432.291,433.186
	z"/>
<g>
</g>
<g>
</g>
<g>
</g>
<g>
</g>
<g>
</g>
<g>
</g>
<g>
</g>
<g>
</g>
<g>
</g>
<g>
</g>
<g>
</g>
<g>
</g>
<g>
</g>
<g>
</g>
<g>
</g>
</svg>
