<svg height="504pt" viewBox="-68 0 504 504" width="504pt" xmlns="http://www.w3.org/2000/svg"><path d="m304 104v48l-32-32s-40 16-88 16-88-16-88-16l-32 32v-40c0-57.519531 46.558594-104 104-104h80v40c30.960938 0 56 25.039062 56 56zm0 0" fill="#965353"/><path d="m248 80c13.230469 0 24 10.769531 24 24v16l32 32v-48c0-30.960938-25.039062-56-56-56v-40h-32v40c0 17.671875 14.328125 32 32 32zm0 0" fill="#844747"/><path d="m184 136c48 0 88-16 88-16l32 32v39.921875h-32v-32h-176v32h-32v-39.921875l32-32s40 16 88 16zm0 0" fill="#eac6bb"/><path d="m272 191.921875v24.078125c0 48.558594-39.359375 88-88 88-48.558594 0-88-39.441406-88-88v-56.078125h176zm0 0" fill="#ed5565"/><path d="m247.976562 159.921875v56.078125c0 44.488281-33.054687 81.207031-75.976562 87.089844 3.929688.535156 7.921875.910156 12 .910156 48.640625 0 88-39.441406 88-88v-56.078125zm0 0" fill="#da4453"/><path d="m304 191.921875v24.078125c0 46-25.921875 86-64 106.078125v.082031c-16.71875 8.808594-35.761719 13.839844-56 13.839844s-39.28125-5.039062-56-13.839844v-.082031c-38.078125-20.078125-64-60.078125-64-106.078125v-24.078125h32v24.078125c0 48.558594 39.441406 88 88 88 48.640625 0 88-39.441406 88-88v-24.078125zm0 0" fill="#eac6bb"/><path d="m360 432v56c0 4.398438-3.519531 8-8 8h-144l48-64-16-16 32-32-16-16h40c35.359375 0 64 28.640625 64 64zm0 0" fill="#545c66"/><path d="m256 368 16 16-32 32 16 16-48 64h-24l24.878906-64 18.722656-48 12.398438-32zm0 0" fill="#656d78"/><path d="m160 373.199219 16 18.800781-16.878906 40-18.640625-48zm0 0" fill="#e6e9ed"/><path d="m227.601562 384-18.722656 48-16.878906-40 16-18.800781zm0 0" fill="#e6e9ed"/><path d="m240 352-12.398438 32-19.601562-10.800781-24-13.199219-24 13.199219-19.519531 10.800781-12.480469-32v-29.839844c16.71875 8.808594 35.761719 13.839844 56 13.839844s39.28125-5.039062 56-13.839844zm0 0" fill="#f5f7fa"/><path d="m208 373.199219-16 18.800781h-16l-16-18.800781 24-13.199219zm0 0" fill="#ed5565"/><path d="m192 392 16.878906 40-24.878906 64-24.878906-64 16.878906-40zm0 0" fill="#da4453"/><path d="m159.121094 432 24.878906 64h-24l-48-64 16-16-32-32 32-32 12.480469 32zm0 0" fill="#656d78"/><path d="m112 432 48 64h-144c-4.398438 0-8-3.601562-8-8v-56c0-35.359375 28.640625-64 64-64h40l-16 16 32 32zm0 0" fill="#545c66"/><path d="m8 440.015625c-4.425781 0-8-3.574219-8-8 0-39.710937 32.304688-72.015625 72.015625-72.015625 4.425781 0 8 3.574219 8 8s-3.574219 8-8 8c-30.886719 0-56.015625 25.128906-56.015625 56.015625 0 4.425781-3.574219 8-8 8zm0 0"/><path d="m360 440.015625c-4.425781 0-8-3.574219-8-8 0-30.871094-25.128906-56-56-56-4.425781 0-8-3.574219-8-8 0-4.421875 3.574219-8 8-8 39.703125 0 72 32.296875 72 72 0 4.425781-3.574219 8-8 8zm0 0"/><path d="m112.007812 376h-39.992187c-4.421875 0-8-3.574219-8-8s3.578125-8 8-8h39.992187c4.425782 0 8 3.574219 8 8s-3.574218 8-8 8zm0 0"/><path d="m8.007812 496c-4.414062 0-7.9999995-3.574219-7.9999995-8l-.0078125-55.984375c0-4.414063 3.574219-8 8-8 4.414062 0 8 3.578125 8 8l.007812 55.984375c0 4.414062-3.574218 8-8 8zm0 0"/><path d="m16.007812 504c-8.824218 0-15.9999995-7.175781-15.9999995-16 0-4.425781 3.5781255-8 7.9999995-8 4.425782 0 8 3.574219 8 8v.015625c4.425782 0 8 3.570313 8 7.992187 0 4.417969-3.574218 7.992188-8 7.992188zm0 0"/><path d="m352 504c-4.425781 0-8-3.574219-8-8s3.574219-8 8-8h.015625c0-4.425781 3.570313-8 7.992187-8 4.417969 0 7.992188 3.574219 7.992188 8 0 8.824219-7.175781 16-16 16zm0 0"/><path d="m360 496c-4.425781 0-8-3.574219-8-8v-55.984375c0-4.421875 3.574219-8 8-8s8 3.578125 8 8v55.984375c0 4.425781-3.574219 8-8 8zm0 0"/><path d="m352 504h-335.992188c-4.421874 0-8-3.574219-8-8s3.578126-8 8-8h335.992188c4.425781 0 8 3.574219 8 8s-3.574219 8-8 8zm0 0"/><path d="m128 360c-4.425781 0-8-3.574219-8-8v-29.839844c0-4.425781 3.574219-8 8-8s8 3.574219 8 8v29.839844c0 4.425781-3.574219 8-8 8zm0 0"/><path d="m240 360c-4.425781 0-8-3.574219-8-8v-29.839844c0-4.425781 3.574219-8 8-8s8 3.574219 8 8v29.839844c0 4.425781-3.574219 8-8 8zm0 0"/><path d="m184 344c-70.574219 0-128-57.425781-128-128 0-4.425781 3.574219-8 8-8s8 3.574219 8 8c0 61.761719 50.238281 112 112 112s112-50.238281 112-112c0-4.425781 3.574219-8 8-8s8 3.574219 8 8c0 70.574219-57.425781 128-128 128zm0 0"/><path d="m184 312c-52.9375 0-96-43.0625-96-96 0-4.425781 3.574219-8 8-8s8 3.574219 8 8c0 44.113281 35.886719 80 80 80s80-35.886719 80-80c0-4.425781 3.574219-8 8-8s8 3.574219 8 8c0 52.9375-43.0625 96-96 96zm0 0"/><path d="m140.464844 392.015625c-2.824219 0-5.554688-1.496094-7.015625-4.136719-2.136719-3.871094-.730469-8.742187 3.144531-10.871094l43.542969-24.015624c3.878906-2.136719 8.742187-.726563 10.871093 3.144531 2.136719 3.871093.726563 8.742187-3.144531 10.871093l-43.542969 24.015626c-1.222656.671874-2.550781.992187-3.855468.992187zm0 0"/><path d="m227.535156 392.015625c-1.304687 0-2.632812-.320313-3.855468-.992187l-43.542969-24.015626c-3.863281-2.136718-5.273438-7-3.144531-10.871093 2.144531-3.863281 7-5.273438 10.871093-3.144531l43.542969 24.015624c3.867188 2.136719 5.273438 7 3.144531 10.871094-1.453125 2.640625-4.191406 4.136719-7.015625 4.136719zm0 0"/><path d="m96 392.015625c-2.046875 0-4.097656-.785156-5.65625-2.34375-3.128906-3.128906-3.128906-8.183594 0-11.3125l32-32.015625c3.128906-3.128906 8.183594-3.128906 11.3125 0s3.128906 8.183594 0 11.3125l-32 32.015625c-1.558594 1.558594-3.609375 2.34375-5.65625 2.34375zm0 0"/><path d="m128 424c-2.046875 0-4.097656-.785156-5.65625-2.34375l-32-31.984375c-3.128906-3.128906-3.128906-8.183594 0-11.3125s8.183594-3.128906 11.3125 0l32 31.984375c3.128906 3.128906 3.128906 8.183594 0 11.3125-1.558594 1.558594-3.609375 2.34375-5.65625 2.34375zm0 0"/><path d="m112 440c-2.046875 0-4.097656-.785156-5.65625-2.34375-3.128906-3.128906-3.128906-8.183594 0-11.3125l16-16c3.128906-3.128906 8.183594-3.128906 11.3125 0s3.128906 8.183594 0 11.3125l-16 16c-1.558594 1.558594-3.609375 2.34375-5.65625 2.34375zm0 0"/><path d="m160.007812 504c-2.441406 0-4.832031-1.105469-6.40625-3.199219l-48-64c-2.65625-3.527343-1.9375-8.542969 1.597657-11.191406 3.527343-2.65625 8.535156-1.945313 11.191406 1.597656l48 64c2.65625 3.527344 1.9375 8.546875-1.597656 11.191407-1.433594 1.082031-3.113281 1.601562-4.785157 1.601562zm0 0"/><path d="m184 504c-3.199219 0-6.222656-1.9375-7.457031-5.105469l-56-144c-1.597657-4.117187.441406-8.75 4.554687-10.351562 4.109375-1.605469 8.757813.441406 10.351563 4.554687l56 144c1.597656 4.117188-.441407 8.75-4.554688 10.351563-.949219.382812-1.925781.550781-2.894531.550781zm0 0"/><path d="m272 392.015625c-2.046875 0-4.097656-.785156-5.65625-2.34375l-32-32.015625c-3.128906-3.128906-3.128906-8.183594 0-11.3125s8.183594-3.128906 11.3125 0l32 32.015625c3.128906 3.128906 3.128906 8.183594 0 11.3125-1.558594 1.558594-3.609375 2.34375-5.65625 2.34375zm0 0"/><path d="m240 424c-2.046875 0-4.097656-.785156-5.65625-2.34375-3.128906-3.128906-3.128906-8.183594 0-11.3125l32-31.984375c3.128906-3.128906 8.183594-3.128906 11.3125 0s3.128906 8.183594 0 11.3125l-32 31.984375c-1.558594 1.558594-3.609375 2.34375-5.65625 2.34375zm0 0"/><path d="m256 440c-2.046875 0-4.097656-.785156-5.65625-2.34375l-16-16c-3.128906-3.128906-3.128906-8.183594 0-11.3125s8.183594-3.128906 11.3125 0l16 16c3.128906 3.128906 3.128906 8.183594 0 11.3125-1.558594 1.558594-3.609375 2.34375-5.65625 2.34375zm0 0"/><path d="m207.992188 504c-1.671876 0-3.351563-.519531-4.792969-1.601562-3.535157-2.644532-4.253907-7.664063-1.597657-11.191407l48-64c2.65625-3.535156 7.664063-4.246093 11.191407-1.597656 3.535156 2.648437 4.253906 7.664063 1.597656 11.191406l-48 64c-1.558594 2.09375-3.957031 3.199219-6.398437 3.199219zm0 0"/><path d="m184 504c-.96875 0-1.945312-.167969-2.894531-.542969-4.121094-1.601562-6.160157-6.234375-4.554688-10.351562l56-144c1.59375-4.128907 6.234375-6.167969 10.351563-4.554688 4.121094 1.601563 6.160156 6.234375 4.554687 10.351563l-56 144c-1.234375 3.160156-4.257812 5.097656-7.457031 5.097656zm0 0"/><path d="m296 376.015625h-40c-4.425781 0-8-3.574219-8-8 0-4.421875 3.574219-8 8-8h40c4.425781 0 8 3.578125 8 8 0 4.425781-3.574219 8-8 8zm0 0"/><path d="m159.113281 440c-1.042969 0-2.097656-.199219-3.113281-.632812-4.070312-1.71875-5.976562-6.414063-4.257812-10.480469l16.890624-39.984375c1.71875-4.070313 6.414063-5.964844 10.480469-4.253906 4.070313 1.71875 5.976563 6.414062 4.253907 10.480468l-16.886719 39.984375c-1.296875 3.054688-4.257813 4.886719-7.367188 4.886719zm0 0"/><path d="m208.886719 440c-3.117188 0-6.078125-1.832031-7.367188-4.886719l-16.886719-40c-1.722656-4.074219.183594-8.761719 4.253907-10.480469 4.066406-1.730468 8.761719.183594 10.480469 4.253907l16.890624 40c1.71875 4.074219-.1875 8.761719-4.257812 10.480469-1.015625.433593-2.070312.632812-3.113281.632812zm0 0"/><path d="m192 400.015625h-16c-4.425781 0-8-3.574219-8-8 0-4.421875 3.574219-8 8-8h16c4.425781 0 8 3.578125 8 8 0 4.425781-3.574219 8-8 8zm0 0"/><path d="m192 400.015625c-1.832031 0-3.679688-.625-5.183594-1.910156-3.367187-2.859375-3.769531-7.914063-.894531-11.273438l16-18.785156c2.855469-3.375 7.902344-3.773437 11.269531-.894531 3.367188 2.855468 3.769532 7.910156.898438 11.273437l-16 18.78125c-1.585938 1.855469-3.832032 2.808594-6.089844 2.808594zm0 0"/><path d="m176 400.015625c-2.257812 0-4.503906-.953125-6.089844-2.816406l-16-18.785157c-2.863281-3.359374-2.46875-8.414062.898438-11.269531 3.359375-2.871093 8.414062-2.480469 11.269531.894531l16 18.785157c2.867187 3.359375 2.472656 8.414062-.894531 11.273437-1.503906 1.292969-3.351563 1.917969-5.183594 1.917969zm0 0"/><path d="m96 224c-4.425781 0-8-3.574219-8-8v-56.015625c0-4.425781 3.574219-8 8-8s8 3.574219 8 8v56.015625c0 4.425781-3.574219 8-8 8zm0 0"/><path d="m272 224c-4.425781 0-8-3.574219-8-8v-56.015625c0-4.425781 3.574219-8 8-8s8 3.574219 8 8v56.015625c0 4.425781-3.574219 8-8 8zm0 0"/><path d="m64.007812 224.03125c-4.421874 0-8-3.574219-8-8v-104.03125c0-4.425781 3.578126-8 8-8 4.425782 0 8 3.574219 8 8v104.03125c0 4.425781-3.574218 8-8 8zm0 0"/><path d="m304.007812 224.03125c-4.421874 0-8-3.574219-8-8v-112.015625c0-4.421875 3.578126-8 8-8 4.425782 0 8 3.578125 8 8v112.015625c0 4.425781-3.574218 8-8 8zm0 0"/><path d="m304.007812 112.015625c-4.421874 0-8-3.574219-8-8 0-26.472656-21.527343-48-48-48-4.421874 0-8-3.574219-8-8 0-4.421875 3.578126-8 8-8 35.289063 0 64 28.710937 64 64 0 4.425781-3.574218 8-8 8zm0 0"/><path d="m248.007812 56.015625c-4.421874 0-8-3.574219-8-8v-40.015625c0-4.425781 3.578126-8 8-8 4.425782 0 8 3.574219 8 8v40.015625c0 4.425781-3.574218 8-8 8zm0 0"/><path d="m248.007812 16h-80c-4.421874 0-8-3.574219-8-8s3.578126-8 8-8h80c4.425782 0 8 3.574219 8 8s-3.574218 8-8 8zm0 0"/><path d="m64.007812 120c-4.421874 0-8-3.574219-8-8 0-61.761719 50.238282-112 112-112 4.425782 0 8 3.574219 8 8s-3.574218 8-8 8c-52.9375 0-96 43.0625-96 96 0 4.425781-3.574218 8-8 8zm0 0"/><path d="m304.007812 160c-2.046874 0-4.097656-.785156-5.65625-2.34375l-32-32c-3.128906-3.128906-3.128906-8.183594 0-11.3125 3.128907-3.128906 8.183594-3.128906 11.3125 0l32 32c3.128907 3.128906 3.128907 8.183594 0 11.3125-1.558593 1.558594-3.609374 2.34375-5.65625 2.34375zm0 0"/><path d="m184.007812 144c-48.976562 0-89.28125-15.894531-90.96875-16.566406-4.101562-1.640625-6.09375-6.296875-4.464843-10.402344 1.640625-4.09375 6.273437-6.121094 10.402343-4.464844.382813.160156 39.246094 15.433594 85.03125 15.433594 45.929688 0 84.640626-15.273438 85.03125-15.433594 4.066407-1.636718 8.761719.355469 10.402344 4.464844 1.636719 4.105469-.363281 8.761719-4.464844 10.402344-1.6875.671875-41.992187 16.566406-90.96875 16.566406zm0 0"/><path d="m64.007812 160c-2.046874 0-4.097656-.785156-5.65625-2.34375-3.128906-3.128906-3.128906-8.183594 0-11.3125l32-32c3.128907-3.128906 8.183594-3.128906 11.3125 0 3.128907 3.128906 3.128907 8.183594 0 11.3125l-32 32c-1.558593 1.558594-3.609374 2.34375-5.65625 2.34375zm0 0"/><path d="m272 167.984375h-176c-4.425781 0-8-3.578125-8-8 0-4.425781 3.574219-8 8-8h176c4.425781 0 8 3.574219 8 8 0 4.421875-3.574219 8-8 8zm0 0"/><path d="m184 280c-17.097656 0-33.167969-6.65625-45.257812-18.753906-3.125-3.125-3.125-8.183594 0-11.308594 3.128906-3.128906 8.1875-3.128906 11.3125 0 9.074218 9.070312 21.121093 14.0625 33.945312 14.0625s24.863281-4.992188 33.9375-14.0625c3.125-3.128906 8.183594-3.128906 11.308594 0 3.128906 3.125 3.128906 8.183594 0 11.308594-12.078125 12.097656-28.148438 18.753906-45.246094 18.753906zm0 0"/><path d="m168.015625 216c-4.421875 0-8-3.574219-8-8 0-4.414062-3.582031-8-8-8-4.414063 0-8 3.585938-8 8 0 4.425781-3.574219 8-8 8-4.421875 0-8-3.574219-8-8 0-13.230469 10.769531-24 24-24s24 10.769531 24 24c0 4.425781-3.574219 8-8 8zm0 0"/><path d="m232.007812 216c-4.421874 0-8-3.574219-8-8 0-4.414062-3.582031-8-8-8-4.414062 0-8 3.585938-8 8 0 4.425781-3.574218 8-8 8-4.421874 0-8-3.574219-8-8 0-13.230469 10.769532-24 24-24 13.230469 0 24 10.769531 24 24 0 4.425781-3.574218 8-8 8zm0 0"/><path d="m304 199.984375h-31.992188c-4.421874 0-8-3.578125-8-8 0-4.425781 3.578126-8 8-8h31.992188c4.425781 0 8 3.574219 8 8 0 4.421875-3.574219 8-8 8zm0 0"/><path d="m96 199.984375h-32c-4.425781 0-8-3.578125-8-8 0-4.425781 3.574219-8 8-8h32c4.425781 0 8 3.574219 8 8 0 4.421875-3.574219 8-8 8zm0 0"/></svg>