<svg height="512pt" viewBox="0 0 512 512" width="512pt" xmlns="http://www.w3.org/2000/svg"><path d="m362.890625 114.390625v105.523437c-26.214844 26.210938-40.910156 40.910157-67.125 67.121094h-79.53125c-26.214844-26.210937-40.910156-40.90625-67.125-67.121094v-105.523437c0-59.035156 47.859375-106.890625 106.890625-106.890625 59.035156 0 106.890625 47.855469 106.890625 106.890625zm0 0" fill="#787680"/><path d="m304.769531 192.546875h-37.539062v-54.214844h18.769531c16.230469 0 29.433594-13.226562 29.433594-29.484375 0-16.261718-13.203125-29.488281-29.433594-29.488281s-29.4375 13.226563-29.4375 29.484375h-37.539062c0-36.996094 30.046874-67.09375 66.976562-67.09375s66.976562 30.097656 66.976562 67.09375c0 30.472656-20.382812 56.265625-48.207031 64.414062zm0 0" fill="#57565c"/><path d="m267.230469 216.316406h37.539062v37.539063h-37.539062zm0 0" fill="#57565c"/><path d="m504.5 358.390625-49.957031-49.957031h-128.402344v-51.773438c-9.195313 9.195313-18.628906 18.628906-30.375 30.375h-79.53125l-30.375-30.375v51.773438h-128.402344c-19.511719 19.507812-30.449219 30.449218-49.957031 49.957031v146.109375h497zm0 0" fill="#787680"/><path d="m274.769531 192.546875h-37.539062v-54.214844h18.769531c16.230469 0 29.433594-13.226562 29.433594-29.484375 0-16.261718-13.203125-29.488281-29.433594-29.488281s-29.4375 13.226563-29.4375 29.484375h-37.539062c0-36.996094 30.046874-67.09375 66.976562-67.09375s66.976562 30.097656 66.976562 67.09375c0 30.472656-20.382812 56.265625-48.207031 64.414062zm0 0" fill="#fff"/><path d="m237.230469 216.316406h37.539062v37.539063h-37.539062zm0 0" fill="#fff"/><g fill="#57565c"><path d="m179.109375 114.390625c0-53.945313 39.960937-98.554687 91.890625-105.847656-4.898438-.6875-9.90625-1.042969-15-1.042969-59.03125 0-106.886719 47.855469-106.886719 106.890625v105.519531l67.121094 67.125h30l-67.121094-67.125v-105.519531zm0 0"/><path d="m87.457031 308.433594h-30c-19.511719 19.507812-30.449219 30.449218-49.957031 49.957031v146.109375h30v-146.109375c19.507812-19.507813 30.445312-30.449219 49.957031-49.957031zm0 0"/><path d="m215.859375 286.660156-30-30v51.773438h30zm0 0"/></g><path d="m271 43.445312c-4.824219-1.109374-9.84375-1.695312-15-1.695312-36.929688 0-66.976562 30.097656-66.976562 67.09375h30c0-31.832031 22.242187-58.554688 51.976562-65.398438zm0 0" fill="#d1e7f8"/><path d="m237.230469 138.332031v54.214844h30v-55.089844c-1.222657.46875-4.28125.875-11.230469.875zm0 0" fill="#d1e7f8"/><path d="m237.230469 216.316406h20v37.539063h-20zm0 0" fill="#d1e7f8"/><path d="m457.648438 300.933594h-49.503907v15h43.292969l45.5625 45.5625v135.503906h-71.597656v-82.265625h-15v82.265625h-308.804688v-82.265625h-15v82.265625h-71.597656v-35.144531h-15v50.144531h512v-156.71875zm0 0"/><path d="m15 361.496094 45.5625-45.5625h132.796875v-41.164063l19.769531 19.765625h85.742188l19.769531-19.769531v41.167969h69.503906v-15h-54.503906v-41.167969l36.75-36.746094v-108.628906c0-63.074219-51.316406-114.390625-114.390625-114.390625s-114.390625 51.316406-114.390625 114.390625v29.753906h15v-29.753906c0-54.804687 44.585937-99.390625 99.390625-99.390625s99.390625 44.585938 99.390625 99.390625v102.414063l-62.730469 62.730468h-73.316406l-62.730469-62.730468v-52.660157h-15v58.875l36.746094 36.75v41.164063h-124.007813l-54.351562 54.351562v86.570313h15zm0 0"/><path d="m282.269531 178.648438c28.648438-10.863282 48.207031-38.792969 48.207031-69.804688 0-41.132812-33.410156-74.59375-74.476562-74.59375s-74.476562 33.460938-74.476562 74.59375v7.5h52.539062v-7.5c0-12.125 9.839844-21.988281 21.9375-21.988281s21.9375 9.863281 21.9375 21.988281-9.839844 21.988281-21.9375 21.988281h-26.269531v69.214844h52.539062zm-15-11.007813v17.40625h-22.539062v-39.214844h11.269531c20.367188 0 36.9375-16.59375 36.9375-36.988281s-16.570312-36.988281-36.9375-36.988281c-17.800781 0-32.699219 12.679687-36.171875 29.488281h-22.835937c3.691406-29.332031 28.746093-52.09375 59.007812-52.09375 32.796875 0 59.476562 26.734375 59.476562 59.59375 0 26.304688-17.605468 49.832031-42.8125 57.21875zm0 0"/><path d="m229.730469 261.355469h52.539062v-52.539063h-52.539062zm15-37.539063h22.539062v22.539063h-22.539062zm0 0"/><path d="m316.953125 241.101562-10.605469-10.609374 24.042969-24.042969v-9.179688h15v15.394531zm28.4375-53.832031h-15v-15h15zm0-25h-15v-15h15zm0 0" fill="#fff"/><path d="m483.828125 476.328125h-15v-45h15zm0-55h-15v-15h15zm0-25h-15v-15h15zm0 0" fill="#fff"/></svg>