<?xml version="1.0" encoding="iso-8859-1"?>
<!-- Generator: Adobe Illustrator 19.0.0, SVG Export Plug-In . SVG Version: 6.00 Build 0)  -->
<svg version="1.1" id="Layer_1" xmlns="http://www.w3.org/2000/svg" xmlns:xlink="http://www.w3.org/1999/xlink" x="0px" y="0px"
	 viewBox="0 0 512.002 512.002" style="enable-background:new 0 0 512.002 512.002;" xml:space="preserve">
<path style="fill:#FCEA81;" d="M18.289,209.422c-6.588,14.614-10.262,30.825-10.262,47.898c0,46.533,27.238,86.697,66.636,105.439
	c5.955,2.833,12.876,2.833,18.832,0c39.398-18.742,66.636-58.906,66.636-105.439c0-17.072-3.674-33.284-10.262-47.898
	L18.289,209.422L18.289,209.422z"/>
<g>
	<path style="fill:#E0B394;" d="M152.306,236.784c-13.579-0.602-24.387-11.805-24.387-25.526c0-14.105,11.433-25.548,25.548-25.548
		c1.27,0,2.519,0.088,3.745,0.274"/>
	<path style="fill:#E0B394;" d="M383.171,236.784c13.579-0.602,24.398-11.805,24.398-25.526c0-14.105-11.444-25.548-25.559-25.548
		c-1.27,0-2.53,0.099-3.745,0.274"/>
</g>
<path style="fill:#E6E6E6;" d="M319.392,329.339H216.115c-37.404,0-67.726,30.322-67.726,67.726v99.412h238.728v-99.412
	C387.118,359.661,356.795,329.339,319.392,329.339z"/>
<path style="fill:#CCCCCC;" d="M257.845,329.339h-41.729c-37.404,0-67.726,30.322-67.726,67.726v99.413h41.729v-99.413
	C190.118,359.661,220.441,329.339,257.845,329.339z"/>
<path style="fill:#F7CBA4;" d="M230.791,347.205l-44.952-32.66c-23.755-17.259-36.605-45.798-33.781-75.025l7.797-80.683
	c5.37-55.57,52.068-97.973,107.896-97.973l0,0c55.828,0,102.526,42.403,107.896,97.973l7.797,80.683
	c2.824,29.227-10.025,57.766-33.781,75.025l-44.952,32.66C282.671,363.218,252.829,363.218,230.791,347.205z"/>
<path style="fill:#E0B394;" d="M180.031,255.421c-0.756,12.78,3.406,25.351,11.641,35.152l46.982,57.733
	c2.453,2.924,5.234,5.377,8.246,7.337c-5.651-1.971-11.082-4.796-16.109-8.443l-44.953-32.655
	c-23.752-17.259-36.598-45.796-33.772-75.024l7.786-80.686c5.322-55.028,51.162-97.145,106.278-97.944
	c-33.948,0.821-72.388,32.82-74.392,66.899L180.031,255.421z"/>
<path style="fill:#F9C573;" d="M389.306,196.665c-59.134-96.367-90.892-50.374-122.649-50.374c-7.315,0-14.061-0.986-20.204-2.606
	c-28.79-7.578-44.406-29.151-44.406-29.151c0,28.472-44.811,71.399-44.811,71.399C104.76,63.503,215.035,47.668,215.035,47.668
	c8.662-19.766,35.919-34.451,69.034-33.159c11.893,0.449,24.53,2.957,37.342,8.038C437.49,68.54,389.306,196.665,389.306,196.665z"
	/>
<path style="fill:#E2AF66;" d="M246.453,143.684c-28.79-7.578-44.406-29.151-44.406-29.151c0,28.472-44.811,71.399-44.811,71.399
	C104.76,63.503,215.035,47.668,215.035,47.668c8.662-19.766,35.919-34.451,69.034-33.159
	C282.295,15.199,212.078,43.255,246.453,143.684z"/>
<g>
	<polygon style="fill:#64B4D8;" points="267.744,401.709 219.774,429.404 219.774,374.013 	"/>
	<polygon style="fill:#64B4D8;" points="267.744,401.709 315.715,429.404 315.715,374.013 	"/>
</g>
<path style="fill:#F95428;" d="M364.729,334.262c-6.447,14.301-10.042,30.163-10.042,46.869c0,45.533,26.653,84.834,65.204,103.173
	c5.828,2.773,12.599,2.773,18.427,0c38.551-18.339,65.204-57.64,65.204-103.173c0-16.705-3.595-32.569-10.042-46.869H364.729z"/>
<path d="M292.486,282.162c-6.462,6.462-15.054,10.022-24.194,10.022c-9.141,0-17.732-3.559-24.195-10.022
	c-3.208-3.206-8.407-3.207-11.616,0c-3.208,3.207-3.208,8.408,0,11.616c9.566,9.566,22.283,14.833,35.81,14.833
	c13.528,0,26.244-5.268,35.809-14.833c3.207-3.207,3.207-8.408,0-11.616C300.895,278.954,295.695,278.953,292.486,282.162z"/>
<path d="M268.292,264.707c11.473,0,20.807-9.333,20.807-20.807v-38.875c0-4.536-3.676-8.213-8.213-8.213
	c-4.537,0-8.213,3.677-8.213,8.213v38.875c0,2.416-1.965,4.38-4.38,4.38s-4.38-1.965-4.38-4.38v-38.875
	c0-4.536-3.676-8.213-8.213-8.213s-8.213,3.677-8.213,8.213v38.875C247.485,255.374,256.82,264.707,268.292,264.707z"/>
<path d="M173.904,334.738c-20.782,12.618-33.19,34.646-33.19,58.927v38.606c0,4.536,3.676,8.213,8.213,8.213
	c4.537,0,8.213-3.677,8.213-8.213v-38.606c0-18.493,9.454-35.273,25.289-44.886c3.877-2.354,5.112-7.405,2.758-11.283
	C182.834,333.619,177.782,332.383,173.904,334.738z"/>
<path d="M387.656,488.817H157.141v-29.169c0-4.536-3.676-8.213-8.213-8.213c-4.537,0-8.213,3.677-8.213,8.213v37.382
	c0,4.536,3.676,8.213,8.213,8.213h238.728c4.537,0,8.213-3.677,8.213-8.213S392.193,488.817,387.656,488.817z"/>
<path d="M144.104,244.098c-1.295,30.309,12.766,59.709,37.453,77.639l44.954,32.666c12.495,9.079,27.135,13.62,41.782,13.618
	c14.643-0.001,29.292-4.54,41.793-13.618l44.953-32.666c24.681-17.934,38.738-47.337,37.442-77.642
	c13.883-4.23,23.851-17.099,23.851-32.29c0-11.296-5.584-21.306-14.13-27.437c3.318-13.51,6.936-34.399,5.429-57.506
	c-2.403-36.836-18.691-86.067-82.648-111.408c-24.013-9.514-49.65-11.287-72.191-4.991c-19.623,5.481-34.934,16.448-42.739,30.44
	c-12.213,2.667-46.659,12.751-64.287,44.145c-13.903,24.763-13.823,56.341,0.188,93.976c-14.735,3.625-25.7,16.943-25.7,32.781
	C120.254,227,130.222,239.871,144.104,244.098z M345.382,308.449l-44.951,32.665c-19.225,13.961-45.052,13.963-64.264,0.001
	l-44.956-32.667c-21.307-15.475-32.967-41.373-30.434-67.588l4.844-50.125c8.13-6.75,30.598-27.571,41.189-59.26
	c11.505,10.252,31.929,23.574,60.393,23.574c8.739,0,17.081-2.812,25.146-5.531c12.218-4.119,23.76-8.009,37.259-3.249
	c12.88,4.54,26.243,16.427,40.551,36.128l5.647,58.465C378.341,267.073,366.684,292.971,345.382,308.449z M390.968,226.975
	l-2.088-21.617c0.32,0.038,0.644,0.062,0.97,0.062c0.26,0,0.522-0.012,0.784-0.037c2.489-0.238,4.681-1.601,6.034-3.626
	c2.029,2.838,3.237,6.301,3.237,10.047C399.905,218.335,396.314,224.019,390.968,226.975z M257.211,26.284
	c19.104-5.336,41.025-3.758,61.721,4.442c44.768,17.738,69.084,50.276,72.273,96.71c1.346,19.577-1.481,37.734-4.319,50.174
	c-17.661-25.421-34.703-40.802-51.815-46.834c-6.339-2.235-12.372-3.101-18.083-3.101c-11.265,0-21.275,3.374-29.886,6.277
	c-7.125,2.402-13.853,4.671-19.899,4.671c-31.384,0-50.846-19.889-56.366-26.385c0.632-33.125,12.037-60.19,12.278-60.754
	C228.03,40.293,240.772,30.875,257.211,26.284z M160.026,93.201c10.599-18.972,29.63-28.549,42.705-33.112
	c-3.792,12.657-8.227,32.122-8.341,54.129c-5.337,27.692-22.796,48.234-33.287,58.436
	C149.099,140.115,148.729,113.423,160.026,93.201z M148.676,195.321l-3.06,31.659c-5.346-2.956-8.937-8.641-8.937-15.175
	C136.68,204.11,141.723,197.578,148.676,195.321z"/>
<path d="M316.263,438.165c1.418,0,2.836-0.367,4.107-1.101c2.541-1.467,4.107-4.179,4.107-7.113v-55.391
	c0-2.934-1.566-5.646-4.107-7.113c-2.541-1.467-5.673-1.467-8.213,0l-43.865,25.325l-43.863-25.325
	c-2.541-1.467-5.673-1.467-8.213,0c-2.541,1.467-4.107,4.179-4.107,7.113v55.391c0,2.934,1.566,5.646,4.107,7.113
	c1.27,0.734,2.688,1.101,4.107,1.101c1.418,0,2.836-0.367,4.107-1.101l43.863-25.325l43.865,25.325
	C313.427,437.798,314.845,438.165,316.263,438.165z M228.535,415.726v-26.94l23.331,13.471L228.535,415.726z M308.05,415.726
	l-23.332-13.471l23.332-13.471V415.726z"/>
<path d="M219.542,208.858c-4.537,0-8.213,3.677-8.213,8.213v13.137c0,4.536,3.676,8.213,8.213,8.213
	c4.537,0,8.213-3.677,8.213-8.213v-13.137C227.755,212.536,224.079,208.858,219.542,208.858z"/>
<path d="M317.043,169.324c-9.287,0-18.018,3.616-24.586,10.183c-3.207,3.207-3.207,8.408,0.001,11.616
	c3.206,3.207,8.407,3.206,11.614,0c3.464-3.465,8.07-5.372,12.97-5.372c4.899,0,9.506,1.908,12.971,5.372
	c1.603,1.603,3.706,2.406,5.807,2.406s4.204-0.802,5.808-2.406c3.207-3.207,3.207-8.408-0.001-11.616
	C335.061,172.94,326.329,169.324,317.043,169.324z"/>
<path d="M232.513,191.122c1.603,1.603,3.706,2.406,5.807,2.406c2.101,0,4.204-0.802,5.808-2.406
	c3.208-3.207,3.208-8.408-0.001-11.616c-13.556-13.555-35.613-13.555-49.169,0c-3.209,3.207-3.209,8.408-0.001,11.616
	c3.208,3.206,8.408,3.207,11.614,0C213.724,183.97,225.361,183.97,232.513,191.122z"/>
<path d="M317.043,208.858c-4.537,0-8.213,3.677-8.213,8.213v13.137c0,4.536,3.676,8.213,8.213,8.213s8.213-3.677,8.213-8.213
	v-13.137C325.256,212.536,321.578,208.858,317.043,208.858z"/>
<path d="M85.309,324.085c12.967,0,25.938-4.938,35.809-14.809c3.209-3.207,3.209-8.408,0.001-11.616
	c-3.209-3.206-8.409-3.207-11.614,0c-13.344,13.341-35.051,13.34-48.389,0c-3.207-3.206-8.407-3.207-11.616,0
	c-3.207,3.207-3.207,8.408,0,11.616C59.373,319.149,72.339,324.085,85.309,324.085z"/>
<path d="M148.057,315.631c-3.81-2.457-8.892-1.36-11.353,2.453c-11.148,17.292-26.84,31.094-45.378,39.912
	c-3.824,1.819-8.21,1.819-12.034,0c-38.19-18.168-62.866-57.213-62.866-99.471c0-13.968,2.565-27.514,7.632-40.343h78.302
	c4.537,0,8.213-3.677,8.213-8.213s-3.676-8.213-8.213-8.213H18.615c-3.229,0-6.16,1.893-7.487,4.838
	C3.744,222.974,0,240.446,0,258.526c0,24.382,6.954,48.054,20.108,68.459c12.804,19.86,30.83,35.714,52.128,45.846
	c4.155,1.976,8.614,2.964,13.073,2.964c4.459,0,8.919-0.988,13.073-2.964c21.298-10.132,39.324-25.985,52.129-45.846
	C152.969,323.172,151.87,318.088,148.057,315.631z"/>
<path d="M75.453,265.819c0-4.536-3.676-8.213-8.213-8.213H43.148c-4.537,0-8.213,3.677-8.213,8.213s3.676,8.213,8.213,8.213H67.24
	C71.777,274.032,75.453,270.355,75.453,265.819z"/>
<path d="M135.683,265.819c0-4.536-3.676-8.213-8.213-8.213h-24.092c-4.537,0-8.213,3.677-8.213,8.213s3.676,8.213,8.213,8.213
	h24.092C132.007,274.032,135.683,270.355,135.683,265.819z"/>
<path d="M406.501,441.817c12.764-12.766,33.54-12.765,46.304,0c1.604,1.604,3.707,2.406,5.808,2.406s4.204-0.802,5.808-2.406
	c3.207-3.207,3.207-8.407,0-11.614c-19.173-19.172-50.364-19.171-69.537,0c-3.207,3.207-3.207,8.407,0,11.614
	C398.093,445.025,403.292,445.025,406.501,441.817z"/>
<path d="M504.363,381.615c-4.548-0.318-8.451,3.091-8.769,7.616c-2.673,37.996-25.761,71.794-60.255,88.202
	c-3.616,1.719-7.758,1.718-11.371,0c-36.764-17.49-60.52-55.076-60.52-95.756c0-13.382,2.445-26.36,7.277-38.656h117.855
	c2.231,5.69,3.966,11.576,5.176,17.56c0.899,4.446,5.233,7.323,9.678,6.423c4.446-0.899,7.322-5.232,6.423-9.678
	c-1.8-8.899-4.605-17.611-8.34-25.893c-1.327-2.944-4.258-4.837-7.487-4.837H365.278c-3.229,0-6.16,1.893-7.487,4.837
	c-7.144,15.847-10.768,32.752-10.768,50.245c0,23.59,6.728,46.494,19.456,66.235c12.389,19.215,29.828,34.552,50.434,44.355
	c4.049,1.926,8.395,2.889,12.742,2.889c4.345,0,8.693-0.964,12.741-2.889c39.834-18.949,66.498-57.989,69.585-101.883
	C512.298,385.86,508.888,381.934,504.363,381.615z"/>
<path d="M420.426,388.718c0-4.536-3.676-8.213-8.213-8.213h-23.255c-4.537,0-8.213,3.677-8.213,8.213s3.676,8.213,8.213,8.213
	h23.255C416.749,396.931,420.426,393.254,420.426,388.718z"/>
<path d="M478.563,388.718c0-4.536-3.676-8.213-8.213-8.213h-23.254c-4.537,0-8.213,3.677-8.213,8.213s3.676,8.213,8.213,8.213
	h23.254C474.885,396.931,478.563,393.254,478.563,388.718z"/>
<path d="M89.156,104.826c2.101,0,4.204-0.802,5.808-2.406l14.494-14.494c3.207-3.207,3.207-8.407,0-11.614
	c-3.207-3.206-8.407-3.207-11.616,0L83.348,90.804c-3.207,3.207-3.207,8.407,0,11.614C84.952,104.024,87.054,104.826,89.156,104.826
	z"/>
<path d="M45.963,148.019c2.101,0,4.204-0.802,5.808-2.406l14.495-14.495c3.207-3.207,3.207-8.407,0-11.614
	c-3.209-3.206-8.408-3.207-11.616,0l-14.495,14.494c-3.207,3.207-3.207,8.407,0,11.614C41.759,147.217,43.86,148.019,45.963,148.019
	z"/>
<path d="M97.843,145.613c1.604,1.604,3.707,2.406,5.808,2.406s4.204-0.802,5.808-2.406c3.207-3.208,3.207-8.408,0-11.614
	l-14.494-14.494c-3.209-3.207-8.408-3.207-11.616,0c-3.207,3.207-3.207,8.408,0,11.614L97.843,145.613z"/>
<path d="M54.649,102.42c1.604,1.604,3.707,2.406,5.808,2.406c2.101,0,4.204-0.802,5.808-2.406c3.207-3.207,3.207-8.408,0-11.614
	L51.77,76.31c-3.209-3.207-8.408-3.207-11.616,0c-3.207,3.207-3.207,8.408,0,11.614L54.649,102.42z"/>
<path d="M458.839,273.454c2.101,0,4.204-0.802,5.807-2.406l11.469-11.468c3.209-3.207,3.209-8.408,0.001-11.616
	c-3.207-3.206-8.408-3.208-11.614,0l-11.469,11.468c-3.209,3.207-3.209,8.408-0.001,11.616
	C454.635,272.652,456.737,273.454,458.839,273.454z"/>
<path d="M424.665,307.628c2.101,0,4.204-0.802,5.807-2.406l11.469-11.468c3.209-3.207,3.209-8.408,0.001-11.616
	c-3.207-3.206-8.408-3.208-11.614,0l-11.469,11.468c-3.209,3.207-3.209,8.408-0.001,11.616
	C420.461,306.826,422.562,307.628,424.665,307.628z"/>
<path d="M464.501,305.222c1.603,1.603,3.706,2.406,5.807,2.406s4.204-0.802,5.808-2.406c3.207-3.207,3.207-8.408-0.001-11.616
	l-11.469-11.468c-3.206-3.208-8.407-3.206-11.614,0c-3.207,3.207-3.207,8.408,0.001,11.616L464.501,305.222z"/>
<path d="M430.327,271.048c1.603,1.603,3.706,2.406,5.807,2.406s4.204-0.802,5.808-2.406c3.207-3.207,3.207-8.408-0.001-11.616
	l-11.469-11.468c-3.206-3.208-8.407-3.206-11.614,0c-3.207,3.207-3.207,8.408,0.001,11.616L430.327,271.048z"/>
<circle cx="268.295" cy="441.593" r="8.213"/>
<circle cx="268.295" cy="471.565" r="8.213"/>
<g>
</g>
<g>
</g>
<g>
</g>
<g>
</g>
<g>
</g>
<g>
</g>
<g>
</g>
<g>
</g>
<g>
</g>
<g>
</g>
<g>
</g>
<g>
</g>
<g>
</g>
<g>
</g>
<g>
</g>
</svg>
