<svg height="511pt" viewBox="-16 1 511 511.999" width="511pt" xmlns="http://www.w3.org/2000/svg"><path d="m196.410156 32.558594c-3.789062 0-7.234375 1.425781-9.863281 3.753906-2.625-2.328125-6.074219-3.753906-9.863281-3.753906-8.21875 0-14.882813 6.664062-14.882813 14.882812 0 8.222656 6.664063 14.886719 14.882813 14.886719.0625 0 .121094-.007813.179687-.007813v44.453126h19.367188v-44.453126c.0625 0 .117187.007813.179687.007813 8.21875 0 14.886719-6.664063 14.886719-14.886719 0-8.21875-6.667969-14.882812-14.886719-14.882812zm0 0" fill="#d8e6f0"/><path d="m379.371094 240.050781 35.574218-109.847656c3.824219-10.433594-1.535156-21.988281-11.964843-25.8125-10.433594-3.824219-21.988281 1.535156-25.8125 11.96875l-19.476563 65.917969c-.988281 2.695312-3.554687 4.488281-6.425781 4.488281-3.777344 0-6.839844-3.0625-6.839844-6.839844v-112.058593c0-13.007813-10.542969-23.550782-23.550781-23.550782s-23.554688 10.542969-23.554688 23.550782v108.871093c0 5.535157-4.488281 10.027344-10.027343 10.027344-5.539063 0-10.027344-4.492187-10.027344-10.027344v-145.683593c0-13.007813-10.546875-23.554688-23.554687-23.554688-13.007813 0-23.554688 10.546875-23.554688 23.554688v145.683593c0 5.535157-4.488281 10.027344-10.027344 10.027344-5.535156 0-10.027344-4.492187-10.027344-10.027344v-72.558593c0-3.769532-3.054687-6.824219-6.824218-6.824219h-33.445313c-3.773437 0-6.832031 3.0625-6.824219 6.835937l.214844 127.027344h-16.050781l-28.191406-40.292969c-13.042969-18.640625-38.726563-23.179687-57.367188-10.140625l-7.0625 4.945313c-6.46875 4.523437-8.042969 13.433593-3.519531 19.898437l79.523438 113.660156c4.023437 5.746094 10.59375 9.167969 17.601562 9.167969h21.171875v176.042969h171.660156v-176.042969h7.402344c17.109375 0 30.980469-13.871093 30.980469-30.980469zm0 0" fill="#bfea92"/><g fill="#9bc66a"><path d="m324.425781 67.867188v112.058593c0 3.777344 3.0625 6.839844 6.839844 6.839844 2.871094 0 5.4375-1.792969 6.425781-4.488281l6.734375-22.800782v-91.609374c0-13.007813-10.542969-23.550782-23.550781-23.550782-3.578125 0-6.964844.800782-10 2.226563 8.003906 3.761719 13.550781 11.894531 13.550781 21.324219zm0 0"/><path d="m257.265625 31.054688v145.683593c0 5.535157 4.488281 10.027344 10.027344 10.027344 5.351562 0 9.714843-4.203125 10-9.484375-.011719-.183594-.027344-.359375-.027344-.542969v-145.683593c0-13.007813-10.546875-23.554688-23.554687-23.554688-3.578126 0-6.964844.800781-10 2.226562 8.007812 3.761719 13.554687 11.894532 13.554687 21.328126zm0 0"/><path d="m190.101562 104.179688v72.558593c0 5.535157 4.488282 10.027344 10.027344 10.027344 5.355469 0 9.714844-4.203125 10-9.484375-.011718-.183594-.027344-.359375-.027344-.542969v-72.558593c0-3.769532-3.054687-6.824219-6.824218-6.824219h-20c3.769531 0 6.824218 3.054687 6.824218 6.824219zm0 0"/><path d="m98.976562 190.925781 28.191407 40.292969h16.050781l-.007812-5.660156-24.234376-34.632813c-10.070312-14.398437-27.6875-20.375-43.777343-16.339843 9.304687 2.316406 17.851562 7.863281 23.777343 16.339843zm0 0"/><path d="m402.980469 104.390625c-5.808594-2.128906-11.957031-1.402344-16.933594 1.449219 8.363281 4.777344 12.324219 15.011718 8.898437 24.363281l-35.574218 109.847656v57.425781c0 17.109376-13.871094 30.980469-30.984375 30.980469h-4.214844c-1.757813 0-3.183594 1.425781-3.183594 3.1875v172.855469h20v-176.042969h7.398438c17.113281 0 30.984375-13.871093 30.984375-30.980469v-57.425781l35.574218-109.847656c3.824219-10.433594-1.535156-21.988281-11.964843-25.8125zm0 0"/></g><path d="m418.324219 504.5h-355.316407c-.421874-2.59375-.648437-5.265625-.648437-7.984375 0-27.375 22.183594-49.574219 49.570313-49.574219 8.125 0 15.773437 1.972656 22.546874 5.429688 13.441407-25.566406 40.253907-43.011719 71.148438-43.011719 34.6875 0 64.246094 21.988281 75.5 52.792969 10.070312-2.007813 20.636719-3.09375 31.554688-3.09375 45.003906 0 84.335937 18.242187 105.644531 45.441406zm0 0" fill="#b78358"/><path d="m241.589844 458.742188c2.421875 4.824218 7.703125 7.558593 13.046875 6.824218 7.179687-.988281 14.578125-1.507812 22.140625-1.507812 42.1875 0 79.386718 16.03125 101.433594 40.441406h40.117187c-21.3125-27.199219-60.640625-45.441406-105.648437-45.441406-10.917969 0-21.484376 1.085937-31.554688 3.09375-11.253906-30.804688-40.8125-52.792969-75.5-52.792969-10.144531 0-19.84375 1.890625-28.777344 5.324219 28.390625 2.496094 52.550782 19.75 64.742188 44.058594zm0 0" fill="#935d38"/><path d="m77.757812 216.1875c4.910157-4.300781 5.867188-11.582031 2.234376-17.003906l-14.074219-21.023438c-1.46875.78125-2.910157 1.648438-4.308594 2.625l-7.0625 4.941406c-6.464844 4.527344-8.039063 13.4375-3.515625 19.902344l14.738281 21.066406zm0 0" fill="#e6eff5"/><path d="m472.683594 497h-50.792969c-17.402344-20.640625-43.425781-35.207031-73.40625-41.679688v-68.070312c0-4.144531-3.359375-7.5-7.5-7.5-4.144531 0-7.5 3.355469-7.5 7.5v65.554688c-6.800781-.824219-13.75-1.246094-20.804687-1.246094-9.042969 0-18.066407.71875-26.902344 2.136718-5.722656-12.710937-14.417969-23.921874-25.40625-32.691406-3.238282-2.582031-7.957032-2.050781-10.539063 1.1875-2.582031 3.234375-2.054687 7.957032 1.183594 10.539063 10.503906 8.378906 18.480469 19.445312 23.066406 31.996093 1.269531 3.476563 4.886719 5.511719 8.511719 4.78125 9.808594-1.957031 19.929688-2.949218 30.085938-2.949218 34.214843 0 66.519531 11.386718 88.222656 30.441406h-331.039063c-.003906-.160156-.003906-.320312-.003906-.484375 0-23.199219 18.875-42.070313 42.074219-42.070313 6.703125 0 13.144531 1.546876 19.136718 4.605469 3.660157 1.867188 8.136719.441407 10.046876-3.191406 7.121093-13.546875 18.070312-24.203125 31.128906-30.929687.308594-.128907.609375-.28125.898437-.453126 9.898438-4.925781 20.972657-7.613281 32.480469-7.613281 7.289062 0 14.484375 1.070313 21.382812 3.1875 3.960938 1.214844 8.15625-1.015625 9.371094-4.972656 1.214844-3.960937-1.011718-8.15625-4.972656-9.371094-8.324219-2.550781-17-3.84375-25.78125-3.84375-9.984375 0-19.691406 1.675781-28.800781 4.828125v-78.230468c0-4.144532-3.359375-7.5-7.5-7.5h-21.171875c-4.558594 0-8.839844-2.230469-11.453125-5.96875l-15.210938-21.75c-2.371093-3.394532-7.046875-4.222657-10.441406-1.847657-3.394531 2.371094-4.222656 7.046875-1.847656 10.441407l15.207031 21.75c5.417969 7.75 14.292969 12.375 23.746094 12.375h13.671875v77.5625c-12.230469 7.03125-22.746094 17.011718-30.496094 29.308593-6.203125-2.253906-12.699219-3.390625-19.394531-3.390625-31.472656 0-57.074219 25.605469-57.074219 57.074219 0 .160156 0 .320313.003906.484375h-46.863281c-4.140625 0-7.5 3.355469-7.5 7.5 0 4.140625 3.359375 7.5 7.5 7.5h464.683594c4.144531 0 7.5-3.359375 7.5-7.5 0-4.144531-3.355469-7.5-7.5-7.5zm0 0"/><path d="m275.28125 337.347656v44.433594c0 4.140625 3.355469 7.5 7.5 7.5 4.140625 0 7.5-3.359375 7.5-7.5v-44.433594c0-4.144531-3.359375-7.5-7.5-7.5-4.144531 0-7.5 3.355469-7.5 7.5zm0 0"/><path d="m242 346.328125c-4.140625 0-7.5 3.355469-7.5 7.5v27.949219c0 4.144531 3.359375 7.5 7.5 7.5 4.144531 0 7.5-3.355469 7.5-7.5v-27.949219c0-4.140625-3.355469-7.5-7.5-7.5zm0 0"/><path d="m44.125 208.765625c.027344.046875.058594.09375.085938.140625.023437.039062.046874.074219.070312.113281.007812.011719.015625.023438.023438.035157.183593.292968.378906.585937.582031.875l14.738281 21.066406c.003906.007812.007812.011718.015625.019531l31.554687 45.101563c2.375 3.394531 7.050782 4.21875 10.445313 1.847656 3.394531-2.375 4.222656-7.050782 1.847656-10.445313l-27.71875-39.613281 6.933594-6.078125c7.714844-6.761719 9.230469-18.289063 3.523437-26.816406l-8.871093-13.25c4.445312-1.066407 9.101562-1.21875 13.734375-.398438 8.863281 1.566407 16.585937 6.488281 21.742187 13.863281l28.191407 40.292969.003906.003907c.082031.117187.171875.234374.261718.347656.011719.015625.023438.03125.039063.050781.027344.035156.058594.070313.085937.109375.019532.019531.039063.039062.054688.0625.027344.03125.054688.0625.082031.09375.019531.023438.039063.042969.054688.0625.035156.035156.070312.074219.101562.109375.03125.03125.0625.0625.089844.09375l.082031.082031c.023438.023438.046875.046875.074219.070313.023437.023437.046875.046875.074219.070312.023437.023438.046875.046875.070312.070313.03125.027344.058594.050781.085938.074218.023437.019532.042968.039063.0625.058594.050781.042969.101562.085938.15625.128906.003906.003907.003906.003907.007812.007813.050782.042969.101563.082031.15625.125.011719.007813.019532.015625.03125.023437.046875.039063.097656.074219.144532.109376.007812.007812.015624.011718.023437.015624 1.0625.773438 2.332031 1.269532 3.707031 1.398438h.023438c.0625.003906.125.011719.1875.015625h.046875c.054687.003906.109375.007813.167969.011719h.050781c.074219.003906.144531.003906.214843.003906h40.03125c26.082032 0 47.300782 21.21875 47.300782 47.296875v9.808594c0 4.144531 3.359375 7.5 7.5 7.5 4.144531 0 7.5-3.355469 7.5-7.5v-9.808594c0-34.351563-27.949219-62.296875-62.300782-62.296875h-16.492187l-.203125-118.863281h32.097656v71.882812c0 9.664063 7.863282 17.527344 17.527344 17.527344s17.527344-7.863281 17.527344-17.527344v-145.683593c0-8.851563 7.199218-16.054688 16.050781-16.054688 8.855469 0 16.054687 7.203125 16.054687 16.054688v145.683593c0 9.664063 7.863282 17.527344 17.527344 17.527344 9.667969 0 17.527344-7.863281 17.527344-17.527344v-108.871093c0-8.851563 7.203125-16.050782 16.054688-16.050782 8.851562 0 16.054687 7.199219 16.054687 16.050782v112.058593c0 7.90625 6.433594 14.339844 14.339844 14.339844 5.992187 0 11.402343-3.78125 13.464843-9.40625.054688-.148437.105469-.300781.152344-.457031l19.402344-65.664063c2.464844-6.398437 9.648438-9.675781 16.109375-7.304687 6.535156 2.394531 9.902344 9.65625 7.507813 16.1875-.03125.089844-.0625.179687-.09375.269531l-35.574219 109.847656c-.242188.746094-.367188 1.527344-.367188 2.3125v57.425781c0 12.949219-10.53125 23.480469-23.480469 23.480469h-7.402343c-4.140625 0-7.5 3.359375-7.5 7.5v28.792969c0 4.144531 3.359375 7.5 7.5 7.5 4.144531 0 7.5-3.355469 7.5-7.5v-21.292969c21.175781-.050781 38.386719-17.296875 38.386719-38.480469v-56.242187l35.167968-108.59375c5.140625-14.261719-2.230468-30.066406-16.480468-35.289063-14.292969-5.242187-30.191407 2.128907-35.433594 16.425782-.054688.152344-.105469.304687-.148438.457031l-18.050781 61.082031v-107.449218c0-17.121094-13.929687-31.050782-31.054687-31.050782-17.121094 0-31.050782 13.929688-31.050782 31.050782v108.871093c0 1.394531-1.136718 2.527344-2.527344 2.527344-1.394531 0-2.527343-1.136719-2.527343-2.527344v-145.683593c.003906-17.125-13.929688-31.054688-31.050781-31.054688-17.125 0-31.054688 13.929688-31.054688 31.054688v145.683593c0 1.394531-1.132812 2.527344-2.527344 2.527344-1.394531 0-2.527344-1.132813-2.527344-2.527344v-72.558593c0-7.746094-6.179687-14.074219-13.867187-14.316407v-21.261719c8.753906-3.042968 15.058594-11.378906 15.058594-21.160156 0-12.339844-10.039063-22.382812-22.378907-22.382812-3.449218 0-6.820312.796875-9.867187 2.296875-3.042969-1.5-6.414063-2.296875-9.863281-2.296875-12.339844 0-22.382813 10.042968-22.382813 22.382812 0 9.78125 6.304688 18.117188 15.0625 21.160156v21.261719c-3.65625.117188-7.074219 1.597657-9.671875 4.195313-2.707031 2.710937-4.191406 6.3125-4.1875 10.144531l.203125 119.515625h-4.628906l-25.953125-37.09375c-7.457031-10.65625-18.617188-17.769531-31.425781-20.035156-12.476563-2.203125-25.054688.453125-35.546875 7.480468-.285156.1875-.566406.378907-.84375.574219l-7.0625 4.941407c-.074219.050781-.148438.105468-.222656.15625-.023438.019531-.050782.039062-.074219.054687-.050781.039063-.105469.078125-.15625.117187-.003907 0-.007813.003907-.011719.007813-4.511719 3.332031-7.519531 8.183594-8.5 13.726563-.929688 5.265624.074219 10.574218 2.828125 15.097656.007813.003906.011719.011718.015625.019531zm125.175781-161.324219c0-4.070312 3.3125-7.382812 7.382813-7.382812 1.796875 0 3.53125.660156 4.875 1.855468 2.839844 2.523438 7.113281 2.527344 9.957031.007813.960937-.851563 2.589844-1.863281 4.898437-1.863281 4.066407 0 7.378907 3.3125 7.378907 7.382812 0 4.019532-3.226563 7.300782-7.222657 7.386719-.121093-.003906-.238281-.007813-.335937-.007813-4.144531 0-7.5 3.355469-7.5 7.5v27.535157h-4.371094v-27.535157c0-4.257812-3.546875-7.671874-7.851562-7.492187-3.992188-.089844-7.210938-3.371094-7.210938-7.386719zm-112.125 153.886719c-.058593-.082031-.113281-.164063-.167969-.25-.007812-.011719-.011718-.019531-.019531-.03125-.011719-.019531-.023437-.035156-.035156-.054687-.019531-.03125-.039063-.066407-.058594-.097657 0-.003906-.003906-.003906-.003906-.007812-1.691406-2.867188-1.042969-6.566407 1.523437-8.683594.007813-.003906.011719-.007813.019532-.015625.027344-.023438.054687-.042969.082031-.066406.019531-.011719.039063-.027344.054687-.042969.011719-.007813.019532-.015625.03125-.023437.082032-.058594.160157-.121094.246094-.175782l4.921875-3.445312 9.992188 14.925781c1.53125 2.285156 1.125 5.378906-.945313 7.191406l-5.699218 4.992188zm0 0"/></svg>