<svg id="Capa_1" enable-background="new 0 0 512 512" height="512" viewBox="0 0 512 512" width="512" xmlns="http://www.w3.org/2000/svg"><g><path d="m172.775 106.31c0-15.409-13.408-27.901-29.948-27.901-12.655 0-23.469 7.317-27.854 17.654l-35.692-11.429c89.34-144.5 299.601-67.628 299.601 79.633-71.401-15.514-141.388-16.203-209.765 0-10.523-10.113-14.17-28.046-3.485-39.881 4.419-4.896 7.143-11.179 7.143-18.076z" fill="#fd4755"/><g fill="#c42430"><path d="m109.21 78.409c-8.613 0-16.368 3.395-21.829 8.819l27.592 8.835c2.226-5.248 6.115-9.711 11.055-12.84-4.795-3.038-10.583-4.814-16.818-4.814z"/><path d="m345.132 158.032c11.214 1.703 22.464 3.783 33.749 6.235 0-98.32-93.726-165.255-182.615-155.885 75.508 7.794 145.501 66.963 148.866 149.65z"/><path d="m164.362 158.453c1.361 2.119 2.954 4.083 4.755 5.814 28.339-6.716 56.956-10.52 85.834-11.58-30.485-1.1-60.686.767-90.589 5.766z"/></g><circle cx="94.748" cy="92.903" fill="#faf7f7" r="24.494"/><path d="m102.472 454.604v39.896c0 5.523 4.477 10 10 10h319.274c5.523 0 10-4.477 10-10v-39.896c0-105.373-75.949-190.794-169.637-190.794s-169.637 85.421-169.637 190.794z" fill="#fd4755"/><path d="m272.109 263.81c-38.75 0-74.458 14.624-103.021 39.218 5.494 13.64 14.859 25.663 27.356 33.523 9.063 5.7 19.687 8.896 30.414 9.48 3.582.195 6.858 1.897 8.759 4.676 10.734 15.69 34.832 24.853 49.012 24.853s38.278-9.163 49.012-24.853c1.901-2.779 5.177-4.481 8.759-4.676 10.727-.584 21.351-3.78 30.414-9.48 7.319-4.603 13.564-10.634 18.588-17.58-30.643-34.099-72.779-55.161-119.293-55.161z" fill="#c42430"/><path d="m272.109 263.81c-4.488 0-8.934.2-13.333.584 87.455 7.648 156.304 89.884 156.304 190.21v39.896c0 5.523-4.477 10-10 10h26.667c5.523 0 10-4.477 10-10v-39.896c-.001-105.373-75.95-190.794-169.638-190.794z" fill="#c42430"/><path d="m239.859 331h64.5v111.667h-64.5z" fill="#faf7f7"/><path d="m239.859 355.89c11.952 12.503 32.234 19.669 44.772 19.669 5.528 0 12.565-1.399 19.728-4.028v-40.531h-64.5z" fill="#cbe5e8"/><path d="m149.639 467.42h244.94v37.08h-244.94z" fill="#655e67"/><path d="m382.706 255.318c-.23-8.9-1.836-17.749-4.686-26.097-.834-2.444-1.265-5.007-1.265-7.59v-49.297h-209.291v49.297c0 2.583-.431 5.146-1.265 7.59-2.85 8.348-4.456 17.197-4.686 26.097-.648 25.108 10.525 50.771 30.07 64.233 8.276 5.7 17.977 8.896 27.772 9.48 3.271.195 6.262 1.897 7.999 4.676 9.802 15.69 31.807 24.853 44.755 24.853s34.954-9.163 44.755-24.852c1.736-2.779 4.727-4.481 7.999-4.676 9.795-.584 19.497-3.78 27.773-9.48 19.545-13.463 30.718-39.127 30.07-64.234z" fill="#faf7f7"/><path d="m195.464 151.5v72.752c0 42.33 34.315 76.645 76.645 76.645s76.646-34.315 76.646-76.645v-72.752z" fill="#ffcdbe"/><path d="m268.461 231.547c2.136 1.614 5.16 1.614 7.297 0 4.268-3.225 10.162-4.424 15.578-3.749 7.386.921 13.534 4.584 19.657 8.494 9.178 5.863 22.527 13.787 33.914 10.681 2.51-.685 4.685 1.885 3.53 4.216-5.912 11.929-16.501 21.431-29.462 24.592-14.209 3.465-32.135-.352-43.709-9.723-1.85-1.498-4.461-1.498-6.311 0-11.575 9.371-29.5 13.188-43.709 9.723-12.961-3.161-23.55-12.663-29.462-24.592-1.155-2.331 1.02-4.901 3.53-4.216 11.387 3.106 24.736-4.818 33.914-10.681 6.122-3.911 12.27-7.574 19.657-8.494 5.413-.674 11.308.525 15.576 3.749z" fill="#cbe5e8"/><path d="m149.635 181.713v4.508c0 6.592 6.974 10.858 12.836 7.844 73.139-37.607 146.231-37.584 219.275-.006 5.862 3.016 12.838-1.25 12.838-7.843v-4.51c0-14.184-8.161-27.109-20.967-33.209-67.628-32.211-135.297-32.23-203.006.002-12.811 6.099-20.976 19.026-20.976 33.214z" fill="#cbe5e8"/><path d="m373.617 148.498c-8.969-4.272-17.939-7.96-26.909-11.1 12.397 6.836 20.269 20.753 20.269 36.019v4.946c0 3.01-1.219 5.566-3.054 7.299 5.941 2.559 11.882 5.341 17.823 8.397 5.862 3.016 12.838-1.25 12.838-7.843v-4.51c0-14.184-8.161-27.109-20.967-33.208z" fill="#a8d3d8"/><path d="m308.397 438.417h-72.575c-6.215 0-11.254 5.039-11.254 11.254v54.83h29v-29.982c0-3.922 3.18-7.102 7.102-7.102h22.88c3.922 0 7.102 3.18 7.102 7.102v29.981h29v-54.83c-.001-6.215-5.04-11.253-11.255-11.253z" fill="#fee97d"/><g><path d="m429.264 362.999c-11.761-25.239-28.508-47.627-48.636-65.126 3.486-6.88 6.122-14.402 7.749-22.318.833-4.057-1.779-8.023-5.837-8.856-4.059-.836-8.023 1.779-8.856 5.837-3.56 17.321-12.782 32.205-25.297 40.832-7.021 4.833-15.309 7.659-23.986 8.172-5.713.35-10.908 3.41-13.903 8.193-8.252 13.211-27.921 21.324-38.389 21.324-10.467 0-30.14-8.113-38.393-21.313-2.979-4.786-8.175-7.853-13.915-8.204-8.661-.512-16.95-3.338-23.969-8.17-6.308-4.345-11.727-10.233-16.012-17.126-.155-.305-.336-.601-.536-.889-6.858-11.426-10.651-25.486-10.279-39.846.209-8.112 1.653-16.144 4.293-23.879 1.101-3.237 1.66-6.604 1.66-10.006v-25.328c4.329-2.034 8.663-3.936 13-5.701v33.65c0 6.501.75 12.941 2.218 19.219-2.443 3.16-2.897 7.457-1.116 11.052 3.604 7.272 8.533 13.506 14.387 18.371 15.795 22.254 41.363 35.509 68.662 35.509 27.28 0 52.832-13.241 68.622-35.475 5.871-4.87 10.814-11.116 14.426-18.404 1.783-3.597 1.327-7.899-1.122-11.061 1.467-6.275 2.216-12.713 2.216-19.211v-33.662c4.338 1.766 8.671 3.668 13 5.703v25.339c0 3.382.562 6.749 1.67 10.007 1.015 2.982 1.858 6.023 2.507 9.04.757 3.519 3.866 5.925 7.325 5.925.522 0 1.053-.055 1.584-.169 4.049-.871 6.627-4.859 5.756-8.909-.771-3.583-1.771-7.19-2.972-10.719-.578-1.698-.871-3.439-.871-5.174v-19.154c3.44.328 6.938-.453 10.013-2.329 4.897-2.987 7.82-8.195 7.82-13.931v-4.51c0-13.555-6.316-26.283-16.66-34.585-3.173-29.152-14.594-56.842-33.195-80.272-18.104-22.805-42.398-41.044-70.256-52.747-3.818-1.606-8.216.192-9.82 4.01-1.605 3.819.191 8.216 4.01 9.82 25.538 10.728 47.779 27.411 64.318 48.245 14.554 18.332 24.245 39.528 28.462 61.948-66.912-29.424-134.679-28.234-201.559 3.603-.235.112-.464.231-.696.347-.146-4.762 1.376-9.191 4.508-12.662 5.856-6.492 9.081-14.697 9.081-23.104 0-19.52-16.8-35.401-37.451-35.401-7.436 0-14.511 2.04-20.521 5.775-3.838-6.498-9.906-11.524-17.145-14.025 16.951-18.567 37.095-31.952 60.071-39.827 24.69-8.463 51.981-10.098 78.92-4.728 4.061.808 8.012-1.828 8.821-5.89s-1.827-8.012-5.89-8.821c-29.536-5.886-59.521-4.071-86.715 5.25-29.23 10.018-54.258 28.032-74.459 53.516-13.358 3.844-23.162 16.167-23.162 30.745 0 17.641 14.353 31.994 31.994 31.994 17.642 0 31.995-14.353 31.995-31.994 0-.262-.014-.521-.02-.782 4.216-3.973 9.941-6.211 16.109-6.211 12.379 0 22.45 9.152 22.45 20.4 0 6.009-2.838 10.417-5.218 13.056-7.93 8.789-10.331 21.053-6.719 32.959-7.066 7.982-11.208 18.414-11.208 29.39v4.508c0 5.734 2.923 10.942 7.819 13.93 2.621 1.6 5.548 2.404 8.486 2.404.507 0 1.015-.031 1.521-.079v19.154c0 1.755-.29 3.496-.858 5.168-3.128 9.167-4.84 18.698-5.089 28.329-.39 15.069 3.099 29.932 9.584 42.728-6.388 5.552-12.473 11.612-18.135 18.092-2.725 3.119-2.406 7.858.713 10.583 1.422 1.243 3.181 1.852 4.932 1.852 2.089 0 4.168-.868 5.651-2.565 4.689-5.367 9.689-10.418 14.92-15.094 4.509 5.861 9.769 10.956 15.65 15.007 9.274 6.385 20.198 10.115 31.575 10.788.899.055 1.657.477 2.089 1.17 2.965 4.743 6.899 8.991 11.37 12.673v80.892c-8.691 1.63-15.293 9.263-15.293 18.421v10.25h-59.929v-13.53c0-24.47 6.99-48.022 20.214-68.107 2.278-3.46 1.32-8.111-2.14-10.389-3.461-2.279-8.112-1.32-10.389 2.14-14.841 22.542-22.686 48.945-22.686 76.356v50.608h-29.67c-1.378 0-2.5-1.122-2.5-2.5v-39.901c0-36.435 9.442-71.641 27.304-101.811 2.11-3.564.932-8.164-2.633-10.275-3.565-2.11-8.164-.931-10.275 2.633-19.231 32.482-29.397 70.331-29.397 109.453v39.901c0 9.65 7.851 17.5 17.5 17.5h319.286c9.65 0 17.5-7.851 17.5-17.5v-39.901c.004-31.866-6.908-63.54-19.984-91.6zm-334.521-253.11c-9.37 0-16.994-7.624-16.994-16.994 0-9.371 7.624-16.995 16.994-16.995 9.371 0 16.995 7.624 16.995 16.995-.001 9.371-7.625 16.994-16.995 16.994zm185.534 127.637c2.49-1.881 6.371-2.761 10.13-2.29 5.751.717 10.897 3.763 16.547 7.372 6.329 4.043 18.064 11.539 30.239 12.449-5.244 6.73-12.333 11.565-19.997 13.433-12.026 2.933-27.676-.544-37.213-8.265-2.319-1.878-5.097-2.816-7.876-2.816-2.778 0-5.557.939-7.875 2.815-9.537 7.722-25.187 11.2-37.214 8.266-7.664-1.869-14.754-6.704-19.997-13.433 12.174-.911 23.911-8.407 30.239-12.449 5.651-3.609 10.797-6.656 16.548-7.373 3.754-.468 7.638.409 10.129 2.29 4.811 3.634 11.53 3.635 16.34.001zm-42.075 46.978c12.135-.387 24.517-4.418 33.906-11.406 9.382 6.984 21.753 11.025 33.88 11.417-10.202 5.74-21.837 8.881-33.879 8.881-12.053 0-23.697-3.146-33.907-8.892zm103.048-60.259c0 5.389-.627 10.725-1.852 15.922-8.462-.04-18.965-6.748-24.369-10.2-6.948-4.438-13.917-8.513-22.767-9.616-7.318-.913-14.6.752-20.155 4.577-5.555-3.825-12.835-5.491-20.155-4.577-8.849 1.103-15.819 5.178-22.767 9.616-5.405 3.453-15.911 10.165-24.376 10.2-1.225-5.197-1.852-10.533-1.852-15.922v-39.211c23.116-7.741 46.264-11.672 69.173-11.672h.012c22.891.001 46.018 3.928 69.108 11.659zm-183.486-36.904c-.42-.256-.633-.635-.633-1.126v-4.508c0-11.234 6.555-21.613 16.7-26.442 32.673-15.554 65.746-23.439 98.299-23.439h.013c32.547.002 65.603 7.887 98.25 23.437 10.14 4.83 16.692 15.207 16.692 26.438v4.51c0 .491-.213.87-.633 1.126-.415.252-.844.269-1.274.047-1.593-.819-5.142-2.57-5.328-2.654-9.308-4.559-18.631-8.522-27.967-11.894-.354-.163-.722-.299-1.103-.407-52.342-18.641-105.049-18.628-157.413.036-.337.098-.664.219-.98.361-11.134 4.018-22.253 8.858-33.349 14.564-.43.22-.859.205-1.274-.049zm114.344 178.716c7.259 0 16.161-2.224 24.751-6.272v71.129h-49.501v-71.13c8.591 4.05 17.493 6.273 24.75 6.273zm-114.972 108.862h59.929v22.081h-59.929zm126.014 22.081h-22.083v-22.084h22.083zm15 0v-22.482c0-8.051-6.55-14.602-14.602-14.602h-22.88c-8.051 0-14.602 6.55-14.602 14.602v22.482h-14v-29.532c0-.016.002-.032.002-.048s-.002-.032-.002-.048v-17.702c0-2.07 1.684-3.754 3.754-3.754h3.961c.026 0 .051.004.077.004s.051-.004.077-.004h64.346c.026 0 .051.004.077.004s.051-.004.077-.004h3.96c2.07 0 3.754 1.684 3.754 3.754v47.33zm88.93 0h-59.93v-22.081h59.93zm47.171-2.5c0 1.378-1.122 2.5-2.5 2.5h-29.671v-50.611c0-27.41-7.845-53.814-22.687-76.356-2.279-3.46-6.93-4.418-10.389-2.14-3.46 2.278-4.418 6.929-2.14 10.389 13.224 20.086 20.215 43.637 20.215 68.107v13.53h-59.93v-10.25c0-9.157-6.601-16.789-15.291-18.42v-80.895c4.467-3.681 8.397-7.928 11.357-12.668.433-.69 1.198-1.119 2.086-1.173 11.392-.674 22.316-4.404 31.594-10.792 5.849-4.032 11.111-9.107 15.638-14.979 38.775 34.66 61.717 87.789 61.717 143.857v39.901z"/><path d="m230.107 188.436c-4.142 0-7.5 3.358-7.5 7.5v5.058c0 4.142 3.358 7.5 7.5 7.5s7.5-3.358 7.5-7.5v-5.058c0-4.142-3.358-7.5-7.5-7.5z"/><path d="m314.109 208.494c4.142 0 7.5-3.358 7.5-7.5v-5.058c0-4.142-3.358-7.5-7.5-7.5s-7.5 3.358-7.5 7.5v5.058c0 4.142 3.357 7.5 7.5 7.5z"/><path d="m267.441 393.153h9.333c4.142 0 7.5-3.358 7.5-7.5s-3.358-7.5-7.5-7.5h-9.333c-4.142 0-7.5 3.358-7.5 7.5s3.358 7.5 7.5 7.5z"/><path d="m276.774 404.831h-9.333c-4.142 0-7.5 3.358-7.5 7.5s3.358 7.5 7.5 7.5h9.333c4.142 0 7.5-3.358 7.5-7.5s-3.357-7.5-7.5-7.5z"/></g></g></svg>