<?xml version="1.0" encoding="iso-8859-1"?>
<!-- Generator: Adobe Illustrator 19.0.0, SVG Export Plug-In . SVG Version: 6.00 Build 0)  -->
<svg version="1.1" id="Capa_1" xmlns="http://www.w3.org/2000/svg" xmlns:xlink="http://www.w3.org/1999/xlink" x="0px" y="0px"
	 viewBox="0 0 512 512" style="enable-background:new 0 0 512 512;" xml:space="preserve">
<circle style="fill:#4B3F4E;" cx="416.32" cy="95.68" r="88.18"/>
<circle style="fill:#6F6571;" cx="416.32" cy="95.68" r="56.11"/>
<circle style="fill:#4B3F4E;" cx="95.68" cy="95.68" r="88.18"/>
<circle style="fill:#6F6571;" cx="95.68" cy="95.68" r="56.11"/>
<ellipse style="fill:#EDEBED;" cx="256" cy="280.05" rx="232.47" ry="224.45"/>
<ellipse transform="matrix(0.5 0.866 -0.866 0.5 430.7306 -175.5638)" style="fill:#4B3F4E;" cx="367.41" cy="285.247" rx="80.158" ry="68.099"/>
<path style="fill:#DBD9DC;" d="M95.677,272.032c0-89.089,43.884-167.187,109.777-211.052
	C101.381,83.27,23.532,172.855,23.532,280.048c0,120.508,98.369,218.806,221.804,224.191
	C157.849,468.565,95.677,378.083,95.677,272.032z"/>
<path style="fill:#5D5360;" d="M352.194,304.097L352.194,304.097c-13.282,0-24.048-10.767-24.048-24.048v-8.016
	c0-13.282,10.767-24.048,24.048-24.048l0,0c13.282,0,24.048,10.767,24.048,24.048v8.016
	C376.242,293.33,365.475,304.097,352.194,304.097z"/>
<path style="fill:#6F6571;" d="M352.194,247.984v28.056c0,6.641,5.383,12.024,12.024,12.024s12.024-5.383,12.024-12.024v-4.008
	C376.242,258.751,365.475,247.984,352.194,247.984z"/>
<g>
	<circle style="fill:#FFFFFF;" cx="352.19" cy="264.02" r="8.02"/>
	<path style="fill:#FFFFFF;" d="M328.145,400.29c0-17.709-19.74-32.065-44.089-32.065c-10.659,0-20.434,2.752-28.057,7.33
		c-7.623-4.578-17.398-7.33-28.057-7.33c-24.349,0-44.089,14.356-44.089,32.065c0,10.644,7.162,20.051,18.14,25.883
		c1.093,25.706,24.818,46.263,54.005,46.263s52.912-20.556,54.005-46.263C320.983,420.341,328.145,410.935,328.145,400.29z"/>
</g>
<path style="fill:#5D5360;" d="M296.081,368.226c0,13.282-17.945,32.065-40.081,32.065s-40.081-18.783-40.081-32.065
	s17.945-24.048,40.081-24.048S296.081,354.944,296.081,368.226z"/>
<g>
	<path style="fill:#4B3F4E;" d="M272.032,392.274c-22.136,0-40.081-21.467-40.081-36.646c0-2.559,0.675-4.989,1.629-7.339
		c-10.656,4.322-17.662,11.638-17.662,19.937c0,13.282,17.945,32.065,40.081,32.065c10.196,0,19.399-4.066,26.473-9.663
		C279.139,391.653,275.65,392.274,272.032,392.274z"/>
	
		<ellipse transform="matrix(0.5 -0.866 0.866 0.5 -174.7125 267.8503)" style="fill:#4B3F4E;" cx="144.612" cy="285.233" rx="80.158" ry="68.098"/>
</g>
<path style="fill:#5D5360;" d="M159.806,304.097L159.806,304.097c-13.282,0-24.048-10.767-24.048-24.048v-8.016
	c0-13.282,10.767-24.048,24.048-24.048l0,0c13.282,0,24.048,10.767,24.048,24.048v8.016
	C183.855,293.33,173.088,304.097,159.806,304.097z"/>
<path style="fill:#6F6571;" d="M159.806,247.984v28.056c0,6.641,5.383,12.024,12.024,12.024s12.024-5.383,12.024-12.024v-4.008
	C183.855,258.751,173.088,247.984,159.806,247.984z"/>
<circle style="fill:#FFFFFF;" cx="159.81" cy="264.02" r="8.02"/>
<path d="M512,95.677C512,42.92,469.08,0,416.323,0c-38.648,0-73.447,23.383-88.251,58.704C305.049,51.729,280.814,48.097,256,48.097
	s-49.049,3.632-72.071,10.608C169.125,23.383,134.325,0,95.677,0C42.92,0,0,42.92,0,95.677c0,31.755,15.929,61.482,41.994,79.196
	c-16.971,32.179-25.962,68.006-25.962,105.175c0,62.006,24.995,120.288,70.379,164.107C131.724,487.906,191.952,512,256,512
	s124.276-24.094,169.589-67.845c45.384-43.819,70.379-102.101,70.379-164.107c0-37.169-8.991-72.995-25.962-105.175
	C496.071,157.159,512,127.433,512,95.677z M416.323,15C460.808,15,497,51.192,497,95.677c0,26.384-13.044,51.106-34.455,66.119
	c-2.971-4.83-6.132-9.563-9.478-14.193c16.736-11.844,26.869-31.115,26.869-51.926c0-8.584-1.683-16.916-5.002-24.763
	c-1.615-3.815-6.014-5.601-9.83-3.986c-3.815,1.614-5.599,6.015-3.986,9.83c2.533,5.988,3.817,12.354,3.817,18.919
	c0,16.118-7.952,31.031-21.053,40.052c-5.672-6.871-11.764-13.483-18.293-19.787c-16.256-15.695-34.439-28.845-54.022-39.276
	c7.563-17.867,25.047-29.601,44.756-29.601c8.735,0,17.297,2.341,24.762,6.769c3.563,2.116,8.164,0.939,10.277-2.624
	c2.113-3.562,0.939-8.164-2.624-10.277c-9.779-5.802-20.988-8.869-32.415-8.869c-25.494,0-48.14,15.013-58.215,37.948
	c-5.178-2.356-10.44-4.532-15.779-6.519C355.045,34.273,384.099,15,416.323,15z M15,95.677C15,51.192,51.192,15,95.677,15
	c32.224,0,61.278,19.273,73.994,48.494c-5.339,1.987-10.601,4.163-15.779,6.519c-10.075-22.936-32.721-37.948-58.215-37.948
	c-35.076,0-63.613,28.537-63.613,63.613c0,20.811,10.133,40.082,26.869,51.926c-3.346,4.63-6.507,9.363-9.478,14.193
	C28.044,146.784,15,122.061,15,95.677z M68.118,135.729c-13.101-9.02-21.053-23.933-21.053-40.052
	c0-26.805,21.808-48.613,48.613-48.613c19.709,0,37.193,11.734,44.756,29.601c-19.583,10.431-37.766,23.581-54.022,39.276
	C79.882,122.246,73.789,128.858,68.118,135.729z M415.17,433.364C372.668,474.4,316.141,497,256,497s-116.668-22.6-159.17-63.636
	c-42.43-40.967-65.798-95.416-65.798-153.316S54.4,167.7,96.83,126.732C139.332,85.696,195.859,63.097,256,63.097
	s116.668,22.6,159.17,63.636c42.43,40.967,65.798,95.416,65.798,153.316S457.6,392.397,415.17,433.364z"/>
<path d="M159.807,255.484c4.142,0,7.5-3.358,7.5-7.5s-3.358-7.5-7.5-7.5c-17.396,0-31.548,14.152-31.548,31.548v8.016
	c0,17.396,14.152,31.548,31.548,31.548s31.548-14.152,31.548-31.548v-8.016c0-4.142-3.358-7.5-7.5-7.5s-7.5,3.358-7.5,7.5v8.016
	c0,9.125-7.423,16.548-16.548,16.548s-16.548-7.423-16.548-16.548v-8.016C143.258,262.907,150.682,255.484,159.807,255.484z"/>
<path d="M376.242,264.532c-4.142,0-7.5,3.358-7.5,7.5v8.016c0,9.125-7.423,16.548-16.548,16.548s-16.548-7.423-16.548-16.548v-8.016
	c0-9.125,7.423-16.548,16.548-16.548c4.142,0,7.5-3.358,7.5-7.5s-3.358-7.5-7.5-7.5c-17.396,0-31.548,14.152-31.548,31.548v8.016
	c0,17.396,14.152,31.548,31.548,31.548s31.548-14.152,31.548-31.548v-8.016C383.742,267.89,380.384,264.532,376.242,264.532z"/>
<path d="M210.077,323.042c11.595-20.082,15.839-42.867,11.951-64.159c-3.97-21.744-15.9-39.344-33.59-49.557
	c-17.691-10.214-38.896-11.746-59.713-4.312c-20.383,7.278-37.993,22.347-49.588,42.429c-10.257,17.766-14.839,38.154-12.903,57.408
	c0.415,4.122,4.103,7.123,8.213,6.712c4.121-0.415,7.126-4.091,6.712-8.213c-1.624-16.151,2.271-33.342,10.969-48.407
	c9.818-17.004,24.606-29.719,41.642-35.802c16.602-5.929,33.353-4.801,47.168,3.175s23.168,21.919,26.334,39.262
	c3.25,17.795-0.368,36.959-10.185,53.964c-20.032,34.698-59.871,49.334-88.811,32.627c-6.881-3.973-12.659-9.41-17.174-16.162
	c-2.303-3.443-6.96-4.367-10.404-2.065c-3.443,2.303-4.368,6.96-2.065,10.404c5.804,8.679,13.254,15.681,22.143,20.813
	c10.442,6.029,21.959,8.883,33.65,8.882C163.154,370.039,192.899,352.794,210.077,323.042z"/>
<path d="M383.276,205.015c-20.816-7.435-42.023-5.903-59.713,4.312c-17.69,10.213-29.62,27.813-33.591,49.557
	c-3.888,21.292,0.356,44.077,11.951,64.159c17.179,29.755,46.92,47,75.651,47c11.688,0,23.21-2.854,33.65-8.882
	c36.1-20.842,45.808-71.855,21.64-113.716C421.269,227.361,403.659,212.293,383.276,205.015z M403.724,348.169
	c-28.939,16.706-68.779,2.07-88.811-32.627c-9.817-17.004-13.435-36.169-10.185-53.964c3.167-17.342,12.519-31.286,26.334-39.262
	c7.976-4.605,16.928-6.927,26.268-6.927c6.837,0,13.884,1.246,20.901,3.751c17.036,6.083,31.824,18.798,41.642,35.802
	C439.906,289.642,432.662,331.462,403.724,348.169z"/>
<path d="M326.674,392.936c-4.062,0.813-6.696,4.764-5.884,8.826c0.012,0.058,0.954,6.012-3.607,10.896
	c-6.779,7.258-22.847,9.651-45.24,6.743c-2.806-0.364-5.623-0.625-8.444-0.796v-11.424c9.326-1.493,18.28-5.723,25.784-12.3
	c8.952-7.845,14.296-17.809,14.296-26.654c0-17.69-20.9-31.548-47.581-31.548s-47.581,13.858-47.581,31.548
	c0,8.845,5.344,18.809,14.296,26.654c7.505,6.576,16.458,10.807,25.784,12.3v11.424c-2.821,0.171-5.638,0.432-8.444,0.796
	c-22.393,2.909-38.461,0.516-45.24-6.743c-4.561-4.883-3.619-10.838-3.607-10.896c0.812-4.062-1.822-8.013-5.884-8.826
	c-4.062-0.81-8.013,1.823-8.825,5.883c-0.991,4.957-0.558,15.606,7.354,24.077c1.516,1.623,3.246,3.073,5.143,4.386
	c1.997,29.313,31.282,52.653,67.003,52.653s65.006-23.34,67.003-52.653c1.896-1.313,3.627-2.763,5.143-4.386
	c7.912-8.471,8.345-19.12,7.354-24.077C334.687,394.759,330.736,392.126,326.674,392.936z M223.419,368.226
	c0-9.471,17.201-16.548,32.581-16.548s32.581,7.077,32.581,16.548c0,8.409-13.758,24.565-32.581,24.565
	S223.419,376.635,223.419,368.226z M256,464.936c-24.398,0-44.925-13.208-50.573-30.978c9.872,2.078,22.071,2.2,36.562,0.318
	c4.648-0.604,9.33-0.906,14.011-0.906s9.363,0.302,14.011,0.906c14.491,1.882,26.69,1.761,36.562-0.318
	C300.925,451.727,280.398,464.936,256,464.936z"/>
<g>
</g>
<g>
</g>
<g>
</g>
<g>
</g>
<g>
</g>
<g>
</g>
<g>
</g>
<g>
</g>
<g>
</g>
<g>
</g>
<g>
</g>
<g>
</g>
<g>
</g>
<g>
</g>
<g>
</g>
</svg>
