<?xml version="1.0" encoding="iso-8859-1"?>
<!-- Generator: Adobe Illustrator 21.0.0, SVG Export Plug-In . SVG Version: 6.00 Build 0)  -->
<svg version="1.1" id="Capa_1" xmlns="http://www.w3.org/2000/svg" xmlns:xlink="http://www.w3.org/1999/xlink" x="0px" y="0px"
	 viewBox="0 0 512 512" style="enable-background:new 0 0 512 512;" xml:space="preserve">
<path style="fill:#FF533E;" d="M256,7.5c-10.059,0-18.574,6.602-21.455,15.709c-8.476-4.401-19.163-3.051-26.275,4.062
	c-8.787,8.787-8.787,23.033,0,31.82l31.82,31.82H256l17.73-31.82L256,7.5z"/>
<path style="fill:#FF2E23;" d="M303.73,27.27c-7.112-7.112-17.8-8.463-26.275-4.062C274.574,14.102,266.059,7.5,256,7.5v13.257
	V90.91h15.91l31.82-31.82C312.517,50.303,312.517,36.057,303.73,27.27z"/>
<path style="fill:#FF9D73;" d="M366,306.5h-50l52,198h50v-146C418,329.781,394.719,306.5,366,306.5z"/>
<path style="fill:#FFC28E;" d="M316,306.5H146c-28.719,0-52,23.281-52,52v146h50l224-56v-90C368,329.781,344.719,306.5,316,306.5z"
	/>
<path style="fill:#DE2318;" d="M308,384.5c-5.175,0-10.192,0.663-14.981,1.896L338,504.5h30v-60
	C368,411.363,341.137,384.5,308,384.5z"/>
<path style="fill:#FF2E23;" d="M293.019,386.396c-15.792,4.064-29.066,14.394-37.019,28.186c-10.364-17.974-29.762-30.082-52-30.082
	c-33.137,0-60,26.863-60,60v60h194v-60C338,416.549,318.887,393.063,293.019,386.396z"/>
<circle style="fill:#2D2D2D;" cx="357" cy="220.5" r="56"/>
<path style="fill:#FFC28E;" d="M154,135.672c-16.569,0-30,13.432-30,30c0,16.569,13.431,30,30,30h97v-60H154z"/>
<g>
	<path style="fill:#FF9D73;" d="M358,135.672h-97v60h97c16.569,0,30-13.431,30-30C388,149.104,374.569,135.672,358,135.672z"/>
	<path style="fill:#FF9D73;" d="M317.819,74.75H256V276.5c53.572,0,97-43.428,97-97v-30C353,119.422,339.309,92.542,317.819,74.75z"
		/>
</g>
<path style="fill:#FFC28E;" d="M305.172,83.623L194.181,74.75C172.691,92.542,159,119.422,159,149.5v30c0,53.572,43.428,97,97,97
	c37.003,0,67-43.428,67-97v-30C323,124.066,316.235,100.922,305.172,83.623z"/>
<path style="fill:#2D2D2D;" d="M256,52.5l49.172,31.123c4.455-2.625,8.685-5.592,12.647-8.873C301.035,60.853,279.493,52.5,256,52.5
	z"/>
<path style="fill:#424242;" d="M256,52.5c-23.493,0-45.035,8.353-61.819,22.25C210.965,88.647,232.507,97,256,97
	c17.948,0,34.753-4.88,49.172-13.377C292.934,64.485,275.435,52.5,256,52.5z"/>
<path style="fill:#FF533E;" d="M256,214c-12.128,0-23.005-7.677-27.066-19.103c-1.388-3.903,0.651-8.192,4.554-9.579
	c3.903-1.391,8.192,0.65,9.579,4.554c1.941,5.46,7.139,9.128,12.934,9.128s10.992-3.668,12.934-9.128
	c1.387-3.902,5.675-5.945,9.579-4.554c3.902,1.387,5.941,5.676,4.554,9.579C279.005,206.323,268.128,214,256,214z"/>
<path style="fill:#FF2E23;" d="M215,63.5c0-7.944-4.121-14.921-10.338-18.925c1.558-7.222-0.452-15.06-6.064-20.673
	c-5.613-5.613-13.451-7.623-20.673-6.065C173.921,11.621,166.944,7.5,159,7.5s-14.921,4.121-18.925,10.337
	c-7.222-1.558-15.06,0.452-20.673,6.065c-5.613,5.613-7.623,13.45-6.064,20.673C107.121,48.579,103,55.556,103,63.5
	s4.121,14.921,10.338,18.925c-1.558,7.222,0.452,15.06,6.064,20.673c5.613,5.613,13.451,7.623,20.673,6.064
	c4.004,6.217,10.981,10.337,18.925,10.337s14.921-4.121,18.925-10.337c7.222,1.558,15.06-0.452,20.673-6.064
	c5.613-5.613,7.623-13.451,6.064-20.673C210.879,78.421,215,71.444,215,63.5z"/>
<circle style="fill:#FFB833;" cx="159" cy="63.5" r="15"/>
<circle style="fill:#FF9D73;" cx="196" cy="182" r="16"/>
<path style="fill:#FF7859;" d="M323,167.629L312.144,182l9.786,14.852C327.828,194.495,332,188.74,332,182
	C332,175.677,328.323,170.228,323,167.629z"/>
<path style="fill:#FF9D73;" d="M323,167.629c-2.117-1.033-4.486-1.629-7-1.629c-8.837,0-16,7.164-16,16s7.163,16,16,16
	c2.097,0,4.094-0.415,5.93-1.148c0.702-5.63,1.07-11.429,1.07-17.352V167.629z"/>
<path d="M233.5,156.5v-7c0-4.143-3.357-7.5-7.5-7.5h-20c-4.143,0-7.5,3.357-7.5,7.5s3.357,7.5,7.5,7.5h12.517
	c0.257,3.909,3.51,7,7.483,7C230.143,164,233.5,160.643,233.5,156.5z"/>
<path d="M306,142h-20c-4.143,0-7.5,3.357-7.5,7.5v7c0,4.143,3.357,7.5,7.5,7.5c3.974,0,7.227-3.091,7.483-7H306
	c4.143,0,7.5-3.357,7.5-7.5S310.143,142,306,142z"/>
<path d="M366,299H146c-32.809,0-59.5,26.691-59.5,59.5v146c0,4.143,3.357,7.5,7.5,7.5h324c4.143,0,7.5-3.357,7.5-7.5v-146
	C425.5,325.691,398.809,299,366,299z M151.5,444.5c0-28.948,23.552-52.5,52.5-52.5c18.703,0,36.139,10.089,45.503,26.328
	c1.339,2.323,3.816,3.754,6.497,3.754c2.681,0,5.158-1.431,6.497-3.754C271.861,402.089,289.297,392,308,392
	c28.948,0,52.5,23.552,52.5,52.5V497h-209V444.5z M410.5,497h-35V384.5c0-4.143-3.357-7.5-7.5-7.5s-7.5,3.357-7.5,7.5v17.639
	C348.116,386.82,329.187,377,308,377c-20.222,0-39.289,9.168-52,24.494C243.289,386.168,224.222,377,204,377
	c-21.187,0-40.116,9.82-52.5,25.139V384.5c0-4.143-3.357-7.5-7.5-7.5s-7.5,3.357-7.5,7.5V497h-35V358.5
	c0-24.537,19.963-44.5,44.5-44.5h220c24.537,0,44.5,19.963,44.5,44.5V497z"/>
<circle cx="174" cy="444.5" r="7.5"/>
<circle cx="228.67" cy="444.5" r="7.5"/>
<circle cx="283.33" cy="444.5" r="7.5"/>
<circle cx="338" cy="444.5" r="7.5"/>
<circle cx="201.33" cy="474.5" r="7.5"/>
<circle cx="256" cy="474.5" r="7.5"/>
<circle cx="310.67" cy="474.5" r="7.5"/>
<circle cx="201.33" cy="414.5" r="7.5"/>
<circle cx="310.67" cy="414.5" r="7.5"/>
<path d="M105.359,85.732c-0.424,8.4,2.683,16.612,8.739,22.668c5.655,5.656,13.182,8.771,21.191,8.771
	c0.491,0,0.982-0.012,1.474-0.036c4.538,5.027,10.613,8.345,17.283,9.453c-0.119,0.53-0.245,1.059-0.355,1.591
	c-20.536,0.167-37.191,16.918-37.191,37.492c0,20.678,16.822,37.5,37.5,37.5h0.205C164.959,249.429,206.518,284,256,284
	c21.222,0,40.982-6.365,57.484-17.277C325.214,277.773,340.73,284,357,284c35.014,0,63.5-28.486,63.5-63.5
	c0-20.096-9.349-38.675-25.238-50.657c0.152-1.37,0.238-2.76,0.238-4.171c0-20.573-16.655-37.324-37.189-37.492
	c-4.852-23.316-17.5-43.803-35.082-58.614c-0.417-0.435-0.872-0.815-1.361-1.128c-3.201-2.606-6.557-5.027-10.055-7.245
	c3.896-5.168,6.008-11.427,6.008-18.012c0-8.014-3.121-15.547-8.787-21.213c-7.413-7.411-17.864-10.296-27.713-8.09
	C275.919,5.354,266.484,0,256,0c-10.924,0-20.707,5.811-25.977,14.963c-2.172,0.644-4.027,2.259-4.891,4.541
	c-1.465,3.874,0.488,8.202,4.363,9.668c0.639,0.241,1.158,0.468,1.589,0.691c1.964,1.021,4.281,1.121,6.328,0.275
	c2.047-0.847,3.614-2.556,4.282-4.668C243.677,19.208,249.425,15,256,15c6.575,0,12.323,4.208,14.305,10.471
	c0.668,2.111,2.234,3.82,4.28,4.667c2.046,0.848,4.361,0.747,6.327-0.272c5.827-3.027,12.867-1.938,17.515,2.709
	c2.833,2.833,4.394,6.6,4.394,10.605c0,4.007-1.561,7.773-4.395,10.606l-0.155,0.155C285.339,48.198,271.037,45,256,45
	c-12.451,0-24.537,2.148-36.043,6.39c-1.685-3.823-4.165-7.275-7.317-10.122c0.423-8.399-2.683-16.611-8.739-22.668
	c-6.002-6.003-14.162-9.163-22.665-8.735C175.596,3.616,167.583,0,159,0s-16.596,3.616-22.236,9.864
	c-8.505-0.434-16.663,2.732-22.665,8.734c-6.057,6.058-9.162,14.27-8.739,22.669c-6.246,5.64-9.86,13.652-9.86,22.233
	S99.114,80.093,105.359,85.732z M405.5,220.5c0,26.743-21.757,48.5-48.5,48.5c-11.61,0-22.716-4.158-31.435-11.592
	c15.786-14.111,27.277-32.932,32.23-54.236H358c13.588,0,25.511-7.265,32.089-18.115C399.859,194.147,405.5,206.866,405.5,220.5z
	 M345.5,149.5c0,4.143,3.357,7.5,7.5,7.5s7.5-3.357,7.5-7.5c0-2.085-0.069-4.155-0.19-6.21c11.325,1.16,20.19,10.755,20.19,22.382
	c0,11.682-8.95,21.31-20.353,22.395c0.23-2.826,0.353-5.682,0.353-8.567c0-4.143-3.357-7.5-7.5-7.5s-7.5,3.357-7.5,7.5
	c0,49.351-40.149,89.5-89.5,89.5s-89.5-40.149-89.5-89.5c0-4.143-3.357-7.5-7.5-7.5s-7.5,3.357-7.5,7.5
	c0,2.885,0.123,5.741,0.353,8.567c-11.403-1.085-20.353-10.713-20.353-22.395c0-11.631,8.872-21.229,20.203-22.384
	c-0.121,2.064-0.203,4.134-0.203,6.212c0,4.143,3.357,7.5,7.5,7.5s7.5-3.357,7.5-7.5c0-8.352,1.151-16.591,3.417-24.548
	c4.301-1.677,8.179-4.337,11.32-7.816c0.491,0.024,0.982,0.036,1.474,0.036c8.01,0,15.536-3.115,21.19-8.771
	c3.872-3.872,6.532-8.626,7.841-13.745c13.793,6.458,28.877,9.844,44.259,9.844c22.101,0,43.672-7.077,61.453-20.006
	C334.713,100.82,345.5,123.923,345.5,149.5z M305.174,74.758C290.648,84.306,273.52,89.5,256,89.5
	c-13.533,0-26.799-3.05-38.867-8.876c2.88-4.133,4.693-8.956,5.21-14.073C233.021,62.204,244.321,60,256,60
	C274.15,60,291.052,65.436,305.174,74.758z M117.398,50.881c2.627-1.691,3.93-4.834,3.271-7.888
	c-1.084-5.022,0.426-10.176,4.037-13.788c2.822-2.823,6.581-4.377,10.584-4.377c1.075,0,2.153,0.114,3.203,0.341
	c3.055,0.663,6.196-0.644,7.888-3.271C149.163,17.579,153.88,15,159,15s9.837,2.579,12.619,6.898
	c1.691,2.627,4.838,3.933,7.888,3.271c1.05-0.227,2.128-0.341,3.203-0.341c4.003,0,7.762,1.554,10.584,4.378
	c3.611,3.611,5.121,8.765,4.037,13.787c-0.659,3.054,0.644,6.196,3.271,7.888c4.319,2.781,6.898,7.499,6.898,12.619
	s-2.579,9.838-6.898,12.619c-0.283,0.193-0.529,0.375-0.762,0.578c-2.104,1.771-3.099,4.571-2.508,7.309
	c1.084,5.022-0.425,10.177-4.037,13.788c-2.822,2.823-6.581,4.378-10.584,4.377c-1.075,0-2.153-0.114-3.203-0.341
	c-3.055-0.661-6.196,0.644-7.888,3.271c-2.783,4.32-7.5,6.899-12.62,6.899s-9.837-2.579-12.619-6.898
	c-1.399-2.173-3.791-3.439-6.305-3.439c-0.525,0-1.056,0.055-1.583,0.169c-1.05,0.227-2.128,0.341-3.203,0.341
	c-4.003,0-7.762-1.554-10.585-4.378c-3.611-3.61-5.12-8.765-4.036-13.787c0.659-3.054-0.644-6.196-3.271-7.888
	c-4.319-2.781-6.898-7.499-6.898-12.619S113.079,53.662,117.398,50.881z"/>
<path d="M159,86c12.406,0,22.5-10.094,22.5-22.5S171.406,41,159,41s-22.5,10.094-22.5,22.5S146.594,86,159,86z M159,56
	c4.136,0,7.5,3.364,7.5,7.5S163.136,71,159,71s-7.5-3.364-7.5-7.5S154.864,56,159,56z"/>
<g>
</g>
<g>
</g>
<g>
</g>
<g>
</g>
<g>
</g>
<g>
</g>
<g>
</g>
<g>
</g>
<g>
</g>
<g>
</g>
<g>
</g>
<g>
</g>
<g>
</g>
<g>
</g>
<g>
</g>
</svg>
