<?xml version="1.0" encoding="iso-8859-1"?>
<!-- Generator: Adobe Illustrator 19.0.0, SVG Export Plug-In . SVG Version: 6.00 Build 0)  -->
<svg xmlns="http://www.w3.org/2000/svg" xmlns:xlink="http://www.w3.org/1999/xlink" version="1.1" id="Layer_1" x="0px" y="0px" viewBox="0 0 511.964 511.964" style="enable-background:new 0 0 511.964 511.964;" xml:space="preserve" width="512" height="512">
<g>
	<g>
		<g>
			<path style="fill:#EF8229;" d="M483.72,296.654c7.418-6.388,13.406-14.59,17.102-24.391c9.877-26.195-0.782-55.874-25.395-70.807     c-8.05-4.884-16.698-7.76-25.397-8.889c0.167-17.038-9.712-33.474-26.817-41.451c-23.715-11.059-52.33-1.672-63.915,20.967     l-1.447,154.018c-0.129,13.758,3.165,27.418,10.084,39.488c5.749,10.03,14.642,20.301,28.312,26.676     c34.175,15.938,75.414,2.41,92.108-30.216C499.505,340.259,496.871,315.47,483.72,296.654z"/>
		</g>
		<g>
			<path style="fill:#FF9C43;" d="M28.244,296.654c-7.418-6.388-13.406-14.59-17.102-24.391     c-9.877-26.195,0.782-55.874,25.395-70.807c8.05-4.884,16.698-7.76,25.397-8.889c-0.167-17.038,9.712-33.474,26.817-41.451     c23.715-11.059,52.33-1.672,63.915,20.967l1.447,154.018c0.129,13.758-3.165,27.418-10.084,39.488     c-5.749,10.03-14.642,20.301-28.312,26.676c-34.175,15.938-75.414,2.41-92.108-30.216     C12.459,340.259,15.094,315.47,28.244,296.654z"/>
		</g>
	</g>
	<g>
		<path style="fill:#EFD0AF;" d="M117.624,231.266c-8.728-0.266-47.721-0.222-47.721,21.76c0,35.758,1.027,62.389,40.11,62.057    c2.89-0.025,5.406-0.474,7.611-1.266V231.266z"/>
		<path style="fill:#FAE0C1;" d="M394.31,231.267v82.54c2.212,0.798,4.739,1.252,7.641,1.277c39.083,0.332,40.11-26.3,40.11-62.057    C442.062,231.019,402.979,231,394.31,231.267z"/>
	</g>
	<g>
		<g>
			<g>
				<g>
					<g>
						<g>
							<g>
								<path style="fill:#FAE0C1;" d="M255.982,499.505L255.982,499.505c-82.288,0-148.995-66.707-148.995-148.994V220.668          c0-49.343,40.001-89.344,89.344-89.344h119.301c49.343,0,89.344,40.001,89.344,89.344v129.843          C404.976,432.798,338.269,499.505,255.982,499.505z"/>
							</g>
							<path style="fill:#EFD0AF;" d="M353.332,139.651v210.86c0,73.48-53.193,134.53-123.172,146.759         c8.388,1.466,17.015,2.236,25.822,2.236h0c82.287,0,148.994-66.707,148.994-148.994V220.668         C404.976,184.797,383.833,153.869,353.332,139.651z"/>
							<path style="fill:#F43B45;" d="M384.779,160.121H127.185v-57.944c0-49.55,40.168-89.718,89.718-89.718h78.158         c49.55,0,89.718,40.168,89.718,89.718V160.121z"/>
							<path style="fill:#D82B2B;" d="M295.061,12.459H270.46c34.079,0,61.705,27.626,61.705,61.705v85.957h52.614v-57.944         C384.779,52.627,344.611,12.459,295.061,12.459z"/>
							<g>
								<path style="fill:#D82B2B;" d="M406.729,185.591c-100.204-17.858-201.293-17.857-301.494,0          c-12.577,2.241-24.657-5.939-27.329-18.432c-0.033-0.157-0.067-0.313-0.1-0.47c-2.816-13.169,5.871-26.014,19.13-28.375          c105.656-18.818,212.436-18.818,318.093,0c13.259,2.361,21.946,15.206,19.13,28.375c-0.033,0.156-0.067,0.313-0.1,0.469          C431.386,179.652,419.307,187.832,406.729,185.591z"/>
							</g>
						</g>
					</g>
					<g>
						<path style="fill:#FFF4E9;" d="M255.982,464.501c-34.744,0-67.66-15.443-92.685-43.483        c-10.571-11.846-9.538-30.018,2.307-40.589c11.846-10.572,30.017-9.539,40.589,2.307        c13.968,15.652,31.65,24.272,49.789,24.272s35.821-8.62,49.789-24.272c10.571-11.844,28.743-12.879,40.589-2.307        c11.845,10.571,12.878,28.743,2.307,40.589C323.642,449.058,290.726,464.501,255.982,464.501z"/>
					</g>
				</g>
				<circle style="fill:#F43B45;" cx="255.982" cy="343.305" r="29.823"/>
			</g>
		</g>
		<g>
			<circle style="fill:#FFF4E9;" cx="179.799" cy="265.387" r="50.028"/>
			<circle style="fill:#FFF4E9;" cx="332.165" cy="265.387" r="50.028"/>
		</g>
	</g>
	<g>
		<path d="M316.336,400.861c-17.701,17.307-38.571,26.455-60.354,26.455c-21.783,0-42.652-9.148-60.354-26.455    c-2.96-2.896-7.709-2.843-10.606,0.119c-2.896,2.962-2.842,7.71,0.12,10.605c20.561,20.104,45.057,30.73,70.84,30.73    c25.783,0,50.279-10.626,70.84-30.73c2.962-2.896,3.016-7.644,0.119-10.605C324.047,398.018,319.299,397.965,316.336,400.861z"/>
		<path d="M192.043,262.897c0,4.143,3.358,7.5,7.5,7.5s7.5-3.357,7.5-7.5c0-15.021-12.221-27.243-27.243-27.243    s-27.243,12.222-27.243,27.243c0,4.143,3.358,7.5,7.5,7.5s7.5-3.357,7.5-7.5c0-6.751,5.492-12.243,12.243-12.243    S192.043,256.146,192.043,262.897z"/>
		<path d="M332.165,235.654c-15.021,0-27.243,12.222-27.243,27.243c0,4.143,3.357,7.5,7.5,7.5s7.5-3.357,7.5-7.5    c0-6.751,5.492-12.243,12.243-12.243s12.243,5.492,12.243,12.243c0,4.143,3.357,7.5,7.5,7.5s7.5-3.357,7.5-7.5    C359.408,247.876,347.186,235.654,332.165,235.654z"/>
		<path d="M78.337,391.038c-20.905-2.345-38.867-14.459-48.05-32.404c-9.44-18.449-7.867-40.553,4.105-57.683    c2.205-3.155,1.664-7.468-1.253-9.979c-6.808-5.863-11.847-13.048-14.979-21.355c-8.577-22.747,0.788-48.716,22.268-61.748    c4.064-2.466,8.418-4.419,12.942-5.805c3.96-1.214,6.187-5.408,4.974-9.368c-1.213-3.961-5.407-6.189-9.368-4.974    c-5.709,1.75-11.203,4.213-16.328,7.322c-27.65,16.775-39.646,50.363-28.523,79.864c3.26,8.647,8.121,16.343,14.485,22.949    c-11.904,20.789-12.662,46.14-1.677,67.608c11.482,22.439,33.812,37.571,59.732,40.479c0.284,0.032,0.566,0.048,0.845,0.048    c3.768,0,7.014-2.833,7.444-6.665C85.416,395.211,82.453,391.5,78.337,391.038z"/>
		<path d="M479.317,195.044c-5.126-3.109-10.621-5.573-16.334-7.323c-3.957-1.215-8.154,1.014-9.367,4.975    c-1.213,3.96,1.014,8.154,4.975,9.367c4.526,1.387,8.882,3.34,12.946,5.806c21.479,13.032,30.845,39.001,22.268,61.749    c-3.132,8.306-8.171,15.491-14.979,21.354c-2.917,2.512-3.458,6.824-1.253,9.979c11.973,17.131,13.545,39.233,4.104,57.684    c-9.149,17.881-27.041,29.986-47.861,32.382c-4.115,0.474-7.067,4.193-6.594,8.309c0.44,3.824,3.684,6.644,7.441,6.644    c0.286,0,0.576-0.017,0.867-0.05c25.816-2.972,48.06-18.094,59.5-40.452c10.985-21.469,10.228-46.819-1.676-67.608    c6.364-6.607,11.225-14.302,14.484-22.948C518.964,245.407,506.967,211.819,479.317,195.044z"/>
		<path d="M449.561,253.026c0-9.244-5.016-24.642-37.085-28.46v-3.898c0-9.351-1.306-18.486-3.893-27.291    c0.802,0.061,1.6,0.092,2.394,0.092c14.469,0,27.271-10.041,30.409-24.717l0.105-0.494c1.787-8.357,0.146-16.866-4.624-23.959    c-4.783-7.115-12.073-11.863-20.524-13.368c-8.013-1.427-16.035-2.746-24.064-3.958v-24.795c0-53.606-43.611-97.218-97.218-97.218    h-78.158c-53.606,0-97.218,43.611-97.218,97.218v24.796c-8.029,1.212-16.051,2.531-24.064,3.958    c-8.452,1.505-15.741,6.253-20.525,13.368c-4.769,7.093-6.411,15.602-4.625,23.949l0.102,0.479    c3.316,15.504,17.376,25.824,32.809,24.649c-2.588,8.806-3.894,17.941-3.894,27.292v3.898    c-32.068,3.816-37.085,19.216-37.085,28.461c0,30.117,0,64.02,37.085,68.942v28.544c0,86.291,70.203,156.494,156.495,156.494    c86.291,0,156.494-70.203,156.494-156.494v-28.544C449.561,317.046,449.561,283.144,449.561,253.026z M434.561,253.026    c0,34.883-2.063,50.382-22.085,53.804v-67.157C432.232,242.362,434.561,249.719,434.561,253.026z M134.685,102.176    c0-45.335,36.883-82.218,82.218-82.218h78.158c45.335,0,82.218,36.883,82.218,82.218v22.657    c-80.649-10.821-161.944-10.821-242.594,0V102.176z M85.242,165.6l-0.102-0.479c-0.929-4.344-0.075-8.767,2.404-12.453    c2.494-3.709,6.296-6.185,10.707-6.97c104.662-18.641,210.799-18.641,315.462,0c4.411,0.785,8.214,3.261,10.708,6.97    c2.479,3.687,3.332,8.109,2.401,12.463l-0.099,0.46c-1.842,8.612-10.048,14.154-18.679,12.616    c-100.9-17.98-203.222-17.98-304.125,0C95.289,179.749,87.083,174.204,85.242,165.6z M77.403,253.026    c0-8.506,12.271-11.938,22.085-13.322v67.127C79.466,303.408,77.403,287.91,77.403,253.026z M397.476,350.511    c0,78.021-63.474,141.494-141.494,141.494s-141.495-63.474-141.495-141.494V220.668c0-10.396,1.907-20.47,5.673-30.006    c90.199-14.586,181.445-14.586,271.643,0c3.766,9.534,5.673,19.609,5.673,30.006V350.511z"/>
		<path d="M351.354,374.833c-7.224-6.447-16.535-9.696-26.192-9.146c-9.666,0.55-18.539,4.83-24.986,12.054    c-12.526,14.036-28.222,21.767-44.193,21.767c-15.973,0-31.667-7.73-44.193-21.767c-6.447-7.224-15.321-11.505-24.987-12.054    c-9.672-0.551-18.969,2.698-26.192,9.146c-14.911,13.308-16.215,36.267-2.908,51.179c26.467,29.656,61.371,45.989,98.281,45.989    c36.91,0,71.813-16.333,98.28-45.989c6.446-7.225,9.694-16.525,9.146-26.192C362.858,390.153,358.578,381.279,351.354,374.833z     M343.071,416.023c-23.582,26.425-54.511,40.978-87.089,40.978c-32.578,0-63.506-14.553-87.089-40.977    c-7.8-8.741-7.036-22.199,1.705-30c3.926-3.504,8.9-5.396,14.12-5.396c0.41,0,0.821,0.012,1.233,0.035    c5.666,0.322,10.868,2.832,14.647,7.066c15.411,17.269,35.08,26.778,55.385,26.778s39.974-9.51,55.385-26.778    c3.779-4.234,8.98-6.744,14.646-7.065c5.676-0.332,11.118,1.581,15.353,5.36C350.107,393.825,350.872,407.282,343.071,416.023z"/>
		<path d="M237.327,265.386c0-31.721-25.807-57.527-57.528-57.527s-57.528,25.807-57.528,57.527    c0,31.722,25.807,57.528,57.528,57.528S237.327,297.108,237.327,265.386z M137.272,265.386c0-23.449,19.078-42.527,42.528-42.527    s42.528,19.078,42.528,42.527c0,23.45-19.078,42.528-42.528,42.528S137.272,288.837,137.272,265.386z"/>
		<path d="M332.165,207.859c-31.722,0-57.528,25.807-57.528,57.527c0,31.722,25.807,57.528,57.528,57.528    s57.528-25.807,57.528-57.528C389.693,233.666,363.886,207.859,332.165,207.859z M332.165,307.915    c-23.45,0-42.528-19.078-42.528-42.528c0-23.449,19.078-42.527,42.528-42.527s42.528,19.078,42.528,42.527    C374.693,288.837,355.615,307.915,332.165,307.915z"/>
		<path d="M218.659,343.305c0,20.58,16.743,37.323,37.323,37.323s37.323-16.743,37.323-37.323s-16.743-37.323-37.323-37.323    S218.659,322.725,218.659,343.305z M255.982,320.982c12.309,0,22.323,10.015,22.323,22.323s-10.015,22.323-22.323,22.323    c-12.309,0-22.323-10.015-22.323-22.323S243.673,320.982,255.982,320.982z"/>
	</g>
</g>















</svg>
