<?xml version="1.0" encoding="iso-8859-1"?>
<!-- Generator: Adobe Illustrator 19.0.0, SVG Export Plug-In . SVG Version: 6.00 Build 0)  -->
<svg version="1.1" id="Capa_1" xmlns="http://www.w3.org/2000/svg" xmlns:xlink="http://www.w3.org/1999/xlink" x="0px" y="0px"
	 viewBox="0 0 512 512" style="enable-background:new 0 0 512 512;" xml:space="preserve">
<path style="fill:#E3AA75;" d="M413.861,374.103l-84.486-24.849c-10.235-3.01-17.263-12.403-17.263-23.071v-38.119H199.886v38.119
	c0,10.668-7.028,20.061-17.263,23.071l-84.486,24.849c-20.469,6.02-34.525,24.806-34.525,46.142V504.5h384.774v-84.254
	C448.386,398.91,434.33,380.124,413.861,374.103z"/>
<path style="fill:#A5CDFF;" d="M413.861,374.103l-80.876-23.787c-9.626,33.475-40.415,57.99-76.986,57.99
	s-67.36-24.516-76.986-57.99l-80.876,23.787c-20.469,6.02-34.525,24.806-34.525,46.142V504.5h384.774v-84.254
	C448.386,398.909,434.33,380.124,413.861,374.103z"/>
<path style="fill:#D29B6E;" d="M199.886,321.984c16.841,8.996,35.939,14.176,56.113,14.176s39.272-5.18,56.113-14.176v-25.905
	H199.886V321.984z"/>
<path style="fill:#F5B97D;" d="M372.233,175.839h-12.024v-40.081h-208.42v40.081h-12.024c-11.068,0-20.04,8.972-20.04,20.04
	c0,11.068,8.972,20.04,20.04,20.04h12.429c4.106,53.795,48.958,96.194,103.805,96.194s99.699-42.398,103.805-96.194h12.429
	c11.068,0,20.04-8.973,20.04-20.04C392.273,184.811,383.301,175.839,372.233,175.839z"/>
<path style="fill:#E3AA75;" d="M151.789,135.757v40.081h-10.881c-10.483,0-20.035,7.542-21.079,17.973
	c-1.201,11.996,8.186,22.108,19.936,22.108h12.429c4.106,53.795,48.957,96.194,103.805,96.194v-8.13
	c-37.632-15.708-64.129-52.751-64.129-96.08l0,0c0-22.136,17.945-40.081,40.081-40.081h72.145c13.282,0,24.048-10.767,24.048-24.048
	v-8.016L151.789,135.757L151.789,135.757z"/>
<path style="fill:#FFE17D;" d="M246.984,13.63L77.132,129.128c-6.527,4.438-3.386,14.645,4.508,14.645h348.718
	c7.893,0,11.035-10.206,4.508-14.645L265.014,13.63C259.573,9.931,252.425,9.931,246.984,13.63z"/>
<path style="fill:#FFD164;" d="M185.441,128.759l75.601-117.031c-4.663-1.55-9.86-0.953-14.058,1.901L77.132,129.128
	c-6.527,4.439-3.386,14.645,4.508,14.645h105.831C183.916,143.773,182.501,133.309,185.441,128.759z"/>
<g>
	<path style="fill:#5A4650;" d="M146.791,178.498l-11.033,1.395v-36.12h32.065v10.866
		C167.822,166.755,158.81,176.977,146.791,178.498z"/>
	<path style="fill:#5A4650;" d="M365.207,178.498l11.034,1.395v-36.12h-32.065v10.866
		C344.176,166.755,353.188,176.977,365.207,178.498z"/>
</g>
<path style="fill:#E3AA75;" d="M272.031,272.032h-32.065c-8.854,0-16.032-7.178-16.032-16.032v-24.048h64.129v24.048
	C288.064,264.854,280.886,272.032,272.031,272.032z"/>
<path style="fill:#8CB4EB;" d="M255.999,440.371c51.136,0,94.202-34.235,107.735-81.011l-30.749-9.044
	c-9.626,33.475-40.414,57.99-76.986,57.99s-67.36-24.516-76.986-57.99l-30.749,9.044
	C161.797,406.135,204.863,440.371,255.999,440.371z"/>
<g>
	<path style="fill:#5A4650;" d="M255.999,231.951h-24.048c-13.282,0-24.048,10.767-24.048,24.048l0,0h24.048
		C245.232,255.999,255.999,245.232,255.999,231.951L255.999,231.951"/>
	<path style="fill:#5A4650;" d="M255.999,231.951h24.048c13.282,0,24.048,10.767,24.048,24.048l0,0h-24.048
		C266.766,255.999,255.999,245.232,255.999,231.951L255.999,231.951"/>
</g>
<path d="M460.62,137.572L260.217,1.298c-2.547-1.73-5.889-1.73-8.436,0L51.378,137.572c-2.722,1.852-3.919,5.262-2.95,8.408
	s3.876,5.294,7.168,5.294h72.661v19.931c-8.63,4.115-14.929,12.266-15.891,21.858c-0.778,7.771,1.763,15.53,6.973,21.288
	c5.214,5.763,12.659,9.067,20.427,9.067h5.598c4.398,31.522,22.003,58.87,47.022,76.264v26.5c0,7.29-4.885,13.818-11.879,15.876
	l-78.731,23.156c-26.886,7.907-45.663,33.003-45.663,61.028V504.5c0,4.143,3.357,7.5,7.5,7.5s7.5-3.357,7.5-7.5v-78.256
	c0-21.417,14.35-40.595,34.896-46.638l37.287-10.967c7.959,22.206,22.146,41.349,41.246,55.577
	c18.763,13.977,40.741,21.979,63.958,23.402V504.5c0,4.143,3.357,7.5,7.5,7.5c4.143,0,7.5-3.357,7.5-7.5v-56.882
	c23.468-1.436,45.646-9.587,64.533-23.833c18.55-13.992,32.805-33.411,40.646-55.153l37.312,10.974
	c20.546,6.043,34.896,25.221,34.896,46.638V504.5c0,4.143,3.357,7.5,7.5,7.5s7.5-3.357,7.5-7.5v-78.256
	c0-28.025-18.777-53.121-45.663-61.028l-78.731-23.156c-6.994-2.058-11.879-8.586-11.879-15.876v-26.511
	c25.013-17.396,42.617-44.741,47.019-76.253h4.458c0.002,0,0.001,0,0.003,0c14.615,0,27.152-10.861,28.54-24.727
	c0.778-7.771-1.764-15.529-6.974-21.287c-2.521-2.786-5.568-4.992-8.917-6.533v-19.598h72.661c3.292,0,6.199-2.147,7.168-5.294
	S463.342,139.423,460.62,137.572z M160.321,151.273v8.532c0,4.705-3.827,8.532-8.532,8.532h-8.532v-17.064H160.321z M323.51,355.052
	c-3.554,8.889-8.881,17.082-15.623,23.958c-2.899,2.958-2.853,7.706,0.104,10.606c1.46,1.431,3.355,2.145,5.251,2.145
	c1.943,0,3.887-0.751,5.355-2.249c8.392-8.56,14.963-18.817,19.247-29.948l16.412,4.827c-6.919,18.679-19.26,35.352-35.258,47.418
	c-18.267,13.778-40.052,21.062-63.001,21.062c-22.722,0-44.333-7.152-62.497-20.684c-16.226-12.088-28.783-28.924-35.77-47.794
	l16.427-4.831c5.904,15.31,16.181,28.95,29.387,38.826c15.237,11.396,33.375,17.419,52.453,17.419
	c12.188,0,23.986-2.456,35.068-7.299c3.795-1.658,5.527-6.08,3.868-9.876c-1.658-3.795-6.082-5.529-9.876-3.868
	c-9.175,4.01-18.952,6.043-29.061,6.043c-30.12,0-56.585-18.167-67.519-45.751c11.296-4.973,18.906-16.319,18.906-28.872v-17.717
	c12.577,6.104,26.463,9.918,41.113,10.894v24.817c0,4.143,3.357,7.5,7.5,7.5c4.143,0,7.5-3.357,7.5-7.5v-24.818
	c14.649-0.977,28.535-4.793,41.113-10.901v17.724C304.612,338.734,312.219,350.078,323.51,355.052z M368.741,168.339h-8.532
	c-4.705,0-8.532-3.827-8.532-8.532v-8.532h17.064L368.741,168.339L368.741,168.339z M215.918,136.273c-4.143,0-7.5,3.357-7.5,7.5
	s3.357,7.5,7.5,7.5h120.759v8.532c0,12.976,10.557,23.532,23.532,23.532h12.023c3.537,0,6.928,1.506,9.304,4.131
	c2.406,2.659,3.532,6.114,3.17,9.729c-0.63,6.292-6.609,11.221-13.614,11.221c-0.001,0-0.002,0-0.002,0h-3.385v-0.438
	c0-4.141-3.356-7.498-7.497-7.5c-0.001,0-0.002,0-0.003,0c-4.14,0-7.497,3.354-7.5,7.494c-0.037,50.764-39.409,92.509-89.206,96.35
	v-8.243c0-4.143-3.357-7.5-7.5-7.5c-4.143,0-7.5,3.357-7.5,7.5v8.243c-49.835-3.84-89.21-45.619-89.21-96.421
	c0-4.143-3.357-7.5-7.5-7.5s-7.5,3.357-7.5,7.5v0.516h-4.523c-3.537,0-6.929-1.506-9.304-4.131c-2.406-2.66-3.532-6.115-3.17-9.729
	c0.63-6.292,6.611-11.221,13.617-11.221h10.88c12.976,0,23.532-10.557,23.532-23.532v-8.532h8.53c4.143,0,7.5-3.357,7.5-7.5
	s-3.357-7.5-7.5-7.5H79.963L255.999,16.569l176.036,119.705H215.918z"/>
<path d="M200.402,255.999v16.032c0,4.143,3.357,7.5,7.5,7.5s7.5-3.357,7.5-7.5V263.5h16.548c9.628,0,18.257-4.34,24.049-11.161
	c5.792,6.821,14.42,11.161,24.049,11.161h16.548v8.532c0,4.143,3.357,7.5,7.5,7.5s7.5-3.357,7.5-7.5v-16.032
	c0-17.396-14.152-31.549-31.548-31.549h-24.049H231.95C214.555,224.451,200.402,238.604,200.402,255.999z M280.048,239.451
	c6.427,0,12.01,3.683,14.749,9.049h-14.749c-6.427,0-12.01-3.683-14.75-9.049H280.048z M231.95,239.451h14.75
	c-2.74,5.366-8.323,9.049-14.75,9.049h-14.749C219.94,243.133,225.523,239.451,231.95,239.451z"/>
<path d="M192.386,183.854c0,4.143,3.357,7.5,7.5,7.5h16.032c4.143,0,7.5-3.357,7.5-7.5s-3.357-7.5-7.5-7.5h-16.032
	C195.743,176.354,192.386,179.712,192.386,183.854z"/>
<path d="M296.08,191.354h16.032c4.143,0,7.5-3.357,7.5-7.5s-3.357-7.5-7.5-7.5H296.08c-4.143,0-7.5,3.357-7.5,7.5
	S291.937,191.354,296.08,191.354z"/>
<g>
</g>
<g>
</g>
<g>
</g>
<g>
</g>
<g>
</g>
<g>
</g>
<g>
</g>
<g>
</g>
<g>
</g>
<g>
</g>
<g>
</g>
<g>
</g>
<g>
</g>
<g>
</g>
<g>
</g>
</svg>
