<?xml version="1.0" encoding="iso-8859-1"?>
<!-- Generator: Adobe Illustrator 19.0.0, SVG Export Plug-In . SVG Version: 6.00 Build 0)  -->
<svg version="1.1" id="Layer_1" xmlns="http://www.w3.org/2000/svg" xmlns:xlink="http://www.w3.org/1999/xlink" x="0px" y="0px"
	 viewBox="0 0 512 512" style="enable-background:new 0 0 512 512;" xml:space="preserve">
<path style="fill:#FFD3AE;" d="M164.759,417.499v86.248H50.731V393.846c0-25.568,13.582-47.956,33.933-60.349h0.011
	C129.505,335.643,164.759,372.603,164.759,417.499z"/>
<path id="SVGCleanerId_0" style="fill:#DBA983;" d="M134.183,331.625c-1.112,0.594-2.201,1.222-3.28,1.871h-0.011
	c-20.351,12.393-33.933,34.781-33.933,60.349v109.901H50.731V393.846c0-25.568,13.582-47.956,33.933-60.349h0.011
	c10.687-6.505,23.235-10.258,36.663-10.258h5.966C129.483,326.133,131.784,328.929,134.183,331.625z"/>
<g>
	<path id="SVGCleanerId_0_1_" style="fill:#DBA983;" d="M134.183,331.625c-1.112,0.594-2.201,1.222-3.28,1.871h-0.011
		c-20.351,12.393-33.933,34.781-33.933,60.349v109.901H50.731V393.846c0-25.568,13.582-47.956,33.933-60.349h0.011
		c10.687-6.505,23.235-10.258,36.663-10.258h5.966C129.483,326.133,131.784,328.929,134.183,331.625z"/>
</g>
<path style="fill:#FFD3AE;" d="M165.849,338.273c-4.788-4.656-9.213-9.686-13.23-15.035h-0.011
	c-15.09-20.065-24.468-44.654-25.745-71.378c-0.088-2.069-0.143-4.138-0.143-6.23v-32.877v-39.052v-36.168
	c0-71.4,57.884-129.284,129.284-129.284c35.694,0,68.01,14.474,91.41,37.863c23.389,23.4,37.863,55.716,37.863,91.421v36.168v39.052
	v32.877c0,2.091-0.055,4.161-0.143,6.23c-1.277,26.724-10.654,51.313-25.744,71.378c-4.017,5.349-8.442,10.368-13.23,15.024v0.011
	c-5.316,5.162-11.073,9.884-17.214,14.088c-0.275,0.209-0.561,0.396-0.848,0.583c-20.593,13.868-45.391,21.958-72.093,21.958
	s-51.511-8.09-72.104-21.958c-0.275-0.187-0.572-0.374-0.848-0.583C176.911,348.157,171.165,343.447,165.849,338.273z"/>
<path style="fill:#DBA983;" d="M238.933,352.945c-0.275-0.187-0.572-0.385-0.848-0.583c-32.393-22.189-54.186-58.753-56.178-100.502
	c-0.088-2.069-0.143-4.15-0.143-6.241v-32.866v-39.063v-15.905v-20.263c0-35.981,14.705-68.527,38.424-91.96
	c17.12-16.918,38.944-29.08,63.332-34.368c-8.868-1.923-18.072-2.944-27.517-2.944c-35.419,0-67.504,14.243-90.849,37.312
	c-23.719,23.433-38.424,55.98-38.424,91.96v20.263v15.905v39.063v32.866c0,2.091,0.055,4.171,0.143,6.241
	c1.992,41.748,23.785,78.312,56.178,100.502c0.275,0.198,0.572,0.396,0.848,0.583c20.593,13.857,45.402,21.958,72.104,21.958
	c9.446,0,18.647-1.032,27.515-2.956C267.317,368.432,252.241,361.9,238.933,352.945z"/>
<g>
	<path style="fill:#4D4D4D;" d="M356.165,248.393l-8.31,18.986c-11.7,26.724-44.808,36.234-68.902,19.79l-13.417-9.158
		c-5.966-4.072-9.532-10.831-9.532-18.051c0-10.72,7.749-20.065,18.37-21.573c11.579-1.64,23.609,1.057,33.592,8.013
		c7.628,5.327,16.576,8.035,25.568,8.035c6.813,0,13.648-1.552,19.966-4.711L356.165,248.393z"/>
	<path style="fill:#4D4D4D;" d="M237.623,238.388c10.621,1.508,18.381,10.853,18.381,21.573c0,7.22-3.577,13.978-9.543,18.051
		l-13.417,9.158c-24.094,16.444-57.201,6.934-68.902-19.79l-8.299-18.986l2.653,1.332c6.318,3.159,13.153,4.711,19.977,4.711
		c8.981,0,17.93-2.708,25.557-8.035C214.014,239.445,226.044,236.748,237.623,238.388z"/>
</g>
<path style="fill:#2BA5F7;" d="M390.671,323.238c13.428,0,25.976,3.753,36.663,10.258c-44.841,2.146-80.095,39.107-80.095,84.003
	v86.248H164.759v-86.248c0-44.896-35.254-81.856-80.084-84.003c10.687-6.505,23.235-10.258,36.663-10.258h31.27h0.011
	c4.017,5.349,8.442,10.379,13.23,15.035c6.769,43.707,44.555,77.145,90.155,77.145s83.386-33.438,90.155-77.145v-0.011
	c4.788-4.656,9.213-9.675,13.23-15.024L390.671,323.238L390.671,323.238z"/>
<path style="fill:#FFD3AE;" d="M461.278,393.846v109.901h-114.04v-86.248c0-44.896,35.254-81.856,80.095-84.003h0.011
	C447.696,345.89,461.278,368.278,461.278,393.846z"/>
<g>
	<path style="fill:#DBA983;" d="M126.72,245.631c0,2.091,0.055,4.16,0.143,6.23c-16.928-4.931-29.3-20.582-29.3-39.107
		c0-18.458,12.305-34.077,29.157-39.052v39.052C126.72,212.754,126.72,245.631,126.72,245.631z"/>
	<path style="fill:#DBA983;" d="M385.277,173.702c16.851,4.975,29.157,20.593,29.157,39.052c0,18.524-12.382,34.165-29.3,39.107
		c0.088-2.069,0.143-4.138,0.143-6.23v-32.877V173.702z"/>
</g>
<path style="fill:#FFD3AE;" d="M328.945,352.362c6.142-4.205,11.898-8.926,17.214-14.088c-6.769,43.707-44.555,77.145-90.155,77.145
	s-83.386-33.438-90.155-77.145c5.316,5.173,11.062,9.884,17.203,14.088c0.275,0.209,0.572,0.396,0.848,0.583
	c20.593,13.868,45.402,21.958,72.104,21.958c26.702,0,51.5-8.09,72.093-21.958C328.384,352.758,328.67,352.571,328.945,352.362z"/>
<g>
	<path style="fill:#333333;" d="M206.847,303.543c10.889,0,21.629-3.258,30.853-9.553l13.42-9.161
		c1.793-1.224,3.419-2.632,4.88-4.175c1.462,1.543,3.086,2.951,4.879,4.175l13.42,9.161c9.225,6.296,19.963,9.553,30.853,9.553
		c5.072,0,10.18-0.708,15.18-2.144c15.734-4.519,28.52-15.714,35.081-30.711l8.308-18.989c1.393-3.184,0.643-6.899-1.877-9.293
		c-2.518-2.394-6.268-2.954-9.378-1.399l-2.664,1.331c-11.943,5.972-26.166,4.935-37.12-2.705c-4.529-3.16-9.446-5.584-14.587-7.256
		v-48.072c15.289,6.153,33.467,3.042,45.837-9.327c3.224-3.224,3.224-8.45,0-11.674c-3.225-3.224-8.451-3.224-11.675,0
		c-4.89,4.89-11.386,7.584-18.29,7.584c-6.902,0-13.398-2.693-18.289-7.584c-2.362-2.361-5.912-3.068-8.997-1.79
		c-3.085,1.278-5.096,4.288-5.096,7.626v60.533c-2.781-0.028-5.579,0.143-8.374,0.538c-6.761,0.956-12.747,4.243-17.215,8.985
		c-4.468-4.742-10.454-8.028-17.215-8.985c-2.795-0.395-5.592-0.567-8.374-0.539v-60.532c0-3.338-2.011-6.349-5.096-7.627
		c-3.082-1.277-6.635-0.571-8.996,1.79c-10.085,10.085-26.494,10.085-36.579,0c-3.224-3.224-8.451-3.224-11.674,0
		c-3.224,3.224-3.224,8.45,0,11.674c12.368,12.369,30.546,15.479,45.836,9.327v48.07c-5.141,1.672-10.059,4.096-14.588,7.256
		c-10.953,7.641-25.174,8.678-37.12,2.705l-2.661-1.331c-3.108-1.554-6.857-0.995-9.378,1.399c-2.521,2.394-3.27,6.11-1.878,9.294
		l8.308,18.989c6.561,14.998,19.349,26.191,35.081,30.711C196.668,302.837,201.773,303.543,206.847,303.543z M275.528,246.561
		c1.833-0.26,3.666-0.387,5.491-0.387c7.912,0,15.644,2.41,22.22,6.999c11.212,7.822,24.783,10.882,37.891,8.975l-0.842,1.923
		c-4.585,10.479-13.519,18.302-24.514,21.461c-10.992,3.159-22.72,1.271-32.168-5.178l-13.42-9.161
		c-3.715-2.536-5.933-6.734-5.933-11.231C264.255,253.232,269.101,247.471,275.528,246.561z M171.71,264.071l-0.841-1.923
		c13.108,1.905,26.68-1.155,37.89-8.975c8.093-5.647,17.934-7.996,27.711-6.612c6.427,0.909,11.274,6.671,11.274,13.402
		c0,4.497-2.218,8.695-5.933,11.231l-13.42,9.161c-9.447,6.449-21.17,8.336-32.168,5.178
		C185.23,282.373,176.295,274.551,171.71,264.071z"/>
	<path style="fill:#333333;" d="M204.348,208.767v-8.805c0-4.559-3.696-8.255-8.255-8.255c-4.559,0-8.255,3.696-8.255,8.255v8.805
		c0,4.559,3.696,8.255,8.255,8.255C200.652,217.022,204.348,213.326,204.348,208.767z"/>
	<path style="fill:#333333;" d="M307.653,199.962v8.805c0,4.559,3.695,8.255,8.255,8.255s8.255-3.696,8.255-8.255v-8.805
		c0-4.559-3.695-8.255-8.255-8.255S307.653,195.402,307.653,199.962z"/>
	<path style="fill:#333333;" d="M390.667,314.981h-15.925c10.124-17.329,16.438-36.822,18.245-57.19
		c17.742-7.628,29.698-25.381,29.698-45.034c0-19.431-11.72-37.037-29.153-44.792V137.53C393.53,61.695,331.834,0,256,0
		c-75.835,0-137.531,61.695-137.531,137.53v30.433c-17.437,7.753-29.159,25.36-29.159,44.794c0,19.653,11.959,37.409,29.704,45.036
		c1.806,20.368,8.121,39.861,18.243,57.188h-15.923c-43.485,0-78.863,35.378-78.863,78.863v109.901c0,4.559,3.696,8.255,8.255,8.255
		h410.547c4.56,0,8.255-3.696,8.255-8.255V393.844C469.53,350.359,434.151,314.981,390.667,314.981z M406.175,212.757
		c0,10.211-4.88,19.63-12.643,25.67v-51.335C401.291,193.132,406.175,202.556,406.175,212.757z M105.82,212.757
		c0-10.202,4.885-19.628,12.649-25.67v51.342C110.704,232.391,105.82,222.97,105.82,212.757z M134.979,137.53
		c0-66.731,54.29-121.02,121.021-121.02s121.02,54.289,121.02,121.02v108.095c0,39.961-19.714,77.316-52.735,99.925
		c-0.079,0.055-0.159,0.11-0.236,0.167c-0.103,0.076-0.211,0.146-0.318,0.218l-0.239,0.162
		c-19.973,13.442-43.312,20.548-67.493,20.548s-47.52-7.106-67.442-20.514l-0.283-0.192c-0.11-0.074-0.223-0.147-0.33-0.227
		c-0.076-0.055-0.152-0.11-0.229-0.163c-33.021-22.61-52.735-59.964-52.735-99.925V137.53H134.979z M330.154,361.447
		c-4.858,9.651-11.598,18.355-19.912,25.541c-15.05,13.009-34.314,20.173-54.242,20.173s-39.19-7.164-54.241-20.173
		c-8.313-7.186-15.053-15.89-19.911-25.54c22.132,14.197,47.696,21.706,74.152,21.706
		C282.456,383.156,308.021,375.647,330.154,361.447z M148.587,331.491c2.996,3.749,6.195,7.35,9.589,10.786
		c4.075,22.145,15.633,42.374,32.788,57.203c18.049,15.601,41.146,24.191,65.037,24.191s46.988-8.592,65.037-24.191
		c17.157-14.828,28.714-35.059,32.789-57.206c3.393-3.435,6.59-7.035,9.586-10.783h27.255c2.084,0,4.143,0.107,6.175,0.308
		c-34.067,13.678-57.853,46.955-57.853,85.697v77.994H173.013v-77.994c0-38.749-23.801-72.022-57.877-85.694
		c2.04-0.202,4.107-0.309,6.199-0.309h27.252V331.491z M58.982,393.843c0-21.638,11.084-40.73,27.867-51.915
		c39.262,3.186,69.654,35.882,69.654,75.567v77.994H58.982V393.843z M453.02,495.49h-97.522v-77.994
		c0-39.684,30.393-72.381,69.654-75.567c16.783,11.185,27.867,30.277,27.867,51.915V495.49H453.02z"/>
</g>
<g>
</g>
<g>
</g>
<g>
</g>
<g>
</g>
<g>
</g>
<g>
</g>
<g>
</g>
<g>
</g>
<g>
</g>
<g>
</g>
<g>
</g>
<g>
</g>
<g>
</g>
<g>
</g>
<g>
</g>
</svg>
