<svg height="512pt" viewBox="0 -29 512.00334 512" width="512pt" xmlns="http://www.w3.org/2000/svg"><path d="m468.769531 188.195312c-42.332031-50.375-93.09375-14.398437-125.027343 8.742188l.789062 61.25c6.375 7.285156 13.238281 14.039062 21.121094 18.296875 7.882812 4.257813 16.917968 5.878906 25.457031 2.757813 6.691406-2.441407 12.972656-8.089844 16.855469-15.699219 1.976562 2.394531 4.101562 4.574219 6.390625 6.46875 8.050781 6.640625 18.285156 9.523437 27.863281 5.984375 5.773438-2.132813 11.160156-6.835938 14.972656-13.019532 19.539063 23.671876 40.957032 39.289063 44.402344 34.605469 5.429688-7.378906 7.449219-61.457031-32.824219-109.386719zm0 0" fill="#f5eef3"/><path d="m371.789062 254.117188c5.085938-1.246094 9.964844-3.546876 14.007813-6.644532 3.722656-2.851562 8.777344-3.089844 12.863281-.789062.113282.0625.226563.128906.339844.191406 9.421875 5.207031 21.398438 7.46875 32.609375 4.695312 6.757813-1.671874 13.0625-5.363281 17.523437-10.210937 22.867188 18.5625 47.9375 30.816406 51.972657 27.140625.855469-.777344 1.632812-2.226562 2.234375-4.230469 2.4375 17.3125.695312 30.003907-1.738282 33.3125-3.449218 4.683594-24.867187-10.933593-44.40625-34.605469-3.808593 6.183594-9.195312 10.886719-14.96875 13.019532-9.578124 3.539062-19.8125.65625-27.863281-5.984375-2.292969-1.894531-4.417969-4.074219-6.394531-6.46875-3.878906 7.609375-10.160156 13.257812-16.851562 15.699219-8.542969 3.121093-17.574219 1.5-25.457032-2.757813-7.882812-4.257813-14.746094-11.011719-21.121094-18.296875l-.070312-5.40625c8.613281 2.699219 18.203125 3.566406 27.320312 1.335938zm0 0" fill="#bed0e9"/><path d="m43.253906 188.195312c42.332032-50.375 93.09375-14.398437 125.027344 8.742188l-.789062 61.25c-6.378907 7.285156-13.238282 14.039062-21.121094 18.296875-7.882813 4.257813-16.917969 5.878906-25.457032 2.757813-6.691406-2.441407-12.972656-8.089844-16.855468-15.699219-1.976563 2.394531-4.101563 4.574219-6.390625 6.46875-8.054688 6.640625-18.285157 9.523437-27.863281 5.984375-5.773438-2.132813-11.160157-6.835938-14.972657-13.019532-19.539062 23.671876-40.957031 39.289063-44.402343 34.605469-5.429688-7.378906-7.449219-61.457031 32.824218-109.386719zm0 0" fill="#f5eef3"/><path d="m140.234375 254.117188c-5.082031-1.246094-9.964844-3.546876-14.007813-6.644532-3.71875-2.851562-8.777343-3.089844-12.859374-.789062-.113282.0625-.226563.128906-.339844.191406-9.421875 5.207031-21.398438 7.46875-32.613282 4.695312-6.753906-1.671874-13.0625-5.363281-17.519531-10.210937-22.867187 18.5625-47.9375 30.816406-51.972656 27.140625-.855469-.777344-1.632813-2.226562-2.234375-4.230469-2.4375 17.3125-.695312 30.003907 1.738281 33.3125 3.445313 4.683594 24.867188-10.933593 44.40625-34.605469 3.808594 6.183594 9.195313 10.886719 14.96875 13.019532 9.578125 3.539062 19.8125.65625 27.863281-5.984375 2.292969-1.894531 4.417969-4.074219 6.394532-6.46875 3.878906 7.609375 10.160156 13.257812 16.851562 15.699219 8.539063 3.121093 17.574219 1.5 25.457032-2.757813 7.882812-4.257813 14.746093-11.011719 21.121093-18.296875l.070313-5.40625c-8.617188 2.699219-18.207032 3.566406-27.324219 1.335938zm0 0" fill="#bed0e9"/><path d="m342.65625 269.152344c0-32.515625-38.792969-58.875-86.644531-58.875-47.851563 0-86.644531 26.359375-86.644531 58.875s38.792968 58.871094 86.644531 58.871094c47.851562 0 86.644531-26.355469 86.644531-58.871094zm0 0" fill="#f5eef3"/><path d="m358.242188 364.589844c1.15625 3.378906 1.636718 6.980468 1.296874 10.671875-1.472656 15.957031-17.585937 27.515625-35.988281 25.816406-18.40625-1.699219-32.128906-16.007813-30.660156-31.964844 1.339844-14.515625 14.792969-25.386719 31.070313-25.957031 8.445312-35.417969-8.714844-65.179688-22.394532-78.796875-7.632812-7.59375-7.664062-19.941406-.066406-27.574219 7.59375-7.632812 19.941406-7.664062 27.574219-.066406 15.554687 15.480469 27.519531 37.253906 32.824219 59.734375 5.375 22.753906 4.085937 45.976563-3.65625 68.136719zm-204.460938 0c-1.15625 3.378906-1.636719 6.980468-1.296875 10.671875 1.472656 15.957031 17.582031 27.515625 35.988281 25.816406 18.402344-1.699219 32.128906-16.007813 30.660156-31.964844-1.339843-14.515625-14.796874-25.386719-31.070312-25.957031-8.449219-35.417969 8.714844-65.179688 22.394531-78.796875 7.632813-7.59375 7.660157-19.941406.066407-27.574219-7.59375-7.632812-19.941407-7.664062-27.578126-.066406-15.550781 15.480469-27.515624 37.253906-32.824218 59.734375-5.371094 22.753906-4.082032 45.976563 3.660156 68.136719zm0 0" fill="#ffcca9"/><path d="m210.523438 236.785156c-7.597657-7.632812-19.941407-7.664062-27.578126-.0625-9.53125 9.484375-17.703124 21.339844-23.835937 34.269532 5.253906 13.046874 15.488281 24.582031 29.152344 33.46875 4.386719-17.722657 13.921875-31.867188 22.195312-40.101563 7.632813-7.59375 7.660157-19.941406.066407-27.574219zm0 0" fill="#ffa076"/><path d="m352.914062 270.992188c-6.132812-12.929688-14.304687-24.785157-23.835937-34.269532-7.636719-7.601562-19.980469-7.566406-27.578125.0625-7.59375 7.632813-7.566406 19.980469.066406 27.578125 8.273438 8.230469 17.808594 22.375 22.195313 40.097657 13.664062-8.886719 23.898437-20.421876 29.152343-33.46875zm0 0" fill="#ffa076"/><path d="m399.238281 219.984375c-4.101562 9.351563-12.546875 16.777344-22.441406 19.355469-7.160156 1.855468-14.960937 1.085937-21.660156-2.015625-7.304688 27.945312-37.058594 50.21875-75.347657 56.855469-5.769531 6.667968-14.269531 10.902343-23.777343 10.902343-9.507813 0-18.007813-4.234375-23.777344-10.902343-38.289063-6.636719-68.042969-28.910157-75.347656-56.855469-6.703125 3.101562-14.5 3.871093-21.660157 2.015625-9.894531-2.574219-18.339843-10-22.441406-19.355469-2.773437-6.351563-3.597656-13.742187-1.25-20.269531 2.652344-7.402344 9.234375-12.699219 16.800782-15.046875 4.125-1.28125 8.546874-1.699219 12.789062-1.109375 8.390625 1.175781 15.9375 5.59375 21.988281 11.605468 17.769531-5.332031 37.511719-30.390624 25.996094-62.546874 31.683594 14.597656 52.71875 13.664062 63.601563-3.007813 18.699218 10.5625 46.742187 17.472656 72.601562 12.164063.746094 18.371093 4.617188 40.328124 23.59375 53.390624 6.054688-6.011718 13.597656-10.429687 21.988281-11.605468 5.121094-.710938 10.496094.035156 15.300781 2.019531 6.492188 2.652344 11.933594 7.566406 14.289063 14.136719 2.351563 6.523437 1.527344 13.917968-1.246094 20.269531zm0 0" fill="#ffcca9"/><path d="m386.195312 185.578125c-4.804687-1.984375-10.175781-2.730469-15.300781-2.019531-8.386719 1.171875-15.933593 5.59375-21.988281 11.605468-24.875-17.132812-23.789062-49.542968-23.757812-69.121093 0 0 1.097656-16.515625 23.757812-13.707031 21.652344 2.6875 49.671875 25.882812 37.289062 73.242187zm0 0" fill="#ffdc61"/><path d="m369.230469 114.332031c-11.722657 15.652344-27.375 24.039063-43.914063 27.441407-25.859375 5.308593-53.90625-1.601563-72.605468-12.164063-10.878907 16.671875-31.914063 17.601563-63.601563 3.003906 11.515625 32.160157-8.226563 57.21875-25.992187 62.550781-6.054688-6.011718-13.601563-10.429687-21.988282-11.605468-4.246094-.589844-8.664062-.175782-12.789062 1.109375-15.773438-20.980469-19.511719-50.222657 6.667968-73.800781-13.996093-84.296876 100.164063-100.902344 129.230469-81.523438 91.808594-68.183594 137.621094 41.46875 104.992188 84.988281zm0 0" fill="#ffdc61"/><path d="m304.59375 9.289062c37.421875 11.105469 51.058594 72.554688 31.195312 102.300782-10.179687 15.25-23.761718 23.425781-38.117187 26.734375-6.070313 1.402343-12.28125 1.921875-18.429687 1.746093 14.511718 3.691407 30.679687 4.863282 46.074218 1.703126 16.539063-3.402344 32.191406-11.792969 43.914063-27.441407 27.414062-36.5625-.546875-119.808593-64.636719-105.042969zm0 0" fill="#f7ad48"/><path d="m406.433594 365.679688c-5.992188 1.648437-10.703125 5.59375-13.484375 10.625-2.730469 4.941406-3.589844 10.941406-1.894531 16.800781l.28125.96875-.96875.28125c-5.867188 1.683593-10.488282 5.601562-13.21875 10.542969-2.78125 5.03125-3.613282 11.117187-1.820313 17.070312 3.511719 11.664062 16.046875 18.089844 27.75 14.71875l34.964844-10.074219c4.417969-1.273437 6.964843-5.886719 5.691406-10.304687l-10.074219-34.964844c-3.371094-11.703125-15.480468-18.894531-27.226562-15.664062zm0 0" fill="#ff87b3"/><path d="m71.105469 439.9375 4.367187-17.621094c1.066406-4.296875-1.125-8.734375-5.179687-10.503906l-16.644531-7.253906c-4.519532-1.972656-4.671876-8.332032-.246094-10.515625l45.910156-22.648438c3.519531-1.738281 7.625-1.835937 11.222656-.265625l22.414063 9.769532c4.058593 1.769531 6.246093 6.207031 5.183593 10.503906l-5.886718 23.734375c-.945313 3.808593-3.519532 7.007812-7.039063 8.742187l-45.910156 22.652344c-4.425781 2.183594-9.378906-1.804688-8.191406-6.59375zm0 0" fill="#00d1b6"/><path d="m511.808594 273.617188c-.636719-10.738282-3.097656-27.671876-11.210938-47.339844-1.582031-3.832032-5.96875-5.65625-9.796875-4.074219-3.828125 1.578125-5.652343 5.964844-4.070312 9.792969 9.488281 22.996094 11.5 44.914062 9.660156 57.289062-10.914063-6.394531-24.515625-20.457031-32.75-30.277344-.222656-.265624-.449219-.535156-.671875-.808593-.050781-.058594-.101562-.117188-.152344-.175781-10.472656-12.648438-20.597656-27.953126-26.65625-44.128907-1.453125-3.875-5.773437-5.839843-9.65625-4.390625-3.878906 1.453125-5.84375 5.777344-4.390625 9.65625 6.398438 17.074219 16.582031 32.464844 25.609375 44.007813-2.433594 2.707031-5.246094 4.734375-8.105468 5.792969-.304688.109374-.609376.214843-.917969.308593-3.734375 1.140625-7.761719.957031-11.730469-.476562-2.679688-.964844-5.332031-2.5-7.851562-4.582031-1.808594-1.484376-3.621094-3.320313-5.386719-5.449219-.03125-.035157-.058594-.070313-.085938-.101563-1.828125-2.222656-3.578125-4.753906-5.242187-7.578125-2.101563-3.570312-6.699219-4.757812-10.269532-2.652343-3.566406 2.101562-4.757812 6.695312-2.652343 10.265624 1.09375 1.863282 2.234375 3.632813 3.410156 5.308594-2.820313 3.839844-6.5 6.785156-10.359375 8.199219-7.40625 2.707031-14.597656.234375-19.320312-2.3125-5.425782-2.933594-10.363282-7.371094-14.527344-11.703125-.117188-.199219-.230469-.402344-.347656-.601562 2.179687-3.457032 4.03125-7.050782 5.527343-10.757813 6.191407 1.421875 12.660157 1.367187 18.820313-.226563 12.0625-3.144531 22.3125-11.96875 27.414062-23.605468l.007813-.007813c3.734375-8.550781 4.257812-17.957031 1.433593-25.804687-2.257812-6.289063-6.769531-11.738282-12.738281-15.558594.460938-2.289062.839844-4.546875 1.128907-6.78125 27-9.894531 48.40625-4.058594 67.089843 18.179688 3.128907 3.722656 6.132813 7.675781 8.933594 11.746093 1.453125 2.113281 3.800781 3.25 6.1875 3.25 1.464844 0 2.941406-.425781 4.242187-1.320312 3.414063-2.347657 4.277344-7.015625 1.929688-10.429688-3.070312-4.464843-6.371094-8.804687-9.808594-12.894531-21.371094-25.433594-47.5625-33.652344-77.972656-24.527344-1.058594-17.234375-7.898438-31.84375-19.929688-41.941406 8.613282-12.691406 12.226563-30.300781 9.933594-48.757812-2.371094-19.089844-10.804687-37.148438-23.144531-49.542969-12.136719-12.191407-45.769531-35.871094-99.675781 1.875-21.199219-10.046875-60.679688-7.289063-90.226563 6.972656-3.726562 1.800781-5.292969 6.28125-3.492187 10.011719 1.800781 3.730468 6.285156 5.296875 10.015625 3.496094 28.78125-13.898438 66.675781-14.296876 80.0625-5.367188 2.636719 1.753906 6.089843 1.667969 8.632812-.21875 45.128907-33.519531 72.03125-18.261719 84.054688-6.183594 19.804687 19.894532 27.972656 59.554688 7.375 84.472656-9.351563 10.75-21.550781 17.730469-36.332031 20.769532-22.269532 4.566406-45.355469-.941406-60.917969-8.054688.671875-1.574218 1.261719-3.15625 1.777343-4.734375 6.082032-18.523437-1.308593-29.867187-6.257812-34.984375-9.023438-9.324218-23.703125-12.761718-37.402344-8.757812-3.976562 1.160156-6.257812 5.324218-5.097656 9.300781 1.164062 3.976563 5.328125 6.257813 9.304688 5.09375 8.289062-2.421875 17.296874-.496094 22.414062 4.796875 7.804688 8.0625 3.625 22.402344-2.675781 30.535156-11.703125 14.261719-35.945313 5.894532-52.703125-1.820312-2.402344-1.105469-5.171875-.855469-7.316406.585937-.003907 0-.003907 0-.007813.003907-.0625.042968-.125.085937-.191406.132812-.074219.054688-.148438.109375-.222657.167969-.03125.023437-.0625.046875-.089843.070312-.03125.023438-.0625.050781-.09375.074219-.105469.085938-.199219.171875-.28125.246094-.851563.78125-1.511719 1.742187-1.929688 2.824218-2.097656 5.441407 2.96875 7.855469 2.929688 21.765626-.042969 15.628906-8.960938 29.164062-20.339844 34.804687-9.363281-7.773437-20.996094-12.105469-33.070313-10.25-7.128906-11.34375-17.601562-36.378906 8.390626-59.789063 1.902343-1.714843 2.796874-4.277343 2.378906-6.800781-3.488282-21.027343 1.484375-38.714843 14.785156-52.574219 2.867188-2.988281 2.769531-7.738281-.21875-10.605468-2.988281-2.867188-7.734375-2.769532-10.601562.21875-15.65625 16.3125-22.300782 37.480468-19.339844 61.421875-11.757813 11.722656-18.164063 25.628906-18.582032 40.429687-.082031 2.855469.054688 5.714844.402344 8.566406-27.589844-6.09375-51.542968 2.707032-71.335937 26.273438-22.753907 27.082031-31.6875 54.828125-35.175781 73.335938-3.757813 19.929687-2.917969 38.5625 2.050781 45.328124 1.777343 2.410157 4.507812 3.785157 7.6875 3.871094.097656.003906.1875.003906.285156.003906.199219 0 .402344-.003906.605469-.015624.402344-.019532.808594-.054688 1.21875-.113282 2.25-.3125 4.828125-1.289062 7.613281-2.765625 4.519531-2.371093 9.472656-6.015625 14.378906-10.203125 5.59375-4.742187 11.1875-10.226562 16.0625-15.480468.742188-.804688 1.53125-1.667969 2.359375-2.589844 13.992188 14.050781 33.578125 13.179687 48.382813.597656 4.277343 5.007812 9.585937 8.835938 15.359375 10.945312 8.476562 3.101563 17.953125 2.695313 27.117187-1.078124-1.003906 3.160156-1.882812 6.339843-2.636719 9.523437-5.453124 23.105469-4.378906 47.257813 3.09375 70.003906-.78125 3.027344-1.121093 6.113281-1.023437 9.226563-1.847656.671875-3.691406 1.363281-5.515625 2.0625-1.039062-.785156-2.1875-1.460938-3.429688-2.003906l-22.410156-9.773438c-5.632812-2.453125-12.027344-2.304688-17.539062.414062l-45.910156 22.652344c-4.695313 2.316406-7.53125 7.003906-7.410157 12.238282.125 5.234374 3.183594 9.78125 7.980469 11.875l16.640625 7.253906c.707031.308594 1.085937 1.078125.898437 1.824218l-4.367187 17.617188c-1.261719 5.082031.488281 10.277344 4.566406 13.558594 2.433594 1.960937 5.351563 2.960937 8.308594 2.960937 2 0 4.019531-.457031 5.914063-1.394531l45.910156-22.648438c5.511718-2.71875 9.519531-7.699218 10.996094-13.664062l5.886718-23.734375c.300782-1.207031.457032-2.417969.488282-3.613281.953124-.363282 1.914062-.722656 2.875-1.074219 2.535156 4.753906 6.25 8.96875 10.984374 12.363281 27.269532 19.554688 67.621094.589844 66.976563-30.085937 19.460937-1.847657 39.089844-1.847657 58.550781 0-.191406 9.074219 3.332032 17.816406 10.070313 24.835937 19.199219 20.019532 55.230469 16.648438 67.894531-7.117187 4.445312 1.632812 8.867188 3.378906 13.246094 5.21875-2.339844 2.144531-4.335938 4.675781-5.917969 7.535156-3.890625 7.046875-4.757813 15.164063-2.4375 22.863281 3.824219 12.699219 15.738281 20.949219 28.617187 20.949219 2.773438 0 5.59375-.382813 8.390626-1.1875l34.960937-10.074219c8.386719-2.417968 13.242187-11.203125 10.828125-19.589844l-10.074219-34.964843c-4.542969-15.753907-20.882812-25.09375-36.421875-20.816407h-.003906c-7.753906 2.132813-14.167969 7.183594-18.058594 14.226563-1.355468 2.457031-2.34375 5.046875-2.957031 7.699219-5.375-2.28125-10.816406-4.425782-16.292969-6.414063.097656-3.109375-.242187-6.195312-1.023437-9.21875 7.472656-22.75 8.546875-46.902343 3.089843-70.007812-.75-3.183594-1.632812-6.359375-2.632812-9.519531 9.164062 3.769531 18.640625 4.171874 27.121094 1.074218 5.769531-2.113281 11.078125-5.9375 15.355468-10.945312 14.785157 12.5625 34.40625 13.441406 48.382813-.597656.828125.921874 1.617187 1.785156 2.359375 2.589843 4.828125 5.207031 10.371094 10.644531 15.914062 15.359375 5.035157 4.304688 10.121094 8.046875 14.746094 10.4375 2.699219 1.414063 5.203125 2.347656 7.390625 2.652344.414063.058594.824219.09375 1.226563.113281.203125.011719.402344.015625.597656.015625.097656 0 .191406 0 .285156-.003906 3.179688-.085938 5.910156-1.460938 7.699219-3.886719 4.886719-6.65625 4.542969-22.078125 4.167969-28.402343zm-380.957032 115.976562-5.882812 23.730469c-.414062 1.671875-1.535156 3.0625-3.078125 3.824219l-.5.246093 1.589844-4.683593c1.332031-3.921876-.769531-8.179688-4.691407-9.511719-3.925781-1.332031-8.179687.769531-9.511718 4.691406l-6.410156 18.890625-23.097657 11.394531 3.488281-14.0625c1.949219-7.875-2.03125-15.941406-9.464843-19.179687l-13.28125-5.789063 7.539062-3.722656 17.054688 5.789063c.796875.269531 1.613281.398437 2.410156.398437 3.125 0 6.042969-1.96875 7.101563-5.09375 1.332031-3.921875-.769532-8.179687-4.691407-9.511719l-2.851562-.964844 16.058593-7.925781c1.542969-.757812 3.332032-.800781 4.90625-.113281l22.414063 9.769531c.296875.128907.53125.339844.695313.59375.039062.070313.074218.140625.113281.207031.140625.3125.179687.667969.089843 1.023438zm236.015626-261.222656c7.304687 6.210937 16.3125 18.367187 14.710937 39.957031-.058594.375-.09375.757813-.09375 1.144531-.195313 2.167969-.496094 4.421875-.914063 6.777344-11.558593-1.835938-22.828124 2.09375-31.910156 9.152344-11.074218-10.1875-14.398437-24.71875-15.480468-37.824219 13.074218-3.679687 24.351562-10.109375 33.6875-19.207031zm-248.269532 73.875c1.695313-4.722656 6.167969-8.617188 11.96875-10.417969 3.152344-.976563 6.445313-1.269531 9.523438-.839844 7.101562.996094 12.65625 4.65625 17.867187 9.617188.035157.039062.09375.089843.140625.132812.042969.039063.074219.066407.136719.121094.058594.046875.066406.054687.148437.121094.058594.046875.046876.039062.144532.117187.058594.042969.085937.066406.15625.113282.765625.371093 2.632812 2.015624 6.015625 1.285156 8.578125-1.875 21.511719-10.589844 29.082031-25.148438.101562-.195312.199219-.390625.300781-.582031 3.730469-7.390625 7.136719-18.214844 5.617188-31.734375 2.359375.828125 4.660156 1.558594 6.902343 2.191406.230469.089844.46875.167969.710938.234375 7.335938 2.035157 13.789062 2.9375 19.46875 2.9375 7.453125 0 13.574219-1.554687 18.601562-4.128906.003907-.003906.007813-.003906.007813-.003906.113281-.058594.222656-.117188.332031-.175781l.027344-.011719c.109375-.058594.21875-.117188.328125-.175781.003906 0 .003906-.003907.007813-.003907 3.382812-1.835937 6.253906-4.140625 8.6875-6.75 19.050781 9.199219 42.40625 13.734375 63.605468 11.320313 1.632813 16.972656 7.058594 37.648437 26.269532 50.878906.203124.136719.40625.261719.617187.378906.207031.113282.445313.234375.683594.335938.367187.113281 1.300781.609375 2.957031.609375 1.925781 0 3.839844-.742188 5.289062-2.179688 17.058594-16.945312 35.574219-8.417969 39.230469 1.765625 1.539063 4.28125 1.152344 9.648438-1.0625 14.722656-3.226562 7.351563-9.917969 13.140626-17.449219 15.105469-5.40625 1.394531-11.464843.828125-16.628906-1.5625-2.015625-.933593-4.34375-.925781-6.351562.019531-2.007813.949219-3.492188 2.738282-4.054688 4.886719-7.582031 28.996094-39.660156 46.214844-69.371094 51.363281-1.707031.292969-3.257812 1.171876-4.390624 2.480469-4.570313 5.28125-11.167969 8.308594-18.105469 8.308594s-13.539063-3.027344-18.105469-8.308594c-1.136719-1.308593-2.683594-2.1875-4.390625-2.480469-20.597656-3.570312-32.78125-10.84375-33.828125-11.257812-19.140625-10.078125-26.335938-21.871094-27.53125-23.195312-9.59375-13.582032-6.046875-18.957032-12.066406-21.796876-1.972656-.929687-4.296875-.972656-6.351563-.019531-5.164062 2.390625-11.222656 2.960938-16.621093 1.566407-7.542969-1.96875-14.234376-7.757813-17.457032-15.105469-2.21875-5.074219-2.605468-10.445313-1.0625-14.734375zm196.972656 100.550781c-15.117187 11.3125-36.523437 17.726563-59.558593 17.726563-23.035157 0-44.445313-6.414063-59.5625-17.726563 1.121093-3.753906 2.457031-7.21875 3.886719-10.363281 8.644531 3.804687 18.085937 6.75 28.105468 8.675781 7.292969 7.320313 17.195313 11.46875 27.570313 11.46875s20.277343-4.148437 27.570312-11.46875c10.019531-1.925781 19.460938-4.871094 28.105469-8.675781 1.425781 3.140625 2.765625 6.609375 3.882812 10.363281zm-172.761718-32.910156c-4.722656 2.550781-11.910156 5.023437-19.316406 2.316406-3.863282-1.414063-7.542969-4.363281-10.359376-8.199219 1.175782-1.675781 2.3125-3.449218 3.410157-5.308594 2.101562-3.570312.914062-8.167968-2.65625-10.269531-3.566407-2.101562-8.164063-.914062-10.269531 2.65625-10.160157 17.246094-26.59375 26.234375-39.316407 12.085938 9.023438-11.542969 19.210938-26.933594 25.605469-44.007813 1.453125-3.878906-.511719-8.203125-4.390625-9.65625s-8.199219.515625-9.652344 4.390625c-11.375 30.359375-41.671875 64.527344-60.25 75.398438-3.617187-24.179688 6.703125-64.511719 33.390625-96.273438 18.105469-21.554687 38.652344-27.675781 64.441406-19.109375 1.105469 2.589844 2.394532 5.152344 3.859376 7.671875-5.996094 3.824219-10.558594 9.285157-12.820313 15.59375-2.824219 7.855469-2.300781 17.261719 1.441406 25.816407 5.097657 11.636718 15.347657 20.460937 27.425781 23.609374 6.152344 1.589844 12.617188 1.648438 18.808594.226563 1.496094 3.703125 3.347656 7.296875 5.527344 10.757813-.117188.199218-.230469.398437-.347656.597656-4.167969 4.335937-9.105469 8.769531-14.53125 11.703125zm25.691406 118.804687c-5.003906-3.589844-8.039062-8.605468-8.550781-14.117187-.230469-2.546875.078125-5.082031.925781-7.542969.546875-1.589844.542969-3.320312-.011719-4.910156-7.339843-21.019532-8.496093-42.53125-3.441406-63.945313 2.238281-9.472656 5.773437-18.9375 10.367187-27.824219 5.480469 5.644532 11.945313 10.746094 19.214844 15.160157-6.746094 14.535156-12.027344 35.117187-6.238281 59.382812.785156 3.277344 3.660156 5.632813 7.03125 5.753907 12.636719.441406 22.898437 8.675781 23.867187 19.148437 1.769532 19.1875-25.769531 31.367187-43.164062 18.894531zm120.617188-32.589844c-21.996094-2.253906-44.21875-2.253906-66.214844 0-5.378906-10.160156-15.949219-17.660156-28.589844-19.828124-1.019531-6.113282-1.214844-11.917969-.828125-17.355469 17.0625 10.652343 39.164063 16.605469 62.527344 16.605469s45.460937-5.953126 62.523437-16.605469c.386719 5.4375.191406 11.242187-.828125 17.355469-12.640625 2.167968-23.207031 9.667968-28.589843 19.828124zm62.039062 6.019532c-.554688 1.589844-.558594 3.320312-.011719 4.910156.847657 2.460938 1.15625 4.996094.921875 7.542969-.507812 5.511719-3.542968 10.527343-8.546875 14.117187-17.292969 12.398438-44.9375.386719-43.164062-18.890625.96875-10.476562 11.226562-18.710937 23.863281-19.152343 3.371094-.121094 6.25-2.476563 7.035156-5.753907 5.789063-24.265625.507813-44.847656-6.242187-59.382812 7.269531-4.414063 13.738281-9.515625 19.21875-15.160157 4.59375 8.886719 8.128906 18.347657 10.367187 27.824219 5.054688 21.414063 3.894532 42.925781-3.441406 63.945313zm32.550781 46.398437c1.890625-3.414062 4.984375-5.886719 8.730469-6.960937l.96875-.28125c3.980469-1.148438 6.277344-5.300782 5.132812-9.28125l-.285156-.980469c-.066406-.230469-.128906-.46875-.183594-.703125-.015624-.078125-.035156-.15625-.054687-.234375-.757813-3.449219-.238281-7.015625 1.492187-10.148437 1.921876-3.476563 5.085938-5.972657 8.914063-7.023438h-.003906c7.671875-2.109375 15.753906 2.605469 18.03125 10.507812l10.074219 34.960938c.128906.441406-.125.898438-.5625 1.023438l-34.964844 10.074218c-7.902344 2.28125-16.199219-2.0625-18.492188-9.671875-1.144531-3.796875-.714844-7.804687 1.203125-11.28125zm0 0"/><path d="m356.050781 220.871094c1.222657 0 2.457031-.300782 3.601563-.929688 5.902344-3.238281 12.574218-5.054687 19.304687-5.253906 4.136719-.121094 7.394531-3.578125 7.273438-7.71875-.121094-4.140625-3.539063-7.40625-7.71875-7.273438-9.089844.265626-18.109375 2.71875-26.078125 7.097657-3.632813 1.996093-4.957032 6.554687-2.964844 10.183593 1.367188 2.488282 3.933594 3.894532 6.582031 3.894532zm0 0"/><path d="m133.066406 214.6875c6.726563.199219 13.402344 2.015625 19.300782 5.253906 3.617187 1.988282 8.183593.679688 10.183593-2.960937 1.992188-3.632813.667969-8.191407-2.964843-10.1875-7.972657-4.375-16.988282-6.832031-26.078126-7.097657-4.152343-.136718-7.597656 3.136719-7.71875 7.277344-.121093 4.136719 3.136719 7.59375 7.277344 7.714844zm0 0"/><path d="m213.667969 195.5625c4.140625 0 7.5-3.355469 7.5-7.5v-2.617188c0-4.140624-3.359375-7.5-7.5-7.5-4.144531 0-7.5 3.359376-7.5 7.5v2.617188c0 4.144531 3.355469 7.5 7.5 7.5zm0 0"/><path d="m298.355469 195.5625c4.140625 0 7.5-3.355469 7.5-7.5v-2.617188c0-4.140624-3.359375-7.5-7.5-7.5-4.144531 0-7.5 3.359376-7.5 7.5v2.617188c0 4.144531 3.355469 7.5 7.5 7.5zm0 0"/><path d="m256.015625 244.492188c13.800781 0 26.054687-8.273438 31.210937-21.078126 1.550782-3.84375-.308593-8.214843-4.152343-9.761718s-8.210938.316406-9.757813 4.15625c-2.859375 7.097656-9.652344 11.683594-17.300781 11.683594-7.65625 0-14.449219-4.585938-17.308594-11.683594-1.546875-3.839844-5.914062-5.703125-9.757812-4.15625s-5.703125 5.917968-4.15625 9.761718c5.15625 12.804688 17.414062 21.078126 31.222656 21.078126zm0 0"/></svg>