<?xml version="1.0" encoding="iso-8859-1"?>
<!-- Generator: Adobe Illustrator 19.0.0, SVG Export Plug-In . SVG Version: 6.00 Build 0)  -->
<svg version="1.1" id="Layer_1" xmlns="http://www.w3.org/2000/svg" xmlns:xlink="http://www.w3.org/1999/xlink" x="0px" y="0px"
	 viewBox="0 0 511.998 511.998" style="enable-background:new 0 0 511.998 511.998;" xml:space="preserve">
<g>
	<path style="fill:#CC9475;" d="M219.469,293.392c-1.703,0-3.434-0.21-5.161-0.651l-75.121-19.16
		c-11.144-2.843-17.875-14.182-15.032-25.326c2.842-11.144,14.179-17.876,25.325-15.032l75.121,19.16
		c11.144,2.843,17.875,14.182,15.032,25.326C237.23,287.127,228.761,293.392,219.469,293.392z"/>
	<path style="fill:#CC9475;" d="M289.833,293.392c1.703,0,3.434-0.21,5.161-0.651l75.121-19.16
		c11.144-2.843,17.875-14.182,15.032-25.326c-2.842-11.144-14.178-17.876-25.325-15.032l-75.121,19.16
		c-11.144,2.843-17.875,14.182-15.032,25.326C272.071,287.127,280.541,293.392,289.833,293.392z"/>
	<path style="fill:#CC9475;" d="M168.877,485.928v-70.095c0-6.448,2.658-12.612,7.349-17.039l47.803-45.112
		c9.41-8.879,24.237-8.452,33.118,0.96c8.881,9.41,8.451,24.237-0.959,33.119l-40.455,38.177v59.991h-46.856V485.928z"/>
	<path style="fill:#CC9475;" d="M340.424,485.928v-70.095c0-6.448-2.658-12.612-7.349-17.039l-47.803-45.112
		c-9.41-8.879-24.237-8.452-33.118,0.96c-8.881,9.41-8.451,24.237,0.959,33.119l40.455,38.177v59.991h46.856V485.928z"/>
</g>
<path style="fill:#E0A381;" d="M254.651,244.556L254.651,244.556c-34.513,0-62.492,27.978-62.492,62.491v25.499v20.825v34.701
	h124.983V353.37v-20.825v-25.499C317.142,272.534,289.164,244.556,254.651,244.556z"/>
<circle style="fill:#F7B48E;" cx="254.654" cy="230.498" r="54.858"/>
<path style="fill:#FFC6A6;" d="M254.651,189.174c28.003,0,51.089,20.988,54.426,48.09c0.273-2.219,0.431-4.474,0.431-6.768
	c0-30.297-24.561-54.858-54.858-54.858s-54.858,24.561-54.858,54.858c0,2.294,0.157,4.549,0.43,6.768
	C203.562,210.162,226.647,189.174,254.651,189.174z"/>
<g>
	<path style="fill:#E0A381;" d="M113.084,315.899c-4.346,0-8.728-1.355-12.473-4.162c-9.203-6.898-11.073-19.95-4.174-29.154
		l31.232-41.67c6.898-9.202,19.95-11.074,29.154-4.174c9.203,6.898,11.073,19.95,4.174,29.154l-31.232,41.671
		C125.674,313.02,119.417,315.899,113.084,315.899z"/>
	<path style="fill:#E0A381;" d="M178.479,467.186c-20.437,0-37.005,16.567-37.005,37.005h74.259v-37.005H178.479z"/>
	<path style="fill:#E0A381;" d="M396.216,315.899c4.346,0,8.728-1.355,12.473-4.162c9.203-6.898,11.073-19.95,4.174-29.154
		l-31.232-41.67c-6.898-9.202-19.95-11.074-29.154-4.174c-9.203,6.898-11.073,19.95-4.174,29.154l31.232,41.671
		C383.628,313.02,389.884,315.899,396.216,315.899z"/>
	<path style="fill:#E0A381;" d="M330.823,467.186c20.437,0,37.005,16.567,37.005,37.005h-74.259v-37.005H330.823z"/>
	<path style="fill:#E0A381;" d="M90.833,31.227l2.882-12.201c1.848-7.824,9.69-12.668,17.514-10.819l295.379,69.794
		c7.824,1.848,12.668,9.69,10.818,17.514l-2.883,12.201c-1.848,7.824-9.69,12.668-17.514,10.818L101.653,48.74
		C93.829,46.892,88.985,39.051,90.833,31.227z"/>
</g>
<polygon style="opacity:0.1;enable-background:new    ;" points="107.491,50.12 311.252,98.265 401.811,76.868 198.05,28.722 "/>
<path style="fill:#F7B48E;" d="M418.468,31.227l-2.882-12.201c-1.848-7.824-9.69-12.668-17.514-10.819L102.694,78.001
	c-7.824,1.848-12.668,9.69-10.818,17.514l2.883,12.201c1.848,7.824,9.69,12.668,17.514,10.818L407.651,48.74
	C415.473,46.892,420.317,39.051,418.468,31.227z"/>
<circle cx="235.964" cy="218.326" r="7.554"/>
<circle cx="276.041" cy="218.326" r="7.554"/>
<path d="M235.278,237.607c-3.543,2.458-4.423,7.324-1.964,10.868c4.362,6.286,13.055,10.191,22.684,10.191
	c9.629,0,18.322-3.905,22.683-10.19c2.459-3.543,1.581-8.409-1.963-10.868c-3.541-2.458-8.409-1.581-10.868,1.963
	c-0.933,1.344-4.433,3.477-9.853,3.477c-5.421,0-8.92-2.132-9.853-3.477C243.687,236.027,238.822,235.147,235.278,237.607z"/>
<path d="M410.793,56.34c12.001-2.836,19.459-14.906,16.623-26.908l-2.883-12.201c-1.373-5.814-4.929-10.745-10.011-13.885
	s-11.083-4.112-16.897-2.738L363.333,8.71c-4.197,0.992-6.796,5.199-5.804,9.396s5.198,6.796,9.395,5.805l34.291-8.103
	c1.752-0.413,3.564-0.121,5.098,0.827c1.534,0.946,2.605,2.434,3.02,4.188l2.883,12.201c0.414,1.754,0.121,3.564-0.826,5.098
	c-0.948,1.533-2.434,2.605-4.188,3.02l-3.283,0.776v-7.192c0-4.313-3.496-7.809-7.809-7.809c-4.313,0-7.809,3.496-7.809,7.809
	v10.882l-43.536,10.286l0,0l-12.751,3.013l-174.803,41.303v-8.738c0-4.313-3.496-7.809-7.809-7.809
	c-4.313,0-7.809,3.496-7.809,7.809V103.9l-17.895,4.228V81.381l43.535-10.286c0.001,0,0.002,0,0.003-0.001l90.559-21.397
	l0.002-0.001l77.891-18.405c4.197-0.991,6.796-5.198,5.804-9.395c-0.991-4.197-5.199-6.796-9.395-5.804l-76.098,17.981
	L114.373,0.608c-1.692-0.4-3.428-0.603-5.155-0.603c-10.412,0-19.358,7.084-21.754,17.226l-2.883,12.201
	c-2.835,12.001,4.622,24.072,16.623,26.908l6.874,1.624v11.058l-5.833,1.379c-12.002,2.836-19.46,14.907-16.623,26.91l2.883,12.2
	c1.373,5.813,4.929,10.746,10.011,13.884c2.949,1.822,6.209,2.902,9.561,3.229v129.204L91.535,277.9
	c-9.469,12.634-6.894,30.617,5.739,40.086c4.995,3.744,10.928,5.723,17.158,5.723c8.978,0,17.549-4.285,22.929-11.462l4.231-5.644
	v174.241c-4.169,6.803-6.577,14.798-6.577,23.346c0,4.313,3.496,7.809,7.809,7.809h74.258c4.313,0,7.809-3.496,7.809-7.809v-37.005
	v-37.881l31.108-29.357l31.108,29.357v37.881v37.005c0,4.313,3.496,7.809,7.809,7.809h74.259c0.007,0,0.014,0,0.021,0
	c4.313,0,7.809-3.496,7.809-7.809c0-0.212-0.008-0.424-0.025-0.632c-0.116-8.308-2.508-16.075-6.573-22.711V306.602l4.231,5.645
	c5.38,7.177,13.951,11.462,22.928,11.462c6.23,0,12.163-1.978,17.158-5.723c12.634-9.469,15.208-27.452,5.74-40.087l-16.543-22.072
	V126.622c9.46-0.911,17.346-7.686,19.573-17.112l2.883-12.201c1.373-5.813,0.401-11.815-2.738-16.897s-8.071-8.638-13.885-10.011
	l-5.833-1.379V57.964L410.793,56.34z M339.782,393.113l-13.484-12.725v-28.659c0-4.313-3.496-7.809-7.809-7.809
	s-7.809,3.496-7.809,7.809v28.532H201.317v-73.215c0-5.722,0.88-11.307,2.562-16.609c0.022-0.063,0.054-0.117,0.075-0.18
	c1.771-5.493,4.449-10.687,7.848-15.362c11.637,11.551,27.793,18.265,44.196,18.265c16.344,0,32.597-6.752,44.197-18.266
	c3.399,4.675,6.077,9.87,7.848,15.362c0.02,0.064,0.052,0.118,0.074,0.179c3.367,9.585,2.564,20.059,2.564,30.056
	c0,4.313,3.496,7.809,7.809,7.809s7.809-3.496,7.809-7.809c0-1.971,0.479-26.999-1.304-26.999l29.792-7.598v179.629
	c-1.671-0.981-3.407-1.862-5.206-2.624v-47.068C349.582,407.27,346.01,398.99,339.782,393.113z M162.416,415.832v47.065
	c-1.8,0.761-3.535,1.647-5.206,2.629V285.894l29.793,7.599c-0.859,4.419-1.304,8.953-1.304,13.554v73.342l-13.484,12.725
	C165.987,398.99,162.416,407.27,162.416,415.832z M132.678,252.79c0.252-5.313,3.865-10.078,8.913-11.747v24.702
	c-1.39-0.46-2.665-1.126-3.779-1.974C134.45,261.212,132.473,257.106,132.678,252.79z M198.216,254.742
	c0.025,0.059,0.048,0.119,0.073,0.177c0.275,0.65,3.809,7,3.628,7.219c-0.014,0.017-0.026,0.033-0.04,0.049
	c-0.413,0.498-0.811,1.004-1.21,1.511c-0.141,0.18-0.282,0.359-0.422,0.541c-3.434,4.453-6.292,9.261-8.541,14.334l-34.496-8.798
	v-26.864l40.373,10.297C197.784,253.724,198.001,254.232,198.216,254.742z M311.097,260.328c1.214-2.232,2.372-4.691,3.317-7.119
	l40.372-10.298v26.865l-34.496,8.798c-0.008,0.002-3.814-7.387-4.219-8.051c-1.776-2.909-3.77-5.71-5.951-8.331
	c-0.015-0.018-0.027-0.035-0.042-0.052c0.339-0.578,0.663-1.164,0.984-1.751C311.075,260.367,311.086,260.347,311.097,260.328z
	 M370.406,241.042c0,0.033,2.391,1.067,2.625,1.208c2.861,1.727,5.058,4.644,5.898,7.935c1.697,6.656-2.097,13.432-8.523,15.558
	C370.406,265.744,370.406,241.044,370.406,241.042z M370.406,225.074V119.949l17.895,4.228v110.899
	C383.834,229.715,377.496,226.091,370.406,225.074z M388.3,108.128l-17.895-4.228V91.471c0-4.313-3.496-7.809-7.809-7.809
	s-7.809,3.496-7.809,7.809v8.738l-64.828-15.318l37.921-8.96l18.679-4.414l41.741,9.863v26.747H388.3z M255.998,92.917
	l98.789,23.341v110.535l-36.384,9.281c0.164-1.839,0.261-3.696,0.261-5.577c0-39.457-38.412-69.89-76.781-61.052
	c-4.203,0.968-6.825,5.16-5.857,9.363c0.968,4.202,5.162,6.823,9.363,5.857c29.024-6.687,57.656,16.02,57.656,45.831
	c0,25.283-21.788,47.048-47.047,47.048c-25.302,0-47.048-21.793-47.048-47.048c0-11.898,4.461-23.257,12.559-31.986
	c2.934-3.161,2.749-8.102-0.412-11.036c-3.161-2.934-8.103-2.749-11.036,0.412c-11.983,12.912-18.022,30.654-16.467,48.185
	l-36.384-9.28V116.258L255.998,92.917z M141.591,119.949v105.125c-7.091,1.016-13.428,4.641-17.895,10.001V124.177L141.591,119.949z
	 M104.796,41.141c-3.62-0.856-5.87-4.497-5.015-8.117l2.883-12.201c0.724-3.061,3.418-5.199,6.554-5.199
	c0.521,0,1.046,0.062,1.564,0.184l111.256,26.289l-56.6,13.374l-41.741-9.863V34.724c0-4.313-3.496-7.809-7.809-7.809
	c-4.313,0-7.809,3.496-7.809,7.809v7.192L104.796,41.141z M123.697,61.655l7.781,1.839l-7.781,1.839V61.655z M106.726,110.107
	c-1.533-0.948-2.605-2.434-3.02-4.189l-2.884-12.2c-0.855-3.62,1.394-7.263,5.015-8.117l2.242-0.529v25.673
	C107.611,110.582,107.157,110.374,106.726,110.107z M124.863,302.88c-4.267,5.692-12.541,6.866-18.221,2.608
	c-5.742-4.304-6.914-12.478-2.609-18.222l4.045-5.397v11.522c0,4.313,3.496,7.809,7.809,7.809c4.313,0,7.809-3.496,7.809-7.809
	v-21.67c0.064,0.076,0.127,0.151,0.192,0.226c2.829,3.336,6.495,6.077,10.532,7.778c2.039,0.859,4.184,1.422,6.322,1.968
	C140.742,281.694,124.894,302.838,124.863,302.88z M209.272,496.381H155.44c1.106-1.347,1.77-3.071,1.77-4.949v-5.667
	c0-0.474,1.468-1.672,1.807-2.016c5.447-5.546,13.033-8.753,20.811-8.753h29.444V496.381z M211.721,420.257
	c-1.563,1.475-2.45,3.53-2.45,5.68v33.439h-29.444c-0.598,0-1.195,0.012-1.793,0.035v-43.58c0-4.281,1.786-8.422,4.899-11.36
	l9.227-8.708c0.12,0.021,0.243,0.031,0.364,0.047c0.079,0.01,0.157,0.023,0.237,0.031c0.246,0.023,0.494,0.037,0.746,0.037h44.044
	L211.721,420.257z M274.445,395.88h44.044c0.251,0,0.5-0.015,0.744-0.037c0.081-0.007,0.16-0.021,0.241-0.031
	c0.121-0.016,0.243-0.026,0.361-0.047l9.227,8.708c3.113,2.938,4.899,7.078,4.899,11.36v43.58c-0.597-0.023-1.194-0.035-1.792-0.035
	h-29.445v-33.439c0-2.149-0.886-4.205-2.45-5.68L274.445,395.88z M302.726,474.994h29.445c7.695,0,15.22,3.146,20.651,8.59
	c0.369,0.37,1.967,1.663,1.967,2.178v5.668c0,1.878,0.664,3.602,1.77,4.949h-53.832v-21.386H302.726z M407.964,287.267
	c6.255,8.344,0.022,20.822-10.398,20.823c-11.341,0.001-20.282-18.353-26.31-26.396l2.139-0.545
	c4.441-1.137,8.586-3.365,12.007-6.414c0.97-0.865,1.871-1.799,2.712-2.79c0.062-0.074,0.126-0.147,0.187-0.222v21.67
	c0,4.313,3.496,7.809,7.809,7.809c4.313,0,7.809-3.496,7.809-7.809V281.87C403.918,281.87,407.948,287.246,407.964,287.267z
	 M406.16,85.601c1.754,0.414,3.241,1.488,4.189,3.021c0.948,1.533,1.24,3.343,0.826,5.097l-2.883,12.201
	c-0.548,2.319-2.229,4.101-4.373,4.833V85.071L406.16,85.601z M388.3,65.332l-7.781-1.839l7.781-1.839V65.332z"/>
<g>
</g>
<g>
</g>
<g>
</g>
<g>
</g>
<g>
</g>
<g>
</g>
<g>
</g>
<g>
</g>
<g>
</g>
<g>
</g>
<g>
</g>
<g>
</g>
<g>
</g>
<g>
</g>
<g>
</g>
</svg>
