<?xml version="1.0" encoding="iso-8859-1"?>
<!-- Generator: Adobe Illustrator 19.0.0, SVG Export Plug-In . SVG Version: 6.00 Build 0)  -->
<svg version="1.1" id="Layer_1" xmlns="http://www.w3.org/2000/svg" xmlns:xlink="http://www.w3.org/1999/xlink" x="0px" y="0px"
	 viewBox="0 0 512.001 512.001" style="enable-background:new 0 0 512.001 512.001;" xml:space="preserve">
<g>
	<path style="fill:#796093;" d="M72.34,203.838c19.057-6.41,32.76-24.111,32.76-44.959v-6.256c0-26.254-21.717-47.536-48.508-47.536
		S8.085,126.369,8.085,152.622v6.256c0,26.159,21.562,47.375,48.219,47.528L72.34,203.838z"/>
	<path style="fill:#796093;" d="M489.455,182.34l-25.039-25.039c-10.022-10.022-23.275-14.83-36.406-14.453
		c0.305-2.221,0.475-4.483,0.475-6.787v-35.41c0-27.317-22.145-49.463-49.463-49.463c-27.317,0-49.463,22.145-49.463,49.463v35.41
		c0,14.33,6.1,27.23,15.838,36.263l-58.882,58.882c-7.047,7.047-11.486,15.708-13.336,24.793h-92.623
		c-10.708,0-20.602,3.477-28.626,9.354c-0.653-0.736-1.325-1.462-2.031-2.167l-25.039-25.039
		c-12.745-12.744-30.711-17.074-47.009-13.002l-15.006,6.554c-2.807,1.836-5.471,3.983-7.936,6.448
		c-19.316,19.317-19.317,50.635,0,69.952l25.039,25.039c11.624,11.624,27.591,16.243,42.677,13.878
		c-1.718,1.316-3.376,2.747-4.949,4.318l-25.038,25.036c-19.317,19.317-19.316,50.635,0,69.952
		c19.316,19.317,50.635,19.317,69.952,0l25.039-25.039c18.766-18.767,19.296-48.858,1.599-68.27h79.136
		c-17.697,19.412-17.167,49.503,1.599,68.27l25.039,25.039c19.317,19.317,50.635,19.316,69.952,0
		c19.317-19.316,19.317-50.635,0-69.952l-25.039-25.039c-7.577-7.577-17.003-12.168-26.825-13.801
		c5.876-6.316,10.089-14.196,11.938-22.952c11.192-0.89,22.137-5.604,30.698-14.165l55.951-55.951l7.828,7.828
		c19.317,19.317,50.635,19.316,69.952,0C508.773,232.976,508.772,201.657,489.455,182.34z M144.952,337.456
		c0.003-0.002,0.006-0.004,0.01-0.008c0.001,0.001,0.003,0.003,0.004,0.005C144.962,337.454,144.956,337.455,144.952,337.456z"/>
</g>
<g>
	<path style="opacity:0.2;fill:#FEFBE1;enable-background:new    ;" d="M387.806,77.119c0-9.091-7.396-16.487-16.487-16.487
		c-9.091,0-16.487,7.397-16.487,16.487v2.434c0,9.091,7.396,16.487,16.487,16.487c9.091,0,16.487-7.397,16.487-16.487V77.119z"/>
	<path style="opacity:0.2;fill:#FEFBE1;enable-background:new    ;" d="M169.777,299.118c-8.916,0-16.169-7.254-16.169-16.169
		s7.254-16.169,16.169-16.169h64.677c8.916,0,16.169,7.254,16.169,16.169s-7.254,16.169-16.169,16.169H169.777z"/>
	<path style="opacity:0.2;fill:#FEFBE1;enable-background:new    ;" d="M305.412,276.08c-6.36,6.36-16.708,6.361-23.069,0
		s-6.36-16.709,0-23.069l46.138-46.138c6.36-6.36,16.708-6.361,23.069,0s6.36,16.709,0,23.069L305.412,276.08z"/>
	<path style="opacity:0.2;fill:#FEFBE1;enable-background:new    ;" d="M160.425,378.536c6.429-6.429,6.429-16.888,0-23.317
		s-16.888-6.429-23.317,0l-1.721,1.721c-6.429,6.429-6.429,16.888,0,23.317c6.429,6.429,16.888,6.429,23.317,0L160.425,378.536z"/>
	<path style="opacity:0.2;fill:#FEFBE1;enable-background:new    ;" d="M294.508,363.458c-6.429-6.429-16.888-6.429-23.317,0
		c-6.429,6.429-6.429,16.888,0,23.317l1.721,1.721c6.429,6.429,16.888,6.429,23.317,0c6.429-6.429,6.429-16.888,0-23.317
		L294.508,363.458z"/>
	<path style="opacity:0.2;fill:#FEFBE1;enable-background:new    ;" d="M419.012,169.426c-6.429-6.429-16.888-6.429-23.317,0
		c-6.429,6.429-6.429,16.888,0,23.317l1.721,1.721c6.429,6.429,16.888,6.429,23.317,0s6.429-16.888,0-23.317L419.012,169.426z"/>
	<path style="opacity:0.2;fill:#FEFBE1;enable-background:new    ;" d="M79.457,250.273c-6.429-6.429-16.888-6.429-23.317,0
		s-6.429,16.888,0,23.317l1.721,1.721c6.429,6.429,16.888,6.429,23.317,0c6.429-6.429,6.429-16.888,0-23.317L79.457,250.273z"/>
	<path style="opacity:0.2;fill:#FEFBE1;enable-background:new    ;" d="M83.541,148.705v-4.171
		c0-17.503-14.479-31.691-32.339-31.691s-32.339,14.188-32.339,31.691v4.171c0,17.503,14.479,31.691,32.339,31.691
		S83.541,166.206,83.541,148.705z"/>
	<path style="opacity:0.2;fill:#FEFBE1;enable-background:new    ;" d="M55.543,308.731c-19.096-19.096-20.102-50.192-1.462-69.734
		c2.374-2.489,4.941-4.671,7.656-6.55c6.284-4.351,14.871-3.665,20.289,1.726c0.029,0.029,0.059,0.058,0.088,0.088l24.407,24.407
		c19.096,19.096,20.102,50.192,1.462,69.734c-5.352,5.612-11.694,9.667-18.474,12.198c-3.406-2.044-6.623-4.526-9.559-7.463
		L55.543,308.731z"/>
	<path style="opacity:0.2;fill:#FEFBE1;enable-background:new    ;" d="M329.56,101.546c0-27.006,21.277-49.704,48.275-50.342
		c3.438-0.081,6.796,0.192,10.045,0.782c7.52,1.367,13.107,7.924,13.126,15.567c0,0.041,0,0.083,0,0.125v34.516
		c0,27.006-21.277,49.704-48.275,50.342c-7.753,0.183-15.104-1.433-21.688-4.437c-0.964-3.854-1.482-7.884-1.482-12.036v-34.516
		H329.56z"/>
	<path style="opacity:0.2;fill:#FEFBE1;enable-background:new    ;" d="M254.416,256h-72.983c-26.485,0-48.745,20.866-49.37,47.344
		c-0.18,7.603,1.406,14.812,4.352,21.27c3.779,0.945,7.732,1.454,11.804,1.454h97.016c0.093,0,0.185,0,0.278-0.001
		c11.951-0.067,19.42-12.733,14.317-23.539C252.942,287.944,251.141,271.54,254.416,256z"/>
	<path style="opacity:0.2;fill:#FEFBE1;enable-background:new    ;" d="M355.724,192.277c0-9.431,1.76-18.593,5.124-27.108
		c1.22-3.09-2.601-5.664-4.964-3.328l-0.072,0.071c-0.029,0.029-0.058,0.058-0.087,0.087l-68.582,68.583
		c-18.894,18.894-19.888,49.66-1.444,68.994c5.295,5.551,11.569,9.563,18.276,12.068c3.371-2.021,6.553-4.479,9.458-7.384
		l38.07-38.07c12.269-12.269,15.764-30.628,9.372-46.759C357.493,210.903,355.724,201.727,355.724,192.277z"/>
	<path style="opacity:0.2;fill:#FEFBE1;enable-background:new    ;" d="M117.678,351.333c19.317-19.317,50.635-19.316,69.951,0
		c5.173,5.173,8.947,11.211,11.349,17.644c-2.044,3.406-4.526,6.623-7.463,9.559l-25.039,25.039
		c-19.317,19.317-50.635,19.316-69.951,0c-5.173-5.173-8.947-11.211-11.349-17.644c2.044-3.406,4.526-6.623,7.463-9.559
		L117.678,351.333z"/>
	<path style="opacity:0.2;fill:#FEFBE1;enable-background:new    ;" d="M270.594,421.916c-19.096-19.096-20.102-50.192-1.462-69.734
		c2.374-2.489,4.941-4.671,7.656-6.55c6.284-4.351,14.871-3.665,20.289,1.726c0.029,0.029,0.059,0.058,0.088,0.088l24.407,24.407
		c19.096,19.096,20.102,50.192,1.462,69.734c-5.352,5.612-11.694,9.667-18.474,12.198c-3.406-2.044-6.623-4.526-9.559-7.463
		L270.594,421.916z"/>
	<path style="opacity:0.2;fill:#FEFBE1;enable-background:new    ;" d="M395.097,227.885c-19.096-19.096-20.102-50.192-1.462-69.734
		c2.374-2.489,4.941-4.671,7.656-6.55c6.284-4.351,14.871-3.665,20.289,1.726c0.029,0.029,0.059,0.058,0.088,0.088l24.407,24.407
		c19.096,19.096,20.102,50.192,1.462,69.734c-5.352,5.612-11.694,9.667-18.474,12.198c-3.406-2.044-6.623-4.526-9.559-7.463
		L395.097,227.885z"/>
	<path style="opacity:0.2;fill:#FEFBE1;enable-background:new    ;" d="M61.982,140.693c0-8.737-7.254-15.845-16.169-15.845
		s-16.169,7.108-16.169,15.845v2.339c0,8.737,7.254,15.845,16.169,15.845s16.169-7.108,16.169-15.845V140.693z"/>
</g>
<path d="M495.172,176.624l-25.04-25.039c-9.057-9.057-20.953-14.802-33.563-16.391v-34.542c0-31.733-25.815-57.548-57.547-57.548
	s-57.549,25.816-57.549,57.548v35.41c0,13.139,4.556,25.888,12.707,36.046l-53.381,53.381c-6.343,6.343-11.05,14.002-13.825,22.426
	h-86.417c-9.708,0-19.061,2.429-27.417,7.078l-22.563-22.562c-17.441-17.441-43.38-21.316-64.608-11.645
	c-0.293-2.49-0.056-4.951,0.402-7.137c26.559-4.567,46.813-27.38,46.813-54.771v-6.256c0-30.669-25.388-55.62-56.592-55.62
	S0,121.953,0,152.622v6.256c0,28.456,21.86,51.973,49.938,55.222c-0.585,4.903-0.352,10.466,1.726,16.012
	c-0.84,0.747-1.667,1.515-2.471,2.319c-22.436,22.439-22.436,58.948,0.001,81.385l25.039,25.039
	c7.975,7.975,18.074,13.328,28.889,15.601l-16.199,16.199c-22.436,22.438-22.436,58.947,0,81.384
	c10.87,10.869,25.321,16.855,40.693,16.856c0.001,0,0,0,0.001,0c15.371,0,29.823-5.987,40.691-16.856l25.04-25.039
	c17.807-17.807,21.603-44.367,11.071-65.902h48.758c-10.533,21.534-6.736,48.095,11.072,65.902l25.039,25.039
	c10.869,10.869,25.32,16.856,40.693,16.856c15.372,0,29.823-5.986,40.693-16.856c22.436-22.438,22.436-58.947,0-81.384l-25.04-25.04
	c-5.53-5.53-12.013-9.809-19.128-12.673c2.037-3.498,3.694-7.206,4.937-11.061c11.317-2.08,21.808-7.556,30.004-15.75l50.235-50.235
	l2.112,2.112c10.869,10.869,25.32,16.856,40.693,16.856c15.372,0,29.823-5.986,40.693-16.856
	C517.61,235.569,517.61,199.061,495.172,176.624z M16.169,158.877v-6.256c0-21.753,18.133-39.451,40.423-39.451
	s40.423,17.699,40.423,39.452v6.256c0,21.753-18.133,39.451-40.423,39.451S16.169,180.632,16.169,158.877z M483.738,246.574
	c-7.815,7.815-18.207,12.119-29.259,12.119c-11.053,0-21.445-4.304-29.26-12.12l-7.823-7.823c-0.002-0.002-0.003-0.003-0.005-0.005
	l-16.579-16.578c-10.374-10.375-14.754-25.616-11.427-39.776c1.022-4.346-1.674-8.698-6.02-9.72
	c-4.345-1.018-8.698,1.674-9.72,6.021c-4.597,19.567,1.432,40.606,15.734,54.909l10.861,10.861l-50.234,50.235
	c-6.856,6.855-15.956,11.053-25.623,11.823c-0.038,0.003-0.072,0.014-0.11,0.018c-4.046,0.313-8.108,0.028-12.068-0.853
	c-4.368-0.974-8.679,1.78-9.647,6.138c-0.968,4.358,1.779,8.677,6.137,9.647c1.697,0.377,3.408,0.658,5.127,0.879
	c-1.148,2.326-2.522,4.539-4.105,6.615c-5.032-0.419-10.084-0.181-15.079,0.722c-4.393,0.796-7.31,5.003-6.514,9.395
	c0.707,3.906,4.111,6.646,7.946,6.646c0.478,0,0.964-0.043,1.451-0.132c4.67-0.845,9.411-0.885,14.091-0.124
	c0.051,0.01,0.098,0.027,0.149,0.036c8.545,1.421,16.302,5.412,22.433,11.543l25.04,25.039c16.134,16.134,16.134,42.384,0,58.518
	c-7.815,7.815-18.207,12.119-29.259,12.119c-11.053,0-21.445-4.304-29.26-12.119l-25.039-25.039
	c-15.665-15.665-16.253-40.749-1.342-57.107c2.158-2.366,2.715-5.783,1.422-8.712c-1.294-2.929-4.194-4.82-7.396-4.82h-75.728
	c-7.658-7.401-17.149-12.519-27.522-14.811c-4.368-0.965-8.675,1.793-9.637,6.151c-0.964,4.36,1.79,8.675,6.151,9.638
	c7.678,1.697,14.694,5.549,20.287,11.142c0.236,0.236,0.486,0.448,0.743,0.65c0.186,0.262,0.378,0.521,0.598,0.761
	c14.911,16.357,14.323,41.441-1.341,57.107l-25.04,25.039c-7.814,7.815-18.206,12.119-29.259,12.119
	c-11.052,0-21.444-4.304-29.259-12.119c-16.134-16.134-16.134-42.384,0-58.518l25.04-25.039c1.247-1.248,2.643-2.465,4.147-3.617
	c0.011-0.008,0.018-0.018,0.028-0.026c3.444-2.638,7.249-4.708,11.383-6.155c4.214-1.475,6.435-6.086,4.961-10.301
	c-1.474-4.214-6.086-6.434-10.302-4.961c-5.073,1.775-9.796,4.213-14.125,7.276c-12.43,1.367-24.955-2.981-33.821-11.845
	l-25.039-25.039c-16.134-16.133-16.134-42.384-0.001-58.519c16.136-16.132,42.386-16.134,58.518,0l21.239,21.238
	c-9.829,9.915-16.054,23.312-16.402,38.048c-0.106,4.464,3.428,8.168,7.892,8.273c0.066,0.001,0.129,0.002,0.194,0.002
	c4.378,0,7.975-3.495,8.079-7.894c0.514-21.753,19.036-39.45,41.289-39.45h82.712c-0.474,15.595,5.432,30.826,16.653,42.047
	c1.578,1.579,3.648,2.368,5.716,2.368c2.069,0,4.138-0.789,5.717-2.368c3.157-3.157,3.157-8.277-0.001-11.433
	c-9.611-9.612-13.805-23.33-11.216-36.697c0.007-0.036,0.009-0.07,0.015-0.106c0.023-0.094,0.051-0.185,0.07-0.281
	c1.6-7.854,5.45-15.008,11.132-20.69l58.882-58.882c1.552-1.553,2.407-3.672,2.366-5.868s-0.974-4.282-2.585-5.776
	c-8.546-7.927-13.252-18.701-13.252-30.337v-35.408c0-22.816,18.562-41.378,41.379-41.378c22.816,0,41.378,18.562,41.378,41.378
	v34.792c-6.404,1.009-12.545,3.081-18.202,6.127c-0.988-0.688-2.142-1.172-3.414-1.363c-13.756-2.053-27.736,0.952-39.364,8.463
	c-3.75,2.423-4.827,7.427-2.403,11.178c1.547,2.394,4.146,3.698,6.799,3.698c1.504,0,3.024-0.418,4.38-1.295
	c5.533-3.574,11.817-5.715,18.307-6.32c-0.427,2.499,0.317,5.158,2.245,7.086c1.578,1.579,3.648,2.368,5.716,2.368
	c2.069,0,4.138-0.789,5.717-2.368c7.487-7.489,17.405-11.766,27.97-12.091c0.031,0,0.061,0.003,0.092,0.002
	c11.478-0.335,22.329,3.96,30.455,12.088l25.04,25.039C499.872,204.19,499.872,230.442,483.738,246.574z"/>
<g>
</g>
<g>
</g>
<g>
</g>
<g>
</g>
<g>
</g>
<g>
</g>
<g>
</g>
<g>
</g>
<g>
</g>
<g>
</g>
<g>
</g>
<g>
</g>
<g>
</g>
<g>
</g>
<g>
</g>
</svg>
