<?xml version="1.0" encoding="iso-8859-1"?>
<!-- Generator: Adobe Illustrator 19.0.0, SVG Export Plug-In . SVG Version: 6.00 Build 0)  -->
<svg version="1.1" id="Capa_1" xmlns="http://www.w3.org/2000/svg" xmlns:xlink="http://www.w3.org/1999/xlink" x="0px" y="0px"
	 viewBox="0 0 512 512" style="enable-background:new 0 0 512 512;" xml:space="preserve">
<path style="fill:#E3AA75;" d="M413.526,374.103l-84.486-24.849c-10.235-3.01-17.263-12.403-17.263-23.071v-38.119H199.551v38.119
	c0,10.668-7.028,20.061-17.263,23.071l-84.486,24.849c-20.469,6.02-34.526,24.806-34.526,46.142V504.5H448.05v-84.254
	C448.051,398.91,433.995,380.124,413.526,374.103z"/>
<path style="fill:#9BDC9B;" d="M413.526,374.103l-63.599-18.706c-8.913,43.908-47.725,76.957-94.262,76.957
	s-85.349-33.049-94.262-76.957l-63.599,18.706c-20.469,6.02-34.525,24.806-34.525,46.142V504.5h384.774v-84.254
	C448.051,398.909,433.995,380.124,413.526,374.103z"/>
<path style="fill:#D29B6E;" d="M199.551,313.969c16.841,8.996,35.939,14.176,56.113,14.176s39.272-5.18,56.113-14.176v-25.905
	H199.551V313.969z"/>
<path style="fill:#F5B97D;" d="M371.898,167.823h-12.024V79.645h-208.42v88.177H139.43c-11.068,0-20.04,8.972-20.04,20.04
	c0,11.068,8.972,20.04,20.04,20.04h12.429c4.106,53.795,48.958,96.194,103.805,96.194s99.699-42.398,103.805-96.194h12.429
	c11.068,0,20.04-8.973,20.04-20.04C391.938,176.795,382.966,167.823,371.898,167.823z"/>
<path style="fill:#E3AA75;" d="M151.454,79.645v88.177h-10.88c-10.483,0-20.036,7.542-21.081,17.973
	c-1.202,11.996,8.186,22.108,19.936,22.108h12.43c4.106,53.795,48.957,96.194,103.805,96.194c5.483,0,10.83-0.534,16.083-1.351
	c-49.946-7.708-88.228-50.754-88.228-102.859v-64.129c0-17.709,14.356-32.065,32.065-32.065h48.317
	c6.676,4.971,14.865,8.016,23.828,8.016c6.582,0,12.7-1.738,18.18-4.55c10.617,7.863,23.702,12.566,37.933,12.566
	c5.547,0,10.899-0.778,16.032-2.102V79.645H151.454z"/>
<path style="fill:#A06E50;" d="M374.023,80.948L343.841,7.5H198.267c-37.94,0-67.586,32.758-63.811,70.51l8.981,89.813h8.015
	c8.854,0,16.032-7.178,16.032-16.032v-35.405c0-17.709,14.356-32.064,32.065-32.064H343.84l-0.001,67.469
	c0,8.855,7.178,16.033,16.033,16.033h8.017l6.671-86.716L374.023,80.948z"/>
<path style="fill:#8C5F4B;" d="M231.616,7.5h-33.348c-37.94,0-67.586,32.758-63.811,70.51l8.981,89.813h8.015
	c8.854,0,16.032-7.178,16.032-16.032l0.001-40.081V71.629C167.487,36.212,196.198,7.5,231.616,7.5z"/>
<g>
	<circle style="fill:#A06E50;" cx="343.839" cy="55.6" r="48.1"/>
	<circle style="fill:#A06E50;" cx="287.729" cy="71.63" r="24.05"/>
</g>
<path style="fill:#B67F5F;" d="M130.638,364.446c12.895,57.207,63.923,99.974,125.026,99.974s112.131-42.766,125.026-99.974
	l-30.764-9.048c-8.913,43.908-47.725,76.957-94.262,76.957s-85.349-33.049-94.262-76.957L130.638,364.446z"/>
<path d="M207.903,168.339c-4.142,0-7.5,3.358-7.5,7.5v8.016c0,4.142,3.358,7.5,7.5,7.5s7.5-3.358,7.5-7.5v-8.016
	C215.403,171.697,212.045,168.339,207.903,168.339z"/>
<path d="M304.096,168.339c-4.143,0-7.5,3.358-7.5,7.5v8.016c0,4.142,3.357,7.5,7.5,7.5s7.5-3.358,7.5-7.5v-8.016
	C311.596,171.697,308.239,168.339,304.096,168.339z"/>
<path d="M285.316,237.291c2.948-2.909,2.98-7.658,0.071-10.606c-2.91-2.949-7.656-2.981-10.606-0.071
	c-2.737,2.701-9.299,5.855-18.781,5.855c-9.482,0-16.043-3.154-18.781-5.855c-2.949-2.91-7.698-2.877-10.606,0.071
	c-2.909,2.948-2.877,7.697,0.071,10.606c6.459,6.373,17.418,10.177,29.316,10.177C267.897,247.468,278.856,243.663,285.316,237.291z
	"/>
<path d="M415.977,366.908l-84.485-24.849c-6.994-2.057-11.879-8.585-11.879-15.876v-34.528
	c25.013-17.396,42.617-44.741,47.019-76.253h4.459c14.617,0,27.154-10.861,28.542-24.727c0.778-7.771-1.764-15.53-6.974-21.288
	c-4.295-4.746-10.103-7.819-16.359-8.757l4.943-64.255c10.974-10.162,17.86-24.679,17.86-40.78C399.103,24.94,374.162,0,343.506,0
	H198.603c-20.199,0-39.556,8.589-53.109,23.566c-13.553,14.976-20.174,35.092-18.164,55.19l8.206,82.062
	c-12.208,2.271-21.954,12.101-23.169,24.23c-0.778,7.771,1.764,15.531,6.974,21.289c5.213,5.762,12.658,9.067,20.425,9.067h5.598
	c4.399,31.522,22.003,58.87,47.023,76.264v34.517c0,7.291-4.885,13.819-11.879,15.876L96.022,366.91
	c-23.498,6.912-39.909,28.845-39.909,53.338V504.5c0,4.142,3.358,7.5,7.5,7.5s7.5-3.358,7.5-7.5v-84.254
	c0-17.885,11.983-33.9,29.142-38.947l24.685-7.26c7.742,26.616,23.711,50.587,45.489,68.063
	c23.964,19.229,54.116,29.818,84.901,29.818c30.781,0,60.929-10.587,84.891-29.81c21.883-17.555,37.902-41.668,45.605-68.434
	l25.919,7.623c17.158,5.046,29.142,21.062,29.142,38.947V504.5c0,4.142,3.357,7.5,7.5,7.5s7.5-3.358,7.5-7.5v-84.254
	C455.886,395.753,439.475,373.819,415.977,366.908z M361.28,160.323h-1.071c-4.705,0-8.532-3.828-8.532-8.532v-41.203
	c4.802-0.711,9.406-2.037,13.729-3.897L361.28,160.323z M159.29,199.887c0-4.142-3.358-7.5-7.5-7.5s-7.5,3.358-7.5,7.5v0.516h-4.524
	c-3.537,0-6.927-1.505-9.303-4.131c-2.407-2.66-3.533-6.115-3.17-9.73c0.63-6.292,6.611-11.22,13.617-11.22h10.88
	c12.976,0,23.532-10.557,23.532-23.532v-35.07c0-13.545,11.02-24.564,24.564-24.564h31.394c4.142,0,7.5-3.358,7.5-7.5
	s-3.358-7.5-7.5-7.5h-31.394c-21.816,0-39.564,17.749-39.564,39.564v35.071c0,4.705-3.828,8.532-8.532,8.532h-1.229l-8.306-83.059
	c-1.589-15.89,3.645-31.793,14.36-43.633C167.33,21.791,182.634,15,198.603,15h144.903c22.385,0,40.597,18.211,40.597,40.597
	s-18.212,40.597-40.597,40.597c-14.574,0-28.108-7.88-35.321-20.566c-2.047-3.6-6.625-4.859-10.227-2.813
	c-3.601,2.047-4.86,6.626-2.813,10.227c0.452,0.795,0.928,1.571,1.415,2.338c-2.697,1.795-5.882,2.798-9.167,2.798
	c-9.125,0-16.549-7.423-16.549-16.548c0-4.142-3.357-7.5-7.5-7.5s-7.5,3.358-7.5,7.5c0,17.396,14.152,31.548,31.549,31.548
	c6.846,0,13.478-2.255,18.895-6.302c8.413,7.568,19.016,12.474,30.388,13.888v41.027c0,12.976,10.557,23.532,23.532,23.532h12.023
	c3.537,0,6.928,1.505,9.304,4.131c2.406,2.659,3.532,6.114,3.17,9.729c-0.63,6.292-6.61,11.221-13.616,11.221h-3.385v-0.439
	c0-4.141-3.356-7.499-7.497-7.5c-0.001,0-0.002,0-0.003,0c-4.14,0-7.497,3.354-7.5,7.495c-0.039,53.286-43.421,96.638-96.706,96.638
	C202.674,296.597,159.29,253.213,159.29,199.887z M330.833,430.409c-21.618,17.343-47.728,26.51-75.504,26.51
	c-27.781,0-53.894-9.169-75.514-26.518c-19.394-15.562-33.597-36.908-40.476-60.599l16.381-4.818
	c5.803,20.023,17.649,38.073,33.908,51.403c18.458,15.133,41.792,23.467,65.701,23.467c18.23,0,36.162-4.799,51.857-13.88
	c3.585-2.074,4.811-6.662,2.736-10.248c-2.075-3.585-6.663-4.81-10.248-2.736c-13.415,7.761-28.749,11.863-44.345,11.863
	c-39.54,0-74.404-26.608-85.22-64.102l14.631-4.303c13.334-3.922,22.646-16.368,22.646-30.267V300.45
	c14.705,7.137,31.199,11.146,48.613,11.146c17.412,0,33.907-4.012,48.613-11.153v25.74c0,13.899,9.313,26.345,22.646,30.267
	l13.403,3.942c-3.597,12.674-10.021,24.474-18.807,34.431c-2.741,3.105-2.445,7.845,0.66,10.586c1.427,1.258,3.196,1.876,4.96,1.876
	c2.077,0,4.144-0.858,5.626-2.538c10.239-11.602,17.734-25.351,21.95-40.123l16.378,4.817
	C364.589,393.281,350.331,414.767,330.833,430.409z"/>
<path d="M215.919,144.291h-16.032c-4.142,0-7.5,3.358-7.5,7.5s3.358,7.5,7.5,7.5h16.032c4.142,0,7.5-3.358,7.5-7.5
	S220.061,144.291,215.919,144.291z"/>
<path d="M296.08,159.291h16.032c4.143,0,7.5-3.358,7.5-7.5s-3.357-7.5-7.5-7.5H296.08c-4.143,0-7.5,3.358-7.5,7.5
	S291.938,159.291,296.08,159.291z"/>
<g>
</g>
<g>
</g>
<g>
</g>
<g>
</g>
<g>
</g>
<g>
</g>
<g>
</g>
<g>
</g>
<g>
</g>
<g>
</g>
<g>
</g>
<g>
</g>
<g>
</g>
<g>
</g>
<g>
</g>
</svg>
