<?xml version="1.0" encoding="iso-8859-1"?>
<!-- Generator: Adobe Illustrator 19.0.0, SVG Export Plug-In . SVG Version: 6.00 Build 0)  -->
<svg version="1.1" id="Capa_1" xmlns="http://www.w3.org/2000/svg" xmlns:xlink="http://www.w3.org/1999/xlink" x="0px" y="0px"
	 viewBox="0 0 512 512" style="enable-background:new 0 0 512 512;" xml:space="preserve">
<path style="fill:#31A1F4;" d="M353.392,138.091L98.827,182.723c-1.759,0.309-3.042,1.836-3.042,3.622v201.597
	c-8.989-4.455-19.237-6.754-30.076-6.181c-31.396,1.657-56.499,27.582-57.196,59.014c-0.755,34.028,26.603,61.85,60.46,61.851
	c27.926,0,55.586-21.378,59.484-49.619c1.907-13.821,0.992-28.148,0.992-42.104c0-41.475,0-82.949,0-124.424v-37.325
	c0-1.794,1.295-3.326,3.063-3.626l187.238-31.714c2.244-0.38,4.292,1.35,4.292,3.626V356.81c-8.99-4.455-19.237-6.754-30.077-6.181
	c-31.396,1.658-56.499,27.583-57.196,59.016c-0.754,34.027,26.604,61.848,60.46,61.848c28.131,0,50.01-19.564,58.1-45.727
	c4.117-13.311,2.376-28.503,2.376-42.323c0-41.371,0-241.729,0-241.729C357.705,139.429,355.642,137.696,353.392,138.091z"/>
<path style="fill:#0781E5;" d="M355.328,425.764c-8.09,26.161-29.971,45.725-58.103,45.725c-3.244,0-6.428-0.258-9.532-0.75
	c23.558-3.817,41.533-21.807,48.696-44.974c4.112-13.312,2.375-28.5,2.375-42.319c0-41.371,0-241.731,0-241.731
	c0-0.361-0.052-0.706-0.147-1.037l14.776-2.589c2.25-0.39,4.31,1.339,4.31,3.626c0,0,0,200.36,0,241.731
	C357.705,397.265,359.448,412.453,355.328,425.764z"/>
<path d="M68.972,510.123c-18.443-0.001-35.702-7.263-48.598-20.45C7.481,476.49,0.607,459.066,1.018,440.609
	c0.784-35.335,29.027-64.473,64.297-66.335c7.782-0.414,15.566,0.517,22.973,2.707V186.344c0-5.438,3.888-10.067,9.245-11.007
	l43.505-7.628c4.082-0.71,7.964,2.012,8.68,6.091c0.715,4.078-2.011,7.964-6.09,8.68l-40.345,7.074v198.388
	c0,2.594-1.341,5.003-3.544,6.371c-2.203,1.368-4.957,1.499-7.282,0.347c-8.116-4.021-17.231-5.885-26.351-5.412
	c-27.48,1.452-49.485,24.159-50.097,51.694c-0.319,14.391,5.038,27.974,15.087,38.249c10.051,10.277,23.503,15.938,37.877,15.938
	c24.989,0,48.829-19.759,52.057-43.147c1.364-9.877,1.196-20.454,1.033-30.681c-0.054-3.407-0.11-172.146-0.11-172.146
	c0-5.471,3.915-10.103,9.309-11.017l187.238-31.715c3.252-0.552,6.561,0.354,9.08,2.482c2.518,2.127,3.962,5.238,3.962,8.535
	v139.371c0,2.594-1.341,5.003-3.545,6.371c-2.204,1.368-4.957,1.499-7.281,0.347c-8.117-4.022-17.222-5.896-26.352-5.411
	c-27.48,1.451-49.485,24.159-50.096,51.695c-0.319,14.391,5.039,27.974,15.088,38.249c10.052,10.276,23.504,15.936,37.877,15.936
	c10.31,0,19.82-2.927,28.263-8.698c3.417-2.336,8.085-1.461,10.42,1.958c2.337,3.418,1.46,8.083-1.958,10.42
	c-10.827,7.401-23.527,11.314-36.725,11.314c-18.441,0-35.7-7.261-48.596-20.447c-12.893-13.182-19.768-30.607-19.359-49.065
	c0.783-35.337,29.025-64.475,64.296-66.336c7.779-0.409,15.566,0.517,22.974,2.706V221.96l-179.598,30.42
	c0,0,0.055,165.333,0.108,168.679c0.172,10.794,0.35,21.955-1.171,32.971C131.614,484.96,101.598,510.123,68.972,510.123z"/>
<path d="M355.858,431.438c-0.641,0-1.292-0.083-1.939-0.256c-4-1.068-6.377-5.178-5.309-9.179
	c2.338-8.755,2.054-18.935,1.779-28.781c-0.09-3.218-0.183-6.544-0.183-9.781V146.261l-159.635,27.988
	c-4.078,0.71-7.964-2.012-8.679-6.091c-0.715-4.079,2.011-7.964,6.09-8.68l164.114-28.773c3.257-0.571,6.584,0.322,9.118,2.451
	c2.533,2.128,3.987,5.247,3.987,8.557v241.729c0,3.028,0.086,6.105,0.177,9.362c0.305,10.918,0.619,22.207-2.281,33.069
	C362.202,429.226,359.171,431.438,355.858,431.438z"/>
<circle style="fill:#E84661;" cx="294.038" cy="33.365" r="23.991"/>
<path style="fill:#CE1D4C;" d="M318.031,33.369c0,13.245-10.746,23.982-23.992,23.982c-11.316,0-20.793-7.817-23.312-18.344
	c3.179,1.559,6.748,2.439,10.526,2.439c13.255,0,23.992-10.736,23.992-23.992c0-1.939-0.23-3.829-0.67-5.638
	C312.543,15.706,318.031,23.893,318.031,33.369z"/>
<path d="M294.038,1.877c-17.362,0-31.488,14.126-31.488,31.488v63.872c0,4.142,3.356,7.497,7.497,7.497s7.497-3.356,7.497-7.497
	V60.174c4.8,2.964,10.449,4.679,16.493,4.679c17.362,0,31.487-14.126,31.487-31.488S311.4,1.877,294.038,1.877z M294.038,49.859
	c-9.095,0-16.493-7.398-16.493-16.493s7.398-16.493,16.493-16.493c9.094,0,16.492,7.398,16.492,16.493
	S303.131,49.859,294.038,49.859z"/>
<circle style="fill:#00DDC2;" cx="480.513" cy="468.947" r="23.991"/>
<path style="fill:#00BCA1;" d="M504.507,468.953c0,13.245-10.746,23.982-23.992,23.982c-11.316,0-20.793-7.817-23.312-18.344
	c3.179,1.559,6.748,2.439,10.526,2.439c13.255,0,23.992-10.736,23.992-23.992c0-1.939-0.23-3.829-0.67-5.638
	C499.019,451.289,504.507,459.476,504.507,468.953z"/>
<path d="M504.503,373.287c-4.142,0-7.497,3.356-7.497,7.497v61.356c-4.8-2.964-10.449-4.679-16.493-4.679
	c-17.362,0-31.488,14.126-31.488,31.488s14.126,31.488,31.488,31.488c16.559,0,30.165-12.853,31.389-29.105
	c0.059-0.381,0.099-0.768,0.099-1.165v-89.383C512,376.643,508.643,373.287,504.503,373.287z M480.512,485.442
	c-9.095,0-16.493-7.398-16.493-16.493c0-9.095,7.398-16.493,16.493-16.493c9.095,0,16.493,7.398,16.493,16.493
	C497.005,478.044,489.606,485.442,480.512,485.442z"/>
<circle style="fill:#FFE269;" cx="31.488" cy="199.911" r="23.991"/>
<path style="fill:#F7D443;" d="M55.483,199.913c0,13.245-10.746,23.982-23.992,23.982c-11.316,0-20.793-7.817-23.312-18.344
	c3.179,1.559,6.748,2.439,10.526,2.439c13.255,0,23.992-10.736,23.992-23.992c0-1.939-0.23-3.829-0.67-5.638
	C49.995,182.249,55.483,190.436,55.483,199.913z"/>
<path d="M55.479,104.247c-4.141,0-7.497,3.356-7.497,7.497V173.1c-4.8-2.964-10.449-4.679-16.493-4.679
	C14.125,168.42,0,182.547,0,199.91s14.125,31.487,31.488,31.487c16.56,0,30.166-12.853,31.388-29.105
	c0.059-0.38,0.099-0.767,0.099-1.164v-89.383C62.976,107.604,59.619,104.247,55.479,104.247z M31.488,216.402
	c-9.095,0-16.493-7.398-16.493-16.492c0-9.095,7.398-16.493,16.493-16.493c9.094,0,16.493,7.398,16.493,16.493
	C47.981,209.002,40.582,216.402,31.488,216.402z"/>
<circle style="fill:#FFE269;" cx="407.658" cy="214.086" r="18.252"/>
<path style="fill:#F7D443;" d="M425.909,214.084c0,10.076-8.175,18.245-18.253,18.245c-8.609,0-15.82-5.947-17.736-13.956
	c2.418,1.187,5.133,1.855,8.008,1.855c10.085,0,18.253-8.168,18.253-18.253c0-1.475-0.175-2.913-0.51-4.29
	C421.733,200.645,425.909,206.874,425.909,214.084z"/>
<circle style="fill:#FFE269;" cx="467.777" cy="196.752" r="18.252"/>
<path style="fill:#F7D443;" d="M486.036,196.759c0,10.077-8.176,18.245-18.253,18.245c-8.609,0-15.819-5.947-17.736-13.956
	c2.418,1.187,5.133,1.855,8.008,1.855c10.085,0,18.253-8.168,18.253-18.253c0-1.475-0.175-2.913-0.51-4.29
	C481.861,183.32,486.036,189.549,486.036,196.759z"/>
<path d="M493.521,140.391c-0.004-0.151-0.01-0.302-0.023-0.454c-0.01-0.118-0.025-0.235-0.04-0.352
	c-0.016-0.121-0.033-0.242-0.056-0.364c-0.027-0.146-0.059-0.289-0.094-0.432c-0.015-0.061-0.023-0.122-0.04-0.183
	c-0.01-0.035-0.024-0.068-0.034-0.103c-0.044-0.152-0.094-0.301-0.146-0.448c-0.032-0.091-0.064-0.182-0.099-0.27
	c-0.053-0.133-0.113-0.262-0.173-0.392c-0.047-0.101-0.093-0.201-0.144-0.299c-0.056-0.106-0.116-0.209-0.177-0.312
	c-0.066-0.113-0.132-0.226-0.203-0.335c-0.054-0.083-0.114-0.162-0.171-0.242c-0.086-0.119-0.171-0.238-0.263-0.352
	c-0.056-0.069-0.116-0.134-0.174-0.201c-0.1-0.115-0.2-0.229-0.307-0.338c-0.064-0.065-0.132-0.126-0.198-0.188
	c-0.107-0.101-0.213-0.201-0.325-0.295c-0.079-0.067-0.162-0.128-0.244-0.191c-0.105-0.081-0.21-0.163-0.32-0.239
	c-0.097-0.067-0.198-0.128-0.299-0.191s-0.201-0.127-0.305-0.185c-0.111-0.062-0.226-0.118-0.341-0.174
	c-0.101-0.05-0.201-0.101-0.304-0.146c-0.115-0.05-0.233-0.094-0.351-0.139c-0.111-0.042-0.222-0.086-0.336-0.123
	c-0.108-0.035-0.218-0.064-0.328-0.095c-0.13-0.036-0.26-0.072-0.393-0.101c-0.095-0.021-0.192-0.037-0.289-0.054
	c-0.152-0.027-0.305-0.052-0.46-0.07c-0.084-0.01-0.169-0.015-0.254-0.022c-0.167-0.013-0.334-0.023-0.503-0.025
	c-0.033,0-0.065-0.005-0.098-0.005c-0.057,0-0.113,0.007-0.17,0.009c-0.155,0.004-0.31,0.01-0.467,0.024
	c-0.117,0.01-0.232,0.025-0.347,0.04c-0.122,0.016-0.244,0.033-0.366,0.056c-0.146,0.027-0.29,0.059-0.433,0.094
	c-0.061,0.015-0.122,0.023-0.183,0.04l-60.127,16.322c-3.267,0.887-5.533,3.852-5.533,7.235v33.801
	c-3.275-1.512-6.917-2.362-10.754-2.362c-14.198,0-25.75,11.551-25.75,25.749c0,14.198,11.552,25.749,25.75,25.749
	c13.526,0,24.64-10.485,25.664-23.753c0.05-0.35,0.085-0.706,0.085-1.07v-52.381l45.132-12.252v22.995
	c-3.275-1.512-6.917-2.362-10.754-2.362c-14.198,0-25.749,11.551-25.749,25.749c0,14.198,11.551,25.749,25.749,25.749
	c13.525,0,24.639-10.484,25.664-23.751c0.05-0.351,0.085-0.706,0.085-1.071v-57.113C493.53,140.51,493.523,140.451,493.521,140.391z
	 M407.654,224.835c-5.931,0-10.755-4.824-10.755-10.754s4.824-10.754,10.755-10.754c5.93,0,10.754,4.824,10.754,10.754
	S413.584,224.835,407.654,224.835z M467.781,207.51c-5.93,0-10.754-4.824-10.754-10.754s4.824-10.754,10.754-10.754
	c5.93,0,10.754,4.824,10.754,10.754S473.711,207.51,467.781,207.51z"/>
<g>
</g>
<g>
</g>
<g>
</g>
<g>
</g>
<g>
</g>
<g>
</g>
<g>
</g>
<g>
</g>
<g>
</g>
<g>
</g>
<g>
</g>
<g>
</g>
<g>
</g>
<g>
</g>
<g>
</g>
</svg>
