<?xml version="1.0" encoding="iso-8859-1"?>
<!-- Generator: Adobe Illustrator 19.0.0, SVG Export Plug-In . SVG Version: 6.00 Build 0)  -->
<svg version="1.1" id="Capa_1" xmlns="http://www.w3.org/2000/svg" xmlns:xlink="http://www.w3.org/1999/xlink" x="0px" y="0px"
	 viewBox="0 0 470 470" style="enable-background:new 0 0 470 470;" xml:space="preserve">
<g>
	<path style="fill:#FFBC99;" d="M238.001,375.299l52.827-160.779l-161.85,161.85l8.727,8.727c2.929,2.929,2.929,7.678,0,10.606
		l-15.742,15.742l1.712,1.712c2.929,2.929,2.929,7.678,0,10.606c-1.464,1.464-3.384,2.197-5.303,2.197s-3.839-0.732-5.303-2.197
		l-66.317-66.317c-2.929-2.929-2.929-7.678,0-10.606c2.929-2.929,7.678-2.929,10.606,0l1.712,1.712l15.742-15.742
		c2.929-2.929,7.678-2.929,10.606,0l8.727,8.727l15.91-15.91c2.929-2.929,7.678-2.929,10.606,0l10.607-10.607
		c-2.929-2.929-2.929-7.678,0-10.606l124.941-124.941L93.545,232.127c-17.086,5.567-32.255,14.838-45.072,27.553
		C26.888,281.095,15,309.562,15,339.838c0,30.276,11.888,58.743,33.473,80.157c44.599,44.246,117.167,44.245,161.766,0
		C223.05,407.287,232.39,392.249,238.001,375.299z M124.501,255.06c2.929-2.929,7.678-2.929,10.606,0
		c0.617,0.617,1.337,0.708,1.712,0.708c0.374,0,1.095-0.092,1.711-0.708c0.617-0.617,0.709-1.337,0.709-1.712
		s-0.092-1.094-0.708-1.711c-2.929-2.929-2.93-7.678-0.001-10.606c2.929-2.93,7.678-2.93,10.606-0.001
		c3.291,3.291,5.103,7.665,5.103,12.318s-1.812,9.028-5.103,12.318c-3.396,3.396-7.857,5.094-12.318,5.094
		c-4.461,0-8.922-1.698-12.318-5.094C121.572,262.737,121.572,257.988,124.501,255.06z M204.848,346.013
		c-3.291-3.291-5.103-7.665-5.103-12.318s1.812-9.028,5.103-12.318c6.792-6.792,17.844-6.792,24.636,0
		c2.929,2.929,2.93,7.678,0.001,10.606c-2.929,2.93-7.678,2.93-10.606,0.001c-0.944-0.944-2.48-0.944-3.424,0
		c-0.617,0.617-0.709,1.337-0.709,1.712s0.092,1.095,0.709,1.712c2.929,2.929,2.929,7.678,0,10.606
		c-1.464,1.464-3.384,2.197-5.303,2.197S206.313,347.478,204.848,346.013z"/>
	<path style="fill:#C4755B;" d="M120.661,325.626c2.929,2.929,2.929,7.678,0,10.606l-15.91,15.91l13.621,13.621l178.798-178.798
		l-13.621-13.621L141.874,315.019c-1.464,1.464-3.384,2.197-5.303,2.197s-3.839-0.732-5.303-2.197L120.661,325.626z"/>
	<polygon style="fill:#C4755B;" points="369.641,87.253 337.151,119.742 350.826,133.309 383.316,100.819 	"/>
	<polygon style="fill:#C4755B;" points="326.545,130.349 294.155,162.738 307.776,176.359 340.22,143.915 	"/>
	<polygon style="fill:#C4755B;" points="412.811,44.082 380.247,76.646 393.922,90.212 426.486,57.648 	"/>
	<path style="fill:#1C1918;" d="M467.782,77.488l-25.324-25.124c-0.013-0.014-0.025-0.029-0.038-0.042
		c-0.016-0.016-0.034-0.029-0.05-0.045l-24.244-24.052c-0.043-0.046-0.057-0.056-0.069-0.069L393.72,4.013
		c-2.94-2.917-7.689-2.898-10.606,0.042c-2.917,2.94-2.898,7.689,0.042,10.606l19.007,18.856l-32.564,32.564l-0.526-0.522
		c-2.94-2.917-7.689-2.898-10.606,0.042c-2.917,2.941-2.898,7.689,0.042,10.606l0.484,0.48l-32.489,32.49l-0.686-0.68
		c-2.94-2.917-7.689-2.897-10.606,0.042c-2.917,2.94-2.898,7.689,0.042,10.606l0.643,0.638l-32.348,32.348l-0.821-0.821
		c-2.929-2.929-7.678-2.929-10.606,0c-2.113,2.113-2.693,5.171-1.757,7.812L88.912,217.861
		c-19.348,6.303-36.508,16.791-51.003,31.171C13.463,273.284,0,305.533,0,339.838c0,34.305,13.463,66.554,37.909,90.805
		c25.215,25.016,58.326,37.521,91.448,37.519c33.114-0.003,66.238-12.509,91.447-37.518c14.501-14.386,25.078-31.42,31.442-50.646
		l59.083-179.82c0.852,0.321,1.749,0.488,2.647,0.488c1.919,0,3.839-0.732,5.303-2.197c2.929-2.929,2.929-7.678,0-10.606
		l-0.897-0.897l32.486-32.486l1.081,1.073c1.463,1.451,3.373,2.176,5.282,2.176c1.929,0,3.858-0.74,5.324-2.218
		c2.917-2.94,2.898-7.689-0.042-10.606l-1.039-1.031l32.49-32.49l1.241,1.231c1.463,1.451,3.373,2.176,5.282,2.176
		c1.929,0,3.858-0.74,5.324-2.218c2.917-2.941,2.898-7.689-0.042-10.606l-1.199-1.189l32.564-32.564l20.083,19.924
		c1.463,1.451,3.373,2.176,5.282,2.176c1.929,0,3.858-0.74,5.324-2.218C470.742,85.154,470.723,80.405,467.782,77.488z
		 M48.473,419.995C26.888,398.581,15,370.114,15,339.838c0-30.276,11.888-58.744,33.473-80.158
		c12.816-12.715,27.985-21.986,45.072-27.553l162.664-52.656L131.268,304.413c-2.929,2.929-2.929,7.678,0,10.606
		c1.464,1.464,3.384,2.197,5.303,2.197s3.839-0.732,5.303-2.197l141.674-141.674l13.621,13.621L118.372,365.763l-13.621-13.621
		l15.91-15.91c2.929-2.929,2.929-7.678,0-10.606c-2.928-2.929-7.677-2.929-10.606,0l-15.91,15.91l-8.727-8.727
		c-2.929-2.929-7.678-2.929-10.606,0l-15.742,15.742l-1.712-1.712c-2.929-2.929-7.678-2.929-10.606,0
		c-2.929,2.929-2.929,7.678,0,10.606l66.317,66.317c1.464,1.464,3.384,2.197,5.303,2.197s3.839-0.732,5.303-2.197
		c2.929-2.929,2.929-7.678,0-10.606l-1.712-1.712l15.742-15.742c2.929-2.929,2.929-7.678,0-10.606l-8.727-8.727l161.85-161.85
		l-52.827,160.779c-5.611,16.949-14.951,31.987-27.762,44.696C165.641,464.24,93.072,464.241,48.473,419.995z M111.356,400.838
		l-41.681-41.681l10.438-10.438l41.681,41.681L111.356,400.838z M294.155,162.738l32.39-32.39l13.675,13.567l-32.444,32.444
		L294.155,162.738z M337.151,119.742l32.49-32.49l13.675,13.567l-32.49,32.49L337.151,119.742z M380.247,76.646l32.564-32.564
		l13.675,13.567l-32.564,32.564L380.247,76.646z"/>
	
		<rect x="88.354" y="345.306" transform="matrix(0.7071 -0.7071 0.7071 0.7071 -236.9681 177.4652)" style="fill:#655F5E;" width="14.762" height="58.945"/>
	<path style="fill:#C4755B;" d="M136.819,270.76c4.461,0,8.922-1.698,12.318-5.094c3.291-3.291,5.103-7.665,5.103-12.318
		s-1.812-9.028-5.103-12.318c-2.929-2.929-7.678-2.929-10.606,0.001c-2.929,2.929-2.928,7.678,0.001,10.606
		c0.617,0.617,0.708,1.336,0.708,1.711s-0.092,1.095-0.709,1.712c-0.617,0.617-1.337,0.708-1.711,0.708
		c-0.375,0-1.095-0.092-1.712-0.708c-2.929-2.929-7.678-2.929-10.606,0c-2.929,2.929-2.929,7.678,0,10.606
		C127.897,269.062,132.358,270.76,136.819,270.76z"/>
	<path style="fill:#C4755B;" d="M215.455,335.407c-0.617-0.617-0.709-1.337-0.709-1.712s0.092-1.095,0.709-1.712
		c0.944-0.943,2.48-0.944,3.424,0c2.929,2.929,7.678,2.929,10.606-0.001c2.929-2.929,2.928-7.678-0.001-10.606
		c-6.792-6.791-17.844-6.792-24.636,0c-3.291,3.291-5.103,7.665-5.103,12.318s1.812,9.028,5.103,12.318
		c1.464,1.464,3.384,2.197,5.303,2.197s3.839-0.732,5.303-2.197C218.384,343.085,218.384,338.336,215.455,335.407z"/>
</g>
<g>
</g>
<g>
</g>
<g>
</g>
<g>
</g>
<g>
</g>
<g>
</g>
<g>
</g>
<g>
</g>
<g>
</g>
<g>
</g>
<g>
</g>
<g>
</g>
<g>
</g>
<g>
</g>
<g>
</g>
</svg>
