<?xml version="1.0" encoding="iso-8859-1"?>
<!-- Generator: Adobe Illustrator 19.0.0, SVG Export Plug-In . SVG Version: 6.00 Build 0)  -->
<svg version="1.1" id="Layer_1" xmlns="http://www.w3.org/2000/svg" xmlns:xlink="http://www.w3.org/1999/xlink" x="0px" y="0px"
	 viewBox="0 0 512 512" style="enable-background:new 0 0 512 512;" xml:space="preserve">
<polygon style="fill:#AEB5CA;" points="422.63,89.37 144.022,367.979 177.962,401.919 492.683,87.199 503.996,8.004 449.121,62.878 
	"/>
<polygon style="fill:#C7CFE2;" points="110.081,334.038 144.022,367.979 422.63,89.37 449.121,62.878 503.996,8.004 424.801,19.318 
	"/>
<path style="fill:#707487;" d="M70.484,339.695l101.821,101.822c6.248,6.248,16.379,6.248,22.627,0
	c6.248-6.248,6.248-16.379,0-22.627L93.111,317.067c-6.248-6.248-16.379-6.248-22.627,0
	C64.236,323.316,64.236,333.446,70.484,339.695z"/>
<path style="fill:#959CB3;" d="M12.689,465.37l33.941,33.941c6.248,6.248,16.379,6.248,22.627,0c6.248-6.248,6.248-16.379,0-22.627
	l-33.941-33.94c-6.248-6.248-16.379-6.248-22.627,0C6.441,448.991,6.441,459.122,12.689,465.37z"/>
<rect x="37.974" y="401.16" transform="matrix(0.7071 -0.7071 0.7071 0.7071 -275.1981 185.9325)" style="fill:#BE876B;" width="97.734" height="47.999"/>
<rect x="324.956" y="264.129" transform="matrix(-0.7071 0.7071 -0.7071 -0.7071 818.4607 291.0349)" style="fill:#C7CFE2;" width="47.999" height="101.795"/>
<g>
	
		<rect x="264.117" y="324.956" transform="matrix(0.7071 0.7071 -0.7071 0.7071 339.0143 -120.5421)" style="fill:#AEB5CA;" width="101.795" height="47.999"/>
	<polygon style="fill:#AEB5CA;" points="76.475,76.475 8.004,8.004 19.317,87.199 185.883,254.908 221.228,221.229 102.545,102.546 
			"/>
</g>
<polygon style="fill:#C7CFE2;" points="87.198,19.318 8.004,8.004 8.004,8.004 76.475,76.475 102.545,102.546 221.228,221.229 
	255.989,188.108 "/>
<path style="fill:#707487;" d="M339.693,441.517l101.822-101.822c6.248-6.248,6.248-16.379,0-22.627s-16.379-6.248-22.627,0
	L317.066,418.89c-6.248,6.248-6.248,16.379,0,22.627C323.315,447.764,333.446,447.764,339.693,441.517z"/>
<path style="fill:#959CB3;" d="M465.369,499.311l33.941-33.941c6.248-6.248,6.248-16.379,0-22.627
	c-6.248-6.248-16.379-6.248-22.627,0l-33.94,33.94c-6.248,6.248-6.248,16.379,0,22.627
	C448.99,505.558,459.122,505.558,465.369,499.311z"/>
<rect x="376.293" y="401.161" transform="matrix(-0.7071 -0.7071 0.7071 -0.7071 425.1598 1026.4285)" style="fill:#BE876B;" width="97.734" height="47.999"/>
<path d="M504.969,437.084c-4.534-4.534-10.561-7.03-16.972-7.03c-3.642,0-7.16,0.807-10.35,2.335l-58.754-58.754l28.282-28.282
	c9.358-9.358,9.358-24.587,0-33.945s-24.586-9.358-33.945,0l-11.312,11.312l-66.32-66.32c-0.135-0.135-0.278-0.256-0.42-0.38
	L498.341,92.858c1.224-1.224,2.019-2.813,2.264-4.527l11.314-79.195c0.357-2.494-0.482-5.01-2.264-6.79
	c-1.781-1.782-4.3-2.624-6.79-2.264l-79.195,11.313c-1.714,0.245-3.303,1.039-4.527,2.264L256,176.802L92.857,13.659
	c-1.224-1.224-2.813-2.019-4.527-2.264L9.135,0.082c-2.493-0.36-5.01,0.482-6.79,2.264c-1.782,1.781-2.62,4.297-2.264,6.79
	l11.313,79.195c0.245,1.714,1.039,3.303,2.264,4.527l162.744,162.743c0.135,0.135,0.278,0.256,0.42,0.38l-66.74,66.741
	L98.77,311.409c-9.359-9.358-24.586-9.358-33.945,0s-9.359,24.587,0,33.945l28.282,28.282l-58.781,58.78
	c-8.918-4.244-19.924-2.704-27.296,4.669c-4.534,4.534-7.029,10.561-7.029,16.972c0,6.411,2.497,12.439,7.029,16.972l33.941,33.941
	c4.534,4.534,10.561,7.03,16.972,7.03s12.438-2.497,16.972-7.03c4.534-4.534,7.03-10.561,7.03-16.972
	c0-3.642-0.807-7.16-2.335-10.35l58.754-58.754l28.282,28.282c4.68,4.68,10.826,7.02,16.972,7.02c6.146,0,12.293-2.34,16.972-7.02
	c9.358-9.358,9.358-24.587,0-33.945l-11.312-11.312l66.74-66.74c0.123,0.142,0.245,0.285,0.38,0.42l66.32,66.32l-11.312,11.312
	c-9.358,9.358-9.358,24.587,0,33.945c4.68,4.68,10.826,7.02,16.972,7.02c6.147,0,12.293-2.34,16.972-7.02l28.282-28.282
	l58.754,58.754c-1.527,3.191-2.335,6.708-2.335,10.35c0,6.411,2.497,12.439,7.03,16.972c4.534,4.534,10.561,7.03,16.972,7.03
	c6.411,0,12.439-2.497,16.972-7.03l33.941-33.941c4.534-4.534,7.03-10.561,7.03-16.972
	C511.999,447.645,509.502,441.618,504.969,437.084z M324.281,267.718l66.32,66.32l-22.623,22.623l-66.32-66.32
	c-0.135-0.135-0.278-0.257-0.42-0.38l22.663-22.663C324.024,267.44,324.146,267.583,324.281,267.718z M187.718,244.283
	L26.862,83.425l-7.541-52.787l56.561,56.562c1.563,1.563,3.61,2.344,5.659,2.344c2.048,0,4.096-0.781,5.659-2.344
	c3.126-3.125,3.126-8.192,0-11.317L30.639,19.322l52.787,7.541l161.256,161.256l-22.643,22.643c-0.123-0.142-0.245-0.285-0.38-0.42
	L109.827,98.51c-3.125-3.125-8.192-3.125-11.317,0c-3.125,3.125-3.125,8.192,0,11.317l111.832,111.832
	c0.135,0.135,0.278,0.257,0.42,0.38l-22.663,22.663C187.975,244.561,187.854,244.418,187.718,244.283z M63.598,493.652
	c-1.511,1.511-3.518,2.342-5.655,2.342c-2.137,0-4.144-0.831-5.655-2.342l-33.941-33.941c-1.511-1.511-2.342-3.518-2.342-5.655
	s0.831-4.145,2.342-5.654c1.56-1.56,3.606-2.339,5.655-2.339c2.048,0,4.096,0.779,5.655,2.338l33.941,33.941
	c1.511,1.511,2.342,3.518,2.342,5.655S65.109,492.142,63.598,493.652z M69.257,465.366l-22.623-22.623l57.791-57.791l22.623,22.623
	L69.257,465.366z M189.274,435.858c-1.511,1.511-3.518,2.342-5.655,2.342c-2.137,0-4.144-0.831-5.655-2.342L76.142,334.036
	c-1.511-1.511-2.342-3.518-2.342-5.655c0-2.137,0.831-4.145,2.342-5.655c1.511-1.511,3.518-2.342,5.655-2.342
	c2.137,0,4.144,0.831,5.655,2.342l16.97,16.97l33.936,33.936c0.002,0.002,0.003,0.003,0.005,0.005s0.003,0.003,0.005,0.005
	l33.936,33.936l16.97,16.97c1.511,1.511,2.342,3.518,2.342,5.655S190.784,434.347,189.274,435.858z M155.339,367.979L413.49,109.828
	c3.126-3.125,3.126-8.192,0-11.317c-3.125-3.125-8.193-3.125-11.318,0l-258.15,258.15l-22.623-22.623L428.574,26.862l52.787-7.541
	L424.8,75.884c-3.126,3.125-3.126,8.192,0,11.317c1.563,1.563,3.61,2.344,5.659,2.344c2.048,0,4.096-0.781,5.659-2.344
	l56.561-56.562l-7.541,52.787L177.962,390.602L155.339,367.979z M267.717,324.281c-0.135-0.135-0.278-0.256-0.42-0.38l22.663-22.663
	c0.123,0.142,0.245,0.285,0.38,0.42l66.32,66.32l-22.623,22.623L267.717,324.281z M334.035,435.858
	c-1.511,1.511-3.518,2.342-5.655,2.342c-2.137,0-4.144-0.831-5.655-2.342c-1.511-1.511-2.342-3.518-2.342-5.655
	c0-2.137,0.831-4.145,2.342-5.655l16.97-16.97l33.936-33.936c0.002-0.002,0.003-0.003,0.005-0.005s0.003-0.003,0.005-0.005
	l33.936-33.936l16.97-16.97c1.511-1.511,3.518-2.342,5.655-2.342s4.145,0.831,5.655,2.342c1.511,1.511,2.342,3.518,2.342,5.655
	c0,2.137-0.831,4.144-2.342,5.655L334.035,435.858z M407.575,384.953l57.791,57.791l-22.623,22.623l-57.791-57.791L407.575,384.953z
	 M493.651,459.711l-33.941,33.941c-1.511,1.511-3.518,2.342-5.655,2.342c-2.137,0-4.144-0.831-5.655-2.342
	c-1.511-1.511-2.342-3.518-2.342-5.655c0-2.137,0.831-4.144,2.342-5.655l33.941-33.941c1.511-1.511,3.518-2.342,5.655-2.342
	c2.137,0,4.144,0.831,5.655,2.342c1.511,1.511,2.342,3.518,2.342,5.655C495.993,456.193,495.162,458.201,493.651,459.711z"/>
<g>
</g>
<g>
</g>
<g>
</g>
<g>
</g>
<g>
</g>
<g>
</g>
<g>
</g>
<g>
</g>
<g>
</g>
<g>
</g>
<g>
</g>
<g>
</g>
<g>
</g>
<g>
</g>
<g>
</g>
</svg>
