<?xml version="1.0" encoding="iso-8859-1"?>
<!-- Generator: Adobe Illustrator 19.0.0, SVG Export Plug-In . SVG Version: 6.00 Build 0)  -->
<svg version="1.1" id="Layer_1" xmlns="http://www.w3.org/2000/svg" xmlns:xlink="http://www.w3.org/1999/xlink" x="0px" y="0px"
	 viewBox="0 0 511.999 511.999" style="enable-background:new 0 0 511.999 511.999;" xml:space="preserve">
<path style="fill:#FF8A3B;" d="M325.515,222.644l-36.159-36.171c-18.842-16.311-53.47-36.702-88.204-18.11
	c-40.945,21.861-25.891,52.644-57.829,76.311c-23.705,17.547-91.278,2.555-129.581,73.361
	c-26.347,48.712,2.421,100.36,37.848,135.824l3.293,3.267l3.269,3.282c35.439,35.439,87.099,64.195,135.811,37.836
	c70.807-38.303,55.815-105.852,73.362-129.557c23.655-31.937,54.462-16.896,76.311-57.842
	C362.227,276.112,341.827,241.486,325.515,222.644z"/>
<path style="fill:#261D16;" d="M161.345,437.067c-2.114,0-4.226-0.806-5.839-2.418l-78.161-78.162
	c-3.225-3.226-3.225-8.453,0-11.677c3.227-3.225,8.454-3.222,11.677,0l78.161,78.162c3.225,3.226,3.225,8.453,0,11.677
	C165.57,436.261,163.457,437.067,161.345,437.067z"/>
<g>
	<path style="fill:#4D3A2D;" d="M252.265,322.321c-17.239,17.286-45.354,17.275-62.604,0c-17.275-17.227-17.289-45.329-0.012-62.569
		c17.275-17.274,45.377-17.286,62.628-0.073C269.551,276.968,269.54,305.118,252.265,322.321z"/>
	<path style="fill:#4D3A2D;" d="M485.92,26.073c-16.853-16.854-35.728-12.474-35.728-12.474l-52.616,52.616l-12.98,28.628
		l0.699,31.855l31.836,0.718l28.647-12.999l52.616-52.616C498.395,61.8,502.774,42.925,485.92,26.073z"/>
</g>
<path style="fill:#261D16;" d="M384.598,94.841l-158.195,152.28c0,0,17.038-2.79,29.645,9.926
	c12.608,12.715,8.834,28.531,8.834,28.531l152.251-158.164L384.598,94.841z"/>
<path d="M93.868,339.964c-3.225-3.222-8.452-3.225-11.677,0c-3.225,3.226-3.225,8.453,0,11.677l78.161,78.162
	c1.613,1.612,3.725,2.418,5.839,2.418c2.113,0,4.226-0.806,5.839-2.418c3.225-3.226,3.225-8.453,0-11.677L93.868,339.964z"/>
<path d="M511.284,58.821c0.221-0.953,5.186-23.567-14.678-43.433C476.739-4.476,454.127,0.485,453.172,0.71
	c-1.504,0.348-2.88,1.113-3.972,2.204l-3.171,3.171l-1.946-1.946c-3.226-3.223-8.452-3.225-11.676,0.001
	c-3.225,3.225-3.225,8.453,0.001,11.676l1.945,1.945l-8.792,8.792l-1.946-1.946c-3.226-3.223-8.452-3.225-11.676,0.001
	c-3.225,3.225-3.225,8.453,0.001,11.676l1.945,1.945l-8.792,8.792l-1.946-1.946c-3.226-3.223-8.453-3.223-11.677,0
	c-3.225,3.226-3.225,8.453,0,11.677l3.577,3.577l-12.351,24.702l-88.916,85.592c-18.212-14.052-54.192-34.452-91.67-14.39
	c-24.982,13.337-31.633,30.333-37.501,45.328c-4.676,11.948-8.714,22.266-21.351,31.63c-5.878,4.351-16.729,6.514-29.295,9.019
	c-31.392,6.258-74.385,14.827-102.636,67.049c-33.657,62.228,16.249,122.545,39.295,145.616l6.538,6.527
	c17.518,17.517,56.592,50.598,101.697,50.598c14.191-0.001,28.979-3.276,43.88-11.339c52.225-28.25,60.795-71.233,67.052-102.618
	c2.505-12.562,4.668-23.412,9.017-29.287c9.362-12.641,19.682-16.681,31.631-21.359c14.998-5.871,31.997-12.526,45.323-37.5
	c20.063-37.484-0.342-73.464-14.398-91.677l85.579-88.902l24.727-12.364l3.571,3.57c1.613,1.612,3.725,2.418,5.838,2.418
	s4.226-0.806,5.839-2.419c3.225-3.225,3.225-8.453-0.001-11.676l-1.945-1.945l8.792-8.792l1.945,1.945
	c1.613,1.612,3.727,2.418,5.839,2.418s4.226-0.806,5.839-2.418c3.225-3.226,3.225-8.453,0-11.677l-1.945-1.945l8.791-8.791
	l1.945,1.945c1.613,1.612,3.727,2.418,5.839,2.418s4.226-0.806,5.839-2.418c3.225-3.226,3.225-8.453,0-11.677l-1.945-1.945
	l3.169-3.17C510.171,61.701,510.936,60.325,511.284,58.821z M484.927,27.066c10.416,10.415,10.853,21.531,10.524,26.002
	l-7.036,7.036c-0.008,0.008-0.015,0.013-0.022,0.02c-0.008,0.008-0.013,0.015-0.02,0.022l-20.426,20.426
	c-0.008,0.008-0.015,0.013-0.022,0.02c-0.008,0.008-0.013,0.015-0.02,0.022l-19.519,19.519l-24.773,12.386l-24.124-24.152
	l12.39-24.779l47.041-47.041C463.453,16.217,474.54,16.676,484.927,27.066z M273.749,264.649
	c-2.581-5.759-6.202-11.063-10.794-15.658c-4.645-4.636-9.954-8.206-15.622-10.736L389.33,101.566l21.085,21.11L273.749,264.649z
	 M261.815,286.22c-0.012,9.631-3.752,18.652-10.531,25.403c-0.007,0.007-0.014,0.014-0.021,0.021
	c-6.771,6.79-15.803,10.531-25.433,10.535c-0.006,0-0.009,0-0.013,0c-9.638,0-18.683-3.742-25.482-10.551
	c-6.793-6.773-10.535-15.807-10.536-25.436c-0.002-9.63,3.736-18.665,10.53-25.445c7.041-7.04,16.289-10.56,25.532-10.56
	c1.406,0,2.81,0.091,4.208,0.254c0.143,0.021,0.285,0.039,0.428,0.052c7.606,0.978,14.956,4.366,20.783,10.18
	c5.699,5.704,9.24,12.998,10.235,20.897c0.009,0.084,0.02,0.167,0.031,0.251C261.721,283.269,261.818,284.737,261.815,286.22z
	 M341.196,302.114c-10.46,19.604-22.657,24.38-36.778,29.907c-12.512,4.898-26.693,10.45-38.884,26.909
	c-6.549,8.848-9.048,21.376-11.94,35.885c-5.931,29.744-13.311,66.761-58.716,91.322c-52.494,28.408-105.631-16.002-126.03-36.4
	l-6.57-6.558c-20.405-20.427-64.8-73.601-36.428-126.061c24.561-45.401,61.587-52.781,91.34-58.712
	c14.511-2.892,27.043-5.39,35.895-11.944c16.455-12.195,22.004-26.373,26.901-38.882c5.525-14.119,10.298-26.312,29.908-36.782
	c28.043-15.012,56.197-0.146,71.84,11.422l-53.518,51.517c-14.244-0.633-28.703,4.475-39.553,15.326
	c-9.917,9.896-15.377,23.084-15.374,37.132c0.002,14.049,5.468,27.234,15.377,37.115c9.906,9.921,23.1,15.384,37.154,15.384
	c0.006,0,0.012,0,0.019,0c14.043-0.006,27.224-5.467,37.114-15.381c9.9-9.866,15.362-23.031,15.38-37.073
	c0.001-0.829-0.021-1.656-0.057-2.478l51.495-53.495C341.338,245.908,356.209,274.064,341.196,302.114z"/>
<g>
</g>
<g>
</g>
<g>
</g>
<g>
</g>
<g>
</g>
<g>
</g>
<g>
</g>
<g>
</g>
<g>
</g>
<g>
</g>
<g>
</g>
<g>
</g>
<g>
</g>
<g>
</g>
<g>
</g>
</svg>
