<svg id="_x33_0" enable-background="new 0 0 64 64" height="512" viewBox="0 0 64 64" width="512" xmlns="http://www.w3.org/2000/svg"><g><g><g><path d="m56.7 60.18c-.46-2.72-1.75-5.23-3.7-7.18.66-1.99 1-4.07 1-6.16v-2c0-1.85-.55-3.66-1.58-5.2-1.48-2.23-3.85-3.72-6.49-4.08-.09-.02-.18-.03-.27-.04l-4.66-.52-2 5s-1.25-.42-2.4-1.52c-.6 3.52-4.6 5.52-4.6 5.52s-4-2-4.6-5.52c-1.15 1.1-2.4 1.52-2.4 1.52l-2-5-2.96.33-1.7.19c-2.75.3-5.23 1.81-6.76 4.12-1.03 1.54-1.58 3.35-1.58 5.2v2c0 2.09.34 4.17 1 6.16-1.95 1.95-3.24 4.46-3.7 7.18l-.3 1.82h8c1.98-2.64 3.47-5.63 4.37-8.81l.3-1.04c.65.67 1.44 1.19 2.33 1.51v.22c0 2.74-.34 5.46-1 8.12h22c-.66-2.66-1-5.38-1-8.12v-.22c.89-.32 1.68-.84 2.33-1.51l.3 1.04c.9 3.18 2.39 6.17 4.37 8.81h8z" fill="#ecc19c"/></g><g><path d="m13.72 16.75 2.28-.23 3.15-.33c1.13-.12 2.1-.86 2.5-1.93l.4-1.07c1.17-3.12 4.16-5.19 7.49-5.19h3.46l6-6c1.3 1.96 2 4.25 2 6.61v.39h5l-1.66 3.32c-.46.91-1.18 1.64-2.05 2.11l5.71 8.57h-7s3.83 5.75 4.93 12.55v.01c-.09-.02-.18-.03-.27-.04l-4.66-.52-2 5s-1.25-.42-2.4-1.52c-.6 3.52-4.6 5.52-4.6 5.52s-4-2-4.6-5.52c-1.15 1.1-2.4 1.52-2.4 1.52l-2-5-2.96.33c.39-3.87 3.96-8.33 3.96-8.33h-7.44c-.92 0-1.72-.62-1.94-1.51l-.62-2.49c-1.1 0-2-.9-2-2v-2.27c0-.99.73-1.83 1.72-1.98z" fill="#cf9e76"/></g><g><path d="m32 12v1c0 1.66-1.34 3-3 3h-3v-1c0-1.66 1.34-3 3-3z" fill="#838f9b"/></g></g><g><path d="m33 13v-2h-4c-2.206 0-4 1.794-4 4v2h4c2.206 0 4-1.794 4-4zm-4 0h2c0 1.103-.897 2-2 2h-2c0-1.103.897-2 2-2z"/><path d="m38 15v-1h-3v2h.838c-.308.927-1.037 1.679-2.001 2l-.154.051.633 1.897.153-.051c2.113-.703 3.531-2.671 3.531-4.897z"/><path d="m29.168 19.555 1.213 1.819-2.624.656.486 1.94 5.376-1.344-2.787-4.181z"/><circle cx="24" cy="50" r="1"/><circle cx="40" cy="50" r="1"/><path d="m57.847 61-.163-.979c-.457-2.742-1.681-5.248-3.551-7.284.575-1.915.867-3.897.867-5.899v-1.998c0-2.056-.603-4.046-1.743-5.758-1.513-2.268-3.832-3.826-6.468-4.388-.871-4.601-2.84-8.599-4.021-10.694h7.101l-6.196-9.294c.641-.517 1.179-1.172 1.564-1.942l2.381-4.764h-5.64c-.109-2.341-.84-4.596-2.146-6.555l-.677-1.015-6.569 6.57h-3.042c-3.73 0-7.117 2.347-8.427 5.84l-.4 1.069c-.269.716-.907 1.209-1.667 1.288l-5.473.568c-1.47.21-2.577 1.486-2.577 2.969v2.266c0 1.371.93 2.517 2.188 2.874l.463 1.853c.334 1.338 1.531 2.273 2.911 2.273h5.496c-1.026 1.554-2.426 4.005-2.895 6.42l-.929.103c-3.055.339-5.785 2.001-7.491 4.559-1.14 1.711-1.743 3.702-1.743 5.758v1.998c0 2.002.292 3.984.868 5.899-1.871 2.036-3.094 4.542-3.551 7.284l-.164.979h-5.153v2h62v-2zm-33.446-32.869 1.954.489c1.01.252 2.05.38 3.09.38 2.524 0 4.968-.74 7.109-2.168l-.554-.832-.597-.804c-2.5 1.667-5.648 2.211-8.563 1.483l-2.598-.649-7.68-.03c-.46 0-.859-.312-.97-.758l-.311-1.242h3.483c1.617 0 3.236-.382 4.683-1.105l-.895-1.789c-1.17.585-2.48.894-3.788.894h-4.764c-.551 0-1-.449-1-1v-2.266c0-.494.369-.919.82-.985l1.18-.122v2.373h2v-2.58l2-.207v2.787h2v-3.43c.712-.456 1.277-1.129 1.589-1.958l.401-1.07c1.018-2.717 3.652-4.542 6.554-4.542h3.87l5.38-5.38c.71 1.378 1.097 2.891 1.174 4.448-1.073.148-2.068.618-2.847 1.397l-.829.829 1.414 1.414.829-.829c.559-.559 1.332-.879 2.122-.879h3.725l-.935 1.87c-.656 1.314-1.978 2.13-3.447 2.13v2c.666 0 1.306-.122 1.911-.33l4.22 6.33h-6.303c-.267 0-.519-.104-.708-.293l-1.414-1.414-1.414 1.414 1.414 1.414c.567.567 1.321.879 2.123.879h.618c.805 1.32 3.181 5.494 4.247 10.404l-3.12-.346-1.742-2.613-1.664 1.109 1.708 2.563-1.411 3.527c-.815-.473-1.995-1.396-2.517-2.96l-1.897.633c.335 1.005.86 1.81 1.437 2.453-.419 1.476-1.539 2.633-2.488 3.378v-4.148h-2v4.152c-.949-.742-2.068-1.898-2.488-3.383.576-.643 1.102-1.448 1.437-2.453l-1.897-.633c-.516 1.549-1.702 2.477-2.519 2.955l-1.409-3.521 1.708-2.563-1.664-1.109-1.742 2.613-1.157.128c.661-2.471 2.368-5.005 3.132-6.055zm-16.112 32.219c.422-2.531 1.604-4.828 3.418-6.643l.437-.437-.195-.586c-.63-1.889-.949-3.856-.949-5.846v-1.998c0-1.659.487-3.267 1.407-4.648 1.377-2.065 3.581-3.406 6.047-3.681l3.899-.433 2.068 5.169.895-.298c.062-.021.729-.25 1.558-.785 1.306 3.009 4.521 4.653 4.678 4.731l.448.223.447-.224c.157-.078 3.372-1.722 4.678-4.731.829.535 1.497.765 1.558.785l.895.298 2.068-5.169 3.899.433c2.466.274 4.67 1.616 6.047 3.681.921 1.382 1.408 2.99 1.408 4.649v1.998c0 1.99-.319 3.957-.949 5.846l-.195.586.437.437c1.814 1.814 2.996 4.111 3.418 6.643l.108.65h-6.292c-1.771-2.455-3.106-5.166-3.939-8.083l-.149-.52c.974-1.203 1.561-2.732 1.561-4.397v-7h-2v7c0 2.757-2.243 5-5 5h-4c-1.654 0-3-1.346-3-3v-3h-2v3c0 1.654-1.346 3-3 3h-4c-2.757 0-5-2.243-5-5v-7h-2v7c0 1.665.587 3.194 1.561 4.397l-.149.52c-.833 2.917-2.168 5.628-3.939 8.083h-6.292zm11.911-6.48c.251.163.515.308.787.438-.03 2.251-.298 4.495-.792 6.691h-3.305c1.432-2.209 2.545-4.596 3.31-7.129zm2.768 1.045c.338.051.681.085 1.032.085h4c1.641 0 3.088-.806 4-2.031.912 1.225 2.359 2.031 4 2.031h4c.351 0 .694-.034 1.032-.085.062 2.045.305 4.082.728 6.085h-19.519c.422-2.003.665-4.039.727-6.085zm20.045-.606c.272-.13.536-.275.787-.438.765 2.533 1.877 4.919 3.31 7.13h-3.305c-.493-2.198-.762-4.441-.792-6.692z"/></g></g></svg>