<svg height="511pt" viewBox="0 0 511.99929 511" width="511pt" xmlns="http://www.w3.org/2000/svg"><path d="m85.199219 297.136719-10.636719 8.480469-18.5625 14.882812v-40.003906l11.441406-7.679688c2.558594-1.679687 5.4375-2.480468 8.320313-2.480468 3.839843 0 7.679687 1.441406 10.480469 4.242187.796874.71875 1.4375 1.597656 2.078124 2.480469 4.320313 6.480468 3.039063 15.199218-3.121093 20.078125zm0 0" fill="#d6cfc8"/><g fill="#6c2c91"><path d="m24.5625 438.898438 23.4375 65.597656-24-64zm0 0"/><path d="m432 328.496094 8 32-24 16-16 112-24-72v88h-240v-88l-24 72-16-112-24-16 8-32-15.277344 3.359375 9.839844-26.238281 10.640625-8.480469c6.15625-4.878907 7.4375-13.597657 3.117187-20.078125-.640624-.882813-1.277343-1.761719-2.078124-2.480469l9.757812-26.082031s18.878906 49.042968 69.601562 79.761718c13.199219-37.199218 48.636719-63.761718 90.398438-63.761718 41.757812 0 77.199219 26.5625 90.398438 63.761718 50.71875-30.71875 69.601562-79.761718 69.601562-79.761718l9.757812 26.082031c-.800781.71875-1.441406 1.597656-2.078124 2.480469-4.320313 6.480468-3.039063 15.199218 3.117187 20.078125l10.640625 8.480469v.078124l9.839844 26.160157zm0 0"/><path d="m487.996094 440.496094-23.996094 64 23.4375-65.597656zm0 0"/></g><path d="m416 248.5s-18.882812 49.039062-69.601562 79.757812c-13.199219-37.199218-48.640626-63.757812-90.398438-63.757812-41.761719 0-77.199219 26.558594-90.398438 63.757812-50.722656-30.71875-69.601562-79.757812-69.601562-79.757812h96l.320312-1.121094c13.679688-3.679687 23.679688-16.082031 23.679688-30.878906l-8-24 32 32 16 8 16-8 32-32-8 24c0 14.796875 10 27.199219 23.679688 30.878906l.320312 1.121094zm0 0" fill="#ebe5dd"/><path d="m312 144.5-8 48-32 31.996094-16 8-16-8-32-31.996094-8-48 56-48zm0 0" fill="#ffb398"/><path d="m352 72.5-22.242188 40.078125c-.558593-.078125-1.199218-.078125-1.757812-.078125l-10.320312-2.320312-61.679688-13.679688-61.679688 13.679688-10.320312 2.320312c-.558594 0-1.199219 0-1.761719.078125l-22.238281-40.078125 16-32 24-8 32-24h48l31.996094 24 24 8zm0 0" fill="#6c2c91"/><path d="m205.65625 26.84375c-3.125-3.125-8.1875-3.125-11.3125 0s-3.125 8.1875 0 11.3125l40 40c1.5625 1.5625 3.609375 2.34375 5.65625 2.34375s4.09375-.78125 5.65625-2.34375c3.125-3.125 3.125-8.1875 0-11.3125zm0 0" fill="#ffd422"/><path d="m317.65625 26.84375c-3.125-3.125-8.1875-3.125-11.3125 0l-40 40c-3.125 3.125-3.125 8.1875 0 11.3125 1.5625 1.5625 3.609375 2.34375 5.65625 2.34375s4.09375-.78125 5.65625-2.34375l40-40c3.125-3.125 3.125-8.1875 0-11.3125zm0 0" fill="#ffd422"/><path d="m279.429688 173.53125-16-40c-1.640626-4.117188-6.328126-6.109375-10.398438-4.460938-4.101562 1.636719-6.101562 6.296876-4.460938 10.398438l7.429688 29.027344h-8c-4.421875 0-8 3.578125-8 8 0 4.425781 3.578125 8.003906 8 8.003906h24c2.65625 0 5.132812-1.320312 6.625-3.519531 1.484375-2.191407 1.789062-4.988281.804688-7.449219zm0 0" fill="#f49b7f"/><path d="m416 240.496094v8.003906h-88c-2.878906 0-5.679688-.402344-8.320312-1.121094-13.679688-3.679687-23.679688-16.082031-23.679688-30.878906l8-24 8-48-56-48 61.679688 13.679688 10.320312 2.320312c.558594 0 1.199219 0 1.757812.078125 10.320313.402344 19.679688 4.800781 26.558594 11.601563 7.203125 7.28125 11.679688 17.28125 11.679688 28.320312v40c6.640625 0 12.640625 2.71875 16.960937 7.039062 4.320313 4.320313 7.042969 10.320313 7.042969 16.960938 6.636719 0 12.640625 2.71875 16.957031 7.039062 4.320313 4.320313 7.042969 10.320313 7.042969 16.957032zm0 0" fill="#ffd422"/><path d="m208 192.5 8 23.996094c0 14.800781-10 27.203125-23.679688 30.882812-2.640624.71875-5.441406 1.117188-8.320312 1.117188h-88v-8c0-6.640625 2.71875-12.640625 7.039062-16.960938 4.320313-4.320312 10.320313-7.039062 16.960938-7.039062 0-6.640625 2.71875-12.640625 7.039062-16.960938 4.320313-4.320312 10.320313-7.039062 16.960938-7.039062v-40c0-11.039063 4.480469-21.039063 11.679688-28.320313 6.878906-6.796875 16.242187-11.199219 26.558593-11.597656.5625-.082031 1.203125-.082031 1.761719-.082031l10.320312-2.320313 61.679688-13.679687-56 48zm0 0" fill="#ffd422"/><path d="m352 360.496094c0 33.359375-17.042969 62.800781-42.882812 80h-106.15625c-25.921876-17.121094-42.960938-46.558594-42.960938-80 0-11.359375 1.917969-22.160156 5.601562-32.238282 13.199219-37.199218 48.636719-63.761718 90.398438-63.761718 41.757812 0 77.199219 26.5625 90.398438 63.761718 3.679687 10.078126 5.601562 20.878907 5.601562 32.238282zm0 0" fill="#5aaae7"/><path d="m328 456.496094v16h-144v-16c0-8.800782 7.199219-16 16-16h112c8.800781 0 16 7.199218 16 16zm0 0" fill="#e8bf13"/><path d="m344 504.496094h-176v-16c0-8.835938 7.164062-16 16-16h144c8.835938 0 16 7.164062 16 16zm0 0" fill="#ffd422"/><path d="m312 344.496094c0 12.242187-3.042969 23.761718-8.480469 33.839844-2.242187-1.199219-4.800781-1.839844-7.519531-1.839844-8.800781 0-16 7.203125-16 16 0 3.523437 1.121094 6.882812 3.199219 9.519531-12 9.121094-27.039063 14.480469-43.199219 14.480469-39.757812 0-72-32.238282-72-72 0-39.757813 32.242188-71.996094 72-71.996094s72 32.238281 72 71.996094zm0 0" fill="#a7d9f2"/><path d="m312 392.496094c0 8.800781-7.199219 16-16 16-5.28125 0-9.921875-2.558594-12.800781-6.480469-2.082031-2.640625-3.199219-6-3.199219-9.519531 0-8.796875 7.199219-16 16-16 2.71875 0 5.277344.640625 7.519531 1.839844 5.039063 2.722656 8.480469 8.082031 8.480469 14.160156zm0 0" fill="#fff"/><path d="m216 304.5c0 8.835938-7.164062 16-16 16s-16-7.164062-16-16c0-8.839844 7.164062-16.003906 16-16.003906s16 7.164062 16 16.003906zm0 0" fill="#fff"/><path d="m312 144.5 13.605469-4.539062c5.964843-1.988282 12.480469.714843 15.292969 6.335937 1.929687 3.863281 1.753906 8.445313-.46875 12.148437l-17.761719 29.605469c-1.65625 2.757813-4.636719 4.449219-7.855469 4.449219-5.660156 0-9.964844-5.085938-9.035156-10.667969zm0 0" fill="#ffb398"/><path d="m200 144.5-13.609375-4.539062c-5.960937-1.988282-12.480469.714843-15.289063 6.335937-1.933593 3.863281-1.757812 8.445313.464844 12.148437l17.765625 29.605469c1.65625 2.757813 4.636719 4.449219 7.855469 4.449219 5.660156 0 9.964844-5.085938 9.035156-10.667969zm0 0" fill="#ffb398"/><path d="m70.558594 228.097656-14.558594 36.398438v72l-32 8-8-72 24-32 15.601562-20.796875c1.757813-2.320313 4.316407-3.441407 6.878907-3.441407 3.121093 0 6.160156 1.679688 7.761719 4.800782 1.117187 2.160156 1.199218 4.71875.316406 7.039062zm0 0" fill="#ebe5dd"/><path d="m112 488.496094-32 16h-32l-23.4375-65.597656-16.5625-46.402344 24-24-24-24 56.71875-12.640625 15.28125-3.359375-8 32 24 16zm0 0" fill="#8034ad"/><path d="m40 240.496094-24 32-8-48 16.480469-27.519532c3.28125-5.359374 11.199219-5.117187 14 .5625.558593 1.117188.878906 2.398438.878906 3.597657 0 .882812-.160156 1.679687-.398437 2.480469l-6.960938 20.878906zm0 0" fill="#d6cfc8"/><path d="m495.996094 272.496094-8 72-31.996094-8v-72l-14.5625-36.398438c-.878906-2.320312-.796875-4.878906.320312-7.039062 1.601563-3.121094 4.640626-4.800782 7.761719-4.800782 2.558594 0 5.117188 1.121094 6.878907 3.441407l15.601562 20.796875zm0 0" fill="#ebe5dd"/><path d="m456 280.496094v40l-18.5625-14.796875v-.082031l-10.640625-8.480469c-6.15625-4.878907-7.4375-13.597657-3.117187-20.078125.640624-.878906 1.277343-1.761719 2.078124-2.480469 2.800782-2.800781 6.640626-4.238281 10.480469-4.238281 2.878907 0 5.757813.796875 8.320313 2.480468zm0 0" fill="#d6cfc8"/><path d="m479.996094 368.496094 24.003906 24-16.5625 46.402344-23.4375 65.597656h-32l-32-16 16-112 24-16-8-32 15.277344 3.359375 56.722656 12.640625zm0 0" fill="#8034ad"/><path d="m504 224.496094-8.003906 48-23.996094-32 8-16-6.960938-20.878906c-.242187-.800782-.402343-1.597657-.402343-2.480469 0-1.199219.320312-2.480469.882812-3.597657 2.796875-5.679687 10.71875-5.921874 13.996094-.558593zm0 0" fill="#d6cfc8"/><path d="m272 72.5c0-13.253906-7.164062-24-16-24s-16 10.746094-16 24 7.164062 24 16 24 16-10.746094 16-24zm0 0" fill="#ed539d"/><path d="m278.625 180.980469c1.484375-2.195313 1.789062-4.988281.804688-7.449219l-16-40c-1.640626-4.117188-6.328126-6.109375-10.398438-4.460938-4.101562 1.636719-6.101562 6.296876-4.460938 10.398438l11.617188 29.027344h-12.1875c-4.421875 0-8 3.578125-8 8 0 4.425781 3.578125 8.003906 8 8.003906h24c2.65625 0 5.132812-1.320312 6.625-3.519531zm0 0"/><path d="m491.3125 368.496094 18.339844-18.34375c2.070312-2.0625 2.84375-5.09375 2.023437-7.898438-.820312-2.804687-3.101562-4.941406-5.960937-5.570312l-8.570313-1.902344 6.789063-61.238281 7.953125-47.730469c.3125-1.867188-.054688-3.789062-1.023438-5.421875l-16.523437-27.59375c-3.0625-5.007813-8.664063-8.007813-14.445313-7.664063-5.796875.265626-10.984375 3.664063-13.523437 8.804688-1.132813 2.257812-1.734375 4.75-1.734375 7.203125 0 1.585937.242187 3.15625.816406 5.007813l5.90625 17.734374-.734375 1.464844-7.851562-10.472656c-3.179688-4.203125-8.015626-6.617188-13.25-6.617188-6.289063 0-11.992188 3.507813-14.867188 9.125-2.140625 4.125-2.390625 9.0625-.652344 13.6875l13.789063 34.453126c-5.339844-3.035157-11.894531-3.691407-17.707031-2.203126l-6.089844-16.269531v-6.550781c0-8.53125-3.328125-16.570312-9.382813-22.617188-4.308593-4.3125-9.632812-7.242187-15.429687-8.570312-1.328125-5.796875-4.253906-11.117188-8.570313-15.429688-4.109375-4.109374-9.136719-6.96875-14.617187-8.375v-33.007812c0-12.773438-4.964844-24.828125-14.050782-34.015625-5.632812-5.558594-12.480468-9.414063-19.84375-11.671875l16.886719-30.429688c1.285157-2.3125 1.34375-5.101562.164063-7.460937l-16-32c-.953125-1.898437-2.617188-3.34375-4.625-4.007813l-22.769532-7.59375-30.960937-23.21875c-1.382813-1.039062-3.0625-1.601562-4.796875-1.601562h-48c-1.734375 0-3.414062.5625-4.796875 1.601562l-30.960937 23.21875-22.773438 7.59375c-2.007812.664063-3.671875 2.109376-4.625 4.007813l-16 32c-1.179688 2.359375-1.117188 5.148437.164062 7.460937l16.886719 30.429688c-7.367187 2.261719-14.230469 6.136719-19.902343 11.742188-9.023438 9.117187-13.992188 21.171874-13.992188 33.945312v33.007812c-5.476562 1.40625-10.507812 4.265626-14.617188 8.375-4.3125 4.3125-7.242187 9.632813-8.570312 15.429688-5.796875 1.328125-11.117188 4.257812-15.429688 8.570312-6.054687 6.046876-9.382812 14.085938-9.382812 22.617188v6.550781l-6.078125 16.238281c-5.835937-1.550781-12.300781-.839843-17.71875 2.234376l13.789063-34.453126c.015624-.046874.039062-.09375.054687-.148437 1.6875-4.476563 1.4375-9.414063-.6875-13.507813-2.890625-5.648437-8.59375-9.15625-14.882813-9.15625-5.234374 0-10.070312 2.414063-13.273437 6.640626l-7.832031 10.441406-.730469-1.457032 5.976563-17.9375c.5-1.648437.742187-3.21875.742187-4.804687 0-2.453125-.601563-4.945313-1.703125-7.132813-2.570312-5.210937-7.757812-8.609374-13.554688-8.875-5.875-.359374-11.382812 2.664063-14.492187 7.734376l-16.476563 27.523437c-.96875 1.632813-1.335937 3.554687-1.023437 5.421875l7.957031 47.730469 6.789063 61.238281-8.574219 1.902344c-2.859375.628906-5.140625 2.765625-5.960938 5.570312-.820312 2.804688-.046874 5.839844 2.023438 7.898438l18.34375 18.34375-18.34375 18.34375c-2.1875 2.1875-2.914062 5.4375-1.875 8.34375l15.746094 44.09375c-.210938 1.355468-.191406 2.734375.292968 4.03125l24 64c.15625.410156.417969.742187.628907 1.113281.1875.328125.328125.6875.554687.980469.277344.355468.628906.617187.953125.914062.269531.25.5.539063.800781.746094.367188.253906.785157.402344 1.1875.589844.324219.152344.621094.359375.96875.46875.769532.242187 1.574219.375 2.398438.375h32c1.242188 0 2.46875-.292969 3.578125-.84375l32-16c.136719-.070313.230469-.1875.363281-.261719.347656-.203125.652344-.441406.96875-.695313.378906-.296874.734375-.605468 1.050782-.964843.238281-.269531.433593-.554688.632812-.855469.289062-.433594.53125-.875.730469-1.355469.070312-.175781.203125-.3125.261719-.492187l8.414062-25.234375v38.703125c0 4.421875 3.578125 8 8 8h240c4.421875 0 8-3.578125 8-8v-38.703125l8.414062 25.234375c.058594.183594.191407.320312.265626.496094.195312.472656.433593.910156.714843 1.335937.203125.308594.402344.597656.644531.871094.316407.363281.671876.667969 1.054688.972656.300781.234375.589844.464844.921875.65625.144531.085937.253906.214844.40625.292969l32 16c1.109375.554687 2.335937.84375 3.578125.84375h32c.820312 0 1.625-.132813 2.398438-.375.347656-.109375.648437-.316406.976562-.472656.398438-.1875.8125-.335938 1.175781-.585938.304688-.210938.539063-.5.8125-.75.320313-.296875.667969-.558594.941407-.910156.234374-.296875.375-.660156.5625-.996094.210937-.363281.472656-.691406.625-1.097656l24-64c.480468-1.296875.503906-2.679688.289062-4.03125l15.75-44.09375c1.039062-2.90625.3125-6.15625-1.878906-8.34375zm4.3125-142.414063-4.445312 26.65625-9.8125-13.082031 5.789062-11.578125c.945312-1.902344 1.101562-4.09375.429688-6.109375l-6.929688-20.882812zm-45.628906-1.574219 37.703125 50.253907-6.269531 56.527343-2.96875-.660156-14.464844-3.246094v-62.886718c0-1.015625-.195313-2.023438-.570313-2.96875l-14.570312-36.789063c.007812-.003906 1.136719-.222656 1.140625-.230469zm-9.894532 54.949219 7.898438 5.304688v19.125l-4.804688-3.828125c-.242187-.25-.5-.484375-.773437-.703125l-10.65625-8.484375c-2.859375-2.273438-3.476563-6.304688-1.609375-9.113282.230469-.316406.464844-.625.710938-.925781.15625-.183593.300781-.367187.539062-.589843 2.140625-2.132813 6.140625-2.445313 8.695312-.785157zm-40.667968-16.222656c-.894532 1.488281-1.875 3.054687-2.914063 4.671875-.351562.546875-.679687 1.074219-1.050781 1.632812-1.390625 2.105469-2.894531 4.292969-4.53125 6.546876-.34375.476562-.734375.972656-1.089844 1.457031-1.351562 1.824219-2.789062 3.683593-4.300781 5.566406-.597656.742187-1.203125 1.484375-1.824219 2.234375-1.621094 1.949219-3.335937 3.921875-5.132812 5.902344-.445313.488281-.851563.972656-1.304688 1.464844-2.234375 2.402343-4.621094 4.808593-7.121094 7.207031-.667968.636719-1.378906 1.265625-2.066406 1.902343-1.996094 1.847657-4.078125 3.675782-6.242187 5.488282-.832031.695312-1.660157 1.394531-2.519531 2.082031-2.933594 2.359375-5.96875 4.683594-9.203126 6.921875-.535156-1.140625-1.144531-2.230469-1.71875-3.347656-.464843-.902344-.902343-1.824219-1.390624-2.710938-.847657-1.539062-1.765626-3.023437-2.683594-4.507812-.433594-.699219-.832032-1.421875-1.285156-2.109375-1.402344-2.152344-2.875-4.25-4.425782-6.277344-.007812-.007813-.015625-.015625-.023437-.027344-1.542969-2.015625-3.167969-3.964843-4.847657-5.859375-.550781-.613281-1.136718-1.1875-1.699218-1.789062-1.167969-1.253906-2.34375-2.507813-3.570313-3.703125-.710937-.691407-1.460937-1.335938-2.191406-2.007813-1.136719-1.042968-2.273437-2.085937-3.453125-3.074218-.8125-.683594-1.65625-1.324219-2.488281-1.980469-1.15625-.914063-2.3125-1.816407-3.507813-2.679688-.886718-.640625-1.792968-1.246093-2.703125-1.859375-1.191406-.804687-2.390625-1.597656-3.617187-2.355468-.949219-.582032-1.910156-1.140626-2.875-1.695313-1.234375-.707031-2.484375-1.394531-3.75-2.054687-.992188-.515626-1.992188-1.015626-3.003906-1.503907-1.285157-.617187-2.585938-1.203125-3.902344-1.765625-1.027344-.445312-2.0625-.882812-3.109375-1.292968-1.339844-.523438-2.695313-1.007813-4.058594-1.476563-1.050781-.363281-2.097656-.730469-3.164063-1.0625-1.410156-.4375-2.84375-.820313-4.28125-1.199219-1.046874-.273437-2.085937-.566406-3.144531-.808594-1.515625-.347656-3.050781-.628906-4.585937-.910156-1.003906-.183594-2-.394531-3.015625-.550781-1.714844-.261719-3.449219-.4375-5.183594-.613281-.859375-.085938-1.707031-.214844-2.574219-.28125-2.605468-.199219-5.234375-.308594-7.878906-.308594s-5.269531.109375-7.878906.308594c-.871094.066406-1.722656.195312-2.589844.285156-1.726562.175781-3.453125.347656-5.160156.609375-1.023438.15625-2.035156.371094-3.054688.558594-1.519531.277343-3.042968.554687-4.542968.902343-1.070313.246094-2.125.539063-3.179688.816407-1.421875.375-2.839844.753906-4.242188 1.1875-1.082031.335937-2.148437.707031-3.214843 1.078125-1.34375.460937-2.675781.9375-3.996094 1.453125-1.070313.421875-2.132813.871093-3.1875 1.324219-1.277344.550781-2.539063 1.117187-3.789063 1.71875-1.054687.503906-2.101562 1.027343-3.140624 1.566406-1.203126.628906-2.394532 1.285156-3.574219 1.960937-1.027344.585938-2.050781 1.183594-3.058594 1.804688-1.140625.703125-2.257813 1.445312-3.371094 2.191406-.996093.667969-1.988281 1.335937-2.960937 2.035156-1.074219.777344-2.117188 1.59375-3.160156 2.414063-.953126.746094-1.910157 1.480468-2.835938 2.257812-1.011719.847656-1.980469 1.742188-2.957031 2.628906-.898438.816407-1.816407 1.617188-2.6875 2.464844-.945313.921875-1.839844 1.890625-2.75 2.847656-.839844.882813-1.707031 1.742188-2.515625 2.65625-.921875 1.039063-1.777344 2.132813-2.65625 3.207032-1.375 1.679687-2.695313 3.402344-3.964844 5.171875-.84375 1.175781-1.707031 2.332031-2.5 3.542969-.675781 1.03125-1.285156 2.109374-1.925781 3.167968-.691407 1.144532-1.40625 2.273438-2.054688 3.445313-.597656 1.078125-1.132812 2.199219-1.691406 3.304687-.492187.96875-1.027344 1.910156-1.492187 2.902344-3.222657-2.230469-6.242188-4.550781-9.167969-6.902344-.859375-.691406-1.6875-1.390625-2.519531-2.085937-2.152344-1.804688-4.222657-3.625-6.207032-5.464844-.691406-.640625-1.40625-1.273437-2.078125-1.917969-2.492187-2.390625-4.875-4.792968-7.101562-7.191406-.457031-.496094-.867188-.984375-1.316407-1.476562-1.792968-1.980469-3.507812-3.949219-5.125-5.902344-.621093-.742188-1.226562-1.484375-1.820312-2.226563-1.515625-1.882812-2.953125-3.742187-4.304688-5.570312-.359374-.484375-.75-.980469-1.097656-1.460938-1.632812-2.25-3.140625-4.433593-4.527344-6.539062-.386718-.578125-.730468-1.128907-1.09375-1.695313-1.015624-1.578125-1.976562-3.109375-2.855468-4.566406-.351563-.582031-.707032-1.167969-1.035156-1.726562-.984376-1.675782-1.894532-3.28125-2.691407-4.742188-.058593-.109375-.136719-.238281-.191406-.34375h83.269531c2.234375 0 4.296875-.933594 5.773438-2.464844.5625-.207031 1.074218-.5 1.625-.734375.785156-.328125 1.558594-.667969 2.3125-1.042969 1.132812-.558593 2.210937-1.179687 3.273437-1.839843.6875-.425781 1.382813-.835938 2.039063-1.300781 1.085937-.769532 2.097656-1.617188 3.097656-2.484376.535156-.464843 1.101562-.890624 1.609375-1.382812 1.242187-1.199219 2.382813-2.488281 3.460937-3.835938.183594-.230468.40625-.433593.585938-.667968 1.230469-1.609375 2.320312-3.316406 3.296875-5.097656.28125-.511719.488281-1.0625.746094-1.589844.640625-1.296875 1.246093-2.609375 1.742187-3.976563.257813-.703125.445313-1.429687.660156-2.152343.375-1.25.714844-2.507813.96875-3.800782.15625-.796875.265626-1.597656.371094-2.410156.089844-.683594.257813-1.34375.3125-2.035156l10.46875 10.46875c.609375.609375 1.3125 1.117187 2.078125 1.5l16 8c1.125.5625 2.351563.84375 3.578125.84375 1.226563 0 2.453125-.28125 3.578125-.84375l16-8c.765625-.382813 1.46875-.890625 2.078125-1.5l10.46875-10.46875c.054688.691406.222656 1.351562.3125 2.03125.109375.816406.214844 1.621094.371094 2.417968.253906 1.289063.589844 2.539063.964844 3.785157.21875.726562.40625 1.460937.664062 2.171875.492188 1.347656 1.089844 2.640625 1.71875 3.925781.269532.542969.484375 1.113281.773438 1.644531.972656 1.769532 2.058594 3.472656 3.28125 5.074219.210937.273437.464844.507813.679687.773437 1.050781 1.304688 2.15625 2.5625 3.359375 3.726563.53125.511719 1.121094.960937 1.683594 1.445313.972656.84375 1.957031 1.667968 3.015625 2.417968.675781.480469 1.390625.902344 2.101563 1.34375 1.042968.644532 2.101562 1.253906 3.207031 1.800782.765625.382812 1.546875.726562 2.34375 1.0625.550781.230468 1.0625.523437 1.625.730468 1.476562 1.53125 3.539062 2.460938 5.773437 2.460938h83.296875c-.84375 1.570312-1.84375 3.324218-2.90625 5.140625-.308593.519531-.636719 1.058593-.960937 1.597656zm-79.433594 201.261719h-128v-8c0-4.414063 3.585938-8 8-8h112c4.414062 0 8 3.585937 8 8zm-13.359375-32h-101.21875c-16.15625-11.292969-27.652344-27.539063-33.34375-45.9375 14.128906 22.726562 39.25 37.9375 67.921875 37.9375 15.074219 0 29.960938-4.34375 42.578125-12.328125 3.933594 2.695312 8.554687 4.328125 13.421875 4.328125 13.234375 0 23.996094-10.765625 23.996094-24 0-6.238282-2.449219-12.082032-6.613282-16.484375 4.261719-9.886719 6.613282-20.617188 6.613282-31.515625 0-28.785156-15.335938-53.996094-38.21875-68.089844 26.117187 8.03125 47.65625 27.957031 57.105468 54.589844 3.398438 9.304687 5.117188 19.234375 5.117188 29.5 0 28.742187-13.921875 55.484375-37.359375 72zm-17.15625-35.4375c-.960937-1.203125-1.484375-2.828125-1.484375-4.5625 0-4.414063 3.585938-8 8-8 1.371094 0 2.625.296875 3.734375.890625 2.628906 1.421875 4.265625 4.144531 4.265625 7.109375 0 4.414062-3.585938 8-8 8-2.539062 0-4.851562-1.171875-6.515625-3.4375zm9.765625-28.34375c-1.070312-.148438-2.15625-.21875-3.25-.21875-13.234375 0-24 10.765625-24 24 0 1.25.113281 2.488281.300781 3.703125.074219.472656.203125.921875.304688 1.382812.125.578125.210937 1.167969.378906 1.734375-9.875 6.023438-21.15625 9.179688-32.984375 9.179688-35.289062 0-64-28.710938-64-64 0-8.960938 1.871094-17.492188 5.210938-25.246094 4.398437 5.585938 11.144531 9.246094 18.789062 9.246094 13.234375 0 24-10.765625 24-23.996094 0-7.648438-3.660156-14.390625-9.246094-18.789062 7.75-3.34375 16.28125-5.214844 25.246094-5.214844 35.289062 0 64 28.710937 64 64 0 8.484375-1.59375 16.601562-4.75 24.21875zm-99.25-72.21875c4.414062 0 8 3.585937 8 8.003906 0 4.414062-3.585938 8-8 8s-8-3.585938-8-8c0-1 .234375-1.9375.570312-2.816406 1.460938-1.617188 2.996094-3.15625 4.613282-4.613282.882812-.339843 1.816406-.574218 2.816406-.574218zm15.472656-107.839844-6.839844-41.015625 47.367188-40.601563 47.367188 40.601563-6.839844 41.015625-29.269532 29.261719-11.257812 5.632812-11.257812-5.632812zm103.628906-38.09375 9.03125-3.007812c2.1875-.757813 4.59375.273437 5.609376 2.3125.710937 1.429687.648437 3.09375-.171876 4.460937l-17.757812 29.609375c-.4375.71875-1.585938.507812-1.882812.148438-.234376-.265626-.320313-.578126-.257813-.9375zm-63.09375-62.066406c-.003906 0-.011718 0-.019531 0-3.265625-.011719-7.988281-6.242188-7.988281-15.996094 0-9.765625 4.734375-16 8-16s8 6.234375 8 16c0 9.753906-4.726562 15.984375-7.992188 15.996094zm-57.679687 94.667968c.0625.339844-.023437.65625-.257813.921876-.304687.351562-1.445312.5625-1.882812-.148438l-17.757812-29.617188c-.820313-1.359374-.882813-3.023437-.171876-4.445312.796876-1.59375 2.445313-2.558594 4.164063-2.558594.476563 0 .960937.070313 1.4375.226563l9.039063 3.015625zm161.671875-30.664062v40c0 4.421875 3.578125 8 8 8 4.257812 0 8.273438 1.660156 11.304688 4.695312 3.03125 3.027344 4.695312 7.046876 4.695312 11.304688 0 4.421875 3.578125 8 8 8 4.257812 0 8.273438 1.664062 11.304688 4.695312s4.695312 7.046876 4.695312 11.304688h-80c-2.085938 0-4.179688-.28125-6.242188-.84375-10.0625-2.703125-17.210937-11.632812-17.726562-21.945312l5.988281-17.980469c1.550781.453125 3.144531.769531 4.792969.769531 5.992188 0 11.632812-3.1875 14.71875-8.328125l17.757812-29.601563c3.648438-6.078124 3.9375-13.492187.765626-19.851562-4.5625-9.117188-15.289063-13.578125-24.976563-10.34375l-9.3125 3.105469-28.261719-24.226563 40.738282 9.050782c.578124.132812 1.8125.195312 2.398437.195312.265625.039062.539063.0625.804687.070312 7.945313.304688 15.492188 3.609376 21.1875 9.234376 6.039063 6.109374 9.367188 14.164062 9.367188 22.695312zm-17.039062-80.195312-17.445313 31.4375-50.765625-11.277344c2.726562-4.578125 4.484375-10.167969 4.988281-16.390625l34.421875-34.425781 16.167969 5.390624zm-108.296876-55.804688h42.671876l22.488281 16.863281-23.082031 23.082031c-4.105469-9.5625-11.726563-15.945312-20.742188-15.945312-9.019531 0-16.640625 6.382812-20.742188 15.945312l-23.082031-23.082031zm-52.992187 30.539062 16.164063-5.390624 34.425781 34.425781c.503906 6.222656 2.261719 11.816406 4.988281 16.390625l-50.765625 11.277344-17.445313-31.4375zm-72.976563 182.152344c3.03125-3.027344 7.046876-4.695312 11.304688-4.695312 4.421875 0 8-3.574219 8-8 0-4.253906 1.664062-8.273438 4.695312-11.304688s7.046876-4.695312 11.304688-4.695312c4.421875 0 8-3.578125 8-8v-40c0-8.53125 3.328125-16.585938 9.304688-22.625 5.757812-5.695313 13.304687-9 21.25-9.304688.035156 0 .136718-.003906.191406-.003906.039062 0 .078125.015625.113281.015625.382813 0 .765625-.023437 1.140625-.082031.59375 0 1.179688-.058594 1.757812-.195313l40.738282-9.050781-28.257813 24.226562-9.324219-3.113281c-9.640624-3.210937-20.40625 1.226563-24.96875 10.359375-3.171874 6.351563-2.882812 13.765625.765626 19.835938l17.757812 29.609375c3.085938 5.140625 8.726562 8.328125 14.71875 8.328125 1.652344 0 3.242188-.316406 4.792969-.769532l5.988281 17.980469c-.066406 1.289063-.230469 2.558594-.496094 3.792969-1.851562 8.65625-8.429687 15.789062-17.253906 18.160156-2.039062.554688-4.132812.835938-6.21875.835938h-80c0-4.253906 1.664062-8.269532 4.695312-11.304688zm-27.8125 51.320313c.375.359375.648438.820312.78125.984375 2.046876 3.070312 1.429688 7.101562-1.445312 9.382812l-10.640625 8.476563c-.035156.027343-.054687.066406-.089844.09375l-5.488281 4.382812v-19.070312l7.820312-5.257813c2.734376-1.773437 6.414063-1.601562 9.0625 1.007813zm-49.507812-79.425781-6.960938 20.882812c-.671874 2.015625-.515624 4.207031.429688 6.109375l5.789062 11.578125-9.8125 13.082031-4.445312-26.65625zm-7.078125 73.675781 38.179687-50.507813.664063.484375c.015625.03125.046875.210938-.046875.492188l-14.523438 36.296875c-.375.945312-.570312 1.953125-.570312 2.96875v62.882812l-14.460938 3.25-2.96875.65625zm53.8125 221.734375h-24.46875l-36.40625-101.921875 20.421875-20.421875c3.125-3.125 3.125-8.1875 0-11.3125l-13.671875-13.671875 1.351563-.300781c.007812 0 .015624 0 .023437-.003907l2.148437-.480469 41.601563-9.296874-4.867187 19.472656c-.820313 3.273437.507812 6.71875 3.320312 8.597656l21.023438 14.015625 14.675781 102.75zm59.171875-87.898438c-3.835938-.625-7.625 1.648438-8.867188 5.367188l-13.285156 39.84375-11.207031-78.445313c-.320313-2.25-1.59375-4.257812-3.484375-5.523437l-19.3125-12.875 6.632812-26.53125c.671876-2.6875-.09375-5.523438-2.023437-7.511719-1.929687-1.976563-4.734375-2.820313-7.453125-2.234375l-.898438.195312 3.878907-10.347656 8.394531-6.71875.515625-.414062c1.167969-.925782 2.21875-1.941406 3.15625-3.027344.339844-.390625.585937-.832031.894531-1.238281.542969-.722657 1.113282-1.429688 1.5625-2.203125.308594-.527344.515625-1.097656.777344-1.648438.335938-.703125.710938-1.390625.972656-2.121094.210938-.597656.320313-1.21875.484375-1.828124.191407-.726563.417969-1.4375.539063-2.175782.101562-.632812.101562-1.273437.148437-1.910156.058594-.742188.144531-1.480469.128907-2.234375-.015626-.640625-.128907-1.28125-.195313-1.921875-.082031-.753906-.132813-1.5-.289063-2.25-.132812-.640625-.359374-1.265625-.550781-1.898438-.21875-.742187-.417969-1.484374-.714843-2.214843-.253907-.621094-.601563-1.21875-.910157-1.832031-.296875-.574219-.515625-1.167969-.863281-1.730469l1.726562-4.632813c.125.21875.296876.480469.425782.703125 1.03125 1.78125 2.160156 3.648438 3.390625 5.609375.210937.335938.382812.636719.601562.976563 1.445313 2.269531 3.042969 4.652343 4.761719 7.101562.480469.683594 1.003906 1.382813 1.503906 2.078125 1.324219 1.839844 2.714844 3.703125 4.195313 5.605469.667969.859375 1.339843 1.710937 2.042969 2.582031 1.585937 1.976563 3.265624 3.964844 5.023437 5.972656.621094.714844 1.203125 1.414063 1.847656 2.132813 2.40625 2.675781 4.953125 5.359375 7.671875 8.039063.5625.558593 1.1875 1.109374 1.765625 1.664062 2.214844 2.128906 4.519531 4.242188 6.9375 6.339844.996094.863281 2.019531 1.710937 3.050781 2.566406 2.253907 1.871094 4.597657 3.707031 7.019532 5.519531 1.058594.792969 2.089844 1.585938 3.179687 2.367188 1.839844 1.3125 3.761719 2.582031 5.699219 3.851562-2.710938 9.257813-4.15625 18.917969-4.15625 28.851563 0 29.566406 12.515625 57.167968 33.914062 76.664062-5.976562 4.367188-9.914062 11.378906-9.914062 19.335938v9.472656c-9.289062 3.3125-16 12.113281-16 22.527344v8h-16v-80c0-3.921875-2.84375-7.265625-6.71875-7.898438zm38.71875 87.898438v-8c0-4.414063 3.585938-8 8-8h144c4.414062 0 8 3.585937 8 8v8zm207.585938-82.53125c-1.242188-3.71875-5.046876-5.984375-8.867188-5.367188-3.875.632813-6.71875 3.976563-6.71875 7.898438v80h-16v-8c0-10.414063-6.710938-19.210938-16-22.527344v-9.472656c0-7.953125-3.933594-14.964844-9.910156-19.332032 21.394531-19.5625 33.910156-47.167968 33.910156-76.667968 0-9.945313-1.449219-19.621094-4.15625-28.851563 1.933594-1.269531 3.859375-2.539062 5.699219-3.851562 1.089843-.78125 2.121093-1.574219 3.175781-2.367188 2.425781-1.8125 4.769531-3.648437 7.023438-5.519531 1.03125-.855469 2.054687-1.703125 3.050781-2.566406 2.417969-2.097656 4.722656-4.210938 6.9375-6.339844.578125-.558594 1.199219-1.105469 1.765625-1.664062 2.71875-2.679688 5.265625-5.363282 7.671875-8.039063.644531-.71875 1.226562-1.417969 1.847656-2.132813 1.753906-2.007812 3.4375-3.996093 5.023437-5.972656.699219-.871094 1.375-1.722656 2.042969-2.582031 1.480469-1.902344 2.871094-3.765625 4.195313-5.605469.5-.695312 1.027344-1.394531 1.503906-2.078125 1.714844-2.449219 3.316406-4.828125 4.761719-7.101562.21875-.339844.390625-.640625.601562-.976563 1.230469-1.960937 2.359375-3.828125 3.390625-5.609375.128906-.222656.300782-.484375.425782-.703125l1.71875 4.609375c-.390626.617188-.648438 1.273438-.972657 1.910157-.292969.574218-.632812 1.128906-.871093 1.714843-.296876.726563-.484376 1.46875-.703126 2.210938-.183593.621093-.417968 1.234375-.546874 1.863281-.152344.734375-.191407 1.472656-.269532 2.210938-.070312.648437-.191406 1.289062-.203125 1.9375-.015625.742187.082031 1.472656.136719 2.207031.050781.640625.046875 1.285156.148438 1.917969.125.753906.363281 1.480468.558593 2.21875.160157.59375.261719 1.203124.472657 1.785156.277343.777344.671874 1.507812 1.035156 2.253906.246094.507812.433594 1.039062.71875 1.527344.476562.820312 1.078125 1.578125 1.664062 2.34375.277344.367187.496094.765625.800782 1.117187.9375 1.085938 1.992187 2.105469 3.160156 3.03125l8.867187 7.066407 3.921875 10.417968-.882812-.195312c-2.710938-.585938-5.523438.257812-7.453125 2.234375-1.929688 1.992187-2.695313 4.828125-2.023438 7.515625l6.632813 26.53125-19.3125 12.875c-1.890625 1.265625-3.164063 3.273437-3.484375 5.523437l-11.203125 78.441407zm25.148437 69.957031 14.675781-102.753906 21.027344-14.015625c2.8125-1.875 4.136719-5.320313 3.316406-8.59375l-4.867187-19.476563 41.605469 9.300781 2.144531.480469c.007812.003907.015625 0 .023437.003907l1.351563.300781-13.671875 13.671875c-3.121094 3.125-3.121094 8.1875 0 11.3125l20.421875 20.421875-36.402344 101.921875h-24.46875zm0 0"/></svg>