<svg height="512pt" viewBox="0 -17 512.20942 512" width="512pt" xmlns="http://www.w3.org/2000/svg"><path d="m464.488281 180.796875c-10.5-1-20.699219-4.398437-29.796875-9.800781 2 3.5 4.199219 6.902344 6.699219 10.199218 7.800781 10.101563 21.597656 23.902344 39.097656 23.902344-11.699219 1.898438-23.5 2.5-35.296875 1.898438-.902344 0-1.800781 0-2.703125-.097656.902344 7.898437 1.402344 15.898437 1.402344 23.796874 0 0 8.5 110.902344 51.199219 128-10.199219-.097656-20.398438-1-30.5-2.597656-7.101563-1-14.101563-3-20.699219-6 0 0-.300781 2.5-.699219 6.699219-1.402344 16-2.601562 56.601563 17.699219 70.101563-13.699219-3-26.699219-8.703126-38.101563-16.800782-6-4.402344-10.5-10.402344-13.097656-17.300781-1.203125 7.601563-2.800781 15.101563-4.902344 22.398437-5 17.902344-14.199218 40.800782-29.300781 45.800782 0-7.199219-2.097656-14.199219-6.097656-20.199219-2.601563-3.5-6.699219-5.5-11-5.398437-2.300781 6.5-5.5 12.699218-9.300781 18.398437-4 6.601563-9.601563 12-16.300782 15.699219-.097656-7.597656-2-15-5.5-21.800782-.800781-1.398437-1.800781-2.699218-3-3.796874-4.898437 7.097656-10.898437 13.5-17.699218 18.898437-4.601563 4-10.398438 6.398437-16.5 6.699219-.199219-4.097656-1.398438-8-3.5-11.5-3.898438-6.800782-12.5-14.097656-30.601563-14.097656-4.296875-.101563-8.597656.398437-12.796875 1.5-11.800781 2.097656-20.601562 12.097656-21.300781 24.097656-8.5-1-16.402344-5.097656-22.101563-11.5-4.5-4.300782-8.5-9-12-14.097656-4.5 5.296874-7.300781 11.898437-7.898437 18.898437-.402344 2.199219-.601563 4.5-.601563 6.699219-8.699218-5.097656-15.597656-12.699219-20.097656-21.800782-2.203125-4-4-8.097656-5.5-12.398437-11.101562 0-15 10.898437-16.300781 18.398437-.5 2.402344-.699219 4.800782-.800781 7.203126-8.800782-4-15.800782-11.300782-19.5-20.203126-7.199219-15.199218-12.101563-31.398437-14.601563-48-4 9.703126-11.296875 17.703126-20.699219 22.402344-9.5 5.398438-19.699218 9.300782-30.300781 11.597656 5.703125-4.199218 10-10 12.402344-16.699218 9.597656-24.097656 4.5-60 4.5-60-7.902344 3.402344-16.300781 5.699218-24.902344 6.699218-8.699219 1.203126-17.5 1.800782-26.296875 1.902344 1.699219-.699218 3.398438-1.601562 4.898438-2.601562 38.398437-23.199219 46.300781-125.398438 46.300781-125.398438 0-8 .398437-15.902344 1.398437-23.800781-8.5.5-17.097656.398437-25.597656-.300781-7.703125-.699219-12.402344-1.5-12.402344-1.5 26.601563 0 44.699219-32 45.800782-34-9.898438 5.800781-20.898438 9.300781-32.300782 10.199218h-.097656c-7.703125.703126-15.402344.601563-23-.296874-3-.300782-5.902344-.800782-8.800781-1.402344 9.199219 0 18.398437-25.597656 18.398437-25.597656-36.398437-33.800782-20.898437-105.203126-13-133.300782 2.101563-7.300781 3.800782-11.800781 3.800782-11.800781 36.699218 25.601563 45.898437 8.5 110.199218 25.601563 10.601563 2.597656 20.699219 7.097656 29.699219 13.296874h.101563c3.300781 2.203126 6.398437 4.800782 9.199218 7.703126 14.199219-7.601563 29.5-13.203126 45.199219-16.601563 0 0 .101563 0 .101563-.101563 3.300781-4.5 4.601562-10.097656 3.800781-15.5-1.101563-5.398437-3.601563-10.296874-7.300781-14.296874 11.601562-.703126 23 3.796874 31.101562 12.097656 7.199219 8.601562 11.296875 19.402344 11.597656 30.5.601563-14.097656 7.902344-27.097656 19.699219-34.898438 9.5-5.5 20.5-8.199218 31.5-7.800781 0 0-14.699219 14.699219-10 30.5 9.203125 2.101563 18.203125 5 27 8.601563 5.601563 2.199218 11.101563 4.796874 16.5 7.699218 10.800781-10.5 24.300781-17.800781 39-21.199218 49.5-13.101563 66.203125-6.101563 88.101563-13.800782 7.800781-2.902344 15.101562-6.902344 21.800781-11.800781 0 0 36.699219 102.398437-9.101563 145.101563 0 0 9.101563 25.597656 18.300782 25.597656-11.601563 2.199218-23.199219 2.699218-34.601563 1.300781zm0 0" fill="#4e342e"/><path d="m441.289062 181.195312c-11.398437-.898437-22.398437-4.398437-32.300781-10.199218 1.101563 2 19.101563 34 45.703125 34 0 0-3.703125.699218-9.703125 1.300781l-2.699219.300781c-8.5.699219-17.097656.699219-25.597656.300782.898438 7.898437 1.398438 15.898437 1.398438 23.796874 0 0 7.898437 102.203126 46.300781 125.402344 1.597656 1 3.199219 1.898438 4.898437 2.597656-8.800781-.097656-17.597656-.699218-26.300781-1.898437-8.597656-1-17-3.199219-24.898437-6.699219 0 0-5.101563 35.800782 4.5 60-6-4.402344-10.5-10.402344-13.101563-17.300781-1.199219 7.601563-2.796875 15.101563-4.898437 22.398437-9.398438-4.699218-16.800782-12.699218-20.699219-22.398437-2.5 16.601563-7.402344 32.800781-14.601563 48-2.597656-3.5-6.699218-5.5-11-5.398437-2.300781 6.5-5.5 12.699218-9.300781 18.398437-1.296875-7.5-5.199219-18.398437-16.296875-18.398437-1.5 4.296874-3.402344 8.398437-5.5 12.398437-.800781-1.398437-1.800781-2.699219-3-3.800781-4.902344 7.101562-10.902344 13.5-17.703125 18.902344-.699219-6.902344-3.5-13.5-7.898437-18.902344-3.5 5.101562-7.5 9.800781-12 14.101562-3.898438-6.800781-12.5-14.101562-30.601563-14.101562-4.296875-.097656-8.597656.402344-12.796875 1.5-4.203125-1.097656-8.5-1.597656-12.800781-1.5-18.199219 0-26.699219 7.300781-30.601563 14.101562-4.5-4.300781-8.5-9-12-14.101562-4.5 5.300781-7.300781 11.902344-7.898437 18.902344-6.800781-5.402344-12.699219-11.703126-17.699219-18.902344-1.203125 1.101562-2.203125 2.402344-3 3.800781-2.203125-4-4-8.101563-5.5-12.398437-11.101562 0-15 10.898437-16.300781 18.398437-3.800781-5.699219-7-11.898437-9.300781-18.398437-4.300782-.101563-8.398438 1.898437-11 5.398437-7.199219-15.199219-12.101563-31.398437-14.601563-48-4 9.699219-11.296875 17.699219-20.699219 22.398437-2-7.398437-3.699218-14.898437-4.898437-22.398437-2.5 6.898437-7.101563 13-13.101563 17.300781 9.601563-24.101562 4.5-60 4.5-60-7.898437 3.398438-16.300781 5.699219-24.898437 6.699219-.300781-4.199219-.699219-6.699219-.699219-6.699219-6.601562 2.898438-13.5 5-20.703125 6 38.402344-23.199218 46.300781-125.402344 46.300781-125.402344 0-8 .402344-15.898437 1.402344-23.796874-8.5.5-17.101562.398437-25.601562-.300782-7.699219-.699218-12.398438-1.5-12.398438-1.5 26.597656 0 44.699219-32 45.796875-34-9.898437 5.800782-20.898437 9.300782-32.296875 10.199219 2.5-3.199219 4.699219-6.601563 6.699219-10.199219-9.101563 5.398438-19.300781 8.800782-29.902344 9.800782-3-.300782-5.898437-.800782-8.796875-1.402344 9.199219 0 18.398438-25.597656 18.398438-25.597656-36.398438-33.800782-20.898438-105.203126-13-133.300782 21.898437 7.800782 38.699218.699219 88.300781 13.800782 14.699219 3.296874 28.097656 10.597656 39 21 5.300781-2.800782 10.800781-5.402344 16.300781-7.703126h.097656c3.300782 2.203126 6.402344 4.800782 9.199219 7.703126 14.203125-7.601563 29.5-13.203126 45.203125-16.601563 0 0 .097656 0 .097656-.101563 3.300782-4.5 4.601563-10.097656 3.800782-15.5 6 8.300782 9.398437 18.101563 9.699218 28.300782.5-11.597656 5.5-22.597656 14-30.5 7.199219 8.601562 11.300782 19.402344 11.601563 30.5.597656-14.097656 7.898437-27.097656 19.699219-34.898438-4.5 6.699219-5.898438 14.898438-4.101563 22.699219 15.101563 3.398437 29.800781 8.898437 43.402344 16.300781 2.800781-2.902344 5.800781-5.402344 9.097656-7.699218 5.601563 2.199218 11.101563 4.796874 16.5 7.699218 10.800781-10.5 24.300781-17.800781 39-21.199218 49.5-13.101563 66.203125-6.101563 88.101563-13.800782 7.898437 28.199219 23.5 99.5-12.898438 133.300782 0 0 9.097656 25.597656 18.296875 25.597656-2.898437.601562-5.796875 1.101562-8.699219 1.402344-7.5.796874-15.300781 1-23 .296874zm0 0" fill="#795548"/><path d="m136.488281 153.898438-22.296875 42.699218c-36.703125 17.097656-82.601562 8.5-82.601562 8.5 26.601562 0 44.699218-32 45.800781-34-27.601563 17-64.300781 8.398438-64.300781 8.398438 9.199218 0 18.398437-25.597656 18.398437-25.597656-20.699219-19.402344-24.5-51-22.5-79.703126 23.101563-2.699218 64.203125-3.296874 93.402344 20 42.699219 34.101563 34.097656 59.703126 34.097656 59.703126zm0 0" fill="#e91e63"/><path d="m375.789062 153.898438 22.300782 42.699218c36.699218 17.097656 82.601562 8.5 82.601562 8.5-26.601562 0-44.703125-32-45.800781-34 27.597656 17 64.300781 8.398438 64.300781 8.398438-9.203125 0-18.402344-25.597656-18.402344-25.597656 20.800782-19.402344 24.699219-50.902344 22.601563-79.703126-23.101563-2.699218-64.199219-3.296874-93.402344 20-42.699219 34.101563-34.199219 59.703126-34.199219 59.703126zm0 0" fill="#e91e63"/><path d="m255.988281 59.996094c-4.699219 0-8.5-3.699219-8.5-8.398438v-.101562c.203125-13.097656-7.097656-25.199219-18.699219-31.199219 2.199219 10.601563-1.398437 21.5-9.398437 28.699219-3.300781 3.199218-8.699219 3.199218-12-.097656-3.300781-3.300782-3.300781-8.601563-.101563-12 3.199219-2.800782 5-6.800782 5-11.101563 0-4.199219-1.800781-8.300781-5-11-2.398437-2.5-3.097656-6.101563-1.800781-9.300781 1.300781-3.199219 4.402344-5.199219 7.902344-5.199219 17.597656-1.101563 34.300781 7.699219 43.300781 22.800781 8.597656-12.300781 24.097656-22.800781 50.5-22.800781 3.5 0 6.597656 2.101563 7.898438 5.300781 1.300781 3.199219.601562 6.898438-1.800782 9.300782-.097656.097656-12.597656 13-6.898437 24.296874 2.097656 4.203126.398437 9.300782-3.800781 11.5-4.199219 2.203126-9.300782.402344-11.5-3.796874-4.199219-8.601563-4.398438-18.601563-.601563-27.300782-14.898437 3.597656-25.5 16.800782-25.898437 32.097656-.101563 4.5-3.898438 8.300782-8.601563 8.300782zm0 0" fill="#2c3e50"/><path d="m188.488281 163.695312c-12.398437 3.902344-19.898437 16.5-17.398437 29.203126 2.398437 12.699218 14 21.699218 27 20.699218 12.898437-.902344 23.199218-11.402344 23.800781-24.300781" fill="#ffeb3a"/><path d="m238.890625 205.097656c-.902344 0-1.800781-.199218-2.699219-.402344-32.402344-10.398437-59-33.796874-73.5-64.699218-1.101562-2.800782-.703125-6.097656 1.199219-8.5 1.898437-2.398438 4.898437-3.597656 7.898437-3.199219s5.601563 2.398437 6.699219 5.300781c12.703125 26 35.5 45.800782 63 54.800782 4 1.296874 6.402344 5.296874 5.703125 9.5-.5 4.097656-4.101562 7.199218-8.300781 7.199218zm0 0" fill="#2c3e50"/><path d="m322.988281 247.695312c6.601563-.097656 13 2.5 17.703125 7.101563 31.296875 31.601563 9.097656 61.199219 9.097656 61.199219-17.097656 25.601562-42 42.699218-93.898437 42.699218-51.902344 0-76.902344-20-93.902344-42.699218 0 0-22.199219-29.597656 9.101563-61.199219 4.699218-4.601563 11.101562-7.199219 17.699218-7.101563zm0 0" fill="#4e342e"/><path d="m323.488281 163.695312c12.402344 3.902344 19.902344 16.5 17.402344 29.203126-2.402344 12.699218-14 21.699218-27 20.699218-12.902344-.902344-23.199219-11.402344-23.800781-24.300781" fill="#ffeb3a"/><path d="m273.089844 205.097656c-4.199219 0-7.699219-3-8.398438-7.199218-.703125-4.101563 1.699219-8.101563 5.699219-9.5 27.597656-9 50.300781-28.800782 63-54.800782 1.800781-4.402344 6.699219-6.5 11.097656-4.699218 4.402344 1.796874 6.5 6.699218 4.703125 11.097656-14.402344 30.800781-41.101562 54.300781-73.5 64.699218-.800781.203126-1.703125.402344-2.601562.402344zm0 0" fill="#2c3e50"/><path d="m255.988281 358.695312c4.601563.101563 9-1.699218 12.203125-4.898437 3.199219-3.199219 5-7.601563 4.898438-12.199219 0-17.101562 34.101562-25.601562 25.601562-34.101562s-42.703125-8.5-42.703125-8.5-34.097656 0-42.699219 8.5c-8.5 8.5 25.601563 17.101562 25.601563 34.101562-.101563 4.597656 1.699219 9 4.898437 12.199219 3.199219 3.199219 7.601563 5 12.199219 4.898437zm0 0" fill="#37474f"/><path d="m136.488281 162.398438c-2.699219 0-5.296875-1.300782-6.898437-3.5-1.601563-2.203126-2-5.101563-1.199219-7.703126 0 0 5.199219-21.097656-31.402344-50.296874-26.898437-21.601563-66-20.703126-87-18.203126-4.699219.5-8.898437-2.796874-9.5-7.5-.4999998-4.699218 2.902344-9 7.5-9.5 23.601563-2.796874 67.800781-3.699218 99.703125 21.800782 46 36.800781 38 65.902344 36.898438 69.101562-1.101563 3.5-4.398438 5.800782-8.101563 5.800782zm0 0" fill="#2c3e50"/><path d="m375.390625 162.296875c-3.601563 0-6.800781-2.300781-8-5.699219-1.101563-3.199218-9.101563-32.300781 36.898437-69.101562 31.699219-25.300782 76-24.597656 99.699219-21.898438 4.703125.5 8 4.800782 7.5 9.5-.5 4.699219-4.796875 8-9.5 7.5-20.898437-2.402344-60.199219-3.199218-87 18.199219-36.597656 29.300781-31.398437 50.300781-31.296875 50.601563 1.199219 4.5-1.300781 9.097656-5.703125 10.5-.898437.296874-1.796875.398437-2.597656.398437zm0 0" fill="#2c3e50"/><g fill="#cfd8dc"><path d="m225.390625 355.898438c-2.199219 2.699218-4.101563 5.5-5.902344 8.5-8.199219 14.699218-13.097656 30.898437-14.296875 47.699218-.101562.898438-.800781 1.699219-1.703125 1.898438-.898437.199218-1.898437-.199219-2.296875-1-10-19.398438-13.101562-41.699219-8.703125-63.097656v-.101563c.300781-1.5.5-3 .800781-4.398437l.5-.902344c9.699219 5.5 20.5 9.402344 31.601563 11.402344zm0 0"/><path d="m193.691406 344.496094-.5.902344c-.300781 1.398437-.5 2.796874-.800781 4.398437v.101563l-34.902344 23.199218c-.699219.5-1.597656.5-2.296875 0-.703125-.402344-1.101562-1.300781-1-2.101562l7.898438-55c8.398437 11.601562 19.199218 21.402344 31.601562 28.5zm0 0"/><path d="m255.988281 358.695312-15.296875 45.902344c-.300781.800782-1.101562 1.398438-1.902344 1.5-.898437 0-1.699218-.5-2-1.300781l-17.199218-40.300781c1.699218-3 3.699218-5.800782 5.898437-8.5 10 1.800781 20.203125 2.699218 30.5 2.699218zm0 0"/><path d="m310.890625 412.898438c-.5.796874-1.402344 1.199218-2.300781 1-.898438-.203126-1.601563-1-1.699219-1.902344-1.300781-16.699219-6.199219-33-14.300781-47.699219-1.699219-2.898437-3.5-5.601563-5.601563-8.199219 11.203125-1.800781 22-5.402344 31.902344-10.800781v.101563c.300781 1.398437.5 2.796874.800781 4.398437 4.199219 21.398437 1.199219 43.699219-8.800781 63.101563zm0 0"/><path d="m357.691406 370.996094c.097656.800781-.300781 1.699218-1 2.101562-.703125.398438-1.601562.398438-2.300781 0l-34.902344-23.300781c-.296875-1.5-.5-3-.796875-4.398437v-.101563c12.597656-7.101563 23.296875-17.101563 31.097656-29.398437zm0 0"/><path d="m292.488281 364.398438-17.199219 40.398437c-.300781.800781-1.199218 1.300781-2 1.300781-.898437 0-1.699218-.601562-1.898437-1.5l-15.402344-45.902344c10.300781.101563 20.703125-.699218 30.902344-2.5 2.097656 2.601563 4 5.300782 5.597656 8.203126zm0 0"/></g><path d="m452.988281 215.796875c-20.097656.398437-40.097656-3.5-58.597656-11.5-2.902344-1.199219-4.800781-3.898437-5.101563-7-.300781-3.101563 1.101563-6.101563 3.699219-7.898437 2.601563-1.800782 5.902344-2 8.703125-.601563 14 6.101563 29 9.398437 44.199219 9.699219-7.402344-6.800782-13.699219-14.800782-18.699219-23.5-1.800781-3.398438-1.101562-7.597656 1.699219-10.300782 2.800781-2.597656 7.097656-3.097656 10.300781-1 12.398438 6.902344 26.5 10.203126 40.699219 9.300782-3-5.199219-5.402344-10.597656-7.402344-16.300782-1.097656-3.199218-.296875-6.796874 2.203125-9.097656 33.097656-30.902344 17.597656-99.5 10.199219-125.601562-14 8-29.800781 12-45.902344 11.699218-19.296875.800782-38.398437 3.800782-57 8.902344-55.398437 14.699219-49.097656 56.800782-48.699219 58.597656.5 3-.597656 6.101563-2.898437 8-2.300781 2-5.5 2.5-8.402344 1.5-2.898437-1-5-3.5-5.5-6.5-.097656-.597656-9.699219-59.097656 61.203125-78 19.699219-5.398437 40-8.597656 60.398438-9.398437 16.898437.601563 33.398437-4.699219 46.800781-14.898437 2.199219-1.5 4.898437-1.90234425 7.5-1.101563 2.5.800781 4.5 2.699219 5.398437 5.199219 1.5 4.300781 35.800782 102.199218-7.199218 149.902344 2.101562 5.597656 5.199218 10.699218 9.199218 15.097656 4.199219.402344 7.402344 3.800781 7.699219 7.902344.300781 4.199218-2.5 7.898437-6.597656 8.898437-13.101563 2.699219-26.601563 3.101563-39.800781 1.199219 5.5 4.601562 12.398437 7.300781 19.601562 7.601562 4.398438 0 8.097656 3.398438 8.5 7.699219.398438 4.398437-2.601562 8.398437-6.902344 9.199219-9.898437 1.5-19.597656 2.300781-29.300781 2.300781zm0 0" fill="#2c3e50"/><path d="m59.191406 215.796875c-9.703125.101563-19.5-.699219-29.101562-2.300781-4.300782-.800782-7.300782-4.800782-6.898438-9.199219.398438-4.398437 4.097656-7.699219 8.5-7.699219 7.199219-.300781 14.097656-2.902344 19.597656-7.601562-13.300781 1.902344-26.800781 1.5-39.898437-1.199219-4.101563-.898437-6.800781-4.699219-6.601563-8.898437.300782-4.203126 3.5-7.5 7.699219-7.902344 4-4.398438 7.203125-9.5 9.203125-15.097656-43.203125-47.800782-8.800781-145.703126-7.203125-150 .902344-2.5 2.902344-4.402344 5.402344-5.203126 2.5-.796874 5.300781-.398437 7.5 1.101563 13.5 10.199219 30 15.5 46.898437 14.898437 20.5.902344 40.800782 4 60.601563 9.402344 71 18.898438 61.398437 77.398438 61.300781 78-.5 3.097656-2.601562 5.597656-5.5 6.699219-2.902344 1.101563-6.203125.5-8.5-1.5-2.300781-2-3.402344-5.101563-2.800781-8.199219.300781-1.699218 6.597656-43.800781-48.902344-58.5-18.699219-5.101562-37.796875-8.101562-57.199219-8.902344-16.097656.300782-32-3.796874-46-11.699218-7.5 26.101562-23 94.800781 10.199219 125.601562 2.5 2.300782 3.402344 5.898438 2.203125 9.097656-2 5.601563-4.5 11-7.402344 16.203126 14.199219.796874 28.402344-2.402344 40.800782-9.300782 3.300781-2 7.5-1.601562 10.300781 1 2.800781 2.597656 3.5 6.898438 1.699219 10.300782-5 8.796874-11.300782 16.699218-18.699219 23.5 15.199219-.300782 30.300781-3.601563 44.300781-9.703126 2.796875-1.296874 6-1 8.5.800782 2.5 1.800781 3.898438 4.699218 3.597656 7.699218-.300781 3-2.097656 5.703126-4.898437 7-18.601563 8-38.601563 11.902344-58.699219 11.601563zm0 0" fill="#2c3e50"/><path d="m492.191406.695312c-2.5-.796874-5.300781-.398437-7.5 1.101563-13.402344 10.199219-30 15.5-46.800781 14.898437-20.402344.902344-40.699219 4-60.402344 9.402344-14.097656 3.398438-27.199219 9.898438-38.296875 19.199219-10.902344-5.398437-22.402344-9.699219-34.203125-12.800781.800781-6.597656 3.703125-12.800782 8.300781-17.699219 2.402344-2.398437 3.199219-6.101563 1.902344-9.300781-1.300781-3.199219-4.402344-5.300782-7.902344-5.300782-26.5 0-42 10.5-50.5 22.800782-9.097656-15.097656-25.800781-23.898438-43.300781-22.800782-3.398437 0-6.5 2.101563-7.898437 5.203126-1.398438 3.097656-.601563 6.796874 1.800781 9.296874 4.5 4.203126 6 10.800782 3.800781 16.601563-13.203125 3.199219-25.902344 7.800781-38 13.800781-11.101562-9.199218-24.203125-15.699218-38.203125-19-19.796875-5.402344-40.097656-8.601562-60.597656-9.402344-16.902344.601563-33.5-4.699218-46.902344-14.898437-2.199219-1.5-4.898437-1.898437-7.5-1.101563-2.5.800782-4.5 2.703126-5.398437 5.203126-1.5 4.296874-35.898438 102.199218 7.199218 150-2.097656 5.597656-5.199218 10.699218-9.199218 15.097656-4.199219.402344-7.398438 3.800781-7.699219 7.902344-.300781 4.199218 2.5 7.898437 6.597656 8.898437 13.101563 2.699219 26.601563 3.101563 39.902344 1.199219-5.5 4.601562-12.402344 7.300781-19.601563 7.601562-4.398437 0-8.097656 3.398438-8.5 7.699219-.398437 4.398437 2.601563 8.398437 6.902344 9.199219 9.597656 1.601562 19.296875 2.402344 29.097656 2.300781h1.101563c-.300781 4.699219-.5 9.398437-.5 14.398437-2.300781 29.5-14.902344 108.300782-45.800781 120.601563-3.800782 1.5-6 5.5-5.199219 9.5s4.300781 6.898437 8.398437 6.898437c14.699219-.097656 29.402344-1.796874 43.699219-5.296874 1 18.5-.398437 48.597656-14.296875 57.898437-3.402344 2.300781-4.703125 6.601563-3.101562 10.398437 1.601562 3.800782 5.601562 5.902344 9.601562 5.101563 16.5-3.5 32-10.800781 45.097656-21.398437 5.199219 20.097656 15.902344 48.597656 35.800782 55.296874 2.601562.800782 5.398437.402344 7.699218-1.199218 2.199219-1.597656 3.5-4.199219 3.5-6.898438.101563-5.101562 1.402344-10.101562 3.902344-14.601562 5.296875 12.800781 14.597656 23.5 26.5 30.699218 2.597656 1.300782 5.796875 1.203126 8.296875-.398437s4-4.300781 4-7.199219c.101563-3.402344.601563-6.800781 1.402344-10.101562 7.699219 8.402344 19.597656 18.601562 32.699219 18.601562 4.699218 0 8.5-3.800781 8.5-8.5 0-.699218.300781-17.101562 25.601562-17.101562 23.898438 0 25.5 14.300781 25.597656 17.101562 0 4.699219 3.800782 8.5 8.5 8.5 13.101563 0 25.101563-10.199218 32.699219-18.601562.800781 3.300781 1.300781 6.699218 1.402344 10.101562 0 3 1.5 5.699219 4 7.300782 2.5 1.597656 5.699219 1.699218 8.300781.398437 11.796875-7.199219 21.097656-17.898437 26.5-30.699219 2.5 4.398438 3.796875 9.398438 3.898438 14.5 0 2.699219 1.300781 5.300782 3.5 6.898438 2.199218 1.601562 5.101562 2 7.699218 1.199218 20-6.597656 30.699219-35.199218 35.800782-55.296874 13.101562 10.597656 28.601562 17.898437 45.101562 21.398437 4 .800781 8-1.300781 9.5-5.101563 1.597656-3.796874.199219-8.097656-3.101562-10.398437-14-9.300781-15.398438-39.398437-14.300782-57.898437 14.300782 3.398437 29 5.199218 43.800782 5.296874 4.101562 0 7.601562-2.898437 8.398437-6.898437.800781-4-1.398437-8-5.199219-9.5-30.898437-12.300781-43.5-91.199219-45.800781-120.601563 0-4.898437-.199219-9.699218-.5-14.398437h1.300781c9.699219.101563 19.402344-.699219 29-2.300781 4.300782-.898438 7.199219-4.800782 6.800782-9.097656-.398438-4.300782-4-7.703126-8.398438-7.800782-7.203125-.300781-14.101562-2.902344-19.601562-7.601562 13.199218 1.902344 26.699218 1.5 39.800781-1.199219 4.097656-.898437 6.898437-4.699219 6.597656-8.898437-.296875-4.203126-3.5-7.5-7.699219-7.902344-4-4.398438-7.097656-9.5-9.199218-15.097656 43.101562-47.800782 8.699218-145.703126 7.199218-149.902344-1.097656-2.597656-3.097656-4.5-5.597656-5.300782zm-17.601562 146.902344c-2.5 2.300782-3.398438 5.898438-2.199219 9.097656 2 5.601563 4.5 11.101563 7.398437 16.300782-14.199218.800781-28.300781-2.398438-40.699218-9.300782-3.300782-2-7.5-1.597656-10.300782 1-2.800781 2.601563-3.5 6.902344-1.699218 10.300782 5 8.800781 11.300781 16.699218 18.699218 23.5-15.199218-.398438-30.199218-3.699219-44.199218-9.699219-2.800782-1.398437-6.101563-1.199219-8.699219.601563-2.601563 1.796874-4 4.796874-3.699219 7.898437.296875 3.101563 2.296875 5.800781 5.097656 7 12.699219 5.699219 26.300782 9.199219 40.101563 10.5.398437 5.101563.699219 10.398437.699219 15.898437 0 .101563.101562.203126.101562.300782 0 .101562-.101562.199218 0 .300781.699219 9.699219 7.097656 80.699219 34.199219 116.898437-7.5-.796874-14.902344-2.796874-21.902344-5.699218-2.5-1.199219-5.296875-1.199219-7.796875.101562-2.402344 1.300782-4.101562 3.597656-4.5 6.398438-3 20.5-1.703125 41.5 3.898438 61.5-9.5-3.800782-17.199219-11.097656-21.5-20.300782-1.300782-3.699218-4.898438-6.097656-8.898438-5.796874-3.902344.398437-7.101562 3.398437-7.703125 7.296874-2.398437 16.601563-9.398437 42.101563-19.5 54.601563-2.398437-11-12-19-23.199219-19.199219-3.699218 0-6.898437 2.398438-8.097656 5.800782-2.601562 7.5-6.5 14.5-11.402344 20.699218-1.597656-5.800781-4.5-11.101562-8.597656-15.5-1.800781-1.800781-4.300781-2.699218-6.902344-2.5-2.5.300782-4.800781 1.597656-6.300781 3.800782-5.296875 8-12.296875 14.796874-20.5 19.898437-4.097656-11.199219-15.398437-23.699219-40.699219-23.699219-25.300781 0-36.597656 12.5-40.699218 23.699219-8.199219-5.101563-15.101563-11.898437-20.5-19.898437-1.398438-2.101563-3.699219-3.5-6.300782-3.703126-2.5-.199218-5 .703126-6.800781 2.5-4.097656 4.402344-7.097656 9.703126-8.597656 15.5-4.902344-6.199218-8.699219-13.199218-11.402344-20.699218-1.199219-3.5-4.398437-5.800782-8.097656-5.800782-11.300781.300782-20.800781 8.203126-23.199219 19.203126-10.203125-12.5-17.101562-38-19.5-54.601563-.601562-3.898437-3.703125-6.898437-7.703125-7.300781-3.898437-.300782-7.597656 2.101562-8.898437 5.800781-4.300782 9.300781-12 16.5-21.5 20.300781 5.601562-20 6.898437-40.902344 3.898437-61.5-.398437-2.699218-2.097656-5.101562-4.5-6.402344-2.398437-1.296874-5.296875-1.296874-7.796875-.097656-7 3-14.300781 4.898438-21.902344 5.699219 27.101563-36.199219 33.5-107.300781 34.199219-116.898437 0-.101563 0-.203126 0-.300782 0-.101562 0-.199218 0-.300781 0-5.5.300781-10.800781.703125-15.898437 13.898438-1.300782 27.597656-4.800782 40.398438-10.5 2.800781-1.300782 4.601562-4 4.898437-7 .300781-3-1.097656-6-3.597656-7.703126-2.5-1.796874-5.699219-2-8.5-.796874-14 6.097656-29 9.296874-44.300781 9.699218 6.699218-6.199218 12.5-13.199218 17.300781-21 .199219-.300781.398437-.601562.5-.902344.5-.898437.898437-1.5.898437-1.597656 1.800782-3.402344 1.101563-7.601562-1.699218-10.199218-2.398438-2.203126-5.800782-2.800782-8.800782-1.703126-.097656 0-.300781.101563-.398437.203126-.402344.097656-.800781.296874-1.199219.5-12.402344 6.898437-26.601562 10.199218-40.800781 9.296874 3-5.199218 5.398437-10.597656 7.398437-16.199218 1.199219-3.199219.300782-6.800782-2.199218-9.097656-16.800782-15.703126-21.101563-41-20.300782-65.703126 21.800782-1.699218 55.699219-.5 79.902344 18.800782 36.597656 29.300781 31.398438 50.300781 31.398438 50.300781-1 2.898437-.300782 6.101563 1.699218 8.398437 2 2.300782 5.101563 3.300782 8.101563 2.703126 3-.601563 5.398437-2.800782 6.398437-5.703126 1.101563-3.199218 9.101563-32.296874-36.898437-69.097656-27.300781-22.199218-64.199219-24.5-88.902344-22.902344 1.800781-14.5 4.703125-28.796874 8.800781-42.796874 14 8 29.902344 12 46 11.699218 19.300782.800782 38.5 3.800782 57.199219 8.898438 55.402344 14.699218 49.203125 56.601562 48.902344 58.5-.699219 4.601562 2.398437 8.902344 6.898437 9.699218 4.5.800782 9-2.199218 9.902344-6.796874 1.898438-16.101563-2.101562-32.402344-11.101562-45.800782 7.601562-3.5 15.398437-6.402344 23.300781-8.699218 3.300781 2.5 8 2.199218 11-.703126 1.5-1.5 2.800781-3.097656 4-4.796874.097656-.101563.199219-.300782.300781-.402344 5-6.800782 6.796875-15.300782 5.097656-23.5 11.601563 6 18.902344 18.101562 18.699219 31.199218v.101563c0 4.699219 3.902344 8.5 8.601563 8.5 4.699218 0 8.5-3.898437 8.5-8.601563.398437-15.296874 11-28.398437 25.898437-32.097656-3.796875 8.800782-3.597656 18.699219.601563 27.300782 1 2 2.800781 3.597656 4.898437 4.296874 2.101563.703126 4.5.601563 6.5-.5.402344-.296874.703125-.5 1-.898437 8.101563 2.300781 16.101563 5.199219 23.800781 8.699219-9 13.402344-12.898437 29.601562-11 45.699218.800782 4.601563 5.199219 7.703126 9.902344 6.902344 4.597656-.800781 7.699219-5.199218 6.898438-9.902344-.300782-1.699218-6.601563-43.699218 48.699218-58.398437 18.601563-5.101563 37.699219-8.101563 57-8.898437 16.101563.296874 31.902344-3.800782 45.902344-11.703126 4 14 6.898438 28.203126 8.699219 42.703126-24.699219-1.5-61.699219.796874-89.300781 22.796874-46 36.800782-38 65.902344-36.898438 69.101563 1.097656 3.398437 4.398438 5.800781 8 5.699219.898438 0 1.699219-.097656 2.597656-.398438 4.402344-1.402344 7-6.101562 5.699219-10.5-.097656-.199218-5.296875-21.300781 31.300781-50.601562 24.101563-19.199219 58-20.5 79.902344-18.898438 1 24.898438-3.203125 50.398438-20.101562 66zm0 0"/><path d="m175.390625 161.097656c-8.300781 6.398438-13.199219 16.398438-13.199219 26.898438 0 16.199218 11.398438 30.199218 27.296875 33.402344 15.902344 3.199218 31.800781-5.101563 38.203125-20.101563 2.796875 1.199219 5.597656 2.300781 8.699219 3.300781 4.5 1.5 9.300781-.902344 10.800781-5.402344s-.902344-9.296874-5.402344-10.796874c-5.597656-1.800782-11-4.101563-16.199218-6.800782-20.398438-10.5-36.800782-27.300781-46.800782-48-1.800781-4.402344-6.699218-6.5-11.097656-4.699218-4.402344 1.796874-6.5 6.699218-4.703125 11.097656 3.101563 7.5 7.300781 14.601562 12.402344 21.101562zm20.898437 44c-9.398437 0-17.097656-7.601562-17.097656-17.101562 0-5.597656 2.796875-10.898438 7.398438-14 7.601562 7.699218 16.199218 14.300781 25.601562 19.699218-2.300781 6.800782-8.703125 11.402344-15.902344 11.402344zm0 0"/><path d="m273.089844 205.097656c.898437 0 1.800781-.199218 2.699218-.402344 3-1 5.902344-2.097656 8.699219-3.296874 5.601563 13.097656 18.703125 21.398437 33 20.699218 14.300781-.699218 26.601563-10.199218 30.902344-23.800781s-.300781-28.398437-11.601563-37.199219c5.101563-6.5 9.300782-13.601562 12.601563-21.199218 1.800781-4.402344-.402344-9.300782-4.699219-11.101563-4.402344-1.800781-9.300781.398437-11.101562 4.699219-10 20.601562-26.5 37.5-46.800782 48-5.199218 2.699218-10.597656 5-16.199218 6.800781-4 1.300781-6.5 5.300781-5.800782 9.5.699219 4.199219 4.101563 7.300781 8.300782 7.300781zm59.699218-17.101562c0 8.300781-5.898437 15.402344-14.097656 16.800781-8.203125 1.398437-16.203125-3.300781-18.902344-11.101563 9.402344-5.398437 18-12.097656 25.601563-19.699218 4.597656 3.101562 7.398437 8.402344 7.398437 14zm0 0"/><path d="m338.191406 241.097656c-3.703125-2.902344-9.101562-2.300781-12 1.300782-2.902344 3.699218-2.300781 9.097656 1.296875 12 34.601563 27.699218 17.800781 53.398437 15.601563 56.5 0 .097656 0 .097656-.101563.199218-.097656.097656-.097656.097656-.199219.199219-12.398437 19.601563-32.800781 32.898437-55.800781 36.101563-1.199219 0-2.398437.199218-3.5.699218-.898437.097656-1.796875.199219-2.699219.398438.5-2.199219.800782-4.5.800782-6.800782 0-4.5 7.699218-9.898437 13.300781-13.898437 7-5 13.097656-9.300781 13.699219-16.398437.199218-2.101563-.300782-4.203126-1.199219-6.101563.199219-6.199219 2.199219-12.300781 5.898437-17.300781 3.199219-3.300782 3.199219-8.699219-.097656-12-3.300781-3.300782-8.601562-3.300782-12-.097656-4.800781 5.296874-8.101562 11.796874-9.5 18.796874-11.703125-3-23.703125-4.398437-35.703125-4.296874-12-.101563-24 1.296874-35.699219 4.296874-1.398437-7-4.597656-13.5-9.5-18.796874-3.300781-3.203126-8.699218-3.203126-12 .097656-3.300781 3.300781-3.300781 8.601562-.097656 12 3.699219 5 5.699219 11.101562 5.898438 17.300781-.898438 1.898437-1.398438 4-1.199219 6.101563.597656 7 6.597656 11.398437 13.699219 16.398437 5.601562 4 13.300781 9.5 13.300781 13.898437 0 2.203126.199219 4.5.699219 6.703126-1.199219-.203126-2.300782-.402344-3.398438-.601563h-.101562c-23.699219-3.800781-44.898438-17-58.699219-36.699219-2.101563-2.902344-19.300781-28.699218 15.5-56.5 3.699219-2.902344 4.300781-8.300781 1.300781-12-2.902344-3.699218-8.300781-4.300781-12-1.300781-40.703125 32.5-26.5 66.300781-20.601562 76.699219l-8.101563 56.699218c-.5 3.300782 1 6.601563 3.902344 8.402344 2.800781 1.800782 6.5 1.699219 9.300781-.101562l23.898438-15.898438c-1.300782 20.097656 4.199218 40 15.800781 56.597656 1.597656 2.101563 4.097656 3.402344 6.800781 3.402344 4.699219 0 8.5-3.800781 8.5-8.5.398438-11.199218 2.398438-22.300781 5.898438-32.902344l11.898437 27.703126c1.300781 3.097656 4.402344 5.199218 7.800781 5.199218h.300782c3.5-.101562 6.601562-2.5 7.699218-5.800781l9-26.898437 9 26.898437c1.101563 3.398437 4.199219 5.699219 7.699219 5.800781h.300781c3.402344 0 6.5-2 7.800782-5.199218l11.898437-27.703126c3.5 10.601563 5.5 21.703126 5.902344 32.902344 0 3.699219 2.398437 6.898438 5.800781 8.097656 3.5 1.203126 7.296875 0 9.5-3 11.5-16.5 17.097656-36.5 15.699219-56.699218l23.898437 16c2.800782 1.902344 6.402344 1.902344 9.300782.101562 2.898437-1.800781 4.398437-5.101562 3.898437-8.402344l-8.097656-56.699218c6.199219-10.597656 20.398437-44.398438-20.199219-76.898438zm-111.203125 72.699219c-1-.699219-2.199219-1.601563-3.296875-2.398437 10.597656-2.703126 21.398438-4.101563 32.296875-3.902344 10.902344-.199219 21.800781 1.101562 32.300781 3.902344-1.097656.898437-2.300781 1.699218-3.300781 2.398437-8.597656 6.199219-20.398437 14.601563-20.398437 27.800781 0 4.699219-3.800782 8.5-8.5 8.5-4.699219 0-8.5-3.800781-8.5-8.5-.101563-13.300781-11.898438-21.699218-20.601563-27.800781zm-59 21.898437c4.203125 4.101563 8.703125 7.902344 13.5 11.203126l-16.699219 11.097656zm32.800781 52c-1.800781-10.097656-2-20.398437-.699218-30.5 3.699218 1.601563 7.5 2.902344 11.398437 4.101563-4.699219 8.199219-8.296875 17.101563-10.699219 26.398437zm37.199219-1.898437-8.796875-20.5.097656-.101563c4.699219.703126 9.699219 1.300782 15 1.601563zm36.101563 0-6.398438-19.101563c5.296875-.296874 10.296875-.796874 15.097656-1.5zm37.199218 1.898437c-2.398437-9.097656-5.898437-17.898437-10.5-26.097656 3.800782-1.101562 7.601563-2.402344 11.300782-3.902344 1.199218 10 .898437 20.101563-.800782 30zm20-40.398437c4.601563-3.300781 8.902344-7 12.902344-11l3.097656 21.699219zm0 0"/></svg>