<?xml version="1.0" encoding="iso-8859-1"?>
<!-- Generator: Adobe Illustrator 19.0.0, SVG Export Plug-In . SVG Version: 6.00 Build 0)  -->
<svg version="1.1" id="Layer_1" xmlns="http://www.w3.org/2000/svg" xmlns:xlink="http://www.w3.org/1999/xlink" x="0px" y="0px"
	 viewBox="0 0 512 512" style="enable-background:new 0 0 512 512;" xml:space="preserve">
<path style="fill:#FFC373;" d="M438.577,503.578H117.614v-53.357c0-25.417,20.605-46.022,46.022-46.022h228.919
	c25.417,0,46.022,20.605,46.022,46.022V503.578z"/>
<path style="fill:#FFF4CA;" d="M410.993,120.871H146.201c2.352-17.443,9.364-48.635,30.215-73.374
	c14.33-17.023,35.204-30.999,65.624-35.34c66.419-9.489,122.282-2.522,150.168,41.101
	C402.924,70.007,409.515,92.166,410.993,120.871z"/>
<path style="fill:#FFDAA7;" d="M396.879,218.347v116.828c0,33.863-13.727,64.533-35.92,86.726
	c-22.193,22.193-52.852,35.92-86.726,35.92c-36.669,0-69.579-16.09-92.044-41.59c-19.056-21.613-30.613-49.988-30.613-81.056
	V218.347H396.879z"/>
<path style="fill:#FFC373;" d="M396.265,218.347v29.602c0,0-31.057,0-143.179,0c-108.771,0-73.124,158.793-70.896,168.282
	c-19.056-21.613-30.613-49.988-30.613-81.056V218.347H396.265z"/>
<g>
	<path style="fill:#FFF4CA;" d="M432.242,252.437c-1.557,40.477-35.374,66.011-35.374,66.011c0-28.966-9.431-50.499-20.988-66.011
		c-18.329-24.614-42.034-34.09-42.034-34.09h92.044C430.901,230.584,432.652,242.005,432.242,252.437z"/>
	<path style="fill:#FFF4CA;" d="M429.255,218.352c0,0-54.543,0-161.889,0c-107.334,0-115.794,100.099-115.794,100.099
		c-13.583-24.076-22.75-52.645-26.176-81.922c-0.213-1.899-0.416-3.797-0.584-5.696c-0.124-1.281-0.236-2.55-0.326-3.831
		c-0.741-9.954-0.809-19.952-0.135-29.839c2.764-41.343,18.245-80.686,50.173-107.155c2.786-2.303,5.696-4.516,8.74-6.628
		c23.952-16.593,55.835-26.659,96.875-26.659c81.147,0,118.625,38.253,135.713,77.541c4.056,9.28,6.954,18.616,9.021,27.513
		C432.064,192.67,429.255,218.352,429.255,218.352z"/>
</g>
<g>
	<path style="fill:#FFEB96;" d="M424.879,161.779H249.882c-58.218-1.519-92.294,33.863-125.395,65.226
		c-0.738-9.955-0.807-19.955-0.136-29.84l1.307-2.273c0,0,28.886-60.636,131.157-60.636h159.042
		C419.913,143.541,422.81,152.881,424.879,161.779z"/>
	<path style="fill:#FFEB96;" d="M211.587,150.585c0,23.21-13.279,43.376-32.647,53.285c-9.909,19.368-30.075,32.659-53.285,32.659
		h-0.258c-0.213-1.899-0.416-3.797-0.584-5.696c-0.124-1.281-0.236-2.55-0.326-3.831c-0.741-9.954-0.809-19.952-0.135-29.839
		c2.764-41.343,18.245-80.686,50.173-107.155c1.64,2.314,3.112,4.752,4.415,7.291C198.308,107.209,211.587,127.375,211.587,150.585z
		"/>
</g>
<path style="fill:#FF52A1;" d="M151.77,124.469c0-14.424-11.693-26.117-26.117-26.117c-14.424,0-26.117,11.693-26.117,26.117
	c-14.424,0-26.117,11.693-26.117,26.118c0,14.424,11.693,26.117,26.117,26.117c0,14.424,11.693,26.118,26.117,26.118
	s26.117-11.693,26.117-26.118c14.424,0,26.117-11.693,26.117-26.117C177.887,136.162,166.194,124.469,151.77,124.469z"/>
<path style="fill:#FFEB96;" d="M432.242,252.437h-56.362c-18.329-24.614-42.034-34.09-42.034-34.09h92.044
	C430.901,230.584,432.652,242.005,432.242,252.437z"/>
<g>
	<circle style="fill:#C6FB77;" cx="200.726" cy="317.543" r="49.151"/>
	<circle style="fill:#C6FB77;" cx="347.729" cy="317.543" r="49.151"/>
</g>
<g>
	<path style="fill:#83E26F;" d="M249.882,317.55c0,27.136-22.011,49.146-49.146,49.146c-27.147,0-49.159-22.011-49.159-49.146
		c0-4.319,0.557-8.511,1.602-12.5c5.534,21.079,24.727,36.647,47.556,36.647c22.817,0,42.01-15.568,47.544-36.647
		C249.325,309.038,249.882,313.231,249.882,317.55z"/>
	<path style="fill:#83E26F;" d="M396.879,317.55c0,27.136-21.999,49.146-49.146,49.146c-27.147,0-49.146-22.011-49.146-49.146
		c0-4.319,0.557-8.511,1.602-12.5c5.534,21.079,24.716,36.647,47.544,36.647c22.83,0,42.01-15.568,47.544-36.647
		C396.323,309.038,396.879,313.231,396.879,317.55z"/>
</g>
<path d="M392.552,395.779h-2.126c9.499-18.138,14.883-38.756,14.883-60.61v-9.923c0-0.727-0.102-1.429-0.275-2.103
	c0.018-0.185,0.027-0.374,0.043-0.561c4.915-4.299,14.684-13.794,22.749-27.525c13.488-22.963,16.416-47.817,8.619-72.334
	c0.627-1.028,1.047-2.2,1.185-3.466c0.274-2.506,5.289-51.975-18.28-97.348c0.06-0.482,0.086-0.973,0.061-1.475
	c-2.501-48.48-19.6-82.756-50.827-101.873c-3.966-2.427-9.154-1.183-11.586,2.786c-2.43,3.968-1.182,9.155,2.786,11.586
	C380,45.308,392.93,65.009,398.944,92.743c-27.303-29.48-67.254-44.436-118.804-44.436c-49.101,0-89.312,14.217-117.868,41.371
	c10.92-31.088,33.721-62.436,80.963-69.182c34.73-4.963,62.708-4.865,85.536,0.292c4.535,1.029,9.049-1.822,10.075-6.362
	c1.026-4.539-1.822-9.051-6.362-10.075c-24.862-5.618-54.836-5.793-91.632-0.538c-63.175,9.021-88.031,56.469-97.783,90.842
	c-5.117-3.001-11.068-4.729-17.417-4.729c-16.442,0-30.237,11.546-33.703,26.956c-15.411,3.466-26.957,17.262-26.957,33.704
	s11.546,30.238,26.957,33.703c2.719,12.089,11.796,21.798,23.519,25.423c-0.199,38.26,9.801,78.342,27.684,110.901v14.554
	c0,21.388,5.217,42.248,14.996,60.887c-27.457,2.761-48.963,25.999-48.963,54.166v53.353c0,4.654,3.771,8.426,8.426,8.426
	c4.654,0,8.426-3.771,8.426-8.426V450.22c0-20.728,16.869-37.591,37.602-37.591h4.845c2.313,3.155,4.772,6.217,7.379,9.174
	c1.665,1.89,3.989,2.855,6.325,2.855c1.98,0,3.966-0.693,5.568-2.104c3.491-3.077,3.826-8.402,0.75-11.893
	c-12.606-14.304-21.325-31.412-25.561-49.728c10.12,8.825,23.334,14.188,37.785,14.188c31.749,0,57.577-25.828,57.577-57.577
	c0-31.748-25.828-57.576-57.577-57.576c-6.021,0-11.827,0.932-17.285,2.655c16.014-19.981,41.933-35.857,83.922-35.857h64.703
	c5.726,2.672,28.442,14.526,43.236,40.249c-8.193-4.488-17.589-7.045-27.572-7.045c-31.749,0-57.577,25.828-57.577,57.576
	c0,31.749,25.828,57.577,57.577,57.577c14.457,0,27.674-5.367,37.796-14.197c-11.711,50.623-57.168,88.472-111.298,88.472
	c-21.915,0-43.201-6.221-61.558-17.989c-3.916-2.512-9.129-1.372-11.64,2.546c-2.512,3.917-1.373,9.129,2.546,11.64
	c21.077,13.512,45.509,20.655,70.654,20.655c43.32,0,81.793-21.129,105.672-53.618h12.65c20.733,0,37.602,16.863,37.602,37.591
	v53.353c0,4.654,3.771,8.426,8.426,8.426c4.654,0,8.426-3.771,8.426-8.426v-53.353C447.006,420.201,422.578,395.779,392.552,395.779
	z M107.961,176.704c0-4.654-3.771-8.426-8.426-8.426c-9.756,0-17.692-7.936-17.692-17.691s7.936-17.691,17.692-17.691
	c4.654,0,8.426-3.771,8.426-8.426c0-9.755,7.936-17.691,17.691-17.691s17.691,7.936,17.691,17.691c0,4.654,3.771,8.426,8.426,8.426
	c9.755,0,17.691,7.936,17.691,17.691s-7.936,17.691-17.691,17.691c-4.654,0-8.426,3.771-8.426,8.426
	c0,9.756-7.936,17.692-17.691,17.692S107.961,186.459,107.961,176.704z M241.455,317.545c0,22.456-18.27,40.725-40.725,40.725
	c-22.085,0-40.108-17.674-40.697-39.621c0.269-2.32,1.309-9.779,4.385-19.505c6.733-13.232,20.477-22.323,36.312-22.323
	C223.186,276.821,241.455,295.091,241.455,317.545z M148.756,292.79c-0.043,0.089-0.08,0.181-0.122,0.27
	c-10.571-25.665-16.343-54.558-16.304-82.468c13.396-2.636,24.042-13.032,27.026-26.301c13.877-3.122,24.616-14.622,26.617-28.884
	c20.389-8.44,44.2-12.73,70.844-12.73h64.386c4.654,0,8.426-3.771,8.426-8.426s-3.771-8.426-8.426-8.426h-64.386
	c-26.986,0-51.445,4.128-72.855,12.253c-3.999-10.257-12.761-18.147-23.558-20.936c25.27-34.014,66.598-51.984,119.736-51.984
	c47.377,0,83.566,13.54,107.562,40.243c5.773,6.425,10.559,13.325,14.544,20.425h-46.634c-4.654,0-8.426,3.771-8.426,8.426
	s3.771,8.426,8.426,8.426h54.55c10.585,27.286,11.443,54.475,11.12,67.236H267.366C187.811,209.914,158.926,261.624,148.756,292.79z
	 M362.948,226.767h57.095c6.772,20.228,4.606,40.143-6.467,59.271c-3.052,5.271-6.435,9.839-9.607,13.602
	c-4.497-31.135-19.637-52.352-32.671-65.311C368.493,231.538,365.684,229.023,362.948,226.767z M347.733,358.27
	c-22.456,0-40.725-18.27-40.725-40.725c0-22.454,18.27-40.724,40.725-40.724c21.747,0,39.567,17.134,40.67,38.61
	c0.024,0.931,0.035,1.872,0.037,2.821C388.061,340.381,369.953,358.27,347.733,358.27z"/>
<path d="M377.521,462.058c-4.654,0-8.426,3.771-8.426,8.426v28.086c0,4.654,3.771,8.426,8.426,8.426
	c4.654,0,8.426-3.771,8.426-8.426v-28.086C385.947,465.829,382.174,462.058,377.521,462.058z"/>
<path d="M178.67,462.058c-4.654,0-8.426,3.771-8.426,8.426v28.086c0,4.654,3.771,8.426,8.426,8.426c4.654,0,8.426-3.771,8.426-8.426
	v-28.086C187.096,465.829,183.323,462.058,178.67,462.058z"/>
<path d="M285.595,435.348c4.654,0,8.426-3.771,8.426-8.426s-3.771-8.426-8.426-8.426h-22.726c-4.654,0-8.426,3.771-8.426,8.426
	s3.771,8.426,8.426,8.426H285.595z"/>
<g>
</g>
<g>
</g>
<g>
</g>
<g>
</g>
<g>
</g>
<g>
</g>
<g>
</g>
<g>
</g>
<g>
</g>
<g>
</g>
<g>
</g>
<g>
</g>
<g>
</g>
<g>
</g>
<g>
</g>
</svg>
