<?xml version="1.0" encoding="iso-8859-1"?>
<!-- Generator: Adobe Illustrator 21.0.0, SVG Export Plug-In . SVG Version: 6.00 Build 0)  -->
<svg xmlns="http://www.w3.org/2000/svg" xmlns:xlink="http://www.w3.org/1999/xlink" version="1.1" id="Capa_1" x="0px" y="0px" viewBox="0 0 512 512" style="enable-background:new 0 0 512 512;" xml:space="preserve" width="512" height="512">
<g>
	<polygon style="fill:#837A91;" points="435.683,504.5 78.458,504.5 51,290.884 105.971,7.5 406.847,7.5 461,290.884  "/>
	<polygon style="fill:#6B6477;" points="406.847,7.5 375.833,7.5 381,37.5 431,290.884 405.683,504.5 435.683,504.5 461,290.884     "/>
	<polygon style="fill:#F2F0F0;" points="108.745,504.5 81.377,291.528 131,37.5 381,37.5 430.787,291.689 405.547,504.5  "/>
	<polygon style="fill:#DBD3D0;" points="152.731,504.5 132,293.177 172.178,87.5 339.843,87.5 380.21,293.597 361.127,504.5  "/>
	<g>
		<rect x="234.239" y="367.771" style="fill:#D98868;" width="43.521" height="50.775"/>
		<g>
			<path style="fill:#E09E83;" d="M188.726,262.595c0,15.623-9.58,28.289-21.396,28.289c-11.817,0-18.682-14.545-18.682-30.168     s6.865-26.409,18.682-26.409C179.147,234.306,188.726,246.972,188.726,262.595z"/>
			<path style="fill:#D98868;" d="M323.274,262.595c0,15.623,9.58,28.289,21.396,28.289s18.682-14.545,18.682-30.168     s-6.865-26.409-18.682-26.409S323.274,246.972,323.274,262.595z"/>
		</g>
		<path style="fill:#FFC6A9;" d="M177.662,295.287v-58.184c0-40.804,33.078-73.882,73.882-73.882h8.913    c40.804,0,73.882,33.078,73.882,73.882v58.184c0,43.237-35.05,78.287-78.287,78.287h-0.102    C212.712,373.574,177.662,338.524,177.662,295.287z"/>
		<path style="fill:#E09E83;" d="M260.457,163.222h-8.913c-3.581,0-7.099,0.269-10.544,0.761    c35.807,5.119,63.338,35.898,63.338,73.12v58.184c0,38.122-27.255,69.865-63.338,76.844c4.841,0.936,9.835,1.443,14.949,1.443    h0.102c43.237,0,78.287-35.05,78.287-78.287v-58.184C334.338,196.3,301.26,163.222,260.457,163.222z"/>
		<path style="fill:#FF7043;" d="M358.275,489.68v14.82H153.725v-14.82c0-43.093,30.253-78.025,67.574-78.025H290.7    C328.022,411.655,358.275,446.587,358.275,489.68z"/>
		<path style="fill:#FF5722;" d="M290.7,411.655h-30c37.321,0,60.999,34.932,60.999,78.025v14.82h36.575v-14.82    C358.275,446.587,328.022,411.655,290.7,411.655z"/>
		<path style="fill:#837A91;" d="M320.897,504.5H191.103l11.588-94.236c0.072-0.584,0.49-1.067,1.058-1.222l27.768-7.582    c0.78-0.213,1.583,0.252,1.786,1.034l11.085,42.634c3.113,11.973,20.114,11.974,23.228,0.001l11.088-42.635    c0.203-0.782,1.007-1.247,1.786-1.034l27.768,7.582c0.568,0.155,0.986,0.638,1.058,1.223L320.897,504.5z"/>
		<g>
			<path style="fill:#6B6477;" d="M309.316,410.264c-0.072-0.584-0.49-1.067-1.058-1.222l-27.768-7.582     c-0.78-0.213-1.583,0.252-1.786,1.034l-1.62,6.227l1.174,0.321c0.568,0.155,0.986,0.638,1.058,1.222l11.581,94.236h30     L309.316,410.264z"/>
		</g>
		<g>
			<path style="fill:#B0693C;" d="M342.622,260.873c-2.29,6.13-9.917,8.477-15.038,4.408c-14.943-11.827-18.14-46.277-18.14-46.277     c-25.009-14.743-29.168-30.951-29.168-30.951c-14.455,24.617-77.723,30.951-77.723,30.951s-3.184,34.45-18.127,46.277     c-5.121,4.069-12.748,1.723-15.038-4.408c-7.045-18.812-2.777-41.869-2.777-41.869s2.547-62.905,57.672-72.291     c58.472-9.942,68.632,10.633,68.632,10.633c54.868,2.713,52.47,61.657,52.47,61.657S349.654,242.061,342.622,260.873z"/>
		</g>
		<g>
			<path style="fill:#9C5D35;" d="M345.386,219.004c0,0,2.398-58.945-52.47-61.657c0,0-8.634-17.482-55.781-12.43     c10.562,1.506,17.007,4.614,20.812,7.345c4.27,3.065,9.121,5.192,14.285,6.165c45.271,8.529,43.154,60.578,43.154,60.578     s2.482,13.443,0.529,28.173c2.714,7.169,6.483,13.999,11.669,18.104c5.121,4.069,12.748,1.723,15.038-4.408     C349.654,242.061,345.386,219.004,345.386,219.004z"/>
		</g>
	</g>
	<polygon style="fill:#D1C4C4;" points="131,37.5 172.178,87.5 339.843,87.5 381,37.5  "/>
	<g>
		<path d="M76.155,161.202c0.482,0.094,0.962,0.139,1.437,0.139c3.519,0,6.659-2.489,7.354-6.072L112.156,15H320    c4.142,0,7.5-3.357,7.5-7.5S324.142,0,320,0H105.971c-3.591,0-6.679,2.546-7.363,6.071L70.221,152.412    C69.432,156.478,72.089,160.414,76.155,161.202z"/>
		<path d="M468.367,289.477L414.213,6.092C413.538,2.557,410.446,0,406.847,0H352c-4.142,0-7.5,3.357-7.5,7.5s3.358,7.5,7.5,7.5    h48.644l52.771,276.152L429.02,497h-15.03l24.245-204.427c0.092-0.775,0.063-1.56-0.087-2.325L388.365,36.08    c-0.001-0.004-0.002-0.009-0.003-0.013l-0.002-0.008c-0.001-0.004-0.002-0.009-0.003-0.013c-0.698-3.504-3.702-5.937-7.149-6.042    c-0.019,0-0.038-0.001-0.056-0.001C381.101,30,381.051,30,381,30H131c-3.545,0-6.699,2.514-7.372,6.122L74.016,290.091    c-0.154,0.788-0.18,1.597-0.078,2.394L100.219,497H85.056L58.593,291.126l20.259-104.44c0.789-4.066-1.868-8.003-5.935-8.791    c-4.063-0.79-8.002,1.867-8.791,5.935L43.637,289.456c-0.152,0.785-0.178,1.59-0.076,2.384l27.458,213.616    C71.5,509.198,74.686,512,78.458,512h357.225c3.801,0,7-2.843,7.448-6.617l25.317-213.616    C468.539,291.003,468.511,290.23,468.367,289.477z M365.112,45l-28.81,35H175.717l-28.825-35H365.112z M358.31,452.408    c-2.075-4.871-4.571-9.54-7.474-13.958c-8.64-13.151-20.609-23.305-34.062-28.992l-0.013-0.109    c-0.445-3.62-3.005-6.58-6.526-7.543l-24.974-6.819v-19.019c8.755-3.162,16.889-7.715,24.243-13.58    c3.239-2.583,3.771-7.302,1.188-10.54c-2.583-3.239-7.3-3.771-10.54-1.188c-12.334,9.835-27.653,15.41-44.201,15.41    c-39.689,0-70.79-32.495-70.79-70.78c0-8.044,0-13.78,0-21.792c14.437-6.127,21.703-31.986,24.099-47.744    c14.744-1.988,50.569-8.306,69.356-24.439c4.244,6.295,11.517,14.37,23.802,22.18c2.187,16.296,9.531,43.661,24.423,49.997v13.858    c0,0.033,0,0.065,0,0.098v7.841c0,11.561-2.846,23.026-8.23,33.158c-1.944,3.657-0.555,8.198,3.103,10.143    c1.122,0.596,2.326,0.879,3.513,0.879c2.685,0,5.281-1.446,6.629-3.982c6.079-11.438,9.49-24.269,9.935-37.282    c0.954,0.116,1.915,0.175,2.88,0.175c11.49,0,20.594-9.086,24.334-22.977l3.64,18.584L358.31,452.408z M201.773,401.807    c-3.519,0.961-6.081,3.922-6.525,7.542l-0.012,0.1c-13.453,5.687-25.423,15.843-34.065,28.996c-2.365,3.6-4.46,7.366-6.277,11.271    l-15.321-156.179l3.494-17.884c3.782,13.749,12.845,22.727,24.266,22.727c0.965,0,1.927-0.059,2.88-0.175    c1.199,34.934,23.855,65.921,56.53,77.76v19.023L201.773,401.807z M158.614,247.88c0.669,5.162,1.835,10.507,3.749,15.617    c1.45,3.883,4.245,7.092,7.797,9.089v10.339c-0.926,0.302-1.871,0.455-2.83,0.455c-6.165,0-11.18-10.165-11.18-22.66    C156.15,256.223,156.87,251.486,158.614,247.88z M338.01,220.359c0.039,0.211,3.78,21.319-2.413,37.888c0,0.001,0,0.002,0,0.002    c-0.387,1.036-1.259,1.378-1.616,1.478c-0.057,0.016-0.118,0.031-0.182,0.043c-0.137,0.01-0.273,0.023-0.408,0.04    c-0.358-0.001-0.762-0.1-1.151-0.409c-9.233-7.308-14.228-29.517-15.327-41.09c-0.223-2.398-1.584-4.544-3.659-5.768    c-20.893-12.316-25.43-25.488-25.725-26.41c-0.693-2.975-3.098-5.127-6.121-5.599c-3.046-0.479-6.039,1.066-7.598,3.722    c-4.802,8.178-18.848,15.708-39.549,21.205c-16.863,4.477-32.302,6.065-32.453,6.08c-3.573,0.357-6.391,3.197-6.721,6.772    c-1.825,19.756-11.094,41.532-16.479,41.496c-0.127-0.016-0.256-0.029-0.385-0.038c-0.067-0.013-0.131-0.028-0.191-0.044    c-0.357-0.1-1.229-0.441-1.618-1.483c-6.204-16.567-2.463-37.673-2.426-37.874c0.063-0.342,0.104-0.701,0.119-1.048    c0.007-0.146,0.733-14.879,7.706-30.301c8.928-19.746,23.641-31.492,43.73-34.913c11.054-1.879,20.177-2.614,27.688-2.614    c25.054,0,32.15,8.182,33.032,9.349c1.086,2.665,3.371,3.852,6.285,3.996c19.453,0.962,32.939,9.986,40.084,26.824    c5.682,13.389,5.267,26.92,5.263,27.037C337.87,219.252,337.911,219.814,338.01,220.359z M355.85,260.72    c0,12.495-5.016,22.66-11.18,22.66c-0.959,0-1.904-0.152-2.83-0.455v-10.333c3.557-1.996,6.357-5.208,7.809-9.095l0,0.002    c1.909-5.109,3.073-10.453,3.74-15.613C355.131,251.491,355.85,256.225,355.85,260.72z M270.26,404.15h-28.52v-24.253    c4.684,0.78,9.462,1.173,14.31,1.173c4.787,0,9.539-0.393,14.21-1.172V404.15z M266.623,419.15l-6.265,24.09    c-0.791,3.039-3.309,3.367-4.355,3.367c-1.046,0-3.565-0.328-4.355-3.368l-6.263-24.089H266.623z M353.974,228.613    c-0.288-4.917-0.82-8.597-1.075-10.169c0.037-3.604-0.243-17.67-6.246-32.128c-6.297-15.167-20.035-33.449-49.841-36.211    c-6.348-6.885-24.926-19.094-73.787-10.785c-25.129,4.278-44.183,19.496-55.1,44.007c-7.314,16.42-8.589,31.729-8.778,34.827    c-0.23,1.37-0.815,5.208-1.122,10.459c-2.423,1.008-4.63,2.422-6.591,4.198L178.355,95H333.67l27.013,137.917    C358.692,231.091,356.445,229.641,353.974,228.613z M88.97,291.775l46.344-237.24l28.824,35l-39.5,202.204    c-0.14,0.714-0.174,1.445-0.104,2.17L144.459,497h-29.116L88.97,291.775z M161.23,489.68c0-26.234,12.604-50.11,31.789-62.209    l-8.55,69.53H161.23V489.68z M199.582,497l9.966-81.043c0.021-0.139,0.038-0.279,0.052-0.42l0.041-0.33l17.946-4.9l9.544,36.707    c2.269,8.729,9.853,14.594,18.872,14.594c0,0,0,0,0.001,0c9.018,0,16.602-5.864,18.872-14.592l9.547-36.709l17.946,4.9    l0.053,0.431c0.009,0.085,0.019,0.17,0.031,0.255L312.419,497H199.582z M327.532,497l-8.544-69.521    c19.18,12.097,31.782,35.97,31.782,62.201V497H327.532z M369.336,497l18.343-202.728c0.064-0.707,0.027-1.42-0.109-2.117    L347.884,89.533l28.81-35L423.2,291.976L398.884,497H369.336z"/>
	</g>
</g>















</svg>
