<?xml version="1.0" encoding="iso-8859-1"?>
<!-- Generator: Adobe Illustrator 19.0.0, SVG Export Plug-In . SVG Version: 6.00 Build 0)  -->
<svg version="1.1" id="Capa_1" xmlns="http://www.w3.org/2000/svg" xmlns:xlink="http://www.w3.org/1999/xlink" x="0px" y="0px"
	 viewBox="0 0 512 512" style="enable-background:new 0 0 512 512;" xml:space="preserve">
<path style="fill:#EFB078;" d="M175.601,365.274v139.122h290.083V248.685c0-69.468-34.034-130.993-86.335-168.808"/>
<path style="fill:#605B58;" d="M355.104,152.849c37.574,9.682,65.333,43.789,65.333,84.394v44.144
	c0,69.429-56.279,125.709-125.709,125.709h-77.307c-23.096,0-41.822-18.726-41.822-41.822"/>
<path style="fill:#F7CB92;" d="M355.104,74.051v186.621c0,57.77-46.83,104.6-104.6,104.6h-98.142
	c-18.746,0-33.954-15.198-33.954-33.954c0-6.022,4.887-10.899,10.909-10.899h7.046v-44.863H91.45
	c-9.419,0-17.398-7.442-17.499-16.85c-0.051-4.785,1.876-9.125,4.988-12.258c3.082-3.072,7.361-4.988,12.055-4.988
	c9.419,0,17.053-7.634,17.053-17.043v-29.605H93.376c-14.174,0-25.61-11.741-25.103-26.036c0.081-2.16,0.436-4.238,1.034-6.215
	c3.184-10.493,13.211-17.986,24.667-17.986h14.072V74.051L355.104,74.051L355.104,74.051z"/>
<g>
	<path style="fill:#E2B27F;" d="M297.317,74.051v186.621c0,57.77-46.83,104.6-104.6,104.6h57.787c57.77,0,104.6-46.83,104.6-104.6
		V74.051H297.317z"/>
	<path style="fill:#E2B27F;" d="M355.104,77.823v84.749h-81.981l-0.01-0.01h-73.008c-31.024,0-56.178-25.154-56.178-56.178
		c0,28.074-15.553,51.332-35.881,55.509V74.051H351.1C352.479,75.268,353.807,76.525,355.104,77.823z"/>
</g>
<path style="fill:#BA7052;" d="M101.485,118.309H46.314l0,0c0-61.14,37.45-110.704,83.647-110.704h13.969v54.53
	C143.93,93.158,124.926,118.309,101.485,118.309z"/>
<path style="fill:#A35D45;" d="M143.932,7.61h18.483H292.63c48.689,0,88.154,39.466,88.154,88.154v22.55H273.119"/>
<path style="fill:#BA7052;" d="M200.104,118.309h73.017l0,0c0-61.14-49.564-110.704-110.704-110.704H143.93v54.53
	C143.93,93.158,169.08,118.309,200.104,118.309z"/>
<path style="fill:#F7CB92;" d="M262.945,181.705c0-17.017,13.795-30.812,30.812-30.812l0,0c17.017,0,30.812,13.795,30.812,30.812
	v42.5c0,17.017-13.795,30.812-30.812,30.812h-30.812"/>
<path d="M171.639,212.611c4.2,0,7.604-3.405,7.604-7.604v-9.059h7.976c4.2,0,7.604-3.405,7.604-7.604
	c0-4.199-3.404-7.604-7.604-7.604H163.09c-3.188,0-5.78-2.593-5.78-5.781v-18.045c0-4.199-3.404-7.604-7.604-7.604
	c-4.2,0-7.604,3.405-7.604,7.604v18.045c0,11.573,9.415,20.989,20.988,20.989h0.945v9.059
	C164.035,209.206,167.439,212.611,171.639,212.611z"/>
<path d="M465.684,385.296c-4.2,0-7.604,3.405-7.604,7.604v111.496c0,4.199,3.404,7.604,7.604,7.604c4.2,0,7.604-3.405,7.604-7.604
	V392.9C473.288,388.7,469.885,385.296,465.684,385.296z"/>
<path d="M412.643,98.712c-2.921-3.019-7.734-3.1-10.752-0.18c-3.018,2.92-3.099,7.733-0.18,10.752
	c36.351,37.593,56.371,87.1,56.371,139.403v118.867c0,4.199,3.404,7.604,7.604,7.604s7.604-3.405,7.604-7.604V248.685
	C473.288,192.417,451.751,139.155,412.643,98.712z"/>
<path d="M128.756,295.292c0,4.199,3.404,7.604,7.604,7.604s7.604-3.405,7.604-7.604v-19.739c0-4.199-3.404-7.604-7.604-7.604H91.446
	c-5.397,0-9.834-4.187-9.892-9.336c-0.028-2.562,0.955-4.977,2.752-6.78c1.794-1.787,4.169-2.771,6.691-2.771
	c13.592,0,24.65-11.058,24.65-24.651v-29.596v-18.639c0-4.199-3.404-7.604-7.604-7.604c-4.2,0-7.604,3.405-7.604,7.604v11.035
	h-7.065c-4.797,0-9.273-1.902-12.605-5.356c-3.328-3.451-5.067-8-4.894-12.816c0.326-9.298,8.445-16.864,18.097-16.864h14.07
	c4.2,0,7.604-3.405,7.604-7.604c0-4.199-3.404-7.604-7.604-7.604h-14.07c-17.749,0-32.684,14.148-33.295,31.531
	c-0.322,8.973,2.925,17.466,9.146,23.915c6.224,6.452,14.588,10.006,23.551,10.006h7.065v21.992c0,5.207-4.236,9.443-9.442,9.443
	c-6.573,0-12.761,2.559-17.446,7.226c-4.722,4.739-7.28,11.027-7.203,17.704c0.15,13.439,11.41,24.372,25.099,24.372h37.31v12.135
	H128.756z"/>
<path d="M255.342,255.018c0,4.199,3.404,7.604,7.604,7.604h30.812c21.184,0,38.417-17.234,38.417-38.416v-42.5
	c0-21.183-17.234-38.416-38.417-38.416c-21.183,0-38.416,17.234-38.416,38.416c0,4.199,3.404,7.604,7.604,7.604
	c4.2,0,7.604-3.405,7.604-7.604c0-12.797,10.411-23.208,23.208-23.208s23.209,10.411,23.209,23.208v42.5
	c0,12.797-10.412,23.208-23.209,23.208h-30.812C258.745,247.414,255.342,250.818,255.342,255.018z"/>
<path d="M144.848,93.92c11.031,19.1,31.66,31.992,55.256,31.992H273c0.04,0.001,107.785,0.006,107.785,0.006
	c4.2,0,7.604-3.405,7.604-7.604v-22.55c0-52.801-42.957-95.758-95.758-95.758L129.961,0c-24.784,0-47.943,12.588-65.214,35.445
	c-16.791,22.221-26.037,51.649-26.037,82.863c0,4.199,3.404,7.604,7.604,7.604h55.171C120.003,125.911,136.191,113.02,144.848,93.92
	z M292.63,15.214c44.416,0,80.55,36.135,80.55,80.55v14.946h-32.35c-2.611-40.982-26.177-76.355-60.078-95.496h11.878V15.214z
	 M223.241,15.214c54.081,0.242,98.46,42.335,102.351,95.496h-45.108c-1.013-16.237-5.279-31.789-12.733-46.323
	c-1.918-3.737-6.5-5.212-10.237-3.295c-3.737,1.916-5.212,6.499-3.296,10.236c6.342,12.364,10.039,25.579,11.029,39.376h-65.143
	c-26.782,0-48.57-21.789-48.57-48.57V15.214h11.329C192,15.341,219.83,27.851,239.28,49.591c2.799,3.129,7.606,3.398,10.738,0.597
	c3.13-2.8,3.397-7.607,0.597-10.737c-8.753-9.783-18.989-17.929-30.21-24.237C220.405,15.214,223.241,15.214,223.241,15.214z
	 M129.961,15.208h6.365v46.926c0,26.782-15.63,48.57-34.84,48.57H54.123C57.004,57.391,89.917,15.208,129.961,15.208z"/>
<path d="M362.712,260.669V138.593c0-4.199-3.404-7.604-7.604-7.604c-4.2,0-7.604,3.405-7.604,7.604V260.67
	c0,53.486-43.515,97-97.001,97h-98.139c-14.529,0-26.348-11.82-26.348-26.348c0-1.821,1.481-3.302,3.302-3.302h73.426
	c4.2,0,7.604-3.405,7.604-7.604c0-4.199-3.404-7.604-7.604-7.604h-9.64v-5.27c0-4.199-3.404-7.604-7.604-7.604
	c-4.2,0-7.604,3.405-7.604,7.604v5.27h-10.141v-10.339c0-4.199-3.404-7.604-7.604-7.604c-4.2,0-7.604,3.405-7.604,7.604v10.339
	h-23.23c-10.206,0-18.51,8.304-18.51,18.51c0,22.914,18.643,41.556,41.556,41.556h98.139
	C312.375,372.878,362.712,322.541,362.712,260.669z"/>
<path d="M428.041,281.386v-44.144c0-32.227-16.154-61.953-43.211-79.52c-3.521-2.285-8.233-1.286-10.518,2.238
	c-2.287,3.522-1.287,8.232,2.237,10.519c22.72,14.751,36.284,39.71,36.284,66.765v44.144c0,65.122-52.981,118.105-118.104,118.105
	h-77.307c-5.438,0-10.634-1.236-15.444-3.674c-3.744-1.9-8.322-0.401-10.22,3.344c-1.899,3.746-0.401,8.322,3.345,10.221
	c6.96,3.528,14.469,5.318,22.32,5.318h77.307C368.237,414.699,428.041,354.895,428.041,281.386z"/>
<path d="M175.601,381.497c-4.2,0-7.604,3.405-7.604,7.604v115.295c0,4.199,3.404,7.604,7.604,7.604c4.2,0,7.604-3.405,7.604-7.604
	V389.101C183.205,384.901,179.802,381.497,175.601,381.497z"/>
<path d="M294.217,221.561v-19.769c0-5.031,4.093-9.124,9.125-9.124c4.2,0,7.604-3.405,7.604-7.604s-3.404-7.604-7.604-7.604
	c-13.416,0-24.333,10.915-24.333,24.332v19.769c0,4.199,3.404,7.604,7.604,7.604C290.813,229.165,294.217,225.761,294.217,221.561z"
	/>
<path d="M432.19,376.731c-4.153-0.608-8.014,2.237-8.624,6.391c-0.026,0.163-2.85,16.539-20.428,32.677
	c-23.777,21.828-63.546,33.366-115.004,33.366c-4.2,0-7.604,3.405-7.604,7.604s3.404,7.604,7.604,7.604
	c56.875,0,99.37-12.892,126.307-38.319c20.879-19.707,24.04-39.822,24.163-40.669C439.215,381.23,436.345,377.34,432.19,376.731z"/>
<g>
</g>
<g>
</g>
<g>
</g>
<g>
</g>
<g>
</g>
<g>
</g>
<g>
</g>
<g>
</g>
<g>
</g>
<g>
</g>
<g>
</g>
<g>
</g>
<g>
</g>
<g>
</g>
<g>
</g>
</svg>
