<?xml version="1.0" encoding="iso-8859-1"?>
<!-- Generator: Adobe Illustrator 19.0.0, SVG Export Plug-In . SVG Version: 6.00 Build 0)  -->
<svg version="1.1" id="Layer_1" xmlns="http://www.w3.org/2000/svg" xmlns:xlink="http://www.w3.org/1999/xlink" x="0px" y="0px"
	 viewBox="0 0 512 512" style="enable-background:new 0 0 512 512;" xml:space="preserve">
<path style="fill:#A5C6E3;" d="M476.215,228.473c0-120.623-97.478-218.905-217.804-220.193L256,503.742
	c32.592,0,61.913-14.237,82.096-36.809l51.585-57.729c39.639-6.056,70.017-40.299,70.017-81.634c0-4.426-0.363-8.776-1.035-13.015
	C469.95,288.096,476.215,259.006,476.215,228.473z"/>
<path style="fill:#D2E3F1;" d="M443.183,228.473c0,30.533-5.318,59.623-14.909,86.082c0.562,4.239,0.87,8.588,0.87,13.015
	c0,41.334-25.82,75.578-59.524,81.634l-43.845,57.729c-17.144,22.572-42.072,36.809-69.775,36.809
	c-32.592,0-61.913-14.237-82.096-36.809l-51.585-57.729c-39.639-6.056-70.017-40.299-70.017-81.634
	c0-4.426,0.363-8.776,1.035-13.015c-11.286-26.459-17.551-55.549-17.551-86.082C35.785,107.047,134.573,8.258,256,8.258
	c0.804,0,1.608,0.011,2.411,0.022C360.525,9.8,443.183,107.993,443.183,228.473z"/>
<g>
	<path style="fill:#A5C6E3;" d="M95.321,247.097c-6.844,49.077,8.793,91.96,41.313,103.796
		c32.521,11.837,72.064-10.961,98.367-52.956L95.321,247.097z"/>
	<path style="fill:#A5C6E3;" d="M416.679,247.097c6.844,49.077-8.793,91.96-41.313,103.796
		c-32.521,11.837-72.064-10.961-98.367-52.956L416.679,247.097z"/>
</g>
<path style="fill:#134A79;" d="M182.39,225.18c-32.521-11.837-67.331-2.045-87.07,21.917c-0.281,31.044,20.09,60.919,52.612,72.756
	c32.521,11.837,67.331,2.045,87.07-21.917C235.282,266.893,214.911,237.016,182.39,225.18z"/>
<path style="fill:#0E3759;" d="M394.449,229.101l-36.677,92.766c2.103-0.584,4.206-1.255,6.298-2.015
	c32.515-11.837,52.885-41.709,52.609-72.759C410.547,239.649,402.961,233.582,394.449,229.101z"/>
<path style="fill:#134A79;" d="M329.607,225.181c22.429-8.159,45.937-6.045,64.842,3.92c-0.462,39.231-14.468,76.591-36.677,92.766
	c-30.643,8.5-62.299-1.508-80.775-23.926C276.722,266.89,297.092,237.017,329.607,225.181z"/>
<path d="M243.261,298.01c0.32-35.45-23.007-67.837-58.045-80.591c-10.066-3.663-20.52-5.521-31.071-5.521
	c-25.755,0-49.519,10.915-65.198,29.946c-1.201,1.459-1.866,3.286-1.884,5.176c-0.32,35.45,23.007,67.837,58.045,80.591
	c10.065,3.663,20.519,5.521,31.073,5.521c5.924,0,11.741-0.585,17.38-1.706c-8.029,5.764-16.349,9.949-24.637,12.265
	c-4.392,1.227-6.959,5.782-5.732,10.175c1.02,3.649,4.336,6.038,7.95,6.038c0.736,0,1.483-0.099,2.225-0.306
	c25.232-7.047,50.251-27.949,68.637-57.303C242.795,301.017,243.246,299.528,243.261,298.01z M176.179,316.618
	c-8.619,0-17.173-1.523-25.422-4.525c-27.492-10.005-46.113-34.667-47.137-61.975c12.517-13.829,30.761-21.702,50.524-21.702
	c8.619,0,17.172,1.522,25.422,4.525c27.492,10.005,46.113,34.667,47.137,61.975C214.183,308.745,195.942,316.618,176.179,316.618z"
	/>
<path d="M484.473,228.473C484.473,102.492,381.981,0,256,0S27.527,102.492,27.527,228.473c0,30.163,5.819,59.476,17.303,87.17
	c-0.523,3.966-0.787,7.967-0.787,11.927c0,21.849,7.869,42.964,22.16,59.457c13.476,15.554,31.808,26.07,51.887,29.83l49.662,55.576
	C190.228,497.578,222.393,512,256,512s65.772-14.422,88.249-39.568l49.661-55.576c20.079-3.76,38.411-14.275,51.887-29.83
	c14.291-16.492,22.16-37.607,22.16-59.456c0-3.958-0.264-7.959-0.786-11.926C478.654,287.949,484.473,258.635,484.473,228.473z
	 M388.431,401.038c-1.897,0.29-3.635,1.23-4.913,2.661l-51.584,57.728c-19.345,21.643-47.023,34.056-75.933,34.056
	s-56.589-12.414-75.933-34.057l-51.585-57.728c-1.278-1.43-3.016-2.372-4.913-2.661c-35.92-5.48-63.009-37.063-63.009-73.467
	c0-3.89,0.313-7.834,0.928-11.721c0.243-1.534,0.05-3.104-0.56-4.532c-11.203-26.266-16.884-54.139-16.884-82.844
	c0-116.874,95.083-211.957,211.957-211.957s211.957,95.083,211.957,211.957c0,28.704-5.68,56.577-16.883,82.844
	c-0.61,1.427-0.803,2.997-0.562,4.53c0.617,3.89,0.928,7.834,0.928,11.723C451.441,363.974,424.352,395.557,388.431,401.038z"/>
<circle cx="189.935" cy="68.817" r="8.258"/>
<circle cx="222.968" cy="101.849" r="8.258"/>
<circle cx="123.871" cy="173.419" r="8.258"/>
<circle cx="388.129" cy="140.387" r="8.258"/>
<path d="M357.856,211.899c-10.552,0-21.005,1.857-31.071,5.521c-35.038,12.754-58.366,45.141-58.045,80.591
	c0.014,1.53,0.464,3.016,1.267,4.301c18.386,29.355,43.393,50.24,68.626,57.288c0.743,0.207,1.491,0.306,2.225,0.306
	c3.613,0,6.93-2.389,7.95-6.038c1.227-4.393-1.34-8.948-5.732-10.175c-8.288-2.314-16.608-6.5-24.637-12.265
	c5.64,1.121,11.458,1.706,17.383,1.706c10.552,0,21.005-1.858,31.071-5.521c35.038-12.754,58.366-45.141,58.045-80.591
	c-0.018-1.891-0.683-3.717-1.884-5.176C407.375,222.814,383.61,211.899,357.856,211.899z M361.243,312.092
	c-8.249,3.004-16.802,4.525-25.422,4.525c-19.763,0-38.007-7.873-50.524-21.702c1.024-27.308,19.645-51.969,47.137-61.975
	c8.249-3.004,16.802-4.525,25.422-4.525c19.763,0,38.007,7.873,50.524,21.702C407.356,277.425,388.735,302.086,361.243,312.092z"/>
<path d="M231.226,373.862v33.032c0,4.561,3.696,8.258,8.258,8.258c4.562,0,8.258-3.697,8.258-8.258v-33.032
	c0-4.561-3.696-8.258-8.258-8.258C234.922,365.604,231.226,369.302,231.226,373.862z"/>
<path d="M272.516,415.153c4.562,0,8.258-3.697,8.258-8.258v-33.032c0-4.561-3.696-8.258-8.258-8.258
	c-4.562,0-8.258,3.697-8.258,8.258v33.032C264.258,411.455,267.954,415.153,272.516,415.153z"/>
<path d="M283.527,442.68h-8.738c1.026-2.906,0.385-6.267-1.938-8.592c-3.226-3.225-8.454-3.225-11.679,0l-5.171,5.172l-5.171-5.172
	c-3.226-3.225-8.454-3.225-11.679,0c-2.324,2.324-2.964,5.687-1.938,8.592h-8.74c-4.562,0-8.258,3.697-8.258,8.258
	c0,4.561,3.696,8.258,8.258,8.258h55.054c4.562,0,8.258-3.697,8.258-8.258C291.785,446.377,288.089,442.68,283.527,442.68z"/>
<g>
</g>
<g>
</g>
<g>
</g>
<g>
</g>
<g>
</g>
<g>
</g>
<g>
</g>
<g>
</g>
<g>
</g>
<g>
</g>
<g>
</g>
<g>
</g>
<g>
</g>
<g>
</g>
<g>
</g>
</svg>
