<?xml version="1.0" encoding="iso-8859-1"?>
<!-- Generator: Adobe Illustrator 19.0.0, SVG Export Plug-In . SVG Version: 6.00 Build 0)  -->
<svg version="1.1" id="Layer_1" xmlns="http://www.w3.org/2000/svg" xmlns:xlink="http://www.w3.org/1999/xlink" x="0px" y="0px"
	 viewBox="0 0 512.001 512.001" style="enable-background:new 0 0 512.001 512.001;" xml:space="preserve">
<path style="fill:#CCCCCC;" d="M140.852,370.612c-4.172-1.463-8.175-3.299-11.962-5.476c-21.996-12.574-36.826-36.27-36.826-63.425
	v-73.232c0,0,20.329-62.926,132.564-62.926c37.721,0,63.923-9.603,82.087-22.358c0.113,6.871,2.8,13.719,8.039,18.957
	c8.946,8.946,22.517,10.442,33.016,4.49c3.209,11.621,13.855,20.17,26.508,20.17s23.299-8.549,26.508-20.17
	c6.02,3.413,13.061,4.376,19.649,2.891c0.023,0.975,0.034,1.939,0.034,2.925v129.253c0,27.154-14.819,50.851-36.826,63.425
	c-3.787,2.177-7.778,4.014-11.962,5.476v17.211c0,63.742-51.667,115.421-115.409,115.421c-31.871,0-60.726-12.925-81.611-33.81
	s-33.81-49.74-33.81-81.611L140.852,370.612L140.852,370.612z"/>
<path style="fill:#999999;" d="M348.405,387.828v-17.222h-0.006c22.687-9.994,38.956-37.056,38.956-68.892V172.458
	c0-90.687-58.688-164.203-131.083-164.203c90.687,0,164.203,73.517,164.203,164.203v129.255c0,31.836-20.379,58.897-48.799,68.892
	h0.007v17.222c0,63.741-51.672,115.414-115.411,115.416C307.156,503.241,348.405,451.57,348.405,387.828z"/>
<g>
	<path style="fill:#4D4D4D;" d="M273.087,341.598c2.302,2.302,3.447,5.306,3.447,8.322s-1.145,6.032-3.447,8.333
		c-4.603,4.592-12.064,4.592-16.655,0l-0.159-0.159l-0.159,0.159c-2.302,2.29-5.317,3.447-8.322,3.447
		c-3.016,0-6.032-1.156-8.333-3.447c-4.603-4.603-4.603-12.064,0-16.655l0.159-0.159l16.655-16.655l16.655,16.655L273.087,341.598z"
		/>
	<path style="fill:#4D4D4D;" d="M471.717,208.74c0,17.426-6.519,33.322-17.234,45.397c10.714,12.086,17.234,27.982,17.234,45.409
		c0,37.801-30.647,68.447-68.447,68.447c-6.825,0-13.413-0.998-19.626-2.857c22.007-12.574,36.826-36.27,36.826-63.425V172.458
		c0-0.986-0.011-1.95-0.034-2.925c4.898-1.111,9.558-3.571,13.367-7.381c3.152-3.152,5.386-6.893,6.678-10.873
		C459.279,163.479,471.717,184.658,471.717,208.74z"/>
	<path style="fill:#4D4D4D;" d="M128.891,365.136c-6.213,1.859-12.801,2.857-19.615,2.857c-37.801,0-68.447-30.647-68.447-68.447
		c0-17.426,6.519-33.322,17.234-45.409c-10.714-12.075-17.234-27.971-17.234-45.397c0-32.88,23.186-60.341,54.093-66.928
		c-1.882,9.932-2.857,20.17-2.857,30.647v56.021v73.232C92.065,328.866,106.895,352.562,128.891,365.136z"/>
</g>
<path style="fill:#666666;" d="M348.439,36.539c-0.249,0.68-0.476,1.383-0.669,2.086c-10.499-5.952-24.071-4.467-33.016,4.479
	s-10.431,22.517-4.478,33.016c-11.633,3.209-20.182,13.855-20.182,26.508s8.549,23.311,20.182,26.52
	c-2.46,4.331-3.651,9.195-3.56,14.048c-18.163,12.755-44.365,22.358-82.087,22.358c-48.209,0-79.479,11.621-99.434,24.864
	c-26.52,17.585-33.13,38.062-33.13,38.062v-56.021c0-10.476,0.975-20.714,2.857-30.647c6.236-33.062,22.392-62.62,45.239-85.466
	C169.503,27.004,209.9,8.715,254.583,8.262c0.556-0.011,1.122-0.011,1.689-0.011C290.434,8.251,322.169,18.682,348.439,36.539z"/>
<path style="fill:#FCCA5F;" d="M374.278,61.675c22.619,0,40.953,18.345,40.953,40.953c0,22.619-18.333,40.953-40.953,40.953
	c-22.619,0-40.953-18.333-40.953-40.953C333.326,80.02,351.659,61.675,374.278,61.675z"/>
<g>
	<path style="fill:#F75469;" d="M420.435,169.533c-6.587,1.485-13.628,0.522-19.649-2.891c-3.209,11.621-13.855,20.17-26.508,20.17
		s-23.299-8.549-26.508-20.17c-10.499,5.952-24.071,4.456-33.016-4.49c-5.238-5.238-7.925-12.086-8.039-18.957
		c-0.091-4.853,1.1-9.717,3.56-14.048c-11.633-3.209-20.182-13.866-20.182-26.52s8.549-23.3,20.182-26.508
		c-5.952-10.499-4.467-24.071,4.479-33.016c8.946-8.946,22.517-10.431,33.016-4.479c0.193-0.703,0.419-1.406,0.669-2.086
		c3.844-10.556,13.957-18.084,25.839-18.084c12.653,0,23.3,8.537,26.508,20.17c10.499-5.952,24.071-4.467,33.016,4.479
		c8.946,8.946,10.431,22.517,4.479,33.016c11.633,3.209,20.182,13.855,20.182,26.508s-8.549,23.311-20.182,26.52
		c3.855,6.78,4.592,14.853,2.2,22.132c-1.293,3.98-3.526,7.721-6.678,10.873C429.993,165.962,425.333,168.422,420.435,169.533z
		 M415.231,102.628c0-22.608-18.333-40.953-40.953-40.953c-22.619,0-40.953,18.345-40.953,40.953
		c0,22.619,18.334,40.953,40.953,40.953C396.898,143.581,415.231,125.247,415.231,102.628z"/>
	<path style="fill:#F75469;" d="M283.665,404.286c7.494,7.494,7.494,19.637,0,27.132l-0.261,0.261l-27.132,27.132l-27.143-27.132
		l-0.249-0.261c-3.742-3.753-5.624-8.651-5.624-13.572c0-4.898,1.882-9.819,5.624-13.56c7.494-7.494,19.637-7.494,27.132,0
		l0.261,0.249l0.249-0.249c3.742-3.742,8.662-5.624,13.572-5.624S279.924,400.544,283.665,404.286z"/>
</g>
<g>
	<circle style="fill:#FCCA5F;" cx="173.334" cy="269.526" r="37.927"/>
	<circle style="fill:#FCCA5F;" cx="339.209" cy="269.526" r="37.927"/>
</g>
<path d="M247.519,370.457c2.976,0,5.859-0.639,8.49-1.855c7.486,3.429,16.65,2.069,22.819-4.083
	c3.829-3.829,5.937-8.924,5.937-14.346c0-5.416-2.109-10.507-5.927-14.324l-16.826-16.824c-3.32-3.321-8.704-3.32-12.025,0
	l-16.805,16.806c-3.835,3.824-5.948,8.914-5.951,14.331c-0.003,5.423,2.107,10.522,5.958,14.373
	C237.026,368.354,242.116,370.457,247.519,370.457z M245.198,347.864l10.802-10.802l10.802,10.802
	c0.789,0.79,0.956,1.692,0.956,2.308c0,0.509-0.124,1.489-0.948,2.313c-1.282,1.28-3.364,1.282-4.628,0.019l-0.159-0.159
	c-1.593-1.6-3.757-2.499-6.016-2.501c-0.003,0-0.006,0-0.008,0c-2.255,0-4.417,0.896-6.013,2.491l-0.151,0.151
	c-0.847,0.838-1.815,0.964-2.316,0.964c-0.508,0-1.486-0.126-2.321-0.956c-0.838-0.838-0.963-1.814-0.961-2.321
	C244.236,349.669,244.361,348.699,245.198,347.864z"/>
<path d="M374.005,53.425c-27.27,0-49.456,22.186-49.456,49.456s22.186,49.456,49.456,49.456s49.456-22.186,49.456-49.456
	S401.275,53.425,374.005,53.425z M374.005,135.33c-17.892,0-32.449-14.557-32.449-32.449s14.557-32.449,32.449-32.449
	s32.449,14.557,32.449,32.449S391.899,135.33,374.005,135.33z"/>
<path d="M137.166,324.765c-2.052,4.229-0.272,9.32,3.957,11.361c1.19,0.578,2.449,0.85,3.696,0.85c3.152,0,6.191-1.769,7.653-4.807
	c2.041-4.229,0.272-9.308-3.957-11.361C144.286,318.767,139.207,320.536,137.166,324.765z"/>
<path d="M101.247,253.472c-1.043,4.569,1.825,9.127,6.406,10.17c0.635,0.147,1.27,0.215,1.893,0.215
	c3.878,0,7.381-2.676,8.277-6.621c1.043-4.581-1.825-9.138-6.406-10.181C106.837,246.023,102.279,248.891,101.247,253.472z"/>
<path d="M173.108,326.409c-0.023,0-0.034,0-0.045,0c-4.694,0-8.503,3.81-8.503,8.503s3.81,8.503,8.503,8.503
	c0.045,0,0.079,0,0.125,0c0.034,0,0.079,0,0.125,0c0.011,0,0.011,0,0.023,0c4.705-0.023,8.492-3.844,8.481-8.538
	c-0.023-4.694-3.844-8.481-8.537-8.469C173.221,326.409,173.164,326.409,173.108,326.409z"/>
<path d="M109.547,292.826c0.635,0,1.27-0.079,1.916-0.215c4.569-1.054,7.438-5.612,6.383-10.193
	c-1.043-4.581-5.601-7.438-10.181-6.383c-4.581,1.043-7.438,5.601-6.395,10.181C102.177,290.15,105.681,292.826,109.547,292.826z"/>
<path d="M197.79,320.717c-4.218,2.064-5.975,7.154-3.912,11.372c1.474,3.027,4.501,4.773,7.653,4.785
	c1.247,0,2.517-0.283,3.719-0.873c4.218-2.052,5.975-7.143,3.912-11.372C207.099,320.411,202.019,318.665,197.79,320.717z"/>
<path d="M116.803,235.898c1.565,1.247,3.435,1.859,5.295,1.859c2.494,0,4.977-1.1,6.655-3.209c2.925-3.674,2.324-9.025-1.349-11.95
	c-3.674-2.925-9.025-2.324-11.95,1.349C112.529,227.621,113.13,232.973,116.803,235.898z"/>
<path d="M218.811,316.874c1.565,1.236,3.424,1.837,5.283,1.837c2.506,0,4.989-1.1,6.667-3.209c2.914-3.685,2.302-9.036-1.372-11.95
	c-3.685-2.925-9.036-2.302-11.95,1.372C214.514,308.597,215.137,313.948,218.811,316.874z"/>
<path d="M218.55,222.428c-3.662,2.948-4.252,8.299-1.304,11.962c1.678,2.086,4.138,3.175,6.633,3.175
	c1.871,0,3.753-0.612,5.318-1.871c3.662-2.937,4.252-8.288,1.304-11.95C227.564,220.081,222.212,219.492,218.55,222.428z"/>
<path d="M122.177,318.903c1.859,0,3.742-0.612,5.306-1.871c3.674-2.925,4.263-8.277,1.327-11.95h0.011
	c-2.937-3.662-8.288-4.263-11.962-1.327c-3.662,2.925-4.263,8.288-1.327,11.95C117.211,317.803,119.683,318.903,122.177,318.903z"/>
<path d="M228.323,282.213c-1.032,4.581,1.848,9.138,6.429,10.17c0.624,0.136,1.259,0.204,1.871,0.204
	c3.889,0,7.404-2.687,8.288-6.633c1.032-4.592-1.848-9.138-6.429-10.17C233.902,274.753,229.355,277.633,228.323,282.213z"/>
<path d="M144.717,219.639c1.247,0,2.517-0.272,3.708-0.85c4.229-2.052,5.986-7.143,3.934-11.361
	c-2.041-4.229-7.132-5.986-11.361-3.946c-4.229,2.052-5.986,7.143-3.934,11.372C138.538,217.882,141.565,219.639,144.717,219.639z"
	/>
<path d="M201.192,219.537c3.163,0,6.202-1.769,7.664-4.819c2.041-4.229,0.261-9.32-3.98-11.349
	c-4.229-2.041-9.308-0.249-11.349,3.98c-2.029,4.229-0.249,9.308,3.98,11.349C198.697,219.265,199.956,219.537,201.192,219.537z"/>
<path d="M234.627,246.828c-4.581,1.054-7.438,5.624-6.372,10.204c0.907,3.934,4.399,6.587,8.277,6.587
	c0.635,0,1.27-0.068,1.916-0.215c4.581-1.054,7.426-5.624,6.372-10.193c0-0.011,0-0.011,0-0.011
	C243.766,248.63,239.197,245.773,234.627,246.828z"/>
<path d="M172.96,213.142c4.694-0.011,8.492-3.821,8.481-8.515c-0.011-4.705-3.821-8.503-8.515-8.492
	c-4.694,0.011-8.503,3.821-8.492,8.515s3.821,8.492,8.503,8.492C172.949,213.142,172.949,213.142,172.96,213.142z"/>
<path d="M173.062,223.348c-25.601,0-46.43,20.829-46.43,46.43s20.829,46.43,46.43,46.43s46.43-20.829,46.43-46.43
	S198.663,223.348,173.062,223.348z M173.062,299.2c-16.224,0-29.423-13.2-29.423-29.423s13.2-29.423,29.423-29.423
	s29.423,13.2,29.423,29.423S189.286,299.2,173.062,299.2z"/>
<path d="M374.731,214.718c2.03-4.24,0.249-9.32-3.98-11.349c-4.24-2.041-9.32-0.249-11.349,3.98
	c-2.042,4.229-0.261,9.308,3.98,11.349c1.179,0.567,2.436,0.839,3.673,0.839C370.219,219.537,373.268,217.757,374.731,214.718z"/>
<path d="M338.823,213.142c4.694-0.011,8.492-3.821,8.492-8.526c-0.011-4.694-3.832-8.492-8.527-8.481
	c-4.694,0.011-8.491,3.821-8.48,8.515c0,4.694,3.808,8.492,8.492,8.492C338.812,213.142,338.812,213.142,338.823,213.142z"/>
<path d="M402.497,292.588c3.889,0,7.392-2.687,8.288-6.633c1.032-4.592-1.848-9.138-6.429-10.17
	c-4.592-1.032-9.138,1.848-10.17,6.429s1.848,9.138,6.429,10.17C401.25,292.52,401.874,292.588,402.497,292.588z"/>
<path d="M302.927,214.855c1.474,3.027,4.501,4.785,7.664,4.785c1.248,0,2.506-0.272,3.709-0.85
	c4.218-2.052,5.986-7.143,3.934-11.361c-2.052-4.229-7.143-5.986-11.372-3.946c0.012,0,0.012,0,0.012,0
	C302.644,205.535,300.875,210.625,302.927,214.855z"/>
<path d="M303.029,324.765c-2.041,4.229-0.271,9.32,3.957,11.361c1.19,0.578,2.46,0.85,3.696,0.85c3.163,0,6.191-1.769,7.666-4.807
	c2.041-4.229,0.271-9.308-3.957-11.361C310.161,318.767,305.071,320.536,303.029,324.765z"/>
<path d="M339.141,326.409c-0.057,0-0.115,0-0.17,0c-0.011,0-0.023,0-0.034,0c-4.704,0-8.503,3.81-8.503,8.503
	s3.799,8.503,8.503,8.503c0.034,0,0.079,0,0.115,0c0.045,0,0.091,0,0.124,0c0.012,0,0.024,0,0.034,0
	c4.695-0.011,8.492-3.832,8.469-8.538c-0.011-4.694-3.832-8.481-8.526-8.469H339.141z"/>
<path d="M273.528,276.023c-4.569,1.054-7.439,5.612-6.383,10.193c0.896,3.934,4.399,6.61,8.277,6.61c0.624,0,1.27-0.068,1.905-0.215
	c4.581-1.054,7.439-5.612,6.396-10.193C282.666,277.837,278.108,274.98,273.528,276.023z"/>
<path d="M277.281,247.054c-4.581-1.032-9.127,1.837-10.17,6.417s1.825,9.138,6.406,10.17c0.635,0.147,1.269,0.215,1.893,0.215
	c3.878,0,7.392-2.676,8.288-6.621C284.73,252.655,281.861,248.097,277.281,247.054z"/>
<path d="M293.358,317.032c3.661-2.925,4.263-8.277,1.327-11.95c-2.937-3.662-8.289-4.263-11.95-1.327
	c-3.673,2.937-4.264,8.277-1.339,11.95c1.689,2.098,4.161,3.197,6.655,3.197C289.911,318.903,291.782,318.291,293.358,317.032z"/>
<path d="M293.267,222.598c-3.673-2.925-9.025-2.324-11.95,1.349c-2.925,3.674-2.324,9.025,1.348,11.95
	c1.565,1.247,3.447,1.859,5.295,1.859c2.506,0,4.978-1.1,6.655-3.209C297.553,230.875,296.941,225.524,293.267,222.598z"/>
<path d="M375.038,324.64c-2.064-4.229-7.155-5.975-11.372-3.923c-4.218,2.064-5.976,7.154-3.912,11.372
	c1.474,3.027,4.49,4.773,7.642,4.773c1.247,0,2.527-0.272,3.73-0.862c-0.011,0-0.011,0-0.011,0
	C375.343,333.949,377.089,328.858,375.038,324.64z"/>
<path d="M395.252,303.551c-3.672-2.925-9.025-2.302-11.949,1.372c-2.914,3.673-2.302,9.025,1.372,11.939
	c1.565,1.247,3.434,1.848,5.282,1.848c2.506,0,4.989-1.1,6.668-3.22C399.549,311.817,398.937,306.465,395.252,303.551z"/>
<path d="M384.413,222.428c-3.661,2.948-4.24,8.299-1.304,11.962c1.678,2.086,4.15,3.175,6.644,3.175
	c1.859,0,3.742-0.612,5.306-1.871c3.662-2.937,4.252-8.288,1.315-11.95C393.427,220.07,388.077,219.492,384.413,222.428z"/>
<path d="M400.491,246.828c-4.568,1.066-7.426,5.624-6.372,10.204c0.908,3.934,4.412,6.587,8.278,6.587
	c0.635,0,1.281-0.068,1.926-0.215c4.569-1.054,7.428-5.624,6.372-10.204C409.629,248.63,405.071,245.773,400.491,246.828z"/>
<path d="M338.932,316.207c25.601,0,46.429-20.829,46.429-46.43c0-4.696-3.806-8.503-8.503-8.503s-8.503,3.807-8.503,8.503
	c0,16.224-13.2,29.423-29.422,29.423c-16.225,0-29.423-13.2-29.423-29.423s13.2-29.423,29.423-29.423
	c8.426,0,16.464,3.624,22.05,9.942c3.111,3.518,8.485,3.848,12.004,0.737s3.848-8.484,0.736-12.002
	c-8.813-9.967-21.493-15.683-34.791-15.683c-25.601,0-46.43,20.829-46.43,46.43C292.501,295.379,313.331,316.207,338.932,316.207z"
	/>
<path d="M479.947,208.993c0-15.124-4.386-29.763-12.685-42.338c-2.587-3.921-7.864-5-11.781-2.414c-3.92,2.586-5,7.862-2.414,11.781
	c6.458,9.787,9.872,21.188,9.872,32.972c0,14.668-5.359,28.786-15.091,39.754c-2.856,3.219-2.857,8.064-0.002,11.285
	c9.732,10.98,15.093,25.103,15.093,39.768c0,32.479-25.967,58.987-58.227,59.901c15.127-15.111,23.988-35.845,23.988-57.735V175.852
	c4.017-1.786,7.696-4.288,10.842-7.433c3.991-3.991,7.016-8.917,8.748-14.247c2.166-6.6,2.352-13.641,0.643-20.246
	c10.779-6.361,17.759-18.1,17.759-31.042c0-12.939-6.981-24.676-17.763-31.035c3.122-12.121-0.242-25.356-9.387-34.503
	c-9.146-9.146-22.379-12.513-34.505-9.387c-6.357-10.778-18.093-17.754-31.032-17.754c-12.867,0-24.652,6.929-31.034,17.752
	c-12.123-3.121-25.357,0.241-34.504,9.388c-9.146,9.146-12.509,22.381-9.387,34.503c-10.782,6.358-17.763,18.097-17.763,31.035
	c0,12.943,6.98,24.683,17.76,31.043c-0.812,3.142-1.198,6.393-1.137,9.663c0.154,9.378,3.893,18.195,10.527,24.83
	c9.15,9.15,22.378,12.519,34.506,9.397c6.359,10.777,18.095,17.754,31.032,17.754c12.933,0,24.668-6.974,31.027-17.746
	c2.181,0.566,4.41,0.915,6.66,1.062v123.078c0,23.1-12.469,44.573-32.562,56.053c-3.359,1.932-6.901,3.553-10.552,4.83
	c-6.853,2.417-14.053,3.643-21.4,3.643c-4.697,0-8.503,3.807-8.503,8.503c0,4.696,3.806,8.503,8.503,8.503
	c5.319,0,10.575-0.527,15.726-1.536v6.118c0,2.923-0.122,5.816-0.354,8.682c-8.777,2.931-17.66,5.488-26.626,7.671v-3.933
	c0-4.696-3.806-8.503-8.503-8.503s-8.503,3.807-8.503,8.503v7.617c-7.373,1.395-14.788,2.543-22.23,3.443
	c-1.155-4.776-3.562-9.307-7.284-13.028c-5.232-5.234-12.187-8.116-19.584-8.116c-4.933,0-9.668,1.281-13.828,3.686
	c-4.158-2.404-8.891-3.684-13.82-3.684c-7.395,0-14.348,2.881-19.58,8.111c-3.65,3.65-6.152,8.137-7.335,13.026
	c-7.427-0.898-14.827-2.044-22.185-3.437v-7.621c0-4.696-3.807-8.503-8.503-8.503s-8.503,3.807-8.503,8.503v3.938
	c-8.968-2.183-17.854-4.74-26.633-7.671c-0.23-2.874-0.351-5.77-0.351-8.685v-6.118c5.157,1.01,10.415,1.537,15.737,1.537
	c4.696,0,8.503-3.807,8.503-8.503c0-4.696-3.807-8.503-8.503-8.503c-7.355,0-14.559-1.226-21.428-3.649
	c-3.647-1.279-7.193-2.901-10.555-4.835c-20.072-11.475-32.541-32.949-32.541-56.042v-71.683
	c3.251-7.818,27.247-55.971,124.06-55.971c18.538,0,35.624-2.269,50.785-6.744c4.505-1.33,7.078-6.059,5.748-10.562
	c-1.33-4.503-6.062-7.075-10.562-5.748c-13.598,4.014-29.064,6.049-45.971,6.049c-69.719,0-105.957,23.406-124.06,42.936v-27.529
	c0-9.802,0.912-19.581,2.71-29.071c5.799-30.747,20.632-58.767,42.895-81.029c29.41-29.408,68.51-45.605,110.1-45.605
	c18.527,0,36.649,3.218,53.864,9.566c4.409,1.625,9.296-0.632,10.921-5.037c1.625-4.406-0.632-9.295-5.036-10.92
	C296.643,3.571,276.54,0,255.999,0c-46.132,0-89.504,17.965-122.125,50.587c-23.397,23.397-39.381,52.542-46.47,84.56
	c-32.386,9.469-55.353,39.657-55.353,73.848c0,16.404,5.221,32.274,14.827,45.399c-9.604,13.134-14.827,29.006-14.827,45.406
	c0,36.396,25.844,68.1,61.452,75.387c0.575,0.118,1.149,0.175,1.713,0.175c3.955,0,7.498-2.774,8.322-6.801
	c0.942-4.601-2.025-9.094-6.626-10.035c-27.728-5.675-47.854-30.372-47.854-58.726c0-14.666,5.361-28.788,15.094-39.768
	c2.855-3.22,2.854-8.066-0.002-11.285c-9.731-10.967-15.091-25.085-15.091-39.753c0-23.76,14.229-45.043,35.202-54.597
	c-0.639,6.064-0.973,12.185-0.973,18.315v129.253c0,29.181,15.752,56.312,41.092,70.797c2.485,1.429,5.065,2.709,7.696,3.865v11.45
	c0,33.096,12.891,64.215,36.301,87.623c23.408,23.408,54.527,36.301,87.623,36.301c68.326,0,123.913-55.592,123.913-123.924v-11.448
	c1.531-0.672,3.047-1.378,4.532-2.144c6.041,1.498,12.263,2.265,18.553,2.265c42.43,0,76.95-34.52,76.95-76.951
	c0-16.4-5.22-32.27-14.826-45.406C474.726,241.265,479.947,225.398,479.947,208.993z M404.706,159.498
	c-2.281-1.294-5.03-1.461-7.448-0.458c-2.422,1.003-4.244,3.067-4.941,5.593c-2.264,8.202-9.795,13.93-18.311,13.93
	s-16.047-5.728-18.311-13.93c-0.697-2.526-2.522-4.59-4.941-5.593c-1.045-0.433-2.151-0.647-3.255-0.647
	c-1.451,0-2.899,0.372-4.194,1.107c-7.403,4.197-16.782,2.921-22.809-3.105c-3.498-3.497-5.468-8.144-5.55-13.103
	c-0.065-3.403,0.783-6.754,2.451-9.689c1.296-2.28,1.466-5.031,0.463-7.452s-3.068-4.247-5.596-4.944
	c-8.206-2.264-13.939-9.798-13.939-18.322c0-8.517,5.732-16.048,13.939-18.311c2.527-0.697,4.591-2.52,5.595-4.941
	c1.003-2.421,0.833-5.17-0.458-7.45c-4.2-7.407-2.927-16.787,3.094-22.809s15.4-7.295,22.809-3.094
	c2.282,1.295,5.034,1.46,7.457,0.455c2.423-1.007,4.245-3.075,4.938-5.605c0.125-0.457,0.278-0.931,0.458-1.424
	c2.72-7.472,9.892-12.491,17.848-12.491c8.519,0,16.048,5.727,18.31,13.928c0.697,2.527,2.522,4.591,4.941,5.594
	c2.422,1.003,5.171,0.834,7.45-0.458c7.406-4.201,16.788-2.927,22.809,3.094c6.023,6.022,7.295,15.402,3.094,22.809
	c-1.293,2.28-1.461,5.03-0.458,7.45c1.005,2.422,3.068,4.245,5.595,4.941c8.206,2.264,13.939,9.794,13.939,18.311
	c0,8.524-5.732,16.058-13.939,18.322c-2.527,0.697-4.593,2.523-5.596,4.946c-1.003,2.424-0.831,5.174,0.464,7.455
	c2.632,4.628,3.184,10.195,1.514,15.273c-0.003,0.01-0.007,0.02-0.01,0.029c-0.921,2.833-2.468,5.353-4.602,7.486
	c-2.544,2.544-5.738,4.307-9.226,5.099C413.645,162.538,408.822,161.83,404.706,159.498z M234.619,410.552
	c2.019-2.018,4.701-3.13,7.553-3.13c2.852,0,5.534,1.111,7.552,3.13c0.046,0.045,0.093,0.091,0.139,0.136l0.261,0.249
	c3.341,3.192,8.62,3.133,11.888-0.136l0.249-0.249l0,0c2.019-2.02,4.704-3.133,7.559-3.133c2.854,0,5.539,1.112,7.558,3.134
	c0.796,0.796,1.438,1.689,1.93,2.641c-15.519,1.068-31.103,1.068-46.623,0.001C233.185,412.233,233.831,411.34,234.619,410.552z
	 M272.418,430.619l-16.42,16.42l-16.425-16.418c5.468,0.252,10.94,0.391,16.414,0.391
	C261.465,431.012,266.944,430.871,272.418,430.619z M255.999,494.993c-28.554,0-55.402-11.123-75.598-31.319
	c-13.523-13.523-22.97-30.03-27.742-48.032c7.737,2.362,15.542,4.463,23.408,6.279v7.484c0,4.696,3.807,8.503,8.503,8.503
	c4.696,0,8.503-3.807,8.503-8.503V425.4c7.814,1.404,15.671,2.541,23.555,3.416c1.359,3.238,3.341,6.219,5.889,8.791l0.196,0.205
	c0.043,0.045,0.086,0.09,0.13,0.133l27.143,27.132c1.66,1.66,3.836,2.49,6.011,2.49c2.176,0,4.353-0.83,6.014-2.491l27.393-27.393
	c2.62-2.62,4.591-5.643,5.939-8.867c7.89-0.876,15.753-2.015,23.574-3.42v4.009c0,4.696,3.806,8.503,8.503,8.503
	s8.503-3.807,8.503-8.503v-7.489c7.852-1.814,15.644-3.912,23.369-6.268C347.105,461.282,305.418,494.993,255.999,494.993z"/>
<g>
</g>
<g>
</g>
<g>
</g>
<g>
</g>
<g>
</g>
<g>
</g>
<g>
</g>
<g>
</g>
<g>
</g>
<g>
</g>
<g>
</g>
<g>
</g>
<g>
</g>
<g>
</g>
<g>
</g>
</svg>
