<?xml version="1.0" encoding="iso-8859-1"?>
<!-- Generator: Adobe Illustrator 18.0.0, SVG Export Plug-In . SVG Version: 6.00 Build 0)  -->
<!DOCTYPE svg PUBLIC "-//W3C//DTD SVG 1.1//EN" "http://www.w3.org/Graphics/SVG/1.1/DTD/svg11.dtd">
<svg version="1.1" id="Capa_1" xmlns="http://www.w3.org/2000/svg" xmlns:xlink="http://www.w3.org/1999/xlink" x="0px" y="0px"
	 viewBox="0 0 340.25 340.25" style="enable-background:new 0 0 340.25 340.25;" xml:space="preserve">
<g>
	<path style="fill:#EFE373;" d="M340.25,170.12c0,93.96-76.17,170.13-170.13,170.13c-4.08,0-8.12-0.14-12.13-0.43
		c-79.8-5.62-144.41-66.28-156.1-144.26C0.64,187.26,0,178.77,0,170.12C0,76.17,76.16,0,170.12,0c39.72,0,76.26,13.61,105.22,36.44
		c10.744,8.466,15.668,28.77,24.099,39.549c6.298,8.052,16.666,6.116,21.451,15.241C333.25,114.81,340.25,141.64,340.25,170.12z"/>
	<path style="fill:#999999;" d="M300.337,37.53l13.965,16.992l-8.973,8.973c-1.69,1.69-1.69,4.434,0.007,6.131
		c0.841,0.841,1.959,1.266,3.062,1.266c1.11,0.007,2.213-0.417,3.062-1.266l8.372-8.372l6.003,7.305
		c3.154,3.833,3.451,9.263,0.742,13.414l-30.321,46.415v0.014l-29.889,45.757l-22.444,34.365l-28.511,43.657l-0.007,0.007
		l-37.3,57.099l-9.199,14.093l-10.918,16.447c-20.11-1.428-39.258-6.336-56.83-14.149c-2.093-0.919-4.151-1.902-6.194-2.913
		l-0.58-0.269l0.014-0.014c-48.706-24.24-84.153-71.142-92.511-126.919l16.751-11.462L185.433,70.042
		c5.402-3.931,11.823-5.954,18.3-5.954c4.335,0.007,8.69,0.912,12.778,2.751c11.787,5.325,25.64,2.786,34.79-6.364l24.035-24.035
		c3.33-3.33,7.672-4.971,12-4.971C292.156,31.47,296.972,33.513,300.337,37.53z"/>
	<path style="fill:#999999;" d="M147.291,125.733l-67.087,39.792l39.521-107.828c0,0-0.005,0.011,0.006,0.016l7.195,8.612
		c12.285,14.726,19.385,33.009,20.315,52.027C147.362,120.794,147.381,123.26,147.291,125.733z"/>
	<path style="fill:#666666;" d="M268.39,43.39L268.39,43.39c10.22,5.395,22.702,3.981,31.456-3.564l1.404-1.21l-5.579-6.643
		c-3.894-4.636-10.924-4.942-15.205-0.661L268.39,43.39z"/>
	<path style="fill:#666666;" d="M190.832,103.667L190.832,103.667c8.03-8.566,18.403-14.58,29.827-17.293l1.925-0.457v0
		c-3.912,8.974-12.249,15.234-21.958,16.486L190.832,103.667z"/>
	<polygon style="fill:#999999;" points="243.928,208.52 228.128,264 215.408,252.18 	"/>
	<polygon style="fill:#999999;" points="215.408,252.19 199.128,316 183.569,300.93 	"/>
	<polygon style="fill:#999999;" points="266.368,174.16 259.128,212 243.928,208.52 	"/>
</g>
<g>
</g>
<g>
</g>
<g>
</g>
<g>
</g>
<g>
</g>
<g>
</g>
<g>
</g>
<g>
</g>
<g>
</g>
<g>
</g>
<g>
</g>
<g>
</g>
<g>
</g>
<g>
</g>
<g>
</g>
</svg>
