<?xml version="1.0" encoding="iso-8859-1"?>
<!-- Generator: Adobe Illustrator 19.0.0, SVG Export Plug-In . SVG Version: 6.00 Build 0)  -->
<svg version="1.1" id="Layer_1" xmlns="http://www.w3.org/2000/svg" xmlns:xlink="http://www.w3.org/1999/xlink" x="0px" y="0px"
	 viewBox="0 0 512 512" style="enable-background:new 0 0 512 512;" xml:space="preserve">
<g>
	<path style="fill:#58422C;" d="M82.806,37.059c-32.22-6.773-60.183,22.959-51.45,54.703l31.436,114.26l77.174-156.947
		L82.806,37.059z"/>
	<path style="fill:#58422C;" d="M429.194,37.059l-57.159,12.016l77.173,156.947v-2.463l0,0v2.463l31.435-114.259
		C489.377,60.017,461.414,30.285,429.194,37.059z"/>
</g>
<path style="fill:#664B33;" d="M442.604,153.349C420.498,70.99,345.336,10.35,256,10.35l0,0
	c-89.336,0-164.498,60.638-186.604,142.998l-0.159,0.578c-4.202,15.837-6.445,32.471-6.445,49.631v259.45
	c0,21.341,17.3,38.642,38.642,38.642s38.642-17.3,38.642-38.642c0,21.341,17.3,38.642,38.642,38.642s38.642-17.3,38.642-38.642
	c0,21.341,17.3,38.642,38.641,38.642s38.642-17.3,38.642-38.642c0,21.341,17.3,38.642,38.642,38.642s38.642-17.3,38.642-38.642
	c0,21.341,17.3,38.642,38.642,38.642s38.642-17.3,38.642-38.642v-259.45C449.208,186.189,446.901,169.362,442.604,153.349z"/>
<path style="fill:#BC9A7B;" d="M332.879,175.201c-22.593,0.117-43.154,8.959-58.492,23.32c-10.349,9.689-26.424,9.689-36.773,0
	c-15.338-14.359-35.899-23.201-58.492-23.32c-47.754-0.248-86.822,39.997-86.822,87.752v1.145c0,35.868,21.987,66.68,53.185,79.711
	c8.111,3.388,14.132,10.338,16.129,18.898c9.999,42.875,48.51,74.915,94.387,74.915s84.389-32.039,94.387-74.915
	c1.997-8.56,8.018-15.51,16.129-18.898c31.199-13.029,53.185-43.842,53.185-79.711v-1.145
	C419.702,215.197,380.634,174.951,332.879,175.201z"/>
<path style="fill:#20272E;" d="M316.722,331.045c0,33.537-27.187,60.722-60.722,60.722s-60.722-27.187-60.722-60.722
	L316.722,331.045L316.722,331.045z"/>
<g>
	<path style="fill:#58422C;" d="M62.792,463.008c0,21.341,17.3,38.642,38.642,38.642l0,0c21.341,0,38.642-17.3,38.642-38.642l0,0
		H62.792z"/>
	<path style="fill:#58422C;" d="M217.359,463.008c0,21.341,17.3,38.642,38.641,38.642l0,0c21.341,0,38.642-17.3,38.642-38.642l0,0
		H217.359z"/>
	<path style="fill:#58422C;" d="M371.923,463.008c0,21.341,17.3,38.642,38.642,38.642c21.341,0,38.641-17.3,38.641-38.642l0,0
		H371.923z"/>
</g>
<g>
	<path style="opacity:0.3;fill:#20272E;enable-background:new    ;" d="M429.194,37.059l-57.159,12.016l0,0
		C339.727,24.765,299.549,10.35,256,10.35l0,0V501.65l0,0c21.341,0,38.642-17.3,38.642-38.642c0,21.341,17.3,38.642,38.642,38.642
		s38.642-17.3,38.642-38.642c0,21.341,17.3,38.642,38.642,38.642s38.642-17.3,38.642-38.642v-256.99l0.001,0.001l31.435-114.259
		C489.377,60.017,461.414,30.285,429.194,37.059z"/>
	<circle style="fill:#20272E;" cx="163.826" cy="275.652" r="17.247"/>
	<circle style="fill:#20272E;" cx="348.174" cy="275.652" r="17.247"/>
	<path style="fill:#20272E;" d="M285.962,278.022c0,8.635-13.414,15.635-29.961,15.635c-16.547,0-29.961-7-29.961-15.635
		C226.039,269.387,285.962,269.387,285.962,278.022z"/>
	<path style="fill:#20272E;" d="M333.319,164.849l-0.494,0.001c-24.395,0.127-47.662,9.402-65.513,26.113
		c-3.08,2.884-7.098,4.473-11.312,4.473c-4.215,0-8.232-1.588-11.312-4.473c-17.851-16.712-41.117-25.986-65.513-26.113
		l-0.494-0.001c-25.73,0-50.028,10.346-68.42,29.133c-18.257,18.649-28.312,43.143-28.312,68.971v1.145
		c0,39.116,23.374,74.153,59.547,89.262c5.146,2.149,8.805,6.412,10.037,11.697c5.407,23.185,18.665,44.227,37.33,59.248
		c18.963,15.261,42.807,23.665,67.137,23.665s48.175-8.405,67.137-23.665c18.665-15.022,31.923-36.064,37.33-59.248
		c1.232-5.286,4.891-9.549,10.037-11.697c36.174-15.107,59.547-50.144,59.547-89.262v-1.145c0-25.825-10.055-50.32-28.313-68.97
		C383.346,175.195,359.047,164.849,333.319,164.849z M409.352,264.098c0,30.741-18.38,58.28-46.824,70.159
		c-11.192,4.674-19.499,14.431-22.22,26.098c-4.361,18.702-15.067,35.687-30.149,47.822c-15.52,12.491-34.247,19.092-54.159,19.092
		s-38.639-6.602-54.159-19.092c-15.08-12.135-25.788-29.119-30.149-47.822c-2.72-11.667-11.027-21.424-22.22-26.098
		c-28.443-11.88-46.822-39.418-46.822-70.159v-1.145c0-20.381,7.956-39.732,22.404-54.489c14.466-14.776,33.51-22.914,53.628-22.914
		l0.386,0.001c19.162,0.099,37.442,7.389,51.472,20.526c6.929,6.488,15.973,10.062,25.461,10.062s18.531-3.573,25.461-10.062
		c14.031-13.137,32.311-20.425,51.472-20.526l0.386-0.001c20.116,0,39.16,8.138,53.628,22.914
		c14.448,14.758,22.405,34.108,22.405,54.487V264.098z"/>
	<path style="fill:#20272E;" d="M481.505,47.231c-10.408-13.66-26.105-21.494-43.063-21.494c-3.783,0-7.611,0.402-11.379,1.194
		l-52.708,11.08C340.657,13.925,299.578,0,256,0c-43.579,0-84.661,13.926-118.36,38.009L84.937,26.93
		c-3.768-0.792-7.596-1.194-11.379-1.194c-16.959,0-32.655,7.835-43.065,21.493c-10.33,13.556-13.653,30.789-9.117,47.278
		l31.065,112.912v255.589c0,27.015,21.977,48.992,48.992,48.992c15.683,0,29.668-7.407,38.642-18.907
		c8.973,11.5,22.959,18.907,38.642,18.907s29.668-7.407,38.642-18.907C226.332,504.593,240.317,512,256,512
		s29.668-7.407,38.642-18.907C303.615,504.593,317.6,512,333.283,512s29.668-7.407,38.642-18.907
		c8.973,11.5,22.959,18.907,38.642,18.907c27.015,0,48.992-21.977,48.992-48.992V207.422l31.065-112.915
		C495.159,78.019,491.836,60.787,481.505,47.231z M61.472,143.501c-0.081,0.262-0.159,0.524-0.239,0.787
		c-0.635,2.094-1.249,4.198-1.819,6.323l-0.181,0.661c-0.001,0.004-0.001,0.008-0.003,0.012c-0.126,0.473-0.25,0.947-0.371,1.42
		L41.337,89.015c-2.808-10.207-0.759-20.865,5.622-29.239c6.46-8.478,16.155-13.34,26.598-13.34c2.354,0,4.749,0.253,7.12,0.751
		l36.373,7.647c-0.052,0.05-0.102,0.101-0.155,0.15C91.547,78.67,72.12,108.91,61.472,143.501z M438.857,463.008
		c0,15.6-12.691,28.291-28.291,28.291s-28.291-12.691-28.291-28.291c0-5.716-4.634-10.35-10.35-10.35s-10.35,4.634-10.35,10.35
		c0,15.6-12.691,28.291-28.291,28.291s-28.291-12.691-28.291-28.291c0-5.716-4.634-10.35-10.35-10.35s-10.35,4.634-10.35,10.35
		c0,15.6-12.691,28.291-28.291,28.291s-28.291-12.691-28.291-28.291c0-5.716-4.634-10.35-10.35-10.35
		c-5.716,0-10.35,4.634-10.35,10.35c0,15.6-12.691,28.291-28.291,28.291s-28.291-12.691-28.291-28.291
		c0-5.716-4.634-10.35-10.35-10.35c-5.716,0-10.35,4.634-10.35,10.35c0,15.6-12.691,28.291-28.291,28.291
		s-28.291-12.691-28.291-28.291V206.02v-2.462c0-1.99,0.032-3.977,0.097-5.963c0.144-4.478,0.469-8.939,0.936-13.375
		c0.983-9.335,2.658-18.559,5.045-27.558l0.173-0.629C100.988,77.239,174.105,20.701,256,20.701
		c81.14,0,155.438,56.458,176.607,135.332c1.036,3.863,1.946,7.759,2.726,11.681c2.341,11.769,3.523,23.78,3.523,35.847v259.447
		H438.857z M470.663,89.016l-17.524,63.698c-0.175-0.683-0.356-1.366-0.538-2.048c-0.57-2.124-1.183-4.227-1.818-6.319
		c-0.083-0.27-0.161-0.541-0.246-0.811c-9.95-32.315-27.554-60.826-50.481-83.749c-0.008-0.007-0.015-0.015-0.023-0.022
		c-1.57-1.57-3.162-3.119-4.78-4.636c-0.102-0.097-0.2-0.197-0.302-0.294l36.373-7.647c2.37-0.498,4.765-0.751,7.12-0.751
		c10.443,0,20.138,4.862,26.598,13.341C471.422,68.153,473.472,78.809,470.663,89.016z"/>
</g>
<g>
	<path style="fill:#FFFFFF;" d="M280.881,357.518c5.716,0,10.35-4.634,10.35-10.35v-16.123h-20.701v16.123
		C270.531,352.884,275.165,357.518,280.881,357.518z"/>
	<path style="fill:#FFFFFF;" d="M231.12,357.518c5.716,0,10.35-4.634,10.35-10.35v-16.123H220.77v16.123
		C220.77,352.884,225.404,357.518,231.12,357.518z"/>
</g>
<path style="fill:#20272E;" d="M256,402.117c-39.189,0-71.073-31.883-71.073-71.073c0-5.716,4.634-10.35,10.35-10.35h121.445
	c5.716,0,10.35,4.634,10.35,10.35C327.073,370.234,295.191,402.117,256,402.117z M206.698,341.395
	c4.786,22.827,25.074,40.022,49.304,40.022c24.228,0,44.516-17.194,49.304-40.022L206.698,341.395L206.698,341.395z"/>
<g>
</g>
<g>
</g>
<g>
</g>
<g>
</g>
<g>
</g>
<g>
</g>
<g>
</g>
<g>
</g>
<g>
</g>
<g>
</g>
<g>
</g>
<g>
</g>
<g>
</g>
<g>
</g>
<g>
</g>
</svg>
