<?xml version="1.0" encoding="iso-8859-1"?>
<!-- Generator: Adobe Illustrator 19.0.0, SVG Export Plug-In . SVG Version: 6.00 Build 0)  -->
<svg version="1.1" id="Capa_1" xmlns="http://www.w3.org/2000/svg" xmlns:xlink="http://www.w3.org/1999/xlink" x="0px" y="0px"
	 viewBox="0 0 512 512" style="enable-background:new 0 0 512 512;" xml:space="preserve">
<polyline style="fill:#FFF2E9;" points="355.563,333.965 446.369,362.503 304.514,504.357 270.379,401.051 223.506,504.357 
	210.106,423.995 "/>
<path style="fill:#F7CB92;" d="M355.563,333.965c4.851,19.789-6.196,40.007-25.476,46.61l-31.192,10.7l-41.76,14.317l-70.313,27.514
	l24.457-41.271v-93.241h-33.628V196.509l44.878-22.042l5.564-2.731l71.841-6.461l64.188-5.768l-13.665,153.598L355.563,333.965z"/>
<path style="fill:#E2B27F;" d="M350.458,313.106l13.665-153.598l-64.188,5.768l-24.008,9.192H222.53l-44.878,22.042v51.328h75.464
	c19.313,0,36.101,13.262,40.564,32.051c9.932,41.813,15.899,86.377,5.215,111.387l31.192-10.7
	c19.28-6.603,30.326-26.821,25.476-46.61L350.458,313.106z"/>
<polyline style="fill:#EFB078;" points="319.799,171.737 171.034,179.379 171.034,151.246 173.495,125.134 177.579,81.615 
	184.543,7.643 322.645,7.643 327.102,55.073 "/>
<polygon style="fill:#DD9F6C;" points="322.645,7.643 334.494,133.751 250.167,163.856 259.561,7.643 "/>
<path style="fill:#EF6E4B;" d="M447.53,95.544c0,3.444-0.408,6.787-1.182,9.986l-63.964,13.207l-125.085,25.832
	c-6.787-7.49-10.914-17.446-10.914-28.359c0-23.397,18.964-42.361,42.361-42.361c5.87,0,11.454,1.192,16.539,3.353
	c4.198-9.854,12.035-17.792,21.817-22.123l0.662-0.296c5.065-2.15,10.639-3.332,16.488-3.332c12.412,0,23.56,5.33,31.315,13.828
	c7.632-7.48,18.077-12.086,29.613-12.086C428.566,53.193,447.53,72.157,447.53,95.544z"/>
<path style="fill:#BA7052;" d="M394.694,249.682c0,15.825-12.83,28.655-28.655,28.655c-1.437,0-2.843-0.112-4.219-0.316
	c0.367,0.897,0.693,1.824,0.958,2.772c0.754,2.537,1.151,5.228,1.151,8.02c0,15.825-12.83,28.655-28.665,28.655
	c-15.825,0-28.655-12.829-28.655-28.655c0-7.52,2.894-14.358,7.633-19.463c-10.608-4.209-18.108-14.542-18.108-26.648
	c0-5.788,1.722-11.179,4.677-15.693c-7.887-5.105-13.115-13.971-13.115-24.069c0-2.211,0.255-4.361,0.734-6.43h97.225
	c3.75,4.84,5.982,10.924,5.982,17.517c0,5.89-1.783,11.362-4.83,15.917C391.688,235.089,394.694,242.029,394.694,249.682z"/>
<path style="fill:#A35D45;" d="M394.694,249.682c0,15.825-12.83,28.655-28.655,28.655c-1.437,0-2.843-0.112-4.219-0.316
	c0.367,0.897,0.693,1.824,0.958,2.772c-7.378-3.088-13.624-6.593-17.619-10.537c-18.77-18.556,2.038-34.647,2.038-34.647
	c-19.361-19.361-8.152-39.1-8.152-39.1h46.61c3.75,4.84,5.982,10.924,5.982,17.517c0,5.89-1.783,11.362-4.83,15.917
	C391.688,235.089,394.694,242.029,394.694,249.682z"/>
<path style="fill:#DB5B3E;" d="M447.53,95.544c0,3.444-0.408,6.787-1.182,9.986l-63.964,13.207
	c-8.825-3.628-14.124-8.366-14.124-14.491c0-36.593-41.158-49.168-41.158-49.168l0.662-0.296c5.065-2.15,10.639-3.332,16.488-3.332
	c12.412,0,23.56,5.33,31.315,13.828c7.632-7.48,18.077-12.086,29.613-12.086C428.566,53.193,447.53,72.157,447.53,95.544z"/>
<path style="fill:#EFB078;" d="M277.203,127.748L277.203,127.748c-11.17,14.799-28.636,23.5-47.177,23.5H75.611
	c-24.996,0-45.258,20.262-45.258,45.258l0,0h194.958h210.209c25.476,0,46.128-20.653,46.128-46.128l0,0
	c0-25.476-20.653-46.128-46.128-46.128h-111.14C305.838,104.248,288.372,112.949,277.203,127.748z"/>
<path style="fill:#DD9F6C;" d="M435.519,104.248h-67.256c25.476,0,46.128,20.653,46.128,46.128l0,0
	c0,25.476-20.653,46.128-46.128,46.128h67.256c25.476,0,46.128-20.653,46.128-46.128l0,0
	C481.648,124.901,460.996,104.248,435.519,104.248z"/>
<polygon style="fill:#A35D45;" points="211.28,391.836 257.136,405.592 186.823,433.106 "/>
<rect x="160.904" y="81.614" style="fill:#EFD873;" width="53.961" height="43.517"/>
<path d="M454.932,100.247c0.146-1.56,0.24-3.128,0.24-4.706c0-27.565-22.426-49.99-49.99-49.99c-10.668,0-20.854,3.334-29.337,9.503
	c-8.868-7.213-20.041-11.245-31.591-11.245c-3.557,0-7.044,0.391-10.43,1.111l-3.57-37.992C329.885,3.001,326.588,0,322.645,0
	H184.543c-3.944,0-7.239,3-7.609,6.926l-6.312,67.05h-9.717c-4.221,0-7.643,3.422-7.643,7.643v43.517
	c0,4.221,3.422,7.643,7.643,7.643h4.193l-1.02,10.825H75.611c-29.17,0-52.901,23.731-52.901,52.901c0,4.221,3.422,7.643,7.643,7.643
	h61.706c4.221,0,7.643-3.422,7.643-7.643c0-4.221-3.422-7.643-7.643-7.643H38.775c3.541-17.089,18.712-29.973,36.835-29.973h154.416
	c20.819,0,40.736-9.921,53.277-26.538c9.67-12.812,25.025-20.461,41.076-20.461h111.14c21.221,0,38.486,17.264,38.486,38.486
	s-17.264,38.486-38.486,38.486H117.535c-4.221,0-7.643,3.422-7.643,7.643s3.422,7.643,7.643,7.643h317.984
	c29.65,0,53.771-24.121,53.771-53.771C489.29,127.571,475.012,108.049,454.932,100.247z M168.548,89.262h38.676v28.232h-33.72
	c-0.045,0-0.089-0.001-0.133,0h-4.823V89.262z M179.431,143.604l1.02-10.825h34.416c4.221,0,7.643-3.422,7.643-7.643V81.619
	c0-4.221-3.422-7.643-7.643-7.643h-28.891l5.525-58.691h124.187l3.323,35.367c-7.087,4.144-13.14,10.009-17.499,17.2
	c-4.141-1.093-8.412-1.646-12.764-1.646c-27.571,0-50.002,22.431-50.002,50.002c0,8.866,2.343,17.458,6.699,24.99
	c-4.947,1.564-10.142,2.405-15.417,2.405h-50.597V143.604z M324.379,96.606c-20.819,0-40.736,9.921-53.277,26.538
	c-3.345,4.433-7.384,8.231-11.885,11.324c-3.373-5.438-5.188-11.741-5.188-18.259c0-19.142,15.574-34.716,34.716-34.716
	c4.7,0,9.259,0.924,13.55,2.746c3.881,1.649,8.364-0.159,10.018-4.039c5.462-12.82,17.999-21.105,31.939-21.105
	c9.74,0,19.094,4.13,25.666,11.331c1.398,1.532,3.357,2.429,5.43,2.488c2.064,0.057,4.079-0.728,5.562-2.178
	c6.523-6.384,15.143-9.901,24.27-9.901c19.136,0,34.705,15.569,34.705,34.705c0,0.42-0.022,0.837-0.037,1.254
	c-1.43-0.114-2.872-0.19-4.331-0.19L324.379,96.606L324.379,96.606z"/>
<path d="M177.652,208.419c-4.221,0-7.643,3.422-7.643,7.643v7.87l-16.517,2.951c-4.156,0.743-6.921,4.713-6.179,8.868
	c0.661,3.701,3.882,6.3,7.515,6.3c0.446,0,0.899-0.039,1.353-0.12l13.829-2.47v59.135c0,4.221,3.422,7.643,7.643,7.643h25.985v3.76
	c0,4.221,3.422,7.643,7.643,7.643c4.221,0,7.643-3.422,7.643-7.643v-11.403c0-4.221-3.422-7.643-7.643-7.643h-25.985v-74.89
	C185.294,211.841,181.873,208.419,177.652,208.419z"/>
<path d="M332.564,387.805c23.176-7.937,36.254-31.866,30.422-55.66c-1.005-4.1-5.142-6.609-9.242-5.604
	c-4.1,1.005-6.608,5.143-5.604,9.243c3.935,16.057-4.89,32.204-20.532,37.561l-70.629,24.22l-38.057-11.417v-22.143
	c0-4.221-3.422-7.643-7.643-7.643c-4.221,0-7.643,3.422-7.643,7.643v25.735l-23.389,39.469c-1.663,2.806-1.361,6.36,0.751,8.845
	c1.483,1.745,3.628,2.694,5.826,2.693c0.933,0,1.877-0.171,2.783-0.526L332.564,387.805z M214.807,400.873l18.914,5.674
	l-29.001,11.349L214.807,400.873z"/>
<path d="M248.146,241.928c0.454,0.082,0.906,0.12,1.352,0.12c3.632,0,6.854-2.6,7.515-6.301c0.742-4.156-2.025-8.125-6.18-8.868
	l-42.797-7.643c-4.156-0.743-8.126,2.025-8.868,6.18c-0.742,4.156,2.025,8.125,6.18,8.868L248.146,241.928z"/>
<path d="M308.289,225.428c-0.421-1.99-1.617-3.73-3.324-4.835c-2.893-1.873-5.308-4.449-6.982-7.449
	c-2.057-3.686-6.713-5.006-10.398-2.949c-3.686,2.057-5.006,6.712-2.95,10.398c1.743,3.121,3.948,5.976,6.518,8.457
	c-1.752,4.312-2.661,8.936-2.661,13.653c0,11.753,5.543,22.442,14.664,29.17c-2.734,5.171-4.188,10.967-4.188,16.941
	c0,20.015,16.283,36.298,36.298,36.298c20.02,0,36.308-16.283,36.308-36.298c0-1.084-0.048-2.161-0.143-3.232
	c17.468-2.612,30.907-17.715,30.907-35.898c0-7.397-2.228-14.509-6.359-20.521c1.107-2.406,1.943-4.926,2.502-7.538
	c0.882-4.128-1.749-8.189-5.877-9.071c-4.128-0.881-8.189,1.75-9.071,5.877c-0.554,2.597-1.591,5.042-3.078,7.266
	c-1.985,2.968-1.65,6.917,0.808,9.509c3.734,3.936,5.789,9.078,5.789,14.479c0,11.586-9.426,21.012-21.012,21.012
	c-1.012,0-2.053-0.078-3.097-0.233c-2.717-0.404-5.436,0.681-7.131,2.838c-1.696,2.157-2.103,5.058-1.07,7.6
	c1.026,2.523,1.547,5.186,1.547,7.913c0,11.586-9.43,21.012-21.022,21.012c-11.586,0-21.012-9.426-21.012-21.012
	c0-5.314,1.986-10.38,5.591-14.264c1.716-1.848,2.409-4.426,1.853-6.886s-2.292-4.488-4.636-5.418
	c-8.07-3.202-13.284-10.873-13.284-19.543c0-4.102,1.186-8.08,3.429-11.507C308.319,229.493,308.709,227.417,308.289,225.428z"/>
<path d="M204.296,345.521c1.225,2.755,3.958,4.529,6.974,4.533c0.004,0,0.008,0,0.012,0c3.011,0,5.744-1.774,6.976-4.522
	c4.132-9.218,10.617-16.106,13.654-16.106c9.32,0,13.851,4.857,20.471,12.781c5.632,6.741,12.92,15.466,25.478,15.466
	c3.211,0,6.768-0.571,10.727-1.891c4.005-1.335,6.168-5.663,4.834-9.668c-1.335-4.005-5.665-6.169-9.667-4.833
	c-9.197,3.065-12.473-0.293-19.642-8.874c-6.44-7.708-15.261-18.265-32.201-18.265c-8.781,0-15.818,6.61-20.633,13.153
	c-4.815-6.542-11.852-13.153-20.634-13.153c-16.941,0-25.761,10.557-32.201,18.265c-7.168,8.58-10.442,11.94-19.642,8.874
	c-4.004-1.336-8.333,0.829-9.667,4.833c-1.335,4.005,0.829,8.333,4.834,9.668c19.445,6.483,29.133-5.109,36.205-13.574
	c6.621-7.924,11.15-12.781,20.471-12.781C194.329,329.425,200.893,337.928,204.296,345.521z"/>
<path d="M260.051,423.814c-3.844-1.744-8.374-0.043-10.118,3.802l-23.017,50.728l-5.2-31.185c-0.695-4.164-4.63-6.976-8.795-6.282
	c-4.164,0.694-6.976,4.632-6.282,8.795l9.327,55.942c0.553,3.318,3.21,5.884,6.545,6.321c0.334,0.044,0.666,0.065,0.998,0.065
	c2.966,0,5.706-1.729,6.957-4.485l33.387-73.584C265.597,430.088,263.895,425.558,260.051,423.814z"/>
<path d="M367.598,430.465l-59.719,59.719l-20.352-61.594c-1.325-4.008-5.649-6.183-9.654-4.859
	c-4.008,1.325-6.183,5.646-4.859,9.654l24.244,73.37c0.832,2.518,2.91,4.426,5.491,5.038c0.586,0.139,1.178,0.207,1.766,0.207
	c2.003,0,3.954-0.789,5.404-2.239l68.489-68.489c2.985-2.985,2.985-7.823,0-10.808C375.422,427.48,370.583,427.48,367.598,430.465z"
	/>
<path d="M448.66,355.212L383.073,334.6c-4.03-1.265-8.317,0.973-9.582,4.999c-1.266,4.026,0.973,8.317,4.999,9.583l53.559,16.832
	l-44.581,44.581c-2.985,2.985-2.985,7.823,0,10.808c1.492,1.493,3.448,2.239,5.404,2.239c1.956,0,3.912-0.746,5.404-2.239
	l53.497-53.496c1.889-1.889,2.655-4.628,2.019-7.224C453.155,358.087,451.21,356.013,448.66,355.212z"/>
<g>
</g>
<g>
</g>
<g>
</g>
<g>
</g>
<g>
</g>
<g>
</g>
<g>
</g>
<g>
</g>
<g>
</g>
<g>
</g>
<g>
</g>
<g>
</g>
<g>
</g>
<g>
</g>
<g>
</g>
</svg>
