<svg id="warewolf" enable-background="new 0 0 300 300" height="512" viewBox="0 0 300 300" width="512" xmlns="http://www.w3.org/2000/svg"><g><circle cx="142.715" cy="154.715" fill="#edebdc" r="86"/><g><circle cx="98.715" cy="106.715" fill="#fff" r="59.429"/><path d="m98.715 170.145c-34.976 0-63.43-28.454-63.43-63.43s28.454-63.43 63.43-63.43 63.43 28.454 63.43 63.43-28.454 63.43-63.43 63.43zm0-118.86c-30.564 0-55.43 24.865-55.43 55.43s24.865 55.43 55.43 55.43 55.43-24.865 55.43-55.43-24.866-55.43-55.43-55.43z" fill="#4c241d"/></g><g fill="#4c241d"><path d="m123.732 113.471c-2.209 0-4-1.791-4-4s1.791-4 4-4c2.164 0 3.924-1.761 3.924-3.925s-1.76-3.924-3.924-3.924-3.924 1.76-3.924 3.924c0 2.209-1.791 4-4 4s-4-1.791-4-4c0-6.575 5.349-11.924 11.924-11.924s11.924 5.349 11.924 11.924-5.349 11.925-11.924 11.925z"/><path d="m85.519 148.345c-1.47 0-2.928-.353-4.27-1.05-2.2-1.144-3.823-3.076-4.57-5.44-.665-2.106.503-4.354 2.609-5.02 2.107-.663 4.354.502 5.02 2.609.139.441.455.66.631.752.177.091.538.223.978.085 2.105-.668 4.354.501 5.02 2.607s-.501 4.354-2.607 5.02c-.925.292-1.87.437-2.811.437z"/><path d="m71.089 91.746c-.52 0-1.048-.102-1.557-.317-3.934-1.664-6.475-5.499-6.475-9.769 0-5.847 4.757-10.603 10.604-10.603 3.824 0 7.366 2.071 9.243 5.406 1.084 1.925.401 4.364-1.523 5.447-1.927 1.085-4.364.4-5.447-1.523-.462-.82-1.333-1.33-2.272-1.33-1.436 0-2.604 1.168-2.604 2.603 0 1.05.625 1.992 1.592 2.401 2.035.86 2.986 3.208 2.125 5.242-.646 1.526-2.127 2.443-3.686 2.443z"/></g><g><path d="m192.715 180.715 44-12s-4-16-36-16z" fill="#6b4f5b"/><path d="m192.715 184.715c-1.055 0-2.084-.418-2.846-1.188-1.015-1.027-1.397-2.521-1-3.91l8-28c.49-1.718 2.06-2.901 3.846-2.901 34.724 0 39.687 18.253 39.881 19.03.527 2.11-.729 4.256-2.828 4.829l-44 12c-.348.094-.702.14-1.053.14zm11.003-27.95-5.207 18.224 32.224-8.788c-3.077-3.635-10.369-8.871-27.017-9.436z" fill="#4c241d"/></g><g><path d="m148.034 118.956-5.346 7.128c-1.225 1.634-1.51 3.788-.752 5.684l14.779 36.947-23.294-23.294c-2.315-2.315-6.218-1.682-7.683 1.247-.647 1.295-.675 2.813-.076 4.13l19.053 41.917s4 40 0 60h116s-22.685-75.617-64.38-105.549c-2.314-1.662-5.143-2.451-7.992-2.451h-11.628l-19.319-25.758c-2.34-3.121-7.021-3.121-9.362-.001z" fill="#b5a19c"/><path d="m260.715 256.715h-116c-1.198 0-2.334-.537-3.094-1.464s-1.063-2.146-.828-3.32c3.563-17.82.488-52.963.004-58.17l-18.776-41.308c-1.104-2.429-1.053-5.189.14-7.574 1.263-2.522 3.678-4.299 6.462-4.75 2.781-.45 5.635.47 7.628 2.464l9.514 9.514-7.541-18.853c-1.269-3.171-.783-6.838 1.266-9.57l5.346-7.128c1.878-2.503 4.75-3.939 7.88-3.939 3.131-.001 6.004 1.436 7.882 3.939l18.119 24.159h9.628c3.838 0 7.408 1.107 10.325 3.202 17.842 12.809 34.361 34.851 49.098 65.516 10.894 22.667 16.545 41.349 16.78 42.133.363 1.211.133 2.522-.622 3.537s-1.946 1.612-3.211 1.612zm-111.302-8h105.784c-5.931-17.363-27.301-73.968-61.195-98.3-1.549-1.112-3.506-1.7-5.659-1.7h-11.628c-1.259 0-2.444-.593-3.2-1.6l-19.318-25.759c-.483-.645-1.136-.74-1.481-.74s-.998.096-1.48.739v.001l-5.346 7.128c-.386.514-.477 1.202-.238 1.798l14.778 36.947c.705 1.763.073 3.779-1.512 4.825-1.585 1.044-3.688.832-5.03-.512l-23.294-23.294c-.237-.237-.505-.253-.69-.223-.185.029-.436.129-.587.431-.107.216-.111.466-.012.686l19.053 41.917c.181.397.295.822.339 1.257.152 1.537 3.463 35.26.716 56.399zm-1.379-129.759h.01z" fill="#4c241d"/></g><g><path d="m204.715 172.715 44 12s-4 16-36 16" fill="#b5a19c"/><path d="m212.715 204.715c-2.209 0-4-1.791-4-4s1.791-4 4-4c18.758 0 26.738-5.62 30.009-9.488l-39.062-10.652c-2.131-.582-3.388-2.78-2.807-4.912.582-2.13 2.777-3.385 4.912-2.807l44 12c2.099.573 3.355 2.719 2.828 4.829-.194.777-5.156 19.03-39.88 19.03z" fill="#4c241d"/></g><path d="m188.715 168.715c-6.617 0-12-5.383-12-12 0-2.209 1.791-4 4-4s4 1.791 4 4c0 2.206 1.794 4 4 4 2.209 0 4 1.791 4 4s-1.791 4-4 4z" fill="#4c241d"/></g></svg>