<svg height="512pt" viewBox="-28 0 512 512.001" width="512pt" xmlns="http://www.w3.org/2000/svg"><path d="m342.800781 396.980469-82.792969-29.21875c-12.820312-4.527344-21.390624-16.644531-21.390624-30.238281v-41.445313h-96.195313v41.445313c0 13.59375-8.574219 25.710937-21.394531 30.238281l-82.789063 29.21875c-19.230469 6.789062-32.089843 24.960937-32.089843 45.355469v62.164062h368.742187v-62.164062c0-20.394532-12.859375-38.566407-32.089844-45.355469zm0 0" fill="#e3aa75"/><path d="m190.519531 392.273438c31.472657 0 59.664063-7.738282 80.886719-20.492188l-11.398438-4.019531c-8.375-2.957031-14.882812-9.1875-18.425781-16.917969-14.035156 5.734375-31.417969 9.367188-51.0625 9.367188-19.648437 0-37.027343-3.632813-51.066406-9.367188-3.542969 7.734375-10.046875 13.960938-18.425781 16.917969l-11.394532 4.019531c21.21875 12.753906 49.414063 20.492188 80.886719 20.492188zm0 0" fill="#ffd064"/><path d="m190.519531 488.46875c-76.679687 0-143.988281-23.652344-182.4375-59.289062-1.203125 4.21875-1.933593 8.617187-1.933593 13.15625v62.164062h368.742187v-62.164062c0-4.539063-.730469-8.9375-1.933594-13.15625-38.449219 35.636718-105.761719 59.289062-182.4375 59.289062zm0 0" fill="#c38c66"/><path d="m435.789062 256.527344c2.53125.738281 5.015626-1.519532 4.519532-4.109375-4.515625-23.6875-15.972656-47.390625-34.363282-67.621094-18.386718-20.230469-40.890624-33.894531-64.039062-40.648437-2.53125-.738282-5.015625 1.519531-4.519531 4.109374 4.519531 23.6875 15.976562 47.390626 34.363281 67.621094 18.386719 20.230469 40.890625 33.894532 64.039062 40.648438zm0 0" fill="#ffc269"/><path d="m440.308594 252.417969c-4.515625-23.6875-15.972656-47.390625-34.359375-67.621094-18.390625-20.230469-40.890625-33.894531-64.042969-40.648437-1.265625-.367188-2.519531.011718-3.394531.804687l100.671875 110.765625c.875-.792969 1.371094-2.003906 1.125-3.300781zm0 0" fill="#ffa95f"/><path d="m448.019531 117.035156c1.910157-.789062 2.328125-3.386718.757813-4.730468-14.375-12.292969-33.007813-21.195313-54.183594-24.578126-21.175781-3.378906-41.652344-.722656-59.140625 6.484376-1.910156.789062-2.324219 3.386718-.753906 4.730468 14.375 12.296875 33.003906 21.199219 54.179687 24.578125 21.175782 3.382813 41.652344.722657 59.140625-6.484375zm0 0" fill="#ffc269"/><path d="m448.777344 112.304688c-14.375-12.292969-33.007813-21.195313-54.183594-24.578126-21.175781-3.378906-41.652344-.722656-59.140625 6.484376-.953125.394531-1.535156 1.242187-1.683594 2.15625l115.933594 18.511718c.144531-.914062-.144531-1.902344-.925781-2.574218zm0 0" fill="#ffa95f"/><path d="m142.421875 326.460938c15.453125 6.351562 31.597656 9.699218 48.097656 9.699218s32.644531-3.347656 48.097657-9.699218v-30.378907h-96.195313zm0 0" fill="#d29b6e"/><path d="m302.742188 207.902344-20.488282 95.617187c-2.367187 11.042969-3.558594 22.300781-3.558594 33.59375v5.972657c0 6.066406.320313 12.132812.953126 18.167968l15.078124 143.246094h-56.113281v-296.597656zm0 0" fill="#64505a"/><path d="m278.695312 337.113281v5.972657c0 3.035156.082032 6.074218.238282 9.109374h-40.316406v-32.066406h40.984374c-.601562 5.636719-.90625 11.308594-.90625 16.984375zm0 0" fill="#ffd064"/><path d="m78.292969 207.902344 20.488281 95.617187c2.367188 11.042969 3.558594 22.300781 3.558594 33.59375v5.972657c0 6.066406-.316406 12.132812-.953125 18.167968l-15.078125 143.246094h56.113281v-296.597656zm0 0" fill="#64505a"/><path d="m314.605469 199.886719c7.757812-17.128907 12.1875-36.085938 12.1875-56.113281 0-75.261719-61.011719-136.273438-136.273438-136.273438s-136.277343 61.011719-136.277343 136.273438c0 20.027343 4.429687 38.984374 12.1875 56.113281zm0 0" fill="#5a4650"/><path d="m306.75 175.839844h-12.023438c0-45.402344-64.28125-69.375-98.460937-105.628906-3.128906-3.324219-8.367187-3.324219-11.5 0-34.175781 36.253906-98.457031 60.226562-98.457031 105.628906h-12.023438c-11.070312 0-20.042968 8.972656-20.042968 20.039062s8.972656 20.039063 20.042968 20.039063h12.425782c4.109374 53.796875 48.960937 96.195312 103.804687 96.195312 54.847656 0 99.699219-42.398437 103.808594-96.195312h12.425781c11.070312 0 20.042969-8.972657 20.042969-20.039063s-8.972657-20.039062-20.042969-20.039062zm0 0" fill="#f5b97d"/><path d="m154.445312 227.914062c0 17.710938 16.148438 32.066407 36.074219 32.066407 19.921875 0 36.070313-14.355469 36.070313-32.066407zm0 0" fill="#fff"/><path d="m102.339844 337.113281v5.972657c0 3.035156-.078125 6.074218-.238282 9.109374h40.320313v-32.066406h-40.988281c.601562 5.636719.90625 11.308594.90625 16.984375zm0 0" fill="#ffd064"/><path d="m118.371094 207.902344v-32.0625c0-13.285156 10.769531-24.050782 24.050781-24.050782h145.792969c-3.84375-8.851562-14.894532-20.273437-20.304688-24.046874h-154.789062c-.257813.230468-.503906.464843-.757813.695312-.363281.328125-.722656.660156-1.078125.992188-.308594.28125-.625.5625-.929687.847656v.050781c-14.082031 13.238281-24.046875 27.714844-24.046875 45.511719h-12.023438c-11.070312 0-20.042968 8.972656-20.042968 20.039062s8.972656 20.039063 20.042968 20.039063h12.425782c4.109374 53.796875 48.960937 96.195312 103.804687 96.195312 5.484375 0 10.832031-.535156 16.085937-1.351562-49.945312-7.707031-88.230468-50.753907-88.230468-102.859375zm0 0" fill="#e3aa75"/><path d="m206.550781 440.371094c0 8.855468-7.179687 16.03125-16.03125 16.03125-8.855469 0-16.03125-7.175782-16.03125-16.03125 0-8.855469 7.175781-16.03125 16.03125-16.03125 8.851563 0 16.03125 7.175781 16.03125 16.03125zm0 0" fill="#ffd064"/><path d="m318.777344 127.742188h-256.515625c-8.855469 0-16.035157-7.179688-16.035157-16.03125 0-8.855469 7.179688-16.03125 16.035157-16.03125h256.515625c8.851562 0 16.03125 7.175781 16.03125 16.03125 0 8.851562-7.179688 16.03125-16.03125 16.03125zm0 0" fill="#ffc250"/><path d="m318.777344 127.742188h-200.40625v-32.066407h200.40625c8.851562 0 16.03125 7.179688 16.03125 16.035157 0 8.851562-7.179688 16.03125-16.03125 16.03125zm0 0" fill="#ffd064"/><path d="m151.273438 191.871094v-8.015625c0-4.140625-3.355469-7.5-7.5-7.5-4.140626 0-7.5 3.359375-7.5 7.5v8.015625c0 4.140625 3.359374 7.5 7.5 7.5 4.144531 0 7.5-3.359375 7.5-7.5zm0 0"/><path d="m239.96875 176.355469c-4.140625 0-7.5 3.359375-7.5 7.5v8.015625c0 4.140625 3.359375 7.5 7.5 7.5s7.5-3.359375 7.5-7.5v-8.015625c0-4.140625-3.359375-7.5-7.5-7.5zm0 0"/><path d="m152.632812 165.253906c4.113282-.464844 7.074219-4.175781 6.609376-8.292968-.460938-4.113282-4.171876-7.074219-8.292969-6.609376l-16.03125 1.808594c-4.117188.460938-7.074219 4.175782-6.613281 8.292969.433593 3.828125 3.679687 6.660156 7.445312 6.660156.28125 0 .5625-.015625.847656-.050781zm0 0"/><path d="m248.824219 152.15625-16.03125-1.808594c-4.113281-.464844-7.828125 2.496094-8.292969 6.613282-.464844 4.117187 2.496094 7.828124 6.613281 8.292968l16.03125 1.808594c.285157.03125.570313.046875.851563.046875 3.765625 0 7.007812-2.828125 7.441406-6.660156.464844-4.113281-2.496094-7.828125-6.613281-8.292969zm0 0"/><path d="m227.945312 220.414062h-72.148437c-4.140625 0-7.5 3.359376-7.5 7.5 0 21.816407 19.546875 39.566407 43.574219 39.566407s43.574218-17.75 43.574218-39.566407c0-4.140624-3.359374-7.5-7.5-7.5zm-36.074218 32.066407c-12.714844 0-23.515625-7.175781-27.210938-17.066407h54.421875c-3.695312 9.890626-14.496093 17.066407-27.210937 17.066407zm0 0"/><path d="m453.734375 108.96875c-14.65625-14.890625-34.339844-24.761719-55.429687-27.792969-20.210938-2.902343-40.945313.597657-58.707032 9.839844l-12.574218-1.804687c-.765626-.234376-1.550782-.433594-2.347657-.589844-10.441406-25.148438-27.683593-46.679688-50.113281-62.476563-24.289062-17.105469-52.882812-26.144531-82.691406-26.144531-29.800782 0-58.386719 9.035156-82.671875 26.132812-22.441407 15.796876-39.6875 37.332032-50.132813 62.488282-10.804687 2.125-18.984375 11.667968-18.984375 23.089844 0 7.347656 3.386719 13.921874 8.683594 18.238281-.4375 4.578125-.667969 9.214843-.667969 13.824219 0 12.4375 1.605469 24.753906 4.742188 36.671874-2.992188 4.40625-4.742188 9.71875-4.742188 15.433594 0 13.152344 9.269532 24.175782 21.617188 26.890625l20.769531 77.144531c3.789063 14.070313 5.710937 28.597657 5.710937 43.171876 0 5.78125-.308593 11.628906-.914062 17.382812l-.976562 9.246094-57.210938 20.195312c-22.1875 7.828125-37.09375 28.898438-37.09375 52.425782v62.164062c0 4.140625 3.359375 7.5 7.5 7.5s7.5-3.359375 7.5-7.5v-60.339844c20.644531 13.867188 43.433594 25.171875 67.925781 33.691406l-2.722656 25.863282c-.433594 4.121094 2.554687 7.8125 6.671875 8.246094.269531.027343.535156.039062.796875.039062 3.789063 0 7.042969-2.863281 7.449219-6.714844l15.078125-143.246094c.082031-.777343.144531-1.5625.214843-2.34375h25.859376v144.804688c0 4.140625 3.359374 7.5 7.5 7.5 4.144531 0 7.5-3.359375 7.5-7.5v-10.949219c13.382812 1.597657 27.003906 2.417969 40.597656 2.417969s27.21875-.8125 40.597656-2.410156v10.941406c0 4.140625 3.359375 7.5 7.5 7.5s7.5-3.359375 7.5-7.5v-72.144531c0-4.140625-3.359375-7.5-7.5-7.5s-7.5 3.359375-7.5 7.5v46.085937c-26.710938 3.335938-54.476562 3.339844-81.195312.003906v-83.925781c10.023437 2.816407 21.34375 4.5625 33.097656 5.082031v18.46875c-9.308594 3.140626-16.03125 11.949219-16.03125 22.300782 0 12.976562 10.558594 23.53125 23.53125 23.53125 12.976562 0 23.53125-10.554688 23.53125-23.53125 0-10.351563-6.722656-19.160156-16.03125-22.300782v-18.464843c11.761718-.523438 23.078125-2.269531 33.097656-5.085938v5.773438c0 4.144531 3.359375 7.5 7.5 7.5s7.5-3.355469 7.5-7.5v-40.597657h25.859375c.074219.78125.132813 1.5625.214844 2.339844l15.078125 143.25c.40625 3.851563 3.660156 6.714844 7.453125 6.714844.261719 0 .527343-.015625.792969-.042969 4.117187-.433593 7.105468-4.125 6.671874-8.242187l-2.71875-25.863282c24.484376-8.519531 47.277344-19.828124 67.921876-33.691406v60.339844c0 4.140625 3.359374 7.5 7.5 7.5 4.140624 0 7.5-3.359375 7.5-7.5v-62.164062c0-23.527344-14.90625-44.597657-37.09375-52.429688l-57.214844-20.191406-.972656-9.25c-.605469-5.75-.914063-11.601563-.914063-17.382813 0-14.574219 1.921875-29.097656 5.710937-43.167969l20.769532-77.144531c12.347656-2.71875 21.617187-13.738281 21.617187-26.890625 0-5.714844-1.75-11.027344-4.742187-15.433594 2.480468-9.4375 3.992187-19.128906 4.515625-28.929687l.789062.871094c2.839844 26.207031 14.238281 51.472656 32.316407 71.390625 18.671874 20.574218 43.703124 34.636718 70.480468 39.59375.457032.085937.910156.125 1.367188.125 1.847656 0 3.648437-.679688 5.039062-1.945313 1.734375-1.574219 2.632813-3.867187 2.433594-6.199219-2.347656-27.132812-13.921875-53.40625-32.597656-73.980468-18.074219-19.917969-42.117188-33.707032-67.929688-39.066406l-11.707031-12.898438c4.929687-4.316406 8.050781-10.648438 8.050781-17.699219 0-.132812-.007812-.265625-.007812-.402343 13.464844 10.832031 29.933594 18.027343 47.375 20.53125 4.644531.667968 9.320312 1 13.980468 1 16.488282 0 32.796876-4.132813 47.027344-12.054688 2.046875-1.140625 3.441406-3.167969 3.777344-5.484375.332031-2.320313-.4375-4.660156-2.078125-6.328125zm-135.800781 61.191406c-3.054688-1.171875-6.367188-1.820312-9.832032-1.820312 0 0-2.527343 0-5.265624 0-1.304688-7.566406-4.894532-19.886719-14.675782-33.097656h31.96875c.078125 0 .152344-.007813.226563-.007813.1875 2.839844.289062 5.695313.289062 8.539063 0 8.910156-.910156 17.746093-2.710937 26.386718zm-254.320313-66.984375h200.40625c4.140625 0 7.5-3.355469 7.5-7.5 0-4.140625-3.359375-7.5-7.5-7.5h-34.34375c-12.367187-9.695312-21.339843-18.199219-26.773437-23.738281-2.941406-2.996094-6.859375-4.648438-11.03125-4.648438s-8.089844 1.652344-11.03125 4.648438c-5.433594 5.535156-14.40625 14.042969-26.773438 23.738281h-78.371094c9.503907-19.871093 23.902344-36.941406 42.136719-49.777343 21.746094-15.308594 47.347657-23.398438 74.039063-23.398438 26.699218 0 52.304687 8.09375 74.054687 23.410156 18.226563 12.835938 32.621094 29.898438 42.121094 49.765625h-11.964844c-4.140625 0-7.5 3.359375-7.5 7.5 0 4.144531 3.359375 7.5 7.5 7.5h24.046875c4.707032 0 8.53125 3.828125 8.53125 8.535157 0 4.703124-3.828125 8.53125-8.53125 8.53125h-256.515625c-4.703125 0-8.53125-3.828126-8.53125-8.53125 0-4.707032 3.828125-8.535157 8.53125-8.535157zm113.917969-15c5.9375-5.234375 10.621094-9.777343 14.011719-13.230469.066406-.066406.171875-.15625.328125-.15625s.261718.089844.328125.15625c3.390625 3.457032 8.074219 7.996094 14.011719 13.230469zm-113.917969 47.066407h31.96875c-9.785156 13.210937-13.371093 25.53125-14.675781 33.097656-2.734375 0-5.269531 0-5.269531 0-3.464844 0-6.777344.648437-9.832031 1.820312-1.796876-8.636718-2.707032-17.476562-2.707032-26.386718 0-2.84375.105469-5.695313.289063-8.539063.074219.003906.148437.007813.226562.007813zm215.160157 160.773437c-1.476563 5.480469-2.679688 11.027344-3.632813 16.613281h-27.671875v-7.859375c15.902344-9.164062 29.34375-22.132812 39.085938-37.65625zm-46.304688 50.773437c-11.617188 3.835938-25.8125 5.921876-40.597656 5.921876-14.769532 0-28.976563-2.09375-40.597656-5.925782v-34.808594c12.589843 4.925782 26.28125 7.636719 40.597656 7.636719 14.3125 0 28.007812-2.710937 40.597656-7.636719zm-96.195312-34.160156h-27.671876c-.953124-5.585937-2.15625-11.132812-3.632812-16.613281l-7.78125-28.902344c9.738281 15.519531 23.183594 28.492188 39.085938 37.65625zm-118.566407 115.171875c4.1875-10.878906 12.957031-19.714843 24.378907-23.746093l50.480468-17.820313-8.027344 76.277344c-24.265624-8.765625-46.707031-20.417969-66.832031-34.710938zm93.464844-83.109375c.003906-.535156.023437-1.074218.023437-1.609375 0-5.160156-.246093-10.316406-.6875-15.453125h25.765626v17.0625zm80.699219 104.210938c-4.707032 0-8.53125-3.828125-8.53125-8.53125s3.828125-8.53125 8.53125-8.53125 8.53125 3.828125 8.53125 8.53125-3.828125 8.53125-8.53125 8.53125zm0-64.128906c-14.769532 0-28.976563-2.089844-40.597656-5.925782v-16.394531c12.140624 3.410156 26.183593 5.257813 40.597656 5.257813 14.425781 0 28.460937-1.84375 40.597656-5.257813v16.398437c-11.617188 3.835938-25.816406 5.921876-40.597656 5.921876zm55.597656-40.078126v-17.066406h25.765625c-.441406 5.136719-.6875 10.292969-.6875 15.457032 0 .53125.019531 1.070312.023437 1.609374zm94.1875 59.359376c11.421875 4.027343 20.191406 12.867187 24.378906 23.746093-20.125 14.292969-42.566406 25.945313-66.832031 34.710938l-8.03125-76.277344zm-33.550781-195.636719h-4.53125c0-.171875.007812-.34375.007812-.515625 0-4.140625-3.359375-7.5-7.5-7.5-4.144531 0-7.5 3.359375-7.5 7.5 0 53.328125-43.386719 96.710937-96.710937 96.710937-53.328125 0-96.710938-43.386719-96.710938-96.710937 0-4.140625-3.355468-7.5-7.5-7.5-4.140625 0-7.5 3.359375-7.5 7.5 0 .171875.007813.34375.007813.515625h-4.53125c-6.914063 0-12.539063-5.625-12.539063-12.539063 0-6.914062 5.625-12.539062 12.539063-12.539062h6.011719c8.085937-.003906 8.085937 0 9.871093-1.070313 2.304688-1.382812 3.691407-3.835937 3.640625-6.523437-.003906-.847656.152344-20.367188 20.167969-40.503906h153.078125c20.019531 20.140624 20.179688 39.664062 20.175781 40.453124-.050781 2.683594 1.335938 5.191407 3.640625 6.574219 1.785156 1.070313 1.78125 1.070313 9.875 1.070313h6.007813c6.914062 0 12.542969 5.625 12.542969 12.539062-.003907 6.914063-5.628907 12.539063-12.542969 12.539063zm96.035156-16.964844c14.292969 15.75 23.636719 34.515625 27.355469 54.769531-19.796875-5.660156-37.570313-16.773437-51.867188-32.523437-10.515625-11.589844-18.34375-24.816407-23.230468-39.0625l24.546874 27.046875c1.480469 1.628906 3.511719 2.457031 5.554688 2.457031 1.796875 0 3.601562-.644531 5.039062-1.945313 3.066407-2.785156 3.296876-7.527343.511719-10.59375l-24.546875-27.046874c13.710938 6.242187 26.117188 15.308593 36.636719 26.898437zm-10.980469-74.460937c-7.734375-1.113282-15.113281-3.238282-22.011718-6.289063l16.480468 2.371094c.363282.050781.722656.078125 1.078125.078125 3.667969 0 6.875-2.699219 7.414063-6.433594.589844-4.101562-2.257813-7.902344-6.355469-8.492188l-16.484375-2.371093c7.480469-.984375 15.160156-.941407 22.890625.167969 14.4375 2.074218 27.660156 7.648437 38.78125 16.273437-13.101563 5.144531-27.355469 6.769531-41.792969 4.695313zm0 0"/></svg>