<svg id="Capa_1" enable-background="new 0 0 512 512" height="512" viewBox="0 0 512 512" width="512" xmlns="http://www.w3.org/2000/svg"><path d="m458.901 391.7c0-28.209-19.286-52.766-46.693-59.448l-36.846-8.983-11.527-12.452c-10.748-11.61-23.158-21.554-36.821-29.512-3.303 4.357-7.044 8.426-11.07 12.175v48.67h-4.973c-10.409 0-18.847-8.438-18.847-18.847v-12.777c-13.201 7.175-26.476 11.161-36.126 11.161s-22.924-3.986-36.126-11.161v12.777c0 10.409-8.438 18.847-18.847 18.847h-4.973v-48.671c-4.025-3.749-7.766-7.818-11.07-12.175-13.663 7.958-26.074 17.901-36.822 29.512l-11.526 12.451c-11.76 2.867-22.179 5.407-36.845 8.983-27.407 6.682-46.694 31.235-46.694 59.444 0 18.021 7.857 35.151 21.517 46.905-13.414 8.657-21.517 23.53-21.517 39.495v26.406h405.805v-26.404c0-15.965-8.103-30.838-21.517-39.495 13.662-11.754 21.518-28.879 21.518-46.901z" fill="#a2aae2"/><path d="m458.901 391.7c0-28.209-19.286-52.766-46.693-59.448l-9.855-2.402c10.354 11.051 16.548 25.861 16.548 41.847 0 11.585-3.247 22.804-9.195 32.459-5.176 8.402-4.899 18.956.745 27.051 5.421 7.774 8.45 17.127 8.45 26.889 0 14.582-11.821 26.404-26.404 26.404h-339.401v20h405.805v-26.404c0-15.965-8.103-30.838-21.517-39.495 13.661-11.754 21.517-28.879 21.517-46.901z" fill="#8993da"/><path d="m354.192 235.954h-12.347l4.283-58.162 65.843-20.366-21.019 53.478c-5.939 15.113-20.522 25.05-36.76 25.05z" fill="#a2aae2"/><path d="m157.806 235.954h12.347l-4.283-58.162-65.844-20.366 21.019 53.478c5.939 15.113 20.523 25.05 36.761 25.05z" fill="#a2aae2"/><path d="m299.475 53.209v21.153c9.557 5.167 18.076 11.98 25.192 20.044v-44.974c0-23.158-18.773-41.932-41.932-41.932h-15.429c-13.202 0-23.904 10.702-23.904 23.904v4.542h38.808c9.536-.001 17.265 7.729 17.265 17.263z" fill="#665e66"/><g fill="#f9f48e"><path d="m255.999 63.411c6.337 0 12.516.642 18.477 1.861v-29.327h-36.953v29.326c5.96-1.219 12.138-1.86 18.476-1.86z"/><path d="m378.929 478.096h79.972v26.404h-79.972z"/><path d="m53.096 478.096h79.972v26.404h-79.972z"/></g><path d="m292.125 310.528c-13.201 7.175-26.476 11.161-36.126 11.161s-22.924-3.986-36.126-11.161v-45.688c0-3.479 2.82-6.299 6.299-6.299 16.473 0 29.826-13.354 29.826-29.826 0 16.473 13.354 29.826 29.826 29.826 3.479 0 6.299 2.82 6.299 6.299v45.688zm-36.126-247.117c-53.218 0-95.224 45.214-91.315 98.287l6.226 84.536c1.364 18.525 11.655 34.686 25.144 47.248v-34.941c0-18.193 14.748-32.941 32.941-32.941h54.01c18.193 0 32.941 14.748 32.941 32.941v34.941c13.489-12.562 23.779-28.723 25.144-47.248l6.226-84.536c3.907-53.074-38.1-98.287-91.317-98.287z" fill="#a2aae2"/><path d="m275.677 65.526c21.177 18.227 33.865 45.923 31.637 76.172 0 0-6.505 87.516-6.729 88.982 9.23 5.837 15.36 16.133 15.36 27.861v34.941c13.489-12.562 23.779-28.723 25.144-47.248l6.226-84.536c3.411-46.328-28.162-86.666-71.638-96.172z" fill="#8993da"/><path d="m288.579 259.174c-3.668 5.168-7.959 9.954-12.635 14.308-17.472 16.271-40.311 26.504-56.071 28.013v9.033c13.201 7.175 26.476 11.161 36.126 11.161s22.924-3.986 36.126-11.161v-45.688c0-2.491-1.447-4.644-3.546-5.666z" fill="#8993da"/><path d="m228.994 225.6c-18.193 0-32.941 14.748-32.941 32.941v83.611h4.973c10.409 0 18.847-8.438 18.847-18.847v-58.465c0-3.479 2.82-6.299 6.299-6.299 16.473 0 29.826-13.354 29.826-29.826v-3.115z" fill="#665e66"/><path d="m283.004 225.6c18.193 0 32.941 14.748 32.941 32.941v83.611h-4.973c-10.409 0-18.847-8.438-18.847-18.847v-58.465c0-3.479-2.82-6.299-6.299-6.299-16.473 0-29.826-13.354-29.826-29.826v-3.115z" fill="#665e66"/><path d="m273.804 355.699c-.041.188-4.277 18.801-17.389 18.801-13.038 0-17.301-18.404-17.389-18.796-.867-4.041-4.842-6.613-8.886-5.764-4.052.857-6.643 4.838-5.785 8.891.161.76 1.695 7.629 5.975 14.694 6.331 10.45 15.352 15.975 26.085 15.975 10.734 0 19.754-5.524 26.084-15.975 4.28-7.065 5.813-13.935 5.975-14.695.854-4.041-1.723-7.999-5.761-8.869-4.038-.868-8.023 1.704-8.909 5.738z"/><path d="m205.755 183.136h37.659c4.143 0 7.5-3.357 7.5-7.5s-3.357-7.5-7.5-7.5h-37.659c-4.143 0-7.5 3.357-7.5 7.5s3.357 7.5 7.5 7.5z"/><path d="m274.456 278.061c-.563-4.104-4.354-6.974-8.451-6.408-6.223.854-13.715.864-20.012 0-4.102-.565-7.889 2.304-8.451 6.408-.564 4.104 2.305 7.888 6.408 8.451 7.41 1.019 16.294 1.073 24.098 0 4.103-.564 6.972-4.348 6.408-8.451z"/><path d="m465.559 380.948c-.646-4.091-4.479-6.884-8.578-6.238-4.091.646-6.885 4.486-6.238 8.578 2.835 17.969-3.533 36.965-18.251 49.628-3.793 3.264-3.385 9.271.825 11.987 9.183 5.927 15.365 15.208 17.374 25.693h-64.261v-33.036c0-4.143-3.357-7.5-7.5-7.5s-7.5 3.357-7.5 7.5v59.439h-107.931v-58.398c0-13.177 10.721-23.897 23.897-23.897h64.777c4.143 0 7.5-3.357 7.5-7.5s-3.357-7.5-7.5-7.5h-64.777c-12.878 0-24.314 6.291-31.397 15.961-7.083-9.67-18.519-15.961-31.397-15.961h-64.777c-4.143 0-7.5 3.357-7.5 7.5s3.357 7.5 7.5 7.5h64.777c13.177 0 23.897 10.721 23.897 23.897v58.399h-107.931c0-6.849 0-52.573 0-59.439 0-4.143-3.357-7.5-7.5-7.5s-7.5 3.357-7.5 7.5v33.036h-64.262c2.009-10.485 8.191-19.767 17.374-25.693 4.205-2.713 4.623-8.719.825-11.987-12.017-10.339-18.909-25.361-18.909-41.22 0-24.829 16.848-46.276 40.97-52.157l32.748-7.984 15.886 15.887c2.928 2.928 7.677 2.931 10.606.001 2.93-2.929 2.93-7.678.001-10.606l-13.766-13.767 6.625-7.156c8.8-9.505 18.75-17.826 29.642-24.797 1.651 1.886 3.401 3.741 5.246 5.563v45.471c0 4.143 3.357 7.5 7.5 7.5h4.973c14.527 0 26.347-11.819 26.347-26.347v-.86c10.375 4.345 20.415 6.745 28.626 6.745s18.251-2.4 28.626-6.745v.86c0 14.527 11.819 26.347 26.347 26.347h4.973c4.143 0 7.5-3.357 7.5-7.5v-45.472c1.845-1.822 3.594-3.678 5.246-5.563 17.784 11.379 27.093 22.043 36.666 32.384l-13.335 13.335c-2.929 2.929-2.929 7.678.001 10.606 2.928 2.928 7.677 2.929 10.606-.001l15.723-15.724 32.08 7.821c10.317 2.516 19.57 7.97 26.759 15.772 1.479 1.604 3.495 2.418 5.518 2.418 6.452 0 9.973-7.741 5.514-12.582-9.198-9.984-21.037-16.963-34.237-20.181l-34.397-8.386c-.534-.271.742 1.015-10.247-10.856-9.428-10.184-20.055-19.129-31.672-26.666 6.375-10.265 10.081-21.16 10.899-32.272l.245-3.331h5.38c19.455 0 36.625-11.7 43.741-29.807l21.02-53.478c2.295-5.837-3.197-11.764-9.196-9.908l-55.341 17.117.378-5.13c1.882-25.555-6.325-50.986-22.627-70.611v-20.16c0-4.143-3.357-7.5-7.5-7.5s-7.5 3.357-7.5 7.5v5.588c-3.255-2.55-6.66-4.888-10.191-7.004v-16.852c0-13.654-11.109-24.764-24.764-24.764-10.12 0-21.219 0-31.041 0 1.393-7.638 8.097-13.445 16.133-13.445h15.429c14.764 0 27.869 9.385 32.613 23.354 1.332 3.921 5.591 6.021 9.514 4.689 3.922-1.332 6.021-5.591 4.689-9.514-6.811-20.054-25.625-33.529-46.817-33.529h-15.429c-16.369 0-29.853 12.589-31.279 28.594-3.426.693-6.005 3.72-6.005 7.351v23.455c-46.144 12.587-76.273 55.937-72.818 102.849l.378 5.13-3.99-1.234c-3.963-1.226-8.158.992-9.382 4.948-1.224 3.958.991 8.158 4.948 9.382l9.607 2.972 3.315 45.008h-4.275c-13.246 0-24.936-7.966-29.78-20.293l-15.313-38.96 2.586.8c3.955 1.228 8.156-.992 9.381-4.949 1.224-3.957-.991-8.157-4.949-9.381l-17.488-5.409c-5.989-1.855-11.494 4.063-9.196 9.908l21.02 53.478c7.116 18.106 24.286 29.807 43.741 29.807h5.38l.245 3.331c.818 11.112 4.524 22.007 10.899 32.272-19.801 12.849-29.913 24.766-41.664 37.46l-34.652 8.448c-30.862 7.523-52.417 34.965-52.417 66.734 0 17.179 6.343 33.593 17.646 46.23-11.18 10.227-17.646 24.686-17.646 40.165v26.404c0 4.143 3.357 7.5 7.5 7.5h405.805c4.143 0 7.5-3.357 7.5-7.5v-26.403c0-15.821-6.72-30.172-17.646-40.166 14.022-15.682 20.006-36.692 16.802-56.983zm-262.005-46.581v-75.826c0-14.028 11.412-25.44 25.44-25.44h19.072c-2.043 10.218-11.083 17.94-21.894 17.94-7.609 0-13.8 6.19-13.8 13.8v58.464c.001 5.388-3.774 9.911-8.818 11.062zm52.445-20.178c-7.622 0-18.092-3.033-28.626-8.222v-39.945c11.686-.372 22.033-6.141 28.626-14.891 6.593 8.75 16.94 14.519 28.626 14.891v39.945c-10.535 5.19-21.004 8.222-28.626 8.222zm52.445 20.178c-5.044-1.151-8.819-5.674-8.819-11.063 0-12.255 0-46.839 0-58.464 0-7.609-6.19-13.8-13.8-13.8-10.811 0-19.851-7.723-21.894-17.94h19.072c14.028 0 25.44 11.412 25.44 25.44v75.827zm90.842-165.166-15.313 38.96c-4.845 12.327-16.534 20.293-29.78 20.293h-4.275l3.315-45.008zm-107.311-115.992v9.496c-3.27-1.276-6.608-2.38-10-3.305v-15.955c5.999 0 10 4.671 10 9.764zm-46.953-9.764h21.953v13.082c-7.302-.821-14.644-.822-21.953 0zm-72.859 117.702c-3.66-49.707 36.007-90.33 83.837-90.272 47.83-.058 87.495 40.564 83.835 90.272-.976 13.256-4.721 64.093-6.227 84.536-.786 10.673-4.947 20.012-10.164 27.731v-14.873c0-22.299-18.142-40.44-40.44-40.44h-7.572c.426-1.625.652-3.329.652-5.085v-24.796c0-2.804 2.28-5.084 5.084-5.084h25.075c4.143 0 7.5-3.357 7.5-7.5s-3.357-7.5-7.5-7.5h-25.075c-11.074 0-20.084 9.01-20.084 20.084v24.796c0 2.804-2.281 5.085-5.085 5.085h-27.005c-22.299 0-40.44 18.142-40.44 40.44v14.873c-5.217-7.719-9.378-17.058-10.164-27.731-2.083-28.277 3.521 47.818-6.227-84.536zm-111.566 324.45h64.972v11.403h-64.972zm390.804 11.403h-64.971v-11.403h64.972v11.403z"/></svg>