<?xml version="1.0" encoding="iso-8859-1"?>
<!-- Generator: Adobe Illustrator 19.0.0, SVG Export Plug-In . SVG Version: 6.00 Build 0)  -->
<svg xmlns="http://www.w3.org/2000/svg" xmlns:xlink="http://www.w3.org/1999/xlink" version="1.1" id="Capa_1" x="0px" y="0px" viewBox="0 0 512 512" style="enable-background:new 0 0 512 512;" xml:space="preserve" width="512" height="512">
<g id="XMLID_941_">
	<g id="XMLID_942_">
		<g id="XMLID_943_">
			<path id="XMLID_946_" style="fill:#8E4F20;" d="M390.57,136.96v135.79H121.43V136.96c0-2.18,0.05-4.35,0.16-6.5     C124.98,61.98,181.57,7.5,250.89,7.5h10.22c40.11,0,75.96,18.24,99.71,46.88c17.28,20.85,28.15,47.2,29.58,76.04     C390.52,132.59,390.57,134.77,390.57,136.96z"/>
			<path id="XMLID_949_" style="fill:#723700;" d="M390.57,136.96v79.12c-5.37,2.19-11.24,3.4-17.38,3.4c-2.52,0-5.01-0.21-7.42-0.6     c-4.13,20.18-13.76,38.83-27.68,53.87H173.92c-13.93-15.03-23.56-33.69-27.69-53.87c-2.42,0.39-4.91,0.6-7.42,0.6     c-6.14,0-12.01-1.21-17.38-3.4v-79.12c0-2.18,0.05-4.35,0.16-6.5c5.33-2.15,11.14-3.33,17.22-3.33c1.71,0,3.44,0.1,5.16,0.3     l13,2.64h198.06l13-2.64c1.73-0.19,3.45-0.3,5.16-0.3c6.03,0,11.84,1.14,17.21,3.29C390.52,132.59,390.57,134.77,390.57,136.96z"/>
			<path id="XMLID_952_" style="fill:#723700;" d="M390.57,136.96v31.82c-6.82,5.21-15.3,8.26-24.36,8.26     c-16.34,0-30.82-9.94-37-24.52c-14.58-6.18-24.52-20.65-24.52-37c0-16.34,9.94-30.81,24.52-36.99     c5.49-12.96,17.53-22.25,31.61-24.15C379.4,76.79,390.57,105.57,390.57,136.96z"/>
			<g id="XMLID_953_">
				<path id="XMLID_954_" style="fill:#F9D1B7;" d="M418.96,339.34v80.82c0,20.02-14.39,36.24-32.15,36.24H125.19      c-17.76,0-32.15-16.22-32.15-36.24v-80.82c0-1.05,0.01-2.08,0.02-3.12c0.87-42.23,26.09-77.89,61.18-92.93      c11.53-4.95,24.12-7.67,37.26-7.67h129c13.14,0,25.73,2.72,37.26,7.67c35.09,15.04,60.31,50.7,61.18,92.93      C418.95,337.26,418.96,338.29,418.96,339.34z"/>
				<path id="XMLID_957_" style="fill:#E2A67D;" d="M269,280.85v108.23c0,8.4-4.63,16.04-12.08,19.92l-90.94,47.4h-40.79      c-17.76,0-32.15-16.22-32.15-36.24v-31.61c2.43-1.7,5.05-3.17,7.83-4.41l95.07-42.29l20.81-68.73      c2.68-8.85,9.61-15.59,18.54-18.02c2.3-0.63,4.67-0.95,7.04-0.95C257.04,254.15,269,266.13,269,280.85z"/>
				<path id="XMLID_960_" style="fill:#E2A67D;" d="M418.96,388.55v31.61c0,20.02-14.39,36.24-32.15,36.24h-40.79L255.08,409      c-7.45-3.88-12.08-11.52-12.08-19.92V280.85c0-14.72,11.96-26.7,26.67-26.7c2.37,0,4.74,0.32,7.04,0.95      c8.92,2.43,15.85,9.16,18.54,18.02l20.81,68.73l95.07,42.29C413.91,385.38,416.53,386.85,418.96,388.55z"/>
				<path id="XMLID_963_" style="fill:#E2A67D;" d="M357.76,243.29c-9.59,20.88-25.53,38.72-46.07,50.5      c-12.93,7.41-26.99,12.11-41.78,13.94c-4.59,0.57-9.27,0.86-13.91,0.86c-4.64,0-9.32-0.29-13.91-0.86      c-14.79-1.83-28.85-6.52-41.78-13.94c-20.54-11.78-36.48-29.62-46.07-50.5c11.53-4.95,24.12-7.67,37.26-7.67h129      C333.64,235.62,346.23,238.34,357.76,243.29z"/>
				<rect id="XMLID_966_" x="148.23" y="302.01" style="fill:#E2A67D;" width="217.31" height="154.39"/>
				<rect id="XMLID_969_" x="148.23" y="315.01" style="fill:#FE9700;" width="217.31" height="141.39"/>
				<polygon id="XMLID_972_" style="fill:#F26200;" points="365.54,363.86 365.54,456.4 346.02,456.4 256,409.48 165.98,456.4       148.23,456.4 148.23,363.07 195.94,341.85 204.07,315.01 307.93,315.01 316.06,341.85     "/>
				<g id="XMLID_973_">
					<g id="XMLID_974_">
						<path id="XMLID_977_" style="fill:#F9D1B7;" d="M406.37,173.3c0,18.33-14.85,33.18-33.18,33.18c-2.13,0-4.22-0.19-6.24-0.58        c-15.34-2.92-26.93-16.4-26.93-32.6c0-1.91,0.16-3.78,0.48-5.6c2.33-13.76,13.13-24.62,26.85-27.06        c1.89-0.33,3.85-0.51,5.84-0.51c12,0,22.5,6.36,28.33,15.89C404.6,161.05,406.37,166.97,406.37,173.3z"/>
						<path id="XMLID_980_" style="fill:#E2A67D;" d="M401.52,156.02c-6.88,12.65-20.31,21.02-35.31,21.02        c-9.67,0-18.68-3.48-25.71-9.34c2.33-13.76,13.13-24.62,26.85-27.06c1.89-0.33,3.85-0.51,5.84-0.51        C385.19,140.13,395.69,146.49,401.52,156.02z"/>
						<path id="XMLID_983_" style="fill:#E2A67D;" d="M367.346,140.638v55.919c0,3.145-0.133,6.262-0.398,9.34        c-15.337-2.918-26.932-16.398-26.932-32.597C340.016,156.969,351.81,143.404,367.346,140.638z"/>
					</g>
					<g id="XMLID_984_">
						<path id="XMLID_987_" style="fill:#F9D1B7;" d="M171.984,173.301c0,16.199-11.595,29.679-26.932,32.597        c-2.018,0.388-4.111,0.587-6.243,0.587c-18.33,0-33.184-14.854-33.184-33.184c0-18.321,14.854-33.174,33.184-33.174        c1.989,0,3.95,0.18,5.845,0.511C160.19,143.404,171.984,156.969,171.984,173.301z"/>
						<path id="XMLID_990_" style="fill:#E2A67D;" d="M145.052,205.897c-0.265-3.079-0.398-6.195-0.398-9.34v-55.919        c15.536,2.766,27.33,16.331,27.33,32.663C171.984,189.5,160.389,202.98,145.052,205.897z"/>
					</g>
				</g>
				<path id="XMLID_993_" style="fill:#F9D1B7;" d="M355.03,128.07v68.49c0,36.77-20.04,68.87-49.81,85.95      c-2,1.15-4.05,2.23-6.14,3.24c-9.31,4.5-19.43,7.6-30.08,8.99c-0.23,0.03-0.46,0.06-0.69,0.09c-4.03,0.5-8.14,0.76-12.31,0.76      c-4.17,0-8.28-0.26-12.31-0.76c-0.23-0.03-0.46-0.06-0.69-0.09c-10.65-1.4-20.77-4.48-30.07-8.99      c-2.09-1.01-4.14-2.09-6.15-3.24c-29.77-17.08-49.81-49.18-49.81-85.95v-68.49H355.03z"/>
				<path id="XMLID_996_" style="fill:#E2A67D;" d="M355.03,128.07v47.37c-11.54-3.36-21.1-11.78-25.82-22.92      c-10.69-4.53-18.89-13.53-22.5-24.45H355.03z"/>
				<path id="XMLID_999_" style="fill:#E2A67D;" d="M269,280.85v13.89c-0.23,0.03-0.46,0.06-0.69,0.09      c-4.03,0.5-8.14,0.76-12.31,0.76c-4.17,0-8.28-0.26-12.31-0.76c-0.23-0.03-0.46-0.06-0.69-0.09      c-10.65-1.4-20.77-4.48-30.07-8.99l3.82-12.63c2.68-8.85,9.61-15.59,18.54-18.02c2.3-0.63,4.67-0.95,7.04-0.95      C257.04,254.15,269,266.13,269,280.85z"/>
				<path id="XMLID_1002_" style="fill:#E2A67D;" d="M299.08,285.75c-9.51,4.6-19.87,7.73-30.77,9.08      c-4.03,0.5-8.14,0.76-12.31,0.76c-4.17,0-8.28-0.26-12.31-0.76c-0.23-0.03-0.46-0.06-0.69-0.09v-13.89      c0-14.72,11.96-26.7,26.67-26.7c2.37,0,4.74,0.32,7.04,0.95c8.92,2.43,15.85,9.16,18.54,18.02L299.08,285.75z"/>
				<rect id="XMLID_1005_" x="156.97" y="128.07" style="fill:#E2A67D;" width="198.06" height="14.04"/>
				<g id="XMLID_1012_">
					<g id="XMLID_1007_">
						<path id="XMLID_1008_" style="fill:#F9D1B7;" d="M238.706,267.64L238.706,267.64c-4.55,1.239-8.143,4.732-9.509,9.246        l-21.696,71.66c-0.461,1.523-1.467,2.824-2.825,3.653l-98.525,43.819c-17.859,7.943-25.412,29.233-16.551,46.655l0,0        c8.605,16.918,29.36,23.565,46.192,14.793l115.12-59.995c3.127-1.629,5.088-4.863,5.088-8.389V280.855        C256,271.826,247.417,265.268,238.706,267.64z"/>
						<path id="XMLID_1009_" style="fill:#F9D1B7;" d="M422.4,442.67c-6.03,11.86-18.02,18.67-30.45,18.67        c-5.31,0-10.7-1.24-15.74-3.87L266.13,400.1c0-0.01,0-0.01,0-0.01l-5.04-2.62c-3.13-1.63-5.09-4.86-5.09-8.39V280.85        c0-6.26,4.14-11.34,9.58-13.06c2.4-0.76,5.05-0.87,7.71-0.15c4.55,1.24,8.15,4.73,9.51,9.25l21.7,71.66        c0.46,1.52,1.47,2.82,2.82,3.65l98.53,43.82C423.71,403.96,431.26,425.25,422.4,442.67z"/>
						<g id="XMLID_1010_">
							<path id="XMLID_1011_" style="fill:#E2A67D;" d="M269,280.85v108.23c0,3.94-1.02,7.71-2.87,11.01l-5.04-2.62         c-3.13-1.63-5.09-4.86-5.09-8.39V280.85c0-6.26,4.14-11.34,9.58-13.06C267.76,271.65,269,276.11,269,280.85z"/>
						</g>
					</g>
				</g>
			</g>
		</g>
		<g id="XMLID_1018_">
			<g id="XMLID_1024_">
				<g id="XMLID_1020_">
					<path id="XMLID_1021_" style="fill:#FE4080;" d="M414.727,115.522c0-13.191-9.404-24.182-21.872-26.644       c-2.462-12.469-13.453-21.872-26.644-21.872c-13.191,0-24.182,9.404-26.644,21.872c-12.468,2.462-21.872,13.453-21.872,26.644       s9.404,24.182,21.872,26.644c2.463,12.468,13.453,21.872,26.644,21.872c13.191,0,24.182-9.404,26.644-21.872       C405.323,139.704,414.727,128.713,414.727,115.522z"/>
					<g id="XMLID_1022_">
						<circle id="XMLID_1023_" style="fill:#F9D1B7;" cx="366.21" cy="115.522" r="13.096"/>
					</g>
				</g>
			</g>
		</g>
	</g>
	<g id="XMLID_1026_">
		<path id="XMLID_1028_" d="M431.213,413.284c-1.202-3.387-2.799-6.55-4.747-9.442v-47.754c0-4.143-3.357-7.5-7.5-7.5    s-7.5,3.357-7.5,7.5v34.337c-0.84-0.443-1.692-0.869-2.568-1.259l-35.861-15.95v-83.31c0-4.143-3.357-7.5-7.5-7.5    s-7.5,3.357-7.5,7.5v17.601h-58.125l-3.716-12.272c22.956-9.354,41.468-26.264,53.042-47.213    c31.891,11.172,55.625,40.126,61.034,75.036c0.573,3.704,3.767,6.353,7.401,6.353c0.382,0,0.77-0.029,1.158-0.09    c4.093-0.634,6.897-4.466,6.263-8.56c-3.386-21.856-13.027-41.698-27.028-57.373v-57.926c9.608-7.448,15.81-19.089,15.81-32.158    c0-10.111-3.687-19.662-10.292-27.056c11.196-5.854,18.644-17.585,18.644-30.727c0-14.881-9.542-27.968-23.273-32.743    c-3.826-11.003-12.995-19.301-24.141-22.171C349.275,22.641,306.861,0,261.109,0h-10.219c-22.487,0-44.798,5.577-64.52,16.129    c-3.652,1.954-5.029,6.499-3.075,10.151c1.955,3.653,6.5,5.03,10.151,3.075C211,19.964,230.863,15,250.891,15h10.219    c37.398,0,72.296,16.989,95.364,45.931c-10.63,3.128-19.311,11.222-23.005,21.848c-13.732,4.775-23.273,17.862-23.273,32.743    c0,1.709,0.14,3.391,0.384,5.043H164.467V92.854c0-4.143-3.358-7.5-7.5-7.5s-7.5,3.357-7.5,7.5v35.212v5.978    c-3.458-0.937-7.044-1.419-10.661-1.419c-3.39,0-6.682,0.423-9.833,1.208c0.807-32.614,14.236-62.833,38.022-85.387    c3.006-2.85,3.132-7.597,0.282-10.603c-2.85-3.007-7.598-3.132-10.603-0.282c-27.562,26.134-42.741,61.433-42.741,99.396v4.191    c-9.608,7.448-15.81,19.09-15.81,32.159s6.202,24.711,15.81,32.158v57.95c-13.772,15.421-23.339,34.869-26.864,56.278    c-0.673,4.087,2.095,7.946,6.182,8.619c0.413,0.068,0.823,0.101,1.228,0.101c3.606,0,6.786-2.608,7.391-6.282    c5.676-34.473,29.342-63.047,60.891-74.107c11.574,20.949,30.085,37.858,53.043,47.213l-3.715,12.272h-56.363v-17.601    c0-4.143-3.358-7.5-7.5-7.5s-7.5,3.357-7.5,7.5v82.526l-37.624,16.734c-0.877,0.39-1.729,0.817-2.568,1.259v-35.337    c0-4.143-3.358-7.5-7.5-7.5s-7.5,3.357-7.5,7.5v48.753c-1.948,2.892-3.546,6.055-4.748,9.442    c-3.855,10.867-3.099,22.512,2.128,32.79c5.076,9.98,13.745,17.357,24.408,20.772c4.187,1.341,8.478,2.006,12.747,2.006    c6.604,0,13.157-1.592,19.188-4.734l0.474-0.247c0.199,0.016,0.398,0.03,0.601,0.03h230.999c0.3,0,0.594-0.022,0.885-0.057    l0.525,0.273c6.031,3.143,12.582,4.734,19.188,4.734c4.269,0,8.561-0.665,12.747-2.006c10.663-3.415,19.332-10.792,24.409-20.773    C434.313,435.796,435.068,424.15,431.213,413.284z M358.036,322.508v44.038l-46.515-20.688l-7.069-23.35H358.036z     M383.065,249.468c-8.307-6.347-17.553-11.47-27.501-15.115c2.699-7.092,4.659-14.508,5.796-22.144    c3.818,1.159,7.802,1.777,11.833,1.777c3.404,0,6.71-0.426,9.872-1.218V249.468z M373.193,198.986    c-3.698,0-7.334-0.807-10.662-2.326c0-0.034,0.002-0.067,0.002-0.101v-25.241c1.213,0.13,2.435,0.22,3.677,0.22    c11.065,0,21.131-5.281,27.532-13.632c3.304,4.395,5.133,9.757,5.133,15.399C398.875,187.466,387.354,198.986,373.193,198.986z     M341.02,96.235c2.983-0.589,5.315-2.921,5.905-5.904c1.81-9.17,9.921-15.825,19.285-15.825s17.476,6.655,19.287,15.825    c0.589,2.983,2.921,5.315,5.904,5.904c9.17,1.812,15.825,9.923,15.825,19.287s-6.655,17.476-15.825,19.285    c-2.983,0.59-5.315,2.922-5.904,5.905c-1.812,9.17-9.923,15.825-19.287,15.825s-17.476-6.655-19.285-15.825    c-0.59-2.983-2.922-5.315-5.905-5.905c-9.17-1.81-15.825-9.921-15.825-19.285S331.85,98.047,341.02,96.235z M138.806,147.624    c3.697,0,7.332,0.807,10.661,2.326v46.609c0,0.036,0.002,0.072,0.002,0.108c-3.326,1.516-6.973,2.319-10.663,2.319    c-14.161,0-25.681-11.521-25.681-25.681C113.125,159.145,124.646,147.624,138.806,147.624z M128.935,249.495v-36.726    c3.162,0.791,6.468,1.217,9.872,1.217c4.022,0,8.012-0.615,11.833-1.774c1.137,7.635,3.096,15.048,5.795,22.138    C146.492,237.995,137.248,243.135,128.935,249.495z M164.467,196.56v-60.994h152.136c4.106,5.784,9.952,10.296,16.865,12.699    c2.588,7.444,7.631,13.638,14.065,17.767v30.528c0,36.805-22.172,69.971-55.708,84.241l-1.844-6.089    c-2.129-7.029-7.631-12.378-14.716-14.308c-6.429-1.75-13.146-0.437-18.438,3.607c-0.284,0.217-0.557,0.442-0.828,0.671    c-0.27-0.228-0.544-0.454-0.828-0.671c-5.291-4.043-12.012-5.358-18.438-3.607c-7.087,1.931-12.588,7.279-14.716,14.309    l-1.843,6.087C186.639,266.531,164.467,233.365,164.467,196.56z M155.726,322.508h51.822l-7.069,23.35l-44.752,19.904V322.508z     M111.898,452.562c-6.821-2.185-12.366-6.904-15.613-13.288c-3.344-6.574-3.828-14.023-1.361-20.975    c2.466-6.95,7.535-12.43,14.274-15.427l98.525-43.82c0.296-0.132,0.583-0.282,0.859-0.451c2.934-1.79,5.098-4.588,6.096-7.881    l21.696-71.661c0.622-2.054,2.23-3.617,4.302-4.182c0.545-0.148,1.097-0.222,1.644-0.222c1.339,0,2.647,0.438,3.745,1.276    c1.547,1.182,2.434,2.976,2.434,4.923v108.229c0,0.733-0.404,1.398-1.054,1.737l-115.12,59.995    C125.975,454.126,118.721,454.746,111.898,452.562z M168.456,448.901l85.923-44.779c0.564-0.294,1.101-0.624,1.621-0.973    c0.52,0.349,1.057,0.679,1.622,0.974l85.922,44.778H168.456z M415.715,439.273c-3.247,6.384-8.792,11.104-15.612,13.288    c-6.823,2.184-14.077,1.564-20.429-1.746l-115.119-59.994c-0.65-0.34-1.055-1.005-1.055-1.738V280.854    c0-1.947,0.888-3.741,2.435-4.923c1.098-0.839,2.405-1.276,3.744-1.276c0.547,0,1.1,0.073,1.644,0.222c0.001,0,0.001,0,0.001,0    c2.071,0.564,3.68,2.128,4.303,4.182l21.695,71.661c0.997,3.291,3.162,6.09,6.097,7.881c0.276,0.169,0.563,0.319,0.859,0.451    l98.524,43.82c6.739,2.997,11.809,8.476,14.274,15.427S419.059,432.699,415.715,439.273z"/>
		<path id="XMLID_1041_" d="M235.113,183.092c2.545-3.268,1.958-7.98-1.31-10.525c-3.268-2.543-7.979-1.957-10.525,1.311    c-3.1,3.98-7.872,6.264-13.093,6.264c-5.221,0-9.992-2.283-13.091-6.264c-2.544-3.269-7.256-3.854-10.525-1.311    c-3.269,2.545-3.855,7.257-1.311,10.525c5.961,7.657,15.047,12.049,24.927,12.049c0,0,0,0,0,0    C220.064,195.141,229.151,190.749,235.113,183.092z"/>
		<path id="XMLID_1042_" d="M301.813,195.141C301.814,195.141,301.813,195.141,301.813,195.141c9.881,0,18.968-4.392,24.93-12.049    c2.545-3.269,1.958-7.98-1.311-10.525c-3.268-2.546-7.98-1.96-10.525,1.311c-3.1,3.98-7.872,6.264-13.093,6.264    s-9.993-2.283-13.092-6.264c-2.545-3.269-7.257-3.855-10.525-1.311s-3.855,7.257-1.311,10.525    C282.848,190.749,291.934,195.141,301.813,195.141z"/>
		<path id="XMLID_1043_" d="M224.431,209.947c0,17.407,14.162,31.569,31.569,31.569s31.569-14.162,31.569-31.569    c0-4.143-3.357-7.5-7.5-7.5s-7.5,3.357-7.5,7.5c0,9.137-7.433,16.569-16.569,16.569c-9.136,0-16.569-7.433-16.569-16.569    c0-4.143-3.358-7.5-7.5-7.5S224.431,205.805,224.431,209.947z"/>
		<path id="XMLID_1044_" d="M318.157,473.259H193.854c-4.142,0-7.5,3.357-7.5,7.5s3.358,7.5,7.5,7.5h124.304    c4.143,0,7.5-3.357,7.5-7.5S322.3,473.259,318.157,473.259z"/>
		<path id="XMLID_1045_" d="M274.487,497h-36.964c-4.142,0-7.5,3.357-7.5,7.5s3.358,7.5,7.5,7.5h36.964c4.143,0,7.5-3.357,7.5-7.5    S278.63,497,274.487,497z"/>
		<path id="XMLID_1046_" d="M366.21,136.118c11.356,0,20.596-9.239,20.596-20.596s-9.239-20.596-20.596-20.596    s-20.596,9.239-20.596,20.596S354.854,136.118,366.21,136.118z M366.21,109.927c3.086,0,5.596,2.51,5.596,5.596    s-2.51,5.596-5.596,5.596s-5.596-2.51-5.596-5.596S363.124,109.927,366.21,109.927z"/>
	</g>
</g>















</svg>
