<svg id="Capa_1" enable-background="new 0 0 512 512" height="512" viewBox="0 0 512 512" width="512" xmlns="http://www.w3.org/2000/svg"><path d="m289.688 376.606-33.688-37.85-33.687 37.85-29.785-35.109 36.175 163.003h54.595l36.175-163.003z" fill="#dfdde2"/><path d="m194.702 304.965 61.298 33.791-33.687 37.85-44.928-52.958 11.457-17.247c1.283-1.93 3.831-2.554 5.86-1.436z" fill="#f1f1f4"/><path d="m317.299 304.965-61.299 33.791 33.687 37.85 44.928-52.958-11.457-17.247c-1.282-1.93-3.83-2.554-5.859-1.436z" fill="#f1f1f4"/><path d="m271.679 389.362h-31.357l-11.619 115.138h54.595z" fill="#dd636e"/><path d="m230.721 484.5-2.018 20h54.595l-2.018-20z" fill="#da4a54"/><path d="m256 338.756-22.133 24.868 2.879 22.589c.229 1.8 1.761 3.148 3.575 3.148h31.357c1.814 0 3.345-1.348 3.575-3.148l2.879-22.589z" fill="#e28086"/><path d="m177.385 323.648 8.381-12.617h-77.396c-33.411 0-60.497 27.085-60.497 60.497v132.972h180.83l-36.175-163.003z" fill="#e2bcaf"/><path d="m47.873 484.5v20h180.83l-4.439-20z" fill="#d8a595"/><path d="m182.225 329.353-46.477 35.933 36.64 36.64-25.488 25.487 54.838 77.087h26.965l-36.175-163.003z" fill="#f1ddd5"/><path d="m224.264 484.5h-36.754l14.228 20h26.965z" fill="#e7c6bc"/><path d="m334.615 323.648-8.381-12.617h77.397c33.411 0 60.497 27.085 60.497 60.497v132.972h-180.83l36.175-163.003z" fill="#e2bcaf"/><path d="m408.767 311.247c9.553 10.697 15.36 24.811 15.36 40.281v101.287c0 17.499-14.186 31.685-31.685 31.685h-104.705l-4.438 20h180.83v-132.971c-.001-31.682-24.354-57.675-55.362-60.282z" fill="#d8a595"/><path d="m329.776 329.353 46.477 35.933-36.64 36.64 25.487 25.487-54.837 77.087h-26.965l36.175-163.003z" fill="#f1ddd5"/><path d="m287.737 484.5-4.439 20h26.965l14.228-20z" fill="#e7c6bc"/><path d="m379.13 137.299-123.129 13-123.129-13c-9.693-1.023-17.05-9.198-17.05-18.945v-6.319h280.36v6.319c-.002 9.747-7.359 17.922-17.052 18.945z" fill="#e2bcaf"/><path d="m339.609 41.6c-3.877-19.809-21.236-34.1-41.42-34.1h-15.142c-4.401 0-8.686 1.748-11.616 5.031-4.009 4.492-9.445 7.251-15.432 7.251s-11.423-2.759-15.431-7.251c-2.93-3.283-7.215-5.031-11.616-5.031h-15.142c-20.184 0-37.544 14.291-41.42 34.1l-8.892 45.435h185.003z" fill="#e2bcaf"/><path d="m163.499 87.035-4.893 25h194.789l-4.893-25z" fill="#e28086"/><path d="m348.502 87.035h-44.641c-3.229 3.079-7.609 5-12.511 5h-128.829l-3.914 20h194.788z" fill="#dd636e"/><path d="m299.609 21.6 9.551 48.801c1.252 6.398-1.006 12.54-5.299 16.634h44.641l-8.893-45.435c-3.877-19.809-21.236-34.1-41.42-34.1h-4.103c2.619 4.231 4.522 8.981 5.523 14.1z" fill="#d8a595"/><path d="m47.873 512h416.255c4.143 0 7.5-3.358 7.5-7.5v-66.794c0-4.142-3.357-7.5-7.5-7.5s-7.5 3.358-7.5 7.5v59.294h-57.768v-87.128c0-4.142-3.357-7.5-7.5-7.5s-7.5 3.358-7.5 7.5v87.128h-59.057l46.409-65.239c2.122-2.983 1.78-7.063-.808-9.651l-20.185-20.184 31.337-31.336c3.196-3.194 2.858-8.474-.716-11.237l-40.276-31.138c1.945-2.531 2.079-6.035.298-8.716l-.642-.967h63.411c29.222 0 52.996 23.774 52.996 52.997v31.178c0 4.142 3.357 7.5 7.5 7.5s7.5-3.358 7.5-7.5v-31.178c0-37.494-30.503-67.997-67.996-67.997h-73.375l-.85-1.28c-3.414-5.14-10.32-6.835-15.728-3.854l-57.678 31.794-57.678-31.795c-5.406-2.979-12.313-1.286-15.728 3.854l-.85 1.28h-73.374c-37.494 0-67.997 30.503-67.997 67.997v132.972c0 4.142 3.357 7.5 7.5 7.5zm157.734-15-48.919-68.768 21.004-21.003c2.927-2.927 2.928-7.678 0-10.606l-30.616-30.615 34.067-26.338 4.465 5.263 9.291 41.867c.902 4.061 4.922 6.592 8.947 5.697 4.044-.897 6.595-4.903 5.697-8.947l-3.126-14.088 10.177 11.996c2.945 3.472 8.289 3.542 11.321.134l.596-.67.795 6.24c.314 2.463 1.428 4.656 3.06 6.331l-6.445 63.861-8.676-39.093c-.897-4.043-4.902-6.594-8.947-5.697-4.044.897-6.595 4.903-5.697 8.947l16.755 75.489zm78.478-115.407c3.055 3.433 8.398 3.313 11.321-.134l10.177-11.996-19.505 87.892-6.444-63.859c1.632-1.676 2.746-3.869 3.059-6.332l.796-6.24zm-15.837.269h-24.495l-2.014-15.8 14.261-16.024c5.014 5.633 11.442 12.855 14.262 16.024zm-31.25 115.138 10.105-100.138h17.795l10.105 100.138zm97.311-100.377c-2.927 2.927-2.928 7.678 0 10.606l21.004 21.003-48.919 68.768h-13.749l33.748-152.067 4.465-5.263 34.067 26.338zm-15.846-83.735c1.864 2.806 4.918 7.403 6.783 10.211-45.219 53.301-6.613 7.795-35.694 42.074-19.875-22.33-1.273-1.43-21.703-24.385zm-74.311 27.9c-11.072 12.44-10.363 11.643-21.703 24.384-10.631-12.531-29.064-34.259-35.694-42.074 1.865-2.808 4.919-7.405 6.783-10.211zm-188.779 30.74c0-29.222 23.774-52.997 52.997-52.997h63.411l-.642.967c-1.781 2.681-1.646 6.185.298 8.716l-40.276 31.138c-3.574 2.763-3.911 8.044-.716 11.237l31.337 31.336-20.185 20.184c-2.588 2.588-2.93 6.667-.808 9.651l46.409 65.24h-59.057v-87.128c0-4.142-3.357-7.5-7.5-7.5s-7.5 3.358-7.5 7.5v87.128h-57.768z"/><path d="m403.68 118.354v-6.319c0-4.142-3.357-7.5-7.5-7.5h-36.611c-2.213-11.306-11.649-59.52-12.599-64.376-4.554-23.27-25.07-40.159-48.781-40.159h-15.142c-6.664 0-12.938 2.748-17.211 7.537-5.65 6.331-14.033 6.318-19.672 0-4.275-4.79-10.547-7.537-17.21-7.537h-15.143c-23.711 0-44.226 16.889-48.78 40.159-.945 4.83-10.388 53.081-12.599 64.376h-36.611c-4.143 0-7.5 3.358-7.5 7.5v6.319c0 13.622 10.216 24.974 23.763 26.404l123.13 13c1.117.119 1.458.012 6.882-.56v30.348c0 3.36-2.734 6.094-6.095 6.094-4.143 0-7.5 3.358-7.5 7.5s3.357 7.5 7.5 7.5c11.632 0 21.095-9.463 21.095-21.094v-31.932l102.821-10.856c13.547-1.43 23.763-12.782 23.763-26.404zm-235.964-13.819 1.957-10h12.854c4.143 0 7.5-3.358 7.5-7.5s-3.357-7.5-7.5-7.5h-9.918l7.142-36.495c3.18-16.248 17.504-28.04 34.06-28.04h15.143c2.394 0 4.588.92 6.02 2.525 11.62 13.017 30.432 13.02 42.056-.001 1.431-1.604 3.625-2.524 6.019-2.524h15.142c16.556 0 30.881 11.792 34.061 28.04l7.142 36.495h-121.864c-4.143 0-7.5 3.358-7.5 7.5s3.357 7.5 7.5 7.5h124.8l1.957 10zm88.284 38.223-122.343-12.917c-5.496-.581-9.732-4.916-10.277-10.306h265.24c-.545 5.39-4.781 9.725-10.278 10.306-3.806.402-115.11 12.153-122.342 12.917z"/><path d="m256 248.162c-12.689 0-21.655-2.202-27.53-4.476-4.801-1.858-6.321-7.901-2.994-11.829 2.045-2.414 5.396-3.316 8.346-2.174 4.16 1.609 11.327 3.479 22.178 3.479 10.87 0 18.06-1.891 22.245-3.526 2.982-1.165 6.377-.234 8.419 2.231l.013.016c3.261 3.937 1.717 9.91-3.047 11.765-5.873 2.287-14.868 4.514-27.63 4.514z"/></svg>