<svg height="512pt" viewBox="-50 0 512 512.002" width="512pt" xmlns="http://www.w3.org/2000/svg"><path d="m234.984375 7.574219c-93.378906 0-169.28125 75.679687-169.28125 169.28125v25.164062c0 27.140625-10.785156 53.171875-29.976563 72.363281l-23.304687 23.308594c-9.871094 9.871094-2.882813 26.75 11.078125 26.75h33.519531c4.796875 0 8.683594 3.886719 8.683594 8.679688v28.753906c0 42.972656 35.15625 78.132812 78.128906 78.132812 16.753907 0 30.382813 13.578126 30.382813 30.382813v24.960937c0 5.09375 4.132812 9.222657 9.226562 9.222657h144.1875c5.167969 0 9.359375-4.191407 9.359375-9.359375v-64.011719c0-25.097656 8.363281-49.800781 24.972657-68.621094 26.328124-29.832031 42.308593-69.011719 42.308593-111.933593v-73.789063c0-93.496094-75.792969-169.285156-169.285156-169.285156zm0 0" fill="#e4eaf8"/><path d="m209.21875 495.347656v-24.957031c0-16.808594-13.628906-30.382813-30.382812-30.382813-42.972657 0-78.132813-35.160156-78.132813-78.132812v-28.753906c0-4.796875-3.886719-8.683594-8.679687-8.683594h-33.519532c-13.960937 0-20.953125-16.875-11.082031-26.75l23.308594-23.304688c19.191406-19.191406 29.972656-45.222656 29.972656-72.367187v-25.160156c0-87.683594 66.605469-159.632813 151.789063-168.386719-5.757813-.589844-11.59375-.894531-17.503907-.894531-93.382812 0-169.285156 75.679687-169.285156 169.28125v25.160156c0 27.144531-10.78125 53.175781-29.976563 72.367187l-23.304687 23.304688c-9.871094 9.871094-2.878906 26.75 11.078125 26.75h33.523438c4.792968 0 8.679687 3.886719 8.679687 8.683594v28.753906c0 42.972656 35.160156 78.132812 78.128906 78.132812 16.757813 0 30.382813 13.574219 30.382813 30.382813v24.957031c0 5.09375 4.132812 9.226563 9.226562 9.226563h35.003906c-5.097656 0-9.226562-4.128907-9.226562-9.226563zm0 0" fill="#d8dce5"/><path d="m324.613281 186.46875-20.351562-11.75c-1.425781-.824219-2.214844-2.4375-1.953125-4.066406.59375-3.660156.90625-7.414063.90625-11.242188s-.3125-7.582031-.90625-11.242187c-.261719-1.628907.527344-3.242188 1.953125-4.066407l20.351562-11.75c3.792969-2.191406 5.089844-7.035156 2.902344-10.828124l-14.269531-24.71875c-2.191406-3.789063-7.039063-5.089844-10.828125-2.898438l-20.371094 11.761719c-1.429687.824219-3.226563.699219-4.5-.347657-5.785156-4.730468-12.339844-8.546874-19.453125-11.242187-1.539062-.582031-2.542969-2.074219-2.542969-3.722656v-23.507813c0-4.378906-3.546875-7.925781-7.925781-7.925781h-28.542969c-4.375 0-7.925781 3.546875-7.925781 7.925781v23.507813c0 1.644531-1.003906 3.140625-2.542969 3.722656-7.109375 2.695313-13.667969 6.511719-19.449219 11.242187-1.277343 1.042969-3.074218 1.171876-4.503906.34375l-20.371094-11.761718c-3.792968-2.1875-8.636718-.886719-10.828124 2.902344l-14.269532 24.71875c-2.191406 3.789062-.890625 8.636718 2.898438 10.824218l20.351562 11.75c1.429688.824219 2.21875 2.441406 1.953125 4.066406-.589843 3.660157-.902343 7.417969-.902343 11.246094 0 3.824219.3125 7.582032.902343 11.238282.265625 1.628906-.523437 3.242187-1.953125 4.070312l-20.351562 11.75c-3.789063 2.1875-5.089844 7.035156-2.898438 10.824219l14.269532 24.71875c2.191406 3.792969 7.039062 5.09375 10.828124 2.902343l20.371094-11.761718c1.429688-.824219 3.222656-.699219 4.503906.347656 5.78125 4.730469 12.335938 8.546875 19.449219 11.242188 1.539063.582031 2.542969 2.074218 2.542969 3.722656v23.507812c0 4.378906 3.550781 7.925782 7.925781 7.925782h28.542969c3.320312 0 6.160156-2.042969 7.339844-4.9375-12.683594-5.242188-21.609375-17.734376-21.609375-32.3125 0-19.304688 15.652343-34.957032 34.957031-34.957032 19.308594 0 34.960938 15.652344 34.960938 34.957032 0 .890624-.042969 1.769531-.109376 2.644531 3.660157 1.632812 8.035157.269531 10.082032-3.277344l14.269531-24.71875c2.1875-3.792969.890625-8.640625-2.902344-10.828125zm-91.261719 8.882812c-19.847656 0-35.941406-16.089843-35.941406-35.941406 0-19.851562 16.09375-35.945312 35.941406-35.945312 19.851563 0 35.945313 16.09375 35.945313 35.945312 0 19.851563-16.09375 35.941406-35.945313 35.941406zm0 0" fill="#ffc850"/><g fill="#feb644"><path d="m165.710938 197.296875c-2.1875-3.792969-.890626-8.640625 2.902343-10.828125l20.351563-11.75c1.425781-.824219 2.214844-2.4375 1.949218-4.066406-.589843-3.660156-.902343-7.414063-.902343-11.242188s.3125-7.582031.902343-11.242187c.265626-1.628907-.523437-3.242188-1.949218-4.066407l-20.351563-11.75c-3.792969-2.1875-5.089843-7.035156-2.902343-10.828124l11.605468-20.097657-13.027344-7.519531c-3.792968-2.1875-8.636718-.890625-10.828124 2.902344l-14.269532 24.714844c-2.1875 3.792968-.890625 8.640624 2.898438 10.828124l20.355468 11.75c1.425782.824219 2.214844 2.4375 1.949219 4.066407-.589843 3.660156-.902343 7.414062-.902343 11.242187s.3125 7.582032.902343 11.242188c.265625 1.628906-.523437 3.242187-1.949219 4.066406l-20.355468 11.75c-3.789063 2.1875-5.085938 7.035156-2.898438 10.828125l14.269532 24.714844c2.191406 3.792969 7.039062 5.09375 10.828124 2.902343l13.027344-7.519531zm0 0"/><path d="m237.675781 86.171875v-19.324219c0-4.378906 3.550781-7.925781 7.925781-7.925781h-26.519531c-4.375 0-7.925781 3.546875-7.925781 7.925781v23.507813c0 1.644531-1.003906 3.140625-2.542969 3.722656 0 0 9.476563-3.152344 24.917969-3.65625 2.304688-.074219 4.144531-1.945313 4.144531-4.25zm0 0"/><path d="m237.675781 251.972656v-19.324218c0-2.308594-1.839843-4.175782-4.144531-4.25-15.441406-.503907-24.917969-3.660157-24.917969-3.660157 1.539063.585938 2.542969 2.078125 2.542969 3.726563v23.507812c0 4.378906 3.550781 7.925782 7.925781 7.925782h26.519531c-4.375 0-7.925781-3.546876-7.925781-7.925782zm0 0"/></g><path d="m333.78125 241.019531-14.398438-8.3125c-1.011718-.582031-1.570312-1.726562-1.382812-2.878906.417969-2.589844.640625-5.246094.640625-7.953125s-.222656-5.363281-.640625-7.953125c-.1875-1.152344.371094-2.296875 1.382812-2.878906l14.398438-8.3125c2.679688-1.550781 3.601562-4.976563 2.050781-7.660157l-10.097656-17.488281c-1.546875-2.679687-4.976563-3.597656-7.65625-2.050781l-14.414063 8.320312c-1.011718.582032-2.28125.496094-3.1875-.242187-4.089843-3.347656-8.730468-6.050781-13.757812-7.953125-1.089844-.414062-1.800781-1.472656-1.800781-2.636719v-16.632812c0-3.097657-2.511719-5.605469-5.609375-5.605469h-20.191406c-3.097657 0-5.609376 2.507812-5.609376 5.605469v16.632812c0 1.164063-.710937 2.222657-1.800781 2.636719-5.027343 1.90625-9.667969 4.605469-13.757812 7.953125-.90625.738281-2.175781.828125-3.1875.242187l-14.414063-8.320312c-2.679687-1.546875-6.109375-.628906-7.65625 2.050781l-10.097656 17.488281c-1.550781 2.683594-.628906 6.113282 2.050781 7.660157l14.402344 8.3125c1.007813.585937 1.566406 1.726562 1.378906 2.878906-.417969 2.589844-.640625 5.246094-.640625 7.953125s.222656 5.363281.640625 7.953125c.1875 1.152344-.371093 2.296875-1.378906 2.878906l-14.402344 8.3125c-2.679687 1.546875-3.597656 4.976563-2.050781 7.660157l10.097656 17.488281c1.546875 2.679687 4.976563 3.601562 7.660156 2.050781l14.410157-8.320312c1.011719-.582032 2.28125-.496094 3.1875.246093 4.089843 3.34375 8.730469 6.046875 13.761719 7.953125 1.089843.410156 1.796874 1.46875 1.796874 2.632813v16.632812c0 3.097657 2.511719 5.609375 5.609376 5.609375h20.195312c3.09375 0 5.605469-2.511718 5.605469-5.605468v-16.636719c0-1.164063.710937-2.21875 1.800781-2.632813 5.027344-1.90625 9.667969-4.609375 13.757812-7.953125.90625-.738281 2.175782-.828125 3.1875-.246093l14.410157 8.320312c2.683593 1.550781 6.113281.632812 7.660156-2.050781l10.097656-17.488281c1.546875-2.683594.628907-6.113282-2.050781-7.660157zm-64.570312 6.285157c-14.042969 0-25.429688-11.386719-25.429688-25.429688 0-14.046875 11.386719-25.429688 25.429688-25.429688 14.046874 0 25.433593 11.382813 25.433593 25.429688 0 14.042969-11.386719 25.429688-25.433593 25.429688zm0 0" fill="#707487"/><path d="m221.355469 248.679688c-1.546875-2.683594-.628907-6.113282 2.054687-7.660157l14.398438-8.3125c1.011718-.582031 1.566406-1.726562 1.382812-2.878906-.421875-2.589844-.640625-5.246094-.640625-7.953125s.21875-5.363281.640625-7.953125c.183594-1.152344-.375-2.292969-1.382812-2.878906l-14.398438-8.3125c-2.683594-1.546875-3.601562-4.976563-2.054687-7.660157l8.210937-14.21875-9.21875-5.320312c-2.679687-1.546875-6.109375-.628906-7.65625 2.050781l-10.097656 17.488281c-1.550781 2.683594-.628906 6.113282 2.050781 7.660157l14.402344 8.3125c1.007813.585937 1.566406 1.726562 1.378906 2.878906-.417969 2.589844-.640625 5.246094-.640625 7.953125s.222656 5.363281.640625 7.953125c.1875 1.152344-.371093 2.296875-1.378906 2.878906l-14.402344 8.3125c-2.679687 1.546875-3.597656 4.976563-2.050781 7.660157l10.097656 17.488281c1.546875 2.679687 4.976563 3.601562 7.660156 2.050781l9.214844-5.320312zm0 0" fill="#52586d"/><path d="m272.273438 170.058594v-13.671875c0-3.097657 2.507812-5.609375 5.605468-5.609375h-18.761718c-3.097657 0-5.609376 2.511718-5.609376 5.609375v16.632812c0 1.164063-.707031 2.222657-1.796874 2.632813 0 0 6.703124-2.230469 17.628906-2.585938 1.628906-.054687 2.933594-1.375 2.933594-3.007812zm0 0" fill="#52586d"/><path d="m272.273438 287.363281v-13.671875c0-1.632812-1.304688-2.953125-2.9375-3.007812-10.921876-.355469-17.628907-2.585938-17.628907-2.585938 1.089844.414063 1.800781 1.46875 1.800781 2.632813v16.636719c0 3.09375 2.511719 5.605468 5.609376 5.605468h18.761718c-3.097656 0-5.605468-2.511718-5.605468-5.609375zm0 0" fill="#52586d"/><path d="m403.988281 221.839844c-4.140625 0-7.5 3.359375-7.5 7.5v21.234375c0 39.4375-14.359375 77.425781-40.429687 106.972656-17.316406 19.617187-26.851563 45.75-26.851563 73.582031v64.011719c0 1.023437-.832031 1.859375-1.855469 1.859375h-58.023437c-4.144531 0-7.5 3.355469-7.5 7.5s3.355469 7.5 7.5 7.5h58.023437c9.296876 0 16.859376-7.5625 16.859376-16.859375v-64.011719c0-24.175781 8.199218-46.78125 23.09375-63.65625 28.492187-32.289062 44.183593-73.804687 44.183593-116.898437v-21.234375c0-4.140625-3.355469-7.5-7.5-7.5zm0 0"/><path d="m234.707031 0c-97.480469 0-176.785156 79.304688-176.785156 176.78125v25.160156c0 25.335938-9.863281 49.152344-27.773437 67.0625l-23.308594 23.308594c-14.597656 14.59375-4.285156 39.550781 16.382812 39.550781h33.519532c.652343 0 1.183593.53125 1.183593 1.183594v28.757813c0 47.214843 38.414063 85.628906 85.628907 85.628906 12.617187 0 22.882812 10.265625 22.882812 22.882812v24.960938c0 9.222656 7.503906 16.726562 16.726562 16.726562h51.164063c4.144531 0 7.5-3.359375 7.5-7.503906 0-4.140625-3.355469-7.5-7.5-7.5h-51.164063c-.949218 0-1.726562-.773438-1.726562-1.722656v-24.960938c0-20.886718-16.992188-37.882812-37.882812-37.882812-38.945313 0-70.628907-31.683594-70.628907-70.628906v-28.757813c0-8.921875-7.257812-16.183594-16.183593-16.183594h-33.519532c-7.273437 0-10.921875-8.796875-5.777344-13.941406l23.308594-23.308594c20.746094-20.746093 32.171875-48.328125 32.171875-77.667969v-25.164062c-.003906-89.207031 72.574219-161.78125 161.78125-161.78125s161.78125 72.578125 161.78125 161.785156v17.554688c0 4.140625 3.359375 7.5 7.5 7.5 4.144531 0 7.5-3.359375 7.5-7.5v-17.554688c0-97.480468-79.300781-176.785156-176.78125-176.785156zm0 0"/><path d="m292.140625 287.289062v-13.507812c3.597656-1.605469 7.011719-3.578125 10.203125-5.898438l11.707031 6.761719c6.257813 3.609375 14.289063 1.457031 17.902344-4.800781l10.097656-17.488281c3.621094-6.269531 1.480469-14.28125-4.796875-17.902344l-11.695312-6.753906c.40625-3.917969.40625-7.875 0-11.792969l11.691406-6.753906c6.289062-3.625 8.417969-11.640625 4.800781-17.90625l-10.097656-17.488282c-3.613281-6.257812-11.648437-8.410156-17.90625-4.796874l-2.570313 1.484374-1.5625-.902343c.429688-3.320313.648438-6.683594.648438-10.023438 0-3.34375-.21875-6.703125-.648438-10.027343l18.339844-10.585938c7.371094-4.257812 9.90625-13.71875 5.648438-21.09375l-14.296875-24.761719c-4.257813-7.371093-13.71875-9.90625-21.09375-5.652343l-18.351563 10.597656c-5.335937-4.089844-11.152344-7.453125-17.347656-10.027344v-21.183594c0-8.511718-6.929688-15.4375-15.441406-15.4375h-28.59375c-8.515625 0-15.441406 6.925782-15.441406 15.4375v21.179688c-6.191407 2.574218-12.011719 5.9375-17.347657 10.027344l-18.355469-10.59375c-7.371093-4.257813-16.832031-1.71875-21.089843 5.652343l-14.296875 24.761719c-4.265625 7.390625-1.738282 16.824219 5.652344 21.09375l18.335937 10.585938c-.429687 3.320312-.648437 6.683593-.648437 10.027343 0 3.339844.21875 6.703125.648437 10.023438l-18.335937 10.585937c-7.390626 4.265625-9.921876 13.699219-5.652344 21.089844l14.296875 24.765625c4.257812 7.375 13.71875 9.90625 21.09375 5.652344l18.351562-10.597657c5.335938 4.09375 11.15625 7.453126 17.347657 10.027344v1.8125l-2.71875 1.570313c-6.273438 3.621093-8.421876 11.628906-4.796876 17.902343l10.09375 17.488282c3.625 6.277344 11.632813 8.421875 17.90625 4.800781l11.707032-6.757813c3.1875 2.316407 6.601562 4.289063 10.203125 5.898438v13.507812c0 7.226563 5.878906 13.105469 13.105469 13.105469h20.195312c7.226562.003907 13.109375-5.875 13.109375-13.105469zm-98.585937-79.390624c-3.664063-3-8.890626-3.414063-13.011719-1.035157l-20.40625 11.78125c-.207031.117188-.480469.046875-.601563-.164062l-14.296875-24.761719c-.121093-.210938-.050781-.480469.160157-.597656l20.390624-11.773438c4.109376-2.371094 6.363282-7.101562 5.609376-11.765625-.539063-3.320312-.8125-6.707031-.8125-10.066406s.273437-6.746094.8125-10.066406c.753906-4.660157-1.5-9.390625-5.609376-11.765625l-20.390624-11.773438c-.210938-.121094-.28125-.386718-.160157-.597656l14.296875-24.765625c.082032-.140625.230469-.21875.382813-.21875.074219 0 .148437.019531.21875.058594l20.410156 11.785156c4.117187 2.378906 9.34375 1.957031 13.003906-1.039063 5.238281-4.28125 11.089844-7.664062 17.394531-10.050781 4.421876-1.675781 7.394532-5.996093 7.394532-10.746093v-23.550782c0-.242187.195312-.441406.4375-.441406h28.59375c.242187 0 .441406.199219.441406.441406v23.550782c0 4.75 2.972656 9.070312 7.390625 10.746093 6.304687 2.386719 12.160156 5.769531 17.394531 10.050781 3.660156 3 8.890625 3.414063 13.011719 1.039063l20.40625-11.785156c.210937-.121094.480469-.046875.601563.164062l14.296874 24.761719c.121094.210938.046876.480469-.164062.601562l-20.386719 11.769532c-4.113281 2.375-6.367187 7.105468-5.609375 11.765625.535156 3.320312.808594 6.707031.808594 10.070312 0 3.359375-.269531 6.746094-.808594 10.058594-.074218.472656-.121094.949219-.140625 1.421875-.8125-.414062-1.636719-.808594-2.472656-1.179688v-13.507812c0-7.226562-5.882813-13.109375-13.109375-13.109375h-7.816406c-6.441406-15.070313-21.382813-25.167969-38.136719-25.167969-34.183594 0-53.550781 39.1875-33.25 66.273438l-4.007813 6.9375c-3.621093 6.269531-1.476562 14.285156 4.796876 17.90625l11.695312 6.75c-.085938.855468-.15625 1.707031-.207031 2.5625-1.574219-.808594-9.542969-3.195313-18.550781-10.566406zm60.925781-63.933594c-5.089844 1.804687-8.75 6.648437-8.75 12.347656v13.507812c-3.597657 1.605469-7.011719 3.578126-10.203125 5.898438l-11.707032-6.757812c-4.886718-2.820313-10.84375-2.113282-14.945312 1.300781-1.492188-3.339844-2.28125-6.984375-2.28125-10.742188 0-25.558593 32.828125-36.234375 47.886719-15.554687zm22.660156 141.429687h-16.410156v-14.738281c0-4.269531-2.671875-8.148438-6.640625-9.648438-4.234375-1.601562-8.160156-3.871093-11.671875-6.742187-3.292969-2.695313-7.988281-3.070313-11.683594-.9375l-12.773437 7.375-8.203126-14.210937 4.828126-2.785157h.003906l7.933594-4.582031c3.21875-1.863281 5.179687-5.34375 5.160156-9-.011719-1.867188-1.425782-7.085938-.132813-15.070312.683594-4.191407-1.339843-8.441407-5.03125-10.582032l-12.761719-7.363281 5.71875-9.902344v-.003906l2.484376-4.304687 12.773437 7.375c3.695313 2.132812 8.390625 1.761718 11.683594-.933594 3.515625-2.875 7.441406-5.144532 11.667969-6.746094 3.976562-1.503906 6.644531-5.382812 6.644531-9.648438v-14.738281h16.410156v14.738281c0 3.871094 2.199219 7.414063 5.574219 9.164063 1.492187.773437 6.636718 2.242187 12.734375 7.226563 3.292969 2.695312 7.984375 3.074218 11.6875.9375l8.089843-4.671876c.003907 0 .003907-.003906.003907-.003906l4.679687-2.699218 8.203125 14.210937-12.765625 7.367187c-3.6875 2.132813-5.710937 6.382813-5.03125 10.566407.734375 4.527343.714844 9.097656 0 13.511719-.679687 4.191406 1.34375 8.4375 5.035156 10.574218l12.757813 7.363282-8.199219 14.210937-12.773437-7.371094c-3.695313-2.136719-8.394531-1.761719-11.6875.929688-3.511719 2.875-7.4375 5.144531-11.667969 6.75-3.976562 1.503906-6.644531 5.382812-6.644531 9.644531v14.738281zm0 0"/><path d="m298.59375 221.800781c0-16.355469-13.304688-29.660156-29.660156-29.660156-16.351563 0-29.65625 13.308594-29.65625 29.660156 0 16.355469 13.304687 29.660157 29.65625 29.660157 16.355468 0 29.660156-13.304688 29.660156-29.660157zm-29.660156 14.660157c-8.082032 0-14.65625-6.574219-14.65625-14.660157 0-8.082031 6.574218-14.660156 14.65625-14.660156 8.085937 0 14.660156 6.578125 14.660156 14.660156 0 8.085938-6.574219 14.660157-14.660156 14.660157zm0 0"/></svg>