<svg id="Capa_1" enable-background="new 0 0 511.928 511.928" height="512" viewBox="0 0 511.928 511.928" width="512" xmlns="http://www.w3.org/2000/svg"><path d="m321.763 245.916c-3.468-7.032-6.502-14.27-9.084-21.674l-6.838-19.602h-99.754l-6.838 19.603c-2.582 7.403-5.616 14.64-9.084 21.672l-11.185 22.68 1.655 22.468c2.16 29.324 18.11 51.956 44.447 61.647 6.449 2.373 12.292 6.068 17.696 10.313 3.632 2.852 8.21 4.553 13.186 4.553s9.554-1.701 13.185-4.553c5.405-4.245 11.247-7.94 17.697-10.313 26.337-9.691 42.288-32.324 44.447-61.648l1.655-22.468z" fill="#ffcbbe"/><path d="m321.763 245.916c-3.468-7.032-6.502-14.27-9.084-21.674l-6.838-19.602h-33.022c2.552 7.265 5.539 14.369 8.944 21.275l7.36 14.924c2.504 5.078 3.605 10.734 3.189 16.38l-1.019 13.843c-2.159 29.324-18.11 51.957-44.447 61.648-6.45 2.373-12.292 6.068-17.697 10.313-3.631 2.852-8.21 4.553-13.185 4.553-.692 0-1.376-.033-2.051-.097 3.48 2.022 7.207 3.774 11.169 5.232 6.449 2.373 12.292 6.068 17.696 10.313 3.631 2.852 8.21 4.553 13.186 4.553s9.554-1.701 13.185-4.553c5.405-4.245 11.247-7.94 17.697-10.313 26.337-9.691 42.288-32.324 44.447-61.648l1.655-22.468z" fill="#eaac9d"/><path d="m346.394 37.663c7.699-1.191 13.297-8.042 12.823-15.922-.486-8.077-7.466-14.241-15.558-14.241h-78.731c-24.225 0-45.842 15.207-54.027 38.007l-12.306 54.962c-7.751 34.618-21.482 67.619-40.576 97.517l-4.249 6.654h204.387l-3.636-5.65c-19.283-29.963-33.167-63.073-41.021-97.828l-12.754-56.438z" fill="#dd636e"/><path d="m313.5 101.162-12.754-56.438 45.648-7.062c7.699-1.191 13.297-8.042 12.823-15.922-.486-8.076-7.466-14.24-15.558-14.24h-25.201c-1.763 5.251-6.331 9.276-12.064 10.163l-18.033 2.79c-14.934 2.31-24.786 16.788-21.455 31.528l6.595 29.182c7.854 34.755 21.738 67.865 41.021 97.828 1.57 2.44-.181 5.65-3.083 5.65h-145.369c-2.567 4.512-5.251 8.963-8.05 13.346l-4.249 6.654h204.387l-3.636-5.65c-19.284-29.964-33.168-63.073-41.022-97.829z" fill="#da4a54"/><path d="m349.633 278.183c10.168-5.426 17.088-16.139 17.088-28.47v-8.286c0-7.479-6.444-13.33-13.889-12.609-8.235.798-17.078 1.654-17.078 1.654l-1.135 15.416z" fill="#ffcbbe"/><path d="m162.294 278.184 15.014-32.295-1.135-15.416-17.077-1.654c-7.444-.721-13.89 5.13-13.89 12.609v8.286c0 12.33 6.92 23.044 17.088 28.47z" fill="#ffcbbe"/><path d="m321.763 245.916 11.184 22.68 3.857-52.371c.289-3.916.294-7.784.036-11.584h-30.999l6.839 19.603c2.582 7.402 5.615 14.64 9.083 21.672z" fill="#f1f1f4"/><path d="m199.248 224.243 6.838-19.603h-30.999c-.258 3.8-.253 7.668.035 11.584l3.857 52.371 11.184-22.68c3.469-7.031 6.503-14.269 9.085-21.672z" fill="#f1f1f4"/><path d="m206.087 204.64h37.094v17.784c0 3.985-3.231 7.216-7.216 7.216h-38.69z" fill="#fff"/><path d="m305.841 204.64h-37.094v17.784c0 3.985 3.231 7.216 7.216 7.216h38.69z" fill="#fff"/><path d="m281.763 225.916 1.837 3.725h31.054c-.684-1.788-1.344-3.59-1.975-5.398l-6.838-19.602h-33.022c2.552 7.264 5.538 14.369 8.944 21.275z" fill="#f9f6f9"/><path d="m352.703 284.786-18.083-38.897-3.327 45.174c-2.16 29.327-18.114 51.962-44.456 61.651-6.446 2.373-12.286 6.067-17.688 10.31-3.631 2.852-8.21 4.553-13.185 4.553-4.976 0-9.554-1.701-13.186-4.553-5.402-4.242-11.24-7.935-17.686-10.309-26.343-9.689-42.297-32.324-44.457-61.651l-3.327-45.175-18.083 38.898c-14.66 31.533-9.609 68.717 12.931 95.197l82.109 96.463c.891 1.047 2.507 1.047 3.398 0l82.109-96.464c22.54-26.48 27.591-63.664 12.931-95.197z" fill="#f1f1f4"/><path d="m352.703 284.786-18.083-38.897-3.327 45.174c-1.188 16.13-6.55 30.236-15.517 41.277-3.56 9.933-8.917 19.317-16.004 27.643l-72.32 84.963 26.813 31.501c.891 1.047 2.507 1.047 3.398 0l82.109-96.464c22.54-26.48 27.591-63.664 12.931-95.197z" fill="#dfdde2"/><path d="m423.007 450.38c-4.891-40.99-33.537-74.719-72.225-86.675-3.018 5.742-6.693 11.207-11.01 16.278l-82.109 96.464c-.891 1.047-2.507 1.047-3.398 0l-82.109-96.464c-4.317-5.072-7.992-10.537-11.01-16.279-38.69 11.954-67.333 45.683-72.224 86.675l-6.449 54.048h346.984z" fill="#8993da"/><path d="m423.007 450.38c-4.891-40.99-33.537-74.719-72.225-86.675-.375.713-.76 1.421-1.154 2.125 18.112 16.384 30.337 39.063 33.379 64.55l1.66 13.912c2.548 21.353-14.128 40.137-35.632 40.137h-264.177l-2.386 20h346.984z" fill="#707dd3"/><path d="m255.964 290.067c11.499 0 20.855-9.355 20.855-20.855 0-4.142-3.357-7.5-7.5-7.5s-7.5 3.358-7.5 7.5c0 3.229-2.626 5.855-5.855 5.855s-5.854-2.626-5.854-5.855c0-4.142-3.357-7.5-7.5-7.5s-7.5 3.358-7.5 7.5c-.001 11.5 9.355 20.855 20.854 20.855z"/><path d="m303.866 178.889c4.143 0 7.5-3.358 7.5-7.5s-3.357-7.5-7.5-7.5h-95.805c-4.143 0-7.5 3.358-7.5 7.5s3.357 7.5 7.5 7.5z"/><path d="m89.05 449.303c-4.11-.489-7.845 2.446-8.336 6.559l-5.689 47.678c-.532 4.459 2.954 8.389 7.447 8.389h346.984c4.49 0 7.979-3.927 7.447-8.389l-6.449-54.048c-4.854-40.682-31.729-75.212-69.394-90.115 10.113-24.389 10.211-52.444-1.904-78.499 9.431-7.463 15.065-18.871 15.065-31.164v-8.286c0-11.896-10.268-21.221-22.112-20.074l-8.221.796c.34-4.608.55-6.937.617-10.009h13.652c5.927 0 9.515-6.574 6.307-11.558l-3.636-5.651c-18.866-29.314-32.328-61.419-40.013-95.422l-10.982-48.601 37.707-5.834c11.633-1.799 19.871-12.024 19.163-23.783-.717-11.94-10.84-21.292-23.044-21.292h-78.731c-27.311 0-51.858 17.27-61.085 42.973-.232.644.656-3.196-12.566 55.858-.905 4.042 1.638 8.052 5.68 8.958 4.041.904 8.052-1.638 8.957-5.68l12.201-54.491c7.21-19.53 25.964-32.618 46.813-32.618h78.731c4.212 0 7.833 3.226 8.071 7.191.24 3.986-2.547 7.451-6.483 8.06l-39.545 6.118-.686-1.909c-1.398-3.9-5.697-5.922-9.593-4.525-3.898 1.4-5.924 5.695-4.524 9.593l2.654 7.393 12.631 55.895c7.559 33.446 20.44 65.146 38.319 94.325-64.149 0-139.929 0-177.108 0 11.48-18.733 20.987-38.693 28.29-59.41 1.377-3.907-.673-8.19-4.58-9.567-3.904-1.379-8.19.673-9.566 4.58-7.561 21.447-17.601 42.04-29.841 61.207l-4.249 6.654c-3.183 4.985.406 11.537 6.321 11.537h13.652c.067 3.05.238 4.871.617 10.009l-8.22-.796c-11.812-1.157-22.113 8.157-22.113 20.074v8.287c0 12.293 5.635 23.701 15.065 31.164-12.127 26.092-12.006 54.133-1.905 78.496-27.182 10.746-49.113 31.818-60.912 58.85-2.169 4.971 1.505 10.502 6.87 10.502 2.892 0 5.647-1.682 6.878-4.502 10.397-23.821 29.888-42.29 54.011-51.416 2.571 4.195 5.484 8.221 8.731 12.037l82.109 96.465c3.888 4.565 10.934 4.56 14.819-.001l43.672-51.307c2.686-3.154 2.305-7.888-.85-10.572-3.153-2.685-7.887-2.304-10.572.85l-39.66 46.593-78.097-91.75c-20.574-24.172-25.223-58.39-11.842-87.174 1.074-2.311 4.18-8.992 5.922-12.738l1.209 16.404c2.292 31.136 18.752 55.164 45.379 66.562-5.709 8.145-8.785 17.826-8.785 27.979 0 4.142 3.357 7.5 7.5 7.5s7.5-3.358 7.5-7.5c0-7.886 2.677-15.36 7.599-21.387 6.219 4.008 8.63 7.332 16.115 9.332v23.79c0 4.142 3.357 7.5 7.5 7.5s7.5-3.358 7.5-7.5v-23.791c7.483-2 10.148-5.486 16.114-9.332 4.923 6.027 7.6 13.501 7.6 21.387 0 4.142 3.357 7.5 7.5 7.5s7.5-3.358 7.5-7.5c0-10.153-3.075-19.834-8.785-27.979 26.628-11.4 43.086-35.427 45.38-66.562l1.208-16.403c1.125 2.42 4.393 9.448 5.922 12.737 13.381 28.785 8.733 63.002-11.842 87.174l-15.243 17.908c-2.686 3.154-2.305 7.888.85 10.573s7.888 2.305 10.572-.85c16.413-19.283 19.067-21.941 23.973-29.943 33.271 12.596 57.091 42.794 61.347 78.458l5.448 45.659h-54.822v-64.312c0-4.142-3.357-7.5-7.5-7.5s-7.5 3.358-7.5 7.5v64.312h-190.442v-64.312c0-4.142-3.357-7.5-7.5-7.5s-7.5 3.358-7.5 7.5v64.312h-54.822l4.688-39.289c.491-4.114-2.445-7.847-6.558-8.337zm264.507-213.02c3.016-.291 5.665 2.072 5.665 5.145v8.286c0 6.396-2.451 12.408-6.685 16.924l-10.294-22.143.528-7.167zm-24.056-24.142c-.068 2.57 0 1.144-2.008 28.405-5.12-10.715-7.587-18.358-11.093-28.405zm-53.254 0h24.267l3.488 10h-27.755zm-64.834 0h24.267v10h-27.756zm-15.886 0-3.36 9.632s0 0-.001 0c-2.187 6.272-4.775 12.585-7.731 18.773-2.009-27.273-1.945-26.018-2.008-28.405zm-42.821 37.573v-8.287c0-3.05 2.625-5.434 5.666-5.144l10.785 1.045.528 7.166-10.294 22.144c-4.234-4.516-6.685-10.528-6.685-16.924zm131.54 95.962c-5.769 2.124-12.236 5.565-19.729 11.449-5.004 3.929-12.075 3.952-17.107 0-5.998-4.71-12.515-8.792-19.729-11.449-23.191-8.529-37.613-28.635-39.566-55.164l-1.505-20.431c9.576-19.418 12.351-24.71 15.75-32.941h33.605c8.114 0 14.716-6.602 14.716-14.716v-10.284h10.566v10.284c0 8.114 6.602 14.716 14.716 14.716h33.604c3.322 8.044 5.193 11.534 15.751 32.942l-1.505 20.43c-1.954 26.528-16.375 46.634-39.567 55.164z"/><path d="m255.964 325.462c-8.214 0-14.452-1.223-18.97-2.68-5.057-1.631-6.859-7.85-3.425-11.904 1.952-2.305 5.1-3.266 7.977-2.346 3.016.965 7.709 1.93 14.417 1.93s11.401-.965 14.417-1.93c2.876-.92 6.025.041 7.977 2.346 3.434 4.055 1.632 10.273-3.425 11.904-4.516 1.457-10.754 2.68-18.968 2.68z"/></svg>