<svg id="Capa_1" enable-background="new 0 0 512.002 512.002" height="512" viewBox="0 0 512.002 512.002" width="512" xmlns="http://www.w3.org/2000/svg"><g fill="#dfaca0"><path d="m163.526 149.8 5.172 70.222c1.35 18.329 11.216 34.403 24.33 47.085v-34.309c0-15.866 12.862-28.728 28.728-28.728h68.49c15.866 0 28.728 12.862 28.728 28.728v34.309c13.113-12.682 22.98-28.755 24.33-47.085l5.172-70.222z"/><path d="m346.99 209.475h-2.908l4.395-59.675h15.788c11.102 0 20.101 9 20.101 20.101v2.199c-.001 20.641-16.735 37.375-37.376 37.375z"/><path d="m165.013 209.475h2.909l-4.395-59.675h-15.788c-11.101 0-20.101 9-20.101 20.101v2.199c-.001 20.641 16.733 37.375 37.375 37.375z"/></g><path d="m189.292 319.944h-69.764c-31.735 0-57.461 25.726-57.461 57.461v127.098h168.007z" fill="#665e66"/><path d="m189.292 319.944-43.76 51.532 31.052 34.801-24.208 24.208 52.085 74.017h25.612z" fill="#8b818e"/><path d="m322.711 319.944h69.764c31.735 0 57.461 25.726 57.461 57.461v127.098h-168.007z" fill="#665e66"/><path d="m396.146 320.059c8.597 10.044 13.79 23.088 13.79 37.346v95.035c0 17.707-14.355 32.062-32.062 32.062h-91.525l-4.419 20h168.007v-127.097c-.001-30.501-23.767-55.452-53.791-57.346z" fill="#544f57"/><path d="m322.711 319.944 43.76 51.532-31.053 34.801 24.209 24.208-52.086 74.017h-25.612z" fill="#8b818e"/><path d="m255.121 389.976-65.82-70.018 40.772 184.544h51.856l40.778-184.544z" fill="#e28086"/><path d="m197.91 484.502h-135.843v20h168.006l-4.419-20z" fill="#544f57"/><path d="m197.91 484.502h-7.523l14.074 20h25.612l-4.419-20z" fill="#756e78"/><path d="m240.631 484.502h-14.977l4.419 20h51.856l4.419-20z" fill="#dd636e"/><path d="m286.348 484.502-4.419 20h25.612l14.074-20z" fill="#756e78"/><path d="m353.813 55.447c-16.93-23.938-42.459-41.475-72.249-47.944-.335 13.831-11.652 24.94-25.563 24.94s-25.228-11.109-25.563-24.94c-29.79 6.469-55.318 24.006-72.249 47.944-10.877 15.379-28.474 24.598-47.31 24.598h-2.986l12.144 44.618h271.929l12.144-44.618h-2.986c-18.837-.001-36.434-9.219-47.311-24.598z" fill="#665e66"/><path d="m401.124 80.044c-14.346 0-27.972-5.347-38.459-14.69l-1.04 3.822c-5.702 20.949-24.724 35.486-46.436 35.486h-200.596l5.443 20h271.929l12.144-44.618z" fill="#544f57"/><path d="m162.065 124.662c-.048 2.848.032 5.725.245 8.625l1.216 16.513h184.95l1.216-16.513c.214-2.9.293-5.776.245-8.624z" fill="#e28086"/><path d="m215.202 181.699c-13.827 0-25.035-11.209-25.035-25.035v-6.864h50.071v6.864c0 13.827-11.209 25.035-25.036 25.035z" fill="#665e66"/><path d="m290.246 204.07c15.866 0 28.728 12.862 28.728 28.728v87.146h-11.972c-7.27 0-13.163-5.893-13.163-13.163v-73.983h-11.827c-14.366 0-26.012-11.646-26.012-26.012v-2.716z" fill="#665e66"/><path d="m221.756 204.07c-15.866 0-28.728 12.862-28.728 28.728v87.146h11.972c7.27 0 13.163-5.893 13.163-13.163v-73.983h11.827c14.366 0 26.012-11.646 26.012-26.012v-2.716z" fill="#665e66"/><path d="m293.84 232.798h-11.827c-14.366 0-26.012-11.646-26.012-26.012 0 14.366-11.646 26.012-26.012 26.012h-11.827v52.767c13.799 7.628 27.75 11.876 37.839 11.876s24.041-4.248 37.839-11.876z" fill="#dfaca0"/><path d="m307.003 149.8-3.699 50.222c-.168 2.284-.469 4.532-.891 6.744 9.784 4.581 16.561 14.515 16.561 26.032v34.309c13.113-12.682 22.98-28.755 24.33-47.085l5.172-70.222z" fill="#d59b8b"/><path d="m253.839 265.567c-12.839 7.097-25.807 11.266-35.677 11.812v8.186c13.799 7.628 27.75 11.876 37.839 11.876s24.041-4.248 37.839-11.876v-52.767h-2.656c-9.493 13.802-23.341 25.027-37.345 32.769z" fill="#d59b8b"/><path d="m311.911 319.958c-.161 0-.32-.005-.479-.015h-4.429c-7.27 0-13.163-5.893-13.163-13.163v-17.68c-.926-.648-1.807-1.356-2.636-2.121-12.923 6.736-25.756 10.46-35.203 10.46s-22.28-3.724-35.203-10.46c-.829.764-1.709 1.473-2.636 2.121v17.68c0 7.27-5.893 13.163-13.163 13.163l-15.698.015 65.82 70.018 67.58-70.018z" fill="#dfaca0"/><path d="m62.067 426.245c-4.142 0-7.5 3.358-7.5 7.5v70.757c0 4.142 3.358 7.5 7.5 7.5h387.869c4.142 0 7.5-3.358 7.5-7.5v-127.097c0-35.82-29.141-64.961-64.961-64.961h-66v-42.22c14.627-14.98 23.016-32.087 24.31-49.651l.278-3.781c22.843-2.065 40.803-21.32 40.803-44.692v-2.199c0-15.219-12.382-27.601-27.601-27.601h-7.715c.657-8.929.665-8.963.732-10.137h34.684c3.383 0 6.348-2.266 7.237-5.53l12.144-44.618c1.293-4.751-2.279-9.47-7.237-9.47h-2.986c-16.3 0-31.697-8.011-41.187-21.428-18.466-26.109-45.733-44.201-76.78-50.943-4.597-.998-8.975 2.439-9.09 7.147-.235 9.716-8.34 17.621-18.065 17.621s-17.83-7.905-18.065-17.621c-.115-4.704-4.487-8.145-9.09-7.147-31.047 6.742-58.314 24.834-76.78 50.943-9.49 13.417-24.887 21.428-41.188 21.428h-2.986c-4.933 0-8.536 4.695-7.237 9.47l12.144 44.618c.889 3.265 3.854 5.53 7.237 5.53h34.684c.076 1.322.109 1.674.733 10.137h-7.715c-15.219 0-27.601 12.382-27.601 27.601v2.199c0 23.372 17.959 42.627 40.803 44.692l.278 3.781c1.293 17.563 9.682 34.671 24.31 49.651v42.22h-66c-35.82 0-64.961 29.141-64.961 64.961v21.34c0 4.142 3.358 7.5 7.5 7.5s7.5-3.358 7.5-7.5v-21.34c0-27.548 22.413-49.961 49.961-49.961h53.556l-33.269 39.177c-2.423 2.853-2.371 7.055.121 9.848l26.335 29.515-19.198 19.199c-2.579 2.578-2.929 6.637-.831 9.62l43.771 62.201h-53.229v-83.178c0-4.142-3.358-7.5-7.5-7.5s-7.5 3.358-7.5 7.5v83.178h-52.218v-63.257c0-4.144-3.358-7.502-7.5-7.502zm229.2 70.757 16.421-74.316c.894-4.044-1.661-8.048-5.705-8.941-4.043-.894-8.048 1.66-8.941 5.705l-17.137 77.552h-39.808l-33.6-152.056 47.16 50.167c2.955 3.143 7.91 3.128 10.861.071l49.135-50.908-8.743 39.566c-.894 4.044 1.661 8.048 5.705 8.941 4.041.894 8.048-1.661 8.941-5.705l11.217-50.763 29.753 35.038-26.706 29.93c-2.647 2.967-2.519 7.485.293 10.296l19.748 19.748-46.215 65.674h-12.379zm20.207-184.558h-4.471c-3.123 0-5.663-2.54-5.663-5.663 0-.1 0-66.815 0-73.983 0-4.142-3.358-7.5-7.5-7.5h-11.827c-8.554 0-15.771-5.832-17.885-13.728h26.119c11.705 0 21.228 9.523 21.228 21.228v79.646zm-55.473-84.552c6.15 7.565 15.526 12.406 26.012 12.406h4.327v40.747c-7.996 4.029-15.978 6.858-22.839 8.133v-5.377c0-4.142-3.358-7.5-7.5-7.5s-7.5 3.358-7.5 7.5v5.377c-6.861-1.275-14.843-4.104-22.839-8.133v-40.747h4.327c10.487 0 19.863-4.842 26.012-12.406zm-26.011-2.594h-11.827c-4.142 0-7.5 3.358-7.5 7.5v73.983c0 3.123-2.541 5.663-5.663 5.663h-4.471v-79.646c0-11.705 9.523-21.228 21.228-21.228h26.119c-2.115 7.896-9.333 13.728-17.886 13.728zm-4.328 81.483v-9.186c7.997 3.443 15.819 5.766 22.839 6.774v10.687c0 4.142 3.358 7.5 7.5 7.5s7.5-3.358 7.5-7.5v-10.686c7.02-1.009 14.842-3.332 22.839-6.774v9.186c0 10.763 8.273 19.631 18.794 20.579l-49.94 51.742-48.618-51.718c10.659-.809 19.086-9.74 19.086-20.604zm216.774 70.624v119.598h-52.217v-83.178c0-4.142-3.358-7.5-7.5-7.5s-7.5 3.358-7.5 7.5v83.178h-53.229l43.771-62.201c2.098-2.982 1.748-7.042-.831-9.62l-19.198-19.199 26.335-29.515c2.492-2.792 2.543-6.995.121-9.848l-33.269-39.177h53.556c27.548.001 49.961 22.413 49.961 49.962zm-115.962-131.094v-13.513c0-19.976-16.252-36.228-36.228-36.228h-13.993c.596-1.953.917-4.024.917-6.169v-33.101h63.233c-2.616 35.525 3.475-47.187-4.578 62.171-.755 10.242-4.544 19.281-9.351 26.84zm50.391-76.41v2.199c0 14.701-10.673 26.956-24.678 29.423l3.257-44.222h8.82c6.948-.001 12.601 5.652 12.601 12.6zm-75.276-52.738c-33.819 0-136.922 0-175.821 0l-8.157-29.969c18.608-1.946 35.717-11.886 46.701-27.416 14.775-20.891 35.923-35.962 60.146-43.023 4.255 13.385 16.894 23.188 31.542 23.188s27.287-9.803 31.542-23.188c24.223 7.061 45.371 22.132 60.146 43.023 10.983 15.53 28.092 25.47 46.701 27.416l-8.157 29.969c-18.637 0-31.673 0-49.645 0-4.142 0-7.5 3.358-7.5 7.5s3.358 7.5 7.5 7.5h5.663c-.035.52.011-.127-.744 10.138-12.597 0-149.517 0-171.013 0-.726-9.853-.713-9.671-.745-10.138h131.839c4.142 0 7.5-3.358 7.5-7.5.002-4.142-3.356-7.5-7.498-7.5zm-129.99 40.137h11.074c.117 6.055 1.895 11.709 4.898 16.526l-13.544 16.441zm26.079 0h35.048c-.336 9.375-8.068 16.899-17.524 16.899s-17.188-7.523-17.524-16.899zm-62.541 14.8v-2.199c0-6.948 5.653-12.601 12.601-12.601h8.82l3.257 44.222c-14.004-2.467-24.678-14.722-24.678-29.422zm41.041 47.371-.556-7.549 22.644-27.488c4.937 3.022 10.737 4.765 16.937 4.765 17.727 0 32.188-14.252 32.528-31.899h14.439v33.101c0 3.401-2.768 6.169-6.169 6.169h-34.245c-19.976 0-36.228 16.252-36.228 36.228v13.513c-4.807-7.559-8.596-16.598-9.35-26.84zm-14.039 211.857 19.748-19.748c2.812-2.812 2.94-7.33.293-10.296l-26.706-29.93 29.753-35.038 35.507 160.687h-12.381z"/><path d="m280.48 51.795c-2.928-2.929-7.677-2.929-10.606 0l-13.872 13.872-13.872-13.872c-2.929-2.929-7.678-2.929-10.606 0-2.929 2.929-2.929 7.678 0 10.606l13.872 13.872-13.872 13.872c-2.929 2.929-2.929 7.678 0 10.606 2.928 2.929 7.677 2.929 10.606 0l13.872-13.872 13.872 13.872c2.929 2.929 7.678 2.929 10.606 0 2.929-2.929 2.929-7.678 0-10.606l-13.872-13.872 13.872-13.872c2.929-2.928 2.929-7.677 0-10.606z"/><path d="m279.13 341.676c3.883-6.196 5.477-12.226 5.646-12.893 1.014-4.005-1.404-8.062-5.405-9.091-4.004-1.028-8.085 1.385-9.129 5.381-.042.159-4.422 15.873-14.241 15.873-9.818 0-14.199-15.714-14.234-15.847-1.018-4.016-5.099-6.445-9.112-5.429-4.015 1.018-6.446 5.097-5.429 9.112.169.667 1.764 6.697 5.646 12.893 5.85 9.335 13.848 14.27 23.129 14.27 9.281.001 17.279-4.933 23.129-14.269z"/><path d="m243.162 263.667h25.678c4.142 0 7.5-3.358 7.5-7.5s-3.358-7.5-7.5-7.5h-25.678c-4.142 0-7.5 3.358-7.5 7.5s3.358 7.5 7.5 7.5z"/></svg>