<svg height="512pt" viewBox="-34 0 512 512.14823" width="512pt" xmlns="http://www.w3.org/2000/svg"><path d="m393.015625 204.789062h24.140625c5.109375-.164062 10.035156 1.914063 13.480469 5.6875 3.449219 3.773438 5.070312 8.867188 4.441406 13.941407l-12.570313 76.796875c-1.613281 8.574218-9.199218 14.714844-17.917968 14.507812h-365.269532c-8.71875.199219-16.300781-5.9375-17.921874-14.507812l-12.578126-76.796875c-.632812-5.074219.988282-10.167969 4.4375-13.945313 3.445313-3.773437 8.375-5.851562 13.484376-5.683594zm0 0" fill="#bfa885"/><path d="m409.664062 102.390625-27.050781 221.183594c.011719.09375-.019531.1875-.082031.253906-5.171875 10.804687-9.066406 22.175781-11.605469 33.878906-4.609375 31.402344-6.230469 66.902344-31.488281 93.867188-16.042969 17.066406-44.460938 26.28125-66.390625 38.484375-14.402344 9.8125-31.675781 14.53125-49.066406 13.398437h-4.265625c-4.011719 0-7.511719-.085937-10.667969-.257812-13.75-.839844-27.015625-5.382813-38.398437-13.140625-22.015626-12.203125-50.261719-21.417969-66.304688-38.484375-25.257812-26.964844-26.878906-62.464844-31.488281-93.867188-2.21875-15.019531-10.753907-27.902343-15.617188-41.984375-.234375-.554687-.4375-1.125-.597656-1.707031-.753906-2.496094-1.382813-5.03125-1.875-7.59375-.257813-1.28125-.511719-2.558594-.683594-3.839844-.097656-.363281-.15625-.734375-.171875-1.109375l-2.558594-99.414062v-.085938c12.542969-24.234375 41.214844-78.25 99.242188-71.507812l233.128906-25.257813zm0 0" fill="#bfa885"/><path d="m383.722656 105.207031-26.707031 218.367188c.011719.09375-.019531.1875-.085937.253906-5.167969 10.804687-9.066407 22.175781-11.605469 33.878906-4.609375 31.402344-6.230469 66.902344-31.488281 93.867188-16.042969 17.066406-44.457032 26.28125-66.390626 38.484375-11.375 7.769531-24.644531 12.3125-38.398437 13.140625-13.75-.839844-27.015625-5.382813-38.398437-13.140625-22.015626-12.203125-50.261719-21.417969-66.304688-38.484375-25.257812-26.964844-26.878906-62.464844-31.488281-93.867188-2.21875-15.019531-10.753907-27.902343-15.617188-41.984375-.234375-.554687-.4375-1.125-.597656-1.707031-.753906-2.496094-1.382813-5.03125-1.875-7.59375-.257813-1.28125-.511719-2.558594-.683594-3.839844-.097656-.363281-.15625-.734375-.171875-1.109375l-2.558594-99.414062v-.085938c12.542969-24.234375 41.214844-78.25 99.242188-71.507812zm0 0" fill="#ffe0b2"/><path d="m150.59375 130.464844c-58.027344-6.742188-86.699219 47.273437-99.242188 71.507812v2.816406h-17.152343c1.148437-6.285156 1.832031-12.644531 2.046875-19.027343 1.453125-17.101563-2.234375-34.246094-10.582032-49.238281-17.066406-25.601563 22.101563-122.539063 93.867188-93.867188 10.410156 4.179688 20.308594 7.851562 29.355469 10.921875zm0 0" fill="#795548"/><path d="m312.042969 133.28125c-15.101563 2.472656-30.292969 8.363281-47.699219 5.289062 16.46875-2.386718 31.488281-8.703124 47.699219-5.289062zm0 0" fill="#795548"/><path d="m409.664062 204.789062h-12.542968c-2.558594-5.121093-5.035156-9.898437-7.507813-14.335937 6.144531-45.140625 36.007813-85.160156-18.089843-139.261719-19.457032-19.457031-36.183594-27.992187-51.882813-30.464844 22.183594-3.15625 44.714844 2.21875 72.957031 30.464844 59.734375 59.730469 17.066406 102.398438 17.066406 153.597656zm0 0" fill="#4e342e"/><g fill="#795548"><path d="m389.613281 190.453125c-31.316406-56.746094-54.445312-60.925781-77.570312-57.171875-16.210938-3.414062-31.230469 2.902344-47.699219 5.289062-2.8125-.449218-5.582031-1.132812-8.277344-2.046874-8.183594-3.128907-17.148437-3.578126-25.601562-1.28125-28.671875 8.535156-34.132813 52.480468-34.132813 52.480468-6.113281-5.027344-11.875-10.472656-17.238281-16.296875-25.855469-27.820312-66.132812-87.125-10.582031-145.664062 5.984375-6.226563 12.429687-11.988281 19.289062-17.238281-1.675781 8.246093.332031 16.8125 5.5 23.457031 5.164063 6.640625 12.972657 10.695312 21.378907 11.101562 8.082031 1.039063 16.277343.894531 24.320312-.425781 31.402344-4.4375 55.890625-18.433594 80.640625-21.929688 15.699219 2.472657 32.425781 11.007813 51.882813 30.464844 54.097656 54.101563 24.234374 94.121094 18.089843 139.261719zm0 0"/><path d="m239 42.65625c-8.042969 1.320312-16.238281 1.464844-24.320312.425781 1.023437-.167969 2.132812-.253906 3.242187-.425781 40.277344-5.71875 68.949219-27.050781 101.71875-21.929688-24.75 3.496094-49.238281 17.492188-80.640625 21.929688zm0 0"/><path d="m256.066406 136.523438c2.695313.914062 5.464844 1.597656 8.277344 2.046874-9.808594 1.707032-19.882812 1.003907-29.355469-2.046874-1.535156-.511719-3.070312-.9375-4.523437-1.28125 8.453125-2.296876 17.417968-1.847657 25.601562 1.28125zm0 0"/></g><path d="m392.597656 273.054688c0 72.707031-43.09375 89.515624-80.210937 83.882812 28.839843-4.863281 54.613281-27.5625 54.613281-83.882812 0-54.867188-21.503906-76.882813-45.738281-82.089844 32.082031-6.144532 71.335937 8.023437 71.335937 82.089844zm0 0" fill="#283593"/><path d="m367 273.054688c0 56.320312-25.773438 79.019531-54.613281 83.882812h-.085938c-14.117187-2-27.546875-7.355469-39.167969-15.613281-34.132812-25.601563-51.199218-25.601563-51.199218-25.601563-4.414063.382813-8.738282 1.480469-12.800782 3.242188-13.796874 5.59375-26.726562 13.121094-38.402343 22.359375-18.800781 13.285156-41.976563 18.871093-64.765625 15.613281h-.085938c-28.84375-4.863281-54.613281-27.5625-54.613281-83.882812 0-54.867188 21.503906-76.882813 45.738281-82.089844 19.988282-3.488282 40.527344 1.523437 56.660156 13.824218 36.269532 29.015626 35.585938 45.652344 55.46875 50.007813 4.210938.855469 8.503907 1.253906 12.800782 1.191406 34.132812 0 25.597656-17.066406 68.265625-51.199219 9.140625-6.957031 19.773437-11.691406 31.0625-13.824218 24.234375 5.207031 45.738281 27.222656 45.738281 82.089844zm0 0" fill="#3f51b5"/><path d="m163.574219 261.339844-58.523438-13.652344c-3.046875-.582031-6.1875.378906-8.382812 2.566406-2.199219 2.1875-3.175781 5.324219-2.609375 8.371094l2.621094 16.496094c2.238281 15.863281 14.304687 28.550781 30.039062 31.574218h.058594c17.257812 2.78125 34.042968-7.132812 39.945312-23.585937l3.351563-8.808594c1.039062-2.570312.917969-5.46875-.324219-7.945312-1.246094-2.480469-3.496094-4.308594-6.175781-5.015625zm0 0" fill="#37474f"/><path d="m280.292969 261.339844 58.519531-13.652344c3.046875-.582031 6.1875.378906 8.386719 2.566406s3.171875 5.324219 2.605469 8.371094l-2.621094 16.496094c-2.234375 15.863281-14.304688 28.550781-30.035156 31.574218h-.0625c-17.253907 2.78125-34.042969-7.132812-39.941407-23.585937l-3.355469-8.808594c-1.035156-2.570312-.917968-5.46875.324219-7.945312 1.246094-2.480469 3.496094-4.308594 6.179688-5.015625zm0 0" fill="#37474f"/><path d="m12.960938 302.582031c2.246093 12.730469 13.433593 21.929688 26.359374 21.675781h12.089844c1.417969 3.472657 2.902344 6.875 4.402344 10.179688 3.988281 7.730469 6.882812 15.980469 8.601562 24.507812.566407 3.882813 1.09375 7.824219 1.613282 11.816407 3.808594 28.613281 8.117187 61.050781 32.09375 86.65625 13.941406 12.730469 30.082031 22.820312 47.632812 29.773437 7.367188 3.472656 14.320313 6.765625 20.753906 10.324219 15.667969 10.527344 34.363282 15.613281 53.207032 14.472656h4.324218c18.835938 1.148438 37.523438-3.949219 53.164063-14.503906 6.46875-3.601563 13.5-6.921875 20.941406-10.429687 17.507813-6.925782 33.613281-16.984376 47.519531-29.679688 23.988282-25.597656 28.289063-58.023438 32.09375-86.65625.523438-3.984375 1.050782-7.925781 1.613282-11.792969 1.652344-8.511719 4.367187-16.785156 8.074218-24.625.964844-2.3125 1.9375-4.632812 2.875-6.972656.488282-.988281.929688-2.066406 1.390626-3.105469h12.886718c12.914063.25 24.089844-8.945312 26.332032-21.667968l12.578124-76.851563c1.117188-7.226563-.996093-14.582031-5.777343-20.121094-4.816407-5.542969-11.699219-8.867187-19.035157-9.199219 1.316407-11.277343 3.554688-22.429687 6.6875-33.347656 8.800782-33.9375 18.773438-72.40625-26.742187-117.914062-46.882813-46.839844-81.136719-35.085938-117.359375-22.664063-14.09375 5.316407-28.667969 9.25-43.519531 11.75-17.742188 2.5625-30.5.417969-36.8125-6.144531-4.058594-4.992188-5.800781-11.476562-4.789063-17.832031.710938-3.488281-.824218-7.050781-3.84375-8.9375-3.019531-1.882813-6.890625-1.695313-9.714844.472656-15.1875 11.15625-28.039062 25.183594-37.835937 41.285156-7.132813-2.5625-14.507813-5.265625-22.066406-8.320312-30.652344-13.179688-66.34375-3.359375-85.941407 23.644531-21.484374 26.453125-29.992187 65.21875-18.21875 82.882812 7.4375 13.46875 10.628907 28.867188 9.15625 44.179688-.160156 4.195312-.503906 7.882812-.851562 10.820312h-.121094c-7.902344-.039062-15.425781 3.394532-20.582031 9.386719-4.789063 5.546875-6.898437 12.921875-5.769531 20.164063zm132.171874-163.875c11.574219 21.359375 27.167969 40.277344 45.917969 55.722657.398438.292968.824219.542968 1.269531.75.136719.078124.25.164062.394532.230468 1.046875.484375 2.183594.746094 3.335937.769532.085938 0 .160157.058593.246094.058593s.222656-.050781.34375-.050781c.644531-.027344 1.28125-.128906 1.902344-.304688.1875 0 .367187-.078124.546875-.136718.179687-.0625.324218-.070313.484375-.128906 1.636719-.699219 3.011719-1.894532 3.933593-3.414063.078126-.121094.136719-.238281.207032-.359375.554687-.941406.917968-1.980469 1.074218-3.0625 1.082032-8.6875 7.140626-33.28125 21.9375-42.582031 8.136719-4.683594 18-5.265625 26.632813-1.578125 15.597656 4.542968 32.195313 4.328125 47.667969-.621094 25.269531-5.914062 45.390625-10.402344 81.605468 60.132812-5.484374-7.199218-12.582031-13.007812-20.71875-16.964843-25.984374-12.484375-58.429687-3.933594-77.058593 10.957031-12.527344 9.933594-23.855469 21.296875-33.757813 33.851562-9.699218 11.894532-12.628906 15.480469-29.164062 15.480469-16.539063 0-19.464844-3.585937-29.175782-15.480469-9.898437-12.554687-21.230468-23.917968-33.757812-33.851562-18.644531-14.898438-51.074219-23.441406-77.058594-10.957031-8.863281 4.332031-16.480468 10.839843-22.140625 18.917969v-1.894532c11.449219-22.015625 36.785157-68.179687 85.332031-65.484375zm-85.332031 134.347657c0-36.835938 10.238281-61.214844 29.53125-70.5 20.625-9.917969 46.933594-.769532 59 8.898437 11.59375 9.175781 22.066407 19.6875 31.199219 31.320313 10.699219 13.097656 17.765625 21.75 42.402344 21.75 24.632812 0 31.699218-8.652344 42.402344-21.75 9.128906-11.632813 19.601562-22.144532 31.195312-31.320313 12.085938-9.667969 38.351562-18.824219 59-8.898437 19.292969 9.285156 29.535156 33.664062 29.535156 70.5.242188 13.15625-1.761718 26.253906-5.921875 38.734374-.273437.542969-.480469 1.117188-.625 1.707032-4.308593 12.929687-13.425781 23.707031-25.460937 30.105468-23.1875 11.578126-55.722656 4.488282-73.804688-9.070312-35.390625-26.574219-54.28125-27.339844-56.320312-27.339844-2.039063 0-20.933594.765625-56.320313 27.304688-18.082031 13.566406-50.644531 20.660156-73.804687 9.070312-20.917969-10.460937-32.007813-34.847656-32.007813-70.511718zm273.414063 172.671874c-12.507813 11.035157-26.84375 19.808594-42.359375 25.925782-7.363281 3.472656-14.992188 7.074218-21.964844 10.957031-13.140625 9.078125-28.976563 13.421875-44.910156 12.3125h-4.207031c-15.960938 1.148437-31.835938-3.199219-44.988282-12.320313-6.921875-3.839843-14.453125-7.398437-21.734375-10.847656-15.566406-6.136718-29.945312-14.941406-42.488281-26.015625-20.230469-21.597656-23.976562-49.878906-27.605469-77.21875-.503906-3.765625-1.003906-7.484375-1.535156-11.171875.921875.523438 1.84375 1.035156 2.75 1.484375 30.179687 15.097657 69.757813 5.761719 91.679687-10.683593 28.691407-21.519532 44.167969-23.6875 46.082032-23.890626 1.910156.195313 17.390625 2.363282 46.078125 23.890626 16.785156 11.871093 36.828125 18.261718 57.386719 18.296874 11.867187.160157 23.609374-2.445312 34.296874-7.613281.851563-.433593 1.765626-.9375 2.660157-1.433593-.535157 3.664062-1.03125 7.367187-1.535157 11.09375-3.617187 27.367187-7.371093 55.648437-27.605468 77.234374zm93.421875-222.71875-12.558594 76.800782c-.984375 4.410156-4.972656 7.496094-9.488281 7.339844h-7.144532c2.5625-11.179688 3.796876-22.625 3.6875-34.09375 0-5.65625-.273437-10.886719-.691406-15.871094.851563-12.707032.769532-18.773438.648438-30.71875 0-3.660156-.078125-7.988282-.101563-13.175782h16.210938c2.910156-.03125 5.6875 1.21875 7.597656 3.414063 1.511719 1.738281 2.183594 4.050781 1.839844 6.332031zm-246.074219-197.195312c1.511719 5.1875 4.226562 9.945312 7.925781 13.882812 10.402344 10.984376 27.796875 14.832032 51.722657 11.410157 15.890624-2.660157 31.488281-6.847657 46.574218-12.503907 35.097656-12.023437 60.441406-20.691406 99.78125 18.621094 38.605469 38.613282 31.042969 67.78125 22.28125 101.546875-3.503906 12.261719-5.925781 24.804688-7.238281 37.488281h-3.8125c-29.789063-57.925781-52.710937-72.246093-76.886719-72.246093-8.027344.210937-16.003906 1.34375-23.773437 3.371093-12.410157 4.164063-25.78125 4.527344-38.398438 1.042969-13.476562-5.371093-28.691406-4.136719-41.125 3.335938-10.617187 7.457031-18.664062 18.019531-23.039062 30.234375-5.925781-24.582032-5.40625-50.277344 1.503906-74.597656 1.105469-4.558594-1.671875-9.152344-6.21875-10.292969-4.550781-1.140625-9.164063 1.605469-10.335937 6.144531-6.242188 22.957031-7.691407 46.953125-4.269532 70.492188-15.683594-18.238282-24.878906-41.164063-26.144531-65.183594.171875-22.273438 10.734375-43.34375 31.453125-62.746094zm-130.527344 43.296875c14.824219-21.246094 42.617188-29.023437 66.3125-18.550781 7.304688 2.933594 14.378906 5.570312 21.335938 8.054687-3.574219 9.574219-5.457032 19.691407-5.566406 29.910157.035156 11.226562 1.964843 22.371093 5.710937 32.957031-51.984375 1.703125-79.589844 49.046875-91.820313 72.328125-.796874.691406-1.460937 1.523437-1.96875 2.449218.304688-2.953124.585938-6.375.734376-10.242187 1.734374-18.898437-2.460938-37.867187-12.007813-54.269531-6.09375-9.097656-1.527344-39.441406 17.269531-62.636719zm-30.921875 147.628906c1.914063-2.199219 4.695313-3.449219 7.609375-3.414062h16.007813c0 17.140625.164062 20.734375.566406 31.425781l.355469 9.386719c-.628906 6.289062-.933594 12.601562-.921875 18.917969-.0625 10.101562.886719 20.179687 2.835937 30.089843.050782.308594.058594.71875.117188.972657.136718 1.023437.351562 2.046874.554687 3.074218h-6.917969c-4.535156.167969-8.539062-2.929687-9.515624-7.355468l-12.570313-76.742188c-.339844-2.292969.347656-4.617188 1.878906-6.355469zm0 0"/><path d="m293.542969 84.640625c2.152343-.914063 52.71875-21.71875 74.351562 21.5625 2.105469 4.21875 7.234375 5.929687 11.453125 3.824219 4.21875-2.105469 5.929688-7.234375 3.820313-11.453125-23.105469-46.191407-73.128907-39.578125-96.332031-29.625-4.292969 1.875-6.265626 6.863281-4.425782 11.171875 1.839844 4.304687 6.8125 6.324218 11.132813 4.519531zm0 0"/><path d="m59.800781 119.457031c4.710938 0 8.53125-3.820312 8.53125-8.535156 0-1.390625.394531-34.132813 34.132813-34.132813 4.714844 0 8.535156-3.820312 8.535156-8.53125 0-4.714843-3.820312-8.535156-8.535156-8.535156-13.730469-.519531-27.058594 4.707032-36.777344 14.421875-9.714844 9.71875-14.941406 23.046875-14.421875 36.777344 0 2.265625.898437 4.433594 2.5 6.035156 1.601563 1.601563 3.769531 2.5 6.035156 2.5zm0 0"/><path d="m221.933594 383.988281c27 0 34.132812-16.742187 34.132812-25.597656-.015625-4.578125-3.691406-8.300781-8.269531-8.371094h-.265625c-4.53125.0625-8.25 3.605469-8.53125 8.132813-.101562 1.464844-1.367188 8.777344-17.066406 8.777344-15.582032 0-16.957032-7.199219-17.066406-8.734376-.054688-4.714843-3.921876-8.492187-8.632813-8.4375-4.714844.054688-8.488281 3.917969-8.433594 8.632813 0 8.855469 7.132813 25.597656 34.132813 25.597656zm0 0"/><path d="m264.597656 409.589844h-85.332031c-4.710937 0-8.535156 3.820312-8.535156 8.535156 0 4.710938 3.824219 8.53125 8.535156 8.53125h85.332031c4.714844 0 8.535156-3.820312 8.535156-8.53125 0-4.714844-3.820312-8.535156-8.535156-8.535156zm0 0"/><path d="m125.308594 315.066406c2.4375.429688 4.90625.648438 7.382812.648438 18.773438-.230469 35.46875-12 42-29.601563l3.355469-8.808593c1.90625-4.992188 1.5625-10.570313-.949219-15.289063-2.382812-4.527344-6.605468-7.800781-11.578125-8.988281l-58.523437-13.652344c-5.644532-1.3125-11.570313.289062-15.785156 4.265625-4.46875 4.183594-6.5625 10.316406-5.582032 16.359375l2.628906 16.488281c2.839844 19.453125 17.726563 34.953125 37.050782 38.578125zm-22.195313-59.078125 58.523438 13.65625 1.9375-8.3125-1.546875 8.695313c.199218.363281.226562.800781.070312 1.1875l-3.3125 8.820312c-4.421875 12.675782-17.296875 20.355469-30.546875 18.21875-12.125-2.40625-21.386719-12.230468-23.085937-24.472656l-2.6875-16.476562c-.117188-.535157.152344-1.082032.648437-1.316407zm0 0"/><path d="m269.171875 286.113281c6.535156 17.613281 23.242187 29.382813 42.027344 29.609375 2.484375 0 4.960937-.21875 7.40625-.648437 19.316406-3.640625 34.179687-19.152344 37-38.605469l2.628906-16.503906c.980469-6.035156-1.113281-12.164063-5.578125-16.339844-4.21875-3.972656-10.144531-5.574219-15.789062-4.265625l-58.519532 13.652344c-4.976562 1.183593-9.199218 4.460937-11.582031 8.984375-2.511719 4.722656-2.855469 10.296875-.945313 15.292968zm12.664063-16.078125c.070312-.175781.214843-.316406.394531-.382812l58.800781-13.535156c.308594.304687.441406.746093.351562 1.167968l-2.628906 16.496094c-1.699218 12.261719-10.988281 22.089844-23.132812 24.484375-13.246094 2.128906-26.109375-5.5625-30.5-18.238281l-3.351563-8.796875c-.15625-.390625-.132812-.828125.066407-1.195313zm0 0"/><path d="m230.464844 443.722656h-17.066406c-4.710938 0-8.53125 3.820313-8.53125 8.535156 0 4.710938 3.820312 8.53125 8.53125 8.53125h17.066406c4.714844 0 8.535156-3.820312 8.535156-8.53125 0-4.714843-3.820312-8.535156-8.535156-8.535156zm0 0"/></svg>