<svg id="Capa_1" enable-background="new 0 0 512 512" height="512" viewBox="0 0 512 512" width="512" xmlns="http://www.w3.org/2000/svg"><path d="m425.22 200.495h-43.798l18.955-64.096-51.88 37.519c.291 7.968-2.394 15.871-7.704 22.066l-7.758 9.051-2.389 104.715c-.299 13.118-5.662 25.426-14.68 34.531l109.254-88.281h-45.363z" fill="#eab1b7"/><path d="m86.78 200.495h43.798l-18.955-64.096 51.88 37.519c-.291 7.968 2.394 15.871 7.704 22.066l7.758 9.051 2.389 104.715c.299 13.118 5.662 25.426 14.68 34.531l-109.254-88.281h45.363z" fill="#eab1b7"/><path d="m347.271 166.228-21.429-74.574-.001-16.229h-41.201v16.229c0 10.733-8.701 19.434-19.434 19.434h-18.414c-10.733 0-19.434-8.701-19.434-19.434v-16.229h-41.201v16.229l-21.429 74.574c-2.982 10.377-.547 21.557 6.479 29.754l7.758 9.051 2.389 104.715c.395 17.312 9.595 33.226 24.4 42.208 0 3.269-.863 6.481-2.502 9.31l-8.552 14.761c-3.843 6.633-2.745 15.022 2.676 20.442l34.577 34.577c13.28 13.28 34.812 13.28 48.092 0l34.577-34.577c5.421-5.421 6.519-13.809 2.676-20.442l-8.552-14.761c-1.639-2.829-2.502-6.04-2.502-9.31 14.805-8.982 24.005-24.896 24.4-42.208l2.389-104.715 7.758-9.051c7.027-8.197 9.462-19.377 6.48-29.754z" fill="#e28086"/><path d="m347.271 166.228-21.429-74.574-.001-16.229h-38.916l20.345 70.803c2.982 10.377.547 21.557-6.479 29.754-5.017 5.853-7.854 13.261-8.03 20.968l-2.117 92.797c-.349 15.301-7.576 29.511-19.473 38.807-3.831 2.993-4.971 8.29-2.545 12.503l8.672 14.969c3.843 6.633 2.745 15.022-2.676 20.442l-34.577 34.577c-5.243 5.243-11.773 8.416-18.573 9.519l10.481 10.481c13.28 13.28 34.812 13.28 48.092 0l34.577-34.577c5.421-5.421 6.519-13.809 2.676-20.442l-8.552-14.761c-1.639-2.829-2.502-6.04-2.502-9.31 14.805-8.982 24.005-24.896 24.4-42.208l2.389-104.715 7.758-9.051c7.027-8.196 9.462-19.376 6.48-29.753z" fill="#dd636e"/><path d="m305.241 7.5c5.606 0 10.327 4.192 10.99 9.759l6.927 58.166h-35.834l6.927-58.166c.663-5.567 5.384-9.759 10.99-9.759z" fill="#f1f1f4"/><path d="m206.758 7.5c-5.606 0-10.327 4.192-10.99 9.759l-6.927 58.166h35.834l-6.927-58.166c-.662-5.567-5.383-9.759-10.99-9.759z" fill="#f1f1f4"/><path d="m384.373 457.167c-16.809-5.305-29.174-19.657-31.994-37.056l-15.081-93.063-21.332 17.239c-2.883 2.911-6.134 5.493-9.72 7.669 0 3.269.863 6.481 2.502 9.31l8.552 14.761c3.843 6.633 2.745 15.022-2.676 20.442l-34.577 34.577c-13.28 13.28-34.812 13.28-48.092 0l-34.577-34.577c-5.421-5.421-6.519-13.809-2.676-20.442l8.552-14.761c1.639-2.829 2.502-6.04 2.502-9.31-3.589-2.177-6.841-4.769-9.725-7.682.002.002.003.004.005.005l-21.333-17.23-15.081 93.063c-2.82 17.399-15.185 31.751-31.994 37.056-24.232 7.648-45.058 24.381-57.638 47.332h372.022c-12.581-22.952-33.406-39.684-57.639-47.333z" fill="#da4a54"/><path d="m384.373 457.167c-16.809-5.305-29.174-19.656-31.994-37.056l-15.081-93.063-21.332 17.239c-2.883 2.911-6.134 5.493-9.72 7.669 0 3.269.863 6.481 2.502 9.31l8.552 14.761c3.843 6.633 2.745 15.022-2.676 20.442l-2.439 2.439.195 1.203c2.82 17.4 15.185 31.751 31.994 37.056.461.145.92.294 1.378.446 25.807 8.558 19.307 46.887-7.882 46.887h-253.457c-5.544 5.97-10.405 12.667-14.424 20h372.022c-12.58-22.952-33.405-39.684-57.638-47.333z" fill="#d82e3d"/><path d="m442.46 355.141 1.771-1.771c18.047-18.047 26.759-43.411 23.61-68.738l-2.047-16.465-118.788 118.789 5.373 33.155c2.82 17.4 15.185 31.751 31.994 37.056 24.233 7.648 45.058 24.381 57.638 47.333h62.489v-87.319z" fill="#e28086"/><path d="m442.46 355.141 1.771-1.771c18.047-18.047 26.759-43.411 23.61-68.738l-2.047-16.465-65.154 65.154 45.775 45.775c11.579 11.579 18.084 27.284 18.084 43.659v43.058c0 10.32-8.366 18.686-18.686 18.686h-18.227c5.544 5.97 10.405 12.667 14.424 20h62.49v-87.319z" fill="#dd636e"/><path d="m69.54 355.141-1.771-1.771c-18.047-18.047-26.759-43.411-23.61-68.738l2.047-16.465 118.788 118.788-5.373 33.155c-2.82 17.4-15.185 31.751-31.994 37.056-24.233 7.648-45.058 24.381-57.638 47.333h-62.489v-87.319z" fill="#e28086"/><path d="m144.209 366.172-98.004-98.004s-2.153 17.354-2.201 17.799l70.232 70.232c6.755 6.755 9.852 16.345 8.324 25.775l-2.939 18.138c-2.82 17.4-15.185 31.751-31.994 37.056-18.657 5.888-35.294 17.161-47.703 32.512-7.521 9.302-18.753 14.82-30.716 14.82h-1.708v20h62.489c12.58-22.952 33.405-39.684 57.638-47.333 16.809-5.305 29.174-19.656 31.994-37.056l5.373-33.155z" fill="#dd636e"/><path d="m243.844 238.586c-1.318-19.03-9.472-36.938-22.96-50.426l-19.546-19.546c-2.928-2.929-7.677-2.929-10.606 0s-2.929 7.677 0 10.606l19.546 19.546c10.928 10.928 17.535 25.438 18.603 40.856l.945 13.652c.274 3.956 3.568 6.982 7.474 6.982 4.356 0 7.79-3.684 7.49-8.019z"/><path d="m321.269 179.22c2.929-2.929 2.929-7.678 0-10.606-2.929-2.929-7.678-2.929-10.606 0l-19.546 19.546c-13.488 13.488-21.643 31.396-22.96 50.426l-.945 13.652c-.286 4.132 2.832 7.714 6.964 8 4.159.287 7.716-2.857 8-6.964l.945-13.652c1.068-15.418 7.675-29.928 18.603-40.856z"/><path d="m278.182 401.194 11.94-11.94c2.929-2.929 2.929-7.677 0-10.606-2.928-2.929-7.677-2.929-10.606 0l-11.94 11.94c-2.929 2.929-2.929 7.677 0 10.606 2.927 2.929 7.677 2.93 10.606 0z"/><path d="m233.817 401.194c2.929 2.929 7.678 2.929 10.606 0 2.929-2.929 2.929-7.678 0-10.606l-11.94-11.94c-2.929-2.929-7.678-2.929-10.606 0-2.929 2.929-2.929 7.678 0 10.606z"/><path d="m248.989 361.268c1.106 2.911 3.896 4.835 7.01 4.835s5.904-1.924 7.01-4.835l1.108-2.916c2.625-6.903 8.439-12.206 15.553-14.185 3.991-1.11 6.326-5.245 5.215-9.236s-5.244-6.326-9.236-5.215c-7.814 2.174-14.674 6.789-19.651 12.997-4.977-6.208-11.836-10.823-19.651-12.997-3.991-1.11-8.126 1.225-9.236 5.215-1.11 3.991 1.225 8.125 5.215 9.236 7.115 1.979 12.929 7.282 15.553 14.185z"/><path d="m227.113 294.183c-1.11 3.991 1.225 8.126 5.215 9.236 7.114 1.979 12.929 7.283 15.553 14.186l1.108 2.916c1.106 2.911 3.896 4.835 7.01 4.835s5.904-1.924 7.01-4.835l1.108-2.916c2.625-6.903 8.439-12.206 15.554-14.186 3.99-1.11 6.325-5.246 5.215-9.236s-5.243-6.327-9.236-5.215c-7.814 2.174-14.673 6.789-19.651 12.998-4.977-6.209-11.836-10.824-19.65-12.998-3.991-1.109-8.125 1.225-9.236 5.215z"/><path d="m256 162.137c4.142 0 7.5-3.358 7.5-7.5v-13.351c0-4.142-3.358-7.5-7.5-7.5s-7.5 3.358-7.5 7.5v13.351c0 4.142 3.358 7.5 7.5 7.5z"/><path d="m248.5 191.506c0 4.142 3.358 7.5 7.5 7.5s7.5-3.358 7.5-7.5v-13.351c0-4.142-3.358-7.5-7.5-7.5s-7.5 3.358-7.5 7.5z"/><path d="m452.971 355.046c17.46-19.458 25.565-45.18 22.313-71.339l-2.047-16.465c-.769-6.187-8.34-8.784-12.746-4.378l-72.333 72.333c-2.929 2.929-2.929 7.677 0 10.606s7.678 2.929 10.606 0l61.481-61.48.153 1.234c2.884 23.197-4.941 45.98-21.471 62.509-3.367 3.367-9.882 9.882-13.243 13.243-2.929 2.929-2.929 7.678 0 10.606 2.929 2.929 7.678 2.929 10.606 0l6.169-6.169 54.54 54.54v76.714h-50.652c-13.534-22.451-34.584-39.053-59.717-46.985-6.824-2.154-12.747-6.032-17.321-11.117l12.517-12.517 17.545 17.545c2.929 2.929 7.678 2.929 10.606 0 2.929-2.929 2.929-7.678 0-10.606l-17.545-17.545 12.312-12.312 59.924 59.924c2.928 2.929 7.677 2.929 10.606 0s2.929-7.678 0-10.606l-65.227-65.228c-2.926-2.927-7.678-2.929-10.606 0l-37.992 37.993c-1.489-4.311-1.236-3.976-6.426-36l18.07-18.07c2.929-2.929 2.929-7.678 0-10.606-2.929-2.929-7.678-2.929-10.606 0l-10.422 10.422-6.668-41.145 84.536-68.313c2.472-1.998 3.417-5.337 2.357-8.333-1.06-2.997-3.893-5-7.071-5h-29.547l35.354-43.259c3.997-4.89.505-12.246-5.807-12.246h-33.758l16.107-54.469c.91-3.078-.239-6.394-2.858-8.248-2.618-1.853-6.127-1.837-8.729.044l-42.411 30.671-1.399-4.867c-1.144-3.981-5.297-6.28-9.28-5.137-3.981 1.144-6.281 5.299-5.137 9.28 2.837 9.873 2.913 9.449 3.262 14.205.158 6.013-1.898 11.937-5.919 16.629l-7.757 9.05c-1.127 1.314-1.764 2.979-1.804 4.71-1.446 63.368-1.561 68.389-2.39 104.715-.22 9.645-3.586 18.705-9.402 25.978v-52.677c0-4.142-3.358-7.5-7.5-7.5s-7.5 3.358-7.5 7.5v69.078c0 4.584 1.215 9.104 3.513 13.07l8.552 14.761c2.136 3.687 1.523 8.366-1.49 11.379l-34.577 34.577c-10.335 10.335-27.151 10.334-37.486 0l-34.577-34.577c-3.013-3.013-3.625-7.692-1.489-11.379l8.552-14.761c2.298-3.967 3.512-8.486 3.512-13.069v-69.078c0-4.142-3.358-7.5-7.5-7.5s-7.5 3.358-7.5 7.5v52.677c-5.816-7.273-9.182-16.333-9.402-25.978l-2.389-104.715c-.04-1.731-.677-3.396-1.804-4.71l-7.758-9.05c-5.41-6.312-7.253-14.842-4.965-22.802 23.278-81.007 21.721-75.058 21.721-76.646v-8.729h26.201v8.729c0 14.851 12.083 26.934 26.934 26.934h1.752c.408 3.757 3.59 6.681 7.455 6.681s7.047-2.924 7.455-6.681h1.751c14.852 0 26.934-12.083 26.934-26.934v-8.729h26.201v8.729c0 1.508-.46-.543 9.707 34.837l14.417-4.143-9.125-31.751v-15.175c0-2.619-1.343-4.924-3.377-6.266l-6.286-52.788c-1.109-9.332-9.035-16.371-18.435-16.371s-17.327 7.039-18.438 16.373l-6.286 52.787c-2.034 1.341-3.377 3.646-3.377 6.265v16.229c0 6.58-5.354 11.934-11.934 11.934h-1.752c-.413-3.752-3.592-6.67-7.454-6.67s-7.041 2.919-7.454 6.67h-1.753c-6.581 0-11.934-5.354-11.934-11.934v-16.229c0-2.619-1.343-4.924-3.377-6.265l-6.286-52.788c-1.112-9.333-9.038-16.372-18.438-16.372s-17.326 7.039-18.438 16.373l-6.286 52.787c-2.034 1.341-3.377 3.646-3.377 6.266v15.173l-20.228 70.394-42.412-30.671c-2.601-1.881-6.11-1.898-8.729-.044s-3.768 5.17-2.858 8.248l16.107 54.469h-33.757c-6.316 0-9.802 7.359-5.807 12.246l35.354 43.259h-29.547c-3.178 0-6.012 2.003-7.071 5s-.115 6.335 2.357 8.333l39.854 32.206c3.242 2.621 7.961 2.081 10.547-1.12 2.604-3.222 2.102-7.944-1.12-10.547l-23.353-18.872h24.148c6.316 0 9.802-7.359 5.807-12.246l-35.354-43.259h27.982c5.005 0 8.613-4.822 7.192-9.627l-12.716-43.001 31.007 22.423c1.18 17.474 12.555 25.848 15.469 30.092l.406 17.799-16.165-11.346c-3.389-2.38-8.067-1.561-10.447 1.83-2.38 3.39-1.561 8.068 1.83 10.447l25.208 17.693.399 17.481-6.001-4.212c-3.389-2.38-8.067-1.561-10.447 1.83-2.38 3.39-1.561 8.068 1.83 10.447l15.044 10.559c.727 31.867.577 31.977 1.295 36.816l-15.226-12.304c-3.222-2.604-7.943-2.104-10.547 1.12-2.604 3.222-2.102 7.944 1.12 10.547l16.777 13.557-6.668 41.144-108.428-108.425c-4.405-4.406-11.977-1.811-12.746 4.378l-2.047 16.465c-3.251 26.159 4.854 51.881 22.313 71.339l-56.832 56.831c-1.407 1.406-2.197 3.314-2.197 5.303v87.319c0 4.142 3.358 7.5 7.5 7.5h497c4.142 0 7.5-3.358 7.5-7.5v-87.319c0-1.989-.79-3.897-2.197-5.303zm-151.273-336.9c.213-1.793 1.737-3.146 3.543-3.146s3.329 1.353 3.543 3.146l5.927 49.779h-18.941zm-98.483 0c.214-1.794 1.737-3.146 3.543-3.146s3.329 1.353 3.543 3.146l5.928 49.779h-18.941zm152.725 159.644 31.007-22.423-12.716 43.001c-1.419 4.8 2.181 9.627 7.192 9.627h27.982l-35.354 43.259c-3.997 4.89-.505 12.246 5.807 12.246h24.149l-66.484 53.725c.719-4.85.563-4.754 1.295-36.816l15.043-10.559c3.391-2.379 4.21-7.057 1.83-10.447-2.379-3.391-7.058-4.209-10.447-1.83l-6.001 4.212.399-17.482 25.207-17.692c3.391-2.379 4.21-7.057 1.83-10.447-2.378-3.39-7.057-4.209-10.447-1.83l-16.164 11.346.406-17.798c2.999-4.372 14.296-12.751 15.466-30.092zm-290.287 319.21h-50.653v-76.712l54.54-54.54 6.169 6.169c2.929 2.929 7.678 2.929 10.606 0 2.929-2.929 2.929-7.678 0-10.606-3.361-3.361-9.876-9.876-13.243-13.243-16.529-16.529-24.354-39.313-21.471-62.509l.153-1.234 105.221 105.221c-5.129 31.653-4.94 31.696-6.426 36l-37.992-37.993c-2.926-2.927-7.678-2.929-10.606 0l-65.227 65.227c-2.929 2.929-2.929 7.678 0 10.606 2.929 2.929 7.678 2.929 10.606 0l59.924-59.924 12.312 12.312-17.545 17.545c-2.929 2.929-2.929 7.678 0 10.606 2.929 2.929 7.678 2.929 10.606 0l17.545-17.545 12.517 12.517c-4.574 5.085-10.497 8.964-17.321 11.117-25.132 7.934-46.182 24.535-59.715 46.986zm241.811 0 21.721-40.518c1.958-3.65.584-8.196-3.066-10.153-3.649-1.957-8.197-.585-10.153 3.066l-25.522 47.605c-22.98 0-45.928 0-68.889 0l-25.521-47.604c-1.957-3.651-6.504-5.026-10.153-3.066-3.651 1.957-5.024 6.503-3.066 10.153l21.721 40.517h-120.823c11.527-15.393 27.545-26.802 46.17-32.68 19.613-6.19 33.844-22.67 37.14-43.009 18.003-111.095 7.977-49.227 13.014-80.307.102.086 17.51 14.48 17.614 14.556-.486 1.412-.269.876-9.44 16.708-5.539 9.56-3.951 21.693 3.862 29.505l34.577 34.577c16.182 16.182 42.515 16.184 58.699 0l34.577-34.577c7.813-7.813 9.401-19.946 3.862-29.505-9.172-15.831-8.952-15.289-9.44-16.708.1-.073.042.236 17.613-14.556 5.326 32.866-5.136-31.691 13.015 80.308 3.295 20.338 17.526 36.818 37.14 43.009 18.625 5.878 34.644 17.287 46.171 32.68h-120.823z"/></svg>