<svg id="Capa_1" enable-background="new 0 0 512 512" height="512" viewBox="0 0 512 512" width="512" xmlns="http://www.w3.org/2000/svg"><path d="m336.37 310.206h52.422v194.294h-265.584v-194.294h52.421l39.299 39.299h86.072z" fill="#f1f1f4"/><path d="m348.792 310.206v142.223c0 17.712-14.358 32.071-32.071 32.071h-193.513v20h265.585v-194.294z" fill="#dfdde2"/><path d="m123.208 398.743h-59.128c-8.362 0-15.141 6.779-15.141 15.141v21.236h74.268v-36.377z" fill="#8993da"/><path d="m48.939 435.12h74.268v69.38h-74.268z" fill="#f1f1f4"/><path d="m388.792 398.743h59.127c8.362 0 15.141 6.779 15.141 15.141v21.236h-74.268z" fill="#8993da"/><path d="m388.792 435.12h74.268v69.38h-74.268z" fill="#f1f1f4"/><path d="m213.409 215.707c-38.241 0-69.353-31.112-69.353-69.354s31.111-69.353 69.353-69.353h85.183c38.241 0 69.353 31.112 69.353 69.354s-31.112 69.354-69.353 69.354h-85.183z" fill="#a2aae2"/><path d="m298.591 185.707h-85.182c-21.734 0-39.353-17.619-39.353-39.353s17.619-39.354 39.353-39.354h85.182c21.734 0 39.353 17.619 39.353 39.353s-17.619 39.354-39.353 39.354z" fill="#d3effb"/><path d="m298.591 107h-5.727c3.234 5.715 5.081 12.318 5.081 19.353 0 21.734-17.619 39.353-39.353 39.353h-79.455c6.757 11.941 19.574 20 34.273 20h85.182c21.734 0 39.353-17.619 39.353-39.353s-17.62-39.353-39.354-39.353z" fill="#b1e4f9"/><path d="m378.964 121.198h-15.74c3.047 7.802 4.72 16.287 4.72 25.155s-1.673 17.353-4.72 25.155v14.198h15.74c11.286 0 20.436-9.149 20.436-20.436v-23.637c-.001-11.286-9.15-20.435-20.436-20.435z" fill="#8993da"/><path d="m144.056 146.353c0-8.868 1.673-17.353 4.72-25.155h-15.74c-11.286 0-20.436 9.149-20.436 20.436v23.637c0 11.286 9.149 20.436 20.436 20.436h15.74v-14.198c-3.047-7.803-4.72-16.288-4.72-25.156z" fill="#8993da"/><path d="m148.776 114.724v6.474c10.093-25.843 35.26-44.198 64.633-44.198l-29.13-41.982c-21.798 19.626-35.503 48.065-35.503 79.706z" fill="#f1f1f4"/><path d="m298.591 77 29.13-41.982c-18.998-17.107-44.143-27.518-71.721-27.518s-52.724 10.411-71.722 27.518l29.131 41.982z" fill="#8993da"/><path d="m363.224 114.724v6.474c-10.093-25.843-35.26-44.198-64.633-44.198l29.13-41.982c21.798 19.626 35.503 48.065 35.503 79.706z" fill="#f1f1f4"/><path d="m298.591 215.707h-85.183c-29.373 0-54.54-18.355-64.633-44.198v6.474c0 59.218 48.006 107.224 107.224 107.224s107.224-48.006 107.224-107.224v-6.474c-10.092 25.842-35.259 44.198-64.632 44.198z" fill="#f1f1f4"/><path d="m306.674 215.238c-19.002 30.029-52.509 49.968-90.673 49.968-9.274 0-18.274-1.178-26.857-3.391 18.332 14.639 41.572 23.391 66.857 23.391 59.218 0 107.224-48.006 107.224-107.224v-6.474c-9.155 23.438-30.707 40.717-56.551 43.73z" fill="#dfdde2"/><path d="m256 285.206c-13.873 0-27.13-2.635-39.299-7.43v71.729h78.598v-71.729c-12.169 4.796-25.426 7.43-39.299 7.43z" fill="#a298a5"/><path d="m123.208 321.922c-7.888-7.273-18.425-11.716-30-11.716-24.449 0-44.268 19.82-44.268 44.268 0 24.449 19.82 44.268 44.268 44.268 11.575 0 22.112-4.443 30-11.716z" fill="#a298a5"/><path d="m418.793 310.206c-11.575 0-22.112 4.443-30 11.716v65.104c7.888 7.273 18.425 11.716 30 11.716 24.449 0 44.268-19.82 44.268-44.268s-19.82-44.268-44.268-44.268z" fill="#a298a5"/><circle cx="256" cy="453.42" fill="#d3effb" r="51.08"/><path d="m256.542 402.344c6.609 8.609 10.538 19.384 10.538 31.077 0 28.211-22.869 51.08-51.08 51.08-.181 0-.361-.001-.542-.003 9.337 12.161 24.024 20.002 40.542 20.002 28.21 0 51.08-22.869 51.08-51.08 0-28.029-22.577-50.786-50.538-51.076z" fill="#b1e4f9"/><circle cx="340.304" cy="387.026" fill="#8993da" r="17.392"/><path d="m348.792 371.843v30.366c5.313-2.976 8.903-8.66 8.903-15.183s-3.59-12.207-8.903-15.183z" fill="#707dd3"/><g fill="#8993da"><circle cx="171.696" cy="387.026" r="17.392"/><path d="m425.353 367.217h-36.561v-25.485h36.561c7.037 0 12.742 5.705 12.742 12.742 0 7.038-5.705 12.743-12.742 12.743z"/><path d="m86.647 367.217h36.561v-25.485h-36.561c-7.037 0-12.742 5.705-12.742 12.742 0 7.038 5.705 12.743 12.742 12.743z"/></g><path d="m298.591 99.5h-5.205c-4.142 0-7.5 3.358-7.5 7.5s3.358 7.5 7.5 7.5h5.205c17.564 0 31.853 14.29 31.853 31.854s-14.289 31.854-31.853 31.854h-85.183c-17.564 0-31.853-14.29-31.853-31.854s14.289-31.854 31.853-31.854h44.978c4.142 0 7.5-3.358 7.5-7.5s-3.358-7.5-7.5-7.5h-44.978c-25.835 0-46.853 21.019-46.853 46.854s21.018 46.854 46.853 46.854h85.183c25.835 0 46.853-21.019 46.853-46.854s-21.018-46.854-46.853-46.854z"/><path d="m272.471 254.141c4.142 0 7.5-3.358 7.5-7.5s-3.358-7.5-7.5-7.5h-32.941c-4.142 0-7.5 3.358-7.5 7.5s3.358 7.5 7.5 7.5z"/><circle cx="256" cy="43.852" r="7.5"/><path d="m470.561 354.475c0-28.545-23.223-51.769-51.768-51.769-8.006 0-15.793 1.835-22.83 5.295-.942-3.066-3.796-5.295-7.17-5.295h-52.422c-2.126 0-4.152.902-5.575 2.482l-27.997 31.107v-17.59c2.625-2.865 2.626-7.263 0-10.129v-25.853c35.568-15.954 61.591-49.51 66.919-89.516h9.246c15.404 0 27.936-12.532 27.936-27.936v-23.637c0-15.404-12.532-27.936-27.936-27.936h-8.245c-.563-62.546-51.399-113.698-114.719-113.698-63.301 0-114.156 51.13-114.718 113.698h-8.245c-15.404 0-27.936 12.532-27.936 27.936v23.637c0 15.404 12.532 27.936 27.936 27.936h9.253c2.978 22.284 12.451 43.302 27.409 60.367 2.739 3.124 7.478 3.418 10.584.696 3.115-2.73 3.426-7.469.696-10.584-10.924-12.462-18.482-27.351-22.153-43.282 13.937 14.073 33.26 22.803 54.583 22.803h85.183c21.328 0 40.655-8.734 54.593-22.812-10.197 44.232-49.9 77.312-97.184 77.312-17.17 0-34.098-4.433-48.953-12.82-3.608-2.039-8.182-.764-10.218 2.843s-.764 8.182 2.843 10.218c3.102 1.752 6.283 3.352 9.529 4.801v25.827c-2.625 2.865-2.626 7.263 0 10.129v14.466l-28.269-28.269c-1.406-1.407-3.314-2.197-5.303-2.197h-52.422c-3.375 0-6.229 2.229-7.17 5.295-7.037-3.461-14.823-5.295-22.829-5.295-28.545 0-51.769 23.223-51.769 51.769 0 14.831 6.269 28.226 16.297 37.673-9.406 2.75-16.297 11.453-16.297 21.736v90.616c0 4.142 3.358 7.5 7.5 7.5h414.121c4.142 0 7.5-3.358 7.5-7.5 0-7.938 0-78.436 0-90.616 0-10.283-6.891-18.986-16.297-21.736 10.027-9.446 16.297-22.841 16.297-37.672zm-78.662-212.841v23.637c0 7.133-5.803 12.936-12.936 12.936h-8.241c.001-.533.001 1.268.001-5.322 5.242-14.207 6.098-29.675 2.674-44.187h5.566c7.134 0 12.936 5.803 12.936 12.936zm-38.743-49.351c-10.923-11.022-25.151-18.763-41.056-21.595l16.719-24.094c12.027 12.87 20.395 28.674 24.337 45.689zm-35.487-55.933-23.002 33.15h-77.333l-23.002-33.15c36.137-28.47 87.206-28.464 123.337 0zm-134.487 10.244 16.719 24.094c-15.905 2.832-30.133 10.573-41.056 21.595 3.941-17.015 12.309-32.819 24.337-45.689zm-50.146 131.613c-7.133 0-12.936-5.803-12.936-12.936v-23.637c0-7.133 5.803-12.936 12.936-12.936h5.566c-3.42 14.493-2.575 29.961 2.674 44.187 0 6.136 0 4.876.001 5.322zm165.555 30h-85.183c-26.142 0-48.548-16.302-57.587-39.274-.035-.097-.073-.192-.112-.287-5.452-14.064-5.628-30.067 0-44.585.039-.095.077-.19.112-.287 9.03-22.95 31.401-39.243 57.511-39.274.115.001-1.206 0 85.251 0 25.857 0 48.445 16.021 57.593 39.274.035.097.073.192.112.287 5.452 14.064 5.628 30.067 0 44.585-.039.095-.077.19-.112.287-9.037 22.971-31.443 39.274-57.585 39.274zm156.97 146.268c0 20.274-16.494 36.768-36.768 36.768-8.202 0-16.079-2.71-22.5-7.687v-8.839h29.061c11.162 0 20.242-9.081 20.242-20.242s-9.081-20.242-20.242-20.242h-29.061v-8.839c6.421-4.977 14.298-7.687 22.5-7.687 20.273-.001 36.768 16.493 36.768 36.768zm-59.269-5.243h29.061c2.891 0 5.242 2.352 5.242 5.242s-2.352 5.242-5.242 5.242h-29.061zm-172.091-28.091h63.598v20.864h-63.598zm63.598-32.918v17.917h-63.598v-17.919c20.773 5.976 42.886 5.986 63.598.002zm-172.091 71.494h-29.061c-2.891 0-5.242-2.352-5.242-5.242s2.352-5.242 5.242-5.242h29.061zm-59.269-5.242c0-20.274 16.494-36.769 36.769-36.769 8.202 0 16.078 2.71 22.5 7.687v8.84h-29.061c-11.162 0-20.242 9.081-20.242 20.242s9.081 20.242 20.242 20.242h29.061v8.839c-6.421 4.977-14.297 7.687-22.5 7.687-20.274 0-36.769-16.494-36.769-36.768zm0 59.409c0-4.213 3.428-7.641 7.641-7.641h51.627v21.377h-59.268zm0 28.736h59.268v54.38h-59.268zm155.981 10.8c0-24.03 19.55-43.58 43.58-43.58s43.58 19.55 43.58 43.58-19.55 43.58-43.58 43.58-43.58-19.55-43.58-43.58zm243.141 43.58h-59.268v-17.19c0-4.142-3.358-7.5-7.5-7.5s-7.5 3.358-7.5 7.5v17.19h-86.187c11.948-10.732 19.474-26.293 19.474-43.58 0-32.301-26.279-58.58-58.58-58.58s-58.58 26.279-58.58 58.58c0 17.286 7.526 32.848 19.474 43.58h-86.187v-179.294h41.815l37.102 37.102c1.406 1.407 3.314 2.197 5.303 2.197h86.072c2.126 0 4.152-.902 5.575-2.482l33.136-36.816h41.582v127.103c0 4.142 3.358 7.5 7.5 7.5s7.5-3.358 7.5-7.5v-2.19h59.268v54.38zm-7.642-90.757c4.213 0 7.641 3.428 7.641 7.641v13.736h-59.268v-21.377z"/><path d="m340.304 362.134c-13.726 0-24.892 11.167-24.892 24.892s11.167 24.892 24.892 24.892 24.892-11.167 24.892-24.892-11.167-24.892-24.892-24.892zm0 34.783c-5.455 0-9.892-4.438-9.892-9.892s4.438-9.892 9.892-9.892 9.892 4.438 9.892 9.892-4.438 9.892-9.892 9.892z"/><path d="m171.696 362.134c-13.725 0-24.892 11.167-24.892 24.892s11.167 24.892 24.892 24.892c13.726 0 24.892-11.167 24.892-24.892s-11.167-24.892-24.892-24.892zm0 34.783c-5.454 0-9.892-4.438-9.892-9.892s4.438-9.892 9.892-9.892c5.455 0 9.892 4.438 9.892 9.892s-4.438 9.892-9.892 9.892z"/><path d="m289.58 453.42c0-18.516-15.064-33.58-33.58-33.58-4.142 0-7.5 3.358-7.5 7.5s3.358 7.5 7.5 7.5c10.245 0 18.58 8.335 18.58 18.58 0 4.142 3.358 7.5 7.5 7.5s7.5-3.357 7.5-7.5z"/><path d="m276.088 368.876h-40.176c-4.142 0-7.5 3.358-7.5 7.5s3.358 7.5 7.5 7.5h40.176c4.142 0 7.5-3.358 7.5-7.5s-3.358-7.5-7.5-7.5z"/></svg>