<?xml version="1.0" encoding="iso-8859-1"?>
<!-- Generator: Adobe Illustrator 19.0.0, SVG Export Plug-In . SVG Version: 6.00 Build 0)  -->
<svg version="1.1" id="Layer_1" xmlns="http://www.w3.org/2000/svg" xmlns:xlink="http://www.w3.org/1999/xlink" x="0px" y="0px"
	 viewBox="0 0 512.005 512.005" style="enable-background:new 0 0 512.005 512.005;" xml:space="preserve">
<path style="fill:#FFFFFF;" d="M488.999,356.946c-19.063-19.534-48.092-36.871-81.744-48.814
	c-14.83-5.262-29.625-9.142-43.858-11.569v6.681c9.035,0.832,16.113,8.407,16.113,17.64c0,6.511-3.53,12.186-8.772,15.267
	c0.693,2.534,1.302,5.16,1.853,7.841c6.199,2.73,12.607,5.284,19.202,7.625c33.648,11.94,67.122,16.783,94.251,13.637
	c1.861-0.217,3.436-1.47,4.063-3.235C490.734,360.253,490.303,358.286,488.999,356.946z"/>
<path style="fill:#E02424;" d="M448.327,347.192c-2.282,6.417-5.98,11.926-10.602,16.321c17.297,2.788,33.727,3.428,48.317,1.738
	c1.861-0.217,3.436-1.47,4.063-3.235c0.63-1.764,0.197-3.73-1.107-5.071c-10.251-10.504-23.405-20.365-38.59-29.1
	C451.22,334.171,450.61,340.772,448.327,347.192z"/>
<path style="fill:#FFFFFF;" d="M143.41,336.149c-5.241-3.081-8.77-8.755-8.77-15.266c0-9.789,7.952-17.724,17.76-17.724
	c0.294,0,0.581,0.029,0.871,0.044v-9.329c-15.816,2.331-32.419,6.502-49.069,12.419c-33.641,11.956-62.666,29.304-81.717,48.852
	c-1.307,1.342-1.735,3.305-1.109,5.068c0.627,1.764,2.204,3.021,4.062,3.236c27.133,3.133,60.603-1.725,94.25-13.679
	c7.807-2.774,15.352-5.851,22.594-9.167C142.633,339.095,143.011,337.609,143.41,336.149z"/>
<path style="fill:#E02424;" d="M63.148,345.372c-2.284-6.417-2.897-13.021-2.094-19.344c-15.176,8.744-28.321,18.605-38.569,29.118
	c-1.307,1.342-1.735,3.305-1.109,5.068c0.627,1.764,2.204,3.021,4.062,3.236c14.59,1.685,31.025,1.038,48.321-1.762
	C69.132,357.292,65.436,351.789,63.148,345.372z"/>
<path style="fill:#FFFFFF;" d="M499.793,228.309c-0.38-1.832-1.771-3.289-3.584-3.756c-26.449-6.798-60.271-6.546-95.236,0.714
	c-17.664,3.669-34.34,8.866-49.303,15.269c5.645,10.853,9.435,22.815,10.962,35.472c15.241-0.32,31.361-2.162,47.747-5.564
	c34.96-7.261,66.08-20.495,87.624-37.262C499.481,232.03,500.175,230.142,499.793,228.309z"/>
<path style="fill:#E02424;" d="M456.385,237.325c1.388,6.667,1.095,13.293-0.568,19.449c16.228-6.594,30.602-14.574,42.188-23.592
	c1.476-1.151,2.17-3.04,1.789-4.873c-0.38-1.832-1.771-3.289-3.584-3.756c-14.223-3.656-30.59-5.255-48.108-4.838
	C452.086,224.697,454.997,230.654,456.385,237.325z"/>
<path style="fill:#FFFFFF;" d="M154.279,274.131c1.669-11.997,5.375-23.345,10.763-33.684c-16.016-7.249-34.168-13.092-53.508-17.1
	c-34.961-7.243-68.783-7.482-95.232-0.667c-1.814,0.468-3.201,1.923-3.582,3.754c-0.382,1.832,0.312,3.724,1.788,4.872
	c21.554,16.758,52.678,29.976,87.644,37.225C120.115,272.255,137.765,274.113,154.279,274.131z"/>
<path style="fill:#E02424;" d="M56.13,235.434c1.387-6.67,4.298-12.631,8.272-17.615c-17.513-0.406-33.876,1.197-48.1,4.863
	c-1.814,0.468-3.201,1.923-3.582,3.754c-0.382,1.832,0.312,3.724,1.788,4.872c11.588,9.011,25.97,16.988,42.203,23.572
	C55.043,248.724,54.748,242.104,56.13,235.434z"/>
<path style="fill:#FFFFFF;" d="M438.526,109.038c-1.279-1.368-3.226-1.892-5.018-1.35c-26.135,7.916-54.902,25.685-81,50.033
	c-14.616,13.638-27.225,28.251-37.194,42.95c9.839,6.34,18.548,14.274,25.756,23.437c14.547-8.722,29.134-19.757,42.97-32.668
	c26.097-24.347,45.803-51.805,55.49-77.312C440.194,112.378,439.805,110.406,438.526,109.038z"/>
<path style="fill:#E02424;" d="M406.125,139.269c4.654,4.978,7.851,10.791,9.629,16.913c10.441-14.057,18.57-28.334,23.779-42.052
	c0.661-1.751,0.273-3.724-1.006-5.092c-1.279-1.368-3.226-1.892-5.018-1.35c-14.054,4.257-28.87,11.385-43.621,20.833
	C395.883,130.71,401.469,134.291,406.125,139.269z"/>
<path style="fill:#FFFFFF;" d="M73.9,112.73c9.7,25.505,29.417,52.951,55.523,77.293c14.777,13.773,30.409,25.433,45.933,34.398
	c6.872-8.805,15.125-16.488,24.435-22.725c-10.219-15.527-23.401-31.014-38.848-45.412c-26.107-24.332-54.879-42.09-81.023-49.991
	c-1.793-0.543-3.733-0.018-5.012,1.349C73.626,109.006,73.237,110.985,73.9,112.73z"/>
<path style="fill:#E02424;" d="M107.316,137.856c4.654-4.98,10.243-8.562,16.232-10.757c-14.754-9.436-29.568-16.557-43.63-20.808
	c-1.793-0.543-3.733-0.018-5.012,1.349c-1.28,1.367-1.67,3.346-1.006,5.091c5.212,13.714,13.352,27.993,23.799,42.042
	C99.476,148.648,102.667,142.838,107.316,137.856z"/>
<path style="fill:#FFFFFF;" d="M298.53,191.89c8.848-15.964,16.343-34.405,21.919-54.282c9.633-34.348,12.189-68.034,7.199-94.855
	c-0.344-1.84-1.703-3.324-3.508-3.828c-1.804-0.505-3.739,0.057-4.987,1.451c-18.214,20.327-33.551,50.437-43.186,84.785
	c-5.712,20.365-8.915,40.486-9.553,59.093C277.713,185.109,288.511,187.752,298.53,191.89z"/>
<path style="fill:#E02424;" d="M312.177,81.57c6.566,1.837,12.321,5.144,17.025,9.452c1.609-17.429,1.128-33.846-1.555-48.27
	c-0.344-1.84-1.703-3.324-3.508-3.828c-1.803-0.505-3.739,0.057-4.987,1.451c-9.795,10.931-18.744,24.71-26.437,40.436
	C298.975,79.571,305.611,79.732,312.177,81.57z"/>
<path style="fill:#FFFFFF;" d="M216.251,192.69c9.778-4.264,20.331-7.094,31.394-8.208c-0.583-18.822-3.804-39.216-9.603-59.863
	c-9.652-34.339-24.999-64.444-43.228-84.764c-1.249-1.393-3.181-1.951-4.985-1.447c-1.803,0.504-3.166,1.992-3.506,3.827
	c-4.981,26.826-2.407,60.51,7.235,94.855C199.3,157.52,207.071,176.428,216.251,192.69z"/>
<path style="fill:#FFFBCA;" d="M258.333,183.947c5.114,0,10.138,0.372,15.055,1.074c4.425-18.111,6.782-38.38,6.782-59.563
	c0-35.671-6.636-68.797-18.686-93.278c-0.828-1.679-2.537-2.742-4.41-2.742c-1.874,0-3.586,1.064-4.412,2.742
	c-12.05,24.481-18.686,57.608-18.686,93.278c0,21.33,2.39,41.733,6.874,59.939C246.538,184.449,252.377,183.947,258.333,183.947z"/>
<path style="fill:#E02424;" d="M201.805,81.045c6.567-1.84,13.206-2,19.466-0.768c-7.701-15.718-16.655-29.492-26.457-40.422
	c-1.249-1.393-3.181-1.951-4.985-1.447c-1.803,0.504-3.166,1.992-3.506,3.827c-2.68,14.422-3.154,30.846-1.536,48.273
	C189.493,86.197,195.242,82.889,201.805,81.045z"/>
<path style="fill:#FFFBCA;" d="M193.992,205.874c8.604-6.652,18.272-12,28.71-15.749c-5.643-17.939-14.244-36.678-25.388-54.968
	c-18.568-30.466-41.476-55.318-64.517-69.971c-1.58-1.006-3.589-1.023-5.19-0.051c-1.601,0.972-2.512,2.771-2.344,4.63
	c2.45,27.173,14.026,58.915,32.587,89.389C168.694,176.949,181.024,192.824,193.992,205.874z"/>
<path style="fill:#0853A4;" d="M150.652,102.964c5.826-3.54,12.175-5.484,18.536-5.984c-11.66-13.062-24.002-23.911-36.393-31.793
	c-1.58-1.006-3.589-1.023-5.19-0.051c-1.601,0.972-2.512,2.771-2.344,4.63c1.314,14.61,5.296,30.553,11.56,46.897
	C140.189,111.244,144.832,106.508,150.652,102.964z"/>
<path style="fill:#FFFBCA;" d="M386.157,66.129c-1.601-0.972-3.617-0.953-5.196,0.052c-23.028,14.665-45.929,39.526-64.485,70.005
	c-10.757,17.672-19.144,35.766-24.784,53.153c10.879,3.627,20.964,8.98,29.929,15.732c12.305-12.701,23.991-27.932,34.327-44.912
	c18.554-30.478,30.113-62.227,32.552-89.398C388.663,68.897,387.758,67.102,386.157,66.129z"/>
<path style="fill:#0853A4;" d="M363.121,103.97c5.825,3.539,10.474,8.275,13.84,13.69c6.257-16.348,10.228-32.287,11.539-46.899
	c0.164-1.864-0.742-3.659-2.343-4.632c-1.601-0.972-3.617-0.953-5.196,0.052c-12.384,7.886-24.724,18.743-36.377,31.814
	C350.948,98.488,357.293,100.432,363.121,103.97z"/>
<path style="fill:#FFFBCA;" d="M477.366,164.468c-0.862-1.661-2.594-2.691-4.466-2.651c-27.304,0.579-59.804,9.937-91.512,26.35
	c-16.954,8.777-32.387,18.904-45.559,29.783c8.121,8.836,14.74,19.063,19.455,30.283c15.486-4.463,31.522-10.9,47.361-19.099
	c31.704-16.413,58.096-37.542,74.313-59.493C478.069,168.135,478.227,166.131,477.366,164.468z"/>
<path style="fill:#0853A4;" d="M438.001,184.847c3.137,6.047,4.645,12.505,4.704,18.88c13.848-10.723,25.532-22.28,34.253-34.086
	c1.111-1.507,1.268-3.512,0.408-5.174c-0.862-1.661-2.594-2.691-4.466-2.651c-14.684,0.311-30.876,3.183-47.631,8.305
	C430.45,173.845,434.861,178.799,438.001,184.847z"/>
<path style="fill:#FFFBCA;" d="M501.712,291.245c-23.631-13.675-56.269-22.545-91.896-24.977
	c-16.894-1.153-33.303-0.76-48.599,1.055c1.427,6.879,2.18,14.004,2.18,21.303v14.616c4.129,0.38,7.839,2.18,10.661,4.891
	c10.448,1.996,21.381,3.404,32.613,4.171c35.625,2.43,69.166-1.928,94.44-12.267c1.733-0.712,2.911-2.343,3.039-4.21
	C504.277,293.961,503.33,292.182,501.712,291.245z"/>
<path style="fill:#0853A4;" d="M459.915,292.812c-0.464,6.793-2.535,13.095-5.801,18.574c17.408-1.977,33.404-5.789,46.996-11.348
	c1.733-0.712,2.911-2.343,3.039-4.21c0.129-1.867-0.818-3.647-2.437-4.584c-12.709-7.354-28.038-13.304-45.018-17.623
	C459.185,279.493,460.378,286.014,459.915,292.812z"/>
<path style="fill:#FFFBCA;" d="M459.01,416.786c-13.079-23.947-36.351-48.463-65.53-69.032c-6.77-4.772-13.637-9.156-20.525-13.155
	c-0.699,0.568-1.438,1.092-2.219,1.552c3.19,11.664,4.894,24.984,4.894,38.968c0,5.377-0.251,10.656-0.741,15.782
	c26.756,17.523,54.523,29.196,79.031,33.087c1.852,0.29,3.706-0.491,4.785-2.021C459.789,420.439,459.906,418.428,459.01,416.786z"
	/>
<path style="fill:#0853A4;" d="M422.483,396.434c-3.931,5.564-8.98,9.873-14.616,12.86c15.901,7.345,31.549,12.389,46.055,14.693
	c1.852,0.29,3.706-0.491,4.785-2.021c1.083-1.528,1.2-3.539,0.304-5.181c-7.033-12.877-17.036-25.917-29.298-38.419
	C428.784,384.675,426.412,390.867,422.483,396.434z"/>
<path style="fill:#FFFBCA;" d="M138.513,375.117c0-13.983,1.706-27.305,4.896-38.968c-1.678-0.987-3.18-2.243-4.447-3.705
	c-7.201,4.146-14.382,8.725-21.459,13.718c-29.166,20.578-52.428,45.105-65.494,69.061c-0.894,1.645-0.776,3.65,0.302,5.18
	c1.079,1.529,2.938,2.313,4.785,2.021c25.377-4.041,54.247-16.409,81.87-34.997C138.668,383.399,138.513,379.289,138.513,375.117z"
	/>
<path style="fill:#0853A4;" d="M88.526,394.855c-3.934-5.563-6.307-11.757-7.24-18.063c-12.253,12.508-22.247,25.547-29.277,38.431
	c-0.894,1.645-0.776,3.65,0.302,5.18c1.079,1.529,2.938,2.313,4.785,2.021c14.504-2.307,30.154-7.361,46.053-14.717
	C97.507,404.721,92.462,400.418,88.526,394.855z"/>
<path style="fill:#FFFBCA;" d="M151.297,303.215c0.662-0.166,1.318-0.339,1.975-0.509v-14.08c0-7.772,0.857-15.342,2.469-22.631
	c-16.687-2.354-34.836-2.964-53.579-1.678c-35.623,2.447-68.255,11.33-91.882,25.02c-1.621,0.939-2.561,2.715-2.435,4.581
	c0.126,1.867,1.306,3.502,3.038,4.21c25.28,10.329,58.821,14.669,94.449,12.227c13.913-0.956,27.359-2.906,40-5.728
	C147.178,303.826,149.189,303.344,151.297,303.215z"/>
<path style="fill:#0853A4;" d="M52.076,290.884c-0.467-6.794,0.726-13.32,3.207-19.191c-16.974,4.329-32.296,10.282-45.004,17.644
	c-1.621,0.939-2.561,2.715-2.435,4.581c0.126,1.867,1.306,3.503,3.038,4.21c13.593,5.555,29.595,9.36,47.005,11.326
	C54.618,303.976,52.547,297.68,52.076,290.884z"/>
<path style="fill:#FFFBCA;" d="M180.167,218.688c-13.805-11.821-30.289-22.825-48.544-32.264
	c-31.709-16.395-64.211-25.741-91.521-26.304c-1.871-0.04-3.599,0.99-4.462,2.651c-0.863,1.66-0.705,3.671,0.406,5.173
	c16.227,21.945,42.629,43.06,74.339,59.464c17.181,8.885,34.591,15.678,51.285,20.146
	C166.233,236.909,172.515,227.173,180.167,218.688z"/>
<path style="fill:#0853A4;" d="M75.01,183.131c3.137-6.049,7.551-11.004,12.726-14.732c-16.755-5.112-32.943-7.976-47.633-8.28
	c-1.871-0.04-3.599,0.99-4.462,2.651c-0.863,1.66-0.705,3.671,0.406,5.173c8.724,11.8,20.417,23.357,34.27,34.07
	C70.374,195.636,71.879,189.181,75.01,183.131z"/>
<path style="fill:#D69363;" d="M258.333,252.692c-58.023,0-105.061,46.923-105.061,104.805v20.267
	c0,57.882,47.038,104.805,105.063,104.805c58.023,0,105.061-46.923,105.061-104.805v-20.267
	C363.396,299.615,316.358,252.692,258.333,252.692z"/>
<path style="opacity:0.1;enable-background:new    ;" d="M185.889,377.764v-20.267c0-52.348,38.474-95.729,88.752-103.546
	c-5.315-0.827-10.761-1.259-16.309-1.259c-58.023,0-105.061,46.923-105.061,104.805v20.267c0,57.882,47.038,104.805,105.063,104.805
	c5.548,0,10.992-0.433,16.308-1.259C224.363,473.493,185.889,430.112,185.889,377.764z"/>
<path style="fill:#0853A4;" d="M257.075,73.725c6.818,0,13.252,1.633,18.946,4.515c-3.159-17.217-8.056-32.896-14.536-46.061
	c-0.828-1.679-2.537-2.742-4.41-2.742c-1.874,0-3.586,1.064-4.412,2.742c-6.479,13.165-11.377,28.844-14.536,46.061
	C243.821,75.36,250.255,73.725,257.075,73.725z"/>
<path style="fill:#971311;" d="M258.333,183.947c-58.025,0-105.061,46.867-105.061,104.679v23.624l1.372-11.172
	c8.119-49.766,51.443-87.762,103.688-87.762c52.243,0,95.573,37.994,103.691,87.762l1.372,11.172v-23.624
	C363.396,230.814,316.358,183.947,258.333,183.947z"/>
<path style="fill:#8C561F;" d="M258.333,213.317c-58.025,0-105.061,46.866-105.061,104.679v12.452h3.842
	c12.335-44.148,52.978-76.546,101.219-76.546c48.243,0,88.885,32.398,101.221,76.546h3.842v-12.452
	C363.396,260.183,316.358,213.317,258.333,213.317z"/>
<path style="fill:#FFFFFF;" d="M361.746,328.427c-2.175,0-4.249-0.409-6.175-1.123c-5,13.538-7.712,30.153-7.712,47.813
	c0,21.448,3.99,41.365,11.237,56.084c0.496,1.01,1.526,1.649,2.651,1.649c1.127,0,2.155-0.638,2.651-1.649
	c7.245-14.718,11.235-34.636,11.235-56.084c0-17.66-2.71-34.276-7.711-47.812C365.994,328.019,363.92,328.427,361.746,328.427z"/>
<ellipse style="fill:#971311;" cx="361.75" cy="320.881" rx="17.762" ry="17.724"/>
<path style="fill:#FFFFFF;" d="M152.4,328.427c-2.174,0-4.249-0.409-6.174-1.123c-5.001,13.538-7.712,30.153-7.712,47.813
	c0,21.448,3.989,41.365,11.236,56.084c0.496,1.01,1.526,1.649,2.651,1.649c1.127,0,2.154-0.638,2.651-1.649
	c7.246-14.718,11.236-34.636,11.236-56.084c0-17.66-2.71-34.276-7.711-47.812C156.649,328.019,154.575,328.427,152.4,328.427z"/>
<ellipse style="fill:#971311;" cx="152.405" cy="320.881" rx="17.762" ry="17.724"/>
<path d="M266.169,383.432v-40.733c0-4.328-3.508-7.837-7.837-7.837s-7.837,3.509-7.837,7.837v40.732
	c0,4.328,3.508,7.837,7.837,7.837C262.661,391.268,266.169,387.76,266.169,383.432z"/>
<path d="M210.062,342.698v13.881c0,4.328,3.508,7.837,7.837,7.837s7.837-3.509,7.837-7.837v-13.881c0-4.328-3.508-7.837-7.837-7.837
	S210.062,338.37,210.062,342.698z"/>
<path d="M290.932,342.698v13.881c0,4.328,3.508,7.837,7.837,7.837c4.328,0,7.837-3.509,7.837-7.837v-13.881
	c0-4.328-3.509-7.837-7.837-7.837C294.441,334.862,290.932,338.37,290.932,342.698z"/>
<path d="M234.744,430.025h47.177c4.329,0,7.837-3.509,7.837-7.837c0-4.328-3.508-7.837-7.837-7.837h-47.177
	c-4.329,0-7.837,3.509-7.837,7.837C226.907,426.516,230.415,430.025,234.744,430.025z"/>
<path d="M241.863,317.785c0-4.328-3.508-7.837-7.837-7.837h-32.433c-4.329,0-7.837,3.509-7.837,7.837
	c0,4.328,3.508,7.837,7.837,7.837h32.433C238.355,325.622,241.863,322.113,241.863,317.785z"/>
<path d="M323.438,317.785c0-4.328-3.508-7.837-7.837-7.837h-32.434c-4.329,0-7.837,3.509-7.837,7.837
	c0,4.328,3.508,7.837,7.837,7.837h32.434C319.93,325.622,323.438,322.113,323.438,317.785z"/>
<path d="M505.637,284.462c-14.066-8.14-31.135-14.635-50.031-19.185c18.207-7.096,34.329-15.883,47.218-25.914
	c3.86-3.01,5.639-7.859,4.641-12.647c-0.981-4.721-4.632-8.548-9.305-9.752c-13.341-3.429-28.386-5.168-44.716-5.168
	c-2.848,0-5.728,0.074-8.621,0.183c15.61-11.742,28.743-24.556,38.445-37.687c2.902-3.939,3.306-9.083,1.053-13.432
	c-2.202-4.243-6.539-6.879-11.318-6.879c-0.055,0-0.214,0.001-0.27,0.002c-16.249,0.345-34.205,3.651-52.713,9.567
	c11.859-15.511,21.047-31.389,26.843-46.65c1.728-4.577,0.726-9.64-2.612-13.212c-2.404-2.57-5.801-4.046-9.322-4.046
	c-1.25,0-2.492,0.184-3.693,0.546c-15.559,4.711-31.961,12.737-48.189,23.426c7.232-18.135,11.798-35.906,13.258-52.165
	c0.429-4.873-1.9-9.478-6.081-12.018c-4.077-2.473-9.454-2.419-13.473,0.141c-13.715,8.733-27.351,20.883-40.096,35.558
	c2.072-19.419,1.679-37.767-1.306-53.817c-0.899-4.811-4.386-8.618-9.097-9.935c-1.12-0.313-2.279-0.473-3.441-0.473
	c-3.622,0-7.082,1.545-9.498,4.241c-10.848,12.106-20.686,27.494-28.991,45.063c-3.253-19.268-8.596-36.837-15.81-51.494
	c-2.163-4.388-6.546-7.114-11.439-7.114c-4.824,0-9.316,2.795-11.443,7.118c-7.195,14.618-12.529,32.134-15.783,51.345
	c-8.354-17.732-18.266-33.254-29.198-45.44c-2.414-2.692-5.872-4.236-9.491-4.236c-1.161,0-2.319,0.159-3.438,0.471
	c-4.652,1.3-8.225,5.204-9.103,9.944c-2.964,15.966-3.36,34.211-1.313,53.526C164.5,79.56,150.793,67.34,137.009,58.573
	c-4.018-2.559-9.388-2.616-13.466-0.142c-4.13,2.507-6.518,7.231-6.083,12.034c1.459,16.167,5.99,33.836,13.168,51.877
	c-16.312-10.76-32.803-18.831-48.435-23.555c-1.199-0.363-2.442-0.546-3.693-0.546c-3.516,0-6.91,1.473-9.311,4.04
	c-3.301,3.525-4.327,8.72-2.61,13.233c5.77,15.175,14.908,30.967,26.69,46.402c-18.612-5.964-36.67-9.295-52.999-9.633
	c-0.055-0.001-0.213-0.002-0.267-0.002c-4.776,0-9.111,2.635-11.311,6.873c-2.229,4.286-1.813,9.565,1.058,13.448
	c9.654,13.056,22.709,25.801,38.222,37.488c-2.953-0.113-5.892-0.189-8.799-0.189c-16.374,0-31.455,1.747-44.824,5.193
	c-4.737,1.221-8.299,4.955-9.295,9.739c-0.987,4.726,0.837,9.696,4.649,12.662c12.825,9.973,28.857,18.715,46.959,25.785
	c-19.008,4.563-36.176,11.089-50.309,19.278c-4.231,2.453-6.653,7.009-6.322,11.89c0.327,4.816,3.423,9.108,7.892,10.934
	c15.045,6.147,32.759,10.266,52.134,12.201c-17.05,9.509-31.795,20.411-43.179,32.092c-3.416,3.505-4.519,8.548-2.881,13.16
	c1.615,4.545,5.753,7.841,10.547,8.398c5.631,0.65,11.596,0.98,17.733,0.98c11.376,0,23.407-1.134,35.787-3.303
	c-13.858,13.758-25.118,28.239-32.932,42.567c-2.336,4.294-2.038,9.446,0.784,13.445c2.387,3.38,6.281,5.398,10.418,5.398
	c0.668,0,1.34-0.053,2.002-0.158c23.177-3.691,49.034-13.996,74.276-29.39c1.963,12.698,5.386,24.29,10.109,33.883
	c1.799,3.664,5.601,6.032,9.686,6.032c3.768,0,7.162-1.924,9.123-5.065c19.759,32.789,55.75,54.783,96.811,54.783
	c18.719-0.001,37.263-4.668,53.628-13.498c3.81-2.055,5.231-6.81,3.175-10.618c-2.055-3.809-6.806-5.231-10.618-3.175
	c-14.085,7.6-30.056,11.617-46.185,11.618c-39.667,0-73.835-23.829-88.938-57.876c0.628,0.269,1.317,0.418,2.039,0.418h26.04
	c2.873,0,5.224-2.351,5.224-5.224v-5.224c0-2.873-2.351-5.224-5.224-5.224h-25.409c0.363-2.257,0.663-4.56,0.932-6.884h24.478
	c2.873,0,5.224-2.351,5.224-5.224v-5.224c0-2.873-2.351-5.224-5.224-5.224H174.07c0.029-1.305,0.061-2.609,0.061-3.926
	c0-12.678-1.343-24.84-3.896-35.916c4.789-4.648,7.773-11.14,7.773-18.319c0-4.371-1.107-8.487-3.05-12.088
	c17.267-28.581,48.738-47.058,83.383-47.058c12.276,0,24.237,2.247,35.55,6.677c4.029,1.58,8.577-0.409,10.155-4.439
	c1.579-4.03-0.41-8.576-4.439-10.154c-13.143-5.147-27.026-7.756-41.267-7.756c-39.021,0-74.587,20.195-94.987,51.718
	c-0.031-0.016-0.064-0.028-0.097-0.044c3.616-16.913,11.736-32.627,23.74-45.534c16.607-17.857,39.111-28.771,63.37-30.73
	c4.314-0.348,7.53-4.128,7.181-8.442c-0.348-4.314-4.148-7.524-8.442-7.181c-28.174,2.275-54.306,14.946-73.587,35.679
	c-1.806,1.94-3.534,3.937-5.186,5.984c15.552-32.897,49.148-55.731,88.008-55.731c38.978,0,72.656,22.972,88.145,56.029
	c-16.153-20.178-39.183-34.842-65.968-40.162c-4.245-0.842-8.371,1.915-9.213,6.161c-0.843,4.245,1.915,8.37,6.161,9.213
	c38.128,7.571,67.434,37.121,75.725,73.774c-0.147,0.052-0.293,0.106-0.438,0.16c-7.045-10.698-15.892-20.24-26.188-28.034
	c-3.451-2.611-8.366-1.933-10.978,1.518c-2.612,3.451-1.933,8.366,1.518,10.979c9.253,7.004,17.147,15.638,23.329,25.335
	c-2.7,4.05-4.278,8.906-4.278,14.126c0,7.178,2.983,13.67,7.772,18.318c-2.555,11.076-3.897,23.24-3.897,35.917
	c0,1.317,0.037,2.62,0.066,3.926h-18.276c-2.873,0-5.224,2.351-5.224,5.224v5.224c0,2.873,2.351,5.224,5.224,5.224h19.342
	c0.27,2.328,0.586,4.623,0.95,6.884h-20.292c-2.873,0-5.224,2.351-5.224,5.224v5.224c0,2.873,2.351,5.224,5.224,5.224h23.091
	c0.212,0,0.415-0.039,0.621-0.063c0.212,0.749,0.409,1.515,0.632,2.252c-4.768,9.976-11.275,19.165-19.388,27.182
	c-3.077,3.043-3.108,8.004-0.064,11.082c1.533,1.551,3.552,2.328,5.573,2.328c1.989,0,3.981-0.753,5.508-2.263
	c6.285-6.211,11.74-13.029,16.323-20.317c1.999,2.003,4.741,3.212,7.639,3.212c4.144,0,7.854-2.309,9.683-6.025
	c4.326-8.789,7.565-19.248,9.589-30.698c24.412,14.505,49.297,24.209,71.688,27.765c0.654,0.102,1.322,0.155,1.983,0.155
	c4.141,0,8.036-2.02,10.412-5.386c2.792-3.941,3.101-9.226,0.787-13.469c-7.782-14.249-18.975-28.651-32.746-42.341
	c12.451,2.191,24.552,3.336,35.989,3.336c6.165,0,12.159-0.332,17.823-0.99c4.862-0.569,8.899-3.787,10.532-8.383
	c1.622-4.542,0.495-9.712-2.878-13.179c-11.338-11.618-26.002-22.462-42.95-31.929c19.486-1.931,37.301-6.068,52.429-12.256
	c4.528-1.859,7.548-6.045,7.881-10.921C512.299,291.554,509.815,286.881,505.637,284.462z M488.142,230.73
	c-6.873,4.831-14.631,9.31-23.069,13.385c-0.101-2.795-0.434-5.594-1.016-8.387c-0.582-2.79-1.392-5.488-2.413-8.089
	C471.082,228.017,479.955,229.045,488.142,230.73z M48.457,233.844c-0.579,2.792-0.909,5.589-1.009,8.382
	c-8.44-4.072-16.199-8.546-23.073-13.373c8.188-1.691,17.058-2.724,26.494-3.106C49.848,228.351,49.037,231.051,48.457,233.844z
	 M19.719,293.106c7.467-3.854,15.76-7.237,24.674-10.129c-0.28,2.785-0.33,5.603-0.135,8.448c0.196,2.849,0.634,5.637,1.294,8.358
	C36.31,298.134,27.644,295.904,19.719,293.106z M42.272,356.54c-3.3,0-6.538-0.106-9.681-0.312
	c6.148-5.722,13.22-11.215,21.023-16.402c0.482,2.759,1.194,5.488,2.151,8.177c0.957,2.685,2.129,5.247,3.497,7.686
	C53.454,356.25,47.774,356.54,42.272,356.54z M455.71,349.817c0.956-2.69,1.668-5.419,2.148-8.175
	c7.807,5.184,14.882,10.674,21.034,16.391c-3.168,0.211-6.432,0.318-9.761,0.318c-5.477,0-11.13-0.288-16.914-0.842
	C453.584,355.068,454.755,352.505,455.71,349.817z M448.713,238.922c0.842,4.044,0.943,8.105,0.317,12.122
	c-8.395,3.231-17.289,6.077-26.545,8.502c-4.006-0.443-8.049-0.818-12.136-1.097c-4.73-0.323-9.477-0.527-14.175-0.618l22.542-4.681
	c4.238-0.88,6.96-5.029,6.08-9.266c-0.881-4.238-5.034-6.962-9.266-6.079l-22.364,4.644c4.37-1.991,8.735-4.103,13.085-6.354
	c3.556-1.841,7.044-3.744,10.467-5.698c9.32-1.428,18.498-2.34,27.455-2.713C446.344,231.116,447.87,234.88,448.713,238.922z
	 M466.804,169.937c-5.314,6.506-11.574,12.91-18.601,19.108c-0.853-2.667-1.931-5.275-3.246-7.81
	c-1.313-2.53-2.822-4.907-4.508-7.137C449.577,171.937,458.425,170.52,466.804,169.937z M423.618,178.845
	c3.026,2.721,5.52,5.938,7.426,9.61c1.902,3.668,3.096,7.553,3.578,11.586c-10.705,7.977-22.671,15.452-35.58,22.134
	c-13.22,6.843-26.549,12.395-39.535,16.566c-0.587-1.177-1.189-2.346-1.815-3.498l48.303-25.004
	c3.843-1.989,5.346-6.719,3.356-10.562c-1.989-3.845-6.719-5.347-10.562-3.357l-49.559,25.655c-0.722-0.976-1.456-1.942-2.209-2.894
	c11.301-8.66,24.085-16.766,37.967-23.953C397.904,188.443,410.923,182.984,423.618,178.845z M429.836,117.15
	c-3.36,7.696-7.659,15.549-12.751,23.412c-1.541-2.338-3.284-4.56-5.236-6.648c-1.947-2.081-4.042-3.963-6.265-5.656
	C413.784,123.722,421.92,119.974,429.836,117.15z M390.653,137.366c3.65,1.805,6.92,4.231,9.748,7.254
	c2.823,3.02,5.023,6.439,6.576,10.193c-5.492,7.116-11.609,14.161-18.255,21.035c-3.651,1.7-7.3,3.477-10.937,5.359
	c-4.248,2.2-8.403,4.485-12.459,6.843l16.837-15.709c3.164-2.953,3.336-7.912,0.385-11.076c-2.953-3.165-7.911-3.338-11.077-0.385
	l-16.709,15.589c2.701-3.972,5.333-8.052,7.88-12.237c2.076-3.411,4.051-6.84,5.955-10.278
	C375.852,147.867,383.239,142.308,390.653,137.366z M379.98,76.28c-1.157,8.316-3.174,17.038-5.953,25.982
	c-2.117-1.837-4.396-3.507-6.84-4.991c-2.438-1.48-4.962-2.728-7.561-3.758C366.297,86.934,373.121,81.132,379.98,76.28z
	 M323.17,140.261c7.555-12.41,15.839-23.827,24.536-33.953c4.002,0.754,7.806,2.21,11.347,4.359
	c3.536,2.148,6.578,4.848,9.087,8.046c-4.998,12.369-11.334,24.965-18.887,37.371c-8.759,14.388-18.493,27.447-28.722,38.69
	c-0.835-0.551-1.677-1.091-2.527-1.621l30.974-50.882c2.251-3.697,1.078-8.518-2.619-10.769c-3.698-2.251-8.518-1.078-10.77,2.619
	l-31.457,51.674c-0.849-0.377-1.704-0.744-2.564-1.101C306.896,170.085,314.175,155.039,323.17,140.261z M320.933,50.36
	c1.133,8.319,1.545,17.262,1.284,26.623c-2.533-1.197-5.176-2.191-7.929-2.96c-2.748-0.769-5.519-1.291-8.303-1.583
	C310.635,64.306,315.638,56.881,320.933,50.36z M287.75,113.591c3.03-8.966,6.451-17.548,10.214-25.618
	c4.055-0.352,8.113,0.025,12.102,1.142c3.985,1.115,7.646,2.895,10.928,5.3c-0.991,8.92-2.55,18.105-4.649,27.416
	c-2.24,3.352-4.43,6.778-6.562,10.279c-2.496,4.1-4.863,8.225-7.109,12.362l6.231-22.214c1.168-4.167-1.262-8.493-5.429-9.662
	c-4.167-1.168-8.493,1.261-9.662,5.429l-6.182,22.038c0.243-4.816,0.376-9.686,0.376-14.607
	C288.007,121.469,287.91,117.515,287.75,113.591z M257.075,41.315c3.337,7.706,6.15,16.204,8.428,25.289
	c-2.762-0.47-5.572-0.714-8.428-0.714c-2.857,0-5.669,0.243-8.429,0.714C250.923,57.519,253.735,49.02,257.075,41.315z
	 M245.115,83.724c3.811-1.432,7.817-2.161,11.959-2.161c4.141,0,8.147,0.729,11.958,2.161c2.163,13.163,3.301,27.213,3.301,41.734
	c0,17.994-1.745,35.263-5.036,51.007c-0.792-0.063-1.589-0.113-2.385-0.159v-62.522c0-4.328-3.508-7.837-7.837-7.837
	c-4.329,0-7.837,3.509-7.837,7.837v62.693c-0.782,0.063-1.563,0.13-2.34,0.208c-3.323-15.804-5.083-33.149-5.083-51.226
	C241.814,110.936,242.952,96.887,245.115,83.724z M216.027,87.446c3.827,8.199,7.305,16.922,10.376,26.052
	c-0.163,3.954-0.261,7.939-0.261,11.961c0,4.9,0.132,9.752,0.373,14.549l-6.325-22.51c-1.169-4.167-5.498-6.596-9.664-5.425
	c-4.167,1.17-6.596,5.497-5.425,9.664l6.185,22.015c-2.298-4.24-4.72-8.469-7.28-12.67c-2.084-3.419-4.225-6.766-6.411-10.042
	c-2.075-9.219-3.612-18.307-4.595-27.138c3.282-2.405,6.94-4.189,10.921-5.308C207.904,87.475,211.962,87.097,216.027,87.446z
	 M193.039,49.843c5.298,6.516,10.305,13.939,14.956,22.07c-2.786,0.293-5.559,0.817-8.31,1.588
	c-2.749,0.772-5.389,1.767-7.919,2.965C191.501,67.105,191.911,58.163,193.039,49.843z M166.071,105.296
	c8.701,10.121,16.989,21.533,24.55,33.94c9.404,15.434,16.934,31.162,22.322,46.38c-0.723,0.318-1.442,0.643-2.157,0.975
	l-32.588-53.483c-2.252-3.698-7.075-4.868-10.77-2.615c-3.696,2.252-4.866,7.074-2.614,10.77l32.239,52.909
	c-0.707,0.458-1.411,0.922-2.108,1.395c-10.844-11.638-21.164-25.327-30.405-40.489c-7.556-12.406-13.896-24.998-18.898-37.364
	c2.508-3.199,5.547-5.902,9.078-8.051C158.259,107.511,162.064,106.054,166.071,105.296z M154.144,92.506
	c-2.601,1.031-5.128,2.283-7.567,3.765c-2.439,1.485-4.714,3.156-6.826,4.993c-2.783-8.943-4.805-17.662-5.965-25.977
	C140.646,80.133,147.47,85.931,154.144,92.506z M122.789,135.946c7.484,4.984,14.941,10.589,22.263,16.745
	c1.949,3.525,3.976,7.043,6.106,10.541c2.487,4.079,5.051,8.06,7.683,11.937l-16.856-15.714c-3.166-2.952-8.124-2.777-11.076,0.389
	c-2.951,3.166-2.776,8.125,0.389,11.076l16.685,15.554c-4.151-2.418-8.405-4.761-12.758-7.011c-3.55-1.836-7.114-3.569-10.679-5.232
	c-6.579-6.807-12.628-13.784-18.068-20.828c1.551-3.755,3.748-7.175,6.565-10.196C115.865,140.185,119.136,137.757,122.789,135.946z
	 M83.6,115.752c7.915,2.818,16.052,6.562,24.254,11.095c-2.226,1.695-4.322,3.579-6.268,5.662c-1.948,2.088-3.686,4.309-5.226,6.646
	C91.266,131.295,86.963,123.445,83.6,115.752z M81.967,186.738c1.903-3.67,4.395-6.889,7.423-9.615
	c12.701,4.133,25.719,9.584,38.635,16.262c15.175,7.848,29.058,16.789,41.104,26.361c-0.597,0.766-1.183,1.54-1.761,2.322
	l-53.138-27.48c-3.845-1.987-8.573-0.483-10.561,3.361c-1.987,3.845-0.483,8.573,3.361,10.561l51.891,26.834
	c-0.512,0.945-1.008,1.9-1.493,2.861c-14.21-4.272-28.889-10.235-43.438-17.759c-12.911-6.679-24.881-14.15-35.59-22.121
	C78.877,194.292,80.068,190.406,81.967,186.738z M64.814,187.334c-7.029-6.195-13.291-12.594-18.608-19.095
	c8.382,0.582,17.228,1.994,26.349,4.148c-1.684,2.232-3.194,4.611-4.507,7.142C66.738,182.063,65.663,184.669,64.814,187.334z
	 M63.802,237.029c0.84-4.042,2.367-7.807,4.54-11.244c9.036,0.372,18.292,1.278,27.701,2.73c3.511,2.008,7.093,3.963,10.745,5.852
	c4.242,2.193,8.499,4.258,12.759,6.203l-22.556-4.674c-4.226-0.876-8.385,1.845-9.263,6.083c-0.879,4.238,1.845,8.385,6.083,9.264
	l22.315,4.624c-4.804,0.09-9.662,0.3-14.502,0.631c-3.989,0.274-7.936,0.643-11.848,1.072c-9.166-2.403-17.965-5.227-26.28-8.423
	C62.867,245.134,62.964,241.072,63.802,237.029z M59.895,290.346c-0.284-4.118,0.17-8.159,1.336-12.056
	c13-3.059,26.959-5.159,41.467-6.154c6.255-0.429,12.54-0.647,18.679-0.647c8.685,0,17.103,0.434,25.186,1.268
	c-0.18,1.266-0.341,2.538-0.479,3.817l-54.532,3.743c-4.319,0.297-7.578,4.037-7.282,8.355c0.283,4.136,3.726,7.301,7.811,7.301
	c0.181,0,0.363-0.006,0.544-0.019l52.81-3.625v3.963c-0.77,0.217-1.52,0.48-2.259,0.766c-12.116,2.687-25.005,4.559-38.379,5.478
	c-6.251,0.428-12.531,0.646-18.666,0.646c-7.989,0-15.76-0.362-23.251-1.066C61.186,298.419,60.181,294.474,59.895,290.346z
	 M76.582,353.272c-2.631-3.106-4.663-6.632-6.052-10.528c-1.384-3.889-2.039-7.9-1.969-11.967
	c7.869-4.342,16.279-8.373,25.116-12.032c4.049-0.109,8.123-0.292,12.19-0.57c4.768-0.328,9.48-0.773,14.134-1.323l-21.693,7.708
	c-4.078,1.449-6.21,5.93-4.762,10.008c1.141,3.211,4.161,5.215,7.384,5.215c0.87,0,1.758-0.146,2.624-0.454l21.525-7.649
	c-4.057,2.567-8.095,5.256-12.097,8.079c-3.281,2.314-6.484,4.681-9.616,7.09C94.314,349.543,85.348,351.688,76.582,353.272z
	 M62.029,413.545c4.376-7.168,9.702-14.364,15.816-21.462c1.21,2.528,2.634,4.965,4.284,7.298c1.645,2.325,3.463,4.474,5.437,6.451
	C78.824,409.214,70.253,411.823,62.029,413.545z M103.594,398.839c-3.372-2.284-6.281-5.132-8.669-8.508
	c-2.384-3.372-4.098-7.057-5.127-10.992c9.516-9.359,20.348-18.394,32.224-26.772c3.765-2.656,7.558-5.176,11.365-7.586
	c-0.59,3.157-1.086,6.387-1.485,9.683l-15.134,10.677c-3.537,2.495-4.381,7.384-1.886,10.921c1.527,2.164,3.949,3.32,6.41,3.32
	c1.561,0,3.138-0.465,4.51-1.434l4.881-3.443c0,0.139-0.005,0.276-0.005,0.415c0,2.774,0.066,5.526,0.194,8.249
	C121.817,389.247,112.669,394.435,103.594,398.839z M152.4,416.872c-3.936-12.025-6.05-26.437-6.05-41.755
	c0-10.18,0.95-19.926,2.75-28.893c1.08,0.14,2.181,0.219,3.3,0.219c1.119,0,2.219-0.079,3.301-0.219
	c1.8,8.967,2.749,18.714,2.749,28.893C158.45,390.434,156.335,404.848,152.4,416.872z M152.4,330.77
	c-5.471,0-9.923-4.436-9.923-9.887s4.452-9.887,9.923-9.887c5.473,0,9.927,4.436,9.927,9.887S157.873,330.77,152.4,330.77z
	 M361.746,416.872c-3.936-12.025-6.051-26.438-6.051-41.754c0-10.179,0.949-19.925,2.75-28.895c1.081,0.14,2.182,0.219,3.301,0.219
	c1.118,0,2.218-0.079,3.3-0.219c1.8,8.967,2.749,18.714,2.749,28.893C367.795,390.434,365.68,404.847,361.746,416.872z
	 M361.746,330.77c-5.472,0-9.924-4.436-9.924-9.887s4.452-9.887,9.924-9.887c5.473,0,9.927,4.436,9.927,9.887
	S367.219,330.77,361.746,330.77z M416.082,391.912c-2.387,3.378-5.292,6.228-8.664,8.514c-8.096-3.924-16.253-8.467-24.347-13.571
	c0.186-2.756,0.305-5.545,0.358-8.361l1.771,1.249c1.372,0.968,2.948,1.433,4.508,1.433c2.463,0,4.887-1.157,6.413-3.322
	c2.494-3.538,1.648-8.427-1.89-10.92l-11.541-8.135c-0.315-3.306-0.721-6.555-1.225-9.735c2.509,1.648,5.011,3.343,7.5,5.096
	c11.878,8.374,22.717,17.405,32.238,26.761C420.175,384.852,418.464,388.538,416.082,391.912z M433.16,393.658
	c6.117,7.096,11.449,14.29,15.828,21.455c-8.226-1.719-16.798-4.324-25.54-7.701c1.974-1.98,3.791-4.13,5.436-6.458
	C430.531,398.621,431.954,396.183,433.16,393.658z M440.944,344.568c-1.384,3.894-3.416,7.421-6.045,10.532
	c-8.859-1.596-17.925-3.778-27.075-6.506c-3.198-2.462-6.473-4.882-9.827-7.246c-3.905-2.752-7.844-5.38-11.803-7.889l21.724,7.709
	c0.866,0.307,1.75,0.453,2.621,0.453c3.225,0,6.246-2.005,7.385-5.218c1.447-4.079-0.685-8.559-4.766-10.007l-21.514-7.635
	c4.771,0.567,9.603,1.028,14.493,1.362c3.967,0.271,7.944,0.45,11.896,0.559c8.743,3.63,17.076,7.621,24.874,11.918
	C442.98,336.663,442.327,340.673,440.944,344.568z M452.096,292.278c-0.282,4.127-1.285,8.071-2.977,11.773
	c-7.522,0.709-15.326,1.075-23.352,1.075c-6.102,0-12.348-0.215-18.565-0.638c-10.21-0.697-20.14-1.948-29.667-3.685
	c-1.905-1.495-4.023-2.732-6.305-3.646v-2.539l48.137,3.284c0.182,0.013,0.363,0.019,0.542,0.019c4.085,0,7.528-3.167,7.811-7.304
	c0.295-4.319-2.967-8.057-7.285-8.352l-49.634-3.387c-0.134-1.541-0.289-3.075-0.486-4.599c6.61-0.542,13.419-0.831,20.406-0.831
	c6.1,0,12.344,0.215,18.557,0.638c14.509,0.991,28.468,3.082,41.472,6.137C451.921,284.115,452.378,288.155,452.096,292.278z
	 M466.443,301.707c0.659-2.722,1.095-5.512,1.289-8.362c0.194-2.845,0.142-5.662-0.14-8.444c8.917,2.888,17.214,6.268,24.683,10.118
	C484.352,297.821,475.687,300.054,466.443,301.707z"/>
<g>
</g>
<g>
</g>
<g>
</g>
<g>
</g>
<g>
</g>
<g>
</g>
<g>
</g>
<g>
</g>
<g>
</g>
<g>
</g>
<g>
</g>
<g>
</g>
<g>
</g>
<g>
</g>
<g>
</g>
</svg>
