<svg id="Capa_1" enable-background="new 0 0 512 512" height="512" viewBox="0 0 512 512" width="512" xmlns="http://www.w3.org/2000/svg"><path d="m383.414 172.181h-223.522c-2.007 0-3.635-1.627-3.635-3.635v-45.922c0-3.627 2.368-6.829 5.836-7.892l98.394-30.151c7.276-2.23 15.054-2.23 22.33 0l98.394 30.151c3.468 1.063 5.836 4.265 5.836 7.892v45.922c.002 2.008-1.626 3.635-3.633 3.635z" fill="#f1f1f4"/><path d="m381.212 114.732-34.164-10.469v16.98c0 17.087-13.852 30.938-30.938 30.938h-159.853v16.365c0 2.007 1.627 3.635 3.635 3.635h223.522c2.007 0 3.635-1.627 3.635-3.635v-45.922c0-3.627-2.368-6.829-5.837-7.892z" fill="#dfdde2"/><path d="m188.725 241.168c10.101 38.693 58.34 64.704 82.928 64.704s72.828-26.012 82.928-64.706v-68.985h-165.856z" fill="#ffece4"/><path d="m314.581 172.181v48.985c-10.1 38.694-58.34 64.706-82.928 64.706-3.577 0-7.654-.551-12.041-1.61 17.613 13.655 38.444 21.61 52.041 21.61 24.588 0 72.829-26.012 82.928-64.706v-68.985z" fill="#ffddce"/><path d="m396.109 145.351h-9.061v23.196c0 2.007-1.627 3.635-3.635 3.635h-2.899v35.813h15.594c8.803 0 15.94-7.136 15.94-15.94v-30.765c.001-8.803-7.136-15.939-15.939-15.939z" fill="#afaab4"/><path d="m156.257 168.547v-23.196h-9.06c-8.803 0-15.94 7.136-15.94 15.94v30.764c0 8.803 7.136 15.94 15.94 15.94h15.594v-35.813h-2.899c-2.007-.001-3.635-1.628-3.635-3.635z" fill="#afaab4"/><path d="m305.591 40.887-33.938 15-33.938-15 19.985-32.162c.473-.762 1.306-1.225 2.203-1.225h23.499c.897 0 1.73.463 2.203 1.225z" fill="#f1f1f4"/><g fill="#c6c1c8"><path d="m375.97 113.126-93.152-28.545c-7.276-2.23-15.054-2.23-22.33 0l-93.152 28.545c10.194-34.105 36.657-61.189 70.382-72.243l33.935 15.005 33.938-15c33.725 11.054 60.185 38.132 70.379 72.238z"/><path d="m162.791 249.623c0 9.394 5.781 17.819 14.546 21.199l11.388 4.391v-103.032h-25.934z"/><path d="m354.582 172.181v103.031l11.387-4.391c8.765-3.38 14.546-11.805 14.546-21.199v-77.442h-25.933z"/></g><path d="m468.912 426.645-74.952 24.777v-126.655c0-6.108 4.951-11.059 11.059-11.059h12.584c37.063 0 67.109 30.046 67.109 67.109v23.966c-.002 9.932-6.37 18.744-15.8 21.862z" fill="#f1f1f4"/><path d="m271.653 354.363c-25.622 0-46.393-20.771-46.393-46.393v30c0 25.622 20.771 46.393 46.393 46.393s46.393-20.771 46.393-46.393v-30c0 25.622-20.771 46.393-46.393 46.393z" fill="#665e66"/><path d="m225.26 288.376v19.593c0 25.622 20.771 46.393 46.393 46.393s46.393-20.771 46.393-46.393v-19.593c-16.264 11.125-34.225 17.496-46.393 17.496-12.168.001-30.129-6.37-46.393-17.496z" fill="#ffece4"/><path d="m393.959 451.422v-123.714 156.792c0 11.046-8.954 20-20 20h85.751v-74.813z" fill="#c6c1c8"/><path d="m111.422 472.187h-71.209v-254.958l35.605-40.556 35.604 40.556z" fill="#f1f1f4"/><path d="m75.818 176.673-6.221 7.086 1.273 1.45c6.802 7.748 10.552 17.705 10.552 28.015v206.467c0 17.947-14.549 32.496-32.496 32.496h-8.713v20h71.209v-254.958z" fill="#dfdde2"/><path d="m27.289 472.187h97.058v32.313h-97.058z" fill="#665e66"/><path d="m138.288 313.708h-12.584c-4.901 0-9.68.526-14.282 1.523v123.654l37.924 12.537v-126.655c.001-6.108-4.95-11.059-11.058-11.059z" fill="#f1f1f4"/><path d="m169.347 504.5c-11.046 0-20-8.954-20-20v-33.078l-37.924-12.537v33.302h12.924v32.313z" fill="#c6c1c8"/><path d="m362.053 347.65c0 49.926-40.473 90.4-90.4 90.4s-90.4-40.473-90.4-90.4v-24.763c0-12.522 10.151-22.673 22.674-22.673h21.334v37.757c0 25.622 20.771 46.393 46.393 46.393s46.393-20.771 46.393-46.393v-37.757h21.333c12.522 0 22.674 10.151 22.674 22.673z" fill="#f1f1f4"/><path d="m339.38 300.213h-17.483c.103.877.156 1.769.156 2.674v24.763c0 49.927-40.473 90.4-90.4 90.4-6.569 0-12.975-.701-19.146-2.032 15.853 13.727 36.529 22.032 59.146 22.032 49.926 0 90.4-40.473 90.4-90.4v-24.763c0-12.523-10.151-22.674-22.673-22.674z" fill="#dfdde2"/><path d="m362.053 347.65c0 49.926-40.473 90.4-90.4 90.4s-90.4-40.473-90.4-90.4v-19.942h-31.906v156.792c0 11.046 8.954 20 20 20h204.613c11.046 0 20-8.954 20-20v-156.792h-31.906z" fill="#c6c1c8"/><path d="m362.053 327.708v19.942c0 13.354-2.896 26.032-8.094 37.44v51.359c0 26.538-21.514 48.052-48.052 48.052h-156.56c0 11.046 8.954 20 20 20h204.613c11.046 0 20-8.954 20-20v-156.793z" fill="#afaab4"/><path d="m181.253 154.679c4.142 0 7.5-3.358 7.5-7.5v-12.17c0-4.142-3.358-7.5-7.5-7.5s-7.5 3.358-7.5 7.5v12.17c0 4.142 3.358 7.5 7.5 7.5z"/><path d="m211.393 154.679c4.142 0 7.5-3.358 7.5-7.5v-21.41c0-4.142-3.358-7.5-7.5-7.5s-7.5 3.358-7.5 7.5v21.41c0 4.142 3.358 7.5 7.5 7.5z"/><path d="m241.523 154.679c4.142 0 7.5-3.358 7.5-7.5v-30.64c0-4.142-3.358-7.5-7.5-7.5s-7.5 3.358-7.5 7.5v30.64c0 4.142 3.358 7.5 7.5 7.5z"/><path d="m271.653 154.679c4.143 0 7.5-3.358 7.5-7.5v-39.27c0-4.142-3.357-7.5-7.5-7.5s-7.5 3.358-7.5 7.5v39.27c0 4.142 3.357 7.5 7.5 7.5z"/><path d="m301.783 154.679c4.143 0 7.5-3.358 7.5-7.5v-30.64c0-4.142-3.357-7.5-7.5-7.5s-7.5 3.358-7.5 7.5v30.64c0 4.142 3.357 7.5 7.5 7.5z"/><path d="m331.913 154.679c4.143 0 7.5-3.358 7.5-7.5v-21.41c0-4.142-3.357-7.5-7.5-7.5s-7.5 3.358-7.5 7.5v21.41c0 4.142 3.357 7.5 7.5 7.5z"/><path d="m362.053 154.679c4.143 0 7.5-3.358 7.5-7.5v-12.17c0-4.142-3.357-7.5-7.5-7.5s-7.5 3.358-7.5 7.5v12.17c0 4.142 3.358 7.5 7.5 7.5z"/><path d="m311.858 255.221c3.884-1.441 5.863-5.757 4.422-9.641s-5.756-5.866-9.641-4.422c-22.561 8.373-47.411 8.373-69.973 0-3.884-1.441-8.2.539-9.641 4.422s.539 8.2 4.422 9.641c25.928 9.622 54.484 9.623 80.411 0z"/><path d="m27.289 512h432.421c4.143 0 7.5-3.358 7.5-7.5v-69.394l4.056-1.341c12.527-4.142 20.944-15.789 20.944-28.983v-23.966c0-41.14-33.47-74.609-74.609-74.609h-12.583c-8.661 0-15.955 5.964-17.992 14h-17.591c-1.36-15.388-14.321-27.495-30.056-27.495h-13.834v-.456c8.443-6.176 15.69-13.099 21.536-20.503v3.458c0 5.271 5.303 8.887 10.198 6.998l11.387-4.391c11.573-4.462 19.349-15.794 19.349-28.197v-34.128h8.094c12.925 0 23.439-10.515 23.439-23.439v-30.765c0-12.925-10.515-23.439-23.439-23.439h-1.561v-15.227c0-6.968-4.477-13.021-11.139-15.063l-1.486-.455c-2.988-8.85-7.043-17.318-12.083-25.223-2.227-3.493-6.864-4.518-10.355-2.292-3.493 2.227-4.52 6.863-2.293 10.356 2.363 3.707 4.477 7.555 6.332 11.521l-78.509-24.057c-8.742-2.679-17.982-2.679-26.725 0l-78.52 24.062c11.349-24.331 32.02-43.354 57.595-52.538l31.255 13.814c1.932.853 4.133.854 6.064 0l31.255-13.814c10.69 3.838 20.598 9.425 29.489 16.631 3.235 2.622 7.956 2.095 10.549-1.104 2.608-3.218 2.114-7.941-1.104-10.549-10.336-8.376-21.873-14.848-34.331-19.261l-18.565-29.882c-1.854-2.986-5.059-4.769-8.575-4.769h-23.499c-3.512 0-6.716 1.78-8.573 4.766l-18.57 29.884c-33.66 11.926-59.983 38.677-71.379 72.457l-1.485.455c-6.663 2.041-11.139 8.094-11.139 15.063v15.227h-1.561c-12.925 0-23.439 10.515-23.439 23.439v30.764c0 12.925 10.515 23.44 23.439 23.44h8.094v34.128c0 12.403 7.775 23.734 19.348 28.197l11.388 4.392c4.904 1.89 10.198-1.729 10.198-6.998v-3.457c5.846 7.403 13.092 14.326 21.535 20.501v.456h-13.833c-15.735 0-28.696 12.107-30.055 27.495h-17.591c-2.037-8.036-9.331-14-17.992-14-10.232 0-14.588-.126-19.366.306v-89.286c0-1.821-.663-3.58-1.864-4.948l-35.604-40.556c-2.98-3.395-8.282-3.406-11.272 0l-35.605 40.555c-1.201 1.369-1.864 3.127-1.864 4.948v13.584c0 4.142 3.358 7.5 7.5 7.5s7.5-3.358 7.5-7.5v-10.759l28.104-32.013 28.104 32.013v244.633h-20.603v-225.66c0-4.142-3.358-7.5-7.5-7.5s-7.5 3.358-7.5 7.5v225.66h-20.604v-198.873c0-4.142-3.358-7.5-7.5-7.5s-7.5 3.358-7.5 7.5v198.874h-5.424c-4.142 0-7.5 3.358-7.5 7.5v32.313c-.001 4.142 3.357 7.5 7.499 7.5zm235.342-497h18.044l13.991 22.516-23.013 10.171-23.014-10.171zm189.58 482h-53.76c1.923-3.752 3.009-8.002 3.009-12.5v-27.658l50.751-16.777zm-50.751-172.233c0-1.962 1.597-3.559 3.559-3.559h12.583c32.869 0 59.609 26.74 59.609 59.609v23.966c0 6.71-4.281 12.634-10.652 14.741-.101 0 2.845-.941-65.099 21.52 0-3.991 0-109.334 0-116.277zm-90.914-16.797c0 21.445-17.447 38.893-38.893 38.893s-38.893-17.447-38.893-38.893v-6.267c13.691 7.349 27.805 11.67 38.893 11.67s25.202-4.321 38.893-11.67zm-.859 38.146c-3.754 17.548-19.382 30.747-38.034 30.747-18.653 0-34.28-13.199-38.034-30.747 21.049 20.987 54.998 21.008 76.068 0zm63.328-96.493c0 6.247-3.916 11.954-9.745 14.201l-1.188.458c0-16.856 0-65.688 0-84.601h10.934c-.001 13.139-.001 53.417-.001 69.942zm23.094-96.772c4.653 0 8.439 3.786 8.439 8.439v30.765c0 4.653-3.786 8.439-8.439 8.439h-8.094v-21.809c3.409-1.554 5.93-4.787 6.441-8.706.133-1.064.092-.069.092-17.128zm-133.424-61.1c5.865-1.798 12.068-1.798 17.936 0 7.818 2.396 87.033 26.67 98.395 30.152.319.098.533.388.533.721v42.057c-10.762 0-205.747 0-215.791 0 0-13.697 0-26.228 0-42.057 0-.333.214-.624.533-.721 1.974-.605 92.57-28.367 98.394-30.152zm-115.488 108.744c-4.653 0-8.439-3.786-8.439-8.44v-30.764c0-4.653 3.786-8.439 8.439-8.439h1.561c0 16.941-.073 16.449.22 17.903.705 3.493 3.067 6.449 6.314 7.931v21.809zm32.838 63.329c-5.828-2.248-9.744-7.955-9.744-14.202 0-16.31 0-56.78 0-69.941h10.934v84.602zm16.19-23.653v-60.49h80.523v29.913c0 2.81-2.286 5.096-5.096 5.096-4.143 0-7.5 3.358-7.5 7.5s3.357 7.5 7.5 7.5c11.081 0 20.096-9.015 20.096-20.096v-29.913h55.333v60.488c-4.824 17.209-18.329 31.805-33.203 41.97-11.419 7.668-28.766 16.233-42.226 16.233-13.428 0-30.857-8.573-42.214-16.224-14.823-10.137-28.372-24.71-33.213-41.977zm-7.472 82.715c0-8.367 6.807-15.173 15.173-15.173h13.833v30.257c0 29.716 24.176 53.893 53.893 53.893s53.893-24.176 53.893-53.893c0-11.844 0-19.35 0-30.257h13.834c8.367 0 15.174 6.807 15.174 15.173 0 27.324.113 27.992-.443 33.389-.425 4.12 2.571 7.805 6.691 8.229 4.13.425 7.805-2.572 8.229-6.691.66-6.394.522-9.965.522-22.605h16.906v149.292c0 6.893-5.607 12.5-12.5 12.5h-94.807v-33.95c0-4.142-3.357-7.5-7.5-7.5s-7.5 3.358-7.5 7.5v33.95h-94.806c-6.893 0-12.5-5.607-12.5-12.5 0-20.008 0-132.669 0-149.292h16.906v12.442c0 53.982 43.917 97.9 97.9 97.9 35.737 0 68.637-19.476 85.858-50.826 1.994-3.63.668-8.19-2.962-10.184-3.63-1.995-8.19-.667-10.185 2.962-14.587 26.553-42.448 43.048-72.712 43.048-45.711 0-82.9-37.189-82.9-82.9.003-8.253.003-16.513.003-24.764zm-50.465-1.678c1.962 0 3.559 1.596 3.559 3.559v116.277l-22.925-7.578v-111.876c4.76-.538 7.586-.382 19.366-.382zm-19.366 128.056 22.925 7.578v27.658c0 4.498 1.086 8.748 3.009 12.5h-13.009v-24.813c0-4.142-3.358-7.5-7.5-7.5h-5.425zm-2.075 30.423v17.313h-82.058v-17.313z"/></svg>