<svg id="Capa_1" enable-background="new 0 0 512 512" height="512" viewBox="0 0 512 512" width="512" xmlns="http://www.w3.org/2000/svg"><path d="m378.792 335.337-69.459-8.694c-3.997-.5-6.996-3.898-6.996-7.927v-32.232c-16.244 11.112-34.183 17.475-46.336 17.475s-30.092-6.363-46.336-17.475v32.232c0 4.028-2.999 7.426-6.996 7.927l-69.459 8.694c-31.9 3.993-55.837 31.112-55.837 63.261v105.902h357.257v-105.902c-.002-32.149-23.938-59.268-55.838-63.261z" fill="#ffece4"/><path d="m378.792 335.337-1.23-.154c10.636 11.441 17.067 26.752 17.067 43.415v78.002c0 15.408-12.491 27.899-27.899 27.899h-289.358v20h357.257v-105.901c-.001-32.149-23.937-59.268-55.837-63.261z" fill="#ffddce"/><path d="m131.679 155.967 24.483 5 .47 6.38c.428 5.809 5.837 9.345 10.894 8.393l3.168 43.023h-2.817c-19.992 0-36.198-16.207-36.198-36.198z" fill="#ffece4"/><path d="m183.613 77.994c9.453-9.869 26.12-3.159 26.12 10.507 0-21.136 16.066-38.931 37.12-40.794 2.596-.23 5.225-.363 7.883-.395 55.53-.68 100.255 43.472 101.765 97.571.253 9.069-6.176 16.957-15.119 18.485l-12.815 2.19c-45.939 7.852-92.233-11.84-118.439-50.38-10.008 27.494-24.162 45.948-38.288 58.445-5.672 5.018-14.652 1.276-15.208-6.276l-.813-11.039c-2.236-30.346 8.633-58.309 27.794-78.314z" fill="#f9f48e"/><path d="m356.501 144.884c-1.275-45.665-33.34-84.242-76.705-94.752 21.804 17.933 35.869 44.82 36.705 74.752.253 9.069-6.176 16.957-15.119 18.485l-12.815 2.19c-17.781 3.039-35.615 1.952-52.316-2.758 25.837 19.748 59.169 28.423 92.316 22.758l12.815-2.19c8.943-1.529 15.373-9.416 15.119-18.485z" fill="#f6e738"/><path d="m171.839 173.624c14.127-12.497 28.28-30.951 38.289-58.445 26.206 38.54 72.5 58.232 118.439 50.38l12.815-2.19c1.435-.245 2.805-.654 4.093-1.205l-4.921 66.815c-3.262 44.288-57.862 74.98-84.554 74.98-26.693 0-81.292-30.692-84.554-74.98l-3.919-53.22c1.517-.286 3.003-.977 4.312-2.135z" fill="#ffece4"/><path d="m341.382 163.369-12.815 2.19c-8.34 1.425-16.692 1.943-24.933 1.605l-3.08 41.815c-3.262 44.288-57.862 74.98-84.554 74.98-3.566 0-7.629-.548-12.002-1.602 17.597 13.65 38.415 21.602 52.002 21.602 26.692 0 81.292-30.692 84.554-74.98l4.921-66.815c-1.288.55-2.658.959-4.093 1.205z" fill="#ffddce"/><path d="m380.322 155.967-32.53 5c-.737.451-1.511.851-2.317 1.196l-4.168 56.6h2.817c19.992 0 36.198-16.207 36.198-36.198z" fill="#ffece4"/><path d="m174.794 88.568c2.698-3.726 5.644-7.259 8.819-10.574 9.453-9.869 26.12-3.159 26.12 10.507 0-20.254 14.753-37.439 34.51-40.477-1.984-22.709-21.047-40.524-44.272-40.524-24.545 0-44.442 19.897-44.442 44.442 0 15.197 7.629 28.612 19.265 36.626z" fill="#f9f48e"/><path d="m199.971 7.5c-3.684 0-7.264.449-10.687 1.294 9.938 10.392 9.028 27.783-3.028 36.765-11.677 8.698-18.478 23.494-16.024 39.407 1.439 1.296 2.962 2.5 4.562 3.602 2.698-3.726 5.644-7.259 8.819-10.574 9.453-9.869 26.12-3.159 26.12 10.507 0-20.254 14.752-37.439 34.51-40.477-1.984-22.709-21.047-40.524-44.272-40.524z" fill="#f6e738"/><path d="m373.118 450.299-1.253-25.253-115.865-23.458-115.865 23.458-1.253 25.253 117.118-23.711z" fill="#f1f1f4"/><path d="m373.118 450.299-117.118-23.711-117.118 23.711-1.61 32.452c-.587 11.833 8.849 21.748 20.696 21.748h196.064c11.847 0 21.283-9.916 20.696-21.748z" fill="#e2f4b4"/><path d="m333.118 430.299.597 12.023 39.403 7.977-1.253-25.253-39.403-7.978z" fill="#dfdde2"/><path d="m374.728 482.752-1.61-32.452-39.404-7.977.219 4.423c1.019 20.542-15.361 37.755-35.928 37.755h-160.747c.371 11.045 9.451 20 20.71 20h196.064c11.847-.001 21.283-9.917 20.696-21.749z" fill="#c8ea73"/><g fill="#f1f1f4"><path d="m378.792 335.337c10.641 1.332 20.396 5.237 28.671 11.044 7.498-6.493 15.03-13.494 22.486-20.95 55.757-55.757 86.138-115.775 67.859-134.054s-78.298 12.102-134.054 67.859c-22.819 22.82-41.388 46.353-54.111 67.446z"/><path d="m434.628 404.592v78.673c35.399 8.438 62.705 6.603 68.626-6.768 7.548-17.045-22.141-47.224-68.626-71.905z"/><path d="m133.209 335.337c-10.641 1.332-20.396 5.237-28.671 11.044-7.498-6.493-15.03-13.494-22.486-20.95-55.757-55.757-86.139-115.775-67.859-134.055s78.298 12.102 134.054 67.859c22.819 22.82 41.388 46.353 54.111 67.446z"/><path d="m77.372 404.592v78.673c-35.399 8.438-62.705 6.603-68.626-6.768-7.548-17.045 22.142-47.224 68.626-71.905z"/></g><path d="m286.03 340.958c-3.363-2.417-8.05-1.651-10.468 1.713l-12.19 16.963c-3.178 4.422-11.567 4.421-14.744 0l-12.19-16.963c-2.419-3.365-7.105-4.13-10.468-1.713s-4.131 7.104-1.714 10.467l12.19 16.963c9.166 12.752 29.957 12.73 39.107 0l12.19-16.963c2.418-3.363 1.651-8.05-1.713-10.467z"/><path d="m250.913 172.759c0-4.142-3.357-7.5-7.5-7.5h-35.674c-4.143 0-7.5 3.358-7.5 7.5s3.357 7.5 7.5 7.5h35.674c4.143 0 7.5-3.358 7.5-7.5z"/><path d="m226.912 251.014c-1.556 3.839.295 8.212 4.134 9.768 16.091 6.521 33.816 6.522 49.908 0 3.839-1.556 5.689-5.929 4.134-9.768-1.555-3.838-5.928-5.69-9.769-4.134-12.457 5.049-26.182 5.049-38.639 0-3.843-1.556-8.212.295-9.768 4.134z"/><path d="m323.092 133.524c-26.234 4.484-53.996-3.166-74.491-22.876-2.987-2.872-7.733-2.778-10.605.207-2.871 2.985-2.778 7.733.207 10.604 23.975 23.056 56.527 32.132 87.417 26.85 4.083-.698 6.827-4.573 6.129-8.656s-4.563-6.83-8.657-6.129z"/><path d="m494.605 438.205c-12.293-12.764-30.817-26.195-52.478-38.087v-1.52c0-20.572-8.832-39.346-23.08-52.455 29.664-26.808 61.455-63.184 79.285-98.407 18.456-36.459 12.785-53.657 4.778-61.664-32.985-32.981-141.233 48.185-193.275 126.316v-22.025c20.311-14.86 36.374-36.074 38.197-60.835l.255-3.464c22.149-2.104 39.533-20.81 39.533-43.5v-26.597c0-4.593-4.095-8.108-8.64-7.413l-15.794 2.428c.458-2.034.672-4.149.612-6.307-.329-11.777-2.564-23.328-6.645-34.334-1.439-3.884-5.755-5.868-9.639-4.425-3.884 1.439-5.865 5.755-4.426 9.639 3.509 9.466 5.432 19.404 5.715 29.539.148 5.313-3.672 9.992-8.887 10.883l-12.814 2.19c-42.926 7.334-86.487-11.192-110.974-47.205-3.434-5.048-11.162-4.086-13.25 1.652-8.321 22.862-20.504 41.499-36.209 55.393-1.032.911-2.658.17-2.761-1.209-.272-3.701-.54-7.339-.813-11.039-1.986-26.976 7.392-53.428 25.731-72.576 3.321-3.465 7.257-2.257 8.384-1.804 1.13.454 4.819 2.31 4.819 7.123 0 4.142 3.357 7.5 7.5 7.5s7.5-3.358 7.5-7.5c0-17.184 13.301-31.821 30.282-33.323 30.731-2.723 59.405 9.617 78.452 31.34 2.732 3.114 7.471 3.425 10.584.694 3.115-2.731 3.426-7.469.695-10.584-21.704-24.753-53.53-38.323-86.729-36.689-5.461-23.104-26.198-39.94-50.542-39.94-28.641 0-51.941 23.301-51.941 51.942 0 14.599 6.138 28.4 16.709 38.165-11.375 18.184-17.255 39.619-16.661 61.554l-14.898-3.042c-4.647-.949-9.001 2.606-9.001 7.348v26.597c0 22.69 17.384 41.396 39.533 43.5l.255 3.464c1.825 24.78 17.894 45.98 38.197 60.835v22.025c-52.1-78.218-160.316-159.267-193.275-126.316-22.553 22.554 9.223 77.648 43.286 117.974 2.673 3.165 7.404 3.563 10.569.89 3.164-2.673 3.563-7.405.89-10.569-19.015-22.511-33.717-45.189-41.398-63.858-6.675-16.223-7.699-28.87-2.739-33.83 11.604-11.604 64.185 8.596 123.447 67.859 18.427 18.427 34.411 37.653 46.742 56.171l-21.802 2.729-.834-14.625c-.235-4.135-3.781-7.286-7.915-7.061-4.136.236-7.297 3.779-7.062 7.915l.543 9.524-15.902-15.902c-.503-.718-1.128-1.343-1.846-1.846l-27.796-27.796-1.514-26.308c-.237-4.136-3.801-7.284-7.918-7.057-4.136.238-7.295 3.783-7.057 7.918l.547 9.505-20.699-20.699c-2.93-2.929-7.678-2.929-10.607 0s-2.929 7.678 0 10.606l52.523 52.523-12.716.033c-4.143.011-7.491 3.377-7.48 7.52.011 4.136 3.366 7.48 7.5 7.48 2.735 0-10.079.026 27.657-.073l11.927 11.927-6.958.871c-9.792 1.225-18.92 4.417-27.01 9.145-6.052-5.389-12.06-11.061-17.912-16.913-2.928-2.929-7.677-2.928-10.606 0-2.929 2.929-2.929 7.678.001 10.607 5.301 5.301 10.728 10.461 16.203 15.409-14.248 13.109-23.08 31.883-23.08 52.455v1.52c-21.661 11.892-40.184 25.323-52.478 38.087-19.142 19.877-18.998 33.447-15.506 41.331 4.791 10.82 18.025 16.364 37.821 16.364 8.81 0 18.92-1.099 30.162-3.319v11.921c0 4.142 3.357 7.5 7.5 7.5h357.256c4.143 0 7.5-3.358 7.5-7.5v-11.922c11.243 2.221 21.352 3.319 30.163 3.319 19.792 0 33.029-5.545 37.82-16.363 3.492-7.884 3.636-21.453-15.506-41.329zm-331.576-386.263c0-20.37 16.572-36.942 36.941-36.942 16.816 0 31.417 11.604 35.682 27.376-13.299 4.299-23.924 14.185-29.381 26.706-9.08-5.451-20.661-4.015-28.074 3.725-1.572 1.641-3.087 3.328-4.544 5.058-6.744-6.853-10.624-16.136-10.624-25.923zm206.028 212.597c59.263-59.261 111.844-79.464 123.447-67.859 11.606 11.606-8.595 64.184-67.858 123.448-5.853 5.852-11.86 11.525-17.912 16.913-8.089-4.729-17.218-7.92-27.01-9.145l-6.957-.871 11.927-11.927c.134 0 27.77.073 27.656.073 4.133 0 7.489-3.345 7.5-7.48.011-4.142-3.338-7.509-7.48-7.52l-12.715-.033 52.523-52.523c2.929-2.929 2.929-7.678 0-10.606-2.93-2.929-7.678-2.929-10.607 0l-20.7 20.7.547-9.506c.238-4.135-2.921-7.68-7.057-7.918-4.113-.238-7.68 2.921-7.918 7.057l-1.514 26.309-27.794 27.794c-.719.503-1.344 1.13-1.848 1.848l-15.901 15.901.543-9.524c.235-4.135-2.926-7.679-7.062-7.915-4.113-.24-7.678 2.925-7.915 7.061l-.834 14.625-21.802-2.729c12.329-18.52 28.312-37.746 46.741-56.173zm3.764-81.975c0 14.017-10.102 25.719-23.407 28.209l3.164-42.953 20.243-3.112zm-233.642 0v-17.411l9.92 2.026.053.719c.504 6.833 4.999 12.477 11.353 14.628l2.081 28.247c-13.306-2.49-23.407-14.192-23.407-28.209zm39.747 45.863c-4.862-66.005-2.748-37.303-3.54-48.058.49-.347.966-.724 1.424-1.129 14.619-12.933 26.465-29.399 35.323-49.071 15.351 18.046 35.327 31.198 57.361 38.364-5.069 3.435-8.407 9.241-8.407 15.812v22.83c0 2.253-1.833 4.087-4.087 4.087-4.143 0-7.5 3.358-7.5 7.5s3.357 7.5 7.5 7.5c10.524 0 19.087-8.563 19.087-19.087v-22.83c0-2.253 1.833-4.087 4.087-4.087h24.087c3.465 0 6.38-2.349 7.241-5.542 10.388-.237 16.793-1.503 25.751-3.034-.515 6.99-3.478 47.22-4.179 56.744-1.729 23.482-19.881 40.577-30.547 48.676-12.275 9.322-32.071 19.355-46.527 19.355s-34.252-10.033-46.527-19.355c-10.666-8.098-28.818-25.192-30.547-48.675zm-163.322 245.033c-2.633-5.945 4.78-16.735 12.595-24.85 9.917-10.297 24.462-21.178 41.674-31.253v24.222l-19.886 8.697c-3.795 1.66-5.526 6.082-3.867 9.877 1.665 3.806 6.094 5.521 9.877 3.866l13.876-6.068v19.313c-31.602 6.663-51.11 3.332-54.269-3.804zm142.365 23.54c-7.553 0-13.583-6.305-13.206-13.877l1.321-26.63 109.916-22.253 46.772 9.47c4.06.82 8.018-1.803 8.839-5.863.822-4.06-1.803-8.017-5.862-8.839l-48.261-9.771c-.982-.198-1.994-.198-2.977 0l-107.661 21.797.486-9.794 108.664-22 108.663 21.999.486 9.794-21.844-4.422c-4.058-.82-8.018 1.803-8.839 5.863-.822 4.06 1.803 8.017 5.862 8.839l25.587 5.18 1.321 26.629c.375 7.544-5.624 13.877-13.205 13.877h-196.062zm221.016 0c2.363-4.435 3.491-9.442 3.235-14.62-3.231-65.111-2.854-55.729-2.854-61.76 0-5.186 2.02-10.061 5.687-13.728 2.93-2.929 2.93-7.678.001-10.607-2.929-2.928-7.678-2.929-10.606 0-5.384 5.383-8.765 12.236-9.767 19.653l-107.191-21.701c-.982-.198-1.994-.198-2.977 0l-107.191 21.701c-1.002-7.417-4.382-14.269-9.765-19.653-2.929-2.928-7.678-2.929-10.606 0-2.93 2.929-2.93 7.678-.001 10.607 3.667 3.667 5.687 8.542 5.687 13.728 0 5.639.432-4.464-2.854 61.761-.256 5.178.872 10.185 3.236 14.62h-48.147c0-.1 0-79.729 0-98.402 0-28.307 21.181-52.304 49.268-55.819 110.902-13.881 50.94-6.008 69.301-8.674 8.17-1.021 13.724-7.819 13.724-15.388v-18.908c13.612 7.306 27.699 11.649 38.836 11.649s25.224-4.343 38.836-11.649v18.907c0 7.565 5.549 14.367 13.716 15.387l69.309 8.675c28.087 3.516 49.268 27.513 49.268 55.819v98.402zm117.411-23.54c-3.162 7.135-22.666 10.466-54.269 3.804v-19.313l13.876 6.069c3.785 1.656 8.213-.063 9.876-3.866 1.66-3.795-.07-8.217-3.866-9.877l-19.886-8.697v-24.222c17.212 10.074 31.756 20.956 41.674 31.253 7.815 8.114 15.228 18.904 12.595 24.849z"/></svg>