<svg id="Capa_1" enable-background="new 0 0 512 512" height="512" viewBox="0 0 512 512" width="512" xmlns="http://www.w3.org/2000/svg"><path d="m375.769 315.767-116.687 188.733h218.942v-131.082c0-31.84-25.811-57.651-57.651-57.651z" fill="#8993da"/><path d="m424.136 315.888c8.657 10.085 13.888 23.197 13.888 37.53v90.003c0 22.688-18.392 41.08-41.08 41.08h-125.497l-12.365 20h218.942v-131.083c0-30.575-23.802-55.592-53.888-57.53z" fill="#707dd3"/><path d="m139.001 315.767c-12.244 0-23.597 3.817-32.933 10.326v151.094h18.966v27.313h104.907l35.175-56.894-81.512-131.84h-44.603z" fill="#8993da"/><path d="m125.034 484.5v20h104.907l12.365-20z" fill="#707dd3"/><g fill="#fff1dd"><path d="m222.508 315.767c4.556 0 8.25-3.694 8.25-8.25v-33.231c17.153 11.733 36.096 18.453 48.929 18.453s31.776-6.719 48.929-18.453v33.231c0 4.556 3.694 8.25 8.25 8.25h9.762l-66.941 108.272-66.941-108.272z"/><path d="m372.741 202.775h-2.974l4.495-61.03h16.146c11.353 0 20.557 9.204 20.557 20.557v2.248c-.001 21.112-17.114 38.225-38.224 38.225z"/><path d="m186.633 202.775h2.975l-4.495-61.03h-16.146c-11.354 0-20.557 9.204-20.557 20.557v2.248c-.001 21.112 17.112 38.225 38.223 38.225z"/></g><path d="m259.082 504.5 116.687-188.733h-29.141l-116.687 188.733z" fill="#dfdde2"/><path d="m242.306 484.5-12.365 20h29.141l12.365-20z" fill="#c6c1c8"/><path d="m279.687 424.039-66.941-108.272h-29.142l81.512 131.839z" fill="#f1f1f4"/><path d="m320.981 86.04 17.551 38.927c4.604 10.213 14.767 16.778 25.97 16.778h14.629l1.134-15.399c2.076-28.191-7.225-56.22-26.397-76.992-2.599-2.816-5.325-5.462-8.167-7.933-1.849-1.608-4.637-1.49-6.37.243l-12.523 12.523c-8.375 8.375-10.694 21.057-5.827 31.853z" fill="#665e66"/><path d="m353.868 49.354c-2.599-2.816-5.325-5.462-8.167-7.932-1.849-1.608-4.637-1.49-6.37.243l-7.506 7.506c13.749 19.371 20.204 43.215 18.44 67.176l-.06.81c-.421 5.716-3.857 10.533-8.683 12.94 5.296 7.229 13.788 11.649 22.98 11.649h14.629l1.134-15.399c2.076-28.191-7.225-56.221-26.397-76.993z" fill="#544f57"/><path d="m220.841 124.967 17.551-38.927c4.868-10.796 2.548-23.478-5.826-31.852l-12.523-12.523c-1.733-1.733-4.521-1.851-6.37-.243-2.844 2.473-5.573 5.121-8.174 7.94-19.167 20.772-28.465 48.799-26.389 76.986l1.134 15.397h14.629c11.201.001 21.364-6.565 25.968-16.778z" fill="#665e66"/><path d="m285.138 55.562h-10.902c-8.424 0-15.51-6.316-16.475-14.685l-2.725-23.636c-.598-5.189 3.459-9.741 8.682-9.741h31.937c5.223 0 9.281 4.552 8.682 9.741l-2.725 23.636c-.964 8.369-8.05 14.685-16.474 14.685z" fill="#665e66"/><path d="m364.502 141.746c-11.203 0-21.365-6.566-25.97-16.779l-17.551-38.927c-4.868-10.796-2.548-23.479 5.826-31.853l12.073-12.073c-10.297-8.07-22.297-14.094-35.401-17.428l-1.867 16.191c-.965 8.369-8.051 14.685-16.475 14.685h-10.902c-8.424 0-15.51-6.316-16.475-14.685l-1.867-16.191c-13.105 3.334-25.104 9.358-35.402 17.428l12.073 12.073c8.374 8.374 10.694 21.056 5.826 31.852l-17.551 38.927c-4.605 10.213-14.767 16.779-25.97 16.779h-9.759l5.289 71.816c3.444 46.767 61.099 79.176 89.285 79.176s85.841-32.409 89.285-79.176l5.289-71.816h-9.756z" fill="#fff1dd"/><path d="m374.261 141.746-5.289 71.816c-3.444 46.767-61.099 79.176-89.285 79.176-14.063 0-35.462-8.068-53.803-21.962 5.038 1.29 9.715 1.962 13.78 1.962 28.295 0 86.174-32.535 89.631-79.483l5.62-76.31 3.617 8.022c4.604 10.213 14.767 16.779 25.97 16.779zm-47.952-87.047c.164-.172 12.572-12.585 12.572-12.585-10.297-8.07-22.297-14.094-35.401-17.428l-.012.101c9.451 8.349 17.243 18.511 22.841 29.912z" fill="#ffe4c1"/><path d="m106.068 477.187h-53.126v-319.602c0-41.893 19.672-81.354 53.126-106.569z" fill="#f1f1f4"/><path d="m33.976 477.187h91.058v27.313h-91.058z" fill="#f9f48e"/><path d="m106.068 266.5c4.142 0 7.5-3.357 7.5-7.5v-207.984c0-6.174-7.076-9.71-12.014-5.989-35.136 26.482-56.112 68.561-56.112 112.559v312.102h-11.466c-4.142 0-7.5 3.357-7.5 7.5v27.312c0 4.143 3.358 7.5 7.5 7.5h444.048c4.142 0 7.5-3.357 7.5-7.5v-75.177c0-4.143-3.358-7.5-7.5-7.5s-7.5 3.357-7.5 7.5v67.677h-54.345v-82.677c0-4.143-3.358-7.5-7.5-7.5s-7.5 3.357-7.5 7.5v82.677h-128.642l107.414-173.733h40.422c27.654 0 50.151 22.498 50.151 50.151v20.905c0 4.143 3.358 7.5 7.5 7.5s7.5-3.357 7.5-7.5v-20.905c0-35.925-29.227-65.151-65.151-65.151-19.196 0-53.123 0-83.507 0-.414 0-.75-.337-.75-.75v-29.348c21.275-15.52 38.405-37.833 40.336-64.057l.295-4.011c23.343-2.036 41.717-21.687 41.717-45.549v-2.249c0-15.471-12.586-28.057-28.057-28.057h-3.204l.541-7.349c2.449-33.257-9.929-67.487-37.121-91.135-3.137-2.727-7.339-3.559-11.133-2.548-8.565-6.079-17.889-10.759-27.834-13.972l.132-1.143c1.108-9.603-6.398-18.099-16.133-18.099h-31.937c-9.669 0-17.249 8.43-16.133 18.101l.132 1.142c-9.945 3.213-19.269 7.893-27.834 13.972-3.794-1.011-7.995-.18-11.131 2.548-3.049 2.65-5.998 5.516-8.765 8.515-2.809 3.044-2.619 7.789.426 10.598 3.044 2.81 7.789 2.619 10.598-.426 1.793-1.942 3.672-3.818 5.609-5.601l10.643 10.644c6.131 6.131 7.856 15.562 4.292 23.466l-17.551 38.927c-3.385 7.51-10.895 12.361-19.132 12.361h-7.661l-.622-8.447c-1.063-14.435 1.131-29.095 6.344-42.396 1.511-3.856-.39-8.208-4.246-9.719-3.858-1.514-8.208.389-9.72 4.246-6.027 15.377-8.564 32.312-7.337 48.971l.541 7.347h-3.204c-15.471 0-28.057 12.586-28.057 28.057v2.249c0 23.862 18.374 43.513 41.717 45.549l.295 4.011c1.93 26.196 19.012 48.505 40.336 64.056v29.348c0 .413-.336.75-.75.75-7.412 0-74.84 0-83.507 0-8.84 0-17.45 1.758-25.433 5.148v-19.417c0-4.143-3.358-7.5-7.5-7.5s-7.5 3.357-7.5 7.5v175.687h-11.563v-307.215c0-4.143-3.358-7.5-7.5-7.5s-7.5 3.357-7.5 7.5v307.215h-11.563v-312.102c0-34.005 14.023-66.728 38.126-90.259v191.674c0 4.143 3.358 7.5 7.5 7.5zm-64.592 218.187h76.058v12.313h-76.058zm213.425 12.313h-11.506c16.555-26.777 91.729-148.365 107.414-173.733h11.506zm-46.336-173.733 62.304 100.772-5.753 9.305-68.056-110.077zm194.899-160.964v2.249c0 15.194-11.086 27.846-25.594 30.295l3.358-45.601h9.178c7.201 0 13.058 5.858 13.058 13.057zm-30.679-36.507-.622 8.449h-7.661c-8.237 0-15.747-4.852-19.132-12.361l-17.551-38.927c-3.564-7.904-1.839-17.335 4.292-23.466l10.643-10.644c21.725 19.984 32.128 48.475 30.031 76.949zm-109.067-110.796h31.937c.751 0 1.316.652 1.232 1.382-3.187 27.639-.927 8.038-2.725 23.636-.529 4.586-4.408 8.044-9.024 8.044h-10.902c-4.616 0-8.495-3.458-9.024-8.044-.888-7.702-2.219-19.249-2.725-23.636-.086-.739.488-1.382 1.231-1.382zm-107.809 149.552v-2.249c0-7.199 5.857-13.057 13.057-13.057h9.179l3.358 45.601c-14.508-2.449-25.594-15.101-25.594-30.295zm41.973 48.459c-.897-12.175-3.072-41.703-4.697-63.766h1.686c14.125 0 27.002-8.319 32.807-21.195l17.551-38.928c6.111-13.554 3.153-29.725-7.36-40.238l-5.8-5.8c5.484-3.512 11.301-6.384 17.407-8.591l.835 7.244c1.402 12.157 11.687 21.325 23.925 21.325h10.902c12.238 0 22.524-9.168 23.926-21.325l.835-7.244c6.105 2.208 11.922 5.079 17.406 8.591l-5.8 5.8c-10.514 10.514-13.471 26.684-7.36 40.238 0 .1-.947-2.1 17.551 38.928 5.805 12.876 18.683 21.195 32.807 21.195h1.686c-4.904 66.592 1.377-18.698-4.696 63.766-1.838 24.961-21.101 43.108-32.42 51.704-13.017 9.885-34.023 20.523-49.385 20.523s-36.368-10.639-49.385-20.523c-11.32-8.596-30.583-26.743-32.421-51.704zm81.805 87.227c11.865 0 26.926-4.7 41.429-12.584v19.862c0 7.498 5.266 13.788 12.294 15.368l-53.722 86.892-53.723-86.892c7.028-1.58 12.294-7.87 12.294-15.368v-19.863c14.501 7.885 29.563 12.585 41.428 12.585zm-166.119 29.944c7.685-4.535 16.402-6.916 25.433-6.916h40.422l76.875 124.339-30.539 49.395h-67.565v-82.677c0-4.143-3.358-7.5-7.5-7.5s-7.5 3.357-7.5 7.5v82.677h-10.661v-19.813c0-4.143-3.358-7.5-7.5-7.5h-11.465z"/><path d="m274.8 155.474c0-4.143-3.358-7.5-7.5-7.5h-37.066c-4.142 0-7.5 3.357-7.5 7.5s3.358 7.5 7.5 7.5h37.066c4.142 0 7.5-3.358 7.5-7.5z"/><path d="m272.187 204.651c0 4.143 3.358 7.5 7.5 7.5 10.965 0 19.886-8.921 19.886-19.887v-24.405c0-2.694 2.192-4.886 4.887-4.886h24.68c4.142 0 7.5-3.357 7.5-7.5s-3.358-7.5-7.5-7.5h-24.68c-10.965 0-19.887 8.921-19.887 19.886v24.405c0 2.694-2.192 4.887-4.886 4.887-4.142 0-7.5 3.358-7.5 7.5z"/><path d="m303.625 232.343h-47.877c-4.142 0-7.5 3.357-7.5 7.5s3.358 7.5 7.5 7.5h47.877c4.142 0 7.5-3.357 7.5-7.5s-3.357-7.5-7.5-7.5z"/></svg>