<svg id="Capa_1" enable-background="new 0 0 512 512" height="512" viewBox="0 0 512 512" width="512" xmlns="http://www.w3.org/2000/svg"><path d="m381.958 380.208v124.292h-251.915v-124.292l2.281.159c47.131 3.287 91.291 24.216 123.676 58.616l1.048-1.096c32.65-34.133 76.962-54.71 124.106-57.63z" fill="#f1f1f4"/><path d="m153.535 164.993h5.863l.455 6.173c.414 5.621 5.648 9.042 10.541 8.121l3.066 41.629h-2.725c-19.344 0-35.025-15.681-35.025-35.025v-3.071c-.001-9.846 7.98-17.827 17.825-17.827z" fill="#ffece4"/><path d="m185.96 84.71c9.146-9.549 25.273-3.057 25.273 10.166 0-20.451 15.545-37.669 35.917-39.471 2.512-.222 5.056-.351 7.628-.382 53.73-.658 97.005 42.063 98.467 94.408.245 8.775-5.976 16.407-14.629 17.886l-12.4 2.119c-44.45 7.597-89.243-11.456-114.6-48.747-9.684 26.603-23.378 44.459-37.047 56.55-5.488 4.855-14.177 1.235-14.715-6.073l-.787-10.681c-2.163-29.363 8.353-56.419 26.893-75.775z" fill="#8993da"/><path d="m174.568 177.239c13.669-12.092 27.364-29.947 37.047-56.55 25.356 37.291 70.15 56.344 114.6 48.747l12.4-2.119c1.388-.237 2.714-.633 3.96-1.166l-4.761 64.649c-3.156 42.853-55.986 72.55-81.813 72.55s-78.657-29.697-81.813-72.55l-3.792-51.494c1.468-.278 2.905-.946 4.172-2.067z" fill="#ffece4"/><path d="m338.615 167.316-12.4 2.119c-8.522 1.457-17.057 1.933-25.465 1.49l-2.937 39.873c-3.156 42.853-55.986 72.55-81.813 72.55-3.268 0-6.968-.476-10.944-1.393 17.157 13.507 37.636 21.393 50.944 21.393 25.827 0 78.657-29.697 81.813-72.55l4.761-64.649c-1.245.534-2.571.93-3.959 1.167z" fill="#ffddce"/><path d="m358.466 164.993h-13.65c-.713.436-1.462.824-2.242 1.157l-4.033 54.765h2.726c19.344 0 35.025-15.681 35.025-35.025v-3.071c0-9.845-7.981-17.826-17.826-17.826z" fill="#ffece4"/><path d="m338.541 220.916-.728 9.883c-1.548 21.018-15.045 38.87-31.445 51.607.001-.001.002-.001.003-.002v29.138c0 4.379 3.26 8.073 7.605 8.617l22.87 2.863c14.249-6.287 27.357-15.197 38.583-26.422l20.096-20.096h-26.397c-16.893 0-30.587-13.694-30.587-30.587z" fill="#c67d66"/><path d="m175.154 323.021 22.871-2.863c4.345-.544 7.605-4.238 7.605-8.617v-29.137c-16.399-12.737-29.895-30.589-31.443-51.605l-.728-9.884v25.001c0 16.893-13.694 30.587-30.587 30.587h-26.397l20.096 20.096c11.226 11.225 24.334 20.135 38.583 26.422z" fill="#c67d66"/><path d="m185.96 84.71c9.146-9.549 25.273-3.057 25.273 10.166 0-20.451 15.545-37.669 35.917-39.471 2.512-.222 5.056-.351 7.628-.382 53.73-.658 97.005 42.063 98.467 94.408.245 8.775-5.976 16.407-14.629 17.886l-12.4 2.119c-44.45 7.597-89.243-11.456-114.6-48.747-9.684 26.603-23.378 44.459-37.047 56.55-5.488 4.855-14.177 1.235-14.715-6.073l-.787-10.681c-2.163-29.363 8.353-56.419 26.893-75.775z" fill="#d09080"/><path d="m211.233 94.876c0-20.451 15.545-37.669 35.917-39.471 2.512-.222 5.056-.351 7.628-.382 25.023-.306 47.779 8.796 65.099 23.898l8.015-46.009c-2.108 4.973-7.035 8.462-12.777 8.462-7.661 0-13.872-6.211-13.872-13.872 0-2.617.725-5.065 1.985-7.154l-46.26-12.848-46.259 12.846c1.26 2.089 1.985 4.536 1.985 7.154 0 7.661-6.211 13.872-13.872 13.872-5.742 0-10.669-3.488-12.777-8.462l8.258 47.409c8.24-1.229 16.93 4.851 16.93 14.557z" fill="#f9f48e"/><path d="m130.043 421.784h-69.326c-19.908 0-34.666-18.483-30.258-37.897l.618-2.722c8.972-39.52 44.101-67.568 84.626-67.568 7.92 0 14.34 6.42 14.34 14.34z" fill="#f1f1f4"/><path d="m381.958 421.784h69.326c19.908 0 34.666-18.483 30.258-37.897l-.618-2.722c-8.972-39.52-44.101-67.568-84.626-67.568-7.92 0-14.34 6.42-14.34 14.34z" fill="#f1f1f4"/><path d="m115.703 313.597c-8.886 0-17.512 1.349-25.66 3.871v59.924c0 13.471-10.921 24.392-24.392 24.392h-33.948c4.4 11.513 15.524 20 29.015 20h69.326v-93.848c-.001-7.919-6.421-14.339-14.341-14.339z" fill="#dfdde2"/><path d="m481.542 383.887-.618-2.722c-7.65-33.699-34.321-59.057-67.139-65.796 13.265 11.727 22.994 27.537 27.139 45.796l.618 2.722c4.407 19.414-10.35 37.897-30.258 37.897h-29.326v20h69.326c19.908 0 34.665-18.483 30.258-37.897z" fill="#dfdde2"/><path d="m61.82 421.784h68.223v82.716h-68.223z" fill="#ffece4"/><path d="m381.958 421.784h68.223v82.716h-68.223z" fill="#ffece4"/><path d="m90.043 421.784v50.84c0 6.559-5.317 11.877-11.877 11.877h-16.346v20h68.223v-82.716h-40z" fill="#ffddce"/><path d="m410.181 421.784v50.84c0 6.559-5.317 11.877-11.877 11.877h-16.346v20h68.223v-82.716h-40z" fill="#ffddce"/><path d="m341.472 323.6c-26.534 17.343-85.472 55.863-85.472 55.863l-85.471-55.863-40.486 5.067v51.54l2.281.159c47.131 3.287 91.291 24.216 123.676 58.616l1.048-1.096c32.65-34.133 76.962-54.711 124.106-57.63l.803-.05v-51.54z" fill="#f9f48e"/><path d="m381.155 380.258c-13.544.839-26.855 3.135-39.723 6.792l.526 50.838c0 25.744-20.87 46.614-46.614 46.614h-165.301v20h251.915v-124.294z" fill="#dfdde2"/><path d="m341.725 323.632-.293 63.418c12.868-3.656 26.178-5.953 39.723-6.792l.803-.05v-51.54z" fill="#f6e738"/><path d="m306.371 311.542v-29.137c-17.038 13.233-37.21 20.945-50.371 20.945s-33.332-7.711-50.37-20.944v29.137l50.37 32.92s39.888-26.069 50.371-32.921z" fill="#ffece4"/><path d="m341.472 323.6-27.495-3.441c-4.345-.544-7.605-4.238-7.605-8.617-10.484 6.852-50.372 32.921-50.372 32.921l-50.37-32.922c0 4.379-3.26 8.073-7.605 8.617l-27.496 3.441 85.471 55.864s58.938-38.52 85.472-55.863z" fill="#f1f1f4"/><path d="m209.304 183.903h34.517c4.142 0 7.5-3.357 7.5-7.5s-3.358-7.5-7.5-7.5h-34.517c-4.142 0-7.5 3.357-7.5 7.5s3.358 7.5 7.5 7.5z"/><path d="m228.929 249.917c-2.723 3.122-2.399 7.859.723 10.582 15.018 13.099 37.676 13.102 52.698 0 3.122-2.723 3.445-7.46.723-10.582-2.723-3.121-7.46-3.443-10.582-.723-9.401 8.199-23.579 8.199-32.979 0-3.124-2.724-7.861-2.4-10.583.723z"/><path d="m320.876 138.2c-25.31 4.327-52.096-3.055-71.868-22.07-2.986-2.872-7.734-2.778-10.604.206-2.871 2.986-2.779 7.733.207 10.604 23.254 22.364 54.831 31.169 84.792 26.045 4.083-.698 6.827-4.573 6.129-8.656-.697-4.083-4.572-6.828-8.656-6.129z"/><circle cx="256.001" cy="32.724" r="7.5"/><path d="m23.145 382.226c-4.967 21.88 9.677 42.953 31.175 46.53v75.744c0 4.143 3.358 7.5 7.5 7.5h388.361c4.142 0 7.5-3.357 7.5-7.5v-75.744c21.522-3.581 36.136-24.675 31.175-46.53l-.618-2.722c-9.688-42.675-47.702-73.408-91.94-73.408-9.373 0-17.385 5.935-20.477 14.244l-15.169-1.899c7.185-4.83 13.898-10.355 20.082-16.539l20.096-20.096c2.145-2.146 2.787-5.371 1.626-8.174s-3.896-4.63-6.929-4.63h-26.396c-12.73 0-23.087-10.357-23.087-23.088v-17.767c21.209-2.38 37.75-20.424 37.75-42.259v-3.071c0-13.597-10.771-24.726-24.229-25.302.84-2.625 1.258-5.42 1.178-8.294-.193-6.936-1.081-13.864-2.637-20.594-.933-4.036-4.965-6.547-8.997-5.618-4.036.934-6.551 4.962-5.618 8.997 1.332 5.76 2.091 11.692 2.257 17.633.14 5.021-3.47 9.441-8.396 10.284l-12.4 2.119c-41.437 7.077-83.494-10.805-107.134-45.571-3.441-5.06-11.165-4.075-13.25 1.651-8.039 22.083-19.804 40.082-34.97 53.498-.148.131-.599.528-1.365.217-.555-.226-.858-.638-.901-1.223-.741-10.06.399 5.417-.787-10.682-1.917-26.033 7.134-51.561 24.831-70.037 3.105-3.242 6.791-2.112 7.846-1.688 1.058.425 4.511 2.162 4.511 6.667 0 4.143 3.358 7.5 7.5 7.5s7.5-3.357 7.5-7.5c0-16.502 12.772-30.559 29.076-32.001 33.288-2.939 64.493 12.44 82.581 39.141 2.324 3.43 6.987 4.326 10.416 2.003 3.43-2.322 4.327-6.985 2.003-10.415-4.352-6.424-9.333-12.269-14.832-17.476l7.304-41.93c.654-3.755-1.612-7.403-5.268-8.48-3.659-1.08-7.539.757-9.026 4.266-1.002 2.363-3.307 3.89-5.873 3.89-4.957 0-8.003-5.44-5.465-9.652 2.564-4.251.358-9.773-4.416-11.1l-46.258-12.846c-1.313-.365-2.701-.365-4.014 0l-46.259 12.847c-4.782 1.329-6.975 6.856-4.416 11.1 2.536 4.208-.503 9.652-5.465 9.652-2.565 0-4.871-1.526-5.873-3.89-1.488-3.51-5.373-5.343-9.026-4.266-3.656 1.077-5.922 4.726-5.268 8.48l7.184 41.237c-1.924 1.067-3.712 2.434-5.296 4.087-19.846 20.719-30.367 49-29.156 78.061-12.963 1.094-23.178 11.994-23.178 25.235v3.071c0 21.834 16.541 39.878 37.75 42.259v17.767c0 12.73-10.357 23.088-23.087 23.088h-26.396c-3.034 0-5.768 1.827-6.929 4.63s-.519 6.028 1.626 8.174l20.096 20.096c6.184 6.184 12.896 11.709 20.082 16.539l-15.169 1.899c-3.092-8.309-11.104-14.244-20.477-14.244-12.177 0-24.055 2.305-35.304 6.851-3.84 1.553-5.696 5.924-4.144 9.765 1.551 3.839 5.92 5.694 9.764 4.144 9.455-3.821 19.442-5.759 29.684-5.759 3.771 0 6.84 3.068 6.84 6.84v86.348h-12.594c-2.631-1.424-7.871-13.139-6.207-29.646.416-4.121-2.589-7.799-6.71-8.214-4.125-.43-7.799 2.588-8.215 6.71-1.141 11.317.308 22.631 3.707 31.149h-7.807c-7.518 0-14.985-13.703-12.641-29.281.616-4.097-2.205-7.916-6.3-8.533-4.098-.613-7.917 2.205-8.533 6.301-1.693 11.255.254 22.722 5.126 31.514-.383 0-1.308 0-1.652 0-15.114 0-26.284-14.029-22.944-28.737l.618-2.722c3.193-14.064 10.154-26.984 20.128-37.363 2.871-2.986 2.776-7.734-.21-10.604-2.987-2.871-7.735-2.775-10.604.21-11.865 12.346-20.145 27.712-23.942 44.438zm196.958-356.704 36.865-10.237 36.866 10.237c-1.24 13.439 10.173 24.73 23.688 23.216l-2.904 16.672c-19.442-13.137-43.204-19.675-68.128-17.475-17.103 1.512-31.84 12.274-38.717 27.803-2.189-1.277-4.608-2.188-7.119-2.667l-4.239-24.332c13.546 1.518 24.925-9.807 23.688-23.217zm222.578 471.478h-53.223v-67.717h53.223zm-53.223-169.064c0-3.771 3.068-6.84 6.84-6.84 36.73 0 69.061 25.379 77.313 61.729l.618 2.722c3.346 14.739-7.862 28.737-22.944 28.737-.252 0-1.218 0-1.652 0 4.872-8.792 6.819-20.26 5.126-31.514-.616-4.096-4.439-6.916-8.532-6.301-4.096.617-6.917 4.437-6.301 8.533 2.348 15.605-5.159 29.281-12.641 29.281h-7.807c3.399-8.519 4.848-19.833 3.707-31.149-.416-4.122-4.092-7.137-8.214-6.71-4.122.415-7.125 4.093-6.71 8.214 1.664 16.506-3.577 28.221-6.207 29.646h-12.594c-.001-71.433-.002-67.435-.002-86.348zm-15 45.323c-8.66.817-17.292 2.214-25.739 4.17-4.035.935-6.549 4.963-5.615 8.998s4.961 6.55 8.999 5.615c7.34-1.699 14.832-2.942 22.355-3.712v108.67h-236.915c0-13.383 0-95.84 0-108.66 43.191 4.388 83.131 24.061 112.997 55.783 2.962 3.146 7.932 3.126 10.881.043 16.8-17.56 35.487-31.241 58.529-41.412 3.79-1.673 5.505-6.101 3.833-9.891-1.673-3.788-6.101-5.503-9.89-3.832-21.631 9.549-41.077 22.733-57.888 39.238-32.044-31.451-73.68-50.802-118.461-55v-37.982l31.187-3.903c88.907 58.108 83.378 54.562 84.259 54.948 1.917.841 4.106.842 6.025 0 .884-.388-4.496 3.061 84.258-54.948l31.187 3.903v37.972zm-182.718-44.756c4.578-1.021 11.365.165 17.045-5.939l43.112 28.178c2.492 1.629 5.713 1.629 8.207 0l43.112-28.178c5.687 6.112 12.366 4.896 17.044 5.939l-64.26 42zm64.261-17.654c12.235 0 28.131-5.395 42.871-14.244v10.878l-42.871 28.02-42.871-28.02v-10.877c14.74 8.848 30.636 14.243 42.871 14.243zm113.128-26.846h8.29l-7.292 7.292c-10.019 10.019-21.597 18.093-34.44 24.022l-20.778-2.601c-.591-.073-1.037-.579-1.037-1.175v-25.538c8.684-7.19 15.724-15.152 20.935-23.583 6.16 12.76 19.23 21.583 34.322 21.583zm-.337-101.184v3.071c0 13.335-9.531 24.485-22.139 26.996l2.975-40.393h8.838c5.694 0 10.326 4.632 10.326 10.326zm-155.173-47.175c14.74 17.219 33.838 29.809 54.898 36.75-4.742 3.398-7.838 8.954-7.838 15.219v22.09c0 2.047-1.665 3.712-3.711 3.712-4.142 0-7.5 3.357-7.5 7.5s3.358 7.5 7.5 7.5c10.317 0 18.711-8.395 18.711-18.712v-22.09c0-2.046 1.665-3.711 3.711-3.711h23.306c3.401 0 6.272-2.263 7.191-5.366 9.932-.241 16.117-1.457 24.466-2.884l-4.021 54.595c-1.392 18.902-13.836 34.634-28.607 46.268-11.584 8.995-31.248 19.333-45.726 19.333-14.472 0-34.13-10.328-45.726-19.333-14.771-11.634-27.216-27.366-28.607-46.268-4.658-63.24-2.924-39.705-3.415-46.366.441-.318.87-.66 1.284-1.027 14.086-12.457 25.516-28.3 34.084-47.21zm-70.41 50.246v-3.071c0-5.33 4.058-9.728 9.246-10.27.78 6.298 5.026 11.423 10.914 13.482l1.978 26.855c-12.607-2.511-22.138-13.661-22.138-26.996zm-8.627 98.113h8.29c15.092 0 28.162-8.823 34.322-21.583 5.211 8.43 12.252 16.393 20.935 23.583v25.538c0 .596-.446 1.102-1.037 1.175l-20.778 2.601c-12.843-5.929-24.422-14.003-34.44-24.021zm-12.039 212.997h-53.223v-67.717h53.223z"/></svg>