<svg id="Filled-Outline" enable-background="new 0 0 512 512" height="512" viewBox="0 0 512 512" width="512" xmlns="http://www.w3.org/2000/svg"><g><g><path d="m371.2800293 447.1201172-3.2800293 48.8798828h-224l-3.2800293-48.8798828c-1.7600098-7.6103516-2.6099854-15.3100586-2.6099854-22.9399414.0000001-26.7700195 10.5300293-52.8203125 29.8900147-72.1801758-9.5600586-4.7802734-14.9799805-15.1298828-13.4699707-25.7099609l1.7199707-14.2900391.9699707-8 .9899902-8.2001953c.3300781-3.25.8100586-5.7099609 1.4599609-7.7998047.5300293-1.6899414 1.1601563-3.1298828 1.8901367-4.5498047 1.6398927-3.1503906 3.7999269-6.1601562 6.4399415-11.4501953h176c3.8300781 7.6601563 6.6199951 10.5297852 8.3200684 16 .6599121 2.0800781 1.1398926 4.5498047 1.4699707 7.7998047l3.6799316 30.4902344c.1700439 1.1796875.25 2.3598633.25 3.5200195 0 9.2998047-5.2299805 17.9399414-13.7199707 22.1899414 24.8800049 24.8798828 35.1899414 60.8300781 27.2800293 95.1201172z" fill="#fad6c6"/><path d="m186.0233459 304c3.3374023 0 5.9606171 2.8488159 5.6858826 6.1748962-.6480103 7.8456421-2.365097 18.0362549-5.0092773 22.98526-3.4399414 6.4199219-8.4299316 12-14.6699219 16.1499023l-4.0300293 2.6899415c-9.5600586-4.7802734-14.9799805-15.1298828-13.4699707-25.7099609l1.7199707-14.2900391.9699707-8z" fill="#eaaa94"/><path d="m192.0004883 80.0009766c-2.9609375 0-5.7700195-1.6513672-7.1557617-4.4228516l-5.2670898-10.5341797c-5.2563477-10.5136719-15.8237305-17.0439453-27.5776368-17.0439453v-16c9.722168 0 18.909668 2.9414063 26.5512695 8.1992188-1.2148437-4.8017579-5.515625-8.1992188-10.5512695-8.1992188v-16c13.1977539 0 24.3515625 9.4482422 26.5214844 22.4667969l5.3696289 32.2177734c.6508789 3.9052734-1.6523438 7.6992188-5.4169922 8.9228516-.8183594.2666015-1.6518555.3935547-2.4736328.3935547z" fill="#fcc200"/><g><path d="m363.6447754 379.6196289c-4.8974609-10.0961914-11.480957-19.4560547-19.6447754-27.6196289s-24 24-88 24-88-24-88-24c-8.1638184 8.1635742-14.7473145 17.5234375-19.6447754 27.6196289 11.1427002 8.3735352 44.3829346 28.3803711 107.6447754 28.3803711s96.5020752-20.0068359 107.6447754-28.3803711z" fill="#fbc6ea"/><path d="m363.6447754 379.6196289c-11.1427002 8.3735352-44.3829346 28.3803711-107.6447754 28.3803711s-96.5020752-20.0068359-107.6447754-28.3803711c-10.0305176 20.6772461-12.9521484 44.4604492-7.6352539 67.5l3.2800293 48.8803711h224l3.2800293-48.8803711c5.3168945-23.0395508 2.3952637-46.8227539-7.6352539-67.5z" fill="#b71e71"/></g><path d="m284.4375 446.65625-8.875-13.3125-19.5625 13.0410156-19.5625-13.0410156-8.875 13.3125 20.4375 13.625v35.71875h16v-35.71875z" fill="#5b0b3c"/><g fill="#fad6c6"><path d="m24 240c0 .0700684 0 .1401367.0100098.2199707-.0100098.380127-.0100098.7299805-.0100098 1.0400391z"/><path d="m488 172.3495483v10.6504517c0 11.9799805-4.1500244 23.1699219-11.2299805 32.0200195-7.0700683 8.8398438-17.0700683 15.3500977-28.7700195 17.9799805l-25.8400879 86.2597656c-1.8498535 5.0302734-5.1699219 9.2202148-9.369873 12.1401367-4.1900635 2.9301758-9.2700196 4.6000977-14.6201172 4.6000977-8.8199463 0-17.0100098-4.5400391-21.6799316-12.0097656l-32.4899903-51.9902344h-176c-8-8-16-14.2099609-16-31.7399902v-16.2600098l-48 16 8 64 .8400879-1.6899414c2.1999512-4.3901367 5.5299072-7.9599609 9.5499268-10.4399414 4.0100097-2.4902344 8.7099609-3.8701172 13.6099853-3.8701172v24h32c3.6376038.751709 5.6449738 4.7473755 3.9833832 8.0694885-9.515213 19.0242005-33.5806275 31.9305115-51.9833832 31.9305115h-5.9899902c-7.75 0-15.0700684-2.5-21.0500488-6.8300781-5.9699707-4.3398438-10.5999756-10.5297852-13-17.8999023l-47.959961-71.2700196c-2.9899902-3.0100098-7.8400879-11.4101563-7.9899902-15.7800293.040039-6.7600098.8499756-24.6499023 15.9899902-32.2199707l88-48c8-8 32-24 56-8h32v-24l-24-8-8.8400879 4.4199219c-2.3598633 1.1801758-4.829834 2.0800781-7.369873 2.6801758-2.5500489.5998535-5.1600342.8999023-7.7900391.8999023-8.8400879 0-16.8400879-3.5800781-22.6300049-9.3701172s-9.3699951-13.790039-9.3699951-22.6298828c0-8.8400879 3.5800781-16.8400879 9.3699951-22.6298828 5.789917-5.7900391 13.789917-9.3701172 22.6300049-9.3701172 5.2600098 0 10.4499512 1.2199707 15.1599121 3.5800781l8.8400879 4.4199219v-8c0-22.0900879 34.9099121-40 57-40h22c11.0400391 0 23.3000488 4.4799805 32.7800293 11.7199707 9.4899902 7.2399902 16.2199707 17.2399902 16.2199707 28.2800293v32l8 8-16 32-16 16h32c32-16 56 8 56 32l8.6999512 31 7.3000488 26 .7399902-1.8500977 15.2600098-38.1499023v-21c0-3.3200684 1.3400879-6.3200684 3.5100098-8.4899902 2.1699218-2.170166 5.1699218-3.5100098 8.4899902-3.5100098s6.3200684 1.3398438 8.4899902 3.5100098c2.1699219 2.1699218 3.5100098 5.1699218 3.5100098 8.4899902s1.3400879 6.3200684 3.5100098 8.4899902c2.1644897 2.1644897 5.1549072 3.5032959 8.4650574 3.5099792 6.615631.0133668 12.0249328-5.7341308 12.0249328-12.3497619v-7.6502075c0-3.3200684 1.3400879-6.3200684 3.5100098-8.4899902 2.1645203-2.1647644 5.1549988-3.5033417 8.4652405-3.5099792 6.615509-.0132752 12.0247497 5.7339782 12.0247497 12.3495177z"/></g><path d="m248 328h16v16h-16z" fill="#eaaa94"/><g><path d="m207.5185547 106.3457031c-8.0283203-5.3522949-9.1530762-16.7111816-2.3303223-23.5339355 5.9711914-5.9711914 15.6523438-5.9711914 21.6235352 0l5.1882324 5.1882324c4.2479248-21.2397461 58.1501465-33.9499512 78.6987305-27.1003418l9.3012695 3.1003418c0-22.0913086-26.9085693-40-49-40h-15-7c-22.0914307 0-57 17.9086914-57 40v8l-8.8446045-4.4223633c-4.7055664-2.3527832-9.8944092-3.5776367-15.1553955-3.5776367-17.6730957 0-32 14.3269043-32 32 0 17.6730957 14.3269043 32 32 32 5.2609863 0 10.4498291-1.2248535 15.1553955-3.5776367l8.8446045-4.4223633 24 8v-16z" fill="#fcc200"/><path d="m24 241.2641602c0-.3520508.0001221-.7573242.0037842-1.2067871-.0001221-.0183106-.0037842-.0393067-.0037842-.0573731z" fill="#fad6c6"/></g><g fill="#eaaa94"><path d="m106 256h-26v-16h24z"/><path d="m400.7399902 239.1499023-9.1799316 24.4799805-15.1201172-5.2597656 16.2600098-43.3701172 7.3000488 26z"/><path d="m296 168h-1.3725586c-16.7290039 0-32.4560547-6.5146484-44.284668-18.34375l11.3144531-11.3125c8.8061524 8.8066406 20.5151368 13.65625 32.9702149 13.65625h1.3725586z"/><path d="m268.421875 168.8447266c-4.9407959 2.4707031-9.1335449 5.9304199-12.421875 10.0605469-3.2883301-4.130127-7.4810791-7.5898438-12.421875-10.0605469l-7.15625 14.3105469c7.1416016 3.571289 11.578125 10.7490234 11.578125 18.7333984v6.1113281h16v-6.1113281c0-7.984375 4.4365234-15.1621094 11.578125-18.7333984z"/></g><path d="m256 272h-88l-.0000305-.0000305c-14.3925629-9.5950317-21.1994934-27.201889-17.0041809-43.9831238l1.0042114-4.0168457 32-32v-40h32v16.0000458c0 22.0913696 17.9085846 39.9999542 39.9999542 39.9999542h.0000763c22.0913696 0 39.9999695-17.9085846 39.9999695-39.9999542v-16.0000458h32v40l32 32 1.0042114 4.0168457c4.1953125 16.7812347-2.6116333 34.388092-17.0041809 43.9831238l-.0000305.0000305z" fill="#b71e71"/><path d="m352.3200684 288h-192.6501465c.5300293-1.6899414 1.1601563-3.1298828 1.8901367-4.5498047 1.6398926-3.1503906 3.7999268-6.1601562 6.4399414-11.4501953h176c3.8300781 7.6601563 6.6199951 10.5297852 8.3200684 16z" fill="#fbc6ea"/><g><path d="m487.4899902 121c-.6999512-4.8100586-2.1099854-9.3798828-4.1199951-13.6098633-6.8499756-14.3701172-20.6199951-24.800293-37-26.9702148-2.0899658-.2797852-4.210083-.4199219-6.3699951-.4199219-2.1500244 0-4.2800293.1401367-6.3599854.4199219-3.4200439.4501953-6.7399902 1.2600098-9.8900146 2.4001465-1.3300781 7.4899902-7.8699951 13.1799316-15.75 13.1799316-1.1799316 0-2.3300781-.1298828-3.4399414-.3701172-.5200195.5700684-1.0400391 1.1601563-1.5300293 1.7602539 2.25 2.9199219 3.8399658 6.3798828 4.5500488 10.1499023.2799073 1.4399415.4199219 2.9399415.4199219 4.459961 0 5.8999023-2.1300049 11.3000488-5.6599121 15.4799805-2.630127 3.1000977-6.0300293 5.5300293-9.9001465 6.9899902 1.4400635 10.6799316 6.3701172 20.2399902 13.630127 27.4899902 3.7999268 3.7900391 8.2299805 6.9499512 13.119873 9.3000488 6.2900391 3.0400391 13.3500977 4.7399903 20.8100586 4.7399903s14.5300293-1.6999512 20.8200684-4.7399902c4.8898926-2.3500977 9.3199463-5.5200195 13.1098633-9.3100586 8.6900634-8.6899414 14.0700683-20.6899414 14.0700683-33.9499512 0-2.3798828-.1699219-4.7199707-.5100098-7zm-47.4899902-9c8.8400879 0 16 7.1599121 16 16 0 8.8398438-7.1599121 16-16 16s-16-7.1601563-16-16c0-8.8400879 7.1599121-16 16-16z" fill="#f4cb6e"/><path d="m488.1699219 113.1599121c-.829834-2.5700684-2.5998535-4.579834-4.7999268-5.7697754-2.3599854-1.2802734-5.2199707-1.6201172-7.9699707-.7302246l-1.3499756.4401855c-5.4699707 1.7797852-11.4100342.6599121-16.0500488-2.7602539-.1099854-.0898438-.2299805-.1699219-.3499756-.25-4.6600342-3.3398438-7.5200195-8.6398926-7.5200195-14.369873v-1.4199219c0-3.1799316-1.4700928-6.0200195-3.7600098-7.880127-1.7399902-1.4099121-3.9500732-2.25-6.3699951-2.25-2.4099121 0-4.6300049.8400879-6.3599854 2.25-.2800293.2299805-.5499268.4702148-.7999268.7202148-1.8400878 1.8298341-2.9700927 4.3598634-2.9700927 7.1599122v1.4199219c0 5.7299805-2.8599854 11.0300293-7.5200195 14.369873-.1199951.0800781-.2399902.1601563-.3499756.25-4.1799316 3.0800781-9.4199219 4.300293-14.4199219 3.2001953.2799073 1.4399415.4199219 2.9399415.4199219 4.459961 0 5.8999023-2.1300049 11.3000488-5.6599121 15.4799805 4.1398926 2.1601563 7.25 5.9199219 8.6699219 10.4499512.0500488.1401367.0899658.2700195.1400146.4099121 1.7999268 5.4802246 1.0599365 11.4902344-2.3299561 16.1601563l-.8300781 1.1401367c-1.3900146 1.8999023-2.0100098 4.1298828-1.9199219 6.3198242.1098633 3 1.539917 5.9199219 4.1599121 7.8200684 2.6899414 1.9499512 6.0100098 2.3898926 8.9599609 1.4799805 2.0200195-.619873 3.8601074-1.880127 5.1900635-3.7199707l.8299561-1.1401367c3.380127-4.6499023 8.8300781-7.2399902 14.5800781-7.1999512h.4199219c5.75-.0400391 11.1999512 2.5500488 14.5800781 7.1999512l.8299561 1.1401367c1.3399658 1.8398438 3.1800537 3.1000977 5.2000732 3.7199707 2.9399414.9099121 6.2600098.4699707 8.9499512-1.4799805 2.6199951-1.9001465 4.0600586-4.8300781 4.1599121-7.8300781.0900879-2.1899414-.539917-4.4099121-1.9199219-6.3098145l-.8300781-1.1401368c-3.3898926-4.6699219-4.1298828-10.6799316-2.3299561-16.1601563.0500488-.1398926.0899658-.2697754.1400146-.4099121 1.7099609-5.4599609 5.8800049-9.8000488 11.3300781-11.5700684l1.3398438-.4299316c2.6201172-.8498535 4.6501465-2.6699219 5.8300781-4.9299316 1.2299806-2.3300781 1.550049-5.1401367.6799318-7.8400879zm-48.1699219 30.8400879c-8.8400879 0-16-7.1601563-16-16 0-8.8400879 7.1599121-16 16-16s16 7.1599121 16 16c0 8.8398438-7.1599121 16-16 16z" fill="#f48da1"/><path d="m476 128c-2.2089844 0-4-1.7910156-4-4v-8c0-2.2089844 1.7910156-4 4-4s4 1.7910156 4 4v8c0 2.2089844-1.7910156 4-4 4z" fill="#feea01"/><path d="m428 104c-1.0239258 0-2.0473633-.390625-2.8286133-1.171875-1.5620117-1.5615234-1.5620117-4.0947266 0-5.65625l8-8c1.5625-1.5625 4.0947266-1.5625 5.6572266 0 1.5620117 1.5615234 1.5620117 4.0947266 0 5.65625l-8 8c-.78125.78125-1.8046875 1.171875-2.8286133 1.171875z" fill="#fff"/><path d="m468 152h-8c-2.2089844 0-4-1.7910156-4-4s1.7910156-4 4-4h8c2.2089844 0 4 1.7910156 4 4s-1.7910156 4-4 4z" fill="#fff"/><path d="m460 112h-8c-2.2089844 0-4-1.7910156-4-4s1.7910156-4 4-4h8c2.2089844 0 4 1.7910156 4 4s-1.7910156 4-4 4z" fill="#b71e71"/><path d="m404 144c-1.0239258 0-2.0473633-.390625-2.8286133-1.171875-1.5620117-1.5615234-1.5620117-4.0947266 0-5.65625l8-8c1.5625-1.5625 4.0947266-1.5625 5.6572266 0 1.5620117 1.5615234 1.5620117 4.0947266 0 5.65625l-8 8c-.78125.78125-1.8046875 1.171875-2.8286133 1.171875z" fill="#40c6f3"/><path d="m428 168c-1.0239258 0-2.0473633-.390625-2.8286133-1.171875l-8-8c-1.5620117-1.5615234-1.5620117-4.0947266 0-5.65625 1.5625-1.5625 4.0947266-1.5625 5.6572266 0l8 8c1.5620117 1.5615234 1.5620117 4.0947266 0 5.65625-.78125.78125-1.8046875 1.171875-2.8286133 1.171875z" fill="#fff"/><path d="m460 168h-8c-2.2089844 0-4-1.7910156-4-4s1.7910156-4 4-4h8c2.2089844 0 4 1.7910156 4 4s-1.7910156 4-4 4z" fill="#95d202"/></g></g><g><path d="m484.5114746 153.9282227c7.1994629-9.4223633 11.4885254-21.1813965 11.4885254-33.9282227 0-30.8789063-25.121582-56-56-56-6.5263672 0-12.9077148 1.1083984-18.9658203 3.2958984-2.6923828.9716797-4.6606445 3.3076172-5.1611328 6.1259766-.6767578 3.8115234-3.987793 6.578125-7.8730469 6.578125-.5800781 0-1.1679688-.0634766-1.7475586-.1894531-2.7866211-.5976563-5.6831055.3232422-7.6040039 2.4287109-.6982422.7666016-1.293457 1.4521484-1.8183594 2.0957031-2.3476563 2.8789063-2.4042969 6.9951172-.1367188 9.9384766 2.163086 2.8076172 3.3066407 6.1708984 3.3066407 9.7265625 0 6.6259766-4.1704102 12.6474609-10.3769531 14.9824219-3.4882813 1.3115234-5.6079102 4.859375-5.1118164 8.5527344 2.3548584 17.527832 12.8225098 32.3117676 27.286377 40.7861328-2.3785401 3.2905273-3.7976075 7.3173828-3.7976075 11.6787109v19.4589844l-6.6704102 16.6757813-9.3452148-33.2910157c-.4042969-15.1699219-8.7280273-29.8857422-21.4365234-37.7402344-12.9682618-8.0146484-28.6611328-8.3867187-44.3725586-1.1035156h-10.8613281l2.3427734-2.3427734c.6079102-.6083984 1.1142578-1.3105469 1.4985352-2.0791016l16-32c1.5400391-3.0800781.9365234-6.7998047-1.4985352-9.2353516l-5.6567383-5.65625v-28.6865234c0-27.0322266-30.640625-48-57-48h-22c-12.6450195 0-28.3740234 4.9609375-41.0488281 12.9472656-5.1181641 3.2246094-9.472168 6.748291-13.0092773 10.4863281l-.5390625-1.6279297c-2.4316407-12.6757812-13.4296876-21.805664-26.4028321-21.805664v16c5.0356445 0 9.3364258 3.3974609 10.5512695 8.1992188-7.6416015-5.2578125-16.8291015-8.1992188-26.5512695-8.1992188v16c8.0266113 0 15.496582 3.0490723 21.1030273 8.3286133-1.6934814-.2094727-3.397705-.3286133-5.1030273-.3286133-22.0561523 0-40 17.9443359-40 40s17.9438477 40 40 40c6.4702148 0 12.9482422-1.5292969 18.7329102-4.4228516l5.8808594-2.9394531 15.3862304 5.1279297v10.234375h-21.7011719c-25.7351074-15.4616699-51.8448486-1.1625977-63.090332 9.5009766l-86.921875 47.4121094c-13.0473633 6.5888672-19.8608398 19.5449219-20.2670898 38.5263672-.0131836.1845702-.0195313.3720702-.0195313.5605468v1.2636719c0 1.1074219.2246094 2.1611328.6313477 3.1201172 1.6396484 6.2675781 6.1123047 13.3056641 9.0883789 16.6132813l47.0053711 69.8574219c6.199707 17.4824218 22.6416015 29.1455077 41.2802734 29.1455077h5.9946289c10.62854 0 22.6293945-3.5615234 33.3554688-9.8569336.8395996 1.0625 1.7358398 2.0786133 2.7001953 3.0288086-22.2470703 26.2636719-30.9101563 61.1240234-23.2753906 95.1113281l3.237793 48.2519531 15.9638672-1.0703125-3.2797852-48.8798828c-.0283203-.4257813-.0908203-.8476563-.1865234-1.2626953-4.4970703-19.4951172-2.6983643-39.347168 4.6726074-57.1118164 12.755371 10.3447266 43.1174316 27.7895508 102.8117675 27.7895508 59.6953125 0 90.0574951-17.4458008 102.8125-27.7900391 7.3720703 17.765625 9.1710205 37.6176758 4.6728516 57.1113281-.0961914.4150391-.1586914.8378906-.1870117 1.2626953l-3.2802734 48.8798828 15.9638672 1.0722656 3.2382813-48.2529297c7.6362305-33.9824219-1.0268555-68.8417969-23.2719727-95.1064453 7.2583008-7.1494141 10.9228516-17.4365234 9.4545898-27.9248047l-.5845947-4.8481445 4.8892822 7.8227539c6.1733398 9.8769532 16.8120117 15.7734376 28.4594726 15.7734376 14.0048828 0 26.6625977-8.8310547 31.4975586-21.9755859.0566406-.1533203.1083984-.3085938.1552734-.4658203l24.5625-81.9873047c24.7309571-7.6484375 41.6176758-30.272461 41.6176758-56.5712891v-11c0-7.9816895-4.7111816-14.8662109-11.4885254-18.0717773zm-68.5114746-49.9282227c0-3.0761719-.4282227-6.0810547-1.2641602-8.9560547 6.9472656-2.0224609 12.652832-7.1025391 15.4360352-13.8330078 3.1855469-.8046875 6.4770508-1.2109375 9.828125-1.2109375 22.0561523 0 40 17.9443359 40 40s-17.9438477 40-40 40c-18.081543 0-33.7744141-12.2246094-38.5219727-29.2050781 8.8920899-5.834961 14.5219727-15.90625 14.5219727-26.7949219zm40 69.6586914v6.3413086c0 2.2060547-1.7944336 4-4.0004883 4-2.2055664 0-3.9995117-1.7939453-3.9995117-4 0-1.5537109-.1958008-3.0598145-.5325928-4.5126953 2.9207764-.3911133 5.7711182-1.0036621 8.5325928-1.8286133zm-150.574707-42.3979492-12.6931152 12.6931152c-11.7434082-.4665527-22.7172852-5.2519531-31.0749512-13.6101074l-11.3144531 11.3125c10.2519531 10.2524414 23.4343261 16.5039063 37.6572265 17.9907227v8.3530273c0 14.8083496-10.112793 27.2954102-23.7938232 30.9287109.9493408-6.7678223 5.1258545-12.6499023 11.3719482-15.7734375l-7.15625-14.3105469c-4.9407959 2.4707031-9.1335449 5.9304199-12.421875 10.0605469-3.2883301-4.130127-7.4810791-7.5898438-12.421875-10.0605469l-7.15625 14.3105469c6.2460938 3.1235352 10.4226074 9.0056152 11.3719482 15.7734375-13.6810302-3.6333007-23.7938232-16.1203613-23.7938232-30.9287109v-16-24-16c0-2.6748047-1.3369141-5.1728516-3.5625-6.65625l-8.480957-5.6542969c-2.4980469-1.6650391-3.0839844-4.0654297-3.2109375-5.3476563s-.0229492-3.75 2.0996094-5.8730469c1.3769531-1.3769531 3.2075195-2.1347656 5.1547852-2.1347656s3.777832.7578125 5.1547852 2.1347656l5.1884766 5.1884766c2.0859375 2.0859375 5.1489258 2.8535156 7.9750977 2 2.8237305-.8554688 4.9477539-3.1953125 5.5263672-6.0878906.6743164-3.3730469 4.5830078-7.3505859 10.7226563-10.9140625 17.3110352-10.0458984 46.1416016-13.9873047 57.6015625-10.1660156l3.8310544 1.2770996v26.2336426c0 2.1220703.8427734 4.15625 2.3432617 5.6572266l3.9228516 3.9228516zm-110.8955078-18.8505859c-2.0136719-.6699219-4.2094727-.5136719-6.1074219.4345703l-8.8457031 4.421875c-3.5747071 1.7880859-7.578125 2.7333984-11.5766602 2.7333984-13.2333984 0-24-10.7666016-24-24s10.7666016-24 24-24c3.9985352 0 8.0019531.9453125 11.5776367 2.7333984l8.8447266 4.421875c2.4804688 1.2392578 5.425293 1.1083984 7.7836914-.3505859 2.3583984-1.4570312 3.7939453-4.0322266 3.7939453-6.8046875v-8c0-15.4501953 28.7592773-32 49-32h22c13.6326904 0 30.0219727 8.574707 37.2548828 20.0549316-17.9130859-3.3334961-47.4428711 2.1572266-65.7177734 12.7614746-5.3286133 3.0927734-9.543457 6.4775391-12.6220703 10.1289063-9.112793-6.7998047-22.1108398-6.0634766-30.3842773 2.2099609-4.953125 4.953125-7.3979492 11.7929688-6.7075195 18.7636719s4.4291992 13.1972656 10.2578125 17.0830078l4.9189452 3.2792969v.6188965zm-2.5297852 79.5898437v-32h16v8c0 26.4677734 21.5327148 48 48 48s48-21.5322266 48-48v-8h8 8v32c0 2.1220703.8427734 4.15625 2.3432617 5.6572266l30.4331055 30.4326172.4667969 1.8671875c3.1796875 12.7177734-1.5473633 26.1083984-11.8105469 34.0429688h-170.8652344c-10.2631836-7.9345703-14.9902344-21.3251953-11.8105469-34.0429688l.4667969-1.8671875 30.4331055-30.4326172c1.5004883-1.5009766 2.3432617-3.5351563 2.3432617-5.6572266zm-48 112v-16c0-4.4179688-3.581543-8-8-8-6.6416016 0-12.9379883 1.8964844-18.2739258 5.3105469l-4.9746094-39.7949219 29.0770264-9.6921387c-.6114502 14.4086914 5.2030029 28.4919434 15.9056396 38.2668457-.2597656.4389648-.5169678.8706055-.7717285 1.2973633-3.0517578 5.109375-5.6884766 9.5234375-6.7041016 19.5302734l-1.0986327 9.0820313zm-29.9946289 40c-12.0791016 0-22.7055664-7.7177734-26.4423828-19.2050781-.2294922-.7060547-.5556641-1.3759766-.9702148-1.9912109l-47.9555665-71.2695313c-.2841797-.4228516-.6079102-.8173828-.9672852-1.1777344-1.9921875-2.0019531-5.3779297-8.2363281-5.6650391-10.4042969.0615234-5.9775391.8725586-19.4462891 11.5727539-24.796875.0854492-.0419922.1694336-.0869141.253418-.1318359l88-48c.6704102-.3662109 1.2856445-.8261719 1.8256836-1.3662109.8737793-.8742676 20.6229248-20.201416 42.3432617-9.0754395v32.1047363l-28.3212891 28.3208008-44.9780272 14.9926758h-22.7006836v16h16.9379883l7.1240234 56.9921875c.4370117 3.4980469 3.112793 6.2978516 6.5874023 6.8925781 3.4760742.6015625 6.9291992-1.1552734 8.5058594-4.3066406l.8447266-1.6894531c1.777832-3.5556641 4.6025391-6.3261719 8-8.0185547v14.1298828c0 4.4179688 3.581543 8 8 8h26.8417969c-9.0883789 14.1933594-28.1289063 24-42.8417969 24zm69.3852539-35.0625c-1.2382812-2.9882812-4.1552734-4.9375-7.390625-4.9375h-10.723999l.8758545-7.2392578c.0068359-.0546875.0126953-.1083984.0180664-.1630859.6538086-6.5175781 1.8681641-8.5507813 4.5288086-13.0058594.6276855-1.0507813 1.3344727-2.2353516 2.1008301-3.5917969h166.4006348c.7663574 1.3564453 1.4729004 2.5410156 2.1005859 3.5917969 2.6616211 4.4570313 3.8764648 6.4902344 4.5327148 13.0087891.0053711.0517578.0112305.1044922.0175781.15625l3.6767578 30.4921875c.0068359.0576172.0146484.1152344.0229492.1728516 1.0253906 7.1787109-2.6430664 14.1796875-9.128418 17.4228516-.7573242.378418-1.4302979.878418-2.0195313 1.4570313l-.0087891-.0087891c-.2250975.2167967-23.1918944 21.7070311-82.3940428 21.7070311s-82.1689453-21.4902344-82.394043-21.7070313l-.0087891.0087891c-.5878906-.5776367-1.2592773-1.0766602-2.0146484-1.4550781-2.0778809-1.0405273-3.8815918-2.4936523-5.347168-4.237793 6.894043-6.4067383 12.4157715-14.1728516 15.4238281-22.9545898 2.2866212-2.288086 2.9697267-5.7275391 1.7314454-8.7167969zm72.609375 91.0625c-60.987915 0-87.567627-19.347168-95.2001953-26.3652344 2.4157715-3.7734375 5.1196289-7.3969727 8.0981445-10.8447266 11.4029541 7.6796876 38.4025879 21.209961 87.1020508 21.209961s75.6989746-13.5302734 87.1020508-21.2099609c2.9786377 3.4477539 5.6826172 7.0712891 8.0983887 10.8447266-7.6323243 7.0175781-34.2119141 26.3652343-95.2004395 26.3652343zm224-217c0 20.3720703-13.8808594 37.7236328-33.7558594 42.1953125-2.8198242.6337891-5.078125 2.7402344-5.9077148 5.5087891l-25.7666016 86.0048828c-2.5859375 6.7626953-9.1489258 11.2910156-16.402832 11.2910156-6.0942383 0-11.6611328-3.0859375-14.8911133-8.2539063l-28.7080078-45.9326172c12.9020996-11.984375 18.5605469-30.2858887 14.1977539-47.7373047l-1.0043945-4.0166016c-.3520508-1.4072266-1.0791016-2.6914063-2.1044922-3.7167969l-29.6567383-29.6562499v-31.4743652c11.9915771-4.5554199 20.7270508-1.8410645 26.1362305 1.501709 8.421875 5.2050781 13.8637695 15.1298828 13.8637695 25.2861328 0 .7304688.1000977 1.4580078.2978516 2.1621094l15.3210449 54.581543-7.1750488 20.628418 15.1123047 5.2558594 7.9421387-22.8334961 15.9294434-39.8237305c.3779296-.944336.5722655-1.9531251.5722655-2.9707032v-21c0-2.2060547 1.7944336-4 4-4s4 1.7939453 4 4c0 11.0283203 8.972168 20 20 20s20-8.9716797 20-20v-8c0-2.2060547 1.7944336-4 4-4s4 1.7939453 4 4z"/><path d="m248 328h16v16h-16z"/><path d="m275.5625 433.34375-19.5625 13.0410156-19.5625-13.0410156-8.875 13.3125 20.4375 13.625v35.71875h16v-35.71875l20.4375-13.625z"/><path d="m440 144c13.2338867 0 24-10.7666016 24-24s-10.7661133-24-24-24-24 10.7666016-24 24 10.7661133 24 24 24zm0-32c4.4111328 0 8 3.5888672 8 8s-3.5888672 8-8 8-8-3.5888672-8-8 3.5888672-8 8-8z"/></g></g></svg>