<svg height="511pt" viewBox="-29 0 511 511.99915" width="511pt" xmlns="http://www.w3.org/2000/svg"><path d="m357.578125 504.5h-261.5c-2.242187 0-4.058594-1.816406-4.058594-4.054688v-79.878906c0-21.417968 13.292969-40.582031 33.351563-48.085937l101.457031-37.964844 101.453125 37.964844c20.058594 7.503906 33.351562 26.667969 33.351562 48.085937v79.878906c0 2.238282-1.816406 4.054688-4.054687 4.054688zm0 0" fill="#9e71d3"/><path d="m226.828125 334.515625-101.457031 37.964844c-20.058594 7.503906-33.351563 26.667969-33.351563 48.085937v79.878906c0 2.238282 1.816407 4.054688 4.054688 4.054688h130.75v-169.984375zm0 0" fill="#f9dc6a"/><path d="m328.28125 372.480469-101.453125-37.964844v8.527344l78.664063 29.4375c20.058593 7.503906 33.347656 26.671875 33.347656 48.085937v79.878906c0 2.242188-1.816406 4.054688-4.054688 4.054688h22.789063c2.242187 0 4.058593-1.8125 4.058593-4.054688v-79.878906c0-21.417968-13.292968-40.582031-33.351562-48.085937zm0 0" fill="#7f56af"/><path d="m226.828125 473.085938-34.253906-52.511719c-1.179688-1.808594-3.480469-2.523438-5.476563-1.707031l-35.78125 14.648437c-3.652344 1.496094-7.324218-2.105469-5.90625-5.789063l16.707032-43.308593c1.097656-2.84375-.890626-5.933594-3.933594-6.113281l-43.003906-2.582032c-4.703126-.28125-5.875-6.683594-1.570313-8.601562 28.832031-12.847656 87.777344-37.648438 113.21875-37.648438 25.4375 0 84.386719 24.800782 113.214844 37.648438 4.304687 1.917968 3.132812 8.320312-1.570313 8.601562l-43.003906 2.582032c-3.042969.183593-5.027344 3.269531-3.929688 6.113281l16.703126 43.308593c1.421874 3.683594-2.25 7.285157-5.90625 5.789063l-35.777344-14.648437c-2-.816407-4.296875-.101563-5.476563 1.707031zm0 0" fill="#6e7093"/><path d="m261.082031 420.574219c1.179688-1.808594 3.476563-2.523438 5.476563-1.707031l35.777344 14.648437c3.65625 1.496094 7.328124-2.105469 5.90625-5.789063l-16.703126-43.308593c-1.097656-2.84375.886719-5.933594 3.929688-6.113281l43.003906-2.582032c4.703125-.28125 5.875-6.683594 1.570313-8.601562-28.828125-12.847656-87.777344-37.648438-113.214844-37.648438v143.613282zm0 0" fill="#81ebc7"/><path d="m186.605469 290.871094v59.160156c0 22.214844 18.007812 40.222656 40.222656 40.222656 22.210937 0 40.21875-18.007812 40.21875-40.222656v-59.160156zm0 0" fill="#f9c295"/><path d="m186.605469 330.796875c15.765625 10.167969 34.027343 15.980469 53.492187 15.980469 9.304688 0 18.335938-1.328125 26.949219-3.824219v-52.082031h-80.441406zm0 0" fill="#e59f6a"/><path d="m334.632812 202.976562c0-67.078124-48.265624-121.453124-107.804687-121.453124-59.542969 0-107.808594 54.375-107.808594 121.453124 0 67.082032 48.265625 121.457032 107.808594 121.457032 59.539063 0 107.804687-54.375 107.804687-121.457032zm0 0" fill="#f9c295"/><path d="m276.839844 95.363281c23.515625 22.28125 38.46875 55.667969 38.46875 92.996094 0 67.078125-48.269532 121.453125-107.808594 121.453125-18.054688 0-35.066406-5.003906-50.011719-13.839844 18.742188 17.757813 42.929688 28.460938 69.339844 28.460938 59.539063 0 107.804687-54.378906 107.804687-121.457032 0-46.738281-23.4375-87.304687-57.792968-107.613281zm0 0" fill="#e59f6a"/><path d="m431.878906 80.933594-76.355468-64.128906c-12.335938-10.359376-29.722657-12.203126-43.96875-4.675782l-84.726563 44.835938-84.730469-44.835938c-14.242187-7.527344-31.628906-5.683594-43.96875 4.675782l-76.351562 64.128906c-10.625 8.921875-15.644532 22.859375-13.15625 36.5l19.222656 105.199218 19.082031-1.875-3.308593-31.558593c-1.78125-17.035157 10.675781-32.246094 27.71875-33.847657 13.488281-1.261718 26.21875 6.441407 31.347656 18.980469l16.90625 41.292969c-.382813-4.152344-.574219-8.375-.574219-12.648438 0-13.839843 2.054687-27.125 5.835937-39.511718 0-.003906 0-.003906.003907-.007813 0 0 .003906-.003906.007812-.003906 2.648438-5.300781 6.148438-10.097656 10.300781-14.253906 9.96875-9.96875 23.746094-16.136719 38.96875-16.136719 24.804688 0 45.789063 16.398438 52.695313 38.949219 6.902344-22.550781 27.890625-38.949219 52.695313-38.949219 21.558593 0 40.207031 12.367188 49.269531 30.390625.003906 0 .007812 0 .007812.003906 0 0 0 .003907.003907.003907 3.777343 12.390624 5.835937 25.675781 5.835937 39.511718 0 4.277344-.191406 8.5-.574219 12.652344l16.902344-41.296875c5.132812-12.539063 17.859375-20.238281 31.347656-18.980469 17.046875 1.605469 29.503906 16.8125 27.71875 33.847656l-3.304687 31.5625 19.082031 1.875 19.21875-105.203124c2.488281-13.636719-2.53125-27.574219-13.152344-36.496094zm0 0" fill="#9e71d3"/><path d="m445.03125 117.433594-19.222656 105.199218-19.078125-1.875 3.304687-31.558593c1.785156-17.035157-10.675781-32.246094-27.71875-33.847657-13.488281-1.261718-26.21875 6.441407-31.347656 18.980469l-16.902344 41.292969c.382813-4.152344.570313-8.375.570313-12.648438 0-13.839843-2.054688-27.125-5.835938-39.511718 0 0 0 0 0-.011719h-.007812c-9.0625-18.019531-27.710938-30.386719-49.269531-30.386719-24.808594 0-45.792969 16.398438-52.695313 38.945313v-115.046875l84.726563-44.835938c14.242187-7.527344 31.632812-5.683594 43.96875 4.675782l76.355468 64.128906c10.621094 8.921875 15.640625 22.859375 13.152344 36.5zm0 0" fill="#f9dc6a"/><path d="m431.878906 80.933594-76.355468-64.128906c-12.335938-10.359376-29.722657-12.203126-43.96875-4.675782l-.476563.253906c7.960937.675782 15.710937 3.757813 22.101563 9.128907l76.351562 64.125c10.625 8.921875 15.644531 22.863281 13.15625 36.5l-13.1875 72.175781-2.773438 26.445312 19.082032 1.875 19.222656-105.199218c2.488281-13.640625-2.53125-27.578125-13.152344-36.5zm0 0" fill="#e5ac51"/><path d="m438.539062 222.632812c0 11.914063-9.65625 21.574219-21.574218 21.574219-11.914063 0-21.570313-9.660156-21.570313-21.574219 0-11.914062 9.65625-21.574218 21.570313-21.574218 11.917968 0 21.574218 9.660156 21.574218 21.574218zm0 0" fill="#9e71d3"/><path d="m58.261719 222.632812c0 11.914063-9.660157 21.574219-21.574219 21.574219s-21.574219-9.660156-21.574219-21.574219c0-11.914062 9.660157-21.574218 21.574219-21.574218s21.574219 9.660156 21.574219 21.574218zm0 0" fill="#f9dc6a"/><path d="m436.703125 75.1875-17.007813-14.277344c-3.171874-2.664062-7.902343-2.25-10.566406.921875-2.664062 3.171875-2.25 7.902344.921875 10.566407l17.007813 14.277343c8.535156 7.167969 12.597656 18.4375 10.59375 29.40625l-14.28125 78.1875c-2.015625-.453125-4.105469-.699219-6.253906-.707031l.375-3.574219c1.078124-10.25-1.925782-20.28125-8.453126-28.25-6.523437-7.96875-15.765624-12.886719-26.023437-13.847656-16.890625-1.585937-32.566406 7.90625-38.988281 23.605469l-3.648438 8.921875c-1.015625-6.410157-2.460937-12.726563-4.335937-18.910157-.164063-.617187-.40625-1.199218-.714844-1.742187-10.757813-21.101563-32.105469-34.199219-55.804687-34.199219-17.582032 0-33.695313 7.167969-45.195313 19.167969v-83.253906l80.738281-42.722657c11.601563-6.132812 25.589844-4.644531 35.640625 3.792969l36.183594 30.398438c3.171875 2.660156 7.902344 2.25 10.566406-.917969 2.664063-3.171875 2.253907-7.902344-.917969-10.566406l-36.1875-30.402344c-14.75-12.378906-35.273437-14.566406-52.300781-5.5625l-81.222656 42.980469-81.230469-42.984375c-17.019531-8.996094-37.546875-6.8125-52.292968 5.566406l-76.355469 64.128906c-12.652344 10.625-18.671875 27.328125-15.703125 43.585938l15.167968 83.039062c-5.425781 5.28125-8.800781 12.664063-8.800781 20.816406 0 16.03125 13.042969 29.074219 29.074219 29.074219s29.074219-13.042969 29.074219-29.074219c0-10.382812-5.472657-19.511718-13.679688-24.65625l-1.003906-9.558593c-.652344-6.230469 1.171875-12.332031 5.140625-17.179688 3.964844-4.839843 9.585938-7.832031 15.816406-8.414062 10.269532-.960938 19.808594 4.804687 23.710938 14.351562l16.496094 40.308594c1.828124 18.335937 7.050781 35.675781 15.539062 51.566406 1.347656 2.527344 3.941406 3.96875 6.621094 3.96875 1.191406 0 2.398437-.285156 3.523437-.886719 3.652344-1.953124 5.035157-6.496093 3.082031-10.148437-7.851562-14.699219-12.566406-30.816406-14.019531-47.898437-.011719-.125-.023437-.25-.042969-.371094-.285156-3.519532-.429687-7.125-.429687-10.734375 0-12.550781 1.789063-24.894531 5.320313-36.6875 2.226562-4.320313 5.128906-8.28125 8.628906-11.785157 8.992187-8.992187 20.945312-13.941406 33.664062-13.941406 21.035156 0 39.308594 13.484375 45.5 33.5625.125.421875.285156.824219.476563 1.210938 0 .003906.003906.007812.003906.007812.019531.039063.039063.078125.058594.117188.011719.019531.019531.035156.027343.050781.015626.027344.03125.058594.046876.085937.753906 1.390626 1.925781 2.492188 3.324218 3.164063.007813.003906.011719.007813.015625.007813.160157.078124.324219.148437.488281.214843.007813 0 .011719.003907.015626.007813.050781.019531.101562.039062.152343.058594.007813 0 .011719 0 .015625.003906.808594.292968 1.675782.453125 2.574219.453125.894531 0 1.761719-.160157 2.570313-.453125.003906-.003906.011718-.003906.015624-.003906.050782-.019532.101563-.039063.152344-.058594.003906-.003906.011719-.007813.015625-.007813.164063-.066406.328125-.136719.488281-.214843.003907 0 .011719-.003907.015626-.007813 1.398437-.675781 2.570312-1.773437 3.324218-3.164063.019532-.027343.03125-.058593.046875-.085937.011719-.015625.019531-.03125.027344-.050781.019531-.039063.039063-.078125.058594-.117188 0 0 .003906-.003906.003906-.007812.191406-.386719.351563-.789063.476563-1.210938 6.191406-20.078125 24.464843-33.5625 45.5-33.5625 17.914062 0 34.066406 9.84375 42.296874 25.730469 3.527344 11.796875 5.316407 24.132813 5.316407 36.683594 0 2.933593-.09375 5.863281-.285157 8.75-.003906.0625-.007812.132812-.011718.199219-.015625.214843-.03125.429687-.046875.644531-2.089844 28.429687-13.441407 54.757812-32.003907 74.199219-18.570312 19.449218-42.707031 30.160156-67.960937 30.160156-12.738281 0-25.152344-2.707032-36.710937-7.871094-.273438-.144531-.554688-.269531-.84375-.378906-11.699219-5.371094-22.503907-13.273438-31.847657-23.449219-2.800781-3.050781-7.542969-3.253906-10.597656-.453125-3.050781 2.800781-3.253906 7.542969-.449219 10.59375 9.679688 10.546875 20.746094 18.972656 32.730469 25.0625v12.414062c-24.144531 8.183594-50.3125 19.285157-68.546875 27.417969-5.152344 2.292969-7.933594 7.558594-6.925781 13.101563 1.007812 5.546875 5.46875 9.5 11.097656 9.832031l38.914063 2.335937-15.238282 39.492188c-1.71875 4.472656-.621094 9.527344 2.796875 12.878906 3.421875 3.355469 8.5 4.359375 12.957031 2.542969l33.476563-13.707031 32.804687 50.28125c1.320313 2.132812 3.683594 3.554687 6.378907 3.554687 2.695312 0 5.058593-1.421875 6.378906-3.554687l32.804687-50.28125 33.492188 13.714844c4.441406 1.808593 9.523438.804687 12.941406-2.550782 3.417969-3.351562 4.515625-8.40625 2.792969-12.886718l-15.230469-39.480469 33.730469-2.027344c12.636719 7.988281 20.402344 21.992187 20.402344 37.050781v76.433594h-34.636719v-41.230469c0-4.140625-3.355469-7.5-7.5-7.5-4.140625 0-7.5 3.359375-7.5 7.5v41.230469h-70.175781v-1.066406c0-4.140625-3.355469-7.5-7.496094-7.5-4.144531 0-7.5 3.359375-7.5 7.5v1.066406h-70.175781v-41.230469c0-4.140625-3.355469-7.5-7.5-7.5-4.140625 0-7.5 3.359375-7.5 7.5v41.230469h-34.636719v-76.433594c0-6.050781 1.226563-11.9375 3.644531-17.496094 1.652344-3.796874-.085937-8.214843-3.882812-9.867187s-8.214844.085937-9.867188 3.882813c-3.246094 7.457031-4.894531 15.355468-4.894531 23.480468v79.875c0 6.371094 5.1875 11.558594 11.558594 11.558594h261.5c6.375 0 11.5625-5.1875 11.5625-11.558594v-79.875c0-17.105468-7.46875-33.195312-20.046875-44.238281.421875-.921875.734375-1.910156.921875-2.957031 1.007812-5.542969-1.773438-10.808594-6.921875-13.101563-18.238282-8.128906-44.402344-19.234375-68.546875-27.417969v-12.429687c11.3125-5.753906 21.816406-13.578125 31.09375-23.289063 20.128906-21.082031 32.742187-49.230468 35.789062-79.675781l16.480469-40.28125c3.90625-9.542969 13.429688-15.316406 23.707031-14.351562 6.234375.582031 11.855469 3.574219 15.820313 8.414062 3.96875 4.847657 5.796875 10.949219 5.140625 17.183594l-1.003907 9.554687c-8.207031 5.144532-13.679687 14.273438-13.679687 24.65625 0 16.03125 13.042969 29.074219 29.074219 29.074219s29.074218-13.042969 29.074218-29.074219c0-8.15625-3.375-15.535156-8.800781-20.820312l15.167969-83.035156c2.96875-16.257813-3.050781-32.960938-15.703125-43.589844zm-400.015625 161.519531c-7.761719 0-14.074219-6.3125-14.074219-14.074219 0-4.71875 2.335938-8.902343 5.910157-11.457031.183593-.117187.363281-.234375.535156-.363281 2.199218-1.425781 4.820312-2.253906 7.628906-2.253906 1.855469 0 3.632812.363281 5.253906 1.015625.132813.0625.261719.117187.398438.167969 4.953125 2.183593 8.425781 7.136718 8.425781 12.890624-.003906 7.761719-6.316406 14.074219-14.078125 14.074219zm137.441406-111.136719c-16.722656 0-32.445312 6.511719-44.269531 18.335938-4.703125 4.707031-8.589844 10.054688-11.554687 15.90625-.289063.511719-.515626 1.0625-.675782 1.636719-1.882812 6.203125-3.335937 12.539062-4.351562 18.96875l-3.652344-8.921875c-6.417969-15.695313-22.078125-25.183594-38.988281-23.605469-10.253907.960937-19.496094 5.882813-26.023438 13.847656-6.523437 7.96875-9.527343 18-8.453125 28.25l.375 3.574219c-2.144531.011719-4.238281.253906-6.25.710938l-14.285156-78.191407c-2-10.96875 2.058594-22.234375 10.597656-29.40625l76.351563-64.125c10.050781-8.4375 24.039062-9.925781 35.636719-3.792969l80.742187 42.722657v83.257812c-11.5-12.003906-27.617187-19.167969-45.199219-19.167969zm10.128906 286.355469-29.347656 12.015625 14.210938-36.835937c1.367187-3.554688.949218-7.589844-1.109375-10.792969-2.058594-3.207031-5.558594-5.261719-9.378907-5.5l-30.601562-1.835938c15.179688-6.566406 33.523438-14.097656 51.078125-20.257812v1.3125c0 23.761719 17.457031 43.519531 40.21875 47.128906v50.703125l-20.476563-31.378906c-3.140624-4.820313-9.277343-6.738281-14.59375-4.558594zm141.363282-42.949219-30.617188 1.839844c-3.804687.234375-7.304687 2.289063-9.363281 5.496094-2.058594 3.203125-2.472656 7.238281-1.105469 10.808594l14.207032 36.824218-29.34375-12.015624c-5.316407-2.183594-11.457032-.265626-14.59375 4.550781l-20.480469 31.382812v-50.695312c9.898437-1.554688 19.023437-6.175781 26.242187-13.394531 9.011719-9.011719 13.976563-20.996094 13.976563-33.742188v-1.3125c17.554687 6.160156 35.898437 13.691406 51.078125 20.257812zm-66.078125-30.863281v.300781 11.617188c0 8.742188-3.402344 16.957031-9.582031 23.136719-6.179688 6.179687-14.394532 9.582031-23.132813 9.582031-18.042969 0-32.71875-14.675781-32.71875-32.71875v-11.617188c0-.097656 0-.199218 0-.300781v-11.425781c10.496094 3.457031 21.492187 5.246094 32.71875 5.246094 11.203125 0 22.203125-1.796875 32.714844-5.261719zm157.421875-101.40625c-7.757813 0-14.074219-6.3125-14.074219-14.074219 0-5.785156 3.507813-10.765624 8.507813-12.925781.085937-.035156.171874-.070312.257812-.109375 1.636719-.667968 3.429688-1.039062 5.308594-1.039062 2.8125 0 5.433594.828125 7.632812 2.253906.171875.128906.347656.25.53125.363281 3.578125 2.554688 5.914063 6.738281 5.914063 11.457031-.003907 7.761719-6.316407 14.074219-14.078125 14.074219zm0 0"/><path d="m302.785156 238.625c-4.21875-1.8125-8.796875-3.328125-13.582031-4.523438-.070313-.019531-.136719-.042968-.203125-.0625-.125-.03125-.246094-.046874-.367188-.070312-4.230468-1.03125-8.617187-1.816406-13.070312-2.308594-4.132812-.464844-7.820312 2.515625-8.277344 6.632813-.453125 4.117187 2.515625 7.824219 6.632813 8.277343.835937.089844 1.667969.203126 2.496093.316407-8.828124 12.957031-30.78125 24.296875-49.585937 24.296875s-40.757813-11.339844-49.589844-24.296875c.832031-.113281 1.660157-.222657 2.496094-.316407 4.117187-.453124 7.085937-4.160156 6.632813-8.277343-.453126-4.117188-4.160157-7.097657-8.273438-6.632813-4.457031.492188-8.839844 1.277344-13.074219 2.308594-.121093.023438-.242187.039062-.363281.070312-.070312.015626-.136719.042969-.203125.0625-4.785156 1.195313-9.363281 2.707032-13.582031 4.523438-3.804688 1.636719-5.5625 6.046875-3.925782 9.851562 1.21875 2.839844 3.984376 4.539063 6.890626 4.539063.988281 0 1.996093-.195313 2.960937-.613281 1.65625-.710938 3.386719-1.371094 5.171875-1.972656 4.425781 8.816406 12.667969 17.046874 23.914062 23.695312 12.964844 7.660156 27.886719 12.058594 40.945313 12.058594s27.980469-4.398438 40.945313-12.058594c11.246093-6.648438 19.488281-14.878906 23.914062-23.695312 1.785156.601562 3.515625 1.261718 5.171875 1.972656.964844.417968 1.972656.613281 2.960937.613281 2.90625 0 5.671876-1.699219 6.890626-4.539063 1.636718-3.804687-.121094-8.214843-3.925782-9.851562zm0 0"/><path d="m186.605469 216.644531c4.144531 0 7.5-3.359375 7.5-7.5v-3.167969c0-4.140624-3.355469-7.496093-7.5-7.496093-4.140625 0-7.5 3.355469-7.5 7.496093v3.167969c0 4.140625 3.359375 7.5 7.5 7.5zm0 0"/><path d="m267.046875 216.644531c4.144531 0 7.5-3.359375 7.5-7.5v-3.167969c0-4.140624-3.355469-7.496093-7.5-7.496093-4.140625 0-7.5 3.355469-7.5 7.496093v3.167969c0 4.140625 3.359375 7.5 7.5 7.5zm0 0"/></svg>