<svg height="512pt" viewBox="-82 0 512 512.001" width="512pt" xmlns="http://www.w3.org/2000/svg"><path d="m298.550781 504.5h-252.738281c-2.164062 0-3.921875-1.753906-3.921875-3.921875v-63.5625c0-20.699219 12.847656-39.222656 32.234375-46.476563l98.054688-36.691406 98.058593 36.691406c19.386719 7.257813 32.230469 25.78125 32.230469 46.476563v63.5625c0 2.167969-1.753906 3.921875-3.917969 3.921875zm0 0" fill="#ed6161"/><path d="m270.238281 390.539062-98.058593-36.691406-11.25 4.210938 86.808593 32.480468c19.386719 7.257813 32.230469 25.78125 32.230469 46.476563v63.5625c0 2.167969-1.753906 3.921875-3.917969 3.921875h22.5c2.164063 0 3.917969-1.753906 3.917969-3.921875v-63.5625c0-20.699219-12.84375-39.222656-32.230469-46.476563zm0 0" fill="#ce4545"/><path d="m273.652344 381.421875-62.597656-23.425781v-46.328125h-77.746094v46.328125l-62.597656 23.425781c-23.058594 8.628906-38.558594 30.96875-38.558594 55.597656v19.785157l45.171875-32.675782 19.484375 25.902344 28.25-14.035156 8.867187 28.074218 38.257813-12.664062 38.253906 12.664062 8.867188-28.074218 28.25 14.035156 19.484374-25.902344 45.175782 32.675782v-19.789063c-.003906-24.625-15.503906-46.964844-38.5625-55.59375zm0 0" fill="#fdeaaf"/><path d="m273.652344 381.421875-62.597656-23.425781v-46.328125h-24.742188v46.328125l62.597656 23.425781c23.058594 8.628906 38.558594 30.96875 38.558594 55.597656v1.886719l24.742188 17.898438v-19.785157c0-24.628906-15.5-46.96875-38.558594-55.597656zm0 0" fill="#f8cc7c"/><path d="m281.03125 234.09375c0-62.914062-48.734375-113.914062-108.851562-113.914062-60.113282 0-108.847657 51-108.847657 113.914062 0 62.910156 48.734375 113.910156 108.847657 113.910156 60.117187 0 108.851562-51 108.851562-113.910156zm0 0" fill="#fdeaaf"/><path d="m181.875 120.636719c44.632812 14.214843 77.109375 57.628906 77.109375 108.984375 0 62.910156-48.734375 113.910156-108.851563 113.910156-3.265624 0-6.496093-.160156-9.691406-.453125 10.042969 3.199219 20.699219 4.925781 31.738282 4.925781 60.117187 0 108.851562-51 108.851562-113.910156 0-59.492188-43.582031-108.324219-99.15625-113.457031zm0 0" fill="#f8cc7c"/><path d="m185.722656 250.835938c8.414063-7.855469 45.453125-24.128907 55.554688-20.761719 1.121094 11.222656-.5625 25.25-11.222656 29.742187-10.664063 4.488282-28.011719 6.414063-31.898438 5.84375-11.042969-1.625-12.433594-14.824218-12.433594-14.824218zm0 0" fill="#4e5173"/><path d="m158.640625 250.835938c-8.417969-7.855469-45.453125-24.128907-55.554687-20.761719-1.121094 11.222656.558593 25.25 11.222656 29.742187 10.660156 4.488282 28.011718 6.414063 31.898437 5.84375 11.039063-1.625 12.433594-14.824218 12.433594-14.824218zm0 0" fill="#4e5173"/><path d="m339.625 189.179688-42.558594 33.601562c-2.128906 1.679688-4.910156 2.308594-7.558594 1.71875l-13.582031-3.070312-146.75-33.160157c-5.78125-1.300781-11.828125-.789062-17.308593 1.460938l-2.5625 1.058593h-.007813l-50.710937 20.902344c-2.640626 1.089844-5.640626.859375-8.078126-.621094l-4.703124-2.839843h-.007813l-36.359375-21.992188c-2.980469-1.796875-2.402344-6.269531.929688-7.257812l64.507812-19.109375 67.320312-148.839844c.980469-2.152344 3.109376-3.53125 5.472657-3.53125h51.597656c.628906 0 1.242187.101562 1.832031.289062.21875.070313.4375.152344.648438.25l53.921875 24.570313c.699219.3125 1.488281.351563 2.21875.101563l1.53125-.53125 21.9375-7.570313c2.511719-.871094 4.832031 1.71875 3.691406 4.121094l-18.808594 39.597656c-.601562 1.261719-1.992187 1.941406-3.351562 1.640625l-19.390625-4.257812-18.140625-3.992188-.289063-.058594 46.390625 102.570313 66.730469 17.949219c3.167969.851562 4.019531 4.960937 1.4375 7zm0 0" fill="#935d38"/><path d="m201.835938 8.082031 23.230468 53.582031h.003906l-.003906-.003906.289063.058594 18.140625 3.992188 1.488281.324218-20.6875-47.71875zm0 0" fill="#704426"/><path d="m75.105469 159.355469h194.148437l-16.1875-35.789063h-161.769531zm0 0" fill="#ffa436"/><path d="m248.738281 229.328125c-.292969-2.941406-2.285156-5.433594-5.089843-6.367187-6.425782-2.144532-17.71875-.015626-33.566407 6.320312-9.894531 3.960938-23.554687 10.542969-29.476562 16.074219-1.722657 1.605469-2.589844 3.925781-2.34375 6.269531.746093 7.050781 5.542969 19.507812 18.800781 21.457031.703125.101563 1.644531.152344 2.777344.152344 7.378906 0 22.867187-2.1875 33.121094-6.507813 11.902343-5.007812 17.652343-18.640624 15.777343-37.398437zm-21.597656 23.574219c-9.417969 3.964844-24.910156 5.660156-27.894531 5.335937-2.605469-.382812-4.125-2.460937-4.992188-4.4375 4.441406-2.863281 11.984375-6.789062 20.925782-10.398437 8.445312-3.410156 14.8125-5.175782 18.890624-5.902344-.304687 9.203125-3.546874 13.980469-6.929687 15.402344zm0 0"/><path d="m144.523438 273.234375c1.132812 0 2.070312-.050781 2.773437-.152344 13.261719-1.949219 18.058594-14.40625 18.800781-21.457031.25-2.34375-.617187-4.664062-2.339844-6.273438-5.921874-5.527343-19.582031-12.109374-29.476562-16.070312-15.847656-6.335938-27.140625-8.464844-33.566406-6.324219-2.804688.9375-4.796875 3.429688-5.09375 6.371094-1.875 18.757813 3.875 32.386719 15.777344 37.398437 10.257812 4.320313 25.746093 6.507813 33.125 6.507813zm-15.339844-29.832031c8.945312 3.609375 16.488281 7.539062 20.929687 10.402344-.859375 1.972656-2.371093 4.050781-4.953125 4.429687-3.027344.328125-18.523437-1.367187-27.941406-5.332031-3.378906-1.421875-6.621094-6.199219-6.921875-15.398438 4.082031.726563 10.449219 2.492188 18.886719 5.898438zm0 0"/><path d="m235.78125 274.953125c-3.746094-1.769531-8.214844-.164063-9.980469 3.582031l-6.316406 13.378906-22.917969 7c-1.359375.417969-2.574218 1.210938-3.503906 2.292969l-6.992188 8.15625-10.84375-4.816406c-1.9375-.859375-4.152343-.859375-6.089843 0l-10.84375 4.816406-6.992188-8.15625c-.925781-1.082031-2.144531-1.875-3.503906-2.292969l-22.917969-7-6.316406-13.378906c-1.765625-3.75-6.234375-5.351562-9.980469-3.582031-3.746093 1.765625-5.351562 6.238281-3.582031 9.980469l7.730469 16.382812c.902343 1.914063 2.570312 3.355469 4.59375 3.972656l24.007812 7.332032 9.210938 10.746094c2.15625 2.515624 5.710937 3.316406 8.738281 1.972656l12.902344-5.730469 12.898437 5.730469c.980469.433594 2.015625.644531 3.042969.644531 2.140625 0 4.238281-.917969 5.695312-2.617187l9.210938-10.746094 24.007812-7.332032c2.023438-.617187 3.691407-2.058593 4.59375-3.972656l7.730469-16.382812c1.769531-3.742188.164063-8.214844-3.582031-9.980469zm0 0"/><path d="m348.40625 183.726562c-.878906-4.285156-4.050781-7.652343-8.273438-8.789062l-63.300781-17.027344-29.644531-65.535156c-.003906-.007812-.003906-.011719-.007812-.019531l-9.117188-20.15625 23.210938 5.097656c4.808593 1.058594 9.632812-1.308594 11.742187-5.75l18.804687-39.597656c1.816407-3.832031 1.167969-8.347657-1.660156-11.507813-2.824218-3.160156-7.242187-4.304687-11.253906-2.921875l-21.765625 7.515625-52.28125-23.820312c-1.769531-.804688-3.652344-1.214844-5.597656-1.214844h-51.59375c-5.292969 0-10.121094 3.117188-12.300781 7.9375l-17.296876 38.242188c-1.707031 3.773437-.03125 8.214843 3.742188 9.921874 3.773438 1.707032 8.21875.03125 9.921875-3.742187l16.902344-37.359375h50.300781l53.609375 24.425781c2.460937 1.125 5.226563 1.257813 7.789063.375l13.335937-4.605469-12.671875 26.683594-30.652344-6.734375-7.59375-16.789062c-1.707031-3.773438-6.148437-5.449219-9.925781-3.742188-3.773437 1.707031-5.449219 6.148438-3.742187 9.921875l24.425781 54c.003906.003906.003906.007813.003906.011719l7.925781 17.519531h-138.523437l15.96875-35.300781c1.707031-3.773437.03125-8.214844-3.742188-9.921875-3.777343-1.710938-8.21875-.03125-9.925781 3.742188l-35.765625 79.070312-61.21875 18.132812c-4.363281 1.296876-7.558594 5.046876-8.140625 9.5625-.578125 4.515626 1.5625 8.953126 5.457031 11.304688l41.070313 24.832031c3.027344 1.832031 6.554687 2.613281 10.015625 2.308594-.535157 4.734375-.804688 9.511719-.804688 14.292969 0 49.335937 28.480469 92.558594 69.972657 111.390625v6.4375c-1.363282-1.148438-2.722657-2.347657-4.085938-3.597657-3.050781-2.800781-7.792969-2.59375-10.59375.457032-2.507812 2.734375-2.605469 6.824218-.40625 9.660156l-36.136719 13.527344c-3.878906 1.453125-5.847656 5.773437-4.394531 9.652344 1.128906 3.015624 3.988281 4.875 7.023438 4.875.875 0 1.765624-.15625 2.628906-.480469l44.101562-16.507813c15.90625 11.5 32.082032 17.3125 48.238282 17.3125 3.542968 0 7.089843-.28125 10.632812-.839844l-4.535156 36.246094c-.515625 4.109375 2.398437 7.859375 6.511718 8.375.3125.039063.628907.058594.9375.058594 3.730469 0 6.957032-2.773438 7.433594-6.570312l5.308594-42.390626c.101562-.039062.203125-.082031.304688-.121093l23.386718 25.6875c1.480469 1.625 3.511719 2.449219 5.550782 2.449219 1.800781 0 3.609374-.648438 5.046874-1.957032 3.0625-2.789062 3.285157-7.53125.496094-10.59375l-20.535156-22.550781c2.574219-1.554687 5.140625-3.257813 7.699219-5.105469l50.605469 18.941406c20.148437 7.539063 33.6875 27.0625 33.6875 48.574219v5.101563l-33.285157-24.070313c-3.3125-2.394531-7.929687-1.695312-10.390625 1.570313l-15.730468 20.917968-22.664063-11.265624c-1.964844-.976563-4.253906-1.042969-6.273437-.1875-2.015626.855468-3.558594 2.554687-4.21875 4.644531l-6.578126 20.828125-31.03125-10.269532c-1.53125-.507812-3.183593-.507812-4.714843 0l-31.039063 10.269532-6.570312-20.824219c-.660156-2.089844-2.203125-3.789063-4.21875-4.644531-2.019532-.859375-4.308594-.792969-6.273438.183594l-22.675781 11.265624-15.730469-20.917968c-2.460937-3.265625-7.074218-3.960938-10.390625-1.566406l-33.273437 24.0625v-5.097657c0-14.320312 6.070312-28.179687 16.65625-38.027343 3.03125-2.820313 3.203125-7.566407.386718-10.601563-2.820312-3.03125-7.566406-3.203125-10.601562-.382813-13.628906 12.675782-21.441406 30.539063-21.441406 49.011719v19.78125c0 2.816407 1.578125 5.394531 4.085937 6.679688 1.777344.90625 3.808594 1.054687 5.652344.476562v36.625c0 6.296875 5.125 11.417969 11.421875 11.417969h252.738281c6.296875 0 11.421875-5.121094 11.421875-11.417969v-36.621093c1.84375.574218 3.875.425781 5.648438-.480469 2.511718-1.28125 4.089844-3.863281 4.089844-6.679688v-19.78125c0-27.734375-17.453126-52.902343-43.429688-62.621093l-42.640625-15.960938c2.195313-2.835938 2.101563-6.925781-.40625-9.660156-2.800781-3.050782-7.546875-3.253906-10.597656-.457032-1.363281 1.25-2.722657 2.449219-4.085938 3.601563v-6.457031c15.894531-7.21875 30.191407-18.125 41.710938-32.039063 18.230469-22.023437 28.269531-50.195312 28.269531-79.335937 0-.710938-.007812-1.425782-.019531-2.140625 1 .183593 2.003906.273437 3 .273437 3.667969 0 7.253906-1.226562 10.199219-3.554687l42.554687-33.601563c3.4375-2.710937 5.023437-7.054687 4.140625-11.339844zm-86.40625 313.273438v-25.960938c0-4.140624-3.355469-7.5-7.5-7.5-4.140625 0-7.5 3.359376-7.5 7.5v25.960938h-149.636719v-25.960938c0-4.140624-3.359375-7.5-7.5-7.5-4.144531 0-7.5 3.359376-7.5 7.5v25.960938h-32.96875v-43.414062l26.359375-19.066407 15.054688 20.019531c2.171875 2.886719 6.097656 3.816407 9.332031 2.207032l20.410156-10.140625 6.21875 19.71875c.605469 1.914062 1.953125 3.507812 3.738281 4.421875 1.066407.546875 2.238282.824218 3.414063.824218.792969 0 1.589844-.128906 2.359375-.382812l35.902344-11.878906 35.894531 11.878906c1.902344.628906 3.980469.472656 5.769531-.441406 1.789063-.914063 3.132813-2.503906 3.738282-4.417969l6.230468-19.722656 20.398438 10.140625c3.238281 1.609375 7.160156.679687 9.332031-2.207032l15.054687-20.019531 26.371094 19.070313v43.410156zm-13.773438-365.933594 9.402344 20.789063h-170.898437l9.40625-20.789063zm.484376 172.792969c-15.78125 19.066406-37.496094 31.644531-61.140626 35.421875-4.089843.65625-6.875 4.5-6.222656 8.589844.589844 3.691406 3.777344 6.320312 7.398438 6.320312.390625 0 .789062-.03125 1.191406-.097656 4.609375-.734375 9.15625-1.761719 13.617188-3.066406v6.960937c0 1.429688.40625 2.792969 1.125 3.953125-10.953126 6.5625-21.832032 9.875-32.5 9.875-10.671876 0-21.546876-3.3125-32.5-9.878906.71875-1.160156 1.125-2.519531 1.125-3.949219v-6.949219c5.507812 1.605469 11.1875 2.796876 17.011718 3.546876.324219.042968.648438.0625.96875.0625 3.714844 0 6.941406-2.757813 7.425782-6.542969.53125-4.109375-2.371094-7.867188-6.480469-8.394531-8.097657-1.042969-15.875-3.078126-23.230469-5.980469-.269531-.125-.546875-.238281-.832031-.332031-38.238281-15.492188-64.835938-54.515626-64.835938-99.308594 0-6.75.605469-13.488282 1.804688-20.078125l42.085937-17.34375c4.074219-1.679688 8.5-2.050781 12.796875-1.082031l145.878907 32.960937c.089843 1.847656.136718 3.699219.136718 5.542969 0 25.652344-8.816406 50.429687-24.824218 69.769531zm43.707031-86.964844c-.355469.28125-.816407.386719-1.257813.285157l-160.332031-36.222657c-7.328125-1.65625-14.875-1.019531-21.820313 1.84375l-45.519531 18.757813c-.179687.066406-.355469.140625-.527343.21875l-7.230469 2.980468c-.4375.179688-.941407.140626-1.347657-.105468l-34.289062-20.730469 56.910156-16.855469c.207032-.0625.410156-.132812.605469-.207031h186.808594l.207031.460937c.925781 2.046876 2.71875 3.570313 4.886719 4.152344l59.996093 16.140625zm0 0"/></svg>