<svg height="512pt" viewBox="-61 0 512 512" width="512pt" xmlns="http://www.w3.org/2000/svg"><path d="m64.289062 161.261719c-2.117187 17.578125-3.242187 35.855469-3.242187 54.625 0 137.511719 60.011719 248.988281 134.042969 248.988281 74.027344 0 134.042968-111.476562 134.042968-248.988281 0-18.769531-1.128906-37.046875-3.246093-54.625zm0 0" fill="#f9dc6a"/><path d="m325.886719 161.261719h-22.226563c1.941406 17.578125 2.972656 35.855469 2.972656 54.625 0 133.855469-52.09375 243.027343-117.414062 248.738281 1.945312.15625 3.902344.253906 5.871094.253906 74.027344 0 134.042968-111.476562 134.042968-248.992187 0-18.769531-1.128906-37.046875-3.246093-54.625zm0 0" fill="#e5ac51"/><path d="m214.984375 7.5 54.179687 75.011719 56.339844-44.242188c12.863282-10.105469 5.71875-30.769531-10.640625-30.769531zm0 0" fill="#6e7093"/><path d="m325.210938 504.5h-260.246094c-2.226563 0-4.035156-1.808594-4.035156-4.035156v-79.496094c0-21.3125 13.226562-40.386719 33.1875-47.855469l100.972656-37.785156 100.96875 37.78125c19.960937 7.46875 33.191406 26.546875 33.191406 47.859375v79.496094c0 2.226562-1.808594 4.035156-4.039062 4.035156zm0 0" fill="#6e7093"/><path d="m296.058594 373.109375-100.96875-37.78125-11.90625 4.457031 89.0625 33.324219c19.960937 7.46875 33.1875 26.546875 33.1875 47.859375v79.496094c0 2.226562-1.808594 4.035156-4.035156 4.035156h23.8125c2.230468 0 4.039062-1.808594 4.039062-4.035156v-79.496094c0-21.3125-13.230469-40.390625-33.191406-47.859375zm0 0" fill="#4e5173"/><path d="m155.0625 291.894531v58.878907c0 22.105468 17.917969 40.027343 40.027344 40.027343 22.105468 0 40.027344-17.921875 40.027344-40.027343v-58.878907zm0 0" fill="#f9c295"/><path d="m155.0625 333.632812c15.097656 9.136719 32.355469 14.332032 50.691406 14.332032 10.183594 0 20.03125-1.601563 29.363282-4.585938v-51.484375h-80.054688zm0 0" fill="#e59f6a"/><path d="m290.085938 260.65625c-17.957032 38.441406-53.769532 64.644531-94.996094 64.644531-40.839844 0-76.359375-25.710937-94.484375-63.546875 16.136719-19.070312 21.546875-44.261718 23.160156-76.472656h51.703125c9.96875 31.140625 50.285156 58.984375 114.617188 75.375zm0 0" fill="#f9c295"/><path d="m380.203125 175.359375-61.648437-39.941406-62.191407-114.667969c-4.429687-8.164062-12.972656-13.25-22.261719-13.25h-78.027343c-9.289063 0-17.832031 5.085938-22.261719 13.25l-62.191406 114.664062-61.648438 39.941407c-4.511718 2.925781-2.441406 9.925781 2.933594 9.925781h364.363281c5.375 0 7.445313-7 2.933594-9.921875zm0 0" fill="#6e7093"/><path d="m380.203125 175.359375-61.648437-39.945313-62.191407-114.664062c-4.429687-8.164062-12.972656-13.25-22.261719-13.25h-26.003906c8.222656 0 15.785156 5.085938 19.707032 13.25l55.054687 114.664062 54.574219 39.945313c3.992187 2.921875 2.160156 9.921875-2.597656 9.921875h42.433593c5.375 0 7.445313-7 2.933594-9.921875zm0 0" fill="#4e5173"/><path d="m86.519531 107.953125-14.898437 27.460937h246.933594l-14.894532-27.460937zm0 0" fill="#b78358"/><path d="m303.660156 107.953125h-33.988281l13.1875 27.460937h35.695313zm0 0" fill="#935d38"/><path d="m209.757812 148.152344h-29.335937c-9.414063 0-17.042969-7.628906-17.042969-17.039063v-18.855469c0-9.410156 7.628906-17.039062 17.042969-17.039062h29.335937c9.410157 0 17.039063 7.628906 17.039063 17.039062v18.855469c0 9.410157-7.628906 17.039063-17.039063 17.039063zm0 0" fill="#ffcd34"/><path d="m258.550781 504.5c-7.6875-39.546875-36.902343-93.304688-63.464843-113.699219-26.558594 20.394531-55.773438 74.152344-63.460938 113.699219zm0 0" fill="#b1bfc4"/><path d="m211.472656 390.800781c0 9.046875-7.335937 16.382813-16.382812 16.382813-9.050782 0-16.386719-7.335938-16.386719-16.382813 0-9.050781 7.335937-16.386719 16.386719-16.386719 9.046875 0 16.382812 7.335938 16.382812 16.386719zm0 0" fill="#bfea92"/><path d="m384.28125 169.0625-60.042969-38.902344-13.988281-25.785156c-.019531-.039062-.039062-.078125-.0625-.117188l-16.898438-31.15625 36.839844-28.929687c8.414063-6.605469 11.597656-17.40625 8.101563-27.523437-3.496094-10.113282-12.664063-16.648438-23.363281-16.648438h-158.792969c-12.050781 0-23.105469 6.582031-28.855469 17.175781l-47.230469 87.082031c-.023437.039063-.042969.078126-.0625.117188l-13.988281 25.785156-60.042969 38.902344c-4.835937 3.132812-6.988281 8.953125-5.355469 14.480469 1.636719 5.523437 6.605469 9.238281 12.367188 9.238281h41.207031c-.359375 7.347656-.550781 14.789062-.566406 22.210938-.007813 4.144531 3.34375 7.507812 7.484375 7.519531h.015625c4.136719 0 7.492187-3.351563 7.5-7.484375.015625-7.441406.210937-14.894532.585937-22.246094h46.648438v.046875c-1.734375 22.851563-6.234375 46.746094-20.90625 64.082031-4.324219 5.113282-9.347656 9.589844-15.355469 13.679688-3.421875 2.332031-4.308593 6.996094-1.976562 10.421875 1.449219 2.128906 3.808593 3.277343 6.203125 3.277343 1.453125 0 2.921875-.421874 4.214844-1.300781 3.894531-2.648437 7.523437-5.519531 10.855468-8.582031 12.078125 20.78125 29.070313 36.917969 48.742188 46.910156v23.792969l-51.917969 19.425781c-14.425781-34.875-23.464844-76.191406-26.207031-120.023437-.257813-4.132813-3.800782-7.265625-7.953125-7.015625-4.132813.257812-7.273438 3.820312-7.015625 7.953125 2.855468 45.632812 12.335937 88.757812 27.488281 125.238281-17.394531 10.457031-28.523437 29.550781-28.523437 50.28125v79.492188c0 6.363281 5.175781 11.539062 11.539062 11.539062h260.238281c6.363281 0 11.542969-5.175781 11.542969-11.539062v-35.949219c0-4.144531-3.359375-7.5-7.5-7.5-4.144531 0-7.5 3.355469-7.5 7.5v32.488281h-34.394531v-40.996094c0-4.144531-3.359375-7.5-7.5-7.5-4.144531 0-7.5 3.355469-7.5 7.5v40.996094h-7.761719c-7.582031-31.800781-27.210938-70.832031-48.09375-95.613281 1.457031-2.9375 2.292969-6.160157 2.441406-9.496094 3.546875-2.058594 6.8125-4.570313 9.761719-7.511719 6.578125-6.582031 10.988281-14.753906 12.875-23.644531l51.851563 19.402344c.636718.234375 1.265624.488281 1.886718.757812.070313.035157.144532.070313.21875.101563.101563.042968.203125.085937.304688.125 15.597656 6.941406 25.90625 22.636718 25.90625 39.847656v13.542969c0 4.140625 3.359375 7.5 7.5 7.5 4.144531 0 7.5-3.359375 7.5-7.5v-13.542969c0-20.730469-11.125-39.828125-28.527344-50.28125 18.351562-44.246094 28.410156-98.886719 28.410156-154.796875 0-7.703125-.1875-15.445313-.5625-23.109375h41.203125c5.761719 0 10.730469-3.710938 12.367188-9.238281 1.632812-5.527344-.519531-11.347657-5.355469-14.480469zm-300.0625-41.140625 6.765625-12.472656h64.894531v12.472656zm86.660156 3.191406v-18.855469c0-5.261718 4.28125-9.539062 9.542969-9.539062h29.335937c5.261719 0 9.539063 4.277344 9.539063 9.539062v18.855469c0 5.261719-4.277344 9.539063-9.539063 9.539063h-29.335937c-5.261719 0-9.542969-4.277344-9.542969-9.539063zm63.417969-15.664062h64.894531l6.765625 12.472656h-71.660156zm-93.890625-91.121094c3.121094-5.753906 9.125-9.328125 15.667969-9.328125h78.027343c6.542969 0 12.546876 3.574219 15.667969 9.328125l6.15625 11.351563c1.976563 3.640624 6.523438 4.992187 10.167969 3.015624 3.644531-1.972656 4.992188-6.523437 3.019531-10.167968l-6.15625-11.351563c-.40625-.746093-.835937-1.472656-1.292969-2.175781h53.203126c6.425781 0 8.65625 5.011719 9.1875 6.550781.527343 1.535157 1.867187 6.851563-3.1875 10.820313l-34.832032 27.355468-2.59375-4.777343c-1.972656-3.640625-6.527344-4.992188-10.167968-3.019531-3.640626 1.976562-4.992188 6.527343-3.015626 10.171874l20.800782 38.347657h-59.796875c-4.179688-7.582031-12.253907-12.730469-21.507813-12.730469h-29.335937c-9.253907 0-17.328125 5.148438-21.507813 12.730469h-59.792968zm-30.9375 238.359375c14.808594-19.46875 19.5625-45.414062 21.351562-69.90625h39.429688c16.226562 38.742188 68.683594 61.421875 108.921875 72.71875-11.378906 20.222656-27.886719 35.535156-47.003906 44.214844-.101563.042968-.199219.085937-.292969.132812-11.507812 5.175782-23.953125 7.953125-36.785156 7.953125-35.175782 0-67.601563-20.996093-85.621094-55.113281zm-41.039062 158.28125c0-15.859375 8.3125-31.332031 26.445312-40.082031 1.757812-.753907-.613281.195312 53.738281-20.15625 2.792969 13.03125 10.972657 24.398437 22.621094 31.160156.148437 3.339844.988281 6.566406 2.4375 9.496094-20.882813 24.785156-40.507813 63.8125-48.089844 95.613281h-7.757812v-40.996094c0-4.144531-3.359375-7.5-7.5-7.5-4.144531 0-7.5 3.355469-7.5 7.5v40.996094h-34.394531zm133.132812-24.101562c-5.945312 6.382812-16.957031 1.144531-15.152344-7.964844.875-4.050782 4.511719-6.984375 8.679688-6.984375 7.734375.003906 11.800781 9.292969 6.472656 14.949219zm-60.527344 100.132812c7.484375-28.617188 24.78125-62.660156 43.242188-84.917969 1.890625.597657 10.882812 5.453125 21.625.003907 18.460937 22.257812 35.753906 56.300781 43.238281 84.914062zm77.066406-123.230469c-1.136718 1.132813-2.34375 2.175781-3.613281 3.121094-4.386719-6.085937-11.542969-9.96875-19.398437-9.96875-7.851563 0-15.007813 3.878906-19.398438 9.96875-8.148437-6.058594-13.132812-15.695313-13.132812-26.121094v-.304687c.003906-.097656.003906-.199219 0-.296875v-22.605469c10.40625 3.429688 21.34375 5.238281 32.53125 5.238281 11.199218 0 22.132812-1.800781 32.527344-5.21875v22.585938.296875.304687c0 8.6875-3.382813 16.859375-9.515626 23zm103.527344-157.878906c0 53.8125-9.589844 106.265625-27.09375 148.640625l-51.917968-19.421875v-23.757813c21.242187-10.777343 39.335937-28.722656 51.515624-51.972656 3.261719.78125 6.519532 1.519532 9.734376 2.203125.527343.113281 1.054687.167969 1.574218.167969 3.460938 0 6.574219-2.410156 7.324219-5.933594.867187-4.050781-1.714844-8.035156-5.765625-8.902344-4.964844-1.058593-10.035156-2.246093-15.0625-3.523437-53.292969-13.578125-90.675781-35.316406-105.003906-60.609375h134.117187c.382813 7.65625.578125 15.402344.578125 23.109375zm6.664063-38.109375c-.097657-.003906-.199219-.003906-.300781 0h-152.460938c-.050781 0-.097656 0-.148438 0h-51.570312c-.066406 0-.128906 0-.191406 0h-61.386719c-.148437-.003906-.292969-.003906-.441406 0h-41.765625l53.804687-34.859375h85.082031c4.179688 7.582031 12.253907 12.730469 21.507813 12.730469h29.335937c9.253907 0 17.328126-5.148438 21.507813-12.730469h85.078125l53.808594 34.859375zm0 0"/><path d="m145.339844 225.78125c-4.144532 0-7.5-3.355469-7.5-7.5v-2c0-4.140625 3.355468-7.5 7.5-7.5 4.140625 0 7.5 3.359375 7.5 7.5v2c0 4.144531-3.359375 7.5-7.5 7.5zm0 0"/><path d="m195.085938 278.046875c-12.183594 0-23.613282-2.519531-32.191407-7.09375-3.65625-1.945313-5.039062-6.488281-3.089843-10.144531 1.945312-3.65625 6.488281-5.042969 10.144531-3.089844 6.351562 3.382812 15.515625 5.324219 25.136719 5.324219 9.628906 0 18.792968-1.941407 25.144531-5.324219 3.652343-1.953125 8.195312-.566406 10.144531 3.089844s.566406 8.199218-3.089844 10.144531c-8.578125 4.574219-20.015625 7.09375-32.199218 7.09375zm0 0"/></svg>