<svg height="512pt" viewBox="-97 0 512 512.00514" width="512pt" xmlns="http://www.w3.org/2000/svg"><path d="m310.679688 147.582031c-2.910157-17.507812-22.152344-26.796875-32.1875-40.398437-10.878907-14.746094-12.046876-35.332032-18.839844-52.835938-12.015625-30.949218-43.8125-50.824218-73.890625-46.179687-27.726563 4.277343-51.816407 26.679687-79.800781 27.386719-18.550782.46875-43.601563-10.199219-57.804688 8.386718-7.769531 10.160156-6.882812 24.757813-5.929688 37.851563.949219 13.097656.957032 27.988281-7.828124 37.15625-6.910157 7.210937-17.964844 9.203125-23.53125 17.644531-4.289063 6.507812-4.125 15.453125-1.445313 22.886719 2.679687 7.429687 7.53125 13.6875 12.300781 19.796875 7.667969 9.824218 15.332032 19.644531 23 29.464844 11.171875 14.3125 23.832032 11.8125 39.507813 12.257812 13.871093.398438 27.746093.796875 41.617187 1.191406 30.402344.871094 60.808594 1.738282 91.214844 2.609375 11.613281.332031 23.230469.6875 34.847656 1.050781 1.054688.035157 2.195313.042969 3.054688-.617187.941406-.722656 1.273437-2.027344 1.609375-3.210937 3.984375-14.007813 16.289062-23.046876 27.621093-31.238282 11.335938-8.1875 23.367188-17.976562 26.210938-32.300781.792969-3.984375.824219-7.589844.273438-10.902344zm0 0" fill="#6e7093"/><path d="m310.679688 147.582031c-2.910157-17.507812-22.15625-26.796875-32.1875-40.398437-10.878907-14.746094-12.046876-35.332032-18.839844-52.835938-11.855469-30.539062-42.972656-50.277344-72.695313-46.335937 22.546875 3.191406 43.722657 21.066406 52.757813 46.335937 6.257812 17.503906 7.332031 38.089844 17.351562 52.835938 9.242188 13.601562 26.964844 22.890625 29.644532 40.398437.507812 3.3125.476562 6.917969-.253907 10.902344-2.617187 14.320313-13.699219 24.113281-24.136719 32.300781s-21.769531 17.226563-25.4375 31.234375c-.308593 1.183594-.617187 2.488281-1.480468 3.210938-.054688.042969-.113282.078125-.167969.117187 5.558594.167969 11.117187.328125 16.675781.503906 1.054688.03125 2.195313.039063 3.054688-.621093.941406-.722657 1.273437-2.027344 1.609375-3.210938 3.984375-14.011719 16.289062-23.046875 27.621093-31.234375 11.335938-8.191406 23.367188-17.980468 26.210938-32.304687.792969-3.980469.824219-7.589844.273438-10.898438zm0 0" fill="#4e5173"/><path d="m253.210938 361.828125-58.972657-22.066406v-56.523438h-77.464843v56.523438l-58.972657 22.066406c-19.316406 7.226563-32.117187 25.683594-32.117187 46.308594v92.457031c0 2.15625 1.75 3.90625 3.90625 3.90625h251.832031c2.15625 0 3.90625-1.75 3.90625-3.90625v-92.457031c0-20.625-12.800781-39.082031-32.117187-46.308594zm0 0" fill="#80b9f9"/><path d="m253.210938 361.828125-58.972657-22.066406v-56.523438h-22.5v56.347657c0 5.917968 3.675781 11.214843 9.21875 13.289062l49.753907 18.621094c19.316406 7.226562 32.117187 25.683594 32.117187 46.308594v86.695312h18.59375c2.15625 0 3.90625-1.75 3.90625-3.90625v-92.457031c0-20.625-12.800781-39.082031-32.117187-46.308594zm0 0" fill="#3185db"/><path d="m237.53125 466.804688v37.695312h43.890625c2.15625 0 3.90625-1.75 3.90625-3.90625v-33.789062l-18.675781 14.398437-14.078125-23.78125zm0 0" fill="#f9c295"/><path d="m262.828125 474.742188v29.757812h18.59375c2.15625 0 3.90625-1.75 3.90625-3.90625v-33.789062l-18.675781 14.398437zm0 0" fill="#e59f6a"/><path d="m73.480469 466.804688v37.695312h-43.890625c-2.15625 0-3.90625-1.75-3.90625-3.90625v-33.789062l18.675781 14.398437 14.074219-23.78125zm0 0" fill="#f9c295"/><path d="m194.234375 339.761719v-56.523438h-77.460937v56.523438l-42.183594 15.785156c6.402344 19.640625 17.253906 37.269531 31.359375 51.710937l-1.566407 12.953126-14.238281 10.355468 24.914063 33.648438 1.617187-25.160156 19.90625-8.375c5.792969 3.222656 11.84375 6.035156 18.125 8.375 38.023438-14.179688 67.824219-45.222657 80.296875-84.042969zm0 0" fill="#f9c295"/><g fill="#e59f6a"><path d="m235.003906 355.015625-24.402344-9.132813-16.367187-6.121093v-56.523438h-22.496094v56.347657c0 5.921874 3.675781 11.21875 9.21875 13.292968l47.828125 17.898438c2.390625-5.089844 4.480469-10.347656 6.21875-15.761719zm0 0"/><path d="m194.234375 331.367188v-48.128907h-77.460937v40.792969c14.0625 8.007812 29.957031 12.527344 46.789062 12.527344 10.679688 0 20.980469-1.816406 30.671875-5.191406zm0 0"/><path d="m270.289062 245.773438h-35.210937v-61.261719h35.210937c10.128907 0 18.34375 8.214843 18.34375 18.347656v24.570313c0 10.128906-8.214843 18.34375-18.34375 18.34375zm0 0"/><path d="m40.722656 245.773438h35.207032v-61.261719h-35.207032c-10.132812 0-18.347656 8.214843-18.347656 18.347656v24.570313c0 10.128906 8.214844 18.34375 18.347656 18.34375zm0 0"/></g><path d="m155.503906 81.628906c-57.339844 0-103.820312 34.589844-103.820312 116.964844 0 64.597656 46.480468 116.96875 103.820312 116.96875s103.824219-52.371094 103.824219-116.96875c0-82.375-46.484375-116.964844-103.824219-116.964844zm0 0" fill="#f9c295"/><path d="m155.503906 81.628906c-2.167968 0-4.320312.054688-6.457031.15625 47.964844 2.535156 85.957031 37.550782 85.957031 116.808594 0 62.15625-37.992187 112.976562-85.957031 116.734375 2.136719.148437 4.289063.234375 6.457031.234375 57.339844 0 103.824219-52.371094 103.824219-116.96875 0-82.375-46.484375-116.964844-103.824219-116.964844zm0 0" fill="#e59f6a"/><path d="m190.773438 263.183594c0-13.332032-15.789063-24.140625-35.269532-24.140625-19.476562 0-35.269531 10.808593-35.269531 24.140625 0 13.332031 15.792969 24.140625 35.269531 24.140625 19.480469 0 35.269532-10.808594 35.269532-24.140625zm0 0" fill="#ce4545"/><path d="m155.503906 239.042969c-.238281 0-.472656.007812-.707031.011719v18.339843c0 3.199219 2.589844 5.789063 5.789063 5.789063h5.953124c3.199219 0 5.789063-2.589844 5.789063-5.789063v-15.433593c-5-1.859376-10.730469-2.917969-16.824219-2.917969zm0 0" fill="#e6eff5"/><path d="m256.640625 166.519531c-2.261719.796875-4.601563 1.320313-6.96875 1.535157-9.523437.863281-19.085937-2.640626-26.820313-8.257813-2.496093-1.804687-5.019531-3.914063-8.078124-4.242187-4.171876-.457032-7.839844 2.464843-11.394532 4.707031-3.425781 2.171875-7.261718 3.84375-11.308594 4.144531-4.039062.3125-8.320312-.882812-11.164062-3.777344-3.660156-3.6875-4.386719-9.296875-4.753906-14.480468-1.488282-20.859376-.273438-41.789063 1.824218-62.601563h.027344c16.269532-5.125 42.050782-1.921875 55.128906 27.527344 22.460938-2.183594 34.488282 42.683593 23.507813 55.445312zm0 0" fill="#fa7ec1"/><path d="m35.398438 158.945312c5.625-8.367187 15.632812-12.796874 25.539062-14.664062 9.90625-1.871094 20.089844-1.601562 30.097656-2.855469 10.003906-1.253906 20.285156-4.308593 27.355469-11.5 8.398437-8.539062 10.710937-21.121093 13.722656-32.714843 3.015625-11.59375 8.121094-24.082032 19.03125-29.03125h-86.886719zm0 0" fill="#6e7093"/><path d="m318.082031 146.347656c-2.304687-13.855468-12.511719-23.121094-21.519531-31.296875-4.582031-4.160156-8.914062-8.089843-12.035156-12.328125-6.050782-8.195312-8.789063-18.945312-11.6875-30.324218-1.75-6.871094-3.558594-13.972657-6.195313-20.765626-13.269531-34.171874-48.542969-56.046874-82.027343-50.878906-13.792969 2.128906-26.410157 8.214844-38.609376 14.097656-13.714843 6.617188-26.671874 12.863282-40.234374 13.207032-4.441407.113281-9.574219-.527344-14.996094-1.207032-15.859375-1.980468-35.59375-4.453124-48.585938 12.535157-7.128906 9.339843-8.027344 20.875-8.078125 28.738281-.027343 4.144531 3.308594 7.523438 7.449219 7.550781h.050781c4.121094 0 7.472657-3.324219 7.5-7.449219.0625-9.078124 1.648438-15.351562 4.996094-19.734374 7.234375-9.457032 17.976563-8.863282 34.804687-6.757813 5.734376.71875 11.671876 1.460937 17.238282 1.320313 16.792968-.425782 31.832031-7.679688 46.371094-14.691407 11.726562-5.65625 22.804687-10.996093 34.382812-12.785156 26.707031-4.117187 54.972656 13.714844 65.757812 41.480469 2.304688 5.945312 3.925782 12.304687 5.640626 19.039062 3.128906 12.277344 6.363281 24.976563 14.152343 35.527344 4.003907 5.433594 9.101563 10.058594 14.027344 14.53125 7.894531 7.167969 15.351563 13.9375 16.800781 22.648438.429688 2.570312.351563 5.261718-.234375 8.222656-1.96875 9.925781-10.070312 17.6875-18.589843 24.226562-4.070313-2.675781-8.941407-4.238281-14.167969-4.238281h-4.585938c-.320312-3-.714843-5.945313-1.171875-8.832031 5.347656-9.800782 5.605469-27.929688-3.390625-45.261719-5.800781-11.179687-14.070312-17.929687-23.238281-19.203125-14.140625-26.980469-39.769531-33.539062-60.363281-27.855469-6.988281-1.140625-14.320313-1.726562-21.824219-1.734375 2.703125-2.078125 3.726562-5.808594 2.257812-9.046875-1.710937-3.769531-6.15625-5.441406-9.929687-3.730469-14.589844 6.617188-20.222656 22.558594-23.1875 33.976563-.359375 1.382813-.707031 2.78125-1.0625 4.183594-2.453125 9.8125-4.773437 19.078125-10.75 25.160156-18.988281 19.308594-63.296875-.527344-83.871094 30.089844-2.308593 3.441406-1.394531 8.101562 2.042969 10.410156 1.285156.863281 2.738281 1.273437 4.175781 1.273437 2.414063 0 4.785157-1.164062 6.234375-3.316406 1.867188-2.785156 4.421875-4.929687 7.175782-6.585937-1.5625 6.492187-2.730469 13.328125-3.5 20.476562h-4.582032c-3.449218 0-6.742187.679688-9.753906 1.910157l-3.332031-4.265626c-4.351563-5.574218-8.851563-11.335937-11.15625-17.730468-2.15625-5.972656-1.898438-12.335938.660156-16.210938 2.101563-3.195312 5.84375-5.296875 10.183594-7.726562 4.0625-2.28125 8.671875-4.867188 12.496093-8.859375 5.839844-6.097657 9.125-14.371094 10.039063-25.300781.34375-4.128907-2.722656-7.753907-6.847656-8.101563-4.128907-.351563-7.753907 2.722656-8.101563 6.847656-.617187 7.371094-2.554687 12.664063-5.921875 16.179688-2.277343 2.375-5.542969 4.210937-9.003906 6.148437-5.28125 2.964844-11.265625 6.324219-15.367187 12.558594-5.226563 7.917969-6.066407 18.964844-2.246094 29.558594 3.117187 8.644531 8.601562 15.667968 13.441406 21.867187l3.511719 4.496094c-2.800781 4.132813-4.4375 9.113281-4.4375 14.46875v24.570313c0 14.253906 11.589843 25.851562 25.839843 25.851562h14.789063c11.320313 25.765625 30.375 46.550781 53.761719 58.535156v22.742188l-54.085938 20.242187c-3.046875 1.132813-6.019531 2.546875-8.839844 4.199219-3.574218 2.097656-4.773437 6.695312-2.675781 10.265625 1.398438 2.378906 3.902344 3.707031 6.476563 3.707031 1.289062 0 2.597656-.332031 3.789062-1.03125 2.070313-1.214844 4.25-2.25 6.492188-3.085937l9.667968-3.617188c6.398438 16.40625 15.957032 31.660157 27.984376 44.632813l-.75 6.199218-11.601563 8.4375c-1.617187 1.175782-2.695313 2.949219-3 4.925782-.304687 1.980468.195313 3.996094 1.386719 5.601562l24.917968 33.652344c1.441407 1.941406 3.695313 3.035156 6.03125 3.035156.703126 0 1.417969-.097656 2.117188-.304687 3.019531-.890625 5.164062-3.570313 5.363281-6.710938l1.324219-20.53125 12.316406-5.1875c5.152344 2.691407 10.484375 5.074219 15.898438 7.101563 1.691406.632812 3.558594.632812 5.25 0 37.585937-14.027344 67.820312-44.125 82.191406-81.371094l11.058594 4.140625c16.292968 6.097656 27.238281 21.886719 27.238281 39.285156v54.980469l-9.035156 6.964844-9.757813-16.484375c-1.027344-1.738281-2.714844-2.988281-4.675781-3.464844s-4.035156-.148437-5.746094.921875l-3.578125 2.230469v-11.25c0-4.140625-3.355468-7.5-7.5-7.5-4.144531 0-7.5 3.359375-7.5 7.5v54.960937h-149.054687v-54.960937c0-4.140625-3.359375-7.5-7.5-7.5s-7.5 3.359375-7.5 7.5v11.25l-3.578125-2.230469c-1.710938-1.070312-3.785156-1.402344-5.746094-.925781-1.960938.480469-3.648438 1.730469-4.675781 3.46875l-9.757813 16.484375-9.042968-6.972656v-54.972657c0-6.011719 1.257812-11.835937 3.742187-17.300781 1.710937-3.773438.042969-8.21875-3.730469-9.929688-3.773437-1.710937-8.21875-.042968-9.929687 3.730469-3.371094 7.429688-5.082031 15.335938-5.082031 23.5v92.449219c0 2.359375.722656 4.554688 1.953124 6.375 2.050782 3.035156 5.523438 5.035156 9.457032 5.035156h251.832031c1.027344 0 2.023437-.136718 2.972656-.394531 4.851563-1.308594 8.433594-5.75 8.433594-11.011719v-33.789062c0-.078125 0-.15625-.003906-.234375v-58.429688c0-23.621093-14.863281-45.050781-36.980469-53.332031l-17.96875-6.726562c-.152344-.0625-.3125-.121094-.472656-.175782l-35.660156-13.347656v-22.75c23.382812-11.984375 42.433593-32.765625 53.753906-58.53125h14.796875c14.25 0 25.839843-11.59375 25.839843-25.847656v-24.570313c0-3.578125-.730468-6.984375-2.046874-10.082031 10.589843-8.183594 20.789062-18.28125 23.675781-32.832031.929687-4.703125 1.039062-9.277344.320312-13.601563zm-284.898437 335.710938 6.597656 5.085937c1.699219 1.3125 3.882812 1.828125 5.992188 1.425781 2.113281-.40625 3.945312-1.699218 5.039062-3.546874l10.167969-17.175782 5 3.121094v26.03125h-32.796875zm211.847656 14.941406v-26.035156l5-3.117188 10.167969 17.175782c1.09375 1.847656 2.925781 3.140624 5.039062 3.542968 2.109375.40625 4.289063-.113281 5.992188-1.421875l6.59375-5.085937v14.941406zm-23.347656-391.277344c-1.140625.347656-2.28125.746094-3.417969 1.1875-1.851563-2.765625-4.507813-5.03125-7.886719-6.675781-4.3125-2.097656-9.710937-3.164063-16.046875-3.164063-4.140625 0-7.5 3.359376-7.5 7.5 0 4.144532 3.359375 7.5 7.5 7.5 3.929688 0 7.296875.585938 9.484375 1.652344.695313.335938 1.207032.683594 1.578125 1.058594-.832031.789062-1.628906 1.621094-2.371093 2.503906-4.542969 5.410156-6.605469 11.988282-5.96875 19.027344.355468 3.894531 3.625 6.820312 7.460937 6.820312.230469 0 .457031-.007812.6875-.03125 4.125-.375 7.167969-4.023437 6.792969-8.148437-.28125-3.09375.515625-5.640625 2.511718-8.015625.917969-1.089844 2.03125-2.074219 3.28125-2.957031.195313-.121094.386719-.25.570313-.386719 4.480469-2.957031 10.488281-4.640625 15.390625-5.042969.015625-.003906.03125-.003906.046875-.007812.023437 0 .039063 0 .0625-.003907 6.9375-.6875 12.089844 7.667969 13.96875 11.289063 5.59375 10.78125 6.699219 24.539063 4.070313 30.28125-.96875.230469-1.9375.390625-2.902344.476563-7.042969.640624-14.769532-1.796876-21.746094-6.867188l-.804688-.585938c-2.59375-1.910156-6.144531-4.527343-10.855468-5.035156-.578125-.0625-1.144532-.09375-1.703125-.09375-9.675781 0-14.578125 8.34375-22.390625 8.925782-6.574219.5-7.390625-4.683594-7.863282-11.3125-1.160156-16.300782-.765624-33.742188 1.289063-55.976563 8.246094-1.3125 25.023437-1.367187 36.761719 16.082031zm-180.960938 132.554688c-5.980468 0-10.839844-4.867188-10.839844-10.847656v-24.570313c0-5.980469 4.863282-10.839844 10.839844-10.839844h3.558594c-.066406 2.167969-.097656 4.359375-.097656 6.578125 0 13.867188 2.039062 27.214844 5.796875 39.679688zm150.890625 108.507812 33.863281 12.671875c-12.519531 32.347657-38.441406 58.644531-70.761718 71.5625-4.953125-1.984375-9.816406-4.296875-14.488282-6.894531-2.011718-1.121094-4.429687-1.25-6.554687-.355469l-19.898437 8.378907c-2.621094 1.105468-4.394532 3.59375-4.574219 6.429687l-.304688 4.710937-8.222656-11.105468 8.121094-5.90625c1.683593-1.226563 2.785156-3.097656 3.035156-5.164063l1.570313-12.949219c.273437-2.257812-.492188-4.519531-2.082032-6.144531-11.761718-12.035156-21.0625-26.457031-27.171875-42.039062l35.257813-13.195313c2.925781-1.097656 4.871094-3.898437 4.871094-7.023437v-21.6875c9.910156 3.246093 20.390624 4.984375 31.226562 4.984375 10.84375 0 21.328125-1.742188 31.242188-4.988282v21.691407c0 3.125 1.941406 5.925781 4.871093 7.023437zm-36.113281-38.726562c-53.109375 0-96.320312-49.101563-96.320312-109.460938 0-17.757812 2.261718-33.71875 6.71875-47.523437 17.152343-2.355469 41.832031.394531 57.839843-15.886719 8.84375-8.996094 11.90625-21.234375 14.609375-32.035156.339844-1.359375.679688-2.710938 1.027344-4.054688.902344-3.480468 1.890625-6.574218 2.976562-9.296875 4.28125-.449219 8.6875-.671875 13.148438-.671875 4.894531 0 9.691406.269532 14.332031.804688-2 22.285156-2.351562 40.019531-1.160156 56.746094.484375 6.859374 1.660156 13.941406 6.886719 19.207031 4.246094 4.320312 10.476562 6.5 17.070312 6 4.832032-.359375 9.804688-2.140625 14.753906-5.285157.53125-.335937 1.066407-.683593 1.605469-1.039062 1.617188-1.054688 4.058594-2.648438 4.980469-2.554688.699219.078126 2.433594 1.355469 3.582031 2.199219l.890625.65625c8.8125 6.398438 18.746094 9.820313 28.335938 9.820313 1.195312 0 2.386718-.050782 3.566406-.160156.027344 0 .054688-.003907.082031-.007813.378907 2.992187.683594 6.054687.910157 9.179687.003906.234376.019531.464844.046874.691407.292969 4.292969.441407 8.703125.441407 13.210937 0 60.359375-43.210938 109.460938-96.324219 109.460938zm125.632812-80.628906c0 5.980468-4.863281 10.847656-10.839843 10.847656h-9.269531c3.757812-12.46875 5.800781-25.8125 5.800781-39.679688 0-2.214844-.035157-4.40625-.101563-6.578125h3.570313c5.976562 0 10.839843 4.859375 10.839843 10.839844zm0 0"/><path d="m156.1875 231.546875c-.023438 0-.042969 0-.066406 0-.203125 0-.410156-.003906-.617188-.003906-23.980468 0-42.769531 13.898437-42.769531 31.640625 0 17.746094 18.789063 31.644531 42.769531 31.644531 23.984375 0 42.769532-13.898437 42.769532-31.644531 0-17.574219-18.429688-31.375-42.085938-31.636719zm6.109375 15.546875c.859375.140625 1.703125.304688 2.53125.496094v8.09375h-2.53125zm-6.792969 32.734375c-14.789062 0-27.765625-7.777344-27.765625-16.644531 0-7.167969 8.488281-13.625 19.558594-15.832032v10.042969c0 7.328125 5.960937 13.292969 13.289063 13.292969h5.957031c7.324219 0 13.289062-5.960938 13.289062-13.292969v-1.976562c2.183594 2.347656 3.441407 5.003906 3.441407 7.769531 0 8.863281-12.976563 16.640625-27.769532 16.640625zm0 0"/><path d="m128.96875 198.59375c0 10.492188-8.503906 18.996094-18.996094 18.996094-10.492187 0-18.996094-8.503906-18.996094-18.996094s8.503907-18.996094 18.996094-18.996094c10.492188 0 18.996094 8.503906 18.996094 18.996094zm0 0" fill="#e6eff5"/><path d="m220.03125 198.59375c0 10.492188-8.503906 18.996094-18.996094 18.996094-10.492187 0-18.996094-8.503906-18.996094-18.996094s8.503907-18.996094 18.996094-18.996094c10.492188 0 18.996094 8.503906 18.996094 18.996094zm0 0" fill="#e6eff5"/><path d="m109.972656 225.089844c-14.609375 0-26.496094-11.886719-26.496094-26.496094s11.886719-26.496094 26.496094-26.496094 26.496094 11.886719 26.496094 26.496094-11.886719 26.496094-26.496094 26.496094zm0-37.992188c-6.339844 0-11.496094 5.15625-11.496094 11.496094s5.15625 11.496094 11.496094 11.496094 11.496094-5.15625 11.496094-11.496094-5.15625-11.496094-11.496094-11.496094zm0 0"/><path d="m201.035156 225.089844c-14.609375 0-26.496094-11.886719-26.496094-26.496094s11.886719-26.496094 26.496094-26.496094 26.496094 11.886719 26.496094 26.496094-11.886719 26.496094-26.496094 26.496094zm0-37.992188c-6.339844 0-11.496094 5.15625-11.496094 11.496094s5.15625 11.496094 11.496094 11.496094 11.496094-5.15625 11.496094-11.496094-5.15625-11.496094-11.496094-11.496094zm0 0"/></svg>