<svg height="511pt" viewBox="0 -28 511.9998 511" width="511pt" xmlns="http://www.w3.org/2000/svg"><path d="m407.5 186.792969c-1.332031 24.882812-31.792969 73.027343-44.832031 78.128906-12.558594-1.667969-47.125-15.339844-56.007813-20.023437l-12.089844 94.5625c61.335938-44.503907 91.125 20.914062 97.398438 44.695312.472656 1.792969 2.808594 2.234375 3.921875.753906 41.015625-54.609375 85.667969 30.640625 98.835937 61.046875.875 2.023438 3.851563 1.679688 4.234376-.492187 15.472656-88.40625 1.910156-215.453125-88.226563-260.539063-1.445313-.71875-3.148437.253907-3.234375 1.867188zm0 0" fill="#6e7093"/><path d="m410.730469 184.929688c-1.441407-.722657-3.140625.253906-3.230469 1.863281-.085938 1.644531-.304688 3.394531-.636719 5.222656 59.914063 43.675781 75.328125 139.617187 69.832031 219.234375 8.011719 13.019531 14.289063 26.074219 18.027344 34.707031.878906 2.023438 3.855469 1.679688 4.234375-.492187 15.472657-88.40625 1.914063-215.453125-88.226562-260.535156zm0 0" fill="#4e5173"/><path d="m353.714844 262.890625c-15.539063-4.398437-39.816406-14.179687-47.054688-17.992187l-12.09375 94.5625c24.171875-17.539063 43.4375-18 58.300782-10.671876 3.679687-10.324218 5.835937-21.417968 5.835937-32.976562 0-12.285156-1.769531-23.261719-4.988281-32.921875zm0 0" fill="#4e5173"/><path d="m104.5 186.792969c1.332031 24.882812 31.792969 73.027343 44.832031 78.128906 12.554688-1.667969 47.125-15.339844 56.003907-20.023437l12.09375 94.5625c-61.335938-44.503907-91.125 20.914062-97.398438 44.695312-.472656 1.792969-2.808594 2.234375-3.921875.753906-41.015625-54.609375-85.671875 30.640625-98.835937 61.046875-.875 2.023438-3.851563 1.679688-4.234376-.492187-15.472656-88.40625-1.910156-215.453125 88.226563-260.539063 1.445313-.71875 3.144531.253907 3.234375 1.867188zm0 0" fill="#6e7093"/><path d="m158.28125 262.890625c15.542969-4.398437 39.820312-14.179687 47.058594-17.992187l12.089844 94.5625c-24.167969-17.539063-43.4375-18-58.300782-10.671876-3.675781-10.324218-5.832031-21.417968-5.832031-32.976562 0-12.285156 1.769531-23.261719 4.984375-32.921875zm0 0" fill="#4e5173"/><path d="m334.707031 295.8125c0 54.984375-48.671875 99.558594-78.707031 99.558594-30.039062 0-78.707031-44.574219-78.707031-99.558594s35.238281-84.027344 78.707031-84.027344 78.707031 29.042969 78.707031 84.027344zm0 0" fill="#6e7093"/><path d="m331.625 269.488281c-9.457031-37.871093-39.722656-57.703125-75.625-57.703125-31.578125 0-58.800781 15.34375-71.335938 44.808594 21.347657 20.050781 50.074219 32.335938 81.671876 32.335938 24.097656 0 46.527343-7.152344 65.289062-19.441407zm0 0" fill="#4e5173"/><path d="m377.226562 20.371094-8.191406-11.53125c-.425781-.601563-1.148437-.917969-1.882812-.824219l-14.027344 1.792969c-20.089844 2.566406-38.566406 12.4375-51.832031 27.460937-13.96875-5.734375-29.257813-8.90625-45.292969-8.90625s-31.324219 3.171875-45.292969 8.90625c-13.265625-15.023437-31.742187-24.894531-51.832031-27.460937l-14.027344-1.792969c-.734375-.09375-1.457031.222656-1.882812.824219l-8.191406 11.53125c-18.507813 26.054687-18.023438 61.628906 1.203124 88.527344 1.605469 2.246093 3.324219 4.394531 5.132813 6.457031-3.03125 10.792969-4.585937 22.203125-4.425781 34.003906.898437 65.472656 55.242187 118.402344 120.714844 117.648437 65.257812-.75 117.929687-53.882812 117.929687-119.320312 0-11.203125-1.546875-22.050781-4.4375-32.335938 1.8125-2.058593 3.53125-4.207031 5.136719-6.457031 19.226562-26.894531 19.707031-62.46875 1.199218-88.523437zm0 0" fill="#6e7093"/><path d="m377.226562 20.371094-8.191406-11.527344c-.425781-.601562-1.148437-.921875-1.882812-.828125l-11.3125 1.445313.292968.414062c18.507813 26.054688 18.027344 61.628906-1.199218 88.527344-1.609375 2.246094-3.328125 4.394531-5.136719 6.457031 2.886719 10.28125 4.4375 21.128906 4.4375 32.332031 0 65.902344-53.425781 119.328125-119.328125 119.328125-14.894531 0-29.148438-2.738281-42.296875-7.722656 18.714844 11.757813 40.921875 18.472656 64.714844 18.210937 63.308593-.6875 115.511719-51.421874 117.914062-114.683593.488281-12.855469-1.0625-25.273438-4.347656-36.96875 1.808594-2.0625 3.527344-4.210938 5.132813-6.457031 19.230468-26.898438 19.710937-62.472657 1.203124-88.527344zm0 0" fill="#4e5173"/><path d="m339.421875 139.539062c-1.199219-3.246093-5.335937-4.191406-7.796875-1.761718-11.113281 10.953125-27.207031 17.195312-44.535156 15.722656-1.527344-.128906-3.03125-.316406-4.515625-.5625-3.34375-.546875-6.167969 2.550781-5.332031 5.839844 3.402343 13.425781 15.203124 23.773437 29.933593 24.535156 16.980469.878906 31.972657-11.738281 34.003907-28.621094.640624-5.320312-.035157-10.476562-1.757813-15.152344zm0 0" fill="#fdeaaf"/><path d="m172.578125 139.539062c1.199219-3.246093 5.332031-4.191406 7.796875-1.761718 11.113281 10.953125 27.207031 17.195312 44.535156 15.722656 1.527344-.128906 3.03125-.316406 4.515625-.5625 3.34375-.546875 6.164063 2.550781 5.332031 5.839844-3.402343 13.425781-15.203124 23.773437-29.933593 24.535156-16.984375.878906-31.972657-11.738281-34.003907-28.621094-.640624-5.320312.035157-10.476562 1.757813-15.152344zm0 0" fill="#fdeaaf"/><path d="m187.433594 50.023438c-8.949219-8.265626-20.199219-13.351563-31.800782-14.835938-10.597656 14.917969-11.976562 35.058594-2.769531 52.464844 8.691407-14.898438 20.515625-27.742188 34.570313-37.628906zm0 0" fill="#b78358"/><path d="m359.136719 87.652344c9.207031-17.40625 7.828125-37.546875-2.769531-52.464844-11.605469 1.484375-22.851563 6.570312-31.804688 14.835938 14.058594 9.886718 25.882812 22.730468 34.574219 37.628906zm0 0" fill="#b78358"/><path d="m486.949219 255.890625c-1.761719-3.746094-6.226563-5.351563-9.976563-3.59375-3.746094 1.765625-5.355468 6.230469-3.59375 9.980469 20.851563 44.324218 28.335938 104.878906 20.765625 164.832031-12.703125-25.082031-36.78125-63.933594-65.371093-67.3125-7.230469-.851563-14.15625.507813-20.730469 4.054687.5625-6.605468.605469-12.589843.558593-16.191406-.109374-7.996094-.953124-27.5-6.464843-35.8125-2.289063-3.449218-6.941407-4.390625-10.394531-2.101562-3.449219 2.289062-4.390626 6.941406-2.101563 10.390625 3.035156 4.582031 5.058594 26.882812 3.296875 44.570312-3.164062-7.097656-7.613281-15.316406-13.667969-23.078125-11.179687-14.328125-24.625-22.628906-39.332031-24.433594 1.464844-6.910156 2.265625-14.058593 2.265625-21.378906 0-10.71875-1.25-20.722656-3.730469-29.9375 8.242188 2.875 17.332032 5.695313 23.210938 6.476563.328125.042969.65625.0625.988281.0625.929687 0 1.859375-.171875 2.734375-.515625 11.820312-4.632813 26.339844-27.800782 30.511719-34.789063 4.636719-7.785156 14.625-25.808593 17.992187-41.980469 17.703125 10.132813 32.886719 24.289063 45.203125 42.167969 2.351563 3.410157 7.019531 4.273438 10.429688 1.921875 3.410156-2.347656 4.269531-7.019531 1.921875-10.429687-15.265625-22.152344-34.570313-39.167969-57.382813-50.574219-2.945312-1.472656-6.402343-1.367188-9.242187.28125s-4.644532 4.59375-4.828125 7.894531c-.527344 9.867188-7.03125 26.359375-16.976563 43.035157-9.171875 15.378906-17.5 24.734374-21.632812 27.664062-5.875-1.222656-16.164063-4.539062-27.902344-8.988281 4.429688-3.429688 8.660156-7.175781 12.664062-11.226563 23.640626-23.898437 36.660157-55.574218 36.660157-89.191406 0-10.3125-1.242188-20.546875-3.695313-30.484375 1.046875-1.300781 2.050782-2.621094 2.996094-3.945313 21.085938-29.496093 21.574219-68.570312 1.214844-97.226562l-8.191406-11.53125c-2.035157-2.867188-5.464844-4.367188-8.945313-3.921875l-14.027344 1.792969c-20.105469 2.566406-38.695312 11.769531-52.894531 26.082031-13.855469-5.039063-28.390625-7.589844-43.28125-7.589844s-29.425781 2.550781-43.28125 7.589844c-14.199219-14.3125-32.789062-23.515625-52.894531-26.082031l-14.023438-1.792969c-3.488281-.445313-6.917969 1.054687-8.949219 3.921875l-8.191406 11.527344c-20.359375 28.660156-19.871094 67.734375 1.214844 97.230468.945312 1.324219 1.945312 2.644532 2.996094 3.945313-2.59375 10.507813-3.832032 21.339844-3.683594 32.257813.195312 14.316406 2.792969 28.359374 7.722656 41.738281 1.429688 3.886719 5.742188 5.875 9.625 4.445312 3.886719-1.429687 5.878906-5.742187 4.445313-9.628906-4.335938-11.777344-6.625-24.148437-6.796875-36.761719-.148438-10.824218 1.246094-21.546875 4.148437-31.871094.6875-2.449218.089844-5.074218-1.589843-6.980468-1.679688-1.910156-3.25-3.886719-4.667969-5.867188-17.367188-24.292968-17.84375-56.375-1.1875-79.820312l6.28125-8.84375 10.757812 1.375c18.242188 2.332031 34.992188 11.207031 47.164063 24.988281 2.113281 2.390625 5.515625 3.1875 8.46875 1.96875 13.484375-5.535156 27.765625-8.34375 42.445312-8.34375 14.679688 0 28.960938 2.808594 42.445313 8.34375 2.953125 1.21875 6.351562.421875 8.46875-1.96875 12.171875-13.78125 28.921875-22.65625 47.160156-24.988281l10.757813-1.375 6.28125 8.84375c16.65625 23.449218 16.179687 55.527344-1.1875 79.820312-1.414063 1.980469-2.988282 3.957032-4.667969 5.867188-1.675781 1.90625-2.273438 4.53125-1.585938 6.980468 2.757813 9.820313 4.15625 20.019532 4.15625 30.304688 0 29.644531-11.480469 57.574219-32.324219 78.644531-5.199218 5.257813-10.832031 9.933594-16.816406 14-.0625.035157-.121094.070313-.179687.105469-.269531.164062-.527344.34375-.769531.53125-17.78125 11.820312-38.609376 18.292969-60.425782 18.542969-22.703125.25-44.539062-6.414063-62.957031-18.65625-.242187-.191407-.5-.371094-.769531-.535157-.066406-.042968-.132813-.082031-.199219-.121093-11.375-7.730469-21.410156-17.609375-29.492187-29.316407-2.355469-3.410156-7.023438-4.261718-10.429688-1.910156-3.410156 2.355469-4.265625 7.023438-1.910156 10.433594 7.632812 11.050781 16.804687 20.667969 27.113281 28.636719-11.808594 4.484375-22.167969 7.820312-28.070313 9.050781-4.132812-2.929688-12.460937-12.285156-21.632812-27.664062-9.945312-16.675782-16.449219-33.164063-16.980469-43.050782-.179687-3.285156-1.984375-6.230468-4.824219-7.875-2.84375-1.652344-6.296874-1.753906-9.242187-.285156-22.8125 11.410156-42.121094 28.421875-57.382813 50.574219-2.351562 3.410156-1.488281 8.082031 1.921876 10.429687 3.40625 2.351563 8.078124 1.492188 10.425781-1.921875 12.320312-17.878906 27.507812-32.039062 45.210937-42.167969 3.367188 16.179688 13.351563 34.199219 17.988282 41.980469 4.171874 6.988281 18.6875 30.15625 30.511718 34.789063.875.34375 1.800782.519531 2.734375.519531.328125 0 .660157-.023437.988281-.066406 5.878907-.78125 14.96875-3.601563 23.210938-6.476563-2.480469 9.214844-3.730469 19.21875-3.730469 29.9375 0 7.320313.800781 14.46875 2.265625 21.378906-14.707031 1.800782-28.152344 10.105469-39.332031 24.433594-6.054687 7.761719-10.503906 15.984375-13.667969 23.082032-1.761718-17.6875.257813-39.992188 3.296875-44.574219 2.289063-3.449219 1.347657-8.101563-2.105469-10.390625-3.449218-2.292969-8.105468-1.347656-10.390624 2.101562-5.511719 8.3125-6.355469 27.816406-6.464844 35.816406-.046875 3.601563-.003906 9.585938.558594 16.191407-6.578126-3.550781-13.503907-4.910157-20.730469-4.058594-28.59375 3.378906-52.675781 42.238281-65.371094 67.3125-7.570313-59.953125-.085937-120.511719 20.773437-164.84375 1.761719-3.746094.152344-8.214844-3.59375-9.976563-3.746093-1.761718-8.214843-.15625-9.976562 3.589844-24.109375 51.234375-31.363281 122.589844-19.410156 190.878906.742187 4.253907 4.128906 7.457032 8.417968 7.96875.398438.046876.792969.070313 1.183594.070313 3.84375 0 7.328125-2.246094 8.902344-5.863281 14.121094-32.601563 38.523438-71.605469 60.832031-74.246094 8.695313-1.035156 16.910157 3.789062 25.140625 14.746094 2.269532 3 5.96875 4.402344 9.65625 3.679687 3.671875-.730469 6.542969-3.429687 7.492188-7.042969 4.9375-18.703124 21.296875-52.625 49-54.199218 15.019531 41.375 52.96875 71.003906 79.722656 71.003906s64.699219-29.628906 79.722656-71.003906c27.714844 1.570312 44.058594 35.496094 48.996094 54.191406.953125 3.621094 3.824219 6.320312 7.496094 7.046875 3.652344.722656 7.316406-.652344 9.609375-3.617187v-.003907c.023437-.023437.042969-.050781.0625-.078125 8.210937-10.9375 16.425781-15.757812 25.121093-14.722656 22.308594 2.636719 46.710938 41.644531 60.839844 74.261719 1.566406 3.601562 5.050782 5.847656 8.894532 5.847656.394531 0 .789062-.023437 1.183593-.074219 4.292969-.511718 7.675781-3.710937 8.421875-7.964844 11.953125-68.285156 4.703125-139.636718-19.398437-190.867187zm-185.953125 105.359375c-14.296875 16.175781-31.957032 26.628906-44.996094 26.628906s-30.699219-10.453125-44.996094-26.628906c-6.671875-7.550781-16.425781-20.746094-21.957031-38.242188-.101563-.515624-.257813-1.015624-.460937-1.492187-2.320313-7.785156-3.792969-16.386719-3.792969-25.699219 0-14.554687 2.589843-27.453125 7.710937-38.457031 19.0625 11.09375 40.902344 17.15625 63.527344 17.15625.484375 0 .96875-.003906 1.453125-.007813 22.148437-.253906 43.398437-6.160156 62.074219-17.007812 5.078125 10.972656 7.648437 23.824219 7.648437 38.316406 0 9.3125-1.472656 17.914063-3.792969 25.699219-.203124.476563-.359374.976563-.457031 1.492187-5.535156 17.496094-15.289062 30.691407-21.960937 38.242188zm0 0"/><path d="m287.722656 146.027344c-1.324218-.113282-2.648437-.277344-3.941406-.488282-4.066406-.667968-8.164062.757813-10.960938 3.804688-2.800781 3.050781-3.863281 7.269531-2.847656 11.273438 4.339844 17.140624 19.132813 29.269531 36.8125 30.183593.695313.035157 1.386719.054688 2.074219.054688 20.078125-.003907 37.339844-15.128907 39.765625-35.265625.765625-6.382813.039062-12.65625-2.167969-18.640625-1.449219-3.933594-4.753906-6.824219-8.839843-7.738281-4.074219-.910157-8.285157.296874-11.261719 3.226562-10.011719 9.871094-24.101563 14.820312-38.632813 13.589844zm45.785156.183594c.457032 2.476562.535157 5.015624.226563 7.582031-1.570313 13.03125-13.074219 22.707031-26.171875 22.03125-9.644531-.5-17.914062-6.324219-21.683594-14.90625.191406.019531.382813.035156.574219.050781 17.339844 1.480469 34.234375-3.871094 47.054687-14.757812zm0 0"/><path d="m174.382812 129.210938c-4.085937.910156-7.390624 3.804687-8.839843 7.738281-2.207031 5.984375-2.9375 12.257812-2.167969 18.640625 2.425781 20.140625 19.683594 35.265625 39.761719 35.265625.6875 0 1.378906-.019531 2.074219-.054688 17.679687-.914062 32.472656-13.042969 36.816406-30.183593 1.015625-4.007813-.050782-8.222657-2.851563-11.273438-2.796875-3.046875-6.894531-4.476562-10.964843-3.804688-1.285157.210938-2.609376.375-3.9375.488282-14.539063 1.226562-28.617188-3.71875-38.632813-13.589844-2.976563-2.933594-7.179687-4.140625-11.257813-3.226562zm51.164063 31.757812c.191406-.015625.382813-.03125.574219-.050781-3.769532 8.582031-12.039063 14.40625-21.683594 14.90625-13.09375.679687-24.601562-8.996094-26.171875-22.03125-.308594-2.570313-.234375-5.105469.226563-7.582031 12.816406 10.886718 29.707031 16.234374 47.054687 14.757812zm0 0"/><path d="m192.519531 44.511719c-9.863281-9.105469-22.628906-15.058594-35.9375-16.761719-2.742187-.355469-5.460937.839844-7.0625 3.097656-12.441406 17.511719-13.699219 40.621094-3.285156 60.308594 1.273437 2.40625 3.75 3.933594 6.472656 3.992188h.15625c2.660157 0 5.128907-1.414063 6.476563-3.71875 8.074218-13.84375 19.28125-26.042969 32.410156-35.273438 1.851562-1.304688 3.015625-3.375 3.167969-5.636719.148437-2.261719-.730469-4.46875-2.398438-6.007812zm-37.582031 26.574219c-1.742188-9.53125-.265625-19.261719 4.351562-27.644532 5.597657 1.265625 10.980469 3.503906 15.839844 6.566406-7.492187 6.21875-14.292968 13.324219-20.191406 21.078126zm0 0"/><path d="m320.25 56.15625c13.125 9.234375 24.335938 21.429688 32.410156 35.273438 1.347656 2.308593 3.8125 3.722656 6.476563 3.722656.050781 0 .105469-.003906.15625-.003906 2.722656-.058594 5.199219-1.585938 6.472656-3.988282 10.414063-19.691406 9.15625-42.800781-3.285156-60.3125-1.601563-2.257812-4.320313-3.449218-7.0625-3.09375-13.3125 1.699219-26.074219 7.652344-35.941407 16.761719-1.664062 1.535156-2.542968 3.742187-2.394531 6.003906.152344 2.261719 1.316407 4.332031 3.167969 5.636719zm32.460938-12.714844c4.617187 8.382813 6.09375 18.113282 4.351562 27.644532-5.898438-7.753907-12.699219-14.859376-20.191406-21.078126 4.859375-3.0625 10.242187-5.300781 15.839844-6.566406zm0 0"/></svg>