<svg height="512pt" viewBox="-80 0 512 512.00078" width="512pt" xmlns="http://www.w3.org/2000/svg"><path d="m310.167969 292.710938c11.113281 3.679687 22.882812 3.074218 33.792969-1.328126-25.636719-20.582031-43.09375-53.925781-46.820313-89.429687h-242.519531c-3.726563 35.503906-21.183594 68.847656-46.820313 89.429687 10.910157 4.402344 22.679688 5.007813 33.792969 1.328126-5.765625 20.296874-18.863281 39.113281-34.09375 51.5 15.945312 4.5 33.265625 2.457031 47.507812-6.875 5.597657 34.15625 7.523438 69.105468 6.648438 103.839843h228.449219c-.878907-34.734375 1.050781-69.683593 6.648437-103.839843 14.242188 9.332031 31.5625 11.375 47.503906 6.875-15.230468-12.386719-28.324218-31.203126-34.089843-51.5zm0 0" fill="#c5d3d6"/><path d="m298.792969 504.5h-245.820313c-2.109375 0-3.816406-1.707031-3.816406-3.8125v-69.402344c0-20.132812 12.496094-38.148437 31.351562-45.203125l95.375-35.691406 95.371094 35.691406c18.855469 7.054688 31.351563 25.070313 31.351563 45.203125v69.402344c0 2.105469-1.707031 3.8125-3.8125 3.8125zm0 0" fill="#6e7093"/><path d="m271.253906 386.078125-95.371094-35.6875v8.019531l73.949219 27.671875c18.855469 7.054688 31.347657 25.070313 31.347657 45.203125v69.402344c0 2.105469-1.707032 3.8125-3.8125 3.8125h21.425781c2.105469 0 3.8125-1.707031 3.8125-3.8125v-69.402344c0-20.132812-12.496094-38.152344-31.351563-45.207031zm0 0" fill="#4e5173"/><path d="m277.226562 235.269531c0-63.054687-45.375-114.171875-101.34375-114.171875-55.972656 0-101.34375 51.117188-101.34375 114.171875 0 63.054688 45.371094 114.171875 101.34375 114.171875 55.96875 0 101.34375-51.117187 101.34375-114.171875zm0 0" fill="#f9c295"/><path d="m229.542969 255.195312c-4.144531 0-7.5-3.359374-7.5-7.5v-1c0-4.140624 3.355469-7.5 7.5-7.5 4.140625 0 7.496093 3.359376 7.496093 7.5v1c0 4.140626-3.355468 7.5-7.496093 7.5zm0 0"/><path d="m122.21875 255.195312c-4.140625 0-7.496094-3.359374-7.496094-7.5v-1c0-4.140624 3.355469-7.5 7.496094-7.5 4.144531 0 7.5 3.359376 7.5 7.5v1c0 4.140626-3.355469 7.5-7.5 7.5zm0 0"/><path d="m222.894531 134.105469c22.109375 20.945312 36.160157 52.332031 36.160157 87.417969 0 63.058593-45.371094 114.175781-101.34375 114.175781-16.96875 0-32.960938-4.707031-47.011719-13.011719 17.621093 16.695312 40.355469 26.753906 65.183593 26.753906 55.96875 0 101.34375-51.117187 101.34375-114.171875 0-43.9375-22.035156-82.074219-54.332031-101.164062zm0 0" fill="#e59f6a"/><path d="m286.523438 302.339844c-5.679688 3.929687-29.871094 4.421875-50.34375-12.988282-20.476563-17.410156-41.457032-30.261718-60.300782-14.628906-18.839844-15.632812-39.820312-2.78125-60.296875 14.628906-20.472656 17.410157-44.664062 16.917969-50.34375 12.988282-.539062 7.277344 10.441407 33.019531 44.53125 40.140625-.976562 3.757812-1.53125 7.632812-1.628906 11.484375-.355469 13.972656 4.453125 27.628906 11.007813 39.972656 6.550781 12.34375 14.855468 23.65625 22.226562 35.527344 2.78125 4.476562 5.492188 9.222656 6.011719 14.464844.523437 5.242187-1.734375 11.117187-6.550781 13.253906-4.5 1.992187-10.753907-1.019532-11.300782-5.710938.300782 12.960938 9.085938 25.125 21.066406 30.164063 12.296876 5.164062 26.738282 3.722656 38.800782-1.960938 12.066406-5.683593 21.957031-15.261719 29.90625-25.972656 23.148437-31.164063 30.113281-73.414063 19.445312-110.613281 36.632813-6.121094 48.324219-33.25 47.769532-40.75zm0 0" fill="#e6eff5"/><path d="m286.523438 302.339844c-5.679688 3.929687-29.871094 4.421875-50.34375-12.988282-18.308594-15.566406-37.015626-27.46875-54.242188-18.648437 13.75-3.015625 26.445312 9.777344 38.496094 25.519531 14.835937 19.386719 34.960937 21.386719 40.160156 18.074219-.46875 7.503906-13.507812 33.21875-44.644531 35.519531 4.265625 38.019532-6.71875 79.226563-29.757813 107.769532-7.914062 9.808593-17.296875 18.296874-28.003906 22.695312-1.964844.808594-3.976562 1.460938-6.011719 1.957031 11.941407 4.417969 25.671875 2.882813 37.226563-2.558593 12.066406-5.6875 21.953125-15.265626 29.90625-25.972657 23.148437-31.167969 30.113281-73.414062 19.445312-110.617187 36.632813-6.121094 48.324219-33.25 47.769532-40.75zm0 0" fill="#b1bfc4"/><path d="m289.5 166.707031-55.867188-115.953125c-3.164062-6.570312-8.722656-11.675781-15.535156-14.273437l-68.519531-26.136719c-19.59375-7.472656-41.707031.503906-52.019531 18.765625l-34.136719 60.457031c-2.683594 4.75-8.375 6.890625-13.523437 5.097656-11.464844-4-30.527344-11.0625-36.046876-15.605468-7.726562-6.363282-2.335937 58.257812 54.574219 74.855468l-6.164062 12.792969c-25.4375.019531-46.058594 20.648438-46.058594 46.09375v7.164063c0 4.863281 3.941406 8.804687 8.804687 8.804687h301.746094c4.863282 0 8.804688-3.941406 8.804688-8.804687v-7.164063c0-25.445312-20.617188-46.074219-46.058594-46.09375zm0 0" fill="#b78358"/><path d="m289.5 166.707031-55.867188-115.953125c-3.164062-6.570312-8.722656-11.675781-15.535156-14.273437l-68.519531-26.136719c-9.613281-3.667969-19.832031-3.605469-28.964844-.445312.417969.144531.835938.285156 1.25.445312l68.519531 26.136719c6.8125 2.597656 12.371094 7.703125 15.539063 14.273437l55.867187 115.953125c25.4375.019531 46.054688 20.648438 46.054688 46.09375v7.164063c0 4.863281-3.941406 8.804687-8.800781 8.804687h27.710937c4.863282 0 8.804688-3.941406 8.804688-8.804687v-7.164063c0-25.445312-20.617188-46.074219-46.058594-46.09375zm0 0" fill="#935d38"/><path d="m348.992188 338.386719c-11.433594-9.285157-21.125-22.148438-27.265626-35.855469 8.355469.519531 16.835938-.882812 25.042969-4.191406 2.46875-.996094 4.222657-3.226563 4.613281-5.863282.386719-2.632812-.648437-5.273437-2.726562-6.941406-15.226562-12.21875-27.570312-29.464844-35.410156-49.269531h13.507812c8.988282 0 16.300782-7.3125 16.300782-16.300781v-7.164063c0-27.910156-21.453126-50.914062-48.738282-53.375l-21.265625-44.140625c-1.800781-3.730468-6.28125-5.300781-10.011719-3.503906-3.730468 1.800781-5.300781 6.28125-3.5 10.011719l18.023438 37.414062h-101.679688c-4.144531 0-7.5 3.355469-7.5 7.5 0 4.140625 3.355469 7.496094 7.5 7.496094h113.613282c21.261718.019531 38.5625 17.332031 38.5625 38.597656v7.164063c0 .71875-.585938 1.304687-1.304688 1.304687h-301.746094c-.71875 0-1.304687-.585937-1.304687-1.304687v-7.164063c0-21.285156 17.339844-38.59375 38.554687-38.59375 2.707032 0 5.421876-1.460937 6.761719-4.246093l6.164063-12.792969 30.871094-64.082031c1.800781-3.730469.230468-8.210938-3.5-10.011719-3.730469-1.796875-8.210938-.226563-10.011719 3.503906l-28.003907 58.121094c-19.847656-7.609375-31.117187-21.644531-37.199218-32.5625-4.472656-8.03125-6.890625-15.734375-8.007813-21.375 5.628907 2.621093 14.367188 6.191406 28.097657 10.980469 8.582031 2.996093 18.054687-.574219 22.519531-8.488282l34.140625-60.460937c8.554687-15.148438 26.558594-21.644531 42.816406-15.441407l68.519531 26.132813c5.039063 1.925781 9.109375 5.664063 11.453125 10.523437l19.640625 40.769532c1.796875 3.730468 6.28125 5.296875 10.011719 3.5s5.296875-6.28125 3.5-10.011719l-19.644531-40.769531c-4.011719-8.328125-10.980469-14.730469-19.617188-18.027344l-68.519531-26.132812c-23.242188-8.867188-48.988281.421874-61.21875 22.085937l-34.140625 60.457031c-.894531 1.589844-2.800781 2.300782-4.523437 1.703125-20.933594-7.304687-31.160157-12.183593-33.746094-14.3125-2.894532-2.382812-6.625-2.824219-9.746094-1.144531-5.746094 3.089844-5.640625 10.769531-5.0625 16.277344 1.914062 18.183594 15.769531 54.542968 54.199219 69.851562l-.566407 1.171875c-27.28125 2.460938-48.738281 25.46875-48.738281 53.375v7.164063c0 8.988281 7.3125 16.300781 16.300781 16.300781h13.507813c-7.839844 19.804687-20.183594 37.050781-35.410156 49.269531-2.074219 1.667969-3.1132815 4.308594-2.726563 6.941406.390625 2.636719 2.144532 4.867188 4.617188 5.863282 8.207031 3.308594 16.679687 4.707031 25.042968 4.191406-6.144531 13.707031-15.835937 26.570312-27.269531 35.855469-2.171875 1.765625-3.179687 4.59375-2.613281 7.339843.566406 2.742188 2.613281 4.9375 5.308594 5.699219 14.769531 4.167969 30.191406 3.203125 43.71875-2.519531 2.191406 15.511719 3.699218 31.566406 4.488281 47.886719-7.59375 9.644531-12.015625 21.738281-12.015625 34.488281v69.410156c0 6.234375 5.078125 11.308594 11.320312 11.308594h245.8125c6.242188 0 11.316407-5.074219 11.316407-11.308594v-69.410156c0-12.75-4.417969-24.84375-12.015625-34.488281.792968-16.320313 2.296875-32.375 4.488281-47.882813 13.53125 5.722656 28.949219 6.683594 43.722656 2.515625 2.691407-.757812 4.738281-2.957031 5.308594-5.699219.5625-2.746093-.445313-5.574218-2.617187-7.339843zm-73.648438-26.261719c-5.082031 8.441406-16.167969 19.949219-37.820312 23.566406-.050782.007813-.101563.015625-.152344.023438-6.917969 1.144531-14.96875 1.484375-24.308594.609375-4.117188-.386719-7.777344 2.640625-8.167969 6.765625-.386719 4.121094 2.644531 7.777344 6.765625 8.164062 4.097656.386719 7.992188.566406 11.699219.566406 3.421875 0 6.683594-.15625 9.785156-.441406 7.679688 33.761719.304688 70.710938-19.855469 97.855469-8.261718 11.125-17.371093 19.085937-27.078124 23.65625-10.9375 5.152344-23.164063 5.835937-32.703126 1.828125-4.871093-2.046875-9.027343-5.585938-11.949218-9.878906.792968-.203125 1.566406-.46875 2.316406-.804688 7.359375-3.261718 11.871094-11.835937 10.976562-20.851562-.683593-6.851563-4.023437-12.714844-7.105468-17.675782-2.621094-4.21875-5.375-8.398437-8.035156-12.4375-5.058594-7.671874-9.835938-14.921874-13.9375-22.652343-7.101563-13.367188-10.414063-25.226563-10.132813-36.261719.023437-1.023438.089844-2.046875.1875-3.074219 7.191406.871094 15.253906 1.019531 24.273437.171875 4.125-.386718 7.152344-4.042968 6.765626-8.164062-.386719-4.125-4.042969-7.15625-8.167969-6.765625-10.75 1.007812-19.792969.402343-27.371094-1.179688-.007813 0-.015625-.003906-.023437-.003906-16.714844-3.496094-27.027344-12.0625-32.738282-19.628906-.867187-1.164063-1.621094-2.300781-2.269531-3.390625h.03125c14.09375 0 30.820313-5.757813 44.113281-17.058594 17.003906-14.457031 29.070313-20.785156 38.96875-19.777344.101563.007813.199219.019532.296875.03125.035157.003906.070313.007813.105469.011719 4.054688.496094 7.75 2.238281 11.28125 5.164063 2.777344 2.304687 6.800781 2.304687 9.578125 0 2.097656-1.742188 4.253906-3.0625 6.511719-3.953126.050781-.019531.101562-.039062.152344-.058593.050781-.019531.105468-.039063.15625-.058594 17.597656-6.601563 37.578124 14.898437 50.058593 23.375 10.632813 7.222656 24.28125 12.167969 37.285157 12.320313.171874.003906.339843.007812.507812.007812zm-20.265625-19.625c-4.027344-1.789062-8.34375-4.269531-12.648437-7.710938-.007813-.007812-.015626-.015624-.027344-.023437-.109375-.089844-.222656-.179687-.332032-.269531-.046874-.039063-.09375-.074219-.140624-.113282-.070313-.058593-.140626-.117187-.210938-.171874-.082031-.070313-.164062-.136719-.246094-.207032-.007812-.007812-.015625-.011718-.023437-.019531-.136719-.113281-.273438-.230469-.410157-.347656-.175781-.148438-.351562-.296875-.527343-.445313-8.902344-7.539062-20.558594-16.550781-32.6875-20.652344-10.085938-3.40625-19.453125-3.128906-27.96875.8125-1.34375.625-2.671875 1.339844-3.972657 2.144532-2.054687-1.269532-4.164062-2.316406-6.328124-3.128906-7.878907-2.976563-16.449219-2.921876-25.613282.171874-12.371094 4.183594-24.25 13.476563-33.21875 21.101563-4.761718 4.050781-9.578125 6.878906-14.039062 8.859375-9.441406-16.8125-14.476563-36.109375-14.636719-56.234375h187.671875c-.164062 20.125-5.199219 39.421875-14.640625 56.234375zm40.03125 204.5h-31.660156v-32.625c0-4.140625-3.359375-7.496094-7.5-7.496094s-7.5 3.355469-7.5 7.496094v32.625h-145.136719v-32.625c0-4.140625-3.355469-7.496094-7.5-7.496094-4.140625 0-7.496094 3.355469-7.496094 7.496094v32.625h-31.660156v-65.722656c0-16.910156 10.640625-32.25 26.492188-38.171875l2.289062-.863281c3.878906-1.453126 5.839844-5.777344 4.386719-9.65625-1.457031-3.875-5.78125-5.839844-9.660157-4.382813l-2.277343.855469c-3.515625 1.3125-6.84375 2.964844-9.949219 4.910156-1.148438-16.359375-3-32.394531-5.53125-47.84375-.414062-2.503906-2.0625-4.632812-4.382812-5.652344-2.324219-1.023437-5.007813-.796875-7.128907.589844-7.980469 5.230469-17.367187 7.929688-27.007812 7.929688 11.550781-12.667969 20.359375-28.167969 24.921875-44.230469.761718-2.671875-.019532-5.542969-2.023438-7.464844s-4.910156-2.574219-7.542968-1.703125c-5.199219 1.722656-10.605469 2.347656-16.023438 1.886719 13.597656-13.945313 24.429688-31.621094 31.300781-51.214844h12.527344c.15625 21.472656 5.257813 42.148437 14.859375 60.441406-.910156.121094-1.78125.210938-2.609375.273438-3.421875.242187-6.183594.042969-7.972656-.296875-.527344-.101563-.964844-.210938-1.304688-.324219-.007812-.003906-.019531-.003906-.027343-.007813-.015626-.003906-.03125-.011718-.046876-.015624-.207031-.070313-.378906-.144532-.511718-.214844-2.203125-1.484375-5.03125-1.695313-7.429688-.546875-2.425781 1.160156-4.046875 3.53125-4.246094 6.214843-.007812.105469-.011718.214844-.019531.328126v.011718c-.003906.078125-.003906.15625-.007812.230469-.21875 7.085937 4.765625 19.164063 14.992187 29.195313 6.160156 6.039062 15.300782 12.503906 28.359375 16.464843-.242187 1.917969-.386719 3.839844-.4375 5.753907-.347656 13.683593 3.539063 27.96875 11.878907 43.679687 4.4375 8.355469 9.636718 16.242187 14.664062 23.871094 2.605469 3.957031 5.304688 8.046875 7.820312 12.097656 2.289063 3.6875 4.554688 7.59375 4.917969 11.246094.246094 2.445312-.730469 5.039062-2.058593 5.632812-.230469.046875-.6875-.085937-.96875-.257812-.710938-3.6875-4.089844-6.316407-7.882813-6.054688-3.996094.28125-7.066406 3.652344-6.976563 7.65625.367188 15.777344 10.679688 30.605469 25.660157 36.902344 6.039062 2.539063 12.621093 3.796875 19.386719 3.796875 8.464843 0 17.210937-1.972656 25.515624-5.886719 11.964844-5.636719 22.976563-15.152343 32.730469-28.285156 15.1875-20.449219 23.949219-45.8125 25.511719-71.722656l17.78125 6.65625c15.839844 5.921875 26.484375 21.261719 26.484375 38.171875zm32.765625-158.007812c-9.636719 0-19.027344-2.699219-27.007812-7.925782-2.121094-1.390625-4.804688-1.613281-7.125-.59375-2.324219 1.023438-3.972657 3.148438-4.382813 5.652344-2.53125 15.449219-4.386719 31.488281-5.53125 47.847656-3.109375-1.945312-6.433594-3.597656-9.949219-4.910156l-22.988281-8.605469c-.402344-7.277343-1.378906-14.527343-2.953125-21.65625 5.414062-1.433593 10.199219-3.296875 14.410156-5.40625 19.929688-9.914062 29.265625-26.308593 31.269532-36.632812.015624-.078125.03125-.152344.046874-.230469 0-.007812 0-.015625.003907-.027344.242187-1.3125.367187-2.535156.371093-3.648437 0-.003907 0-.007813 0-.011719 0-.042969 0-.082031 0-.125 0-.074219-.003906-.152344-.003906-.222656 0-.023438 0-.046875-.003906-.066406-.003906-.21875-.011719-.433594-.027344-.640626-.199218-2.683593-1.816406-5.054687-4.246094-6.214843-2.398437-1.144531-5.226562-.9375-7.425781.546875-.136719.074218-.308593.144531-.511719.214844-.023437.007812-.042968.015624-.066406.023437-.347656.113281-.789062.222656-1.324218.328125-1.820313.339844-4.640626.539062-8.132813.28125-.777344-.0625-1.589844-.148438-2.441406-.257812 9.601562-18.296876 14.707031-38.972657 14.859375-60.445313h12.527344c6.871093 19.59375 17.703124 37.269531 31.304687 51.214844-5.417969.460937-10.828125-.164063-16.023437-1.886719-2.640626-.875-5.539063-.214844-7.546876 1.707031-2.003906 1.917969-2.785156 4.792969-2.023437 7.460938 4.566406 16.0625 13.375 31.5625 24.921875 44.230469zm0 0"/></svg>