<svg height="512pt" viewBox="0 0 512 512" width="512pt" xmlns="http://www.w3.org/2000/svg"><path d="m445.953125 416.199219c-8.507813 2.351562-17.589844 1.3125-25.34375-2.902344-6.949219-3.34375-13.316406-7.78125-18.859375-13.140625l-31.316406.085938-259.757813.9375c-14.675781 13.3125-29.949219 19.199218-43.089843 15.019531-2.085938-.65625-4.070313-1.605469-5.890626-2.816407-25.515624-15.273437-31.0625-72.105468-11.691406-132.691406 16.554688-51.714844 46.167969-90.710937 73.046875-99.585937l235.007813-.339844 31.230468-.085937c27.136719 8.191406 57.515626 47.53125 74.242188 100.011718 20.820312 65.023438 12.882812 125.695313-17.578125 135.507813zm0 0" fill="#4e342e"/><path d="m420.609375 413.296875c-6.949219-3.34375-13.316406-7.78125-18.859375-13.140625l-31.316406.085938-.085938-.085938-291.074218 1.023438c-5.246094 4.882812-11.167969 8.992187-17.578126 12.203124-25.515624-15.273437-31.0625-72.105468-11.691406-132.691406 16.554688-51.714844 46.167969-90.710937 73.046875-99.585937l235.007813-.339844c27.050781 8.277344 57.34375 47.53125 74.070312 99.925781 19.371094 60.5 13.824219 117.160156-11.519531 132.605469zm0 0" fill="#795548"/><path d="m230.398438 501.105469c6.84375 1.273437 13.777343 1.984375 20.738281 2.132812 1.621093.085938 3.242187.171875 4.863281.171875s3.242188-.085937 4.863281-.171875c6.960938-.148437 13.894531-.859375 20.738281-2.132812l84.734376-46.933594c14.96875-15.71875 26.96875-34.019531 35.414062-54.015625 10.886719-25.335938 16.464844-52.636719 16.382812-80.214844.445313-44.949218-14.625-88.679687-42.667968-123.816406h-238.929688c-28.03125 35.144531-43.097656 78.867188-42.667968 123.816406-.082032 27.953125 5.644531 55.617188 16.808593 81.238282 8.421875 19.601562 20.269531 37.546874 34.988281 52.992187zm0 0" fill="#bfa885"/><path d="m234.445312 501.105469c5.738282 1.269531 11.585938 1.984375 17.457032 2.132812 1.367187.085938 2.730468.171875 4.097656.171875s2.730469-.085937 4.097656-.171875c5.871094-.148437 11.71875-.863281 17.457032-2.132812l71.355468-46.933594c12.902344-16.210937 22.996094-34.46875 29.867188-54.015625 9.222656-25.730469 13.878906-52.878906 13.757812-80.214844.683594-43.9375-11.835937-87.070312-35.9375-123.816406h-201.195312c-24.089844 36.75-36.605469 79.878906-35.9375 123.816406-.109375 27.703125 4.683594 55.207032 14.160156 81.238282 6.839844 19.164062 16.796875 37.066406 29.464844 52.992187zm0 0" fill="#ffe0b2"/><path d="m230.398438 501.105469c6.84375 1.273437 13.777343 1.984375 20.738281 2.132812h9.726562c6.960938-.148437 13.894531-.859375 20.738281-2.132812l51.199219-46.589844c11.351563-20.246094 17.234375-43.097656 17.066407-66.304687 0-63.660157-41.984376-115.199219-93.867188-115.199219s-93.867188 51.539062-93.867188 115.199219c-.167968 23.207031 5.714844 46.058593 17.066407 66.304687zm0 0" fill="#fdd7ad"/><path d="m408.40625 8.5625-152.40625 136.449219-20.820312-18.605469 106.75-95.574219c23.160156-4.003906 45.578124-11.511719 66.476562-22.269531zm0 0" fill="#4e342e"/><path d="m341.929688 30.832031-106.75 95.574219-106.753907-95.574219-24.832031-22.269531c2.816406 1.621094 46.679688 26.453125 131.585938 30.035156 6.65625.257813 13.652343.429688 20.820312.429688 28.847656.179687 57.636719-2.566406 85.929688-8.195313zm0 0" fill="#795548"/><path d="m313.003906 211.570312c-9.765625 27.433594-30.378906 49.648438-57.003906 61.441407-4.867188-2.441407-9.597656-5.144531-14.164062-8.109375-20.003907-12.304688-35.140626-31.144532-42.839844-53.332032l42.839844-56.40625 14.164062-18.6875zm0 0" fill="#d84315"/><path d="m284.671875 211.570312c-7.699219 22.1875-22.832031 41.027344-42.835937 53.332032-20.003907-12.304688-35.140626-31.144532-42.839844-53.332032l42.839844-56.40625zm0 0" fill="#ff5722"/><path d="m503.464844 494.875h-494.929688c-4.714844 0-8.535156-3.820312-8.535156-8.53125 0-4.714844 3.820312-8.535156 8.535156-8.535156h494.929688c4.714844 0 8.535156 3.820312 8.535156 8.535156 0 4.710938-3.820312 8.53125-8.535156 8.53125zm0 0" fill="#805333"/><path d="m256 153.542969c-2.101562 0-4.125-.773438-5.691406-2.175781l-152.617188-136.535157c-3.203125-2.949219-3.667968-7.835937-1.085937-11.335937 2.582031-3.5039065 7.390625-4.5 11.152343-2.316406.496094.265624 50.519532 29.289062 148.242188 29.289062s147.746094-29.023438 148.242188-29.3125c3.761718-2.1875 8.570312-1.1914062 11.152343 2.3125 2.582031 3.503906 2.117188 8.390625-1.085937 11.339844l-152.617188 136.53125c-1.5625 1.410156-3.585937 2.195312-5.691406 2.203125zm-111.949219-120.132813 111.949219 100.148438 111.949219-100.148438c-36.496094 9.800782-74.164063 14.550782-111.949219 14.125-37.785156.425782-75.453125-4.324218-111.949219-14.125zm0 0" fill="#59474e"/><g fill="#ffb301"><path d="m221.867188 452.210938c9.425781 0 17.066406 7.640624 17.066406 17.066406v17.066406c0 9.425781-7.640625 17.066406-17.066406 17.066406-9.425782 0-17.066407-7.640625-17.066407-17.066406v-17.066406c0-9.425782 7.640625-17.066406 17.066407-17.066406zm0 0"/><path d="m187.734375 452.210938c9.425781 0 17.066406 7.640624 17.066406 17.066406v17.066406c0 9.425781-7.640625 17.066406-17.066406 17.066406s-17.066406-7.640625-17.066406-17.066406v-17.066406c0-9.425782 7.640625-17.066406 17.066406-17.066406zm0 0"/><path d="m153.601562 452.210938c9.425782 0 17.066407 7.640624 17.066407 17.066406v17.066406c0 9.425781-7.640625 17.066406-17.066407 17.066406-9.425781 0-17.066406-7.640625-17.066406-17.066406v-17.066406c0-9.425782 7.640625-17.066406 17.066406-17.066406zm0 0"/><path d="m358.398438 452.210938c9.425781 0 17.066406 7.640624 17.066406 17.066406v17.066406c0 9.425781-7.640625 17.066406-17.066406 17.066406-9.425782 0-17.066407-7.640625-17.066407-17.066406v-17.066406c0-9.425782 7.640625-17.066406 17.066407-17.066406zm0 0"/><path d="m324.265625 452.210938c9.425781 0 17.066406 7.640624 17.066406 17.066406v17.066406c0 9.425781-7.640625 17.066406-17.066406 17.066406s-17.066406-7.640625-17.066406-17.066406v-17.066406c0-9.425782 7.640625-17.066406 17.066406-17.066406zm0 0"/><path d="m290.132812 452.210938c9.425782 0 17.066407 7.640624 17.066407 17.066406v17.066406c0 9.425781-7.640625 17.066406-17.066407 17.066406-9.425781 0-17.066406-7.640625-17.066406-17.066406v-17.066406c0-9.425782 7.640625-17.066406 17.066406-17.066406zm0 0"/></g><path d="m172.714844 70.429688c-37.324219 5.4375-64.078125 38.824218-61.246094 76.4375 2.828125 37.613281 34.28125 66.621093 71.996094 66.410156 4.726562-.015625 9.441406-.472656 14.082031-1.367188 33.332031-4.804687 58.164063-33.222656 58.453125-66.898437" fill="#fff"/><path d="m221.867188 145.011719c0 18.847656-15.28125 34.132812-34.132813 34.132812s-34.132813-15.285156-34.132813-34.132812c0-18.851563 15.28125-34.136719 34.132813-34.136719s34.132813 15.285156 34.132813 34.136719zm0 0" fill="#37474f"/><path d="m339.285156 70.429688c37.324219 5.4375 64.078125 38.824218 61.246094 76.4375-2.828125 37.613281-34.28125 66.621093-71.996094 66.410156-4.726562-.015625-9.441406-.472656-14.082031-1.367188-33.332031-4.804687-58.164063-33.222656-58.453125-66.898437" fill="#fff"/><path d="m358.398438 145.011719c0 18.847656-15.28125 34.132812-34.132813 34.132812s-34.132813-15.285156-34.132813-34.132812c0-18.851563 15.28125-34.136719 34.132813-34.136719s34.132813 15.285156 34.132813 34.136719zm0 0" fill="#37474f"/><path d="m187.734375 179.144531c18.851563 0 34.132813-15.285156 34.132813-34.132812 0-18.851563-15.28125-34.136719-34.132813-34.136719s-34.132813 15.285156-34.132813 34.136719c0 18.847656 15.28125 34.132812 34.132813 34.132812zm0-51.203125c9.425781 0 17.066406 7.644532 17.066406 17.070313 0 9.421875-7.640625 17.066406-17.066406 17.066406s-17.066406-7.644531-17.066406-17.066406c0-9.425781 7.640625-17.070313 17.066406-17.070313zm0 0"/><path d="m324.265625 179.144531c18.851563 0 34.132813-15.285156 34.132813-34.132812 0-18.851563-15.28125-34.136719-34.132813-34.136719s-34.132813 15.285156-34.132813 34.136719c0 18.847656 15.28125 34.132812 34.132813 34.132812zm0-51.203125c9.425781 0 17.066406 7.644532 17.066406 17.070313 0 9.421875-7.640625 17.066406-17.066406 17.066406s-17.066406-7.644531-17.066406-17.066406c0-9.425781 7.640625-17.070313 17.066406-17.070313zm0 0"/><path d="m503.464844 477.808594h-119.464844v-8.53125c-.023438-5.78125-2.023438-11.378906-5.667969-15.863282 10.46875-12.066406 19.339844-25.425781 26.402344-39.75 9.285156 7.488282 20.710937 11.824219 32.625 12.375 3.800781.007813 7.578125-.566406 11.203125-1.707031 35.542969-11.445312 45.6875-75.683593 23.101562-146.21875-15.359374-48.316406-42.777343-87.320312-70.332031-101.546875 5.414063-10.925781 8.242188-22.949218 8.269531-35.140625-.183593-33.605469-21.179687-63.578125-52.703124-75.230469l57.410156-51.363281c3.203125-2.949219 3.667968-7.835937 1.085937-11.335937-2.582031-3.5039065-7.390625-4.5-11.152343-2.316406-.496094.265624-50.519532 29.289062-148.242188 29.289062s-147.746094-29.023438-148.242188-29.3125c-3.761718-2.1875-8.570312-1.1914062-11.152343 2.3125-2.582031 3.503906-2.117188 8.390625 1.085937 11.339844l57.410156 51.363281c-31.53125 11.652344-52.53125 41.636719-52.703124 75.253906.019531 12.414063 2.941406 24.652344 8.535156 35.738281-27.265625 14.601563-53.648438 52.675782-69.121094 100.929688-22.527344 70.539062-12.390625 134.777344 23.1875 146.238281 3.621094 1.144531 7.394531 1.71875 11.195312 1.707031 11.4375-.496093 22.4375-4.535156 31.476563-11.554687 6.996094 14.011719 15.730469 27.082031 25.996094 38.910156-3.648438 4.492188-5.648438 10.097657-5.667969 15.882813v8.53125h-119.464844c-4.714844 0-8.535156 3.820312-8.535156 8.535156 0 4.710938 3.820312 8.53125 8.535156 8.53125h121.035156c2.792969 8.074219 9.460938 14.195312 17.738282 16.292969 8.28125 2.097656 17.058594-.113281 23.359375-5.878907 9.644531 8.875 24.484375 8.875 34.132812 0 7.316407 6.703126 17.878907 8.519532 27.015625 4.640626 6.253906 1.050781 12.570313 1.664062 18.910156 1.835937 1.757813.09375 3.507813.175781 5.273438.175781s3.515625-.082031 5.121094-.167968h.210937c6.332031-.179688 12.640625-.792969 18.886719-1.835938 9.128906 3.863281 19.671875 2.042969 26.980469-4.648438 9.648437 8.875 24.488281 8.875 34.132812 0 6.300781 5.765626 15.078125 7.976563 23.359375 5.878907 8.277344-2.097657 14.945313-8.21875 17.738282-16.292969h121.035156c4.714844 0 8.535156-3.820312 8.535156-8.53125 0-4.714844-3.820312-8.535156-8.535156-8.535156zm-349.863282-34.132813c-1.78125.003907-3.558593.195313-5.300781.5625-12.390625-13.78125-22.457031-29.484375-29.808593-46.496093-10.722657-24.53125-16.203126-51.027344-16.09375-77.800782-.292969-40.15625 12.265624-79.351562 35.839843-111.863281.257813.179687.488281.394531.753907.566406 16.035156 10.582031 35.359374 15.011719 54.40625 12.464844 8.011718 18.972656 21.222656 35.292969 38.109374 47.078125-44.628906 13.304688-77.90625 61.996094-77.90625 120.023438-.070312 20.230468 4.121094 40.246093 12.296876 58.75-3.753907-2.125-7.988282-3.257813-12.296876-3.285157zm102.398438-223.179687c4.710938 0 8.535156-3.820313 8.535156-8.535156v-19.257813c9.769532 11.53125 22.601563 20.0625 37.015625 24.609375-9.640625 19.957031-25.671875 36.125-45.550781 45.925781-19.875-9.804687-35.910156-25.96875-45.550781-45.925781 14.414062-4.546875 27.246093-13.078125 37.015625-24.609375v19.257813c0 4.714843 3.824218 8.535156 8.535156 8.535156zm62.566406.613281c19.035156 2.546875 38.351563-1.878906 54.382813-12.457031.273437-.179688.511719-.402344.785156-.582032 23.601563 32.5 36.171875 71.707032 35.867187 111.871094.105469 26.429688-5.238281 52.597656-15.703124 76.871094-7.378907 17.367188-17.582032 33.394531-30.199219 47.425781-1.742188-.367187-3.519531-.558593-5.300781-.5625-4.308594.027344-8.542969 1.160157-12.296876 3.285157 8.175782-18.503907 12.367188-38.519532 12.296876-58.75 0-58.027344-33.277344-106.71875-77.941407-120.023438 16.882813-11.789062 30.09375-28.109375 38.109375-47.078125zm136.839844 62.183594c20.675781 64.578125 10.242188 117.597656-12.03125 124.773437-8.824219 2.78125-19.855469-.902344-31.4375-10.359375 9.800781-24.75 14.796875-51.144531 14.730469-77.765625.304687-44.160156-13.667969-87.242187-39.835938-122.820312 1.898438-1.957032 3.6875-4.011719 5.367188-6.160156 23.628906 11.050781 48.972656 47.703124 63.207031 92.332031zm-62.871094-141.867188c-.011718 18.515625-8.179687 36.085938-22.332031 48.027344-.042969 0-.105469.039063-.148437.074219-.039063.035156-.066407.101562-.117188.144531-2.007812 1.691406-4.117188 3.253906-6.316406 4.6875-14.011719 9.238281-31.121094 12.535156-47.5625 9.164063-27.851563-3.996094-49.199219-26.789063-51.363282-54.84375l77.21875-69.078126c29.347657 6.078126 50.453126 31.851563 50.621094 61.824219zm-145.070312-94.039062v22.136719c0 4.714843 3.824218 8.535156 8.535156 8.535156s8.535156-3.820313 8.535156-8.535156v-22.136719c34.925782-.21875 69.679688-4.914063 103.414063-13.976563l-33.699219 30.148438c-.109375.078125-.195312.179687-.304688.273437l-77.945312 69.726563-77.945312-69.726563c-.109376-.09375-.195313-.195312-.304688-.273437l-33.699219-30.148438c33.734375 9.0625 68.488281 13.757813 103.414063 13.976563zm-77.378906 32.214843 77.21875 69.078126c-2.160157 28.050781-23.5 50.839843-51.34375 54.84375-16.460938 3.359374-33.578126.058593-47.609376-9.175782-2.1875-1.421875-4.28125-2.976562-6.28125-4.65625-.058593-.050781-.074218-.128906-.136718-.171875-.050782-.03125-.105469-.058593-.160156-.085937-14.140626-11.9375-22.300782-29.5-22.308594-48.007813.167968-29.972656 21.273437-55.746093 50.621094-61.824219zm-99.882813 328.472657c-22.3125-7.183594-32.75-60.203125-12.066406-124.78125 14.011719-43.792969 38.90625-80.214844 62.113281-91.757813 1.5625 1.925782 3.175781 3.8125 4.917969 5.597656-26.148438 35.582032-40.117188 78.652344-39.835938 122.808594-.074219 26.96875 5.054688 53.699219 15.105469 78.722656-11.144531 8.761719-21.75 12.089844-30.234375 9.410157zm83.398437 86.800781c-4.714843 0-8.535156-3.820312-8.535156-8.53125v-17.066406c0-4.714844 3.820313-8.535156 8.535156-8.535156 4.710938 0 8.53125 3.820312 8.53125 8.535156v17.066406c0 4.710938-3.820312 8.53125-8.53125 8.53125zm34.132813 0c-4.714844 0-8.535156-3.820312-8.535156-8.53125v-17.066406c0-4.714844 3.820312-8.535156 8.535156-8.535156 4.710937 0 8.53125 3.820312 8.53125 8.535156v17.066406c0 4.710938-3.820313 8.53125-8.53125 8.53125zm25.597656-8.53125v-17.066406c0-4.714844 3.820313-8.535156 8.535157-8.535156 4.710937 0 8.53125 3.820312 8.53125 8.535156v17.066406c0 4.710938-3.820313 8.53125-8.53125 8.53125-4.714844 0-8.535157-3.820312-8.535157-8.53125zm38.605469 8.378906c-.203125 0-.375 0-.589844 0-1.808594 0-3.53125-.214844-5.296875-.324218.902344-2.589844 1.382813-5.3125 1.414063-8.054688v-17.066406c.046875-10.117188-5.898438-19.304688-15.144532-23.410156-9.246093-4.105469-20.046874-2.351563-27.519531 4.464843-5.734375-5.394531-13.707031-7.707031-21.4375-6.210937-8.464843-17.417969-12.808593-36.546875-12.695312-55.910156 0-58.820313 38.277343-106.667969 85.332031-106.667969s85.332031 47.847656 85.332031 106.667969c.113281 19.363281-4.230469 38.492187-12.695312 55.910156-7.730469-1.496094-15.703125.816406-21.4375 6.210937-7.472657-6.816406-18.273438-8.570312-27.519531-4.464843-9.246094 4.105468-15.191407 13.292968-15.144532 23.410156v17.066406c.035156 2.738281.511719 5.453125 1.414063 8.039062-1.84375.117188-3.625.296876-5.539063.339844-2.832031.152344-5.640625.152344-8.472656 0zm38.195312.152344c-4.710937 0-8.53125-3.820312-8.53125-8.53125v-17.066406c0-4.714844 3.820313-8.535156 8.53125-8.535156 4.714844 0 8.535157 3.820312 8.535157 8.535156v17.066406c0 4.710938-3.820313 8.53125-8.535157 8.53125zm34.132813 0c-4.710937 0-8.53125-3.820312-8.53125-8.53125v-17.066406c0-4.714844 3.820313-8.535156 8.53125-8.535156 4.714844 0 8.535156 3.820312 8.535156 8.535156v17.066406c0 4.710938-3.820312 8.53125-8.535156 8.53125zm34.132813 0c-4.710938 0-8.53125-3.820312-8.53125-8.53125v-17.066406c0-4.714844 3.820312-8.535156 8.53125-8.535156 4.714843 0 8.535156 3.820312 8.535156 8.535156v17.066406c0 4.710938-3.820313 8.53125-8.535156 8.53125zm0 0"/><path d="m230.398438 341.277344c9.742187-.136719 18.996093-4.265625 25.601562-11.425782 6.605469 7.160157 15.859375 11.289063 25.601562 11.425782 4.710938 0 8.53125-3.820313 8.53125-8.535156 0-4.710938-3.820312-8.53125-8.53125-8.53125-7.652343-.890626-14.367187-5.515626-17.921874-12.347657-1.445313-2.871093-4.382813-4.683593-7.59375-4.695312h-.085938c-3.199219.015625-6.125 1.804687-7.59375 4.644531-3.5625 6.871094-10.3125 11.523438-18.007812 12.398438-4.710938 0-8.53125 3.820312-8.53125 8.53125 0 4.714843 3.820312 8.535156 8.53125 8.535156zm0 0"/><path d="m290.132812 418.078125c0-4.714844-3.820312-8.535156-8.53125-8.535156-7.652343-.886719-14.367187-5.515625-17.921874-12.347657-1.445313-2.871093-4.382813-4.683593-7.59375-4.691406h-.085938c-3.199219.011719-6.125 1.800782-7.59375 4.640625-3.5625 6.875-10.3125 11.523438-18.007812 12.398438-4.710938 0-8.53125 3.820312-8.53125 8.535156 0 4.710937 3.820312 8.53125 8.53125 8.53125 9.742187-.132813 18.996093-4.265625 25.601562-11.425781 6.605469 7.160156 15.859375 11.292968 25.601562 11.425781 4.710938 0 8.53125-3.820313 8.53125-8.53125zm0 0"/><path d="m247.464844 375.410156c0-4.714844-3.820313-8.535156-8.53125-8.535156-8.15625 0-13.421875-11.730469-13.457032-11.816406-1.328124-3.179688-4.433593-5.25-7.875-5.25-3.417968 0-6.507812 2.039062-7.851562 5.179687-.058594.164063-5.324219 11.886719-13.484375 11.886719-4.710937 0-8.53125 3.820312-8.53125 8.535156 0 4.710938 3.820313 8.53125 8.53125 8.53125 8.234375-.214844 15.988281-3.917968 21.335937-10.179687 5.347657 6.261719 13.097657 9.964843 21.332032 10.179687 2.261718 0 4.433594-.898437 6.035156-2.496094 1.597656-1.601562 2.496094-3.773437 2.496094-6.035156zm0 0"/><path d="m286.539062 355.023438c-.050781.128906-5.316406 11.851562-13.472656 11.851562-4.710937 0-8.53125 3.820312-8.53125 8.535156 0 4.710938 3.820313 8.53125 8.53125 8.53125 8.234375-.214844 15.984375-3.917968 21.332032-10.179687 5.347656 6.261719 13.101562 9.964843 21.335937 10.179687 4.710937 0 8.53125-3.820312 8.53125-8.53125 0-4.714844-3.820313-8.535156-8.53125-8.535156-8.160156 0-13.425781-11.730469-13.457031-11.816406-1.328125-3.179688-4.433594-5.25-7.878906-5.25-3.429688.003906-6.523438 2.054687-7.859376 5.214844zm0 0"/></svg>