<?xml version="1.0" encoding="iso-8859-1"?>
<!-- Generator: Adobe Illustrator 19.0.0, SVG Export Plug-In . SVG Version: 6.00 Build 0)  -->
<svg version="1.1" id="Capa_1" xmlns="http://www.w3.org/2000/svg" xmlns:xlink="http://www.w3.org/1999/xlink" x="0px" y="0px"
	 viewBox="0 0 512 512" style="enable-background:new 0 0 512 512;" xml:space="preserve">
<circle style="fill:#38B1C9;" cx="256" cy="256" r="248.485"/>
<circle style="fill:#45CDD9;" cx="256" cy="256" r="224.438"/>
<circle style="fill:#5DC43D;" cx="256" cy="256" r="200.391"/>
<circle style="fill:#86D631;" cx="256" cy="256" r="176.344"/>
<g>
	<circle style="fill:#FF6BB5;" cx="256" cy="256" r="144.282"/>
	<circle style="fill:#FF6BB5;" cx="256" cy="256" r="120.235"/>
</g>
<circle style="fill:#7D7D8C;" cx="256" cy="139.773" r="40.078"/>
<polygon style="fill:#FFE17A;" points="288.063,195.88 215.988,195.88 215.922,195.823 215.922,296.078 288.063,296.078 "/>
<path style="fill:#9D5CAD;" d="M405.442,474.133c0,0-96.931-161.481-97.339-162.027v-68.701l29.351,20.965l-12.723,50.889
	c-2.684,10.737,3.845,21.616,14.581,24.3c1.632,0.408,3.266,0.603,4.875,0.603c8.98,0,17.149-6.079,19.427-15.184l16.031-64.125
	c1.996-7.987-1.095-16.382-7.793-21.166l-56.11-40.078c-5.428-3.877-21.671-3.727-23.67-3.727h-9.35l-34.738,52.103l-28.948-52.105
	h-3.05l-111.266-95.371c-8.401-7.202-21.052-6.23-28.256,2.173c-7.202,8.402-6.229,21.053,2.174,28.256
	c0,0,115.468,98.551,117.245,99.328v80.253l-58.715,36.697c-4.946,3.09-8.299,8.183-9.186,13.946l-16.031,104.204
	c-1.683,10.938,5.821,21.17,16.76,22.854c1.032,0.159,2.058,0.235,3.071,0.235c9.722,0,18.258-7.089,19.782-16.995l14.635-95.125
	l56.336-35.211c0.481-0.301,0.933-0.628,1.379-0.962h54.407l92.755,154.592c3.757,6.262,10.394,9.732,17.202,9.732
	c3.509,0,7.064-0.922,10.291-2.859C408.059,495.933,411.136,483.624,405.442,474.133z"/>
<path style="fill:#525266;" d="M215.922,127.75c8.06,3.359,22.091,8.016,40.078,8.016c8.731,0,23.475-1.097,40.078-8.016
	c-1.117,1.151-10.139,10.769-8.016,24.047c1.299,8.118,6.076,13.31,8.016,15.206c3.735-3.848,10.182-11.521,13.66-23.071
	c1.543-5.123,2.372-10.555,2.372-16.182c0-30.989-25.121-56.11-56.11-56.11s-56.11,25.121-56.11,56.11
	c0,15.284,6.119,29.134,16.031,39.253c1.94-1.896,6.717-7.088,8.016-15.206C226.061,138.519,217.039,128.901,215.922,127.75z"/>
<path d="M437.02,74.98C388.667,26.629,324.381,0,256,0C190.619,0,128.383,24.641,80.756,69.385
	c-3.026,2.842-3.174,7.598-0.332,10.623c2.841,3.025,7.597,3.173,10.622,0.332c44.83-42.116,103.412-65.31,164.954-65.31
	c132.872,0,240.971,108.099,240.971,240.971c0,70.013-30.395,136.464-83.392,182.312c-2.893,2.503-3.423,6.92-1.207,10.036
	c2.531,3.561,7.736,4.19,11.042,1.331C479.71,400.972,512,330.379,512,256C512,187.619,485.372,123.333,437.02,74.98z"/>
<path d="M15.029,256c0-47.077,13.576-92.681,39.258-131.881c2.275-3.472,1.305-8.13-2.167-10.404
	c-3.472-2.275-8.13-1.304-10.404,2.167C14.424,157.537,0,205.988,0,256c0,36.538,7.539,71.829,22.409,104.893
	c14.363,31.937,34.792,60.175,60.72,83.925c3.266,2.991,8.559,2.45,11.16-1.129c2.217-3.05,1.769-7.408-1.008-9.953
	C43.551,388.181,15.029,323.4,15.029,256z"/>
<path d="M336.732,483.117c-25.862,9.193-53.025,13.854-80.732,13.854c-26.705,0-52.938-4.337-77.966-12.891
	c-3.931-1.341-8.2,0.753-9.541,4.681c-1.343,3.927,0.753,8.199,4.68,9.541C199.77,507.391,227.637,512,256,512
	c29.427,0,58.284-4.953,85.766-14.722c3.911-1.39,5.954-5.687,4.564-9.598C344.94,483.769,340.64,481.728,336.732,483.117z"/>
<path d="M106.716,378.14C78.605,343.823,63.123,300.447,63.123,256c0-29.595,6.524-57.986,19.389-84.386
	c1.794-3.681,0.217-8.253-3.464-10.048c-3.681-1.794-8.253-0.217-10.047,3.464C55.129,193.498,48.094,224.105,48.094,256
	c0,47.91,16.69,94.668,46.996,131.664c2.772,3.386,7.998,3.643,11.107,0.571C108.916,385.547,109.136,381.093,106.716,378.14z"/>
<path d="M174.835,439.428c-1.537,3.856,0.343,8.226,4.196,9.764c24.487,9.763,50.382,14.714,76.968,14.714
	c21.088,0,41.896-3.148,61.85-9.356c3.963-1.232,6.175-5.446,4.943-9.408c-1.233-3.962-5.44-6.178-9.408-4.943
	c-18.505,5.758-37.812,8.678-57.384,8.678c-24.671,0-48.694-4.591-71.4-13.646C180.742,433.696,176.373,435.573,174.835,439.428z"/>
<path d="M395.669,407.215c1.888,0,3.777-0.707,5.237-2.126c40.626-39.494,63-92.442,63-149.089
	c0-114.64-93.266-207.906-207.906-207.906c-41.838,0-82.176,12.375-116.655,35.788c-3.355,2.277-4.273,7.084-1.996,10.438
	c2.277,3.355,7.084,4.274,10.438,1.995C179.766,74.601,217.186,63.123,256,63.123c106.353,0,192.877,86.524,192.877,192.877
	c0,52.553-20.758,101.674-58.447,138.312C385.701,398.908,389.038,407.215,395.669,407.215z"/>
<path d="M256,407.796c9.736,0,19.478-0.929,28.957-2.76c4.075-0.788,6.74-4.729,5.953-8.804c-0.788-4.074-4.729-6.74-8.804-5.953
	c-8.541,1.651-17.323,2.488-26.105,2.488c-19.078,0-37.534-3.85-54.856-11.443c-3.799-1.665-8.233,0.064-9.899,3.866
	s0.064,8.233,3.866,9.899C214.346,403.521,234.832,407.796,256,407.796z"/>
<path d="M345.038,133.047c-3.358-2.437-8.057-1.69-10.495,1.67c-2.437,3.36-1.689,8.058,1.671,10.495
	C371.625,170.9,392.767,212.316,392.767,256c0,24.109-6.356,47.806-18.382,68.531c-1.894,3.265-1.011,7.567,2.028,9.811
	c3.559,2.629,8.755,1.552,10.972-2.268c13.353-23.013,20.411-49.319,20.411-76.074C407.796,207.515,384.336,161.552,345.038,133.047
	z"/>
<path d="M411.885,470.265c-36.868-61.419-59.791-99.593-74.058-123.335c2.089,0.495,4.226,0.745,6.358,0.745
	c12.659,0,23.645-8.585,26.717-20.876l16.031-64.125c2.763-11.057-1.442-22.48-10.715-29.104l-56.111-40.078
	c-1.779-1.271-7.176-5.128-27.539-5.128c-0.097,0-0.198,0-0.297,0h-9.552c-0.277,0-0.551,0.021-0.823,0.051
	c-0.28-0.031-0.562-0.051-0.85-0.051h-61.054c-0.185,0-0.367,0.014-0.548,0.028c-0.137-0.008-0.272-0.028-0.41-0.028h-0.271
	l-46.895-40.196c6.555-5.122,13.544-9.624,20.892-13.462c1.534,14.123,7.707,27.26,17.788,37.553
	c2.941,3.001,7.768,2.917,10.726,0.009c8.908,9.476,21.474,15.092,34.721,15.092c13.292,0,25.826-5.608,34.724-15.089
	c2.964,2.917,7.814,2.984,10.746-0.036c7.201-7.415,12.548-16.454,15.464-26.14c1.785-5.931,2.691-12.105,2.691-18.348
	c0-35.083-28.542-63.624-63.624-63.624c-31.701,0-58.055,23.307-62.843,53.684c-11.779,5.364-22.819,12.218-32.889,20.413
	l-50.656-43.419c-8.782-7.529-21.733-8.747-31.75-2.936c-2.681,1.555-5.087,3.571-7.104,5.924
	c-7.528,8.782-8.746,21.737-2.932,31.751c1.558,2.683,3.578,5.092,5.933,7.111c20.212,17.251,36.957,31.525,50.836,43.337
	c-13.343,23.031-20.392,49.218-20.392,76.011c0,24.344,5.904,48.549,17.07,70c2.04,3.919,7.181,5.23,10.856,2.767
	c3.138-2.103,4.217-6.359,2.474-9.708c-10.199-19.592-15.371-40.809-15.371-63.059c0-23.224,5.878-45.936,17.022-66.093
	c33.013,28.063,46.439,39.304,52.114,43.901v72.547l-55.182,34.488c-6.807,4.254-11.411,11.244-12.631,19.176l-16.031,104.204
	c-1.119,7.274,0.661,14.549,5.015,20.484c4.353,5.935,10.755,9.82,18.028,10.938c1.394,0.214,2.812,0.324,4.215,0.324
	c13.683,0,25.125-9.828,27.209-23.367l14.111-91.721l53.126-33.205h47.837l90.566,150.943c4.952,8.253,14.012,13.38,23.646,13.38
	c4.976,0,9.871-1.359,14.159-3.93C415.463,500.252,419.704,483.294,411.885,470.265L411.885,470.265z M256,172.334
	c-10.365,0-20.124-5.024-26.223-13.285c0.715-1.976,1.251-4.007,1.581-6.066c0.73-4.571,0.443-8.784-0.398-12.534
	c8.176,1.883,16.547,2.832,25.04,2.832s16.865-0.949,25.04-2.832c-0.842,3.75-1.129,7.965-0.398,12.534
	c0.33,2.061,0.867,4.094,1.583,6.073C276.128,167.323,266.399,172.334,256,172.334z M256,79.155c26.795,0,48.595,21.8,48.595,48.595
	c0,4.775-0.69,9.491-2.053,14.015c-1.346,4.468-3.376,8.763-5.993,12.72c-0.466-1.176-0.842-2.47-1.065-3.875
	c-1.528-9.556,5.215-16.831,5.99-17.628c2.484-2.56,2.825-6.513,0.817-9.46c-2.006-2.948-5.807-4.081-9.102-2.707
	c-11.845,4.934-24.357,7.437-37.189,7.437c-12.832,0-25.344-2.503-37.188-7.438c-3.293-1.37-7.095-0.239-9.102,2.708
	c-2.008,2.948-1.666,6.9,0.817,9.46c0.774,0.798,7.518,8.073,5.99,17.628c-0.226,1.419-0.606,2.722-1.078,3.908
	c-5.225-7.882-8.034-17.124-8.034-26.768C207.405,100.954,229.205,79.155,256,79.155z M268.68,203.394l-20.111,30.167l-16.76-30.167
	H268.68z M394.705,495.182c-1.951,1.17-4.173,1.788-6.427,1.788c-4.451,0-8.473-2.274-10.757-6.084l-92.755-154.592
	c-1.358-2.263-3.804-3.648-6.445-3.648h-54.407c-1.62,0-3.197,0.524-4.496,1.494c-0.298,0.222-0.608,0.45-0.865,0.61l-56.337,35.211
	c-1.856,1.159-3.112,3.068-3.445,5.229l-14.635,95.125c-0.932,6.056-6.242,10.623-12.354,10.624c-0.64,0-1.289-0.05-1.929-0.148
	c-6.826-1.05-11.526-7.458-10.474-14.283l16.031-104.204c0.554-3.606,2.647-6.782,5.74-8.716l58.715-36.697
	c2.197-1.374,3.532-3.781,3.532-6.372v-80.253c0-2.562-1.303-4.917-3.401-6.288c-5.134-3.898-72.249-61.004-116.468-98.745
	c-2.54-2.177-4.08-5.213-4.336-8.549c-0.258-3.336,0.801-6.571,2.978-9.111c2.178-2.541,5.214-4.081,8.55-4.337
	c3.327-0.261,6.571,0.801,9.111,2.979l111.266,95.371c0.99,0.849,2.177,1.42,3.441,1.668l26.877,48.38
	c2.684,4.831,9.755,5.12,12.822,0.519l32.505-48.758h5.558c0.087,0,0.174,0,0.262,0c12.59,0,17.85,1.68,18.811,2.329l56.111,40.078
	c4.214,3.011,6.126,8.204,4.87,13.23l-16.031,64.125c-1.397,5.588-6.387,9.492-12.136,9.492c-1.02,0-2.047-0.127-3.052-0.379
	c-6.7-1.675-10.788-8.489-9.114-15.188l12.724-50.889c0.748-2.995-0.411-6.143-2.923-7.938l-29.351-20.964
	c-2.29-1.635-5.303-1.856-7.806-0.566c-2.503,1.288-4.076,3.867-4.076,6.681v68.701c0,1.444,0.416,2.853,1.191,4.061
	c2.057,3.326,64.417,107.187,97.219,161.834C402.552,483.922,400.624,491.629,394.705,495.182z M328.922,267.509l-11.413,45.646
	c-0.815-1.351-1.43-2.366-1.893-3.129v-52.021L328.922,267.509z"/>
<path d="M248.986,256.501h-1.002c-4.151,0-7.515,3.365-7.515,7.515s3.364,7.515,7.515,7.515h1.002c4.151,0,7.515-3.365,7.515-7.515
	S253.137,256.501,248.986,256.501z"/>
<path d="M248.986,280.548h-1.002c-4.151,0-7.515,3.365-7.515,7.515s3.364,7.515,7.515,7.515h1.002c4.151,0,7.515-3.365,7.515-7.515
	S253.137,280.548,248.986,280.548z"/>
<g>
</g>
<g>
</g>
<g>
</g>
<g>
</g>
<g>
</g>
<g>
</g>
<g>
</g>
<g>
</g>
<g>
</g>
<g>
</g>
<g>
</g>
<g>
</g>
<g>
</g>
<g>
</g>
<g>
</g>
</svg>
