<svg height="511pt" viewBox="0 0 511.98456 511" width="511pt" xmlns="http://www.w3.org/2000/svg"><path d="m503.453125 158.316406v337.066406c0 4.714844-3.824219 8.535157-8.535156 8.535157h-230.398438s85.332031-25.601563 59.730469-76.800781c-14.378906-29.425782-32.410156-56.921876-53.671875-81.835938l22.355469-225.363281 47.359375-49.75 129.023437-21.417969 23.125-3.839844c1.757813-.296875 3.511719.527344 4.402344 2.0625.894531 1.539063.738281 3.472656-.390625 4.847656l-24.40625 30.550782c-1.449219 1.886718-1.105469 4.59375.769531 6.058594l25.089844 18.773437c1.195312.875 1.855469 2.3125 1.730469 3.792969-.121094 1.480468-1.003907 2.789062-2.328125 3.460937l-21.847656 10.921875c-1.324219.667969-2.207032 1.976563-2.328126 3.457032-.125 1.480468.53125 2.917968 1.730469 3.796874l25.175781 18.859376c2.132813 1.621093 3.394532 4.144531 3.414063 6.824218zm0 0" fill="#4e342e"/><path d="m475.375 158.316406v337.066406c0 4.714844-3.820312 8.535157-8.53125 8.535157h-202.324219s85.332031-25.601563 59.730469-76.800781c-14.378906-29.425782-32.410156-56.921876-53.671875-81.835938l22.355469-225.363281 47.359375-49.75 129.023437-21.417969c.101563 1.105469-.234375 2.207031-.9375 3.070312l-24.40625 30.550782c-1.449218 1.886718-1.105468 4.59375.769532 6.058594l25.085937 18.773437c1.199219.875 1.855469 2.3125 1.734375 3.792969-.121094 1.480468-1.003906 2.789062-2.328125 3.460937l-21.847656 10.921875c-1.324219.667969-2.207031 1.976563-2.332031 3.457032-.121094 1.480468.535156 2.917968 1.734374 3.796874l25.175782 18.859376c2.132812 1.621093 3.394531 4.144531 3.410156 6.824218zm0 0" fill="#795548"/><path d="m288.242188 49.175781c-10.191407-12.726562-23.636719-22.460937-38.914063-28.160156-1.644531-.648437-3.523437-.214844-4.714844 1.09375-1.195312 1.304687-1.457031 3.214844-.660156 4.792969 11.398437 22.003906 18.332031 46.046875 20.394531 70.742187l42.667969-9.300781zm0 0" fill="#795548"/><path d="m28.058594 294.167969-16.808594-20.652344c-3.394531-6.773437-3.613281-14.699219-.597656-21.648437 3.011718-6.949219 8.949218-12.207032 16.210937-14.359376l16.726563-4.183593c.851562 1.621093 24.234375 49.921875-15.53125 60.84375zm0 0" fill="#37474f"/><path d="m429.722656 283.757812-42.921875 5.375c-1.800781.203126-3.277343 1.523438-3.679687 3.289063-.402344 1.769531.355468 3.597656 1.886718 4.5625l29.953126 19.882813c1.601562 1.03125 2.324218 3.003906 1.765624 4.824218-.554687 1.824219-2.25 3.058594-4.15625 3.027344h-56.832031c-1.367187.007812-2.648437.675781-3.441406 1.789062-.796875 1.117188-1.007813 2.542969-.566406 3.839844l11.945312 35.757813c.574219 1.644531.089844 3.476562-1.226562 4.621093-1.3125 1.148438-3.195313 1.378907-4.746094.582032l-24.40625-12.203125-32.339844-16.128907c-1.492187-.789062-3.195312-1.085937-4.867187-.851562l-19.964844 2.472656-106.496094 13.3125c-4.277344.519532-7.5 4.140625-7.511718 8.449219v5.804687c.007812 2.792969-1.367188 5.414063-3.667969 7-2.304688 1.585938-5.242188 1.9375-7.851563.933594l-16.726562-6.230468-23.464844-8.789063c-3.09375-1.140625-5.25-3.964844-5.539062-7.246094-.292969-3.285156 1.332031-6.441406 4.171874-8.113281l58.371094-34.984375c3.214844-2.144531 4.589844-6.179687 3.347656-9.839844-1.238281-3.660156-4.785156-6.03125-8.640624-5.777343l-20.90625 3.15625-87.210938 13.140624c-6.871094.53125-13.363281-3.191406-16.382812-9.386718l-9.558594-11.859375c39.765625-10.921875 16.382812-59.222657 15.53125-60.84375l97.707031-24.488281c7.734375-2.246094 13.960937-8 16.808594-15.53125l17.410156-46.507813c2.328125-6.328125 7.089844-11.457031 13.226563-14.25l75.605468-34.902344.425782-.171875 19.796874-9.128906 90.882813 99.839844 36.691406 14.675781c1.328125.546875 2.292969 1.722656 2.570313 3.132813.273437 1.410156-.179688 2.863281-1.203125 3.867187l-16.8125 16.808594c-.96875.972656-1.410157 2.347656-1.191407 3.699219.222657 1.351562 1.078126 2.515624 2.300782 3.128906l18.515625 9.300781c1.585937.800781 2.507812 2.5 2.316406 4.261719-.1875 1.765625-1.449219 3.226562-3.167969 3.675781l-11.777344 2.898437c-1.714843.449219-2.976562 1.910157-3.167968 3.675782-.1875 1.761718.734375 3.460937 2.316406 4.261718l28.246094 14.164063c1.652344.851563 2.566406 2.675781 2.253906 4.511719-.3125 1.835937-1.777344 3.253906-3.621094 3.511718zm0 0" fill="#795548"/><path d="m401.648438 283.757812-42.921876 5.375c-1.800781.203126-3.277343 1.523438-3.679687 3.289063-.402344 1.769531.351563 3.597656 1.886719 4.5625l29.953125 19.882813c1.601562 1.03125 2.320312 3.003906 1.765625 4.824218-.554688 1.824219-2.25 3.058594-4.15625 3.027344h-56.832032c-1.367187.007812-2.648437.675781-3.445312 1.789062-.792969 1.117188-1.003906 2.542969-.566406 3.839844l9.644531 28.757813-32.339844-16.128907c-1.492187-.789062-3.195312-1.085937-4.867187-.851562l-19.964844 2.472656-3.246094-1.621094c-1.488281-.789062-3.191406-1.085937-4.863281-.851562l-126.464844 15.785156c-4.273437.519532-7.496093 4.140625-7.507812 8.449219v5.804687c-.015625.570313-.070313 1.140626-.171875 1.703126l-23.464844-8.789063c-3.09375-1.140625-5.25-3.964844-5.539062-7.246094-.292969-3.285156 1.332031-6.441406 4.171874-8.113281l58.371094-34.984375c3.214844-2.144531 4.589844-6.179687 3.347656-9.839844-1.238281-3.660156-4.785156-6.03125-8.640624-5.777343l-20.90625 3.15625c-1.664063-2.246094-4.386719-3.445313-7.167969-3.15625l-90.453125 13.652343c-2.5625-1.667969-4.625-3.996093-5.972656-6.742187l-9.558594-11.859375c39.765625-10.921875 16.382812-59.222657 15.53125-60.84375l97.707031-24.488281c7.734375-2.246094 13.960937-8 16.808594-15.53125l17.410156-46.507813c2.328125-6.328125 7.089844-11.457031 13.226563-14.25l75.605468-34.902344.425782-.171875 82.601562 90.710938 36.695312 14.675781c1.328126.546875 2.292969 1.722656 2.570313 3.132813.273437 1.410156-.179687 2.863281-1.207031 3.867187l-16.808594 16.808594c-.96875.972656-1.410156 2.347656-1.191406 3.699219.222656 1.351562 1.074218 2.515624 2.300781 3.128906l18.515625 9.300781c1.585938.800781 2.507812 2.5 2.316406 4.261719-.191406 1.765625-1.453125 3.226562-3.167968 3.675781l-11.777344 2.898437c-1.714844.449219-2.976563 1.910157-3.167969 3.675782-.1875 1.761718.734375 3.460937 2.316406 4.261718l28.246094 14.164063c1.652344.851563 2.566406 2.675781 2.253906 4.511719-.3125 1.835937-1.777343 3.253906-3.621093 3.511718zm0 0" fill="#bfa885"/><path d="m281.585938 119.917969 10.109374-107.289063c.234376-1.523437 1.269532-2.804687 2.710938-3.347656s3.0625-.269531 4.246094.71875c17.53125 14.832031 32.355468 32.597656 43.808594 52.503906 14.542968 26.773438 15.449218 58.875 2.441406 86.425782-1.039063 2.234374-2.988282 3.910156-5.355469 4.597656-2.363281.691406-4.910156.324218-6.984375-1.003906zm0 0" fill="#bfa885"/><path d="m221.851562 213.785156-8.535156-34.136718 31.234375-20.820313c28.839844 47.445313-22.699219 54.957031-22.699219 54.957031zm0 0" fill="#f44335"/><path d="m505.15625 144.664062-19.625-14.753906 15.597656-7.808594c3.96875-1.984374 6.625-5.878906 7.023438-10.292968.402344-4.417969-1.515625-8.726563-5.058594-11.390625l-21.574219-16.214844 21.667969-27.082031c3.308594-4.144532 3.722656-9.898438 1.039062-14.46875-2.683593-4.574219-7.910156-7.019532-13.140624-6.148438l-140.382813 23.414063c-12.023437-21.425781-27.777344-40.535157-46.523437-56.421875-3.535157-2.972656-8.394532-3.8125-12.722657-2.191406-4.496093 1.71875-7.675781 5.785156-8.257812 10.5625l-1.707031 18.183593c-8.773438-7.054687-18.554688-12.761719-29.015626-16.929687-4.929687-1.945313-10.550781-.652344-14.136718 3.257812-3.582032 3.90625-4.382813 9.621094-2.015625 14.363282 9.855469 19.328124 16.289062 40.21875 19.011719 61.738281l-70.179688 32.308593c-8.164062 3.757813-14.503906 10.597657-17.636719 19.019532l-17.347656 46.421875c-1.828125 4.960937-5.867187 8.78125-10.921875 10.328125l-114.808594 28.765625c-9.6875 2.867187-17.605468 9.878906-21.625 19.148437-4.019531 9.269532-3.722656 19.84375.804688 28.875.277344.550782.613281 1.066406.996094 1.546875l25.839843 31.851563c4.925781 8.921875 14.671875 14.074218 24.816407 13.117187l6.757812-1.03125 7.117188 14.242188c2.105468 4.21875 7.234374 5.929687 11.449218 3.820312 4.21875-2.105469 5.929688-7.230469 3.824219-11.449219l-4.660156-9.320312 83.261719-12.707031-58.359376 34.988281c-5.625 3.375-8.828124 9.667969-8.238281 16.203125.585938 6.535156 4.855469 12.15625 10.992188 14.472656l40.109375 14.988281c5.226562 2.011719 11.109375 1.316407 15.726562-1.855468 4.628906-3.179688 7.394532-8.4375 7.398438-14.050782v-5.789062l95.121094-11.851562c.316406.65625.722656 1.269531 1.203124 1.816406 20.019532 22.359375 36.722657 47.480468 49.59375 74.589844 4.511719 7.8125 5.113282 17.28125 1.628907 25.601562-9.050781 21.007812-43.621094 35.4375-56.179688 39.253906-3.996093 1.269532-6.480469 5.253906-5.855469 9.398438.621094 4.144531 4.160157 7.226562 8.355469 7.265625h230.398438c9.425781 0 17.066406-7.640625 17.066406-17.066407v-337.066406c-.011719-5.367187-2.539063-10.421875-6.828125-13.652344zm-248.566406-110.875c8.707031 4.535157 16.457031 10.707032 22.828125 18.175782l-2.894531 30.722656-4.855469 2.242188c-2.675781-17.652344-7.746094-34.859376-15.078125-51.140626zm-238.128906 221.492188c1.933593-4.546875 5.765624-8.015625 10.476562-9.496094l7.398438-1.851562c2.851562 4.871094 9.054687 18.96875 4.976562 28.160156-2.726562 4.773438-7.417969 8.105469-12.828125 9.101562l-9.972656-12.269531c-1.929688-4.339843-1.949219-9.289062-.050781-13.644531zm476.457031 240.101562h-191.617188c13.144531-7.4375 23.792969-18.597656 30.601563-32.074218 5.527344-12.933594 4.785156-27.695313-2.015625-40.007813-12.421875-25.480469-27.816407-49.40625-45.855469-71.277343l11.09375-1.382813 56.738281 28.324219c4.640625 2.359375 10.253907 1.675781 14.1875-1.738282 3.9375-3.414062 5.414063-8.871093 3.730469-13.800781l-10.085938-30.175781h50.875c5.667969.03125 10.683594-3.667969 12.324219-9.09375 1.640625-5.421875-.480469-11.28125-5.214843-14.398438l-20.480469-13.578124 31.574219-3.949219c5.582031-.710938 10.042968-4.980469 11-10.523438.953124-5.546875-1.824219-11.0625-6.84375-13.601562l-17.921876-8.96875.46875-.109375c5.222657-1.277344 9.085938-5.675782 9.683594-11.015625.59375-5.339844-2.210937-10.484375-7.019531-12.878907l-13.242187-6.644531 12.628906-12.632812c3.078125-3.058594 4.402344-7.464844 3.523437-11.714844-.859375-4.191406-3.777343-7.664063-7.757812-9.234375l-36.691407-14.675781c-4.347656-1.636719-9.203124.5-10.933593 4.808593-1.726563 4.3125.308593 9.210938 4.582031 11.03125l30.652344 12.261719-12.234375 12.277344c-2.902344 2.90625-4.234375 7.03125-3.578125 11.085937.65625 4.054688 3.21875 7.550782 6.886718 9.394532l8.175782 4.105468-.476563.109376c-5.21875 1.28125-9.085937 5.679687-9.675781 11.019531-.59375 5.339843 2.210938 10.484375 7.019531 12.875l15.640625 7.851562-28.960937 3.617188c-5.332031.664062-9.679688 4.585937-10.890625 9.820312-1.207032 5.234375.980468 10.667969 5.480468 13.605469l18.203126 12.089844h-42.753907c-4.113281.011718-7.96875 1.996094-10.363281 5.339844-2.398438 3.339843-3.042969 7.632812-1.734375 11.53125l8.703125 26.035156-47.566406-23.742188c-2.992188-1.570312-6.398438-2.164062-9.746094-1.703125l-126.417969 15.820313c-8.558593 1.027344-15.003906 8.277344-15.027343 16.894531v5.75l-40.160157-15.066406 58.734375-35.21875c6.523438-4.371094 9.21875-12.625 6.539063-20.003907-2.679688-7.378906-10.046875-11.976562-17.851563-11.144531l-107.480468 16.214844c-3.410157.257813-6.632813-1.605469-8.113282-4.691406-.28125-.554688-.617187-1.078125-1.007812-1.5625l-4.445313-5.480469c7.5625-3.035156 13.683594-8.832031 17.136719-16.210938 4.316406-13.011718 3.023438-27.238281-3.578125-39.253906l90.273437-22.632812c10.316407-3.019532 18.625-10.691406 22.460938-20.734375l17.433594-46.574219c1.574218-4.167969 4.734375-7.546875 8.789062-9.386719l82.355469-37.992187-1.621094 16.742187c-.445312 4.691407 2.992188 8.851563 7.679688 9.304688h.8125c4.414062.019531 8.117187-3.335938 8.53125-7.734375l9.292969-98.636719c18.910156 17.554687 50.484374 53.496094 50.484374 97.871094 0 4.710937 3.820313 8.53125 8.53125 8.53125 4.714844 0 8.535157-3.820313 8.535157-8.53125-.117188-15.066407-3.085938-29.976563-8.746094-43.9375l124.679687-20.78125-17.441406 21.8125c-2.164062 2.703125-3.140625 6.171875-2.703125 9.605469.433594 3.4375 2.246094 6.550781 5.015625 8.628906l19.558594 14.679687-15.601562 7.804688c-3.964844 1.984375-6.621094 5.878906-7.019532 10.296875-.402344 4.417968 1.511719 8.726562 5.058594 11.386718l25.199219 18.902344zm0 0"/><path d="m259.78125 138.417969-51.199219 34.132812c-3 2-4.417969 5.675781-3.542969 9.171875l8.535157 34.132813c.949219 3.796875 4.363281 6.460937 8.277343 6.460937.472657.003906.949219-.039062 1.417969-.117187 1.132813-.191407 27.945313-4.867188 36.988281-24.441407 4.808594-12.085937 3.390626-25.761718-3.785156-36.609374l12.796875-8.53125c2.539063-1.691407 3.980469-4.609376 3.78125-7.652344-.195312-3.042969-2-5.75-4.734375-7.097656-2.734375-1.351563-5.980468-1.140626-8.515625.550781zm-15.007812 52.144531c-3.800782 6.183594-9.777344 10.714844-16.753907 12.707031l-4.964843-19.855469 19.132812-12.75c3.867188 5.886719 4.820312 13.222657 2.585938 19.898438zm0 0"/><path d="m323.816406 91.621094c-.964844-2.898438-3.398437-5.058594-6.390625-5.671875-2.988281-.613281-6.078125.414062-8.105469 2.695312-2.027343 2.28125-2.679687 5.472657-1.71875 8.367188l8.535157 25.601562c1.488281 4.476563 6.324219 6.898438 10.800781 5.410157 4.480469-1.488282 6.902344-6.324219 5.410156-10.804688zm0 0"/><path d="m443.386719 373.570312c-.769531-3.011718-3.113281-5.367187-6.121094-6.152343-3.007813-.78125-6.203125.132812-8.34375 2.386719-2.136719 2.257812-2.878906 5.496093-1.9375 8.457031l11.734375 41.082031-10.617188-5.308594c-3.96875-1.980468-8.679687-1.765625-12.449218.566406-3.773438 2.332032-6.066406 6.449219-6.066406 10.886719v11.433594l-18.9375-23.671875c-2.945313-3.679688-8.316407-4.277344-11.996094-1.332031-3.683594 2.945312-4.277344 8.316406-1.332032 12l26.539063 33.167969c2.394531 3.039062 6.046875 4.816406 9.914063 4.820312 1.480468 0 2.949218-.25 4.34375-.742188 5.144531-1.769531 8.582031-6.632812 8.535156-12.074218v-16.699219l13.113281 6.554687c4.542969 2.265626 9.992187 1.632813 13.894531-1.609374 3.902344-3.238282 5.523438-8.480469 4.128906-13.359376zm0 0"/></svg>