<svg height="512pt" viewBox="0 0 512 512" width="512pt" xmlns="http://www.w3.org/2000/svg"><path d="m204.800781 383.742188v85.589843h-51.199219v-121.941406zm0 0" fill="#bfa885"/><path d="m307.199219 347.390625v117.675781h-51.199219v-81.324218zm0 0" fill="#795548"/><path d="m358.398438 199.59375v54.101562c.007812 9.054688-3.582032 17.742188-9.984376 24.148438l-1.449218 1.453125c-.007813.0625-.039063.125-.085938.167969l-23.039062 22.957031c-.042969.628906-.128906 1.257813-.253906 1.875-1.371094 12.613281-5.386719 24.796875-11.777344 35.757813l-.085938.082031c-1.375 2.5-2.886718 4.921875-4.523437 7.253906-12.363281 17.660156-30.449219 30.503906-51.199219 36.351563-8.316406 2.414062-16.9375 3.621093-25.601562 3.585937-4.285157.03125-8.5625-.28125-12.796876-.9375-4.335937-.519531-8.617187-1.40625-12.800781-2.648437-20.75-5.847657-38.835937-18.691407-51.199219-36.351563-1.636718-2.332031-3.148437-4.753906-4.523437-7.253906l-.085937-.082031c-6.394532-10.960938-10.40625-23.144532-11.777344-35.757813-.125-.617187-.210938-1.246094-.253906-1.875l-23.039063-22.957031c-.046875-.042969-.078125-.105469-.085937-.167969l-1.453126-1.453125c-6.398437-6.40625-9.988281-15.09375-9.984374-24.148438v-54.101562c-.050782-9.753906 2.769531-19.3125 8.109374-27.476562 9.324219-14.796876 25.601563-23.757813 43.09375-23.722657h153.597657c17.339843-.046875 33.5 8.773438 42.839843 23.382813.167969.085937.253907.167968.253907.339844 5.339843 8.164062 8.160156 17.722656 8.105469 27.476562zm0 0" fill="#bfa885"/><path d="m204.800781 460.800781v25.597657c-.027343 9.414062-7.652343 17.039062-17.066406 17.066406h-17.066406c-9.414063-.027344-17.039063-7.652344-17.066407-17.066406v-25.597657zm0 0" fill="#795548"/><path d="m307.199219 460.800781v25.597657c-.027344 9.414062-7.652344 17.039062-17.066407 17.066406h-17.066406c-1.445312.019531-2.882812-.183594-4.265625-.59375-7.515625-1.941406-12.777343-8.710938-12.800781-16.472656v-25.597657zm0 0" fill="#4e342e"/><path d="m281.601562 365.566406v99.5h-25.601562v-81.324218zm0 0" fill="#bfa885"/><path d="m332.800781 199.59375v54.101562c.007813 9.054688-3.585937 17.742188-9.984375 24.148438l-1.449218 1.453125c-.011719.0625-.039063.125-.085938.167969l-23.042969 22.957031c-.042969.628906-.128906 1.257813-.253906 1.875-1.371094 12.613281-5.382813 24.796875-11.777344 35.757813l-.085937.082031c-1.375 2.5-2.882813 4.921875-4.519532 7.253906-12.367187 17.660156-30.453124 30.503906-51.203124 36.351563-4.183594 1.242187-8.464844 2.128906-12.796876 2.648437-4.335937-.519531-8.617187-1.40625-12.800781-2.648437-20.75-5.847657-38.835937-18.691407-51.199219-36.351563-1.636718-2.332031-3.148437-4.753906-4.523437-7.253906l-.085937-.082031c-6.394532-10.960938-10.40625-23.144532-11.777344-35.757813-.125-.617187-.210938-1.246094-.253906-1.875l-23.039063-22.957031c-.046875-.042969-.078125-.105469-.085937-.167969l-1.453126-1.453125c-6.398437-6.40625-9.988281-15.09375-9.984374-24.148438v-54.101562c-.050782-9.753906 2.769531-19.3125 8.109374-27.476562 9.324219-14.796876 25.601563-23.757813 43.09375-23.722657h128c17.335938-.046875 33.496094 8.773438 42.835938 23.382813.171875.085937.253906.167968.253906.339844 5.339844 8.164062 8.160156 17.722656 8.109375 27.476562zm0 0" fill="#ffe0b2"/><path d="m281.601562 460.800781v25.597657c-.027343 7.761718-5.285156 14.53125-12.800781 16.472656-7.515625-1.941406-12.777343-8.710938-12.800781-16.472656v-25.597657zm0 0" fill="#795548"/><path d="m290.132812 46.078125v49.835937c.003907 2.171876-.167968 4.339844-.511718 6.484376.085937.171874.085937.257812 0 .34375l-59.222656 33.792968-12.796876-7.339844-46.421874-26.453124v-.34375c-.34375-2.144532-.515626-4.3125-.511719-6.484376v-49.835937c-.898438-19.777344 14.359375-36.558594 34.132812-37.542969h51.199219c19.773438.984375 35.03125 17.765625 34.132812 37.542969zm0 0" fill="#bfa885"/><path d="m264.019531 102.398438c.085938.171874.085938.257812 0 .34375-1.660156 12.46875-7.859375 23.890624-17.40625 32.085937l-29.011719 24.832031 7.25 6.226563c3.195313 2.734375 7.902344 2.734375 11.09375 0l36.269532-31.058594c9.546875-8.195313 15.742187-19.617187 17.40625-32.085937.085937-.085938.085937-.171876 0-.34375zm0 0" fill="#4e342e"/><path d="m264.535156 46.078125v49.835937c0 2.171876-.171875 4.339844-.515625 6.484376.085938.171874.085938.257812 0 .34375l-46.417969 26.453124-46.421874-26.453124v-.34375c-.34375-2.144532-.515626-4.3125-.511719-6.484376v-49.835937c-.898438-19.777344 14.359375-36.558594 34.132812-37.542969h25.597657c19.777343.984375 35.035156 17.765625 34.136718 37.542969zm0 0" fill="#ffe0b2"/><path d="m264.019531 102.398438c.085938.171874.085938.257812 0 .34375-1.660156 12.46875-7.859375 23.890624-17.40625 32.085937l-29.011719 24.832031-29.015624-24.832031c-9.546876-8.195313-15.742188-19.617187-17.40625-32.085937v-.34375h28.074218c5.242188-6.179688 11.804688-11.105469 19.199219-14.417969 4.074219-1.738281 8.457031-2.636719 12.886719-2.648438 12.222656.59375 23.449218 6.921875 30.292968 17.066407zm0 0" fill="#795548"/><path d="m186.308594 231.902344c2.226562.582031 4.523437.871094 6.828125.851562 9.019531-.492187 17.691406-3.628906 24.941406-9.019531 3.921875-2.613281 4.980469-7.914063 2.363281-11.835937-2.617187-3.917969-7.914062-4.976563-11.835937-2.363282-4.933594 4.117188-11.234375 6.230469-17.65625 5.914063-1.71875-.351563-3.230469-1.371094-4.207031-2.832031-2.160157-4.191407-7.3125-5.832032-11.5-3.671876-4.191407 2.164063-5.835938 7.316407-3.671876 11.503907 3.140626 5.671875 8.464844 9.8125 14.738282 11.453125zm0 0"/><path d="m267.671875 232.773438c2.304687.015624 4.601563-.269532 6.828125-.855469 6.273438-1.632813 11.601562-5.765625 14.746094-11.433594 2.027344-4.097656.410156-9.0625-3.644532-11.179687-4.109374-2.128907-9.167968-.671876-11.511718 3.320312-.984375 1.484375-2.519532 2.511719-4.265625 2.859375-6.417969.3125-12.722657-1.796875-17.65625-5.914063-2.535157-1.691406-5.78125-1.902343-8.515625-.550781-2.734375 1.351563-4.539063 4.054688-4.738282 7.097657-.195312 3.042968 1.246094 5.960937 3.78125 7.652343 7.261719 5.390625 15.949219 8.523438 24.976563 9.003907zm0 0"/><path d="m213.332031 344.652344c0 4.714844 3.820313 8.535156 8.535157 8.535156 0 4.710938 3.820312 8.53125 8.53125 8.53125 4.714843 0 8.535156-3.820312 8.535156-8.53125 4.710937 0 8.53125-3.820312 8.53125-8.535156 0-4.710938-3.820313-8.53125-8.53125-8.53125 0-4.714844-3.820313-8.535156-8.535156-8.535156-4.710938 0-8.53125 3.820312-8.53125 8.535156-4.714844 0-8.535157 3.820312-8.535157 8.53125zm0 0"/><path d="m213.332031 68.265625c4.714844 0 8.535157-3.820313 8.535157-8.53125v-8.535156c0-4.710938-3.820313-8.53125-8.535157-8.53125-4.710937 0-8.53125 3.820312-8.53125 8.53125v8.535156c0 4.710937 3.820313 8.53125 8.53125 8.53125zm0 0"/><path d="m247.464844 68.265625c4.714844 0 8.535156-3.820313 8.535156-8.53125v-8.535156c0-4.710938-3.820312-8.53125-8.535156-8.53125-4.710938 0-8.53125 3.820312-8.53125 8.53125v8.535156c0 4.710937 3.820312 8.53125 8.53125 8.53125zm0 0"/><path d="m503.464844 494.933594h-85.332032v-31.777344c8.003907 3.839844 16.726563 5.945312 25.601563 6.175781 4.710937 0 8.53125-3.820312 8.53125-8.53125 0-4.714843-3.820313-8.535156-8.53125-8.535156-.199219 0-18.773437-.425781-25.601563-11.09375v-12.203125c7.355469 4.875 16.007813 7.421875 24.832032 7.304688 3.832031.015624 7.652344-.433594 11.375-1.328126 4.539062-1.171874 7.285156-5.789062 6.144531-10.335937-1.140625-4.550781-5.734375-7.328125-10.292969-6.21875-6.71875 2.007813-13.972656 1.148437-20.042968-2.367187-6.070313-3.519532-10.417969-9.386719-12.015626-16.21875v-8.125c1.433594 1.347656 2.957032 2.589843 4.566407 3.722656 6.796875 4.203125 14.648437 6.390625 22.636719 6.3125 3.027343.03125 6.046874-.28125 9.003906-.929688 4.539062-1.171875 7.285156-5.789062 6.144531-10.335937s-5.734375-7.324219-10.292969-6.21875c-6.3125 1.191406-12.847656.035156-18.371094-3.25-7.757812-5.847657-12.769531-14.632813-13.859374-24.289063-.222657-1.09375-.65625-2.132812-1.277344-3.0625-.332032-.402344-.699219-.777344-1.101563-1.109375-.367187-.445312-.777343-.851562-1.230469-1.210937-.921874-.621094-1.957031-1.054688-3.042968-1.28125-.59375-.0625-1.1875-.0625-1.777344 0-.523438-.050782-1.046875-.050782-1.570312 0-1.097657.222656-2.136719.660156-3.0625 1.289062-.285157.246094-.550782.507813-.800782.785156-1.488281 1.117188-2.484375 2.761719-2.792968 4.589844-1.09375 9.585938-6.039063 18.3125-13.695313 24.175782-5.585937 3.347656-12.203125 4.535156-18.601563 3.335937-4.5625-1.089844-9.152343 1.703125-10.273437 6.261719-1.125 4.554687 1.644531 9.164062 6.195313 10.3125 2.953124.648437 5.972656.960937 9 .929687 7.992187.078125 15.84375-2.113281 22.640624-6.316406 1.582032-1.128906 3.085938-2.367187 4.496094-3.710937v8.105468c-1.570312 6.855469-5.921875 12.75-12.007812 16.273438-6.089844 3.519531-13.367188 4.351562-20.09375 2.296875-4.539063-1.042969-9.074219 1.746093-10.195313 6.265625-1.121093 4.519531 1.589844 9.101562 6.089844 10.296875 3.726563.898437 7.542969 1.34375 11.375 1.332031 8.820313.121094 17.472656-2.414062 24.832031-7.28125v12.203125c-6.722656 10.496094-25.242187 11.09375-25.601562 11.09375-4.710938 0-8.53125 3.820313-8.53125 8.535156 0 4.710938 3.820312 8.53125 8.53125 8.53125 8.875-.230469 17.597656-2.335937 25.601562-6.175781v31.777344h-86.902344c1.011719-2.734375 1.539063-5.621094 1.570313-8.535156v-136.652344c8.605469-12.988282 14.105469-27.78125 16.074219-43.238282l22.632812-22.628906c8.027344-7.988281 12.523438-18.851562 12.492188-30.175781v-54.117187c-.039063-32.972657-26.757813-59.695313-59.734375-59.734376h-25.597657c-.742187-.019531-1.480468-.089843-2.210937-.203124 9.652344-8.824219 16.128906-20.585938 18.421875-33.460938.574219-1.179688.863281-2.476562.855469-3.789062v-6.484376c-.046875-.34375-.117188-.6875-.207031-1.023437.089843-.335937.160156-.679687.207031-1.023437v-51.199219c-.03125-23.554688-19.117188-42.6406252-42.667969-42.667969h-51.199219c-23.554687.0273438-42.640625 19.113281-42.667969 42.667969v51.199219c.046876.34375.113282.6875.207032 1.023437-.089844.335937-.160156.679687-.207032 1.023437v6.484376c-.011718 1.3125.28125 2.609374.855469 3.789062 2.28125 12.875 8.746094 24.636719 18.386719 33.46875-.71875.113281-1.445312.183594-2.175781.207031h-25.597657c-32.976562.035157-59.699218 26.757813-59.734374 59.730469v54.121094c-.03125 11.320312 4.464843 22.1875 12.492187 30.171875l22.628906 22.628906c1.972657 15.453125 7.472657 30.246094 16.078125 43.230469v136.652344c.027344 2.914062.558594 5.800781 1.570313 8.535156h-78.371094v-31.777344c8.003906 3.839844 16.726563 5.945312 25.601563 6.175781 4.710937 0 8.53125-3.820312 8.53125-8.53125 0-4.714843-3.820313-8.535156-8.53125-8.535156-.195313 0-18.773438-.425781-25.601563-11.09375v-12.203125c7.355469 4.875 16.011719 7.421875 24.832031 7.304688 3.832032.015624 7.652344-.433594 11.375-1.328126 2.976563-.722656 5.339844-2.988281 6.1875-5.929687.847656-2.945313.050782-6.117187-2.082031-8.3125-2.136719-2.195313-5.285156-3.078125-8.25-2.3125-6.722656 2.003906-13.976563 1.144531-20.042969-2.371094-6.070312-3.519531-10.417968-9.386719-12.019531-16.214843v-8.125c1.433594 1.347656 2.957031 2.589843 4.566406 3.722656 6.796875 4.203125 14.648438 6.390625 22.640625 6.3125 3.023438.03125 6.042969-.28125 9-.929688 2.976563-.722656 5.339844-2.984375 6.1875-5.929687.847656-2.945313.050782-6.117188-2.082031-8.3125-2.136719-2.195313-5.285156-3.078125-8.25-2.3125-6.324219 1.207031-12.871094.0625-18.40625-3.226563-7.753906-5.859375-12.753906-14.652344-13.824219-24.3125-.222656-1.09375-.660156-2.136718-1.289062-3.0625-.320313-.390625-.671875-.75-1.058594-1.074218-.375-.460938-.800781-.875-1.261719-1.246094-.925781-.621094-1.960937-1.054688-3.046875-1.28125-.589844-.0625-1.1875-.0625-1.777344 0-.519531-.050782-1.046874-.050782-1.570312 0-1.09375.222656-2.136719.660156-3.0625 1.289062-.285156.246094-.550781.507813-.800781.785156-1.484375 1.117188-2.484375 2.761719-2.792969 4.589844-1.082031 9.578125-6.011719 18.304688-13.652344 24.175782-5.585937 3.347656-12.203125 4.535156-18.601562 3.335937-4.5625-1.089844-9.152344 1.703125-10.273438 6.261719-1.125 4.554687 1.644532 9.164062 6.195313 10.3125 2.953125.648437 5.976562.960937 9 .929687 7.992187.078125 15.84375-2.113281 22.640625-6.316406 1.570312-1.128906 3.058594-2.371094 4.453125-3.710937v8.105468c-1.570313 6.855469-5.921875 12.75-12.007813 16.273438-6.089844 3.519531-13.367187 4.351562-20.09375 2.296875-4.539062-1.042969-9.074218 1.746093-10.195312 6.265625-1.117188 4.519531 1.589844 9.101562 6.089844 10.296875 3.726562.898437 7.542968 1.34375 11.375 1.332031 8.820312.121094 17.472656-2.414062 24.832031-7.28125v12.203125c-6.722657 10.496094-25.242188 11.09375-25.597657 11.09375-4.714843 0-8.535156 3.820313-8.535156 8.535156 0 4.710938 3.820313 8.53125 8.535156 8.53125 8.871094-.230469 17.597657-2.335937 25.597657-6.175781v31.777344h-42.664063c-4.714844 0-8.535156 3.820312-8.535156 8.53125 0 4.714844 3.820312 8.535156 8.535156 8.535156h494.929688c4.714844 0 8.535156-3.820312 8.535156-8.535156 0-4.710938-3.820312-8.53125-8.535156-8.53125zm-341.332032-125.285156c9.9375 8.925781 21.535157 15.8125 34.132813 20.257812v62.359375h-34.132813zm51.199219 116.75v-92.023438c11.292969 1.964844 22.839844 1.964844 34.132813 0v92.023438c.03125 2.914062.5625 5.800781 1.570312 8.535156h-37.273437c1.011719-2.734375 1.542969-5.621094 1.570312-8.535156zm51.203125-96.492188c12.589844-4.457031 24.1875-11.339844 34.132813-20.257812v82.617187h-34.132813zm-70.4375-261.589844c-5.457031-4.675781-9.644531-10.65625-12.175781-17.382812h20.316406l23.453125 15.632812c2.867188 1.914063 6.601563 1.914063 9.46875 0l23.398438-15.632812h20.292968c-2.53125 6.726562-6.71875 12.703125-12.175781 17.382812l-36.277343 31.113282zm24.140625-27.214844c3.6875-3.136718 8.28125-5.007812 13.109375-5.339843 4.34375.269531 8.449219 2.085937 11.570313 5.121093l-12.519531 8.34375zm-39.039062-58.433593c0-14.140625 11.460937-25.601563 25.601562-25.601563h51.199219c14.136719 0 25.601562 11.460938 25.601562 25.601563v51.199219h-21.558593c-6.777344-9.136719-17.328125-14.714844-28.695313-15.171876-11.761718.792969-22.71875 6.257813-30.429687 15.171876h-21.71875zm-68.265625 211.035156v-54.117187c.027344-23.550782 19.113281-42.636719 42.667968-42.667969h25.597657c5.894531-.019531 11.683593-1.574219 16.792969-4.511719l23.316406 19.96875c6.375 5.488281 15.808594 5.488281 22.183594 0l23.296874-19.976562c5.113282 2.945312 10.910157 4.507812 16.8125 4.53125h25.640626c23.535156.050781 42.597656 19.128906 42.625 42.664062v54.121094c.019531 6.792968-2.679688 13.3125-7.492188 18.105468l-40.183594 40.183594c-6.75 6.433594-17.363281 6.433594-24.117187 0-6.65625-6.664062-6.65625-17.460937 0-24.125l25.167969-25.15625c8.027343-7.988281 12.527343-18.855468 12.492187-30.179687v-32.957031c0-4.710938-3.820313-8.53125-8.535156-8.53125-4.710938 0-8.53125 3.820312-8.53125 8.53125v32.957031c.019531 6.792969-2.679688 13.3125-7.492188 18.105469l-25.167969 25.15625c-12.296874 12.167968-13.515624 31.621093-2.835937 45.230468 10.683594 13.605469 29.871094 17.039063 44.609375 7.984375-13.660156 30.5-43.960938 50.128907-77.382812 50.128907-33.417969 0-63.71875-19.628907-77.378907-50.128907 14.738281 9.046875 33.921875 5.613281 44.605469-7.984375 10.683594-13.601562 9.484375-33.046875-2.792969-45.230468l-25.164062-25.15625c-4.828125-4.785157-7.542969-11.304688-7.535157-18.105469v-32.957031c0-4.710938-3.820312-8.53125-8.53125-8.53125-4.714843 0-8.535156 3.820312-8.535156 8.53125v32.957031c-.03125 11.320312 4.464844 22.1875 12.492188 30.171875l25.164062 25.15625c6.660156 6.664062 6.660156 17.460937 0 24.125-6.75 6.433594-17.363281 6.433594-24.113281 0l-40.183594-40.183594c-4.816406-4.792969-7.511719-11.3125-7.492187-18.109375zm59.734375 241.230469c-4.714844 0-8.535157-3.820313-8.535157-8.535156v-17.066407h34.132813v17.066407c0 4.714843-3.820313 8.535156-8.53125 8.535156zm102.398437 0c-4.710937 0-8.53125-3.820313-8.53125-8.535156v-17.066407h34.132813v17.066407c0 4.714843-3.820313 8.535156-8.535157 8.535156zm0 0"/></svg>