<svg height="512pt" viewBox="-26 0 512 512.10124" width="512pt" xmlns="http://www.w3.org/2000/svg"><path d="m451.980469 409.585938-.253907 3.839843c-2.5 25.042969-16.710937 47.421875-38.316406 60.332031-16.113281 9.351563-33.972656 15.304688-52.480468 17.492188-5.375.769531-10.75 1.363281-16.039063 1.792969-4.4375.339843-9.046875.679687-13.742187.679687-4.839844.128906-9.683594-.042968-14.503907-.511718-9.214843-.515626-18.261719-2.683594-26.710937-6.398438-2.730469-1.195312-12.96875.597656-15.53125-1.109375-8.535156-4.644531-14.292969-13.136719-15.445313-22.785156-3.496093-19.285157-5.632812-49.152344 4.949219-66.132813 10.605469-15.90625 24.125-29.660156 39.851562-40.53125 30.636719-22.359375 50.6875-40.277344 54.441407-81.066406 1.644531-22.914062-3.171875-45.828125-13.90625-66.136719-14.847657-33.109375-29.867188-76.628906-63.574219-92.242187-1.195312-.597656-2.476562-1.109375-3.671875-1.621094l17.070313-17.070312 2.730468.769531c20.394532 5.886719 147.285156 46.59375 155.132813 148.566406 2.09375 32.054687-6.289063 63.921875-23.890625 90.792969-7.199219 11.089844-15.152344 21.667968-23.808594 31.660156-9.898438 11.691406-23.039062 22.015625-27.988281 37.035156-1.042969 2.773438-1.421875 5.753906-1.109375 8.703125 1.566406 5.929688 5.742187 10.824219 11.347656 13.3125 3.152344 1.628907 6.472656 2.917969 9.898438 3.839844 8.289062 2.289063 17.039062 2.316406 25.34375.085937 3.535156-.929687 6.941406-2.273437 10.15625-4.011718 6.058593-3.328125 19.882812-11.433594 20.050781-19.285156zm0 0" fill="#ff9801"/><path d="m421.773438 432.882812c-6.488282 17.003907-18.429688 31.382813-33.960938 40.875-16.117188 9.351563-33.976562 15.304688-52.480469 17.492188-5.375.769531-10.753906 1.363281-16.042969 1.792969-.878906.101562-1.761718.15625-2.644531.167969-9.214843-.515626-18.261719-2.683594-26.710937-6.398438-2.730469-1.195312-12.96875.597656-15.53125-1.109375-8.535156-4.644531-14.292969-13.136719-15.445313-22.785156-3.496093-19.285157-5.632812-49.152344 4.949219-66.132813 10.605469-15.90625 24.125-29.660156 39.851562-40.53125 30.636719-22.359375 50.6875-40.277344 54.441407-81.066406 1.644531-22.914062-3.171875-45.828125-13.90625-66.136719-14.847657-33.109375-29.867188-76.628906-63.574219-92.242187-1.195312-.597656-2.476562-1.109375-3.671875-1.621094l10.753906-10.753906c40.703125 14.59375 131.925781 57.003906 138.582031 143.019531 2.09375 32.054687-6.292968 63.921875-23.894531 90.792969-7.195312 11.089844-15.152343 21.667968-23.808593 31.660156-9.898438 11.691406-23.039063 22.015625-27.988282 37.035156-1.042968 2.773438-1.421875 5.753906-1.109375 8.703125 1.566407 5.929688 5.742188 10.824219 11.347657 13.3125 10.925781 5.714844 23.605468 7.089844 35.5 3.839844 8.289062 2.289063 17.039062 2.316406 25.34375.085937zm0 0" fill="#fec108"/><path d="m303.785156 211.1875c.082032 37.375-40.816406 81.492188-90.738281 104.53125-6.203125 2.882812-12.21875 6.160156-18.003906 9.8125 19.96875-28.160156-5.460938-66.472656-7.421875-69.375 2.730468-.085938-2.230469-11.402344-.574219-13.652344 74.386719-102.445312 101.972656-9.558594 116.738281-31.316406zm0 0" fill="#ad1457"/><path d="m374.753906 274.589844c-3.753906 40.789062-32.253906 61.78125-62.890625 84.136718-15.269531 10.191407-28.375 23.300782-38.570312 38.570313-9.429688 17.21875-12.046875 37.347656-7.335938 56.40625 1.230469 11.363281 7.019531 21.738281 16.039063 28.757813 2.515625 1.679687 5.171875 3.136718 7.9375 4.351562-9.238282 5.53125-19.421875 9.292969-30.035156 11.09375-9.789063 2.359375-19.746094 3.957031-29.78125 4.777344-.429688 0-.769532.085937-1.195313.085937-6.664063.644531-13.367187.8125-20.054687.511719-15.785157.085938-31.203126-4.746094-44.117188-13.824219-29.953125-22.953125-35.667969-66.902343-23.550781-99.582031 10.378906-26.789062 29.304687-49.402344 53.84375-64.34375 5.785156-3.652344 11.800781-6.929688 18.003906-9.8125 49.921875-23.039062 63.574219-63.316406 63.488281-100.691406-.082031-45.65625-45.992187-82.773438-45.992187-82.773438 10.582031-2.988281 43.945312-11.09375 50.175781-15.445312 35.273438 18.03125 63.527344 47.308594 80.296875 83.199218 10.730469 23.324219 15.453125 48.964844 13.738281 74.582032zm0 0" fill="#ff9801"/><path d="m296.847656 98.886719c-3.628906 7.339843-9.210937 13.542969-16.128906 17.921875-7.65625 5.089844-16.105469 8.867187-25.003906 11.175781 12.808594 27.289063 19.894531 56.910156 20.820312 87.042969-19.671875 24.648437-49.046875 39.582031-80.554687 40.957031-2.8125 0-5.628907.085937-8.359375.171875-30.125 1.449219-54.1875 11.179688-85.503906 42.496094-34.136719 34.132812-59.734376-17.066406-68.269532-34.132813-8.53125-17.066406-17.066406-25.601562 25.601563-51.199219 31.65625-19.03125 39.851562-47.359374 59.390625-71.253906 10.839844 14.761719-3.292969-23.324218 16.410156 1.5625-1.621094-.34375 3.816406-8.671875 3.558594-9.953125-1.792969-7.335937 6.296875-9.957031 9.539062-16.867187 13.144532-27.734375 14.507813-22.980469 41.003906-21.53125 1.023438 0 31.632813-4.351563 32.65625-4.265625 9.242188-3.398438 17.949219-8.101563 25.855469-13.96875 10.15625-7.167969 26.027344-12.289063 50.519531-8.789063 3.449219 10.027344 2.898438 21-1.535156 30.632813zm0 0" fill="#e91e63"/><path d="m115.070312 116.039062-104.988281-100.027343c-1.53125-1.429688-1.800781-3.757813-.632812-5.5 1.167969-1.738281 3.425781-2.375 5.328125-1.496094l133.570312 65.449219zm0 0" fill="#ff9801"/><path d="m247.863281 77.042969c-8.714843 6.09375-15 15.070312-17.746093 25.34375-1.027344-.085938-2.050782-.171875-3.074219-.171875-26.539063-1.449219-62.292969.511718-75.433594 28.246094-3.152344 6.867187-3.84375 14.609374-1.964844 21.929687.257813 1.28125 2.050781 9.386719 3.671875 9.726563-13.269531-3.007813-25.300781-10.003907-34.476562-20.050782-5.550782-7.492187-6.960938-17.273437-3.753906-26.027344.046874 0 .085937-.039062.085937-.085937 4.550781-11.710937 11.765625-22.199219 21.078125-30.632813 3.761719-3.765624 7.753906-7.300781 11.945312-10.582031l.171876-.171875c29.027343-24.429687 71.71875-23.367187 99.496093 2.476563zm0 0" fill="#fec108"/><path d="m227.117188 160.492188c-4.128907-9.449219-19.511719-11.851563-34.359376-5.363282-14.847656 6.484375-23.535156 19.40625-19.40625 28.855469 4.125 9.449219 19.507813 11.851563 34.355469 5.363281 14.847657-6.488281 23.539063-19.40625 19.410157-28.855468zm0 0" fill="#fff"/><path d="m210.769531 178.289062c0 8.101563-6.566406 14.667969-14.667969 14.667969-8.101562 0-14.667968-6.566406-14.667968-14.667969 0-8.101562 6.566406-14.667968 14.667968-14.667968 8.101563 0 14.667969 6.566406 14.667969 14.667968zm0 0" fill="#37474f"/><path d="m210.003906 169.644531c0 4.714844-3.820312 8.535157-8.535156 8.535157-4.710938 0-8.53125-3.820313-8.53125-8.535157 0-4.710937 3.820312-8.53125 8.53125-8.53125 4.714844 0 8.535156 3.820313 8.535156 8.53125zm0 0" fill="#fff"/><path d="m105.621094 118.8125c-1.40625 6.886719-.726563 14.039062 1.945312 20.539062.292969.699219.753906 1.28125 1.085938 1.953126-5.121094 6.777343-9.480469 13.722656-13.714844 20.480468-9.328125 17.878906-23.050781 33.09375-39.875 44.210938-40.105469 24.082031-41.871094 37.128906-30.53125 59.042968l1.707031 3.285157c6.824219 13.738281 22.945313 45.894531 47.785157 49.921875 1.71875.28125 3.457031.421875 5.195312.425781 11.171875-.539063 21.640625-5.589844 29.015625-13.996094 27.117187-27.117187 48.023437-36.617187 70.953125-39.253906.128906 1.613281.71875 3.15625 1.707031 4.4375.238281.300781 23.175781 29.433594 8.140625 49.496094-25.410156 15.863281-44.96875 39.566406-55.730468 67.523437-12.800782 34.484375-7.84375 83.105469 26.359374 109.320313 15.964844 11.230469 35.230469 16.789062 54.722657 15.785156 1.972656 0 4.164062-.230469 6.214843-.304687.457032.140624.929688.246093 1.40625.304687.984376-.007813 1.960938-.1875 2.886719-.527344 2.039063-.128906 3.921875-.101562 6.03125-.300781 10.40625-.847656 20.734375-2.503906 30.882813-4.957031 9.96875-1.929688 19.613281-5.273438 28.636718-9.933594 12.066407 4.265625 24.804688 6.320313 37.597657 6.058594 6.324219 0 12.296875-.363281 17.605469-.851563 25.371093-1.050781 50.132812-8.085937 72.269531-20.53125 23.84375-14.328125 39.53125-39.070312 42.316406-66.746094.128906-1.453124.222656-2.902343.265625-4.363281v-.09375c.085938-4.6875-3.632812-8.570312-8.320312-8.6875-2.257813-.140625-4.472657.65625-6.125 2.195313-1.652344 1.542968-2.597657 3.695312-2.613282 5.957031-.199218.527344-2.167968 4.792969-15.589844 12.167969-11.648437 6.179687-25.601562 6.199218-37.265624.050781-3.996094-2.167969-6.597657-4.8125-6.957032-7.082031-.113281-1.621094.140625-3.246094.742188-4.753906 4.082031-9.441407 10.160156-17.882813 17.820312-24.746094 2.949219-3.117188 5.894532-6.203125 8.601563-9.386719 8.945312-10.277344 17.148437-21.179687 24.550781-32.625 18.570312-28.441406 27.402344-62.148437 25.15625-96.042969-7.929688-103.074218-123.605469-142.453125-153.34375-150.910156 2.921875-10.109375 2.621094-20.875-.855469-30.804688-1.132812-2.832031-3.695312-4.84375-6.714843-5.273437-26.496094-3.789063-44.179688 1.707031-55.902344 9.847656-12.3125-12.839843-28.988282-20.601562-46.738282-21.761719-17.921874-.324218-35.402343 5.550782-49.492187 16.632813l-128.851563-63.121094c-5.734374-2.9375-12.757812-1.101562-16.316406 4.265625-3.59375 5.203125-2.777344 12.265625 1.910156 16.511719zm92.222656 145.636719c24.773438-1.574219 48.476562-10.675781 67.941406-26.085938-.890625 5.050781-2.167968 10.027344-3.824218 14.882813-8.839844 24.179687-27.234376 43.660156-50.867188 53.871094.136719-15.253907-4.496094-30.171876-13.25-42.667969zm60.074219 225.136719c-9.40625 2.261718-18.972657 3.796874-28.613281 4.589843-1.144532.101563-2.191407.136719-3.3125.214844-10.613282-15.496094-45.226563-74.171875 2.050781-121.4375 3.234375-3.347656 3.1875-8.671875-.105469-11.964844-3.292969-3.289062-8.613281-3.335937-11.960938-.101562-48.417968 48.417969-24.6875 107.21875-9.746093 133.691406-13.019531-.285156-25.664063-4.445313-36.308594-11.945313-27.308594-20.949218-31.085937-61.929687-20.738281-89.847656 9.707031-25.046875 27.429687-46.175781 50.40625-60.085937 5.46875-3.457031 11.152344-6.554688 17.015625-9.28125 28.625-11.957031 50.914062-35.378907 61.441406-64.554688 17.253906-49.179687-1.800781-104.449219-10.699219-125.773437 4.007813-1.503906 7.914063-3.273438 11.6875-5.300782 33.121094 15.359376 59.515625 42.257813 74.242188 75.664063 10.089844 22.007813 14.550781 46.183594 12.96875 70.339844-3.359375 37.164062-29.34375 56.082031-59.425782 77.988281-16.132812 10.867188-29.988281 24.78125-40.789062 40.960938-10.703125 18.964843-13.726562 41.308593-8.445312 62.4375 1.582031 11.503906 6.871093 22.179687 15.066406 30.402343-4.820313 1.65625-9.8125 2.859375-14.734375 4.003907zm185.539062-241.492188c1.953125 30.230469-5.96875 60.277344-22.570312 85.613281-6.964844 10.773438-14.6875 21.039063-23.109375 30.71875-2.5 2.945313-5.222656 5.804688-7.960938 8.679688-9.480468 8.621093-16.882812 19.285156-21.648437 31.179687-1.488281 4.070313-1.964844 8.4375-1.390625 12.734375 1.882812 8.566407 7.683594 15.75 15.65625 19.402344 16.785156 8.839844 36.851562 8.800781 53.601562-.101563l.851563-.476562c-6.238281 12.695312-15.980469 23.335938-28.074219 30.667969-9.175781 5.566406-19.136719 9.714843-29.550781 12.304687-1.78125-.917968-3.828125-1.167968-5.777344-.707031-11.253906 2.597656-23.082031.101563-32.324219-6.828125-10.8125-10.128906-13.722656-30.925781-8.40625-60.132812.546875-3-.550781-6.0625-2.875-8.035157-2.324218-1.972656-5.527344-2.554687-8.398437-1.527343-2.871094 1.027343-4.972657 3.507812-5.519531 6.507812-6.492188 35.695312-1.9375 61.148438 13.535156 75.648438.597656.554687 1.226562.996093 1.832031 1.507812-15.527344 1.199219-31.0625-2.234375-44.636719-9.871094-7.074218-5.765625-11.523437-14.140625-12.339844-23.230468-4.402343-16.953126-2.203124-34.949219 6.152344-50.34375 9.671875-14.292969 22.011719-26.582032 36.34375-36.191407 30.636719-22.304687 62.292969-45.378906 66.390625-90.238281 1.914063-27.082031-3.035156-54.207031-14.398437-78.867188-15.246094-34.117187-41.316406-62.25-74.179688-80.042968 1.578125-1.609375 3.050782-3.320313 4.414063-5.121094 19.070312 5.25 137.042969 41.304688 144.382812 136.75zm-204.988281-144c.273438-1.367188 7.039062-32.164062 53.113281-28.015625 1.203125 6.695313.261719 13.597656-2.6875 19.726563-5.367187 10.71875-17.324219 18.773437-35.542969 24.007812-2.441406.695312-4.441406 2.445312-5.464843 4.769531-1.019531 2.324219-.953125 4.980469.183593 7.253907 11.726563 25.269531 18.457032 52.570312 19.8125 80.398437-18.085937 21.148437-44.105468 33.890625-71.902343 35.21875-33.789063 0-62.292969 7.550781-99.898438 45.167969-4.601562 5.953125-11.855469 9.246094-19.371093 8.789062-16.210938-2.628906-30.019532-30.292968-35.226563-40.707031l-1.789063-3.503906c-6.351562-12.253907-8.722656-16.847657 24.148438-36.566407 19.175781-12.449218 34.859375-29.582031 45.566406-49.785156 3.414063-5.460937 6.828125-10.65625 10.410156-15.726562 8.953126 7.066406 19.296876 12.160156 30.355469 14.949218.445313.160157.902344.289063 1.363281.386719v-.078125c.5625.132813 1.132813.222656 1.707032.265625 3.414062 0 6.5-2.035156 7.847656-5.171875 1.34375-3.140625.6875-6.777344-1.667969-9.25-.636719-1.925781-1.15625-3.882812-1.554687-5.871094-1.417969-5.402343-.929688-11.128906 1.382812-16.214843 8.40625-17.738281 30.386719-25.410157 67.722656-23.363281.785157 0 1.558594.070312 2.34375.136718 4.34375.398438 8.289063-2.542968 9.148438-6.816406zm-42.519531-39.167969c13.417969.941407 26.011719 6.8125 35.359375 16.484375-2.863282 3.726563-5.257813 7.789063-7.125 12.101563-18.941406-.90625-63.949219-1.238281-80.316406 33.277343-3.128907 6.691407-4.378907 14.109376-3.609376 21.453126-7.9375-3.15625-14.269531-9.382813-17.558593-17.269532-3.746094-12.867187 8.574219-28.671875 19.566406-39.664062 17.570313-17.570313 34.984375-26.453125 51.753906-26.453125.683594.027343 1.289063.042969 1.929688.070312zm-62.796875 11.59375c-.984375.941407-1.972656 1.777344-2.953125 2.757813-6.871094 6.675781-12.847657 14.214844-17.785157 22.425781l-76.433593-72.789063zm0 0"/><path d="m67.964844 247.453125c0-3.453125-2.078125-6.5625-5.269532-7.882813-3.1875-1.320312-6.855468-.589843-9.296874 1.847657-4.089844 3.679687-5.574219 9.449219-3.761719 14.644531 3.496093 8.449219 14.667969 8.449219 18.335937 8.449219 4.714844 0 8.535156-3.820313 8.535156-8.535157 0-4.710937-3.820312-8.53125-8.535156-8.53125zm0 0"/><path d="m202.433594 145.292969c-12.023438 2.117187-22.574219 9.253906-29.015625 19.625-4.175781 7.824219-5.097657 16.980469-2.558594 25.480469.496094 1.464843 1.378906 2.765624 2.558594 3.761718 3.832031 2.992188 8.578125 4.5625 13.433593 4.449219 4.535157-.0625 8.996094-1.1875 13.023438-3.277344 4.222656-2.136719 5.914062-7.289062 3.777344-11.511719-2.132813-4.222656-7.289063-5.917968-11.511719-3.78125-1.753906.886719-3.675781 1.40625-5.640625 1.527344-.171875-3.003906.5-5.996094 1.9375-8.636718 4.289062-6 10.832031-10.003907 18.125-11.09375 4.574219-1.140626 7.355469-5.777344 6.214844-10.347657-1.144532-4.574219-5.777344-7.355469-10.351563-6.214843zm0 0"/><path d="m298.808594 315.71875c1.546875 0 3.0625-.421875 4.386718-1.21875 1.980469-1.1875 48.222657-30.0625 20.769532-112.410156-1.488282-4.476563-6.324219-6.898438-10.804688-5.410156-4.476562 1.488281-6.898437 6.324218-5.410156 10.800781 22.855469 68.542969-11.765625 91.386719-13.414062 92.417969-3.269532 1.992187-4.8125 5.921874-3.769532 9.609374 1.039063 3.683594 4.410156 6.226563 8.242188 6.210938zm0 0"/></svg>