<svg height="511pt" viewBox="0 0 511 511.99869" width="511pt" xmlns="http://www.w3.org/2000/svg"><path d="m171.148438 59.730469h170.667968v274.261719h-170.667968zm0 0" fill="#bfa885"/><path d="m418.617188 264.53125c18.292968-.257812 33.128906-14.898438 33.632812-33.191406.503906-18.289063-13.503906-33.722656-31.757812-34.988282 5.726562-6.28125 7.945312-14.996093 5.925781-23.25-2.019531-8.253906-8.015625-14.957031-15.996094-17.882812 5.242187-4.796875 8.214844-11.582031 8.195313-18.6875 0-14.136719-11.464844-25.597656-25.601563-25.597656-1.113281 0-2.226563.085937-3.328125.253906 10.804688-9.3125 14.679688-24.363281 9.714844-37.734375-4.964844-13.375-17.722656-22.25-31.988282-22.253906-.371093-.015625-.742187.015625-1.109374.085937.722656-2.816406 1.09375-5.710937 1.109374-8.621094 0-18.851562-15.28125-34.132812-34.132812-34.132812-4.425781-.042969-8.8125.828125-12.882812 2.5625 12.941406 5.132812 21.433593 17.648438 21.417968 31.570312-.015625 2.910157-.390625 5.804688-1.109375 8.621094.363281-.070312.738281-.101562 1.109375-.085937 14.265625.003906 27.023438 8.878906 31.988282 22.253906 4.964843 13.371094 1.089843 28.421875-9.71875 37.734375 1.101562-.167969 2.214843-.253906 3.328124-.253906 14.140626 0 25.601563 11.460937 25.601563 25.597656.019531 7.105469-2.953125 13.890625-8.191406 18.6875 7.976562 2.925781 13.972656 9.628906 15.992187 17.882812 2.023438 8.253907-.199218 16.96875-5.921875 23.25 18.25 1.265626 32.257813 16.699219 31.757813 34.988282-.503906 18.292968-15.339844 32.933594-33.636719 33.191406 17.035156.023438 31.449219 12.605469 33.769531 29.480469 2.324219 16.878906-8.15625 32.886719-24.554687 37.507812l-303.871094 10.410157.257813.851562 329.214843-11.261719c16.398438-4.621093 26.875-20.628906 24.554688-37.507812-2.320313-16.875-16.734375-29.457031-33.769531-29.480469zm-136.277344-175.445312c-1.4375.875-2.953125 1.617187-4.523438 2.21875 1.671875.746093 3.414063 1.320312 5.203125 1.707031-.316406-1.289063-.542969-2.601563-.679687-3.925781zm0 0" fill="#607d8b"/><path d="m503.949219 396.882812v98.050782c0 4.710937-3.820313 8.53125-8.535157 8.53125h-477.863281c-4.714843 0-8.535156-3.820313-8.535156-8.53125v-98.050782c-.03125-2.195312.113281-4.394531.425781-6.570312-.011718-.230469.015625-.460938.085938-.683594 2.972656-24.714844 21.015625-44.972656 45.226562-50.773437l21.164063-5.117188 44.882812-10.839843 62.550781-15.1875h146.261719l37.289063 9.046874 50.519531 12.199219 10.410156 2.5625h.085938l30.292969 7.335938c26.828124 6.445312 45.738281 30.4375 45.738281 58.027343zm0 0" fill="#bfa885"/><path d="m171.148438 59.730469h145.066406v274.261719h-145.066406zm0 0" fill="#ffe0b2"/><path d="m212.535156 77.566406c.707032 2.035156 1.109375 4.164063 1.195313 6.316406 1.554687-.507812 3.042969-1.195312 4.4375-2.050781-2.085938-1.121093-3.988281-2.558593-5.632813-4.265625zm-40.960937 27.136719c-.230469 1.554687-.371094 3.121094-.425781 4.691406 1.496093-.449219 2.925781-1.078125 4.265624-1.875-1.347656-.84375-2.628906-1.785156-3.839843-2.816406zm0 0" fill="#cfd8dc"/><path d="m393.015625 264.53125c18.296875-.257812 33.132813-14.898438 33.636719-33.191406.5-18.289063-13.507813-33.722656-31.757813-34.988282 5.722657-6.28125 7.945313-14.996093 5.921875-23.25-2.019531-8.253906-8.015625-14.957031-15.992187-17.882812 5.238281-4.796875 8.210937-11.582031 8.191406-18.6875 0-14.136719-11.460937-25.597656-25.601563-25.597656-1.113281 0-2.226562.085937-3.328124.253906 10.808593-9.3125 14.683593-24.363281 9.71875-37.734375-4.964844-13.375-17.722657-22.25-31.988282-22.253906-.371094-.015625-.746094.015625-1.109375.085937.71875-2.816406 1.09375-5.710937 1.109375-8.621094.015625-13.921874-8.476562-26.4375-21.417968-31.570312-6.167969 2.464844-11.453126 6.710938-15.191407 12.199219-2.363281-5.074219-6.316406-9.238281-11.261719-11.859375-7.773437-4.070313-17.097656-3.847656-24.664062.597656-7.941406 4.519531-12.832031 12.964844-12.800781 22.101562 0-14.140624-11.460938-25.601562-25.597657-25.601562-4.484374-.058594-8.894531 1.152344-12.714843 3.5-4.597657 2.527344-8.25 6.480469-10.410157 11.261719-3.585937-5.207031-8.550781-9.3125-14.335937-11.859375-4.320313-1.933594-9.003906-2.921875-13.738281-2.902344-4.371094-.035156-8.699219.839844-12.714844 2.5625-12.941406 5.132812-21.433594 17.648438-21.417969 31.570312.015625 2.910157.386719 5.804688 1.109375 8.621094-.367187-.070312-.738281-.101562-1.109375-.085937-14.265625.003906-27.023437 8.878906-31.988281 22.253906-4.964844 13.371094-1.089844 28.421875 9.714844 37.734375-1.101563-.167969-2.214844-.253906-3.328125-.253906-14.140625 0-25.601563 11.460937-25.601563 25.597656-.019531 7.105469 2.953125 13.890625 8.191406 18.6875-7.976562 2.925781-13.972656 9.628906-15.992187 17.882812-2.019531 8.253907.199219 16.96875 5.925781 23.25-18.253906 1.265626-32.261718 16.699219-31.757812 34.988282.503906 18.292968 15.339844 32.933594 33.632812 33.191406-7-.003906-13.832031 2.175781-19.539062 6.230469l23.550781 71.167969 303.871094-10.410157c16.398437-4.621093 26.878906-20.628906 24.554687-37.507812-2.320312-16.875-16.734375-29.457031-33.769531-29.480469zm-51.199219-49.664062-85.335937 63.148437-12.796875-9.472656-72.535156-53.675781v-105.472657c.054687-1.570312.195312-3.136719.425781-4.691406 1.210937 1.03125 2.492187 1.972656 3.839843 2.816406 7.925782 4.574219 17.6875 4.570313 25.609376-.003906 7.921874-4.578125 12.796874-13.035156 12.792968-22.183594.015625-.484375-.011718-.972656-.085937-1.449219-.085938-2.152343-.488281-4.28125-1.195313-6.316406 1.644532 1.707032 3.546875 3.144532 5.632813 4.265625 3.832031 2.324219 8.234375 3.535157 12.714843 3.5 14.117188-.046875 25.550782-11.480469 25.597657-25.601562-.023438 13.902343 8.429687 26.410156 21.335937 31.574219 1.570313-.601563 3.085938-1.34375 4.523438-2.21875.136718 1.324218.363281 2.636718.679687 3.925781 2.488281.59375 5.039063.878906 7.597657.855469 6.101562.015624 12.089843-1.636719 17.320312-4.78125 1.875 17.292968 16.484375 30.394531 33.878906 30.378906zm0 0" fill="#cfd8dc"/><path d="m478.347656 396.882812v98.050782c0 4.710937-3.820312 8.53125-8.53125 8.53125h-452.265625c-4.714843 0-8.535156-3.820313-8.535156-8.53125v-98.050782c-.03125-2.195312.113281-4.394531.425781-6.570312-.011718-.230469.015625-.460938.085938-.683594 2.972656-24.714844 21.015625-44.972656 45.226562-50.773437l21.164063-5.117188 44.882812-10.839843 62.550781-15.1875h120.660157l37.292969 9.046874 50.515624 12.199219 10.410157 2.5625h.085937l30.292969 7.335938c26.828125 6.445312 45.742187 30.4375 45.738281 58.027343zm0 0" fill="#ffe0b2"/><path d="m171.40625 484.179688c139.007812-60.585938 190.121094-156.757813 195.496094-167.421876l.511718-1.027343s17.066407-34.132813 25.601563 0c0 0 34.132813-25.597657 25.601563 8.535156-.429688 1.535156-.769532 3.15625-1.195313 4.691406-9.835937 34.585938-15.171875 70.292969-15.871094 106.242188v68.265625h-230.402343zm0 0" fill="#f5f5f5"/><path d="m187.191406 503.464844 1.023438-.425782-16.808594-18.859374-58.625-66.046876 75.433594-18.859374-67.414063-76.375-45.992187-52.136719-28.074219-31.828125 15.1875 49.234375 11.519531 37.460937 2.476563 8.109375 8.53125 27.816407-74.921875 28.074218-.511719.171875.425781.511719 75.007813 84.394531-56.574219 28.332031.425781.425782" fill="#fec108"/><path d="m337.035156 264.191406c3.109375 5.277344 4.757813 11.285156 4.78125 17.40625 0 18.851563-15.28125 34.132813-34.132812 34.132813-.515625.015625-1.027344-.011719-1.539063-.082031 1.042969 2.75 1.5625 5.671874 1.539063 8.617187 0 14.136719-11.460938 25.601563-25.601563 25.601563-14.136719 0-25.601562-11.464844-25.601562-25.601563 0 14.136719-11.460938 25.601563-25.597657 25.601563-14.140624 0-25.601562-11.464844-25.601562-25.601563-.023438-2.945313.496094-5.867187 1.535156-8.617187-.507812.070312-1.019531.097656-1.535156.082031-18.851562 0-34.132812-15.28125-34.132812-34.132813.023437-6.121094 1.671874-12.128906 4.777343-17.40625-12.644531-1.828125-22.007812-12.703125-21.9375-25.480468.070313-12.777344 9.554688-23.546876 22.222657-25.234376 12.664062-1.683593 24.636718 6.226563 28.046874 18.542969 8.195313-9.335937 21.316407-12.613281 32.9375-8.226562 11.621094 4.386719 19.304688 15.519531 19.285157 27.9375-.015625-12.417969 7.667969-23.550781 19.289062-27.9375 11.621094-4.386719 24.742188-1.109375 32.9375 8.226562 3.410157-12.316406 15.382813-20.226562 28.046875-18.542969 12.667969 1.6875 22.152344 12.457032 22.222656 25.234376.070313 12.777343-9.292968 23.652343-21.941406 25.480468zm0 0" fill="#f5f5f5"/><path d="m460.214844 330.5625-10.769532-2.558594c8.457032-8.78125 12.726563-20.769531 11.726563-32.917968-1-12.148438-7.179687-23.277344-16.957031-30.554688 12.453125-9.332031 18.835937-24.699219 16.660156-40.105469-2.175781-15.410156-12.566406-28.410156-27.113281-33.929687 1.28125-3.628906 1.929687-7.449219 1.921875-11.296875-.027344-10.265625-4.664063-19.976563-12.628906-26.453125 4.632812-8.605469 5.359374-18.785156 1.988281-27.960938-3.371094-9.175781-10.515625-16.464844-19.621094-20.023437 6.078125-11.878907 6.25-25.914063.464844-37.9375-5.785157-12.019531-16.863281-20.644531-29.9375-23.304688 0-.28125 0-.574219 0-.855469-.003907-16.539062-9.566407-31.585937-24.539063-38.613281-14.972656-7.03125-32.65625-4.769531-45.382812 5.796875-6.671875-6.632812-15.796875-10.191406-25.195313-9.8203122-9.398437.3671872-18.21875 4.6289062-24.351562 11.7656252-6.128907-7.136719-14.949219-11.398438-24.347657-11.7656252-9.398437-.3710938-18.523437 3.1875002-25.195312 9.8203122-12.726562-10.566406-30.410156-12.828125-45.382812-5.796875-14.972657 7.027344-24.535157 22.074219-24.539063 38.613281v.855469c-13.066406 2.660157-24.136719 11.277344-29.921875 23.292969-5.785156 12.011719-5.625 26.039062.4375 37.914062-9.109375 3.558594-16.261719 10.855469-19.628906 20.039063-3.371094 9.183594-2.640625 19.371094 2.007812 27.980469-7.964844 6.476562-12.601562 16.1875-12.628906 26.453125 0 3.847656.65625 7.671875 1.945312 11.296875-16.582031 6.285156-27.546874 22.171875-27.542968 39.902344 0 .613281.085937 1.203124.109375 1.808593-2.65625-2.0625-6.289063-2.34375-9.234375-.714843-3.527344 1.96875-5.191406 6.144531-3.984375 10l26.503906 86.085937-12.320313 2.984375c-26.722656 6.523438-46.910156 28.460938-51.199218 55.628906-.28125.398438-.523438.820313-.726563 1.261719-.394531 1.394531-.425781 2.863281-.085937 4.269531-.171875 1.894532-.246094 3.703125-.246094 5.117188v98.09375c0 9.425781 7.640625 17.066406 17.066406 17.066406h477.847656c9.425782 0 17.066407-7.640625 17.066407-17.066406v-98.050782c.058593-31.546874-21.574219-59-52.265625-66.320312zm-267.785156 164.371094-6.910157-7.777344c133.121094-61.726562 183.578125-155.78125 189.011719-166.585938l.511719-1.007812c1.777343-3.550781 4.097656-6.800781 6.878906-9.632812 1.273437 2.492187 2.222656 5.140624 2.816406 7.875.695313 2.773437 2.730469 5.015624 5.425781 5.96875 2.691407.957031 5.683594.5 7.972657-1.214844 4.046875-3.070313 8.539062-5.507813 13.320312-7.226563-.109375 2.246094-.464843 4.476563-1.058593 6.644531l-1.253907 4.917969c-8.972656 32.199219-14.308593 65.304688-15.90625 98.695313-.097656.355468-.171875.714844-.222656 1.074218v68.269532zm-101.605469-25.898438-67.164063-75.589844 63.785156-23.894531c4.207032-1.597656 6.449219-6.195312 5.121094-10.496093l-22.777344-74.289063-3.199218-10.410156 105.941406 120.046875-61.824219 15.453125c-2.886719.734375-5.179687 2.921875-6.054687 5.773437-.871094 2.847656-.191406 5.945313 1.789062 8.167969l58.410156 65.707031c.109376.144532.230469.265625.351563.402344l4.425781 4.984375h-106.511718l25.15625-12.597656c2.375-1.1875 4.0625-3.410157 4.5625-6.019531.503906-2.605469-.238282-5.296876-2.003907-7.28125zm88.859375-350.78125c9.003906 2.488282 18.640625 1.117188 26.589844-3.789062 7.953124-4.90625 13.5-12.902344 15.316406-22.066406 11.984375 3.707031 25.035156.28125 33.65625-8.832032 10.257812 15.304688 29.214844 22.25 46.933594 17.195313 5.164062 13.539062 16.898437 23.496093 31.101562 26.382812v77.652344c-4.929688.015625-9.796875 1.097656-14.265625 3.175781-7.722656-12.015625-25.191406-28.773437-62.535156-28.773437-37.339844 0-54.808594 16.757812-62.53125 28.773437-4.46875-2.078125-9.335938-3.160156-14.265625-3.175781zm76.796875 109.363282c-11.839844-14.726563-32.660157-18.601563-49.003907-9.121094 4.980469-8.519532 17.84375-22.230469 49.003907-22.230469 31.164062 0 44.023437 13.710937 49.007812 22.230469-16.34375-9.480469-37.164062-5.605469-49.007812 9.121094zm-76.796875-5.75c7.609375-.042969 14.300781 5.019531 16.332031 12.355468.816406 3.039063 3.238281 5.386719 6.304687 6.101563 3.070313.710937 6.28125-.320313 8.355469-2.6875 5.851563-6.667969 15.222657-9.003907 23.519531-5.863281 8.296876 3.136718 13.777344 11.089843 13.753907 19.957031 0 4.714843 3.820312 8.535156 8.53125 8.535156 4.714843 0 8.535156-3.820313 8.535156-8.535156-.019531-8.867188 5.460937-16.816407 13.757813-19.953125 8.292968-3.132813 17.664062-.796875 23.515624 5.867187 2.074219 2.367188 5.285157 3.402344 8.351563 2.6875 3.070313-.714843 5.492187-3.058593 6.308594-6.101562 2.027343-7.335938 8.722656-12.40625 16.332031-12.363281 8.769531.207031 15.953125 7.027343 16.613281 15.773437.660157 8.746094-5.414062 16.570313-14.050781 18.09375-2.824219.386719-5.265625 2.160156-6.511719 4.722656-1.246093 2.558594-1.128906 5.574219.304688 8.035157 2.359375 3.96875 3.617187 8.492187 3.644531 13.105468-.054688 14.183594-11.585938 25.640625-25.769531 25.601563-3.019531-.488281-6.070313.675781-7.996094 3.054687s-2.429687 5.605469-1.324219 8.457032c.660156 1.777343.984375 3.660156.957032 5.554687 0 9.425781-7.640626 17.066406-17.066407 17.066406s-17.066406-7.640625-17.066406-17.066406c0-4.714844-3.820313-8.535156-8.535156-8.535156-4.710938 0-8.53125 3.820312-8.53125 8.535156 0 9.425781-7.640625 17.066406-17.066407 17.066406-9.425781 0-17.066406-7.640625-17.066406-17.066406-.023437-1.886719.300782-3.761719.953125-5.53125 1.070313-2.882813.527344-6.117187-1.425781-8.492187-1.957031-2.378907-5.023438-3.535157-8.0625-3.042969-14.136719 0-25.597656-11.460938-25.597656-25.601563.019531-4.613281 1.269531-9.136718 3.617187-13.105468 1.4375-2.460938 1.550781-5.476563.304688-8.035157-1.246094-2.5625-3.6875-4.335937-6.507813-4.722656-8.640625-1.527344-14.71875-9.355469-14.050781-18.105469s7.863281-15.566406 16.636719-15.761718zm1.902344 95.050781c4.578124 3.140625 9.730468 5.347656 15.164062 6.492187v.855469c.007812 14.191406 8.796875 26.894531 22.074219 31.910156 13.277343 5.011719 28.269531 1.285157 37.65625-9.355469 9.386719 10.640626 24.382812 14.367188 37.660156 9.355469 13.273437-5.015625 22.066406-17.71875 22.074219-31.910156 0-.289063 0-.570313 0-.855469 5.4375-1.144531 10.589844-3.351562 15.171875-6.492187l22.613281 5.488281c-16.125 27.039062-68.265625 100.855469-180.34375 151.398438l-45.175781-50.808594 61.78125-15.445313c2.890625-.722656 5.195312-2.902343 6.082031-5.746093.882812-2.847657.21875-5.945313-1.753906-8.179688l-58.027344-65.777344zm-88.671876-112.050781c3.292969-.171876 6.1875-2.222657 7.445313-5.265626 1.257813-3.046874.648437-6.542968-1.566406-8.984374-3.8125-4.175782-5.300781-9.976563-3.960938-15.472657 1.339844-5.492187 5.328125-9.960937 10.636719-11.910156 2.800781-1.023437 4.863281-3.433594 5.441406-6.359375s-.410156-5.941406-2.609375-7.953125c-3.480469-3.171875-5.453125-7.679687-5.417969-12.390625-.011718-4.882812 2.074219-9.53125 5.726563-12.769531 3.65625-3.238281 8.527344-4.746094 13.371094-4.144531 3.757812.5625 7.4375-1.429688 9.019531-4.886719 1.582031-3.453125.6875-7.539063-2.195312-10.019531-8.089844-6.984376-10.988282-18.257813-7.273438-28.277344 3.714844-10.019532 13.261719-16.679688 23.949219-16.703125 2.808593.390625 5.628906-.636719 7.523437-2.746094 1.894532-2.109375 2.621094-5.023437 1.933594-7.773437-.550781-2.140626-.835938-4.335938-.855469-6.546876.035157-11.175781 7.324219-21.039062 17.996094-24.359374 10.671875-3.320313 22.269531.667968 28.640625 9.855468 1.738281 2.535156 4.714844 3.941406 7.78125 3.671875s5.75-2.167969 7.023438-4.96875c3.453124-7.132812 11.359374-10.949219 19.09375-9.21875 7.730468 1.734375 13.253906 8.5625 13.332031 16.488281 0 4.710938 3.820312 8.53125 8.53125 8.53125 4.714843 0 8.535156-3.820312 8.535156-8.53125.078125-7.925781 5.597656-14.753906 13.332031-16.488281 7.734375-1.730469 15.640625 2.085938 19.09375 9.21875 1.28125 2.789063 3.964844 4.675781 7.023438 4.9375 3.066406.28125 6.039062-1.128906 7.765625-3.675781 6.371093-9.207031 17.980469-13.207031 28.667969-9.875s17.972656 13.222656 17.984374 24.414062c-.019531 2.210938-.304687 4.40625-.855468 6.546876-.6875 2.753906.039062 5.667968 1.933594 7.777343 1.898437 2.109375 4.722656 3.136719 7.53125 2.742188 10.679687.042969 20.210937 6.707031 23.914062 16.722656 3.707031 10.015625.800781 21.28125-7.28125 28.257813-2.882812 2.480468-3.777344 6.566406-2.195312 10.019531 1.585937 3.457031 5.261718 5.449219 9.019531 4.886719 4.855469-.625 9.738281.875 13.40625 4.117187 3.664062 3.242187 5.753906 7.90625 5.726562 12.796875.035157 4.710938-1.9375 9.21875-5.417969 12.390625-2.199218 2.011719-3.1875 5.027344-2.609374 7.953125.578124 2.925781 2.640624 5.335938 5.441406 6.359375 5.308594 1.949219 9.296875 6.417969 10.636718 11.910156 1.339844 5.496094-.148437 11.296875-3.964843 15.472657-2.210938 2.441406-2.820313 5.9375-1.5625 8.984374 1.257812 3.042969 4.152343 5.09375 7.445312 5.265626 13.671875.976562 24.144531 12.550781 23.761719 26.253906-.382812 13.699218-11.492188 24.667968-25.195312 24.878906-4.714844 0-8.535157 3.820312-8.535157 8.53125 0 4.714844 3.820313 8.535156 8.535157 8.535156 12.335937-.03125 22.933593 8.765625 25.175781 20.898438 2.242187 12.132812-4.511719 24.136718-16.046875 28.515625 2.632812-7.886719.28125-16.582031-5.972656-22.066407-7.960938-3.605468-17.234376-2.707031-24.355469 2.355469-2.304688-5.617187-7.347657-9.648437-13.335938-10.65625-9.695312-1.015625-17.332031 8.199219-21.511719 14.820313l-17.828124-4.324219c5.746093-10.074219 7.109374-22.0625 3.773437-33.171875 11.230469-5.566406 18.484375-16.867188 18.867187-29.398438.386719-12.527343-6.164062-24.25-17.035156-30.496093v-90.078125c0-4.710938-3.820312-8.53125-8.53125-8.53125-13.046875.058594-24.019531-9.769532-25.394531-22.742188 0-.050781 0-.085937-.042969-.136718-.121094-.601563-.304687-1.1875-.554687-1.75-.125-.496094-.296875-.980469-.511719-1.441407 0-.050781 0-.113281-.0625-.171875-.359375-.492187-.769531-.945312-1.226562-1.347656-.261719-.328125-.546876-.636719-.855469-.921875-.644531-.472656-1.355469-.847656-2.105469-1.117187-.257812-.140626-.523438-.265626-.792969-.375-.734375-.171876-1.484375-.25-2.238281-.230469-.328125-.054688-.664062-.089844-.996094-.101563h-.136718c-.570313.117188-1.125.289063-1.65625.519532-.539063.136718-1.0625.324218-1.5625.5625-.050782 0-.101563 0-.144532.050781-3.894531 2.363281-8.363281 3.609375-12.917968 3.601562-14.140626 0-25.601563-11.460937-25.601563-25.601562 0-4.710938-3.820313-8.53125-8.535156-8.53125-4.710938 0-8.53125 3.820312-8.53125 8.53125.003906 6.941406-4.191407 13.195312-10.617188 15.816406-6.425781 2.625-13.800781 1.09375-18.652343-3.867187-.304688-.242188-.625-.464844-.957032-.667969-.519531-.453125-1.089844-.84375-1.707031-1.160157-1.046875-.292968-2.109375-.539062-3.179687-.742187-.617188.019531-1.230469.105469-1.828126.257813-.453124.027343-.90625.089843-1.347656.195312l-.101562.058594c-.457032.226562-.894532.488281-1.308594.785156-.550781.277344-1.074219.613281-1.558594 1l-.085937.050781c-.253907.3125-.480469.644531-.683594.988281-.445313.503907-.832031 1.0625-1.144531 1.65625-.1875.515626-.324219 1.046876-.40625 1.585938-.167969.523438-.28125 1.054688-.34375 1.597656.019531.664063.113281 1.320313.28125 1.960938.03125.414062.089844.820312.179687 1.222656.535157 1.566406.804688 3.207031.792969 4.863281 0 9.425781-7.640625 17.066407-17.066406 17.066407-4.042969.042968-7.957032-1.410157-10.988282-4.085938-.171874-.15625-.386718-.199219-.566406-.335938-.464844-.328124-.957031-.613281-1.476562-.851562-.507813-.253906-1.039063-.457031-1.585938-.605469-.222656-.050781-.390625-.195312-.621094-.230469-.308593-.023437-.617187-.023437-.921874 0-1.101563-.089843-2.207032.0625-3.242188.445313-.535156.183594-1.050781.417969-1.539062.699219-.464844.285156-.902344.617187-1.304688.988281-.273438.179687-.535156.375-.785156.589844-.160156.179687-.203125.410156-.347656.597656-.335938.445313-.621094.921875-.855469 1.425781-.261719.515625-.472657 1.058594-.621094 1.621094-.050781.210938-.199219.382812-.242187.605469-.378907 2.539062-.546876 5.105469-.5 7.671875v98.609375c-10.875 6.238281-17.433594 17.953125-17.058594 30.484375s7.621094 23.835937 18.847656 29.410156c-3.335938 11.109375-1.972656 23.101562 3.773438 33.179688l-44.375 10.769531-34.984376-39.640625c1.8125-.429688 3.664063-.65625 5.527344-.679688 4.714844 0 8.535156-3.820312 8.535156-8.535156 0-4.710938-3.820312-8.53125-8.535156-8.53125-13.703125-.210938-24.8125-11.179688-25.195312-24.878906-.382813-13.703125 10.089844-25.277344 23.761718-26.253906zm-36.113281 142.285156 13.304688-3.261719 3.832031 12.460937-51.773438 19.421876c6.53125-14.359376 19.304688-24.914063 34.636719-28.621094zm-39.25 65.132812 53.125 59.777344-45.667969 22.871094h-7.457031zm477.863281 82.648438h-85.332031v-59.734375c.457031-32.417969 5.023438-64.648438 13.59375-95.914063l2.117188.519532c.183593.046874.371093.082031.5625.109374l29.867187 7.238282c23.011719 5.488281 39.234375 26.074218 39.191406 49.730468zm0 0"/><path d="m222.347656 162.132812c4.714844 0 8.535156-3.820312 8.535156-8.535156v-17.066406c0-4.710938-3.820312-8.53125-8.535156-8.53125-4.710937 0-8.53125 3.820312-8.53125 8.53125v17.066406c0 4.714844 3.820313 8.535156 8.53125 8.535156zm0 0"/><path d="m290.617188 162.132812c4.710937 0 8.53125-3.820312 8.53125-8.535156v-17.066406c0-4.710938-3.820313-8.53125-8.53125-8.53125-4.714844 0-8.535157 3.820312-8.535157 8.53125v17.066406c0 4.714844 3.820313 8.535156 8.535157 8.535156zm0 0"/><path d="m378.945312 358.9375c-2.121093-.796875-4.472656-.71875-6.53125.222656-2.0625.9375-3.667968 2.65625-4.460937 4.777344-16.308594 40.378906-44.84375 74.640625-81.605469 97.988281-3.363281 1.921875-5.007812 5.871094-4.003906 9.613281 1 3.742188 4.398438 6.339844 8.273438 6.328126 1.496093.007812 2.96875-.378907 4.265624-1.128907 40.347657-25.160156 71.5625-62.597656 89.0625-106.8125.796876-2.117187.714844-4.46875-.222656-6.53125s-2.65625-3.664062-4.777344-4.457031zm0 0"/></svg>