<svg height="512pt" viewBox="0 0 512 512.03444" width="512pt" xmlns="http://www.w3.org/2000/svg"><path d="m426.683594 358.433594c0 56.578125-61.097656 102.402344-136.53125 102.402344-4.097656 0-8.195313-.171876-12.289063-.511719-38.757812-2.339844-75.324219-18.757813-102.828125-46.167969-5.121094-5.035156-10.152344-10.238281-15.617187-14.675781-19.746094-16.242188-41.992188-29.183594-65.875-38.316407-4.097657-1.535156-8.191407-2.898437-12.375-4.179687-16.976563-5.136719-34.574219-7.921875-52.308594-8.277344-.765625 0-10.070313 0-15.871094.425781h-.257812c-2.472657.171876-4.179688.425782-4.179688.769532v-1.023438c.253907-4.695312 1.878907-24.238281 15.359375-30.890625 3.203125-1.5 6.703125-2.257812 10.242188-2.21875 11.644531 1.097657 23.125 3.53125 34.21875 7.25 9.507812 2.390625 19.175781 4.101563 28.925781 5.121094 10.105469 1.152344 20.316406.980469 30.378906-.511719 17.449219-2.578125 33.699219-10.40625 46.59375-22.441406 4.777344-4.695312 9.554688-9.386719 14.503907-13.738281 2.816406-2.5625 5.71875-5.035157 8.707031-7.339844 12.902343 7.488281 27.671875 11.15625 42.578125 10.582031h.257812c11.347656.339844 23.722656 0 36.777344-.171875 4.265625 0 8.621094-.085937 13.058594-.085937 7.59375 0 15.015625.085937 22.183594.171875 18.398437 1.199219 36.871093-.007813 54.957031-3.585938 5.808593-1.425781 11.304687-3.914062 16.210937-7.335937 26.539063 18.6875 43.179688 45.226562 43.179688 74.75zm0 0" fill="#ff9801"/><path d="m401.082031 358.433594c0 53.25-54.015625 96.941406-123.21875 101.890625-38.757812-2.339844-75.324219-18.757813-102.828125-46.167969-5.121094-5.035156-10.152344-10.238281-15.617187-14.675781-19.746094-16.242188-41.992188-29.183594-65.875-38.316407-4.097657-1.535156-8.191407-2.898437-12.375-4.179687-16.976563-5.136719-34.574219-7.921875-52.308594-8.277344-.765625 0-10.070313 0-15.871094.425781h-.257812c-1.363281-.171874-2.816407-.171874-4.179688-.253906.253907-4.695312 1.878907-24.238281 15.359375-30.890625 6.402344 1.535157 12.714844 3.582031 18.859375 5.03125 17.734375 4.886719 36.191407 6.621094 54.527344 5.121094 10.105469 1.152344 20.316406.980469 30.378906-.511719 17.449219-2.578125 33.699219-10.40625 46.59375-22.441406 4.777344-4.695312 9.554688-9.386719 14.503907-13.738281 16.894531 3.210937 34.121093 4.300781 51.285156 3.242187h.257812c7.765625-.085937 15.871094-.257812 24.234375-.257812 4.265625 0 8.449219 0 12.542969.085937 12.542969.171875 24.40625.425781 35.242188.085938 18.6875-.511719 34.5625-2.902344 45.570312-10.921875 3.253906 2.28125 6.386719 4.730468 9.386719 7.335937 20.675781 16.371094 33.046875 41.054688 33.789062 67.414063zm0 0" fill="#fec108"/><path d="m503.484375 341.367188c0 42.417968-34.386719 76.800781-76.800781 76.800781-4.234375.023437-8.460938-.347657-12.628906-1.109375-3.355469-.503906-6.664063-1.277344-9.898438-2.304688l18.347656-30.976562c1.386719.175781 2.78125.257812 4.179688.257812 23.5625 0 42.667968-19.101562 42.667968-42.667968 0-23.5625-19.105468-42.667969-42.667968-42.667969-4.335938.015625-8.644532.648437-12.800782 1.878906-2.738281.9375-5.394531 2.109375-7.933593 3.5l-6.144531-5.378906-20.394532-17.746094c10.019532-7.96875 21.921875-13.226563 34.558594-15.277344 4.195312-.761719 8.453125-1.132812 12.714844-1.109375 42.414062 0 76.800781 34.386719 76.800781 76.800782zm0 0" fill="#d84315"/><g fill="#ff5722"><path d="m349.203125 503.5h-106.753906c-3.453125-.011719-6.554688-2.105469-7.863281-5.300781-1.304688-3.191407-.558594-6.859375 1.890624-9.289063l28.074219-36.609375h68.265625l23.039063 37.375c2.027343 2.5625 2.410156 6.054688.996093 8.992188-1.417968 2.941406-4.386718 4.816406-7.648437 4.832031zm0 0"/><path d="m383.503906 283.683594c-19.625 14.164062-54.101562 23.550781-93.351562 23.550781-4.269532 0-8.535156-.085937-12.714844-.339844-33.453125-1.792969-62.464844-10.410156-79.957031-22.785156 8.113281-6.425781 17.074219-11.707031 26.621093-15.703125 16.984376-6.824219 34.972657-10.832031 53.25-11.859375 4.265626-.339844 8.53125-.511719 12.800782-.511719 33.203125-.496094 65.773437 9.148438 93.351562 27.648438zm0 0"/><path d="m477.882812 341.367188c0 37.410156-26.957031 69.375-63.828124 75.691406-3.355469-.503906-6.664063-1.277344-9.898438-2.304688l18.347656-30.976562c1.386719.175781 2.78125.257812 4.179688.257812 23.5625 0 42.667968-19.101562 42.667968-42.667968 0-23.5625-19.105468-42.667969-42.667968-42.667969-4.335938.015625-8.644532.648437-12.800782 1.878906-4.15625-1.230469-8.464843-1.863281-12.800781-1.878906h-1.277343l-20.394532-17.746094c10.019532-7.96875 21.921875-13.226563 34.558594-15.277344 36.894531 6.300781 63.882812 38.265625 63.914062 75.691407zm0 0"/></g><path d="m323.601562 503.5h-81.152343c-3.453125-.011719-6.554688-2.105469-7.863281-5.300781-1.304688-3.191407-.558594-6.859375 1.890624-9.289063l28.074219-36.609375h42.667969l23.039062 37.375c2.023438 2.5625 2.410157 6.054688.992188 8.992188-1.414062 2.941406-4.386719 4.816406-7.648438 4.832031zm0 0" fill="#f57c00"/><path d="m357.90625 283.683594c-17.496094 12.628906-46.679688 21.417968-80.46875 23.210937-33.453125-1.792969-62.464844-10.410156-79.957031-22.785156 8.113281-6.425781 17.074219-11.707031 26.621093-15.703125 16.984376-6.824219 34.972657-10.832031 53.25-11.859375 28.816407 1.554687 56.667969 10.9375 80.554688 27.136719zm0 0" fill="#f57c00"/><path d="m315.75 230.433594c0 14.140625-11.460938 25.601562-25.597656 25.601562-14.140625 0-25.601563-11.460937-25.601563-25.601562 0-14.136719 11.460938-25.597656 25.601563-25.597656 14.136718 0 25.597656 11.460937 25.597656 25.597656zm0 0" fill="#f0c419"/><path d="m493.757812 53.195312c-50.179687 90.371094-127.574218 119.46875-226.988281 116.910157-43.792969-1.816407-87.355469-7.324219-130.21875-16.472657-8.511719-1.792968-17.289062-1.9375-25.855469-.425781h-.085937c-54.613281 9.898438-77.484375 89.6875-86.953125 129.367188-.4375 2.164062-2.457031 3.640625-4.65625 3.394531-2.195312-.242188-3.84375-2.125-3.792969-4.335938-.085937-14.503906.425781-34.132812 2.132813-55.210937 4.609375-54.867187 17.578125-119.976563 50.945312-132.519531 9.734375-3.535156 19.945313-5.578125 30.292969-6.058594 17.226563-.421875 34.464844.148438 51.625 1.707031h.171875c39.59375 2.046875 73.8125-2.050781 86.441406-67.839843 1.449219-7.691407 7.898438-13.4375 15.703125-13.996094l30.292969-1.792969c5.546875-.339844 11.09375-.597656 16.640625-.765625 1.363281-.085938 2.816406-.085938 4.179687-.085938h1.707032c3.15625-.171874 6.398437-.257812 9.558594-.171874 34.371093-.261719 68.703124 2.566406 102.570312 8.449218 5.632812 1.023438 11.261719 2.046875 16.808594 3.15625 12.460937 2.558594 24.746094 5.546875 37.035156 8.875l11.863281 3.242188c5.03125 1.355468 9.171875 4.941406 11.230469 9.730468 2.0625 4.789063 1.824219 10.257813-.648438 14.84375zm0 0" fill="#4527a0"/><path d="m470.035156 53.195312c-46.082031 83.03125-115.203125 114.347657-203.265625 116.910157-51.765625.261719-103.402343-5.261719-153.941406-16.472657-.683594-.167968-1.449219-.253906-2.132813-.425781h-.085937c-47.957031-8.191406-76.457031 32.171875-93.269531 73.214844 4.609375-54.867187 17.578125-119.976563 50.945312-132.519531 9.734375-3.535156 19.945313-5.578125 30.292969-6.058594 17.160156 1.558594 34.398437 2.128906 51.625 1.707031h.171875c39.59375 2.046875 73.8125-2.050781 86.441406-67.839843 1.449219-7.691407 7.898438-13.4375 15.703125-13.996094l30.292969-1.792969c5.546875-.339844 11.09375-.597656 16.640625-.765625 1.363281-.085938 2.816406-.085938 4.179687-.085938h1.707032c29.640625.449219 59.199218 3.21875 88.40625 8.277344 5.632812 1.023438 11.261718 2.046875 16.808594 3.15625 12.460937 2.558594 24.746093 5.546875 37.035156 8.875l11.863281 3.242188c5.03125 1.355468 9.171875 4.941406 11.230469 9.730468 2.0625 4.789063 1.824218 10.257813-.648438 14.84375zm0 0" fill="#673ab7"/><path d="m426.683594 256.035156c-17.078125.007813-33.757813 5.164063-47.863282 14.796875-18.621093-10.886719-39.164062-18.082031-60.507812-21.1875 9.734375-14.214843 7.351562-33.457031-5.558594-44.867187s-32.296875-11.410156-45.207031 0-15.292969 30.652344-5.554687 44.867187c-14.089844 1.894531-27.890626 5.523438-41.089844 10.800781-9.953125 4.160157-19.292969 9.652344-27.765625 16.324219-.164063.101563-.300781.230469-.460938.34375-8.5625 6.839844-16.707031 14.1875-24.390625 21.996094-.546875.539063-1.160156 1.035156-1.707031 1.554687-.445313.324219-.855469.6875-1.226563 1.09375-11.171874 9.226563-24.632812 15.257813-38.957031 17.457032-18.785156 2.089844-37.796875.550781-56.003906-4.539063-2.96875-.707031-5.972656-1.570312-9.054687-2.441406-8.785157-2.917969-17.933594-4.597656-27.183594-5-27 0-34.136719 27.914063-34.136719 42.667969v.136718c.0507812 2.8125 1.488281 5.421876 3.839844 6.972657 2.351562 1.550781 5.3125 1.839843 7.921875.773437 3.464844-.390625 13.960937-.65625 16.988281-.5625 16.933594.316406 33.742187 2.992188 49.9375 7.945313 3.980469 1.210937 7.945313 2.546875 11.886719 4 23.019531 8.757812 44.449218 21.222656 63.4375 36.90625 4.636718 3.921875 9.070312 8.078125 13.285156 12.453125l1.707031 1.707031c22.042969 21.835937 49.71875 37.125 79.941407 44.160156l-18.542969 18.507813c-4.878907 4.878906-6.339844 12.21875-3.699219 18.597656 2.640625 6.375 8.863281 10.53125 15.765625 10.535156h106.664063c6.5625 0 12.539062-3.761718 15.382812-9.671875 2.84375-5.914062 2.042969-12.929687-2.050781-18.054687l-18.390625-22.988282c23.695312-6.929687 45.265625-19.714843 62.71875-37.179687 6.5 1.640625 13.171875 2.5 19.875 2.558594 47.128906 0 85.332031-38.203125 85.332031-85.332031 0-47.128907-38.203125-85.332032-85.332031-85.332032zm-153.601563-25.601562c0-9.425782 7.644531-17.066406 17.070313-17.066406 9.425781 0 17.066406 7.640624 17.066406 17.066406 0 9.425781-7.640625 17.066406-17.066406 17.066406-9.425782 0-17.070313-7.640625-17.070313-17.066406zm-45.710937 45.832031c19.980468-7.894531 41.296875-11.867187 62.78125-11.699219 26.753906-.234375 53.140625 6.265625 76.722656 18.910156-24.175781 10.554688-50.351562 15.75-76.722656 15.222657-26.386719.621093-52.585938-4.574219-76.734375-15.222657 4.4375-2.796874 9.105469-5.207031 13.953125-7.210937zm-211.199219 77.492187c.589844-1.183593.902344-2.488281.910156-3.8125.003907 1.324219-.3125 2.632813-.910156 3.8125zm163.214844 52.71875c-4.625-4.796874-9.496094-9.355468-14.589844-13.652343-20.4375-16.863281-43.5-30.261719-68.269531-39.671875-4.265625-1.578125-8.53125-3.039063-12.925782-4.34375-17.703124-5.394532-36.066406-8.300782-54.570312-8.636719-4.265625-.050781-7.75 0-10.660156.070313 1.699218-7.261719 5.847656-15.941407 15.78125-15.941407 7.664062.464844 15.230468 1.941407 22.507812 4.386719 3.285156.929688 6.546875 1.851562 9.746094 2.621094 20.363281 5.636718 41.632812 7.265625 62.617188 4.785156 19.222656-2.839844 37.109374-11.5 51.261718-24.816406 5.886719-5.816406 11.800782-11.46875 17.976563-16.664063 28.3125 14.804688 59.953125 22.089844 91.890625 21.15625 36.691406 0 70.679687-8.089843 92.890625-21.71875 21.136719 14.785157 34.125 38.609375 35.109375 64.382813 0 51.753906-57.421875 93.867187-128 93.867187-40.800782.394531-80.074219-15.5-109.109375-44.167969zm239.882812-98.390624c12.144531-3.128907 25.027344.65625 33.554688 9.855468 8.523437 9.203125 11.316406 22.335938 7.269531 34.207032-4.042969 11.875-14.273438 20.570312-26.644531 22.652343 1.117187-5.386719 1.710937-10.867187 1.769531-16.367187-.164062-18-5.71875-35.535156-15.949219-50.347656zm-93.117187 158.082031 23.039062 28.800781h-106.664062l26.921875-26.921875c6.867187.839844 13.78125 1.28125 20.703125 1.320313 12.03125-.03125 24.035156-1.222657 35.839844-3.558594.058593.144531.066406.25.160156.359375zm100.53125-56.535157c-2.542969-.046874-5.082032-.238281-7.601563-.570312 3.546875-5.21875 6.585938-10.769531 9.070313-16.570312 20.472656-.519532 38.667968-13.1875 46.257812-32.210938s3.113282-40.742188-11.382812-55.210938-36.21875-18.90625-55.226563-11.285156c-4.203125-4.484375-8.730469-8.648437-13.542969-12.464844 9.9375-5.441406 21.097657-8.265624 32.425782-8.21875 37.703125 0 68.265625 30.5625 68.265625 68.265626 0 37.703124-30.5625 68.265624-68.265625 68.265624zm0 0"/><path d="m240.078125.109375c-4.671875-.617187-8.960937 2.664063-9.585937 7.332031-10.441407 78.335938-44.816407 76.015625-92.371094 72.78125-23.996094-1.613281-48.835938-3.304687-72.839844 5.683594-55.09375 20.667969-58.796875 155.066406-58.625 195.769531-.042969 6.484375 4.832031 11.945313 11.28125 12.640625.511719.058594 1.027344.089844 1.542969.09375 5.945312.027344 11.113281-4.078125 12.433593-9.875 21.734376-90.625 56.457032-131.832031 102.929688-122.539062 150.902344 30.191406 300.917969 36.027344 376.320312-124.191406 1.296876-2.761719 1.027344-6.003907-.714843-8.507813-1.738281-2.503906-4.683594-3.890625-7.722657-3.632813-3.039062.253907-5.710937 2.109376-7.007812 4.867188-66.433594 141.277344-190.960938 148.039062-357.460938 114.742188-50.65625-10.148438-88.832031 24.242187-113.785156 102.226562 3.414063-69.296875 18.160156-134.886719 46.816406-145.621094 20.480469-7.679687 43.476563-6.152344 65.707032-4.640625 48.144531 3.269531 97.882812 6.621094 110.4375-87.5625.609375-4.671875-2.683594-8.953125-7.355469-9.566406zm0 0"/><path d="m260.734375 86.265625c-4.214844 2.105469-5.929687 7.230469-3.820313 11.449219 2.105469 4.21875 7.234376 5.929687 11.449219 3.824218 56.058594-28.03125 47.386719-93.515624 47.300781-94.183593-.714843-4.613281-5.007812-7.796875-9.628906-7.140625-4.625.65625-7.863281 4.90625-7.265625 9.539062.296875 2.226563 6.886719 54.050782-38.035156 76.511719zm0 0"/><path d="m315.894531 129.5625c.863281 4.617188 5.296875 7.667969 9.917969 6.824219 99.164062-17.988281 109.285156-126.027344 109.40625-127.109375.390625-4.714844-3.109375-8.855469-7.824219-9.246094-4.710937-.394531-8.851562 3.105469-9.242187 7.820312-.34375 3.917969-9.269532 96.117188-95.429688 111.785157-4.621094.863281-7.671875 5.300781-6.828125 9.925781zm0 0"/><path d="m375.484375 25.632812c0 4.714844-3.820313 8.535157-8.535156 8.535157-4.710938 0-8.53125-3.820313-8.53125-8.535157 0-4.710937 3.820312-8.53125 8.53125-8.53125 4.714843 0 8.535156 3.820313 8.535156 8.53125zm0 0"/><path d="m247.484375 136.566406c0 4.714844-3.820313 8.535156-8.535156 8.535156-4.710938 0-8.53125-3.820312-8.53125-8.535156 0-4.710937 3.820312-8.53125 8.53125-8.53125 4.714843 0 8.535156 3.820313 8.535156 8.53125zm0 0"/><path d="m102.417969 119.5c0 4.714844-3.820313 8.535156-8.535157 8.535156-4.710937 0-8.53125-3.820312-8.53125-8.535156 0-4.710938 3.820313-8.53125 8.53125-8.53125 4.714844 0 8.535157 3.820312 8.535157 8.53125zm0 0"/><path d="m273.082031 42.699219c0 4.714843-3.820312 8.535156-8.53125 8.535156-4.714843 0-8.535156-3.820313-8.535156-8.535156 0-4.710938 3.820313-8.53125 8.535156-8.53125 4.710938 0 8.53125 3.820312 8.53125 8.53125zm0 0"/><path d="m187.75 128.035156c0 4.710938-3.820312 8.53125-8.53125 8.53125-4.714844 0-8.535156-3.820312-8.535156-8.53125 0-4.714844 3.820312-8.535156 8.535156-8.535156 4.710938 0 8.53125 3.820312 8.53125 8.535156zm0 0"/><path d="m341.351562 418.167969c0 4.710937-3.820312 8.53125-8.535156 8.53125-4.710937 0-8.53125-3.820313-8.53125-8.53125 0-4.714844 3.820313-8.535157 8.53125-8.535157 4.714844 0 8.535156 3.820313 8.535156 8.535157zm0 0"/><path d="m332.816406 85.367188c0 4.714843-3.820312 8.535156-8.53125 8.535156-4.714844 0-8.535156-3.820313-8.535156-8.535156 0-4.710938 3.820312-8.53125 8.535156-8.53125 4.710938 0 8.53125 3.820312 8.53125 8.53125zm0 0"/><path d="m477.882812 34.167969c0 4.710937-3.820312 8.53125-8.53125 8.53125-4.714843 0-8.535156-3.820313-8.535156-8.53125 0-4.714844 3.820313-8.535157 8.535156-8.535157 4.710938 0 8.53125 3.820313 8.53125 8.535157zm0 0"/><path d="m307.132812 425.488281c-.320312-2.238281-1.519531-4.261719-3.332031-5.617187-1.8125-1.359375-4.089843-1.941406-6.328125-1.617188-54.699218 7.78125-103.210937-39.773437-103.699218-40.261718-3.347657-3.230469-8.671876-3.179688-11.960938.113281s-3.332031 8.617187-.09375 11.960937c2.03125 2.039063 46.828125 46.140625 103.253906 46.140625 4.996094.003907 9.992188-.351562 14.941406-1.058593 4.65625-.675782 7.886719-5 7.21875-9.660157zm0 0"/></svg>