<svg height="512pt" viewBox="0 0 512.00023 512" width="512pt" xmlns="http://www.w3.org/2000/svg"><path d="m452.265625 145.066406s-25.597656 119.46875-110.933594 153.601563h-170.664062c-68.097657-27.222657-98.21875-108.886719-107.605469-140.714844-2.304688-8.023437-3.328125-12.886719-3.328125-12.886719 29.710937 14.808594 61.285156 25.542969 93.867187 31.914063h204.796876c22.101562-4.671875 43.8125-11.035157 64.941406-19.027344 9.898437-3.695313 19.558594-7.996094 28.925781-12.886719zm0 0" fill="#c52828"/><path d="m426.667969 145.066406s-1.023438 4.863282-3.328125 12.886719c-9.386719 31.828125-39.511719 113.492187-107.605469 140.714844h-145.066406c-68.097657-27.222657-98.21875-108.886719-107.605469-140.714844 21.125 7.992187 42.835938 14.355469 64.9375 19.027344h204.800781c32.582031-6.371094 64.152344-17.105469 93.867188-31.914063zm0 0" fill="#f44335"/><path d="m360.449219 314.878906-95.574219 39.851563-5.460938 2.21875c-2.152343.957031-4.613281.925781-6.742187-.085938l-5.375-2.386719-3.585937-1.625-87.636719-39.847656c14.1875-7.355468 23.105469-21.992187 23.125-37.972656v-57.515625h153.601562v57.257813c-.023437 17.820312 10.984375 33.789062 27.648438 40.105468zm0 0" fill="#37474f"/><path d="m334.847656 314.878906-91.136718 37.972656-87.636719-39.847656c14.1875-7.355468 23.105469-21.992187 23.125-37.972656v-57.515625h128v57.257813c-.023438 17.820312 10.988281 33.789062 27.648437 40.105468zm0 0" fill="#9e9e9e"/><path d="m503.464844 396.886719v98.046875c0 4.710937-3.820313 8.53125-8.53125 8.53125h-477.867188c-4.710937 0-8.53125-3.820313-8.53125-8.53125v-98.046875c-.003906-27.589844 18.910156-51.585938 45.738282-58.027344l37.800781-9.214844 19.457031-4.695312c21.746094 15.339843 45.164062 28.164062 69.800781 38.230469 7.9375 3.414062 15.363281 8.363281 22.445313 11.691406 7.492187 4.789062 17.027344 5.019531 24.746094.59375 5.824218-3.789063 10.816406-8.726563 14.675781-14.503906 1.503906-2.074219 2.871093-4.238282 4.097656-6.484376l8.703125 3.921876 8.875-3.667969c4.226562 7.933593 10.246094 14.769531 17.578125 19.96875.339844.253906.769531.511719 1.109375.765625 15.359375 9.730468 41.046875-10.410156 58.28125-17.832032 18.449219-7.554687 36.113281-16.902343 52.738281-27.90625 2.148438-1.347656 4.125-2.953124 5.886719-4.777343l16.46875 4.011719 40.789062 9.898437c26.828126 6.441406 45.742188 30.4375 45.738282 58.027344zm0 0" fill="#37474f"/><path d="m477.867188 396.886719v98.046875c0 4.710937-3.820313 8.53125-8.535157 8.53125h-452.265625c-4.710937 0-8.53125-3.820313-8.53125-8.53125v-98.046875c-.003906-27.589844 18.910156-51.585938 45.738282-58.027344l37.800781-9.214844c20.292969 12.855469 41.578125 24.070313 63.660156 33.535157 17.238281 7.421874 31.828125 22.015624 47.1875 12.285156.304687-.167969.589844-.367188.855469-.59375 7.507812-5.28125 13.648437-12.269532 17.917968-20.394532l8.703126 3.921876 8.875-3.667969c1.203124 2.144531 2.511718 4.222656 3.925781 6.230469 3.914062 5.765624 8.929687 10.695312 14.761719 14.503906 7.820312 3.667968 16.917968 3.382812 24.492187-.765625 11.691406-4.609375 24.0625-12.886719 33.792969-17.066407 21.011718-8.019531 40.753906-19.027343 58.625-32.683593l16.46875 4.011719 3.242187.765624 37.546875 9.132813c26.828125 6.441406 45.738282 30.4375 45.738282 58.027344zm0 0" fill="#607d8b"/><path d="m358.398438 361.984375s-25.597657 122.625-102.398438 141.480469c-76.800781-18.855469-102.398438-141.480469-102.398438-141.480469h88.914063c-6.359375 9.425781-16.003906 16.148437-27.050781 18.859375-3.386719.75-6.851563 1.125-10.324219 1.109375 2.5625 8.019531 19.542969 57 50.859375 74.324219 22.605469-20.375 40.011719-45.859375 50.773438-74.324219-3.472657.019531-6.9375-.351563-10.324219-1.109375-11.023438-2.714844-20.636719-9.4375-26.964844-18.859375zm0 0" fill="#4527a0"/><path d="m306.773438 381.953125c-10.761719 28.464844-28.167969 53.949219-50.773438 74.324219-31.316406-17.324219-48.296875-66.304688-50.859375-74.324219 3.472656.015625 6.9375-.359375 10.324219-1.109375 9.816406-2.21875 4.867187-9.472656 12.800781-20.308594 1.621094-2.21875 17.496094-3.328125 19.03125-6.058594l8.703125-4.105468 8.875 4.359375c1.449219 2.644531 15.1875 3.585937 16.726562 5.804687 7.933594 10.835938 5.035157 18.089844 14.847657 20.308594 3.386719.757812 6.851562 1.128906 10.324219 1.109375zm0 0" fill="#f4f4f4"/><path d="m215.464844 380.84375c-3.386719.75-6.851563 1.125-10.324219 1.109375-.140625-.363281-.253906-.734375-.339844-1.109375zm0 0" fill="#fff"/><path d="m307.199219 380.84375c-.167969.339844-.253907.765625-.425781 1.109375-3.472657.019531-6.9375-.351563-10.324219-1.109375zm0 0" fill="#fff"/><path d="m358.398438 128v61.441406c.03125 35.5625-20.0625 68.082032-51.882813 83.964844l-27.644531 13.824219c-11.046875 5.523437-23.730469 6.828125-35.671875 3.671875-3.496094-.800782-6.878907-2.035156-10.070313-3.671875l-27.644531-13.824219c-31.820313-15.882812-51.914063-48.402344-51.882813-83.964844v-61.441406s34.386719-74.582031 66.558594-93.523438c4.347656 3.800782 7.835938 8.484376 10.238282 13.738282 2.691406-6.277344 7.136718-11.640625 12.800781-15.445313 5.667969 3.804688 10.109375 9.167969 12.800781 15.445313 2.402344-5.253906 5.894531-9.9375 10.238281-13.738282 35.925781-28.503906 92.160157 93.523438 92.160157 93.523438zm0 0" fill="#607d8b"/><path d="m358.398438 68.265625v59.734375c-7.628907-13.871094-16.179688-27.210938-25.597657-39.9375-18.519531-24.660156-43.691406-49.320312-63.574219-36.179688-5.773437 4.203126-10.335937 9.855469-13.226562 16.382813-2.820312-6.378906-7.226562-11.929687-12.800781-16.125-7.890625-5.125-18.035157-5.222656-26.027344-.257813-31.230469 15.617188-63.570313 76.117188-63.570313 76.117188v-59.734375c0-32.988281 26.742188-59.730469 59.730469-59.730469h85.335938c32.988281 0 59.730469 26.742188 59.730469 59.730469zm0 0"/><path d="m332.800781 128v61.441406c.027344 35.5625-20.066406 68.082032-51.882812 83.964844l-27.648438 13.824219c-3.191406 1.636719-6.574219 2.871093-10.070312 3.671875-3.496094-.800782-6.878907-2.035156-10.070313-3.671875l-27.644531-13.824219c-31.820313-15.882812-51.914063-48.402344-51.882813-83.964844v-61.441406s34.386719-57.855469 66.558594-76.800781c3.667969 2.988281 7.082032-9.300781 10.238282-2.984375 3.839843-7.765625 8.195312 5.714844 12.800781 2.984375 5.671875 4.488281 10.082031 10.367187 12.800781 17.066406 2.460938-6.207031 5.917969-11.972656 10.238281-17.066406 32.171875 18.945312 66.5625 76.800781 66.5625 76.800781zm0 0" fill="#cfd8dc"/><path d="m332.800781 68.265625v19.796875c-18.519531-24.660156-43.691406-49.320312-63.574219-36.179688-9.046874-4.523437-5.207031 2.304688-13.226562 7.851563-8.019531-5.546875-29.78125-12.375-38.828125-7.851563-19.882813-13.140624-45.054687 42.921876-63.570313 67.582032v-51.199219c0-32.988281 26.742188-59.730469 59.730469-59.730469h59.734375c32.988282 0 59.734375 26.742188 59.734375 59.730469zm0 0" fill="#37474f"/><path d="m247.296875 354.476562c-1.445313 2.59375-3.042969 5.101563-4.78125 7.507813-6.359375 9.425781-16.003906 16.148437-27.050781 18.859375-3.386719.75-6.851563 1.125-10.324219 1.109375-18.671875-1.636719-36.492187-8.566406-51.371094-19.96875-15.378906-10.78125-29.539062-23.199219-42.238281-37.035156l35.070312-8.449219c3.292969-.765625 6.472657-1.941406 9.472657-3.496094l48.726562 19.796875zm0 0" fill="#673ab7"/><path d="m400.46875 324.949219c-12.695312 13.835937-26.859375 26.253906-42.238281 37.035156-14.898438 11.429687-32.75 18.355469-51.457031 19.96875-3.472657.019531-6.9375-.351563-10.324219-1.109375-11.023438-2.714844-20.636719-9.4375-26.964844-18.859375-1.664063-2.335937-3.203125-4.757813-4.609375-7.253906l42.324219-21.929688 53.25-17.921875c1.605469.667969 3.257812 1.210938 4.949219 1.621094l1.023437.257812zm0 0" fill="#673ab7"/><path d="m459.742188 330.5625-53.34375-12.910156c-1.925782-1.519532-4.417969-2.125-6.824219-1.65625l-31.046875-7.515625-1.039063-.257813c-4.628906-1.1875-8.960937-3.335937-12.714843-6.296875 80.316406-40.105469 104.816406-150.1875 105.855468-155.074219.699219-3.269531-.574218-6.648437-3.261718-8.640624-2.6875-1.988282-6.289063-2.230469-9.214844-.609376-25.804688 12.832032-53.078125 22.472657-81.21875 28.703126v-98.039063c-.042969-37.683594-30.582032-68.2226562-68.265625-68.265625h-85.335938c-37.683593.0429688-68.222656 30.582031-68.265625 68.265625v98.039063c-28.132812-6.230469-55.402344-15.871094-81.203125-28.703126-2.925781-1.621093-6.527343-1.378906-9.214843.609376-2.683594 1.992187-3.960938 5.371093-3.261719 8.640624 1.042969 4.863282 25.550781 115.027344 105.933593 155.117188-3.761718 2.949219-8.097656 5.074219-12.730468 6.238281l-32.15625 7.789063c-2.40625-.46875-4.898438.132812-6.824219 1.648437l-53.335937 12.917969c-30.691407 7.316406-52.3281255 34.769531-52.273438 66.324219v98.046875c0 9.425781 7.640625 17.066406 17.066406 17.066406h477.867188c9.425781 0 17.066406-7.640625 17.066406-17.066406v-98.046875c.058594-31.546875-21.570312-59-52.257812-66.324219zm-75.425782-.707031c-19.78125 20.105469-55.246094 49.664062-82.773437 46.933593-10.9375-1.324218-20.632813-7.671874-26.222657-17.167968l85.578126-35.660156c.855468.246093 1.589843.621093 2.433593.851562zm-222.183594-199.652344c15.898438-29.21875 47.597657-73.449219 68.71875-73.449219h.1875c2.40625 0 9.730469.128906 17.324219 15.363282.183594.265624.386719.523437.605469.765624.304688.488282.65625.945313 1.058594 1.355469.40625.398438.855468.75 1.339844 1.050781.25.222657.515624.433594.792968.625.1875.09375.390625.074219.582032.152344.550781.210938 1.121093.363282 1.703124.453125 1.023438.273438 2.101563.273438 3.125 0 .582032-.09375 1.15625-.246093 1.707032-.453125.1875-.078125.390625-.070312.570312-.152344.273438-.191406.539063-.394531.785156-.617187.484376-.304687.933594-.65625 1.339844-1.058594.40625-.417969.765625-.878906 1.074219-1.371093.21875-.25.421875-.507813.609375-.777344 7.59375-15.191406 14.914062-15.292969 17.3125-15.359375h.195312c21.085938 0 52.796876 44.21875 68.71875 73.429687v59.28125c.109376 32.351563-18.183593 61.953125-47.171874 76.320313l-27.613282 13.808593c-12.019531 5.972657-26.140625 5.972657-38.160156 0l-27.613281-13.808593c-28.996094-14.363281-47.296875-43.964844-47.191407-76.320313zm25.601563 144.828125v-2.433594c4.417969 3.179688 9.078125 6.003906 13.941406 8.449219l20.191407 10.078125c-.019532 6.660156-2.105469 13.152344-5.972657 18.574219-2.21875 2.144531-3.109375 5.316406-2.328125 8.300781s3.109375 5.3125 6.09375 6.09375 6.15625-.109375 8.300782-2.328125c5.785156-6.546875 9.398437-14.726563 10.347656-23.414063 14.714844 4.664063 30.667968 3.410157 44.46875-3.5l27.605468-13.804687c4.84375-2.449219 9.484376-5.273437 13.882813-8.449219v2.175782c.003906 14.808593 6.394531 28.898437 17.539063 38.65625l-85.652344 35.667968-83.496094-37.957031c9.632812-9.550781 15.058594-22.546875 15.078125-36.109375zm64.9375 91.175781c2.097656.945313 4.496094.96875 6.613281.070313h.070313c7.867187 14.402344 21.914062 24.394531 38.097656 27.109375-9.960937 21.796875-24.398437 41.253906-42.367187 57.113281-22.824219-14.507812-36.691407-46.429688-40.855469-57.0625 16.335937-2.640625 30.53125-12.695312 38.441406-27.230469zm-56.242187 26.777344c-.011719.757813.082031 1.515625.28125 2.246094.742187 2.226562 18.601562 54.765625 55.464843 73.207031 2.902344 1.429688 6.359375 1.101562 8.9375-.851562 23.710938-19.101563 42.273438-43.824219 54.003907-71.921876.320312-.878906.488281-1.804687.496093-2.738281 11.523438-2.300781 22.5625-6.578125 32.625-12.644531-6.785156 23.34375-33.359375 99.804688-92.238281 114.363281-58.761719-14.507812-85.410156-90.992187-92.238281-114.347656 10.074219 6.082031 21.128906 10.375 32.667969 12.6875zm242.601562-232.207031c-10.238281 32.425781-38.082031 100.691406-94.941406 127.230468-1.789063-4.183593-2.726563-8.683593-2.757813-13.234374v-14.59375c-.042969-.824219-.207031-1.636719-.484375-2.414063 16.855469-18.757813 26.152344-43.105469 26.085938-68.324219v-5.667968c24.667968-5.503907 48.796875-13.203126 72.097656-22.996094zm-225.699219-143.710938h85.335938c28.265625.027344 51.171875 22.933594 51.199219 51.199219v29.117187c-16.570313-24.847656-43.214844-57.695312-68.746094-57.695312h-.375c-9.789063.273438-18.910156 5.023438-24.746094 12.886719-5.835938-7.863281-14.957031-12.613281-24.746094-12.886719h-.394531c-25.53125 0-52.171875 32.8125-68.742187 57.695312v-29.117187c.027343-28.269531 22.945312-51.179687 51.214843-51.199219zm-140.363281 143.710938c23.300781 9.800781 47.429688 17.503906 72.097656 23.015625v5.648437c-.050781 25.199219 9.246094 49.519532 26.085938 68.265625-.28125.796875-.445313 1.628907-.484375 2.472657v14.851562c-.027344 4.46875-.9375 8.894531-2.679688 13.011719-56.910156-26.523438-84.746093-94.847657-95.019531-127.265625zm75.664062 164.011718c2.742188-.679687 5.421876-1.582031 8.015626-2.699218.578124.5625 1.234374 1.039062 1.953124 1.410156l78.429688 35.652344c-5.582031 9.730468-15.421875 16.261718-26.554688 17.621094-27.265624 2.730468-62.917968-26.820313-82.773437-46.933594zm-131.566406 72.097657c-.035156-23.675781 16.21875-44.265625 39.253906-49.734375l52.285157-12.644532c11.824219 12.945313 24.859375 24.734376 38.925781 35.207032-2 2.015625-2.847656 4.902344-2.25 7.679687.910156 3.917969 19.292969 80.777344 71.40625 117.546875h-97.222656v-51.207031c0-4.714844-3.820313-8.535156-8.53125-8.535156-4.714844 0-8.535156 3.820312-8.535156 8.535156v51.199219h-85.332032zm477.867188 98.046875h-85.332032v-51.199219c0-4.714844-3.820312-8.535156-8.535156-8.535156-4.710937 0-8.53125 3.820312-8.53125 8.535156v51.199219h-97.222656c52.113281-36.769532 70.496094-113.628906 71.40625-117.546875.597656-2.777344-.25-5.664063-2.25-7.679688 14.0625-10.472656 27.09375-22.261719 38.925781-35.199219l52.328125 12.671876c23.007813 5.484374 39.234375 26.054687 39.210938 49.707031zm0 0"/><path d="m200.984375 127.148438 12.945313 6.464843c-.371094.929688-.574219 1.917969-.597657 2.921875v17.066406c0 4.710938 3.820313 8.53125 8.535157 8.53125 4.710937 0 8.53125-3.820312 8.53125-8.53125v-11.792968l4.71875 2.363281c2.730468 1.363281 5.980468 1.164063 8.523437-.515625 2.542969-1.683594 4-4.59375 3.8125-7.636719-.183594-3.046875-1.976563-5.761719-4.707031-7.125l-34.132813-17.066406c-2.726562-1.363281-5.976562-1.164063-8.519531.515625-2.546875 1.683594-4 4.59375-3.816406 7.636719.183594 3.046875 1.980468 5.761719 4.707031 7.125zm0 0"/><path d="m273.066406 145.066406c1.320313 0 2.625-.304687 3.804688-.894531l4.730468-2.363281v11.792968c0 4.710938 3.820313 8.53125 8.53125 8.53125 4.714844 0 8.535157-3.820312 8.535157-8.53125v-17.066406c-.019531-1.015625-.222657-2.019531-.597657-2.960937l12.945313-6.46875c2.726563-1.363281 4.523437-4.078125 4.707031-7.125.183594-3.042969-1.269531-5.953125-3.816406-7.636719-2.542969-1.679688-5.792969-1.878906-8.519531-.515625l-34.132813 17.066406c-3.546875 1.769531-5.410156 5.742188-4.5 9.597657.910156 3.855468 4.351563 6.578124 8.3125 6.574218zm0 0"/><path d="m221.867188 204.800781c-4.714844 0-8.535157 3.820313-8.535157 8.53125 0 4.714844 3.820313 8.535157 8.535157 8.535157h8.53125v8.53125c0 4.714843 3.820312 8.535156 8.535156 8.535156 4.710937 0 8.53125-3.820313 8.53125-8.535156v-8.53125h17.070312v8.53125c0 4.714843 3.820313 8.535156 8.53125 8.535156 4.714844 0 8.535156-3.820313 8.535156-8.535156v-8.53125h8.53125c4.714844 0 8.535157-3.820313 8.535157-8.535157 0-4.710937-3.820313-8.53125-8.535157-8.53125zm0 0"/></svg>