<svg id="Capa_1" enable-background="new 0 0 511.999 511.999" height="512" viewBox="0 0 511.999 511.999" width="512" xmlns="http://www.w3.org/2000/svg"><path d="m438.713 376.025c0-29.248-20.172-54.633-48.664-61.239l-24.596-5.703c-10.053-2.331-18.568-8.814-23.79-17.715-6.188-10.548-15.363-18.935-26.217-24.186 16.261-3.952 33.496-1.506 48.108 6.563l12.883 7.114s20.529-58.592 21.447-62.961c3.933-18.728-2.274-38.144-16.341-51.117l-21.817-20.119c-6.688-6.168-10.826-14.537-12.024-23.556-1.031-7.762-3.006-15.193-5.799-22.184l3.658-8.353c11.818-26.988 10.433-57.934-3.748-83.759-.809-1.474-2.807-1.761-3.998-.573l-43.13 43.004c-11.814-5.446-24.935-8.465-38.687-8.465s-26.872 3.019-38.687 8.465l-43.13-43.004c-1.191-1.188-3.189-.901-3.998.573-14.181 25.825-15.566 56.771-3.748 83.759l3.658 8.353c-2.793 6.991-4.768 14.422-5.799 22.184-1.198 9.018-5.336 17.388-12.024 23.556l-21.816 20.119c-14.068 12.973-20.274 32.389-16.341 51.117.918 4.369 21.447 62.961 21.447 62.961l12.883-7.114c14.612-8.069 31.847-10.515 48.108-6.563-10.854 5.251-20.029 13.638-26.217 24.186-5.222 8.901-13.737 15.384-23.79 17.715l-24.616 5.708c-28.48 6.604-48.644 31.977-48.644 61.213 0 19.088 7.915 37.322 21.86 50.356l.131.122c-13.721 8.972-21.991 24.261-21.991 40.655v37.362h365.428v-37.362c0-16.394-8.27-31.683-21.991-40.655l.121-.113c13.952-13.026 21.871-31.257 21.871-50.344z" fill="#a298a5"/><path d="m305.562 72.569c-2.196 5.014-2.601 10.653-1.018 15.893 1.427 4.722 2.491 9.614 3.159 14.644 1.197 9.018 5.336 17.388 12.024 23.556l21.817 20.12c14.067 12.973 20.274 32.389 16.341 51.117-.629 2.994-10.466 31.445-16.596 49.062-2.53 7.271-10.995 10.507-17.734 6.785-1.594-.88-3.218-1.693-4.869-2.438-12.31-5.555-24.215 8.029-17.283 19.62.088.147.175.294.261.441 5.221 8.901 13.737 15.384 23.79 17.715l17.282 4.007c-.371-.563-.729-1.137-1.072-1.722-6.188-10.548-15.363-18.935-26.217-24.186 16.261-3.952 33.497-1.506 48.108 6.563l12.883 7.114s20.529-58.592 21.447-62.961c3.933-18.728-2.274-38.144-16.341-51.117l-21.817-20.12c-6.688-6.167-10.826-14.537-12.024-23.556-1.031-7.762-3.006-15.193-5.799-22.184l3.658-8.353c11.818-26.988 10.433-57.934-3.748-83.759-.809-1.474-2.807-1.76-3.998-.573l-24.306 24.235c.291 13.61-2.344 27.298-7.948 40.097z" fill="#8b818e"/><path d="m438.713 376.025c0-29.248-20.172-54.633-48.664-61.24l-8.552-1.983c10.762 11.372 17.216 26.679 17.216 43.222 0 6.565-2.602 14.585-6.016 22.28-7.457 16.809-7.278 36.154 1.111 52.517 2.852 5.562 4.905 11.306 4.905 16.315 0 20.634-16.727 37.362-37.362 37.362h-288.065v20h365.428v-37.362c0-16.394-8.27-31.683-21.991-40.655l.121-.113c13.95-13.025 21.869-31.256 21.869-50.343z" fill="#8b818e"/><path d="m256.286 200.024c-8.863 0-16.607-5.99-18.834-14.569l-1.191-4.589c-1.275-4.912 2.433-9.706 7.508-9.706h25.035c5.075 0 8.783 4.793 7.508 9.706l-1.191 4.589c-2.228 8.579-9.971 14.569-18.835 14.569z" fill="#dd636e"/><path d="m291.59 288.221c3.057-2.795 3.27-7.539.475-10.596-2.796-3.058-7.541-3.27-10.596-.475-14.402 13.167-36.513 13.19-50.939 0-3.058-2.795-7.8-2.583-10.596.475-2.795 3.057-2.582 7.801.475 10.596 20.127 18.402 51.019 18.434 71.181 0z"/><path d="m242.605 414.98c3.727 2.937 6.283 4.702 9.074 6.669 2.59 1.825 6.049 1.826 8.641 0l2.383-1.68c18.885-13.305 34.48-30.604 45.741-50.608l10.75 24.288c2.53 5.716 10.455 5.946 13.419.599l2.416-4.361c10.053-18.142 16.435-37.776 18.97-58.359.507-4.111-2.415-7.854-6.526-8.36-4.097-.516-7.854 2.415-8.36 6.526-1.875 15.217-6.068 29.863-12.493 43.67l-10.931-24.695c-1.202-2.715-3.892-4.464-6.858-4.464-2.993 0-5.702 1.78-6.888 4.532-9.903 22.98-25.76 42.843-45.942 57.582-1.386-1.013-2.763-2.057-4.111-3.119-3.252-2.563-7.969-2.004-10.532 1.249s-2.007 7.968 1.247 10.531z"/><path d="m203.169 344.204c-2.967 0-5.656 1.75-6.858 4.464l-10.739 24.264c-6.013-13.793-10.077-28.31-12.123-43.333-.56-4.104-4.351-6.987-8.443-6.42-4.104.56-6.979 4.34-6.42 8.443 3.006 22.069 10.004 43.14 20.801 62.626 2.997 5.407 10.913 5.06 13.419-.599l10.751-24.29c3.582 6.361 7.613 12.469 12.059 18.265 2.52 3.287 7.228 3.908 10.516 1.387 3.287-2.521 3.907-7.229 1.387-10.516-7.021-9.152-12.895-19.165-17.46-29.759-1.186-2.748-3.892-4.532-6.89-4.532z"/><path d="m388.356 322.093c8.177 1.896 15.631 5.515 22.155 10.756 3.22 2.589 7.944 2.087 10.544-1.149 2.595-3.229 2.08-7.949-1.149-10.544-8.296-6.665-17.771-11.267-28.162-13.676l-24.596-5.702c-7.857-1.822-14.789-7-19.016-14.204-3.141-5.355-6.954-10.214-11.335-14.481 8.011.785 15.879 3.213 23.132 7.219l12.883 7.114c3.572 1.977 8.113.721 10.137-2.845.403-.705.614-1.375.567-1.24 4.854-13.854 20.764-59.402 21.709-63.9 4.452-21.198-2.674-43.488-18.597-58.172l-21.817-20.12c-5.251-4.843-8.687-11.601-9.673-19.029-.954-7.179-2.678-14.228-5.133-20.998l2.427-5.542c12.664-28.92 11.152-62.706-4.044-90.378-3.182-5.796-11.104-7.024-15.868-2.274l-39.537 39.423c-23.169-9.249-49.861-9.623-73.967 0l-39.537-39.424c-4.719-4.707-12.66-3.573-15.869 2.272-15.195 27.674-16.707 61.46-4.043 90.378l2.427 5.543c-2.457 6.774-4.181 13.823-5.133 21-.545 4.105 2.342 7.876 6.448 8.421 4.094.542 7.876-2.342 8.421-6.448 2.257-17.009 9.543-32.948 21.257-45.872 2.782-3.069 2.55-7.813-.52-10.594-3.068-2.782-7.811-2.549-10.594.52-4.186 4.617-7.904 9.574-11.132 14.828-7.205-21.01-6.117-44.312 3.024-64.562l38.251 38.14c2.222 2.215 5.586 2.812 8.436 1.5 22.503-10.374 48.559-10.389 71.094 0 2.847 1.313 6.213.715 8.436-1.501l38.25-38.14c9.142 20.25 10.23 43.552 3.025 64.563-3.227-5.255-6.946-10.211-11.132-14.829-2.782-3.068-7.526-3.302-10.594-.52-3.069 2.781-3.302 7.524-.52 10.594 11.63 12.832 18.98 28.746 21.257 45.872 1.446 10.895 6.551 20.868 14.373 28.082l21.817 20.12c12.061 11.122 17.458 28.005 14.1 44-.634 2.641-7.362 22.298-13.964 41.328l-1.742-5.225c-4.986-14.95-15.499-27.056-29.603-34.086-3.706-1.849-8.211-.341-10.058 3.366-1.849 3.707-.341 8.21 3.366 10.058 10.512 5.241 18.348 14.265 22.064 25.407l2.68 8.037c-15.52-7.446-32.978-9.332-49.628-5.287-3.076.748-5.352 3.347-5.687 6.494s1.342 6.167 4.192 7.546c9.646 4.666 17.604 12.007 23.014 21.229 6.302 10.741 16.713 18.478 28.564 21.226z"/><path d="m73.286 511.999h365.428c4.143 0 7.5-3.357 7.5-7.5v-37.361c0-15.985-6.723-30.945-18.33-41.48 17.157-20.108 23.072-48.36 14.303-73.114-1.382-3.905-5.667-5.95-9.573-4.565-3.904 1.383-5.948 5.669-4.565 9.573 7.594 21.447 1.248 46.929-16.326 63.341-3.871 3.62-2.994 9.323.897 11.868 11.644 7.614 18.595 20.466 18.595 34.378v29.861h-45.697v-87.854c0-4.143-3.357-7.5-7.5-7.5s-7.5 3.357-7.5 7.5v87.854h-107.019v-50.667c0-4.143-3.357-7.5-7.5-7.5s-7.5 3.357-7.5 7.5v50.667h-107.016v-87.854c0-4.143-3.357-7.5-7.5-7.5s-7.5 3.357-7.5 7.5v87.854h-45.697v-29.861c0-13.912 6.951-26.764 18.595-34.378 3.842-2.512 4.817-8.186.887-11.879-12.381-11.572-19.481-27.93-19.481-44.877 0-25.892 17.615-48.059 42.838-53.906l24.616-5.708c11.852-2.749 22.263-10.485 28.564-21.227 5.41-9.223 13.368-16.563 23.014-21.229 2.85-1.379 4.527-4.398 4.192-7.546s-2.61-5.746-5.687-6.494c-16.65-4.044-34.108-2.159-49.628 5.287l2.68-8.037c3.716-11.143 11.552-20.166 22.064-25.407 3.707-1.848 5.215-6.351 3.366-10.058-1.848-3.706-6.35-5.216-10.058-3.366-14.104 7.031-24.618 19.137-29.604 34.087l-1.742 5.224c-6.6-19.027-13.325-38.671-13.95-41.267-3.372-16.056 2.024-32.938 14.086-44.061l15.326-14.134c3.045-2.809 3.236-7.553.429-10.598-2.808-3.046-7.553-3.237-10.599-.43l-15.325 14.134c-15.924 14.684-23.049 36.975-18.597 58.173 1.015 4.829 21.513 63.428 21.832 64.224 1.665 4.107 6.427 5.826 10.269 3.922.257-.126.585-.313 13.195-7.277 7.254-4.006 15.12-6.434 23.132-7.219-4.381 4.268-8.193 9.126-11.335 14.481-4.227 7.204-11.158 12.382-19.016 14.204l-24.616 5.707c-32.059 7.434-54.449 35.609-54.449 68.52 0 18.226 6.602 35.903 18.33 49.653-11.606 10.534-18.33 25.495-18.33 41.48v37.361c.002 4.144 3.359 7.501 7.502 7.501z"/><path d="m221.544 231.661v8.588c0 4.143 3.357 7.5 7.5 7.5s7.5-3.357 7.5-7.5v-7.725h38.91v7.725c0 4.143 3.357 7.5 7.5 7.5s7.5-3.357 7.5-7.5v-8.588c14.525-3.402 25.374-16.464 25.374-32.011 0-4.143-3.357-7.5-7.5-7.5s-7.5 3.357-7.5 7.5c0 9.856-8.019 17.875-17.874 17.875h-19.168v-11.062c8.962-2.596 16.158-9.743 18.593-19.123 1.089-4.194 1.743-6.049 1.685-8.782v-36.209l28.66-16.548c3.587-2.071 4.816-6.658 2.745-10.245s-6.66-4.815-10.245-2.745l-30.412 17.559c-3.545 2.046-5.748 5.86-5.748 9.955v23.338c-1.991-.034 7.034-.002-25.295-.002-9.982 0-17.277 9.423-14.768 19.091l1.191 4.588c2.435 9.38 9.632 16.528 18.594 19.124v11.062h-19.742c-9.855 0-17.874-8.019-17.874-17.875 0-4.143-3.357-7.5-7.5-7.5s-7.5 3.357-7.5 7.5c0 15.546 10.849 28.607 25.374 32.01zm23.168-48.091c-1.305-5.028-1.26-4.665-1.146-4.811.12-.155-1.664-.1 25.238-.1.056 0 .125 0 .202.1.111.144.166-.246-1.146 4.812-1.368 5.271-6.127 8.953-11.573 8.953-5.445 0-10.206-3.678-11.575-8.954z"/><path d="m236.008 153.66c4.143 0 7.5-3.357 7.5-7.5v-5.836c0-4.095-2.203-7.909-5.747-9.954l-30.413-17.56c-3.587-2.071-8.175-.843-10.245 2.745-2.071 3.587-.842 8.174 2.745 10.245l28.66 16.548v3.812c0 4.143 3.358 7.5 7.5 7.5z"/></svg>