<?xml version="1.0" encoding="iso-8859-1"?>
<!-- Generator: Adobe Illustrator 19.0.0, SVG Export Plug-In . SVG Version: 6.00 Build 0)  -->
<svg version="1.1" id="Capa_1" xmlns="http://www.w3.org/2000/svg" xmlns:xlink="http://www.w3.org/1999/xlink" x="0px" y="0px"
	 viewBox="0 0 512.001 512.001" style="enable-background:new 0 0 512.001 512.001;" xml:space="preserve">
<path id="SVGCleanerId_0" style="fill:#FFE2C0;" d="M287.748,288.464c-4.918-0.988-8.455-6.693-8.455-11.709v-22.352H256l0,0
	h-23.293v22.352c0,5.016-3.538,10.72-8.455,11.709l-5.676,1.602v37.656H256l0,0h37.424v-37.656L287.748,288.464z"/>
<g>
	<path id="SVGCleanerId_0_1_" style="fill:#FFE2C0;" d="M287.748,288.464c-4.918-0.988-8.455-6.693-8.455-11.709v-22.352H256l0,0
		h-23.293v22.352c0,5.016-3.538,10.72-8.455,11.709l-5.676,1.602v37.656H256l0,0h37.424v-37.656L287.748,288.464z"/>
</g>
<path style="fill:#45748C;" d="M329.617,298.896l-33.568-10.466c-1.868-0.583-3.879,0.22-4.843,1.923
	c-4.64,8.193-18.643,16.114-35.205,16.114s-30.566-7.92-35.206-16.114c-0.964-1.703-2.975-2.505-4.843-1.923l-33.568,10.466
	c-19.003,5.595-32.05,23.038-32.05,42.847v10.346c0,5.49,4.451,9.941,9.941,9.941h191.452c5.49,0,9.941-4.451,9.941-9.941v-10.346
	C361.667,321.934,348.62,304.491,329.617,298.896z"/>
<path style="fill:#2D5872;" d="M329.617,298.896l-33.568-10.466c-1.868-0.583-3.879,0.22-4.843,1.923
	c-4.461,7.878-17.587,15.483-33.314,16.058l31.225,9.736c19.003,5.595,32.05,11.4,32.05,31.209v14.674h30.559
	c5.49,0,9.941-4.451,9.941-9.941v-10.346C361.667,321.934,348.62,304.491,329.617,298.896z"/>
<path style="fill:#FFE2C0;" d="M299.73,204.939L299.73,204.939v-4.156v-8.369c0-11.817-4.851-23.267-13.806-30.977
	c-7.02-6.045-16.889-11.321-29.925-11.467c-13.036,0.145-22.904,5.422-29.925,11.467c-8.954,7.71-13.806,19.161-13.806,30.977v8.369
	v4.156l0,0c-4.934,0-8.933,3.999-8.933,8.933v6.079c0,4.934,3.999,8.933,8.933,8.933h0.012c0.247,11.487,5.073,22.542,13.794,30.051
	c7.02,6.045,16.889,11.321,29.925,11.467c13.036-0.145,22.904-5.422,29.925-11.467c8.72-7.509,13.547-18.565,13.794-30.051h0.012
	c4.934,0,8.933-3.999,8.933-8.933v-6.079C308.663,208.939,304.664,204.939,299.73,204.939z"/>
<path style="fill:#F4D3A6;" d="M299.73,204.939v-4.156v-8.369c0-11.817-4.851-23.267-13.806-30.977
	c-7.02-6.045-16.889-11.321-29.925-11.467c-7.831,0.087-14.511,2.033-20.125,4.878c3.731,1.891,6.997,4.175,9.799,6.588
	c8.954,7.71,13.806,19.16,13.806,30.977l-0.012,36.47c-0.247,11.487-5.073,22.542-13.794,30.051
	c-2.803,2.414-6.068,4.698-9.799,6.588c5.614,2.845,12.294,4.791,20.125,4.878c13.036-0.145,22.904-5.422,29.925-11.467
	c8.72-7.509,13.547-18.564,13.794-30.051h0.012c4.934,0,8.933-4,8.933-8.933v-6.079C308.663,208.939,304.664,204.939,299.73,204.939
	z"/>
<path style="fill:#FF4C4C;" d="M466.294,240.82c-7.425-104.343-90.77-187.688-195.114-195.113V13.845
	c0-3.504-2.84-6.344-6.344-6.344h-17.672c-3.504,0-6.344,2.84-6.344,6.344v31.862C136.477,53.131,53.131,136.477,45.706,240.82
	H13.844c-3.504,0-6.344,2.84-6.344,6.344v17.672c0,3.504,2.84,6.344,6.344,6.344h31.862
	c7.425,104.344,90.77,187.688,195.114,195.113v31.862c0,3.504,2.84,6.344,6.344,6.344h17.672c3.504,0,6.344-2.84,6.344-6.344
	v-31.862c104.344-7.425,187.689-90.77,195.114-195.113h31.862c3.504,0,6.344-2.84,6.344-6.344v-17.672
	c0-3.504-2.84-6.344-6.344-6.344H466.294z M395.852,271.18h41.077c-7.299,88.165-77.583,158.449-165.749,165.749v-41.077
	c0-3.504-2.84-6.344-6.344-6.344h-17.672c-3.504,0-6.344,2.84-6.344,6.344v41.077C152.655,429.63,82.371,359.345,75.071,271.18
	h41.077c3.504,0,6.344-2.84,6.344-6.344v-17.672c0-3.504-2.84-6.344-6.344-6.344H75.071C82.37,152.655,152.654,82.371,240.82,75.072
	v41.077c0,3.504,2.84,6.344,6.344,6.344h17.672c3.504,0,6.344-2.84,6.344-6.344V75.072c88.165,7.299,158.449,77.583,165.749,165.748
	h-41.077c-3.504,0-6.344,2.84-6.344,6.344v17.672C389.507,268.34,392.348,271.18,395.852,271.18z"/>
<path style="fill:#F4D3A6;" d="M256.383,305.964l1.578,0.446c15.696-0.595,28.79-8.189,33.245-16.056
	c0.159-0.28,0.354-0.526,0.563-0.755l-4.021-1.135c-4.917-0.988-8.455-6.693-8.455-11.709v-12.993
	c-6.213,3.781-13.932,6.537-23.293,6.641c-2.844-0.032-5.527-0.32-8.073-0.795v24.646
	C247.927,299.27,251.465,304.974,256.383,305.964z"/>
<path d="M204.77,192.415v6.838c-5.3,2.729-8.933,8.258-8.933,14.619v6.08c0,6.544,3.845,12.207,9.399,14.848
	c1.595,11.674,7.235,22.319,15.945,29.819c1.306,1.125,2.65,2.176,4.025,3.163v8.972c0,2.077-1.632,4.195-2.433,4.356
	c-0.188,0.037-0.375,0.082-0.56,0.135l-0.943,0.266c-2.368-0.892-5.021-1.03-7.553-0.242l-33.513,10.449
	c-22.007,6.509-37.372,27.071-37.372,50.024v10.346c0,9.616,7.824,17.44,17.44,17.44h191.452c9.616,0,17.44-7.824,17.44-17.44
	v-10.346c0-22.953-15.364-43.515-37.371-50.024l-33.513-10.449c-2.532-0.789-5.186-0.65-7.555,0.242l-0.943-0.266
	c-0.185-0.053-0.371-0.098-0.56-0.135c-0.802-0.161-2.434-2.279-2.434-4.356v-8.972c1.375-0.986,2.719-2.038,4.025-3.163
	c8.709-7.499,14.35-18.144,15.945-29.816c5.553-2.641,9.4-8.305,9.4-14.851v-6.08c0-6.361-3.633-11.89-8.934-14.619v-6.838
	c0-14.318-5.982-27.682-16.412-36.661c-9.926-8.547-21.938-13.14-34.734-13.283c-0.057,0-0.111,0-0.168,0
	c-12.797,0.144-24.808,4.736-34.734,13.283C210.752,164.734,204.77,178.098,204.77,192.415z M296.255,296.35l31.13,9.706
	c0.038,0.012,0.076,0.023,0.114,0.034c15.701,4.624,26.668,19.285,26.668,35.653v10.346c0,1.346-1.095,2.44-2.44,2.44H332.29
	v-22.085c0-4.143-3.357-7.5-7.5-7.5s-7.5,3.357-7.5,7.5v22.085H194.711v-22.085c0-4.143-3.358-7.5-7.5-7.5s-7.5,3.357-7.5,7.5
	v22.085h-19.437c-1.346,0-2.44-1.095-2.44-2.44v-10.346c0-16.368,10.966-31.029,26.668-35.653c0.038-0.011,0.076-0.022,0.114-0.034
	l31.13-9.706c7.438,10.337,23.805,17.616,40.254,17.616S288.816,306.688,296.255,296.35z M279.03,292.281
	c-5.18,3.578-13.197,6.685-23.03,6.685c-9.831,0-17.849-3.106-23.029-6.684c4.622-3.867,7.236-10.02,7.236-15.527v-1.391
	c5.031,1.614,10.298,2.479,15.708,2.54c0.028,0,0.056,0,0.084,0s0.056,0,0.084,0c5.41-0.061,10.678-0.926,15.709-2.54v1.391
	C271.793,282.261,274.408,288.415,279.03,292.281z M230.969,167.121c7.294-6.28,15.715-9.527,25.031-9.649
	c9.315,0.122,17.737,3.369,25.031,9.649c7.117,6.128,11.199,15.347,11.199,25.294v12.524c0,4.143,3.357,7.5,7.5,7.5
	c0.79,0,1.434,0.643,1.434,1.433v6.08c0,0.79-0.644,1.433-1.445,1.433c-4.079,0-7.41,3.261-7.498,7.339
	c-0.208,9.644-4.286,18.584-11.189,24.528c-1.775,1.528-3.618,2.874-5.523,4.041c-0.102,0.06-0.205,0.12-0.304,0.185
	c-5.843,3.51-12.276,5.333-19.204,5.423c-6.933-0.091-13.369-1.916-19.215-5.43c-0.092-0.06-0.186-0.115-0.28-0.17
	c-1.909-1.169-3.756-2.517-5.535-4.049c-6.904-5.944-10.982-14.885-11.189-24.528c-0.087-4.078-3.431-7.339-7.51-7.339
	c-0.79,0-1.433-0.643-1.433-1.433v-6.08c0-0.79,0.643-1.433,1.433-1.433c4.142,0,7.5-3.357,7.5-7.5v-12.524
	C219.77,182.469,223.852,173.249,230.969,167.121z"/>
<path d="M385.093,413.104c-32.7,26.902-72.274,42.708-114.444,45.708c-3.926,0.279-6.968,3.546-6.968,7.481V497h-15.36v-30.706
	c0-3.936-3.042-7.202-6.968-7.481c-48.665-3.463-94.524-24.428-129.13-59.034s-55.571-80.466-59.035-129.13
	c-0.279-3.926-3.545-6.968-7.481-6.968H15v-15.36h30.706c3.936,0,7.202-3.042,7.481-6.968c3-42.163,18.801-81.731,45.694-114.427
	c2.631-3.199,2.171-7.926-1.028-10.557s-7.925-2.171-10.557,1.027C59.902,150.702,43.225,190.65,38.832,233.32H13.844
	C6.211,233.32,0,239.53,0,247.164v17.672c0,7.634,6.21,13.845,13.844,13.845h24.99c5.146,49.662,27.278,96.201,62.781,131.704
	s82.042,57.636,131.705,62.781v24.99c0,7.634,6.21,13.844,13.844,13.844h17.671c7.634,0,13.845-6.21,13.845-13.844v-24.987
	c42.678-4.395,82.632-21.077,115.941-48.48c3.199-2.632,3.659-7.358,1.027-10.557C393.015,410.932,388.289,410.474,385.093,413.104z
	"/>
<path d="M245.9,69.554c-1.543-1.421-3.617-2.129-5.698-1.957c-44.408,3.677-86.273,23.11-117.884,54.722
	c-31.61,31.61-51.044,73.476-54.721,117.883c-0.173,2.09,0.537,4.156,1.957,5.699c1.42,1.542,3.421,2.42,5.518,2.42h39.921v15.36
	H75.072c-2.097,0-4.098,0.878-5.518,2.42c-1.42,1.543-2.13,3.609-1.957,5.699c3.677,44.407,23.11,86.272,54.721,117.883
	c31.611,31.61,73.476,51.044,117.884,54.721c2.083,0.162,4.155-0.537,5.699-1.957c1.542-1.42,2.42-3.421,2.42-5.518v-39.921h15.36
	v39.921c0,2.097,0.878,4.098,2.42,5.518c1.39,1.28,3.205,1.982,5.08,1.982c0.205,0,0.412-0.009,0.619-0.025
	c44.407-3.677,86.272-23.11,117.883-54.721s51.044-73.476,54.721-117.883c0.173-2.09-0.537-4.156-1.957-5.699
	c-1.42-1.542-3.421-2.42-5.518-2.42h-39.921v-15.36h39.921c2.097,0,4.098-0.878,5.518-2.42c1.42-1.543,2.13-3.609,1.957-5.699
	c-3.677-44.407-23.11-86.272-54.721-117.883c-31.61-31.611-73.476-51.045-117.883-54.722c-2.09-0.171-4.157,0.537-5.699,1.957
	s-2.42,3.421-2.42,5.518v39.922h-15.36V75.071C248.32,72.975,247.443,70.974,245.9,69.554z M264.836,129.993
	c7.634,0,13.845-6.211,13.845-13.845V83.412c37.838,4.946,73.227,22.344,100.396,49.513s44.566,62.558,49.512,100.396h-32.736
	c-7.634,0-13.844,6.21-13.844,13.844v17.672c0,7.634,6.21,13.845,13.844,13.845h32.736c-4.945,37.838-22.343,73.227-49.512,100.396
	s-62.558,44.566-100.396,49.512v-32.736c0-7.634-6.211-13.844-13.845-13.844h-17.671c-7.634,0-13.844,6.21-13.844,13.844v32.736
	c-37.837-4.945-73.227-22.343-100.396-49.512s-44.566-62.558-49.512-100.396h32.736c7.634,0,13.844-6.211,13.844-13.845v-17.672
	c0-7.634-6.21-13.844-13.844-13.844H83.412c4.946-37.838,22.343-73.227,49.512-100.396c27.168-27.169,62.558-44.566,100.396-49.513
	v32.736c0,7.634,6.21,13.845,13.844,13.845L264.836,129.993L264.836,129.993z"/>
<path d="M498.156,233.32h-24.99c-5.146-49.663-27.278-96.202-62.781-131.705c-35.502-35.503-82.041-57.636-131.704-62.781V13.845
	C278.68,6.211,272.469,0,264.836,0h-17.671c-7.634,0-13.844,6.211-13.844,13.845v24.986c-44.63,4.587-86.057,22.506-120.188,52.065
	c-3.131,2.711-3.472,7.447-0.76,10.579c2.712,3.131,7.448,3.469,10.58,0.76c33.433-28.954,74.375-45.915,118.4-49.048
	c3.926-0.279,6.968-3.546,6.968-7.481V15h15.36v30.706c0,3.936,3.042,7.202,6.968,7.481c48.665,3.463,94.524,24.429,129.13,59.035
	c34.606,34.605,55.571,80.465,59.034,129.13c0.279,3.926,3.546,6.968,7.481,6.968H497v15.36h-30.706
	c-3.936,0-7.202,3.042-7.481,6.968c-3.152,44.313-20.294,85.464-49.571,119.002c-2.724,3.121-2.402,7.858,0.718,10.583
	c1.423,1.241,3.18,1.85,4.93,1.85c2.09,0,4.17-0.869,5.653-2.567c29.9-34.253,48.014-75.898,52.628-120.835h24.986
	c7.634,0,13.844-6.211,13.844-13.845v-17.672C512,239.53,505.79,233.32,498.156,233.32z"/>
<g>
</g>
<g>
</g>
<g>
</g>
<g>
</g>
<g>
</g>
<g>
</g>
<g>
</g>
<g>
</g>
<g>
</g>
<g>
</g>
<g>
</g>
<g>
</g>
<g>
</g>
<g>
</g>
<g>
</g>
</svg>
