<?xml version="1.0" encoding="iso-8859-1"?>
<!-- Generator: Adobe Illustrator 19.0.0, SVG Export Plug-In . SVG Version: 6.00 Build 0)  -->
<svg version="1.1" id="Capa_1" xmlns="http://www.w3.org/2000/svg" xmlns:xlink="http://www.w3.org/1999/xlink" x="0px" y="0px"
	 viewBox="0 0 511.999 511.999" style="enable-background:new 0 0 511.999 511.999;" xml:space="preserve">
<path style="fill:#DFEAEF;" d="M294.814,102.994V7.669h-77.63v95.325c0,27.422-19.09,51.145-45.877,57.012l0,0
	c-26.787,5.867-45.877,29.591-45.877,57.012v248.805c0,21.359,17.315,38.674,38.674,38.674h183.79
	c21.359,0,38.674-17.315,38.674-38.674V217.019c0-27.422-19.09-51.145-45.877-57.012l0,0
	C313.904,154.14,294.814,130.416,294.814,102.994z"/>
<path style="fill:#BFCFD6;" d="M340.69,160.006L340.69,160.006c-26.787-5.867-45.877-29.591-45.877-57.012V7.669h-40.511v95.325
	c0,27.422,19.09,51.145,45.877,57.012l0,0c26.787,5.867,45.877,29.591,45.877,57.012v248.805c0,21.359-17.315,38.674-38.674,38.674
	h40.511c21.359,0,38.674-17.315,38.674-38.674V217.019C386.568,189.597,367.478,165.873,340.69,160.006z"/>
<path style="fill:#FF6D3A;" d="M217.184,102.994c0,27.422-19.09,51.145-45.877,57.012l0,0
	c-26.787,5.867-45.877,29.591-45.877,57.012v248.805c0,21.359,17.315,38.674,38.674,38.674h183.79
	c21.359,0,38.674-17.315,38.674-38.674V217.019c0-27.422-19.09-51.145-45.877-57.012l0,0c-26.787-5.867-45.877-29.59-45.877-57.012
	L217.184,102.994L217.184,102.994z"/>
<path style="fill:#ED5729;" d="M384.629,202.077c-0.422-1.596-0.911-3.167-1.463-4.71c-0.276-0.771-0.568-1.536-0.875-2.293
	c-0.615-1.514-1.292-2.998-2.028-4.448c-4.785-9.427-12.074-17.442-21.103-23.093c-1.389-0.869-2.82-1.683-4.288-2.437
	c-0.734-0.377-1.478-0.739-2.232-1.086c-3.766-1.735-7.764-3.087-11.949-4.004l0,0l0,0c-1.674-0.367-3.318-0.803-4.93-1.306
	c-1.611-0.503-3.19-1.072-4.732-1.704c-21.599-8.846-36.215-30.009-36.215-54.003h-40.511c0,27.422,19.09,51.145,45.877,57.012l0,0
	c26.787,5.867,45.877,29.591,45.877,57.012v248.805c0,21.359-17.315,38.674-38.674,38.674h40.511
	c21.359,0,38.674-17.315,38.674-38.674V217.019c0-2.571-0.168-5.109-0.494-7.603S385.263,204.472,384.629,202.077z"/>
<path style="fill:#45748C;" d="M298.652,50.037h-85.307c-2.547,0-4.612-2.065-4.612-4.612V12.114c0-2.547,2.065-4.612,4.612-4.612
	h85.307c2.547,0,4.612,2.065,4.612,4.612v33.311C303.264,47.972,301.199,50.037,298.652,50.037z"/>
<path style="fill:#2D5872;" d="M298.652,7.502h-40.53c2.547,0,4.612,2.065,4.612,4.612v33.311c0,2.547-2.065,4.612-4.612,4.612
	h40.53c2.547,0,4.612-2.065,4.612-4.612V12.114C303.264,9.567,301.199,7.502,298.652,7.502z"/>
<path style="fill:#45748C;" d="M125.43,217.019v245.152h261.138V217.019c0-1.791-0.086-3.565-0.245-5.32H125.676
	C125.516,213.454,125.43,215.228,125.43,217.019z"/>
<path style="fill:#2D5872;" d="M386.509,214.55c-0.006-0.155-0.015-0.309-0.023-0.464c-0.04-0.782-0.091-1.561-0.161-2.335
	c-0.002-0.017-0.003-0.035-0.004-0.053h-40.51c0.16,1.755,0.246,3.529,0.246,5.32V462.17h40.511V217.019l0,0
	C386.568,216.192,386.544,215.37,386.509,214.55z"/>
<path style="fill:#FFFFFF;" d="M290.066,246.021H221.93c-23.172,0-41.957,18.785-41.957,41.957v56.657
	c0,9.082,5.754,17.167,14.335,20.142l4.439,1.539c5.924,2.054,9.896,7.635,9.896,13.905l-0.001,35.789
	c0,6.538,5.3,11.839,11.839,11.839l0,0c6.538,0,11.839-5.301,11.839-11.839c0,6.538,5.3,11.839,11.839,11.839
	s11.839-5.301,11.839-11.839c0,6.538,5.3,11.839,11.839,11.839l0,0c6.538,0,11.839-5.301,11.839-11.839
	c0,6.538,5.3,11.839,11.839,11.839s11.839-5.301,11.839-11.839v-35.79c0-6.27,3.972-11.851,9.896-13.905l4.439-1.539
	c8.581-2.975,14.335-11.06,14.335-20.142v-56.657C332.023,264.806,313.238,246.021,290.066,246.021z M232.194,330.951
	c-3.299,3.241-7.74,5.057-12.365,5.057l0,0c-9.745,0-17.644-7.9-17.644-17.644v-21.72c0-9.745,7.9-17.644,17.644-17.644h7.79
	c9.745,0,17.644,7.9,17.644,17.644v14.068c0,4.734-1.902,9.27-5.279,12.587L232.194,330.951z M267.504,368.061h-23.01
	c-4.52,0-7.045-5.216-4.242-8.761l11.505-14.55c2.165-2.738,6.318-2.738,8.483,0l11.505,14.55
	C274.548,362.845,272.023,368.061,267.504,368.061z M309.813,318.364c0,9.745-7.9,17.644-17.644,17.644l0,0
	c-4.625,0-9.065-1.816-12.365-5.057l-7.789-7.652c-3.377-3.317-5.279-7.853-5.279-12.587v-14.068c0-9.745,7.9-17.644,17.644-17.644
	h7.789c9.745,0,17.644,7.9,17.644,17.644L309.813,318.364L309.813,318.364z"/>
<path d="M220.482,435.351c4.456,0,8.565-1.515,11.839-4.056c3.274,2.542,7.383,4.056,11.839,4.056c4.457,0,8.565-1.515,11.839-4.056
	c3.274,2.542,7.383,4.056,11.839,4.056c4.457,0,8.565-1.515,11.839-4.056c3.274,2.542,7.383,4.056,11.839,4.056
	c10.665,0,19.341-8.677,19.341-19.342V380.22c0-3.071,1.949-5.81,4.851-6.816l4.439-1.539c11.591-4.018,19.379-14.961,19.379-27.23
	v-56.657c0-27.272-22.187-49.459-49.459-49.459h-68.135c-27.272,0-49.459,22.187-49.459,49.459v56.657
	c0,12.269,7.788,23.212,19.379,27.23l4.438,1.539c2.902,1.006,4.851,3.745,4.851,6.816l-0.001,35.789
	C201.14,426.674,209.816,435.351,220.482,435.351z M196.767,357.688c-5.557-1.927-9.29-7.172-9.29-13.054v-56.657
	c0-18.998,15.456-34.454,34.455-34.454h68.135c18.998,0,34.455,15.456,34.455,34.454v56.657c0,5.881-3.733,11.127-9.29,13.054
	l-4.439,1.539c-8.936,3.099-14.94,11.535-14.94,20.993v35.789c0,2.391-1.945,4.337-4.336,4.337s-4.336-1.945-4.336-4.337
	c0-4.143-3.359-7.502-7.502-7.502s-7.502,3.359-7.502,7.502c0,2.391-1.945,4.337-4.337,4.337c-2.391,0-4.336-1.945-4.336-4.337
	c0-4.143-3.359-7.502-7.502-7.502s-7.502,3.359-7.502,7.502c0,2.391-1.945,4.337-4.337,4.337c-2.391,0-4.336-1.945-4.336-4.337
	c0-4.143-3.359-7.502-7.502-7.502s-7.502,3.359-7.502,7.502c0,2.391-1.945,4.337-4.337,4.337c-2.391,0-4.336-1.945-4.336-4.337
	l0.001-35.789c0-9.458-6.004-17.894-14.94-20.993L196.767,357.688z"/>
<path d="M274.547,336.303c4.731,4.648,10.99,7.208,17.622,7.208c13.866,0,25.147-11.281,25.147-25.146v-21.72
	c0-13.866-11.281-25.147-25.147-25.147h-7.79c-13.866,0-25.146,11.281-25.146,25.147v14.068c0,6.703,2.743,13.242,7.524,17.939
	L274.547,336.303z M274.238,296.644c0-5.592,4.549-10.142,10.141-10.142h7.79c5.592,0,10.142,4.55,10.142,10.142v21.72
	c0,5.592-4.55,10.141-10.142,10.141c-2.675,0-5.199-1.033-7.107-2.907l-7.79-7.651c-1.928-1.895-3.034-4.532-3.034-7.235V296.644z"
	/>
<path d="M219.829,343.511c6.632,0,12.89-2.559,17.622-7.207l0,0l7.789-7.652c4.782-4.697,7.524-11.236,7.524-17.939v-14.068
	c0-13.866-11.281-25.147-25.147-25.147h-7.789c-13.866,0-25.147,11.281-25.147,25.147v21.72
	C194.682,332.23,205.963,343.511,219.829,343.511z M209.687,296.644c0-5.592,4.55-10.142,10.142-10.142h7.789
	c5.592,0,10.142,4.55,10.142,10.142v14.068c0,2.704-1.106,5.341-3.035,7.235l-7.789,7.652c-1.909,1.875-4.433,2.907-7.107,2.907
	c-5.592,0-10.142-4.549-10.142-10.141V296.644z"/>
<path d="M245.872,340.097l-11.505,14.55c-3.096,3.916-3.669,9.139-1.493,13.632c2.176,4.493,6.628,7.285,11.619,7.285h23.01
	c4.992,0,9.444-2.791,11.619-7.284c2.176-4.493,1.604-9.717-1.493-13.633l-11.505-14.55c-2.463-3.115-6.154-4.902-10.125-4.902l0,0
	C252.028,335.194,248.337,336.981,245.872,340.097z M255.999,351.482l7.178,9.077h-14.355L255.999,351.482z"/>
<path d="M386.568,400.149c4.143,0,7.502-3.359,7.502-7.502V217.019c0-0.975-0.024-1.949-0.068-2.921
	c-0.01-0.22-0.031-0.442-0.043-0.663c-0.041-0.741-0.086-1.481-0.152-2.219c-0.006-0.066-0.007-0.131-0.013-0.196
	c-0.007-0.082-0.024-0.161-0.034-0.242c-1.225-12.76-6.167-25.018-14.241-35.051c-9.383-11.661-22.603-19.846-37.224-23.048
	c-23.165-5.074-39.979-25.969-39.979-49.684V56.97c4.894-1.557,8.451-6.142,8.451-11.545V12.114c0-6.68-5.434-12.114-12.114-12.114
	h-85.307c-6.68,0-12.114,5.434-12.114,12.114v33.311c0,5.403,3.557,9.988,8.451,11.545v46.024c0,23.715-16.814,44.61-39.98,49.684
	c-14.621,3.202-27.84,11.387-37.223,23.048c-8.07,10.029-13.011,22.281-14.239,35.036c-0.011,0.086-0.028,0.17-0.036,0.257
	c-0.006,0.07-0.008,0.139-0.014,0.208c-0.063,0.71-0.106,1.423-0.146,2.135c-0.014,0.246-0.037,0.493-0.048,0.738
	c-0.044,0.971-0.068,1.944-0.068,2.918v248.805c0,25.461,20.715,46.176,46.176,46.176h183.79c25.461,0,46.176-20.715,46.176-46.176
	v-38.265c0-4.143-3.359-7.502-7.502-7.502s-7.502,3.359-7.502,7.502v27.109H132.933V219.201h24.49c4.143,0,7.502-3.359,7.502-7.502
	s-3.359-7.502-7.502-7.502h-22.819c4.788-18.099,19.439-32.728,38.308-36.861c14.621-3.202,27.841-11.387,37.224-23.048
	c7.807-9.702,12.683-21.485,14.105-33.79h63.516c1.422,12.305,6.298,24.088,14.105,33.79c9.383,11.661,22.603,19.846,37.224,23.048
	c18.868,4.133,33.52,18.762,38.308,36.861H192.335c-4.143,0-7.502,3.359-7.502,7.502s3.359,7.502,7.502,7.502h186.73v173.446
	C379.065,396.79,382.423,400.149,386.568,400.149z M378.819,469.673c-1.904,15.377-15.041,27.322-30.925,27.322h-183.79
	c-15.884,0-29.022-11.945-30.925-27.322H378.819z M287.311,95.492h-62.625V57.539h62.625V95.492z M295.762,42.534h-79.526V15.005
	h79.526V42.534z"/>
<g>
</g>
<g>
</g>
<g>
</g>
<g>
</g>
<g>
</g>
<g>
</g>
<g>
</g>
<g>
</g>
<g>
</g>
<g>
</g>
<g>
</g>
<g>
</g>
<g>
</g>
<g>
</g>
<g>
</g>
</svg>
