<svg id="Capa_1" enable-background="new 0 0 512 512" height="512" viewBox="0 0 512 512" width="512" xmlns="http://www.w3.org/2000/svg"><g><g><path d="m416.36 144.4c12.06-10.98 19.64-26.8 19.64-44.4v-90h-30c-42.62 0-78.32 29.63-87.64 69.41-19.7-6.12-40.65-9.41-62.36-9.41s-42.66 3.29-62.36 9.41c-9.32-39.78-45.02-69.41-87.64-69.41h-30v90c0 17.6 7.58 33.42 19.64 44.4-30.97 36.58-49.64 83.91-49.64 135.6v162l60-34.29v64.29l74.75-29.9h150.5l74.75 29.9v-64.29l60 34.29v-162c0-51.69-18.67-99.02-49.64-135.6z" fill="#766e6e"/><path d="m219.42 502c-13.76 0-25.76-9.37-29.1-22.72-5.571-22.059-6.845-28.02-9.57-37.18-12.71-43.37-35.81-87.16-67.28-118.63-18.43-18.43-6.51-51.46 22.53-51.33v-46.14c0-33.14 26.86-60 60-60s60 26.86 60 60c0-33.14 26.86-60 60-60s60 26.86 60 60v46.14c29.04-.13 40.96 32.9 22.53 51.33-31.47 31.47-54.57 75.26-67.28 118.63-2.723 9.152-3.95 14.927-9.57 37.18-3.34 13.35-15.34 22.72-29.1 22.72-19.895 0-61.55 0-73.16 0z" fill="#f4e9e2"/><path d="m286 397v4.64c0 8.5-3.61 16.61-9.93 22.3l-20.07 18.06-20.07-18.06c-6.32-5.69-9.93-13.8-9.93-22.3v-4.64c16.57-16.57 43.43-16.57 60 0z" fill="#766e6e"/></g><g><circle cx="316" cy="256" r="10"/><circle cx="196" cy="256" r="10"/><circle cx="466" cy="315.999" r="10"/><path d="m36 442c0 3.564 1.897 6.86 4.981 8.649 3.084 1.79 6.886 1.8 9.981.033l45.038-25.739v47.057c0 3.318 1.646 6.42 4.394 8.28 2.726 1.847 6.214 2.245 9.32 1.005l64.358-25.741c.58 2.277 3.989 15.938 6.547 26.164 4.463 17.835 20.418 30.292 38.801 30.292h73.16c18.383 0 34.338-12.457 38.802-30.295 3.544-14.164 5.921-23.703 6.546-26.161l64.358 25.741c3.055 1.22 6.546.873 9.32-1.005 2.748-1.86 4.394-4.962 4.394-8.28v-47.058l45.038 25.74c3.095 1.768 6.898 1.757 9.981-.033 3.084-1.789 4.981-5.085 4.981-8.649v-81.001c0-5.522-4.477-10-10-10s-10 4.478-10 10v63.769l-45.038-25.74c-3.095-1.767-6.897-1.756-9.981.033s-4.981 5.085-4.981 8.649v49.521l-52.474-20.989c13.566-41.761 35.413-79.039 62.075-105.701 11.511-11.511 14.891-28.683 8.612-43.748-5.088-12.207-15.464-20.69-28.212-23.572v-37.221c0-38.598-31.402-70-70-70-25.431 0-47.74 13.635-60 33.976-12.261-20.341-34.57-33.976-60.001-33.976-38.598 0-70 31.402-70 70v37.221c-12.747 2.883-23.124 11.366-28.212 23.572-6.279 15.065-2.899 32.237 8.611 43.748 26.655 26.655 48.498 63.921 62.074 105.701l-52.473 20.988v-49.52c0-3.564-1.897-6.86-4.981-8.649s-6.886-1.801-9.981-.033l-45.038 25.74v-144.768c0-109.967 89.025-200 200-200 107.653 0 195.331 84.962 199.819 191.42.233 5.519 4.89 9.803 10.413 9.57 5.518-.232 9.802-4.895 9.57-10.412-1.947-46.189-17.864-89.446-46.144-125.669 10.463-12.527 16.342-28.436 16.342-44.909v-90c0-5.522-4.477-10-10-10h-30c-42.054 0-80.201 26.44-94.428 67.087-18.057-4.7-36.703-7.087-55.572-7.087s-37.515 2.387-55.572 7.087c-14.229-40.652-52.38-67.087-94.428-67.087h-30c-5.523 0-10 4.478-10 10v90c0 16.477 5.882 32.39 16.35 44.918-29.948 38.475-46.35 86.091-46.35 135.082zm220-13.452-13.379-12.039c-4.208-3.789-6.621-9.208-6.621-14.869v-.17c5.685-4.473 12.656-6.897 20-6.897s14.315 2.425 20 6.897v.17c0 5.661-2.414 11.08-6.619 14.867zm-139.752-134.06c3.226-7.739 10.542-12.349 19.588-12.349h.164c5.515 0 10-4.473 10-10v-46.139c0-27.57 22.43-50 50-50s50 22.43 50 50c0 5.522 4.477 10 10 10s10-4.478 10-10c0-27.57 22.43-50 50-50s50 22.43 50 50v46.14c0 5.515 4.473 10 10 10 .054.001.109 0 .164 0 9.044 0 16.362 4.609 19.588 12.349 2.505 6.011 2.693 14.924-4.293 21.91-53.44 53.443-68.879 118.543-79.479 160.454-2.232 8.918-10.209 15.147-19.4 15.147h-26.58v-45.546l16.761-15.082c8.413-7.575 13.239-18.412 13.239-29.732v-4.64c0-2.652-1.054-5.195-2.929-7.071-9.903-9.902-23.068-15.356-37.071-15.356s-27.168 5.454-37.071 15.356c-1.875 1.876-2.929 4.419-2.929 7.071v4.64c0 11.32 4.826 22.157 13.241 29.734l16.759 15.08v45.546h-26.58c-9.19 0-17.167-6.229-19.398-15.145-6.808-26.917-21.212-102.187-79.48-160.457-6.987-6.986-6.799-15.899-4.294-21.91zm289.752-274.488h20v80c0 10.63-3.424 20.937-9.598 29.43-23.82-25.38-53.133-44.672-85.735-56.428 11.239-31.612 41.034-53.002 75.333-53.002zm-320 0h20c34.297 0 64.093 21.392 75.333 53.002-32.602 11.756-61.915 31.048-85.735 56.428-6.174-8.493-9.598-18.8-9.598-29.43z"/></g></g></svg>