<?xml version="1.0" encoding="iso-8859-1"?>
<!-- Generator: Adobe Illustrator 19.0.0, SVG Export Plug-In . SVG Version: 6.00 Build 0)  -->
<svg version="1.1" id="Capa_1" xmlns="http://www.w3.org/2000/svg" xmlns:xlink="http://www.w3.org/1999/xlink" x="0px" y="0px"
	 viewBox="0 0 511.989 511.989" style="enable-background:new 0 0 511.989 511.989;" xml:space="preserve">
<g transform="translate(0 -1)">
	<g>
		<path style="fill:#0377BC;" d="M320.943,450.844c-57.03,57.06-144.695,70.048-215.819,31.974S-3.805,364.59,12.054,285.49
			s81.641-138.485,161.945-146.199c0.031-0.039,0.078-0.063,0.128-0.063c0.05,0,0.097,0.023,0.128,0.063
			c32.683-3.151,65.611,2.568,95.317,16.555l87.552,87.552C390.005,313.259,375.532,396.239,320.943,450.844z"/>
		<path style="fill:#02A9F4;" d="M286.809,450.844c-30.113,30.172-69.85,48.832-112.299,52.736
			C80.537,494.838,8.635,416.047,8.502,321.668C8.369,227.289,80.05,148.297,173.999,139.291c0.031-0.039,0.078-0.063,0.128-0.063
			c0.05,0,0.097,0.023,0.128,0.063c21.205,1.903,41.913,7.506,61.184,16.555l87.552,87.552
			C355.872,313.259,341.399,396.239,286.809,450.844z"/>
		<path style="fill:#0377BC;" d="M431.193,175.046c0,0-51.371,7.339-73.557,73.387c-0.293-0.091-0.578-0.205-0.853-0.341
			c-0.427-0.171-0.939-0.427-1.451-0.683c-10.141-4.835-19.726-10.758-28.587-17.664c-8.188-6.236-15.943-13.021-23.211-20.309
			c-15.492-14.998-28.331-32.511-37.973-51.797c-0.171-0.427-0.427-0.939-0.597-1.365c-0.177-0.296-0.32-0.611-0.427-0.939
			c25.51-7.568,47.518-23.922,62.123-46.165c5.457-8.334,9.279-17.63,11.264-27.392L431.193,175.046z"/>
		<path style="fill:#02A9F4;" d="M392.537,175.046c0,0-41.216,5.888-65.792,54.699c-8.188-6.236-15.943-13.021-23.211-20.309
			c-15.492-14.998-28.331-32.511-37.973-51.797c-0.171-0.427-0.427-0.939-0.597-1.365c-0.177-0.296-0.32-0.611-0.427-0.939
			c25.51-7.568,47.518-23.922,62.123-46.165L392.537,175.046z"/>
		<g>
			<path style="fill:#B0D3F0;" d="M268.548,153.542c0.106,0.328,0.25,0.643,0.427,0.939l-0.768-0.768
				C268.335,153.691,268.454,153.632,268.548,153.542z"/>
			<path style="fill:#B0D3F0;" d="M359.428,244.422c-0.09,0.094-0.149,0.213-0.171,0.341l-0.683-0.683
				C358.85,244.217,359.135,244.331,359.428,244.422z"/>
		</g>
		<path style="fill:#6A1B9A;" d="M375.471,325.233c0,33.024-82.176,59.733-183.467,59.733c-4.267,0-8.533-0.085-12.8-0.171
			C83.887,382.662,8.537,356.892,8.537,325.233s75.349-57.429,170.667-59.563c4.267-0.085,8.533-0.171,12.8-0.171
			C293.295,265.5,375.471,292.209,375.471,325.233z"/>
		<ellipse style="fill:#9D27B0;" cx="179.204" cy="325.233" rx="170.667" ry="59.563"/>
		<path style="fill:#6A1B9A;" d="M374.191,332.23c-2.898,49.533-25.803,95.761-63.457,128.073
			c-37.654,32.312-86.824,47.933-136.223,43.277c78.572-7.371,143.557-64.305,161.195-141.227
			C356.441,353.905,370.18,343.58,374.191,332.23z"/>
		<path style="fill:#9D27B0;" d="M335.705,362.353c-17.637,76.921-82.622,133.856-161.195,141.227
			c-78.802-7.3-143.963-64.47-161.451-141.653c-2.62-11.662-4.106-23.55-4.437-35.499c1.792,30.635,74.325,55.552,166.571,58.283
			h0.597c5.291,0.171,10.752,0.256,16.213,0.256C250.201,384.966,302.084,376.177,335.705,362.353z"/>
		<path style="fill:#02A9F4;" d="M462.784,132.542c4.081,3.938,7.051,8.883,8.61,14.336c3.115,12.066,2.082,22.025-3.84,27.947
			c-15.104,15.104-56.32-1.562-92.083-37.325s-52.429-76.979-37.325-92.083c5.922-5.922,15.881-6.955,27.947-3.84
			c5.453,1.559,10.398,4.529,14.336,8.61L462.784,132.542z"/>
		<path style="fill:#FEC108;" d="M500.689,84.175l-43.136,43.136c-7.945,7.945-30.464-1.707-50.347-21.572
			s-29.517-42.377-21.572-50.347l43.136-43.136L500.689,84.175z"/>
		
			<ellipse transform="matrix(-0.7071 -0.7071 0.7071 -0.7071 759.287 410.8841)" style="fill:#FFB301;" cx="464.74" cy="48.189" rx="50.833" ry="20.335"/>
	</g>
	<g transform="translate(0 1)">
		<path d="M508.173,59.119c-5.636-12.09-13.446-23.041-23.04-32.307C464.294,5.939,436.16-8.149,422.762,5.248l-37.146,37.146
			c-4.755-4.724-10.576-8.236-16.973-10.24c-19.439-5.649-29.952-0.41-35.311,4.966c-9.847,9.89-9.062,25.993-1.911,43.759
			c-1.562,7.253-12.211,45.372-65.033,63.369c-59.135-25.174-126.957-18.99-180.564,16.464S-0.017,256.157,0.004,320.427
			c0,0.751,0.102,1.493,0.111,2.244c-0.026,0.521-0.111,1.033-0.111,1.562c0.01,1.573,0.149,3.143,0.418,4.693
			c4.382,101.479,87.303,181.845,188.87,183.049c101.567,1.205,186.37-77.171,193.159-178.518
			c1.917-5.588,2.063-11.632,0.418-17.306c-0.505-24.28-5.649-48.24-15.155-70.588c17.98-52.736,55.569-63.351,63.3-64.998
			c7.612,3.318,15.782,5.168,24.081,5.453c7.305,0.332,14.429-2.335,19.721-7.381c5.367-5.376,10.59-15.863,4.966-35.311
			c-2.004-6.397-5.516-12.218-10.24-16.973l37.146-37.146C510.485,85.436,515.639,76.544,508.173,59.119z M451.537,120.286
			c-2.406,1.647-18.398-1.707-38.272-21.555c-19.874-19.849-23.211-35.925-21.581-38.281l28.407-28.407
			c0.393,1.092,0.7,2.133,1.203,3.302c5.632,12.089,13.442,23.038,23.04,32.299c9.264,9.597,20.216,17.407,32.307,23.04
			c1.143,0.486,2.202,0.853,3.268,1.237L451.537,120.286z M494.656,77.159c-2.56,1.638-18.5-1.801-38.263-21.564
			c-19.763-19.763-23.194-35.84-21.589-38.229c0.556-0.29,1.184-0.417,1.809-0.367c5.205,0,19.43,4.881,36.463,21.914
			c19.814,19.763,23.194,35.763,21.581,38.221V77.159z M68.168,197.086c51.365-51.222,129.03-65.392,195.174-35.61
			c9.716,18.493,22.27,35.348,37.205,49.954c14.611,14.921,31.462,27.468,49.946,37.188c6.283,13.918,10.699,28.606,13.133,43.682
			c-33.741-23.774-104.209-36.335-171.622-36.335c-68.096,0-139.281,12.8-172.604,37.06
			C25.044,256.675,42.127,223.069,68.168,197.086z M17.216,323.456c1.562-23.97,75.733-50.423,174.788-50.423
			c93.372,0,164.693,23.509,173.867,46.276c0,3.447-0.085,6.884-0.256,10.308c-9.975,22.63-80.87,45.815-173.611,45.815
			c-98.321,0-172.049-26.061-174.686-49.886C17.301,324.847,17.233,324.156,17.216,323.456z M314.884,443.802
			c-45.25,45.25-111.644,62.09-172.991,43.877C80.546,469.466,34.097,419.125,20.868,356.514
			C54.796,380.066,124.915,392.5,192.004,392.5c66.287,0,135.501-12.143,169.873-35.149
			C354.849,390.086,338.533,420.101,314.884,443.802z M354.726,231.672c-15.502-8.727-29.692-19.604-42.146-32.307
			c-12.71-12.454-23.59-26.646-32.316-42.155c26.985-9.89,49.128-29.789,61.833-55.569c8.639,13.734,18.808,26.445,30.31,37.888
			c11.437,11.501,24.135,21.674,37.854,30.327c-25.75,12.716-45.623,34.849-55.501,61.815H354.726z M462.715,166.571
			c-7.979,7.962-42.428-3.285-78.242-39.108s-47.087-70.255-39.108-78.234c2.944-2.953,9.677-3.191,18.517-0.64
			c3.986,1.314,7.585,3.591,10.479,6.63c0.296,0.225,0.607,0.431,0.93,0.614c-1.776,7.648-0.756,15.678,2.876,22.639
			c5.634,12.088,13.444,23.037,23.04,32.299c9.259,9.6,20.208,17.41,32.299,23.04c5.06,2.349,10.544,3.647,16.119,3.814
			c2.205-0.004,4.397-0.34,6.502-0.998c0.186,0.334,0.397,0.653,0.631,0.956c3.04,2.9,5.317,6.505,6.63,10.496
			c2.534,8.789,2.304,15.539-0.64,18.492H462.715z"/>
		<path d="M84.655,406.298c-0.19-0.542-0.448-1.058-0.768-1.536c-0.315-0.447-0.657-0.875-1.024-1.28
			c-2.065-1.976-4.957-2.834-7.765-2.304c-0.535,0.093-1.052,0.265-1.536,0.512c-0.546,0.188-1.065,0.446-1.545,0.768
			c-0.443,0.317-0.867,0.659-1.271,1.024c-1.567,1.64-2.452,3.816-2.475,6.084c0.015,0.572,0.072,1.143,0.171,1.707
			c0.093,0.535,0.265,1.052,0.512,1.536c0.187,0.544,0.445,1.06,0.768,1.536c0.315,0.447,0.657,0.875,1.024,1.28
			c0.404,0.365,0.829,0.707,1.271,1.024c0.479,0.322,0.999,0.58,1.545,0.768c0.484,0.247,1.001,0.419,1.536,0.512
			c0.564,0.099,1.134,0.156,1.707,0.171c2.259-0.033,4.422-0.917,6.059-2.475c0.367-0.405,0.709-0.833,1.024-1.28
			c0.32-0.478,0.578-0.994,0.768-1.536c0.248-0.482,0.418-1.001,0.503-1.536c0.106-0.563,0.166-1.134,0.179-1.707
			c-0.018-0.573-0.077-1.143-0.179-1.707C85.075,407.315,84.905,406.788,84.655,406.298z"/>
		<path d="M136.358,416.393c-0.085-0.535-0.255-1.054-0.503-1.536c-0.19-0.542-0.448-1.058-0.768-1.536
			c-0.315-0.447-0.657-0.875-1.024-1.28c-2.065-1.976-4.957-2.834-7.765-2.304c-0.535,0.093-1.052,0.266-1.536,0.512
			c-0.546,0.188-1.065,0.446-1.545,0.768c-0.443,0.317-0.867,0.659-1.271,1.024c-1.562,1.634-2.446,3.799-2.475,6.059
			c0.015,0.572,0.072,1.143,0.171,1.707c0.093,0.535,0.265,1.052,0.512,1.536c0.187,0.544,0.445,1.06,0.768,1.536
			c0.315,0.447,0.657,0.875,1.024,1.28c0.404,0.365,0.829,0.707,1.271,1.024c0.479,0.322,0.999,0.58,1.545,0.768
			c0.484,0.247,1.001,0.419,1.536,0.512c0.564,0.099,1.134,0.156,1.707,0.171c2.259-0.033,4.422-0.917,6.059-2.475
			c0.367-0.405,0.709-0.833,1.024-1.28c0.32-0.478,0.578-0.994,0.768-1.536c0.248-0.482,0.418-1.001,0.503-1.536
			c0.106-0.563,0.166-1.134,0.179-1.707C136.52,417.527,136.46,416.957,136.358,416.393z"/>
		<path d="M152.921,457.498c-0.19-0.542-0.448-1.058-0.768-1.536c-0.315-0.447-0.657-0.875-1.024-1.28
			c-2.065-1.976-4.957-2.834-7.765-2.304c-0.535,0.093-1.052,0.266-1.536,0.512c-0.546,0.188-1.065,0.446-1.545,0.768
			c-0.443,0.317-0.867,0.659-1.271,1.024c-1.568,1.64-2.452,3.816-2.475,6.084c0.015,0.572,0.072,1.143,0.171,1.707
			c0.093,0.535,0.266,1.052,0.512,1.536c0.187,0.544,0.445,1.06,0.768,1.536c0.315,0.447,0.657,0.875,1.024,1.28
			c0.404,0.365,0.829,0.707,1.271,1.024c0.479,0.322,0.999,0.58,1.545,0.768c0.484,0.246,1.001,0.419,1.536,0.512
			c0.564,0.099,1.134,0.156,1.707,0.171c2.259-0.033,4.422-0.917,6.059-2.475c0.367-0.405,0.709-0.833,1.024-1.28
			c0.32-0.478,0.578-0.994,0.768-1.536c0.248-0.482,0.418-1.001,0.503-1.536c0.106-0.563,0.166-1.134,0.179-1.707
			c-0.018-0.573-0.077-1.143-0.179-1.707C153.342,458.515,153.172,457.988,152.921,457.498z"/>
		<path d="M194.82,422.878c0.32-0.478,0.578-0.994,0.768-1.536c0.248-0.482,0.418-1.001,0.503-1.536
			c0.106-0.563,0.166-1.134,0.179-1.707c-0.018-0.573-0.077-1.143-0.179-1.707c-0.085-0.535-0.255-1.054-0.503-1.536
			c-0.19-0.542-0.448-1.058-0.768-1.536c-0.315-0.447-0.657-0.875-1.024-1.28c-2.065-1.976-4.957-2.834-7.765-2.304
			c-0.535,0.093-1.052,0.266-1.536,0.512c-0.546,0.188-1.065,0.446-1.545,0.768c-0.443,0.317-0.867,0.659-1.271,1.024
			c-1.561,1.634-2.446,3.799-2.475,6.059c0.015,0.572,0.072,1.143,0.171,1.707c0.093,0.535,0.266,1.052,0.512,1.536
			c0.187,0.544,0.445,1.06,0.768,1.536c0.315,0.447,0.657,0.875,1.024,1.28c0.404,0.365,0.829,0.707,1.271,1.024
			c0.479,0.322,0.999,0.58,1.545,0.768c0.484,0.247,1.001,0.419,1.536,0.512c0.564,0.099,1.134,0.156,1.707,0.171
			c2.259-0.033,4.422-0.917,6.059-2.475C194.163,423.753,194.505,423.325,194.82,422.878z"/>
		<path d="M205.145,469.103c-0.187-0.544-0.445-1.06-0.768-1.536c-0.315-0.447-0.657-0.875-1.024-1.28
			c-2.064-1.977-4.957-2.835-7.765-2.304c-0.535,0.093-1.052,0.266-1.536,0.512c-0.544,0.186-1.06,0.445-1.536,0.768
			c-0.447,0.315-0.875,0.657-1.28,1.024c-1.561,1.634-2.446,3.799-2.475,6.059c0.015,0.572,0.072,1.143,0.171,1.707
			c0.093,0.535,0.266,1.052,0.512,1.536c0.186,0.544,0.445,1.06,0.768,1.536c0.588,0.929,1.375,1.716,2.304,2.304
			c0.476,0.323,0.992,0.582,1.536,0.768c0.484,0.247,1.001,0.419,1.536,0.512c0.564,0.099,1.134,0.156,1.707,0.171
			c2.259-0.033,4.422-0.917,6.059-2.475c0.367-0.405,0.709-0.833,1.024-1.28c0.323-0.475,0.581-0.992,0.768-1.536
			c0.247-0.484,0.419-1.001,0.512-1.536c0.099-0.564,0.156-1.134,0.171-1.707c-0.019-0.572-0.076-1.142-0.171-1.707
			C205.564,470.105,205.392,469.587,205.145,469.103z"/>
		<path d="M238.255,431.924c-0.19-0.542-0.448-1.058-0.768-1.536c-0.315-0.447-0.657-0.875-1.024-1.28
			c-2.065-1.976-4.957-2.834-7.765-2.304c-0.535,0.093-1.052,0.266-1.536,0.512c-0.546,0.188-1.065,0.446-1.545,0.768
			c-0.443,0.317-0.867,0.659-1.271,1.024c-1.562,1.634-2.446,3.799-2.475,6.059c0.015,0.572,0.072,1.143,0.171,1.707
			c0.093,0.535,0.266,1.052,0.512,1.536c0.187,0.544,0.445,1.06,0.768,1.536c0.315,0.447,0.657,0.875,1.024,1.28
			c0.404,0.365,0.829,0.707,1.271,1.024c0.479,0.322,0.999,0.58,1.545,0.768c0.484,0.247,1.001,0.419,1.536,0.512
			c0.564,0.099,1.134,0.156,1.707,0.171c2.259-0.033,4.422-0.917,6.059-2.475c0.367-0.405,0.709-0.833,1.024-1.28
			c0.32-0.478,0.578-0.994,0.768-1.536c0.248-0.482,0.418-1.001,0.503-1.536c0.106-0.563,0.166-1.134,0.179-1.707
			c-0.018-0.573-0.077-1.143-0.179-1.707C238.673,432.924,238.503,432.406,238.255,431.924z"/>
		<path d="M270.596,424.133c0.367-0.405,0.709-0.833,1.024-1.28c0.32-0.478,0.578-0.994,0.768-1.536
			c0.248-0.482,0.418-1.001,0.503-1.536c0.105-0.555,0.165-1.117,0.179-1.681c-0.018-0.573-0.078-1.143-0.179-1.707
			c-0.085-0.535-0.255-1.054-0.503-1.536c-0.19-0.542-0.448-1.058-0.768-1.536c-0.315-0.447-0.657-0.875-1.024-1.28
			c-2.065-1.976-4.957-2.834-7.765-2.304c-0.535,0.093-1.052,0.266-1.536,0.512c-0.546,0.188-1.065,0.446-1.545,0.768
			c-0.443,0.317-0.867,0.659-1.271,1.024c-1.561,1.634-2.446,3.799-2.475,6.059c0.015,0.572,0.072,1.143,0.171,1.707
			c0.093,0.535,0.265,1.052,0.512,1.536c0.186,0.544,0.445,1.06,0.768,1.536c0.315,0.447,0.657,0.875,1.024,1.28
			c0.404,0.365,0.829,0.707,1.271,1.024c0.479,0.322,0.999,0.58,1.545,0.768c0.484,0.247,1.001,0.419,1.536,0.512
			c0.564,0.099,1.134,0.156,1.707,0.171C266.8,426.593,268.964,425.7,270.596,424.133z"/>
		<path d="M280.921,448.965c-0.19-0.542-0.448-1.058-0.768-1.536c-0.315-0.447-0.657-0.875-1.024-1.28
			c-2.065-1.976-4.957-2.834-7.765-2.304c-0.535,0.093-1.052,0.266-1.536,0.512c-0.546,0.188-1.065,0.446-1.545,0.768
			c-0.443,0.317-0.867,0.659-1.271,1.024c-1.568,1.64-2.452,3.816-2.475,6.084c0.015,0.572,0.072,1.143,0.171,1.707
			c0.093,0.535,0.266,1.052,0.512,1.536c0.186,0.544,0.445,1.06,0.768,1.536c0.315,0.447,0.657,0.875,1.024,1.28
			c0.404,0.365,0.829,0.707,1.271,1.024c0.479,0.322,0.999,0.58,1.545,0.768c0.484,0.247,1.001,0.419,1.536,0.512
			c0.564,0.099,1.134,0.156,1.707,0.171c2.259-0.033,4.422-0.917,6.059-2.475c0.367-0.405,0.709-0.833,1.024-1.28
			c0.32-0.478,0.578-0.994,0.768-1.536c0.248-0.482,0.418-1.001,0.503-1.536c0.106-0.563,0.166-1.134,0.179-1.707
			c-0.018-0.573-0.078-1.143-0.179-1.707C281.342,449.982,281.172,449.455,280.921,448.965z"/>
		<path d="M315.558,407.859c-0.085-0.535-0.255-1.054-0.503-1.536c-0.19-0.542-0.448-1.058-0.768-1.536
			c-0.315-0.447-0.657-0.875-1.024-1.28c-2.065-1.976-4.957-2.834-7.765-2.304c-0.535,0.093-1.052,0.266-1.536,0.512
			c-0.546,0.188-1.065,0.446-1.545,0.768c-0.443,0.317-0.867,0.659-1.271,1.024c-1.561,1.634-2.446,3.799-2.475,6.059
			c0.015,0.572,0.072,1.143,0.171,1.707c0.093,0.535,0.266,1.052,0.512,1.536c0.186,0.544,0.445,1.06,0.768,1.536
			c0.315,0.447,0.657,0.875,1.024,1.28c0.404,0.365,0.829,0.707,1.271,1.024c0.479,0.322,0.999,0.58,1.545,0.768
			c0.484,0.247,1.001,0.419,1.536,0.512c0.564,0.099,1.134,0.156,1.707,0.171c2.259-0.033,4.422-0.917,6.059-2.475
			c0.367-0.405,0.709-0.833,1.024-1.28c0.32-0.478,0.578-0.994,0.768-1.536c0.248-0.482,0.418-1.001,0.503-1.536
			c0.106-0.563,0.166-1.134,0.179-1.707C315.72,408.994,315.66,408.423,315.558,407.859z"/>
	</g>
</g>
<g>
</g>
<g>
</g>
<g>
</g>
<g>
</g>
<g>
</g>
<g>
</g>
<g>
</g>
<g>
</g>
<g>
</g>
<g>
</g>
<g>
</g>
<g>
</g>
<g>
</g>
<g>
</g>
<g>
</g>
</svg>
