<svg height="512pt" viewBox="0 -6 512.002 512" width="512pt" xmlns="http://www.w3.org/2000/svg"><path d="m98.539062 213.308594s9.527344-117.109375 102.457032-148.484375c39.1875-13.226563 64.738281-31.3125 81.183594-47.800781 15.640624-15.683594 42.484374-8.792969 48.839843 12.421874 25.9375 86.570313 44.234375 250.707032-164.328125 302.355469 1.289063-.988281-68.152344-118.492187-68.152344-118.492187zm0 0" fill="#ff5d9c"/><path d="m353.4375 272.664062s54.0625 23.542969 67.113281 85.0625c5.527344 26.070313 18.089844 40.234376 30.726563 47.902344 10.765625 6.527344 9.273437 22.605469-2.449219 27.191406-48.5 18.957032-135.144531 34.941407-200.851563-51.789062-2.667968-4.660156 105.460938-108.367188 105.460938-108.367188zm0 0" fill="#ff83b4"/><path d="m413.84375 336.230469c-19.125-45.589844-60.40625-63.566407-60.40625-63.566407s-108.128906 103.707032-105.460938 108.367188c21.675782 28.609375 45.628907 46.042969 69.742188 55.878906 5.40625-24.464844 24.652344-44.261718 44.984375-50.507812 27.246094-8.371094 42.9375-32.3125 51.140625-50.171875zm0 0" fill="#ff5d9c"/><path d="m216.703125 222.886719s29.539063-113.722657 126.480469-128.636719c40.878906-6.289062 69.160156-19.703125 88.199218-33.117188 18.105469-12.757812 43.363282-1.351562 45.972657 20.640626 10.652343 89.746093.429687 254.582031-213.90625 269.566406 1.433593-.753906-46.746094-128.453125-46.746094-128.453125zm0 0" fill="#ffabcd"/><path d="m216.703125 222.886719s48.179687 127.699219 46.746094 128.453125c30.261719-2.117188 56.453125-7.21875 79.09375-14.675782-1.902344-14.910156-1.09375-31.265624 3.863281-48.917968 19.804688-70.464844-11.273438-153.515625-26.457031-187.695313-78.5 27.589844-103.246094 122.835938-103.246094 122.835938zm0 0" fill="#ff83b4"/><path d="m45.902344 351.339844c-22.589844 0-29.507813-10.714844-29.515625-22.875-.015625-23.101563 22.488281-21.289063 22.738281-21.28125 36.597656 1.222656 63.5-7.25 79.960938-25.148438 24.269531-26.390625 19.863281-66.625 19.816406-67.03125l43.699218-5.464844c.308594 2.441407 7.1875 60.25-30.730468 101.90625-24.117188 26.488282-59.742188 39.894532-105.96875 39.894532zm0 0" fill="#ffb39d"/><path d="m301.898438 493.140625c22.589843 0 29.515624-10.714844 29.515624-22.875 0-22.5-22.488281-21.289063-22.738281-21.28125-36.597656 1.222656-63.5-7.25-79.960937-25.148437-24.269532-26.390626-19.863282-66.625-19.816406-67.03125l-43.699219-5.464844c-.308594 2.4375-7.1875 60.253906 30.730469 101.90625 24.117187 26.492187 59.742187 39.894531 105.96875 39.894531zm0 0" fill="#ffb39d"/><path d="m354.078125 475.746094c22.59375 0 29.515625-10.710938 29.515625-22.875 0-23.371094-22.488281-21.285156-22.738281-21.277344-36.597657 1.21875-63.5-7.25-79.960938-25.148438-24.265625-26.394531-19.859375-66.628906-19.8125-67.03125l-43.699219-5.46875c-.3125 2.441407-7.191406 60.253907 30.730469 101.910157 24.113281 26.488281 59.742188 39.890625 105.964844 39.890625zm0 0" fill="#ffcbbe"/><path d="m120.566406 232.292969s-25.378906 117.132812 38.625 220.425781c5.917969 9.554688 19.796875 9.671875 25.960938.277344 8.394531-12.792969 17.964844-27.136719 17.964844-27.136719l28.527343 14.476563c11.496094 5.835937 25.53125.824218 30.734375-10.96875l12.667969-28.71875 38.101563-2.382813c9.679687-.605469 14.28125-12.226563 7.617187-19.273437-31.371094-33.183594-93.679687-108.015626-95.804687-180.796876zm0 0" fill="#60daa8"/><path d="m254.910156 291.648438c-16.453125-29.070313-29.015625-61.460938-29.949218-93.453126l-104.394532 34.097657s-25.378906 117.132812 38.625 220.425781c5.917969 9.554688 19.796875 9.671875 25.960938.277344 8.394531-12.792969 17.96875-27.136719 17.96875-27.136719l28.527344 14.476563c11.492187 5.835937 25.527343.824218 30.730468-10.96875-10.246094-6.320313-18.398437-12.511719-24.886718-18.273438-14.09375-12.515625-16.597657-33.851562-5.296876-48.933594 15.023438-20.046875 20.648438-49.175781 22.714844-70.511718zm0 0" fill="#00ce8e"/><path d="m312.363281 202.902344c0 27.011718-21.902343 48.914062-48.914062 48.914062-27.015625 0-48.914063-21.902344-48.914063-48.914062 0-27.015625 21.898438-48.914063 48.914063-48.914063 27.011719 0 48.914062 21.898438 48.914062 48.914063zm0 0" fill="#b24e2f"/><path d="m85.328125 379.167969c-22.589844 0-29.507813-10.710938-29.515625-22.875-.015625-22.347657 22.488281-21.285157 22.738281-21.277344 36.597657 1.21875 63.5-7.25 79.960938-25.148437 24.269531-26.394532 19.863281-66.628907 19.816406-67.03125l43.699219-5.46875c.3125 2.441406 7.191406 60.253906-30.730469 101.910156-24.117187 26.488281-59.742187 39.890625-105.96875 39.890625zm0 0" fill="#ffcbbe"/><path d="m268.726562 167.972656c0 52.996094-42.964843 95.960938-95.960937 95.960938-53 0-95.960937-42.964844-95.960937-95.960938 0-53 42.960937-95.960937 95.960937-95.960937 52.996094 0 95.960937 42.960937 95.960937 95.960937zm0 0" fill="#ffddcf"/><path d="m151.964844 74.269531c6.699218-1.480469 13.65625-2.257812 20.800781-2.257812 48.246094 0 88.175781 35.609375 94.949219 81.976562-111.558594-10.507812-115.75-79.71875-115.75-79.71875zm0 0" fill="#dd6642"/><path d="m193.5625 74.269531c-6.699219-1.480469-13.65625-2.257812-20.796875-2.257812-48.25 0-88.179687 35.605469-94.949219 81.976562 111.558594-10.507812 115.746094-79.71875 115.746094-79.71875zm0 0" fill="#e7896e"/><path d="m66.265625 13.710938 4.425781 8.085937c4.410156 8.066406 11.042969 14.699219 19.109375 19.109375l8.085938 4.421875c8.277343 4.527344 8.277343 16.414063 0 20.941406l-8.085938 4.421875c-8.066406 4.410156-14.699219 11.042969-19.109375 19.109375l-4.425781 8.085938c-4.523437 8.277343-16.410156 8.277343-20.9375 0l-4.421875-8.085938c-4.414062-8.066406-11.046875-14.699219-19.113281-19.109375l-8.085938-4.425781c-8.277343-4.523437-8.277343-16.410156 0-20.9375l8.085938-4.421875c8.066406-4.414062 14.699219-11.046875 19.113281-19.113281l4.421875-8.085938c4.527344-8.273437 16.410156-8.273437 20.9375.003907zm0 0" fill="#b0f0ef"/><path d="m480.4375 305.242188 2.816406 5.144531c2.804688 5.132812 7.023438 9.351562 12.152344 12.15625l5.144531 2.8125c5.265625 2.878906 5.265625 10.441406 0 13.320312l-5.144531 2.8125c-5.128906 2.808594-9.347656 7.027344-12.152344 12.15625l-2.816406 5.144531c-2.878906 5.265626-10.441406 5.265626-13.320312 0l-2.8125-5.144531c-2.804688-5.128906-7.023438-9.347656-12.15625-12.15625l-5.140626-2.8125c-5.265624-2.878906-5.265624-10.441406 0-13.320312l5.140626-2.8125c5.132812-2.804688 9.351562-7.023438 12.15625-12.15625l2.8125-5.144531c2.878906-5.261719 10.441406-5.261719 13.320312 0zm0 0" fill="#b0f0ef"/><path d="m220.171875 199.960938c4.140625 0 7.5-3.359376 7.5-7.5v-12.453126c0-4.140624-3.359375-7.5-7.5-7.5-4.144531 0-7.5 3.359376-7.5 7.5v12.453126c0 4.140624 3.355469 7.5 7.5 7.5zm0 0"/><path d="m125.355469 172.507812c-4.140625 0-7.5 3.359376-7.5 7.5v12.453126c0 4.140624 3.359375 7.5 7.5 7.5 4.144531 0 7.5-3.359376 7.5-7.5v-12.453126c0-4.140624-3.355469-7.5-7.5-7.5zm0 0"/><path d="m190.425781 193.203125c2.273438-3.460937 1.308594-8.113281-2.152343-10.386719-1.269532-.832031-6.882813-2.992187-10.386719 2.152344-1.679688 2.464844-4.128907 2.761719-5.121094 2.761719-.996094 0-3.484375-.269531-5.125-2.761719-2.273437-3.460938-6.925781-4.425781-10.386719-2.152344-3.460937 2.273438-4.425781 6.925782-2.148437 10.386719 3.917969 5.96875 10.519531 9.527344 17.660156 9.527344 7.136719 0 13.738281-3.5625 17.660156-9.527344zm0 0"/><path d="m18.195312 77.269531c6.820313 3.734375 12.398438 9.3125 16.128907 16.132813l4.421875 8.085937c3.410156 6.234375 9.945312 10.109375 17.050781 10.109375s13.640625-3.875 17.050781-10.109375l4.421875-8.085937c3.730469-6.824219 9.304688-12.398438 16.128907-16.132813l8.085937-4.421875c6.234375-3.410156 10.109375-9.941406 10.109375-17.050781 0-7.105469-3.875-13.636719-10.109375-17.046875l-8.085937-4.425781c-6.820313-3.730469-12.398438-9.304688-16.128907-16.128907l-4.421875-8.085937c-3.410156-6.234375-9.945312-10.10546875-17.050781-10.109375-7.105469 0-13.640625 3.875-17.050781 10.109375l-4.421875 8.085937c-3.726563 6.820313-9.304688 12.398438-16.128907 16.128907l-8.085937 4.425781c-6.238281 3.410156-10.109375 9.941406-10.109375 17.046875 0 7.109375 3.871094 13.640625 10.109375 17.050781zm-.890624-25.359375 8.089843-4.425781c9.34375-5.109375 16.980469-12.75 22.089844-22.089844l4.421875-8.085937c1.140625-2.082032 3.101562-2.308594 3.890625-2.308594s2.75.226562 3.890625 2.304688l4.421875 8.089843c5.109375 9.339844 12.746094 16.980469 22.089844 22.089844l8.085937 4.425781c2.082032 1.136719 2.308594 3.097656 2.308594 3.886719 0 .792969-.226562 2.753906-2.308594 3.890625l-8.085937 4.421875c-9.34375 5.113281-16.980469 12.75-22.089844 22.09375l-4.425781 8.085937c-1.136719 2.082032-3.097656 2.308594-3.886719 2.308594-.792969 0-2.753906-.226562-3.890625-2.308594l-4.421875-8.085937c-5.109375-9.339844-12.75-16.980469-22.09375-22.09375l-8.085937-4.421875c-2.078126-1.136719-2.304688-3.097656-2.304688-3.890625 0-.789063.226562-2.75 2.304688-3.886719zm0 0"/><path d="m504.152344 318.777344-5.144532-2.8125c-3.878906-2.121094-7.054687-5.292969-9.175781-9.175782l-2.8125-5.144531c-2.648437-4.839843-7.722656-7.847656-13.242187-7.847656-5.515625 0-10.589844 3.007813-13.238282 7.847656l-2.8125 5.144531c-2.125 3.882813-5.296874 7.054688-9.175781 9.175782l-5.144531 2.8125c-4.839844 2.648437-7.847656 7.71875-7.847656 13.238281s3.003906 10.59375 7.847656 13.242187l5.144531 2.8125c3.878907 2.121094 7.054688 5.292969 9.175781 9.175782l2.8125 5.144531c2.648438 4.839844 7.722657 7.847656 13.238282 7.847656 5.519531 0 10.59375-3.007812 13.242187-7.847656l2.8125-5.144531c2.121094-3.878906 5.296875-7.054688 9.175781-9.175782l5.144532-2.8125c4.839844-2.648437 7.851562-7.722656 7.851562-13.242187-.003906-5.519531-3.011718-10.589844-7.851562-13.238281zm-12.34375 16.132812c-6.402344 3.5-11.636719 8.734375-15.136719 15.136719l-2.824219 5.183594c-.03125.015625-2.960937-5.183594-2.960937-5.183594-3.5-6.402344-8.734375-11.636719-15.140625-15.136719l-5.179688-2.824218c-.011718-.03125 5.183594-2.960938 5.183594-2.960938 6.402344-3.503906 11.636719-8.738281 15.136719-15.140625 0 0 2.929687-5.191406 2.9375-5.195313 0 0 2.847656 5.195313 2.847656 5.195313 3.503906 6.402344 8.734375 11.636719 15.136719 15.140625l5.183594 2.824219c.011718.03125-5.183594 2.960937-5.183594 2.960937zm0 0"/><path d="m455.167969 399.214844c-13.820313-8.386719-23-22.867188-27.28125-43.042969-3.457031-16.308594-9.9375-31.449219-19.269531-45.140625 16.105468-12.203125 29.855468-26.652344 41.15625-43.332031 2.324218-3.429688 1.425781-8.09375-2-10.417969-3.429688-2.320312-8.09375-1.425781-10.417969 2.003906-29.191407 43.082032-76.460938 70.21875-140.5 80.675782-18.363281-23.164063-38.066407-52.316407-50.800781-83.425782 5.644531 1.820313 21.660156 3.910156 35.371093-.160156 29.816407-8.859375 45.40625-41.964844 35.496094-71.449219-6.539063-19.453125-22.929687-33.589843-42.734375-37.417969-.523438-2.589843-1.136719-5.144531-1.847656-7.660156 20.671875-21.152344 44.875-34.011718 71.984375-38.183594 36.121093-5.558593 66.867187-17.132812 91.375-34.398437 6.285156-4.425781 14.261719-5.1875 21.335937-2.035156 7.144532 3.1875 11.957032 9.703125 12.871094 17.429687 4.742188 39.929688 5.570312 98.253906-17.398438 149.363282-1.695312 3.777343-.105468 8.441406 3.769532 9.914062 5.421875 2.0625 8.664062-.988281 9.914062-3.765625 24.375-54.242187 23.574219-115.46875 18.613282-157.28125-1.546876-13.023437-9.644532-24-21.660157-29.359375-11.949219-5.324219-25.4375-4.027344-36.082031 3.472656-20.582031 14.5-46.160156 24.664063-76.101562 30.296875-2.589844-18.882812-6.871094-38.355469-12.757813-58.003906-3.765625-12.566406-13.628906-21.984375-26.390625-25.195313-12.683594-3.191406-25.75.40625-34.945312 9.628907-19.523438 19.574219-45.859376 35.046875-78.269532 45.992187-5.925781 2-11.722656 4.40625-17.242187 7.148438-33.867188-2.5-51.230469 6.339844-68.878907 19.011718-3.363281 2.417969-4.132812 7.105469-1.714843 10.46875 2.414062 3.363282 7.101562 4.132813 10.464843 1.714844 15.082032-10.828125 38.410157-19.855468 63.554688-15.730468-1.667969 6.144531-5.414062 15.863281-13.722656 25.914062-16.949219 20.511719-45.808594 33.933594-83.832032 39.105469 2.644532-10.03125 7.042969-19.546875 13.109376-28.179688 2.378906-3.386719 1.5625-8.066406-1.824219-10.449219-3.390625-2.378906-8.070313-1.5625-10.449219 1.824219-12.273438 17.460938-18.757812 38.011719-18.757812 59.425781 0 33.582032 16.089843 63.476563 40.960937 82.390626-.90625 8.046874-1.792969 18.863281-2.0625 31.660156-15.210937 12.710937-38.296875 18.667968-68.734375 17.667968-2.464844-.144531-30.582031-3.03125-30.582031 28.777344 0 9.132813 6.496093 31.972656 39.519531 30.34375.722656 10.003906 6.304688 27.855469 36.921875 27.855469 12.59375 0 24.4375-.972656 35.539063-2.890625 7.480468 26.214844 18.203124 50.707031 31.949218 72.894531 4.121094 6.65625 11.269532 10.6875 19.117188 10.792969h.304687c7.230469 0 13.925781-3.34375 18.257813-9.046875 25.574218 28.011719 63.054687 42.222656 111.398437 42.222656 9.824219 0 13.613281-4.335937 13.222657-8.460937-.386719-4.121094-3.566407-6.539063-13.222657-6.539063-79.191406 0-102.023437-39.238281-102.804687-40.160156 2.492187-3.761719 4.789062-7.226563 6.578125-9.914063l22.585937 11.460938c7.019532 3.5625 14.921875 4.222656 22.386719 1.910156 25.167969 22.765625 59.929687 34.308594 103.4375 34.308594 31.554687 0 36.523437-18.941406 36.976563-28.742188 19.757812-1.785156 40.074218-6.710937 60.503906-14.699218 8.132812-3.179688 13.652344-10.566406 14.40625-19.277344.75-8.65625-3.386719-16.820312-10.796875-21.316406zm-152.464844-209.511719c7.277344 21.644531-4.414063 45.175781-26.058594 52.453125-9.960937 3.347656-20.824219 2.710938-30.28125-1.550781 18.453125-18.695313 31.375-45.960938 29.757813-77.140625 12.355468 3.960937 22.320312 13.5625 26.582031 26.238281zm-15.214844-167.386719c5.429688-5.441406 13.152344-7.5625 20.664063-5.671875 7.585937 1.910157 13.449218 7.5 15.683594 14.953125 5.722656 19.097656 9.855468 37.988282 12.332031 56.273438-25.875 5.113281-49.214844 17.382812-69.566407 36.554687-11.640624-24.984375-32.972656-44.578125-59.132812-53.921875 32.765625-11.605468 59.6875-27.796875 80.019531-48.1875zm-88.054687 61.304688c28.707031 9.097656 51.113281 32.46875 58.859375 61.742187-32.496094-4.371093-57.71875-14.488281-75.1875-30.164062.085937-.101563 13.648437-15.152344 16.328125-31.578125zm-115.128906 84.351562c0-2.402344.101562-4.792968.289062-7.164062 28.226562-3.332032 63.183594-12.242188 88.167969-34.738282 20.605469 18.648438 50.207031 30.316407 88.171875 34.738282.191406 2.363281.292968 4.75.292968 7.164062 0 48.773438-39.683593 88.460938-88.460937 88.460938s-88.460937-39.6875-88.460937-88.460938zm84.777343 103.386719c-2.21875 10.714844-6.78125 23.304687-16.089843 33.429687-7.167969 7.792969-16.65625 13.597657-28.371094 17.410157-2.375-25.386719-1.539063-47.46875-.191406-62.777344 13.417968 7.121094 28.574218 11.371094 44.652343 11.9375zm-145.195312 57.097656c-.003907-4.742187 3.023437-13.644531 14.988281-13.777343 28.695312-.316407 51.9375-3.867188 69.398438-14.347657.230468 8.015625.734374 16.527344 1.617187 25.414063-9.308594 1.554687-19.664063 1.613281-31.0625 1.773437-21.25.292969-26.554687 12.578125-28.128906 16.265625-24.769531.21875-26.808594-11.121094-26.8125-15.328125zm39.425781 27.832031c-.003906-4.46875 1.113281-7.714843 3.410156-9.925781 3.519532-3.390625 9.503906-3.9375 11.578125-3.851562 38.863281 1.289062 67.714844-7.980469 85.730469-27.570313 12.632812-13.738281 18.109375-30.703125 20.433594-44.175781 10.664062-1.203125 20.839844-4.035156 30.273437-8.238281-1.605469 20.449218-8.046875 48.695312-28.988281 71.699218-22.617188 24.84375-56.402344 37.441407-100.417969 37.445313-22.007812-.003906-22.015625-11.179687-22.019531-15.382813zm171.726562 77.359376-28.527343-14.476563c-3.386719-1.71875-7.523438-.632813-9.628907 2.527344-.097656.144531-9.6875 14.515625-18 27.183593-1.5 2.28125-3.914062 3.582032-6.640624 3.582032-.039063 0-.078126 0-.113282 0-2.738281-.035156-5.128906-1.382813-6.5625-3.695313-12.859375-20.75-22.929687-43.660156-30.019531-68.203125 24.878906-6.667968 45.394531-18.777344 61.292969-36.242187 26.226562-28.8125 32.375-64.410157 33.246094-87.382813 20.613281 53.84375 61.640624 102.253906 85.230468 127.207032 1.546875 1.636718 1.074219 3.4375.796875 4.136718-.277343.703125-1.167969 2.355469-3.433593 2.496094l-38.101563 2.382812c-2.796875.175782-5.261719 1.894532-6.394531 4.457032l-12.667969 28.722656c-1.679687 3.800781-4.753906 6.660156-8.667969 8.058594-3.910156 1.394531-8.105468 1.125-11.808594-.753906zm119.039063 34.597656c-37.792969 0-68.078125-9.300782-90.179687-27.660156 2.183593-2.382813 3.992187-5.132813 5.339843-8.191407l8.246094-18.691406c18.121094 18.089844 46.230469 26.3125 83.578125 25.382813 12.550781-.308594 15.035156 9.003906 15.035156 13.785156-.003906 4.203125-.003906 15.375-22.019531 15.375zm96.941406-49.011719c-.261719 3.03125-2.101562 5.496094-4.921875 6.601563-19.5 7.617187-38.8125 12.253906-57.5 13.820312-1.375-3.164062-9.726562-15.777344-28.113281-15.558594-29.949219.359375-52.746094-4.742187-67.96875-17.027344l21.101563-1.320312c7.421874-.464844 13.726562-5.050781 16.453124-11.96875 2.722657-6.902344 1.246094-14.546875-3.851562-19.9375-5.375-5.6875-11.683594-12.628906-18.445312-20.585938 34.222656-6.492187 63.804687-17.738281 88.546874-33.632812 8.179688 12.039062 13.855469 25.339844 16.894532 39.65625 5.171875 24.390625 16.671875 42.140625 34.175781 52.757812 2.53125 1.535157 3.886719 4.226563 3.628906 7.195313zm0 0"/></svg>