<?xml version="1.0" encoding="iso-8859-1"?>
<!-- Generator: Adobe Illustrator 19.0.0, SVG Export Plug-In . SVG Version: 6.00 Build 0)  -->
<svg version="1.1" id="Capa_1" xmlns="http://www.w3.org/2000/svg" xmlns:xlink="http://www.w3.org/1999/xlink" x="0px" y="0px"
	 viewBox="0 0 511.98 511.98" style="enable-background:new 0 0 511.98 511.98;" xml:space="preserve">
<g transform="translate(-1)">
	<g transform="translate(1 1)">
		<path style="fill:#F57C00;" d="M451.671,189.685c-3.073,3.633-7.522,5.819-12.276,6.029c-4.753,0.211-9.379-1.573-12.761-4.92
			l-53.214-53.214l72.03-72.03l52.548,52.54c6.535,6.26,7.273,16.45,1.707,23.586c-3.074,3.632-7.524,5.816-12.278,6.025
			c-4.753,0.209-9.378-1.576-12.759-4.924l-11.998-12.032c-3.326-3.297-8.689-3.297-12.015,0l-12.032,12.006
			c-3.297,3.326-3.297,8.689,0,12.015l11.332,11.332C456.498,172.355,457.239,182.549,451.671,189.685z"/>
		<path style="fill:#FDD834;" d="M468.064,65.295L275.722,257.636l-17.408-17.408l-18.603-18.603L432.053,29.284
			c4.314-4.345,9.965-7.111,16.043-7.851c7.597-0.795,15.148,1.869,20.565,7.253c4.794,4.924,7.427,11.557,7.315,18.428
			C475.864,53.987,473.016,60.53,468.064,65.295z"/>
		<path style="fill:#FFEB3A;" d="M444.341,54.116L258.314,240.228l-18.603-18.603L432.053,29.284
			c4.314-4.345,9.965-7.111,16.043-7.851C454.764,31.837,453.195,45.496,444.341,54.116z"/>
		<path style="fill:#F57C00;" d="M197.438,227.847l19.038-19.038c6.651-6.583,17.362-6.583,24.013,0l48.043,48.034
			c6.589,6.652,6.589,17.37,0,24.021l-19.038,19.038L197.438,227.847z"/>
		<path style="fill:#FDD834;" d="M269.493,299.876c-13.771-32.431-39.591-58.251-72.021-72.021
			c-20.618-8.824-43.134-12.288-65.451-10.069c13.725,1.27,27.17,4.667,39.851,10.069c32.431,13.771,58.251,39.591,72.021,72.021
			c7.099,16.825,10.755,34.901,10.752,53.163c0.012,69.919-53.111,128.399-122.709,135.083c47.598,4.454,94.03-16.461,122.236-55.06
			S288.197,343.872,269.493,299.876z"/>
		<path style="fill:#FFEB3A;" d="M243.893,299.876c-13.771-32.431-39.591-58.251-72.021-72.021
			c-12.681-5.403-26.125-8.8-39.851-10.069c-1.571,0.057-3.138,0.2-4.693,0.427c-67.924,8.529-118.88,66.284-118.88,134.741
			s50.956,126.212,118.88,134.741c1.451,0.171,2.987,0.341,4.523,0.427h0.085c43.037-4.201,81.506-28.63,103.61-65.794
			S260.748,339.697,243.893,299.876z M204.469,412.943c-19.108,19.107-46.154,28.006-72.875,23.979h-0.085
			c-1.451-0.256-2.816-0.512-4.181-0.768c-39.452-8.19-67.736-42.95-67.736-83.243s28.284-75.052,67.736-83.243
			c1.365-0.256,2.731-0.512,4.181-0.768h0.085c36.303-5.568,72.072,12.832,88.653,45.604S230.461,386.994,204.469,412.943z"/>
	</g>
	<g>
		<path d="M127.304,497.16c6.08,0.761,12.202,1.143,18.33,1.143c47.372-0.014,91.716-23.293,118.631-62.276
			s32.969-88.698,16.196-133.001l15.13-15.13c9.925-9.968,9.925-26.085,0-36.053l90.018-90.018l36.002,36.002
			c4.636,4.713,10.959,7.384,17.57,7.424h0.35c7.573,0.089,14.783-3.24,19.627-9.062c8.437-10.518,7.495-25.727-2.176-35.123
			l-11.298-11.281l11.947-12.006l12.006,12.006c5.069,5.039,12.015,7.729,19.156,7.419s13.828-3.591,18.442-9.049
			c8.429-10.521,7.487-25.723-2.176-35.123l-35.328-35.328l5.973-5.973c13.281-13.281,13.281-34.813,0-48.094
			c-13.281-13.281-34.813-13.281-48.094,0L247.496,203.75c-9.965-9.935-26.089-9.935-36.053,0l-15.113,15.104
			c-52.062-19.641-110.778-7.613-150.924,30.917S-9.168,346.475,8.319,399.299S72.097,490.196,127.304,497.16z M493.025,125.107
			c3.38,3.14,3.892,8.306,1.195,12.049c-1.533,1.805-3.748,2.892-6.113,3c-2.366,0.108-4.67-0.771-6.362-2.429l-12.006-12.006
			c-6.736-6.439-17.345-6.439-24.081,0l-12.006,11.998c-3.196,3.192-4.993,7.523-4.993,12.041s1.796,8.849,4.993,12.041
			l11.332,11.341c3.385,3.133,3.901,8.299,1.203,12.041c-1.602,1.998-4.063,3.111-6.622,2.995c-2.184-0.058-4.269-0.921-5.854-2.423
			l-36.002-36.002l19.021-19.021l40.96-40.96L493.025,125.107z M439.675,35.703c4.249-4.433,10.563-6.22,16.505-4.673
			c5.942,1.547,10.582,6.188,12.13,12.13s-0.24,12.256-4.673,16.505l-11.998,12.006l-48.034,48.034L283.523,239.778l-23.953-23.962
			L439.675,35.703z M235.455,215.884l48.043,48.043c3.275,3.309,3.275,8.638,0,11.947l-10.522,10.513
			c-13.512-25.572-34.417-46.478-59.989-59.989l10.522-10.513C226.809,212.59,232.154,212.59,235.455,215.884z M55.342,263.901
			c36.731-36.671,92.025-47.42,139.819-27.179h0.06c30.311,12.896,54.449,37.029,67.354,67.337v0.06
			c25.056,58.944,2.431,127.326-52.837,159.693S83.76,482.457,44.61,431.766S10.056,309.194,55.342,263.901z"/>
		<path d="M126.629,445.516c6.179,1.253,12.468,1.885,18.773,1.886c49.43-0.083,90.125-38.888,92.557-88.259
			c2.432-49.371-34.252-91.987-83.435-96.927c-49.183-4.941-93.61,29.527-101.047,78.395S78.203,435.603,126.629,445.516z
			 M91.464,299.912c10.532-10.581,23.937-17.841,38.554-20.881c5.056-1.023,10.202-1.538,15.36-1.536
			c36.509-0.09,67.992,25.633,75.183,61.427c7.191,35.794-11.916,71.68-45.627,85.696c-33.711,14.017-72.628,2.257-92.936-28.083
			C61.69,366.196,65.654,325.734,91.464,299.912z"/>
	</g>
</g>
<g>
</g>
<g>
</g>
<g>
</g>
<g>
</g>
<g>
</g>
<g>
</g>
<g>
</g>
<g>
</g>
<g>
</g>
<g>
</g>
<g>
</g>
<g>
</g>
<g>
</g>
<g>
</g>
<g>
</g>
</svg>
