<?xml version="1.0" encoding="iso-8859-1"?>
<!-- Generator: Adobe Illustrator 19.0.0, SVG Export Plug-In . SVG Version: 6.00 Build 0)  -->
<svg version="1.1" id="Capa_1" xmlns="http://www.w3.org/2000/svg" xmlns:xlink="http://www.w3.org/1999/xlink" x="0px" y="0px"
	 viewBox="0 0 504.447 504.447" style="enable-background:new 0 0 504.447 504.447;" xml:space="preserve">
<g>
	<g transform="translate(1)">
		<g>
			<path style="fill:#FFB301;" d="M385.519,167.366v72.687c-0.001,3.323-0.988,6.572-2.837,9.333L233.018,473.081
				c-2.056,3.071-5.878,4.436-9.414,3.362c-3.536-1.074-5.954-4.334-5.955-8.029v-48.741l8.393-41.967L385.519,167.366z"/>
			<path style="fill:#FFB301;" d="M352.113,16.368v75.289c0.047,1.475-0.331,2.932-1.091,4.197l-49.437,80.409l-67.148-16.787
				L352.113,16.368z"/>
			<path style="fill:#FFB301;" d="M237.374,302.165h-112.22c-4.42,0.099-8.093-3.386-8.226-7.806v-75.541h167.869L237.374,302.165z"
				/>
		</g>
		<path style="fill:#FDD834;" d="M385.519,167.366c-0.004,1.53-0.472,3.023-1.343,4.281L217.65,419.673l8.561-50.193l22.662-133.624
			c0.346-2.361-0.371-4.754-1.958-6.536c-1.587-1.782-3.882-2.769-6.267-2.697H125.154c-4.42,0.099-8.093-3.386-8.226-7.806V16.2
			c0.133-4.42,3.805-7.905,8.226-7.806h218.565c2.904-0.132,5.651,1.325,7.169,3.804c1.519,2.479,1.57,5.587,0.133,8.115
			l-76.8,127.245c-1.47,2.509-1.447,5.622,0.06,8.109c1.506,2.487,4.254,3.95,7.159,3.81h95.685
			c2.162-0.077,4.265,0.713,5.841,2.195C384.543,163.153,385.462,165.204,385.519,167.366z"/>
		<path style="fill:#FFEB3A;" d="M360.338,167.366c-0.004,1.53-0.472,3.023-1.343,4.281L226.211,369.48l22.662-133.624
			c0.346-2.361-0.371-4.754-1.958-6.536c-1.587-1.782-3.882-2.769-6.267-2.697H125.154c-4.42,0.099-8.093-3.386-8.226-7.806V16.2
			c0.133-4.42,3.805-7.905,8.226-7.806h193.385c2.904-0.132,5.651,1.325,7.169,3.804c1.519,2.479,1.57,5.587,0.133,8.115
			l-76.8,127.245c-1.47,2.509-1.447,5.622,0.06,8.109c1.506,2.487,4.254,3.95,7.159,3.81h95.685
			c2.162-0.077,4.265,0.713,5.841,2.195C359.363,163.153,360.281,165.204,360.338,167.366z"/>
	</g>
	<g>
		<path d="M378.125,151.083h-49.597l30.796-51.082c1.498-2.517,2.255-5.406,2.182-8.335V16.838c0.095-2.935-0.622-5.84-2.073-8.393
			c-3.029-5.256-8.647-8.481-14.714-8.444H126.154c-9.057-0.103-16.49,7.142-16.619,16.199v278.159
			c0.129,9.057,7.562,16.302,16.619,16.199h102.509l-18.289,107.713c-0.018,0.279-0.018,0.56,0,0.839
			c0,0.201-0.118,0.378-0.118,0.588v76.38c-0.001,3.696,2.415,6.957,5.951,8.033c0.793,0.23,1.616,0.343,2.442,0.336
			c2.801,0,5.417-1.398,6.975-3.727l165.023-246.633c2.789-4.148,4.274-9.035,4.264-14.034v-72.687
			C394.76,158.24,387.252,150.957,378.125,151.083z M308.938,151.083h-26.02L344.77,48.599l0.067,42.941L308.938,151.083z
			 M344.795,15.949v0.092l-76.699,127.093c-3.104,4.912-3.256,11.133-0.395,16.191c2.995,5.315,8.638,8.586,14.739,8.545h95.148
			L233.473,382.541l24.668-145.207c0.807-4.677-0.499-9.472-3.567-13.094c-3.202-3.824-7.938-6.026-12.926-6.01l-115.326,0.588
			l-0.168-202.03L344.795,15.949z M126.322,294.359v-59.342l115.267-0.562l-10.081,59.316L126.322,294.359z M376.707,244.745
			L227.043,468.422v-46.164l151.082-225.011l0,42.807C378.13,241.724,377.636,243.357,376.707,244.745z"/>
		<path d="M151.502,134.296c4.636,0,8.393-3.758,8.393-8.393V41.968c0-4.636-3.758-8.393-8.393-8.393s-8.393,3.758-8.393,8.393
			v83.934C143.109,130.538,146.867,134.296,151.502,134.296z"/>
		<path d="M151.502,201.444c4.636,0,8.393-3.758,8.393-8.393v-33.574c0-4.636-3.758-8.393-8.393-8.393s-8.393,3.758-8.393,8.393
			v33.574C143.109,197.686,146.867,201.444,151.502,201.444z"/>
	</g>
</g>
<g>
</g>
<g>
</g>
<g>
</g>
<g>
</g>
<g>
</g>
<g>
</g>
<g>
</g>
<g>
</g>
<g>
</g>
<g>
</g>
<g>
</g>
<g>
</g>
<g>
</g>
<g>
</g>
<g>
</g>
</svg>
