<?xml version="1.0" encoding="iso-8859-1"?>
<!-- Generator: Adobe Illustrator 19.0.0, SVG Export Plug-In . SVG Version: 6.00 Build 0)  -->
<svg version="1.1" id="Capa_1" xmlns="http://www.w3.org/2000/svg" xmlns:xlink="http://www.w3.org/1999/xlink" x="0px" y="0px"
	 viewBox="0 0 512 512" style="enable-background:new 0 0 512 512;" xml:space="preserve">
<path style="fill:#FFD4B2;" d="M164.271,350.152c-1.072,0.225-2.217,0.134-3.262-0.375l-36.725-17.873
	c-2.685,3.93-4.256,8.679-4.256,13.795c0,13.536,10.986,24.51,24.535,24.51c5.219,0,10.052-1.632,14.028-4.405L164.271,350.152z"/>
<path id="SVGCleanerId_0" style="fill:#FFB889;" d="M188.236,177.681v-38.639h-11.521c-2.75,0-5-2.25-5-5v-0.032l-11.154-4.457
	c-0.426-0.173-0.879-0.257-1.332-0.257c-0.545,0-1.09,0.126-1.59,0.372c-0.916,0.453-1.592,1.272-1.861,2.254
	c-0.127,0.46-3.098,11.406-1.096,24.218c1.889,12.094,8.672,28.089,30.248,35.607c0.385,0.136,0.785,0.201,1.182,0.201
	c0.732,0,1.459-0.227,2.072-0.661c0.537-0.381,0.933-0.903,1.19-1.489C188.638,185.869,188.236,181.823,188.236,177.681z"/>
<g>
	<path id="SVGCleanerId_0_1_" style="fill:#FFB889;" d="M188.236,177.681v-38.639h-11.521c-2.75,0-5-2.25-5-5v-0.032l-11.154-4.457
		c-0.426-0.173-0.879-0.257-1.332-0.257c-0.545,0-1.09,0.126-1.59,0.372c-0.916,0.453-1.592,1.272-1.861,2.254
		c-0.127,0.46-3.098,11.406-1.096,24.218c1.889,12.094,8.672,28.089,30.248,35.607c0.385,0.136,0.785,0.201,1.182,0.201
		c0.732,0,1.459-0.227,2.072-0.661c0.537-0.381,0.933-0.903,1.19-1.489C188.638,185.869,188.236,181.823,188.236,177.681z"/>
</g>
<g>
	<path style="opacity:0.1;fill:#231F20;enable-background:new    ;" d="M169.166,156.14c-1.616-10.345,0.009-19.471,0.762-22.844
		l-9.367-3.743c-0.426-0.173-0.879-0.257-1.332-0.257c-0.545,0-1.09,0.126-1.59,0.372c-0.916,0.453-1.592,1.272-1.861,2.254
		c-0.127,0.46-3.098,11.406-1.096,24.218c1.889,12.094,8.672,28.089,30.248,35.607c0.385,0.136,0.785,0.201,1.182,0.201
		c0.732,0,1.459-0.227,2.072-0.661c0.537-0.381,0.933-0.903,1.19-1.489c-0.188-1.002-0.352-2.012-0.495-3.028
		C175.493,178.431,170.705,165.992,169.166,156.14z"/>
	<path style="opacity:0.1;fill:#231F20;enable-background:new    ;" d="M136.402,345.699c0-2.562,0.402-5.026,1.133-7.347
		l-13.25-6.448c-2.685,3.93-4.256,8.679-4.256,13.795c0,13.536,10.986,24.51,24.535,24.51c2.872,0,5.626-0.497,8.188-1.403
		C143.228,365.438,136.402,356.367,136.402,345.699z"/>
</g>
<path style="fill:#FFD4B2;" d="M387.144,331.101c-0.207,0.147-0.418,0.291-0.661,0.409l-37.533,18.266
	c-1.048,0.51-2.193,0.607-3.265,0.376l4.802,13.231c4.405,4.217,10.365,6.825,16.949,6.825c13.551,0,24.535-10.974,24.535-24.51
	C391.971,340.229,390.176,335.178,387.144,331.101z"/>
<g>
	<path style="fill:#FFFFFF;" d="M387.921,325.366l-54.117-69.998c-0.549,0.496-1.387,0.777-2.465,0.745l-19.994-0.593l34.341,94.632
		c1.073,0.226,2.219,0.135,3.265-0.375l37.533-18.266C388.956,330.306,389.603,327.541,387.921,325.366z"/>
	<path style="fill:#FFFFFF;" d="M164.271,350.152l34.34-94.633l-19.992,0.593c-1.078,0.032-1.916-0.249-2.465-0.745l-54.117,69.998
		c-1.683,2.176-1.035,4.94,1.438,6.143l37.535,18.268C162.054,350.286,163.199,350.376,164.271,350.152z"/>
</g>
<path style="opacity:0.1;fill:#231F20;enable-background:new    ;" d="M198.611,255.519l2.037-0.061l0,0l-22.029,0.653
	c-1.078,0.032-1.916-0.249-2.465-0.745l-54.117,69.998c-1.683,2.176-1.035,4.94,1.438,6.143l13.858,6.744
	c0.104-0.689,0.374-1.381,0.87-2.022l58.648-75.859L198.611,255.519z"/>
<rect x="272.872" y="381.172" style="fill:#C73627;" width="34.596" height="68.51"/>
<path style="fill:#289E48;" d="M351.61,504.5c1.602,0,3.006-1.06,3.443-2.598c0.436-1.538-0.201-3.177-1.563-4.018l-38.863-23.978
	v-20.648c0-1.975-1.602-3.576-3.578-3.576h-40.563c-1.977,0-3.578,1.602-3.578,3.576v47.667c0,1.975,1.602,3.574,3.578,3.574h81.124
	V504.5z"/>
<rect x="202.491" y="381.172" style="fill:#C73627;" width="34.596" height="68.51"/>
<rect x="202.491" y="381.172" style="opacity:0.1;fill:#231F20;enable-background:new    ;" width="16.393" height="68.51"/>
<path style="fill:#289E48;" d="M355.235,376.468l-43.891-120.949l-13.025-0.386c-2.749-0.082-5.323,2.078-5.721,4.799l-4.766,32.642
	c-0.397,2.721-2.403,3.451-4.457,1.623l-24.662-21.949c-2.054-1.828-5.415-1.828-7.469,0l-24.662,21.949
	c-2.054,1.828-4.059,1.098-4.457-1.623l-4.766-32.642c-0.398-2.721-2.972-4.881-5.721-4.799l-13.027,0.386l-43.889,120.949
	c-0.938,2.585,0.545,4.7,3.295,4.7h193.923C354.69,381.168,356.173,379.053,355.235,376.468z"/>
<g style="opacity:0.1;">
	<path style="fill:#231F20;" d="M181.756,376.468l37.521-103.4l-1.918-13.136c-0.398-2.721-2.972-4.881-5.721-4.799l-13.027,0.386
		l-43.889,120.949c-0.938,2.585,0.545,4.7,3.295,4.7h27.033C182.3,381.168,180.818,379.053,181.756,376.468z"/>
</g>
<path style="fill:#FFD4B2;" d="M188.236,139.042v38.639c0,36.529,29.883,66.145,66.742,66.145c36.861,0,66.74-29.615,66.74-66.145
	v-38.639L188.236,139.042L188.236,139.042z"/>
<path style="fill:#C73627;" d="M334.04,251.819l-18.021-34.841c-0.873-1.688-2.714-3.146-4.674-3.897
	c-11.837,18.474-32.648,30.745-56.365,30.745c-23.716,0-44.529-12.271-56.367-30.745c-1.959,0.751-3.801,2.209-4.674,3.897
	l-18.02,34.841c-1.264,2.442-0.048,4.375,2.701,4.293l33.02-0.979c2.749-0.082,5.323,2.078,5.721,4.799l4.766,32.642
	c0.398,2.721,2.403,3.451,4.457,1.623l24.662-21.949c2.054-1.828,5.415-1.828,7.469,0l24.662,21.949
	c2.054,1.828,4.06,1.098,4.457-1.623l4.766-32.642c0.397-2.721,2.972-4.881,5.721-4.799l33.02,0.979
	C334.088,256.194,335.303,254.262,334.04,251.819z"/>
<path style="fill:#289E48;" d="M187.765,90.85l26.416,22.852l16.82-29.103c0.825-1.429,2.177-1.429,3.002,0l17.215,29.779h4.146
	l17.213-29.779c0.825-1.429,2.177-1.429,3.002,0l17.213,29.779h2.201l27.534-23.818c-0.06-0.271-0.119-0.544-0.19-0.789
	c0,0-26.663-91.743-161.344-81.471C160.994,8.3,189.571,49.31,187.765,90.85z"/>
<path style="opacity:0.1;fill:#231F20;enable-background:new    ;" d="M187.775,90.858l18.534,16.034
	c11.286-43.036-18.652-91.215-24.021-99.377c-6.784-0.022-13.865,0.218-21.294,0.784C160.994,8.3,189.583,49.316,187.775,90.858z"/>
<path style="fill:#FFB889;" d="M354.182,131.922c-0.272-0.982-0.949-1.801-1.863-2.254c-0.5-0.246-1.047-0.372-1.59-0.372
	c-0.453,0-0.904,0.084-1.334,0.257l-11.154,4.457v0.032c0,2.75-2.25,5-5,5h-11.522v38.639c0,4.141-0.402,8.187-1.137,12.116
	c0.257,0.587,0.652,1.109,1.19,1.49c0.613,0.435,1.342,0.661,2.074,0.661c0.398,0,0.797-0.065,1.18-0.201
	c21.58-7.519,28.363-23.514,30.252-35.607C357.278,143.328,354.307,132.382,354.182,131.922z"/>
<g style="opacity:0.1;">
	<path style="fill:#231F20;" d="M209.992,177.681v-38.639h-21.756v38.639c0,36.529,29.883,66.145,66.742,66.145
		c3.706,0,7.337-0.313,10.878-0.889C234.172,237.787,209.992,210.537,209.992,177.681z"/>
</g>
<g>
	<path style="fill:#C73627;" d="M251.217,114.379l-17.215-29.779c-0.825-1.429-2.177-1.429-3.002,0l-17.211,29.779H251.217z"/>
	<path style="fill:#C73627;" d="M292.793,114.379L275.58,84.599c-0.825-1.429-2.177-1.429-3.002,0l-17.213,29.779H292.793z"/>
	<path style="fill:#C73627;" d="M332.421,114.379V85.001c0-1.65-1.02-2.117-2.268-1.037l-35.158,30.414H332.421z"/>
	<path style="fill:#C73627;" d="M214.964,114.379l-35.158-30.414c-1.248-1.08-2.269-0.613-2.269,1.037v29.377H214.964z"/>
</g>
<path style="fill:#289E48;" d="M158.347,504.5c-1.6,0-3.008-1.06-3.443-2.598c-0.438-1.538,0.199-3.177,1.561-4.018l38.863-23.978
	v-20.648c0-1.975,1.604-3.576,3.58-3.576h40.561c1.979,0,3.58,1.602,3.58,3.576v47.667c0,1.975-1.602,3.574-3.58,3.574h-81.122
	V504.5z"/>
<g style="opacity:0.1;">
	<path style="fill:#231F20;" d="M172.89,503.221l38.863-23.978v-29.56h-12.846c-1.977,0-3.58,1.602-3.58,3.576v20.648
		l-38.863,23.978c-1.361,0.841-1.998,2.479-1.561,4.018c0.436,1.538,1.844,2.598,3.443,2.598h13.314
		C171.951,503.99,172.365,503.545,172.89,503.221z"/>
</g>
<path style="fill:#289E48;" d="M338.241,134.042c0,2.75-2.25,5-5,5H176.714c-2.75,0-5-2.25-5-5v-14.663c0-2.75,2.25-5,5-5H333.24
	c2.75,0,5,2.25,5,5v14.663H338.241z"/>
<g style="opacity:0.1;">
	<path style="fill:#231F20;" d="M198.949,134.042v-14.663c0-2.75,2.25-5,5-5h-27.234c-2.75,0-5,2.25-5,5v14.663c0,2.75,2.25,5,5,5
		h27.234C201.199,139.042,198.949,136.792,198.949,134.042z"/>
</g>
<g>
	<ellipse style="fill:#FFFFFF;" cx="255.471" cy="310.462" rx="10.734" ry="10.723"/>
	<ellipse style="fill:#FFFFFF;" cx="255.471" cy="350.292" rx="10.734" ry="10.723"/>
</g>
<path d="M395.901,331.059c0.053-0.184,0.118-0.362,0.162-0.55c0.784-3.354-0.022-6.901-2.209-9.73l-51.808-67.011
	c0.018-1.783-0.429-3.622-1.346-5.394l-18.021-34.841c-0.438-0.845-0.98-1.645-1.596-2.398c1.957-3.791,3.604-7.764,4.883-11.898
	c0.522-0.102,1.034-0.232,1.526-0.407c19.578-6.82,32.077-21.57,35.194-41.532c2.185-13.998-0.908-26.018-1.277-27.374
	c-0.839-3.033-2.938-5.575-5.78-6.984c-2.801-1.378-6.175-1.494-9.019-0.351l-0.871,0.349v-3.558c0-4.435-2.328-8.328-5.82-10.548
	V85.001c0-5.199-3.668-9.119-8.532-9.119c-1.436,0-3.558,0.385-5.715,2.074c-4.544-9.696-13.657-25.209-30.219-39.914
	c-3.1-2.752-7.839-2.469-10.588,0.629c-2.75,3.098-2.469,7.838,0.629,10.588c17.288,15.35,25.366,31.809,28.285,38.949
	l-18.302,15.832l-13.405-23.192c-1.743-3.019-4.731-4.82-7.995-4.82c-3.264,0-6.252,1.802-7.994,4.818l-12.793,22.133
	l-12.794-22.131c-1.743-3.019-4.732-4.82-7.995-4.82c-3.264,0-6.252,1.802-7.994,4.818l-12.28,21.248l-16.927-14.643
	c0.063-14.255-2.955-29.741-9.048-45.969c-4.003-10.664-8.612-19.79-12.302-26.368c30.779-0.924,57.787,3.79,80.419,14.074
	c3.771,1.714,8.218,0.045,9.931-3.726c1.714-3.771,0.046-8.217-3.726-9.931C232.63,2.835,198.94-2.117,160.423,0.822
	c-2.684,0.205-5.052,1.832-6.206,4.264c-1.153,2.433-0.915,5.296,0.624,7.504c0.284,0.409,20.747,30.225,24.811,63.367
	c-0.389-0.049-0.757-0.074-1.083-0.074c-4.864,0-8.532,3.92-8.532,9.119v23.828c-3.493,2.22-5.822,6.113-5.822,10.549v3.558
	l-0.833-0.333c-2.872-1.166-6.232-1.054-9.068,0.342c-2.83,1.4-4.933,3.948-5.766,6.981c-0.363,1.314-3.482,13.254-1.276,27.37
	c3.117,19.961,15.615,34.711,35.163,41.523c0.508,0.179,1.027,0.313,1.554,0.415c1.278,4.134,2.926,8.107,4.883,11.898
	c-0.615,0.754-1.158,1.554-1.596,2.398l-18.019,34.84c-0.917,1.772-1.364,3.611-1.347,5.395l-51.806,67.01
	c-2.189,2.83-2.995,6.378-2.21,9.732c0.236,1.012,0.626,1.966,1.121,2.86c-1.595,3.797-2.486,7.959-2.486,12.328
	c0,17.65,14.371,32.01,32.035,32.01c0.806,0,1.604-0.035,2.395-0.095c-0.077,2.326,0.553,4.575,1.888,6.48
	c2.038,2.907,5.381,4.575,9.171,4.575h36.969v54.244c-4.177,1.588-7.158,5.62-7.158,10.346v16.463l-35.305,21.782
	c-4.193,2.59-6.182,7.71-4.835,12.441c1.343,4.743,5.726,8.055,10.659,8.055h81.121c6.109,0,11.08-4.968,11.08-11.074v-7.907
	c0-4.143-3.357-7.5-7.5-7.5c-4.143,0-7.5,3.357-7.5,7.5V497h-63.366l27.084-16.71c2.214-1.366,3.561-3.781,3.561-6.383v-16.724
	h32.721v2.836c0,4.143,3.357,7.5,7.5,7.5c4.143,0,7.5-3.357,7.5-7.5v-6.76c0-4.264-2.426-7.966-5.967-9.816v-54.773h20.791v54.773
	c-3.54,1.852-5.965,5.554-5.965,9.816v47.667c0,6.106,4.97,11.074,11.078,11.074h81.124c4.928,0,9.31-3.309,10.659-8.055
	c1.342-4.737-0.647-9.854-4.84-12.443l-35.302-21.78v-16.463c0-4.727-2.981-8.759-7.158-10.347v-54.243h36.971
	c3.79,0,7.133-1.668,9.171-4.575c1.378-1.965,2.001-4.298,1.874-6.703c1.455,0.204,2.939,0.318,4.451,0.318
	c17.664,0,32.035-14.359,32.035-32.01C399.471,340.423,398.173,335.451,395.901,331.059z M195.736,177.681v-31.139h118.483v31.139
	c0,32.337-26.575,58.645-59.24,58.645C222.312,236.326,195.736,210.018,195.736,177.681z M333.241,146.542
	c4.886,0,9.115-2.824,11.17-6.921l3.402-1.359c0.593,3.911,1.098,10.038,0.055,16.721c-1.916,12.271-8.221,21.263-18.772,26.84
	c0.077-1.372,0.124-2.751,0.124-4.142v-31.139L333.241,146.542L333.241,146.542z M324.921,98.407v8.472h-9.794L324.921,98.407z
	 M274.079,96.99l5.716,9.889h-11.432L274.079,96.99z M232.503,96.99l5.716,9.889h-11.432L232.503,96.99z M185.037,98.407
	l9.794,8.472h-9.794V98.407z M162.091,154.982c-1.039-6.647-0.53-12.797,0.061-16.716l3.393,1.357
	c2.055,4.096,6.284,6.92,11.17,6.92h4.021v31.139c0,1.392,0.047,2.772,0.125,4.146C170.32,176.258,164.009,167.263,162.091,154.982z
	 M179.214,131.542v-9.663H330.74v9.663H179.214z M254.978,251.326c22.759,0,43.148-10.218,56.775-26.265l12.065,23.324
	l-25.277-0.749c-6.617-0.153-12.413,4.695-13.365,11.213l-3.478,23.816l-18-16.02c-2.368-2.108-5.465-3.27-8.721-3.27
	c-3.256,0-6.352,1.161-8.721,3.269l-18,16.02l-3.477-23.817c-0.934-6.395-6.519-11.217-12.99-11.217
	c-0.125,0-0.25,0.002-0.373,0.005l-25.28,0.75l12.064-23.326C211.829,241.108,232.219,251.326,254.978,251.326z M179.27,263.596
	l8.524-0.253l-28.105,77.449l-29.137-14.181L179.27,263.596z M127.529,345.699c0-1.263,0.154-2.487,0.418-3.671l26.598,12.943
	l-2.1,5.787c-2.357,1.238-5.035,1.95-7.881,1.95C135.171,362.708,127.529,355.078,127.529,345.699z M209.986,433.812h19.596v8.37
	h-19.596L209.986,433.812L209.986,433.812z M229.582,418.812h-19.596v-7.339h19.596V418.812z M229.582,396.473h-19.596v-7.805
	h19.596V396.473z M280.374,442.182v-8.37h19.596v8.37H280.374z M299.969,418.812h-19.596v-7.339h19.596V418.812z M337.773,497
	h-63.364v-39.817h32.719v16.725c0,2.602,1.348,5.017,3.562,6.383L337.773,497z M299.969,396.473h-19.596v-7.805h19.596V396.473z
	 M163.716,373.668l40.209-110.804l6.255-0.186l4.523,30.979c0.778,5.327,4.76,9.047,9.684,9.046c2.564,0,5.047-1.005,7.181-2.904
	l23.41-20.835l23.41,20.834c2.135,1.901,4.618,2.905,7.182,2.905c4.923,0,8.905-3.72,9.683-9.047l4.523-30.977l6.255,0.185
	l5.337,14.708c1.413,3.894,5.713,5.907,9.608,4.491c3.893-1.413,5.904-5.715,4.491-9.608l-3.307-9.113l8.524,0.253l48.719,63.017
	l-29.138,14.18l-11.734-32.333c-1.412-3.893-5.71-5.905-9.608-4.491c-3.893,1.413-5.904,5.715-4.491,9.608l21.807,60.091H163.716z
	 M367.436,362.708c-3.988,0-7.65-1.386-10.555-3.687l-1.469-4.05l28.43-13.836c0.408,1.452,0.629,2.981,0.629,4.563
	C384.471,355.078,376.83,362.708,367.436,362.708z"/>
<path d="M227.451,195.924c-2.927,2.931-2.924,7.68,0.006,10.607c7.588,7.579,17.555,11.369,27.521,11.369s19.933-3.79,27.519-11.37
	c2.931-2.928,2.933-7.676,0.005-10.607c-2.928-2.93-7.677-2.933-10.606-0.005c-9.329,9.318-24.509,9.319-33.838-0.001
	C235.127,192.993,230.379,192.994,227.451,195.924z"/>
<path d="M229.164,179.576c4.143,0,7.5-3.357,7.5-7.5v-8.969c0-4.143-3.357-7.5-7.5-7.5c-4.143,0-7.5,3.357-7.5,7.5v8.969
	C221.664,176.218,225.021,179.576,229.164,179.576z"/>
<path d="M280.792,179.576c4.143,0,7.5-3.357,7.5-7.5v-8.969c0-4.143-3.357-7.5-7.5-7.5s-7.5,3.357-7.5,7.5v8.969
	C273.292,176.218,276.649,179.576,280.792,179.576z"/>
<path d="M254.978,188.046c4.143,0,7.5-3.357,7.5-7.5v-8.714c0-4.143-3.357-7.5-7.5-7.5c-4.143,0-7.5,3.357-7.5,7.5v8.714
	C247.478,184.689,250.836,188.046,254.978,188.046z"/>
<path d="M255.474,292.244c-10.055,0-18.234,8.175-18.234,18.223s8.18,18.223,18.234,18.223c10.055,0,18.234-8.175,18.234-18.223
	C273.71,300.418,265.53,292.244,255.474,292.244z M255.474,313.689c-1.783,0-3.234-1.445-3.234-3.223
	c0-1.777,1.451-3.223,3.234-3.223c1.783,0,3.234,1.445,3.234,3.223C258.709,312.244,257.258,313.689,255.474,313.689z"/>
<path d="M255.474,332.072c-10.055,0-18.234,8.175-18.234,18.223c0,10.048,8.18,18.223,18.234,18.223
	c10.055,0,18.234-8.175,18.234-18.223C273.71,340.246,265.53,332.072,255.474,332.072z M255.474,353.517
	c-1.783,0-3.234-1.445-3.234-3.223c0-1.777,1.451-3.223,3.234-3.223c1.783,0,3.234,1.445,3.234,3.223
	C258.709,352.072,257.258,353.517,255.474,353.517z"/>
<g>
</g>
<g>
</g>
<g>
</g>
<g>
</g>
<g>
</g>
<g>
</g>
<g>
</g>
<g>
</g>
<g>
</g>
<g>
</g>
<g>
</g>
<g>
</g>
<g>
</g>
<g>
</g>
<g>
</g>
</svg>
