<?xml version="1.0" encoding="iso-8859-1"?>
<!-- Generator: Adobe Illustrator 19.0.0, SVG Export Plug-In . SVG Version: 6.00 Build 0)  -->
<svg version="1.1" id="Capa_1" xmlns="http://www.w3.org/2000/svg" xmlns:xlink="http://www.w3.org/1999/xlink" x="0px" y="0px"
	 viewBox="0 0 504.446 504.446" style="enable-background:new 0 0 504.446 504.446;" xml:space="preserve">
<g>
	<g transform="translate(0 1)">
		<path style="fill:#FDD834;" d="M470.452,225.623v51.2c-0.241,120.289-97.94,217.613-218.229,217.39
			c-5.624,0-11.247-0.252-16.787-0.671C121.962,485.064,34.169,390.613,33.993,276.823v-51.2H470.452z"/>
		<path style="fill:#FFEB3A;" d="M436.879,225.623v51.2c-0.175,113.79-87.969,208.241-201.443,216.719
			C121.962,485.064,34.169,390.613,33.993,276.823v-51.2H436.879z"/>
		<path style="fill:#FFB301;" d="M470.452,225.623c0,57.878-22.992,113.386-63.918,154.312s-96.433,63.918-154.312,63.918
			c-7.05,0-14.101-0.336-20.984-1.007C119.345,432.057,33.952,338.036,33.952,225.623S119.345,19.188,231.239,8.401
			c6.883-0.671,13.933-1.007,20.984-1.007c57.878,0,113.386,22.992,154.312,63.918S470.452,167.745,470.452,225.623z"/>
		<ellipse style="fill:#FEC108;" cx="231.239" cy="225.623" rx="197.246" ry="217.222"/>
		<path style="fill:#FDD834;" d="M420.092,225.623c-0.093,92.673-75.196,167.776-167.869,167.869c-4.281,0-8.477-0.168-12.59-0.504
			c-87.409-6.786-154.876-79.693-154.876-167.365S152.224,65.044,239.633,58.258c4.113-0.336,8.31-0.504,12.59-0.504
			C344.896,57.847,419.999,132.95,420.092,225.623z"/>
		<ellipse style="fill:#FFEB3A;" cx="239.633" cy="225.623" rx="155.279" ry="167.365"/>
		<path style="fill:#AD1457;" d="M310.977,240.311c-2.056,1.934-3.003,4.773-2.518,7.554l9.317,51.788
			c0.54,3.171-0.758,6.375-3.353,8.276c-2.594,1.901-6.04,2.174-8.902,0.705l-12.842-6.463c0.097-0.839,0.068-1.687-0.084-2.518
			l-9.317-51.788c-0.484-2.781,0.462-5.62,2.518-7.554l39.281-36.595c2.365-2.227,3.232-5.619,2.226-8.708
			c-1.006-3.089-3.704-5.32-6.926-5.728l-54.641-7.554c-2.754-0.394-5.155-2.077-6.463-4.532l-19.641-38.106l4.952-9.569
			c1.499-2.827,4.438-4.595,7.638-4.595s6.139,1.768,7.638,4.595l24.593,47.675c1.308,2.455,3.709,4.139,6.463,4.532l29.965,4.113
			l24.677,3.441c3.223,0.408,5.921,2.639,6.926,5.728s0.139,6.481-2.226,8.708L310.977,240.311z"/>
		<path style="fill:#E91E63;" d="M285.797,240.311c-2.056,1.934-3.003,4.773-2.518,7.554l9.317,51.788
			c0.152,0.831,0.181,1.679,0.084,2.518l-36.595-18.382c-2.44-1.175-5.282-1.175-7.722,0l-8.729,4.365l-40.708,20.48
			c-2.856,1.557-6.355,1.323-8.979-0.6c-2.624-1.923-3.9-5.189-3.276-8.381l9.317-51.788c0.484-2.781-0.462-5.62-2.518-7.554
			l-39.281-36.595c-2.365-2.227-3.232-5.619-2.226-8.708s3.704-5.32,6.926-5.728l54.641-7.554c2.754-0.394,5.155-2.077,6.463-4.532
			l19.641-38.106l19.641,38.106c1.308,2.455,3.709,4.139,6.463,4.532l54.641,7.554c3.223,0.408,5.921,2.639,6.926,5.728
			c1.006,3.089,0.139,6.481-2.226,8.708L285.797,240.311z"/>
	</g>
	<g>
		<path d="M252.223,0C127.12,0.139,25.739,101.52,25.6,226.623v51.2c0,125.16,101.463,226.623,226.623,226.623
			s226.623-101.463,226.623-226.623v-51.2C478.707,101.52,377.326,0.139,252.223,0z M252.223,486.82
			c-97.807,0.003-182.663-67.523-204.624-162.833c37.54,78.977,117.179,129.299,204.624,129.299s167.083-50.323,204.624-129.299
			C434.886,419.297,350.03,486.823,252.223,486.82z M252.223,436.459c-115.889,0-209.836-93.947-209.836-209.836
			S136.334,16.787,252.223,16.787s209.836,93.947,209.836,209.836C461.929,342.458,368.058,436.329,252.223,436.459z"/>
		<path d="M252.223,50.361c-97.347,0-176.262,78.915-176.262,176.262s78.915,176.262,176.262,176.262
			s176.262-78.915,176.262-176.262C428.374,129.322,349.524,50.472,252.223,50.361z M252.223,386.098
			c-88.076,0-159.475-71.4-159.475-159.475s71.4-159.475,159.475-159.475s159.475,71.4,159.475,159.475
			C411.601,314.659,340.258,386.001,252.223,386.098z"/>
		<path d="M346.75,181.995l-54.809-7.638l-24.61-47.717c-2.93-5.611-8.736-9.129-15.066-9.129c-6.33,0-12.136,3.518-15.066,9.129
			l-24.761,47.759l-54.692,7.596c-6.47,0.855-11.858,5.382-13.816,11.608c-1.975,6.155-0.189,12.896,4.574,17.265l39.239,36.478
			l-9.384,51.855c-1.131,6.244,1.385,12.587,6.488,16.359c5.16,3.873,12.073,4.479,17.828,1.561l49.622-24.811l49.446,24.811
			c5.752,2.916,12.662,2.311,17.819-1.561c5.104-3.774,7.62-10.121,6.488-16.367l-9.308-51.779l39.231-36.545
			c4.77-4.365,6.561-11.109,4.583-17.265C358.601,187.38,353.217,182.853,346.75,181.995z M305.311,235.117
			c-4.19,3.86-6.113,9.595-5.095,15.201l9.065,51.804l-49.412-24.803c-4.811-2.417-10.482-2.417-15.293,0l-49.656,24.845
			l9.308-51.846c1.017-5.599-0.898-11.33-5.078-15.192l-39.139-36.495l54.683-7.554c5.446-0.749,10.19-4.094,12.724-8.973
			l24.929-47.809v0.05L277,182.062c2.537,4.883,7.289,8.229,12.741,8.973l54.801,7.554L305.311,235.117z"/>
	</g>
</g>
<g>
</g>
<g>
</g>
<g>
</g>
<g>
</g>
<g>
</g>
<g>
</g>
<g>
</g>
<g>
</g>
<g>
</g>
<g>
</g>
<g>
</g>
<g>
</g>
<g>
</g>
<g>
</g>
<g>
</g>
</svg>
