<svg height="512pt" viewBox="-61 0 512 512.00417" width="512pt" xmlns="http://www.w3.org/2000/svg"><path d="m178.1875 469.335938v17.066406c-.027344 9.414062-7.652344 17.039062-17.066406 17.070312h-8.53125c-9.414063-.03125-17.039063-7.65625-17.066406-17.070312v-17.066406zm0 0" fill="#ffe0b2"/><path d="m254.988281 469.335938v17.066406c-.027343 9.414062-7.652343 17.039062-17.066406 17.070312h-8.535156c-9.414063-.03125-17.035157-7.65625-17.066407-17.070312v-17.066406zm0 0" fill="#ffe0b2"/><path d="m254.988281 358.402344v110.933594h-42.667969v-17.066407c-.027343-9.414062-7.652343-17.039062-17.066406-17.066406-9.394531.070313-16.996094 7.671875-17.066406 17.066406v17.066407h-42.664062v-110.933594zm0 0" fill="#c52828"/><path d="m135.523438 409.605469v12.796875c0 11.785156-9.554688 21.335937-21.335938 21.335937s-21.332031-9.550781-21.332031-21.335937v-12.796875zm0 0" fill="#ffe0b2"/><path d="m135.523438 358.402344v51.203125h-42.667969v-17.066407c0-18.851562 15.28125-34.136718 34.132812-34.136718zm0 0" fill="#f44335"/><path d="m254.988281 409.605469v12.796875c0 11.785156 9.550781 21.335937 21.332031 21.335937 11.785157 0 21.335938-9.550781 21.335938-21.335937v-12.796875zm0 0" fill="#ffe0b2"/><path d="m254.988281 358.402344v51.203125h42.667969v-17.066407c0-18.851562-15.28125-34.136718-34.132812-34.136718zm0 0" fill="#f44335"/><path d="m220.855469 396.804688c0-21.207032-11.460938-38.402344-25.601563-38.402344-14.136718 0-25.597656 17.195312-25.597656 38.402344 0 21.207031 11.460938 38.398437 25.597656 38.398437 14.140625 0 25.601563-17.191406 25.601563-38.398437zm0 0" fill="#f44335"/><path d="m102.300781 83.546875-54.269531 54.269531s-54.957031-34.984375-28.503906-123.050781c.792968-2.703125 2.84375-4.851563 5.507812-5.769531 2.664063-.914063 5.605469-.480469 7.890625 1.164062 1.402344 1.050782 2.445313 2.511719 2.988281 4.179688 7.847657 24.492187 25.855469 58.027344 66.386719 69.207031zm0 0" fill="#bfa885"/><path d="m102.300781 83.546875-37.714843 37.714844s-50.007813-31.742188-31.660157-111.101563c1.402344 1.050782 2.445313 2.511719 2.988281 4.179688 7.847657 24.492187 25.855469 58.027344 66.386719 69.207031zm0 0" fill="#ffe0b2"/><path d="m288.207031 83.546875 54.273438 54.269531s54.953125-34.984375 28.5-123.050781c-.789063-2.703125-2.84375-4.851563-5.503907-5.769531-2.664062-.914063-5.605468-.480469-7.890624 1.164062-1.402344 1.050782-2.445313 2.511719-2.988282 4.179688-7.851562 24.492187-25.855468 58.027344-66.390625 69.207031zm0 0" fill="#bfa885"/><path d="m288.207031 83.546875 37.71875 37.714844s50.003907-31.742188 31.660157-111.101563c-1.402344 1.050782-2.445313 2.511719-2.988282 4.179688-7.851562 24.492187-25.855468 58.027344-66.390625 69.207031zm0 0" fill="#ffe0b2"/><path d="m59.660156 166.574219c-.617187 4.183593-.929687 8.402343-.9375 12.628906v93.867187c0 47.128907 38.203125 85.332032 85.332032 85.332032h102.402343c22.628907 0 44.335938-8.988282 60.335938-24.992188 16.003906-16.003906 24.996093-37.707031 24.996093-60.339844v-93.867187c-.007812-4.226563-.324218-8.445313-.9375-12.628906l-68.183593-71.167969c-5.339844-1.035156-10.769531-1.546875-16.210938-1.535156h-102.402343c-5.441407-.011719-10.871094.5-16.214844 1.535156zm0 0" fill="#c52828"/><path d="m68.109375 166.574219c-.550781 4.1875-.835937 8.40625-.855469 12.628906v93.867187c0 47.105469 33.453125 85.332032 74.667969 85.332032h89.601563c41.214843 0 74.664062-38.226563 74.664062-85.332032v-93.867187c-.019531-4.222656-.304688-8.441406-.851562-12.628906l-59.65625-71.167969c-4.648438-1.03125-9.398438-1.542969-14.15625-1.535156h-89.601563c-4.773437-.011719-9.53125.503906-14.191406 1.535156zm0 0" fill="#f44335"/><path d="m44.324219 137.816406 54.308593-54.304687c6.664063-6.664063 17.46875-6.664063 24.132813 0 6.667969 6.664062 6.667969 17.46875 0 24.136719l-54.304687 54.304687c-6.664063 6.664063-17.472657 6.664063-24.136719 0-6.664063-6.664063-6.664063-17.472656 0-24.136719zm0 0" fill="#c52828"/><path d="m267.742188 83.507812c6.664062-6.664062 17.46875-6.664062 24.132812 0l54.308594 54.304688c6.664062 6.664062 6.664062 17.472656 0 24.136719-6.667969 6.664062-17.472656 6.664062-24.136719 0l-54.304687-54.304688c-6.667969-6.667969-6.667969-17.472656 0-24.136719zm0 0" fill="#c52828"/><path d="m168.886719 207.109375c.519531 2.035156.777343 4.128906.769531 6.226563.035156 13.660156-10.660156 24.941406-24.300781 25.632812-13.644531.691406-25.425781-9.445312-26.773438-23.039062-1.351562-13.589844 8.207031-25.847657 21.71875-27.851563" fill="#ffeb3a"/><path d="m178.1875 221.871094c-1.683594 0-3.328125-.5-4.726562-1.433594l-51.199219-34.132812c-3.921875-2.617188-4.980469-7.914063-2.363281-11.835938 2.613281-3.921875 7.914062-4.980469 11.835937-2.363281l51.199219 34.132812c3.128906 2.085938 4.523437 5.976563 3.429687 9.578125-1.089843 3.597656-4.414062 6.058594-8.175781 6.054688zm0 0" fill="#c03a2b"/><path d="m250.210938 188.078125c13.511718 2.003906 23.070312 14.261719 21.71875 27.851563-1.347657 13.59375-13.132813 23.730468-26.773438 23.039062s-24.335938-11.972656-24.300781-25.632812c-.007813-2.097657.25-4.191407.769531-6.226563" fill="#ffeb3a"/><path d="m212.320312 221.871094c-3.761718.003906-7.082031-2.457032-8.175781-6.054688-1.089843-3.601562.300781-7.492187 3.433594-9.578125l51.199219-34.132812c2.535156-1.691407 5.78125-1.902344 8.515625-.550781 2.734375 1.347656 4.539062 4.054687 4.738281 7.097656.195312 3.042968-1.246094 5.960937-3.78125 7.652344l-51.199219 34.132812c-1.402343.933594-3.046875 1.433594-4.730469 1.433594zm0 0" fill="#c03a2b"/><path d="m203.789062 273.070312h-17.066406c-4.714844 0-8.535156-3.820312-8.535156-8.53125 0-4.714843 3.820312-8.535156 8.535156-8.535156h17.066406c4.710938 0 8.53125 3.820313 8.53125 8.535156 0 4.710938-3.820312 8.53125-8.53125 8.53125zm0 0" fill="#c03a2b"/><path d="m195.253906 324.269531c-53.535156 0-87.039062-10.238281-99.515625-30.460937-6.066406-10.03125-6.8125-22.402344-1.988281-33.085938 2.109375-4.21875 7.234375-5.929687 11.453125-3.824218 4.21875 2.109374 5.929687 7.234374 3.824219 11.453124-2.273438 5.457032-1.765625 11.675782 1.363281 16.691407 5.257813 8.277343 23.28125 22.1875 84.863281 22.1875 61.925782 0 79.832032-14.019531 85-22.375 3.015625-4.984375 3.46875-11.101563 1.230469-16.476563-2.105469-4.21875-.394531-9.347656 3.824219-11.453125 4.214844-2.105469 9.34375-.394531 11.449218 3.824219 4.824219 10.679688 4.082032 23.054688-1.988281 33.082031-12.472656 20.199219-45.976562 30.4375-99.515625 30.4375zm0 0" fill="#2c3e50"/><path d="m382.851562 12.273438c-2.140624-7.238282-8.765624-12.2226568-16.316406-12.26953175h-.179687c-7.378907-.08203125-13.9375 4.69921875-16.117188 11.74999975-7.304687 22.65625-23.238281 51.277344-56.945312 62.199219-10.125-6.023437-23.023438-4.582031-31.570313 3.523437-2.398437 2.394532-4.296875 5.238282-5.582031 8.371094-3.21875-.332031-6.449219-.503906-9.683594-.511718h-102.402343c-3.230469.007812-6.460938.179687-9.675782.511718-1.28125-3.128906-3.175781-5.972656-5.574218-8.359375-8.542969-8.121093-21.445313-9.566406-31.570313-3.535156-33.707031-10.921875-49.640625-39.542969-56.945313-62.199219-2.203124-7.121094-8.863281-11.914062-16.316406-11.74999975-7.546875.04687495-14.175781 5.03124975-16.3125 12.26953175-22.496094 74.925781 10.273438 114.109374 25.289063 127.4375-3.070313 6.90625-2.902344 14.824218.464843 21.59375 3.371094 6.769531 9.582032 11.679687 16.945313 13.394531-.078125 1.519531-.171875 3.046875-.171875 4.539062v93.832031c.050781 35.859376 20.523438 68.554688 52.761719 84.257813-11.640625 7.941406-18.613281 21.117187-18.628907 35.210937v29.863282c0 16.496094 13.375 29.867187 29.867188 29.867187 4.4375-.023437 8.8125-1.046875 12.800781-2.992187v37.125c0 14.140625 11.460938 25.601562 25.601563 25.601562h8.53125c14.140625 0 25.601562-11.460937 25.601562-25.601562v-34.132813c0-4.710937 3.820313-8.53125 8.53125-8.53125 4.714844 0 8.535156 3.820313 8.535156 8.53125v34.132813c0 14.140625 11.460938 25.601562 25.597657 25.601562h8.535156c14.136719 0 25.601563-11.460937 25.601563-25.601562v-37.125c3.984374 1.945312 8.359374 2.96875 12.796874 2.992187 7.921876 0 15.519532-3.144531 21.121094-8.746093 5.601563-5.601563 8.746094-13.199219 8.746094-21.121094v-29.863282c-.011719-14.09375-6.984375-27.269531-18.628906-35.210937 32.238281-15.703125 52.714844-48.398437 52.761718-84.257813v-93.867187c0-1.492187-.09375-3.019531-.167968-4.539063 7.351562-1.714843 13.558594-6.617187 16.921875-13.375 3.367187-6.761718 3.539062-14.667968.476562-21.570312 15.027344-13.328125 47.804688-52.519531 25.300781-127.445312zm-16.347656 4.910156c19.53125 65.039062-7.527344 98.226562-19.628906 109.226562l-39.40625-39.367187c28.90625-13.585938 50.460938-39.09375 59.035156-69.859375zm-342.480468-.199219c8.496093 30.851563 30.058593 56.445313 59.019531 70.058594l-39.339844 39.332031c-11.972656-11.035156-39.132813-44.511719-19.679687-109.390625zm222.433593 405.417969v38.402344h-25.601562v-8.535157c-.027344-6.101562-2.25-11.992187-6.265625-16.585937 10.015625-10.410156 15.355468-24.449219 14.796875-38.878906.128906-10.476563-2.570313-20.796876-7.816407-29.867188h24.886719zm-34.136719-25.597656c0 17.605468-8.992187 29.867187-17.066406 29.867187-8.070312 0-17.066406-12.261719-17.066406-29.867187 0-17.605469 8.996094-29.867188 17.066406-29.867188 8.074219 0 17.066406 12.269531 17.066406 29.867188zm-36.402343 38.878906c-4.015625 4.59375-6.238281 10.484375-6.261719 16.585937v8.535157h-25.601562v-93.867188h24.882812c-5.246094 9.070312-7.945312 19.390625-7.816406 29.867188-.558594 14.429687 4.785156 28.46875 14.796875 38.878906zm-48.929688-68.746094v34.132812h-25.601562v-8.53125c0-14.140624 11.464843-25.601562 25.601562-25.601562zm-12.800781 68.265625c-7.066406 0-12.800781-5.730469-12.800781-12.800781v-4.265625h25.601562v4.265625c0 7.070312-5.730469 12.800781-12.800781 12.800781zm46.933594 59.734375h-8.53125c-4.714844 0-8.535156-3.820312-8.535156-8.535156v-8.53125h25.601562v8.53125c0 4.714844-3.820312 8.535156-8.535156 8.535156zm76.800781 0h-8.535156c-4.710938 0-8.53125-3.820312-8.53125-8.535156v-8.53125h25.601562v8.53125c0 4.714844-3.824219 8.535156-8.535156 8.535156zm38.398437-59.734375c-7.066406 0-12.796874-5.730469-12.796874-12.800781v-4.265625h25.597656v4.265625c0 7.070312-5.730469 12.800781-12.800782 12.800781zm12.800782-34.132813h-25.597656v-34.132812c14.136718 0 25.597656 11.460938 25.597656 25.601562zm51.03125-245.152343c-1.601563 1.601562-3.773438 2.5-6.039063 2.5s-4.4375-.898438-6.035156-2.5c-3.335937-3.332031-8.738281-3.332031-12.070313.003906-3.332031 3.332031-3.332031 8.738281.003907 12.070313 1.976562 1.929687 4.261719 3.519531 6.757812 4.710937.1875 2.175781.484375 4.386719.484375 6.5v93.867187c-.046875 42.398438-34.402344 76.753907-76.796875 76.800782h-102.402343c-42.394532-.046875-76.753907-34.402344-76.800782-76.800782v-93.867187c0-2.113281.300782-4.324219.488282-6.5 2.496093-1.191406 4.777343-2.78125 6.757812-4.710937 3.335938-3.332032 3.335938-8.738282.003906-12.070313-3.332031-3.335937-8.734375-3.335937-12.070312-.003906-2.15625 2.15625-5.296875 3-8.242188 2.210937-2.945312-.789062-5.25-3.089844-6.039062-6.035156-.789063-2.941406.050781-6.085938 2.207031-8.242188l54.304687-54.308593c3.375-3.226563 8.691407-3.226563 12.066407 0 3.328125 3.332031 3.328125 8.726562 0 12.058593-3.332031 3.332032-3.335938 8.738282-.003907 12.070313 3.332032 3.335937 8.738282 3.335937 12.070313.003906 2.953125-2.996093 5.117187-6.675781 6.289063-10.71875 2.976562-.351562 5.972656-.539062 8.96875-.554687h102.402343c2.996094.019531 5.988281.207031 8.964844.566406 1.175781 4.039062 3.335937 7.722656 6.289063 10.714844 3.363281 3.152344 8.621093 3.0625 11.875-.199219 3.253906-3.261719 3.332031-8.515625.175781-11.875-3.332031-3.332031-3.332031-8.734375 0-12.066406 3.375-3.21875 8.683593-3.21875 12.058593 0l54.296876 54.300781c1.605468 1.59375 2.511718 3.765625 2.519531 6.027344.007812 2.265625-.886719 4.441406-2.484375 6.046875zm0 0"/><path d="m144.054688 247.472656c15.585937-.058594 29.15625-10.660156 32.972656-25.773437.382812.085937.769531.144531 1.160156.171875 3.761719.003906 7.085938-2.457032 8.175781-6.054688 1.09375-3.601562-.300781-7.492187-3.429687-9.578125l-9.710938-6.476562-41.480468-27.65625c-2.539063-1.691407-5.785157-1.902344-8.515626-.550781-2.734374 1.347656-4.539062 4.054687-4.738281 7.097656-.195312 3.042968 1.246094 5.960937 3.78125 7.652344l.5625.375c-11.308593 9.042968-15.679687 24.238281-10.90625 37.90625 4.769531 13.671874 17.648438 22.84375 32.128907 22.886718zm16.921874-35.355468c0 .417968.144532.792968.144532 1.21875.019531 8.71875-6.53125 16.046874-15.195313 17-8.664062.957031-16.65625-4.769532-18.535156-13.28125-1.878906-8.507813 2.953125-17.070313 11.210937-19.855469zm0 0"/><path d="m212.320312 221.871094c.390626-.027344.773438-.085938 1.152344-.171875 3.617188 14.429687 16.171875 24.847656 31.019532 25.734375 14.847656.886718 28.558593-7.960938 33.863281-21.855469 5.308593-13.894531.988281-29.628906-10.667969-38.863281l.5625-.375c3.921875-2.617188 4.980469-7.917969 2.363281-11.835938-2.617187-3.921875-7.914062-4.980468-11.835937-2.367187l-41.445313 27.632812-.128906.085938-9.625 6.417969c-3.097656 2.097656-4.46875 5.96875-3.378906 9.546874 1.085937 3.578126 4.382812 6.03125 8.121093 6.050782zm51.203126-8.535156c0 9.425781-7.644532 17.066406-17.066407 17.066406-9.425781 0-17.070312-7.640625-17.070312-17.066406 0-.425782.121093-.800782.148437-1.21875l22.371094-14.917969c6.941406 2.324219 11.617188 8.820312 11.617188 16.136719zm0 0"/><path d="m178.1875 264.539062c0 4.710938 3.820312 8.53125 8.535156 8.53125h17.066406c4.710938 0 8.53125-3.820312 8.53125-8.53125 0-4.714843-3.820312-8.535156-8.53125-8.535156h-17.066406c-4.714844 0-8.535156 3.820313-8.535156 8.535156zm0 0"/><path d="m285.308594 256.898438c-2.027344 1.011718-3.570313 2.789062-4.285156 4.933593-.71875 2.148438-.550782 4.496094.460937 6.519531 2.238281 5.375 1.785156 11.496094-1.230469 16.476563-5.167968 8.355469-23.074218 22.375-85 22.375-61.582031 0-79.605468-13.882813-84.863281-22.1875-3.128906-5.011719-3.636719-11.230469-1.363281-16.6875 2.105468-4.21875.394531-9.347656-3.824219-11.453125s-9.34375-.394531-11.453125 3.824219c-4.824219 10.679687-4.078125 23.054687 1.988281 33.082031 12.476563 20.25 45.980469 30.488281 99.515625 30.488281 53.539063 0 87.042969-10.238281 99.515625-30.460937 6.070313-10.03125 6.8125-22.402344 1.988281-33.085938-1.007812-2.027344-2.785156-3.566406-4.933593-4.285156-2.148438-.714844-4.492188-.550781-6.515625.460938zm0 0"/></svg>