<svg height="512pt" viewBox="0 -51 512.00163 512" width="512pt" xmlns="http://www.w3.org/2000/svg"><g fill="#bfea92"><path d="m169.164062 192.917969c-2.230468-7.214844-9.890624-11.253907-17.101562-9.023438-8.316406 2.566407-18.167969 1.863281-27.035156-1.941406-8.644532-3.707031-16.53125-10.234375-22.796875-18.875-2.953125-4.0625-7.730469-11.910156-6.585938-18.757813.359375-2.152343 1.390625-4.78125 2.488281-7.5625 1.15625-2.941406 2.464844-6.277343 3.375-9.988281 2.863282-11.6875.734376-24.011719-5.167968-34.167969 2.609375-1.117187 5.199218-2.472656 7.664062-4.164062 10.054688-6.890625 15.816406-17.921875 15.046875-28.789062-.472656-6.628907-6.222656-11.621094-12.855469-11.152344-6.628906.472656-11.621093 6.226562-11.148437 12.855468.105469 1.464844-.707031 3.269532-2.070313 4.890626-3.386718-5.011719-8.523437-8.71875-14.492187-10.28125-3.351563-10.125-4.886719-20.996094-4.457031-31.84375.261718-6.636719-4.90625-12.234376-11.546875-12.496094-6.621094-.265625-12.234375 4.90625-12.5 11.542968-.519531 13.105469 1.242187 26.261719 5.113281 38.625-3.253906 2.996094-5.710938 6.828126-7.03125 11.140626-7.550781-2.929688-14.761719-6.90625-21.332031-11.804688-5.328125-3.96875-12.867188-2.871094-16.835938 2.457031-3.972656 5.328125-2.875 12.867188 2.453125 16.835938 13.386719 9.980469 28.925782 16.964843 44.988282 20.242187 4.152343 3.019532 9.25 4.773438 14.722656 4.78125 2.839844 4.378906 4.085937 9.949219 2.890625 14.820313-.472657 1.925781-1.34375 4.144531-2.265625 6.492187-1.492188 3.789063-3.179688 8.082032-4.011719 13.066406-2.09375 12.539063 1.855469 26.132813 11.425781 39.320313 9.164063 12.632813 20.972656 22.296875 34.148438 27.945313 9.769531 4.191406 20.105468 6.085937 30.179687 5.640624 5.355469-.238281 10.632813-1.136718 15.714844-2.707031 7.210937-2.230469 11.253906-9.886719 9.023437-17.101562zm0 0"/><path d="m342.835938 192.917969c2.234374-7.214844 9.894531-11.253907 17.101562-9.023438 8.316406 2.566407 18.171875 1.863281 27.039062-1.941406 8.644532-3.707031 16.527344-10.234375 22.796876-18.875 2.949218-4.0625 7.726562-11.910156 6.582031-18.757813-.355469-2.152343-1.390625-4.78125-2.484375-7.5625-1.15625-2.941406-2.46875-6.277343-3.378906-9.988281-2.863282-11.6875-.734376-24.011719 5.171874-34.167969-2.613281-1.117187-5.199218-2.472656-7.667968-4.164062-10.050782-6.890625-15.816406-17.921875-15.042969-28.789062.46875-6.628907 6.21875-11.621094 12.851563-11.152344 6.628906.472656 11.621093 6.226562 11.148437 12.855468-.101563 1.464844.707031 3.269532 2.070313 4.890626 3.386718-5.011719 8.523437-8.71875 14.492187-10.28125 3.355469-10.125 4.890625-20.996094 4.460937-31.84375-.265624-6.636719 4.90625-12.234376 11.546876-12.496094 6.621093-.265625 12.234374 4.90625 12.496093 11.542968.519531 13.105469-1.242187 26.261719-5.109375 38.625 3.253906 2.996094 5.707032 6.828126 7.03125 11.140626 7.546875-2.929688 14.761719-6.90625 21.328125-11.804688 5.328125-3.96875 12.867188-2.871094 16.839844 2.457031s2.871094 12.867188-2.457031 16.835938c-13.386719 9.980469-28.925782 16.964843-44.988282 20.242187-4.148437 3.019532-9.246093 4.773438-14.71875 4.78125-2.84375 4.378906-4.085937 9.949219-2.894531 14.820313.472657 1.925781 1.34375 4.144531 2.269531 6.492187 1.488282 3.789063 3.175782 8.082032 4.007813 13.066406 2.09375 12.539063-1.855469 26.132813-11.421875 39.320313-9.164062 12.632813-20.976562 22.296875-34.152344 27.945313-9.769531 4.191406-20.105468 6.085937-30.179687 5.640624-5.351563-.238281-10.632813-1.136718-15.710938-2.707031-7.214843-2.230469-11.257812-9.886719-9.027343-17.101562zm0 0"/><path d="m410.644531 241.488281c5.75-10.03125 9.054688-21.644531 9.054688-34.039062v-6.96875c0-32.464844-22.574219-59.640625-52.878907-66.734375v-30.21875c0-53.035156-42.988281-96.023438-96.019531-96.023438h-29.597656c-53.03125 0-96.023437 42.988282-96.023437 96.023438v30.21875c-30.300782 7.09375-52.878907 34.269531-52.878907 66.734375v6.96875c0 12.394531 3.304688 24.007812 9.058594 34.039062-34.65625 5.425781-61.167969 35.40625-61.167969 71.582031v7.8125c0 36.71875 27.472656 67.535157 63.921875 71.964844 101.257813 12.304688 202.519531 12.304688 303.777344 0 36.449219-4.429687 63.921875-35.246094 63.921875-71.964844v-7.8125c0-36.175781-26.515625-66.15625-61.167969-71.582031zm0 0"/></g><path d="m410.644531 241.488281c5.75-10.035156 9.054688-21.648437 9.054688-34.039062v-6.96875c0-32.464844-22.574219-59.640625-52.878907-66.734375v-30.222656c0-53.03125-42.988281-96.019532-96.019531-96.019532h-24c53.03125 0 96.023438 42.988282 96.023438 96.019532v30.222656c30.300781 7.09375 52.875 34.269531 52.875 66.734375v6.96875c0 12.390625-3.304688 24.003906-9.054688 34.039062 34.65625 5.425781 61.167969 35.40625 61.167969 71.582031v7.8125c0 36.71875-27.472656 67.535157-63.921875 71.964844-46.628906 5.664063-93.257813 8.714844-139.890625 9.164063 54.628906.523437 109.257812-2.527344 163.886719-9.164063 36.449219-4.429687 63.925781-35.246094 63.925781-71.964844v-7.8125c0-36.175781-26.515625-66.15625-61.167969-71.582031zm0 0" fill="#9bc66a"/><path d="m295.941406 49.960938c-14.664062-1.085938-27.84375 5.53125-35.925781 16.21875-2 2.644531-6.027344 2.644531-8.027344 0-8.082031-10.6875-21.261719-17.304688-35.925781-16.21875-20.164062 1.492187-36.4375 17.828124-37.863281 37.996093-1.703125 24.050781 17.308593 44.089844 40.992187 44.089844 13.355469 0 25.21875-6.371094 32.722656-16.238281 2.070313-2.722656 6.105469-2.722656 8.175782 0 7.503906 9.867187 19.363281 16.238281 32.71875 16.238281 23.6875 0 42.695312-20.039063 40.996094-44.089844-1.425782-20.167969-17.699219-36.503906-37.863282-37.996093zm0 0" fill="#e6eff5"/><path d="m237.519531 96.558594c0 10.121094-8.207031 18.328125-18.328125 18.328125s-18.324218-8.207031-18.324218-18.328125 8.203124-18.324219 18.324218-18.324219 18.328125 8.203125 18.328125 18.324219zm0 0" fill="#363b51"/><path d="m311.136719 86.121094c0 10.121094-8.207031 18.328125-18.328125 18.328125s-18.324219-8.207031-18.324219-18.328125 8.203125-18.324219 18.324219-18.324219 18.328125 8.203125 18.328125 18.324219zm0 0" fill="#363b51"/><path d="m181.03125 304.796875c0 10.132813-8.214844 18.347656-18.347656 18.347656-10.132813 0-18.347656-8.214843-18.347656-18.347656s8.214843-18.347656 18.347656-18.347656c10.132812 0 18.347656 8.214843 18.347656 18.347656zm0 0" fill="#9bc66a"/><path d="m190.335938 186.382812c0 8.449219-6.847657 15.296876-15.296876 15.296876-8.445312 0-15.296874-6.847657-15.296874-15.296876 0-8.445312 6.851562-15.296874 15.296874-15.296874 8.449219 0 15.296876 6.851562 15.296876 15.296874zm0 0" fill="#9bc66a"/><path d="m382.117188 338.441406c0 8.445313-6.847657 15.292969-15.296876 15.292969-8.445312 0-15.292968-6.847656-15.292968-15.292969 0-8.449218 6.847656-15.296875 15.292968-15.296875 8.449219 0 15.296876 6.847657 15.296876 15.296875zm0 0" fill="#9bc66a"/><path d="m508.121094 59.101562c-6.433594-8.636718-18.695313-10.429687-27.34375-3.988281-4.113282 3.074219-8.507813 5.753907-13.121094 8.011719-.714844-1.152344-1.5-2.261719-2.355469-3.320312 3.289063-12 4.707031-24.40625 4.21875-36.945313-.4375-10.753906-9.488281-19.164063-20.296875-18.738281-10.753906.4375-19.160156 9.535156-18.738281 20.289062.339844 8.609375-.699219 17.414063-3.015625 25.683594-1.628906.671875-3.199219 1.46875-4.691406 2.390625-.773438-1.714844-1.800782-3.324219-3.0625-4.785156-3.421875-3.945313-8.171875-6.320313-13.375-6.6875-10.71875-.753907-20.09375 7.351562-20.871094 18.101562-.957031 13.507813 6.050781 27.113281 18.292969 35.507813.640625.4375 1.296875.863281 1.96875 1.277344-4.199219 10.425781-5.140625 21.976562-2.515625 32.660156 1.007812 4.113281 2.382812 7.640625 3.597656 10.75l.082031.210937c.859375 2.167969 1.832031 4.625 2.066407 6.03125.203124 1.226563-.03125 2.816407-.644532 4.632813-8.898437-10.109375-20.53125-17.875-33.992187-22.148438v-24.511718c0-57.082032-46.441407-103.523438-103.523438-103.523438h-29.597656c-16.710937 0-33.3125 4.078125-48.019531 11.789062-3.667969 1.921876-5.082032 6.457032-3.15625 10.125 1.921875 3.667969 6.453125 5.082032 10.125 3.160157 12.5625-6.589844 26.757812-10.074219 41.050781-10.074219h29.597656c48.8125 0 88.523438 39.710938 88.523438 88.523438v22.722656h-17.539063c-4.140625 0-7.5 3.359375-7.5 7.5s3.355469 7.5 7.5 7.5h24.144532c15.417968 3.828125 28.183593 13.230468 36.375 25.777344.277343.613281.640624 1.195312 1.085937 1.722656 4.496094 7.421875 7.429687 15.859375 8.429687 24.84375.011719.253906.039063.503906.078126.757812.199218 2.019532.300781 4.0625.300781 6.132813v6.964843c0 9.203126-2.089844 18.296876-6.074219 26.539063h-103.015625c-4.140625 0-7.5 3.359375-7.5 7.5 0 4.144531 3.355469 7.5 7.5 7.5h106.929687c14.90625 2.46875 28.566407 10.148437 38.507813 21.664063 10.164063 11.773437 15.765625 26.839843 15.765625 42.421874v7.8125c0 32.808594-24.648438 60.546876-57.328125 64.515626-8.972656 1.089843-18.074219 2.097656-27.050781 2.996093-4.121094.410157-7.128906 4.085938-6.71875 8.207031.386718 3.867188 3.648437 6.753907 7.457031 6.753907.246094 0 .5-.011719.75-.039063 9.085937-.90625 18.292969-1.921875 27.371094-3.027344 40.199219-4.882812 70.519531-39.023437 70.519531-79.40625v-7.8125c0-19.179687-6.894531-37.726562-19.414062-52.226562-10.191407-11.804688-23.5625-20.332031-38.363282-24.609375 3.726563-9.101563 5.664063-18.894531 5.664063-28.789063v-6.964843c0-1.449219-.039063-2.886719-.121094-4.316407 3.9375-3.84375 7.589844-8.074218 10.898437-12.621093 10.777344-14.855469 15.1875-30.402344 12.75-44.957031-.957031-5.746094-2.871093-10.617188-4.4375-14.601563-.820312-2.101563-1.597656-4.082031-1.949218-5.515625-.433594-1.769531-.269532-3.859375.417968-5.886719 4.605469-.683593 8.984376-2.339843 12.917969-4.894531 16.59375-3.621094 32.628907-10.953125 46.460938-21.265625 4.1875-3.117187 6.910156-7.683594 7.660156-12.847656.746094-5.164063-.5625-10.308594-3.675781-14.472657zm-11.171875 12.316407c-.171875 1.199219-.804688 2.253906-1.773438 2.980469-12.5 9.3125-27.023437 15.851562-42.011719 18.914062-1.046874.214844-2.035156.648438-2.902343 1.277344-3.011719 2.183594-6.585938 3.34375-10.328125 3.351562-2.535156.003906-4.898438 1.289063-6.28125 3.417969-4.070313 6.277344-5.519532 14.011719-3.878906 20.6875.585937 2.394531 1.539062 4.828125 2.582031 7.492187 1.414062 3.597657 2.875 7.320313 3.574219 11.519532 1.761718 10.503906-1.730469 22.148437-10.089844 33.667968-.691406.953126-1.402344 1.890626-2.132813 2.808594-1.457031-4.652344-3.347656-9.121094-5.636719-13.351562 3.6875-5.898438 6.9375-13.558594 5.683594-21.105469-.5-2.972656-1.726562-6.078125-2.898437-9.042969l-.070313-.175781c-1.097656-2.8125-2.230468-5.71875-3.003906-8.878906-2.316406-9.425781-.722656-19.855469 4.367188-28.609375 1.082031-1.855469 1.3125-4.089844.636718-6.128906-.675781-2.039063-2.191406-3.691407-4.171875-4.539063-2.367187-1.011719-4.457031-2.144531-6.375-3.457031-7.867187-5.394532-12.390625-13.851563-11.808593-22.0625.179687-2.5 2.371093-4.394532 4.847656-4.210938 1.207031.085938 2.308594.636719 3.101562 1.550782.792969.917968 1.183594 2.089843 1.101563 3.261718-.257813 3.421875 1.097656 7.078125 3.820312 10.300782 1.519531 1.792968 3.785157 2.769531 6.136719 2.644531 2.34375-.125 4.496094-1.347657 5.808594-3.292969 2.40625-3.570312 6.019531-6.132812 10.167968-7.21875 2.457032-.644531 4.425782-2.488281 5.222657-4.902344 3.625-10.949218 5.296875-22.882812 4.835937-34.496094-.097656-2.496093 1.855469-4.613281 4.347656-4.710937 2.5-.097656 4.609376 1.855469 4.714844 4.347656.476563 12.28125-1.132812 24.421875-4.785156 36.085938-.867188 2.769531-.058594 5.792969 2.078125 7.761719 2.316406 2.128906 4.03125 4.839843 4.953125 7.835937.613281 1.988281 2.023438 3.636719 3.898438 4.542969 1.878906.910156 4.042968.996094 5.984374.242187 8.253907-3.207031 16.019532-7.511719 23.082032-12.785156 2.007812-1.496094 4.851562-1.082031 6.355468.9375.71875.960937 1.019532 2.148437.847657 3.339844zm0 0"/><path d="m245.019531 96.558594c0-14.238282-11.585937-25.824219-25.828125-25.824219-14.238281 0-25.824218 11.585937-25.824218 25.824219 0 14.238281 11.585937 25.828125 25.824218 25.828125 14.242188 0 25.828125-11.589844 25.828125-25.828125zm-36.652343 0c0-5.96875 4.855468-10.824219 10.824218-10.824219 5.972656 0 10.828125 4.855469 10.828125 10.824219s-4.855469 10.828125-10.828125 10.828125c-5.96875 0-10.824218-4.859375-10.824218-10.828125zm0 0"/><path d="m256 122.675781c9.25 10.761719 22.503906 16.871094 36.808594 16.871094 13.4375 0 26.402344-5.640625 35.5625-15.476563 9.296875-9.96875 13.882812-22.984374 12.914062-36.640624-1.683594-23.859376-20.941406-43.183594-44.792968-44.949219-15.53125-1.148438-30.441407 5.066406-40.492188 16.738281-10.050781-11.671875-24.957031-17.886719-40.492188-16.734375-23.847656 1.765625-43.105468 21.089844-44.792968 44.945313-.964844 13.65625 3.621094 26.671874 12.914062 36.644531 9.164063 9.832031 22.128906 15.472656 35.566406 15.472656 14.304688 0 27.558594-6.113281 36.804688-16.871094zm-61.398438-8.828125c-6.421874-6.894531-9.59375-15.902344-8.921874-25.359375 1.164062-16.480469 14.464843-29.828125 30.9375-31.046875 11.46875-.855468 22.464843 4.105469 29.386718 13.261719 2.382813 3.152344 6.027344 4.960937 9.996094 4.960937 3.972656 0 7.613281-1.808593 9.996094-4.960937 6.925781-9.15625 17.90625-14.113281 29.390625-13.261719 16.472656 1.21875 29.773437 14.566406 30.9375 31.042969.667969 9.460937-2.5 18.464844-8.925781 25.363281-6.429688 6.898438-15.164063 10.699219-24.589844 10.699219-10.582032 0-20.332032-4.839844-26.75-13.28125-2.417969-3.175781-6.082032-5-10.054688-5-3.976562 0-7.640625 1.824219-10.058594 5-6.417968 8.441406-16.171874 13.28125-26.75 13.28125-9.429687 0-18.164062-3.800781-24.59375-10.699219zm0 0"/><path d="m292.808594 111.949219c14.242187 0 25.828125-11.585938 25.828125-25.828125 0-14.238282-11.585938-25.824219-25.828125-25.824219-14.238282 0-25.824219 11.585937-25.824219 25.824219 0 14.242187 11.585937 25.828125 25.824219 25.828125zm0-36.652344c5.96875 0 10.828125 4.855469 10.828125 10.824219 0 5.972656-4.859375 10.828125-10.828125 10.828125s-10.824219-4.855469-10.824219-10.828125c0-5.96875 4.855469-10.824219 10.824219-10.824219zm0 0"/><path d="m350.273438 391c-81.371094 6.171875-163.886719 4.289062-245.253907-5.597656-32.683593-3.972656-57.328125-31.707032-57.328125-64.519532v-7.8125c0-15.578124 5.597656-30.644531 15.765625-42.421874 9.941407-11.515626 23.597657-19.191407 38.503907-21.660157h33.238281c4.144531 0 7.5-3.359375 7.5-7.5s-3.355469-7.5-7.5-7.5h-29.320313c-3.988281-8.246093-6.078125-17.335937-6.078125-26.539062v-6.96875c0-2.066407.105469-4.113281.304688-6.132813.039062-.25.066406-.503906.078125-.753906 1-8.984375 3.933594-17.421875 8.429687-24.84375.445313-.53125.808594-1.109375 1.085938-1.722656 8.332031-12.769532 21.40625-22.28125 37.191406-25.976563 3.390625-.796875 5.789063-3.820312 5.789063-7.304687v-30.222656c0-23.320313 8.992187-45.328126 25.316406-61.976563 2.902344-2.957031 2.855468-7.707031-.101563-10.605469-2.957031-2.902344-7.707031-2.855468-10.605469.101563-19.09375 19.46875-29.609374 45.210937-29.609374 72.480469v24.511718c-13.460938 4.273438-25.09375 12.039063-33.996094 22.148438-.613282-1.8125-.84375-3.402344-.640625-4.625.234375-1.414063 1.207031-3.871094 2.078125-6.074219l.070312-.175781c1.210938-3.109375 2.585938-6.636719 3.597656-10.75 2.621094-10.6875 1.683594-22.234375-2.515624-32.664063.671874-.414062 1.332031-.839843 1.972656-1.277343 12.238281-8.390626 19.246094-21.996094 18.289062-35.515626-.777344-10.738281-10.121094-18.839843-20.871094-18.089843-5.203124.367187-9.953124 2.742187-13.375 6.6875-1.265624 1.457031-2.292968 3.070312-3.0625 4.785156-1.492187-.921875-3.0625-1.71875-4.691406-2.390625-2.316406-8.269531-3.355468-17.078125-3.015625-25.6875.421875-10.75-7.984375-19.851562-18.75-20.289062-10.710937-.429688-19.847656 7.984374-20.289062 18.753906-.488281 12.527344.933593 24.929687 4.21875 36.929687-.851563 1.058594-1.640625 2.167969-2.355469 3.324219-4.613281-2.261719-9.007812-4.941406-13.125-8.019531-8.640625-6.433594-20.902344-4.644531-27.328125 3.980469-3.125 4.179687-4.433594 9.324218-3.683594 14.488281.75 5.167969 3.46875 9.730469 7.65625 12.847656 13.832031 10.3125 29.867188 17.648437 46.464844 21.269531 3.929687 2.554688 8.3125 4.210938 12.917969 4.890625.683594 2.027344.851562 4.121094.414062 5.894531-.257812 1.050782-.738281 2.367188-1.078125 3.265626-1.46875 3.875.480469 8.203124 4.355469 9.667968 3.875 1.46875 8.203125-.480468 9.671875-4.355468.769531-2.039063 1.273437-3.585938 1.617187-5.007813 1.640626-6.675781.191407-14.410156-3.878906-20.6875-1.378906-2.128906-3.742187-3.414063-6.28125-3.421875-3.742187-.003906-7.3125-1.164062-10.328125-3.351562-.867187-.625-1.855469-1.058594-2.902343-1.273438-14.984376-3.0625-29.511719-9.601562-42.011719-18.917969-.96875-.722656-1.601563-1.78125-1.773438-2.976562-.171875-1.191407.128907-2.378907.859375-3.355469 1.492188-2.003906 4.339844-2.421875 6.335938-.933594 7.070312 5.28125 14.839844 9.585938 23.09375 12.792969 1.941406.753906 4.105468.667969 5.980468-.238281 1.875-.910156 3.289063-2.554688 3.902344-4.546875.921875-2.996094 2.632813-5.703125 4.949219-7.835938 2.136719-1.96875 2.945313-4.988281 2.078125-7.761719-3.648438-11.660156-5.261719-23.800781-4.78125-36.070312.101562-2.503906 2.191406-4.449219 4.699219-4.363281 2.503906.101562 4.460937 2.214843 4.359375 4.707031-.457032 11.621094 1.214844 23.550781 4.835937 34.503906.796875 2.414063 2.765625 4.257813 5.226563 4.898438 4.144531 1.085937 7.757812 3.648437 10.167968 7.21875 1.3125 1.949218 3.464844 3.167968 5.808594 3.292968 2.332032.132813 4.617188-.851562 6.132813-2.644531 2.726562-3.21875 4.082031-6.878906 3.824219-10.261719-.085938-1.210937.304687-2.382812 1.101562-3.296874.792969-.914063 1.894531-1.464844 3.101562-1.550782 2.5-.1875 4.667969 1.710938 4.847657 4.199219.582031 8.222656-3.941407 16.679687-11.804688 22.070313-1.925781 1.316406-4.011719 2.449218-6.382812 3.460937-1.976563.84375-3.496094 2.496094-4.171875 4.539063-.675782 2.039062-.441406 4.269531.636718 6.128906 5.09375 8.753906 6.683594 19.179687 4.371094 28.609375-.777344 3.160156-1.910156 6.066406-3.007812 8.878906l-.054688.140625c-1.1875 3-2.414062 6.105469-2.914062 9.085938-1.253906 7.535156 1.996094 15.195312 5.683594 21.097656-2.285157 4.230468-4.179688 8.699218-5.636719 13.351562-.726563-.917968-1.4375-1.851562-2.125-2.800781-5.441407-7.5-8.816407-15.003906-10.035157-22.308594-.679687-4.085937-4.542968-6.84375-8.628906-6.164062-4.085937.679687-6.847656 4.542969-6.167968 8.628906 1.605468 9.617187 5.871093 19.253906 12.691406 28.660156 3.308594 4.542969 6.960937 8.773438 10.894531 12.613281-.078125 1.429688-.121094 2.867188-.121094 4.316407v6.96875c0 9.894531 1.941407 19.683593 5.664063 28.789062-14.796875 4.273438-28.171875 12.800781-38.363282 24.609375-12.515624 14.5-19.410156 33.046875-19.410156 52.222656v7.8125c0 40.386719 30.316406 74.523438 70.519532 79.40625 50.753906 6.167969 101.945312 9.257813 153.042968 9.257813 31.796875 0 63.566406-1.195313 95.15625-3.59375 4.128906-.3125 7.222656-3.914063 6.910156-8.042969-.3125-4.132812-3.933593-7.222656-8.046874-6.910156zm0 0"/><path d="m162.683594 293.949219c4.140625 0 7.5-3.355469 7.5-7.5 0-4.140625-3.355469-7.5-7.5-7.5-14.253906 0-25.847656 11.59375-25.847656 25.847656 0 14.25 11.59375 25.847656 25.847656 25.847656s25.847656-11.597656 25.847656-25.847656c0-4.140625-3.355469-7.5-7.5-7.5-4.140625 0-7.5 3.359375-7.5 7.5 0 5.980469-4.867188 10.847656-10.847656 10.847656-5.980469 0-10.847656-4.867187-10.847656-10.847656s4.867187-10.847656 10.847656-10.847656zm0 0"/><path d="m197.835938 186.382812c0-12.570312-10.226563-22.792968-22.796876-22.792968-4.140624 0-7.5 3.355468-7.5 7.5 0 4.140625 3.359376 7.5 7.5 7.5 4.300782 0 7.796876 3.496094 7.796876 7.796875 0 4.296875-3.496094 7.792969-7.796876 7.792969-4.296874 0-7.796874-3.496094-7.796874-7.792969 0-4.144531-3.355469-7.5-7.5-7.5-4.140626 0-7.5 3.355469-7.5 7.5 0 12.566406 10.226562 22.792969 22.796874 22.792969 12.570313 0 22.796876-10.226563 22.796876-22.796876zm0 0"/><path d="m389.617188 338.441406c0-12.570312-10.226563-22.796875-22.792969-22.796875-4.144531 0-7.5 3.355469-7.5 7.5 0 4.140625 3.355469 7.5 7.5 7.5 4.296875 0 7.792969 3.496094 7.792969 7.796875 0 4.296875-3.496094 7.792969-7.792969 7.792969-4.300781 0-7.796875-3.496094-7.796875-7.792969 0-4.144531-3.355469-7.5-7.5-7.5-4.144532 0-7.5 3.355469-7.5 7.5 0 12.570313 10.226562 22.792969 22.792968 22.792969 12.570313 0 22.796876-10.222656 22.796876-22.792969zm0 0"/></svg>