<?xml version="1.0" encoding="iso-8859-1"?>
<!-- Generator: Adobe Illustrator 19.0.0, SVG Export Plug-In . SVG Version: 6.00 Build 0)  -->
<svg version="1.1" id="Capa_1" xmlns="http://www.w3.org/2000/svg" xmlns:xlink="http://www.w3.org/1999/xlink" x="0px" y="0px"
	 viewBox="0 0 512 512" style="enable-background:new 0 0 512 512;" xml:space="preserve">
<g>
	<g transform="translate(1 1)">
		<path style="fill:#6A1B9A;" d="M399.016,250.563l-1.963-3.413L262.568,11.885c-1.515-2.674-4.351-4.326-7.424-4.326
			s-5.909,1.652-7.424,4.326L113.235,247.149l-1.963,3.413c-1.592,2.744-1.592,6.131,0,8.875l4.352,7.595L247.72,498.115
			c1.515,2.674,4.351,4.326,7.424,4.326s5.909-1.652,7.424-4.326l132.096-231.083l4.352-7.595
			C400.609,256.693,400.609,253.307,399.016,250.563z"/>
		<path style="fill:#673AB7;" d="M255.144,7.533v315.734l-8.533-4.011L110.078,255c-0.029-1.562,0.385-3.101,1.195-4.437
			l1.963-3.413L247.72,11.885C249.211,9.184,252.059,7.515,255.144,7.533z"/>
		<path style="fill:#4527A0;" d="M400.211,255l-136.533,64.256l-8.533,4.011V7.533c3.085-0.018,5.933,1.651,7.424,4.352
			l134.485,235.264l1.963,3.413C399.826,251.899,400.24,253.438,400.211,255z"/>
		<path style="fill:#9D27B0;" d="M255.144,323.267v179.2c-3.085,0.018-5.933-1.651-7.424-4.352L115.624,267.032l-4.352-7.595
			c-0.809-1.337-1.224-2.875-1.196-4.437l136.535,64.256L255.144,323.267z"/>
		<path style="fill:#2E7D32;" d="M126.649,399.316l-0.802-1.399l-55.381-96.333c-0.622-1.102-1.789-1.784-3.055-1.784
			s-2.433,0.682-3.055,1.784L8.975,397.916l-0.802,1.399c-0.66,1.122-0.66,2.513,0,3.635l1.792,3.106l54.391,94.626
			c0.622,1.102,1.789,1.784,3.055,1.784s2.433-0.682,3.055-1.784l54.391-94.643l1.792-3.106c0.66-1.122,0.66-2.513,0-3.635V399.316z
			"/>
		<path style="fill:#8BC34A;" d="M67.411,299.8v129.28l-3.516-1.647l-56.218-26.3c-0.014-0.641,0.158-1.272,0.495-1.818l0.802-1.399
			l55.381-96.333C64.973,300.476,66.143,299.793,67.411,299.8z"/>
		<path style="fill:#558B30;" d="M127.144,401.133l-56.218,26.308l-3.516,1.638V299.8c1.267-0.007,2.438,0.676,3.055,1.784
			l55.381,96.333l0.802,1.399C126.986,399.861,127.158,400.492,127.144,401.133z"/>
		<path style="fill:#4CAF50;" d="M67.411,429.08v73.387c-1.267,0.007-2.438-0.676-3.055-1.784L9.965,406.04l-1.792-3.106
			c-0.334-0.54-0.506-1.165-0.495-1.801l56.218,26.308L67.411,429.08z"/>
		<path style="fill:#C52828;" d="M502.116,109.182l-0.802-1.399L445.933,11.45c-0.622-1.102-1.789-1.784-3.055-1.784
			s-2.433,0.682-3.055,1.784l-55.381,96.333l-0.802,1.399c-0.66,1.122-0.66,2.513,0,3.635l1.792,3.106l54.391,94.626
			c0.622,1.102,1.789,1.784,3.055,1.784s2.433-0.682,3.055-1.784l54.391-94.643l1.792-3.106c0.66-1.122,0.66-2.513,0-3.635V109.182z
			"/>
		<path style="fill:#E91E63;" d="M442.878,9.667v129.28l-3.516-1.647L383.144,111c-0.014-0.641,0.158-1.272,0.495-1.818l0.802-1.399
			l55.381-96.333C440.439,10.343,441.61,9.659,442.878,9.667z"/>
		<path style="fill:#AD1457;" d="M502.611,111l-56.218,26.308l-3.516,1.638V9.667c1.267-0.007,2.438,0.676,3.055,1.784
			l55.381,96.333l0.802,1.399C502.453,109.728,502.625,110.359,502.611,111z"/>
		<path style="fill:#F44335;" d="M442.878,138.947v73.387c-1.267,0.007-2.438-0.676-3.055-1.784l-54.391-94.643l-1.792-3.106
			c-0.334-0.54-0.506-1.165-0.495-1.801l56.218,26.308L442.878,138.947z"/>
	</g>
	<g>
		<path d="M409.642,255.266c-0.082-2.796-0.841-5.531-2.21-7.97L270.984,8.661c-3.033-5.339-8.699-8.637-14.839-8.637
			c-6.14,0-11.807,3.298-14.839,8.637L104.857,247.287c-1.367,2.444-2.125,5.18-2.21,7.979c0,0.188-0.068,0.367-0.077,0.546
			c-0.041,3.114,0.748,6.184,2.287,8.892l136.448,238.635c3.033,5.339,8.699,8.637,14.839,8.637c6.14,0,11.807-3.298,14.839-8.637
			l136.448-238.626c1.545-2.707,2.344-5.775,2.313-8.892C409.744,255.633,409.659,255.454,409.642,255.266z M256.144,17.067
			l0.06,0.085l133.914,234.65l-125.44,59.017V76.8c0-4.713-3.82-8.533-8.533-8.533s-8.533,3.821-8.533,8.533v234.018
			l-125.619-59.085L256.144,17.067z M256.144,494.882L130.363,274.509l117.248,55.177v114.048c0,4.713,3.821,8.533,8.533,8.533
			s8.533-3.821,8.533-8.533V329.685l117.572-55.33L256.144,494.882z"/>
		<path d="M136.319,401.067c-0.018-2.047-0.549-4.057-1.545-5.845l-55.731-98.91c-2.112-3.793-6.108-6.151-10.45-6.165
			s-8.353,2.317-10.49,6.097L1.749,394.82c-0.983,1.76-1.517,3.736-1.553,5.751c0,0.094,0,0.196,0,0.299
			c-0.007,2.121,0.534,4.208,1.57,6.059l55.723,98.91c2.116,3.771,6.087,6.121,10.411,6.161c4.324-0.013,8.311-2.337,10.453-6.093
			l56.32-98.551c1.063-1.849,1.622-3.944,1.621-6.076C136.345,401.212,136.319,401.143,136.319,401.067z M68.522,312.397
			l47.676,84.548L76.56,413.781V358.4c0-4.713-3.821-8.533-8.533-8.533s-8.533,3.82-8.533,8.533v55.245l-39.134-16.99
			L68.522,312.397z M67.976,489.754l-40.107-71.245l31.65,13.739v20.019c0,4.713,3.821,8.533,8.533,8.533s8.533-3.82,8.533-8.533
			v-19.934l32.026-13.653L67.976,489.754z"/>
		<path d="M511.786,110.933c-0.018-2.047-0.549-4.057-1.545-5.845L454.51,6.178c-2.206-3.72-6.164-6.052-10.487-6.178
			c-4.325,0.009-8.314,2.334-10.453,6.093l-56.32,98.577c-0.983,1.76-1.517,3.736-1.553,5.751c0,0.094-0.043,0.196-0.043,0.299
			c-0.007,2.121,0.534,4.208,1.57,6.059l55.723,98.91c2.113,3.78,6.089,6.138,10.419,6.178h0.043
			c4.324-0.013,8.311-2.337,10.453-6.093l56.32-98.551c1.063-1.849,1.622-3.944,1.621-6.076
			C511.811,111.078,511.786,111.01,511.786,110.933z M443.989,22.263l47.676,84.548l-39.595,16.836V68.267
			c0-4.713-3.82-8.533-8.533-8.533s-8.533,3.821-8.533,8.533v55.245l-39.134-16.99L443.989,22.263z M443.442,199.62l-40.107-71.245
			l31.65,13.739v20.019c0,4.713,3.82,8.533,8.533,8.533s8.533-3.821,8.533-8.533v-19.934l32.026-13.653L443.442,199.62z"/>
	</g>
</g>
<g>
</g>
<g>
</g>
<g>
</g>
<g>
</g>
<g>
</g>
<g>
</g>
<g>
</g>
<g>
</g>
<g>
</g>
<g>
</g>
<g>
</g>
<g>
</g>
<g>
</g>
<g>
</g>
<g>
</g>
</svg>
