<?xml version="1.0" encoding="iso-8859-1"?>
<!-- Generator: Adobe Illustrator 19.0.0, SVG Export Plug-In . SVG Version: 6.00 Build 0)  -->
<svg version="1.1" id="Capa_1" xmlns="http://www.w3.org/2000/svg" xmlns:xlink="http://www.w3.org/1999/xlink" x="0px" y="0px"
	 viewBox="0 0 509.136 509.136" style="enable-background:new 0 0 509.136 509.136;" xml:space="preserve">
<g>
	<g transform="translate(0 1)">
		<g>
			<path style="fill:#F57C00;" d="M416.573,142.766c36.804-24.576,47.898-51.456,48.486-74.155
				c20.42-17.323,18.995-52.821,18.995-52.821s52.053,67.243-27.401,123.819c0.094-1.783-0.314-3.557-1.178-5.12
				C445.74,145.503,429.95,148.863,416.573,142.766z"/>
			<path style="fill:#F57C00;" d="M491.197,134.489c0,0,6.895,10.155-12.689,30.037c-16.663,15.693-40.381,21.405-62.362,15.019
				c10.064-2.544,19.267-7.729,26.658-15.019c6.147-5.509,10.728-12.545,13.278-20.395
				C468.664,148.174,482.445,144.39,491.197,134.489z"/>
		</g>
		<g>
			<path style="fill:#FF9801;" d="M455.476,134.489c0.864,1.563,1.272,3.337,1.178,5.12v0.085c-1.425,1.024-2.935,2.048-4.454,3.072
				c1.348,0.512,2.611,1.024,3.866,1.365c-2.546,7.848-7.12,14.884-13.261,20.395c-7.386,7.287-16.583,12.472-26.641,15.019
				c-13.04-3.624-25.047-10.259-35.055-19.371c-36.813-32.341-6.639-104.875,25.207-102.4c2.181,0.171,4.372,0.171,6.554,0
				c14.227-0.708,27.002-8.932,33.536-21.589V36.1c0.728-1.265,1.372-2.576,1.929-3.925c4.465,16.123,0.376,33.409-10.837,45.824
				c10.026,0.343,19.83-2.996,27.563-9.387c-0.589,22.699-11.682,49.579-48.486,74.155
				C429.95,148.863,445.74,145.503,455.476,134.489z"/>
			<path style="fill:#FF9801;" d="M452.191,142.766c1.519-1.024,3.029-2.048,4.454-3.072c-0.013,1.498-0.21,2.988-0.589,4.437
				C454.811,143.79,453.548,143.278,452.191,142.766z"/>
		</g>
		<path style="fill:#37474F;" d="M381.364,305.241c0,103.682-84.051,187.733-187.733,187.733c-5.803,0-11.435-0.256-17.067-0.768
			C79.853,483.432,5.795,402.35,5.795,305.241s74.058-178.19,170.77-186.965c5.632-0.512,11.264-0.768,17.067-0.768
			c49.79,0,97.541,19.779,132.748,54.986S381.364,255.451,381.364,305.241z"/>
		<ellipse style="fill:#607D8B;" cx="176.564" cy="305.241" rx="170.667" ry="186.965"/>
		<path style="fill:#37474F;" d="M189.364,291.246c-25.344,29.867-59.989,44.117-86.613,38.229
			c-7.389-1.527-14.281-4.87-20.053-9.728c-26.453-22.443-21.589-71.68,10.837-109.909c15.522-19.172,36.991-32.624,61.013-38.229
			c15.904-3.969,32.749-0.379,45.653,9.728C226.74,203.865,221.876,253.017,189.364,291.246z"/>
		<path style="fill:#607D8B;" d="M163.764,291.246c-15.505,19.192-36.981,32.648-61.013,38.229
			c-7.389-1.527-14.281-4.87-20.053-9.728c-26.453-22.443-21.589-71.68,10.837-109.909c15.522-19.172,36.991-32.624,61.013-38.229
			c7.389,1.527,14.281,4.87,20.053,9.728C201.14,203.865,196.276,253.017,163.764,291.246z"/>
		
			<ellipse transform="matrix(-0.5 -0.866 0.866 -0.5 -187.8047 674.061)" style="fill:#37474F;" cx="100.683" cy="391.245" rx="26.342" ry="17.067"/>
		<path style="fill:#2C2F38;" d="M307.978,245.508c-1.902-0.001-3.749-0.638-5.248-1.809c-13.555-9.452-22.251-24.402-23.765-40.858
			c0-4.713,3.82-8.533,8.533-8.533c4.66-0.001,8.459,3.737,8.533,8.397c1.557,11.212,7.817,21.231,17.212,27.546
			c2.872,2.244,4.002,6.063,2.813,9.508C314.867,243.203,311.622,245.513,307.978,245.508z"/>
	</g>
	<g>
		<path d="M193.631,451.308c-4.713,0-8.533,3.82-8.533,8.533s3.821,8.533,8.533,8.533c72.108-0.277,135.464-47.903,155.767-117.094
			c1.243-4.503-1.366-9.168-5.853-10.467c-4.487-1.299-9.184,1.252-10.539,5.722C314.845,408.449,258.153,451.066,193.631,451.308z"
			/>
		<path d="M346.531,323.308h0.478c4.535,0.007,8.284-3.535,8.533-8.064c0.148-2.975,0.222-5.976,0.222-9.003
			c0-4.713-3.82-8.533-8.533-8.533s-8.533,3.82-8.533,8.533c0,2.702-0.074,5.39-0.222,8.064c-0.128,2.263,0.649,4.483,2.16,6.172
			S344.268,323.184,346.531,323.308z"/>
		<path d="M114.809,340.221c26.965,0,57.847-15.104,81.067-42.453c35.447-41.745,39.885-96.427,9.882-121.924
			s-83.268-12.262-118.716,29.483s-39.893,96.427-9.89,121.924C87.738,335.956,101.106,340.561,114.809,340.221z M100.055,216.377
			c19.942-23.475,45.926-36.693,67.695-36.693c9.8-0.281,19.373,2.979,26.965,9.182c22.835,19.396,17.519,63.3-11.844,97.869
			s-71.834,46.933-94.66,27.529C65.384,294.858,70.691,250.954,100.055,216.377z"/>
		<path d="M105.678,362.51c-6.912-3.989-15.387-4.157-22.451-0.444c-12.433,7.185-14.507,26.069-4.736,43.017
			c5.64,11.345,16.762,18.952,29.38,20.096c3.591,0.025,7.124-0.903,10.24-2.688c6.753-4.263,10.848-11.692,10.846-19.678
			c0.185-16.676-8.736-32.126-23.27-40.303H105.678z M109.569,407.737c-2.961,1.707-10.94-1.894-16.299-11.153
			c-5.359-9.259-4.454-17.997-1.51-19.695c0.54-0.289,1.146-0.43,1.758-0.41c1.545,0.079,3.051,0.511,4.403,1.263
			c8.531,5.124,13.817,14.285,13.986,24.235c0.146,2.167-0.717,4.28-2.338,5.726V407.737z"/>
		<path d="M481.204,8.744c-3.487,1.262-5.76,4.631-5.623,8.337c0,0.282,0.853,28.766-13.815,43.964
			c-1.953,2.047-4.192,3.8-6.647,5.205c4.686-11.373,5.161-24.045,1.34-35.738c-1.137-3.464-4.35-5.823-7.996-5.871
			c-3.658-0.105-6.96,2.18-8.149,5.641c-5.487,13.289-19.044,21.402-33.348,19.959c-17.161-1.425-34.389,12.843-44.228,36.105
			c-9.148,21.658-12.049,53.316,7.219,75.58c-7.103,7.889-14.909,15.115-23.322,21.589
			c-66.573-82.478-186.849-96.649-270.767-31.901S-24.858,336.298,38.034,421.616s182.43,104.751,269.108,43.746
			c86.678-61.005,108.727-180.088,49.638-268.083c9.324-7.169,17.96-15.191,25.796-23.962c14.885,11.516,33.108,17.885,51.925,18.15
			c18.674,0.257,36.681-6.934,50.039-19.985c23.373-23.731,15.454-38.195,13.653-40.849c-1.545-2.178-4.021-3.508-6.69-3.593
			c-2.697-0.149-5.3,1.014-6.989,3.123c-2.425,2.773-5.468,4.936-8.883,6.315c17.02-14.214,28.568-33.904,32.666-55.697
			c3.244-24.462-3.001-49.237-17.451-69.239C488.58,8.617,484.686,7.487,481.204,8.744z M372.831,306.241
			c0.147,87.436-62.717,162.262-148.868,177.196C137.812,498.372,53.431,449.07,24.14,366.687s5.027-173.888,81.268-216.692
			s172.233-24.459,227.316,43.444c-11.008,7.109-22.568,13.324-34.569,18.586c-1.128-2.649-1.844-5.455-2.125-8.32
			c-0.075-4.659-3.873-8.397-8.533-8.397c-4.713,0-8.533,3.821-8.533,8.533c1.526,16.445,10.224,31.381,23.774,40.823
			c3.717,2.817,9.008,2.127,11.878-1.549c2.871-3.676,2.259-8.975-1.374-11.9c-1.914-1.491-3.733-3.101-5.444-4.821
			c12.16-5.475,23.882-11.873,35.063-19.14C362.425,236.558,372.855,271.007,372.831,306.241z M491.444,78.171
			c-3.618,21.76-18.398,41.438-43.938,58.47c-2.632,1.754-4.078,4.819-3.758,7.965c0.32,3.146,2.354,5.857,5.285,7.045
			c9.026,3.885,19.102,4.601,28.587,2.031c-1.623,2.046-3.358,4-5.197,5.854c-17.92,18.21-53.76,22.801-85.009-4.267
			c-0.171-0.154-0.247-0.367-0.435-0.512c-0.126-0.077-0.257-0.145-0.393-0.205c-17.067-15.258-16.401-41.865-8.081-61.551
			c6.494-15.36,17.16-25.771,26.266-25.771c0.299,0,0.606,0,0.905,0c12.311,1.225,24.631-2.253,34.483-9.737
			c-1.861,5.755-4.868,11.073-8.841,15.633c-2.351,2.473-3.003,6.11-1.657,9.245c1.346,3.136,4.431,5.168,7.843,5.167
			c13.728,0.475,27.019-4.867,36.599-14.711c7.066-7.734,12.14-17.075,14.78-27.213C492.264,56.12,493.141,67.268,491.444,78.171z"
			/>
	</g>
</g>
<g>
</g>
<g>
</g>
<g>
</g>
<g>
</g>
<g>
</g>
<g>
</g>
<g>
</g>
<g>
</g>
<g>
</g>
<g>
</g>
<g>
</g>
<g>
</g>
<g>
</g>
<g>
</g>
<g>
</g>
</svg>
