<?xml version="1.0" encoding="iso-8859-1"?>
<!-- Generator: Adobe Illustrator 19.0.0, SVG Export Plug-In . SVG Version: 6.00 Build 0)  -->
<svg version="1.1" id="Capa_1" xmlns="http://www.w3.org/2000/svg" xmlns:xlink="http://www.w3.org/1999/xlink" x="0px" y="0px"
	 viewBox="0 0 511.997 511.997" style="enable-background:new 0 0 511.997 511.997;" xml:space="preserve">
<g>
	<g transform="translate(1 1)">
		<g>
			<path style="fill:#FFB301;" d="M485.398,175.637v68.267c-0.032,5.312-2.255,10.376-6.144,13.995l-70.656,66.475l-15.275,14.336
				l-52.992-75.179L485.398,175.637z"/>
			<path style="fill:#FFB301;" d="M24.598,175.637v68.267c0.032,5.312,2.255,10.376,6.144,13.995l85.931,80.811l35.925-75.179
				L24.598,175.637z"/>
			<path style="fill:#FFB301;" d="M408.599,414.912v68.267c-0.108,6.746-3.681,12.961-9.457,16.447
				c-5.776,3.486-12.94,3.753-18.959,0.705l-4.608-2.219c4.664-3.551,7.408-9.071,7.424-14.933v-68.267l-140.8-60.501l12.8-5.547
				L408.599,414.912z"/>
		</g>
		<path style="fill:#FEC108;" d="M382.999,414.912v68.267c-0.016,5.862-2.76,11.382-7.424,14.933l-112.043-53.248
			c-5.581-2.816-12.168-2.816-17.749,0l-3.925,1.877L129.814,500.33c-6.813,3.518-15.065,2.646-20.992-2.219h-0.085
			c-4.61-3.586-7.316-9.093-7.339-14.933v-68.267l140.8-60.501L382.999,414.912z"/>
		<path style="fill:#FFB301;" d="M389.484,274.112c-4.768,4.475-6.951,11.056-5.803,17.493l24.576,119.808
			c1.24,7.269-1.727,14.616-7.668,18.985c-5.94,4.369-13.837,5.014-20.407,1.666l-10.24-4.864l-106.411-50.603
			c-5.581-2.816-12.168-2.816-17.749,0l-8.192,3.925l-107.776,51.541c-8.125,4.143-18.034,2.125-23.893-4.864
			c-3.692-4.368-5.227-10.164-4.181-15.787l24.576-119.808c1.148-6.437-1.035-13.018-5.803-17.493l-89.771-84.48
			c-5.446-5.11-7.464-12.899-5.184-20.011s8.449-12.276,15.851-13.269l91.648-12.885l33.451-4.693
			c6.311-0.834,11.804-4.73,14.677-10.411L237.59,18.112c0.083-0.189,0.199-0.362,0.341-0.512
			c3.507-6.293,10.187-10.151,17.39-10.044c7.203,0.107,13.766,4.162,17.084,10.556l56.405,110.251
			c2.873,5.681,8.366,9.577,14.677,10.411l91.648,12.885l33.451,4.693c7.402,0.993,13.571,6.157,15.851,13.269
			c2.279,7.112,0.262,14.901-5.184,20.011L389.484,274.112z"/>
		<path style="fill:#FEC108;" d="M355.35,274.112c-4.768,4.475-6.951,11.056-5.803,17.493l24.576,119.808
			c1.046,5.623-0.489,11.419-4.181,15.787l-106.411-50.603c-5.581-2.816-12.168-2.816-17.749,0l-8.192,3.925l-8.192-3.925
			c-5.581-2.816-12.168-2.816-17.749,0L105.921,427.2c-3.692-4.368-5.227-10.164-4.181-15.787l24.576-119.808
			c1.148-6.437-1.035-13.018-5.803-17.493l-89.771-84.48c-5.446-5.11-7.464-12.899-5.184-20.011s8.449-12.276,15.851-13.269
			l91.648-12.885l33.451-4.693c6.311-0.834,11.804-4.73,14.677-10.411L237.59,18.112c0.083-0.189,0.199-0.362,0.341-0.512
			c0.143,0.15,0.258,0.323,0.341,0.512l56.405,110.251c2.873,5.681,8.366,9.577,14.677,10.411l125.099,17.579
			c7.402,0.993,13.571,6.157,15.851,13.269c2.279,7.112,0.262,14.901-5.184,20.011L355.35,274.112z"/>
		<path style="fill:#AD1457;" d="M414.572,198.677l-52.48,48.811c-12.679,11.715-18.502,29.09-15.445,46.08l14.763,71.083
			c0.586,3.048-0.586,6.167-3.034,8.075c-2.448,1.908-5.759,2.283-8.572,0.97l-13.909-6.571l-58.283-27.392
			c-7.147-3.494-14.999-5.304-22.955-5.291c-8.145,0.018-16.176,1.916-23.467,5.547l-70.997,33.536
			c-2.407,1.158-5.228,1.068-7.556-0.241c-2.329-1.309-3.872-3.672-4.134-6.33c-0.098-0.796-0.069-1.602,0.085-2.389l14.763-70.997
			c3.057-16.99-2.767-34.365-15.445-46.08l-52.48-48.811c-2.28-2.159-3.117-5.436-2.151-8.423c0.966-2.988,3.562-5.155,6.674-5.571
			l71.68-9.899l25.088-3.499c2.632-0.369,4.922-1.991,6.144-4.352l39.339-76.117l5.461-10.581c1.439-2.719,4.263-4.419,7.339-4.419
			s5.9,1.701,7.339,4.419l44.8,86.699c1.222,2.361,3.512,3.983,6.144,4.352l71.68,9.899l25.088,3.499
			c3.112,0.416,5.708,2.584,6.674,5.571C417.689,193.241,416.852,196.518,414.572,198.677z"/>
		<path style="fill:#E91E63;" d="M388.972,198.677l-52.48,48.811c-12.679,11.715-18.502,29.09-15.445,46.08l14.763,71.083
			c0.197,0.81,0.226,1.653,0.085,2.475l-58.283-27.392c-7.147-3.494-14.999-5.304-22.955-5.291
			c-4.347-0.018-8.678,0.527-12.885,1.621c-4.149-1.095-8.424-1.64-12.715-1.621c-8.148-0.01-16.185,1.89-23.467,5.547
			l-57.088,26.965c-0.098-0.796-0.069-1.602,0.085-2.389l14.763-70.997c3.057-16.99-2.767-34.365-15.445-46.08l-52.48-48.811
			c-2.28-2.159-3.117-5.436-2.151-8.423c0.966-2.988,3.562-5.155,6.674-5.571l71.68-9.899l25.088-3.499
			c2.632-0.369,4.922-1.991,6.144-4.352l39.339-76.117l39.339,76.117c1.222,2.361,3.512,3.983,6.144,4.352l96.768,13.397
			c3.112,0.416,5.708,2.584,6.674,5.571C392.089,193.241,391.252,196.518,388.972,198.677z"/>
	</g>
	<g>
		<path d="M493.609,168.104c-3.231-10.301-12.135-17.8-22.835-19.234l-125.124-17.51c-3.541-0.494-6.621-2.677-8.26-5.854
			L281.001,15.255C276.182,5.888,266.532,0,255.998,0c-10.534,0-20.184,5.888-25.003,15.255l-56.38,110.251
			c-1.646,3.175-4.727,5.357-8.269,5.854L41.223,148.904c-10.692,1.428-19.593,8.912-22.835,19.2
			c-0.861,2.711-1.307,5.536-1.323,8.38c0,0.051,0,0.102,0,0.154v68.267c0.036,7.663,3.228,14.972,8.823,20.207l82.483,77.525
			L94.36,410.903c-0.27,1.573-0.401,3.166-0.393,4.762c0,0.094-0.06,0.179-0.06,0.273v68.267c0.02,9.701,5.119,18.683,13.44,23.671
			c4.42,2.697,9.499,4.123,14.677,4.122c4.343,0.002,8.625-1.027,12.493-3.004l116.139-55.578c3.23-1.615,7.04-1.58,10.24,0.094
			l116.446,55.39c8.656,4.382,18.959,3.988,27.256-1.04c8.297-5.028,13.413-13.981,13.534-23.681v-68.267
			c0-0.145-0.077-0.265-0.085-0.41c0.002-1.622-0.135-3.24-0.41-4.838l-13.969-68.028l82.5-77.585
			c5.564-5.227,8.734-12.513,8.764-20.147v-68.267c0-0.051,0-0.102,0-0.154C494.916,173.639,494.47,170.814,493.609,168.104z
			 M34.661,173.309c1.235-4.043,4.731-6.984,8.926-7.509l125.124-17.536c9.05-1.266,16.919-6.856,21.094-14.985l56.397-110.242
			c1.886-3.683,5.675-6,9.813-6c4.138,0,7.927,2.317,9.813,6l56.405,110.259c4.174,8.125,12.039,13.712,21.086,14.976L468.41,165.8
			c4.195,0.525,7.691,3.466,8.926,7.509c1.299,3.948,0.159,8.291-2.91,11.093l-89.796,84.48
			c-6.908,6.501-10.036,16.069-8.303,25.395l24.559,119.586c0.752,4.044-0.892,8.16-4.224,10.573
			c-3.422,2.576-8.036,2.91-11.793,0.853l-116.48-55.347c-7.939-4.026-17.315-4.061-25.284-0.094L126.94,425.426
			c-3.732,1.95-8.254,1.567-11.605-0.981c-3.287-2.348-4.944-6.368-4.267-10.351l24.61-120.03
			c1.659-9.265-1.481-18.741-8.346-25.182l-89.788-84.446C34.475,181.62,33.346,177.262,34.661,173.309z M37.648,252.746
			c-2.218-2.007-3.493-4.851-3.516-7.842v-40.269l81.536,76.681c2.62,2.432,3.852,6.011,3.285,9.54l-6.596,32.137L37.648,252.746z
			 M395.775,493.3c-3.326,2.035-7.481,2.159-10.923,0.324l-116.463-55.39c-7.943-4.026-17.323-4.058-25.293-0.085L126.94,493.727
			c-3.399,1.755-7.469,1.592-10.718-0.427c-3.24-1.904-5.247-5.365-5.291-9.122v-42.803c7.545,3.351,16.2,3.116,23.552-0.64
			l116.164-55.543c3.23-1.619,7.043-1.581,10.24,0.102l116.48,55.347c7.4,3.775,16.097,4.053,23.723,0.759v42.778
			C401.041,487.941,399.024,491.403,395.775,493.3z M474.409,252.66l-74.769,70.323l-6.562-31.923
			c-0.633-3.594,0.589-7.265,3.251-9.762l81.536-76.663v40.269c-0.003,2.954-1.24,5.773-3.413,7.774L474.409,252.66z"/>
		<path d="M143.085,254.734c10.507,9.679,15.365,24.04,12.894,38.11l-14.711,70.972c-1.3,6.183,1.034,12.567,6.016,16.452
			c5.007,3.963,11.833,4.731,17.596,1.98l71.185-33.673c12.228-6.002,26.53-6.074,38.818-0.196l0.128,0.06l72.166,33.946
			c5.765,2.731,12.581,1.95,17.579-2.014c4.958-3.894,7.274-10.266,5.973-16.435l-14.694-70.827
			c-2.545-14.135,2.305-28.591,12.86-38.332l52.429-48.802c4.708-4.39,6.464-11.1,4.512-17.234
			c-1.952-6.134-7.264-10.594-13.643-11.456l-96.461-13.286l-44.826-86.69c-2.892-5.562-8.639-9.052-14.908-9.052
			c-6.269,0-12.016,3.49-14.908,9.052l-44.578,86.528l-96.725,13.406c-6.381,0.859-11.695,5.318-13.649,11.452
			c-1.954,6.134-0.198,12.846,4.51,17.237L143.085,254.734z M198.825,180.724c5.393-0.742,10.09-4.058,12.595-8.892l44.322-86.682
			l44.809,86.69c2.515,4.834,7.221,8.146,12.621,8.883l96.589,12.715l-52.471,48.802c-14.857,13.754-21.644,34.154-17.988,54.067
			l15.138,70.622l-72.107-33.92c-17.024-8.095-36.804-8.014-53.76,0.222l-70.596,34.048l14.763-71.177
			c3.586-19.849-3.211-40.154-18.022-53.845l-52.582-48.094L198.825,180.724z"/>
	</g>
</g>
<g>
</g>
<g>
</g>
<g>
</g>
<g>
</g>
<g>
</g>
<g>
</g>
<g>
</g>
<g>
</g>
<g>
</g>
<g>
</g>
<g>
</g>
<g>
</g>
<g>
</g>
<g>
</g>
<g>
</g>
</svg>
