<svg height="512pt" viewBox="-18 0 511 512" width="512pt" xmlns="http://www.w3.org/2000/svg"><path d="m114.960938 253.824219c-11.71875-11.714844-30.710938-11.714844-42.425782 0l-60.105468 60.105469c-5.859376 5.859374-5.859376 15.355468 0 21.214843 5.855468 5.855469 15.351562 5.855469 21.210937 0l14.144531-14.144531c-5.859375 5.859375-5.859375 15.355469 0 21.214844 5.855469 5.855468 15.355469 5.855468 21.210938 0-5.855469 5.855468-5.855469 15.351562 0 21.210937 5.859375 5.859375 15.355468 5.859375 21.214844 0l21.210937-21.210937c-5.855469 5.855468-5.855469 15.351562 0 21.210937 5.859375 5.859375 15.355469 5.859375 21.214844 0l45.960937-45.960937zm0 0" fill="#fff9eb"/><path d="m178.597656 317.464844-63.636718-63.640625c-11.714844-11.710938-30.699219-11.714844-42.417969-.007813l-.011719.007813 53.035156 53.035156c5.859375 5.859375 5.859375 15.355469 0 21.210937l-14.144531 14.144532c-5.855469 5.855468-5.855469 15.355468.003906 21.210937 5.855469 5.859375 15.351563 5.859375 21.210938 0zm0 0" fill="#d3cdbf"/><path d="m361.0625 253.824219c11.714844-11.714844 30.710938-11.714844 42.425781 0l60.105469 60.105469c5.855469 5.859374 5.855469 15.355468 0 21.214843-5.859375 5.855469-15.355469 5.855469-21.214844 0l-14.140625-14.144531c5.855469 5.859375 5.855469 15.355469 0 21.214844-5.859375 5.855468-15.355469 5.855468-21.214843 0 5.859374 5.855468 5.859374 15.351562 0 21.210937-5.859376 5.859375-15.355469 5.859375-21.210938 0l-21.214844-21.210937c5.859375 5.855468 5.859375 15.351562 0 21.210937s-15.355468 5.859375-21.210937 0l-45.964844-45.960937zm0 0" fill="#fff9eb"/><path d="m463.59375 313.929688-60.105469-60.105469c-11.714843-11.714844-30.703125-11.714844-42.421875-.003907l81.3125 81.324219c5.859375 5.855469 15.355469 5.855469 21.214844 0 5.855469-5.859375 5.855469-15.355469 0-21.214843zm0 0" fill="#d3cdbf"/><path d="m255.683594 458.089844v16.847656c0 8.285156 6.71875 15 15 15 8.285156 0 15-6.714844 15-15v-31.847656zm0 0" fill="#f7a16e"/><path d="m190.433594 428.089844v61.410156c0 8.285156 6.714844 15 15 15s15-6.714844 15-15v-30.785156zm0 0" fill="#ffc98c"/><path d="m315.226562 320.449219c-.921874-17.023438-8.90625-33.050781-22.679687-45.628907l-108.984375-.183593c-13.621094 12.355469-21.882812 29.839843-22.785156 47.007812-.0625 1.191407-.101563-1.199219-.09375 0v16.066407c0 16.488281 13.296875 29.863281 29.75 29.996093v90.382813h95.25v-90.382813c16.386718-.210937 29.542968-13.558593 29.542968-29.996093 0 0 .132813-14.75 0-17.261719zm0 0" fill="#fff9eb"/><path d="m315.226562 320.449219c-.921874-17.023438-8.90625-33.050781-22.679687-45.628907l-40.5625-.066406-1.820313 1.992188 22.152344 20.226562c7.933594 7.246094 12.40625 15.863282 12.941406 24.933594.050782 1.828125.023438 9.417969-.03125 15.53125l-.003906.269531h-124.539062v.003907c0 16.488281 13.296875 29.863281 29.75 29.996093h36.957031l10.59375-10.597656 10.597656 10.597656h7.101563v60.382813h-65.25v30h95.25v-90.382813c16.386718-.210937 29.539062-13.558593 29.539062-29.996093.003906 0 .136719-14.75.003906-17.261719zm0 0" fill="#d3cdbf"/><path d="m285.796875 107.75c-13.996094-9.957031-30.25-15.996094-47.589844-15.996094-47.300781 0-86.519531 44.957032-93.800781 91.71875-2.679688-1.128906-5.628906-1.75-8.722656-1.75-12.425782 0-22.5 10.074219-22.5 22.5 0 12.425782 10.074218 22.5 22.5 22.5 4.035156 0 7.816406-1.070312 11.089844-2.925781 2.75 9.386719 6.96875 18.167969 12.335937 26.1875 2.632813 3.933594 17.707031 15.730469 39.199219 20.230469l51.210937 10.714844 45.960938-45.070313c37.308593-36.589844 32.984375-97.746094-9.683594-128.109375zm0 0" fill="#ffc98c"/><path d="m340.289062 181.722656c-2.890624 0-5.652343.550782-8.191406 1.542969-.101562-.667969-.203125-1.339844-.316406-2.007813-5.039062-29.671874-21.492188-56.699218-45.984375-73.503906 13.953125 19.246094 21.003906 41.230469 21.003906 64.238282 0 51.75-42.542969 93.699218-95.023437 93.699218-19.480469 0-37.589844-5.785156-52.667969-15.703125 14.492187 21.417969 37.691406 36.613281 64.609375 40.675781 9.539062 1.441407 19.402344 1.429688 28.945312-.007812 36.835938-5.554688 66.757813-31.96875 76.871094-66.679688 3.199219 1.742188 6.855469 2.746094 10.753906 2.746094 12.425782 0 22.5-10.074218 22.5-22.5 0-12.425781-10.074218-22.5-22.5-22.5zm0 0" fill="#f7a16e"/><path d="m366.695312 127.714844c-8.464843-11.625-26.054687-13.566406-36.199218-8.609375-6.921875-10.214844-14.09375-19.640625-22.441406-28.164063.007812.011719.015624.023438.023437.03125-19.222656-19.636718-43.164063-33.46875-69.742187-33.46875-8.1875 0-18.808594 1.195313-28.398438 3.039063-11.96875 2.296875-20.65625 12.710937-20.65625 24.898437-13.621094-.003906-26.457031 6.398438-34.632812 17.289063-7.351563 9.800781-12.539063 17.929687-15.707032 29.699219-2.203125 8.175781-7.355468 15.328124-14.78125 19.398437-.070312.039063-.140625.082031-.214844.121094-4.609374 2.492187-5.359374 8.789062-1.417968 12.246093l21.613281 19.191407v-.035157c.070313.042969-.078125.078126 0 .125 31.699219.019532 58.417969-22.285156 64.957031-52.015624 29.789063 30.640624 71.5625 46.773437 115.222656 48.851562 14.339844.683594 22.09375-4.09375 32.773438-9.285156 15.125-7.355469 19.285156-30.023438 9.601562-43.3125zm0 0" fill="#ffcf5d"/><path d="m366.695312 127.714844c-8.464843-11.625-26.054687-13.566406-36.199218-8.609375-6.921875-10.21875-14.09375-19.640625-22.441406-28.164063.007812.011719.015624.023438.023437.03125-19.222656-19.636718-43.164063-33.46875-69.742187-33.46875 0 15.21875 8.902343 28.910156 22.652343 35.4375.101563.050782.203125.097656.308594.148438 15.628906 7.519531 25.238281 23.675781 24.875 41.015625-.101563 4.769531-4.902344 8-9.359375 6.300781-17.867188-6.804688-33.601562-16.898438-46.207031-29.859375-7.691407-7.914063-19.109375-10.960937-29.722657-7.941406-10.617187 3.023437-18.714843 11.628906-21.085937 22.410156-2.898437 13.191406-13.0625 23.488281-25.714844 27.078125l-11.636719-10.328125c-1.71875-1.527344-3.566406-2.8125-5.5-3.871094-2.710937 5.839844-7.070312 10.800781-12.785156 13.933594-.070312.039063-.140625.078125-.214844.117187-4.609374 2.496094-5.359374 8.792969-1.417968 12.25l21.613281 19.191407v-.039063c.070313.046875-.078125.082032 0 .125 31.699219.023438 58.417969-22.28125 64.957031-52.011718 29.789063 30.636718 71.5625 46.773437 115.222656 48.851562 14.339844.679688 22.09375-4.09375 32.773438-9.289062 15.125-7.351563 19.285156-30.019532 9.601562-43.308594zm0 0" fill="#ffb545"/><path d="m207.988281 346.003906c0 8.917969 3.890625 16.925782 10.066407 22.421875 7.714843 6.863281 19.933593 1.3125 19.933593-9.015625v-26.816406c0-10.324219-12.21875-15.875-19.933593-9.011719-6.175782 5.496094-10.066407 13.503907-10.066407 22.421875zm0 0" fill="#ffc98c"/><path d="m237.988281 332.59375v26.816406c0 10.328125 12.214844 15.875 19.933594 9.011719 6.175781-5.492187 10.066406-13.503906 10.066406-22.417969 0-8.917968-3.890625-16.929687-10.066406-22.421875-7.71875-6.863281-19.933594-1.316406-19.933594 9.011719zm0 0" fill="#f7a16e"/><path d="m211.191406 205.070312c0 4.140626-3.359375 7.5-7.5 7.5-4.144531 0-7.5-3.359374-7.5-7.5 0-4.144531 3.355469-7.5 7.5-7.5 4.140625 0 7.5 3.355469 7.5 7.5zm0 0"/><path d="m278.382812 205.070312c0 4.140626-3.359374 7.5-7.5 7.5-4.144531 0-7.5-3.359374-7.5-7.5 0-4.144531 3.355469-7.5 7.5-7.5 4.140626 0 7.5 3.355469 7.5 7.5zm0 0"/><path d="m254.09375 206.296875c-2.929688-2.929687-7.675781-2.929687-10.605469 0-1.417969 1.417969-3.300781 2.195313-5.304687 2.195313-2 0-3.886719-.777344-5.300782-2.195313-2.929687-2.929687-7.679687-2.929687-10.605468 0-2.929688 2.929687-2.929688 7.679687-.003906 10.609375 4.25 4.25 9.902343 6.589844 15.910156 6.589844 6.011718 0 11.660156-2.339844 15.910156-6.589844 2.929688-2.929688 2.929688-7.679688 0-10.609375zm0 0"/><path d="m187.429688 31.996094c13.558593 1.9375 31.515624 3.003906 50.558593 3.003906 19.039063 0 36.996094-1.066406 50.558594-3.003906 16.632813-2.378906 26.941406-5.632813 26.941406-14.496094s-10.308593-12.117188-26.941406-14.496094c-13.5625-1.9375-31.519531-3.003906-50.558594-3.003906-19.042969 0-37 1.066406-50.558593 3.003906-16.632813 2.378906-26.941407 5.632813-26.941407 14.496094s10.308594 12.117188 26.941407 14.496094zm50.558593-16.996094c19.496094 0 34.851563 1.105469 45.703125 2.5-10.851562 1.394531-26.207031 2.5-45.703125 2.5-19.5 0-34.851562-1.105469-45.707031-2.5 10.855469-1.394531 26.207031-2.5 45.707031-2.5zm0 0"/><path d="m468.898438 308.625-60.105469-60.101562c-14.621094-14.621094-38.410157-14.625-53.035157 0l-41.65625 41.65625c-2.789062-5.121094-6.21875-9.988282-10.238281-14.523438 13.617188-11.234375 24.117188-25.789062 30.339844-42.117188 7.21875 1.515626 14.792969.304688 21.398437-3.617187 9.199219-5.457031 14.6875-15.09375 14.6875-25.78125 0-9.527344-4.523437-18.992187-12.578124-25.074219l2.664062-1.296875c19.324219-9.398437 24.824219-37.394531 12.386719-54.472656-9.105469-12.5-26.253907-16.425781-39.289063-13.199219-40.070312-56.574218-79.359375-65.789062-124.949218-57.035156-13.117188 2.519531-23.191407 12.636719-25.96875 25.222656-13.382813 1.804688-25.71875 8.9375-33.902344 19.839844-5.800782 7.738281-8.765625 15.253906-10.671875 23.882812-2.203125 9.976563-8.617188 18.484376-17.601563 23.34375-4.335937 2.347657-7.253906 6.664063-7.804687 11.554688-.546875 4.863281 1.324219 9.699219 5.007812 12.929688l7.25 6.359374c-11.789062 4.597657-19.144531 15.777344-19.144531 27.949219 0 10.789063 5.574219 20.476563 14.910156 25.910157 6.691406 3.894531 14.324219 5.039062 21.5625 3.414062 2.742188 7.152344 6.335938 14.066406 10.738282 20.652344 5.433593 8.03125 11.945312 15.179687 19.398437 21.355468-3.964844 4.558594-7.398437 9.582032-10.21875 14.90625l-41.859375-41.859374c-14.660156-14.65625-38.378906-14.65625-53.035156 0l-60.105469 60.105468c-8.769531 8.769532-8.769531 23.046875 0 31.820313 4.386719 4.386719 10.148437 6.578125 15.910156 6.578125 5.398438 0 10.777344-1.949219 15.046875-5.796875 1.074219 2.273437 2.523438 4.410156 4.398438 6.289062 4.078125 4.074219 9.339844 6.230469 14.683594 6.519531.292968 5.550782 2.570312 10.730469 6.53125 14.691407 4.386718 4.386719 10.148437 6.578125 15.910156 6.578125 10.769531 0 15.664062-6.332032 22.132812-12.800782 3.871094 8.089844 11.839844 12.800782 20.292969 12.800782 5.761719 0 11.523437-2.191406 15.910156-6.578125l17.742188-17.742188c4.492187 11.769531 14.753906 20.75 27.300781 23.410157v115.101562c0 12.40625 10.09375 22.5 22.5 22.5s22.5-10.09375 22.5-22.5v-23.285156h20.25v8.722656c0 12.40625 10.09375 22.5 22.5 22.5s22.5-10.09375 22.5-22.5v-100.574219c12.464844-2.710937 22.660156-11.703125 27.113281-23.414062l17.785157 17.78125c4.386718 4.386719 10.144531 6.578125 15.90625 6.578125 8.457031 0 16.425781-4.710938 20.292968-12.800782l6.222656 6.222657c4.386719 4.386719 10.148438 6.578125 15.910157 6.578125s11.523437-2.191406 15.910156-6.578125c3.957031-3.957031 6.234375-9.136719 6.53125-14.683594 5.546875-.296875 10.726563-2.574219 14.679687-6.53125 1.855469-1.851563 3.320313-3.980469 4.410157-6.28125 8.953125 8.066406 22.542969 7.617187 30.949219-.785156 8.789062-8.792969 8.792968-23.027344 0-31.824219zm-316.003907-184.601562c1.359375-6.164063 3.96875-11.847657 7.753907-16.894532 6.71875-8.953125 17.414062-14.296875 28.613281-14.296875h.019531c4.140625 0 7.5-3.355469 7.5-7.5 0-8.542969 6.128906-15.917969 14.570312-17.539062 38.605469-7.414063 71.789063-1.378907 108.03125 48.398437-2.871093 1.40625-11.070312 4.621094-14.171874 14.703125-1.792969 5.816407-1.089844 12.183594 1.925781 17.46875 5.660156 9.917969 18.199219 13.910157 28.550781 9.085938l4.882812-2.277344c3.753907-1.75 5.378907-6.210937 3.628907-9.964844-1.75-3.757812-6.214844-5.378906-9.964844-3.628906l-4.882813 2.273437c-3.335937 1.554688-7.363281.269532-9.1875-2.921874-.984374-1.726563-1.203124-3.71875-.617187-5.617188 1.164063-3.789062 3.296875-4.113281 14.640625-9.660156 6.625-3.097656 20.1875-2.117188 26.449219 6.476562 7.007812 9.628906 3.964843 26.90625-6.824219 32.152344l-9.613281 4.675781c-10.117188 4.917969-21.171875 6.839844-31.960938 5.542969-37.039062-4.4375-71.757812-21.613281-97.761719-48.367188-4.160156-4.277343-11.425781-2.203124-12.703124 3.617188-5.683594 25.835938-28.40625 44.8125-54.625 46.058594l-19.632813-17.261719c12.621094-6.832031 21.832031-18.457031 25.378906-34.523437zm-25.609375 234.097656c-2.921875 2.929687-7.683594 2.925781-10.605468.003906-1.417969-1.417969-2.195313-3.300781-2.195313-5.304688 0-2.003906.777344-3.886718 2.195313-5.304687h.003906l24.742187-24.746094c2.929688-2.929687 2.929688-7.679687 0-10.609375-2.929687-2.925781-7.675781-2.925781-10.605469 0l-45.960937 45.960938c-2.921875 2.929687-7.679687 2.925781-10.605469.003906-1.414062-1.417969-2.195312-3.300781-2.195312-5.304688 0-2.003906.78125-3.886718 2.195312-5.304687l45.960938-45.960937c2.929687-2.929688 2.929687-7.675782 0-10.605469-2.929688-2.929688-7.679688-2.929688-10.605469 0l-45.960937 45.960937c-2.921876 2.925782-7.679688 2.925782-10.605469 0-2.898438-2.898437-2.960938-7.632812-.011719-10.597656l45.972656-45.96875c2.929688-2.929688 2.929688-7.679688 0-10.609375-2.929687-2.925781-7.679687-2.925781-10.605468 0l-45.960938 45.960937c0 .003907-.003906.003907-.003906.003907l-14.144532 14.140625c-2.925781 2.925781-7.683593 2.921875-10.605468 0-2.921875-2.925782-2.921875-7.683594 0-10.605469l60.105468-60.105469c8.792969-8.792968 23.023438-8.792968 31.820313 0l46.355469 46.355469c-3.328125 11.648437-2.777344 19.644531-2.777344 26.742187zm103.203125 1.289062c0 2.640625-1.878906 3.765625-2.683593 4.128906-.792969.355469-2.839844.996094-4.765626-.71875-4.800781-4.269531-7.550781-10.398437-7.550781-16.816406 0-6.417968 2.75-12.550781 7.550781-16.816406 2.898438-2.582031 7.449219-.429688 7.449219 3.40625zm-15.957031 15.800782c3.371094 2.476562 7.332031 3.757812 11.367188 3.757812 4.265624 0 8.542968-1.4375 12.089843-4.171875 3.53125 2.726563 7.804688 4.171875 12.085938 4.171875 4.035156 0 7.996093-1.28125 11.367187-3.757812h16.742188v76.003906h-80.25v-76.003906zm38.402344-12.390626c-1.925782 1.714844-3.972656 1.074219-4.765625.71875-.804688-.363281-2.683594-1.488281-2.683594-4.128906v-26.816406c0-3.828125 4.535156-6 7.449219-3.40625 4.800781 4.269531 7.550781 10.398438 7.550781 16.816406 0 6.417969-2.75 12.546875-7.550781 16.816406zm-40 126.679688c0 4.136719-3.363282 7.5-7.5 7.5-4.136719 0-7.5-3.363281-7.5-7.5v-23.285156h15zm57.75-7.0625c-4.132813 0-7.5-3.363281-7.5-7.5v-8.722656h15v8.722656c0 4.136719-3.363282 7.5-7.5 7.5zm14.929687-122.226562h-12.9375c1.828125-4.464844 2.8125-9.285157 2.8125-14.207032 0-.265625-.015625-.53125-.023437-.792968h10.21875c4.144531 0 7.5-3.359376 7.5-7.5 0-4.144532-3.355469-7.5-7.5-7.5h-13.699219c-2.140625-4.605469-5.207031-8.785157-9.082031-12.230469-7.207032-6.414063-17.507813-6.492188-24.917969-.773438-7.359375-5.679687-17.664063-5.679687-24.917969.773438-3.875 3.445312-6.9375 7.625-9.078125 12.230469h-13.554687c-4.144532 0-7.5 3.355468-7.5 7.5 0 4.140624 3.355468 7.5 7.5 7.5h10.074218c-.007812.261718-.023437.527343-.023437.792968 0 4.921875.984375 9.738282 2.8125 14.207032h-12.800781c-12.304688-.101563-22.3125-10.195313-22.3125-22.5v-14.824219c.140625-1-.238282-20.488281 16.382812-38.664063 11.597656 7.03125 24.625 11.769532 38.03125 13.792969.378906.058594.753906.085937 1.128906.085937 3.644532 0 6.84375-2.664062 7.40625-6.378906.617188-4.097656-2.203124-7.917968-6.296874-8.539062-33.429688-5.046875-61.320313-28.960938-70.863282-61.570313-1.355468-4.632812-6.691406-6.808593-10.902344-4.417969-9.933593 5.644532-22.386718-1.546874-22.386718-13.054687 0-11.265625 11.75-17.871094 20.621094-13.914063.988281.441407 1.96875.574219 1.902343.5625 2.289063.355469 26.332031.972657 47.714844-16.457031 9.570313-7.804687 17.027344-17.910156 21.6875-29.214843 27.1875 24.324218 61.496094 39.921874 97.84375 44.273437 8.941406 1.070313 18 .398437 26.757813-1.917969 1.007812.445313 2.015624.640625 3.082031.640625 7.753906 0 14.996093 7.28125 14.996093 16.027344 0 11.378906-12.214843 18.59375-22.160156 13.171875-4.195312-2.292969-9.453125-.113281-10.792968 4.484375-9.289063 31.882813-36.890626 56.265625-70.789063 61.378906-4.097656.613281-6.917969 4.4375-6.300781 8.53125.5625 3.71875 3.761718 6.382813 7.40625 6.382813.371094 0 .75-.027344 1.128906-.082032 13.292969-2.003906 26.226562-6.6875 37.757812-13.625 9.777344 10.511719 15.484376 23.273438 16.195313 36.46875.089844 1.65625.042969 11.175782-.007813 16.859376 0 12.238281-9.917968 22.324218-22.113281 22.5zm172.675781-30.371094c-2.921874 2.925781-7.679687 2.925781-10.605468 0l-60.101563-60.105469c-2.929687-2.925781-7.679687-2.925781-10.609375 0-2.925781 2.929687-2.925781 7.679687 0 10.609375l45.960938 45.960938c2.925781 2.921874 2.925781 7.679687 0 10.605468-2.921875 2.921875-7.679688 2.925782-10.605469 0l-45.960937-45.960937c-2.929688-2.929688-7.675782-2.929688-10.605469 0-2.929688 2.929687-2.929688 7.675781 0 10.605469l45.960937 45.960937c2.929688 2.929687 2.929688 7.675781 0 10.605469-2.925781 2.925781-7.683594 2.925781-10.605468 0l-45.960938-45.960938c-2.929688-2.929687-7.679688-2.929687-10.605469 0-2.929687 2.929688-2.929687 7.679688 0 10.605469l24.746094 24.75c1.417969 1.414063 2.195313 3.300781 2.195313 5.300781 0 2.003906-.777344 3.886719-2.195313 5.304688-2.925781 2.921875-7.683594 2.925781-10.605469 0l-25.921875-25.921875c.058594-10.269531.367188-16.648438-2.523437-26.953125l46.121094-46.117188c8.773437-8.773437 23.046874-8.773437 31.820312 0l60.101562 60.101563c2.925782 2.925781 2.925782 7.683593 0 10.609375zm0 0"/></svg>