<?xml version="1.0" encoding="iso-8859-1"?>
<!-- Generator: Adobe Illustrator 19.0.0, SVG Export Plug-In . SVG Version: 6.00 Build 0)  -->
<svg version="1.1" id="Capa_1" xmlns="http://www.w3.org/2000/svg" xmlns:xlink="http://www.w3.org/1999/xlink" x="0px" y="0px"
	 viewBox="0 0 512.152 512.152" style="enable-background:new 0 0 512.152 512.152;" xml:space="preserve">
<g transform="translate(0 -1)">
	<g transform="translate(1 1)">
		<path style="fill:#F44335;" d="M485.476,137.538v59.733c-1.399,45.035-13.885,89.03-36.352,128.085
			c-33.963,66.901-121.259,133.717-194.048,178.261c-72.789-44.544-160.085-111.36-194.048-178.261
			c-22.467-39.056-34.953-83.05-36.352-128.085v-59.733H485.476z"/>
		<g>
			<path style="fill:#C52828;" d="M485.476,137.538v59.733c-1.399,45.035-13.885,89.03-36.352,128.085
				c-33.963,66.901-121.259,133.717-194.048,178.261v-366.08H485.476z"/>
			<path style="fill:#C52828;" d="M449.124,265.624c-33.963,66.901-121.259,133.717-194.048,178.261
				c-5.632-3.413-11.264-6.997-17.067-10.752c68.864-44.117,145.664-105.728,176.981-167.509
				c48.469-89.088,48.469-178.176,0-222.805c-22.295-19.15-50.07-30.768-79.36-33.195c41.557-4.523,85.589,7.595,113.493,33.195
				C497.593,87.448,497.593,176.536,449.124,265.624z"/>
		</g>
		<g>
			<path style="fill:#F44335;" d="M414.991,265.624c-31.317,61.781-108.117,123.392-176.981,167.509
				C169.145,389.016,92.345,327.405,61.028,265.624c-48.469-89.088-48.469-178.176,0-222.805
				c22.295-19.15,50.07-30.768,79.36-33.195c34.253-4.326,68.917,3.856,97.621,23.04c6.197,4.429,11.917,9.491,17.067,15.104
				c12.245-13.236,27.451-23.383,44.373-29.611c11.63-4.432,23.797-7.302,36.181-8.533c29.29,2.427,57.065,14.044,79.36,33.195
				C463.46,87.448,463.46,176.536,414.991,265.624z"/>
			<path style="fill:#F44335;" d="M335.631,9.624l-36.181,8.533C311.079,13.725,323.246,10.855,335.631,9.624z"/>
		</g>
		<g>
			
				<ellipse transform="matrix(-0.7475 -0.6642 0.6642 -0.7475 130.6042 292.6056)" style="fill:#02A9F4;" cx="120.911" cy="121.482" rx="39.424" ry="51.285"/>
			
				<ellipse transform="matrix(-0.5 -0.866 0.866 -0.5 -4.7729 460.5728)" style="fill:#02A9F4;" cx="130.57" cy="231.664" rx="25.941" ry="19.413"/>
		</g>
	</g>
	<g>
		<path d="M455.867,37.572c-30.434-25.833-69.715-38.83-109.551-36.25c-33.338,0.614-65.353,13.154-90.24,35.345
			c-24.888-22.189-56.902-34.729-90.24-35.345c-39.829-2.524-79.089,10.467-109.551,36.25
			c-25.728,23.637-38.707,58.999-38.946,99.994c-0.087,0.32-0.152,0.645-0.196,0.973v59.733
			c1.355,46.384,14.16,91.713,37.274,131.951c40.542,79.855,151.415,153.651,197.205,181.675c2.734,1.673,6.175,1.673,8.909,0
			c45.79-28.023,156.663-101.82,197.12-181.461c23.167-40.298,36.001-85.702,37.359-132.164v-59.733
			c-0.046-0.348-0.114-0.693-0.205-1.033C494.566,96.52,481.578,61.192,455.867,37.572z M67.831,50.141
			c25.204-21.33,57.35-32.687,90.359-31.923c2.287,0,4.591,0,6.895,0.154c31.919,0.306,62.399,13.328,84.685,36.181
			c1.656,1.703,3.931,2.663,6.306,2.663c2.375,0,4.65-0.961,6.306-2.663c22.287-22.851,52.766-35.873,84.685-36.181
			c35.316-2.397,70.186,8.99,97.28,31.77c45.423,41.719,44.732,127.087-1.835,212.651
			c-37.342,73.472-139.503,142.959-186.436,172.066c-46.933-29.107-149.094-98.603-186.522-172.288
			C23.116,177.228,22.416,91.861,67.831,50.141z M442.521,322.491c-37.342,73.549-139.511,143.01-186.445,172.1
			c-46.933-29.09-149.111-98.56-186.556-172.314c-15.045-27.048-25.723-56.302-31.642-86.682
			c4.864,11.941,10.397,23.599,16.572,34.918c40.525,79.787,151.39,153.6,197.171,181.649c2.734,1.673,6.175,1.673,8.909,0
			c45.781-28.041,156.646-101.862,197.052-181.436c6.234-11.431,11.815-23.206,16.717-35.268
			C468.359,265.964,457.634,295.337,442.521,322.491z"/>
		<path d="M110.284,177.442c3.351-0.009,6.694-0.335,9.984-0.973c14.583-3.08,27.754-10.855,37.495-22.135
			c10.056-10.999,16.228-24.991,17.57-39.834c1.491-13.712-3.595-27.32-13.713-36.693c-19.763-17.57-53.666-11.81-75.563,12.8
			c-10.061,10.996-16.236,24.99-17.579,39.834c-1.486,13.711,3.599,27.318,13.713,36.693
			C89.95,173.941,99.965,177.615,110.284,177.442z M98.815,101.956c8.585-10.361,21.1-16.675,34.534-17.425
			c6.191-0.176,12.228,1.952,16.939,5.973c6.107,5.901,9.079,14.333,8.021,22.758c-1.072,11.09-5.748,21.524-13.312,29.705
			c-7.234,8.472-17.044,14.341-27.93,16.708c-8.242,2.041-16.963,0.077-23.535-5.299c-6.107-5.901-9.081-14.332-8.03-22.758
			C86.584,120.542,91.259,110.125,98.815,101.956z"/>
		<path d="M114.346,202.82c-7.014,4.281-11.581,11.637-12.305,19.823c-0.835,8.366,1.034,16.779,5.333,24.004
			c5.732,11.092,16.882,18.346,29.346,19.089c4.244,0.02,8.416-1.088,12.092-3.209c13.577-7.842,16.631-27.085,6.972-43.827
			C146.124,201.958,127.914,194.978,114.346,202.82z M140.287,247.748c-4.463,2.56-13.013-0.751-18.133-9.634
			c-2.444-4.038-3.549-8.745-3.157-13.449c0.148-2.824,1.578-5.426,3.883-7.066c1.044-0.578,2.221-0.872,3.413-0.853
			c6.354,0.781,11.881,4.724,14.686,10.479c5.154,8.892,3.763,17.98-0.691,20.54V247.748z"/>
	</g>
</g>
<g>
</g>
<g>
</g>
<g>
</g>
<g>
</g>
<g>
</g>
<g>
</g>
<g>
</g>
<g>
</g>
<g>
</g>
<g>
</g>
<g>
</g>
<g>
</g>
<g>
</g>
<g>
</g>
<g>
</g>
</svg>
