<?xml version="1.0" encoding="iso-8859-1"?>
<!-- Generator: Adobe Illustrator 19.0.0, SVG Export Plug-In . SVG Version: 6.00 Build 0)  -->
<svg version="1.1" id="Capa_1" xmlns="http://www.w3.org/2000/svg" xmlns:xlink="http://www.w3.org/1999/xlink" x="0px" y="0px"
	 viewBox="0 0 512 512" style="enable-background:new 0 0 512 512;" xml:space="preserve">
<g transform="translate(-1)">
	<g transform="translate(2 1)">
		<path style="fill:#0377BC;" d="M383,58.733v110.933C383,216.771,353.304,255,306.2,255c0.939,0,1.877,0,2.731,0.085
			C354.499,256.536,383,294.168,383,340.333v110.933H127V340.333c0-36.779,18.091-68.181,48.555-80.128
			c8.992-3.539,18.583-5.306,28.245-5.205c-47.104,0-76.8-38.229-76.8-85.333V58.733H383z"/>
		<path style="fill:#02A9F4;" d="M357.4,58.733v110.933c0,47.104-12.629,85.333-59.733,85.333c8.789,0-0.171,1.28,7.253,3.84
			c1.338,0.365,2.65,0.821,3.925,1.365c30.464,11.947,48.555,43.349,48.555,80.128v110.933h-256v-5.461
			c6.46-7.38,15.792-11.611,25.6-11.605v-93.867c0-36.779,18.091-68.181,48.555-80.128c8.992-3.539,18.583-5.306,28.245-5.205
			c-47.104,0-76.8-38.229-76.8-85.333V75.8c-9.808,0.005-19.14-4.225-25.6-11.605v-5.461H357.4z"/>
		<path style="fill:#C52828;" d="M417.133,41.667c0.011,9.056-3.581,17.745-9.985,24.148c-6.404,6.404-15.092,9.996-24.148,9.985
			H127c-18.834-0.042-34.091-15.3-34.133-34.133c-0.011-9.056,3.581-17.745,9.985-24.148c6.404-6.404,15.092-9.996,24.148-9.985h256
			C401.851,7.533,417.133,22.815,417.133,41.667z"/>
		<path style="fill:#F44335;" d="M391.533,41.667c-0.238,8.254-3.243,16.188-8.533,22.528c-0.438,0.58-0.923,1.122-1.451,1.621
			c-6.42,6.38-15.099,9.968-24.149,9.984H127c-18.834-0.042-34.091-15.3-34.133-34.133c-0.011-9.056,3.581-17.745,9.985-24.148
			c6.404-6.404,15.092-9.996,24.148-9.985h230.4C376.251,7.533,391.533,22.815,391.533,41.667z"/>
		<path style="fill:#FDD834;" d="M348.867,161.133v8.533c0,28.277-22.923,51.2-51.2,51.2l-7.595,1.195
			c-0.986,0.318-1.955,0.688-2.901,1.109c-9.198,4.096-15.118,13.227-15.104,23.296V280.6c0.242,8.598-5.735,16.124-14.165,17.835
			c-5.904,1.031-11.912-1.145-15.787-5.717c-2.715-3.055-4.205-7.006-4.181-11.093v-35.157c0-14.139-11.462-25.6-25.6-25.6
			l-16.555-2.731l-19.627-12.288c-9.65-9.563-15.06-22.596-15.019-36.181v-8.533c0.028-9.414,7.653-17.039,17.067-17.067h153.6
			C341.214,144.095,348.839,151.719,348.867,161.133z"/>
		<path style="fill:#FFEB3A;" d="M323.267,161.133v8.533c-0.028,21.892-13.941,41.356-34.645,48.469
			c-0.939,0.341-1.792,0.597-2.731,0.853c-4.505,1.232-9.153,1.864-13.824,1.877c-14.138,0-25.6,11.462-25.6,25.6V280.6
			c0.007,4.423-1.532,8.709-4.352,12.117c-2.715-3.055-4.205-7.006-4.181-11.093v-35.157c0-14.139-11.462-25.6-25.6-25.6
			l-16.555-2.731l-19.627-12.288c-9.65-9.563-15.06-22.596-15.019-36.181v-8.533c0.028-9.414,7.653-17.039,17.067-17.067h128
			C315.614,144.095,323.239,151.719,323.267,161.133z"/>
		<path style="fill:#FDD834;" d="M357.4,391.533v59.733H161.133v-59.733c0-18.851,15.282-34.133,34.133-34.133H229.4
			c0-14.138,11.462-25.6,25.6-25.6c14.138,0,25.6,11.462,25.6,25.6h42.667C342.118,357.4,357.4,372.682,357.4,391.533z"/>
		<path style="fill:#FFEB3A;" d="M331.8,391.533v59.733H161.133v-59.733c0-18.851,15.282-34.133,34.133-34.133H229.4
			c-0.006-9.152,4.874-17.611,12.8-22.187c7.926,4.576,12.806,13.035,12.8,22.187h42.667C316.518,357.4,331.8,372.682,331.8,391.533
			z"/>
		<path style="fill:#C52828;" d="M417.133,468.333c0,18.851-15.282,34.133-34.133,34.133H127
			c-13.398-0.017-25.546-7.87-31.063-20.079c-5.516-12.209-3.38-26.517,5.463-36.582c6.46-7.38,15.792-11.611,25.6-11.605h256
			c9.056-0.011,17.745,3.581,24.148,9.985C413.552,450.589,417.145,459.277,417.133,468.333z"/>
		<path style="fill:#F44335;" d="M391.533,468.333c0,18.851-15.282,34.133-34.133,34.133H127
			c-13.398-0.017-25.546-7.87-31.063-20.079c-5.516-12.209-3.38-26.517,5.463-36.582c6.46-7.38,15.792-11.611,25.6-11.605h230.4
			c9.051,0.016,17.729,3.604,24.149,9.984c0.528,0.499,1.013,1.042,1.451,1.621C388.29,452.145,391.295,460.08,391.533,468.333z"/>
	</g>
	<g>
		<path d="M231.4,247.467v35.174c0,14.138,11.462,25.6,25.6,25.6c1.43-0.003,2.857-0.122,4.267-0.358
			c12.519-2.469,21.492-13.523,21.333-26.283v-34.133c0-9.426,7.641-17.067,17.067-17.067c32.974-0.038,59.696-26.759,59.733-59.733
			v-8.533c0-14.138-11.462-25.6-25.6-25.6H180.2c-14.139,0-25.6,11.462-25.6,25.6v8.533c0.038,32.974,26.759,59.696,59.733,59.733
			C223.759,230.4,231.4,238.041,231.4,247.467z M171.667,170.667v-8.533c0-4.713,3.821-8.533,8.533-8.533h153.6
			c4.713,0,8.533,3.82,8.533,8.533v8.533c-0.028,23.552-19.114,42.638-42.667,42.667c-18.851,0-34.133,15.282-34.133,34.133V281.6
			c0.164,4.407-2.762,8.334-7.031,9.438c-2.495,0.459-5.064-0.234-6.989-1.886c-1.925-1.616-3.039-3.998-3.046-6.511v-35.174
			c0-18.851-15.282-34.133-34.133-34.133C190.781,213.305,171.695,194.219,171.667,170.667z"/>
		<path d="M120.467,341.333v86.187c-21.482,4.362-36.163,24.292-33.96,46.101C88.709,495.431,107.08,512.022,129,512h256
			c21.92,0.022,40.291-16.57,42.493-38.379c2.203-21.809-12.478-41.739-33.96-46.101v-86.187c0-39.151-19.055-70.912-48.102-85.333
			c29.193-14.421,48.102-45.909,48.102-85.333V84.48c21.482-4.362,36.163-24.292,33.96-46.101C425.291,16.57,406.92-0.022,385,0H129
			c-21.92-0.022-40.291,16.57-42.494,38.379c-2.203,21.809,12.478,41.739,33.96,46.101v86.187c0,39.356,18.842,70.827,47.966,85.239
			C138.677,270.507,120.467,302.609,120.467,341.333z M410.6,469.333c0,14.138-11.462,25.6-25.6,25.6H129
			c-14.138,0-25.6-11.462-25.6-25.6c0-14.138,11.462-25.6,25.6-25.6h256c6.794-0.014,13.313,2.679,18.117,7.483
			C407.921,456.02,410.614,462.54,410.6,469.333z M350.867,426.667h-179.2v-34.133c0-14.138,11.462-25.6,25.6-25.6H231.4
			c4.713,0,8.533-3.821,8.533-8.533c0-9.426,7.641-17.067,17.067-17.067c9.426,0,17.067,7.641,17.067,17.067
			c0,4.713,3.82,8.533,8.533,8.533h42.667c14.138,0,25.6,11.462,25.6,25.6V426.667z M103.4,42.667
			c-0.014-6.794,2.679-13.313,7.483-18.117s11.323-7.497,18.117-7.483h256c14.138,0,25.6,11.462,25.6,25.6s-11.462,25.6-25.6,25.6
			H129C114.879,68.225,103.442,56.788,103.4,42.667z M180.746,269.116c7.98-3.122,16.486-4.678,25.054-4.582
			c4.713,0,8.533-3.82,8.533-8.533c0-4.713-3.821-8.533-8.533-8.533c-40.192,0-68.267-31.573-68.267-76.8V85.333h238.933v85.333
			c0,45.227-28.075,76.8-68.267,76.8c-4.713,0-8.533,3.821-8.533,8.533c0,4.713,3.82,8.533,8.533,8.533c0.64,0,1.306,0,2.458,0.077
			c38.75,1.237,65.809,32.785,65.809,76.723v85.333h-8.533v-34.133c-0.028-23.552-19.114-42.638-42.667-42.667h-35.209
			c-3.879-15.087-17.48-25.634-33.058-25.634s-29.179,10.547-33.058,25.634h-26.675c-23.552,0.028-42.638,19.114-42.667,42.667
			v34.133h-17.067v-85.333C137.533,307.243,154.062,279.586,180.746,269.116z"/>
	</g>
</g>
<g>
</g>
<g>
</g>
<g>
</g>
<g>
</g>
<g>
</g>
<g>
</g>
<g>
</g>
<g>
</g>
<g>
</g>
<g>
</g>
<g>
</g>
<g>
</g>
<g>
</g>
<g>
</g>
<g>
</g>
</svg>
