<?xml version="1.0" encoding="iso-8859-1"?>
<!-- Generator: Adobe Illustrator 19.0.0, SVG Export Plug-In . SVG Version: 6.00 Build 0)  -->
<svg version="1.1" id="Capa_1" xmlns="http://www.w3.org/2000/svg" xmlns:xlink="http://www.w3.org/1999/xlink" x="0px" y="0px"
	 viewBox="0 0 512 512" style="enable-background:new 0 0 512 512;" xml:space="preserve">
<g>
	<g transform="translate(1 1)">
		<path style="fill:#F57C00;" d="M441.878,391.533c-5.924,10.485-11.279,21.281-16.043,32.341
			c-9.899,21.589-20.565,43.861-39.936,59.136c-17.822,13.499-39.785,20.377-62.123,19.456h-1.024
			c-4.267,0-8.363-0.256-12.203-0.597c-72.875-6.827-81.749-69.973-105.899-110.336c-19.627-32.683-68.096-68.267-59.563-110.933
			c1.331-7.243,4.538-14.01,9.301-19.627c0.024-0.149,0.12-0.276,0.256-0.341c1.365-1.963,2.731-3.925,4.181-5.632v-0.085
			l0.085-0.085c2.475-6.571,4.693-13.312,6.571-20.139c4.019-15.647,5.432-31.85,4.181-47.957
			c-5.12-61.269,2.048-85.845,8.533-95.744c4.437-6.656,8.533-6.656,8.533-6.656c20.395,13.568,94.805,16.384,124.331,16.896
			c0.397-0.043,0.798-0.043,1.195,0c4.864,0.171,8.363,0.171,9.984,0.171h1.024c9.472-0.085,81.323-0.683,118.443-10.411
			c5.995-1.334,11.751-3.579,17.067-6.656c0,0,25.6,0,17.067,102.4c-1.266,15.943,0.176,31.984,4.267,47.445
			c1.712,7.082,3.907,14.039,6.571,20.821l-0.171,0.256c7.788,6.442,13.072,15.41,14.933,25.344
			C509.974,323.267,461.505,358.851,441.878,391.533z"/>
		<path style="fill:#FF9801;" d="M416.278,391.533c-5.924,10.485-11.279,21.281-16.043,32.341
			c-9.899,21.589-20.565,43.861-39.936,59.136c-14.323,11.122-31.653,17.691-49.749,18.859
			c-72.875-6.827-81.749-69.973-105.899-110.336c-19.627-32.683-68.096-68.267-59.563-110.933c1.331-7.243,4.538-14.01,9.301-19.627
			c0.024-0.149,0.12-0.276,0.256-0.341c1.365-1.963,2.731-3.925,4.181-5.632v-0.085l0.085-0.085
			c2.475-6.571,4.693-13.312,6.571-20.139c4.019-15.647,5.432-31.85,4.181-47.957c-5.12-61.269,2.048-85.845,8.533-95.744
			c37.12,9.728,108.971,10.325,118.443,10.411h1.024c1.963,0,6.741,0,13.397-0.171c0.397-0.043,0.798-0.043,1.195,0
			c31.573-0.768,101.291-3.755,120.917-16.896c0,0,4.096,0,8.533,6.656c6.485,9.899,13.653,34.475,8.533,95.744
			c-1.266,15.943,0.176,31.984,4.267,47.445c1.712,7.082,3.907,14.039,6.571,20.821l-0.171,0.256
			c7.788,6.442,13.072,15.41,14.933,25.344C484.374,323.267,435.905,358.851,416.278,391.533z"/>
		<path style="fill:#E57E25;" d="M281.545,184.839c3.223,6.02,5.767,12.379,7.586,18.961c-27.994-7.159-57.339-7.159-85.333,0
			c1.812-6.579,4.344-12.938,7.552-18.961C227.794,153.231,265.084,153.231,281.545,184.839z"/>
		<path style="fill:#D84315;" d="M442.731,203.8c-8.837-2.3-17.861-3.814-26.965-4.523l-15.701-0.853
			c-4.267,0-8.533,0.171-12.8,0.512c-10.079,0.739-20.074,2.366-29.867,4.864c0.377-1.53,0.832-3.04,1.365-4.523
			c1.653-4.966,3.707-9.789,6.144-14.421c4.586-9.591,12.546-17.155,22.357-21.248c16.981-6.741,36.949,0.341,47.872,21.248
			C438.366,190.868,440.914,197.222,442.731,203.8z"/>
		<path style="fill:#E57E25;" d="M205.505,237.933c0,4.713-3.821,8.533-8.533,8.533c-27.307,0-37.547,9.216-37.547,9.216
			c-1.721,1.522-3.318,3.176-4.779,4.949c1.365-1.963,4.181-5.717,4.181-5.717l0.085-0.085c5.004-6.524,10.691-12.494,16.964-17.809
			c5.811-4.893,13.156-7.59,20.753-7.62h0.341c2.263,0,4.434,0.899,6.034,2.499C204.606,233.5,205.505,235.67,205.505,237.933z"/>
		<path style="fill:#D84315;" d="M388.886,399.384c-4.885-2.141-9.937-3.882-15.104-5.205c-16.509-4.268-33.467-6.56-50.517-6.827
			c0,0-5.035,0-12.8,0.597c-18.101,0.991-35.931,4.851-52.821,11.435c-0.298,0.151-0.613,0.266-0.939,0.341l5.291-8.875
			l32.085-54.187c5.432-1.974,11.072-3.319,16.811-4.011c4.097-0.596,8.233-0.881,12.373-0.853
			c47.189,0,67.499,31.829,76.117,54.699C402.283,394.435,395.713,402.456,388.886,399.384z"/>
		<g>
			<path style="fill:#FF5722;" d="M417.131,203.8c-9.793-2.498-19.787-4.125-29.867-4.864c-4.267-0.341-8.533-0.512-12.8-0.512
				c-5.246-0.014-10.488,0.271-15.701,0.853c1.653-4.966,3.707-9.789,6.144-14.421c4.586-9.591,12.546-17.155,22.357-21.248
				c9.787,4.099,17.718,11.664,22.272,21.248c2.464,4.63,4.547,9.453,6.229,14.421C416.278,200.813,416.705,202.264,417.131,203.8z"
				/>
			<path style="fill:#FF5722;" d="M373.782,394.179c-0.571,2.172-2.053,3.991-4.065,4.989c-2.012,0.998-4.357,1.077-6.431,0.217
				c-16.891-6.584-34.72-10.443-52.821-11.435c-7.765-0.597-12.8-0.597-12.8-0.597c-11.965,0.202-23.893,1.372-35.669,3.499
				l32.085-54.187c5.432-1.974,11.072-3.319,16.811-4.011c29.507,4.507,53.892,25.385,62.891,53.845
				C374.723,388.972,374.723,391.705,373.782,394.179z"/>
		</g>
		<path style="fill:#FDD834;" d="M305.345,314.733c-5.924,10.485-11.279,21.281-16.043,32.341
			c-9.899,21.589-20.565,43.861-39.936,59.136c-17.822,13.499-39.785,20.377-62.123,19.456h-1.024
			c-4.267,0-8.363-0.256-12.203-0.597c-72.875-6.827-81.749-69.973-105.899-110.336C48.491,282.051,0.022,246.467,8.555,203.8
			c1.331-7.243,4.538-14.01,9.301-19.627c0.024-0.149,0.12-0.276,0.256-0.341c1.365-1.963,2.731-3.925,4.181-5.632v-0.085
			l0.085-0.085c2.475-6.571,4.693-13.312,6.571-20.139c4.019-15.647,5.432-31.85,4.181-47.957
			c-5.12-61.269,2.048-85.845,8.533-95.744c4.437-6.656,8.533-6.656,8.533-6.656c20.395,13.568,94.805,16.384,124.331,16.896
			c0.397-0.043,0.798-0.043,1.195,0c4.864,0.171,8.363,0.171,9.984,0.171h1.024c9.472-0.085,81.323-0.683,118.443-10.411
			c5.995-1.334,11.751-3.579,17.067-6.656c0,0,25.6,0,17.067,102.4c-1.266,15.943,0.176,31.984,4.267,47.445
			c1.712,7.082,3.907,14.039,6.571,20.821l-0.171,0.256c7.788,6.442,13.072,15.41,14.933,25.344
			C373.441,246.467,324.971,282.051,305.345,314.733z"/>
		<path style="fill:#FFEB3A;" d="M279.745,314.733c-5.924,10.485-11.279,21.281-16.043,32.341
			c-9.899,21.589-20.565,43.861-39.936,59.136c-14.323,11.122-31.653,17.691-49.749,18.859
			c-72.875-6.827-81.749-69.973-105.899-110.336C48.491,282.051,0.022,246.467,8.555,203.8c1.331-7.243,4.538-14.01,9.301-19.627
			c0.024-0.149,0.12-0.276,0.256-0.341c1.365-1.963,2.731-3.925,4.181-5.632v-0.085l0.085-0.085
			c2.475-6.571,4.693-13.312,6.571-20.139c4.019-15.647,5.432-31.85,4.181-47.957c-5.12-61.269,2.048-85.845,8.533-95.744
			c37.12,9.728,108.971,10.325,118.443,10.411h1.024c1.963,0,6.741,0,13.397-0.171c0.397-0.043,0.798-0.043,1.195,0
			c31.573-0.768,101.291-3.755,120.917-16.896c0,0,4.096,0,8.533,6.656c6.485,9.899,13.653,34.475,8.533,95.744
			c-1.266,15.943,0.176,31.984,4.267,47.445c1.712,7.082,3.907,14.039,6.571,20.821l-0.171,0.256
			c7.788,6.442,13.072,15.41,14.933,25.344C347.841,246.467,299.371,282.051,279.745,314.733z"/>
		<g>
			<path style="fill:#FFB301;" d="M152.598,127c-8.837-2.3-17.861-3.814-26.965-4.523l-15.701-0.853
				c-4.267,0-8.533,0.171-12.8,0.512c-10.079,0.739-20.074,2.366-29.867,4.864c0.427-1.536,0.853-2.987,1.365-4.523
				c1.682-4.968,3.766-9.791,6.229-14.421c4.554-9.584,12.485-17.149,22.272-21.248c17.067-6.741,37.035,0.341,47.872,21.248
				C148.233,114.068,150.78,120.422,152.598,127z"/>
			<path style="fill:#FFB301;" d="M306.198,127c-8.837-2.3-17.861-3.814-26.965-4.523l-15.701-0.853
				c-4.267,0-8.533,0.171-12.8,0.512c-10.079,0.739-20.074,2.366-29.867,4.864c0.427-1.536,0.853-2.987,1.365-4.523
				c1.682-4.968,3.766-9.791,6.229-14.421c4.554-9.584,12.485-17.149,22.272-21.248c17.067-6.741,37.035,0.341,47.872,21.248
				C301.833,114.068,304.38,120.422,306.198,127z"/>
			<path style="fill:#FFB301;" d="M272.065,237.933c0,0-8.533,119.467-85.333,119.467c-4.295,0.007-8.581-0.393-12.8-1.195
				c46.08-8.789,63.317-64.683,69.376-96.341C254.582,255.084,264.472,247.542,272.065,237.933z"/>
		</g>
		<g>
			<path style="fill:#FEC108;" d="M126.998,127c-9.793-2.498-19.787-4.125-29.867-4.864c-4.267-0.341-8.533-0.512-12.8-0.512
				c-5.246-0.014-10.488,0.271-15.701,0.853c1.682-4.968,3.766-9.791,6.229-14.421c4.554-9.584,12.485-17.149,22.272-21.248
				c9.787,4.099,17.718,11.664,22.272,21.248c2.464,4.63,4.547,9.453,6.229,14.421C126.145,124.013,126.571,125.464,126.998,127z"/>
			<path style="fill:#FEC108;" d="M280.598,127c-9.793-2.498-19.787-4.125-29.867-4.864c-4.267-0.341-8.533-0.512-12.8-0.512
				c-5.246-0.014-10.488,0.271-15.701,0.853c1.682-4.968,3.766-9.791,6.229-14.421c4.554-9.584,12.485-17.149,22.272-21.248
				c9.787,4.099,17.718,11.664,22.272,21.248c2.464,4.63,4.547,9.453,6.229,14.421C279.745,124.013,280.171,125.464,280.598,127z"/>
			<path style="fill:#FEC108;" d="M243.307,259.864c-6.059,31.659-23.296,87.552-69.376,96.341
				c-46.08-8.789-63.317-64.683-69.376-96.341c-1.475-7.243-2.53-14.566-3.157-21.931c18.176,24.235,53.504,31.232,72.533,33.28
				c7.765,0.853,12.8,0.853,12.8,0.853C206.191,271.609,225.389,267.469,243.307,259.864z"/>
		</g>
		<path style="fill:#E57E25;" d="M16.065,186.733l1.792-2.56c0.024-0.149,0.12-0.276,0.256-0.341"/>
	</g>
	<g>
		<path d="M15.358,176.23c-7.292,7.343-12.225,16.697-14.165,26.863c-6.827,34.074,17.331,62.857,38.647,88.252
			c8.022,9.022,15.361,18.629,21.956,28.74c5.274,9.273,10.042,18.824,14.285,28.612c17.493,38.332,39.27,85.99,111.138,86.502
			h1.075c9.227-0.007,18.429-0.962,27.46-2.85c16.998,36.838,40.107,79.215,107.998,79.65h1.084
			c71.808-0.512,93.585-48.171,111.078-86.468c4.241-9.784,9.007-19.333,14.276-28.604c6.599-10.114,13.941-19.723,21.965-28.749
			c21.333-25.395,45.466-54.178,38.656-88.235c-2.045-10.951-7.541-20.959-15.684-28.561c-7.892-19.995-11.236-41.495-9.788-62.942
			c4.617-55.364,0.247-90.735-12.988-105.122c-3.101-3.831-7.66-6.194-12.578-6.519c-1.685,0.003-3.332,0.501-4.736,1.434
			c-11.494,7.68-51.328,13.346-104.96,15.113c2.253-44.902-2.5-74.095-14.217-86.827c-3.104-3.836-7.671-6.2-12.595-6.519
			c-1.683,0.001-3.327,0.5-4.727,1.434c-17.135,11.418-87.706,15.633-131.302,15.633S73.06,12.851,55.934,1.434
			C54.53,0.501,52.883,0.003,51.198,0C46.28,0.325,41.721,2.688,38.62,6.519C25.385,20.907,21.016,56.32,25.598,111.642
			c1.562,21.99-1.941,44.046-10.24,64.469V176.23z M459.859,95.044c3.985,4.582,14.199,23.356,8.474,91.998
			c-1.283,17.063,0.277,34.221,4.617,50.773c-12.017-4.581-24.725-7.088-37.581-7.415c-4.713,0-8.533,3.821-8.533,8.533
			c0,4.713,3.82,8.533,8.533,8.533c0.521,0,51.695,0.41,58.701,35.84c5.214,26.044-15.223,50.389-34.987,73.933
			c-8.617,9.701-16.482,20.045-23.526,30.942c-5.607,9.811-10.67,19.925-15.164,30.293c-17.877,39.083-34.756,76.032-95.616,76.459
			h-0.973c-56.32-0.358-75.563-33.22-91.537-67.558c8.419-3.303,16.299-7.841,23.381-13.466c2.313-1.818,4.446-3.772,6.537-5.751
			c19.902-7.26,40.896-11.072,62.08-11.273c21.199,0.195,42.209,4.011,62.123,11.281c5.842,2.669,12.722,1.502,17.357-2.944
			c5.584-5.343,7.405-13.52,4.617-20.727c-14.626-38.844-44.493-60.228-84.096-60.228c-4.456,0.02-8.905,0.331-13.321,0.93
			c0.913-1.707,1.758-3.482,2.714-5.069c6.599-10.114,13.941-19.723,21.965-28.749c19.849-23.654,42.129-50.244,39.603-81.297
			c22.103-3.577,44.706-2.56,66.398,2.987c2.935,0.748,6.046-0.116,8.175-2.27c2.129-2.154,2.957-5.274,2.176-8.2
			c-1.97-7.175-4.735-14.107-8.243-20.668c-7.696-16.773-24.222-27.746-42.667-28.331c-16.527,0.44-31.638,9.437-39.902,23.757
			c-0.853-0.93-1.707-1.929-2.611-2.79c-7.903-19.979-11.221-41.476-9.711-62.908c0-0.401,0.051-0.777,0.085-1.178
			C389.741,109.227,438.176,105.438,459.859,95.044z M298.059,351.633l1.579-3.456c0.555-1.212,1.101-2.33,1.647-3.524
			c7.451-2.249,15.197-3.368,22.98-3.319c41.003,0,59.682,26.743,68.096,49.092c0.23,0.56,0.254,1.182,0.068,1.758
			c-21.839-8.018-44.9-12.201-68.164-12.365c-14.52,0.236-28.986,1.841-43.204,4.796
			C287.431,373.998,293.109,362.982,298.059,351.633z M371.906,193.297l1.707-3.524c4.269-11.512,15.257-19.146,27.535-19.131
			c12.278,0.015,23.247,7.677,27.488,19.199c0.603,1.138,1.172,2.276,1.707,3.413C410.992,190.075,391.252,190.09,371.906,193.297z
			 M42.665,110.225c-5.726-68.676,4.506-87.424,8.482-91.989C82.66,33.22,171.364,34.133,186.571,34.133h1.323
			c15.198,0,103.945-0.913,135.45-15.898c3.977,4.565,14.217,23.313,8.491,91.989c-1.316,17.067,0.23,34.233,4.574,50.79
			c-12.014-4.58-24.719-7.088-37.572-7.415c-4.713,0-8.533,3.821-8.533,8.533c0,4.713,3.821,8.533,8.533,8.533
			c0.521,0,51.695,0.41,58.701,35.84c5.214,26.044-15.223,50.347-34.987,73.933c-8.615,9.7-16.479,20.041-23.526,30.933
			c-4.229,7.302-8.077,14.819-11.529,22.519c-0.077,0.162-0.154,0.307-0.222,0.469c-1.041,2.261-2.133,4.514-3.157,6.758
			l-1.57,3.413c-8.465,18.466-19.004,41.438-37.495,56.021c-16.345,12.229-36.411,18.439-56.806,17.579h-0.964
			c-60.919-0.427-77.798-37.376-95.676-76.493c-4.496-10.371-9.558-20.487-15.164-30.302c-7.05-10.893-14.917-21.234-23.535-30.933
			c-19.755-23.552-40.192-47.889-34.987-73.95c6.98-35.209,58.377-35.789,58.88-35.789c4.713,0,8.533-3.821,8.533-8.533
			c0-4.713-3.821-8.533-8.533-8.533c-13.315,0.34-26.468,3.012-38.861,7.893C42.386,144.792,43.985,127.459,42.665,110.225z"/>
		<path d="M70.372,136.269c26.606-6.844,54.512-6.844,81.118,0c2.927,0.744,6.029-0.114,8.157-2.256
			c2.128-2.142,2.966-5.25,2.202-8.172c-1.973-7.199-4.741-14.157-8.252-20.745c-7.725-16.743-24.237-27.694-42.667-28.297
			c-18.428,0.608-34.937,11.557-42.667,28.297c-3.505,6.588-6.267,13.546-8.235,20.745c-0.764,2.922,0.074,6.029,2.202,8.172
			s5.231,3,8.157,2.256H70.372z M83.386,112.981c4.781-11.107,15.468-18.523,27.546-19.115c12.078,0.592,22.765,8.008,27.546,19.115
			c0.614,1.178,1.183,2.344,1.707,3.499c-19.391-3.226-39.182-3.226-58.573,0C82.18,115.331,82.771,114.165,83.386,112.981z"/>
		<path d="M223.972,136.269c26.606-6.844,54.512-6.844,81.118,0c2.927,0.744,6.029-0.114,8.157-2.256s2.966-5.25,2.202-8.172
			c-1.973-7.199-4.741-14.157-8.252-20.745c-7.725-16.743-24.237-27.694-42.667-28.297c-18.428,0.608-34.937,11.557-42.667,28.297
			c-3.505,6.588-6.267,13.546-8.235,20.745c-0.764,2.922,0.074,6.029,2.202,8.172c2.128,2.142,5.23,3,8.157,2.256H223.972z
			 M236.986,112.981c4.781-11.107,15.468-18.523,27.546-19.115c12.078,0.592,22.765,8.008,27.546,19.115
			c0.614,1.178,1.183,2.344,1.707,3.499c-19.391-3.226-39.182-3.226-58.573,0C235.78,115.331,236.371,114.165,236.986,112.981z"/>
		<path d="M276.051,230.938c-3.547-1.325-7.542-0.154-9.813,2.876c-22.69,30.259-77.961,30.72-78.507,30.72
			s-55.825-0.461-78.507-30.72c-2.265-3.049-6.272-4.235-9.831-2.908c-3.559,1.327-5.813,4.846-5.529,8.634
			c0.393,5.205,10.086,127.394,93.867,127.394s93.474-122.189,93.867-127.394C281.865,235.758,279.605,232.255,276.051,230.938z
			 M187.731,349.867c-48.265,0-66.688-55.748-73.335-88.431c22.317,12.887,47.567,19.83,73.335,20.164
			c25.787-0.328,51.058-7.277,73.387-20.181C254.479,294.093,236.107,349.867,187.731,349.867z"/>
		<path d="M158.274,203.844c4.193,2.136,9.323,0.476,11.469-3.712c3.558-6.87,10.302-11.518,17.988-12.399
			c7.667,0.875,14.399,5.503,17.963,12.348c1.363,2.729,4.078,4.523,7.122,4.707c3.044,0.184,5.956-1.27,7.637-3.814
			c1.682-2.544,1.878-5.793,0.515-8.521c-6.45-12.626-19.086-20.909-33.237-21.786c-14.151,0.877-26.788,9.159-33.237,21.786
			C152.419,196.644,154.105,201.725,158.274,203.844z"/>
		<path d="M435.027,281.6c11.733,0.555,24.875,4.855,25.6,8.38c1.988,9.958-15.855,31.223-27.665,45.286
			c-3.03,3.61-2.56,8.993,1.05,12.023c3.61,3.03,8.993,2.56,12.023-1.05c17.169-20.48,34.927-41.609,31.326-59.597
			c-4.207-21.163-41.617-22.11-41.993-22.11c-4.713-0.094-8.61,3.65-8.704,8.363C426.57,277.609,430.314,281.506,435.027,281.6z"/>
		<path d="M298.562,205.38c11.725,0.555,24.866,4.855,25.6,8.38c1.997,9.958-15.855,31.215-27.665,45.286
			c-3.03,3.61-2.56,8.993,1.05,12.023c3.61,3.03,8.993,2.56,12.023-1.05c17.178-20.48,34.927-41.609,31.334-59.597
			c-4.19-21.154-41.6-22.101-41.975-22.101c-4.713-0.092-8.608,3.654-8.7,8.367c-0.092,4.713,3.654,8.608,8.367,8.7L298.562,205.38z
			"/>
		<path d="M76.798,188.322c-0.375,0-37.786,0.947-41.967,22.084c-3.601,18.005,14.157,39.159,31.326,59.614
			c1.96,2.335,5.018,3.447,8.02,2.917c3.003-0.53,5.494-2.622,6.537-5.487c1.042-2.865,0.477-6.069-1.484-8.404
			c-11.819-14.071-29.653-35.328-27.665-45.303c0.7-3.507,13.841-7.808,25.233-8.354c4.713,0,8.533-3.821,8.533-8.533
			C85.331,192.143,81.511,188.322,76.798,188.322z"/>
	</g>
</g>
<g>
</g>
<g>
</g>
<g>
</g>
<g>
</g>
<g>
</g>
<g>
</g>
<g>
</g>
<g>
</g>
<g>
</g>
<g>
</g>
<g>
</g>
<g>
</g>
<g>
</g>
<g>
</g>
<g>
</g>
</svg>
