<?xml version="1.0" encoding="iso-8859-1"?>
<!-- Generator: Adobe Illustrator 19.0.0, SVG Export Plug-In . SVG Version: 6.00 Build 0)  -->
<svg version="1.1" id="Layer_1" xmlns="http://www.w3.org/2000/svg" xmlns:xlink="http://www.w3.org/1999/xlink" x="0px" y="0px"
	 viewBox="0 0 512 512" style="enable-background:new 0 0 512 512;" xml:space="preserve">
<path style="fill:#00A35C;" d="M315.227,243.023H41.184c-13.232,0-24.835-8.837-28.352-21.593l-4.081-14.802
	c0,0,26.82-123.322,153.239-123.322v54.813c0,0,24.78-29.306,116.536-29.306c134.104,0,347.73,137.264,134.104,293.722
	c-100.226,73.404-118.576-31.056-118.576-31.056s20.98,21.756,52.037,23.168c25.45,1.157,86.44-49.763,58.083-112.725
	c-10.757-23.885-34.913-38.902-61.109-38.902h-27.836V243.023z"/>
<g>
	<polygon style="fill:#00723E;" points="159.718,243.023 86.451,243.023 159.718,208.432 	"/>
	<path style="fill:#00723E;" d="M278.525,108.815c-4.738,0-9.286,0.082-13.673,0.23C399.18,115.33,597.86,249.785,389.296,402.536
		c-19.939,14.604-36.628,22.149-50.586,24.897c17.455,4.013,41.364-1.055,73.919-24.897
		C626.254,246.079,412.629,108.815,278.525,108.815z"/>
	<path style="fill:#00723E;" d="M301.619,243.023h-30.49c0,0,14.677-49.971,39.982-54.059L301.619,243.023z"/>
</g>
<circle style="fill:#D9D9DB;" cx="73.077" cy="163.047" r="34.516"/>
<path style="fill:#00A35C;" d="M126.841,221.123l32.877,21.901l-31.743,37.523c0,0-54.899,0-66.638,34.673h78.88l78.88-83.893
	l-7.166-42.362"/>
<path style="fill:#00723E;" d="M211.931,188.964L211.931,188.964l-0.292,0.764c-10.482,27.467-26.235,52.618-46.373,74.035
	l-48.382,51.456h23.332l78.88-83.893L211.931,188.964z"/>
<path style="fill:#00A35C;" d="M376.858,197.474c0,0-42.348-22.133-65.749-8.512c-30.538,17.777,3.167,91.582,3.167,91.582
	c-29.443,0-58.281,34.673-58.281,34.673h76.825l55.064-75.25"/>
<path style="fill:#00723E;" d="M351.315,187.723c-10.26-2.766-22.008-4.434-32.03-1.973c3.011,0.54,5.975,1.228,8.824,2.001
	c15.325,4.154,27.143,16.377,31.131,31.746l0,0c3.362,12.956,0.727,26.739-7.178,37.541l-42.574,58.181h23.332l42.577-58.185
	c7.903-10.8,10.538-24.579,7.177-37.533l0,0C378.574,204.087,366.69,191.868,351.315,187.723z"/>
<path d="M509.154,243.489c-17.042-72.956-107.812-125.445-188.669-139.588c-4.747-0.834-9.294,2.352-10.126,7.11
	c-0.833,4.761,2.352,9.294,7.112,10.126c38.96,6.815,79.325,23.02,110.746,44.458c44.02,30.034,59.043,61.1,63.896,81.874
	c5.218,22.338,1.8,45.389-10.158,68.51c-13.776,26.636-38.84,53.382-74.496,79.497c-29.668,21.729-53.973,29.044-72.247,21.736
	c-11.029-4.411-18.583-13.718-23.613-22.913c9.238,4.591,20.809,8.484,34.093,9.088c11.404,0.531,26.307-6.153,39.98-17.839
	c14.991-12.812,26.082-29.6,31.23-47.273c1.352-4.64-1.312-9.496-5.953-10.848c-4.635-1.35-9.496,1.314-10.847,5.953
	c-9.287,31.874-40.337,53.135-53.615,52.525c-27.015-1.228-45.967-20.327-46.137-20.501c-2.67-2.77-6.835-3.47-10.265-1.724
	c-3.429,1.744-5.316,5.523-4.65,9.312c0.332,1.892,8.537,46.495,43.182,60.428c6.674,2.684,13.778,4.024,21.302,4.022
	c19.835-0.001,42.57-9.313,67.88-27.85c37.856-27.727,64.672-56.517,79.699-85.577C511.425,297.093,515.346,269.999,509.154,243.489
	z"/>
<path d="M62.765,163.051c0,5.674,4.626,10.291,10.31,10.291c5.686,0,10.312-4.616,10.312-10.291c0-5.674-4.626-10.291-10.312-10.291
	C67.391,152.761,62.765,157.377,62.765,163.051z"/>
<path d="M339.881,320.386l40.523-55.379c6.796,5.545,12.195,12.529,15.789,20.509c3.234,7.179,5.299,14.48,6.142,21.699
	c0.519,4.455,4.301,7.736,8.678,7.736c0.338,0,0.681-0.02,1.025-0.06c4.799-0.56,8.237-4.906,7.676-9.705
	c-1.05-9.003-3.595-18.037-7.567-26.856c-4.844-10.753-12.163-20.124-21.394-27.468l4.19-5.727c2.854-3.9,2.005-9.375-1.895-12.228
	c-3.898-2.854-9.374-2.005-12.228,1.895l-52.441,71.668H277.42c10.432-8.633,24.179-17.174,36.857-17.174
	c2.978,0,5.751-1.514,7.361-4.019c1.61-2.505,1.835-5.657,0.598-8.365c-9.923-21.729-24.621-69.969-6.723-80.386
	c15.705-9.145,46.688,3.185,57.3,8.706c4.28,2.233,9.564,0.576,11.799-3.705c2.239-4.283,0.581-9.57-3.702-11.807
	c-4.773-2.495-47.402-23.917-74.202-8.318c-17.253,10.043-19.055,31.848-15.794,52.872h-63.592c0.499-1.394,0.657-2.907,0.404-4.407
	l-7.166-42.362c-0.804-4.764-5.32-7.968-10.086-7.168c-4.764,0.806-7.974,5.322-7.166,10.087l6.441,38.076l-73.314,77.97H76.848
	c16.593-16.849,50.726-17.172,51.125-17.174c2.574,0,5.018-1.134,6.68-3.099l31.743-37.523c0.007-0.009,0.013-0.019,0.021-0.027
	c0.579-0.689,1.052-1.469,1.399-2.315c0.016-0.04,0.028-0.08,0.044-0.12c0.092-0.234,0.176-0.474,0.248-0.717
	c0.021-0.07,0.035-0.14,0.054-0.211c0.057-0.215,0.11-0.429,0.152-0.65c0.019-0.097,0.03-0.195,0.044-0.293
	c0.029-0.194,0.056-0.387,0.072-0.584c0.01-0.12,0.013-0.241,0.019-0.362c0.006-0.124,0.019-0.246,0.019-0.371
	c0-0.058-0.008-0.114-0.009-0.173c-0.002-0.119-0.01-0.238-0.018-0.358c-0.012-0.192-0.027-0.384-0.05-0.573
	c-0.005-0.041-0.005-0.08-0.011-0.121c-0.008-0.062-0.026-0.121-0.036-0.183c-0.033-0.204-0.071-0.406-0.119-0.605
	c-0.021-0.091-0.046-0.182-0.07-0.272c-0.055-0.204-0.117-0.404-0.185-0.602c-0.029-0.085-0.059-0.169-0.092-0.253
	c-0.076-0.196-0.159-0.388-0.247-0.577c-0.038-0.083-0.077-0.165-0.119-0.246c-0.093-0.182-0.194-0.36-0.299-0.534
	c-0.049-0.082-0.097-0.164-0.149-0.245c-0.109-0.168-0.225-0.329-0.344-0.488c-0.059-0.079-0.115-0.16-0.178-0.238
	c-0.127-0.159-0.264-0.309-0.401-0.46c-0.063-0.068-0.121-0.139-0.187-0.205c-0.176-0.18-0.363-0.349-0.554-0.513
	c-0.033-0.028-0.062-0.058-0.094-0.086c-0.232-0.194-0.476-0.374-0.728-0.544c-0.004-0.002-0.006-0.005-0.008-0.006l-32.877-21.901
	c-4.022-2.679-9.454-1.59-12.133,2.431c-2.679,4.021-1.59,9.454,2.431,12.133l8.81,5.868H41.184
	c-9.264,0-17.455-6.238-19.916-15.169l-3.475-12.598c1.268-4.815,5.125-17.872,13.18-33.522
	c4.501,19.085,21.663,33.336,42.103,33.336c19.127,0,36.212-12.815,41.549-31.165c1.35-4.641-1.317-9.495-5.958-10.845
	c-4.634-1.351-9.495,1.316-10.845,5.958c-3.178,10.924-13.354,18.554-24.747,18.554c-14.208,0-25.767-11.559-25.767-25.767
	s11.559-25.767,25.767-25.767c9.08,0,17.321,4.64,22.042,12.412c2.511,4.13,7.893,5.443,12.022,2.935
	c4.13-2.508,5.443-7.891,2.935-12.021c-7.698-12.671-20.979-20.357-35.711-20.784c22.058-16.85,48.438-26.091,78.877-27.561v45.856
	c0,3.672,2.294,6.954,5.742,8.216c3.45,1.262,7.317,0.237,9.69-2.567c0.22-0.262,24.544-26.206,109.855-26.206
	c3.501,0,7.119,0.099,10.754,0.296c4.795,0.26,8.949-3.439,9.209-8.264c0.261-4.825-3.439-8.948-8.265-9.209
	c-3.948-0.213-7.883-0.321-11.696-0.321c-58.123,0-90.886,11.701-107.786,21.05V83.307c0-4.832-3.916-8.75-8.75-8.75
	c-68.977,0-109.36,35.484-131.092,65.252C7.567,171.766,0.49,203.437,0.2,204.77c-0.301,1.384-0.261,2.82,0.115,4.186l4.082,14.801
	c4.547,16.496,19.675,28.016,36.787,28.016h99.672l-17.058,20.165c-14.108,0.79-59.083,6.02-70.747,40.477
	c-0.904,2.67-0.465,5.614,1.177,7.905c1.644,2.291,4.291,3.65,7.11,3.65h78.88c2.414,0,4.721-0.997,6.374-2.756l65.29-69.44h82.809
	c2.256,8.309,4.895,15.832,7.121,21.604c-10.601,2.631-21.708,8.54-33.167,17.66c-11.462,9.123-19.06,18.205-19.377,18.588
	c-2.17,2.609-2.637,6.238-1.195,9.31c1.44,3.073,4.528,5.035,7.921,5.035h76.826C335.61,323.969,338.234,322.638,339.881,320.386z"
	/>
<g>
</g>
<g>
</g>
<g>
</g>
<g>
</g>
<g>
</g>
<g>
</g>
<g>
</g>
<g>
</g>
<g>
</g>
<g>
</g>
<g>
</g>
<g>
</g>
<g>
</g>
<g>
</g>
<g>
</g>
</svg>
