<svg height="512" viewBox="0 0 60 60" width="512" xmlns="http://www.w3.org/2000/svg"><g id="Page-1" fill="none" fill-rule="evenodd"><g id="043---Eye-and-Moon" fill-rule="nonzero" transform="translate(-1)"><path id="Shape" d="m59.942 31.859c-.7116604 11.056327-7.6606262 20.7410301-17.9066246 24.9562812-10.2459985 4.2152511-21.9983579 2.2243595-30.2843754-5.1302812-.191877-.1626779-.2330168-.4425806-.0960639-.6535895.1369529-.211009.4093502-.2874141.6360639-.1784105 9.66087 4.4972899 21.1458416 1.7694592 27.7526803-6.5916237s6.6051402-20.1655579-.0041043-28.5247393c-6.6092445-8.3591813-18.0950006-11.08370677-27.754576-6.583637-.2250995.10582402-.493758.03009523-.6304523-.17771033-.1366944-.20780557-.0998539-.48449132.0864523-.64928967 8.7886398-7.80691607 21.4207771-9.53599723 31.9840534-4.37796256s16.9677824 16.18268506 16.2159466 27.91396256z" fill="#ffdc00"/><path id="Shape" d="m31 1c-.5 0-.994.015-1.486.04 15.3835622.83934369 27.4256632 13.5610045 27.4200768 28.9674463-.0055864 15.4064419-12.05691 28.1193664-27.4410768 28.9475537.832.042 1.672.057 2.521.028 15.8176353-.5417165 28.2797041-13.6655897 28.0029673-29.490079-.2767369-15.8244893-13.1900627-28.50460057-29.0169673-28.492921z" fill="#fec108"/><path id="Shape" d="m34.78 30.3c-.04.05-.09.11-.14.18l-.64-.48c-2.5777908-2.6864091-5.894217-4.5482013-9.53-5.35-3.5951733-.8666696-7.3448267-.8666696-10.94 0-3.63578298.8017987-6.9522092 2.6635909-9.53 5.35l-.85.15c-.05202436-.1523899-.0258562-.3206138.07-.45 1.28-1.67 7.86-9.7 15.78-9.7s14.5 8.03 15.78 9.7c.1300909.1788454.1300909.4211546 0 .6z" fill="#ffe0b2"/><path id="Shape" d="m34.64 30.48c-1.55 1.98-7.97 9.52-15.64 9.52-7.92 0-14.5-8.03-15.78-9.7-.03321686-.0447638-.05702837-.0957884-.07-.15l.85-.15c2.5777908-2.6864091 5.89421702-4.5482013 9.53-5.35-.9983431 1.2290767-1.5391183 2.7665748-1.53 4.35 0 3.8659932 3.1340068 7 7 7s7-3.1340068 7-7c.0091183-1.5834252-.5316569-3.1209233-1.53-4.35 3.635783.8017987 6.9522092 2.6635909 9.53 5.35z" fill="#f5f5f5"/><path id="Shape" d="m24.47 24.65c-3.5951733-.8666696-7.3448267-.8666696-10.94 0-.9983431 1.2290767-1.5391183 2.7665748-1.53 4.35 0 3.8659932 3.1340068 7 7 7s7-3.1340068 7-7c.0091183-1.5834252-.5316569-3.1209233-1.53-4.35z" fill="#0377bc"/><circle id="Oval" cx="19" cy="30" fill="#37474f" r="2"/><g fill="#000"><path id="Shape" d="m31 0c-7.3462041-.00634072-14.4379805 2.69027132-19.924 7.576-.5570323.49484957-.6663968 1.3235638-.2568086 1.94597728.4095882.62241352 1.2139566.84983252 1.8888086.53402272 2.9077454-1.36238747 6.0809238-2.06450271 9.292-2.056 9.0112355.00295629 17.1095675 5.5009672 20.4375138 13.8751625 3.3279462 8.3741954 1.2125481 17.9311926-5.3385657 24.1187027-6.5511139 6.1875101-16.2132142 7.7543297-24.3839481 3.9541348-.6761454-.3183965-1.483527-.090482-1.8933737.5344777-.4098468.6249597-.2971113 1.4562844.2643737 1.9495223 5.4806683 4.8870541 12.5709191 7.5815915 19.914 7.568.347 0 .7-.006 1.045-.019 15.3710338-.6315193 27.8126022-12.713124 28.895-28.059.5600359-8.2857615-2.3661578-16.4288597-8.072-22.463-5.6794983-6.02449973-13.5884399-9.44551121-21.868-9.459zm27.944 31.8c-.649304 10.0933782-6.6915078 19.0520435-15.8063604 23.4358022-9.1148526 4.3837588-19.8853875 3.5111255-28.1756396-2.2828022 2.4413088.7462455 4.9857268 1.0996556 7.538 1.047 9.3575514-.2115394 17.7383839-5.8439108 21.4689391-14.4282848 3.7305551-8.584374 2.1301171-18.5543569-4.0997961-25.5398203-6.2299133-6.98546334-15.9525275-9.7117673-24.906143-6.9838949 8.8207064-6.16420794 20.3936414-6.72787473 29.7716392-1.45004567 9.3779977 5.27782907 14.9015098 15.46317927 14.2093608 26.20204567z"/><path id="Shape" d="m2.431 29.092c-.41641651.5344642-.41641651 1.2835358 0 1.818 1.294 1.69 8.169 10.09 16.569 10.09s15.275-8.4 16.569-10.092c.4160916-.5338305.4160916-1.2821695 0-1.816-1.294-1.687-8.169-10.092-16.569-10.092s-15.275 8.405-16.569 10.092zm16.569 9.908c-6.458 0-12.059-5.8-14.222-8.37 1.85837459-1.9352944 4.14452674-3.4080216 6.675-4.3-1.163279 3.3124362-.0309918 6.9962562 2.7919602 9.0834539 2.8229519 2.0871977 6.6768585 2.0900051 9.5028484.0069226 2.8259899-2.0830826 3.9636431-5.7652489 2.8051914-9.0793765 2.5238212.897219 4.8064281 2.3650003 6.67 4.289-2.165 2.57-7.765 8.37-14.223 8.37zm4.868-13.464c.7390034 1.0034163 1.1358594 2.2178237 1.132 3.464 0 3.3137085-2.6862915 6-6 6s-6-2.6862915-6-6c-.0040614-1.248689.3942828-2.4654622 1.136-3.47 3.2055184-.7086735 6.5273579-.7066255 9.732.006zm5.09-.362c-3.1142645-1.4623703-6.5176242-2.2053813-9.958-2.174-3.4403758-.0313813-6.8437355.7116297-9.958 2.174 2.681-2.174 6.17-4.174 9.958-4.174s7.277 2 9.958 4.174z"/><path id="Shape" d="m20 16v-4c0-.5522847-.4477153-1-1-1s-1 .4477153-1 1v4c0 .5522847.4477153 1 1 1s1-.4477153 1-1z"/><path id="Shape" d="m13 18c.3214436.0000774.6233283-.1543712.8113424-.4150947.1880141-.2607234.2392338-.5959327.1376576-.9009053l-1-3c-.174522-.5246705-.7413295-.8085219-1.266-.634-.5246705.174522-.808522.7413295-.634 1.266l1 3c.1363037.4092423.5196567.6849662.951.684z"/><path id="Shape" d="m6.707 17.293c-.39237889-.3789722-1.01608478-.3735524-1.40181858.0121814-.38573379.3857338-.39115363 1.0094397-.01218142 1.4018186l2 2c.25107447.2599566.62287789.3642126.97250732.2726972.34962944-.0915155.6226744-.3645604.71418984-.7141899.09151544-.3496294-.01274058-.7214328-.27269716-.9725073z"/><path id="Shape" d="m2.293 24.707c.25107447.2599566.62287789.3642126.97250732.2726972.34962944-.0915155.6226744-.3645604.71418984-.7141899.09151544-.3496294-.01274058-.7214328-.27269716-.9725073l-1-1c-.25107447-.2599566-.62287789-.3642126-.97250732-.2726972-.34962944.0915155-.6226744.3645604-.71418984.7141899-.09151544.3496294.01274058.7214328.27269716.9725073z"/><path id="Shape" d="m25 18c.4306074.0001037.8129281-.2754572.949-.684l1-3c.174522-.5246705-.1093295-1.091478-.634-1.266-.5246705-.1745219-1.091478.1093295-1.266.634l-1 3c-.1016886.3053075-.0502399.6408961.1382416.9017179.1884814.2608218.4909623.4150035.8127584.4142821z"/><path id="Shape" d="m30.707 20.707 2-2c.3789722-.3923789.3735524-1.0160848-.0121814-1.4018186s-1.0094397-.3911536-1.4018186-.0121814l-2 2c-.2599566.2510745-.3642126.6228779-.2726972.9725073.0915155.3496295.3645604.6226744.7141899.7141899.3496294.0915154.7214328-.0127406.9725073-.2726972z"/><path id="Shape" d="m36.707 22.293c-.3904999-.3903819-1.0235001-.3903819-1.414 0l-1 1c-.2599566.2510745-.3642126.6228779-.2726972.9725073.0915155.3496295.3645604.6226744.7141899.7141899.3496294.0915154.7214328-.0127406.9725073-.2726972l1-1c.3903819-.3904999.3903819-1.0235001 0-1.414z"/><path id="Shape" d="m18 44v4c0 .5522847.4477153 1 1 1s1-.4477153 1-1v-4c0-.5522847-.4477153-1-1-1s-1 .4477153-1 1z"/><path id="Shape" d="m12.051 42.684-1 3c-.174522.5246705.1093295 1.091478.634 1.266s1.091478-.1093295 1.266-.634l1-3c.1128959-.3394023.0361471-.7132522-.201336-.9807241-.237483-.2674719-.599621-.3879304-.95-.316s-.6357681.3253218-.748664.6647241z"/><path id="Shape" d="m7.293 39.293-2 2c-.25995658.2510745-.3642126.6228779-.27269716.9725073.09151544.3496295.3645604.6226744.71418984.7141899.34962943.0915154.72143285-.0127406.97250732-.2726972l2-2c.37897221-.3923789.37355237-1.0160848-.01218142-1.4018186-.3857338-.3857338-1.00943969-.3911536-1.40181858-.0121814z"/><path id="Shape" d="m2.293 35.293-1 1c-.25995658.2510745-.3642126.6228779-.27269716.9725073.09151544.3496295.3645604.6226744.71418984.7141899.34962943.0915154.72143285-.0127406.97250732-.2726972l1-1c.37897221-.3923789.37355237-1.0160848-.01218142-1.4018186-.3857338-.3857338-1.00943969-.3911536-1.40181858-.0121814z"/><path id="Shape" d="m24.684 42.052c-.5236841.1744282-.8070052.7401752-.633 1.264l1 3c.174522.5246705.7413295.8085219 1.266.634.5246705-.174522.808522-.7413295.634-1.266l-1-3c-.0839398-.2520132-.2646959-.4602758-.5023904-.5788416-.2376945-.1185659-.5127949-.1376918-.7646096-.0531584z"/><path id="Shape" d="m30.707 39.293c-.3923789-.3789722-1.0160848-.3735524-1.4018186.0121814s-.3911536 1.0094397-.0121814 1.4018186l2 2c.3923789.3789722 1.0160848.3735524 1.4018186-.0121814s.3911536-1.0094397.0121814-1.4018186z"/><path id="Shape" d="m35.707 35.293c-.3923789-.3789722-1.0160848-.3735524-1.4018186.0121814s-.3911536 1.0094397-.0121814 1.4018186l1 1c.3923789.3789722 1.0160848.3735524 1.4018186-.0121814s.3911536-1.0094397.0121814-1.4018186z"/><path id="Shape" d="m16 30c0 1.6568542 1.3431458 3 3 3s3-1.3431458 3-3-1.3431458-3-3-3-3 1.3431458-3 3zm4 0c0 .5522847-.4477153 1-1 1s-1-.4477153-1-1 .4477153-1 1-1 1 .4477153 1 1z"/></g></g></g></svg>