<?xml version="1.0" encoding="iso-8859-1"?>
<!-- Generator: Adobe Illustrator 19.0.0, SVG Export Plug-In . SVG Version: 6.00 Build 0)  -->
<svg version="1.1" id="Layer_1" xmlns="http://www.w3.org/2000/svg" xmlns:xlink="http://www.w3.org/1999/xlink" x="0px" y="0px"
	 viewBox="0 0 512 512" style="enable-background:new 0 0 512 512;" xml:space="preserve">
<g>
	<path style="fill:#F65200;" d="M256,16.516C123.948,16.516,16.516,123.948,16.516,256S123.948,495.484,256,495.484
		S495.484,388.052,495.484,256S388.052,16.516,256,16.516z M461.744,342.055c-15.598,37.248-41.099,69.632-73.749,93.651
		c-33.268,24.475-72.594,39.175-113.727,42.513c-0.224,0.019-0.447,0.026-0.668,0.026c-2.513,0-4.905-1.147-6.478-3.138
		c-1.712-2.167-2.229-5.046-1.375-7.672l39.091-120.312h-17.366l-23.618,72.691c-1.105,3.403-4.277,5.707-7.854,5.707
		s-6.748-2.303-7.854-5.707l-25.493-78.459c-0.006-0.019-0.012-0.035-0.018-0.054l-10.707-32.952
		c-0.01-0.032-0.021-0.065-0.031-0.097l-18.821-57.925l-14.05,10.208l13.908,42.803c0.007,0.022,0.014,0.043,0.021,0.065
		l53.298,164.034c0.853,2.626,0.338,5.505-1.375,7.672c-1.573,1.991-3.965,3.138-6.478,3.138c-0.222,0-0.445-0.009-0.668-0.026
		c-41.133-3.337-80.459-18.039-113.727-42.513c-32.649-24.018-58.151-56.403-73.749-93.651c-1.067-2.548-0.788-5.464,0.742-7.764
		c1.532-2.301,4.111-3.684,6.875-3.684h104.89c4.561,0,8.258,3.696,8.258,8.258v0.001h16.092l-8.05-24.775H102.63
		c-3.577,0-6.748-2.303-7.854-5.707c-1.105-3.402,0.106-7.131,3-9.233l66.736-48.487c0.019-0.013,0.037-0.026,0.056-0.04
		l28.041-20.373c0.02-0.015,0.04-0.029,0.059-0.043l49.282-35.807l-14.05-10.208l-36.302,26.375
		c-0.075,0.055-0.149,0.111-0.226,0.163l-27.77,20.176c-0.106,0.08-0.212,0.16-0.322,0.235L51.867,312.091
		c-1.43,1.039-3.135,1.578-4.855,1.578c-0.968,0-1.941-0.17-2.874-0.516c-2.592-0.962-4.53-3.158-5.163-5.849
		c-3.944-16.74-5.944-34.001-5.944-51.303c0-64.981,28.27-126.588,77.563-169.028c2.094-1.805,4.95-2.441,7.614-1.695
		c2.661,0.745,4.774,2.773,5.628,5.401l39.09,120.308l14.05-10.208l-23.619-72.692c-1.105-3.402,0.106-7.131,3-9.233
		c2.894-2.103,6.813-2.103,9.707,0l66.728,48.481c0.022,0.017,0.045,0.032,0.067,0.048l28.031,20.365
		c0.022,0.017,0.045,0.033,0.068,0.05l58.374,42.411c0.018,0.012,0.034,0.024,0.051,0.036l28.048,20.378
		c0.018,0.013,0.035,0.025,0.054,0.039l66.737,48.488c2.895,2.102,4.106,5.83,3,9.233c-1.105,3.403-4.277,5.707-7.854,5.707h-82.403
		c-0.009,0-0.018,0.002-0.027,0.002c-0.009,0-0.019-0.002-0.028-0.002h-34.677c-0.009,0-0.018,0.002-0.028,0.002
		c-0.009,0-0.019-0.002-0.028-0.002h-61.018l5.367,16.516h45c0.024,0,0.048,0,0.073,0h34.412c0.127-0.002,0.253-0.002,0.382,0
		h137.732c2.764,0,5.345,1.383,6.875,3.684C462.532,336.591,462.811,339.507,461.744,342.055z M467.861,313.152
		c-0.933,0.346-1.906,0.516-2.874,0.516c-1.72,0-3.423-0.537-4.855-1.578l-111.409-80.942c-0.112-0.077-0.222-0.159-0.33-0.241
		l-27.929-20.292c-0.001-0.001-0.002-0.001-0.004-0.002l-41.215-29.945c0,0-0.001-0.001-0.002-0.001L139.583,79.198
		c-2.234-1.623-3.51-4.256-3.397-7.015c0.112-2.759,1.595-5.281,3.954-6.718C174.96,44.248,215.025,33.032,256,33.032
		s81.04,11.216,115.861,32.433c2.358,1.437,3.842,3.958,3.954,6.718c0.112,2.759-1.163,5.392-3.397,7.015l-83.465,60.641
		c-3.689,2.682-8.852,1.863-11.533-1.824l-14.392,10.457l21.071,15.309l61.834-44.926c2.894-2.103,6.813-2.103,9.707,0
		c2.895,2.102,4.106,5.83,3,9.233l-23.619,72.692l14.05,10.208l39.09-120.308c0.853-2.629,2.966-4.656,5.628-5.401
		c2.661-0.745,5.52-0.109,7.614,1.695c49.294,42.439,77.564,104.046,77.564,169.027c0,17.302-2,34.564-5.943,51.305
		C472.391,309.995,470.453,312.19,467.861,313.152z"/>
	<polygon style="fill:#F65200;" points="320.938,297.576 332.973,260.535 318.923,250.327 303.571,297.576 	"/>
</g>
<path d="M437.019,74.981C388.667,26.63,324.38,0,256,0S123.333,26.63,74.981,74.981C26.628,123.334,0,187.62,0,256
	s26.628,132.666,74.981,181.019C123.333,485.371,187.62,512,256,512s132.667-26.629,181.019-74.981
	C485.372,388.666,512,324.38,512,256S485.372,123.334,437.019,74.981z M256,495.484C123.948,495.484,16.516,388.052,16.516,256
	S123.948,16.516,256,16.516S495.484,123.948,495.484,256S388.052,495.484,256,495.484z"/>
<path d="M454.126,330.608H316.394c-0.128-0.002-0.254-0.002-0.382,0H281.6c-0.024,0-0.048,0-0.073,0h-45l-5.367-16.516h61.018
	c0.009,0,0.019,0.002,0.028,0.002c0.009,0,0.018-0.002,0.028-0.002h34.677c0.009,0,0.019,0.002,0.028,0.002
	c0.009,0,0.018-0.002,0.027-0.002h82.403c3.577,0,6.748-2.303,7.854-5.707c1.105-3.402-0.106-7.131-3-9.233l-66.737-48.488
	c-0.018-0.013-0.035-0.025-0.054-0.039l-28.048-20.378c-0.017-0.012-0.033-0.024-0.051-0.036L260.96,187.8
	c-0.022-0.017-0.045-0.033-0.068-0.05l-28.031-20.365c-0.022-0.017-0.045-0.033-0.067-0.048l-66.728-48.481
	c-2.894-2.103-6.813-2.103-9.707,0c-2.895,2.102-4.106,5.83-3,9.233l23.619,72.692l-14.05,10.208l-39.09-120.31
	c-0.853-2.629-2.966-4.656-5.628-5.401c-2.663-0.747-5.52-0.11-7.614,1.695C61.302,129.412,33.032,191.019,33.032,256
	c0,17.302,2,34.564,5.943,51.305c0.634,2.69,2.572,4.887,5.163,5.849c0.934,0.346,1.906,0.516,2.874,0.516
	c1.72,0,3.423-0.537,4.855-1.578l111.413-80.947c0.11-0.075,0.217-0.154,0.322-0.235l27.77-20.176
	c0.077-0.053,0.151-0.109,0.226-0.163l36.302-26.375l14.05,10.208l-49.282,35.807c-0.02,0.014-0.04,0.028-0.059,0.043
	l-28.041,20.373c-0.019,0.013-0.037,0.026-0.056,0.04l-66.736,48.487c-2.895,2.102-4.106,5.83-3,9.233
	c1.105,3.403,4.277,5.707,7.854,5.707h76.433l8.05,24.775l39.478,121.499c-67.641-9.605-125.736-51.8-155.899-113.242h92.072
	c4.561,0,8.257-3.695,8.258-8.257v-0.001c0-4.562-3.697-8.258-8.258-8.258H57.874c-2.764,0-5.345,1.383-6.875,3.684
	c-1.53,2.3-1.809,5.215-0.742,7.764c15.598,37.248,41.099,69.632,73.749,93.651c33.268,24.475,72.594,39.175,113.727,42.513
	c0.224,0.019,0.446,0.026,0.668,0.026c2.513,0,4.905-1.147,6.478-3.138c1.712-2.167,2.227-5.046,1.375-7.672l-53.298-164.034
	c-0.007-0.022-0.014-0.043-0.021-0.065l-13.908-42.803l14.05-10.208l18.821,57.925c0.01,0.032,0.021,0.065,0.031,0.097
	l10.707,32.952c0.006,0.019,0.012,0.035,0.018,0.054l25.493,78.459c1.105,3.403,4.277,5.707,7.854,5.707s6.748-2.303,7.854-5.707
	l23.618-72.691h17.366l-39.091,120.312c-0.853,2.626-0.338,5.505,1.375,7.672c1.573,1.991,3.965,3.138,6.478,3.138
	c0.222,0,0.446-0.009,0.668-0.026c41.133-3.337,80.459-18.039,113.727-42.513c32.649-24.018,58.151-56.403,73.749-93.651
	c1.067-2.548,0.788-5.464-0.742-7.764C459.47,331.991,456.89,330.608,454.126,330.608z M52.543,291.185
	c-1.99-11.587-2.995-23.375-2.995-35.185c0-55.962,22.65-109.228,62.544-148.021l36.786,113.214L52.543,291.185z M191.027,190.572
	l-14.107-43.415l36.931,26.832L191.027,190.572z M128.046,297.576l36.932-26.833l8.718,26.833H128.046z M347.023,270.742
	l36.932,26.833h-45.651L347.023,270.742z M332.973,260.535l-12.035,37.04h-17.366l15.352-47.248L332.973,260.535z M207.125,240.119
	l48.873-35.509l48.875,35.51l-18.669,57.455h-60.412L207.125,240.119z M256,390.538l-14.106-43.415h28.213L256,390.538z
	 M285.41,460.365l36.795-113.242h119.103C411.146,408.566,353.051,450.762,285.41,460.365z"/>
<path d="M401.405,86.972c-2.094-1.804-4.954-2.44-7.614-1.695c-2.661,0.745-4.774,2.773-5.628,5.401l-39.09,120.308l-14.05-10.208
	l23.619-72.692c1.105-3.402-0.106-7.131-3-9.233c-2.894-2.103-6.813-2.103-9.707,0l-61.834,44.926l-21.071-15.309L159.656,73.365
	C189.22,57.75,222.274,49.548,256,49.548s66.78,8.202,96.345,23.817l-73.1,53.111c-3.69,2.681-4.508,7.845-1.827,11.535
	c0,0,0.001,0.001,0.002,0.002c2.681,3.689,7.844,4.507,11.533,1.824l83.465-60.641c2.234-1.623,3.51-4.256,3.397-7.015
	c-0.112-2.759-1.595-5.281-3.954-6.718C337.04,44.248,296.975,33.032,256,33.032s-81.04,11.216-115.861,32.433
	c-2.359,1.437-3.842,3.958-3.954,6.718c-0.112,2.759,1.163,5.392,3.397,7.015l139.66,101.47c0.001,0,0.001,0.001,0.001,0.001
	l41.217,29.946c0.001,0.001,0.002,0.001,0.004,0.002l27.929,20.292c0.108,0.083,0.218,0.163,0.33,0.241l111.409,80.943
	c1.431,1.039,3.135,1.578,4.855,1.578c0.968,0,1.941-0.17,2.874-0.516c2.592-0.962,4.53-3.158,5.163-5.849
	c3.944-16.742,5.944-34.003,5.944-51.306C478.968,191.019,450.698,129.412,401.405,86.972z M298.149,173.989l36.931-26.832
	l-14.107,43.415L298.149,173.989z M459.457,291.185l-96.335-69.991l36.786-113.214c39.894,38.792,62.544,92.058,62.544,148.02
	C462.452,267.81,461.446,279.598,459.457,291.185z"/>
<g>
</g>
<g>
</g>
<g>
</g>
<g>
</g>
<g>
</g>
<g>
</g>
<g>
</g>
<g>
</g>
<g>
</g>
<g>
</g>
<g>
</g>
<g>
</g>
<g>
</g>
<g>
</g>
<g>
</g>
</svg>
