<svg height="512" viewBox="0 0 60 61" width="512" xmlns="http://www.w3.org/2000/svg"><g id="Page-1" fill="none" fill-rule="evenodd"><g id="038---Illuminati" fill-rule="nonzero" transform="translate(-1)"><path id="Shape" d="m13.63 48h-8.63l4.1-6.93c1.5287727.1935891 3.0002211.7045087 4.32 1.5.5237731 1.7638287.5959837 3.6309873.21 5.43z" fill="#ff9801"/><path id="Shape" d="m48.58 42.57c-.5237731 1.7638287-.5959837 3.6309873-.21 5.43h-34.74c.3859837-1.7990127.3137731-3.6661713-.21-5.43-1.3197789-.7954913-2.7912273-1.3064109-4.32-1.5l17.7-29.96c1.1563736 1.2766514 2.5944248 2.2661675 4.2 2.89 1.6055752-.6238325 3.0436264-1.6133486 4.2-2.89l17.7 29.96c-1.5287727.1935891-3.0002211.7045087-4.32 1.5z" fill="#ffdc00"/><path id="Shape" d="m52.9 41.07-17.7-29.96c-.5905081.6496463-1.2588868 1.2239818-1.99 1.71l16.69 28.25c-1.5287727.1935891-3.0002211.7045087-4.32 1.5-.5237731 1.7638287-.5959837 3.6309873-.21 5.43h3c-.3859837-1.7990127-.3137731-3.6661713.21-5.43 1.3197789-.7954913 2.7912273-1.3064109 4.32-1.5z" fill="#fec108"/><path id="Shape" d="m28 14c.5162721-.2095241 1.0174636-.4544396 1.5-.733-1.0101605-.5690944-1.9218774-1.2974549-2.7-2.157l-1.01 1.71c.6923103.4712974 1.4332234.866898 2.21 1.18z" fill="#fec108"/><path id="Shape" d="m35.2 11.11c-1.1563736 1.2766514-2.5944248 2.2661675-4.2 2.89-1.6055752-.6238325-3.0436264-1.6133486-4.2-2.89l4.2-7.11z" fill="#ff9801"/><path id="Shape" d="m57 48h-8.63c-.3859837-1.7990127-.3137731-3.6661713.21-5.43 1.3197789-.7954913 2.7912273-1.3064109 4.32-1.5z" fill="#ff9801"/><path id="Shape" d="m44.74 34.66-.74-.66c-2.602342-1.8497092-5.5908672-3.0841-8.74-3.61-2.8161969-.5200035-5.7038031-.5200035-8.52 0-3.1491328.5259-6.137658 1.7602908-8.74 3.61l-.99.11c-.0368309-.2812141.0550006-.5640554.25-.77 1.73-1.91 7.23-7.34 13.74-7.34s12.01 5.43 13.74 7.34c.3499821.3704048.3499821.9495952 0 1.32z" fill="#ffe0b2"/><path id="Shape" d="m44.74 34.66c-1.73 1.91-7.23 7.34-13.74 7.34s-12.01-5.43-13.74-7.34c-.1424132-.1502722-.2304228-.3438933-.25-.55l.99-.11c2.602342-1.8497092 5.5908672-3.0841 8.74-3.61-.4856476.7837862-.7420014 1.6879531-.74 2.61 0 2.7614237 2.2385763 5 5 5s5-2.2385763 5-5c.0020014-.9220469-.2543524-1.8262138-.74-2.61 3.1491328.5259 6.137658 1.7602908 8.74 3.61z" fill="#f5f5f5"/><path id="Shape" d="m36 33c0 2.7614237-2.2385763 5-5 5s-5-2.2385763-5-5c-.0020014-.9220469.2543524-1.8262138.74-2.61 2.8161969-.5200035 5.7038031-.5200035 8.52 0 .4856476.7837862.7420014 1.6879531.74 2.61z" fill="#0377bc"/><g fill="#000"><path id="Shape" d="m57.868 48.5c.1784049-.3119255.1757326-.6955898-.007-1.005l-26-44c-.1937944-.28516943-.5162133-.45588463-.861-.45588463s-.6672056.1707152-.861.45588463l-26 44c-.18075083.3089279-.18261062.6909025-.00487656 1.0015759s.50795651.502666.86587656.5034241h52c.3579708.0007064.6890149-.1899871.868-.5zm-10.25-6.2c-.4409941 1.5250899-.5812632 3.1213732-.413 4.7h-32.405c.1682632-1.5786268.0279941-3.1749101-.413-4.7-.0702327-.2475634-.2331982-.4585231-.455-.589-1.0148833-.599742-2.1093479-1.0532159-3.251-1.347l16.327-27.642c1.0710176.9372701 2.2951744 1.6834679 3.619 2.206.2393578.0962249.5066422.0962249.746 0 1.3238256-.5225321 2.5479824-1.2687299 3.619-2.206l16.332 27.639c-1.1416521.2937841-2.2361167.747258-3.251 1.347-.222411.1311875-.3854544.3433231-.455.592zm-16.618-36.334 2.946 4.986c-.8595978.8216425-1.8567219 1.4860535-2.946 1.963-1.0892781-.4769465-2.0864022-1.1413575-2.946-1.963zm-21.393 36.204c1.0341132.1991378 2.0310047.5577489 2.955 1.063.3088002 1.2308266.3820875 2.5089433.216 3.767h-6.025zm39.615 4.83c-.1660875-1.2580567-.0928002-2.5361734.216-3.767.9239953-.5052511 1.9208868-.8638622 2.955-1.063l2.854 4.83z"/><path id="Shape" d="m45.486 32.67c-2.086-2.306-7.686-7.67-14.486-7.67s-12.395 5.364-14.486 7.671c-.6869434.7532312-.6869434 1.9057688 0 2.659 2.091 2.306 7.686 7.67 14.486 7.67s12.4-5.364 14.486-7.671c.6868067-.7529008.6868067-1.9050992 0-2.658zm-4.663-1.627c-6.2644935-2.7233243-13.3785065-2.7233243-19.643 0 2.471-1.967 5.987-4.043 9.82-4.043s7.352 2.077 9.823 4.043zm-5.823 1.957c.0084549 1.6455729-.9917595 3.1284107-2.520691 3.7369747-1.5289315.6085641-3.2745577.2186594-4.3992413-.9826186-1.1246835-1.2012779-1.3989003-2.9687738-.6910677-4.4543561 2.3909382-.3973343 4.8310618-.3973343 7.222 0 .2540965.5308194.3869703 1.1115018.389 1.7zm-17 1.006.084.1-.091-.1zm13 6.994c-5.435 0-10.231-4.17-12.313-6.266 1.9598292-1.3564263 4.1441473-2.3554844 6.452-2.951-.525359 2.3980589.4631448 4.8742523 2.49552 6.2512561s4.6985848 1.3770038 6.73096 0 3.020879-3.8531972 2.49552-6.2512561c2.3027568.5945525 4.4825182 1.5908311 6.439 2.943-2.085 2.119-6.874 6.274-12.3 6.274z"/><path id="Shape" d="m7.877 18c-.27765266.4771938-.11605635 1.0891112.361 1.367l6.915 4.023c.3092023.1893443.696671.1964921 1.0126464.0186807.3159753-.1778114.5109535-.5127242.5095739-.875292s-.1989009-.6959871-.5162203-.8713887l-6.915-4.024c-.47745549-.2774835-1.08945272-.1154184-1.367.362z"/><path id="Shape" d="m12.717 13.683c-.3523417.4252642-.2932445 1.0556345.132 1.408l4.683 3.882c.4256337.347329 1.0517548.2862659 1.4022592-.1367566.3505045-.4230226.2941286-1.0495832-.1262592-1.4032434l-4.684-3.882c-.4251118-.3516639-1.0547143-.2925967-1.407.132z"/><path id="Shape" d="m16.752 8.85c-.4327452.33986597-.5096076.96549069-.172 1.4l3.32 4.25c.3402074.4354765.9690235.5127074 1.4045.1725s.5127074-.9690235.1725-1.4045l-3.321-4.246c-.1633416-.20903608-.4030503-.34460193-.6663676-.37686017-.2633172-.03225823-.5286617.041435-.7376324.20486017z"/><path id="Shape" d="m20.2 4.982c-.221916.14541943-.3769461.37306743-.4309615.63282859-.0540153.25976116-.0025876.53034046.1429615.75217141l2.451 3.74c.3037566.4617101.9242899.5897566 1.386.286s.5897566-.92428995.286-1.386l-2.451-3.74c-.3037584-.46047146-.9230251-.58799385-1.384-.285z"/><path id="Shape" d="m25.714 6.237c.1520874.00097065.3023376-.03325492.439-.1.4949981-.24335859.6994717-.84156685.457-1.337l-1.587-3.24c-.1476835-.33637556-.4679137-.56469182-.8340567-.59466199s-.719239.14323186-.9196574.45111398-.2158859.70086615-.0402859 1.02354801l1.586 3.237c.1680951.3430665.5169654.56038279.899.56z"/><path id="Shape" d="m6.517 24.34c-.09371905.2482364-.08493926.5235429.02440627.7653034.10934552.2417606.31029127.4301526.55859373.5236966l5.689 2.153c.3367306.1384055.722075.0828727 1.0060234-.1449801s.4216308-.5920199.3594492-.9507357c-.0621815-.3587158-.314401-.6552955-.6584726-.7742842l-5.69-2.153c-.51638201-.1953717-1.09339129.0647077-1.289.581z"/><path id="Shape" d="m4.311 30.237c-.08047043.5461686.29687677 1.0542221.843 1.135l5.327.786c.0487047.006778.0978261.0101195.147.01.5227763-.0020208.9557744-.4063678.993524-.9277833.0377495-.5214155-.3324905-.9839155-.849524-1.0612167l-5.327-.785c-.54580968-.079866-1.05320763.2973267-1.134.843z"/><path id="Shape" d="m2.651 35.145c-.0347863.5511776.38382337 1.0261988.935 1.061l4.464.282h.064c.55228474.017397 1.01410301-.4162153 1.03149998-.9685s-.41621524-1.014103-.96849998-1.0315l-4.464-.283c-.2656677-.0169526-.5271298.072723-.72646854.2491621-.19933873.1764392-.32009931.4250775-.33553146.6908379z"/><path id="Shape" d="m2 41.032h.063l3.6-.22c.26504132-.0162036.51275571-.1371553.68852703-.3361877s.26516553-.4598013.24847297-.7248123c-.01328902-.2659403-.13325195-.5152872-.33275352-.691639-.19950156-.1763519-.46168547-.2648084-.72724648-.245361l-3.6.22c-.55228474.0168447-.98634467.4782153-.96949998 1.0305.01684468.5522847.47821524.9863447 1.03049998.9695z"/><path id="Shape" d="m52.756 17.638-6.915 4.023c-.3173194.1754016-.5148407.5088209-.5162203.8713887s.1935986.6974806.5095739.875292c.3159754.1778114.7034441.1706636 1.0126464-.0186807l6.915-4.023c.4635985-.2838909.6154926-.8861308.3419864-1.3559307s-.8722177-.6350554-1.3479864-.3720693z"/><path id="Shape" d="m47.876 13.551-4.684 3.882c-.2781817.227004-.4133122.5857205-.3540443.9398437.0592678.3541231.3038358.6492913.6407724.773346.3369367.1240547.7145188.0579522.9892719-.1731897l4.683-3.882c.4082551-.3565378.4581401-.9734199.1124791-1.3909242-.3456611-.4175044-.9610152-.4836202-1.3874791-.1490758z"/><path id="Shape" d="m43.844 9.022-3.317 4.243c-.3339395.4347066-.2556699 1.0572274.1754863 1.3957385.4311562.338511 1.0544688.2668192 1.3975137-.1607385l3.32-4.246c.3402074-.43520039.2632003-1.06379256-.172-1.40399994-.4352004-.34020739-1.0637926-.2632004-1.404.17199994z"/><path id="Shape" d="m41.8 4.982c-.4620146-.30222573-1.081538-.17285992-1.384.289l-2.451 3.74c-.1964961.29867403-.2187253.67948964-.058314.9989973.1604113.3195076.4790927.5291664.836.55.3569074.0208335.6978179-.1503233.894314-.4489973l2.451-3.74c.1468211-.22214446.1989809-.49367204.1449196-.75440557-.0540614-.26073352-.2098789-.48913837-.4329196-.63459443z"/><path id="Shape" d="m38.314 1.1c-.4962355-.24205294-1.0947409-.03613484-1.337.46l-1.587 3.24c-.2431462.49568416-.0385738 1.09462904.457 1.338.1366624.06674508.2869126.10097065.439.1.3823951.00076527.7317466-.21660898.9-.56l1.585-3.238c.1173981-.23824792.1351931-.5134122.0494597-.76479671s-.2679512-.45833546-.5064597-.57520329z"/><path id="Shape" d="m54.194 23.759-5.689 2.153c-.3440716.1189887-.5962911.4155684-.6584726.7742842-.0621816.3587158.0755008.7228829.3594492.9507357s.6692928.2833856 1.0060234.1449801l5.688-2.153c.3440716-.1189887.5962911-.4155684.6584726-.7742842.0621816-.3587158-.0755008-.7228829-.3594492-.9507357s-.6692928-.2833856-1.0060234-.1449801z"/><path id="Shape" d="m56.555 29.394-5.327.785c-.5170335.0773012-.8872735.5398012-.849524 1.0612167.0377496.5214155.4707477.9257625.993524.9277833.0491739.0001195.0982953-.003222.147-.01l5.327-.786c.5338543-.0931221.8963884-.5945324.8175118-1.1306767-.0788766-.5361442-.5704577-.9118985-1.1085118-.8473233z"/><path id="Shape" d="m52.889 35.553c.0333001.5275399.4714112.93805 1 .937h.064l4.464-.282c.3572656-.0226864.6752896-.2342484.8342754-.5549926.1589858-.3207443.1347798-.7019421-.0635-1s-.5405098-.4676938-.8977754-.4450074l-4.464.283c-.2652259.016198-.5130996.1372895-.6888996.336542-.1757999.1992525-.2650692.4602803-.2481004.725458z"/><path id="Shape" d="m60 41.032c.5522847.0168447 1.0136553-.4172153 1.0305-.9695s-.4172153-1.0136553-.9695-1.0305l-3.6-.22c-.265561-.0194474-.5277449.0690091-.7272465.245361-.1995015.1763518-.3194645.4256987-.3327535.691639-.0336117.5511534.3858558 1.0252368.937 1.059l3.6.22c.022.004.042.004.062.004z"/><path id="Shape" d="m31 51.029c-.5522847 0-1 .4477153-1 1l.014 7.971c0 .5522847.4477153 1 1 1s1-.4477153 1-1l-.014-7.973c-.001103-.5515035-.4484954-.9980011-1-.998z"/><path id="Shape" d="m35.836 51.036c-.5445134.0917421-.911607.6074638-.82 1.152l1.008 5.977c.0806021.4818022.4975022.8348566.986.835.0559976-.0001198.1118774-.0051389.167-.015.2622428-.0433417.4964409-.1893037.6508632-.4056449.1544222-.2163413.2163617-.4852598.1721368-.7473551l-1.009-5.977c-.0442594-.2619179-.1909084-.4954645-.4075925-.6491132-.216684-.1536487-.4855962-.2147728-.7474075-.1698868z"/><path id="Shape" d="m40.628 51.087c-.5116456.206331-.7595418.7880368-.554 1.3l2.007 4.979c.1526247.3784722.5199124.6262331.928.626.1282225.0001661.2552514-.0246283.374-.073.5116456-.206331.7595418-.7880368.554-1.3l-2.007-4.978c-.0990766-.2462135-.2919648-.4429431-.5361768-.5468552-.2442121-.103912-.5197149-.1064823-.7658232-.0071448z"/><path id="Shape" d="m45.552 51.114c-.2370086.1191755-.4169504.3276426-.5002216.5795191s-.0630469.5265191.0562216.7634809l2.006 3.983c.2485281.4934664.8500336.6920281 1.3435.4435s.6920281-.8500336.4435-1.3435l-2.001-3.982c-.1191614-.2383198-.3285055-.4192293-.5815813-.5025866-.2530757-.0833573-.5289533-.0622686-.7664187.0585866z"/><path id="Shape" d="m50.444 51.169c-.2201581.1479677-.3725059.3773454-.4235179.6376564-.0510119.2603111.0034921.5302245.1515179.7503436l2 2.986c.1940501.3082264.5403372.4865722.9039542.465557s.6870523-.2380675.8443011-.5665972.1234399-.7165748-.0882553-1.0129598l-2-2.986c-.1476546-.2204821-.3768874-.3732375-.6372202-.4246289-.2603329-.0513913-.5304174.0027957-.7507798.1506289z"/><path id="Shape" d="m25.016 51.873-.992 5.98c-.0884075.544092.2801494 1.0571196.824 1.147.0541301.0096221.1090222.014308.164.014.4889337.0009162.9068377-.3518489.988-.834l.991-5.98c.0714806-.3580096-.0578167-.7265218-.3373149-.9613859-.2794981-.2348641-.6647739-.2987511-1.0051194-.1666704s-.5816665.4391364-.6295657.8010563z"/><path id="Shape" d="m20.073 51.672-1.993 4.985c-.1325456.3318997-.0779563.7093.1432045.9900376.2211609.2807377.5752937.4221621.9290001.371.3537064-.051162.6532499-.2871379.7857954-.6190376l1.993-4.984c.2051738-.5130725-.0444275-1.0953262-.5575-1.3005-.5130725-.2051737-1.0953262.0444275-1.3005.5575z"/><path id="Shape" d="m15.107 51.6-1.994 3.988c-.1630317.319984-.1419628.7028178.055198 1.0029789.1971608.3001612.5401342.471552.8985495.4490237.3584154-.0225284.6772285-.2355161.8352525-.5580026l1.998-3.982c.1630317-.319984.1419628-.7028178-.055198-1.0029789-.1971608-.3001612-.5401342-.471552-.8985495-.4490237-.3584154.0225284-.6772285.2355161-.8352525.5580026z"/><path id="Shape" d="m10.17 51.5-2 2.993c-.30651801.4595009-.18250087 1.0804819.27700002 1.387.4595009.306518 1.08048193.1825009 1.38699998-.277l2-2.992c.198461-.297245.2232683-.6777884.0650771-.9982831-.1581912-.3204948-.4753478-.5322502-.832-.5555s-.6986161.1455381-.8970771.4427831z"/></g></g></g></svg>