<svg height="512pt" viewBox="-17 0 512 512.00551" width="512pt" xmlns="http://www.w3.org/2000/svg"><path d="m358.230469 53.679688s18.09375-27.390626 28.929687-29.183594c.496094-.070313 1 .085937 1.367188.425781 9.300781 8.703125 12.117187 28.332031 5.972656 48.898437-1.613281 5.265626-3.757812 10.355469-6.402344 15.1875l-34.667968 9.132813zm0 0" fill="#ffb301"/><path d="m354.136719 80.476562c.921875-1.015624 1.566406-2.25 1.875-3.585937 1.996093-7.566406 2.746093-15.40625 2.21875-23.210937v-.085938c.015625-.539062-.011719-1.082031-.082031-1.621094-1.707032-21.332031-11.523438-38.65625-23.382813-43.347656-.457031-.164062-.960937-.097656-1.367187.167969-11.007813 6.488281-17.917969 25.175781-16.125 46.507812.535156 8.09375 2.46875 16.035157 5.714843 23.46875zm0 0" fill="#fec108"/><path d="m418.136719 238.9375v25.601562c-.023438 12.15625-8.59375 22.617188-20.503907 25.039063-11.914062 2.417969-23.882812-3.871094-28.648437-15.054687-.324219-.847657-1.140625-1.410157-2.046875-1.410157-.910156 0-1.722656.5625-2.050781 1.410157-4.019531 9.441406-13.289063 15.566406-23.550781 15.566406-10.261719 0-19.53125-6.125-23.550782-15.566406-.324218-.847657-1.140625-1.410157-2.050781-1.410157-.90625 0-1.722656.5625-2.046875 1.410157-4.019531 9.441406-13.289062 15.566406-23.550781 15.566406s-19.53125-6.125-23.550781-15.566406c-.328126-.847657-1.140626-1.410157-2.050782-1.410157-.90625 0-1.722656.5625-2.046875 1.410157-4.023437 9.441406-13.292969 15.566406-23.550781 15.566406-10.261719 0-19.53125-6.125-23.554688-15.566406-.324218-.847657-1.136718-1.410157-2.046874-1.410157-.910157 0-1.722657.5625-2.046876 1.410157-4.023437 9.441406-13.292968 15.566406-23.554687 15.566406-10.257813 0-19.527344-6.125-23.550781-15.566406-.324219-.847657-1.140625-1.410157-2.046875-1.410157-.910157 0-1.722657.5625-2.046875 1.410157-4.023438 9.441406-13.292969 15.566406-23.554688 15.566406-10.261718 0-19.53125-6.125-23.550781-15.566406-.324219-.847657-1.140625-1.410157-2.046875-1.410157-.910156 0-1.722656.5625-2.050781 1.410157-4.761719 11.183593-16.734375 17.472656-28.648438 15.054687-11.910156-2.421875-20.480469-12.882813-20.503906-25.039063v-1.109374c.039063-6.679688 2.785156-13.054688 7.609375-17.671876 4.824219-4.617187 11.320312-7.078124 17.992188-6.820312h230.398437c10.285156.027344 19.574219-6.132812 23.554687-15.613281.324219-.851563 1.136719-1.410157 2.046876-1.410157.910156 0 1.722656.558594 2.046874 1.410157 4.023438 9.4375 13.292969 15.566406 23.554688 15.566406 10.257812 0 19.527344-6.128906 23.550781-15.566406.324219-.851563 1.140625-1.410157 2.046875-1.410157.910156 0 1.722656.558594 2.050782 1.410157 3.976562 9.480469 13.265624 15.640625 23.550781 15.613281zm0 0" fill="#e91e63"/><path d="m418.136719 264.539062v51.199219c-.023438 12.15625-8.59375 22.621094-20.503907 25.039063-11.914062 2.417968-23.882812-3.871094-28.648437-15.054688-.324219-.847656-1.140625-1.410156-2.046875-1.410156-.910156 0-1.722656.5625-2.050781 1.410156-4.019531 9.441406-13.289063 15.566406-23.550781 15.566406-10.261719 0-19.53125-6.125-23.550782-15.566406-.324218-.847656-1.140625-1.410156-2.050781-1.410156-.90625 0-1.722656.5625-2.046875 1.410156-4.019531 9.441406-13.289062 15.566406-23.550781 15.566406s-19.53125-6.125-23.550781-15.566406c-.328126-.847656-1.140626-1.410156-2.050782-1.410156-.90625 0-1.722656.5625-2.046875 1.410156-4.023437 9.441406-13.292969 15.566406-23.550781 15.566406-10.261719 0-19.53125-6.125-23.554688-15.566406-.324218-.847656-1.136718-1.410156-2.046874-1.410156-.910157 0-1.722657.5625-2.046876 1.410156-4.023437 9.441406-13.292968 15.566406-23.554687 15.566406-10.257813 0-19.527344-6.125-23.550781-15.566406-.324219-.847656-1.140625-1.410156-2.046875-1.410156-.910157 0-1.722657.5625-2.046875 1.410156-4.023438 9.441406-13.292969 15.566406-23.554688 15.566406-10.261718 0-19.53125-6.125-23.550781-15.566406-.324219-.847656-1.140625-1.410156-2.046875-1.410156-.910156 0-1.722656.5625-2.050781 1.410156-4.761719 11.183594-16.734375 17.472656-28.648438 15.054688-11.910156-2.417969-20.480469-12.882813-20.503906-25.039063v-51.199219c.023437 12.15625 8.59375 22.617188 20.503906 25.039063 11.914063 2.417969 23.886719-3.871094 28.648438-15.054687.328125-.847657 1.140625-1.410157 2.050781-1.410157.90625 0 1.722656.5625 2.046875 1.410157 4.019531 9.441406 13.289063 15.566406 23.550781 15.566406 10.261719 0 19.53125-6.125 23.554688-15.566406.324218-.847657 1.136718-1.410157 2.046875-1.410157.90625 0 1.722656.5625 2.046875 1.410157 4.023437 9.441406 13.292968 15.566406 23.550781 15.566406 10.261719 0 19.53125-6.125 23.554687-15.566406.324219-.847657 1.136719-1.410157 2.046876-1.410157.910156 0 1.722656.5625 2.046874 1.410157 4.023438 9.441406 13.292969 15.566406 23.554688 15.566406 10.257812 0 19.527344-6.125 23.550781-15.566406.324219-.847657 1.140625-1.410157 2.046875-1.410157.910156 0 1.722656.5625 2.050782 1.410157 4.019531 9.441406 13.289062 15.566406 23.550781 15.566406s19.53125-6.125 23.550781-15.566406c.324219-.847657 1.140625-1.410157 2.046875-1.410157.910156 0 1.726563.5625 2.050781 1.410157 4.019532 9.441406 13.289063 15.566406 23.550782 15.566406 10.261718 0 19.53125-6.125 23.550781-15.566406.328125-.847657 1.140625-1.410157 2.050781-1.410157.90625 0 1.722656.5625 2.046875 1.410157 4.765625 11.183593 16.734375 17.472656 28.648437 15.054687 11.910157-2.421875 20.480469-12.882813 20.503907-25.039063zm0 0" fill="#02a9f4"/><path d="m418.136719 315.738281v51.199219c.011719 10.101562-5.914063 19.269531-15.132813 23.398438-9.21875 4.128906-20.003906 2.453124-27.535156-4.28125-2.828125-2.511719-5.046875-5.632813-6.484375-9.132813-.324219-.847656-1.140625-1.40625-2.046875-1.40625-.910156 0-1.722656.558594-2.050781 1.40625-4.019531 9.441406-13.289063 15.566406-23.550781 15.566406-10.261719 0-19.53125-6.125-23.550782-15.566406-.324218-.847656-1.140625-1.40625-2.050781-1.40625-.90625 0-1.722656.558594-2.046875 1.40625-1.4375 3.5-3.65625 6.621094-6.484375 9.132813-4.703125 4.179687-10.773437 6.488281-17.066406 6.484374-10.289063.046876-19.59375-6.117187-23.550781-15.617187-.328126-.847656-1.140626-1.40625-2.050782-1.40625-.90625 0-1.722656.558594-2.046875 1.40625-4.023437 9.441406-13.292969 15.566406-23.550781 15.566406-10.261719 0-19.53125-6.125-23.554688-15.566406-.324218-.847656-1.136718-1.40625-2.046874-1.40625-.910157 0-1.722657.558594-2.046876 1.40625-3.21875 7.605469-9.90625 13.195313-17.964843 15.003906-8.054688 1.8125-16.492188-.375-22.65625-5.871093-2.828125-2.511719-5.046875-5.632813-6.484375-9.132813-.324219-.847656-1.140625-1.40625-2.046875-1.40625-.910157 0-1.722657.558594-2.046875 1.40625-4.023438 9.441406-13.292969 15.566406-23.554688 15.566406-10.261718 0-19.53125-6.125-23.550781-15.566406-.324219-.847656-1.140625-1.40625-2.046875-1.40625-.910156 0-1.722656.558594-2.050781 1.40625-1.4375 3.5-3.65625 6.621094-6.484375 9.132813-7.527344 6.734374-18.3125 8.410156-27.53125 4.28125-9.21875-4.128907-15.148438-13.296876-15.136719-23.398438v-51.199219c.023437 12.15625 8.59375 22.621094 20.503906 25.039063 11.914063 2.417968 23.886719-3.871094 28.648438-15.054688.328125-.847656 1.140625-1.410156 2.050781-1.410156.90625 0 1.722656.5625 2.046875 1.410156 4.019531 9.441406 13.289063 15.566406 23.550781 15.566406 10.261719 0 19.53125-6.125 23.554688-15.566406.324218-.847656 1.136718-1.410156 2.046875-1.410156.90625 0 1.722656.5625 2.046875 1.410156 4.023437 9.441406 13.292968 15.566406 23.550781 15.566406 10.261719 0 19.53125-6.125 23.554687-15.566406.324219-.847656 1.136719-1.410156 2.046876-1.410156.910156 0 1.722656.5625 2.046874 1.410156 4.023438 9.441406 13.292969 15.566406 23.554688 15.566406 10.257812 0 19.527344-6.125 23.550781-15.566406.324219-.847656 1.140625-1.410156 2.046875-1.410156.910156 0 1.722656.5625 2.050782 1.410156 4.019531 9.441406 13.289062 15.566406 23.550781 15.566406s19.53125-6.125 23.550781-15.566406c.324219-.847656 1.140625-1.410156 2.046875-1.410156.910156 0 1.726563.5625 2.050781 1.410156 4.019532 9.441406 13.289063 15.566406 23.550782 15.566406 10.261718 0 19.53125-6.125 23.550781-15.566406.328125-.847656 1.140625-1.410156 2.050781-1.410156.90625 0 1.722656.5625 2.046875 1.410156 4.765625 11.183594 16.734375 17.472656 28.648437 15.054688 11.910157-2.417969 20.480469-12.882813 20.503907-25.039063zm0 0" fill="#e91e63"/><path d="m349.871094 391.089844v27.050781c0 9.425781-7.644532 17.066406-17.066406 17.066406-1.445313.015625-2.882813-.1875-4.269532-.597656-1.382812.410156-2.820312.613281-4.265625.597656-9.425781 0-17.066406-7.640625-17.066406-17.066406v-32.085937c2.828125-2.511719 5.046875-5.632813 6.484375-9.132813.324219-.847656 1.140625-1.40625 2.046875-1.40625.910156 0 1.726563.558594 2.050781 1.40625 2.101563 5.144531 5.894532 9.417969 10.75 12.117187 3.859375 2.335938 8.292969 3.546876 12.800782 3.5 2.90625.003907 5.792968-.488281 8.535156-1.449218zm0 0" fill="#02a9f4"/><path d="m375.46875 386.054688v32.085937c-.027344 9.414063-7.652344 17.035156-17.066406 17.066406-4.90625.011719-9.574219-2.105469-12.800782-5.804687 2.757813-3.101563 4.277344-7.113282 4.269532-11.261719v-27.050781c6.785156-2.382813 12.246094-7.53125 15.015625-14.167969.328125-.847656 1.140625-1.40625 2.050781-1.40625.90625 0 1.722656.558594 2.046875 1.40625 1.4375 3.5 3.65625 6.621094 6.484375 9.132813zm0 0" fill="#0377bc"/><path d="m375.46875 418.140625v51.199219h-68.265625v-51.199219c0 9.425781 7.640625 17.066406 17.066406 17.066406 1.445313.015625 2.882813-.1875 4.265625-.597656 4.699219-1.191406 8.671875-4.324219 10.921875-8.621094.332031-.738281 1.066407-1.214843 1.878907-1.214843s1.546874.476562 1.878906 1.214843c.667968 1.222657 1.46875 2.367188 2.386718 3.414063 4.691407 5.320312 12.1875 7.183594 18.824219 4.679687 6.636719-2.503906 11.035157-8.851562 11.042969-15.941406zm0 0" fill="#ad1457"/><path d="m375.46875 469.339844v17.066406c-.027344 9.414062-7.652344 17.039062-17.066406 17.066406h-34.132813c-9.414062-.027344-17.039062-7.652344-17.066406-17.066406v-17.066406zm0 0" fill="#ffb301"/><path d="m170.667969 469.339844v17.066406c-.027344 9.414062-7.652344 17.039062-17.066407 17.066406h-34.132812c-9.414062-.027344-17.039062-7.652344-17.066406-17.066406v-17.066406zm0 0" fill="#ffb301"/><path d="m349.871094 469.339844v17.066406c-.03125 9.414062-7.65625 17.039062-17.066406 17.066406h-8.535157c-9.414062-.027344-17.039062-7.652344-17.066406-17.066406v-17.066406zm0 0" fill="#fec108"/><path d="m145.070312 469.339844v17.066406c-.027343 9.414062-7.652343 17.039062-17.066406 17.066406h-8.535156c-9.414062-.027344-17.039062-7.652344-17.066406-17.066406v-17.066406zm0 0" fill="#fec108"/><path d="m170.667969 418.140625v51.199219h-68.265625v-51.199219c0 9.425781 7.640625 17.066406 17.066406 17.066406 1.445312.015625 2.882812-.1875 4.265625-.597656 4.703125-1.191406 8.671875-4.324219 10.925781-8.621094.328125-.738281 1.066406-1.214843 1.875-1.214843.8125 0 1.546875.476562 1.878906 1.214843.667969 1.222657 1.46875 2.367188 2.390626 3.414063 4.691406 5.320312 12.183593 7.183594 18.820312 4.679687 6.636719-2.503906 11.035156-8.851562 11.042969-15.941406zm0 0" fill="#ad1457"/><path d="m349.871094 418.140625v51.199219h-42.667969v-36.4375c1.601563-.925782 3.042969-2.109375 4.265625-3.5.921875-1.046875 1.722656-2.191406 2.390625-3.414063.332031-.738281 1.066406-1.214843 1.875-1.214843.8125 0 1.546875.476562 1.878906 1.214843 2.25 4.296875 6.222657 7.429688 10.921875 8.621094 1.386719.410156 2.824219.613281 4.269532.597656 9.421874 0 17.066406-7.640625 17.066406-17.066406zm0 0" fill="#e91e63"/><path d="m145.070312 418.140625v51.199219h-42.667968v-36.4375c1.601562-.925782 3.042968-2.109375 4.265625-3.5.921875-1.046875 1.722656-2.191406 2.390625-3.414063.332031-.738281 1.066406-1.214843 1.878906-1.214843.808594 0 1.542969.476562 1.875 1.214843 2.253906 4.296875 6.222656 7.429688 10.921875 8.621094 1.386719.410156 2.824219.613281 4.269531.597656 9.425782 0 17.066406-7.640625 17.066406-17.066406zm0 0" fill="#e91e63"/><path d="m145.070312 391.089844v27.050781c0 9.425781-7.640624 17.066406-17.066406 17.066406-1.445312.015625-2.882812-.1875-4.269531-.597656-1.382813.410156-2.820313.613281-4.265625.597656-9.425781 0-17.066406-7.640625-17.066406-17.066406v-32.085937c2.828125-2.511719 5.046875-5.632813 6.484375-9.132813.328125-.847656 1.140625-1.40625 2.050781-1.40625.90625 0 1.722656.558594 2.046875 1.40625 2.105469 5.144531 5.894531 9.417969 10.75 12.117187 3.859375 2.335938 8.292969 3.546876 12.800781 3.5 2.90625.003907 5.792969-.488281 8.535156-1.449218zm0 0" fill="#02a9f4"/><path d="m170.667969 386.054688v32.085937c-.027344 9.414063-7.652344 17.035156-17.066407 17.066406-4.90625.011719-9.574218-2.105469-12.796874-5.804687 2.753906-3.101563 4.273437-7.113282 4.265624-11.261719v-27.050781c6.785157-2.382813 12.246094-7.53125 15.019532-14.167969.324218-.847656 1.136718-1.40625 2.046875-1.40625.90625 0 1.722656.558594 2.046875 1.40625 1.4375 3.5 3.65625 6.621094 6.484375 9.132813zm0 0" fill="#0377bc"/><path d="m418.136719 109.828125v85.335937c-10.285157.023438-19.574219-6.136718-23.550781-15.617187-.347657-.828125-1.152344-1.367187-2.050782-1.367187-.894531 0-1.703125.539062-2.046875 1.367187-2.3125 5.460937-6.445312 9.953125-11.691406 12.714844-7.433594 3.867187-16.289063 3.867187-23.722656 0-5.246094-2.761719-9.375-7.253907-11.691407-12.714844-.324218-.847656-1.136718-1.410156-2.046874-1.410156-.910157 0-1.722657.5625-2.046876 1.410156-2.316406 5.460937-6.445312 9.953125-11.691406 12.714844-3.65625 1.925781-7.730468 2.921875-11.863281 2.902343v-102.402343c.042969-5.246094 2.480469-10.191407 6.621094-13.414063 4.140625-3.226562 9.527343-4.382812 14.628906-3.140625l68.265625 17.066407c7.59375 1.894531 12.914062 8.730468 12.886719 16.554687zm0 0" fill="#ad1457"/><path d="m392.535156 110.9375v85.335938c-4.867187.007812-9.636718-1.386719-13.738281-4.011719-4.351563-2.730469-7.765625 8.789062-9.8125 4.011719-.324219-.851563-1.140625-1.410157-2.046875-1.410157-.910156 0-1.722656.558594-2.050781 1.410157-2.046875 4.777343-5.460938-6.742188-9.8125-4.011719-6.347657 4.03125-14.152344 5.070312-21.332031 2.835937-7.183594-2.238281-13.019532-7.519531-15.957032-14.441406-.328125-.851562-1.136718-1.425781-2.050781-1.449219v-86.445312c-.003906-4.964844 2.183594-9.679688 5.976563-12.882813l57.941406 14.503906c7.59375 1.894532 12.910156 8.730469 12.882812 16.554688zm0 0" fill="#e91e63"/><path d="m418.136719 195.164062v43.773438c-10.285157.027344-19.574219-6.132812-23.550781-15.613281-.328126-.851563-1.140626-1.410157-2.050782-1.410157-.90625 0-1.722656.558594-2.046875 1.410157-4.023437 9.4375-13.292969 15.566406-23.550781 15.566406-10.261719 0-19.53125-6.128906-23.554688-15.566406-.324218-.851563-1.136718-1.410157-2.046874-1.410157-.910157 0-1.722657.558594-2.046876 1.410157-3.980468 9.480469-13.269531 15.640625-23.554687 15.613281v-43.773438c10.285156.023438 19.574219-6.136718 23.554687-15.617187.324219-.847656 1.136719-1.410156 2.046876-1.410156.910156 0 1.722656.5625 2.046874 1.410156 4.023438 9.441406 13.292969 15.566406 23.554688 15.566406 10.257812 0 19.527344-6.125 23.550781-15.566406.324219-.847656 1.140625-1.410156 2.046875-1.410156.910156 0 1.722656.5625 2.050782 1.410156 3.976562 9.480469 13.265624 15.640625 23.550781 15.617187zm0 0" fill="#02a9f4"/><path d="m469.335938 158.382812v13.824219c-.03125 8.324219-6.046876 15.417969-14.25 16.8125l-36.949219 6.144531v-59.734374l36.949219 6.144531c8.203124 1.394531 14.21875 8.488281 14.25 16.808593zm0 0" fill="#ffb301"/><path d="m443.734375 158.382812v13.824219c-.03125 8.324219-6.042969 15.417969-14.25 16.8125l-11.347656 1.875v-51.199219l11.347656 1.878907c8.207031 1.394531 14.21875 8.488281 14.25 16.808593zm0 0" fill="#fec108"/><path d="m42.667969 435.207031h-17.066407c-9.425781 0-17.066406-7.640625-17.066406-17.066406v-110.933594c0-28.277343 22.925782-51.203125 51.199219-51.203125v162.136719c0 9.425781-7.640625 17.066406-17.066406 17.066406zm0 0" fill="#fec108"/><path d="m392.535156 230.40625h25.601563v59.734375h-25.601563zm0 0" fill="#ad1457"/><path d="m418.136719 230.40625h-25.601563v-59.734375l25.601563 25.601563zm0 0" fill="#0377bc"/><path d="m418.136719 332.804688-25.601563 8.535156v-59.734375l25.601563 8.535156zm0 0" fill="#0377bc"/><path d="m418.136719 375.472656-25.601563 17.066406v-59.734374h25.601563zm0 0" fill="#ad1457"/><path d="m456.476562 133.167969-29.808593-4.964844v-18.355469c.003906-11.75-7.988281-21.992187-19.386719-24.839844l-7.140625-1.785156c.851563-2.261718 1.773437-4.53125 2.558594-6.964844 6.902343-23.269531 3.585937-46.386718-8.832031-57.984374-2.253907-1.867188-5.207032-2.671876-8.097657-2.199219-9.273437 2.074219-17.546875 7.289062-23.414062 14.761719-3.605469-13.207032-12.6875-24.246094-24.953125-30.328126-2.78125-.917968-5.828125-.5781245-8.335938.929688-14.183594 8.355469-22.332031 30.296875-20.300781 54.53125.519531 7.027344 1.929687 13.960938 4.195313 20.632812-3.742188 4.570313-5.777344 10.304688-5.757813 16.210938v49.273438l-93.867187-28.910157v-104.636719c0-4.714843-3.820313-8.53515575-8.53125-8.53515575-4.714844 0-8.535157 3.82031275-8.535157 8.53515575v107.398438l-114.832031 114.835938c-10.9375 1.023437-20.675781 7.347656-26.0625 16.921874-31.191406 2.28125-55.3398438 28.234376-55.37109375 59.511719v110.933594c0 14.136719 11.46093775 25.597656 25.59765575 25.597656h17.066407c14.140625 0 25.601562-11.460937 25.601562-25.597656v-21.8125c5.164063 3.070313 11.058594 4.707031 17.066407 4.742187 2.882812-.03125 5.75-.429687 8.535156-1.183593v86.519531c0 14.136719 11.460937 25.597656 25.597656 25.597656h34.132812c14.140626 0 25.601563-11.460937 25.601563-25.597656v-86.519531c12.417969 3.394531 25.683594-.621094 34.132813-10.335938 6.492187 7.328125 15.8125 11.523438 25.601562 11.523438s19.105469-4.195313 25.597656-11.523438c8.449219 9.714844 21.714844 13.730469 34.132813 10.335938v86.519531c0 14.136719 11.464843 25.597656 25.601562 25.597656h34.132813c14.140625 0 25.601562-11.460937 25.601562-25.597656v-86.519531c10.214844 2.78125 21.148438.613281 29.527344-5.859375 8.382812-6.472656 13.246094-16.5 13.136719-27.089844v-164.539062l29.808593-4.972657c12.363282-2.023437 21.429688-12.722656 21.394532-25.25v-13.75c.03125-12.527343-9.03125-23.226562-21.394532-25.257812zm-46.875 182.570312c.019532 8.128907-5.699218 15.144531-13.667968 16.761719-7.964844 1.617188-15.96875-2.605469-19.125-10.097656-1.644532-4-5.542969-6.613282-9.871094-6.613282s-8.230469 2.613282-9.875 6.613282c-2.664062 6.328125-8.863281 10.4375-15.726562 10.4375-6.863282 0-13.0625-4.109375-15.726563-10.4375-1.644531-4-5.546875-6.613282-9.875-6.613282-4.324219 0-8.226563 2.613282-9.871094 6.613282-2.667969 6.328125-8.863281 10.4375-15.726562 10.4375s-13.0625-4.109375-15.726563-10.4375c-1.648437-4-5.546875-6.613282-9.875-6.613282s-8.226562 2.613282-9.871094 6.613282c-2.667968 6.328125-8.863281 10.4375-15.726562 10.4375-6.867188 0-13.0625-4.109375-15.726562-10.4375-1.648438-4-5.546876-6.613282-9.875-6.613282-4.328126 0-8.226563 2.613282-9.871094 6.613282-2.667969 6.328125-8.863282 10.4375-15.730469 10.4375-6.863281 0-13.058594-4.109375-15.726563-10.4375-1.644531-4-5.542968-6.613282-9.871093-6.613282s-8.226563 2.613282-9.875 6.613282c-2.664063 6.328125-8.859375 10.4375-15.726563 10.4375-6.863281 0-13.058594-4.109375-15.726562-10.4375-1.644532-4-5.542969-6.613282-9.871094-6.613282s-8.230469 2.613282-9.875 6.613282c-3.15625 7.492187-11.160156 11.714844-19.125 10.097656s-13.683594-8.632812-13.667969-16.761719v-21.8125c13.996094 8.324219 31.9375 5.472657 42.667969-6.773437 6.488281 7.328125 15.808594 11.519531 25.597656 11.519531 9.789063 0 19.109375-4.191406 25.601563-11.519531 6.492187 7.328125 15.808593 11.519531 25.597656 11.519531s19.109375-4.191406 25.601563-11.519531c6.492187 7.328125 15.8125 11.519531 25.601562 11.519531s19.105469-4.191406 25.597656-11.519531c6.492188 7.328125 15.8125 11.519531 25.601563 11.519531 9.789062 0 19.109375-4.191406 25.597656-11.519531 6.492187 7.328125 15.8125 11.519531 25.601563 11.519531 9.789062 0 19.109374-4.191406 25.601562-11.519531 10.726562 12.246094 28.667969 15.097656 42.664062 6.773437zm-85.332031-113.253906c6.59375-1.648437 12.539063-5.242187 17.066407-10.316406 6.5 7.3125 15.816406 11.496093 25.601562 11.496093 9.78125 0 19.097656-4.183593 25.597656-11.496093 4.527344 5.070312 10.472656 8.664062 17.066406 10.308593v25.515626c-3.253906-1.867188-5.800781-4.75-7.253906-8.210938-1.738281-3.867188-5.570312-6.367188-9.8125-6.398438-4.335937.058594-8.230468 2.671876-9.933594 6.664063-2.71875 6.304687-8.949218 10.363281-15.8125 10.304687-6.867187-.054687-13.027343-4.222656-15.640624-10.570312-1.738282-3.867188-5.570313-6.367188-9.8125-6.398438-4.335938.058594-8.230469 2.671876-9.933594 6.664063-1.433594 3.367187-3.941406 6.164063-7.132813 7.960937zm85.332031-92.636719v74.332032c-3.25-1.863282-5.796874-4.746094-7.253906-8.199219-1.730468-3.875-5.566406-6.378907-9.8125-6.410157-4.335937.0625-8.226562 2.667969-9.933594 6.65625-2.714843 6.304688-8.941406 10.371094-15.808593 10.316407-6.863281-.054688-13.027344-4.214844-15.644531-10.5625-1.734376-3.875-5.570313-6.378907-9.8125-6.410157-4.335938.0625-8.230469 2.667969-9.933594 6.65625-1.433594 3.371094-3.941406 6.175782-7.132813 7.972657v-91.417969c-.003906-2.628906 1.203125-5.117188 3.273438-6.734375 2.070312-1.621094 4.773437-2.199219 7.324219-1.5625l51.105468 12.800781 17.128906 4.265625c3.820313.9375 6.503907 4.363281 6.5 8.296875zm-24.574218-75.792968c5.378906 11.734374 5.855468 25.132812 1.320312 37.222656-.824218 2.640625-1.792968 5.234375-2.898437 7.773437l-18.160157-4.539062c1.265626-6.265625 1.777344-12.65625 1.519532-19.039063 3.476562-8.992187 9.898437-16.542968 18.21875-21.417968zm-50.140625-15.609376c9.28125 9.15625 14.597656 21.59375 14.804687 34.628907v1.125c.28125 5.402343-.109375 10.816406-1.171875 16.121093l-9.53125-2.382812c-3.546875-.875-7.238281-.976562-10.828125-.296875-1.230468-4.261719-2.039062-8.636719-2.40625-13.054687-1.886718-12.78125 1.402344-25.789063 9.132813-36.140626zm-27.683594 211.960938h-201.265625l101.261719-101.265625 100.003906 30.761719zm-221.867187 17.066406h230.398437c9.789063.015625 19.109375-4.171875 25.601563-11.496094 6.5 7.3125 15.816406 11.496094 25.601562 11.496094 9.78125 0 19.097656-4.183594 25.597656-11.496094 4.527344 5.070313 10.472656 8.664063 17.066406 10.308594v18.253906c.019532 8.128907-5.699218 15.140626-13.667968 16.761719-7.964844 1.617188-15.96875-2.605469-19.125-10.097656-1.644532-4.003906-5.542969-6.613281-9.871094-6.613281s-8.230469 2.609375-9.875 6.613281c-2.664062 6.324219-8.863281 10.4375-15.726562 10.4375-6.863282 0-13.0625-4.113281-15.726563-10.4375-1.644531-4.003906-5.546875-6.613281-9.875-6.613281-4.324219 0-8.226563 2.609375-9.871094 6.613281-2.667969 6.324219-8.863281 10.4375-15.726562 10.4375s-13.0625-4.113281-15.726563-10.4375c-1.648437-4.003906-5.546875-6.613281-9.875-6.613281s-8.226562 2.609375-9.871094 6.613281c-2.667968 6.324219-8.863281 10.4375-15.726562 10.4375-6.867188 0-13.0625-4.113281-15.726562-10.4375-1.648438-4.003906-5.546876-6.613281-9.875-6.613281-4.328126 0-8.226563 2.609375-9.871094 6.613281-2.667969 6.324219-8.863282 10.4375-15.730469 10.4375-6.863281 0-13.058594-4.113281-15.726563-10.4375-1.644531-4.003906-5.542968-6.613281-9.871093-6.613281s-8.226563 2.609375-9.875 6.613281c-2.664063 6.324219-8.859375 10.4375-15.726563 10.4375-6.863281 0-13.058594-4.113281-15.726562-10.4375-1.644532-4.003906-5.542969-6.613281-9.871094-6.613281s-8.230469 2.609375-9.875 6.613281c-3.15625 7.492187-11.160156 11.714844-19.125 10.097656-7.964844-1.621093-13.683594-8.632812-13.667969-16.761719v-1.101562c.0625-4.410156 1.914063-8.601562 5.136719-11.613281 3.21875-3.011719 7.527344-4.585938 11.929688-4.351563zm-34.132813 170.667969c0 4.710937-3.820313 8.53125-8.535156 8.53125h-17.066407c-4.710937 0-8.53125-3.820313-8.53125-8.53125v-110.933594c.019532-20.269531 14.277344-37.734375 34.132813-41.816406zm110.933594 42.664063h-51.199219v-18.636719c8.789062 3.269531 18.664062 1.355469 25.597656-4.957031 6.933594 6.3125 16.8125 8.226562 25.601563 4.957031zm-8.535157 34.132812h-34.132812c-4.710938 0-8.53125-3.820312-8.53125-8.53125v-8.535156h51.199219v8.535156c0 4.710938-3.820313 8.53125-8.535157 8.53125zm8.535157-76.796875c-.011719 3.933594-2.710938 7.347656-6.535157 8.269531-3.824218.921875-7.785156-.890625-9.585937-4.386718-1.8125-3.570313-5.476563-5.820313-9.480469-5.820313s-7.667968 2.25-9.480468 5.820313c-1.800782 3.496093-5.757813 5.308593-9.582032 4.386718-3.824218-.921875-6.523437-4.335937-6.535156-8.269531v-28.589844c6.488281 7.328125 15.808594 11.523438 25.597656 11.523438 9.789063 0 19.109375-4.195313 25.601563-11.523438zm204.800781 42.664063h-51.203125v-18.636719c8.789063 3.269531 18.667969 1.355469 25.601563-4.957031 6.933593 6.3125 16.8125 8.226562 25.601562 4.957031zm-8.535156 34.132812h-34.132813c-4.714843 0-8.535156-3.820312-8.535156-8.53125v-8.535156h51.203125v8.535156c0 4.710938-3.820312 8.53125-8.535156 8.53125zm8.535156-76.796875c-.011719 3.933594-2.710938 7.347656-6.535156 8.269531-3.824219.921875-7.785156-.890625-9.585938-4.386718-1.8125-3.570313-5.476562-5.820313-9.480468-5.820313-4.003907 0-7.667969 2.25-9.480469 5.820313-1.800781 3.496093-5.761719 5.308593-9.585938 4.386718s-6.523437-4.335937-6.535156-8.269531v-28.589844c6.492187 7.328125 15.8125 11.523438 25.601563 11.523438 9.789062 0 19.109374-4.195313 25.601562-11.523438zm25.597656-34.136719c-6.855468.007813-13.046875-4.089844-15.726562-10.402344-1.644532-4-5.542969-6.613281-9.871094-6.613281s-8.230469 2.613281-9.875 6.613281c-2.664062 6.328126-8.863281 10.441407-15.726562 10.441407-6.863282 0-13.0625-4.113281-15.726563-10.441407-1.644531-4-5.546875-6.613281-9.875-6.613281-4.324219 0-8.226563 2.613281-9.871094 6.613281-2.667969 6.328126-8.863281 10.441407-15.726562 10.441407s-13.0625-4.113281-15.726563-10.441407c-1.648437-4-5.546875-6.613281-9.875-6.613281s-8.226562 2.613281-9.871094 6.613281c-2.667968 6.328126-8.863281 10.441407-15.726562 10.441407-6.867188 0-13.0625-4.113281-15.726562-10.441407-1.648438-4-5.546876-6.613281-9.875-6.613281-4.328126 0-8.226563 2.613281-9.871094 6.613281-2.667969 6.328126-8.863282 10.441407-15.730469 10.441407-6.863281 0-13.058594-4.113281-15.726563-10.441407-1.644531-4-5.542968-6.613281-9.871093-6.613281s-8.226563 2.613281-9.875 6.613281c-2.664063 6.328126-8.859375 10.441407-15.726563 10.441407-6.863281 0-13.058594-4.113281-15.726562-10.441407-1.644532-4-5.542969-6.613281-9.871094-6.613281s-8.230469 2.613281-9.875 6.613281c-3.15625 7.492188-11.160156 11.71875-19.125 10.097657-7.964844-1.617188-13.683594-8.632813-13.667969-16.761719v-21.808594c13.996094 8.320313 31.9375 5.472656 42.667969-6.777344 6.488281 7.328126 15.808594 11.523438 25.597656 11.523438 9.789063 0 19.109375-4.195312 25.601563-11.523438 6.492187 7.328126 15.808593 11.523438 25.597656 11.523438s19.109375-4.195312 25.601563-11.523438c6.492187 7.328126 15.8125 11.523438 25.601562 11.523438s19.105469-4.195312 25.597656-11.523438c6.492188 7.328126 15.8125 11.523438 25.601563 11.523438 9.789062 0 19.109375-4.195312 25.597656-11.523438 6.492187 7.328126 15.8125 11.523438 25.601563 11.523438 9.789062 0 19.109374-4.195312 25.601562-11.523438 10.726562 12.25 28.667969 15.097657 42.664062 6.777344v21.808594c0 9.425781-7.640624 17.066406-17.066406 17.066406zm68.269532-211.828125c0 4.171875-3.019532 7.734375-7.136719 8.421875l-27 4.496094v-39.585938l27 4.496094c4.117187.683594 7.136719 4.25 7.136719 8.421875zm0 0"/><path d="m366.9375 118.371094c-14.140625 0-25.601562 11.460937-25.601562 25.601562 0 4.710938 3.820312 8.53125 8.535156 8.53125 4.710937 0 8.53125-3.820312 8.53125-8.53125 0-4.714844 3.820312-8.535156 8.535156-8.535156 4.710938 0 8.53125 3.820312 8.53125 8.535156 0 4.710938 3.820312 8.53125 8.535156 8.53125 4.710938 0 8.53125-3.820312 8.53125-8.53125 0-14.140625-11.460937-25.601562-25.597656-25.601562zm0 0"/></svg>