<svg enable-background="new 0 0 256 256" height="512" viewBox="0 0 256 256" width="512" xmlns="http://www.w3.org/2000/svg"><path d="m188.083 78.169c-3.057-16.318-8.78-23.704-11.055-26.091-.419-.439-.157-1.161.444-1.246.904-.128 1.756-.103 2.457-.027.645.071 1.045-.679.656-1.198-8.989-11.982-18.837-16.543-22.183-17.823-.537-.206-.652-.931-.19-1.275 1.304-.971 2.686-1.462 3.75-1.711.636-.149.763-1 .215-1.355-6.979-4.518-13.634-6.515-19.187-7.261-1.842-.248-2.82-.43-1.872-2.029.28-.473.575-.928.882-1.346.24-.327.051-.786-.348-.856-2.254-.395-8.197-2.969-10.702.168-.25.313-.722.289-.915-.063-3.336-6.07-16.456-1.901-20.382-1.35-.447.063-.627.606-.308.925 2.115 2.107 3.921 2.158 5.142 4.377-5.83.58-13.054 2.511-20.662 7.435-.548.355-.421 1.206.215 1.355 1.065.249 2.446.74 3.75 1.711.462.344.348 1.069-.19 1.275-3.346 1.28-13.194 5.841-22.183 17.823-.389.519.011 1.268.656 1.198.7-.077 1.553-.101 2.457.027.601.085.862.807.444 1.246-2.275 2.387-7.998 9.774-11.055 26.091-.102.544.406 1.009.936.85 1.836-.548 5.717-1.331 10.745-.249.427.092.678.539.538.953-.777 2.295-2.87 9.501-1.874 18.095.076.657.91.908 1.321.39 1.088-1.374 2.98-3.392 5.503-4.67.463-.235 1.02.057 1.083.573.4 3.308 2.206 14.083 9.403 23.357.353.455 1.072.342 1.278-.196.425-1.112 1.204-2.792 2.475-4.357.363-.447 1.078-.319 1.27.223 1.593 4.49 8.32 20.419 25.567 27.328 1.178.472 2.5.472 3.679 0 17.247-6.909 23.974-22.838 25.567-27.328.192-.542.908-.67 1.27-.223 1.271 1.565 2.05 3.245 2.475 4.357.206.538.925.651 1.278.196 7.197-9.274 9.002-20.05 9.403-23.357.062-.516.619-.808 1.083-.573 2.522 1.279 4.414 3.297 5.503 4.67.411.518 1.245.268 1.321-.39.996-8.594-1.096-15.8-1.873-18.095-.14-.414.11-.861.538-.953 5.028-1.082 8.909-.299 10.745.249.524.159 1.032-.306.93-.85z" fill="#52565b"/><path d="m136.936 71.421c-4.495-7.705-2.864-13.66-1.369-16.673v-.924c0-4.045-3.279-7.324-7.324-7.324s-7.324 3.279-7.324 7.324v.925c1.486 3.033 3.062 8.958-1.401 16.608-6.693 11.474-22.38 24.574-1.112 39.113 4.167 2.849 9.82-.069 9.82-5.116v-.951.064.951c0 5.047 5.654 7.965 9.82 5.116 21.27-14.54 5.583-27.639-1.11-39.113z" fill="#e3e4e5"/><path d="m137.289 97.237c0 2.791-4.762 6.738-9.289 6.738s-9.289-3.947-9.289-6.738 4.762-3.006 9.289-3.006 9.289.215 9.289 3.006z" fill="#52565b"/><path d="m128.227 107.374v-.064c0 5.579-5.995 5.808-10.562 2.634 1.573 7.25 5.594 12.422 10.328 12.422 4.638 0 8.595-4.966 10.232-11.987-4.48 2.776-9.998 2.347-9.998-3.005z" fill="#fd605b"/><path d="m170.576 237.566c-2.922-1.378-5.034-4.044-5.633-7.219-3.186-16.901-.811-33.466 6.402-60.514 5.61-21.039 3.415-37.189 1.559-45.076-1.6-.216-3.673-.239-6.087.348-.343.083-.544.489-.431.864.623 2.08 2.301 8.61 1.503 16.397-.061.595-.73.823-1.059.353-.873-1.245-2.39-3.073-4.413-4.232-.372-.213-.818.052-.868.519-.321 2.997-1.769 12.762-7.541 21.165-.283.412-.86.31-1.025-.178-.341-1.007-.966-2.53-1.985-3.948-.291-.405-.864-.289-1.019.202-1.277 4.068-6.672 18.503-20.504 24.763-.945.428-2.005.428-2.95 0-13.832-6.26-19.227-20.695-20.504-24.763-.154-.491-.728-.607-1.019-.202-1.019 1.418-1.644 2.94-1.985 3.948-.165.488-.742.59-1.025.178-5.772-8.404-7.22-18.168-7.541-21.165-.05-.467-.497-.732-.868-.519-2.023 1.159-3.54 2.987-4.413 4.232-.33.47-.998.242-1.059-.353-.799-7.788.879-14.318 1.503-16.397.112-.375-.088-.781-.431-.864-2.413-.587-4.487-.564-6.087-.348-1.856 7.886-4.052 24.037 1.559 45.076 7.213 27.049 9.587 43.613 6.402 60.514-.598 3.174-2.711 5.841-5.633 7.219-3.307 1.56-7.084 5.105-5.527 13.097.324 1.661 1.819 2.837 3.511 2.837h19.902c3.615 0 6.546-2.931 6.546-6.546v-11.599s7.056 4.032 18.145 4.032 18.145-4.032 18.145-4.032v11.599c0 3.615 2.931 6.546 6.546 6.546h19.902c1.693 0 3.188-1.175 3.511-2.837 1.556-7.992-2.221-11.537-5.529-13.097z" fill="#52565b"/><path d="m128 239.387c11.088 0 18.145-4.032 18.145-4.032l-1.512-27.217s4.032-13.104 4.032-23.185l-.109-24.863c-2.542 6.016-8.199 15.997-19.08 20.922-.945.428-2.005.428-2.95 0-11.042-4.998-16.704-15.2-19.19-21.184v25.125c0 10.08 4.032 23.185 4.032 23.185l-1.512 27.217c-.001 0 7.056 4.032 18.144 4.032z" fill="#e3e4e5"/><path d="m162.582 27.444c.549.355.421 1.206-.215 1.355-1.064.249-2.446.74-3.75 1.711-.462.344-.348 1.069.19 1.275 2.563.981 8.944 3.902 15.83 10.594 5.777-13.823 6.152-27.795 1.742-37.026-.959-2.007-3.375-3.207-5.573-2.759-8.304 1.692-17.075 8.331-23.826 18.228 4.738 1.045 10.067 3.039 15.602 6.622z" fill="#e3e4e5"/><path d="m98.005 31.784c.538-.206.652-.931.19-1.275-1.304-.971-2.686-1.462-3.75-1.711-.636-.149-.764-1-.215-1.355 5.157-3.338 10.136-5.298 14.626-6.397-6.729-9.761-15.426-16.303-23.662-17.981-2.198-.448-4.614.752-5.573 2.759-4.435 9.283-4.029 23.36 1.843 37.261 7.154-7.195 13.89-10.286 16.541-11.301z" fill="#e3e4e5"/><g fill="#52565b"><path d="m88.015 13.937h-3.769s7.374 6.034 8.552 20.361c2.268-1.295 4.1-2.09 5.208-2.515.538-.206.652-.931.19-1.275-1.304-.971-2.686-1.462-3.75-1.711-.636-.149-.764-1-.215-1.355 5.159-3.339 10.14-5.299 14.631-6.398-6.728-9.765-15.43-16.303-23.666-17.981-2.198-.448-4.614.752-5.573 2.759-.012.025-.022.053-.034.078 2.169.784 5.296 2.822 8.426 8.037z"/><path d="m162.582 27.444c.549.355.421 1.206-.215 1.355-1.064.249-2.446.74-3.75 1.711-.462.344-.348 1.069.19 1.275.972.372 2.505 1.033 4.394 2.06 1.174-14.34 8.554-20.378 8.554-20.378h-3.769c3.129-5.215 6.256-7.253 8.427-8.035-.012-.025-.022-.053-.034-.078-.959-2.007-3.375-3.207-5.573-2.759-8.305 1.692-17.082 8.326-23.833 18.226 4.74 1.044 10.071 3.038 15.609 6.623z"/><path d="m183.82 228.446c-.879-.879-1.474-1.881-1.874-2.869-.898-2.219-.85-4.701-.072-6.965 2.067-6.018 7.735-24.852 2.474-37.128-3.493-8.151-9.554-8.268-14.288-6.738-6.2 24.191-8.104 39.748-5.116 55.601.598 3.174 2.711 5.841 5.633 7.219 2.127 1.003 4.441 2.836 5.412 6.136 6.12 1.88 22.078 3.118 22.078-6.286 0-9.497-11.081-5.804-14.247-8.97z"/><path d="m85.424 237.566c2.922-1.378 5.034-4.044 5.633-7.219 2.988-15.853 1.084-31.41-5.116-55.601-4.734-1.53-10.794-1.413-14.288 6.738-5.261 12.276.407 31.11 2.474 37.128.777 2.264.826 4.746-.072 6.965-.4.988-.994 1.99-1.874 2.869-3.166 3.166-14.247-.528-14.247 8.97 0 9.404 15.958 8.166 22.078 6.286.971-3.3 3.285-5.133 5.412-6.136z"/></g><path d="m160.429 117.469c-.353.455-1.072.342-1.278-.196-.425-1.112-1.204-2.792-2.475-4.357-.363-.447-1.078-.319-1.27.223-1.593 4.49-8.32 20.419-25.567 27.328-1.178.472-2.5.472-3.679 0-17.247-6.909-23.974-22.838-25.567-27.328-.192-.542-.908-.67-1.27-.223-1.271 1.565-2.05 3.245-2.475 4.357-.206.538-.925.651-1.278.196-4.045-5.212-6.386-10.898-7.733-15.467-2.141 2.959-5.891 9.693-8.024 22.558-.082.493.325.914.751.77 1.472-.497 4.585-1.206 8.617-.226.343.083.544.489.431.864-.623 2.08-2.301 8.61-1.503 16.397.061.595.73.823 1.059.353.873-1.245 2.39-3.073 4.413-4.232.372-.213.818.052.868.519.321 2.997 1.769 12.762 7.541 21.165.283.412.86.31 1.025-.178.341-1.007.966-2.53 1.985-3.948.291-.405.864-.289 1.019.202 1.277 4.068 6.672 18.503 20.504 24.763.945.428 2.005.428 2.95 0 13.832-6.26 19.227-20.695 20.504-24.763.154-.491.728-.607 1.019-.202 1.019 1.418 1.644 2.94 1.985 3.948.165.488.742.59 1.025.178 5.772-8.404 7.22-18.168 7.541-21.165.05-.467.497-.732.868-.519 2.023 1.159 3.54 2.987 4.413 4.232.33.47.998.242 1.059-.353.799-7.788-.879-14.318-1.503-16.397-.112-.375.088-.781.431-.864 4.032-.981 7.145-.271 8.617.226.425.144.833-.277.751-.77-2.133-12.865-5.883-19.6-8.024-22.558-1.344 4.569-3.685 10.255-7.73 15.467z" fill="#e3e4e5"/><path d="m222.377 211.991c-8.336-7.731-10.328-18.811-10.764-22.355-.074-.605.396-1.136 1.005-1.136h.573c.68 0 1.155-.654.97-1.308-3.46-12.214-13.266-16.704-17.58-18.121-.798-.262-.935-1.335-.236-1.801l2.695-1.797c.659-.439.577-1.429-.14-1.767-9.978-4.707-18.769-4.364-25.659-2.344-.5 2.727-1.116 5.546-1.896 8.471l-1.286 4.913c4.734-1.53 10.794-1.413 14.288 6.738 1.787 4.171 2.311 9.098 2.146 14.023 2.825 1.455 6.168 3.936 8.927 8.181.459.706 1.519.602 1.807-.19l.977-2.686c.272-.749 1.261-.9 1.747-.269 6.42 8.344 16.075 11.81 21.492 13.163 1.007.252 1.695-1.01.934-1.715z" fill="#e3e4e5"/><path d="m128 143.324c-.938 0-1.875-.179-2.768-.536-15.154-6.071-22.607-18.668-25.669-25.522-.15.327-.275.631-.378.899-.418 1.094-1.397 1.88-2.556 2.052-1.155.173-2.317-.294-3.032-1.216-6.157-7.933-8.574-16.951-9.485-21.856-1.081.871-1.949 1.835-2.568 2.617-.815 1.029-2.157 1.461-3.422 1.1-1.271-.362-2.19-1.443-2.342-2.755-.849-7.32.39-13.635 1.386-17.217-3.527-.443-6.206.109-7.596.525-1.09.324-2.247.064-3.091-.697-.848-.763-1.228-1.888-1.018-3.009 2.422-12.931 6.533-20.558 9.438-24.592-.707-.256-1.318-.757-1.706-1.438-.644-1.13-.556-2.532.224-3.572 7.094-9.456 14.691-14.496 19.618-17.009-1.042-.405-1.811-1.329-2.007-2.456-.225-1.292.339-2.585 1.438-3.297 5.176-3.351 10.622-5.673 16.251-6.934-.366-.289-.747-.62-1.138-1.009-.824-.821-1.108-2.017-.74-3.121s1.313-1.889 2.466-2.051c.578-.081 1.48-.272 2.525-.494 5.583-1.185 14.522-3.081 18.986 1.258 3.068-1.739 7.167-.605 9.806.124.585.161 1.137.314 1.46.371 1.046.183 1.907.88 2.303 1.866.329.819.287 1.718-.101 2.49 6.7 1.045 13.171 3.566 19.25 7.5 1.1.711 1.664 2.006 1.439 3.297-.197 1.127-.965 2.05-2.007 2.455 4.926 2.514 12.523 7.553 19.617 17.009.78 1.041.868 2.443.225 3.573-.388.681-.999 1.182-1.706 1.438 2.905 4.034 7.016 11.661 9.438 24.592.21 1.121-.17 2.246-1.018 3.009-.845.762-2 1.022-3.09.698-1.392-.417-4.072-.969-7.597-.526.996 3.583 2.234 9.899 1.385 17.218-.152 1.311-1.071 2.393-2.342 2.754-1.265.36-2.606-.072-3.421-1.1-.62-.782-1.488-1.747-2.569-2.618-.912 4.907-3.328 13.924-9.485 21.857-.714.921-1.875 1.389-3.032 1.215-1.159-.172-2.138-.958-2.556-2.052-.103-.268-.228-.572-.378-.899-3.062 6.854-10.515 19.452-25.668 25.522-.893.359-1.832.537-2.769.537zm-28.104-33.178c.182 0 .366.015.549.047 1.154.199 2.114 1.007 2.505 2.11 1.568 4.423 7.944 19.356 24.14 25.844.577.231 1.241.232 1.82 0 16.195-6.487 22.571-21.42 24.139-25.842.392-1.104 1.352-1.912 2.506-2.111 1.152-.2 2.325.241 3.061 1.146.603.742 1.109 1.503 1.532 2.232 5.431-8.215 6.875-17.059 7.202-19.76.126-1.048.758-1.972 1.69-2.471.936-.5 2.059-.511 3.004-.032 1.306.662 2.46 1.484 3.453 2.337.07-6.406-1.456-11.51-2.001-13.12-.295-.872-.205-1.833.251-2.635.454-.801 1.23-1.371 2.129-1.564 3.725-.801 6.898-.675 9.219-.317-3.001-13.787-7.847-20.076-9.877-22.207-.84-.881-1.114-2.144-.714-3.294.333-.957 1.078-1.687 2.013-2.007-8.116-9.667-16.483-13.416-19.009-14.382-1.106-.425-1.893-1.417-2.054-2.592-.16-1.166.326-2.325 1.267-3.025.36-.268.735-.515 1.124-.742-4.863-2.685-9.958-4.397-15.188-5.1-1.46-.196-3.277-.441-4.095-2.129-.411-.849-.417-1.787-.018-2.797-1.953-.52-4.774-1.139-5.642-.054-.643.806-1.642 1.232-2.658 1.147-1.013-.087-1.91-.673-2.401-1.568-1.661-3.021-8.787-1.895-13.348-.971.771.584 1.537 1.344 2.182 2.514.405.736.414 1.626.023 2.37s-1.129 1.241-1.965 1.324c-5.716.569-11.278 2.337-16.577 5.264.39.227.766.475 1.126.744.94.698 1.425 1.857 1.265 3.023-.161 1.175-.948 2.167-2.053 2.591-2.527.967-10.894 4.714-19.01 14.382.935.32 1.68 1.05 2.013 2.007.399 1.15.125 2.413-.715 3.294-2.03 2.13-6.876 8.419-9.877 22.206 2.319-.357 5.496-.484 9.219.318.897.192 1.674.762 2.128 1.562.456.802.547 1.763.252 2.636-.545 1.611-2.072 6.714-2.001 13.121.992-.853 2.146-1.675 3.453-2.337.946-.479 2.069-.467 3.004.032.933.499 1.564 1.423 1.69 2.473.327 2.7 1.771 11.543 7.202 19.758.422-.729.929-1.489 1.531-2.231.618-.762 1.546-1.194 2.511-1.194zm85.729-31.516h.01zm-44.409-60.216c.001 0 .003 0 .004.001-.001-.001-.002-.001-.004-.001zm-1.233-3.085c-.001.001-.002.003-.003.004.001-.001.002-.003.003-.004zm-7.761-.481c.001.002.001.003.002.005 0-.001-.001-.003-.002-.005zm-3.225-.291c-.001.001-.002.002-.003.004.001-.001.002-.002.003-.004z"/><path d="m174.636 44.878c-.644 0-1.271-.25-1.743-.708-6.614-6.43-12.68-9.171-14.98-10.052-1.106-.424-1.893-1.417-2.054-2.59-.161-1.166.325-2.325 1.266-3.025.36-.268.735-.516 1.124-.742-3.801-2.096-7.76-3.605-11.808-4.498-.811-.179-1.479-.749-1.785-1.52s-.209-1.645.258-2.33c7.096-10.403 16.351-17.426 25.392-19.268 3.303-.67 6.882 1.102 8.328 4.131 4.889 10.233 4.256 24.837-1.691 39.067-.319.764-.995 1.319-1.806 1.485-.166.034-.334.05-.501.05zm-11.276-13.775c2.708 1.391 6.338 3.603 10.258 6.962 4.121-11.701 4.356-23.571.504-31.634-.463-.969-1.752-1.604-2.818-1.387-6.832 1.392-14.187 6.649-20.149 14.293 4.415 1.352 8.701 3.364 12.785 6.008 1.099.711 1.664 2.005 1.439 3.296-.196 1.132-.97 2.059-2.019 2.462zm-2.136-1.56h.01z"/><path d="m81.463 45.584c-.158 0-.317-.015-.476-.046-.818-.158-1.503-.714-1.827-1.481-5.957-14.099-6.644-29.162-1.795-39.311 1.447-3.027 5.029-4.801 8.328-4.131 8.958 1.826 18.151 8.756 25.221 19.013.466.677.57 1.54.278 2.308-.292.769-.944 1.344-1.742 1.539-3.725.912-7.375 2.349-10.886 4.286.389.227.765.475 1.125.743.94.698 1.425 1.857 1.265 3.023-.162 1.174-.948 2.167-2.054 2.591h-.001c-2.424.928-8.803 3.83-15.663 10.728-.474.478-1.113.738-1.773.738zm2.799-40.112c-.959 0-1.983.589-2.385 1.429-3.877 8.115-3.615 20.053.57 31.816 4.203-3.727 8.119-6.135 11.004-7.616-1.048-.402-1.821-1.329-2.019-2.46-.226-1.291.339-2.585 1.438-3.297 3.791-2.454 7.762-4.367 11.847-5.711-5.972-7.633-13.138-12.716-20.022-14.118-.141-.029-.287-.043-.433-.043zm13.743 26.312h.01zm-.894-2.334c-.001 0-.001 0 0 0z"/><path d="m92.797 36.799c-.4 0-.8-.096-1.166-.288-.756-.398-1.256-1.155-1.326-2.007-1.079-13.119-7.578-18.578-7.644-18.631-.818-.669-1.127-1.78-.771-2.775.242-.679.758-1.204 1.396-1.469-1.78-2.022-3.376-2.952-4.547-3.374-.666-.24-1.198-.75-1.466-1.405-.258-.631-.247-1.34.029-1.962.021-.048.048-.111.065-.146 1.443-3.021 5.023-4.797 8.325-4.125 8.965 1.827 18.159 8.757 25.226 19.012.466.677.57 1.54.278 2.308s-.944 1.343-1.742 1.539c-3.727.912-7.377 2.35-10.891 4.287.389.227.765.475 1.125.743.94.698 1.425 1.857 1.265 3.023-.162 1.174-.948 2.167-2.054 2.591-.844.323-2.595 1.056-4.863 2.351-.383.218-.81.328-1.239.328zm-3.47-20.734c1.423 2.083 3.011 5.004 4.214 8.853 3.59-2.251 7.335-4.021 11.182-5.286-5.972-7.631-13.139-12.714-20.028-14.117-.233-.048-.477-.053-.719-.026 1.925 1.426 4.082 3.661 6.182 7.163.463.772.476 1.734.032 2.518-.211.372-.51.678-.863.895z"/><path d="m163.201 36.344c-.411 0-.822-.101-1.194-.304-1.917-1.042-3.387-1.651-4.093-1.921-1.106-.424-1.893-1.417-2.054-2.59-.161-1.166.325-2.325 1.266-3.025.36-.268.735-.516 1.124-.742-3.803-2.097-7.764-3.607-11.814-4.5-.811-.179-1.479-.748-1.786-1.52s-.209-1.645.258-2.331c7.092-10.4 16.349-17.423 25.398-19.266 3.303-.67 6.882 1.102 8.328 4.131.017.035.044.096.063.142.276.621.287 1.329.029 1.96-.268.655-.801 1.166-1.466 1.405-1.171.422-2.768 1.352-4.548 3.374.639.265 1.155.79 1.397 1.469.355.995.046 2.106-.771 2.775-.256.215-6.583 5.675-7.645 18.647-.069.842-.559 1.593-1.303 1.995-.371.201-.781.301-1.189.301zm-1.981-6.803c.001.001.003.001.004.002-.002-.001-.002-.002-.004-.002zm-10.072-10.206c3.889 1.189 7.679 2.893 11.317 5.087 1.202-3.836 2.787-6.75 4.207-8.829-.353-.217-.651-.522-.862-.896-.444-.784-.432-1.746.032-2.518 2.1-3.501 4.256-5.736 6.182-7.162-.244-.029-.486-.021-.718.026-6.84 1.394-14.197 6.651-20.158 14.292z"/><path d="m128 106.475c-5.619 0-11.789-4.835-11.789-9.238 0-5.506 7.379-5.506 11.789-5.506s11.789 0 11.789 5.506c0 4.403-6.17 9.238-11.789 9.238zm-6.755-9.045c.347 1.173 3.345 4.044 6.755 4.044 3.409 0 6.407-2.871 6.755-4.044-.596-.343-2.29-.7-6.755-.7-4.466 0-6.159.357-6.755.7zm16.044-.194h.01z"/><path d="m132.9 114.57c-1.312 0-2.547-.268-3.617-.817-2.293-1.177-3.556-3.442-3.556-6.379v-2.907c0-1.381 1.119-2.5 2.5-2.5s2.5 1.119 2.5 2.5v2.907c0 1.5.609 1.813.839 1.931 1.11.57 3.563.261 5.924-1.432 14.443-10.362 8.399-18.987 1.401-28.975-1.5-2.14-2.916-4.161-4.116-6.218-5.124-8.785-3.107-15.702-1.449-19.044.614-1.237 2.116-1.741 3.351-1.128 1.237.614 1.742 2.114 1.128 3.351-1.479 2.98-2.456 7.881 1.29 14.302 1.095 1.877 2.453 3.815 3.891 5.868 6.701 9.563 15.879 22.662-2.582 35.906-2.406 1.728-5.087 2.635-7.504 2.635z"/><path d="m123.555 114.506c-2.417 0-5.097-.907-7.505-2.635-18.46-13.244-9.283-26.342-2.582-35.906 1.438-2.053 2.796-3.991 3.892-5.868 3.727-6.39 2.772-11.275 1.315-14.248-.607-1.24-.095-2.737 1.145-3.345 1.241-.607 2.737-.094 3.345 1.145 1.633 3.333 3.612 10.228-1.486 18.968-1.2 2.057-2.616 4.078-4.116 6.218-6.998 9.987-13.042 18.613 1.402 28.975 2.36 1.693 4.814 2.003 5.924 1.432.229-.118.839-.431.839-1.931v-2.907c0-1.381 1.119-2.5 2.5-2.5s2.5 1.119 2.5 2.5v2.907c0 2.937-1.263 5.202-3.556 6.379-1.07.548-2.305.816-3.617.816z"/><path d="m184.056 67.325c-.879 0-1.731-.464-2.188-1.286-2.68-4.823-7.955-7.637-11.334-9.019v1.208c0 1.011-.609 1.923-1.543 2.31-.934.388-2.009.174-2.724-.542-11.727-11.727-21.386-8.093-21.792-7.933-1.273.504-2.729-.108-3.247-1.379-.516-1.271.078-2.716 1.344-3.244.473-.197 10.663-4.254 23.073 5.343.148-.484.443-.918.851-1.237.607-.474 1.398-.641 2.145-.455.504.126 12.42 3.197 17.599 12.519.67 1.207.235 2.729-.971 3.4-.386.213-.802.315-1.213.315z"/><path d="m71.911 67.325c-.411 0-.827-.102-1.212-.315-1.207-.671-1.642-2.193-.971-3.4 5.179-9.322 17.095-12.393 17.599-12.519.744-.188 1.538-.02 2.145.455.408.319.703.752.851 1.237 12.409-9.598 22.6-5.541 23.073-5.343 1.274.531 1.877 1.995 1.346 3.269-.528 1.27-1.983 1.871-3.252 1.354-.449-.177-10.093-3.763-21.79 7.934-.714.716-1.791.93-2.724.542-.935-.387-1.543-1.298-1.543-2.31v-1.209c-3.379 1.382-8.655 4.196-11.334 9.02-.457.821-1.309 1.285-2.188 1.285z"/><path d="m145.176 70.609c-1.377 0-2.496-1.114-2.5-2.492-.014-4.347 3.512-7.895 7.859-7.909h.027c2.096 0 4.068.813 5.556 2.291 1.494 1.484 2.32 3.461 2.327 5.567.004 1.381-1.111 2.504-2.492 2.508-.003 0-.006 0-.008 0-1.377 0-2.496-1.114-2.5-2.492-.002-.771-.305-1.494-.852-2.037-.544-.541-1.265-.838-2.032-.838-.003 0-.006 0-.01 0-1.59.005-2.88 1.303-2.875 2.894.004 1.381-1.111 2.503-2.492 2.508-.003 0-.006 0-.008 0z"/><path d="m111.245 70.592c-1.381 0-2.5-1.119-2.5-2.5 0-1.59-1.294-2.884-2.884-2.884s-2.884 1.294-2.884 2.884c0 1.381-1.119 2.5-2.5 2.5s-2.5-1.119-2.5-2.5c0-4.347 3.537-7.884 7.884-7.884s7.884 3.537 7.884 7.884c0 1.381-1.119 2.5-2.5 2.5z"/><path d="m127.993 124.866c-5.861 0-10.874-5.649-12.771-14.393-.218-1.004.201-2.039 1.056-2.609s1.971-.56 2.814.027c2.335 1.624 4.736 1.903 5.81 1.341.226-.118.825-.432.825-1.922 0-1.381 1.119-2.5 2.5-2.5s2.5 1.119 2.5 2.5v.064c0 1.463.593 1.793.788 1.902.98.545 3.146.369 5.393-1.022.859-.532 1.954-.496 2.775.094.821.589 1.206 1.614.977 2.599-1.972 8.455-6.944 13.919-12.667 13.919zm-6.241-10.53c1.621 3.404 3.915 5.53 6.241 5.53 2.271 0 4.541-2.07 6.163-5.378-1.87.233-3.631-.041-5.073-.844-.32-.178-.619-.379-.896-.601-.298.231-.622.438-.969.619-1.551.813-3.467 1.022-5.466.674z"/><path d="m128 183.83c-.855 0-1.709-.18-2.506-.54-11.525-5.216-17.542-15.642-20.286-22.07-.46.911-1.32 1.54-2.334 1.68-1.148.161-2.276-.343-2.941-1.312-4.646-6.765-6.643-14.386-7.476-18.975-.533.579-.955 1.137-1.239 1.541-.747 1.063-2.031 1.54-3.27 1.218-1.274-.332-2.186-1.412-2.323-2.751-.668-6.516.28-12.153 1.071-15.423-2.468-.273-4.335.166-5.33.501-1.019.343-2.117.13-2.941-.57-.849-.721-1.261-1.862-1.076-2.977 2.23-13.451 6.261-20.57 8.465-23.616.559-.772 1.509-1.162 2.448-.999.939.161 1.706.843 1.975 1.757 1.343 4.556 3.227 8.673 5.615 12.277.422-.729.929-1.491 1.532-2.233.737-.907 1.906-1.346 3.062-1.147 1.154.199 2.114 1.007 2.505 2.11 1.569 4.423 7.944 19.356 24.14 25.843.578.231 1.241.231 1.819 0 16.196-6.487 22.571-21.42 24.14-25.842.392-1.104 1.352-1.912 2.506-2.111 1.155-.2 2.325.241 3.061 1.146.603.743 1.11 1.504 1.533 2.234 2.387-3.603 4.271-7.721 5.615-12.278.27-.915 1.036-1.596 1.976-1.757.936-.164 1.889.226 2.448.999 2.204 3.046 6.234 10.165 8.465 23.614.185 1.117-.228 2.258-1.076 2.979-.824.701-1.924.914-2.94.57-.995-.335-2.861-.774-5.331-.501.791 3.27 1.739 8.907 1.071 15.423-.137 1.34-1.049 2.419-2.323 2.751-1.241.322-2.524-.155-3.27-1.217-.284-.405-.706-.963-1.239-1.542-.833 4.587-2.828 12.208-7.476 18.974-.666.969-1.79 1.473-2.941 1.312-1.014-.141-1.875-.77-2.334-1.68-2.744 6.428-8.761 16.854-20.286 22.07-.8.362-1.655.542-2.509.542zm-22.546-30.529c.161 0 .323.013.485.039 1.162.187 2.107 1.015 2.467 2.16 1.251 3.983 6.329 17.432 19.149 23.235.291.131.598.131.889 0 12.821-5.803 17.898-19.251 19.149-23.234.36-1.146 1.305-1.973 2.467-2.16 1.147-.18 2.282.294 2.967 1.248.279.388.532.782.762 1.171 3.943-7.174 5.021-14.666 5.272-17.018.116-1.08.75-2.011 1.697-2.494.92-.469 2.004-.441 2.9.072.7.401 1.346.863 1.936 1.354-.069-5.38-1.189-9.603-1.604-10.985-.254-.85-.148-1.775.291-2.54.424-.738 1.133-1.274 1.947-1.471 2.75-.668 5.146-.65 7.002-.402-1.281-6.512-2.968-11.148-4.499-14.34-1.667 4.084-3.787 7.792-6.329 11.068-.714.922-1.875 1.389-3.032 1.216-1.159-.172-2.138-.958-2.556-2.052-.103-.268-.228-.572-.378-.899-3.062 6.854-10.515 19.452-25.668 25.521-1.785.715-3.752.715-5.538 0-15.153-6.07-22.606-18.667-25.668-25.521-.15.327-.275.631-.378.899-.418 1.094-1.397 1.88-2.556 2.052-1.155.173-2.317-.294-3.032-1.216-2.543-3.276-4.662-6.983-6.33-11.067-1.53 3.192-3.217 7.83-4.498 14.34 1.86-.249 4.255-.267 7.005.402.811.196 1.521.733 1.944 1.471.439.765.545 1.69.291 2.54-.415 1.383-1.535 5.605-1.604 10.985.59-.491 1.236-.953 1.937-1.354.897-.514 1.981-.541 2.901-.071.947.483 1.581 1.416 1.695 2.494.252 2.352 1.331 9.845 5.273 17.017.229-.39.482-.783.761-1.17.59-.821 1.51-1.29 2.483-1.29z"/><path d="m172.592 256h-19.902c-4.988 0-9.046-4.058-9.046-9.046v-7.768c-3.341 1.234-8.762 2.702-15.645 2.702s-12.304-1.468-15.645-2.702v7.768c0 4.988-4.058 9.046-9.046 9.046h-19.9c-2.908 0-5.417-2.043-5.965-4.858-1.953-10.021 3.494-14.223 6.915-15.836 2.213-1.044 3.799-3.07 4.242-5.42 2.899-15.38 1.235-30.925-6.36-59.407-5.764-21.616-3.462-38.282-1.577-46.293.237-1.009 1.072-1.766 2.1-1.905 2.295-.31 4.656-.177 7.012.396.811.196 1.521.732 1.944 1.471.439.765.545 1.691.291 2.54-.415 1.383-1.535 5.605-1.604 10.985.59-.491 1.236-.953 1.937-1.354.897-.514 1.981-.541 2.901-.071.947.483 1.581 1.416 1.695 2.494.252 2.352 1.331 9.845 5.273 17.017.229-.39.482-.783.761-1.17.687-.955 1.828-1.428 2.968-1.249 1.162.187 2.107 1.015 2.467 2.16 1.251 3.983 6.329 17.432 19.149 23.235.291.131.598.131.889 0 12.821-5.803 17.898-19.251 19.149-23.234.36-1.146 1.305-1.973 2.467-2.16 1.147-.18 2.282.294 2.967 1.248.279.388.532.782.762 1.171 3.943-7.174 5.021-14.666 5.272-17.018.116-1.08.75-2.011 1.697-2.494.92-.469 2.004-.441 2.9.072.7.401 1.346.863 1.937 1.354-.07-5.38-1.19-9.603-1.604-10.985-.254-.849-.148-1.775.291-2.54.424-.738 1.133-1.274 1.947-1.471 2.354-.573 4.713-.706 7.009-.396 1.027.139 1.862.896 2.1 1.905 1.885 8.011 4.187 24.677-1.577 46.293-7.595 28.482-9.259 44.027-6.36 59.407.443 2.35 2.029 4.376 4.242 5.42 3.42 1.613 8.867 5.815 6.915 15.836-.551 2.814-3.06 4.857-5.968 4.857zm-26.45-23.142c.436 0 .872.113 1.26.34.767.448 1.242 1.268 1.242 2.157v11.599c0 2.231 1.815 4.046 4.046 4.046h19.902c.512 0 .967-.35 1.058-.814 1.009-5.18-.345-8.568-4.14-10.357-3.659-1.726-6.284-5.097-7.022-9.017-3.46-18.355-.258-36.494 6.442-61.621 5.082-19.058 3.595-33.976 1.934-42.072-.516-.002-1.036.025-1.559.083.791 3.27 1.739 8.906 1.07 15.421-.137 1.339-1.049 2.419-2.323 2.751-1.241.322-2.524-.155-3.27-1.217-.284-.405-.706-.963-1.239-1.542-.833 4.587-2.828 12.208-7.476 18.974-.666.969-1.79 1.473-2.941 1.312-1.014-.141-1.875-.77-2.334-1.68-2.744 6.428-8.761 16.854-20.286 22.07-1.593.721-3.419.721-5.012 0-11.525-5.216-17.542-15.642-20.286-22.07-.46.911-1.32 1.54-2.334 1.68-1.148.161-2.276-.343-2.941-1.312-4.646-6.765-6.643-14.386-7.476-18.975-.533.579-.955 1.137-1.239 1.541-.747 1.063-2.031 1.54-3.27 1.218-1.274-.332-2.186-1.412-2.323-2.751-.668-6.515.28-12.151 1.07-15.421-.523-.058-1.049-.091-1.559-.083-1.661 8.096-3.148 23.014 1.934 42.072 6.701 25.127 9.903 43.266 6.442 61.621-.738 3.92-3.364 7.292-7.022 9.017-3.795 1.789-5.149 5.177-4.14 10.357.09.464.545.814 1.057.814h19.902c2.231 0 4.046-1.815 4.046-4.046v-11.599c0-.891.475-1.715 1.245-2.162.771-.448 1.722-.45 2.495-.008.06.033 6.69 3.703 16.904 3.703s16.845-3.669 16.911-3.707c.382-.215.808-.322 1.232-.322z"/><path d="m146.142 237.855c-1.317 0-2.42-1.03-2.494-2.361l-1.512-27.217c-.017-.295.02-.591.106-.874.039-.127 3.922-12.872 3.922-22.45 0-1.381 1.119-2.5 2.5-2.5s2.5 1.119 2.5 2.5c0 9.413-3.295 21.061-4.012 23.484l1.488 26.779c.077 1.378-.979 2.558-2.357 2.635-.047.003-.094.004-.141.004z"/><path d="m109.858 237.855c-.047 0-.094-.001-.141-.004-1.378-.077-2.434-1.256-2.357-2.635l1.488-26.779c-.717-2.423-4.012-14.071-4.012-23.484 0-1.381 1.119-2.5 2.5-2.5s2.5 1.119 2.5 2.5c0 9.594 3.882 22.322 3.922 22.449.087.283.123.579.106.874l-1.512 27.217c-.074 1.332-1.177 2.362-2.494 2.362z"/><path d="m185.653 247.516c-4.139 0-8.117-.723-10.399-1.424-.802-.246-1.427-.878-1.665-1.684-.603-2.047-1.975-3.589-4.08-4.581-3.659-1.726-6.284-5.097-7.022-9.017-2.897-15.369-1.501-30.732 5.15-56.685.213-.831.837-1.495 1.653-1.758 7.854-2.539 14.019.349 17.354 8.132 5.492 12.815.146 31.49-2.407 38.925-.617 1.797-.608 3.649.025 5.214.323.797.768 1.483 1.324 2.04.506.505 2.51.763 3.974.952 4.116.529 11.005 1.415 11.005 9.786 0 2.984-1.247 5.483-3.605 7.226-2.921 2.16-7.193 2.874-11.307 2.874zm-7.754-5.881c4.891 1.198 12.688 1.5 16.09-1.014 1.09-.806 1.577-1.794 1.577-3.205 0-3.63-1.822-4.207-6.643-4.827-2.537-.326-5.16-.664-6.871-2.375-1.033-1.032-1.848-2.277-2.423-3.699-1.086-2.683-1.128-5.778-.119-8.715 1.845-5.373 7.482-23.799 2.54-35.331-2.113-4.93-5.289-6.767-9.924-5.704-6.145 24.321-7.42 38.818-4.725 53.119.443 2.35 2.029 4.376 4.242 5.42 2.938 1.386 5.077 3.558 6.256 6.331z"/><path d="m70.347 247.516c-4.114 0-8.385-.714-11.308-2.874-2.359-1.743-3.605-4.242-3.605-7.226 0-8.371 6.889-9.257 11.005-9.786 1.463-.188 3.468-.446 3.974-.952.556-.556 1.001-1.242 1.324-2.04.634-1.565.643-3.417.025-5.214-2.554-7.435-7.899-26.11-2.407-38.925 3.336-7.783 9.499-10.67 17.354-8.132.816.264 1.44.927 1.653 1.758 6.652 25.953 8.047 41.316 5.15 56.685-.738 3.92-3.364 7.292-7.022 9.017-2.105.992-3.478 2.534-4.08 4.581-.237.805-.862 1.438-1.665 1.684-2.281.701-6.26 1.424-10.398 1.424zm11.137-71.041c-3.369 0-5.806 1.963-7.534 5.995-4.942 11.531.695 29.958 2.54 35.331 1.009 2.937.967 6.031-.119 8.714-.575 1.422-1.391 2.667-2.423 3.699-1.711 1.712-4.334 2.049-6.871 2.375-4.821.62-6.643 1.197-6.643 4.827 0 1.411.486 2.399 1.577 3.205 3.402 2.514 11.199 2.212 16.09 1.014 1.179-2.773 3.319-4.945 6.257-6.33 2.213-1.044 3.799-3.07 4.242-5.42 2.695-14.301 1.419-28.798-4.725-53.119-.845-.194-1.641-.291-2.391-.291zm3.94 61.091h.01z"/><path d="m221.687 216.237c-.281 0-.565-.034-.848-.104-5.13-1.281-14.338-4.5-21.169-12.032l-.092.253c-.457 1.257-1.565 2.132-2.893 2.284-1.333.151-2.625-.455-3.36-1.586-2.083-3.205-4.766-5.668-7.976-7.321-.859-.443-1.386-1.341-1.354-2.307.174-5.178-.48-9.536-1.945-12.954-2.304-5.375-5.87-7.072-11.222-5.344-.87.281-1.821.065-2.486-.562-.664-.627-.933-1.566-.701-2.45l1.286-4.913c.723-2.711 1.329-5.418 1.855-8.289.17-.929.85-1.682 1.755-1.948 9.071-2.659 18.3-1.825 27.429 2.481 1.148.542 1.919 1.665 2.013 2.93.093 1.26-.502 2.478-1.553 3.179l-.308.206c5.219 2.309 13.282 7.575 16.448 18.75.301 1.062.085 2.221-.579 3.099-.434.574-1.015.989-1.673 1.209.712 4.174 2.968 13.037 9.763 19.339 1.19 1.104 1.469 2.807.695 4.237-.624 1.154-1.82 1.843-3.085 1.843zm-1.01-2.413h.01zm-21.526-16.175c1.079 0 2.111.499 2.782 1.371 4.277 5.56 10.171 8.798 14.993 10.646-5.88-7.767-7.431-16.782-7.794-19.724-.123-1 .189-2.004.855-2.757.351-.396.783-.704 1.261-.906-3.526-9.931-11.885-13.663-15.447-14.833-1.281-.42-2.192-1.514-2.375-2.853-.184-1.345.403-2.649 1.532-3.402l.425-.284c-6.685-2.634-13.388-3.149-19.978-1.538-.48 2.434-1.021 4.773-1.644 7.108l-.271 1.034c5.849-.437 10.44 2.653 13.155 8.989 1.602 3.738 2.399 8.291 2.376 13.553 2.592 1.547 4.874 3.54 6.816 5.953l.017-.048c.437-1.203 1.494-2.072 2.759-2.268.18-.027.36-.041.538-.041z"/></svg>