<?xml version="1.0" encoding="iso-8859-1"?>
<!-- Generator: Adobe Illustrator 19.0.0, SVG Export Plug-In . SVG Version: 6.00 Build 0)  -->
<svg version="1.1" id="Layer_1" xmlns="http://www.w3.org/2000/svg" xmlns:xlink="http://www.w3.org/1999/xlink" x="0px" y="0px"
	 viewBox="0 0 512.003 512.003" style="enable-background:new 0 0 512.003 512.003;" xml:space="preserve">
<path style="fill:#808080;" d="M391.841,97.755c-3.702,0-6.714,3.011-6.714,6.714s3.012,6.714,6.714,6.714
	c3.701,0,6.712-3.011,6.712-6.714C398.553,100.766,395.542,97.755,391.841,97.755z"/>
<path style="fill:#333333;" d="M351.646,99.662c-29.382,43.918-37.967,71.371-38.05,71.642c-0.639,2.085-2.417,3.626-4.571,3.954
	c-0.259,0.041-26.933,4.351-62.815,24.537c-33.099,18.62-81.05,54.964-121.526,122.362c-0.33,0.55-0.752,1.041-1.248,1.451
	c-29.605,24.478-72.618,60.776-96.041,81.967c24.324-11.738,62.864-32.408,83.705-45.105c0.071-0.043,0.149-0.073,0.221-0.113
	c0.047-0.026,0.085-0.061,0.133-0.085c1.047-0.539,105.095-54.223,146.428-85.148c1.036-0.776,2.293-1.161,3.602-1.127
	c0.2,0.012,20.527,0.545,41.748-9.595c28.011-13.384,44.46-38.348,48.89-74.197c0.385-3.109,3.212-5.332,6.325-4.934
	c3.109,0.383,5.319,3.215,4.934,6.325c-6.176,49.997-33.698,72.868-55.699,83.251c-19.794,9.343-38.423,10.417-44.539,10.499
	c-26.984,19.843-76.155,47.417-110.069,65.732c34.539-6.424,85.284-13.36,128.624-9.368l-2.297-7.124
	c-0.962-2.981,0.676-6.177,3.659-7.139c2.98-0.961,6.176,0.676,7.139,3.659l11.317,35.093c2.182,6.806,9.486,10.563,16.277,8.387
	c3.292-1.055,5.978-3.329,7.559-6.402c1.583-3.073,1.873-6.579,0.819-9.87l-8.594-26.829c-0.956-2.984,0.688-6.176,3.671-7.133
	c2.986-0.955,6.177,0.688,7.133,3.671l2.075,6.479c31.108-7.138,52.508-31.418,63.633-72.283
	c8.977-32.978,7.521-64.775,7.504-65.092c-0.066-1.54-0.994-29.603,16.448-51.331c-2.613-8.623-7.614-32.264,5.817-57.185
	C411.883,82.096,374.418,65.616,351.646,99.662z M391.841,122.528c-9.958,0-18.059-8.102-18.059-18.059s8.102-18.059,18.059-18.059
	c9.956,0,18.057,8.102,18.057,18.059S401.798,122.528,391.841,122.528z"/>
<g>
	<path style="fill:#808080;" d="M324.426,384.098c-1.022,0.493-2.067,0.956-3.173,1.296c-4.693,1.439-8.348,1.131-8.824,1.103
		l7.496,24.354c0.204,0.659,0.285,1.349,0.239,2.039c-0.328,5.022-4.387,12.495-14.224,12.495c-8.185,0-10.378,1.637-12.069,7.711
		h86.236c-0.622-2.12-1.696-4.484-3.553-6.37c-2.586-2.626-6.242-3.904-11.177-3.904c-10.11,0-28.383-0.609-34.296-17.155
		C331.016,405.482,324.426,384.098,324.426,384.098z"/>
	<path style="fill:#808080;" d="M435.215,91.514c-2.951,4.962-5.003,9.902-6.39,14.658c9.465-0.843,37.814-3.212,63.519-3.805
		C483.337,96.679,466.182,90.285,435.215,91.514z"/>
</g>
<path style="fill:#333333;" d="M426.604,117.765c-0.716,7.383-0.064,13.851,0.827,18.62c8.665-7.442,32.856-17.824,42.535-21.775
	c-23.03,1.231-43.033,3.126-43.336,3.154C426.623,117.765,426.614,117.764,426.604,117.765z"/>
<path d="M391.841,86.41c-9.958,0-18.059,8.102-18.059,18.059s8.102,18.059,18.059,18.059c9.956,0,18.057-8.102,18.057-18.059
	C409.898,94.51,401.798,86.41,391.841,86.41z M391.841,111.183c-3.702,0-6.714-3.011-6.714-6.714s3.012-6.714,6.714-6.714
	c3.701,0,6.712,3.011,6.712,6.714C398.553,108.171,395.542,111.183,391.841,111.183z"/>
<path d="M432.153,80.292c-4.258-2.513-16.246-8.972-30.974-11.594c-24.826-4.417-45.218,4.108-58.964,24.654
	c-24.842,37.131-35.191,62.594-38.351,71.341c-8.594,1.811-32.322,7.918-62.683,24.912
	c-34.313,19.207-83.917,56.618-125.725,125.878c-4.712,3.904-30.893,25.623-56.681,47.647
	c-59.651,50.945-59.277,53.421-58.656,57.521c0.315,2.085,1.668,3.809,3.617,4.611c0.643,0.264,1.306,0.539,2.457,0.539
	c3.956-0.001,13.679-3.224,48.18-21.061c22.431-11.598,47.694-25.532,61.893-34.133c9.526-2.382,101.781-24.775,169.23-17.115
	l5.219,16.181c1.559,4.864,4.526,8.883,8.294,11.788l9.663,31.387c-0.3,0.636-1.044,1.19-2.731,1.19
	c-19.795,0-24.724,23.566-24.724,23.566c-0.351,1.672,0.071,3.414,1.149,4.739c1.077,1.326,2.694,2.097,4.403,2.097h99.864
	c3.071,0,5.584-2.444,5.67-5.513c0.014-0.488,0.245-12.029-7.564-20.06c-4.77-4.904-11.283-7.392-19.36-7.392
	c-10.958,0-19.678-0.741-23.741-9.983l-7.818-25.449c0.585-0.851,1.139-1.729,1.619-2.663c2.97-5.769,3.516-12.348,1.536-18.525
	l-3.053-9.531c34.623-8.368,59.17-35.998,71.186-80.386c9.39-34.692,7.885-67.02,7.82-68.326
	c-0.017-0.404-1.216-40.489,30.109-56.989c33.981-17.9,64.454-26.149,64.757-26.23c1.646-0.441,3.008-1.597,3.709-3.152
	c0.699-1.553,0.665-3.34-0.098-4.865C510.818,104.208,496.436,76.981,432.153,80.292z M365.377,422.819
	c4.935,0,8.59,1.277,11.177,3.904c1.857,1.887,2.932,4.25,3.553,6.37h-86.236c1.689-6.074,3.883-7.711,12.069-7.711
	c9.837,0,13.897-7.473,14.224-12.495c0.045-0.689-0.035-1.38-0.239-2.039l-7.496-24.354c0.477,0.028,4.132,0.337,8.824-1.103
	c1.106-0.339,2.151-0.802,3.173-1.296c0,0,6.59,21.384,6.655,21.567C336.995,422.21,355.268,422.819,365.377,422.819z
	 M418.041,145.799c-17.442,21.728-16.514,49.792-16.448,51.331c0.017,0.318,1.474,32.115-7.504,65.092
	c-11.125,40.864-32.525,65.145-63.633,72.283l-2.075-6.479c-0.955-2.984-4.147-4.627-7.133-3.671
	c-2.984,0.956-4.628,4.149-3.671,7.133l8.594,26.829c1.055,3.291,0.764,6.797-0.819,9.87c-1.583,3.073-4.267,5.347-7.559,6.402
	c-6.79,2.176-14.095-1.58-16.277-8.387l-11.317-35.093c-0.963-2.983-4.159-4.619-7.139-3.659c-2.983,0.962-4.62,4.158-3.659,7.139
	l2.297,7.124c-43.339-3.993-94.085,2.944-128.624,9.368c33.914-18.317,83.083-45.89,110.069-65.732
	c6.115-0.082,24.745-1.156,44.539-10.499c22-10.382,49.521-33.254,55.699-83.251c0.385-3.11-1.824-5.941-4.934-6.325
	c-3.113-0.399-5.94,1.824-6.325,4.934c-4.429,35.85-20.878,60.813-48.89,74.197c-21.221,10.139-41.548,9.607-41.748,9.595
	c-1.308-0.034-2.566,0.352-3.602,1.127c-41.334,30.926-145.382,84.609-146.428,85.148c-0.048,0.024-0.086,0.059-0.133,0.085
	c-0.073,0.04-0.151,0.069-0.221,0.113c-20.841,12.696-59.381,33.367-83.705,45.105c23.423-21.191,66.436-57.489,96.041-81.967
	c0.496-0.41,0.918-0.901,1.248-1.451c40.476-67.399,88.427-103.743,121.526-122.362c35.882-20.186,62.558-24.496,62.815-24.537
	c2.154-0.328,3.933-1.869,4.571-3.954c0.083-0.271,8.669-27.725,38.05-71.642c22.772-34.047,60.238-17.566,72.211-11.048
	C410.428,113.534,415.428,137.176,418.041,145.799z M427.432,136.386c-0.891-4.768-1.543-11.236-0.827-18.62
	c0.009-0.001,0.018,0,0.026-0.001c0.304-0.028,20.305-1.923,43.336-3.154C460.288,118.561,436.097,128.943,427.432,136.386z
	 M428.826,106.172c1.386-4.756,3.439-9.696,6.39-14.658c30.966-1.229,48.121,5.165,57.129,10.853
	C466.64,102.96,438.291,105.329,428.826,106.172z"/>
<g>
</g>
<g>
</g>
<g>
</g>
<g>
</g>
<g>
</g>
<g>
</g>
<g>
</g>
<g>
</g>
<g>
</g>
<g>
</g>
<g>
</g>
<g>
</g>
<g>
</g>
<g>
</g>
<g>
</g>
</svg>
