<svg height="512" viewBox="0 0 44 61" width="512" xmlns="http://www.w3.org/2000/svg"><g id="Page-1" fill="none" fill-rule="evenodd"><g id="023---Skull" fill-rule="nonzero" transform="translate(-1)"><path id="Shape" d="m8.63 6.11c0-.00552285-.00447715-.01-.01-.01" fill="#3f51b5"/><path id="Shape" d="m40.38 17.57c-.0424437.0115324-.0860526.0182415-.13.02-.0398438.0049987-.0801562.0049987-.12 0-1.2033042.0735842-2.3337679-.5802729-2.87-1.66-.0407749-.0780525-.0774905-.1581592-.11-.24-.0995138-.2498304-.1634709-.5123913-.19-.78-.0891519-.9130988.2463958-1.8164963.91-2.45.0531815-.0670813.1174406-.1245763.19-.17.4465754-.3783286.997594-.6119884 1.58-.67 1.3372537-.136081 2.602567.6312703 3.1 1.88.0311466.0784363.0578555.158563.08.24.051994.1833265.0887853.3706276.11.56.1666942 1.5981047-.9594521 3.0422217-2.55 3.27z" fill="#ffeb3a"/><path id="Shape" d="m40.25 18.19c-.0244027-.1995195-.0645275-.3967998-.12-.59" fill="#3f51b5"/><path id="Shape" d="m21.14 5.35c-.6032239 1.15814929-1.6610833 2.01313158-2.92 2.36-2.85.92-3.47-.98-3.78-1.93-.3713744-.80136301-.3603466-1.7277051.03-2.52 1.8402164-.58037578 3.7380008-.95926206 5.66-1.13v.01c-.089268.27781775-.1331645.5682099-.13.86-.006682.91811743.4147848 1.7869306 1.14 2.35z" fill="#f44335"/><path id="Shape" d="m9.65 8.94c-.07183807 1.302839-.68891792 2.5152194-1.7 3.34l-.01.01c-.44657538-.3783286-.99759401-.6119884-1.58-.67-1.3293125-.1374521-2.58925546.6209602-3.09 1.86l-.19-.07c.41327407-1.1532809.96034207-2.2541294 1.63-3.28.03317574-.0611884.07345409-.1182494.12-.17 1.03026658-1.49692754 2.31666731-2.8002546 3.8-3.85.67.4 1.19 1.2 1.02 2.83z" fill="#3f51b5"/><path id="Shape" d="m4.29 21.07c-.36861459.4544578-.83755383.8172867-1.37 1.06-.26448783.1176024-.5505472.1789008-.84.18-.03-.47-.06-.95-.07-1.45-.12543902-2.5290214.23785674-5.0585106 1.07-7.45l.19.07c-.10400441.2628526-.17130366.5387795-.2.82-.16669422 1.5981047.95945205 3.0422217 2.55 3.27.06190108 1.3007334-.41989865 2.5686275-1.33 3.5z" fill="#3f51b5"/><path id="Shape" d="m26 3c.006682.91811743-.4147848 1.7869306-1.14 2.35-.07.05-.13.1-.2.16-.4964345.31577004-1.0716648.48556694-1.66.49-.5861224.00180783-1.1598674-.16857705-1.65-.49-.07-.05-.14-.1-.21-.16-.7252152-.5630694-1.146682-1.43188257-1.14-2.35-.0031645-.2917901.040732-.58218225.13-.86v-.01c1.9091829-.18169284 3.8314618-.17834393 5.74.01.089268.27781775.1331645.5682099.13.86z" fill="#ffeb3a"/><path id="Shape" d="m9.04 14.91c-.02652909.2676087-.09048624.5301696-.19.78-.03250949.0818408-.06922508.1619475-.11.24-.53623207 1.0797271-1.66669584 1.7335842-2.87 1.66-.03984383.0049987-.08015617.0049987-.12 0-.04394739-.0017585-.08755629-.0084676-.13-.02-1.59054795-.2277783-2.71669422-1.6718953-2.55-3.27.02869634-.2812205.09599559-.5571474.2-.82.50074454-1.2390398 1.7606875-1.9974521 3.09-1.86.58240599.0580116 1.13342462.2916714 1.58.67.07570221.0450865.14330659.1025502.2.17.65676714.6374375.98795065 1.5389927.9 2.45z" fill="#ffeb3a"/><g fill="#3f51b5"><path id="Shape" d="m10.58 22.38c-.86.51-2.6 1.51-4.11-1.08-.70627525-1.0960605-.92371105-2.4369147-.6-3.7v-.01c1.20330416.0735842 2.33376793-.5802729 2.87-1.66h.01c1.2579627.3379772 2.3147454 1.1913928 2.91 2.35 1.51 2.6-.22 3.6-1.08 4.1z"/><path id="Shape" d="m12.55 16.27c-1.2603261.3295996-2.6009832.1194425-3.7-.58.09951376-.2498304.16347091-.5123913.19-.78.08795065-.9110073-.24323286-1.8125625-.9-2.45v-.01c.71526845-1.0910368 1.85339605-1.8340819 3.14-2.05 2.93-.63 3.36 1.32 3.57 2.3s.63 2.94-2.3 3.57z"/><path id="Shape" d="m36.96 14.91c.0265291.2676087.0904862.5301696.19.78-1.0990168.6994425-2.4396739.9095996-3.7.58-2.93-.63-2.51-2.59-2.3-3.57s.64-2.93 3.57-2.3c1.286604.2159181 2.4247316.9589632 3.14 2.05l.01.01c-.6636042.6335037-.9991519 1.5369012-.91 2.45z"/><path id="Shape" d="m40.38 18.18-.13.01c.1169423 1.08816-.136744 2.1839438-.72 3.11-1.51 2.59-3.25 1.59-4.11 1.08s-2.59-1.5-1.08-4.1c.5952546-1.1586072 1.6520373-2.0120228 2.91-2.35h.01c.5362321 1.0797271 1.6666958 1.7335842 2.87 1.66.0398438.0049987.0801562.0049987.12 0 .0439474-.0017585.0875563-.0084676.13-.02-.0150586.2030545-.0150586.4069455 0 .61z"/><path id="Shape" d="m43.99 20.86c-.01.5-.03.98-.07 1.45-.2894528-.0010992-.5755122-.0623976-.84-.18-.5324462-.2427133-1.0013854-.6055422-1.37-1.06-.7542912-.7873268-1.2226148-1.8049621-1.33-2.89-.0150586-.2030545-.0150586-.4069455 0-.61 1.5905479-.2277783 2.7166942-1.6718953 2.55-3.27-.0212147-.1893724-.058006-.3766735-.11-.56-.0221445-.081437-.0488534-.1615637-.08-.24l.17-.08c.03.08.06.17.09.26.7724925 2.3112097 1.1082056 4.7459781.99 7.18z"/><path id="Shape" d="m42.91 13.42-.17.08c-.497433-1.2487297-1.7627463-2.016081-3.1-1.88-.582406.0580116-1.1334246.2916714-1.58.67l-.01-.01c-1.0110821-.8247806-1.6281619-2.037161-1.7-3.34-.17-1.64.36-2.44 1.03-2.84v-.01c2.5657432 1.80363963 4.5001211 4.3676523 5.53 7.33z"/></g><path id="Shape" d="m40.92 32.63c1.7432157-3.1789902 2.7673177-6.7019012 3-10.32-.2894528-.0010992-.5755122-.0623976-.84-.18-.5324462-.2427133-1.0013854-.6055422-1.37-1.06-.7542912-.7873268-1.2226148-1.8049621-1.33-2.89l-.13.01c.1169423 1.08816-.136744 2.1839438-.72 3.11-1.51 2.59-3.25 1.59-4.11 1.08s-2.59-1.5-1.08-4.1c.5952546-1.1586072 1.6520373-2.0120228 2.91-2.35h.01c-.0407749-.0780525-.0774905-.1581592-.11-.24-1.0990168.6994425-2.4396739.9095996-3.7.58-2.93-.63-2.51-2.59-2.3-3.57s.64-2.93 3.57-2.3c1.286604.2159181 2.4247316.9589632 3.14 2.05l.01.01c.0531815-.0670813.1174406-.1245763.19-.17l-.01-.01c-1.0110821-.8247806-1.6281619-2.037161-1.7-3.34-.17-1.64.36-2.44 1.03-2.84v-.01c-.28-.2-.57-.39-.87-.57-1.5500534-.97527075-3.2253575-1.73554933-4.98-2.26.3903466.7922949.4013744 1.71863699.03 2.52-.31.95-.93 2.85-3.78 1.93-1.2589167-.34686842-2.3167761-1.20185071-2.92-2.36-.07.05-.13.1-.2.16.9123975.92647588 1.397906 2.19097206 1.34 3.49 0 3-2 3-3 3s-3 0-3-3c-.0648837-1.3020752.4257792-2.57052971 1.35-3.49-.07-.05-.14-.1-.21-.16-.6032239 1.15814929-1.6610833 2.01313158-2.92 2.36-2.85.92-3.47-.98-3.78-1.93-.3713744-.80136301-.3603466-1.7277051.03-2.52-2.0860331.63289857-4.0575486 1.59502514-5.84 2.85.67.4 1.19 1.2 1.02 2.83-.07183807 1.302839-.68891792 2.5152194-1.7 3.34l-.01.01c.07570221.0450865.14330659.1025502.2.17v-.01c.71526845-1.0910368 1.85339605-1.8340819 3.14-2.05 2.93-.63 3.36 1.32 3.57 2.3s.63 2.94-2.3 3.57c-1.2603261.3295996-2.6009832.1194425-3.7-.58-.03250949.0818408-.06922508.1619475-.11.24h.01c1.2579627.3379772 2.3147454 1.1913928 2.91 2.35 1.51 2.6-.22 3.6-1.08 4.1s-2.6 1.51-4.11-1.08c-.70627525-1.0960605-.92371105-2.4369147-.6-3.7v-.01c-.03984383.0049987-.08015617.0049987-.12 0-.04394739-.0017585-.08755629-.0084676-.13-.02.06190108 1.3007334-.41989865 2.5686275-1.33 3.5-.36861459.4544578-.83755383.8172867-1.37 1.06-.26448783.1176024-.5505472.1789008-.84.18.2325533 3.6181214 1.25666332 7.1410598 3 10.32-.28209148 1.1468278-.64294781 2.2728332-1.08 3.37-.66554183 1.47173-.6289008 3.165667.09965782 4.6072417.72855862 1.4415746 2.07067395 2.4757369 3.65034218 2.8127583 1.09962041.2324944 2.24560868.0843974 3.25-.42.19-.1.38-.18.55-.26 1.2930477 2.2322186 2.126086 4.7007321 2.45 7.26 0 0 .64 2.28 5 2.79 1.3280023.1491011 2.6636856.2192244 4 .21 1.3363144.0092244 2.6719977-.0608989 4-.21 4.36-.51 5-2.79 5-2.79.323914-2.5592679 1.1569523-5.0277814 2.45-7.26.17.08.36.16.55.26 1.0043913.5043974 2.1503796.6524944 3.25.42 1.5796682-.3370214 2.9217836-1.3711837 3.6503422-2.8127583.7285586-1.4415747.7651996-3.1355117.0996578-4.6072417-.4370522-1.0971668-.7979085-2.2231722-1.08-3.37zm-24.86 3.37c-2.02 0-7.06 0-7.06-5s7.06-4 9.08-4c5.14 0 3.12 9-2.02 9zm8.94 8c-.8819062-.0725569-1.65147-.6266429-2-1.44-.34853.8133571-1.1180938 1.3674431-2 1.44-.5987699-.0660007-1.1465145-.3680095-1.5219122-.8391337-.3753978-.4711242-.5474642-1.0724781-.4780878-1.6708663 0-1.87 1.63-3.12 4-5.49 2.37 2.37 4 3.62 4 5.49.0693764.5983882-.10269 1.1997421-.4780878 1.6708663-.3753977.4711242-.9231423.773133-1.5219122.8391337zm4.94-8c-5.04 0-7.06-9-2.02-9 2.02 0 9.08-1 9.08 4s-5.04 5-7.06 5z" fill="#ffe0b2"/><path id="Shape" d="m8.74 15.93h.01c.29867061.075025.58785634.1837212.862.324.093-.021.179-.046.265-.069-.36416508-.1174867-.70991265-.2858156-1.027-.5-.03234968.0835372-.06906697.1653166-.11.245z" fill="#dfc49c"/><path id="Shape" d="m32 43c-.19-.1-.38-.18-.55-.26-1.2930477 2.2322186-2.126086 4.7007321-2.45 7.26 0 0-.64 2.28-5 2.79-.719.087-1.556.148-2.5.181.473.017.966.029 1.5.029 1.3363144.0092244 2.6719977-.0608989 4-.21 4.36-.51 5-2.79 5-2.79.3189491-2.2584252.9975426-4.4511939 2.01-6.495-.6983208-.0232517-1.3836155-.1954277-2.01-.505z" fill="#dfc49c"/><path id="Shape" d="m40.92 32.63c1.7432157-3.1789902 2.7673177-6.7019012 3-10.32-.2894528-.0010992-.5755122-.0623976-.84-.18-.5324462-.2427133-1.0013854-.6055422-1.37-1.06-.7542912-.7873268-1.2226148-1.8049621-1.33-2.89l-.13.01c.1169423 1.08816-.136744 2.1839438-.72 3.11-.074.127-.149.238-.223.348.2330093.1971925.493386.359549.773.482.2644878.1176024.5505472.1789008.84.18-.2326823 3.6180988-1.2567843 7.1410098-3 10.32.2820915 1.1468278.6429478 2.2728332 1.08 3.37.6297758 1.3919665.6324371 2.9871642.0073092 4.3812242-.6251278 1.39406-1.8180275 2.4531413-3.2763092 2.9087758.8145005.259319 1.6821319.3040955 2.519.13 1.5796682-.3370214 2.9217836-1.3711837 3.6503422-2.8127583.7285586-1.4415747.7651996-3.1355117.0996578-4.6072417-.4370522-1.0971668-.7979085-2.2231722-1.08-3.37z" fill="#dfc49c"/><path id="Shape" d="m16.06 36c-2.02 0-7.06 0-7.06-5s7.06-4 9.08-4c5.14 0 3.12 9-2.02 9z" fill="#37474f"/><path id="Shape" d="m27 41.49c.0693764.5983882-.10269 1.1997421-.4780878 1.6708663-.3753977.4711242-.9231423.773133-1.5219122.8391337-.8819062-.0725569-1.65147-.6266429-2-1.44-.34853.8133571-1.1180938 1.3674431-2 1.44-.5987699-.0660007-1.1465145-.3680095-1.5219122-.8391337-.3753978-.4711242-.5474642-1.0724781-.4780878-1.6708663 0-1.87 1.63-3.12 4-5.49 2.37 2.37 4 3.62 4 5.49z" fill="#37474f"/><path id="Shape" d="m38.25 43.42c-.8031861 1.7518205-1.229065 3.652944-1.25 5.58 0 5 0 11-14 11s-14-6-14-11c-.02093495-1.927056-.44681386-3.8281795-1.25-5.58 1.09962041.2324944 2.24560868.0843974 3.25-.42.19-.1.38-.18.55-.26 1.2930477 2.2322186 2.126086 4.7007321 2.45 7.26 0 0 .64 2.28 5 2.79 1.3280023.1491011 2.6636856.2192244 4 .21 1.3363144.0092244 2.6719977-.0608989 4-.21 4.36-.51 5-2.79 5-2.79.323914-2.5592679 1.1569523-5.0277814 2.45-7.26.17.08.36.16.55.26 1.0043913.5043974 2.1503796.6524944 3.25.42z" fill="#ffe0b2"/><path id="Shape" d="m35 43c-.19-.1-.38-.18-.55-.26-.131.2-.282.467-.44.765.4152584.0231219.8317809-.0054301 1.24-.085-.8031861 1.7518205-1.229065 3.652944-1.25 5.58 0 4.814-.006 10.552-12.5 10.973.483.016.979.027 1.5.027 14 0 14-6 14-11 .020935-1.927056.4468139-3.8281795 1.25-5.58-1.0996204.2324944-2.2456087.0843974-3.25-.42z" fill="#dfc49c"/><path id="Shape" d="m37 31c0 5-5.04 5-7.06 5-5.04 0-7.06-9-2.02-9 2.02 0 9.08-1 9.08 4z" fill="#37474f"/><path id="Shape" d="m26 9c0 3-2 3-3 3s-3 0-3-3c-.0648837-1.3020752.4257792-2.57052971 1.35-3.49.4901326.32142295 1.0638776.49180783 1.65.49.5883352-.00443306 1.1635655-.17422996 1.66-.49.9123975.92647588 1.397906 2.19097206 1.34 3.49z" fill="#f44335"/><path id="Shape" d="m31.56 5.78c-.31.95-.93 2.85-3.78 1.93-1.2589167-.34686842-2.3167761-1.20185071-2.92-2.36.7252152-.5630694 1.146682-1.43188257 1.14-2.35.0031645-.2917901-.040732-.58218225-.13-.86 1.9166222.17382161 3.8100699.54580867 5.65 1.11 0 .00552285.0044772.01.01.01.3903466.7922949.4013744 1.71863699.03 2.52z" fill="#f44335"/><path id="Shape" d="m22.071 30.238c.0362454-1.0525169-.2978101-2.0844086-.944-2.916-.7566776-.888599-1.882165-1.3767534-3.048-1.322-.229 0-.527-.014-.873-.03-2.184-.1-5.842-.266-7.868 1.669-.90115694.8807567-1.3872803 2.1018782-1.338 3.361 0 6 6.067 6 8.061 6 3.539 0 6.01-3.563 6.01-6.762zm-6.01 4.762c-3.148 0-6.061-.484-6.061-4-.04413317-.7118105.2178393-1.4085845.72-1.915 1.022-.976 3.013-1.166 4.7-1.166.633 0 1.223.027 1.7.049.382.017.711.032.964.032.5675913-.0424561 1.1231065.1788647 1.506.6.3437025.4759132.515109 1.0546747.486 1.641-.005 1.986-1.531 4.759-4.015 4.759z" fill="#000"/><path id="Shape" d="m24.735 36.3c-.323-.315-.667-.65-1.028-1.011-.3904999-.3903819-1.0235001-.3903819-1.414 0-.361.361-.7.7-1.028 1.011-1.896 1.849-3.265 3.183-3.265 5.195-.0711403.8635434.2058152 1.7197012.7692415 2.3779709s1.3665821 1.064042 2.2307585 1.1270291c.7418591-.0027559 1.4556372-.2839845 2-.788.5443628.5040155 1.2581409.7852441 2 .788.8641764-.0629871 1.6673322-.4687594 2.2307585-1.1270291s.8403818-1.5144275.7692415-2.3779709c0-2.012-1.369-3.346-3.265-5.195zm.265 6.7c-.684 0-1.067-.8-1.083-.84-.1594495-.3599838-.5152894-.5929043-.909-.595-.4028553-.0181832-.7732917.2199545-.924.594 0 .008-.388.841-1.084.841-.626 0-1-.765-1-1.505 0-1.119.863-2.009 2.66-3.758l.34-.332.34.332c1.8 1.749 2.66 2.639 2.66 3.758 0 .74-.374 1.505-1 1.505z" fill="#000"/><path id="Shape" d="m37.048 4.677c-9.354-5.977-26.409-4.983-33.018 4.681-.06698017.08068851-.1268692.16700901-.179.258-2.1073444 3.3642258-3.10138501 7.3067987-2.841 11.268.03739856 4.1350814 1.06909529 8.2004741 3.008 11.853-.2562493.9821259-.57251001 1.947606-.947 2.891-1.0879076 2.48144-.48873903 5.3794266 1.494 7.226.70139652.6395267 1.53823485 1.1122993 2.448 1.383.63524281 1.5084888.97048866 3.1262963.987 4.763 0 5.064 0 12 15 12s15-6.936 15-12c.0165113-1.6367037.3517572-3.2545112.987-4.763.9097651-.2707007 1.7466035-.7434733 2.448-1.383 1.982739-1.8465734 2.5819076-4.74456 1.494-7.226-.3743332-.9437911-.6905903-1.9095943-.947-2.892 1.9348721-3.6479717 2.9664007-7.7068721 3.008-11.836.254-7.131-2.65-13.048-7.942-16.223zm3.352 5.956c-.2861341-.0343763-.5751454-.0377291-.862-.01-.4719878.051055-.9309537.1865431-1.355.4-.4925319-.6275449-.7858016-1.38823496-.842-2.184-.0808294-.47676481-.0321334-.96648819.141-1.418 1.137794.90813902 2.1229179 1.9925181 2.918 3.212zm2.59 10.207v.076c-.1921738-.1538482-.3696062-.3252546-.53-.512-.5512454-.5777516-.9175407-1.3068602-1.052-2.094.5383484-.2110437 1.0237816-.5377382 1.422-.957.151654 1.1557343.2051785 2.3222341.16 3.487zm-4.326-.04c-.2488779.5230425-.6776694.9390555-1.208 1.172-.5499787.0444277-1.0967164-.1182027-1.533-.456-.425-.246-1.006-.582-1.143-1.1-.0565977-.5791824.0959306-1.1594991.43-1.636.3722562-.7030996.9494336-1.2764407 1.655-1.644.6087649.7398843 1.4628877 1.2366737 2.407 1.4.0279817.7984511-.1837809 1.586988-.608 2.264zm1.487-4.2c-1.0978454.1114084-2.0784847-.6874038-2.1914195-1.7850932-.1129347-1.0976894.6845133-2.0794385 1.7820446-2.1938993s2.0803882.6816214 2.1963749 1.7789925c.1088628 1.0978766-.6897045 2.0774286-1.787 2.192zm-4.182-1.585c0 .056.024.106.032.161-.7492182.2733905-1.563058.3165724-2.337.124-1.948-.419-1.76-1.323-1.539-2.379.218-1 .43-1.953 2.382-1.531.7881535.1394416 1.5154921.5146172 2.086 1.076-.4907087.7514806-.7107956 1.6477001-.624 2.541zm-5.36-9.545c-.319.977-.622 1.9-2.521 1.289-.7625914-.22133123-1.4425288-.66360371-1.954-1.271.4995914-.63568877.7914661-1.40971537.836-2.217 1.2908325.1744423 2.5669846.44417901 3.818.807.0667692.47165317.0049254.95258414-.179 1.392zm-15.4-1.378c1.2523709-.36856183 2.5306235-.64266412 3.824-.82.043394.80836043.3337987 1.58393647.832 2.222-.5111623.60390556-1.189126 1.04359062-1.949 1.264-1.9.613-2.2-.31-2.522-1.288-.1822856-.43493694-.2471158-.91012876-.188-1.378zm6.408 2.652c.4421641.16669729.910464.25338187 1.383.256.4736082-.00444253.9427481-.09211009 1.386-.259.4263248.67449778.6402323 1.46149644.614 2.259 0 2-.972 2-2 2s-2 0-2-2c-.0270555-.79665734.1869406-1.58293599.614-2.256zm3.379-3.676c-.0083268.57105099-.2699186 1.10888963-.714 1.468-.072.051-.136.1-.2.16-.6609684.39440602-1.4850316.39440602-2.146 0-.0613419-.04220114-.1204233-.08759708-.177-.136-.4603356-.36010525-.7336838-.90863864-.744-1.493 1.3245242-.08880931 2.6535206-.08847522 3.978.001zm-19.339 7.454c.79840573-1.15975543 1.76654752-2.19295689 2.872-3.065.15863061.44180917.20199645.91676836.126 1.38-.05601694.79580547-.34930647 1.556547-.842 2.184-.68956016-.3516249-1.46965125-.4855342-2.237-.384.007-.011.013-.023.021-.035.02142481-.0255677.04145395-.0522732.06-.08zm-2.648 10.3c-.04166943-1.1604556.01217876-2.3223726.161-3.474.39851012.4203275.88468799.7477464 1.424.959-.13456559.7896906-.50233754 1.5210553-1.056 2.1-.15891196.1824328-.33432258.3498094-.524.5-.001-.022-.004-.051-.005-.083zm4.591-7.484c.59071393.7243489.60095746 1.7612418.0246692 2.4971196-.57628826.7358777-1.585408.9744762-2.43023414.57461-.84482613-.3998663-1.30003731-1.3315501-1.09627204-2.2437474s1.0121613-1.5616184 1.94683698-1.5639822c.06879235-.0001853.13754905.0031524.206.01.52853091.0522865 1.01423116.313679 1.349.726zm-.875 5.2c.94374244-.1643417 1.79753537-.6609392 2.407-1.4.70696308.3686587 1.2849241.9438294 1.657 1.649.3335058.4748118.4853917 1.0536105.428 1.631-.137.515-.718.851-1.151 1.1-.43489198.3340971-.97834469.4948166-1.525.451-.52869538-.2327941-.95628207-.6476064-1.205-1.169-.4236394-.6761567-.63537845-1.4635612-.608-2.261zm3.275-3.37c.008-.055.027-.1.032-.161.0886547-.8959566-.13150846-1.7953091-.624-2.549.57240678-.5622516 1.3018164-.9377651 2.092-1.077 1.956-.421 2.161.528 2.382 1.542.219 1.046.407 1.95-1.539 2.368-.7757373.1941213-1.5918522.1512779-2.343-.123zm13 43.832c-13 0-13-5.083-13-10-.0091913-1.5310708-.26548826-3.050618-.759-4.5.65340578-.0522256 1.2936941-.2120443 1.895-.473.9324268 1.9129905 1.5612931 3.9595051 1.864 6.066v2.907c0 .5522847.4477153 1 1 1s1-.4477153 1-1v-.447c.9221457.5516048 1.9398524.9247639 3 1.1v1.347c0 .5522847.4477153 1 1 1s1-.4477153 1-1v-1.11c.628.0486667 1.2946667.082 2 .1v2.01c0 .5522847.4477153 1 1 1s1-.4477153 1-1v-2.012c.706-.016 1.3726667-.0493333 2-.1v1.112c0 .5522847.4477153 1 1 1s1-.4477153 1-1v-1.35c1.0599834-.1758587 2.077577-.5489763 3-1.1v.45c0 .5522847.4477153 1 1 1s1-.4477153 1-1v-2.907c.3028079-2.1061526.931672-4.1523223 1.864-6.065.6028738.2614892 1.2448951.4213187 1.9.473-.4951057 1.4487839-.7530908 2.9679921-.764 4.499 0 4.917 0 10-13 10zm18-33c0-.5522847-.4477153-1-1-1s-1 .4477153-1 1c.0910864 3.5504421.7916136 7.0588284 2.071 10.372.7848955 1.7087561.3858406 3.7282157-.99 5.01-1.2407094 1.1879188-3.090388 1.4765069-4.634.723-1.905-.952-3.508-1.222-4.763-.8-.6693651.1958115-1.236997.6430367-1.584 1.248-.2510725.4974303-.0565026 1.1042926.437 1.363.2326041.1218843.5043938.1453166.7544269.0650428s.457389-.257537.5755731-.4920428c.181-.28.831-.571 2.126-.212-.9741082 2.0454711-1.6377398 4.2247714-1.969 6.466-.1.231-.7 1.335-3.029 1.865v-1.608c0-.5522847-.4477153-1-1-1s-1 .4477153-1 1v1.886c-.621.052-1.29.086-2 .1v-1.986c0-.5522847-.4477153-1-1-1s-1 .4477153-1 1v1.988c-.709-.017-1.378-.05-2-.1v-1.888c0-.5522847-.4477153-1-1-1s-1 .4477153-1 1v1.608c-2.376-.539-2.949-1.672-3.027-1.854-.3312338-2.2520146-.9990243-4.4414641-1.981-6.495.3235202-.1234512.6719694-.1673503 1.016-.128.0361747.5514563.5125437.9691747 1.064.933s.9691747-.5125437.933-1.064c-.0154957-.6370523-.3523078-1.2229926-.895-1.557-.972-.6-2.462-.383-4.552.662-1.54361203.7535069-3.3932906.4649188-4.634-.723-1.37584062-1.2817843-1.77489552-3.3012439-.99-5.01 1.27938644-3.3131716 1.97991363-6.8215579 2.071-10.372 0-.5522847-.44771525-1-1-1s-1 .4477153-1 1c-.02702811 1.1452276-.1272324 2.2875566-.3 3.42-.81199533-2.0223624-1.32992844-4.1506701-1.538-6.32.049-.019.1-.027.147-.047.67096562-.3003645 1.26364818-.7513782 1.732-1.318.122-.137.221-.273.326-.409.077.157.151.315.245.477.49350272.9999418 1.37081443 1.757489 2.432 2.1.24539142.0651907.49809976.0987956.752.1.8165557-.0419797 1.6066567-.3035042 2.287-.757.9788585-.4555276 1.7283862-1.2921509 2.074-2.315.2226906-1.0902619-.0041079-2.2242546-.629-3.145-.094-.164-.2-.306-.294-.452.173-.024.344-.045.527-.084 2.581-.556 3.617-2.147 3.073-4.761-.566-2.588-2.166-3.619-4.753-3.06-.183.039-.348.089-.516.138.03-.171.064-.337.084-.521.1468849-.94112398-.0181784-1.90446154-.47-2.743.9602237-.5887968 1.969269-1.09398862 3.016-1.51.0549702.44250726.1555038.87815259.3 1.3.617 1.907 1.74 2.865 3.343 2.865.5755249-.0113186 1.1457426-.11254068 1.69-.3.179-.058.339-.125.5-.191-.013.174-.03.343-.03.53 0 2.654 1.346 4 4 4s4-1.346 4-4c0-.186-.017-.356-.03-.53.163.066.324.134.5.192.5436825.1870168 1.1131719.28822937 1.688.3 1.6 0 2.728-.961 3.352-2.875.1466615-.42499522.2472387-.86451732.3-1.311 1.0515366.41168762 2.0639428.91705402 3.025 1.51-.4608171.84160627-.6299547 1.81212552-.481 2.76.02.185.054.351.084.521-.167-.048-.331-.1-.513-.137-2.591-.556-4.19.472-4.761 3.089-.539 2.585.5 4.176 3.08 4.732.182.039.353.06.525.084-.1.145-.2.285-.292.448-.6260229.9217747-.8535386 2.0571896-.631 3.149.3436922 1.0201882 1.0903446 1.8550222 2.066 2.31.683879.4568524 1.4786269.7201559 2.3.762.2535713-.0012022.5059493-.0348078.751-.1 1.0612428-.3424093 1.9385896-1.0999868 2.432-2.1.094-.162.168-.318.245-.476.1.134.2.268.321.4.4660302.5661038 1.0563224 1.0171213 1.725 1.318.053.024.109.033.163.053-.2116484 2.167094-.7305131 4.293059-1.541 6.314-.1736569-1.1290948-.2758602-2.2680265-.306-3.41z" fill="#000"/><path id="Shape" d="m28.794 25.97c-.346.016-.644.03-.873.03-1.151491-.0526929-2.2613917.4360334-3 1.321-.6313705.8300687-.9567083 1.8527104-.921 2.895 0 3.209 2.439 6.784 5.939 6.784 1.994 0 8.061 0 8.061-6 .0492803-1.2591218-.4368431-2.4802433-1.338-3.361-2.026-1.939-5.683-1.769-7.868-1.669zm1.145 9.03c-2.439 0-3.939-2.786-3.939-4.784-.0297847-.5819583.1367917-1.1570519.473-1.633.3635295-.4120778.900353-.628216 1.448-.583.253 0 .582-.015.964-.032.477-.022 1.067-.049 1.7-.049 1.682 0 3.673.19 4.7 1.166.5003342.5072793.7604464 1.2039436.715 1.915 0 3.516-2.913 4-6.061 4z" fill="#000"/><path id="Shape" d="m21 19h1v3c0 .5522847.4477153 1 1 1s1-.4477153 1-1v-3h1c.5522847 0 1-.4477153 1-1s-.4477153-1-1-1h-1v-1c0-.5522847-.4477153-1-1-1s-1 .4477153-1 1v1h-1c-.5522847 0-1 .4477153-1 1s.4477153 1 1 1z" fill="#000"/></g></g></svg>