<?xml version="1.0" encoding="iso-8859-1"?>
<!-- Generator: Adobe Illustrator 19.0.0, SVG Export Plug-In . SVG Version: 6.00 Build 0)  -->
<svg version="1.1" id="Layer_1" xmlns="http://www.w3.org/2000/svg" xmlns:xlink="http://www.w3.org/1999/xlink" x="0px" y="0px"
	 viewBox="0 0 511.999 511.999" style="enable-background:new 0 0 511.999 511.999;" xml:space="preserve">
<g>
	<circle style="fill:#5F4D37;" cx="158.031" cy="91.895" r="18.499"/>
	<circle style="fill:#5F4D37;" cx="223.881" cy="91.895" r="18.499"/>
	<circle style="fill:#5F4D37;" cx="284.56" cy="106.058" r="18.499"/>
	<circle style="fill:#5F4D37;" cx="341.742" cy="132.054" r="18.499"/>
	<circle style="fill:#5F4D37;" cx="390.58" cy="169.06" r="18.499"/>
	<circle style="fill:#5F4D37;" cx="430.536" cy="215.961" r="18.499"/>
	<circle style="fill:#5F4D37;" cx="457.779" cy="268.996" r="18.499"/>
	<circle style="fill:#5F4D37;" cx="476.282" cy="329.676" r="18.499"/>
	<circle style="fill:#5F4D37;" cx="485.893" cy="387.983" r="18.499"/>
</g>
<path style="fill:#A78966;" d="M215.513,301.372c0,0,32.49,49.446,19.974,117.103c-3.033,16.397,9.572,31.518,26.247,31.472
	c44.569-0.124,121.271,0.103,169.983,0.28c25.775,0.093,46.19-21.699,44.458-47.416c-6.528-96.924-51.165-307.657-316.357-302.082
	L215.513,301.372z"/>
<g>
	<path style="fill:#957856;" d="M195.415,228.426l-0.125,0.08l20.222,72.851c0,0,32.49,49.446,19.974,117.103
		c-3.033,16.397,9.572,31.518,26.247,31.472c22.019-0.061,51.883-0.036,82.34,0.025c0.004-0.005,0.009-0.009,0.014-0.013
		C337.015,276.006,248.084,236.49,195.415,228.426z"/>
	<path style="fill:#957856;" d="M234.271,143.44l-61.734,3.155l42.977,154.824c0,0,10.604,16.148,17.362,42.606
		C322.191,230.57,234.271,143.44,234.271,143.44z"/>
</g>
<path style="fill:#806749;" d="M195.415,228.426l-0.125,0.08l20.222,72.851c0,0,10.617,16.166,17.375,42.651
	c23.178-29.447,34.414-57.119,38.349-81.954C245.342,240.54,217.26,231.771,195.415,228.426z"/>
<g>
	<path style="fill:#957856;" d="M408.568,278.92c-1.716-4.649-4.171-8.999-6.377-13.307c-1.915-3.738-0.438-8.32,3.3-10.234
		c3.739-1.916,8.319-0.438,10.235,3.3c2.328,4.542,4.589,9.262,6.722,14.026c1.716,3.833,0.001,8.331-3.832,10.047
		C417.605,283.204,410.867,285.147,408.568,278.92z"/>
	<path style="fill:#957856;" d="M428.616,339.451c-2.194-14.534-7.414-28.177-12.192-41.188c-1.447-3.942,0.576-8.312,4.518-9.758
		c3.944-1.451,8.311,0.576,9.759,4.518c4.993,13.601,9.276,28.069,12.731,43.002c0.947,4.091-1.602,8.176-5.694,9.123
		C437.162,345.279,429.793,347.246,428.616,339.451z"/>
</g>
<path style="fill:#806749;" d="M155.532,144.226c-12.88-17.983-42.735-51.805-89.636-60.152c-6.102-1.086-10.476,5.725-6.866,10.764
	c7.665,10.695,19.06,26.277,28.158,38.671c9.198,12.529,23.614,20.164,39.146,20.738l23.353,0.863
	C155.406,155.321,158.864,148.878,155.532,144.226z"/>
<path style="fill:#D9CCBC;" d="M48.301,372.827l23.871,12.891c7.693,4.155,17.234,2.479,23.051-4.048l20.412-22.902L81.97,332.869
	L48.301,372.827z"/>
<path style="fill:#B39A7C;" d="M254.008,193.743c17.759,129.847-102.113,124.826-102.113,124.826l-36.258,40.199l-18.018-4.672
	c-7.721-2.001-15.932-0.106-21.995,5.075l-22.593,19.311c-7.773,6.644-19.079,7.118-27.381,1.15l-7.419-5.335
	c-6.671-4.797-10.626-12.511-10.626-20.727v-46.209c0-13.27,3.718-26.276,10.731-37.542l83.462-134.067
	c22.769-36.575,71.995-46.538,106.681-20.982C227.265,128.614,244.411,152.717,254.008,193.743z"/>
<path style="fill:#A78966;" d="M52.543,289.091l80.754-166.853c3.419-7.064,7.662-13.457,12.552-19.124
	c-17.61,4.724-33.615,15.878-44.053,32.646L18.335,269.825c-7.013,11.266-10.731,24.272-10.731,37.542v46.209
	c0,8.216,3.955,15.931,10.626,20.727l7.419,5.335c7.164,5.15,16.56,5.492,23.997,1.224l-4.964-46.619
	C43.034,318.753,45.758,303.111,52.543,289.091z"/>
<path style="fill:#EBE5DD;" d="M93.025,149.843l-74.69,119.976c-7.013,11.266-10.731,24.272-10.731,37.542v46.207
	c0,8.216,3.955,15.932,10.626,20.728l7.419,5.335c8.303,5.97,19.609,5.495,27.381-1.15l22.593-19.311
	c6.063-5.182,14.274-7.077,21.995-5.075l18.018,4.672l36.258-40.199L89.294,308.4c-17.095-2.777-28.284-19.424-24.4-36.3
	L93.025,149.843z"/>
<path style="fill:#D9CCBC;" d="M52.543,289.084l16.093-33.252l24.388-105.99l-74.69,119.977
	c-7.013,11.266-10.731,24.272-10.731,37.542v46.207c0,8.216,3.955,15.932,10.626,20.728l7.419,5.335
	c7.164,5.151,16.56,5.492,23.997,1.224l-4.964-46.619C43.034,318.746,45.758,303.105,52.543,289.084z"/>
<path style="fill:#3E3D42;" d="M27.327,290.662l-14.22-10.691c-3.611,8.642-5.502,17.945-5.502,27.385v31.058l9.33-2.691
	c6.175-1.781,11.019-6.583,12.854-12.743l3.888-13.052C35.795,302.81,33.263,295.125,27.327,290.662z"/>
<path style="fill:#2D2D30;" d="M31.392,317.591l2.283-7.665c2.12-7.117-0.413-14.802-6.349-19.264l-14.22-10.691
	c-2.609,6.244-4.306,12.837-5.054,19.574C8.052,299.545,30.384,316.516,31.392,317.591z"/>
<g>
	<path style="fill:#A78966;" d="M172.551,129.642c-12.88-17.983-42.735-51.805-89.637-60.152
		c-6.102-1.086-10.476,5.725-6.866,10.764c7.665,10.695,19.06,26.277,28.158,38.671c9.198,12.529,23.614,20.164,39.146,20.738
		l23.353,0.863C172.424,140.736,175.884,134.294,172.551,129.642z"/>
	<path style="fill:#A78966;" d="M119.439,101.536c-6.647-8.513-13.912-18.981-20.481-28.034c-5.108-1.65-10.451-3.016-16.043-4.012
		c-6.102-1.086-10.476,5.725-6.866,10.764c7.665,10.695,19.06,26.277,28.158,38.671c9.198,12.529,23.614,20.164,39.146,20.738
		l23.353,0.864c5.718,0.211,9.177-6.231,5.846-10.884c-1.537-2.146-3.323-4.523-5.344-7.049
		C167.207,122.591,135.35,121.915,119.439,101.536z"/>
</g>
<circle style="fill:#3E3D42;" cx="107.054" cy="196.728" r="19.23"/>
<path d="M252.978,186.209c-4.161,0.569-7.073,4.403-6.503,8.564c0.527,3.854,0.939,7.673,1.223,11.35
	c0.308,3.988,3.64,7.018,7.574,7.018c0.196,0,0.395-0.008,0.594-0.023c4.187-0.323,7.319-3.98,6.995-8.168
	c-0.307-3.973-0.75-8.091-1.318-12.238C260.973,188.552,257.136,185.639,252.978,186.209z"/>
<path d="M485.897,361.881c-2.207,0-4.37,0.278-6.457,0.808c-0.351-2.314-0.724-4.649-1.118-7.004
	c13.441-1.046,24.059-12.31,24.059-26.016c0-14.393-11.709-26.103-26.102-26.103c-3.27,0-6.484,0.635-9.489,1.809
	c-1.071-3.618-2.207-7.25-3.404-10.892c11.707-2.573,20.496-13.022,20.496-25.491c0-14.393-11.71-26.103-26.103-26.103
	c-5.031,0-9.828,1.423-13.924,4.008c-1.137-2.261-2.299-4.516-3.499-6.763c9.538-3.889,16.283-13.258,16.283-24.179
	c0-14.393-11.71-26.103-26.103-26.103c-6.913,0-13.35,2.718-18.12,7.323c-1.963-2.492-3.954-4.953-5.992-7.359
	c6.318-4.813,10.257-12.386,10.257-20.762c0-14.393-11.71-26.103-26.103-26.103c-8.638,0-16.482,4.218-21.282,10.991
	c-2.383-1.879-4.802-3.711-7.251-5.503c3.671-4.552,5.799-10.294,5.799-16.383c0-14.393-11.71-26.103-26.103-26.103
	c-10.93,0-20.308,6.756-24.19,16.309c-3.21-1.484-6.464-2.912-9.762-4.283c1.876-3.644,2.874-7.704,2.874-11.92
	c0-14.393-11.71-26.103-26.103-26.103c-13.16,0-24.071,9.792-25.844,22.472c-3.344-0.764-6.722-1.481-10.134-2.152
	c0.909-2.682,1.404-5.507,1.404-8.381c0-14.393-11.71-26.103-26.103-26.103s-26.103,11.709-26.103,26.103
	c0,0.663,0.032,1.321,0.081,1.976c-4.572-0.283-9.19-0.497-13.856-0.638c0.077-0.435,1.192-27.44-25.977-27.44
	c-10.844,0-20.163,6.649-24.1,16.083c-13.831-8.981-30.364-16.437-49.681-19.874c-0.869-0.155-1.751-0.233-2.621-0.233
	c-5.441,0-10.379,3.031-12.886,7.911c-1.119,2.18-1.639,4.547-1.587,6.896c-5.835-1.009-11.635,1.56-14.79,6.565
	c-3.147,4.992-2.956,11.322,0.486,16.125c5.313,7.413,12.991,17.976,22.821,31.393c1.489,2.033,6.453,4.943,10.627,1.64
	c3.293-2.606,4.121-7.241,1.639-10.628c-9.165-12.51-16.448-22.522-21.673-29.796c3.564,0.691,7.118,1.558,10.595,2.585
	c0.028,0.008,0.05,0.012,0.077,0.02c5.64,7.78,22.19,30.314,22.73,30.985c-1.533,2.023-2.983,4.113-4.324,6.268L11.879,265.801
	C4.108,278.285,0,292.657,0,307.362v46.209c0,10.637,5.156,20.694,13.792,26.901l7.419,5.335c5.232,3.761,11.324,5.624,17.401,5.623
	c6.167,0,12.31-1.932,17.521-5.732l12.428,6.711c3.995,2.158,8.322,3.203,12.606,3.203c7.343,0,14.556-3.073,19.735-8.882
	l28.863-32.27c8.46,19.74,30.191,17.588,31.088,17.512c2.521,10.479,5.436,33.481-3.938,68.694
	c-1.081,4.058,1.332,8.224,5.391,9.304c0.655,0.174,7.517,1.705,9.304-5.392c9.858-39.142,6.501-65.228,3.543-77.468
	c8.79-5.63,14.634-15.476,14.634-26.667c0-6.682-2.088-12.884-5.636-17.998c6.425-1.533,13.353-3.681,20.357-6.695
	c2.673-1.15,5.409-2.461,8.167-3.932c7.701,14.925,24.625,55.057,15.335,105.274c-0.763,4.129,1.982,8.007,6.094,8.86
	c4.661,0.966,8.183-2.432,8.86-6.094c10.437-56.417-8.831-100.32-17.367-116.246c18.482-13.881,35.138-36.958,37.518-75.288
	c0.261-4.191-2.927-7.801-7.118-8.06c-4.187-0.278-7.8,2.927-8.06,7.118c-1.438,23.162-8.771,41.742-21.855,55.573
	c6.249-62.264-23.411-101.871-37.234-116.615c6.636-16.794,9.841-33.282,9.501-49.161c1.917,1.136,3.793,2.371,5.617,3.716
	c16.078,11.846,28.516,30.273,36.966,54.768c1.086,3.149,4.034,5.126,7.188,5.126c0.822,0,1.659-0.135,2.48-0.418
	c3.969-1.37,6.077-5.698,4.708-9.668c-9.024-26.158-22.378-46.324-39.702-60.03c210.771,23.394,247.349,209.015,252.982,292.651
	c0.155,2.296,3.871,10.766,17.309,10.766c14.393,0,26.103-11.71,26.103-26.103S500.29,361.881,485.897,361.881z M476.279,318.776
	c6.007,0,10.894,4.887,10.894,10.895c0,10.732-11.399,10.877-11.65,10.859c-1.354-6.667-2.905-13.456-4.654-20.323
	C472.502,319.266,474.341,318.776,476.279,318.776z M457.78,258.099c6.008,0,10.895,4.887,10.895,10.895
	c0,5.85-4.638,10.625-10.43,10.872c-2.376-6.322-4.961-12.648-7.764-18.951C452.457,259.124,455.033,258.099,457.78,258.099z
	 M430.535,205.062c6.008,0,10.895,4.888,10.895,10.895c0,5.265-3.754,9.668-8.726,10.677c-3.451-5.746-7.125-11.424-11.036-17.014
	C423.687,206.794,426.961,205.062,430.535,205.062z M341.741,121.164c6.008,0,10.895,4.887,10.895,10.895
	c0,2.95-1.192,5.709-3.205,7.718c-5.885-3.788-11.932-7.365-18.162-10.691C332.568,124.521,336.765,121.164,341.741,121.164z
	 M273.666,106.062c0-6.007,4.887-10.895,10.895-10.895c6.008,0,10.895,4.888,10.895,10.895c0,2.326-0.735,4.534-2.077,6.381
	c-6.419-2.271-12.986-4.346-19.702-6.221C273.675,106.168,273.666,106.116,273.666,106.062z M212.989,91.898
	c0-6.007,4.887-10.895,10.895-10.895c6.008,0,10.895,4.887,10.895,10.895c0,2.024-0.571,3.994-1.617,5.698
	c-6.45-0.98-13.016-1.799-19.686-2.464C213.153,94.092,212.989,93.008,212.989,91.898z M158.029,81.003
	c11.456,0,10.931,11.655,10.987,12.024c-0.355,0.001-10.987-0.007-18.534,1.256c-1.085-0.931-2.194-1.856-3.327-2.778
	C147.362,85.681,152.153,81.003,158.029,81.003z M83.283,77.291c41.852,8.103,69.148,37.682,82.221,55.58l-21.869-0.808
	c-13.292-0.491-25.429-6.921-33.298-17.638C98.784,98.688,89.47,85.904,83.283,77.291z M72.98,270.869
	c17.251,6.486,37.668,17.592,57.927,36.588l-40.394-6.562c-6.17-1.003-11.433-4.45-14.976-9.599
	C69.45,282.443,72.98,270.869,72.98,270.869z M76.449,255.79l24.866-104.877c9.651-0.23,37.928,0.964,69.146,19.628
	c-21.207,44.026-62.958,79.495-78.534,91.718C86.573,259.716,81.391,257.579,76.449,255.79z M61.887,251.258
	c-8.036-2.1-15.036-3.27-20.605-3.911l34.113-54.797L61.887,251.258z M15.208,307.362c0-5.065,0.609-10.081,1.79-14.95l5.759,4.329
	c3.377,2.54,4.837,6.967,3.631,11.017L22.5,320.81c-1.063,3.564-3.778,6.32-7.292,7.471
	C15.208,328.282,15.208,307.362,15.208,307.362z M89.548,376.609c-3.489,3.915-9.148,4.908-13.762,2.417l-7.163-3.868l11.942-10.208
	c3.514-3.003,8.17-4.438,12.755-3.933c4.171,0.453,7.928-2.556,8.387-6.73c0.458-4.175-2.556-7.929-6.73-8.387
	c-8.746-0.965-17.604,1.77-24.294,7.49L48.09,372.703c-5.125,4.381-12.53,4.691-18.002,0.756l-7.419-5.335
	c-4.672-3.36-7.461-8.8-7.461-14.555v-9.435l3.833-1.106c8.705-2.511,15.446-9.195,18.033-17.878l3.888-13.053
	c3.013-10.114-0.631-21.171-9.066-27.513l-9.277-6.974c0.679-1.278,9.612-15.725,9.612-15.725
	c5.051,0.241,14.333,1.146,26.217,4.315l-0.965,4.193c-2.322,10.085-0.342,20.795,5.431,29.384
	c5.772,8.589,14.942,14.468,25.158,16.128l43.665,7.093c-2.332,3.516-3.975,7.523-4.75,11.829L89.548,376.609z M174.578,340.442
	c0,9.067-7.377,16.445-16.445,16.445c-8.813,0-16.009-6.975-16.406-15.693l13.535-15.006c2.367-0.04,5.771-0.18,9.917-0.582
	C170.726,328.251,174.578,333.898,174.578,340.442z M197.495,205.25c13.872,27.535,17.642,58.263,11.223,91.375
	c-3.082,1.802-6.333,3.461-9.771,4.96c-11.6,5.058-23.168,7.408-31.894,8.493c-2.831-0.833-8.891-2.288-13.241-0.985
	c-15.739-17.387-31.921-29.951-47.238-39.025c10.904-8.887,27.779-23.798,44.198-42.964c13.059-15.242,23.482-30.53,31.218-45.649
	C186.591,187.003,192.317,194.97,197.495,205.25z M176.408,156.401c-5.769-3.348-11.437-6.167-16.933-8.534l6.949,0.257
	c0.186,0.006,0.371,0.01,0.554,0.01c0.001,0,0.002,0,0.002,0c5.442,0,10.372-3.013,12.865-7.863
	c2.492-4.849,2.066-10.619-1.112-15.057c-3.542-4.946-8.139-10.808-13.801-16.957c1.46-0.015,2.909-0.02,4.356-0.022
	c4.567,0.277,9.065,1.036,13.441,2.258C184.325,126.198,181.691,141.663,176.408,156.401z M381.04,163.795
	c1.888-3.432,5.505-5.633,9.539-5.633c6.008,0,10.895,4.888,10.895,10.895c0,3.932-2.078,7.435-5.308,9.355
	C391.31,173.315,386.262,168.448,381.04,163.795z M483.493,398.593c-0.491-6.544-1.143-13.426-1.987-20.58
	c1.371-0.605,2.854-0.923,4.391-0.923c6.008,0,10.895,4.887,10.895,10.895C496.792,399.037,484.28,398.77,483.493,398.593z"/>
<g>
</g>
<g>
</g>
<g>
</g>
<g>
</g>
<g>
</g>
<g>
</g>
<g>
</g>
<g>
</g>
<g>
</g>
<g>
</g>
<g>
</g>
<g>
</g>
<g>
</g>
<g>
</g>
<g>
</g>
</svg>
