<?xml version="1.0" encoding="iso-8859-1"?>
<!-- Generator: Adobe Illustrator 19.0.0, SVG Export Plug-In . SVG Version: 6.00 Build 0)  -->
<svg version="1.1" id="Capa_1" xmlns="http://www.w3.org/2000/svg" xmlns:xlink="http://www.w3.org/1999/xlink" x="0px" y="0px"
	 viewBox="0 0 511.999 511.999" style="enable-background:new 0 0 511.999 511.999;" xml:space="preserve">
<g>
	<path id="SVGCleanerId_0" style="fill:#424242;" d="M340.772,185.022c-7.086-7.218-15.368-13.454-24.616-18.537l-12.833-7.051
		l12.868-6.988c19.633-10.661,39.198-15.989,59.813-16.286l28.142-0.406L380.425,150.9c-13.897,8.873-22.508,18.997-26.325,30.952
		l-2.284,16.456L340.772,185.022z"/>
</g>
<g>
	<path id="SVGCleanerId_0_1_" style="fill:#424242;" d="M340.772,185.022c-7.086-7.218-15.368-13.454-24.616-18.537l-12.833-7.051
		l12.868-6.988c19.633-10.661,39.198-15.989,59.813-16.286l28.142-0.406L380.425,150.9c-13.897,8.873-22.508,18.997-26.325,30.952
		l-2.284,16.456L340.772,185.022z"/>
</g>
<path style="fill:#D7898A;" d="M360.087,213.782c-2.129-5.082-4.77-10.014-7.852-14.658l-1.439-2.17l0.113-2.602
	c0.892-20.467,12.615-36.008,36.893-48.91l16.343-9.689l-4.864,18.828c-2.795,10.405-12.901,45.57-25.618,61.164l-8.426,10.331
	L360.087,213.782z"/>
<path id="SVGCleanerId_1" style="fill:#424242;" d="M179.064,185.022c7.086-7.218,15.368-13.454,24.616-18.537l12.833-7.051
	l-12.868-6.988c-19.633-10.661-39.198-15.989-59.813-16.286l-28.141-0.406l23.721,15.146c13.897,8.873,22.508,18.997,26.325,30.952
	l4.034,12.637L179.064,185.022z"/>
<g>
	<path id="SVGCleanerId_0_2_" style="fill:#424242;" d="M340.772,185.022c-7.086-7.218-15.368-13.454-24.616-18.537l-12.833-7.051
		l12.868-6.988c19.633-10.661,39.198-15.989,59.813-16.286l28.142-0.406L380.425,150.9c-13.897,8.873-22.508,18.997-26.325,30.952
		l-2.284,16.456L340.772,185.022z"/>
</g>
<g>
	<path id="SVGCleanerId_1_1_" style="fill:#424242;" d="M179.064,185.022c7.086-7.218,15.368-13.454,24.616-18.537l12.833-7.051
		l-12.868-6.988c-19.633-10.661-39.198-15.989-59.813-16.286l-28.141-0.406l23.721,15.146c13.897,8.873,22.508,18.997,26.325,30.952
		l4.034,12.637L179.064,185.022z"/>
</g>
<path style="fill:#2D2C2A;" d="M163.275,175.736c0.966,1.986,1.791,4.021,2.46,6.116l4.034,12.637l9.294-9.466
	c7.086-7.218,15.368-13.454,24.616-18.537l12.833-7.051l-12.868-6.988c-1.871-1.016-3.741-1.968-5.612-2.888
	C184.651,156.352,172.894,165.266,163.275,175.736z"/>
<path style="fill:#D7898A;" d="M159.749,213.782c2.129-5.082,4.77-10.014,7.852-14.658l1.439-2.17l1.39-2.949
	c-0.892-20.467-14.118-35.66-38.397-48.563l-16.343-9.689l4.864,18.828c2.795,10.405,12.901,45.57,25.618,61.164l8.426,10.331
	L159.749,213.782z"/>
<path style="fill:#2D2C2A;" d="M316.156,166.485c9.249,5.083,17.53,11.319,24.616,18.537l11.044,13.286l2.284-16.456
	c0.556-1.742,1.227-3.44,1.989-5.107c-9.625-10.725-21.455-19.885-34.96-26.854c-1.646,0.819-3.291,1.662-4.937,2.556l-12.868,6.988
	L316.156,166.485z"/>
<path style="fill:#545353;" d="M133.473,505.001l-4.844-29.682l-17.191-15.672l39.515-23.033l6.774-73.31l-29.37-17.726
	l16.849-21.719l-33.83-8.87l2.289-7.885c6.16-21.225,18.697-36.805,37.264-46.315v-14.65c0-42.06,32.112-79.544,78.121-91.238
	c3.517-9.797,8.68-16.939,15.347-21.23l12.239-7.878l0.089,14.555c0.025,4.077,0.24,7.717,0.641,10.825
	c0.648-0.011,1.275-0.016,1.904-0.016c3.916,0,7.87,0.188,11.757,0.557l14.091-16.059l5.66,19.586
	c45.252,12.044,76.828,49.385,76.828,90.898v14.636c21.357,9.801,34.201,25.58,38.174,46.901l1.364,7.315l-33.815,8.866
	l16.848,21.72l-29.369,17.726l6.773,73.31l39.515,23.033l-17.192,15.672l-4.842,29.682L133.473,505.001L133.473,505.001z"/>
<path style="fill:#474141;" d="M202.977,459.648l39.515-23.033l6.774-73.31l-29.37-17.726l16.849-21.719l-33.83-8.87l2.289-7.885
	c6.16-21.225,18.697-36.805,37.264-46.315v-14.65c0-37.129,25.032-70.679,62.549-86.083c-4.574-1.881-9.322-3.506-14.242-4.815
	l-5.66-19.586l-14.091,16.059c-3.888-0.369-7.842-0.557-11.757-0.557c-0.628,0-1.255,0.005-1.904,0.016
	c-0.401-3.109-0.616-6.748-0.641-10.825l-0.089-14.555l-12.239,7.878c-6.667,4.29-11.829,11.433-15.347,21.23
	c-46.01,11.694-78.12,49.178-78.12,91.238v14.65c-18.567,9.51-31.103,25.091-37.264,46.315l-2.289,7.885l33.83,8.87l-16.849,21.719
	l29.37,17.726l-6.774,73.31l-39.515,23.033l17.191,15.672l4.844,29.682h91.539l-4.844-29.682L202.977,459.648z"/>
<path style="fill:#E6E1D7;" d="M231.488,460.717l-33.577,4.383l-19.063-18.734l15.853-52.286
	c6.609-21.796-2.575-44.377-23.967-58.929l-4.476-3.045l3.817-17.354L151.812,297.9l22.035-13.746v-46.304
	c0-17.685,17.637-32.46,39.317-32.933c0.361-0.008,0.713-0.012,1.065-0.012c20.198,0,37.459,12.003,40.153,27.919
	c0.379,2.24,2.708,3.864,5.536,3.864s5.156-1.624,5.534-3.861c2.696-15.918,19.97-27.921,40.181-27.921
	c0.342,0,0.685,0.004,1.028,0.011c21.691,0.473,39.328,15.247,39.328,32.933v46.304l22.036,13.746l-18.266,16.854l3.817,17.353
	l-4.476,3.045c-21.393,14.553-30.576,37.133-23.968,58.929l15.854,52.286l-19.064,18.734l-33.588-4.381l-29.144,15.316
	L231.488,460.717z"/>
<g>
	<path style="fill:#D3C7B4;" d="M368.025,297.898l-22.036-13.746v-46.304c0-17.685-17.637-32.46-39.328-32.933
		c-0.344-0.007-0.687-0.011-1.028-0.011c-10.842,0-20.835,3.457-28.189,9.117c19.77,2.109,35.228,16.111,35.228,32.669v46.304
		l22.036,13.746l-18.266,16.854l3.817,17.353l-4.476,3.045c-21.393,14.553-30.576,37.133-23.968,58.929l15.854,52.286l-7.217,7.092
		l21.47,2.801l19.064-18.734l-15.854-52.286c-6.608-21.796,2.576-44.377,23.968-58.929l4.476-3.045l-3.817-17.353L368.025,297.898z"
		/>
	<polygon style="fill:#D3C7B4;" points="255.019,469.561 251.155,471.591 259.191,476.035 268.232,471.285 	"/>
</g>
<path style="fill:#D6CEBD;" d="M259.264,358.379L259.264,358.379c-27.646,0-47.304-26.148-38.917-51.764l9.413-28.751
	c1.714-5.233,6.597-8.773,12.103-8.773h34.799c5.507,0,10.39,3.539,12.103,8.773l9.414,28.751
	C306.567,332.231,286.909,358.379,259.264,358.379z"/>
<path style="fill:#BAAE99;" d="M257.354,306.615l9.413-28.751c1.598-4.88,5.953-8.285,10.999-8.723
	c-0.365-0.031-0.733-0.051-1.104-0.051h-34.799c-5.507,0-10.39,3.539-12.103,8.773l-9.413,28.751
	c-8.387,25.616,11.272,51.764,38.917,51.764l0,0c6.742,0,13.003-1.564,18.504-4.287
	C260.712,345.648,251.013,325.984,257.354,306.615z"/>
<g>
	<path style="fill:#C8E6FA;" d="M37.799,70.028c-8.75,0-15.867-7.118-15.867-15.867s7.118-15.867,15.867-15.867
		s15.867,7.118,15.867,15.867S46.549,70.028,37.799,70.028z"/>
	<path style="fill:#C8E6FA;" d="M185.111,105.492c-8.75,0-15.867-7.118-15.867-15.867s7.118-15.867,15.867-15.867
		c8.75,0,15.867,7.118,15.867,15.867S193.86,105.492,185.111,105.492z"/>
	<path style="fill:#C8E6FA;" d="M226.487,39.014c-8.75,0-15.867-7.118-15.867-15.867s7.118-15.867,15.867-15.867
		c8.75,0,15.867,7.118,15.867,15.867S235.237,39.014,226.487,39.014z"/>
	<path style="fill:#C8E6FA;" d="M469.628,73.632c-8.75,0-15.867-7.118-15.867-15.867s7.118-15.867,15.867-15.867
		s15.867,7.118,15.867,15.867S478.378,73.632,469.628,73.632z"/>
	<path style="fill:#C8E6FA;" d="M469.628,260.021c-8.75,0-15.867-7.118-15.867-15.867s7.118-15.867,15.867-15.867
		s15.867,7.118,15.867,15.867S478.378,260.021,469.628,260.021z"/>
	<path style="fill:#C8E6FA;" d="M474.788,437.017c-8.75,0-15.867-7.118-15.867-15.867s7.118-15.867,15.867-15.867
		s15.867,7.118,15.867,15.867S483.537,437.017,474.788,437.017z"/>
	<path style="fill:#C8E6FA;" d="M49.382,264.838c-8.75,0-15.867-7.118-15.867-15.867c0-8.75,7.118-15.867,15.867-15.867
		s15.867,7.118,15.867,15.867S58.131,264.838,49.382,264.838z"/>
</g>
<g>
	<path style="fill:#8EE4EF;" d="M48.842,58.563c-8.75,0-15.867-7.118-15.867-15.867c0-1.305,0.176-2.567,0.474-3.781
		C26.81,40.811,21.931,46.92,21.931,54.16c0,8.75,7.118,15.867,15.867,15.867c7.445,0,13.691-5.16,15.394-12.086
		C51.808,58.337,50.351,58.563,48.842,58.563z"/>
	<path style="fill:#8EE4EF;" d="M196.153,94.027c-8.75,0-15.867-7.118-15.867-15.867c0-1.305,0.176-2.567,0.474-3.781
		c-6.638,1.898-11.517,8.007-11.517,15.247c0,8.75,7.118,15.867,15.867,15.867c7.445,0,13.691-5.16,15.394-12.086
		C199.12,93.802,197.663,94.027,196.153,94.027z"/>
	<path style="fill:#8EE4EF;" d="M237.529,27.548c-8.75,0-15.867-7.118-15.867-15.867c0-1.305,0.176-2.567,0.474-3.781
		c-6.638,1.898-11.517,8.007-11.517,15.247c0,8.75,7.118,15.867,15.867,15.867c7.445,0,13.691-5.16,15.394-12.086
		C240.496,27.323,239.04,27.548,237.529,27.548z"/>
	<path style="fill:#8EE4EF;" d="M480.671,62.166c-8.75,0-15.867-7.118-15.867-15.867c0-1.305,0.176-2.567,0.474-3.781
		c-6.638,1.898-11.517,8.007-11.517,15.247c0,8.75,7.118,15.867,15.867,15.867c7.445,0,13.691-5.16,15.394-12.086
		C483.637,61.941,482.181,62.166,480.671,62.166z"/>
	<path style="fill:#8EE4EF;" d="M480.671,248.555c-8.75,0-15.867-7.118-15.867-15.867c0-1.305,0.176-2.567,0.474-3.781
		c-6.638,1.898-11.517,8.007-11.517,15.247c0,8.75,7.118,15.867,15.867,15.867c7.445,0,13.691-5.16,15.394-12.086
		C483.637,248.33,482.181,248.555,480.671,248.555z"/>
	<path style="fill:#8EE4EF;" d="M485.83,425.552c-8.75,0-15.867-7.118-15.867-15.867c0-1.305,0.176-2.567,0.474-3.781
		c-6.638,1.898-11.517,8.007-11.517,15.247c0,8.75,7.118,15.867,15.867,15.867c7.445,0,13.691-5.16,15.394-12.086
		C488.796,425.326,487.339,425.552,485.83,425.552z"/>
	<path style="fill:#8EE4EF;" d="M60.424,253.372c-8.75,0-15.867-7.118-15.867-15.867c0-1.305,0.176-2.567,0.474-3.781
		c-6.638,1.898-11.517,8.007-11.517,15.247c0,8.75,7.118,15.867,15.867,15.867c7.445,0,13.691-5.16,15.394-12.086
		C63.39,253.146,61.934,253.372,60.424,253.372z"/>
</g>
<path style="fill:#BAAE99;" d="M267.336,311.343c0-4.142-3.356-7.499-7.499-7.499c-4.141,0-7.499,3.356-7.499,7.499v46.462
	c2.243,0.369,4.552,0.575,6.926,0.575l0,0c2.78,0,5.474-0.276,8.072-0.778V311.343z"/>
<path style="fill:#ED9798;" d="M246.716,310.361v-4.059c0-5.81,4.71-10.519,10.519-10.519h5.055c5.809,0,10.519,4.709,10.519,10.519
	v4.059c0,1.518-0.79,2.927-2.086,3.717l-8.119,4.959c-1.746,1.066-3.94,1.066-5.686,0l-8.119-4.958
	C247.507,313.288,246.716,311.879,246.716,310.361z"/>
<path d="M226.487,46.292c12.763,0,23.145-10.383,23.145-23.145S239.25,0,226.487,0c-12.762,0-23.145,10.383-23.145,23.145
	S213.725,46.292,226.487,46.292z M226.487,14.998c4.493,0,8.148,3.655,8.148,8.148s-3.655,8.148-8.148,8.148
	c-4.492,0-8.148-3.655-8.148-8.148S221.995,14.998,226.487,14.998z"/>
<path d="M185.111,112.492c12.609,0,22.866-10.258,22.866-22.866c0-12.609-10.257-22.867-22.866-22.867
	c-12.609,0-22.867,10.258-22.867,22.867C162.245,102.234,172.502,112.492,185.111,112.492z M185.111,81.756
	c4.339,0,7.869,3.53,7.869,7.87s-3.529,7.869-7.869,7.869c-4.339,0-7.87-3.529-7.87-7.869S180.772,81.756,185.111,81.756z"/>
<path d="M60.666,54.16c0-12.608-10.257-22.866-22.866-22.866S14.933,41.552,14.933,54.16S25.19,77.027,37.799,77.027
	S60.666,66.768,60.666,54.16z M29.931,54.16c0-4.339,3.53-7.869,7.869-7.869s7.869,3.529,7.869,7.869s-3.53,7.869-7.869,7.869
	S29.931,58.5,29.931,54.16z"/>
<path d="M49.382,226.104c-12.609,0-22.866,10.258-22.866,22.866c0,12.608,10.257,22.866,22.866,22.866s22.867-10.258,22.867-22.866
	C72.249,236.362,61.99,226.104,49.382,226.104z M49.382,256.839c-4.338,0-7.869-3.529-7.869-7.869c0-4.339,3.53-7.869,7.869-7.869
	c4.339,0,7.87,3.529,7.87,7.869C57.251,253.309,53.72,256.839,49.382,256.839z"/>
<path d="M469.628,80.043c12.284,0,22.278-9.994,22.278-22.278s-9.994-22.278-22.278-22.278s-22.278,9.994-22.278,22.278
	S457.344,80.043,469.628,80.043z M469.628,50.483c4.015,0,7.281,3.266,7.281,7.281s-3.266,7.281-7.281,7.281
	s-7.281-3.266-7.281-7.281S465.613,50.483,469.628,50.483z"/>
<path d="M469.628,266.432c12.284,0,22.278-9.994,22.278-22.278c0-12.284-9.994-22.278-22.278-22.278s-22.278,9.994-22.278,22.278
	C447.35,256.438,457.344,266.432,469.628,266.432z M469.628,236.872c4.015,0,7.281,3.266,7.281,7.281s-3.266,7.281-7.281,7.281
	s-7.281-3.266-7.281-7.281S465.613,236.872,469.628,236.872z"/>
<path d="M474.788,398.871c-12.285,0-22.279,9.994-22.279,22.278c0,12.284,9.994,22.278,22.279,22.278
	c12.284,0,22.278-9.994,22.278-22.278C497.066,408.866,487.072,398.871,474.788,398.871z M474.788,428.43
	c-4.015,0-7.282-3.266-7.282-7.281s3.267-7.281,7.282-7.281s7.281,3.266,7.281,7.281S478.803,428.43,474.788,428.43z"/>
<circle cx="223.254" cy="251.21" r="9.089"/>
<circle cx="296.272" cy="251.21" r="9.089"/>
<path d="M413.715,314.003c-2.476-26.115-15.626-45.471-39.116-57.6v-10.261c0-6.643-0.717-13.182-2.109-19.56
	c9.434-7.2,18.145-22.717,26.502-47.162c6.689-19.566,10.617-37.575,10.87-38.745l0,0c0.003-0.014,0.008-0.038,0.01-0.047
	c0.074-0.345,0.114-0.688,0.14-1.031c0.005-0.071,0.01-0.141,0.013-0.212c0.017-0.369,0.011-0.736-0.026-1.096
	c-0.001-0.008,0-0.015,0-0.022c-0.002-0.018-0.008-0.035-0.01-0.054c-0.041-0.364-0.109-0.722-0.202-1.072
	c-0.01-0.036-0.016-0.073-0.026-0.109c-0.096-0.341-0.218-0.671-0.36-0.993c-0.03-0.067-0.06-0.133-0.092-0.199
	c-0.148-0.312-0.313-0.615-0.502-0.904c-0.025-0.037-0.052-0.071-0.077-0.108c-0.182-0.267-0.383-0.522-0.599-0.764
	c-0.037-0.041-0.071-0.085-0.109-0.125c-0.236-0.253-0.492-0.489-0.763-0.709c-0.048-0.039-0.097-0.076-0.146-0.113
	c-0.562-0.434-1.191-0.791-1.877-1.054c-0.064-0.025-0.128-0.05-0.193-0.073c-0.3-0.106-0.607-0.201-0.927-0.27
	c-0.037-0.008-0.073-0.01-0.11-0.018c-0.019-0.004-0.036-0.012-0.056-0.015c-34.894-6.678-68.745,0.123-100.646,20.199
	c-2.268-0.833-4.56-1.614-6.885-2.314l-4.329-14.982c-0.761-2.633-2.897-4.641-5.572-5.237c-2.671-0.596-5.461,0.313-7.27,2.375
	l-11.167,12.73c-1.424-0.096-2.85-0.169-4.27-0.219c-0.3-7.049,0.218-13.643,0.225-13.727c0.182-2.226-0.639-4.415-2.237-5.975
	c-1.598-1.56-3.806-2.33-6.029-2.09c-14.088,1.496-25.323,10.898-31.957,26.62c-2.693,0.77-5.35,1.632-7.969,2.578
	c-31.79-19.892-65.508-26.613-100.268-19.958c-0.021,0.004-0.04,0.013-0.062,0.017c-0.035,0.007-0.07,0.01-0.105,0.017
	c-0.317,0.068-0.621,0.162-0.919,0.267c-0.071,0.025-0.139,0.052-0.209,0.079c-0.681,0.263-1.306,0.617-1.865,1.049
	c-0.051,0.039-0.101,0.077-0.151,0.117c-0.27,0.219-0.524,0.454-0.76,0.706c-0.039,0.042-0.074,0.086-0.112,0.129
	c-0.214,0.24-0.413,0.493-0.594,0.758c-0.026,0.038-0.055,0.074-0.081,0.113c-0.188,0.287-0.352,0.589-0.5,0.9
	c-0.032,0.068-0.064,0.135-0.094,0.205c-0.141,0.32-0.263,0.649-0.358,0.988c-0.011,0.039-0.018,0.079-0.029,0.118
	c-0.091,0.345-0.158,0.698-0.199,1.058c-0.002,0.021-0.009,0.04-0.011,0.061c-0.001,0.009,0,0.017-0.001,0.025
	c-0.036,0.358-0.042,0.722-0.026,1.089c0.003,0.074,0.008,0.148,0.013,0.222c0.026,0.34,0.066,0.682,0.139,1.025
	c0.002,0.008,0.006,0.029,0.009,0.041c0.001,0.004,0.002,0.007,0.002,0.011c0.261,1.209,4.187,19.198,10.868,38.74
	c8.105,23.709,16.544,39.021,25.653,46.492c-1.492,6.588-2.26,13.352-2.26,20.232v10.493
	c-20.424,11.792-33.531,30.784-38.985,56.521c-0.83,3.915,1.562,7.793,5.434,8.809l22.803,5.978l-10.01,12.9
	c-1.313,1.691-1.839,3.863-1.448,5.968c0.392,2.105,1.665,3.942,3.498,5.048l25.133,15.168l-6.039,65.353l-35.812,20.877
	c-2.063,1.202-3.428,3.313-3.68,5.687c-0.252,2.373,0.641,4.725,2.405,6.333l14.889,13.572l2.963,18.151h-11.726
	c-4.141,0-7.499,3.356-7.499,7.499s3.357,7.499,7.499,7.499h20.547h250.731h21.621c4.142,0,7.499-3.356,7.499-7.499
	s-3.356-7.499-7.499-7.499h-12.799l2.962-18.151l14.89-13.572c1.764-1.608,2.657-3.96,2.405-6.333
	c-0.252-2.374-1.618-4.485-3.68-5.687l-35.813-20.877l-6.039-65.353l25.133-15.168c1.833-1.106,3.105-2.943,3.497-5.048
	c0.393-2.104-0.135-4.276-1.447-5.968l-10.009-12.903l22.804-5.978C411.706,321.032,414.062,317.661,413.715,314.003z
	 M391.556,152.507c-5.942,22.123-15.044,47.088-24.091,58.185c-2.313-5.519-5.165-10.865-8.565-15.988
	C359.661,177.251,369.615,164.167,391.556,152.507z M376.12,144.158c-12.881,8.225-24.591,19.45-29.639,35.261
	c-7.639-7.782-16.6-14.519-26.473-19.943C338.329,149.526,356.897,144.435,376.12,144.158z M199.023,159.204
	c-9.747,5.294-18.622,11.856-26.229,19.454c-5.177-15.41-16.714-26.409-29.387-34.5
	C162.453,144.434,180.862,149.433,199.023,159.204z M127.975,152.512c21.371,11.358,31.369,24.069,32.572,40.852
	c-3.625,5.276-6.665,10.797-9.125,16.506C142.596,198.405,133.781,174.11,127.975,152.512z M370.562,316.314
	c-2.437,0.639-4.389,2.458-5.198,4.843c-0.811,2.385-0.368,5.017,1.176,7.007l11.801,15.213l-21.939,13.241
	c-2.462,1.485-3.856,4.247-3.592,7.11l6.826,73.879c0.223,2.412,1.598,4.567,3.689,5.788l30.328,17.679l-9.272,8.452
	c-1.249,1.139-2.077,2.667-2.35,4.334l-3.775,23.142H140.272l-3.777-23.142c-0.272-1.668-1.1-3.195-2.349-4.334l-9.272-8.452
	l30.328-17.679c2.093-1.221,3.467-3.376,3.69-5.788l6.827-73.879c0.265-2.863-1.131-5.625-3.592-7.11l-21.94-13.241l11.801-15.213
	c1.544-1.99,1.985-4.622,1.176-7.007c-0.81-2.386-2.763-4.204-5.199-4.843l-26.621-6.979c5.621-19.367,16.621-33,33.475-41.55
	c2.519-1.278,4.105-3.862,4.105-6.687v-14.957c0-7.149,1.031-14.155,2.978-20.895c0.11-0.297,0.205-0.597,0.276-0.899
	c8.795-29.12,34.761-53.113,69.082-61.753c2.434-0.613,4.398-2.402,5.237-4.767c2.2-6.205,5.963-13.398,12.226-17.429
	c0.023,3.849,0.215,8.222,0.773,12.3c0.516,3.767,3.753,6.582,7.571,6.481c4.427-0.085,8.955,0.087,13.441,0.522
	c2.396,0.231,4.769-0.704,6.36-2.52l4.619-5.265l1.682,5.817c0.732,2.534,2.742,4.497,5.293,5.169
	c41.887,11.04,71.141,45.268,71.141,83.237v14.957c0,2.94,1.719,5.609,4.395,6.826c19.238,8.748,30.383,22.268,33.915,41.22
	L370.562,316.314z"/>
<path d="M332.599,412.924L332.599,412.924c-5.032,0-8.637,4.859-7.176,9.675l6.506,21.455l-12.833,12.611l-29.884-3.897
	c-1.528-0.197-3.09,0.079-4.458,0.799l-25.466,13.383l-24.067-13.308c-1.116-0.617-2.365-0.937-3.628-0.937
	c-0.323,0-0.647,0.021-0.97,0.063l-29.883,3.897l-12.832-12.611l14.45-47.652c7.67-25.294-2.943-51.415-27.123-67.863l2.716-12.348
	c0.573-2.603-0.28-5.314-2.239-7.122l-10.766-9.935l13.371-8.342c2.196-1.37,3.529-3.774,3.529-6.362v-46.581
	c0-13.371,14.128-24.557,31.493-24.935c16.5-0.347,31.08,8.973,33.157,21.245c1.032,6.101,6.677,10.528,13.423,10.528
	c6.747,0,12.392-4.429,13.422-10.528c2.078-12.271,16.667-21.581,33.158-21.245c17.364,0.379,31.492,11.564,31.492,24.935v46.581
	c0,2.588,1.334,4.992,3.529,6.362l13.372,8.342l-10.767,9.935c-1.959,1.808-2.811,4.518-2.238,7.121l2.717,12.348
	c-15.852,10.783-25.866,25.725-28.725,41.864c-0.808,4.56,2.771,8.726,7.402,8.726h0.073c3.662,0,6.728-2.657,7.394-6.259
	c2.473-13.374,11.625-25.811,26.072-34.324c2.811-1.657,4.262-4.911,3.561-8.098l-2.921-13.275l14.831-13.686
	c2.37-2.186,3.146-5.725,1.645-8.832c-0.634-1.312-1.691-2.375-2.928-3.146l-18.019-11.24v-42.42
	c0-10.668-4.944-20.708-13.923-28.268c-8.614-7.254-20.063-11.394-32.241-11.66c-0.426-0.01-0.851-0.014-1.275-0.014
	c-21.399,0-39.893,11.763-45.631,28.405c-5.851-16.972-24.972-28.909-46.906-28.391c-12.177,0.266-23.627,4.406-32.241,11.66
	c-8.978,7.562-13.922,17.601-13.922,28.268v42.42l-18.037,11.252c-1.235,0.77-2.288,1.835-2.918,3.147
	c-1.49,3.105-0.713,6.635,1.653,8.82l14.831,13.686l-2.92,13.275c-0.701,3.186,0.751,6.441,3.561,8.098
	c21.24,12.518,31.046,33.516,24.985,53.503l-15.766,51.997c-0.81,2.671-0.07,5.569,1.92,7.525l18.674,18.351
	c1.645,1.615,3.939,2.385,6.226,2.088l31.061-4.051l25.45,14.072c1.128,0.624,2.378,0.937,3.628,0.937
	c1.198,0,2.396-0.287,3.488-0.861l26.942-14.159l31.149,4.062c2.284,0.299,4.582-0.473,6.226-2.088l18.675-18.351
	c1.99-1.956,2.73-4.854,1.921-7.525l-7.823-25.798C338.816,415.086,335.903,412.924,332.599,412.924z"/>
<path d="M295.352,278.383c-1.531-3.849-5.894-5.723-9.739-4.195c-3.848,1.531-5.727,5.892-4.195,9.739l10.626,26.71
	c3.395,8.533,2.31,18.215-2.904,25.899c-4.805,7.084-12.533,11.761-21.805,13.402v-25.589l6.335-3.868
	c3.786-2.313,6.139-6.506,6.139-10.942v-3.235c0-9.659-7.858-17.518-17.518-17.518h-5.056c-9.659,0-17.518,7.859-17.518,17.518
	v3.235c0,4.438,2.354,8.632,6.14,10.942l6.481,3.958v25.526c-9.337-1.618-17.119-6.308-21.95-13.43
	c-5.213-7.685-6.299-17.366-2.905-25.899l11.146-28.017c1.531-3.848-0.348-8.209-4.195-9.739c-3.85-1.534-8.209,0.348-9.739,4.195
	l-11.146,28.017c-5.234,13.157-3.579,28.059,4.428,39.863c8.9,13.119,24.13,20.643,41.787,20.643c0.016,0,0.032-0.001,0.048-0.001
	c0.009,0,0.017,0.001,0.025,0.001c0.028,0,0.055-0.004,0.083-0.004c17.59-0.044,32.758-7.559,41.631-20.639
	c8.008-11.804,9.662-26.706,4.428-39.863L295.352,278.383z M254.715,306.303c0-1.391,1.131-2.521,2.521-2.521h5.056
	c1.39,0,2.521,1.131,2.521,2.521v2.016l-5.048,3.084l-5.048-3.084v-2.016H254.715z"/>
<path d="M275.601,388.707c-4.548,3.568-10.024,5.454-15.837,5.454c-6.516,0-12.726-2.438-17.486-6.862
	c-3.034-2.82-7.779-2.646-10.598,0.387c-2.82,3.034-2.647,7.778,0.387,10.598c7.545,7.014,17.381,10.875,27.698,10.875
	c9.202,0,17.879-2.992,25.094-8.652c3.258-2.557,3.827-7.27,1.271-10.527C283.573,386.719,278.86,386.152,275.601,388.707z"/>
<g>
</g>
<g>
</g>
<g>
</g>
<g>
</g>
<g>
</g>
<g>
</g>
<g>
</g>
<g>
</g>
<g>
</g>
<g>
</g>
<g>
</g>
<g>
</g>
<g>
</g>
<g>
</g>
<g>
</g>
</svg>
