<?xml version="1.0" encoding="iso-8859-1"?>
<!-- Generator: Adobe Illustrator 19.0.0, SVG Export Plug-In . SVG Version: 6.00 Build 0)  -->
<svg xmlns="http://www.w3.org/2000/svg" xmlns:xlink="http://www.w3.org/1999/xlink" version="1.1" id="Layer_1" x="0px" y="0px" viewBox="0 0 511.689 511.689" style="enable-background:new 0 0 511.689 511.689;" xml:space="preserve" width="512" height="512">
<g>
	<path style="fill:#C6C5CA;" d="M256.901,377.913l0.273,0.392v0c22.5-31.416,34.96-72.272,34.96-114.639v-14.33h-69v15.625   C223.134,306.548,235.14,346.708,256.901,377.913z"/>
	<path style="fill:#B2B1B5;" d="M262.134,249.336v14.33c0,31.614-6.941,62.384-19.811,89.021   c4.214,8.898,9.084,17.349,14.578,25.227l0.273,0.392v0c22.5-31.416,34.96-72.272,34.96-114.639v-14.33H262.134z"/>
	<circle style="fill:#904F15;" cx="70.405" cy="356.163" r="22.916"/>
	<path style="fill:#904F15;" d="M61.268,197.217c2.251,0,4.437,0.274,6.534,0.777c4.504-9.357,14.075-15.815,25.154-15.815   c15.409,0,27.901,12.491,27.901,27.901c0,6.482-2.217,12.443-5.925,17.179c1.375,3.301,2.138,6.922,2.138,10.721   c0,15.409-12.492,27.9-27.9,27.9c-10.004,0-18.773-5.268-23.698-13.178c-1.371,0.207-2.774,0.316-4.203,0.316   c-15.409,0-27.901-12.491-27.901-27.9S45.859,197.217,61.268,197.217z"/>
	<path style="fill:#7A4113;" d="M120.857,210.079c0-15.409-12.492-27.9-27.901-27.9c-5.524,0-10.673,1.607-15.006,4.377   c7.758,4.955,12.907,13.635,12.907,23.524c0,6.482-2.217,12.443-5.925,17.179c1.375,3.301,2.138,6.922,2.138,10.721   c0,9.885-5.145,18.562-12.898,23.518c4.332,2.77,9.474,4.382,14.998,4.382c15.409,0,27.9-12.492,27.9-27.9   c0-3.8-0.762-7.42-2.138-10.721C118.64,222.522,120.857,216.561,120.857,210.079z"/>
	<circle style="fill:#904F15;" cx="362.4" cy="138.567" r="22.916"/>
	<path style="fill:#904F15;" d="M413.339,232.966c1.422-1.745,3.015-3.267,4.73-4.574c-4.409-9.402-3.369-20.901,3.63-29.49   c9.734-11.945,27.308-13.738,39.254-4.004c5.025,4.095,8.246,9.578,9.575,15.445c3.428,1.019,6.716,2.715,9.661,5.115   c11.945,9.734,13.738,27.308,4.004,39.254c-6.319,7.755-15.943,11.225-25.186,10.046c-0.705,1.194-1.508,2.35-2.41,3.457   c-9.734,11.945-27.308,13.738-39.254,4.004C405.398,262.486,403.605,244.912,413.339,232.966z"/>
	<path style="fill:#7A4113;" d="M480.189,215.458c-2.945-2.4-6.234-4.096-9.661-5.115c-1.329-5.867-4.55-11.351-9.575-15.445   c-9.573-7.801-22.758-8.192-32.629-1.894c0.901,0.576,1.78,1.202,2.629,1.894c5.025,4.095,8.246,9.578,9.575,15.445   c3.428,1.019,6.716,2.715,9.661,5.115c11.945,9.734,13.738,27.308,4.004,39.253c-6.319,7.755-15.943,11.225-25.186,10.046   c-0.705,1.194-1.508,2.35-2.41,3.457c-1.933,2.372-4.179,4.337-6.625,5.898c11.777,7.528,27.583,5.199,36.625-5.898   c0.902-1.107,1.705-2.264,2.41-3.457c9.243,1.179,18.867-2.291,25.186-10.046C493.926,242.767,492.134,225.192,480.189,215.458z"/>
	<path style="fill:#E0E0E2;" d="M203.068,458.058c0,0-11.808-35.398-46.758-49.161c-13.435-32.944-22.676-77.192-22.676-136.593   h89.628c1.326,38.95,13.161,76.244,33.639,105.608l0.273,0.392l0,0c20.967-29.275,33.209-66.747,34.781-106h89.678   c0,217.606-124,231.884-124,231.884s-3.096-0.358-8.306-1.815C247.003,459.156,203.068,458.058,203.068,458.058z"/>
	<g>
		<path style="fill:#C6C5CA;" d="M351.634,272.305c0,160.311-67.297,210.267-102.736,225.461c0.195,1.482,0.344,3.013,0.43,4.608    c5.21,1.457,8.306,1.815,8.306,1.815s124-14.277,124-231.884H351.634z"/>
	</g>
	<path style="fill:#957856;" d="M232.2,249.336V32.934c0-14.047,11.387-25.434,25.434-25.434h0   c14.047,0,25.434,11.387,25.434,25.434v216.402H232.2z"/>
	<path style="fill:#806749;" d="M257.634,7.5L257.634,7.5c-5.611,0-10.794,1.821-15,4.898c6.324,4.627,10.434,12.1,10.434,20.535   v216.402h30V32.934C283.068,18.887,271.681,7.5,257.634,7.5z"/>
	<path style="fill:#594333;" d="M362.626,399.309c4.994-0.905,10.333-1.405,16.037-1.405c61.3,0,69.35,53.87,69.35,53.87   c50.155,0,48.297,52.414,48.297,52.414H257.634C257.634,504.189,327.877,496.094,362.626,399.309z"/>
	<path style="fill:#3F2F25;" d="M448.013,451.774c0,0-8.049-53.87-69.35-53.87c-5.257,0-10.19,0.441-14.842,1.216   c47.507,7.973,54.192,52.654,54.192,52.654c50.155,0,48.297,52.414,48.297,52.414h30   C496.311,504.189,498.168,451.774,448.013,451.774z"/>
	<path style="fill:#904F15;" d="M249.404,504.189H15.377c0,0-1.76-49.649,45.75-49.649c0,0,7.625-51.028,65.692-51.028   s76.249,54.548,76.249,54.548S248.231,459.183,249.404,504.189z"/>
	<path style="fill:#7A4113;" d="M203.068,458.058c0,0-18.182-54.548-76.249-54.548c-5.283,0-10.143,0.427-14.623,1.195   c46.735,7.969,61.873,53.353,61.873,53.353s45.163,1.125,46.336,46.13h29C248.231,459.183,203.068,458.058,203.068,458.058z"/>
	<g>
		<path d="M362.4,168.983c16.772,0,30.416-13.645,30.416-30.415s-13.645-30.415-30.416-30.415    c-16.771,0-30.415,13.645-30.415,30.415S345.629,168.983,362.4,168.983z M362.4,123.152c8.5,0,15.416,6.915,15.416,15.415    s-6.916,15.415-15.416,15.415c-8.5,0-15.415-6.915-15.415-15.415S353.9,123.152,362.4,123.152z"/>
		<path d="M39.99,356.163c0,16.771,13.645,30.416,30.416,30.416c16.771,0,30.416-13.645,30.416-30.416    c0-16.771-13.645-30.415-30.416-30.415C53.634,325.748,39.99,339.392,39.99,356.163z M85.821,356.163    c0,8.5-6.916,15.416-15.416,15.416s-15.416-6.916-15.416-15.416s6.916-15.415,15.416-15.415S85.821,347.663,85.821,356.163z"/>
		<path d="M61.863,260.513c6.684,8.132,16.589,12.868,27.306,12.868c19.52,0,35.4-15.88,35.4-35.4c0-3.271-0.441-6.481-1.316-9.586    c3.35-5.506,5.103-11.762,5.103-18.314c0-19.52-15.88-35.401-35.4-35.401c-11.599,0-22.466,5.797-29.024,15.139    c-0.887-0.067-1.775-0.101-2.663-0.101c-19.52,0-35.401,15.88-35.401,35.4C25.867,244.835,42.092,260.832,61.863,260.513z     M61.269,204.717c1.599,0,3.208,0.192,4.783,0.57c3.433,0.824,6.977-0.858,8.508-4.04c3.382-7.027,10.604-11.568,18.396-11.568    c11.249,0,20.4,9.152,20.4,20.401c0,4.596-1.497,8.938-4.33,12.556c-1.671,2.135-2.061,5.005-1.018,7.508    c1.036,2.485,1.561,5.122,1.561,7.836c0,11.249-9.151,20.4-20.4,20.4c-7.093,0-13.572-3.605-17.331-9.642    c-1.382-2.22-3.802-3.537-6.365-3.537c-0.372,0-0.747,0.028-1.122,0.084c-1.016,0.154-2.053,0.231-3.082,0.231    c-11.249,0-20.401-9.151-20.401-20.4C40.868,213.868,50.02,204.717,61.269,204.717z"/>
		<path d="M412.605,278.034c6.377,5.196,14.181,7.962,22.297,7.962c1.213,0,2.435-0.062,3.658-0.187    c9.407-0.96,17.877-5.525,23.851-12.856c0.125-0.153,0.249-0.308,0.371-0.463c10.526-0.044,20.455-4.731,27.224-13.04    c12.331-15.132,10.052-37.475-5.08-49.806c-2.536-2.066-5.303-3.752-8.263-5.035c-2.152-6.076-5.894-11.386-10.973-15.525    c-15.132-12.331-37.475-10.052-49.806,5.081c-7.326,8.991-9.698,21.078-6.598,32.063c-0.613,0.645-1.2,1.313-1.761,2.001    C395.194,243.36,397.473,265.703,412.605,278.034z M419.153,237.704L419.153,237.704c1.009-1.239,2.175-2.365,3.464-3.349    c2.808-2.141,3.741-5.95,2.242-9.147c-3.311-7.061-2.269-15.528,2.653-21.569c3.442-4.224,8.324-6.855,13.745-7.408    c0.706-0.072,1.409-0.108,2.108-0.108c4.676,0,9.174,1.594,12.849,4.588c3.563,2.903,5.982,6.807,6.998,11.289    c0.599,2.644,2.579,4.759,5.177,5.531c2.581,0.768,4.957,2.026,7.061,3.74c8.72,7.106,10.034,19.981,2.928,28.702    c-4.48,5.499-11.371,8.247-18.422,7.344c-2.97-0.379-5.881,1.045-7.405,3.623c-0.523,0.886-1.119,1.739-1.769,2.536    c-3.442,4.225-8.323,6.855-13.744,7.409c-5.42,0.55-10.733-1.038-14.958-4.48C413.361,259.3,412.047,246.424,419.153,237.704z"/>
		<path d="M487.578,459.471c-8.526-8.834-19.799-13.852-33.57-14.961c-1.794-6.287-5.623-16.484-13.313-26.346    c-2.547-3.266-7.259-3.851-10.526-1.303c-3.267,2.547-3.85,7.26-1.303,10.526c9.563,12.264,11.713,25.392,11.729,25.496    c0.549,3.673,3.704,6.392,7.418,6.392c12.255,0,21.913,3.548,28.706,10.546c7.94,8.179,10.678,19.549,11.616,26.868H297.408    c8.672-5.203,18.092-12.17,27.509-21.517c16.039-15.921,29.259-35.983,39.423-59.74c0.081-0.188,0.162-0.373,0.243-0.561    c0.468-1.101,0.926-2.214,1.38-3.331c0.227-0.556,0.453-1.112,0.677-1.674c0.393-0.986,0.781-1.979,1.164-2.977    c0.108-0.282,0.22-0.554,0.327-0.836c3.427-0.43,6.955-0.647,10.532-0.647c9.806,0,18.716,1.506,26.484,4.477    c3.871,1.48,8.205-0.458,9.684-4.327c1.48-3.869-0.457-8.205-4.327-9.684c-9.485-3.627-20.198-5.466-31.842-5.466    c-1.753,0-3.493,0.059-5.225,0.148c10.411-33.656,15.695-73.347,15.695-118.247c0-4.142-3.358-7.5-7.5-7.5h-82.01    c0.002-0.38,0.01-0.758,0.01-1.139v-14.33c0-4.142-3.358-7.5-7.5-7.5h-1.566V32.934C290.568,14.774,275.794,0,257.634,0    C239.474,0,224.7,14.774,224.7,32.934v52.679c0,4.142,3.358,7.5,7.5,7.5c4.142,0,7.5-3.358,7.5-7.5V32.934    c0-9.889,8.045-17.934,17.934-17.934c9.889,0,17.934,8.045,17.934,17.934v208.902H239.7V115.652c0-4.142-3.358-7.5-7.5-7.5    c-4.142,0-7.5,3.358-7.5,7.5v126.184h-1.566c-4.142,0-7.5,3.358-7.5,7.5v15.469h-82c-4.142,0-7.5,3.358-7.5,7.5    c0,15.593,0.64,30.729,1.902,44.986c0.365,4.127,4.012,7.178,8.132,6.81c4.126-0.365,7.175-4.006,6.81-8.132    c-1.02-11.528-1.621-23.661-1.792-36.164h74.948c0.003,0.038,0.007,0.075,0.009,0.113c2.213,32.959,11.703,64.49,27.413,91.071    c0.069,0.117,0.138,0.233,0.207,0.35c1.049,1.766,2.122,3.512,3.226,5.232c0.12,0.186,0.242,0.37,0.362,0.556    c1.105,1.709,2.23,3.4,3.389,5.062c0.004,0.006,0.008,0.012,0.012,0.018l0.273,0.392c1.394,1.996,3.67,3.191,6.105,3.206    c0.015,0,0.03,0,0.045,0c2.418,0,4.689-1.166,6.098-3.133c0.681-0.951,1.352-1.913,2.016-2.881    c0.292-0.425,0.577-0.857,0.865-1.285c0.353-0.525,0.707-1.049,1.054-1.578c0.386-0.588,0.766-1.181,1.146-1.774    c0.222-0.348,0.445-0.694,0.665-1.044c0.464-0.736,0.922-1.477,1.376-2.221c0.098-0.162,0.197-0.323,0.295-0.486    c16.141-26.622,25.954-58.317,28.359-91.598h75.033c-0.617,45.117-6.835,84.425-18.502,116.938    c-0.004,0.011-0.01,0.021-0.014,0.033c-0.404,1.126-0.818,2.227-1.232,3.327c-0.148,0.394-0.292,0.793-0.442,1.185    c-0.417,1.091-0.843,2.16-1.269,3.226c-0.161,0.402-0.319,0.806-0.481,1.206c-0.468,1.15-0.942,2.284-1.42,3.405    c-0.102,0.241-0.204,0.481-0.308,0.721c-13.916,32.306-31.919,52.393-47.324,64.663c-0.226,0.179-0.451,0.353-0.676,0.529    c-0.474,0.372-0.948,0.744-1.417,1.102c-6.171,4.684-12.048,8.273-17.252,11.006c-0.213,0.111-0.427,0.225-0.638,0.333    c-0.322,0.167-0.636,0.323-0.953,0.483c-12.276,6.176-21.724,8.155-24.524,8.64c-0.025-0.004-0.05-0.009-0.075-0.013    c-0.141-0.024-0.294-0.052-0.464-0.083c-0.039-0.007-0.079-0.015-0.12-0.022c-0.175-0.033-0.367-0.07-0.57-0.111    c-0.039-0.008-0.078-0.016-0.118-0.024c-0.003-0.024-0.007-0.046-0.011-0.069c-0.474-3.42-1.195-6.58-2.116-9.5    c-0.005-0.017-0.01-0.034-0.015-0.05c-0.17-0.538-0.349-1.066-0.533-1.588c-0.024-0.068-0.047-0.137-0.071-0.205    c-0.176-0.495-0.36-0.981-0.548-1.461c-0.035-0.088-0.069-0.177-0.104-0.265c-0.186-0.468-0.378-0.929-0.575-1.384    c-0.039-0.09-0.078-0.179-0.117-0.269c-0.199-0.452-0.402-0.898-0.611-1.337c-0.039-0.081-0.078-0.162-0.117-0.243    c-0.215-0.445-0.433-0.884-0.658-1.315c-0.031-0.06-0.063-0.118-0.094-0.178c-0.237-0.451-0.478-0.896-0.725-1.331    c-0.007-0.012-0.014-0.023-0.02-0.035c-1.607-2.829-3.419-5.345-5.357-7.583c-0.025-0.029-0.049-0.058-0.074-0.086    c-0.289-0.332-0.582-0.657-0.876-0.977c-0.05-0.055-0.101-0.111-0.151-0.165c-0.283-0.305-0.569-0.604-0.857-0.898    c-0.061-0.063-0.123-0.126-0.184-0.188c-0.284-0.287-0.57-0.569-0.857-0.845c-0.065-0.063-0.13-0.125-0.195-0.187    c-0.289-0.275-0.58-0.546-0.872-0.811c-0.059-0.054-0.119-0.107-0.179-0.16c-0.302-0.271-0.605-0.538-0.909-0.799    c-0.041-0.035-0.082-0.068-0.122-0.103c-2.429-2.062-4.931-3.79-7.385-5.233c-0.031-0.018-0.062-0.037-0.092-0.055    c-0.316-0.185-0.631-0.364-0.945-0.54c-0.053-0.029-0.105-0.059-0.158-0.089c-0.301-0.167-0.601-0.33-0.9-0.489    c-0.065-0.034-0.129-0.069-0.194-0.103c-0.141-0.074-0.284-0.153-0.424-0.225c-0.113-0.058-0.226-0.111-0.339-0.169    c-0.066-0.034-0.134-0.07-0.2-0.103c-0.1-0.051-0.2-0.096-0.3-0.146c-0.34-0.168-0.678-0.334-1.017-0.494    c-0.154-0.073-0.307-0.143-0.461-0.214c-0.335-0.155-0.67-0.308-1.004-0.455c-0.156-0.069-0.311-0.134-0.467-0.201    c-0.331-0.142-0.661-0.283-0.99-0.418c-0.156-0.064-0.312-0.125-0.468-0.188c-0.326-0.13-0.65-0.259-0.973-0.382    c-0.157-0.06-0.312-0.116-0.467-0.174c-0.32-0.119-0.64-0.238-0.957-0.35c-0.154-0.055-0.306-0.106-0.459-0.159    c-0.316-0.109-0.631-0.218-0.943-0.321c-0.15-0.049-0.297-0.095-0.446-0.143c-0.312-0.1-0.624-0.2-0.931-0.294    c-0.142-0.043-0.281-0.083-0.421-0.125c-0.31-0.092-0.619-0.185-0.924-0.271c-0.133-0.038-0.263-0.072-0.395-0.109    c-0.307-0.085-0.614-0.17-0.915-0.248c-0.122-0.032-0.24-0.061-0.361-0.092c-0.306-0.078-0.612-0.156-0.911-0.229    c-0.102-0.025-0.2-0.046-0.301-0.07c-0.314-0.074-0.627-0.148-0.932-0.216c-0.066-0.015-0.13-0.028-0.196-0.042    c-0.332-0.073-0.661-0.144-0.981-0.21c-0.038-0.008-0.074-0.014-0.111-0.022c-1.483-0.301-2.839-0.527-4.023-0.695    c-4.544-10.388-17.989-35.395-46.241-47.854c-6.659-16.995-11.796-36.102-15.28-56.845c-0.686-4.085-4.549-6.84-8.639-6.154    c-4.085,0.686-6.84,4.554-6.154,8.639c2.924,17.409,6.976,33.758,12.081,48.797c-5.572-1.069-11.345-1.617-17.294-1.617    c-13.005,0-24.747,2.407-34.9,7.153c-3.752,1.754-5.372,6.218-3.618,9.97c1.754,3.752,6.219,5.374,9.97,3.618    c8.149-3.81,17.754-5.741,28.547-5.741c9.437,0,18.208,1.558,26.272,4.652c0.155,0.074,0.309,0.15,0.47,0.214    c31.119,12.253,42.289,44.251,42.392,44.555c0.962,2.885,3.57,4.873,6.581,5.089c0.108,0.008,0.212,0.032,0.321,0.035    c0.021,0.001,0.487,0.019,1.293,0.094c0.05,0.005,0.1,0.01,0.153,0.015c0.157,0.015,0.328,0.033,0.507,0.053    c0.123,0.013,0.25,0.028,0.383,0.044c0.127,0.015,0.256,0.031,0.391,0.048c0.207,0.026,0.426,0.056,0.653,0.088    c0.113,0.016,0.225,0.032,0.342,0.049c0.269,0.04,0.553,0.084,0.846,0.133c0.102,0.017,0.204,0.034,0.308,0.051    c0.32,0.055,0.653,0.115,0.996,0.18c0.094,0.018,0.188,0.036,0.283,0.054c0.366,0.072,0.744,0.15,1.133,0.234    c0.083,0.018,0.166,0.036,0.25,0.055c0.411,0.091,0.833,0.19,1.265,0.297c0.07,0.017,0.141,0.035,0.212,0.053    c0.451,0.113,0.911,0.235,1.382,0.367c0.059,0.016,0.118,0.033,0.176,0.05c0.488,0.139,0.984,0.286,1.488,0.446    c0.044,0.014,0.088,0.028,0.133,0.043c0.521,0.166,1.05,0.344,1.585,0.534c0.029,0.01,0.059,0.021,0.088,0.032    c0.552,0.198,1.11,0.408,1.673,0.633c0.011,0.004,0.022,0.009,0.033,0.013c1.163,0.466,2.343,0.992,3.525,1.587    c0.648,0.326,1.272,0.673,1.889,1.024c0.165,0.094,0.334,0.185,0.496,0.28c1.384,0.814,2.688,1.69,3.91,2.632    c0.105,0.081,0.205,0.167,0.309,0.249c0.49,0.386,0.968,0.782,1.432,1.19c0.157,0.138,0.309,0.28,0.463,0.42    c0.404,0.369,0.798,0.745,1.181,1.13c0.155,0.156,0.309,0.312,0.461,0.471c0.383,0.401,0.753,0.812,1.114,1.23    c0.123,0.143,0.25,0.283,0.371,0.428c0.445,0.534,0.874,1.08,1.283,1.641c0.023,0.032,0.048,0.061,0.071,0.093    c0.442,0.611,0.862,1.238,1.262,1.881c0.071,0.113,0.135,0.232,0.204,0.346c0.312,0.515,0.613,1.038,0.899,1.573    c0.105,0.197,0.205,0.399,0.307,0.599c0.239,0.47,0.469,0.945,0.689,1.43c0.101,0.223,0.2,0.447,0.297,0.673    c0.211,0.493,0.41,0.995,0.601,1.503c0.08,0.213,0.163,0.424,0.24,0.64c0.219,0.617,0.422,1.246,0.612,1.884    c0.033,0.109,0.07,0.215,0.102,0.325c0.222,0.771,0.423,1.557,0.604,2.358c0.026,0.115,0.046,0.235,0.071,0.351    c0.116,0.535,0.217,1.081,0.314,1.629H23.398c0.943-6.878,3.556-17.253,10.76-24.716c6.362-6.591,15.436-9.933,26.969-9.933    c3.714,0,6.869-2.718,7.417-6.392c0.016-0.103,1.751-10.639,9.082-21.305c2.346-3.413,1.482-8.082-1.932-10.429    c-3.413-2.346-8.082-1.48-10.429,1.932c-5.59,8.131-8.59,16.157-10.12,21.44c-13.019,1.102-23.691,5.888-31.78,14.27    C7.15,478.354,7.844,503.397,7.882,504.454c0.143,4.036,3.457,7.234,7.495,7.234h233.875h0.152h8.23h238.677    c4.039,0,7.352-3.198,7.495-7.234C503.845,503.345,504.573,477.08,487.578,459.471z M283.068,256.836h1.566v6.83    c0,3.441-0.112,6.863-0.28,10.274c-0.07,1.421-0.137,2.842-0.236,4.258c-0.021,0.299-0.052,0.596-0.074,0.895    c-2.326,31.173-11.67,60.966-26.805,85.566c-15.804-26.226-25.088-58.211-26.419-91.347c-0.111-2.776-0.186-5.558-0.186-8.351    v-8.125h1.566H283.068z"/>
	</g>
</g>















</svg>
