<?xml version="1.0" encoding="iso-8859-1"?>
<!-- Generator: Adobe Illustrator 19.0.0, SVG Export Plug-In . SVG Version: 6.00 Build 0)  -->
<svg version="1.1" id="Capa_1" xmlns="http://www.w3.org/2000/svg" xmlns:xlink="http://www.w3.org/1999/xlink" x="0px" y="0px"
	 viewBox="0 0 511.999 511.999" style="enable-background:new 0 0 511.999 511.999;" xml:space="preserve">
<g>
	<path style="fill:#F0F0F0;" d="M222.002,235.601c0-9.388,15.221-16.998,33.996-16.998s33.996,7.61,33.996,16.998
		s-15.221,27.197-33.996,27.197S222.002,244.988,222.002,235.601L222.002,235.601z M58.6,281.198
		c39.127,16.436,35.733,63.893,45.383,102.478c17.766-33.361,52.434,0.387,63.813,65.047c45.157-53.484,58.672,33.722,88.203,53.277
		c29.531-19.556,43.045-106.762,88.202-53.277c11.378-64.66,46.048-98.408,63.813-65.047c9.649-38.584,6.257-86.041,45.384-102.478
		c-1.57-48.15-14.988-95.188-35.142-134.694c-19.071-37.385-44.174-68.024-70.977-86.48c-3.504-1.359-6.988-2.641-10.451-3.846
		c-28.508-9.92-55.606-14.693-80.829-15.304c-25.223,0.61-52.322,5.384-80.829,15.304c-3.464,1.205-6.948,2.486-10.452,3.846
		c-26.803,18.456-51.905,49.096-70.977,86.48C73.587,186.01,60.17,233.048,58.6,281.198z"/>
	<path style="fill:#999999;" d="M45.999,10.001c6.977,28.905,29.456,104.68,47.742,136.503
		c19.071-37.385,44.174-68.024,70.977-86.48c3.504-1.359,6.988-2.641,10.452-3.846C129.774,20.544,76.573,13.429,45.999,10.001z"/>
	<path style="fill:#838383;" d="M222.002,235.601c0,9.388,15.221,27.197,33.996,27.197s33.996-17.81,33.996-27.197
		c0-9.388-15.221-16.998-33.996-16.998C237.223,218.603,222.002,226.213,222.002,235.601z"/>
	<path style="fill:#999999;" d="M347.279,60.023c26.803,18.456,51.905,49.096,70.977,86.48
		c18.286-31.822,40.765-107.597,47.743-136.502c-30.574,3.428-83.775,10.543-129.171,46.177
		C340.291,57.383,343.775,58.664,347.279,60.023z"/>
</g>
<path d="M473.499,3.386c-2.158-2.446-5.37-3.687-8.614-3.323c-26.751,2.999-81.573,9.151-129.898,44.95
	c-26.624-8.756-53.044-13.515-78.745-14.137c-0.162-0.004-0.322-0.004-0.484,0c-25.701,0.622-52.121,5.38-78.745,14.137
	C128.686,9.215,73.864,3.063,47.113,0.064C43.871-0.3,40.657,0.941,38.5,3.387c-2.158,2.446-2.987,5.791-2.222,8.961
	c5.765,23.884,26.845,97.548,46.183,134.376c-20.662,42.18-32.369,88.528-33.855,134.148c-0.136,4.144,2.3,7.94,6.121,9.546
	c24.885,10.453,29.134,36.61,34.054,66.897c1.547,9.525,3.146,19.372,5.501,28.786c1.004,4.015,4.376,6.995,8.482,7.5
	c4.115,0.498,8.101-1.574,10.045-5.226c1.543-2.897,4.677-7.76,8.32-7.76c3.695,0,10.701,4.34,18.281,16.571
	c8.251,13.314,14.834,32.232,18.536,53.269c0.673,3.822,3.497,6.91,7.244,7.921c3.746,1.014,7.742-0.237,10.245-3.203
	c7.385-8.746,14.119-13.563,18.963-13.563c8.949,0,18.746,16.843,27.391,31.703c8.386,14.415,17.057,29.321,28.687,37.024
	c1.674,1.107,3.598,1.662,5.522,1.662c1.924,0,3.848-0.555,5.521-1.662c11.632-7.703,20.303-22.609,28.688-37.025
	c8.643-14.859,18.439-31.702,27.39-31.702c4.844,0,11.578,4.817,18.963,13.563c2.504,2.966,6.503,4.217,10.245,3.203
	c3.747-1.011,6.571-4.099,7.244-7.921c3.702-21.039,10.285-39.957,18.536-53.271c7.58-12.229,14.586-16.569,18.282-16.569
	c3.644,0,6.775,4.861,8.319,7.76c1.944,3.651,5.938,5.724,10.044,5.226c4.107-0.504,7.479-3.485,8.483-7.5
	c2.354-9.415,3.954-19.263,5.502-28.787c4.92-30.287,9.17-56.443,34.054-66.897c3.821-1.605,6.257-5.402,6.121-9.546
	c-1.488-45.62-13.193-91.968-33.855-134.15c19.336-36.823,40.418-110.488,46.184-134.374C476.485,9.177,475.656,5.833,473.499,3.386
	z M155.393,54.391c-16.449,12.032-32.184,28.331-46.275,47.756c-0.164,0.203-0.314,0.415-0.461,0.631
	c-5.049,7.003-9.883,14.409-14.463,22.161C81.1,95.383,67.125,50.53,59.332,21.685C84.276,25.061,121.208,32.45,155.393,54.391z
	 M403.475,354.108c-0.494,3.041-0.993,6.115-1.52,9.183c-4.302-2.157-8.275-2.673-11.088-2.673
	c-21.372,0-41.905,27.414-52.646,68.557c-6.932-5.071-13.759-7.563-20.624-7.563c-20.455,0-32.77,21.171-44.678,41.646
	c-5.496,9.449-11.134,19.143-16.921,25.499c-5.786-6.357-11.425-16.05-16.922-25.499c-11.91-20.475-24.226-41.646-44.678-41.646
	c-6.865,0-13.692,2.491-20.624,7.563c-10.741-41.142-31.274-68.557-52.645-68.557c-2.813,0-6.787,0.516-11.088,2.673
	c-0.526-3.066-1.025-6.141-1.52-9.181c-4.802-29.56-10.201-62.808-39.646-79.038c3.346-61.09,25.566-116.829,53.722-157.172
	c17.15-1.307,32.497,1.897,46.783,9.769c2.475,1.364,5.412,1.614,8.086,0.695c2.672-0.922,4.829-2.932,5.938-5.532l2.742-6.432
	c11.517,5.263,20.374,13.04,24.906,22.066c1.755,3.496,5.281,5.516,8.944,5.516c1.508,0,3.039-0.343,4.478-1.064
	c4.936-2.479,6.929-8.488,4.45-13.424c-8.106-16.149-24.149-28.723-45.174-35.403c-4.906-1.56-10.205,0.867-12.228,5.608
	l-2.415,5.665c-9.843-4.105-20.22-6.569-31.052-7.406c10.207-11.818,20.838-21.635,31.379-29.035
	c29.379-11.267,58.492-17.336,86.565-18.046c28.072,0.71,57.186,6.779,86.56,18.044c10.541,7.4,21.172,17.217,31.378,29.035
	c-10.831,0.837-21.209,3.302-31.051,7.406l-2.415-5.665c-2.022-4.742-7.319-7.171-12.228-5.608
	c-21.022,6.68-37.065,19.253-45.174,35.403c-2.478,4.936-0.486,10.946,4.449,13.423c1.441,0.724,2.971,1.065,4.48,1.065
	c3.662,0,7.19-2.02,8.944-5.515c4.532-9.027,13.39-16.804,24.906-22.067l2.742,6.432c1.109,2.6,3.267,4.61,5.939,5.532
	c2.672,0.919,5.61,0.669,8.086-0.695c14.287-7.871,29.635-11.074,46.784-9.768c28.154,40.342,50.375,96.082,53.722,157.171
	C413.676,291.301,408.277,324.549,403.475,354.108z M417.803,124.939c-4.584-7.758-9.422-15.17-14.477-22.177
	c-0.143-0.209-0.287-0.415-0.445-0.612c-14.094-19.426-29.828-35.726-46.277-47.758c34.185-21.941,71.116-29.33,96.061-32.706
	C444.872,50.531,430.895,95.384,417.803,124.939z"/>
<path d="M159.357,270.461c-5.063-2.2-10.955,0.12-13.158,5.184c-0.02,0.047-0.069,0.163-0.089,0.211
	c-2.124,5.096,0.288,10.939,5.384,13.065c1.256,0.524,2.559,0.773,3.841,0.773c3.907,0,7.62-2.307,9.229-6.13
	C166.725,278.512,164.403,272.655,159.357,270.461z"/>
<path d="M365.784,275.614c-2.212-5.044-8.091-7.352-13.145-5.153c-5.064,2.202-7.386,8.094-5.184,13.158
	c0.005,0.011,0.013,0.028,0.021,0.046c1.627,3.771,5.309,6.039,9.185,6.039c1.282,0,2.585-0.248,3.842-0.772
	c5.099-2.124,7.509-7.979,5.385-13.076C365.861,275.791,365.815,275.684,365.784,275.614z"/>
<path d="M348.301,248.739c-13.22-13.742-30.335-21.401-50.932-22.862c-5.957-10.408-21.549-17.274-41.371-17.274
	s-35.414,6.866-41.371,17.274c-20.597,1.461-37.712,9.12-50.932,22.862c-3.828,3.98-3.706,10.311,0.274,14.14
	c1.939,1.865,4.438,2.793,6.932,2.793c2.624,0,5.245-1.026,7.208-3.067c9.33-9.699,21.561-15.276,36.415-16.654
	c2.243,4.866,5.902,9.774,10.687,14.149c6.203,5.672,13.355,9.575,20.787,11.44v43.53c-13.191,2.071-25.359,8.221-34.984,17.845
	c-3.905,3.904-3.906,10.236-0.001,14.142c3.903,3.905,10.236,3.906,14.142,0.001c8.24-8.238,19.194-12.775,30.844-12.775
	c11.649,0,22.603,4.537,30.843,12.775c1.952,1.952,4.511,2.929,7.07,2.929c2.56,0,5.119-0.977,7.071-2.93
	c3.905-3.905,3.904-10.236-0.001-14.142c-9.624-9.624-21.792-15.773-34.983-17.845v-43.53c7.432-1.865,14.584-5.769,20.787-11.44
	c4.784-4.375,8.443-9.283,10.687-14.149c14.854,1.378,27.085,6.955,36.415,16.654c1.964,2.041,4.584,3.067,7.208,3.067
	c2.494,0,4.992-0.928,6.932-2.793C352.007,259.05,352.129,252.719,348.301,248.739z M255.999,252.798
	c-13.112,0-23.371-12.666-23.975-16.995c1.188-2.189,9.537-7.2,23.975-7.2c14.419,0,22.765,4.998,23.971,7.192
	C279.311,240.204,269.074,252.798,255.999,252.798z"/>
<path d="M182.706,204.687c11.016,0,20-8.984,20-20s-8.984-20-20-20s-20,8.984-20,20C162.706,195.702,171.69,204.687,182.706,204.687
	z"/>
<path d="M329.292,204.687c11.016,0,20-8.984,20-20s-8.984-20-20-20s-20,8.984-20,20
	C309.292,195.702,318.276,204.687,329.292,204.687z"/>
<g>
</g>
<g>
</g>
<g>
</g>
<g>
</g>
<g>
</g>
<g>
</g>
<g>
</g>
<g>
</g>
<g>
</g>
<g>
</g>
<g>
</g>
<g>
</g>
<g>
</g>
<g>
</g>
<g>
</g>
</svg>
