<?xml version="1.0" encoding="iso-8859-1"?>
<!-- Generator: Adobe Illustrator 19.0.0, SVG Export Plug-In . SVG Version: 6.00 Build 0)  -->
<svg version="1.1" id="Layer_1" xmlns="http://www.w3.org/2000/svg" xmlns:xlink="http://www.w3.org/1999/xlink" x="0px" y="0px"
	 viewBox="0 0 512 512" style="enable-background:new 0 0 512 512;" xml:space="preserve">
<path style="fill:#D6B79D;" d="M51.075,450.847h40.963V295.152H33.071v95.486v16.759v13.127v12.319
	C33.071,442.787,41.131,450.847,51.075,450.847z"/>
<rect x="55.259" y="295.15" style="fill:#C69C79;" width="36.777" height="155.69"/>
<path style="fill:#AB825B;" d="M41.045,363.038h50.992v-67.886H34.155c-3.33,0-6.029,2.699-6.029,6.029v48.937
	C28.125,357.254,33.91,363.038,41.045,363.038z"/>
<rect x="55.259" y="295.15" style="fill:#A07853;" width="36.777" height="67.886"/>
<path style="fill:#D6B79D;" d="M460.923,450.847H419.96V295.152h58.967v137.692C478.927,442.787,470.867,450.847,460.923,450.847z"
	/>
<path style="fill:#C69C79;" d="M456.737,295.152v155.695h4.186c9.943,0,18.004-8.061,18.004-18.004V295.152H456.737z"/>
<path style="fill:#AB825B;" d="M470.953,363.038h-50.992v-67.886h57.883c3.33,0,6.029,2.699,6.029,6.029v48.937
	C483.873,357.254,478.088,363.038,470.953,363.038z"/>
<rect x="419.959" y="295.15" style="fill:#A07853;" width="36.777" height="67.886"/>
<polygon style="fill:#AB825B;" points="325.978,36.78 295.193,7.287 216.805,7.287 186.02,36.78 186.02,39.054 325.978,39.054 "/>
<path style="fill:#B79274;" d="M374.522,504.713H137.476c-28.137,0-50.946-22.809-50.946-50.946V92.969h338.938v360.798
	C425.468,481.904,402.659,504.713,374.522,504.713z"/>
<path style="fill:#AB825B;" d="M395.593,92.969v360.798c0,28.137-22.809,50.946-50.946,50.946h29.875
	c28.137,0,50.946-22.809,50.946-50.946V92.969H395.593z"/>
<g>
	<polygon style="fill:#B79274;" points="216.805,97.83 216.805,7.287 186.02,36.78 186.02,97.83 	"/>
	<polygon style="fill:#B79274;" points="325.978,97.83 325.978,36.78 295.193,7.287 295.193,97.83 	"/>
</g>
<path style="fill:#D6B79D;" d="M368.518,259.656H143.48c-41.723,0-75.547-33.824-75.547-75.547v-70.158
	c0-11.588,9.394-20.982,20.982-20.982h334.169c11.588,0,20.982,9.394,20.982,20.982v70.158
	C444.065,225.832,410.242,259.656,368.518,259.656z"/>
<path style="fill:#C69C79;" d="M423.083,92.969h-29.972c11.588,0,20.982,9.394,20.982,20.982v70.158
	c0,41.723-33.824,75.547-75.547,75.547h29.972c41.723,0,75.547-33.824,75.547-75.547v-70.158
	C444.065,102.363,434.671,92.969,423.083,92.969z"/>
<path style="fill:#AB825B;" d="M161.156,322.094L161.156,322.094c-12.186,0-22.065-9.879-22.065-22.065V92.969h44.131v207.059
	C183.221,312.215,173.342,322.094,161.156,322.094z"/>
<path style="fill:#A07853;" d="M153.25,92.969v207.059c0,6.4-2.727,12.16-7.08,16.191c3.935,3.644,9.199,5.875,14.986,5.875l0,0
	c12.186,0,22.065-9.879,22.065-22.065V92.969H153.25z"/>
<path style="fill:#AB825B;" d="M350.842,322.094L350.842,322.094c-12.186,0-22.065-9.879-22.065-22.065V92.969h44.131v207.059
	C372.907,312.215,363.028,322.094,350.842,322.094z"/>
<path style="fill:#A07853;" d="M342.936,92.969v207.059c0,6.4-2.727,12.16-7.079,16.191c3.935,3.644,9.199,5.875,14.986,5.875l0,0
	c12.186,0,22.065-9.879,22.065-22.065V92.969H342.936z"/>
<path style="fill:#D6B79D;" d="M370.371,462.191h-73.125c-10.97,0-19.863-8.893-19.863-19.863V348.83
	c0-4.087,3.313-7.401,7.401-7.401h98.05c4.087,0,7.401,3.313,7.401,7.401v93.498C390.234,453.298,381.341,462.191,370.371,462.191z"
	/>
<path style="fill:#C69C79;" d="M360.262,341.43v100.898c0,10.97-8.893,19.863-19.863,19.863h29.972
	c10.97,0,19.863-8.893,19.863-19.863V348.83c0-4.087-3.313-7.401-7.401-7.401h-22.571V341.43z"/>
<path style="fill:#AB825B;" d="M364.043,386.957h-60.469c-14.465,0-26.191-11.726-26.191-26.191V348.83
	c0-4.087,3.313-7.401,7.401-7.401h98.05c4.087,0,7.401,3.313,7.401,7.401v11.935C390.234,375.231,378.508,386.957,364.043,386.957z"
	/>
<path style="fill:#A07853;" d="M360.293,341.43v19.336c0,14.465-11.726,26.191-26.191,26.191h29.94
	c14.465,0,26.191-11.726,26.191-26.191V348.83c0-4.087-3.313-7.401-7.401-7.401h-22.539V341.43z"/>
<path style="fill:#D6B79D;" d="M214.752,462.191h-73.125c-10.97,0-19.863-8.893-19.863-19.863V348.83
	c0-4.087,3.313-7.401,7.401-7.401h98.05c4.087,0,7.401,3.313,7.401,7.401v93.498C234.616,453.298,225.722,462.191,214.752,462.191z"
	/>
<path style="fill:#C69C79;" d="M204.644,341.43v100.898c0,10.97-8.893,19.863-19.863,19.863h29.972
	c10.97,0,19.863-8.893,19.863-19.863V348.83c0-4.087-3.313-7.401-7.401-7.401h-22.571V341.43z"/>
<path style="fill:#AB825B;" d="M208.424,386.957h-60.469c-14.465,0-26.191-11.726-26.191-26.191V348.83
	c0-4.087,3.313-7.401,7.401-7.401h98.05c4.087,0,7.401,3.313,7.401,7.401v11.935C234.616,375.231,222.889,386.957,208.424,386.957z"
	/>
<path style="fill:#A07853;" d="M204.675,341.43v19.336c0,14.465-11.726,26.191-26.191,26.191h29.94
	c14.465,0,26.191-11.726,26.191-26.191V348.83c0-4.087-3.313-7.401-7.401-7.401h-22.539V341.43z"/>
<path style="fill:#AB825B;" d="M470.953,363.038h-50.992v-67.886h57.883c3.33,0,6.029,2.699,6.029,6.029v48.937
	C483.873,357.254,478.088,363.038,470.953,363.038z"/>
<g>
	<path style="fill:#121419;" d="M124.488,143.44c-7.793,0-14.134,6.341-14.134,14.134v63.411c0,7.793,6.341,14.134,14.134,14.134
		h72.639c7.793,0,14.134-6.341,14.134-14.134v-63.411c0-7.793-6.341-14.134-14.134-14.134H124.488z M124.927,220.546v-62.533h71.761
		v24.426h-35.88c-4.025,0-7.287,3.262-7.287,7.287c0,4.024,3.262,7.287,7.287,7.287h35.88v23.533H124.927z"/>
	<path style="fill:#121419;" d="M314.522,143.44c-7.793,0-14.134,6.341-14.134,14.134v63.411c0,7.793,6.341,14.134,14.134,14.134
		h72.64c7.793,0,14.134-6.341,14.134-14.134v-63.411c0-7.793-6.341-14.134-14.134-14.134H314.522z M314.961,220.546v-62.533h71.762
		v24.426h-35.88c-4.025,0-7.287,3.262-7.287,7.287c0,4.024,3.262,7.287,7.287,7.287h35.88v23.533H314.961z"/>
	<path style="fill:#121419;" d="M491.159,301.181c0-7.342-5.973-13.316-13.316-13.316h-45.089v-51.543
		c11.616-14.256,18.598-32.431,18.598-52.214v-18.491c0-4.024-3.262-7.287-7.287-7.287s-7.287,3.262-7.287,7.287v18.491
		c0,33.657-24.491,61.683-56.584,67.241v-6.734c0-4.024-3.262-7.287-7.287-7.287s-7.286,3.262-7.286,7.287v14.913v40.5
		c0,8.149-6.63,14.779-14.78,14.779c-8.149,0-14.778-6.63-14.778-14.779v-40.373v-15.041c0-4.024-3.262-7.287-7.287-7.287
		s-7.287,3.262-7.287,7.287v7.754H190.508v-7.754c0-4.024-3.262-7.287-7.287-7.287c-4.025,0-7.287,3.262-7.287,7.287v15.041v40.373
		c0,8.149-6.63,14.779-14.779,14.779s-14.779-6.63-14.779-14.779v-40.5v-14.913c0-4.024-3.262-7.287-7.287-7.287
		s-7.287,3.262-7.287,7.287v6.734c-32.093-5.558-56.584-33.584-56.584-67.241v-70.157c0-7.012,5.3-12.801,12.102-13.595
		c0.01-0.001,0.019-0.001,0.029-0.002c0.179-0.02,0.338-0.031,0.504-0.045c0.351-0.027,0.703-0.054,1.061-0.054h42.889v33.331
		c0,4.024,3.262,7.287,7.287,7.287s7.287-3.262,7.287-7.287v-33.331h29.558v33.331c0,4.024,3.262,7.287,7.287,7.287
		c4.025,0,7.287-3.262,7.287-7.287v-33.331h26.297h78.389h26.297v33.331c0,4.024,3.262,7.287,7.287,7.287s7.287-3.262,7.287-7.287
		v-33.331h29.558v33.331c0,4.024,3.262,7.287,7.286,7.287c4.025,0,7.287-3.262,7.287-7.287v-33.331h42.889
		c0.358,0,0.71,0.027,1.061,0.054c0.165,0.014,0.325,0.025,0.504,0.045c0.01,0.001,0.019,0.001,0.029,0.002
		c6.802,0.793,12.102,6.583,12.102,13.595v21.842c0,4.024,3.262,7.287,7.287,7.287s7.287-3.262,7.287-7.287v-21.842
		c0-13.956-10.168-25.574-23.483-27.855c-0.753-0.263-1.559-0.413-2.401-0.413h-2.384h-50.176h-39.643V36.78
		c0-1.987-0.811-3.887-2.246-5.261L300.234,2.025c-0.028-0.027-0.061-0.048-0.09-0.074c-0.207-0.192-0.426-0.373-0.654-0.54
		c-0.046-0.034-0.091-0.07-0.138-0.103c-0.258-0.179-0.527-0.341-0.808-0.487c-0.054-0.028-0.11-0.053-0.165-0.079
		c-0.246-0.12-0.5-0.227-0.761-0.319c-0.051-0.018-0.101-0.039-0.153-0.056c-0.295-0.097-0.597-0.175-0.907-0.234
		c-0.066-0.013-0.133-0.02-0.2-0.031c-0.241-0.039-0.486-0.065-0.735-0.08c-0.093-0.006-0.185-0.012-0.278-0.014
		C295.294,0.007,295.245,0,295.193,0h-78.389c-0.052,0-0.103,0.007-0.155,0.008c-0.091,0.002-0.182,0.008-0.273,0.014
		c-0.251,0.015-0.498,0.041-0.741,0.081c-0.066,0.011-0.132,0.018-0.198,0.03c-0.31,0.059-0.612,0.137-0.906,0.234
		c-0.053,0.017-0.103,0.038-0.155,0.057c-0.259,0.092-0.511,0.197-0.756,0.317c-0.057,0.028-0.114,0.053-0.17,0.082
		c-0.279,0.145-0.547,0.306-0.804,0.485c-0.048,0.034-0.094,0.071-0.142,0.106c-0.228,0.167-0.445,0.346-0.651,0.538
		c-0.029,0.027-0.062,0.047-0.09,0.075l-30.784,29.492c-1.435,1.374-2.246,3.275-2.246,5.261v48.903H139.09H88.915h-2.384
		c-0.843,0-1.648,0.15-2.401,0.413c-13.315,2.281-23.483,13.899-23.483,27.855v70.157c0,19.783,6.981,37.957,18.598,52.214v51.543
		h-45.09c-7.343,0-13.316,5.973-13.316,13.316v48.937c0,5.048,1.874,9.659,4.946,13.204v27.206c0,4.024,3.262,7.287,7.287,7.287
		s7.287-3.262,7.287-7.287v-20.215c0.229,0.008,0.458,0.011,0.688,0.011h38.198v73.236h-28.17c-5.91,0-10.717-4.808-10.717-10.717
		v-12.471c0-4.024-3.262-7.287-7.287-7.287s-7.287,3.262-7.287,7.287v12.471c0,13.945,11.345,25.29,25.29,25.29h28.35
		C81.667,488.21,106.837,512,137.476,512h237.046c30.639,0,55.809-23.79,58.052-53.866h28.35c13.945,0,25.29-11.345,25.29-25.29
		v-69.521c3.072-3.545,4.946-8.156,4.946-13.204v-48.938H491.159z M224.091,46.34h63.816v39.343h-63.816L224.091,46.34
		L224.091,46.34z M318.692,85.683H302.48V39.054V24.358l16.212,15.532V85.683z M287.907,31.767h-63.816V14.573h63.816V31.767z
		 M193.306,39.89l16.212-15.532v14.695v46.629h-16.212V39.89z M476.586,302.438v47.68c0,1.768-0.82,3.347-2.099,4.38
		c-0.021,0.016-0.045,0.028-0.066,0.045c-0.257,0.202-0.579,0.419-0.961,0.612c-0.023,0.011-0.046,0.022-0.069,0.033
		c-0.11,0.054-0.224,0.106-0.343,0.155c-0.053,0.021-0.108,0.039-0.162,0.059c-0.098,0.037-0.196,0.074-0.301,0.106
		c-0.113,0.034-0.228,0.061-0.344,0.089c-0.055,0.013-0.106,0.03-0.163,0.041c-0.364,0.074-0.741,0.113-1.126,0.113h-38.198v-53.313
		L476.586,302.438L476.586,302.438z M41.045,355.751c-0.385,0-0.762-0.039-1.126-0.113c-0.057-0.012-0.109-0.028-0.165-0.042
		c-0.115-0.027-0.23-0.054-0.342-0.088c-0.104-0.032-0.202-0.069-0.3-0.106c-0.054-0.02-0.109-0.038-0.163-0.06
		c-0.119-0.049-0.233-0.101-0.343-0.154c-0.023-0.011-0.047-0.022-0.07-0.034c-0.382-0.193-0.704-0.409-0.961-0.612
		c-0.021-0.017-0.045-0.028-0.066-0.045c-1.278-1.034-2.099-2.612-2.099-4.38v-47.68h43.832v53.313H41.045V355.751z
		 M418.181,453.768c0,24.074-19.585,43.659-43.659,43.659H137.476c-24.074,0-43.659-19.585-43.659-43.659v-2.92v-87.809v-67.886
		v-44.73c11.1,8.364,24.081,13.756,37.987,15.704v33.902c0,16.185,13.168,29.352,29.353,29.352
		c16.184,0,29.351-13.167,29.351-29.352v-33.086h130.983v33.086c0,16.185,13.167,29.352,29.351,29.352
		c16.185,0,29.353-13.167,29.353-29.352v-33.902c13.906-1.949,26.887-7.341,37.987-15.704v44.73v67.886v87.809v2.92H418.181z
		 M471.64,432.843c0,5.909-4.807,10.717-10.717,10.717h-28.169v-73.236h38.198c0.23,0,0.459-0.004,0.688-0.011L471.64,432.843
		L471.64,432.843z"/>
	<path style="fill:#121419;" d="M382.833,334.143h-98.049c-8.099,0-14.688,6.589-14.688,14.687v11.935v81.562
		c0,14.971,12.179,27.15,27.15,27.15h73.125c14.971,0,27.15-12.179,27.15-27.15v-81.562V348.83
		C397.521,340.732,390.932,334.143,382.833,334.143z M284.669,348.83c0-0.063,0.051-0.114,0.115-0.114h98.049
		c0.064,0,0.115,0.051,0.115,0.114v11.935c0,10.424-8.481,18.905-18.905,18.905h-60.469c-10.424,0-18.905-8.481-18.905-18.905
		V348.83z M370.371,454.905h-73.125c-6.935,0-12.577-5.642-12.577-12.577v-53.952c5.384,3.698,11.895,5.868,18.905,5.868h60.469
		c7.01,0,13.522-2.17,18.905-5.868v53.952C382.948,449.263,377.305,454.905,370.371,454.905z"/>
	<path style="fill:#121419;" d="M227.214,334.143h-98.049c-8.099,0-14.688,6.589-14.688,14.687v11.935v81.562
		c0,14.971,12.179,27.15,27.15,27.15h73.125c14.971,0,27.15-12.179,27.15-27.15v-81.562V348.83
		C241.902,340.732,235.313,334.143,227.214,334.143z M129.05,348.83c0-0.063,0.051-0.114,0.115-0.114h98.049
		c0.064,0,0.115,0.051,0.115,0.114v11.935c0,10.424-8.481,18.905-18.905,18.905h-60.469c-10.424,0-18.905-8.481-18.905-18.905
		V348.83z M214.752,454.905h-73.125c-6.935,0-12.577-5.642-12.577-12.577v-53.952c5.384,3.698,11.895,5.868,18.905,5.868h60.469
		c7.01,0,13.522-2.17,18.905-5.868v53.952C227.329,449.263,221.687,454.905,214.752,454.905z"/>
</g>
<g>
</g>
<g>
</g>
<g>
</g>
<g>
</g>
<g>
</g>
<g>
</g>
<g>
</g>
<g>
</g>
<g>
</g>
<g>
</g>
<g>
</g>
<g>
</g>
<g>
</g>
<g>
</g>
<g>
</g>
</svg>
