<?xml version="1.0" encoding="iso-8859-1"?>
<!-- Generator: Adobe Illustrator 19.0.0, SVG Export Plug-In . SVG Version: 6.00 Build 0)  -->
<svg version="1.1" id="Layer_1" xmlns="http://www.w3.org/2000/svg" xmlns:xlink="http://www.w3.org/1999/xlink" x="0px" y="0px"
	 viewBox="0 0 511.999 511.999" style="enable-background:new 0 0 511.999 511.999;" xml:space="preserve">
<path style="fill:#FF9940;" d="M265.339,188.818l-130.39,248.161l75.71,4.206c0,0,4.206-46.267,50.473-63.092c0,0,0,37.855,0,58.886
	c0,0,46.267,29.443,84.122,63.092c0,0-84.122,21.031-126.183-33.649c0,0-58.886,29.443-113.565,16.824
	C10.888,461.411-16.471,361.269,29.796,272.94S202.247,155.169,265.339,188.818z"/>
<path style="fill:#F5760F;" d="M223.278,445.621c0,0-58.886,29.443-113.565,16.824C37.012,445.669,4.027,382.661,13.63,314.304
	c-20.061,75.98,11.844,150.473,91.876,168.942c54.68,12.618,113.565-16.824,113.565-16.824
	c42.061,54.68,126.183,33.649,126.183,33.649c-6.677-5.935-13.615-11.738-20.515-17.272
	C296.569,484.781,250.872,481.494,223.278,445.621z"/>
<path style="fill:#FFD042;" d="M255.113,184.135c-42.363-16.632-105.599-9.701-156.928,19.826
	c-1.339,5.958-2.067,12.145-2.067,18.507c0,46.46,37.663,84.122,84.122,84.122c8.797,0,17.278-1.355,25.248-3.86l55.171-105.001
	l4.681-8.909C262.094,187.087,258.673,185.533,255.113,184.135z"/>
<circle style="fill:#928D86;" cx="164.395" cy="218.255" r="12.618"/>
<circle style="fill:#FFD042;" cx="446.205" cy="163.576" r="46.267"/>
<path style="fill:#FFC412;" d="M419.988,163.581c0-22.108,15.511-40.583,36.241-45.165c-3.23-0.714-6.583-1.102-10.026-1.102
	c-25.553,0-46.267,20.714-46.267,46.267s20.714,46.267,46.267,46.267c3.445,0,6.797-0.388,10.026-1.102
	C435.498,204.164,419.988,185.69,419.988,163.581z"/>
<path style="fill:#64DDE3;" d="M291.551,56.012c-5.98,17.595-53.515,52.89-53.515,52.89s-16.182-56.951-10.202-74.546
	c5.98-17.595,25.093-27.011,42.688-21.031S297.531,38.417,291.551,56.012z"/>
<path style="fill:#37C9D4;" d="M244.657,42.767c5.44-16.005,21.747-25.239,37.893-22.276c-3.362-3.116-7.41-5.597-12.029-7.167
	c-17.595-5.98-36.707,3.435-42.688,21.031c-5.98,17.595,10.202,74.547,10.202,74.547s5.138-3.815,12.246-9.561
	C246.019,81.088,240.852,53.963,244.657,42.767z"/>
<path style="fill:#64DDE3;" d="M392.777,434.88c-17.678-5.732-53.64-52.764-53.64-52.764s56.717-16.984,74.395-11.253
	c17.678,5.732,27.363,24.709,21.631,42.386C429.432,430.926,410.455,440.611,392.777,434.88z"/>
<path style="fill:#37C9D4;" d="M435.163,392.667c-5.731,17.678-24.709,27.362-42.386,21.631
	c-10.634-3.448-27.882-21.839-39.94-35.95c-8.158,2.106-13.699,3.766-13.699,3.766s35.961,47.033,53.64,52.765
	c17.678,5.731,36.655-3.954,42.386-21.631c2.265-6.984,2.115-14.168,0.024-20.66C435.178,392.615,435.171,392.641,435.163,392.667z"
	/>
<path style="fill:#64DDE3;" d="M82.623,79.029c12.819,13.454,22.063,71.934,22.063,71.934s-57.966-12.056-70.785-25.51
	C21.082,111.998,21.596,90.7,35.051,77.88S69.803,65.575,82.623,79.029z"/>
<path style="fill:#37C9D4;" d="M50.569,119.496c-12.819-13.454-12.305-34.753,1.149-47.573c1.249-1.19,2.568-2.265,3.94-3.226
	c-7.457,0.574-14.771,3.623-20.607,9.184C21.597,90.7,21.083,112,33.902,125.454s70.785,25.51,70.785,25.51
	s-0.647-4.088-1.834-10.348C84.719,135.917,58.657,127.985,50.569,119.496z"/>
<g>
	<circle style="fill:#89EBF0;" cx="270.673" cy="43.707" r="10.515"/>
	<circle style="fill:#89EBF0;" cx="409.475" cy="397.015" r="10.515"/>
	<circle style="fill:#89EBF0;" cx="64.573" cy="94.175" r="10.515"/>
</g>
<path style="fill:#FF9940;" d="M400.23,158.406l81.803,34.443c6.522-7.974,10.436-18.162,10.436-29.267
	c0-0.192-0.013-0.381-0.015-0.573l-78.163-32.911C406.626,137.404,401.465,147.309,400.23,158.406z"/>
<path style="fill:#F5760F;" d="M428.924,136.258l-14.632-6.161c-7.665,7.307-12.826,17.211-14.061,28.307l19.88,8.37
	c-0.073-1.057-0.122-2.12-0.122-3.195C419.988,153.358,423.31,143.916,428.924,136.258z"/>
<path d="M143.887,218.261c0,11.306,9.199,20.505,20.505,20.505c11.306,0,20.505-9.199,20.505-20.505
	c0-11.306-9.199-20.505-20.505-20.505C153.086,197.756,143.887,206.955,143.887,218.261z M169.124,218.261
	c0,2.609-2.123,4.732-4.732,4.732c-2.609,0-4.732-2.123-4.732-4.732c0-2.609,2.123-4.732,4.732-4.732
	C167.001,213.529,169.124,215.652,169.124,218.261z"/>
<path d="M506.957,0.601c-4.061-1.574-8.63,0.445-10.201,4.508c-2.239,5.783-19.83,52.923-38.511,105.685
	c-3.876-0.883-7.902-1.366-12.042-1.366c-29.86,0-54.154,24.293-54.154,54.154c0,21.937,13.119,40.856,31.917,49.358
	c-0.775,2.576-1.504,5.043-2.166,7.344c-20.639,71.644-44.622,81.897-51.48,83.333c-5.91,1.245-11.142-0.817-15.538-6.109
	c-8.598-10.349-12.964-33.357-2.232-59.42c17.084-41.491,43.57-116.094,28.999-149.552c-3.523-8.088-9.14-13.628-16.698-16.462
	c-22.237-8.34-47.24,9.036-74.308,51.643c-13.492,21.236-24.044,43.234-29.142,54.476c-32.578-14.098-77.179-14.564-121.396-0.924
	c-52.297,16.129-95.012,49.666-117.193,92.012C-3.533,319.572-7.293,375.641,12.752,419.264
	c16.795,36.551,49.106,62.002,90.981,71.665c10.34,2.387,20.765,3.366,30.928,3.366c36.338-0.002,69.241-12.541,82.19-18.175
	c18.698,21.211,46.42,33.45,80.614,35.502c3.613,0.217,7.123,0.311,10.504,0.311c22.057,0,38.413-4.016,39.2-4.212
	c6.025-1.507,7.979-9.411,3.326-13.546c-32.177-28.602-69.714-53.794-81.475-61.487v-54.596c0-5.375-5.521-9.253-10.582-7.412
	c-39.188,14.251-50.955,47.275-54.34,62.24l-56.46-3.136l93.743-178.414c2.026-3.856,0.543-8.624-3.313-10.65
	c-3.856-2.027-8.624-0.543-10.649,3.313l-27.384,52.116c-0.244,0.039-0.487,0.086-0.731,0.149
	c-6.19,1.594-12.605,2.402-19.064,2.402c-42.037,0-76.236-34.199-76.236-76.236c0-2.259,0.085-4.525,0.298-6.774
	c0.202-2.145,0.78-4.287,0.613-6.454c12.316-6.845,25.639-12.549,39.737-16.897c39.815-12.282,81.012-12.124,109.891,0.067
	l-13.987,26.622c-2.026,3.856-0.543,8.624,3.313,10.65c3.855,2.026,8.623,0.542,10.649-3.313c0,0,31.223-65.683,49.336-94.192
	c21.88-34.438,41.574-50.532,55.456-45.331c3.504,1.313,5.975,3.853,7.777,7.991c8.815,20.243-2.073,71.551-29.124,137.249
	c-11.505,27.941-9.621,58.285,4.686,75.505c7.576,9.118,19.128,13.936,30.904,11.467c24.848-5.202,47.365-38.729,63.404-94.404
	c0.665-2.308,1.4-4.792,2.182-7.391c2.314,0.304,4.669,0.476,7.064,0.476c29.86,0,54.154-24.293,54.154-54.154
	c0-20.136-11.055-37.728-27.407-47.058c18.685-52.791,36.284-99.957,38.515-105.722C513.037,6.74,511.019,2.173,506.957,0.601z
	 M180.239,314.476c3.512,0,7.013-0.209,10.485-0.604l-62.756,119.439c-1.249,2.375-1.203,5.223,0.121,7.558
	c1.324,2.334,3.743,3.835,6.423,3.984l75.71,4.206c4.204,0.227,7.877-2.927,8.289-7.134c0.15-1.532,3.738-34.411,34.736-51.616
	v46.67c0,2.695,1.378,5.205,3.652,6.653c0.406,0.259,36.461,23.293,70.377,51.411c-25.237,2.805-74.135,2.735-101.953-33.43
	c-2.303-2.993-6.403-3.933-9.778-2.245c-0.564,0.282-56.941,28.04-108.264,16.194c-37.543-8.664-65.275-30.408-80.197-62.882
	c-18.019-39.214-14.393-90.085,9.699-136.079c11.566-22.081,29.365-41.563,51.502-56.994c-0.029,0.954-0.054,1.907-0.054,2.86
	C88.231,273.201,129.505,314.476,180.239,314.476z M479.225,183.109l-70.08-29.507c1.407-5.217,3.886-9.996,7.189-14.086
	l67.969,28.618C483.66,173.55,481.888,178.621,479.225,183.109z M408.443,170.42l59.247,24.946
	c-6.136,4.162-13.533,6.595-21.489,6.595C427.374,201.962,411.68,188.33,408.443,170.42z M482.135,150.107l-51.398-21.64
	c4.735-2.094,9.964-3.265,15.465-3.265C462.625,125.2,476.667,135.572,482.135,150.107z"/>
<path d="M77.123,314.564c-4.397,5.761-12.663,6.87-18.423,2.475c-5.761-4.397-6.872-12.663-2.475-18.424
	c2.642-3.463,1.977-8.411-1.486-11.054c-3.462-2.644-8.411-1.979-11.054,1.485c-9.673,12.676-7.23,30.858,5.445,40.531
	c5.228,3.991,11.391,5.918,17.509,5.918c8.715,0,17.338-3.916,23.021-11.363c2.642-3.462,1.978-8.411-1.485-11.054
	C84.714,310.438,79.766,311.101,77.123,314.564z"/>
<path d="M108.018,367.432c5.228,3.988,11.391,5.917,17.509,5.917c8.716,0,17.338-3.915,23.021-11.363
	c2.643-3.462,1.978-8.411-1.485-11.054c-3.462-2.642-8.411-1.978-11.054,1.485c-4.397,5.76-12.661,6.87-18.423,2.475
	c-5.761-4.397-6.872-12.663-2.475-18.424c2.642-3.463,1.977-8.411-1.486-11.054c-3.462-2.644-8.411-1.978-11.054,1.485
	C92.901,339.576,95.342,357.758,108.018,367.432z"/>
<path d="M85.641,377.796c-2.129,2.791-5.219,4.585-8.698,5.054c-3.481,0.461-6.934-0.449-9.725-2.578
	c-5.761-4.397-6.872-12.661-2.474-18.424c2.642-3.463,1.977-8.411-1.486-11.054c-3.462-2.644-8.412-1.979-11.054,1.485
	c-9.673,12.676-7.23,30.857,5.445,40.53c5.228,3.991,11.391,5.918,17.51,5.918c8.715,0,17.338-3.916,23.021-11.363
	c2.642-3.463,1.977-8.411-1.486-11.054C93.233,373.667,88.283,374.333,85.641,377.796z"/>
<path d="M235.497,116.369c2.429,0.829,5.179,0.394,7.239-1.135c8.268-6.139,49.837-37.72,56.281-56.683
	c7.371-21.685-4.273-45.323-25.958-52.692c-21.685-7.375-45.323,4.273-52.693,25.96c-6.445,18.962,7.268,69.335,10.083,79.239
	C231.157,113.549,233.044,115.536,235.497,116.369z M235.3,36.894c3.242-9.539,12.035-16.442,22.063-17.366
	c3.579-0.33,7.216,0.107,10.619,1.264c13.45,4.572,20.673,19.234,16.102,32.683l-0.001,0.001
	c-3.166,9.318-24.328,28.337-41.466,41.95C237.144,73.408,232.272,45.802,235.3,36.894z"/>
<path d="M415.964,363.359c-19.051-6.175-69.224,8.247-79.089,11.201c-5.191,1.555-7.3,8.033-4.003,12.345
	c6.254,8.18,38.42,49.299,57.471,55.477c0,0,0,0,0.001,0c4.241,1.375,8.544,2.028,12.779,2.028c17.52,0,33.852-11.186,39.542-28.73
	C449.729,393.895,437.749,370.424,415.964,363.359z M427.661,410.816c-4.382,13.514-18.937,20.942-32.452,16.562h0.001
	c-9.362-3.036-28.677-23.926-42.531-40.871c21.937-5.783,49.471-11.049,58.422-8.142
	C424.612,382.745,432.042,397.304,427.661,410.816z"/>
<path d="M103.079,158.684c5.311,1.103,10.242-3.595,9.396-8.953c-1.608-10.171-10.327-61.644-24.143-76.143
	C72.535,57.009,46.191,56.375,29.61,72.171c-16.581,15.798-17.217,42.141-1.417,58.723
	C42.008,145.393,92.998,156.588,103.079,158.684z M40.49,83.59c4.979-4.744,11.376-7.099,17.767-7.099
	c6.807,0,13.603,2.673,18.657,7.978c6.79,7.125,13.834,34.693,17.954,56.19c-21.271-5.151-48.467-13.52-55.257-20.646
	C29.812,109.728,30.206,93.39,40.49,83.59z"/>
<g>
</g>
<g>
</g>
<g>
</g>
<g>
</g>
<g>
</g>
<g>
</g>
<g>
</g>
<g>
</g>
<g>
</g>
<g>
</g>
<g>
</g>
<g>
</g>
<g>
</g>
<g>
</g>
<g>
</g>
</svg>
