<?xml version="1.0" encoding="iso-8859-1"?>
<!-- Generator: Adobe Illustrator 19.0.0, SVG Export Plug-In . SVG Version: 6.00 Build 0)  -->
<svg version="1.1" id="Layer_1" xmlns="http://www.w3.org/2000/svg" xmlns:xlink="http://www.w3.org/1999/xlink" x="0px" y="0px"
	 viewBox="0 0 512 512" style="enable-background:new 0 0 512 512;" xml:space="preserve">
<path style="fill:#B69362;" d="M252.532,463.905l-36.019-171.092h-36.701c-13.088,0-26.176,7.725-30.578,23.175l-42.142,147.917
	c-4.479,15.72,7.258,31.378,23.521,31.378h49.199h36.701h12.498C245.273,495.283,257.011,479.625,252.532,463.905z"/>
<path style="fill:#A57D48;" d="M106.14,471.296c0.301,12.889,10.782,23.987,24.473,23.987h49.199h36.701h12.498
	c13.691,0,24.172-11.098,24.473-23.987H106.14z"/>
<path style="fill:#8D663D;" d="M185.935,315.989l-42.142,147.917c-4.479,15.72,7.258,31.378,23.521,31.378h98.398
	c16.263,0,28-15.658,23.521-31.378l-42.142-147.917C238.286,285.088,194.739,285.088,185.935,315.989z"/>
<path style="fill:#7F8383;" d="M359.659,247.505L171.533,111.838l-91.764,91.764l141.866,181.926
	c2.205,2.738,4.578,5.384,7.121,7.926c38.337,38.337,100.493,38.337,138.829,0s38.337-100.493,0-138.829
	C365.042,252.083,362.397,249.71,359.659,247.505z"/>
<path style="fill:#91928F;" d="M359.659,247.505L171.533,111.838l0,0c-18.393,18.393-19.967,47.691-3.651,67.949l102.354,132.867
	c2.205,2.738,4.578,5.384,7.121,7.926c32.031,32.031,80.682,37.278,118.184,15.783c3.656-29.054-5.645-59.428-27.954-81.737
	C365.042,252.083,362.397,249.71,359.659,247.505z"/>
<path style="fill:#7F8383;" d="M122.189,154.258c-19.068,19.068-38.808,26.287-49.081,24.926l-9.316-1.233l-1.237-9.316
	c-1.363-10.272,5.856-30.013,24.926-49.084s38.812-26.289,49.084-24.926l9.316,1.237l1.233,9.316
	C148.477,115.452,141.257,135.192,122.189,154.258z"/>
<path style="fill:#91928F;" d="M71.355,103.425c-31.124,31.124-40.817,71.895-21.648,91.064s59.938,9.476,91.064-21.648
	s40.817-71.895,21.648-91.064S102.479,72.3,71.355,103.425z"/>
<path style="fill:#B69362;" d="M465.125,463.905l-36.019-171.092h-36.701c-13.088,0-26.176,7.725-30.578,23.175l-42.142,147.917
	c-4.479,15.72,7.258,31.378,23.521,31.378h49.199h36.701h12.498C457.867,495.283,469.604,479.625,465.125,463.905z"/>
<path style="fill:#A57D48;" d="M318.733,471.296c0.301,12.889,10.782,23.987,24.473,23.987h49.199h36.701h12.498
	c13.691,0,24.172-11.098,24.473-23.987H318.733z"/>
<path style="fill:#8D663D;" d="M398.529,315.989l-42.142,147.917c-4.479,15.72,7.258,31.378,23.521,31.378h98.398
	c16.263,0,28-15.658,23.521-31.378l-42.142-147.917C450.88,285.088,407.333,285.088,398.529,315.989z"/>
<path style="fill:#8D472E;" d="M15.325,78.072c0,33.885,27.47,61.355,61.355,61.355V41.259L15.325,78.072z"/>
<path style="fill:#D5A150;" d="M130.672,108.749c0,30.497-24.722,55.219-55.219,55.219s-55.219-24.722-55.219-55.219
	s24.722-67.49,55.219-67.49S130.672,78.253,130.672,108.749z"/>
<path style="fill:#E1B872;" d="M75.453,114.948c-0.015-10.191-8.215-18.469-18.406-18.469h-24.44
	c-6.747,0-12.358,5.404-12.373,12.151c0,0.04,0,0.08,0,0.12c0,30.497,24.722,55.219,55.219,55.219c0.108,0,0.217,0,0.325-0.001
	c11.06-0.064,16.88-13.14,9.744-21.589C79.254,134.956,75.469,125.386,75.453,114.948z"/>
<path style="fill:#BD7155;" d="M113.246,21.631l-25.521-4.912H75.454c-32.649,0-59.872,23.188-66.124,53.992
	c-0.772,3.803,2.14,7.363,6.02,7.363h12.271h17.156h12.271c20.332,0,36.813,16.482,36.813,36.813
	c0,21.489,25.938,32.46,41.244,17.376c12.414-12.235,20.111-29.244,20.111-48.053C155.214,55.968,137.87,31.619,113.246,21.631z"/>
<path style="fill:#E7E4CD;" d="M51.026,70.711c6.239-30.732,29.687-48.995,62.218-49.08c-6.072-2.463-12.578-4.065-19.386-4.622
	c-1.53-0.125-16.233-0.29-18.43-0.29c-32.649,0-59.872,23.188-66.124,53.992c-0.772,3.803,2.14,7.363,6.02,7.363h41.721
	C53.166,78.072,50.256,74.513,51.026,70.711z"/>
<path style="opacity:0.2;fill:#493023;enable-background:new    ;" d="M141.752,43.692c-5.555,1.443-9.547,6.378-9.547,12.428
	c0,6.721-1.304,13.323-3.728,19.487c-3.869,9.84-17.031,11.659-23.366,3.193C94.149,64.155,76.86,55.064,58.109,55.064H25.335
	c-3.332,0-6.497-1.455-8.668-3.983c-3.389,6.004-5.895,12.573-7.32,19.537c-0.785,3.841,2.081,7.455,6.002,7.455h12.271h17.156
	h12.271c20.318,0,36.837,16.461,36.813,36.781c-0.026,21.511,25.931,32.499,41.244,17.409
	c12.414-12.235,20.111-29.244,20.111-48.053C155.214,69.037,150.203,54.994,141.752,43.692z"/>
<circle cx="67.477" cy="100.364" r="9.203"/>
<path d="M510.677,461.383l-42.142-147.916c-5.167-18.138-20.645-29.858-39.429-29.858h-36.701c-18.786,0-34.262,11.72-39.428,29.858
	l-27.1,95.12c-31.72,10.374-66.846,2.127-90.613-21.642c-2.264-2.264-4.421-4.663-6.415-7.133L96.814,210.495
	c8.749-2.536,17.806-6.616,26.824-12.249c4.312-2.691,5.624-8.369,2.933-12.681c-2.691-4.311-8.37-5.623-12.681-2.932
	c-23.207,14.488-46.384,16.637-57.674,5.345c-4.843-4.842-7.269-11.899-7.164-20.469c5.874,2.649,12.213,4.443,18.859,5.222
	c1.384,2.479,3.88,4.248,6.829,4.637c9.916,1.314,29.827-6.668,47.204-24.044c1.527-1.527,2.398-3.457,2.627-5.446
	c6.251-1.218,12.14-4.283,16.994-9.066c10.506-10.355,17.626-23.191,20.861-37.2c0.384,2.157,0.571,4.442,0.563,6.83
	c-0.734,1.843-0.844,3.842-0.362,5.705c-1.22,10.111-5.495,21.561-12.687,32.799c-2.74,4.281-1.491,9.973,2.79,12.713
	c1.536,0.983,3.254,1.453,4.953,1.453c3.033,0,6.004-1.5,7.76-4.243c6.111-9.549,10.468-19.264,13.062-28.659l175.567,126.611
	c2.426,1.965,4.781,4.086,7.005,6.311c4.9,4.899,9.215,10.344,12.826,16.182c1.74,2.815,4.754,4.365,7.836,4.365
	c1.652,0,3.323-0.444,4.832-1.377c4.323-2.674,5.661-8.345,2.987-12.667c-4.357-7.047-9.561-13.613-15.465-19.517
	c-2.745-2.744-5.658-5.362-8.661-7.78l-0.191-0.155L181.34,107.564c-0.16-12.841-4.267-24.148-12.413-32.295
	c-1.745-1.745-3.669-3.307-5.717-4.71c-4.556-25.674-21.799-47.436-46.503-57.456c-7.085-2.876-14.52-4.648-22.1-5.269
	c-2.61-0.212-4.926-0.32-6.883-0.32H75.453c-36.324,0-67.927,25.807-75.143,61.366c-0.919,4.529,0.232,9.181,3.159,12.761
	c2.701,3.303,6.599,5.285,10.817,5.576c-2.143,7.258-3.254,14.541-3.254,21.533c0,18.665,7.98,35.503,20.707,47.279
	c-3.259,18.421,0.73,34.235,11.462,44.968c8.341,8.341,19.729,12.519,32.688,12.596l69.332,88.909
	c-2.077,3.329-3.703,6.99-4.836,10.967L98.241,461.384c-2.941,10.325-0.923,21.156,5.538,29.716
	c6.421,8.507,16.203,13.385,26.834,13.385h36.701h98.398c10.632,0,20.413-4.879,26.834-13.385c6.462-8.56,8.48-19.392,5.539-29.718
	l-8.651-30.366c2.934,0.242,5.879,0.39,8.831,0.39c7.256,0,14.543-0.763,21.754-2.258l-9.184,32.233
	c-2.941,10.325-0.923,21.156,5.538,29.716c6.421,8.507,16.203,13.385,26.834,13.385h36.7h98.398
	c10.632,0,20.413-4.879,26.834-13.385C511.601,482.542,513.62,471.709,510.677,461.383z M146.01,84.207
	c0,15.723-6.167,30.46-17.367,41.498c-4.43,4.366-10.516,5.532-16.28,3.12c-5.824-2.436-9.301-7.648-9.301-13.941
	c0-24.085-18.604-43.894-42.195-45.845c6.18-23.716,24.385-37.495,50.578-38.171C132.503,40.171,146.01,60.907,146.01,84.207z
	 M68.122,26.386C54.91,36.174,45.695,50.73,42.01,68.869H19.219C25.401,46.128,44.92,29.342,68.122,26.386z M29.437,108.749
	c0-2.529,0.234-5.165,0.641-7.846c0.281,4.831,4.275,8.664,9.176,8.664c5.083,0,9.203-4.121,9.203-9.203
	c0-5.083-4.121-9.203-9.203-9.203c-3.705,0-6.89,2.194-8.349,5.349c0.696-3.07,1.641-6.167,2.806-9.235h23.336
	c15.225,0,27.61,12.386,27.61,27.61c0,13.195,7.277,24.618,19.086,30.223c-8.699,7.457-16.432,11.13-21.376,12.786
	c-1.695-1.928-4.177-3.129-6.913-3.129C50.08,154.765,29.437,134.123,29.437,108.749z M118.47,480.012
	c-2.951-3.911-3.873-8.862-2.528-13.584l42.04-147.559l12.864,16.496l-35.903,126.02c-2.392,8.396-1.504,17.125,2.384,24.696h-6.713
	C125.808,486.08,121.381,483.868,118.47,480.012z M280.382,466.426c1.346,4.724,0.425,9.676-2.528,13.585
	c-2.912,3.857-7.337,6.068-12.143,6.068h-98.397c-4.807,0-9.231-2.212-12.143-6.068c-2.951-3.911-3.873-8.862-2.528-13.585
	l32.22-113.087l29.515,37.848l0.09,0.113c2.417,3.003,5.036,5.917,7.781,8.662c13.311,13.311,29.58,22.564,47.015,27.438
	L280.382,466.426z M490.449,480.012c-2.912,3.857-7.337,6.068-12.143,6.068h-98.398c-4.806,0-9.231-2.212-12.143-6.068
	c-2.951-3.911-3.873-8.862-2.528-13.585l8.939-31.378c1.393-4.888-1.441-9.98-6.329-11.373c-4.885-1.389-9.98,1.442-11.373,6.329
	l-8.939,31.378c-2.392,8.396-1.504,17.125,2.384,24.696h-6.713c-4.807,0-9.231-2.212-12.143-6.068
	c-2.951-3.911-3.873-8.862-2.528-13.584l42.143-147.917c3.464-12.16,13.494-16.493,21.727-16.493h2.435
	c-2.205,3.438-3.97,7.264-5.162,11.451l-14.103,49.501c-1.393,4.888,1.441,9.98,6.329,11.373c4.889,1.392,9.981-1.441,11.373-6.329
	l14.103-49.501c3.465-12.16,13.496-16.493,21.727-16.493c8.231,0,18.262,4.333,21.727,16.493l42.142,147.916
	C494.321,471.15,493.4,476.102,490.449,480.012z"/>
<ellipse cx="429.102" cy="341.893" rx="9.203" ry="18.406"/>
<g>
</g>
<g>
</g>
<g>
</g>
<g>
</g>
<g>
</g>
<g>
</g>
<g>
</g>
<g>
</g>
<g>
</g>
<g>
</g>
<g>
</g>
<g>
</g>
<g>
</g>
<g>
</g>
<g>
</g>
</svg>
