<svg height="511pt" viewBox="-88 0 511 511.998" width="511pt" xmlns="http://www.w3.org/2000/svg"><path d="m285.085938 50.394531v88.628907c0 23.378906-6.855469 45.152343-18.679688 63.421874-4.503906 6.976563-9.738281 13.445313-15.589844 19.292969-21.164062 21.164063-50.414062 34.257813-82.714844 34.257813-41.226562 0-77.476562-21.324219-98.300781-53.550782-11.824219-18.269531-18.679687-40.042968-18.679687-63.421874v-88.628907zm0 0" fill="#f1eded"/><path d="m285.085938 50.390625v88.632813c0 23.378906-6.855469 45.148437-18.675782 63.425781-4.511718 6.972656-9.738281 13.4375-15.59375 19.289062-21.164062 21.164063-50.417968 34.261719-82.714844 34.261719-3.828124 0-7.609374-.183594-11.347656-.546875 27.769532-2.667969 52.714844-15.054687 71.375-33.714844 5.851563-5.851562 11.082032-12.316406 15.59375-19.289062 11.820313-18.277344 18.675782-40.046875 18.675782-63.425781v-88.632813zm0 0" fill="#dad0cd"/><path d="m266.410156 202.449219c-4.511718 6.972656-9.738281 13.4375-15.59375 19.289062-21.164062 21.164063-50.417968 34.261719-82.714844 34.261719-3.828124 0-7.609374-.183594-11.347656-.546875-36.476562-3.507813-68.058594-23.773437-86.957031-53.003906 25.175781-11.714844 59.941406-18.949219 98.304687-18.949219 29.726563 0 57.296876 4.34375 79.914063 11.753906 6.574219 2.144532 12.722656 4.558594 18.394531 7.195313zm0 0" fill="#cf8671"/><path d="m266.410156 202.449219c-4.511718 6.972656-9.738281 13.4375-15.59375 19.289062-21.164062 21.164063-50.417968 34.261719-82.714844 34.261719-3.828124 0-7.609374-.183594-11.347656-.546875 27.769532-2.667969 52.714844-15.054687 71.375-33.714844 5.851563-5.851562 11.082032-12.316406 15.59375-19.289062 1.515625-2.339844 2.949219-4.742188 4.292969-7.195313 6.574219 2.144532 12.722656 4.558594 18.394531 7.195313zm0 0" fill="#be7560"/><path d="m56.347656 60.71875c11.503906 0 20.832032 9.199219 20.832032 20.542969s-9.328126 20.542969-20.832032 20.542969c-19.558594 0-35.414062-15.636719-35.414062-34.925782 0-19.289062 15.855468-34.925781 35.414062-34.925781h223.511719c19.558594 0 35.414063 15.636719 35.414063 34.925781 0 19.289063-15.855469 34.925782-35.414063 34.925782-11.503906 0-20.832031-9.199219-20.832031-20.542969s9.328125-20.542969 20.832031-20.542969zm0 0" fill="#f6cb43"/><path d="m315.269531 66.882812c0 19.285157-15.851562 34.925782-35.410156 34.925782-2.339844 0-4.589844-.382813-6.691406-1.085938 15.308593-3.851562 26.625-17.546875 26.625-33.839844 0-19.292968-15.851563-34.929687-35.410157-34.929687h15.476563c19.558594 0 35.410156 15.636719 35.410156 34.929687zm0 0" fill="#fab03c"/><path d="m285.085938 372.976562v88.632813h-233.964844v-88.632813c0-5.09375.324218-10.121093.957031-15.046874 2.269531-17.664063 8.476563-34.085938 17.722656-48.371094 4.503907-6.980469 9.738281-13.445313 15.589844-19.292969 21.164063-21.167969 50.414063-34.261719 82.710937-34.261719 41.226563 0 77.480469 21.328125 98.304688 53.554688 9.246094 14.285156 15.453125 30.707031 17.722656 48.371094.632813 4.925781.957032 9.953124.957032 15.046874zm0 0" fill="#f1eded"/><path d="m285.085938 372.976562v88.632813h-22.6875v-88.632813c0-5.097656-.324219-10.121093-.960938-15.046874-2.265625-17.664063-8.472656-34.085938-17.714844-48.371094-18.894531-29.238282-50.484375-49.496094-86.960937-53.003906 3.730469-.363282 7.519531-.546876 11.339843-.546876 41.226563 0 77.476563 21.320313 98.308594 53.550782 9.242188 14.285156 15.449219 30.707031 17.714844 48.371094.640625 4.925781.960938 9.949218.960938 15.046874zm0 0" fill="#dad0cd"/><path d="m285.085938 372.976562v88.632813h-233.96875v-88.632813c0-5.097656.324218-10.121093.964843-15.046874 35.445313-7.359376 74.714844-11.464844 116.019531-11.464844 32.449219 0 63.640626 2.527344 92.703126 7.1875 7.941406 1.269531 15.71875 2.703125 23.320312 4.277344.640625 4.925781.960938 9.949218.960938 15.046874zm0 0" fill="#cf8671"/><path d="m285.085938 372.976562v88.632813h-22.6875v-88.632813c0-5.097656-.324219-10.121093-.960938-15.046874-.183594-1.433594-.398438-2.859376-.632812-4.277344 7.941406 1.269531 15.71875 2.703125 23.320312 4.277344.640625 4.925781.960938 9.949218.960938 15.046874zm0 0" fill="#be7560"/><path d="m56.347656 451.28125c11.503906 0 20.832032-9.199219 20.832032-20.542969s-9.328126-20.542969-20.832032-20.542969c-19.558594 0-35.414062 15.636719-35.414062 34.925782 0 19.289062 15.855468 34.925781 35.414062 34.925781h223.511719c19.558594 0 35.414063-15.636719 35.414063-34.925781 0-19.289063-15.855469-34.925782-35.414063-34.925782-11.503906 0-20.832031 9.199219-20.832031 20.542969s9.328125 20.542969 20.832031 20.542969zm0 0" fill="#f6cb43"/><path d="m315.269531 445.117188c0-19.285157-15.851562-34.925782-35.410156-34.925782-2.339844 0-4.589844.382813-6.691406 1.085938 15.308593 3.851562 26.625 17.546875 26.625 33.839844 0 19.292968-15.851563 34.929687-35.410157 34.929687h15.476563c19.558594 0 35.410156-15.636719 35.410156-34.929687zm0 0" fill="#fab03c"/><path d="m314.453125 35.007812h-292.703125c-7.59375 0-13.753906-6.160156-13.753906-13.753906 0-7.597656 6.160156-13.753906 13.753906-13.753906h292.703125c7.597656 0 13.753906 6.15625 13.753906 13.753906 0 7.59375-6.15625 13.753906-13.753906 13.753906zm0 0" fill="#f8e98e"/><path d="m314.453125 504.5h-292.703125c-7.59375 0-13.753906-6.15625-13.753906-13.753906 0-7.59375 6.160156-13.753906 13.753906-13.753906h292.703125c7.597656 0 13.753906 6.160156 13.753906 13.753906 0 7.597656-6.15625 13.753906-13.753906 13.753906zm0 0" fill="#f8e98e"/><path d="m180.332031 316.777344c4.140625 0 7.5-3.355469 7.5-7.5v-7.292969c0-4.140625-3.359375-7.5-7.5-7.5-4.144531 0-7.5 3.359375-7.5 7.5v7.292969c0 4.144531 3.355469 7.5 7.5 7.5zm0 0"/><path d="m139.910156 401.417969c4.140625 0 7.5-3.355469 7.5-7.5 0-4.140625-3.359375-7.5-7.5-7.5h-.09375c-4.144531 0-7.453125 3.359375-7.453125 7.5 0 4.144531 3.402344 7.5 7.546875 7.5zm0 0"/><path d="m213.289062 217.320312c4.144532 0 7.5-3.355468 7.5-7.5 0-4.140624-3.355468-7.5-7.5-7.5h-.09375c-4.144531 0-7.453124 3.359376-7.453124 7.5 0 4.144532 3.402343 7.5 7.546874 7.5zm0 0"/><path d="m120.292969 411.539062h.078125c4.105468 0 7.457031-3.308593 7.5-7.421874.042968-4.144532-3.28125-7.535157-7.421875-7.578126l-.09375-.003906c-.027344 0-.054688 0-.082031 0-4.101563 0-7.40625 3.308594-7.449219 7.425782-.042969 4.140624 3.328125 7.53125 7.46875 7.578124zm0 0"/><path d="m314.992188 469.519531c4.980468-7.003906 7.78125-15.46875 7.78125-24.398437 0-19.015625-12.722657-35.148438-30.191407-40.523438v-31.617187c0-5.304688-.335937-10.53125-.980469-15.664063-.023437-.285156-.0625-.570312-.117187-.851562-6.179687-46.417969-38.035156-84.835938-80.78125-100.453125 9.921875-3.613281 19.402344-8.496094 28.226563-14.609375 20.375-14.121094 35.9375-33.730469 45.003906-56.703125 1.519531-3.851563-.371094-8.210938-4.222656-9.730469-3.851563-1.519531-8.210938.371094-9.730469 4.226562-1.878907 4.757813-4.085938 9.347657-6.582031 13.753907-26.394532-10.949219-59.910157-16.945313-95.292969-16.945313-35.367188 0-68.863281 5.988282-95.253907 16.929688-9.050781-15.921875-14.226562-34.324219-14.226562-53.910156v-29.8125c14.558594-1.15625 26.054688-13.242188 26.054688-27.945313 0-4.707031-1.183594-9.144531-3.261719-13.042969h173.375c-2.078125 3.898438-3.261719 8.335938-3.261719 13.042969 0 14.703125 11.492188 26.789063 26.054688 27.945313v29.8125c0 3.414062-.167969 6.914062-.496094 10.398437-.386719 4.125 2.640625 7.78125 6.765625 8.171875.238281.019531.476562.03125.710937.03125 3.824219 0 7.09375-2.910156 7.457032-6.796875.371093-3.953125.5625-7.925781.5625-11.804687v-31.621094c17.46875-5.371094 30.191406-21.503906 30.191406-40.519532 0-8.9375-2.800782-17.398437-7.78125-24.402343 11.46875-.289063 20.714844-9.6875 20.714844-21.226563-.003907-11.71875-9.539063-21.253906-21.257813-21.253906h-235.019531c-4.144532 0-7.5 3.355469-7.5 7.5s3.355468 7.5 7.5 7.5h235.019531c3.449219 0 6.253906 2.804688 6.253906 6.253906 0 3.445313-2.804687 6.253906-6.253906 6.253906h-292.703125c-3.445312 0-6.253906-2.808593-6.253906-6.253906 0-3.449218 2.808594-6.253906 6.253906-6.253906h25.023438c4.140624 0 7.5-3.355469 7.5-7.5s-3.359376-7.5-7.5-7.5h-25.023438c-11.71875 0-21.25 9.535156-21.25 21.253906 0 11.535156 9.246094 20.933594 20.714844 21.226563-4.980469 7-7.78125 15.464843-7.78125 24.398437 0 19.015625 12.71875 35.148438 30.191406 40.523438v31.617187c0 24.570313 7.15625 47.5 19.492188 66.816407.253906.5.554687.957031.898437 1.371093 14.613281 22.234375 36.144531 39.53125 61.515625 48.792969-42.757812 15.609375-74.628906 54.03125-80.808594 100.464844-.058594.277344-.09375.5625-.117187.851562-.644531 5.128906-.980469 10.359375-.980469 15.660156v31.621094c-17.472656 5.371094-30.191406 21.503906-30.191406 40.519532 0 8.933593 2.800781 17.398437 7.78125 24.402343-11.46875.289063-20.714844 9.6875-20.714844 21.226563 0 11.71875 9.535156 21.25 21.253906 21.25h292.703125c11.71875 0 21.253907-9.53125 21.253907-21.25-.003907-11.535156-9.25-20.933594-20.71875-21.226563zm-286.558594-402.640625c0-10.292968 5.785156-19.632812 15.101562-24.371094h249.136719c9.316406 4.738282 15.101563 14.074219 15.101563 24.371094 0 15.125-12.523438 27.425782-27.914063 27.425782-7.351563 0-13.332031-5.851563-13.332031-13.042969 0-7.191407 5.980468-13.042969 13.332031-13.042969 4.144531 0 7.5-3.355469 7.5-7.5 0-4.140625-3.355469-7.5-7.5-7.5-.507813 0-223.003906 0-223.511719 0-4.144531 0-7.5 3.359375-7.5 7.5 0 4.144531 3.355469 7.5 7.5 7.5 7.351563 0 13.328125 5.851562 13.328125 13.042969 0 7.191406-5.976562 13.042969-13.328125 13.042969-15.390625 0-27.914062-12.300782-27.914062-27.425782zm52.894531 138.808594c24.160156-9.5 54.550781-14.6875 86.773437-14.6875 32.25 0 62.667969 5.195312 86.835938 14.710938-6.875 8.9375-15.121094 16.820312-24.554688 23.359374-12.875 8.921876-27.332031 14.878907-42.554687 17.644532v-16.035156c0-4.140626-3.355469-7.5-7.5-7.5-4.140625 0-7.5 3.359374-7.5 7.5v17.710937c-1.476563.0625-2.957031.097656-4.445313.101563v-7.277344c0-4.144532-3.355468-7.5-7.5-7.5-4.140624 0-7.5 3.355468-7.5 7.5v6.292968c-29.242187-3.949218-54.855468-19.484374-72.054687-41.820312zm72.054687 58.804688v44.789062c0 4.140625 3.359376 7.5 7.5 7.5 4.144532 0 7.5-3.359375 7.5-7.5v-45.777344c1.492188.003906 2.972657.042969 4.445313.105469v11.636719c0 4.144531 3.359375 7.5 7.5 7.5 4.144531 0 7.5-3.355469 7.5-7.5v-9.960938c42.976563 7.855469 77.273437 40.878906 86.984375 83.183594-33.945312-6.300781-69.78125-9.503906-106.710938-9.503906-36.925781 0-72.761718 3.203125-106.707031 9.503906 10.085938-43.9375 46.6875-77.859375 91.988281-83.976562zm-97.035156 153.203124c7.351563 0 13.328125 5.851563 13.328125 13.042969 0 7.191407-5.976562 13.042969-13.328125 13.042969-4.144531 0-7.5 3.355469-7.5 7.5 0 4.140625 3.355469 7.5 7.5 7.5h42.753906c4.144532 0 7.5-3.359375 7.5-7.5 0-4.144531-3.355468-7.5-7.5-7.5h-17.6875c2.078126-3.898438 3.261719-8.335938 3.261719-13.042969 0-14.703125-11.492187-26.792969-26.050781-27.945312v-29.8125c0-2.957031.121094-5.886719.351562-8.785157 34.558594-6.785156 71.238282-10.230468 109.125-10.230468 37.890626 0 74.570313 3.445312 109.128907 10.230468.230469 2.898438.351562 5.828126.351562 8.785157v29.8125c-14.558593 1.152343-26.054687 13.242187-26.054687 27.945312 0 4.707031 1.183594 9.144531 3.261718 13.042969h-120.351562c-4.144531 0-7.5 3.355469-7.5 7.5 0 4.140625 3.355469 7.5 7.5 7.5h145.421875c4.144531 0 7.5-3.359375 7.5-7.5 0-4.144531-3.355469-7.5-7.5-7.5-7.351563 0-13.332031-5.851562-13.332031-13.042969 0-7.191406 5.980468-13.042969 13.332031-13.042969 15.390625 0 27.914063 12.300782 27.914063 27.425782 0 10.265625-5.761719 19.589844-15.035157 24.339844-.019531.011718-.039062.023437-.058593.03125h-249.152344c-.023438-.011719-.046875-.027344-.070313-.039063-9.265625-4.75-15.023437-14.074219-15.023437-24.332031 0-15.125 12.523437-27.425782 27.914062-27.425782zm258.105469 79.304688h-292.703125c-3.445312 0-6.253906-2.804688-6.253906-6.253906 0-3.445313 2.808594-6.253906 6.253906-6.253906h292.703125c3.449219 0 6.253906 2.808593 6.253906 6.253906 0 3.449218-2.804687 6.253906-6.253906 6.253906zm0 0"/></svg>