<?xml version="1.0" encoding="iso-8859-1"?>
<!-- Generator: Adobe Illustrator 19.0.0, SVG Export Plug-In . SVG Version: 6.00 Build 0)  -->
<svg version="1.1" id="Capa_1" xmlns="http://www.w3.org/2000/svg" xmlns:xlink="http://www.w3.org/1999/xlink" x="0px" y="0px"
	 viewBox="0 0 512 512" style="enable-background:new 0 0 512 512;" xml:space="preserve">
<path style="fill:#BA7052;" d="M252.368,373.897l81.381,81.381c7.094,7.094,7.094,18.596,0,25.69l0,0
	c-7.094,7.094-18.596,7.094-25.69,0l-81.381-81.381"/>
<circle style="fill:#75706B;" cx="165.96" cy="313.181" r="105.591"/>
<path style="fill:#BA7052;" d="M445.492,243.581l-58.939,1.465l-11.583-12.147l-26.825-28.106l-99.101-52.128l-106.681-59.58
	c0,0,44.483-107.217,199.741-47.501l32.266,15.474l24.815,11.914C536.994,154.238,445.492,243.581,445.492,243.581z"/>
<path style="fill:#A35D45;" d="M445.492,243.581l-58.939,1.465l-11.583-12.147c1.493-4.061,4.277-8.708,8.585-13.998
	c48.86-60.13,6.031-135.073-9.185-157.844l24.815,11.914C536.994,154.238,445.492,243.581,445.492,243.581z"/>
<path style="fill:#BA7052;" d="M249.044,152.667c0,0-84.321,53.806-241.434-38.585l134.755-20.995L249.044,152.667z"/>
<path style="fill:#A35D45;" d="M348.144,204.798c0,0,9.79,85.217,156.247,139.818l-58.902-101.04L348.144,204.798z"/>
<polygon style="fill:#BA7052;" points="249.044,152.667 348.144,204.798 408.437,49.064 359.373,25.712 "/>
<circle style="fill:#C4DEE8;" cx="165.96" cy="313.181" r="78.795"/>
<path style="fill:#E1F3F9;" d="M110.245,257.463c-4.147,4.147-7.716,8.651-10.746,13.398c30.482-19.448,71.411-15.879,98.035,10.746
	s30.193,67.553,10.746,98.035c4.748-3.03,9.251-6.598,13.398-10.746c30.771-30.771,30.771-80.662,0-111.433
	C190.907,226.691,141.016,226.692,110.245,257.463z"/>
<path d="M510.964,340.783l-56.069-96.182c9.565-11.08,32.057-41.754,27.349-80.69c-4.217-34.875-28.997-66.523-73.661-94.144
	l6.951-17.956c1.438-3.713-0.231-7.907-3.826-9.619l-49.066-23.351c-3.087-1.47-6.774-0.699-9.015,1.88l-13.81,15.891
	c-34.513-12.679-66.424-18.208-94.905-16.39c-24.296,1.545-46.156,8.373-64.973,20.293c-25.439,16.116-38.213,37.019-42.697,45.668
	L6.438,106.562c-3.177,0.495-5.7,2.934-6.303,6.093s0.845,6.356,3.617,7.985c36.434,21.426,72.069,36.836,105.916,45.803
	c23.607,6.254,46.41,9.409,67.939,9.409c3.362,0,6.695-0.077,9.993-0.231c32.561-1.522,53.286-10.16,61.516-14.319l92.222,48.513
	c1.755,7.946,7.316,26.477,23.885,48.934c35.418,48.005,93.784,77.068,136.51,92.997c0.868,0.324,1.766,0.48,2.656,0.48
	c2.202,0,4.348-0.957,5.822-2.708C512.282,347.058,512.584,343.562,510.964,340.783z M467.119,165.604
	c4.016,32.708-15.715,59.58-23.702,68.955l-85.455-34.042L402.99,84.212C441.942,108.841,463.507,136.193,467.119,165.604z
	 M185.651,160.473c-56.158,2.264-112.671-19.74-155.087-42.267l110.38-17.198l91.238,50.957
	C222.249,155.544,206.628,159.628,185.651,160.473z M290.99,104.398c-3.171-2.756-7.977-2.421-10.736,0.753l-32.899,37.856
	l-94.863-52.981c4.88-8.428,15.891-24.175,35.593-36.656c16.634-10.537,36.078-16.58,57.794-17.962
	c24.876-1.582,52.833,2.982,83.221,13.535L297.81,84.951c-2.757,3.172-2.42,7.978,0.752,10.736
	c3.173,2.755,7.977,2.421,10.736-0.753l52.026-59.866l37.469,17.834L344.13,194.088l-83.039-43.683l30.652-35.271
	C294.499,111.962,294.162,107.156,290.99,104.398z M378.207,250.706c-9.858-13.153-15.476-24.785-18.633-33.164l80.662,32.133
	l46.409,79.61C449.544,313.243,406.179,288.027,378.207,250.706z"/>
<path d="M227.058,252.083c-33.689-33.69-88.506-33.689-122.195,0s-33.689,88.505,0,122.195
	c16.845,16.845,38.971,25.267,61.098,25.267s44.253-8.422,61.097-25.267c16.319-16.319,25.308-38.018,25.308-61.097
	S243.378,268.402,227.058,252.083z M216.297,363.516c-27.756,27.756-72.917,27.755-100.672,0s-27.755-72.916,0-100.672
	c13.878-13.877,32.108-20.816,50.336-20.816s36.458,6.939,50.336,20.816C244.052,290.6,244.052,335.76,216.297,363.516z"/>
<path d="M262.152,372.919c11.075-17.757,17.006-38.291,17.006-59.739c0-30.236-11.774-58.662-33.155-80.042
	c-44.136-44.136-115.949-44.136-160.084,0c-21.38,21.38-33.155,49.807-33.155,80.042c0,30.237,11.775,58.662,33.155,80.042
	c22.068,22.068,51.055,33.102,80.042,33.102c20.754,0,41.507-5.659,59.721-16.971l24.857,24.858
	c1.485,1.486,3.433,2.229,5.381,2.229s3.895-0.743,5.381-2.229c2.972-2.972,2.972-7.79,0-10.761l-23.113-23.113
	c2.687-2.23,5.298-4.596,7.815-7.113c2.508-2.508,4.878-5.117,7.119-7.811l75.246,75.247c1.994,1.994,3.092,4.644,3.092,7.464
	s-1.098,5.471-3.093,7.465c-1.994,1.994-4.644,3.092-7.463,3.092c-2.82,0-5.471-1.098-7.464-3.092l-33.116-33.115
	c-2.973-2.972-7.79-2.972-10.762,0s-2.972,7.79,0,10.761l33.117,33.116c4.868,4.868,11.341,7.549,18.226,7.549
	s13.357-2.682,18.226-7.549c4.868-4.868,7.549-11.341,7.549-18.226s-2.682-13.357-7.549-18.226L262.152,372.919z M96.68,382.461
	c-18.506-18.506-28.697-43.11-28.697-69.281c0-26.17,10.192-50.774,28.697-69.281c19.101-19.101,44.191-28.651,69.281-28.651
	c25.089,0,50.18,9.551,69.28,28.651c18.506,18.506,28.697,43.11,28.697,69.281c0,20.503-6.257,40.045-17.865,56.446
	c-0.021,0.03-0.045,0.06-0.065,0.09c-3.192,4.5-6.786,8.763-10.766,12.745C197.04,420.662,134.881,420.661,96.68,382.461z"/>
<g>
</g>
<g>
</g>
<g>
</g>
<g>
</g>
<g>
</g>
<g>
</g>
<g>
</g>
<g>
</g>
<g>
</g>
<g>
</g>
<g>
</g>
<g>
</g>
<g>
</g>
<g>
</g>
<g>
</g>
</svg>
