<svg height="511pt" viewBox="0 0 511 511.99917" width="511pt" xmlns="http://www.w3.org/2000/svg"><path d="m186.855469 381.476562-55.835938-55.839843 177.40625-214.316407 92.75 92.75zm0 0" fill="#757575"/><path d="m308.425781 111.320312-9.058593 10.941407 61.808593 61.808593-203.375 168.347657 29.054688 29.058593 214.320312-177.40625zm0 0" fill="#424242"/><path d="m308.425781 111.320312-27.839843 33.628907 86.960937 86.960937 33.628906-27.839844zm0 0" fill="#e0e0e0"/><path d="m349.476562 16.710938 146.304688 146.304687-30.609375 30.609375-146.308594-146.304688zm0 0" fill="#ef5350"/><path d="m128.574219 417.0625-33.140625-33.140625 42.523437-51.347656 41.964844 41.964843zm0 0" fill="#e0e0e0"/><path d="m137.957031 332.574219-18.121093 21.882812 8.65625 8.652344c6.128906 6.132813 5.65625 16.210937-1.019532 21.742187l-17.019531 14.09375 18.121094 18.117188 51.347656-42.523438zm0 0" fill="#bdbdbd"/><path d="m490.320312 157.554688c23.476563-37.933594 18.789063-88.347657-14.121093-121.257813-32.910157-32.910156-83.328125-37.597656-121.257813-14.121094zm0 0" fill="#757575"/><path d="m324.007812 52.464844c-11.511718 17.785156-16.699218 38.46875-15.566406 58.871094l92.71875 92.71875c20.402344 1.132812 41.089844-4.054688 58.871094-15.566407zm0 0" fill="#757575"/><path d="m308.425781 111.320312-9.058593 10.941407 40.984374 40.984375c11.171876 11.171875 10.308594 29.53125-1.863281 39.605468l29.058594 29.058594 33.628906-27.839844zm0 0" fill="#bdbdbd"/><path d="m349.476562 16.710938-10 10 97.449219 97.449218c10.414063 10.417969 10.414063 27.304688 0 37.71875l-1.75 1.75 30 30 30.609375-30.609375zm0 0" fill="#e53935"/><g fill="#424242"><path d="m476.199219 36.296875c-13.359375-13.359375-29.605469-22.070313-46.730469-26.128906 2.3125 1.921875 4.5625 3.960937 6.730469 6.128906 29.222656 29.222656 36.175781 72.238281 20.933593 108.070313l33.1875 33.1875c23.476563-37.929688 18.789063-88.347657-14.121093-121.257813zm0 0"/><path d="m324.007812 52.464844c-2.699218 4.171875-5.039062 8.507812-7.042968 12.957031l85.265625 85.265625c9.480469 9.480469 5.355469 25.628906-7.496094 29.445312-4.722656 1.402344-9.53125 2.441407-14.378906 3.121094l20.804687 20.804688c20.402344 1.128906 41.089844-4.058594 58.871094-15.570313zm0 0"/><path d="m239.902344 272.59375c-7.578125-7.574219-7.578125-19.855469 0-27.429688l33.851562-33.855468c7.578125-7.574219 19.859375-7.574219 27.433594 0 7.574219 7.574218 7.574219 19.855468 0 27.433594l-33.855469 33.851562c-7.574219 7.578125-19.855469 7.578125-27.429687 0zm0 0"/></g><path d="m301.1875 211.308594c-7.574219-7.574219-19.855469-7.574219-27.433594 0l-10.066406 10.066406c-7.574219 7.578125-7.574219 19.859375 0 27.433594 7.574219 7.574218 19.855469 7.574218 27.433594 0l10.066406-10.066406c7.578125-7.578126 7.578125-19.859376 0-27.433594zm0 0" fill="#e0e0e0"/><path d="m57.570312 48.945312v127.757813c-3.460937-1.015625-7.117187-1.570313-10.90625-1.570313-21.355468 0-38.664062 17.3125-38.664062 38.664063 0 21.355469 17.308594 38.664063 38.664062 38.664063 21.355469 0 38.664063-17.308594 38.664063-38.664063v-124.789063l99.140625-26.5625v72.820313c-3.460938-1.019531-7.117188-1.570313-10.90625-1.570313-21.355469 0-38.664062 17.308594-38.664062 38.664063 0 21.351563 17.308593 38.664063 38.664062 38.664063s38.664062-17.3125 38.664062-38.664063v-164.855469zm0 0" fill="#ffca28"/><path d="m65.328125 115.074219v78.011719c0 21.320312-17.441406 39.429687-38.765625 39.375-5.457031-.011719-10.640625-1.164063-15.34375-3.21875 5.878906 13.480468 19.21875 22.960937 34.804688 23.214843 21.613281.351563 39.304687-17.769531 39.304687-39.386719v-124.0625c-11.796875 3.164063-20 13.851563-20 26.066407zm0 0" fill="#ffa000"/><path d="m192.226562 12.863281v139.492188c0 21.355469-17.3125 38.664062-38.664062 38.664062-5.496094 0-10.714844-1.152343-15.449219-3.214843 5.964844 13.664062 19.585938 23.214843 35.449219 23.214843 21.351562 0 38.664062-17.308593 38.664062-38.664062v-164.851563zm0 0" fill="#ffa000"/><path d="m219.4375 307.945312c0 8.222657-6.664062 14.890626-14.886719 14.890626-8.222656 0-14.890625-6.667969-14.890625-14.890626 0-8.222656 6.667969-14.886718 14.890625-14.886718 8.222657 0 14.886719 6.664062 14.886719 14.886718zm0 0" fill="#ef5350"/><path d="m499.699219 156.324219c22.210937-40.992188 15.070312-92.0625-18.195313-125.332031-33.171875-33.167969-84.234375-40.464844-125.332031-18.195313l-1.390625-1.390625c-2.929688-2.925781-7.675781-2.925781-10.609375 0l-30.609375 30.613281c-2.925781 2.929688-2.925781 7.675781 0 10.605469l.980469.980469c-9.550781 16.777343-14.257813 35.664062-13.714844 55.128906l-75.722656 91.480469c-2.644531 3.191406-2.199219 7.917968.992187 10.558594 3.191406 2.644531 7.921875 2.199218 10.5625-.992188l44.449219-53.703125 75.308594 75.308594-169.082031 139.960937c-4.792969-4.792968-41.039063-41.039062-46.1875-46.183594l73.191406-88.421874c2.640625-3.191407 2.195312-7.917969-.996094-10.558594-3.1875-2.640625-7.914062-2.195313-10.558594.992187l-77.542968 93.679688c-2.46875 2.980469-2.261719 7.351562.472656 10.085937l2.109375 2.109375-38.167969 46.085938c-2.46875 2.980469-2.265625 7.351562.472656 10.089843l11.542969 11.539063c-15.800781 19.480469-19.628906 45.277344-9.804687 68.992187 19.75 47.671876 79.523437 54.882813 112.207031 22.199219l62.582031-62.585937c2.929688-2.929688 2.929688-7.675782 0-10.605469s-7.675781-2.929687-10.605469 0l-62.585937 62.585937c-25.417969 25.417969-72.261719 20.03125-87.738282-17.335937-7.453124-17.992187-4.84375-37.519531 6.628907-52.5625l10.914062 10.914063c2.742188 2.738281 7.109375 2.9375 10.089844.472656l46.085937-38.167969 2.109376 2.105469c2.738281 2.738281 7.109374 2.941406 10.085937.476562l212.117187-175.585937c19.054688.53125 38.003907-3.96875 55.132813-13.714844l.980469.980469c2.925781 2.925781 7.675781 2.925781 10.605468 0l30.609376-30.613282c2.929687-2.929687 2.929687-7.675781 0-10.605468zm-370.648438 250.609375-23.488281-23.488282 32.914062-39.742187 30.316407 30.316406zm238.972657-185.152344-77.308594-77.308594 18.230468-22.023437 81.101563 81.097656zm36.371093-25.097656-88.582031-88.582032c-.382812-15.226562 2.96875-30.035156 9.796875-43.429687l122.210937 122.214844c-13.386718 6.828125-28.191406 10.179687-43.425781 9.796875zm60.777344-13.660156-135.699219-135.699219 20.003906-20.003907c.003907.003907 87.742188 87.738282 87.746094 87.746094 2.929688 2.929688 7.675782 2.929688 10.605469 0 2.929687-2.929687 2.929687-7.679687 0-10.605468l-80.527344-80.527344c34.519531-16.691406 75.921875-10.003906 103.59375 17.667968 27.667969 27.671876 34.359375 69.074219 17.671875 103.59375l-15.988281-15.988281c-2.929687-2.925781-7.679687-2.925781-10.605469 0-2.929687 2.929688-2.929687 7.679688 0 10.609375.09375.09375 23.035156 23.03125 23.207032 23.203125zm0 0"/><path d="m343.378906 331.433594-62.582031 62.585937c-2.929687 2.925781-2.929687 7.675781 0 10.605469 2.929687 2.925781 7.675781 2.929688 10.605469 0l62.585937-62.582031c25.417969-25.421875 72.261719-20.035157 87.738281 17.332031 8.429688 20.34375 3.988282 42.652344-11.578124 58.21875l-48.601563 48.601562c-2.929687 2.929688-2.929687 7.675782 0 10.605469 2.929687 2.929688 7.679687 2.929688 10.605469 0l48.601562-48.597656c19.9375-19.941406 25.625-48.515625 14.832032-74.570313-19.746094-47.667968-79.519532-54.886718-112.207032-22.199218zm0 0"/><path d="m234.597656 277.898438c10.488282 10.488281 27.550782 10.488281 38.039063 0l33.855469-33.855469c10.484374-10.484375 10.484374-27.550781 0-38.039063-.082032-.078125-.164063-.160156-.246094-.242187-.007813-.003907-.015625-.011719-.019532-.019531-10.582031-10.296876-27.421874-10.097657-37.777343.261718l-33.851563 33.855469c-10.488281 10.488281-10.488281 27.550781 0 38.039063zm51.21875-34.390626c-4.648437 4.648438-12.175781 4.648438-16.824218 0-4.640626-4.640624-4.640626-12.1875 0-16.828124.328124-.328126 10.164062-10.175782 10.507812-10.488282 4.632812-4.199218 11.875-4.09375 16.382812.417969 4.640626 4.640625 4.640626 12.1875 0 16.828125zm-40.613281 6.957032 6.730469-6.730469c2.726562 8.078125 9.109375 14.230469 16.8125 16.839844l-6.714844 6.71875c-4.640625 4.636719-12.1875 4.636719-16.828125 0-4.636719-4.640625-4.636719-12.1875 0-16.828125zm0 0"/><path d="m92.828125 94.765625 84.136719-22.546875v54.101562c-26.710938-1.984374-49.566406 19.238282-49.566406 46.035157 0 25.457031 20.707031 46.167969 46.164062 46.167969 25.453125 0 46.164062-20.710938 46.164062-46.167969v-164.851563c0-4.917968-4.671874-8.519531-9.441406-7.246094l-154.65625 41.441407c-3.277344.878906-5.558594 3.847656-5.558594 7.246093v118.8125c-26.726562-1.980468-49.570312 19.25-49.570312 46.039063 0 25.453125 20.707031 46.164063 46.164062 46.164063 25.453126 0 46.164063-20.707032 46.164063-46.164063zm-15-5.757813v124.789063c0 17.183594-13.980469 31.164063-31.164063 31.164063-17.183593 0-31.164062-13.980469-31.164062-31.164063 0-20.660156 19.910156-35.78125 39.957031-29.898437 4.8125 1.410156 9.613281-2.207032 9.613281-7.195313v-122.003906l139.652344-37.421875v155.078125c0 17.1875-13.976562 31.167969-31.160156 31.167969-17.1875 0-31.167969-13.980469-31.167969-31.167969 0-20.65625 19.914063-35.777344 39.957031-29.894531 4.804688 1.410156 9.613282-2.203126 9.613282-7.195313v-72.820313c0-4.917968-4.671875-8.519531-9.441406-7.246093l-99.136719 26.566406c-3.277344.878906-5.558594 3.851563-5.558594 7.242187zm0 0"/><path d="m204.546875 285.558594c-12.34375 0-22.386719 10.042968-22.386719 22.390625 0 12.34375 10.042969 22.386719 22.386719 22.386719 12.347656 0 22.390625-10.042969 22.390625-22.386719 0-12.347657-10.042969-22.390625-22.390625-22.390625zm0 29.777344c-4.070313 0-7.386719-3.3125-7.386719-7.390626 0-4.074218 3.3125-7.386718 7.386719-7.386718s7.390625 3.3125 7.390625 7.386718c0 4.078126-3.3125 7.390626-7.390625 7.390626zm0 0"/></svg>