<?xml version="1.0" encoding="iso-8859-1"?>
<!-- Generator: Adobe Illustrator 19.0.0, SVG Export Plug-In . SVG Version: 6.00 Build 0)  -->
<svg version="1.1" id="Capa_1" xmlns="http://www.w3.org/2000/svg" xmlns:xlink="http://www.w3.org/1999/xlink" x="0px" y="0px"
	 viewBox="0 0 512 512" style="enable-background:new 0 0 512 512;" xml:space="preserve">
<path style="fill:#C0272D;" d="M390.179,355.25h-26.081c-9.006,18.259-35.138,33.02-69.119,39.523l0.002-0.002
	c-12.135,2.322-25.268,3.595-38.98,3.595c-38.678,0-72.752-10.101-92.751-25.438c0.011,0.008,0.021,0.016,0.032,0.023
	c-6.963-5.334-12.225-11.302-15.381-17.701h-26.079c-8.25,0-15,6.75-15,15V494.5c0,5.5,4.5,10,10,10h278.357c5.5,0,10-4.5,10-10
	V370.25C405.179,362,398.429,355.25,390.179,355.25z"/>
<path style="fill:#775436;" d="M390.179,355.25h-26.081c-9.006,18.259-35.138,33.02-69.119,39.523l-70.219,76.061
	c-1.865,2.021-4.509,1.721-5.875-0.666l-55.636-97.241c0.011,0.008,0.021,0.016,0.032,0.023
	c-6.963-5.334-12.225-11.302-15.381-17.701h-26.079c-8.25,0-15,6.75-15,15V494.5c0,5.5,4.5,10,10,10h278.357c5.5,0,10-4.5,10-10
	V370.25C405.179,362,398.429,355.25,390.179,355.25z"/>
<path style="opacity:0.15;fill:#490089;enable-background:new    ;" d="M135.643,494.5V370.25c0-7.354,5.368-13.502,12.377-14.754
	c-0.041-0.082-0.078-0.165-0.119-0.246h-26.079c-8.25,0-15,6.75-15,15V494.5c0,5.5,4.5,10,10,10h28.821
	C140.143,504.5,135.643,500,135.643,494.5z"/>
<path style="fill:#FFFFFF;" d="M224.76,470.833c-0.96,1.039-2.124,1.455-3.216,1.297v32.37h68.912V399.671L224.76,470.833z"/>
<polygon style="fill:#FCDB67;" points="241.254,452.967 241.254,504.5 270.746,504.5 270.746,421.021 "/>
<path style="fill:#C0272D;" d="M256,398.365c-38.678,0-72.752-10.101-92.751-25.438l55.636,97.241
	c1.366,2.387,4.01,2.686,5.875,0.666l70.221-76.063C282.846,397.093,269.713,398.365,256,398.365z"/>
<path style="fill:#EF5050;" d="M345.598,317.153c-5.233,25.866-37.773,46.312-78.733,49.422l-7.227,6.816
	c-2.001,1.887-5.284,1.896-7.296,0.022l-7.348-6.848c-40.895-3.146-73.365-23.576-78.592-49.412
	c-13.762,4.066-21.905,11.276-21.905,24.029c0,31.581,49.922,57.183,111.503,57.183s111.502-25.602,111.502-57.183
	C367.502,328.43,359.359,321.22,345.598,317.153z"/>
<g>
	<path style="fill:#C0272D;" d="M175.658,301.946c-1.946-1.814-4.065-5.34-4.825-7.979c-3.343,3.988-5.168,9.153-5.168,15.851
		c0,29.226,34.637,53.327,79.343,56.76L175.658,301.946z"/>
	<path style="fill:#C0272D;" d="M340.335,293.719c-0.734,2.65-2.972,6.362-4.973,8.249l-68.512,64.62
		c44.774-3.394,79.484-27.515,79.484-56.77c0-7.142-2.075-12.542-5.853-16.629L340.335,293.719z"/>
</g>
<g>
	<path style="fill:#FFB98A;" d="M369.085,176.008h-11.866v33.367c0,12.205-2.164,23.903-6.124,34.737
		c1.362,1.178,2.03,3.041,1.608,4.888h16.382c13.06,0,23.645-10.586,23.645-23.645v-25.701
		C392.73,186.595,382.145,176.008,369.085,176.008z"/>
	<path style="fill:#FFB98A;" d="M160.904,244.108c-3.958-10.833-6.122-22.529-6.122-34.733v-33.367h-11.865
		c-13.059,0-23.645,10.587-23.645,23.645v25.701c0,13.059,10.587,23.645,23.645,23.645h16.299
		C158.833,247.149,159.53,245.285,160.904,244.108z"/>
</g>
<path style="fill:#FFC7A9;" d="M256,163.417c-33.636,0-67.476-1.171-101.219-3.495v49.453c0,12.204,2.16,23.903,6.119,34.736
	c0.546-0.468,1.188-0.837,1.919-1.04l88.361-24.406c2.65-0.732,6.988-0.732,9.639,0l88.361,24.406
	c0.735,0.203,1.376,0.574,1.918,1.044c3.959-10.835,6.12-22.535,6.12-34.741v-49.453C323.476,162.246,289.637,163.417,256,163.417z"
	/>
<g style="opacity:0.15;">
	<path style="fill:#330068;" d="M183.563,161.613c-9.597-0.474-19.193-1.03-28.781-1.691v49.453c0,12.204,2.16,23.903,6.119,34.736
		c0.546-0.468,1.188-0.837,1.919-1.04l24.387-6.736c-2.367-8.585-3.644-17.622-3.644-26.961V161.613z"/>
</g>
<path style="fill:#B2762F;" d="M256,136.436c33.941,0,68.093-1.223,102.136-3.632l-24.3-115.336
	c-1.225-5.81-6.35-9.968-12.287-9.968h-45.014c-3.545,0-6.924,1.498-9.305,4.125l-11.229,12.39l-11.232-12.39
	c-2.379-2.626-5.76-4.124-9.305-4.124h-45.012c-5.938,0-11.064,4.158-12.289,9.968l-24.3,115.336
	C187.907,135.214,222.059,136.436,256,136.436z"/>
<path style="fill:#D2957D;" d="M256,136.436c33.941,0,68.093-1.223,102.136-3.632l-6.7-31.804H160.565l-6.7,31.804
	C187.907,135.214,222.059,136.436,256,136.436z"/>
<path style="fill:#775436;" d="M256,136.436c17.388,0,34.831-0.327,52.286-0.962c-0.022-0.531-0.056-1.063-0.112-1.591L304.643,101
	h-97.284l-3.531,32.883c-0.057,0.529-0.091,1.06-0.112,1.591C221.17,136.11,238.613,136.436,256,136.436z"/>
<path style="opacity:0.15;fill:#490089;enable-background:new    ;" d="M182.171,134.53c0.034-0.216,0.054-0.432,0.099-0.647
	l24.527-116.415c1.225-5.81,6.352-9.968,12.289-9.968h-28.633c-5.938,0-11.064,4.158-12.289,9.968l-24.3,115.336
	C163.294,133.472,172.732,134.046,182.171,134.53z"/>
<g>
	<ellipse style="fill:#046699;" cx="208" cy="196.47" rx="13.477" ry="13.529"/>
	<ellipse style="fill:#046699;" cx="304" cy="196.47" rx="13.477" ry="13.529"/>
</g>
<path style="fill:#EF5050;" d="M349.181,243.072l-88.361-24.406c-2.65-0.732-6.988-0.732-9.639,0l-88.361,24.406
	c-2.65,0.732-4.256,3.509-3.567,6.172l11.496,44.452c0.689,2.663,2.898,6.375,4.91,8.25l76.684,71.467
	c2.012,1.875,5.295,1.865,7.296-0.022l75.725-71.423c2.001-1.887,4.238-5.599,4.973-8.249l12.33-44.497
	C353.4,246.572,351.831,243.804,349.181,243.072z"/>
<path style="fill:#C0272D;" d="M164.489,269.493l86.692-23.944c2.65-0.732,6.988-0.732,9.639,0l86.261,23.826l5.585-20.153
	c0.734-2.65-0.834-5.417-3.484-6.149l-88.361-24.406c-2.65-0.732-6.988-0.732-9.639,0l-88.361,24.406
	c-2.65,0.732-4.256,3.509-3.567,6.172L164.489,269.493z"/>
<g style="opacity:0.15;">
	<path style="fill:#3D0072;" d="M201.19,290.757c-2.012-1.875-4.222-5.587-4.91-8.25l-11.496-44.452
		c-0.087-0.336-0.137-0.672-0.152-1.007l-21.812,6.024c-2.65,0.732-4.256,3.509-3.567,6.172l11.496,44.452
		c0.689,2.663,2.898,6.375,4.91,8.25l76.684,71.467c2.012,1.875,5.295,1.865,7.296-0.022l15.019-14.166L201.19,290.757z"/>
</g>
<path style="fill:#D19546;" d="M256,163.417c-59.766,0-120.173-3.697-179.543-10.989c-1.319-0.162-2.52-0.843-3.336-1.892
	s-1.182-2.379-1.016-3.698l2.129-16.847c0.319-2.526,2.472-4.373,4.955-4.373c0.203,0,0.408,0.012,0.615,0.038
	c58.261,7.154,117.542,10.781,176.195,10.781s117.935-3.627,176.195-10.781c0.207-0.025,0.412-0.038,0.615-0.038
	c2.483,0,4.636,1.848,4.955,4.373l2.129,16.847c0.166,1.319-0.199,2.649-1.016,3.698c-0.816,1.049-2.017,1.73-3.336,1.892
	C376.173,159.72,315.766,163.417,256,163.417z"/>
<path style="fill:#FFC502;" d="M347.049,483c-1.098,0-2.094-0.649-2.537-1.654l-8.662-19.649l-21.348,2.322
	c-0.101,0.011-0.201,0.016-0.301,0.016c-0.982,0-1.901-0.522-2.399-1.386c-0.55-0.951-0.485-2.137,0.163-3.023l12.685-17.327
	l-12.685-17.327c-0.648-0.886-0.713-2.072-0.163-3.023c0.498-0.863,1.417-1.386,2.399-1.386c0.1,0,0.2,0.005,0.301,0.016
	l21.348,2.322l8.662-19.649c0.443-1.004,1.44-1.653,2.537-1.653c1.098,0,2.094,0.649,2.537,1.653l8.662,19.649l21.348-2.322
	c0.101-0.011,0.201-0.016,0.301-0.016c0.982,0,1.901,0.522,2.399,1.386c0.55,0.951,0.485,2.138-0.163,3.023l-12.685,17.327
	l12.685,17.327c0.648,0.886,0.713,2.072,0.163,3.023c-0.498,0.863-1.417,1.386-2.399,1.386c-0.1,0-0.2-0.005-0.301-0.016
	l-21.348-2.322l-8.662,19.649C349.143,482.351,348.147,483,347.049,483z"/>
<path d="M208,175.442c-11.566,0-20.977,9.434-20.977,21.029c0,11.596,9.41,21.029,20.977,21.029
	c11.566,0,20.977-9.434,20.977-21.029C228.977,184.876,219.567,175.442,208,175.442z M208,202.5c-3.296,0-5.977-2.705-5.977-6.029
	s2.681-6.029,5.977-6.029s5.977,2.705,5.977,6.029S211.296,202.5,208,202.5z"/>
<path d="M304,217.5c11.566,0,20.977-9.434,20.977-21.029c0-11.595-9.41-21.029-20.977-21.029c-11.566,0-20.977,9.434-20.977,21.029
	C283.024,208.066,292.434,217.5,304,217.5z M304,190.442c3.296,0,5.977,2.705,5.977,6.029c0,3.325-2.681,6.029-5.977,6.029
	s-5.977-2.705-5.977-6.029C298.024,193.146,300.704,190.442,304,190.442z"/>
<path d="M447.335,145.898l-2.129-16.847c-0.787-6.233-6.116-10.933-12.396-10.933c-0.508,0-1.022,0.031-1.529,0.094
	c-22.268,2.734-44.686,4.93-67.16,6.62l-9.982-47.378c-0.854-4.054-4.836-6.646-8.885-5.793c-4.054,0.854-6.646,4.832-5.793,8.885
	l2.729,12.955H169.81l15.693-74.485c0.49-2.327,2.572-4.015,4.95-4.015h45.012c1.426,0,2.791,0.604,3.748,1.661l11.232,12.39
	c1.422,1.568,3.44,2.463,5.558,2.463c2.116,0,4.135-0.895,5.557-2.463l11.227-12.389c0.957-1.056,2.323-1.662,3.748-1.662h45.014
	c2.377,0,4.458,1.688,4.948,4.015l4.958,23.532c0.855,4.053,4.84,6.644,8.885,5.792c4.054-0.854,6.647-4.832,5.793-8.885
	l-4.958-23.533C339.231,6.696,330.977,0,321.549,0h-45.014c-5.65,0-11.065,2.401-14.862,6.588l-5.672,6.259l-5.673-6.257
	C246.535,2.402,241.118,0,235.465,0h-45.012c-9.429,0-17.684,6.696-19.628,15.922l-22.945,108.91
	c-22.475-1.69-44.894-3.886-67.163-6.621c-0.505-0.062-1.019-0.093-1.527-0.093c-6.279,0-11.608,4.7-12.396,10.933l-2.13,16.851
	c-0.418,3.32,0.483,6.602,2.539,9.242c2.056,2.641,5.018,4.32,8.34,4.729c23.782,2.921,47.731,5.258,71.738,7.025v1.611h-4.365
	c-17.174,0-31.145,13.972-31.145,31.145v25.701c0,17.173,13.972,31.145,31.145,31.145h10.466l9.303,35.97
	c-2.997,4.846-4.52,10.629-4.52,17.348c0,0.787,0.028,1.571,0.068,2.352c-12.895,5.262-21.236,14.113-21.236,29.013
	c0,2.22,0.198,4.41,0.582,6.567h-15.758c-12.406,0-22.5,10.093-22.5,22.5V494.5c0,9.649,7.851,17.5,17.5,17.5h278.357
	c9.649,0,17.5-7.851,17.5-17.5V370.25c0-12.407-10.094-22.5-22.5-22.5H374.42c0.383-2.157,0.582-4.347,0.582-6.567
	c0-14.899-8.342-23.751-21.236-29.012c0.041-0.782,0.069-1.566,0.069-2.353c0-7.15-1.722-13.242-5.116-18.268l9.712-35.049h10.654
	c17.173,0,31.145-13.972,31.145-31.145v-25.701c0-17.174-13.972-31.145-31.145-31.145h-4.366v-1.611
	c24.007-1.767,47.956-4.104,71.739-7.025c3.321-0.408,6.283-2.087,8.34-4.729C446.853,152.504,447.754,149.222,447.335,145.898z
	 M345.352,108.5l3.663,17.39c-11.315,0.732-22.64,1.348-33.962,1.815l-2.062-19.205H345.352z M214.096,108.5h83.81l2.121,19.756
	c-14.697,0.453-29.382,0.681-44.026,0.681c-14.645,0-29.328-0.228-44.025-0.681L214.096,108.5z M166.65,108.5h32.36l-2.063,19.205
	c-11.322-0.467-22.646-1.083-33.961-1.815L166.65,108.5z M142.916,241.5c-8.902,0-16.145-7.243-16.145-16.145v-25.701
	c0-8.903,7.243-16.145,16.145-16.145h4.365v20.951h-5.291c-4.143,0-7.5,3.358-7.5,7.5s3.357,7.5,7.5,7.5h5.773
	c0.703,7.6,2.19,14.973,4.384,22.041L142.916,241.5L142.916,241.5z M233.754,497h-4.71v-19.936c0.426-0.352,0.841-0.725,1.227-1.143
	l3.483-3.773V497z M263.246,497h-14.492v-41.101l14.492-15.698V497z M222.797,461.903l-14.663-25.628
	c-2.058-3.595-6.639-4.842-10.234-2.785c-3.596,2.057-4.842,6.639-2.785,10.234l17.261,30.169c0.479,0.836,1.041,1.591,1.669,2.264
	V497h-97.223c-1.355,0-2.5-1.145-2.5-2.5V370.25c0-4.136,3.364-7.5,7.5-7.5h21.717c3.429,5.434,8.127,10.519,13.917,15.155
	l18.777,32.818c2.057,3.594,6.638,4.842,10.234,2.785s4.842-6.639,2.785-10.234l-6.054-10.581
	c19.994,8.293,45.154,13.173,72.802,13.173c6.581,0,13.018-0.28,19.281-0.813L222.797,461.903z M282.956,497h-4.71v-73.047
	l4.71-5.102V497z M368.461,362.75h21.718c4.136,0,7.5,3.364,7.5,7.5V494.5c0,1.355-1.145,2.5-2.5,2.5h-97.223v-94.397l0.829-0.899
	C331.582,395.03,357.059,380.821,368.461,362.75z M350.433,327.007c8.223,4.093,9.569,9.341,9.569,14.176
	c0,23.993-41.791,49.683-104.002,49.683c-62.212,0-104.003-25.689-104.003-49.683c0-4.834,1.348-10.082,9.57-14.175
	c4.558,11.217,13.598,21.386,26.545,29.582c14.807,9.373,33.484,15.302,53.642,17.209l5.475,5.102
	c2.362,2.2,5.469,3.412,8.748,3.412h0.001c3.309,0,6.436-1.23,8.807-3.465l5.341-5.038c20.203-1.896,38.926-7.829,53.763-17.221
	C336.835,348.393,345.876,338.224,350.433,327.007z M262.816,238.319c-3.949-1.091-9.681-1.091-13.632,0l-15.181,4.193
	c-3.992,1.103-6.335,5.233-5.232,9.226c1.102,3.992,5.229,6.338,9.227,5.233l15.18-4.193c1.346-0.372,4.302-0.372,5.646,0
	l79.026,21.827l-4.741,17.11c-0.37,1.336-1.883,3.845-2.892,4.796l-74.247,70.03l-75.197-70.082
	c-0.962-0.896-2.434-3.369-2.763-4.642l-4.412-17.06l24.4-6.74c3.992-1.103,6.335-5.234,5.232-9.227
	c-1.104-3.991-5.229-6.334-9.227-5.232l-24.162,6.674l-2.732-10.565l86.068-23.773c0.465-0.128,1.483-0.278,2.823-0.278
	c1.34,0,2.358,0.15,2.822,0.278l85.945,23.738l-2.914,10.516L262.816,238.319z M338.835,309.817c0,12.611-8.157,24.721-22.97,34.097
	c-7.544,4.775-16.308,8.523-25.863,11.147l48.814-46.042C338.824,309.285,338.835,309.546,338.835,309.817z M221.503,354.925
	c-9.362-2.618-17.955-6.317-25.368-11.01c-14.789-9.362-22.941-21.448-22.967-34.038L221.503,354.925z M349.719,209.376
	c0,8.698-1.201,17.12-3.43,25.117L263.5,211.626v-10.869c0-4.142-3.357-7.5-7.5-7.5c-4.143,0-7.5,3.358-7.5,7.5v10.869
	l-82.789,22.867c-2.229-7.998-3.43-16.419-3.43-25.117v-41.449c31.257,1.983,62.574,2.991,93.719,2.991s62.462-1.008,93.719-2.991
	V209.376z M369.085,183.508c8.902,0,16.145,7.243,16.145,16.145v25.701c0,8.902-7.242,16.145-16.145,16.145h-9.226
	c2.191-7.068,3.675-14.442,4.377-22.041h5.773c4.142,0,7.5-3.358,7.5-7.5s-3.358-7.5-7.5-7.5h-5.291v-20.951L369.085,183.508
	L369.085,183.508z M256,155.917c-58.626,0-117.872-3.576-176.139-10.629l1.502-11.887c57.764,6.991,116.508,10.535,174.637,10.535
	c58.133,0,116.871-3.544,174.637-10.535l1.502,11.887C373.871,152.342,314.626,155.917,256,155.917z"/>
<path d="M305.306,466.397c1.828,3.169,5.236,5.138,8.896,5.138c0.364,0,0.731-0.02,1.111-0.06l15.89-1.728l6.448,14.626
	c1.642,3.722,5.331,6.126,9.398,6.126c4.067,0,7.757-2.405,9.399-6.128l6.447-14.625l15.902,1.729
	c4.061,0.433,7.984-1.595,9.991-5.074c2.036-3.523,1.8-7.921-0.604-11.207l-9.441-12.897l9.441-12.897
	c2.404-3.284,2.642-7.683,0.607-11.202c-1.828-3.169-5.236-5.138-8.896-5.138c-0.364,0-0.732,0.02-1.111,0.06l-15.89,1.728
	l-6.448-14.628c-1.643-3.72-5.331-6.125-9.398-6.125c-4.067,0-7.756,2.404-9.399,6.128l-6.447,14.624l-15.902-1.729
	c-4.053-0.43-7.984,1.595-9.991,5.074c-2.037,3.524-1.8,7.923,0.604,11.207l9.441,12.897l-9.442,12.898
	C303.509,458.481,303.273,462.88,305.306,466.397z M330.701,437.869l-6.351-8.675l10.689,1.163c3.248,0.359,6.354-1.439,7.673-4.431
	l4.337-9.837l4.337,9.837c1.318,2.991,4.426,4.785,7.673,4.431l10.689-1.163l-6.351,8.675c-1.931,2.638-1.931,6.223,0,8.86
	l6.351,8.675l-10.689-1.163c-3.247-0.354-6.354,1.439-7.673,4.431l-4.337,9.837l-4.337-9.837c-1.208-2.741-3.914-4.475-6.859-4.475
	c-0.27,0-0.541,0.014-0.813,0.044l-10.689,1.163l6.351-8.675C332.632,444.091,332.632,440.506,330.701,437.869z"/>
<g>
</g>
<g>
</g>
<g>
</g>
<g>
</g>
<g>
</g>
<g>
</g>
<g>
</g>
<g>
</g>
<g>
</g>
<g>
</g>
<g>
</g>
<g>
</g>
<g>
</g>
<g>
</g>
<g>
</g>
</svg>
