<?xml version="1.0" encoding="UTF-8"?>
<svg xmlns="http://www.w3.org/2000/svg" xmlns:xlink="http://www.w3.org/1999/xlink" width="512" height="512" viewBox="0 0 60 60" version="1.1"><!-- Generator: Sketch 51.3 (57544) - http://www.bohemiancoding.com/sketch --><title>011 - Mining</title><desc>Created with Sketch.</desc><defs/><g id="Page-1" stroke="none" stroke-width="1" fill="none" fill-rule="evenodd"><g id="011---Mining" transform="translate(-1.000000, -1.000000)" fill-rule="nonzero"><path d="M43.6,15.85 L41.48,17.97 L33,18.62 L33.4,16.44 L34.41,10.9 L36.53,8.78 C36.9032815,8.40097181 37.4130212,8.1875462 37.945,8.1875462 C38.4769788,8.1875462 38.9867185,8.40097181 39.36,8.78 L43.6,13.02 C43.9755541,13.3951365 44.1865733,13.9041815 44.1865733,14.435 C44.1865733,14.9658185 43.9755541,15.4748635 43.6,15.85 Z" id="Shape" fill="#F57C00"/><path d="M60,31 L60,59 C60,59.5522847 59.5522847,60 59,60 L30,60 C29.4477153,60 29,59.5522847 29,59 L29,57.24 C29.0023371,56.4449465 29.3186179,55.6829971 29.88,55.12 L32.12,52.88 C32.6829971,52.3186179 33.4449465,52.0023371 34.24,52 L38,52 L38,49 C38,47.3431458 39.3431458,46 41,46 L42,46 L43.71,44 L44.28,43.34 C44.7440249,42.7961688 44.9992655,42.1048923 45,41.39 L45,39.27 C45.0005902,38.4598601 45.3288093,37.6843974 45.91,37.12 L46.57,36.48 L50.14,33.02 L52.38,30.85 C52.9380949,30.303326 53.6887712,29.998027 54.47,30 L59,30 C59.5522847,30 60,30.4477153 60,31 Z" id="Shape" fill="#37474F"/><path d="M57,31 L57,59 C57,59.5522847 56.5522847,60 56,60 L30,60 C29.4477153,60 29,59.5522847 29,59 L29,57.24 C29.0023371,56.4449465 29.3186179,55.6829971 29.88,55.12 L32.12,52.88 C32.6829971,52.3186179 33.4449465,52.0023371 34.24,52 L38,52 L38,49 C38,47.3431458 39.3431458,46 41,46 L42,46 L43.71,44 L44.28,43.34 C44.7440249,42.7961688 44.9992655,42.1048923 45,41.39 L45,39.27 C45.0005902,38.4598601 45.3288093,37.6843974 45.91,37.12 L46.57,36.48 L50.14,33.02 L52.38,30.85 C52.9380949,30.303326 53.6887712,29.998027 54.47,30 L56,30 C56.5522847,30 57,30.4477153 57,31 Z" id="Shape" fill="#607D8B"/><path d="M32.28,18.94 L31.58,26.45 L19.73,38.31 L10.31,47.73 L8.24,49.79 C7.86486349,50.1655541 7.3558185,50.3765733 6.825,50.3765733 C6.2941815,50.3765733 5.78513651,50.1655541 5.41,49.79 L3.45,47.83 C3.44,47.81 3.42,47.8 3.41,47.79 L2.59,46.96 C2.21097181,46.5867185 1.9975462,46.0769788 1.9975462,45.545 C1.9975462,45.0130212 2.21097181,44.5032815 2.59,44.13 L25.92,20.8 L30.03,19.6 L32.28,18.94 Z" id="Shape" fill="#F57C00"/><path d="M41.6,13.85 L39.48,15.97 L33.4,16.44 L34.41,10.9 L36.53,8.78 C36.9032815,8.40097181 37.4130212,8.1875462 37.945,8.1875462 C38.4769788,8.1875462 38.9867185,8.40097181 39.36,8.78 L41.6,11.02 C41.9755541,11.3951365 42.1865733,11.9041815 42.1865733,12.435 C42.1865733,12.9658185 41.9755541,13.4748635 41.6,13.85 Z" id="Shape" fill="#FF9801"/><path d="M30.03,19.6 L29.58,24.45 L17.73,36.31 L8.31,45.73 L6.24,47.79 C5.4744279,48.5570136 4.23724614,48.574751 3.45,47.83 C3.44,47.81 3.42,47.8 3.41,47.79 L2.59,46.96 C2.21097181,46.5867185 1.9975462,46.0769788 1.9975462,45.545 C1.9975462,45.0130212 2.21097181,44.5032815 2.59,44.13 L25.92,20.8 L30.03,19.6 Z" id="Shape" fill="#FF9801"/><path d="M22.32,10.13 C22.5206727,10.3265723 22.6744806,10.5658291 22.77,10.83 C19.2104985,7.77720835 15.2793307,5.18666953 11.07,3.12 C11.5511121,2.91090519 12.045524,2.73385229 12.55,2.59 C16.0650852,4.74939623 19.3402183,7.27698105 22.32,10.13 Z" id="Shape" fill="#707070"/><path d="M49.25,41.3 C48.5164212,39.7589115 47.6916249,38.2629247 46.78,36.82 C49.46,27.88 42.16,18.82 41.38,17.88 L44.31,20.8 C44.31,20.8 53.5,31.4 49.25,41.3 Z" id="Shape" fill="#707070"/><path d="M46.78,36.82 C44.6274136,33.3059453 42.1028763,30.0337696 39.25,27.06 C38.8611893,26.6806302 38.3430789,26.4626665 37.8,26.45 L31.58,26.45 L25.92,20.79 L25.92,14.57 C25.9181295,14.0295758 25.702416,13.5118636 25.32,13.13 C24.47,12.31 23.62,11.54 22.77,10.83 C22.6744806,10.5658291 22.5206727,10.3265723 22.32,10.13 C19.3402183,7.27698105 16.0650852,4.74939623 12.55,2.59 C21.49,-0.08 30.56,7.21 31.5,8 L41.31,17.8 C41.3309205,17.8286852 41.3543457,17.8554569 41.38,17.88 C42.16,18.82 49.46,27.88 46.78,36.82 Z" id="Shape" fill="#9E9E9E"/><path d="M46.78,36.82 C46.6361477,37.324476 46.4590948,37.8188879 46.25,38.3 C44.1833305,34.0906693 41.5927917,30.1595015 38.54,26.6 C38.8089549,26.6965665 39.051947,26.853998 39.25,27.06 C42.1028763,30.0337696 44.6274136,33.3059453 46.78,36.82 Z" id="Shape" fill="#707070"/><path d="M6.829,51.37 C6.03489762,51.3712373 5.27250121,51.0585145 4.708,50.5 L1.881,47.666 C1.31432203,47.1040908 0.996060371,46.3387854 0.997187543,45.5407474 C0.998314715,44.7427095 1.31873698,43.9783062 1.887,43.418 L25.213,20.093 C25.6033851,19.7032841 26.2356149,19.7032841 26.626,20.093 L32.287,25.744 C32.6773819,26.1344999 32.6773819,26.7675001 32.287,27.158 L8.947,50.5 C8.38477934,51.0601073 7.62260076,51.3731835 6.829,51.37 Z M25.92,22.213 L3.3,44.837 C3.10904942,45.0217301 3.00082132,45.2757643 2.99987986,45.5414454 C2.99893839,45.8071264 3.10536341,46.0619213 3.295,46.248 L6.122,49.084 C6.51249985,49.4743819 7.14550015,49.4743819 7.536,49.084 L30.165,26.451 L25.92,22.213 Z" id="Shape" fill="#000000"/><path d="M49.25,42.3 C48.8574397,42.3001056 48.5011274,42.0705169 48.339,41.713 C45.7975009,36.5870342 42.4887601,31.8788566 38.527,27.751 C38.3361889,27.5577831 38.0755507,27.4496345 37.804,27.451 L31.58,27.451 C31.3152951,27.4509438 31.0614111,27.3459379 30.874,27.159 L25.213,21.508 C25.0254506,21.3205073 24.9200566,21.0661948 24.92,20.801 L24.92,14.575 C24.9221244,14.3035937 24.813837,14.0429819 24.62,13.853 C20.4935105,9.8859782 15.7843604,6.57365561 10.656,4.031 C10.2951298,3.86720579 10.0650346,3.50575844 10.0693655,3.1094794 C10.0736964,2.71320037 10.3116362,2.35686815 10.676,2.201 C21.031,-2.233 31.782,6.922 32.235,7.314 L45.017,20.093 C45.458,20.593 54.617,31.337 50.169,41.693 C50.0111976,42.0546099 49.6555276,42.2896342 49.261,42.293 L49.25,42.3 Z M31.994,25.45 L37.8,25.45 C38.6137112,25.449821 39.3929935,25.7783384 39.961,26.361 C43.5115492,30.0621975 46.5648987,34.2100869 49.044,38.7 C50.961,30.157 43.635,21.545 43.554,21.451 L30.873,8.777 C30.828,8.742 22.218,1.417 13.673,3.328 C18.1646531,5.80780756 22.3136533,8.86291324 26.015,12.416 C26.5958567,12.9842468 26.9234864,13.7624124 26.924,14.575 L26.924,20.385 L31.994,25.45 Z" id="Shape" fill="#000000"/><path d="M41.48,18.97 C41.2148052,18.9699434 40.9604927,18.8645494 40.773,18.677 L33.703,11.607 C33.3126181,11.2165001 33.3126181,10.5834999 33.703,10.193 L35.823,8.073 C36.3788371,7.50706012 37.1387517,7.18817705 37.932,7.188 L37.941,7.188 C38.7393019,7.1868342 39.504876,7.50516321 40.067,8.072 L44.307,12.313 C45.4767228,13.4858692 45.4767228,15.3841308 44.307,16.557 L42.187,18.677 C41.9995073,18.8645494 41.7451948,18.9699434 41.48,18.97 Z M35.824,10.9 L41.48,16.556 L42.893,15.143 C43.0810834,14.9553915 43.1867876,14.7006545 43.1867876,14.435 C43.1867876,14.1693455 43.0810834,13.9146085 42.893,13.727 L38.653,9.487 C38.4647134,9.294909 38.206981,9.18676954 37.938,9.187 C37.6745045,9.18627998 37.4219596,9.2923488 37.238,9.481 L35.824,10.9 Z" id="Shape" fill="#000000"/><path d="M59,61 L30,61 C28.8954305,61 28,60.1045695 28,59 L28,57.24 C27.99722,56.1801921 28.418519,55.1633131 29.17,54.416 L31.413,52.173 C32.16253,51.4195772 33.182252,50.9972136 34.245,51 L37,51 L37,49 C37,46.790861 38.790861,45 41,45 L41.54,45 L43.521,42.689 C43.8295369,42.3264324 43.9992906,41.8660774 44,41.39 L44,39.27 C44.0015422,38.1888596 44.4392517,37.1540769 45.214,36.4 L45.874,35.76 C46.1312312,35.5113431 46.5015795,35.4188059 46.8455383,35.5172463 C47.1894971,35.6156866 47.4548108,35.8901491 47.5415383,36.2372463 C47.6282659,36.5843435 47.5232312,36.9513432 47.266,37.2 L46.606,37.84 C46.2196125,38.2155701 46.0011171,38.7311615 46,39.27 L46,41.39 C45.9990375,42.3430162 45.659109,43.264616 45.041,43.99 L42.759,46.652 C42.5688499,46.8731281 42.2916413,47.0002277 42,47 L41,47 C39.8954305,47 39,47.8954305 39,49 L39,52 C39,52.5522847 38.5522847,53 38,53 L34.245,53 C33.712883,52.9983159 33.2022339,53.2097059 32.827,53.587 L30.584,55.83 C30.2092137,56.2033961 29.9989906,56.7109552 30,57.24 L30,59 L59,59 L59,31 L54.47,31 C53.9509072,30.9973347 53.451741,31.1996605 53.081,31.563 L50.836,33.738 C50.4389073,34.1223902 49.8053902,34.1120927 49.421,33.715 C49.0366098,33.3179073 49.0469073,32.6843902 49.444,32.3 L51.684,30.13 C52.427716,29.4012885 53.4287933,28.9952521 54.47,29 L59,29 C60.1045695,29 61,29.8954305 61,31 L61,59 C61,60.1045695 60.1045695,61 59,61 Z" id="Shape" fill="#000000"/><path d="M44.5,55.5 C44.2348052,55.4999434 43.9804927,55.3945494 43.793,55.207 L42.464,53.878 C41.9001254,53.3175672 41.1380063,53.0020837 40.343,53 L38,53 C37.4477153,53 37,52.5522847 37,52 C37,51.4477153 37.4477153,51 38,51 L40.343,51 C41.6695763,50.9962544 42.9425062,51.523431 43.878,52.464 L45.207,53.793 C45.4929079,54.0789943 45.5784219,54.5090366 45.423678,54.8826546 C45.2689341,55.2562725 44.9043959,55.4999137 44.5,55.5 Z" id="Shape" fill="#000000"/><path d="M46,47 L42,47 C41.4477153,47 41,46.5522847 41,46 C41,45.4477153 41.4477153,45 42,45 L46,45 C46.5522847,45 47,45.4477153 47,46 C47,46.5522847 46.5522847,47 46,47 Z" id="Shape" fill="#000000"/><path d="M53,50 C52.4477153,50 52,49.5522847 52,49 L52,47 C52,46.4477153 52.4477153,46 53,46 C53.5522847,46 54,46.4477153 54,47 L54,49 C54,49.5522847 53.5522847,50 53,50 Z" id="Shape" fill="#000000"/><path d="M53,56 C52.4477153,56 52,55.5522847 52,55 L52,53 C52,52.4477153 52.4477153,52 53,52 C53.5522847,52 54,52.4477153 54,53 L54,55 C54,55.5522847 53.5522847,56 53,56 Z" id="Shape" fill="#000000"/><path d="M51,52 L49,52 C48.4477153,52 48,51.5522847 48,51 C48,50.4477153 48.4477153,50 49,50 L51,50 C51.5522847,50 52,50.4477153 52,51 C52,51.5522847 51.5522847,52 51,52 Z" id="Shape" fill="#000000"/><path d="M57,52 L55,52 C54.4477153,52 54,51.5522847 54,51 C54,50.4477153 54.4477153,50 55,50 L57,50 C57.5522847,50 58,50.4477153 58,51 C58,51.5522847 57.5522847,52 57,52 Z" id="Shape" fill="#000000"/><path d="M56,39 C55.4477153,39 55,38.5522847 55,38 L55,37 C55,36.4477153 55.4477153,36 56,36 C56.5522847,36 57,36.4477153 57,37 L57,38 C57,38.5522847 56.5522847,39 56,39 Z" id="Shape" fill="#000000"/><path d="M56,44 C55.4477153,44 55,43.5522847 55,43 L55,42 C55,41.4477153 55.4477153,41 56,41 C56.5522847,41 57,41.4477153 57,42 L57,43 C57,43.5522847 56.5522847,44 56,44 Z" id="Shape" fill="#000000"/><path d="M54,41 L53,41 C52.4477153,41 52,40.5522847 52,40 C52,39.4477153 52.4477153,39 53,39 L54,39 C54.5522847,39 55,39.4477153 55,40 C55,40.5522847 54.5522847,41 54,41 Z" id="Shape" fill="#000000"/><path d="M34,57 C33.7348879,56.9980257 33.4806836,56.8941958 33.29,56.71 C32.9032597,56.3156639 32.9032597,55.6843361 33.29,55.29 C33.5775607,55.0062554 34.0076029,54.9234033 34.38,55.08 C34.5011393,55.1307291 34.6127393,55.2017473 34.71,55.29 C35.0967403,55.6843361 35.0967403,56.3156639 34.71,56.71 C34.6127393,56.7982527 34.5011393,56.8692709 34.38,56.92 C34.2597777,56.971241 34.1306773,56.99842 34,57 Z" id="Shape" fill="#000000"/><path d="M40,57 L38,57 C37.4477153,57 37,56.5522847 37,56 C37,55.4477153 37.4477153,55 38,55 L40,55 C40.5522847,55 41,55.4477153 41,56 C41,56.5522847 40.5522847,57 40,57 Z" id="Shape" fill="#000000"/><path d="M11.02,48.02 C10.7548052,48.0199434 10.5004927,47.9145494 10.313,47.727 L8.293,45.707 C8.03304342,45.4559255 7.9287874,45.0841221 8.02030284,44.7344927 C8.11181828,44.3848632 8.38486324,44.1118183 8.73449268,44.0203028 C9.08412211,43.9287874 9.45592553,44.0330434 9.707,44.293 L11.727,46.313 C12.0129079,46.5989943 12.0984219,47.0290366 11.943678,47.4026546 C11.7889341,47.7762725 11.4243959,48.0199137 11.02,48.02 Z" id="Shape" fill="#000000"/><path d="M14.52,44.52 C14.2548052,44.5199434 14.0004927,44.4145494 13.813,44.227 L10.293,40.707 C9.91402779,40.3146211 9.91944763,39.6909152 10.3051814,39.3051814 C10.6909152,38.9194476 11.3146211,38.9140278 11.707,39.293 L15.227,42.813 C15.5129079,43.0989943 15.5984219,43.5290366 15.443678,43.9026546 C15.2889341,44.2762725 14.9243959,44.5199137 14.52,44.52 Z" id="Shape" fill="#000000"/><path d="M19.02,40.02 C18.7548052,40.0199434 18.5004927,39.9145494 18.313,39.727 L16.293,37.707 C15.9140278,37.3146211 15.9194476,36.6909152 16.3051814,36.3051814 C16.6909152,35.9194476 17.3146211,35.9140278 17.707,36.293 L19.727,38.313 C20.0129079,38.5989943 20.0984219,39.0290366 19.943678,39.4026546 C19.7889341,39.7762725 19.4243959,40.0199137 19.02,40.02 Z" id="Shape" fill="#000000"/></g></g></svg>
