<svg viewBox="0 0 512 512.00056" xmlns="http://www.w3.org/2000/svg"><g fill="#685c79"><path d="m51.722656 148.144531c2.632813 12.082031-5.773437 20.570313-17.855468 23.207031-12.082032 2.632813-23.261719-1.582031-25.894532-13.664062-2.636718-12.082031 6.09375-19.972656 18.175782-22.609375 12.082031-2.632813 22.9375.984375 25.574218 13.066406zm0 0"/><path d="m145.886719 127.605469c2.636719 12.082031-5.769531 20.570312-17.851563 23.207031-12.082031 2.632812-23.261718-1.582031-25.898437-13.664062-2.632813-12.082032 6.097656-19.972657 18.175781-22.609376 12.082031-2.636718 22.941406.984376 25.574219 13.066407zm0 0"/><path d="m125.378906 33.585938-94.164062 20.539062-4.691406-21.507812c-.683594-3.136719 1.304687-6.234376 4.441406-6.917969l82.804687-18.0625c3.136719-.683594 6.234375 1.304687 6.917969 4.441406zm0 0"/></g><path d="m371.445312 458.007812c-4.480468 11.527344-16.179687 13.960938-27.703124 9.480469-11.527344-4.476562-18.515626-14.167969-14.039063-25.695312 4.480469-11.527344 16.117187-13.28125 27.644531-8.800781 11.527344 4.476562 18.574219 13.492187 14.097656 25.015624zm0 0" fill="#ff2c5c"/><path d="m461.28125 492.914062c-4.476562 11.527344-16.175781 13.957032-27.703125 9.480469-11.523437-4.480469-18.515625-14.171875-14.035156-25.695312 4.476562-11.527344 16.113281-13.28125 27.640625-8.804688 11.527344 4.476563 18.578125 13.492188 14.097656 25.019531zm0 0" fill="#ff2c5c"/><path d="m496.132812 403.214844-89.839843-34.902344 7.972656-20.519531c1.164063-2.992188 4.53125-4.476563 7.523437-3.3125l79 30.691406c2.992188 1.164063 4.476563 4.53125 3.3125 7.523437zm0 0" fill="#ff2c5c"/><path d="m237.054688 473.167969c-47.246094 47.246093-130.621094 40.3125-185.40625-15.746094-54.285157-55.550781-59.191407-139.03125-10.933594-184.6875 15.320312-14.5 34.195312-23.546875 54.542968-27.304687 35.46875-6.546876 64.367188-28.085938 80.738282-58.886719 4.132812-7.769531 9.757812-14.699219 16.246094-21.1875 70.707031-70.707031 226.6875 81.777343 152.253906 156.210937-5.546875 5.546875-11.734375 10.136719-18.390625 13.773438-30.871094 16.882812-53.113281 45.40625-59.730469 81.222656-3.929688 21.269531-13.640625 40.929688-29.320312 56.605469zm0 0" fill="#b0693c"/><path d="m310.5625 177.902344c31.082031 37.664062 44.277344 86.988281 10.765625 120.5-5.546875 5.546875-11.734375 10.132812-18.390625 13.773437-30.871094 16.882813-53.113281 45.402344-59.730469 81.21875-3.929687 21.269531-13.640625 40.929688-29.316406 56.605469-43.503906 43.5-117.632813 41.070312-171.871094-3.34375 3.015625 3.6875 6.226563 7.28125 9.628907 10.765625 54.78125 56.058594 138.160156 62.992187 185.40625 15.746094 15.675781-15.679688 25.390624-35.335938 29.316406-56.605469 6.617187-35.816406 28.859375-64.335938 59.734375-81.222656 6.652343-3.636719 12.839843-8.222656 18.386719-13.769532 40.992187-40.992187 12.105468-105.644531-33.929688-143.667968zm0 0" fill="#9c5d35"/><path d="m145.691406 442.792969-76.582031-76.582031c-7.210937-7.207032-7.210937-18.894532 0-26.105469 7.210937-7.207031 18.898437-7.207031 26.105469 0l76.582031 76.582031c7.210937 7.210938 7.210937 18.898438 0 26.105469-7.207031 7.210937-18.898437 7.210937-26.105469 0zm0 0" fill="#ffd659"/><path d="m412.535156 56.9375 42.425782 42.425781-204.34375 204.34375-42.425782-42.425781zm0 0" fill="#ebe4e2"/><path d="m433.75 78.152344 21.210938 21.210937-204.34375 204.34375-21.214844-21.210937zm0 0" fill="#d1c4c4"/><path d="m238.332031 273.566406c-19.527343-19.523437-51.183593-19.523437-70.710937 0-19.523438 19.527344-19.523438 51.183594 0 70.710938 19.527344 19.527344 51.183594 19.527344 70.710937 0 19.527344-19.527344 19.527344-51.183594 0-70.710938zm0 0" fill="#594f69"/><path d="m238.335938 273.570312c-13.625-13.628906-33.15625-17.734374-50.355469-12.339843 7.445312 2.335937 14.457031 6.4375 20.359375 12.339843 19.523437 19.523438 19.523437 51.183594 0 70.710938-5.902344 5.898438-12.914063 10.003906-20.359375 12.335938 17.199219 5.390624 36.730469 1.289062 50.355469-12.335938 19.527343-19.527344 19.527343-51.1875 0-70.710938zm0 0" fill="#50475e"/><path d="m424.375 132.417969-44.796875-44.796875c-2.007813-2.007813-1.902344-5.296875.230469-7.175782l81.441406-71.71875c1.953125-1.71875 4.898438-1.621093 6.734375.214844l35.074219 35.070313c1.835937 1.835937 1.929687 4.785156.210937 6.734375l-71.71875 81.445312c-1.878906 2.132813-5.164062 2.234375-7.175781.226563zm0 0" fill="#b0693c"/><path d="m503.058594 44.011719-21.335938-21.332031c1.839844 1.835937 1.933594 4.785156.214844 6.734374l-71.71875 81.441407c-1.878906 2.132812-5.167969 2.238281-7.175781.230469l21.332031 21.332031c2.011719 2.007812 5.296875 1.90625 7.175781-.226563l71.71875-81.445312c1.71875-1.949219 1.625-4.898438-.210937-6.734375zm0 0" fill="#9c5d35"/><path d="m14.121094 176.800781c3.886718 1.871094 8.285156 2.816407 12.992187 2.816407 2.695313 0 5.492188-.308594 8.355469-.933594 17.191406-3.75 26.886719-16.960938 23.582031-32.128906 0-.003907 0-.003907 0-.003907l-18.910156-86.695312 79.507813-17.34375 14.015624 64.25c-4.476562-.847657-9.515624-.730469-14.949218.453125-17.574219 3.832031-27.183594 16.507812-23.90625 31.535156 2.761718 12.664062 13.199218 20.3125 26.574218 20.3125 2.644532 0 5.410157-.300781 8.25-.917969 17.191407-3.75 26.890626-16.964843 23.582032-32.132812 0 0 0 0 0-.003907l-25.199219-115.53125c-1.5625-7.171874-8.675781-11.734374-15.855469-10.167968l-82.792968 18.058594c-3.472657.757812-6.441407 2.820312-8.363282 5.808593-1.925781 2.992188-2.566406 6.554688-1.808594 10.027344l20.304688 93.101563c-4.476562-.847657-9.519531-.734376-14.949219.449218-7.855469 1.714844-14.300781 5.21875-18.632812 10.128906-5.140625 5.828126-7.015625 13.429688-5.273438 21.40625 1.730469 7.933594 6.515625 14.152344 13.476563 17.511719zm112.3125-33.3125c-3.410156.742188-14.722656 2.375-16.96875-7.933593-1.988282-9.109376 6.945312-12.484376 12.449218-13.683594 1.847657-.402344 3.832032-.683594 5.765626-.683594 4.917968 0 9.523437 1.808594 10.878906 8.015625v.003906c2.25 10.304688-8.710938 13.535157-12.125 14.28125zm-12.714844-128.167969 2.734375 12.535157-79.507813 17.34375-2.734374-12.53125zm-96.550781 132.488282c2.175781-2.464844 5.933593-4.382813 10.582031-5.398438 1.847656-.402344 3.832031-.683594 5.765625-.683594 4.917969 0 9.523437 1.8125 10.878906 8.015626v.003906c2.246094 10.308594-8.710937 13.539062-12.125 14.28125-4.480469.976562-8.613281.714844-11.636719-.742188-2.832031-1.363281-4.578124-3.71875-5.332031-7.191406-.738281-3.375-.144531-6.007812 1.867188-8.285156zm0 0"/><path d="m510.863281 375.242188c-1.433593-3.257813-4.050781-5.757813-7.363281-7.046876l-78.996094-30.695312c-6.847656-2.660156-14.574218.746094-17.234375 7.589844l-34.527343 88.878906c-3.3125-3.261719-7.589844-5.972656-12.683594-7.953125-7.496094-2.910156-14.800782-3.550781-21.128906-1.851563-7.503907 2.015626-13.261719 7.320313-16.21875 14.929688-2.941407 7.570312-2.386719 15.398438 1.558593 22.039062 3.464844 5.832032 9.257813 10.457032 16.753907 13.367188 4.511718 1.753906 8.941406 2.59375 13.117187 2.59375 11.007813 0 20.214844-5.855469 24.292969-16.347656l32.132812-82.710938 75.851563 29.472656-23.839844 61.363282c-3.3125-3.257813-7.585937-5.96875-12.683594-7.949219-16.765625-6.515625-31.777343-1.257813-37.347656 13.078125-2.941406 7.570312-2.386719 15.394531 1.5625 22.039062 3.464844 5.832032 9.257813 10.453126 16.75 13.367188 4.511719 1.75 8.945313 2.59375 13.121094 2.59375 11.007812 0 20.214843-5.859375 24.289062-16.351562l42.820313-110.21875c1.285156-3.316407 1.207031-6.933594-.226563-10.1875zm-164.410156 85.273437c-4.277344-1.660156-7.578125-4.160156-9.289063-7.042969-1.605468-2.707031-1.761718-5.632812-.472656-8.945312 1.25-3.222656 3.199219-5.085938 6.132813-5.875 1.027343-.277344 2.164062-.414063 3.378906-.414063 2.535156 0 5.425781.59375 8.421875 1.761719 4.378906 1.699219 7.714844 4.125 9.398438 6.832031 1.5625 2.511719 1.695312 5.207031.425781 8.480469-3.820313 9.832031-14.738281 6.46875-17.996094 5.203125zm69.542969-96.464844 4.644531-11.957031 75.855469 29.472656-4.644532 11.957032zm20.292968 131.371094c-4.277343-1.660156-7.574218-4.164063-9.285156-7.046875-1.609375-2.703125-1.761718-5.628906-.476562-8.941406 1.890625-4.863282 5.636718-6.339844 9.492187-6.339844 3.03125 0 6.132813.914062 8.441407 1.8125 4.378906 1.699219 7.714843 4.125 9.398437 6.832031 1.5625 2.511719 1.695313 5.207031.425781 8.476563-3.820312 9.835937-14.738281 6.472656-17.996094 5.207031zm0 0"/><path d="m220.269531 477.699219c-46.117187 33.515625-116.300781 22.550781-163.257812-25.503907-27.386719-28.027343-42.695313-64.808593-41.988281-100.910156.5625-28.847656 11.515624-54.804687 30.839843-73.09375 13.761719-13.007812 31.3125-21.78125 50.757813-25.375 26.421875-4.878906 49.816406-17.636718 67.652344-36.890625 2.816406-3.039062 2.636718-7.785156-.402344-10.597656-3.039063-2.820313-7.78125-2.636719-10.597656.402344-15.628907 16.867187-36.15625 28.046875-59.375 32.335937-22.296876 4.117188-42.46875 14.222656-58.34375 29.226563-22.269532 21.078125-34.886719 50.800781-35.5273442 83.699219-.7851558 40.097656 16.0781252 80.804687 46.2578122 111.6875 31.5625 32.300781 72.816406 49.320312 112.027344 49.320312 25.542969 0 50.226562-7.230469 70.773438-22.164062 3.351562-2.433594 4.09375-7.125 1.660156-10.476563-2.4375-3.351563-7.128906-4.09375-10.476563-1.660156zm0 0"/><path d="m349.789062 326.886719c15.675782-15.679688 23.167969-35.878907 21.65625-58.417969-1.195312-17.886719-7.984374-36.890625-19.675781-55.292969l47.863281-47.863281c2.929688-2.929688 2.929688-7.679688.003907-10.605469-2.929688-2.929687-7.679688-2.929687-10.605469 0l-132.710938 132.707031c-2.855468-7.078124-7.125-13.578124-12.683593-19.136718-5.558594-5.558594-12.054688-9.832032-19.132813-12.683594l156.210938-156.222656 31.824218 31.824218-.886718.886719c-2.929688 2.925781-2.929688 7.675781 0 10.605469 1.464844 1.464844 3.382812 2.195312 5.304687 2.195312 1.917969 0 3.839844-.730468 5.300781-2.195312l1.898438-1.894531c1.191406.375 2.4375.574219 3.703125.574219.128906 0 .257813-.003907.386719-.007813 3.417968-.105469 6.671875-1.640625 8.929687-4.207031l7.960938-9.039063 8.535156 8.535157c1.464844 1.464843 3.386719 2.199218 5.304687 2.199218 1.917969 0 3.839844-.734375 5.304688-2.199218 2.929688-2.929688 2.929688-7.675782 0-10.605469l-9.210938-9.210938 12.527344-14.226562 8.914063 8.914062c1.464843 1.464844 3.386719 2.195313 5.304687 2.195313 1.917969 0 3.839844-.730469 5.304688-2.195313 2.929687-2.929687 2.929687-7.679687 0-10.609375l-9.589844-9.585937 12.433594-14.117188 6.457031 6.460938c1.464844 1.464843 3.386719 2.195312 5.304687 2.195312 1.917969 0 3.839844-.730469 5.304688-2.195312 2.929688-2.929688 2.929688-7.679688 0-10.609375l-7.136719-7.132813 9-10.21875c4.320313-4.90625 4.085938-12.371093-.535156-16.996093l-35.074219-35.074219c-4.625-4.625-12.089844-4.859375-16.996094-.539063l-10.222656 9.003906-7.140625-7.136718c-2.929687-2.925782-7.679687-2.925782-10.605469.003906-2.929687 2.929688-2.925781 7.679688.003907 10.609375l6.460937 6.457031-14.113281 12.425782-9.675781-9.671876c-2.925782-2.929687-7.675782-2.929687-10.605469 0-2.929687 2.925782-2.929687 7.675782 0 10.605469l9.003906 9-14.230469 12.53125-9.207031-9.207031c-2.925781-2.929688-7.675781-2.929688-10.605469 0-2.929687 2.929688-2.929687 7.679688 0 10.605469l8.535157 8.535156-9.042969 7.960937c-2.5625 2.257813-4.09375 5.511719-4.203125 8.929688-.042969 1.347656.144531 2.683594.527344 3.957031l-72.347657 72.351563c-42.164062-27.09375-84.625-27.253906-111.878906.003906-7.015625 7-12.386718 13.835938-16.421875 20.894531-2.058593 3.597657-.808593 8.179688 2.785157 10.234375 1.175781.671875 2.453124.992188 3.71875.992188 2.601562 0 5.132812-1.359375 6.515624-3.78125 3.367188-5.882813 7.941407-11.679688 14.003907-17.730469 29.8125-29.816406 70.65625-11.601563 90.375.289063l-80.644531 80.648437c-1.421876-.105469-2.851563-.175781-4.292969-.175781-15.355469 0-29.796875 5.980468-40.65625 16.84375-10.863281 10.859375-16.84375 25.300781-16.84375 40.660156s5.980469 29.800781 16.84375 40.660156c10.859375 10.859375 25.300781 16.84375 40.65625 16.84375 15.359375 0 29.800781-5.984375 40.660156-16.84375s16.839844-25.300781 16.839844-40.660156c0-1.441406-.070313-2.871094-.175781-4.292969l80.550781-80.550781c11.765625 19.824219 29.515625 61-1.675781 92.191406-4.910157 4.921875-10.519532 9.125-16.667969 12.492188-34.101563 18.652344-56.660157 49.351562-63.515625 86.441406-2.855469 15.484375-8.824219 29.484375-17.746094 41.617188-2.453125 3.339843-1.738281 8.035156 1.597656 10.488281 1.339844.984375 2.894532 1.457031 4.4375 1.457031 2.304688 0 4.578125-1.058594 6.046875-3.058594 10.277344-13.976562 17.144531-30.050781 20.414063-47.78125 6.019531-32.566406 25.894531-59.558594 55.964844-76.007812 7.402343-4.054688 14.160156-9.117188 20.078124-15.046875zm114.597657-310.933594 31.652343 31.652344-68.308593 77.574219-40.910157-40.917969zm-231.355469 323.035156c-8.027344 8.027344-18.699219 12.449219-30.050781 12.449219-11.351563 0-22.023438-4.421875-30.050781-12.449219-8.027344-8.027343-12.449219-18.699219-12.449219-30.050781 0-11.355469 4.421875-22.027344 12.449219-30.054688 8.023437-8.027343 18.699218-12.449218 30.050781-12.449218 11.351562 0 22.023437 4.421875 30.050781 12.449218 8.023438 8.027344 12.445312 18.699219 12.445312 30.054688 0 11.351562-4.417968 22.023438-12.445312 30.050781zm0 0"/><path d="m63.804688 334.816406c-10.121094 10.121094-10.121094 26.59375 0 36.714844l76.582031 76.585938c5.0625 5.058593 11.710937 7.589843 18.355469 7.589843 6.648437 0 13.296874-2.53125 18.359374-7.59375 10.121094-10.121093 10.121094-26.589843 0-36.714843l-76.582031-76.585938c-4.902343-4.902344-11.421875-7.601562-18.355469-7.601562-6.933593 0-13.453124 2.703124-18.359374 7.605468zm102.6875 87.191406c4.273437 4.273438 4.273437 11.226563 0 15.5-4.269532 4.273438-11.222657 4.277344-15.5 0l-76.578126-76.582031c-4.273437-4.273437-4.273437-11.230469 0-15.503906 2.066407-2.066406 4.820313-3.210937 7.75-3.210937 2.925782 0 5.679688 1.140624 7.75 3.210937zm0 0"/><path d="m376.996094 158.335938c1.917968 0 3.839844-.730469 5.304687-2.195313 2.925781-2.929687 2.925781-7.679687 0-10.605469l-16-16.003906c-2.929687-2.925781-7.679687-2.925781-10.609375 0-2.929687 2.929688-2.929687 7.679688 0 10.609375l16 16c1.464844 1.464844 3.386719 2.195313 5.304688 2.195313zm0 0"/><path d="m354.828125 180.503906c1.921875 0 3.839844-.730468 5.304687-2.195312 2.929688-2.929688 2.929688-7.679688 0-10.605469l-16-16.003906c-2.929687-2.925781-7.675781-2.925781-10.605468 0-2.929688 2.929687-2.929688 7.679687 0 10.609375l16 16c1.464844 1.464844 3.382812 2.195312 5.300781 2.195312zm0 0"/><path d="m332.664062 202.671875c1.917969 0 3.835938-.730469 5.300782-2.195313 2.929687-2.929687 2.929687-7.679687 0-10.609374l-16-16c-2.929688-2.929688-7.675782-2.929688-10.605469 0-2.929687 2.929687-2.929687 7.679687 0 10.605468l16 16.003906c1.464844 1.464844 3.382813 2.195313 5.304687 2.195313zm0 0"/><path d="m310.496094 224.839844c1.917968 0 3.839844-.730469 5.304687-2.195313 2.929688-2.929687 2.929688-7.679687 0-10.609375l-16-16c-2.929687-2.929687-7.679687-2.929687-10.605469 0-2.929687 2.929688-2.929687 7.679688 0 10.605469l16 16.003906c1.464844 1.464844 3.382813 2.195313 5.300782 2.195313zm0 0"/><path d="m267.027344 218.203125c-2.929688 2.929687-2.929688 7.679687 0 10.609375l16 16c1.464844 1.464844 3.382812 2.195312 5.304687 2.195312 1.917969 0 3.835938-.730468 5.300781-2.195312 2.929688-2.929688 2.929688-7.679688 0-10.609375l-16-16c-2.929687-2.929687-7.675781-2.929687-10.605468 0zm0 0"/><path d="m417.621094 76.542969c-2.929688-2.929688-7.675782-2.929688-10.605469 0-2.929687 2.929687-2.929687 7.675781 0 10.605469 2.929687 2.929687 7.675781 2.929687 10.605469 0 2.929687-2.929688 2.929687-7.675782 0-10.605469zm0 0"/><path d="m435.609375 94.375c-2.929687-2.929688-7.679687-2.929688-10.609375 0-2.925781 2.925781-2.925781 7.675781 0 10.605469 2.929688 2.929687 7.679688 2.929687 10.609375 0 2.925781-2.929688 2.925781-7.679688 0-10.605469zm0 0"/><path d="m440.128906 54c-2.929687-2.929688-7.679687-2.929688-10.605468 0-2.929688 2.929688-2.929688 7.679688 0 10.605469 2.925781 2.929687 7.675781 2.929687 10.605468 0 2.929688-2.925781 2.929688-7.675781 0-10.605469zm0 0"/><path d="m458.128906 71.851562c-2.929687-2.929687-7.679687-2.929687-10.605468 0-2.929688 2.929688-2.929688 7.679688 0 10.605469 2.925781 2.929688 7.675781 2.929688 10.605468 0 2.929688-2.925781 2.929688-7.675781 0-10.605469zm0 0"/><path d="m462.648438 31.480469c-2.929688-2.929688-7.675782-2.929688-10.605469 0-2.929688 2.929687-2.929688 7.675781 0 10.605469 2.929687 2.929687 7.675781 2.929687 10.605469 0 2.929687-2.929688 2.929687-7.675782 0-10.605469zm0 0"/><path d="m480.644531 49.328125c-2.929687-2.929687-7.679687-2.929687-10.605469 0-2.929687 2.925781-2.929687 7.675781 0 10.605469 2.925782 2.929687 7.675782 2.929687 10.605469 0 2.929688-2.929688 2.929688-7.679688 0-10.605469zm0 0"/></svg>