<?xml version="1.0" encoding="iso-8859-1"?>
<!-- Generator: Adobe Illustrator 19.0.0, SVG Export Plug-In . SVG Version: 6.00 Build 0)  -->
<svg version="1.1" id="Capa_1" xmlns="http://www.w3.org/2000/svg" xmlns:xlink="http://www.w3.org/1999/xlink" x="0px" y="0px"
	 viewBox="0 0 512.003 512.003" style="enable-background:new 0 0 512.003 512.003;" xml:space="preserve">
<path style="fill:#C69C6D;" d="M318.588,317.246c4.595-18.269,70.351-18.361,135.282-8.918c12.193,1.773,23.282-7.545,23.303-19.866
	c0-0.08,0-0.16,0-0.24c0-97.642-99.022-176.797-221.172-176.797S34.829,190.58,34.829,288.222s99.022,176.797,221.172,176.797
	c42.806,0,82.77-9.722,116.628-26.553c30.999-15.41,30.877-59.774-0.085-75.259C338.939,346.401,315.606,329.102,318.588,317.246z"
	/>
<path style="fill:#A67C52;" d="M477.1,283.644c-0.015-0.462-0.047-0.92-0.066-1.381c-0.044-1.059-0.085-2.118-0.152-3.172
	c-0.033-0.511-0.083-1.018-0.121-1.527c-0.074-0.999-0.144-2-0.239-2.995c-0.05-0.522-0.118-1.04-0.173-1.561
	c-0.104-0.979-0.204-1.959-0.328-2.933c-0.064-0.503-0.146-1.002-0.215-1.504c-0.137-0.987-0.269-1.975-0.426-2.956
	c-0.077-0.485-0.171-0.966-0.254-1.449c-0.169-0.995-0.335-1.99-0.525-2.979c-0.088-0.457-0.191-0.91-0.283-1.366
	c-0.204-1.01-0.406-2.021-0.632-3.026c-0.096-0.429-0.207-0.853-0.307-1.281c-0.241-1.028-0.48-2.057-0.743-3.079
	c-0.1-0.39-0.214-0.776-0.317-1.165c-0.28-1.054-0.561-2.107-0.865-3.154c-0.106-0.364-0.223-0.724-0.332-1.087
	c-0.319-1.068-0.639-2.135-0.982-3.196c-0.105-0.326-0.222-0.648-0.329-0.973c-0.362-1.093-0.727-2.185-1.115-3.27
	c-0.103-0.287-0.215-0.572-0.319-0.858c-0.407-1.118-0.819-2.234-1.252-3.342c-0.099-0.254-0.207-0.505-0.308-0.759
	c-0.452-1.137-0.91-2.271-1.39-3.397c-0.095-0.223-0.197-0.443-0.293-0.666c-0.498-1.154-1.003-2.304-1.53-3.447
	c-0.087-0.19-0.181-0.377-0.27-0.567c-0.545-1.171-1.1-2.338-1.675-3.496c-0.082-0.165-0.169-0.328-0.252-0.493
	c-0.591-1.181-1.193-2.357-1.815-3.525c-0.072-0.135-0.148-0.268-0.221-0.403c-0.641-1.195-1.294-2.385-1.966-3.566
	c-0.059-0.103-0.121-0.205-0.18-0.308c-0.692-1.209-1.398-2.413-2.123-3.608c-0.049-0.081-0.102-0.162-0.151-0.243
	c-0.74-1.215-1.495-2.423-2.269-3.622c-0.036-0.055-0.073-0.11-0.109-0.165c-0.791-1.222-1.598-2.438-2.423-3.643
	c-0.026-0.038-0.053-0.075-0.079-0.112c-0.838-1.222-1.692-2.436-2.565-3.64c-0.016-0.022-0.033-0.045-0.05-0.067
	c-0.884-1.219-1.786-2.429-2.705-3.629c-0.005-0.006-0.01-0.013-0.015-0.019c-9.345-12.195-20.488-23.414-33.134-33.423l0,0
	c21.2,27.13,33.465,59.181,33.465,93.526c0,0.08,0,0.16,0,0.24c-0.021,12.321-11.11,21.639-23.303,19.866
	c-64.931-9.443-132.31-9.683-135.282,8.919c-6.817,42.667,47.738,81.333,74.684,98.256c-3.42,9.447-10.294,17.819-20.643,22.964
	c-33.858,16.831-73.822,26.553-116.628,26.553c-60.678,0-115.641-19.538-155.602-51.166c8.528,10.913,18.504,21.029,29.712,30.176
	c0.044,0.036,0.088,0.072,0.132,0.108c4.742,3.864,9.706,7.553,14.872,11.057c0.129,0.088,0.258,0.175,0.388,0.262
	c5.122,3.458,10.443,6.733,15.947,9.813c0.192,0.107,0.385,0.213,0.577,0.32c1.645,0.914,3.306,1.811,4.983,2.69
	c0.208,0.109,0.415,0.22,0.623,0.328c3.715,1.933,7.507,3.78,11.373,5.536c0.221,0.1,0.444,0.198,0.666,0.298
	c1.668,0.752,3.349,1.485,5.043,2.203c0.361,0.153,0.723,0.306,1.085,0.458c1.778,0.743,3.568,1.469,5.373,2.174
	c0.14,0.055,0.278,0.112,0.419,0.166c2.014,0.782,4.045,1.54,6.092,2.275c0.177,0.063,0.356,0.123,0.533,0.186
	c1.776,0.632,3.565,1.244,5.365,1.84c0.47,0.155,0.941,0.308,1.412,0.461c1.623,0.527,3.256,1.038,4.898,1.534
	c0.414,0.125,0.826,0.254,1.241,0.377c4.059,1.205,8.175,2.315,12.342,3.332c0.533,0.13,1.069,0.254,1.604,0.381
	c1.576,0.374,3.16,0.734,4.751,1.081c0.578,0.126,1.156,0.253,1.736,0.375c1.861,0.392,3.731,0.767,5.611,1.121
	c0.234,0.044,0.465,0.093,0.7,0.136c2.12,0.394,4.253,0.759,6.396,1.103c0.534,0.086,1.072,0.164,1.608,0.246
	c1.616,0.25,3.237,0.487,4.865,0.708c0.673,0.092,1.347,0.181,2.023,0.268c1.642,0.211,3.292,0.405,4.946,0.587
	c0.537,0.059,1.072,0.124,1.611,0.18c2.167,0.225,4.343,0.427,6.529,0.602c0.425,0.034,0.853,0.059,1.278,0.091
	c1.772,0.133,3.55,0.251,5.335,0.351c0.709,0.04,1.419,0.074,2.13,0.108c1.589,0.077,3.184,0.139,4.782,0.188
	c0.676,0.021,1.35,0.045,2.028,0.062c2.226,0.053,4.457,0.088,6.699,0.088c42.806,0,82.77-9.722,116.628-26.553
	c0.932-0.463,1.832-0.956,2.708-1.469c0.292-0.172,0.566-0.359,0.852-0.535c0.571-0.353,1.142-0.707,1.688-1.081
	c0.326-0.223,0.634-0.46,0.951-0.69c0.481-0.35,0.961-0.699,1.422-1.065c0.323-0.257,0.631-0.524,0.944-0.788
	c0.427-0.36,0.852-0.722,1.26-1.096c0.309-0.283,0.606-0.573,0.904-0.863c0.385-0.375,0.764-0.752,1.131-1.139
	c0.29-0.306,0.572-0.616,0.851-0.929c0.347-0.389,0.686-0.783,1.016-1.183c0.269-0.326,0.533-0.655,0.791-0.987
	c0.311-0.402,0.61-0.809,0.905-1.22c0.247-0.346,0.494-0.692,0.73-1.045c0.275-0.412,0.536-0.83,0.796-1.25
	c0.225-0.365,0.453-0.729,0.667-1.1c0.24-0.417,0.463-0.842,0.687-1.267c0.204-0.386,0.414-0.769,0.605-1.16
	c0.201-0.412,0.383-0.831,0.57-1.249c0.186-0.415,0.381-0.827,0.553-1.248c0.149-0.364,0.276-0.735,0.415-1.102
	c0.717-1.904,1.297-3.85,1.73-5.827c0.047-0.214,0.104-0.425,0.147-0.64c0.126-0.621,0.226-1.247,0.325-1.873
	c0.039-0.248,0.086-0.494,0.12-0.743c0.087-0.627,0.152-1.256,0.211-1.886c0.023-0.246,0.052-0.491,0.071-0.738
	c0.049-0.641,0.079-1.284,0.1-1.926c0.008-0.232,0.017-0.463,0.021-0.695c0.011-0.661,0.004-1.322-0.015-1.983
	c-0.006-0.207-0.012-0.414-0.021-0.621c-0.03-0.687-0.076-1.372-0.139-2.057c-0.015-0.17-0.033-0.339-0.05-0.508
	c-0.075-0.721-0.164-1.441-0.276-2.159c-0.018-0.114-0.038-0.228-0.057-0.342c-0.126-0.77-0.267-1.538-0.435-2.301
	c-0.007-0.03-0.014-0.059-0.021-0.089c-2.05-9.231-7.173-17.869-15.364-24.102c-2.098-1.597-4.375-3.053-6.876-4.303
	c-33.605-16.807-56.938-34.105-53.956-45.961c4.595-18.269,70.351-18.361,135.282-8.919c12.193,1.773,23.282-7.545,23.303-19.866
	c0-0.08,0-0.16,0-0.24C477.173,286.692,477.148,285.166,477.1,283.644z"/>
<circle style="fill:#F33939;" cx="197.401" cy="174.121" r="26.616"/>
<circle style="fill:#73CC00;" cx="126.741" cy="232.551" r="26.616"/>
<circle style="fill:#F4D451;" cx="113.211" cy="328.141" r="26.616"/>
<path style="fill:#FF6D3A;" d="M353.767,182.501l-51.229-28.969c0,0-67.122,78.842-106.528,172.438
	c-19.448,46.193-43.286,106.943-62.444,156.631c-7.418,19.241,12.627,30.576,25.292,14.302
	c32.706-42.026,72.48-93.765,102.041-134.239C320.798,280.657,353.767,182.501,353.767,182.501z"/>
<path style="fill:#FED9A8;" d="M416.093,122.441c15.34-31.666,6.826-95.925,4.291-112.451c-0.312-2.036-2.441-3.24-4.347-2.458
	c-15.469,6.345-74.923,32.168-94.153,61.635c-15.64,23.965-6.391,63.651-6.391,63.651l49.347,27.906
	C364.841,160.723,403.617,148.195,416.093,122.441z"/>
<path style="fill:#F4C892;" d="M420.384,9.99c-0.166-1.085-0.855-1.92-1.744-2.358c-0.148,0.408-34.177,94.209-79.686,138.453
	l25.887,14.639c0,0,38.776-12.528,51.252-38.282C431.433,90.775,422.919,26.517,420.384,9.99z"/>
<path style="fill:#FF4C4C;" d="M422.533,100.969c5.825-33.285-0.104-77.652-2.148-90.979c-0.312-2.036-2.441-3.24-4.347-2.458
	c-11.598,4.758-47.924,20.465-73.482,40.448c9.101,5.147,1.32,22.68,14.975,26.844c13.654,4.164,17.714-15.597,27.545,0.99
	c9.831,16.588,4.507,28.519,22.018,27.749C412.445,103.328,417.746,102.292,422.533,100.969z"/>
<path style="fill:#F33939;" d="M420.384,9.99c-0.167-1.085-0.855-1.92-1.745-2.358c-0.089,0.246-12.405,34.189-32.091,70.853
	c7.837,15.179,3.989,25.806,20.545,25.078c5.351-0.235,10.652-1.271,15.439-2.594C428.358,67.684,422.429,23.318,420.384,9.99z"/>
<path style="fill:#ED5729;" d="M353.767,182.501l-26.694-15.095L139.83,503.64c0.006,0.003,0.013,0.005,0.019,0.007l2.67,0.813
	c5.164,0.987,11.328-1.117,16.34-7.557c32.706-42.026,72.48-93.765,102.041-134.239
	C320.798,280.657,353.767,182.501,353.767,182.501z"/>
<path style="fill:#FFB123;" d="M357.723,188.461l-62.33-35.247c-3.778-2.137-5.109-6.932-2.973-10.71l7.655-13.537
	c2.137-3.778,6.932-5.109,10.71-2.973l62.33,35.247c3.778,2.137,5.109,6.932,2.973,10.71l-7.655,13.537
	C366.296,189.267,361.501,190.598,357.723,188.461z"/>
<path style="fill:#FF901D;" d="M374.69,174.22c-2.137,3.778-6.932,5.109-10.71,2.973l-62.33-35.247
	c-3.424-1.936-4.828-6.053-3.474-9.62l-5.756,10.178c-2.137,3.778-0.806,8.574,2.973,10.71l62.33,35.247
	c3.778,2.137,8.573,0.806,10.71-2.973l7.655-13.537c0.201-0.355,0.361-0.721,0.501-1.091L374.69,174.22z"/>
<path d="M130.865,434.154c2.048-3.464,0.901-7.932-2.563-9.981c-54.773-32.391-86.186-81.943-86.186-135.95
	c0-93.468,95.948-169.511,213.885-169.511c9.964,0,19.981,0.549,29.773,1.631c4.001,0.437,7.6-2.442,8.043-6.441
	c0.442-4-2.442-7.601-6.441-8.043c-10.321-1.141-20.877-1.72-31.374-1.72c-60.724,0-117.881,18.956-160.941,53.377
	c-43.539,34.804-67.517,81.222-67.517,130.706c0,29.515,8.861,58.855,25.624,84.848c16.095,24.957,39.512,46.965,67.717,63.646
	c1.164,0.688,2.441,1.016,3.702,1.016C127.077,437.732,129.505,436.453,130.865,434.154z"/>
<path d="M417.473,157.942c-3.136-2.524-7.722-2.026-10.245,1.109s-2.026,7.722,1.109,10.244
	c39.69,31.935,61.548,74.171,61.548,118.927v0.227c-0.006,3.73-1.579,7.14-4.428,9.6c-2.897,2.502-6.738,3.621-10.54,3.067
	c-34.263-4.982-66.807-7.113-91.642-6.001c-32.18,1.442-48.625,7.909-51.755,20.352c-2.201,8.751,2.937,18.087,15.709,28.54
	c9.762,7.99,23.911,16.642,42.054,25.716c12.071,6.037,19.267,17.722,19.251,31.259c-0.016,13.432-7.175,25.005-19.15,30.959
	c-33.942,16.872-73.149,25.791-113.384,25.791c-12.659,0-25.343-0.884-37.699-2.628c-3.99-0.567-7.671,2.212-8.233,6.196
	c-0.563,3.985,2.212,7.671,6.196,8.233c13.029,1.839,26.398,2.772,39.736,2.772c42.474,0,83.925-9.445,119.871-27.315
	c16.777-8.34,27.214-25.196,27.236-43.99c0.023-18.896-10.44-35.875-27.305-44.31c-43.232-21.621-50.879-34.767-50.149-37.667
	c0.54-2.147,8.469-8.014,38.275-9.349c23.939-1.073,55.51,1.009,88.892,5.864c7.987,1.16,16.064-1.193,22.162-6.459
	c6.008-5.189,9.462-12.699,9.476-20.617v-0.24C484.459,238.966,460.67,192.698,417.473,157.942z"/>
<path d="M356.672,195.944c1.582,0.547,3.232,0.828,4.897,0.828c1.36,0,2.728-0.185,4.073-0.558c3.898-1.082,7.142-3.618,9.133-7.139
	l7.655-13.537c1.992-3.522,2.493-7.608,1.411-11.506c-0.285-1.026-0.676-2.003-1.154-2.928c13.367-6.61,31.626-18.276,39.963-35.487
	c3.202-6.609,5.437-14.457,6.946-22.937c0.037-0.152,0.086-0.299,0.114-0.455c1.616-9.232,2.353-19.271,2.535-29.276
	c0.003-0.175,0.007-0.351,0.01-0.526c0.009-0.53,0.017-1.059,0.023-1.588c0.289-24.773-2.749-48.923-4.458-60.396
	c-0.025-0.167-0.049-0.327-0.073-0.487c-0.027-0.181-0.053-0.354-0.08-0.528c-0.027-0.177-0.056-0.372-0.081-0.539
	c-0.206-1.344-0.673-2.599-1.34-3.731c-0.917-1.558-2.224-2.873-3.851-3.793c-2.809-1.588-6.135-1.796-9.123-0.571
	c-0.344,0.141-0.71,0.292-1.085,0.447c-0.014,0.006-0.029,0.012-0.043,0.018c-9.818,4.067-29.894,12.892-49.749,24.646
	c-0.099,0.058-0.197,0.116-0.296,0.175c-0.594,0.353-1.188,0.708-1.781,1.066c-7.735,4.649-15.376,9.722-22.251,15.098
	c-0.169,0.132-0.323,0.279-0.478,0.424c-8.934,7.041-16.655,14.626-21.807,22.52c-10.454,16.019-11.038,37.687-9.812,52.55
	c-4.937,0.317-9.626,3.029-12.238,7.646l-7.655,13.537c-3.644,6.445-2.028,14.447,3.449,19.045
	c-12.126,15.238-37.008,48.01-61.694,89.617c-2.053,3.461-0.912,7.931,2.548,9.985c3.463,2.054,7.931,0.912,9.985-2.548
	c25.174-42.429,50.52-75.459,61.84-89.578l8.814,4.984l32.717,18.501c-9.397,25.441-40.175,102.98-88.72,169.445
	c-30.573,41.859-72.292,96.008-101.907,134.061c-3.424,4.4-7.679,6.086-10.84,4.3c-3.161-1.788-3.908-6.304-1.902-11.505
	c17.348-44.994,42.249-108.656,62.361-156.425c4.716-11.202,10.096-22.79,15.99-34.44c1.816-3.591,0.378-7.974-3.212-9.791
	c-3.59-1.817-7.974-0.378-9.791,3.212c-6.047,11.952-11.57,23.85-16.417,35.364c-20.183,47.938-45.142,111.749-62.527,156.837
	c-5.406,14.022,0.287,24.886,8.327,29.433c2.891,1.635,6.324,2.589,9.967,2.589c6.488,0,13.636-3.027,19.547-10.623
	c29.677-38.134,71.493-92.409,102.175-134.416C315.187,300.692,346.264,223.8,356.672,195.944z M363.247,42.432
	c0.642-0.404,1.286-0.805,1.932-1.204c0.065-0.04,0.129-0.08,0.194-0.12c18.396-11.333,38.009-20.276,48.569-24.796
	c1.513,10.946,3.776,30.722,3.802,51.111c0,0.162,0,0.324-0.001,0.486c0,0.7-0.003,1.401-0.009,2.102
	c-0.084,8.828-0.604,17.307-1.668,25.041c-3.268,0.69-6.38,1.103-9.292,1.232c-1.727,0.075-4.769,0.058-5.712-0.913
	c-0.965-0.994-1.852-3.825-2.793-6.822c-1.413-4.506-3.171-10.114-6.925-16.449c-2.162-3.648-5.684-8.652-11.284-9.985
	c-0.982-0.233-1.927-0.336-2.835-0.336c-4.158,0-7.539,2.16-10.133,3.817c-3.48,2.224-5.021,2.995-7.436,2.259
	c-2.684-0.818-3.383-2.252-4.401-9.022c-0.432-2.871-0.946-6.29-2.327-9.481C356.204,47.012,359.656,44.7,363.247,42.432z
	 M327.987,73.149c3.033-4.648,7.342-9.348,12.568-14.005c0.106,0.637,0.202,1.27,0.289,1.855c0.963,6.41,2.576,17.139,14.561,20.794
	c9.067,2.765,15.619-1.417,19.532-3.918c0.591-0.378,1.318-0.842,1.899-1.171c0.436,0.489,1.097,1.351,1.971,2.824
	c2.892,4.879,4.308,9.395,5.557,13.38c2.52,8.038,5.635,17.972,21.31,17.972c0.563,0,1.144-0.013,1.74-0.039
	c1.783-0.078,3.616-0.245,5.486-0.485c-0.959,3.249-2.073,6.241-3.365,8.908c-7.988,16.489-29.592,27.379-39.732,31.733
	l-48.534-27.446C319.776,112.619,317.974,88.491,327.987,73.149z M330.145,164.495l-31.165-17.624
	c-0.276-0.156-0.372-0.507-0.217-0.781l7.655-13.536c0.105-0.186,0.3-0.291,0.5-0.291c0.096,0,0.193,0.024,0.281,0.074l62.33,35.247
	c0.051,0.029,0.207,0.117,0.27,0.346c0.064,0.229-0.025,0.384-0.054,0.435l-7.655,13.537c-0.029,0.051-0.117,0.207-0.346,0.27
	s-0.384-0.025-0.435-0.054l0,0l-5.034-2.847c-0.001-0.001-0.002-0.002-0.004-0.002L330.145,164.495z"/>
<path d="M163.499,174.123c0,18.694,15.208,33.902,33.902,33.902s33.902-15.208,33.902-33.902s-15.208-33.902-33.902-33.902
	S163.499,155.429,163.499,174.123z M216.731,174.123c0,10.659-8.671,19.33-19.33,19.33s-19.33-8.671-19.33-19.33
	s8.671-19.33,19.33-19.33S216.731,163.464,216.731,174.123z"/>
<path d="M160.64,232.55c0-18.694-15.208-33.903-33.902-33.903s-33.902,15.209-33.902,33.903s15.208,33.902,33.902,33.902
	S160.64,251.244,160.64,232.55z M126.738,251.88c-10.659,0-19.33-8.671-19.33-19.33s8.671-19.33,19.33-19.33
	s19.33,8.671,19.33,19.33C146.067,243.209,137.396,251.88,126.738,251.88z"/>
<path d="M79.311,328.146c0,18.694,15.209,33.902,33.903,33.902s33.902-15.208,33.902-33.902s-15.208-33.902-33.902-33.902
	S79.311,309.452,79.311,328.146z M132.543,328.146c0,10.659-8.671,19.33-19.33,19.33s-19.33-8.671-19.33-19.33
	s8.671-19.33,19.33-19.33S132.543,317.488,132.543,328.146z"/>
<g>
</g>
<g>
</g>
<g>
</g>
<g>
</g>
<g>
</g>
<g>
</g>
<g>
</g>
<g>
</g>
<g>
</g>
<g>
</g>
<g>
</g>
<g>
</g>
<g>
</g>
<g>
</g>
<g>
</g>
</svg>
