<?xml version="1.0" encoding="iso-8859-1"?>
<!-- Generator: Adobe Illustrator 19.0.0, SVG Export Plug-In . SVG Version: 6.00 Build 0)  -->
<svg version="1.1" id="Capa_1" xmlns="http://www.w3.org/2000/svg" xmlns:xlink="http://www.w3.org/1999/xlink" x="0px" y="0px"
	 viewBox="0 0 511.998 511.998" style="enable-background:new 0 0 511.998 511.998;" xml:space="preserve">
<ellipse transform="matrix(-0.2588 -0.9659 0.9659 -0.2588 185.4921 422.3275)" style="fill:#FF983B;" cx="254.78" cy="139.996" rx="53.328" ry="169.995"/>
<path style="fill:#B66652;" d="M150.245,138.34v74.878c0,42.561,33.869,77.188,76.122,78.459V135.925L150.245,138.34z"/>
<path style="fill:#81493B;" d="M226.367,135.925v155.752c0.798,0.024,1.593,0.061,2.397,0.061h58.889
	c43.365,0,78.519-35.154,78.519-78.519V131.49L226.367,135.925z"/>
<path style="fill:#FFC98C;" d="M210.659,251.656c-5.133-0.002-10.125,2.633-12.914,7.385c-0.065,0.108-6.62,10.888-17.919,18.433
	c-13.577,9.067-27.801,9.469-43.483,1.229c-7.334-3.854-16.403-1.032-20.256,6.301c-3.854,7.333-1.033,16.402,6.301,20.256
	c11.764,6.181,23.745,9.26,35.477,9.26c13.846,0,27.345-4.292,39.707-12.834c7.307-5.05,13.101-10.769,17.362-15.686h6.027v-34.339
	L210.659,251.656z"/>
<g>
	<path style="fill:#F7A16E;" d="M395.931,285.004c-3.853-7.333-12.92-10.154-20.256-6.301c-15.682,8.24-29.906,7.838-43.483-1.229
		c-11.153-7.448-17.683-18.045-17.914-18.423c-2.799-4.722-7.788-7.352-12.912-7.354l-80.406-0.036V286h76.123
		c4.262,4.917,10.055,10.636,17.362,15.686c12.363,8.543,25.859,12.834,39.707,12.834c11.731,0,23.715-3.079,35.477-9.26
		C396.964,301.407,399.785,292.338,395.931,285.004z"/>
	<polygon style="fill:#F7A16E;" points="255.454,410.252 255.454,497 285.454,497 285.454,382.755 	"/>
</g>
<polygon style="fill:#FFC98C;" points="255.454,497 255.454,410.252 225.454,380.252 225.454,497 "/>
<path style="fill:#FF7C8B;" d="M232.134,477.015c-12.193,0.434-21.679,10.824-21.679,23.025l0,0c0,2.464,1.997,4.461,4.461,4.461
	h36.079c2.464,0,4.461-1.997,4.461-4.461v-0.54C255.454,486.801,244.934,476.559,232.134,477.015z"/>
<path style="fill:#EC4B62;" d="M277.134,477.015c-12.193,0.434-21.679,10.824-21.679,23.025l0,0c0,2.464,1.997,4.461,4.461,4.461
	h36.079c2.464,0,4.461-1.997,4.461-4.461v-0.54C300.454,486.801,289.934,476.559,277.134,477.015z"/>
<rect x="214.359" y="250.5" style="fill:#FFCF5D;" width="15" height="45.504"/>
<rect x="280.169" y="250.5" style="fill:#FFB545;" width="15" height="45.504"/>
<path style="fill:#FFCF5D;" d="M283.143,276c-0.132,0.001-0.264,0.002-0.397,0.005c-4.622,0.088-12.921,3.496-16.536,5.863
	c-6.511,4.264-14.999,4.264-21.511,0c-3.614-2.367-10.914-5.775-15.536-5.863c-0.133-0.002-0.266-0.004-0.398-0.005
	c-11.498-0.072-20.811,9.338-20.811,20.836v23.412l-25.063,95.444c-2.497,9.509,4.676,18.81,14.508,18.81h116.11
	c9.832,0,17.005-9.3,14.508-18.81l-25.063-95.444v-24.412C302.954,284.89,294.089,275.931,283.143,276z"/>
<path style="fill:#FF983B;" d="M328.017,415.693l-25.063-95.444v-24.412c0-10.946-8.865-19.905-19.812-19.836
	c-0.132,0.001-0.264,0.002-0.397,0.005c-2.597,0.049-6.355,1.147-9.791,2.52v41.724c0,2.571,0.331,5.132,0.983,7.619l20.124,76.635
	H185.83l-2.939,11.19c-2.497,9.51,4.677,18.81,14.508,18.81h116.11C323.341,434.502,330.514,425.202,328.017,415.693z"/>
<path style="fill:#FFC98C;" d="M303.064,77.749c-13.994-9.957-30.249-15.998-47.588-15.998c-47.301,0-86.52,44.956-93.8,91.72
	c-2.681-1.128-5.63-1.752-8.722-1.752c-12.426,0-22.5,10.074-22.5,22.5s10.074,22.5,22.5,22.5c4.034,0,7.816-1.067,11.09-2.926
	c2.748,9.39,6.967,18.168,12.335,26.191c2.631,3.933,17.707,15.729,39.198,20.227l51.212,10.717l45.959-45.072
	C350.058,169.268,345.736,108.11,303.064,77.749z"/>
<path style="fill:#F7A16E;" d="M269.932,260.652c37.948-5.72,68.559-33.576,77.737-69.84c0.126-0.497,0.239-0.998,0.356-1.497
	c2.843,1.553,6.104,2.437,9.571,2.437c11.046,0,20-8.955,20-20c0-11.046-8.954-20-20-20c-2.922,0-5.689,0.641-8.191,1.767
	c-0.111-0.757-0.228-1.512-0.355-2.264c-5.037-29.67-21.492-56.699-45.986-73.505c13.955,19.248,21.004,41.231,21.004,64.24
	c0,51.749-42.543,93.7-95.022,93.7c-19.482,0-37.592-5.785-52.667-15.703c14.491,21.418,37.69,36.612,64.607,40.675
	C250.527,262.101,260.391,262.09,269.932,260.652z"/>
<path style="fill:#81493B;" d="M364.77,123.677c-6.968-18.756-18.163-36.49-32.518-50.828c-27.052,1.668-58.438,6.837-91.269,15.633
	c-4.948,1.326-9.816,2.713-14.616,4.143v8.832c31.187,32.078,74.782,52.061,123.038,52.062c0.38-0.16,0.773-0.412,1.159-0.55
	C362.643,148.662,369.236,135.698,364.77,123.677z"/>
<path style="fill:#B66652;" d="M155.921,119.692c-1.885,4.564-3.588,9.315-5.056,14.302c-2.328,7.909,2.104,16.042,9.794,19.014
	c0.342,0.132,0.681,0.313,1.017,0.464c31.679-0.001,58.154-22.299,64.691-52.015v-8.832
	C200.097,100.454,176.153,109.763,155.921,119.692z"/>
<path style="fill:#FFCF5D;" d="M246.678,7.5c-25.116,0-48.875,11.613-66.902,32.701c-17.984,21.037-28.34,49.232-29.161,79.391
	l-0.076,2.8c24.888-12.77,55.976-24.674,90.444-33.91c34.234-9.173,66.898-14.401,94.714-15.828l-7.465-14.291
	C310.296,26.514,278.556,7.5,246.678,7.5z"/>
<path style="fill:#FF983B;" d="M328.232,58.363C310.296,26.514,278.555,7.5,246.678,7.5c-6.262,0-12.44,0.723-18.466,2.134
	c25.199,5.781,48.583,23.092,63.021,48.73l8.366,17.934c12.684-1.845,24.797-3.063,36.099-3.643L328.232,58.363z"/>
<path style="fill:#FF5368;" d="M328.232,58.363c-6.205-11.019-14.065-20.499-23.009-28.189c-10.325,1.235-20.944,2.876-31.73,4.865
	l25.689,41.319c12.835-1.879,25.089-3.118,36.514-3.704L328.232,58.363z"/>
<g>
	<path style="fill:#FF7C8B;" d="M273.493,35.039c-39.285,7.245-77.786,18.754-111,32.411c-7.258,15.84-11.374,33.616-11.878,52.142
		l-0.076,2.8c43.687-22.416,99.857-38.892,148.643-46.034l-7.951-17.995C286.277,49.565,280.268,41.747,273.493,35.039z"/>
	<path style="fill:#FF7C8B;" d="M151.754,428.901H63.621c-4.489,0-7.973-3.918-7.449-8.376l8.236-70.001
		c0.444-3.777,3.645-6.624,7.449-6.624h71.661c3.803,0,7.004,2.847,7.449,6.624l8.236,70.001
		C159.727,424.983,156.243,428.901,151.754,428.901z"/>
</g>
<path style="fill:#EC4B62;" d="M159.202,420.524l-8.236-70c-0.444-3.777-3.646-6.624-7.449-6.624h-23.538l6.471,55.001H58.716
	l-2.544,21.623c-0.525,4.459,2.959,8.377,7.449,8.377h88.133C156.243,428.901,159.727,424.983,159.202,420.524z"/>
<path style="fill:#FFCF5D;" d="M448.378,428.901h-88.133c-4.489,0-7.973-3.918-7.449-8.376l8.236-70.001
	c0.444-3.777,3.645-6.624,7.449-6.624h71.661c3.803,0,7.004,2.847,7.449,6.624l8.236,70.001
	C456.351,424.983,452.867,428.901,448.378,428.901z"/>
<path style="fill:#FF983B;" d="M455.826,420.524l-8.236-70c-0.444-3.777-3.646-6.624-7.449-6.624h-23.538l6.471,55.001h-67.735
	l-2.544,21.623c-0.525,4.459,2.959,8.377,7.449,8.377h88.133C452.867,428.901,456.351,424.983,455.826,420.524z"/>
<circle cx="220.959" cy="175.15" r="7.5"/>
<circle cx="288.149" cy="175.15" r="7.5"/>
<path d="M255.454,193.574c6.01,0,11.66-2.341,15.91-6.59c2.929-2.929,2.929-7.678-0.001-10.607c-2.928-2.929-7.677-2.928-10.606,0
	c-1.416,1.417-3.3,2.197-5.303,2.197s-3.887-0.78-5.303-2.197c-2.929-2.928-7.678-2.929-10.606,0
	c-2.93,2.929-2.93,7.678-0.001,10.607C243.794,191.233,249.445,193.574,255.454,193.574z"/>
<path d="M463.275,419.648l-8.235-70c-0.888-7.552-7.293-13.248-14.897-13.248h-8.331v-27.501c0-15.761-13.329-28.46-29.271-27.437
	c-5.787-10.942-19.39-15.157-30.354-9.398c-9.293,4.882-17.675,6.178-25.746,3.914c17.229-16.152,27.231-38.833,27.231-62.76
	v-19.175c6.914-5,11.425-13.126,11.425-22.291c0-6.33-2.156-12.163-5.764-16.816c35.211-21.084,51.82-42.511,46.907-60.869
	c-0.001-0.003-0.001-0.006-0.002-0.009c-7.468-27.872-57.311-30.143-86.104-29.107c-0.105-0.202-5.258-10.069-5.368-10.268
	C315.8,21.004,281.841,0,246.678,0c-56.246,0-101.001,52.791-103.495,117.762c-25.441,13.509-67.301,40.361-59.848,68.177
	c4.454,16.621,24.947,26.52,59.432,28.803c0.395,23.031,9.726,44.369,26.053,60.141c-9.07,3.656-18.449,2.719-28.99-2.819
	c-10.99-5.776-24.551-1.574-30.353,9.4c-15.968-1.036-29.29,11.685-29.29,27.435V336.4h-8.331c-7.604,0-14.009,5.695-14.897,13.247
	l-8.236,70.001c-0.5,4.25,0.845,8.522,3.688,11.72c2.844,3.198,6.929,5.032,11.209,5.032h88.133c4.28,0,8.365-1.834,11.209-5.032
	s4.188-7.47,3.688-11.721l-8.236-70c-0.889-7.552-7.293-13.248-14.897-13.248h-8.331v-17.794c22.03,6.632,44.814,3.754,65.267-9.83
	v10.504l-24.816,94.508c-1.786,6.799-0.347,13.89,3.946,19.456s10.787,8.758,17.816,8.758h20.555v31.613
	c-9.14,5.394-15,15.42-15,26.423c0,6.595,5.366,11.961,11.961,11.961c15.824,0,64.721,0,81.078,0
	c6.596,0,11.961-5.366,11.961-11.961V499.5c0-10.821-5.859-20.664-15-25.956v-31.542h20.555c7.029,0,13.522-3.192,17.815-8.758
	c4.294-5.566,5.731-12.658,3.946-19.457l-24.816-94.508v-11.243c20.776,14.247,43.997,17.301,66.357,10.575V336.4h-8.331
	c-7.604,0-14.009,5.695-14.896,13.247l-8.236,70.001c-0.5,4.25,0.844,8.522,3.688,11.721c2.844,3.198,6.929,5.032,11.208,5.032
	h88.134c4.279,0,8.364-1.834,11.208-5.032C462.431,428.171,463.775,423.899,463.275,419.648z M391.811,312.564
	c7.308-3.704,11.464-9.082,12.898-16.145c6.708,0.213,12.102,5.722,12.102,12.48V336.4h-25V312.564z M358.672,213.219
	c0,21.424-9.72,41.642-26.233,55.086c-7.369-6.089-11.702-13.067-11.709-13.078c-1.242-2.096-2.808-3.944-4.609-5.503
	c17.204-12.426,30.326-30.063,37.025-50.836c1.981,0.325,3.745,0.405,5.525,0.336v13.995H358.672z M411.75,97.94
	C411.75,97.941,411.75,97.941,411.75,97.94c2.218,8.284-7.276,24.466-40.069,44.097c2.603-6.753,2.664-14.122,0.119-20.972
	c-5.541-14.915-13.499-28.954-23.343-41.305C365.254,79.617,407.4,81.709,411.75,97.94z M357.739,126.289
	c1.379,3.711,1.216,7.733-0.458,11.324c-1.803,3.866-5.083,6.811-9.232,8.291c-0.099,0.035-0.194,0.071-0.287,0.107
	c-43.042-0.419-83.309-17.285-113.895-47.651v-0.12c2.998-0.859,6.016-1.698,9.058-2.513c30.314-8.123,59.988-13.287,86.366-15.169
	C341.613,93.529,351.417,109.271,357.739,126.289z M246.678,15c13.251,0,26.544,3.629,38.691,10.401
	c-36.646,5.846-72.842,15.398-105.902,27.438C195.484,30.086,219.299,15,246.678,15z M168.125,73.254
	c43.274-17.484,91.405-29.709,134.648-35.22c9.447,8.706,15.535,17.533,20.961,27.919c-53.727,4.503-116.713,21.451-164.982,44.049
	C160.065,97.175,163.244,84.666,168.125,73.254z M158.06,136.112c1.072-3.643,2.341-7.322,3.766-10.974
	c16.884-8.119,35.988-15.627,56.437-22.17c-6.869,24.612-29.4,42.302-55.052,42.984C159.102,144.283,156.891,140.082,158.06,136.112
	z M97.824,182.057c-4.301-16.051,30.424-38.687,45.188-47.09c-0.549,3.653-0.191,7.277,0.947,10.633
	c-12.16,3.831-21.004,15.211-21.004,28.62c0,10.352,5.271,19.496,13.27,24.89C110.824,196.311,99.638,188.829,97.824,182.057z
	 M137.954,174.22c0-8.271,6.729-15,15-15c4.844,0,5.745,1.8,8.842,1.749c16.86-0.028,33.331-5.901,46.393-16.549
	c9.57-7.801,17.021-17.907,21.682-29.205c33.852,30.461,77.133,46.171,119.598,45.8c3.027-0.024,3.896-1.764,8.128-1.764
	c6.893,0,12.5,5.607,12.5,12.5s-5.607,12.5-12.5,12.5c-6.093,0-7.438-4.11-12.638-1.782c-3.643,1.631-4.157,4.89-4.561,6.501
	c-7.525,29.733-30.208,52.834-59.368,61.53h-0.863v0.246c-3.691,1.06-7.477,1.904-11.354,2.488
	c-4.096,0.617-6.915,4.438-6.298,8.534c0.618,4.096,4.437,6.916,8.534,6.298c3.089-0.466,6.126-1.079,9.117-1.806v2.45
	c-6.275,0.871-14.176,4.333-18.067,6.881c-4.037,2.645-9.256,2.645-13.293,0c-4.233-2.772-12.89-6.935-19.446-7.083v-2.586
	c3.447,0.897,6.953,1.618,10.504,2.154c4.112,0.618,7.919-2.214,8.536-6.296c0.618-4.096-2.201-7.917-6.296-8.536
	c-24.185-3.65-45.876-17.305-59.493-37.43c-5.083-7.597-8.908-15.715-11.37-24.127c-0.644-2.2-2.258-3.984-4.383-4.845
	c-5.425-2.196-6.73,2.377-13.906,2.377C144.683,189.22,137.954,182.491,137.954,174.22z M157.745,213.219v-9.387
	c0.56-0.091,1.118-0.195,1.671-0.318c2.744,7.161,6.342,14.083,10.751,20.674c6.866,10.148,15.476,18.884,25.306,25.893
	c-1.607,1.47-3.018,3.173-4.153,5.089c-0.26,0.417-3.718,5.868-9.564,11.243C166.429,252.93,157.745,233.85,157.745,213.219z
	 M95.187,308.899c0-6.764,5.404-12.278,12.12-12.481c1.334,6.567,5.435,12.247,11.59,15.481c0.429,0.225,0.859,0.438,1.289,0.655
	V336.4h-25L95.187,308.899L95.187,308.899z M143.518,351.4l8.25,70c0,0-0.004,0-0.014,0H63.621l8.236-70h8.331v12.047
	c0,4.143,3.358,7.5,7.5,7.5s7.5-3.357,7.5-7.5V351.4h25v12.047c0,4.143,3.358,7.5,7.5,7.5c4.142,0,7.5-3.357,7.5-7.5V351.4H143.518z
	 M125.876,298.621c-3.67-1.929-5.078-6.457-3.15-10.128c1.93-3.673,6.465-5.076,10.128-3.15c18.566,9.755,36.611,9.115,53.374-3.201
	c11.3-8.299,17.68-18.794,17.985-19.305c1.353-2.305,3.76-3.681,6.438-3.681c0,0,0.195-0.01,0.198-0.01
	c1.161,0.556,2.33,1.097,3.513,1.61V272.4c-1.986,1.179-3.841,2.611-5.525,4.284c-3.484,3.462-5.952,7.667-7.271,12.258
	C179.007,309.318,152.064,312.382,125.876,298.621z M218.245,497c1.356-7.021,7.22-12.244,14.156-12.49
	c7.519-0.278,14.114,5.16,15.344,12.49H218.245z M247.954,473.561c-4.445-2.586-9.585-4.055-15-4.055v-27.504h15V473.561z
	 M263.253,497c1.359-6.948,7.281-12.246,14.147-12.49c7.603-0.266,14.097,5.136,15.344,12.49H263.253z M262.954,473.56v-31.558h15
	v27.503c-0.362,0-0.724,0.001-1.087,0.014C271.818,469.699,267.078,471.141,262.954,473.56z M320.763,417.598
	c0.595,2.267,0.115,4.63-1.315,6.486c-1.431,1.855-3.596,2.919-5.938,2.919H197.4c-2.343,0-4.507-1.064-5.938-2.919
	s-1.91-4.219-1.315-6.485l25.063-95.444c0.011-0.043,0.015-0.088,0.026-0.132c0.052-0.214,0.094-0.432,0.127-0.652
	c0.012-0.079,0.027-0.157,0.036-0.236c0.034-0.29,0.057-0.584,0.057-0.883c0,0,0,0,0-0.001c0,0,0,0,0-0.001v-23.412
	c0-3.599,1.405-6.978,3.957-9.513c2.483-2.468,5.756-3.824,9.243-3.824c0.028,0,0.056,0,0.084,0l0.283,0.003
	c2.332,0.044,8.063,2.342,11.569,4.638c9.03,5.914,20.699,5.914,29.73,0c3.104-2.032,10.033-4.59,12.563-4.638l0.287-0.003
	c0.033,0,0.063,0,0.097,0c3.205,0,6.231,1.254,8.526,3.535c2.361,2.346,3.661,5.472,3.661,8.802v16.914h-57.5
	c-4.14,0-7.5,3.36-7.5,7.5c0,4.13,3.36,7.5,7.5,7.5h59.216L320.763,417.598z M309.277,287.843c-1.298-4.283-3.645-8.203-6.91-11.448
	c-2.141-2.128-4.573-3.849-7.2-5.14v-9.857c1.733-0.714,3.436-1.484,5.119-2.288c1.155,0.167,5.137-0.288,7.589,3.846
	c0.769,1.26,7.862,12.548,20.157,20.759c0.129,0.086,0.257,0.167,0.402,0.256c15.739,10.326,32.805,10.79,50.728,1.373
	c3.663-1.923,8.206-0.51,10.129,3.15c1.929,3.668,0.521,8.199-3.15,10.128C359.56,312.589,332.087,309.256,309.277,287.843z
	 M448.378,421.401h-88.134l8.236-70h8.331v12.047c0,4.143,3.358,7.5,7.5,7.5s7.5-3.357,7.5-7.5V351.4h25v12.047
	c0,4.143,3.358,7.5,7.5,7.5s7.5-3.357,7.5-7.5V351.4h8.332l8.249,70C448.392,421.4,448.387,421.401,448.378,421.401z"/>
<g>
</g>
<g>
</g>
<g>
</g>
<g>
</g>
<g>
</g>
<g>
</g>
<g>
</g>
<g>
</g>
<g>
</g>
<g>
</g>
<g>
</g>
<g>
</g>
<g>
</g>
<g>
</g>
<g>
</g>
</svg>
