<svg height="512pt" viewBox="0 0 512 512" width="512pt" xmlns="http://www.w3.org/2000/svg"><path d="m350.042969 504.5h-231.402344c-5.800781 0-8.300781-7.199219-3.800781-10.898438l95-76.5h48.902344l95 76.5c4.597656 3.699219 2.097656 10.898438-3.699219 10.898438zm0 0" fill="#dd9666"/><path d="m353.839844 493.601562-95-76.5h-48.898438l-9.300781 7.5 99.199219 79.796876h50.300781c5.699219.101562 8.199219-7.097657 3.699219-10.796876zm0 0" fill="#c97e4b"/><path d="m265.640625 75.199219c0-6.398438 1.902344-12.597657 5.5-17.898438l17.402344-26c4.796875-7.199219 2.796875-16.902343-4.601563-21.5-2.398437-1.5-5.300781-2.300781-8.199218-2.300781h-82.800782c-2.898437 0-5.699218.800781-8.199218 2.300781-7.300782 4.597657-9.402344 14.300781-4.601563 21.5l17.402344 26c3.597656 5.300781 5.5 11.5 5.5 17.898438 0 10.800781-5.402344 20.902343-14.402344 26.800781-27 17.699219-80.5 65.699219-59.597656 159.300781 27.699219 123.300781 31.699219 123.300781 31.699219 123.300781h147.199218s4 0 31.601563-123.300781c20.898437-93.601562-32.601563-141.601562-59.601563-159.300781-8.898437-5.898438-14.300781-16-14.300781-26.800781zm0 0" fill="#465058"/><path d="m280.042969 102c-9-5.898438-14.402344-16-14.402344-26.800781 0-6.398438 1.902344-12.597657 5.5-17.898438l17.402344-26c4.796875-7.199219 2.796875-16.902343-4.601563-21.5-2.398437-1.5-5.300781-2.300781-8.199218-2.300781h-29.300782l-17.898437 37.800781c-11.902344 25-6.703125 55 13.199219 74.199219 26 25 53.800781 70 37.699218 141.898438-27.601562 123.300781-31.601562 123.300781-31.601562 123.300781h60.101562s4 0 31.601563-123.300781c21-93.699219-32.5-141.699219-59.5-159.398438zm0 0" fill="#323e44"/><path d="m442.839844 383.601562h-417c-6.699219 0-12.5 4.699219-13.898438 11.296876l-4.199218 20.203124c-1.800782 8.796876 4.898437 17 13.898437 17h425.5c9 0 15.699219-8.300781 13.902344-17l-4.203125-20.300781c-1.5-6.5-7.199219-11.199219-14-11.199219zm0 0" fill="#ff8c51"/><path d="m460.941406 415.101562-4.199218-20.300781c-1.402344-6.601562-7.199219-11.300781-13.902344-11.300781h-47.597656l10.097656 48.601562h41.703125c9.097656.097657 15.796875-8.203124 13.898437-17zm0 0" fill="#f26e3b"/><path d="m461.242188 231.898438c-33.101563-2.296876-39.800782-6.796876-44.800782-12.796876-2.898437-3.5-6.300781-6.5-10.199218-8.800781l-76.601563-46.5c-7.800781-4.699219-18-2.199219-22.699219 5.597657-4.699218 7.800781-2.199218 18 5.601563 22.703124l30 18.199219c1.597656 1 .898437 3.5-1 3.5h-103.402344c-9 0-16.597656 7-16.898437 16-.300782 9.398438 7.199218 17.199219 16.5 17.199219h-30c-9.300782 0-16.902344 7.699219-16.5 17.199219.300781 9 8 16 16.898437 16h13.902344c-9.101563 0-16.601563 7.402343-16.601563 16.601562 0 9.097657 7.398438 16.597657 16.601563 16.597657h33.699219c-9.101563 0-16.601563 7.402343-16.601563 16.601562 0 9.101562 7.402344 16.601562 16.601563 16.601562h77.800781c23.296875 0 46.5-3.5 68.796875-10.5l58.902344-7.402343zm0 0" fill="#ffe1cc"/><path d="m304.839844 320.601562h-82.796875c-4.101563 0-7.5-3.402343-7.5-7.5 0-4.101562 3.398437-7.5 7.5-7.5h82.796875c4.101562 0 7.5 3.398438 7.5 7.5 0 4.097657-3.296875 7.5-7.5 7.5zm0 0"/><path d="m304.839844 287.5h-96.699219c-4.097656 0-7.5-3.398438-7.5-7.5s3.402344-7.5 7.5-7.5h96.699219c4.101562 0 7.5 3.398438 7.5 7.5s-3.296875 7.5-7.5 7.5zm0 0"/><path d="m304.839844 254.398438h-67.097656c-4.101563 0-7.5-3.398438-7.5-7.5 0-4.097657 3.398437-7.5 7.5-7.5h67.097656c4.101562 0 7.5 3.402343 7.5 7.5 0 4.101562-3.296875 7.5-7.5 7.5zm0 0"/><path d="m333.542969 353.800781h-77.800781c-4.101563 0-7.5-3.402343-7.5-7.5 0-4.101562 3.398437-7.5 7.5-7.5h77.898437c4.101563 0 7.5 3.398438 7.5 7.5 0 4.097657-3.398437 7.5-7.597656 7.5zm0 0"/><path d="m495.242188 338.101562h-30.5c-4.800782 0-8.800782-3.902343-8.800782-8.800781v-96.902343c0-4.796876 3.898438-8.796876 8.800782-8.796876h30.5c4.800781 0 8.800781 3.898438 8.800781 8.796876v96.902343c0 4.898438-3.902344 8.800781-8.800781 8.800781zm0 0" fill="#45748c"/><path d="m456.042969 329.398438c0 4.800781 3.898437 8.800781 8.796875 8.800781h30.5c4.800781 0 8.800781-3.898438 8.800781-8.800781v-50.796876h-48zm0 0" fill="#236575"/><path d="m309.042969 134.398438h-149.402344c-4.097656 0-7.5-3.398438-7.5-7.5 0-4.097657 3.402344-7.5 7.5-7.5h149.402344c4.097656 0 7.5 3.402343 7.5 7.5 0 4.101562-3.300781 7.5-7.5 7.5zm0 0"/><path d="m277.640625 55h-86.398437c-4.101563 0-7.5-3.398438-7.5-7.5s3.398437-7.5 7.5-7.5h86.398437c4.101563 0 7.5 3.398438 7.5 7.5s-3.300781 7.5-7.5 7.5zm0 0"/><path d="m320.839844 168.898438h-121.398438c-4.101562 0-7.5-3.398438-7.5-7.5 0-4.097657 3.398438-7.5 7.5-7.5h121.398438c4.101562 0 7.5 3.402343 7.5 7.5 0 4.101562-3.398438 7.5-7.5 7.5zm0 0"/><path d="m169.441406 168.898438h-32.5c-4.101562 0-7.5-3.398438-7.5-7.5 0-4.097657 3.398438-7.5 7.5-7.5h32.5c4.101563 0 7.5 3.402343 7.5 7.5 0 4.101562-3.398437 7.5-7.5 7.5zm0 0"/><path d="m495.242188 345.601562h-30.5c-9 0-16.300782-7.300781-16.300782-16.300781v-96.902343c0-9 7.300782-16.296876 16.300782-16.296876h30.5c9 0 16.300781 7.296876 16.300781 16.296876v96.902343c0 9-7.300781 16.300781-16.300781 16.300781zm-30.5-114.402343c-.699219 0-1.300782.601562-1.300782 1.300781v96.898438c0 .703124.601563 1.300781 1.300782 1.300781h30.5c.699218 0 1.300781-.597657 1.300781-1.300781v-96.898438c0-.699219-.601563-1.300781-1.300781-1.300781zm0 0"/><path d="m333.542969 353.800781h-77.800781c-13.300782 0-24.101563-10.800781-24.101563-24.101562 0-3.199219.601563-6.300781 1.800781-9.097657h-11.398437c-13.300781 0-24.101563-10.800781-24.101563-24.101562 0-3.699219.800782-7.199219 2.300782-10.300781-9.402344-3.097657-16.199219-11.597657-16.601563-21.898438-.199219-6.601562 2.199219-12.800781 6.699219-17.601562 4.601562-4.699219 10.703125-7.398438 17.300781-7.398438h7.699219c-1.296875-3.101562-1.898438-6.5-1.699219-9.902343.5-13 11.199219-23.199219 24.402344-23.199219h83.398437l-12.898437-7.800781c-5.5-3.296876-9.402344-8.597657-10.902344-14.796876-1.5-6.203124-.5-12.703124 2.800781-18.203124 6.898438-11.296876 21.699219-15 33-8.097657l76.601563 46.5c4.597656 2.800781 8.699219 6.300781 12.097656 10.398438 2.699219 3.300781 6.101563 7.300781 34.402344 9.699219 4.097656.300781 7.199219 4 6.796875 8.101562-.296875 4.101562-4 7.199219-8.097656 6.800781-29.300782-2.5-38-7-44.699219-15.101562-2.402344-2.898438-5.203125-5.300781-8.300781-7.199219l-76.601563-46.5c-4.300781-2.601562-9.800781-1.199219-12.398437 3.101562-1.300782 2.097657-1.601563 4.5-1 6.796876.597656 2.300781 2 4.300781 4.097656 5.601562l30 18.199219c3.601562 2.199219 5.300781 6.5 4.203125 10.601562-1.101563 4.097657-4.800781 6.898438-9 6.898438h-103.402344c-5 0-9.300781 3.902343-9.398437 8.699219-.101563 2.5.800781 4.800781 2.5 6.601562 1.699218 1.800781 4 2.800781 6.5 2.800781 4.097656 0 7.5 3.398438 7.5 7.5 0 4.097657-3.402344 7.5-7.5 7.5h-30c-2.5 0-4.800782 1-6.5 2.800781-1.699219 1.796876-2.601563 4.097657-2.5 6.597657.199218 4.800781 4.398437 8.699219 9.398437 8.699219h13.902344c4.097656 0 7.5 3.402343 7.5 7.5 0 4.101562-3.402344 7.5-7.5 7.5-5 0-9.101563 4.101562-9.101563 9.101562s4.101563 9.101562 9.101563 9.101562h33.699219c4.097656 0 7.5 3.398438 7.5 7.5 0 4.097657-3.402344 7.5-7.5 7.5-5 0-9.101563 4.097657-9.101563 9.097657s4.101563 9.101562 9.101563 9.101562h77.898437c22.601563 0 45-3.402343 66.601563-10.101562.398437-.097657.898437-.199219 1.300781-.300781l53.597656-6.796876c4.101563-.5 7.902344 2.398438 8.402344 6.5.5 4.097657-2.402344 7.898438-6.5 8.398438l-53 6.699219c-22.902344 7-46.601563 10.601562-70.5 10.601562zm0 0"/><path d="m160.140625 391.101562c-2.800781 0-5.5-1.601562-6.800781-4.203124-4.597656-9.398438-15.796875-53.398438-31.5-123.898438-22.199219-99.199219 36.5-150 62.800781-167.199219 6.902344-4.5 11-12.199219 11-20.5 0-4.902343-1.398437-9.601562-4.199219-13.699219l-17.398437-26c-3.5-5.203124-4.703125-11.402343-3.402344-17.5 1.300781-6.101562 4.902344-11.300781 10.199219-14.601562 3.601562-2.300781 7.800781-3.5 12.101562-3.5h82.800782c4.300781 0 8.5 1.199219 12.097656 3.5 5.300781 3.300781 8.902344 8.5 10.203125 14.601562 1.296875 6.097657.097656 12.296876-3.402344 17.5l-17.398437 26c-2.699219 4.097657-4.199219 8.796876-4.199219 13.699219 0 8.300781 4.097656 16 11 20.5 18.097656 11.898438 42.699219 33.300781 56.898437 67.800781 1.601563 3.796876-.300781 8.199219-4.101562 9.796876-3.796875 1.601562-8.199219-.296876-9.796875-4.097657-12.703125-31-34.902344-50.300781-51.203125-61-11.097656-7.300781-17.796875-19.699219-17.796875-33.101562 0-7.898438 2.296875-15.5 6.699219-22.097657l17.398437-26c1.199219-1.800781 1.601563-3.902343 1.199219-6-.398438-2.101562-1.699219-3.902343-3.5-5-1.199219-.800781-2.699219-1.203124-4.199219-1.203124h-82.800781c-1.5 0-2.898438.402343-4.199219 1.203124-1.800781 1.097657-3 2.898438-3.5 5-.398437 2.097657 0 4.199219 1.199219 6l17.402344 26c4.398437 6.597657 6.699218 14.199219 6.699218 22.097657 0 13.402343-6.699218 25.699219-17.800781 33.101562-29.398437 19.300781-75.800781 64.597657-56.398437 151.398438 22.898437 102.402343 29.300781 118.402343 30.398437 120.601562 1.800781 3.699219.199219 8.199219-3.5 10-.800781.5-1.898437.800781-3 .800781zm0 0"/><path d="m308.640625 391.101562c-1.097656 0-2.199219-.203124-3.300781-.800781-3.699219-1.800781-5.296875-6.300781-3.5-10 .601562-1.300781 3.300781-7.902343 10.5-35.902343 1-4 5.101562-6.398438 9.101562-5.398438s6.398438 5.101562 5.398438 9.101562c-5.398438 21-9.199219 34.097657-11.5 38.796876-1.296875 2.601562-3.898438 4.203124-6.699219 4.203124zm0 0"/><path d="m447.140625 439.699219h-425.5c-6.5 0-12.699219-2.898438-16.800781-8-4.097656-5.097657-5.699219-11.699219-4.398438-18.097657l4.199219-20.300781c2.101563-10 11-17.199219 21.199219-17.199219h417.101562c10.199219 0 19.101563 7.199219 21.199219 17.199219l4.199219 20.300781c1.300781 6.398438-.296875 13-4.398438 18.097657-4.101562 5.101562-10.300781 8-16.800781 8zm-421.300781-48.597657c-3.097656 0-5.898438 2.199219-6.5 5.296876l-4.199219 20.300781c-.597656 2.699219.601563 4.601562 1.402344 5.601562.699219.898438 2.398437 2.5 5.199219 2.5h425.5c2.800781 0 4.398437-1.5 5.199218-2.5.699219-.902343 1.898438-2.902343 1.398438-5.601562l-4.199219-20.300781c-.597656-3.097657-3.398437-5.296876-6.5-5.296876zm0 0"/><path d="m350.042969 512h-231.402344c-5.800781 0-10.898437-3.601562-12.800781-9.101562-1.898438-5.5-.296875-11.398438 4.300781-15.097657l39.101563-31.5c3.199218-2.601562 7.898437-2.101562 10.5 1.097657 2.597656 3.203124 2.097656 7.902343-1.101563 10.5l-36 29h223.402344l-36-28.898438c-3.203125-2.601562-3.703125-7.300781-1.101563-10.5 2.601563-3.199219 7.300782-3.699219 10.5-1.101562l39.101563 31.402343c4.597656 3.699219 6.199219 9.597657 4.296875 15.097657-1.898438 5.5-6.898438 9.101562-12.796875 9.101562zm0 0"/></svg>