<svg height="512pt" viewBox="0 0 512 512" width="512pt" xmlns="http://www.w3.org/2000/svg"><path d="m245.460938 36.480469v-13.761719h-60.859376v-15.21875h-60.859374v15.21875h-60.859376v109.828125h-55.382812v131.855469l55.382812 55.929687v33.320313h178.75v-33.59375l55.925782-55.382813v-228.195312zm0 0" fill="#ffdaaa"/><path d="m123.742188 7.5h60.859374v125.046875h-60.859374zm0 0" fill="#ffdaaa"/><path d="m184.601562 22.71875h60.859376v99.964844h-60.859376zm0 0" fill="#ffdaaa"/><path d="m245.460938 36.480469h52.097656v81.378906h-52.097656zm0 0" fill="#ffdaaa"/><path d="m123.742188 22.71875h-60.859376v109.828125h60.859376zm0 0" fill="#ffdaaa"/><path d="m35.191406 353.652344h234.675782v77.328125h-234.675782zm0 0" fill="#c6c5ca"/><path d="m62.882812 430.980469h178.75v73.496093h-178.75zm0 0" fill="#ffdaaa"/><path d="m290.160156 415.980469h-20.292968v-47.332031h20.292968c2.882813 2.882812 4.496094 4.496093 7.375 7.378906v32.578125c-2.878906 2.878906-4.492187 4.496093-7.375 7.375zm0 0" fill="#e0e0e2"/><g fill="#ff9478"><path d="m123.742188 7.5h30v15.21875h-30zm0 0"/><path d="m37.5 264.402344v-131.855469h-30v131.855469l55.382812 55.929687v33.320313h30v-33.320313zm0 0"/><path d="m62.882812 22.71875h30v109.828125h-30zm0 0"/><path d="m123.742188 7.5h30v125.046875h-30zm0 0"/><path d="m184.601562 22.71875h30v99.964844h-30zm0 0"/><path d="m245.460938 36.480469h29.996093v81.378906h-29.996093zm0 0"/><path d="m62.882812 22.71875h30v109.828125h-30zm0 0"/></g><path d="m35.191406 353.652344h30v77.328125h-30zm0 0" fill="#898890"/><path d="m62.882812 430.980469h30v73.496093h-30zm0 0" fill="#ff9478"/><path d="m229.960938 169.261719-52.859376 52.855469v72.039062h15v-65.824219l48.464844-48.464843zm0 0"/><path d="m27.691406 438.480469h249.675782v-92.328125h-249.675782zm234.675782-77.332031v62.332031h-219.675782v-15h54.246094v-15h-54.246094v-32.332031zm0 0"/><path d="m234.132812 496.976562h-163.75v-45.996093h-15v60.996093h193.75v-60.996093h-15zm0 0"/><path d="m55.382812 333.652344h15v-5.820313h60.609376v-15h-64.980469l-51.011719-51.511719v-121.273437h57.5v25.984375h15v-25.984375h40.996094v21.941406l-30.027344 30.027344h-59.304688v15h45.308594l25.324219 25.320313v44.820312h15v-51.03125l-19.613281-19.613281 38.3125-38.3125v-28.152344h48.605468v-9.863281h60.859376v-4.824219h37.101562v136.1875l-55.929688 55.386719v16.714844h15v-10.460938l55.929688-55.386719v-238.816406h-52.101562v-13.765625h-60.859376v-15.21875h-75.859374v15.21875h-60.859376v109.828125h-55.382812v142.441406l55.382812 55.929688zm234.675782-289.671875v66.378906h-37.097656v-66.378906zm-52.097656-13.761719v84.96875h-45.859376v-84.96875zm-106.71875-15.21875h45.859374v110.046875h-45.859374zm-15 15.21875v94.828125h-45.859376v-94.828125zm0 0"/><path d="m512 399.441406-.050781-14.996094-32.390625.109376c-1.300782-4.761719-3.828125-9.121094-7.425782-12.691407-5.394531-5.359375-12.542968-8.308593-20.144531-8.308593h-.101562l-16.167969.054687c-13.167969.046875-24.257812 9.035156-27.519531 21.183594l-6.679688.023437c-3.335937-12.097656-14.4375-20.996094-27.566406-20.996094h-.097656l-16.167969.054688c-7.636719.023438-14.808594 3.023438-20.1875 8.441406-3.574219 3.59375-6.074219 7.972656-7.34375 12.742188l-25.121094.082031v-12.222656l-11.769531-11.769531h-8.398437v15h2.1875l2.984374 2.984374v26.363282l-2.984374 2.984375h-2.1875v15h8.398437l11.769531-11.773438v-11.566406l25.171875-.085937c1.300781 4.761718 3.832031 9.117187 7.429688 12.691406 5.394531 5.355468 12.542969 8.304687 20.144531 8.304687h.097656l16.167969-.054687c13.171875-.042969 24.261719-9.03125 27.523437-21.183594l6.679688-.019531c3.335938 12.097656 14.4375 20.996093 27.566406 20.996093h.097656l16.167969-.054687c7.636719-.027344 14.808594-3.023437 20.1875-8.441406 3.570313-3.597657 6.070313-7.972657 7.34375-12.742188zm-138 6.558594-16.167969.054688h-.050781c-3.609375 0-7.011719-1.402344-9.574219-3.949219-.65625-.648438-1.234375-1.355469-1.734375-2.101563l9.460938-.035156-.050782-14.996094-9.460937.03125c.496094-.753906 1.070313-1.460937 1.71875-2.117187 2.558594-2.574219 5.96875-4 9.597656-4.011719l16.171875-.054688h.042969c4.707031 0 8.863281 2.402344 11.304687 6.050782l-9.6875.035156.050782 14.996094 9.6875-.03125c-2.425782 3.675781-6.585938 6.113281-11.308594 6.128906zm87.628906-4.277344c-2.558594 2.574219-5.96875 4-9.597656 4.011719l-16.167969.054687h-.046875c-3.613281 0-7.015625-1.398437-9.578125-3.945312-.652343-.652344-1.234375-1.355469-1.734375-2.105469l9.460938-.03125-.050782-15-9.453124.03125c2.425781-3.675781 6.585937-6.113281 11.308593-6.128906l16.171875-.054687h.046875c3.613281 0 7.011719 1.402343 9.574219 3.949218.65625.648438 1.234375 1.355469 1.738281 2.105469l-9.699219.03125.050782 15 9.699218-.035156c-.5.753906-1.074218 1.464843-1.722656 2.117187zm0 0"/><path d="m280.0625 254.25h-15v-61.257812h15zm0-71.257812h-15v-15h15zm0-25h-15v-15h15zm0 0" fill="#fff"/><path d="m244.871094 386.148438h-77.578125v-15h77.578125zm-87.578125 0h-15v-15h15zm-25 0h-14.996094v-15h14.996094zm0 0" fill="#fff"/></svg>