<?xml version="1.0" encoding="iso-8859-1"?>
<!-- Generator: Adobe Illustrator 19.0.0, SVG Export Plug-In . SVG Version: 6.00 Build 0)  -->
<svg version="1.1" id="Capa_1" xmlns="http://www.w3.org/2000/svg" xmlns:xlink="http://www.w3.org/1999/xlink" x="0px" y="0px"
	 viewBox="0 0 512 512" style="enable-background:new 0 0 512 512;" xml:space="preserve">
<path style="fill:#AD7B64;" d="M444.143,7.192H101.586v0.001V7.192c-1.591,0-3.162,0.086-4.71,0.249v434.091h4.71l0,0h352.901
	c0-9.931,0-416.464,0-423.998C454.486,11.824,449.856,7.192,444.143,7.192z"/>
<path style="fill:#966653;" d="M88.214,441.533h13.371V7.192c-24.674,0-44.701,19.999-44.701,44.701v420.969
	C56.884,455.631,70.983,441.533,88.214,441.533z"/>
<path style="fill:#875848;" d="M76.885,14.639c-12.053,8.006-20.001,21.699-20.001,37.254v420.969
	c0-13.24,8.328-24.622,20.001-29.189V14.639z"/>
<path style="fill:#E4EAF8;" d="M88.214,441.533c-17.231,0-31.329,14.098-31.329,31.329l0,0c0,17.231,14.098,31.329,31.329,31.329
	c6.177,0,351.959,0,356.629,0c5.326,0,9.645-4.318,9.645-9.645v-53.014C444.683,441.533,98.092,441.533,88.214,441.533z"/>
<path style="fill:#D8DCE5;" d="M444.842,484.19c-4.669,0-350.451,0-356.629,0c-13.737,0-25.474-8.965-29.673-21.328
	c-1.068,3.145-1.656,6.506-1.656,10.001l0,0c0,17.231,14.098,31.329,31.329,31.329c6.177,0,351.959,0,356.629,0
	c5.326,0,9.645-4.318,9.645-9.645v-20.001C454.486,479.872,450.168,484.19,444.842,484.19z"/>
<path style="fill:#FFC850;" d="M367.877,149.603h-61.47c-3.063,0-5.547-2.483-5.547-5.547V82.183c0-3.063-2.483-5.547-5.547-5.547
	h-39.871c-3.063,0-5.547,2.483-5.547,5.547v61.873c0,3.063-2.483,5.547-5.547,5.547h-61.47c-3.063,0-5.547,2.483-5.547,5.547v39.871
	c0,3.063,2.483,5.547,5.547,5.547h61.47c3.063,0,5.547,2.483,5.547,5.547v160.426c0,3.063,2.483,5.547,5.547,5.547h39.871
	c3.063,0,5.547-2.483,5.547-5.547V206.116c0-3.063,2.483-5.547,5.547-5.547h61.47c3.063,0,5.547-2.483,5.547-5.547V155.15
	C373.424,152.087,370.94,149.603,367.877,149.603z"/>
<g>
	<path style="fill:#F9B938;" d="M269.896,144.056V82.183c0-3.063,2.483-5.547,5.547-5.547h-20.001c-3.063,0-5.547,2.483-5.547,5.547
		v61.873c0,3.063-2.484,5.547-5.547,5.547h20.001C267.412,149.603,269.896,147.12,269.896,144.056z"/>
	<path style="fill:#F9B938;" d="M269.896,366.542V206.116c0-3.063-2.484-5.547-5.547-5.547h-20.001c3.063,0,5.547,2.483,5.547,5.547
		v160.426c0,3.063,2.483,5.547,5.547,5.547h20.001C272.379,372.09,269.896,369.606,269.896,366.542z"/>
	<path style="fill:#F9B938;" d="M197.331,195.022V155.15c0-3.063,2.483-5.547,5.547-5.547h-20.001c-3.063,0-5.547,2.483-5.547,5.547
		v39.871c0,3.063,2.483,5.547,5.547,5.547h20.001C199.815,200.569,197.331,198.086,197.331,195.022z"/>
</g>
<path d="M255.756,379.898h39.871c7.194,0,13.048-5.853,13.048-13.048V208.378h59.517c7.194,0,13.048-5.853,13.048-13.048v-39.871
	c0-7.194-5.853-13.048-13.048-13.048h-59.517v-59.92c0-7.194-5.853-13.048-13.048-13.048h-39.871
	c-7.194,0-13.048,5.853-13.048,13.048v59.92h-59.517c-7.194,0-13.048,5.853-13.048,13.048v39.871
	c0,7.194,5.853,13.048,13.048,13.048h59.517V366.85C242.708,374.045,248.562,379.898,255.756,379.898z M185.146,193.377v-35.965
	h59.517c7.194,0,13.048-5.853,13.048-13.048v-59.92h35.965v59.92c0,7.194,5.853,13.048,13.048,13.048h59.517v35.965h-59.517
	c-7.194,0-13.048,5.853-13.048,13.048v158.473H257.71V206.424c0-7.194-5.853-13.048-13.048-13.048H185.146z"/>
<path d="M454.8,212.521c4.143,0,7.5-3.357,7.5-7.5V17.844c0-9.84-8.004-17.844-17.844-17.844H101.899
	c-28.783,0-52.2,23.417-52.2,52.2V473.17c0,21.41,17.419,38.829,38.829,38.829h169.663c4.143,0,7.5-3.357,7.5-7.5
	s-3.357-7.5-7.5-7.5H88.528c-13.139,0-23.828-10.689-23.828-23.828s10.69-23.828,23.829-23.828c9.218,0,349.569,0,358.772,0v45.514
	c0,1.182-0.962,2.144-2.144,2.144H293.193c-4.143,0-7.5,3.357-7.5,7.5s3.357,7.5,7.5,7.5h151.963c9.454,0,17.145-7.69,17.145-17.145
	v-53.014V240.023c0-4.143-3.357-7.5-7.5-7.5s-7.5,3.357-7.5,7.5v194.319H109.4V15.001h335.056c1.567,0,2.843,1.275,2.843,2.843
	V205.02C447.3,209.163,450.658,212.521,454.8,212.521z M64.699,442.532V52.2c0-17.942,12.771-32.96,29.7-36.44v418.58
	C89.197,434.34,76.714,433.164,64.699,442.532z"/>
<g>
</g>
<g>
</g>
<g>
</g>
<g>
</g>
<g>
</g>
<g>
</g>
<g>
</g>
<g>
</g>
<g>
</g>
<g>
</g>
<g>
</g>
<g>
</g>
<g>
</g>
<g>
</g>
<g>
</g>
</svg>
