<svg height="512pt" viewBox="-51 0 512 512" width="512pt" xmlns="http://www.w3.org/2000/svg"><path d="m402.5 256c0 6.867188-2.769531 13.085938-7.25 17.605469-9.082031 9.15625-15.105469 20.871093-17.011719 33.621093-16.824219 112.664063-87.992187 197.273438-173.238281 197.273438s-156.414062-84.609375-173.238281-197.269531c-1.90625-12.753907-7.929688-24.46875-17.011719-33.625-4.480469-4.519531-7.25-10.738281-7.25-17.605469s2.769531-13.085938 7.25-17.605469c9.082031-9.15625 15.105469-20.871093 17.011719-33.625 16.824219-112.660156 87.992187-197.269531 173.238281-197.269531s156.414062 84.609375 173.238281 197.273438c1.90625 12.753906 7.929688 24.464843 17.011719 33.621093 4.480469 4.519531 7.25 10.738281 7.25 17.605469zm0 0" fill="#af8164"/><path d="m395.25 238.394531c-9.082031-9.15625-15.105469-20.871093-17.011719-33.625-16.824219-112.660156-87.992187-197.269531-173.238281-197.269531-5.054688 0-10.054688.308594-15 .890625 78.488281 9.25 142.410156 90.394531 158.238281 196.382813 1.90625 12.753906 1.90625 89.703124 0 102.457031-15.828125 105.984375-79.75 187.128906-158.238281 196.378906 4.945312.582031 9.945312.890625 15 .890625 85.246094 0 156.414062-84.609375 173.238281-197.269531 1.90625-12.753907 7.929688-24.46875 17.011719-33.625 4.480469-4.519531 7.25-10.738281 7.25-17.605469s-2.769531-13.085938-7.25-17.605469zm0 0" fill="#9a7055"/><path d="m205 474.5c-37.308594 0-73.078125-21.375-100.722656-60.1875-29.84375-41.898438-46.277344-98.121094-46.277344-158.3125s16.433594-116.414062 46.277344-158.3125c27.644531-38.8125 63.414062-60.1875 100.722656-60.1875s73.078125 21.375 100.722656 60.1875c29.84375 41.898438 46.277344 98.121094 46.277344 158.3125s-16.433594 116.414062-46.277344 158.3125c-27.644531 38.8125-63.414062 60.1875-100.722656 60.1875zm0 0" fill="#fbe1a8"/><path d="m205 444.5c-27.335938 0-54.429688-16.902344-76.285156-47.59375-26.253906-36.859375-40.714844-86.898438-40.714844-140.90625s14.460938-104.046875 40.714844-140.90625c21.855468-30.691406 48.949218-47.59375 76.285156-47.59375s54.429688 16.902344 76.285156 47.59375c26.253906 36.859375 40.714844 86.898438 40.714844 140.90625s-14.460938 104.046875-40.714844 140.90625c-21.855468 30.691406-48.949218 47.59375-76.285156 47.59375zm0 0" fill="#bdf9ff"/><path d="m205 437c-17.40625 0-35.117188-7.84375-51.222656-22.675781-3.046875-2.808594-7.789063-2.613281-10.597656.433593-2.808594 3.046876-2.613282 7.789063.433593 10.597657 18.921875 17.429687 40.148438 26.644531 61.386719 26.644531 29.828125 0 59.089844-18.019531 82.394531-50.742188 27.152344-38.117187 42.105469-89.707031 42.105469-145.257812s-14.953125-107.140625-42.105469-145.257812c-23.304687-32.722657-52.566406-50.742188-82.394531-50.742188s-59.089844 18.019531-82.394531 50.742188c-27.152344 38.117187-42.105469 89.707031-42.105469 145.257812 0 54.859375 14.625 105.980469 41.183594 143.949219 2.371094 3.398437 7.046875 4.226562 10.441406 1.847656 3.394531-2.371094 4.222656-7.050781 1.847656-10.441406-24.808594-35.472657-38.472656-83.542969-38.472656-135.355469 0-52.460938 13.964844-100.957031 39.320312-136.554688 20.414063-28.660156 45.335938-44.445312 70.179688-44.445312s49.765625 15.785156 70.179688 44.445312c25.355468 35.597657 39.320312 84.09375 39.320312 136.554688s-13.964844 100.957031-39.320312 136.554688c-20.414063 28.660156-45.335938 44.445312-70.179688 44.445312zm0 0"/><path d="m400.574219 233.113281c-8.101563-8.167969-13.261719-18.351562-14.917969-29.449219-8.417969-56.375-30.691406-107.757812-62.710938-144.691406-32.976562-38.027344-74.863281-58.972656-117.945312-58.972656-53.511719 0-104.289062 32.066406-139.316406 87.984375-2.199219 3.507813-1.136719 8.136719 2.375 10.335937 3.507812 2.199219 8.140625 1.136719 10.339844-2.375 32.222656-51.441406 78.367187-80.945312 126.601562-80.945312 38.667969 0 76.527344 19.105469 106.609375 53.800781 30.179687 34.804688 51.207031 83.488281 59.210937 137.078125 2.132813 14.277344 8.738282 27.347656 19.105469 37.796875 3.269531 3.300781 5.074219 7.675781 5.074219 12.324219s-1.804688 9.023438-5.074219 12.324219c-10.367187 10.449219-16.972656 23.519531-19.105469 37.796875-8.003906 53.589844-29.03125 102.273437-59.210937 137.078125-30.082031 34.695312-67.941406 53.800781-106.609375 53.800781s-76.527344-19.105469-106.609375-53.800781c-30.179687-34.804688-51.207031-83.488281-59.210937-137.078125-2.132813-14.277344-8.738282-27.347656-19.105469-37.796875-3.269531-3.300781-5.074219-7.675781-5.074219-12.324219s1.804688-9.023438 5.074219-12.324219c10.367187-10.449219 16.972656-23.519531 19.105469-37.796875 4.410156-29.539062 12.625-57.339844 24.414062-82.621094 1.75-3.757812.125-8.21875-3.628906-9.96875-3.75-1.75-8.214844-.128906-9.96875 3.625-12.394532 26.59375-21.027344 55.78125-25.652344 86.75-1.65625 11.097657-6.816406 21.28125-14.917969 29.449219-6.078125 6.128907-9.425781 14.253907-9.425781 22.886719s3.347656 16.757812 9.425781 22.886719c8.101563 8.167969 13.261719 18.351562 14.917969 29.449219 8.417969 56.375 30.691406 107.757812 62.710938 144.691406 32.976562 38.027344 74.863281 58.972656 117.945312 58.972656s84.96875-20.945312 117.945312-58.972656c32.019532-36.933594 54.292969-88.316406 62.710938-144.691406 1.65625-11.097657 6.816406-21.28125 14.917969-29.449219 6.078125-6.128907 9.425781-14.253907 9.425781-22.886719s-3.347656-16.757812-9.425781-22.886719zm0 0"/><path d="m347.648438 202.636719c4.0625-.800781 6.710937-4.742188 5.914062-8.804688-7.425781-37.839843-21.855469-72.589843-41.730469-100.496093-29.09375-40.84375-67.03125-63.335938-106.832031-63.335938s-77.738281 22.492188-106.832031 63.335938c-29.492188 41.40625-46.269531 96.257812-47.582031 155.164062h-16.585938c-4.144531 0-7.5 3.355469-7.5 7.5s3.355469 7.5 7.5 7.5h16.585938c1.3125 58.90625 18.089843 113.757812 47.582031 155.164062 29.09375 40.84375 67.03125 63.335938 106.832031 63.335938s77.738281-22.492188 106.832031-63.335938c29.492188-41.40625 46.269531-96.257812 47.582031-155.164062h16.585938c4.144531 0 7.5-3.355469 7.5-7.5s-3.355469-7.5-7.5-7.5h-16.585938c-.164062-7.464844-.582031-14.917969-1.242187-22.246094-.371094-4.125-4.015625-7.164062-8.140625-6.796875-4.125.371094-7.167969 4.015625-6.796875 8.144531.839844 9.332032 1.265625 18.890626 1.265625 28.398438 0 58.644531-15.941406 113.324219-44.886719 153.960938-26.199219 36.78125-59.800781 57.039062-94.613281 57.039062s-68.414062-20.257812-94.613281-57.039062c-28.945313-40.636719-44.886719-95.316407-44.886719-153.960938s15.941406-113.324219 44.886719-153.960938c26.199219-36.78125 59.800781-57.039062 94.613281-57.039062s68.414062 20.257812 94.613281 57.039062c18.648438 26.179688 32.210938 58.917969 39.230469 94.679688.796875 4.066406 4.738281 6.71875 8.804688 5.917969zm0 0"/></svg>