<?xml version="1.0" encoding="iso-8859-1"?>
<!-- Generator: Adobe Illustrator 19.0.0, SVG Export Plug-In . SVG Version: 6.00 Build 0)  -->
<svg version="1.1" id="Layer_1" xmlns="http://www.w3.org/2000/svg" xmlns:xlink="http://www.w3.org/1999/xlink" x="0px" y="0px"
	 viewBox="0 0 512.001 512.001" style="enable-background:new 0 0 512.001 512.001;" xml:space="preserve">
<g>
	<rect x="45.762" y="35.577" style="fill:#7F3F26;" width="438.358" height="437.977"/>
	<polygon style="fill:#7F3F26;" points="65.21,107.33 65.21,446.835 128.705,446.835 128.705,170.825 	"/>
	<polygon style="fill:#7F3F26;" points="255.693,214.883 255.693,65.863 192.2,65.863 192.2,151.391 	"/>
	<polygon style="fill:#7F3F26;" points="192.2,234.32 192.2,446.835 255.693,446.835 255.693,297.815 	"/>
	<polygon style="fill:#7F3F26;" points="382.683,341.872 382.683,65.863 319.188,65.863 319.188,278.379 	"/>
	<polygon style="fill:#7F3F26;" points="319.188,361.308 319.188,446.835 382.683,446.835 382.683,424.804 	"/>
</g>
<g>
	<polygon style="fill:#964F2F;" points="382.683,65.863 382.683,341.872 446.178,405.368 446.178,65.863 	"/>
	<polygon style="fill:#964F2F;" points="382.683,446.835 404.713,446.835 382.683,424.804 	"/>
	<polygon style="fill:#964F2F;" points="128.705,170.825 128.705,446.835 192.2,446.835 192.2,234.32 	"/>
	<polygon style="fill:#964F2F;" points="192.2,151.391 192.2,65.863 128.705,65.863 128.705,87.896 	"/>
	<polygon style="fill:#964F2F;" points="319.188,278.379 319.188,65.863 255.693,65.863 255.693,214.883 	"/>
	<polygon style="fill:#964F2F;" points="255.693,297.815 255.693,446.835 319.188,446.835 319.188,361.308 	"/>
</g>
<rect x="382.682" y="65.863" style="fill:#6B311F;" width="63.49" height="34.959"/>
<rect x="319.192" y="65.863" style="fill:#562417;" width="63.49" height="34.959"/>
<rect x="255.692" y="65.863" style="fill:#6B311F;" width="63.49" height="34.959"/>
<rect x="192.203" y="65.863" style="fill:#562417;" width="63.49" height="34.959"/>
<polygon style="fill:#6B311F;" points="128.705,87.896 141.631,100.822 192.2,100.822 192.2,65.863 128.705,65.863 "/>
<polygon style="fill:#562417;" points="128.705,65.863 106.673,65.863 128.705,87.896 "/>
<polygon style="fill:#6B311F;" points="65.21,28.995 65.21,446.835 99.89,446.835 99.89,68.068 "/>
<polygon style="fill:#A55E3A;" points="446.178,446.835 446.178,405.368 106.673,65.863 65.21,65.863 65.21,107.33 404.713,446.835 
	"/>
<polygon style="fill:#8C4B2F;" points="439.296,440.228 72.303,73.236 72.303,65.863 65.21,65.863 65.21,107.33 404.713,446.835 
	446.178,446.835 446.178,440.228 "/>
<path style="fill:#C17E52;" d="M461.923,7.223H49.465C25.812,7.223,6.57,26.466,6.57,50.12v412.458
	c0,23.654,19.242,42.896,42.895,42.896h412.458c23.654,0,42.895-19.242,42.895-42.896c0-11.149,0-401.328,0-412.458
	C504.818,26.466,485.577,7.223,461.923,7.223z M77.261,65.863h356.866c6.656,0,12.051,5.397,12.051,12.052v356.868
	c0,6.656-5.395,12.052-12.051,12.052H77.261c-6.657,0-12.051-5.397-12.051-12.052V77.915C65.21,71.26,70.605,65.863,77.261,65.863z"
	/>
<path style="fill:#B56A40;" d="M38.318,462.579V50.12c0-23.654,19.242-42.896,42.894-42.896H49.465
	C25.812,7.223,6.57,26.466,6.57,50.12v412.458c0,23.654,19.242,42.896,42.895,42.896h31.747
	C57.56,505.475,38.318,486.232,38.318,462.579z"/>
<path d="M504.487,137.677c4.15,0,7.513-3.363,7.513-7.513V50.3C512,22.564,489.436,0,461.702,0H50.299
	C22.565,0,0.002,22.564,0.002,50.3v411.401c0,27.736,22.563,50.3,50.298,50.3h411.402c27.734,0,50.298-22.564,50.298-50.3V158.88
	c0-4.15-3.363-7.513-7.513-7.513s-7.513,3.363-7.513,7.513v302.821c0,19.45-15.823,35.274-35.272,35.274H50.299
	c-19.449,0-35.272-15.824-35.272-35.274V50.3c0-19.45,15.823-35.274,35.272-35.274h411.402c19.449,0,35.272,15.824,35.272,35.274
	v79.864C496.974,134.313,500.337,137.677,504.487,137.677z"/>
<path d="M66.005,58.49c-4.149,0-7.513,3.363-7.513,7.513c0,16.396,0,363.973,0,379.995c0,4.15,3.364,7.513,7.513,7.513
	c4.706,0,369.059,0,379.993,0c4.15,0,7.513-3.363,7.513-7.513c0-16.396,0-363.973,0-379.995c0-4.15-3.363-7.513-7.513-7.513
	C442.811,58.49,77.956,58.49,66.005,58.49z M438.484,386.498l-48.306-48.306V73.516h48.306V386.498z M375.152,323.167
	l-48.306-48.306V73.516h48.306V323.167z M311.819,259.834l-48.306-48.306V73.516h48.306V259.834z M248.488,196.502l-48.307-48.305
	v-74.68h48.306L248.488,196.502L248.488,196.502z M185.156,133.171l-48.307-48.307V73.516h48.306L185.156,133.171L185.156,133.171z
	 M73.518,125.502l48.306,48.306v264.677H73.518V125.502z M136.849,188.834l48.306,48.306v201.344h-48.306V188.834z M200.182,252.166
	l48.307,48.307v138.012h-48.306L200.182,252.166L200.182,252.166z M263.514,315.498l48.306,48.306v74.68h-48.306V315.498z
	 M326.845,378.831l48.306,48.306v11.348h-48.306V378.831z M407.751,438.485C336.956,367.69,143.909,174.643,73.518,104.25V73.516
	h30.733c43.036,43.038,203.986,203.987,209.77,209.771c0.002,0.001,124.463,124.462,124.464,124.463v30.735H407.751z"/>
<g>
</g>
<g>
</g>
<g>
</g>
<g>
</g>
<g>
</g>
<g>
</g>
<g>
</g>
<g>
</g>
<g>
</g>
<g>
</g>
<g>
</g>
<g>
</g>
<g>
</g>
<g>
</g>
<g>
</g>
</svg>
