<svg id="Capa_1" enable-background="new 0 0 512 512" height="512" viewBox="0 0 512 512" width="512" xmlns="http://www.w3.org/2000/svg"><g><path d="m173.461 117.033v-30.805h-85.922v30.806c0 8.61-4.626 16.555-12.113 20.806l-11.025 6.26c-23.145 13.142-35.156 39.724-29.722 65.779l50.939 244.255c1.119 5.366 5.848 9.211 11.33 9.211h67.104c5.481 0 10.211-3.845 11.33-9.211l50.939-244.255c5.434-26.055-6.578-52.637-29.722-65.779l-11.025-6.26c-7.488-4.251-12.113-12.197-12.113-20.807z" fill="#655e67"/><path d="m196.598 144.1-11.025-6.26c-7.487-4.251-12.113-12.197-12.113-20.806v-30.806h-25.984v36.805c0 8.609 4.626 16.555 12.112 20.806l11.025 6.26c23.145 13.142 35.156 39.724 29.722 65.779l-50.939 238.256c-1.119 5.366-5.849 9.211-11.33 9.211h25.984c5.481 0 10.211-3.845 11.33-9.211l50.939-244.255c5.435-26.055-6.576-52.638-29.721-65.779z" fill="#544f56"/><path d="m227.213 190.378c-24.193 7.165-58.57 11.641-96.716 11.641-38.14 0-72.509-4.477-96.711-11.633-.734 6.384-.47 12.955.893 19.493l6.123 29.362c4.03 2.857 8.708 4.968 13.874 6.058 11.517 2.432 22.892-.726 31.17-7.604 3.638-3.015 9.167-2.167 11.793 1.768 6.96 10.383 19.07 17.261 32.857 17.261 13.786 0 25.907-6.878 32.856-17.261 2.637-3.935 8.165-4.783 11.804-1.768 8.278 6.878 19.642 10.036 31.17 7.604 5.164-1.09 9.841-3.2 13.869-6.056l6.124-29.365c1.365-6.54 1.629-13.113.894-19.5z" fill="#a3847e"/><path d="m227.213 190.378c-7.699 2.28-16.433 4.286-25.988 5.964.74 6.397.479 12.982-.888 19.535l-6.4 29.937c4.015.507 8.191.371 12.391-.515 5.164-1.09 9.841-3.2 13.869-6.056 4.556-24.734 8.764-33.668 7.016-48.865z" fill="#7a635e"/><path d="m87.539 86.228h85.922v24.235h-85.922z" fill="#544f56"/><path d="m504.407 321.797c0-35.834-16.562-59.863-42.814-74.372-8.371-4.627-13.43-13.575-13.43-23.14v-19.162h-140.214v19.162c0 9.564-5.059 18.513-13.43 23.14-26.252 14.51-42.814 38.538-42.814 74.372 0 37.059 17.711 70.192 45.537 92.19 11.219 8.869 17.836 22.323 17.836 36.624v3.849c0 4.906 3.978 8.884 8.884 8.884h108.187c4.906 0 8.884-3.978 8.884-8.884v-3.849c0-14.301 6.617-27.755 17.836-36.624 27.827-21.998 45.538-55.13 45.538-92.19z" fill="#c77e67"/><path d="m461.593 247.425c-5.951-3.289-10.216-8.767-12.191-15.093-2.348-7.514-.707-13.684-1.239-27.208h-140.214v19.162c0 2.765-.435 5.474-1.239 8.046h109.286c3.993 0 7.593 2.204 9.624 5.641 2.301 3.895 5.596 7.191 9.687 9.452 26.252 14.51 42.814 38.538 42.814 74.372 0 37.055-17.707 70.185-45.528 92.183-11.163 8.827-17.845 22.138-17.845 36.369v4.111c0 4.907-3.978 8.884-8.884 8.884h26.285c4.907 0 8.884-3.978 8.884-8.884v-4.111c0-14.231 6.682-27.542 17.845-36.369 27.821-21.998 45.528-55.128 45.528-92.183.001-35.834-16.561-59.862-42.813-74.372z" fill="#ac583e"/><path d="m251.705 321.797c0 9.172 1.088 18.103 3.143 26.685h246.415c2.055-8.582 3.143-17.513 3.143-26.685 0-25.157-8.171-44.487-22.118-58.798h-208.465c-13.947 14.311-22.118 33.641-22.118 58.798z" fill="#e4c2bb"/><path d="m482.289 262.999h-26.285c13.947 14.311 22.118 33.642 22.118 58.799 0 9.173-1.088 18.103-3.143 26.685h26.285c7.207-30.106 3.004-62.933-18.975-85.484z" fill="#cba59d"/><path d="m62.45 67.442c0 10.375 8.411 18.786 18.786 18.786h98.527c10.375 0 18.786-8.411 18.786-18.786s-8.411-18.786-18.786-18.786h-98.527c-10.375 0-18.786 8.411-18.786 18.786z" fill="#655e67"/><path d="m179.763 48.656h-19.429c10.375 0 18.786 8.411 18.786 18.786s-8.411 18.786-18.786 18.786h19.429c10.375 0 18.786-8.411 18.786-18.786s-8.41-18.786-18.786-18.786z" fill="#544f56"/><path d="m279.262 185.915c0 10.608 8.6 19.208 19.208 19.208h159.172c10.608 0 19.208-8.6 19.208-19.208s-8.6-19.208-19.208-19.208h-159.172c-10.609 0-19.208 8.6-19.208 19.208z" fill="#c77e67"/><path d="m457.642 166.707h-23.258c10.609 0 19.208 8.6 19.208 19.208s-8.6 19.208-19.208 19.208h23.258c10.608 0 19.208-8.6 19.208-19.208s-8.6-19.208-19.208-19.208z" fill="#ac583e"/><g><path d="m246.515 191.002c13.471-13.278 18.177-33.774 11.708-51.001-6.729-17.937-25.167-30.112-43.839-28.945-11.412.706-22.439 6.747-29.957 15.979-2.176-2.83-3.415-6.342-3.415-10.021v-23.34c13.942-.628 25.092-12.163 25.092-26.258 0-14.495-11.793-26.288-26.288-26.288h-56.676c-4.142 0-7.5 3.358-7.5 7.5s3.358 7.5 7.5 7.5h56.676c6.224 0 11.288 5.064 11.288 11.289s-5.064 11.289-11.288 11.289h-98.54c-6.225 0-11.289-5.064-11.289-11.289s5.064-11.289 11.289-11.289h6.859c4.142 0 7.5-3.358 7.5-7.5s-3.358-7.5-7.5-7.5h-6.859c-14.495 0-26.288 11.793-26.288 26.288 0 14.094 11.15 25.63 25.092 26.258v23.34c0 3.678-1.239 7.19-3.415 10.02-7.518-9.231-18.544-15.272-29.952-15.978-18.674-1.166-37.115 11.007-43.843 28.942-6.468 17.229-1.764 37.726 11.71 51.005 3.334 3.283 7.146 6.074 11.37 8.342.123 3.999.582 8.03 1.422 12.057l16.148 77.434c.738 3.538 3.857 5.97 7.334 5.97.507 0 1.022-.052 1.539-.16 4.054-.845 6.656-4.818 5.811-8.873l-7.009-33.607c.652.168 1.306.328 1.969.468 13.417 2.832 27.09-.511 37.51-9.168.035-.028.14-.115.368-.082.124.018.293.074.412.251 8.641 12.891 23.254 20.587 39.09 20.587 15.849 0 30.464-7.698 39.09-20.588.116-.173.292-.232.42-.25.233-.036.336.054.363.076 10.425 8.661 24.097 12.005 37.516 9.174.661-.14 1.314-.299 1.964-.467l-41.805 200.458c-.392 1.879-2.07 3.243-3.99 3.243h-67.113c-1.92 0-3.597-1.364-3.989-3.243l-27.59-132.295c-.846-4.054-4.82-6.654-8.873-5.81-4.054.845-6.656 4.818-5.81 8.873l27.59 132.297c1.834 8.796 9.687 15.18 18.673 15.18h67.113c8.985 0 16.838-6.384 18.672-15.18l50.945-244.286c.84-4.026 1.299-8.058 1.422-12.057 4.224-2.268 8.037-5.06 11.373-8.345zm-167.347-46.656c9.814-5.573 15.911-16.045 15.911-27.331v-23.31h70.933v23.31c0 11.286 6.097 21.758 15.911 27.331l11.026 6.26c13.343 7.576 22.441 20.129 25.797 34.333-23.778 6.11-55.436 9.573-88.204 9.573-32.746 0-64.402-3.461-88.199-9.568 3.355-14.206 12.454-26.761 25.799-34.338zm136.146-18.319c12.066-.747 24.468 7.52 28.866 19.244 4.352 11.591.982 26.003-8.192 35.045-.768.756-1.576 1.475-2.42 2.158-4.097-18.575-15.837-35.045-33.214-44.912l-3.535-2.007c4.851-5.528 11.588-9.101 18.495-9.528zm-198.402 19.243c4.397-11.722 16.79-19.991 28.87-19.242 6.904.427 13.64 4 18.489 9.529l-3.535 2.007c-17.376 9.866-29.117 26.336-33.213 44.911-.843-.682-1.65-1.4-2.417-2.156-9.177-9.044-12.546-23.456-8.194-35.049zm187.923 92.691c-8.906 1.878-17.956-.322-24.841-6.041-3.349-2.775-7.757-4.007-12.096-3.376-4.368.634-8.278 3.092-10.727 6.748-5.84 8.726-15.794 13.935-26.628 13.935-10.826 0-20.781-5.211-26.623-13.927-2.439-3.654-6.343-6.115-10.711-6.753-4.341-.635-8.754.596-12.114 3.38-6.879 5.715-15.93 7.915-24.833 6.035-3.101-.654-6.024-1.775-8.726-3.332l-5.482-26.287c-.576-2.761-.925-5.526-1.069-8.273 24.828 6.111 56.169 9.443 89.557 9.443 33.41 0 64.752-3.334 89.563-9.448-.143 2.749-.493 5.515-1.069 8.278l-5.483 26.289c-2.699 1.555-5.62 2.675-8.718 3.329z"/><path d="m508.711 349.964c2.167-9.145 3.289-18.579 3.289-28.159 0-5.261-.354-10.344-1.035-15.251-.024-.347-.066-.692-.138-1.032-2.765-18.526-10.4-34.427-22.591-47.201-.287-.359-.608-.69-.955-.99-6.203-6.294-13.535-11.808-21.971-16.471-5.897-3.259-9.56-9.611-9.56-16.579v-11.664h1.98c14.729 0 26.71-11.982 26.71-26.71s-11.982-26.71-26.71-26.71h-11.049c-4.142 0-7.5 3.358-7.5 7.5s3.357 7.5 7.5 7.5h11.049c6.458 0 11.711 5.254 11.711 11.711 0 6.458-5.254 11.711-11.711 11.711h-159.193c-6.457 0-11.71-5.254-11.71-11.711 0-6.458 5.254-11.711 11.71-11.711h113.14c4.142 0 7.5-3.358 7.5-7.5s-3.357-7.5-7.5-7.5h-113.14c-14.728 0-26.709 11.982-26.709 26.71s11.982 26.71 26.709 26.71h1.981v11.664c0 6.967-3.663 13.32-9.56 16.579-8.436 4.662-15.767 10.175-21.969 16.468-.349.302-.671.634-.959.994-12.195 12.777-19.83 28.683-22.593 47.216-.07.334-.111.673-.135 1.014-.682 4.908-1.035 9.992-1.035 15.253 0 9.581 1.123 19.017 3.291 28.163.038.192.089.379.141.565 6.517 26.925 22.116 51.298 44.96 69.357 9.527 7.531 14.99 18.738 14.99 30.746v3.849c0 9.035 7.35 16.385 16.385 16.385h108.201c9.035 0 16.385-7.35 16.385-16.385v-3.849c0-12.009 5.464-23.215 14.989-30.746 22.826-18.045 38.418-42.395 44.945-69.296.059-.206.114-.415.157-.63zm-231.546-79.465h201.937c8.488 9.534 13.977 21.01 16.422 34.361-2.944 3.239-5.271 4.637-9.022 4.637-5.197 0-7.765-2.896-12.222-8.446-4.763-5.931-11.285-14.053-23.916-14.053-12.627 0-19.147 8.124-23.908 14.055-4.454 5.549-7.02 8.444-12.21 8.444s-7.756-2.895-12.211-8.443c-4.762-5.932-11.284-14.056-23.917-14.056-12.627 0-19.147 8.124-23.908 14.055-4.454 5.549-7.02 8.444-12.21 8.444s-7.755-2.895-12.21-8.442c-4.762-5.932-11.285-14.056-23.918-14.056-12.627 0-19.147 8.124-23.908 14.055-4.454 5.549-7.02 8.444-12.21 8.444-3.716 0-6.104-1.45-9.012-4.633 2.445-13.353 7.934-24.831 16.423-34.366zm-17.892 51.814c2.951 1.344 6.38 2.183 10.481 2.183 12.626 0 19.146-8.123 23.907-14.054 4.454-5.549 7.02-8.444 12.211-8.444 5.198 0 7.765 2.897 12.222 8.448 4.761 5.93 11.282 14.051 23.906 14.051 12.626 0 19.146-8.123 23.907-14.054 4.454-5.549 7.02-8.444 12.211-8.444 5.197 0 7.764 2.896 12.221 8.447 4.761 5.93 11.282 14.051 23.907 14.051 12.626 0 19.146-8.123 23.907-14.054 4.454-5.549 7.02-8.444 12.211-8.444 5.196 0 7.764 2.896 12.221 8.446 4.763 5.93 11.286 14.053 23.917 14.053 4.115 0 7.564-.872 10.492-2.198-.029 6.322-.617 12.572-1.733 18.697h-234.255c-1.115-6.122-1.703-12.367-1.733-18.684zm56.244-98.032v-11.664h125.233v11.664c0 12.425 6.63 23.808 17.304 29.706.892.493 1.766.999 2.628 1.513h-165.097c.862-.514 1.736-1.019 2.628-1.513 10.674-5.899 17.304-17.282 17.304-29.706zm138.789 183.843c-13.147 10.393-20.686 25.888-20.686 42.512v3.849c0 .764-.622 1.386-1.386 1.386h-108.201c-.764 0-1.386-.622-1.386-1.386v-3.849c0-16.624-7.541-32.119-20.687-42.512-17.586-13.903-30.302-32.013-37.08-52.13h226.506c-6.777 20.118-19.494 38.228-37.08 52.13z"/><path d="m72.504 175.942.494.07c.353.049.703.073 1.048.073 3.681 0 6.894-2.712 7.418-6.462.574-4.102-2.286-7.893-6.388-8.466l-.488-.069c-4.107-.577-7.894 2.284-8.469 6.385-.575 4.102 2.283 7.894 6.385 8.469z"/><path d="m130.074 179.835h.923c4.142 0 7.5-3.358 7.5-7.5s-3.358-7.5-7.5-7.5h-.923c-4.142 0-7.5 3.358-7.5 7.5s3.358 7.5 7.5 7.5z"/><path d="m158.615 178.951c.16 0 .321-.005.482-.016l.947-.062c4.133-.276 7.259-3.851 6.982-7.983s-3.85-7.254-7.983-6.982l-.896.059c-4.134.262-7.272 3.826-7.009 7.959.252 3.972 3.552 7.025 7.477 7.025z"/><path d="m101.042 178.874.933.061c.162.01.323.016.483.016 3.924 0 7.225-3.053 7.477-7.024.263-4.134-2.875-7.698-7.008-7.96l-.905-.059c-4.134-.283-7.703 2.86-7.974 6.993s2.861 7.703 6.994 7.973z"/><path d="m187.039 176.085c.347 0 .698-.024 1.051-.074l.491-.069c4.102-.576 6.961-4.367 6.385-8.469-.575-4.101-4.366-6.961-8.469-6.385l-.491.069c-4.102.576-6.961 4.367-6.385 8.469.526 3.749 3.738 6.459 7.418 6.459z"/></g></g></svg>