<?xml version="1.0" encoding="iso-8859-1"?>
<!-- Generator: Adobe Illustrator 19.0.0, SVG Export Plug-In . SVG Version: 6.00 Build 0)  -->
<svg version="1.1" id="Layer_1" xmlns="http://www.w3.org/2000/svg" xmlns:xlink="http://www.w3.org/1999/xlink" x="0px" y="0px"
	 viewBox="0 0 512 512" style="enable-background:new 0 0 512 512;" xml:space="preserve">
<g>
	<path style="fill:#C7CFE2;" d="M437.141,170.704v15.933c0,14.269,11.608,25.877,25.877,25.877s25.877-11.608,25.877-25.877v-15.933
		H437.141z"/>
	<path style="fill:#C7CFE2;" d="M344.722,212.514c14.269,0,25.877-11.608,25.877-25.877v-15.933h-51.754v15.933
		C318.845,200.906,330.453,212.514,344.722,212.514z"/>
	<path style="fill:#C7CFE2;" d="M200.549,186.637c0,14.269,11.608,25.877,25.877,25.877c14.269,0,25.877-11.608,25.877-25.877
		v-15.933h-51.755V186.637z"/>
	<path style="fill:#C7CFE2;" d="M82.253,186.637c0,14.269,11.608,25.877,25.877,25.877s25.877-11.608,25.877-25.877v-15.933H82.253
		V186.637z"/>
</g>
<g>
	<polygon style="fill:#EFF2FA;" points="252.71,121.746 204.231,121.746 201.145,163.224 252.71,163.224 	"/>
	<polygon style="fill:#EFF2FA;" points="370.116,163.224 359.318,121.746 316.003,121.746 319.089,163.224 	"/>
	<polygon style="fill:#EFF2FA;" points="436.495,163.224 486.016,163.224 460.736,121.746 416.703,121.746 	"/>
</g>
<rect x="131.851" y="23.413" style="fill:#DAF0FD;" width="248.816" height="51.816"/>
<g>
	<path style="fill:#AF6964;" d="M459.112,53.011H388.06v25.914c0,2.038-1.659,3.697-3.697,3.697H128.154
		c-2.038,0-3.697-1.659-3.697-3.697V53.011H52.888v61.341h406.224L459.112,53.011L459.112,53.011z"/>
	<rect x="52.888" y="377.734" style="fill:#AF6964;" width="406.224" height="110.853"/>
</g>
<g>
	<path style="fill:#D2555A;" d="M74.859,186.637v-15.933H23.105v15.933c0,14.269,11.608,25.877,25.877,25.877
		S74.859,200.906,74.859,186.637z"/>
	<path style="fill:#D2555A;" d="M167.278,212.514c14.269,0,25.877-11.608,25.877-25.877v-15.933h-51.755v15.933
		C141.401,200.906,153.009,212.514,167.278,212.514z"/>
	<path style="fill:#D2555A;" d="M259.697,186.637c0,14.269,11.608,25.877,25.877,25.877c14.269,0,25.877-11.608,25.877-25.877
		v-15.933h-51.755V186.637z"/>
	<path style="fill:#D2555A;" d="M403.87,212.514c14.269,0,25.877-11.608,25.877-25.877v-15.933h-51.755v15.933
		C377.993,200.906,389.601,212.514,403.87,212.514z"/>
</g>
<polygon style="fill:#FF6464;" points="96.107,121.746 51.264,121.746 25.984,163.224 76.332,163.224 "/>
<polygon style="fill:#EFF2FA;" points="145.863,121.746 104.305,121.746 84.513,163.224 135.046,163.224 "/>
<g>
	<polygon style="fill:#FF6464;" points="196.81,121.746 153.495,121.746 142.697,163.224 193.723,163.224 	"/>
	<polygon style="fill:#FF6464;" points="308.597,121.746 260.103,121.746 260.103,163.224 311.664,163.224 	"/>
	<polygon style="fill:#FF6464;" points="428.301,163.224 408.508,121.746 366.951,121.746 377.767,163.224 	"/>
</g>
<path d="M443.302,186.637c0,10.868,8.848,19.716,19.716,19.716c10.868,0,19.716-8.848,19.716-19.716v-9.772h-39.432V186.637z
	 M384.154,186.637c0,10.868,8.848,19.716,19.716,19.716c10.868,0,19.716-8.848,19.716-19.716v-9.772h-39.432V186.637z
	 M325.006,186.637c0,10.868,8.848,19.716,19.716,19.716c10.868,0,19.716-8.848,19.716-19.716v-9.772h-39.432V186.637z
	 M265.858,186.637c0,10.868,8.848,19.716,19.716,19.716c10.868,0,19.716-8.848,19.716-19.716v-9.772h-39.432V186.637z
	 M206.71,186.637c0,10.868,8.848,19.716,19.716,19.716s19.716-8.848,19.716-19.716v-9.772H206.71V186.637z M147.562,186.637
	c0,10.868,8.848,19.716,19.716,19.716s19.716-8.848,19.716-19.716v-9.772h-39.432V186.637z M108.13,226.069
	c-11.768,0-22.341-5.188-29.574-13.395c-5.089,5.779-11.842,10.067-19.507,12.088v139.417h393.901V224.762
	c-7.665-2.021-14.417-6.309-19.507-12.088c-7.233,8.207-17.806,13.395-29.574,13.395s-22.341-5.188-29.574-13.395
	c-7.233,8.207-17.806,13.395-29.574,13.395s-22.341-5.188-29.574-13.395c-7.233,8.207-17.806,13.395-29.574,13.395
	c-11.768,0-22.341-5.188-29.574-13.395c-7.233,8.207-17.806,13.395-29.574,13.395c-11.768,0-22.341-5.188-29.574-13.395
	c-7.233,8.207-17.806,13.395-29.574,13.395c-11.768,0-22.341-5.188-29.574-13.395C130.471,220.881,119.898,226.069,108.13,226.069z
	 M88.414,186.637c0,10.868,8.848,19.716,19.716,19.716s19.716-8.848,19.716-19.716v-9.772H88.414V186.637z M29.266,186.637
	c0,10.868,8.848,19.716,19.716,19.716s19.716-8.848,19.716-19.716v-9.772H29.266V186.637z M502.142,482.426
	c5.447,0,9.858,4.411,9.858,9.858s-4.411,9.858-9.858,9.858H9.858c-5.447,0-9.858-4.411-9.858-9.858s4.411-9.858,9.858-9.858h29.475
	V224.873C22.242,220.561,9.55,205.059,9.55,186.637v-19.63c0-0.049,0.012-0.086,0.012-0.136c0-0.16,0.012-0.32,0.025-0.481
	c0-0.185,0.025-0.382,0.037-0.579c0.037-0.246,0.074-0.481,0.111-0.727c0.012-0.049,0.037-0.111,0.049-0.173
	c0.222-1.084,0.616-2.144,1.208-3.118l28.342-46.517V49.315c0-5.447,4.411-9.858,9.858-9.858h69.105V19.716
	c0-5.447,4.411-9.858,9.858-9.858h256.209c5.434,0,9.858,4.411,9.858,9.858v19.741h68.587c5.447,0,9.858,4.411,9.858,9.858v65.962
	l28.009,45.963c1.134,1.614,1.799,3.574,1.799,5.681c0,0.173-0.012,0.333-0.025,0.493v19.223c0,18.422-12.692,33.924-29.784,38.237
	v257.553H502.142z M475.045,157.063l-17.769-29.155H426.47l13.912,29.155C440.382,157.063,475.045,157.063,475.045,157.063z
	 M452.951,482.426v-98.531H59.049v98.531H452.951z M452.951,108.192V59.173h-58.729v19.753c0,5.434-4.424,9.858-9.858,9.858H128.154
	c-5.447,0-9.858-4.424-9.858-9.858V59.173H59.049v49.019H452.951z M418.534,157.063l-13.912-29.155h-29.697l7.603,29.155
	C382.527,157.063,418.534,157.063,418.534,157.063z M374.506,69.068V29.574H138.012v39.494H374.506z M362.146,157.063l-7.591-29.155
	H322.64l2.169,29.155C324.809,157.063,362.146,157.063,362.146,157.063z M305.031,157.063l-2.156-29.155h-36.61v29.155
	C266.265,157.063,305.031,157.063,305.031,157.063z M246.549,157.063v-29.155h-36.598l-2.169,29.155
	C207.782,157.063,246.549,157.063,246.549,157.063z M188.004,157.063l2.169-29.155h-31.915l-7.591,29.155
	C150.667,157.063,188.004,157.063,188.004,157.063z M130.286,157.063l7.603-29.155h-29.697l-13.912,29.155
	C94.279,157.063,130.286,157.063,130.286,157.063z M72.444,157.063l13.9-29.155h-31.62l-17.769,29.155
	C36.955,157.063,72.444,157.063,72.444,157.063z"/>
<g>
</g>
<g>
</g>
<g>
</g>
<g>
</g>
<g>
</g>
<g>
</g>
<g>
</g>
<g>
</g>
<g>
</g>
<g>
</g>
<g>
</g>
<g>
</g>
<g>
</g>
<g>
</g>
<g>
</g>
</svg>
