<?xml version="1.0" encoding="iso-8859-1"?>
<!-- Generator: Adobe Illustrator 19.0.0, SVG Export Plug-In . SVG Version: 6.00 Build 0)  -->
<svg version="1.1" id="Layer_1" xmlns="http://www.w3.org/2000/svg" xmlns:xlink="http://www.w3.org/1999/xlink" x="0px" y="0px"
	 viewBox="0 0 512 512" style="enable-background:new 0 0 512 512;" xml:space="preserve">
<path style="fill:#2A2A2C;" d="M332.843,41.928H179.157c-16.335,0-29.577,13.356-29.577,29.832v60.915h38.66v-43.36
	c0-7.456,5.993-13.502,13.387-13.502h108.749c7.393,0,13.387,6.045,13.387,13.502v43.36h38.66V71.759
	C362.421,55.284,349.179,41.928,332.843,41.928z"/>
<path style="fill:#D9D9DB;" d="M486.695,470.071H25.305c-9.317,0-16.87-7.553-16.87-16.87V149.544c0-9.317,7.553-16.87,16.87-16.87
	h461.39c9.317,0,16.87,7.553,16.87,16.87v303.657C503.565,462.518,496.012,470.071,486.695,470.071z"/>
<path style="fill:#9A9A9E;" d="M486.695,132.674h-21.368c9.317,0,16.87,7.553,16.87,16.87v303.657c0,9.317-7.553,16.87-16.87,16.87
	h21.368c9.317,0,16.87-7.553,16.87-16.87V149.544C503.565,140.227,496.012,132.674,486.695,132.674z"/>
<path style="fill:#A86B38;" d="M336.028,353.168c-5.909-5.853-21.934-23.344-34.382-51.919l-0.002,0.003
	c-7.435-17.883-25.066-30.461-45.641-30.461s-38.207,12.578-45.641,30.461l-0.002-0.003c-15.555,35.707-36.712,54.127-36.712,54.127
	h0.007c-10.11,9.048-16.477,22.192-16.477,36.827c0,27.29,22.123,49.413,49.413,49.413c4.45,0,8.759-0.598,12.86-1.7
	c10.204-1.217,24.673-2.638,36.554-2.638c11.967,0,26.671,1.443,36.98,2.665c4.074,1.086,8.351,1.673,12.766,1.673
	c27.29,0,49.413-22.123,49.413-49.413C355.163,376.326,347.666,362.209,336.028,353.168z"/>
<path style="fill:#8C4A14;" d="M336.028,353.168c-5.909-5.853-21.934-23.344-34.382-51.919l-0.002,0.004
	c-7.435-17.883-25.066-30.461-45.641-30.461c-3.869,0-7.634,0.444-11.247,1.285c15.599,3.633,28.358,14.654,34.394,29.175
	l0.002-0.004c12.448,28.574,28.472,46.066,34.382,51.919c11.638,9.041,19.135,23.159,19.135,39.036
	c0,23.405-16.278,42.996-38.126,48.104c3.603,0.838,7.347,1.31,11.206,1.31c27.29,0,49.413-22.123,49.413-49.414
	C355.163,376.326,347.666,362.209,336.028,353.168z"/>
<ellipse transform="matrix(-0.1176 -0.9931 0.9931 -0.1176 22.4334 440.6801)" style="fill:#A86B38;" cx="207.004" cy="210.373" rx="49.4" ry="36.615"/>
<path style="fill:#8C4A14;" d="M243.367,206.053c-3.21-27.093-22.089-47.126-42.171-44.748c-2.766,0.327-5.404,1.076-7.9,2.173
	c13.939,5.895,25.169,22.249,27.577,42.576c2.768,23.361-7.026,44.329-22.648,51.191c4.639,1.963,9.579,2.767,14.594,2.173
	C232.9,257.038,246.577,233.146,243.367,206.053z"/>
<ellipse transform="matrix(-0.459 -0.8884 0.8884 -0.459 -39.9953 545.8498)" style="fill:#A86B38;" cx="146.193" cy="285.102" rx="36.168" ry="26.81"/>
<path style="fill:#8C4A14;" d="M170.009,272.821c-9.169-17.748-27.266-26.627-40.421-19.831c-0.359,0.184-0.707,0.385-1.052,0.588
	c7.414,3.557,14.34,10.261,18.98,19.242c8.919,17.265,6.101,36.558-6.165,43.853c7.238,3.473,14.943,3.948,21.442,0.589
	C175.946,310.467,179.178,290.569,170.009,272.821z"/>
<ellipse transform="matrix(-0.1176 0.9931 -0.9931 -0.1176 549.7384 -67.751)" style="fill:#A86B38;" cx="304.97" cy="210.365" rx="49.4" ry="36.615"/>
<path style="fill:#8C4A14;" d="M310.805,161.306c-5.015-0.594-9.954,0.209-14.595,2.173c15.623,6.862,25.416,27.829,22.649,51.191
	c-2.408,20.326-13.638,36.68-27.577,42.576c2.496,1.097,5.134,1.846,7.9,2.173c20.081,2.379,38.962-17.656,42.171-44.748
	C344.562,187.576,330.885,163.684,310.805,161.306z"/>
<ellipse transform="matrix(-0.459 0.8884 -0.8884 -0.459 787.0861 91.0111)" style="fill:#A86B38;" cx="365.834" cy="285.143" rx="36.168" ry="26.81"/>
<path style="fill:#8C4A14;" d="M382.414,252.989c-6.499-3.357-14.203-2.884-21.443,0.589c12.269,7.293,15.086,26.589,6.168,43.853
	c-4.639,8.98-11.565,15.684-18.979,19.242c0.344,0.205,0.692,0.403,1.05,0.588c13.155,6.796,31.252-2.083,40.421-19.832
	C398.8,279.681,395.569,259.784,382.414,252.989z"/>
<polygon style="fill:#F94851;" points="300.354,350.681 271.783,350.681 271.783,322.11 240.217,322.11 240.217,350.681 
	211.647,350.681 211.647,382.248 240.217,382.248 240.217,410.817 271.783,410.817 271.783,382.248 300.354,382.248 "/>
<path d="M202.674,297.774c-1.288,2.853-0.93,6.314,1.208,8.879c1.889,2.267,4.827,3.385,7.743,2.939
	c2.917-0.442,5.393-2.376,6.525-5.101c6.38-15.347,21.238-25.263,37.853-25.263s31.472,9.916,37.853,25.263
	c0.052,0.124,0.106,0.247,0.163,0.368c12.926,29.563,29.525,47.816,36.074,54.303c0.24,0.237,0.494,0.46,0.761,0.668
	c10.089,7.837,15.875,19.637,15.875,32.374c0,22.595-18.383,40.978-40.979,40.978c-3.573,0-7.137-0.467-10.593-1.389
	c-0.387-0.103-0.782-0.179-1.18-0.226c-10.481-1.243-25.577-2.724-37.974-2.724c-12.325,0-27.223,1.468-37.551,2.697
	c-0.403,0.048-0.801,0.125-1.192,0.229c-3.485,0.937-7.075,1.413-10.671,1.413c-22.595,0-40.978-18.384-40.978-40.978
	c0-11.637,4.982-22.768,13.668-30.541c0.063-0.056,0.125-0.114,0.186-0.171c1.815-1.633,11.795-10.942,22.798-27.629
	c2.564-3.889,1.49-9.12-2.4-11.685c-3.889-2.563-9.121-1.488-11.685,2.4c-10.541,15.989-19.99,24.369-20.069,24.439
	c-0.105,0.09-0.206,0.183-0.304,0.278c-12.119,10.96-19.063,26.582-19.063,42.91c0,31.898,25.95,57.848,57.848,57.848
	c4.863,0,9.716-0.615,14.436-1.829c9.844-1.162,23.702-2.51,34.978-2.51c11.355,0,25.416,1.365,35.415,2.539
	c4.683,1.195,9.501,1.801,14.332,1.801c31.898,0,57.849-25.95,57.849-57.848c0-17.807-8.001-34.31-21.972-45.365
	c-6.093-6.099-20.694-22.438-32.246-48.957c-0.018-0.04-0.035-0.08-0.053-0.12c-9.063-21.516-29.963-35.402-53.323-35.402
	C232.638,262.357,211.735,276.25,202.674,297.774z"/>
<path d="M200.204,152.929c-24.667,2.923-41.683,31.064-37.931,62.732c3.539,29.875,24.314,52.381,47.366,52.378
	c1.383,0,2.778-0.081,4.172-0.246c12.432-1.473,23.206-9.143,30.337-21.599c6.662-11.638,9.359-26.245,7.596-41.131
	C247.991,173.395,224.858,150.022,200.204,152.929z M229.505,237.813c-4.409,7.702-10.688,12.398-17.68,13.227
	c-15.172,1.82-30.19-15.312-32.803-37.363c-2.611-22.05,7.996-42.198,23.163-43.994c0.734-0.087,1.467-0.129,2.199-0.129
	c14.393,0,28.119,16.512,30.604,37.494v0.001C236.331,218.366,234.383,229.292,229.505,237.813z"/>
<path d="M125.715,245.495c-8.668,4.478-14.659,13.319-16.435,24.255c-1.651,10.167,0.336,21.372,5.595,31.552
	c8.562,16.573,23.992,26.629,38.481,26.629c4.616,0,9.134-1.02,13.306-3.175c17.266-8.921,22.129-33.954,10.839-55.807h0.001
	c-5.259-10.18-13.247-18.285-22.494-22.822C145.059,241.246,134.383,241.017,125.715,245.495z M162.514,276.692
	c6.901,13.358,5.254,28.504-3.594,33.076c-8.851,4.573-22.156-2.851-29.055-16.209c-3.558-6.887-4.991-14.58-3.932-21.105
	c0.535-3.296,2.225-9.233,7.526-11.973c1.893-0.977,3.851-1.344,5.723-1.344c3.373,0,6.468,1.19,8.394,2.135
	C153.512,264.185,158.957,269.805,162.514,276.692z"/>
<path d="M311.796,152.929c-24.652-2.897-47.787,20.465-51.539,52.132v0.001c-1.763,14.886,0.935,29.494,7.596,41.131
	c7.13,12.456,17.903,20.126,30.335,21.599c1.44,0.17,2.876,0.255,4.307,0.255c10.932,0,21.533-4.933,30.235-14.17
	c9.197-9.759,15.233-23.331,16.996-38.217c1.763-14.887-0.933-29.495-7.596-41.132C335.003,162.073,324.228,154.401,311.796,152.929
	z M332.976,213.676c-1.341,11.319-5.787,21.488-12.521,28.633c-6.088,6.458-13.288,9.558-20.282,8.731
	c-6.992-0.828-13.27-5.525-17.68-13.227c-4.878-8.52-6.824-19.446-5.484-30.767v0.001c2.613-22.049,17.638-39.147,32.802-37.366
	c6.992,0.828,13.271,5.525,17.68,13.228C332.37,191.43,334.318,202.357,332.976,213.676z"/>
<path d="M334.498,268.95c-5.259,10.18-7.245,21.385-5.595,31.552c1.777,10.936,7.767,19.777,16.435,24.254
	c4.134,2.136,8.725,3.202,13.477,3.201c5.209,0,10.612-1.281,15.816-3.833c9.247-4.536,17.236-12.64,22.494-22.82
	c5.259-10.18,7.246-21.385,5.595-31.552c-1.777-10.937-7.767-19.778-16.435-24.255c-8.668-4.478-19.345-4.249-29.292,0.633
	C347.745,250.665,339.757,258.769,334.498,268.95z M349.486,276.692L349.486,276.692c3.558-6.887,9.003-12.507,14.938-15.419
	c1.928-0.946,5.022-2.135,8.394-2.135c1.873,0,3.832,0.367,5.723,1.344c5.302,2.74,6.991,8.677,7.526,11.973
	c1.059,6.525-0.373,14.218-3.932,21.105c-3.557,6.887-9.002,12.506-14.938,15.419c-2.997,1.471-8.818,3.528-14.119,0.79
	c-5.302-2.739-6.991-8.677-7.526-11.973C344.495,291.271,345.928,283.579,349.486,276.692z"/>
<path d="M503.565,405.632c-4.658,0-8.435,3.777-8.435,8.435v39.135c0,4.652-3.783,8.435-8.435,8.435H25.305
	c-4.652,0-8.435-3.783-8.435-8.435v-229.06c0-4.659-3.777-8.435-8.435-8.435S0,219.482,0,224.141v229.06
	c0,13.952,11.351,25.305,25.305,25.305h461.39c13.954,0,25.305-11.352,25.305-25.305v-39.135
	C512,409.407,508.223,405.632,503.565,405.632z"/>
<path d="M486.695,124.239h-115.84v-52.48c0-21.1-17.052-38.265-38.012-38.265H179.157c-20.96,0-38.012,17.167-38.012,38.265v52.48
	H25.305C11.351,124.239,0,135.591,0,149.544v40.864c0,4.659,3.777,8.435,8.435,8.435s8.435-3.775,8.435-8.435v-40.864
	c0-4.652,3.783-8.435,8.435-8.435h124.275h38.66h135.521h38.66h124.275c4.652,0,8.435,3.783,8.435,8.435V380.33
	c0,4.659,3.777,8.435,8.435,8.435S512,384.99,512,380.33V149.544C512,135.591,500.649,124.239,486.695,124.239z M315.326,124.239
	H196.674V89.314c0-2.794,2.221-5.067,4.952-5.067h108.749c2.73,0,4.951,2.273,4.951,5.067V124.239z M353.986,124.239h-21.79V89.314
	c0-12.096-9.789-21.936-21.821-21.936H201.626c-12.033,0-21.822,9.841-21.822,21.936v34.925h-21.79v-52.48
	c0-11.798,9.484-21.395,21.142-21.395h153.687c11.658,0,21.142,9.598,21.142,21.395V124.239z"/>
<path d="M271.783,313.675h-31.567c-4.658,0-8.435,3.775-8.435,8.435v20.135h-20.136c-4.658,0-8.435,3.775-8.435,8.435v31.567
	c0,4.659,3.777,8.435,8.435,8.435h20.136v20.135c0,4.659,3.777,8.435,8.435,8.435h31.567c4.658,0,8.435-3.775,8.435-8.435v-20.134
	h20.135c4.658,0,8.435-3.775,8.435-8.435v-31.567c0-4.659-3.777-8.435-8.435-8.435h-20.135v-20.135
	C280.218,317.452,276.442,313.675,271.783,313.675z M291.919,359.116v14.697h-20.135c-4.658,0-8.435,3.775-8.435,8.435v20.135
	h-14.697v-20.135c0-4.659-3.777-8.435-8.435-8.435h-20.136v-14.697h20.136c4.658,0,8.435-3.775,8.435-8.435v-20.135h14.697v20.135
	c0,4.659,3.777,8.435,8.435,8.435H291.919z"/>
<g>
</g>
<g>
</g>
<g>
</g>
<g>
</g>
<g>
</g>
<g>
</g>
<g>
</g>
<g>
</g>
<g>
</g>
<g>
</g>
<g>
</g>
<g>
</g>
<g>
</g>
<g>
</g>
<g>
</g>
</svg>
