<svg height="504pt" viewBox="0 0 504.05099 504" width="504pt" xmlns="http://www.w3.org/2000/svg"><path d="m226.957031 167.894531c14.921875-11.191406 35.4375-11.191406 50.359375 0l6.546875-35.839843c-7.964843-9.21875-19.542969-14.519532-31.726562-14.519532-12.183594 0-23.761719 5.300782-31.726563 14.519532zm0 0" fill="#37474f"/><path d="m226.957031 166.972656v.921875l-13.347656 30.46875-18.96875 43.476563c-18.597656 17.253906-43.039063 26.820312-68.40625 26.777344-4.183594.015624-8.363281-.265626-12.503906-.839844-50.425781-6.210938-88.285157-49.078125-88.214844-99.882813 0-2.855469.082031-5.625.332031-8.394531 3.777344-44.886719 36.875-81.820312 81.082032-90.480469h.085937c6.328125-1.253906 12.765625-1.871093 19.21875-1.847656l56.40625 17.292969c27.488281 18.496094 44.070313 49.375 44.316406 82.507812zm0 0" fill="#37474f"/><path d="m478.757812 167.894531c0 55.625-45.09375 100.722657-100.71875 100.722657-4.238281.015624-8.476562-.261719-12.675781-.839844-20.847656-2.550782-40.355469-11.628906-55.730469-25.9375l-15.359374-35.25-16.957032-38.695313v-.921875c.246094-33.132812 16.828125-64.011718 44.316406-82.507812l50.277344-15.527344 5.792969-1.765625h.335937c52.378907-.007813 96.019532 40.132813 100.386719 92.328125.25 2.769531.332031 5.539062.332031 8.394531zm0 0" fill="#37474f"/><path d="m201.777344 166.972656v.921875l-13.347656 30.46875-.703126 1.609375c-15.027343 13.933594 2.515626 59.730469-73.996093 67.804688-50.425781-6.210938-88.285157-49.078125-88.214844-99.882813 0-2.855469.082031-5.625.332031-8.394531 3.777344-44.886719 36.875-81.820312 81.082032-90.480469h.085937l50.441406 15.445313c27.488281 18.496094 44.074219 49.375 44.320313 82.507812zm0 0" fill="#607d8b"/><path d="m453.578125 167.894531c.066406 50.804688-37.789063 93.671875-88.214844 99.882813-20.847656-2.550782-40.355469-11.628906-55.730469-25.9375l-15.359374-35.25-16.957032-38.695313v-.921875c.246094-33.132812 16.828125-64.011718 44.316406-82.507812l50.277344-15.527344c44.320313 8.59375 77.535156 45.578125 81.332032 90.5625.253906 2.769531.335937 5.539062.335937 8.394531zm0 0" fill="#607d8b"/><path d="m104.578125 315.617188c-37.9375 3.863281-70.921875-8.390626-93.417969-15.105469 9.066406-13.597657 45.074219 10.660156 93.417969 15.105469zm0 0" fill="#795548"/><path d="m370.316406 315.617188c-12.890625 1.355468-25.90625.957031-38.695312-1.171876-5.582032-.957031-11.105469-2.246093-16.535156-3.863281h29.378906c5.429687 1.617188 10.949218 2.90625 16.535156 3.863281 3.105469.503907 6.210938.921876 9.316406 1.171876zm0 0" fill="#795548"/><path d="m403.21875 486.84375c-8.261719 1.550781-16.765625 1.148438-24.84375-1.171875 32.734375-10.914063-11.667969-55.734375-36.34375-65.304687 14.265625 4.660156 29.078125 7.425781 44.066406 8.226562 24.675782 17.292969 51.03125 51.453125 17.121094 58.25zm0 0" fill="#4e342e"/><path d="m478.757812 411.304688c-21.484374 17.207031-49.519531 18.96875-71.761718 16.617187 15.417968-1.410156 30.117187-7.171875 42.386718-16.617187 41.96875-33.574219-50.359374-41.96875-50.359374-41.96875s67.144531-16.785157 67.144531-58.753907c.28125-3.53125-.574219-7.058593-2.433594-10.070312 19.976563-5.960938 31.8125-7.554688 31.8125 10.070312 0 41.96875-67.148437 58.753907-67.148437 58.753907s92.328124 8.394531 50.359374 41.96875zm0 0" fill="#4e342e"/><g fill="#795548"><path d="m449.382812 411.304688c-12.269531 9.445312-26.96875 15.207031-42.386718 16.617187-12.097656-1.25-24.027344-3.78125-35.589844-7.554687 5.210938 2.140624 10.144531 4.902343 14.691406 8.226562-6.394531-.320312-12.761718-1.019531-19.070312-2.089844-1.839844-.261718-3.632813.71875-4.40625 2.402344-.773438 1.6875-.347656 3.683594 1.046875 4.910156 20.984375 17.1875 38.929687 43.789063 14.730469 51.855469-32.253907-8.5625-59.113282-40.792969-59.113282-40.792969 1.335938 8.914063 1.617188 17.960938.839844 26.941406-1.261719 12.003907-5.625 23.417969-17.628906 23.417969-6.359375.023438-12.582032-1.847656-17.875-5.371093-26.609375-17.207032-32.484375-70.167969-32.484375-70.167969-2.152344 17.144531-7.113281 33.820312-14.6875 49.351562-7.722657 14.351563-19.054688 26.1875-35.671875 26.1875-4.46875.125-8.730469-1.867187-11.5-5.371093-10.660156-13.011719-5.289063-44.988282-5.289063-44.988282-8.894531 10.214844-19.050781 19.269532-30.214843 26.941406-15.191407 10.324219-34.496094 18.886719-53.71875 15.023438-1.53125-.308594-3.042969-.703125-4.53125-1.171875-32.734376-10.914063 11.664062-55.734375 36.34375-65.304687-14.265626 4.660156-29.082032 7.425781-44.066407 8.226562-6.972656.398438-13.96875.175781-20.898437-.671875-15.421875-1.410156-30.121094-7.171875-42.386719-16.617187-41.96875-33.574219 50.359375-41.96875 50.359375-41.96875s-67.148438-16.785157-67.148438-58.753907c-.277343-3.53125.574219-7.058593 2.433594-10.070312 22.496094 6.714843 55.480469 18.96875 93.417969 15.105469 12.894531 1.355468 25.910156.957031 38.695313-1.171876 5.585937-.957031 11.105468-2.246093 16.535156-3.863281h155.277344c5.429687 1.617188 10.953124 2.90625 16.535156 3.863281 12.789062 2.128907 25.804687 2.527344 38.695312 1.171876 37.9375 3.863281 70.925782-8.390626 93.417969-15.105469 1.859375 3.011719 2.714844 6.539062 2.433594 10.070312 0 28.421875-30.792969 45.324219-50.679688 53.222657-1.6875.726562-2.710937 2.46875-2.519531 4.296874.195312 1.828126 1.554688 3.320313 3.359375 3.679688 24.46875 4.40625 63.035156 15.535156 33.054687 39.523438zm0 0"/><path d="m159.808594 310.582031c-5.429688 1.617188-10.949219 2.90625-16.535156 3.863281-12.785157 2.128907-25.800782 2.527344-38.695313 1.171876 3.105469-.25 6.214844-.667969 9.320313-1.171876 5.582031-.957031 11.105468-2.246093 16.535156-3.863281zm0 0"/><path d="m406.996094 427.921875c-6.933594.847656-13.925782 1.070313-20.898438.671875-4.546875-3.324219-9.480468-6.085938-14.691406-8.226562 11.5625 3.773437 23.492188 6.304687 35.589844 7.554687zm0 0"/><path d="m463.734375 300.511719c-22.492187 6.714843-55.480469 18.96875-93.417969 15.105469 48.347656-4.445313 84.355469-28.703126 93.417969-15.105469zm0 0"/></g><path d="m193.382812 167.894531c-.015624 35.429688-27.558593 64.753907-62.921874 66.980469-35.359376 2.230469-66.371094-23.398438-70.835938-58.546875-4.46875-35.148437 19.140625-67.71875 53.9375-74.40625 4.179688-.777344 8.421875-1.171875 12.671875-1.175781 17.824219-.046875 34.929687 7.011718 47.53125 19.617187 12.605469 12.601563 19.664063 29.707031 19.617187 47.53125zm0 0" fill="#00838f"/><path d="m445.1875 167.894531c-.050781 37.0625-30.085938 67.097657-67.148438 67.148438-3.398437 0-6.796874-.25-10.15625-.757813-.789062-.097656-1.574218-.238281-2.351562-.417968h-.082031l-2.265625-.503907c-2.773438-.605469-5.496094-1.417969-8.144532-2.433593-.753906-.253907-1.507812-.503907-2.265624-.839844-8.300782-3.394532-15.832032-8.417969-22.15625-14.773438-.589844-.585937-1.175782-1.175781-1.765626-1.84375-3.816406-4.113281-7.117187-8.679687-9.820312-13.597656-.753906-1.429688-1.425781-2.855469-2.097656-4.28125-8.539063-18.722656-8.007813-40.332031 1.445312-58.609375 9.449219-18.28125 26.773438-31.207031 46.984375-35.0625 4.179688-.777344 8.421875-1.171875 12.675781-1.175781 31.128907.042968 58.167969 21.421875 65.382813 51.703125.421875 1.933593.839844 3.863281 1.09375 5.875.082031.839843.25 1.765625.335937 2.769531.234376 2.261719.347657 4.53125.335938 6.800781zm0 0" fill="#00838f"/><path d="m168.203125 167.894531c-.058594 32.15625-22.835937 59.785157-54.390625 65.972657-31.707031-5.949219-54.707031-33.605469-54.765625-65.867188-.0625-32.261719 22.828125-60.007812 54.515625-66.078125 31.746094 5.925781 54.730469 33.679687 54.640625 65.972656zm0 0" fill="#00bcd4"/><path d="m420.003906 167.894531c-.0625 32.179688-22.882812 59.820313-54.472656 65.972657h-.082031l-2.265625-.503907c-2.773438-.605469-5.496094-1.417969-8.144532-2.433593-.753906-.253907-1.507812-.503907-2.265624-.839844-8.300782-3.394532-15.832032-8.417969-22.15625-14.773438-.589844-.585937-1.175782-1.175781-1.765626-1.84375-3.816406-4.113281-7.117187-8.679687-9.820312-13.597656-.753906-1.429688-1.425781-2.855469-2.097656-4.28125-8.539063-18.722656-8.007813-40.332031 1.445312-58.609375 9.449219-18.28125 26.773438-31.207031 46.984375-35.0625 26.035157 4.964844 46.738281 24.746094 52.878907 50.527344.421874 1.933593.839843 3.863281 1.09375 5.875.082031.839843.25 1.765625.332031 2.769531.238281 2.261719.351562 4.53125.335937 6.800781zm0 0" fill="#00bcd4"/><path d="m190.695312 347.09375c.519532 1.859375 1.164063 3.683594 1.933594 5.457031-3.3125-.085937-6.589844-.652343-9.738281-1.679687 2.753906-.914063 5.378906-2.1875 7.804687-3.777344zm0 0" fill="#bfa885"/><path d="m344.464844 318.976562c0 18.542969-15.03125 33.574219-33.574219 33.574219-3.566406.007813-7.109375-.558593-10.492187-1.679687 15.671874-5.148438 25.277343-20.921875 22.667968-37.207032-2.609375-16.289062-16.664062-28.265624-33.160156-28.261718 0 0 7.472656-112.304688-48.261719-124.726563 3.441407-.785156 6.960938-1.179687 10.492188-1.175781 67.148437 0 58.753906 125.902344 58.753906 125.902344 18.542969 0 33.574219 15.03125 33.574219 33.574218zm0 0" fill="#bfa885"/><path d="m323.480469 318.976562c0 14.5-9.308594 27.363282-23.082031 31.894532-2.753907-.914063-5.378907-2.1875-7.804688-3.777344-5.042969 18.160156-21.609375 30.707031-40.457031 30.636719-3.515625.023437-7.015625-.425781-10.40625-1.34375h-.167969c-14.4375-3.800781-25.792969-14.9375-29.882812-29.292969-5.441407 3.554688-11.796876 5.453125-18.296876 5.457031h-.753906c-.769531-1.773437-1.414062-3.597656-1.933594-5.457031-2.425781 1.589844-5.050781 2.863281-7.804687 3.777344-15.667969-5.148438-25.277344-20.921875-22.667969-37.207032 2.609375-16.289062 16.664063-28.265624 33.160156-28.261718 0 0-7.46875-112.304688 48.261719-124.726563 55.734375 12.421875 48.261719 124.726563 48.261719 124.726563 18.542969 0 33.574219 15.03125 33.574219 33.574218zm0 0" fill="#ffe0b2"/><path d="m300.398438 350.871094c-3.148438 1.027344-6.425782 1.59375-9.734376 1.679687.765626-1.773437 1.410157-3.597656 1.929688-5.457031 2.425781 1.589844 5.050781 2.863281 7.804688 3.777344zm0 0" fill="#bfa885"/><path d="m218.5625 58.78125c0 21.066406-17.457031 28.453125-42.386719 25.011719h-.082031c-17.398438-2.847657-34.230469-8.457031-49.859375-16.621094-20.691406-10.921875-44.085937-15.671875-67.398437-13.679687-16.285157 1.089843-29.882813 4.785156-41.714844 5.289062-2.019532.140625-4.011719-.523438-5.539063-1.847656-2.203125-1.746094-3.386719-4.480469-3.148437-7.28125.234375-2.800782 1.859375-5.300782 4.320312-6.652344.789063-.441406 1.601563-.835938 2.4375-1.175781 20.308594-10.660157 66.390625-30.382813 96.269532-33.070313 2.121093-.230468 4.25-.34375 6.378906-.335937 54.222656 0 94.09375 10.914062 99.96875 42.050781.515625 2.742188.769531 5.523438.753906 8.3125zm0 0" fill="#f57c00"/><path d="m197.578125 58.78125c.8125 12.753906-8.671875 23.839844-21.402344 25.011719h-.082031c-17.398438-2.847657-34.230469-8.457031-49.859375-16.621094-20.691406-10.921875-44.085937-15.671875-67.398437-13.679687-15.835938-.933594-31.722657.222656-47.253907 3.441406-2.203125-1.746094-3.386719-4.480469-3.148437-7.28125.234375-2.800782 1.859375-5.300782 4.320312-6.652344.789063-.441406 1.601563-.835938 2.4375-1.175781 20.308594-10.660157 66.390625-30.382813 96.269532-33.070313 46.667968 1.847656 79.992187 13.429688 85.363281 41.714844.515625 2.742188.769531 5.523438.753906 8.3125zm0 0" fill="#ff9801"/><path d="m486.816406 58.78125c-7.722656-.335938-16.113281-2.015625-25.597656-3.441406-24.085938-4.832032-49.054688-2.527344-71.847656 6.628906-3.777344 1.511719-7.640625 3.191406-11.667969 5.203125-16.683594 8.84375-34.824219 14.617187-53.550781 17.039063-22.996094 2.265624-38.777344-5.371094-38.777344-25.429688 0-3.046875.308594-6.085938.921875-9.066406 3.628906-14.507813 14.480469-26.117188 28.707031-30.71875h.167969c22.746094-8.03125 46.824219-11.621094 70.925781-10.578125 29.375 0 81.164063 22.160156 102.816406 33.40625.757813.421875 1.511719.839843 2.183594 1.175781 3.4375 1.847656 5.144532 5.824219 4.125 9.589844-1.023437 3.765625-4.503906 6.332031-8.40625 6.191406zm0 0" fill="#f57c00"/><path d="m461.21875 55.339844c-24.085938-4.832032-49.054688-2.527344-71.847656 6.628906-15.789063 1.714844-31.125 6.324219-45.242188 13.597656-6.488281 3.257813-13.160156 6.144532-19.976562 8.644532-22.996094 2.265624-38.777344-5.371094-38.777344-25.429688 0-3.046875.308594-6.085938.921875-9.066406 3.628906-14.507813 14.480469-26.117188 28.707031-30.71875h.167969c12.390625-1.542969 24.867187-2.273438 37.351563-2.183594 29.375 0 81.164062 22.160156 102.820312 33.40625.753906.417969 1.507812.839844 2.179688 1.175781 1.65625.84375 2.960937 2.238281 3.695312 3.945313zm0 0" fill="#ff9801"/><path d="m252.136719 235.042969c0 4.632812-3.757813 8.390625-8.394531 8.390625-4.632813 0-8.390626-3.757813-8.390626-8.390625 0-4.636719 3.757813-8.394531 8.390626-8.394531 4.636718 0 8.394531 3.757812 8.394531 8.394531zm0 0"/><path d="m126.234375 92.351562c-41.71875 0-75.539063 33.824219-75.539063 75.542969s33.820313 75.539063 75.539063 75.539063c41.722656 0 75.542969-33.820313 75.542969-75.539063-.050782-41.699219-33.84375-75.492187-75.542969-75.542969zm0 134.296876c-32.449219 0-58.753906-26.304688-58.753906-58.753907s26.304687-58.753906 58.753906-58.753906 58.753906 26.304687 58.753906 58.753906c-.035156 32.433594-26.320312 58.71875-58.753906 58.753907zm0 0"/><path d="m486.726562 176.289062h8.820313c4.636719 0 8.394531-3.757812 8.394531-8.394531s-3.757812-8.394531-8.394531-8.394531h-8.820313c-3.453124-44.210938-33.28125-81.949219-75.5-95.515625 18.121094-3.484375 36.761719-3.265625 54.800782.636719 6.753906 1.253906 13.582031 2.09375 20.4375 2.519531 7.859375.488281 14.953125-4.699219 16.863281-12.339844 2.171875-7.527343-1.257813-15.542969-8.203125-19.171875-20.621094-11.144531-76.714844-35.6015622-109.054688-35.6015622-72.402343 0-109.113281 19.7656252-109.113281 58.7539062-.652343 11.347656 4.949219 22.148438 14.605469 28.148438 2.914062 1.734374 6.050781 3.0625 9.324219 3.945312-8.023438 8.042969-14.757813 17.273438-19.960938 27.371094-17.273437-12.140625-40.304687-12.140625-57.578125 0-5.222656-10.132813-11.984375-19.394532-20.042968-27.453125 3.171874-.882813 6.214843-2.183594 9.046874-3.863281 9.652344-6 15.257813-16.800782 14.605469-28.148438 0-38.988281-36.714843-58.7539062-109.117187-58.7539062-32.339844 0-88.429688 24.4570312-109.0625 35.6210942-6.855469 3.722656-10.242188 11.679687-8.175782 19.203124 2.070313 7.523438 9.050782 12.628907 16.847657 12.320313 6.855469-.421875 13.679687-1.265625 20.4375-2.515625 18.109375-3.917969 36.828125-4.121094 55.019531-.597656-42.136719 13.605468-71.898438 51.296875-75.359375 95.441406h-8.820313c-4.636718 0-8.394531 3.757812-8.394531 8.394531s3.757813 8.394531 8.394531 8.394531h8.820313c2.910156 38.222657 25.6875 72.109376 59.984375 89.234376 34.296875 17.128906 75.066406 14.980468 107.375-5.652344-.292969 7.292968-.304688 13.511718-.203125 18.0625-13.65625 2.917968-24.976563 12.425781-30.214844 25.371094-40.449219 11.113281-76.632812 0-103.242187-8.265626-19.539063-6.050781-33.65625-10.433593-43.25-3.359374-5.53125 4.640624-8.398438 11.722656-7.664063 18.902343 0 27.597657 23.335938 45.324219 43.722657 55.566407-16.507813 4.195312-33.398438 11.414062-37.097657 23.726562-2.789062 9.234375 1.675781 18.683594 13.3125 27.984375 22.960938 18.363281 52.128907 20.867187 75.648438 18.710937-11.347657 11.523438-20.042969 25.09375-19.332031 36.996094.394531 6.40625 3.894531 17.726563 22.824218 21.503906 29.855469 5.941407 58.6875-13.429687 75.902344-28.605468-.242188 10.371094 2.820312 20.546875 8.738281 29.066406 4.371094 5.25 10.894531 8.230469 17.726563 8.101562 27.402344 0 42.394531-24.980468 50.359375-47.550781 7.964843 22.570313 22.957031 47.550781 50.359375 47.550781 6.832031.128907 13.355468-2.851562 17.726562-8.101562 5.917969-8.519531 8.980469-18.695312 8.738282-29.066406 17.214843 15.160156 46.046874 34.582031 75.902343 28.605468 18.925781-3.777343 22.417969-15.109374 22.820313-21.503906.742187-11.875-7.972656-25.472656-19.304688-36.996094 23.503906 2.136719 52.695313-.347656 75.652344-18.710937 11.617188-9.300781 16.097656-18.707031 13.3125-27.984375-3.703125-12.3125-20.582031-19.539062-37.101562-23.726562 20.363281-10.242188 43.699218-27.96875 43.699218-55.566407.726563-7.195312-2.167968-14.28125-7.722656-18.910156-9.570312-7.058594-23.6875-2.675781-43.242188 3.359375-26.59375 8.234375-62.785156 19.386719-103.242187 8.273438-5.234375-12.949219-16.554687-22.460938-30.214844-25.378907.101563-4.550781.09375-10.769531-.203125-18.066406 32.308594 20.664063 73.097656 22.824219 107.410156 5.695313 34.308594-17.128907 57.09375-51.027344 60-89.265626zm-192.984374-117.507812c0-27.851562 31.054687-41.96875 92.328124-41.96875 27.539063 0 79.417969 21.882812 101.082032 33.574219-6.160156-.414063-12.292969-1.195313-18.363282-2.332031-32-7.378907-65.574218-3.269532-94.847656 11.605468-31.265625 15.636719-60.828125 20.851563-73.542968 12.992188-4.707032-2.953125-7.296876-8.351563-6.65625-13.871094zm-19.503907 75.691406c-2.054687 6.359375-3.511719 12.894532-4.359375 19.523438-11.515625-3.851563-23.96875-3.851563-35.484375 0-.847656-6.628906-2.304687-13.164063-4.359375-19.523438 12.53125-11.394531 31.671875-11.394531 44.203125 0zm-205.238281-89.859375c-11.355469.191407-22.679688 1.34375-33.84375 3.441407-6.078125 1.128906-12.21875 1.910156-18.386719 2.332031 21.652344-11.691407 73.53125-33.574219 101.070313-33.574219 61.273437 0 92.328125 14.117188 92.328125 41.96875.644531 5.515625-1.9375 10.914062-6.636719 13.871094-12.734375 7.875-42.277344 2.644531-73.542969-12.992188-18.839843-9.804687-39.75-14.964844-60.988281-15.046875zm57.234375 215.609375c-49.949219-.980468-90.054687-41.515625-90.507813-91.472656-.457031-49.953125 38.90625-91.210938 88.828126-93.097656 17.222656 8.941406 35.910156 14.71875 55.171874 17.054687 14.875 10.574219 26.300782 25.296875 32.859376 42.328125 3.390624 8.972656 5.347656 18.425782 5.800781 28.007813-1.925781 1.5625-3.746094 3.242187-5.457031 5.035156-16.191407 17.332031-23.257813 45.183594-26.261719 69.480469-16.746094 14.605468-38.214844 22.65625-60.433594 22.664062zm331.71875 50.855469c10.136719-3.140625 25.464844-7.882813 28.300781-5.875.804688 1.671875 1.117188 3.539063.898438 5.378906 0 34.890625-60.1875 50.460938-60.792969 50.613281-4.023437.953126-6.753906 4.691407-6.433594 8.8125.316407 4.121094 3.589844 7.398438 7.710938 7.722657 26.101562 2.382812 51.652343 10.5 53.605469 17.011719.320312 1.074218-.835938 4.558593-7.726563 10.074218-35.253906 28.167969-92.230469 10.070313-100.035156 7.402344-.402344-.152344-.796875-.292969-1.183594-.417969-4.371094-1.546875-9.167969.742188-10.714844 5.113281-1.546875 4.371094.746094 9.167969 5.117188 10.714844.210937.074219.753906.277344 1.601562.5625 17.066407 6.53125 43.410157 31.945313 42.632813 44.394532-.070313 1.054687-.261719 4.28125-9.359375 6.101562-36.496094 7.328125-75.457031-38.652344-75.84375-39.121094-2.429688-2.910156-6.503907-3.832031-9.949219-2.25-3.441406 1.582032-5.398438 5.277344-4.773438 9.011719 1.554688 9.320313 2.71875 30.972656-3.59375 38.417969-1.195312 1.460937-3.03125 2.246094-4.917968 2.097656-33.421875 0-41.964844-67.398438-42.015625-68.078125-.066407-.246094-.144531-.484375-.234375-.722656-.113282-.53125-.273438-1.050781-.488282-1.550781-.203124-.511719-.460937-.996094-.765624-1.453126-.289063-.410156-.609376-.792968-.964844-1.148437-.371094-.390625-.785156-.738281-1.230469-1.042969-.457031-.304687-.945313-.558594-1.453125-.761718-.476562-.203126-.96875-.359376-1.46875-.472657-.277344-.101562-.554688-.1875-.839844-.257812-.320312 0-.613281.089843-.933594.089843-.316406 0-.601562-.117187-.929687-.089843-.328125.023437-.527344.199219-.839844.257812-1.046875.261719-2.042969.6875-2.953125 1.269531-.402344.28125-.777344.597657-1.117187.949219-.785157.726563-1.394531 1.625-1.78125 2.625-.226563.511719-.398438 1.046875-.511719 1.59375-.089844.234375-.167969.472657-.234375.714844.007813.679687-8.535156 68.078125-41.957031 68.078125-1.894532.128906-3.730469-.675781-4.917969-2.15625-5.734375-6.714844-5.550781-26.539062-3.59375-38.433594.59375-3.726562-1.371094-7.394531-4.804687-8.960937-3.4375-1.566407-7.492188-.648438-9.917969 2.246093-.394531.46875-39.28125 46.441407-75.84375 39.113282-9.089844-1.820313-9.289063-5.035156-9.359375-6.101563-.769532-12.480469 25.566406-37.90625 42.632812-44.460937.839844-.285156 1.390625-.484375 1.601563-.5625 4.371093-1.542969 6.664062-6.339844 5.117187-10.710938-1.546875-4.375-6.34375-6.664062-10.714844-5.117187-.410156.140625-.839843.285156-1.257812.445312-8.09375 2.777344-64.75 20.746094-99.960938-7.429687-6.847656-5.480469-8.046874-8.964844-7.71875-10.070313 1.953126-6.449219 27.496094-14.5625 53.597657-16.914062 4.078125-.371094 7.292969-3.628907 7.609375-7.710938s-2.359375-7.796875-6.332032-8.789062c-.613281-.1875-60.792968-16.234375-60.792968-50.648438-.21875-1.847656.089844-3.722656.890625-5.40625 2.859375-1.980469 18.171875 2.753907 28.316406 5.878907 25.527344 7.921874 63.121094 19.511718 105.320313 10.261718 1.210937 22.183594 19.519531 39.566406 41.734374 39.628906 4.734376-.042968 9.425782-.894531 13.875-2.519531 8.527344 16.960938 25.890626 27.667969 44.875 27.667969 18.984376 0 36.347657-10.707031 44.875-27.667969 12.410157 4.496094 26.222657 2.824219 37.199219-4.507812 10.976563-7.332031 17.816407-19.445313 18.414063-32.632813 42.203125 9.289063 79.816406-2.308594 105.332031-10.207031zm-121.882813 7.898437c.070313 8.28125-3.96875 16.054688-10.78125 20.761719s-15.515624 5.734375-23.238281 2.738281c.292969-2.226562.441407-4.46875.445313-6.714843-.027344-14.089844-5.9375-27.53125-16.308594-37.074219-3.414062-3.144531-8.730469-2.925781-11.875.488281-3.144531 3.414063-2.925781 8.730469.488281 11.878907 10.203125 9.355468 13.621094 24.015624 8.601563 36.917968-5.019532 12.902344-17.445313 21.402344-31.289063 21.402344-13.847656 0-26.273437-8.5-31.292969-21.402344-5.019531-12.902344-1.601562-27.5625 8.605469-36.917968 3.414063-3.140626 3.636719-8.453126.496094-11.867188-3.136719-3.414062-8.449219-3.636719-11.863281-.5-10.359375 9.550781-16.261719 22.988281-16.28125 37.074219.003906 2.246093.152344 4.488281.445312 6.714843-9.457031 3.636719-20.171875 1.253907-27.191406-6.050781-7.023438-7.300781-8.980469-18.101562-4.976562-27.40625 4.003906-9.304687 13.199218-15.304687 23.328124-15.222656h.554688c.449219-.082031.890625-.203125 1.316406-.363281.574219-.089844 1.136719-.238282 1.679688-.445313.46875-.25.910156-.546875 1.316406-.886719.453125-.289062.878906-.617187 1.269531-.984374.335938-.410157.636719-.847657.886719-1.316407.328125-.433593.609375-.898437.839844-1.386719.167968-.527343.277344-1.074218.328125-1.625.109375-.457031.179687-.917968.203125-1.386718 0-.101563-.050782-.183594-.058594-.285156-.011719-.101563.039062-.175782.039062-.269532-.050781-.753906-4.671874-75.261718 23.402344-105.269531 1.3125-1.328125 2.714844-2.5625 4.195313-3.703125.09375 0 .175781-.089844.261719-.117188.53125-.1875 1.039062-.433593 1.519531-.730468.300781-.121094.59375-.261719.882812-.417969 11.992188-8.78125 28.292969-8.78125 40.285157 0 .363281.222656.742187.421875 1.132812.585937.304688.1875.617188.351563.941406.496094.210938.074219.410156.160156.628906.226563 1.457032 1.117187 2.832032 2.339843 4.113282 3.652343 28.035156 29.9375 23.503906 104.53125 23.417968 105.277344v.285156c0 .101563-.042968.175782-.042968.269532.050781.453125.140625.902344.269531 1.34375.058594.570312.171875 1.128906.335937 1.679687.234376.484375.515626.949219.839844 1.382813.253906.46875.550782.910156.890625 1.316406.390625.375.820313.707031 1.28125.992188.40625.335937.839844.628906 1.300781.882812.542969.207031 1.105469.355469 1.679688.445312.425781.15625.863281.277344 1.308594.359376h.269531c.09375 0 .117187-.007813.21875-.007813 13.90625 0 25.179687 11.273437 25.179687 25.179687zm-44.703124-150.863281c-1.707032-1.792969-3.53125-3.476562-5.457032-5.035156.457032-9.582031 2.414063-19.035156 5.800782-28.011719 6.566406-17.058594 18.019531-31.800781 32.929687-42.378906 19.121094-2.382812 37.667969-8.144531 54.773437-17.019531 40.871094.492187 76.554688 27.796875 87.710938 67.121093 11.15625 39.320313-4.871094 81.300782-39.394531 103.183594-34.523438 21.878906-79.324219 18.457032-110.125-8.414062-3.003907-24.296875-10.070313-52.148438-26.238281-69.445313zm0 0"/><path d="m453.578125 167.894531c0-41.71875-33.820313-75.542969-75.539063-75.542969-41.722656 0-75.542968 33.824219-75.542968 75.542969s33.820312 75.539063 75.542968 75.539063c41.699219-.042969 75.492188-33.839844 75.539063-75.539063zm-134.292969 0c0-32.449219 26.304688-58.753906 58.753906-58.753906 32.449219 0 58.753907 26.304687 58.753907 58.753906s-26.304688 58.753907-58.753907 58.753907c-32.433593-.035157-58.71875-26.320313-58.753906-58.753907zm0 0"/><path d="m95.121094 136.78125c-12.328125 10.746094-16.351563 28.199219-9.972656 43.257812 1.339843 2.683594 4.011718 4.449219 7.007812 4.628907 2.992188.183593 5.855469-1.246094 7.511719-3.75 1.652343-2.503907 1.847656-5.699219.503906-8.382813-3.082031-8.597656-.339844-18.207031 6.816406-23.886718 3.179688-3.292969 3.136719-8.527344-.101562-11.765626-3.238281-3.238281-8.472657-3.285156-11.765625-.101562zm0 0"/><path d="m346.921875 136.78125c-12.339844 10.734375-16.378906 28.191406-10.011719 43.257812 1.339844 2.683594 4.011719 4.449219 7.003906 4.628907 2.996094.183593 5.859376-1.246094 7.515626-3.75 1.652343-2.503907 1.84375-5.699219.503906-8.382813-3.082032-8.597656-.339844-18.207031 6.816406-23.886718 3.179688-3.292969 3.136719-8.527344-.101562-11.765626-3.238282-3.238281-8.472657-3.285156-11.765626-.101562zm0 0"/></svg>