<?xml version="1.0" encoding="iso-8859-1"?>
<!-- Generator: Adobe Illustrator 19.0.0, SVG Export Plug-In . SVG Version: 6.00 Build 0)  -->
<svg version="1.1" id="Layer_1" xmlns="http://www.w3.org/2000/svg" xmlns:xlink="http://www.w3.org/1999/xlink" x="0px" y="0px"
	 viewBox="0 0 512 512" style="enable-background:new 0 0 512 512;" xml:space="preserve">
<g>
	<path style="fill:#F25F89;" d="M260.629,62.52c-56.975-10.538-118.013-3.021-173.73,17.904c-5.721,1.804-11.856-1.273-13.801-6.983
		c-1.978-5.79,1.11-12.07,6.9-14.046c32.461-11.062,18.473-52.103-13.987-41.04C37.58,28.046,22.365,59,32.056,87.427
		c8.754,25.681,29.492,35.169,49.15,35.994c7.101,0.298,14.06-0.54,20.259-2.148l20.148-6.87
		c41.659-12.688,86.238-16.996,128.244-9.766l-5.493,21.498l21.039,5.35c29.639,7.539,56.194,22.787,77.426,43.486
		c20.7,21.231,35.945,47.786,43.484,77.423l5.353,21.041l21.493-5.495c7.233,42.004,2.921,86.588-9.764,128.245l-6.867,20.146
		c-1.613,6.202-2.448,13.161-2.15,20.26c0.822,19.657,10.315,40.398,35.989,49.152c28.429,9.692,59.386-5.525,69.078-33.956
		c11.065-32.461-29.979-46.45-41.044-13.989c-1.973,5.79-8.252,8.877-14.044,6.902c-5.71-1.946-8.789-8.077-6.981-13.802
		c20.921-55.714,28.441-116.75,17.9-173.728l20.59-5.261l-5.338-20.99c-11.454-45.025-34.688-85.305-66.246-117.4
		c-32.098-31.563-72.378-54.796-117.403-66.249l-20.987-5.34L260.629,62.52z"/>
	<path style="fill:#C9284B;" d="M433.394,21.632c-31.124,7.036-32.561,55.142,8.893,53.88c-1.263,41.456,46.844,40.019,53.878,8.892
		c3.058-13.537,0.844-28.956-5.428-57.342C462.348,20.79,446.93,18.572,433.394,21.632z"/>
	<polygon style="fill:#F9993A;" points="95.922,362.14 67.279,390.783 20.798,437.264 62.293,455.505 80.537,496.997 
		109.022,468.507 155.658,421.878 137.416,380.381 	"/>
</g>
<g>
	<path style="fill:#000003;" d="M139.677,31.492c0.645,0,1.303-0.059,1.963-0.181c15.541-2.892,31.211-4.798,46.573-5.665
		c5.882-0.334,10.379-5.371,10.048-11.252c-0.332-5.882-5.346-10.373-11.252-10.048c-16.265,0.918-32.842,2.933-49.271,5.991
		c-5.792,1.077-9.613,6.646-8.536,12.437C130.156,27.907,134.637,31.492,139.677,31.492z"/>
	<path style="fill:#000003;" d="M505.939,421.694c-5.832-8.148-15.3-13.012-25.331-13.012c-14.526,0-26.905,9.838-32.302,25.675
		c-0.09,0.264-0.339,0.271-0.369,0.271c-0.041,0-0.085-0.009-0.14-0.027c-0.201-0.067-0.281-0.243-0.267-0.404
		c21.187-56.634,28.005-114.869,19.883-169.12l11.094-2.833c5.702-1.458,9.148-7.259,7.696-12.964l-5.338-20.99
		c-10.83-42.573-32.088-81.963-61.714-114.556l16.525-16.525c2.033,4.4,4.55,7.716,6.892,10.129
		c6.614,6.821,15.679,10.577,25.525,10.579c0.002,0,0.002,0,0.002,0c18.507,0,34.328-12.815,38.473-31.161
		c3.561-15.756,1.09-32.544-5.417-61.994c-0.896-4.054-4.062-7.219-8.114-8.114c-19.679-4.348-34.344-7.044-46.635-7.044
		c-5.499,0-10.524,0.531-15.36,1.625c-19.842,4.485-33.136,22.822-30.922,42.654c1.173,10.521,7.316,22.282,20.416,28.296
		l-16.469,16.47c-32.593-29.629-71.983-50.89-114.557-61.717l-20.988-5.34c-5.705-1.447-11.506,1.994-12.964,7.696l-2.836,11.1
		c-14.591-2.171-29.636-3.27-44.862-3.27c-40.813,0-83.771,8.006-124.265,23.154c-0.009,0-0.018,0.002-0.027,0.002
		c-0.028,0-0.281-0.009-0.373-0.279c-0.019-0.057-0.054-0.158,0.017-0.302c0.073-0.146,0.181-0.183,0.231-0.201
		c20.566-7.01,27.504-23.829,25.258-37.39C106.132,16.624,92.932,5.813,76.597,5.813c-4.547,0-9.267,0.822-14.027,2.446
		c-16.449,5.606-29.732,17.292-37.406,32.903s-8.812,33.263-3.205,49.709c8.122,23.823,27.047,39.202,51.642,42.573l81.357,214.309
		l-19.929,19.93l-34.817-15.307c-4.025-1.771-8.725-0.887-11.836,2.221l-75.124,75.126c-0.063,0.063-0.114,0.131-0.176,0.194
		c-0.158,0.164-0.311,0.331-0.459,0.509c-0.099,0.118-0.192,0.24-0.285,0.363c-0.114,0.15-0.229,0.3-0.336,0.457
		c-0.112,0.164-0.215,0.332-0.318,0.5c-0.075,0.125-0.151,0.247-0.221,0.375c-0.115,0.208-0.219,0.421-0.319,0.636
		c-0.034,0.075-0.076,0.144-0.109,0.219c-0.014,0.031-0.025,0.064-0.036,0.096c-0.095,0.221-0.177,0.446-0.256,0.671
		c-0.041,0.116-0.085,0.234-0.122,0.35c-0.061,0.194-0.109,0.391-0.157,0.588c-0.039,0.153-0.081,0.306-0.113,0.459
		c-0.031,0.155-0.052,0.31-0.077,0.465c-0.03,0.194-0.064,0.389-0.083,0.583c-0.013,0.121-0.015,0.242-0.022,0.365
		c-0.015,0.223-0.031,0.448-0.032,0.671c-0.001,0.114,0.01,0.229,0.012,0.343c0.007,0.225,0.013,0.448,0.033,0.673
		c0.013,0.144,0.037,0.288,0.057,0.431c0.026,0.19,0.047,0.379,0.081,0.564c0.037,0.194,0.087,0.385,0.134,0.577
		c0.033,0.133,0.061,0.271,0.099,0.404c0.063,0.221,0.142,0.437,0.22,0.656c0.036,0.102,0.068,0.206,0.108,0.306
		c0.083,0.212,0.182,0.421,0.282,0.629c0.048,0.107,0.092,0.212,0.145,0.315c0.093,0.181,0.197,0.354,0.301,0.531
		c0.075,0.129,0.146,0.258,0.227,0.385c0.09,0.138,0.189,0.271,0.285,0.406c0.113,0.158,0.223,0.317,0.343,0.468
		c0.083,0.105,0.172,0.202,0.258,0.302c0.15,0.175,0.301,0.346,0.463,0.512c0.027,0.027,0.049,0.057,0.075,0.083
		c0.063,0.063,0.131,0.114,0.196,0.175c0.164,0.158,0.331,0.313,0.508,0.461c0.116,0.098,0.236,0.188,0.356,0.279
		c0.153,0.116,0.305,0.234,0.465,0.341c0.159,0.111,0.322,0.208,0.485,0.308c0.129,0.079,0.258,0.158,0.394,0.234
		c0.201,0.109,0.404,0.208,0.608,0.304c0.081,0.037,0.157,0.083,0.238,0.118l37.694,16.571l16.573,37.692
		c0.019,0.046,0.047,0.083,0.067,0.127c0.181,0.398,0.386,0.785,0.619,1.163c0.037,0.061,0.07,0.125,0.109,0.183
		c0.244,0.379,0.516,0.743,0.813,1.095c0.09,0.107,0.183,0.204,0.277,0.306c0.112,0.125,0.218,0.254,0.337,0.375
		c0.118,0.118,0.247,0.221,0.371,0.334c0.102,0.094,0.201,0.19,0.306,0.277c0.345,0.291,0.7,0.558,1.071,0.8
		c0.052,0.033,0.107,0.061,0.159,0.094c0.347,0.217,0.705,0.409,1.07,0.581c0.087,0.042,0.175,0.083,0.265,0.123
		c0.425,0.188,0.854,0.354,1.296,0.483c0.002,0,0.006,0.002,0.01,0.002c0.425,0.125,0.858,0.212,1.293,0.284
		c0.124,0.019,0.247,0.037,0.373,0.052c0.405,0.052,0.813,0.085,1.22,0.09c0.038,0,0.078,0.009,0.116,0.009
		c0.334,0,0.67-0.021,1.005-0.052c0.004,0,0.009,0,0.013,0c0.197-0.019,0.394-0.057,0.592-0.085
		c0.158-0.025,0.317-0.044,0.473-0.073c0.142-0.029,0.284-0.07,0.425-0.105c0.214-0.052,0.429-0.105,0.64-0.169
		c0.111-0.035,0.221-0.077,0.332-0.116c0.239-0.081,0.475-0.169,0.708-0.267c0.033-0.015,0.067-0.025,0.101-0.039
		c0.08-0.035,0.154-0.079,0.235-0.116c0.206-0.098,0.412-0.196,0.612-0.308c0.134-0.073,0.262-0.153,0.393-0.232
		c0.163-0.098,0.325-0.198,0.484-0.306c0.16-0.11,0.315-0.227,0.468-0.346c0.118-0.092,0.237-0.179,0.352-0.277
		c0.178-0.148,0.347-0.304,0.514-0.465c0.063-0.059,0.129-0.111,0.19-0.171l75.121-75.119c3.11-3.11,3.991-7.81,2.223-11.836
		l-15.307-34.819l19.928-19.93l214.351,81.373c3.058,21.829,15.917,42.553,42.531,51.627c6.796,2.317,13.854,3.491,20.979,3.491
		c0.001,0,0.004,0,0.005,0c27.872-0.002,52.639-17.725,61.63-44.103C513.784,442.779,512.505,430.869,505.939,421.694z
		 M435.746,32.036c3.274-0.739,6.759-1.1,10.656-1.1c9.049,0,20.433,1.913,35.365,5.092c4.629,21.773,6.404,35.344,3.991,46.025
		c-2.256,9.983-10.737,14.529-17.663,14.529h-0.002c-4.025,0-7.652-1.456-10.213-4.098c-3.451-3.558-5.156-9.314-4.932-16.648
		c0-0.044-0.004-0.085-0.003-0.127c0.004-0.238-0.003-0.475-0.016-0.713c-0.005-0.114-0.006-0.231-0.017-0.348
		c-0.021-0.258-0.057-0.516-0.096-0.773c-0.014-0.09-0.022-0.179-0.038-0.269c-0.055-0.304-0.126-0.604-0.207-0.905
		c-0.011-0.037-0.017-0.077-0.028-0.116c-0.48-1.69-1.381-3.287-2.713-4.619c-1.265-1.264-2.774-2.142-4.372-2.638
		c-0.027-0.009-0.052-0.019-0.079-0.027c-0.273-0.083-0.55-0.148-0.828-0.208c-0.064-0.013-0.126-0.033-0.191-0.046
		c-0.244-0.048-0.493-0.079-0.74-0.111c-0.099-0.013-0.197-0.033-0.295-0.044c-0.261-0.026-0.524-0.031-0.786-0.037
		c-0.083-0.002-0.166-0.013-0.252-0.013c-0.109,0-0.217,0.002-0.325,0.004c-12.11,0.361-19.659-4.538-20.64-13.333
		C420.464,43.846,425.23,34.414,435.746,32.036z M96.331,133.206c2.638-0.406,5.248-0.94,7.819-1.609
		c0.256-0.067,0.511-0.142,0.761-0.227l19.979-6.815c27.844-8.463,55.768-12.754,82.997-12.754c9.729,0,19.342,0.564,28.702,1.681
		l-2.558,10.011c-0.7,2.743-0.283,5.652,1.163,8.088c1.445,2.435,3.801,4.194,6.544,4.892l21.038,5.35
		c23.762,6.046,45.901,17.55,64.617,33.5L171.5,331.213L96.331,133.206z M375.976,255.023l5.353,21.042
		c0.698,2.743,2.458,5.098,4.892,6.544c2.435,1.445,5.346,1.865,8.087,1.163l10.009-2.56c4.233,35.41,0.454,73.765-11.075,111.699
		l-6.809,19.981c-0.085,0.247-0.16,0.5-0.227,0.756c-0.665,2.555-1.194,5.171-1.604,7.823l-198.018-75.172l155.893-155.891
		C358.427,209.123,369.932,231.261,375.976,255.023z M112.51,449.938l-6.463-14.698c-2.372-5.392-8.664-7.84-14.059-5.471
		c-5.394,2.371-7.842,8.665-5.471,14.059l9.804,22.298l-12.3,12.3l-11.964-27.214c-1.075-2.444-3.028-4.396-5.473-5.471
		l-27.215-11.965l30.291-30.29l22.3,9.806c1.397,0.612,2.854,0.905,4.288,0.905c4.102,0,8.014-2.379,9.77-6.375
		c2.372-5.394-0.077-11.688-5.471-14.059l-14.7-6.465l12.458-12.459l31.016,13.635l13.635,31.017L112.51,449.938z M489.348,448.344
		c-6.045,17.733-22.699,29.65-41.439,29.652c-4.78,0-9.523-0.789-14.098-2.35c-30-10.229-31.152-39.998-27.052-56.267l6.731-19.755
		c0.037-0.11,0.073-0.221,0.109-0.334c13.792-45.29,17.275-91.336,10.073-133.163c-0.506-2.933-2.212-5.521-4.711-7.139
		c-2.497-1.619-5.557-2.121-8.443-1.383l-11.148,2.85l-2.719-10.691c-7.85-30.865-23.821-59.303-46.184-82.24
		c-0.025-0.027-0.05-0.05-0.075-0.075c-0.009-0.009-0.014-0.015-0.021-0.022c-0.006-0.006-0.015-0.013-0.021-0.018
		c-0.025-0.026-0.05-0.05-0.075-0.075c-22.94-22.363-51.379-38.334-82.245-46.186l-10.688-2.717l2.85-11.152
		c0.736-2.883,0.236-5.943-1.383-8.442s-4.208-4.206-7.141-4.713c-14.096-2.425-28.827-3.657-43.784-3.657
		c-29.392,0-59.463,4.621-89.38,13.731c-0.112,0.033-0.224,0.07-0.335,0.109l-19.755,6.737c-4.592,1.158-9.548,1.771-14.361,1.771
		c-0.769,0-1.575-0.017-2.415-0.052c-0.021,0-0.042-0.002-0.063-0.004c-12.256-0.529-31.438-5.338-39.426-28.773
		c-3.767-11.052-3.001-22.918,2.157-33.415c5.161-10.496,14.09-18.352,25.144-22.121c2.54-0.865,4.944-1.305,7.143-1.305
		c7.127,0,10.41,4.548,11.054,8.444c0.975,5.884-3.171,11.008-11.096,13.709c-5.495,1.875-9.934,5.777-12.492,10.986
		c-2.56,5.209-2.937,11.106-1.062,16.594c3.001,8.811,11.265,14.73,20.564,14.73c0,0,0,0,0.001,0c2.217,0,4.418-0.339,6.541-1.01
		c0.181-0.057,0.363-0.118,0.542-0.188c38.25-14.365,78.781-21.958,117.209-21.958c17.378,0,34.479,1.534,50.83,4.558
		c5.521,1.017,10.884-2.411,12.274-7.847l2.625-10.267l10.66,2.713c42.296,10.758,81.191,32.698,112.49,63.452
		c30.753,31.298,52.692,70.194,63.452,112.488l2.711,10.665l-10.266,2.623c-5.439,1.39-8.869,6.754-7.849,12.275
		c9.726,52.579,3.548,112.256-17.398,168.036c-0.067,0.179-0.128,0.358-0.187,0.54c-3.586,11.36,2.437,23.267,13.711,27.108
		c2.273,0.775,4.636,1.167,7.023,1.167c9.298,0,17.561-5.917,20.561-14.723c2.431-7.132,6.845-11.224,12.11-11.224
		c3.164,0,6.148,1.532,7.981,4.094C491.041,437.533,491.31,442.591,489.348,448.344z"/>
	<path style="fill:#000003;" d="M407.261,168.414c-21.408-31.563-50.955-57.075-85.447-73.784
		c-5.303-2.566-11.682-0.352-14.249,4.95c-2.569,5.302-0.353,11.681,4.949,14.25c31.127,15.077,57.784,38.092,77.092,66.558
		c2.064,3.042,5.42,4.682,8.837,4.682c2.061,0,4.144-0.595,5.978-1.84C409.296,179.923,410.567,173.289,407.261,168.414z"/>
	<path style="fill:#000003;" d="M422.557,194.729c-2.612-5.281-9.008-7.445-14.289-4.831c-5.281,2.61-7.444,9.008-4.831,14.289
		l0.535,1.098c1.842,3.806,5.646,6.021,9.609,6.021c1.558,0,3.143-0.341,4.641-1.067c5.302-2.569,7.52-8.948,4.953-14.25
		C422.968,195.569,422.763,195.145,422.557,194.729z"/>
	<path style="fill:#000003;" d="M315.947,442.634l-74.395-28.242c-5.51-2.098-11.667,0.679-13.757,6.188
		c-2.091,5.506,0.679,11.667,6.187,13.757l74.395,28.242c1.246,0.473,2.526,0.698,3.783,0.698c4.303,0,8.357-2.623,9.974-6.885
		C324.225,450.884,321.454,444.724,315.947,442.634z"/>
	<path style="fill:#000003;" d="M18.21,394.234l23.154-23.154c4.164-4.164,4.164-10.918,0-15.086
		c-4.166-4.164-10.921-4.164-15.086,0L3.124,379.148c-4.165,4.166-4.165,10.921,0,15.086c2.082,2.083,4.813,3.125,7.541,3.125
		C13.396,397.358,16.126,396.317,18.21,394.234z"/>
</g>
<g>
</g>
<g>
</g>
<g>
</g>
<g>
</g>
<g>
</g>
<g>
</g>
<g>
</g>
<g>
</g>
<g>
</g>
<g>
</g>
<g>
</g>
<g>
</g>
<g>
</g>
<g>
</g>
<g>
</g>
</svg>
