<?xml version="1.0" encoding="iso-8859-1"?>
<!-- Generator: Adobe Illustrator 19.0.0, SVG Export Plug-In . SVG Version: 6.00 Build 0)  -->
<svg version="1.1" id="Layer_1" xmlns="http://www.w3.org/2000/svg" xmlns:xlink="http://www.w3.org/1999/xlink" x="0px" y="0px"
	 viewBox="0 0 512 512" style="enable-background:new 0 0 512 512;" xml:space="preserve">
<path style="fill:#9B735A;" d="M270.262,128.158c-3.773-5.618-6.78-12.266-6.78-19.033v-2.771c0-4.727-2.756-8.551-7.482-8.551
	c-4.727,0-7.482,3.825-7.482,8.551v2.771c0,6.767-3.007,13.416-6.78,19.033c-44.743,66.617-103.592,127.101-173.863,179.224v106.815
	h376.251V307.382C373.854,255.258,315.005,194.775,270.262,128.158z"/>
<path style="fill:#8C5F50;" d="M279.394,254.388c10.763-25.063,20.074-51.281,26.664-77.922
	c-4.669-5.745-9.118-11.595-13.564-17.448c-9.779,46.437-28.873,92.419-50.164,133.324l73.529,121.854h85.512
	c-28.052-21.039-96.361-111.091-120.028-142.807C277.674,266.474,276.974,260.023,279.394,254.388z"/>
<path style="fill:#464655;" d="M256,264.538c-39.733,85.807-94.063,149.658-94.063,149.658h188.125
	C350.063,414.196,295.733,350.345,256,264.538z"/>
<path style="fill:#8C5F50;" d="M263.482,106.355c1.025-4.614-2.756-8.551-7.482-8.551c-4.727,0-7.482,3.825-7.482,8.551v2.77
	c0,6.767-3.007,13.416-6.779,19.033c-44.744,66.618-103.593,127.102-173.864,179.225v98.263
	C67.875,405.645,229.278,260.276,263.482,106.355z"/>
<path d="M503.983,406.18h-9.086v-86.046c0-4.427-3.589-8.017-8.017-8.017s-8.017,3.589-8.017,8.017v2.115
	c-43.353-29.393-82.972-61.885-117.902-96.746c-37.959-37.883-70.558-78.735-96.945-121.443v-6.256c0-4.427-3.589-8.017-8.017-8.017
	c-4.427,0-8.017,3.589-8.017,8.017v6.256c-26.388,42.709-58.987,83.56-96.945,121.443c-34.93,34.861-74.549,67.353-117.902,96.746
	v-2.115c0-4.427-3.589-8.017-8.017-8.017s-8.017,3.589-8.017,8.017v86.046H8.017c-4.427,0-8.017,3.589-8.017,8.017
	c0,4.427,3.589,8.017,8.017,8.017h495.967c4.427,0,8.017-3.589,8.017-8.017C512,409.769,508.411,406.18,503.983,406.18z
	 M478.864,406.18h-26.722v-82.993c8.749,6.248,17.659,12.367,26.722,18.355V406.18z M162.364,236.852
	c36.185-36.114,67.637-74.885,93.636-115.41c8.398,13.09,17.374,25.993,26.885,38.688c-3.003,14.976-7.148,30.541-12.364,46.322
	c-1.39,4.204,0.891,8.738,5.095,10.128c0.835,0.276,1.684,0.407,2.517,0.407c3.364,0,6.497-2.135,7.611-5.503
	c3.889-11.763,7.2-23.423,9.925-34.843c16.56,20.739,34.577,40.858,53.967,60.21c26.355,26.302,55.312,51.272,86.472,74.614v94.715
	h-82.272c-10.567-12.968-54.982-69.394-89.007-141.68c3.36-7.364,6.604-14.876,9.691-22.511c1.66-4.105-0.323-8.778-4.427-10.437
	c-4.103-1.661-8.778,0.323-10.437,4.427c-34.603,85.591-89.57,155.55-101.496,170.2h-82.27v-94.714
	C107.052,288.123,136.009,263.154,162.364,236.852z M255.989,283.04c27.917,56.216,60.883,101.751,77.408,123.14h-154.8
	C195.098,384.812,228.012,339.325,255.989,283.04z M33.136,341.541c9.063-5.988,17.973-12.107,26.722-18.355v82.993H33.136V341.541z
	"/>
<g>
</g>
<g>
</g>
<g>
</g>
<g>
</g>
<g>
</g>
<g>
</g>
<g>
</g>
<g>
</g>
<g>
</g>
<g>
</g>
<g>
</g>
<g>
</g>
<g>
</g>
<g>
</g>
<g>
</g>
</svg>
