<svg height="512" viewBox="0 0 60 60" width="512" xmlns="http://www.w3.org/2000/svg"><g id="014---Bear-Trap" fill="none"><g id="Layer_3" transform="translate(1 1)"><path id="Shape" d="m46 51.9v4.1c-.0032948 1.1032019-.8967981 1.9967052-2 2h-42c-1.10320187-.0032948-1.9967052-.8967981-2-2v-9l4-12 3.05 9.15c.13488359.4103745.5180268.6877501.95.6877501s.81511641-.2773756.95-.6877501l3.05-9.15 3.05 9.15c.1348836.4103745.5180268.6877501.95.6877501s.8151164-.2773756.95-.6877501l3.05-9.15 3.05 9.15c.1348836.4103745.5180268.6877501.95.6877501s.8151164-.2773756.95-.6877501l3.05-9.15 3.77 11.32c.1411508.4046466.5214529.6768629.95.68h9.28c-.000485 2.3763431 1.6716687 4.4247314 4 4.9z" fill="#9e9e9e"/><path id="Shape" d="m58 2v42c-.0032948 1.1032019-.8967981 1.9967052-2 2h-4.1c-.4752686-2.3283313-2.5236569-4.000485-4.9-4v-9.28c-.0031371-.4285471-.2753534-.8088492-.68-.95l-11.32-3.77 9.15-3.05c.4103745-.1348836.6877501-.5180268.6877501-.95s-.2773756-.8151164-.6877501-.95l-9.15-3.05 9.15-3.05c.4103745-.1348836.6877501-.5180268.6877501-.95s-.2773756-.8151164-.6877501-.95l-9.15-3.05 9.15-3.05c.4103745-.13488359.6877501-.5180268.6877501-.95s-.2773756-.81511641-.6877501-.95l-9.15-3.05 12-4h10c1.1 0 1 .9 1 2z" fill="#9e9e9e"/><path id="Shape" d="m57 0h-3c1.1 0 1 .9 1 2v42c-.0032948 1.1032019-.8967981 1.9967052-2 2h3c1.1032019-.0032948 1.9967052-.8967981 2-2v-42c0-1.1.1-2-1-2z" fill="#707070"/><path id="Shape" d="m52 47c0 2.7614237-2.2385763 5-5 5-.3359451.0024107-.6711847-.0311132-1-.1-2.4517813-.5011364-4.155486-2.7376742-3.98743-5.2344975.1680561-2.4968232 2.1561093-4.4848764 4.6529325-4.6529325 2.4968233-.168056 4.7333611 1.5356487 5.2344975 3.98743.0688868.3288153.1024107.6640549.1 1z" fill="#607d8b"/></g><g id="Layer_2" fill="#000" transform="translate(-1 -1)"><path id="Shape" d="m59 1c-10.939 0-10.1-.022-10.316.051l-12 4c-.4103745.13488359-.6877501.5180268-.6877501.95s.2773756.81511641.6877501.95l9.153 3.049-9.153 3.051c-.4103745.1348836-.6877501.5180268-.6877501.95s.2773756.8151164.6877501.95l9.153 3.049-9.153 3.051c-.4103745.1348836-.6877501.5180268-.6877501.95s.2773756.8151164.6877501.95l9.153 3.049-9.153 3.051c-.4103745.1348836-.6877501.5180268-.6877501.95s.2773756.8151164.6877501.95l11.316 3.77v8.369c-2.5125124.4294053-4.4805947 2.3974876-4.91 4.91h-8.369l-3.772-11.316c-.1348836-.4103745-.5180268-.6877501-.95-.6877501s-.8151164.2773756-.95.6877501l-3.049 9.153-3.051-9.153c-.1348836-.4103745-.5180268-.6877501-.95-.6877501s-.8151164.2773756-.95.6877501l-3.049 9.153-3.051-9.153c-.1348836-.4103745-.5180268-.6877501-.95-.6877501s-.8151164.2773756-.95.6877501l-3.049 9.153-3.051-9.153c-.13488359-.4103745-.5180268-.6877501-.95-.6877501s-.81511641.2773756-.95.6877501c-4.327 12.987-4.049 12.08-4.049 12.316v9c0 1.6568542 1.34314575 3 3 3h42c1.6568542 0 3-1.3431458 3-3v-3c3.3123376-.0033074 5.9966926-2.6876624 6-6h3c1.6568542 0 3-1.3431458 3-3v-42.248c.1199685-.78826638-.0889934-1.59121519-.578-2.221-.3810707-.36460263-.8952223-.55659595-1.422-.531zm-12 57c0 .5522847-.4477153 1-1 1h-42c-.55228475 0-1-.4477153-1-1v-8.838l3-9 2.1 6.308c.27256597.8161221 1.03656549 1.3664457 1.897 1.3664457.8604345 0 1.624434-.5503236 1.897-1.3664457l2.106-6.308 2.1 6.308c.272566.8161221 1.0365655 1.3664457 1.897 1.3664457s1.624434-.5503236 1.897-1.3664457l2.106-6.308 2.1 6.308c.272566.8161221 1.0365655 1.3664457 1.897 1.3664457s1.624434-.5503236 1.897-1.3664457l2.106-6.308 2.823 8.471c.2724905.8166903 1.0370505 1.3673508 1.898 1.367h8.369c.3664751 2.1430557 1.8616308 3.9211821 3.91 4.65zm2-5c-2.209139 0-4-1.790861-4-4s1.790861-4 4-4 4 1.790861 4 4-1.790861 4-4 4zm10-7c0 .5522847-.4477153 1-1 1h-3.35c-.7288179-2.0483692-2.5069443-3.5435249-4.65-3.91v-8.369c.0012125-.8616854-.5496106-1.6272771-1.367-1.9l-8.471-2.821 6.308-2.1c.8161221-.272566 1.3664457-1.0365655 1.3664457-1.897s-.5503236-1.624434-1.3664457-1.897l-6.308-2.106 6.308-2.1c.8161221-.272566 1.3664457-1.0365655 1.3664457-1.897s-.5503236-1.624434-1.3664457-1.897l-6.308-2.106 6.308-2.1c.8161221-.272566 1.3664457-1.0365655 1.3664457-1.897 0-.86043451-.5503236-1.62443403-1.3664457-1.897l-6.308-2.106 9-3h9.819c.031.245.019-2.434.019 43z"/><path id="Shape" d="m7 55h-1c-.55228475 0-1 .4477153-1 1s.44771525 1 1 1h1c.55228475 0 1-.4477153 1-1s-.44771525-1-1-1z"/><path id="Shape" d="m44 55h-33c-.5522847 0-1 .4477153-1 1s.4477153 1 1 1h33c.5522847 0 1-.4477153 1-1s-.4477153-1-1-1z"/><circle id="Oval" cx="49" cy="49" r="1"/></g></g></svg>