<svg height="484pt" viewBox="0 -2 484.70042 484" width="484pt" xmlns="http://www.w3.org/2000/svg"><path d="m426.351562 272.351562c.042969 87.835938-61.96875 163.46875-148.113281 180.636719-86.140625 17.171875-172.414062-28.90625-206.046875-110.050781-33.636718-81.140625-5.261718-174.742188 67.765625-223.550781 73.027344-48.808594 170.363281-39.226563 232.472657 22.882812 34.511718 34.496094 53.90625 81.285157 53.921874 130.082031zm0 0" fill="#ff6243"/><path d="m380.109375 394.109375c-44.394531 50.285156-112.648437 72.410156-178.105469 57.734375-65.453125-14.675781-117.726562-63.824219-136.402344-128.253906-18.675781-64.425782-.789062-133.914063 46.667969-181.320313 2.71875-2.71875 5.441407-5.28125 8.320313-7.679687-64.511719 72.769531-61.191406 183.1875 7.570312 251.949218 68.761719 68.761719 179.183594 72.082032 251.949219 7.570313zm0 0" fill="#d95339"/><path d="m394.351562 272.351562c0 83.945313-68.054687 152-152 152-83.949218 0-152-68.054687-152-152 0-83.949218 68.050782-152 152-152 83.945313 0 152 68.050782 152 152zm0 0" fill="#ffd422"/><path d="m357.46875 371.46875c-37.164062 43.226562-95.402344 62.003906-150.820312 48.636719-55.414063-13.371094-98.683594-56.636719-112.050782-112.054688-13.371094-55.417969 5.40625-113.652343 48.632813-150.820312-51.949219 60.242187-48.621094 150.363281 7.625 206.613281 56.25 56.25 146.371093 59.574219 206.613281 7.625zm0 0" fill="#ebbf00"/><path d="m146.351562 448.351562c0 13.253907-10.746093 24-24 24-13.257812 0-24-10.746093-24-24 0-13.257812 10.742188-24 24-24 13.253907 0 24 10.742188 24 24zm0 0" fill="#898890"/><path d="m130.351562 470.910156c-2.554687.96875-5.269531 1.457032-8 1.441406-13.257812 0-24-10.746093-24-24 0-13.257812 10.742188-24 24-24 2.730469-.019531 5.445313.46875 8 1.4375-9.585937 3.359376-16.003906 12.40625-16.003906 22.5625 0 10.152344 6.417969 19.203126 16.003906 22.558594zm0 0" fill="#787680"/><path d="m386.351562 448.351562c0 13.253907-10.746093 24-24 24-13.257812 0-24-10.746093-24-24 0-13.257812 10.742188-24 24-24 13.253907 0 24 10.742188 24 24zm0 0" fill="#898890"/><path d="m370.351562 470.910156c-2.554687.96875-5.269531 1.457032-8 1.441406-13.257812 0-24-10.746093-24-24 0-13.257812 10.742188-24 24-24 2.730469-.019531 5.445313.46875 8 1.4375-9.585937 3.359376-16.003906 12.40625-16.003906 22.5625 0 10.152344 6.417969 19.203126 16.003906 22.558594zm0 0" fill="#787680"/><g fill="#ff9811"><path d="m155.871094 67.070312-59.441406 59.359376-65.039063 65.039062c-15.019531-14.988281-23.460937-35.339844-23.460937-56.558594s8.441406-41.570312 23.460937-56.558594l11.28125-11.28125c14.996094-15.039062 35.359375-23.488281 56.597656-23.488281s41.605469 8.449219 56.601563 23.488281zm0 0"/><path d="m453.308594 78.351562c15.019531 14.988282 23.460937 35.339844 23.460937 56.558594s-8.441406 41.570313-23.460937 56.558594l-65.039063-65.039062-59.4375-59.359376c7.292969-7.351562 15.964844-13.195312 25.519531-17.199218 30.007813-12.585938 64.648438-5.789063 87.679688 17.199218zm0 0"/><path d="m258.351562 272.351562c0 8.835938-7.164062 16-16 16-8.839843 0-16-7.164062-16-16 0-8.839843 7.160157-16 16-16 8.835938 0 16 7.160157 16 16zm0 0"/></g><path d="m242.351562 112.351562c-88.367187 0-160 71.632813-160 160 0 88.363282 71.632813 160 160 160 88.363282 0 160-71.636718 160-160-.101562-88.324218-71.679687-159.898437-160-160zm0 304c-79.53125 0-144-64.472656-144-144 0-79.53125 64.46875-144 144-144 79.527344 0 144 64.46875 144 144-.09375 79.488282-64.511718 143.90625-144 144zm0 0"/><path d="m250.351562 249.820312v-73.46875h-16v73.46875c-6.777343 2.421876-12.109374 7.753907-14.53125 14.53125h-57.46875v16h57.46875c3.703126 10.53125 14.191407 17.109376 25.28125 15.851563 11.09375-1.253906 19.847657-10.007813 21.101563-21.101563 1.257813-11.089843-5.320313-21.578124-15.851563-25.28125zm-8 30.53125c-4.417968 0-8-3.582031-8-8 0-4.417968 3.582032-8 8-8 4.417969 0 8 3.582032 8 8 0 4.417969-3.582031 8-8 8zm0 0"/><path d="m114.351562 264.351562h16v16h-16zm0 0"/><path d="m234.351562 384.351562h16v16h-16zm0 0"/><path d="m354.351562 264.351562h16v16h-16zm0 0"/><path d="m234.351562 144.351562h16v16h-16zm0 0"/><path d="m368.429688 416.964844c60.390624-52.582032 81.808593-137.121094 53.734374-212.113282-28.074218-74.992187-99.738281-124.6875-179.8125-124.6875-80.074218 0-151.742187 49.695313-179.816406 124.6875-28.070312 74.992188-6.65625 159.53125 53.734375 212.113282-16.578125 3.210937-27.808593 18.746094-25.660156 35.496094 2.152344 16.75 16.949219 28.941406 33.800781 27.855468 16.851563-1.085937 29.957032-15.078125 29.941406-31.964844-.019531-1.929687-.214843-3.851562-.585937-5.746093 55.5 28.992187 121.671875 28.992187 177.167969 0-.367188 1.894531-.5625 3.816406-.582032 5.746093-.019531 16.886719 13.085938 30.878907 29.9375 31.964844 16.851563 1.085938 31.648438-11.105468 33.800782-27.855468s-9.082032-32.285157-25.660156-35.496094zm-246.078126 47.386718c-8.839843 0-16-7.164062-16-16 0-8.839843 7.160157-16 16-16 8.835938 0 16 7.160157 16 16 0 8.835938-7.164062 16-16 16zm-56-192c0-97.203124 78.796876-176 176-176 97.199219 0 176 78.796876 176 176 0 97.199219-78.800781 176-176 176-97.15625-.113281-175.890624-78.84375-176-176zm296 192c-8.839843 0-16-7.164062-16-16 0-8.839843 7.160157-16 16-16 8.835938 0 16 7.160157 16 16 0 8.835938-7.164062 16-16 16zm0 0"/><path d="m31.390625 199.503906c2.121094-.003906 4.15625-.84375 5.65625-2.34375l124.457031-124.457031c3.121094-3.125 3.121094-8.1875 0-11.3125-6.765625-6.742187-14.585937-12.332031-23.152344-16.542969v-4.496094c0-13.257812 10.742188-24 24-24h160c13.253907 0 24 10.742188 24 24v4.496094c-8.570312 4.210938-16.390624 9.800782-23.152343 16.542969-3.125 3.125-3.125 8.1875 0 11.3125l124.453125 124.445313c3.125 3.125 8.191406 3.125 11.3125 0 34.3125-34.390626 34.3125-90.0625 0-124.453126l-11.3125-11.304687c-22.367188-22.316406-54.984375-30.929687-85.453125-22.558594-.816407-21.4375-18.398438-38.414062-39.847657-38.480469h-160c-21.453124.066407-39.035156 17.042969-39.847656 38.480469-30.472656-8.371093-63.089844.242188-85.457031 22.558594l-11.3125 11.3125c-34.3125 34.390625-34.3125 90.066406 0 124.457031 1.5 1.5 3.535156 2.339844 5.65625 2.34375zm404.953125-126.800781 11.308594 11.3125c25.933594 25.925781 28.234375 67.203125 5.347656 95.855469l-112.515625-112.511719c28.652344-22.890625 69.929687-20.589844 95.859375 5.34375zm-399.296875 11.3125 11.3125-11.3125c25.925781-25.933594 67.203125-28.234375 95.855469-5.34375l-112.511719 112.511719c-22.890625-28.652344-20.589844-69.929688 5.34375-95.855469zm0 0"/><path d="m18.351562 272.351562c.042969 51.296876 17.644532 101.03125 49.878907 140.933594l12.441406-10.078125c-29.9375-37.046875-46.285156-83.226562-46.320313-130.855469zm0 0"/><path d="m466.351562 272.351562h-16c-.035156 47.628907-16.382812 93.808594-46.320312 130.855469l12.4375 10.078125c32.234375-39.902344 49.839844-89.636718 49.882812-140.933594zm0 0"/><path d="m2.941406 363.183594c13.03125 34.121094 33.160156 65.089844 59.058594 90.847656l11.261719-11.359375c-24.269531-24.148437-43.140625-53.171875-55.367188-85.152344zm0 0"/><path d="m411.4375 442.671875 11.265625 11.359375c25.894531-25.761719 46.027344-56.726562 59.0625-90.847656l-14.953125-5.664063c-12.230469 31.980469-31.101562 61-55.375 85.152344zm0 0"/></svg>