<svg height="512pt" viewBox="-12 0 512 512.00216" width="512pt" xmlns="http://www.w3.org/2000/svg"><path d="m276.585938 368.140625 34.199218-32.34375c5.921875-5.601563 2.964844-15.550781-5.050781-17.011719-9.324219-1.839844-16.0625-12.625-16.09375-22.128906l-.148437-42.351562-90.289063.3125.144531 42.347656c.035156 9.503906-6.632812 20.335937-15.945312 22.242187-8.003906 1.515625-10.890625 11.484375-4.933594 17.042969l34.421875 32.109375c17.960937 16.753906 45.851563 16.65625 63.695313-.21875zm0 0" fill="#fae0c1"/><path d="m455.894531 381.507812c-4.871093-20.703124-21.066406-36.851562-41.789062-41.65625l-74.214844-18.925781-25.425781-5.898437c-1.476563-.339844-2.972656-.515625-4.460938-.527344-4.464844-.035156-8.863281 1.386719-12.496094 4.121094-31.648437 23.824218-75.199218 23.972656-107.007812.367187-1.195312-.886719-2.472656-1.628906-3.808594-2.230469-.078125-.035156-.160156-.070312-.242187-.105468-.828125-.359375-1.675781-.65625-2.535157-.90625-.394531-.109375-.789062-.210938-1.1875-.300782-1.554687-.34375-3.152343-.515624-4.753906-.492187-.742187.011719-1.488281.0625-2.234375.15625-.742187.09375-1.484375.226563-2.222656.40625l-25.382813 6.070313-74.082031 19.4375c-20.6875 4.945312-36.773437 21.203124-41.5 41.941406l-24.761719 108.625c-1.511718 6.628906 3.542969 12.933594 10.335938 12.914062h453.027344c6.796875-.023437 11.804687-7.929687 10.25-14.542968zm0 0" fill="#cc966a"/><path d="m300.546875 316.726562c-1.058594.535157-2.074219 1.167969-3.039063 1.894532-31.644531 23.824218-75.199218 23.972656-107.007812.367187-.785156-.582031-1.605469-1.101562-2.453125-1.558593-.445313-.234376-5.011719 9.601562-2.328125 14.902343l58.886719 139.417969 58.882812-139.417969c2.808594-5.550781-1.785156-16.195312-2.941406-15.605469zm0 0" fill="#ededed"/><path d="m272.953125 364.382812-28.347656-27.796874-28.351563 27.796874 14.347656 6.8125h28.007813zm0 0" fill="#274354"/><path d="m164.859375 149.003906-10.035156.035156c-3.636719.015626-6.980469 1.253907-9.640625 3.324219-4.625 3.601563-6.636719 9.636719-5.570313 15.398438l4.015625 21.683593c3.113282 16.074219 21.421875 8.660157 21.421875 8.660157zm0 0" fill="#efd0af"/><path d="m325.4375 148.464844 10.035156-.035156c3.632813-.011719 6.988282 1.207031 9.664063 3.257812 4.648437 3.570312 6.703125 9.589844 5.675781 15.359375l-3.867188 21.710937c-3.003906 16.09375-21.363281 8.808594-21.363281 8.808594zm0 0" fill="#efd0af"/><path d="m300.492188 67.738281c-13.09375-12.019531-31.472657-22.488281-55.699219-22.695312-24.230469.375-42.535157 10.96875-55.542969 23.082031-16.59375 15.445312-25.53125 38.332031-25.449219 61.917969l.007813 2.847656h.023437l.28125 82.210937c.539063 22.921876 16.417969 38.742188 30.214844 52.328126 12.695313 12.5 27.09375 27.265624 51.324219 27.472656 24.226562-.375 38.523437-15.238282 51.132812-27.828125 13.699219-13.675781 29.472656-29.605469 29.851563-52.535157l-.285157-82.207031h.023438l-.011719-2.851562c-.082031-23.585938-9.175781-46.410157-25.871093-61.742188zm0 0" fill="#fae0c1"/><path d="m326.351562 132.332031h.023438l-.011719-2.851562c-.082031-23.585938-9.175781-46.410157-25.875-61.742188-6.832031-6.273437-15.109375-12.125-24.90625-16.316406l.25 163.117187c-.378906 22.929688-16.148437 38.859376-29.851562 52.535157-7.472657 7.464843-15.539063 15.726562-25.917969 21.292969 7.230469 3.875 15.570312 6.449218 25.585938 6.535156 24.230468-.375 38.523437-15.238282 51.132812-27.828125 13.703125-13.675781 29.472656-29.605469 29.851562-52.535157zm0 0" fill="#efd0af"/><path d="m403.0625 127.363281c-.054688-16.390625-70.773438-32.582031-158.125-32.394531v-.003906c-.148438.003906-.296875.003906-.445312.003906-.152344 0-.300782 0-.449219 0v.003906c-87.347657.414063-157.953125 17.09375-157.894531 33.484375.085937 25.433594 70.820312 45.828125 158.167968 45.667969v.003906c.148438-.003906.296875-.003906.449219-.003906h.445313v-.003906c87.347656-.441406 157.9375-21.320313 157.851562-46.757813zm0 0" fill="#525467"/><path d="m363.859375 106.558594c-.28125 25.347656-70.730469 46.117187-157.851563 46.558594v.003906c-.148437 0-.296874 0-.445312 0-.152344 0-.300781.003906-.449219.003906v-.003906c-45.195312.082031-85.9375-5.335938-114.753906-14.109375 16.441406 20.292969 79.097656 35.25 153.957031 35.113281v.003906c.148438 0 .296875-.003906.449219-.003906h.445313v-.003906c87.347656-.441406 157.9375-21.320313 157.851562-46.757813-.027344-7.488281-14.8125-14.941406-39.203125-20.804687zm0 0" fill="#454851"/><path d="m329.382812 108.394531-19.777343-84.417969c-3.019531-12.882812-16.917969-19.9375-29.097657-14.769531l-28.761718 12.207031c-5.351563 2.269532-11.394532 2.257813-16.738282-.03125l-26.976562-11.570312c-12.246094-5.25-26.253906 1.886719-29.203125 14.878906 0 0-19.582031 85.582032-19.582031 86.242188.035156 10.46875 38.253906 18.824218 85.363281 18.660156 47.109375-.160156 85.269531-8.777344 85.234375-19.246094-.003906-.660156-.160156-1.3125-.460938-1.953125zm0 0" fill="#676a75"/><path d="m244.609375 129.59375c47.109375-.160156 85.269531-8.777344 85.234375-19.246094-.003906-.660156-.160156-1.3125-.457031-1.957031l-19.78125-84.414063c-3.019531-12.882812-16.917969-19.9375-29.097657-14.769531l-26.921874 11.425781 19.144531 81.699219c1.578125 6.742188-3.3125 13.3125-10.230469 13.664063-5.769531.292968-11.753906.457031-17.890625.476562-40.726563.140625-74.808594-6.082031-83.320313-14.539062l-.0625.019531c-1.21875 5.417969-1.980468 8.851563-1.980468 8.980469.035156 10.46875 38.253906 18.824218 85.363281 18.660156zm0 0" fill="#454851"/><path d="m366.800781 295.5c-13.984375-10.710938-49.730469-32.414062-60.101562-38.660156-3.265625 3.582031-6.648438 6.976562-9.917969 10.238281-2.332031 2.328125-4.722656 4.734375-7.21875 7.109375l.074219 22.46875c0 .101562.003906.199219.003906.300781.003906.035157.003906.070313.003906.105469 0 .070312.003907.136719.003907.207031.25 7.460938 4.535156 15.574219 10.898437 19.457031 1.152344-.585937 5.75 10.058594 2.941406 15.609376l-58.882812 139.414062 104.980469-89.003906-18.195313-24.277344 37.363281-47.40625c3.804688-4.824219 2.921875-11.828125-1.953125-15.5625zm0 0" fill="#a37c52"/><path d="m244.605469 471.75-58.886719-139.417969c-2.683594-5.304687 1.882812-15.144531 2.328125-14.902343 6.617187-3.789063 11.078125-12.15625 11.292969-19.820313.003906-.078125.003906-.15625.007812-.238281 0-.03125 0-.0625 0-.097656 0-.101563 0-.207032 0-.308594l-.082031-24.699219c-1.683594-1.625-3.324219-3.25-4.9375-4.835937-3.59375-3.539063-7.324219-7.226563-10.890625-11.152344-8.945312 5.378906-46.589844 28.160156-61.027344 39.222656-4.878906 3.734375-5.757812 10.734375-1.957031 15.5625l37.363281 47.40625-18.195312 24.277344zm0 0" fill="#a37c52"/><path d="m258.609375 371.195312h-28.007813l-6.4375 52.160157 20.441407 48.394531 20.4375-48.394531zm0 0" fill="#2a4d5e"/><path d="m303.488281 332.335938c2.769531-5.472657-1.648437-15.878907-2.886719-15.628907-1.078124.542969-2.113281 1.179688-3.09375 1.914063-15.632812 11.773437-34.175781 17.753906-52.773437 17.957031-.042969 0-.089844.003906-.128906.003906v.003907l40.371093 39.582031zm0 0" fill="#bebebe"/><path d="m188.046875 317.429688c-.449219-.230469-5.011719 9.601562-2.328125 14.90625l18.515625 43.832031 40.371094-39.582031v-.007813s0 0-.003907 0c-18.996093.179687-38.046874-5.671875-54.101562-17.589844-.785156-.582031-1.605469-1.101562-2.453125-1.558593zm0 0" fill="#bebebe"/><path d="m300.554688 316.730469c-6.539063-3.988281-10.890626-12.445313-10.917969-20.074219l-.074219-22.46875c-10.375 9.867188-22.636719 19.246094-40.519531 20.5625l.039062 22.671875c.023438 6.546875 3.230469 13.703125 8.269531 18.121094 14.246094-2.183594 28.070313-7.824219 40.15625-16.921875.964844-.726563 1.984376-1.355469 3.046876-1.890625zm0 0" fill="#efd0af"/><path d="m359.675781 469.335938h-46.144531c-2.351562 0-4.261719-1.910157-4.261719-4.261719v-17.8125c0-2.351563 1.910157-4.257813 4.261719-4.257813h46.144531c2.351563 0 4.261719 1.90625 4.261719 4.257813v17.8125c0 2.355469-1.90625 4.261719-4.261719 4.261719zm0 0" fill="#f79f48"/><path d="m390.71875 406.179688c-.863281-4.054688-4.847656-6.632813-8.898438-5.777344-4.050781.863281-6.636718 4.847656-5.773437 8.898437l20.300781 95.203125h15.335938zm0 0" fill="#a37c52"/><path d="m93.121094 504.246094 19.46875-94.042969c.832031-4.054687-1.78125-8.019531-5.835938-8.855469-4.0625-.832031-8.023437 1.78125-8.859375 5.835938l-20.097656 97.113281zm0 0" fill="#a37c52"/><path d="m481.402344 489.960938-25.507813-108.453126c-4.871093-20.703124-21.066406-36.851562-41.789062-41.65625l-56.65625-14.449218-26.058594 33.066406 2.136719 2.851562 33.75 8.605469c20.722656 4.804688 36.917968 20.953125 41.789062 41.660157l21.8125 92.917968h40.277344c6.792969-.023437 11.800781-7.929687 10.246094-14.542968zm0 0" fill="#b7825a"/><path d="m488.730469 488.238281-25.507813-108.464843c-5.558594-23.628907-23.683594-41.722657-47.320312-47.234376l-45.40625-11.578124 4.160156-5.28125c3.09375-3.925782 4.453125-8.816407 3.832031-13.769532-.621093-4.957031-3.148437-9.359375-7.113281-12.394531-11.769531-9.015625-38.324219-25.472656-53.207031-34.539063 8.679687-10.894531 15.703125-23.917968 15.976562-40.351562 0-.050781-.027343-7.972656-.027343-7.972656.09375 0 7.722656-.675782 11.242187-2.777344 3.285156-1.957031 7.503906-5.941406 8.980469-13.847656 0 0 3.960937-22.273438 4-22.554688.242187-.070312 22.058594-7.542968 29.820312-11.824218 14.800782-8.167969 22.457032-17.761719 22.421875-28.363282-.03125-8.910156-8.472656-16.265625-25.800781-22.484375-12.886719-4.625-30.515625-8.613281-51.230469-11.59375l-5.738281-24.484375c-.945312-4.035156-4.984375-6.539062-9.011719-5.59375-4.035156.945313-6.539062 4.980469-5.59375 9.015625l8.792969 37.527344c-5.277344 4.503906-31.789062 12.210937-77.417969 12.371094-45.613281.148437-72.199219-7.371094-77.507812-11.839844 0 0 19.039062-83.84375 19.054687-83.917969 1.886719-8.296875 11.105469-13.003906 18.9375-9.648437l26.980469 11.570312c7.183594 3.078125 15.429687 3.09375 22.625.042969 0 0 28.742187-12.199219 28.765625-12.207031 7.796875-3.308594 16.941406 1.355469 18.867188 9.574219l2.867187 12.230468c.945313 4.035156 4.980469 6.542969 9.015625 5.589844 4.03125-.941406 6.535156-4.976562 5.589844-9.011719 0 0-2.863282-12.222656-2.863282-12.230469-4.019531-17.140624-23.105468-26.847656-39.335937-19.964843l-28.765625 12.207031c-3.453125 1.464844-7.410156 1.457031-10.851562-.019531 0 0-26.96875-11.5625-26.980469-11.566407-16.335938-7.003906-35.558594 2.835938-39.480469 20.113282l-16.085938 70.855468c-20.691406 3.125-38.296874 7.230469-51.152343 11.945313-17.285157 6.339844-25.671875 13.75-25.640625 22.660156.035156 10.097657 7.042968 19.238281 20.550781 27.054688 8.105469 4.691406 32.378906 12.890625 32.953125 13.050781.03125.183594 4.125 22.292969 4.125 22.292969 1.515625 7.835937 5.765625 11.789062 9.0625 13.726562 3.472656 2.039063 11.101562 2.699219 11.261719 2.699219 0 0 .027343 7.933594.027343 7.984375.375 15.890625 7.035157 28.542969 15.390626 39.15625-15.070313 9.167969-42.132813 25.90625-54.160157 35.121094-3.96875 3.039062-6.496093 7.441406-7.117187 12.394531-.621094 4.957031.738281 9.847656 3.832031 13.769531l4.527344 5.746094-46.875 12.296875c-23.59375 5.675781-41.597657 23.890625-46.992188 47.558594l-5.015625 22.007812c-.921875 4.039063 1.605469 8.058594 5.644532 8.980469.5625.128906 1.121093.191406 1.675781.191406 3.421875 0 6.511719-2.359375 7.304687-5.835937l5.019532-22.011719c4.121093-18.085937 17.890624-32.003906 35.9375-36.320313.050781-.011718.105468-.023437.15625-.039062l53.277343-13.976562 19.140625 24.285156-14.742187 19.667968c-2.378907 3.175782-1.875 7.652344 1.152343 10.21875 0 0 104.960938 88.988282 105 89.019532 1.355469 1.136718 3.078126 1.777344 4.847657 1.777344 1.730469 0 3.457031-.597657 4.851562-1.78125l104.996094-89.015626c3.027344-2.566406 3.53125-7.046874 1.152344-10.21875l-14.742188-19.667968 19.476563-24.710938 51.941406 13.242188c.050781.015625.105469.027344.15625.039062 18.074219 4.191406 31.941406 18.015625 36.1875 36.074219l25.511719 108.464844c.289062 1.226562.285156 5.328125-2.949219 5.328125h-61.121094l-19.324218-90.839844c-.863282-4.050781-4.847657-6.628906-8.898438-5.773438-4.050781.863282-6.636719 4.84375-5.777344 8.898438l18.660156 87.714844h-300.003906l17.84375-86.8125c.835938-4.054688-1.777344-8.023438-5.835937-8.855469-4.0625-.832031-8.023438 1.777344-8.859375 5.835937l-18.464844 89.832032h-61.351562c-2.777344 0-3.273438-2.492188-2.988282-3.746094l11.714844-51.394531c.921875-4.039063-1.609375-8.058594-5.644531-8.980469-4.042969-.921875-8.0625 1.605469-8.984375 5.644531 0 0-11.695313 51.328125-11.710938 51.394531-2.535156 11.117188 6.222656 22.089844 17.585938 22.089844h453.179687c11.828125 0 20.113281-12.757812 17.523438-23.765625zm-149.148438-300.898437c-.527343 2.832031-4.085937 4.371094-5.515625 4.328125l-.0625-18.304688c2.847656-.566406 5.644532-1.15625 8.382813-1.777343zm-245.949219-58.660156c1.921876-3.703126 18.316407-12.515626 58.167969-19.097657-1.210937 12.699219 17.601563 19.046875 30.863281 21.945313 16.316407 3.566406 38.457032 5.519531 61.265626 5.519531 23.316406-.082031 46.015624-2.195313 62.632812-5.945313 13.238281-2.992187 31.71875-9.320312 30.789062-22.160156h-.082031c39.898438 6.3125 56.355469 15.011719 58.300781 18.695313-.316406 6.238281-11.117187 16.460937-40.765624 25.238281-29.125 8.621094-68.0625 13.488281-109.636719 13.699219l-.957031.003906c-41.195313 0-80.695313-4.589844-109.644532-12.945313-29.703125-8.570312-40.574218-18.71875-40.933594-24.953124zm57.351563 59.355468-2.878906-15.5625c2.730469.589844 5.515625 1.152344 8.351562 1.683594l.0625 18.109375c-1.429687.050781-4.996093-1.464844-5.535156-4.230469zm20.484375-11.375c22.027344 3.21875 47.417969 4.921875 72.761719 4.921875v-.007812c26-.140625 52.296875-2.066407 74.78125-5.566407l.132812 38.4375c-.367187 20.046876-14.863281 34.519532-27.65625 47.289063 0 0-25.296875 25.285156-45.867187 25.636719-20.570313-.210938-46.039063-25.320313-46.039063-25.320313-12.882812-12.679687-27.476562-27.050781-27.980469-47.09375zm97.582031 217.914063-2.335937-18.945313 4.726562-2.246094 4.640625 4.550782zm-55.929687-16.644531 4.636718-4.546876 4.730469 2.246094-2.339843 18.945313zm14.472656-35.199219-20.75 20.34375-14.171875-33.558594c10.742187 6.691406 22.542969 11.148437 34.921875 13.214844zm4.691406 20.941406-3.113281-1.476563 15.429687-15.128906 15.425782 15.128906-3.113282 1.476563zm50.070313-.597656-21.011719-20.601563c12.671875-2.316406 24.710938-7.136718 35.574219-14.285156-.011719.296875-14.5625 34.886719-14.5625 34.886719zm-.199219-65.585938c.214844 6.484375 2.628906 12.988281 6.484375 18.179688-13.074219 8.59375-28.164063 13.203125-43.957031 13.382812-.066406 0-.132813 0-.199219.003907-15.882813.128906-31.09375-4.191407-44.371094-12.578126 4.023438-5.261718 6.527344-11.9375 6.714844-18.664062l-.015625-9.089844c10.078125 7.53125 22.425781 13.507813 38.769531 13.648438h.0625.117188c15.101562-.234375 26.761719-5.429688 36.355469-12.214844zm-132.3125 84.085938 13.960938-18.628907c2.039062-2.71875 1.992187-6.472656-.109376-9.140624l-37.371093-47.414063c-.792969-1.003906-.390625-4.1875.625-4.964844 12.15625-9.3125 41.953125-27.613281 55.164062-35.625 2.347657 2.414063 9.039063 9.007813 9.652344 9.609375l.074219 21.527344v.195312c0 .007813-.003906.113282-.003906.121094v.121094c-.148438 5.191406-8.550782 14.128906-9.140626 14.703125-2.578124 2.507813-7.949218 14.6875-3.816406 23.339844l46.566406 110.25zm94.757812 70.890625-12.753906-30.195313 5.378906-43.59375h14.746094l5.382813 43.59375zm80.792969-89.519532 13.960938 18.628907-75.601563 64.097656 46.566406-110.25c3.929688-8.222656-.335937-20.203125-3.945312-23.804687-.792969-.792969-9.066406-9.800782-9.226562-14.628907 0-.003906-.003907-.199219-.003907-.203125l-.070312-19.453125c1.414062-1.382812 8.9375-8.898437 10.945312-10.96875 14.035157 8.523438 42.359375 25.96875 54.230469 35.0625 1.019531.78125 1.417969 3.960938.625 4.96875l-37.367188 47.410157c-2.105468 2.667968-2.152343 6.421874-.113281 9.140624zm0 0"/><path d="m359.675781 476.835938h-46.144531c-6.484375 0-11.761719-5.277344-11.761719-11.761719v-17.8125c0-6.484375 5.277344-11.761719 11.761719-11.761719h46.144531c6.484375 0 11.761719 5.277344 11.761719 11.761719v17.8125c0 6.484375-5.273438 11.761719-11.761719 11.761719zm-42.90625-15h39.667969v-11.332032h-39.667969zm0 0"/></svg>