<svg id="Layer_3" enable-background="new 0 0 64 64" height="512" viewBox="0 0 64 64" width="512" xmlns="http://www.w3.org/2000/svg"><g><g><path d="m53 12h-42c-1.105 0-2 .895-2 2 0 1.105.895 2 2 2h42c1.105 0 2-.895 2-2 0-1.105-.895-2-2-2z" fill="#2d4d83"/></g><g><path d="m27.342 3.342c-.859-.859-2.025-1.342-3.24-1.342-1.874 0-3.558 1.141-4.254 2.88l-2.848 7.12h30l-2.848-7.12c-.696-1.739-2.381-2.88-4.254-2.88-1.215 0-2.381.483-3.24 1.342-1.062 1.062-2.501 1.658-4.003 1.658h-1.311c-1.501 0-2.94-.596-4.002-1.658z" fill="#4472b2"/></g><g><path d="m45 20c2.209 0 4 1.791 4 4 0 2.209-1.791 4-4 4" fill="#db9b7c"/></g><g><path d="m19 20c-2.209 0-4 1.791-4 4 0 2.209 1.791 4 4 4" fill="#db9b7c"/></g><g><path d="m45 16v12c0 7.18-5.82 13-13 13-7.18 0-13-5.82-13-13v-12" fill="#efbe9a"/></g><g><path d="m52 62v-14.569c0-2.634-1.718-4.96-4.235-5.735l-8.765-2.696h-14l-8.765 2.697c-2.517.774-4.235 3.1-4.235 5.734v14.569" fill="#f9d18b"/></g><g><path d="m41 40 1 5-5 1 3 3-8 8-8-8 3-3-5-1 1-5" fill="#f5b953"/></g><g><path d="m25 39 7 18 7-18" fill="#efbe9a"/></g><g><path d="m32 42c-7.72 0-14-6.28-14-14v-12h2v12c0 6.617 5.383 12 12 12s12-5.383 12-12v-12h2v12c0 7.72-6.28 14-14 14z"/></g><g><path d="m19 29c-2.757 0-5-2.243-5-5s2.243-5 5-5v2c-1.654 0-3 1.346-3 3s1.346 3 3 3z"/></g><g><path d="m45 29v-2c1.654 0 3-1.346 3-3s-1.346-3-3-3v-2c2.757 0 5 2.243 5 5s-2.243 5-5 5z"/></g><g><path d="m52 63h-40c-.552 0-1-.447-1-1v-14.568c0-3.092 1.986-5.781 4.941-6.691l8.765-2.696.588 1.912-8.765 2.696c-2.111.649-3.529 2.57-3.529 4.779v13.568h38v-13.568c0-2.209-1.418-4.13-3.53-4.779l-8.764-2.696.588-1.912 8.765 2.696c2.955.909 4.941 3.599 4.941 6.691v14.568c0 .553-.448 1-1 1z"/></g><g><path d="m18 50h2v12h-2z"/></g><g><path d="m44 50h2v12h-2z"/></g><g><path d="m53 17h-42c-1.654 0-3-1.346-3-3s1.346-3 3-3h42c1.654 0 3 1.346 3 3s-1.346 3-3 3zm-42-4c-.551 0-1 .448-1 1s.449 1 1 1h42c.551 0 1-.448 1-1s-.449-1-1-1z"/></g><g><path d="m47 13h-30c-.332 0-.642-.165-.828-.439s-.224-.624-.101-.932l2.848-7.12c.853-2.132 2.888-3.509 5.183-3.509 1.491 0 2.893.58 3.947 1.635.881.88 2.051 1.365 3.296 1.365h1.311c1.245 0 2.415-.485 3.296-1.365 1.052-1.054 2.454-1.635 3.946-1.635 2.295 0 4.33 1.377 5.182 3.509l2.849 7.12c.123.308.085.657-.101.932s-.496.439-.828.439zm-28.523-2h27.046l-2.3-5.749c-.547-1.367-1.852-2.251-3.325-2.251-.957 0-1.856.372-2.532 1.049-1.26 1.259-2.932 1.951-4.711 1.951h-1.311c-1.778 0-3.451-.692-4.71-1.951-.676-.677-1.575-1.049-2.532-1.049-1.473 0-2.778.884-3.326 2.251z"/></g><g><path d="m33 34h-2v-4c0-.553.448-1 1-1 2.206 0 4-1.794 4-4s-1.794-4-4-4-4 1.794-4 4c0 .557.112 1.095.333 1.6l-1.833.8c-.332-.758-.5-1.566-.5-2.4 0-3.309 2.691-6 6-6s6 2.691 6 6c0 2.968-2.166 5.439-5 5.917z"/></g><g><path d="m31 36h2v2h-2z"/></g><g><path d="m32 58c-.413 0-.783-.253-.932-.638l-7-18 1.864-.725 6.068 15.604 6.068-15.604 1.864.725-7 18c-.149.385-.519.638-.932.638z"/></g><g><path d="m31.293 57.707-8-8c-.391-.391-.391-1.023 0-1.414l1.679-1.679-3.168-.634c-.542-.108-.893-.635-.784-1.177l1-5 1.961.393-.804 4.02 4.02.804c.361.072.654.338.761.69.107.354.011.736-.25.997l-2.294 2.293 7.293 7.293z"/></g><g><path d="m32.707 57.707-1.414-1.414 7.293-7.293-2.293-2.293c-.261-.261-.357-.644-.25-.997s.399-.618.761-.69l4.02-.804-.804-4.02 1.961-.393 1 5c.108.542-.243 1.068-.784 1.177l-3.168.634 1.679 1.679c.391.391.391 1.023 0 1.414z"/></g><g><path d="m31 56h2v6h-2z"/></g><g><path d="m36 57h6v2h-6z"/></g></g></svg>