<?xml version="1.0" encoding="iso-8859-1"?>
<!-- Generator: Adobe Illustrator 19.0.0, SVG Export Plug-In . SVG Version: 6.00 Build 0)  -->
<svg xmlns="http://www.w3.org/2000/svg" xmlns:xlink="http://www.w3.org/1999/xlink" version="1.1" id="Layer_1" x="0px" y="0px" viewBox="0 0 511.785 511.785" style="enable-background:new 0 0 511.785 511.785;" xml:space="preserve" width="512" height="512">
<g>
	<path style="fill:#CC7400;" d="M474.13,353.32L353.753,473.697c-7.731,7.731-20.266,7.731-27.997,0l-0.618-0.619   c-7.731-7.731-7.731-20.266,0-27.997l120.377-120.377c7.731-7.731,20.266-7.731,27.997,0l0.618,0.619   C481.861,333.054,481.861,345.588,474.13,353.32z"/>
	<path style="fill:#CC7400;" d="M158.031,473.697L37.654,353.32c-7.731-7.731-7.731-20.266,0-27.997l0.619-0.618   c7.731-7.731,20.266-7.731,27.997,0l120.377,120.377c7.731,7.731,7.731,20.266,0,27.997l-0.619,0.618   C178.297,481.428,165.763,481.428,158.031,473.697z"/>
	<path style="fill:#CC7400;" d="M158.031,473.697L37.654,353.32c-7.731-7.731-7.731-20.266,0-27.997l0.619-0.618   c7.731-7.731,20.266-7.731,27.997,0l120.377,120.377c7.731,7.731,7.731,20.266,0,27.997l-0.619,0.618   C178.297,481.428,165.763,481.428,158.031,473.697z"/>
	<polygon style="fill:#ACACAD;" points="255.892,352.089 347.022,423.197 385.326,384.892 423.63,346.588 362.82,268.655  "/>
	<polygon style="fill:#999999;" points="362.82,268.655 255.892,352.089 282.979,373.225 382.452,293.816  "/>
	<polygon style="fill:#ACACAD;" points="174.119,238.155 228.08,232.723 202.921,202.487 243.505,150.631 267.48,146.47    198.64,58.245 8.366,7.933 58.679,198.207 149.566,269.125  "/>
	<polygon style="fill:#999999;" points="267.48,146.47 235.275,105.197 124.924,249.897 149.566,269.125 174.119,238.155    228.08,232.723 202.921,202.487 243.505,150.631  "/>
	<polygon style="fill:#E0E0E2;" points="503.418,7.933 313.144,58.245 286.53,96.361 284.901,143.446 243.505,150.631    202.921,202.487 228.08,232.723 174.119,238.155 88.155,346.588 126.459,384.893 164.763,423.197 453.106,198.207  "/>
	<polygon style="fill:#C6C5CA;" points="466.899,17.59 423.106,183.207 143.188,401.622 164.763,423.197 453.106,198.207    503.418,7.933  "/>
	<path style="fill:#3E3D42;" d="M441.599,385.851l-55.315,55.315l51.251,51.251c15.275,15.275,40.04,15.275,55.315,0l0,0   c15.275-15.275,15.275-40.04,0-55.315L441.599,385.851z"/>
	<path style="fill:#BA6500;" d="M346.969,452.483l-0.618-0.619c-7.731-7.731-7.731-20.266,0-27.997l-21.213,21.213   c-7.731,7.731-7.731,20.266,0,27.997l0.618,0.619c7.731,7.731,20.266,7.731,27.997,0l21.213-21.213   C367.235,460.215,354.701,460.215,346.969,452.483z"/>
	<path style="fill:#2D2D30;" d="M458.748,471.204l-51.251-51.251l-21.213,21.213l51.251,51.251c15.275,15.275,40.04,15.275,55.315,0   c3.758-3.758,6.587-8.093,8.496-12.717C487.175,485.549,470.265,482.72,458.748,471.204z"/>
	<path style="fill:#3E3D42;" d="M125.501,441.166l-55.315-55.315l-51.251,51.251c-15.275,15.275-15.275,40.04,0,55.315l0,0   c15.275,15.275,40.04,15.275,55.315,0L125.501,441.166z"/>
	<path style="fill:#BA6500;" d="M186.647,445.081l-21.213-21.213c7.731,7.731,7.731,20.266,0,27.997l-0.618,0.619   c-7.731,7.731-20.266,7.731-27.997,0l21.213,21.213c7.731,7.731,20.266,7.731,27.997,0l0.618-0.619   C194.378,465.347,194.378,452.812,186.647,445.081z"/>
	<path style="fill:#2D2D30;" d="M104.287,419.952l-51.251,51.251c-11.517,11.517-28.426,14.345-42.598,8.496   c1.909,4.624,4.738,8.959,8.496,12.717c15.275,15.275,40.04,15.275,55.315,0l51.251-51.251L104.287,419.952z"/>
	<path d="M498.154,431.798l-45.947-45.947l27.227-27.228h-0.001c5.156-5.155,7.996-12.011,7.996-19.302   c0-7.291-2.84-14.146-7.991-19.297l-0.622-0.624c-5.156-5.155-12.011-7.995-19.303-7.995c-7.291,0-14.147,2.84-19.302,7.995   l-15.887,15.887l-50.977-65.333l84.373-65.834c1.291-1.008,2.218-2.411,2.637-3.996L510.669,9.85   c0.683-2.582-0.06-5.332-1.947-7.221c-1.889-1.889-4.642-2.626-7.221-1.947L388.077,30.674c-4.005,1.059-6.393,5.164-5.334,9.168   c1.06,4.005,5.168,6.394,9.168,5.334l100.96-26.695L446.5,193.847l-155.328,121.2c-0.408,0.318-0.774,0.671-1.098,1.05   c-1.132,1.327-1.74,2.982-1.785,4.662c-0.046,1.681,0.47,3.386,1.585,4.815c0.016,0.02,0.034,0.037,0.05,0.057   c0.158,0.199,0.325,0.388,0.498,0.566c0.066,0.068,0.138,0.129,0.206,0.194c0.131,0.124,0.263,0.247,0.401,0.36   c0.081,0.066,0.164,0.128,0.247,0.19c0.134,0.101,0.27,0.199,0.409,0.29c0.087,0.057,0.175,0.112,0.264,0.165   c0.145,0.086,0.292,0.166,0.441,0.242c0.088,0.045,0.175,0.09,0.264,0.13c0.164,0.075,0.331,0.142,0.499,0.204   c0.078,0.029,0.155,0.062,0.234,0.089c0.228,0.077,0.46,0.143,0.694,0.198c0.02,0.005,0.039,0.012,0.059,0.016   c0.259,0.058,0.521,0.101,0.784,0.132c0.064,0.007,0.128,0.009,0.191,0.014c0.197,0.018,0.395,0.031,0.593,0.033   c0.028,0,0.055,0.005,0.083,0.005c0.035,0,0.07-0.008,0.105-0.009c0.363-0.005,0.727-0.03,1.087-0.088   c0.007-0.001,0.013-0.001,0.02-0.002c0.362-0.059,0.719-0.153,1.072-0.266c0.062-0.02,0.124-0.038,0.185-0.06   c0.339-0.119,0.671-0.262,0.996-0.432c0.059-0.031,0.115-0.065,0.173-0.097c0.333-0.186,0.66-0.391,0.97-0.633l9.156-7.144   l65.164,65.163l-28.312,28.312l-78.323-61.115l10.096-7.878c1.837-1.433,2.824-3.552,2.883-5.713   c0.046-1.68-0.47-3.386-1.585-4.815c-2.549-3.264-7.26-3.846-10.527-1.299l-103.575,80.819l-28.312-28.312l243.856-243.855   c2.929-2.93,2.929-7.678,0-10.607c-2.929-2.927-7.677-2.929-10.607,0L126.458,374.285l-28.274-28.275l57.256-72.222   c0.001-0.002,0.003-0.003,0.004-0.004l22.582-28.484l50.806-5.114c2.76-0.277,5.141-2.056,6.19-4.623   c1.051-2.566,0.598-5.504-1.176-7.636l-21.288-25.584l35.074-44.816l21.131-3.667c0.001,0,0.002-0.001,0.003-0.001l17.417-3.023   c3.498-0.607,6.091-3.583,6.213-7.13l1.553-44.869l23.772-34.043l41.947-11.092c4.005-1.059,6.393-5.164,5.334-9.168   c-1.06-4.005-5.169-6.393-9.168-5.334l-44.605,11.795c-1.717,0.454-3.216,1.502-4.233,2.957L280.38,92.067   c-0.828,1.187-1.296,2.588-1.346,4.034l-1.419,40.997l-6.987,1.213l-66.075-84.679c-1.008-1.291-2.412-2.218-3.996-2.637   L10.283,0.681C7.705,0.002,4.951,0.74,3.063,2.629c-1.888,1.889-2.63,4.639-1.947,7.221l23.871,90.277   c1.059,4.005,5.17,6.393,9.168,5.334c4.005-1.059,6.393-5.164,5.334-9.168L18.913,18.479l175.367,46.372l59.591,76.368   l-11.648,2.022c-1.831,0.318-3.479,1.304-4.624,2.768l-35.363,45.186l-60.765-60.764c-2.93-2.928-7.678-2.928-10.607,0   c-2.929,2.93-2.929,7.678,0,10.607l66.515,66.514l15.911,19.122l-39.922,4.019c-2.018,0.202-3.866,1.214-5.126,2.803   l-19.929,25.138l-83.028-64.786l-17.474-66.083c-1.059-4.005-5.162-6.395-9.168-5.334c-4.005,1.059-6.393,5.164-5.334,9.168   l18.119,68.525c0.419,1.585,1.346,2.988,2.638,3.996l84.928,66.268l-51.488,64.946L71.573,319.4   c-10.642-10.64-27.958-10.643-38.607,0.005l-0.613,0.614c-5.156,5.155-7.996,12.011-7.996,19.302c0,7.291,2.84,14.146,7.995,19.302   l27.227,27.228l-45.947,45.947c-18.175,18.175-18.175,47.748,0,65.923c9.088,9.087,21.024,13.631,32.961,13.631   s23.873-4.544,32.961-13.631l45.947-45.947l27.228,27.228c0.001,0,0.001,0,0.001,0c5.321,5.32,12.309,7.98,19.3,7.98   c6.99,0,13.983-2.662,19.308-7.985l0.613-0.614c5.156-5.155,7.996-12.011,7.996-19.302c0-7.291-2.84-14.146-7.995-19.303   l-15.885-15.885l79.828-62.289l79.827,62.289l-15.885,15.885c-10.643,10.643-10.643,27.961-0.004,38.6l0.623,0.624   c5.321,5.32,12.312,7.982,19.301,7.982c6.99,0,13.98-2.661,19.303-7.982l27.227-27.228l45.947,45.947   c9.088,9.087,21.024,13.631,32.961,13.631s23.873-4.544,32.961-13.631C516.328,479.546,516.328,449.972,498.154,431.798z    M76.539,479.519l-44.707-44.708l14.188-14.188l44.708,44.707L76.539,479.519z M24.239,487.113   c-11.304-11.303-12.234-29.103-2.805-41.485l44.29,44.29C53.342,499.346,35.54,498.417,24.239,487.113z M101.335,454.724   l-44.709-44.708l13.558-13.559l44.709,44.709L101.335,454.724z M184.945,459.08c0,3.284-1.279,6.372-3.606,8.699l-0.613,0.614   c-4.795,4.793-12.597,4.795-17.392,0h0.001l-32.531-32.531L75.49,380.547c-0.003-0.003-0.007-0.006-0.01-0.009l-32.522-32.522   c-2.322-2.322-3.602-5.41-3.602-8.694c0-3.284,1.279-6.372,3.606-8.699l0.613-0.614c4.794-4.795,12.597-4.796,17.391,0   l21.885,21.885l76.608,76.608l21.884,21.884C183.666,452.707,184.945,455.795,184.945,459.08z M435.245,479.519l-14.189-14.188   l44.708-44.707l14.188,14.188L435.245,479.519z M321.472,310.431l40.05-31.25l52.116,66.793l-28.311,28.311L321.472,310.431z    M348.45,468.393c-4.797,4.793-12.598,4.792-17.387,0.005l-0.622-0.624c-4.795-4.794-4.795-12.596,0-17.39l21.882-21.882   c0.001-0.001,0.001-0.001,0.002-0.002l76.608-76.608c0.003-0.003,0.005-0.006,0.008-0.009l21.877-21.877   c2.322-2.322,5.41-3.602,8.694-3.602c3.285,0,6.373,1.279,8.691,3.598l0.623,0.624c2.322,2.322,3.602,5.41,3.602,8.694   c0,3.284-1.279,6.372-3.602,8.694c0,0,0,0-0.001,0l-32.526,32.526c-0.002,0.002-0.004,0.003-0.006,0.005l-55.314,55.315   c-0.002,0.001-0.003,0.003-0.004,0.005L348.45,468.393z M441.6,396.458l13.558,13.559l-44.709,44.708l-13.558-13.558L441.6,396.458   z M487.546,487.113c-11.302,11.304-29.102,12.233-41.484,2.805l44.29-44.29C499.78,458.01,498.851,475.81,487.546,487.113z"/>
</g>















</svg>
