<?xml version="1.0" encoding="iso-8859-1"?>
<!-- Generator: Adobe Illustrator 19.0.0, SVG Export Plug-In . SVG Version: 6.00 Build 0)  -->
<svg version="1.1" id="Capa_1" xmlns="http://www.w3.org/2000/svg" xmlns:xlink="http://www.w3.org/1999/xlink" x="0px" y="0px"
	 viewBox="0 0 512 512" style="enable-background:new 0 0 512 512;" xml:space="preserve">
<path style="fill:#F0ECED;" d="M260.112,7.523H112.855c-14.644,0-25.897,12.958-23.83,27.455
	c10.336,72.547,8.522,228.588-5.441,277.459h176.53C284.184,248.245,284.184,63.691,260.112,7.523z M139.751,71.715
	c-8.864,0-16.048-7.186-16.048-16.048s7.185-16.048,16.048-16.048c8.864,0,16.048,7.186,16.048,16.048
	S148.613,71.715,139.751,71.715z"/>
<path style="fill:#E1D8DC;" d="M217.755,7.523h-104.9c-14.644,0-25.897,12.958-23.83,27.455
	c10.336,72.547,8.522,228.588-5.441,277.459h134.173C241.827,248.245,241.827,63.691,217.755,7.523z M139.751,71.715
	c-8.864,0-16.048-7.186-16.048-16.048s7.185-16.048,16.048-16.048c8.864,0,16.048,7.186,16.048,16.048
	S148.613,71.715,139.751,71.715z"/>
<path style="fill:#A58B95;" d="M85.637,500.122l-25.556-5.679c-13.417-2.982-21.619-16.573-18.002-29.833l41.503-152.174h80.241
	l-49.854,170.927C110.417,495.543,98.023,502.875,85.637,500.122z"/>
<path style="fill:#D2C5CA;" d="M118.688,249.248c7.863-84.346,1.492-182.366-4.074-241.725h-1.758
	c-14.644,0-25.897,12.958-23.83,27.455c10.336,72.547,8.522,228.588-5.441,277.459h26.058
	C113.553,292.195,116.64,271.207,118.688,249.248z"/>
<path style="fill:#967883;" d="M83.582,312.437L42.08,464.611c-2.922,10.713,1.873,21.639,10.897,27.015
	c22.934-56.812,44.086-114.135,56.663-179.189H83.582z"/>
<path style="fill:#A58B95;" d="M446.672,8.024h-16.048c-13.295,0-24.072,10.777-24.072,24.072v175.527h64.193V32.096
	C470.744,18.801,459.965,8.024,446.672,8.024z"/>
<path style="fill:#967883;" d="M450.684,8.363c-1.305-0.22-2.644-0.339-4.012-0.339h-16.048c-13.295,0-24.072,10.777-24.072,24.072
	v175.527h24.072V32.096C430.623,20.17,439.299,10.274,450.684,8.363z"/>
<path style="fill:#E1D8DC;" d="M470.744,432.297V207.623H310.262c-2.803,36.892-2.707,94.143,16.048,160.481
	c17.292,61.161,43.946,107.058,64.193,136.409C417.249,480.441,443.997,456.369,470.744,432.297z M446.672,408.225
	c0,8.863-7.185,16.048-16.048,16.048s-16.048-7.186-16.048-16.048s7.185-16.048,16.048-16.048S446.672,399.362,446.672,408.225z"/>
<path style="fill:#F0ECED;" d="M366.431,368.104c13.323,47.123,32.202,85.175,49.428,113.59
	c-8.452,7.607-16.904,15.213-25.356,22.819c-20.247-29.351-46.901-75.248-64.193-136.409
	c-18.755-66.338-18.852-123.59-16.048-160.481h40.12C347.579,244.515,347.675,301.766,366.431,368.104z"/>
<path d="M260.112,0H112.855c-9.164,0-17.864,3.969-23.868,10.889c-6.001,6.917-8.702,16.083-7.41,25.149
	c10.691,75.044,7.76,228.875-5.228,274.332c-0.005,0.017-0.007,0.034-0.011,0.052c-0.003,0.012-0.01,0.023-0.013,0.035
	L34.822,462.632c-3.64,13.348,2.082,27.967,13.883,35.224c2.999,1.845,6.309,3.169,9.745,3.932l25.556,5.679
	c2.285,0.508,4.571,0.752,6.828,0.752c13.748-0.001,26.364-9.06,30.356-22.747l48.275-165.512h90.647
	c3.135,0,5.943-1.945,7.043-4.882c11.605-30.947,18.534-90.052,18.534-158.107c0-68.169-6.977-125.145-18.662-152.412
	C265.841,1.793,263.121,0,260.112,0z M106.747,481.257c-2.435,8.347-10.991,13.406-19.477,11.522l-25.556-5.679
	c-9.094-2.022-14.832-11.503-12.376-20.51l39.99-146.63h64.464L106.747,481.257z M254.769,304.915h-26.618
	c6.812-23.306,10.44-53.51,12.328-76.15c0.345-4.14-2.731-7.776-6.872-8.121c-4.135-0.343-7.776,2.731-8.121,6.872
	c-2.746,32.935-7.245,59.513-13.073,77.4H93.155c12.459-59.182,12.985-203.133,3.316-270.998
	c-1.398-9.821,6.472-18.872,16.384-18.872h99.77c11.67,32.444,17.799,103.571,15,176.767c-0.158,4.151,3.078,7.646,7.23,7.804
	c0.098,0.003,0.196,0.005,0.293,0.005c4.021,0,7.356-3.182,7.512-7.235c2.332-60.981-1.301-136.416-14.164-177.342h26.489
	c9.708,26.936,15.658,80.375,15.658,141.926C270.643,218.838,264.608,274.614,254.769,304.915z"/>
<path d="M139.751,32.096c-12.997,0-23.571,10.574-23.571,23.571s10.574,23.571,23.571,23.571c12.997,0,23.571-10.574,23.571-23.571
	S152.748,32.096,139.751,32.096z M139.751,64.193c-4.701,0-8.526-3.824-8.526-8.526s3.824-8.526,8.526-8.526
	s8.526,3.824,8.526,8.526S144.452,64.193,139.751,64.193z"/>
<circle cx="83.581" cy="464.895" r="7.523"/>
<path d="M446.672,0.502h-16.048c-17.421,0-31.595,14.174-31.595,31.595V200.1h-88.766c-3.934,0-7.203,3.03-7.502,6.953
	c-4.189,55.127,1.299,110.002,16.31,163.098c14.006,49.54,35.956,96.183,65.239,138.634c2.539,3.678,7.9,4.313,11.225,1.32
	l80.241-72.217c1.586-1.426,2.49-3.459,2.49-5.592V32.096C478.266,14.675,464.093,0.502,446.672,0.502z M414.074,32.096
	c0-9.125,7.424-16.55,16.55-16.55h16.048c9.125,0,16.55,7.424,16.55,16.55V200.1h-49.147V32.096z M391.894,493.141
	c-25.951-39.17-45.566-81.883-58.345-127.083c-13.898-49.158-19.362-99.894-16.262-150.912h25.067
	c-3.083,52.402,2.56,104.509,16.837,155.006c10.89,38.516,26.712,75.515,47.045,110.081L391.894,493.141z M463.221,428.947
	l-45.564,41.008c-18.938-32.697-33.726-67.602-43.987-103.897c-13.899-49.158-19.339-99.894-16.239-150.912h105.789V428.947z"/>
<circle cx="438.646" cy="40.12" r="7.523"/>
<path d="M430.623,431.795c12.997,0,23.571-10.574,23.571-23.571s-10.574-23.571-23.571-23.571s-23.571,10.574-23.571,23.571
	S417.626,431.795,430.623,431.795z M430.623,399.699c4.701,0,8.526,3.824,8.526,8.526s-3.824,8.526-8.526,8.526
	s-8.526-3.824-8.526-8.526S425.922,399.699,430.623,399.699z"/>
<g>
</g>
<g>
</g>
<g>
</g>
<g>
</g>
<g>
</g>
<g>
</g>
<g>
</g>
<g>
</g>
<g>
</g>
<g>
</g>
<g>
</g>
<g>
</g>
<g>
</g>
<g>
</g>
<g>
</g>
</svg>
