<?xml version="1.0" encoding="iso-8859-1"?>
<!-- Generator: Adobe Illustrator 19.0.0, SVG Export Plug-In . SVG Version: 6.00 Build 0)  -->
<svg version="1.1" id="Capa_1" xmlns="http://www.w3.org/2000/svg" xmlns:xlink="http://www.w3.org/1999/xlink" x="0px" y="0px"
	 viewBox="0 0 512 512" style="enable-background:new 0 0 512 512;" xml:space="preserve">
<path style="fill:#B0EF60;" d="M256,122.74c-24.862,0-45.088,20.227-45.088,45.088s20.227,45.088,45.088,45.088
	s45.088-20.227,45.088-45.088S280.862,122.74,256,122.74z M256,182.857c-8.287,0-15.029-6.742-15.029-15.029
	s6.742-15.029,15.029-15.029c8.287,0,15.029,6.742,15.029,15.029S264.287,182.857,256,182.857z"/>
<g>
	<path style="fill:#FDD835;" d="M149.793,416.313c0,30.435-25.049,70.137-25.049,70.137s-25.049-39.702-25.049-70.137
		s25.049-40.078,25.049-40.078S149.793,385.878,149.793,416.313z"/>
	<path style="fill:#FDD835;" d="M362.207,416.313c0,30.435,25.049,70.137,25.049,70.137s25.049-39.702,25.049-70.137
		s-25.049-40.078-25.049-40.078S362.207,385.878,362.207,416.313z"/>
</g>
<circle style="fill:#B0EF60;" cx="256" cy="454.387" r="50.098"/>
<g>
	<path style="fill:#C68D6D;" d="M186.334,138.971l-0.001,0.016c10.042,0.871,19.864,4.681,28.088,11.407
		c4.572-10.864,13.282-19.573,24.145-24.145c-6.727-8.224-10.537-18.046-11.407-28.089l-0.015,0.001
		c-7.865-9.358-19.027-15.871-31.792-17.765L163.9,75.728l4.669,31.451C170.463,119.944,176.976,131.106,186.334,138.971z"/>
	<path style="fill:#C68D6D;" d="M227.144,237.494l0.016,0.001c0.871-10.042,4.681-19.864,11.407-28.088
		c-10.864-4.572-19.573-13.282-24.145-24.145c-8.224,6.727-18.046,10.537-28.089,11.407l0.001,0.016
		c-9.358,7.865-15.871,19.027-17.765,31.792l-4.669,31.451l31.451-4.669C208.116,253.365,219.278,246.852,227.144,237.494z"/>
	<path style="fill:#C68D6D;" d="M325.666,196.684l0.001-0.016c-10.042-0.871-19.864-4.681-28.088-11.407
		c-4.572,10.864-13.282,19.573-24.145,24.145c6.727,8.224,10.537,18.046,11.407,28.089l0.016-0.001
		c7.865,9.358,19.027,15.871,31.792,17.765l31.451,4.669l-4.669-31.451C341.537,215.711,335.024,204.549,325.666,196.684z"/>
	<path style="fill:#C68D6D;" d="M284.856,98.162l-0.016-0.001c-0.871,10.042-4.681,19.864-11.407,28.088
		c10.864,4.572,19.573,13.282,24.145,24.145c8.224-6.727,18.046-10.537,28.089-11.407l-0.001-0.016
		c9.358-7.865,15.871-19.027,17.765-31.792l4.669-31.451l-31.451,4.669C303.884,82.291,292.722,88.803,284.856,98.162z"/>
</g>
<g>
	<path style="fill:#FDD835;" d="M256,122.74c6.177,0,12.068,1.251,17.433,3.509c14.881-18.194,15.538-44.202,1.507-63.127
		L256,37.573l-18.941,25.548c-14.03,18.925-13.373,44.934,1.507,63.127C243.932,123.991,249.823,122.74,256,122.74z"/>
	<path style="fill:#FDD835;" d="M210.912,167.828c0-6.177,1.251-12.068,3.509-17.433c-18.194-14.881-44.202-15.538-63.127-1.507
		l-25.548,18.94l25.548,18.941c18.925,14.03,44.934,13.373,63.127-1.507C212.163,179.895,210.912,174.005,210.912,167.828z"/>
	<path style="fill:#FDD835;" d="M256,212.916c-6.177,0-12.068-1.251-17.433-3.509c-14.881,18.194-15.538,44.202-1.507,63.127
		L256,298.082l18.941-25.548c14.03-18.925,13.373-44.934-1.507-63.127C268.068,211.664,262.177,212.916,256,212.916z"/>
	<path style="fill:#FDD835;" d="M360.707,148.887c-18.925-14.03-44.934-13.373-63.127,1.507c2.258,5.365,3.509,11.256,3.509,17.433
		c0,6.177-1.251,12.068-3.509,17.433c18.194,14.881,44.202,15.538,63.127,1.507l25.548-18.939L360.707,148.887z"/>
</g>
<g>
	<path style="fill:#FBC02D;" d="M124.744,454.387c0,0-16.705-26.481-22.83-52.767c-1.373,4.248-2.219,9.118-2.219,14.693
		c0,30.435,25.049,70.137,25.049,70.137s25.049-39.702,25.049-70.137c0-5.575-0.846-10.445-2.219-14.693
		C141.448,427.907,124.744,454.387,124.744,454.387z"/>
	<path style="fill:#FBC02D;" d="M387.256,454.387c0,0-16.705-26.481-22.83-52.767c-1.373,4.248-2.219,9.118-2.219,14.693
		c0,30.435,25.049,70.137,25.049,70.137s25.049-39.702,25.049-70.137c0-5.575-0.846-10.445-2.219-14.693
		C403.961,427.907,387.256,454.387,387.256,454.387z"/>
</g>
<g>
	<path style="fill:#64DD17;" d="M256,484.446c-24.236,0-44.452-17.212-49.094-40.078c-0.657,3.237-1.004,6.588-1.004,10.02
		c0,27.668,22.43,50.098,50.098,50.098s50.098-22.43,50.098-50.098c0-3.432-0.347-6.782-1.004-10.02
		C300.452,467.235,280.236,484.446,256,484.446z"/>
	<path style="fill:#64DD17;" d="M256,196.885c-22.125,0-40.565-16.023-44.36-37.072c-0.47,2.603-0.728,5.279-0.728,8.016
		c0,24.862,20.227,45.088,45.088,45.088s45.088-20.227,45.088-45.088c0-2.736-0.259-5.413-0.728-8.016
		C296.565,180.861,278.125,196.885,256,196.885z"/>
</g>
<g>
	<path style="fill:#AD7153;" d="M227.144,98.162c-5.223-6.215-11.907-11.164-19.542-14.349c-1.696,12.141-0.256,24.607,4.305,36.139
		c-1.32,1.215-2.588,2.485-3.803,3.804c-8.302-3.275-17.204-5.011-26.223-5.011c-3.338,0-6.638,0.241-9.892,0.69
		c3.185,7.633,8.133,14.314,14.347,19.536l-0.001,0.016c10.042,0.871,19.864,4.681,28.088,11.407
		c4.572-10.864,13.282-19.573,24.145-24.145c-6.727-8.224-10.537-18.046-11.407-28.089L227.144,98.162z"/>
	<path style="fill:#AD7153;" d="M340.013,119.435c-3.254-0.45-6.555-0.69-9.892-0.69c-9.02,0-17.921,1.735-26.223,5.011
		c-1.215-1.32-2.484-2.589-3.803-3.804c4.561-11.532,6.002-23.997,4.305-36.139c-7.636,3.185-14.319,8.135-19.542,14.349
		l-0.016-0.001c-0.871,10.042-4.681,19.864-11.407,28.088c10.864,4.572,19.573,13.282,24.145,24.145
		c8.224-6.727,18.046-10.537,28.089-11.407l-0.001-0.016C331.879,133.749,336.827,127.068,340.013,119.435z"/>
	<path style="fill:#AD7153;" d="M214.421,185.261c-8.224,6.727-18.046,10.537-28.089,11.407l0.001,0.016
		c-6.213,5.222-11.161,11.903-14.347,19.536c3.254,0.45,6.555,0.69,9.892,0.691c0.001,0,0.001,0,0.002,0
		c9.019,0,17.919-1.735,26.221-5.01c1.215,1.32,2.484,2.588,3.803,3.804c-4.561,11.532-6.002,23.997-4.305,36.139
		c7.636-3.185,14.319-8.135,19.542-14.349l0.016,0.001c0.871-10.042,4.681-19.864,11.407-28.088
		C227.703,204.834,218.994,196.125,214.421,185.261z"/>
	<path style="fill:#AD7153;" d="M325.666,196.684l0.001-0.016c-10.042-0.871-19.864-4.681-28.088-11.407
		c-4.572,10.864-13.282,19.573-24.145,24.145c6.727,8.224,10.537,18.046,11.407,28.089l0.016-0.001
		c5.223,6.215,11.907,11.164,19.542,14.349c1.696-12.141,0.256-24.607-4.305-36.139c1.32-1.215,2.588-2.485,3.803-3.804
		c8.302,3.275,17.203,5.01,26.222,5.011c0.002,0,0.002,0,0.003,0c3.336,0,6.637-0.241,9.89-0.69
		C336.827,208.587,331.879,201.906,325.666,196.684z"/>
</g>
<g>
	<path style="fill:#FBC02D;" d="M196.692,140.97c-3.726,8.195-5.819,17.284-5.819,26.857c0,9.574,2.093,18.662,5.819,26.857
		c6.333-1.904,12.371-5.042,17.729-9.424c-2.258-5.365-3.509-11.256-3.509-17.433s1.251-12.068,3.509-17.433
		C209.063,146.012,203.026,142.874,196.692,140.97z"/>
	<path style="fill:#FBC02D;" d="M256,102.701c-9.574,0-18.662,2.093-26.857,5.819c1.904,6.333,5.042,12.371,9.424,17.729
		c5.365-2.258,11.256-3.509,17.433-3.509c6.177,0,12.068,1.251,17.433,3.509c4.383-5.357,7.521-11.396,9.424-17.729
		C274.662,104.794,265.574,102.701,256,102.701z"/>
	<path style="fill:#FBC02D;" d="M301.088,167.828c0,6.177-1.251,12.068-3.509,17.433c5.357,4.383,11.396,7.521,17.729,9.424
		c3.726-8.195,5.819-17.284,5.819-26.857c0-9.574-2.093-18.662-5.819-26.857c-6.333,1.904-12.371,5.042-17.729,9.424
		C299.837,155.76,301.088,161.651,301.088,167.828z"/>
	<path style="fill:#FBC02D;" d="M256,232.955c9.574,0,18.662-2.093,26.857-5.819c-1.904-6.333-5.042-12.371-9.424-17.729
		c-5.366,2.258-11.256,3.509-17.433,3.509c-6.177,0-12.068-1.251-17.433-3.509c-4.383,5.357-7.521,11.396-9.424,17.729
		C237.338,230.862,246.426,232.955,256,232.955z"/>
</g>
<path style="fill:#ED593B;" d="M256,7.515c-88.538,0-160.313,71.775-160.313,160.313S167.462,328.141,256,328.141
	s160.313-71.775,160.313-160.313S344.538,7.515,256,7.515z M256,298.082c-71.823,0-130.254-58.432-130.254-130.254
	S184.177,37.573,256,37.573s130.254,58.432,130.254,130.254S327.823,298.082,256,298.082z"/>
<path style="fill:#E23423;" d="M256,308.102c-85.172,0-154.818-66.424-159.992-150.294c-0.204,3.314-0.321,6.653-0.321,10.02
	c0,88.538,71.775,160.313,160.313,160.313s160.313-71.775,160.313-160.313c0-3.367-0.116-6.705-0.321-10.02
	C410.818,241.678,341.172,308.102,256,308.102z"/>
<path d="M256,30.059c-75.965,0-137.769,61.803-137.769,137.769S180.035,305.597,256,305.597s137.769-61.803,137.769-137.769
	S331.965,30.059,256,30.059z M350.864,108.283l2.283-15.38c13.017,16.839,21.767,37.136,24.597,59.261l-12.563-9.313
	c-7.21-5.344-15.283-8.827-23.615-10.49C346.368,125.176,349.575,116.974,350.864,108.283z M306.51,153.171
	c15.185-9.725,34.899-9.237,49.721,1.752l17.405,12.904l-17.405,12.904c-14.822,10.988-34.535,11.477-49.721,1.752
	c1.354-4.656,2.093-9.57,2.093-14.657C308.603,162.741,307.862,157.827,306.51,153.171z M335.997,106.077
	c-1.462,9.858-6.222,18.877-13.476,25.64c-7.757,1.01-15.348,3.571-22.298,7.681c-4.079-6.322-9.47-11.714-15.793-15.793
	c4.11-6.95,6.67-14.54,7.681-22.298c6.763-7.255,15.784-12.015,25.642-13.477l21.426-3.181L335.997,106.077z M233.84,171.945
	l-13.472,7.778c-1.252-3.741-1.941-7.738-1.941-11.895s0.688-8.154,1.941-11.895l13.472,7.778c-0.247,1.336-0.384,2.711-0.384,4.117
	S233.592,170.609,233.84,171.945z M241.365,184.954c2.081,1.781,4.488,3.191,7.12,4.125v15.565
	c-8.118-1.654-15.286-5.939-20.588-11.915L241.365,184.954z M241.365,150.701l-13.467-7.775c5.302-5.977,12.47-10.26,20.588-11.915
	v15.565C245.853,147.51,243.446,148.92,241.365,150.701z M256,160.313c4.144,0,7.515,3.371,7.515,7.515
	c0,4.144-3.371,7.515-7.515,7.515c-4.144,0-7.515-3.371-7.515-7.515C248.485,163.684,251.856,160.313,256,160.313z M263.515,189.079
	c2.632-0.934,5.039-2.344,7.12-4.125l13.467,7.775c-5.302,5.977-12.47,10.26-20.588,11.915v-15.565H263.515z M263.515,146.576
	v-15.565c8.118,1.654,15.286,5.939,20.588,11.915l-13.467,7.775C268.553,148.92,266.147,147.51,263.515,146.576z M278.16,171.945
	c0.247-1.336,0.384-2.711,0.384-4.117s-0.136-2.781-0.384-4.117l13.472-7.778c1.252,3.741,1.941,7.738,1.941,11.895
	s-0.688,8.154-1.941,11.895L278.16,171.945z M330.924,70.681l-15.379,2.283c-8.692,1.29-16.895,4.496-24.078,9.297
	c-1.663-8.332-5.146-16.406-10.492-23.615l-9.313-12.563C293.788,48.914,314.085,57.664,330.924,70.681z M256,50.191l12.904,17.406
	c10.989,14.822,11.478,34.535,1.752,49.721c-4.656-1.354-9.57-2.093-14.657-2.093c-5.087,0-10.001,0.74-14.657,2.093
	c-9.726-15.186-9.237-34.899,1.752-49.721L256,50.191z M240.336,46.083l-9.313,12.563c-5.345,7.209-8.828,15.283-10.491,23.615
	c-7.183-4.801-15.386-8.008-24.077-9.297l-15.38-2.283C197.915,57.664,218.212,48.914,240.336,46.083z M194.248,87.831
	c9.857,1.462,18.878,6.222,25.641,13.477c1.01,7.757,3.571,15.348,7.681,22.298c-6.322,4.079-11.714,9.47-15.793,15.793
	c-6.95-4.11-14.54-6.67-22.298-7.68c-7.254-6.763-12.015-15.783-13.476-25.641l-3.181-21.427L194.248,87.831z M205.49,182.484
	c-15.186,9.725-34.901,9.237-49.721-1.752l-17.406-12.904l17.405-12.904c14.822-10.988,34.535-11.477,49.721-1.752
	c-1.354,4.656-2.093,9.57-2.093,14.657C203.397,172.915,204.138,177.828,205.49,182.484z M158.852,92.903l2.283,15.379
	c1.29,8.692,4.496,16.895,9.297,24.078c-8.332,1.663-16.406,5.145-23.615,10.489l-12.563,9.313
	C137.086,130.039,145.836,109.742,158.852,92.903z M161.136,227.372l-2.283,15.38c-13.017-16.839-21.767-37.136-24.597-59.261
	l12.563,9.313c7.209,5.344,15.278,8.838,23.608,10.502C165.628,210.487,162.425,218.686,161.136,227.372z M176.003,229.578
	c1.461-9.851,6.216-18.865,13.462-25.626c7.762-1.009,15.355-3.588,22.309-7.7c4.079,6.324,9.472,11.719,15.796,15.798
	c-4.11,6.95-6.67,14.54-7.681,22.298c-6.763,7.255-15.784,12.015-25.642,13.477l-21.426,3.181L176.003,229.578z M181.076,264.975
	l15.379-2.283c8.692-1.289,16.895-4.496,24.078-9.297c1.663,8.332,5.146,16.406,10.491,23.615l9.313,12.563
	C218.212,286.742,197.915,277.992,181.076,264.975z M256,285.465l-12.904-17.406c-10.989-14.822-11.478-34.535-1.752-49.721
	c4.656,1.354,9.57,2.093,14.657,2.093c5.087,0,10.001-0.74,14.657-2.093c9.726,15.186,9.237,34.899-1.752,49.721L256,285.465z
	 M271.664,289.573l9.313-12.563c5.345-7.209,8.828-15.283,10.492-23.615c7.183,4.801,15.386,8.008,24.077,9.297l15.38,2.283
	C314.085,277.992,293.788,286.742,271.664,289.573z M317.752,247.825c-9.857-1.462-18.878-6.222-25.641-13.477
	c-1.01-7.757-3.571-15.348-7.681-22.298c6.323-4.08,11.717-9.473,15.796-15.798c6.955,4.112,14.546,6.691,22.31,7.7
	c7.246,6.761,12.001,15.775,13.462,25.627l3.181,21.427L317.752,247.825z M353.148,242.752l-2.283-15.379
	c-1.289-8.687-4.493-16.886-9.29-24.067c8.33-1.663,16.4-5.158,23.608-10.502l12.563-9.313
	C374.914,205.617,366.164,225.913,353.148,242.752z"/>
<path d="M394.771,371.62v-17.929H409.8v-15.029h-15.029v-76.553c18.328-26.891,29.057-59.355,29.057-94.281
	C423.828,75.287,348.54,0,256,0S88.172,75.287,88.172,167.828c0,34.925,10.729,67.391,29.057,94.281v76.553H102.2v15.029h15.029
	v17.929c-8.466,4.9-25.049,17.911-25.049,44.693c0,32.237,25.138,72.451,26.208,74.147l6.355,10.074l6.355-10.074
	c1.07-1.696,26.208-41.91,26.208-74.147c0-26.782-16.583-39.794-25.049-44.693v-17.929h15.029v-15.029h-15.029V281.08
	c29.124,31.795,70.306,52.364,116.227,54.398v31.238h-15.029v15.029h15.029v15.535c-28.228,3.695-50.098,27.887-50.098,57.107
	C198.387,486.156,224.232,512,256,512s57.613-25.844,57.613-57.613c0-29.219-21.87-53.41-50.098-57.107v-15.535h15.029v-15.029
	h-15.029v-31.237c45.921-2.034,87.103-22.603,116.227-54.398v57.58h-15.029v15.029h15.029v17.929
	c-8.466,4.9-25.049,17.911-25.049,44.693c0,32.237,25.138,72.451,26.208,74.147l6.355,10.074l6.355-10.074
	c1.07-1.696,26.208-41.91,26.208-74.147C419.82,389.531,403.237,376.519,394.771,371.62z M142.278,416.313
	c0,18.536-10.46,41.497-17.538,54.91c-7.078-13.4-17.53-36.336-17.53-54.91c0-19.372,12.005-28.52,17.532-31.704
	C130.251,387.79,142.278,396.952,142.278,416.313z M298.583,454.387c0,23.481-19.102,42.583-42.583,42.583
	s-42.583-19.102-42.583-42.583c0-23.481,19.102-42.583,42.583-42.583S298.583,430.907,298.583,454.387z M256,320.626
	c-84.254,0-152.798-68.545-152.798-152.798S171.746,15.029,256,15.029s152.798,68.545,152.798,152.798S340.254,320.626,256,320.626z
	 M387.252,471.223c-7.078-13.4-17.53-36.336-17.53-54.91c0-19.372,12.005-28.52,17.532-31.704
	c5.51,3.181,17.536,12.343,17.536,31.704C404.791,434.849,394.33,457.81,387.252,471.223z"/>
<g>
	<rect x="117.229" y="411.303" style="fill:#FFFFFF;" width="15.029" height="15.029"/>
	<rect x="379.742" y="411.303" style="fill:#FFFFFF;" width="15.029" height="15.029"/>
	<path style="fill:#FFFFFF;" d="M256,481.941c-15.193,0-27.554-12.36-27.554-27.554h15.029c0,6.906,5.618,12.524,12.524,12.524
		V481.941z"/>
	<path style="fill:#FFFFFF;" d="M283.554,454.387h-15.029c0-6.906-5.618-12.524-12.524-12.524v-15.029
		C271.193,426.834,283.554,439.194,283.554,454.387z"/>
	<rect x="248.485" y="232.955" style="fill:#FFFFFF;" width="15.029" height="25.049"/>
	<rect x="248.485" y="77.652" style="fill:#FFFFFF;" width="15.029" height="25.049"/>
	
		<rect x="305.242" y="218.061" transform="matrix(-0.7071 -0.7071 0.7071 -0.7071 376.0894 606.9317)" style="fill:#FFFFFF;" width="17.004" height="15.029"/>
	
		<rect x="189.737" y="102.556" transform="matrix(-0.7071 -0.7071 0.7071 -0.7071 260.5831 328.0783)" style="fill:#FFFFFF;" width="17.004" height="15.029"/>
	<rect x="321.127" y="160.313" style="fill:#FFFFFF;" width="25.049" height="15.029"/>
	<rect x="165.824" y="160.313" style="fill:#FFFFFF;" width="25.049" height="15.029"/>
	
		<rect x="306.231" y="101.573" transform="matrix(-0.7071 -0.7071 0.7071 -0.7071 457.7618 409.7614)" style="fill:#FFFFFF;" width="15.029" height="17.004"/>
	
		<rect x="190.726" y="217.072" transform="matrix(-0.7071 -0.7071 0.7071 -0.7071 178.9133 525.2557)" style="fill:#FFFFFF;" width="15.029" height="17.004"/>
</g>
<g>
</g>
<g>
</g>
<g>
</g>
<g>
</g>
<g>
</g>
<g>
</g>
<g>
</g>
<g>
</g>
<g>
</g>
<g>
</g>
<g>
</g>
<g>
</g>
<g>
</g>
<g>
</g>
<g>
</g>
</svg>
