<svg height="505pt" viewBox="0 -1 505.07099 505" width="505pt" xmlns="http://www.w3.org/2000/svg"><path d="m12.179688 210.882812c-.574219.179688-1.164063.320313-1.761719.417969-.671875-.503906-1.34375-1.003906-2.015625-1.425781 1.242187.410156 2.5.746094 3.777344 1.007812zm0 0" fill="#fec108"/><g fill="#ff9801"><path d="m478.4375 134.335938c-41.96875 75.539062-41.96875 92.328124-25.179688 109.113281 1 1.019531 2.0625 1.972656 3.1875 2.855469-7.132812 6.125-16.871093 8.644531-28.367187-2.855469-16.789063-16.785157-16.789063-33.574219 25.179687-109.113281 17.296876-27.992188 16.9375-63.4375-.925781-91.070313-.601562-11.9375-3.121093-23.699219-7.46875-34.832031 0 0 75.539063 50.359375 33.574219 125.902344zm0 0"/><path d="m461.648438 318.988281c-29.628907 29.628907-33.070313 72.269531-10.488282 81.835938-4.75 1.496093-9.710937 2.203125-14.691406 2.101562-33.574219 0-33.574219-50.363281 0-83.9375 16.902344-18.902343 27.746094-42.4375 31.140625-67.566406 17.039063 1.679687 27.613281-24.757813 27.613281-24.757813s0 58.753907-33.574218 92.324219zm0 0"/><path d="m478.4375 453.285156c-25.179688 33.574219-25.179688 41.96875-25.179688 41.96875h-25.179687s0-8.394531 25.179687-41.96875c10.820313-14.925781 17.035157-32.695312 17.875-51.117187 12.988282-1.019531 23.25-11.425781 24.089844-24.425781 4.351563 26.40625-1.660156 53.46875-16.785156 75.542968zm0 0"/></g><path d="m471.132812 402.167969c-.839843 18.421875-7.054687 36.191406-17.875 51.117187-25.179687 33.574219-25.179687 41.96875-25.179687 41.96875h-360.917969c-.890625-32.347656-9.523437-64.011718-25.183594-92.328125-21.820312-36.34375-31.054687-41.214843-33.070312-74.617187-.335938-5.121094-.503906-10.996094-.503906-17.710938 3.804687 4.851563 8.265625 9.148438 13.261718 12.757813 8.648438 5.875 19.808594 8.980469 28.707032-4.367188 16.367187-24.507812-15.023438-88.800781-39.953125-107.6875.597656-.097656 1.1875-.238281 1.761719-.417969h.085937c15.109375 3.355469 68.238281 9.066407 46.5-84.941406-13.429687-58.167968-3.023437-87.710937 9.652344-102.570312 6.039062-7.554688 14.480469-12.824219 23.921875-14.9375 0 0 0 25.429687 9.148437 37.097656 3.492188 5.246094 10.210938 7.285156 16.03125 4.867188 7.621094-2.5625 14-7.894532 17.878907-14.9375 4.539062-8.304688 7.039062-17.570313 7.300781-27.027344 21.589843 26.039062 33.773437 58.59375 34.582031 92.410156l24.757812 19.976562 12.257813 9.90625 37.601563-28.875c.25-25.9375 1.679687-48.011718 10.742187-66.390624 5.308594-10.703126 13.109375-19.972657 22.746094-27.027344-2.289063 11.328125-.316407 23.105468 5.539062 33.070312 4.757813 7.523438 11.574219 13.523438 19.640625 17.289063 2.597656-17.945313 13.914063-33.441407 30.21875-41.378907 8.917969-4.628906 18.574219-7.667968 28.539063-8.980468 0 0-26.023438 58.5 7.804687 83.933594l21.988282 9.066406 2.519531 1.003906c38.527343 6.96875 52.460937-25.515625 50.695312-59.171875 17.863281 27.632813 18.222657 63.078125.925781 91.070313-41.96875 75.539062-41.96875 92.328124-25.179687 109.113281 11.496094 11.5 21.234375 8.980469 28.367187 2.855469 3.140626 2.761718 7.023438 4.542968 11.164063 5.117187-3.394531 25.128906-14.238281 48.664063-31.140625 67.566406-33.574219 33.574219-33.574219 83.9375 0 83.9375 4.980469.101563 9.941406-.605469 14.691406-2.101562 3.296875 1.46875 6.878906 2.1875 10.488282 2.101562 3.179687.027344 6.351562-.222656 9.484374-.757812zm0 0" fill="#fec108"/><path d="m105.945312 495.253906c-3.667968-22.292968-19.640624-83.71875-35.179687-109.601562-5.378906-8.972656-10.070313-16.125-14.03125-22.253906l-3.230469-4.960938c10.167969-4.273438 18.8125-11.519531 24.800782-20.789062 19.246093-28.863282 8.175781-71.578126-9.796876-105.035157 4.523438-3.375 8.585938-7.328125 12.089844-11.75 18.003906-22.664062 21.5625-56.144531 10.910156-102.402343-3.367187-13.574219-5.179687-27.492188-5.40625-41.480469 7.648438 5.3125 16.761719 8.105469 26.070313 8 5.429687-.035157 10.820313-.941407 15.964844-2.683594 4.207031-1.398437 8.261719-3.214844 12.101562-5.425781 2.03125 8.25 3.199219 16.691406 3.484375 25.183594l.546875 15.332031 69.5625 56.113281 71.496094-54.960938.144531-16.359374c.058594-7.09375.242188-13.304688.570313-18.792969 3.058593 2.015625 6.234375 3.84375 9.507812 5.480469l45.234375 22.554687.527344-8.035156c4.398438 6.027343 9.671875 11.367187 15.644531 15.839843l3.433594 2.585938 31.769531 13.058594 3.492188.628906c5.300781.980469 10.675781 1.480469 16.066406 1.496094 10.519531.085937 20.933594-2.125 30.507812-6.480469-32.925781 60.507813-48.269531 101.140625-12.707031 136.703125 5.464844 5.578125 11.902344 10.109375 18.996094 13.371094-2.789063 5.394531-6.363281 10.34375-10.601563 14.6875-30.671874 30.671875-42.925781 74.214844-29.796874 105.894531 7.070312 17.871094 22.871093 30.820313 41.78125 34.253906-7.277344 9.808594-21.636719 52.171875-26.238282 59.828125zm0 0" fill="#ff5722"/><path d="m386.109375 396.546875v81.917969c-.027344 9.261718-7.527344 16.761718-16.785156 16.789062h-209.839844c-9.257813-.027344-16.757813-7.527344-16.785156-16.789062v-67.652344l218.230469-12.757812zm0 0" fill="#bfa885"/><path d="m360.929688 398.054688v80.410156c-.027344 9.261718-7.527344 16.761718-16.789063 16.789062h-184.65625c-9.257813-.027344-16.757813-7.527344-16.785156-16.789062v-67.652344zm0 0" fill="#ffe0b2"/><path d="m411.289062 209.875v134.296875c-.046874 37.0625-30.082031 67.101563-67.148437 67.144531h-179.617187s-1.933594.085938-5.121094 0h-.585938c-17.964844-.671875-72.351562-8.558594-69.164062-78.730468 3.695312-83.933594 3.695312-105.921876 3.695312-105.921876s.753906-16.789062 25.09375-16.789062zm0 0" fill="#bfa885"/><path d="m388.964844 209.875v134.296875c-.046875 37.0625-30.085938 67.101563-67.148438 67.144531h-163c-17.964844-.671875-72.351562-8.558594-69.164062-78.730468 3.695312-83.933594 3.695312-105.921876 3.695312-105.921876s.753906-16.789062 25.09375-16.789062zm0 0" fill="#ffe0b2"/><path d="m142.699219 209.875v-83.933594c0-18.542968 15.03125-33.574218 33.574219-33.574218 18.542968 0 33.574218 15.03125 33.574218 33.574218v83.933594h-41.96875" fill="#fdd7ad"/><path d="m272.460938 226.664062c2.964843-5.101562 4.527343-10.890624 4.535156-16.789062v-83.933594c0-18.542968-15.03125-33.574218-33.574219-33.574218s-33.574219 15.03125-33.574219 33.574218v83.933594" fill="#fdd7ad"/><path d="m310.566406 92.367188c18.542969 0 33.574219 15.03125 33.574219 33.574218v83.933594c0 18.542969-15.03125 33.574219-33.574219 33.574219-18.539062 0-33.570312-15.03125-33.570312-33.574219v-83.933594c0-18.542968 15.03125-33.574218 33.570312-33.574218zm0 0" fill="#fdd7ad"/><path d="m411.289062 125.941406v83.933594c0 18.542969-15.03125 33.574219-33.574218 33.574219-4.324219.03125-8.609375-.824219-12.589844-2.519531-12.691406-5.078126-21.007812-17.382813-20.984375-31.054688v-83.933594c-.023437-13.671875 8.292969-25.976562 20.984375-31.054687 3.980469-1.695313 8.265625-2.554688 12.589844-2.519531 8.910156-.011719 17.453125 3.523437 23.753906 9.820312 6.296875 6.300781 9.832031 14.84375 9.820312 23.753906zm0 0" fill="#bfa885"/><path d="m386.109375 125.941406v83.933594c.023437 13.671875-8.289063 25.976562-20.984375 31.054688-12.691406-5.078126-21.007812-17.382813-20.984375-31.054688v-83.933594c-.023437-13.671875 8.292969-25.976562 20.984375-31.054687 4.164062 1.679687 7.957031 4.160156 11.164062 7.300781 6.273438 6.316406 9.804688 14.851562 9.820313 23.753906zm0 0" fill="#fdd7ad"/><path d="m318.960938 193.089844h-16.785157c-4.636719 0-8.394531 3.757812-8.394531 8.390625 0 4.636719 3.757812 8.394531 8.394531 8.394531h16.785157c4.636718 0 8.394531-3.757812 8.394531-8.394531 0-4.632813-3.757813-8.390625-8.394531-8.390625zm0 0"/><path d="m369.324219 209.875h16.785156c4.636719 0 8.394531-3.757812 8.394531-8.394531 0-4.632813-3.757812-8.390625-8.394531-8.390625h-16.785156c-4.636719 0-8.394531 3.757812-8.394531 8.390625 0 4.636719 3.757812 8.394531 8.394531 8.394531zm0 0"/><path d="m318.960938 125.941406h-16.785157c-4.636719 0-8.394531 3.757813-8.394531 8.394532 0 4.632812 3.757812 8.390624 8.394531 8.390624h16.785157c4.636718 0 8.394531-3.757812 8.394531-8.390624 0-4.636719-3.757813-8.394532-8.394531-8.394532zm0 0"/><path d="m369.324219 142.726562h16.785156c4.636719 0 8.394531-3.757812 8.394531-8.390624 0-4.636719-3.757812-8.394532-8.394531-8.394532h-16.785156c-4.636719 0-8.394531 3.757813-8.394531 8.394532 0 4.632812 3.757812 8.390624 8.394531 8.390624zm0 0"/><path d="m235.027344 142.726562h16.785156c4.636719 0 8.394531-3.757812 8.394531-8.390624 0-4.636719-3.757812-8.394532-8.394531-8.394532h-16.785156c-4.636719 0-8.394532 3.757813-8.394532 8.394532 0 4.632812 3.757813 8.390624 8.394532 8.390624zm0 0"/><path d="m159.484375 134.335938c0 4.632812 3.757813 8.390624 8.394531 8.390624h16.789063c4.632812 0 8.390625-3.757812 8.390625-8.390624 0-4.636719-3.757813-8.394532-8.390625-8.394532h-16.789063c-4.636718 0-8.394531 3.757813-8.394531 8.394532zm0 0"/><path d="m360.929688 285.417969c0-4.636719-3.757813-8.394531-8.394532-8.394531h-50.359375c-4.636719 0-8.394531 3.757812-8.394531 8.394531 0 4.632812 3.757812 8.390625 8.394531 8.390625h50.359375c4.636719 0 8.394532-3.757813 8.394532-8.390625zm0 0"/><path d="m335.75 327.382812c4.632812 0 8.390625-3.757812 8.390625-8.394531 0-4.632812-3.757813-8.390625-8.390625-8.390625h-16.789062c-4.636719 0-8.394532 3.757813-8.394532 8.390625 0 4.636719 3.757813 8.394531 8.394532 8.394531zm0 0"/><path d="m251.8125 411.316406c-4.632812 0-8.390625 3.757813-8.390625 8.394532v33.574218c0 4.636719 3.757813 8.394532 8.390625 8.394532 4.636719 0 8.394531-3.757813 8.394531-8.394532v-33.574218c0-4.636719-3.757812-8.394532-8.394531-8.394532zm0 0"/><path d="m218.242188 411.316406c-4.636719 0-8.394532 3.757813-8.394532 8.394532v25.179687c0 4.636719 3.757813 8.394531 8.394532 8.394531 4.632812 0 8.390624-3.757812 8.390624-8.394531v-25.179687c0-4.636719-3.757812-8.394532-8.390624-8.394532zm0 0"/><path d="m494.382812 369.394531c-4.289062.429688-7.550781 4.039063-7.550781 8.347657 0 .691406-.285156 16.789062-25.183593 16.789062-6.480469.523438-12.519532-3.339844-14.761719-9.441406-5.683594-13.714844.503906-39.972656 20.699219-60.164063 35.621093-35.625 36.03125-95.746093 36.03125-98.261719.007812-4.027343-2.84375-7.488281-6.792969-8.253906-3.953125-.765625-7.890625 1.378906-9.390625 5.113282-2.308594 5.707031-9.433594 17.945312-16.734375 19.429687-4.496094.191406-8.800781-1.84375-11.507813-5.4375-11.691406-11.691406-16.226562-22.058594 26.582032-99.101563 45.207031-81.367187-35.4375-136.417968-36.25-136.964843-3.054688-2.023438-7.070313-1.835938-9.917969.46875-2.851563 2.308593-3.875 6.195312-2.53125 9.601562 9.191406 22.941407 10.515625 56.699219-3.179688 73.488281-7.09375 8.21875-18.152343 11.839844-28.730469 9.40625-6.839843-5.972656-15.445312-9.546874-24.503906-10.171874-25.507812-21.824219-3.894531-71.933594-3.667968-72.445313 1.222656-2.792969.832031-6.03125-1.019532-8.457031-1.851562-2.425782-4.875-3.652344-7.894531-3.207032-41.679687 6.242188-57.074219 30.214844-62.714844 45.324219-9.949219-8.675781-14.46875-22.03125-11.832031-34.96875.871094-3.449219-.523438-7.074219-3.488281-9.046875-2.960938-1.972656-6.847657-1.859375-9.691407.277344-30.988281 23.242188-35.847656 48.253906-36.6875 82.253906-.082031 0-.160156 0-.242187 0-13.265625.039063-25.722656 6.367188-33.574219 17.054688-1.1875-1.699219-2.5-3.308594-3.921875-4.816406-5.703125-5.640626-12.898437-9.53125-20.738281-11.222657-4.425781-56.035156-35.839844-81.984375-37.234375-83.09375-2.515625-2.019531-5.96875-2.417969-8.878906-1.023437-2.914063 1.394531-4.765625 4.332031-4.769531 7.5625 0 .277344-.21875 27.597656-19.4375 34-3.25 1.082031-4.523438.175781-5.136719-.269532-6.101563-4.355468-9-22.726562-9-33.730468.003906-2.433594-1.054688-4.75-2.894531-6.34375-1.839844-1.59375-4.28125-2.3125-6.6875-1.964844-13.578126 2.929688-25.4375 11.136719-32.960938 22.8125-15.789062 23.023438-18.351562 58.316406-7.605469 104.917969 8.066407 34.933593 6.226563 58.980469-5.320312 69.546875-12.5 11.433594-34.019531 4.589844-34.207031 4.53125-3.988282-1.332032-8.351563.492187-10.199219 4.273437-1.851563 3.78125-.613281 8.347657 2.890625 10.675781 24.339844 16.207032 52.507812 78.175782 39.640625 97.472657-3.667969 5.507812-6.714844 5.601562-7.71875 5.625-6.960938.109375-16.941407-9.644531-20.550781-14.421875-2.164063-2.886719-5.941407-4.066406-9.367188-2.925782-3.425781 1.144532-5.7382812 4.351563-5.7382812 7.964844 0 42.585938 6.3125002 52.28125 21.5625002 75.699219 3.757812 5.773437 8.140625 12.496094 13.210937 20.984375 14.828125 27.019531 23.046875 57.164062 23.980469 87.972656 0 4.632813 3.757813 8.390625 8.394531 8.390625h386.097656c4.324219.023438 7.960938-3.246093 8.390626-7.554687.285156-1.164063 3.046874-10.480469 23.546874-37.769532 16.617188-23.96875 23.1875-53.5 18.296876-82.253906-.863282-4.238281-4.804688-7.128906-9.109376-6.671875zm-141.847656-243.453125c0-13.90625 11.273438-25.179687 25.179688-25.179687s25.179687 11.273437 25.179687 25.179687v83.933594c0 13.90625-11.273437 25.179688-25.179687 25.179688s-25.179688-11.273438-25.179688-25.179688zm-75.691406-98.472656c3.015625 17.089844 14.214844 31.613281 29.972656 38.878906 2.511719 1.261719 5.492188 1.183594 7.933594-.210937 2.445312-1.398438 4.023438-3.921875 4.210938-6.730469.109374-1.285156 2.761718-28.421875 37.425781-39.449219-5.035157 17.398438-9.828125 46.347657 4.667969 67.5-6.726563 2.964844-12.558594 7.640625-16.914063 13.5625-7.832031-10.710937-20.304687-17.042969-33.574219-17.042969-13.269531 0-25.742187 6.332032-33.570312 17.042969-4.089844-5.996093-9.863282-10.648437-16.59375-13.371093.484375-27.527344 3.019531-44.800782 16.441406-60.179688zm58.90625 182.40625c0 13.90625-11.273438 25.179688-25.183594 25.179688-13.90625 0-25.179687-11.273438-25.179687-25.179688v-83.933594c0-13.90625 11.273437-25.179687 25.179687-25.179687 13.910156 0 25.183594 11.273437 25.183594 25.179687zm-109.117188 8.394531h16.789063c10.710937-.3125 20.320313 6.550781 23.5 16.785157h-40.289063zm16.789063-117.507812c6.679687-.015625 13.09375 2.632812 17.820313 7.359375 4.722656 4.726562 7.371093 11.136718 7.359374 17.820312v83.984375c-7.257812-5.464843-16.09375-8.429687-25.179687-8.445312h-25.179687v-75.539063c0-13.90625 11.273437-25.179687 25.179687-25.179687zm-41.96875 25.179687v75.539063h-50.359375v-75.539063c0-13.90625 11.273438-25.179687 25.179688-25.179687s25.179687 11.273437 25.179687 25.179687zm-152.28125 272.660156c-5.1875-8.652343-9.679687-15.542968-13.53125-21.46875-11.449219-17.578124-16.566406-25.441406-18.214844-46.578124 5.46875 3.890624 11.976563 6.046874 18.683594 6.1875 8.851563-.460938 16.855469-5.398438 21.246094-13.09375 16.183593-24.273438-4.199219-74.359376-26.566407-103.113282 9.511719-.621094 18.550782-4.367187 25.710938-10.660156 16.585938-15.109375 20.101562-43.949219 10.449219-85.796875-11.917969-51.628906-3.980469-78.058594 4.773437-91.179687 3.316406-5.082032 7.734375-9.355469 12.917969-12.503907 1.300781 11.632813 4.96875 27.992188 15.269531 35.417969 5.890625 4.210938 13.503906 5.179688 20.261719 2.578125 13.988281-5.105469 24.484375-16.878906 27.957031-31.359375 11.777344 17.101562 18.734375 37.058594 20.144532 57.773438-19.703126 3.824218-33.9375 21.066406-33.96875 41.136718v75.539063h-8.390626c-23.167968.027343-41.941406 18.800781-41.96875 41.96875v100.722656c.039063 31.992187 20.207032 60.5 50.359376 71.191406v63.101563c.027343 2.867187.550781 5.707031 1.546874 8.394531h-60.652343c-1.914063-31.003906-10.8125-61.175781-26.027344-88.257813zm110.3125 88.257813c-4.632813 0-8.390625-3.757813-8.390625-8.394531v-59.257813c2.785156.320313 5.585938.488281 8.390625.503907h8.394531c4.636719 0 8.394532-3.757813 8.394532-8.394532 0-4.632812-3.757813-8.390625-8.394532-8.390625h-8.394531c-2.457031 0-4.917969-.148437-7.359375-.4375-29.378906-3.710937-51.40625-28.703125-51.394531-58.316406v-100.722656c0-13.90625 11.273437-25.179688 25.183593-25.179688v16.785157c0 4.636718 3.757813 8.394531 8.390626 8.394531 4.636718 0 8.394531-3.757813 8.394531-8.394531v-16.785157h67.148437v16.785157c0 9.273437 7.515625 16.789062 16.785156 16.789062h40.421876c-3.542969 10.023438-13 16.742188-23.632813 16.785156h-75.542969c-4.636718 0-8.394531 3.757813-8.394531 8.394532 0 4.636718 3.757813 8.394531 8.394531 8.394531h16.789063v8.390625c0 13.90625 11.273437 25.179687 25.179687 25.179687h33.574219c32.433594.039063 58.714844 26.320313 58.753906 58.753907 0 4.636718 3.757813 8.394531 8.390625 8.394531 4.636719 0 8.394532-3.757813 8.394532-8.394531-.050782-41.695313-33.839844-75.488282-75.539063-75.539063h-33.574219c-4.636718 0-8.394531-3.757813-8.394531-8.394531v-8.390625h41.96875c23.164063-.03125 41.9375-18.800781 41.964844-41.96875v-.226563c8.851562 6.828125 20.085937 9.789063 31.148437 8.207032 11.066406-1.582032 21.023438-7.566407 27.605469-16.601563 6.582031 9.035156 16.539063 15.023437 27.605469 16.605469 11.066406 1.582031 22.300781-1.378906 31.148437-8.210938v100.949219c-.042969 32.429687-26.324219 58.707031-58.753906 58.753906h-25.179687c-4.636719 0-8.394532 3.757813-8.394532 8.390625 0 4.636719 3.757813 8.394532 8.394532 8.394532h8.394531v41.96875c0 4.632812 3.757812 8.390624 8.394531 8.390624 4.632812 0 8.390625-3.757812 8.390625-8.390624v-41.96875c11.65625-.035157 23.148437-2.765626 33.574219-7.972657v66.726563c0 4.636718-3.757813 8.394531-8.390625 8.394531zm312.238281-38.609375c-9.539062 11.960938-17.78125 24.902344-24.585937 38.609375h-54.179688c.996094-2.6875 1.519531-5.527344 1.546875-8.394531v-78.183594c16.039063-14.234375 25.207032-34.664062 25.179688-56.109375v-218.230469c-.039063-4.917968-.953125-9.789062-2.703125-14.386718 11.730469-.976563 22.546875-6.722657 29.921875-15.898438 12.84375-15.738281 15.949218-39.84375 12.96875-62.394531 17.023437 19.429687 35.351562 53.589843 11.230468 96.992187-41.019531 73.863282-45.6875 97.222656-23.777343 119.128906 6.523437 7.832032 16.699219 11.640626 26.765625 10.015626 3.34375-.71875 6.523437-2.054688 9.375-3.9375-3.570313 21.449218-13.195313 41.433593-27.75 57.59375-23.28125 23.285156-33.515625 56.296874-24.339844 78.453124 4.863281 12.363282 17 20.304688 30.273438 19.808594 9.09375.335938 18.097656-1.855468 26.019531-6.328125-1.257813 15.609375-6.773438 30.570313-15.945313 43.261719zm0 0"/></svg>