<svg height="512pt" viewBox="-72 0 512 512.00096" width="512pt" xmlns="http://www.w3.org/2000/svg"><path d="m160.367188 10.136719-9.351563 25.695312 69.71875 25.378907 9.355469-25.699219c.753906-2.082031-.316406-4.378907-2.398438-5.140625l-62.183594-22.632813c-2.082031-.753906-4.382812.316407-5.140624 2.398438zm0 0" fill="#b78358"/><path d="m227.691406 30.371094-19.683594-7.164063c1.457032.53125 2.027344 2.648438 1.269532 4.730469l-9.351563 25.699219-48.910156-17.800781 69.71875 25.375 9.355469-25.699219c.753906-2.078125-.316406-4.378907-2.398438-5.140625zm0 0" fill="#935d38"/><path d="m182.054688 162.605469 32.09375-48.226563-75.863282-39.230468c-16.945312 26.019531-52.960937 88.027343-47.453125 144.738281 5.941407 61.167969-26.976562 104.191406-47.664062 145.164062-20.808594 41.210938-40.871094 90.445313-34.421875 117.988281 7.492187 31.980469 67.160156 23.875 61.628906 3.949219-8.152344-29.355469 3.816406-99.03125 39.457031-144.785156 33.6875-43.253906 72.96875-124.824219 72.222657-179.597656zm0 0" fill="#b78358"/><path d="m214.148438 114.378906-75.863282-39.230468c-.078125.117187-.15625.242187-.234375.363281l52.867188 30.414062-28.726563 49.449219c-4.042968 53.03125-41.101562 135.410156-70.636718 180.175781-31.242188 47.355469-46.3125 115.902344-42.523438 143.667969 1.570312 11.488281-15.105469 20.761719-29.058594 19.375 19.308594 12.300781 54.722656 3.949219 50.402344-11.605469-8.152344-29.355469 3.816406-99.03125 39.457031-144.785156 33.691407-43.253906 72.96875-124.824219 72.222657-179.597656zm0 0" fill="#935d38"/><path d="m348.308594 101.882812-214.304688-78c-6.152344-2.238281-12.953125.933594-15.195312 7.085938l-30.957032 85.054688c-2.238281 6.152343.933594 12.957031 7.085938 15.195312l123.007812 44.769531c5.441407 1.984375 9.597657 6.460938 11.167969 12.039063l11.894531 42.289062s26.457032 23.769532 44.679688 41.082032c.414062.390624 1.03125.476562 1.535156.214843 67.503906-34.964843 89.371094-124.773437 61.085938-169.730469zm0 0" fill="#6e7093"/><path d="m299.507812 237.867188c-.480468.183593-1.085937.074218-1.519531-.273438-18.902343-15.4375-46.265625-36.71875-46.265625-36.71875l-14.324218-35.617188c-1.886719-4.695312-6.234376-8.65625-11.675782-10.636718l-123.007812-44.769532c-6.152344-2.238281-9.6875-8.050781-7.894532-12.976562l-6.96875 19.148438c-2.238281 6.152343.933594 12.957031 7.085938 15.195312l123.003906 44.773438c5.445313 1.980468 9.601563 6.460937 11.167969 12.035156l11.898437 42.292968s26.453126 23.769532 44.675782 41.078126c.414062.394531 1.03125.480468 1.539062.214843 35-18.128906 57.722656-51 67.558594-84.71875-9.855469 21.488281-28.230469 40.570313-55.273438 50.972657zm0 0" fill="#4e5173"/><path d="m348.308594 101.882812-26.71875-9.726562c19.027344 45.316406-1.089844 122.097656-56.4375 160.113281 6.867187 6.3125 14.199218 13.109375 20.535156 19.128907.414062.394531 1.03125.476562 1.539062.214843 67.5-34.964843 89.367188-124.773437 61.082032-169.730469zm0 0" fill="#e6eff5"/><path d="m267.539062 233.890625v107.980469c0 6.636718 5.378907 12.015625 12.015626 12.015625 6.632812 0 12.011718-5.378907 12.011718-12.015625v-42.519532c0-6.632812 5.378906-12.011718 12.011719-12.011718 6.636719 0 12.015625 5.378906 12.015625 12.011718v19.992188c0 6.632812 5.375 12.011719 12.011719 12.011719 6.632812 0 12.011719-5.375 12.011719-12.011719v-116.339844zm0 0" fill="#ed6161"/><path d="m351.132812 197.796875c-2.203124-3.765625-4.914062-7.242187-8.230468-10.273437-11.59375-10.605469-26.308594-17.105469-38.21875-27.332032-4.871094-4.183594-9.265625-8.933594-14.425782-12.753906-5.160156-3.820312-11.335937-6.726562-17.75-6.46875-6.414062.257812-12.945312 4.355469-14.515624 10.582031-2.6875 10.632813 7.714843 18.191407 14.542968 24.300781 7.214844 6.453126 13.863282 14.957032 13.777344 25.113282-.070312 7.761718-5.074219 15.71875-12.613281 17.558594-6.882813 1.675781-13.839844-1.753907-20.335938-4.585938-6.007812-2.617188-12.308593-4.179688-18.171875-4.296875l5.816406 20.675781s26.457032 23.769532 44.679688 41.082032c.414062.390624 1.03125.476562 1.539062.214843 31.207032-16.164062 52.652344-44.058593 63.90625-73.816406zm0 0" fill="#ed6161"/><path d="m287.398438 271.519531c29.121093-15.140625 51.628906-41.714843 63.730468-73.730469-.363281-.617187-.742187-1.226562-1.132812-1.828124-10.539063 17.707031-27.320313 32.996093-50.488282 41.90625-.480468.183593-1.085937.074218-1.519531-.273438-7.398437-6.042969-16.089843-12.976562-23.929687-19.179688-.121094.03125-.238282.078126-.363282.105469-6.882812 1.679688-13.835937-1.753906-20.332031-4.582031-6.007812-2.617188-12.308593-4.179688-18.171875-4.296875l5.816406 20.675781s5.8125 5.222656 13.867188 12.554688c2.683594 2.445312 5.617188 5.121094 8.667969 7.921875 24.203125 22.199219 22.257812 21.554687 23.855469 20.726562zm0 0" fill="#ce4545"/><path d="m358.148438 200.449219c.105468-.289063.195312-.582031.269531-.875 13.371093-36.191407 12.722656-75.484375-3.761719-101.6875-.886719-1.40625-2.21875-2.484375-3.78125-3.054688l-118.675781-43.191406 4.933593-13.558594c1.058594-2.890625.921876-6.019531-.382812-8.808593-1.304688-2.792969-3.617188-4.90625-6.496094-5.945313l-62.203125-22.644531c-5.949219-2.148438-12.5625.9375-14.734375 6.890625l-4.933594 13.558593-11.8125-4.300781c-4.859374-1.769531-10.117187-1.535156-14.800781.648438-4.683593 2.183593-8.238281 6.066406-10.007812 10.921875l-30.957031 85.054687c-3.652344 10.03125 1.539062 21.160157 11.566406 24.808594l4.234375 1.542969c-11.121094 29.617187-15.574219 56.769531-13.238281 80.796875 4.617187 47.546875-15.199219 83.25-34.363282 117.777343-4.445312 8.011719-8.648437 15.582032-12.539062 23.289063-2.007813 3.984375-3.972656 7.96875-5.835938 11.835937-1.800781 3.730469-.234375 8.214844 3.5 10.015626 3.738282 1.800781 8.214844.222656 10.011719-3.5 1.828125-3.792969 3.753906-7.695313 5.71875-11.597657 3.757813-7.4375 7.886719-14.882812 12.261719-22.761719 19.332031-34.835937 41.246094-74.3125 36.179687-126.507812-2.117187-21.773438 2.054688-46.714844 12.402344-74.21875l63.785156 23.21875c-1.8125 51.160156-37.3125 126.734375-70.570312 169.441406-37.824219 48.554688-49.238281 120.902344-40.769531 151.398438 1.140624 4.125-15.496094 11.183594-31.796876 6.496094-5.863281-1.683594-13.277343-5.507813-15.304687-14.160157-2.441406-10.441406-1.65625-31.808593 15.953125-74.335937 1.585938-3.824219-.230469-8.210938-4.058594-9.796875-3.824218-1.585938-8.210937.230469-9.796875 4.058593-15.582031 37.621094-21.046875 64.929688-16.707031 83.496094 2.878906 12.277344 12.03125 21.210938 25.769531 25.15625 4.925781 1.417969 10.1875 2.089844 15.382813 2.089844 12.027344 0 23.710937-3.605469 30.128906-9.96875 4.863281-4.816406 6.59375-10.871094 4.878906-17.046875-7.445312-26.8125 3.71875-93.964844 38.152344-138.167969 17.960938-23.0625 36.152344-54.75 49.917969-86.945312 9.917969-23.199219 21.476562-55.953125 23.5625-86.347656l26.144531 9.515624c3.167969 1.152344 5.601562 3.777344 6.515625 7.019532l11.894531 42.292968c.386719 1.367188 1.148438 2.597657 2.207032 3.546876.105468.09375 4.183593 3.757812 10.183593 9.210937 3.976563 3.609375 8.792969 8 13.859375 12.652344v84.117187c0 10.757813 8.753906 19.507813 19.511719 19.507813 5.214844 0 10.117187-2.027344 13.789063-5.703125 3.695312-3.675782 5.730468-8.578125 5.730468-13.804688v-42.523437c0-2.484375 2.023438-4.507813 4.511719-4.507813 2.457031 0 4.507813 1.988282 4.507813 4.507813v19.992187c0 10.757813 8.753906 19.507813 19.511718 19.507813 5.214844 0 10.117188-2.027344 13.804688-5.714844s5.714844-8.585937 5.714844-13.792969v-24.140625c0-4.144531-3.355469-7.5-7.5-7.5-4.140626 0-7.5 3.359375-7.5 7.5v24.140625c0 1.203125-.46875 2.332032-1.320313 3.1875-.855469.851563-1.988281 1.320313-3.199219 1.320313-2.484375 0-4.507812-2.023438-4.507812-4.507813v-19.992187c0-5.222657-2.035156-10.125-5.703125-13.78125-3.679688-3.691407-8.582031-5.730469-13.808594-5.730469-10.757813 0-19.511719 8.753906-19.511719 19.511719v42.523437c0 1.203125-.464844 2.332032-1.324218 3.183594-.851563.855469-1.984376 1.324219-3.195313 1.324219-2.484375 0-4.507813-2.023438-4.507813-4.507813v-70.210937c1.882813 1.765625 3.722657 3.5 5.480469 5.167969 1.679688 1.597656 3.871094 2.429687 6.085938 2.429687 1.386719 0 2.78125-.324219 4.070312-.992187.011719-.007813.027344-.015626.042969-.023438 4.699219-2.433594 9.304688-5.1875 13.691406-8.183594 3.421875-2.332031 4.304688-7 1.96875-10.421875-2.332031-3.421875-7-4.300781-10.421875-1.96875-2.707031 1.847657-5.507812 3.59375-8.359375 5.207031-11.734375-11.050781-27.691406-25.621093-39.707031-36.453124-.085937-.082032-.171875-.15625-.253906-.230469l-2.015625-7.171875c1.570312.5 3.160156 1.097656 4.746094 1.789062l1.402343.617188c6.617188 2.910156 14.847657 6.53125 23.703125 4.378906 10.519532-2.566406 18.230469-12.988281 18.335938-24.78125.238281-27.207031-31.441406-36.1875-28.546875-47.644531.648437-2.574219 4.035156-4.78125 7.546875-4.921875 8.089844-.34375 15.738281 7.023437 21.316406 12.253906 1.8125 1.703125 3.6875 3.460938 5.671875 5.164062 5.707031 4.898438 11.910156 8.933594 17.960937 12.804688.140626.097656.289063.191406.4375.277344.226563.144531.457032.292968.6875.4375 6.863282 4.386718 13.347657 8.527344 18.957032 13.65625 1.789062 1.636718 3.429687 3.5 4.902344 5.570312-5.960938 14.5625-14.390626 28.144532-24.527344 39.46875-2.761719 3.085938-2.5 7.828125.585937 10.589844 3.089844 2.765625 7.832031 2.5 10.589844-.585938.921875-1.03125 1.832031-2.078124 2.726563-3.136718v20.242187c0 4.140625 3.359374 7.5 7.5 7.5 4.144531 0 7.5-3.359375 7.5-7.5v-41.578125c.902343-1.554687 1.773437-3.125 2.617187-4.707031 3.199219-5.957031 6.019531-12.144531 8.414063-18.472656zm-191.925782-184.46875 55.621094 20.25-3.738281 10.277343-55.625-20.246093zm128.5 125.429687c-21.382812-15.832031-40.585937-5.234375-44.003906 8.304688-6.109375 24.179687 28.265625 31.226562 28.089844 51.183594-.039063 4.785156-3.132813 9.421874-6.886719 10.335937-7.089844 1.726563-15.9375-6.492187-30.917969-8.625l-4.671875-16.613281c-2.21875-7.878906-8.132812-14.253906-15.824219-17.054688l-123.003906-44.769531c-1.09375-.398437-1.96875-1.199219-2.457031-2.25-.492187-1.058594-.546875-2.238281-.148437-3.332031 32.550781-88.085938 30.113281-86.070313 33.210937-87.515625 2.847656-1.328125 3.585937.371093 22.132813 6.699219.019531.007812.039062.015624.058593.023437.019531.003906.042969.011719.0625.019531l165.484375 60.234375c6.425782 17.476563 6.972656 39.664063 1.636719 62.496094-11.808594-8.1875-13.957031-12.617187-22.761719-19.136719zm36.046875 27.796875c6.105469-22.75 6.945313-45.421875 2.542969-64.800781l9.929688 3.613281c8.089843 14.179688 11.234374 33.359375 8.871093 54.367188-.75 6.652343-2.039062 13.320312-3.828125 19.902343-.105468-.101562-.214844-.199218-.320312-.300781-5.394532-4.933593-11.316406-8.980469-17.195313-12.78125zm0 0"/></svg>