<svg height="512pt" viewBox="0 -9 512.00048 512" width="512pt" xmlns="http://www.w3.org/2000/svg"><path d="m479.253906 372.859375c4.226563 8.203125 6.597656 17.496094 6.558594 27.359375-.152344 31.707031-25.757812 58.011719-57.453125 58.953125-20.28125.609375-38.355469-8.992187-49.484375-24.042969-20.324219 20.535156-48.535156 33.265625-79.710938 33.265625-24.632812 0-47.398437-7.945312-65.898437-21.398437-23.859375 24.84375-57.410156 40.324218-94.570313 40.324218-72.71875 0-131.597656-59.207031-131.089843-132.035156.503906-72.179687 60.066406-130.769531 132.246093-130.140625 36.703126.316407 69.808594 15.722657 93.414063 40.3125 18.5-13.449219 41.265625-21.398437 65.898437-21.398437 17.859376 0 34.734376 4.1875 49.726563 11.609375 3.324219-20.527344 8.046875-43.851563 13.855469-66.769531 5.820312-22.917969 12.742187-45.429688 20.476562-64.292969l-43.453125-16.828125c-8.210937-3.183594-13.632812-11.089844-13.632812-19.90625v-41.488282c0-10.125 6.40625-19.136718 15.964843-22.460937l41.882813-14.566406c15.070313-5.242188 31.683594 1.773437 38.40625 16.25 8.765625 18.890625 21.386719 47.566406 35.007813 83.367187h-.007813c27.742187 55.621094 47.011719 163.742188 47.011719 199.542969 0 25.339844-9.671875 48.179687-25.148438 64.34375zm0 0" fill="#ffd0a6"/><path d="m380.667969 284.058594c-2.21875-3.609375-13.339844-20.546875-31.777344-28.390625 3.324219-20.527344 8.046875-43.851563 13.855469-66.769531 5.820312-22.917969 12.742187-45.429688 20.476562-64.292969l23.191406-4.886719c-7.875 33.996094-42.519531 135.023438-25.746093 164.339844zm0 0" fill="#e8b182"/><path d="m478.808594 166.496094-88.347656 12.15625-25.980469 3.578125c5.433593-20.597657 11.75-40.597657 18.742187-57.625l23.191406-4.886719 50.976563-10.746094c7.914063 15.863282 15.132813 36.003906 21.417969 57.523438zm0 0" fill="#f94141"/><path d="m446.609375 428.757812c14.375-.425781 27.5-6.070312 37.566406-15.074218-6.113281 25.371094-28.738281 44.683594-55.8125 45.484375-20.28125.605469-38.363281-8.992188-49.484375-24.042969-20.332031 20.535156-48.53125 33.265625-79.722656 33.265625-24.621094 0-47.386719-7.945313-65.894531-21.398437-23.851563 24.84375-57.402344 40.324218-94.570313 40.324218-72.707031 0-131.597656-59.207031-131.082031-132.035156.210937-30.472656 10.957031-58.519531 28.734375-80.707031-6.636719 15.480469-10.367188 32.476562-10.488281 50.296875-.519531 72.828125 58.375 132.035156 131.082031 132.035156 37.167969 0 84.722656-17.585938 115.34375-35.660156 18.507812 13.453125 20.5 16.734375 45.121094 16.734375 25.328125 0 48.683594-8.394531 67.457031-22.546875 6.886719-5.191406 16.40625-4.796875 23.167969.5625 10.542968 8.355468 23.992187 13.199218 38.582031 12.761718zm0 0" fill="#e8b182"/><path d="m406.414062 119.71875c-2.9375 12.699219-9.617187 34.757812-15.953124 58.933594l-25.980469 3.578125c5.433593-20.597657 11.75-40.597657 18.742187-57.625zm0 0" fill="#e22b2b"/><path d="m92.1875 241.894531c15.144531-6.210937 31.167969-9.28125 47.597656-9.148437 33.511719.289062 64.765625 13.777344 87.996094 37.976562.015625.019532.039062.035156.058594.054688.015625.019531.03125.039062.050781.058594 15.988281 15.988281 35.460937 16.171874 36.28125 16.171874 4.199219 0 7.628906-3.402343 7.628906-7.601562s-3.378906-7.601562-7.578125-7.601562c-.449218-.007813-8.882812-.203126-17.992187-5.75 16-9.429688 34.101562-14.390626 52.929687-14.390626 16.269532 0 31.867188 3.636719 46.351563 10.816407.054687.027343.109375.042969.164062.066406.082031.039063.15625.082031.238281.117187 17.96875 7.644532 28.457032 25.664063 28.550782 25.828126 1.398437 2.46875 3.972656 3.855468 6.621094 3.855468 1.269531 0 2.554687-.316406 3.738281-.988281 3.65625-2.070313 4.9375-6.707031 2.867187-10.363281-.476562-.84375-11.035156-19.15625-30.371094-29.675782 3.628907-21.351562 8.152344-42.546874 13.21875-62.253906l102.78125-14.136718c2.554688 9.117187 4.773438 17.839843 6.628907 25.605468.980469 4.085938 5.078125 6.601563 9.164062 5.625 4.082031-.976562 6.601563-5.078125 5.625-9.164062-5.511719-23.042969-14.140625-54.339844-25.375-80.28125-1.605469-3.707032-8.523437-20-10.265625-24.429688-11.832031-30.105468-22.535156-54.207031-29.8125-69.882812-8.394531-18.085938-28.945312-26.78125-47.796875-20.226563l-41.875 14.566407c-12.605469 4.382812-21.074219 16.292968-21.074219 29.636718v41.492188c0 .132812.015626.265625.015626.398437.003906.058594.003906.117188.007812.175781.234375 11.632813 7.585938 22.203126 18.46875 26.417969l36.3125 14.066407c-11.777344 30.835937-22.796875 72.925781-30.316406 115.820312-13.929688-5.507812-28.640625-8.289062-43.863282-8.289062-23.292968 0-45.632812 6.605468-65.003906 19.164062-25.546875-24.304688-58.761718-37.773438-94.238281-38.082031-18.46875-.183594-36.472656 3.300781-53.5 10.285156-3.886719 1.59375-5.742187 6.035156-4.148437 9.917969 1.589843 3.882812 6.03125 5.742187 9.914062 4.148437zm376.792969-81.714843-94.136719 12.945312c4.402344-15.492188 9.109375-29.710938 13.921875-41.917969l64.351563-13.5625c6.011718 12.996094 11.332031 27.882813 15.863281 42.535157zm-126.464844-59.492188c-3.230469-1.253906-5.804687-3.6875-7.308594-6.6875l46.453125-8.152344c6.59375-1.160156 12.226563-5.1875 15.453125-11.054687 3.226563-5.867188 3.609375-12.78125 1.054688-18.972657l-3.382813-8.195312c-1.601562-3.882812-6.042968-5.730469-9.925781-4.128906-3.882813 1.601562-5.730469 6.046875-4.128906 9.929687l3.382812 8.195313c.789063 1.90625.667969 4.035156-.324219 5.84375-.992187 1.808594-2.730468 3.050781-4.761718 3.40625l-45.289063 7.949218v-32.4375c0-6.878906 4.367188-13.019531 10.863281-15.277343l41.875-14.566407c11.445313-3.984374 23.917969 1.292969 29.015626 12.269532 7.625 16.421875 19.0625 42.230468 31.605468 74.5625l-63.234375 13.328125zm0 0"/><path d="m512 308.515625c0-17.691406-4.484375-51.113281-11.425781-85.144531-.839844-4.113282-4.855469-6.769532-8.96875-5.929688s-6.769531 4.855469-5.929688 8.96875c6.753907 33.117188 11.121094 65.347656 11.121094 82.105469 0 22.589844-8.179687 43.574219-23.03125 59.089844-2.246094 2.34375-2.753906 5.851562-1.269531 8.734375 3.828125 7.4375 5.75 15.460937 5.710937 23.847656-.128906 27.511719-22.589843 50.5625-50.070312 51.386719-16.9375.492187-33.070313-7.332031-43.148438-20.964844-1.320312-1.785156-3.351562-2.902344-5.566406-3.0625-2.21875-.167969-4.386719.65625-5.949219 2.234375-19.792968 19.996094-46.183594 31.007812-74.3125 31.007812-19.097656 0-37.453125-5.097656-53.621094-14.796874 15.605469-13.3125 28.761719-17.414063 28.886719-17.453126 4.03125-1.183593 6.335938-5.40625 5.148438-9.4375-1.183594-4.027343-5.410157-6.332031-9.4375-5.148437-.84375.25-20.902344 6.320313-42.25 27.664063-.015625.019531-.03125.039062-.046875.058593-.019532.019531-.042969.035157-.058594.054688-23.515625 24.492187-55.15625 37.980469-89.089844 37.980469-33.148437 0-64.269531-12.953126-87.625-36.476563-23.359375-23.519531-36.089844-54.734375-35.859375-87.894531.28125-39.738282 20.039063-77.207032 52.855469-100.238282 3.4375-2.410156 4.265625-7.152343 1.855469-10.589843-2.414063-3.4375-7.152344-4.265625-10.589844-1.855469-36.832031 25.847656-59.011719 67.933594-59.32421875 112.574219-.26171825 37.246093 14.04296875 72.300781 40.27343775 98.71875 26.230468 26.417969 61.183594 40.96875 98.414062 40.96875 35.945313 0 69.601563-13.476563 95.464844-38.089844 19.371094 12.558594 41.707031 19.167969 65.003906 19.167969 29.441406 0 57.222656-10.535156 79.09375-29.832032 13.015625 13.582032 31.289063 21.164063 50.335938 20.605469 17.304687-.519531 33.558594-7.703125 45.769531-20.234375 12.203125-12.527344 18.96875-28.960937 19.050781-46.277344.042969-8.914062-1.726562-17.8125-5.144531-26.023437 15.34375-17.886719 23.734375-41.019531 23.734375-65.71875zm0 0"/></svg>