<svg height="512pt" viewBox="-78 0 511 512" width="512pt" xmlns="http://www.w3.org/2000/svg"><path d="m124.210938 23.238281 16.175781 67.6875h75.835937l16.171875-67.6875c1.921875-8.027343-4.164062-15.738281-12.417969-15.738281h-83.34375c-8.253906 0-14.339843 7.710938-12.421874 15.738281zm0 0" fill="#ffcd34"/><path d="m219.976562 7.5h-23.75c8.253907 0 14.339844 7.710938 12.421876 15.738281l-16.175782 67.6875h23.75l16.175782-67.6875c1.917968-8.027343-4.167969-15.738281-12.421876-15.738281zm0 0" fill="#e69012"/><path d="m348.347656 365.714844c-3.316406-29.207032-68.671875-90.003906-100.347656-117.917969-10.765625-9.488281-16.925781-23.136719-16.925781-37.484375v-59.96875h4.300781c16.40625 0 29.707031-13.300781 29.707031-29.707031 0-16.410157-13.300781-29.710938-29.707031-29.710938h-114.144531c-16.40625 0-29.707031 13.300781-29.707031 29.710938 0 16.40625 13.300781 29.707031 29.707031 29.707031h4.300781v59.96875c0 14.347656-6.160156 27.996094-16.925781 37.484375-31.671875 27.914063-97.027344 88.710937-100.34375 117.917969-4.839844 42.613281 57.960937 138.785156 100.851562 138.785156h138.378907c42.890624 0 105.691406-96.171875 100.855468-138.785156zm0 0" fill="#d8e6f0"/><path d="m348.347656 365.714844c-3.316406-29.207032-68.671875-90.003906-100.347656-117.917969-10.765625-9.488281-16.925781-23.136719-16.925781-37.484375v-59.96875h4.300781c16.40625 0 29.707031-13.300781 29.707031-29.707031 0-16.410157-13.300781-29.710938-29.707031-29.710938h-22.664062c16.40625 0 29.707031 13.300781 29.707031 29.710938 0 16.40625-13.300781 29.707031-29.707031 29.707031h-4.300782v59.96875c0 14.347656 6.160156 27.996094 16.925782 37.484375 31.675781 27.914063 97.03125 88.710937 100.347656 117.917969 4.835937 42.613281-57.964844 138.785156-100.855469 138.785156h22.664063c42.890624 0 105.691406-96.171875 100.855468-138.785156zm0 0" fill="#bdcdd6"/><path d="m321.53125 368.886719c-.222656-1.035157-3.386719-13.0625-33.71875-45.542969-2.832031-3.03125-5.726562-6.058594-8.65625-9.0625 1.304688 9.527344.988281 19.257812-5.125 26.257812-7.21875 8.277344-19.632812 9.179688-30.597656 8.578126-36.796875-2.019532-72.757813-11.527344-108.574219-20.207032-23.355469-5.660156-56.636719-14.628906-71.074219-.121094-27.003906 27.136719-28.5 39.121094-28.710937 40.097657-.578125 5.578125 1.761719 18.417969 10.265625 36.492187 8.066406 17.144532 19.734375 34.859375 32.007812 48.605469 17.226563 19.289063 28.769532 23.515625 31.765625 23.515625h138.378907c2.996093 0 14.542968-4.226562 31.769531-23.515625 12.273437-13.746094 23.9375-31.464844 32.007812-48.605469 8.5-18.074218 10.839844-30.914062 10.261719-36.492187zm0 0" fill="#7f56af"/><path d="m321.53125 368.886719c-.222656-1.035157-3.386719-13.0625-33.71875-45.542969-2.832031-3.03125-5.726562-6.058594-8.65625-9.0625 1.1875 8.679688 1.03125 17.519531-3.621094 24.320312 17.765625 21.105469 19.945313 29.429688 20.132813 30.285157.574219 5.578125-1.761719 18.417969-10.265625 36.492187-8.066406 17.144532-19.734375 34.859375-32.007813 48.605469-17.226562 19.289063-28.773437 23.515625-31.769531 23.515625h25.867188c2.996093 0 14.542968-4.226562 31.765624-23.515625 12.273438-13.746094 23.941407-31.464844 32.007813-48.605469 8.503906-18.074218 10.84375-30.914062 10.265625-36.492187zm0 0" fill="#5e4487"/><g fill="#9e71d3"><path d="m243.433594 349.117188c10.96875.601562 23.378906-.304688 30.601562-8.578126 6.109375-7 6.425782-16.726562 5.121094-26.257812-7.980469-7.980469-38.539062-37.328125-126.714844 18.914062 30.015625 7.300782 60.210938 14.230469 90.992188 15.921876zm0 0"/><path d="m123.304688 374.832031c0 7.273438-5.894532 13.167969-13.167969 13.167969-7.273438 0-13.167969-5.894531-13.167969-13.167969 0-7.269531 5.894531-13.167969 13.167969-13.167969 7.273437 0 13.167969 5.898438 13.167969 13.167969zm0 0"/><path d="m199.039062 433.867188c0 8.699218-7.050781 15.75-15.75 15.75-8.699218 0-15.75-7.050782-15.75-15.75 0-8.699219 7.050782-15.75 15.75-15.75 8.699219 0 15.75 7.050781 15.75 15.75zm0 0"/></g><path d="m355.800781 364.867188c-3.347656-29.453126-57.773437-82.980469-102.839843-122.699219-9.144532-8.054688-14.386719-19.664063-14.386719-31.855469v-52.605469c19.023437-1.628906 34.007812-17.632812 34.007812-37.070312 0-20.519531-16.6875-37.210938-37.207031-37.210938h-9.648438l13.964844-58.445312c1.449219-6.070313.0625-12.367188-3.804687-17.265625-3.867188-4.902344-9.664063-7.714844-15.910157-7.714844h-83.347656c-6.242187 0-12.042968 2.8125-15.910156 7.710938-3.867188 4.902343-5.253906 11.195312-3.804688 17.269531l13.96875 58.445312h-9.652343c-20.515625 0-37.207031 16.691407-37.207031 37.207031 0 19.4375 14.984374 35.445313 34.007812 37.074219v52.605469c0 12.1875-5.242188 23.800781-14.386719 31.855469-3.242187 2.863281-6.492187 5.761719-9.65625 8.613281-3.078125 2.773438-3.320312 7.515625-.546875 10.59375 2.773438 3.074219 7.515625 3.316406 10.59375.546875 3.121094-2.816406 6.328125-5.675781 9.53125-8.5 12.371094-10.902344 19.464844-26.613281 19.464844-43.109375v-59.96875c0-4.144531-3.355469-7.5-7.5-7.5h-4.300781c-12.246094 0-22.207031-9.964844-22.207031-22.210938 0-12.246093 9.960937-22.207031 22.207031-22.207031h114.144531c12.246094 0 22.207031 9.960938 22.207031 22.207031 0 12.246094-9.960937 22.210938-22.207031 22.210938h-57.070312c-4.144532 0-7.5 3.355469-7.5 7.5 0 4.140625 3.355468 7.5 7.5 7.5h45.269531v52.46875c0 16.496094 7.097656 32.207031 19.46875 43.109375 59.144531 52.125 95.726562 94.417969 97.851562 113.136719 2.648438 23.324218-18.476562 68.367187-47.089843 100.414062-17.039063 19.082032-33.917969 30.027344-46.3125 30.027344h-138.378907c-12.390625 0-29.269531-10.945312-46.3125-30.027344-28.609375-32.042968-49.734375-77.089844-47.089843-100.414062.988281-8.699219 10.941406-31.234375 66.496093-84.382813 2.992188-2.863281 3.101563-7.613281.234375-10.605469-2.863281-2.992187-7.609375-3.101562-10.605468-.234374-18.894532 18.078124-34.304688 34.355468-45.792969 48.378906-15.707031 19.179687-23.964844 33.945312-25.234375 45.152344-3.480469 30.652343 23.097656 81.066406 50.804687 112.097656 25.859375 28.957031 45.542969 35.035156 57.5 35.035156h138.378907c11.960937 0 31.644531-6.078125 57.503906-35.035156 27.703125-31.03125 54.28125-81.445313 50.804687-112.097656zm-209.496093-281.441407-14.796876-61.933593c-.519531-2.160157.394532-3.738282.984376-4.488282.59375-.746094 1.914062-2.003906 4.136718-2.003906h83.347656c2.222657 0 3.546876 1.257812 4.136719 2.003906.589844.75 1.503907 2.328125.988281 4.488282l-14.796874 61.933593zm0 0"/><path d="m308.074219 412.164062c3.75 1.761719 8.214843.152344 9.980469-3.59375 7.761718-16.5 11.851562-31.625 10.9375-40.457031-.027344-.277343-.074219-.554687-.132813-.828125-.734375-3.359375-5.464844-16.828125-35.566406-49.0625-2.753907-2.949218-5.679688-6.015625-8.707031-9.113281-.042969-.046875-.085938-.089844-.128907-.132813-4.183593-4.183593-15.292969-15.292968-38.089843-16.804687-25.574219-1.699219-57.601563 9.398437-95.246094 32.984375-32.03125-7.816406-73.46875-20.933594-92.652344-1.65625-24.09375 24.210938-29.597656 37.851562-30.742188 43.882812-.050781.238282-.085937.484376-.113281.730469-.914062 8.832031 3.175781 23.957031 10.941407 40.457031 8.359374 17.773438 20.460937 36.144532 33.195312 50.40625 22.117188 24.769532 35.003906 26.023438 37.363281 26.023438h138.378907c2.359374 0 15.25-1.253906 37.363281-26.019531 6.007812-6.730469 11.84375-14.3125 17.347656-22.539063 2.300781-3.441406 1.375-8.101562-2.066406-10.402344-3.441407-2.304687-8.101563-1.378906-10.402344 2.0625-5.117187 7.648438-10.523437 14.675782-16.066406 20.886719-14.050781 15.734375-23.882813 20.503907-26.441407 21.011719h-137.84375c-2.558593-.507812-12.390624-5.273438-26.441406-21.011719-11.8125-13.226562-23.042968-30.289062-30.8125-46.804687-8.175781-17.371094-9.859375-28.472656-9.617187-32.230469.425781-1.882813 3.761719-12.929687 26.589843-35.871094 19.230469-19.324219 92.132813 16.601563 167.597657 22.105469 23.066406 1.78125 44.023437-.957031 49.496093-23.539062 22.652344 24.851562 27.183594 35.488281 27.917969 37.570312.148438 4-1.644531 14.988281-9.632812 31.964844-1.761719 3.75-.15625 8.214844 3.59375 9.980468zm-36.046875-94.296874c2.378906 21.921874-10.421875 25.019531-32.234375 23.507812-22.695313-1.59375-45.429688-6.0625-67.796875-11.230469 56.34375-32.011719 85.304687-25.320312 100.03125-12.277343zm0 0"/><path d="m159.972656 19.875c-4.144531 0-7.5 3.355469-7.5 7.5v4c0 4.144531 3.355469 7.5 7.5 7.5 4.140625 0 7.5-3.355469 7.5-7.5v-4c0-4.144531-3.359375-7.5-7.5-7.5zm0 0"/><path d="m196.636719 31.578125c-4.144531 0-7.5 3.355469-7.5 7.5v4c0 4.144531 3.355469 7.5 7.5 7.5s7.5-3.355469 7.5-7.5v-4c0-4.140625-3.355469-7.5-7.5-7.5zm0 0"/><path d="m182.972656 60.5c-4.144531 0-7.5 3.355469-7.5 7.5v4c0 4.144531 3.355469 7.5 7.5 7.5 4.140625 0 7.5-3.355469 7.5-7.5v-4c0-4.144531-3.359375-7.5-7.5-7.5zm0 0"/><path d="m110.136719 369.164062c4.144531 0 7.5-3.355468 7.5-7.5 0-4.140624-3.355469-7.5-7.5-7.5-11.394531 0-20.664063 9.273438-20.664063 20.667969 0 11.398438 9.269532 20.667969 20.664063 20.667969s20.667969-9.269531 20.667969-20.667969c0-4.140625-3.359376-7.5-7.5-7.5-4.144532 0-7.5 3.359375-7.5 7.5 0 3.125-2.542969 5.667969-5.667969 5.667969s-5.664063-2.542969-5.664063-5.667969 2.539063-5.667969 5.664063-5.667969zm0 0"/><path d="m183.289062 442.117188c-4.550781 0-8.25-3.699219-8.25-8.25 0-4.140626-3.359374-7.5-7.5-7.5-4.144531 0-7.5 3.359374-7.5 7.5 0 12.820312 10.429688 23.25 23.25 23.25 12.820313 0 23.25-10.429688 23.25-23.25 0-12.820313-10.429687-23.25-23.25-23.25-4.144531 0-7.5 3.359374-7.5 7.5 0 4.144531 3.355469 7.5 7.5 7.5 4.546876 0 8.25 3.703124 8.25 8.25 0 4.550781-3.703124 8.25-8.25 8.25zm0 0"/></svg>