<svg height="511pt" viewBox="0 1 511.99762 511" width="511pt" xmlns="http://www.w3.org/2000/svg"><g fill="#ff9801"><path d="m267 37.101562-19.539062 19.628907-36.609376 36.605469c-3.351562 3.328124-8.761718 3.328124-12.117187 0l-13.484375-13.566407c-3.304688-3.328125-3.304688-8.703125 0-12.03125l36.609375-36.609375 19.542969-19.625c3.351562-3.328125 8.761718-3.328125 12.117187 0l13.480469 13.566406c3.308594 3.328126 3.308594 8.703126 0 12.03125zm0 0"/><path d="m258.46875 382.019531-13.484375 13.484375c-3.351563 3.328125-8.761719 3.328125-12.117187 0l-19.539063-19.542968-36.609375-36.605469c-3.328125-3.355469-3.328125-8.765625 0-12.117188l13.484375-13.484375c3.351563-3.328125 8.761719-3.328125 12.117187 0l36.605469 36.609375 19.542969 19.539063c3.328125 3.355468 3.328125 8.765625 0 12.117187zm0 0"/><path d="m145.058594 469.828125h85.335937c4.710938 0 8.53125 3.820313 8.53125 8.535156v17.066407c0 4.710937-3.820312 8.53125-8.53125 8.53125h-85.335937c-4.710938 0-8.53125-3.820313-8.53125-8.53125v-17.066407c0-4.714843 3.820312-8.535156 8.53125-8.535156zm0 0"/><path d="m307.191406 401.5625h17.070313c4.710937 0 8.53125 3.820312 8.53125 8.53125v85.335938c0 4.710937-3.820313 8.53125-8.53125 8.53125h-17.070313c-4.710937 0-8.53125-3.820313-8.53125-8.53125v-85.335938c0-4.710938 3.820313-8.53125 8.53125-8.53125zm0 0"/></g><path d="m443.726562 171.160156v17.066406c0 4.714844-3.820312 8.535157-8.535156 8.535157h-153.597656c-4.714844 0-8.535156 3.820312-8.535156 8.535156.019531 2.914063-.5 5.804687-1.535156 8.53125-3.539063 10.257813-13.214844 17.121094-24.0625 17.066406h-85.335938l-25.597656 42.667969-87.210938 14.507812c-8.628906 1.449219-16.957031-3.855468-19.285156-12.289062l-.683594-2.644531-14.933594-54.785157c-1.410156-5.136718-.34375-10.640624 2.886719-14.875 3.230469-4.234374 8.253907-6.71875 13.582031-6.714843h89.089844c5.078125.027343 9.902344-2.230469 13.140625-6.144531l37.546875-45.054688 51.199219 17.066406h213.332031c4.714844 0 8.535156 3.820313 8.535156 8.53125zm0 0" fill="#4e342e"/><path d="m429.902344 162.628906v10.835938c0 4.714844-3.820313 8.535156-8.53125 8.535156h-153.601563c-4.714843 0-8.535156 3.820312-8.535156 8.53125.019531 2.917969-.5 5.808594-1.535156 8.535156-3.539063 10.253906-13.214844 17.117188-24.0625 17.066406h-85.335938l-25.597656 42.667969-87.125 14.503907c-2.066406.371093-4.1875.3125-6.230469-.167969l-14.933594-54.785157c-1.410156-5.136718-.34375-10.640624 2.886719-14.875 3.230469-4.234374 8.253907-6.71875 13.582031-6.714843h89.089844c5.078125.027343 9.902344-2.230469 13.140625-6.144531l37.546875-45.054688 51.199219 17.066406zm0 0" fill="#795548"/><path d="m170.660156 503.960938h-25.601562c-4.710938 0-8.53125-3.820313-8.53125-8.53125v-17.066407c0-4.714843 3.820312-8.535156 8.53125-8.535156h25.601562zm0 0" fill="#fec108"/><path d="m298.660156 435.695312v-25.601562c0-4.710938 3.820313-8.53125 8.53125-8.53125h17.070313c4.710937 0 8.53125 3.820312 8.53125 8.53125v25.601562zm0 0" fill="#fec108"/><path d="m267.027344 37.128906-19.566406 19.566406-25.601563-25.601562 19.566406-19.566406c3.332031-3.328125 8.734375-3.328125 12.066407 0l13.535156 13.535156c3.332031 3.332031 3.332031 8.734375 0 12.066406zm0 0" fill="#fec108"/><path d="m232.894531 395.527344-19.566406-19.566406 25.597656-25.597657 19.566407 19.566407c3.332031 3.332031 3.332031 8.734374 0 12.066406l-13.53125 13.53125c-3.332032 3.332031-8.734376 3.332031-12.066407 0zm0 0" fill="#fec108"/><path d="m503.460938 179.695312s-17.066407 25.601563-34.132813 25.601563c-7.050781 1.003906-14.164063-1.367187-19.199219-6.402344-5.035156-5.035156-7.410156-12.148437-6.402344-19.199219-1.007812-7.050781 1.367188-14.164062 6.402344-19.199218s12.148438-7.40625 19.199219-6.402344c17.066406 0 34.132813 25.601562 34.132813 25.601562zm0 0" fill="#fdd834"/><path d="m34.125 299.160156c-3.84375 0-7.214844-2.578125-8.222656-6.289062l-25.601563-93.863282c-.699219-2.566406-.164062-5.308593 1.449219-7.421874 1.613281-2.113282 4.117188-3.355469 6.777344-3.359376h115.472656l40.105469-48.125c2.246093-2.699218 5.917969-3.746093 9.25-2.636718l49.886719 16.628906h211.949218c9.425782 0 17.070313 7.640625 17.070313 17.066406v17.066406c0 9.425782-7.644531 17.070313-17.070313 17.070313h-153.597656c0 18.851563-15.28125 34.132813-34.132812 34.132813h-80.503907l-23.117187 38.527343c-1.285156 2.136719-3.445313 3.605469-5.90625 4.019531l-102.398438 17.066407c-.464844.082031-.9375.121093-1.410156.117187zm-14.429688-93.863281 20.636719 75.644531 90.902344-15.152344 23.578125-39.253906c1.535156-2.582031 4.3125-4.164062 7.3125-4.171875h85.335938c9.425781 0 17.066406-7.640625 17.066406-17.066406s7.640625-17.070313 17.066406-17.070313h153.597656v-17.066406h-213.332031c-.914063.003906-1.828125-.144531-2.695313-.433594l-45.679687-15.222656-38.9375 46.71875c-1.621094 1.945313-4.019531 3.070313-6.554687 3.074219zm0 0"/><path d="m179.191406 273.5625h-34.132812c-4.710938 0-8.53125-3.820312-8.53125-8.535156 0-4.710938 3.820312-8.53125 8.53125-8.53125h34.132812c4.714844 0 8.535156-3.820313 8.535156-8.535156v-17.066407c0-4.710937 3.820313-8.53125 8.535157-8.53125 4.710937 0 8.53125 3.820313 8.53125 8.53125v17.066407c0 14.140624-11.460938 25.601562-25.601563 25.601562zm0 0"/><path d="m170.660156 154.09375c-6.847656.203125-13.476562-2.429688-18.324218-7.277344-4.84375-4.84375-7.476563-11.472656-7.277344-18.320312 0-4.714844 3.820312-8.535156 8.535156-8.535156 4.710938 0 8.53125 3.820312 8.53125 8.535156-.226562 2.324218.597656 4.628906 2.25 6.28125s3.960938 2.480468 6.285156 2.25c4.710938 0 8.53125 3.820312 8.53125 8.535156 0 4.710938-3.820312 8.53125-8.53125 8.53125zm0 0"/><path d="m418.125 171.160156c-4.710938 0-8.53125-3.820312-8.53125-8.53125v-17.066406c0-4.714844 3.820312-8.535156 8.53125-8.535156 4.714844 0 8.535156 3.820312 8.535156 8.535156v17.066406c0 4.710938-3.820312 8.53125-8.535156 8.53125zm0 0"/><path d="m290.125 205.296875h-59.730469c-4.714843 0-8.535156-3.820313-8.535156-8.535156 0-4.710938 3.820313-8.535157 8.535156-8.535157h59.730469c4.714844 0 8.535156 3.824219 8.535156 8.535157 0 4.714843-3.820312 8.535156-8.535156 8.535156zm0 0"/><path d="m230.394531 512.496094h-59.734375c-4.714844 0-8.535156-3.820313-8.535156-8.535156v-34.132813c0-4.710937 3.820312-8.53125 8.535156-8.53125h59.734375c9.425781 0 17.066407 7.640625 17.066407 17.066406v17.066407c0 9.425781-7.640626 17.066406-17.066407 17.066406zm-51.203125-17.066406h51.203125v-17.066407h-51.203125zm0 0"/><path d="m170.660156 512.496094h-25.601562c-9.425782 0-17.066406-7.640625-17.066406-17.066406v-17.066407c0-9.425781 7.640624-17.066406 17.066406-17.066406h25.601562c4.710938 0 8.53125 3.820313 8.53125 8.53125v34.132813c0 4.714843-3.820312 8.535156-8.53125 8.535156zm-25.601562-34.132813v17.066407h17.066406v-17.066407zm0 0"/><path d="m324.261719 512.496094h-17.070313c-9.421875 0-17.066406-7.640625-17.066406-17.066406v-59.734376c0-4.714843 3.820312-8.535156 8.535156-8.535156h34.132813c4.714843 0 8.535156 3.820313 8.535156 8.535156v59.734376c0 9.425781-7.640625 17.066406-17.066406 17.066406zm-17.070313-68.269532v51.203126h17.070313v-51.203126zm0 0"/><path d="m332.792969 444.226562h-34.132813c-4.714844 0-8.535156-3.820312-8.535156-8.53125v-25.601562c0-9.425781 7.644531-17.066406 17.066406-17.066406h17.070313c9.425781 0 17.066406 7.640625 17.066406 17.066406v25.601562c0 4.710938-3.820313 8.53125-8.535156 8.53125zm-25.601563-17.066406h17.070313v-17.066406h-17.070313zm0 0"/><path d="m204.792969 104.347656c-4.523438.007813-8.867188-1.785156-12.066407-4.984375l-13.535156-13.535156c-3.199218-3.199219-5-7.542969-5-12.070313 0-4.527343 1.800782-8.871093 5-12.070312l36.636719-36.625c3.332031-3.332031 8.734375-3.332031 12.066406 0l25.597657 25.601562c3.332031 3.332032 3.332031 8.734376 0 12.066407l-36.632813 36.632812c-3.199219 3.199219-7.542969 4.992188-12.066406 4.984375zm17.066406-61.1875-30.601563 30.601563 13.535157 13.535156 30.601562-30.601563zm0 0"/><path d="m247.460938 65.230469c-2.265626 0-4.433594-.902344-6.035157-2.5l-25.597656-25.601563c-3.332031-3.332031-3.332031-8.734375 0-12.066406l19.566406-19.566406c6.664063-6.664063 17.46875-6.664063 24.132813 0l13.53125 13.535156c6.664062 6.664062 6.664062 17.464844 0 24.128906l-19.566406 19.570313c-1.597657 1.597656-3.769532 2.5-6.03125 2.5zm-13.535157-34.136719 13.535157 13.535156 13.542968-13.542968-13.542968-13.523438zm0 0"/><path d="m213.328125 384.496094c-2.265625 0-4.433594-.902344-6.035156-2.5l-36.632813-36.636719c-6.664062-6.664063-6.664062-17.464844 0-24.128906l13.535156-13.535157c6.664063-6.664062 17.464844-6.664062 24.128907 0l36.636719 36.632813c3.328124 3.332031 3.328124 8.734375 0 12.066406l-25.601563 25.601563c-1.601563 1.597656-3.769531 2.5-6.03125 2.5zm-30.601563-51.199219 30.601563 30.597656 13.53125-13.53125-30.597656-30.601562zm0 0"/><path d="m238.925781 406.554688c-4.523437.007812-8.867187-1.789063-12.066406-4.992188l-19.566406-19.566406c-3.332031-3.332032-3.332031-8.734375 0-12.066406l25.601562-25.601563c3.332031-3.332031 8.734375-3.332031 12.066407 0l19.566406 19.566406c6.660156 6.664063 6.660156 17.46875 0 24.132813l-13.535156 13.535156c-3.195313 3.203125-7.539063 5-12.066407 4.992188zm-13.53125-30.59375 13.53125 13.542968 13.535157-13.542968-13.535157-13.53125zm0 0"/><path d="m443.726562 188.226562c-4.710937 0-8.535156-3.820312-8.535156-8.53125-.972656-9.316406 2.308594-18.578124 8.933594-25.203124s15.882812-9.90625 25.203125-8.929688c21.023437 0 39.25 26.394531 41.230469 29.398438 2.617187 3.917968 1.5625 9.21875-2.359375 11.839843-3.921875 2.617188-9.222657 1.558594-11.839844-2.359375-4.761719-7.117187-17.644531-21.8125-27.03125-21.8125-12.28125 0-17.066406 4.785156-17.066406 17.066406 0 4.710938-3.824219 8.53125-8.535157 8.53125zm0 0"/><path d="m469.328125 213.828125c-9.320313.976563-18.578125-2.308594-25.203125-8.929687-6.625-6.625-9.90625-15.886719-8.933594-25.203126 0-4.714843 3.824219-8.535156 8.535156-8.535156 4.710938 0 8.535157 3.820313 8.535157 8.535156 0 12.28125 4.785156 17.066407 17.066406 17.066407 9.445313 0 22.289063-14.6875 27.03125-21.800781 1.691406-2.539063 4.609375-3.980469 7.652344-3.78125 3.042969.195312 5.75 2 7.097656 4.734374 1.351563 2.734376 1.140625 5.980469-.550781 8.515626-1.980469 3.003906-20.207032 29.398437-41.230469 29.398437zm0 0"/><path d="m273.058594 341.828125c-4.710938 0-8.53125-3.820313-8.53125-8.53125v-34.136719c0-4.710937 3.820312-8.53125 8.53125-8.53125 4.714844 0 8.535156 3.820313 8.535156 8.53125v34.136719c0 4.710937-3.820312 8.53125-8.535156 8.53125zm0 0"/><path d="m238.925781 316.226562c-4.710937 0-8.53125-3.820312-8.53125-8.53125v-17.066406c0-4.714844 3.820313-8.535156 8.53125-8.535156 4.714844 0 8.535157 3.820312 8.535157 8.535156v17.066406c0 4.710938-3.820313 8.53125-8.535157 8.53125zm0 0"/><path d="m273.058594 137.027344c-4.710938 0-8.53125-3.820313-8.53125-8.53125-.054688-10.570313-2.664063-20.96875-7.605469-30.3125-1.390625-2.714844-1.222656-5.96875.4375-8.53125 1.660156-2.558594 4.5625-4.039063 7.613281-3.875 3.046875.160156 5.777344 1.9375 7.15625 4.660156 6.179688 11.734375 9.425782 24.792969 9.464844 38.058594 0 2.261718-.898438 4.433594-2.5 6.03125-1.601562 1.601562-3.769531 2.5-6.035156 2.5zm0 0"/><path d="m307.191406 137.027344c-4.710937 0-8.53125-3.820313-8.53125-8.53125.027344-19.539063-5.558594-38.675782-16.09375-55.136719-2.539062-3.972656-1.378906-9.25 2.59375-11.792969 3.972656-2.539062 9.253906-1.378906 11.792969 2.597656 12.289063 19.203126 18.804687 41.53125 18.773437 64.332032 0 4.710937-3.820312 8.53125-8.535156 8.53125zm0 0"/></svg>