<?xml version="1.0" encoding="iso-8859-1"?>
<!-- Generator: Adobe Illustrator 19.0.0, SVG Export Plug-In . SVG Version: 6.00 Build 0)  -->
<svg version="1.1" id="Layer_1" xmlns="http://www.w3.org/2000/svg" xmlns:xlink="http://www.w3.org/1999/xlink" x="0px" y="0px"
	 viewBox="0 0 512 512" style="enable-background:new 0 0 512 512;" xml:space="preserve">
<path style="fill:#464655;" d="M260.423,79.067H189.65c-4.886,0-8.847,3.961-8.847,8.847v39.81h88.467v-39.81
	C269.27,83.028,265.309,79.067,260.423,79.067z"/>
<circle style="fill:#5B5D6E;" cx="225.037" cy="309.08" r="194.626"/>
<path style="fill:#464655;" d="M290.649,438.094c-107.489,0-194.626-87.137-194.626-194.626c0-36.928,10.285-71.452,28.146-100.867
	C67.962,176.727,30.41,238.518,30.41,309.08c0,107.489,87.137,194.626,194.626,194.626c70.562,0,132.353-37.552,166.481-93.759
	C362.101,427.809,327.577,438.094,290.649,438.094z"/>
<circle style="fill:#FFF082;" cx="428.51" cy="96.76" r="44.233"/>
<path d="M428.51,88.467h-70.773c-19.816,0-35.94-16.122-35.94-35.94C321.797,23.564,298.233,0,269.27,0
	c-28.963,0-52.527,23.564-52.527,52.527v18.246H189.65c-9.452,0-17.14,7.689-17.14,17.14v25.154
	C86.001,136.272,22.117,215.35,22.117,309.08c0,111.89,91.03,202.92,202.92,202.92s202.92-91.03,202.92-202.92
	c0-93.73-63.884-172.808-150.393-196.012V87.914c0-9.452-7.689-17.14-17.14-17.14H233.33V52.527c0-19.818,16.123-35.94,35.94-35.94
	s35.94,16.122,35.94,35.94c0,28.963,23.564,52.527,52.527,52.527h70.773c4.58,0,8.294-3.713,8.294-8.294
	S433.09,88.467,428.51,88.467z M411.369,309.08c0,102.744-83.589,186.333-186.333,186.333S38.704,411.824,38.704,309.08
	s83.589-186.333,186.333-186.333S411.369,206.336,411.369,309.08z M260.976,87.914v21.434c-11.668-2.094-23.678-3.188-35.94-3.188
	s-24.272,1.094-35.94,3.188V87.914c0-0.304,0.248-0.553,0.553-0.553h70.773C260.729,87.361,260.976,87.609,260.976,87.914z"/>
<path d="M481.59,88.467h-17.693c-4.58,0-8.294,3.713-8.294,8.294s3.713,8.294,8.294,8.294h17.693c4.58,0,8.294-3.713,8.294-8.294
	S486.17,88.467,481.59,88.467z"/>
<path d="M428.51,35.387c-4.58,0-8.294,3.713-8.294,8.294v17.693c0,4.58,3.713,8.294,8.294,8.294s8.294-3.713,8.294-8.294V43.68
	C436.803,39.1,433.09,35.387,428.51,35.387z"/>
<path d="M428.51,123.853c-4.58,0-8.294,3.713-8.294,8.294v17.693c0,4.58,3.713,8.294,8.294,8.294s8.294-3.713,8.294-8.294v-17.693
	C436.803,127.567,433.09,123.853,428.51,123.853z"/>
<path d="M459.397,115.918c-3.239-3.239-8.491-3.239-11.728,0c-3.239,3.239-3.239,8.491,0,11.728l12.51,12.51
	c1.619,1.62,3.742,2.43,5.864,2.43s4.245-0.809,5.864-2.43c3.239-3.239,3.239-8.491,0-11.73L459.397,115.918z"/>
<path d="M397.623,77.603c1.619,1.62,3.742,2.43,5.864,2.43s4.245-0.809,5.864-2.43c3.239-3.239,3.239-8.491,0-11.728l-12.51-12.51
	c-3.239-3.24-8.491-3.239-11.728,0c-3.239,3.239-3.239,8.491,0,11.73L397.623,77.603z"/>
<path d="M397.623,115.918l-12.51,12.51c-3.239,3.239-3.239,8.491,0,11.73c1.619,1.619,3.742,2.43,5.864,2.43s4.245-0.809,5.864-2.43
	l12.51-12.51c3.239-3.239,3.239-8.491,0-11.728C406.113,112.68,400.862,112.679,397.623,115.918z"/>
<path d="M453.531,80.032c2.122,0,4.245-0.809,5.864-2.43l12.51-12.51c3.239-3.239,3.239-8.491,0-11.73
	c-3.239-3.239-8.491-3.239-11.728,0l-12.51,12.51c-3.239,3.239-3.239,8.491,0,11.728C449.287,79.223,451.409,80.032,453.531,80.032z
	"/>
<path d="M283.78,169.988c5.717,2.418,11.347,5.224,16.731,8.339c1.308,0.756,2.736,1.116,4.146,1.116
	c2.863,0,5.65-1.485,7.187-4.142c2.293-3.964,0.94-9.038-3.026-11.333c-5.978-3.458-12.228-6.573-18.578-9.258
	c-4.218-1.784-9.084,0.19-10.869,4.408C277.587,163.338,279.56,168.204,283.78,169.988z"/>
<path d="M191.486,456.286c-33.973-7.71-64.492-27.226-85.934-54.955c-2.802-3.623-8.01-4.29-11.634-1.487
	c-3.624,2.802-4.29,8.011-1.487,11.634c23.792,30.768,57.667,52.425,95.386,60.984c0.618,0.14,1.235,0.208,1.843,0.208
	c3.787,0,7.208-2.611,8.08-6.46C198.752,461.742,195.953,457.299,191.486,456.286z"/>
<path d="M325.653,196.556c21.228,18.996,36.594,43.414,44.438,70.615c1.048,3.634,4.364,5.998,7.965,5.998
	c0.761,0,1.534-0.105,2.302-0.326c4.401-1.27,6.94-5.866,5.671-10.268c-8.708-30.2-25.761-57.303-49.315-78.379
	c-3.414-3.054-8.658-2.765-11.711,0.65C321.948,188.259,322.239,193.502,325.653,196.556z"/>
<g>
</g>
<g>
</g>
<g>
</g>
<g>
</g>
<g>
</g>
<g>
</g>
<g>
</g>
<g>
</g>
<g>
</g>
<g>
</g>
<g>
</g>
<g>
</g>
<g>
</g>
<g>
</g>
<g>
</g>
</svg>
