<svg height="512" viewBox="0 0 60 60" width="512" xmlns="http://www.w3.org/2000/svg"><g id="Page-1" fill="none" fill-rule="evenodd"><g id="059---Holding-Hands" fill-rule="nonzero" transform="translate(0 -1)"><path id="Shape" d="m33.5 59.06c-1.2135862 1.2090713-3.1764138 1.2090713-4.39 0l-4.51-4.43c-1.2079198-1.2101592-1.2079198-3.1698408 0-4.38 1.2135862-1.2090713 3.1764138-1.2090713 4.39 0l4.47 4.48c1.1862169 1.1933018 1.2039692 3.1149875.04 4.33z" fill="#ffe0b2"/><path id="Shape" d="m33.5 54.68-4.5-4.48c-.9825756-.9741174-2.4905312-1.1819707-3.7-.51.2557707.1368501.4913443.3084823.7.51l4.47 4.48c1.2079198 1.2101592 1.2079198 3.1698408 0 4.38-.2069719.1991301-.4389083.3705614-.69.51 1.2063932.6703532 2.7106604.4624463 3.69-.51 1.2162485-1.201869 1.2296712-3.1615837.03-4.38z" fill="#dfc49c"/><path id="Shape" d="m37.93 54.63c-1.2135862 1.2090713-3.1764138 1.2090713-4.39 0l-4.54-4.43c-1.2090713-1.2135862-1.2090713-3.1764138 0-4.39 1.2135862-1.2090713 3.1764138-1.2090713 4.39 0l4.47 4.48c1.2011989 1.1862664 1.2323174 3.1156124.07 4.34z" fill="#ffe0b2"/><path id="Shape" d="m37.93 50.25-4.47-4.48c-.9793396-.9724463-2.4836068-1.1803532-3.69-.51.2510917.1394386.4830281.3108699.69.51l4.47 4.48c1.2079198 1.2101592 1.2079198 3.1698408 0 4.38-.2069719.1991301-.4389083.3705614-.69.51 1.2063932.6703532 2.7106604.4624463 3.69-.51 1.2079198-1.2101592 1.2079198-3.1698408 0-4.38z" fill="#dfc49c"/><path id="Shape" d="m42.36 50.2c-1.2135862 1.2090713-3.1764138 1.2090713-4.39 0l-4.47-4.48c-1.2090713-1.2135862-1.2090713-3.1764138 0-4.39 1.2135862-1.2090713 3.1764138-1.2090713 4.39 0l4.47 4.47c.5837876.583311.9117962 1.3747366.9117962 2.2s-.3280086 1.616689-.9117962 2.2z" fill="#ffe0b2"/><path id="Shape" d="m42.36 45.81-4.47-4.47c-.9793396-.9724463-2.4836068-1.1803532-3.69-.51.2510917.1394386.4830281.3108699.69.51l4.47 4.47c1.2090713 1.2135862 1.2090713 3.1764138 0 4.39-.2069719.1991301-.4389083.3705614-.69.51 1.2063932.6703532 2.7106604.4624463 3.69-.51 1.2090713-1.2135862 1.2090713-3.1764138 0-4.39z" fill="#dfc49c"/><path id="Shape" d="m46.79 45.77c-.5802842.5856542-1.3705484.9151264-2.195.9151264s-1.6147158-.3294722-2.195-.9151264l-4.47-4.47c-1.2090713-1.2135862-1.2090713-3.1764138 0-4.39 1.2135862-1.2090713 3.1764138-1.2090713 4.39 0l4.13 4.14.33.33c.586978.578949.9182518 1.3684631.9201298 2.1929154s-.3257955 1.6154674-.9101298 2.1970846z" fill="#ffe0b2"/><path id="Shape" d="m46.79 41.38-.33-.33-4.13-4.14c-.9793396-.9724463-2.4836068-1.1803532-3.69-.51.2510917.1394386.4830281.3108699.69.51l4.13 4.14.33.33c.5856542.5802842.9151264 1.3705484.9151264 2.195s-.3294722 1.6147158-.9151264 2.195c-.2069719.1991301-.4389083.3705614-.69.51 1.2043996.6809028 2.7154407.4720597 3.69-.51.5856542-.5802842.9151264-1.3705484.9151264-2.195s-.3294722-1.6147158-.9151264-2.195z" fill="#dfc49c"/><path id="Shape" d="m38 26.49c-.0131392 1.4390702-.8867178 2.7303802-2.2175854 3.2779995-1.3308677.5476193-2.8602763.2450795-3.8824146-.7679995l-6.33-6.33-13 13-2.21 2.22-2.51-2.54c-1.34405504-1.3429321-2.09923178-3.165013-2.09923178-5.065s.75517674-3.7220679 2.09923178-5.065l10.15-10.12c1.341224-1.343448 3.1616495-2.0983765 5.06-2.0983765s3.718776.7549285 5.06 2.0983765l1.88 1.9 7 7c.6471739.6666132 1.0063382 1.5609322 1 2.49z" fill="#ffe0b2"/><path id="Shape" d="m52.15 35.35-5.69 5.7-4.13-4.14c-1.2135862-1.2090713-3.1764138-1.2090713-4.39 0-1.2090713 1.2135862-1.2090713 3.1764138 0 4.39-1.2135862-1.2090713-3.1764138-1.2090713-4.39 0-1.2090713 1.2135862-1.2090713 3.1764138 0 4.39-1.2135862-1.2090713-3.1764138-1.2090713-4.39 0-1.2090713 1.2135862-1.2090713 3.1764138 0 4.39-1.2135862-1.2090713-3.1764138-1.2090713-4.39 0l-.95 1-2.22 2.21c-.5837709.5901998-1.3798664.9216061-2.21.92-1.2378563.0114477-2.3669161-.7054576-2.8830686-1.8306269s-.3230583-2.4485905.4930686-3.3793731c-.5875079.5846267-1.381188.9150275-2.21.92-.8244753-.0117711-1.6125855-.3413444-2.2-.92-1.2203356-1.2284427-1.2203356-3.2115573 0-4.44-.5801506.5967498-1.3777264.9323812-2.21.93-1.26512239-.0098578-2.40159038-.7756668-2.88571207-1.9445372-.4841217-1.1688704-.22194708-2.5139679.66571207-3.4154628l2.22-2.21 2.21-2.22 13-13 6.31 6.3c.8678417 1.0202986 2.2326541 1.4707853 3.5373476 1.1675803 1.3046936-.3032049 2.3309857-1.3093737 2.6599642-2.607808s-.0943965-2.6718988-1.0973118-3.5597723l-7-7 1.9-1.9c2.7909136-2.7845063 7.3090864-2.7845063 10.1 0l10.15 10.12c1.344055 1.3429321 2.0992318 3.165013 2.0992318 5.065s-.7551768 3.7220679-2.0992318 5.065z" fill="#ffe0b2"/><path id="Shape" d="m52.15 25.22-10.15-10.12c-1.7153811-1.7186375-4.1857735-2.4492109-6.56-1.94 1.3510212.2841459 2.5888827.9587108 3.56 1.94l10.15 10.12c1.344055 1.3429321 2.0992318 3.165013 2.0992318 5.065s-.7551768 3.7220679-2.0992318 5.065l-4.15 4.2 1.49 1.5 5.69-5.7c1.3400857-1.3469084 2.0898716-3.1712274 2.0842448-5.0712169-.0056268-1.8999896-.766205-3.7198355-2.1142448-5.0587831z" fill="#dfc49c"/><path id="Shape" d="m9.62 16.7c-.14981777.1897235-.3782556.3004083-.62.3004083s-.47018223-.1106848-.62-.3004083l-6.5-8.09c-.75838848-.96212037-1.04804302-2.21240137-.79-3.41.31455158-1.56012427 1.52406416-2.78534481 3.08-3.12 1.19357983-.25341585 2.43755492.05182144 3.37827119.82893488.94071626.77711344 1.47528391 1.94110711 1.45172881 3.16106512-.01366923-2.05004521 1.5247969-3.77856092 3.5625988-4.00269337 2.037802-.22413245 3.9151757 1.12868406 4.3474012 3.13269337.258043 1.19759863-.0316115 2.44787963-.79 3.41z" fill="#e91e63"/><path id="Shape" d="m51.62 16.7c-.1498178.1897235-.3782556.3004083-.62.3004083s-.4701822-.1106848-.62-.3004083l-6.5-8.09c-.7583885-.96212037-1.048043-2.21240137-.79-3.41.4322255-2.00400931 2.3095992-3.35682582 4.3474012-3.13269337 2.0378019.22413245 3.576268 1.95264816 3.5625988 4.00269337-.0136692-2.05004521 1.5247969-3.77856092 3.5625988-4.00269337 2.037802-.22413245 3.9151757 1.12868406 4.3474012 3.13269337.258043 1.19759863-.0316115 2.44787963-.79 3.41z" fill="#e91e63"/><path id="Shape" d="m58.91 5.2c-.2402426-1.16045915-.9826844-2.15465369-2.027153-2.7145352-1.0444686-.5598815-2.2834314-.62780771-3.382847-.1854648 1.2371482.50364162 2.1412604 1.59157748 2.41 2.9.258043 1.19759863-.0316115 2.44787963-.79 3.41l-5.62 7 .88 1.09c.1498178.1897235.3782556.3004083.62.3004083s.4701822-.1106848.62-.3004083l6.5-8.09c.7583885-.96212037 1.048043-2.21240137.79-3.41z" fill="#ad1457"/><g fill="#000"><path id="Shape" d="m42.73 14.39c-1.5302976-1.5303021-3.6058292-2.3900173-5.77-2.3900173s-4.2397024.8597152-5.77 2.3900173l-1.19 1.19-1.19-1.19c-1.5302976-1.5303021-3.6058292-2.3900173-5.77-2.3900173s-4.2397024.8597152-5.77 2.3900173l-10.13 10.13c-3.15510319 3.1747122-3.15956755 8.2997959-.01 11.48l1.87 1.88-1.55 1.51c-1.18149342 1.2301228-1.48765396 3.0589395-.771219 4.6067928.71643495 1.5478533 2.30881918 2.497915 4.011219 2.3932072-.0830113 1.1991226.354199 2.375947 1.2 3.23.8552588.8494317 2.0382599 1.283929 3.24 1.19-.0921608 1.1469122.2994829 2.2801096 1.0801548 3.1253626.7806719.8452531 1.8792365 1.3255415 3.0298452 1.3246374 1.0978299.0027475 2.1504438-.4370432 2.92-1.22l.66-.66c.181094.7202423.5503664 1.3794107 1.07 1.91l4.48 4.47c.7512354.7880611 1.7912495 1.235845 2.88 1.24 1.1253337.0032019 2.2053344-.4431984 3-1.24.771612-.767367 1.2037829-1.8117799 1.2-2.9.0054043-.1065982.0054043-.2134018 0-.32h.3c1.1253337.0032019 2.2053344-.4431984 3-1.24.771612-.767367 1.2037829-1.8117799 1.2-2.9.0054043-.1065982.0054043-.2134018 0-.32h.3c1.1253337.0032019 2.2053344-.4431984 3-1.24.771612-.767367 1.2037829-1.8117799 1.2-2.9.0054043-.1065982.0054043-.2134018 0-.32h.3c1.1241095.0069646 2.2043183-.4359211 3-1.23 1.4635289-1.4558416 1.6053642-3.7767816.33-5.4l5-5c1.5303021-1.5302976 2.3900173-3.6058292 2.3900173-5.77s-.8597152-4.2397024-2.3900173-5.77zm-34.16 20.27c-1.15659883-1.1521466-1.80674487-2.7174674-1.80674487-4.35s.65014604-3.1978534 1.80674487-4.35l10.11-10.16c2.4077283-2.3990886 6.3022717-2.3990886 8.71 0l8.86 8.87c.4861209.4808679.7596667 1.1362256.7596667 1.82s-.2735458 1.3391321-.7596667 1.82c-.4821892.4836442-1.1370519.7554753-1.82.7554753s-1.3378108-.2718311-1.82-.7554753l-6.33-6.31c-.1877666-.1893127-.4433625-.2957983-.71-.2957983s-.5222334.1064856-.71.2957983l-13 13-1.5 1.5zm24.84 22.21c-.0031116.5784632-.2413665 1.1307815-.66 1.53-.3949868.4031317-.9356156.6303062-1.5.6303062s-1.1050132-.2271745-1.5-.6303062l-4.45-4.48c-.8004-.8165714-.8004-2.1234286 0-2.94.3936091-.4056796.9347531-.6346306 1.5-.6346306s1.1063909.228951 1.5.6346306l4.48 4.47c.3812756.3771441.6062522.8842344.63 1.42zm4.43-4.43c.0051136.5888793-.2338055 1.1535972-.66 1.56-.3949868.4031317-.9356156.6303062-1.5.6303062s-1.1050132-.2271745-1.5-.6303062l-4.48-4.48c-.3981486-.3976528-.6218678-.9372834-.6218678-1.5s.2237192-1.1023472.6218678-1.5c.3963344-.4006217.9364588-.6260526 1.5-.6260526s1.1036656.2254309 1.5.6260526l4.53 4.48c.3785633.3852917.5966072.9000181.61 1.44zm4.43-4.44c-.0031116.5784632-.2413665 1.1307815-.66 1.53-.3949868.4031317-.9356156.6303062-1.5.6303062s-1.1050132-.2271745-1.5-.6303062l-4.47-4.48c-.3982083-.3892567-.6218643-.9231453-.62-1.48-.0000447-.5594224.2231212-1.0957404.62-1.49.3936091-.4056796.9347531-.6346306 1.5-.6346306s1.1063909.228951 1.5.6346306l4.48 4.47c.3955932.381394.6284827.9009168.65 1.45zm3.73-2.89c-.3949868.4031317-.9356156.6303062-1.5.6303062s-1.1050132-.2271745-1.5-.6303062l-4.48-4.48c-.3981486-.3976528-.6218678-.9372834-.6218678-1.5s.2237192-1.1023472.6218678-1.5c.3963344-.4006217.9364588-.6260526 1.5-.6260526s1.1036656.2254309 1.5.6260526l4.48 4.47c.3940898.4029735.610569.9468706.6011762 1.5104363-.0093928.5635656-.2438766 1.0999466-.6511762 1.4895637zm5.4-10.47-5 5-3.4-3.44c-.7689691-.7694267-1.8121898-1.2017247-2.9-1.2017247s-2.1310309.432298-2.9 1.2017247c-.8681672.8520309-1.308562 2.0484369-1.2 3.26h-.31c-1.0880003-.002668-2.1320008.4293322-2.9 1.2-.7706678.7679992-1.202668 1.8119997-1.2 2.9v.31c-1.1900034-.10111-2.3641643.3268552-3.21 1.17h-.05c-.8431448.8458357-1.27111 2.0199966-1.17 3.21h-.31c-1.0880003-.002668-2.1320008.4293322-2.9 1.2h-.05l-3.13 3.12c-.5168339.6197566-1.3395261.8942194-2.1249414.7089132-.7854153-.1853061-1.3986657-.7985565-1.5839718-1.5839718-.1853062-.7854153.0891566-1.6081075.7089132-2.1249414l3.13-3.07c.1871865-.1887188.2915368-.444197.29-.71 0-.5522847-.4477153-1-1-1-.2837329.0032126-.5527424.1268116-.74.34l-3.13 3.12c-.8449466.7875364-2.1550534.7875364-3 0-.8129438-.8347806-.8129438-2.1652194 0-3l3.17-3.17c.3893607-.3921222.3871221-1.0256392-.005-1.415-.3921222-.3893607-1.0256392-.3871221-1.415.005l-3.17 3.17c-.8410105.7974699-2.15898955.7974699-3 0-.81826304-.8326114-.81826304-2.1673886 0-3l2.2-2.2 14.47-14.53 5.62 5.62c1.7894026 1.7894025 4.6905974 1.7894025 6.48 0 1.7894025-1.7894026 1.7894025-4.6905974 0-6.48l-6.26-6.25 1.2-1.2c2.4077283-2.3990886 6.3022717-2.3990886 8.71 0l10.12 10.13c1.159671 1.1525426 1.81177 2.7200103 1.81177 4.355s-.652099 3.2024574-1.81177 4.355z"/><path id="Shape" d="m9 18c.54295429-.0045791 1.0558393-.2500312 1.4-.67l6.5-8.09c.9466719-1.1945921 1.3131099-2.74828955 1-4.24-.4041675-1.96041619-1.9385526-3.49086697-3.9-3.89-1.4665737-.31559825-2.9970998.05231667-4.16 1-.31538688.26115165-.59749951.5600567-.84.89-.25050045-.33877765-.5428171-.64453414-.87-.91-1.15900459-.93161015-2.67600216-1.29157567-4.13-.98-1.95757604.40269195-3.48730805 1.93242396-3.89 3.89-.31310995 1.49171045.05332813 3.0454079 1 4.24l6.5 8.09c.34192232.4173053.85055775.6624749 1.39.67zm-6.93-12.6c.23441186-1.16729087 1.13692389-2.08549877 2.3-2.34.20771031-.03931521.41860251-.05940018.63-.06.68218761-.0003847 1.34327694.23647619 1.87.67.72069576.58758387 1.13623801 1.47015148 1.13 2.4 0 .55228475.44771525 1 1 1s1-.44771525 1-1c-.00623801-.92984852.4093042-1.81241613 1.13-2.4.6993848-.56856548 1.6173437-.79254746 2.5-.61 1.1630761.25450123 2.0655881 1.17270913 2.3 2.34.2007277.91128526-.0156033 1.86460833-.59 2.6l-6.34 7.88-6.34-7.88c-.57439666-.73539167-.79072767-1.68871474-.59-2.6z"/><path id="Shape" d="m56 1.11c-1.4665913-.31709809-2.9977658.0509727-4.16 1-.3153869.26115165-.5974995.5600567-.84.89-.2505005-.33877765-.5428171-.64453414-.87-.91-1.1590046-.93161015-2.6760022-1.29157567-4.13-.98-1.957576.40269195-3.4873081 1.93242396-3.89 3.89-.3131099 1.49171045.0533281 3.0454079 1 4.24l6.5 8.09c.3417357.4228764.8563018.6686292 1.4.6686292s1.0582643-.2457528 1.4-.6686292l6.5-8.09c.9466719-1.1945921 1.3131099-2.74828955 1-4.24-.4056374-1.96326371-1.9446819-3.49443588-3.91-3.89zm1.34 6.89-6.34 7.88-6.34-7.88c-.5714256-.73292832-.787598-1.68188869-.59-2.59.2344119-1.16729087 1.1369239-2.08549877 2.3-2.34.2073981-.04267283.4182932-.06610562.63-.07.6821876-.0003847 1.3432769.23647619 1.87.67.7206958.58758387 1.136238 1.47015148 1.13 2.4 0 .55228475.4477153 1 1 1s1-.44771525 1-1c-.006238-.92984852.4093042-1.81241613 1.13-2.4.6993848-.56856548 1.6173437-.79254746 2.5-.61 1.1630761.25450123 2.0655881 1.17270913 2.3 2.34.2007277.91128526-.0156033 1.86460833-.59 2.6z"/></g></g></g></svg>