<svg height="512" viewBox="0 0 56 60" width="512" xmlns="http://www.w3.org/2000/svg"><g id="Page-1" fill="none" fill-rule="evenodd"><g id="016---Sword-And-Heart"><path id="Shape" d="m28 49v10l-3.56-4.45c-.2854535-.3540024-.4407714-.7952465-.44-1.25l-.0000029-5.66c1.2700029.49 2.6000029.94 4.0000029 1.36z" fill="#9e9e9e" fill-rule="nonzero"/><path id="Shape" d="m32.0000029 47.64-.0000029 5.66c.0007714.4547535-.1545465.8959976-.44 1.25l-3.07 3.84-.49.61v-10c1.4-.42 2.73-.88 4.0000029-1.36z" fill="#707070" fill-rule="nonzero"/><path id="Shape" d="m41 14c0 1.6568542-1.3431458 3-3 3h-20c-1.5267083.0042865-2.8131388-1.1386914-2.9885549-2.6552947-.1754161-1.5166034.8161369-2.9230615 2.3035139-3.2673957 1.4873771-.3443341 2.9961302.4832925 3.505041 1.9226904h14.36c.4952814-1.3649694 1.897032-2.1792883 3.3281097-1.9333986 1.4310777.2458896 2.480625 1.4813937 2.4918903 2.9333986z" fill="#ffeb3a" fill-rule="nonzero"/><path id="Shape" d="m31 3v10h-6v-10c.0032948-1.10320187.8967981-1.9967052 2-2h2c1.1032019.0032948 1.9967052.89679813 2 2z" fill="#ff9801" fill-rule="nonzero"/><path id="Shape" d="m29 1h-2c-.1691076.00190932-.3372244.02611815-.5.072.8799839.22720212 1.4961391 1.01916692 1.5 1.928v10h3v-10c-.0032948-1.10320187-.8967981-1.9967052-2-2z" fill="#f57c00" fill-rule="nonzero"/><path id="Shape" d="m34 27h-2" stroke="#000" stroke-linecap="round" stroke-linejoin="round" stroke-width="2"/><path id="Shape" d="m24 27h-2" stroke="#000" stroke-linecap="round" stroke-linejoin="round" stroke-width="2"/><path id="Shape" d="m31 36c0 1.6568542-1.3431458 3-3 3s-3-1.3431458-3-3c0-1.657 3-5 3-5s3 3.343 3 5z" stroke="#000" stroke-linecap="round" stroke-linejoin="round" stroke-width="2"/><path id="Shape" d="m17.121 36.121c-1.1771367 1.1369166-3.0482543 1.1206571-4.2054557-.0365443s-1.1734609-3.028319-.0365443-4.2054557c1.171-1.172 5.657-1.415 5.657-1.415s-.243 4.486-1.415 5.657z" stroke="#000" stroke-linecap="round" stroke-linejoin="round" stroke-width="2"/><path id="Shape" d="m12.77 53.74c-1.068671 2.0544993-3.60050073 2.853671-5.655 1.785s-2.85367099-3.6005007-1.785-5.655c1.07-2.05 6.95-4.25 6.95-4.25s1.55 6.07.49 8.12z" fill="#f44335" fill-rule="nonzero"/><path id="Shape" d="m12.28 45.62s-1.268.476-2.731 1.189c.39 1.87.988 5.448.221 6.931-.47256291.9031923-1.26100971 1.6008698-2.215 1.96 1.9838152.7701357 4.2295079-.073883 5.215-1.96 1.06-2.05-.49-8.12-.49-8.12z" fill="#c81e1e" fill-rule="nonzero"/><path id="Shape" d="m48.88 55.53c-2.0546598 1.0640414-4.5828835.2630643-5.65-1.79-1.06-2.05.49-8.12.49-8.12s5.88 2.2 6.95 4.25c1.0672434 2.0573841.2661637 4.5904072-1.79 5.66z" fill="#f44335" fill-rule="nonzero"/><path id="Shape" d="m50.67 49.87c-1.07-2.05-6.95-4.25-6.95-4.25s-.12.474-.269 1.189c1.692.823 3.645 1.962 4.219 3.061 1.0672434 2.0573841.2661637 4.5904072-1.79 5.66-.1416392.0654935-.2868714.1229187-.435.172 1.6242877.6373633 3.4736118.1982003 4.6379297-1.1013789 1.1643178-1.2995793 1.3984058-3.1858632.5870703-4.7306211z" fill="#c81e1e" fill-rule="nonzero"/><path id="Shape" d="m38.879 36.121c1.1771367 1.1369166 3.0482543 1.1206571 4.2054557-.0365443s1.1734609-3.028319.0365443-4.2054557c-1.171-1.172-5.657-1.415-5.657-1.415s.243 4.486 1.415 5.657z" stroke="#000" stroke-linecap="round" stroke-linejoin="round" stroke-width="2"/><g fill-rule="nonzero"><path id="Rectangle-path" d="m24 17h4v10h-4z" fill="#9e9e9e"/><path id="Rectangle-path" d="m28 17h4v10h-4z" fill="#707070"/><path id="Shape" d="m55 19.68c0 7.87-4.97 21.05-23 27.96-1.27.48-2.6.94-4 1.36-1.4-.42-2.73-.87-4-1.36-18.03-6.91-23-20.09-23-27.96 0-8.39 5.51-15.68 13.5-15.68 3.7309066-.00681847 7.3817774 1.08148871 10.5 3.13v5.87h-4.18c-.5089108-1.4393979-2.0176639-2.2670245-3.505041-1.9226904-1.487377.3443342-2.47893 1.7507923-2.3035139 3.2673957.1754161 1.5166033 1.4618466 2.6595812 2.9885549 2.6552947h6v10h8v-10h6c1.5267083.0042865 2.8131388-1.1386914 2.9885549-2.6552947.1754161-1.5166034-.8161369-2.9230615-2.3035139-3.2673957-1.4873771-.3443341-2.9961302.4832925-3.505041 1.9226904h-4.18v-5.87c3.1182226-2.04851129 6.7690934-3.13681847 10.5-3.13 7.99 0 13.5 7.29 13.5 15.68z" fill="#f44335"/><path id="Rectangle-path" d="m21 17h3v10h-3z" fill="#c81e1e"/><path id="Shape" d="m32.18 13h3c.2429198-.6651428.7095664-1.2251187 1.32-1.584-.4541038-.269604-.9719008-.4132064-1.5-.416-1.2673043.0065276-2.3947695.8061483-2.82 2z" fill="#c81e1e"/><path id="Shape" d="m16.5 11.416c-.4535033-.2710092-.9716918-.4147201-1.5-.416-1.6568542 0-2.9999999 1.3431458-2.9999999 3s1.3431457 3 2.9999999 3l3 .0000051c-1.3555324.0024801-2.5433838-.906668-2.8950469-2.2157926-.3516632-1.3091246.2207312-2.6911181 1.3950469-3.3682125z" fill="#c81e1e"/><path id="Shape" d="m41.5 4c-.585 0-1.152.026-1.7.074 7.279.744 12.2 7.68 12.2 15.606 0 7.87-4.97 21.05-23 27.96-.806.3-1.647.6-2.5.88.5.163.99.326 1.5.48 1.4-.42 2.73-.88 4-1.36 18.03-6.91 23-20.09 23-27.96 0-8.39-5.51-15.68-13.5-15.68z" fill="#c81e1e"/><path id="Shape" d="m27.256 30.332c-.544.606-3.256 3.727-3.256 5.668 0 2.209139 1.790861 4 4 4s4-1.790861 4-4c0-1.941-2.712-5.062-3.256-5.668-.1944343-.2026776-.463139-.3172599-.744-.3172599s-.5495657.1145823-.744.3172599zm.744 7.668c-1.1045695 0-2-.8954305-2-2 0-.637.939-2.125 2-3.451 1.063 1.332 2 2.831 2 3.451 0 1.1045695-.8954305 2-2 2z" fill="#000"/><path id="Shape" d="m18.481 29.466c-.813.044-4.937.333-6.309 1.706-1.0398263 1.0042979-1.4568504 2.4915116-1.0907886 3.8900293.3660617 1.3985177 1.4582416 2.4906976 2.8567593 2.8567593 1.3985177.3660618 2.8857314-.0509623 3.8900293-1.0907886 1.373-1.373 1.662-5.5 1.706-6.31.0151876-.2835679-.0909025-.5602204-.291798-.7609251s-.4776487-.306532-.761202-.2910749zm-2.067 5.948c-.791167.755814-2.036833.755814-2.828 0-.7807639-.7809997-.7807639-2.0470003 0-2.828.45-.451 2.167-.839 3.853-1.027-.19 1.694-.586 3.417-1.025 3.855z" fill="#000"/><path id="Shape" d="m12.737 44.73c-.2517702-.1309544-.547324-.1487676-.813-.049-1.04.391-6.291 2.456-7.476 4.732-1.23019162 2.5270416-.22483676 5.5741559 2.26763943 6.8729527s5.56592887.377096 6.93236057-2.0789527c1.186-2.276-.131-7.762-.408-8.838-.0695781-.2746363-.252385-.5068701-.503-.639zm-.858 8.553c-.5262522 1.0105258-1.5516384 1.6635379-2.68990543 1.713053-1.13826708.049515-2.21648522-.5119894-2.82850006-1.4730001-.61201485-.9610107-.66484677-2.1755272-.13859451-3.1860529.525-1.008 3.16-2.428 5.344-3.358.492 2.321.834 5.294.313 6.304z" fill="#000"/><path id="Shape" d="m44.076 44.681c-.2658929-.0997692-.5616656-.0817779-.8135053.049484s-.4359901.3634124-.5064947.638516c-.277 1.076-1.594 6.562-.408 8.838.8262382 1.6972463 2.5090005 2.8119142 4.3940903 2.9106615 1.8850897.0987473 3.6751027-.8340051 4.6741471-2.4356371.9990443-1.601632 1.0495042-3.6194593.1317626-5.2690244-1.181-2.276-6.432-4.341-7.472-4.732zm5.915 8.088c-.387783 1.2301356-1.4783881 2.1055569-2.7632813 2.2180672-1.2848933.1125102-2.5110454-.5600468-3.1067187-1.7040672-.524-1.008-.178-3.981.314-6.3 2.184.93 4.819 2.35 5.343 3.358.3926042.7483516.4693097 1.6227214.213 2.428z" fill="#000"/><path id="Shape" d="m37.519 29.466c-.2835533-.0154571-.5603065.0903702-.761202.2910749s-.3069856.4773572-.291798.7609251c.044.813.333 4.937 1.706 6.31 1.0042979 1.0398263 2.4915116 1.4568504 3.8900293 1.0907886 1.3985177-.3660617 2.4906976-1.4582416 2.8567593-2.8567593.3660618-1.3985177-.0509623-2.8857314-1.0907886-3.8900293-1.372-1.372-5.496-1.662-6.309-1.706zm4.9 5.948c-.791167.755814-2.036833.755814-2.828 0-.451-.451-.839-2.168-1.026-3.855 1.686.188 3.4.576 3.854 1.027.7807639.7809997.7807639 2.0470003 0 2.828z" fill="#000"/><path id="Shape" d="m41.5 3c-3.3154847-.00438935-6.580053.81553273-9.5 2.386v-2.386c0-1.65685425-1.3431458-3-3-3h-2c-1.6568542 0-3 1.34314575-3 3v2.386c-2.919947-1.57046727-6.1845153-2.39038935-9.5-2.386-8.131 0-14.5 7.327-14.5 16.68 0 9.312 6.137 21.891 23 28.631v4.989c.0004752.6813786.2328902 1.3422976.659 1.874l3.56 4.451c.1897684.2373126.4771426.375469.781.375469s.5912316-.1381564.781-.375469l3.557-4.448c.4278305-.532105.6613558-1.1942304.662-1.877v-4.989c16.863-6.74 23-19.319 23-28.631 0-9.353-6.369-16.68-14.5-16.68zm-10.5 23h-2v-8h2zm-6 0v-8h2v8zm7-10h-14c-1.0188492.0062117-1.8795152-.7544904-1.9985071-1.7663862s.5417297-1.9515025 1.5342266-2.181811c.992497-.2303086 1.9994879.3223061 2.3382805 1.2831972.1417231.3986092.5189459.6649077.942.665h14.368c.4230541-.0000923.8002769-.2663908.942-.665.3407225-.9556035 1.3443676-1.5033152 2.3323678-1.2728257.9880002.2304896 1.6456796 1.16577 1.5283791 2.1734954-.1173005 1.0077253-.9722209 1.7669373-1.9867469 1.7643303zm-6-13c0-.55228475.4477153-1 1-1h2c.5522847 0 1 .44771525 1 1v9h-4zm5 50.3c.0008076.2277893-.077681.4487597-.222.625l-1.778 2.224v-2.149c0-.5522847-.4477153-1-1-1s-1 .4477153-1 1v2.149l-1.781-2.227c-.1425854-.1758517-.2199593-.3956077-.219-.622l-.0000088-4.237c.8800088.313 1.7780088.615 2.7130088.895.1872222.0560926.3867778.0560926.574 0 .935-.28 1.833-.582 2.7130062-.895zm-3-5.345c-19.184-5.861-26-18.874-26-28.275 0-8.232 5.49-14.68 12.5-14.68 3.3549228-.00418517 6.6446362.92663057 9.5 2.688v4.312h-2.549c-.9714197-1.6825243-3.0113607-2.42373053-4.8362845-1.7572489-1.8249237.6664816-2.9070537 2.5479014-2.5655097 4.4604631.3415441 1.9125616 2.0079859 3.3031433 3.9507942 3.2967858h5v8h-1c-.5522847 0-1 .4477153-1 1s.4477153 1 1 1h12c.5522847 0 1-.4477153 1-1s-.4477153-1-1-1h-1v-8h5c1.9428083.0063575 3.6092501-1.3842242 3.9507942-3.2967858.341544-1.9125617-.740586-3.7939815-2.5655097-4.4604631-1.8249238-.66648163-3.8648648.0747246-4.8362845 1.7572489h-2.549v-4.312c2.8553638-1.76136943 6.1450772-2.69218517 9.5-2.688 7.01 0 12.5 6.448 12.5 14.68 0 9.401-6.816 22.414-26 28.275z" fill="#000"/></g></g></g></svg>