<svg height="512pt" viewBox="0 0 512.02654 512" width="512pt" xmlns="http://www.w3.org/2000/svg"><path d="m434.945312 282.820312c-.726562 29.925782-13.132812 58.375-34.5625 79.273438-5.570312 5.46875-11.65625 10.382812-18.175781 14.679688-.046875 0-.085937.039062-.085937.085937l-74.664063 24.0625h-.34375c-1.960937.171875-4.007812.171875-5.972656.171875-5.503906-.011719-11-.324219-16.46875-.941406l-.171875-.082032-102.226562-62.636718c-10.117188-16.796875-15.484376-36.027344-15.53125-55.636719.027343-16.398437 3.824218-32.574219 11.09375-47.273437 4.441406-9.488282 10.3125-18.238282 17.40625-25.941407 7.039062-5.996093 12.121093-13.960937 14.59375-22.871093 2.558593-15.617188-9.898438-29.097657-24.746094-35.839844-5.648438-2.101563-11.402344-3.894532-17.238282-5.375-2.574218-.558594-4.636718-2.472656-5.382812-4.996094s-.058594-5.253906 1.796875-7.121094c8.742187-8.6875 20.054687-14.316406 32.257813-16.042968 2.730468-.425782 5.632812-.683594 8.703124-.855469 8.773438-.304688 17.550782.527343 26.113282 2.476562-10.667969-43.347656 2.132812-94.378906 52.136718-107.179687 2.164063-.546875 4.359376-.976563 6.570313-1.277344 13.136719-1.75 26.488281-.820312 39.253906 2.730469 1.453125.425781 19.285157 7.167969 20.222657 7.167969-30.632813 27.132812-12.882813 70.226562 10.753906 95.402343 20.652344 20.265625 38.734375 42.992188 53.84375 67.667969 12.871094 25.046875 19.957031 52.664062 20.738281 80.8125.410156 6.503906.441406 13.03125.085937 19.539062zm0 0" fill="#ff9801"/><path d="m409.34375 282.820312c-.726562 29.925782-13.128906 58.375-34.558594 79.273438-5.574218 5.46875-11.660156 10.382812-18.175781 14.679688-.046875 0-.085937.039062-.085937.085937l-72.023438 23.210937-102.226562-62.636718c-10.117188-16.796875-15.484376-36.027344-15.53125-55.636719.027343-16.398437 3.824218-32.574219 11.09375-47.273437 4.441406-9.488282 10.3125-18.238282 17.40625-25.941407 7.039062-5.996093 12.121093-13.960937 14.59375-22.871093 2.558593-15.617188-9.898438-29.097657-24.746094-35.839844-5.648438-2.101563-11.402344-3.894532-17.238282-5.375-2.574218-.558594-4.636718-2.472656-5.382812-4.996094s-.058594-5.253906 1.796875-7.121094c8.742187-8.6875 20.054687-14.316406 32.257813-16.042968 2.902343.425781 5.972656.9375 9.214843 1.621093-.171875-.855469-.425781-1.621093-.511719-2.476562 8.773438-.304688 17.550782.527343 26.113282 2.476562-10.667969-43.347656 2.132812-94.378906 52.136718-107.179687 2.164063-.546875 4.359376-.976563 6.570313-1.277344 4.609375.59375 9.171875 1.507812 13.65625 2.730469 1.449219.425781 19.285156 7.167969 20.222656 7.167969-30.636719 27.132812-12.886719 70.226562 10.75 95.402343 20.652344 20.265625 38.734375 42.992188 53.847657 67.667969 12.867187 25.046875 19.953124 52.664062 20.734374 80.8125.414063 6.503906.441407 13.03125.085938 19.539062zm0 0" fill="#fec108"/><path d="m223.402344 341.359375c-1.289063-4.46875-1.976563-9.089844-2.046875-13.738281.328125-16.980469 8.058593-32.96875 21.160156-43.777344 9.898437-8.445312 21.933594-14.503906 31.832031-23.039062 9.546875-7.601563 16.445313-18.023438 19.710938-29.78125 1.976562-13.472657 2.546875-27.113282 1.707031-40.703126 0 .9375 4.609375 3.15625 5.375 3.667969 16.554687 11.277344 28.417969 28.207031 33.367187 47.617188.863282 3.558593 1.4375 7.183593 1.707032 10.835937.082031.085938.082031.171875.082031.34375 1.367187 18.6875-8.445313 35.410156-18.601563 51.199219-.425781.683594 8.621094 4.4375 9.472657 4.691406 10.671875 2.976563 22.089843 1.597657 31.742187-3.839843 3.25-1.914063 6.023438-4.539063 8.109375-7.679688 1.785157-3.398438 3.132813-7.011719 4.011719-10.75 0 .339844 4.007812 4.777344 4.433594 5.289062 1.707031 2.617188 3.21875 5.355469 4.523437 8.191407 2.335938 4.945312 4.136719 10.121093 5.378907 15.445312 6.824218 26.964844-4.011719 50.433594-23.894532 68.351563l-.085937.085937-65.21875 35.089844zm0 0" fill="#f57c00"/><path d="m25.601562 290.160156h42.664063c9.425781 0 17.066406 7.640625 17.066406 17.066406v179.199219c0 9.425781-7.640625 17.066407-17.066406 17.066407h-42.664063c-9.425781 0-17.066406-7.640626-17.066406-17.066407v-179.199219c0-9.425781 7.640625-17.066406 17.066406-17.066406zm0 0" fill="#2296f3"/><path d="m492.203125 388.890625-159.914063 97.363281c-7.695312 4.699219-16.367187 7.5625-25.34375 8.363282-1.898437.242187-3.808593.355468-5.71875.34375h-215.894531v-187.734376h23.894531c17.675782.023438 34.824219 6.039063 48.640626 17.066407 13.816406 11.027343 30.960937 17.042969 48.640624 17.066406h44.628907c13.824219-.035156 26.792969 6.6875 34.730469 18.003906.671874.878907 1.300781 1.789063 1.875 2.730469l.769531 1.28125c5.960937 9.929688 5.828125 22.371094-.339844 32.171875-1.226563 2.015625-2.6875 3.875-4.351563 5.546875h20.050782c3.6875 0 7.347656-.605469 10.839844-1.792969l6.910156-2.304687 125.441406-41.8125 25.597656-8.535156c9.5625-3.136719 20.058594.15625 26.113282 8.195312v.082031c3.96875 5.269531 5.515624 11.96875 4.265624 18.445313-1.253906 6.472656-5.191406 12.113281-10.835937 15.519531zm0 0" fill="#bfa885"/><path d="m466.601562 397.421875-159.65625 97.195313c-1.898437.242187-3.808593.355468-5.71875.34375h-215.894531v-179.117188c17.085938.355469 33.578125 6.324219 46.933594 16.984375 13.816406 11.023437 30.964844 17.039063 48.640625 17.066406h44.628906c13.824219-.035156 26.792969 6.6875 34.730469 18.003907.675781.875 1.300781 1.789062 1.878906 2.730468l.765625 1.28125c5.960938 9.929688 5.828125 22.367188-.339844 32.167969-1.222656 2.015625-2.683593 3.878906-4.351562 5.546875h20.054688c3.683593.003906 7.347656-.601562 10.835937-1.789062l25.601563-8.535157 6.910156-2.304687 125.441406-41.8125c9.558594-3.140625 20.058594.15625 26.109375 8.191406v.085938c3.96875 5.265624 5.519531 11.96875 4.265625 18.441406-1.25 6.472656-5.1875 12.113281-10.835938 15.519531zm0 0" fill="#ffe0b2"/><path d="m505.582031 349.707031c-8.253906-10.976562-22.585937-15.464843-35.625-11.15625l-52.90625 17.65625c16.308594-20.902343 25.566407-46.4375 26.453125-72.933593.371094-6.824219.339844-13.660157-.09375-20.480469-.746094-29.449219-8.195312-58.339844-21.777344-84.480469-15.246093-25.039062-33.527343-48.101562-54.425781-68.660156l-.675781-.722656c-12.550781-13.382813-25.597656-34.988282-24.6875-55.65625.402344-10.640626 5.253906-20.628907 13.375-27.519532 2.421875-2.148437 3.421875-5.484375 2.578125-8.613281-.847656-3.125-3.386719-5.503906-6.566406-6.140625-1.800781-.546875-8.796875-3.125-12.628907-4.53125-3.453124-1.269531-6.296874-2.296875-7.117187-2.558594-16.316406-4.644531-33.53125-5.144531-50.089844-1.460937-51.445312 13.21875-67.089843 61.441406-60.773437 105.097656-33.902344-3.78125-53.375 9.726563-62.386719 18.816406-4.007813 3.941407-5.5625 9.746094-4.0625 15.164063 1.570313 5.566406 6 9.863281 11.613281 11.261718 6.886719 1.707032 14.738282 4.4375 15.777344 4.875 11.222656 5.117188 21.710938 15.359376 19.851562 26.726563-2.175781 6.875-6.242187 13-11.734374 17.671875l-.675782.699219c-7.671875 8.320312-14.023437 17.769531-18.832031 28.015625-13.554687 27.261718-15.683594 58.804687-5.914063 87.644531-.347656-.273437-.726562-.511719-1.074218-.785156-15.339844-12.210938-34.351563-18.886719-53.957032-18.945313h-16.929687c-3.605469-10.191406-13.21875-17.019531-24.03125-17.066406h-42.664063c-14.140624 0-25.601562 11.460938-25.601562 25.601562v179.199219c0 14.140625 11.460938 25.601563 25.601562 25.601563h42.664063c7.242187-.023438 14.128906-3.125 18.945313-8.535156h214.015624c12.523438.003906 24.808594-3.4375 35.507813-9.949219l159.90625-97.347657c7.566406-4.5625 12.894531-12.066406 14.707031-20.714843 1.816406-8.648438-.046875-17.660157-5.140625-24.878907-.183593-.316406-.394531-.613281-.625-.894531zm-193.628906 41.519531c-2.207031.726563-4.503906 1.140626-6.828125 1.230469-1.089844.050781-2.191406.101563-3.285156.101563-.921875 0-1.867188-.058594-2.796875-.074219 4.0625-11.070313 2.898437-23.386719-3.175781-33.496094l-.851563-1.433593c-.636719-1.066407-1.339844-2.089844-2.101563-3.070313-9.542968-13.621094-25.148437-21.710937-41.777343-21.65625h-20.8125c-.25-1.742187-.394531-3.492187-.4375-5.25.378906-14.457031 7.003906-28.042969 18.167969-37.238281 4.75-3.878906 9.726562-7.46875 14.910156-10.746094 5.910156-3.753906 11.582031-7.878906 16.980468-12.347656 10.9375-8.765625 18.796876-20.789063 22.433594-34.328125 1.714844-8.375 2.421875-16.921875 2.109375-25.464844 10.570313 9.695313 18.113281 22.238281 21.722657 36.121094.742187 3.113281 1.234374 6.277343 1.46875 9.464843.019531.328126.058593.652344.121093.972657.851563 15.617187-7.679687 30.371093-17.332031 45.398437-1.433594 2.300782-1.726562 5.132813-.792969 7.679688 2.003907 5.375 11.175781 8.628906 15.070313 9.789062 4.292968 1.246094 8.742187 1.878906 13.214844 1.882813 8.890624.15625 17.648437-2.128907 25.328124-6.601563 3.539063-2.097656 6.667969-4.828125 9.226563-8.046875 1.972656 4.285157 3.503906 8.757813 4.574219 13.351563 4.996094 21.828125-2.796875 44.601562-20.125 58.789062zm-136.679687-109.429687c.019531-15.101563 3.523437-29.996094 10.242187-43.519531 4.074219-8.734375 9.460937-16.789063 15.972656-23.894532l.65625-.691406c7.984375-7.015625 13.621094-16.316406 16.136719-26.640625 2.917969-17.816406-8.710938-35.480469-29.609375-44.96875-5.441406-2.082031-10.996094-3.871093-16.632813-5.351562 9.730469-8.832031 27.308594-17.066407 57.5-10.46875 2.878907.628906 5.878907-.269531 7.9375-2.382813 2.054688-2.109375 2.878907-5.132812 2.171876-7.996094-9.480469-38.5625.855468-85.332031 45.9375-96.871093 13.644531-2.953125 27.808593-2.492188 41.230468 1.339843.691406.222657 3.058594 1.101563 5.890625 2.144532l1.988281.722656c-6.050781 8.597656-9.488281 18.757812-9.898437 29.261719.488281 25.65625 10.992187 50.101562 29.269531 68.113281l.671875.726562c19.894531 19.542969 37.332031 41.445313 51.925781 65.210938 12.339844 23.929688 19.078126 50.351562 19.703126 77.269531.394531 6.171875.417968 12.363281.078124 18.542969-.570312 27.800781-12.074218 54.253906-32.019531 73.632812-1.621093 1.597657-3.410156 3.082032-5.117187 4.589844 6.921875-14.765625 8.484375-31.488281 4.410156-47.28125-1.378906-5.914062-3.378906-11.664062-5.972656-17.152344-1.601563-3.453124-3.488282-6.769531-5.632813-9.914062l-.953125-1.09375c-.804687-.90625-2.09375-2.347656-2.757812-3.183594-1.699219-2.796875-4.84375-4.375-8.101563-4.066406-3.253906.308594-6.050781 2.453125-7.191406 5.515625-.546875 1.460937-.953125 2.910156-1.355469 4.363281-.351562 1.660156-.964844 3.25-1.816406 4.71875-1.382812 2.0625-3.214844 3.78125-5.359375 5.027344-4.847656 2.816406-10.371094 4.25-15.976563 4.152344-2.914062.03125-5.820312-.339844-8.632812-1.097656 9.855469-13.976563 15.082031-30.6875 14.941406-47.789063-.003906-.535156-.050781-1.066406-.144531-1.59375-.335937-3.921875-.972656-7.8125-1.894531-11.640625-5.457032-21.484375-18.621094-40.214844-36.984375-52.625-.289063-.195312-.941407-.5625-1.757813-1.015625-.519531-.28125-1.195312-.632813-1.777344-.980469-1.601562-1.945312-3.980468-3.082031-6.5-3.105468h-.085937c-4.652344-.003907-8.445313 3.71875-8.535156 8.371093-.074219 3.992188 0 7.996094.09375 11.996094.570312 9.003906.042969 18.039063-1.578125 26.914063-2.855469 9.984374-8.785156 18.8125-16.945313 25.234374-4.851562 4.011719-9.953125 7.71875-15.265625 11.09375-5.78125 3.671876-11.332031 7.691407-16.625 12.039063-14.960937 12.484375-23.753906 30.863281-24.089844 50.347656 0 1.707031.257813 3.414063.417969 5.050781h-6.730469c-6.191406-.027343-12.351562-.890624-18.3125-2.558593-8.351562-14.808594-12.796874-31.496094-12.921874-48.496094zm-107.007813 213.164063h-42.664063c-4.714843 0-8.535156-3.820313-8.535156-8.535157v-179.199219c0-4.714843 3.820313-8.535156 8.535156-8.535156h42.664063c4.714844 0 8.535156 3.820313 8.535156 8.535156v179.199219c0 4.714844-3.820312 8.535157-8.535156 8.535157zm426.394531-123.195313c-.785156 4.113281-3.300781 7.695313-6.902344 9.835937l-159.898437 97.367188c-8.027344 4.878906-17.238281 7.457031-26.632813 7.457031h-207.359374v-170.667969h15.359374c15.742188.042969 31.007813 5.402344 43.324219 15.207032 8.210938 6.503906 17.527344 11.46875 27.503907 14.660156l.261718.078125c8.460938 2.742187 17.296875 4.15625 26.191406 4.191406h44.628907c11.21875.019531 21.710937 5.550781 28.066406 14.796875.4375.574219.84375 1.171875 1.21875 1.789063l.777344 1.296875c4.324219 7.214844 4.199219 16.25-.324219 23.339844-.355469.5-.734375.980468-1.136719 1.441406h-51.726562c-16.847657.011718-33.3125 4.996094-47.335938 14.328125l-6.238281 4.179687c-3.914062 2.632813-4.957031 7.9375-2.328125 11.855469 2.628906 3.914063 7.9375 4.957031 11.851563 2.328125l6.179687-4.164062c11.21875-7.464844 24.394531-11.453126 37.871094-11.460938h75.859375.300781c1.117187 0 2.15625-.058594 2.941406-.144531h.34375c.339844-.046875.679688-.113281 1.015625-.203125 3.035156-.285156 6.03125-.90625 8.933594-1.851563l67.414062-22.460937.316407-.109375 90.171875-30.097657c5.851562-1.941406 12.292968-.078124 16.210937 4.683594.128907.214844.265625.410156.410157.613282 2.546874 3.332031 3.539062 7.59375 2.730468 11.710937zm0 0"/><path d="m42.667969 349.894531c-4.714844 0-8.535157 3.820313-8.535157 8.53125v59.734375c0 4.710938 3.820313 8.53125 8.535157 8.53125 4.710937 0 8.53125-3.820312 8.53125-8.53125v-59.734375c0-4.710937-3.820313-8.53125-8.53125-8.53125zm0 0"/><path d="m51.199219 324.292969c0 4.710937-3.820313 8.535156-8.53125 8.535156-4.714844 0-8.535157-3.824219-8.535157-8.535156 0-4.714844 3.820313-8.535157 8.535157-8.535157 4.710937 0 8.53125 3.820313 8.53125 8.535157zm0 0"/></svg>