<svg height="512pt" viewBox="0 -29 512 512" width="512pt" xmlns="http://www.w3.org/2000/svg"><g fill="#f072ae"><path d="m241.597656 207.199219h-24.117187c-63.453125 0-114.894531-51.441407-114.894531-114.898438v-24.113281h24.113281c63.457031 0 114.898437 51.441406 114.898437 114.898438zm0 0"/><path d="m241.597656 207.199219h24.113282c63.457031 0 114.894531-51.441407 114.894531-114.898438v-24.113281h-24.113281c-63.457032 0-114.894532 51.441406-114.894532 114.898438zm0 0"/><path d="m192.625 88.972656c2.632812-15.039062 8.277344-29.652344 16.925781-42.875-6.4375-4.394531-13.421875-8.195312-20.910156-11.296875l-22.277344-9.230469-9.226562 22.28125c-3.101563 7.484376-5.351563 15.113282-6.796875 22.769532 15.464844 3.238281 29.789062 9.578125 42.285156 18.351562zm0 0"/><path d="m290.566406 88.972656c12.496094-8.773437 26.820313-15.113281 42.285156-18.351562-1.445312-7.65625-3.695312-15.285156-6.796874-22.769532l-9.226563-22.28125-22.277344 9.230469c-7.488281 3.101563-14.472656 6.902344-20.910156 11.296875 8.648437 13.222656 14.292969 27.835938 16.925781 42.875zm0 0"/><path d="m241.597656 183.085938c0-38.925782 19.355469-73.332032 48.96875-94.113282-3.933594-22.457031-14.574218-43.96875-31.917968-61.3125l-17.050782-17.050781-17.050781 17.050781c-17.347656 17.34375-27.988281 38.855469-31.921875 61.3125 29.613281 20.78125 48.972656 55.1875 48.972656 94.113282zm0 0"/></g><path d="m187.988281 317.769531h93.535157l14.921874-14.925781v-37.898438l-14.921874-14.925781h-163.789063l-107.125 107.125 85.878906 85.882813 31.570313-31.570313h195.953125l177.378906-177.378906-27.402344-27.40625h-41.855469l-97.65625 97.660156h-38.03125v-1.488281l-14.921874 14.925781zm0 0" fill="#ffd9a9"/><path d="m296.445312 285.558594 86.363282-86.359375h41.851562l7.472656 7.472656-97.65625 97.660156h-38.03125zm0 0" fill="#ffbb85"/><path d="m132.585938 92.300781v-23.964843c-1.949219-.097657-3.914063-.148438-5.886719-.148438h-24.113281v24.113281c0 63.457031 51.441406 114.898438 114.894531 114.898438h24.117187v-.148438c-60.722656-3.066406-109.011718-53.269531-109.011718-114.75zm0 0" fill="#ff3f62"/><path d="m271.597656 183.085938c0-61.480469 48.289063-111.683594 109.007813-114.75v-.148438h-24.113281c-63.457032 0-114.894532 51.441406-114.894532 114.898438v24.113281h24.113282c1.972656 0 3.9375-.050781 5.886718-.148438zm0 0" fill="#ff3f62"/><path d="m180.339844 70.621094c1.445312-7.65625 3.695312-15.285156 6.796875-22.769532l4.8125-11.621093c-1.089844-.492188-2.191407-.96875-3.308594-1.429688l-22.277344-9.230469-9.226562 22.277344c-3.101563 7.488282-5.351563 15.113282-6.796875 22.773438 15.464844 3.234375 29.789062 9.578125 42.285156 18.347656.820312-4.683594 1.933594-9.324219 3.339844-13.898438-5.054688-1.835937-10.269532-3.328124-15.625-4.449218zm0 0" fill="#ff3f62"/><path d="m303.644531 46.097656c5.480469-3.742187 11.355469-7.050781 17.597657-9.867187l-4.414063-10.660157-22.277344 9.230469c-7.488281 3.101563-14.472656 6.902344-20.910156 11.296875 8.648437 13.222656 14.292969 27.835938 16.925781 42.875 8.171875-5.734375 17.125-10.433594 26.664063-13.902344-3.105469-10.105468-7.632813-19.871093-13.585938-28.972656zm0 0" fill="#ff3f62"/><path d="m222.625 88.972656c3.9375-22.457031 14.574219-43.96875 31.921875-61.3125l2.050781-2.050781-15-15-17.050781 17.050781c-17.347656 17.34375-27.988281 38.855469-31.921875 61.3125 29.613281 20.78125 48.972656 55.1875 48.972656 94.113282 0-20.664063 5.453125-40.050782 15-56.804688-8.441406-14.808594-20.078125-27.558594-33.972656-37.308594zm0 0" fill="#ff3f62"/><path d="m462.136719 206.671875h-30.003907l-97.65625 97.660156h30zm0 0" fill="#ffbb85"/><path d="m40.609375 357.144531 107.125-107.125h-30l-107.125 107.125 85.878906 85.882813 15-15zm0 0" fill="#ffbb85"/><path d="m217.480469 214.699219h48.226562c67.492188 0 122.398438-54.90625 122.398438-122.398438v-31.613281h-31.613281c-52.664063 0-97.664063 33.433594-114.894532 80.191406-17.230468-46.757812-62.234375-80.191406-114.898437-80.191406h-31.613281v31.613281c0 67.492188 54.90625 122.398438 122.394531 122.398438zm139.011719-139.011719h16.613281v16.613281c0 59.21875-48.175781 107.398438-107.398438 107.398438h-16.609375v-16.613281c0-59.21875 48.175782-107.398438 107.394532-107.398438zm-246.40625 0h16.613281c59.21875 0 107.394531 48.179688 107.394531 107.398438v16.613281h-16.613281c-59.21875 0-107.394531-48.179688-107.394531-107.398438zm0 0"/><path d="m170.421875 35.371094c16.183594 6.703125 20.835937 8.363281 28.882813 13.101562-3.183594 5.609375-5.921876 11.480469-8.203126 17.597656l14.054688 5.242188c5.386719-14.449219 13.695312-27.351562 24.691406-38.351562l11.75-11.746094 11.746094 11.746094c10.996094 11 19.304688 23.898437 24.691406 38.351562l14.054688-5.242188c-2.277344-6.117187-5.019532-11.988281-8.199219-17.597656 8.042969-4.734375 12.664063-6.382812 28.878906-13.101562 6.863281 16.574218 6.800781 16.371094 7.648438 18.617187l14.035156-5.300781c-.964844-2.554688-.316406-.933594-13.566406-32.914062-31.25 12.941406-35.507813 14.34375-45.207031 20.128906-6.839844-9.175782-10.628907-12.449219-34.082032-35.902344-23.40625 23.40625-27.253906 26.738281-34.085937 35.902344-9.699219-5.785156-13.957031-7.1875-45.207031-20.128906-13.195313 31.851562-12.609376 30.378906-13.566407 32.917968l14.035157 5.292969c.820312-2.171875.65625-1.734375 7.648437-18.613281zm0 0"/><path d="m477.09375 199.171875h-48.066406l-97.65625 97.660156h-27.425782v-34.996093l-19.316406-19.316407h-170.003906l-114.625 114.625 96.488281 96.488281 34.675781-34.675781h195.953126l184.882812-184.878906zm-156.1875 204.785156h-189.742188l-30.867187-30.871093-10.609375 10.609374 27.761719 27.761719-20.960938 20.964844-75.273437-75.277344 99.625-99.625h157.574218l10.53125 10.53125v31.6875l-10.53125 10.53125h-90.425781v15h96.640625l13.4375-13.4375h39.515625l97.660157-97.660156h35.640624l19.902344 19.902344zm0 0"/><path d="m311.144531 260.253906 10.605469 10.605469 64.164062-64.160156h25.410157v-15h-31.625zm0 0"/><path d="m318.960938 391.757812-10.609376-10.605468 71.863282-71.863282 10.605468 10.609376zm78.933593-78.933593-10.609375-10.605469 10.605469-10.605469 10.609375 10.605469zm17.679688-17.679688-10.609375-10.605469 10.605468-10.605468 10.609376 10.605468zm0 0" fill="#fff"/><path d="m303.523438 182.058594-5.839844-13.820313c15.488281-6.546875 28.472656-17.527343 37.550781-31.761719l12.648437 8.066407c-10.71875 16.804687-26.058593 29.777343-44.359374 37.515625zm49.667968-46.957032-13.46875-6.609374c2.019532-4.109376 3.699219-8.410157 5-12.785157l14.378906 4.269531c-1.535156 5.175782-3.523437 10.265626-5.910156 15.125zm8.410156-25.679687-14.769531-2.625c.796875-4.488281 1.222657-9.089844 1.269531-13.675781l15 .144531c-.054687 5.417969-.558593 10.851563-1.5 16.15625zm0 0" fill="#fff"/><path d="m255.308594 82.003906c-3.980469-11.585937-10.394532-21.941406-19.066406-30.78125l10.707031-10.503906c10.25 10.449219 17.832031 22.699219 22.546875 36.410156zm0 0" fill="#fff"/></svg>