<?xml version="1.0" encoding="iso-8859-1"?>
<!-- Generator: Adobe Illustrator 21.0.0, SVG Export Plug-In . SVG Version: 6.00 Build 0)  -->
<svg xmlns="http://www.w3.org/2000/svg" xmlns:xlink="http://www.w3.org/1999/xlink" version="1.1" id="Capa_1" x="0px" y="0px" viewBox="0 0 512 512" style="enable-background:new 0 0 512 512;" xml:space="preserve" width="512" height="512">
<g>
	<path style="fill:#66BB6A;" d="M319.345,119.476V94.052H192.655v25.424c0,12.705-7.68,24.15-19.438,28.965l-50.267,20.586   c-11.372,4.657-18.8,15.726-18.8,28.015v289.304c0,10.026,8.128,18.154,18.154,18.154h267.391c10.026,0,18.154-8.128,18.154-18.154   V197.042c0-12.288-7.428-23.358-18.8-28.015l-50.267-20.586C327.025,143.626,319.345,132.181,319.345,119.476z"/>
	<path style="fill:#388E3C;" d="M389.05,169.028l-28.5-11.672c4.605,5.376,7.3,12.305,7.3,19.687v240.283   c0,37.1-30.075,67.175-67.175,67.175H104.151v1.846c0,10.026,8.128,18.154,18.154,18.154h267.391   c10.026,0,18.154-8.128,18.154-18.154V197.042C407.849,184.754,400.421,173.685,389.05,169.028z"/>
	<path style="fill:#EF5350;" d="M364.643,454.857H146.5c-7.456,0-13.5-6.044-13.5-13.5V223.214c0-7.456,6.044-13.5,13.5-13.5   h218.143c7.456,0,13.5,6.044,13.5,13.5v218.143C378.143,448.813,372.099,454.857,364.643,454.857z"/>
	<path style="fill:#D32F2F;" d="M364.643,209.714h-26.5v163.571c0,34.005-27.566,61.571-61.571,61.571H133v6.5   c0,7.456,6.044,13.5,13.5,13.5h218.143c7.456,0,13.5-6.044,13.5-13.5V223.214C378.143,215.759,372.099,209.714,364.643,209.714z"/>
	<path style="fill:#FFFFFF;" d="M311.408,347.969l1.497-20.326c2.453-33.301-22.847-61.556-56.236-61.965   c-33.559-0.411-60.177,27.98-57.719,61.348l1.542,20.943c0.189,2.571-0.982,5.074-3.122,6.51c-2.971,1.993-4.927,5.383-4.927,9.23   l0,0c0,6.135,4.973,11.108,11.108,11.108h11.777c4.678,0,8.632,3.468,9.241,8.107l3.599,27.413   c0.359,2.732,2.687,4.775,5.443,4.775h44.678c2.756,0,5.084-2.043,5.443-4.775l3.599-27.413c0.609-4.638,4.562-8.107,9.241-8.107   h11.777c6.135,0,11.108-4.973,11.108-11.108l0,0c0-3.847-1.956-7.237-4.927-9.23C312.39,353.043,311.219,350.54,311.408,347.969z"/>
	<path style="fill:#FFFFFF;" d="M348.918,260.394c-2.333-2.57-5.265-4.231-8.371-4.982c-2.861-0.692-5.177-2.856-5.842-5.724   c-0.676-2.916-2.15-5.685-4.422-7.957c-6.616-6.616-17.435-6.465-23.859,0.451c-5.794,6.238-5.869,16.018-0.167,22.34   c0.213,0.236,0.432,0.465,0.655,0.687c1.016,1.006,1.016,2.646,0.005,3.657l-12.057,12.057c4.991,4.666,9.125,10.22,12.188,16.409   l14.167-14.167c1.024-1.024,2.67-0.989,3.693,0.037l0.019,0.019c6.476,6.476,16.98,6.468,23.447-0.022   C354.376,277.173,354.635,266.693,348.918,260.394z"/>
	<path style="fill:#FFFFFF;" d="M205.179,402.929c-1.026-1.022-1.062-2.668-0.037-3.693l18.759-18.759   c-1.433-3.36-4.762-5.661-8.572-5.661h-11.777c-0.802,0-1.583-0.089-2.337-0.251l-10.373,10.373   c-1.011,1.011-2.651,1.011-3.658-0.005c-0.221-0.223-0.45-0.441-0.687-0.655c-6.322-5.702-16.102-5.627-22.34,0.167   c-6.916,6.425-7.066,17.244-0.451,23.859c2.273,2.273,5.041,3.747,7.957,4.422c2.867,0.664,5.032,2.981,5.724,5.842   c0.751,3.107,2.412,6.039,4.982,8.371c6.299,5.717,16.779,5.458,22.805-0.546c6.491-6.467,6.498-16.971,0.022-23.447   L205.179,402.929z"/>
	<path style="fill:#FFFFFF;" d="M217.074,280.954l-12.089-12.089c-1.011-1.011-1.011-2.651,0.005-3.657   c0.223-0.221,0.442-0.45,0.655-0.687c5.702-6.322,5.627-16.102-0.167-22.34c-6.425-6.916-17.244-7.067-23.859-0.451   c-2.273,2.272-3.747,5.041-4.422,7.957c-0.664,2.867-2.981,5.032-5.842,5.724c-3.107,0.751-6.039,2.412-8.371,4.982   c-5.717,6.299-5.458,16.779,0.546,22.805c6.467,6.491,16.971,6.499,23.447,0.022l0.019-0.019c1.022-1.026,2.668-1.062,3.693-0.037   l14.13,14.13C207.9,291.138,212.066,285.608,217.074,280.954z"/>
	<path style="fill:#FFFFFF;" d="M347.743,384.447c-6.238-5.794-16.018-5.869-22.34-0.167c-0.236,0.214-0.465,0.432-0.686,0.655   c-1.007,1.015-2.647,1.016-3.658,0.005l-10.373-10.373c-0.754,0.161-1.535,0.251-2.337,0.251h-11.777   c-3.81,0-7.138,2.301-8.572,5.661l18.759,18.759c1.024,1.024,0.988,2.67-0.037,3.693l-0.019,0.019   c-6.476,6.476-6.468,16.98,0.022,23.447c6.026,6.004,16.506,6.263,22.805,0.546c2.57-2.333,4.231-5.264,4.983-8.371   c0.692-2.861,2.856-5.177,5.724-5.842c2.916-0.676,5.685-2.15,7.958-4.422C354.81,401.69,354.659,390.871,347.743,384.447z"/>
	<path style="fill:#66BB6A;" d="M321.673,94.052H190.327c-10.248,0-18.556-8.308-18.556-18.556v-1.459   c0-10.248,8.308-18.556,18.556-18.556h131.347c10.248,0,18.556,8.308,18.556,18.556v1.459   C340.229,85.745,331.922,94.052,321.673,94.052z"/>
	<path style="fill:#388E3C;" d="M321.673,55.482h-3.544c1.335,2.562,2.101,5.468,2.101,8.556v1.458   c0,10.248-8.308,18.556-18.556,18.556H173.871c3.094,5.939,9.296,10,16.456,10h131.347c10.248,0,18.556-8.308,18.556-18.556v-1.458   C340.229,63.79,331.922,55.482,321.673,55.482z"/>
	<path style="fill:#FFE082;" d="M309.161,55.482H202.839l-1.165-41.025c-0.108-3.81,2.951-6.957,6.762-6.957h95.128   c3.811,0,6.87,3.147,6.762,6.957L309.161,55.482z"/>
	<path style="fill:#FFA000;" d="M303.564,7.5h-23.608l-0.2,7.027c-0.331,11.668-9.885,20.954-21.558,20.954h-55.927l0.568,20   h106.322l1.165-41.025C310.434,10.647,307.375,7.5,303.564,7.5z"/>
	<circle style="fill:#757575;" cx="232.251" cy="343.938" r="14.277"/>
	<circle style="fill:#757575;" cx="279.65" cy="343.938" r="14.277"/>
	<g>
		<path d="M391.893,162.087l-50.268-20.586c-8.979-3.678-14.78-12.322-14.78-22.024v-18.441    c11.898-2.405,20.885-12.942,20.885-25.54v-1.458c0-14.367-11.688-26.057-26.056-26.057h-4.797l0.946-33.313    C318.05,6.628,311.609,0,303.564,0h-95.128c-8.046,0-14.487,6.629-14.259,14.67l0.946,33.312h-4.796    c-14.367,0-26.056,11.689-26.056,26.057v1.458c0,12.598,8.986,23.134,20.885,25.54v18.441c0,9.702-5.802,18.347-14.78,22.024    l-50.268,20.586c-14.25,5.836-23.458,19.557-23.458,34.955v102.234c0,4.143,3.358,7.5,7.5,7.5s7.5-3.357,7.5-7.5V197.042    c0-9.283,5.551-17.556,14.142-21.074l50.268-20.586c14.637-5.995,24.095-20.089,24.095-35.905v-17.924h64.495    c4.143,0,7.5-3.357,7.5-7.5s-3.357-7.5-7.5-7.5h-74.324c-6.096,0-11.056-4.96-11.056-11.057v-1.458    c0-6.097,4.96-11.057,11.056-11.057h131.347c6.096,0,11.056,4.96,11.056,11.057v1.458c0,6.097-4.96,11.057-11.056,11.057H299.65    c-4.143,0-7.5,3.357-7.5,7.5s3.357,7.5,7.5,7.5h12.194v17.924c0,15.816,9.458,29.91,24.095,35.905l50.268,20.586    c8.592,3.519,14.143,11.791,14.143,21.074v289.304c0,5.875-4.779,10.654-10.654,10.654H122.304    c-5.875,0-10.654-4.779-10.654-10.654V334.276c0-4.143-3.358-7.5-7.5-7.5s-7.5,3.357-7.5,7.5v152.069    c0,14.146,11.508,25.654,25.654,25.654h267.391c14.146,0,25.654-11.509,25.654-25.654V197.042    C415.35,181.644,406.142,167.923,391.893,162.087z M209.193,15h93.615l-0.937,32.981h-91.742L209.193,15z"/>
		<path d="M255.95,362.929c-7.965,0-13.604,9.167-15.68,14.583c-1.482,3.868,0.452,8.205,4.319,9.688    c3.866,1.484,8.205-0.451,9.688-4.318c0.469-1.224,1.08-2.337,1.673-3.233c0.594,0.896,1.204,2.01,1.673,3.233    c1.485,3.873,5.823,5.799,9.688,4.32c3.868-1.482,5.802-5.819,4.32-9.688C269.555,372.097,263.916,362.929,255.95,362.929z"/>
		<path d="M254.027,343.938c0-12.008-9.769-21.776-21.777-21.776c-12.007,0-21.776,9.769-21.776,21.776s9.769,21.776,21.776,21.776    C244.258,365.714,254.027,355.945,254.027,343.938z M232.25,350.714c-3.736,0-6.776-3.04-6.776-6.776s3.04-6.776,6.776-6.776    c3.737,0,6.777,3.04,6.777,6.776S235.987,350.714,232.25,350.714z"/>
		<path d="M301.427,343.938c0-12.008-9.769-21.776-21.776-21.776s-21.777,9.769-21.777,21.776s9.77,21.776,21.777,21.776    S301.427,355.945,301.427,343.938z M279.65,350.714c-3.737,0-6.777-3.04-6.777-6.776s3.04-6.776,6.777-6.776    c3.736,0,6.776,3.04,6.776,6.776S283.387,350.714,279.65,350.714z"/>
		<path d="M352.848,378.951c-8.153-7.573-20.544-8.403-29.615-2.444l-0.738-0.739c2.776-3.251,4.463-7.458,4.463-12.058    c0-6.14-3.009-11.854-8.059-15.33l1.486-20.186c0.751-10.206-0.772-20.13-4.364-29.229l7.362-7.362    c9.151,6.064,21.922,5.304,30.304-3.11c8.754-8.786,9.114-23.962,0.786-33.139c0,0,0,0,0-0.001    c-3.264-3.595-7.468-6.095-12.163-7.231c-0.202-0.05-0.297-0.146-0.297-0.127c-4.309-18.591-27.865-25.149-41.084-10.917    c-7.568,8.147-8.403,20.532-2.443,29.613l-4.084,4.083c-10.765-8.01-23.769-12.425-37.639-12.594    c-14.137-0.202-27.931,4.352-39.198,12.657l-4.146-4.146c5.959-9.076,5.125-21.465-2.444-29.613    c-13.076-14.078-36.754-7.87-41.066,10.871c-0.286,0.433-6.668,1.002-12.478,7.404c-8.328,9.176-7.968,24.353,0.786,33.139    c8.381,8.412,21.145,9.175,30.301,3.108l7.375,7.375c-3.572,9-5.144,18.778-4.42,28.602l1.532,20.803    c-9.043,6.229-10.808,18.941-3.596,27.388l-0.739,0.739c-15.723-10.323-36.958,0.636-37.308,19.642    c-0.219,11.897,8.089,21.457,18.567,23.869c0.024,0.016,0.124,0.116,0.172,0.316c4.62,19.099,28.107,23.593,40.371,11.375    c4.56-4.543,7.074-10.59,7.081-17.025c0.004-4.779-1.375-9.346-3.977-13.272l5.179-5.179l1.98,15.08    c0.845,6.441,6.382,11.3,12.879,11.3h44.678c6.498,0,12.035-4.858,12.88-11.299l1.98-15.08l5.172,5.172    c-6.081,9.176-5.285,21.939,3.11,30.304c8.773,8.741,23.948,9.128,33.14,0.786c3.597-3.265,6.097-7.471,7.231-12.161    c0.048-0.198,0.146-0.299,0.127-0.299c0,0,0,0-0.001,0C360.493,415.736,367.104,392.195,352.848,378.951z M311.918,247.286    c5.015-5.398,13.872-2.852,15.48,4.094c1.297,5.6,5.66,9.938,11.384,11.32c1.761,0.427,3.346,1.372,4.582,2.733    c3.023,3.332,2.878,9.277-0.306,12.473c-3.381,3.395-8.883,3.75-12.842,0c-3.912-3.922-10.312-4.039-14.308-0.044l-7.369,7.37    c-1.075-1.507-2.34-3.12-3.22-4.165l6.899-6.898c4.012-4.014,3.873-10.424-0.017-14.275    C308.651,256.368,308.697,250.753,311.918,247.286z M203.361,285.231l-7.369-7.368c-4.134-4.135-10.508-3.768-14.32,0.056    c-3.756,3.756-9.484,3.345-12.83-0.013c-3.184-3.196-3.329-9.141-0.305-12.473c1.235-1.361,2.82-2.307,4.579-2.732    c5.727-1.384,10.09-5.722,11.386-11.32c1.641-7.075,10.546-9.407,15.481-4.095c3.213,3.459,3.271,9.065-0.272,12.595    c-3.968,3.931-3.984,10.331-0.029,14.288l6.906,6.906C206.194,281.541,204.376,283.815,203.361,285.231z M210.474,397.618    L210.474,397.618C210.559,397.705,210.554,397.698,210.474,397.618z M199.838,393.933c-3.929,3.93-3.949,10.327,0.046,14.31    l0.01,0.009c3.547,3.548,3.543,9.29-0.012,12.831c-3.195,3.185-9.139,3.33-12.471,0.306c-1.363-1.236-2.308-2.821-2.733-4.579    c-1.384-5.727-5.722-10.09-11.32-11.387c-7.009-1.621-9.451-10.508-4.095-15.48c3.505-3.256,9.128-3.223,12.596,0.273    c3.93,3.964,10.332,3.984,14.287,0.028l7.925-7.926h7.384L199.838,393.933z M276.525,407.612h-3.481v-5.041    c0-4.143-3.357-7.5-7.5-7.5s-7.5,3.357-7.5,7.5v5.041h-4.187v-5.041c0-4.143-3.358-7.5-7.5-7.5s-7.5,3.357-7.5,7.5v5.041h-3.482    l-3.37-25.665c-0.848-6.461-5.461-12.103-12.066-13.981c-3.088-0.88-5.132-0.626-16.387-0.649c-3.537,0-4.975-4.616-2.001-6.61    c4.349-2.92,6.81-8.011,6.422-13.288l-1.543-20.943c-2.13-28.926,20.876-53.568,50.148-53.298    c28.931,0.355,50.992,24.807,48.848,53.915l-1.497,20.326v-0.001c-0.39,5.277,2.072,10.37,6.424,13.29    c1.005,0.674,1.604,1.796,1.604,3.002c0,1.727-1.221,3.171-2.844,3.522c-0.267,0.056-0.517,0.085-0.763,0.085    c-11.889,0.025-13.433-0.209-16.389,0.65c-6.6,1.877-11.217,7.515-12.065,13.98L276.525,407.612z M338.544,405.422    c-5.598,1.297-9.936,5.659-11.321,11.386c-0.425,1.76-1.37,3.344-2.732,4.58c-3.33,3.023-9.276,2.88-12.472-0.305    c-3.529-3.517-3.588-9.256-0.004-12.84c3.928-3.912,4.043-10.313,0.048-14.311l-11.616-11.615h7.385l7.927,7.928    c3.968,3.964,10.363,3.926,14.285-0.03c3.486-3.514,9.105-3.515,12.596-0.273C348.03,394.947,345.502,403.812,338.544,405.422z"/>
		<path d="M378.143,286.521c4.143,0,7.5-3.357,7.5-7.5v-55.808c0-11.579-9.421-21-21-21H146.5c-11.58,0-21,9.421-21,21v218.144    c0,11.579,9.42,21,21,21h218.143c11.579,0,21-9.421,21-21V314.021c0-4.143-3.357-7.5-7.5-7.5s-7.5,3.357-7.5,7.5v127.336    c0,3.309-2.691,6-6,6H146.5c-3.309,0-6-2.691-6-6V223.214c0-3.309,2.691-6,6-6h218.143c3.309,0,6,2.691,6,6v55.808    C370.643,283.164,374,286.521,378.143,286.521z"/>
		<circle cx="225.434" cy="27.434" r="7.499"/>
		<circle cx="249.43" cy="35.714" r="7.499"/>
		<circle cx="288.71" cy="29.144" r="7.499"/>
	</g>
</g>















</svg>
