<?xml version="1.0" encoding="iso-8859-1"?>
<!-- Generator: Adobe Illustrator 19.0.0, SVG Export Plug-In . SVG Version: 6.00 Build 0)  -->
<svg version="1.1" id="Capa_1" xmlns="http://www.w3.org/2000/svg" xmlns:xlink="http://www.w3.org/1999/xlink" x="0px" y="0px"
	 viewBox="0 0 512.001 512.001" style="enable-background:new 0 0 512.001 512.001;" xml:space="preserve">
<path style="fill:#EDECFF;" d="M256.25,136c132.55,0,246,140,246,140s-113.45,140-246,140s-246-140-246-140S123.7,136,256.25,136z"
	/>
<path style="fill:#3BCD92;" d="M356.25,276c0,55.14-44.86,100-100,100s-100-44.86-100-100s44.86-100,100-100
	C311.283,176,356.25,220.738,356.25,276z"/>
<path d="M17.139,222.902C44.039,195.479,140.763,106,256,106c115.236,0,211.961,89.479,238.861,116.902
	c3.866,3.943,10.199,4.003,14.142,0.137c3.942-3.868,4.004-10.199,0.136-14.142C480.859,180.067,379.028,86,256,86
	C132.971,86,31.14,180.067,2.861,208.898c-3.867,3.943-3.806,10.274,0.137,14.142C6.929,226.895,13.261,226.856,17.139,222.902z"/>
<path d="M2.231,282.296c1.188,1.465,29.604,36.295,74.917,71.593C128.764,394.096,191.098,426,256,426
	c64.899,0,127.231-31.901,178.852-72.111c45.313-35.298,73.73-70.128,74.918-71.593c2.974-3.67,2.974-8.921,0-12.592
	c-1.188-1.465-29.604-36.295-74.918-71.593C383.235,157.904,320.903,126,256,126s-127.237,31.905-178.852,72.111
	c-45.313,35.298-73.73,70.128-74.917,71.593C-0.744,273.375-0.744,278.626,2.231,282.296z M89.791,213.616
	C129.467,182.77,190.51,146,256,146s126.533,36.77,166.21,67.616c32.525,25.287,56.444,50.871,66.617,62.384
	c-10.173,11.513-34.092,37.097-66.617,62.384C382.533,369.231,321.49,406,256,406s-126.533-36.77-166.209-67.616
	C57.262,313.095,33.343,287.511,23.173,276C33.345,264.487,57.264,238.903,89.791,213.616z"/>
<path d="M256,386c60.654,0,110-49.346,110-110c0-60.731-49.147-110-110-110c-60.654,0-110,49.346-110,110S195.346,386,256,386z
	 M256,186c48.87,0,90,39.985,90,90c0,38.598-31.401,70-70,70c-29.775,0-54-24.224-54-54c0-22.718,18.482-41.2,41.2-41.2
	c17.071,0,30.96,13.889,30.96,30.96c0,12.556-10.215,22.77-22.771,22.77c-8.938,0-16.21-7.276-16.21-16.22c0-5.523-4.478-10-10-10
	c-5.523,0-10,4.477-10,10c0,19.972,16.244,36.22,36.21,36.22c23.584,0,42.771-19.187,42.771-42.77c0-28.1-22.86-50.96-50.96-50.96
	c-33.746,0-61.2,27.454-61.2,61.2c0,37.604,28.201,68.724,64.561,73.377C263.096,365.784,259.573,366,256,366
	c-49.626,0-90-40.374-90-90S206.374,186,256,186z"/>
<g>
</g>
<g>
</g>
<g>
</g>
<g>
</g>
<g>
</g>
<g>
</g>
<g>
</g>
<g>
</g>
<g>
</g>
<g>
</g>
<g>
</g>
<g>
</g>
<g>
</g>
<g>
</g>
<g>
</g>
</svg>
