<svg height="512pt" viewBox="0 0 512 512" width="512pt" xmlns="http://www.w3.org/2000/svg"><path d="m503.464844 256v221.867188c0 14.136718-11.460938 25.597656-25.597656 25.597656-14.140626 0-25.601563-11.460938-25.601563-25.597656v-34.132813h-17.066406c-2.792969-.035156-5.574219-.40625-8.277344-1.109375-13.226563-3.414062-25.855469-14.25-25.855469-27.050781v-14.507813h-7.679687c-19.3125-.027344-34.957031-15.675781-34.988281-34.988281v-7.082031c11.183593-18.289063 17.089843-39.316406 17.066406-60.757813 0-51.625-26.707032-95.058593-71.59375-112.554687-.511719-.253906-1.109375-.59375-1.621094-.851563 27.128906-19.074219 59.265625-29.757812 92.417969-30.71875h.253906c4.695313-.34375 9.644531-.511719 14.679687-.511719 59.730469 0 93.863282 42.664063 93.863282 102.398438zm0 0" fill="#ffc900"/><path d="m477.867188 256v221.867188c.003906 9.152343-4.875 17.609374-12.800782 22.1875-7.925781-4.578126-12.804687-13.035157-12.800781-22.1875v-34.132813h-17.066406c-2.792969-.035156-5.574219-.40625-8.277344-1.109375-13.226563-3.414062-25.855469-14.25-25.855469-27.050781v-14.507813h-7.679687c-19.3125-.027344-34.957031-15.675781-34.988281-34.988281v-7.082031c11.183593-18.289063 17.089843-39.316406 17.066406-60.757813 0-51.625-26.707032-95.058593-71.59375-112.554687-.511719-.253906-1.109375-.59375-1.621094-.851563 27.128906-19.074219 59.265625-29.757812 92.417969-30.71875h.253906c52.90625 4.863281 82.945313 45.90625 82.945313 101.886719zm0 0" fill="#ffeb49"/><path d="m102.398438 153.601562c53.890624 0 88.015624 16.859376 107.367187 31.230469-.554687.273438-1.089844.582031-1.707031.8125-44.824219 17.578125-71.523438 60.96875-71.523438 112.59375-.007812 21.425781 5.898438 42.441407 17.066406 60.726563v7.113281c0 19.324219-15.664062 34.988281-34.988281 34.988281h-7.679687v14.507813c0 15.574219-18.558594 28.160156-34.132813 28.160156h-17.066406v34.132813c0 14.136718-11.460937 25.597656-25.601563 25.597656-14.136718 0-25.597656-11.460938-25.597656-25.597656v-221.867188c0-59.734375 34.132813-102.398438 93.863282-102.398438zm0 0" fill="#ffeb49"/><path d="m375.464844 298.238281c-.121094 45.628907-26.539063 87.101563-67.839844 106.496094-4.109375 2-7.65625 4.992187-10.324219 8.707031-9.335937 13.617188-24.789062 21.761719-41.300781 21.761719s-31.964844-8.144531-41.300781-21.761719c-2.667969-3.714844-6.214844-6.707031-10.324219-8.707031-41.300781-19.394531-67.71875-60.867187-67.839844-106.496094-.089844-15.414062 2.417969-30.730469 7.421875-45.308593 34.863281-16.613282 74.164063-21.523438 112.042969-13.996094 34.5 7.480468 70.308594 6.367187 104.277344-3.242188 10.230468 19.246094 15.453125 40.753906 15.1875 62.546875zm0 0" fill="#f85b44"/><path d="m303.871094 185.683594c-8.335938-3.375-13.773438-11.484375-13.738282-20.476563v-46.933593c.59375-17.496094 10.53125-33.328126 26.027344-41.472657 5.46875-3.027343 8.1875-9.378906 6.59375-15.425781-1.589844-6.042969-7.085937-10.234375-13.335937-10.175781h-106.835938c-6.25-.058594-11.746093 4.132812-13.335937 10.175781-1.59375 6.046875 1.125 12.398438 6.59375 15.425781 15.496094 8.144531 25.433594 23.976563 26.027344 41.472657v46.933593c.035156 8.992188-5.402344 17.101563-13.738282 20.476563-26.539062 10.285156-47.988281 30.566406-59.734375 56.492187-1.621093 3.5-3.15625 7.082031-4.4375 10.753907 20.371094-9.648438 42.367188-15.40625 64.855469-16.984376 15.789062-1.152343 31.667969-.144531 47.1875 2.988282 26.25 5.496094 53.273438 6.25 79.785156 2.21875 8.285156-1.222656 16.472656-3.050782 24.492188-5.460938-12.21875-22.878906-32.230469-40.617187-56.40625-50.007812zm0 0" fill="#00c6db"/><path d="m360.277344 235.691406c-8.019532 2.410156-16.207032 4.238282-24.492188 5.460938-12.371094-22.699219-31.570312-45.738282-56.402344-55.46875-8.335937-3.375-13.777343-11.484375-13.738281-20.476563v-46.933593c.59375-17.496094 10.527344-33.328126 26.023438-41.472657 5.472656-3.027343 8.1875-9.378906 6.597656-15.425781-1.59375-6.042969-7.085937-10.234375-13.335937-10.175781h24.488281c6.25-.058594 11.746093 4.132812 13.335937 10.175781 1.59375 6.046875-1.125 12.398438-6.59375 15.425781-15.496094 8.144531-25.433594 23.976563-26.027344 41.472657v46.933593c-.035156 8.992188 5.402344 17.101563 13.738282 20.476563 24.175781 9.390625 44.1875 27.128906 56.40625 50.007812zm0 0" fill="#00939f"/><path d="m256 349.867188s51.199219-19.199219 51.199219-48c-.546875-16.429688-14.289063-29.3125-30.71875-28.800782-7.925781-.046875-15.445313 3.480469-20.480469 9.601563-5.035156-6.121094-12.554688-9.648438-20.480469-9.601563-16.429687-.511718-30.171875 12.371094-30.71875 28.800782 0 28.800781 51.199219 48 51.199219 48zm0 0" fill="#ef3a76"/><path d="m290.132812 22.441406v28.757813h-68.265624v-28.757813c0-7.679687 6.226562-13.90625 13.910156-13.90625h40.445312c7.683594 0 13.910156 6.226563 13.910156 13.90625zm0 0" fill="#ffa700"/><path d="m264.535156 22.441406v28.757813h-42.667968v-28.757813c0-7.679687 6.226562-13.90625 13.910156-13.90625h14.847656c7.679688 0 13.910156 6.226563 13.910156 13.90625zm0 0" fill="#ffc900"/><path d="m256 358.398438c-1.023438 0-2.035156-.179688-2.996094-.535157-5.808594-2.183593-56.738281-22.253906-56.738281-55.996093.582031-21.125 18.125-37.8125 39.253906-37.332032 7.382813-.113281 14.585938 2.242188 20.480469 6.6875 5.894531-4.445312 13.097656-6.800781 20.480469-6.6875 21.128906-.480468 38.671875 16.207032 39.253906 37.332032 0 33.742187-50.929687 53.8125-56.738281 55.996093-.960938.355469-1.972656.535157-2.996094.535157zm-20.480469-76.796876c-11.707031-.484374-21.609375 8.5625-22.1875 20.265626 0 17.226562 28.953125 33.007812 42.667969 38.808593 13.714844-5.800781 42.667969-21.582031 42.667969-38.808593-.578125-11.703126-10.480469-20.75-22.1875-20.265626-5.59375-.042968-10.886719 2.527344-14.3125 6.953126-3.414063 3.386718-8.921875 3.386718-12.335938 0-3.425781-4.425782-8.71875-6.996094-14.3125-6.953126zm0 0"/><path d="m290.132812 59.734375h-68.265624c-4.714844 0-8.535157-3.820313-8.535157-8.535156v-28.730469c.015625-12.402344 10.066407-22.453125 22.46875-22.46875h40.398438c12.402343.015625 22.453125 10.066406 22.46875 22.46875v28.730469c0 4.714843-3.820313 8.535156-8.535157 8.535156zm-59.734374-17.066406h51.203124v-20.199219c-.007812-2.980469-2.421874-5.398438-5.402343-5.402344h-40.398438c-2.980469.003906-5.394531 2.421875-5.402343 5.402344zm0 0"/><path d="m452.265625 452.265625c-4.710937 0-8.53125-3.820313-8.53125-8.53125v-128c0-4.714844 3.820313-8.535156 8.53125-8.535156 4.714844 0 8.535156 3.820312 8.535156 8.535156v128c0 4.710937-3.820312 8.53125-8.535156 8.53125zm0 0"/><path d="m401.066406 409.601562c-4.710937 0-8.53125-3.820312-8.53125-8.535156v-51.199218c0-4.714844 3.820313-8.535157 8.53125-8.535157 4.714844 0 8.535156 3.820313 8.535156 8.535157v51.199218c0 4.714844-3.820312 8.535156-8.535156 8.535156zm0 0"/><path d="m477.867188 512c-18.851563 0-34.132813-15.28125-34.132813-34.132812v-25.601563h-8.535156c-19.726563 0-42.664063-16.042969-42.664063-36.691406v-5.972657c-23.6875-.503906-42.636718-19.832031-42.667968-43.523437v-7.105469c-.003907-1.5625.429687-3.097656 1.246093-4.429687 10.335938-16.960938 15.808594-36.441407 15.820313-56.304688 0-48.5625-25.34375-88.667969-66.132813-104.652343-.691406-.273438-1.367187-.589844-2.023437-.9375-2.679688-1.375-4.488282-4.007813-4.8125-7.003907-.34375-2.941406.863281-5.847656 3.183594-7.683593 20.214843-14.972657 56.132812-32.894532 112.453124-32.894532 62.207032 0 102.398438 43.519532 102.398438 110.933594v221.867188c0 18.851562-15.28125 34.132812-34.132812 34.132812zm-110.933594-150.691406v4.769531c.027344 14.601563 11.855468 26.425781 26.453125 26.457031h7.679687c4.714844 0 8.535156 3.820313 8.535156 8.53125v14.507813c0 10.402343 14.316407 19.625 25.597657 19.625h17.066406c4.714844 0 8.535156 3.820312 8.535156 8.535156v34.132813c0 9.425781 7.640625 17.066406 17.066407 17.066406 9.425781 0 17.066406-7.640625 17.066406-17.066406v-221.867188c0-57.898438-32.699219-93.867188-85.332032-93.867188-31.316406-.90625-62.3125 6.484376-89.847656 21.425782 39.953125 21.371094 64.246094 64.085937 64.246094 114.679687-.011719 22.164063-5.902344 43.925781-17.066406 63.070313zm0 0"/><path d="m443.734375 238.933594c-3.914063-.003906-7.324219-2.671875-8.269531-6.46875-.265625-1.066406-7.78125-27.664063-42.929688-27.664063-15.71875.976563-30.953125 5.792969-44.375 14.027344-3.816406 2.765625-9.152344 1.910156-11.917968-1.90625-2.761719-3.816406-1.910157-9.152344 1.910156-11.917969 16.332031-10.351562 35.066406-16.304687 54.382812-17.269531 39.019532 0 55.96875 26.554687 59.476563 40.601563 1.136719 4.566406-1.636719 9.195312-6.203125 10.339843-.679688.167969-1.375.253907-2.074219.257813zm0 0"/><path d="m256 443.734375c-19.289062.214844-37.398438-9.277344-48.1875-25.269531-1.832031-2.542969-4.265625-4.597656-7.082031-5.972656-44.175781-20.953126-72.445313-65.359376-72.730469-114.253907 0-55.746093 29.5-101.972656 76.980469-120.539062 5.066406-2.066407 8.371093-7.003907 8.351562-12.476563v-46.933594c-.640625-14.363281-8.859375-27.304687-21.589843-33.988281-7.101563-3.886719-11.507813-11.351562-11.476563-19.449219.066406-12.289062 10.058594-22.207031 22.351563-22.183593h106.765624c10.136719-.054688 19.019532 6.769531 21.582032 16.574219 2.5625 9.804687-1.84375 20.101562-10.707032 25.015624-12.730468 6.6875-20.949218 19.625-21.589843 33.988282v46.933594c-.019531 5.472656 3.285156 10.410156 8.351562 12.476562 47.480469 18.609375 76.980469 64.835938 76.980469 120.582031-.292969 48.886719-28.558594 93.285157-72.730469 114.238281-2.816406 1.375-5.25 3.425782-7.082031 5.972657-10.785156 15.996093-28.894531 25.5-48.1875 25.285156zm-53.382812-384c-2.871094-.039063-5.234376 2.25-5.285157 5.117187-.023437 1.851563.984375 3.558594 2.613281 4.429688 18.28125 9.589844 29.9375 28.328125 30.453126 48.964844v46.933594c-.007813 12.488281-7.609376 23.714843-19.199219 28.363281-40.789063 16.027343-66.132813 56.132812-66.132813 104.695312.273438 42.300781 24.75 80.707031 62.976563 98.816407 5.375 2.601562 10.023437 6.492187 13.535156 11.324218 7.722656 11.4375 20.621094 18.289063 34.421875 18.289063s26.699219-6.851563 34.421875-18.289063c3.511719-4.832031 8.160156-8.722656 13.535156-11.324218 38.226563-18.109376 62.703125-56.515626 62.976563-98.816407 0-48.5625-25.34375-88.667969-66.132813-104.652343-11.589843-4.648438-19.191406-15.875-19.199219-28.363282v-46.933594c.503907-20.648437 12.160157-39.40625 30.453126-49 1.621093-.867187 2.628906-2.5625 2.613281-4.402343-.050781-2.867188-2.414063-5.15625-5.285157-5.121094zm0 0"/><path d="m34.132812 512c-18.851562 0-34.132812-15.28125-34.132812-34.132812v-221.867188c0-67.414062 40.191406-110.933594 102.398438-110.933594 56.320312 0 92.238281 17.921875 112.453124 32.914063 2.390626 1.769531 3.6875 4.65625 3.421876 7.617187-.265626 2.960938-2.054688 5.570313-4.71875 6.890625-.777344.414063-1.574219.792969-2.390626 1.125-40.753906 15.957031-66.097656 56.0625-66.097656 104.625.007813 19.871094 5.480469 39.355469 15.820313 56.320313.816406 1.335937 1.25 2.867187 1.246093 4.429687v7.089844c-.035156 23.691406-18.980468 43.015625-42.667968 43.523437v5.972657c0 20.648437-22.9375 36.691406-42.664063 36.691406h-8.535156v25.601563c0 18.851562-15.28125 34.132812-34.132813 34.132812zm68.265626-349.867188c-52.632813 0-85.332032 35.96875-85.332032 93.867188v221.867188c0 9.425781 7.640625 17.066406 17.066406 17.066406 9.425782 0 17.066407-7.640625 17.066407-17.066406v-34.132813c0-4.714844 3.820312-8.535156 8.535156-8.535156h17.066406c11.28125 0 25.597657-9.257813 25.597657-19.625v-14.507813c0-4.710937 3.820312-8.53125 8.535156-8.53125h7.679687c14.597657-.03125 26.425781-11.855468 26.453125-26.457031v-4.742187c-11.164062-19.144532-17.054687-40.90625-17.066406-63.070313 0-50.585937 24.285156-93.296875 64.257812-114.671875-27.535156-14.957031-58.535156-22.359375-89.859374-21.460938zm0 0"/><path d="m68.265625 238.933594c-.699219 0-1.398437-.085938-2.082031-.257813-4.566406-1.144531-7.34375-5.773437-6.203125-10.339843 3.515625-14.046876 20.464843-40.601563 59.484375-40.601563 19.328125.960937 38.074218 6.910156 54.417968 17.269531 3.816407 2.765625 4.671876 8.101563 1.90625 11.917969-2.761718 3.816406-8.097656 4.671875-11.914062 1.90625-13.433594-8.238281-28.679688-13.054687-44.410156-14.027344-35.589844 0-42.851563 27.390625-42.921875 27.664063-.945313 3.800781-4.359375 6.46875-8.277344 6.46875zm0 0"/><path d="m59.734375 452.265625c-4.714844 0-8.535156-3.820313-8.535156-8.53125v-128c0-4.714844 3.820312-8.535156 8.535156-8.535156 4.710937 0 8.53125 3.820312 8.53125 8.535156v128c0 4.710937-3.820313 8.53125-8.53125 8.53125zm0 0"/><path d="m110.933594 409.601562c-4.714844 0-8.535156-3.820312-8.535156-8.535156v-51.199218c0-4.714844 3.820312-8.535157 8.535156-8.535157 4.710937 0 8.53125 3.820313 8.53125 8.535157v51.199218c0 4.714844-3.820313 8.535156-8.53125 8.535156zm0 0"/><path d="m349.867188 128c-3.453126 0-6.5625-2.078125-7.882813-5.269531-1.320313-3.1875-.589844-6.855469 1.847656-9.296875l17.066407-17.066406c3.351562-3.234376 8.671874-3.1875 11.964843.105468 3.289063 3.289063 3.335938 8.613282.101563 11.960938l-17.066406 17.066406c-1.597657 1.601562-3.769532 2.5-6.03125 2.5zm0 0"/><path d="m162.132812 128c-2.261718 0-4.433593-.898438-6.03125-2.5l-17.066406-17.066406c-3.234375-3.347656-3.1875-8.671875.101563-11.960938 3.292969-3.292968 8.613281-3.339844 11.964843-.105468l17.066407 17.066406c2.4375 2.441406 3.167969 6.109375 1.847656 9.296875-1.320313 3.191406-4.429687 5.269531-7.882813 5.269531zm0 0"/></svg>