<svg height="512" viewBox="0 0 58 60" width="512" xmlns="http://www.w3.org/2000/svg"><g id="Page-1" fill="none" fill-rule="evenodd"><g id="001---Heart-Lock" fill-rule="nonzero"><path id="Shape" d="m57 27.4c0 10.81-11.39 17.96-28 31.6-16.61-13.64-28-20.79-28-31.6 0-7.81 5.71-14.4 14-14.4 1.3512534-.0064053 2.697042.1719117 4 .53 2.2145493.6086849 4.2647027 1.705517 6 3.21 1.6195994 1.369295 2.9752181 3.0231497 4 4.88 1.0247819-1.8568503 2.3804006-3.510705 4-4.88 1.7327818-1.5081345 3.783809-2.6054341 6-3.21 1.302958-.3580883 2.6487466-.5364053 4-.53 8.29 0 14 6.59 14 14.4z" fill="#f44335"/><path id="Shape" d="m43 13c-.508 0-1 .031-1.475.076 7.457.753 12.475 7.003 12.475 14.324 0 10.481-10.708 17.522-26.5 30.374.4946667.4.9946667.8086667 1.5 1.226 16.61-13.64 28-20.79 28-31.6 0-7.81-5.71-14.4-14-14.4z" fill="#c81e1e"/><path id="Shape" d="m38 10v1h-4v-1c0-2.76142375-2.2385763-5-5-5s-5 2.23857625-5 5v1h-4v-1c0-4.97056275 4.0294373-9 9-9s9 4.02943725 9 9z" fill="#ff9801"/><path id="Shape" d="m25 12v4.74c-1.7352973-1.504483-3.7854507-2.6013151-6-3.21v-1.53c0-.5522847.4477153-1 1-1h4c.5522847 0 1 .4477153 1 1z" fill="#ff5722"/><path id="Shape" d="m39 12v1.53c-2.216191.6045659-4.2672182 1.7018655-6 3.21v-4.74c0-.5522847.4477153-1 1-1h4c.5522847 0 1 .4477153 1 1z" fill="#ff5722"/><path id="Shape" d="m29 31c-.4610077.0020878-.864439-.3094485-.979-.756-.516-1.256-5.248-12.244-13.021-12.244-2.2597777-.1244914-4.4789074.637942-6.185 2.125-1.15319317 1.102148-1.8129855 2.6229153-1.83 4.218 0 1.821.932 3.657 3.015 3.657 1.2542733.1347756 2.5036021-.2946125 3.41-1.172.5416406-.7651856.7600742-1.7129287.608-2.638-.1076955-.5417913.2442087-1.0683044.786-1.176.5417913-.1076955 1.0683045.2442087 1.176.786.2645499 1.505393-.1021759 3.0533087-1.014 4.28-1.042 1.275-2.713 1.92-4.966 1.92-2.906 0-5.015-2.379-5.015-5.657.01832451-2.1367306.89807751-4.1756663 2.44-5.655 2.0667522-1.8682299 4.7929221-2.8356154 7.575-2.688 7.352 0 12.091 7.711 13.992 11.546 1.902-3.835 6.641-11.546 13.993-11.546 2.7820779-.1476154 5.5082478.8197701 7.575 2.688 1.5419225 1.4793337 2.4216755 3.5182694 2.44 5.655 0 3.278-2.109 5.657-5.015 5.657-2.253 0-3.924-.645-4.966-1.916-.91434-1.2271079-1.2829123-2.7766309-1.019-4.284.1133337-.5349409.6353266-.879654 1.1718046-.7738349.536478.105819.888479.6229254.7901954 1.1608349-.1520641.9248966.0667673 1.8724472.609 2.637.9066239.8799769 2.1577698 1.3109515 3.414 1.176 2.082 0 3.015-1.836 3.015-3.657-.0170145-1.5950847-.6768068-3.115852-1.83-4.218-1.7062005-1.4868712-3.925252-2.2492778-6.185-2.125-7.729 0-12.435 10.821-13.008 12.213-.1001498.4593971-.5068131.7869755-.977.787z" fill="#c81e1e"/><path id="Shape" d="m32 37c.0058726-1.3964834-.9526134-2.6123304-2.3118793-2.9326373-1.359266-.3203068-2.7597792.3396493-3.3780543 1.5918219s-.2907752 2.7653557.7899336 3.6498154c.345882.2640681.4782644.7233459.326 1.131l-1.426 3.56h6.0000268l-1.4240268-3.559c-.1519486-.4089997-.0188206-.8692651.328-1.134.6937586-.5649867 1.0962906-1.4122872 1.096-2.307z" fill="#37474f"/><path id="Shape" d="m29 55c-.2424684-.0000396-.4766638-.0881738-.659-.248l-8-7c-.2166796-.1898467-.3409588-.463917-.341-.752.0732095-.6440619-.1543975-1.2859358-.617-1.74-.6522332-.3600797-1.4154582-.4635074-2.14-.29-.4953797.125064-1.0053672-.1434126-1.1826506-.6225917-.1772834-.4791792.0351594-1.0149356.4926506-1.2424083 1.5362317-.8111527 2.5102826-2.3930756 2.543-4.13-2.6887025 1.4883287-5.9640898 1.4434448-8.611-.118-.358632-.2158246-.54490507-.632169-.4668119-1.0433851.0780931-.4112161.4040274-.7302882.8168119-.7996149 2.2196354-.1795629 3.9880854-1.9302862 4.19-4.148-2.6443812 1.6529888-6.00622488 1.6272634-8.625-.066-.4418278-.3313708-.53137085-.9581722-.2-1.4s.9581722-.5313708 1.4-.2c.134.1 3.476 2.458 7.775-.981.2769583-.2215612.6505541-.2798433.9818381-.1531699.331284.1266735.5706842.4193476.6291619.7691699.1604028 1.2010461.0649816 2.4224371-.28 3.584-.4321237 1.4905796-1.4067971 2.7652898-2.732 3.573 1.9462111.3661879 3.9459272-.2729393 5.319-1.7.2608132-.26039.6437094-.3562177.9964296-.2493771.3527202.1068405.6180844.3990293.6905704.7603771.4280679 2.2098368-.0669728 4.498587-1.37 6.334.3606922.126667.6984211.311067 1 .546.8516337.7029514 1.3523551 1.7438671 1.37 2.848l7.02 6.14 7.016-6.139c.0176449-1.1041329.5183663-2.1450486 1.37-2.848.3015789-.234933.6393078-.419333 1-.546-1.3027225-1.8370495-1.7963572-4.1274279-1.366-6.338.072486-.3613478.3378502-.6535366.6905704-.7603771.3527202-.1068406.7356164-.0110129.9964296.2493771 1.3736678 1.426105 3.3728584 2.0650642 5.319 1.7-1.3252029-.8077102-2.2998763-2.0824204-2.732-3.573-.3449816-1.1615629-.4404028-2.3829539-.28-3.584.0584777-.3498223.2978779-.6424964.6291619-.7691699.331284-.1266734.7048798-.0683913.9818381.1531699 4.345 3.476 7.742 1 7.775.981.4418278-.3313708 1.0686292-.2418278 1.4.2s.2418278 1.0686292-.2 1.4c-2.6190852 1.6934407-5.9813089 1.719166-8.626.066.2027741 2.2176879 1.9713389 3.9681071 4.191 4.148.4127845.0693267.7387188.3883988.8168119.7996149.0780932.4112161-.1081799.8275605-.4668119 1.0433851-2.6470233 1.5610415-5.9221955 1.6059225-8.611.118.0322899 1.7370498 1.0064638 3.3191726 2.543 4.13.4574912.2274727.669934.7632291.4926506 1.2424083-.1772834.4791791-.6872709.7476557-1.1826506.6225917-.7259879-.1853568-1.4956605-.0798632-2.145.294-.4599661.455092-.6855688 1.096143-.612 1.739-.0000412.288083-.1243204.5621533-.341.752l-8 7c-.1823362.1598262-.4165316.2479604-.659.248z" fill="#c81e1e"/><g fill="#000"><path id="Shape" d="m21.11 53.914c2.28 1.824 4.706 3.765 7.255 5.859.3690019.3033172.9009981.3033172 1.27 0 2.549-2.094 4.975-4.035 7.255-5.859 12.71-10.169 21.11-16.887 21.11-26.514 0-8.778-6.449-15.4-15-15.4-1.0062663.000588-2.0103967.0926333-3 .275v-.275c-.002145-.7113268-.3832487-1.3675874-1-1.722v-.278c0-5.5228475-4.4771525-10-10-10s-10 4.4771525-10 10v.278c-.6167513.3544126-.997855 1.0106732-1 1.722v.275c-.9896033-.1823667-1.9937337-.274412-3-.275-8.551 0-15 6.622-15 15.4 0 9.627 8.4 16.345 21.11 26.514zm12.89-39.199v-2.715h4v.775c-1.4172356.4570749-2.7636026 1.1100629-4 1.94zm-9-4.437v-.278c0-2.209139 1.790861-4 4-4s4 1.790861 4 4v.278c-.6167513.3544126-.997855 1.0106732-1 1.722v4.27c-1.1318922 1.0209006-2.1389043 2.1722512-3 3.43-.861222-1.2570478-1.8682295-2.4077217-3-3.428v-4.272c-.002145-.7113268-.3832487-1.3675874-1-1.722zm4-8.278c4.4162219.00495988 7.9950401 3.58377808 8 8h-2c0-3.3137085-2.6862915-6-6-6s-6 2.6862915-6 6h-2c.0049599-4.41622192 3.5837781-7.99504012 8-8zm-9 10h4v2.715c-1.2363974-.8299371-2.5827644-1.4829251-4-1.94zm-5 2c8.941 0 12.94 7.743 13.106 8.073.1882005.3143219.5276427.5067169.894.5067169s.7057995-.192395.894-.5067169c.166-.33 4.165-8.073 13.106-8.073 7.411 0 13 5.762 13 13.4 0 8.661-8.1 15.14-20.359 24.948-2.1 1.677-4.316 3.453-6.641 5.355-2.325-1.9-4.544-3.678-6.641-5.355-12.259-9.804-20.359-16.283-20.359-24.948 0-7.638 5.589-13.4 13-13.4z"/><path id="Shape" d="m26.5 40.068-1.424 3.56c-.1232068.3074232-.0862125.6559054.0987922.9306093s.4940175.43999.8252078.4413907h6c.3318988-.0000772.6421338-.1648221.8280837-.4397393.1859498-.2749172.2233827-.6241814.0999163-.9322607l-1.389-3.547c.9194572-.7531871 1.4551519-1.877156 1.4611468-3.0657083.005995-1.1885522-.5183342-2.3178678-1.4301468-3.0802917-1.1008929-.9237829-2.6127386-1.1859862-3.9604096-.6868641s-2.3240049 1.6828451-2.5575904 3.1008641c-.2396165 1.4117904.3168223 2.840931 1.448 3.719zm.532-3.4c.145786-.821881.7811667-1.4699694 1.6-1.632.8927755-.1628366 1.7832886.2958385 2.1691134 1.1172416s.1702434 1.7996266-.5251134 2.3827584c-.6835671.5413553-.935594 1.4643733-.622 2.278l.869 2.186h-3.046l.875-2.188c.3145228-.8127582.0627252-1.7356108-.621-2.276-.5536222-.451997-.8223413-1.1661637-.704-1.871z"/></g></g></g></svg>