<svg height="512pt" viewBox="0 -14 512.00086 512" width="512pt" xmlns="http://www.w3.org/2000/svg"><path d="m408.710938 237.515625-74.929688 74.933594 104.800781 104.804687 57.816407-57.820312c10.824218-10.824219 10.824218-28.375 0-39.203125-10.824219-10.824219-28.375-10.824219-39.199219 0l-3.609375 3.609375c-7.289063 7.292968-19.109375 7.292968-26.398438 0-7.292968-7.289063-7.292968-19.109375 0-26.398438l20.722656-20.722656c10.824219-10.828125 10.824219-28.378906 0-39.203125-10.828124-10.828125-28.378906-10.828125-39.203124 0zm0 0" fill="#eedb00"/><path d="m265.617188 192.890625-72.722657 72.726563c-42.347656 42.347656-111.246093 42.347656-153.59375-.003907-42.347656-42.347656-42.347656-111.25 0-153.597656l72.722657-72.726563c42.34375-42.347656 111.246093-42.347656 153.59375 0 42.34375 42.347657 42.34375 111.253907 0 153.601563zm-188.207032-42.765625c-21.332031 21.332031-21.332031 56.046875 0 77.378906 21.332032 21.332032 56.042969 21.332032 77.375 0l72.722656-72.726562c21.332032-21.332032 21.332032-56.046875 0-77.378906-21.332031-21.335938-56.042968-21.335938-77.375 0zm0 0" fill="#f4e74d"/><path d="m94.703125 131.765625c0 20.984375-17.007813 37.992187-37.992187 37.992187-20.980469 0-37.992188-17.007812-37.992188-37.992187s17.011719-37.992187 37.992188-37.992187c20.984374 0 37.992187 17.007812 37.992187 37.992187zm0 0" fill="#00ce8e"/><path d="m169.769531 56.699219c0 20.984375-17.011719 37.992187-37.996093 37.992187-20.980469 0-37.992188-17.007812-37.992188-37.992187s17.011719-37.992188 37.992188-37.992188c20.984374 0 37.996093 17.007813 37.996093 37.992188zm0 0" fill="#00ce8e"/><path d="m467.105469 466.183594c-13.984375 13.984375-36.652344 13.984375-50.636719 0l-225.300781-225.3125 50.632812-50.636719 225.304688 225.3125c13.980469 13.980469 13.980469 36.652344 0 50.636719zm0 0" fill="#f9ee80"/><path d="m259.140625 308.84375c4.054687-8.160156 10.574219-18.222656 21.027344-28.675781 10.988281-10.988281 13.597656-25.597657 13.085937-38.480469l-51.453125-51.453125-50.632812 50.636719zm0 0" fill="#eedb00"/><path d="m120.296875 58.695312c-21.816406-21.816406-53.292969-25.71875-70.304687-8.707031-17.007813 17.007813-13.109376 48.484375 8.710937 70.304688 21.820313 21.820312 53.296875 25.71875 70.304687 8.710937 17.011719-17.011718 13.109376-48.488281-8.710937-70.308594zm0 0" fill="#fcf5af"/><path d="m107.796875 107.785156c-6.628906 6.632813-22.113281-2.941406-27.878906-8.707031-5.765625-5.769531-16.605469-19.984375-8.710938-27.882813 7.894531-7.894531 22.113281 2.945313 27.878907 8.710938 5.769531 5.765625 15.339843 21.25 8.710937 27.878906zm0 0" fill="#ff8a98"/><path d="m226.8125 254.238281h-36.300781c-15.148438 0-27.429688-12.277343-27.429688-27.425781v-36.308594c0-15.148437 12.28125-27.429687 27.429688-27.429687h36.300781c15.148438 0 27.429688 12.28125 27.429688 27.429687v36.308594c0 15.148438-12.28125 27.425781-27.429688 27.425781zm0 0" fill="#fcf5af"/><path d="m193.078125 214.585938v-11.859376c0-5.332031 4.324219-9.652343 9.652344-9.652343h11.859375c5.332031 0 9.652344 4.320312 9.652344 9.652343v11.859376c0 5.332031-4.320313 9.652343-9.652344 9.652343h-11.859375c-5.328125 0-9.652344-4.320312-9.652344-9.652343zm0 0" fill="#ff8a98"/><path d="m113.101562 113.089844c2.988282-2.988282 7.210938-9.886719 1.898438-22.480469-2.902344-6.886719-7.53125-12.925781-10.609375-16.007813-1.699219-1.699218-7.824219-7.511718-15.285156-10.976562-12.4375-5.777344-19.875-1.058594-23.199219 2.265625-3.328125 3.328125-8.042969 10.765625-2.269531 23.203125 3.46875 7.464844 9.28125 13.585938 10.976562 15.285156 3.082031 3.082032 9.121094 7.707032 16.007813 10.609375 12.59375 5.3125 19.488281 1.089844 22.480468-1.898437zm-36.589843-36.589844c2.160156-2.160156 10.714843 2.152344 17.273437 8.710938 5.605469 5.605468 9.5625 14.992187 8.695313 17.257812-2.265625.867188-11.652344-3.089844-17.257813-8.695312-6.558594-6.558594-10.871094-15.113282-8.710937-17.273438zm0 0"/><path d="m202.730469 185.574219c-9.457031 0-17.152344 7.695312-17.152344 17.152343v11.859376c0 4.582031 1.785156 8.890624 5.027344 12.128906 3.238281 3.238281 7.546875 5.023437 12.125 5.023437h11.863281c4.726562 0 9.015625-1.921875 12.121094-5.027343 3.105468-3.105469 5.03125-7.394532 5.03125-12.125v-11.859376c0-4.582031-1.785156-8.886718-5.023438-12.128906-3.242187-3.238281-7.546875-5.023437-12.128906-5.023437zm14.011719 17.152343v11.859376c.003906 1.1875-.964844 2.152343-2.148438 2.15625l-11.863281-.003907c-.734375 0-1.234375-.339843-1.523438-.628906-.285156-.289063-.628906-.785156-.628906-1.523437v-11.859376c0-1.1875.964844-2.152343 2.152344-2.152343h11.859375c.738281 0 1.234375.34375 1.523437.628906.289063.289063.632813.785156.628907 1.523437zm0 0"/><path d="m403.410156 232.210938-54.511718 54.515624-83.253907-83.257812 5.277344-5.277344c45.269531-45.273437 45.269531-118.933594-.003906-164.207031-2.925781-2.929687-7.675781-2.929687-10.605469 0-2.925781 2.925781-2.925781 7.675781 0 10.605469 39.023438 39.023437 39.414062 102.269531 1.179688 141.785156-.90625-7.765625-4.367188-14.957031-9.976563-20.570312-4.40625-4.402344-9.78125-7.480469-15.640625-9.042969 21.128906-24.414063 20.121094-61.484375-3.0625-84.667969-14.636719-14.636719-35.59375-20.863281-55.585938-17.101562-.542968-13.859376-7.433593-27.015626-18.96875-35.273438 25.886719-8.191406 54.273438-5.714844 78.546876 7.355469 2.984374 1.609375 6.578124.984375 8.859374-1.296875.503907-.503906.945313-1.089844 1.300782-1.75 1.964844-3.648438.597656-8.195313-3.050782-10.160156-32.851562-17.691407-72.269531-18.480469-105.800781-2.226563-7.820312-1.113281-15.832031-.167969-23.355469 2.867187-9.554687 3.855469-17.339843 10.671876-22.386718 19.472657-17.761719-4.625-35.691406-1.285157-47.675782 10.699219-11.988281 11.988281-15.328124 29.917968-10.703124 47.683593-16.203126 9.324219-24.851563 27.621094-22.324219 45.714844-21.597657 44.539063-12.675781 97.832031 22.332031 132.839844 45.269531 45.273437 118.929688 45.273437 164.199219.003906l6.207031-6.207031 95.0625 95.066406c2.925781 2.929688 7.675781 2.929688 10.605469 0 2.925781-2.929688 2.925781-7.679688 0-10.609375l-87.429688-87.429687s18.191407.425781 28.859375-10.242188c10.664063-10.667969 10.242188-30.71875 10.242188-30.71875l200.058594 200.070312c11.03125 11.035157 11.035156 28.992188 0 40.027344-11.039063 11.039063-28.996094 11.039063-40.03125 0l-90.605469-90.609375c-2.929688-2.929687-7.675781-2.929687-10.605469 0-2.929688 2.929688-2.929688 7.675781 0 10.605469l90.605469 90.613281c16.886719 16.882813 44.355469 16.882813 61.242187 0 16.882813-16.886719 16.882813-44.359375 0-61.246093l-8.105468-8.101563 37.398437-37.402344c13.730469-13.730469 13.730469-36.078125 0-49.808593-26.277344-26.277344-53.417969 3.609374-53.417969 3.609374-4.351562 4.351563-11.4375 4.351563-15.792968 0-4.351563-4.355468-4.351563-11.441406 0-15.796874l20.726562-20.722657c13.730469-13.730469 13.730469-36.078125 0-49.808593-13.734375-13.734376-36.078125-13.734376-49.808594 0zm-181.207031-149.511719c32.953125 32.953125-6.097656 72.875-6.097656 72.875h-25.59375c-9.332031 0-18.101563 3.632812-24.699219 10.230469-6.597656 6.597656-10.230469 15.371093-10.230469 24.699218v25.597656s-38.332031 40.636719-72.867187 6.097657c-12.445313-12.445313-16.839844-30.597657-11.738282-47.238281 16.613282-4.539063 26.34375-21.574219 28.617188-28.007813 13.210938.519531 25.660156-3.589844 34.71875-12.648437 9.058594-9.058594 13.167969-21.511719 12.648438-34.71875 6.433593-2.277344 23.773437-12.3125 27.996093-28.617188 16.621094-5.074219 34.898438-.613281 47.246094 11.730469zm-78.496094-54.0625c15.472657 6.578125 22.707031 24.519531 16.128907 39.996093-3.019532 7.097657-8.558594 12.683594-15.421876 15.808594-3.269531-10.992187-9.589843-21.828125-18.8125-31.050781-5.808593-5.8125-12.265624-10.457031-18.992187-13.925781 11.460937-15.136719 29.601563-14.015625 37.097656-10.828125zm-88.40625 26.648437c14.054688-14.058594 40.835938-10.148437 59.695313 8.710938s22.769531 45.644531 8.710937 59.699218c-14.058593 14.058594-40.835937 10.152344-59.699219-8.707031-18.859374-18.863281-22.765624-45.644531-8.707031-59.703125zm-15.816406 51.324219c3.46875 6.726563 8.113281 13.175781 13.917969 18.984375 9.222656 9.222656 20.058594 15.542969 31.054687 18.8125-3.097656 6.808594-8.964843 11.625-15.648437 15.351562-10.503906 5.859376-30.765625 4.167969-40.085938-15.894531-6.246094-13.4375-1.035156-29.179687 10.761719-37.253906zm5.121094 153.703125c-26.984375-26.984375-36.167969-66.445312-24.878907-102.050781 14.730469 18.539062 30.167969 18.789062 35.253907 18.984375-3.789063 19.984375 2.378906 40.8125 17.128906 55.5625 11.734375 11.734375 27.355469 18.195312 43.988281 18.195312 15.121094 0 29.394532-5.351562 40.683594-15.136718 3.652344 13.59375 15.320312 23.933593 29.605469 25.621093-39.515625 38.238281-102.761719 37.847657-141.78125-1.175781zm202.136719-33.503906c0 10.992187-8.9375 19.933594-19.929688 19.929687h-36.304688c-5.320312 0-10.324218-2.070312-14.089843-5.835937-3.765625-3.761719-5.839844-8.769532-5.835938-14.089844v-36.308594c0-5.324218 2.070313-10.328125 5.835938-14.09375 3.765625-3.761718 8.769531-5.835937 14.09375-5.835937h36.304687c5.320313 0 10.324219 2.074219 14.089844 5.835937 3.765625 3.765625 5.835938 8.773438 5.835938 14.09375zm195.867187 44.605468-20.722656 20.722657c-10.203125 10.203125-10.203125 26.804687 0 37.007812 10.199219 10.203125 26.800781 10.203125 37.003906 0 0 0 16.933594-18.878906 32.203125-3.609375 7.882812 7.886719 7.882812 20.714844 0 28.597656l-37.398438 37.398438-94.195312-94.199219 54.515625-54.515625c7.882813-7.882812 20.710937-7.882812 28.59375 0 7.882813 7.882813 7.882813 20.710938 0 28.597656zm0 0"/></svg>