<?xml version="1.0" encoding="iso-8859-1"?>
<!-- Generator: Adobe Illustrator 19.0.0, SVG Export Plug-In . SVG Version: 6.00 Build 0)  -->
<svg version="1.1" id="Capa_1" xmlns="http://www.w3.org/2000/svg" xmlns:xlink="http://www.w3.org/1999/xlink" x="0px" y="0px"
	 viewBox="0 0 512 512" style="enable-background:new 0 0 512 512;" xml:space="preserve">
<path style="fill:#EC5569;" d="M327.088,141.084l-15.014-15.014c-31.198-31.188-81.768-31.188-112.966,0
	c-15.594,15.604-23.391,36.036-23.391,56.488c0,20.432,7.797,40.884,23.391,56.478l8.797,8.797l121.513,121.512
	c4.208,4.198,11.016,4.198,15.224,0l100.051-100.071l30.518-30.518c31.188-31.198,31.188-81.768,0-112.966
	c-31.198-31.188-81.768-31.188-112.966,0l-17.623,17.623c-4.198,4.198-11.006,4.198-15.214,0l-2.319-2.319"/>
<g>
	<path style="fill:#E63950;" d="M319.911,173.461c-5.248,13.795-13.055,26.32-22.861,37.006
		c-10.186,11.106-22.521,20.222-36.356,26.67c-14.804,6.907-31.318,10.766-48.741,10.766c-1.359,0-2.699-0.02-4.048-0.07
		l-8.797-8.797c-15.594-15.594-23.391-36.046-23.391-56.478c0-20.452,7.797-40.884,23.391-56.488
		c31.198-31.188,81.768-31.188,112.966,0l15.014,15.014v0.01C326.248,152.419,323.779,163.285,319.911,173.461z"/>
	<path style="fill:#E63950;" d="M237.895,247.832l-8.797-8.797c-15.594-15.594-23.391-36.046-23.391-56.478
		c0-20.452,7.797-40.884,23.391-56.488c11.766-11.762,26.289-19.083,41.488-21.972c-25.1-4.773-52.047,2.548-71.478,21.972
		c-15.594,15.604-23.391,36.036-23.391,56.488c0,20.432,7.797,40.884,23.391,56.478l8.797,8.797l121.513,121.512
		c4.208,4.198,11.016,4.198,15.224,0l7.382-7.384L237.895,247.832z"/>
</g>
<path style="fill:#CC2E43;" d="M235.542,245.479l-6.443-6.443c-15.594-15.594-23.391-36.046-23.391-56.478
	c0-20.452,7.797-40.884,23.391-56.488c11.766-11.762,26.289-19.083,41.488-21.972c-0.001,0-0.003,0-0.004-0.001
	c-0.97-0.185-1.943-0.344-2.918-0.493c-0.408-0.062-0.816-0.121-1.224-0.177c-0.962-0.131-1.924-0.25-2.889-0.346
	c-0.349-0.035-0.699-0.06-1.049-0.09c-0.783-0.068-1.567-0.124-2.351-0.169c-0.387-0.022-0.773-0.046-1.16-0.063
	c-0.987-0.042-1.974-0.065-2.962-0.071c-0.381-0.002-0.761,0.003-1.142,0.006c-0.819,0.007-1.637,0.026-2.456,0.059
	c-0.312,0.012-0.623,0.019-0.935,0.035c-0.996,0.051-1.99,0.126-2.984,0.214c-0.373,0.033-0.745,0.068-1.117,0.106
	c-1.016,0.104-2.03,0.222-3.043,0.365c-0.281,0.04-0.561,0.088-0.842,0.131c-0.854,0.13-1.705,0.274-2.556,0.432
	c-0.319,0.059-0.638,0.115-0.956,0.178c-1.019,0.202-2.033,0.424-3.044,0.666c-0.315,0.075-0.628,0.156-0.943,0.235
	c-0.92,0.231-1.836,0.477-2.748,0.742c-0.177,0.052-0.356,0.097-0.533,0.15c-1.037,0.309-2.067,0.646-3.093,0.998
	c-0.294,0.1-0.587,0.202-0.88,0.306c-1.022,0.364-2.039,0.744-3.049,1.151c-0.204,0.082-0.406,0.171-0.61,0.255
	c-0.903,0.372-1.799,0.762-2.691,1.169c-0.226,0.103-0.453,0.203-0.678,0.308c-1.003,0.469-1.996,0.962-2.983,1.474
	c-0.24,0.125-0.479,0.254-0.719,0.381c-0.968,0.516-1.929,1.048-2.88,1.605c-0.062,0.036-0.125,0.07-0.187,0.107
	c-0.997,0.59-1.979,1.211-2.955,1.846c-0.222,0.145-0.444,0.289-0.665,0.436c-0.958,0.639-1.907,1.296-2.843,1.981
	c-0.153,0.112-0.304,0.229-0.457,0.342c-0.859,0.637-1.706,1.294-2.544,1.97c-0.158,0.127-0.318,0.251-0.475,0.38
	c-0.909,0.744-1.802,1.514-2.685,2.304c-0.191,0.172-0.381,0.346-0.571,0.52c-0.901,0.823-1.792,1.66-2.664,2.532
	c-1.949,1.95-3.777,3.976-5.482,6.069c-1.705,2.092-3.29,4.25-4.751,6.464c-2.193,3.322-4.111,6.771-5.757,10.317
	c-2.741,5.909-4.721,12.083-5.939,18.378c-0.975,5.035-1.462,10.147-1.462,15.26c0,5.108,0.487,10.217,1.462,15.252
	c1.949,10.069,5.848,19.837,11.695,28.697c1.461,2.215,3.046,4.372,4.751,6.464c0.853,1.046,1.736,2.075,2.65,3.087
	c0.914,1.012,1.858,2.005,2.833,2.98l8.797,8.797c1.349,0.05,2.689,0.07,4.048,0.07C220.04,247.902,227.927,247.06,235.542,245.479z
	"/>
<path style="fill:#B5D3E3;" d="M29.206,249.074l59.592-123l33.871-111.179L9.213,249.074c-5.538,10.676-0.63,23.801,10.546,28.229
	l0.01,0.01c2.489,0.97,5.008,1.429,7.467,1.429c3.542,0,6.977-0.947,9.996-2.65C27.872,270.814,24.105,258.909,29.206,249.074z"/>
<path d="M396.652,483.535c-44.306,7.804-103.638,8.889-176.349,3.225c-40.404-3.149-68.507-13.563-81.268-30.115
	c-5.494-7.127-8.119-15.343-7.862-24.492c9.249,1.228,18.253,1.835,26.827,1.835c28.9,0,52.954-6.81,65.4-19.328
	c7.734-7.778,10.84-17.503,8.983-28.124c-4.189-23.97-17.836-37.75-37.442-37.809c-0.042,0-0.082,0-0.124,0
	c-15.2,0-32.778,8.345-48.248,22.91c-13.351,12.57-23.136,28-27.627,43.267C65.843,404.029,9.957,370.143,18.193,307.425
	c0.54-4.105-2.352-7.871-6.456-8.41c-4.11-0.54-7.871,2.352-8.41,6.456c-4.485,34.157,7.085,64.406,33.461,87.477
	c19.93,17.434,47.959,30.337,79.505,36.716c-0.825,13.373,2.861,25.748,10.868,36.134c15.642,20.29,46.588,32.372,91.978,35.91
	c30.881,2.405,59.424,3.607,85.522,3.607c36.415,0,68.061-2.34,94.593-7.013c4.078-0.718,6.801-4.606,6.083-8.684
	C404.617,485.54,400.727,482.814,396.652,483.535z M194.804,363.72c0.029,0,0.063,0,0.092,0
	c12.135,0.036,19.778,8.581,22.716,25.396c1.011,5.778-0.575,10.675-4.846,14.97c-12.462,12.534-44.159,17.722-78.855,13.303
	C142.488,392.128,170.56,363.72,194.804,363.72z"/>
<path d="M499.32,346.568c-9.257-22.491-23.78-47.783-44.306-77.163l26.058-26.062c16.116-16.121,25.198-37.547,25.574-60.332
	c0.375-22.73-7.939-44.391-23.411-60.993c-2.823-3.03-7.567-3.196-10.596-0.374c-3.029,2.823-3.196,7.567-0.374,10.596
	c12.813,13.75,19.699,31.693,19.388,50.522c-0.312,18.876-7.836,36.626-21.185,49.979l-24.277,24.281
	c-4-5.513-7.791-10.619-10.956-14.845l6.375-10.8c2.104-3.567,0.919-8.163-2.647-10.267s-8.164-0.919-10.267,2.647l-3.235,5.484
	c-1.299-1.709-2.586-3.399-3.842-5.048c-1.44-1.89-2.838-3.728-4.21-5.534l6.736-11.412c2.105-3.566,0.922-8.163-2.644-10.267
	c-3.565-2.105-8.162-0.922-10.267,2.644l-3.567,6.041c-4.333-5.904-8.264-11.503-10.938-15.961
	c-2.128-3.551-6.733-4.704-10.285-2.573c-3.551,2.129-4.703,6.734-2.573,10.285c3.114,5.193,7.623,11.58,12.506,18.204l-8.115,2.829
	c-3.909,1.362-5.975,5.637-4.611,9.547c1.079,3.093,3.978,5.031,7.079,5.031c0.819,0,1.651-0.135,2.468-0.42l12.63-4.402
	c1.26,1.657,2.546,3.347,3.862,5.074c1.552,2.038,3.145,4.129,4.763,6.259l-8.728,3.042c-3.91,1.362-5.975,5.637-4.612,9.546
	c1.079,3.094,3.977,5.032,7.079,5.032c0.819,0,1.651-0.135,2.468-0.42l13.279-4.628c3.358,4.491,7.351,9.885,11.514,15.651
	l-95.55,95.564c-1.278,1.275-3.357,1.274-4.627,0.006l-109.36-109.359c10.905-1.175,21.51-3.798,31.706-7.832
	c1.247,2.936,2.328,5.996,3.189,9.183c0.903,3.343,3.928,5.545,7.233,5.545c0.647,0,1.304-0.084,1.958-0.261
	c3.997-1.08,6.362-5.195,5.284-9.192c-1.088-4.029-2.447-7.921-4.054-11.639c9.725-5.286,18.641-11.831,26.629-19.552
	c1.891,1.949,3.705,4.032,5.412,6.26c1.476,1.925,3.704,2.937,5.956,2.937c1.591,0,3.196-0.505,4.556-1.547
	c3.286-2.519,3.907-7.225,1.388-10.511c-2.241-2.924-4.637-5.663-7.155-8.204c6.6-8.12,12.097-16.983,16.421-26.482
	c3.102,1.551,6.151,3.345,9.114,5.376c1.296,0.889,2.771,1.313,4.231,1.313c2.389,0,4.738-1.14,6.191-3.259
	c2.341-3.416,1.47-8.081-1.945-10.422c-3.95-2.708-8.042-5.07-12.215-7.071c1.616-5.146,2.891-10.395,3.815-15.719
	c1.299,0.286,2.621,0.445,3.945,0.445c4.674,0,9.349-1.778,12.904-5.334l17.622-17.622c21.644-21.637,54.735-27.331,82.345-14.17
	c3.737,1.781,8.212,0.196,9.993-3.542c1.782-3.738,0.196-8.212-3.542-9.993c-33.328-15.888-73.272-9.015-99.398,17.101
	l-17.623,17.623c-1.271,1.27-3.342,1.268-4.611,0l-2.228-2.227c-0.032-0.033-0.059-0.069-0.092-0.102l-15.015-15.015
	c-34.067-34.057-89.498-34.057-123.569,0.003c-16.499,16.51-25.585,38.452-25.585,61.788c0,23.339,9.086,45.279,25.587,61.779
	L324.68,373.943c3.559,3.55,8.23,5.325,12.905,5.325c4.676,0,9.354-1.777,12.916-5.331l93.747-93.761
	c29.908,43.023,64.191,101.783,49.18,145.048c-8.154,23.499-30.942,40.876-67.732,51.647c-3.973,1.164-6.252,5.328-5.088,9.301
	c0.958,3.271,3.947,5.393,7.191,5.393c0.698,0,1.406-0.098,2.11-0.304c41.713-12.212,67.848-32.777,77.684-61.122
	C515.523,407.286,512.74,379.17,499.32,346.568z M183.774,181.846c0-19.331,7.528-37.51,21.194-51.186
	c28.223-28.213,74.144-28.213,102.364-0.001l12.528,12.528c-0.723,6.851-2.093,13.594-4.095,20.146
	c-4.81-1.335-9.761-2.261-14.801-2.744c-4.13-0.4-7.783,2.626-8.179,6.747c-0.395,4.122,2.626,7.783,6.747,8.179
	c3.671,0.352,7.279,0.989,10.802,1.888c-3.698,7.915-8.327,15.322-13.846,22.137c-4.119-2.816-8.512-5.257-13.139-7.272
	c-3.795-1.655-8.214,0.082-9.867,3.878c-1.654,3.796,0.083,8.214,3.878,9.867c3.054,1.33,5.979,2.891,8.762,4.65
	c-6.69,6.256-14.087,11.598-22.118,15.958c-2.558-3.758-5.44-7.304-8.625-10.589c-2.883-2.972-7.63-3.045-10.601-0.163
	c-2.973,2.883-3.045,7.629-0.163,10.601c1.985,2.046,3.827,4.216,5.514,6.492c-11.986,4.469-24.602,6.731-37.616,6.731
	c-0.306,0-0.586-0.005-0.881-0.007l-6.663-6.663C191.302,219.355,183.774,201.18,183.774,181.846z"/>
<path d="M17.249,283.437c0.118,0.053,0.238,0.104,0.359,0.151c3.307,1.288,6.734,1.94,10.188,1.94
	c12.353,0,23.34-8.284,26.744-20.152L130.4,16.368c1.142-3.745-0.792-7.737-4.436-9.165c-3.646-1.427-7.776,0.189-9.482,3.712
	L3.067,245.01c-3.567,6.944-4.046,15.114-1.312,22.432C4.462,274.691,10.099,280.505,17.249,283.437z M16.427,251.815
	c0.031-0.061,0.062-0.122,0.092-0.184l71.482-147.542L40.176,261.073c-0.014,0.046-0.028,0.092-0.041,0.138
	c-1.558,5.49-6.632,9.324-12.34,9.324c-1.51,0-3.033-0.281-4.527-0.835c-0.063-0.027-0.125-0.053-0.188-0.078
	c-3.411-1.351-5.996-3.988-7.28-7.427C14.516,258.757,14.739,255.071,16.427,251.815z"/>
<g>
</g>
<g>
</g>
<g>
</g>
<g>
</g>
<g>
</g>
<g>
</g>
<g>
</g>
<g>
</g>
<g>
</g>
<g>
</g>
<g>
</g>
<g>
</g>
<g>
</g>
<g>
</g>
<g>
</g>
</svg>
