<svg height="511pt" viewBox="0 1 511 511.999" width="511pt" xmlns="http://www.w3.org/2000/svg"><path d="m146.253906 417.6875v-83.179688c0-8.429687 2.664063-16.644531 7.613282-23.472656l19.867187-27.417968c4.945313-6.828126 7.609375-15.042969 7.609375-23.472657v-102.476562h-113.691406v260.019531zm0 0" fill="#fecaa8"/><path d="m162.394531 120.554688c-10.464843 0-18.949219 8.484374-18.949219 18.949218v-20.152344c0-10.464843-8.484374-18.949218-18.949218-18.949218s-18.949219 8.484375-18.949219 18.949218v-23.179687c0-10.464844-8.480469-18.949219-18.949219-18.949219-10.464844 0-18.945312 8.484375-18.945312 18.949219v22.546875c0-10.464844-8.484375-18.949219-18.949219-18.949219s-18.949219 8.484375-18.949219 18.949219v140.359375h37.894532v-29.5625h27.894531c31.054687 0 61.230469 10.300781 85.800781 29.292969v-119.304688c0-10.464844-8.484375-18.949218-18.949219-18.949218zm0 0" fill="#fecaa8"/><path d="m48 222.585938v-36.847657c0-11.042969-8.953125-20-20-20s-20 8.957031-20 20v74.40625c0 8.429688 2.664062 16.644531 7.609375 23.472657l19.871094 27.417968c4.945312 6.828125 7.609375 15.042969 7.609375 23.476563v83.175781h44.917968v-155.101562c-.003906-22.089844-17.914062-40-40.007812-40zm0 0" fill="#ffdfc7"/><path d="m365.679688 94.941406v83.175782c0 8.433593-2.664063 16.648437-7.609376 23.476562l-19.867187 27.417969c-4.949219 6.828125-7.613281 15.042969-7.613281 23.472656v102.476563h113.691406v-260.019532zm0 0" fill="#c87c5b"/><path d="m349.539062 392.074219c10.464844 0 18.949219-8.484375 18.949219-18.949219v20.152344c0 10.464844 8.484375 18.949218 18.949219 18.949218s18.949219-8.484374 18.949219-18.949218v23.179687c0 10.464844 8.484375 18.949219 18.949219 18.949219 10.464843 0 18.949218-8.484375 18.949218-18.949219v-22.546875c0 10.464844 8.484375 18.949219 18.949219 18.949219s18.949219-8.484375 18.949219-18.949219v-140.359375h-37.898438v29.5625h-27.894531c-31.054687 0-61.230469-10.304687-85.796875-29.296875v119.308594c-.003906 10.464844 8.480469 18.949219 18.945312 18.949219zm0 0" fill="#c87c5b"/><path d="m463.933594 290.042969v36.84375c0 11.046875 8.953125 20.003906 20 20.003906s20-8.957031 20-20.003906v-74.402344c0-8.433594-2.660156-16.648437-7.609375-23.472656l-19.867188-27.421875c-4.949219-6.824219-7.613281-15.039063-7.613281-23.472656v-83.175782h-44.914062v155.097656c0 22.09375 17.910156 40.003907 40.003906 40.003907zm0 0" fill="#e78e6f"/><path d="m417.261719 77.222656c5.71875 0 10.355469 4.636719 10.355469 10.351563v27.019531c0 5.71875-4.636719 10.351562-10.355469 10.351562-5.714844 0-10.351563-4.632812-10.351563-10.351562v-27.019531c.003906-5.71875 4.636719-10.351563 10.351563-10.351563zm0 0" fill="#d9efec"/><path d="m94.671875 435.40625c-5.71875 0-10.351563-4.636719-10.351563-10.351562v-27.019532c0-5.71875 4.632813-10.351562 10.351563-10.351562 5.714844 0 10.351563 4.632812 10.351563 10.351562v27.019532c0 5.714843-4.636719 10.351562-10.351563 10.351562zm0 0" fill="#d9efec"/><path d="m373.011719 205.644531c0-34.667969-28.105469-62.773437-62.769531-62.773437-23.175782 0-43.402344 12.570312-54.277344 31.25-10.875-18.679688-31.101563-31.25-54.273438-31.25-34.667968 0-62.773437 28.105468-62.773437 62.773437 0 87.839844 117.046875 163.480469 117.046875 163.480469s117.046875-75.640625 117.046875-163.480469zm0 0" fill="#f55"/><path d="m373.015625 205.648438c0 87.839843-117.054687 163.480468-117.054687 163.480468s-11.992188-7.75-28.296876-21.164062c18.6875-12.84375 113.878907-82.132813 113.878907-161.351563 0-16.089843-6.046875-30.769531-16.003907-41.867187 27.277344 6.832031 47.476563 31.496094 47.476563 60.902344zm0 0" fill="#f72b2b"/><path d="m72.390625 346.441406h44.5625v24.875h-44.5625zm0 0" fill="#d9efec"/><path d="m394.984375 143.3125h44.5625v24.875h-44.5625zm0 0" fill="#d9efec"/><path d="m21.683594 279.214844c-4.046875-5.582032-6.183594-12.175782-6.183594-19.070313v-74.40625c0-6.890625 5.605469-12.5 12.5-12.5 6.890625 0 12.5 5.609375 12.5 12.5v36.847657c0 4.140624 3.359375 7.5 7.5 7.5 17.921875 0 32.503906 14.578124 32.503906 32.503906v42.105468c0 4.144532 3.359375 7.5 7.5 7.5s7.5-3.355468 7.5-7.5v-42.105468c0-23.644532-17.363281-43.308594-40.003906-46.914063v-29.9375c0-11.917969-7.621094-22.085937-18.246094-25.894531v-41.125c0-6.316406 5.136719-11.449219 11.449219-11.449219s11.449219 5.132813 11.449219 11.449219v70.0625c0 4.144531 3.355468 7.5 7.5 7.5 4.140625 0 7.5-3.355469 7.5-7.5v-92.609375c0-6.3125 5.136718-11.449219 11.449218-11.449219s11.449219 5.136719 11.449219 11.449219v92.609375c0 4.144531 3.355469 7.5 7.5 7.5 4.140625 0 7.5-3.355469 7.5-7.5v-69.429688c0-6.316406 5.132813-11.449218 11.449219-11.449218 6.3125 0 11.449219 5.132812 11.449219 11.449218v60.3125c0 .339844.027343.671876.074219 1-2.964844 7.765626-4.605469 16.183594-4.605469 24.976563 0 26.6875 9.941406 54.425781 29.59375 82.75l-13.21875 18.242187c-5.914063 8.160157-9.039063 17.796876-9.039063 27.875v83.175782c0 4.144531 3.359375 7.5 7.5 7.5 4.144532 0 7.5-3.355469 7.5-7.5v-83.175782c0-6.894531 2.136719-13.488281 6.183594-19.070312l10.449219-14.421875c3.226562 4.078125 6.636719 8.164063 10.253906 12.261719 1.484375 1.679687 3.546875 2.535156 5.625 2.535156 1.765625 0 3.535156-.621094 4.960937-1.878906 3.105469-2.746094 3.398438-7.484375.65625-10.585938-30.167968-34.144531-45.464843-67.015625-45.464843-97.707031 0-30.476563 24.796875-55.269531 55.273437-55.269531 19.597656 0 37.910156 10.546875 47.792969 27.523437 1.34375 2.308594 3.8125 3.726563 6.480469 3.726563 2.671875 0 5.140625-1.417969 6.484375-3.726563 9.878906-16.976562 28.191406-27.523437 47.792969-27.523437 30.476562 0 55.269531 24.792968 55.269531 55.269531 0 8.324219-1.167969 16.96875-3.472657 25.699219-1.054687 4.003906 1.332032 8.109375 5.339844 9.167968 4.003906 1.054688 8.105469-1.335937 9.164063-5.339843 2.632812-9.976563 3.96875-19.910157 3.96875-29.523438 0-11.25-2.671875-21.882812-7.390625-31.324219.035156-.300781.058594-.605468.058594-.921874v-78.457032c0-4.140625-3.355469-7.5-7.5-7.5-4.140626 0-7.5 3.359375-7.5 7.5v59.390625c-12.5625-11.746093-29.421876-18.960937-47.9375-18.960937-17.433594 0-34.054688 6.574218-46.773438 17.902344v-82.917969c0-30.523438 24.832031-55.355469 55.355469-55.355469h35.582031c30.523438 0 55.355469 24.832031 55.355469 55.355469v1.039062c-6.101563 2.84375-10.351563 9.015625-10.351563 16.179688v27.019531c0 7.160156 4.25 13.335938 10.351563 16.175781v5.042969h-14.777344c-4.144531 0-7.5 3.359375-7.5 7.5v24.875c0 4.140625 3.355469 7.5 7.5 7.5h44.5625c4.140625 0 7.5-3.359375 7.5-7.5v-24.875c0-4.140625-3.359375-7.5-7.5-7.5h-14.78125v-5.042969c6.101563-2.839843 10.351563-9.015625 10.351563-16.175781v-27.019531c0-7.164063-4.25-13.335938-10.351563-16.179688v-1.039062c-.003906-38.792969-31.5625-70.355469-70.359375-70.355469h-35.582031c-38.792969 0-70.355469 31.5625-70.355469 70.355469v82.921875c-12.71875-11.332032-29.34375-17.90625-46.777344-17.90625-4.445312 0-8.789062.433594-13.007812 1.226562-1.453125-13.222656-12.683594-23.542968-26.285156-23.542968-4.195313 0-8.164063.980468-11.691407 2.722656-1.75-12.898438-12.835937-22.875-26.207031-22.875-4.101562 0-7.988281.9375-11.457031 2.613281-.351563-14.28125-12.078125-25.792969-26.441407-25.792969-14.15625 0-25.75 11.175782-26.417968 25.167969-3.472656-1.679687-7.367188-2.621094-11.480469-2.621094-14.582031 0-26.449219 11.863281-26.449219 26.449219v40.128906c-12.414062 2.648438-21.753906 13.699219-21.753906 26.890625v74.40625c0 10.074219 3.125 19.714844 9.039062 27.875l19.867188 27.417969c4.046875 5.582031 6.183594 12.175781 6.183594 19.070312v83.179688c0 4.140625 3.359375 7.5 7.5 7.5 4.144531 0 7.5-3.359375 7.5-7.5v-83.179688c0-10.074218-3.125-19.710937-9.035156-27.871093zm410.359375-118.527344h-29.5625v-9.875h29.5625zm-11.925781-46.09375c0 1.570312-1.28125 2.851562-2.855469 2.851562-1.570313 0-2.851563-1.277343-2.851563-2.851562v-2.375h5.703125v2.375zm-5.703126-17.375v-9.644531c0-1.570313 1.277344-2.851563 2.851563-2.851563 1.570313 0 2.851563 1.277344 2.851563 2.851563v9.644531zm-252.019531 30.835938c6.3125 0 11.449219 5.136718 11.449219 11.449218v1.632813c-8.679688 3.761719-16.445312 9.230469-22.894531 15.96875v-17.601563c0-6.3125 5.132812-11.449218 11.445312-11.449218zm0 0"/><path d="m468.847656 131.398438c4.140625 0 7.5-3.355469 7.5-7.5v-28.957032c0-4.140625-3.359375-7.5-7.5-7.5-4.144531 0-7.5 3.359375-7.5 7.5v28.957032c0 4.144531 3.355469 7.5 7.5 7.5zm0 0"/><path d="m502.398438 224.609375-19.867188-27.417969c-4.046875-5.582031-6.183594-12.175781-6.183594-19.074218v-16.367188c0-4.140625-3.359375-7.5-7.5-7.5-4.144531 0-7.5 3.359375-7.5 7.5v16.367188c0 10.078124 3.125 19.71875 9.035156 27.875l19.871094 27.417968c4.042969 5.585938 6.183594 12.179688 6.183594 19.074219v74.40625c0 6.890625-5.609375 12.5-12.503906 12.5-6.890625 0-12.5-5.609375-12.5-12.5v-36.847656c0-4.140625-3.355469-7.5-7.5-7.5-17.921875 0-32.503906-14.578125-32.503906-32.503907v-42.105468c0-4.144532-3.355469-7.5-7.5-7.5-4.140626 0-7.5 3.355468-7.5 7.5v42.105468c0 23.644532 17.359374 43.308594 40.003906 46.914063v29.9375c0 11.917969 7.621094 22.085937 18.246094 25.894531v41.125c0 6.3125-5.136719 11.449219-11.445313 11.449219-6.316406 0-11.449219-5.136719-11.449219-11.449219v-70.066406c0-4.140625-3.359375-7.5-7.5-7.5-4.144531 0-7.5 3.359375-7.5 7.5v92.613281c0 6.3125-5.136718 11.449219-11.449218 11.449219s-11.449219-5.136719-11.449219-11.449219v-92.613281c0-4.140625-3.355469-7.5-7.5-7.5s-7.5 3.359375-7.5 7.5v69.433594c0 6.3125-5.136719 11.449218-11.449219 11.449218s-11.449219-5.136718-11.449219-11.449218v-89.082032c0-4.140624-3.355469-7.5-7.5-7.5-4.140625 0-7.5 3.359376-7.5 7.5v68.929688c0 6.3125-5.136719 11.449219-11.445312 11.449219-6.316407 0-11.449219-5.136719-11.449219-11.449219v-67.78125c8.675781-10.574219 16.820312-22.050781 23.613281-34.234375 2.019531-3.617187.722657-8.183594-2.894531-10.203125-3.621094-2.015625-8.1875-.722656-10.203125 2.898438-26.855469 48.136718-77.917969 85.980468-92.648437 96.253906-7.234376-5.035156-23.210938-16.691406-40.667969-32.847656-3.039063-2.816407-7.785157-2.632813-10.597657.40625-2.816406 3.039062-2.632812 7.785156.40625 10.601562 19.167969 17.742188 36.289063 30.046875 43.367188 34.90625v68.519531c0 30.523438-24.832031 55.355469-55.355469 55.355469h-34.894531c-30.523438 0-55.355469-24.832031-55.355469-55.355469v-.746093c5.730469-2.972657 9.660157-8.953126 9.660157-15.84375v-27.019532c0-6.890625-3.929688-12.871094-9.660157-15.84375v-3.375h14.089844c4.140625 0 7.5-3.359375 7.5-7.5v-24.875c0-4.144531-3.359375-7.5-7.5-7.5h-44.5625c-4.140625 0-7.5 3.355469-7.5 7.5v24.875c0 4.140625 3.359375 7.5 7.5 7.5h15.472656v2.722656c-6.472656 2.683594-11.042969 9.0625-11.042969 16.496094v27.019532c0 7.429687 4.570313 13.8125 11.042969 16.496093v.09375c0 38.792969 31.5625 70.355469 70.355469 70.355469h34.894531c38.792969 0 70.355469-31.5625 70.355469-70.355469v-68.515625c9.140625-6.257812 34.691406-24.652344 59.621094-50.859375v50.855469c0 14.582031 11.867187 26.449219 26.449218 26.449219 4.195313 0 8.164063-.980469 11.6875-2.726563 1.75 12.898438 12.835938 22.875 26.210938 22.875 4.101562 0 7.988281-.9375 11.457031-2.609375.351563 14.28125 12.074219 25.789063 26.441407 25.789063 14.152343 0 25.746093-11.175782 26.417968-25.167969 3.472656 1.679687 7.367188 2.625 11.476563 2.625 14.585937 0 26.449219-11.867187 26.449219-26.449219v-40.128906c12.414062-2.652344 21.753906-13.699219 21.753906-26.894531v-74.40625c.003906-10.074219-3.121094-19.710938-9.035156-27.871094zm-422.507813 129.332031h29.5625v9.875h-29.5625zm11.929687 44.09375c0-1.574218 1.277344-2.851562 2.851563-2.851562 1.570313 0 2.851563 1.277344 2.851563 2.851562v2.667969h-5.703126zm5.703126 17.667969v9.351563c0 1.570312-1.277344 2.851562-2.851563 2.851562s-2.851563-1.277344-2.851563-2.851562v-9.351563zm0 0"/></svg>