<?xml version="1.0" encoding="iso-8859-1"?>
<!-- Generator: Adobe Illustrator 19.0.0, SVG Export Plug-In . SVG Version: 6.00 Build 0)  -->
<svg version="1.1" id="Layer_1" xmlns="http://www.w3.org/2000/svg" xmlns:xlink="http://www.w3.org/1999/xlink" x="0px" y="0px"
	 viewBox="0 0 511.999 511.999" style="enable-background:new 0 0 511.999 511.999;" xml:space="preserve">
<path style="fill:#ECF1F8;" d="M312.684,314.919c-30.734,16.764-56.588,30.866-56.588,30.866L98.974,260.086V25.632
	c0-9.135,7.404-16.539,16.539-16.539H396.68c9.135,0,16.54,7.404,16.54,16.539v234.454c0,0-23.177,12.64-51.727,28.212"/>
<path style="fill:#BAD8E8;" d="M413.22,236.517v23.568c-3.782,2.061-145.141,79.161-146.382,79.838
	c-6.7,3.655-14.791,3.652-21.49-0.003L98.973,260.086v-23.568l131.174,71.545c16.175,8.822,35.723,8.822,51.897,0L413.22,236.517z"
	/>
<path style="fill:#FFCA54;" d="M366,285.839c72.612-39.605,3.399-1.849,137.004-74.732v271.847c0,11.019-8.934,19.953-19.953,19.953
	H29.141c-11.019,0-19.952-8.934-19.952-19.953V211.108c131.284,71.617,236.386,128.938,236.16,128.814
	c6.7,3.654,14.792,3.657,21.491,0.002c8.88-4.843,22.502-12.273,37.931-20.688"/>
<polygon style="fill:#FFB539;" points="98.973,137.652 98.973,260.086 9.189,211.108 "/>
<polygon style="fill:#FFB850;" points="503.004,211.108 413.22,260.086 413.22,137.652 "/>
<polygon style="fill:#FF880B;" points="98.973,137.652 98.973,260.086 76.527,247.841 76.527,156.014 "/>
<polygon style="fill:#FF8F29;" points="435.665,156.014 435.665,247.841 413.22,260.086 413.22,137.653 "/>
<path style="fill:#FFB852;" d="M65.613,502.906H29.139c-11.021,0-19.955-8.933-19.955-19.955V211.107l36.475,19.899v251.946
	C45.659,493.972,54.593,502.906,65.613,502.906z"/>
<path style="fill:#FC3842;" d="M144.094,118.704c0,62.366,54.322,110.247,87.262,133.549c14.76,10.44,34.47,10.444,49.23,0.004
	c32.132-22.728,84.616-68.848,87.171-128.99c1.467-34.526-25.234-64.356-59.791-64.233c-22.373,0.081-41.852,12.485-51.993,30.774
	c-10.173-18.347-29.744-30.774-52.211-30.774C170.81,59.035,144.094,85.751,144.094,118.704"/>
<path style="fill:#EF2235;" d="M247.045,246.179c1.459,4.623,3.053,9.202,4.792,13.703c-7.216-0.696-14.276-3.232-20.482-7.621
	c-32.94-23.309-87.259-71.187-87.259-133.554c0-37.28,34.019-66.01,71.67-58.472C154.144,72.793,140.798,165.688,247.045,246.179z"
	/>
<path style="fill:#FF323F;" d="M267.965,258.366c-0.797,0.236-1.593,0.438-2.401,0.618c0.797-0.191,1.582-0.393,2.356-0.629
	C267.932,258.355,267.954,258.366,267.965,258.366z"/>
<path style="fill:#ECF1F8;" d="M292.151,326.121c1.705-0.932,3.456-1.886,5.229-2.851
	C295.606,324.246,293.857,325.19,292.151,326.121z"/>
<path style="fill:#FFCA54;" d="M297.381,323.27c-1.773,0.977-3.524,1.919-5.229,2.851
	C293.857,325.19,295.606,324.234,297.381,323.27z"/>
<path style="fill:#FFCF6E;" d="M502.998,211.107v200.4c-80.675,9.38-159.98-22.236-211.937-84.79c0,0,98.96-53.975,101.367-55.296
	C392.459,271.412,502.971,211.121,502.998,211.107z"/>
<path style="fill:#F5F6F7;" d="M413.214,25.634v234.45c-0.033,0.018-122.115,66.608-122.162,66.631
	c-16.221-19.497-29.706-42.116-39.214-66.833c9.944,0.965,20.157-1.582,28.721-7.632c32.939-23.299,87.259-71.176,87.259-133.543
	c0-32.951-26.723-59.672-59.673-59.672c-22.469,0-42.042,12.423-52.21,30.773c-0.887-1.605-1.851-3.176-2.895-4.68v-0.011
	c11.402-28.451,28.114-54.207,48.921-76.025h94.722C405.817,9.092,413.214,16.5,413.214,25.634z"/>
<path style="fill:#FFCA54;" d="M292.151,326.121c1.705-0.932,3.456-1.886,5.229-2.851
	C295.606,324.246,293.857,325.19,292.151,326.121z"/>
<path style="fill:#FF3B4E;" d="M267.92,258.355c-4.732,1.444-10.614,2.087-16.082,1.526c-1.739-4.501-3.333-9.08-4.792-13.703
	C255.323,252.482,260.097,256.059,267.92,258.355z"/>
<path style="fill:#FC5162;" d="M367.817,118.707c0,62.367-54.32,110.244-87.259,133.543c-3.929,2.771-8.193,4.814-12.638,6.105
	c-8.084-2.373-13.058-6.226-20.874-12.177c-16.202-51.183-15.042-108.594,5.994-161.051c1.044,1.504,2.009,3.075,2.895,4.68
	c10.168-18.35,29.741-30.773,52.21-30.773C341.094,59.035,367.817,85.756,367.817,118.707z"/>
<path style="fill:#FFCA54;" d="M385.011,275.471c2.087-1.146,4.096-2.233,6.004-3.278
	C389.107,273.238,387.098,274.337,385.011,275.471z"/>
<path style="fill:#CCDDE5;" d="M413.214,236.515v23.568c-0.017,0.009-122.133,66.617-122.162,66.631
	c-4.5-5.409-8.755-11.021-12.749-16.812C280.878,308.787,270.929,314.122,413.214,236.515z"/>
<g>
	<path style="fill:#231F20;" d="M233.596,405.044H53.618c-4.659,0-8.437,3.777-8.437,8.436c0,4.66,3.778,8.436,8.437,8.436h179.978
		c4.659,0,8.436-3.776,8.436-8.436C242.032,408.821,238.255,405.044,233.596,405.044z"/>
	<path style="fill:#231F20;" d="M177.353,438.789H53.618c-4.659,0-8.437,3.778-8.437,8.437s3.778,8.436,8.437,8.436h123.735
		c4.659,0,8.436-3.777,8.436-8.436S182.012,438.789,177.353,438.789z"/>
	<path style="fill:#231F20;" d="M511.991,210.886c-0.003-0.217-0.023-0.431-0.042-0.646c-0.013-0.142-0.019-0.284-0.039-0.424
		c-0.031-0.221-0.081-0.437-0.13-0.653c-0.029-0.129-0.049-0.26-0.084-0.386c-0.065-0.237-0.15-0.467-0.235-0.697
		c-0.037-0.1-0.064-0.203-0.105-0.301c-0.268-0.648-0.618-1.263-1.041-1.828c-0.07-0.094-0.152-0.178-0.226-0.269
		c-0.148-0.182-0.295-0.365-0.46-0.535c-0.103-0.106-0.218-0.202-0.327-0.303c-0.133-0.124-0.257-0.254-0.399-0.369l-86.894-71.091
		V25.107c0-13.792-11.221-25.013-25.014-25.013H115.189c-13.792,0-25.013,11.222-25.013,25.013v108.277
		C-4.217,210.61,1.83,205.038,0.708,208.129c-1.189,3.271-0.522-7.626-0.522,275.343c0,15.678,12.755,28.434,28.434,28.434h454.945
		c15.679,0,28.435-12.756,28.435-28.434V211.006C511.999,210.965,511.992,210.926,511.991,210.886z M488.523,209.599l-66.512,36.281
		v-90.695L488.523,209.599z M90.176,245.879L23.664,209.6l66.512-54.415V245.879z M483.565,495.034H28.62
		c-6.375,0-11.561-5.186-11.561-11.561V225.217C268.313,362.269,252.82,354.426,256.094,354.426c3.006,0-1.217,1.836,60.757-31.967
		c4.091-2.23,5.598-7.355,3.367-11.445c-2.231-4.091-7.354-5.6-11.445-3.367l-45.952,25.064c-4.213,2.296-9.245,2.295-13.459-0.004
		L107.05,255.083V25.107c0-4.488,3.652-8.141,8.14-8.141h281.807c4.488,0,8.141,3.652,8.141,8.141c0,3.737,0,223.109,0,229.978
		c-40.69,22.196-29.536,16.111-47.448,25.881c-4.091,2.23-5.598,7.355-3.367,11.446c2.231,4.091,7.356,5.6,11.446,3.366l4.517-2.463
		h0.001c0,0,23.12-12.606,124.84-68.096v258.255C495.127,489.847,489.939,495.034,483.565,495.034z"/>
	<path style="fill:#231F20;" d="M308.261,50.15c-20.397,0-39.498,9.125-52.331,24.444c-12.78-15.25-31.785-24.372-52.079-24.444
		c-0.083,0-0.164,0-0.246,0c-49.185,0-92.792,53.911-51.792,129.732c1.526,2.823,4.43,4.425,7.429,4.425
		c6.36,0,10.454-6.827,7.412-12.45c-15.435-28.546-22.557-65.093,0.686-89.259c24.114-25.067,64.752-18.76,81.212,10.922
		c1.486,2.684,4.312,4.346,7.378,4.346c3.065,0,5.891-1.664,7.378-4.346c9.061-16.343,26.287-26.496,44.952-26.496
		c28.325,0,51.368,23.044,51.368,51.368c0,58.836-52.563,104.803-83.895,126.966c-11.845,8.376-27.758,8.381-39.599,0.005
		c-14.625-10.345-35.675-27.197-52.901-48.731c-2.912-3.642-8.22-4.229-11.859-1.318c-3.638,2.91-4.228,8.22-1.318,11.857
		c18.456,23.074,40.821,40.995,56.333,51.967c17.666,12.495,41.411,12.497,59.086-0.004c33.996-24.048,91.026-74.309,91.026-140.742
		C376.503,80.763,345.889,50.15,308.261,50.15z"/>
</g>
<g>
</g>
<g>
</g>
<g>
</g>
<g>
</g>
<g>
</g>
<g>
</g>
<g>
</g>
<g>
</g>
<g>
</g>
<g>
</g>
<g>
</g>
<g>
</g>
<g>
</g>
<g>
</g>
<g>
</g>
</svg>
