<?xml version="1.0" encoding="iso-8859-1"?>
<!-- Generator: Adobe Illustrator 21.0.0, SVG Export Plug-In . SVG Version: 6.00 Build 0)  -->
<svg xmlns="http://www.w3.org/2000/svg" xmlns:xlink="http://www.w3.org/1999/xlink" version="1.1" id="Capa_1" x="0px" y="0px" viewBox="0 0 511.969 511.969" style="enable-background:new 0 0 511.969 511.969;" xml:space="preserve" width="512" height="512">
<g>
	<g>
		<path style="fill:#E4EAF8;" d="M403.913,204.316c-55.484,0-100.582,44.965-100.582,100.581v14.95    c0,16.127-6.406,31.593-17.81,42.997l-13.848,13.848c-5.865,5.865-1.711,15.893,6.583,15.893h19.916    c2.849,0,5.158,2.309,5.158,5.158v17.086c0,25.532,20.89,46.423,46.423,46.423c9.955,0,18.053,8.067,18.053,18.053v14.83    c0,3.027,2.454,5.481,5.481,5.481h85.672c3.071,0,5.561-2.49,5.561-5.561l0-38.034c0-14.912,4.97-29.59,14.837-40.771    c15.644-17.727,25.139-41.006,25.139-66.508v-43.844C504.495,249.348,459.463,204.316,403.913,204.316z"/>
		<path style="fill:#E4EAF8;" d="M108.108,204.316c55.484,0,100.582,44.965,100.582,100.581v14.95    c0,16.127,6.406,31.593,17.81,42.997l13.848,13.848c5.865,5.865,1.711,15.893-6.583,15.893h-19.916    c-2.849,0-5.158,2.309-5.158,5.158v17.086c0,25.532-20.89,46.423-46.423,46.423c-9.955,0-18.053,8.067-18.053,18.053v14.83    c0,3.027-2.454,5.481-5.481,5.481H53.063c-3.071,0-5.561-2.49-5.561-5.561l0-38.034c0-14.912-4.97-29.59-14.837-40.771    c-15.644-17.727-25.139-41.006-25.139-66.508v-43.844C7.526,249.348,52.558,204.316,108.108,204.316z"/>
		<g>
			<path style="fill:#CCD2DB;" d="M291.548,376.692l13.848-13.848c11.403-11.403,17.81-26.87,17.81-42.997v-14.95     c0-52.256,39.814-95.104,90.646-100.093c-3.27-0.321-6.585-0.489-9.939-0.489c-55.484,0-100.582,44.965-100.582,100.581v14.95     c0,16.127-6.406,31.594-17.81,42.997l-13.848,13.848c-5.865,5.865-1.711,15.894,6.583,15.894h19.875     C289.836,392.585,285.683,382.557,291.548,376.692z"/>
			<path style="fill:#CCD2DB;" d="M387.681,494.134v-14.83c0-9.986-8.098-18.052-18.053-18.052     c-25.532,0-46.423-20.89-46.423-46.423v-17.086c0-2.849-2.309-5.158-5.158-5.158h-19.875c2.849,0,5.158,2.309,5.158,5.158v17.086     c0,25.532,20.89,46.423,46.423,46.423c9.955,0,18.053,8.067,18.053,18.052v14.83c0,3.027,2.454,5.48,5.481,5.48h19.875     C390.134,499.615,387.681,497.161,387.681,494.134z"/>
		</g>
		<path style="fill:#CCD2DB;" d="M67.377,494.054V456.02c0-14.911-4.97-29.59-14.837-40.771    c-15.644-17.727-25.139-41.006-25.139-66.508v-43.844c0-52.196,39.759-95.102,90.643-100.093    c-3.269-0.321-6.583-0.489-9.936-0.489c-55.55,0-100.582,45.032-100.582,100.582v43.844c0,25.501,9.495,48.781,25.139,66.508    c9.867,11.18,14.837,25.859,14.837,40.771v38.034c0,3.071,2.49,5.561,5.561,5.561h19.875    C69.866,499.615,67.377,497.125,67.377,494.054z"/>
		<path style="fill:#EE5253;" d="M321.9,42.691c-18.729-0.019-35.058,10.23-43.695,25.427l-0.007-0.003    c-3.681,4.547-9.344,4.558-13.036-0.013l-0.003,0.004c-7.494-13.252-20.831-22.758-36.521-25.005    c2.505,22.524-10.582,54.601-52.432,80.365c17.102,52.083,73.718,83.384,90.557,91.705c3.004,1.485,6.527,1.488,9.534,0.01    c19.948-9.807,95.667-51.68,95.738-122.249C372.067,65.213,349.618,42.717,321.9,42.691z"/>
		<path style="fill:#D83941;" d="M250.764,52.058c-6.409-4.624-13.942-7.785-22.125-8.957c2.505,22.524-10.582,54.601-52.432,80.365    c2.35,7.157,5.449,13.918,9.086,20.285C208.816,129.803,248.314,99.455,250.764,52.058z"/>
		<path style="fill:#FF6B6B;" d="M196.095,12.613c-13-0.013-24.333,7.101-30.328,17.648l-0.005-0.002    c-2.555,3.156-6.486,3.164-9.048-0.009l-0.002,0.003c-5.973-10.562-17.292-17.699-30.291-17.711    c-19.242-0.019-34.856,15.561-34.875,34.801c-0.049,48.98,52.448,78.15,66.28,84.985c2.085,1.03,4.53,1.033,6.617,0.007    c13.846-6.807,66.401-35.87,66.45-84.851C230.915,28.245,215.333,12.631,196.095,12.613z"/>
		<g>
			<path style="fill:#EE5253;" d="M111.546,47.343c0.016-15.745,10.478-29.034,24.823-33.333c-3.153-0.943-6.488-1.465-9.948-1.468     c-19.242-0.019-34.856,15.561-34.875,34.801c-0.049,48.98,52.448,78.15,66.28,84.985c2.085,1.03,4.53,1.033,6.617,0.007     c1.706-0.839,4.002-2.017,6.713-3.528C151.903,118.037,111.502,90.315,111.546,47.343z"/>
		</g>
	</g>
	<g>
		<path d="M403.886,196.72c-59.597,0-108.082,48.485-108.082,108.082v14.95c0,14.239-5.545,27.625-15.613,37.694l-13.848,13.848    c-10.565,10.566-3.071,28.697,11.887,28.697h17.574v14.744c0,29.733,24.189,53.922,53.923,53.922    c5.818,0,10.553,4.734,10.553,10.553v14.83c0,7.157,5.823,12.98,12.98,12.98h85.672c7.202,0,13.062-5.859,13.062-13.061v-38.034    c0-13.621,4.603-26.337,12.959-35.808c17.422-19.74,27.017-45.123,27.017-71.471v-43.843    C511.969,245.206,463.482,196.72,403.886,196.72z M496.969,348.645c0,22.69-8.262,44.547-23.264,61.545    c-10.776,12.213-16.712,28.455-16.712,45.733v36.095h-81.714v-12.811c0-14.09-11.463-25.553-25.553-25.553    c-21.462,0-38.923-17.46-38.923-38.922v-17.086c0-6.98-5.679-12.658-12.658-12.658h-19.916c-1.637,0-2.438-1.932-1.279-3.09    l13.848-13.848c12.9-12.902,20.006-30.055,20.006-48.3v-14.95c0-51.325,41.757-93.082,93.082-93.082    c51.326,0,93.083,41.757,93.083,93.083V348.645z"/>
		<path d="M154.476,138.955c4.147,2.05,9.1,2.056,13.25,0.014c1.487-0.731,3.281-1.647,5.307-2.742    c21.532,48.491,74.033,77.521,90.322,85.57c5.011,2.477,11.058,2.53,16.171,0.016c19.911-9.79,85.827-46.584,98.033-109.03    c0.795-4.065-1.856-8.005-5.922-8.8c-4.066-0.795-8.005,1.857-8.799,5.922c-10.883,55.672-71.586,89.428-89.932,98.447    c-0.911,0.448-1.998,0.447-2.907-0.002c-15.295-7.558-65.068-35.012-83.99-79.88c20.968-13.79,49.086-38.78,52.087-74.821    c0.009-0.108,0.024-0.213,0.033-0.321c8.543,3.64,15.734,10.013,20.413,18.286c1.741,3.078,6.748,7.228,13.048,7.232    c0.004,0,0.006,0,0.01,0c5.913-0.001,11.151-3.876,13.045-7.207c18.12-31.883,65.523-27.701,77.533,7.148    c1.351,3.916,5.618,5.995,9.534,4.647c3.917-1.35,5.997-5.619,4.647-9.535c-15.928-46.216-79.174-53.23-104.342-10.388    c-0.198,0.194-0.344,0.281-0.418,0.317c-0.072-0.036-0.216-0.122-0.411-0.313c-7.574-12.964-19.772-22.354-34.061-26.399    C228.497,2.18,182.146-6.939,161.22,23.278c-23.587-34.213-77.161-17.272-77.2,23.961    C83.966,100.01,137.936,130.782,154.476,138.955z M150.157,33.849c1.685,2.986,6.057,6.181,11.051,6.183c0.003,0,0.005,0,0.007,0    c4.95,0,9.325-3.141,11.046-6.161c13.713-24.126,52.902-15.557,50.996,17.01c-1.986,33.269-32.61,60.097-62.134,74.628    c-14.58-7.205-62.147-34.14-62.103-78.254C99.046,19.383,136.33,9.399,150.157,33.849z"/>
		<path d="M39.976,455.924v38.034c0,7.202,5.859,13.061,13.061,13.061h24.57c4.143,0,7.5-3.358,7.5-7.5s-3.357-7.5-7.5-7.5H54.976    v-36.095c0-17.279-5.936-33.521-16.714-45.733C23.262,393.192,15,371.335,15,348.645v-43.844    c0-51.326,41.757-93.082,93.082-93.082s93.082,41.756,93.082,93.081v14.95c0,18.246,7.105,35.399,20.007,48.301l13.848,13.847    c1.161,1.161,0.353,3.09-1.28,3.09h-19.916c-6.979,0-12.658,5.678-12.658,12.658v17.086c0,21.462-17.461,38.923-38.923,38.923    c-14.089,0-25.552,11.463-25.552,25.552v12.811h-24.083c-4.143,0-7.5,3.358-7.5,7.5s3.357,7.5,7.5,7.5h26.102    c7.158,0,12.981-5.823,12.981-12.98v-14.83c0-5.818,4.733-10.552,10.552-10.552c29.733,0,53.923-24.189,53.923-53.923v-14.744    h17.574c14.943,0,22.464-18.12,11.887-28.697l-13.848-13.847c-10.068-10.068-15.613-23.455-15.613-37.694v-14.95    c0-59.596-48.485-108.081-108.082-108.081S0,245.205,0,304.802v43.844c0,26.348,9.594,51.729,27.016,71.471    C35.373,429.586,39.976,442.303,39.976,455.924z"/>
	</g>
</g>















</svg>
