<?xml version="1.0" encoding="iso-8859-1"?>
<!-- Generator: Adobe Illustrator 19.0.0, SVG Export Plug-In . SVG Version: 6.00 Build 0)  -->
<svg xmlns="http://www.w3.org/2000/svg" xmlns:xlink="http://www.w3.org/1999/xlink" version="1.1" id="Capa_1" x="0px" y="0px" viewBox="0 0 512 512" style="enable-background:new 0 0 512 512;" xml:space="preserve" width="512" height="512">
<g>
	<g>
		<path style="fill:#2BB4F3;" d="M450.046,411.779H308.113V365.74c0-29.21,23.679-52.889,52.889-52.889h36.155    c29.21,0,52.889,23.679,52.889,52.889V411.779z"/>
		<path style="fill:#1687C4;" d="M397.157,312.851H379.03c26.795,0,48.516,21.721,48.516,48.516v50.412h22.5V365.74    C450.046,336.53,426.367,312.851,397.157,312.851z"/>
		<path style="fill:#F2A077;" d="M379.08,343.569L379.08,343.569c-16.195,0-29.323-13.128-29.323-29.323v-54.891h58.646v54.891    C408.403,330.44,395.274,343.569,379.08,343.569z"/>
		<path style="fill:#FFCCAA;" d="M464.822,172.966v61.597c0,18.733-7.59,35.699-19.868,47.967    c-12.278,12.287-29.244,19.877-47.977,19.877c-37.476,0-67.854-30.378-67.854-67.844v-1.002h-12.457    c-6.144,0-11.125-4.971-11.125-11.115v-7.183c0-4.537,2.713-8.431,6.607-10.161h7.561c2.25,0,4.423-0.331,6.474-0.964    c1.011-0.303,1.994-0.68,2.939-1.134c7.571-3.535,12.807-11.219,12.807-20.123v-3.866c0-3.346,2.703-6.049,6.049-6.049H464.822z"/>
		<path style="fill:#F2A077;" d="M443.988,172.965v61.597c0,18.733-7.59,35.699-19.867,47.968    c-9.956,9.964-22.996,16.837-37.56,19.08c3.396,0.523,6.874,0.797,10.417,0.797c18.733,0,35.699-7.59,47.977-19.877    c12.278-12.268,19.867-29.234,19.867-47.968v-61.597H443.988z"/>
		<path style="fill:#F9DC6A;" d="M504.5,108.278v32.438c0,17.817-14.433,32.249-32.249,32.249H347.98    c-3.346,0-6.049,2.703-6.049,6.049v3.866c0,8.903-5.236,16.588-12.807,20.123c-0.945,0.454-1.928,0.832-2.939,1.134    c-2.051,0.633-4.225,0.964-6.474,0.964h-8.024v-63.109c0-11.711,8.771-21.55,20.397-22.892l163.439-18.828    C500.303,99.724,504.5,103.467,504.5,108.278z"/>
		<path style="fill:#E5AC51;" d="M495.521,100.272l-15.506,1.786c1.791,1.471,2.953,3.694,2.953,6.219v32.438    c0,17.817-14.433,32.249-32.249,32.249h21.532c17.816,0,32.249-14.433,32.249-32.249v-32.438    C504.5,103.467,500.303,99.724,495.521,100.272z"/>
	</g>
	<g>
		<path style="fill:#75DC5E;" d="M202.042,411.779H60.109V365.74c0-29.21,23.679-52.889,52.889-52.889h36.155    c29.21,0,52.889,23.679,52.889,52.889V411.779z"/>
		<path style="fill:#2AAD52;" d="M149.153,312.851h-18.127c26.795,0,48.516,21.721,48.516,48.516v50.412h22.5V365.74    C202.042,336.53,178.363,312.851,149.153,312.851z"/>
		<path style="fill:#F2A077;" d="M131.075,339.785L131.075,339.785c15.177,0,27.48-12.303,27.48-27.48v-47.661h-54.96v47.661    C103.595,327.482,115.899,339.785,131.075,339.785z"/>
		<path style="fill:#FFCCAA;" d="M206.458,215.262v7.174c0,6.144-4.981,11.125-11.125,11.125h-12.467v1.002    c0,37.467-30.368,67.844-67.844,67.844c-18.743,0-35.699-7.59-47.977-19.877c-12.278-12.268-19.877-29.234-19.877-47.967v-61.597    H164.02c3.336,0,6.049,2.703,6.049,6.04v3.866c0,8.903,5.236,16.588,12.798,20.132c0.945,0.454,1.928,0.832,2.949,1.134    c2.051,0.633,4.225,0.964,6.474,0.964h7.561C203.746,206.831,206.458,210.725,206.458,215.262z"/>
		<path style="fill:#F2A077;" d="M199.852,205.101h-7.561c-2.25,0-4.423-0.331-6.474-0.964c-1.021-0.303-2.004-0.681-2.949-1.134    c-7.561-3.544-12.798-11.229-12.798-20.132v-3.866c0-3.337-2.713-6.04-6.049-6.04h-20c3.336,0,6.049,2.703,6.049,6.04v3.866    c0,8.903,5.236,16.588,12.798,20.132c0.945,0.454,0,30.557,0,30.557v1.002c0,34.07-25.114,62.271-57.847,67.105    c3.265,0.482,6.603,0.739,10.002,0.739c37.476,0,67.844-30.378,67.844-67.844v-1.002h12.467c6.144,0,11.125-4.981,11.125-11.125    v-7.174C206.458,210.725,203.746,206.831,199.852,205.101z"/>
		<path style="fill:#475D6D;" d="M200.315,156.33v48.771h-8.024c-2.25,0-4.423-0.331-6.474-0.964    c-1.021-0.303-2.004-0.68-2.949-1.134c-7.561-3.544-12.798-11.229-12.798-20.132v-3.866c0-3.337-2.713-6.04-6.049-6.04H42.604    c-19.385,0-35.104-15.718-35.104-35.113c0-19.386,15.718-35.104,35.104-35.104h47.655c13.006,0,25.246,6.153,33.005,16.597    l3.554,4.783h41.295C185.891,124.129,200.315,138.552,200.315,156.33z"/>
		<g>
			<path style="fill:#2C3F4F;" d="M102.514,119.346l3.554,4.782h20.75l-3.554-4.782c-7.76-10.444-20-16.597-33.005-16.597h-20.75     C82.515,102.749,94.755,108.902,102.514,119.346z"/>
			<path style="fill:#2C3F4F;" d="M168.113,124.129h-20.75c17.779,0,32.202,14.423,32.202,32.202v44.745     c1.042,0.729,2.14,1.383,3.302,1.927c0.945,0.454,1.928,0.832,2.949,1.134c2.051,0.633,4.225,0.964,6.474,0.964h8.024V156.33     C200.315,138.552,185.891,124.129,168.113,124.129z"/>
		</g>
	</g>
	<g>
		<path d="M379.888,251.791c-2.788,3.063-2.565,7.807,0.498,10.595c3.063,2.788,7.807,2.564,10.595-0.497    c4.455-4.895,10.805-7.701,17.422-7.701s12.967,2.807,17.422,7.701c1.48,1.626,3.511,2.451,5.548,2.451    c1.802,0,3.609-0.646,5.047-1.954c3.063-2.788,3.286-7.531,0.498-10.595c-7.292-8.01-17.685-12.604-28.515-12.604    S387.18,243.781,379.888,251.791z"/>
		<path d="M440.775,215.435c4.142,0,7.5-3.357,7.5-7.5V205.1c0-4.143-3.358-7.5-7.5-7.5s-7.5,3.357-7.5,7.5v2.835    C433.275,212.078,436.633,215.435,440.775,215.435z"/>
		<path d="M376.031,215.435c4.142,0,7.5-3.357,7.5-7.5V205.1c0-4.143-3.358-7.5-7.5-7.5s-7.5,3.357-7.5,7.5v2.835    C368.531,212.078,371.889,215.435,376.031,215.435z"/>
		<path d="M506.797,96.669c-3.307-2.95-7.726-4.351-12.135-3.849l-163.44,18.829c-15.414,1.778-27.037,14.823-27.037,30.342v59.467    c-3.838,3.472-6.144,8.456-6.144,13.803v7.184c0,10.265,8.355,18.615,18.625,18.615h5.235    c1.497,17.445,8.978,33.197,20.358,45.226v22.032c-6.083,1.977-11.791,4.908-17.027,8.764c-3.335,2.456-4.048,7.151-1.592,10.486    c1.47,1.996,3.742,3.054,6.045,3.054c1.544,0,3.103-0.476,4.441-1.462c2.947-2.17,6.097-3.938,9.407-5.319    c4.231,15.666,18.56,27.23,35.546,27.23c16.984,0,31.311-11.562,35.544-27.226c16.568,6.944,27.926,23.447,27.926,41.896v38.54    H315.61v-38.54c0-5.499,0.976-10.878,2.899-15.987c1.459-3.876-0.5-8.202-4.376-9.661c-3.875-1.459-8.202,0.5-9.662,4.376    c-2.562,6.805-3.861,13.962-3.861,21.272v46.04c0,4.143,3.358,7.5,7.5,7.5h141.94c4.142,0,7.5-3.357,7.5-7.5v-46.04    c0-26.172-17.19-49.399-41.65-57.405v-0.823c12.889-3.319,24.707-10.022,34.355-19.679c14.229-14.218,22.066-33.138,22.066-53.272    v-54.099c7.112-0.013,14.088-1.924,20.178-5.533c3.563-2.112,4.74-6.713,2.628-10.275c-2.111-3.563-6.71-4.741-10.276-2.629    c-3.797,2.25-8.154,3.439-12.601,3.439h-7.429H347.98c-7.471,0-13.549,6.078-13.549,13.549v3.866    c0,7.923-6.444,14.721-14.721,14.721h-0.525v-55.609c0-7.897,5.914-14.536,13.755-15.44l163.434-18.828    c0.063-0.007,0.25-0.028,0.438,0.14C497,108.03,497,108.21,497,108.277v32.438c0,0.843-0.043,1.694-0.127,2.532    c-0.415,4.121,2.589,7.799,6.71,8.214c4.133,0.425,7.799-2.588,8.215-6.71c0.134-1.335,0.203-2.693,0.203-4.036v-32.438    C512,103.848,510.104,99.618,506.797,96.669z M379.08,336.07c-12.032,0-21.82-9.788-21.82-21.82v-0.236c0-0.019,0-0.037,0-0.056    v-15.402c11.54,7.187,25.15,11.35,39.718,11.35c1.313,0,2.62-0.037,3.922-0.104v4.153c0,0.016,0,0.032,0,0.049v0.247    C400.9,326.282,391.112,336.07,379.08,336.07z M332.296,209.798c10.409-4.859,17.135-15.425,17.135-26.918v-2.415h107.891v54.097    c0,16.126-6.275,31.277-17.673,42.666c-11.39,11.399-26.544,17.678-42.671,17.678c-33.279,0-60.354-27.07-60.354-60.344v-1.002    c0-4.143-3.358-7.5-7.5-7.5h-12.457c-1.999,0-3.625-1.622-3.625-3.615c0.295-6.195-0.742-8.085,1.168-9.844    C314.209,212.6,324.074,213.754,332.296,209.798z"/>
		<path d="M103.595,239.184c-10.83,0-21.223,4.594-28.514,12.604c-2.788,3.063-2.565,7.807,0.498,10.596    c3.063,2.787,7.807,2.565,10.595-0.498c4.455-4.895,10.805-7.701,17.421-7.701s12.967,2.807,17.422,7.701    c1.48,1.626,3.511,2.451,5.548,2.451c1.802,0,3.609-0.646,5.047-1.954c3.063-2.788,3.286-7.531,0.498-10.595    C124.818,243.778,114.425,239.184,103.595,239.184z"/>
		<path d="M78.723,207.932v-2.835c0-4.143-3.358-7.5-7.5-7.5s-7.5,3.357-7.5,7.5v2.835c0,4.143,3.358,7.5,7.5,7.5    S78.723,212.075,78.723,207.932z"/>
		<path d="M135.967,197.597c-4.142,0-7.5,3.357-7.5,7.5v2.835c0,4.143,3.358,7.5,7.5,7.5s7.5-3.357,7.5-7.5v-2.835    C143.467,200.955,140.109,197.597,135.967,197.597z"/>
		<path d="M207.815,201.458V156.33c0-21.892-17.81-39.702-39.702-39.702h-37.523l-1.305-1.757    c-9.131-12.287-23.72-19.623-39.025-19.623H42.604C19.112,95.248,0,114.36,0,137.851c0,4.701,0.762,9.323,2.265,13.74    c1.334,3.922,5.597,6.021,9.516,4.685c3.921-1.335,6.019-5.596,4.684-9.517c-0.972-2.857-1.465-5.854-1.465-8.908    c0-15.221,12.383-27.604,27.604-27.604h47.656c10.583,0,20.671,5.073,26.985,13.569l3.554,4.783    c1.415,1.904,3.648,3.027,6.021,3.027h41.294c13.621,0,24.702,11.081,24.702,24.702V197.6h-0.525    c-1.473,0-2.907-0.212-4.342-0.654c-0.636-0.188-1.253-0.426-1.898-0.735c-5.152-2.415-8.48-7.651-8.48-13.341v-3.865    c0-7.466-6.078-13.54-13.549-13.54H47.169h-4.565c-3.545,0-6.992-0.66-10.245-1.963c-3.848-1.542-8.211,0.33-9.75,4.176    c-1.54,3.845,0.33,8.21,4.175,9.75c4.128,1.653,8.451,2.625,12.886,2.926v54.208c0,20.129,7.84,39.049,22.071,53.268    c9.652,9.66,21.47,16.365,34.36,19.683v0.259c-6.821,1.993-13.31,5.186-19.031,9.419c-3.33,2.464-4.032,7.16-1.569,10.49    c1.471,1.988,3.738,3.039,6.035,3.039c1.55,0,3.113-0.479,4.455-1.471c3.591-2.657,7.584-4.766,11.785-6.265    c4.527,14.078,17.743,24.296,33.305,24.296c15.567,0,28.786-10.224,33.309-24.309c17.837,6.316,30.151,23.271,30.151,42.769v38.54    H67.61v-38.54c0-5.351,0.917-10.579,2.727-15.541c1.419-3.892-0.586-8.197-4.478-9.615c-3.89-1.421-8.196,0.586-9.615,4.477    c-2.411,6.614-3.634,13.571-3.634,20.68v46.04c0,4.143,3.358,7.5,7.5,7.5h141.93c4.142,0,7.5-3.357,7.5-7.5v-46.04    c0-27.142-17.944-50.582-43.48-57.978v-17.823c13.442-12.398,22.376-29.615,24.029-48.879h5.245    c10.27,0,18.625-8.355,18.625-18.625v-7.174C213.958,209.913,211.653,204.93,207.815,201.458z M151.06,312.3    c0,11.018-8.963,19.98-19.98,19.98s-19.98-8.963-19.98-19.98v-2.498c1.302,0.066,2.609,0.104,3.922,0.104    c13.049,0,25.324-3.351,36.038-9.212V312.3z M198.958,222.434c0,1.999-1.626,3.625-3.625,3.625h-12.467    c-4.142,0-7.5,3.357-7.5,7.5v1.002c0,33.273-27.07,60.344-60.344,60.344c-16.126,0-31.281-6.278-42.675-17.683    c-11.4-11.391-17.678-26.541-17.678-42.661v-54.097h107.9v2.405c0,11.482,6.718,22.05,17.05,26.893    c1.298,0.623,2.666,1.149,3.985,1.541c5.983,1.845,10.206,1.144,14.186,1.297C199.699,214.359,198.666,216.305,198.958,222.434z"/>
		<path d="M289.757,266.7l-8.854-12.319l8.854-12.318c2.418-3.363,1.651-8.05-1.712-10.467c-3.365-2.418-8.05-1.651-10.467,1.713    l-12,16.695c-1.88,2.615-1.88,6.139,0,8.754l8.854,12.319l-8.854,12.319c-1.879,2.615-1.879,6.139,0,8.754l8.854,12.319    l-8.854,12.322c-1.879,2.615-1.879,6.139,0,8.754l12,16.699c1.465,2.039,3.764,3.124,6.097,3.124    c1.516-0.001,3.046-0.459,4.37-1.41c3.364-2.417,4.131-7.104,1.714-10.468l-8.854-12.322l8.854-12.322    c1.879-2.615,1.879-6.139,0-8.754l-8.854-12.319l8.854-12.319C291.636,272.839,291.636,269.315,289.757,266.7z"/>
		<path d="M246.424,283.396l-8.854-12.319l8.854-12.319c1.879-2.615,1.879-6.139,0-8.754l-12-16.695    c-2.417-3.363-7.103-4.13-10.467-1.713c-3.363,2.417-4.13,7.104-1.712,10.467l8.854,12.318l-8.854,12.319    c-1.879,2.615-1.879,6.139,0,8.754l8.854,12.319l-8.854,12.319c-1.879,2.615-1.879,6.139,0,8.754l8.854,12.322l-8.854,12.322    c-2.417,3.364-1.65,8.051,1.714,10.468c1.325,0.952,2.854,1.41,4.37,1.41c2.333,0,4.632-1.085,6.097-3.124l12-16.699    c1.879-2.615,1.879-6.139,0-8.754l-8.854-12.322l8.854-12.319C248.303,289.535,248.303,286.012,246.424,283.396z"/>
	</g>
</g>















</svg>
