<svg height="511pt" viewBox="0 0 511 511.67684" width="511pt" xmlns="http://www.w3.org/2000/svg"><path d="m475.5625 90.964844-181.335938-33.875c-1.90625-.40625-3.851562-.605469-5.800781-.597656-2.726562-.0625-5.453125.222656-8.109375.851562-5.101562 1.167969-9.863281 3.503906-13.90625 6.828125l-75.4375 381.011719c1.257813 4.007812 3.253906 7.742187 5.890625 11.007812 5.011719 6.546875 12.28125 10.988282 20.394531 12.460938l161.621094 30.207031 19.796875 3.667969c8.898438 1.683594 18.097657-.25 25.5625-5.378906 7.46875-5.125 12.578125-13.015626 14.203125-21.925782l64.425782-344.40625c1.671874-8.90625-.269532-18.109375-5.390626-25.585937-5.121093-7.476563-13.007812-12.605469-21.914062-14.265625zm-169.816406 117.25c-4.640625-.847656-9.363282-1.191406-14.078125-1.023438l-.339844-1.878906c4.453125-2.5625 9.140625-4.703125 13.992187-6.398438l1.707032 9.554688zm14.167968 158.890625h-.085937l-5.292969-30.121094c4.894532-1.75 9.5625-4.070313 13.910156-6.914063l6.65625 37.804688c-5.074218.207031-10.160156-.046875-15.1875-.769531zm0 0" fill="#795548"/><path d="m449.960938 86.699219-161.535157-30.207031c-2.726562-.0625-5.453125.222656-8.109375.851562-5.101562 1.167969-9.863281 3.503906-13.90625 6.828125l-75.4375 381.011719c1.257813 4.007812 3.253906 7.742187 5.890625 11.007812 5.011719 6.546875 12.28125 10.988282 20.394531 12.460938l161.621094 30.207031c16.613282.234375 30.96875-11.558594 33.960938-27.902344l64.425781-344.40625c1.671875-8.90625-.265625-18.113281-5.390625-25.585937-5.121094-7.476563-13.003906-12.609375-21.914062-14.265625zm-169.8125 117.25c-4.644532-.847657-9.363282-1.191407-14.082032-1.027344l-.339844-1.875c4.457032-2.5625 9.140626-4.707031 13.996094-6.402344l1.703125 9.558594zm14.164062 158.890625h-.085938l-5.289062-30.125c4.890625-1.75 9.558594-4.066406 13.910156-6.910156l6.65625 37.800781c-5.078125.210937-10.164062-.046875-15.191406-.765625zm0 0" fill="#bfa885"/><path d="m295.761719 426.667969-185 32.683593c-1.320313.261719-2.664063.40625-4.011719.425782-17.234375.984375-32.484375-11.078125-35.5-28.074219l-61.863281-350.464844c-3.257813-18.539062 9.113281-36.214843 27.644531-39.507812l162.988281-28.757813 22.015625-3.925781c18.539063-3.253906 36.214844 9.113281 39.507813 27.648437l61.867187 350.464844c3.257813 18.539063-9.113281 36.214844-27.648437 39.507813zm0 0" fill="#bfa885"/><path d="m270.164062 430.933594-163.414062 28.84375c-17.234375.984375-32.484375-11.078125-35.5-28.074219l-61.863281-350.464844c-3.257813-18.539062 9.113281-36.214843 27.644531-39.507812l162.988281-28.757813c17.394531-1.304687 32.933594 10.804688 35.925781 27.988282l61.867188 350.464843c3.253906 18.539063-9.113281 36.214844-27.648438 39.507813zm0 0" fill="#ffecb3"/><path d="m415.570312 296.789062c-7.4375 45.058594-49.152343 76.1875-94.460937 70.488282-.429687-.085938-.769531-.085938-1.195313-.171875h-.085937l-5.292969-30.121094c4.894532-1.75 9.5625-4.070313 13.910156-6.914063 15.398438-10.066406 25.984376-26.015624 29.269532-44.117187 7.027344-35.320313-15.507813-69.769531-50.6875-77.484375l-1.707032-9.554688c5.585938-1.921874 11.367188-3.210937 17.238282-3.839843 8.449218-1.207031 17.042968-1.003907 25.429687.597656 46.578125 9.269531 76.832031 54.535156 67.582031 101.117187zm0 0" fill="#37474f"/><path d="m394.238281 296.789062c-6.59375 36.824219-36.089843 65.253907-73.128906 70.488282-.429687-.085938-.769531-.085938-1.195313-.171875h-.085937l-5.292969-30.121094c4.894532-1.75 9.5625-4.070313 13.910156-6.914063 15.398438-10.066406 25.984376-26.015624 29.269532-44.117187 7.027344-35.320313-15.507813-69.769531-50.6875-77.484375l-1.707032-9.554688c5.585938-1.921874 11.367188-3.210937 17.238282-3.839843 1.363281.167969 2.730468.339843 4.09375.597656 46.582031 9.269531 76.832031 54.535156 67.585937 101.117187zm0 0" fill="#607d8b"/><path d="m307.027344 208.46875-1.28125-.253906c-4.640625-.847656-9.363282-1.191406-14.078125-1.023438l-.339844-1.878906c4.453125-2.5625 9.140625-4.703125 13.992187-6.398438zm0 0" fill="#2c2f38"/><path d="m221.351562 220.417969c-5.429687-30.722657-34.722656-51.234375-65.449218-45.824219-14.769532 2.59375-27.902344 10.941406-36.523438 23.210938-8.601562 12.3125-11.976562 27.53125-9.386718 42.324218 2.589843 14.769532 10.976562 27.890625 23.296874 36.4375 7.460938 5.265625 16.109376 8.605469 25.171876 9.726563 2.347656.339843 4.714843.511719 7.082031.511719 16.75.058593 32.660156-7.320313 43.433593-20.136719 10.777344-12.820313 15.3125-29.761719 12.375-46.25zm0 0" fill="#f57c00"/><path d="m191.484375 224.683594c-4.289063-24.378906-23.988281-43.109375-48.554687-46.164063-9.488282 4.113281-17.644532 10.789063-23.550782 19.285157-8.601562 12.3125-11.976562 27.53125-9.386718 42.324218 2.589843 14.769532 10.976562 27.890625 23.296874 36.4375 7.460938 5.265625 16.109376 8.605469 25.171876 9.726563 23.964843-10.394531 37.636718-35.898438 33.023437-61.609375zm0 0" fill="#ff9801"/><path d="m133.160156 414.226562-15.75 2.78125c-4.066406.71875-7.945312-1.992187-8.664062-6.058593l-2.78125-15.761719c-.472656-3.054688-2.558594-5.621094-5.460938-6.699219-2.898437-1.078125-6.152344-.5-8.507812 1.503907-2.355469 2.007812-3.4375 5.132812-2.832032 8.164062l2.773438 15.761719c2.085938 11.710937 12.261719 20.25 24.15625 20.277343 1.429688-.003906 2.859375-.128906 4.265625-.375l15.761719-2.785156c3.003906-.527344 5.496094-2.621094 6.539062-5.488281 1.039063-2.863281.476563-6.070313-1.484375-8.402344-1.960937-2.335937-5.019531-3.449219-8.023437-2.917969zm0 0"/><path d="m297.871094 377.574219-2.773438-15.761719c-.53125-3-2.621094-5.492188-5.488281-6.535156-2.867187-1.042969-6.070313-.476563-8.40625 1.484375-2.335937 1.960937-3.445313 5.019531-2.914063 8.023437l2.78125 15.75c.710938 4.0625-2 7.933594-6.058593 8.652344l-15.761719 2.792969c-4.339844.785156-7.363281 4.746093-6.980469 9.136719.382813 4.394531 4.046875 7.769531 8.457031 7.792968.5.003906 1-.039062 1.492188-.128906l15.753906-2.78125c6.410156-1.128906 12.105469-4.757812 15.839844-10.089844 3.730469-5.328125 5.191406-11.925781 4.058594-18.335937zm0 0"/><path d="m199.679688 54.171875 15.757812-2.773437c1.953125-.363282 3.964844.078124 5.582031 1.226562 1.625 1.136719 2.730469 2.871094 3.074219 4.824219l2.78125 15.757812c.71875 4.074219 4.253906 7.042969 8.386719 7.050781.5 0 1-.042968 1.492187-.128906 2.230469-.394531 4.214844-1.65625 5.511719-3.511718 1.296875-1.855469 1.804687-4.148438 1.410156-6.378907l-2.773437-15.75c-2.378906-13.335937-15.089844-22.230469-28.433594-19.902343l-15.761719 2.773437c-3 .53125-5.492187 2.625-6.535156 5.488281-1.042969 2.867188-.476563 6.070313 1.484375 8.40625 1.960938 2.335938 5.019531 3.449219 8.023438 2.917969zm0 0"/><path d="m57.785156 79.207031 15.761719-2.746093c4.640625-.820313 7.742187-5.25 6.921875-9.890626-.820312-4.644531-5.25-7.742187-9.890625-6.921874l-15.753906 2.78125c-13.335938 2.371093-22.238281 15.089843-19.898438 28.433593l2.773438 15.761719c.71875 4.074219 4.257812 7.046875 8.394531 7.046875.503906 0 1-.042969 1.496094-.125 2.226562-.394531 4.210937-1.65625 5.507812-3.511719 1.296875-1.855468 1.804688-4.148437 1.410156-6.378906l-2.773437-15.761719c-.347656-1.949219.097656-3.957031 1.230469-5.582031 1.136718-1.621094 2.871094-2.726562 4.820312-3.070312zm0 0"/><path d="m186.398438 303.617188c2.253906-6.777344 2.441406-14.074219.539062-20.957032 3.84375-1.5625 7.5-3.546875 10.90625-5.914062 3.136719 2.761718 5.210938 6.53125 5.863281 10.65625 4.410157 18.46875 16.527344 24.347656 22.988281 24.910156.253907.011719.507813.011719.757813 0 4.457031.015625 8.203125-3.34375 8.671875-7.773438.238281-2.230468-.429688-4.460937-1.855469-6.195312-1.421875-1.730469-3.480469-2.820312-5.714843-3.019531-.230469-.050781-5.691407-1.214844-8.25-11.949219-1.445313-7.015625-4.945313-13.445312-10.054688-18.464844.597656-.757812 1.222656-1.484375 1.777344-2.289062 1.804687-2.605469 3.390625-5.359375 4.734375-8.234375 4.105469.8125 7.796875 3.042969 10.429687 6.300781 5.988282 7.097656 14.683594 11.363281 23.96875 11.75 2.886719.035156 5.746094-.546875 8.386719-1.707031 4.300781-2.007813 6.199219-7.085938 4.269531-11.417969-.910156-2.054688-2.601562-3.65625-4.703125-4.445312-2.101562-.789063-4.433593-.703126-6.46875.246093-.203125.085938-5.539062 1.792969-13.097656-6.195312-4.757813-5.34375-10.996094-9.15625-17.921875-10.949219.578125-4.105469.699219-8.265625.359375-12.398438 3.953125-1.328124 8.242187-1.238281 12.132813.257813 18.238281 5.410156 29.355468-2.144531 33.066406-7.460937 2.742187-3.878907 1.859375-9.238282-1.976563-12.039063-1.816406-1.320313-4.082031-1.855469-6.292969-1.488281-2.214843.367187-4.1875 1.605468-5.476562 3.441406-.160156.171875-3.90625 4.320312-14.445312 1.1875-6.78125-2.25-14.078126-2.441406-20.96875-.546875-1.5625-3.832031-3.550782-7.476563-5.921876-10.871094 2.757813-3.15625 6.535157-5.242187 10.675782-5.886719 18.464844-4.414062 24.347656-16.53125 24.910156-22.988281.425781-4.730469-3.019531-8.929687-7.742188-9.429687-2.226562-.230469-4.453124.441406-6.183593 1.863281s-2.820313 3.476563-3.03125 5.703125c0 .230469-1.210938 5.695312-11.945313 8.253906-7.027344 1.441406-13.460937 4.949219-18.484375 10.070313-3.257812-2.542969-6.785156-4.722657-10.511719-6.503907.808594-4.117187 3.039063-7.816406 6.304688-10.453124 13.78125-13.046876 12.800781-26.453126 10.078125-32.359376-2.007813-4.292968-7.085937-6.191406-11.417969-4.265624-2.050781.910156-3.652344 2.601562-4.441406 4.703124-.789062 2.101563-.703125 4.429688.242188 6.464844.078124.214844 1.800781 5.53125-6.195313 13.101563-5.34375 4.753906-9.160156 10.992187-10.957031 17.917969-4.101563-.574219-8.257813-.691407-12.390625-.355469-1.285157-3.949219-1.164063-8.226563.351562-12.09375 5.410157-18.203125-2.140625-29.347657-7.457031-33.066407-3.882812-2.730468-9.238281-1.851562-12.042969 1.980469-1.320312 1.8125-1.855469 4.078125-1.488281 6.292969.367188 2.210938 1.609375 4.183594 3.445312 5.472656.179688.15625 4.324219 3.902344 1.183594 14.449219-2.25 6.78125-2.4375 14.074219-.542968 20.964844-3.84375 1.558593-7.496094 3.539062-10.898438 5.90625-3.136719-2.761719-5.210938-6.53125-5.863281-10.660157-4.410157-18.464843-16.527344-24.34375-22.988281-24.90625-4.730469-.429687-8.925782 3.015626-9.429688 7.738282-.238281 2.230468.429688 4.460937 1.851562 6.195312 1.425782 1.730469 3.484376 2.820313 5.71875 3.019532.230469 0 5.691407 1.210937 8.25 11.949218 1.453126 7 4.960938 13.410156 10.070313 18.414063-.597656.765625-1.21875 1.492187-1.773437 2.296875-1.808594 2.605468-3.394532 5.359375-4.738282 8.234375-4.105468-.820313-7.792968-3.046875-10.425781-6.300781-13.039063-13.769532-26.453125-12.796876-32.359375-10.078126-4.296875 2.007813-6.195312 7.085938-4.265625 11.417969.90625 2.054688 2.601563 3.652344 4.703125 4.445313 2.101562.789062 4.429688.699218 6.464844-.246094.214844-.078125 5.539062-1.78125 13.097656 6.195312 4.757812 5.351563 10.996094 9.171876 17.921875 10.984376-.566406 4.097656-.683594 8.246093-.351563 12.371093-3.949218 1.328125-8.242187 1.234375-12.132812-.265625-18.203125-5.425781-29.347656 2.136719-33.066406 7.453125-1.867188 2.601563-2.128906 6.027344-.683594 8.886719 1.441406 2.859375 4.359375 4.679688 7.5625 4.722656 2.703125.003906 5.234375-1.320312 6.773438-3.542968.164062-.167969 3.898437-4.316407 14.449218-1.183594 6.78125 2.25 14.078125 2.4375 20.964844.535156 1.554688 3.84375 3.535156 7.5 5.90625 10.898438-2.757812 3.144531-6.527344 5.222656-10.660156 5.871093-18.457032 4.410157-24.335938 16.519531-24.90625 22.980469-.433594 4.730469 3.007812 8.929688 7.730468 9.4375h.792969c4.367188.066406 8.046875-3.25 8.429688-7.601562.042969-.230469 1.210937-5.695313 11.949219-8.253907 7.011718-1.441406 13.4375-4.941406 18.457031-10.050781.765625.597656 1.492187 1.21875 2.292969 1.773438 2.609374 1.808593 5.363281 3.394531 8.234374 4.746093-.808593 4.101563-3.039062 7.792969-6.296874 10.417969-13.789063 13.046875-12.800782 26.453125-10.078126 32.359375 1.445313 3.078125 4.535157 5.050781 7.9375 5.066406 1.203126 0 2.390626-.261719 3.480469-.765625 2.050781-.910156 3.648438-2.605468 4.441407-4.707031.789062-2.097656.699218-4.429687-.242188-6.464844-.078125-.222656-1.800781-5.539062 6.195312-13.097656 5.347657-4.757813 9.160157-10.992187 10.957032-17.921875 2.542968.375 5.109375.570312 7.679687.589844 1.535157 0 3.089844-.28125 4.640625-.410156 1.421875 4 1.355469 8.378906-.1875 12.332031-5.410156 18.203125 2.144532 29.347656 7.460938 33.066406 1.476562 1.03125 3.238281 1.582031 5.042968 1.578125 2.769532.027344 5.378907-1.300781 6.988282-3.558594 1.324218-1.808594 1.863281-4.078125 1.496094-6.292968-.367188-2.210938-1.605469-4.183594-3.441407-5.472657-.207031-.085937-4.351562-3.824219-1.214843-14.371093zm-59.519532-66.320313c0-.164063 0-.308594-.074218-.46875-2.976563-17.527344 6.136718-34.875 22.253906-42.375 16.117187-7.496094 35.257812-3.285156 46.746094 10.28125.078124.109375.144531.21875.230468.332031 4.375 5.207032 7.316406 11.464844 8.53125 18.15625 0 .15625 0 .308594.070313.460938 3.578125 21.308594-10.625 41.539062-31.882813 45.40625l-.425781.070312c-21.316406 3.605469-41.570313-10.59375-45.449219-31.863281zm0 0"/><path d="m477.132812 82.578125-181.300781-33.867187c-7.75-1.480469-15.761719-.761719-23.125 2.070312l-2.738281-15.527344c-1.96875-11.144531-8.28125-21.050781-17.550781-27.542968-9.273438-6.488282-20.742188-9.027344-31.882813-7.0625l-184.945312 32.640624c-11.144532 1.96875-21.050782 8.28125-27.539063 17.550782-6.488281 9.269531-9.03125 20.738281-7.0625 31.882812l61.839844 350.429688c3.605469 20.351562 21.257813 35.203125 41.925781 35.269531 2.515625-.003906 5.03125-.226563 7.507813-.667969l73.566406-12.976562c5.992187 11.628906 17.011719 19.84375 29.867187 22.269531l181.410157 33.878906c2.636719.5 5.3125.75 7.996093.75 20.492188-.0625 38.03125-14.71875 41.734376-34.875l64.429687-344.386719c2.089844-11.136718-.332031-22.644531-6.734375-31.992187s-16.261719-15.765625-27.398438-17.835937zm-150 276.625-3.011718-17.066406c19.902344-9.515625 34.699218-27.195313 40.5625-48.460938 5.867187-21.265625 2.222656-44.03125-9.988282-62.402343-8.199218-12.371094-19.972656-21.941407-33.75-27.445313 8.4375-1.382813 17.054688-1.292969 25.464844.265625 39.800782 8.5 66.496094 46.019531 61.476563 86.40625-5.019531 40.390625-40.082031 70.238281-80.753907 68.738281zm-22.957031-142.601563c14.871094 2.789063 27.972657 11.496094 36.300781 24.125 8.992188 13.566407 12 30.238282 8.308594 46.085938-3.691406 15.851562-13.753906 29.480469-27.8125 37.675781l-19.054687-108.175781c.75.09375 1.507812.152344 2.257812.289062zm-194.875 234.335938c-13.921875 2.457031-27.199219-6.832031-29.660156-20.753906l-61.84375-350.429688c-2.453125-13.921875 6.84375-27.195312 20.761719-29.652344l184.9375-32.640624c1.484375-.261719 2.992187-.394532 4.503906-.394532 12.402344.027344 23.003906 8.941406 25.15625 21.15625l61.839844 350.421875c1.183594 6.683594-.34375 13.566407-4.234375 19.128907-3.894531 5.5625-9.839844 9.351562-16.527344 10.53125zm385.179688-321.707031-64.402344 344.457031c-1.207031 6.683594-5.03125 12.605469-10.628906 16.453125-5.597657 3.84375-12.5 5.296875-19.167969 4.027344l-181.421875-33.878907c-5.726563-1.140624-10.878906-4.230468-14.582031-8.746093l25.753906-4.546875c1.464844.613281 2.988281 1.082031 4.546875 1.398437l15.539063 2.902344c.519531.097656 1.042968.144531 1.570312.144531 4.105469-.003906 7.625-2.929687 8.382812-6.964844.152344-.917968.152344-1.855468 0-2.773437l37.203126-6.570313c23.191406-4.117187 38.675781-26.234374 34.601562-49.433593l-1.644531-9.300781c.554687 0 1.117187.117187 1.707031.117187 48.617188-.972656 88.761719-38.28125 93.296875-86.695313 4.53125-48.417968-27.988281-92.527343-75.582031-102.511718-17.433594-3.183594-35.410156-1.269532-51.78125 5.511718l-11.945313-67.796874c1.386719-1.234376 2.332031-2.886719 2.6875-4.710938l2.902344-15.53125c.746094-3.941406 4.539063-6.535156 8.480469-5.800781l15.53125 2.898437c4.617187.832032 9.039062-2.21875 9.902344-6.832031.859374-4.609375-2.164063-9.054687-6.769532-9.941406l-15.53125-2.902344c-8.742187-1.605469-17.660156 1.707031-23.238281 8.625l-3.992187-22.613281c5.109374-2.832032 11.046874-3.796875 16.792968-2.738282l181.324219 33.878907c6.679687 1.242187 12.585937 5.085937 16.429687 10.6875 3.839844 5.601562 5.296876 12.5 4.050782 19.179687zm0 0"/><path d="m414.324219 432.496094c-4.632813-.863282-9.085938 2.195312-9.949219 6.828125l-2.910156 15.527343c-.746094 3.9375-4.53125 6.53125-8.472656 5.804688l-15.539063-2.902344c-4.617187-.832031-9.042969 2.21875-9.902344 6.832032-.859375 4.613281 2.164063 9.054687 6.769531 9.945312l15.53125 2.902344c1.492188.28125 3.003907.421875 4.523438.425781 11.707031-.019531 21.742188-8.367187 23.894531-19.875l2.910157-15.53125c.414062-2.226563-.074219-4.53125-1.359376-6.402344-1.285156-1.867187-3.261718-3.144531-5.496093-3.554687zm0 0"/><path d="m458.316406 111.207031-15.53125-2.902343c-4.617187-.832032-9.042968 2.222656-9.902344 6.832031-.863281 4.613281 2.164063 9.054687 6.769532 9.945312l15.53125 2.902344c3.941406.742187 6.539062 4.539063 5.800781 8.480469l-2.898437 15.53125c-.417969 2.226562.066406 4.527344 1.347656 6.394531s3.25 3.148437 5.476562 3.566406c.523438.09375 1.050782.140625 1.578125.144531 4.109375-.003906 7.628907-2.933593 8.382813-6.972656l2.898437-15.53125c2.453125-13.207031-6.25-25.910156-19.453125-28.390625zm0 0"/><path d="m410.554688 151.792969c.515624.09375 1.042968.140625 1.570312.144531 4.105469-.003906 7.628906-2.933594 8.378906-6.972656l1.449219-7.765625c.832031-4.617188-2.21875-9.039063-6.832031-9.902344-4.609375-.859375-9.054688 2.164063-9.941406 6.769531l-1.445313 7.765625c-.414063 2.226563.070313 4.527344 1.347656 6.394531 1.277344 1.867188 3.246094 3.148438 5.472657 3.566407zm0 0"/><path d="m402.070312 157.59375c.417969-2.226562-.066406-4.523438-1.347656-6.394531-1.28125-1.867188-3.25-3.148438-5.476562-3.5625l-7.757813-1.449219c-3.003906-.582031-6.09375.492188-8.089843 2.8125-1.996094 2.320312-2.59375 5.535156-1.570313 8.417969 1.023437 2.886719 3.515625 5 6.527344 5.542969l7.757812 1.453124c.519531.097657 1.050781.144532 1.578125.144532 4.105469-.003906 7.625-2.929688 8.378906-6.964844zm0 0"/><path d="m407.890625 166.058594c-2.226563-.414063-4.523437.070312-6.394531 1.351562-1.867188 1.28125-3.148438 3.25-3.5625 5.476563l-1.460938 7.757812c-.414062 2.226563.070313 4.523438 1.351563 6.394531 1.28125 1.867188 3.25 3.148438 5.476562 3.5625.519531.101563 1.046875.152344 1.578125.152344 4.105469-.003906 7.625-2.925781 8.378906-6.960937l1.460938-7.765625c.417969-2.226563-.066406-4.53125-1.347656-6.398438-1.28125-1.871094-3.25-3.15625-5.480469-3.570312zm0 0"/><path d="m434.082031 154.898438-7.777343-1.449219c-4.617188-.835938-9.039063 2.21875-9.898438 6.832031-.863281 4.609375 2.160156 9.054688 6.769531 9.941406l7.765625 1.453125c.519532.09375 1.046875.140625 1.578125.144531 4.40625-.003906 8.085938-3.363281 8.492188-7.75.402343-4.386718-2.597657-8.363281-6.929688-9.171874zm0 0"/><path d="m109.140625 102.511719c.496094 0 .992187-.042969 1.484375-.128907 2.230469-.390624 4.214844-1.652343 5.515625-3.507812 1.296875-1.855469 1.808594-4.152344 1.414063-6.382812l-1.390626-7.875c-.921874-4.535157-5.289062-7.511719-9.847656-6.707032-4.554687.804688-7.640625 5.09375-6.957031 9.667969l1.382813 7.875c.71875 4.078125 4.257812 7.054687 8.398437 7.058594zm0 0"/><path d="m88.285156 122.445312c.496094 0 .992188-.042968 1.484375-.128906l7.875-1.390625c3.003907-.527343 5.496094-2.617187 6.542969-5.480469 1.042969-2.863281.480469-6.066406-1.476562-8.40625-1.960938-2.335937-5.015626-3.449218-8.019532-2.921874l-7.882812 1.390624c-4.363282.761719-7.414063 4.734376-7.03125 9.144532.386718 4.410156 4.078125 7.796875 8.507812 7.792968zm0 0"/><path d="m113.226562 117.09375c-2.230468.394531-4.210937 1.65625-5.507812 3.511719-1.300781 1.855469-1.808594 4.152343-1.414062 6.378906l1.394531 7.878906c.71875 4.074219 4.257812 7.042969 8.394531 7.046875.5.003906 1-.039062 1.492188-.128906 4.640624-.816406 7.738281-5.242188 6.921874-9.878906l-1.390624-7.886719c-.394532-2.230469-1.65625-4.210937-3.511719-5.507813-1.855469-1.300781-4.148438-1.808593-6.378907-1.414062zm0 0"/><path d="m127.683594 115.492188c.496094 0 .992187-.042969 1.484375-.128907l7.882812-1.390625c3.003907-.527344 5.496094-2.621094 6.539063-5.484375 1.042968-2.867187.480468-6.070312-1.480469-8.40625-1.957031-2.335937-5.015625-3.449219-8.019531-2.921875l-7.875 1.390625c-4.359375.765625-7.410156 4.734375-7.027344 9.144531.378906 4.410157 4.070312 7.792969 8.496094 7.796876zm0 0"/><path d="m223.09375 325.222656c-2.230469.394532-4.210938 1.65625-5.507812 3.511719-1.300782 1.855469-1.808594 4.148437-1.414063 6.378906l1.390625 7.875c.71875 4.078125 4.253906 7.050781 8.390625 7.058594.5 0 1-.042969 1.492187-.136719 4.640626-.820312 7.738282-5.242187 6.921876-9.882812l-1.390626-7.882813c-.820312-4.640625-5.242187-7.738281-9.882812-6.921875zm0 0"/><path d="m211.503906 351.652344-7.882812 1.390625c-4.339844.785156-7.363282 4.746093-6.980469 9.136719.382813 4.394531 4.046875 7.769531 8.457031 7.792968.5.003906 1-.039062 1.492188-.128906l7.875-1.390625c4.535156-.917969 7.511718-5.285156 6.710937-9.84375-.804687-4.558594-5.09375-7.644531-9.671875-6.957031zm0 0"/><path d="m230.039062 364.628906c-4.636718.820313-7.734374 5.242188-6.917968 9.882813l1.398437 7.886719c.71875 4.070312 4.253907 7.039062 8.386719 7.046874.5 0 1-.042968 1.492188-.128906 2.238281-.390625 4.226562-1.660156 5.523437-3.523437 1.300781-1.863281 1.804687-4.164063 1.398437-6.398438l-1.390624-7.878906c-.835938-4.628906-5.257813-7.707031-9.890626-6.886719zm0 0"/><path d="m260.792969 351.617188c-.390625-2.230469-1.65625-4.210938-3.511719-5.507813-1.851562-1.300781-4.148438-1.808594-6.378906-1.414063l-7.882813 1.390626c-4.359375.765624-7.414062 4.738281-7.027343 9.148437.382812 4.410156 4.074218 7.792969 8.503906 7.792969.5 0 1-.046875 1.492187-.136719l7.875-1.390625c2.230469-.394531 4.214844-1.652344 5.511719-3.507812 1.300781-1.851563 1.8125-4.144532 1.417969-6.375zm0 0"/><path d="m362.664062 408.046875c.519532.097656 1.042969.148437 1.570313.144531 4.105469-.003906 7.625-2.925781 8.378906-6.960937l1.453125-7.773438c.832032-4.617187-2.222656-9.042969-6.832031-9.902343-4.613281-.863282-9.054687 2.164062-9.945313 6.769531l-1.449218 7.765625c-.417969 2.226562.066406 4.527344 1.347656 6.394531s3.25 3.148437 5.476562 3.5625zm0 0"/><path d="m354.132812 413.851562c.859376-4.632812-2.195312-9.085937-6.828124-9.949218l-7.765626-1.453125c-4.550781-.699219-8.839843 2.339843-9.6875 6.867187-.84375 4.53125 2.058594 8.910156 6.554688 9.902344l7.765625 1.449219c.519531.097656 1.042969.148437 1.570313.144531 4.109374 0 7.632812-2.925781 8.390624-6.960938zm0 0"/><path d="m359.976562 422.332031c-2.226562-.414062-4.527343.070313-6.394531 1.351563-1.867187 1.277344-3.148437 3.25-3.5625 5.476562l-1.460937 7.765625c-.414063 2.226563.070312 4.523438 1.351562 6.394531 1.277344 1.867188 3.25 3.148438 5.476563 3.5625.519531.09375 1.046875.144532 1.578125.144532 4.105468-.003906 7.625-2.929688 8.378906-6.960938l1.453125-7.765625c.417969-2.226562-.066406-4.527343-1.34375-6.398437-1.28125-1.867188-3.25-3.152344-5.476563-3.570313zm0 0"/><path d="m368.449219 416.53125c-.859375 4.632812 2.195312 9.085938 6.828125 9.949219l7.765625 1.449219c.519531.101562 1.046875.148437 1.578125.144531 4.40625-.003907 8.082031-3.363281 8.484375-7.75.402343-4.390625-2.601563-8.359375-6.929688-9.171875l-7.765625-1.449219c-2.226562-.417969-4.527344.070313-6.394531 1.351563-1.867187 1.277343-3.152344 3.25-3.566406 5.476562zm0 0"/></svg>