<?xml version="1.0" encoding="iso-8859-1"?>
<!-- Generator: Adobe Illustrator 21.0.0, SVG Export Plug-In . SVG Version: 6.00 Build 0)  -->
<svg xmlns="http://www.w3.org/2000/svg" xmlns:xlink="http://www.w3.org/1999/xlink" version="1.1" id="Capa_1" x="0px" y="0px" viewBox="0 0 512.165 512.165" style="enable-background:new 0 0 512.165 512.165;" xml:space="preserve" width="512" height="512">
<g>
	<path style="fill:#FF3D43;" d="M256.339,51.399c-18.11-57.789-132.995-67.16-145.973,27.708   C95.605,187.011,256.339,265.158,256.339,265.158s160.734-78.147,145.973-186.051C389.334-15.761,274.449-6.39,256.339,51.399z"/>
	<g>
		<path style="fill:#D62D2D;" d="M402.312,79.107C394.52,22.15,349.998,2.779,311.737,8.89c29.877,4.86,57.584,26.426,63.575,70.218    c12.121,88.607-94.095,157.148-132.473,178.829c8.358,4.722,13.5,7.222,13.5,7.222S417.073,187.011,402.312,79.107z"/>
	</g>
	<g>
		<path style="fill:#F7B081;" d="M351.105,378.645L351.105,378.645c0,10.306-7.667,19.003-17.891,20.295l-127.276,16.092    l54.054,6.504c50.453,6.071,101.536-3.936,145.97-28.594l49.517-27.479c9.649-5.355,12.479-17.921,6.057-26.896    c-5.369-7.503-15.453-9.893-23.618-5.597L351.105,378.645L351.105,378.645L351.105,378.645z"/>
		<path style="fill:#DB9975;" d="M455.479,365.464c8.592-4.768,11.758-15.249,7.818-23.826l-118.26,63.27l-43.796-1.924    l-95.304,12.049l54.054,6.504c50.453,6.071,101.536-3.936,145.97-28.594L455.479,365.464z"/>
		<path style="fill:#F7B081;" d="M330.647,358.188c11.298,0,20.457,9.159,20.457,20.457v0l48.21-25.365    c9.306-4.896,12.562-16.622,7.112-25.615v0c-5.046-8.326-15.738-11.228-24.3-6.594l-68.583,37.117l0,0H330.647z"/>
		<path style="fill:#F7B081;" d="M230.229,358.188l99.567-52.13c8.335-4.364,18.608-1.992,24.186,5.585h0    c6.86,9.318,3.9,22.55-6.276,28.058l-34.161,18.488L230.229,358.188z"/>
		<path style="fill:#FFC89F;" d="M61.961,389.437c0,0,37.247-31.451,83.401-40.03c46.154-8.58,84.867,8.781,84.867,8.781h100.419    c11.298,0,20.457,9.159,20.457,20.457v0c0,10.306-7.667,19.003-17.891,20.295l-127.276,16.092l54.054,6.504    c50.453,6.071,101.536-3.936,145.97-28.594l67.629-37.53c9.188-4.837,20.527-2.306,26.787,5.978l0,0    c7.813,10.34,4.601,25.207-6.783,31.4l-98.891,53.796C345.136,473.551,288.704,508.9,232.5,503.891L61.961,488.694H7.5v-99.256    H61.961z"/>
		<g>
			<path style="fill:#F7B081;" d="M500.378,361.391c-0.426-0.564-0.879-1.095-1.35-1.605c-1.509,5.214-5.004,9.878-10.223,12.717     l-98.891,53.796c-49.568,26.964-106,62.313-162.204,57.305L57.171,468.406H7.5v20.288h54.461L232.5,503.891     c56.205,5.009,112.636-30.34,162.204-57.305l98.891-53.796C504.979,386.598,508.191,371.73,500.378,361.391z"/>
		</g>
		<path style="fill:#DB9975;" d="M313.545,358.188l34.161-18.488c8.854-4.792,12.241-15.429,8.456-24.25l-78.088,42.738H313.545z"/>
		<path style="fill:#DB9975;" d="M351.105,378.645L351.105,378.645l48.21-25.364c8.053-4.237,11.562-13.585,8.834-21.854    l-62.617,33.214C348.978,368.303,351.105,373.221,351.105,378.645z"/>
	</g>
	<g>
		<path d="M391.12,439.998c-5.088,2.768-10.248,5.624-15.472,8.515c-44.209,24.468-94.317,52.198-142.483,47.908L62.626,481.223    c-0.221-0.02-0.443-0.03-0.666-0.03H15v-84.256h46.961c1.768,0,3.482-0.628,4.835-1.766c0.087-0.073,8.901-7.454,22.924-15.807    c3.559-2.12,4.725-6.723,2.605-10.282c-2.119-3.559-6.723-4.725-10.282-2.605c-11.093,6.608-19.086,12.595-22.729,15.46H7.5    c-4.142,0-7.5,3.358-7.5,7.5v99.256c0,4.142,3.358,7.5,7.5,7.5h54.127l170.207,15.168c3.843,0.343,7.677,0.506,11.513,0.506    c48.802,0,96.829-26.58,139.563-50.23c5.192-2.874,10.32-5.712,15.377-8.462c3.639-1.979,4.983-6.534,3.004-10.172    C399.313,439.364,394.76,438.019,391.12,439.998z"/>
		<path d="M506.362,356.869c-7.993-10.579-21.922-14.225-33.938-9.19c-0.305-4.806-1.933-9.487-4.788-13.476    c-7.51-10.496-21.786-13.878-33.209-7.87l-17.908,9.422c-0.227-4.199-1.466-8.33-3.677-11.977    c-7.128-11.764-22.188-15.848-34.284-9.303l-13.394,7.249c-0.238-5.193-1.997-10.256-5.141-14.528    c-7.831-10.636-22.004-13.909-33.705-7.783l-96.486,50.517c-10.834-4.154-45.425-15.41-85.84-7.897    c-11.046,2.053-22.49,5.527-34.015,10.324c-3.824,1.592-5.633,5.983-4.042,9.807c1.591,3.824,5.981,5.633,9.806,4.042    c10.553-4.393,20.98-7.564,30.991-9.425c43.145-8.02,80.069,8.092,80.427,8.251c0.025,0.011,0.05,0.018,0.075,0.029    c0.082,0.035,0.166,0.064,0.249,0.096c0.205,0.081,0.412,0.154,0.622,0.216c0.1,0.03,0.2,0.056,0.301,0.081    c0.206,0.052,0.414,0.093,0.624,0.127c0.098,0.016,0.194,0.035,0.292,0.047c0.276,0.034,0.555,0.054,0.834,0.056    c0.026,0,0.051,0.005,0.077,0.005c0.008,0,0.016-0.001,0.025-0.001h83.255c0.01,0,0.02,0.001,0.03,0.001    c0.003,0,0.005,0.001,0.007,0.001c0.008,0,0.016-0.001,0.024-0.001h17.072c7.145,0,12.957,5.813,12.957,12.957    c0,6.512-4.872,12.038-11.332,12.855l-127.276,16.092c-3.757,0.475-6.57,3.677-6.559,7.463c0.011,3.787,2.844,6.971,6.604,7.424    l54.054,6.504c52.353,6.299,104.398-3.895,150.505-29.482l67.548-37.485c5.955-3.095,13.196-1.462,17.245,3.897    c2.406,3.185,3.303,7.248,2.461,11.149c-0.843,3.902-3.337,7.233-6.843,9.141l-72.514,39.447    c-3.639,1.98-4.983,6.534-3.004,10.172c1.36,2.5,3.936,3.918,6.595,3.918c1.21,0,2.439-0.294,3.577-0.913l72.514-39.447    c7.346-3.997,12.572-10.977,14.337-19.15C513.282,372.055,511.403,363.541,506.362,356.869z M385.697,327.668    c5.05-2.735,11.339-1.028,14.316,3.885c1.553,2.562,1.966,5.563,1.164,8.45c-0.801,2.887-2.703,5.245-5.355,6.64    c-0.002,0.001-0.004,0.003-0.006,0.004l-39.556,20.811c-3.069-6.999-8.921-12.509-16.152-15.118l11.166-6.043    c0.001-0.001,0.002-0.002,0.004-0.002L385.697,327.668z M333.275,312.702c5.09-2.665,11.26-1.242,14.667,3.387    c2.012,2.733,2.712,6.063,1.971,9.375c-0.74,3.311-2.792,6.024-5.775,7.639l-32.493,17.585h-50.922L333.275,312.702z     M402.323,386.385c-41.367,22.956-87.816,32.726-134.749,28.415l66.58-8.418c12.338-1.56,21.983-11.082,24.039-22.991l44.61-23.47    c0.002-0.001,0.003-0.001,0.005-0.002c0.003-0.002,0.006-0.004,0.009-0.005l38.594-20.305c4.825-2.539,10.855-1.109,14.027,3.323    c1.844,2.578,2.477,5.701,1.78,8.793c-0.696,3.09-2.604,5.639-5.373,7.178L402.323,386.385z"/>
		<path d="M129.732,158.672c3.61-2.031,4.89-6.604,2.859-10.214c-12.887-22.906-17.864-45.897-14.795-68.334    c5.134-37.532,28.729-61.665,63.116-64.555c31.291-2.628,60.643,13.737,68.27,38.073c0.969,3.093,3.916,5.257,7.157,5.257    c3.24,0,6.188-2.165,7.157-5.257c7.626-24.336,36.982-40.7,68.27-38.073c34.387,2.891,57.982,27.023,63.116,64.555    c3.13,22.882-2.108,46.33-15.569,69.694c-11.034,19.15-27.559,38.294-49.117,56.898c-30.958,26.717-63.595,44.665-73.856,50.022    c-14.195-7.415-71.217-38.945-107.776-84.79c-2.583-3.238-7.301-3.77-10.54-1.188c-3.238,2.583-3.77,7.301-1.188,10.54    c43.9,55.05,113.292,89.175,116.224,90.601c2.052,0.998,4.507,0.998,6.559,0c1.677-0.815,41.505-20.346,80.138-53.624    c22.899-19.726,40.553-40.191,52.47-60.829c15.221-26.358,21.115-53.059,17.517-79.359c-3.25-23.758-12.556-42.799-27.659-56.592    C368.866,9.428,351.901,2.208,333.022,0.621c-17.834-1.502-36.009,2.245-51.183,10.544c-10.71,5.857-19.417,13.763-25.5,22.994    c-6.083-9.231-14.791-17.137-25.5-22.994C215.665,2.867,197.49-0.88,179.656,0.621c-18.879,1.587-35.844,8.806-49.062,20.877    c-15.103,13.793-24.409,32.834-27.659,56.592c-3.523,25.751,2.057,51.9,16.583,77.722    C121.549,159.422,126.121,160.701,129.732,158.672z"/>
		<path d="M212.485,110.536c0-8.025-6.528-14.553-14.553-14.553s-14.553,6.528-14.553,14.553c0,8.025,6.528,14.553,14.553,14.553    S212.485,118.561,212.485,110.536z"/>
		<path d="M329.299,110.536c0-8.025-6.528-14.553-14.553-14.553s-14.553,6.528-14.553,14.553c0,8.025,6.528,14.553,14.553,14.553    S329.299,118.561,329.299,110.536z"/>
		<path d="M256.339,159.909c14.669,0,27.469-9.4,31.852-23.391c1.238-3.953-0.962-8.161-4.915-9.399    c-3.953-1.237-8.161,0.963-9.399,4.916c-2.412,7.701-9.46,12.874-17.537,12.874c-8.078,0-15.125-5.174-17.538-12.874    c-1.238-3.953-5.447-6.151-9.399-4.916c-3.953,1.238-6.153,5.446-4.915,9.399C228.87,150.509,241.67,159.909,256.339,159.909z"/>
	</g>
</g>















</svg>
