<?xml version="1.0" encoding="iso-8859-1"?>
<!-- Generator: Adobe Illustrator 19.0.0, SVG Export Plug-In . SVG Version: 6.00 Build 0)  -->
<svg version="1.1" id="Capa_1" xmlns="http://www.w3.org/2000/svg" xmlns:xlink="http://www.w3.org/1999/xlink" x="0px" y="0px"
	 viewBox="0 0 512 512" style="enable-background:new 0 0 512 512;" xml:space="preserve">
<path style="fill:#FF94D2;" d="M36.918,197.745v-88.662H6.935v88.662c0,8.089,6.558,14.646,14.646,14.646h29.982
	C43.476,212.391,36.918,205.835,36.918,197.745z"/>
<rect x="6.935" y="109.079" style="fill:#F77CC9;" width="29.98" height="36.398"/>
<circle style="fill:#F7CF69;" cx="41.552" cy="212.391" r="24.144"/>
<circle style="fill:#FF94D2;" cx="89.592" cy="217.148" r="24.144"/>
<circle style="fill:#F7CF69;" cx="133.713" cy="236.775" r="24.144"/>
<circle style="fill:#FF94D2;" cx="168.99" cy="269.624" r="24.144"/>
<circle style="fill:#F7CF69;" cx="192.205" cy="311.957" r="24.144"/>
<ellipse style="fill:#FF94D2;" cx="211.792" cy="356.807" rx="25.857" ry="24.559"/>
<circle style="fill:#F7CF69;" cx="469.325" cy="212.391" r="24.144"/>
<circle style="fill:#FF94D2;" cx="421.286" cy="217.148" r="24.144"/>
<circle style="fill:#F7CF69;" cx="377.165" cy="236.775" r="24.144"/>
<circle style="fill:#FF94D2;" cx="341.888" cy="269.624" r="24.144"/>
<circle style="fill:#F7CF69;" cx="318.673" cy="311.957" r="24.144"/>
<ellipse style="fill:#FF94D2;" cx="299.095" cy="356.807" rx="25.857" ry="24.559"/>
<path id="SVGCleanerId_0" style="fill:#EC5569;" d="M421.872,129.435L421.872,129.435c5.505-5.505,14.431-5.505,19.936,0l3.11,3.11
	c0.742,0.742,1.944,0.742,2.685,0l3.06-3.06c5.505-5.505,14.431-5.505,19.936,0l0,0c5.505,5.505,5.505,14.431,0,19.936
	l-22.998,22.998c-0.742,0.742-1.944,0.742-2.685,0l-23.044-23.048C416.366,143.866,416.366,134.94,421.872,129.435z"/>
<path style="fill:#FFC7E7;" d="M503.945,109.083H6.935v88.663c0,8.089,6.558,14.646,14.646,14.646h30.362
	c58.118,0,110.735,34.374,134.086,87.595l37.295,85.006c5.159,11.757,16.782,19.35,29.621,19.35h4.992
	c12.839,0,24.462-7.593,29.621-19.35l37.295-85.006c23.35-53.221,75.967-87.595,134.086-87.595H489.3
	c8.089,0,14.646-6.558,14.646-14.646v-88.663H503.945z"/>
<g>
	<path style="fill:#EC5569;" d="M325.342,298.886l-4.94,4.94c-0.742,0.742-1.944,0.742-2.685,0l-23.044-23.048
		c-5.505-5.505-5.505-14.431,0-19.936l0,0c5.505-5.505,14.431-5.505,19.936,0l3.11,3.11c0.742,0.742,1.944,0.742,2.685,0l3.06-3.06
		c5.505-5.505,14.431-5.505,19.936,0l0,0c1.279,1.279,2.262,2.743,2.946,4.306"/>
	<path style="fill:#EC5569;" d="M164.517,265.175c0.686-1.573,1.671-3.046,2.958-4.333l0,0c5.505-5.505,14.431-5.505,19.936,0
		l3.11,3.11c0.742,0.742,1.944,0.742,2.685,0l3.06-3.06c5.505-5.505,14.431-5.505,19.936,0l0,0c5.505,5.505,5.505,14.431,0,19.936
		l-22.998,22.998c-0.742,0.742-1.944,0.742-2.685,0l-5.01-5.011"/>
	<path style="fill:#EC5569;" d="M231.074,329.684L231.074,329.684c5.505-5.505,14.431-5.505,19.936,0l3.11,3.11
		c0.742,0.742,1.944,0.742,2.685,0l3.06-3.06c5.505-5.505,14.431-5.505,19.936,0l0,0c5.505,5.505,5.505,14.431,0,19.936
		l-22.998,22.998c-0.742,0.742-1.944,0.742-2.685,0l-23.044-23.048C225.568,344.116,225.568,335.189,231.074,329.684z"/>
	<path style="fill:#EC5569;" d="M377.315,237.259l-19.043-19.047c-5.505-5.505-5.505-14.431,0-19.936l0,0
		c5.505-5.505,14.431-5.505,19.936,0l3.11,3.11c0.742,0.742,1.944,0.742,2.685,0l3.06-3.06c5.505-5.505,14.431-5.505,19.936,0l0,0
		c5.505,5.505,5.505,14.431,0,19.936l-6.132,6.132"/>
	<path style="fill:#EC5569;" d="M231.074,198.277L231.074,198.277c5.505-5.505,14.431-5.505,19.936,0l3.11,3.11
		c0.742,0.742,1.944,0.742,2.685,0l3.06-3.06c5.505-5.505,14.431-5.505,19.936,0l0,0c5.505,5.505,5.505,14.431,0,19.936
		l-22.998,22.998c-0.742,0.742-1.944,0.742-2.685,0l-23.044-23.048C225.568,212.708,225.568,203.783,231.074,198.277z"/>
	<path style="fill:#EC5569;" d="M110.101,224.434l-6.22-6.221c-5.505-5.505-5.505-14.431,0-19.936l0,0
		c5.505-5.505,14.431-5.505,19.936,0l3.11,3.11c0.742,0.742,1.944,0.742,2.685,0l3.06-3.06c5.505-5.505,14.431-5.505,19.936,0l0,0
		c5.505,5.505,5.505,14.431,0,19.936l-19.012,19.012"/>
	<path style="fill:#EC5569;" d="M294.673,129.435L294.673,129.435c5.505-5.505,14.431-5.505,19.936,0l3.11,3.11
		c0.742,0.742,1.944,0.742,2.685,0l3.06-3.06c5.505-5.505,14.431-5.505,19.936,0l0,0c5.505,5.505,5.505,14.431,0,19.936
		l-22.998,22.998c-0.742,0.742-1.944,0.742-2.685,0l-23.044-23.048C289.168,143.866,289.168,134.94,294.673,129.435z"/>
	<path style="fill:#EC5569;" d="M167.475,129.435L167.475,129.435c5.505-5.505,14.431-5.505,19.936,0l3.11,3.11
		c0.742,0.742,1.944,0.742,2.685,0l3.06-3.06c5.505-5.505,14.431-5.505,19.936,0l0,0c5.505,5.505,5.505,14.431,0,19.936
		l-22.998,22.998c-0.742,0.742-1.944,0.742-2.685,0l-23.044-23.048C161.97,143.866,161.97,134.94,167.475,129.435z"/>
</g>
<g>
	<path id="SVGCleanerId_0_1_" style="fill:#EC5569;" d="M421.872,129.435L421.872,129.435c5.505-5.505,14.431-5.505,19.936,0
		l3.11,3.11c0.742,0.742,1.944,0.742,2.685,0l3.06-3.06c5.505-5.505,14.431-5.505,19.936,0l0,0c5.505,5.505,5.505,14.431,0,19.936
		l-22.998,22.998c-0.742,0.742-1.944,0.742-2.685,0l-23.044-23.048C416.366,143.866,416.366,134.94,421.872,129.435z"/>
</g>
<path style="fill:#EC5569;" d="M40.282,129.435L40.282,129.435c5.505-5.505,14.431-5.505,19.936,0l3.11,3.11
	c0.742,0.742,1.944,0.742,2.685,0l3.06-3.06c5.505-5.505,14.431-5.505,19.936,0l0,0c5.505,5.505,5.505,14.431,0,19.936
	l-22.998,22.998c-0.742,0.742-1.944,0.742-2.685,0l-23.044-23.048C34.776,143.866,34.776,134.94,40.282,129.435z"/>
<g>
	<rect x="6.935" y="109.079" style="fill:#FF94D2;" width="497.007" height="36.398"/>
	<path style="fill:#FF94D2;" d="M253.306,384.992l-37.295-85.006c-23.35-53.221-75.967-87.595-134.086-87.595H51.943
		c58.118,0,110.735,34.374,134.086,87.595l37.295,85.006c5.159,11.757,16.782,19.35,29.621,19.35h4.992
		c4.379,0,8.607-0.902,12.495-2.532C262.92,398.66,256.705,392.74,253.306,384.992z"/>
</g>
<g>
	<path style="fill:#E63950;" d="M243.037,361.585l-13.303-30.323c-4.103,5.519-3.668,13.35,1.341,18.358L243.037,361.585z"/>
	<path style="fill:#E63950;" d="M193.204,303.826l16.489-16.489c-4.716-8.435-10.189-16.311-16.344-23.528l-0.143,0.143
		c-0.742,0.742-1.944,0.742-2.685,0l-3.11-3.11c-5.505-5.505-14.431-5.505-19.936,0l0,0c-1.286,1.286-2.273,2.76-2.958,4.333
		l0.082,0.132c8.297,9.993,15.338,21.183,20.833,33.386l0.076,0.122l5.01,5.011C191.261,304.567,192.463,304.567,193.204,303.826z"
		/>
	<path style="fill:#E63950;" d="M100.824,213.637c0.688,1.664,1.704,3.225,3.056,4.577l6.22,6.221l0.169,0.093
		c8.094,3.518,15.839,7.755,23.148,12.65l0.179,0.098l10.852-10.853C130.811,219.978,116.113,215.623,100.824,213.637z"/>
</g>
<path d="M226.33,323.678c-3.096,3.096-5.153,7.011-5.943,11.299c-1.317,6.999,0.904,14.188,5.943,19.227l23.08,23.089
	c1.829,1.805,4.221,2.706,6.613,2.706c2.408,0,4.816-0.915,6.642-2.742l22.985-22.994c4.083-4.068,6.332-9.493,6.332-15.272
	c0-1.099-0.084-2.191-0.25-3.256l-0.125-0.728c-0.796-4.3-2.857-8.205-5.947-11.281c-8.126-8.125-21.168-8.408-29.637-0.85
	C247.555,315.266,234.473,315.534,226.33,323.678z M262.662,337.385l3.058-3.058c2.575-2.574,6.765-2.574,9.35,0.013
	c0.869,0.865,1.467,1.942,1.74,3.128l0.072,0.368c0.073,0.367,0.108,0.745,0.108,1.155c0,1.766-0.683,3.419-1.932,4.664
	l-19.04,19.047l-19.09-19.096c-1.536-1.536-2.213-3.726-1.807-5.882c0.243-1.314,0.867-2.506,1.807-3.446
	c1.248-1.248,2.906-1.935,4.669-1.935s3.421,0.688,4.677,1.943l3.109,3.1c1.773,1.774,4.131,2.75,6.64,2.75
	C258.532,340.135,260.89,339.158,262.662,337.385z"/>
<path d="M285.661,192.315c-8.124-8.125-21.166-8.409-29.636-0.85c-8.465-7.609-21.548-7.343-29.691,0.8l0,0
	c-8.418,8.419-8.418,22.118,0,30.536l23.046,23.05c1.832,1.83,4.236,2.745,6.642,2.745c2.405,0,4.811-0.916,6.642-2.747
	l22.999-22.998C294.08,214.433,294.08,200.734,285.661,192.315z M275.061,212.252l-19.041,19.041l-19.087-19.091
	c-2.574-2.574-2.574-6.764,0-9.337l0,0c2.574-2.573,6.763-2.573,9.337,0l3.11,3.11c1.774,1.774,4.133,2.751,6.643,2.751
	c2.51,0,4.87-0.978,6.642-2.751l3.06-3.06c2.574-2.573,6.763-2.573,9.337,0C277.635,205.49,277.635,209.678,275.061,212.252z"/>
<path d="M504.505,166.573c4.139,0,7.495-3.356,7.495-7.495v-14.309c0-0.023-0.003-0.045-0.003-0.068v-36.33
	c0-4.139-3.356-7.495-7.495-7.495H79.608c-4.139,0-7.495,3.356-7.495,7.495s3.356,7.495,7.495,7.495h417.399v21.406h-23.065h-54.255
	H14.99v-21.406h33.418c4.139,0,7.495-3.356,7.495-7.495s-3.356-7.495-7.495-7.495H7.495c-4.139,0-7.495,3.356-7.495,7.495v36.396
	v52.266c0,7.852,4.241,15.046,10.778,18.991c2.124,15.393,15.362,27.289,31.334,27.289c8.542,0,16.327-3.366,22.037-8.889
	c5.715,8.244,15.237,13.656,26.002,13.656c4.855,0,9.539-1.134,13.757-3.178c3.834,13.153,15.991,22.795,30.364,22.795
	c1.239,0,2.467-0.08,3.682-0.22c-0.022,0.479-0.034,0.958-0.034,1.439c0,15.283,10.897,28.069,25.329,30.998
	c-1.372,3.566-2.124,7.393-2.124,11.326c0,13.966,9.099,25.839,21.678,30.023c-2.444,4.494-3.81,9.557-3.81,14.826
	c0,17.678,14.964,32.059,33.358,32.059c1.657,0,3.297-0.122,4.913-0.352c6.463,14.184,20.617,23.327,36.24,23.327h4.987
	c15.623,0,29.776-9.141,36.24-23.327c1.62,0.23,3.262,0.353,4.923,0.353c18.388,0,33.348-14.382,33.348-32.059
	c0-5.27-1.365-10.331-3.809-14.825c12.578-4.182,21.677-16.058,21.677-30.025c0-3.928-0.752-7.757-2.126-11.325
	c14.439-2.927,25.341-15.714,25.341-30.998c0-0.481-0.012-0.959-0.034-1.438c1.211,0.139,2.435,0.219,3.672,0.219
	c14.374,0,26.531-9.642,30.364-22.795c4.218,2.043,8.901,3.178,13.757,3.178c10.77,0,20.294-5.416,26.009-13.664
	c5.713,5.532,13.497,8.897,22.031,8.897c15.973,0,29.21-11.895,31.334-27.288c6.536-3.943,10.779-11.139,10.779-18.992v-7.465
	c0-4.139-3.356-7.495-7.495-7.495c-4.139,0-7.495,3.356-7.495,7.495v7.465c0,3.136-2.09,5.946-5.079,6.85
	c-0.021,0.006-0.041,0.013-0.062,0.019c-0.648,0.188-1.322,0.286-2.005,0.286h-30.36c-4.752,0-9.604,0.226-14.422,0.672
	c-0.016,0.001-0.031,0.004-0.047,0.005c-0.027,0.003-0.054,0.007-0.081,0.01c-0.068,0.008-0.136,0.014-0.204,0.024
	c-8.697,0.832-17.276,2.405-25.668,4.689c0.061-0.665,0.098-1.335,0.098-2.012c0-5.781-2.249-11.205-6.323-15.263
	c-0.195-0.195-0.404-0.391-0.552-0.526c-8.245-7.706-20.795-7.759-29.08-0.324c-3.958-3.571-9.036-5.523-14.423-5.523
	c-5.781,0-11.205,2.249-15.263,6.323c-8.419,8.419-8.419,22.118,0,30.536l12.788,12.795c-4.278,3.253-8.401,6.74-12.317,10.427
	c-0.015,0.014-0.031,0.029-0.047,0.045c-2.361,2.217-4.664,4.533-6.898,6.923c-3.74-2.862-8.279-4.432-13.07-4.432
	c-5.355,0-10.411,1.935-14.372,5.473c-3.966-3.569-9.042-5.52-14.419-5.52c-5.757,0-11.179,2.243-15.278,6.328
	c-8.401,8.417-8.401,22.111,0.005,30.532l23.082,23.082c0.043,0.043,0.091,0.079,0.135,0.12l-9.69,22.082
	c-0.021,0.048-0.041,0.096-0.061,0.144l-22.145,50.473c-3.961,9.029-12.895,14.864-22.757,14.864h-4.987
	c-9.863,0-18.796-5.834-22.756-14.859l-22.188-50.571c-0.02-0.045-0.043-0.097-0.067-0.149l-9.633-21.958
	c0.066-0.063,0.137-0.117,0.202-0.182l22.986-22.986c4.083-4.068,6.332-9.493,6.332-15.273c0-5.771-2.246-11.196-6.323-15.274
	c-8.125-8.123-21.166-8.409-29.636-0.85c-3.966-3.57-9.042-5.521-14.419-5.521c-4.787,0-9.33,1.571-13.095,4.451
	c-2.232-2.385-4.526-4.693-6.873-6.895c-0.016-0.015-0.032-0.031-0.048-0.046c-3.902-3.675-8.016-7.153-12.287-10.402l12.779-12.778
	c4.071-4.085,6.313-9.507,6.313-15.263c0-5.766-2.246-11.187-6.323-15.264c-8.125-8.124-21.167-8.409-29.636-0.85
	c-3.967-3.57-9.046-5.521-14.429-5.521c-5.504,0-10.729,2.062-14.719,5.805c-0.182,0.167-0.375,0.348-0.544,0.518
	c-4.732,4.732-6.804,11.133-6.217,17.325c-8.394-2.286-16.974-3.858-25.674-4.69c-0.069-0.01-0.139-0.016-0.209-0.024
	c-0.026-0.003-0.051-0.006-0.077-0.009c-0.016-0.002-0.032-0.004-0.048-0.006c-4.818-0.446-9.667-0.672-14.412-0.672H22.146
	c-0.699,0-1.386-0.099-2.037-0.291c-3.014-0.893-5.119-3.717-5.119-6.866v-44.771h19.042c0.477,0.59,0.973,1.163,1.512,1.702
	l23.045,23.045c1.773,1.774,4.131,2.75,6.64,2.75c2.508,0,4.867-0.977,6.638-2.748l23.007-22.997
	c0.553-0.553,1.062-1.144,1.55-1.751h64.797c0.477,0.59,0.973,1.163,1.512,1.702l23.08,23.08c1.829,1.805,4.222,2.706,6.614,2.706
	c2.408,0,4.815-0.914,6.64-2.74l22.997-22.996c0.554-0.554,1.063-1.145,1.552-1.751h64.864c0.47,0.617,0.962,1.211,1.453,1.702
	l23.08,23.08c1.828,1.804,4.221,2.705,6.613,2.705c2.408,0,4.815-0.914,6.641-2.74l22.995-22.995
	c0.555-0.555,1.065-1.145,1.554-1.752h64.814c0.476,0.59,0.972,1.163,1.511,1.701l23.071,23.081
	c1.829,1.805,4.222,2.706,6.614,2.706c2.408,0,4.814-0.914,6.639-2.739l23.006-22.996c0.554-0.554,1.062-1.144,1.551-1.752h18.997
	v6.816C497.01,163.217,500.366,166.573,504.505,166.573z M301.209,373.086l12.341-28.128c2.82,3.045,4.463,6.98,4.463,11.132
	C318.013,365.013,310.605,372.348,301.209,373.086z M321.085,327.78l11.202-25.526l0.371-0.831c2.054,2.811,3.224,6.238,3.224,9.817
	C335.882,319.795,329.395,326.859,321.085,327.78z M342.447,285.556c-0.464,0-0.917-0.042-1.373-0.078
	c3.477-5.673,7.352-11.101,11.596-16.199c1.736-2.09,3.54-4.128,5.395-6.109c0.676,1.828,1.031,3.774,1.031,5.748
	C359.096,278.091,351.627,285.556,342.447,285.556z M377.724,252.707c-2.424,0-4.765-0.532-6.907-1.509
	c3.615-2.999,7.361-5.834,11.239-8.432c3.954-2.659,8.061-5.12,12.273-7.357c0.008,0.22,0.033,0.437,0.033,0.658
	C394.363,245.242,386.898,252.707,377.724,252.707z M421.846,233.09c-4.457,0-8.651-1.797-11.722-4.833
	c8.982-3.417,18.267-5.871,27.739-7.36C435.908,227.917,429.476,233.09,421.846,233.09z M484.729,219.179
	c-2.749,5.415-8.364,9.144-14.844,9.144c-6.441,0-12.064-3.641-14.828-9.063c1.489-0.048,2.973-0.081,4.445-0.081H484.729z
	 M364.146,202.853c1.235-1.239,2.888-1.922,4.654-1.922s3.419,0.683,4.672,1.941l3.073,3.062c1.777,1.802,4.147,2.793,6.674,2.794
	h0.001c2.526,0,4.897-0.991,6.631-2.749l3.081-3.071c2.52-2.526,6.534-2.6,9.182-0.125l0.151,0.14
	c1.239,1.235,1.922,2.888,1.922,4.654c0,1.768-0.687,3.428-1.937,4.678l-5.125,5.133c-0.345,0.153-0.691,0.307-1.045,0.466
	c-0.118,0.053-0.235,0.108-0.35,0.167c-5.769,2.619-11.409,5.622-16.826,8.954l-14.767-14.775
	C361.562,209.625,361.562,205.437,364.146,202.853z M300.533,274.775c-2.572-2.577-2.572-6.771-0.014-9.333
	c1.256-1.251,2.919-1.941,4.683-1.941c1.762,0,3.418,0.687,4.672,1.941l3.109,3.099c0.888,0.888,1.922,1.577,3.006,2.02
	c3.53,1.482,7.561,0.69,10.271-2.02l3.058-3.058c1.247-1.247,2.907-1.935,4.672-1.935c1.201,0,2.347,0.325,3.354,0.922
	c-5.222,6.811-9.893,14.073-13.907,21.673l0,0c-0.014,0.027-0.028,0.053-0.042,0.08c-1.319,2.497-2.555,5.038-3.726,7.583
	l-0.054,0.054L300.533,274.775z M74.135,220.896c9.474,1.488,18.758,3.942,27.737,7.36c-3.071,3.036-7.264,4.834-11.72,4.834
	C82.52,233.09,76.09,227.916,74.135,220.896z M117.633,236.068c0-0.21,0.024-0.416,0.032-0.625
	c4.227,2.247,8.355,4.687,12.312,7.349c3.865,2.592,7.599,5.418,11.2,8.406c-2.141,0.977-4.481,1.509-6.906,1.509
	C125.098,252.707,117.633,245.242,117.633,236.068z M152.911,268.917c0-1.973,0.353-3.914,1.026-5.742
	c1.843,1.968,3.64,3.995,5.373,6.077c4.253,5.116,8.137,10.558,11.62,16.242c-0.457,0.037-0.915,0.062-1.38,0.062
	C160.375,285.556,152.911,278.091,152.911,268.917z M176.115,311.239c0-3.581,1.168-7.002,3.22-9.811
	c0.13,0.282,0.26,0.563,0.39,0.859l11.183,25.49C182.599,326.851,176.115,319.791,176.115,311.239z M193.984,356.09
	c0-4.152,1.643-8.088,4.463-11.133l12.341,28.128C201.39,372.343,193.984,365.011,193.984,356.09z M182.676,265.441l3.107,3.097
	c2.617,2.62,6.548,3.456,9.956,2.153c1.244-0.466,2.362-1.188,3.324-2.151l3.058-3.058c2.574-2.573,6.764-2.575,9.337-0.001
	c1.246,1.246,1.933,2.906,1.933,4.674c0,1.766-0.683,3.419-1.932,4.664l-19.04,19.04l-0.11-0.11
	c-1.121-2.453-2.325-4.905-3.669-7.45c-0.044-0.088-0.09-0.175-0.138-0.261c-4.007-7.566-8.668-14.803-13.878-21.602
	c1.015-0.606,2.172-0.935,3.379-0.935C179.765,263.5,181.422,264.186,182.676,265.441z M109.724,202.881l0.204-0.188
	c1.203-1.136,2.793-1.762,4.478-1.762c1.768,0,3.428,0.687,4.674,1.932l3.073,3.073c1.777,1.801,4.148,2.792,6.679,2.792h0.001
	c2.53,0,4.902-0.992,6.642-2.757l3.058-3.058c2.574-2.574,6.764-2.574,9.338,0c1.246,1.246,1.932,2.902,1.932,4.664
	c0,1.764-0.69,3.427-1.932,4.673l-14.747,14.747c-5.436-3.344-11.1-6.361-16.903-9c-0.061-0.03-0.123-0.06-0.186-0.088
	c-0.03-0.014-0.061-0.028-0.091-0.042c-0.324-0.146-0.651-0.287-0.974-0.43l-5.229-5.236c-1.247-1.247-1.935-2.905-1.935-4.669
	C107.807,205.768,108.494,204.11,109.724,202.881z M56.944,219.259c-2.759,5.425-8.385,9.063-14.831,9.063
	c-6.481,0-12.094-3.729-14.843-9.144h25.237C53.975,219.179,55.457,219.211,56.944,219.259z M65.229,162.45l-10.187-10.187h20.38
	L65.229,162.45z M192.42,162.454l-10.191-10.191h20.384L192.42,162.454z M319.617,162.455l-10.193-10.192h20.386L319.617,162.455z
	 M446.815,162.454l-10.187-10.191h20.383L446.815,162.454z"/>
<g>
</g>
<g>
</g>
<g>
</g>
<g>
</g>
<g>
</g>
<g>
</g>
<g>
</g>
<g>
</g>
<g>
</g>
<g>
</g>
<g>
</g>
<g>
</g>
<g>
</g>
<g>
</g>
<g>
</g>
</svg>
