<?xml version="1.0" encoding="iso-8859-1"?>
<!-- Generator: Adobe Illustrator 21.0.0, SVG Export Plug-In . SVG Version: 6.00 Build 0)  -->
<svg xmlns="http://www.w3.org/2000/svg" xmlns:xlink="http://www.w3.org/1999/xlink" version="1.1" id="Capa_1" x="0px" y="0px" viewBox="0 0 511.998 511.998" style="enable-background:new 0 0 511.998 511.998;" xml:space="preserve" width="512" height="512">
<g>
	<path style="fill:#FFC89F;" d="M394.267,504.498H192.263l0,0c-0.458-23.7-14.387-45.088-35.921-54.997   c-36.014-16.573-95.813-50.023-95.813-125.192c0-112.171,107.907-155.798,107.907-155.798s-30.889-16.475-27.602-52.904   c3.653-40.487,53.492-66.31,86.915-108.108H418.77c0,0-75.951,173.801-44.078,233.223   C410.647,307.757,516.235,359.085,394.267,504.498z"/>
	<path style="fill:#F7B081;" d="M374.692,240.723C342.819,181.301,418.77,7.5,418.77,7.5h-27c0,0-75.951,173.801-44.078,233.223   c35.955,67.034,141.543,118.362,19.575,263.775h27C516.235,359.085,410.647,307.757,374.692,240.723z"/>
	<path style="fill:#FF3D43;" d="M201.015,291.23c-8.224-26.243-60.395-30.498-66.288,12.583   c-6.703,49.001,66.288,84.488,66.288,84.488s72.992-35.487,66.288-84.488C261.41,260.732,209.239,264.987,201.015,291.23z"/>
	<g>
		<path style="fill:#D72E2E;" d="M267.304,303.813c-4.063-29.698-30.116-36.899-48.605-29.912    c10.56,4.135,19.381,13.649,21.605,29.912c4.851,35.462-32.034,63.842-52.788,76.82c7.923,4.954,13.5,7.668,13.5,7.668    S274.007,352.813,267.304,303.813z"/>
	</g>
	<g>
		<path d="M439.492,318.144c-2.133-3.55-6.739-4.701-10.291-2.567c-3.551,2.133-4.7,6.74-2.567,10.291    c21.989,36.608,34.793,85.552-35.882,171.13H199.222c-3.003-23.494-18.027-44.316-39.745-54.31    c-39.257-18.066-91.448-49.994-91.448-118.379c0-39.261,13.749-74.166,40.865-103.744c2.799-3.053,2.593-7.798-0.46-10.597    c-3.053-2.799-7.798-2.593-10.597,0.46C68.105,242.861,53.03,281.176,53.03,324.309c0,34.878,12.296,65.099,36.547,89.821    c20.677,21.079,46.217,34.171,63.63,42.185c18.77,8.637,31.158,27.607,31.558,48.328c0.079,4.085,3.413,7.355,7.499,7.355h202.004    c2.217,0,4.321-0.981,5.746-2.68c34.541-41.181,53.489-77.602,57.927-111.347C461.555,370.481,455.693,345.115,439.492,318.144z"/>
		<path d="M129.263,201.481c21.989-17.779,41.795-25.939,41.985-26.017c5.782-2.338,6.222-10.635,0.719-13.571    c-0.265-0.141-26.47-14.495-23.662-45.612c2.107-23.355,22.383-42.064,45.859-63.728c12.593-11.62,25.587-23.61,37.15-37.554    h176.188c-6.566,16.068-19.297,48.697-29.916,84.707c-20.489,69.48-23.686,118.117-9.503,144.561    c7.999,14.914,18.885,28.553,30.41,42.994c3.81,4.773,7.75,9.71,11.531,14.645c2.683,3.499,7.966,3.9,11.15,0.846    c2.721-2.609,3.048-6.98,0.756-9.97c-3.872-5.052-7.858-10.047-11.713-14.877c-11.087-13.892-21.56-27.014-28.915-40.727    c-8.417-15.693-13.406-51.521,10.63-133.089c14.693-49.863,33.523-93.155,33.711-93.586c1.013-2.319,0.789-4.992-0.597-7.109    C423.66,1.276,421.3,0,418.77,0H227.749c-2.279,0-4.434,1.036-5.857,2.816c-11.412,14.272-24.878,26.698-37.9,38.714    c-24.685,22.777-48,44.292-50.627,73.403c-2.359,26.153,10.601,43.155,20.634,52.219c-8.549,4.544-20.934,11.965-34.167,22.665    c-3.221,2.604-3.721,7.327-1.117,10.548C121.319,203.586,126.042,204.084,129.263,201.481z"/>
		<path d="M201.01,379.837c-4.029-2.186-11.325-6.386-19.422-12.196c-3.365-2.415-8.052-1.645-10.466,1.722    c-2.415,3.365-1.644,8.051,1.722,10.466c13.315,9.553,24.426,14.991,24.893,15.217c2.052,0.998,4.507,0.998,6.559,0    c3.18-1.546,77.795-38.482,70.439-92.25c-3.619-26.452-22.288-37.337-38.553-38.705c-13.934-1.17-27.007,3.849-35.166,12.677    c-8.158-8.828-21.233-13.848-35.166-12.677c-16.265,1.367-34.935,12.253-38.553,38.705c-2.6,19.009,4.715,37.969,21.743,56.354    c2.813,3.039,7.559,3.221,10.599,0.406c3.039-2.814,3.221-7.56,0.406-10.599c-13.831-14.934-19.849-29.781-17.887-44.128    c2.96-21.633,18.433-25.243,24.948-25.791c12.35-1.045,23.849,5.167,26.753,14.434c0.969,3.092,3.916,5.257,7.157,5.257    c3.241,0,6.188-2.165,7.157-5.257c2.904-9.267,14.408-15.47,26.752-14.434c6.515,0.548,21.989,4.157,24.948,25.791    C265,342.31,214.529,372.477,201.01,379.837z"/>
	</g>
</g>















</svg>
