<svg height="512pt" viewBox="-17 0 512 512" width="512pt" xmlns="http://www.w3.org/2000/svg"><path d="m119.46875 187.734375h-34.132812c-9.414063.027344-17.039063 7.652344-17.070313 17.066406v17.066407c.03125 9.414062 7.65625 17.039062 17.070313 17.066406h25.597656zm0 0" fill="#ffe0b2"/><path d="m298.667969 238.933594h25.597656c9.414063-.027344 17.039063-7.652344 17.070313-17.066406v-17.066407c-.03125-9.414062-7.65625-17.039062-17.070313-17.066406h-34.132813zm0 0" fill="#bfa885"/><path d="m341.335938 469.332031v34.132813h-273.070313v-34.132813c.066406-30.054687 22.414063-55.398437 52.226563-59.21875h168.617187c29.847656 3.753907 52.230469 29.136719 52.226563 59.21875zm0 0" fill="#ad1457"/><path d="m315.734375 477.867188v25.597656h-247.46875v-34.132813c-.027344-20.652343 10.667969-39.84375 28.246094-50.6875h167c29.84375 3.757813 52.230469 29.140625 52.222656 59.222657zm0 0" fill="#e91e63"/><path d="m298.667969 503.464844h-93.867188v-98.21875l43.519531 12.800781c2.558594 29.101563 12.375 85.417969 50.347657 85.417969zm0 0" fill="#f5efca"/><path d="m204.800781 405.246094v98.21875h-93.867187c37.972656 0 47.789062-56.316406 50.347656-85.417969zm0 0" fill="#f9eab0"/><path d="m281.601562 85.332031v17.066407h-153.601562v-17.066407c.003906-37.484375 27.046875-69.5 64-75.773437 4.234375-.6875 8.511719-1.03125 12.800781-1.023438 42.386719.0625 76.734375 34.410156 76.800781 76.796875zm0 0" fill="#ffb301"/><path d="m256 85.332031v17.066407h-128v-17.066407c.003906-37.484375 27.046875-69.5 64-75.773437 36.914062 6.351562 63.914062 38.320312 64 75.773437zm0 0" fill="#fec108"/><path d="m401.066406 110.933594c-.066406 42.386718-34.410156 76.734375-76.800781 76.800781h-238.929687c-42.417969 0-76.800782-34.386719-76.800782-76.800781 0-4.714844 3.820313-8.535156 8.53125-8.535156h375.46875c4.710938 0 8.53125 3.820312 8.53125 8.535156zm0 0" fill="#f57c00"/><path d="m366.933594 110.933594c-.066406 42.386718-34.410156 76.734375-76.800782 76.800781h-204.796874c-42.417969 0-76.800782-34.386719-76.800782-76.800781 0-4.714844 3.820313-8.535156 8.53125-8.535156h341.335938c4.710937 0 8.53125 3.820312 8.53125 8.535156zm0 0" fill="#fec108"/><path d="m298.667969 187.734375v110.933594c0 51.882812-41.984375 76.796875-93.867188 76.796875-4.273437.019531-8.546875-.179688-12.800781-.59375-45.824219-3.757813-81.066406-28.671875-81.066406-76.203125v-110.933594zm0 0" fill="#bfa885"/><path d="m273.066406 187.734375v110.933594c0 47.53125-35.242187 72.445312-81.066406 76.203125-45.824219-3.757813-81.066406-28.671875-81.066406-76.203125v-110.933594zm0 0" fill="#ffe0b2"/><path d="m179.199219 373.164062v42.324219l-40.277344 5.800781c-8.027344 1.175782-15.761719-3.511718-18.429687-11.175781-.691407-1.828125-1.039063-3.765625-1.023438-5.71875v-20.394531c0-4.941406 2.144531-9.640625 5.875-12.882812 3.730469-3.242188 8.6875-4.707032 13.578125-4.011719l34.136719 4.777343.425781.085938zm0 0" fill="#f44335"/><path d="m290.132812 384v20.394531c.015626 1.953125-.332031 3.890625-1.023437 5.71875-2.667969 7.664063-10.402344 12.351563-18.429687 11.175781l-14.765626-2.132812-25.511718-3.667969v-42.324219l5.714844-1.195312.425781-.085938 19.371093-2.730468 14.765626-2.046875c4.890624-.695313 9.847656.769531 13.578124 4.011719 3.730469 3.242187 5.875 7.941406 5.875 12.882812zm0 0" fill="#c52828"/><path d="m264.535156 384v20.394531c.011719 1.953125-.332031 3.890625-1.023437 5.71875-1.339844 3.84375-4.042969 7.0625-7.597657 9.042969l-25.511718-3.667969v-42.324219l5.714844-1.195312.425781-.085938 19.371093-2.730468c5.335938 3.039062 8.625 8.707031 8.621094 14.847656zm0 0" fill="#f44335"/><path d="m179.199219 373.164062v42.324219h51.203125v-42.324219zm0 0" fill="#f44335"/><path d="m358.402344 401.066406c-14.140625 0-25.601563-11.460937-25.601563-25.601562 0-14.136719 11.460938-25.597656 25.601563-25.597656 14.136718 0 25.597656 11.460937 25.597656 25.597656 0 14.140625-11.460938 25.601562-25.597656 25.601562zm0 0" fill="#fec108"/><path d="m426.667969 384c-14.140625 0-25.601563-11.460938-25.601563-25.601562 0-14.136719 11.460938-25.597657 25.601563-25.597657 14.136719 0 25.597656 11.460938 25.597656 25.597657 0 14.140624-11.460937 25.601562-25.597656 25.601562zm0 0" fill="#fec108"/><path d="m426.667969 256c-14.140625 0-25.601563-11.460938-25.601563-25.601562 0-14.136719 11.460938-25.597657 25.601563-25.597657 14.136719 0 25.597656 11.460938 25.597656 25.597657 0 14.140624-11.460937 25.601562-25.597656 25.601562zm0 0" fill="#02a9f4"/><path d="m25.601562 426.667969c-10.355468 0-19.691406-6.238281-23.652343-15.804688-3.960938-9.566406-1.773438-20.578125 5.550781-27.898437 7.320312-7.320313 18.332031-9.511719 27.898438-5.550782 9.566406 3.964844 15.800781 13.296876 15.800781 23.652344 0 14.140625-11.460938 25.601563-25.597657 25.601563zm0 0" fill="#02a9f4"/><path d="m401.066406 110.933594c.019532 8.726562-1.480468 17.390625-4.4375 25.601562h-383.65625c-2.957031-8.210937-4.457031-16.875-4.4375-25.601562 0-4.714844 3.820313-8.535156 8.53125-8.535156h375.46875c4.710938 0 8.53125 3.820312 8.53125 8.535156zm0 0" fill="#c52828"/><path d="m366.933594 110.933594c.019531 8.726562-1.480469 17.390625-4.4375 25.601562h-349.523438c-2.957031-8.210937-4.457031-16.875-4.4375-25.601562 0-4.714844 3.820313-8.535156 8.53125-8.535156h341.335938c4.710937 0 8.53125 3.820312 8.53125 8.535156zm0 0" fill="#f44335"/><path d="m5.207031 139.996094c9.464844 25.945312 30.871094 45.726562 57.480469 53.121094-1.914062 3.597656-2.925781 7.609374-2.953125 11.683593v17.066407c0 14.136718 11.460937 25.597656 25.601563 25.597656h17.066406v51.203125c-.640625 23.246093 9.105468 45.574219 26.589844 60.910156-10.753907 3.257813-18.09375 13.1875-18.058594 24.421875v19.328125c-30.105469 7.773437-51.15625 34.910156-51.199219 66.003906v34.132813c0 4.714844 3.820313 8.535156 8.53125 8.535156h273.070313c4.710937 0 8.53125-3.820312 8.53125-8.535156v-34.132813c-.042969-31.09375-21.09375-58.230469-51.199219-66.003906v-19.328125c.027343-11.230469-7.300781-21.152344-18.039063-24.429688 17.46875-15.34375 27.207032-37.660156 26.570313-60.902343v-51.203125h17.066406c14.140625 0 25.601563-11.460938 25.601563-25.597656v-17.066407c-.027344-4.074219-1.039063-8.085937-2.953126-11.683593 26.605469-7.390626 48.007813-27.164063 57.472657-53.101563.070312-.152344.109375-.308594.171875-.460937 3.316406-9.179688 5.023437-18.863282 5.042968-28.621094 0-9.425782-7.640624-17.066406-17.066406-17.066406h-102.402344v-8.535157c-.074218-47.097656-38.234374-85.2578122-85.332031-85.332031-47.105469.0507812-85.28125 38.226562-85.332031 85.332031v8.535157h-102.402344c-9.425781 0-17.066406 7.640624-17.066406 17.066406.0234375 9.769531 1.730469 19.460937 5.050781 28.644531.070313.148437.070313.285156.15625.417969zm80.128907 90.402344c-4.714844 0-8.535157-3.820313-8.535157-8.53125v-17.066407c0-4.714843 3.820313-8.535156 8.535157-8.535156h17.066406v34.132813zm155.210937 195.175781c3.515625 31.453125 11.570313 54.894531 23.570313 69.359375h-50.78125v-70.914063h16.457031zm-60.742187-1.554688h16.460937v70.914063h-50.78125c12-14.507813 20.054687-37.90625 23.570313-69.359375zm42.0625-17.066406h-34.132813v-23.941406c11.339844 1.316406 22.792969 1.316406 34.132813 0zm-93.867188-22.953125c0-4.710938 3.820312-8.535156 8.535156-8.535156.414063 0 .832032.03125 1.246094.085937l32.886719 4.625v27.921875l-32.964844 4.746094c-4.070313.570312-7.960937-1.863281-9.234375-5.769531-.324219-.855469-.484375-1.765625-.46875-2.679688zm-51.199219 85.332031c.0625-23.601562 16.289063-44.089843 39.253907-49.550781 4.832031 6.449219 12.421874 10.238281 20.480468 10.222656 1.21875-.003906 2.4375-.09375 3.644532-.265625l11.441406-1.648437c-3.5 26.0625-13.285156 66.84375-40.6875 66.84375h-34.132813zm256 0v25.601563h-34.132812c-27.402344 0-37.1875-40.78125-40.644531-66.84375l11.441406 1.648437c1.210937.171875 2.433594.261719 3.652344.265625 8.042968-.015625 15.605468-3.808594 20.429687-10.242187 22.96875 5.464843 39.199219 25.960937 39.253906 49.570312zm-51.199219-64.9375c.003907 1.003907-.183593 2.003907-.554687 2.9375-1.339844 3.785157-5.171875 6.09375-9.148437 5.511719l-32.964844-4.746094v-27.929687l32.9375-4.617188c2.449218-.34375 4.925781.386719 6.792968 2.007813 1.863282 1.621094 2.9375 3.96875 2.9375 6.441406zm8.53125-105.726562c0 50.34375-44.082031 68.265625-85.332031 68.265625s-85.332031-17.921875-85.332031-68.265625v-102.402344h170.664062zm42.667969-93.867188v17.066407c0 4.710937-3.820312 8.53125-8.535156 8.53125h-17.066406v-34.132813h17.066406c4.714844 0 8.535156 3.820313 8.535156 8.535156zm-8.535156-25.601562h-238.929687c-24.359376-.03125-46.855469-13.039063-59.035157-34.132813h357c-12.179687 21.09375-34.675781 34.101563-59.035156 34.132813zm-187.730469-93.867188c.042969-37.683593 30.582032-68.222656 68.265625-68.265625 37.671875.070313 68.195313 30.59375 68.265625 68.265625v8.535157h-136.53125zm256 25.601563c-.023437 5.761718-.777344 11.496094-2.246094 17.066406h-370.976562c-1.46875-5.570312-2.222656-11.304688-2.246094-17.066406zm0 0"/><path d="m196.265625 281.601562c-26.996094 0-34.132813 16.742188-34.132813 25.597657.015626 4.574219 3.6875 8.296875 8.261719 8.371093h.273438c4.527343-.070312 8.242187-3.609374 8.53125-8.132812.09375-1.464844 1.367187-8.78125 17.066406-8.78125 4.714844 0 8.535156-3.820312 8.535156-8.53125 0-4.714844-3.820312-8.535156-8.535156-8.535156zm0 0"/><path d="m213.335938 281.601562c-4.714844 0-8.535157 3.820313-8.535157 8.53125 0 4.714844 3.820313 8.535157 8.535157 8.535157 15.578124 0 16.953124 7.199219 17.066406 8.738281.054687 4.710938 3.921875 8.484375 8.632812 8.429688 4.714844-.058594 8.488282-3.921876 8.433594-8.636719 0-8.855469-7.136719-25.597657-34.132812-25.597657zm0 0"/><path d="m267.707031 222.472656-42.664062-17.066406c-2.832031-1.132812-6.054688-.671875-8.453125 1.214844-2.398438 1.886718-3.609375 4.90625-3.175782 7.925781.433594 3.019531 2.445313 5.578125 5.277344 6.714844l42.667969 17.066406c1.011719.398437 2.089844.605469 3.175781.605469 4.09375.007812 7.617188-2.894532 8.394532-6.917969.773437-4.023437-1.417969-8.027344-5.222657-9.542969zm0 0"/><path d="m195.660156 210.160156c-.839844-2.101562-2.480468-3.785156-4.5625-4.675781-2.078125-.890625-4.429687-.917969-6.53125-.078125l-42.664062 17.066406c-3.804688 1.515625-5.996094 5.519532-5.222656 9.539063.773437 4.019531 4.292968 6.925781 8.386718 6.921875 1.085938 0 2.164063-.207032 3.175782-.605469l42.667968-17.066406c2.101563-.839844 3.785156-2.484375 4.675782-4.566407.890624-2.082031.917968-4.433593.074218-6.535156zm0 0"/><path d="m187.734375 247.464844c0 4.714844-3.820313 8.535156-8.535156 8.535156-4.710938 0-8.53125-3.820312-8.53125-8.535156 0-4.710938 3.820312-8.53125 8.53125-8.53125 4.714843 0 8.535156 3.820312 8.535156 8.53125zm0 0"/><path d="m238.933594 247.464844c0 4.714844-3.820313 8.535156-8.53125 8.535156-4.714844 0-8.535156-3.820312-8.535156-8.535156 0-4.710938 3.820312-8.53125 8.535156-8.53125 4.710937 0 8.53125 3.820312 8.53125 8.53125zm0 0"/><path d="m212.652344 312.492188c-.1875-.546876-.445313-1.0625-.769532-1.539063l-1.023437-1.277344c-3.421875-3.160156-8.695313-3.160156-12.117187 0l-1.023438 1.277344c-.324219.476563-.582031.992187-.769531 1.539063-.246094.480468-.417969 1-.511719 1.535156-.097656.5625-.15625 1.132812-.171875 1.707031.015625 1.113281.246094 2.214844.683594 3.242187.433593 1.03125 1.039062 1.984376 1.792969 2.816407 3.363281 3.300781 8.753906 3.300781 12.117187 0 .753906-.832031 1.359375-1.785157 1.792969-2.816407.4375-1.027343.667968-2.128906.683594-3.242187-.015626-.574219-.074219-1.144531-.171876-1.707031-.09375-.535156-.265624-1.054688-.511718-1.535156zm0 0"/><path d="m196.265625 34.132812c-9.132813-.269531-17.96875 3.242188-24.429687 9.699219-6.460938 6.460938-9.972657 15.300781-9.703126 24.433594 0 4.714844 3.820313 8.535156 8.535157 8.535156 4.710937 0 8.53125-3.820312 8.53125-8.535156-.296875-4.609375 1.402343-9.128906 4.671875-12.394531 3.265625-3.269532 7.785156-4.96875 12.394531-4.671875 4.714844 0 8.535156-3.820313 8.535156-8.53125 0-4.714844-3.820312-8.535157-8.535156-8.535157zm0 0"/><path d="m426.667969 332.800781c-14.140625 0-25.601563 11.460938-25.601563 25.597657 0 14.140624 11.460938 25.601562 25.601563 25.601562 14.136719 0 25.597656-11.460938 25.597656-25.601562v-68.265626c0-2.625-1.210937-5.105468-3.277344-6.722656-2.070312-1.617187-4.769531-2.191406-7.320312-1.554687l-68.265625 17.066406c-3.800782.949219-6.46875 4.363281-6.46875 8.277344v44.238281c-2.730469-1.011719-5.621094-1.542969-8.53125-1.570312-14.140625 0-25.601563 11.460937-25.601563 25.597656 0 14.140625 11.460938 25.601562 25.601563 25.601562 14.136718 0 25.597656-11.460937 25.597656-25.601562v-61.601563l51.199219-12.796875v33.277344c-2.734375-1-5.621094-1.523438-8.53125-1.542969zm-68.265625 51.199219c-4.714844 0-8.535156-3.820312-8.535156-8.535156 0-4.710938 3.820312-8.53125 8.535156-8.53125 4.710937 0 8.53125 3.820312 8.53125 8.53125 0 4.714844-3.820313 8.535156-8.53125 8.535156zm68.265625-17.066406c-4.714844 0-8.535157-3.820313-8.535157-8.535156 0-4.710938 3.820313-8.53125 8.535157-8.53125 4.710937 0 8.53125 3.820312 8.53125 8.53125 0 4.714843-3.820313 8.535156-8.53125 8.535156zm0 0"/><path d="m401.066406 230.398438c0 14.140624 11.460938 25.601562 25.601563 25.601562 14.136719 0 25.597656-11.460938 25.597656-25.601562v-70.644532l19.765625-6.589844c4.476562-1.488281 6.898438-6.324218 5.410156-10.800781-1.488281-4.480469-6.328125-6.902343-10.804687-5.410156l-25.597657 8.53125c-3.492187 1.164063-5.847656 4.433594-5.839843 8.117187v52.769532c-2.730469-1.011719-5.617188-1.542969-8.53125-1.570313-14.140625 0-25.601563 11.460938-25.601563 25.597657zm34.132813 0c0 4.714843-3.820313 8.535156-8.53125 8.535156-4.714844 0-8.535157-3.820313-8.535157-8.535156 0-4.710938 3.820313-8.53125 8.535157-8.53125 4.710937 0 8.53125 3.820312 8.53125 8.53125zm0 0"/><path d="m25.601562 426.667969c14.136719 0 25.597657-11.460938 25.597657-25.601563v-70.648437l19.765625-6.585938c2.894531-.964843 5.058594-3.398437 5.671875-6.390625.613281-2.988281-.414063-6.078125-2.695313-8.105468-2.285156-2.027344-5.472656-2.679688-8.371094-1.71875l-25.597656 8.535156c-3.492187 1.164062-5.847656 4.433594-5.839844 8.113281v52.769531c-2.730468-1.007812-5.617187-1.539062-8.53125-1.570312-14.140624 0-25.601562 11.464844-25.601562 25.601562 0 14.140625 11.460938 25.601563 25.601562 25.601563zm0-34.132813c4.710938 0 8.53125 3.820313 8.53125 8.53125 0 4.714844-3.820312 8.535156-8.53125 8.535156-4.714843 0-8.535156-3.820312-8.535156-8.535156 0-4.710937 3.820313-8.53125 8.535156-8.53125zm0 0"/></svg>