<svg height="511pt" viewBox="0 0 511.99976 511" width="511pt" xmlns="http://www.w3.org/2000/svg"><path d="m498.941406 498.414062c7.3125-7.3125 7.3125-19.164062 0-26.472656l-62.457031-62.460937-26.476563 26.472656 62.460938 62.460937c7.3125 7.3125 19.164062 7.3125 26.472656 0zm0 0" fill="#ffc14f"/><path d="m396.324219 471.355469c0 17.976562-14.566407 32.542969-32.539063 32.542969h-323.679687c-17.972657 0-32.539063-14.558594-32.539063-32.542969 0-81.9375 66.382813-148.703125 148.695313-148.703125h91.367187c82.300782 0 148.695313 66.765625 148.695313 148.703125zm0 0" fill="#7c3f2c"/><path d="m396.324219 471.355469c0 17.976562-14.566407 32.542969-32.539063 32.542969h-293.417968c-17.972657 0-32.539063-14.558594-32.539063-32.542969 0-30.605469 9.257813-59.089844 25.144531-82.765625 15.292969-22.785156 36.71875-41.125 61.945313-52.625 18.761719-8.542969 39.613281-13.3125 61.605469-13.3125h61.105468c13.566406 0 26.679688 1.8125 39.160156 5.214844h.007813c21.09375 5.738281 40.300781 15.996093 56.53125 29.675781 32.429687 27.304687 52.996094 68.207031 52.996094 113.8125zm0 0" fill="#954c35"/><path d="m278.910156 325.9375-76.964844 97.402344-76.957031-97.402344c10.078125-2.148438 20.539063-3.285156 31.273438-3.285156h91.367187c10.734375 0 21.203125 1.136718 31.28125 3.285156zm0 0" fill="#7c3f2c"/><g fill="#e3a76f"><path d="m142.214844 211.667969c0 21.195312-17.183594 38.382812-38.382813 38.382812s-38.382812-17.1875-38.382812-38.382812c0-21.199219 17.183593-38.382813 38.382812-38.382813s38.382813 17.183594 38.382813 38.382813zm0 0"/><path d="m334.40625 211.671875c0 21.199219-17.183594 38.382813-38.382812 38.382813-21.199219 0-38.382813-17.183594-38.382813-38.382813 0-21.195313 17.183594-38.382813 38.382813-38.382813 21.199218 0 38.382812 17.1875 38.382812 38.382813zm0 0"/><path d="m301.738281 144.148438v94.871093c0 27.546875-19.144531 52.503907-41.445312 70.558594-15.3125 12.40625-32.128907 21.566406-45.234375 26.074219-5.980469 2.058594-11.183594 3.15625-15.128906 3.15625-25.21875-.007813-101.808594-44.683594-101.808594-99.789063v-94.871093c0-56.226563 45.582031-101.808594 101.808594-101.808594 5.144531 0 10.199218.382812 15.128906 1.117187 49.054687 7.304688 86.679687 49.609375 86.679687 100.691407zm0 0"/></g><path d="m301.738281 144.148438v94.871093c0 27.546875-19.144531 52.503907-41.445312 70.558594-15.3125 12.40625-32.128907 21.566406-45.234375 26.074219-32.195313-11.09375-86.675782-50.152344-86.675782-96.632813v-94.871093c0-51.082032 37.625-93.386719 86.675782-100.691407 49.054687 7.304688 86.679687 49.609375 86.679687 100.691407zm0 0" fill="#f2bb88"/><path d="m310.011719 117.5-185.949219.167969-30.269531.03125 40.914062-99.5c3.316407-8.078125 10.1875-11.921875 16.59375-9.289063l9.824219 4.042969 2.378906.980469c25.066406 10.308594 51.738282 10.320312 76.804688.011718l12.285156-5.046874c6.40625-2.632813 13.277344 1.210937 16.59375 9.292968zm0 0" fill="#954c35"/><path d="m326.085938 368.738281-16.683594-12.417969c-6.433594-4.789062-15.675782-1.128906-17.078125 6.78125l-2.660157 14.976563c-.617187 3.492187-2.90625 6.457031-6.132812 7.929687l-74.707031 34.1875-6.878907 3.144532-6.878906-3.144532-74.695312-34.1875c-3.230469-1.472656-5.527344-4.4375-6.144532-7.929687l-2.664062-14.976563c-1.402344-7.910156-10.628906-11.570312-17.074219-6.78125l-12.601562 9.382813c-7.039063 6.96875-13.375 14.636719-18.914063 22.886719 3.453125 4.175781 9.886719 5.507812 14.839844 1.816406l16.675781-12.417969c6.445313-4.789062 15.671875-1.128906 17.074219 6.78125l2.664062 14.976563c.617188 3.492187 2.914063 6.457031 6.144532 7.929687l74.695312 34.183594 6.878906 3.148437 6.878907-3.148437 74.707031-34.183594c3.226562-1.472656 5.515625-4.4375 6.132812-7.929687l2.660157-14.976563c1.402343-7.910156 10.644531-11.570312 17.078125-6.78125l16.683594 12.417969c7.023437 5.234375 17.019531.375 17.242187-8.371094v-21.667968c-.222656 8.746093-10.21875 13.605468-17.242187 8.371093zm0 0" fill="#7c3f2c"/><path d="m310.011719 117.5-185.957031.199219.007812-.03125 37.0625-104.714844 2.378906.980469c25.066406 10.308594 51.738282 10.320312 76.804688.011718l12.285156-5.046874c6.40625-2.632813 13.277344 1.210937 16.59375 9.292968zm0 0" fill="#ae583e"/><path d="m201.945312 423.339844-6.878906-3.144532-74.695312-34.1875c-3.230469-1.472656-5.527344-4.4375-6.144532-7.929687l-2.664062-14.976563c-1.402344-7.910156-10.628906-11.570312-17.074219-6.78125l-16.675781 12.417969c-7.019531 5.234375-17.015625.375-17.25-8.371093l-.007812-80.617188-.183594-12.507812c-.121094-7.617188 9.503906-11.046876 14.234375-5.0625l122.648437 155.21875zm0 0" fill="#ae583e"/><path d="m343.527344 267.242188-.191406 12.507812-.007813 80.617188c-.222656 8.746093-10.21875 13.605468-17.242187 8.371093l-16.683594-12.417969c-6.433594-4.789062-15.675782-1.128906-17.078125 6.78125l-2.660157 14.976563c-.617187 3.492187-2.90625 6.457031-6.132812 7.929687l-74.707031 34.1875-6.878907 3.144532 4.691407-5.941406 122.660156-155.21875c4.71875-5.984376 14.34375-2.554688 14.230469 5.0625zm0 0" fill="#ae583e"/><path d="m341.199219 142.3125h-278.503907c-9.902343 0-18.003906-8.101562-18.003906-18.003906s8.101563-18.003906 18.003906-18.003906h278.503907c9.902343 0 18.003906 8.101562 18.003906 18.003906 0 9.898437-8.101563 18.003906-18.003906 18.003906zm0 0" fill="#7c3f2c"/><path d="m463.933594 380.964844c0 45.53125-36.910156 82.4375-82.441406 82.4375s-82.441407-36.90625-82.441407-82.4375 36.910157-82.441406 82.441407-82.441406 82.441406 36.910156 82.441406 82.441406zm0 0" fill="#f29500"/><path d="m430.480469 403.117188c-6.71875 14.855468-19.359375 25.175781-33.863281 29.433593-11.902344 3.5-25.078126 2.914063-37.273438-2.601562-27.050781-12.238281-39.066406-44.082031-26.832031-71.136719 11.1875-24.742188 38.785156-36.90625 64.117187-29.433594 2.359375.695313 4.699219 1.5625 7.007813 2.601563 27.054687 12.238281 39.070312 44.082031 26.84375 71.136719zm0 0" fill="#d2d2d7"/><path d="m430.480469 403.117188c-6.71875 14.855468-19.359375 25.175781-33.863281 29.433593-2.359376-.695312-4.699219-1.5625-7.011719-2.601562-27.054688-12.238281-39.066407-44.082031-26.832031-71.136719 6.71875-14.859375 19.347656-25.175781 33.855468-29.433594 2.359375.695313 4.699219 1.5625 7.007813 2.601563 27.054687 12.238281 39.070312 44.082031 26.84375 71.136719zm0 0" fill="#ebebf0"/><path d="m200.738281 259.964844c26.785157 0 35.839844-35.433594 20.304688-35.433594-4.179688 0-7.5625 3.386719-7.5625 7.566406 0 7.023438-5.71875 12.738282-12.742188 12.738282-7.023437 0-12.738281-5.714844-12.738281-12.738282 0-4.179687-3.386719-7.566406-7.566406-7.566406-15.386719 0-6.589844 35.433594 20.304687 35.433594zm0 0"/><path d="m161.355469 202.574219c0 6.660156-5.398438 12.0625-12.0625 12.0625-6.660157 0-12.0625-5.402344-12.0625-12.0625 0-6.660157 5.402343-12.0625 12.0625-12.0625 6.664062 0 12.0625 5.402343 12.0625 12.0625zm0 0"/><path d="m165.382812 182.273438c3.761719 1.832031 8.285157.261718 10.113282-3.488282 1.832031-3.753906.269531-8.285156-3.484375-10.113281-25.472657-12.417969-47.894531-4.140625-48.835938-3.785156-3.90625 1.488281-5.867187 5.855469-4.382812 9.761719 1.488281 3.90625 5.859375 5.863281 9.761719 4.382812.167968-.066406 17.171874-6.335938 36.828124 3.242188zm0 0"/><path d="m260.78125 202.574219c0 6.660156-5.398438 12.0625-12.0625 12.0625-6.660156 0-12.0625-5.402344-12.0625-12.0625 0-6.660157 5.402344-12.0625 12.0625-12.0625 6.664062 0 12.0625 5.402343 12.0625 12.0625zm0 0"/><path d="m235.4375 184.863281c.167969-.097656 17.007812-9.757812 33.691406-7.925781 4.160156.453125 7.890625-2.542969 8.34375-6.695312.453125-4.15625-2.542968-7.890626-6.695312-8.34375-21.746094-2.382813-42.128906 9.40625-42.984375 9.90625-3.597657 2.113281-4.800781 6.734374-2.699219 10.335937 2.097656 3.59375 6.726562 4.824219 10.34375 2.722656zm0 0"/><path d="m504.296875 466.59375-43.324219-43.324219c6.878906-12.871093 10.53125-27.316406 10.53125-42.304687 0-62.511719-62.121094-105.777344-120.601562-84.703125.332031-52.683594-.078125 11.550781.191406-29.152344 0-14.585937-18.5625-21.222656-27.738281-9.621094l-47.53125 60.160157c-3.773438-.695313-7.578125-1.25-11.417969-1.664063 18.171875-14.050781 36.738281-36.226563 42.699219-59.726563 20-4.953124 34.871093-23.070312 34.871093-44.585937 0-20.71875-13.789062-38.28125-32.675781-43.988281v-17.804688h31.898438c14.101562 0 25.570312-11.46875 25.570312-25.570312 0-14.101563-11.46875-25.574219-25.570312-25.574219h-30.726563l-16.351562-39.773437c-1.582032-3.863282-6-5.707032-9.863282-4.125-3.863281 1.59375-5.710937 6.011718-4.128906 9.875 18.425782 44.808593 12.515625 30.429687 13.992188 34.023437-12.269532 0-95.191406 0-112.550782 0-4.1875 0-7.566406 3.390625-7.566406 7.566406 0 4.1875 3.378906 7.566407 7.566406 7.566407h107.609376 52.019531c5.757812 0 10.4375 4.679687 10.4375 10.441406 0 5.757812-4.679688 10.4375-10.4375 10.4375-13.542969 0-269.460938 0-278.507813 0-5.75 0-10.441406-4.679688-10.441406-10.4375 0-5.761719 4.691406-10.441406 10.441406-10.441406h88.617188c4.175781 0 7.5625-3.378907 7.5625-7.566407 0-4.175781-3.386719-7.566406-7.5625-7.566406-25.324219 0-27.472656 0-41.539063 0 6.140625-14.929687 25.976563-63.167969 31.933594-77.660156 1.332031-3.246094 3.550781-5.425781 5.519531-5.425781 4.40625 0 23.515625 13.585937 54.703125 13.585937 31.335938 0 50.230469-13.597656 54.742188-13.597656 1.976562 0 4.1875 2.179687 5.527343 5.429687l6.4375 15.652344c1.582032 3.863281 6 5.710938 9.863282 4.128906 3.863281-1.59375 5.710937-6.015625 4.125-9.878906l-6.433594-15.652344c-4.835938-11.769531-15.914062-17.722656-26.46875-13.417968-6.328125 1.527343-39.453125 23.085937-83.332031 5.035156-10.601563-4.050782-13.5-6.417969-19.164063-6.417969-8.292968 0-15.765625 5.679687-19.507812 14.808594l-34.296875 83.410156h-30.726563c-14.089844 0-25.570312 11.472656-25.570312 25.574219 0 14.101562 11.480468 25.570312 25.570312 25.570312h27.859375v17.792969c-18.882812 5.71875-32.671875 23.28125-32.671875 44 0 21.515625 14.871094 39.621094 34.871094 44.585937 5.96875 23.539063 24.542969 45.753907 43.234375 60.140626-2.664063.339843-5.296875.753906-7.917969 1.238281l-47.53125-60.148438c-9.167968-11.59375-27.730468-4.984375-27.730468 9.621094.230468 103.265625.1875 84.871094.191406 87.0625-32.480469 28.648437-52.996094 70.5625-52.996094 117.183594 0 22.113281 17.996094 40.105469 40.105469 40.105469h323.679687c20.96875 0 40.832032-16.445313 40.0625-43.273438 6.953125-1.765625 13.640625-4.355469 19.953125-7.734375l43.316407 43.3125c10.25 10.25 26.878906 10.289063 37.171874 0h.007813c10.25-10.25 10.292969-26.878906 0-37.171875zm-168.332031-199.460938c-.265625 49.707032-.175782 32.5625-.195313 36.273438-16.332031 9.640625-30.167969 24.933594-37.792969 43.90625-6.648437 1.867188-11.84375 7.386719-13.105468 14.464844-2.898438 13.890625-1.808594 16.140625-4.488282 17.351562l-53.039062 24.269532c113.449219-143.570313 108.621094-138.109376 108.621094-136.265626zm-26.671875-27.652343c.015625-.261719.007812 1.789062.007812-55.609375 23.363281 11.183594 23.351563 44.429687-.007812 55.609375zm-218.742188-55.617188c0 59.101563-.003906 55.382813.011719 55.617188-23.402344-11.222657-23.332031-44.457031-.011719-55.617188zm18.289063 73.472657c-4.539063-13.339844-3.15625-12.761719-3.15625-107.457032h188.488281c0 96.105469 1.222656 94.628906-3.167969 107.457032-8.039062 23.59375-30.148437 44.304687-51.292968 57.75-26.53125 16.890624-39.679688 16.125-39.785157 16.160156-20.3125 0-77.21875-33.230469-91.085937-73.910156zm47.136718 72.878906c29.144532 17.402344 43.855469 16.117187 44.050782 16.160156 10.863281-.039062 27.378906-6.324219 43.851562-16.160156 2.382813.058594 10.117188-.289063 21.160156 1.070312l-63.09375 79.839844-63.085937-79.839844c5.609375-.695312 11.328125-1.058594 17.117187-1.070312zm-88.039062-63.105469c0-1.796875-4.898438-7.371094 108.609375 136.289063-54.179687-25.355469-54.296875-23.46875-54.875-26.640626l-2.652344-14.980468c-2.398437-13.457032-18.144531-19.648438-29.050781-11.519532-17.46875 12.761719-16.792969 13.074219-18.570312 13.074219-1.632813 0-3.210938-1.277343-3.269532-3.097656.0625-3.105469-.164062-81.8125-.191406-93.125zm-52.808594 204.246094c0-39.058594 15.949219-74.453125 41.671875-100.023438 5.976563 7.75 17.296875 9.609375 25.519531 3.480469 17.527344-12.789062 16.769532-13.0625 18.582032-13.0625 1.320312 0 2.894531.835938 3.21875 2.671875l2.652344 14.980469c1.058593 5.941406 4.960937 10.984375 10.449218 13.484375 14.3125 6.550781 62.835938 28.761719 77.160156 35.316406v68.128906h-154.277343c-13.769531 0-24.976563-11.207031-24.976563-24.976562zm373.628906 0c0 13.769531-11.207031 24.976562-24.972656 24.976562h-154.273437v-68.128906l77.164062-35.316406c1.957031-.886719 3.703125-2.105469 5.195313-3.570313 4.398437 48.324219 47.023437 85.347656 96.886718 81.363282zm-82.136718-90.390625c0-66.429688 80.511718-99.714844 127.519531-53.238282 26.921875 26.617188 29.347656 68.335938 7.605469 97.722657-44.015625 59.03125-135.125 26.28125-135.125-44.484375zm179.085937 115.367187c-2.984375 0-5.78125-1.160156-7.886719-3.269531l-41.046874-41.042969c5.984374-4.675781 11.425781-10.191406 15.765624-15.789062l41.054688 41.054687c7.015625 7.015625 1.992188 19.046875-7.886719 19.046875zm0 0"/><path d="m350.890625 327.847656c-43.375 24.9375-40.003906 88.492188 5.335937 108.988282 31.308594 14.195312 67.445313-.277344 81.144532-30.601563 24.546875-55.125-35.785156-107.675781-86.480469-78.386719zm11.570313 95.210938c-28.117188-12.710938-36.226563-49.207032-15.714844-72.515625 28.132812-32.316407 80.949218-11.835938 80.949218 30.453125 0 33.066406-34.339843 55.988281-65.234374 42.0625zm0 0"/></svg>