<?xml version="1.0" encoding="iso-8859-1"?>
<!-- Generator: Adobe Illustrator 19.0.0, SVG Export Plug-In . SVG Version: 6.00 Build 0)  -->
<svg xmlns="http://www.w3.org/2000/svg" xmlns:xlink="http://www.w3.org/1999/xlink" version="1.1" id="Layer_1" x="0px" y="0px" viewBox="0 0 512.001 512.001" style="enable-background:new 0 0 512.001 512.001;" xml:space="preserve" width="512" height="512">
<g>
	<g>
		<circle style="fill:#FC7176;" cx="274.777" cy="244.063" r="229.723"/>
		<circle style="fill:#FAB3CE;" cx="274.777" cy="244.063" r="169.477"/>
		<path style="fill:#E6676C;" d="M247.225,156.325c-41.564,0-84.912,19.509-118.928,53.526    c-46.605,46.604-64.33,109.539-46.955,158.18c21.391,33.309,51.157,60.718,86.315,79.285c2.792-2.674,5.514-5.572,8.148-8.73    c0.926-1.11,1.84-2.244,2.741-3.4c0.89,0.019,1.781,0.028,2.674,0.028c0.003,0,0,0,0.003,0c41.561,0,84.907-19.508,118.917-53.519    c28.053-28.053,46.482-62.86,51.895-98.01c5.854-38.023-4.476-73.519-28.342-97.386    C304.363,166.97,277.207,156.325,247.225,156.325z"/>
		<path style="fill:#E381A5;" d="M247.225,156.325c-41.564,0-84.912,19.509-118.928,53.526c-8.619,8.619-16.243,17.798-22.847,27.34    c-0.091,2.281-0.15,4.569-0.15,6.872c0,88.529,67.883,161.191,154.435,168.806c14.35-8.304,28-18.769,40.405-31.174    c28.053-28.053,46.482-62.86,51.895-98.01c5.854-38.023-4.476-73.519-28.342-97.386    C304.363,166.97,277.207,156.325,247.225,156.325z"/>
		<path style="fill:#F5F5F5;" d="M149.51,231.064c-44.076,44.076-56.915,104.29-32.551,141.842    c-1.607,9.268-4.593,18.304-11.329,24.763c-6.099,5.847-14.524,8.713-22.448,11.097c-12.778,3.844-25.917,6.74-37.856,12.905    c-24.529,12.507-34.904,36.949-37.757,63.158c-0.591,5.426,2.734,10.682,8.147,12.327c6.121,1.861,12.591-1.593,14.451-7.713    c2.592-8.526,5.526-17.071,11.06-24.193c7.877-10.079,19.699-13.043,31.885-14.344c30.084-3.213,59.033-6.81,79.655-31.535    c3.988-4.782,7.682-10.123,10.968-15.791c35.776,6.941,80.487-8.392,115.194-43.098c48.745-48.745,59.29-117.232,23.552-152.97    C266.742,171.774,198.255,182.319,149.51,231.064z"/>
	</g>
	<g>
		<path d="M167.368,346.293c2.853,2.853,7.701,2.905,10.606,0c2.929-2.929,2.929-7.678,0-10.606l-7.851-7.851    c-2.929-2.929-7.678-2.929-10.606,0c-2.929,2.929-2.929,7.678,0,10.607C159.517,338.443,167.366,346.292,167.368,346.293z"/>
		<path d="M254.124,259.537c2.896,2.896,7.714,2.893,10.606,0c2.929-2.929,2.929-7.678,0-10.606l-7.851-7.851    c-2.928-2.929-7.677-2.929-10.606,0c-2.929,2.929-2.929,7.678,0,10.607C246.274,251.686,254.12,259.532,254.124,259.537z"/>
		<path d="M204.294,315.255c7.878,0.528,15.689-2.588,21.25-8.15c5.703-5.703,8.673-13.448,8.148-21.249    c-0.277-4.133-3.851-7.257-7.985-6.98c-4.133,0.277-7.258,3.853-6.98,7.986c0.234,3.482-1.147,6.995-3.79,9.637    c-2.643,2.643-6.152,4.024-9.638,3.79c-4.127-0.278-7.708,2.848-7.985,6.98C197.036,311.402,200.161,314.977,204.294,315.255z"/>
		<path d="M13.533,504.341c9.985,3.036,20.776-2.731,23.809-12.708c2.313-7.607,4.975-15.554,9.793-21.756    c5.236-6.7,12.993-10.033,26.772-11.505c22.101-2.361,46.455-4.977,66.994-18.455c39.524,27.086,85.692,41.378,133.876,41.378    c63.365,0,122.937-24.676,167.742-69.481s69.481-104.377,69.481-167.742S487.325,121.136,442.52,76.33    S338.142,6.849,274.778,6.849c-37.833,0-73.996,8.646-107.481,25.697c-31.93,16.258-60.254,40.006-81.912,68.676    c-2.497,3.305-1.841,8.008,1.464,10.505c3.306,2.498,8.009,1.841,10.505-1.464c20.295-26.866,46.834-49.118,76.749-64.351    c31.358-15.967,65.23-24.063,100.675-24.063c59.358,0,115.163,23.115,157.135,65.088c41.973,41.972,65.088,97.777,65.088,157.135    s-23.115,115.163-65.088,157.136c-41.972,41.973-97.777,65.088-157.135,65.088c-43.624,0-85.482-12.499-121.657-36.237    c4.557-4.503,8.651-9.686,12.252-14.981c0.726-1.069,1.441-2.158,2.142-3.263c4.58,0.63,9.236,0.939,13.952,0.939    c9.549,0,19.322-1.282,29.094-3.743c20.476,7.982,42.065,12.039,64.217,12.039c29.684,0,59.057-7.5,84.943-21.688    c3.632-1.991,4.963-6.549,2.972-10.182c-1.99-3.632-6.547-4.963-10.182-2.972c-23.682,12.98-50.562,19.842-77.733,19.842    c-13.905,0-27.566-1.742-40.819-5.189c13.449-6.016,26.486-14.207,38.589-24.358c28.836-24.185,51.429-58.416,57.251-96.233    c5.821-37.811-8.594-77.591-45.147-93.917c-44.016-19.66-96.126,0.678-130.422,30.132c-15.005,12.886-27.99,28.33-37.826,45.502    c-0.052,0.091-1.525,2.656-2.154,3.825c-0.963-7.182-1.449-14.443-1.449-21.739c0-89.314,72.663-161.978,161.978-161.978    s161.978,72.663,161.978,161.978c0,49.029-21.867,94.894-59.994,125.834c-3.216,2.61-3.708,7.333-1.098,10.55    c2.61,3.217,7.334,3.708,10.55,1.098c41.653-33.802,65.542-83.912,65.542-137.482c0-97.586-79.392-176.978-176.978-176.978    S97.8,146.486,97.8,244.072c0,15.565,2.048,30.991,6.042,45.902c-1.409,4.259-2.627,8.538-3.59,12.823    c-1.871,8.329-2.852,16.524-2.96,24.455c-0.239,17.448,3.743,33.618,11.751,47.127c-0.904,4.273-2.187,8.57-4.375,12.376    c-0.036,0.063-0.07,0.127-0.106,0.189c-33.599-39.987-52.008-90.386-52.008-142.872c0-38.222,9.876-75.927,28.561-109.038    c2.036-3.607,0.762-8.182-2.846-10.218s-8.183-0.762-10.218,2.846c-19.951,35.356-30.497,75.61-30.497,116.41    c0,56.214,19.792,110.174,55.888,152.929c-16.328,8.114-35.146,9.647-51.523,17.997c-23.752,12.111-38.208,35.98-41.806,69.028    C-0.879,493.132,4.765,501.676,13.533,504.341z M15.025,485.65c3.067-28.173,14.408-47.447,33.742-57.306    c10.48-5.344,21.965-8.152,33.204-11.398c10.196-2.944,21.001-6.342,28.85-13.855c9.157-8.779,12.107-20.695,13.529-28.895    c0.319-1.84-0.081-3.797-1.098-5.364c-7.396-11.4-11.112-25.495-10.968-40.952c0.274-29.44,13.636-57.676,32.131-80.056    c24.947-30.188,62.665-53.991,102.812-53.991c38.404,0,68.566,29.506,68.986,67.97c0.002,0.237,0.004,0.475,0.005,0.712    c0.125,40.609-24.159,78.832-54.92,103.78c-26.254,21.292-61.834,36.584-96.134,29.93c-3.06-0.594-6.349,0.895-7.917,3.601    c-5.258,9.07-11.677,17.69-19.962,24.214c-18.325,14.431-41.976,16.96-64.97,19.416c-11.972,1.279-26.998,4.388-37.01,17.2    c-6.401,8.238-9.593,17.665-12.313,26.614c-0.635,2.089-2.956,3.37-5.094,2.719C16.021,489.42,14.813,487.595,15.025,485.65z"/>
	</g>
</g>















</svg>
