<svg height="512pt" viewBox="-32 0 511 512" width="512pt" xmlns="http://www.w3.org/2000/svg"><path d="m437.015625 95.542969c1.777344-.734375 2.164063-3.152344.703125-4.40625-13.382812-11.445313-30.730469-19.734375-50.445312-22.882813-19.710938-3.148437-38.777344-.671875-55.058594 6.039063-1.78125.730469-2.164063 3.152343-.703125 4.402343 13.382812 11.449219 30.726562 19.734376 50.441406 22.882813s38.78125.675781 55.0625-6.035156zm0 0" fill="#ffc269"/><path d="m437.71875 91.136719c-13.382812-11.445313-30.730469-19.734375-50.445312-22.882813-19.710938-3.148437-38.777344-.671875-55.058594 6.039063-.890625.367187-1.429688 1.152343-1.566406 2.007812l107.933593 17.234375c.136719-.855468-.132812-1.773437-.863281-2.398437zm0 0" fill="#ffa95f"/><path d="m436.628906 232.925781c2.519532.734375 4.992188-1.515625 4.5-4.09375-4.5-23.59375-15.910156-47.203125-34.226562-67.355469-18.316406-20.152343-40.730469-33.761718-63.789063-40.488281-2.519531-.734375-4.996093 1.515625-4.503906 4.089844 4.5 23.597656 15.914063 47.207031 34.230469 67.359375s40.730468 33.757812 63.789062 40.488281zm0 0" fill="#ffc269"/><path d="m441.128906 228.832031c-4.5-23.59375-15.910156-47.203125-34.226562-67.355469-18.316406-20.152343-40.730469-33.761718-63.789063-40.488281-1.261719-.367187-2.507812.011719-3.382812.804688l100.277343 110.328125c.875-.792969 1.367188-2 1.121094-3.289063zm0 0" fill="#ffa95f"/><path d="m355.882812 370.707031-84.15625-24.75c-10.191406-2.996093-17.195312-12.355469-17.195312-22.980469v-53.9375h-111.78125v53.9375c0 10.625-7.003906 19.980469-17.195312 22.980469l-84.152344 24.75c-20.390625 5.996094-34.390625 24.710938-34.390625 45.960938v85.878906h383.261719v-85.875c0-21.253906-14.003907-39.96875-34.390626-45.964844zm0 0" fill="#e3aa75"/><path d="m355.882812 370.707031-84.15625-24.75c-2.242187-.660156-4.296874-1.675781-6.191406-2.894531-10.457031 26.757812-36.429687 45.746094-66.894531 45.746094s-56.4375-18.988282-66.894531-45.746094c-1.894532 1.21875-3.949219 2.234375-6.195313 2.894531l-84.152343 24.75c-20.390626 5.996094-34.390626 24.710938-34.390626 45.960938v85.878906h383.265626v-85.878906c0-21.25-14.003907-39.964844-34.390626-45.960938zm0 0" fill="#c38c66"/><path d="m198.640625 446.652344c56.15625 0 103.738281-36.28125 120.871094-86.640625l-47.78125-14.054688c-2.246094-.660156-4.300781-1.671875-6.195313-2.894531-10.457031 26.757812-36.429687 45.746094-66.894531 45.746094s-56.4375-18.988282-66.894531-45.746094c-1.894532 1.222656-3.949219 2.234375-6.191406 2.894531l-47.78125 14.054688c17.128906 50.359375 64.710937 86.640625 120.867187 86.640625zm0 0" fill="#b57f5f"/><path d="m182.671875 414.714844h31.9375v87.832031h-31.9375zm0 0" fill="#ffc250"/><path d="m182.671875 445.5625c5.238281.65625 10.550781 1.089844 15.96875 1.089844s10.730469-.433594 15.96875-1.089844v-30.847656h-31.9375zm0 0" fill="#ffa95f"/><path d="m142.75 313.875c16.898438 8.25 35.816406 13.007812 55.890625 13.007812s38.992187-4.757812 55.890625-13.007812v-44.835938h-111.78125zm0 0" fill="#d29b6e"/><path d="m198.640625 302.929688c-57.324219 0-103.796875-46.472657-103.796875-103.796876v-95.816406h207.597656v95.816406c0 57.324219-46.472656 103.796876-103.800781 103.796876zm0 0" fill="#f5b97d"/><path d="m294.457031 127.269531v-23.953125h-199.617187v95.8125c0 57.328125 46.472656 103.800782 103.800781 103.800782 5.445313 0 10.75-.542969 15.96875-1.351563-49.722656-7.699219-87.832031-50.566406-87.832031-102.449219v-47.90625c0-13.230468 10.726562-23.953125 23.957031-23.953125zm0 0" fill="#e3aa75"/><path d="m94.839844 326.886719v-63.878907l23.957031-159.691406h-23.957031c-17.636719 0-31.9375 14.296875-31.9375 31.9375v191.632813l-9.46875 47.339843c-3.199219 16 7.382812 31.390626 23.664062 32.445313 17.398438 1.132813 30.804688-14.480469 27.449219-31.261719zm0 0" fill="#5a4650"/><path d="m198.640625 7.5c-61.738281 0-111.785156 32.175781-111.785156 71.863281h223.570312c0-39.6875-50.046875-71.863281-111.785156-71.863281zm0 0" fill="#5a4650"/><path d="m62.902344 263.007812h31.9375v63.878907h-31.9375zm0 0" fill="#ffd064"/><path d="m62.902344 302.929688h31.9375v23.957031h-31.9375zm0 0" fill="#ffc250"/><path d="m302.441406 326.886719v-63.878907l-23.953125-159.691406h23.953125c17.636719 0 31.9375 14.296875 31.9375 31.9375v191.632813l9.46875 47.339843c3.199219 16-7.382812 31.390626-23.664062 32.449219-17.398438 1.128907-30.804688-14.484375-27.449219-31.261719zm0 0" fill="#5a4650"/><path d="m302.441406 263.007812h31.9375v63.878907h-31.9375zm0 0" fill="#ffd064"/><path d="m302.441406 302.929688h31.9375v23.957031h-31.9375zm0 0" fill="#ffc250"/><path d="m302.441406 103.316406h-207.601562c-8.820313 0-15.96875-7.152344-15.96875-15.96875 0-8.820312 7.152344-15.96875 15.96875-15.96875h207.601562c8.820313 0 15.96875 7.148438 15.96875 15.96875 0 8.816406-7.148437 15.96875-15.96875 15.96875zm0 0" fill="#ffc250"/><path d="m198.640625 420.746094c44.609375 0 82.535156-28.195313 97.214844-67.691406l-24.128907-7.097657c-2.242187-.660156-4.296874-1.675781-6.191406-2.894531-10.457031 26.757812-36.429687 45.746094-66.894531 45.746094s-56.4375-18.988282-66.894531-45.746094c-1.894532 1.21875-3.949219 2.234375-6.195313 2.894531l-24.125 7.097657c14.683594 39.496093 52.605469 67.691406 97.214844 67.691406zm0 0" fill="#ffd064"/><path d="m302.441406 103.316406h-167.675781v-31.9375h167.675781c8.820313 0 15.96875 7.148438 15.96875 15.96875 0 8.816406-7.148437 15.96875-15.96875 15.96875zm0 0" fill="#ffd064"/><path d="m151.726562 167.675781c-4.144531 0-7.5 3.359375-7.5 7.5v7.984375c0 4.144532 3.355469 7.5 7.5 7.5 4.140626 0 7.5-3.355468 7.5-7.5v-7.984375c0-4.140625-3.359374-7.5-7.5-7.5zm0 0"/><path d="m255.039062 183.160156v-7.984375c0-4.140625-3.355468-7.5-7.5-7.5-4.140624 0-7.5 3.359375-7.5 7.5v7.984375c0 4.144532 3.359376 7.5 7.5 7.5 4.144532 0 7.5-3.355468 7.5-7.5zm0 0"/><path d="m170.410156 236.40625c6.441406 6.355469 17.363282 10.148438 29.222656 10.148438 11.859376 0 22.78125-3.792969 29.222657-10.148438 2.945312-2.90625 2.980469-7.65625.070312-10.605469-2.910156-2.949219-7.660156-2.980469-10.605469-.070312-2.722656 2.6875-9.25 5.824219-18.6875 5.824219s-15.964843-3.136719-18.6875-5.824219c-2.949218-2.910157-7.699218-2.875-10.605468.070312-2.910156 2.949219-2.878906 7.699219.070312 10.605469zm0 0"/><path d="m143.738281 158.722656h23.957031c4.140626 0 7.5-3.359375 7.5-7.5s-3.359374-7.5-7.5-7.5h-23.957031c-4.140625 0-7.5 3.359375-7.5 7.5s3.359375 7.5 7.5 7.5zm0 0"/><path d="m231.570312 158.722656h23.953126c4.144531 0 7.5-3.359375 7.5-7.5s-3.355469-7.5-7.5-7.5h-23.953126c-4.140624 0-7.5 3.359375-7.5 7.5s3.359376 7.5 7.5 7.5zm0 0"/><path d="m124.414062 213.824219 15.972657 7.984375c1.074219.539062 2.21875.792968 3.347656.792968 2.75 0 5.398437-1.519531 6.710937-4.148437 1.855469-3.703125.351563-8.207031-3.351562-10.0625l-15.96875-7.984375c-3.707031-1.851562-8.210938-.351562-10.0625 3.355469-1.851562 3.703125-.351562 8.210937 3.351562 10.0625zm0 0"/><path d="m248.816406 218.453125c1.3125 2.628906 3.960938 4.148437 6.714844 4.148437 1.125 0 2.269531-.253906 3.347656-.792968l15.96875-7.984375c3.703125-1.855469 5.207032-6.359375 3.351563-10.0625-1.851563-3.707031-6.355469-5.207031-10.058594-3.355469l-15.96875 7.984375c-3.707031 1.855469-5.207031 6.359375-3.355469 10.0625zm0 0"/><path d="m447.675781 230.421875c-2.339843-27.03125-13.871093-53.207031-32.476562-73.707031-18.007813-19.84375-41.957031-33.578125-67.671875-38.917969l-21.59375-23.792969c.625-2.113281.96875-4.347656.96875-6.65625 0-1.210937-.09375-2.402344-.269532-3.5625l1.007813.144532c14.382813 13.8125 33.222656 22.976562 53.359375 25.875 4.628906.664062 9.285156.992187 13.929688.992187 16.429687 0 32.675781-4.117187 46.855468-12.011719 2.046875-1.136718 3.445313-3.167968 3.777344-5.484375.332031-2.320312-.4375-4.660156-2.078125-6.328125-14.601563-14.835937-34.210937-24.671875-55.226563-27.691406-20.132812-2.890625-40.789062.597656-58.484374 9.800781l-11.027344-1.585937c-1.574219-18.367188-14.339844-35.222656-36.351563-47.800782-22.226562-12.699218-51.621093-19.695312-82.761719-19.695312-31.144531 0-60.539062 6.996094-82.765624 19.695312-22.886719 13.078126-35.777344 30.78125-36.484376 50.007813-4.910156 4.304687-8.019531 10.613281-8.019531 17.644531 0 5.011719 1.582031 9.65625 4.269531 13.472656-12.0625 6.753907-20.242187 19.652344-20.242187 34.433594v190.886719l-7.347656 36.746094-8.769531 2.582031c-23.417969 6.886719-39.773438 28.746094-39.773438 53.152344v85.878906c0 4.140625 3.359375 7.5 7.5 7.5s7.5-3.359375 7.5-7.5v-85.878906c0-17.800782 11.929688-33.742188 29.007812-38.765625l1.863282-.546875c-.136719 7.964844 2.332031 15.730468 7.144531 22.007812 5.871094 7.652344 14.421875 12.210938 24.085937 12.839844.753907.050781 1.507813.074219 2.257813.074219 9.746094 0 18.882813-4.113281 25.335937-11.488281 3.691407-4.210938 6.195313-9.144532 7.445313-14.386719 6.695313 8.378906 14.613281 15.800781 23.582031 22.027343 12.148438 8.4375 25.683594 14.265626 39.9375 17.320313v74.84375c0 4.140625 3.359375 7.5 7.5 7.5s7.5-3.359375 7.5-7.5v-72.664063c2.804688.210938 5.628906.316407 8.46875.316407s5.664063-.105469 8.46875-.316407v72.664063c0 4.140625 3.359375 7.5 7.5 7.5s7.5-3.359375 7.5-7.5v-74.839844c14.113282-3.027343 27.523438-8.773437 39.582032-17.074219 9.109374-6.273437 17.152343-13.777343 23.941406-22.269531 1.246094 5.242188 3.753906 10.167969 7.441406 14.378907 6.457031 7.375 15.589844 11.488281 25.335938 11.488281.75 0 1.503906-.023438 2.261718-.074219 9.660156-.625 18.214844-5.1875 24.082032-12.839844 4.8125-6.273437 7.285156-14.042968 7.144531-22.007812l1.867187.550781c17.078125 5.023437 29.003906 20.960937 29.003906 38.765625v85.875c0 4.140625 3.359376 7.5 7.5 7.5 4.144532 0 7.5-3.359375 7.5-7.5v-85.878906c0-24.40625-16.355468-46.265625-39.773437-53.152344l-8.769531-2.582031-7.347656-36.742188v-170.164062c5.601562 15.730469 14.335937 30.441406 25.746093 43.011719 18.601563 20.5 43.539063 34.511718 70.222657 39.453124.453124.082032.910156.125 1.363281.125 1.847656 0 3.648437-.683593 5.042969-1.949218 1.734374-1.570313 2.632812-3.863282 2.433593-6.199219zm-136.742187 88.964844v-48.878907h16.9375v48.878907zm-239.539063 0v-48.878907h16.9375v48.878907zm201.625-208.570313 17.867188 119.105469c-13.21875 39.230469-49.726563 65.507813-91.253907 65.507813-20.90625 0-40.789062-6.582032-57.5-19.039063-15.628906-11.652344-27.546874-28.101563-33.753906-46.46875l17.863282-119.105469zm54.851563 144.691406h-17.980469l-21.703125-144.691406h15.246094c13.476562 0 24.4375 10.960938 24.4375 24.4375zm-220.613282 90.257813-3.925781-19.625v-62.574219l1.039063-6.929687c7.445312 12.28125 17.246094 23.167969 28.800781 31.777343 1.011719.757813 2.039063 1.480469 3.066406 2.199219v34.316407c0 7.25-4.855469 13.742187-11.808593 15.785156zm43.980469-20.835937v-25.542969c14.972657 7.257812 31.390625 11.042969 48.394531 11.042969 17.203126 0 33.648438-3.914063 48.390626-11.007813v25.507813c0 8.558593 3.550781 16.554687 9.390624 22.347656-8.535156 17.375-24.480468 30.082031-43.472656 34.390625-4.664062 1.058593-9.476562 1.59375-14.308594 1.59375-24.886718 0-47.015624-13.957031-57.785156-35.980469 5.84375-5.792969 9.390625-13.792969 9.390625-22.351562zm111.785157 0v-34.230469c12.789062-8.847657 23.699218-20.363281 31.886718-33.949219l1.023438 6.816406v62.578125l-3.925782 19.621094-17.171874-5.046875c-6.953126-2.046875-11.8125-8.539062-11.8125-15.789062zm123.101562-250.800782c14.355469 2.0625 27.507812 7.601563 38.574219 16.171875-13.035157 5.105469-27.210938 6.71875-41.566407 4.652344-7.625-1.09375-14.90625-3.179687-21.71875-6.171875l16.203126 2.332031c.363281.050781.722656.074219 1.078124.074219 3.667969 0 6.875-2.695312 7.414063-6.433594.589844-4.097656-2.257813-7.898437-6.355469-8.488281l-16.207031-2.332031c7.378906-.949219 14.953125-.902344 22.578125.195312zm-298.761719 13.21875c0-4.671875 3.796875-8.46875 8.46875-8.46875h159.691407c4.144531 0 7.5-3.359375 7.5-7.5 0-4.144531-3.355469-7.5-7.5-7.5h-159.203126c7.023438-27.167968 51.476563-48.878906 103.3125-48.878906 51.835938 0 96.289063 21.710938 103.3125 48.878906h-15.480468c-4.140625 0-7.5 3.355469-7.5 7.5 0 4.140625 3.359375 7.5 7.5 7.5h15.96875c4.667968 0 8.46875 3.796875 8.46875 8.46875 0 4.667969-3.800782 8.46875-8.46875 8.46875h-207.601563c-4.671875 0-8.46875-3.800781-8.46875-8.46875zm8.46875 23.46875h15.246094l-21.707031 144.691406h-17.976563v-120.253906c0-13.476562 10.960938-24.4375 24.4375-24.4375zm-1.917969 282.042969c-3.855468 4.40625-9.449218 6.71875-15.339843 6.328125-5.285157-.34375-9.957031-2.828125-13.152344-7-3.5-4.558594-4.824219-10.570312-3.640625-16.492188l8.261719-41.3125h19.640625l8.5 42.5c1.148437 5.742188-.40625 11.566407-4.269532 15.976563zm105.71875 22.339844c-19.738281 0-38.707031-5.925781-54.855468-17.136719-14.042969-9.753906-25.113282-22.871094-32.3125-38.191406l16.195312-4.765625c.097656-.027344.191406-.066407.289063-.097657 5.925781 11.601563 14.597656 21.5625 25.417969 29.089844 13.328124 9.265625 28.976562 14.164063 45.265624 14.164063 5.945313 0 11.875-.660157 17.625-1.964844 23.019532-5.222656 42.40625-20.4375 53.058594-41.285156.097656.027343.1875.066406.285156.09375l16.191407 4.765625c-15.839844 33.785156-49.464844 55.328125-87.160157 55.328125zm134.210938-23.011719c-3.199219 4.171875-7.871094 6.660156-13.152344 7-5.898437.386719-11.484375-1.921875-15.339844-6.328125-3.863281-4.410156-5.417968-10.230469-4.269531-15.976563l8.5-42.496093h19.640625l8.261719 41.3125c1.183594 5.917969-.144531 11.929687-3.640625 16.488281zm45.878906-203.273438c-10.441406-11.503906-18.214844-24.628906-23.085937-38.761718l24.351562 26.832031c1.480469 1.628906 3.515625 2.457031 5.558594 2.457031 1.796875 0 3.601563-.640625 5.035156-1.945312 3.066407-2.78125 3.296875-7.527344.515625-10.59375l-24.355468-26.832032c13.597656 6.214844 25.910156 15.222657 36.351562 26.726563 14.222656 15.671875 23.519531 34.339844 27.230469 54.488281-19.695313-5.640625-37.378907-16.699218-51.601563-32.371094zm0 0"/></svg>