<svg height="511pt" viewBox="0 -24 511.99925 511" width="511pt" xmlns="http://www.w3.org/2000/svg"><path d="m485.550781 55.984375c-5.359375-27.367187-29.484375-48.007813-58.414062-47.984375l-69.980469.054688.046875 59.476562 118.847656-.09375c6.054688-.007812 10.664063-5.515625 9.5-11.453125zm0 0" fill="#f4bc8e"/><path d="m396.851562 56.054688c-1.160156 5.941406 3.457032 11.445312 9.515626 11.441406l-49.164063.039062-.046875-59.480468 69.976562-.058594c4.832032-.003906 9.53125.570312 14.03125 1.65625-22.429687 5.4375-39.890624 23.601562-44.3125 46.402344zm0 0" fill="#efa66f"/><path d="m427.933594 7.996094c-32.84375.027344-59.453125 26.679687-59.425782 59.53125l.167969 205.332031c0 2.554687-1.011719 5.007813-2.816406 6.8125l-20.847656 20.882813c-3.753907 3.761718-3.75 9.859374.011719 13.613281l20.882812 20.851562c1.804688 1.800781 2.820312 4.25 2.824219 6.800781l.042969 55.371094c.027343 32.851563-26.582032 59.503906-59.433594 59.53125l-204.605469.164063-.210937-109.695313c-.003907-2.136718.792968-4.195312 2.234374-5.769531l6.90625-7.566406c4.128907-4.523438 2.304688-11.789063-3.46875-13.832031-3.414062-1.207032-5.699218-4.433594-5.699218-8.054688l-.074219-244.226562c-.027344-32.851563 26.582031-59.503907 59.433594-59.53125zm0 0" fill="#fbdbb7"/><path d="m427.933594 7.996094c-32.84375.027344-59.453125 26.679687-59.425782 59.53125l.167969 205.335937c0 2.550781-1.007812 5-2.816406 6.808594l-20.847656 20.882813c-3.753907 3.757812-3.746094 9.859374.011719 13.613281l20.878906 20.847656c1.8125 1.808594 2.824218 4.253906 2.828125 6.804687l.042969 55.371094c.027343 32.851563-26.582032 59.503906-59.433594 59.527344l-19.714844.019531c32.847656-.027343 59.460938-26.679687 59.433594-59.53125l-.046875-55.371093c0-2.550782-1.015625-4.996094-2.828125-6.804688l-20.878906-20.847656c-3.757813-3.753906-3.761719-9.855469-.011719-13.613282l20.847656-20.882812c1.808594-1.8125 2.816406-4.257812 2.816406-6.808594l-.167969-205.335937c-.027343-32.851563 26.582032-59.503907 59.425782-59.53125zm0 0" fill="#f4bc8e"/><path d="m240.828125 397.300781c4.773437-.003906 8.902344 3.46875 9.558594 8.199219 4.023437 28.960938 28.894531 51.246094 58.957031 51.21875l-243.25.199219c-28.929688.023437-53.054688-20.617188-58.414062-47.984375-1.164063-5.9375 3.445312-11.449219 9.496093-11.453125zm0 0" fill="#f4bc8e"/><path d="m451.796875 278.453125c0 59.765625-48.449219 108.214844-108.210937 108.214844-59.765626 0-108.214844-48.449219-108.214844-108.214844s48.449218-108.214844 108.214844-108.214844c59.761718 0 108.210937 48.449219 108.210937 108.214844zm0 0" fill="#f1eded"/><path d="m356.324219 278.453125c0 7.035156-5.703125 12.742187-12.738281 12.742187-7.039063 0-12.742188-5.707031-12.742188-12.742187 0-7.039063 5.703125-12.742187 12.742188-12.742187 7.035156 0 12.738281 5.703124 12.738281 12.742187zm0 0" fill="#fc4830"/><path d="m343.089844 117.046875c-85.207032 0-155.195313 66.371094-161.003906 150.128906l-1.867188-1.863281c-6.457031-6.457031-16.921875-6.457031-23.375 0-6.457031 6.453125-6.457031 16.921875 0 23.375l29.765625 29.765625c3.097656 3.101563 7.304687 4.84375 11.6875 4.84375s8.585937-1.742187 11.6875-4.84375l29.765625-29.765625c6.457031-6.453125 6.457031-16.917969 0-23.375-6.453125-6.457031-16.921875-6.457031-23.375 0l-1.058594 1.054688c6.113282-65.125 61.082032-116.261719 127.777344-116.261719 70.769531 0 128.347656 57.578125 128.347656 128.347656 0 70.773437-57.578125 128.347656-128.347656 128.347656-9.128906 0-16.53125 7.402344-16.53125 16.53125 0 9.128907 7.402344 16.53125 16.53125 16.53125 89 0 161.40625-72.40625 161.40625-161.410156 0-89-72.40625-161.40625-161.410156-161.40625zm0 0" fill="#00df97"/><path d="m343.585938 212.226562c4.140624 0 7.5-3.355468 7.5-7.5v-8.5625c0-4.140624-3.359376-7.5-7.5-7.5-4.144532 0-7.5 3.359376-7.5 7.5v8.5625c0 4.144532 3.355468 7.5 7.5 7.5zm0 0"/><path d="m343.585938 339.9375c-4.144532 0-7.5 3.355469-7.5 7.5v8.5625c0 4.140625 3.355468 7.5 7.5 7.5 4.140624 0 7.5-3.359375 7.5-7.5v-8.5625c0-4.144531-3.359376-7.5-7.5-7.5zm0 0"/><path d="m423.503906 283.582031c4.140625 0 7.5-3.359375 7.5-7.5s-3.359375-7.5-7.5-7.5h-8.566406c-4.140625 0-7.5 3.359375-7.5 7.5s3.359375 7.5 7.5 7.5zm0 0"/><path d="m272.230469 268.582031h-8.5625c-4.144531 0-7.5 3.359375-7.5 7.5s3.355469 7.5 7.5 7.5h8.5625c4.140625 0 7.5-3.359375 7.5-7.5s-3.359375-7.5-7.5-7.5zm0 0"/><path d="m394.039062 233.125c1.921876 0 3.839844-.730469 5.304688-2.195312l6.054688-6.054688c2.929687-2.929688 2.929687-7.679688 0-10.605469-2.929688-2.929687-7.679688-2.929687-10.605469 0l-6.054688 6.054688c-2.929687 2.929687-2.929687 7.675781 0 10.605469 1.464844 1.464843 3.382813 2.195312 5.300781 2.195312zm0 0"/><path d="m287.828125 321.234375-6.058594 6.054687c-2.925781 2.929688-2.925781 7.675782 0 10.605469 1.464844 1.464844 3.386719 2.195313 5.304688 2.195313s3.839843-.730469 5.304687-2.195313l6.054688-6.054687c2.925781-2.929688 2.925781-7.679688 0-10.605469-2.929688-2.929687-7.679688-2.929687-10.605469 0zm0 0"/><path d="m399.34375 321.234375c-2.929688-2.929687-7.679688-2.929687-10.609375 0-2.925781 2.929687-2.925781 7.675781 0 10.605469l6.058594 6.054687c1.464843 1.464844 3.382812 2.199219 5.300781 2.199219 1.921875 0 3.839844-.734375 5.304688-2.195312 2.929687-2.929688 2.929687-7.679688 0-10.609376zm0 0"/><path d="m287.828125 230.929688c1.464844 1.464843 3.382813 2.195312 5.300781 2.195312 1.917969 0 3.839844-.730469 5.304688-2.195312 2.929687-2.929688 2.925781-7.679688 0-10.609376l-6.054688-6.054687c-2.929687-2.929687-7.675781-2.925781-10.609375 0-2.925781 2.929687-2.925781 7.679687 0 10.609375zm0 0"/><path d="m372.550781 270.953125h-10.183593c-2.058594-5.140625-6.164063-9.238281-11.308594-11.292969.011718-.15625.023437-.308594.023437-.464844v-31.710937c0-4.140625-3.355469-7.5-7.5-7.5-4.140625 0-7.5 3.359375-7.5 7.5v31.710937c0 .15625.015625.308594.023438.464844-7.464844 2.984375-12.761719 10.273438-12.761719 18.792969 0 11.160156 9.078125 20.242187 20.238281 20.242187 8.511719 0 15.796875-5.289062 18.785157-12.742187h10.183593c4.140625 0 7.5-3.359375 7.5-7.5s-3.359375-7.5-7.5-7.5zm-28.964843 12.742187c-2.890626 0-5.242188-2.351562-5.242188-5.242187s2.351562-5.242187 5.242188-5.242187c2.886718 0 5.238281 2.351562 5.238281 5.242187 0 2.886719-2.351563 5.242187-5.238281 5.242187zm0 0"/><path d="m512 278.453125c0-37.34375-12.003906-72.769531-34.707031-102.445313-2.519531-3.292968-7.226563-3.917968-10.515625-1.398437-3.289063 2.515625-3.917969 7.222656-1.398438 10.511719 20.683594 27.039062 31.621094 59.308594 31.621094 93.332031 0 84.863281-69.042969 153.90625-153.910156 153.90625-4.976563 0-9.027344-4.050781-9.027344-9.027344 0-4.980469 4.050781-9.03125 9.027344-9.03125 74.910156 0 135.847656-60.941406 135.847656-135.847656s-60.9375-135.847656-135.847656-135.847656c-33.996094 0-66.554688 12.671875-91.671875 35.679687-24.953125 22.855469-40.425781 53.890625-43.570313 87.378906-.292968 3.148438 1.417969 6.144532 4.277344 7.488282 2.859375 1.347656 6.257812.753906 8.496094-1.484375l1.054687-1.054688c1.707031-1.707031 3.972657-2.644531 6.382813-2.644531 2.414062 0 4.679687.9375 6.386718 2.644531 3.519532 3.519531 3.519532 9.25 0 12.769531l-29.765624 29.765626c-1.707032 1.707031-3.972657 2.644531-6.386719 2.644531-2.410157 0-4.679688-.9375-6.382813-2.644531l-29.765625-29.765626c-1.707031-1.707031-2.644531-3.972656-2.644531-6.382812 0-2.414062.9375-4.679688 2.644531-6.386719s3.972657-2.644531 6.382813-2.644531c2.414062 0 4.679687.9375 6.386718 2.644531l1.863282 1.867188c2.078125 2.078125 5.179687 2.75 7.933594 1.722656 2.753906-1.03125 4.648437-3.574219 4.851562-6.507813 5.570312-80.269531 73.003906-143.148437 153.527344-143.148437 37.089844 0 72.945312 13.4375 100.957031 37.839844 3.125 2.722656 7.863281 2.394531 10.582031-.726563 2.722656-3.125 2.394532-7.863281-.726562-10.582031-22.339844-19.457031-49.21875-32.554687-77.859375-38.269531l-.03125-37.75 24.808593-.058594c4.140626-.011719 7.492188-3.375 7.480469-7.519531-.007812-4.136719-3.363281-7.480469-7.5-7.480469-.003906 0-.011719 0-.015625 0l-24.242187.054688c3.589843-25.007813 25.046875-44.324219 50.984375-44.546876 24.652344.164063 45.925781 17.734376 50.660156 41.917969.152344.78125-.15625 1.359375-.441406 1.707031-.25.300782-.796875.804688-1.699219.808594l-42.589844.03125c-4.144531.003906-7.5 3.363282-7.496093 7.507813.003906 4.140625 3.359374 7.492187 7.5 7.492187h.007812l42.589844-.03125c5.15625-.003906 9.992187-2.292968 13.273437-6.28125 3.253907-3.957031 4.558594-9.101562 3.578125-14.117187-6.042968-30.851563-32.945312-53.339844-64.292968-54.007813-.226563-.023437-.453126-.035156-.6875-.035156h-.003907l-264.078125.210938c-36.933594.03125-66.960937 30.105468-66.929687 67.035156l.027343 90.097656c0 4.144531 3.359376 7.5 7.5 7.5 4.144532 0 7.5-3.359375 7.5-7.503906l-.027343-90.101563c-.023438-28.664062 23.277343-52 51.941406-52.023437l221.882813-.175782c-15.101563 12.300782-24.753907 31.046876-24.734376 52l.035157 42.980469c-5.941407-.640625-11.933594-.96875-17.953125-.96875-84.132813 0-155.253906 62.554688-167.148438 144.582031-2.363281-.765624-4.855468-1.160156-7.414062-1.160156-6.417969 0-12.449219 2.5-16.988282 7.039063-9.371093 9.367187-9.371093 24.613281 0 33.984375l29.765626 29.761718c4.539062 4.539063 10.570312 7.039063 16.992187 7.039063 6.417969 0 12.453125-2.5 16.992187-7.035156l16.28125-16.28125c5.84375 22.570312 18.457032 43.027343 36.285157 58.472656 21.007812 18.195313 47.902343 28.21875 75.730469 28.21875 6.011718 0 11.917968-.460937 17.683593-1.351563l.003907 4.382813c0 .246094-.015626.492187-.015626.738281-5.925781.898438-11.992187 1.363282-18.164062 1.363282-13.25 0-24.03125 10.78125-24.03125 24.03125 0 8.996093 4.972656 16.847656 12.308594 20.964843-6.835938 3.207031-14.335938 4.921875-22.035156 4.925781-.015626 0-.027344 0-.039063 0-25.808594 0-47.9375-19.230468-51.480469-44.753906-1.160156-8.363281-8.457031-14.667968-16.976562-14.667968-.003906 0-.011719 0-.015625 0l-128.71875.105468-.082031-42.71875c0-.261718.097656-.515625.273437-.707031l6.90625-7.570313c3.640625-3.984374 5.027344-9.488281 3.714844-14.722656s-5.132813-9.433594-10.222657-11.230468c-.417968-.148438-.699218-.546876-.699218-.988282l-.039063-121.46875c0-4.140625-3.355469-7.496094-7.5-7.496094s-7.5 3.359376-7.5 7.5l.039063 121.472657c.003906 6.785156 4.304687 12.863281 10.703125 15.125.132812.042969.53125.1875.671875.734375.136718.546875-.152344.863281-.246094.964844l-6.90625 7.566406c-2.710938 2.96875-4.199219 6.820312-4.195312 10.84375l.082031 42.707031-79.933594.066406c-5.15625.003907-9.996094 2.292969-13.273437 6.277344-3.257813 3.957031-4.558594 9.105469-3.578126 14.117187 6.132813 31.324219 33.769532 54.042969 65.726563 54.042969h.054687l243.25-.199219h.003907c16.582031-.015624 32.480469-6.132812 44.78125-17.230468 88.007812-5.714844 157.863281-79.121094 157.863281-168.542969zm-287.085938-25.28125c5.214844-24.402344 17.933594-46.691406 36.636719-63.828125 22.34375-20.46875 51.300781-31.738281 81.539063-31.738281 6.113281 0 12.121094.460937 17.992187 1.339843l.003907 5.117188c-5.710938-.871094-11.554688-1.324219-17.5-1.324219-27.828126 0-54.722657 10.023438-75.730469 28.21875-18.792969 16.28125-31.789063 38.128907-37.167969 62.15625-.867188-.09375-1.742188-.144531-2.625-.144531-1.0625 0-2.113281.066406-3.148438.203125zm52.761719 101.4375c-17.835937-15.449219-29.679687-36.648437-33.460937-59.78125l.835937-.835937c9.371094-9.371094 9.371094-24.617188 0-33.984376-.132812-.132812-.269531-.257812-.40625-.386718 4.199219-22.175782 15.828125-42.421875 33.03125-57.324219 18.28125-15.835937 41.691407-24.558594 65.910157-24.558594 55.53125 0 100.710937 45.179688 100.710937 100.714844s-45.179687 100.714844-100.710937 100.714844c-24.222657 0-47.628907-8.722657-65.910157-24.558594zm98.589844 34.847656c47.941406-14.136719 83.03125-58.546875 83.03125-111.003906 0-52.523437-35.175781-96.980469-83.210937-111.058594l-.003907-5.210937c50.652344 14.390625 87.855469 61.066406 87.855469 116.269531 0 55.132813-37.113281 101.761719-87.667969 116.214844zm-310.175781 59.960938c-.015625 0-.027344 0-.042969 0-24.800781 0-46.25-17.625-51.007813-41.925781-.152343-.777344.15625-1.359376.441407-1.707032.25-.300781.796875-.804687 1.703125-.804687l223.652344-.179688c1.074218 0 1.984374.742188 2.125 1.726563 2.398437 17.289062 11.40625 32.335937 24.246093 42.726562zm0 0"/><path d="m183.890625 109.835938v-27.683594c0-4.140625-3.355469-7.5-7.5-7.5h-24.390625c-4.140625 0-7.5 3.359375-7.5 7.5v27.683594c0 4.144531 3.359375 7.5 7.5 7.5h24.390625c4.144531 0 7.5-3.355469 7.5-7.5zm-15-7.5h-9.390625v-12.683594h9.390625zm0 0"/><path d="m174.164062 160.453125v-21.453125c0-4.140625-3.359374-7.5-7.5-7.5-4.140624 0-7.5 3.359375-7.5 7.5v3.496094c-2.363281-.652344-5-.132813-6.972656 1.617187-3.101562 2.746094-3.390625 7.488281-.640625 10.585938l9.5 10.726562c1.453125 1.640625 3.507813 2.527344 5.617188 2.527344.890625 0 1.789062-.160156 2.65625-.488281 2.914062-1.105469 4.839843-3.894532 4.839843-7.011719zm0 0"/><path d="m162.238281 182.804688c-4.140625 0-7.5 3.359374-7.5 7.5v19.5c0 4.140624 3.359375 7.5 7.5 7.5s7.5-3.359376 7.5-7.5v-19.5c0-4.140626-3.359375-7.5-7.5-7.5zm0 0"/><path d="m234.023438 96.273438c-4.140626 0-7.5 3.359374-7.5 7.5 0 4.144531 3.359374 7.5 7.5 7.5h12.902343c4.140625 0 7.5-3.355469 7.5-7.5v-23.320313c0-4.140625-3.359375-7.5-7.5-7.5h-31.453125c-4.140625 0-7.5 3.359375-7.5 7.5v34.234375c0 4.140625 3.359375 7.5 7.5 7.5s7.5-3.359375 7.5-7.5v-26.734375h16.453125v8.320313zm0 0"/></svg>