<?xml version="1.0" encoding="iso-8859-1"?>
<!-- Generator: Adobe Illustrator 21.0.0, SVG Export Plug-In . SVG Version: 6.00 Build 0)  -->
<svg xmlns="http://www.w3.org/2000/svg" xmlns:xlink="http://www.w3.org/1999/xlink" version="1.1" id="Capa_1" x="0px" y="0px" viewBox="0 0 510.756 510.756" style="enable-background:new 0 0 510.756 510.756;" xml:space="preserve" width="512" height="512">
<g>
	<path style="fill:#FFCA28;" d="M132.772,215.908L23.959,107.095c-22.78-22.78-22.78-59.715,0-82.495l0,0   c22.78-22.78,59.715-22.78,82.495,0l108.813,108.813c22.78,22.78,22.78,59.715,0,82.495l0,0   C192.487,238.689,155.552,238.689,132.772,215.908z"/>
	<path style="fill:#FFA000;" d="M215.267,133.413L106.454,24.6C89.892,8.038,65.853,3.53,45.207,11.05   c7.752,2.823,15.029,7.332,21.248,13.55l108.813,108.813c22.78,22.781,22.78,59.715,0,82.495h0   c-6.219,6.219-13.495,10.727-21.248,13.55c20.646,7.52,44.686,3.012,61.248-13.55h0   C238.048,193.128,238.048,156.193,215.267,133.413z"/>
	<path style="fill:#EF5350;" d="M315.085,416.724l78.921-136.696c15.562-26.954,50.027-36.189,76.981-20.627l3.428,1.979   c26.954,15.562,36.189,50.027,20.627,76.981l-78.921,136.696c-15.562,26.954-50.027,36.189-76.981,20.627l-3.428-1.979   C308.759,478.143,299.524,443.677,315.085,416.724z"/>
	<path style="fill:#D32F2F;" d="M474.415,261.38l-3.428-1.979c-3.598-2.077-7.331-3.699-11.134-4.909   c14.41,17.615,17.242,42.992,5.189,63.869l-78.921,136.696c-13.485,23.356-41.161,33.394-65.847,25.536   c4.194,5.128,9.361,9.603,15.438,13.112l3.428,1.979c26.954,15.562,61.419,6.327,76.981-20.627l78.921-136.696   C510.604,311.407,501.369,276.942,474.415,261.38z"/>
	<path style="fill:#42A5F5;" d="M495.042,338.361c15.562-26.954,6.327-61.419-20.627-76.981l-3.428-1.979   c-26.954-15.562-61.419-6.327-76.981,20.627l-39.461,68.348l101.036,58.333L495.042,338.361z"/>
	<path style="fill:#1976D2;" d="M474.415,261.38l-1.979-1.143l-1.449-0.837c-0.003-0.002-0.006-0.003-0.009-0.005   c-0.881-0.509-1.771-0.989-2.667-1.443c-0.131-0.067-0.264-0.124-0.395-0.19c-0.791-0.393-1.584-0.774-2.385-1.126   c-0.062-0.027-0.124-0.051-0.186-0.078c-1.81-0.789-3.642-1.479-5.492-2.068c14.41,17.615,17.242,42.992,5.189,63.869   l-40.621,70.357l31.16,17.99l39.461-68.348c5.813-10.068,8.163-21.185,7.425-31.973c-0.126-1.847-0.34-3.685-0.646-5.505   c-0.149-0.89-0.32-1.775-0.512-2.656C498.053,283.249,488.734,269.647,474.415,261.38z"/>
	
		<rect x="61.28" y="106.652" transform="matrix(0.7071 -0.7071 0.7071 0.7071 -49.9986 119.8008)" style="fill:#FFA000;" width="116.666" height="27.203"/>
	<circle style="fill:#90CAF9;" cx="137.911" cy="386.079" r="99.298"/>
	<path style="fill:#42A5F5;" d="M161.153,289.523c22.022,18.213,36.055,45.745,36.055,76.555c0,54.841-44.457,99.298-99.298,99.298   c-8.005,0-15.786-0.954-23.242-2.742c17.176,14.205,39.212,22.742,63.242,22.742c54.841,0,99.298-44.457,99.298-99.298   C237.208,339.243,204.78,299.987,161.153,289.523z"/>
	<circle style="fill:#EF5350;" cx="354.676" cy="139.586" r="66.214"/>
	<path style="fill:#D32F2F;" d="M374.981,76.557c9.91,11.575,15.909,26.597,15.909,43.029c0,36.569-29.645,66.214-66.214,66.214   c-7.085,0-13.905-1.125-20.305-3.185c12.144,14.184,30.168,23.185,50.305,23.185c36.569,0,66.214-29.645,66.214-66.214   C420.89,110.102,401.614,85.131,374.981,76.557z"/>
	<path style="fill:#42A5F5;" d="M51.916,435.727c2.638,4.569,5.584,8.848,8.797,12.828l169.903-98.093   c-1.84-4.772-4.073-9.464-6.711-14.032c-2.638-4.569-5.584-8.848-8.797-12.828L45.205,421.695   C47.046,426.467,49.279,431.159,51.916,435.727z"/>
	<g>
		<path d="M128.105,221.212c25.726,25.726,67.371,25.731,93.102,0c25.668-25.668,25.668-67.434,0-93.102    c-0.825-0.825-104.086-104.086-108.813-108.813c-25.726-25.727-67.371-25.732-93.102,0c-25.668,25.668-25.668,67.434,0,93.102    L128.105,221.212z M210.6,210.605c-19.864,19.864-52.021,19.868-71.889,0L99.225,171.12l6.517-6.517    c2.929-2.929,2.929-7.678,0-10.606c-2.929-2.929-7.678-2.929-10.606,0l-6.517,6.517l-8.629-8.629l71.889-71.889l8.629,8.629    l-40.623,40.623c-2.929,2.929-2.929,7.678,0,10.606c2.929,2.929,7.678,2.929,10.606,0l40.623-40.623l39.485,39.485    C230.419,158.536,230.419,190.785,210.6,210.605z M29.898,29.904c19.82-19.819,52.068-19.82,71.889,0l39.485,39.485    l-71.889,71.889l-39.485-39.485C10.034,81.928,10.03,49.772,29.898,29.904z"/>
		<path d="M478.801,254.884l-3.428-1.979c-30.562-17.645-69.578-7.194-87.226,23.372l-8.084,14.002    c-2.071,3.587-0.842,8.174,2.745,10.245c3.587,2.071,8.174,0.842,10.245-2.745l8.084-14.002    c13.5-23.383,43.349-31.384,66.736-17.881l3.428,1.979c23.329,13.469,31.351,43.407,17.882,66.736l-35.711,61.853l-88.046-50.833    l10.127-17.54c2.071-3.587,0.842-8.174-2.745-10.245c-3.587-2.072-8.174-0.842-10.245,2.745l-53.337,92.383    c-17.645,30.561-7.195,69.579,23.372,87.226l3.428,1.979c30.616,17.677,69.614,7.133,87.226-23.372l78.921-136.695    C519.778,311.619,509.294,272.489,478.801,254.884z M410.262,471.306c-13.5,23.382-43.35,31.385-66.736,17.882l-3.428-1.979    c-23.382-13.5-31.384-43.35-17.882-66.736l35.71-61.853l88.046,50.833L410.262,471.306z"/>
		<path d="M355.312,213.3c40.646,0,73.714-33.068,73.714-73.714c0-40.646-33.068-73.714-73.714-73.714s-73.714,33.068-73.714,73.714    C281.598,180.233,314.666,213.3,355.312,213.3z M355.312,80.872c32.375,0,58.714,26.339,58.714,58.714    S387.687,198.3,355.312,198.3s-58.714-26.339-58.714-58.714S322.937,80.872,355.312,80.872z"/>
		<path d="M138.547,279.281c-58.888,0-106.797,47.909-106.797,106.798c0,58.75,47.787,106.797,106.797,106.797    c58.889,0,106.798-47.909,106.798-106.797C245.344,327.326,197.555,279.281,138.547,279.281z M138.547,294.281    c25.583,0,48.751,10.523,65.414,27.464L99.722,381.927c-3.587,2.071-4.816,6.658-2.745,10.245    c2.077,3.599,6.668,4.811,10.245,2.745l106.485-61.479c3.061,4.357,5.751,8.992,8.029,13.858L63.386,438.719    c-3.061-4.357-5.751-8.992-8.029-13.858l21.555-12.445c3.587-2.071,4.816-6.658,2.745-10.245    c-2.071-3.588-6.659-4.817-10.245-2.745l-19.335,11.163c-2.165-7.806-3.328-16.024-3.328-24.51    C46.749,335.461,87.929,294.281,138.547,294.281z M138.547,477.876c-25.583,0-48.751-10.523-65.414-27.464l153.884-88.845    c2.165,7.806,3.328,16.025,3.328,24.511C230.344,436.696,189.164,477.876,138.547,477.876z"/>
	</g>
</g>















</svg>
