<?xml version="1.0" encoding="iso-8859-1"?>
<!-- Generator: Adobe Illustrator 19.0.0, SVG Export Plug-In . SVG Version: 6.00 Build 0)  -->
<svg xmlns="http://www.w3.org/2000/svg" xmlns:xlink="http://www.w3.org/1999/xlink" version="1.1" id="Capa_1" x="0px" y="0px" viewBox="0 0 511.995 511.995" style="enable-background:new 0 0 511.995 511.995;" xml:space="preserve" width="512" height="512">
<g>
	<path style="fill:#EBEAE6;" d="M435.32,74.388l44.963,366.194c1.169,9.523-5.607,18.179-15.115,19.347L103.27,504.364   c-9.508,1.167-18.178-5.592-19.347-15.115L31.713,64.03c-1.169-9.523,5.607-18.179,15.115-19.347L349.701,7.495L435.32,74.388z"/>
	<path style="fill:#C9C5B5;" d="M412.987,77.13l44.963,366.194c1.169,9.523-5.607,18.179-15.115,19.347l22.332-2.742   c9.508-1.167,16.285-9.824,15.115-19.347L435.319,74.388L412.987,77.13z"/>
	
		<rect x="97.889" y="59.969" transform="matrix(-0.1219 -0.9925 0.9925 -0.1219 66.7647 493.5019)" style="fill:#2BB4F3;" width="307.6" height="314.495"/>
	<g>
		<path style="fill:#75DC5E;" d="M256.623,370.693l-117.474,14.424c-0.906,0.111-1.707-0.592-1.713-1.505l-0.272-38.399    c-0.125-17.574,12.943-32.448,30.39-34.59l43.485-5.339c17.447-2.142,33.725,9.128,37.855,26.21l9.026,37.325    C258.136,369.705,257.529,370.581,256.623,370.693z"/>
		<path style="fill:#2AAD52;" d="M257.921,368.818l-9.026-37.325c-4.131-17.082-20.409-28.353-37.855-26.21l-21.092,2.59    c17.447-2.142,33.725,9.128,37.855,26.21l9.026,37.325c0.215,0.887-0.392,1.763-1.298,1.875l21.092-2.59    C257.529,370.582,258.136,369.705,257.921,368.818z"/>
		<path style="fill:#F2A077;" d="M170.258,283.539l3.911,31.855c1.072,8.728,9.016,14.935,17.744,13.863h0    c8.728-1.072,14.935-9.016,13.863-17.744l-3.911-31.855L170.258,283.539z"/>
		<path style="fill:#FFCCAA;" d="M231.919,227.375l-9.623,1.182l-2.849-23.204c-2.063-16.803-17.357-28.751-34.159-26.688    l-23.377,2.87c-16.802,2.063-28.751,17.357-26.688,34.159l2.849,23.204l-9.623,1.182c-5.432,0.667-9.296,5.612-8.629,11.044    l0.571,4.652c0.667,5.432,5.612,9.296,11.044,8.629l9.684-1.189c3.878,22.093,24.436,37.509,46.951,34.744    c11.258-1.382,20.939-7.054,27.611-15.18c6.672-8.126,10.327-18.706,9.54-29.891l9.684-1.189    c5.432-0.667,9.296-5.612,8.629-11.044l-0.571-4.652C242.296,230.571,237.351,226.708,231.919,227.375z"/>
		<path style="fill:#475D6D;" d="M135.6,218.774l12.108-1.487c3.425-0.421,6.283-2.816,7.296-6.116l2.277-7.422    c0.619-2.019,2.968-2.922,4.78-1.838l16.314,9.754c1.669,0.998,3.624,1.411,5.554,1.174l35.895-4.407l-3.211-26.15    c-1.605-13.07-13.501-22.364-26.57-20.759l-28.77,3.533c-4.301,0.528-7.36,4.443-6.832,8.745l0.512,4.167l-12.547,1.541    c-6.326,0.777-10.825,6.535-10.048,12.861L135.6,218.774z"/>
		<path style="fill:#FF5A59;" d="M402.133,352.826L284.659,367.25c-0.906,0.111-1.707-0.592-1.713-1.505l-0.272-38.399    c-0.125-17.574,12.943-32.448,30.39-34.59l43.485-5.339c17.447-2.142,33.725,9.128,37.855,26.21l9.026,37.325    C403.645,351.839,403.039,352.715,402.133,352.826z"/>
		<path style="fill:#CE3A4C;" d="M403.431,350.952l-9.026-37.325c-4.131-17.082-20.409-28.353-37.855-26.21l-21.092,2.59    c17.447-2.142,33.725,9.128,37.855,26.21l9.026,37.325c0.215,0.887-0.392,1.763-1.298,1.875l21.092-2.59    C403.039,352.715,403.645,351.839,403.431,350.952z"/>
		<path style="fill:#F2A077;" d="M315.767,265.672l3.911,31.855c1.072,8.728,9.016,14.935,17.744,13.863h0    c8.728-1.072,14.935-9.016,13.863-17.744l-3.911-31.855L315.767,265.672z"/>
		<path style="fill:#FFCCAA;" d="M377.429,209.509l-9.623,1.182l-2.622-21.351c-2.536-20.656-21.337-35.344-41.993-32.808    l-9.423,1.157c-20.656,2.536-35.345,21.337-32.808,41.993l2.622,21.351l-9.623,1.182c-5.432,0.667-9.296,5.612-8.629,11.044    l0.571,4.652c0.667,5.432,5.612,9.296,11.044,8.629l9.684-1.189c3.878,22.093,24.436,37.509,46.951,34.744    c11.258-1.382,20.939-7.054,27.611-15.18c6.672-8.126,10.327-18.706,9.54-29.891l9.684-1.189    c5.432-0.667,9.296-5.612,8.629-11.044l-0.571-4.652C387.806,212.705,382.861,208.842,377.429,209.509z"/>
		<path style="fill:#F9DC6A;" d="M261.477,150.153l60.651-7.447c20.311-2.494,38.797,11.95,41.291,32.26l1.765,14.374l-73.12,8.978    c-13.424,1.648-25.642-7.898-27.29-21.322L261.477,150.153z"/>
	</g>
	<path style="fill:#E0DED5;" d="M376.295,81.635l59.024-7.247L349.701,7.495l7.247,59.024   C358.116,76.028,366.772,82.804,376.295,81.635z"/>
	<g>
		<path d="M487.727,439.668L442.764,73.474c-0.01-0.084-0.03-0.165-0.043-0.249c-0.013-0.084-0.028-0.168-0.044-0.251    c-0.06-0.31-0.132-0.616-0.229-0.914c-0.003-0.008-0.004-0.017-0.007-0.025c-0.101-0.305-0.228-0.599-0.366-0.888    c-0.037-0.077-0.075-0.153-0.115-0.229c-0.141-0.269-0.293-0.531-0.465-0.782c-0.012-0.018-0.022-0.037-0.035-0.055    c-0.186-0.264-0.394-0.512-0.613-0.752c-0.057-0.062-0.114-0.122-0.173-0.182c-0.232-0.237-0.474-0.464-0.738-0.671L354.318,1.585    c-0.264-0.206-0.543-0.385-0.828-0.553c-0.073-0.043-0.146-0.084-0.22-0.124c-0.285-0.154-0.576-0.297-0.877-0.412    c-0.02-0.008-0.042-0.013-0.062-0.021c-0.284-0.107-0.575-0.191-0.87-0.262c-0.083-0.02-0.166-0.039-0.25-0.056    c-0.314-0.065-0.63-0.116-0.95-0.141c-0.008-0.001-0.016,0-0.024-0.001c-0.313-0.022-0.628-0.019-0.944-0.002    c-0.085,0.005-0.169,0.011-0.254,0.018c-0.084,0.007-0.168,0.008-0.252,0.018L45.914,37.239    c-13.605,1.67-23.315,14.099-21.646,27.705l35.593,289.876c0.505,4.111,4.238,7.036,8.358,6.53    c4.111-0.505,7.035-4.247,6.53-8.358L39.157,63.117c-0.663-5.397,3.188-10.327,8.585-10.99L343.17,15.853l6.334,51.58    c0.809,6.588,4.135,12.468,9.365,16.557c4.416,3.452,9.742,5.278,15.26,5.278c1.021,0,2.05-0.063,3.08-0.189l9.468-1.162    l31.471,256.259l-8.395,1.031l-8.056-33.344c-4.906-20.291-23.892-33.834-44.552-32.041l-0.114-0.929    c3.679-2.58,7.032-5.663,9.951-9.216c6.609-8.044,10.48-17.793,11.222-28.013l3.131-0.385c9.514-1.173,16.313-9.875,15.156-19.405    l-0.57-4.658c-1.177-9.514-9.881-16.313-19.415-15.154l-2.169,0.269l-1.705-13.908c-0.003-0.028-0.011-0.055-0.014-0.083    l-1.755-14.287c-1.45-11.812-7.413-22.352-16.791-29.678c-9.376-7.326-21.043-10.563-32.858-9.112l-60.65,7.447    c-1.975,0.242-3.771,1.259-4.996,2.826c-1.225,1.568-1.776,3.558-1.534,5.532l3.296,26.843c1.3,10.588,7.663,19.34,16.362,24.13    l1.53,12.464l-2.181,0.268c-4.612,0.569-8.729,2.897-11.592,6.557c-2.867,3.666-4.133,8.228-3.564,12.839l0.571,4.654    c1.174,9.531,9.892,16.334,19.408,15.157l3.115-0.383c4.75,14.512,15.811,25.74,29.557,31.015l0.113,0.92    c-20.477,3.257-35.625,20.989-35.47,41.867l0.242,34.303l-11.174,1.372l-8.058-33.342c-4.906-20.29-23.902-33.83-44.551-32.041    l-0.115-0.934c3.68-2.58,7.032-5.664,9.947-9.217c6.613-8.038,10.486-17.788,11.225-28.017l3.119-0.383    c4.617-0.562,8.738-2.891,11.604-6.56c2.86-3.662,4.127-8.218,3.565-12.838l-0.571-4.656c-0.569-4.613-2.901-8.73-6.566-11.594    c-3.669-2.866-8.234-4.129-12.84-3.562l-2.177,0.267l-1.937-15.761c0-0.003-0.001-0.006-0.001-0.009l-2.832-23.059    c-1.021-8.31-5.216-15.724-11.813-20.878c-6.597-5.154-14.799-7.429-23.116-6.411l-28.77,3.533    c-4.069,0.5-7.699,2.554-10.224,5.784c-1.831,2.345-2.921,5.105-3.189,7.999l-5.454,0.67c-5.049,0.62-9.553,3.168-12.685,7.176    c-3.131,4.007-4.514,8.994-3.895,14.042l2.963,24.132l1.833,14.949l-2.18,0.268c-4.614,0.569-8.731,2.901-11.595,6.566    c-2.866,3.668-4.13,8.23-3.562,12.838l0.57,4.657c1.176,9.53,9.886,16.329,19.409,15.156l3.115-0.383    c4.752,14.512,15.813,25.738,29.556,31.01l0.114,0.924c-20.478,3.257-35.625,20.989-35.471,41.867l0.242,34.301l-9.021,1.108    L85.226,90.255l240.785-29.566c4.111-0.504,7.035-4.247,6.53-8.358s-4.233-7.036-8.358-6.53L75.954,76.281    c-1.975,0.242-3.771,1.259-4.996,2.827c-1.225,1.567-1.776,3.557-1.534,5.531l37.49,305.31c0.243,1.974,1.26,3.771,2.827,4.996    c1.325,1.036,2.952,1.59,4.617,1.59c0.304,0,0.609-0.019,0.914-0.056l312.149-38.331c1.975-0.242,3.771-1.259,4.996-2.827    c1.225-1.567,1.776-3.557,1.534-5.531L401.566,86.088l27.223-3.342l44.049,358.75c0.663,5.396-3.188,10.326-8.585,10.988    L102.356,496.92c-5.38,0.659-10.326-3.189-10.989-8.585L78.406,382.769c-0.505-4.111-4.235-7.034-8.358-6.53    c-4.111,0.505-7.035,4.247-6.53,8.358l12.961,105.567c1.546,12.582,12.291,21.833,24.659,21.832c1.006,0,2.023-0.061,3.047-0.187    l361.897-44.436C479.687,465.702,489.397,453.274,487.727,439.668z M343.842,294.548c0.044,0.363,0.065,0.709,0.065,1.057    c0,4.234-3.183,7.818-7.412,8.337c-2.228,0.272-4.426-0.335-6.196-1.716c-1.775-1.386-2.904-3.379-3.178-5.615l-1.075-8.753    c0.764,0.035,1.531,0.058,2.302,0.058c2.027,0,4.079-0.124,6.141-0.376c2.829-0.347,5.592-0.941,8.277-1.743l0.391,3.179    c0.003,0.028,0.003,0.056,0.006,0.084c0.003,0.028,0.011,0.055,0.014,0.083L343.842,294.548z M269.835,156.683l53.206-6.533    c7.839-0.963,15.576,1.185,21.796,6.044c6.22,4.86,10.175,11.851,11.137,19.686l0.852,6.929l-65.677,8.064    c-9.292,1.141-17.79-5.494-18.932-14.792L269.835,156.683z M294.014,244.048c-0.689-3.932-4.344-6.634-8.302-6.147l-9.682,1.19    c-1.327,0.163-2.525-0.781-2.688-2.099l-0.571-4.656c-0.162-1.313,0.782-2.514,2.1-2.677l9.62-1.18    c1.975-0.242,3.771-1.259,4.997-2.826c1.225-1.567,1.776-3.557,1.534-5.532l-1.733-14.126c1.219-0.009,2.45-0.082,3.688-0.234    l65.68-8.064l1.706,13.911c0.242,1.976,1.26,3.774,2.829,5c1.569,1.225,3.562,1.777,5.536,1.531l9.604-1.188    c1.335-0.165,2.539,0.783,2.702,2.097l0.568,4.642c0.161,1.328-0.782,2.54-2.099,2.703l-9.689,1.19    c-3.962,0.486-6.849,3.99-6.567,7.972c0.631,8.933-2.158,17.67-7.854,24.602c-2.844,3.462-6.271,6.298-10.094,8.411    c-0.022,0.013-0.044,0.026-0.066,0.038c-3.85,2.116-8.101,3.499-12.568,4.047c-4.557,0.559-9.021,0.211-13.212-0.9    c-0.001,0-0.001,0-0.002-0.001C306.66,268.359,296.435,257.833,294.014,244.048z M312.573,300.412    c1.13,5.408,4.09,10.199,8.497,13.638c4.156,3.245,9.165,4.96,14.347,4.959c0.967,0,1.94-0.06,2.914-0.18    c11.731-1.439,20.577-11.424,20.577-23.225c0-0.291-0.016-0.586-0.027-0.88c13.122-0.923,25.114,7.747,28.237,20.661l7.445,30.813    L290.4,358.993l-0.223-31.704C290.079,314,299.612,302.69,312.573,300.412z M198.333,312.418c0.044,0.363,0.065,0.709,0.065,1.057    c0,4.234-3.179,7.818-7.394,8.335c-2.239,0.274-4.445-0.338-6.22-1.723c-1.772-1.384-2.899-3.375-3.173-5.607l-1.076-8.76    c0.758,0.035,1.519,0.057,2.284,0.057c2.035,0,4.091-0.125,6.16-0.379c2.829-0.347,5.593-0.941,8.277-1.742l0.388,3.163    c0.004,0.037,0.003,0.073,0.008,0.11c0.004,0.037,0.014,0.071,0.019,0.108L198.333,312.418z M140.628,188.476    c0.664-0.85,1.62-1.391,2.691-1.522l12.548-1.541c4.111-0.505,7.035-4.247,6.53-8.358l-0.512-4.167    c-0.006-0.042-0.018-0.142,0.07-0.255c0.089-0.113,0.188-0.125,0.231-0.13l28.77-3.533c0.678-0.083,1.354-0.124,2.025-0.124    c3.625,0,7.125,1.199,10.027,3.467c3.44,2.688,5.628,6.553,6.159,10.886l2.297,18.706l-28.45,3.493    c-0.275,0.036-0.557-0.026-0.793-0.167l-16.313-9.755c-2.856-1.708-6.276-2-9.379-0.807c-3.104,1.194-5.445,3.703-6.42,6.882    l-2.278,7.423c-0.144,0.469-0.551,0.811-1.039,0.87l-4.663,0.573l-2.328-18.96C139.67,190.385,139.964,189.326,140.628,188.476z     M148.504,261.918c-0.69-3.932-4.343-6.63-8.302-6.146l-9.682,1.19c-1.319,0.164-2.526-0.782-2.689-2.098l-0.57-4.657    c-0.105-0.858,0.265-1.48,0.494-1.774c0.23-0.295,0.747-0.807,1.605-0.913l9.62-1.18c1.975-0.242,3.772-1.259,4.997-2.827    s1.776-3.557,1.534-5.532l-1.555-12.677l4.663-0.573c6.356-0.78,11.676-5.24,13.553-11.36l0.688-2.243l11.665,6.975    c3.086,1.844,6.748,2.62,10.316,2.18l28.453-3.493l1.557,12.678c0.505,4.112,4.258,7.035,8.357,6.531l9.625-1.181    c0.854-0.106,1.479,0.264,1.774,0.495c0.296,0.23,0.808,0.747,0.913,1.605l0.569,4.643c0.105,0.866-0.266,1.491-0.496,1.787    c-0.279,0.357-0.783,0.804-1.603,0.904l-9.69,1.19c-3.962,0.486-6.849,3.99-6.567,7.972c0.631,8.941-2.156,17.676-7.857,24.604    c-2.83,3.449-6.24,6.277-10.049,8.387c-0.042,0.024-0.084,0.047-0.126,0.072c-3.843,2.108-8.088,3.487-12.551,4.034    c-4.536,0.557-8.981,0.214-13.156-0.885c-0.084-0.025-0.17-0.043-0.256-0.065C161.048,286.118,150.914,275.632,148.504,261.918z     M167.063,318.282c1.13,5.405,4.088,10.193,8.492,13.63c4.16,3.248,9.178,4.965,14.375,4.965c0.962,0,1.932-0.059,2.901-0.178    c11.725-1.44,20.566-11.424,20.566-23.224c0-0.291-0.016-0.586-0.027-0.88c13.133-0.923,25.114,7.748,28.237,20.661l7.446,30.812    L144.89,376.854l-0.223-31.694C144.569,331.87,154.102,320.56,167.063,318.282z M392.363,72.106    c-0.023,0.003-0.046,0.002-0.07,0.005s-0.046,0.009-0.069,0.012l-16.843,2.068c-2.619,0.317-5.198-0.396-7.273-2.019    c-2.075-1.622-3.395-3.954-3.715-6.567l-5.041-41.052l28.541,22.299l28.541,22.299L392.363,72.106z"/>
		<path d="M393.179,397.617c-27.853,2.289-55.463,10.715-79.847,24.368c-6.304,3.53-7.899,2.994-8.063,2.919    c-1.542-0.699-4.269-4.864-6.675-8.54c-5.521-8.433-16.793-12.831-28.054-10.945c-9.82,1.646-17.904,7.252-23.851,11.953    c-1.59,1.257-3.193,2.56-4.815,3.877c-9.998,8.121-20.336,16.518-32.003,17.534c-7.173,0.621-14.036-2.454-16.68-7.487    c-0.284-0.54-0.536-1.105-0.793-1.668c-1.057-2.322-2.504-5.503-5.51-7.942c-7.229-5.867-16.757-2.513-19.89-1.411    c-11.589,4.08-22.75,9.452-33.171,15.967c-3.513,2.195-4.58,6.823-2.384,10.335c2.196,3.513,6.823,4.58,10.335,2.384    c9.488-5.932,19.649-10.822,30.2-14.536c3.832-1.35,5.201-1.132,5.484-1.057c0.335,0.394,0.901,1.637,1.281,2.473    c0.337,0.74,0.719,1.578,1.166,2.431c5.027,9.57,16.067,15.594,28.114,15.593c1.042,0,2.094-0.045,3.148-0.137    c16.25-1.417,28.951-11.732,40.157-20.834c1.569-1.275,3.121-2.536,4.661-3.753c4.538-3.588,10.575-7.845,17.026-8.926    c5.391-0.907,10.75,0.892,13.025,4.367c7.358,11.242,14.309,21.863,34.615,10.493c22.521-12.61,48.022-20.393,73.747-22.507    c4.128-0.339,7.2-3.96,6.86-8.089C400.929,400.349,397.305,397.272,393.179,397.617z"/>
		<path d="M375.666,439.475c0.985,3.234,3.958,5.316,7.172,5.316c0.724,0,1.46-0.105,2.188-0.328    c10.91-3.323,22.211-5.445,33.588-6.305c4.131-0.312,7.226-3.914,6.913-8.044c-0.313-4.13-3.901-7.23-8.044-6.913    c-12.474,0.943-24.864,3.269-36.828,6.914C376.693,431.322,374.458,435.513,375.666,439.475z"/>
	</g>
</g>















</svg>
