<?xml version="1.0" encoding="iso-8859-1"?>
<!-- Generator: Adobe Illustrator 19.0.0, SVG Export Plug-In . SVG Version: 6.00 Build 0)  -->
<svg version="1.1" id="Capa_1" xmlns="http://www.w3.org/2000/svg" xmlns:xlink="http://www.w3.org/1999/xlink" x="0px" y="0px"
	 viewBox="0 0 512 512" style="enable-background:new 0 0 512 512;" xml:space="preserve">
<path style="fill:#75706B;" d="M504.396,137.064v282.568c0,12.377-10.034,22.411-22.411,22.411H256H30.015
	c-12.377,0-22.411-10.034-22.411-22.411V137.064c0-12.987,10.527-23.513,23.513-23.513h449.765
	C493.869,113.55,504.396,124.077,504.396,137.064z"/>
<path style="fill:#E2D0C5;" d="M477.642,122.894v269.149c0,12.496-10.129,22.625-22.626,22.625H256H56.983
	c-12.496,0-22.626-10.129-22.626-22.625V122.894"/>
<g>
	<path style="fill:#FFF2E9;" d="M256.003,117.943v296.727h-3.356c-7.046-17.763-24.373-30.314-44.63-30.314H56.982
		c-12.491,0-22.629-10.128-22.629-22.619V92.586c0-12.501,10.139-22.629,22.629-22.629h151.035
		C234.519,69.956,256.003,91.44,256.003,117.943z"/>
	<path style="fill:#FFF2E9;" d="M477.643,92.586v269.15c0,12.491-10.128,22.619-22.629,22.619H303.989
		c-2.879,0-5.708,0.253-8.445,0.75c-16.536,2.93-30.142,14.326-36.185,29.564h-3.356V117.943c0-23.623,17.063-43.251,39.541-47.246
		c2.748-0.487,5.566-0.74,8.445-0.74h151.025C467.515,69.956,477.643,80.085,477.643,92.586z"/>
</g>
<polyline style="fill:#EF6E4B;" points="313.608,69.956 313.608,211.561 356.19,182.767 398.772,211.561 398.772,69.956 "/>
<path style="fill:#E2D0C5;" d="M295.544,70.697v314.409c-16.536,2.93-30.142,14.326-36.185,29.564h-3.356V117.943
	C256.003,94.32,273.066,74.691,295.544,70.697z"/>
<path d="M56.267,434.44H30.01c-8.162,0-14.802-6.64-14.802-14.802V137.064c0-4.199-3.404-7.604-7.604-7.604S0,132.865,0,137.064
	v282.573c0,16.548,13.462,30.01,30.01,30.01h26.257c4.2,0,7.604-3.405,7.604-7.604S60.468,434.44,56.267,434.44z"/>
<path d="M504.396,129.46c-4.2,0-7.604,3.405-7.604,7.604v282.573c0,8.163-6.645,14.802-14.813,14.802H81.616
	c-4.2,0-7.604,3.405-7.604,7.604s3.404,7.604,7.604,7.604H481.98c16.553,0,30.02-13.462,30.02-30.01V137.064
	C512,132.865,508.596,129.46,504.396,129.46z"/>
<path d="M56.979,422.273h195.64c0.009,0,0.017,0.002,0.026,0.002c0.014,0,0.028-0.002,0.043-0.002H256h199.011
	c16.671,0,30.233-13.562,30.233-30.233v-30.304V122.89V92.586c0-16.671-13.562-30.233-30.233-30.233H303.986
	c-20.441,0-38.329,11.098-47.986,27.577c-9.657-16.479-27.545-27.577-47.986-27.577h-71.776c-4.2,0-7.604,3.405-7.604,7.604
	c0,4.199,3.404,7.604,7.604,7.604h71.776c22.266,0,40.382,18.116,40.382,40.382v276.123c-10.272-10.878-24.707-17.315-40.382-17.315
	H56.979c-8.285,0-15.025-6.736-15.025-15.015V122.89V92.586c0-8.285,6.74-15.025,15.025-15.025h53.91c4.2,0,7.604-3.405,7.604-7.604
	c0-4.199-3.404-7.604-7.604-7.604h-53.91c-16.671,0-30.233,13.562-30.233,30.233v30.304v238.845v30.304
	C26.746,408.711,40.308,422.273,56.979,422.273z M455.011,407.065H272.452c7.521-9.425,18.98-15.107,31.534-15.107h151.025
	c5.468,0,10.596-1.466,15.025-4.013v4.095C470.036,400.325,463.296,407.065,455.011,407.065z M321.209,77.56h69.956v119.68
	l-30.719-20.772c-2.572-1.74-5.946-1.74-8.518,0l-30.719,20.772L321.209,77.56L321.209,77.56z M303.986,77.56h2.015v134.001
	c0,2.813,1.553,5.397,4.037,6.716c2.486,1.32,5.496,1.159,7.826-0.417l38.323-25.914l38.323,25.914
	c1.282,0.866,2.768,1.305,4.26,1.305c1.221,0,2.446-0.294,3.566-0.888c2.484-1.319,4.037-3.902,4.037-6.716V77.56h48.638
	c8.285,0,15.025,6.74,15.025,15.025v30.304v238.845c0,8.28-6.74,15.015-15.025,15.015H303.986c-15.673,0-30.109,6.432-40.382,17.308
	V117.943C263.604,95.676,281.72,77.56,303.986,77.56z M56.979,391.959h151.035c12.555,0,24.014,5.682,31.534,15.107H56.979
	c-8.285,0-15.025-6.74-15.025-15.025v-4.095C46.383,390.494,51.512,391.959,56.979,391.959z"/>
<path d="M204.247,120.937H81.221c-4.2,0-7.604,3.405-7.604,7.604c0,4.199,3.404,7.604,7.604,7.604h123.026
	c4.2,0,7.604-3.405,7.604-7.604C211.851,124.342,208.448,120.937,204.247,120.937z"/>
<path d="M204.247,158.154H81.221c-4.2,0-7.604,3.405-7.604,7.604s3.404,7.604,7.604,7.604h123.026c4.2,0,7.604-3.405,7.604-7.604
	S208.448,158.154,204.247,158.154z"/>
<path d="M204.247,232.588h-52.674c-4.2,0-7.604,3.405-7.604,7.604c0,4.199,3.404,7.604,7.604,7.604h52.674
	c4.2,0,7.604-3.405,7.604-7.604C211.851,235.992,208.448,232.588,204.247,232.588z"/>
<path d="M81.221,247.796h45.004c4.2,0,7.604-3.405,7.604-7.604c0-4.199-3.404-7.604-7.604-7.604H81.221
	c-4.2,0-7.604,3.405-7.604,7.604C73.617,244.391,77.022,247.796,81.221,247.796z"/>
<path d="M211.851,314.626c0-4.199-3.404-7.604-7.604-7.604H81.221c-4.2,0-7.604,3.405-7.604,7.604c0,4.199,3.404,7.604,7.604,7.604
	h123.026C208.448,322.229,211.851,318.825,211.851,314.626z"/>
<path d="M204.247,195.371H81.221c-4.2,0-7.604,3.405-7.604,7.604c0,4.199,3.404,7.604,7.604,7.604h123.026
	c4.2,0,7.604-3.405,7.604-7.604C211.851,198.776,208.448,195.371,204.247,195.371z"/>
<path d="M204.247,269.805H81.221c-4.2,0-7.604,3.405-7.604,7.604c0,4.199,3.404,7.604,7.604,7.604h123.026
	c4.2,0,7.604-3.405,7.604-7.604C211.851,273.209,208.448,269.805,204.247,269.805z"/>
<path d="M136.388,347.46c-4.2,0-7.604,3.405-7.604,7.604c0,4.199,3.404,7.604,7.604,7.604h12.694c4.2,0,7.604-3.405,7.604-7.604
	c0-4.199-3.404-7.604-7.604-7.604H136.388z"/>
<path d="M422.391,136.145h14.24c4.2,0,7.604-3.405,7.604-7.604c0-4.199-3.404-7.604-7.604-7.604h-14.24
	c-4.2,0-7.604,3.405-7.604,7.604C414.787,132.741,418.191,136.145,422.391,136.145z"/>
<path d="M422.391,173.362h14.24c4.2,0,7.604-3.405,7.604-7.604s-3.404-7.604-7.604-7.604h-14.24c-4.2,0-7.604,3.405-7.604,7.604
	S418.191,173.362,422.391,173.362z"/>
<path d="M313.605,247.796h123.026c4.2,0,7.604-3.405,7.604-7.604c0-4.199-3.404-7.604-7.604-7.604H313.605
	c-4.2,0-7.604,3.405-7.604,7.604C306.001,244.391,309.405,247.796,313.605,247.796z"/>
<path d="M313.605,322.229h123.026c4.2,0,7.604-3.405,7.604-7.604c0-4.199-3.404-7.604-7.604-7.604H313.605
	c-4.2,0-7.604,3.405-7.604,7.604C306.001,318.825,309.405,322.229,313.605,322.229z"/>
<path d="M422.391,210.579h14.24c4.2,0,7.604-3.405,7.604-7.604c0-4.199-3.404-7.604-7.604-7.604h-14.24
	c-4.2,0-7.604,3.405-7.604,7.604C414.787,207.174,418.191,210.579,422.391,210.579z"/>
<path d="M313.605,285.013h17.875c4.2,0,7.604-3.405,7.604-7.604c0-4.199-3.404-7.604-7.604-7.604h-17.875
	c-4.2,0-7.604,3.405-7.604,7.604C306.001,281.608,309.405,285.013,313.605,285.013z"/>
<path d="M436.631,269.805h-79.802c-4.2,0-7.604,3.405-7.604,7.604c0,4.199,3.404,7.604,7.604,7.604h79.802
	c4.2,0,7.604-3.405,7.604-7.604C444.235,273.209,440.831,269.805,436.631,269.805z"/>
<path d="M381.464,347.46h-12.694c-4.2,0-7.604,3.405-7.604,7.604c0,4.199,3.404,7.604,7.604,7.604h12.694
	c4.2,0,7.604-3.405,7.604-7.604C389.068,350.865,385.665,347.46,381.464,347.46z"/>
<g>
</g>
<g>
</g>
<g>
</g>
<g>
</g>
<g>
</g>
<g>
</g>
<g>
</g>
<g>
</g>
<g>
</g>
<g>
</g>
<g>
</g>
<g>
</g>
<g>
</g>
<g>
</g>
<g>
</g>
</svg>
