<?xml version="1.0" encoding="iso-8859-1"?>
<!-- Generator: Adobe Illustrator 21.0.0, SVG Export Plug-In . SVG Version: 6.00 Build 0)  -->
<svg xmlns="http://www.w3.org/2000/svg" xmlns:xlink="http://www.w3.org/1999/xlink" version="1.1" id="Capa_1" x="0px" y="0px" viewBox="0 0 512 512" style="enable-background:new 0 0 512 512;" xml:space="preserve" width="512" height="512">
<g>
	<path style="fill:#E0E0E0;" d="M417.888,307.5h-88.846l-41.375,19.929L266,281h-20l-21.667,46.428L182.958,307.5H94.112   c-36.638,0-66.339,29.701-66.339,66.339V504.5h456.455V373.839C484.227,337.201,454.526,307.5,417.888,307.5z"/>
	<path style="fill:#BDBDBD;" d="M425.804,307.986c11.404,11.914,18.423,28.059,18.423,45.853v74.154   c0,31.208-25.299,56.507-56.507,56.507H27.773v20h456.455V373.839C484.227,339.882,458.708,311.902,425.804,307.986z"/>
	<circle style="fill:#42A5F5;" cx="256" cy="144.25" r="136.75"/>
	<path style="fill:#1976D2;" d="M296.255,13.526C330.486,38.38,352.75,78.712,352.75,124.25C352.75,199.775,291.525,261,216,261   c-14.011,0-27.528-2.111-40.255-6.026C198.286,271.341,226.013,281,256,281c75.525,0,136.75-61.225,136.75-136.75   C392.75,82.736,352.132,30.712,296.255,13.526z"/>
	<circle style="fill:#FFFFFF;" cx="256" cy="144.25" r="105.667"/>
	<path style="fill:#E0E0E0;" d="M282.135,41.843c24.101,19.367,39.532,49.083,39.532,82.407   c0,58.358-47.309,105.667-105.667,105.667c-9.021,0-17.776-1.133-26.135-3.26c18.105,14.549,41.101,23.26,66.135,23.26   c58.358,0,105.667-47.309,105.667-105.667C361.667,94.912,327.852,53.475,282.135,41.843z"/>
	<polygon style="fill:#E0E0E0;" points="224.333,327.429 182.81,307.429 182.81,281 246,281  "/>
	<polygon style="fill:#E0E0E0;" points="287.667,327.429 329.19,307.429 329.19,281 266,281  "/>
	<polygon style="fill:#EF5350;" points="271.158,340.214 240.842,340.214 218.714,504.5 293.286,504.5  "/>
	<path style="fill:#D32F2F;" d="M271.158,340.214h-17.306l14.77,109.659c2.468,18.326-11.783,34.627-30.275,34.627h-16.938   l-2.694,20h74.571L271.158,340.214z"/>
	<polygon style="fill:#EF5350;" points="266,281 246,281 229.762,315.794 240.842,340.214 271.158,340.214 282.238,315.794  "/>
	<path style="fill:#D32F2F;" d="M267.496,284.205l-11.769,25.939c-2.782,6.132-8.894,10.071-15.628,10.071h-8.331l9.074,20h30.316   l11.08-24.42L267.496,284.205z"/>
	<path style="fill:#FFCA28;" d="M271.582,144.25L271.582,144.25c0,6.777-5.494,12.27-12.27,12.27l-43.149,0   c-6.777,0-12.27-5.494-12.27-12.27v0c0-6.777,5.494-12.27,12.27-12.27h43.149C266.088,131.98,271.582,137.474,271.582,144.25z"/>
	<path style="fill:#EF5350;" d="M294.625,91.232l-40.748,40.748h5.434c6.395,0,11.641,4.893,12.213,11.139l37.493-37.493   c3.975-3.974,3.975-10.418,0-14.393v0C305.043,87.258,298.599,87.258,294.625,91.232z"/>
	<g>
		<path d="M369.167,144.25c0-24.247-7.558-47.368-21.857-66.864c-2.45-3.34-7.143-4.063-10.483-1.612s-4.062,7.144-1.612,10.483    c12.399,16.905,18.953,36.959,18.953,57.993c0,54.13-44.038,98.167-98.167,98.167s-98.167-44.037-98.167-98.167    S201.871,46.083,256,46.083c20.11,0,39.438,6.036,55.894,17.455c3.404,2.359,8.075,1.516,10.438-1.887    c2.361-3.402,1.517-8.076-1.886-10.438c-18.98-13.17-41.265-20.131-64.446-20.131c-62.4,0-113.167,50.767-113.167,113.167    S193.6,257.417,256,257.417S369.167,206.65,369.167,144.25z"/>
		<path d="M263.5,68.357v-8.774c0-4.143-3.358-7.5-7.5-7.5s-7.5,3.357-7.5,7.5v8.774c0,4.143,3.358,7.5,7.5,7.5    S263.5,72.5,263.5,68.357z"/>
		<path d="M248.5,220.144v8.773c0,4.143,3.358,7.5,7.5,7.5s7.5-3.357,7.5-7.5v-8.773c0-4.143-3.358-7.5-7.5-7.5    S248.5,216.001,248.5,220.144z"/>
		<path d="M331.893,151.75h8.774c4.142,0,7.5-3.357,7.5-7.5s-3.358-7.5-7.5-7.5h-8.774c-4.142,0-7.5,3.357-7.5,7.5    S327.751,151.75,331.893,151.75z"/>
		<path d="M180.107,136.75h-8.774c-4.142,0-7.5,3.357-7.5,7.5s3.358,7.5,7.5,7.5h8.774c4.142,0,7.5-3.357,7.5-7.5    S184.249,136.75,180.107,136.75z"/>
		<path d="M417.888,300H336.69v-19c0-4.143-3.358-7.5-7.5-7.5h-9.193c47.517-23.624,80.253-72.682,80.253-129.25    C400.25,64.71,335.54,0,256,0S111.75,64.71,111.75,144.25c0,56.568,32.736,105.626,80.253,129.25h-9.193    c-4.142,0-7.5,3.357-7.5,7.5v19H94.112c-40.715,0-73.84,33.124-73.84,73.839v53.865c0,4.143,3.358,7.5,7.5,7.5s7.5-3.357,7.5-7.5    v-53.865c0-32.444,26.396-58.839,58.84-58.839h87.133l39.833,19.186c2.573,1.24,5.883,0.957,8.259-1.175l3.783,8.339L212.157,497    h-97.088v-76.091c0-4.143-3.358-7.5-7.5-7.5s-7.5,3.357-7.5,7.5V497H35.272v-34.296c0-4.143-3.358-7.5-7.5-7.5s-7.5,3.357-7.5,7.5    V504.5c0,4.143,3.358,7.5,7.5,7.5h456.455c4.142,0,7.5-3.357,7.5-7.5V373.839C491.728,333.124,458.603,300,417.888,300z     M321.69,302.717l-30.438,14.66c-3.397-7.279-10.09-21.622-13.476-28.877h43.913V302.717z M266.325,332.714h-20.65l-7.656-16.875    l12.758-27.339h10.447l12.758,27.339L266.325,332.714z M126.75,144.25C126.75,72.981,184.731,15,256,15    s129.25,57.981,129.25,129.25S327.269,273.5,256,273.5S126.75,215.519,126.75,144.25z M234.223,288.5    c-3.386,7.255-10.079,21.598-13.476,28.877l-30.438-14.66V288.5H234.223z M476.728,497h-64.796v-76.091c0-4.143-3.358-7.5-7.5-7.5    s-7.5,3.357-7.5,7.5V497h-97.088l-3.929-29.169c-0.553-4.104-4.327-6.99-8.434-6.432c-4.105,0.553-6.985,4.329-6.432,8.434    L284.708,497h-57.415L247.4,347.715h17.2l11.776,87.431c0.553,4.104,4.325,6.983,8.434,6.432c4.105-0.553,6.985-4.329,6.432-8.434    l-12.364-91.793l3.783-8.339c2.428,2.177,5.757,2.383,8.259,1.175L330.754,315h87.133c32.444,0,58.84,26.395,58.84,58.839V497z"/>
		<path d="M278.979,146.271l35.342-35.343c6.893-6.893,6.893-18.107,0-24.999c-6.908-6.908-18.09-6.91-25-0.001L250.77,124.48    h-34.607c-10.901,0-19.771,8.868-19.771,19.77s8.869,19.771,19.77,19.771h42.592l20.815,36.053    c2.077,3.598,6.667,4.81,10.245,2.745c3.587-2.071,4.816-6.658,2.745-10.245l-19.64-34.018    C276.247,155.388,278.487,151.089,278.979,146.271z M299.929,96.535c1.044-1.043,2.739-1.046,3.786,0.001    c1.044,1.043,1.044,2.742,0,3.785l-30.204,30.205c-1.252-1.295-2.681-2.412-4.244-3.328L299.929,96.535z M211.393,144.25    c0-2.63,2.14-4.77,4.771-4.77h43.148c2.63,0,4.77,2.14,4.77,4.77c0,2.631-2.14,4.771-4.77,4.771h-43.149    C213.532,149.021,211.393,146.881,211.393,144.25z"/>
	</g>
</g>















</svg>
