<svg height="512" viewBox="0 0 64 64" width="512" xmlns="http://www.w3.org/2000/svg"><g id="Filled_outline" data-name="Filled outline"><path d="m3 29h58v32h-58z" fill="#e2e2d5"/><path d="m61 29h-58l29-26z" fill="#918f7d"/><path d="m53 61h-42v-46l8-8h34z" fill="#cfdfe8"/><path d="m19 15h-8l8-8z" fill="#aabece"/><path d="m26 21v4l2 1v3h8v-3l2-1v-4a6 6 0 0 0 -6-6 6 6 0 0 0 -6 6z" fill="#f4f4e6"/><g fill="#5a6470"><path d="m31 25h2v4h-2z"/><path d="m29 21h2v2h-2z"/><path d="m33 21h2v2h-2z"/></g><path d="m18 21.172h2v5.657h-2z" fill="#b22f3b" transform="matrix(.707 -.707 .707 .707 -11.406 20.464)"/><path d="m16.172 23h5.657v2h-5.657z" fill="#b22f3b" transform="matrix(.707 -.707 .707 .707 -11.406 20.464)"/><path d="m50 21h-2v-9h-3v-2h4a1 1 0 0 1 1 1z" fill="#f4f4e6"/><path d="m48 23h2v2h-2z" fill="#f4f4e6"/><path d="m3 61 29-20 29 20z" fill="#c6c6b9"/><path d="m3 29 26.056 14.03-26.056 17.97z" fill="#b2b1a4"/><path d="m61 29-26.056 14.03 26.056 17.97z" fill="#b2b1a4"/><path d="m42 30.172h2v5.657h-2z" fill="#b22f3b" transform="matrix(.707 -.707 .707 .707 -10.74 40.071)"/><path d="m40.172 32h5.657v2h-5.657z" fill="#b22f3b" transform="matrix(.707 -.707 .707 .707 -10.74 40.071)"/><path d="m30.172 51h5.657v2h-5.657z" fill="#918f7d" transform="matrix(.707 -.707 .707 .707 -27.104 38.565)"/><path d="m61.933 28.67a.793.793 0 0 0 -.042-.105 1.01 1.01 0 0 0 -.144-.213c-.021-.024-.071-.09-.08-.1l-7.667-6.869v-14.383a1 1 0 0 0 -1-1h-16.158l-4.175-3.744a1 1 0 0 0 -1.334 0l-4.175 3.744h-8.158a2.114 2.114 0 0 0 -.325.065.814.814 0 0 0 -.087.031 1 1 0 0 0 -.3.2l-8 8a.984.984 0 0 0 -.2.293c-.014.031-.022.062-.033.094-.029.084-.064 6.7-.064 6.7l-7.658 6.872c-.009.007-.059.073-.08.1a1.01 1.01 0 0 0 -.144.213.793.793 0 0 0 -.042.105 2.1 2.1 0 0 0 -.067.327v32a1 1 0 0 0 1 1h58a1 1 0 0 0 1-1v-32a2.1 2.1 0 0 0 -.067-.33zm-51.933 2.963-3.033-1.633h3.033zm-6-.958 23.142 12.461-23.142 15.964zm28 11.54 25.788 17.785h-51.576zm4.858.921 23.142-12.461v28.425zm17.142-13.136h3.033l-3.033 1.633zm4.386-2h-4.386v-3.93zm-6.386 4.71-16.992 9.15-2.44-1.683a1 1 0 0 0 -1.136 0l-2.44 1.683-16.992-9.15v-16.71h7a1 1 0 0 0 1-1v-7h32zm-20-28.366 1.847 1.656h-3.694zm-14 5.07v4.586h-4.586zm-8 14.656v3.93h-4.386z"/><path d="m25.553 25.9 1.447.718v2.382a1 1 0 0 0 1 1h8a1 1 0 0 0 1-1v-2.382l1.447-.723a1 1 0 0 0 .553-.895v-4a7 7 0 0 0 -14 0v4a1 1 0 0 0 .553.9zm1.447-4.9a5 5 0 0 1 10 0v3.382l-1.447.723a1 1 0 0 0 -.553.895v2h-2v-3h-2v3h-2v-2a1 1 0 0 0 -.553-.895l-1.447-.723z"/><path d="m29 21h2v2h-2z"/><path d="m33 21h2v2h-2z"/><path d="m41.707 35.707 1.293-1.293 1.293 1.293 1.414-1.414-1.293-1.293 1.293-1.293-1.414-1.414-1.293 1.293-1.293-1.293-1.414 1.414 1.293 1.293-1.293 1.293z"/><path d="m20.293 21.293-1.293 1.293-1.293-1.293-1.414 1.414 1.293 1.293-1.293 1.293 1.414 1.414 1.293-1.293 1.293 1.293 1.414-1.414-1.293-1.293 1.293-1.293z"/><path d="m48 21h2v-10a1 1 0 0 0 -1-1h-4v2h3z"/><path d="m48 23h2v2h-2z"/><path d="m24.379 51.5h4.243v2h-4.243z" transform="matrix(.707 -.707 .707 .707 -29.361 34.115)"/><path d="m30.172 51h5.657v2h-5.657z" transform="matrix(.707 -.707 .707 .707 -27.104 38.565)"/></g></svg>