<svg height="512" viewBox="0 0 60 60" width="512" xmlns="http://www.w3.org/2000/svg"><g id="Page-1" fill="none" fill-rule="evenodd"><g id="015---Teepee" fill-rule="nonzero" transform="translate(0 -1)"><path id="Shape" d="m12.59 11.2c1.2647395-.0062388 2.4169812.7255851 2.949 1.873 1.4969186-.5833341 3.1975912-.214472 4.318329.9366106 1.1207377 1.1510826 1.4440443 2.8610005.8209365 4.3418046s-2.0717064 2.4451218-3.6782655 2.4485848h-8.394c-1.38867977.0017362-2.65496509-.7941028-3.25567236-2.0461352-.60070726-1.2520325-.42908453-2.7377592.4412492-3.8198654.87033373-1.0821061 2.2847111-1.5682902 3.63642316-1.2499994.35639847-1.4572418 1.6618094-2.4827448 3.162-2.484z" fill="#f5f5f5"/><path id="Shape" d="m17 12.8c-.4985365.0003231-.9926439.0935829-1.457.275-.3739932-.8035034-1.0609023-1.4186586-1.9006352-1.7020968s-1.758931-.2103984-2.5433648.2020968c.6342574.3261671 1.1421894.8537974 1.444 1.5 1.4977674-.5860486 3.2008714-.2180316 4.3230321.934147 1.1221607 1.1521787 1.4451005 2.8644023.8197262 4.3461807-.6253742 1.4817784-2.0774175 2.4448828-3.6857583 2.4446723h3c2.209139 0 4-1.790861 4-4s-1.790861-4-4-4z" fill="#cfd8dc"/><path id="Shape" d="m49.41 6c-1.2650436-.0063107-2.4174716.72602231-2.949 1.874-1.4958949-.57692602-3.1917428-.2049044-4.3087702.94522375-1.1170275 1.15012815-1.439382 2.85611395-.8190308 4.33452845.6203512 1.4784146 2.0635325 2.4435714 3.666801 2.4522478h8.39c1.3886798.0017362 2.6549651-.7941028 3.2556724-2.0461352.6007072-1.2520325.4290845-2.7377592-.4412492-3.81986537-.8703338-1.08210615-2.2847111-1.56829018-3.6364232-1.24999943-.3536949-1.45817719-1.6575445-2.48622837-3.158-2.49z" fill="#f5f5f5"/><path id="Shape" d="m53.394 8.4c-.276949.00137199-.5528.0349305-.822.1-.2334865-.97413407-.9035301-1.78596534-1.8157145-2.19993719s-1.9643793-.383735-2.8512855.08193719c.8329234.43028424 1.4402881 1.19832551 1.667 2.108.2692-.0650695.545051-.09862801.822-.1 1.3024325-.0216914 2.5153205.66072946 3.172879 1.7851927.6575585 1.1244633.6575585 2.5161513 0 3.6406146-.6575585 1.1244632-1.8704465 1.8068841-3.172879 1.7851927h3c1.3024325.0216914 2.5153205-.6607295 3.172879-1.7851927.6575585-1.1244633.6575585-2.5161513 0-3.6406146-.6575585-1.12446324-1.8704465-1.8068841-3.172879-1.7851927z" fill="#cfd8dc"/><path id="Shape" d="m38.33 28.67-1.62 1.62c-.3930079.3899779-1.0269921.3899779-1.42 0l-1.58-1.58c-.3930079-.3899779-1.0269921-.3899779-1.42 0l-1.58 1.58c-.3943361.3867403-1.0256639.3867403-1.42 0l-1.58-1.58c-.3930079-.3899779-1.0269921-.3899779-1.42 0l-1.58 1.58c-.3930079.3899779-1.0269921.3899779-1.42 0l-1.62-1.62 6.09-12.19 2.24-4.48 2.24 4.48z" fill="#f44335"/><path id="Shape" d="m32.24 16.48-2.24-4.48-1.5 3 .74 1.48 6.09 12.19-.83.83.79.79c.3930079.3899779 1.0269921.3899779 1.42 0l1.62-1.62z" fill="#c81e1e"/><path id="Shape" d="m54 60h-16l-8-18v-.06c.0300371-.1350163.0300371-.2749837 0-.41v-10.95c.2656541.0007696.5208504-.1034655.71-.29l1.58-1.58c.3930079-.3899779 1.0269921-.3899779 1.42 0l1.58 1.58c.3930079.3899779 1.0269921.3899779 1.42 0l1.62-1.62z" fill="#ff9801"/><path id="Shape" d="m38.33 28.67-1.62 1.62c-.1253981.1192771-.2804247.2028326-.449.242l14.739 29.468h3z" fill="#f57c00"/><path id="Shape" d="m30 30.58v10.95c-.0751833-.3496241-.3313461-.6324871-.6718286-.7418543-.3404826-.1093671-.7134514-.0285888-.9781714.2118543l-10.8 9.62c-.2636174.2308822-.3861848.5835162-.3225958.9281278s.3039383.6302788.6325958.7518722c4.14 1.45 4.14 7.7 4.14 7.7h-16l15.67-31.33 1.62 1.62c.3930079.3899779 1.0269921.3899779 1.42 0l1.58-1.58c.3930079-.3899779 1.0269921-.3899779 1.42 0l1.58 1.58c.1891496.1865345.4443459.2907696.71.29z" fill="#ff9801"/><path id="Shape" d="m29.29 30.29-1.58-1.58c-.3930079-.3899779-1.0269921-.3899779-1.42 0l-.79.79.79.79c.1891496.1865345.4443459.2907696.71.29v10.95c-.0751833-.3496241-.3313461-.6324871-.6718286-.7418543-.3404826-.1093671-.7134514-.0285888-.9781714.2118543l-10.8 9.62c-.2636174.2308822-.3861848.5835162-.3225958.9281278s.3039383.6302788.6325958.7518722c4.14 1.45 4.14 7.7 4.14 7.7h3s0-6.25-4.14-7.7c-.3286575-.1215934-.5690068-.4072606-.6325958-.7518722s.0589784-.6972456.3225958-.9281278l10.8-9.62c.26472-.2404431.6376888-.3212214.9781714-.2118543.3404825.1093672.5966453.3922302.6718286.7418543v-10.95c-.2656541.0007696-.5208504-.1034655-.71-.29z" fill="#f57c00"/><path id="Shape" d="m38 60h-16l7.93-17.85c.0278104-.0684272.051192-.138572.07-.21v.06z" fill="#37474f"/><path id="Shape" d="m30 41.53v.41c-.018808.071428-.0421896.1415728-.07.21l-7.93 17.85s0-6.25-4.14-7.7c-.3286575-.1215934-.5690068-.4072606-.6325958-.7518722s.0589784-.6972456.3225958-.9281278l10.8-9.62c.26472-.2404431.6376888-.3212214.9781714-.2118543.3404825.1093672.5966453.3922302.6718286.7418543z" fill="#ff5722"/><path id="Shape" d="m30 12-2.24 4.48-5.79-11.59c-.3446362-.64265948-.3121697-1.42195912.0847272-2.03372554.3968969-.61176641 1.0953069-.95902056 1.8226292-.90622346.7273223.05279709 1.3682596.49727587 1.6726436 1.159949z" fill="#ff9801"/><path id="Shape" d="m38.25 3.99c-.0003162.3132753-.0757594.62190623-.22.9l-5.79 11.59-2.24-4.48 4.45-8.89c.4147135-.82909098 1.3435194-1.26602519 2.2466459-1.0568801s1.5453125 1.00988792 1.5533541 1.9368801z" fill="#ff9801"/><g fill="#000"><path id="Shape" d="m8.605 21.8h8.395c1.9055566-.0019151 3.6443564-1.0867935 4.4837473-2.7975163s.6334204-3.749831-.5311248-5.258136c-1.1645453-1.508305-3.0851751-2.2235441-4.9526225-1.8443477-.8917244-1.1859149-2.336487-1.822113-3.8133564-1.6792033-1.4768695.1429097-2.77284531 1.0443161-3.4206436 2.3792033-1.68956189-.1026738-3.299257.7298403-4.19191597 2.1680062-.89265896 1.4381659-.92436823 3.2501241-.08257625 4.718643.84179198 1.4685188 2.42137239 2.3568452 4.11349222 2.3133508zm0-7.211c.20027898-.0001233.39991315.0226921.595.068.53511081.1252633 1.0710263-.2047713 1.2-.739.2443989-1.0105073 1.1503628-1.7212132 2.19-1.718.8756887-.0088568 1.6749078.4974589 2.041 1.293.22355.4767396.7784889.6984528 1.269.507 1.1212237-.4311767 2.3915492-.1519417 3.228596.7096896.8370468.8616314 1.0794023 2.1395058.6159587 3.2477818-.4634437 1.1082761-1.543318 1.8332386-2.7445547 1.8425286h-8.395c-1.41908574-.0278025-2.55495345-1.1861419-2.55495345-2.6055s1.13586771-2.5776975 2.55495345-2.6055z"/><path id="Shape" d="m53.4 16.606c1.6712267.0104283 3.2169222-.8854226 4.0386511-2.3407126.8217288-1.4552901.7904896-3.2415564-.0816232-4.66722361-.8721128-1.42566717-2.4481878-2.26692263-4.1180279-2.19806379-.6477983-1.33488723-1.9437741-2.23629363-3.4206436-2.3792033-1.4768694-.14290968-2.921632.49328841-3.8133564 1.6792033-1.8616133-.36381628-3.7687932.35710317-4.9242603 1.86138443-1.1554671 1.50428127-1.3602293 3.53286027-.5286876 5.23770767s2.556181 2.7923581 4.4529479 2.8079079zm-11.4-5.006c-.0029659-.9943546.4869591-1.92557072 1.3081017-2.48635106.8211427-.56078033 1.8667958-.67825166 2.7918983-.31364894.4923991.19202061 1.0492009-.03227719 1.271-.512.367469-.79274827 1.1652681-1.29670374 2.039-1.288 1.0414043-.00255033 1.9479663.71110852 2.19 1.724.1289737.53422866.6648892.86426329 1.2.739.9766315-.22931963 1.9981865.12232096 2.6267485.9041817.628562.7818608.7525187 1.8551084.3187327 2.759667s-1.3482883 1.4798076-2.3514812 1.4791513h-8.394c-1.6575957-.0038586-2.9994532-1.3483999-3-3.006z"/><path id="Shape" d="m59 59h-3v-5c0-.5522847-.4477153-1-1-1s-1 .4477153-1 1v3.764l-20.642-41.284 5.569-11.138c.4794504-.95997264.4103416-2.10280769-.1812939-2.99801026s-1.6159141-1.40677007-2.687-1.342c-1.0710859.06477008-2.0262557.69603762-2.5057061 1.65601026l-3.553 7.106-3.553-7.106c-.7411661-1.48398912-2.5450109-2.08616613-4.029-1.345s-2.0861661 2.54501088-1.345 4.029l5.569 11.138-20.642 41.284v-3.764c0-.5522847-.44771525-1-1-1s-1 .4477153-1 1v5h-3c-.55228475 0-1 .4477153-1 1s.44771525 1 1 1h58c.5522847 0 1-.4477153 1-1s-.4477153-1-1-1zm-20.35 0-7.635-17.179c.0050326-.1122232.0000125-.2246717-.015-.336v-10.176c.1509844-.0843515.2901846-.1882473.414-.309l1.586-1.586 1.586 1.586c.7809997.7807639 2.0470003.7807639 2.828 0l.645-.645 14.323 28.645zm-16.709-28.645.645.645c.7809997.7807639 2.0470003.7807639 2.828 0l1.586-1.586 1.586 1.586c.1238154.1207527.2630156.2246485.414.309v8.439c-.484035.0040179-.950188.1834442-1.312.505l-10.806 9.622c-.5329917.470725-.7743019 1.1900811-.633 1.887.1308061.6871982.6189923 1.2520449 1.28 1.481 2.517.884 3.208 4.1 3.4 5.757h-13.311zm8.059-16.119 7.117 14.233-1.117 1.117-1.586-1.586c-.7809997-.7807639-2.0470003-.7807639-2.828 0l-1.581 1.581h-.005l-1.586-1.581c-.7809997-.7807639-2.0470003-.7807639-2.828 0l-1.586 1.586-1.117-1.117zm-1 27.552-6.532 14.7c-.4913686-2.3015278-2.0825071-4.2145578-4.256-5.117l10.788-9.62zm1 2.674 6.461 14.538h-12.922zm5.342-40.909c.1596977-.32153906.4788035-.53345569.8371134-.55592293.3583098-.02246724.7013879.1479282.9.44700002s.2225844.68138387.0628866 1.00292291l-4.9 9.8-1.124-2.247zm-12.48.894c-.2468713-.49705627-.0440563-1.10012872.453-1.347s1.1001287-.04405627 1.347.453l4.22 8.447-1.122 2.244z"/><circle id="Oval" cx="27" cy="33" r="1"/><circle id="Oval" cx="33" cy="33" r="1"/></g></g></g></svg>