<svg xmlns="http://www.w3.org/2000/svg" height="512pt" version="1.1" viewBox="-8 0 512 512.00075" width="512pt">
<g id="surface1">
<path d="M 216.160156 343.097656 L 216.160156 145.109375 L 62.8125 143.085938 C 62.8125 143.085938 62.8125 144.480469 62.8125 146.835938 C 62.8125 148.105469 62.789062 149.148438 62.765625 150.226562 C 56.722656 165.621094 58.617188 178.878906 62.8125 194.886719 C 62.8125 196.070312 62.8125 197.027344 62.8125 197.808594 C 62.8125 199.371094 62.8125 200.265625 62.8125 200.265625 L 170.207031 200.265625 L 156.730469 343.097656 Z M 216.160156 343.097656 " style=" stroke:none;fill-rule:nonzero;fill:rgb(58.431373%,80%,76.078431%);fill-opacity:1;" />
<path d="M 92.746094 194.886719 C 88.550781 178.878906 86.660156 165.621094 92.703125 150.226562 C 92.722656 149.148438 92.746094 148.105469 92.746094 146.835938 C 92.746094 145.203125 92.746094 144.046875 92.746094 143.480469 L 62.8125 143.085938 C 62.8125 143.085938 62.8125 144.480469 62.8125 146.835938 C 62.8125 148.105469 62.789062 149.148438 62.765625 150.226562 C 56.722656 165.621094 58.617188 178.878906 62.8125 194.886719 C 62.8125 196.070312 62.8125 197.027344 62.8125 197.808594 C 62.8125 199.371094 62.8125 200.265625 62.8125 200.265625 L 92.746094 200.265625 C 92.746094 200.265625 92.746094 199.371094 92.746094 197.808594 C 92.746094 197.027344 92.746094 196.070312 92.746094 194.886719 Z M 92.746094 194.886719 " style=" stroke:none;fill-rule:nonzero;fill:rgb(43.529412%,67.843137%,63.137255%);fill-opacity:1;" />
<path d="M 282.6875 100.765625 L 282.6875 129.46875 C 282.6875 136.585938 280.28125 143.140625 276.242188 148.367188 C 276.242188 148.378906 276.230469 148.378906 276.230469 148.386719 C 270.890625 155.292969 262.710938 159.871094 253.441406 160.371094 C 253.152344 160.378906 252.871094 160.402344 252.59375 160.410156 C 252.304688 160.421875 252.015625 160.421875 251.734375 160.421875 L 242.875 160.421875 C 241.917969 160.421875 240.960938 160.378906 240.023438 160.292969 C 229.835938 159.363281 221.085938 153.496094 216.164062 145.105469 C 213.472656 140.515625 211.925781 135.175781 211.925781 129.46875 L 211.925781 100.765625 Z M 282.6875 100.765625 " style=" stroke:none;fill-rule:nonzero;fill:rgb(95.686275%,95.294118%,83.529412%);fill-opacity:1;" />
<path d="M 246.101562 145.105469 C 243.40625 140.515625 241.859375 135.175781 241.859375 129.46875 L 241.859375 100.765625 L 211.925781 100.765625 L 211.925781 129.46875 C 211.925781 135.175781 213.472656 140.515625 216.164062 145.105469 C 221.085938 153.496094 229.835938 159.363281 240.023438 160.292969 C 240.960938 160.378906 241.917969 160.421875 242.875 160.421875 L 251.734375 160.421875 C 252.015625 160.421875 252.304688 160.421875 252.59375 160.410156 C 252.871094 160.402344 253.152344 160.378906 253.441406 160.371094 C 256.527344 160.203125 259.488281 159.578125 262.269531 158.570312 C 255.4375 156.097656 249.726562 151.292969 246.101562 145.105469 Z M 246.101562 145.105469 " style=" stroke:none;fill-rule:nonzero;fill:rgb(89.803922%,89.019608%,76.470588%);fill-opacity:1;" />
<path d="M 327.164062 87.050781 C 327.164062 87.050781 291.410156 100.765625 247.304688 100.765625 C 203.199219 100.765625 167.445312 87.050781 167.445312 87.050781 C 167.445312 87.050781 203.199219 73.339844 247.304688 73.339844 C 291.410156 73.339844 327.164062 87.050781 327.164062 87.050781 Z M 327.164062 87.050781 " style=" stroke:none;fill-rule:nonzero;fill:rgb(100%,80.392157%,41.960784%);fill-opacity:1;" />
<path d="M 276.890625 37.785156 L 276.890625 45.359375 L 216.285156 45.359375 L 216.285156 37.785156 C 216.285156 21.054688 246.585938 7.484375 246.585938 7.484375 C 246.585938 7.484375 276.890625 21.054688 276.890625 37.785156 Z M 276.890625 37.785156 " style=" stroke:none;fill-rule:nonzero;fill:rgb(100%,80.392157%,41.960784%);fill-opacity:1;" />
<path d="M 216.285156 45.359375 L 276.890625 45.359375 L 276.890625 72.816406 L 216.285156 72.816406 Z M 216.285156 45.359375 " style=" stroke:none;fill-rule:nonzero;fill:rgb(90.196078%,22.352941%,31.372549%);fill-opacity:1;" />
<path d="M 432.242188 162.785156 L 431.441406 185.15625 L 431.453125 185.15625 C 430.972656 188.128906 430.34375 191.09375 429.566406 194.003906 C 429.566406 194.804688 429.578125 195.511719 429.578125 196.03125 C 429.578125 198.675781 429.578125 200.261719 429.578125 200.261719 L 322.175781 200.261719 L 328.273438 264.917969 L 299.457031 268.519531 L 304.507812 313.347656 L 332.753906 312.339844 L 335.65625 343.101562 L 276.230469 343.101562 L 276.230469 255.894531 L 302.769531 219.277344 L 276.230469 193.726562 L 308.867188 170.925781 L 300.597656 147.578125 L 300.597656 147.53125 L 429.578125 143.078125 C 429.578125 143.078125 429.578125 143.789062 429.578125 145.046875 C 429.578125 145.246094 429.605469 146.941406 429.605469 147.859375 C 430.914062 152.738281 431.792969 157.738281 432.242188 162.777344 C 432.242188 162.785156 432.242188 162.785156 432.242188 162.785156 Z M 432.242188 162.785156 " style=" stroke:none;fill-rule:nonzero;fill:rgb(43.529412%,67.843137%,63.137255%);fill-opacity:1;" />
<path d="M 302.773438 219.277344 L 276.230469 255.894531 L 276.230469 193.726562 Z M 302.773438 219.277344 " style=" stroke:none;fill-rule:nonzero;fill:rgb(90.196078%,22.352941%,31.372549%);fill-opacity:1;" />
<path d="M 332.753906 312.339844 L 304.507812 313.347656 L 299.457031 268.519531 L 328.273438 264.917969 Z M 332.753906 312.339844 " style=" stroke:none;fill-rule:nonzero;fill:rgb(95.686275%,95.294118%,83.529412%);fill-opacity:1;" />
<path d="M 259.46875 233.714844 L 247.304688 242.554688 L 235.144531 233.714844 L 240.023438 160.292969 C 240.960938 160.378906 241.917969 160.421875 242.875 160.421875 L 251.734375 160.421875 C 252.015625 160.421875 252.304688 160.421875 252.59375 160.410156 L 253.441406 160.410156 Z M 259.46875 233.714844 " style=" stroke:none;fill-rule:nonzero;fill:rgb(54.117647%,26.666667%,43.921569%);fill-opacity:1;" />
<path d="M 276.230469 148.386719 L 276.230469 305.535156 L 216.15625 305.535156 L 216.15625 145.113281 L 216.164062 145.105469 C 221.085938 153.496094 229.835938 159.363281 240.023438 160.292969 L 235.144531 233.714844 L 247.304688 242.554688 L 259.46875 233.714844 L 253.441406 160.410156 L 252.59375 160.410156 C 252.871094 160.402344 253.152344 160.378906 253.441406 160.371094 C 262.710938 159.871094 270.890625 155.292969 276.230469 148.386719 Z M 276.230469 148.386719 " style=" stroke:none;fill-rule:nonzero;fill:rgb(100%,80.392157%,41.960784%);fill-opacity:1;" />
<path d="M 216.15625 193.726562 L 216.15625 255.894531 L 189.613281 219.277344 Z M 216.15625 193.726562 " style=" stroke:none;fill-rule:nonzero;fill:rgb(43.529412%,67.843137%,63.137255%);fill-opacity:1;" />
<path d="M 308.867188 170.925781 L 276.230469 193.726562 L 276.230469 148.386719 C 276.230469 148.378906 276.242188 148.378906 276.242188 148.367188 L 300.597656 147.53125 L 300.597656 147.578125 Z M 308.867188 170.925781 " style=" stroke:none;fill-rule:nonzero;fill:rgb(54.117647%,26.666667%,43.921569%);fill-opacity:1;" />
<path d="M 216.15625 145.113281 L 216.15625 193.726562 L 183.53125 170.925781 L 192.777344 144.804688 Z M 216.15625 145.113281 " style=" stroke:none;fill-rule:nonzero;fill:rgb(90.196078%,22.352941%,31.372549%);fill-opacity:1;" />
<path d="M 156.738281 200.261719 L 118.894531 200.261719 L 109.742188 178.800781 L 153.558594 170.789062 Z M 156.738281 200.261719 " style=" stroke:none;fill-rule:nonzero;fill:rgb(54.117647%,26.666667%,43.921569%);fill-opacity:1;" />
<path d="M 400.8125 467.988281 C 400.878906 467.238281 400.917969 466.484375 400.917969 465.722656 C 400.917969 453.347656 392.429688 442.960938 380.960938 440.054688 C 381.441406 438.058594 381.703125 435.976562 381.703125 433.832031 C 381.703125 419.210938 369.847656 407.355469 355.226562 407.355469 C 344.28125 407.355469 334.890625 413.992188 330.855469 423.464844 C 329.761719 423.355469 328.652344 423.296875 327.53125 423.296875 C 309.367188 423.296875 294.644531 438.023438 294.644531 456.183594 C 294.644531 460.40625 295.449219 464.433594 296.898438 468.144531 C 288.777344 470.066406 282.6875 477.394531 282.6875 486.082031 C 282.6875 496.222656 290.984375 504.515625 301.121094 504.515625 L 397.289062 504.515625 C 407.429688 504.515625 415.722656 496.222656 415.722656 486.082031 C 415.726562 477.144531 409.28125 469.644531 400.8125 467.988281 Z M 400.8125 467.988281 " style=" stroke:none;fill-rule:nonzero;fill:rgb(36.078431%,70.980392%,48.627451%);fill-opacity:1;" />
<path d="M 236.121094 305.53125 L 258.484375 305.53125 L 258.484375 504.515625 L 236.121094 504.515625 Z M 236.121094 305.53125 " style=" stroke:none;fill-rule:nonzero;fill:rgb(48.627451%,30.980392%,16.470588%);fill-opacity:1;" />
<path d="M 319.960938 462.558594 C 319.253906 449.957031 308.984375 439.960938 296.417969 439.960938 C 294.773438 439.960938 293.167969 440.132812 291.617188 440.460938 C 287.351562 429.148438 276.4375 421.101562 263.632812 421.101562 C 252.984375 421.101562 243.644531 426.671875 238.347656 435.054688 C 234.820312 428.917969 228.203125 424.78125 220.617188 424.78125 C 212.527344 424.78125 205.539062 429.480469 202.222656 436.300781 C 201.992188 436.292969 201.765625 436.28125 201.535156 436.28125 C 187.816406 436.28125 176.695312 447.402344 176.695312 461.121094 C 176.695312 461.511719 176.707031 461.894531 176.722656 462.277344 C 165.886719 463.195312 157.375 472.277344 157.375 483.355469 C 157.375 495.042969 166.847656 504.515625 178.535156 504.515625 L 316.074219 504.515625 C 327.761719 504.515625 337.238281 495.042969 337.238281 483.355469 C 337.234375 472.996094 329.789062 464.382812 319.960938 462.558594 Z M 319.960938 462.558594 " style=" stroke:none;fill-rule:nonzero;fill:rgb(36.862745%,61.960784%,45.098039%);fill-opacity:1;" />
<path d="M 431.441406 185.152344 L 489.125 185.152344 L 489.125 162.789062 L 432.246094 162.789062 " style=" stroke:none;fill-rule:nonzero;fill:rgb(48.627451%,30.980392%,16.470588%);fill-opacity:1;" />
<path d="M 59.429688 162.789062 L 7.484375 162.789062 L 7.484375 185.152344 L 60.535156 185.152344 " style=" stroke:none;fill-rule:nonzero;fill:rgb(48.627451%,30.980392%,16.470588%);fill-opacity:1;" />
<path d="M 200.207031 467.988281 C 200.269531 467.238281 200.308594 466.484375 200.308594 465.722656 C 200.308594 453.347656 191.820312 442.960938 180.351562 440.054688 C 180.832031 438.058594 181.09375 435.976562 181.09375 433.832031 C 181.09375 419.210938 169.242188 407.355469 154.617188 407.355469 C 143.671875 407.355469 134.28125 413.992188 130.246094 423.464844 C 129.152344 423.355469 128.042969 423.296875 126.921875 423.296875 C 108.761719 423.296875 94.035156 438.023438 94.035156 456.183594 C 94.035156 460.40625 94.839844 464.433594 96.289062 468.144531 C 88.167969 470.066406 82.078125 477.394531 82.078125 486.082031 C 82.078125 496.222656 90.375 504.515625 100.515625 504.515625 L 196.679688 504.515625 C 206.820312 504.515625 215.117188 496.222656 215.117188 486.082031 C 215.117188 477.144531 208.671875 469.644531 200.207031 467.988281 Z M 200.207031 467.988281 " style=" stroke:none;fill-rule:nonzero;fill:rgb(36.078431%,70.980392%,48.627451%);fill-opacity:1;" />
<path d="M 112.011719 486.082031 C 112.011719 478.925781 116.144531 472.691406 122.140625 469.640625 C 124.304688 468.539062 125.398438 466.074219 124.84375 463.707031 C 124.273438 461.292969 123.972656 458.773438 123.972656 456.183594 C 123.972656 438.023438 138.695312 423.296875 156.859375 423.296875 C 156.871094 423.296875 156.878906 423.296875 156.890625 423.296875 C 158.832031 423.300781 160.632812 422.304688 161.601562 420.621094 C 163.589844 417.183594 166.324219 414.234375 169.589844 411.996094 C 165.332031 409.070312 160.175781 407.355469 154.617188 407.355469 C 143.675781 407.355469 134.28125 413.992188 130.25 423.464844 C 129.15625 423.355469 128.046875 423.296875 126.925781 423.296875 C 108.761719 423.296875 94.039062 438.019531 94.039062 456.183594 C 94.039062 460.402344 94.84375 464.433594 96.292969 468.140625 C 87.730469 470.167969 81.425781 478.199219 82.136719 487.5 C 82.871094 497.191406 91.285156 504.515625 101.003906 504.515625 L 130.453125 504.515625 C 120.308594 504.515625 112.011719 496.21875 112.011719 486.082031 Z M 112.011719 486.082031 " style=" stroke:none;fill-rule:nonzero;fill:rgb(36.862745%,61.960784%,45.098039%);fill-opacity:1;" />
<path d="M 230.8125 116.148438 C 230.335938 116.238281 229.863281 116.390625 229.40625 116.570312 C 228.957031 116.757812 228.515625 116.988281 228.117188 117.257812 C 227.710938 117.535156 227.320312 117.847656 226.980469 118.195312 C 226.632812 118.535156 226.324219 118.914062 226.042969 119.332031 C 225.785156 119.730469 225.542969 120.171875 225.363281 120.621094 C 225.175781 121.070312 225.035156 121.539062 224.9375 122.015625 C 224.835938 122.503906 224.785156 122.996094 224.785156 123.484375 C 224.785156 123.972656 224.835938 124.460938 224.9375 124.941406 C 225.035156 125.417969 225.175781 125.886719 225.363281 126.347656 C 225.542969 126.796875 225.785156 127.234375 226.042969 127.632812 C 226.324219 128.042969 226.632812 128.433594 226.980469 128.773438 C 227.320312 129.121094 227.707031 129.429688 228.117188 129.699219 C 228.515625 129.96875 228.957031 130.207031 229.40625 130.386719 C 229.863281 130.578125 230.335938 130.726562 230.8125 130.816406 C 231.292969 130.917969 231.78125 130.96875 232.269531 130.96875 C 232.757812 130.96875 233.246094 130.917969 233.734375 130.816406 C 234.214844 130.726562 234.683594 130.578125 235.132812 130.386719 C 235.582031 130.207031 236.019531 129.96875 236.429688 129.699219 C 236.839844 129.429688 237.21875 129.121094 237.558594 128.773438 C 238.953125 127.375 239.753906 125.449219 239.753906 123.484375 C 239.753906 121.519531 238.953125 119.582031 237.558594 118.195312 C 235.820312 116.449219 233.238281 115.652344 230.8125 116.148438 Z M 230.8125 116.148438 " style=" stroke:none;fill-rule:nonzero;fill:rgb(0%,0%,0%);fill-opacity:1;" />
<path d="M 255.425781 126.347656 C 255.617188 126.796875 255.847656 127.234375 256.117188 127.632812 C 256.386719 128.042969 256.703125 128.433594 257.042969 128.773438 C 257.394531 129.121094 257.773438 129.429688 258.179688 129.699219 C 258.589844 129.96875 259.019531 130.207031 259.480469 130.386719 C 259.925781 130.578125 260.398438 130.726562 260.875 130.816406 C 261.355469 130.917969 261.851562 130.96875 262.339844 130.96875 C 264.308594 130.96875 266.234375 130.167969 267.628906 128.773438 C 267.96875 128.433594 268.289062 128.042969 268.558594 127.632812 C 268.828125 127.234375 269.058594 126.796875 269.246094 126.347656 C 269.4375 125.886719 269.574219 125.417969 269.675781 124.941406 C 269.777344 124.460938 269.816406 123.972656 269.816406 123.484375 C 269.816406 122.996094 269.777344 122.503906 269.675781 122.015625 C 269.574219 121.539062 269.4375 121.070312 269.246094 120.621094 C 269.058594 120.171875 268.828125 119.730469 268.558594 119.332031 C 268.289062 118.925781 267.96875 118.535156 267.628906 118.195312 C 265.894531 116.449219 263.308594 115.652344 260.875 116.148438 C 260.398438 116.238281 259.925781 116.390625 259.480469 116.570312 C 259.019531 116.757812 258.589844 116.988281 258.179688 117.257812 C 257.773438 117.535156 257.394531 117.847656 257.042969 118.195312 C 256.703125 118.535156 256.386719 118.925781 256.117188 119.332031 C 255.84375 119.730469 255.617188 120.171875 255.425781 120.621094 C 255.238281 121.070312 255.097656 121.539062 255 122.015625 C 254.910156 122.503906 254.859375 122.996094 254.859375 123.484375 C 254.859375 123.972656 254.910156 124.460938 255 124.941406 C 255.097656 125.417969 255.238281 125.886719 255.425781 126.347656 Z M 255.425781 126.347656 " style=" stroke:none;fill-rule:nonzero;fill:rgb(0%,0%,0%);fill-opacity:1;" />
<path d="M 0 162.789062 L 0 185.152344 C 0 189.285156 3.351562 192.636719 7.484375 192.636719 L 38.589844 192.636719 L 28.875 200.136719 C 25.601562 202.660156 24.996094 207.359375 27.523438 210.632812 C 28.996094 212.542969 31.210938 213.542969 33.453125 213.542969 C 35.046875 213.542969 36.65625 213.035156 38.019531 211.984375 L 40.667969 209.9375 L 39.609375 212.199219 C 37.859375 215.941406 39.472656 220.394531 43.214844 222.148438 C 44.242188 222.628906 45.320312 222.855469 46.382812 222.855469 C 49.195312 222.855469 51.894531 221.261719 53.167969 218.542969 L 58.777344 206.558594 C 59.941406 207.308594 61.324219 207.75 62.8125 207.75 L 161.984375 207.75 L 158.394531 245.820312 C 158.003906 249.933594 161.027344 253.585938 165.140625 253.972656 C 169.261719 254.363281 172.90625 251.339844 173.292969 247.226562 L 177.660156 200.96875 C 177.855469 198.871094 177.160156 196.789062 175.742188 195.230469 C 174.324219 193.671875 172.316406 192.78125 170.207031 192.78125 L 163.460938 192.78125 L 160.996094 169.980469 C 160.769531 167.914062 159.695312 166.03125 158.03125 164.789062 C 156.363281 163.546875 154.257812 163.054688 152.207031 163.425781 L 108.394531 171.445312 C 106.15625 171.851562 104.226562 173.257812 103.152344 175.261719 C 102.074219 177.265625 101.964844 179.648438 102.859375 181.742188 L 107.566406 192.78125 L 69.996094 192.78125 C 65.878906 177.011719 64.628906 165.96875 69.730469 152.960938 C 70.019531 152.226562 70.191406 151.453125 70.238281 150.667969 L 182.238281 152.148438 L 176.46875 168.433594 C 175.34375 171.605469 176.476562 175.140625 179.238281 177.066406 L 204.410156 194.648438 L 184.417969 213.894531 C 181.730469 216.480469 181.359375 220.65625 183.550781 223.675781 L 208.675781 258.328125 L 208.675781 335.617188 L 164.953125 335.617188 L 170.527344 276.523438 C 170.917969 272.410156 167.894531 268.757812 163.78125 268.371094 C 159.667969 267.984375 156.015625 271.003906 155.628906 275.117188 L 149.28125 342.398438 C 149.082031 344.496094 149.777344 346.578125 151.195312 348.136719 C 152.613281 349.695312 154.625 350.585938 156.730469 350.585938 L 216.160156 350.585938 C 220.292969 350.585938 223.644531 347.234375 223.644531 343.101562 L 223.644531 313.015625 L 228.640625 313.015625 L 228.640625 418.511719 C 226.066406 417.734375 223.375 417.300781 220.617188 417.300781 C 211.578125 417.300781 203.085938 421.777344 197.894531 429.003906 C 194.582031 429.378906 191.429688 430.273438 188.496094 431.574219 C 187.328125 413.898438 172.585938 399.871094 154.617188 399.871094 C 142.765625 399.871094 131.953125 405.992188 125.8125 415.832031 C 104.066406 416.425781 86.554688 434.300781 86.554688 456.1875 C 86.554688 458.753906 86.796875 461.296875 87.277344 463.792969 C 79.554688 468.359375 74.597656 476.710938 74.597656 486.082031 C 74.597656 500.375 86.222656 512 100.515625 512 L 397.292969 512 C 411.582031 512 423.210938 500.375 423.210938 486.082031 C 423.210938 475.871094 417.199219 466.796875 408.261719 462.609375 C 407.167969 450.632812 399.839844 440.226562 389.164062 435.105469 C 389.183594 434.683594 389.1875 434.257812 389.1875 433.835938 C 389.1875 426.976562 387.152344 420.367188 383.304688 414.71875 C 380.972656 411.304688 376.316406 410.421875 372.90625 412.753906 C 372.609375 412.953125 372.339844 413.179688 372.082031 413.414062 C 369.371094 415.882812 368.8125 420.03125 370.9375 423.152344 C 373.085938 426.304688 374.222656 429.996094 374.222656 433.835938 C 374.222656 435.328125 374.042969 436.832031 373.6875 438.304688 C 372.726562 442.289062 375.152344 446.304688 379.125 447.3125 C 387.550781 449.445312 393.4375 457.019531 393.4375 465.722656 C 393.4375 466.214844 393.410156 466.75 393.359375 467.359375 C 393.039062 471.164062 395.632812 474.601562 399.378906 475.335938 C 404.515625 476.339844 408.246094 480.863281 408.246094 486.082031 C 408.246094 492.125 403.332031 497.035156 397.292969 497.035156 L 341.238281 497.035156 C 343.457031 492.96875 344.722656 488.308594 344.722656 483.359375 C 344.722656 471.449219 337.390625 460.996094 326.667969 456.738281 C 324.648438 448.011719 319.042969 440.703125 311.554688 436.457031 C 315.921875 432.914062 321.484375 430.785156 327.535156 430.785156 C 328.386719 430.785156 329.253906 430.828125 330.109375 430.914062 C 333.367188 431.242188 336.457031 429.410156 337.742188 426.398438 C 340.210938 420.605469 345.355469 416.421875 351.507812 415.199219 C 355.207031 414.46875 357.71875 411.121094 357.515625 407.460938 C 357.5 407.109375 357.464844 406.757812 357.394531 406.40625 C 356.589844 402.351562 352.652344 399.714844 348.597656 400.519531 C 339.335938 402.355469 331.351562 407.941406 326.421875 415.832031 C 313.863281 416.171875 302.730469 422.28125 295.554688 431.59375 C 289.25 421.285156 278.183594 414.476562 265.96875 413.699219 L 265.96875 313.015625 L 268.746094 313.015625 L 268.746094 343.097656 C 268.746094 347.230469 272.09375 350.582031 276.226562 350.582031 L 335.65625 350.582031 C 337.765625 350.582031 339.773438 349.695312 341.191406 348.136719 C 342.609375 346.578125 343.304688 344.492188 343.109375 342.394531 L 330.402344 207.746094 L 429.578125 207.746094 C 430.207031 207.746094 430.820312 207.660156 431.40625 207.511719 L 433.988281 214.835938 C 435.074219 217.914062 437.960938 219.832031 441.046875 219.832031 C 441.871094 219.832031 442.710938 219.695312 443.535156 219.40625 C 447.433594 218.03125 449.476562 213.757812 448.101562 209.859375 L 445.050781 201.210938 L 460.246094 209.597656 C 461.390625 210.230469 462.632812 210.53125 463.855469 210.53125 C 466.492188 210.53125 469.046875 209.136719 470.414062 206.664062 C 472.410156 203.046875 471.097656 198.492188 467.480469 196.496094 L 460.488281 192.636719 L 489.125 192.636719 C 493.257812 192.636719 496.605469 189.285156 496.605469 185.152344 L 496.605469 162.789062 C 496.605469 158.65625 493.257812 155.308594 489.125 155.308594 L 464.984375 155.308594 C 466.277344 153.277344 466.570312 150.664062 465.539062 148.289062 C 463.890625 144.5 459.476562 142.765625 455.691406 144.417969 L 447.28125 148.078125 L 454.558594 132.324219 C 456.292969 128.570312 454.65625 124.125 450.90625 122.390625 C 447.152344 120.65625 442.707031 122.292969 440.972656 126.042969 L 435.316406 138.289062 C 435.144531 138.085938 434.964844 137.890625 434.773438 137.703125 C 433.316406 136.292969 431.34375 135.542969 429.316406 135.605469 L 288.5625 140.457031 C 289.601562 136.972656 290.171875 133.285156 290.171875 129.46875 L 290.171875 120.871094 L 300.792969 133.027344 C 302.273438 134.71875 304.347656 135.585938 306.429688 135.585938 C 308.179688 135.585938 309.933594 134.976562 311.355469 133.734375 C 314.464844 131.015625 314.78125 126.289062 312.0625 123.175781 L 301.445312 111.03125 L 331.460938 114.347656 C 331.738281 114.378906 332.019531 114.394531 332.292969 114.394531 C 336.054688 114.394531 339.296875 111.5625 339.722656 107.734375 C 340.175781 103.625 337.210938 99.925781 333.105469 99.472656 L 318.261719 97.832031 C 325.183594 95.800781 329.351562 94.226562 329.84375 94.039062 C 332.734375 92.929688 334.644531 90.152344 334.644531 87.050781 C 334.644531 83.953125 332.734375 81.175781 329.84375 80.066406 C 328.78125 79.65625 310.652344 72.8125 284.371094 68.773438 L 284.371094 37.785156 C 284.371094 16.808594 253.199219 2.242188 249.644531 0.652344 C 247.699219 -0.21875 245.472656 -0.21875 243.527344 0.652344 C 239.972656 2.246094 208.800781 16.808594 208.800781 37.785156 L 208.800781 68.992188 C 183.292969 73.054688 165.808594 79.664062 164.765625 80.0625 C 161.871094 81.171875 159.960938 83.953125 159.960938 87.050781 C 159.960938 90.148438 161.871094 92.925781 164.765625 94.035156 C 165.375 94.269531 171.570312 96.613281 181.675781 99.332031 L 159.695312 103.839844 C 155.648438 104.671875 153.039062 108.628906 153.871094 112.675781 C 154.597656 116.21875 157.714844 118.65625 161.195312 118.65625 C 161.691406 118.65625 162.199219 118.605469 162.707031 118.5 L 183.746094 114.183594 L 170.03125 125.429688 C 166.835938 128.046875 166.367188 132.765625 168.988281 135.960938 C 169.3125 136.355469 169.675781 136.703125 170.058594 137.015625 L 62.910156 135.601562 C 61.488281 135.574219 60.054688 135.988281 58.828125 136.757812 L 50.589844 111.214844 C 49.324219 107.28125 45.101562 105.121094 41.171875 106.390625 C 37.238281 107.660156 35.078125 111.875 36.347656 115.808594 L 42.941406 136.25 L 30.261719 123.847656 C 27.308594 120.957031 22.570312 121.007812 19.683594 123.960938 C 16.792969 126.914062 16.84375 131.652344 19.796875 134.542969 L 41.015625 155.304688 L 7.484375 155.304688 C 3.351562 155.304688 0 158.65625 0 162.789062 Z M 59.429688 170.273438 C 59.554688 170.273438 59.675781 170.257812 59.800781 170.253906 L 60.164062 177.667969 L 14.964844 177.667969 L 14.964844 170.273438 Z M 120.296875 184.480469 L 146.980469 179.597656 L 148.40625 192.78125 L 123.839844 192.78125 Z M 235.640625 22.550781 C 239.71875 19.578125 243.871094 17.242188 246.585938 15.828125 C 249.300781 17.242188 253.453125 19.578125 257.53125 22.550781 C 265.078125 28.050781 269.40625 33.605469 269.40625 37.785156 L 269.40625 37.878906 L 223.765625 37.878906 L 223.765625 37.785156 C 223.765625 33.601562 228.09375 28.050781 235.640625 22.550781 Z M 223.765625 52.84375 L 269.40625 52.84375 L 269.40625 65.339844 L 223.765625 65.339844 Z M 247.304688 80.820312 C 267.644531 80.820312 286.269531 83.878906 300.125 87.050781 C 286.269531 90.226562 267.644531 93.28125 247.304688 93.28125 C 226.949219 93.28125 208.3125 90.222656 194.449219 87.046875 C 208.289062 83.875 226.90625 80.820312 247.304688 80.820312 Z M 481.640625 177.671875 L 431.710938 177.671875 L 431.976562 170.257812 C 432.066406 170.261719 432.15625 170.273438 432.246094 170.273438 L 481.640625 170.273438 Z M 293.15625 447.78125 C 294.226562 447.558594 295.324219 447.445312 296.417969 447.445312 C 304.941406 447.445312 312 454.265625 312.488281 462.976562 C 312.683594 466.421875 315.203125 469.285156 318.59375 469.914062 C 325.058594 471.117188 329.753906 476.769531 329.753906 483.355469 C 329.753906 490.898438 323.617188 497.035156 316.074219 497.035156 L 220.164062 497.035156 C 221.726562 493.703125 222.601562 489.992188 222.601562 486.082031 C 222.601562 475.871094 216.585938 466.792969 207.652344 462.605469 C 207.007812 455.554688 204.1875 449.058594 199.8125 443.855469 C 200.378906 443.796875 200.953125 443.765625 201.535156 443.765625 L 202.019531 443.78125 C 204.964844 443.867188 207.671875 442.214844 208.957031 439.574219 C 211.144531 435.066406 215.617188 432.265625 220.617188 432.265625 C 225.242188 432.265625 229.546875 434.765625 231.859375 438.785156 C 233.167969 441.058594 235.566406 442.484375 238.191406 442.539062 C 238.242188 442.539062 238.292969 442.539062 238.347656 442.539062 C 240.910156 442.539062 243.300781 441.226562 244.671875 439.054688 C 248.816406 432.5 255.90625 428.585938 263.636719 428.585938 C 272.910156 428.585938 281.34375 434.417969 284.617188 443.097656 C 285.917969 446.554688 289.546875 448.542969 293.15625 447.78125 Z M 100.515625 497.035156 C 94.472656 497.035156 89.558594 492.121094 89.558594 486.082031 C 89.558594 481.066406 93.117188 476.585938 98.011719 475.425781 C 100.121094 474.925781 101.910156 473.535156 102.914062 471.617188 C 103.921875 469.699219 104.046875 467.4375 103.257812 465.421875 C 102.105469 462.464844 101.519531 459.359375 101.519531 456.183594 C 101.519531 442.175781 112.914062 430.78125 126.921875 430.78125 C 127.777344 430.78125 128.644531 430.824219 129.5 430.910156 C 132.757812 431.238281 135.847656 429.410156 137.128906 426.398438 C 140.121094 419.375 146.984375 414.839844 154.617188 414.839844 C 157.988281 414.839844 161.152344 415.730469 163.898438 417.28125 C 169.6875 420.539062 173.609375 426.730469 173.609375 433.835938 C 173.609375 435.328125 173.429688 436.832031 173.074219 438.304688 C 172.113281 442.289062 174.539062 446.304688 178.511719 447.3125 C 186.9375 449.445312 192.824219 457.019531 192.824219 465.722656 C 192.824219 466.214844 192.796875 466.75 192.746094 467.359375 C 192.425781 471.164062 195.019531 474.601562 198.765625 475.335938 C 203.902344 476.339844 207.632812 480.863281 207.632812 486.082031 C 207.632812 492.125 202.71875 497.035156 196.679688 497.035156 Z M 251.003906 415.808594 C 248.40625 416.734375 245.925781 417.941406 243.605469 419.417969 L 243.605469 313.015625 L 251.003906 313.015625 Z M 223.644531 298.050781 L 223.644531 162.726562 C 226.289062 164.261719 229.128906 165.488281 232.121094 166.363281 L 227.675781 233.222656 C 227.503906 235.789062 228.664062 238.261719 230.742188 239.773438 L 242.90625 248.609375 C 244.21875 249.5625 245.761719 250.039062 247.304688 250.039062 C 248.847656 250.039062 250.390625 249.5625 251.703125 248.609375 L 263.863281 239.773438 C 265.976562 238.234375 267.136719 235.707031 266.921875 233.105469 L 261.460938 166.65625 C 264 165.988281 266.433594 165.066406 268.742188 163.925781 L 268.742188 298.050781 Z M 275.203125 108.246094 L 275.203125 129.46875 C 275.203125 134.808594 273.40625 139.738281 270.390625 143.6875 C 270.382812 143.695312 270.375 143.703125 270.371094 143.710938 C 266.246094 149.09375 259.855469 152.640625 252.636719 152.917969 C 252.335938 152.925781 252.035156 152.941406 251.734375 152.941406 L 242.875 152.941406 C 229.933594 152.941406 219.40625 142.410156 219.40625 129.46875 L 219.40625 108.25 L 275.203125 108.25 Z M 424.765625 163.117188 C 424.769531 163.21875 424.777344 163.324219 424.785156 163.429688 C 424.796875 163.554688 424.8125 163.675781 424.828125 163.800781 C 424.828125 163.820312 424.832031 163.839844 424.835938 163.855469 C 425.390625 170.410156 425.152344 177.035156 424.125 183.574219 C 424.0625 183.859375 424.019531 184.152344 423.992188 184.453125 C 423.5625 187.011719 423.011719 189.554688 422.339844 192.074219 C 422.277344 192.304688 422.226562 192.542969 422.1875 192.78125 L 322.179688 192.78125 C 320.070312 192.78125 318.0625 193.667969 316.644531 195.226562 C 315.226562 196.785156 314.53125 198.867188 314.726562 200.964844 L 320.148438 258.394531 L 298.527344 261.09375 C 294.464844 261.601562 291.5625 265.285156 292.019531 269.359375 L 297.070312 314.179688 C 297.5 317.976562 300.710938 320.824219 304.503906 320.824219 C 304.59375 320.824219 304.683594 320.824219 304.773438 320.820312 L 325.96875 320.070312 L 327.4375 335.613281 L 283.710938 335.613281 L 283.710938 258.320312 L 308.835938 223.671875 C 311.027344 220.652344 310.65625 216.476562 307.96875 213.886719 L 287.976562 194.644531 L 313.152344 177.0625 C 315.910156 175.132812 317.042969 171.601562 315.917969 168.429688 L 311.039062 154.652344 L 422.648438 150.808594 C 423.671875 154.855469 424.375 158.96875 424.765625 163.117188 Z M 311.167969 305.621094 L 307.71875 275.03125 L 321.554688 273.300781 L 324.558594 305.148438 Z M 292.898438 220.160156 L 283.710938 232.828125 L 283.710938 211.316406 Z M 251.664062 230.136719 L 247.304688 233.304688 L 242.882812 230.09375 L 246.808594 171.0625 Z M 198.039062 152.355469 L 208.675781 152.496094 L 208.675781 179.371094 L 192.480469 168.058594 Z M 208.675781 211.316406 L 208.675781 232.828125 L 199.492188 220.15625 Z M 295.351562 155.199219 L 299.90625 168.058594 L 283.710938 179.371094 L 283.710938 155.597656 Z M 179.519531 137.003906 L 204.441406 116.574219 L 204.441406 129.46875 C 204.441406 132.21875 204.734375 134.894531 205.285156 137.484375 L 179.320312 137.140625 C 179.386719 137.089844 179.457031 137.054688 179.519531 137.003906 Z M 179.519531 137.003906 " style=" stroke:none;fill-rule:nonzero;fill:rgb(0%,0%,0%);fill-opacity:1;" />
</g>
</svg>