<svg id="Capa_1" enable-background="new 0 0 512 512" height="512" viewBox="0 0 512 512" width="512" xmlns="http://www.w3.org/2000/svg"><path d="m452.131 165.22-86.379-89.486c-28.971-15.669-62.14-24.568-97.389-24.568-2.182 0-4.353.047-6.519.114l6.519 204.905 202.856 29.702c1.409-9.699 2.163-19.611 2.163-29.702.001-32.672-7.655-63.552-21.251-90.965z" fill="#43cb8e"/><path d="m268.364 256.186v-205.02c-109.11 0-198.299 85.239-204.644 192.757l30.564 120.587c36.202 58.054 100.624 96.694 174.08 96.694 36.964 0 71.64-9.787 101.587-26.904z" fill="#fee55a"/><path d="m133.187 256.362c0-90.543 53.024-168.693 129.708-205.12-106.607 2.792-192.937 86.965-199.175 192.681l30.564 120.587c35.166 56.392 96.96 94.457 167.796 96.591-76.247-36.591-128.893-114.515-128.893-204.739z" fill="#ffd301"/><path d="m268.364 256.186 101.587 178.114c11.069-6.327 21.478-13.67 31.13-21.876l65.924-105.376c2.454-9.613 4.243-19.493 5.284-29.596z" fill="#ff656f"/><g fill="#dfebfa"><circle cx="70.433" cy="306.386" r="62.824"/><circle cx="415.294" cy="114.343" r="62.824"/><circle cx="441.785" cy="364.589" r="62.824"/></g><path d="m44.609 306.386c0-28.257 18.657-52.153 44.324-60.051-5.849-1.8-12.061-2.773-18.5-2.773-34.697 0-62.824 28.127-62.824 62.824s28.127 62.824 62.824 62.824c6.439 0 12.651-.973 18.5-2.773-25.667-7.898-44.324-31.794-44.324-60.051z" fill="#b1dbfc"/><path d="m389.47 114.343c0-28.257 18.657-52.153 44.324-60.051-5.849-1.8-12.061-2.773-18.5-2.773-34.697 0-62.824 28.127-62.824 62.824s28.127 62.824 62.824 62.824c6.439 0 12.651-.973 18.5-2.773-25.666-7.898-44.324-31.794-44.324-60.051z" fill="#b1dbfc"/><path d="m415.961 364.589c0-28.257 18.657-52.153 44.324-60.051-5.849-1.8-12.061-2.773-18.5-2.773-34.697 0-62.824 28.127-62.824 62.824s28.127 62.824 62.824 62.824c6.439 0 12.651-.973 18.5-2.773-25.667-7.898-44.324-31.794-44.324-60.051z" fill="#b1dbfc"/><path d="m103.781 313.17c-3.813-1.604-8.214.191-9.819 4.01-4.01 9.547-13.289 15.716-23.639 15.716s-19.629-6.169-23.639-15.716c-1.604-3.819-6.002-5.612-9.819-4.01-3.819 1.604-5.614 6-4.011 9.819 6.356 15.13 21.063 24.907 37.469 24.907s31.112-9.776 37.469-24.907c1.604-3.818-.191-8.215-4.011-9.819z"/><path d="m43.351 291.38c0-2.405 1.957-4.362 4.362-4.362s4.362 1.957 4.362 4.362c0 4.142 3.357 7.5 7.5 7.5s7.5-3.358 7.5-7.5c0-10.676-8.686-19.362-19.362-19.362s-19.362 8.686-19.362 19.362c0 4.142 3.357 7.5 7.5 7.5s7.5-3.358 7.5-7.5z"/><path d="m81.072 298.88c4.143 0 7.5-3.358 7.5-7.5 0-2.405 1.957-4.362 4.362-4.362s4.362 1.957 4.362 4.362c0 4.142 3.357 7.5 7.5 7.5s7.5-3.358 7.5-7.5c0-10.676-8.686-19.362-19.362-19.362s-19.362 8.686-19.362 19.362c0 4.142 3.358 7.5 7.5 7.5z"/><path d="m414.703 355.514c0-2.405 1.957-4.362 4.362-4.362s4.362 1.957 4.362 4.362c0 4.142 3.357 7.5 7.5 7.5s7.5-3.358 7.5-7.5c0-10.676-8.686-19.362-19.362-19.362s-19.362 8.686-19.362 19.362c0 4.142 3.357 7.5 7.5 7.5s7.5-3.358 7.5-7.5z"/><path d="m459.924 355.514c0-2.405 1.957-4.362 4.362-4.362s4.362 1.957 4.362 4.362c0 4.142 3.357 7.5 7.5 7.5s7.5-3.358 7.5-7.5c0-10.676-8.686-19.362-19.362-19.362s-19.362 8.686-19.362 19.362c0 4.142 3.357 7.5 7.5 7.5s7.5-3.358 7.5-7.5z"/><path d="m417.405 398.181c6.413-6.663 15.033-10.332 24.271-10.332s17.857 3.669 24.271 10.332c2.876 2.986 7.624 3.072 10.604.202 2.984-2.873 3.075-7.621.202-10.605-9.268-9.626-21.725-14.928-35.077-14.928s-25.81 5.302-35.077 14.928c-2.873 2.984-2.782 7.732.202 10.605 2.982 2.871 7.73 2.782 10.604-.202z"/><path d="m385.641 146.935h59.089c4.143 0 7.5-3.358 7.5-7.5s-3.357-7.5-7.5-7.5h-59.089c-4.143 0-7.5 3.358-7.5 7.5s3.357 7.5 7.5 7.5z"/><path d="m393.453 109.323h4.812c4.143 0 7.5-3.358 7.5-7.5s-3.357-7.5-7.5-7.5h-4.812c-4.143 0-7.5 3.358-7.5 7.5s3.358 7.5 7.5 7.5z"/><path d="m432.105 109.323h4.812c4.143 0 7.5-3.358 7.5-7.5s-3.357-7.5-7.5-7.5h-4.812c-4.143 0-7.5 3.358-7.5 7.5s3.358 7.5 7.5 7.5z"/><path d="m475.584 302.818c10.186-45.318 5.473-92.98-14.24-135.674 14.791-12.902 24.164-31.864 24.164-52.987 0-38.777-31.547-70.324-70.323-70.324-20.235 0-38.49 8.602-51.332 22.328-29.467-14.848-62.379-22.678-95.585-22.68-.005 0-.009-.001-.014-.001-110.171 0-202.12 84.514-211.678 193.754-32.216 6.412-56.576 34.894-56.576 68.966 0 38.777 31.547 70.324 70.323 70.324 7.23 0 14.208-1.099 20.777-3.135 39.064 58.814 105.007 95.13 177.155 95.13 48.103 0 94.839-16.178 132.896-46.702 6.261 4.447 13.303 7.914 20.939 10.125 3.974 1.149 8.138-1.139 9.29-5.118s-1.14-8.138-5.118-9.29c-23.69-6.86-39.91-28.891-39.91-53.131 0-30.506 24.818-55.324 55.324-55.324 30.298 0 55.324 24.639 55.324 55.324 0 24.478-16.412 46.326-39.91 53.131-3.979 1.152-6.271 5.312-5.118 9.29 1.152 3.98 5.313 6.27 9.29 5.118 29.874-8.65 50.738-36.423 50.738-67.539 0-26.488-14.726-49.594-36.416-61.585zm-60.398-243.984c30.505 0 55.323 24.818 55.323 55.324 0 30.503-24.817 55.32-55.32 55.324 0 0-.002 0-.004 0-30.508 0-55.324-24.821-55.324-55.324 0-31.047 25.43-55.324 55.325-55.324zm-344.863 302.69c-30.505 0-55.323-24.818-55.323-55.324 0-30.607 24.932-55.324 55.323-55.324 30.508 0 55.324 24.821 55.324 55.324 0 30.511-24.824 55.324-55.324 55.324zm391.19-64.599c-45.026-13.286-90.161 20.732-90.161 67.478 0 16.971 6.216 34.046 18.349 47.35-5.174 4.043-11.055 8.185-17.148 11.974l-51.745-90.726-38.798-68.026 181.784 18.957c-.594 4.194-1.373 8.692-2.281 12.993zm3.82-27.913-189.578-19.77v-65.834c0-4.142-3.357-7.5-7.5-7.5s-7.5 3.358-7.5 7.5v72.592c0 .146.02.29.028.436.009.148.011.295.029.443.022.19.062.375.099.562.027.139.047.279.082.417.052.203.124.401.192.6.041.116.071.235.118.35.125.311.27.615.438.908l97.779 171.439c-28.686 14.942-60.119 22.364-91.264 22.364-65.813 0-126.218-32.027-163.16-86.18 21.877-12.403 35.552-35.554 35.552-61.139 0-38.512-31.04-69.545-68.887-70.309 9.847-97.545 90.482-173.541 188.994-177.255v89.771c0 4.142 3.357 7.5 7.5 7.5s7.5-3.358 7.5-7.5v-89.765c27.396 1.044 54.388 7.771 78.906 19.698-6.69 11.23-9.8 23.601-9.8 35.818 0 38.773 31.543 70.324 70.323 70.324h.001c11.355-.001 22.996-2.734 33.663-8.577 13.062 29.334 18.586 60.929 16.485 93.107z"/></svg>