<svg id="Capa_1" enable-background="new 0 0 512 512" height="512" viewBox="0 0 512 512" width="512" xmlns="http://www.w3.org/2000/svg"><g><g><path d="m256 126.421-112.226 64.791v129.575l112.226 64.792 112.226-64.791v-129.576zm64.129 166.6-64.129 37.024-64.129-37.024v-74.043l64.129-37.023 64.129 37.024z" fill="#edf4ff"/><path d="m465.339 358.35-35.904-20.73 28.319-7.589c8.552-2.29 13.629-11.081 11.335-19.633s-11.093-13.641-19.633-11.335l-59.287 15.887-55.655-32.133v-53.634l55.655-32.133 59.287 15.887c1.389.376 2.787.552 4.161.552 7.077 0 13.555-4.724 15.473-11.887 2.294-8.552-2.783-17.343-11.335-19.633l-28.319-7.589 35.904-20.73c7.668-4.427 10.294-14.232 5.867-21.9-4.423-7.668-14.232-10.306-21.9-5.867l-35.9 20.727 7.586-28.317c2.294-8.552-2.783-17.343-11.335-19.633-8.556-2.317-17.347 2.779-19.633 11.335l-7.487 27.94-8.4 31.347-55.655 32.133-46.449-26.817v-64.267l43.4-43.4c6.263-6.259 6.263-16.412 0-22.671-6.255-6.263-16.416-6.263-22.671 0l-20.729 20.727v-41.455c0-8.854-7.178-16.032-16.032-16.032s-16.032 7.179-16.032 16.032v41.456l-20.729-20.727c-6.255-6.263-16.416-6.263-22.671 0-6.263 6.259-6.263 16.412 0 22.671l43.4 43.4v64.267l-46.449 26.817-55.655-32.133-15.887-59.287c-2.29-8.556-11.104-13.645-19.633-11.335-8.552 2.29-13.629 11.081-11.335 19.633l7.586 28.317-35.9-20.727c-7.664-4.439-17.477-1.8-21.9 5.867-4.427 7.668-1.8 17.473 5.867 21.9l35.904 20.73-28.319 7.589c-8.552 2.29-13.629 11.081-11.335 19.633 1.918 7.163 8.396 11.887 15.473 11.887 1.374 0 2.771-.176 4.161-.552l59.287-15.887 55.655 32.133v53.634l-55.655 32.133-59.287-15.887c-8.568-2.313-17.343 2.779-19.633 11.335-2.294 8.552 2.783 17.343 11.335 19.633l28.319 7.589-35.904 20.73c-7.668 4.427-10.294 14.232-5.867 21.9 2.967 5.143 8.357 8.02 13.899 8.02 2.72 0 5.476-.693 8-2.153l35.9-20.727-7.586 28.317c-2.294 8.552 2.783 17.344 11.335 19.633 1.39.376 2.787.552 4.161.552 7.077 0 13.555-4.724 15.473-11.887l15.887-59.287 55.655-32.133 46.449 26.817v64.267l-43.4 43.4c-6.263 6.259-6.263 16.412 0 22.671 6.255 6.263 16.416 6.263 22.671 0l20.729-20.727v41.456c0 8.854 7.179 16.032 16.032 16.032 8.854 0 16.032-7.178 16.032-16.032v-41.456l20.729 20.727c3.127 3.131 7.233 4.697 11.335 4.697s8.208-1.566 11.335-4.697c6.263-6.259 6.263-16.412 0-22.671l-43.4-43.4v-64.267l46.449-26.817 55.655 32.133 15.887 59.287c1.918 7.163 8.396 11.887 15.473 11.887 1.374 0 2.771-.176 4.161-.552 8.552-2.29 13.629-11.081 11.335-19.633l-7.586-28.317 35.9 20.727c2.525 1.46 5.28 2.153 8 2.153 5.542 0 10.932-2.877 13.899-8.02 4.426-7.669 1.8-17.474-5.868-21.901zm-162.89-75.534-46.449 26.815-46.449-26.816-2.801-51.315 49.25-29.131 46.449 26.816z" fill="#c3ddff"/><path d="m40.794 131.75c-4.427 7.668-1.8 17.473 5.867 21.9l35.904 20.73-28.319 7.589c-8.552 2.29-13.629 11.081-11.335 19.633 1.918 7.163 8.396 11.887 15.473 11.887 1.374 0 2.771-.176 4.161-.552l59.287-15.887 55.655 32.133v53.634l-55.655 32.133-59.287-15.887c-8.568-2.313-17.343 2.779-19.633 11.335-2.294 8.552 2.783 17.343 11.335 19.633l28.319 7.589-35.904 20.73c-7.668 4.427-10.294 14.232-5.867 21.9 2.967 5.143 8.357 8.02 13.899 8.02 2.72 0 5.476-.693 8-2.153l35.9-20.727-7.586 28.317c-2.294 8.552 2.783 17.344 11.335 19.633 1.39.376 2.787.552 4.161.552 7.077 0 13.555-4.724 15.473-11.887l15.887-59.287 55.655-32.133 46.449 26.817v64.267l-43.4 43.4c-6.263 6.259-6.263 16.412 0 22.671 6.255 6.263 16.416 6.263 22.671 0l20.729-20.727v41.456c0 8.854 7.178 16.032 16.032 16.032s16.032-7.178 16.032-16.032v-41.456-45.344-64.267l-16.032-27.771-46.449-26.816v-53.631l-16.032-27.768-130.826-75.533c-7.664-4.439-17.476-1.801-21.899 5.867z" fill="#a4ccff"/></g><g><path d="m209.551 253.26c-4.142 0-7.5 3.358-7.5 7.5v22.056c0 2.68 1.43 5.156 3.75 6.495l46.449 26.816c1.16.67 2.455 1.005 3.75 1.005s2.59-.335 3.75-1.005l46.449-26.816c2.32-1.339 3.75-3.815 3.75-6.495v-53.631c0-2.68-1.43-5.156-3.75-6.495l-46.449-26.816c-2.32-1.34-5.18-1.34-7.5 0l-46.449 26.816c-3.587 2.071-4.816 6.658-2.745 10.245 2.071 3.588 6.658 4.817 10.245 2.745l42.699-24.651 38.949 22.486v44.971l-38.949 22.485-38.949-22.486v-17.725c0-4.142-3.358-7.5-7.5-7.5z"/><path d="m469.089 351.855-20.225-11.677 10.828-2.901c6.072-1.626 11.147-5.519 14.291-10.963 3.143-5.444 3.978-11.787 2.349-17.858-1.631-6.082-5.535-11.163-10.992-14.306-5.446-3.137-11.782-3.963-17.827-2.332l-56.286 15.083-15.502-8.951v-83.902l15.502-8.951 56.271 15.079c1.993.539 4.051.812 6.117.812 10.625 0 19.967-7.175 22.717-17.444 1.628-6.072.794-12.414-2.349-17.858-3.144-5.444-8.219-9.337-14.289-10.962l-10.83-2.902 20.225-11.677c11.236-6.487 15.1-20.907 8.614-32.142-3.144-5.45-8.222-9.347-14.301-10.974-6.072-1.625-12.413-.786-17.845 2.359l-20.221 11.674 2.9-10.826c1.628-6.072.793-12.414-2.35-17.858s-8.218-9.337-14.27-10.957c-6.063-1.642-12.404-.819-17.851 2.318-5.459 3.145-9.362 8.23-10.988 14.315l-7.487 27.94c-1.072 4.001 1.302 8.114 5.303 9.186 4 1.072 8.114-1.302 9.186-5.303l7.488-27.946c.591-2.21 2.006-4.055 3.985-5.194 1.965-1.133 4.253-1.431 6.463-.832 2.201.589 4.04 2 5.179 3.974s1.442 4.272.851 6.474l-7.585 28.316c-.785 2.93.272 6.044 2.679 7.891 2.406 1.847 5.688 2.062 8.315.545l35.908-20.731c1.969-1.139 4.263-1.442 6.461-.854 2.204.59 4.045 2.002 5.186 3.98 2.352 4.075.952 9.303-3.122 11.655l-35.904 20.73c-2.627 1.517-4.082 4.467-3.686 7.474s2.564 5.48 5.495 6.265l28.32 7.59c2.201.589 4.041 2 5.18 3.973s1.441 4.271.851 6.475c-.998 3.725-4.381 6.327-8.228 6.327-.745 0-1.487-.098-2.219-.296l-59.287-15.887c-1.921-.514-3.969-.245-5.691.75l-55.655 32.133c-2.32 1.34-3.75 3.815-3.75 6.495v53.635c0 2.68 1.43 5.155 3.75 6.495l55.655 32.133c1.722.995 3.769 1.263 5.691.75l59.3-15.891c2.185-.59 4.474-.29 6.444.845 1.981 1.141 3.398 2.985 3.99 5.193.59 2.201.288 4.499-.851 6.472s-2.979 3.384-5.182 3.974l-28.318 7.589c-2.93.785-5.099 3.258-5.495 6.265s1.059 5.958 3.686 7.474l35.904 20.73c4.074 2.352 5.474 7.58 3.121 11.657-1.519 2.632-4.355 4.268-7.402 4.268-1.503 0-2.932-.385-4.25-1.148l-35.9-20.727c-2.627-1.517-5.909-1.302-8.315.545-2.407 1.847-3.464 4.961-2.679 7.891l7.586 28.318c.59 2.201.288 4.5-.852 6.473s-2.979 3.384-5.198 3.979c-.716.194-1.457.292-2.202.292-3.847 0-7.23-2.602-8.228-6.329l-15.887-59.288c-.515-1.921-1.772-3.559-3.495-4.554l-55.656-32.133c-2.32-1.34-5.18-1.34-7.5 0l-46.449 26.816c-2.32 1.34-3.75 3.815-3.75 6.495v64.268c0 1.989.79 3.897 2.197 5.303l43.401 43.402c1.611 1.61 2.499 3.751 2.499 6.03 0 2.278-.888 4.42-2.503 6.035-1.609 1.61-3.75 2.497-6.029 2.497s-4.421-.887-6.032-2.5l-20.729-20.727c-2.145-2.145-5.372-2.785-8.173-1.625-2.803 1.161-4.63 3.896-4.63 6.929v41.456c0 4.705-3.828 8.532-8.532 8.532s-8.532-3.828-8.532-8.532v-41.456c0-3.033-1.827-5.768-4.63-6.929-2.8-1.16-6.027-.52-8.173 1.625l-20.732 20.73c-1.608 1.61-3.749 2.497-6.029 2.497s-4.421-.887-6.034-2.502c-1.611-1.61-2.499-3.752-2.499-6.03 0-2.279.888-4.42 2.5-6.032l43.4-43.4c1.407-1.406 2.197-3.314 2.197-5.303v-64.271c0-2.68-1.43-5.155-3.75-6.495l-46.449-26.816c-2.32-1.34-5.18-1.34-7.5 0l-55.656 32.133c-1.723.995-2.979 2.633-3.495 4.554l-15.887 59.289c-.998 3.725-4.381 6.327-8.228 6.327-.745 0-1.486-.098-2.221-.297-2.201-.589-4.04-2-5.179-3.974s-1.442-4.272-.851-6.474l7.585-28.316c.785-2.93-.272-6.044-2.679-7.891-2.406-1.847-5.689-2.062-8.315-.545l-35.905 20.729c-1.314.76-2.742 1.146-4.246 1.146-3.047 0-5.884-1.635-7.404-4.27-2.352-4.075-.952-9.303 3.122-11.655l35.904-20.73c2.627-1.517 4.082-4.467 3.686-7.474s-2.564-5.48-5.495-6.265l-28.32-7.59c-2.201-.589-4.041-2-5.18-3.973s-1.441-4.271-.85-6.476c.592-2.212 2.006-4.057 3.982-5.196 1.965-1.132 4.257-1.43 6.464-.833l59.287 15.887c1.921.514 3.969.246 5.691-.75l55.655-32.133c2.32-1.34 3.75-3.815 3.75-6.495v-53.635c0-2.68-1.43-5.155-3.75-6.495l-55.655-32.133c-1.723-.995-3.771-1.264-5.691-.75l-59.302 15.892c-.717.194-1.459.292-2.204.292-3.847 0-7.23-2.602-8.229-6.33-.59-2.201-.288-4.499.851-6.472s2.979-3.384 5.182-3.974l28.318-7.589c2.93-.785 5.099-3.258 5.495-6.265s-1.059-5.958-3.686-7.474l-35.904-20.73c-4.074-2.352-5.474-7.58-3.121-11.657 1.14-1.976 2.981-3.389 5.187-3.979 2.198-.588 4.491-.285 6.466.859l35.9 20.727c2.627 1.517 5.909 1.301 8.315-.545 2.407-1.847 3.464-4.961 2.679-7.891l-7.586-28.318c-.59-2.201-.288-4.5.852-6.473s2.979-3.384 5.2-3.979c2.181-.59 4.466-.291 6.437.844 1.983 1.142 3.4 2.985 3.991 5.193l15.887 59.288c.515 1.921 1.772 3.559 3.495 4.554l55.656 32.133c2.32 1.34 5.18 1.34 7.5 0l46.449-26.816c2.32-1.34 3.75-3.815 3.75-6.495v-64.268c0-1.989-.79-3.897-2.197-5.303l-43.399-43.401c-1.611-1.61-2.499-3.751-2.499-6.03 0-2.278.888-4.42 2.503-6.035 1.608-1.61 3.75-2.497 6.029-2.497s4.421.887 6.032 2.5l20.729 20.727c2.146 2.145 5.373 2.786 8.173 1.625 2.803-1.161 4.63-3.896 4.63-6.929v-41.456c0-4.705 3.828-8.532 8.532-8.532s8.532 3.828 8.532 8.532v41.456c0 3.033 1.827 5.768 4.63 6.929 2.8 1.16 6.027.52 8.173-1.625l20.732-20.73c1.608-1.61 3.749-2.497 6.029-2.497s4.421.887 6.034 2.502c1.611 1.61 2.499 3.752 2.499 6.03 0 2.279-.888 4.42-2.5 6.032l-43.4 43.4c-1.407 1.406-2.197 3.314-2.197 5.303v64.268c0 2.68 1.43 5.155 3.75 6.495l46.449 26.816c2.32 1.34 5.18 1.34 7.5 0l55.656-32.133c3.587-2.071 4.816-6.658 2.745-10.245s-6.659-4.817-10.245-2.745l-18.196 10.505-72.659-41.947v-17.908l41.202-41.201c4.446-4.444 6.896-10.354 6.896-16.641s-2.449-12.197-6.891-16.636c-4.442-4.447-10.352-6.896-16.642-6.896s-12.2 2.449-16.639 6.893l-7.926 7.925v-23.35c.001-12.975-10.555-23.532-23.531-23.532s-23.532 10.557-23.532 23.532v23.351l-7.922-7.922c-4.442-4.447-10.353-6.896-16.642-6.896s-12.2 2.449-16.637 6.892c-4.446 4.444-6.896 10.354-6.896 16.641s2.449 12.197 6.894 16.639l41.203 41.203v17.908l-72.659 41.947-15.505-8.952-15.082-56.285c-1.628-6.084-5.534-11.167-10.996-14.312-5.45-3.138-11.788-3.963-17.822-2.329-6.072 1.626-11.147 5.519-14.291 10.963s-3.978 11.786-2.35 17.856l2.901 10.828-20.212-11.669c-5.438-3.149-11.779-3.989-17.851-2.364-6.081 1.626-11.16 5.523-14.303 10.972-6.487 11.237-2.624 25.657 8.612 32.144l20.225 11.677-10.828 2.901c-6.072 1.626-11.147 5.519-14.291 10.963-3.143 5.444-3.978 11.787-2.35 17.855 2.75 10.272 12.092 17.447 22.717 17.447 2.066 0 4.125-.273 6.102-.807l56.286-15.083 15.502 8.951v83.902l-15.502 8.951-56.273-15.08c-6.069-1.639-12.408-.813-17.851 2.323-5.453 3.143-9.353 8.227-10.981 14.311-1.628 6.072-.794 12.414 2.349 17.858 3.144 5.444 8.219 9.337 14.289 10.962l10.83 2.902-20.225 11.677c-11.236 6.487-15.1 20.907-8.614 32.142 4.189 7.262 12.004 11.772 20.396 11.772 4.115 0 8.18-1.093 11.75-3.158l20.221-11.674-2.9 10.826c-1.628 6.072-.793 12.414 2.35 17.858s8.218 9.337 14.271 10.958c1.993.539 4.052.813 6.12.813 10.625 0 19.967-7.175 22.717-17.446l15.083-56.287 15.506-8.952 72.658 41.947v17.908l-41.202 41.201c-4.446 4.444-6.896 10.354-6.896 16.641s2.449 12.197 6.891 16.636c4.442 4.447 10.352 6.896 16.642 6.896s12.2-2.449 16.639-6.893l7.926-7.925v23.351c.001 12.972 10.557 23.529 23.533 23.529s23.532-10.557 23.532-23.532v-23.351l7.923 7.922c4.442 4.447 10.353 6.896 16.642 6.896s12.199-2.449 16.637-6.892c4.446-4.444 6.896-10.354 6.896-16.641s-2.449-12.197-6.894-16.639l-41.203-41.203v-17.908l72.658-41.947 15.506 8.952 15.083 56.286c2.75 10.272 12.092 17.447 22.717 17.447 2.068 0 4.126-.273 6.1-.807 6.072-1.626 11.147-5.519 14.291-10.963s3.978-11.786 2.35-17.856l-2.901-10.828 20.216 11.671c3.575 2.068 7.64 3.161 11.755 3.161 8.392 0 16.207-4.511 20.394-11.771 6.487-11.234 2.624-25.654-8.613-32.142zm-127.075-118.342 18.712-10.804v66.582l-18.712-10.804zm-4.823-51.56-18.71 10.802-38.949-22.486v-21.603zm-104.723-33.287v21.603l-38.949 22.486-18.71-10.802zm-81.194 74.043 18.712 10.804v44.975l-18.712 10.804zm23.535 107.337 18.71-10.802 38.949 22.486v21.603zm104.723 33.288v-21.604l38.949-22.486 18.71 10.802z"/></g></g></svg>