<?xml version="1.0" encoding="iso-8859-1"?>
<!-- Generator: Adobe Illustrator 19.0.0, SVG Export Plug-In . SVG Version: 6.00 Build 0)  -->
<svg version="1.1" id="Capa_1" xmlns="http://www.w3.org/2000/svg" xmlns:xlink="http://www.w3.org/1999/xlink" x="0px" y="0px"
	 viewBox="0 0 511.998 511.998" style="enable-background:new 0 0 511.998 511.998;" xml:space="preserve">
<path style="fill:#07A9F0;" d="M260.604,500.527c-6.903,2.398-14.426,3.72-22.425,3.72c-3.493,0-6.903-0.248-10.2-0.734
	c-46.7-6.852-72.897-60.073-47.961-101.709l47.134-92.098c0.258-0.486,0.527-0.951,0.827-1.385
	c5.157-7.575,16.876-7.11,21.226,1.385l11.409,22.291l35.725,69.807C318.982,439.618,299.44,487.062,260.604,500.527z"/>
<path style="fill:#40C1FA;" d="M260.604,500.527c-38.815-13.476-58.388-60.879-35.715-98.722l35.725-69.807l35.725,69.807
	C318.982,439.618,299.44,487.062,260.604,500.527z"/>
<path style="fill:#07A9F0;" d="M214.845,260.878L62.343,164.471C7.087,130.326-6.368,62.183,44.569,24.071
	c0.134-0.103,0.269-0.196,0.403-0.289C98.647-15.912,173.539,23.099,174.211,86.2c0.155,14.395,2.005,55.639,16.834,102.825
	c6.779,21.526,16.245,44.282,29.494,66.294C222.761,259.007,218.493,263.182,214.845,260.878z"/>
<path style="fill:#40C1FA;" d="M191.045,189.025l-99.942-63.183c-39.549-24.43-57.685-66.273-46.132-102.06
	C98.647-15.912,173.539,23.099,174.211,86.2C174.366,100.595,176.216,141.839,191.045,189.025z"/>
<path style="fill:#07A9F0;" d="M450.856,137.56c0,0-35.467,11.047-93.834,52.787c-23.293,16.659-50.224,38.205-80.007,65.891
	c-2.873,2.677-7.286-0.703-5.456-4.175L371.697,62.586c26.714-46.969,72.949-68.919,110.421-35.26
	c10.613,9.528,17.382,21.082,20.286,33.152C509.678,90.726,492.648,124.26,450.856,137.56z"/>
<g>
	<path style="fill:#40C1FA;" d="M450.856,137.56c0,0-35.467,11.047-93.834,52.787l45.749-86.559
		c24.203-42.546,64.413-64.568,99.632-43.31C509.678,90.726,492.648,124.26,450.856,137.56z"/>
	<path style="fill:#40C1FA;" d="M205.751,292.769l-54.213,53.552c-25.35,28.615-73.094,19.087-84.854-18.095
		c-0.775-2.46-1.354-4.909-1.746-7.337c-1.467-9.032-0.351-17.785,2.718-25.629c8.567-21.929,32.439-36.717,58.057-30.63
		l61.809,10.417l13.331,2.243c0.403,0.062,0.785,0.155,1.168,0.269C208.479,279.5,210.752,287.829,205.751,292.769z"/>
</g>
<path style="fill:#93DCFC;" d="M187.521,275.046l-35.984,35.539c-24.709,27.902-70.686,19.542-83.882-15.326
	c8.567-21.929,32.439-36.717,58.057-30.63L187.521,275.046z"/>
<g>
	<path style="fill:#0691CE;" d="M276.432,176.17l-21.946,42.925c-0.117,0.229-0.245,0.445-0.385,0.65
		c-2.4,3.529-7.861,3.314-9.89-0.645l-21.986-42.905c-12.44-20.748,2.403-47.74,27.081-47.751c1.63-0.001,3.217,0.116,4.756,0.342
		C275.826,131.968,288.044,156.763,276.432,176.17z"/>
	<path style="fill:#0691CE;" d="M472.679,227.577l-33.872-7.547c-0.181-0.04-0.354-0.091-0.522-0.152
		c-2.893-1.035-3.728-4.88-1.335-7.009l25.93-23.063c12.213-12.412,33.701-6.94,38.162,10.255c0.295,1.136,0.5,2.263,0.62,3.376
		C503.372,219.178,488.298,232.167,472.679,227.577z"/>
	<path style="fill:#0691CE;" d="M91.089,444.779l30.167-17.153c0.161-0.092,0.323-0.172,0.489-0.239
		c2.839-1.175,6.039,1.113,5.695,4.297l-3.73,34.502c-0.715,17.399-20.313,27.772-35.164,18.026
		c-0.981-0.644-1.89-1.341-2.726-2.085C73.985,471.611,76.433,451.866,91.089,444.779z"/>
	<path style="fill:#0691CE;" d="M48.299,202.453l23.665,25.382c0.127,0.135,0.242,0.275,0.345,0.421
		c1.799,2.491,0.314,6.132-2.863,6.534l-34.428,4.353c-17.093,3.329-31.718-13.338-25.671-30.041
		c0.399-1.103,0.867-2.15,1.398-3.134C18.238,192.019,38.015,189.835,48.299,202.453z"/>
</g>
<path style="fill:#40C1FA;" d="M460.157,378.367c-1.643,3.09-3.462,5.983-5.436,8.67c-1.87,2.542-3.886,4.909-6.025,7.1
	c-29.711,30.506-82.89,26.331-106.297-12.432l-59.235-84.823c-0.32-0.455-0.599-0.909-0.847-1.385
	c-4.268-8.102,1.643-18.229,11.182-18.095l22.901,0.341l80.544,1.209C448.79,276.286,484.99,331.595,460.157,378.367z"/>
<path style="fill:#93DCFC;" d="M460.157,378.367c-1.643,3.09-3.462,5.983-5.436,8.67c-1.87,2.542-3.886,4.909-6.025,7.1
	c-26.807,5.839-56.683-4.506-72.67-30.982l-59.235-84.823c-0.134-0.196-0.269-0.393-0.393-0.589l80.544,1.209
	C448.79,276.286,484.99,331.595,460.157,378.367z"/>
<path d="M256.106,306.179c-7.447-14.547-28.349-14.688-35.85,0.001l-47.021,91.87c-29.443,49.556,5.925,113.949,64.948,113.949
	c58.706,0,94.598-64.059,64.947-113.95L256.106,306.179z M238.181,496.498c-46.415,0-75.398-50.834-51.514-90.71
	c0.431-0.722,47.313-92.515,47.723-93.109c1.842-2.706,6.243-2.707,7.916,0.563c49.209,96.129,47.122,92.1,47.386,92.545
	C313.417,445.397,284.894,496.498,238.181,496.498z"/>
<path d="M58.203,171.018c178.014,112.004,168.16,107.591,172.427,107.59c6.265,0,9.945-7.071,6.35-12.198
	c-42.161-60.161-52.224-129.787-54.469-165.935c-0.266-4.272-3.949-7.532-8.216-7.256c-4.272,0.265-7.52,3.944-7.256,8.216
	c1.997,32.141,9.937,89.653,39.574,145.067L66.418,157.873c-49.463-30.562-64.553-92.179-17.205-127.6
	c43.541-32.575,104.577-7.866,115.589,41.502c0.931,4.178,5.074,6.806,9.252,5.878c4.178-0.932,6.809-5.075,5.878-9.252
	C166.539,8.361,92.692-21.61,39.927,17.862C-15.845,59.585-1.047,134.409,58.203,171.018z"/>
<path d="M267.027,276.421c81.186-78.755,142.647-112.625,172.058-125.805c3.905-1.751,5.654-6.336,3.902-10.242
	c-1.75-3.906-6.336-5.654-10.242-3.903c-26.108,11.7-76.597,39.107-142.99,97.758l88.738-167.916
	c23.297-40.883,63.917-64.231,98.445-33.216c30.342,27.249,24.908,71.9-15.698,91.974c-3.837,1.896-5.409,6.546-3.513,10.383
	c1.897,3.837,6.548,5.411,10.384,3.513c50.795-25.111,57.439-83.046,19.185-117.402C445.21-16.238,393.459,8.645,364.96,58.751
	c-0.112,0.197,2.501-4.738-110.182,208.485C250.646,275.053,260.812,282.453,267.027,276.421z"/>
<path d="M202.141,269.643l-74.894-12.614c-42.965-10.001-81.496,30.674-67.95,73.528c13.501,42.699,68.333,54.146,97.869,21.102
	l54.031-53.375C220.959,288.64,215.734,271.899,202.141,269.643z M145.74,341.182c-21.498,24.27-61.771,15.988-71.662-15.297
	c-9.87-31.215,18.217-61.23,49.845-53.714c0.569,0.136,75.563,12.72,75.866,12.81c0.601,0.181,0.812,0.692,0.884,0.982
	C201.065,287.532,149.335,337.126,145.74,341.182z"/>
<path d="M237.315,222.635c4.715,9.198,17.496,9.851,23.172,1.503c0.888-1.291-0.351,0.852,22.735-44.223
	c14.2-24.109-0.9-54.831-28.027-58.796c-3.202-0.472-5.996-0.43-5.892-0.426c-30.514,0.013-49.213,33.265-33.863,59.254
	L237.315,222.635z M228.655,148.251c7.235-12.781,20.767-12.085,20.663-12.057c18.505,0,29.885,20.249,20.464,35.996
	c-0.246,0.409,1.12-2.218-20.435,39.934c-21.582-42.102-20.206-39.466-20.473-39.916
	C224.435,164.806,224.353,155.85,228.655,148.251z"/>
<path d="M486.962,176.369c-10.68-2.862-21.653,0.057-29.412,7.806l-25.754,22.906c-7.321,6.515-4.026,18.458,5.325,20.514
	c38.602,8.528,37.4,8.651,41.928,8.651c17.961,0,32.264-15.711,30.318-33.64C509.206,201.109,499.622,179.761,486.962,176.369z
	 M474.865,220.141c-0.378-0.112-8.154-1.83-27.515-6.148c14.723-13.1,20.781-18.469,21.055-18.749
	c8.636-8.779,24.151-3.87,25.552,9.032C494.487,209.161,485.293,223.202,474.865,220.141z"/>
<path d="M117.426,420.889l-29.96,17.034c-19.389,9.594-22.696,35.87-6.799,49.993c19.363,17.225,49.518,4.111,50.777-21.135
	l3.704-34.263C136.199,422.789,125.758,416.126,117.426,420.889z M115.967,465.869c-0.507,12.378-15.372,19.041-24.998,10.464
	c-7.628-6.776-6.285-19.846,3.494-24.576c0.155-0.074,0.308-0.155,0.457-0.24l24.06-13.68
	C116.808,457.974,115.984,465.468,115.967,465.869z"/>
<path d="M78.634,223.775c-0.834-1.176,0.024-0.077-24.502-26.433c-14.899-17.944-44.036-13.109-52.072,9.12
	c-8.041,22.21,11.181,44.607,34.168,40.339l34.194-4.323C79.502,241.33,83.779,230.894,78.634,223.775z M33.536,231.535
	c-12.156,2.365-22.091-10.555-15.962-21.9c4.835-9,17.87-10.687,24.718-2.285c0.259,0.316,5.191,5.587,19.212,20.632
	C41.367,230.532,33.933,231.458,33.536,231.535z"/>
<path d="M396.813,271.203c-0.003,0-0.014,0-0.031,0c0.002,0,0.004,0,0.006,0c-0.023,0-0.044-0.001-0.062-0.001
	c0.006,0,0.013,0,0.02,0c-0.017,0-0.036-0.001-0.06-0.001c0.006,0,0.011,0,0.018,0c-0.053-0.001-0.069-0.001-0.064-0.001
	c-1.484-0.022-14.321-0.214-103.335-1.547c-11.108,0-20.144,9.051-20.144,20.174c0,10.904,3.014,8.651,62.743,96.103
	c10.166,16.709,26.118,28.629,44.946,33.574c4.14,1.091,8.377-1.387,9.465-5.528c1.088-4.141-1.388-8.378-5.528-9.465
	c-14.992-3.937-27.687-13.461-35.751-26.818c-0.089-0.148-0.183-0.291-0.281-0.432c-62.513-90.212-60.093-84.553-60.093-87.432
	c0-2.248,1.775-4.673,4.726-4.673c108.069,1.614,103.47,1.567,103.961,1.542c46.21-2.403,77.948,46.622,55.964,88.034
	c-8.825,16.618-23.96,27.32-41.242,30.669c-4.202,0.814-6.95,4.882-6.135,9.084c0.818,4.223,4.901,6.945,9.084,6.135
	c57.266-11.096,82.076-82.423,39.38-126.601C439.316,278.412,418.75,270.146,396.813,271.203z"/>
<path d="M396.746,271.203c0.016,0,0.028,0,0.037,0.001C396.772,271.203,396.759,271.203,396.746,271.203z"/>
<path d="M396.639,271.201c0.017,0,0.033,0,0.047,0.001C396.662,271.201,396.644,271.201,396.639,271.201z"/>
<g>
</g>
<g>
</g>
<g>
</g>
<g>
</g>
<g>
</g>
<g>
</g>
<g>
</g>
<g>
</g>
<g>
</g>
<g>
</g>
<g>
</g>
<g>
</g>
<g>
</g>
<g>
</g>
<g>
</g>
</svg>
