<svg height="512pt" viewBox="0 0 512 512" width="512pt" xmlns="http://www.w3.org/2000/svg"><path d="m503.464844 392.535156v34.132813c0 4.710937-3.820313 8.53125-8.53125 8.53125h-51.199219c-4.714844 0-8.535156 3.820312-8.535156 8.535156v51.199219c0 4.710937-3.820313 8.53125-8.53125 8.53125h-34.132813c-4.714844 0-8.535156-3.820313-8.535156-8.53125v-51.199219c0-4.714844-3.820312-8.535156-8.535156-8.535156h-51.199219c-4.710937 0-8.53125-3.820313-8.53125-8.53125v-34.132813c0-4.714844 3.820313-8.535156 8.53125-8.535156h51.199219c4.714844 0 8.535156-3.820312 8.535156-8.535156v-51.199219c0-4.710937 3.820312-8.53125 8.535156-8.53125h34.132813c4.710937 0 8.53125 3.820313 8.53125 8.53125v51.199219c0 4.714844 3.820312 8.535156 8.535156 8.535156h51.199219c4.710937 0 8.53125 3.820312 8.53125 8.535156zm0 0" fill="#388c41"/><path d="m477.867188 392.535156v34.132813c0 4.710937-3.820313 8.53125-8.535157 8.53125h-51.199219c-4.710937 0-8.53125 3.820312-8.53125 8.535156v51.199219c0 4.710937-3.820312 8.53125-8.535156 8.53125h-8.53125c-4.714844 0-8.535156-3.820313-8.535156-8.53125v-51.199219c0-4.714844-3.820312-8.535156-8.535156-8.535156h-51.199219c-4.710937 0-8.53125-3.820313-8.53125-8.53125v-34.132813c0-4.714844 3.820313-8.535156 8.53125-8.535156h51.199219c4.714844 0 8.535156-3.820312 8.535156-8.535156v-51.199219c0-4.710937 3.820312-8.53125 8.535156-8.53125h8.53125c4.714844 0 8.535156 3.820313 8.535156 8.53125v51.199219c0 4.714844 3.820313 8.535156 8.53125 8.535156h51.199219c4.714844 0 8.535157 3.820312 8.535157 8.535156zm0 0" fill="#5ab862"/><path d="m179.199219 128h-170.070313c-1.769531-6.878906.878906-14.136719 6.65625-18.261719l76.628906-55.210937zm0 0" fill="#00b7f6"/><path d="m256 51.199219-76.800781 76.800781-86.785157-73.472656c3.042969-2.160156 6.679688-3.324219 10.414063-3.328125zm0 0" fill="#00c6db"/><path d="m502.273438 130.046875c-.148438.503906-.347657.992187-.597657 1.453125l-6.742187-3.5h-162.902344l67.839844-57.429688 18.945312-16.042968.171875-.339844c.222657.058594.429688.179688.597657.339844l76.628906 55.210937c6.394531 4.609375 8.882812 12.949219 6.058594 20.308594zm0 0" fill="#008ac7"/><path d="m460.96875 128c-.15625.695312-.355469 1.378906-.59375 2.046875-.148438.503906-.347656.992187-.597656 1.453125l-6.742188-3.5h-121.003906l67.839844-57.429688 54.445312 39.167969c5.777344 4.125 8.421875 11.382813 6.652344 18.261719zm0 0" fill="#00b7f6"/><path d="m501.675781 131.5c-.699219 1.515625-1.652343 2.898438-2.816406 4.09375l-229.804687 251.222656c-3.347657 3.667969-8.089844 5.742188-13.054688 5.71875l-.339844-1.28125v-.257812l14.589844-50.175782 61.78125-212.820312h162.902344zm0 0" fill="#354aa3"/><path d="m460.800781 131.5c-.699219 1.515625-1.652343 2.898438-2.816406 4.09375l-187.734375 205.226562 61.78125-212.820312h122.027344zm0 0" fill="#5068c1"/><path d="m255.660156 390.996094v.257812l-.429687 1.28125c-4.699219-.160156-9.136719-2.226562-12.285157-5.71875l-229.804687-251.222656c-1.984375-2.128906-3.371094-4.75-4.011719-7.59375h170.070313zm0 0" fill="#5068c1"/><path d="m332.03125 128-76.371094 262.996094-76.460937-262.996094zm0 0" fill="#25a8f5"/><path d="m418.988281 54.1875-.171875.339844-86.785156 73.472656-76.03125-76.800781h153.171875c3.5-.019531 6.921875 1.023437 9.816406 2.988281zm0 0" fill="#00c6db"/><path d="m332.03125 128h-152.832031l76.800781-76.800781zm0 0" fill="#00b7f6"/><path d="m426.667969 512h-34.132813c-9.425781 0-17.070312-7.640625-17.070312-17.066406v-51.199219h-51.199219c-9.425781 0-17.066406-7.640625-17.066406-17.066406v-34.132813c0-9.425781 7.640625-17.070312 17.066406-17.070312h51.199219v-51.199219c0-9.425781 7.644531-17.066406 17.070312-17.066406h34.132813c9.425781 0 17.066406 7.640625 17.066406 17.066406v51.199219h51.199219c9.425781 0 17.066406 7.644531 17.066406 17.070312v34.132813c0 9.425781-7.640625 17.066406-17.066406 17.066406h-51.199219v51.199219c0 9.425781-7.640625 17.066406-17.066406 17.066406zm-102.402344-119.464844v34.132813h51.199219c9.425781 0 17.070312 7.640625 17.070312 17.066406v51.199219h34.132813v-51.199219c0-9.425781 7.640625-17.066406 17.066406-17.066406h51.199219v-34.132813h-51.199219c-9.425781 0-17.066406-7.644531-17.066406-17.070312v-51.199219h-34.132813v51.199219c0 9.425781-7.644531 17.070312-17.070312 17.070312zm0 0"/><path d="m256 401.066406c-7.371094-.003906-14.398438-3.101562-19.378906-8.53125l-229.792969-251.164062c-5.007813-5.464844-7.433594-12.816406-6.667969-20.1875.761719-7.375 4.648438-14.066406 10.667969-18.390625l76.597656-55.167969c4.464844-3.234375 9.84375-4.96875 15.359375-4.957031h306.429688c5.515625-.007813 10.890625 1.726562 15.359375 4.957031l76.578125 55.167969c6.027344 4.320312 9.914062 11.011719 10.679687 18.386719.769531 7.371093-1.65625 14.722656-6.660156 20.191406l-229.792969 251.164062c-4.980468 5.429688-12.007812 8.527344-19.378906 8.53125zm-153.214844-341.332031c-1.933594-.019531-3.824218.578125-5.394531 1.707031l-76.59375 55.199219c-2.074219 1.476563-3.410156 3.769531-3.675781 6.296875-.269532 2.527344.566406 5.050781 2.285156 6.921875l229.765625 251.164063c1.78125 1.839843 4.230469 2.878906 6.789063 2.878906 2.558593 0 5.011718-1.039063 6.789062-2.878906l229.855469-251.164063c1.714843-1.878906 2.539062-4.398437 2.273437-6.929687-.269531-2.527344-1.609375-4.820313-3.683594-6.296876l-76.578124-55.191406c-1.570313-1.128906-3.460938-1.726562-5.394532-1.707031zm0 0"/><path d="m494.933594 136.535156h-486.398438c-4.714844 0-8.535156-3.824218-8.535156-8.535156s3.820312-8.535156 8.535156-8.535156h486.398438c4.710937 0 8.53125 3.824218 8.53125 8.535156s-3.820313 8.535156-8.53125 8.535156zm0 0"/><path d="m256 401.066406c-3.796875 0-7.132812-2.507812-8.191406-6.152344l-76.082032-262.066406-84.832031-71.78125c-2.398437-1.949218-3.558593-5.039062-3.027343-8.085937.527343-3.042969 2.65625-5.5625 5.570312-6.589844s6.15625-.398437 8.472656 1.644531l86.800782 73.445313c1.28125 1.085937 2.214843 2.527343 2.679687 4.140625l76.800781 264.53125c.75 2.578125.242188 5.355468-1.371094 7.503906-1.609374 2.144531-4.136718 3.410156-6.820312 3.410156zm0 0"/><path d="m255.242188 401.066406c-2.6875 0-5.210938-1.265625-6.824219-3.410156-1.609375-2.148438-2.117188-4.925781-1.371094-7.503906l76.800781-264.53125c.46875-1.617188 1.40625-3.054688 2.6875-4.140625l86.800782-73.445313c3.609374-2.929687 8.898437-2.433594 11.898437 1.113282 2.996094 3.550781 2.609375 8.847656-.878906 11.917968l-84.839844 71.78125-76.082031 262.066406c-1.058594 3.644532-4.398438 6.152344-8.191406 6.152344zm0 0"/><path d="m332.039062 136.535156c-2.28125-.007812-4.46875-.929687-6.066406-2.5625l-69.972656-70.671875-70.734375 70.730469c-3.347656 3.234375-8.667969 3.191406-11.960937-.101562-3.292969-3.292969-3.335938-8.613282-.105469-11.960938l76.800781-76.800781c1.59375-1.59375 3.75-2.492188 6-2.5 2.316406-.167969 4.570312.78125 6.066406 2.558593l76.042969 76.800782c2.398437 2.449218 3.101563 6.101562 1.777344 9.265625-1.324219 3.164062-4.414063 5.230469-7.847657 5.242187zm0 0"/><path d="m460.800781 51.199219c-4.714843 0-8.535156-3.820313-8.535156-8.53125v-34.132813c0-4.714844 3.820313-8.535156 8.535156-8.535156 4.710938 0 8.53125 3.820312 8.53125 8.535156v34.132813c0 4.710937-3.820312 8.53125-8.53125 8.53125zm0 0"/><path d="m477.867188 34.132812h-34.132813c-4.714844 0-8.535156-3.820312-8.535156-8.53125 0-4.714843 3.820312-8.535156 8.535156-8.535156h34.132813c4.710937 0 8.53125 3.820313 8.53125 8.535156 0 4.710938-3.820313 8.53125-8.53125 8.53125zm0 0"/><path d="m25.601562 358.398438c-4.714843 0-8.535156-3.820313-8.535156-8.53125v-34.132813c0-4.714844 3.820313-8.535156 8.535156-8.535156 4.710938 0 8.53125 3.820312 8.53125 8.535156v34.132813c0 4.710937-3.820312 8.53125-8.53125 8.53125zm0 0"/><path d="m42.667969 341.332031h-34.132813c-4.714844 0-8.535156-3.820312-8.535156-8.53125 0-4.714843 3.820312-8.535156 8.535156-8.535156h34.132813c4.710937 0 8.53125 3.820313 8.53125 8.535156 0 4.710938-3.820313 8.53125-8.53125 8.53125zm0 0"/><path d="m153.601562 486.398438c-4.714843 0-8.535156-3.820313-8.535156-8.53125v-34.132813c0-4.714844 3.820313-8.535156 8.535156-8.535156 4.710938 0 8.53125 3.820312 8.53125 8.535156v34.132813c0 4.710937-3.820312 8.53125-8.53125 8.53125zm0 0"/><path d="m170.667969 469.332031h-34.132813c-4.714844 0-8.535156-3.820312-8.535156-8.53125 0-4.714843 3.820312-8.535156 8.535156-8.535156h34.132813c4.710937 0 8.53125 3.820313 8.53125 8.535156 0 4.710938-3.820313 8.53125-8.53125 8.53125zm0 0"/></svg>