<?xml version="1.0"?>
<svg xmlns="http://www.w3.org/2000/svg" width="512" height="512" viewBox="0 0 128 128"><g><g><path d="M87.1,47.4V20.2a7.7,7.7,0,0,0-7.7-7.7h0a7.7,7.7,0,0,0-7.7,7.7V9.45a7.7,7.7,0,1,0-15.4,0V20.2a7.7,7.7,0,0,0-7.7-7.7h0a7.7,7.7,0,0,0-7.7,7.7V47.4A15.4,15.4,0,0,0,25.5,32V87.75a38.5,38.5,0,0,0,77,0V32A15.4,15.4,0,0,0,87.1,47.4Z" fill="#a260e5"/><ellipse cx="64" cy="94.756" rx="22.939" ry="15.125" fill="#f0f0fb"/><path d="M85,80.941a1.74,1.74,0,0,1-1.114-.4,31.2,31.2,0,0,0-39.77,0,1.75,1.75,0,1,1-2.23-2.7,34.694,34.694,0,0,1,44.23,0A1.749,1.749,0,0,1,85,80.941Z" fill="#f3d232"/><g><path d="M56.3,65.75A1.749,1.749,0,0,1,54.55,64V28.206a1.75,1.75,0,0,1,3.5,0V64A1.749,1.749,0,0,1,56.3,65.75Z" fill="#c7e554"/><path d="M71.7,65.75A1.749,1.749,0,0,1,69.95,64V28.206a1.75,1.75,0,0,1,3.5,0V64A1.749,1.749,0,0,1,71.7,65.75Z" fill="#c7e554"/><path d="M87.1,65.75A1.749,1.749,0,0,1,85.35,64V55.406a1.75,1.75,0,0,1,3.5,0V64A1.75,1.75,0,0,1,87.1,65.75Z" fill="#c7e554"/><path d="M40.9,65.75A1.75,1.75,0,0,1,39.15,64V55.406a1.75,1.75,0,0,1,3.5,0V64A1.749,1.749,0,0,1,40.9,65.75Z" fill="#c7e554"/></g><path d="M54.026,81.729a11.664,11.664,0,1,0,19.948,0,24.757,24.757,0,0,0-19.948,0Z" fill="#f3d232"/><circle cx="64" cy="87.753" r="5.664" fill="#5b362a"/></g><g><path d="M39.453,95.448a26.708,26.708,0,0,0,49.094,0,1.754,1.754,0,0,0,0-1.385,26.709,26.709,0,0,0-49.094,0A1.754,1.754,0,0,0,39.453,95.448ZM64,83.839a3.914,3.914,0,1,1-3.914,3.914A3.919,3.919,0,0,1,64,83.839Zm-13.219,1.7a13.284,13.284,0,0,0,3.183,11.119,1.75,1.75,0,1,0,2.619-2.322,9.807,9.807,0,0,1-1.3-11.237,23.106,23.106,0,0,1,4.289-1.275,7.414,7.414,0,1,0,8.852,0,23.106,23.106,0,0,1,4.289,1.275A9.86,9.86,0,0,1,64,97.667a1.75,1.75,0,0,0,0,3.5A13.43,13.43,0,0,0,77.414,87.753a13.282,13.282,0,0,0-.2-2.219,23.256,23.256,0,0,1,7.8,9.222,23.206,23.206,0,0,1-42.042,0A23.256,23.256,0,0,1,50.781,85.534Z"/><path d="M44.115,80.54a31.2,31.2,0,0,1,39.77,0,1.75,1.75,0,1,0,2.23-2.7,34.694,34.694,0,0,0-44.23,0,1.75,1.75,0,1,0,2.23,2.7Z"/><path d="M102.5,60.4a1.75,1.75,0,0,0-1.75,1.75v4.313a1.75,1.75,0,0,0,3.5,0V62.15A1.75,1.75,0,0,0,102.5,60.4Z"/><path d="M102.5,30.25a17.133,17.133,0,0,0-13.65,6.778V20.2a9.446,9.446,0,0,0-15.4-7.337V9.45a9.45,9.45,0,1,0-18.9,0v3.413A9.446,9.446,0,0,0,39.15,20.2V37.028A17.134,17.134,0,0,0,25.5,30.25,1.749,1.749,0,0,0,23.75,32V87.75a40.25,40.25,0,0,0,80.5,0V76.211a1.75,1.75,0,0,0-3.5,0V87.75a36.75,36.75,0,0,1-73.5,0V33.861A13.671,13.671,0,0,1,39.15,47.4V64a1.75,1.75,0,0,0,3.5,0V20.2a5.95,5.95,0,1,1,11.9,0V64a1.75,1.75,0,0,0,3.5,0V9.45a5.95,5.95,0,1,1,11.9,0V64a1.75,1.75,0,0,0,3.5,0V20.2a5.95,5.95,0,1,1,11.9,0V64a1.75,1.75,0,0,0,3.5,0V47.4a13.671,13.671,0,0,1,11.9-13.539V52.4a1.75,1.75,0,0,0,3.5,0V32A1.749,1.749,0,0,0,102.5,30.25Z"/></g></g></svg>
