<?xml version="1.0" encoding="iso-8859-1"?>
<!-- Generator: Adobe Illustrator 19.0.0, SVG Export Plug-In . SVG Version: 6.00 Build 0)  -->
<svg version="1.1" id="Capa_1" xmlns="http://www.w3.org/2000/svg" xmlns:xlink="http://www.w3.org/1999/xlink" x="0px" y="0px"
	 viewBox="0 0 512 512" style="enable-background:new 0 0 512 512;" xml:space="preserve">
<path style="fill:#D2D26E;" d="M128.104,144.625c-5.471-16.685,4.06-34.685,21.198-39.388c16.391-4.498,33.702,6.119,38.16,22.52
	c5.849,21.523-2.403,48.55-7.114,61.199c-1.437,3.859-6.075,5.313-9.516,3.051C159.104,184.305,135.259,166.451,128.104,144.625z"/>
<path style="fill:#BEB96E;" d="M170.831,192.009c1.68,1.104,3.64,1.296,5.38,0.781c-3.399-6.914-6.604-17.619-10.563-35.087
	c-5.465-24.107-16.071-39.521-24.571-48.691c-11.71,7.365-17.479,21.874-12.974,35.614
	C135.259,166.451,159.105,184.305,170.831,192.009z"/>
<path style="fill:#D2D26E;" d="M54.531,357.154c9.678-20.711,35.614-28.633,55.5-15.665c16.034,10.455,21.607,30.566,13.503,47.908
	c-12.486,26.722-46.475,45.498-61.168,52.606c-3.645,1.763-7.96-0.259-8.946-4.186C49.447,421.979,42.047,383.87,54.531,357.154z"/>
<path style="fill:#BEB96E;" d="M54.531,357.153c-12.484,26.717-5.085,64.826-1.111,80.662c0.388,1.545,1.374,2.675,2.549,3.516
	c23.508-28.339,42.032-71.34,37.346-91.187c-1.546-6.548-1.405-11.129-0.284-14.704C77.319,333.781,61.595,342.037,54.531,357.153z"
	/>
<path style="fill:#D2D26E;" d="M279.224,316.403c-15.371-14.796-19.477-35.468-9.172-46.173
	c10.305-10.705,31.118-7.388,46.488,7.408c19.651,18.917,31.156,48.611,36.221,64.431c1.542,4.817-2.901,9.434-7.774,8.076
	C328.988,345.686,298.876,335.32,279.224,316.403z"/>
<path style="fill:#BEB96E;" d="M344.988,350.145c1.86,0.518,3.651,0.158,5.077-0.743c-16.397-18.311-51.74-56.399-80.714-78.192
	c-9.252,10.931-5.073,30.804,9.875,45.193C298.876,335.32,328.988,345.686,344.988,350.145z"/>
<path style="fill:#D29B82;" d="M383.154,229.766l44.168,22.626c4.505,2.308,10.241-0.881,10.658-5.926l4.089-49.457l-49.845-20.29
	L383.154,229.766z"/>
<path style="fill:#BEB96E;" d="M320.337,56.805c-54.459,6.014-54.524,54.933-52.065,70.481c0.501,3.171,3.759,5.102,6.734,3.892
	c15.244-6.198,50.126-29.195,53.184-61.51L320.337,56.805z"/>
<path style="fill:#C38264;" d="M405.102,135.227c3.814,39.107-8.705,92.865-14.43,114.731c-1.268,4.844-6.981,6.867-11.019,3.905
	c-18.251-13.382-61.515-47.066-78.221-77.113c-14.662-26.37-12.697-57.484,2.445-81.263c14.126-22.184,41.845-33.491,66.045-23.193
	C392.954,82.095,402.334,106.844,405.102,135.227z"/>
<path style="fill:#D28C73;" d="M350.184,165.762c31.205,23.878,83.474,41.614,105.069,48.291c4.784,1.479,9.517-2.306,9.133-7.299
	c-1.735-22.564-7.515-77.09-24.22-107.137c-14.662-26.37-42.126-41.121-70.316-40.809c-26.299,0.291-50.531,17.869-54.555,43.86
	C311.464,127.403,327.535,148.431,350.184,165.762z"/>
<path style="fill:#D2D26E;" d="M326.112,70.443c14.824,3.143,48.659,6.668,88.027-13.303c4.092-2.076,3.993-8.002-0.227-9.804
	c-18.777-8.022-61.186-20.42-90.691,14.282C320.586,64.718,322.131,69.599,326.112,70.443z"/>
<path d="M449.802,96.01c-6.873-12.602-16.772-23.307-28.619-31.194c2.931-1.385,5.893-2.881,8.883-4.512
	c2.329-1.27,3.813-3.675,3.905-6.327c0.091-2.651-1.224-5.154-3.459-6.581c-0.721-0.46-17.925-11.323-40.587-15.2
	c-27.61-4.721-51.294,2.88-69.068,22.007c-13.573-18.955-31.533-33.705-52.617-43.039C239.721-1.461,206.316-3.42,171.631,5.499
	c-40.736,10.476-71.071,39.344-83.23,79.202c-4.896,16.05-8.462,39.94-2.884,70.868c-3.59-0.804-7.164-0.871-10.341-0.4
	c-4.098,0.607-6.928,4.421-6.321,8.519c0.607,4.098,4.423,6.929,8.519,6.321c2.902-0.428,9.983-0.492,13.523,7.955
	c8.45,28.298,24.437,61.315,52.409,98.599c-9.173-2.462-18.392-3.034-26.726-1.358c-14.622,2.939-25.571,12.636-30.829,27.306
	c-3.243,9.046-3.315,17.542-2.37,25.737c-14.493,2.271-27.647,11.469-34.312,25.731c-17.166,36.735-0.169,91.152,0.563,93.451
	c0.635,1.994,2.075,3.633,3.971,4.519c1.005,0.469,2.089,0.705,3.175,0.705c0.964,0,1.928-0.186,2.839-0.558
	c2.232-0.913,54.879-22.788,72.044-59.524c10.64-22.771,0.771-49.953-22-60.593c-3.63-1.696-7.374-2.866-11.144-3.55
	c-0.987-7.208-1.126-13.941,1.353-20.855c3.514-9.802,10.13-15.744,19.664-17.66c16.036-3.223,37.643,5.331,51.399,20.342
	c39.833,44.799,60.343,95.242,70.535,129.674c11.1,37.503,12.723,64.714,12.738,64.979c0.218,3.997,3.527,7.093,7.483,7.092
	c0.137,0,0.276-0.003,0.415-0.011c4.136-0.226,7.307-3.761,7.081-7.898c-0.063-1.161-1.683-28.885-13.199-67.965
	c-7.731-26.236-21.208-61.372-44.102-96.689c-0.069-0.169-0.136-0.339-0.218-0.505c-1.391-2.817-5.332-12.457,2.378-18.176
	c3.327-2.468,4.023-7.167,1.556-10.493c-2.468-3.327-7.166-4.023-10.493-1.556c-3.572,2.65-6.275,5.936-8.072,9.641
	c-4.663-6.098-9.632-12.147-14.931-18.105c-36.867-41.447-62.065-81.983-74.894-120.483c-7.841-23.531-10.84-46.249-8.991-66.937
	c4.506-7.66,11.021-11.246,18.917-10.357c4.381,0.491,9.269,2.425,14.078,5.824c-2.654,2.742-4.912,5.896-6.684,9.397
	c-4.627,9.143-5.418,19.54-2.225,29.277l0,0c10.409,31.747,51.105,54.732,52.832,55.694c1.128,0.629,2.386,0.949,3.652,0.949
	c0.786,0,1.574-0.124,2.336-0.374c1.989-0.652,3.615-2.105,4.485-4.01c0.822-1.798,20.007-44.417,9.599-76.164
	c-6.59-20.099-28.305-31.089-48.405-24.501c-0.842,0.276-1.664,0.589-2.478,0.918c-7.678-6.66-16.431-10.899-25.521-11.918
	c-5.787-0.65-11.261,0.098-16.229,2.111c0.058-0.195,0.105-0.396,0.165-0.59c10.596-34.739,37.064-59.907,72.617-69.05
	c4.16-1.07,8.276-1.968,12.345-2.702c0.005-0.001,0.01,0,0.015-0.001c2.382-0.275,4.512,0.289,5.996,1.592
	c2.028,1.783,2.485,4.652,2.512,6.746c0.053,4.109,3.4,7.405,7.499,7.405c0.033,0,0.065,0,0.098,0
	c4.142-0.053,7.458-3.454,7.405-7.596c-0.049-3.804-0.82-7.348-2.229-10.473c18.973-0.669,36.764,2.625,53.16,9.883
	c13.99,6.194,26.441,15.098,36.867,26.266c-25.424,12.925-34.046,34.452-36.687,50.998c-3.067,19.21,1.199,35.512,1.382,36.197
	c0.594,2.222,2.175,4.048,4.29,4.956c0.946,0.406,1.952,0.607,2.956,0.607c1.239,0,2.475-0.307,3.591-0.916
	c2.339-1.275,4.852-2.493,7.513-3.783c0.732-0.355,1.466-0.711,2.202-1.071c-0.022,14.647,3.604,29.159,10.758,42.275
	c21.127,38.741,84.555,79.201,87.245,80.904c1.245,0.788,2.633,1.165,4.005,1.165c2.485,0,4.917-1.234,6.345-3.488
	c0.288-0.455,0.518-0.929,0.698-1.414h0.001c1.464-3.962,2.828-7.888,4.144-11.793c22.018,10.737,35.253,15.809,35.867,16.043
	c0.862,0.328,1.767,0.491,2.668,0.491c1.241,0,2.477-0.308,3.591-0.916c1.924-1.049,3.293-2.888,3.747-5.033
	c0.136-0.642,3.039-14.51,5.936-38.827c3.99,1.007,8.039,1.974,12.16,2.889v-0.002c0.505,0.112,1.029,0.175,1.568,0.179
	c0.02,0,0.039,0,0.058,0c4.115,0,7.467-3.319,7.5-7.442C470.594,209.983,470.929,134.751,449.802,96.01z M119.115,362.838
	c2.788,7.679,2.418,15.983-1.04,23.383c-11.104,23.763-41.859,41.223-56.369,48.395c-3.808-15.733-10.147-50.524,0.957-74.288
	c4.485-9.6,13.354-15.78,23.116-17.277c2.233,12.677,3.687,24.87-4.463,38.908c-2.08,3.582-0.862,8.173,2.72,10.253
	c1.186,0.688,2.48,1.016,3.759,1.016c2.585,0,5.102-1.338,6.494-3.735c9.735-16.766,9.06-31.533,6.981-44.782
	c0.687,0.263,1.37,0.542,2.046,0.858C110.716,349.027,116.326,355.16,119.115,362.838z M158.748,111.647
	c9.825,0,18.992,6.253,22.215,16.085c6.207,18.928-1.191,44.447-5.816,57.241c-11.304-7.574-32.373-23.756-38.579-42.684l0,0
	c-1.944-5.93-1.462-12.26,1.355-17.828c1.068-2.111,2.426-4.013,4.021-5.672c4.777,6.25,8.913,14.296,11.625,24.192
	c0.914,3.332,3.934,5.521,7.23,5.521c0.656,0,1.324-0.087,1.987-0.269c3.995-1.095,6.347-5.222,5.252-9.217
	c-2.796-10.2-7.153-19.399-12.587-27.121C156.553,111.736,157.654,111.647,158.748,111.647z M386.973,46.911
	c8.647,1.435,16.488,4.108,22.585,6.671c-32.974,13.987-61.028,11.56-75.55,8.594C347.942,48.517,365.708,43.382,386.973,46.911z
	 M276.631,125.175c-1.697-15.776-0.511-47.329,32.16-62.051c1.992,2.793,3.876,5.691,5.65,8.685
	c-13.44,11.712-23.047,27.273-27.483,44.829c-0.29,1.149-0.545,2.302-0.788,3.456C283.393,121.849,280.008,123.533,276.631,125.175z
	 M308.207,173.228c-8.847-16.222-11.228-35.015-6.705-52.916c1.443-5.713,3.553-11.167,6.248-16.279
	c1.177,26.003,19.358,53.124,49.906,74.43c1.307,0.912,2.803,1.349,4.284,1.349c2.369,0,4.701-1.12,6.159-3.21
	c2.37-3.397,1.537-8.073-1.861-10.443c-26.731-18.644-42.588-41.57-43.509-62.901c-0.466-10.8,3.067-19.991,9.943-25.964
	c6.493,1.261,14.873,2.321,24.723,2.321c13.098,0,28.785-1.881,46.037-7.65c14.195,6.614,25.636,17.356,33.199,31.226
	c15.14,27.763,18.182,79.278,18.788,100.426c-21.793-5.356-41.479-12.097-58.627-20.085c-3.753-1.749-8.217-0.123-9.966,3.631
	c-1.75,3.755-0.124,8.217,3.631,9.966c1.378,0.642,2.774,1.275,4.181,1.901c-2.818,14.125-6.902,28.992-12.191,44.372
	C364.997,231.446,323.362,201.016,308.207,173.228z M430.309,244.362c-6.328-2.704-16.017-7.027-28.26-13.041
	c2.663-9.031,4.908-17.87,6.712-26.466c8.215,3.144,16.854,6.048,25.887,8.699C433.074,227.098,431.462,237.58,430.309,244.362z"/>
<path d="M323.079,272.235c-15.657-15.072-35.86-19.71-49.854-12.566c-10.657-8.751-19.074-13.813-19.715-14.195
	c-3.561-2.12-8.163-0.951-10.282,2.609c-2.119,3.559-0.951,8.163,2.609,10.282c0.136,0.081,7.165,4.311,16.349,11.69
	c-3.786,6.429-4.933,14.447-3.196,23.189c2.028,10.21,7.842,20.354,16.369,28.563c29.083,27.997,78.305,37.974,80.386,38.385
	c0.484,0.096,0.97,0.142,1.453,0.142c2.018,0,3.976-0.815,5.404-2.299c1.77-1.838,2.483-4.451,1.894-6.935
	C364.006,349.038,352.162,300.231,323.079,272.235z M285.763,311L285.763,311c-6.249-6.015-10.643-13.551-12.059-20.678
	c-0.485-2.442-0.889-6.309,0.239-9.959c5.66,5.432,11.403,11.718,16.412,18.695c1.465,2.041,3.765,3.126,6.1,3.126
	c1.515,0,3.043-0.458,4.368-1.408c3.365-2.416,4.134-7.103,1.718-10.467c-5.014-6.984-10.63-13.297-16.225-18.844
	c0.412-0.025,0.825-0.047,1.247-0.047c7.772,0,17.321,4.125,25.112,11.625c17.607,16.949,28.439,43.74,33.596,59.273
	C330.552,337.752,303.369,327.948,285.763,311z"/>
<g>
</g>
<g>
</g>
<g>
</g>
<g>
</g>
<g>
</g>
<g>
</g>
<g>
</g>
<g>
</g>
<g>
</g>
<g>
</g>
<g>
</g>
<g>
</g>
<g>
</g>
<g>
</g>
<g>
</g>
</svg>
