<svg id="_x33_0" enable-background="new 0 0 64 64" height="512" viewBox="0 0 64 64" width="512" xmlns="http://www.w3.org/2000/svg"><g><g><g fill="#aab2bd"><path d="m41 62h-26c4.16-1.53 8.2-3.36 12.08-5.47 4.4 2.33 9.06 4.17 13.92 5.47z"/><path d="m62 56.34v5.66h-10v-4c3.31-.66 6.48-1.89 9.37-3.62l.47-.29c.11.74.16 1.5.16 2.25z"/><path d="m52 54v2l-4.27-.36c-2.01-.17-4-.44-5.96-.83 4.88-3.37 9.03-7.71 12.19-12.74 1.42.86 2.71 1.94 3.83 3.19.67.76 1.27 1.57 1.79 2.43-1.8 2.85-4.45 5.06-7.58 6.31z"/><path d="m48.94 40.06-.62.62c-4.46 4.46-9.36 8.44-14.6 11.89-3.02-1.1-5.93-2.47-8.7-4.08l.73-.37c2-1 3.95-2.08 5.84-3.26h.01c1.48-.91 2.92-1.87 4.33-2.89h.01c1.69-1.21 3.33-2.5 4.91-3.85v-.01c.62.39 1.31.67 2.06.81l5.49 1.03c.18.03.36.07.54.11z"/><path d="m12 58v4h-10v-5.66c0-.75.05-1.51.16-2.25l.47.29c2.89 1.73 6.06 2.96 9.37 3.62z"/><path d="m12 54c-3.13-1.25-5.78-3.46-7.58-6.31.52-.86 1.12-1.67 1.79-2.43.8-.9 1.69-1.7 2.65-2.4l5.5 4.87c3.9 3.43 8.17 6.38 12.72 8.8-3.88 2.11-7.92 3.94-12.08 5.47h-3v-4z"/><path d="m22.42 38.51c2.44 2.89 5.6 5.08 9.17 6.35-1.89 1.18-3.84 2.26-5.84 3.26l-.73.37c-3.89-2.27-7.51-5.03-10.76-8.23.44-.12.89-.23 1.34-.31l5.49-1.03c.47-.09.91-.23 1.33-.42z"/><path d="m40.85 38.12c-1.58 1.35-3.22 2.64-4.91 3.85h-.01c-2.58-1.32-4.74-3.32-6.23-5.8l-.29-.49v-.01l2.59.33c2.22 0 4.34-.69 6.1-1.93.3 1.69 1.32 3.16 2.75 4.04z"/><path d="m38.1 34.07c-1.76 1.24-3.88 1.93-6.1 1.93l-2.59-.33c-.92-.22-1.81-.58-2.63-1.04-.3-.17-.59-.35-.87-.56-1.2-.83-2.22-1.92-3-3.21l-2.91-4.86.92.53c3.93 2.24 8.37 3.44 12.89 3.47 1.5 1.33 3.1 2.57 4.77 3.71-.15.13-.31.25-.48.36z"/><path d="m24.86 18.05c3.44 1.84 7.11 3.18 10.9 4 2.91.63 5.89.95 8.9.95h1.02c-.23.52-.5 1.04-.8 1.53l-2.08 3.47c-4.56-.02-9.08-.86-13.35-2.46l-.09-.03c-1.84-2.11-3.48-4.38-4.93-6.79l-.3-.5c.25-.05.49-.11.73-.17z"/><path d="m31.54 13h.26c-.51.88-.8 1.9-.8 3l-2.38.89c-1.23.46-2.49.85-3.76 1.16-.24.06-.48.12-.73.17-2.28.51-4.62.77-6.97.78-.11-.7-.16-1.41-.16-2.12 0-2.34.54-4.55 1.5-6.51l5.36 1.34 2.68.67c1.63.41 3.31.62 5 .62z"/><path d="m37.85 3.14c2.67 1.12 4.95 2.99 6.56 5.35-1.26 1-2.62 1.85-4.06 2.53-.96-.65-2.11-1.02-3.35-1.02-2.22 0-4.16 1.21-5.2 3-.08 0-.17 0-.26 0-1.69 0-3.37-.21-5-.62l-2.68-.67.09-.03c5.23-1.74 9.99-4.66 13.9-8.54z"/></g><path d="m12 54v4c-3.31-.66-6.48-1.89-9.37-3.62l-.47-.29c.17-1.26.48-2.5.93-3.68.36-.94.8-1.85 1.33-2.72 1.8 2.85 4.45 5.06 7.58 6.31z" fill="#e6e9ed"/><path d="m61.84 54.09-.47.29c-2.89 1.73-6.06 2.96-9.37 3.62v-2-2c3.13-1.25 5.78-3.46 7.58-6.31 1.19 1.96 1.96 4.14 2.26 6.4z" fill="#e6e9ed"/><path d="m53.53 41.82c.14.08.29.17.43.25-3.16 5.03-7.31 9.37-12.19 12.74-2.75-.54-5.44-1.29-8.05-2.24 5.24-3.45 10.14-7.43 14.6-11.89l.62-.62c1.62.36 3.17.96 4.59 1.76z" fill="#e6e9ed"/><path d="m52 58v4h-11c-4.86-1.3-9.52-3.14-13.92-5.47-4.55-2.42-8.82-5.37-12.72-8.8l-5.5-4.87c1.62-1.18 3.45-2.07 5.4-2.6 3.25 3.2 6.87 5.96 10.76 8.23 2.77 1.61 5.68 2.98 8.7 4.08 2.61.95 5.3 1.7 8.05 2.24 1.96.39 3.95.66 5.96.83l4.27.36z" fill="#e6e9ed"/><path d="m35.93 41.97c-1.41 1.02-2.85 1.98-4.33 2.89h-.01c-3.57-1.27-6.73-3.46-9.17-6.35v-.01c1.81-.8 3.13-2.46 3.49-4.43.28.21.57.39.87.56.82.46 1.71.82 2.63 1.04v.01l.29.49c1.49 2.48 3.65 4.48 6.23 5.8z" fill="#e6e9ed"/><path d="m42.8 28-1.71 2.86c-.67 1.11-1.52 2.07-2.51 2.85-1.67-1.14-3.27-2.38-4.77-3.71-1.59-1.4-3.07-2.9-4.45-4.49l.09.03c4.27 1.6 8.79 2.44 13.35 2.46z" fill="#e6e9ed"/><path d="m29.36 25.51c1.38 1.59 2.86 3.09 4.45 4.49-4.52-.03-8.96-1.23-12.89-3.47l-.92-.53-.88-1.47c-1.02-1.7-1.69-3.58-1.96-5.53 2.35-.01 4.69-.27 6.97-.78l.3.5c1.45 2.41 3.09 4.68 4.93 6.79z" fill="#e6e9ed"/><path d="m32.12 2c2.03 0 3.97.41 5.73 1.14-3.91 3.88-8.67 6.8-13.9 8.54l-.09.03-5.36-1.34c.72-1.5 1.69-2.85 2.86-4.01 2.69-2.7 6.41-4.36 10.52-4.36z" fill="#e6e9ed"/><path d="m44.66 23c-3.01 0-5.99-.32-8.9-.95l.03-.17c.39.08.79.12 1.21.12 3.31 0 6-2.69 6-6 0-2.07-1.05-3.9-2.65-4.98 1.44-.68 2.8-1.53 4.06-2.53 1.64 2.39 2.59 5.28 2.59 8.39 0 2.12-.45 4.21-1.32 6.12z" fill="#e6e9ed"/><path d="m31 16c0 2.9 2.06 5.32 4.79 5.88l-.03.17c-3.79-.82-7.46-2.16-10.9-4 1.27-.31 2.53-.7 3.76-1.16z" fill="#e6e9ed"/><path d="m40.35 11.02c1.6 1.08 2.65 2.91 2.65 4.98 0 3.31-2.69 6-6 6-.42 0-.82-.04-1.21-.12-2.73-.56-4.79-2.98-4.79-5.88 0-1.1.29-2.12.8-3 1.04-1.79 2.98-3 5.2-3 1.24 0 2.39.37 3.35 1.02z" fill="#fcd770"/><circle cx="37" cy="16" fill="#656d78" r="2"/></g><g><path d="m34 16c0 1.654 1.346 3 3 3s3-1.346 3-3-1.346-3-3-3-3 1.346-3 3zm4 0c0 .552-.448 1-1 1s-1-.448-1-1 .448-1 1-1 1 .448 1 1z"/><path d="m58.534 44.597c-2.588-2.912-6.123-4.912-9.953-5.63l-5.482-1.027c-1.848-.347-3.338-1.723-3.874-3.495 1.068-.85 2.002-1.877 2.72-3.074l3.793-6.321c1.48-2.467 2.263-5.292 2.263-8.17-.001-8.757-7.124-15.88-15.88-15.88h-.242c-8.756 0-15.879 7.123-15.879 15.879 0 2.878.782 5.703 2.263 8.17l3.793 6.321c.718 1.197 1.653 2.224 2.721 3.074-.536 1.773-2.025 3.148-3.875 3.495l-5.482 1.027c-3.829.718-7.364 2.718-9.954 5.63-2.88 3.24-4.466 7.411-4.466 11.745v6.659h62v-6.659c0-4.334-1.586-8.505-4.466-11.744zm-23.868 16.403h-14.52c2.367-1.025 4.696-2.142 6.961-3.354 2.448 1.274 4.974 2.39 7.559 3.354zm-19.645-14.021-4.518-3.997c1.096-.67 2.272-1.206 3.5-1.592 9.105 8.784 21.024 14.198 33.643 15.249l3.354.281v4.08h-9.857c-9.622-2.586-18.652-7.43-26.122-14.021zm34.003-5.589.219-.219c1.137.295 2.233.723 3.274 1.261-2.936 4.431-6.617 8.23-10.967 11.304-1.905-.392-3.783-.888-5.627-1.484 4.678-3.219 9.089-6.85 13.101-10.862zm3.976 13.258c2.556-1.143 4.759-2.868 6.464-5.067.605 1.266 1.04 2.609 1.288 3.995-2.42 1.437-5.026 2.481-7.752 3.149zm4.041-8.723c.492.554.928 1.147 1.333 1.757-1.39 2.01-3.22 3.628-5.374 4.75v-1.432h-2v3.914l-3.187-.265c-1.189-.099-2.369-.251-3.543-.429 3.905-3.017 7.241-6.632 9.966-10.765 1.026.708 1.972 1.534 2.805 2.47zm-10.172-5.245c-4.076 3.985-8.53 7.601-13.277 10.756-2.206-.828-4.354-1.803-6.431-2.916 4.928-2.553 9.571-5.644 13.826-9.207.548.266 1.128.477 1.743.592zm-7.6-2.542c-1.11.916-2.247 1.798-3.409 2.647-1.72-.963-3.214-2.261-4.403-3.821.182.009.36.036.543.036 1.95 0 3.839-.511 5.512-1.417.391.979.994 1.848 1.757 2.555zm-.759-5.705c-2.029-1.435-3.947-3.035-5.731-4.78 2.706.724 5.476 1.162 8.284 1.299l-.833 1.389c-.473.787-1.059 1.482-1.72 2.092zm-17.787-7.172-.745-1.242c-.757-1.261-1.298-2.63-1.622-4.052 1.782-.071 3.547-.281 5.287-.627 2.079 3.446 4.613 6.635 7.481 9.482-3.405-.391-6.718-1.458-9.705-3.164zm9.417-7.87c.165.816.478 1.576.901 2.263-1.156-.405-2.3-.846-3.416-1.353.45-.148.899-.303 1.344-.47zm11.86-1.391c0 2.757-2.243 5-5 5s-5-2.243-5-5 2.243-5 5-5 5 2.243 5 5zm.244 10.984c-4.202-.083-8.326-.859-12.272-2.317-1.297-1.507-2.495-3.094-3.588-4.747 5.518 2.581 11.566 3.972 17.661 4.061-.008.013-.014.026-.021.039zm2.769-4.984h-.351c-1.256 0-2.509-.078-3.758-.193 1.866-1.259 3.096-3.392 3.096-5.807 0-1.843-.722-3.517-1.891-4.769.695-.391 1.37-.817 2.019-1.282 1.183 2.042 1.872 4.405 1.872 6.93 0 1.761-.342 3.497-.987 5.121zm-2.008-13.707c-.829.597-1.705 1.125-2.616 1.587-1.005-.559-2.16-.88-3.389-.88-2.369 0-4.463 1.186-5.73 2.992-1.374-.019-2.745-.185-4.087-.489 4.001-1.726 7.698-4.161 10.853-7.16 1.947.921 3.646 2.277 4.969 3.95zm-11.126-5.293h.242c1.331 0 2.614.199 3.833.55-3.492 3.139-7.636 5.576-12.152 7.12l-3.792-.948c2.434-4.021 6.836-6.722 11.869-6.722zm-12.811 8.547 7.228 1.808c1.314.329 2.658.53 4.009.608-.131.428-.223.873-.269 1.331l-1.768.664c-3.287 1.232-6.721 1.905-10.22 2.019-.029-.365-.048-.731-.048-1.098 0-1.889.382-3.689 1.068-5.332zm4.703 18.794-1.083-1.805c3.373 1.531 7.036 2.372 10.748 2.449 1.09.952 2.224 1.848 3.391 2.698-1.449.843-3.11 1.317-4.827 1.317-3.352 0-6.505-1.785-8.229-4.659zm4.97 6.17.101.169c1.309 2.182 3.104 4.009 5.236 5.368-.85.583-1.709 1.152-2.582 1.699-2.847-1.087-5.418-2.795-7.515-4.998 1.12-.784 1.995-1.882 2.507-3.165.715.386 1.47.695 2.253.927zm-7.47 3.393c.293-.055.574-.139.853-.23 2.035 2.259 4.507 4.079 7.26 5.35-1.336.776-2.695 1.513-4.077 2.204l-.228.114c-3.12-1.857-6.058-4.033-8.755-6.511zm-14.311 6.021c.569-.64 1.191-1.23 1.855-1.766l4.882 4.32c3.466 3.058 7.271 5.729 11.298 8.01-3.296 1.703-6.708 3.224-10.183 4.511h-1.812v-10h-2v1.432c-2.154-1.122-3.984-2.739-5.374-4.75.406-.61.841-1.203 1.334-1.757zm4.04 10.801c-2.725-.669-5.332-1.712-7.752-3.149.248-1.387.682-2.729 1.288-3.995 1.705 2.198 3.908 3.924 6.464 5.066zm-8-.385c0-.204.02-.406.028-.61 2.506 1.39 5.178 2.414 7.972 3.053v2.216h-8zm58 4.659h-8v-2.216c2.795-.638 5.466-1.663 7.972-3.053.008.204.028.405.028.61z"/></g></g></svg>