<svg height="480pt" viewBox="0 -40 480 480" width="480pt" xmlns="http://www.w3.org/2000/svg"><path d="m368 191.984375h-344l-16 32c53.609375-2.96875 106.792969 11.027344 152 40 33.28125 22.191406 48 32 72 32v24h80v-24c24 0 64-16 64-72 .0625-11.167969-2.6875-22.175781-8-32zm0 0" fill="#ffd782"/><path d="m232 319.984375s-8 40-112 40v32h256v-32s-64 0-64-40zm0 0" fill="#f1c056"/><path d="m256 351.984375h16v16h-16zm0 0" fill="#dd9c66"/><path d="m336 191.984375h-144l16-32h112zm0 0" fill="#f1c056"/><path d="m320 159.984375h-112v-32l32-16h48l32 16zm0 0" fill="#ffd782"/><path d="m184 151.984375h160v16h-160zm0 0" fill="#dd9c66"/><path d="m264 63.984375c13.253906 0 24 10.746094 24 24v24h-48v-24c0-13.253906 10.746094-24 24-24zm0 0" fill="#f1c056"/><path d="m256 39.984375h16v24h-16zm0 0" fill="#dd9c66"/><g fill="#fff4e1"><path d="m296 271.984375v-16c39.542969 0 40-38.398437 40-40h16c0 19.367187-11.703125 56-56 56zm0 0"/><path d="m192 215.984375h16v16h-16zm0 0"/><path d="m224 215.984375h16v16h-16zm0 0"/></g><path d="m432 311.984375c-17.671875 0-32-14.328125-32-32s14.328125-32 32-32h8c13.253906 0 24-10.746094 24-24s-10.746094-24-24-24h-72v-16h72c22.089844 0 40 17.910156 40 40 0 22.09375-17.910156 40-40 40h-8c-8.835938 0-16 7.164063-16 16s7.164062 16 16 16zm0 0" fill="#dd9c66"/><path d="m440 263.984375c-22.082031-.027344-39.972656-17.917969-40-40h16c0 13.253906 10.746094 24 24 24zm0 0" fill="#dd9c66"/><path d="m40 159.984375s-44.9375-36.976563-.054688-72c44.878907-35.023437 47.574219-60.542969 40-80 0 0 68.109376 55.328125 16 96-44.882812 35.023437-55.945312 56-55.945312 56zm0 0" fill="#dcd0f7"/><path d="m0 47.984375h16v16h-16zm0 0" fill="#d9176c"/><path d="m88 143.984375h16v16h-16zm0 0" fill="#d9176c"/><path d="m144 79.984375h16v16h-16zm0 0" fill="#d9176c"/><path d="m288 351.984375h88v16h-88zm0 0" fill="#dd9c66"/><path d="m120 351.984375h120v16h-120zm0 0" fill="#dd9c66"/><path d="m256 351.984375h16v16h-16zm0 0"/><path d="m296 255.984375v16c44.296875 0 56-36.632813 56-56h-16c0 1.601563-.457031 40-40 40zm0 0"/><path d="m192 215.984375h16v16h-16zm0 0"/><path d="m224 215.984375h16v16h-16zm0 0"/><path d="m340.945312 183.984375-8-16h11.054688v-16h-16v-24c0-3.03125-1.710938-5.804687-4.425781-7.160156l-27.574219-13.785157v-19.054687c-.054688-14.546875-9.914062-27.226563-24-30.863281v-17.136719h-16v17.136719c-14.085938 3.636718-23.945312 16.316406-24 30.863281v19.054687l-27.574219 13.785157c-2.714843 1.355469-4.425781 4.128906-4.425781 7.160156v24h-16v16h11.054688l-8 16h-163.054688c-3.03125 0-5.804688 1.710937-7.160156 4.425781l-16 32c-1.300782 2.605469-1.078125 5.714844.574218 8.109375 1.640626 2.421875 4.480469 3.738281 7.386719 3.425781 51.757813-2.714843 103.070313 10.8125 146.757813 38.695313 30.746094 20.496094 46.519531 31.007813 68.441406 33v15.128906c-1.71875 4.414063-16.425781 33.214844-104 33.214844-4.417969 0-8 3.582031-8 8v32c0 4.417969 3.582031 8 8 8h256c4.417969 0 8-3.582031 8-8v-32c0-4.417969-3.582031-8-8-8-.558594 0-56-.367187-56-32v-16.519531c25.785156-3.257813 64-22.480469 64-79.480469-.027344-8.160156-1.363281-16.261719-3.960938-24h59.960938c13.253906 0 24 10.746094 24 24s-10.746094 24-24 24-24-10.746094-24-24h-16c.039062 11.457031 5.015625 22.335937 13.65625 29.855469-11.441406 7.996094-16.371094 22.492187-12.171875 35.804687s16.554687 22.359375 30.515625 22.339844v-16c-8.835938 0-16-7.164063-16-16s7.164062-16 16-16h8c22.089844 0 40-17.90625 40-40 0-22.089844-17.910156-40-40-40zm-92.945312-96c0-8.835937 7.164062-16 16-16s16 7.164063 16 16v16h-32zm-32 44.945313 25.886719-12.945313h44.226562l25.886719 12.945313v19.054687h-96zm-3.054688 35.054687h102.109376l8 16h-118.109376zm107.054688 184h-32v16h80v16h-240v-16h112v-16h-29.558594c11.34375-4.894531 20.8125-13.308594 27.007813-24h67.253906c1.835937 9.664063 7.3125 18.253906 15.296875 24zm-8-64c-4.417969 0-8 3.582031-8 8v16h-64v-16c0-4.417969-3.582031-8-8-8-21.601562 0-35.039062-8.976563-67.558594-30.65625-42.722656-27.425781-92.4375-41.964844-143.203125-41.886719l7.707031-15.457031h334.101563c3.28125 7.578125 4.964844 15.746094 4.953125 24 0 50.519531-35.199219 64-56 64zm0 0"/><path d="m34.921875 166.160156c1.425781 1.183594 3.222656 1.828125 5.078125 1.824219.519531-.003906 1.039062-.054687 1.550781-.152344 2.347657-.464843 4.367188-1.945312 5.511719-4.046875.113281-.199218 11.371094-20.351562 53.816406-53.472656 13.730469-9.429688 22.160156-24.824219 22.714844-41.472656.34375-35.015625-37-65.757813-38.585938-67.046875-2.816406-2.289063-6.820312-2.398438-9.753906-.261719-2.9375 2.136719-4.0625 5.980469-2.75 9.367188 5.328125 13.6875 7.199219 35.910156-37.464844 70.789062-13.523437 8.984375-22.042968 23.796875-23.007812 40-.34375 25.074219 21.9375 43.699219 22.890625 44.472656zm9.941406-71.871094c28.25-22.039062 43.464844-43.113281 45.9375-63.800781 9.710938 10.503907 15.625 23.960938 16.800781 38.214844-.574218 11.746094-6.722656 22.511719-16.554687 28.96875-19.371094 14.371094-36.878906 31.09375-52.117187 49.785156-6.53125-7.015625-10.398438-16.101562-10.929688-25.671875 1.089844-11.273437 7.3125-21.414062 16.863281-27.496094zm0 0"/><path d="m0 47.984375h16v16h-16zm0 0"/><path d="m88 143.984375h16v16h-16zm0 0"/><path d="m144 79.984375h16v16h-16zm0 0"/></svg>