<svg id="Layer_1_1_" enable-background="new 0 0 64 64" height="512" viewBox="0 0 64 64" width="512" xmlns="http://www.w3.org/2000/svg"><g fill="#8c421c"><path d="m23 7h4v4h-4z"/><path d="m23 47h7v-4h-3-4z"/><path d="m23 43h4v-12h-4v6 4z"/></g><path d="m35 11h-24c4.203 6.004 4.203 13.996 0 20h24c4.203-6.004 4.203-13.996 0-20z" fill="#ffecc7"/><path d="m23 41h-20v3c0 1.657 1.343 3 3 3h17z" fill="#ad5223"/><path d="m39 7 3 3-3 3h7v-2-4z" fill="#707070"/><path d="m43 38c0 4.971-4.029 9-9 9h-26l1.958 6.854c1.209 4.23 5.075 7.146 9.473 7.146h26.716c5.442 0 9.853-4.411 9.853-9.852v-13.148z" fill="#8c421c"/><path d="m48 20h-5c2.339 2.923 2.339 7.077 0 10h5c1.781-3.095 1.781-6.905 0-10z" fill="#707070"/><path d="m57 20h-3-1.336c1.781 3.095 1.781 6.905 0 10h1.336 3c2.339-2.923 2.339-7.077 0-10z" fill="#707070"/><path d="m52.664 20h-4.664c1.781 3.095 1.781 6.905 0 10h4.664c1.781-3.095 1.781-6.905 0-10z" fill="#ffecc7"/><path d="m55 5h-1-8v2 4h8 1z" fill="#707070"/><path d="m29 7 2-3h-6-6l2 3h2 4z" fill="#8c421c"/><circle cx="20" cy="56" fill="#4398d1" r="2"/><circle cx="30" cy="56" fill="#4398d1" r="2"/><circle cx="40" cy="56" fill="#4398d1" r="2"/><path d="m29 20c0-2.209-1.791-4-4-4s-4 1.791-4 4c0 1.477-.191 2.752 1 3.445v2.555h6v-2.555c1.191-.693 1-1.968 1-3.445z" fill="#fff"/><path d="m34 47h-26l1.143 4h26.857c7 0 11-6 11-9h9v-3.875h-13.006c-.068 4.912-4.066 8.875-8.994 8.875z" fill="#ad5223"/><path d="m3 42v2c0 1.657 1.343 3 3 3h17v-2h-17c-1.657 0-3-1.343-3-3z" fill="#8c421c"/><path d="m46.148 59h-26.717c-4.399 0-8.265-2.916-9.473-7.146l-1.387-4.854h-.571l1.958 6.854c1.209 4.23 5.075 7.146 9.473 7.146h26.716c5.442 0 9.853-4.411 9.853-9.852v-2c0 5.441-4.411 9.852-9.852 9.852z" fill="#7d3b19"/><path d="m51 53.132v-2.316c1.161-.414 2-1.514 2-2.816 0-1.654-1.346-3-3-3s-3 1.346-3 3c0 1.302.839 2.402 2 2.816v2.316l-1.445-.964-1.109 1.664 3 2c.167.112.361.168.554.168s.387-.056.555-.168l3-2-1.109-1.664zm-1-6.132c.552 0 1 .449 1 1s-.448 1-1 1-1-.449-1-1 .448-1 1-1z"/><path d="m57 34c0-.552-.447-1-1-1h-1v-2h2c.304 0 .591-.138.781-.375 2.649-3.312 2.649-7.938 0-11.249-.19-.238-.477-.376-.781-.376h-2v-7c.553 0 1-.448 1-1v-6c0-.552-.447-1-1-1v-2h-2v2h-7c-.553 0-1 .448-1 1v1h-6c-.404 0-.77.244-.924.617-.155.374-.069.804.217 1.09l2.293 2.293-2.293 2.293c-.286.286-.372.716-.217 1.09.154.373.52.617.924.617h7c.553 0 1-.448 1-1v-1h6v7h-10c-.385 0-.734.22-.901.567-.166.346-.12.758.12 1.058 2.062 2.576 2.062 6.175 0 8.751-.24.3-.286.711-.12 1.058.167.346.516.566.901.566h10v2h-10c-.553 0-1 .448-1 1v4c0 4.411-3.589 8-8 8h-3v-3c0-.552-.447-1-1-1h-2v-10h7c.326 0 .632-.159.819-.427 4.427-6.324 4.427-14.822 0-21.146-.187-.268-.493-.427-.819-.427h-7v-2h1c.334 0 .646-.167.832-.445l2-3c.204-.307.224-.701.05-1.026s-.513-.529-.882-.529h-5v-1h-2v1h-5c-.369 0-.708.203-.882.528s-.154.72.05 1.026l2 3c.186.279.498.446.832.446h1v2h-11c-.373 0-.715.208-.887.538-.173.331-.146.73.067 1.035 3.947 5.639 3.947 13.215 0 18.854-.214.305-.24.704-.067 1.035.172.33.514.538.887.538h11v4h-19c-.553 0-1 .448-1 1v7c0 2.206 1.794 4 4 4h1.245l1.751 6.129c1.325 4.635 5.616 7.871 10.436 7.871h26.716c5.984 0 10.852-4.868 10.852-10.852v-12.148h5v-2h-5zm-12-22h-3.586l1.293-1.293c.391-.391.391-1.023 0-1.414l-1.293-1.293h3.586v3zm2-5v-1h7v4h-7zm5.042 22h-2.471c.997-2.569.997-5.431 0-8h2.471c1.247 2.517 1.247 5.483 0 8zm4.458 0h-2.264c.997-2.569.997-5.431 0-8h2.264c1.687 2.415 1.687 5.585 0 8zm-11.678-8h2.556c1.246 2.517 1.246 5.483 0 8h-2.556c1.262-2.523 1.262-5.477 0-8zm8.178 16v-2h2v2zm-5 0v-2h3v2zm-2-2v2h-2v-2zm-17 11h-5v-2h5zm-8.132-41h8.264l-.667 1h-6.93zm3.132 3h2v2h-2zm-11.194 4h21.664c3.562 5.446 3.562 12.554 0 18h-21.664c3.111-5.573 3.111-12.427 0-18zm13.194 20v10h-2v-5-5zm-4 8h-3v-2h3zm-13 0v-2h3v2zm5-2h3v2h-3zm-7 0v2h-3v-2zm-3 6v-2h18v4h-14-2c-1.103 0-2-.897-2-2zm19 4h11c5.177 0 9.447-3.954 9.95-9h11.05v2h-8c-.553 0-1 .448-1 1 0 2.322-3.504 8-10 8h-26.103l-.572-2zm23.147 12h-26.715c-3.932 0-7.432-2.64-8.512-6.42l-.452-1.58h25.532c7.058 0 11.199-5.458 11.896-9h7.104v8.148c0 4.881-3.972 8.852-8.853 8.852z"/><path d="m20 53c-1.654 0-3 1.346-3 3s1.346 3 3 3 3-1.346 3-3-1.346-3-3-3zm0 4c-.552 0-1-.449-1-1s.448-1 1-1 1 .449 1 1-.448 1-1 1z"/><path d="m30 53c-1.654 0-3 1.346-3 3s1.346 3 3 3 3-1.346 3-3-1.346-3-3-3zm0 4c-.552 0-1-.449-1-1s.448-1 1-1 1 .449 1 1-.448 1-1 1z"/><path d="m40 53c-1.654 0-3 1.346-3 3s1.346 3 3 3 3-1.346 3-3-1.346-3-3-3zm0 4c-.552 0-1-.449-1-1s.448-1 1-1 1 .449 1 1-.448 1-1 1z"/><path d="m23 20h1v2h-1z"/><path d="m26 20h1v2h-1z"/><path d="m31.293 14.293-2.494 2.494c-.918-1.083-2.271-1.787-3.799-1.787s-2.881.704-3.799 1.787l-2.494-2.494-1.414 1.414 2.922 2.922c-.126.439-.215.892-.215 1.371l-.006.522c-.02 1.188-.041 2.517 1.006 3.433v.631l-2.707 2.707 1.414 1.414 1.833-1.833c.14.074.291.126.46.126h6c.169 0 .32-.052.46-.126l1.833 1.833 1.414-1.414-2.707-2.707v-.631c1.047-.917 1.025-2.245 1.006-3.433l-.006-.522c0-.479-.089-.932-.215-1.371l2.922-2.922zm-4.293 9.152v1.555h-4v-1.555c0-.356-.189-.685-.497-.864-.47-.273-.53-.678-.509-2.026l.006-.555c0-1.654 1.346-3 3-3s3 1.346 3 3l.006.555c.021 1.349-.039 1.753-.509 2.026-.308.179-.497.508-.497.864z"/></svg>