<svg height="421pt" viewBox="-13 0 421 421.23977" width="421pt" xmlns="http://www.w3.org/2000/svg"><path d="m114.230469 233.621094-35.867188 18.863281 6.847657-39.945313-29.015626-28.289062 40.105469-5.824219 17.929688-36.339843 17.9375 36.339843 40.101562 5.824219-29.019531 28.289062 6.851562 39.945313zm0 0" fill="#f9db5f"/><path d="m172.269531 184.25-16.28125-2.363281-28.527343 27.804687 5.824218 33.945313 16.816406 8.847656-6.851562-39.945313zm0 0" fill="#f9ef8b"/><path d="m100.023438 241.09375 4.898437-28.554688-29.019531-28.289062 40.105468-5.824219 8.078126-16.375-9.855469-19.96875-17.929688 36.34375-40.105469 5.824219 29.015626 28.289062-6.847657 39.945313zm0 0" fill="#f9b347"/><path d="m275.746094 34.246094c37.894531 76.785156 22.65625 169.179687-37.890625 229.726562s-152.941407 75.789063-229.726563 37.898438c38.59375 78.179687 123.425782 122.3125 209.597656 109.035156 86.171876-13.273438 153.785157-80.890625 167.0625-167.0625 13.273438-86.171875-30.859374-171.003906-109.042968-209.597656zm0 0" fill="#f9db5f"/><path d="m275.746094 34.246094c3.476562 7.050781 6.535156 14.300781 9.152344 21.710937 65.433593 51.058594 92.476562 137.253907 67.941406 216.539063-24.53125 79.285156-95.535156 135.136718-178.367188 140.3125 4.242188.269531 8.519532.429687 12.832032.429687 92.859374 0 173.480468-63.976562 194.582031-154.40625 21.101562-90.433593-22.875-183.484375-106.144531-224.585937zm0 0" fill="#f9ef8b"/><path d="m117.710938 321.378906c64.390624 6.675782 128.023437-18.246094 170.753906-66.871094 42.730468-48.628906 59.261718-114.941406 44.359375-177.9375-16.355469-17.394531-35.683594-31.726562-57.078125-42.324218 28.90625 58.570312 27.363281 127.566406-4.128906 184.785156-31.492188 57.214844-88.960938 95.433594-153.90625 102.347656zm0 0" fill="#f9b347"/><path d="m59.5 319.003906c-17.824219-3.34375-35.109375-9.105468-51.371094-17.132812 33.65625 68.203125 103.121094 111.378906 179.179688 111.371094 6.984375 0 13.964844-.367188 20.914062-1.089844-61.289062-6.445313-116.171875-40.820313-148.722656-93.148438zm0 0" fill="#f9b347"/><g fill="#16131b"><path d="m288.378906 122.691406c0 4.417969 3.582032 8 8 8 4.417969 0 8-3.582031 8-8 .058594-23.777344-4-47.386718-12-69.777344 54.320313 35.28125 86.996094 95.742188 86.757813 160.511719-.265625 85.351563-56.648438 160.355469-138.566407 184.324219-4.246093 1.226562-6.695312 5.660156-5.46875 9.90625 1.226563 4.246094 5.660157 6.695312 9.90625 5.46875 82.40625-23.828125 141.710938-95.839844 149.296876-181.285156 7.589843-85.449219-38.09375-166.78125-115.011719-204.761719-3.078125-1.523437-6.78125-.914063-9.210938 1.511719-2.425781 2.425781-3.035156 6.132812-1.511719 9.207031 13.097657 26.378906 19.878907 55.441406 19.808594 84.894531zm0 0"/><path d="m187.308594 421.238281c4.417968 0 8-3.582031 8-8s-3.582032-8-8-8c-64.773438.242188-125.234375-32.4375-160.515625-86.753906 22.390625 7.996094 45.996093 12.058594 69.773437 12 76.570313.042969 146.953125-42.042969 183.148438-109.515625 2.046875-3.882812.578125-8.691406-3.289063-10.769531-3.867187-2.082031-8.6875-.652344-10.800781 3.195312-33.40625 62.289063-98.375 101.148438-169.058594 101.109375-29.449218.070313-58.515625-6.707031-84.894531-19.804687-3.078125-1.523438-6.78125-.917969-9.207031 1.511719-2.4296878 2.425781-3.039063 6.132812-1.511719 9.207031 34.804687 71.113281 107.179687 116.09375 186.355469 115.820312zm0 0"/><path d="m295.109375 184.253906c3.066406-9.917968 5.382813-20.054687 6.933594-30.320312.664062-4.367188-2.339844-8.445313-6.710938-9.109375-4.367187-.664063-8.445312 2.339843-9.109375 6.710937-1.429687 9.46875-3.570312 18.820313-6.398437 27.972656-.910157 2.746094-.265625 5.769532 1.6875 7.90625 1.953125 2.136719 4.90625 3.054688 7.726562 2.394532 2.816407-.65625 5.0625-2.785156 5.863281-5.566406zm0 0"/><path d="m107.058594 138.550781-16.074219 32.558594-35.941406 5.226563c-3.011719.4375-5.515625 2.546874-6.453125 5.445312-.941406 2.894531-.15625 6.070312 2.023437 8.199219l26 25.351562-6.140625 35.792969c-.515625 3 .71875 6.03125 3.179688 7.824219 2.460937 1.789062 5.722656 2.027343 8.417968.613281l32.148438-16.898438 32.148438 16.898438c2.695312 1.414062 5.957031 1.175781 8.417968-.613281 2.460938-1.789063 3.695313-4.820313 3.183594-7.820313l-6.121094-35.777344 26-25.351562c2.179688-2.125 2.964844-5.304688 2.023438-8.199219-.941406-2.898437-3.441406-5.007812-6.457032-5.445312l-40.09375-5.847657c-2.851562-.460937-5.726562.652344-7.527343 2.910157-1.796875 2.257812-2.242188 5.3125-1.160157 7.988281 1.082032 2.675781 3.523438 4.558594 6.386719 4.933594l24.0625 3.5-17.410156 16.96875c-1.886719 1.839844-2.746094 4.488281-2.300781 7.082031l4.109375 23.96875-21.523438-11.308594c-2.332031-1.226562-5.117187-1.226562-7.445312 0l-21.523438 11.316407 4.109375-23.964844c.449219-2.597656-.410156-5.246094-2.296875-7.082032l-17.417969-16.980468 24.066407-3.5c2.605469-.378906 4.855469-2.015625 6.023437-4.378906l10.773438-21.808594c2.203125 3.6875 6.925781 4.980468 10.699218 2.925781 3.773438-2.054687 5.25-6.726563 3.34375-10.574219l-6.882812-13.953125c-1.347656-2.730469-4.128906-4.460937-7.171875-4.460937-3.046875 0-5.828125 1.730468-7.175781 4.460937zm0 0"/><path d="m49.09375 66.707031 58.53125 7.289063c.332031.039062.664062.058594 1 .058594 4.226562 0 7.726562-3.289063 7.984375-7.507813.261719-4.222656-2.808594-7.914063-7.007813-8.433594l-39.082031-4.863281 41.5625-31.710938c2.574219-1.964843 3.710938-5.285156 2.878907-8.410156-.828126-3.128906-3.460938-5.449218-6.667969-5.878906l-53.660157-7.1796875c-4.382812-.5859375-8.40625 2.4921875-8.992187 6.8710935s2.492187 8.402344 6.871094 8.988282l34.484375 4.621093-41.773438 31.859375c-2.582031 1.972656-3.71875 5.308594-2.871094 8.449219.847657 3.136719 3.511719 5.449219 6.734376 5.851563zm0 0"/><path d="m139.152344 99.261719c.847656 3.140625 3.507812 5.453125 6.734375 5.851562l50.800781 6.324219c.332031.042969.664062.0625 1 .0625 4.226562 0 7.726562-3.289062 7.988281-7.511719.257813-4.21875-2.8125-7.914062-7.007812-8.429687l-31.355469-3.902344 34-25.953125c2.574219-1.964844 3.710938-5.285156 2.882812-8.414063-.832031-3.128906-3.464843-5.449218-6.675781-5.878906l-46.554687-6.226562c-4.382813-.585938-8.40625 2.488281-8.992188 6.867187-.585937 4.382813 2.492188 8.40625 6.871094 8.992188l27.402344 3.667969-34.222656 26.105468c-2.585938 1.96875-3.71875 5.308594-2.871094 8.445313zm0 0"/></g></svg>