<?xml version="1.0" encoding="iso-8859-1"?>
<!-- Generator: Adobe Illustrator 19.0.0, SVG Export Plug-In . SVG Version: 6.00 Build 0)  -->
<svg version="1.1" id="Capa_1" xmlns="http://www.w3.org/2000/svg" xmlns:xlink="http://www.w3.org/1999/xlink" x="0px" y="0px"
	 viewBox="0 0 512 512" style="enable-background:new 0 0 512 512;" xml:space="preserve">
<circle style="fill:#FFDC64;" cx="256" cy="256" r="248.5"/>
<path style="fill:#FFC850;" d="M337.497,423.003c-137.243,0-248.5-111.257-248.5-248.5c0-47.74,13.489-92.316,36.824-130.178
	C54.837,88.073,7.5,166.497,7.5,256c0,137.242,111.257,248.5,248.5,248.5c89.503,0,167.928-47.337,211.676-118.322
	C429.814,409.513,385.237,423.003,337.497,423.003z"/>
<circle style="fill:#FFDC64;" cx="203.9" cy="380.25" r="20.04"/>
<g>
	<circle style="fill:#FFF082;" cx="304.1" cy="143.77" r="16.03"/>
	<circle style="fill:#FFF082;" cx="155.8" cy="147.78" r="36.07"/>
	<circle style="fill:#FFF082;" cx="368.23" cy="336.16" r="32.06"/>
</g>
<circle style="fill:#FFDC64;" cx="95.68" cy="280.05" r="16.03"/>
<path d="M203.896,352.709c-15.187,0-27.541,12.354-27.541,27.541s12.354,27.541,27.541,27.541c15.186,0,27.54-12.354,27.54-27.541
	S219.081,352.709,203.896,352.709z M203.896,392.791c-6.915,0-12.541-5.625-12.541-12.541s5.626-12.541,12.541-12.541
	s12.54,5.625,12.54,12.541S210.811,392.791,203.896,392.791z"/>
<path d="M304.097,120.242c-12.976,0-23.532,10.557-23.532,23.533s10.557,23.532,23.532,23.532s23.532-10.557,23.532-23.532
	C327.629,130.798,317.072,120.242,304.097,120.242z M304.097,152.307c-4.705,0-8.532-3.828-8.532-8.532
	c0-4.705,3.827-8.533,8.532-8.533s8.532,3.828,8.532,8.533C312.629,148.479,308.802,152.307,304.097,152.307z"/>
<path d="M95.678,256.516c-12.976,0-23.532,10.557-23.532,23.532s10.557,23.532,23.532,23.532s23.532-10.557,23.532-23.532
	S108.653,256.516,95.678,256.516z M95.678,288.581c-4.705,0-8.532-3.828-8.532-8.532s3.827-8.532,8.532-8.532
	s8.532,3.828,8.532,8.532S100.383,288.581,95.678,288.581z"/>
<path d="M398.347,320.581c-4.001,1.073-6.374,5.187-5.301,9.187c2.271,8.467-0.162,17.573-6.353,23.763
	c-4.641,4.64-10.81,7.195-17.37,7.195c-6.562,0-12.73-2.555-17.37-7.195s-7.194-10.809-7.194-17.37c0-6.562,2.555-12.73,7.195-17.37
	c6.182-6.183,15.277-8.619,23.736-6.361c4.003,1.07,8.112-1.31,9.181-5.312s-1.31-8.112-5.312-9.181
	c-13.616-3.636-28.258,0.292-38.212,10.247c-7.474,7.473-11.589,17.408-11.589,27.977c0,10.568,4.115,20.503,11.588,27.976
	s17.408,11.588,27.977,11.588c10.567,0,20.503-4.116,27.976-11.588c9.97-9.969,13.892-24.628,10.235-38.257
	C406.461,321.88,402.343,319.509,398.347,320.581z"/>
<path d="M437.02,74.98C388.668,26.629,324.38,0,256,0S123.332,26.629,74.98,74.98C26.629,123.333,0,187.62,0,256
	s26.629,132.667,74.98,181.02C123.332,485.371,187.62,512,256,512s132.668-26.629,181.02-74.98C485.371,388.667,512,324.38,512,256
	S485.371,123.333,437.02,74.98z M426.413,426.413C380.894,471.932,320.374,497,256,497s-124.894-25.068-170.413-70.587
	S15,320.374,15,256S40.068,131.106,85.587,85.587S191.626,15,256,15s124.894,25.068,170.413,70.587S497,191.626,497,256
	S471.932,380.894,426.413,426.413z"/>
<path d="M223.936,256.516h-8.532v-8.532c0-4.142-3.357-7.5-7.5-7.5s-7.5,3.358-7.5,7.5v8.532h-8.532c-4.143,0-7.5,3.358-7.5,7.5
	s3.357,7.5,7.5,7.5h8.532v8.532c0,4.142,3.357,7.5,7.5,7.5s7.5-3.358,7.5-7.5v-8.532h8.532c4.143,0,7.5-3.358,7.5-7.5
	S228.078,256.516,223.936,256.516z"/>
<path d="M426.93,223.936l2.713-2.713c2.929-2.929,2.929-7.678,0-10.606c-2.93-2.929-7.678-2.929-10.607,0l-2.712,2.712l-2.712-2.712
	c-2.93-2.929-7.678-2.929-10.607,0s-2.929,7.678,0,10.606l2.713,2.713l-2.713,2.713c-2.929,2.929-2.929,7.678,0,10.606
	c1.465,1.464,3.385,2.197,5.304,2.197s3.839-0.732,5.304-2.197l2.712-2.712l2.712,2.712c1.465,1.464,3.385,2.197,5.304,2.197
	s3.839-0.732,5.304-2.197c2.929-2.929,2.929-7.678,0-10.606L426.93,223.936z"/>
<path d="M197.881,136.46c-1.072-4.001-5.184-6.371-9.188-5.301c-4,1.073-6.374,5.187-5.301,9.187
	c2.642,9.849-0.19,20.44-7.391,27.64c-11.14,11.14-29.268,11.139-40.407,0c-11.141-11.141-11.141-29.268-0.001-40.408
	c7.193-7.191,17.772-10.025,27.609-7.399c4.005,1.07,8.111-1.309,9.181-5.311c1.068-4.002-1.31-8.113-5.312-9.181
	c-14.992-4.004-31.119,0.319-42.085,11.284c-16.988,16.989-16.988,44.632,0.001,61.622c8.494,8.494,19.652,12.741,30.811,12.741
	c11.158,0,22.315-4.248,30.811-12.742C197.588,167.614,201.906,151.47,197.881,136.46z"/>
<g>
</g>
<g>
</g>
<g>
</g>
<g>
</g>
<g>
</g>
<g>
</g>
<g>
</g>
<g>
</g>
<g>
</g>
<g>
</g>
<g>
</g>
<g>
</g>
<g>
</g>
<g>
</g>
<g>
</g>
</svg>
