<svg height="512pt" viewBox="-57 0 512 512" width="512pt" xmlns="http://www.w3.org/2000/svg"><path d="m257.0625 35.304688v38.921874h-115.410156v-38.921874c0-14.179688 10.625-25.851563 24.347656-27.519532 1.113281-.140625 2.242188-.210937 3.386719-.210937h59.945312c15.316407 0 27.730469 12.410156 27.730469 27.730469zm0 0" fill="#ffa90b"/><path d="m334.125 495.359375c-5.910156 5.84375-13.917969 9.066406-22.226562 9.066406h-225.089844c-8.269532 0-16.25-3.179687-22.136719-8.976562-35.253906-34.78125-57.105469-83.121094-57.105469-136.554688 0-82.730469 52.386719-153.21875 125.789063-180.121093 7.449219-2.726563 12.4375-9.765626 12.4375-17.695313v-61.011719h107.128906v61.105469c0 7.875 4.90625 14.921875 12.296875 17.640625 71.40625 26.269531 123.441406 93.929688 125.839844 174.214844 1.667968 55.714844-20.449219 106.289062-56.933594 142.332031zm0 0" fill="#169b62"/><path d="m334.125 495.359375c-5.910156 5.84375-13.917969 9.066406-22.226562 9.066406h-172.578126c-8.269531 0-16.246093-3.179687-22.136718-8.976562-35.253906-34.78125-57.105469-83.121094-57.105469-136.554688 0-82.730469 52.390625-153.21875 125.789063-180.121093 7.449218-2.726563 12.441406-9.765626 12.441406-17.695313v-61.011719h54.613281v61.105469c0 7.875 4.90625 14.921875 12.296875 17.640625 71.40625 26.269531 123.441406 93.929688 125.839844 174.214844 1.667968 55.714844-20.449219 106.289062-56.933594 142.332031zm0 0" fill="#1ab975"/><path d="m228.328125 220.109375c-5.503906-1.261719-10.988281-2.171875-16.429687-2.746094-68.710938-7.230469-130.910157 39.011719-130.285157 100.863281.324219 30.992188 16.625 64.085938 42.0625 87.648438 2.203125 2.027344 3.433594 4.917969 3.433594 7.914062v36.558594c0 6 4.847656 10.875 10.84375 10.898438 133.617187.476562 125.234375.472656 126.246094.339844 5.382812-.675782 9.542969-5.269532 9.511719-10.84375l-.152344-36.394532c-.007813-2.992187 1.191406-5.878906 3.382812-7.917968 24.933594-23.378907 40.558594-56.359376 40.242188-87.332032-.796875-78.820312-88.683594-98.878906-88.855469-98.988281zm0 0" fill="#4b5055"/><path d="m228.328125 220.109375c-5.503906-1.261719-10.988281-2.171875-16.429687-2.746094-56.59375 5.996094-102.542969 47.65625-102.007813 100.863281.324219 30.992188 16.621094 64.085938 42.0625 87.648438 2.199219 2.027344 3.433594 4.917969 3.433594 7.914062v36.558594c0 6 4.847656 10.875 10.84375 10.898438.003906 0 97.96875.339844 97.96875.339844 5.382812-.675782 9.542969-5.269532 9.511719-10.84375l-.152344-36.394532c-.007813-2.992187 1.191406-5.878906 3.382812-7.917968 24.933594-23.378907 40.558594-56.359376 40.242188-87.332032-.796875-78.820312-88.683594-98.878906-88.855469-98.988281zm0 0" fill="#5a5f64"/><path d="m115.34375 285.273438c11.46875 13.878906 38.1875 41.683593 69.792969 44.023437 3.6875.273437 4.996093 5.015625 1.992187 7.175781-24.691406 17.75-87.394531 53.476563-78.804687-48.984375.296875-3.554687 4.746093-4.964843 7.019531-2.214843zm0 0" fill="#ffa90b"/><path d="m283.460938 285.273438c-11.46875 13.878906-38.1875 41.683593-69.792969 44.023437-3.6875.273437-4.996094 5.015625-1.992188 7.175781 24.6875 17.75 87.394531 53.476563 78.804688-48.984375-.300781-3.554687-4.746094-4.964843-7.019531-2.214843zm0 0" fill="#ffa90b"/><path d="m274.765625 62.691406v56.554688c0 2.796875-2.253906 5.046875-5.050781 5.046875h-140.714844c-2.796875 0-5.046875-2.25-5.046875-5.046875v-56.554688c0-2.785156 2.25-5.046875 5.046875-5.046875h140.714844c2.796875 0 5.050781 2.261719 5.050781 5.046875zm0 0" fill="#4b5055"/><path d="m257.0625 35.304688v19.226562h-92.179688v-38.917969c0-2.71875.390626-5.34375 1.117188-7.828125 1.113281-.140625 2.242188-.210937 3.386719-.210937h59.945312c15.316407 0 27.730469 12.410156 27.730469 27.730469zm0 0" fill="#ffb52d"/><path d="m274.765625 62.691406v41.910156h-122.539063c-2.796874 0-5.046874-2.253906-5.046874-5.050781v-41.90625h122.535156c2.796875 0 5.050781 2.261719 5.050781 5.046875zm0 0" fill="#5a5f64"/><path d="m260.496094 169.132812v-37.265624h9.21875c6.96875 0 12.625-5.65625 12.625-12.621094v-56.554688c0-6.957031-5.65625-12.621094-12.625-12.621094h-5.078125v-14.761718c0-14.164063-8.414063-26.910156-21.4375-32.480469-3.851563-1.644531-8.300781.144531-9.945313 3.988281-1.640625 3.847656.144532 8.296875 3.988282 9.941406 7.4375 3.179688 12.246093 10.460938 12.246093 18.550782v14.761718h-100.261719v-14.761718c0-11.117188 9.042969-20.160156 20.160157-20.160156h40.839843c4.183594 0 7.574219-3.390626 7.574219-7.574219 0-4.183594-3.390625-7.574219-7.574219-7.574219h-40.839843c-19.46875 0-35.304688 15.839844-35.304688 35.308594v14.761718h-5.082031c-6.964844 0-12.621094 5.664063-12.621094 12.621094v56.554688c0 6.964844 5.65625 12.621094 12.621094 12.621094h9.222656v37.304687c-69.367187 22.34375-118.667968 79.6875-133.472656 146.25-.910156 4.078125 1.664062 8.128906 5.753906 9.035156 4.089844.910157 8.128906-1.664062 9.039063-5.753906 24.382812-109.664063 139.003906-170.113281 240.953125-133.363281 128.082031 45.941406 165.113281 209.019531 68.304687 304.636718-4.480469 4.433594-10.492187 6.875-16.902343 6.875h-225.089844c-6.3125 0-12.441406-2.472656-16.8125-6.796874-39.15625-38.628907-57.71875-90.394532-54.503906-142.570313.253906-4.183594-2.929688-7.765625-7.097657-8.03125-4.210937-.242187-7.765625 2.929687-8.027343 7.101563-3.386719 56.976562 16.792968 112.652343 58.984374 154.277343 7.300782 7.199219 17.046876 11.167969 27.457032 11.167969h225.089844c10.421874 0 20.207031-4 27.546874-11.25 106.667969-105.371094 62.753907-285.8125-78.949218-331.617188zm-15.148438-4.234374c-29.664062-7.042969-61.296875-7.269532-91.980468.03125v-33.0625h91.980468zm-113.824218-48.179688v-51.5h135.667968v51.5c-16.296875 0-120.1875 0-135.667968 0zm0 0"/><path d="m282.074219 411.953125c25.671875-24.058594 42.777343-58.09375 42.640625-92.9375-.976563-96.269531-134.59375-146.273437-213.441406-79.242187-33.117188 28.152343-47.515626 71.058593-29.300782 118.246093 1.507813 3.902344 5.890625 5.84375 9.792969 4.339844 3.902344-1.507813 5.84375-5.890625 4.339844-9.792969-32.53125-84.28125 55.839843-144.027344 130.539062-125.054687 8.414063 2.148437 82.226563 22.984375 82.921875 91.632812.136719 30.035157-15.449218 60.761719-37.851562 81.753907-3.667969 3.441406-5.773438 8.324218-5.773438 13.480468l.15625 36.410156c0 1.828126-1.488281 3.3125-3.328125 3.3125l-30.253906-.105468v-41.660156c0-4.183594-3.390625-7.574219-7.574219-7.574219s-7.574218 3.390625-7.574218 7.574219v41.609374l-36.019532-.125v-41.484374c0-4.183594-3.390625-7.574219-7.574218-7.574219-4.183594 0-7.574219 3.390625-7.574219 7.574219v41.429687l-28.261719-.097656c-1.820312-.003907-3.304688-1.492188-3.304688-3.316407v-36.5625c0-13.183593-9.332031-12.636718-25.234374-36.015624-2.351563-3.460938-7.066407-4.355469-10.523438-2-3.460938 2.351562-4.355469 7.0625-2.003906 10.519531 6.242187 9.175781 13.515625 17.632812 21.617187 25.136719 1.402344 1.300781 1-.511719 1 38.925781 0 10.144531 8.25 18.425781 18.398438 18.460937l124.894531.4375c10.183594 0 18.464844-8.28125 18.464844-18.542968-.167969-39.25-.566406-37.453126.828125-38.757813zm0 0"/><path d="m138.277344 364.773438c18.527344 0 39.171875-12.046876 53.230468-22.152344 8.636719-6.210938 5.011719-20.070313-5.855468-20.878906-29.21875-2.164063-54.851563-29.597657-64.515625-41.292969-6.527344-7.894531-19.53125-4.023438-20.402344 6.40625-3.035156 36.171875 1.246094 77.917969 37.542969 77.917969zm-23.019532-67.984376c13.238282 14.554688 34.464844 33.25 59.808594 38.691407-10.464844 6.691406-24.8125 14.144531-36.789062 14.144531-22.304688 0-24.050782-30.558594-23.019532-52.835938zm0 0"/><path d="m297.984375 286.855469c-.875-10.425781-13.878906-14.296875-20.40625-6.40625-9.664063 11.695312-35.296875 39.128906-64.515625 41.296875-10.851562.804687-14.503906 14.65625-5.851562 20.875 53.355468 38.359375 98.085937 31.457031 90.773437-55.765625zm-14.527344 9.933593c2.4375 52.726563-15.496093 67.027344-59.808593 38.691407 25.347656-5.445313 46.570312-24.136719 59.808593-38.691407zm0 0"/></svg>