<svg height="512pt" viewBox="-19 0 512 512.00008" width="512pt" xmlns="http://www.w3.org/2000/svg"><path d="m176.664062 113h119.820313v391.5h-119.820313zm0 0" fill="#ffca28"/><path d="m256.488281 113v331.503906c0 22.089844-17.90625 39.996094-39.996093 39.996094h-39.828126v20h119.824219v-391.5zm0 0" fill="#ffa000"/><path d="m458.390625 244.632812v259.867188h-161.902344v-259.867188zm-443.628906 0v259.867188h161.902343v-259.867188zm0 0" fill="#42a5f5"/><path d="m14.761719 484.5h161.902343v20h-161.902343zm0 0" fill="#1976d2"/><path d="m418.390625 244.632812v159.875c0 44.179688-35.8125 79.992188-79.996094 79.992188h-41.90625v20h161.902344v-259.867188zm0 0" fill="#1976d2"/><path d="m176.664062 244.632812h-169.164062v-131.636718h169.164062zm119.824219-131.636718v131.636718h169.164063v-131.636718zm0 0" fill="#42a5f5"/><path d="m7.5 224.636719h169.164062v19.996093h-169.164062zm0 0" fill="#1976d2"/><path d="m415.652344 112.996094v61.644531c0 27.609375-22.382813 49.996094-49.996094 49.996094h-69.167969v19.996093h169.164063v-131.636718zm0 0" fill="#1976d2"/><g fill="#ffca28"><path d="m282.84375 112.996094h-92.539062v-56.085938c0-10.144531 10.511718-16.875 19.726562-12.628906l26.546875 12.234375 26.542969-12.234375c9.214844-4.246094 19.726562 2.484375 19.726562 12.628906v56.085938zm0 0"/><path d="m191.347656 51.589844-69.703125-38.707032c-28.058593-15.582031-62.53125 4.710938-62.53125 36.804688 0 36.878906 29.089844 63.3125 62.386719 63.3125h68.804688v-56.089844c0-1.914062.375-3.703125 1.042968-5.320312zm-69.847656 31.410156c-16.757812 0-32.390625-13.089844-32.390625-33.316406 0-8.292969 7.25-12.15625 12.148437-12.15625 1.972657 0 3.933594.53125 5.824219 1.582031l79.039063 43.890625zm0 0"/><path d="m351.097656 14.039062-68.738281 39.179688c.3125 1.164062.484375 2.398438.484375 3.691406v56.085938h68.808594c34.4375 0 62.386718-27.914063 62.386718-62.386719 0-32.304687-34.878906-52.566406-62.941406-36.570313zm.554688 68.960938h-60.960938l75.261719-42.902344c1.917969-1.09375 3.914063-1.648437 5.933594-1.648437 4.898437 0 12.152343 3.863281 12.152343 12.160156 0 17.859375-14.527343 32.390625-32.386718 32.390625zm0 0"/></g><path d="m465.652344 105.5h-70.820313c16.246094-12.808594 26.707031-32.644531 26.707031-54.890625 0-38.15625-41.214843-61.867187-74.15625-43.085937l-11.523437 6.566406c-3.597656 2.050781-4.851563 6.632812-2.800781 10.230468 2.050781 3.597657 6.628906 4.851563 10.226562 2.800782l11.523438-6.566406c23.050781-13.140626 51.730468 3.476562 51.730468 30.054687 0 30.265625-24.625 54.890625-54.890624 54.890625h-61.304688v-15.027344c.117188.003906.226562.027344.34375.027344h60.960938c21.996093 0 39.890624-17.894531 39.890624-39.890625 0-14.929687-16.132812-24.53125-29.300781-17.023437l-71.894531 40.980468v-17.269531l22.535156-12.84375c3.601563-2.050781 4.855469-6.632813 2.804688-10.230469-2.050782-3.597656-6.632813-4.851562-10.230469-2.800781l-20.265625 11.550781c-6.230469-7.238281-16.445312-9.542968-25.207031-5.503906l-23.40625 10.789062-23.40625-10.789062c-8.125-3.746094-17.65625-2.089844-24.074219 4.289062l-63.808594-35.429687c-33.339844-18.515625-73.675781 5.910156-73.675781 43.359375 0 23.371094 10.378906 42.9375 26.707031 55.8125h-70.816406c-4.140625 0-7.5 3.355469-7.5 7.5v131.636719c0 4.0625 3.230469 7.359375 7.261719 7.488281v252.375c0 4.140625 3.359375 7.5 7.5 7.5h443.628906c4.140625 0 7.5-3.359375 7.5-7.5v-108.820312c0-4.144532-3.359375-7.5-7.5-7.5-4.144531 0-7.5 3.355468-7.5 7.5v101.320312h-146.90625v-244.867188h146.90625v108.546876c0 4.140624 3.359375 7.5 7.5 7.5s7.5-3.359376 7.5-7.5v-108.558594c4.03125-.125 7.261719-3.425782 7.261719-7.488282v-131.632812c-.003906-4.144531-3.359375-7.5-7.5-7.5zm-95.988282-58.882812c.789063-.449219 1.515626-.667969 2.222657-.667969.046875 0 4.65625.347656 4.65625 4.660156 0 13.726563-11.167969 24.890625-24.890625 24.890625h-32.660156zm-215.503906 28.882812h-32.660156c-13.726562 0-24.890625-11.164062-24.890625-24.890625 0-4.3125 4.609375-4.660156 4.65625-4.660156.707031 0 1.433594.21875 2.21875.667969zm52.730469-24.40625 22.183594 10.222656v25.199219c0 4.140625 3.359375 7.5 7.5 7.5 4.144531 0 7.5-3.359375 7.5-7.5v-25.199219l22.1875-10.222656c4.242187-1.957031 9.085937 1.144531 9.085937 5.816406v48.585938h-77.542968v-48.585938c0-4.671875 4.839843-7.777344 9.085937-5.816406zm-140.28125-1.40625c0-26.378906 28.394531-43.019531 51.394531-30.246094l64.800782 35.984375v17.15625l-72.085938-40.03125c-13.109375-7.277343-29.109375 2.242188-29.109375 17.132813 0 24.289062 18.933594 40.816406 39.890625 40.816406h61.304688v14.996094h-61.304688c-29.050781.003906-54.890625-23.050782-54.890625-55.808594zm-44.347656 202.445312h146.902343v244.867188h-146.902343zm161.902343-48.550781c0-4.140625-3.359374-7.5-7.5-7.5-4.140624 0-7.5 3.359375-7.5 7.5v33.554688h-154.164062v-116.640625h154.164062v48.089844c0 4.140624 3.359376 7.496093 7.5 7.496093 4.140626 0 7.5-3.355469 7.5-7.496093v-48.089844h104.824219v376.503906h-104.824219zm119.820313 33.554688v-116.640625h154.167969v116.640625zm0 0"/></svg>