<?xml version="1.0" encoding="iso-8859-1"?>
<!-- Generator: Adobe Illustrator 21.0.0, SVG Export Plug-In . SVG Version: 6.00 Build 0)  -->
<svg xmlns="http://www.w3.org/2000/svg" xmlns:xlink="http://www.w3.org/1999/xlink" version="1.1" id="Capa_1" x="0px" y="0px" viewBox="0 0 512.002 512.002" style="enable-background:new 0 0 512.002 512.002;" xml:space="preserve" width="512" height="512">
<g>
	<g>
		<path style="fill:#FDDB33;" d="M429.872,195.536L273.173,194.7l21.41-151.124c1.426-10.067-11.334-15.591-17.699-7.663    L88.379,270.728c-5.261,6.554-0.582,16.28,7.822,16.26l146.044-0.348l-39.13,177.676c-2.254,10.236,10.755,16.603,17.456,8.544    l216.937-260.931C442.909,205.433,438.32,195.581,429.872,195.536z"/>
		<g>
			<path style="fill:#F9C032;" d="M429.872,195.536L273.173,194.7l21.41-151.124c1.426-10.067-11.334-15.591-17.699-7.663     l-17.261,21.502L240.173,194.7l156.699,0.836c8.448,0.045,13.037,9.897,7.636,16.393L206.157,450.504l-3.042,13.812     c-2.254,10.236,10.755,16.603,17.456,8.544l216.937-260.931C442.909,205.433,438.32,195.581,429.872,195.536z"/>
			<path style="fill:#F9C032;" d="M209.245,286.64l-114.28,0.272c0.403,0.047,0.814,0.077,1.236,0.076l113.027-0.269L209.245,286.64     z"/>
		</g>
	</g>
	<g>
		<g>
			<path d="M225.599,1.673c-3.217-2.607-7.94-2.112-10.549,1.104l-195.357,241c-6.061,7.477,5.5,17.034,11.652,9.445l195.357-241     C229.311,9.004,228.817,4.281,225.599,1.673z"/>
			<path d="M481.708,257.673c-3.217-2.607-7.94-2.112-10.549,1.104l-195.357,241c-6.061,7.477,5.5,17.034,11.652,9.445l195.357-241     C485.42,265.004,484.926,260.281,481.708,257.673z"/>
			<path d="M504.33,343.664c-3.223-2.601-7.945-2.1-10.547,1.123l-95.296,118c-6.047,7.488,5.531,17.026,11.67,9.424l95.296-118     C508.055,350.988,507.552,346.267,504.33,343.664z"/>
			<path d="M113.548,49.211c6.079-7.527-5.592-16.95-11.67-9.424l-95.296,118c-6.047,7.488,5.531,17.026,11.67,9.424L113.548,49.211     z"/>
			<path d="M457.843,192.482c-1.226-2.63-3.857-4.317-6.759-4.333l-169.279-0.902L307.121,8.551     c1.032-7.283-8.55-11.635-13.274-5.747L69.437,282.343c-3.874,4.827-0.268,12.195,5.867,12.195l157.605-0.376l-45.967,208.724     c-1.628,7.399,8.12,12.388,13.092,6.408l256.778-308.851C458.666,198.212,459.067,195.111,457.843,192.482z M208.228,475.975     l41.342-187.722c0.994-4.517-2.737-9.113-7.343-9.113l-151.273,0.361L288.436,33.505l-22.688,160.144     c-0.629,4.437,2.905,8.528,7.386,8.552l161.992,0.863L208.228,475.975z"/>
		</g>
	</g>
</g>















</svg>
