<?xml version="1.0" encoding="iso-8859-1"?>
<!-- Generator: Adobe Illustrator 21.0.0, SVG Export Plug-In . SVG Version: 6.00 Build 0)  -->
<svg version="1.1" id="Capa_1" xmlns="http://www.w3.org/2000/svg" xmlns:xlink="http://www.w3.org/1999/xlink" x="0px" y="0px"
	 viewBox="0 0 512.004 512.004" style="enable-background:new 0 0 512.004 512.004;" xml:space="preserve">
<path style="fill:#FF812D;" d="M422.049,293.044c27.484-14.545,54.968,5.442,82.452-22.042c-41.746,0-44.771-38.72-80.916-44.322
	c19.826-23.956,52.866-16.008,67.741-51.917c-38.568,15.975-56.181-18.64-91.718-9.982c9.149-29.719,42.716-35.02,42.716-73.888
	c-29.519,29.519-59.038,4.278-88.556,25.876c-2.92-30.958,26.063-48.701,11.189-84.611c-15.975,38.568-52.906,26.546-71.913,57.796
	c-14.546-27.484,5.441-54.968-22.043-82.452c0,41.746-38.72,44.771-44.321,80.916c-23.956-19.826-16.008-52.866-51.917-67.741
	c15.975,38.568-18.64,56.181-9.982,91.718c-29.719-9.149-35.02-42.716-73.888-42.716c29.519,29.519,4.279,59.038,25.876,88.557
	c-30.958,2.92-48.701-26.063-84.611-11.189c38.568,15.975,26.546,52.906,57.796,71.913c-27.485,14.546-54.969-5.442-82.453,22.042
	c41.746,0,44.771,38.72,80.916,44.322c-19.826,23.956-52.866,16.008-67.741,51.917c38.568-15.975,56.181,18.64,91.718,9.982
	c-9.149,29.719-42.716,35.02-42.716,73.888c29.519-29.519,59.038-4.279,88.556-25.876c2.92,30.958-26.063,48.701-11.189,84.611
	c15.975-38.568,52.906-26.546,71.913-57.796c14.545,27.484-5.442,54.968,22.042,82.452c0-41.746,38.72-44.771,44.321-80.916
	c23.956,19.826,16.008,52.866,51.917,67.74c-15.975-38.568,18.64-56.181,9.982-91.718c29.719,9.149,35.02,42.716,73.888,42.716
	c-29.519-29.519-4.279-59.038-25.876-88.557c30.958-2.92,48.701,26.063,84.611,11.189
	C441.277,348.982,453.299,312.051,422.049,293.044z"/>
<path style="fill:#FFB833;" d="M256.001,116.002v280c77.32,0,140-62.68,140-140C396.001,178.683,333.321,116.002,256.001,116.002z"
	/>
<path style="fill:#FFCE53;" d="M366.001,256.002c0-77.32-49.249-140-110-140c-77.32,0-140,62.68-140,140s62.68,140,140,140
	C316.753,396.002,366.001,333.322,366.001,256.002z"/>
<path style="fill:#FFE373;" d="M256.001,146.002v220c60.751,0,110-49.249,110-110S316.753,146.002,256.001,146.002z"/>
<path style="fill:#FFE9B0;" d="M336.001,256.002c0-60.751-35.817-110-80-110c-60.751,0-110,49.249-110,110s49.249,110,110,110
	C300.184,366.002,336.001,316.754,336.001,256.002z"/>
<path d="M172.875,183.581c-3.298-2.504-8.004-1.861-10.509,1.438c-15.612,20.566-23.865,45.111-23.865,70.983
	c0,64.79,52.71,117.5,117.5,117.5s117.5-52.71,117.5-117.5s-52.71-117.5-117.5-117.5c-25.873,0-50.418,8.253-70.983,23.865
	c-3.299,2.505-3.943,7.21-1.438,10.509c2.505,3.3,7.21,3.942,10.509,1.438c17.934-13.614,39.343-20.812,61.912-20.812
	c56.519,0,102.5,45.981,102.5,102.5s-45.981,102.5-102.5,102.5s-102.5-45.981-102.5-102.5c0-22.569,7.197-43.979,20.813-61.913
	C176.818,190.79,176.174,186.085,172.875,183.581z"/>
<path d="M509.805,276.306c2.145-2.146,2.786-5.371,1.625-8.174c-1.16-2.803-3.896-4.63-6.929-4.63
	c-19.395,0-28.805-9.408-39.702-20.301c-7.177-7.175-15.053-15.049-26.203-19.929c5.369-3.547,11.376-6.035,17.594-8.612
	c15.124-6.267,32.266-13.369,42.064-37.026c1.161-2.803,0.52-6.028-1.625-8.173c-2.146-2.146-5.371-2.789-8.174-1.626
	c-6.01,2.488-11.674,3.699-17.315,3.699c-9.593,0.001-18.113-3.527-27.135-7.263c-9.701-4.017-19.723-8.167-31.827-8.394
	c3.603-5.327,8.196-9.922,12.952-14.68c11.574-11.577,24.693-24.699,24.693-50.306c0-3.033-1.827-5.769-4.63-6.929
	c-2.803-1.163-6.028-0.52-8.174,1.625c-13.713,13.714-27.02,13.716-42.428,13.719c-10.148,0.001-21.284,0.003-32.62,4.437
	c1.289-6.304,3.776-12.312,6.351-18.53c6.264-15.125,13.362-32.269,3.563-55.926c-1.16-2.803-3.896-4.63-6.929-4.63
	s-5.769,1.827-6.929,4.63c-7.423,17.918-19.715,23.013-33.949,28.911c-9.376,3.885-19.663,8.148-28.439,16.582
	c-1.222-6.317-1.223-12.818-1.224-19.549c-0.002-16.371-0.004-34.927-18.11-53.034c-2.146-2.145-5.371-2.787-8.174-1.625
	c-2.803,1.16-4.63,3.896-4.63,6.929c0,19.395-9.408,28.805-20.301,39.702c-7.175,7.177-15.048,15.052-19.929,26.202
	c-3.546-5.368-6.035-11.374-8.611-17.592c-6.267-15.125-13.37-32.267-37.027-42.065c-2.803-1.161-6.028-0.52-8.173,1.625
	c-2.145,2.146-2.787,5.371-1.626,8.174c7.422,17.918,2.332,30.213-3.562,44.448c-3.882,9.377-8.143,19.666-8.385,31.835
	c-5.331-3.603-9.928-8.199-14.688-12.958c-11.578-11.574-24.7-24.693-50.307-24.693c-3.034,0-5.768,1.827-6.929,4.63
	c-1.161,2.803-0.519,6.028,1.626,8.174c13.713,13.713,13.716,27.02,13.718,42.428c0.001,10.15,0.003,21.289,4.439,32.627
	c-6.285-1.285-12.29-3.771-18.533-6.357c-9.978-4.132-20.296-8.405-32.87-8.405c-7.648,0-15.189,1.584-23.055,4.843
	c-2.803,1.16-4.63,3.896-4.63,6.929s1.827,5.769,4.63,6.929c17.918,7.423,23.012,19.715,28.911,33.949
	c3.885,9.375,8.148,19.663,16.582,28.439c-6.317,1.222-12.818,1.223-19.549,1.224c-16.371,0.002-34.927,0.004-53.033,18.11
	c-2.145,2.146-2.787,5.371-1.626,8.174s3.896,4.63,6.929,4.63c19.395,0,28.805,9.408,39.702,20.301
	c7.177,7.175,15.053,15.049,26.203,19.929c-5.369,3.547-11.375,6.035-17.593,8.612c-15.124,6.267-32.266,13.369-42.065,37.026
	c-1.161,2.803-0.519,6.028,1.626,8.173c2.145,2.146,5.373,2.789,8.173,1.626c6.011-2.489,11.675-3.699,17.315-3.699
	c9.592,0,18.112,3.527,27.133,7.263c9.702,4.017,19.724,8.167,31.829,8.394c-3.602,5.327-8.196,9.922-12.952,14.68
	c-11.575,11.577-24.694,24.699-24.694,50.306c0,3.033,1.827,5.769,4.63,6.929c2.802,1.162,6.029,0.521,8.173-1.625
	c13.714-13.714,27.021-13.716,42.428-13.719c10.149-0.001,21.285-0.003,32.621-4.437c-1.289,6.304-3.776,12.311-6.351,18.529
	c-6.263,15.126-13.362,32.27-3.563,55.927c1.161,2.803,3.896,4.63,6.929,4.63s5.768-1.827,6.929-4.63
	c7.422-17.918,19.715-23.013,33.949-28.911c9.375-3.885,19.663-8.148,28.439-16.582c1.222,6.317,1.223,12.818,1.224,19.549
	c0.002,16.371,0.004,34.927,18.111,53.034c1.435,1.435,3.353,2.196,5.305,2.196c0.966,0,1.941-0.187,2.869-0.571
	c2.803-1.16,4.63-3.896,4.63-6.929c0-19.395,9.408-28.805,20.301-39.702c7.175-7.177,15.049-15.053,19.929-26.203
	c3.547,5.369,6.035,11.376,8.612,17.594c6.267,15.124,13.369,32.266,37.026,42.064c0.954,0.396,1.968,0.593,2.951,0.571
	c4.114-0.033,7.438-3.378,7.438-7.5c0-1.201-0.282-2.336-0.784-3.343c-7.139-17.663-2.086-29.864,3.757-43.975
	c3.882-9.377,8.143-19.666,8.384-31.836c5.331,3.603,9.929,8.199,14.689,12.958c11.577,11.574,24.699,24.693,50.306,24.693
	c4.162,0,7.521-3.357,7.521-7.5c0-2.229-0.972-4.229-2.515-5.603c-13.417-13.608-13.418-26.833-13.421-42.129
	c-0.001-10.15-0.003-21.289-4.438-32.627c6.285,1.286,12.289,3.772,18.532,6.357c9.979,4.132,20.297,8.404,32.871,8.405
	c7.647,0,15.189-1.584,23.055-4.843c2.803-1.16,4.63-3.896,4.63-6.929s-1.827-5.769-4.63-6.929
	c-17.918-7.423-23.013-19.715-28.911-33.949c-3.885-9.376-8.148-19.663-16.582-28.439c6.317-1.222,12.818-1.223,19.549-1.224
	C473.142,294.415,491.698,294.413,509.805,276.306z M418.541,286.416c-2.385,1.262-3.908,3.708-3.989,6.405
	c-0.08,2.697,1.294,5.229,3.6,6.632c12.313,7.489,16.707,18.092,21.795,30.369c4.448,10.733,9.316,22.483,20.226,31.903
	c-0.17,0.002-0.34,0.004-0.511,0.004c-9.592-0.001-18.112-3.529-27.134-7.264c-9.979-4.133-20.298-8.405-32.873-8.405
	c-1.701,0-3.425,0.081-5.124,0.241c-2.687,0.253-5.029,1.931-6.136,4.392s-0.807,5.326,0.787,7.504
	c8.51,11.632,8.512,23.109,8.514,36.399c0.002,11.617,0.003,24.334,6.476,37.21c-9.106-3.631-15.614-10.138-22.762-17.282
	c-8.695-8.693-17.687-17.683-31.98-22.083c-2.582-0.796-5.387-0.142-7.35,1.709c-1.964,1.85-2.783,4.612-2.145,7.234
	c3.412,14.003-0.979,24.607-6.063,36.887c-4.444,10.733-9.31,22.482-8.258,36.855c-7.022-6.84-10.546-15.341-14.414-24.678
	c-4.707-11.358-9.573-23.104-21.097-32.641c-2.077-1.72-4.92-2.191-7.443-1.233c-2.522,0.958-4.336,3.197-4.75,5.863
	c-2.206,14.242-10.32,22.359-19.717,31.758c-8.213,8.216-17.204,17.209-21.733,30.891c-3.871-9.007-3.873-18.209-3.874-28.315
	c-0.001-12.296-0.003-25.01-6.999-38.229c-1.262-2.385-3.708-3.908-6.405-3.989c-0.075-0.002-0.149-0.003-0.225-0.003
	c-2.612,0-5.044,1.361-6.407,3.603c-7.489,12.313-18.092,16.707-30.37,21.795c-10.733,4.448-22.48,9.315-31.9,20.223
	c-0.13-9.803,3.391-18.305,7.257-27.642c4.704-11.36,9.568-23.107,8.163-37.997c-0.253-2.687-1.93-5.029-4.391-6.136
	s-5.327-0.807-7.504,0.787c-11.631,8.51-23.109,8.512-36.398,8.514c-11.618,0.002-24.334,0.003-37.211,6.476
	c3.631-9.106,10.137-15.614,17.283-22.761c8.693-8.695,17.683-17.688,22.083-31.981c0.794-2.579,0.142-5.386-1.709-7.35
	c-1.85-1.964-4.613-2.784-7.234-2.145c-3.314,0.808-6.504,1.2-9.754,1.2c-9.591,0-18.111-3.527-27.131-7.263
	c-9.979-4.132-20.297-8.403-32.872-8.403c-1.331,0-2.657,0.048-3.983,0.144c6.839-7.021,15.34-10.544,24.676-14.412
	c11.359-4.707,23.104-9.573,32.64-21.097c1.72-2.078,2.191-4.921,1.234-7.443c-0.958-2.522-3.197-4.336-5.863-4.75
	c-14.242-2.206-22.359-10.32-31.758-19.717c-8.216-8.214-17.209-17.204-30.891-21.733c9.007-3.871,18.209-3.872,28.316-3.873
	c12.295-0.002,25.009-0.003,38.229-6.999c2.385-1.262,3.908-3.708,3.988-6.405s-1.294-5.229-3.599-6.632
	c-12.314-7.489-16.708-18.092-21.795-30.369c-4.448-10.734-9.316-22.483-20.226-31.903c9.768-0.137,18.463,3.457,27.644,7.26
	c9.979,4.133,20.299,8.406,32.875,8.405c1.703,0,3.427-0.081,5.124-0.241c2.687-0.253,5.03-1.931,6.136-4.392
	s0.806-5.326-0.788-7.504c-8.51-11.632-8.512-23.109-8.514-36.399c-0.002-11.617-0.003-24.334-6.475-37.21
	c9.106,3.631,15.614,10.138,22.761,17.283c8.695,8.692,17.687,17.682,31.98,22.082c2.578,0.794,5.385,0.143,7.349-1.709
	c1.964-1.85,2.783-4.612,2.145-7.234c-3.412-14.003,0.979-24.606,6.063-36.886c4.444-10.734,9.31-22.483,8.258-36.856
	c7.023,6.84,10.546,15.341,14.415,24.678c4.707,11.359,9.574,23.104,21.096,32.641c2.079,1.72,4.923,2.191,7.444,1.233
	c2.522-0.958,4.336-3.197,4.75-5.863c2.207-14.242,10.321-22.359,19.717-31.758c8.214-8.216,17.205-17.209,21.734-30.891
	c3.871,9.007,3.872,18.209,3.873,28.316c0.002,12.295,0.003,25.009,6.999,38.228c1.262,2.385,3.708,3.908,6.405,3.989
	c2.686,0.078,5.229-1.294,6.632-3.6c7.489-12.313,18.092-16.707,30.369-21.795c10.732-4.448,22.48-9.315,31.9-20.223
	c0.13,9.802-3.391,18.304-7.257,27.642c-4.704,11.36-9.568,23.107-8.163,37.997c0.253,2.687,1.931,5.03,4.392,6.137
	c2.461,1.104,5.326,0.806,7.504-0.788c11.631-8.51,23.108-8.512,36.398-8.514c11.617-0.002,24.334-0.003,37.21-6.476
	c-3.631,9.106-10.138,15.614-17.282,22.762c-8.693,8.695-17.683,17.687-22.083,31.98c-0.794,2.579-0.142,5.386,1.709,7.35
	c1.85,1.965,4.611,2.785,7.234,2.145c3.313-0.808,6.505-1.2,9.754-1.2c9.591,0,18.11,3.527,27.13,7.263
	c9.979,4.132,20.299,8.405,32.874,8.403c1.33,0,2.657-0.048,3.982-0.145c-6.839,7.022-15.34,10.545-24.676,14.413
	c-11.358,4.707-23.104,9.573-32.641,21.097c-1.72,2.078-2.191,4.921-1.233,7.443s3.197,4.336,5.863,4.75
	c14.242,2.206,22.359,10.32,31.758,19.717c8.216,8.214,17.209,17.204,30.891,21.733c-9.007,3.871-18.209,3.872-28.316,3.873
	C444.474,279.419,431.76,279.419,418.541,286.416z"/>
<path d="M256.001,108.502c-81.332,0-147.5,66.168-147.5,147.5c0,33.57,11.59,66.429,32.634,92.523
	c2.601,3.226,7.323,3.73,10.546,1.13c3.225-2.6,3.73-7.322,1.13-10.546c-19.174-23.776-29.31-52.514-29.31-83.107
	c0-73.061,59.439-132.5,132.5-132.5s132.5,59.44,132.5,132.5s-59.439,132.5-132.5,132.5c-30.592,0-59.33-10.135-83.107-29.31
	c-3.224-2.602-7.945-2.095-10.546,1.13c-2.6,3.225-2.094,7.946,1.13,10.546c26.096,21.045,58.954,32.634,92.523,32.634
	c81.332,0,147.5-66.168,147.5-147.5S337.333,108.502,256.001,108.502z"/>
<g>
</g>
<g>
</g>
<g>
</g>
<g>
</g>
<g>
</g>
<g>
</g>
<g>
</g>
<g>
</g>
<g>
</g>
<g>
</g>
<g>
</g>
<g>
</g>
<g>
</g>
<g>
</g>
<g>
</g>
</svg>
