<?xml version="1.0" encoding="iso-8859-1"?>
<!-- Generator: Adobe Illustrator 19.0.0, SVG Export Plug-In . SVG Version: 6.00 Build 0)  -->
<svg version="1.1" id="Capa_1" xmlns="http://www.w3.org/2000/svg" xmlns:xlink="http://www.w3.org/1999/xlink" x="0px" y="0px"
	 viewBox="0 0 512 512" style="enable-background:new 0 0 512 512;" xml:space="preserve">
<path style="fill:#55606E;" d="M7.515,256c0,137.235,111.25,248.485,248.485,248.485V7.515C118.765,7.515,7.515,118.765,7.515,256z"
	/>
<path style="fill:#D9DCDF;" d="M256,7.515v496.971c137.235,0,248.485-111.25,248.485-248.485S393.235,7.515,256,7.515z"/>
<path style="fill:#68727E;" d="M31.562,256c0,123.954,100.484,224.438,224.438,224.438V31.562
	C132.046,31.562,31.562,132.046,31.562,256z"/>
<path style="fill:#ECEDEF;" d="M256,31.562v448.877c123.954,0,224.438-100.484,224.438-224.438S379.954,31.562,256,31.562z"/>
<path style="fill:#FFD072;" d="M143.781,247.984c0-15.86,7.68-29.922,19.52-38.683c-3.687-0.906-7.538-1.396-11.504-1.396
	c-26.562,0-48.094,21.532-48.094,48.094s21.532,48.094,48.094,48.094c10.702,0,20.584-3.5,28.574-9.411
	C159.366,289.525,143.781,270.579,143.781,247.984z"/>
<circle style="fill:#F9B270;" cx="376.235" cy="256" r="48.094"/>
<circle style="fill:#FFD072;" cx="376.235" cy="256" r="32.063"/>
<g>
	<path style="fill:#C6CACF;" d="M400.282,103.703c-2.828,0-5.539,0.492-8.059,1.388c0.026-0.46,0.043-0.922,0.043-1.388
		c0-13.281-10.766-24.047-24.047-24.047s-24.047,10.766-24.047,24.047c0,0.466,0.017,0.929,0.043,1.388
		c-2.52-0.896-5.231-1.388-8.059-1.388c-13.281,0-24.047,10.766-24.047,24.047h112.219
		C424.329,114.469,413.563,103.703,400.282,103.703z"/>
	<path style="fill:#C6CACF;" d="M368.219,400.282c-2.828,0-5.539,0.492-8.059,1.388c0.026-0.46,0.043-0.922,0.043-1.388
		c0-13.281-10.766-24.047-24.047-24.047s-24.047,10.766-24.047,24.047c0,0.466,0.017,0.929,0.043,1.388
		c-2.52-0.896-5.231-1.388-8.059-1.388c-13.281,0-24.047,10.766-24.047,24.047h112.219
		C392.266,411.048,381.5,400.282,368.219,400.282z"/>
</g>
<path d="M437.02,74.98C388.667,26.629,324.381,0,256,0S123.333,26.629,74.98,74.98C26.629,123.333,0,187.619,0,256
	s26.629,132.667,74.98,181.02C123.333,485.371,187.619,512,256,512s132.667-26.629,181.02-74.98
	C485.371,388.667,512,324.381,512,256S485.371,123.333,437.02,74.98z M263.515,496.842V163.152c0-4.15-3.365-7.515-7.515-7.515
	c-4.15,0-7.515,3.365-7.515,7.515v333.703C119.077,492.872,15.029,386.358,15.029,256S119.077,19.128,248.485,15.145V127.75
	c0,4.15,3.365,7.515,7.515,7.515c4.15,0,7.515-3.365,7.515-7.515V15.158C392.922,19.143,496.971,125.643,496.971,256
	S392.922,492.857,263.515,496.842z"/>
<path d="M187.738,293.204c-0.574-2.857-2.746-5.124-5.576-5.819c-18.174-4.462-30.866-20.664-30.866-39.4
	c0-12.997,6.005-24.895,16.475-32.642c5.02-3.714,3.374-11.852-2.677-13.339c-4.356-1.069-8.829-1.612-13.297-1.612
	c-30.663,0-55.609,24.946-55.609,55.609s24.946,55.609,55.609,55.609c11.993,0,23.42-3.763,33.044-10.885
	C187.182,298.991,188.311,296.06,187.738,293.204z M151.796,296.579c-22.376,0-40.579-18.204-40.579-40.579
	c0-20.613,15.448-37.687,35.377-40.248c-6.619,9.322-10.328,20.595-10.328,32.232c0,19.651,10.194,37.27,26.146,47.198
	C158.989,296.106,155.429,296.579,151.796,296.579z"/>
<path d="M192.877,120.235h-1.002c-4.15,0-7.515,3.365-7.515,7.515c0,4.15,3.365,7.515,7.515,7.515h1.002
	c4.15,0,7.515-3.365,7.515-7.515C200.391,123.599,197.027,120.235,192.877,120.235z"/>
<path d="M232.955,336.658h-1.002c-4.15,0-7.515,3.365-7.515,7.515s3.365,7.515,7.515,7.515h1.002c4.15,0,7.515-3.365,7.515-7.515
	S237.105,336.658,232.955,336.658z"/>
<path d="M96.689,352.689h-1.002c-4.15,0-7.515,3.365-7.515,7.515s3.365,7.515,7.515,7.515h1.002c4.15,0,7.515-3.365,7.515-7.515
	S100.839,352.689,96.689,352.689z"/>
<path d="M208.908,232.454h-1.002c-4.15,0-7.515,3.365-7.515,7.515s3.365,7.515,7.515,7.515h1.002c4.15,0,7.515-3.365,7.515-7.515
	S213.058,232.454,208.908,232.454z"/>
<path d="M184.861,392.767h-1.002c-4.15,0-7.515,3.365-7.515,7.515s3.365,7.515,7.515,7.515h1.002c4.15,0,7.515-3.365,7.515-7.515
	S189.011,392.767,184.861,392.767z"/>
<path d="M95.687,175.342h1.002c4.15,0,7.515-3.365,7.515-7.515s-3.365-7.515-7.515-7.515h-1.002c-4.15,0-7.515,3.365-7.515,7.515
	S91.537,175.342,95.687,175.342z"/>
<path d="M48.595,240.47h-1.002c-4.15,0-7.515,3.365-7.515,7.515s3.365,7.515,7.515,7.515h1.002c4.15,0,7.515-3.365,7.515-7.515
	S52.745,240.47,48.595,240.47z"/>
<path d="M431.843,256c0-30.663-24.946-55.609-55.609-55.609S320.626,225.337,320.626,256s24.946,55.609,55.609,55.609
	S431.843,286.663,431.843,256z M376.235,296.579c-22.376,0-40.579-18.204-40.579-40.579s18.204-40.579,40.579-40.579
	s40.579,18.204,40.579,40.579S398.611,296.579,376.235,296.579z"/>
<path d="M383.75,183.859v-16.031c0-4.15-3.365-7.515-7.515-7.515s-7.515,3.365-7.515,7.515v16.031c0,4.15,3.365,7.515,7.515,7.515
	S383.75,188.009,383.75,183.859z"/>
<path d="M340.171,201.04c5.699,0,9.333-6.367,6.501-11.273l-8.016-13.883c-2.075-3.595-6.671-4.826-10.265-2.75
	c-3.594,2.075-4.825,6.671-2.75,10.265l8.016,13.883C335.048,199.692,337.574,201.04,340.171,201.04z"/>
<path d="M296.118,218.422l13.883,8.016c1.183,0.683,2.476,1.008,3.75,1.008c3.499,0,6.613-2.508,7.352-5.929
	c0.683-3.155-0.793-6.482-3.589-8.095l-13.883-8.016c-3.595-2.076-8.19-0.844-10.265,2.75
	C291.292,211.751,292.523,216.347,296.118,218.422z"/>
<path d="M288.063,263.515h16.031c4.15,0,7.515-3.365,7.515-7.515c0-4.15-3.365-7.515-7.515-7.515h-16.031
	c-4.15,0-7.515,3.365-7.515,7.515C280.548,260.15,283.913,263.515,288.063,263.515z"/>
<path d="M310.001,285.563l-13.883,8.016c-3.269,1.887-4.646,6.057-3.129,9.518c1.772,4.044,6.81,5.713,10.644,3.499l13.883-8.016
	c3.594-2.075,4.825-6.671,2.75-10.265C318.191,284.719,313.595,283.488,310.001,285.563z"/>
<path d="M333.657,314.719l-8.016,13.883c-1.888,3.269-0.995,7.569,2.049,9.807c3.565,2.621,8.758,1.534,10.967-2.292l8.016-13.883
	c2.075-3.594,0.844-8.19-2.75-10.265C340.328,309.892,335.732,311.125,333.657,314.719z"/>
<path d="M368.72,328.141v16.031c0,4.15,3.365,7.515,7.515,7.515s7.515-3.365,7.515-7.515v-16.031c0-4.15-3.365-7.515-7.515-7.515
	S368.72,323.991,368.72,328.141z"/>
<path d="M418.813,314.719c-2.075-3.595-6.671-4.826-10.265-2.75c-3.594,2.075-4.825,6.671-2.75,10.265l8.016,13.883
	c2.208,3.825,7.402,4.914,10.967,2.292c3.044-2.238,3.936-6.538,2.049-9.807L418.813,314.719z"/>
<path d="M456.351,293.578l-13.883-8.016c-3.595-2.076-8.19-0.844-10.265,2.75c-2.075,3.594-0.844,8.19,2.75,10.265l13.883,8.016
	c3.833,2.214,8.871,0.545,10.644-3.499C460.997,299.635,459.621,295.465,456.351,293.578z"/>
<path d="M464.407,248.485h-16.031c-4.15,0-7.515,3.365-7.515,7.515c0,4.15,3.365,7.515,7.515,7.515h16.031
	c4.15,0,7.515-3.365,7.515-7.515C471.922,251.85,468.557,248.485,464.407,248.485z"/>
<path d="M432.203,223.687c2.046,3.544,6.715,4.801,10.265,2.75l13.883-8.016c3.594-2.075,4.825-6.671,2.75-10.265
	c-2.075-3.594-6.671-4.825-10.265-2.75l-13.883,8.016C431.359,215.497,430.128,220.093,432.203,223.687z"/>
<path d="M412.298,201.04c2.597,0,5.123-1.349,6.515-3.758l8.016-13.883c2.075-3.594,0.844-8.19-2.75-10.265
	c-3.594-2.076-8.19-0.844-10.265,2.75l-8.016,13.883C402.965,194.672,406.599,201.04,412.298,201.04z"/>
<path d="M312.11,135.264h112.219c4.15,0,7.515-3.365,7.515-7.515c0-17.403-14.159-31.562-31.562-31.562
	c-0.467,0-0.933,0.01-1.398,0.031c-3.369-13.803-15.84-24.078-30.665-24.078s-27.296,10.275-30.665,24.078
	c-0.465-0.021-0.931-0.031-1.398-0.031c-17.403,0-31.562,14.159-31.562,31.562C304.595,131.9,307.959,135.264,312.11,135.264z
	 M336.157,111.217c2.112,0,3.998,0.531,6.007,1.101c1.701,0.483,3.551,0.346,5.162-0.387c1.485-0.675,2.73-1.839,3.504-3.275
	c0.87-1.613,0.858-3.183,0.858-4.955c0-9.116,7.417-16.532,16.532-16.532s16.532,7.416,16.532,16.532
	c0,2.669,0.308,5.011,2.392,6.925c2.031,1.865,5,2.469,7.599,1.545c1.779-0.633,3.643-0.954,5.54-0.954
	c6.411,0,11.982,3.669,14.724,9.018h-93.573C324.174,114.886,329.745,111.217,336.157,111.217z"/>
<path d="M368.219,392.767c-0.467,0-0.933,0.01-1.398,0.031c-3.369-13.803-15.84-24.078-30.665-24.078s-27.296,10.275-30.665,24.078
	c-0.464-0.021-0.931-0.031-1.398-0.031c-17.403,0-31.562,14.159-31.562,31.562c0,4.15,3.365,7.515,7.515,7.515h112.219
	c4.15,0,7.515-3.365,7.515-7.515C399.781,406.926,385.622,392.767,368.219,392.767z M289.37,416.814
	c2.74-5.348,8.311-9.018,14.724-9.018c1.897,0,3.76,0.321,5.54,0.954c2.371,0.844,5.008,0.444,7.023-1.065
	c2.015-1.509,3.14-3.926,2.999-6.439c-0.018-0.32-0.031-0.641-0.031-0.965c0-9.116,7.417-16.532,16.532-16.532
	s16.532,7.417,16.532,16.532c0,0.325-0.013,0.646-0.031,0.965c-0.141,2.513,0.984,4.93,2.999,6.439
	c2.015,1.509,4.652,1.908,7.023,1.065c1.779-0.633,3.643-0.954,5.54-0.954c6.411,0,11.982,3.669,14.724,9.018H289.37z"/>
<g>
</g>
<g>
</g>
<g>
</g>
<g>
</g>
<g>
</g>
<g>
</g>
<g>
</g>
<g>
</g>
<g>
</g>
<g>
</g>
<g>
</g>
<g>
</g>
<g>
</g>
<g>
</g>
<g>
</g>
</svg>
