<svg height="512pt" viewBox="0 0 512 512" width="512pt" xmlns="http://www.w3.org/2000/svg"><path d="m321.769531 73.269531v55.085938c-16.128906 16.128906-25.171875 25.171875-41.300781 41.300781h-48.9375c-16.128906-16.128906-25.171875-25.171875-41.300781-41.300781v-55.085938c0-36.324219 29.445312-65.769531 65.769531-65.769531s65.769531 29.445312 65.769531 65.769531zm0 0" fill="#ffdaaa"/><path d="m341.71875 366.171875v35.046875l29.207031 29.207031 51.484375-51.484375-46.730468-46.730468zm0 0" fill="#ffe477"/><path d="m170.28125 366.171875v35.046875l-29.207031 29.207031-51.484375-51.484375 46.730468-46.730468zm0 0" fill="#ffe477"/><path d="m170.246094 394.414062h171.507812v42.761719h-171.507812zm0 0" fill="#787680"/><path d="m260.285156 394.414062h51.425782v42.761719h-51.425782zm0 0" fill="#57565c"/><path d="m341.753906 437.175781-75.757812 67.308594h-20l-75.75-67.308594zm0 0" fill="#ff3f62"/><path d="m100.980469 99.773438-25.777344 6.90625-7.785156-29.058594c-1.90625-7.117188 2.316406-14.433594 9.433593-16.339844 7.117188-1.90625 14.433594 2.316406 16.339844 9.433594zm0 0" fill="#e0e0e2"/><path d="m459.71875 101.167969-18.871094-18.867188 21.273438-21.273437c5.210937-5.210938 13.660156-5.210938 18.867187 0 5.210938 5.210937 5.210938 13.660156 0 18.867187zm0 0" fill="#e0e0e2"/><path d="m170.246094 394.414062v-151.039062c-3.273438-1.355469-3.515625-1.457031-6.785156-2.8125l-59.394532 59.394531 32.253906 32.257813-46.730468 46.726562-78.980469-78.980468 117.6875-117.691407h84.542969v-31.300781l18.691406 18.6875h48.9375c7.226562-7.226562 13.03125-13.03125 18.691406-18.6875v31.300781h84.542969l117.691406 117.691407-78.984375 78.984374-46.730468-46.730468 32.253906-32.253906-59.394532-59.398438c-3.273437 1.355469-3.515624 1.457031-6.785156 2.8125v151.039062zm-11.53125 110.070313h87.28125l-75.75-67.308594zm183.039062-67.308594-75.757812 67.308594h87.285156zm0 0" fill="#b87fd9"/><path d="m230.285156 394.414062h51.425782v42.761719h-51.425782zm0 0" fill="#ffe477"/><path d="m220.230469 128.355469v-55.085938c0-31.164062 21.671875-57.265625 50.769531-64.050781-4.820312-1.125-9.839844-1.71875-15-1.71875-36.324219 0-65.769531 29.445312-65.769531 65.769531v55.085938l41.300781 41.300781h30c-16.128906-16.128906-25.171875-25.171875-41.300781-41.300781zm0 0" fill="#fbb984"/><path d="m371.71875 401.21875v-35.046875l18.960938-18.960937-15-15-33.960938 33.960937v35.046875l29.207031 29.207031 15-15zm0 0" fill="#ffb655"/><path d="m119.589844 378.941406 31.730468-31.730468-15-15-46.730468 46.730468 51.484375 51.484375 15-15zm0 0" fill="#ffb655"/><path d="m170.246094 394.414062h30v42.761719h-30zm0 0" fill="#57565c"/><path d="m200.246094 437.175781h-30l75.75 67.308594h20l5-4.441406zm0 0" fill="#c70024"/><g fill="#933ec5"><path d="m242.839844 169.65625h-11.308594l-18.691406-18.691406v36.300781h30zm0 0"/><path d="m40.605469 299.957031 117.691406-117.691406h-30l-117.691406 117.691406 78.984375 78.984375 15-15zm0 0"/><path d="m200.246094 243.375c-3.273438-1.355469-3.515625-1.457031-6.785156-2.8125l-23.214844 23.210938v130.640624h30zm0 0"/><path d="m170.246094 437.175781-11.53125 67.308594h30l7.570312-44.171875zm0 0"/><path d="m341.753906 437.175781-70.757812 62.867188 5 4.441406h20l49.71875-44.175781zm0 0"/></g><path d="m230.285156 394.414062h30v42.761719h-30zm0 0" fill="#ffb655"/><path d="m220.339844 169.070312 8.085937 8.085938h55.148438l8.085937-8.085938v20.695313h39.808594v-15h-24.8125v-20.695313l22.613281-22.609374v-58.191407c0-40.402343-32.871093-73.269531-73.269531-73.269531-40.402344 0-73.269531 32.867188-73.269531 73.269531v58.191407l22.609375 22.609374v20.695313h-75.367188v15h90.367188zm-22.609375-95.800781c0-32.128906 26.140625-58.269531 58.269531-58.269531s58.269531 26.140625 58.269531 58.269531v51.976563l-36.910156 36.910156h-42.722656l-36.910157-36.910156v-51.976563zm0 0"/><path d="m456.554688 355.394531 55.445312-55.433593-120.832031-120.828126-10.605469 10.605469 110.222656 110.222657-44.835937 44.824218zm0 0"/><path d="m343.230469 245.867188 10.605469-10.605469 59.398437 59.398437-10.605469 10.605469zm0 0"/><path d="m334.246094 297.140625v77.269531h15v-5.15625l31.738281-31.738281-10.609375-10.605469-21.128906 21.128906v-50.898437zm0 0"/><path d="m110.25 236.796875-10.609375 10.605469c5.890625 5.890625 13.628906 8.835937 21.363281 8.835937s15.472656-2.945312 21.359375-8.835937c11.78125-11.777344 11.78125-30.945313 0-42.722656l-10.605469 10.605468c5.933594 5.929688 5.933594 15.582032 0 21.511719-5.929687 5.929687-15.578124 5.929687-21.507812 0zm0 0"/><path d="m99.9375 118.445312-14.488281 3.878907 25.78125 96.21875h-102.722657v15h122.269532zm0 0"/><path d="m438.761719 113.859375-10.605469-10.605469-131.3125 131.3125 193.429688 193.433594 10.609374-10.605469-182.828124-182.828125zm0 0"/><path d="m307.449219 218.089844v-14.996094c-17.355469 0-31.476563 14.117188-31.476563 31.472656 0 17.355469 14.121094 31.476563 31.476563 31.476563v-15c-9.085938 0-16.476563-7.390625-16.476563-16.476563 0-9.082031 7.390625-16.476562 16.476563-16.476562zm0 0"/><path d="m248.199219 229.367188v58.574218l-15.308594 15.308594h-33.84375v15h40.054687l16.675782-16.675781 17.179687 16.675781h39.996094v-15h-33.914063l-15.839843-15.375v-58.507812zm0 0"/><path d="m69.902344 115.867188 40.261718-10.789063-9.726562-36.304687c-2.972656-11.101563-14.421875-17.710938-25.527344-14.738282-11.097656 2.976563-17.710937 14.425782-14.734375 25.527344zm8.890625-47.34375c3.097656-.832032 6.316406.992187 7.15625 4.132812l5.847656 21.816406-11.289063 3.023438-5.847656-21.816406c-.832031-3.113282 1.023438-6.320313 4.132813-7.15625zm0 0"/><path d="m486.292969 85.199219c8.125-8.125 8.125-21.347657 0-29.476563-8.144531-8.144531-21.328125-8.144531-29.472657 0l-26.578124 26.578125 29.476562 29.476563zm-18.867188-18.871094c2.277344-2.277344 5.972657-2.285156 8.261719 0 2.277344 2.28125 2.277344 5.988281 0 8.265625l-15.972656 15.96875-8.261719-8.261719zm0 0"/><path d="m370.925781 419.820312-21.675781-21.675781v-11.230469h-85.75v-52.015624h-15v52.015624h-85.753906v11.230469l-21.671875 21.671875-40.878907-40.875 36.125-36.121094 26.429688 26.429688v5.160156h15v-136.046875l-16.054688-6.644531-68.238281 68.242188 32.257813 32.25-36.121094 36.121093-68.382812-68.371093 48.617187-48.617188-10.605469-10.605469-59.222656 59.222657c141.230469 141.214843.445312.441406 141.074219 141.070312l21.671875-21.671875v17.179687l-12.921875 75.445313h212.351562l-12.925781-75.445313v-17.179687l21.675781 21.671875 56.785157-56.789062-10.605469-10.605469zm-208.171875-167.941406v96.160156c-44.871094-44.867187 17.402344 17.386719-48.082031-48.078124zm171.5 150.035156v27.761719h-45.042968v-27.761719zm-71.109375 95.070313h-14.296875l-58.871094-52.308594h132.042969zm11.070313-95.070313v27.761719h-36.429688v-27.761719zm-96.46875 0h45.039062v27.761719h-45.039062zm-10.136719 95.070313 7.75-45.234375 49.886719 44.332031 1.019531.902344zm118.121094 0 50.910156-45.234375 7.746094 45.234375zm0 0"/><path d="m304.269531 118h-15v-44.730469c0-3.855469-.65625-7.636719-1.949219-11.230469l14.109376-5.082031c1.882812 5.230469 2.839843 10.71875 2.839843 16.3125zm-20.621093-63.214844c-2.292969-3.414062-5.160157-6.347656-8.519532-8.722656l8.648438-12.253906c4.859375 3.429687 9.007812 7.675781 12.324218 12.613281zm-15.691407-12.5625c-3.8125-1.476562-7.835937-2.222656-11.957031-2.222656v-15c5.980469 0 11.820312 1.085938 17.367188 3.230469zm0 0" fill="#fff"/><path d="m460.734375 305.261719-57.335937-57.339844 10.605468-10.605469 57.335938 57.339844zm-64.40625-64.410157-10.609375-10.605468 10.609375-10.605469 10.605469 10.605469zm-17.679687-17.675781-10.605469-10.605469 10.605469-10.605468 10.605468 10.605468zm0 0" fill="#fff"/></svg>