<svg height="512pt" viewBox="0 -90 512.003 512" width="512pt" xmlns="http://www.w3.org/2000/svg"><path d="m504.492188 126.976562h-496.980469v-91.421874c0-15.488282 12.554687-28.042969 28.042969-28.042969h440.894531c15.488281 0 28.042969 12.554687 28.042969 28.042969zm0 0" fill="#ff7a7a"/><path d="m504.496094 35.554688v91.421874h-34.058594v-91.421874c0-15.492188-12.554688-28.046876-28.042969-28.046876h34.054688c15.492187 0 28.046875 12.554688 28.046875 28.046876zm0 0" fill="#ff5757"/><g fill="#ededed"><path d="m239.765625 166.097656h-45.6875c-8.988281 0-16.277344-7.289062-16.277344-16.277344v-22.84375c0-21.601562 17.515625-39.117187 39.121094-39.117187s39.121094 17.511719 39.121094 39.117187v22.84375c0 8.988282-7.289063 16.277344-16.277344 16.277344zm0 0"/><path d="m161.523438 166.097656h-35.351563c-8.988281 0-16.277344-7.289062-16.277344-16.277344v-28.007812c0-18.753906 15.203125-33.953125 33.953125-33.953125 18.753906 0 33.957032 15.199219 33.957032 33.953125v28.007812c-.003907 8.988282-7.289063 16.277344-16.28125 16.277344zm0 0"/><path d="m92.734375 166.097656h-21.722656c-8.992188 0-16.28125-7.289062-16.28125-16.277344v-34.820312c0-14.992188 12.152343-27.140625 27.140625-27.140625 14.988281 0 27.140625 12.148437 27.140625 27.140625v34.820312c0 8.988282-7.289063 16.277344-16.277344 16.277344zm0 0"/><path d="m38.308594 166.097656h-14.519532c-8.992187 0-16.277343-7.289062-16.277343-16.277344v-38.421874c0-13 10.535156-23.539063 23.535156-23.539063s23.539063 10.539063 23.539063 23.539063v38.421874c0 8.988282-7.289063 16.277344-16.277344 16.277344zm0 0"/><path d="m272.234375 166.097656h45.6875c8.988281 0 16.277344-7.289062 16.277344-16.277344v-22.84375c0-21.601562-17.515625-39.117187-39.121094-39.117187s-39.121094 17.511719-39.121094 39.117187v22.84375c0 8.988282 7.289063 16.277344 16.277344 16.277344zm0 0"/><path d="m350.476562 166.097656h35.351563c8.988281 0 16.277344-7.289062 16.277344-16.277344v-28.007812c0-18.753906-15.203125-33.953125-33.953125-33.953125-18.753906 0-33.953125 15.199219-33.953125 33.953125v28.007812c0 8.988282 7.285156 16.277344 16.277343 16.277344zm0 0"/><path d="m419.265625 166.097656h21.722656c8.992188 0 16.28125-7.289062 16.28125-16.277344v-34.820312c0-14.992188-12.152343-27.140625-27.140625-27.140625-14.988281 0-27.140625 12.148437-27.140625 27.140625v34.820312c0 8.988282 7.289063 16.277344 16.277344 16.277344zm0 0"/><path d="m473.691406 166.097656h14.519532c8.992187 0 16.277343-7.289062 16.277343-16.277344v-38.421874c0-13-10.535156-23.539063-23.535156-23.539063s-23.539063 10.539063-23.539063 23.539063v38.421874c0 8.988282 7.289063 16.277344 16.277344 16.277344zm0 0"/></g><path d="m256.039062 126.976562v22.847657c0 8.984375-7.285156 16.273437-16.273437 16.273437h-18.515625c8.996094 0 16.285156-7.289062 16.285156-16.273437v-22.847657c0-10.796874-4.382812-20.578124-11.460937-27.652343-4.996094-4.996094-11.316407-8.644531-18.402344-10.355469 2.964844-.722656 6.058594-1.105469 9.246094-1.105469 10.804687 0 20.585937 4.375 27.664062 11.460938 7.074219 7.074219 11.457031 16.855469 11.457031 27.652343zm0 0" fill="#d6d4d4"/><path d="m177.804688 121.808594v28.015625c0 8.984375-7.285157 16.273437-16.28125 16.273437h-18.507813c8.988281 0 16.273437-7.289062 16.273437-16.273437v-28.015625c0-9.367188-3.800781-17.859375-9.941406-24.003906-4.050781-4.039063-9.105468-7.066407-14.753906-8.664063 2.945312-.835937 6.050781-1.277344 9.257812-1.277344 9.378907 0 17.863282 3.800781 24.003907 9.941407 6.152343 6.144531 9.949219 14.636718 9.949219 24.003906zm0 0" fill="#d6d4d4"/><path d="m109.011719 114.996094v34.828125c0 8.984375-7.289063 16.273437-16.277344 16.273437h-18.515625c8.996094 0 16.285156-7.289062 16.285156-16.273437v-34.828125c0-7.5-3.035156-14.277344-7.949218-19.191406-2.785157-2.773438-6.164063-4.957032-9.933594-6.320313 2.886718-1.046875 6-1.621094 9.25-1.621094 7.488281 0 14.28125 3.039063 19.1875 7.941407 4.914062 4.914062 7.953125 11.691406 7.953125 19.191406zm0 0" fill="#d6d4d4"/><path d="m54.589844 111.394531v38.429688c0 8.984375-7.289063 16.273437-16.285156 16.273437h-14.515626c-.671874 0-1.335937-.039062-1.988281-.121094 8.039063-.984374 14.273438-7.839843 14.273438-16.152343v-38.429688c0-6.492187-2.636719-12.382812-6.898438-16.636719-2.101562-2.109374-4.601562-3.816406-7.386719-5.003906 2.84375-1.21875 5.972657-1.890625 9.257813-1.890625 6.503906 0 12.382813 2.632813 16.644531 6.894531 4.261719 4.253907 6.898438 10.144532 6.898438 16.636719zm0 0" fill="#d6d4d4"/><path d="m334.195312 126.976562v22.847657c0 8.984375-7.289062 16.273437-16.273437 16.273437h-18.515625c8.996094 0 16.28125-7.289062 16.28125-16.273437v-22.847657c0-18.414062-12.722656-33.855468-29.863281-38.007812 2.964843-.722656 6.070312-1.105469 9.257812-1.105469 21.601563 0 39.113281 17.511719 39.113281 39.113281zm0 0" fill="#d6d4d4"/><path d="m402.105469 121.808594v28.015625c0 8.984375-7.289063 16.273437-16.273438 16.273437h-18.515625c8.984375 0 16.273438-7.289062 16.273438-16.273437v-28.015625c0-15.539063-10.445313-28.636719-24.699219-32.667969 2.945313-.835937 6.050781-1.277344 9.257813-1.277344 18.757812 0 33.957031 15.199219 33.957031 33.945313zm0 0" fill="#d6d4d4"/><path d="m457.269531 114.996094v34.828125c0 8.984375-7.285156 16.273437-16.28125 16.273437h-18.507812c8.988281 0 16.273437-7.289062 16.273437-16.273437v-34.828125c0-11.734375-7.445312-21.722656-17.882812-25.503906 2.886718-1.054688 6.011718-1.628907 9.261718-1.628907 14.984376 0 27.136719 12.144531 27.136719 27.132813zm0 0" fill="#d6d4d4"/><path d="m504.496094 111.394531v38.429688c0 8.984375-7.289063 16.273437-16.285156 16.273437h-14.515626c-.671874 0-1.335937-.039062-1.988281-.121094 8.039063-.984374 14.273438-7.839843 14.273438-16.152343v-38.429688c0-9.710937-5.878907-18.050781-14.285157-21.640625 2.84375-1.21875 5.972657-1.890625 9.257813-1.890625 12.996094 0 23.542969 10.535157 23.542969 23.53125zm0 0" fill="#d6d4d4"/><path d="m444.789062 324.683594h-377.492187c-15.488281 0-28.042969-12.554688-28.042969-28.042969v-91.421875h433.578125v91.421875c0 15.488281-12.554687 28.042969-28.042969 28.042969zm0 0" fill="#ff7a7a"/><path d="m472.832031 205.21875v91.425781c0 15.488281-12.554687 28.042969-28.046875 28.042969h-34.046875c15.480469 0 28.035157-12.554688 28.035157-28.042969v-91.425781zm0 0" fill="#ff5757"/><path d="m239.765625 166.097656h-35.355469c-8.988281 0-16.277344 7.289063-16.277344 16.277344v28.007812c0 18.753907 15.203126 33.957032 33.957032 33.957032 18.75 0 33.953125-15.203125 33.953125-33.957032v-28.007812c0-8.988281-7.289063-16.277344-16.277344-16.277344zm0 0" fill="#ededed"/><path d="m172.109375 166.097656h-21.726563c-8.988281 0-16.277343 7.289063-16.277343 16.277344v34.824219c0 14.988281 12.152343 27.140625 27.140625 27.140625 14.988281 0 27.140625-12.152344 27.140625-27.140625v-34.824219c0-8.988281-7.289063-16.277344-16.277344-16.277344zm0 0" fill="#ededed"/><path d="m117.679688 166.097656h-14.519532c-8.988281 0-16.277344 7.289063-16.277344 16.277344v38.425781c0 13 10.539063 23.535157 23.539063 23.535157 12.996094 0 23.535156-10.535157 23.535156-23.535157v-38.425781c0-8.988281-7.285156-16.277344-16.277343-16.277344zm0 0" fill="#ededed"/><path d="m70.050781 166.097656h-14.523437c-8.988282 0-16.277344 7.289063-16.277344 16.277344v38.425781c0 13 10.539062 23.535157 23.539062 23.535157 12.996094 0 23.535157-10.535157 23.535157-23.535157v-38.425781c0-8.988281-7.285157-16.277344-16.273438-16.277344zm0 0" fill="#ededed"/><path d="m272.320312 166.097656h35.351563c8.988281 0 16.277344 7.289063 16.277344 16.277344v28.007812c0 18.753907-15.203125 33.957032-33.953125 33.957032-18.753906 0-33.953125-15.203125-33.953125-33.957032v-28.007812c0-8.988281 7.285156-16.277344 16.277343-16.277344zm0 0" fill="#ededed"/><path d="m339.976562 166.097656h21.722657c8.992187 0 16.277343 7.289063 16.277343 16.277344v34.824219c0 14.988281-12.148437 27.140625-27.136718 27.140625-14.992188 0-27.140625-12.152344-27.140625-27.140625v-34.824219c0-8.988281 7.285156-16.277344 16.277343-16.277344zm0 0" fill="#ededed"/><path d="m394.402344 166.097656h14.519531c8.988281 0 16.277344 7.289063 16.277344 16.277344v38.425781c0 13-10.539063 23.535157-23.535157 23.535157-13 0-23.539062-10.535157-23.539062-23.535157v-38.425781c0-8.988281 7.289062-16.277344 16.277344-16.277344zm0 0" fill="#ededed"/><path d="m442.035156 166.097656h14.519532c8.988281 0 16.277343 7.289063 16.277343 16.277344v38.425781c0 13-10.539062 23.535157-23.535156 23.535157-13 0-23.539063-10.535157-23.539063-23.535157v-38.425781c0-8.988281 7.289063-16.277344 16.277344-16.277344zm0 0" fill="#ededed"/><path d="m256.039062 182.371094v28.015625c0 9.367187-3.800781 17.863281-9.941406 24.003906-6.140625 6.144531-14.632812 9.941406-24.011718 9.941406-3.207032 0-6.3125-.441406-9.25-1.277343 5.648437-1.597657 10.707031-4.621094 14.746093-8.664063 6.152344-6.140625 9.953125-14.636719 9.953125-24.003906v-28.015625c0-8.984375-7.289062-16.273438-16.285156-16.273438h18.515625c8.988281 0 16.273437 7.289063 16.273437 16.273438zm0 0" fill="#d6d4d4"/><path d="m188.382812 182.371094v34.832031c0 7.5-3.039062 14.273437-7.941406 19.1875-4.917968 4.90625-11.691406 7.941406-19.191406 7.941406-3.246094 0-6.363281-.574219-9.257812-1.617187 3.769531-1.367188 7.148437-3.546875 9.933593-6.324219 4.914063-4.914063 7.949219-11.6875 7.949219-19.1875v-34.832031c0-8.984375-7.289062-16.273438-16.273438-16.273438h18.503907c8.988281 0 16.277343 7.289063 16.277343 16.273438zm0 0" fill="#d6d4d4"/><path d="m133.960938 182.371094v38.429687c0 6.496094-2.636719 12.382813-6.898438 16.636719-4.25 4.261719-10.140625 6.894531-16.644531 6.894531-3.289063 0-6.414063-.671875-9.25-1.886719 2.773437-1.199218 5.277343-2.90625 7.378906-5.007812 4.261719-4.253906 6.894531-10.144531 6.894531-16.636719v-38.429687c0-8.3125-6.230468-15.167969-14.273437-16.152344.652343-.078125 1.316406-.121094 1.992187-.121094h14.523438c8.988281 0 16.277344 7.289063 16.277344 16.273438zm0 0" fill="#d6d4d4"/><path d="m86.324219 182.371094v38.429687c0 6.496094-2.636719 12.382813-6.898438 16.636719-4.25 4.261719-10.128906 6.894531-16.636719 6.894531-3.285156 0-6.410156-.671875-9.257812-1.886719 2.777344-1.1875 5.277344-2.898437 7.390625-5.007812 4.261719-4.253906 6.894531-10.144531 6.894531-16.636719v-38.429687c0-8.3125-6.230468-15.167969-14.285156-16.152344.65625-.078125 1.328125-.121094 2-.121094h14.515625c8.988281 0 16.277344 7.289063 16.277344 16.273438zm0 0" fill="#d6d4d4"/><path d="m323.953125 182.371094v28.015625c0 18.746093-15.210937 33.945312-33.957031 33.945312-3.207032 0-6.3125-.441406-9.257813-1.277343 14.253907-4.027344 24.699219-17.128907 24.699219-32.667969v-28.015625c0-8.984375-7.289062-16.273438-16.277344-16.273438h18.507813c8.996093 0 16.285156 7.289063 16.285156 16.273438zm0 0" fill="#d6d4d4"/><path d="m377.980469 182.371094v34.832031c0 14.988281-12.152344 27.128906-27.140625 27.128906-3.246094 0-6.371094-.570312-9.257813-1.628906 10.433594-3.777344 17.882813-13.769531 17.882813-25.5v-34.832031c0-8.984375-7.289063-16.273438-16.273438-16.273438h18.503906c8.996094 0 16.285157 7.289063 16.285157 16.273438zm0 0" fill="#d6d4d4"/><path d="m425.203125 182.371094v38.429687c0 12.996094-10.542969 23.53125-23.539063 23.53125-3.289062 0-6.414062-.671875-9.257812-1.886719 8.402344-3.589843 14.28125-11.933593 14.28125-21.644531v-38.429687c0-8.3125-6.230469-15.167969-14.273438-16.152344.652344-.078125 1.316407-.121094 1.992188-.121094h14.515625c8.996094 0 16.28125 7.289063 16.28125 16.273438zm0 0" fill="#d6d4d4"/><path d="m472.832031 182.371094v38.429687c0 12.996094-10.535156 23.53125-23.53125 23.53125-3.289062 0-6.414062-.671875-9.261719-1.886719 8.40625-3.601562 14.285157-11.933593 14.285157-21.644531v-38.429687c0-8.3125-6.230469-15.167969-14.285157-16.152344.65625-.078125 1.320313-.121094 1.992188-.121094h14.523438c8.988281 0 16.277343 7.289063 16.277343 16.273438zm0 0" fill="#d6d4d4"/><path d="m476.449219 0h-339.265625c-4.148438 0-7.511719 3.363281-7.511719 7.511719 0 4.148437 3.363281 7.511719 7.511719 7.511719h339.265625c11.320312 0 20.53125 9.210937 20.53125 20.53125v49.261718c-4.679688-2.835937-10.167969-4.46875-16.027344-4.46875-9.984375 0-18.878906 4.742188-24.5625 12.089844-6.359375-7.394531-15.769531-12.089844-26.261719-12.089844-12.277344 0-23.070312 6.421875-29.230468 16.078125-7.589844-9.769531-19.441407-16.078125-32.746094-16.078125-14.8125 0-27.828125 7.8125-35.164063 19.53125-8.46875-11.8125-22.300781-19.53125-37.910156-19.53125-16.347656 0-30.75 8.464844-39.078125 21.238282-8.324219-12.773438-22.726562-21.238282-39.078125-21.238282-15.609375 0-29.441406 7.71875-37.910156 19.53125-7.332031-11.714844-20.351563-19.53125-35.160157-19.53125-13.304687 0-25.15625 6.304688-32.75 16.078125-6.15625-9.65625-16.953124-16.078125-29.226562-16.078125-10.492188 0-19.90625 4.695313-26.265625 12.089844-5.683594-7.347656-14.574219-12.089844-24.558594-12.089844-5.863281 0-11.347656 1.632813-16.03125 4.46875v-49.261718c0-11.320313 9.210938-20.53125 20.535157-20.53125h66.417968c4.144532 0 7.507813-3.363282 7.507813-7.511719 0-4.148438-3.363281-7.511719-7.507813-7.511719h-66.417968c-19.605469 0-35.554688 15.953125-35.554688 35.554688v114.265624c0 13.117188 10.671875 23.789063 23.789062 23.789063h9.636719c-1.082031 2.714844-1.683593 5.671875-1.683593 8.765625v114.265625c0 19.605469 15.949218 35.554687 35.554687 35.554687h377.492187c19.605469 0 35.554688-15.949218 35.554688-35.554687v-5.003906c0-4.148438-3.363281-7.511719-7.511719-7.511719-4.148437 0-7.507812 3.363281-7.507812 7.511719v5.003906c0 11.324219-9.210938 20.535156-20.535157 20.535156h-377.492187c-11.324219 0-20.535156-9.210937-20.535156-20.535156v-49.257813c4.683593 2.832032 10.167969 4.464844 16.027343 4.464844 9.558594 0 18.117188-4.34375 23.816407-11.15625 5.699219 6.8125 14.257812 11.15625 23.816406 11.15625 9.984375 0 18.878906-4.742187 24.5625-12.085937 6.359375 7.390625 15.769531 12.085937 26.261719 12.085937 11.9375 0 22.484375-6.066406 28.71875-15.28125 7.609375 9.320313 19.183594 15.28125 32.125 15.28125 14.03125 0 26.449218-7.011718 33.953125-17.707031 7.507812 10.695313 19.925781 17.707031 33.953125 17.707031 12.945312 0 24.515625-5.960937 32.125-15.28125 6.234375 9.214844 16.78125 15.28125 28.71875 15.28125 10.492187 0 19.90625-4.695312 26.265625-12.085937 5.679687 7.34375 14.574219 12.085937 24.558593 12.085937 9.558594 0 18.117188-4.34375 23.816407-11.15625 5.699219 6.8125 14.257812 11.15625 23.816406 11.15625 5.859375 0 11.347656-1.632812 16.027344-4.464844v9.332032c0 4.148437 3.363281 7.511718 7.511719 7.511718 4.148437 0 7.507812-3.363281 7.507812-7.511718v-74.335938c0-3.097656-.601562-6.054687-1.679688-8.769531h9.550782c13.117187 0 23.789062-10.671875 23.789062-23.789063v-114.265624c-.003906-19.601563-15.953125-35.554688-35.554687-35.554688zm-438.140625 158.589844h-14.519532c-4.835937 0-8.769531-3.933594-8.769531-8.769532v-38.425781c0-8.835937 7.191407-16.027343 16.027344-16.027343 8.839844 0 16.027344 7.191406 16.027344 16.027343v38.425781c0 4.835938-3.933594 8.769532-8.765625 8.769532zm40.507812 62.210937c0 8.839844-7.1875 16.027344-16.027344 16.027344-8.839843 0-16.027343-7.1875-16.027343-16.027344v-38.425781c0-4.832031 3.933593-8.765625 8.765625-8.765625h14.519531c4.835937 0 8.769531 3.933594 8.769531 8.765625zm-7.804687-62.210937c-4.835938 0-8.769531-3.933594-8.769531-8.769532v-34.820312c0-10.824219 8.804687-19.632812 19.628906-19.632812 10.824218 0 19.632812 8.808593 19.632812 19.632812v34.820312c0 4.835938-3.933594 8.769532-8.769531 8.769532zm55.4375 62.210937c0 8.839844-7.191407 16.027344-16.027344 16.027344-8.839844 0-16.03125-7.1875-16.03125-16.027344v-38.425781c0-4.832031 3.933594-8.765625 8.769531-8.765625h14.519532c4.835937 0 8.765624 3.933594 8.765624 8.765625v38.425781zm-.277344-62.210937c-4.832031 0-8.765625-3.933594-8.765625-8.769532v-28.007812c0-14.582031 11.859375-26.445312 26.441406-26.445312 14.582032 0 26.445313 11.863281 26.445313 26.445312v28.007812c0 4.835938-3.933594 8.769532-8.769531 8.769532zm54.703125 58.609375c0 10.824219-8.804688 19.628906-19.628906 19.628906-10.824219 0-19.628906-8.804687-19.628906-19.628906v-34.824219c0-4.832031 3.933593-8.765625 8.765624-8.765625h21.726563c4.230469 0 7.769531 3.011719 8.585937 7-.042968.585937-.070312 1.171875-.070312 1.765625v28.007812c0 1.53125.089844 3.039063.25 4.523438zm4.4375-67.378907v-22.84375c0-17.429687 14.179688-31.609374 31.609375-31.609374 16.882813 0 30.714844 13.304687 31.566406 29.976562-.015625.542969-.039062 1.085938-.039062 1.632812v22.84375c0 .328126.011719.65625.023437.980469-.488281 4.375-4.207031 7.789063-8.707031 7.789063h-45.6875c-4.832031 0-8.765625-3.933594-8.765625-8.769532zm63.21875 60.5625c0 14.582032-11.863281 26.445313-26.441406 26.445313-13.363282 0-24.433594-9.960937-26.195313-22.84375v-31.609375c0-.59375-.027343-1.179688-.074219-1.765625.820313-3.988281 4.359376-7 8.589844-7h35.351563c4.835937 0 8.769531 3.933594 8.769531 8.765625zm67.65625-28.007812v31.605469c-1.757812 12.886719-12.832031 22.847656-26.191406 22.847656-14.582032 0-26.445313-11.863281-26.445313-26.445313v-28.007812c0-4.832031 3.933594-8.765625 8.769531-8.765625h35.351563c4.230469 0 7.769531 3.011719 8.589844 7.003906-.042969.582031-.074219 1.167969-.074219 1.761719zm10.5-32.554688c0 4.835938-3.933594 8.769532-8.765625 8.769532h-45.6875c-4.5 0-8.21875-3.414063-8.707031-7.789063.011718-.324219.023437-.652343.023437-.980469v-22.84375c0-.546874-.023437-1.089843-.039062-1.632812.851562-16.671875 14.683593-29.976562 31.566406-29.976562 17.429687 0 31.609375 14.179687 31.609375 31.609374zm43.78125 67.378907c0 10.824219-8.808594 19.628906-19.628906 19.628906-10.824219 0-19.632813-8.804687-19.632813-19.628906v-2.296875c.164063-1.484375.253907-2.992188.253907-4.519532v-28.007812c0-.59375-.03125-1.179688-.074219-1.765625.820312-3.992187 4.359375-7 8.589843-7h21.722657c4.835937 0 8.769531 3.933594 8.769531 8.765625zm-8.769531-58.609375h-11.222657c-4.835937 0-8.769531-3.933594-8.769531-8.769532v-28.007812c0-14.582031 11.863281-26.445312 26.445313-26.445312 14.582031 0 26.445312 11.863281 26.445312 26.445312v28.007812c0 4.835938-3.933594 8.769532-8.769531 8.769532zm55.992187 62.210937c0 8.839844-7.191406 16.027344-16.027344 16.027344-8.839843 0-16.027343-7.1875-16.027343-16.027344v-38.425781c0-4.832031 3.929687-8.765625 8.765625-8.765625h14.519531c4.835937 0 8.769531 3.933594 8.769531 8.765625zm1.574219-62.210937c-4.832031 0-8.769531-3.933594-8.769531-8.769532v-34.820312c0-10.824219 8.808594-19.632812 19.632812-19.632812 10.824219 0 19.628906 8.808593 19.628906 19.632812v34.820312c0 4.835938-3.933593 8.769532-8.769531 8.769532zm46.054687 61.601562v.609375c0 8.839844-7.1875 16.027344-16.027343 16.027344-8.835938 0-16.027344-7.1875-16.027344-16.027344v-38.425781c0-4.832031 3.933594-8.765625 8.769531-8.765625h14.519532c4.832031 0 8.765624 3.933594 8.765624 8.765625zm31.660157-70.371094c0 4.835938-3.933594 8.769532-8.765625 8.769532h-14.519532c-4.835937 0-8.769531-3.933594-8.769531-8.769532v-38.425781c0-8.835937 7.191407-16.027343 16.027344-16.027343 8.839844 0 16.027344 7.191406 16.027344 16.027343zm0 0"/></svg>