<?xml version="1.0" encoding="iso-8859-1"?>
<!-- Generator: Adobe Illustrator 19.0.0, SVG Export Plug-In . SVG Version: 6.00 Build 0)  -->
<svg version="1.1" id="Layer_1" xmlns="http://www.w3.org/2000/svg" xmlns:xlink="http://www.w3.org/1999/xlink" x="0px" y="0px"
	 viewBox="0 0 512 512" style="enable-background:new 0 0 512 512;" xml:space="preserve">
<path style="fill:#FA496E;" d="M504.396,419.094H308.579c0-29.037-23.542-52.589-52.579-52.589
	c-29.047,0-52.589,23.552-52.589,52.589H7.604c0-137.186,111.21-248.396,248.396-248.396S504.396,281.908,504.396,419.094z"/>
<path style="fill:#A67EFF;" d="M341.223,419.094h-32.646c0-29.037-23.542-52.589-52.579-52.589
	c-29.047,0-52.589,23.552-52.589,52.589h-32.636c0-47.063,38.162-85.215,85.225-85.215S341.223,372.03,341.223,419.094z"/>
<path style="fill:#52DBFF;" d="M373.849,419.094h-32.626c0-47.063-38.162-85.215-85.225-85.215s-85.225,38.152-85.225,85.215
	h-32.626c0-65.09,52.761-117.851,117.851-117.851S373.849,354.004,373.849,419.094z"/>
<path style="fill:#00DCAB;" d="M406.485,419.094h-32.636c0-65.09-52.761-117.851-117.851-117.851s-117.851,52.761-117.851,117.851
	h-32.636c0-83.116,67.371-150.487,150.487-150.487S406.485,335.977,406.485,419.094z"/>
<path style="fill:#FF8522;" d="M471.758,419.094h-32.636c0-101.133-81.981-183.124-183.124-183.124
	c-101.133,0-183.124,81.991-183.124,183.124H40.238c0-119.159,96.601-215.76,215.76-215.76S471.758,299.935,471.758,419.094z"/>
<path style="fill:#FFDD00;" d="M439.122,419.094h-32.636c0-83.116-67.371-150.487-150.487-150.487s-150.487,67.371-150.487,150.487
	H72.874c0-101.133,81.991-183.124,183.124-183.124C357.141,235.97,439.122,317.961,439.122,419.094z"/>
<path d="M504.396,426.699c-4.2,0-7.604-3.405-7.604-7.604c0-64.317-25.046-124.786-70.527-170.266
	c-45.479-45.48-105.947-70.526-170.266-70.526s-124.786,25.046-170.266,70.526c-45.479,45.479-70.525,105.947-70.525,170.266
	c0,4.199-3.404,7.604-7.604,7.604S0,423.294,0,419.095c0-68.38,26.629-132.668,74.98-181.019
	c48.352-48.352,112.64-74.981,181.02-74.981s132.668,26.629,181.019,74.981C485.371,286.427,512,350.714,512,419.095
	C512,423.294,508.596,426.699,504.396,426.699z"/>
<path d="M308.578,426.699c-4.2,0-7.604-3.405-7.604-7.604c0-24.805-20.175-44.985-44.974-44.985
	c-24.805,0-44.985,20.18-44.985,44.985c0,4.199-3.404,7.604-7.604,7.604c-4.2,0-7.604-3.405-7.604-7.604
	c0-33.191,27.003-60.193,60.193-60.193c33.184,0,60.182,27.002,60.182,60.193C316.182,423.294,312.778,426.699,308.578,426.699z"/>
<path d="M471.758,426.699c-4.2,0-7.604-3.405-7.604-7.604c0-114.778-93.379-208.158-208.157-208.158S47.84,304.317,47.84,419.095
	c0,4.199-3.404,7.604-7.604,7.604s-7.604-3.405-7.604-7.604c0-59.664,23.234-115.755,65.421-157.943s98.281-65.422,157.943-65.422
	s115.755,23.235,157.942,65.422s65.421,98.281,65.421,157.943C479.362,423.295,475.957,426.699,471.758,426.699z"/>
<path d="M72.87,426.699c-4.2,0-7.604-3.405-7.604-7.604c0-105.169,85.562-190.731,190.731-190.731
	c36.636,0,72.221,10.415,102.912,30.121c3.534,2.269,4.559,6.972,2.291,10.507c-2.269,3.533-6.974,4.56-10.507,2.29
	c-28.235-18.128-60.98-27.71-94.696-27.71c-96.783,0-175.523,78.74-175.523,175.523C80.474,423.295,77.071,426.699,72.87,426.699z"
	/>
<path d="M439.123,426.699c-4.2,0-7.604-3.405-7.604-7.604c0-52.332-23.106-101.554-63.393-135.044
	c-3.23-2.685-3.671-7.478-0.988-10.708c2.686-3.23,7.482-3.67,10.708-0.986c43.774,36.388,68.88,89.873,68.88,146.739
	C446.727,423.295,443.323,426.699,439.123,426.699z"/>
<path d="M406.487,426.699c-4.2,0-7.604-3.405-7.604-7.604c0-78.788-64.098-142.888-142.887-142.888s-142.888,64.099-142.888,142.888
	c0,4.199-3.404,7.604-7.604,7.604s-7.604-3.405-7.604-7.604c0-87.174,70.921-158.095,158.095-158.095
	c87.173,0,158.094,70.922,158.094,158.095C414.091,423.295,410.687,426.699,406.487,426.699z"/>
<path d="M138.141,426.699c-4.2,0-7.604-3.405-7.604-7.604c0-20.04,4.586-39.193,13.63-56.927c1.909-3.74,6.489-5.226,10.229-3.318
	c3.741,1.908,5.227,6.488,3.319,10.229c-7.944,15.574-11.972,32.402-11.972,50.018C145.745,423.295,142.341,426.699,138.141,426.699
	z"/>
<path d="M373.852,426.699c-4.2,0-7.604-3.405-7.604-7.604c0-60.793-49.458-110.252-110.251-110.252
	c-35.075,0-67.265,16.124-88.314,44.239c-2.518,3.362-7.283,4.046-10.645,1.529c-3.361-2.516-4.046-7.283-1.53-10.645
	c23.95-31.986,60.577-50.332,100.489-50.332c69.178,0,125.459,56.281,125.459,125.46
	C381.456,423.295,378.053,426.699,373.852,426.699z"/>
<path d="M341.218,426.699c-4.2,0-7.604-3.405-7.604-7.604c0-42.798-34.819-77.617-77.617-77.617
	c-42.799,0-77.618,34.819-77.618,77.617c0,4.199-3.404,7.604-7.604,7.604c-4.2,0-7.604-3.405-7.604-7.604
	c0-51.184,41.641-92.825,92.826-92.825s92.825,41.641,92.825,92.825C348.822,423.295,345.418,426.699,341.218,426.699z"/>
<path d="M256,145.119c-4.2,0-7.604-3.405-7.604-7.604v-44.61c0-4.199,3.404-7.604,7.604-7.604c4.2,0,7.604,3.405,7.604,7.604v44.61
	C263.604,141.715,260.2,145.119,256,145.119z"/>
<path d="M371.199,170.448c-1.033,0-2.082-0.211-3.086-0.658c-3.837-1.707-5.564-6.201-3.858-10.038l18.131-40.759
	c1.708-3.837,6.203-5.564,10.037-3.857c3.837,1.707,5.564,6.201,3.858,10.038l-18.131,40.759
	C376.89,168.766,374.111,170.448,371.199,170.448z"/>
<path d="M458.368,231.983c-1.975,0-3.949-0.764-5.437-2.288c-2.936-3.002-2.882-7.817,0.121-10.753l31.897-31.187
	c3.003-2.936,7.819-2.881,10.752,0.122c2.936,3.002,2.882,7.817-0.121,10.753l-31.897,31.187
	C462.203,231.262,460.284,231.983,458.368,231.983z"/>
<path d="M140.801,170.448c-2.912,0-5.691-1.683-6.951-4.516l-18.131-40.759c-1.707-3.837,0.02-8.331,3.858-10.038
	c3.834-1.707,8.331,0.02,10.037,3.857l18.131,40.759c1.707,3.837-0.02,8.331-3.858,10.038
	C142.883,170.237,141.834,170.448,140.801,170.448z"/>
<path d="M53.631,231.983c-1.917,0-3.835-0.721-5.315-2.168L16.42,198.628c-3.003-2.936-3.058-7.75-0.121-10.753
	c2.934-3.002,7.749-3.058,10.752-0.121l31.896,31.187c3.003,2.936,3.058,7.75,0.121,10.753
	C57.58,231.218,55.607,231.983,53.631,231.983z"/>
<g>
</g>
<g>
</g>
<g>
</g>
<g>
</g>
<g>
</g>
<g>
</g>
<g>
</g>
<g>
</g>
<g>
</g>
<g>
</g>
<g>
</g>
<g>
</g>
<g>
</g>
<g>
</g>
<g>
</g>
</svg>
