<svg height="511pt" viewBox="0 -64 511.998 511" width="511pt" xmlns="http://www.w3.org/2000/svg"><g fill="#ffe477"><path d="m173.300781 22v25.644531l15 15h25v-40.644531zm0 0"/><path d="m504.5 188.660156-15-15h-25v40.644532h40zm0 0"/><path d="m80.070312 352.242188 18.136719 18.136718h21.210938l43.769531-43.769531-28.738281-28.742187zm0 0"/><path d="m206.332031 357.089844 18.132813 18.132812h21.214844l43.769531-43.773437-28.738281-28.738281zm0 0"/></g><path d="m423.148438 173.660156-65.398438-65.398437 7.488281-7.488281-19.625-19.625v-7.78125l-11.378906 11.378906-62.746094-62.746094h-58.1875v40.644531h41.351563l40.453125 40.453125-83.707031 83.710938v46.761718l59.226562 59.226563-9.914062 9.914063 28.738281 28.738281 38.65625-38.652344-52.5-52.5 78.347656-78.347656 52.359375 52.355469h58.1875v-40.644532zm0 0" fill="#ff3f62"/><path d="m211.398438 233.570312v-12.652343l-76.949219 76.949219 28.738281 28.742187 70.625-70.625zm0 0" fill="#ff3f62"/><path d="m157.871094 274.445312h-120.371094v10.390626c5.859375 5.859374 9.140625 9.140624 15 15h79.980469zm0 0" fill="#bddbff"/><path d="m211.398438 190.296875h-113.898438v10.390625l15 15h98.898438zm0 0" fill="#bddbff"/><path d="m292.054688 106.148438h-284.554688v10.390624c5.859375 5.859376 9.140625 9.144532 15 15h244.164062zm0 0" fill="#bddbff"/><path d="m345.613281 47.808594v33.339844c9.765625 9.761718 15.238281 15.238281 25 25h54.621094v-58.339844c0-21.988282-17.824219-39.808594-39.808594-39.808594-21.988281 0-39.8125 17.820312-39.8125 39.808594zm0 0" fill="#ffdaaa"/><path d="m213.300781 22h30v40.644531h-30zm0 0" fill="#c70024"/><path d="m290.710938 302.710938 9.914062-9.914063-59.226562-59.226563v-46.761718l83.707031-83.710938-40.453125-40.453125h-30l40.453125 40.453125-83.707031 83.710938v46.761718l59.226562 59.226563-9.914062 9.914063 28.738281 28.738281 15-15zm0 0" fill="#c70024"/><path d="m368.953125 176.945312 37.359375 37.359376h30l-52.359375-52.359376zm0 0" fill="#c70024"/><path d="m306.292969 209.613281-16.359375 16.355469-58.847656-58.847656 16.359374-16.355469zm0 0" fill="#ffe477"/><path d="m203.300781 47.644531v-25.644531h-30v25.644531l15 15h25v-5zm0 0" fill="#ffb655"/><path d="m464.5 173.660156h20v40.644532h-20zm0 0" fill="#ffb655"/><path d="m110.070312 352.242188 39.378907-39.375-15-15-54.378907 54.375 18.136719 18.136718h21.210938l4.394531-4.394531zm0 0" fill="#ffb655"/><path d="m236.332031 357.089844 39.378907-39.378906-15-15-54.378907 54.378906 18.132813 18.132812h21.214844l4.390624-4.394531zm0 0" fill="#ffb655"/><path d="m164.449219 297.867188 55.621093-55.625-8.671874-8.671876v-12.652343l-76.949219 76.949219 28.738281 28.742187 15-15zm0 0" fill="#c70024"/><path d="m67.5 274.445312h-30v10.390626l15 15h30l-15-15zm0 0" fill="#57a4ff"/><path d="m127.5 190.296875h-30v10.390625l15 15h30l-15-15zm0 0" fill="#57a4ff"/><path d="m37.5 106.148438h-30v10.390624l15 15h30l-15-15zm0 0" fill="#57a4ff"/><path d="m375.613281 47.808594c0-16.679688 10.257813-30.964844 24.8125-36.886719-4.632812-1.886719-9.695312-2.921875-15-2.921875-21.988281 0-39.8125 17.820312-39.8125 39.808594v33.339844l25 25h30l-25-25zm0 0" fill="#fbb984"/><path d="m251.082031 167.121094 6.359375-6.355469-10-10-16.359375 16.355469 58.847657 58.847656 10-10zm0 0" fill="#ffb655"/><path d="m492.605469 166.160156c-6.851563 0-59.058594 0-66.351563 0l-52.511718-52.511718h58.988281v-65.839844c0-26.085938-21.222657-47.308594-47.308594-47.308594s-47.308594 21.222656-47.308594 47.308594v22.453125l-3.882812 3.878906-59.636719-59.640625c-15.667969 0-93.085938 0-108.796875 0v36.253906l19.394531 19.390625h66.351563l32.953125 32.957031-80.601563 80.601563v52.976563l56.121094 56.117187c-7.851563 7.851563-56.398437 56.394531-64.292969 64.292969l25.632813 25.632812h27.425781c10.207031-10.207031 78.105469-78.101562 89.929688-89.925781l-52.5-52.5 67.742187-67.742187 49.25 49.25h108.792969v-36.25zm-286.804688-111.015625h-14.394531l-10.605469-10.605469v-15.039062h25zm147.3125-7.335937c0-17.816406 14.496094-32.308594 32.3125-32.308594 17.8125 0 32.308594 14.492188 32.308594 32.308594v50.839844h-44.011719l-20.605468-20.605469v-30.234375zm-110.542969 319.914062h-15l-10.632812-10.632812 43.773438-43.773438 18.132812 18.132813zm214.429688-160.917968h-47.582031l-55.464844-55.464844-78.347656 78.351562-21.863281-21.863281-10.605469 10.605469 74.363281 74.363281-28.050781 28.046875c-6.730469-6.730469-11.402344-11.40625-18.132813-18.132812l9.914063-9.914063-62.332031-62.332031v-40.550782l76.207031-76.210937 16.859375 16.863281 10.609375-10.605468c-7.027344-7.023438-57.222657-57.222657-64.816407-64.816407h-36.957031v-25.644531h47.582031l65.851563 65.851562 7.488281-7.488281 12.910156 12.910157-7.488281 7.488281 72.898438 72.898437h36.957031zm40 0h-25v-25.644532h14.394531l10.605469 10.605469zm0 0"/><path d="m191.398438 182.796875h-101.398438v21l19.394531 19.390625h82.003907v-15h-75.792969l-10.390625-10.390625h86.183594zm0 0"/><path d="m238.382812 124.039062h-212.777343l-10.390625-10.390624h248.558594v-15h-263.773438v20.996093l19.394531 19.394531h218.988281zm0 0"/><path d="m224.972656 275.429688-10.605468-10.605469-51.179688 51.179687-18.132812-18.136718 51.648437-51.644532-10.605469-10.609375c-5.117187 5.117188-113.8125 113.8125-116.628906 116.628907l25.632812 25.636718h27.425782c1.507812-1.511718 101.058594-101.058594 102.445312-102.449218zm-108.660156 87.449218h-15l-10.632812-10.636718 43.765624-43.769532 18.136719 18.136719zm0 0"/><path d="m104.195312 292.335938h-48.589843l-10.390625-10.390626h84.371094v-15h-99.585938v20.996094l19.394531 19.394532h54.800781zm0 0"/><path d="m256.273438 170.210938 10.609374-10.605469 30.5625 30.5625-10.605468 10.605469zm0 0"/><path d="m239.917969 186.566406 10.605469-10.609375 30.566406 30.566407-10.609375 10.605468zm0 0"/><path d="m407.734375 81.148438h-15v-33.339844c0-4.03125-3.28125-7.308594-7.3125-7.308594v-15c12.304687 0 22.3125 10.007812 22.3125 22.308594zm0 0" fill="#fff"/><path d="m307.769531 183.382812-10.605469-10.605468 15.785157-15.789063 10.609375 10.605469zm22.859375-22.859374-10.605468-10.605469 10.605468-10.605469 10.605469 10.605469zm17.679688-17.675782-10.609375-10.609375 10.605469-10.605469 10.609374 10.605469zm0 0" fill="#fff"/></svg>