<?xml version="1.0" encoding="iso-8859-1"?>
<!-- Generator: Adobe Illustrator 19.0.0, SVG Export Plug-In . SVG Version: 6.00 Build 0)  -->
<svg xmlns="http://www.w3.org/2000/svg" xmlns:xlink="http://www.w3.org/1999/xlink" version="1.1" id="Capa_1" x="0px" y="0px" viewBox="0 0 512.003 512.003" style="enable-background:new 0 0 512.003 512.003;" xml:space="preserve" width="512" height="512">
<g>
	<g>
		<path style="fill:#FF5A59;" d="M196.791,381.002c-110.6,0-167.815-72.42-187.383-103.73c-4.253-6.806-1.084-15.785,6.482-18.461    c16.239-5.743,43.253-17.96,65.351-40.955c44.962-46.787,96.077-46.858,115.55-25.067c19.473-21.79,70.587-21.719,115.55,25.067    c22.099,22.995,49.112,35.212,65.351,40.955c7.566,2.676,10.735,11.655,6.482,18.461    C364.606,308.582,307.391,381.002,196.791,381.002z"/>
	</g>
	<path style="fill:#CE3A4C;" d="M377.692,258.811c-16.239-5.743-43.253-17.96-65.351-40.955   c-30.945-32.201-64.804-42.272-89.256-38.319c19.407,3.03,41.848,14.739,62.842,38.319c20.474,22.995,45.501,35.212,60.546,40.955   c7.01,2.676,9.946,11.655,6.006,18.461c-17.614,30.419-68.156,99.636-164.987,103.549c3.059,0.115,6.155,0.181,9.3,0.181   c110.6,0,167.815-72.42,187.383-103.73C388.427,270.466,385.258,261.487,377.692,258.811z"/>
	<g>
		<path style="fill:#FF8383;" d="M386.043,269.72c-44.332,17.143-121.399,40.064-189.252-17.863    c-67.853,57.927-144.92,35.006-189.252,17.863c0.369-4.757,3.42-9.171,8.349-10.912c16.243-5.743,43.252-17.957,65.35-40.955    c44.967-46.784,96.079-46.852,115.554-25.064c19.475-21.789,70.587-21.72,115.554,25.064    c22.098,22.998,49.107,35.212,65.35,40.955C382.623,260.549,385.674,264.963,386.043,269.72z"/>
	</g>
	<path style="fill:#FF5A59;" d="M349.872,281.648c13.497-3.542,25.73-7.891,36.154-11.922c-0.347-4.549-3.029-8.378-6.898-10.302   c-3.137-1.565-38.262-11.886-66.787-41.568c-22.598-23.51-57.3-43.875-89.251-38.318c19.406,3.031,41.844,14.74,62.837,38.318   c20.474,22.995,45.501,35.212,60.546,40.955c7.01,2.676,9.946,11.655,6.006,18.461   C351.679,278.653,350.809,280.117,349.872,281.648z"/>
	<path style="fill:#CE3A4C;" d="M196.791,251.857c-22.465,19.179-45.94,29.49-68.902,34.088   c17.681,11.248,42.024,18.199,68.902,18.199s51.221-6.951,68.902-18.199C242.731,281.346,219.256,271.036,196.791,251.857z"/>
	<path style="fill:#EBEAE6;" d="M472.578,25.271H330.059c-17.631,0-31.924,14.293-31.924,31.924v61.674   c0,17.631,14.293,31.924,31.924,31.924h9.784c-3.317,12.384-12.062,23.166-24.692,28.615c10.138,4.121,21.83,4.438,32.756-0.04   c12.908-5.29,21.882-16.097,25.337-28.576h99.334c17.631,0,31.924-14.293,31.924-31.924V57.195   C504.502,39.563,490.209,25.271,472.578,25.271z"/>
	<g>
		<path style="fill:#C9C5B5;" d="M472.578,25.271h-22.892c17.631,0,31.924,14.292,31.924,31.924v61.674    c0,17.631-14.293,31.924-31.924,31.924h22.892c17.631,0,31.924-14.292,31.924-31.924V57.194    C504.502,39.563,490.209,25.271,472.578,25.271z"/>
	</g>
	<g>
		<path style="fill:#FFCCAA;" d="M69.29,486.732h85.105V237.704c0-35.917-29.117-65.034-65.034-65.034H80.24    c-6.048,0-10.95,4.902-10.95,10.95V486.732z"/>
		<path style="fill:#F2A077;" d="M89.361,172.671H80.24c-1.567,0-3.055,0.335-4.403,0.928c30.722,5.19,54.128,31.907,54.128,64.105    v249.028h24.43V237.704C154.395,201.787,125.279,172.671,89.361,172.671z"/>
		<path style="fill:#D2F5FF;" d="M77.166,246.292h-3.821c-2.24,0-4.055-1.816-4.055-4.055v-80.552c0-2.24,1.816-4.055,4.055-4.055    h3.818c14.565,0,26.372,11.807,26.372,26.372v35.921C103.535,234.486,91.729,246.292,77.166,246.292z"/>
	</g>
	<g>
		<path d="M380.174,251.734c-14.093-4.992-40.921-16.702-62.427-39.082c-2.384-2.478-4.809-4.86-7.207-7.082    c-3.039-2.816-7.785-2.634-10.599,0.405c-2.814,3.038-2.634,7.783,0.405,10.599c2.188,2.027,4.405,4.207,6.588,6.475    c22.413,23.325,49.384,36.136,68.12,42.786c-30.409,11.034-68.561,20.567-107.592,12.837c-0.1-0.024-0.194-0.063-0.296-0.083    c-24.627-4.934-46.546-16.251-65.505-32.432c-2.454-2.094-5.923-2.356-8.63-0.785c-0.096,0.056-0.182,0.135-0.276,0.195    c-0.284,0.182-0.568,0.364-0.831,0.588l-0.002,0.001c0,0,0,0,0,0c-0.044,0.038-0.089,0.073-0.132,0.111    c-9.435,8.031-19.455,14.742-29.898,20.038v-28.604c0-18.833-7.256-36.232-19.313-49.271c22.652-5.605,40.308,0.061,48.622,9.359    c1.423,1.592,3.457,2.501,5.592,2.501s4.168-0.91,5.591-2.502c12.243-13.699,41.762-17.656,74.491,1.283    c3.587,2.075,8.175,0.852,10.248-2.734c2.075-3.585,0.851-8.174-2.734-10.248c-17.776-10.287-36.29-15.421-53.521-14.819    c-13.451,0.462-25.266,4.417-34.06,11.285c-16.172-12.768-41.63-14.99-67.864-5.65c-6.723-4.383-14.25-7.686-22.358-9.655    c-11.051-19.465-32.555-16.952-33.245-17.119c-6.369,0-11.55,5.182-11.55,11.551v80.55v35.81    c-16.497-3.122-31.509-7.927-43.269-12.205c9.227-3.271,18.265-7.278,26.866-11.912c3.646-1.964,5.01-6.513,3.046-10.159    c-1.964-3.646-6.514-5.009-10.16-3.046c-7.964,4.29-16.336,7.999-24.879,11.021c0,0,0,0-0.001,0    c-6.312,2.388-10.367,6.858-12.27,12.312c-2.009,5.757-1.306,12.025,1.928,17.196c10.775,17.238,29.606,42.016,58.74,63.671    v141.813c0,4.143,3.358,7.5,7.5,7.5s7.5-3.357,7.5-7.5v-232.94h0.37c18.676,0,33.87-15.194,33.87-33.87v-35.519    c4.296,1.742,8.323,3.971,12.006,6.633c0.213,0.18,0.434,0.347,0.664,0.501c14.195,10.578,23.189,27.481,23.189,46.165v40.153    c0,0.012-0.001,0.025-0.001,0.037c0,0.017,0.001,0.033,0.001,0.049v19.997c0,0.026,0,0.052,0,0.079v10.819h-35.049    c-4.142,0-7.5,3.357-7.5,7.5s3.358,7.5,7.5,7.5h35.049v95h-35.049c-4.142,0-7.5,3.357-7.5,7.5s3.358,7.5,7.5,7.5h35.049v52.896    c0,4.143,3.358,7.5,7.5,7.5s7.5-3.357,7.5-7.5v-60.319c0-0.026,0.004-0.051,0.004-0.077s-0.004-0.051-0.004-0.077V316.413    c0-0.026,0.004-0.051,0.004-0.077s-0.004-0.051-0.004-0.077v-8.526c11.15,2.587,22.844,3.91,34.9,3.91    c26.216,0,51.047-6.315,70.344-17.806c9.653,1.75,19.597,2.634,29.823,2.634c1.135,0,2.28-0.011,3.422-0.032    c26.564-0.504,51.339-6.833,70.953-13.408c-23.5,33.26-77.983,90.473-174.542,90.473c-4.053,0-8.117-0.102-12.079-0.302    c-4.141-0.227-7.66,2.974-7.869,7.111c-0.209,4.137,2.975,7.66,7.111,7.869c4.214,0.213,8.533,0.321,12.837,0.321    c114.365,0,173.588-75.007,193.744-107.256C397.007,270.892,392.954,256.546,380.174,251.734z M22.236,283.021    c11.419,3.829,24.932,7.683,39.557,10.265v32.563C44.254,311.308,31.307,295.899,22.236,283.021z M96.033,219.922    c0,10.405-8.465,18.87-18.87,18.87h-0.37v-73.66h0.37c7.634,0,14.469,4.544,17.409,11.568c0.97,2.325,1.461,4.781,1.461,7.302    V219.922z M244.837,288.077c-14.274,5.581-30.781,8.565-48.044,8.565c-12.149,0-23.86-1.468-34.9-4.351v-9.362    c12.207-5.466,23.908-12.619,34.899-21.351C211.917,273.597,228.116,282.383,244.837,288.077z"/>
		<path d="M472.579,17.771H366.838c-4.143,0-7.5,3.357-7.5,7.5s3.357,7.5,7.5,7.5h105.741c13.468,0,24.424,10.956,24.424,24.424    v61.674c0,13.468-10.956,24.424-24.424,24.424h-99.333c-3.371,0-6.328,2.25-7.229,5.499    c-2.986,10.788-10.624,19.403-20.952,23.637c-3.41,1.397-6.956,2.25-10.534,2.559c5.927-6.123,10.274-13.729,12.558-22.254    c0.604-2.252,0.125-4.656-1.294-6.507c-1.42-1.85-3.618-2.934-5.95-2.934h-9.784c-13.468,0-24.424-10.956-24.424-24.424V57.195    c0-13.468,10.956-24.424,24.424-24.424h6.777c4.143,0,7.5-3.357,7.5-7.5s-3.357-7.5-7.5-7.5h-6.777    c-21.738,0-39.424,17.686-39.424,39.424v61.674c0,21.246,16.895,38.621,37.955,39.396c-3.808,6.277-9.481,11.267-16.41,14.256    c-2.774,1.198-4.56,3.944-4.528,6.966c0.032,3.022,1.876,5.73,4.676,6.869c26.264,10.677,55.893-2.169,66.288-28.063h93.962    c21.738,0,39.424-17.686,39.424-39.424V57.195C512.003,35.457,494.318,17.771,472.579,17.771z"/>
	</g>
</g>















</svg>
