<svg height="512" viewBox="0 0 128 128" width="512" xmlns="http://www.w3.org/2000/svg"><g><g><g fill="#df8eef"><path d="m126.25 37.975a16.208 16.208 0 0 0 -16.208-16.208 16.45 16.45 0 0 0 -1.67.086c-5.372-11.589-23.199-20.101-44.372-20.101s-39 8.512-44.372 20.1a16.45 16.45 0 0 0 -1.67-.086 16.2 16.2 0 0 0 -8.023 30.28 16.193 16.193 0 0 0 19.517 24.461 21.843 21.843 0 0 0 22.816 7.782 15.581 15.581 0 0 0 23.464 0 21.843 21.843 0 0 0 22.816-7.782 16.19 16.19 0 0 0 19.517-24.461 16.192 16.192 0 0 0 8.185-14.071z"/><circle cx="9.709" cy="118.292" r="7.959"/><circle cx="28.39" cy="99.611" r="10.995"/></g><path d="m70.276 53.859a23.381 23.381 0 0 1 -22.376-30.146 23.376 23.376 0 1 0 37.235 24.815 23.28 23.28 0 0 1 -14.859 5.331z" fill="#ffe72c"/><path d="m71.19 40.079-6.919 2.461.202-7.341-4.479-5.82 7.044-2.077 4.152-6.058 4.151 6.058 7.045 2.077-4.479 5.82.202 7.341z" fill="#ffe72c"/></g><g><path d="m88.448 7.807c1.511.586 2.973 1.232 4.345 1.918a1.75 1.75 0 1 0 1.566-3.125c-1.469-.736-3.033-1.426-4.645-2.051a1.75 1.75 0 1 0 -1.266 3.263z"/><path d="m128 37.975a17.978 17.978 0 0 0 -18.583-17.947 25.325 25.325 0 0 0 -3.57-5.018 1.75 1.75 0 0 0 -2.6 2.347 21.113 21.113 0 0 1 3.533 5.232 1.755 1.755 0 0 0 1.766 1 14.923 14.923 0 0 1 1.492-.076 14.45 14.45 0 0 1 7.162 27.013 1.751 1.751 0 0 0 -.539 2.56 14.443 14.443 0 0 1 -17.411 21.814 1.744 1.744 0 0 0 -2.085.531 20.088 20.088 0 0 1 -20.991 7.169 1.753 1.753 0 0 0 -1.756.539 13.832 13.832 0 0 1 -20.836 0 1.749 1.749 0 0 0 -1.756-.539 20.088 20.088 0 0 1 -20.991-7.16 1.746 1.746 0 0 0 -2.085-.54 14.44 14.44 0 0 1 -17.408-21.814 1.751 1.751 0 0 0 -.539-2.56 14.45 14.45 0 0 1 7.155-27.009 14.923 14.923 0 0 1 1.492.076 1.75 1.75 0 0 0 1.766-1c5.214-11.242 22.807-19.093 42.784-19.093a74.513 74.513 0 0 1 11.2.837 1.75 1.75 0 0 0 .528-3.46 77.95 77.95 0 0 0 -11.728-.877c-20.666 0-39.077 8.18-45.416 20.028a17.949 17.949 0 0 0 -11.084 32.529 17.762 17.762 0 0 0 -2.5 9.103 17.949 17.949 0 0 0 23.906 16.94 23.59 23.59 0 0 0 22.778 7.624 17.323 17.323 0 0 0 24.632 0 23.59 23.59 0 0 0 22.778-7.624 17.941 17.941 0 0 0 21.406-26.043 18.005 18.005 0 0 0 7.5-14.582z"/><path d="m9.709 108.583a9.709 9.709 0 1 0 9.709 9.709 9.719 9.719 0 0 0 -9.709-9.709zm0 15.918a6.209 6.209 0 1 1 6.209-6.209 6.216 6.216 0 0 1 -6.209 6.208z"/><path d="m28.391 86.866a12.746 12.746 0 0 0 -10.349 20.185 1.75 1.75 0 0 0 2.84-2.046 9.245 9.245 0 1 1 7.509 3.85 1.75 1.75 0 0 0 0 3.5 12.745 12.745 0 0 0 0-25.489z"/><path d="m70.275 52.108a21.631 21.631 0 0 1 -20.7-27.889 1.75 1.75 0 0 0 -2.788-1.856 25.126 25.126 0 1 0 40.023 26.672 1.751 1.751 0 0 0 -2.789-1.857 21.657 21.657 0 0 1 -13.746 4.93zm-7.515 11.274a21.629 21.629 0 0 1 -17.574-34.232q-.036.666-.036 1.334a25.124 25.124 0 0 0 35.987 22.654 21.8 21.8 0 0 1 -18.377 10.244z"/><path d="m72.633 20.255a1.816 1.816 0 0 0 -2.887 0l-3.8 5.545-6.446 1.9a1.75 1.75 0 0 0 -.892 2.746l4.1 5.326-.185 6.719a1.747 1.747 0 0 0 2.335 1.7l6.333-2.251 6.334 2.251a1.749 1.749 0 0 0 2.335-1.7l-.184-6.719 4.1-5.326a1.749 1.749 0 0 0 -.891-2.746l-6.447-1.9zm3.888 13.876a1.741 1.741 0 0 0 -.363 1.116l.132 4.788-4.515-1.6a1.748 1.748 0 0 0 -1.171 0l-4.514 1.6.132-4.788a1.752 1.752 0 0 0 -.363-1.116l-2.921-3.8 4.595-1.354a1.747 1.747 0 0 0 .948-.689l2.708-3.952 2.711 3.956a1.753 1.753 0 0 0 .949.689l4.594 1.354z"/></g></g></svg>