<?xml version="1.0" encoding="iso-8859-1"?>
<!-- Generator: Adobe Illustrator 21.0.0, SVG Export Plug-In . SVG Version: 6.00 Build 0)  -->
<svg version="1.1" id="Capa_1" xmlns="http://www.w3.org/2000/svg" xmlns:xlink="http://www.w3.org/1999/xlink" x="0px" y="0px"
	 viewBox="0 0 512 512" style="enable-background:new 0 0 512 512;" xml:space="preserve">
<rect x="-48.736" y="213.71" transform="matrix(0.7071 -0.7071 0.7071 0.7071 -106.0399 256.0034)" style="fill:#FFB655;" width="609.479" height="84.586"/>
<g>
	<polygon style="fill:#FF7956;" points="40.62,441.582 456.586,25.616 441.581,10.611 10.61,441.582 70.419,501.39 85.423,486.385 	
		"/>
	
		<rect x="413.068" y="22.423" transform="matrix(0.7071 -0.7071 0.7071 0.7071 85.2461 335.2355)" style="fill:#FF7956;" width="68.441" height="84.586"/>
	
		<rect x="375.018" y="79.289" transform="matrix(0.7071 -0.7071 0.7071 0.7071 28.379 311.6778)" style="fill:#FF7956;" width="30.801" height="84.586"/>
	
		<rect x="106.178" y="348.136" transform="matrix(0.7071 -0.7071 0.7071 0.7071 -240.4656 200.3225)" style="fill:#FF7956;" width="30.801" height="84.586"/>
	
		<rect x="30.495" y="404.996" transform="matrix(0.7071 -0.7071 0.7071 0.7071 -297.3259 176.769)" style="fill:#FF7956;" width="68.441" height="84.586"/>
	
		<ellipse transform="matrix(0.7071 -0.7071 0.7071 0.7071 -70.4139 278.3745)" style="fill:#FF7956;" cx="300.821" cy="224.184" rx="13.316" ry="13.316"/>
	
		<ellipse transform="matrix(0.7071 -0.7071 0.7071 0.7071 -108.4129 262.6321)" style="fill:#FF7956;" cx="262.819" cy="262.182" rx="13.316" ry="13.316"/>
	
		<ellipse transform="matrix(0.7071 -0.7071 0.7071 0.7071 -149.0739 245.7881)" style="fill:#FF7956;" cx="222.156" cy="302.842" rx="13.316" ry="13.316"/>
	
		<ellipse transform="matrix(0.7071 -0.7071 0.7071 0.7071 -195.0692 226.745)" style="fill:#FF7956;" cx="176.171" cy="348.842" rx="13.316" ry="13.316"/>
</g>
<g>
	
		<ellipse transform="matrix(0.7071 -0.7071 0.7071 0.7071 -74.215 269.1823)" style="fill:#CD2A00;" cx="287.824" cy="224.177" rx="13.316" ry="13.316"/>
	
		<ellipse transform="matrix(0.7071 -0.7071 0.7071 0.7071 -112.2211 253.4429)" style="fill:#CD2A00;" cx="249.822" cy="262.184" rx="13.316" ry="13.316"/>
	
		<ellipse transform="matrix(0.7071 -0.7071 0.7071 0.7071 -152.8851 236.5918)" style="fill:#CD2A00;" cx="209.149" cy="302.845" rx="13.316" ry="13.316"/>
	
		<ellipse transform="matrix(0.7071 -0.7071 0.7071 0.7071 -198.8803 217.5487)" style="fill:#CD2A00;" cx="163.164" cy="348.844" rx="13.316" ry="13.316"/>
</g>
<g>
	<rect x="170.944" y="38.483" style="fill:#57A4FF;" width="55.969" height="25.661"/>
	<circle style="fill:#57A4FF;" cx="245.399" cy="105.264" r="18.489"/>
	<circle style="fill:#57A4FF;" cx="189.431" cy="105.264" r="18.489"/>
	<rect x="321.772" y="331.944" style="fill:#57A4FF;" width="55.969" height="25.661"/>
	<circle style="fill:#57A4FF;" cx="396.227" cy="398.728" r="18.489"/>
	<circle style="fill:#57A4FF;" cx="340.259" cy="398.728" r="18.489"/>
	<rect x="50.56" y="192.089" style="fill:#57A4FF;" width="47.701" height="25.661"/>
	<circle style="fill:#57A4FF;" cx="116.747" cy="258.873" r="18.489"/>
</g>
<g>
	<polygon style="fill:#FF3F62;" points="423.197,59.005 456.586,25.616 441.581,10.611 393.187,59.005 452.995,118.814 468,103.809 
			"/>
	<polygon style="fill:#FF3F62;" points="369.634,102.564 381.41,90.789 371.407,80.785 349.628,102.564 409.436,162.373 
		419.439,152.369 	"/>
	<polygon style="fill:#FF3F62;" points="100.791,371.407 112.567,359.632 102.564,349.628 80.785,371.407 140.593,431.216 
		150.596,421.212 	"/>
	<polygon style="fill:#FF3F62;" points="40.62,441.582 74.01,408.192 59.005,393.187 10.61,441.582 70.419,501.39 85.423,486.385 	
		"/>
</g>
<g>
	<rect x="170.935" y="38.48" style="fill:#006DF0;" width="20.006" height="25.662"/>
	<path style="fill:#006DF0;" d="M246.913,105.264c0-6.522,3.385-12.243,8.486-15.534c-2.885-1.862-6.314-2.955-10.003-2.955
		c-10.211,0-18.489,8.278-18.489,18.489s8.278,18.489,18.489,18.489c3.689,0,7.118-1.092,10.003-2.955
		C250.298,117.507,246.913,111.786,246.913,105.264z"/>
	<path style="fill:#006DF0;" d="M190.945,105.264c0-6.522,3.385-12.243,8.486-15.534c-2.885-1.862-6.314-2.955-10.003-2.955
		c-10.211,0-18.489,8.278-18.489,18.489s8.278,18.489,18.489,18.489c3.689,0,7.118-1.092,10.003-2.955
		C194.329,117.507,190.945,111.786,190.945,105.264z"/>
	<rect x="321.763" y="331.937" style="fill:#006DF0;" width="20.006" height="25.661"/>
	<path style="fill:#006DF0;" d="M397.742,398.727c0-6.522,3.385-12.243,8.486-15.534c-2.885-1.862-6.314-2.955-10.003-2.955
		c-10.211,0-18.489,8.278-18.489,18.489s8.278,18.489,18.489,18.489c3.689,0,7.118-1.092,10.003-2.955
		C401.127,410.969,397.742,405.248,397.742,398.727z"/>
	<path style="fill:#006DF0;" d="M341.774,398.727c0-6.522,3.385-12.243,8.486-15.534c-2.885-1.862-6.314-2.955-10.003-2.955
		c-10.211,0-18.489,8.278-18.489,18.489s8.278,18.489,18.489,18.489c3.689,0,7.118-1.092,10.003-2.955
		C345.159,410.969,341.774,405.248,341.774,398.727z"/>
	<rect x="50.556" y="192.092" style="fill:#006DF0;" width="20.006" height="25.661"/>
	<path style="fill:#006DF0;" d="M118.265,258.874c0-6.522,3.385-12.243,8.486-15.534c-2.885-1.862-6.314-2.955-10.003-2.955
		c-10.211,0-18.489,8.278-18.489,18.489c0,10.211,8.278,18.489,18.489,18.489c3.689,0,7.118-1.092,10.003-2.955
		C121.65,271.116,118.265,265.396,118.265,258.874z"/>
</g>
<g>
	
		<rect x="315.178" y="195.915" transform="matrix(0.7071 -0.7071 0.7071 0.7071 -46.2982 295.0619)" style="fill:#FFFFFF;" width="35.688" height="15.005"/>
	
		<rect x="350.513" y="170.93" transform="matrix(0.7071 -0.7071 0.7071 0.7071 -21.3103 305.4165)" style="fill:#FFFFFF;" width="15.005" height="15.005"/>
	
		<rect x="368.197" y="153.241" transform="matrix(0.7071 -0.7071 0.7071 0.7071 -3.623 312.7398)" style="fill:#FFFFFF;" width="15.005" height="15.005"/>
</g>
<rect x="439.774" y="47.436" transform="matrix(0.7071 -0.7071 0.7071 0.7071 85.2411 335.2277)" width="15.005" height="34.565"/>
<rect x="59.647" y="452.008" transform="matrix(0.7071 -0.7071 0.7071 0.7071 -302.3908 188.9844)" width="34.565" height="15.005"/>
<path d="M512,70.419L441.581,0.001l-61.334,61.333l10.61,10.61l2.329-2.329l49.198,49.198l-2.329,2.329l10.61,10.61L512,70.419
	L512,70.419L512,70.419z M403.796,59.006l37.785-37.786l49.198,49.199l-37.785,37.785L403.796,59.006z"/>
<path d="M339.018,102.564l70.419,70.419l32.389-32.389l-70.419-70.419L339.018,102.564z M409.436,151.763l-49.199-49.199
	l11.17-11.17l49.199,49.199L409.436,151.763z"/>
<path d="M70.174,371.407l70.419,70.419l32.389-32.389l-70.419-70.419L70.174,371.407z M140.593,420.606l-49.199-49.199l11.17-11.17
	l49.199,49.199L140.593,420.606z"/>
<path d="M287.821,244.998c5.561,0,10.788-2.165,14.721-6.097c3.932-3.932,6.097-9.16,6.097-14.722
	c0-5.561-2.165-10.788-6.097-14.721c-3.932-3.932-9.16-6.097-14.721-6.097c-5.562,0-10.789,2.165-14.722,6.097
	c-3.932,3.932-6.097,9.16-6.097,14.721c0,5.562,2.165,10.789,6.097,14.722C277.032,242.833,282.259,244.998,287.821,244.998z
	 M283.71,220.07c1.097-1.098,2.558-1.703,4.11-1.703s3.013,0.604,4.109,1.703c1.098,1.097,1.703,2.558,1.703,4.109
	c0,1.553-0.604,3.014-1.703,4.11c-1.097,1.098-2.558,1.703-4.109,1.703c-1.553,0-3.014-0.604-4.11-1.703
	c-1.098-1.097-1.703-2.558-1.703-4.11C282.007,222.628,282.612,221.167,283.71,220.07z"/>
<path d="M249.818,283c5.561,0,10.788-2.165,14.721-6.097c3.932-3.932,6.097-9.16,6.097-14.722c0-5.561-2.165-10.788-6.097-14.721
	c-3.932-3.932-9.16-6.097-14.721-6.097c-5.562,0-10.789,2.165-14.722,6.097c-3.932,3.932-6.097,9.16-6.097,14.721
	c0,5.562,2.165,10.789,6.097,14.722C239.029,280.835,244.257,283,249.818,283z M245.708,258.072c1.097-1.098,2.558-1.703,4.11-1.703
	c1.553,0,3.013,0.604,4.109,1.703c1.098,1.097,1.703,2.558,1.703,4.109c0,1.553-0.604,3.014-1.703,4.11
	c-1.097,1.098-2.558,1.703-4.109,1.703c-1.553,0-3.014-0.604-4.11-1.703c-1.098-1.097-1.703-2.558-1.703-4.11
	C244.005,260.63,244.609,259.17,245.708,258.072z"/>
<path d="M209.153,282.029c-5.561,0-10.788,2.165-14.721,6.097c-3.932,3.932-6.097,9.16-6.097,14.722
	c0,5.561,2.165,10.788,6.097,14.721c3.932,3.932,9.16,6.097,14.721,6.097c5.562,0,10.789-2.165,14.722-6.097
	c3.932-3.932,6.097-9.16,6.097-14.721c0-5.562-2.165-10.789-6.097-14.722C219.942,284.194,214.715,282.029,209.153,282.029z
	 M213.263,306.957c-1.097,1.098-2.558,1.703-4.11,1.703c-1.553,0-3.013-0.604-4.109-1.703c-1.098-1.097-1.703-2.558-1.703-4.109
	c0-1.553,0.604-3.014,1.703-4.11c1.097-1.098,2.558-1.703,4.109-1.703c1.553,0,3.014,0.604,4.11,1.703
	c1.098,1.097,1.703,2.558,1.703,4.11C214.966,304.4,214.362,305.86,213.263,306.957z"/>
<path d="M148.442,334.118c-3.932,3.932-6.097,9.16-6.097,14.721c0,5.562,2.165,10.789,6.097,14.722
	c3.932,3.932,9.16,6.097,14.722,6.097c5.561,0,10.787-2.165,14.72-6.097c0,0,0,0,0.001,0c3.932-3.932,6.098-9.16,6.098-14.722
	c0-5.561-2.166-10.788-6.098-14.72c-3.932-3.933-9.16-6.099-14.721-6.099C157.601,328.02,152.373,330.185,148.442,334.118z
	 M168.976,348.838c0,1.553-0.604,3.013-1.703,4.11h-0.001c-1.097,1.098-2.558,1.703-4.109,1.703c-1.553,0-3.014-0.604-4.11-1.703
	c-1.098-1.097-1.703-2.558-1.703-4.11s0.604-3.013,1.703-4.11s2.558-1.703,4.11-1.703c1.553,0,3.012,0.604,4.11,1.704
	C168.371,345.826,168.976,347.286,168.976,348.838z"/>
<path d="M189.427,131.256c14.332,0,25.99-11.659,25.99-25.99s-11.659-25.99-25.99-25.99c-3.924,0-7.647,0.874-10.986,2.438V71.643
	h40.963v33.621c0,14.332,11.659,25.99,25.99,25.99s25.992-11.658,25.992-25.99s-11.66-25.99-25.991-25.99
	c-3.924,0-7.647,0.874-10.986,2.438V30.977h-70.973v74.288C163.436,119.597,175.095,131.256,189.427,131.256z M245.395,94.279
	c6.059,0,10.986,4.929,10.986,10.986c0,6.057-4.929,10.986-10.987,10.986c-6.058,0-10.986-4.929-10.986-10.986
	C234.409,99.207,239.338,94.279,245.395,94.279z M178.441,45.982h40.963v10.656h-40.963V45.982z M189.427,94.279
	c6.058,0,10.986,4.929,10.986,10.986c0,6.057-4.929,10.986-10.986,10.986s-10.986-4.929-10.986-10.986
	C178.441,99.207,183.37,94.279,189.427,94.279z"/>
<path d="M396.225,372.736c-3.924,0-7.647,0.874-10.986,2.438v-50.734h-70.974v74.288c0,14.332,11.66,25.99,25.991,25.99
	c14.332,0,25.99-11.659,25.99-25.99c0-14.332-11.659-25.99-25.99-25.99c-3.924,0-7.648,0.874-10.987,2.438v-10.068h40.964v33.621
	c0,14.332,11.659,25.99,25.99,25.99s25.991-11.659,25.991-25.99C422.216,384.396,410.556,372.736,396.225,372.736z M340.256,387.741
	c6.058,0,10.986,4.929,10.986,10.986c0,6.057-4.929,10.986-10.986,10.986c-6.059,0-10.987-4.929-10.987-10.986
	C329.269,392.669,334.198,387.741,340.256,387.741z M329.269,339.444h40.964v10.656h-40.964V339.444z M396.225,409.713
	c-6.058,0-10.986-4.929-10.986-10.986c0-6.057,4.929-10.986,10.986-10.986c6.059,0,10.987,4.929,10.987,10.986
	C407.211,404.784,402.283,409.713,396.225,409.713z"/>
<path d="M90.756,258.873c0,14.332,11.66,25.991,25.991,25.991s25.99-11.66,25.99-25.991c0-14.332-11.659-25.99-25.99-25.99
	c-3.924,0-7.648,0.874-10.987,2.438v-50.734H43.055v40.667h47.701C90.756,225.254,90.756,258.873,90.756,258.873z M116.747,247.888
	c6.058,0,10.986,4.929,10.986,10.986c0,6.059-4.929,10.987-10.986,10.987c-6.059,0-10.987-4.929-10.987-10.987
	C105.761,252.815,110.688,247.888,116.747,247.888z M58.06,199.59h32.696v10.657H58.06V199.59z"/>
<rect x="131.205" y="278.396" transform="matrix(0.7071 -0.7071 0.7071 0.7071 -118.4233 285.8979)" width="309.386" height="15.005"/>
<rect x="71.4" y="218.587" transform="matrix(0.7071 -0.7071 0.7071 0.7071 -93.6481 226.0923)" width="309.386" height="15.005"/>
<path d="M118.813,442.385l-49.198-49.198l2.329-2.329l-10.61-10.61L0,441.581l0,0l0,0L70.419,512l61.334-61.333l-10.61-10.61
	L118.813,442.385z M108.204,452.995l-37.785,37.786L21.22,441.582l37.785-37.785L108.204,452.995z"/>
<g>
</g>
<g>
</g>
<g>
</g>
<g>
</g>
<g>
</g>
<g>
</g>
<g>
</g>
<g>
</g>
<g>
</g>
<g>
</g>
<g>
</g>
<g>
</g>
<g>
</g>
<g>
</g>
<g>
</g>
</svg>
