<?xml version="1.0" encoding="iso-8859-1"?>
<!-- Generator: Adobe Illustrator 19.0.0, SVG Export Plug-In . SVG Version: 6.00 Build 0)  -->
<svg version="1.1" id="Capa_1" xmlns="http://www.w3.org/2000/svg" xmlns:xlink="http://www.w3.org/1999/xlink" x="0px" y="0px"
	 viewBox="0 0 512 512" style="enable-background:new 0 0 512 512;" xml:space="preserve">
<path style="fill:#F23466;" d="M261.541,385.705c0,64.912,52.622,117.534,117.534,117.534s117.534-52.622,117.534-117.534
	c-32.568-32.568-85.369-32.568-117.937,0h0.805C346.911,353.138,294.109,353.138,261.541,385.705z"/>
<path style="opacity:0.1;enable-background:new    ;" d="M478.252,371.841c-2.317,62.871-54.006,113.131-117.443,113.131
	c-27.803,0-53.346-9.659-73.47-25.798c21.54,26.861,54.627,44.064,91.736,44.064c64.912,0,117.534-52.622,117.534-117.534
	C491.022,380.117,484.828,375.512,478.252,371.841z"/>
<path style="fill:#F9C5B5;" d="M186.529,235.036c-27.964,17.802-123.291,87.069-144.945,215.882
	c-4.713,28.033,17.048,53.542,45.474,53.542h68.208c21.538,0,38.999-17.461,38.999-38.999v-226.19
	C194.265,235.298,189.88,232.902,186.529,235.036z"/>
<path style="opacity:0.1;enable-background:new    ;" d="M186.916,235.036c-3.062,1.949-6.932,4.516-11.423,7.709v213.404
	c0,16.099-13.052,29.151-29.151,29.151H68.286c-7.856,0-15.196-1.956-21.615-5.366c7.683,14.446,22.909,24.525,40.774,24.525h68.208
	c21.538,0,38.999-17.461,38.999-38.999v-226.19C194.652,235.298,190.267,232.902,186.916,235.036z"/>
<path style="fill:#E3E3E3;" d="M267.513,122.162c0,0-56.439,80.647-126.061,80.647S15.389,122.162,15.389,122.162
	S71.828,41.515,141.45,41.515S267.513,122.162,267.513,122.162z"/>
<path style="opacity:0.1;enable-background:new    ;" d="M141.45,179.477c-52.949,0-98.267-46.64-116.939-68.981
	c-5.879,7.034-9.124,11.666-9.124,11.666s56.439,80.647,126.061,80.647s126.061-80.647,126.061-80.647s-3.244-4.631-9.124-11.666
	C239.718,132.837,194.401,179.477,141.45,179.477z"/>
<path style="fill:#3A9CB4;" d="M96.032,143.418c25.084,25.084,65.754,25.084,90.838,0s25.084-65.754,0-90.838v-0.221
	c-14.092-6.571-29.406-10.844-45.42-10.844s-31.326,4.273-45.419,10.844v0.221C70.948,77.665,70.948,118.334,96.032,143.418z"/>
<g>
	<circle style="fill:#342E30;" cx="141.447" cy="95.006" r="27.081"/>
	<path style="fill:#342E30;" d="M461.461,74.607c-4.071,0-8.142-1.553-11.248-4.659c-40.501-40.5-106.402-40.501-146.904,0
		c-6.213,6.213-16.284,6.212-22.497,0c-6.213-6.213-6.213-16.284,0-22.497c52.906-52.907,138.991-52.907,191.898,0
		c6.213,6.213,6.213,16.284,0,22.497C469.603,73.054,465.532,74.607,461.461,74.607z"/>
</g>
<path style="fill:#65CDEF;" d="M276.154,292.812c0,11.613-9.414,21.027-21.027,21.027c-11.613,0-21.027-9.414-21.027-21.027
	c0-11.613,21.027-40.661,21.027-40.661S276.154,281.199,276.154,292.812z"/>
<path style="fill:#E3E3E3;" d="M378.645,330.584c0,0-80.647-56.439-80.647-126.061s80.647-126.061,80.647-126.061
	s80.647,56.439,80.647,126.061S378.645,330.584,378.645,330.584z"/>
<path style="opacity:0.1;enable-background:new    ;" d="M321.33,204.523c0-52.949,46.64-98.267,68.981-116.939
	c-7.034-5.879-11.666-9.124-11.666-9.124s-80.647,56.439-80.647,126.061s80.647,126.062,80.647,126.062s4.631-3.244,11.666-9.124
	C367.97,302.79,321.33,257.472,321.33,204.523z"/>
<path style="fill:#3A9CB4;" d="M357.389,159.105c-25.084,25.084-25.084,65.754,0,90.838c25.084,25.084,65.754,25.084,90.838,0h0.221
	c6.571-14.092,10.844-29.406,10.844-45.42s-4.273-31.326-10.844-45.419h-0.221C423.143,134.019,382.474,134.019,357.389,159.105z"/>
<circle style="fill:#342E30;" cx="405.802" cy="204.52" r="27.081"/>
<path d="M501.942,380.374c-17.175-17.175-40.011-26.635-64.301-26.635c-21.678,0-42.197,7.534-58.568,21.364
	c-35.69-30.086-89.262-28.329-122.863,5.271c-1.415,1.414-2.209,3.332-2.209,5.332c0,68.966,56.109,125.075,125.075,125.075
	s125.075-56.109,125.075-125.075C504.15,383.706,503.356,381.787,501.942,380.374z M371.786,388.775
	c1.21,2.714,3.905,4.471,6.888,4.471h0.805c2.984,0,5.68-1.759,6.889-4.473c14.025-12.891,32.107-19.952,51.274-19.952
	c17.259,0,33.628,5.742,46.958,16.293c-59.729,54.786-151.859,55.005-211.839,0.641C301.689,362.275,344.01,363.271,371.786,388.775
	z M379.075,495.698c-54.53,0-99.911-39.886-108.517-92.016c31.373,25.17,69.571,37.765,107.774,37.765
	c38.9,0,77.794-13.056,109.484-39.151C479.795,455.103,434.088,495.698,379.075,495.698z"/>
<path d="M198.119,223.893c-2.285-1.359-5.119-1.414-7.455-0.145c-1.34,0.728-33.218,18.251-68.596,54.858
	C89.41,312.398,47.65,369.487,34.163,449.569c-2.617,15.54,1.726,31.363,11.918,43.415C56.301,505.069,71.236,512,87.057,512h68.208
	c25.662,0,46.54-20.877,46.54-46.54V230.374C201.806,227.715,200.405,225.253,198.119,223.893z M186.724,465.46
	c0,17.346-14.112,31.458-31.458,31.458H87.058c-11.375,0-22.113-4.984-29.461-13.673c-7.32-8.655-10.44-20.016-8.56-31.17
	c12.808-76.046,52.477-130.396,83.501-162.598c21.567-22.387,42.08-37.499,54.186-45.551V465.46z"/>
<path d="M120.662,447.551c-19.278,0-38.73,5.732-38.73,18.539c0,4.165,3.376,7.541,7.541,7.541c3.695,0,6.77-2.658,7.415-6.166
	c2.233-1.818,10.823-4.831,23.774-4.831c12.951,0,21.54,3.013,23.774,4.831c0.647,3.508,3.72,6.166,7.415,6.166
	c4.165,0,7.541-3.376,7.541-7.541C159.392,453.283,139.939,447.551,120.662,447.551z"/>
<path d="M141.451,210.35c72.712,0,129.843-80.44,132.239-83.864c1.817-2.596,1.817-6.052,0-8.648
	c-1.853-2.648-36.444-51.346-85.656-73.291l13.067-28.067c1.758-3.775,0.122-8.261-3.654-10.018
	c-3.774-1.758-8.26-0.122-10.018,3.654l-13.522,29.048c-6.904-2.176-14.039-3.749-21.361-4.56V7.541
	c0-4.165-3.376-7.541-7.541-7.541c-4.165,0-7.541,3.376-7.541,7.541v26.522c-7.594,0.306-15.008,1.466-22.195,3.307L102.58,10.115
	c-1.758-3.776-6.243-5.411-10.018-3.654s-5.411,6.243-3.654,10.018l11.908,25.579c-52.353,20.482-89.677,73.026-91.604,75.78
	c-1.817,2.596-1.817,6.052,0,8.648C11.608,129.911,68.739,210.35,141.451,210.35z M198.142,97.999
	c0,15.143-5.897,29.379-16.604,40.087c-10.707,10.707-24.944,16.605-40.088,16.605s-29.379-5.897-40.087-16.605
	c-21.931-21.931-22.09-57.501-0.502-79.645c12.726-5.724,26.405-9.384,40.589-9.384c14.19,0,27.884,3.678,40.63,9.426
	C192.437,69.123,198.142,83.119,198.142,97.999z M73.636,74.418c-2.595,7.484-3.958,15.427-3.958,23.581
	c0,19.171,7.466,37.195,21.022,50.751c13.556,13.557,31.58,21.022,50.751,21.022s37.196-7.466,50.751-21.022
	c13.557-13.556,21.022-31.579,21.022-50.751c0-8.136-1.358-16.06-3.941-23.529c23.964,17.319,41.8,38.681,48.805,47.693
	c-12.681,16.314-60.844,73.106-116.635,73.106c-55.8,0-103.968-56.807-116.639-73.11C31.809,113.138,49.643,91.745,73.636,74.418z"
	/>
<path d="M106.828,95.006c0,19.091,15.531,34.622,34.622,34.622s34.622-15.531,34.622-34.622s-15.531-34.622-34.622-34.622
	S106.828,75.915,106.828,95.006z M160.99,95.006c0,10.774-8.766,19.54-19.54,19.54c-10.774,0-19.54-8.766-19.54-19.54
	s8.766-19.54,19.54-19.54C152.225,75.466,160.99,84.231,160.99,95.006z"/>
<path d="M371.179,204.523c0,19.091,15.531,34.622,34.622,34.622s34.622-15.531,34.622-34.622s-15.531-34.622-34.622-34.622
	S371.179,185.432,371.179,204.523z M405.801,184.983c10.774,0,19.54,8.766,19.54,19.54c0,10.774-8.766,19.54-19.54,19.54
	s-19.54-8.766-19.54-19.54C386.261,193.749,395.027,184.983,405.801,184.983z"/>
<path d="M458.749,163.888c-20.482-52.353-73.026-89.677-75.779-91.604c-2.596-1.818-6.052-1.818-8.648,0
	c-3.425,2.396-83.864,59.527-83.864,132.24s80.44,129.844,83.864,132.24c1.298,0.909,2.811,1.362,4.323,1.362
	s3.025-0.454,4.323-1.362c2.648-1.853,51.346-36.444,73.29-85.656l28.07,13.067c1.03,0.48,2.112,0.707,3.177,0.707
	c2.841,0,5.563-1.614,6.841-4.361c1.758-3.775,0.122-8.261-3.654-10.018l-29.049-13.522c2.176-6.904,3.749-14.04,4.56-21.361h27.062
	c4.165,0,7.541-3.376,7.541-7.541c0-4.165-3.376-7.541-7.541-7.541h-26.522c-0.306-7.594-1.466-15.008-3.307-22.195l27.255-12.688
	c3.775-1.758,5.411-6.243,3.654-10.018c-1.758-3.775-6.243-5.41-10.018-3.654L458.749,163.888z M451.751,204.523
	c0,14.19-3.679,27.884-9.426,40.63c-10.641,10.357-24.638,16.062-39.518,16.062c-15.143,0-29.379-5.897-40.087-16.604
	c-10.707-10.707-16.605-24.944-16.605-40.087s5.897-29.379,16.605-40.087c10.708-10.707,24.944-16.604,40.087-16.604
	c14.899,0,28.912,5.719,39.559,16.101C448.09,176.66,451.751,190.339,451.751,204.523z M378.641,321.162
	c-16.314-12.656-73.102-60.741-73.102-116.639c0-55.8,56.808-103.968,73.111-116.639c9.02,6.998,30.413,24.832,47.74,48.826
	c-7.484-2.596-15.427-3.96-23.582-3.96c-19.171,0-37.195,7.466-50.751,21.022c-13.557,13.556-21.022,31.579-21.022,50.751
	s7.466,37.195,21.022,50.751c13.556,13.557,31.58,21.022,50.751,21.022c8.136,0,16.06-1.357,23.529-3.941
	C409.016,296.322,387.651,314.159,378.641,321.162z"/>
<path d="M88.906,408.792c0.834,0.296,1.684,0.436,2.522,0.436c3.103,0,6.011-1.929,7.107-5.021
	c0.249-0.702,25.472-70.566,74.29-102.243c3.494-2.266,4.488-6.937,2.221-10.431c-2.267-3.494-6.938-4.487-10.431-2.221
	C111.551,323.744,85.408,396.1,84.321,399.164C82.929,403.088,84.981,407.399,88.906,408.792z"/>
<path d="M308.641,75.28c37.561-37.56,98.679-37.56,136.239,0c4.429,4.429,10.318,6.868,16.581,6.868s12.152-2.439,16.581-6.868
	c9.143-9.143,9.143-24.018,0-33.161C451.03,15.106,415.061,0.23,376.761,0.23S302.492,15.106,275.48,42.119
	c-4.429,4.429-6.868,10.317-6.868,16.581s2.439,12.152,6.868,16.581C284.624,84.423,299.5,84.421,308.641,75.28z M286.145,52.783
	c24.163-24.164,56.345-37.471,90.617-37.471s66.453,13.307,90.617,37.471c1.581,1.581,2.451,3.682,2.451,5.916
	c0,2.235-0.871,4.337-2.451,5.916c-1.581,1.58-3.682,2.451-5.916,2.451c-2.234,0-4.337-0.871-5.916-2.451
	c-21.721-21.721-50.252-32.58-78.784-32.58s-57.064,10.86-78.785,32.58c-3.262,3.262-8.569,3.262-11.832,0
	c-1.581-1.581-2.451-3.682-2.451-5.916C283.694,56.465,284.564,54.363,286.145,52.783z"/>
<path d="M283.694,292.812c0-13.042-17.191-37.804-22.46-45.083c-1.418-1.959-3.69-3.119-6.108-3.119c-2.418,0-4.69,1.16-6.108,3.119
	c-5.269,7.279-22.46,32.041-22.46,45.083c0,15.752,12.816,28.568,28.568,28.568S283.694,308.565,283.694,292.812z M241.64,292.812
	c0-4.429,6.245-16.17,13.482-27.311c7.255,11.201,13.49,23.009,13.49,27.311c0,7.436-6.05,13.486-13.486,13.486
	C247.69,306.298,241.64,300.249,241.64,292.812z"/>
<g>
</g>
<g>
</g>
<g>
</g>
<g>
</g>
<g>
</g>
<g>
</g>
<g>
</g>
<g>
</g>
<g>
</g>
<g>
</g>
<g>
</g>
<g>
</g>
<g>
</g>
<g>
</g>
<g>
</g>
</svg>
