<svg height="512pt" viewBox="0 0 512 512" width="512pt" xmlns="http://www.w3.org/2000/svg"><path d="m449.960938 421.824219-51.132813-12.777344-3.5-13.953125c13.484375-13.972656 22.847656-32.535156 26.132813-51.753906 8.171874-3.203125 14.316406-10.6875 15.445312-19.839844l3.476562-27.839844c.875-6.933594-1.257812-13.910156-5.84375-19.160156-2.070312-2.367188-4.566406-4.308594-7.316406-5.738281l1.085938-22.226563 4.265625-4.269531c7.148437-7.59375 16.832031-23.957031 1.152343-47.914063-11.132812-17.042968-29.929687-25.683593-55.804687-25.683593-9.878906 0-32.449219 0-53.890625 13.972656-61.84375 1.664063-69.886719 32.449219-69.886719 59.285156 0 5.800781 1.238281 17.769531 2.21875 26.390625-3.074219 1.40625-5.847656 3.453125-8.128906 6.035156-4.648437 5.292969-6.828125 12.332032-5.953125 19.308594l3.480469 27.816406c1.214843 9.792969 8.125 17.664063 17.148437 20.460938 3.265625 18.324219 12.121094 36.179688 24.769532 49.832031l-3.816407 15.277344-51.136719 12.777344c-36.546874 9.152343-62.058593 41.835937-62.058593 79.507812 0 2.839844 1.128906 5.546875 3.113281 7.554688 1.984375 2.003906 4.734375 3.113281 7.550781 3.113281l320-.042969c5.890625 0 10.667969-4.777343 10.667969-10.667969 0-37.652343-25.515625-70.3125-62.039062-79.464843zm0 0" fill="#455a64"/><path d="m260.949219 152.191406 3.476562-27.839844c.683594-5.417968-.980469-10.902343-4.5625-14.996093-1.625-1.855469-3.566406-3.351563-5.742187-4.480469l-3.050782-1.578125 1.34375-27.710937 5.742188-5.742188c7.316406-7.785156 13.460938-21.375.46875-41.234375-10.132812-15.445313-27.394531-23.277344-51.371094-23.277344-9.238281 0-30.871094 0-50.988281 13.101563l-1.277344.832031-1.496093.042969c-57 1.554687-64.679688 28.15625-64.679688 53.972656 0 4.351562.746094 13.269531 2.175781 25.789062l.425781 3.839844-3.5 1.582032c-2.429687 1.152343-4.585937 2.730468-6.378906 4.753906-3.625 4.121094-5.332031 9.644531-4.648437 15.105468l3.476562 27.820313c.9375 7.507813 6.207031 13.78125 13.417969 16.019531l3.113281.980469.578125 3.179687c3.113282 17.449219 11.433594 34.199219 23.421875 47.148438l1.964844 2.132812-5.292969 21.160157-54.25 13.546875c-34.132812 8.554687-57.984375 39.125-57.984375 74.328125 0 2.941406 2.390625 5.332031 5.335938 5.332031h210.773437c-1.046875-3.09375-1.773437-6.144531-2.15625-9.214844l-3.476562-27.796875c-1.8125-14.550781 2.6875-29.207031 12.394531-40.234375l.128906-.152344c-.597656-6.65625-.769531-10.34375-.832031-12.5l-.832031-1.238281c-.363281-.511719-.832031-1-1.386719-1.386719l-1.621094-1.152343-4.886718-19.496094 2.070312-2.136719c12.800781-13.265625 21.589844-30.652344 24.703125-48.9375l.511719-2.984375 2.792968-1.089843c6.59375-2.558594 11.246094-8.492188 12.097657-15.488282zm0 0" fill="#607d8b"/><path d="m214.71875 341.332031h-204.050781c-5.890625 0-10.667969-4.777343-10.667969-10.664062 0-37.675781 25.515625-70.359375 62.039062-79.511719l51.132813-12.777344 3.820313-15.273437c-12.628907-13.65625-21.484376-31.511719-24.769532-49.835938-9.023437-2.773437-15.914062-10.644531-17.128906-20.4375l-3.5-27.820312c-.875-6.972657 1.300781-14.015625 5.953125-19.304688 2.28125-2.582031 5.054687-4.628906 8.128906-6.039062-.960937-8.617188-2.199219-20.585938-2.199219-26.386719 0-26.839844 8.023438-57.621094 69.890626-59.285156 21.4375-13.996094 44.007812-13.996094 53.886718-13.996094 25.875 0 44.648438 8.640625 55.808594 25.707031 15.679688 23.957031 5.992188 40.320313-1.152344 47.914063l-4.265625 4.265625-1.089843 22.230469c2.753906 1.40625 5.246093 3.347656 7.316406 5.738281 4.585937 5.25 6.699218 12.222656 5.847656 19.15625l-3.480469 27.839843c-1.128906 9.152344-7.273437 16.621094-15.445312 19.839844-3.285157 19.179688-12.648438 37.785156-26.132813 51.757813l3.671875 14.699219c3.5625 2.453124 5.375 6.929687 4.265625 11.367187-1.429687 5.71875-7.339844 9.089844-12.929687 7.746094l-2.898438-.726563c-3.820312-.960937-6.808593-3.945312-7.746093-7.765625l-6.546876-26.152343c-.960937-3.839844.277344-7.894532 3.21875-10.519532 13.847657-12.414062 23.382813-31.65625 24.855469-50.21875.445313-5.566406 5.074219-9.832031 10.644531-9.832031 2.304688 0 3.691407-1.238281 3.902344-2.839844l3.476563-27.859375c.152343-1.175781-.339844-2.007812-.765625-2.476562-.363282-.425782-1.152344-1.109375-2.433594-1.128906-2.898438-.042969-5.652344-1.257813-7.636719-3.351563-1.984375-2.109375-3.027343-4.925781-2.878906-7.828125l1.683594-34.816406c.128906-2.644532 1.238281-5.140625 3.117187-7.019532l6.953125-6.953124c2.453125-2.601563 7.445313-7.914063-1.386719-21.398438-7.0625-10.792969-19.476562-16.042969-37.972656-16.042969-13.652344 0-29.609375 1.410157-44.289062 11.925781-1.792969 1.28125-3.925782 1.964844-6.101563 1.984376-52.050781.535156-52.050781 21.3125-52.050781 38.039062 0 6.613281 2.300781 26.386719 3.199219 33.449219.382812 3.050781-.554688 6.082031-2.582031 8.40625-2.027344 2.28125-4.949219 3.582031-8 3.582031-2.710938 0-3.519532.683594-3.882813 1.109375-.363281.40625-.9375 1.28125-.789063 2.519531l3.5 27.839844c.191407 1.621094 1.578126 2.859375 3.21875 2.859375h2.261719c5.570313 0 10.199219 4.265625 10.644531 9.8125 1.453126 18.28125 10.328126 36.691406 23.722657 49.277344 2.816406 2.648437 3.992187 6.617187 3.050781 10.347656l-6.824219 27.285156c-.941406 3.839844-3.949219 6.804688-7.765625 7.765625l-57.367187 14.335938c-23.488281 5.867187-40.832031 24.917968-44.925781 48.085937l192.445312.042969c5.890625 0 10.667969 4.777344 10.667969 10.667969 0 5.886719-4.777344 10.664062-10.667969 10.664062zm0 0"/><path d="m181.332031 512c-2.816406 0-5.546875-1.128906-7.550781-3.113281s-3.113281-4.714844-3.113281-7.554688c0-37.671875 25.511719-70.355469 62.035156-79.507812l51.136719-12.777344 3.820312-15.277344c-12.628906-13.652343-21.484375-31.507812-24.769531-49.832031-9.023437-2.796875-15.9375-10.667969-17.152344-20.460938l-3.476562-27.816406c-.875-6.976562 1.300781-14.015625 5.953125-19.308594 2.28125-2.582031 5.054687-4.628906 8.125-6.035156-.980469-8.621094-2.21875-20.589844-2.21875-26.390625 0-26.835937 8.023437-57.621093 69.890625-59.285156 21.460937-13.972656 44.03125-13.972656 53.910156-13.972656 25.875 0 44.648437 8.640625 55.804687 25.707031 15.679688 23.957031 5.996094 40.316406-1.152343 47.914062l-4.265625 4.265626-1.085938 22.230468c2.75 1.40625 5.246094 3.347656 7.316406 5.738282 4.585938 5.246093 6.699219 12.222656 5.84375 19.15625l-3.476562 27.839843c-1.128906 9.152344-7.273438 16.617188-15.445312 19.839844-3.285157 19.199219-12.648438 37.78125-26.132813 51.753906l3.5 13.953125 51.132813 12.777344c36.523437 9.132812 62.039062 41.792969 62.039062 79.445312 0 5.890626-4.777344 10.667969-10.667969 10.667969zm11.605469-21.375 296.789062.042969c-4.117187-23.191407-21.4375-42.242188-44.925781-48.128907l-57.34375-14.335937c-3.820312-.960937-6.804687-3.945313-7.765625-7.765625l-6.550781-26.15625c-.960937-3.839844.277344-7.890625 3.222656-10.515625 13.84375-12.417969 23.359375-31.660156 24.851563-50.242187.449218-5.542969 5.078125-9.8125 10.648437-9.8125 2.300781 0 3.6875-1.234376 3.902344-2.835938l3.476563-27.863281c.148437-1.171875-.339844-2.003907-.765626-2.472657-.363281-.425781-1.152343-1.109374-2.433593-1.132812-2.902344-.039062-5.652344-1.257812-7.636719-3.347656-1.984375-2.113282-3.03125-4.929688-2.882812-7.828125l1.6875-34.816407c.128906-2.644531 1.238281-5.140624 3.113281-7.019531l6.957031-6.953125c2.453125-2.605468 7.445312-7.917968-1.386719-21.398437-7.0625-10.796875-19.480469-16.042969-37.972656-16.042969-13.675781 0-29.613281 1.40625-44.3125 11.925781-1.769531 1.300781-3.925781 1.984375-6.101563 2.003907-52.03125.511718-52.03125 21.3125-52.03125 38.015624 0 6.613282 2.304688 26.390626 3.199219 33.453126.386719 3.050781-.554687 6.078124-2.578125 8.402343-2.027344 2.285157-4.929687 3.605469-8 3.605469-2.710937 0-3.523437.683594-3.882812 1.109375-.363282.40625-.941406 1.28125-.789063 2.519531l3.476563 27.839844c.191406 1.621094 1.578125 2.859375 3.21875 2.859375h2.261718c5.570313 0 10.199219 4.265625 10.648438 9.8125 1.449219 18.28125 10.324219 36.691406 23.722656 49.28125 2.8125 2.644531 4.007813 6.613281 3.046875 10.34375l-6.824219 27.285156c-.9375 3.839844-3.945312 6.808594-7.765624 7.765625l-57.34375 14.335938c-23.488282 5.867187-40.8125 24.898437-44.929688 48.066406zm0 0"/><path d="m437.332031 149.332031c-1.363281 0-2.75-.277343-4.074219-.808593-3.988281-1.644532-6.589843-5.546876-6.589843-9.855469v-64c0-29.421875-23.9375-53.335938-53.335938-53.335938h-64c-5.886719 0-10.664062-4.777343-10.664062-10.664062 0-5.890625 4.777343-10.667969 10.664062-10.667969h64c41.175781 0 74.667969 33.492188 74.667969 74.667969v38.25l24.449219-24.449219c4.160156-4.160156 10.921875-4.160156 15.082031 0s4.160156 10.921875 0 15.082031l-42.667969 42.667969c-2.027343 2.027344-4.757812 3.113281-7.53125 3.113281zm0 0"/><path d="m437.332031 149.332031c-2.730469 0-5.460937-1.042969-7.550781-3.113281l-42.667969-42.667969c-4.160156-4.160156-4.160156-10.921875 0-15.082031 4.160157-4.160156 10.925781-4.160156 15.085938 0l42.664062 42.667969c4.160157 4.160156 4.160157 10.921875 0 15.082031-2.070312 2.070312-4.800781 3.113281-7.53125 3.113281zm0 0"/><path d="m138.667969 512c-41.175781 0-74.667969-33.492188-74.667969-74.667969v-38.25l-24.449219 24.449219c-4.160156 4.160156-10.921875 4.160156-15.082031 0s-4.160156-10.921875 0-15.082031l42.667969-42.667969c3.050781-3.070312 7.636719-3.945312 11.625-2.304688 3.96875 1.644532 6.570312 5.546876 6.570312 9.855469v64c0 29.421875 23.9375 53.335938 53.335938 53.335938 5.886719 0 10.664062 4.777343 10.664062 10.664062 0 5.890625-4.777343 10.667969-10.664062 10.667969zm0 0"/><path d="m117.332031 426.667969c-2.730469 0-5.460937-1.046875-7.550781-3.117188l-42.667969-42.664062c-4.160156-4.160157-4.160156-10.925781 0-15.085938 4.160157-4.15625 10.925781-4.15625 15.085938 0l42.664062 42.667969c4.160157 4.160156 4.160157 10.921875 0 15.082031-2.070312 2.070313-4.800781 3.117188-7.53125 3.117188zm0 0"/></svg>