<?xml version="1.0" encoding="iso-8859-1"?>
<!-- Generator: Adobe Illustrator 19.0.0, SVG Export Plug-In . SVG Version: 6.00 Build 0)  -->
<svg version="1.1" id="Layer_1" xmlns="http://www.w3.org/2000/svg" xmlns:xlink="http://www.w3.org/1999/xlink" x="0px" y="0px"
	 viewBox="0 0 512 512" style="enable-background:new 0 0 512 512;" xml:space="preserve">
<g>
	<path style="fill:#B440A1;" d="M427.825,180.463c14.799,79.898-29.521,165.699-109.354,185.079c0,0,93.934-115.208,72.433-204.582
		S222.617,9.512,201.718,8.51c28.2-1.343,56.664,2.4,83.918,11.991c44.442,16.286,81.462,41.469,109.607,81.462
		C413.015,127.146,421.901,150.843,427.825,180.463z"/>
	<path style="fill:#B440A1;" d="M180.473,84.184c79.898-14.799,165.699,29.521,185.079,109.354c0,0-115.208-93.934-204.582-72.433
		S9.522,289.392,8.52,310.292c-1.343-28.2,2.4-56.664,11.991-83.918c16.286-44.442,41.469-81.462,81.462-109.607
		C127.156,98.995,150.853,90.108,180.473,84.184z"/>
	<path style="fill:#B440A1;" d="M84.194,331.537c-14.799-79.898,29.521-165.699,109.354-185.079c0,0-93.934,115.208-72.433,204.582
		s168.287,151.448,189.186,152.45c-28.2,1.343-56.664-2.4-83.918-11.991c-44.442-16.286-81.462-41.469-109.607-81.462
		C99.005,384.854,90.119,361.158,84.194,331.537z"/>
	<path style="fill:#B440A1;" d="M331.547,427.815c-79.898,14.799-165.699-29.521-185.079-109.354c0,0,115.208,93.934,204.582,72.433
		s151.448-168.287,152.45-189.186c1.343,28.2-2.4,56.664-11.991,83.918c-16.286,44.442-41.469,81.462-81.462,109.607
		C384.864,413.005,361.168,421.891,331.547,427.815z"/>
</g>
<path style="fill:#FF2796;" d="M331.547,405.792c29.621-5.924,53.317-14.81,78.5-32.583c39.993-28.145,65.176-65.165,81.462-109.607
	c7.102-20.173,10.989-40.995,11.991-61.895c-2.599-54.55-24.236-108.121-59.384-150.107c45.917,75.549,53.317,173.297-1.487,248.835
	c-4.438,5.924-8.886,10.373-13.324,16.297c-29.588,29.588-68.061,51.797-110.973,48.89c64.237-29.275,100.687-113.83,87.469-185.161
	c-5.924-29.621-14.81-53.317-32.583-78.5C345.075,61.969,308.054,36.786,263.613,20.5c-20.173-7.102-40.995-10.989-61.895-11.991
	c-54.55,2.599-108.121,24.236-150.107,59.384c75.549-45.917,173.297-53.317,248.835,1.487c5.924,4.438,10.373,8.886,16.297,13.324
	c29.588,29.588,51.797,68.061,48.89,110.973c-29.243-64.284-113.803-100.692-185.161-87.47c-29.621,5.924-53.317,14.81-78.5,32.583
	c-39.993,28.145-65.176,65.165-81.462,109.607c-7.102,20.173-10.989,40.995-11.991,61.895
	c2.599,54.55,24.236,108.121,59.384,150.107c-45.917-75.549-53.317-173.297,1.487-248.835c4.438-5.924,8.886-10.373,13.324-16.297
	c29.588-29.588,68.061-51.797,110.973-48.89C129.464,175.661,93,260.215,106.217,331.536c5.924,29.621,14.81,53.317,32.583,78.5
	c28.145,39.993,65.165,65.176,109.607,81.462c20.173,7.102,40.995,10.989,61.895,11.991c54.55-2.599,108.121-24.236,150.107-59.384
	c-75.549,45.917-173.297,53.317-248.835-1.487c-5.924-4.438-10.373-8.886-16.297-13.324c-29.588-29.588-51.797-68.061-48.89-110.973
	C175.622,382.619,260.183,419.017,331.547,405.792z"/>
<path style="fill:#FCD999;" d="M257.111,224.067v66.068c36.492,0,66.068-14.788,66.068-33.034S293.603,224.067,257.111,224.067z"/>
<g>
	<path style="fill:#FFFFFF;" d="M257.111,224.067c18.246,0,33.034,14.788,33.034,33.034s-14.788,33.034-33.034,33.034
		c-36.492,0-66.068-14.788-66.068-33.034S220.62,224.067,257.111,224.067z"/>
	<circle style="fill:#FFFFFF;" cx="257.116" cy="158.002" r="8.259"/>
	<circle style="fill:#FFFFFF;" cx="290.15" cy="191.036" r="8.259"/>
	<circle style="fill:#FFFFFF;" cx="356.218" cy="235.082" r="8.259"/>
	<circle style="fill:#FFFFFF;" cx="224.082" cy="345.196" r="8.259"/>
</g>
<path d="M182.784,257.101c0,12.115,8.494,23.034,23.917,30.745c13.603,6.802,31.506,10.548,50.41,10.548
	c18.905,0,36.808-3.746,50.411-10.548c15.423-7.711,23.916-18.63,23.916-30.745c0-12.115-8.493-23.034-23.916-30.745
	c-13.603-6.802-31.506-10.548-50.411-10.548c-18.904,0-36.808,3.746-50.41,10.548C191.278,234.067,182.784,244.985,182.784,257.101z
	 M314.92,257.101c0,11.695-24.723,24.776-57.81,24.776s-57.81-13.08-57.81-24.776c0-11.695,24.723-24.776,57.81-24.776
	S314.92,245.406,314.92,257.101z"/>
<circle cx="19.678" cy="35.961" r="8.259"/>
<circle cx="52.712" cy="108.638" r="8.259"/>
<circle cx="97.451" cy="463.568" r="8.259"/>
<circle cx="493.442" cy="411.077" r="8.259"/>
<circle cx="493.442" cy="378.042" r="8.259"/>
<circle cx="257.116" cy="323.173" r="8.259"/>
<circle cx="257.116" cy="191.036" r="8.259"/>
<circle cx="158.014" cy="257.105" r="8.259"/>
<circle cx="412.178" cy="19.668" r="8.259"/>
<path d="M504.459,152.27c-9.679-38.683-28.357-75.328-54.011-105.97c-2.775-3.312-7.632-3.927-11.141-1.413
	c-3.512,2.516-4.492,7.313-2.249,11.004c47.84,78.704,47.418,172.763-1.072,239.645c-2.046,2.723-4.106,5.127-6.285,7.669
	c-2.155,2.514-4.38,5.11-6.638,8.085c-11.5,11.441-26.432,23.765-44.097,32.823c14.461-11.979,26.923-26.875,36.782-44.226
	c20.414-35.921,27.775-79.998,20.196-120.929c-0.008-0.039-0.015-0.077-0.023-0.116c-6.565-32.829-16.715-57.247-33.929-81.634
	c-27.341-38.854-64.473-66.482-113.619-84.501C248.509-1.32,204.386-3.788,160.78,5.572c-41.869,8.985-81.452,28.347-114.47,55.99
	c-3.312,2.773-3.928,7.63-1.412,11.141c2.515,3.51,7.31,4.494,11.003,2.247c78.705-47.84,172.761-47.418,239.643,1.071
	c2.726,2.047,5.13,4.108,7.676,6.29c2.513,2.155,5.108,4.378,8.081,6.635c11.487,11.547,23.864,26.552,32.931,44.311
	c-10.301-12.488-22.755-23.502-37.039-32.599C274.825,80.042,235.51,70.48,196.494,73.731c-4.546,0.379-7.923,4.37-7.544,8.916
	c0.379,4.545,4.37,7.92,8.916,7.544c75.077-6.258,143.73,39.113,159.721,105.533c0.955,3.963,4.657,6.643,8.72,6.296
	c4.062-0.341,7.269-3.595,7.548-7.662c3.529-51.197-25.937-92.152-51.277-117.495c-0.276-0.276-0.573-0.533-0.885-0.767
	c-2.746-2.06-5.164-4.133-7.727-6.328c-2.649-2.272-5.39-4.619-8.567-7.003c-0.035-0.025-0.069-0.052-0.106-0.077
	c-37.26-27.032-81.995-40.892-129.407-40.082c-6.485,0.111-12.977,0.49-19.456,1.133c42.429-10.515,86.699-9.443,126.359,4.51
	c45.781,16.786,80.354,42.451,105.701,78.473c16.008,22.679,25.056,44.498,31.222,75.296
	c14.699,79.537-31.687,158.286-103.429,175.558c-3.963,0.954-6.637,4.657-6.296,8.719c0.34,4.062,3.595,7.269,7.662,7.548
	c2.828,0.195,5.62,0.29,8.385,0.29c47.285-0.001,85.167-27.625,109.109-51.567c0.276-0.276,0.532-0.573,0.766-0.885
	c2.06-2.747,4.135-5.167,6.329-7.729c2.271-2.648,4.617-5.387,7-8.564c0.025-0.035,0.053-0.069,0.077-0.106
	c27.033-37.261,40.894-82.009,40.082-129.408c-0.115-6.759-0.523-13.526-1.216-20.28c9.354,37.079,9.817,75.647,0.372,111.502
	c-1.162,4.41,1.472,8.928,5.883,10.09c4.403,1.163,8.927-1.472,10.09-5.882C514.5,233.462,514.476,192.299,504.459,152.27z"/>
<path d="M456.12,437.049c-78.705,47.84-172.76,47.42-239.639-1.069c-2.728-2.048-5.132-4.109-7.679-6.292
	c-2.513-2.155-5.108-4.378-8.081-6.637c-11.441-11.499-23.764-26.428-32.822-44.093c11.979,14.461,26.873,26.921,44.224,36.78
	c35.922,20.415,80,27.777,120.928,20.196c0.039-0.007,0.077-0.014,0.116-0.022c32.833-6.567,57.249-16.716,81.635-33.93
	c34.869-24.537,60.517-56.693,78.412-98.308c1.803-4.19-0.134-9.048-4.324-10.85c-4.19-1.8-9.048,0.135-10.849,4.324
	c-16.652,38.726-40.447,68.599-72.754,91.333c-22.677,16.008-44.495,25.055-75.299,31.222
	c-79.534,14.702-158.284-31.689-175.554-103.429c-0.955-3.963-4.643-6.641-8.72-6.296c-4.062,0.341-7.269,3.594-7.548,7.662
	c-3.531,51.198,25.936,92.153,51.277,117.495c0.276,0.276,0.573,0.533,0.885,0.767c2.746,2.06,5.164,4.133,7.726,6.328
	c2.65,2.272,5.39,4.619,8.568,7.002c0.035,0.026,0.069,0.052,0.106,0.078c37.262,27.033,82.036,40.883,129.407,40.082
	c6.485-0.111,12.976-0.49,19.456-1.133c-42.43,10.514-86.699,9.444-126.36-4.51c-45.78-16.787-80.353-42.452-105.701-78.472
	c-16.008-22.68-25.056-44.498-31.222-75.299c-14.7-79.537,31.687-158.283,103.428-175.554c3.964-0.954,6.638-4.657,6.297-8.719
	s-3.595-7.269-7.662-7.548c-51.176-3.525-92.152,25.936-117.495,51.278c-0.276,0.276-0.532,0.573-0.766,0.884
	c-2.06,2.747-4.134,5.165-6.328,7.727c-2.272,2.649-4.618,5.388-7.001,8.566c-0.025,0.035-0.053,0.069-0.077,0.106
	c-27.033,37.261-40.894,82.01-40.082,129.408c0.111,6.483,0.489,12.975,1.132,19.454c-10.517-42.434-9.446-86.693,4.511-126.358
	c16.785-45.78,42.451-80.353,78.471-105.701c18.773-13.252,37.282-21.803,60.016-27.727c4.413-1.151,7.058-5.661,5.909-10.074
	c-1.151-4.413-5.666-7.059-10.074-5.91c-24.743,6.448-44.905,15.767-65.366,30.21c-38.853,27.341-66.481,64.473-84.5,113.617
	C-1.31,263.5-3.777,307.623,5.582,351.231c8.985,41.869,28.347,81.451,55.99,114.47c2.775,3.312,7.631,3.928,11.141,1.413
	c3.512-2.516,4.492-7.313,2.249-11.004c-47.839-78.704-47.419-172.757,1.07-239.64c2.047-2.726,4.108-5.13,6.29-7.676
	c2.155-2.514,4.379-5.109,6.637-8.082c11.501-11.442,26.428-23.766,44.097-32.824c-14.461,11.979-26.923,26.877-36.782,44.226
	c-20.414,35.921-27.775,79.998-20.196,120.929c0.008,0.039,0.015,0.077,0.023,0.116c6.565,32.828,16.714,57.246,33.929,81.635
	c27.342,38.854,64.474,66.481,113.619,84.501c24.02,8.451,49.584,12.706,75.651,12.706c17.195,0,34.612-1.852,51.944-5.572
	c41.869-8.985,81.452-28.347,114.47-55.99c3.312-2.773,3.928-7.63,1.412-11.141C464.609,435.785,459.811,434.805,456.12,437.049z"/>
<g>
</g>
<g>
</g>
<g>
</g>
<g>
</g>
<g>
</g>
<g>
</g>
<g>
</g>
<g>
</g>
<g>
</g>
<g>
</g>
<g>
</g>
<g>
</g>
<g>
</g>
<g>
</g>
<g>
</g>
</svg>
