<?xml version="1.0" encoding="iso-8859-1"?>
<!-- Generator: Adobe Illustrator 19.0.0, SVG Export Plug-In . SVG Version: 6.00 Build 0)  -->
<svg version="1.1" id="Capa_1" xmlns="http://www.w3.org/2000/svg" xmlns:xlink="http://www.w3.org/1999/xlink" x="0px" y="0px"
	 viewBox="0 0 511.999 511.999" style="enable-background:new 0 0 511.999 511.999;" xml:space="preserve">
<rect x="61.504" y="393.268" transform="matrix(-0.7071 -0.7071 0.7071 -0.7071 -127.3289 776.8164)" style="fill:#FF9478;" width="71.431" height="43.021"/>
<rect x="183.067" y="193.823" transform="matrix(-0.7071 -0.7071 0.7071 -0.7071 303.8925 598.2047)" style="fill:#96C8EF;" width="185.544" height="84.682"/>
<path style="fill:#FFDE75;" d="M180.299,200.497L67.361,313.435c-11.35,11.35-11.35,29.752,0,41.102l90.101,90.101
	c11.35,11.35,29.752,11.35,41.102,0L311.502,331.7L180.299,200.497z"/>
<rect x="348.857" y="100.556" transform="matrix(-0.7071 -0.7071 0.7071 -0.7071 539.2638 500.7031)" style="fill:#96C8EF;" width="48.947" height="76.222"/>
<rect x="205.074" y="157.205" transform="matrix(-0.7071 -0.7071 0.7071 -0.7071 425.2022 547.9557)" style="fill:#4D7C90;" width="242.025" height="57.421"/>
<rect x="324.094" y="69.048" transform="matrix(-0.7071 -0.7071 0.7071 -0.7071 646.9962 456.081)" style="fill:#FF6243;" width="187.724" height="49.99"/>
<path d="M180.627,410.633c-0.65,0-1.31-0.06-1.95-0.19s-1.27-0.32-1.87-0.57c-0.61-0.25-1.19-0.56-1.73-0.92
	c-0.55-0.37-1.06-0.79-1.52-1.25c-0.46-0.46-0.88-0.97-1.24-1.52c-0.36-0.54-0.67-1.12-0.92-1.72c-0.25-0.61-0.45-1.24-0.57-1.87
	c-0.13-0.65-0.2-1.31-0.2-1.96c0-0.65,0.07-1.31,0.2-1.95c0.12-0.64,0.32-1.27,0.57-1.87c0.25-0.61,0.56-1.19,0.92-1.73
	c0.36-0.55,0.78-1.06,1.24-1.52c0.46-0.46,0.97-0.88,1.52-1.24c0.54-0.36,1.12-0.67,1.73-0.92c0.6-0.25,1.23-0.44,1.87-0.57
	c1.29-0.26,2.61-0.26,3.9,0c0.64,0.13,1.27,0.32,1.87,0.57c0.61,0.25,1.19,0.56,1.73,0.92c0.55,0.36,1.06,0.78,1.52,1.24
	c0.46,0.46,0.88,0.97,1.24,1.52c0.36,0.539,0.67,1.12,0.92,1.73c0.25,0.6,0.45,1.23,0.57,1.87c0.13,0.64,0.2,1.3,0.2,1.95
	c0,0.65-0.07,1.31-0.2,1.96c-0.12,0.63-0.32,1.26-0.57,1.87c-0.25,0.6-0.56,1.18-0.92,1.72c-0.36,0.55-0.78,1.06-1.24,1.52
	c-0.46,0.46-0.97,0.88-1.52,1.25c-0.54,0.36-1.12,0.67-1.73,0.92c-0.6,0.25-1.23,0.44-1.87,0.57S181.277,410.633,180.627,410.633z"
	/>
<path d="M509.071,135.667L376.333,2.928c-3.905-3.904-10.235-3.904-14.143,0l-35.35,35.348c-1.875,1.875-2.929,4.419-2.929,7.071
	c0,2.652,1.054,5.196,2.929,7.071l41.993,41.992l-39.756,39.756l-61.193-61.193c-3.906-3.905-10.237-3.904-14.143,0l-40.605,40.605
	c-1.875,1.875-2.929,4.419-2.929,7.071s1.054,5.196,2.929,7.071l12.896,12.896l0,0c-0.002,0.002,0,0-22.026,22.025
	c-0.002,0.002-0.003,0.003-0.005,0.005l-30.775,30.775l-30.416,30.416c-0.002,0.002-0.003,0.003-0.005,0.005
	s-0.003,0.004-0.005,0.005l-82.512,82.512c-15.23,15.23-15.23,40.013,0,55.246l12.725,12.725l-23.332,23.332
	c-1.876,1.876-2.929,4.419-2.929,7.071c0,2.652,1.054,5.196,2.929,7.071l18.183,18.183L2.929,494.927
	c-3.905,3.905-3.905,10.237,0,14.143c1.953,1.953,4.512,2.929,7.071,2.929s5.119-0.976,7.071-2.929l64.936-64.936l18.183,18.183
	c1.875,1.875,4.419,2.929,7.071,2.929c2.652,0,5.196-1.054,7.071-2.929l23.332-23.332l12.725,12.725
	c7.378,7.378,17.189,11.441,27.623,11.441c10.434,0,20.245-4.063,27.623-11.441l165.744-165.743l0,0l12.896,12.896
	c1.953,1.953,4.512,2.929,7.071,2.929c2.56,0,5.118-0.976,7.071-2.929l40.604-40.605c1.875-1.875,2.929-4.419,2.929-7.071
	s-1.054-5.196-2.929-7.071l-61.193-61.193l39.756-39.756l41.992,41.992c1.953,1.953,4.512,2.929,7.071,2.929
	c2.56,0,5.118-0.976,7.071-2.929l35.349-35.349C512.976,145.904,512.976,139.572,509.071,135.667z M298.706,213.293l27.56,27.561
	l-45.733,45.733l-86.091-86.091l16.637-16.636l46.266,46.266c1.953,1.953,4.512,2.929,7.071,2.929c2.56,0,5.118-0.976,7.071-2.929
	c3.905-3.905,3.905-10.237,0-14.142l-46.266-46.266l14.953-14.953L298.706,213.293z M107.261,441.102l-18.178-18.178
	c-0.002-0.002-0.003-0.003-0.005-0.005s-0.003-0.003-0.005-0.005l-18.178-18.178l16.261-16.26l36.364,36.364L107.261,441.102z
	 M191.491,437.566c-7.433,7.432-19.527,7.433-26.96,0l-19.488-19.488c-0.099-0.108-0.189-0.22-0.294-0.325l-50.506-50.507
	c-0.104-0.104-0.217-0.194-0.324-0.293l-19.488-19.488c-7.433-7.433-7.433-19.528,0-26.96l14.244-14.244l24.624,24.624
	c1.953,1.953,4.512,2.929,7.071,2.929s5.119-0.976,7.071-2.929c3.905-3.905,3.905-10.237,0-14.143l-24.624-24.624l16.457-16.457
	l46.265,46.265c1.953,1.953,4.512,2.929,7.071,2.929s5.119-0.977,7.071-2.929c3.905-3.905,3.905-10.237,0-14.142l-46.266-46.266
	l16.457-16.457l24.624,24.624c1.953,1.953,4.512,2.929,7.071,2.929c2.559,0,5.119-0.976,7.071-2.929
	c3.905-3.905,3.905-10.237,0-14.143l-24.624-24.624l16.278-16.278l86.091,86.091l-65.031,65.032c-3.905,3.905-3.905,10.237,0,14.143
	c1.953,1.953,4.512,2.929,7.071,2.929s5.119-0.977,7.071-2.929l65.031-65.032l16.827,16.826L191.491,437.566z M311.502,317.557
	l-16.826-16.827l45.733-45.734l16.826,16.826L311.502,317.557z M391.346,277.648l-12.896-12.896l0,0L247.247,133.549
	c-0.002-0.002-0.003-0.003-0.005-0.004l-12.892-12.892l26.462-26.462l61.188,61.188c0.002,0.002,0.003,0.004,0.005,0.005
	l34.611,34.611l61.192,61.192L391.346,277.648z M363.687,168.78l-20.469-20.469l39.756-39.757l20.469,20.469L363.687,168.78z
	 M466.65,163.944l-41.988-41.988c-0.002-0.002-0.003-0.004-0.005-0.005L390.046,87.34l-41.992-41.992l21.207-21.207l118.595,118.596
	L466.65,163.944z"/>
<g>
</g>
<g>
</g>
<g>
</g>
<g>
</g>
<g>
</g>
<g>
</g>
<g>
</g>
<g>
</g>
<g>
</g>
<g>
</g>
<g>
</g>
<g>
</g>
<g>
</g>
<g>
</g>
<g>
</g>
</svg>
