<svg height="512pt" viewBox="0 0 512 512" width="512pt" xmlns="http://www.w3.org/2000/svg"><path d="m346 122.300781c4.855469.703125 9.378906 1.910157 12.875 4.699219 9.304688 7.429688 9.320312 24.3125 16.746094 33.613281 7.394531 9.257813 23.863281 13.003907 29.0625 23.78125 5.117187 10.601563-2.164063 25.796875.503906 37.546875 2.589844 11.382813 15.804688 21.894532 15.804688 34.058594s-13.214844 22.679688-15.804688 34.058594c-2.667969 11.753906 4.613281 26.945312-.503906 37.546875-5.199219 10.777343-21.667969 14.527343-29.0625 23.785156-7.425782 9.300781-7.445313 26.183594-16.746094 33.609375-9.257812 7.390625-25.707031 3.679688-36.484375 8.878906-10.601563 5.113282-17.921875 20.339844-29.671875 23.011719-11.382812 2.585937-24.554688-7.898437-36.71875-7.898437s-25.339844 10.484374-36.71875 7.898437c-11.753906-2.671875-19.070312-17.898437-29.671875-23.011719-10.777344-5.199218-27.230469-1.488281-36.488281-8.878906-9.300782-7.425781-9.316406-24.308594-16.746094-33.609375-7.390625-9.257813-23.863281-13.007813-29.0625-23.785156-5.113281-10.601563 2.167969-25.792969-.503906-37.546875-2.585938-11.378906-15.800782-21.894532-15.800782-34.058594s13.214844-22.675781 15.800782-34.058594c2.671875-11.75-4.609375-26.945312.503906-37.546875 5.199219-10.777343 21.671875-14.523437 29.066406-23.78125 7.425782-9.300781 7.441406-26.183593 16.746094-33.613281 9.257812-7.390625 25.707031-3.675781 36.484375-8.875 10.601563-5.117188 17.921875-20.34375 29.671875-23.015625 11.378906-2.585937 24.554688 7.898437 36.71875 7.898437s25.339844-10.484374 36.71875-7.898437c10.847656 2.464844 17.921875 15.625 27.28125 21.660156zm0 0" fill="#74c26c"/><path d="m405.1875 290.058594c2.585938-11.378906 15.804688-21.894532 15.804688-34.058594s-13.21875-22.679688-15.804688-34.058594c-2.671875-11.75 4.613281-26.945312-.503906-37.546875-5.199219-10.777343-21.671875-14.527343-29.0625-23.78125-7.425782-9.304687-7.445313-26.183593-16.746094-33.613281-3.496094-2.792969-8.019531-4-12.875-4.699219l-21.136719-4.5c26.101563 28.5 42.035157 66.46875 42.035157 108.160157 0 88.476562-71.722657 160.199218-160.199219 160.199218-21.496094 0-41.992188-4.242187-60.722657-11.917968 1.710938 4.265624 3.835938 8.113281 7.144532 10.757812 9.257812 7.390625 25.710937 3.675781 36.488281 8.875 10.601563 5.117188 17.917969 20.34375 29.671875 23.015625 11.378906 2.585937 24.554688-7.898437 36.71875-7.898437s25.335938 10.484374 36.71875 7.898437c11.75-2.671875 19.070312-17.898437 29.671875-23.015625 10.777344-5.199219 27.226563-1.484375 36.484375-8.875 9.300781-7.429688 9.320312-24.3125 16.746094-33.613281 7.390625-9.257813 23.863281-13.003907 29.0625-23.78125 5.117187-10.601563-2.164063-25.796875.503906-37.546875zm0 0" fill="#63a65c"/><g fill="#9dcb3b"><path d="m225 176.210938c0 10.769531-8.730469 19.5-19.5 19.5s-19.5-8.730469-19.5-19.5c0-10.773438 8.730469-19.5 19.5-19.5s19.5 8.726562 19.5 19.5zm0 0"/><path d="m275.5 27c0 10.769531-8.730469 19.5-19.5 19.5s-19.5-8.730469-19.5-19.5 8.730469-19.5 19.5-19.5 19.5 8.730469 19.5 19.5zm0 0"/><path d="m351.429688 240.671875c0 10.769531-8.730469 19.5-19.5 19.5-10.769532 0-19.5-8.730469-19.5-19.5s8.730468-19.5 19.5-19.5c10.769531 0 19.5 8.730469 19.5 19.5zm0 0"/><path d="m236.257812 314.785156c0 16.988282-13.769531 30.757813-30.757812 30.757813s-30.757812-13.769531-30.757812-30.757813c0-16.984375 13.769531-30.753906 30.757812-30.753906s30.757812 13.769531 30.757812 30.753906zm0 0"/><path d="m467.464844 44.53125c-9.367188-9.367188-24.554688-9.367188-33.921875 0-9.371094 9.367188-9.371094 24.558594 0 33.925781 9.367187 9.367188 24.554687 9.367188 33.921875 0 9.371094-9.367187 9.371094-24.558593 0-33.925781zm0 0"/><path d="m504.5 256c0 10.769531-8.730469 19.5-19.5 19.5s-19.5-8.730469-19.5-19.5 8.730469-19.5 19.5-19.5 19.5 8.730469 19.5 19.5zm0 0"/><path d="m458.144531 422.660156c-9.800781-9.800781-25.691406-9.800781-35.492187 0-9.796875 9.800782-9.796875 25.691406 0 35.488282 9.800781 9.800781 25.691406 9.800781 35.492187 0 9.800781-9.796876 9.800781-25.6875 0-35.488282zm0 0"/><path d="m275.5 485c0 10.769531-8.730469 19.5-19.5 19.5s-19.5-8.730469-19.5-19.5 8.730469-19.5 19.5-19.5 19.5 8.730469 19.5 19.5zm0 0"/><path d="m107.859375 404.136719c-7.617187-7.617188-19.964844-7.617188-27.578125 0-7.617188 7.613281-7.617188 19.960937 0 27.578125 7.613281 7.613281 19.960938 7.613281 27.578125 0 7.613281-7.617188 7.613281-19.964844 0-27.578125zm0 0"/><path d="m46.5 256c0 10.769531-8.730469 19.5-19.5 19.5s-19.5-8.730469-19.5-19.5 8.730469-19.5 19.5-19.5 19.5 8.730469 19.5 19.5zm0 0"/><path d="m89.695312 53.300781c-10.050781-10.050781-26.34375-10.050781-36.394531 0s-10.050781 26.347657 0 36.398438 26.34375 10.050781 36.394531 0c10.050782-10.050781 10.050782-26.347657 0-36.398438zm0 0"/></g><path d="m232.5 176.210938c0-14.890626-12.113281-27-27-27s-27 12.109374-27 27c0 14.886718 12.113281 27 27 27s27-12.113282 27-27zm-39 0c0-6.617188 5.382812-12 12-12s12 5.382812 12 12c0 6.613281-5.382812 12-12 12s-12-5.386719-12-12zm0 0"/><path d="m304.929688 240.667969c0 14.890625 12.113281 27 27 27 14.886718 0 27-12.109375 27-27 0-14.886719-12.113282-27-27-27-14.886719 0-27 12.113281-27 27zm27-12c6.617187 0 12 5.382812 12 12 0 6.617187-5.382813 12-12 12-6.617188 0-12-5.382813-12-12 0-6.617188 5.382812-12 12-12zm0 0"/><path d="m167.242188 314.785156c0 21.097656 17.164062 38.257813 38.257812 38.257813s38.257812-17.160157 38.257812-38.257813c0-21.09375-17.164062-38.253906-38.257812-38.253906s-38.257812 17.160156-38.257812 38.253906zm38.257812-23.253906c12.824219 0 23.257812 10.433594 23.257812 23.253906 0 12.824219-10.433593 23.257813-23.257812 23.257813s-23.257812-10.433594-23.257812-23.257813c0-12.824218 10.433593-23.253906 23.257812-23.253906zm0 0"/><path d="m485 229c-12.230469 0-22.171875 8.328125-25.480469 19.5h-32.859375c-4.238281-14.003906-12.445312-20.6875-14.15625-28.222656-2.253906-9.902344 5.289063-25.96875-1.066406-39.140625-6.390625-13.253907-23.84375-17.550781-29.953125-25.203125-1.964844-2.457032-3.34375-6.164063-4.683594-10.128906l57.792969-57.789063c4.839844 2.910156 10.121094 4.964844 15.914062 4.964844 8.410157 0 16.316407-3.273438 22.265626-9.222657 12.277343-12.277343 12.277343-32.253906 0-44.53125-12.304688-12.304687-32.222657-12.308593-44.53125 0-10.398438 10.394532-11.441407 26.066407-4.230469 38.15625l-53.191407 53.191407c-4.617187-8.882813-10.464843-13.777344-23.746093-15.695313-4.101563-.59375-7.902344 2.25-8.496094 6.347656-.59375 4.097657 2.25 7.902344 6.351563 8.496094 10.648437 1.539063 12.234374 4.484375 16.589843 17.832032 5.484375 16.792968 8.597657 20.648437 23.648438 29.640624 14.511719 8.671876 15.152343 10.316407 12.972656 26.6875-2.371094 17.792969-1.113281 22.585938 8.328125 36.894532 9.351562 14.183594 9.351562 16.265625 0 30.445312-9.476562 14.367188-10.6875 19.171875-8.328125 36.898438 2.183594 16.398437 1.511719 18.027344-12.976563 26.6875-15.042968 8.988281-18.160156 12.84375-23.644531 29.640625-5.210937 15.957031-6.621093 17.011719-23.195312 18.550781-17.644531 1.632812-22.089844 3.835938-34.113281 16.40625-11.710938 12.242188-13.476563 12.503906-28.84375 6.769531-6.171876-2.304687-12.550782-4.683593-19.363282-4.683593-13.390625 0-26.929687 9.925781-35.058594 8.082031-4.375-.992188-8.636718-5.449219-13.148437-10.167969-11.992187-12.539062-16.410156-14.765625-34.117187-16.410156-16.578126-1.535156-17.988282-2.597656-23.195313-18.550782-5.488281-16.796874-8.601563-20.648437-23.648437-29.640624-14.507813-8.671876-15.152344-10.308594-12.972657-26.6875 2.359375-17.703126 1.152344-22.523438-8.328125-36.894532-9.351562-14.179687-9.351562-16.265625 0-30.449218 9.476563-14.363282 10.691406-19.171876 8.328125-36.894532-2.179687-16.375-1.535156-18.015625 12.976563-26.6875 5.546875-3.3125 11.28125-6.742187 15.402344-11.902344 4.144531-5.191406 6.226562-11.570312 8.242187-17.738281 2.007813-6.152343 3.90625-11.960937 7.324219-14.691406 3.382812-2.703125 9.449218-3.261719 15.871094-3.859375 17.664062-1.636719 22.101562-3.84375 34.117187-16.40625 11.6875-12.222656 13.4375-12.515625 28.839844-6.769531 16.769531 6.257812 21.957031 6.257812 38.730469 0 18.910156-7.054688 17.59375-3.933594 33.226562 11.230469 2.96875 2.882812 7.71875 2.8125 10.601562-.160157 2.886719-2.972656 2.816407-7.722656-.160156-10.605469-1.308594-1.269531-2.605468-2.628906-3.984375-4.066406-16.269531-17-24.238281-18.167968-44.925781-10.449218-2.289062.851562-4.488281 1.636718-6.621094 2.296874v-41.589843c11.167969-3.308594 19.496094-13.25 19.496094-25.480469 0-14.886719-12.113281-27-27-27s-27 12.113281-27 27c0 12.230469 8.328125 22.171875 19.5 25.480469v41.589843c-2.132812-.660156-4.332031-1.445312-6.621094-2.296874-20.683594-7.71875-28.660156-6.554688-44.925781 10.453124-3.679687 3.84375-7.152344 7.476563-10.601563 9.140626-3.578124 1.726562-8.667968 2.199218-14.058593 2.699218-15.085938 1.398438-24.277344 3.355469-31.113281 16.507813l-41.949219-41.949219c7.867187-12.800781 6.847656-29.546875-4.230469-40.628906-12.957031-12.957032-34.042969-12.957032-47.003906 0-26.835938 26.839844 5.898437 72.570312 40.628906 51.234375l46.574219 46.574219c-3.542969 10.480468-4.878907 11.832031-16.058594 18.511718-19.878906 11.878906-23.121094 19.222656-20.148437 41.542969.71875 5.394531 1.398437 10.492187.503906 14.417969-1.710938 7.535156-9.917969 14.214844-14.15625 28.222656h-32.859375c-3.308594-11.171875-13.25-19.5-25.480469-19.5-14.886719 0-27 12.113281-27 27s12.113281 27 27 27c12.230469 0 22.171875-8.328125 25.480469-19.5h32.859375c4.238281 14.007812 12.445312 20.683594 14.160156 28.222656 2.25 9.898438-5.292969 25.972656 1.0625 39.140625 6.394531 13.253907 23.84375 17.550781 29.957031 25.203125 1.960938 2.460938 3.339844 6.164063 4.679688 10.128906l-28.410157 28.410157c-10.238281-5.558594-23.160156-4.417969-31.808593 4.230469-17.019531 17.023437-4.800781 46.078124 19.09375 46.078124 20.035156 0 33.425781-21.089843 23.320312-39.699218l23.789063-23.789063c11.132812 21.421875 33.460937 13.558594 45.167968 19.207031 8.847657 4.269532 16.757813 20.273438 31.269532 23.570313 10.816406 2.460937 21.210937-3.273437 30.878906-6.273437v41.589843c-11.171875 3.308594-19.5 13.25-19.5 25.480469 0 14.886719 12.113281 27 27 27s27-12.113281 27-27c0-12.230469-8.328125-22.171875-19.5-25.480469v-41.589843c9.808594 3.039062 20.082031 8.730468 30.882812 6.273437 14.472657-3.289063 22.484376-19.335937 31.265626-23.570313 11.851562-5.71875 33.976562 2.332032 45.171874-19.207031l7.875 7.878907c2.933594 2.925781 7.679688 2.925781 10.609376 0 2.929687-2.929688 2.929687-7.679688 0-10.609376l-12.503907-12.503906c3.546875-10.488281 4.890625-11.832031 16.058594-18.507812 19.875-11.878906 23.121094-19.222656 20.148437-41.542969-1.867187-14.011719-1.484374-15.34375 5.980469-26.660156 3.128907-4.746094 5.910157-10.167969 7.667969-15.980469h32.859375c3.3125 11.171875 13.253906 19.5 25.484375 19.5 14.886719 0 27-12.113281 27-27s-12.113281-27-27-27zm-34.492188-183.996094c14.65625 0 21.976563 17.832032 11.660157 28.148438-6.445313 6.441406-16.875 6.445312-23.320313 0-10.320312-10.320313-2.992187-28.148438 11.660156-28.148438zm-206.507812-18.003906c0-6.617188 5.382812-12 12-12s12 5.382812 12 12-5.382812 12-12 12-12-5.382812-12-12zm-185.394531 57.394531c-7.113281-7.109375-7.113281-18.679687 0-25.792969 7.109375-7.109374 18.679687-7.109374 25.789062 0 7.113281 7.113282 7.113281 18.683594 0 25.792969-7.109375 7.113281-18.679687 7.109375-25.789062 0zm-31.605469 183.605469c-6.617188 0-12-5.382812-12-12s5.382812-12 12-12 12 5.382812 12 12-5.382812 12-12 12zm75.558594 158.414062c-4.679688 4.679688-12.292969 4.679688-16.972656 0-7.566407-7.566406-2.132813-20.480468 8.484374-20.480468 10.613282 0 16.0625 12.90625 8.488282 20.480468zm165.441406 58.585938c0 6.617188-5.382812 12-12 12s-12-5.382812-12-12 5.382812-12 12-12 12 5.382812 12 12zm217-217c-6.617188 0-12-5.382812-12-12s5.382812-12 12-12 12 5.382812 12 12-5.382812 12-12 12zm0 0"/><path d="m423.734375 413.128906-12.804687-12.808594c-2.933594-2.925781-7.679688-2.925781-10.609376 0-2.929687 2.929688-2.929687 7.679688 0 10.609376l12.808594 12.804687c-7.625 12.539063-6.601562 28.890625 4.226563 39.71875 12.738281 12.738281 33.359375 12.742187 46.097656 0 12.738281-12.738281 12.738281-33.355469 0-46.097656-10.828125-10.828125-27.175781-11.851563-39.71875-4.226563zm29.113281 39.71875c-6.878906 6.875-18.003906 6.875-24.882812 0-6.859375-6.859375-6.859375-18.023437 0-24.882812s18.019531-6.859375 24.882812 0c6.875 6.875 6.878906 18.003906 0 24.882812zm0 0"/></svg>