<?xml version="1.0" encoding="iso-8859-1"?>
<!-- Generator: Adobe Illustrator 19.0.0, SVG Export Plug-In . SVG Version: 6.00 Build 0)  -->
<svg version="1.1" id="Layer_1" xmlns="http://www.w3.org/2000/svg" xmlns:xlink="http://www.w3.org/1999/xlink" x="0px" y="0px"
	 viewBox="0 0 512.001 512.001" style="enable-background:new 0 0 512.001 512.001;" xml:space="preserve">
<polygon style="fill:#FE834D;" points="503.83,397.073 370.928,503.83 427.575,397.073 370.928,290.316 "/>
<path style="fill:#FEA680;" d="M210.823,80.609c-27.165-20.72-59.674-32.132-91.538-32.132H8.171v132.902h111.115
	c6.035,0,16.959,8.333,18.555,14.153l42.784,156.073l85.39-191.208C257.59,129.666,237.99,101.331,210.823,80.609z"/>
<polygon style="fill:#FEDC3D;" points="503.83,114.928 370.928,221.686 427.575,114.928 370.928,8.171 "/>
<path style="fill:#FEA680;" d="M460.256,397.073l-89.328-106.757v40.306h-43.574c-5.654,0-15.589-7.31-18.138-13.007
	l-59.577,123.229c24.031,14.717,51.091,22.681,77.715,22.681h43.574v40.306L460.256,397.073z"/>
<path style="fill:#FE834D;" d="M309.216,317.615l-11.689,42.627c-8.192,29.903-24.892,57.834-47.888,80.602
	c-4.739-2.887-9.358-6.046-13.824-9.456c-27.169-20.72-46.766-49.054-55.187-79.785l85.384-191.205l42.79,156.073
	C308.9,316.842,309.041,317.223,309.216,317.615z"/>
<path style="fill:#FFE777;" d="M460.256,114.928L370.928,8.171v40.306h-43.574c-31.864,0-64.373,11.412-91.538,32.132
	c-27.167,20.721-46.766,49.056-55.19,79.787l-42.784,156.073c-1.596,5.82-12.521,14.153-18.555,14.153H8.171v132.902h111.115
	c31.864,0,64.373-11.412,91.538-32.132c27.167-20.721,46.766-49.056,55.19-79.787l42.784-156.073
	c1.596-5.82,12.521-14.153,18.555-14.153h43.574v40.306L460.256,114.928z"/>
<circle cx="86.605" cy="406.877" r="8.17"/>
<circle cx="130.179" cy="385.09" r="8.17"/>
<path d="M316.655,197.768c0.973-2.589,8.023-7.967,10.699-8.218h35.404v32.136c0,3.144,1.804,6.009,4.638,7.367
	c2.835,1.361,6.196,0.973,8.648-0.998l132.902-106.757c1.93-1.55,3.053-3.892,3.053-6.369s-1.123-4.819-3.053-6.369L376.045,1.801
	c-2.451-1.968-5.814-2.358-8.648-0.998c-2.835,1.36-4.638,4.223-4.638,7.367v32.136h-35.404c-33.644,0-67.912,12.006-96.493,33.806
	c-28.58,21.8-49.22,51.676-58.115,84.124l-18.327,66.862l-8.697-31.728c-2.583-9.42-16.665-20.162-26.434-20.162H16.341V56.647
	h102.945c25.104,0,50.505,7.423,73.457,21.468c3.849,2.354,8.877,1.143,11.233-2.704c2.355-3.849,1.144-8.878-2.705-11.235
	c-25.519-15.616-53.869-23.87-81.985-23.87H8.171c-4.512,0-8.17,3.658-8.17,8.17v132.902c0,4.513,3.658,8.17,8.17,8.17
	l111.036-0.002c2.755,0.253,9.805,5.631,10.755,8.145l15.984,58.311l-15.961,58.231c-0.973,2.589-8.023,7.966-10.699,8.218H8.171
	c-4.512,0-8.17,3.657-8.17,8.17v132.902c0,4.513,3.658,8.17,8.17,8.17h111.115c33.644,0,67.912-12.006,96.493-33.806
	c28.58-21.8,49.22-51.676,58.115-84.124L316.655,197.768z M205.869,424.896c-25.75,19.641-56.5,30.457-86.584,30.457H16.341V338.792
	h102.945c9.769,0,23.852-10.741,26.436-20.164l42.784-156.073c7.953-29.013,26.516-55.808,52.266-75.451
	c25.749-19.639,56.499-30.456,86.582-30.456h43.574c4.512,0,8.17-3.657,8.17-8.17V25.214l111.686,89.714l-111.686,89.715v-23.264
	c0-4.513-3.658-8.17-8.17-8.17h-43.574c-9.769,0-23.852,10.741-26.436,20.164l-42.783,156.073
	C250.181,378.458,231.619,405.254,205.869,424.896z"/>
<path d="M508.947,390.705L376.045,283.947c-2.451-1.97-5.814-2.358-8.648-0.998c-2.835,1.358-4.638,4.223-4.638,7.367v32.135
	l-35.326,0.002c-2.746-0.252-9.765-5.6-10.769-8.197c-1.215-4.319-5.689-6.85-10.025-5.667c-4.352,1.194-6.912,5.689-5.719,10.041
	c2.584,9.421,16.666,20.162,26.436,20.162h43.574c4.512,0,8.17-3.657,8.17-8.17v-23.263l111.686,89.714l-111.686,89.715v-23.264
	c0-4.513-3.658-8.17-8.17-8.17h-43.574c-25.104,0-50.505-7.423-73.457-21.468c-3.849-2.353-8.878-1.144-11.234,2.704
	c-2.355,3.849-1.144,8.878,2.705,11.235c25.519,15.616,53.87,23.87,81.985,23.87h35.404v32.136c0,3.144,1.804,6.009,4.638,7.367
	c1.124,0.539,2.33,0.803,3.531,0.803c1.827,0,3.638-0.613,5.118-1.801l132.902-106.757c1.93-1.55,3.053-3.892,3.053-6.369
	S510.877,392.254,508.947,390.705z"/>
<g>
</g>
<g>
</g>
<g>
</g>
<g>
</g>
<g>
</g>
<g>
</g>
<g>
</g>
<g>
</g>
<g>
</g>
<g>
</g>
<g>
</g>
<g>
</g>
<g>
</g>
<g>
</g>
<g>
</g>
</svg>
