<svg height="512pt" viewBox="-1 0 512 512.00057" width="512pt" xmlns="http://www.w3.org/2000/svg"><path d="m313.21875 199.367188c-7.507812-7.507813-13.539062-15.886719-18.007812-24.832032l-25.351563 25.355469c-4.042969 4.039063-4.042969 10.585937 0 14.625l28.207031 28.210937c4.039063 4.039063 10.589844 4.039063 14.628906 0l25.351563-25.351562c-8.941406-4.46875-17.320313-10.5-24.828125-18.007812zm0 0" fill="#bdbdbd"/><path d="m316.582031 202.566406-22.023437 22.023438c-4.039063 4.039062-10.589844 4.039062-14.628906 0l-10.070313-10.074219 28.207031 28.210937c4.039063 4.039063 10.589844 4.039063 14.628906 0l25.355469-25.351562c-7.632812-3.816406-14.851562-8.773438-21.46875-14.808594zm0 0" fill="#a3a3a3"/><path d="m254.058594 314.277344c17.953125-49.835938 39.363281-67.65625 44.324218-71.265625-.105468-.09375-.214843-.183594-.316406-.28125l-27.046875-27.050781c-12.707031 10.710937-34.972656 35.242187-53.105469 85.578124-16.601562 46.082032-45.875 64.347657-89.496093 64.3125-93.472657-.074218-126.191407 129.292969-120.136719 135.347657 1.117188 1.117187 2.390625 2.113281 3.816406 2.957031 9.128906 5.398438 51.058594-103.902344 125.640625-101.035156 46.980469 1.804687 92.769531-23.199219 116.320313-88.5625zm0 0" fill="#e0e0e0"/><path d="m284.792969 229.453125v.003906l-13.773438-13.777343zm0 0" fill="#c9c9c9"/><path d="m298.066406 242.726562-12.976562-12.976562c-4.988282 3.636719-26.371094 21.46875-44.304688 71.253906-23.546875 65.363282-69.339844 90.367188-116.320312 88.5625-56.480469-2.167968-94.226563 59.96875-113.191406 87.925782-3.605469 12.824218-4.496094 21.925781-2.992188 23.425781 1.117188 1.117187 2.390625 2.113281 3.816406 2.957031 9.128906 5.398438 51.054688-103.902344 125.640625-101.035156 46.980469 1.804687 92.769531-23.199219 116.320313-88.5625 17.953125-49.835938 39.363281-67.65625 44.324218-71.265625-.105468-.097657-.214843-.183594-.316406-.285157zm0 0" fill="#c9c9c9"/><path d="m370.8125 28.398438c42.78125-20.6875 92.148438-27.566407 116.542969-3.167969 35.777343 35.777343 4.308593 125.25-39.355469 168.914062-43.664062 43.664063-99.003906 41-134.78125 5.222657-35.777344-35.777344-38.441406-91.121094 5.222656-134.78125 8.117188-8.117188 17.816406-15.808594 28.457032-22.730469 0 0 11.71875-8.011719 23.914062-13.457031zm0 0" fill="#e0e0e0"/><path d="m487.355469 25.230469c-4.140625-4.144531-9.015625-7.363281-14.441407-9.785157 18.496094 41.453126-10.566406 115.847657-49.164062 154.445313-38.605469 38.605469-86.335938 40.992187-121.605469 16.300781 3.234375 4.621094 6.929688 9.03125 11.074219 13.175782 35.777344 35.777343 91.117188 38.441406 134.78125-5.222657 43.664062-43.664062 75.132812-133.140625 39.355469-168.914062zm0 0" fill="#c9c9c9"/><path d="m234.804688 102.65625c-22.523438 22.519531-51.066407 21.148438-69.519532 2.695312-18.453125-18.453124-19.828125-47 2.691406-69.519531 22.523438-22.523437 68.671876-38.753906 87.125-20.300781 18.453126 18.453125 2.222657 64.605469-20.296874 87.125zm0 0" fill="#e0e0e0"/><path d="m255.101562 15.53125c-3.347656-3.347656-7.617187-5.542969-12.484374-6.773438 5.5625 21.945313-8.644532 56.203126-27.074219 74.636719-18.433594 18.433594-40.902344 20.847657-58.570313 11.003907 2.183594 3.917968 4.964844 7.605468 8.3125 10.953124 18.453125 18.453126 47 19.824219 69.519532-2.695312 22.519531-22.519531 38.75-68.671875 20.296874-87.125zm0 0" fill="#c9c9c9"/><path d="m165.285156 105.351562c-3.875-3.875-6.984375-8.195312-9.289062-12.808593l-13.078125 13.078125c-2.082031 2.082031-2.082031 5.460937 0 7.542968l14.550781 14.550782c2.082031 2.085937 5.460938 2.085937 7.546875 0l13.074219-13.074219c-4.609375-2.308594-8.933594-5.417969-12.804688-9.289063zm0 0" fill="#bdbdbd"/><path d="m109.101562 200.585938c-10.402343 7.21875-22.289062 10.175781-34.328124 9.714843-38.46875-1.480469-60.09375 54.898438-64.804688 52.109375-.734375-.433594-1.390625-.945312-1.964844-1.523437-3.125-3.125 13.75-69.851563 61.964844-69.8125 22.496094.019531 37.597656-9.402344 46.160156-33.171875 9.351563-25.960938 20.835938-38.613282 27.390625-44.136719l13.949219 13.949219c.054688.050781.109375.097656.164062.148437-2.558593 1.859375-13.601562 11.050781-22.863281 36.753907-3.390625 9.414062-7.675781 17.199218-12.621093 23.519531 0 0-6.003907 8.320312-13.046876 12.449219zm0 0" fill="#e0e0e0"/><path d="m474.515625 344.621094c-22.519531 22.519531-51.066406 21.148437-69.519531 2.691406-18.453125-18.453125-19.824219-46.996094 2.695312-69.515625 22.519532-22.523437 68.671875-38.753906 87.125-20.300781s2.222656 64.605468-20.300781 87.125zm0 0" fill="#e0e0e0"/><path d="m494.816406 257.496094c-3.550781-3.546875-8.128906-5.804688-13.363281-6.988282 4.976563 21.976563-9.101563 55.570313-27.289063 73.761719-18.1875 18.1875-40.304687 20.78125-57.863281 11.390625 2.238281 4.179688 5.148438 8.105469 8.699219 11.65625 18.453125 18.453125 46.996094 19.824219 69.519531-2.695312 22.519531-22.519532 38.75-68.671875 20.296875-87.125zm0 0" fill="#c9c9c9"/><path d="m404.996094 347.316406c-3.871094-3.875-6.980469-8.195312-9.285156-12.808594l-13.078126 13.078126c-2.082031 2.082031-2.082031 5.460937 0 7.542968l14.550782 14.550782c2.082031 2.085937 5.460937 2.085937 7.542968 0l13.078126-13.078126c-4.613282-2.304687-8.933594-5.414062-12.808594-9.285156zm0 0" fill="#bdbdbd"/><path d="m349.410156 442.128906c-10.546875 7.523438-22.652344 10.605469-34.921875 10.136719-38.46875-1.480469-60.09375 54.894531-64.804687 52.109375-.734375-.433594-1.390625-.949219-1.96875-1.523438-3.121094-3.125 13.753906-69.851562 61.964844-69.8125 22.5.019532 37.597656-9.402343 46.160156-33.171874 9.355468-25.960938 20.839844-38.613282 27.390625-44.136719l13.953125 13.949219c.050781.050781.109375.097656.160156.144531-2.558594 1.863281-13.601562 11.054687-22.859375 36.757812-3.390625 9.414063-7.679687 17.199219-12.621094 23.519531 0 0-7.453125 8.851563-12.453125 12.027344zm0 0" fill="#e0e0e0"/><path d="m299.226562 252.011719c7.246094 2.664062 14.152344.558593 18.722657-4.011719l21.667969-21.667969c40.058593 17.265625 82.421874 4.300781 113.636718-26.914062 22.535156-22.539063 42.226563-57.300781 51.386719-90.722657 26.324219-96.03125-39.949219-130.378906-130.53125-90.089843-3.773437 1.675781-5.46875 6.09375-3.792969 9.863281 1.679688 3.773438 6.097656 5.46875 9.863282 3.792969 43.570312-19.378907 83.550781-20.070313 101.859374-1.757813 32.9375 32.9375.109376 118.878906-39.355468 158.34375-92.871094 92.871094-226.957032-52.824218-91.746094-140.734375 3.460938-2.25 4.441406-6.878906 2.191406-10.339843-2.25-3.460938-6.878906-4.441407-10.339844-2.191407-62.59375 40.703125-74.839843 94.804688-56.539062 137.300781l-21.707031 21.714844c-4.960938 4.960938-6.886719 12.609375-3.496094 19.980469-13.207031 12.65625-33.570313 37.984375-50.195313 84.136719-15.585937 43.257812-42.007812 59.070312-82.546874 59.375-69.578126 0-104.476563 66.042968-116.253907 94.449218-4.574219 11.035157-8.226562 22.421876-10.28125 32.066407-3.324219 15.582031-2.390625 20.4375 6.492188 25.691406 5.929687 3.507813 11.304687-.535156 15.652343-5.925781 15.261719-18.902344 54.527344-96.347656 113.503907-94.074219 60.367187 2.328125 102.917969-35.980469 123.636719-93.496094 14.402343-39.980469 30.71875-58.074219 38.171874-64.789062zm-5.707031-65.257813c8.398438 13.214844 18.796875 23.265625 31.140625 31.359375.398438.261719.726563.652344 1.132813.910157-18.40625 17.71875-18.0625 19.25-20.445313 19.25-2.375 0-1.515625-1.050782-30.238281-29.050782-.730469-.730468-.84375-1.585937-.84375-2.027344 0-2.402343 1.648437-2.15625 19.253906-20.441406zm-155.527343 208.609375c-57.128907-2.164062-95.386719 54.953125-115.933594 85.65625-2.070313 3.089844-4.261719 6.367188-6.230469 9.175781 3.0625-16.339843 14.753906-52.0625 39.179687-80.511718 19.410157-22.609375 43.582032-36.652344 73.5-36.652344 48.746094 0 79.382813-22.007812 96.402344-69.253906 15.414063-42.777344 33.792969-66.097656 45.824219-77.792969l16.613281 16.617187c-9.699218 9.367188-26.15625 29.726563-40.351562 69.132813-20.121094 55.855469-58.84375 85.566406-109.003906 83.628906zm0 0"/><path d="m10.300781 270.019531c6.25 0 10.433594-7.46875 14.207031-13.101562 9.367188-13.996094 26.800782-40.050781 49.949219-39.160157 14.238281.539063 27.675781-3.273437 38.875-11.042968 3.390625-2.355469 4.230469-7.007813 1.878907-10.398438-2.351563-3.390625-7.007813-4.234375-10.402344-1.878906-8.628906 5.992188-18.652344 8.8125-29.777344 8.382812-21.898438-.832031-38.496094 13.714844-50.253906 28.175782 9.546875-17.714844 25.109375-33.03125 45.21875-32.457032 26.511718 0 43.890625-12.46875 53.128906-38.113281 6.71875-18.644531 14.472656-29.816406 20.273438-36.191406.105468.105469 3.695312 3.695313 3.46875 3.46875-14.449219 16.070313-17.890626 34.164063-24.433594 46.273437-1.960938 3.632813-.605469 8.167969 3.027344 10.125 3.628906 1.960938 8.164062.609376 10.125-3.023437 7.40625-13.714844 10.628906-31.8125 23.96875-45.027344.59375.082031 1.054687.683594 1.65625.683594 8.207031 0 10.925781-6.636719 18.671874-13.363281 22.128907 8.289062 43.816407.917968 60.171876-15.441406 23.484374-23.484376 43.351562-74.636719 20.296874-97.691407-23.035156-23.039062-74.167968-3.222656-97.691406 20.300781-16.449218 16.449219-23.691406 38.199219-15.453125 60.183594-7.65625 8.734375-15.117187 11.355469-12.800781 21.476563-32.59375 32.753906-18.871094 70.761719-64.515625 71.394531-38.066406 0-56.949219 35.625-63.300781 50.945312-2.441406 5.890626-4.398438 11.988282-5.5 17.171876-1.394532 6.542968-1.617188 11.242187 1.597656 14.453124 2.046875 2.046876 4.71875 3.855469 7.613281 3.855469zm162.929688-228.914062c20.589843-20.589844 62.285156-34.570313 76.554687-20.300781 18.179688 18.179687-9.640625 90.519531-51.398437 91.082031-29.828125.492187-57.609375-38.328125-25.15625-70.78125zm-7.097657 74.882812-4.921874 4.921875-11.527344-11.527344 4.921875-4.921874c3.25 4.316406 7.203125 8.273437 11.527343 11.527343zm0 0"/><path d="m500.066406 252.203125c-23.039062-23.039063-74.167968-3.222656-97.691406 20.300781-16.449219 16.449219-23.691406 38.199219-15.453125 60.183594-7.660156 8.738281-15.117187 11.347656-12.800781 21.476562-32.605469 32.765626-18.863282 70.761719-64.515625 71.394532-38.066407 0-56.949219 35.625-63.300781 50.949218-2.441407 5.886719-4.394532 11.984376-5.5 17.171876-1.746094 8.1875-1.8125 13.070312 5.042968 17.121093 4.742188 2.804688 9.292969.359375 12.730469-3.898437 8.035156-9.945313 27.523437-48.261719 55.589844-47.179688 14.523437.5625 28.207031-3.425781 39.550781-11.519531 3.359375-2.398437 4.136719-7.066406 1.738281-10.421875-2.394531-3.359375-7.0625-4.140625-10.421875-1.742188-8.746094 6.242188-18.964844 9.179688-30.292968 8.75-21.914063-.847656-38.492188 13.710938-50.253907 28.175782 9.550781-17.71875 25.109375-33.035156 45.222657-32.460938 26.507812 0 43.890624-12.46875 53.128906-38.113281 6.714844-18.644531 14.472656-29.816406 20.273437-36.191406.101563.105469 3.691407 3.695312 3.46875 3.46875-14.847656 16.511719-17.816406 34.59375-25.132812 47.539062-2.03125 3.59375-.765625 8.152344 2.828125 10.183594 3.59375 2.027344 8.152344.761719 10.183594-2.832031 8.152343-14.429688 11.265624-33.128906 24.804687-46.542969.59375.082031 1.058594.683594 1.65625.683594 8.207031 0 10.929687-6.636719 18.675781-13.363281 63.308594 23.710937 112.296875-81.300782 80.46875-113.132813zm-94.222656 105.75-4.917969 4.921875-11.527343-11.527344 4.921874-4.921875c3.1875 4.234375 7.121094 8.207031 11.523438 11.527344zm63.355469-18.625c-41.363281 41.363281-97.445313-15.070313-56.253907-56.257813 20.652344-20.652343 62.230469-34.621093 76.554688-20.300781 14.21875 14.222657.398438 55.859375-20.300781 76.558594zm0 0"/></svg>