<svg height="512pt" viewBox="0 0 512 512" width="512pt" xmlns="http://www.w3.org/2000/svg"><path d="m504.484375 223.9375c0-46.441406-30.382813-85.777344-72.351563-99.238281.128907-1.640625.210938-3.292969.210938-4.964844 0-35.414063-28.710938-64.125-64.125-64.125-7.742188 0-15.160156 1.371094-22.03125 3.886719-18.035156-31.078125-51.667969-51.980469-90.1875-51.980469-42.511719 0-79.074219 25.460937-95.28125 61.964844-7.515625-3.742188-15.984375-5.855469-24.953125-5.855469-24.296875 0-44.984375 15.445312-52.785156 37.054688-43.574219 12.476562-75.464844 52.605468-75.464844 100.1875 0 43.972656 27.234375 81.578124 65.757813 96.878906-1.054688 4.621094-1.632813 9.421875-1.632813 14.363281 0 35.414063 28.710937 64.125 64.125 64.125 15.050781 0 28.878906-5.199219 39.820313-13.878906 19.113281 23.160156 48.039062 37.925781 80.414062 37.925781 33.078125 0 62.550781-15.414062 81.640625-39.449219 10.058594 9.539063 23.636719 15.402344 38.59375 15.402344 29.980469 0 54.464844-23.511719 56.027344-53.101563 41.902343-13.5 72.222656-52.804687 72.222656-99.195312zm0 0" fill="#fff6df"/><path d="m408.296875 344.171875c-14.957031 0-28.535156-5.863281-38.59375-15.402344-19.089844 24.035157-48.5625 39.449219-81.640625 39.449219-32.375 0-61.300781-14.765625-80.414062-37.925781-10.941407 8.679687-24.769532 13.878906-39.820313 13.878906-35.414063 0-64.125-28.710937-64.125-64.125 0-4.941406.578125-9.742187 1.632813-14.363281-38.519532-15.300782-65.757813-52.90625-65.757813-96.878906 0-20.570313 5.96875-39.738282 16.253906-55.890626-29.042969 18.492188-48.316406 50.96875-48.316406 87.953126 0 43.972656 27.234375 81.578124 65.757813 96.878906-1.054688 4.621094-1.632813 9.421875-1.632813 14.363281 0 35.414063 28.710937 64.125 64.125 64.125 15.050781 0 28.878906-5.199219 39.820313-13.878906 19.113281 23.160156 48.039062 37.925781 80.414062 37.925781 33.078125 0 62.550781-15.414062 81.640625-39.449219 10.058594 9.539063 23.636719 15.402344 38.59375 15.402344 23.839844 0 44.195313-14.875 52.320313-35.847656-6.285157 2.4375-13.113282 3.785156-20.257813 3.785156zm0 0" fill="#ffedbf"/><path d="m95.6875 480.4375c0-13.28125-14.355469-24.046875-32.0625-24.046875s-32.0625 10.765625-32.0625 24.046875 14.355469 24.046875 32.0625 24.046875 32.0625-10.765625 32.0625-24.046875zm0 0" fill="#fff6df"/><path d="m167.828125 432.34375c0-13.28125-14.355469-24.046875-32.0625-24.046875s-32.0625 10.765625-32.0625 24.046875 14.355469 24.046875 32.0625 24.046875 32.0625-10.765625 32.0625-24.046875zm0 0" fill="#fff6df"/><path d="m489.464844 156.644531c-2.503906-3.308593-7.21875-3.96875-10.527344-1.464843-3.3125 2.503906-3.96875 7.214843-1.464844 10.527343 12.753906 16.875 19.496094 37.011719 19.496094 58.230469 0 42.140625-26.929688 79.128906-67.011719 92.042969-2.964843.957031-5.035156 3.644531-5.199219 6.757812-1.363281 25.785157-22.675781 45.980469-48.523437 45.980469-12.480469 0-24.351563-4.738281-33.421875-13.339844-1.53125-1.449218-3.597656-2.1875-5.699219-2.042968-2.101562.148437-4.046875 1.171874-5.355469 2.820312-18.480468 23.265625-46.09375 36.609375-75.757812 36.609375-28.964844 0-56.164062-12.828125-74.617188-35.195313-2.609374-3.15625-7.261718-3.648437-10.46875-1.101562-10.101562 8.015625-22.253906 12.253906-35.148437 12.253906-31.214844 0-56.609375-25.398437-56.609375-56.613281 0-4.226563.484375-8.496094 1.445312-12.683594.828126-3.613281-1.105468-7.292969-4.550781-8.660156-37.070312-14.722656-61.019531-50.007813-61.019531-89.898437 0-42.929688 28.792969-81.160157 70.019531-92.960938 2.316407-.664062 4.179688-2.402344 5-4.675781 6.929688-19.195313 25.300781-32.089844 45.714844-32.089844 7.578125 0 14.847656 1.703125 21.605469 5.066406 1.835937.914063 3.96875 1.039063 5.894531.34375 1.929687-.695312 3.488281-2.148437 4.324219-4.019531 15.503906-34.933594 50.210937-57.5 88.410156-57.5 34.355469 0 66.421875 18.480469 83.6875 48.234375 1.828125 3.152344 5.65625 4.539063 9.082031 3.285156 6.21875-2.273437 12.761719-3.425781 19.449219-3.425781 31.214844 0 56.609375 25.394531 56.609375 56.609375 0 1.304687-.058594 2.742187-.1875 4.390625-.265625 3.46875 1.886719 6.667969 5.199219 7.730469 7.808594 2.503906 15.285156 6.011719 22.226562 10.421875 3.503906 2.226562 8.148438 1.191406 10.375-2.3125 2.226563-3.503906 1.1875-8.144532-2.3125-10.371094-6.402344-4.070312-13.199218-7.472656-20.269531-10.152344-.15625-39.367187-32.234375-71.347656-71.640625-71.347656-6.371094 0-12.640625.828125-18.714844 2.472656-20.550781-31.335937-55.835937-50.566406-93.503906-50.566406-41.660156 0-79.71875 23.230469-98.925781 59.773438-6.8125-2.433594-13.949219-3.664063-21.308594-3.664063-25.4375 0-48.453125 15.292969-58.4375 38.4375-21.421875 6.941406-40.628906 20.507813-54.390625 38.496094-15.003906 19.613281-22.9375 43.066406-22.9375 67.824219 0 22.816406 6.835938 44.761718 19.769531 63.464843 11.445313 16.554688 26.929688 29.578125 45.039063 37.953125-.453125 3.269532-.683594 6.554688-.683594 9.824219 0 39.503906 32.136719 71.640625 71.640625 71.640625 13.910156 0 27.144531-3.898438 38.664063-11.332031 21.105468 22.570312 50.453124 35.378906 81.570312 35.378906 31.703125 0 61.371094-13.183594 82.535156-36.425781 10.882813 8.027344 24.007813 12.378906 37.699219 12.378906 32.109375 0 58.878906-23.816406 63.054687-55.101562 43.699219-16.226563 72.710938-57.695313 72.710938-104.710938 0-24.515625-7.792969-47.785156-22.535156-67.292969zm0 0"/><path d="m63.625 448.875c-21.824219 0-39.578125 14.160156-39.578125 31.5625s17.753906 31.5625 39.578125 31.5625c21.820312 0 39.578125-14.160156 39.578125-31.5625s-17.757813-31.5625-39.578125-31.5625zm0 48.09375c-13.308594 0-24.546875-7.570312-24.546875-16.53125s11.238281-16.53125 24.546875-16.53125c13.304688 0 24.546875 7.570312 24.546875 16.53125s-11.242187 16.53125-24.546875 16.53125zm0 0"/><path d="m135.765625 400.78125c-21.824219 0-39.578125 14.160156-39.578125 31.5625s17.753906 31.5625 39.578125 31.5625c21.820313 0 39.578125-14.160156 39.578125-31.5625s-17.757812-31.5625-39.578125-31.5625zm0 48.09375c-13.304687 0-24.546875-7.570312-24.546875-16.53125s11.242188-16.53125 24.546875-16.53125 24.546875 7.570312 24.546875 16.53125-11.242188 16.53125-24.546875 16.53125zm0 0"/><path d="m230.78125 212.816406c-1.21875-2.683594-3.894531-4.410156-6.84375-4.410156h-56.109375c-4.152344 0-7.515625 3.367188-7.515625 7.515625s3.363281 7.515625 7.515625 7.515625h39.550781l-45.207031 51.660156c-4.167969 4.765625-.664063 12.464844 5.65625 12.464844h56.109375c4.148438 0 7.515625-3.367188 7.515625-7.515625s-3.367187-7.515625-7.515625-7.515625h-39.550781l45.207031-51.660156c1.941406-2.21875 2.40625-5.371094 1.1875-8.054688zm0 0"/><path d="m241.300781 211.34375c1.289063 2.503906 3.867188 4.078125 6.683594 4.078125h40.078125c4.148438 0 7.515625-3.367187 7.515625-7.515625s-3.367187-7.515625-7.515625-7.515625h-25.476562l31.589843-44.226563c3.492188-4.886718-.128906-11.882812-6.113281-11.882812h-40.078125c-4.148437 0-7.515625 3.363281-7.515625 7.515625 0 4.148437 3.367188 7.515625 7.515625 7.515625h25.476563l-31.589844 44.226562c-1.636719 2.289063-1.855469 5.304688-.570313 7.804688zm0 0"/><path d="m305.386719 147.140625c1.273437 2.546875 3.875 4.15625 6.722656 4.15625h24.046875c4.152344 0 7.515625-3.367187 7.515625-7.515625 0-4.152344-3.363281-7.515625-7.515625-7.515625h-9.015625l15.027344-20.039063c3.648437-4.863281.054687-12.023437-6.011719-12.023437h-24.046875c-4.148437 0-7.515625 3.363281-7.515625 7.515625 0 4.148438 3.367188 7.515625 7.515625 7.515625h9.019531l-15.03125 20.039063c-1.707031 2.273437-1.984375 5.320312-.710937 7.867187zm0 0"/></svg>