<?xml version="1.0" encoding="iso-8859-1"?>
<!-- Generator: Adobe Illustrator 19.0.0, SVG Export Plug-In . SVG Version: 6.00 Build 0)  -->
<svg version="1.1" id="Capa_1" xmlns="http://www.w3.org/2000/svg" xmlns:xlink="http://www.w3.org/1999/xlink" x="0px" y="0px"
	 viewBox="0 0 512.002 512.002" style="enable-background:new 0 0 512.002 512.002;" xml:space="preserve">
<g>
	<polygon style="fill:#2EA2EF;" points="169.597,416.692 187.097,447.003 169.776,457.003 135.046,456.848 152.276,426.692 	"/>
	<polygon style="fill:#2EA2EF;" points="89.777,318.439 107.988,452.262 124.597,338.75 107.097,308.439 	"/>
</g>
<polygon style="fill:#54BBFF;" points="152.276,426.692 169.776,457.003 87.504,504.503 70.004,474.192 86.613,360.68 
	25.004,396.25 7.504,365.939 89.776,318.439 107.276,348.75 107.988,452.262 "/>
<g>
	<polygon style="fill:#2EA2EF;" points="320.435,301.385 332.6,346.784 303.622,354.548 268.562,339.613 291.458,309.15 	"/>
	<polygon style="fill:#2EA2EF;" points="249.27,151.704 230.836,325.393 290.412,189.338 278.248,143.939 	"/>
</g>
<polygon style="fill:#54BBFF;" points="291.458,309.15 303.622,354.548 184.813,386.383 172.649,340.984 232.225,204.929 
	142.626,228.937 130.461,183.538 249.27,151.704 261.435,197.102 230.836,325.393 "/>
<g>
	<polygon style="fill:#2EA2EF;" points="504.501,209.501 504.501,267.501 474.501,267.501 444.501,238.501 474.501,209.501 	"/>
	<polygon style="fill:#2EA2EF;" points="474.501,7.501 388.781,209.501 504.501,65.501 504.501,7.501 	"/>
</g>
<polygon style="fill:#54BBFF;" points="474.501,209.501 474.501,267.501 314.501,267.501 314.501,209.501 430.121,65.501 
	314.501,65.501 314.501,7.501 474.501,7.501 474.501,65.501 388.781,209.501 "/>
<path d="M176.088,412.94c-2.07-3.588-6.659-4.816-10.245-2.745l-48.195,27.825l14.366-98.187c0.244-1.67-0.082-3.374-0.926-4.836
	l-17.5-30.311c-2.07-3.588-6.659-4.816-10.245-2.745l-99.593,57.5c-1.723,0.994-2.979,2.633-3.494,4.554s-0.246,3.969,0.749,5.691
	l17.5,30.311c0.994,1.723,2.633,2.98,4.554,3.494s3.969,0.246,5.691-0.749l48.195-27.826c-4.534,30.989-14.366,98.187-14.366,98.187
	c-0.244,1.67,0.082,3.374,0.926,4.836l17.5,30.311c1.389,2.406,3.91,3.751,6.502,3.751c1.272,0,2.563-0.324,3.743-1.006l99.593-57.5
	c1.723-0.994,2.979-2.633,3.494-4.554c0.516-1.921,0.246-3.969-0.749-5.691L176.088,412.94z M90.246,494.256l-12.447-21.559
	c16.311-111.481,16.31-111.477,16.31-112.019c0-2.679-1.43-5.156-3.75-6.495c-2.32-1.34-5.18-1.34-7.5,0l-55.113,31.82l-10-17.321
	l86.603-50l12.447,21.559l-16.231,110.933c-0.416,2.845,0.83,5.677,3.209,7.292c2.381,1.615,5.473,1.727,7.962,0.289l55.113-31.82
	l10,17.321L90.246,494.256z"/>
<path d="M327.679,299.442c-0.515-1.921-1.771-3.559-3.494-4.554c-1.724-0.995-3.771-1.264-5.691-0.749l-74.529,19.97l53.317-121.765
	c0.683-1.56,0.815-3.305,0.374-4.949l-12.164-45.398c-0.515-1.921-1.771-3.559-3.494-4.554c-1.724-0.995-3.77-1.264-5.691-0.749
	L128.52,176.293c-1.921,0.515-3.56,1.772-4.554,3.494c-0.995,1.723-1.264,3.77-0.749,5.691l12.165,45.398
	c1.071,4.001,5.183,6.376,9.186,5.303l74.528-19.97l-53.317,121.764c-0.683,1.56-0.815,3.305-0.374,4.949l12.165,45.398
	c0.897,3.351,3.928,5.561,7.239,5.561c0.643,0,1.296-0.083,1.946-0.258l147.786-39.599c4.001-1.072,6.375-5.185,5.303-9.186
	L327.679,299.442z M190.116,377.196l-9.543-35.614l58.521-133.646c1.156-2.641,0.697-5.71-1.182-7.897
	c-1.881-2.187-4.847-3.102-7.63-2.356l-82.354,22.066l-8.282-30.91l133.298-35.717l9.543,35.614l-58.521,133.646
	c-1.156,2.641-0.697,5.71,1.182,7.897c1.88,2.186,4.846,3.102,7.63,2.356l82.354-22.067l8.282,30.91L190.116,377.196z"/>
<path d="M512.001,65.501v-58c0-4.142-3.357-7.5-7.5-7.5h-190c-4.143,0-7.5,3.358-7.5,7.5v58c0,4.142,3.357,7.5,7.5,7.5h99.979
	l-38.627,48.108c-2.593,3.23-2.077,7.95,1.153,10.544c3.23,2.594,7.951,2.077,10.544-1.153l48.418-60.303
	c1.806-2.25,2.162-5.337,0.914-7.938c-1.248-2.601-3.877-4.258-6.762-4.258H322.001v-43h175v47.86L382.932,204.803
	c-1.809,2.25-2.165,5.337-0.918,7.94c1.248,2.603,3.878,4.259,6.764,4.259h108.223v43h-175V212.14l46.767-58.247
	c2.593-3.23,2.077-7.95-1.153-10.544s-7.95-2.077-10.544,1.153l-48.418,60.304c-1.068,1.332-1.651,2.988-1.651,4.696v58
	c0,4.142,3.357,7.5,7.5,7.5h190c4.143,0,7.5-3.358,7.5-7.5v-58c0-4.142-3.357-7.5-7.5-7.5H404.427L510.346,70.199
	C511.418,68.867,512.001,67.21,512.001,65.501z"/>
<g>
</g>
<g>
</g>
<g>
</g>
<g>
</g>
<g>
</g>
<g>
</g>
<g>
</g>
<g>
</g>
<g>
</g>
<g>
</g>
<g>
</g>
<g>
</g>
<g>
</g>
<g>
</g>
<g>
</g>
</svg>
