<?xml version="1.0" encoding="iso-8859-1"?>
<!-- Generator: Adobe Illustrator 19.0.0, SVG Export Plug-In . SVG Version: 6.00 Build 0)  -->
<svg xmlns="http://www.w3.org/2000/svg" xmlns:xlink="http://www.w3.org/1999/xlink" version="1.1" id="Capa_1" x="0px" y="0px" viewBox="0 0 512 512" style="enable-background:new 0 0 512 512;" xml:space="preserve" width="512" height="512">
<g>
	<g>
		<circle style="fill:#FF8086;" cx="103.694" cy="87.661" r="80.161"/>
		<g>
			<path style="fill:#ECBD83;" d="M378.365,449.095L320.54,429.82c-9.82-3.273-16.444-12.463-16.444-22.814V360.21h-96.194v46.796     c0,10.351-6.624,19.541-16.444,22.814l-57.826,19.275c-13.093,4.364-21.924,16.617-21.924,30.418V504.5H400.29v-24.986     C400.29,465.713,391.459,453.46,378.365,449.095z"/>
			<path style="fill:#E2A975;" d="M207.903,403.307c14.169,8.226,30.567,13.015,48.097,13.015s33.928-4.79,48.097-13.015v-35.081     h-96.194V403.307z"/>
			<path style="fill:#F6D190;" d="M336.161,288.065v-64.129h-144.29l-16.032,16.032v48.097c-8.854,0-16.032,7.178-16.032,16.032     c0,8.854,7.178,16.032,16.032,16.032h0.405c4.023,40.507,38.191,72.145,79.757,72.145s75.733-31.638,79.757-72.145h0.405     c8.854,0,16.032-7.178,16.032-16.032C352.194,295.242,345.016,288.065,336.161,288.065z"/>
			<path style="fill:#ECBD83;" d="M241.693,256h94.468v-24.048H175.839v56.113c-10.732,0-19.001,10.544-15.012,21.839     c2.208,6.25,8.431,10.226,15.06,10.226h0.357c4.023,40.507,38.191,72.145,79.757,72.145c4.098,0,8.092-0.405,12.024-0.998     c-38.552-5.815-68.137-38.989-68.137-79.163v-18.367c0-6.553,4.057-12.289,10.092-14.842c8.045-3.403,14.513-9.629,18.563-16.021     C231.353,258.448,236.443,256,241.693,256z"/>
			<path style="fill:#FF7350;" d="M207.903,207.903h-8.016c-13.282,0-24.048,10.767-24.048,24.048v40.081h0     c17.709,0,32.064-14.356,32.064-32.064V207.903z"/>
			<path style="fill:#FF8B5A;" d="M312.113,183.855h-80.161c-17.709,0-32.065,14.356-32.065,32.065v8.016     c0,8.854,7.178,16.032,16.032,16.032h120.242v-32.065C336.161,194.622,325.394,183.855,312.113,183.855z"/>
			<path style="fill:#FFA95F;" d="M336.161,207.903c0-13.282-10.767-24.048-24.048-24.048h-80.161c-2.785,0-5.44,0.466-8.016,1.134     c0,21.51,17.437,38.947,38.947,38.947h73.279V207.903z"/>
			<path style="fill:#966A5B;" d="M378.366,449.095l-37.512-12.504c-18.892,26.514-49.817,43.861-84.853,43.861     s-65.961-17.347-84.853-43.861l-37.512,12.504c-13.093,4.364-21.924,16.617-21.924,30.419V504.5H400.29v-24.986     C400.29,465.713,391.459,453.46,378.366,449.095z"/>
			<path style="fill:#B57F5F;" d="M256,496.484c42.176,0,79.218-21.758,100.681-54.617l-31.834-10.611     c-16.158,20.195-40.971,33.164-68.847,33.164s-52.688-12.969-68.847-33.164l-31.834,10.611     C176.782,474.726,213.824,496.484,256,496.484z"/>
		</g>
		<path style="fill:#E5646E;" d="M119.726,151.79c-44.272,0-80.161-35.89-80.161-80.161c0-18.043,6.034-34.637,16.094-48.034    C36.186,38.22,23.532,61.433,23.532,87.661c0,44.272,35.89,80.161,80.161,80.161c26.229,0,49.441-12.654,64.066-32.127    C154.363,145.756,137.77,151.79,119.726,151.79z"/>
		<circle style="fill:#CCF49F;" cx="408.306" cy="87.661" r="80.161"/>
		<path style="fill:#B3E59F;" d="M424.339,151.79c-44.272,0-80.161-35.89-80.161-80.161c0-18.043,6.034-34.637,16.094-48.034    c-19.473,14.625-32.126,37.838-32.126,64.066c0,44.272,35.89,80.161,80.161,80.161c26.229,0,49.441-12.654,64.066-32.127    C458.976,145.756,442.383,151.79,424.339,151.79z"/>
	</g>
	<g>
		<path d="M215.919,303.581c4.142,0,7.5-3.358,7.5-7.5v-8.016c0-4.142-3.358-7.5-7.5-7.5s-7.5,3.358-7.5,7.5v8.016    C208.419,300.223,211.777,303.581,215.919,303.581z"/>
		<path d="M296.081,303.581c4.142,0,7.5-3.358,7.5-7.5v-8.016c0-4.142-3.358-7.5-7.5-7.5s-7.5,3.358-7.5,7.5v8.016    C288.581,300.223,291.938,303.581,296.081,303.581z"/>
		<path d="M191.355,87.661C191.355,39.325,152.03,0,103.693,0C55.357,0,16.032,39.325,16.032,87.661    c0,48.337,39.325,87.662,87.661,87.662C152.03,175.323,191.355,135.998,191.355,87.661z M103.693,160.323    c-40.065,0-72.661-32.596-72.661-72.662C31.032,47.596,63.628,15,103.693,15c40.066,0,72.662,32.596,72.662,72.661    C176.355,127.727,143.759,160.323,103.693,160.323z"/>
		<path d="M408.307,0c-48.337,0-87.662,39.325-87.662,87.661c0,48.337,39.325,87.662,87.662,87.662    c48.336,0,87.661-39.325,87.661-87.662C495.968,39.325,456.643,0,408.307,0z M408.307,160.323    c-40.066,0-72.662-32.596-72.662-72.662c0-40.065,32.596-72.661,72.662-72.661c40.065,0,72.661,32.596,72.661,72.661    C480.968,127.727,448.372,160.323,408.307,160.323z"/>
		<path d="M133.045,58.31c-2.929-2.929-7.678-2.929-10.606,0l-18.745,18.745L84.948,58.31c-2.929-2.929-7.678-2.929-10.606,0    c-2.929,2.929-2.929,7.678,0,10.606l18.745,18.745l-18.745,18.745c-2.929,2.929-2.929,7.678,0,10.606    c1.464,1.464,3.384,2.197,5.303,2.197s3.839-0.732,5.303-2.197l18.745-18.745l18.745,18.745c1.464,1.464,3.384,2.197,5.303,2.197    s3.839-0.732,5.303-2.197c2.929-2.929,2.929-7.678,0-10.606L114.3,87.661l18.745-18.745    C135.974,65.987,135.974,61.238,133.045,58.31z"/>
		<path d="M435.068,62.318l-38.786,38.785l-14.737-14.737c-2.929-2.929-7.678-2.929-10.606,0c-2.929,2.929-2.929,7.678,0,10.606    l20.041,20.04c1.464,1.464,3.384,2.197,5.303,2.197s3.839-0.732,5.303-2.197l44.089-44.088c2.929-2.929,2.929-7.678,0-10.606    C442.746,59.389,437.997,59.389,435.068,62.318z"/>
		<path d="M246.747,344.67c0.271,0,0.546-0.015,0.823-0.045l18.487-2.017c4.118-0.449,7.091-4.151,6.642-8.269    c-0.449-4.117-4.147-7.091-8.269-6.642l-18.487,2.017c-4.118,0.449-7.091,4.151-6.642,8.269    C239.72,341.825,242.97,344.67,246.747,344.67z"/>
		<path d="M380.737,441.979l-57.825-19.275c-6.768-2.256-11.315-8.565-11.315-15.699v-27.164    c16.072-13.086,27.497-31.687,30.926-53.019c6.227-1.623,11.436-5.612,14.302-11.198c4.044-7.879,3.836-16.535-0.57-23.75    c-2.912-4.768-7.43-8.301-12.594-10.061v-73.911c0-17.396-14.152-31.548-31.548-31.548h-80.161    c-16.433,0-30.558,10.07-36.528,24.363c-15.29,2.175-27.085,15.353-27.085,31.233v49.849c-4.696,1.589-8.849,4.65-11.777,8.827    c-4.476,6.384-5.479,14.355-2.754,21.869c2.614,7.207,8.818,12.531,16.301,14.401c4.049,20.994,15.043,39.28,30.295,52.286v27.822    c0,7.134-4.547,13.443-11.315,15.699l-57.826,19.275c-16.181,5.394-27.053,20.478-27.053,37.535V504.5c0,4.142,3.358,7.5,7.5,7.5    s7.5-3.358,7.5-7.5v-24.986c0-10.59,6.75-19.955,16.796-23.304l16.259-5.42c24.013,33.369,62.534,53.194,103.735,53.194    c17.374,0,34.223-3.429,50.079-10.192c3.81-1.625,5.582-6.031,3.957-9.841c-1.625-3.811-6.032-5.581-9.841-3.956    c-13.985,5.965-28.854,8.989-44.194,8.989c-34.787,0-67.411-16.017-88.732-43.195l17.39-5.797    c18.165,20.318,44.03,31.927,71.342,31.927c27.387,0,53.167-11.593,71.336-31.929l17.39,5.797    c-5.819,7.418-12.525,14.083-20.032,19.86c-3.283,2.526-3.896,7.235-1.37,10.518c1.478,1.919,3.701,2.926,5.949,2.926    c1.597,0,3.206-0.508,4.569-1.557c9.912-7.629,18.595-16.622,25.881-26.748l16.27,5.423c10.047,3.349,16.797,12.714,16.797,23.304    V504.5c0,4.142,3.358,7.5,7.5,7.5s7.5-3.358,7.5-7.5v-24.986C407.791,462.458,396.919,447.374,380.737,441.979z M184.052,319.172    c-0.481-3.741-3.667-6.543-7.438-6.543h-0.547c-3.683,0-7.038-2.158-8.158-5.248c-1.417-3.904-0.022-6.778,0.935-8.144    c1.613-2.3,4.228-3.673,6.995-3.673c4.142,0,7.5-3.358,7.5-7.5v-56.113c0-6.467,3.729-12.08,9.149-14.8    c0.588,3.556,3.677,6.268,7.399,6.268c4.142,0,7.5-3.358,7.5-7.5c0-13.545,11.02-24.564,24.564-24.564h80.161    c9.125,0,16.548,7.423,16.548,16.548v24.564H223.936c-12.976,0-23.532,10.557-23.532,23.532c0,4.142,3.358,7.5,7.5,7.5    s7.5-3.358,7.5-7.5c0-4.705,3.828-8.532,8.532-8.532h104.726v40.597c0,4.142,3.358,7.5,7.5,7.5c2.943,0,5.737,1.583,7.293,4.129    c0.951,1.558,2.22,4.809,0.026,9.082c-1.183,2.305-4.125,3.853-7.319,3.853H335.8c-3.888,0-7.132,2.972-7.471,6.845    c-3.37,38.45-37.98,67.671-77.162,65.144C216.873,382.404,188.647,354.88,184.052,319.172z M199.859,434.173    c9.495-5.583,15.544-15.819,15.544-27.167v-17.502c10.551,5.729,22.34,9.279,34.797,10.083c1.906,0.123,3.795,0.184,5.682,0.184    c14.554-0.001,28.447-3.626,40.714-10.036v17.271c0,11.352,6.053,21.59,15.553,27.173c-14.99,14.548-35.004,22.741-56.15,22.741    C234.915,456.919,214.855,448.709,199.859,434.173z"/>
	</g>
</g>















</svg>
