<?xml version="1.0" encoding="iso-8859-1"?>
<!-- Generator: Adobe Illustrator 19.0.0, SVG Export Plug-In . SVG Version: 6.00 Build 0)  -->
<svg xmlns="http://www.w3.org/2000/svg" xmlns:xlink="http://www.w3.org/1999/xlink" version="1.1" id="Capa_1" x="0px" y="0px" viewBox="0 0 512 512" style="enable-background:new 0 0 512 512;" xml:space="preserve" width="512" height="512">
<g>
	<g>
		<g>
			<path style="fill:#D19A6E;" d="M339.368,421.682c0-8.89,0.973-17.754,2.902-26.433l7.023-31.601     c1.928-8.678,2.901-17.541,2.901-26.43v-110.82c0-7.986-5.457-15.388-13.34-16.671c-10.044-1.634-18.725,6.076-18.725,15.813     l0-31.206c0-7.986-5.457-15.388-13.34-16.671c-10.044-1.634-18.725,6.076-18.725,15.813v-24.794     c0-7.986-5.457-15.388-13.34-16.671C264.681,150.376,256,158.086,256,167.823v19.239c0-9.737-8.679-17.446-18.724-15.813     c-7.883,1.282-13.34,8.683-13.34,16.669l0,98.543v3.207c0-10.466-8.357-18.98-18.762-19.233     c-7.308-0.178-13.303,5.951-13.303,13.261v86.133c0,15.874,8.245,29.809,20.682,37.785c6.996,4.487,11.382,12.063,11.382,20.374     v20.398h115.432V421.682z"/>
			<path style="fill:#CCF49F;" d="M352.194,496.484v-40.081c0-4.427-3.589-8.016-8.016-8.016H223.936     c-4.427,0-8.016,3.589-8.016,8.016v40.081c0,4.427,3.589,8.016,8.016,8.016h120.242     C348.605,504.5,352.194,500.911,352.194,496.484z"/>
			<path style="fill:#B3E59F;" d="M239.968,496.484c0-13.282,10.767-24.048,24.048-24.048h88.177v-16.032     c0-4.427-3.589-8.016-8.016-8.016H223.936c-4.427,0-8.016,3.589-8.016,8.016v40.081c0,4.427,3.589,8.016,8.016,8.016h16.032     V496.484z"/>
			<path style="fill:#C38C66;" d="M237.619,413.853c-2.888-7.637-8.357-14.218-15.41-18.982c-8.884-6-14.306-15.924-14.306-26.645     v-97.561c-2.771-0.468-7.795-0.552-11.788,3.222c-4.305,4.069-4.244,7.639-4.244,12.543v83.399     c0,15.874,8.245,29.81,20.682,37.786c6.996,4.486,11.382,12.063,11.382,20.374l0,20.398h115.432v-24.048h-86.77     C245.891,424.339,239.991,420.126,237.619,413.853z"/>
		</g>
		<g>
			<path style="fill:#ECBD83;" d="M223.935,223.935h-1.603c0.548,0,1.066-0.114,1.603-0.159v-31.906h-81.764     c-15.874,0-29.81,8.245-37.786,20.682c-4.487,6.996-12.062,11.382-20.374,11.382H63.613v115.432h26.706     c8.89,0,17.754,0.973,26.432,2.901l31.602,7.023c8.678,1.928,17.54,2.901,26.43,2.901h49.153V223.935z"/>
			<path style="fill:#EAD1FF;" d="M15.516,352.194h40.081c4.427,0,8.016-3.589,8.016-8.016V223.936c0-4.427-3.589-8.016-8.016-8.016     H15.516c-4.427,0-8.016,3.589-8.016,8.016v120.242C7.5,348.605,11.089,352.194,15.516,352.194z"/>
			<path style="fill:#D6BDEF;" d="M55.597,328.145c-13.282,0-24.048-10.767-24.048-24.048v-88.177H15.516     c-4.427,0-8.016,3.589-8.016,8.016v120.242c0,4.427,3.589,8.016,8.016,8.016h40.081c4.427,0,8.016-3.589,8.016-8.016v-16.032     H55.597z"/>
			<g>
				<path style="fill:#E2A975;" d="M174.786,336.161c-7.72,0-15.418-0.845-22.954-2.52l-31.604-7.023      c-4.188-0.931-10.907-1.74-17.85-2.339c-8.312-0.717-14.716-7.631-14.716-15.974v-84.37H63.613v115.432h26.706      c8.891,0,17.754,0.973,26.433,2.902l31.6,7.023c8.678,1.928,17.54,2.901,26.43,2.901h49.153v-16.032H174.786z"/>
				<path style="fill:#E2A975;" d="M89.333,323.564c0.309-0.093,0.579-0.228,0.975-0.228h-2.646v0.169      C88.221,323.525,88.754,323.541,89.333,323.564z"/>
			</g>
		</g>
		<g>
			<path style="fill:#F6D190;" d="M172.632,90.318c0,8.89-0.973,17.754-2.902,26.433l-7.023,31.601     c-1.928,8.678-2.901,17.541-2.901,26.43v110.82c0,7.986,5.457,15.388,13.34,16.671c10.044,1.634,18.725-6.076,18.725-15.813     v31.206c0,7.986,5.457,15.388,13.34,16.671c10.044,1.634,18.725-6.076,18.725-15.813v24.794c0,7.986,5.457,15.388,13.34,16.671     c10.044,1.634,18.725-6.076,18.725-15.813v-19.239c0,9.737,8.68,17.446,18.724,15.813c7.883-1.282,13.34-8.683,13.34-16.669     v-98.543v-3.207c0,10.466,8.357,18.98,18.762,19.233c7.308,0.178,13.303-5.951,13.303-13.261v-86.133     c0-15.874-8.245-29.809-20.682-37.785c-6.996-4.487-11.382-12.063-11.382-20.374V63.613H172.632V90.318z"/>
			<path style="fill:#ECBD83;" d="M191.854,318.53v-86.574c0-4.427,3.589-8.016,8.016-8.016c4.427,0,8.016,3.589,8.016,8.016     v102.606C199.032,334.563,191.854,327.385,191.854,318.53z"/>
			<path style="fill:#ECBD83;" d="M223.912,231.956c0-4.427,3.589-8.016,8.016-8.016c4.427,0,8.016,3.589,8.016,8.016v128.258     c-8.854,0-16.032-7.178-16.032-16.032v-19.239V231.956z"/>
			<path style="fill:#ECBD83;" d="M255.97,222.337V183.86c0-4.427,3.589-8.016,8.016-8.016c4.427,0,8.016,3.589,8.016,8.016v157.116     c-8.854,0-16.032-7.178-16.032-16.032v-99.4V222.337z"/>
			<path style="fill:#DBEAFF;" d="M159.806,15.516v40.081c0,4.427,3.589,8.016,8.016,8.016h120.242c4.427,0,8.016-3.589,8.016-8.016     V15.516c0-4.427-3.589-8.016-8.016-8.016H167.823C163.395,7.5,159.806,11.089,159.806,15.516z"/>
			<path style="fill:#C3DDFF;" d="M183.855,15.516c0,13.282,10.767,24.048,24.048,24.048h88.18v16.037     c0,4.427-3.589,8.016-8.016,8.016H167.825c-4.427,0-8.016-3.589-8.016-8.016V15.521c0-4.427,3.589-8.016,8.016-8.016h16.03     V15.516z"/>
			<path style="fill:#ECBD83;" d="M172.632,63.613v26.704c0,8.892-0.973,17.758-2.902,26.438l-7.022,31.597     c-1.928,8.678-2.901,17.54-2.901,26.429v110.784c0,8.848,6.757,17.056,16.032,16.94V174.785c0-7.72,0.845-15.418,2.52-22.954     l7.023-31.603c1.196-5.384,2.068-11.631,2.611-17.833c0.729-8.321,7.609-14.733,15.961-14.733h84.111V63.613H172.632z"/>
		</g>
		<g>
			<path style="fill:#FFE09F;" d="M421.682,172.632c-8.89,0-17.754-0.973-26.433-2.902l-31.601-7.023     c-8.678-1.928-17.541-2.901-26.43-2.901h-110.82c-7.986,0-15.388,5.457-16.671,13.34c-1.634,10.044,6.076,18.725,15.813,18.725     h-31.206c-7.986,0-15.388,5.457-16.671,13.34c-1.634,10.044,6.076,18.725,15.813,18.725h-24.794     c-7.986,0-15.388,5.457-16.671,13.34C150.376,247.319,158.086,256,167.823,256h19.239c-9.737,0-17.446,8.68-15.813,18.724     c1.282,7.883,8.683,13.34,16.669,13.34h98.543h3.207c-10.466,0-18.98,8.357-19.233,18.762     c-0.178,7.308,5.951,13.303,13.261,13.303h86.133c15.874,0,29.809-8.245,37.785-20.682c4.487-6.996,12.063-11.382,20.374-11.382     h20.398V172.632H421.682z"/>
			<path style="fill:#F6D190;" d="M225.539,191.871h62.526c4.427,0,8.016-3.589,8.016-8.016c0-4.427-3.589-8.016-8.016-8.016     h-78.558C209.507,184.693,216.685,191.871,225.539,191.871z"/>
			<path style="fill:#F6D190;" d="M193.474,223.935h86.574c4.427,0,8.016-3.589,8.016-8.016c0-4.427-3.589-8.016-8.016-8.016     H177.442C177.442,216.757,184.62,223.935,193.474,223.935z"/>
			<path style="fill:#F6D190;" d="M280.048,256c4.427,0,8.016-3.589,8.016-8.016c0-4.427-3.589-8.016-8.016-8.016H151.79     c0,8.854,7.178,16.032,16.032,16.032h19.239H280.048z"/>
			<path style="fill:#F6D190;" d="M289.668,288.065h38.477c4.427,0,8.016-3.589,8.016-8.016c0-4.427-3.589-8.016-8.016-8.016     H171.029c0,8.854,7.178,16.032,16.032,16.032h99.4H289.668z"/>
			<path style="fill:#FF9A9F;" d="M496.484,159.806h-40.081c-4.427,0-8.016,3.589-8.016,8.016v120.242     c0,4.427,3.589,8.016,8.016,8.016h40.081c4.427,0,8.016-3.589,8.016-8.016V167.823     C504.5,163.395,500.911,159.806,496.484,159.806z"/>
			<path style="fill:#FF8086;" d="M496.484,272.032c-13.282,0-24.048-10.767-24.048-24.048v-88.177h-16.032     c-4.427,0-8.016,3.589-8.016,8.016v120.242c0,4.427,3.589,8.016,8.016,8.016h40.081c4.427,0,8.016-3.589,8.016-8.016v-16.032     H496.484z"/>
			<path style="fill:#F6D190;" d="M424.339,172.632v86.77c0,6.707-4.213,12.607-10.486,14.979     c-7.637,2.887-14.218,8.356-18.981,15.409c-6,8.885-15.924,14.307-26.645,14.307h-97.562c-0.468,2.771-0.552,7.795,3.223,11.788     c4.069,4.305,7.638,4.244,12.543,4.244h83.399c15.874,0,29.81-8.245,37.786-20.682c4.486-6.996,12.063-11.382,20.374-11.382     l20.398,0V172.632H424.339z"/>
		</g>
	</g>
	<path d="M496.484,152.307h-40.081c-7.637,0-13.987,5.55-15.267,12.826h-19.455c-8.328,0-16.673-0.916-24.805-2.723l-31.603-7.023   c-9.196-2.044-18.636-3.08-28.059-3.08h-9.586v-10.136c0-26.412-11.922-36.268-24.134-44.099   c-4.966-3.185-7.931-8.441-7.931-14.061V69.17c4.774-2.649,8.016-7.738,8.016-13.574V15.516C303.581,6.96,296.62,0,288.064,0   H167.823c-8.556,0-15.516,6.96-15.516,15.516v40.081c0,7.636,5.55,13.987,12.826,15.267v19.455c0,8.328-0.916,16.673-2.723,24.805   l-7.023,31.603c-2.044,9.196-3.08,18.636-3.08,28.059v9.586h-10.136c-26.412,0-36.268,11.922-44.099,24.134   c-3.185,4.966-8.441,7.931-14.061,7.931H69.17c-2.649-4.774-7.738-8.016-13.574-8.016H15.516C6.96,208.419,0,215.38,0,223.936   v120.242c0,8.556,6.96,15.516,15.516,15.516h40.081c7.636,0,13.987-5.55,15.267-12.826h19.455c8.328,0,16.673,0.916,24.805,2.723   l31.603,7.023c9.196,2.044,18.636,3.08,28.059,3.08h9.586v10.136c0,26.412,11.922,36.268,24.134,44.099   c4.966,3.185,7.931,8.441,7.931,14.061v14.841c-4.774,2.649-8.016,7.738-8.016,13.574v40.081c0,8.556,6.96,15.516,15.516,15.516   h120.242c8.556,0,15.516-6.96,15.516-15.516v-40.081c0-7.636-5.55-13.987-12.826-15.267v-19.455c0-8.328,0.916-16.673,2.723-24.805   l7.023-31.603c2.044-9.196,3.08-18.636,3.08-28.059v-9.587h10.136c26.412,0,36.268-11.922,44.099-24.134   c3.185-4.966,8.441-7.931,14.061-7.931h14.841c2.649,4.775,7.738,8.017,13.574,8.017h40.081c8.556,0,15.516-6.96,15.516-15.516   V167.823C512,159.267,505.04,152.307,496.484,152.307z M167.307,15.516c0-0.285,0.231-0.516,0.516-0.516h120.242   c0.285,0,0.516,0.231,0.516,0.516v40.081c0,0.285-0.231,0.516-0.516,0.516h-16.029c-4.142,0-7.5,3.358-7.5,7.5s3.358,7.5,7.5,7.5   h8.529v12.898c0,10.754,5.545,20.731,14.833,26.688c10.409,6.675,17.231,12.471,17.231,31.472v10.136h-87.09   c-12.976,0-23.532,10.557-23.532,23.532c0,3.009,0.574,5.885,1.608,8.532h-10.14c-12.976,0-23.532,10.557-23.532,23.532   c0,3.009,0.574,5.885,1.608,8.532h-3.727c-0.173,0-0.344,0.009-0.516,0.013v-41.664c0-8.33,0.916-16.675,2.723-24.805l7.023-31.603   c2.044-9.198,3.08-18.639,3.08-28.059V71.113h59.838c4.142,0,7.5-3.358,7.5-7.5s-3.358-7.5-7.5-7.5h-72.148   c-0.285,0-0.516-0.231-0.516-0.516V15.516z M280.564,324.385v0.553c0,4.705-3.828,8.532-8.532,8.532s-8.532-3.828-8.532-8.532   v-29.375h10.434c-1.74,3.546-2.721,7.53-2.721,11.739C271.212,314.468,274.948,320.765,280.564,324.385z M248.5,324.939v19.238   c0,4.705-3.828,8.532-8.532,8.532s-8.532-3.828-8.532-8.532v-25.651v-22.961H248.5V324.939z M216.436,318.526   c0,4.705-3.828,8.532-8.532,8.532s-8.532-3.828-8.532-8.532v-22.961h17.064V318.526z M167.307,284.796   c3.599,5.55,9.466,9.498,16.282,10.51c-1.364,2.964-4.361,4.965-7.75,4.965c-4.705,0-8.532-3.828-8.532-8.532V284.796z    M149.98,341.971l-31.603-7.023c-9.198-2.044-18.639-3.08-28.059-3.08H71.113v-59.838c0-4.142-3.358-7.5-7.5-7.5   s-7.5,3.358-7.5,7.5v72.148c0,0.285-0.231,0.516-0.516,0.516H15.516c-0.285,0-0.516-0.231-0.516-0.516V223.936   c0-0.285,0.231-0.516,0.516-0.516h40.081c0.285,0,0.516,0.231,0.516,0.516v16.029c0,4.142,3.358,7.5,7.5,7.5s7.5-3.358,7.5-7.5   v-8.529h12.898c10.754,0,20.731-5.545,26.688-14.833c6.675-10.409,12.471-17.231,31.472-17.231h10.136v22.927   c-4.909,4.316-8.016,10.635-8.016,17.67s3.107,13.354,8.016,17.67v34.101c0,12.976,10.557,23.532,23.532,23.532   c2.994,0,5.871-0.581,8.532-1.62v4.875c0,12.976,10.557,23.532,23.532,23.532c3.009,0,5.885-0.574,8.532-1.608v3.727   c0,0.173,0.009,0.344,0.013,0.516h-41.664C166.455,344.693,158.109,343.777,149.98,341.971z M344.693,337.215   c0,8.33-0.916,16.675-2.723,24.805l-7.023,31.603c-2.044,9.198-3.08,18.639-3.08,28.059v19.206h-59.838c-4.142,0-7.5,3.358-7.5,7.5   s3.358,7.5,7.5,7.5h72.148c0.285,0,0.516,0.231,0.516,0.516v40.081c0,0.285-0.231,0.516-0.516,0.516H223.936   c-0.285,0-0.516-0.231-0.516-0.516v-40.081c0-0.285,0.231-0.516,0.516-0.516h16.029c4.142,0,7.5-3.358,7.5-7.5s-3.358-7.5-7.5-7.5   h-8.529v-12.898c0-10.754-5.545-20.731-14.833-26.688c-10.409-6.675-17.231-12.471-17.231-31.472v-10.136h22.927   c4.316,4.909,10.635,8.016,17.67,8.016c12.087,0,22.071-9.162,23.382-20.906c2.689,1.072,5.616,1.667,8.682,1.667   c12.066,0,22.034-9.129,23.374-20.842l49.287,0V337.215z M497,288.064c0,0.285-0.231,0.516-0.516,0.516h-40.081   c-0.285,0-0.516-0.231-0.516-0.516v-16.029c0-4.142-3.358-7.5-7.5-7.5s-7.5,3.358-7.5,7.5v8.529h-12.898   c-10.754,0-20.731,5.545-26.688,14.833c-6.675,10.409-12.471,17.231-31.472,17.231l-78.291,0c-2.937,0-5.326-2.389-5.326-5.326   c0-6.473,5.266-11.739,11.739-11.739h26.987c4.142,0,7.5-3.358,7.5-7.5s-3.358-7.5-7.5-7.5H187.061   c-4.705,0-8.532-3.828-8.532-8.532s3.828-8.532,8.532-8.532h99.4c4.142,0,7.5-3.358,7.5-7.5s-3.358-7.5-7.5-7.5H167.823   c-4.705,0-8.532-3.828-8.532-8.532s3.828-8.532,8.532-8.532h118.639c4.142,0,7.5-3.358,7.5-7.5s-3.358-7.5-7.5-7.5h-92.987   c-4.705,0-8.532-3.828-8.532-8.532s3.828-8.532,8.532-8.532h99.4c4.142,0,7.5-3.358,7.5-7.5s-3.358-7.5-7.5-7.5h-67.335   c-4.705,0-8.532-3.828-8.532-8.532s3.828-8.532,8.532-8.532h111.677c8.33,0,16.675,0.916,24.805,2.723l31.603,7.023   c9.198,2.044,18.639,3.08,28.059,3.08h19.206v59.838c0,4.142,3.358,7.5,7.5,7.5s7.5-3.358,7.5-7.5v-72.148   c0-0.285,0.231-0.516,0.516-0.516h40.081c0.285,0,0.516,0.231,0.516,0.516V288.064z"/>
</g>















</svg>
