<?xml version="1.0" encoding="iso-8859-1"?>
<!-- Generator: Adobe Illustrator 19.0.0, SVG Export Plug-In . SVG Version: 6.00 Build 0)  -->
<svg xmlns="http://www.w3.org/2000/svg" xmlns:xlink="http://www.w3.org/1999/xlink" version="1.1" id="Capa_1" x="0px" y="0px" viewBox="0 0 511.993 511.993" style="enable-background:new 0 0 511.993 511.993;" xml:space="preserve" width="512" height="512">
<g>
	<g>
		<circle style="fill:#CCF49F;" cx="392.267" cy="119.726" r="112.226"/>
		<path style="fill:#ECBD83;" d="M236.64,190.398l-74.821,74.821c7.513-7.513,7.513-19.695,0-27.208    c-5.009-5.009-13.13-5.009-18.138,0l-61.217,61.217c-14.377,14.377-16.941,36.07-7.737,53.083l-36.475,36.475l81.623,81.623    l30.22-30.22c6.286-6.286,13.242-11.866,20.742-16.638l27.312-17.381c7.5-4.773,14.456-10.352,20.742-16.638l40.423-40.423    c6.261-6.261,6.261-16.412,0-22.673c-6.261-6.261-16.412-6.261-22.673,0l5.668-5.668c6.261-6.261,6.261-16.412,0-22.673    c-6.261-6.261-16.412-6.261-22.673,0l5.668-5.668c6.261-6.261,6.261-16.412,0-22.673c-6.261-6.261-16.412-6.261-22.673,0    l56.683-56.683c6.261-6.261,6.261-16.412,0-22.673C253.052,184.137,242.901,184.137,236.64,190.398z"/>
		<path style="fill:#E2A975;" d="M163.858,240.507l-46.251,46.251c-3.131,3.131-3.131,8.206,0,11.337    c3.13,3.13,8.206,3.131,11.337,0l32.876-32.876C168.556,258.482,169.201,248.02,163.858,240.507z"/>
		<path style="fill:#E2A975;" d="M259.313,190.398l-85.024,85.024c-3.131,3.131-3.131,8.206,0,11.337    c3.13,3.13,8.206,3.131,11.337,0l17.005-17.005l56.683-56.683C265.574,206.81,265.574,196.659,259.313,190.398z"/>
		<path style="fill:#E2A975;" d="M191.294,315.1c3.13,3.13,8.206,3.131,11.337,0l17.005-17.005l5.668-5.668    c6.261-6.261,6.261-16.412,0-22.673l-34.01,34.01C188.163,306.894,188.163,311.969,191.294,315.1z"/>
		<path style="fill:#E2A975;" d="M208.299,343.441c3.13,3.13,8.206,3.131,11.337,0l17.005-17.005l5.668-5.668    c6.261-6.261,6.261-16.412,0-22.673l-34.01,34.01C205.168,335.235,205.168,340.31,208.299,343.441z"/>
		<path style="fill:#E2A975;" d="M170.832,423.554l27.32-17.386c7.499-4.772,14.453-10.351,20.739-16.636l40.423-40.423    c6.261-6.261,6.261-16.412,0-22.673l-51.76,51.76c-5.458,5.458-11.497,10.302-18.009,14.446l-27.316,17.383    c-3.682,2.915-9.945,6.798-19.18,14.537l-0.006,0.006c-4.164,4.164-10.914,4.164-15.078,0l-62.747-62.747l-26.966,26.966    l81.623,81.623l30.22-30.22C156.379,433.904,163.333,428.326,170.832,423.554z"/>
		<path style="fill:#CCF49F;" d="M134.611,473.811l-28.341,28.341c-3.13,3.13-8.206,3.13-11.337,0L9.91,417.128    c-3.13-3.13-3.13-8.206,0-11.337l28.341-28.341c3.13-3.13,8.206-3.13,11.337,0l85.024,85.024    C137.742,465.605,137.742,470.68,134.611,473.811z"/>
		<path style="fill:#B3E59F;" d="M111.015,459.036c-6.261,6.261-16.412,6.261-22.673,0l-65.838-65.838L9.91,405.792    c-3.13,3.13-3.13,8.206,0,11.337l85.024,85.024c3.13,3.13,8.206,3.13,11.337,0l28.341-28.341c3.13-3.13,3.13-8.206,0-11.337    l-13.518-13.518L111.015,459.036z"/>
		<path style="fill:#B3E59F;" d="M408.299,215.919c-61.981,0-112.226-50.245-112.226-112.226c0-26.906,9.489-51.584,25.276-70.917    c-25.202,20.579-41.309,51.875-41.309,86.949c0,61.981,50.245,112.226,112.226,112.226c35.074,0,66.37-16.107,86.949-41.309    C459.883,206.43,435.205,215.919,408.299,215.919z"/>
	</g>
	<g>
		<path d="M264.547,185.095c-9.175-9.176-24.105-9.175-33.28,0l-57.838,57.838c-1.277-3.738-3.4-7.248-6.376-10.225    c-7.925-7.925-20.82-7.925-28.745,0l-61.217,61.217c-9.896,9.895-15.345,23.051-15.345,37.045c0,6.897,1.33,13.588,3.857,19.789    l-17.458,17.458c-5.249-1.503-11.14-0.197-15.267,3.93L4.537,400.489c-6.049,6.049-6.049,15.893,0,21.943l85.024,85.024    c3.024,3.024,6.998,4.537,10.971,4.537c3.973,0,7.947-1.513,10.972-4.537l28.342-28.342c5.399-5.399,5.965-13.815,1.725-19.864    l13.757-13.756c5.888-5.889,12.437-11.142,19.464-15.614l27.313-17.381c7.948-5.058,15.356-11,22.019-17.663l40.423-40.423    c9.175-9.175,9.175-24.104,0-33.28c-3.096-3.095-6.852-5.121-10.816-6.127c1.87-7.718-0.174-16.199-6.189-22.214    c-3.096-3.095-6.852-5.121-10.816-6.127c1.87-7.718-0.175-16.199-6.189-22.214c-2.13-2.129-4.577-3.742-7.183-4.883l41.192-41.192    C273.723,209.199,273.723,194.27,264.547,185.095z M253.941,207.768l-72.554,72.554c-2.929,2.929-2.929,7.678,0,10.606    c1.464,1.464,3.384,2.197,5.303,2.197s3.839-0.732,5.303-2.197l15.871-15.871c3.327-3.326,8.74-3.326,12.066,0    c3.327,3.327,3.327,8.74,0,12.066l-21.54,21.54c-2.929,2.929-2.929,7.678,0,10.606c2.929,2.929,7.678,2.929,10.606,0    l15.873-15.873c3.327-3.324,8.738-3.324,12.064,0.001c3.327,3.327,3.327,8.74,0,12.066L216.53,335.87    c-2.929,2.929-2.929,7.678,0,10.606c0.366,0.366,0.761,0.687,1.177,0.961c1.248,0.824,2.687,1.236,4.127,1.236    s2.879-0.412,4.127-1.236c0.416-0.274,0.81-0.595,1.176-0.961l14.737-14.737c3.327-3.326,8.741-3.327,12.066,0    c3.327,3.327,3.327,8.74,0,12.066l-40.423,40.423c-5.89,5.89-12.438,11.143-19.465,15.614l-27.313,17.381    c-7.95,5.059-15.358,11.002-22.018,17.663l-13.58,13.58l-42.312-42.312c-2.929-2.929-7.678-2.929-10.606,0    c-2.929,2.929-2.929,7.678,0,10.606l51.016,51.016c0.202,0.202,0.202,0.53,0,0.731l-28.341,28.341    c-0.202,0.201-0.53,0.202-0.731,0l-85.023-85.023c-0.202-0.202-0.202-0.53,0-0.731l28.341-28.341c0.202-0.201,0.53-0.202,0.731,0    l11.334,11.334c2.929,2.929,7.678,2.929,10.606,0c2.929-2.929,2.929-7.678,0-10.606l-6.031-6.031l13.39-13.39    c1.119,1.368,2.31,2.689,3.576,3.956c1.464,1.464,3.384,2.197,5.303,2.197s3.839-0.732,5.303-2.197    c2.929-2.929,2.929-7.678,0-10.606c-7.062-7.062-10.951-16.452-10.951-26.439s3.889-19.377,10.951-26.439l61.217-61.217    c2.077-2.076,5.455-2.076,7.532,0c4.577,4.577,4.577,12.024,0,16.601l-24.94,24.94c-2.929,2.929-2.929,7.678,0,10.606    c2.929,2.929,7.678,2.929,10.606,0l99.761-99.761c3.327-3.325,8.74-3.326,12.067,0    C257.268,199.028,257.268,204.441,253.941,207.768z"/>
		<path d="M392.267,0C326.25,0,272.541,53.708,272.541,119.726s53.709,119.726,119.726,119.726s119.726-53.709,119.726-119.726    S458.284,0,392.267,0z M392.267,224.452c-57.746,0-104.726-46.98-104.726-104.726S334.521,15,392.267,15    s104.726,46.979,104.726,104.726S450.013,224.452,392.267,224.452z"/>
		<path d="M451.093,78.35l-78.866,78.866l-30.77-30.77c-2.929-2.929-7.678-2.929-10.606,0c-2.929,2.929-2.929,7.678,0,10.606    l36.073,36.073c1.464,1.464,3.384,2.197,5.303,2.197s3.839-0.732,5.303-2.197l84.169-84.169c2.929-2.929,2.929-7.678,0-10.606    C458.77,75.421,454.021,75.421,451.093,78.35z"/>
	</g>
</g>















</svg>
