<?xml version="1.0" encoding="iso-8859-1"?>
<!-- Generator: Adobe Illustrator 19.0.0, SVG Export Plug-In . SVG Version: 6.00 Build 0)  -->
<svg xmlns="http://www.w3.org/2000/svg" xmlns:xlink="http://www.w3.org/1999/xlink" version="1.1" id="Capa_1" x="0px" y="0px" viewBox="0 0 512 512" style="enable-background:new 0 0 512 512;" xml:space="preserve" width="512" height="512">
<g>
	<g>
		<circle style="fill:#C38C66;" cx="250.627" cy="195.879" r="60.121"/>
		<path style="fill:#B57F5F;" d="M250.627,167.823c-57.553,0-104.21,44.862-104.21,100.202c0,15.843,3.928,30.77,10.737,44.089    l195.551-24.048c1.392-6.471,2.131-13.17,2.131-20.041C354.837,212.684,308.18,167.823,250.627,167.823z"/>
		<path style="fill:#F6D190;" d="M360.089,455.875l-55.284-25.129c-8.585-3.902-14.097-12.463-14.097-21.893v-32.611h-80.161v32.611    c0,9.431-5.512,17.991-14.097,21.893l-55.284,25.129c-11.447,5.203-18.796,16.617-18.796,29.19V504.5h256.516v-19.434    C378.885,472.492,371.536,461.078,360.089,455.875z"/>
		<path style="fill:#ECBD83;" d="M210.546,407.27c10.415,4.947,21.777,8.076,33.732,8.847c2.13,0.137,4.249,0.205,6.349,0.205    c14.314,0,27.86-3.184,40.08-8.738v-23.326h-80.161V407.27z"/>
		<path style="fill:#FFE09F;" d="M226.579,223.935c-8.016,24.048-30.179,38.304-39.781,45.46    c-6.448,4.806-11.247,11.318-13.922,18.669h-2.411c-8.854,0-16.032,7.178-16.032,16.032c0,8.854,7.178,16.032,16.032,16.032h0.775    c4.892,38.018,35.094,69.457,74.07,71.973c46.678,3.013,85.477-34.011,85.477-78.653v-65.465L226.579,223.935z"/>
		<path style="fill:#FFFFFF;" d="M250.627,324.638c-8.634,0-16.68,5.819-23.692,15.768c-2.6,3.689-0.116,8.781,4.397,8.781h38.591    c4.513,0,6.996-5.093,4.397-8.781C267.307,330.457,259.261,324.638,250.627,324.638z"/>
		<path style="fill:#F6D190;" d="M194.514,312.113c0,0-0.251-13.663-0.251-19.038c0-3.632-0.221-8.971,4.883-12.849    c9.494-7.214,26.1-18.95,36.64-37.712l-9.208-18.578c-6.297,18.892-21.255,31.667-32.065,39.778    c-2.951,2.214-5.657,4.148-7.716,5.682c-6.448,4.806-11.247,11.318-13.922,18.669h-2.411c-8.854,0-16.032,7.178-16.032,16.032    c0,8.854,7.178,16.032,16.032,16.032h0.775c4.892,38.018,35.094,69.457,74.07,71.973c6.02,0.388,11.901,0.087,17.594-0.787    C224.229,385.608,194.514,352.375,194.514,312.113z"/>
		<path style="fill:#C38C66;" d="M250.627,167.823c-39.664,0-74.142,21.314-91.75,52.675    c111.594,27.093,167.655,81.256,187.434,104.571c2.924,3.447,8.526,1.324,8.526-3.196v-53.848    C354.837,212.684,308.18,167.823,250.627,167.823z"/>
		<path style="fill:#D19A6E;" d="M250.627,167.823c-20.932,0-40.386,5.98-56.712,16.196    c90.238,44.211,138.305,98.335,160.921,130.972v-46.966C354.837,212.684,308.18,167.823,250.627,167.823z"/>
		<path style="fill:#CCF49F;" d="M360.089,455.875l-29.14-13.245c-19.115,23.1-47.997,37.822-80.322,37.822    s-61.207-14.721-80.322-37.822l-29.14,13.245c-11.447,5.203-18.796,16.617-18.796,29.191V504.5h256.516v-19.434    C378.885,472.492,371.536,461.078,360.089,455.875z"/>
	</g>
	<g>
		<path d="M286.118,353.042c1.355-2.261,1.424-5.067,0.181-7.392c-12.602-23.566-26.354-28.513-35.672-28.513    c-9.318,0-23.071,4.947-35.672,28.513c-1.243,2.324-1.174,5.131,0.181,7.392c1.355,2.261,3.797,3.645,6.433,3.645h58.117    C282.321,356.688,284.763,355.304,286.118,353.042z M235.354,341.688c5.062-6.229,10.303-9.549,15.273-9.549    s10.211,3.32,15.273,9.549H235.354z"/>
		<path d="M363.193,449.048l-27.866-12.666c-0.766-0.535-1.602-0.906-2.467-1.121l-24.951-11.341    c-5.893-2.679-9.701-8.592-9.701-15.065v-23.023c4.465-2.884,8.714-6.186,12.688-9.912c14.013-13.137,23.21-30.454,26.266-48.903    c4.009,4.404,7.96,9.008,11.818,13.83c1.451,1.814,3.623,2.815,5.858,2.815c0.83,0,1.667-0.138,2.481-0.423    c3.006-1.054,5.018-3.892,5.018-7.077v-64.129c0-36.833-17.923-69.555-45.501-89.916c-6.46-31.354-33.909-53.858-66.208-53.858    c-32.286,0-59.746,22.508-66.207,53.856c-27.579,20.361-45.503,53.083-45.503,89.917c0,13.431,2.96,26.323,8.798,38.318    c0.05,0.104,0.11,0.199,0.165,0.299c2.322,7.987,8.756,14.242,16.861,16.275c4.734,24.498,18.925,45.304,38.306,58.332v23.597    c0,6.473-3.808,12.387-9.7,15.065l-55.284,25.129c-14.089,6.404-23.193,20.542-23.193,36.018V504.5c0,4.142,3.358,7.5,7.5,7.5    s7.5-3.358,7.5-7.5v-19.434c0-9.609,5.652-18.387,14.4-22.363l24.059-10.936c21.153,23.042,50.913,36.184,82.299,36.184    c31.48,0,61.15-13.117,82.305-36.182l24.053,10.933c8.747,3.976,14.399,12.754,14.399,22.363V504.5c0,4.142,3.358,7.5,7.5,7.5    s7.5-3.358,7.5-7.5v-19.434C386.385,469.59,377.281,455.452,363.193,449.048z M250.627,143.258c19.632,0,36.957,10.684,46,26.981    c-14.036-6.368-29.611-9.916-46.001-9.916c-16.388,0-31.962,3.548-45.997,9.915C213.676,153.943,231.003,143.258,250.627,143.258z     M178.679,319.171c-0.481-3.741-3.667-6.542-7.438-6.542h-0.775c-4.705,0-8.532-3.828-8.532-8.532s3.828-8.532,8.532-8.532h2.411    c3.153,0,5.97-1.973,7.048-4.936c2.207-6.065,6.133-11.328,11.356-15.22c8.642-6.441,20.387-16.552,29.125-29.181    c0.923,0.373,1.865,0.758,2.84,1.163c0.942,0.393,1.918,0.578,2.879,0.578c2.938,0,5.728-1.738,6.927-4.62    c1.592-3.824-0.217-8.214-4.042-9.806c-14.765-6.146-24.115-8.721-24.506-8.828c-3.994-1.089-8.112,1.265-9.205,5.258    c-1.092,3.993,1.26,8.117,5.252,9.212c0.04,0.011,1.918,0.533,5.242,1.636c-7.299,9.539-16.503,17.362-23.477,22.559    c-6.167,4.597-11.093,10.521-14.443,17.325c-4.775,0.526-9.109,2.503-12.591,5.456c-0.906-4.61-1.365-9.328-1.365-14.13    c0-53.326,43.384-96.709,96.71-96.709c53.326,0,96.709,43.384,96.709,96.709v43.875c-30.786-33.518-64.744-55.502-89.199-68.543    c-3.654-1.948-8.198-0.566-10.147,3.089c-1.949,3.655-0.566,8.198,3.089,10.147c10.224,5.451,22.185,12.542,34.863,21.462    l-14.621,7.311c-2.541,1.27-4.146,3.867-4.146,6.708s1.605,5.438,4.146,6.708l16.032,8.016c1.077,0.539,2.221,0.793,3.348,0.793    c2.751,0,5.4-1.52,6.714-4.147c1.853-3.705,0.351-8.21-3.354-10.062l-2.616-1.308l2.616-1.308c1.75-0.875,3-2.344,3.646-4.038    c8.448,6.526,17.067,13.854,25.581,22.033v0.681c0,19.25-8.256,38.031-22.651,51.527c-14.918,13.986-34.394,20.959-54.843,19.642    C211.5,382.404,183.274,354.88,178.679,319.171z M250.627,472.952c-25.512,0-49.785-10.03-67.815-27.768l16.74-7.609    c11.234-5.106,18.493-16.38,18.493-28.721v-15.537c8.387,3.483,17.392,5.663,26.782,6.27c1.972,0.127,3.933,0.19,5.888,0.19    c11.297,0,22.269-2.118,32.491-6.192v15.269c0,12.341,7.259,23.614,18.494,28.721l16.742,7.61    C300.42,462.937,276.215,472.952,250.627,472.952z"/>
		<path d="M234.078,296.081c0-2.841-1.605-5.438-4.146-6.708l-16.032-8.016c-3.705-1.853-8.21-0.351-10.062,3.354    c-1.853,3.705-0.351,8.21,3.354,10.062l2.616,1.308l-2.616,1.308c-3.705,1.852-5.207,6.357-3.354,10.062    c1.314,2.628,3.962,4.148,6.714,4.147c1.127,0,2.271-0.255,3.348-0.793l16.032-8.016    C232.473,301.519,234.078,298.921,234.078,296.081z"/>
		<path d="M235.111,103.693c0,4.142,3.358,7.5,7.5,7.5s7.5-3.358,7.5-7.5c0-4.69,1.888-6.785,5.816-10.708    c4.312-4.307,10.216-10.205,10.216-21.321c0-11.126-5.902-17.031-10.211-21.343c-3.931-3.934-5.821-6.033-5.821-10.739    s1.89-6.805,5.821-10.739c4.31-4.312,10.211-10.217,10.211-21.343c0-4.142-3.358-7.5-7.5-7.5c-4.142,0-7.5,3.358-7.5,7.5    c0,4.706-1.89,6.806-5.821,10.739c-4.31,4.312-10.211,10.217-10.211,21.342c0,11.126,5.902,17.031,10.211,21.343    c3.931,3.934,5.821,6.033,5.821,10.739c0,4.69-1.888,6.785-5.816,10.709C241.015,86.679,235.111,92.577,235.111,103.693z"/>
		<path d="M156.331,94.876c5.12,1.509,7.459,2.329,9.266,5.942c1.8,3.601,1.051,5.959-0.814,10.951    c-2.1,5.62-4.976,13.317-0.179,22.91c1.314,2.628,3.962,4.147,6.714,4.147c1.127,0,2.271-0.255,3.348-0.793    c3.705-1.852,5.207-6.357,3.354-10.062c-1.8-3.601-1.051-5.959,0.814-10.951c2.1-5.62,4.976-13.317,0.179-22.91    c-4.8-9.601-12.684-11.925-18.44-13.622c-5.12-1.509-7.459-2.329-9.266-5.942c-1.807-3.614-1.059-5.978,0.806-10.979    c2.096-5.624,4.967-13.325,0.167-22.926c-1.852-3.705-6.356-5.208-10.062-3.354c-3.705,1.852-5.207,6.357-3.354,10.062    c1.807,3.614,1.059,5.977-0.806,10.978c-2.097,5.624-4.968,13.326-0.167,22.927C142.691,90.855,150.575,93.18,156.331,94.876z"/>
		<path d="M116.408,180.215c-1.12,4.955-2.994,13.249,3.61,19.193c1.43,1.287,3.215,1.919,4.995,1.919    c2.045,0,4.084-0.836,5.568-2.475c2.714-2.999,2.539-7.607-0.334-10.411c-0.096-0.994,0.454-3.427,0.792-4.921    c1.12-4.956,2.994-13.25-3.611-19.194c-6.606-5.947-14.661-3.218-19.472-1.587c-1.296,0.439-3.316,1.124-4.447,1.272    c0.029-1.14,0.498-3.221,0.798-4.556c1.116-4.957,2.984-13.252-3.623-19.198c-3.07-2.762-7.772-2.502-10.547,0.556    c-2.717,2.994-2.542,7.607,0.325,10.416c0.099,0.992-0.451,3.433-0.788,4.931c-1.116,4.957-2.984,13.252,3.623,19.198    c6.607,5.948,14.661,3.217,19.473,1.588c1.293-0.438,3.308-1.121,4.439-1.271C117.176,176.816,116.708,178.886,116.408,180.215z"/>
		<path d="M312.249,130.864c1.077,0.539,2.221,0.793,3.348,0.793c2.751,0,5.4-1.52,6.714-4.147c1.8-3.6,4.137-4.417,9.25-5.919    c5.756-1.692,13.639-4.009,18.436-13.602c4.801-9.602,1.93-17.303-0.167-22.927c-1.864-5.001-2.612-7.364-0.805-10.978    c1.807-3.614,4.146-4.434,9.266-5.943c5.756-1.697,13.64-4.021,18.44-13.622c1.853-3.705,0.351-8.21-3.354-10.062    c-3.705-1.853-8.209-0.351-10.062,3.354c-1.807,3.614-4.146,4.433-9.266,5.942c-5.756,1.697-13.641,4.021-18.441,13.623    c-4.801,9.601-1.93,17.302,0.167,22.926c1.864,5.001,2.613,7.364,0.806,10.979c-1.8,3.6-4.137,4.417-9.25,5.919    c-5.756,1.692-13.639,4.009-18.436,13.603C307.042,124.507,308.544,129.012,312.249,130.864z"/>
		<path d="M421.884,152.776c-2.692-3.016-7.299-3.327-10.393-0.771c-0.997-0.005-3.366-0.808-4.821-1.301    c-4.812-1.63-12.866-4.358-19.473,1.588c-6.607,5.947-4.739,14.242-3.623,19.198c0.3,1.332,0.767,3.407,0.798,4.548    c-1.132-0.153-3.141-0.835-4.431-1.273c-4.812-1.634-12.863-4.368-19.466,1.577c-3.073,2.766-3.313,7.482-0.556,10.563    c2.698,3.015,7.299,3.323,10.389,0.76c0.999,0.01,3.36,0.812,4.811,1.304c2.581,0.876,6.094,2.069,9.816,2.069    c3.216,0,6.589-0.891,9.65-3.646c6.607-5.946,4.739-14.242,3.623-19.198c-0.3-1.334-0.769-3.416-0.798-4.556    c1.131,0.149,3.151,0.833,4.447,1.272c4.812,1.629,12.866,4.359,19.473-1.588C424.399,160.561,424.634,155.857,421.884,152.776z"/>
	</g>
</g>















</svg>
