<?xml version="1.0" encoding="iso-8859-1"?>
<!-- Generator: Adobe Illustrator 19.0.0, SVG Export Plug-In . SVG Version: 6.00 Build 0)  -->
<svg version="1.1" id="Capa_1" xmlns="http://www.w3.org/2000/svg" xmlns:xlink="http://www.w3.org/1999/xlink" x="0px" y="0px"
	 viewBox="0 0 512 512" style="enable-background:new 0 0 512 512;" xml:space="preserve">
<circle style="fill:#D9DCDF;" cx="231.958" cy="256.005" r="192.38"/>
<circle style="fill:#ECEDEF;" cx="231.958" cy="256.005" r="168.332"/>
<path style="fill:#C4DF64;" d="M342.936,413.164c-32.563,23.038-70.939,35.215-110.978,35.215
	c-106.078,0-192.38-86.301-192.38-192.38s86.301-192.38,192.38-192.38s192.38,86.301,192.38,192.38c0,4.491-0.164,8.99-0.474,13.472
	l-21.326-17.772c-6.802-5.669-16.91-4.749-22.58,2.052c-5.667,6.802-4.748,16.911,2.053,22.58l48.095,40.079
	c2.973,2.477,6.618,3.715,10.263,3.715c3.645,0,7.29-1.238,10.263-3.715l48.095-40.079c6.801-5.668,7.72-15.777,2.053-22.58
	c-5.668-6.801-15.777-7.72-22.58-2.052l-22.256,18.547c0.298-4.743,0.456-9.499,0.456-14.247
	c0-59.951-23.346-116.312-65.738-158.705c-42.392-42.392-98.755-65.738-158.705-65.738c-59.951,0-116.312,23.346-158.705,65.738
	S7.515,196.049,7.515,256s23.346,116.312,65.738,158.705s98.754,65.738,158.705,65.738c46.709,0,91.488-14.214,129.496-41.104"/>
<path style="fill:#8AC451;" d="M231.958,448.38c-106.078,0-192.38-86.301-192.38-192.379H7.515
	c0,59.951,23.346,116.312,65.738,158.705s98.754,65.738,158.705,65.738c46.709,0,91.488-14.214,129.496-41.104l-18.519-26.175
	C310.372,436.203,271.997,448.38,231.958,448.38z"/>
<g>
	<path style="fill:#FF8C78;" d="M203.902,207.906c6.64,0,12.024-5.384,12.024-12.024v-56.111c0-6.64-5.384-12.024-12.024-12.024
		h-64.126c-6.64,0-12.024,5.384-12.024,12.024c0,6.64,5.384,12.024,12.024,12.024h52.103v32.063h-52.103
		c-6.64,0-12.024,5.384-12.024,12.024v56.111c0,6.64,5.384,12.024,12.024,12.024h64.126c6.64,0,12.024-5.384,12.024-12.024
		c0-6.64-5.384-12.024-12.024-12.024h-52.103v-32.063H203.902z"/>
	<path style="fill:#FF8C78;" d="M324.139,183.858h-4.008v-44.087c0-6.64-5.384-12.024-12.024-12.024
		c-6.64,0-12.024,5.384-12.024,12.024v44.087h-32.063v-44.087c0-6.64-5.384-12.024-12.024-12.024
		c-6.64,0-12.024,5.384-12.024,12.024v56.111c0,6.64,5.384,12.024,12.024,12.024h44.087v44.087c0,6.64,5.384,12.024,12.024,12.024
		c6.64,0,12.024-5.384,12.024-12.024v-44.087h4.008c6.64,0,12.024-5.384,12.024-12.024
		C336.163,189.242,330.78,183.858,324.139,183.858z"/>
	<path style="fill:#FF8C78;" d="M272.037,284.056c-6.64,0-12.024,5.384-12.024,12.024v40.079h-56.111V296.08
		c0-6.64-5.384-12.024-12.024-12.024c-6.64,0-12.024,5.384-12.024,12.024v104.206c0,6.64,5.384,12.024,12.024,12.024
		c6.64,0,12.024-5.384,12.024-12.024v-40.079h56.111v40.079c0,6.64,5.384,12.024,12.024,12.024s12.024-5.384,12.024-12.024V296.08
		C284.06,289.438,278.677,284.056,272.037,284.056z"/>
</g>
<path d="M357.113,433.204c-36.731,25.988-80.011,39.724-125.156,39.724c-57.943,0-112.419-22.564-153.391-63.537
	S15.03,313.943,15.03,256S37.594,143.582,78.567,102.61s95.448-63.537,153.391-63.537c38.684,0,76.551,10.221,109.506,29.559
	c3.532,2.071,8.212,0.855,10.285-2.678c2.072-3.532,0.854-8.212-2.678-10.285c-35.26-20.69-75.756-31.626-117.113-31.626
	C170,24.042,111.75,48.169,67.939,91.981C24.128,135.793,0,194.042,0,256s24.128,120.207,67.939,164.019
	s102.06,67.939,164.019,67.939c48.272,0,94.553-14.691,133.837-42.485c3.388-2.397,4.191-7.087,1.795-10.475
	C365.192,431.612,360.503,430.806,357.113,433.204z"/>
<path d="M506.553,248.942c-8.312-9.973-23.189-11.325-33.164-3.014l-9.484,7.904c-0.556-61.149-24.629-118.549-67.93-161.849
	c-4.263-4.263-8.729-8.401-13.273-12.298c-3.109-2.664-7.932-2.297-10.597,0.813c-2.665,3.108-2.296,7.931,0.813,10.596
	c4.255,3.649,8.438,7.524,12.431,11.518c40.973,40.972,63.537,95.447,63.537,153.391c0,4.473-0.148,9.108-0.441,13.777
	c-0.404,6.438,7.344,10.381,12.311,6.243l22.255-18.547c3.61-3.008,8.991-2.517,11.997,1.089c3.006,3.608,2.517,8.99-1.091,11.996
	l-48.094,40.079c-3.118,2.597-7.787,2.599-10.906,0l-48.095-40.079c-3.608-3.006-4.097-8.388-1.092-11.995
	c3.008-3.608,8.392-4.096,11.997-1.09l21.326,17.772c4.626,3.852,11.894,0.738,12.308-5.256c0.326-4.727,0.491-9.434,0.491-13.989
	c0-110.222-89.672-199.894-199.894-199.894S32.063,145.778,32.063,256s89.672,199.894,199.894,199.894
	c41.603,0,81.479-12.655,115.319-36.596c3.388-2.397,4.191-7.087,1.795-10.475c-2.398-3.388-7.086-4.192-10.476-1.795
	c-2.55,1.805-5.141,3.532-7.763,5.196l-8.2-14.203c-2.074-3.595-6.672-4.827-10.265-2.75c-3.594,2.075-4.826,6.671-2.75,10.265
	l8.213,14.226c-24.154,12.709-50.77,19.852-78.357,20.949v-16.38c0-4.15-3.365-7.515-7.515-7.515c-4.15,0-7.515,3.365-7.515,7.515
	V440.7c-28.172-1.132-54.737-8.597-78.314-21.009l8.171-14.153c2.075-3.594,0.844-8.19-2.75-10.265
	c-3.594-2.076-8.19-0.844-10.265,2.75l-8.161,14.136C110.06,397.51,90.448,377.898,75.8,354.835l14.136-8.161
	c3.594-2.075,4.826-6.671,2.75-10.265c-2.075-3.595-6.671-4.827-10.265-2.75l-14.153,8.171
	c-12.412-23.578-19.877-50.143-21.009-78.315h16.367c4.15,0,7.515-3.365,7.515-7.515c0-4.15-3.365-7.515-7.515-7.515H47.258
	c1.132-28.172,8.597-54.737,21.009-78.314l14.153,8.171c3.834,2.214,8.871,0.545,10.644-3.499c1.517-3.46,0.14-7.63-3.129-9.518
	L75.8,157.165c14.649-23.062,34.261-42.674,57.323-57.323l8.161,14.136c2.208,3.826,7.403,4.914,10.968,2.293
	c3.044-2.238,3.936-6.538,2.049-9.807l-8.171-14.153c23.577-12.413,50.142-19.876,78.313-21.008v16.367
	c0,4.15,3.365,7.515,7.515,7.515c4.15,0,7.515-3.365,7.515-7.515V71.301c28.173,1.132,54.738,8.596,78.315,21.007l-8.172,14.155
	c-1.888,3.268-0.995,7.569,2.049,9.807c3.565,2.621,8.759,1.534,10.968-2.293l8.166-14.143
	c23.064,14.648,42.668,34.269,57.317,57.331l-14.136,8.16c-3.269,1.888-4.646,6.057-3.129,9.518
	c1.773,4.044,6.81,5.713,10.644,3.499l14.162-8.176c13.192,25.058,20.802,53.495,21.153,83.646l-9.461-7.885
	c-9.974-8.313-24.852-6.96-33.164,3.015c-8.311,9.975-6.958,24.851,3.015,33.162l48.096,40.079c8.622,7.186,21.525,7.184,30.148,0
	l48.095-40.079C513.511,273.794,514.865,258.917,506.553,248.942z"/>
<path d="M373.54,386.955c-2.936-2.935-7.693-2.935-10.628,0c-2.935,2.935-2.935,7.693,0,10.627l32.064,32.064
	c3.057,3.056,8.217,2.851,11.028-0.431c2.518-2.941,2.337-7.461-0.399-10.196L373.54,386.955z"/>
<path d="M431.273,386.389l-37.144-26.009c-3.4-2.381-8.085-1.553-10.466,1.846c-2.381,3.4-1.555,8.085,1.846,10.466l37.144,26.009
	c3.623,2.537,8.789,1.317,10.909-2.558C435.373,392.828,434.365,388.554,431.273,386.389z"/>
<path d="M450.887,349.798l-41.098-19.164c-3.759-1.752-8.232-0.126-9.987,3.635s-0.127,8.232,3.634,9.987l41.098,19.164
	c3.802,1.773,8.429-0.035,10.087-3.871C456.199,355.902,454.482,351.473,450.887,349.798z"/>
<path d="M139.776,176.343c-10.773,0-19.539,8.765-19.539,19.539v56.111c0,10.773,8.765,19.539,19.539,19.539h64.126
	c10.773,0,19.539-8.765,19.539-19.539s-8.765-19.539-19.539-19.539h-44.588V215.42h44.588c10.773,0,19.539-8.765,19.539-19.539
	v-56.111c0-10.773-8.765-19.539-19.539-19.539h-64.126c-10.773,0-19.539,8.765-19.539,19.539c0,10.773,8.765,19.539,19.539,19.539
	h44.588v17.034H139.776z M191.879,144.28h-52.103c-2.486,0-4.509-2.023-4.509-4.509c0-2.486,2.023-4.509,4.509-4.509h64.126
	c2.486,0,4.509,2.023,4.509,4.509v56.111c0,2.486-2.023,4.509-4.509,4.509h-52.103c-4.15,0-7.515,3.365-7.515,7.515v32.063
	c0,4.15,3.365,7.515,7.515,7.515h52.103c2.486,0,4.509,2.023,4.509,4.509s-2.023,4.509-4.509,4.509h-64.126
	c-2.486,0-4.509-2.023-4.509-4.509v-56.111c0-2.486,2.023-4.509,4.509-4.509h52.103c4.15,0,7.515-3.365,7.515-7.515v-32.063
	C199.393,147.645,196.029,144.28,191.879,144.28z"/>
<path d="M308.108,271.531c10.773,0,19.539-8.765,19.539-19.539v-36.888c9.106-1.657,16.032-9.646,16.032-19.224
	c0-9.578-6.926-17.567-16.032-19.224V139.77c0-10.773-8.765-19.539-19.539-19.539c-10.773,0-19.539,8.765-19.539,19.539v36.572
	h-17.034V139.77c0-10.773-8.765-19.539-19.539-19.539c-10.773,0-19.539,8.765-19.539,19.539v56.111
	c0,10.773,8.765,19.539,19.539,19.539h36.572v36.572C288.569,262.766,297.335,271.531,308.108,271.531z M251.997,200.391
	c-2.486,0-4.509-2.023-4.509-4.509v-56.111c0-2.486,2.023-4.509,4.509-4.509s4.509,2.023,4.509,4.509v44.087
	c0,4.15,3.364,7.515,7.515,7.515h32.063c4.151,0,7.515-3.365,7.515-7.515v-44.087c0-2.486,2.023-4.509,4.509-4.509
	c2.486,0,4.509,2.023,4.509,4.509v44.087c0,4.15,3.364,7.515,7.515,7.515h4.008c2.486,0,4.509,2.023,4.509,4.509
	c0,2.486-2.023,4.509-4.509,4.509h-4.008c-4.151,0-7.515,3.365-7.515,7.515v44.087c0,2.486-2.023,4.509-4.509,4.509
	c-2.486,0-4.509-2.023-4.509-4.509v-44.087c0-4.15-3.364-7.515-7.515-7.515H251.997z"/>
<path d="M272.037,419.824c10.773,0,19.539-8.765,19.539-19.539V296.08c0-10.773-8.765-19.539-19.539-19.539
	s-19.539,8.765-19.539,19.539v32.564h-41.081V296.08c0-10.773-8.765-19.539-19.539-19.539s-19.539,8.765-19.539,19.539v104.206
	c0,10.773,8.765,19.539,19.539,19.539s19.539-8.765,19.539-19.539v-32.564h41.081v32.564
	C252.498,411.058,261.263,419.824,272.037,419.824z M203.902,352.691c-4.15,0-7.515,3.365-7.515,7.515v40.079
	c0,2.486-2.023,4.509-4.509,4.509c-2.486,0-4.509-2.023-4.509-4.509V296.08c0-2.486,2.023-4.509,4.509-4.509
	c2.486,0,4.509,2.023,4.509,4.509v40.079c0,4.15,3.365,7.515,7.515,7.515h56.111c4.151,0,7.515-3.365,7.515-7.515V296.08
	c0-2.486,2.023-4.509,4.509-4.509s4.509,2.023,4.509,4.509v104.206c0,2.486-2.023,4.509-4.509,4.509s-4.509-2.023-4.509-4.509
	v-40.079c0-4.15-3.364-7.515-7.515-7.515H203.902z"/>
<g>
</g>
<g>
</g>
<g>
</g>
<g>
</g>
<g>
</g>
<g>
</g>
<g>
</g>
<g>
</g>
<g>
</g>
<g>
</g>
<g>
</g>
<g>
</g>
<g>
</g>
<g>
</g>
<g>
</g>
</svg>
