<?xml version="1.0" encoding="iso-8859-1"?>
<!-- Generator: Adobe Illustrator 19.0.0, SVG Export Plug-In . SVG Version: 6.00 Build 0)  -->
<svg version="1.1" id="Layer_1" xmlns="http://www.w3.org/2000/svg" xmlns:xlink="http://www.w3.org/1999/xlink" x="0px" y="0px"
	 viewBox="0 0 511.998 511.998" style="enable-background:new 0 0 511.998 511.998;" xml:space="preserve">
<path style="fill:#EFBB6A;" d="M270.625,130.286h151.14c33.56,0,60.765,27.205,60.765,60.765v162.685
	c0,33.56-27.205,60.765-60.765,60.765H315.887l-9.052-51.9h114.931c4.888,0,8.865-3.977,8.865-8.865V191.051
	c0-4.888-3.977-8.865-8.865-8.865h-135.82L270.625,130.286z"/>
<path style="fill:#F2F2F2;" d="M350.64,100.18c8.498-6.595,13.967-16.906,13.967-28.495c0-19.909-16.138-36.047-36.047-36.047
	c-0.78,0-1.551,0.034-2.319,0.082c-5.328-13.253-18.292-22.613-33.45-22.613c-11.92,0-22.486,5.79-29.048,14.707
	c-6.298-3.163-13.403-4.955-20.931-4.955c-9.914,0-19.099,3.097-26.661,8.364c-5.631-12.569-18.241-21.331-32.904-21.331
	c-9.925,0-18.911,4.012-25.43,10.501c-6.328-3.202-13.477-5.017-21.054-5.017c-16.981,0-31.843,9.063-40.021,22.614
	c-3.17-0.911-6.513-1.41-9.974-1.41c-19.909,0-36.047,16.14-36.047,36.047c0,9.954,4.035,18.966,10.559,25.49"/>
<g>
	<path style="fill:#CCCCCC;" d="M268.857,40.074c7.562-5.267,16.747-8.364,26.661-8.364c7.528,0,14.633,1.791,20.931,4.955
		c1.909-2.595,4.166-4.915,6.689-6.914c-6.405-10-17.588-16.644-30.346-16.644c-11.92,0-22.486,5.79-29.048,14.707
		c-2.519-1.265-5.173-2.299-7.926-3.098C261.495,28.475,266.046,33.8,268.857,40.074z"/>
	<path style="fill:#CCCCCC;" d="M103.425,81.48c0-19.909,16.14-36.047,36.047-36.047c3.462,0,6.806,0.498,9.974,1.41
		c8.177-13.551,23.04-22.614,40.021-22.614c7.577,0,14.726,1.815,21.054,5.017c0.972-0.967,2.004-1.872,3.08-2.724
		c-6.405-9.996-17.6-16.628-30.355-16.628c-9.925,0-18.911,4.012-25.43,10.501c-6.328-3.202-13.477-5.017-21.054-5.017
		c-16.981,0-31.843,9.063-40.021,22.614c-3.17-0.911-6.513-1.41-9.974-1.41c-19.909,0-36.047,16.14-36.047,36.047
		c0,9.954,4.035,18.966,10.559,25.49l46.387,0.331C104.963,93.39,103.425,87.616,103.425,81.48z"/>
</g>
<polyline style="fill:#D88948;" points="46.488,364.453 55.95,190.547 58.335,146.67 60.87,100.172 348.727,100.172 351.262,146.67 
	353.647,190.547 363.109,364.453 365.505,408.33 367.707,448.877 41.89,448.877 44.093,408.33 "/>
<polygon style="fill:#C4783F;" points="119.263,364.453 124.376,190.547 125.664,146.67 127.034,100.172 60.87,100.172 
	58.335,146.67 55.95,190.547 46.488,364.453 44.093,408.33 41.89,448.877 116.779,448.877 117.968,408.33 "/>
<polygon style="fill:#EFBB6A;" points="358.285,146.667 51.312,146.667 49.163,190.545 360.434,190.545 "/>
<rect x="261.777" y="146.671" style="fill:#F9DAB4;" width="37.814" height="43.873"/>
<polygon style="fill:#EFBB6A;" points="373.652,364.45 35.945,364.45 33.796,408.33 375.801,408.33 "/>
<polygon style="fill:#D19B54;" points="35.945,364.45 33.796,408.33 106.616,408.33 108.765,364.45 "/>
<rect x="261.777" y="366.388" style="fill:#F9DAB4;" width="37.814" height="43.873"/>
<polygon style="fill:#D19B54;" points="51.312,146.667 49.163,190.545 112.111,190.545 114.258,146.667 "/>
<rect x="28.136" y="448.872" style="fill:#EFBB6A;" width="353.328" height="54.905"/>
<rect x="28.136" y="448.872" style="fill:#D19B54;" width="100.067" height="54.905"/>
<rect x="257.734" y="448.872" style="fill:#F9DAB4;" width="49.8" height="54.724"/>
<path d="M422.431,120.394h-62.825l-0.844-15.472c9.919-8.583,15.561-20.866,15.561-34.079c0-23.739-18.436-43.253-41.743-44.975
	c-7.958-13.939-22.722-22.655-39.125-22.655c-11.825,0-23.174,4.716-31.539,12.88c-5.898-2.077-12.075-3.127-18.439-3.127
	c-8.178,0-16.135,1.763-23.433,5.155C211.64,6.881,198.298,0,183.912,0c-9.871,0-19.263,3.154-27.02,8.982
	c-6.206-2.325-12.727-3.499-19.462-3.499c-17.517,0-33.568,7.966-44.082,21.595c-1.96-0.259-3.935-0.39-5.913-0.39
	c-24.868,0-45.1,20.231-45.1,45.1c0,10.481,3.555,20.415,10.088,28.429l-2.001,36.698c-4.099,0.712-7.274,4.177-7.486,8.468
	l-2.148,43.878c-0.121,2.474,0.777,4.891,2.486,6.685c1.06,1.112,2.373,1.923,3.808,2.38l-8.501,156.229H36.61
	c-4.828,0-8.805,3.787-9.041,8.609l-2.148,43.878c-0.121,2.474,0.777,4.891,2.486,6.685s4.078,2.81,6.556,2.81h0.74l-1.219,22.444
	h-5.182c-4.999,0-9.052,4.053-9.052,9.052v54.911c0,4.999,4.053,9.052,9.052,9.052H58.06c4.999,0,9.052-4.053,9.052-9.052
	s-4.053-9.052-9.052-9.052H37.853v-36.807h335.221v36.807H91.854c-4.999,0-9.052,4.053-9.052,9.052s4.053,9.052,9.052,9.052h290.272
	c4.999,0,9.052-4.053,9.052-9.052v-54.911c0-4.999-4.053-9.052-9.052-9.052h-5.18l-0.885-16.292
	c0.135,0.006,0.269,0.021,0.406,0.021h45.965c38.497,0,69.816-31.32,69.816-69.817V190.211
	C492.247,151.714,460.928,120.394,422.431,120.394z M367.654,195.948c1.446-1.518,2.303-3.482,2.462-5.55h52.128v162.311h-49.997
	l-8.401-154.381C365.281,197.871,366.594,197.059,367.654,195.948z M59.335,180.653l1.261-25.774h289.733l1.261,25.774H59.335z
	 M342.368,136.775h-25.14l-1.084-28.39h24.675L342.368,136.775z M298.026,108.385l1.084,28.39h-39.714l-0.479-28.39
	C258.917,108.385,298.026,108.385,298.026,108.385z M240.81,108.385l0.479,28.39h-71.652l0.479-28.39
	C170.116,108.385,240.81,108.385,240.81,108.385z M151.53,136.775h-39.713l1.083-28.39h39.109L151.53,136.775z M93.699,136.775
	h-25.14l1.549-28.39h24.675L93.699,136.775z M150.502,198.758l-0.681,40.508c-0.083,4.999,3.9,9.119,8.899,9.203
	c0.052,0.001,0.103,0.001,0.154,0.001c4.928,0,8.965-3.953,9.049-8.9l0.686-40.811h73.71l2.617,155.8h-78.943l1.384-82.409
	c0.083-4.999-3.9-9.119-8.899-9.203c-0.052-0.001-0.103-0.001-0.155-0.001c-4.928,0-8.965,3.953-9.049,8.9l-1.389,82.714h-44.408
	l5.958-155.8h41.067V198.758z M268.473,372.663c4.999,0,9.052-4.053,9.052-9.052s-4.053-9.052-9.052-9.052h-5.431l-2.617-155.8
	h41.066l3.511,91.796c0.187,4.879,4.199,8.706,9.04,8.706c0.117,0,0.234-0.002,0.352-0.006c4.996-0.191,8.891-4.396,8.7-9.391
	l-3.485-91.104h26.128l8.478,155.8h-28.649l-1.325-34.657c-0.191-4.996-4.386-8.891-9.391-8.7c-4.996,0.191-8.891,4.396-8.7,9.391
	l1.299,33.965h-9.204c-4.999,0-9.052,4.053-9.052,9.052s4.053,9.052,9.052,9.052h67.453l1.261,25.774H43.967l1.261-25.774
	L268.473,372.663L268.473,372.663z M146.846,416.542l-0.374,22.442h-46.227l0.862-22.442H146.846z M164.953,416.542h81.021
	l0.374,22.442h-81.77L164.953,416.542z M264.081,416.542h45.739l0.862,22.442h-46.227L264.081,416.542z M87.433,44.793
	c2.52,0,5.034,0.355,7.474,1.056c3.932,1.131,8.136-0.519,10.252-4.023c6.892-11.42,18.955-18.239,32.271-18.239
	c5.958,0,11.667,1.36,16.968,4.042c3.481,1.762,7.705,1.094,10.473-1.662c5.095-5.072,11.857-7.865,19.042-7.865
	c10.623,0,20.295,6.273,24.643,15.979c1.102,2.46,3.244,4.302,5.842,5.022s5.382,0.246,7.594-1.295
	c6.331-4.409,13.759-6.74,21.486-6.74c5.92,0,11.594,1.343,16.869,3.991c3.942,1.981,8.738,0.83,11.354-2.724
	c5.154-7.003,13.084-11.02,21.757-11.02c11.081,0,20.914,6.648,25.051,16.936c1.457,3.623,5.075,5.902,8.971,5.658
	c0.578-0.037,1.159-0.064,1.746-0.064c14.886,0,26.995,12.11,26.995,26.995c0,7.426-2.982,14.361-8.264,19.436H67.803
	c-4.741-5.027-7.365-11.552-7.365-18.492C60.438,56.904,72.549,44.793,87.433,44.793z M65.188,198.758h26.128l-5.958,155.8H56.711
	L65.188,198.758z M53.331,416.542h29.655l-0.862,22.442H52.113L53.331,416.542z M328.8,438.984l-0.862-22.442h29.656l1.219,22.442
	H328.8z M474.142,352.896c0,28.515-23.198,51.713-51.711,51.713h-37.043l-1.655-33.795h38.697c9.88,0,17.917-8.037,17.917-17.917
	V190.211c0-9.879-8.037-17.917-17.917-17.917h-53.122l-1.317-26.909c-0.14-2.847-1.59-5.326-3.743-6.886h58.183
	c28.515,0,51.711,23.198,51.711,51.713L474.142,352.896L474.142,352.896z"/>
<g>
</g>
<g>
</g>
<g>
</g>
<g>
</g>
<g>
</g>
<g>
</g>
<g>
</g>
<g>
</g>
<g>
</g>
<g>
</g>
<g>
</g>
<g>
</g>
<g>
</g>
<g>
</g>
<g>
</g>
</svg>
