<?xml version="1.0" encoding="iso-8859-1"?>
<!-- Generator: Adobe Illustrator 19.0.0, SVG Export Plug-In . SVG Version: 6.00 Build 0)  -->
<svg version="1.1" id="Capa_1" xmlns="http://www.w3.org/2000/svg" xmlns:xlink="http://www.w3.org/1999/xlink" x="0px" y="0px"
	 viewBox="0 0 511.998 511.998" style="enable-background:new 0 0 511.998 511.998;" xml:space="preserve">
<path style="fill:#FAC55A;" d="M478.667,472.213l-18.55,18.53c-1.56,1.56-3.97,1.69-5.38,0.28l-21.33-21.31l-230.84-230.62
	l24.2-24.18l230.97,230.73l0.01,0.01l21.2,21.18C480.357,468.243,480.237,470.653,478.667,472.213z"/>
<g>
	<path style="fill:#F0A835;" d="M478.667,472.213l-18.55,18.53c-1.56,1.56-3.97,1.69-5.38,0.28l-21.33-21.31l0.03,0.01
		c1.41,1.41,3.82,1.29,5.38-0.28l18.56-18.53c1.52-1.53,1.66-3.84,0.37-5.26l21.2,21.18
		C480.357,468.243,480.237,470.653,478.667,472.213z"/>
	<path style="fill:#F0A835;" d="M435.705,380.093l21.381,21.362c0.781,0.78,2.047,0.78,2.828,0l19.201-19.184
		c1.562-1.561,4.095-1.561,5.657,0l18.553,18.536c1.562,1.561,1.562,4.091,0,5.652l-42.404,42.366l-72.629-72.562l42.404-42.366
		c1.562-1.561,4.095-1.561,5.657,0l18.553,18.536c1.562,1.561,1.562,4.091,0,5.652l-19.201,19.184
		C434.924,378.048,434.924,379.313,435.705,380.093z"/>
</g>
<path style="fill:#DC527C;" d="M210.888,45.838c-28.94-28.925-71.91-35.663-98.18-9.408c-25.23,25.205-22.05,57.469-20.61,66.238
	c0.18,1.09-0.77,2.03-1.85,1.86c-8.78-1.44-41.08-4.619-66.31,20.586c-26.28,26.255-19.53,69.177,9.41,98.092
	c33.51,33.474,97.829,48.421,196.369,18.817C259.348,143.57,244.398,79.302,210.888,45.838z M205.388,217.696
	c-26.17,6.779-50.26,10.218-71.8,10.218c-34.73,0-62.06-8.968-79.03-25.925c-9.42-9.408-15.55-21.156-16.82-32.244
	c-1.09-9.538,1.4-17.417,7.4-23.416c8.48-8.468,19.47-12.768,32.65-12.768c3.64,0,6.33,0.35,7.61,0.56
	c1.69,0.28,3.41,0.42,5.11,0.42c9.3,0,18.08-4.069,24.1-11.158c6.01-7.089,8.6-16.407,7.09-25.585
	c-0.92-5.619-2.77-25.185,12.21-40.153c5.08-5.079,11.57-7.648,19.28-7.648c12.17,0,25.81,6.379,36.5,17.057
	C217.568,94.909,223.088,149.289,205.388,217.696z"/>
<path d="M225.243,251.144c2.202-0.626,4.413-1.273,6.635-1.94c2.411-0.725,4.298-2.611,5.023-5.022
	c0.67-2.226,1.309-4.423,1.933-6.606l12.506,12.492c1.465,1.463,3.383,2.194,5.301,2.194c1.921,0,3.842-0.733,5.307-2.2
	c2.927-2.93,2.924-7.679-0.006-10.607l-18.662-18.642c26.012-106.483-5.095-158.317-27.089-180.29
	c-15.524-15.511-34.894-25.291-54.541-27.538c-20.885-2.388-40.15,4.05-54.243,18.132c-22.689,22.668-24.544,50.38-23.565,65.148
	c-14.78-0.977-42.518,0.875-65.203,23.541C4.542,133.89-1.904,153.141,0.489,174.013c2.249,19.633,12.039,38.988,27.566,54.501
	c4.249,4.244,8.954,8.199,13.986,11.753c3.383,2.392,8.063,1.584,10.453-1.798c2.39-3.383,1.585-8.063-1.799-10.453
	c-4.34-3.066-8.39-6.469-12.039-10.114c-13.138-13.126-21.399-29.319-23.265-45.596c-1.86-16.23,3.059-31.107,13.85-41.888
	c22.572-22.552,51.476-19.858,59.791-18.495c2.886,0.474,5.848-0.479,7.918-2.549c2.069-2.069,3.023-5.028,2.551-7.919
	c-1.364-8.31-4.06-37.178,18.509-59.726c22.281-22.261,59.934-18.217,87.581,9.406c19.971,19.953,48.11,67.913,22.235,169.703
	c-0.089,0.282-0.167,0.566-0.222,0.855c-1.193,4.653-2.491,9.412-3.916,14.291c-58.43,16.995-108.957,18.96-146.331,5.657
	c-3.898-1.389-8.191,0.649-9.58,4.551c-1.39,3.902,0.648,8.192,4.551,9.581c17.908,6.375,38.443,9.552,61.125,9.551
	c22.965,0,48.136-3.273,74.986-9.767l190.068,189.892c1.464,1.463,3.383,2.194,5.301,2.194c1.921,0,3.841-0.733,5.306-2.199
	c2.928-2.93,2.926-7.679-0.005-10.607L225.243,251.144z"/>
<path d="M511.998,403.635c0-3.072-1.197-5.96-3.371-8.131l-18.551-18.535c-4.482-4.481-11.777-4.483-16.26-0.001l-15.315,15.301
	l-13.598-13.586l15.305-15.291c2.174-2.172,3.371-5.06,3.371-8.133c0-3.072-1.197-5.96-3.371-8.131l-18.551-18.535
	c-4.483-4.48-11.777-4.482-16.261-0.001l-37.11,37.077L284.578,262.07c-2.932-2.928-7.681-2.925-10.606,0.006
	c-2.928,2.93-2.926,7.679,0.005,10.607l196.912,196.705l-13.601,13.587l-25.559-25.535c-2.93-2.928-7.679-2.925-10.606,0.005
	s-2.926,7.679,0.005,10.607l28.307,28.281c2.116,2.115,4.909,3.168,7.736,3.167c2.959,0,5.955-1.152,8.248-3.444l18.535-18.516
	c2.204-2.19,3.472-5.195,3.477-8.244c0.005-2.949-1.124-5.705-3.182-7.763l-12.716-12.703l37.094-37.061
	C510.801,409.596,511.998,406.708,511.998,403.635z M460.922,438.226l-62.017-61.962l34.621-34.59l13.598,13.586l-16.718,16.703
	c-1.797,1.794-2.786,4.181-2.786,6.72c0,2.538,0.989,4.924,2.784,6.718h0.001l21.382,21.363c3.704,3.701,9.73,3.698,13.429-0.001
	l16.73-16.713l13.598,13.586L460.922,438.226z"/>
<path d="M90.508,127.038c-1.3,0-2.614-0.107-3.902-0.317c-1.506-0.247-4.652-0.66-8.814-0.66c-15.243,0-28.011,5.034-37.949,14.964
	c-7.596,7.588-10.898,17.815-9.551,29.576c1.46,12.738,8.373,26.113,18.967,36.697c18.407,18.392,47.568,28.113,84.328,28.113
	c22.128,0,46.918-3.518,73.681-10.456c2.638-0.684,4.696-2.744,5.379-5.381c18.587-71.83,12.314-127.883-17.662-157.831
	c-12.064-12.052-27.687-19.248-41.792-19.248c-9.638,0-18.138,3.403-24.582,9.842c-17.515,17.496-15.385,40.15-14.313,46.681
	c1.151,6.995-0.82,14.106-5.408,19.51C104.298,123.936,97.598,127.038,90.508,127.038z M120.323,128.237
	c7.445-8.768,10.644-20.306,8.776-31.651c-0.778-4.744-2.348-21.191,10.112-33.64c3.673-3.67,8.246-5.453,13.98-5.453
	c10.218,0,21.878,5.555,31.191,14.859c25.121,25.098,30.463,75.671,14.826,139.168c-23.88,5.9-45.939,8.889-65.622,8.889
	c-32.698,0-58.193-8.204-73.727-23.725c-8.239-8.231-13.585-18.361-14.666-27.792c-0.831-7.253,0.887-12.897,5.25-17.257
	c7.023-7.017,16.225-10.575,27.348-10.575c3.216,0,5.54,0.324,6.394,0.463c2.088,0.341,4.215,0.514,6.323,0.514
	C102.009,142.038,112.877,137.008,120.323,128.237z"/>
<g>
</g>
<g>
</g>
<g>
</g>
<g>
</g>
<g>
</g>
<g>
</g>
<g>
</g>
<g>
</g>
<g>
</g>
<g>
</g>
<g>
</g>
<g>
</g>
<g>
</g>
<g>
</g>
<g>
</g>
</svg>
