<?xml version="1.0" encoding="UTF-8"?>
<svg xmlns="http://www.w3.org/2000/svg" xmlns:xlink="http://www.w3.org/1999/xlink" width="512" height="512" viewBox="0 0 57 60" version="1.1"><!-- Generator: Sketch 51.3 (57544) - http://www.bohemiancoding.com/sketch --><title>015 - Heart Key</title><desc>Created with Sketch.</desc><defs/><g id="Page-1" stroke="none" stroke-width="1" fill="none" fill-rule="evenodd"><g id="015---Heart-Key" fill-rule="nonzero"><path d="M44.31,10.06 C44.31,16.1 40.69,18.52 38.27,20.94 C36.93,22.28 33.92,24.92 31.5,27 L24.5,27 C24.13,26.68 23.74,26.34 23.34,26 L28.5,26 C30.92,23.92 33.93,21.28 35.27,19.94 C37.69,17.52 41.31,15.1 41.31,9.06 C41.31,5.12 39.77,2.47 37.36,1.11 C41.42,1.68 44.31,4.67 44.31,10.06 Z" id="Shape" fill="#BB193B"/><path d="M41.31,9.06 C41.31,15.1 37.69,17.52 35.27,19.94 C33.93,21.28 30.92,23.92 28.5,26 L23.34,26 C21.19,24.13 18.86,22.07 17.73,20.94 C15.31,18.52 11.69,16.1 11.69,10.06 C11.69,4.02 15.31,1 20.15,1 C20.5579631,1.00042687 20.9654745,1.02714894 21.37,1.08 C23.1131094,1.3149881 24.7408477,2.0834482 26.03,3.28 C26.8304064,4.00855954 27.4971308,4.87157842 28,5.83 C29.512583,2.88335399 32.5378785,1.02193015 35.85,1 C36.3554813,0.995726594 36.8604747,1.03251419 37.36,1.11 C39.77,2.47 41.31,5.12 41.31,9.06 Z" id="Shape" fill="#EF314C"/><path d="M35,12.75 C35,15.25 33.46,16.25 32.44,17.25 C31.42,18.25 28.08,21 28.08,21 C28.08,21 24.74,18.25 23.72,17.25 C23.37,16.91 22.96,16.57 22.57,16.17 C21.6367779,15.2804196 21.1213207,14.0389663 21.15,12.75 C21.0451503,11.7552987 21.3836057,10.7648911 22.075281,10.042389 C22.7669563,9.31988692 23.7416747,8.93859506 24.74,9 C26.136214,9.00244089 27.4186366,9.77035858 28.08,11 C28.7341909,9.76830567 30.0153548,8.99883789 31.41,9 C31.8090629,8.99498921 32.2066804,9.04890345 32.59,9.16 C34.1550652,9.61739455 35.1693391,11.1282839 35,12.75 Z" id="Shape" fill="#6A1B9A"/><path d="M32.85,10.75 C32.85,13.25 31.31,14.25 30.28,15.25 C29.25,16.25 25.92,19 25.92,19 C25.92,19 23.95,17.37 22.57,16.17 C21.6367779,15.2804196 21.1213207,14.0389663 21.15,12.75 C21.0451503,11.7552987 21.3836057,10.7648911 22.075281,10.042389 C22.7669563,9.31988692 23.7416747,8.93859506 24.74,9 C26.136214,9.00244089 27.4186366,9.77035858 28.08,11 C28.7341909,9.76830567 30.0153548,8.99883789 31.41,9 C31.8090629,8.99498921 32.2066804,9.04890345 32.59,9.16 C32.7709972,9.67020149 32.8590569,10.2087205 32.85,10.75 Z" id="Shape" fill="#9D27B0"/><path d="M41,56 C41,57.6568542 39.6568542,59 38,59 L28,59 C26.3431458,59 25,57.6568542 25,56 L25,32 L31,32 L31,38 C31,39.6568542 32.3431458,41 34,41 L36,41 C37.6568542,41 39,42.3431458 39,44 C39,45.6568542 37.6568542,47 36,47 L34,47 C32.3431458,47.0000001 31.0000001,48.3431458 31.0000001,50 C31.0000001,51.6568542 32.3431458,52.9999999 34,53 L38,53 C39.6568542,53 41,54.3431458 41,56 Z" id="Shape" fill="#FEC108"/><path d="M38,56 C38,57.6568542 36.6568542,59 35,59 L27,59 C25.3431458,59 24,57.6568542 24,56 L24,32 L28,32 L28,38 C28,39.6568542 29.3431458,41 31,41 L33,41 C34.6568542,41 36,42.3431458 36,44 C36,45.6568542 34.6568542,47 33,47 L31,47 C29.3431458,47.0000001 28.0000001,48.3431458 28.0000001,50 C28.0000001,51.6568542 29.3431458,52.9999999 31,53 L35,53 C36.6568542,53 38,54.3431458 38,56 Z" id="Shape" fill="#FFDC00"/><path d="M34,29.5 C34.0021341,30.1636932 33.7394273,30.8008186 33.270123,31.270123 C32.8008186,31.7394273 32.1636932,32.0021341 31.5,32 L24.5,32 C23.1192881,32 22,30.8807119 22,29.5 C22,28.1192881 23.1192881,27 24.5,27 L31.5,27 C32.8807119,27 34,28.1192881 34,29.5 Z" id="Shape" fill="#FDD834"/><path d="M31,29.5 C31.0021341,30.1636932 30.7394273,30.8008186 30.270123,31.270123 C29.8008186,31.7394273 29.1636932,32.0021341 28.5,32 L24.5,32 C23.1192881,32 22,30.8807119 22,29.5 C22,28.1192881 23.1192881,27 24.5,27 L28.5,27 C29.8807119,27 31,28.1192881 31,29.5 Z" id="Shape" fill="#FFEB3A"/><path d="M28.077,22 C27.8447575,22.0003096 27.6197379,21.9192883 27.441,21.771 C27.303,21.658 24.063,18.983 23.02,17.971 C22.885,17.839 22.741,17.709 22.593,17.571 C21.0674798,16.4379891 20.1639808,14.6532173 20.154,12.753 C20.0437273,11.4905928 20.4858606,10.242335 21.3661497,9.33078508 C22.2464388,8.41923518 23.4785145,7.93382942 24.744,8 C25.9903556,7.99574194 27.188065,8.48337819 28.077,9.357 C28.9656921,8.48300895 30.1635602,7.99530807 31.41,8 C32.6749165,7.93393524 33.9064505,8.41894582 34.7866285,9.32980534 C35.6668064,10.2406649 36.1093509,11.4880885 36,12.75 C35.9895486,14.6501037 35.0861499,16.4346771 33.561,17.568 C33.413,17.704 33.269,17.834 33.134,17.968 C32.09,18.985 28.851,21.66 28.713,21.773 C28.5340712,21.9207174 28.3090234,22.001041 28.077,22 Z M24.744,10 C23.776,10 22.154,10.357 22.154,12.75 C22.172989,14.0872245 22.8386182,15.3323908 23.94,16.091 C24.105,16.241 24.266,16.391 24.416,16.534 C25.132,17.234 27.065,18.857 28.077,19.7 C29.088,18.857 31.021,17.232 31.738,16.534 C31.888,16.388 32.048,16.241 32.213,16.091 C33.3146331,15.332497 33.9806163,14.0873655 34,12.75 C34,10.357 32.377,10 31.41,10 C30.3901997,10.0003201 29.4524968,10.5591803 28.967,11.456 C28.7960573,11.789631 28.4528745,11.9996326 28.078,12 C27.7033452,11.9998251 27.3602172,11.790243 27.189,11.457 C26.7026098,10.5599475 25.7644302,10.0008769 24.744,10 Z" id="Shape" fill="#000000"/><path d="M31.5,28 C31.0819235,27.9998936 30.7080385,27.7397174 30.5626602,27.3477312 C30.417282,26.9557451 30.531098,26.5146923 30.848,26.242 C32.359,24.942 36.04,21.756 37.563,20.233 C37.905,19.891 38.27,19.549 38.646,19.197 C40.939,17.051 43.31,14.832 43.31,10.06 C43.31,5.013 40.521,2 35.85,2 C32.9199843,2.02553779 30.2447799,3.67069223 28.9,6.274 C28.712654,6.59074055 28.3719988,6.78503302 28.004,6.78503302 C27.6360012,6.78503302 27.295346,6.59074055 27.108,6.274 C25.7618835,3.66816485 23.082899,2.02257995 20.15,2 C15.479,2 12.69,5.013 12.69,10.06 C12.69,14.832 15.061,17.051 17.354,19.197 C17.73,19.549 18.095,19.891 18.437,20.233 C19.96,21.756 23.637,24.942 25.152,26.242 C25.4456766,26.4674083 25.590793,26.8366206 25.5291915,27.2016687 C25.4675899,27.5667167 25.2093509,27.8678631 24.8579683,27.9844182 C24.5065856,28.1009732 24.1195606,28.0138636 23.852,27.758 C21.952,26.126 18.542,23.158 17.027,21.647 C16.7,21.32 16.351,20.994 15.992,20.658 C13.631,18.449 10.692,15.7 10.692,10.058 C10.69,3.855 14.315,-7.30474437e-16 20.15,-7.30474437e-16 C23.2526005,-0.00809667464 26.1713087,1.47059154 28,3.977 C29.8286913,1.47059154 32.7473995,-0.00809667464 35.85,-7.30474437e-16 C41.685,-7.30474437e-16 45.311,3.855 45.311,10.06 C45.311,15.7 42.373,18.449 40.011,20.66 C39.652,20.996 39.303,21.322 38.976,21.649 C37.461,23.164 34.05,26.128 32.151,27.76 C31.9695968,27.9151294 31.7386885,28.0002569 31.5,28 Z" id="Shape" fill="#000000"/><path d="M38,60 L28,60 C25.790861,60 24,58.209139 24,56 L24,32 C24,31.4477153 24.4477153,31 25,31 C25.5522847,31 26,31.4477153 26,32 L26,56 C26,57.1045695 26.8954305,58 28,58 L38,58 C39.1045695,58 40,57.1045695 40,56 C40,54.8954305 39.1045695,54 38,54 L34,54 C31.790861,54 30,52.209139 30,50 C30,47.790861 31.790861,46 34,46 L36,46 C37.1045695,46 38,45.1045695 38,44 C38,42.8954305 37.1045695,42 36,42 L34,42 C31.790861,42 30,40.209139 30,38 L30,32 C30,31.4477153 30.4477153,31 31,31 C31.5522847,31 32,31.4477153 32,32 L32,38 C32,39.1045695 32.8954305,40 34,40 L36,40 C38.209139,40 40,41.790861 40,44 C40,46.209139 38.209139,48 36,48 L34,48 C32.8954305,48 32,48.8954305 32,50 C32,51.1045695 32.8954305,52 34,52 L38,52 C40.209139,52 42,53.790861 42,56 C42,58.209139 40.209139,60 38,60 Z" id="Shape" fill="#000000"/><path d="M15.69,11.06 C15.1377153,11.06 14.69,10.6122847 14.69,10.06 C14.69,5.051 17.659,4 20.15,4 C20.7022847,4 21.15,4.44771525 21.15,5 C21.15,5.55228475 20.7022847,6 20.15,6 C18.439,6 16.69,6.482 16.69,10.06 C16.69,10.6122847 16.2422847,11.06 15.69,11.06 Z" id="Shape" fill="#000000"/><path d="M6,23 C5.44771525,23 5,22.5522847 5,22 L5,21 C5,20.4477153 5.44771525,20 6,20 C6.55228475,20 7,20.4477153 7,21 L7,22 C7,22.5522847 6.55228475,23 6,23 Z" id="Shape" fill="#000000"/><path d="M9,25 L8,25 C7.44771525,25 7,24.5522847 7,24 C7,23.4477153 7.44771525,23 8,23 L9,23 C9.55228475,23 10,23.4477153 10,24 C10,24.5522847 9.55228475,25 9,25 Z" id="Shape" fill="#000000"/><path d="M6,28 C5.44771525,28 5,27.5522847 5,27 L5,26 C5,25.4477153 5.44771525,25 6,25 C6.55228475,25 7,25.4477153 7,26 L7,27 C7,27.5522847 6.55228475,28 6,28 Z" id="Shape" fill="#000000"/><path d="M4,25 L3,25 C2.44771525,25 2,24.5522847 2,24 C2,23.4477153 2.44771525,23 3,23 L4,23 C4.55228475,23 5,23.4477153 5,24 C5,24.5522847 4.55228475,25 4,25 Z" id="Shape" fill="#000000"/><path d="M51,4 C50.4477153,4 50,3.55228475 50,3 L50,2 C50,1.44771525 50.4477153,1 51,1 C51.5522847,1 52,1.44771525 52,2 L52,3 C52,3.55228475 51.5522847,4 51,4 Z" id="Shape" fill="#000000"/><path d="M49,6 L48,6 C47.4477153,6 47,5.55228475 47,5 C47,4.44771525 47.4477153,4 48,4 L49,4 C49.5522847,4 50,4.44771525 50,5 C50,5.55228475 49.5522847,6 49,6 Z" id="Shape" fill="#000000"/><path d="M54,6 L53,6 C52.4477153,6 52,5.55228475 52,5 C52,4.44771525 52.4477153,4 53,4 L54,4 C54.5522847,4 55,4.44771525 55,5 C55,5.55228475 54.5522847,6 54,6 Z" id="Shape" fill="#000000"/><path d="M51,9 C50.4477153,9 50,8.55228475 50,8 L50,7 C50,6.44771525 50.4477153,6 51,6 C51.5522847,6 52,6.44771525 52,7 L52,8 C52,8.55228475 51.5522847,9 51,9 Z" id="Shape" fill="#000000"/><path d="M50,22 C49.4477153,22 49,21.5522847 49,21 L49,20 C49,19.4477153 49.4477153,19 50,19 C50.5522847,19 51,19.4477153 51,20 L51,21 C51,21.5522847 50.5522847,22 50,22 Z" id="Shape" fill="#000000"/><path d="M53,24 L52,24 C51.4477153,24 51,23.5522847 51,23 C51,22.4477153 51.4477153,22 52,22 L53,22 C53.5522847,22 54,22.4477153 54,23 C54,23.5522847 53.5522847,24 53,24 Z" id="Shape" fill="#000000"/><path d="M50,27 C49.4477153,27 49,26.5522847 49,26 L49,25 C49,24.4477153 49.4477153,24 50,24 C50.5522847,24 51,24.4477153 51,25 L51,26 C51,26.5522847 50.5522847,27 50,27 Z" id="Shape" fill="#000000"/><path d="M48,24 L47,24 C46.4477153,24 46,23.5522847 46,23 C46,22.4477153 46.4477153,22 47,22 L48,22 C48.5522847,22 49,22.4477153 49,23 C49,23.5522847 48.5522847,24 48,24 Z" id="Shape" fill="#000000"/><path d="M4,4 C3.44771525,4 3,3.55228475 3,3 L3,2 C3,1.44771525 3.44771525,1 4,1 C4.55228475,1 5,1.44771525 5,2 L5,3 C5,3.55228475 4.55228475,4 4,4 Z" id="Shape" fill="#000000"/><path d="M7,6 L6,6 C5.44771525,6 5,5.55228475 5,5 C5,4.44771525 5.44771525,4 6,4 L7,4 C7.55228475,4 8,4.44771525 8,5 C8,5.55228475 7.55228475,6 7,6 Z" id="Shape" fill="#000000"/><path d="M4,9 C3.44771525,9 3,8.55228475 3,8 L3,7 C3,6.44771525 3.44771525,6 4,6 C4.55228475,6 5,6.44771525 5,7 L5,8 C5,8.55228475 4.55228475,9 4,9 Z" id="Shape" fill="#000000"/><path d="M2,6 L1,6 C0.44771525,6 0,5.55228475 0,5 C0,4.44771525 0.44771525,4 1,4 L2,4 C2.55228475,4 3,4.44771525 3,5 C3,5.55228475 2.55228475,6 2,6 Z" id="Shape" fill="#000000"/><path d="M31.5,33 L24.5,33 C22.5670034,33 21,31.4329966 21,29.5 C21,27.5670034 22.5670034,26 24.5,26 L31.5,26 C33.4329966,26 35,27.5670034 35,29.5 C35,31.4329966 33.4329966,33 31.5,33 Z M24.5,28 C23.6715729,28 23,28.6715729 23,29.5 C23,30.3284271 23.6715729,31 24.5,31 L31.5,31 C32.3284271,31 33,30.3284271 33,29.5 C33,28.6715729 32.3284271,28 31.5,28 L24.5,28 Z" id="Shape" fill="#000000"/><path d="M45,35 C44.4477153,35 44,34.5522847 44,34 L44,33 C44,32.4477153 44.4477153,32 45,32 C45.5522847,32 46,32.4477153 46,33 L46,34 C46,34.5522847 45.5522847,35 45,35 Z" id="Shape" fill="#000000"/><path d="M48,37 L47,37 C46.4477153,37 46,36.5522847 46,36 C46,35.4477153 46.4477153,35 47,35 L48,35 C48.5522847,35 49,35.4477153 49,36 C49,36.5522847 48.5522847,37 48,37 Z" id="Shape" fill="#000000"/><path d="M45,40 C44.4477153,40 44,39.5522847 44,39 L44,38 C44,37.4477153 44.4477153,37 45,37 C45.5522847,37 46,37.4477153 46,38 L46,39 C46,39.5522847 45.5522847,40 45,40 Z" id="Shape" fill="#000000"/><path d="M43,37 L42,37 C41.4477153,37 41,36.5522847 41,36 C41,35.4477153 41.4477153,35 42,35 L43,35 C43.5522847,35 44,35.4477153 44,36 C44,36.5522847 43.5522847,37 43,37 Z" id="Shape" fill="#000000"/><path d="M53,51 C52.4477153,51 52,50.5522847 52,50 L52,49 C52,48.4477153 52.4477153,48 53,48 C53.5522847,48 54,48.4477153 54,49 L54,50 C54,50.5522847 53.5522847,51 53,51 Z" id="Shape" fill="#000000"/><path d="M56,53 L55,53 C54.4477153,53 54,52.5522847 54,52 C54,51.4477153 54.4477153,51 55,51 L56,51 C56.5522847,51 57,51.4477153 57,52 C57,52.5522847 56.5522847,53 56,53 Z" id="Shape" fill="#000000"/><path d="M53,56 C52.4477153,56 52,55.5522847 52,55 L52,54 C52,53.4477153 52.4477153,53 53,53 C53.5522847,53 54,53.4477153 54,54 L54,55 C54,55.5522847 53.5522847,56 53,56 Z" id="Shape" fill="#000000"/><path d="M51,53 L50,53 C49.4477153,53 49,52.5522847 49,52 C49,51.4477153 49.4477153,51 50,51 L51,51 C51.5522847,51 52,51.4477153 52,52 C52,52.5522847 51.5522847,53 51,53 Z" id="Shape" fill="#000000"/><path d="M15,38 C14.4477153,38 14,37.5522847 14,37 L14,36 C14,35.4477153 14.4477153,35 15,35 C15.5522847,35 16,35.4477153 16,36 L16,37 C16,37.5522847 15.5522847,38 15,38 Z" id="Shape" fill="#000000"/><path d="M18,40 L17,40 C16.4477153,40 16,39.5522847 16,39 C16,38.4477153 16.4477153,38 17,38 L18,38 C18.5522847,38 19,38.4477153 19,39 C19,39.5522847 18.5522847,40 18,40 Z" id="Shape" fill="#000000"/><path d="M15,43 C14.4477153,43 14,42.5522847 14,42 L14,41 C14,40.4477153 14.4477153,40 15,40 C15.5522847,40 16,40.4477153 16,41 L16,42 C16,42.5522847 15.5522847,43 15,43 Z" id="Shape" fill="#000000"/><path d="M13,40 L12,40 C11.4477153,40 11,39.5522847 11,39 C11,38.4477153 11.4477153,38 12,38 L13,38 C13.5522847,38 14,38.4477153 14,39 C14,39.5522847 13.5522847,40 13,40 Z" id="Shape" fill="#000000"/><path d="M5,50 C4.44771525,50 4,49.5522847 4,49 L4,48 C4,47.4477153 4.44771525,47 5,47 C5.55228475,47 6,47.4477153 6,48 L6,49 C6,49.5522847 5.55228475,50 5,50 Z" id="Shape" fill="#000000"/><path d="M3,52 L2,52 C1.44771525,52 1,51.5522847 1,51 C1,50.4477153 1.44771525,50 2,50 L3,50 C3.55228475,50 4,50.4477153 4,51 C4,51.5522847 3.55228475,52 3,52 Z" id="Shape" fill="#000000"/><path d="M8,52 L7,52 C6.44771525,52 6,51.5522847 6,51 C6,50.4477153 6.44771525,50 7,50 L8,50 C8.55228475,50 9,50.4477153 9,51 C9,51.5522847 8.55228475,52 8,52 Z" id="Shape" fill="#000000"/><path d="M5,55 C4.44771525,55 4,54.5522847 4,54 L4,53 C4,52.4477153 4.44771525,52 5,52 C5.55228475,52 6,52.4477153 6,53 L6,54 C6,54.5522847 5.55228475,55 5,55 Z" id="Shape" fill="#000000"/></g></g></svg>
