<?xml version="1.0" encoding="iso-8859-1"?>
<!-- Generator: Adobe Illustrator 19.0.0, SVG Export Plug-In . SVG Version: 6.00 Build 0)  -->
<svg version="1.1" id="Layer_1" xmlns="http://www.w3.org/2000/svg" xmlns:xlink="http://www.w3.org/1999/xlink" x="0px" y="0px"
	 viewBox="0 0 512 512" style="enable-background:new 0 0 512 512;" xml:space="preserve">
<path style="fill:#FFFFFF;" d="M94.165,138.243c-1.91-3.863-4.448-7.464-7.612-10.631c-7.568-7.576-17.634-11.747-28.342-11.747
	c-4.283,0-8.512,0.677-12.569,2.014c-1.373,0.452-2.451,1.531-2.904,2.905c-4.761,14.481-1.033,30.168,9.725,40.938
	c7.568,7.574,17.634,11.746,28.342,11.746c0.001,0,0.002,0,0.002,0c4.282,0,8.51-0.677,12.566-2.012
	c0.281-0.093,0.54-0.228,0.793-0.37v-32.842H94.165z"/>
<g>
	<path style="fill:#E0E0E0;" d="M94.165,174.498v-18.902c-0.253-0.142-0.512-0.277-0.793-0.37
		c-4.057-1.334-8.285-2.012-12.568-2.012c-10.707,0-20.774,4.171-28.342,11.747c-10.759,10.768-14.484,26.454-9.725,40.937
		c0.453,1.373,1.53,2.452,2.904,2.904c4.057,1.336,8.287,2.015,12.571,2.015c0,0,0,0,0.001,0c10.705,0,20.77-4.171,28.34-11.747
		c6.751-6.758,10.728-15.453,11.581-24.572h-3.969V174.498z"/>
	<path style="fill:#E0E0E0;" d="M402.791,392.978l-132.069-38.092c-14.295,6.596-29.782,10.361-45.967,10.403
		c-16.184-0.042-31.672-3.808-45.967-10.403l-132.07,38.092c-5.397,1.558-9.814,7.43-9.814,13.051v87.915
		c0,5.622,4.595,10.22,10.212,10.22h355.276c5.616,0,10.212-4.599,10.212-10.22v-87.915
		C412.605,400.408,408.188,394.536,402.791,392.978z"/>
</g>
<g style="opacity:0.1;">
	<path id="SVGCleanerId_1" style="fill:#231F20;" d="M72.158,388.306c0-0.897,0.039-1.795,0.092-2.693l-25.532,7.364
		c-5.397,1.558-9.814,7.43-9.814,13.051v87.915c0,5.622,4.595,10.22,10.212,10.22h25.041V388.306H72.158z"/>
</g>
<g style="opacity:0.1;">
	<g>
		<path id="SVGCleanerId_1_1_" style="fill:#231F20;" d="M72.158,388.306c0-0.897,0.039-1.795,0.092-2.693l-25.532,7.364
			c-5.397,1.558-9.814,7.43-9.814,13.051v87.915c0,5.622,4.595,10.22,10.212,10.22h25.041V388.306H72.158z"/>
	</g>
</g>
<path style="fill:#8C561F;" d="M224.755,365.289c-18.079-0.046-35.291-4.728-50.938-12.824v21.187
	c0,28.156,22.806,50.981,50.938,50.981s50.937-22.825,50.937-50.981v-21.187C260.044,360.561,242.832,365.243,224.755,365.289z"/>
<path style="opacity:0.1;fill:#231F20;enable-background:new    ;" d="M206.541,373.652v-10.001
	c-11.452-2.023-22.429-5.859-32.724-11.187v21.187c0,28.156,22.806,50.981,50.938,50.981c5.725,0,11.225-0.959,16.362-2.704
	C221.015,415.107,206.541,396.078,206.541,373.652z"/>
<path style="fill:#8C561F;" d="M94.165,220.667c0-12.171,0-24.343,0-36.514H75.572c-6.374,0-11.589,5.203-11.589,11.56v48.918
	c0,6.359,5.215,11.563,11.589,11.563h23.365C95.83,244.49,94.164,232.524,94.165,220.667z"/>
<g style="opacity:0.1;">
	<path style="fill:#231F20;" d="M79.975,244.63v-48.918c0-6.358,5.215-11.56,11.588-11.56H75.572
		c-6.374,0-11.589,5.203-11.589,11.56v48.918c0,6.359,5.215,11.563,11.589,11.563h15.991C85.19,256.193,79.975,250.99,79.975,244.63
		z"/>
</g>
<path style="fill:#8C561F;" d="M373.935,184.152h-18.591c0,12.171,0,24.342,0,36.514c0,11.859-1.667,23.825-4.773,35.527h23.364
	c6.374,0,11.59-5.204,11.59-11.563v-48.918C385.525,189.354,380.309,184.152,373.935,184.152z"/>
<path id="SVGCleanerId_0" style="fill:#8C561F;" d="M224.753,28.339c-72.123,0.266-130.6,57.501-130.588,127.913
	c0,21.471,0,42.944,0,64.414c-0.004,70.321,58.389,144.438,130.59,144.622c72.201-0.184,130.591-74.302,130.59-144.622
	c0-21.473,0-42.944,0-64.414C355.351,85.838,296.876,28.605,224.753,28.339z"/>
<g>
	<path id="SVGCleanerId_0_1_" style="fill:#8C561F;" d="M224.753,28.339c-72.123,0.266-130.6,57.501-130.588,127.913
		c0,21.471,0,42.944,0,64.414c-0.004,70.321,58.389,144.438,130.59,144.622c72.201-0.184,130.591-74.302,130.59-144.622
		c0-21.473,0-42.944,0-64.414C355.351,85.838,296.876,28.605,224.753,28.339z"/>
</g>
<rect x="94.166" y="121.647" style="fill:#FFFFFF;" width="261.183" height="52.847"/>
<path style="fill:#E02424;" d="M463.818,119.126H355.344v25.111h108.474c6.201,0,11.277-5.075,11.277-11.278v-2.556
	C475.095,124.2,470.02,119.126,463.818,119.126z"/>
<path style="fill:#0853A4;" d="M94.165,144.237h261.18v-32.924c0-57.149-46.326-103.476-103.467-103.476h-54.246
	c-57.143,0-103.467,46.328-103.467,103.476L94.165,144.237L94.165,144.237z"/>
<g>
	<path style="fill:#D8B26B;" d="M97.285,257.88c2.031,2.032,2.031,5.359,0,7.392L82.339,280.23c-2.03,2.032-5.355,2.032-7.385,0
		l-14.945-14.959c-2.03-2.032-2.03-5.359,0-7.392l14.945-14.958c2.03-2.032,5.355-2.032,7.385,0L97.285,257.88z"/>
	<path style="fill:#D8B26B;" d="M389.5,257.88c2.031,2.032,2.031,5.359,0,7.392l-14.945,14.959c-2.031,2.032-5.354,2.032-7.385,0
		l-14.945-14.959c-2.031-2.032-2.031-5.359,0-7.392l14.945-14.958c2.031-2.032,5.354-2.032,7.385,0L389.5,257.88z"/>
</g>
<g style="opacity:0.1;">
	<path style="fill:#231F20;" d="M230.597,7.837h-32.964c-57.143,0-103.467,46.328-103.467,103.476v32.924h32.964v-32.924
		C127.129,54.164,173.454,7.837,230.597,7.837z"/>
</g>
<path style="fill:#8C561F;" d="M145.708,143.489v-17.605c0-5.607-4.585-10.196-10.188-10.196H94.165v28.549h51.506
	C145.689,143.989,145.708,143.74,145.708,143.489z"/>
<path style="fill:#E02424;" d="M145.708,143.489v-17.605c0-5.607-4.585-10.196-10.188-10.196H94.165v28.549h51.506
	C145.689,143.989,145.708,143.74,145.708,143.489z"/>
<path style="fill:#414042;" d="M153.509,267.054c-28.508,0-51.704-21.602-51.704-48.153v-27.807
	c0-11.217,9.527-20.347,21.235-20.347h72.94c5.099,0,9.232,4.207,9.232,9.393v39.109c0,0.194-0.004,0.387-0.017,0.578
	C204.662,245.915,181.584,267.054,153.509,267.054z"/>
<path style="fill:#FFFFFF;" d="M153.509,252.065c-4.329,0-7.837-3.508-7.837-7.837c0-4.329,3.508-7.837,7.837-7.837
	c11.615,0,21.223-7.717,21.418-17.201c0.002-0.152,0.007-0.345,0.016-0.538c0.165-4.326,3.808-7.723,8.129-7.532
	c4.325,0.164,7.697,3.804,7.532,8.129l-0.006,0.222C190.228,237.462,173.591,252.065,153.509,252.065z"/>
<path style="fill:#414042;" d="M296,267.054c28.511,0,51.704-21.602,51.704-48.153v-27.807c0-11.217-9.525-20.347-21.233-20.347
	h-72.939c-5.1,0-9.234,4.207-9.234,9.393v39.109c0,0.194,0.007,0.387,0.018,0.578C244.847,245.915,267.927,267.054,296,267.054z"/>
<g style="opacity:0.1;">
	<path style="fill:#231F20;" d="M123.646,218.901v-27.807c0-11.217,9.527-20.347,21.235-20.347H123.04
		c-11.708,0-21.235,9.129-21.235,20.347v27.807c0,26.551,23.196,48.153,51.704,48.153c3.737,0,7.38-0.385,10.898-1.096
		C141.138,261.268,123.646,241.956,123.646,218.901z"/>
</g>
<g style="opacity:0.1;">
	<path style="fill:#231F20;" d="M266.157,219.827c-0.01-0.191-0.018-0.383-0.018-0.578v-39.109c0-5.186,4.134-9.393,9.234-9.393
		h-21.841c-5.1,0-9.234,4.207-9.234,9.393v39.109c0,0.194,0.007,0.387,0.018,0.578c0.533,26.088,23.613,47.227,51.686,47.227
		c3.755,0,7.415-0.385,10.944-1.096C284.029,261.329,266.619,242.442,266.157,219.827z"/>
</g>
<path style="fill:#FFFFFF;" d="M296,252.065c-4.329,0-7.837-3.508-7.837-7.837c0-4.329,3.508-7.837,7.837-7.837
	c11.816,0,21.428-7.846,21.428-17.491c0-4.329,3.508-7.837,7.837-7.837s7.837,3.508,7.837,7.837
	C333.102,237.188,316.457,252.065,296,252.065z"/>
<path d="M463.818,111.289H363.181C363.168,49.921,313.242,0,251.878,0h-54.246C136.258,0,86.328,49.935,86.328,111.313v5.834
	c-8.124-5.916-17.872-9.119-28.117-9.119c-5.116,0-10.17,0.809-15.019,2.406c-3.719,1.224-6.671,4.175-7.898,7.903
	c-5.134,15.62-2.002,32.414,8.115,45.004c-10.117,12.588-13.249,29.381-8.112,45.012c1.227,3.72,4.18,6.671,7.894,7.892
	c4.195,1.382,8.545,2.172,12.957,2.361v26.024c0,1.833,0.262,3.604,0.741,5.286l-2.422,2.424c-5.087,5.092-5.087,13.378,0,18.47
	l14.945,14.958c2.463,2.465,5.743,3.822,9.237,3.822c3.494,0,6.774-1.357,9.237-3.822l9.428-9.435
	c6.828,17.248,16.683,33.649,29.141,48.069c9.736,11.269,20.491,20.713,31.959,28.205L44.546,385.448
	c-8.823,2.547-15.477,11.395-15.477,20.58v87.915c0,9.957,8.097,18.057,18.05,18.057h355.276c9.953,0,18.049-8.1,18.049-18.057
	v-20.308c0-4.329-3.508-7.837-7.837-7.837s-7.837,3.508-7.837,7.837v20.308c0,1.292-1.088,2.383-2.375,2.383H47.117
	c-1.287,0-2.375-1.092-2.375-2.383v-87.915c0-2.142,2.095-4.929,4.148-5.521l91.63-26.428c0.069,13.663,3.486,27.214,9.9,39.216
	c1.412,2.64,4.119,4.145,6.918,4.145c1.246,0,2.51-0.299,3.686-0.928c3.817-2.04,5.258-6.788,3.217-10.605
	c-5.27-9.862-8.056-21.015-8.056-32.256v-4.092l9.794-2.824v6.916c0,32.432,26.366,58.817,58.774,58.817
	s58.773-26.386,58.773-58.817v-6.917l9.795,2.825v4.092c0,37.845-30.76,68.634-68.568,68.634
	c-17.042,0.001-33.39-6.326-46.033-17.813c-3.204-2.911-8.16-2.675-11.071,0.53c-2.91,3.203-2.674,8.161,0.53,11.071
	c15.535,14.116,35.626,21.887,56.574,21.886c46.308,0,84-37.591,84.23-83.882l91.632,26.43c2.055,0.592,4.15,3.379,4.15,5.521
	v39.056c0,4.329,3.508,7.837,7.837,7.837c4.329,0,7.837-3.508,7.837-7.837v-39.056c0-9.186-6.653-18.033-15.479-20.58
	l-113.945-32.865c9.097-5.921,17.748-13.057,25.774-21.338c3.013-3.108,2.936-8.069-0.172-11.08
	c-3.106-3.013-8.069-2.935-11.08,0.172c-4.403,4.542-9.008,8.694-13.778,12.445c-6.159-25.125-26.111-45.22-52.071-50.958
	c-4.231-0.93-8.41,1.735-9.343,5.96c-0.934,4.227,1.735,8.409,5.96,9.343c22.059,4.877,38.515,23.171,41.342,45.299
	c-16.654,9.769-34.716,14.979-52.874,15.025c-18.341-0.047-36.344-5.222-52.922-14.958c2.8-22.159,19.267-40.486,41.349-45.366
	c4.226-0.935,6.894-5.118,5.96-9.343c-0.935-4.227-5.118-6.895-9.343-5.96c-25.976,5.743-45.938,25.858-52.083,51.005
	c-6.838-5.399-13.343-11.637-19.424-18.673c-15.57-18.022-26.652-39.396-32.218-61.439c10.884,13.462,28.085,22.175,47.414,22.175
	c20.267,0,38.349-9.762,49.127-24.543c2.52,10.458,12.502,18.294,24.406,18.294c10.184,0,19.173-5.731,23.036-14.298
	c10.969,12.516,27.545,20.547,45.923,20.547c19.289,0,36.455-8.677,47.343-22.089c-4.077,16.02-11.064,31.795-20.656,46.216
	c-2.397,3.603-1.418,8.469,2.186,10.865c3.604,2.397,8.468,1.419,10.865-2.186c6.625-9.959,12.133-20.523,16.435-31.389l9.452,9.461
	c2.463,2.464,5.743,3.821,9.236,3.821c3.493,0,6.772-1.357,9.237-3.822l14.944-14.957c5.09-5.093,5.09-13.379,0.001-18.471
	l-2.423-2.424c0.48-1.681,0.742-3.453,0.742-5.286v-48.918c0-10.696-8.714-19.396-19.427-19.396h-10.754v-0.276v-19.787v-4.18
	h100.637c10.539,0,19.113-8.574,19.113-19.114v-2.556C482.932,119.863,474.357,111.289,463.818,111.289z M87.277,236.832
	c-2.382-2.109-5.413-3.273-8.631-3.273c-2.453,0-4.794,0.681-6.826,1.934v-39.781c0-2.019,1.719-3.723,3.752-3.723h10.756v28.677
	C86.328,226.034,86.654,231.434,87.277,236.832z M49.698,124.84c2.77-0.757,5.627-1.138,8.513-1.138
	c8.614,0,16.71,3.356,22.798,9.449c2.121,2.122,3.896,4.486,5.32,7.011v4.074v1.462c-1.829-0.213-3.673-0.322-5.524-0.322
	c-9.249,0-18.09,2.615-25.701,7.475C49.053,144.894,47.026,134.608,49.698,124.84z M56.146,195.713v7.199
	c-2.183-0.139-4.341-0.494-6.448-1.069c-3.063-11.2,0.046-23.074,8.307-31.342c6.088-6.093,14.183-9.449,22.798-9.449
	c1.86,0,3.705,0.176,5.524,0.491v14.498v0.276H75.572C64.861,176.315,56.146,185.016,56.146,195.713z M78.647,272.837
	l-11.253-11.262l11.253-11.262L89.9,261.576L78.647,272.837z M181.654,364.72c13.85,5.495,28.366,8.369,43.121,8.406
	c14.641-0.037,29.173-2.946,43.081-8.487v9.013c0,23.79-19.335,43.144-43.1,43.144c-23.766,0-43.101-19.354-43.101-43.144v-8.933
	H181.654z M102.001,123.525h33.519c1.275,0,2.351,1.08,2.351,2.359l0.001,10.516h-35.871V123.525z M197.376,219.324
	c-0.007,0.114-0.013,0.228-0.015,0.342c-0.447,21.808-20.118,39.551-43.852,39.551c-24.188,0-43.867-18.086-43.867-40.316v-27.807
	c0-6.898,6.011-12.511,13.399-12.511h72.94c0.769,0,1.395,0.698,1.395,1.556V219.324z M236.175,246.861
	c-0.951,3.539-4.792,6.107-9.133,6.107c-5.158,0-9.353-3.497-9.353-7.795v-42.921h18.773v16.997c0,0.287,0.008,0.575,0.022,0.858
	c0.171,7.544,1.963,14.734,5.054,21.278C239.007,242.133,236.909,244.128,236.175,246.861z M213.049,186.578v-2.702h23.412v2.702
	H213.049z M339.867,218.901c0,22.23-19.679,40.316-43.867,40.316c-23.734,0-43.405-17.742-43.851-39.551
	c-0.001-0.086-0.004-0.171-0.009-0.257l-0.006-39.269c0-0.858,0.627-1.556,1.397-1.556h72.939c7.386,0,13.397,5.612,13.397,12.511
	v27.807H339.867z M347.508,136.4H201.665c-4.329,0-7.837,3.508-7.837,7.837c0,4.329,3.508,7.837,7.837,7.837h143.151h2.692v16.13
	h-4.111c-4.771-3.326-10.615-5.292-16.927-5.292H253.53c-4.821,0-9.174,2.037-12.282,5.292H208.26
	c-3.108-3.256-7.46-5.292-12.281-5.292h-72.94c-6.312,0-12.157,1.968-16.928,5.292H102v-16.13h69.362
	c4.329,0,7.837-3.508,7.837-7.837c0-4.329-3.508-7.837-7.837-7.837h-17.818v-10.516c0-9.943-8.085-18.033-18.024-18.033h-33.449
	c1.83-51.138,43.989-92.178,95.561-92.178h54.246c52.731,0,95.63,42.905,95.63,95.64V136.4H347.508z M370.862,272.837
	l-11.253-11.262l11.253-11.262l11.253,11.262L370.862,272.837z M373.935,191.988c2.034,0,3.753,1.705,3.753,3.723v39.781
	c-2.033-1.251-4.375-1.934-6.826-1.934c-3.224,0-6.256,1.168-8.642,3.284c0.631-5.416,0.962-10.82,0.962-16.177v-28.677
	L373.935,191.988L373.935,191.988z M467.258,132.959c0,1.865-1.576,3.441-3.44,3.441H363.181v-9.438h100.637
	c1.864,0,3.44,1.576,3.44,3.441L467.258,132.959L467.258,132.959z"/>
<path d="M193.521,320.631c0,4.329,3.508,7.837,7.837,7.837h46.794c4.329,0,7.837-3.508,7.837-7.837s-3.508-7.837-7.837-7.837
	h-46.794C197.03,312.794,193.521,316.303,193.521,320.631z"/>
<g style="opacity:0.1;">
	<path d="M127.129,220.667c0-15.389,0-30.779,0-46.169H94.165c0,15.39,0,30.78,0,46.169
		c-0.004,70.321,58.389,144.438,130.59,144.622c5.584-0.015,11.084-0.472,16.482-1.335
		C176.836,353.661,127.125,285.549,127.129,220.667z"/>
</g>
<g>
</g>
<g>
</g>
<g>
</g>
<g>
</g>
<g>
</g>
<g>
</g>
<g>
</g>
<g>
</g>
<g>
</g>
<g>
</g>
<g>
</g>
<g>
</g>
<g>
</g>
<g>
</g>
<g>
</g>
</svg>
