<svg id="Capa_1" enable-background="new 0 0 512 512" height="512" viewBox="0 0 512 512" width="512" xmlns="http://www.w3.org/2000/svg"><path d="m303.181 12.758 103.799 53.472 22.018 112.187-46.133 54.521 19.921 107.992-29.357 58.715-45.084 31.454-36.697 73.393-44.036-12.581 48.23-102.751 34.6-9.436 24.115-33.551-30.406-118.478 22.018-32.502 8.388-90.169z" fill="#a0a0a0"/><path d="m428.998 178.417-22.018-112.187-18.759-9.664 22.742 115.875-46.133 54.52 19.921 107.993-29.358 58.715-45.084 31.454-37.057 74.113 18.396 5.256 36.697-73.393 45.084-31.454 29.357-58.715-19.921-107.992z" fill="#8e8e8e"/><path d="m263.459 32.679-80.852-25.163-99.605 159.368 39.842 53.472 3.145 80.733 71.296 69.199 50.327 121.623 48.23-102.751 34.6-9.436 24.115-33.551-30.406-118.478 22.018-32.502 8.388-90.169-51.376-92.266z" fill="#e0e0e0"/><path d="m346.169 195.193 8.388-90.169-51.376-92.266-14.098 7.071 47.438 85.195-8.388 90.169-22.018 32.502 29.419 114.632-16.09 21.599-33.618 8.15-46.664 99.414 8.45 20.421 48.23-102.751 34.6-9.436 24.115-33.551-30.406-118.478z" fill="#ccc"/><path d="m403.466 303.191c-.753-4.082-4.681-6.779-8.753-6.027-4.081.753-6.78 4.672-6.027 8.754l6.254 33.902-27.378 54.755-43.517 30.36c-1.028.718-1.861 1.681-2.422 2.802l-33.908 67.815-29.549-8.442 43.002-91.614 31.25-8.523c1.662-.453 3.118-1.464 4.124-2.864l24.116-33.551c1.299-1.807 1.73-4.098 1.177-6.253l-29.565-115.198 20.119-29.7c.71-1.048 1.144-2.258 1.261-3.519l2.537-27.27c.384-4.132-2.654-7.794-6.787-8.178-4.141-.396-7.795 2.654-8.178 6.787l-2.358 25.349-20.936 30.906c-1.207 1.782-1.593 3.997-1.058 6.082l29.534 115.075-20.511 28.537-32.03 8.736c-2.125.579-3.889 2.063-4.825 4.057l-40.994 87.336-43.816-105.888c-.392-.948-.974-1.805-1.71-2.52l-27.217-26.417c-2.977-2.889-7.735-2.821-10.626.159-2.891 2.979-2.82 7.736.158 10.626l26.102 25.334 49.732 120.186c.874 2.09 2.696 3.732 4.879 4.353l44.036 12.581c3.436.98 7.189-.67 8.786-3.865l35.842-71.685 43.517-30.361c1.028-.718 1.861-1.681 2.422-2.802l29.358-58.714c.73-1.461.965-3.118.669-4.724z"/><path d="m436.372 176.97-22.018-112.186c-.442-2.254-1.89-4.181-3.932-5.233l-103.724-53.434c-2.131-1.109-4.729-1.16-6.885-.076l-37.014 18.563-77.959-24.264c-3.261-1.016-6.796.297-8.606 3.193l-99.605 159.368c-1.641 2.625-1.504 5.989.346 8.473l38.45 51.603 3.055 78.404c.075 1.93.889 3.755 2.275 5.1l22.467 21.806c3.177 3.084 8.484 2.696 11.188-.807 2.304-2.985 1.983-7.354-.72-9.978l-20.309-19.712-2.471-63.408 28.989 18.418c2.46 1.563 5.693 1.545 8.135-.048l18.775-12.246 25.233-4.861c4.075-.785 6.742-4.725 5.957-8.801-.786-4.075-4.727-6.749-8.801-5.957l-26.681 5.14c-.956.184-1.867.552-2.683 1.084l-15.959 10.408-35.833-22.765-35.948-48.245 93.812-150.099 75.318 23.442c1.856.577 3.865.414 5.602-.458l33.289-16.695 46.742 83.944-2.857 30.707c-.385 4.132 2.654 7.794 6.787 8.178 4.139.375 7.794-2.654 8.178-6.787l3.072-33.025c.141-1.51-.179-3.026-.917-4.351l-39.28-70.543 78.464 40.422 20.623 105.074-43.8 51.763c-1.455 1.72-2.062 4.002-1.654 6.217l7.499 40.654c.763 4.135 4.926 6.885 9.03 5.971 3.892-.866 6.474-4.779 5.751-8.697l-6.854-37.154 43.834-51.803c1.477-1.74 2.079-4.059 1.639-6.299z"/></svg>