<?xml version="1.0" encoding="iso-8859-1"?>
<!-- Generator: Adobe Illustrator 19.0.0, SVG Export Plug-In . SVG Version: 6.00 Build 0)  -->
<svg version="1.1" id="Capa_1" xmlns="http://www.w3.org/2000/svg" xmlns:xlink="http://www.w3.org/1999/xlink" x="0px" y="0px"
	 viewBox="0 0 512 512" style="enable-background:new 0 0 512 512;" xml:space="preserve">
<path style="fill:#525A61;" d="M256,7.5L196,256l60,248.5c137.243,0,248.5-111.257,248.5-248.5S393.243,7.5,256,7.5z"/>
<g>
	<path style="fill:#6D7881;" d="M7.5,256c0,137.243,111.257,248.5,248.5,248.5V7.5C118.757,7.5,7.5,118.757,7.5,256z"/>
	<path style="fill:#6D7881;" d="M256,37.5v437c120.674,0,218.5-97.826,218.5-218.5S376.674,37.5,256,37.5z"/>
</g>
<path style="fill:#8996A1;" d="M444.5,256c0-120.674-84.394-218.5-188.5-218.5C135.326,37.5,37.5,135.326,37.5,256
	S135.326,474.5,256,474.5C360.106,474.5,444.5,376.674,444.5,256z"/>
<polygon style="fill:#DEF1FF;" points="335.5,146.5 305.5,256 335.5,365.5 365.5,365.5 365.5,146.5 "/>
<rect x="146.5" y="146.5" style="fill:#FFFFFF;" width="189" height="219"/>
<path d="M437.02,74.98C388.667,26.629,324.38,0,256,0S123.333,26.629,74.98,74.98C26.629,123.332,0,187.62,0,256
	s26.629,132.668,74.98,181.02C123.333,485.371,187.62,512,256,512s132.667-26.629,181.02-74.98C485.371,388.668,512,324.38,512,256
	S485.371,123.332,437.02,74.98z M256,497C123.112,497,15,388.888,15,256S123.112,15,256,15s241,108.112,241,241S388.888,497,256,497
	z"/>
<path d="M415.806,96.194C373.12,53.508,316.367,30,256,30c-54.612,0-107.336,19.748-148.458,55.606
	c-3.122,2.722-3.446,7.46-0.724,10.581c2.722,3.123,7.46,3.447,10.582,0.724C155.791,63.436,205.013,45,256,45
	c116.346,0,211,94.654,211,211s-94.654,211-211,211S45,372.346,45,256c0-50.987,18.436-100.21,51.911-138.6
	c2.722-3.121,2.398-7.859-0.724-10.581c-3.121-2.723-7.859-2.4-10.582,0.724C49.748,148.664,30,201.388,30,256
	c0,60.367,23.508,117.121,66.194,159.807S195.633,482,256,482s117.121-23.508,159.806-66.193S482,316.367,482,256
	C482,195.634,458.492,138.88,415.806,96.194z"/>
<path d="M146.5,328c-4.142,0-7.5,3.357-7.5,7.5v30c0,4.143,3.358,7.5,7.5,7.5h219c4.142,0,7.5-3.357,7.5-7.5v-219
	c0-4.143-3.358-7.5-7.5-7.5h-219c-4.142,0-7.5,3.357-7.5,7.5v159c0,4.143,3.358,7.5,7.5,7.5s7.5-3.357,7.5-7.5V154h204v204H154
	v-22.5C154,331.357,150.642,328,146.5,328z"/>
<g>
</g>
<g>
</g>
<g>
</g>
<g>
</g>
<g>
</g>
<g>
</g>
<g>
</g>
<g>
</g>
<g>
</g>
<g>
</g>
<g>
</g>
<g>
</g>
<g>
</g>
<g>
</g>
<g>
</g>
</svg>
