<svg id="Capa_1" enable-background="new 0 0 512 512" height="512" viewBox="0 0 512 512" width="512" xmlns="http://www.w3.org/2000/svg"><g><path d="m256 7.5c-137.243 0-248.5 111.257-248.5 248.5s111.257 248.5 248.5 248.5 248.5-111.257 248.5-248.5-111.257-248.5-248.5-248.5zm72.5 321h-145v-145h145z" fill="#ff7a3c"/><path d="m256 37.5v146h72.5v145h-72.5v146c120.674 0 218.5-97.826 218.5-218.5s-97.826-218.5-218.5-218.5z" fill="#ff9a42"/><path d="m256 37.5c-120.674 0-218.5 97.826-218.5 218.5s97.826 218.5 218.5 218.5c104.106 0 188.5-97.826 188.5-218.5s-84.394-218.5-188.5-218.5zm72.5 291h-145v-145h145z" fill="#ffba48"/><path d="m168.5 198.5v115c0 16.569 13.431 30 30 30h115c16.569 0 30-13.431 30-30v-115c0-16.569-13.431-30-30-30h-115c-16.569 0-30 13.431-30 30zm145 115h-115v-115h115z" fill="#ff9a42"/><circle cx="256" cy="444.5" r="7.5"/><circle cx="286" cy="414.5" r="7.5"/><circle cx="444.5" cy="256" r="7.5"/><circle cx="256" cy="444.5" r="7.5"/><circle cx="286" cy="414.5" r="7.5"/><circle cx="444.5" cy="256" r="7.5"/><path d="m437.02 74.98c-48.352-48.351-112.64-74.98-181.02-74.98s-132.668 26.629-181.02 74.98-74.98 112.64-74.98 181.02 26.629 132.668 74.98 181.02 112.64 74.98 181.02 74.98 132.668-26.629 181.02-74.98 74.98-112.64 74.98-181.02-26.629-132.668-74.98-181.02zm-181.02 422.02c-132.888 0-241-108.112-241-241s108.112-241 241-241 241 108.112 241 241-108.112 241-241 241z"/><path d="m415.806 96.194c-42.686-42.686-99.44-66.194-159.806-66.194-54.611 0-107.335 19.748-148.458 55.604-3.122 2.723-3.446 7.46-.725 10.582 2.723 3.122 7.461 3.445 10.582.724 38.392-33.474 87.614-51.91 138.601-51.91 116.346 0 211 94.654 211 211s-94.654 211-211 211-211-94.654-211-211c0-50.987 18.436-100.209 51.91-138.601 2.723-3.122 2.398-7.859-.724-10.582-3.12-2.721-7.858-2.398-10.582.725-35.856 41.123-55.604 93.847-55.604 148.458 0 60.366 23.508 117.12 66.194 159.806s99.44 66.194 159.806 66.194 117.12-23.508 159.806-66.194 66.194-99.44 66.194-159.806-23.508-117.12-66.194-159.806z"/><path d="m351 313.5v-115c0-20.678-16.822-37.5-37.5-37.5h-115c-20.678 0-37.5 16.822-37.5 37.5v115c0 20.678 16.822 37.5 37.5 37.5h115c20.678 0 37.5-16.822 37.5-37.5zm-175 0v-115c0-12.406 10.094-22.5 22.5-22.5h115c12.406 0 22.5 10.094 22.5 22.5v115c0 12.406-10.094 22.5-22.5 22.5h-115c-12.406 0-22.5-10.094-22.5-22.5z"/><path d="m321 313.5v-115c0-4.143-3.357-7.5-7.5-7.5h-115c-4.143 0-7.5 3.357-7.5 7.5v115c0 4.143 3.357 7.5 7.5 7.5h115c4.143 0 7.5-3.357 7.5-7.5zm-15-7.5h-100v-100h100z"/></g></svg>