<svg height="511pt" viewBox="0 1 511 511.99738" width="511pt" xmlns="http://www.w3.org/2000/svg"><path d="m503.769531 428.496094c0 22.59375-18.320312 40.910156-40.914062 40.910156s-40.910157-18.316406-40.910157-40.910156c0-22.597656 18.316407-40.914063 40.910157-40.914063s40.914062 18.316407 40.914062 40.914063zm0 0" fill="#ffdc13"/><path d="m481.253906 391.957031c2.792969 5.53125 4.375 11.78125 4.375 18.398438 0 22.597656-18.316406 40.914062-40.910156 40.914062-6.621094 0-12.867188-1.582031-18.402344-4.375 6.738282 13.351563 20.5625 22.511719 36.539063 22.511719 22.59375 0 40.910156-18.316406 40.910156-40.910156.003906-15.976563-9.160156-29.800782-22.511719-36.539063zm0 0" fill="#ffa511"/><path d="m310.515625 463.597656c0 22.59375-18.316406 40.910156-40.910156 40.910156-22.597657 0-40.914063-18.316406-40.914063-40.910156 0-22.597656 18.316406-40.914062 40.914063-40.914062 22.59375 0 40.910156 18.316406 40.910156 40.914062zm0 0" fill="#ffdc13"/><path d="m474.886719 391.300781c0 22.59375-18.320313 40.910157-40.914063 40.910157s-40.910156-18.316407-40.910156-40.910157c0-22.597656 18.316406-40.914062 40.910156-40.914062s40.914063 18.316406 40.914063 40.914062zm0 0" fill="#ffdc13"/><path d="m409.328125 401.332031c0 22.59375-18.316406 40.910157-40.910156 40.910157-22.597657 0-40.914063-18.316407-40.914063-40.910157 0-22.597656 18.316406-40.914062 40.914063-40.914062 22.59375 0 40.910156 18.316406 40.910156 40.914062zm0 0" fill="#ffdc13"/><g fill="#ffa511"><path d="m288.003906 427.058594c2.792969 5.53125 4.375 11.78125 4.375 18.402344 0 22.59375-18.316406 40.910156-40.914062 40.910156-6.621094 0-12.867188-1.582032-18.398438-4.375 6.734375 13.351562 20.5625 22.511718 36.535156 22.511718 22.597657 0 40.914063-18.316406 40.914063-40.910156 0-15.976562-9.160156-29.800781-22.511719-36.539062zm0 0"/><path d="m452.371094 354.761719c2.792968 5.53125 4.375 11.78125 4.375 18.402343 0 22.59375-18.316406 40.910157-40.910156 40.910157-6.621094 0-12.867188-1.582031-18.402344-4.375 6.738281 13.351562 20.5625 22.511719 36.539062 22.511719 22.59375 0 40.910156-18.316407 40.910156-40.910157.003907-15.976562-9.160156-29.800781-22.511718-36.539062zm0 0"/><path d="m386.816406 364.792969c2.792969 5.535156 4.375 11.78125 4.375 18.402343 0 22.59375-18.316406 40.910157-40.914062 40.910157-6.617188 0-12.867188-1.582031-18.398438-4.375 6.734375 13.351562 20.5625 22.515625 36.535156 22.515625 22.597657 0 40.914063-18.320313 40.914063-40.914063 0-15.976562-9.160156-29.800781-22.511719-36.539062zm0 0"/><path d="m305.582031 408.640625c.265625-7.917969 1.578125-17.851563 11.066407-27.339844 10.828124-10.828125 22.238281-11.007812 30.570312-11.136719 7.289062-.117187 11.691406-.1875 16.824219-5.324218 5.140625-5.136719 5.207031-9.535156 5.324219-16.828125.128906-8.328125.3125-19.738281 11.140624-30.566407 10.828126-10.828124 22.238282-11.007812 30.566407-11.140624.882812-.015626 1.894531-.0625 2.902343-.128907 1.886719-.121093 2.558594-2.550781 1.003907-3.621093l-77.160157-53.136719-88.015624 88.015625 52.175781 72.367187c1.113281 1.542969 3.542969.789063 3.601562-1.109375-.003906-.019531-.003906-.035156 0-.050781zm0 0"/></g><path d="m414.980469 302.554688-77.164063-53.136719-19.914062 19.914062 57.996094 53.613281c1.269531-1.839843 2.785156-3.679687 4.605468-5.5 10.828125-10.828124 22.238282-11.007812 30.570313-11.140624.878906-.011719 1.890625-.0625 2.902343-.128907 1.882813-.121093 2.558594-2.550781 1.003907-3.621093zm0 0" fill="#f77900"/><path d="m172.34375 435.984375c-4.136719 0-7.488281-3.355469-7.488281-7.488281 0-4.140625 3.351562-7.492188 7.488281-7.492188 33.890625 0 61.695312-26.527344 63.746094-59.90625l-11.976563 10.875c-15.410156 13.992188-36.839843 20.105469-57.3125 16.359375l-17.164062-3.144531c-4.066407-.742188-6.761719-4.644531-6.015625-8.714844.742187-4.066406 4.644531-6.765625 8.714844-6.015625l17.160156 3.140625c15.914062 2.910156 32.570312-1.839844 44.546875-12.714844l24.621093-22.355468c2.195313-1.992188 5.355469-2.503906 8.066407-1.300782 2.710937 1.199219 4.457031 3.882813 4.457031 6.847657v13.0625c0 43.476562-35.367188 78.847656-78.84375 78.847656zm0 0" fill="#3a6187"/><path d="m120.613281 35.640625-84.46875 84.46875c-37.605469 37.605469-37.605469 98.578125 0 136.1875l23.246094 23.246094c40.269531 40.265625 94.089844 64.089843 150.972656 66.824219 17.042969.820312 33.640625-5.59375 45.707031-17.65625l73.140626-73.144532c12.066406-12.066406 18.480468-28.664062 17.660156-45.707031-2.734375-56.878906-26.558594-110.703125-66.824219-150.96875l-23.25-23.25c-37.605469-37.605469-98.578125-37.605469-136.183594 0zm0 0" fill="#ffa511"/><path d="m346.871094 209.859375c-2.734375-56.882813-26.558594-110.703125-66.824219-150.972656l-23.25-23.246094c-27.054687-27.058594-66.207031-34.644531-100.050781-22.765625 13.195312 4.628906 25.582031 12.21875 36.132812 22.765625l23.246094 23.246094c40.269531 40.269531 64.09375 94.089843 66.824219 150.972656.820312 17.042969-5.589844 33.640625-17.65625 45.707031l-73.144531 73.144532c-5.496094 5.496093-11.9375 9.800781-18.925782 12.800781 12.152344 2.613281 24.570313 4.253906 37.140625 4.855469 17.042969.820312 33.640625-5.59375 45.707031-17.65625l73.140626-73.144532c12.066406-12.066406 18.480468-28.664062 17.660156-45.707031zm0 0" fill="#f77900"/><path d="m349.351562 265.878906-82.980468 82.980469c-7.730469 7.730469-20.261719 7.730469-27.992188 0-7.730468-7.730469-7.730468-20.261719 0-27.992187l82.980469-82.980469c7.730469-7.730469 20.261719-7.730469 27.992187 0 7.730469 7.730469 7.730469 20.261719 0 27.992187zm0 0" fill="#48709b"/><path d="m349.351562 237.886719c-2.039062-2.039063-4.414062-3.523438-6.941406-4.488281 2.691406 7.066406 1.203125 15.359374-4.488281 21.050781l-82.980469 82.980469c-5.691406 5.695312-13.984375 7.179687-21.046875 4.488281.960938 2.527343 2.445313 4.90625 4.484375 6.941406 7.730469 7.730469 20.261719 7.730469 27.992188 0l82.980468-82.980469c7.730469-7.730468 7.730469-20.261718 0-27.992187zm0 0" fill="#3a6187"/><path d="m269.605469 511.996094c-26.691407 0-48.402344-21.710938-48.402344-48.398438 0-26.691406 21.710937-48.402344 48.402344-48.402344 26.6875 0 48.398437 21.710938 48.398437 48.402344 0 26.6875-21.710937 48.398438-48.398437 48.398438zm0-81.824219c-18.429688 0-33.425781 14.996094-33.425781 33.425781 0 18.425782 14.996093 33.421875 33.425781 33.421875 18.425781 0 33.421875-14.996093 33.421875-33.421875 0-18.429687-14.996094-33.425781-33.421875-33.425781zm0 0"/><path d="m481.816406 383.953125c-3.550781-23.214844-23.652344-41.054687-47.84375-41.054687-15.128906 0-29.0625 6.945312-38.132812 18.578124-5.730469-3.9375-12.273438-6.625-19.175782-7.824218.128907-1.792969.160157-3.625.191407-5.523438.121093-7.828125.261719-16.703125 8.945312-25.386718 8.683594-8.683594 17.558594-8.824219 25.390625-8.949219.917969-.015625 2.015625-.0625 3.273438-.144531 4.027344-.261719 7.453125-3.050782 8.523437-6.941407 1.074219-3.886719-.4375-8.03125-3.757812-10.320312l-57.085938-39.308594c.324219-1.695313.496094-3.433594.496094-5.195313 0-7.289062-2.839844-14.140624-7.992187-19.292968-.804688-.804688-1.65625-1.546875-2.539063-2.238282 1.824219-6.785156 2.585937-13.773437 2.242187-20.851562-1.855468-38.640625-13.3125-76.625-33.132812-109.84375-2.121094-3.550781-6.71875-4.714844-10.269531-2.59375-3.550781 2.117188-4.714844 6.714844-2.59375 10.269531 18.566406 31.117188 29.296875 66.691407 31.039062 102.886719.234375 4.914062-.21875 9.773438-1.320312 14.511719-.898438-.089844-1.804688-.132813-2.714844-.132813-7.289063 0-14.140625 2.835938-19.292969 7.988282l-82.980468 82.984374c-5.152344 5.152344-7.992188 12.003907-7.992188 19.289063 0 4.617187 1.144531 9.058594 3.289062 13.003906l-14.335937 13.015625c-11.980469 10.875-28.632813 15.625-44.546875 12.71875l-17.164062-3.144531c-4.070313-.746094-7.96875 1.949219-8.714844 6.019531-.746094 4.066406 1.949218 7.972656 6.019531 8.714844l17.160156 3.140625c3.96875.726563 7.972657 1.082031 11.960938 1.082031 16.59375 0 32.929687-6.160156 45.355469-17.441406l11.960937-10.859375c-2.058594 33.371094-29.851563 59.894531-63.730469 59.894531-4.136718 0-7.488281 3.351563-7.488281 7.488282 0 4.136718 3.351563 7.488281 7.488281 7.488281 41.804688 0 76.09375-32.707031 78.671875-73.871094.449219.023437.902344.035156 1.355469.035156 1.902344 0 3.773438-.199219 5.597656-.574219l37.933594 52.609376c1.8125 2.515624 4.691406 3.933593 7.683594 3.933593.921875 0 1.859375-.136719 2.773437-.414062 3.886719-1.191407 6.578125-4.722657 6.703125-8.78125 0-.027344 0-.050781 0-.074219.230469-6.710938 1.140625-14.507812 8.878906-22.246094.183594-.1875.371094-.34375.554688-.519531-1.621094 4.875-2.480469 10.019531-2.480469 15.25 0 26.6875 21.710938 48.402344 48.398438 48.402344 15.210937 0 29.09375-7.242188 38.050781-18.597657 2.695312 1.871094 5.558594 3.453126 8.550781 4.726563 3.566407 23.34375 23.765625 41.035156 47.839844 41.035156 26.6875 0 48.398437-21.710937 48.398437-48.402343 0-19.703126-11.644531-37.015626-29.441406-44.539063zm-238.140625-40.390625c-2.324219-2.324219-3.605469-5.414062-3.605469-8.699219 0-3.285156 1.28125-6.375 3.605469-8.699219l82.980469-82.980468c2.324219-2.328125 5.414062-3.605469 8.699219-3.605469 3.285156 0 6.375 1.277344 8.699219 3.605469 2.324218 2.324218 3.605468 5.414062 3.605468 8.699218 0 3.285157-1.28125 6.375-3.605468 8.699219l-82.980469 82.980469c-2.324219 2.324219-5.414063 3.605469-8.699219 3.605469s-6.378906-1.28125-8.699219-3.605469zm67.675781 32.445312c-6.101562 6.101563-9.398437 12.457032-11.1875 18.472657l-28.839843-40c.113281-.109375.230469-.214844.339843-.324219l82.984376-82.980469c.210937-.210937.410156-.429687.613281-.648437l42.644531 29.363281c-7.082031 1.371094-15.015625 4.578125-22.699219 12.257813-12.96875 12.976562-13.1875 26.679687-13.328125 35.746093-.074218 4.726563-.160156 7.03125-1.042968 8.886719-.082032.144531-.15625.289062-.230469.441406-.4375.773438-1.03125 1.496094-1.859375 2.324219-2.886719 2.886719-4.5 3.011719-11.644532 3.128906-9.070312.140625-22.777343.355469-35.75 13.332031zm98.628907 23.953126c-4.085938-.609376-7.898438 2.222656-8.503907 6.3125-2.402343 16.238281-16.613281 28.480468-33.058593 28.480468-18.429688 0-33.425781-14.992187-33.425781-33.421875 0-8.863281 3.550781-17.378906 9.789062-23.628906.863281-.023437 1.714844-.039063 2.558594-.054687 7.898437-.125 14.71875-.230469 22-7.511719.699218-.703125 1.316406-1.398438 1.894531-2.09375 9.699219.828125 18.667969 5.871093 24.390625 13.871093 1.460938 2.046876 3.761719 3.132813 6.097656 3.132813 1.507813 0 3.03125-.453125 4.351563-1.398437 3.363281-2.402344 4.140625-7.082032 1.734375-10.445313-.328125-.460937-.679688-.898437-1.023438-1.347656 6.222656-8.722657 16.253906-13.980469 27.1875-13.980469 18.429688 0 33.425782 14.996094 33.425782 33.425781 0 18.429688-14.996094 33.421875-33.425782 33.421875-7.371094 0-14.359375-2.363281-20.125-6.730468 1.125-3.042969 1.960938-6.222657 2.445313-9.523438.605469-4.09375-2.21875-7.902344-6.3125-8.507812zm52.875 61.957031c-14.472657 0-26.917969-9.261719-31.519531-22.292969.875.046875 1.753906.074219 2.636718.074219 23.46875 0 43.082032-16.792969 47.476563-38.992188 9.125 6.066407 14.828125 16.332031 14.828125 27.785157 0 18.429687-14.992188 33.425781-33.421875 33.425781zm0 0"/><path d="m200.46875 353.167969c3.824219-.003907 7.09375-2.921875 7.449219-6.808594.375-4.117187-2.65625-7.761719-6.773438-8.140625-51.457031-4.710938-99.917969-27.429688-136.457031-63.972656l-23.246094-23.246094c-34.628906-34.625-34.628906-90.96875 0-125.59375l84.464844-84.46875c34.628906-34.625 90.96875-34.625 125.597656 0l23.246094 23.246094c4.886719 4.890625 9.597656 10.066406 14 15.378906 2.636719 3.1875 7.355469 3.632812 10.542969.996094 3.1875-2.640625 3.628906-7.359375.992187-10.546875-4.695312-5.671875-9.722656-11.195313-14.945312-16.417969l-23.246094-23.246094c-40.464844-40.464844-106.308594-40.464844-146.777344 0l-84.46875 84.464844c-40.464844 40.46875-40.464844 106.316406.003906 146.78125l23.246094 23.246094c39.007813 39.007812 90.746094 63.265625 145.679688 68.296875.230468.019531.460937.03125.691406.03125zm0 0"/></svg>