<svg height="463pt" viewBox="0 -36 463.97216 463" width="463pt" xmlns="http://www.w3.org/2000/svg"><path d="m343.964844 304.128906-112 80-24-48 112-80zm0 0" fill="#da922a"/><path d="m135.964844 256.128906-112 80h72l112-80zm0 0" fill="#fbb540"/><path d="m359.964844 256.128906-112 80h72l112-80zm0 0" fill="#fbb540"/><path d="m231.964844 304.128906-112 80-24-48 112-80zm0 0" fill="#da922a"/><path d="m455.964844 304.128906-112 80-24-48 112-80zm0 0" fill="#ea9d2d"/><path d="m247.964844 256.128906-112 80h72l112-80zm0 0" fill="#fbb540"/><path d="m231.964844 384.128906h-112l16-48h72zm0 0" fill="#ffcb74"/><path d="m119.964844 384.128906h-112l16-48h72zm0 0" fill="#ffcb74"/><path d="m343.964844 384.128906h-112l16-48h72zm0 0" fill="#ffcb74"/><path d="m407.964844 232.128906-112 80-24-48 112-80zm0 0" fill="#ea9d2d"/><path d="m183.964844 312.128906h-112l16-48h72zm0 0" fill="#ffcb74"/><path d="m199.964844 184.128906-112 80h72l112-80zm0 0" fill="#fbb540"/><path d="m295.964844 232.128906-112 80-24-48 112-80zm0 0" fill="#da922a"/><g fill="#fbb540"><path d="m203.164062 30.585938-11.199218-22.457032-11.199219 22.457032c-3.097656 6.210937-8.132813 11.25-14.34375 14.34375l-22.457031 11.199218 22.457031 11.199219c6.210937 3.097656 11.246094 8.132813 14.34375 14.34375l11.199219 22.457031 11.199218-22.457031c3.09375-6.210937 8.132813-11.246094 14.34375-14.34375l22.457032-11.199219-22.457032-11.199218c-6.210937-3.09375-11.25-8.132813-14.34375-14.34375zm0 0"/><path d="m425.324219 90.847656-9.359375-18.71875-9.359375 18.71875c-2.578125 5.160156-6.761719 9.34375-11.921875 11.921875l-18.71875 9.359375 18.71875 9.359375c5.160156 2.578125 9.34375 6.761719 11.921875 11.921875l9.359375 18.71875 9.359375-18.71875c2.578125-5.160156 6.761719-9.34375 11.921875-11.921875l18.71875-9.359375-18.71875-9.359375c-5.160156-2.578125-9.34375-6.761719-11.921875-11.921875zm0 0"/><path d="m65.324219 170.847656-9.359375-18.71875-9.359375 18.71875c-2.578125 5.160156-6.761719 9.34375-11.921875 11.921875l-18.71875 9.359375 18.71875 9.359375c5.160156 2.578125 9.34375 6.761719 11.921875 11.921875l9.359375 18.71875 9.359375-18.71875c2.578125-5.160156 6.761719-9.34375 11.921875-11.921875l18.71875-9.359375-18.71875-9.359375c-5.160156-2.578125-9.34375-6.761719-11.921875-11.921875zm0 0"/></g><path d="m295.964844 312.128906h-112l16-48h72zm0 0" fill="#ffcb74"/><path d="m311.964844 184.128906-112 80h72l112-80zm0 0" fill="#fbb540"/><path d="m247.964844 120.128906-112 80h72l112-80zm0 0" fill="#fbb540"/><path d="m231.964844 248.128906h-112l16-48h72zm0 0" fill="#ffcb74"/><path d="m343.964844 168.128906-112 80-24-48 112-80zm0 0" fill="#ea9d2d"/><path d="m140.390625 63.328125 22.445313 11.199219c4.632812 2.335937 8.390624 6.09375 10.730468 10.722656l11.199219 22.457031c1.351563 2.714844 4.125 4.429688 7.160156 4.429688 3.03125 0 5.804688-1.714844 7.160157-4.429688l11.199218-22.449219c2.355469-4.644531 6.140625-8.40625 10.800782-10.730468l22.453124-11.199219c2.71875-1.351563 4.433594-4.125 4.433594-7.160156 0-3.03125-1.714844-5.804688-4.433594-7.160157l-22.445312-11.199218c-4.644531-2.359375-8.40625-6.148438-10.730469-10.808594l-11.199219-22.445312c-1.503906-2.523438-4.222656-4.070313-7.160156-4.070313s-5.65625 1.546875-7.160156 4.070313l-11.199219 22.445312c-2.355469 4.644531-6.140625 8.40625-10.800781 10.730469l-22.453125 11.199219c-2.71875 1.351562-4.433594 4.125-4.433594 7.160156s1.714844 5.804687 4.433594 7.160156zm29.597656-11.199219c7.726563-3.886718 13.996094-10.15625 17.878907-17.878906l4.097656-8.234375 4.070312 8.152344c3.886719 7.726562 10.15625 13.996093 17.882813 17.882812l8.160156 4.078125-8.160156 4.082032c-7.726563 3.882812-13.996094 10.152343-17.882813 17.878906l-4.070312 8.152344-4.082032-8.160157c-3.882812-7.726562-10.152343-13.996093-17.878906-17.878906l-8.152344-4.074219zm0 0"/><path d="m372.390625 119.328125 18.71875 9.351563c3.605469 1.816406 6.53125 4.742187 8.34375 8.34375l9.351563 18.722656c1.351562 2.714844 4.125 4.429687 7.160156 4.429687s5.804687-1.714843 7.160156-4.429687l9.351562-18.722656c1.8125-3.601563 4.738282-6.527344 8.34375-8.34375l18.71875-9.351563c2.71875-1.351563 4.433594-4.125 4.433594-7.160156 0-3.03125-1.714844-5.804688-4.433594-7.160157l-18.71875-9.351562c-3.605468-1.8125-6.53125-4.738281-8.34375-8.34375l-9.3125-18.757812c-1.503906-2.523438-4.222656-4.070313-7.160156-4.070313s-5.65625 1.546875-7.160156 4.070313l-9.351562 18.71875c-1.8125 3.605468-4.738282 6.53125-8.34375 8.34375l-18.71875 9.351562c-2.714844 1.355469-4.433594 4.125-4.433594 7.160156s1.71875 5.808594 4.433594 7.160156zm25.871094-9.359375c6.695312-3.371094 12.132812-8.804688 15.503906-15.503906l2.199219-4.449219 2.199218 4.410156c3.371094 6.699219 8.804688 12.132813 15.503907 15.503907l4.410156 2.199218-4.410156 2.199219c-6.699219 3.371094-12.132813 8.808594-15.503907 15.503906l-2.199218 4.410157-2.199219-4.410157c-3.371094-6.695312-8.808594-12.132812-15.503906-15.503906l-4.410157-2.199219zm0 0"/><path d="m12.390625 199.328125 18.71875 9.351563c3.605469 1.816406 6.53125 4.742187 8.34375 8.34375l9.351563 18.722656c1.351562 2.714844 4.125 4.429687 7.160156 4.429687s5.804687-1.714843 7.160156-4.429687l9.351562-18.722656c1.8125-3.601563 4.738282-6.527344 8.34375-8.34375l18.71875-9.351563c2.71875-1.351563 4.433594-4.125 4.433594-7.160156 0-3.03125-1.714844-5.804688-4.433594-7.160157l-18.71875-9.351562c-3.605468-1.8125-6.53125-4.738281-8.34375-8.34375l-9.3125-18.757812c-1.503906-2.523438-4.222656-4.070313-7.160156-4.070313s-5.65625 1.546875-7.160156 4.070313l-9.351562 18.71875c-1.8125 3.605468-4.738282 6.53125-8.34375 8.34375l-18.71875 9.351562c-2.714844 1.355469-4.433594 4.125-4.433594 7.160156s1.71875 5.808594 4.433594 7.160156zm25.871094-9.359375c6.695312-3.371094 12.132812-8.804688 15.503906-15.503906l2.199219-4.449219 2.199218 4.410156c3.371094 6.699219 8.804688 12.132813 15.503907 15.503907l4.410156 2.199218-4.410156 2.199219c-6.699219 3.371094-12.132813 8.808594-15.503907 15.503906l-2.199218 4.410157-2.199219-4.410157c-3.371094-6.695312-8.808594-12.132812-15.503906-15.503906l-4.410157-2.199219zm0 0"/><path d="m439.164062 252.554688c-.179687-.253907-.375-.492188-.582031-.722657-.367187-.589843-.8125-1.125-1.320312-1.597656-.335938-.265625-.695313-.507813-1.066407-.722656-.539062-.351563-1.125-.640625-1.734374-.855469-.191407-.0625-.328126-.214844-.527344-.261719-.296875-.015625-.59375-.015625-.890625 0-.351563-.117187-.710938-.203125-1.078125-.265625h-32.640625l13.289062-9.496094c3.199219-2.285156 4.265625-6.558593 2.511719-10.078124l-24-48c-.082031-.152344-.230469-.242188-.3125-.386719-.414062-.714844-.9375-1.363281-1.550781-1.917969-.152344-.136719-.273438-.304688-.433594-.433594-.804687-.617187-1.722656-1.074218-2.703125-1.34375-.089844 0-.144531-.085937-.230469-.113281-.089843-.023437-.378906 0-.570312 0-.445313-.117187-.898438-.195313-1.359375-.230469h-32.105469c.042969-1.234375-.210937-2.457031-.734375-3.574218l-24-48c-.082031-.152344-.230469-.242188-.3125-.386719-.414062-.714844-.9375-1.363281-1.550781-1.917969-.152344-.136719-.273438-.304688-.433594-.433594-.804687-.617187-1.722656-1.074218-2.703125-1.34375-.089844 0-.144531-.085937-.230469-.113281-.089843-.023437-.378906 0-.570312 0-.445313-.117187-.898438-.195313-1.359375-.230469h-72c-1.667969 0-3.292969.523438-4.648438 1.496094l-112 80c-.683594.492188-1.285156 1.089844-1.785156 1.769531-.414062.585938-.75 1.226563-.992188 1.902344-.039062.113281-.117187.191406-.148437.304687l-8.675781 26.015626-36.382813 25.992187c-.683593.492187-1.285156 1.089844-1.785156 1.769531-.445313.617188-.800781 1.300782-1.046875 2.023438 0 .0625-.070312.109375-.09375.183594l-10.753906 32.261718c-.242188.089844-.476563.191406-.703125.3125l-49.601563 35.433594c-.683594.492188-1.285156 1.085938-1.78125 1.765625-.417968.589844-.75 1.230469-.992187 1.90625 0 .113281-.121094.191406-.152344.304687l-16 48c-.824219 2.433594-.42578125 5.117188 1.070313 7.210938 1.492187 2.089844 3.902343 3.335938 6.472656 3.347656h336c.765625-.007812 1.523437-.125 2.253906-.351562.21875-.0625.410156-.167969.617188-.25.507812-.191406.992187-.433594 1.449218-.726563.113282-.050781.222656-.105469.328125-.167969l112-80c3.199219-2.285156 4.265625-6.558593 2.511719-10.078124zm-32.160156 11.574218-89.597656 64h-46.242188l10.214844-8h14.585938c.765625-.007812 1.523437-.125 2.253906-.351562.21875-.0625.410156-.167969.617188-.25.507812-.191406.992187-.433594 1.449218-.726563.113282-.050781.222656-.105469.328125-.167969l76.3125-54.503906zm-223.039062 56h32.640625l-11.199219 8h-44.480469l11.199219-8zm-13.792969-53.464844 3.472656-2.480468.046875-.054688h17.839844l-9.046875 27.152344zm24.898437 37.464844 10.664063-32h61.285156l16 32zm202.6875-74.535156-98.824218 70.582031-16.753906-33.511719 98.816406-70.582031zm-38.753906-37.464844-89.597656 64h-23.679688l89.597657-64zm-25.246094-18.535156-98.824218 70.582031-16.753906-33.511719 98.816406-70.582031zm-83.234374-37.464844h44.480468l-89.597656 64h-44.480469zm-108.796876 80h61.285157l16 32h-87.941407zm-48 56h61.285157l16 32h-87.941407zm-28.457031 44.320313c.070313.121093.109375.246093.191407.359375 1.507812 2.089844 3.925781 3.324218 6.503906 3.320312h32.640625l-11.199219 8h-44.480469zm-46.199219 59.679687 10.664063-32h61.285156l16 32zm109.40625-42.710937c0 .0625-.070312.109375-.097656.183593l-9.886718 29.664063-12.304688-24.617187 23.625-16.886719c.585938-.46875 1.105469-1.019531 1.535156-1.632813h13.257813l-13.289063 9.496094c-.683594.492188-1.285156 1.089844-1.785156 1.769531-.449219.617188-.804688 1.300781-1.054688 2.023438zm2.59375 42.710937 10.664063-32h61.285156l16 32zm111.292969-45.601562c-.339843.304687-.652343.640625-.933593 1-.253907.386718-.464844.796875-.632813 1.226562-.164063.273438-.3125.554688-.441406.847656l-9.894531 29.679688-12.304688-24.617188 16.800781-12 9.167969-6.535156h11.304688l-12.394532 9.703125c-.238281.21875-.460937.449219-.671875.695313zm.679688 45.601562 10.664062-32h61.289063l16 32zm103.867187-3.953125-16.753906-33.511719 98.816406-70.582031 16.761719 33.511719zm0 0"/></svg>