<?xml version="1.0" encoding="iso-8859-1"?>
<!-- Generator: Adobe Illustrator 19.0.0, SVG Export Plug-In . SVG Version: 6.00 Build 0)  -->
<svg version="1.1" id="Capa_1" xmlns="http://www.w3.org/2000/svg" xmlns:xlink="http://www.w3.org/1999/xlink" x="0px" y="0px"
	 viewBox="0 0 512.125 512.125" style="enable-background:new 0 0 512.125 512.125;" xml:space="preserve">
<g>
	<g transform="translate(1 1)">
		<path style="fill:#FDD834;" d="M434.262,70.765v263.936c0.01,25.123-10.85,49.021-29.781,65.536l-93.867,81.408
			c-31.843,27.734-79.262,27.734-111.104,0l-93.867-81.408c-18.932-16.515-29.792-40.413-29.781-65.536V70.765
			c0.035-4.21,2.598-7.987,6.499-9.573c3.9-1.586,8.372-0.671,11.336,2.32c16.555,14.297,39.113,19.474,60.245,13.824
			c22.443-5.461,38.571-21.845,53.845-38.144c3.499-3.755,6.997-7.509,10.581-11.264c9.813-10.24,21.675-20.395,36.693-20.395
			c15.019,0,26.88,10.155,36.693,20.395c3.584,3.755,7.083,7.509,10.581,11.264c15.275,16.299,31.403,32.683,53.845,38.144
			c21.132,5.65,43.691,0.473,60.245-13.824c2.964-2.991,7.435-3.906,11.336-2.32C431.664,62.778,434.228,66.555,434.262,70.765z"/>
		<path style="fill:#795548;" d="M161.196,110.701v292.523l-33.195-28.757c-11.459-10.036-18.023-24.533-18.005-39.765l0-224.597
			c8.692,2.273,17.64,3.42,26.624,3.413C144.892,113.518,153.138,112.573,161.196,110.701z"/>
		<path style="fill:#607D8B;" d="M220.929,74.776v380.245l-59.733-51.797V110.701c0.256-0.085,0.427-0.085,0.683-0.171
			C184.465,104.245,204.891,91.877,220.929,74.776z"/>
		<path style="fill:#795548;" d="M289.196,74.861v380.16l-0.939,0.853c-19.012,16.612-47.377,16.612-66.389,0l-0.939-0.853V74.776
			c4.352-4.267,8.277-8.448,11.776-12.203L243.03,51.48c0.085-0.085,0.256-0.171,0.341-0.256c3.057-3.181,7.279-4.979,11.691-4.979
			c4.412,0,8.634,1.798,11.691,4.979c0.152,0.067,0.274,0.189,0.341,0.341c3.413,3.584,6.827,7.253,10.24,10.923
			C280.748,66.157,284.758,70.509,289.196,74.861z"/>
		<path style="fill:#607D8B;" d="M348.929,110.701v292.523l-59.733,51.797V74.861c16.046,16.989,36.392,29.315,58.88,35.669
			C348.351,110.628,348.638,110.686,348.929,110.701z"/>
		<path style="fill:#4E342E;" d="M400.129,110.104l0,224.597c0.018,15.232-6.546,29.729-18.005,39.765l-33.195,28.757V110.701
			c3.925,0.853,7.765,1.536,11.691,2.048c4.276,0.511,8.579,0.767,12.885,0.768h1.024
			C383.171,113.441,391.769,112.294,400.129,110.104z"/>
		<path style="fill:#795548;" d="M374.529,110.104l0,224.597c0.018,15.232-6.546,29.729-18.005,39.765l-7.595,6.571v-267.52
			c4.011-0.085,7.851-0.341,11.691-0.768C365.31,112.18,369.957,111.297,374.529,110.104z"/>
	</g>
	<g>
		<path d="M101.054,407.68l93.867,81.417c34.979,30.704,87.304,30.704,122.283,0l93.867-81.408
			c20.823-18.121,32.762-44.383,32.725-71.987V71.765c0.078-7.533-4.407-14.364-11.349-17.289
			c-7.094-3.01-15.299-1.507-20.864,3.823c-14.453,12.322-34.056,16.716-52.386,11.742c-19.396-4.719-33.954-18.953-49.621-35.669
			c-3.524-3.78-7.04-7.552-10.658-11.349C288.011,11.639,274.392,0,256.063,0c-18.33,0-31.949,11.639-42.863,23.04
			c-3.61,3.78-7.125,7.552-10.641,11.315c-15.676,16.734-30.234,30.967-49.596,35.686c-18.328,4.987-37.937,0.603-52.395-11.716
			c-5.565-5.35-13.784-6.864-20.89-3.849c-6.942,2.924-11.427,9.756-11.349,17.289v263.936
			C68.292,363.303,80.231,389.563,101.054,407.68z M85.396,71.765c-0.056-0.699,0.359-1.35,1.015-1.596
			c0.268-0.121,0.559-0.182,0.853-0.179c0.616,0.02,1.197,0.288,1.613,0.742c18.671,16.258,44.183,22.212,68.122,15.898
			c23.962-5.837,40.465-21.837,58.027-40.619c3.482-3.729,6.963-7.458,10.513-11.179c8.405-8.789,18.577-17.766,30.524-17.766
			c11.947,0,22.118,8.977,30.515,17.758c3.558,3.729,7.04,7.458,10.539,11.204c17.579,18.773,34.082,34.765,58.078,40.61
			c23.945,6.319,49.466,0.348,68.122-15.94c0.599-0.685,1.575-0.9,2.406-0.529c0.653,0.248,1.064,0.899,1.007,1.596v263.936
			c0.037,22.657-9.757,44.216-26.846,59.093l-93.867,81.399c-28.577,25.089-71.331,25.089-99.908,0l-93.867-81.408
			c-17.086-14.875-26.88-36.431-26.846-59.085V71.765z"/>
		<path d="M123.42,381.892l93.867,81.399c22.211,19.406,55.348,19.406,77.559,0l93.867-81.391
			c13.341-11.642,20.982-28.493,20.949-46.199V111.113c0.001-2.649-1.229-5.148-3.328-6.764c-2.099-1.616-4.829-2.166-7.39-1.487
			c-15.663,4.008-32.067,4.128-47.787,0.35c-30.865-7.509-52.326-30.43-67.046-46.14c-3.26-3.482-6.502-6.972-10.155-10.795
			c-4.674-4.871-11.144-7.608-17.894-7.569c-6.886,0.005-13.462,2.866-18.159,7.902c-3.507,3.678-6.929,7.356-10.419,11.093
			c-14.182,15.138-35.61,38.007-66.56,45.551c-15.697,3.759-32.075,3.628-47.71-0.384c-2.564-0.69-5.303-0.148-7.411,1.468
			c-2.107,1.616-3.342,4.12-3.341,6.775v224.589C102.429,353.407,110.074,370.257,123.42,381.892z M170.729,118.025
			c15.597-4.9,30.089-12.793,42.667-23.236v342.554l-42.667-37.009V118.025z M341.396,400.341l-42.667,37.001V94.788
			c12.572,10.452,27.066,18.345,42.667,23.236V400.341z M392.596,121.626l0,214.076c0.021,12.755-5.485,24.894-15.095,33.28
			l-19.038,16.555V121.924C369.793,123.503,381.295,123.403,392.596,121.626z M239.934,69.35c3.456-3.703,6.827-7.339,10.564-11.221
			c1.451-1.517,3.464-2.369,5.564-2.355c2.243,0.02,4.374,0.983,5.871,2.654c3.234,3.413,6.451,6.827,10.24,10.863
			c2.859,3.055,6.093,6.443,9.523,9.924v372.617c-15.198,11.293-36.002,11.293-51.2,0V79.215
			C233.876,75.759,237.084,72.388,239.934,69.35z M119.529,121.626c11.301,1.776,22.802,1.879,34.133,0.307v263.603l-19.055-16.529
			c-9.612-8.395-15.112-20.544-15.078-33.306L119.529,121.626z"/>
	</g>
</g>
<g>
</g>
<g>
</g>
<g>
</g>
<g>
</g>
<g>
</g>
<g>
</g>
<g>
</g>
<g>
</g>
<g>
</g>
<g>
</g>
<g>
</g>
<g>
</g>
<g>
</g>
<g>
</g>
<g>
</g>
</svg>
