<?xml version="1.0" encoding="iso-8859-1"?>
<!-- Generator: Adobe Illustrator 19.0.0, SVG Export Plug-In . SVG Version: 6.00 Build 0)  -->
<svg version="1.1" id="Capa_1" xmlns="http://www.w3.org/2000/svg" xmlns:xlink="http://www.w3.org/1999/xlink" x="0px" y="0px"
	 viewBox="0 0 512.002 512.002" style="enable-background:new 0 0 512.002 512.002;" xml:space="preserve">
<path style="fill:#D8DCE5;" d="M247.159,501.835c-1.931-1.012-47.838-25.277-94.208-68.58
	c-54.714-51.094-96.102-115.82-96.102-190.348V75.24c0-6.734,3.538-12.972,9.32-16.427c3.568-2.133,88.581-52.249,189.87-52.249
	c101.29,0,186.303,50.116,189.871,52.249c5.78,3.455,9.32,9.694,9.32,16.427v167.667c0,74.549-41.411,139.274-96.102,190.349
	c-46.37,43.303-92.277,67.568-94.208,68.58C259.356,504.749,252.721,504.749,247.159,501.835z"/>
<path style="fill:#C3C8D1;" d="M76.868,242.234V65.469c0-7.099,3.731-13.676,9.826-17.319c0.227-0.135,0.773-0.458,1.609-0.939
	c-13.18,6.311-21.098,10.982-22.134,11.601c-5.782,3.455-9.32,9.694-9.32,16.427v167.667c0,74.547,41.408,139.272,96.101,190.348
	c46.37,43.304,92.277,67.569,94.208,68.58c3.269,1.713,7.028,2.485,10.916,2.07C165.409,446.432,76.868,353.226,76.868,242.234z"/>
<path style="fill:#5E6377;" d="M100.491,83.92c27.037-13.306,88.119-39.08,155.548-39.08h0.001v67.567
	c1.193,0,2.373,0.422,3.349,1.219c0.139,0.114,0.287,0.211,0.417,0.341l5.211,5.21l15.631,15.631c2.081,2.081,2.081,5.454,0,7.535
	c-6.211,6.211-7.891,7.271-8.304,10.773l-6.742,57.103c-0.587,4.969,3.625,9.179,8.592,8.592l57.104-6.742
	c6.73-0.796,9.508-10.94,15.557-9.767c2.128,0.411,1.34,0.053,18.382,17.095c4.373,4.373,6.771,5.924,6.771,8.979
	c0,3.033-0.16,2.367-22.402,24.609c-2.08,2.08-5.454,2.08-7.534,0c-6.254-6.254-7.287-7.893-10.774-8.304l-57.369-6.773
	c-4.833-0.571-8.929,3.525-8.358,8.358l6.773,57.369c0.413,3.504,2.097,4.566,8.304,10.773c2.081,2.08,2.081,5.454,0,7.535
	l-15.631,15.631c-4.352,4.352-5.92,6.771-8.978,6.771c-2.964,0-4.228-2.021-8.978-6.771c-17.034-17.034-16.682-16.253-17.094-18.381
	c-1.187-6.123,8.956-8.682,9.767-15.557l6.727-56.985c0.595-5.029-3.669-9.291-8.698-8.698l-56.983,6.728
	c-1.814,0.214-3.502,1.033-4.794,2.324l-5.98,5.98c-2.081,2.08-5.454,2.08-7.534,0l-15.631-15.631
	c-4.355-4.355-6.771-5.921-6.771-8.978l0,0H95.127V92.564C95.124,88.894,97.199,85.54,100.491,83.92z"/>
<g>
	<path style="fill:#707487;" d="M372.01,228.377c0-1.451-0.671-2.879-1.56-3.768c-22.637-22.636-21.402-21.881-23.592-22.305
		c-6.113-1.185-8.754,8.963-15.557,9.767l-57.104,6.742c-4.968,0.587-9.179-3.625-8.592-8.592l6.742-57.103
		c0.413-3.503,2.096-4.564,8.304-10.773c2.081-2.081,2.081-5.454,0-7.535l-15.631-15.631l-5.211-5.21
		c-0.13-0.13-0.278-0.227-0.417-0.341c-0.977-0.796-2.156-1.219-3.349-1.219V44.839c0.248,0,0.494,0.008,0.742,0.009
		c39.903,0.111,77.411,9.125,106.946,19.219c0.212,0.073,0.417,0.146,0.629,0.219c12.263,4.214,23.143,8.603,32.22,12.603
		c5.767,2.541,10.809,4.925,15.023,7.006c3.286,1.623,5.356,4.974,5.356,8.638v135.843H372.01L372.01,228.377z"/>
	<path style="fill:#707487;" d="M140.069,228.377c0,2.962,2.021,4.227,6.771,8.978l15.631,15.631c2.081,2.08,5.454,2.08,7.534,0
		l5.98-5.98c1.291-1.291,2.98-2.11,4.794-2.324l56.983-6.728c5.029-0.594,9.292,3.669,8.698,8.698l-6.727,56.985
		c-0.812,6.88-10.955,9.434-9.767,15.557c0.412,2.128,0.053,1.339,17.094,18.381c4.386,4.387,5.928,6.771,8.978,6.771v116.913
		c1.252-0.002,2.502-0.258,3.683-0.747c-2.822,1.171-6.059,0.96-8.717-0.67C173.68,412.419,95.124,334.34,95.124,242.907v-14.53
		H140.069L140.069,228.377z"/>
</g>
<g>
	<path style="fill:#5E6377;" d="M203.497,414.602c-58.891-55.244-88.75-113.235-88.75-172.361v-13.866H95.124v14.53
		c0,91.396,78.644,169.566,155.881,216.936c1.547,0.949,3.29,1.401,5.034,1.396v-4.146
		C240.453,446.169,221.903,431.869,203.497,414.602z"/>
	<path style="fill:#5E6377;" d="M256.039,461.26c0.315,0,0.459-0.022,0-0.021V461.26z"/>
	<path style="fill:#5E6377;" d="M256.525,461.235c0.299-0.016,0.598-0.046,0.895-0.091
		C257.123,461.187,256.825,461.218,256.525,461.235z"/>
	<path style="fill:#5E6377;" d="M256.525,461.235c-0.058,0.003-0.117,0.007-0.175,0.009
		C256.408,461.242,256.466,461.238,256.525,461.235z"/>
	<path style="fill:#5E6377;" d="M257.42,461.144c0.072-0.01,0.143-0.02,0.214-0.033C257.563,461.123,257.492,461.133,257.42,461.144
		z"/>
	<path style="fill:#5E6377;" d="M258.708,460.866c0.342-0.1,0.682-0.215,1.014-0.352
		C259.389,460.651,259.051,460.766,258.708,460.866z"/>
	<path style="fill:#5E6377;" d="M257.634,461.111c0.282-0.049,0.562-0.112,0.839-0.186
		C258.196,460.999,257.917,461.063,257.634,461.111z"/>
	<path style="fill:#5E6377;" d="M258.473,460.925c0.078-0.021,0.156-0.037,0.234-0.06
		C258.63,460.888,258.551,460.905,258.473,460.925z"/>
</g>
<path style="fill:#4F5466;" d="M114.746,226.759V82.044c0-1.971,0.564-3.854,1.57-5.46c-6.094,2.665-11.419,5.168-15.825,7.336
	c-3.292,1.621-5.366,4.974-5.366,8.643v135.812h19.622L114.746,226.759L114.746,226.759z"/>
<path style="fill:#5E6377;" d="M256.04,344.347c2.966,0,4.237-2.03,8.978-6.771l15.631-15.631c2.081-2.081,2.081-5.454,0-7.535
	c-6.211-6.211-7.891-7.271-8.304-10.773l-6.773-57.369c-0.571-4.833,3.525-8.929,8.358-8.358l57.369,6.773
	c3.507,0.414,4.574,2.106,10.774,8.304c2.08,2.08,5.454,2.08,7.534,0c22.388-22.388,22.402-21.631,22.402-24.61h44.945v14.53
	c0,111.403-115.274,192-155.867,216.921c-1.422,0.873-3.229,1.429-5.047,1.432V344.347H256.04z"/>
<g>
	<path style="fill:#707487;" d="M252.356,460.512c-0.055-0.023-0.113-0.036-0.168-0.06
		C252.243,460.476,252.301,460.489,252.356,460.512z"/>
	<path style="fill:#707487;" d="M252.188,460.452c-0.409-0.178-0.809-0.386-1.196-0.625
		C251.379,460.066,251.779,460.274,252.188,460.452z"/>
</g>
<path style="fill:#D8DCE5;" d="M161.763,203.059c2.469-2.469,6.477-2.472,8.95,0l5.98,5.981c1.127,1.126,2.62,1.851,4.202,2.038
	l57.189,6.752c2.038,0.24,4.045-0.453,5.498-1.908c1.453-1.453,2.148-3.457,1.907-5.498l-6.752-57.189
	c-0.186-1.583-0.91-3.075-2.037-4.202c-6.34-6.34-7.25-6.83-7.718-9.247c-0.156-0.802-0.156-1.616,0-2.416
	c0.49-2.53-0.236-1.294,22.581-24.111c0.119-0.119,0.248-0.22,0.378-0.319l0.113-0.088c2.284-1.863,5.679-1.864,7.966,0l0.114,0.089
	c0.13,0.099,0.259,0.2,0.377,0.319c22.483,22.484,22.695,21.822,22.695,25.317c0,5.959-9.159,8.62-9.872,14.658l-6.741,57.103
	c-0.243,2.062,0.458,4.087,1.927,5.554c1.468,1.467,3.493,2.17,5.553,1.927l57.103-6.742c6.473-0.766,8.957-11.089,15.866-9.756
	c2.539,0.49,1.332-0.198,24.112,22.581c2.652,2.663,2.25,6.698-0.001,8.949c-22.484,22.483-21.823,22.696-25.318,22.696
	c-5.973,0-8.609-9.157-14.657-9.872l-57.369-6.773c-2-0.237-3.958,0.444-5.38,1.867c-1.421,1.421-2.102,3.382-1.867,5.38
	l6.773,57.369c0.365,3.098,1.812,3.977,8.018,10.182c2.473,2.472,2.474,6.476,0,8.951c-22.191,22.191-21.66,22.695-25.317,22.695
	c-1.737,0-3.421-0.803-4.475-1.854c-22.809-22.809-22.09-21.579-22.579-24.109c-1.336-6.875,9.002-9.471,9.755-15.867l6.728-56.985
	c0.247-2.091-0.465-4.144-1.954-5.633c-1.488-1.488-3.538-2.199-5.633-1.954l-56.983,6.728c-1.584,0.187-3.076,0.911-4.203,2.038
	l-5.98,5.981c-2.467,2.468-6.483,2.467-8.95,0c-22.168-22.168-22.695-21.651-22.695-25.317
	C139.068,224.477,140.191,224.632,161.763,203.059z"/>
<g>
	<path style="fill:#C3C8D1;" d="M236.702,149.032c1.127,1.127,1.851,2.62,2.037,4.202l6.752,57.189
		c0.241,2.041-0.454,4.045-1.907,5.498c-0.014,0.015-0.031,0.026-0.045,0.041l15.818,1.868c2.038,0.24,4.045-0.453,5.498-1.908
		c0.965-0.965,1.587-2.174,1.831-3.474c-0.135-0.685-0.172-1.394-0.088-2.109l0.077-0.653l-6.665-56.45
		c-0.186-1.583-0.91-3.075-2.037-4.202c-5.96-5.96-8.519-7.534-7.718-11.663c0.489-2.529,0.563-2.092,16.42-17.95l-6.16-6.16
		c-0.119-0.119-0.247-0.22-0.377-0.319l-0.114-0.089c-2.286-1.865-5.681-1.864-7.966,0l-0.113,0.088
		c-0.13,0.099-0.259,0.201-0.378,0.319c-22.821,22.821-22.092,21.581-22.581,24.111c-0.155,0.801-0.155,1.615,0,2.416
		C229.446,142.171,230.264,142.594,236.702,149.032z"/>
	<path style="fill:#C3C8D1;" d="M161.875,232.477l-0.092-0.118c-0.931-1.142-1.443-2.555-1.443-3.982
		c0-3.765,1.562-4.183,16.55-19.173c-0.063-0.058-0.135-0.104-0.195-0.165l-5.98-5.981c-2.468-2.468-6.476-2.473-8.95,0
		c-22.193,22.193-22.695,21.659-22.695,25.318c0,3.936,1.323,3.945,22.695,25.317c2.467,2.467,6.483,2.468,8.95,0l5.98-5.981
		c0.061-0.06,0.133-0.107,0.195-0.165C176.557,247.216,162.158,232.849,161.875,232.477z"/>
	<path style="fill:#C3C8D1;" d="M251.992,322.652c-0.896-0.897-1.496-2.027-1.737-3.266c-0.156-0.802-0.156-1.616,0-2.416
		c0.463-2.391,1.287-2.818,7.718-9.248c1.127-1.127,1.851-2.62,2.037-4.202l6.665-56.448l-0.109-0.922
		c-0.075-0.641-0.047-1.275,0.06-1.891c-0.275-1.255-0.904-2.417-1.842-3.355c-1.488-1.488-3.538-2.199-5.633-1.954l-15.744,1.859
		c0.034,0.033,0.073,0.061,0.106,0.095c1.488,1.488,2.201,3.541,1.954,5.633l-6.728,56.985c-0.754,6.403-11.092,8.988-9.755,15.867
		c0.489,2.529-0.236,1.293,22.579,24.109c1.044,1.039,2.718,1.854,4.475,1.854c3.684,0,5.65-3.028,10.635-8.014L251.992,322.652z"/>
</g>
<g>
	<path style="fill:#231F20;" d="M97.118,77.639c-5.885,2.906-9.539,8.795-9.539,15.37v135.843c0,16.364-1.402,41.221,10.935,75.3
		c24.406,67.411,87.968,125.381,148.512,162.549c5.403,3.316,12.288,3.478,17.934,0.017
		c72.475-44.448,148.067-117.166,158.244-202.967c1.599-13.468,1.22-5.094,1.22-170.712c0-6.584-3.663-12.477-9.558-15.38h-0.001
		c-30.243-14.884-91.095-39.852-158.862-39.852h-0.001l0,0C202.053,37.807,145.332,53.836,97.118,77.639z M248.493,449.895
		c-72.234-46.281-145.9-121.142-145.9-206.514v-7.023h32.388c0.351,0.488,0.841,1.109,1.3,1.569l20.842,20.842
		c4.938,4.938,13.07,5.082,18.153,0l5.979-5.979c0.098-0.098,0.229-0.162,0.365-0.178l57.391-6.751
		c-0.039,0.334-6.713,57.495-6.95,57.734l-2.989,2.99l-2.99,2.99c-2.425,2.424-3.761,5.648-3.761,9.076l0,0l0,0
		c0,3.428,1.335,6.653,3.76,9.076l20.841,20.842c0.452,0.452,1.143,0.994,1.569,1.302L248.493,449.895L248.493,449.895z
		 M409.408,243.382c0,86.437-73.455,160.238-145.9,206.528V349.857c0.181-0.131,0.364-0.257,0.539-0.397l-0.004,0.003
		c0.914-0.695-0.512,0.653,21.877-21.736c5.01-5.014,5.01-13.138-0.002-18.151l-5.98-5.98c-0.098-0.098-0.16-0.226-0.177-0.364
		l-6.728-56.986c-0.007-0.058-0.019-0.156,0.093-0.268c0.112-0.111,0.21-0.1,0.27-0.093l56.981,6.728
		c0.139,0.016,0.27,0.08,0.366,0.176l5.981,5.982l0.001,0.001c0.008,0.008,0.016,0.014,0.023,0.021
		c5.082,5.056,13.181,4.922,18.126-0.023l20.843-20.842c0.442-0.442,0.954-1.088,1.301-1.569h32.387v7.024H409.408z M263.508,52.941
		c61.71,1.743,116.784,24.438,144.725,38.189c0.725,0.356,1.175,1.088,1.175,1.909v128.306h-32.401
		c-0.429-0.592-0.766-1.044-1.287-1.569l-20.842-20.842c-3.063-3.062-7.385-4.326-11.518-3.524
		c-4.728,0.914-6.379,3.27-12.612,9.504c-0.099,0.099-0.229,0.162-0.365,0.178l-57.189,6.752c-0.048,0.006-0.079,0.009-0.135-0.047
		c-0.056-0.056-0.053-0.087-0.047-0.135l6.752-57.189c0.017-0.137,0.078-0.266,0.177-0.364l5.981-5.981
		c5.012-5.012,5.009-13.143,0-18.152c-23.074-23.073-21.014-21.119-22.412-22.132L263.508,52.941L263.508,52.941z M273.761,139.051
		l-4.439,4.438c-2.473,2.472-4.061,5.748-4.471,9.221l-6.752,57.188c-1.15,9.742,7.101,18.005,16.853,16.854l57.191-6.752
		c3.471-0.411,6.745-1.998,9.22-4.471l4.438-4.439l17.76,17.759l-17.76,17.76l-4.439-4.44c-2.473-2.472-5.748-4.059-9.222-4.47
		l-56.982-6.728c-9.856-1.163-18.198,7.184-17.035,17.034c7.073,59.91,6.722,57.25,6.98,58.455c0.609,2.802,1.951,5.4,4.05,7.567
		c0.057,0.059,0.109,0.123,0.167,0.182l4.439,4.44L256,336.41l-8.88-8.88l-8.88-8.88l1.479-1.479
		c9.352-9.351,6.414-3.57,14.203-69.549c0.914-7.736-4.299-12.394-4.299-12.394c-3.278-3.278-7.802-4.845-12.394-4.3l-57.37,6.773
		c-3.364,0.398-6.671,1.922-9.221,4.471l-4.438,4.438L148.44,228.85c11.182-11.182,5.849-5.849,17.759-17.759
		c4.522,4.522,7.263,8.153,13.66,8.91l57.104,6.742c9.693,1.152,18.094-7.061,16.928-16.929l-6.741-57.103
		c-0.755-6.344-4.382-9.133-8.91-13.659l17.759-17.76L273.761,139.051z M248.493,52.94v54.892c-0.19,0.138-0.378,0.281-0.564,0.43
		l0.023-0.019c-0.913,0.695,0.51-0.651-21.87,21.731c-5.008,5.006-5.029,13.125-0.001,18.152l1.993,1.993l3.986,3.987
		c0.098,0.098,0.167,0.274,0.178,0.364l6.741,57.103c0.006,0.052,0.013,0.111-0.066,0.19c-0.079,0.079-0.139,0.071-0.19,0.066
		l-57.102-6.741c-0.135-0.016-0.294-0.104-0.365-0.176c-1.906-1.906-0.699-0.699-5.98-5.981c-5.029-5.029-13.171-4.984-18.152,0
		l-20.853,20.852c-0.495,0.497-0.854,0.975-1.278,1.56h-32.4c0-137.065-0.56-129.389,1.172-130.243
		C148.01,69.26,199.368,54.308,248.493,52.94z"/>
	<path style="fill:#231F20;" d="M462.699,75.714c0-9.323-4.972-18.087-12.976-22.871c-3.254-1.945-80.788-47.688-176.343-52.832
		c-4.165-0.221-7.677,2.953-7.901,7.093c-0.223,4.14,2.953,7.678,7.093,7.901c91.889,4.947,166.323,48.861,169.447,50.727
		c3.493,2.088,5.664,5.914,5.664,9.984v135.62c0,4.146,3.36,7.507,7.507,7.507c4.147,0,7.507-3.361,7.507-7.507V75.714H462.699z"/>
	<path style="fill:#231F20;" d="M237.514,0.069C142.458,5.504,65.507,50.913,62.278,52.844
		c-8.003,4.785-12.975,13.548-12.975,22.871v167.667c0,76.584,42.057,143.139,98.487,195.836
		c47.105,43.99,93.881,68.712,95.849,69.743c7.677,4.022,16.929,4.084,24.728,0c43.936-23.015,121.317-79.69,162.702-152.277
		c20.413-35.804,31.046-72.881,31.603-110.202c0.063-4.146-3.248-7.556-7.394-7.618c-0.039,0-0.076-0.001-0.114-0.001
		c-4.094,0-7.443,3.288-7.504,7.395c-1.07,71.49-41.634,133.37-93.693,181.985c-45.611,42.595-90.673,66.424-92.568,67.417
		c-3.319,1.737-7.478,1.737-10.794,0c-1.895-0.992-46.929-24.795-92.568-67.416c-52.707-49.219-93.72-112.126-93.72-184.862V75.714
		c0-4.069,2.17-7.895,5.665-9.984c3.1-1.854,76.971-45.445,168.388-50.672c4.14-0.236,7.304-3.785,7.067-7.924
		C245.201,2.996,241.646-0.162,237.514,0.069z"/>
</g>
<g>
</g>
<g>
</g>
<g>
</g>
<g>
</g>
<g>
</g>
<g>
</g>
<g>
</g>
<g>
</g>
<g>
</g>
<g>
</g>
<g>
</g>
<g>
</g>
<g>
</g>
<g>
</g>
<g>
</g>
</svg>
