<?xml version="1.0" encoding="iso-8859-1"?>
<!-- Generator: Adobe Illustrator 19.0.0, SVG Export Plug-In . SVG Version: 6.00 Build 0)  -->
<svg version="1.1" id="Layer_1" xmlns="http://www.w3.org/2000/svg" xmlns:xlink="http://www.w3.org/1999/xlink" x="0px" y="0px"
	 viewBox="0 0 512.004 512.004" style="enable-background:new 0 0 512.004 512.004;" xml:space="preserve">
<g>
	<path style="fill:#D8B26B;" d="M58.335,164.574c4.941,0,9.529-1.499,13.328-4.062l47.474,81.499
		c4.063-40.221,25.454-75.319,56.589-97.731H81.828c0.145-1.052,0.227-2.124,0.227-3.216c0-12.984-10.62-23.51-23.72-23.51
		s-23.72,10.526-23.72,23.51S45.235,164.574,58.335,164.574z"/>
	<path style="fill:#D8B26B;" d="M336.28,144.28c31.135,22.412,52.527,57.511,56.589,97.732l47.474-81.5
		c3.799,2.562,8.386,4.062,13.328,4.062c13.1,0,23.72-10.526,23.72-23.51s-10.62-23.51-23.72-23.51
		c-13.1,0-23.72,10.526-23.72,23.51c0,1.092,0.082,2.164,0.227,3.216L336.28,144.28L336.28,144.28z"/>
	<path style="fill:#D8B26B;" d="M245.8,52.549l-45.129,77.475c16.933-7.448,35.647-11.591,55.333-11.591
		c19.685,0,38.399,4.143,55.333,11.591l-45.13-77.475c7.987-3.784,13.519-11.842,13.519-21.2c0-12.984-10.62-23.51-23.72-23.51
		s-23.72,10.526-23.72,23.51C232.282,40.707,237.814,48.765,245.8,52.549z"/>
	<path style="fill:#D8B26B;" d="M175.725,367.725c-31.135-22.411-52.526-57.51-56.589-97.73l-47.474,81.5
		c-3.799-2.563-8.385-4.064-13.328-4.064c-13.1,0-23.72,10.526-23.72,23.51s10.62,23.51,23.72,23.51s23.72-10.526,23.72-23.51
		c0-1.094-0.101-2.162-0.248-3.216L175.725,367.725L175.725,367.725z"/>
	<path style="fill:#D8B26B;" d="M266.218,459.433l45.117-77.452c-16.933,7.448-35.648,11.591-55.333,11.591
		s-38.4-4.143-55.333-11.591l45.117,77.452c-7.986,3.784-13.504,11.864-13.504,21.222c0,12.984,10.62,23.51,23.72,23.51
		c13.1,0,23.72-10.526,23.72-23.51C279.722,471.297,274.204,463.217,266.218,459.433z"/>
	<path style="fill:#D8B26B;" d="M453.67,347.431c-4.941,0-9.528,1.5-13.327,4.064l-47.475-81.502
		c-4.063,40.221-25.454,75.32-56.589,97.731h93.919c-0.147,1.054-0.249,2.122-0.249,3.216c0,12.984,10.62,23.51,23.72,23.51
		c13.1,0,23.72-10.526,23.72-23.51C477.39,357.957,466.77,347.431,453.67,347.431z"/>
</g>
<g>
	<ellipse style="fill:#FEBE2D;" cx="256.002" cy="31.349" rx="23.72" ry="23.51"/>
	<ellipse style="fill:#FEBE2D;" cx="256.002" cy="480.655" rx="23.72" ry="23.51"/>
	<ellipse style="fill:#FEBE2D;" cx="58.335" cy="141.063" rx="23.72" ry="23.51"/>
	<ellipse style="fill:#FEBE2D;" cx="453.665" cy="141.063" rx="23.72" ry="23.51"/>
	<ellipse style="fill:#FEBE2D;" cx="58.335" cy="370.941" rx="23.72" ry="23.51"/>
	<ellipse style="fill:#FEBE2D;" cx="453.665" cy="370.941" rx="23.72" ry="23.51"/>
	<circle style="fill:#FEBE2D;" cx="256.002" cy="256.002" r="137.571"/>
</g>
<g style="opacity:0.1;">
	<path d="M140.018,256.002c0-72.346,55.844-131.645,126.776-137.15c-3.561-0.277-7.16-0.42-10.793-0.42
		c-75.978,0-137.57,61.591-137.57,137.57s61.593,137.57,137.57,137.57c3.633,0,7.232-0.143,10.793-0.42
		C195.862,387.647,140.018,328.348,140.018,256.002z"/>
</g>
<circle style="fill:#D8B26B;" cx="256.263" cy="256.002" r="100.049"/>
<g style="opacity:0.1;">
	<path d="M178.68,256.002c0-51.458,38.849-93.835,88.816-99.419c-3.688-0.413-7.435-0.631-11.235-0.631
		c-55.256,0-100.05,44.794-100.05,100.05s44.794,100.051,100.05,100.051c3.798,0,7.545-0.219,11.235-0.631
		C217.529,349.837,178.68,307.46,178.68,256.002z"/>
</g>
<path style="fill:#FEBE2D;" d="M275.93,263.361c-0.93,0-1.833-0.181-2.683-0.541l-16.241-6.822
	c-0.322-0.136-0.663-0.202-1.005-0.202c-0.342,0-0.681,0.066-1.003,0.202l-16.237,6.82c-0.855,0.362-1.759,0.542-2.686,0.542
	c-1.47,0-2.883-0.458-4.077-1.323c-1.951-1.414-3.034-3.777-2.834-6.169l1.482-17.53c0.061-0.695-0.165-1.383-0.623-1.912
	l-11.516-13.307c-1.576-1.821-2.091-4.371-1.346-6.655c0.745-2.292,2.664-4.053,5.01-4.598l17.156-4.01
	c0.678-0.16,1.263-0.584,1.623-1.179l9.121-15.047c1.248-2.061,3.518-3.339,5.93-3.339c2.413,0,4.684,1.279,5.932,3.339
	l9.121,15.047c0.359,0.596,0.949,1.02,1.626,1.179l17.154,4.007c2.345,0.545,4.266,2.307,5.009,4.601
	c0.747,2.284,0.234,4.834-1.343,6.655l-11.517,13.307c-0.458,0.529-0.683,1.217-0.621,1.912l1.48,17.529
	c0.201,2.395-0.886,4.762-2.833,6.17C278.815,262.907,277.407,263.361,275.93,263.361z"/>
<path d="M453.67,339.594c-3.509,0-6.95,0.572-10.211,1.679l-42.562-73.069c0.334-4.041,0.512-8.108,0.512-12.203
	c0-4.107-0.181-8.173-0.516-12.196l42.566-73.075c3.261,1.109,6.702,1.679,10.211,1.679c17.401,0,31.557-14.062,31.557-31.347
	s-14.156-31.347-31.557-31.347c-15.821,0-28.959,11.626-31.215,26.726h-83.798c-6.857-4.755-14.139-8.936-21.779-12.473
	l-40.191-68.996c6.778-5.878,10.872-14.491,10.872-23.626C287.559,14.062,273.403,0,256.002,0s-31.557,14.062-31.557,31.347
	c0,9.134,4.094,17.749,10.871,23.626l-40.191,68.996c-7.64,3.537-14.922,7.718-21.779,12.473h-33.328
	c-4.328,0-7.837,3.509-7.837,7.837c0,4.328,3.509,7.837,7.837,7.837h14.357c-18.67,18.267-32.459,41.503-39.184,67.553
	l-36.757-63.102c-1.091-1.874-2.91-3.211-5.023-3.695c-2.113-0.483-4.332-0.07-6.13,1.142c-2.642,1.783-5.734,2.724-8.946,2.724
	c-8.758,0-15.883-7.031-15.883-15.673s7.125-15.673,15.883-15.673s15.883,7.031,15.883,15.673c0,0.689-0.051,1.411-0.153,2.143
	c-0.31,2.244,0.366,4.513,1.854,6.221s3.643,2.689,5.909,2.689h22.663c4.328,0,7.837-3.509,7.837-7.837
	c0-4.328-3.509-7.837-7.837-7.837H89.55c-2.257-15.101-15.396-26.726-31.215-26.726c-17.401,0-31.557,14.062-31.557,31.347
	s14.156,31.347,31.557,31.347c3.509,0,6.951-0.571,10.212-1.679l42.566,73.074c-0.335,4.023-0.516,8.09-0.516,12.197
	c0,4.109,0.181,8.175,0.516,12.198l-42.566,73.074c-3.261-1.109-6.703-1.679-10.212-1.679c-17.401,0-31.557,14.062-31.557,31.347
	s14.156,31.347,31.557,31.347c15.821,0,28.959-11.624,31.215-26.726h83.798c6.858,4.755,14.139,8.936,21.779,12.473l40.179,68.976
	c-6.77,5.879-10.86,14.5-10.86,23.646c0,17.285,14.156,31.347,31.557,31.347s31.557-14.062,31.557-31.347
	c0-9.146-4.09-17.766-10.86-23.646l7.666-13.162c2.179-3.74,0.912-8.538-2.827-10.716c-3.739-2.177-8.537-0.912-10.716,2.827
	l-11.376,19.529c-1.104,1.896-1.364,4.168-0.714,6.264c0.65,2.095,2.147,3.823,4.13,4.763c5.482,2.597,9.023,8.147,9.023,14.14
	c0,8.642-7.125,15.673-15.883,15.673c-8.758,0-15.884-7.031-15.884-15.673c0-5.992,3.542-11.543,9.023-14.14
	c1.983-0.939,3.482-2.668,4.13-4.763c0.65-2.096,0.391-4.368-0.715-6.264l-34.421-59.091c12.079,3.261,24.77,5.011,37.865,5.011
	c12.915,0,25.653-1.745,37.903-5.075l-7.865,13.502c-2.179,3.74-0.913,8.538,2.827,10.715c1.241,0.723,2.598,1.067,3.937,1.067
	c2.698,0,5.323-1.395,6.779-3.894l17.354-29.791c7.561-3.496,14.82-7.637,21.69-12.373h83.827
	c2.256,15.102,15.395,26.726,31.215,26.726c17.401,0,31.557-14.062,31.557-31.347S471.07,339.594,453.67,339.594z M430.175,152.116
	c2.264,0,4.419-0.98,5.907-2.687c1.488-1.707,2.165-3.975,1.856-6.219c-0.101-0.739-0.153-1.461-0.153-2.147
	c0-8.642,7.125-15.673,15.883-15.673c8.758,0,15.883,7.031,15.883,15.673s-7.125,15.673-15.883,15.673
	c-3.212,0-6.305-0.941-8.945-2.722c-1.798-1.213-4.018-1.625-6.13-1.142c-2.113,0.484-3.932,1.821-5.023,3.695l-36.757,63.102
	c-6.726-26.05-20.514-49.286-39.184-67.554h72.546V152.116z M252.571,56.493c1.104-1.896,1.364-4.168,0.715-6.264
	c-0.65-2.096-2.147-3.823-4.13-4.763c-5.573-2.64-9.036-8.05-9.036-14.118c0-8.642,7.125-15.673,15.883-15.673
	s15.884,7.031,15.884,15.673c0,6.068-3.463,11.476-9.037,14.118c-1.982,0.939-3.481,2.667-4.13,4.763
	c-0.65,2.096-0.391,4.368,0.715,6.264l34.435,59.114c-12.079-3.261-24.77-5.011-37.865-5.011s-25.787,1.75-37.865,5.011
	L252.571,56.493z M81.807,359.888c-2.266,0-4.422,0.981-5.91,2.691c-1.488,1.709-2.164,3.979-1.852,6.224
	c0.118,0.852,0.173,1.531,0.173,2.138c0,8.642-7.125,15.673-15.883,15.673s-15.883-7.031-15.883-15.673
	c0-8.642,7.125-15.673,15.883-15.673c3.211,0,6.304,0.941,8.944,2.723c1.797,1.212,4.017,1.625,6.13,1.143
	c2.114-0.484,3.933-1.821,5.024-3.695l36.757-63.103c6.725,26.049,20.514,49.286,39.184,67.553L81.807,359.888L81.807,359.888z
	 M453.67,386.614c-8.758,0-15.883-7.031-15.883-15.673c0-0.605,0.055-1.283,0.174-2.134c0.312-2.245-0.362-4.517-1.851-6.228
	c-1.488-1.711-3.645-2.692-5.912-2.692h-72.512c5.589-5.451,10.775-11.367,15.466-17.736c2.567-3.485,1.822-8.391-1.662-10.957
	c-3.486-2.568-8.391-1.824-10.957,1.662c-24.388,33.111-63.464,52.879-104.53,52.879c-71.535,0-129.733-58.198-129.733-129.733
	s58.198-129.735,129.732-129.735s129.732,58.198,129.732,129.733c0,17.058-3.257,33.634-9.68,49.267
	c-1.645,4.003,0.266,8.582,4.269,10.227c4.005,1.645,8.582-0.266,10.227-4.269c2.535-6.169,4.619-12.47,6.27-18.875l36.749,63.088
	c1.091,1.874,2.91,3.212,5.025,3.695c2.113,0.485,4.333,0.069,6.131-1.143c2.639-1.782,5.731-2.723,8.942-2.723
	c8.758,0,15.883,7.031,15.883,15.673C469.553,379.584,462.428,386.614,453.67,386.614z"/>
<path d="M331.123,189.166c-3.442,2.624-4.104,7.542-1.481,10.983c12.321,16.158,18.833,35.472,18.833,55.853
	c0,50.847-41.366,92.214-92.214,92.214s-92.213-41.368-92.213-92.214s41.366-92.213,92.213-92.213
	c18.569,0,36.468,5.493,51.76,15.885c3.579,2.435,8.453,1.504,10.886-2.077c2.433-3.58,1.504-8.453-2.077-10.887
	c-17.901-12.165-38.846-18.595-60.57-18.595c-59.489,0-107.887,48.398-107.887,107.887s48.398,107.888,107.887,107.888
	s107.889-48.398,107.889-107.887c0-23.844-7.623-46.444-22.043-65.355C339.482,187.204,334.564,186.541,331.123,189.166z"/>
<path d="M227.465,308.32c-4.328,0-7.837,3.509-7.837,7.837c0,4.328,3.509,7.837,7.837,7.837h57.073c4.328,0,7.837-3.509,7.837-7.837
	c0-4.328-3.509-7.837-7.837-7.837H227.465z"/>
<path d="M305.498,289.736c0-4.328-3.509-7.837-7.837-7.837h-83.318c-4.328,0-7.837,3.509-7.837,7.837
	c0,4.328,3.509,7.837,7.837,7.837h83.318C301.989,297.572,305.498,294.064,305.498,289.736z"/>
<path d="M302.297,214.05c-1.584-4.89-5.679-8.652-10.682-9.817l-15.005-3.506l-7.974-13.154c-2.658-4.391-7.499-7.119-12.636-7.119
	c-5.135,0-9.975,2.727-12.631,7.114l-7.977,13.16l-14.995,3.505c-5.006,1.163-9.102,4.921-10.686,9.799
	c-1.593,4.88-0.495,10.327,2.869,14.216l10.07,11.636l-1.295,15.331c-0.428,5.111,1.887,10.156,6.044,13.169
	c2.54,1.841,5.54,2.814,8.676,2.814c1.987,0,3.919-0.391,5.722-1.154l14.204-5.967l14.191,5.961c1.819,0.77,3.75,1.161,5.739,1.161
	c3.147,0,6.152-0.977,8.672-2.811c4.158-3.008,6.475-8.055,6.048-13.178l-1.294-15.328l10.069-11.633
	C302.789,224.362,303.888,218.913,302.297,214.05z M276.052,231.304c-1.84,2.13-2.749,4.953-2.5,7.695l1.352,16.017l-14.849-6.237
	c-1.287-0.543-2.652-0.819-4.053-0.819s-2.765,0.276-4.039,0.814l-14.862,6.243l1.352-16.001c0.241-2.786-0.672-5.598-2.505-7.717
	l-10.513-12.147l15.688-3.667c2.716-0.639,5.098-2.374,6.529-4.745l8.35-13.776l8.34,13.76c1.438,2.382,3.819,4.118,6.553,4.763
	l15.675,3.662L276.052,231.304z"/>
<path d="M185.158,250.464c-1.463,1.452-2.299,3.48-2.299,5.538c0,2.069,0.836,4.086,2.299,5.538c1.452,1.463,3.48,2.299,5.538,2.299
	c2.058,0,4.086-0.836,5.538-2.299c1.463-1.452,2.299-3.469,2.299-5.538c0-2.069-0.836-4.086-2.299-5.538
	c-1.452-1.463-3.48-2.299-5.538-2.299C188.638,248.165,186.61,249.001,185.158,250.464z"/>
<path d="M313.471,256.002c0,2.069,0.836,4.086,2.299,5.538c1.452,1.463,3.479,2.299,5.538,2.299c2.058,0,4.086-0.836,5.538-2.299
	c1.463-1.452,2.299-3.48,2.299-5.538c0-2.058-0.836-4.086-2.299-5.538c-1.452-1.463-3.479-2.299-5.538-2.299
	c-2.069,0-4.086,0.836-5.538,2.299C314.307,251.917,313.471,253.933,313.471,256.002z"/>
<g>
</g>
<g>
</g>
<g>
</g>
<g>
</g>
<g>
</g>
<g>
</g>
<g>
</g>
<g>
</g>
<g>
</g>
<g>
</g>
<g>
</g>
<g>
</g>
<g>
</g>
<g>
</g>
<g>
</g>
</svg>
