<?xml version="1.0" encoding="iso-8859-1"?>
<!-- Generator: Adobe Illustrator 19.0.0, SVG Export Plug-In . SVG Version: 6.00 Build 0)  -->
<svg version="1.1" id="Layer_1" xmlns="http://www.w3.org/2000/svg" xmlns:xlink="http://www.w3.org/1999/xlink" x="0px" y="0px"
	 viewBox="0 0 511.998 511.998" style="enable-background:new 0 0 511.998 511.998;" xml:space="preserve">
<path style="fill:#D9B43A;" d="M385.898,15.72l-0.005-0.005c-2.73-2.73-7.054-2.915-10.07-0.505
	c-25.417,20.321-61.384,20.963-87.454,1.904c-5.236-3.827-12.465-3.313-17.05,1.273L18.621,271.085
	c-4.538,4.538-5.179,11.737-1.379,16.908c4.025,5.477,7.179,11.392,9.461,17.559c8.729,23.58,4.715,50.808-12.041,71.033
	c-2.466,2.976-2.325,7.318,0.409,10.052l0.003,0.003c2.186,2.186,5.474,2.738,8.308,1.508c4.794-2.082,10.579-1.163,14.5,2.758
	c3.921,3.921,4.84,9.706,2.758,14.5c-1.231,2.835-0.678,6.123,1.508,8.308l0.743,0.743c2.186,2.186,5.474,2.738,8.308,1.508
	c4.794-2.082,10.579-1.163,14.5,2.758s4.84,9.706,2.758,14.5c-1.231,2.835-0.678,6.123,1.508,8.308l0.743,0.743
	c2.186,2.186,5.474,2.738,8.308,1.508c4.794-2.082,10.579-1.163,14.5,2.758s4.84,9.706,2.758,14.5
	c-1.231,2.835-0.678,6.123,1.508,8.308l0.743,0.743c2.186,2.186,5.474,2.738,8.308,1.508c4.794-2.082,10.579-1.163,14.5,2.758
	s4.84,9.706,2.758,14.5c-1.231,2.835-0.678,6.123,1.508,8.308l0,0c2.73,2.73,7.073,2.882,10.043,0.413
	c25.692-21.365,62.487-22.438,88.95-3.123c5.227,3.814,12.442,3.279,17.018-1.296L493.39,241.372
	c4.581-4.581,5.101-11.801,1.284-17.036c-19.051-26.12-18.233-62.293,2.341-87.925c2.418-3.013,2.233-7.344-0.498-10.076l0,0
	c-2.213-2.213-5.539-2.76-8.415-1.528c-4.782,2.048-10.536,1.121-14.439-2.782c-3.904-3.904-4.832-9.657-2.782-14.439
	c1.233-2.877,0.686-6.202-1.528-8.415l-0.65-0.65c-2.213-2.213-5.539-2.76-8.415-1.528c-4.782,2.048-10.536,1.121-14.439-2.782
	c-3.904-3.904-4.832-9.657-2.782-14.439c1.233-2.877,0.686-6.202-1.528-8.415l-0.65-0.65c-2.213-2.213-5.539-2.76-8.415-1.528
	c-4.782,2.048-10.536,1.121-14.439-2.782c-3.904-3.904-4.832-9.657-2.782-14.439c1.233-2.877,0.686-6.202-1.528-8.415l-0.65-0.65
	c-2.213-2.213-5.539-2.76-8.415-1.528c-4.782,2.048-10.536,1.121-14.439-2.782c-3.904-3.904-4.832-9.657-2.782-14.439
	C388.659,21.259,388.112,17.933,385.898,15.72z"/>
<path style="fill:#BB9430;" d="M80.269,209.437l-61.647,61.647c-4.538,4.538-5.181,11.737-1.379,16.908
	c3.568,4.855,6.449,10.057,8.648,15.471l319.728,85.671l85.65-85.65L80.269,209.437z"/>
<g>
	<path style="fill:#E2C35A;" d="M80.269,209.437l350.997,94.049l62.118-62.118c4.581-4.581,5.101-11.801,1.284-17.036
		c-3.362-4.609-6.092-9.535-8.216-14.658l-320.533-85.887L80.269,209.437z"/>
	<path style="fill:#E2C35A;" d="M278.89,66.448L66.771,278.567c-3.635,3.633-4.758,9.037-3.004,13.868
		c7.429,20.459,8.684,42.677,3.767,63.728c-1.031,4.414,0.283,9.045,3.488,12.251l72.645,72.645
		c3.223,3.223,7.887,4.533,12.32,3.472c21.235-5.086,43.65-3.914,64.261,3.525c4.823,1.74,10.212,0.611,13.837-3.015L445.356,233.77
		c3.62-3.62,4.748-8.996,3.025-13.818c-7.204-20.151-8.467-42.067-3.774-62.901c0.977-4.334-0.408-8.861-3.548-12.003
		l-74.033-74.035c-3.123-3.123-7.618-4.509-11.932-3.564c-20.691,4.537-42.458,3.177-62.489-4.053
		C287.825,61.671,282.483,62.855,278.89,66.448z"/>
</g>
<path style="fill:#D9B43A;" d="M124.144,221.194l-57.373,57.373c-3.633,3.633-4.758,9.037-3.004,13.868
	c2.679,7.378,4.542,14.986,5.616,22.684l232.36,62.261l85.65-85.65L124.144,221.194z"/>
<path style="fill:#EBD37A;" d="M124.144,221.194l263.248,70.536l57.963-57.963c3.62-3.62,4.748-8.996,3.025-13.818
	c-2.548-7.129-4.338-14.48-5.398-21.924l-233.187-62.483L124.144,221.194z"/>
<g>
	<path style="fill:#644D2D;" d="M139.871,321.365l-27.815,27.815c-3.841,3.841-3.841,10.068,0,13.908
		c3.841,3.841,10.068,3.841,13.908,0l6.953-6.953l30.133,30.133c3.841,3.841,10.068,3.841,13.908,0
		c3.841-3.841,3.841-10.068,0-13.908l-30.133-30.133l6.953-6.953c3.841-3.841,3.841-10.068,0-13.908
		C149.937,317.525,143.71,317.525,139.871,321.365z"/>
	<path style="fill:#644D2D;" d="M348.949,112.286l-27.815,27.815c-3.841,3.841-3.841,10.068,0,13.908
		c3.841,3.841,10.068,3.841,13.908,0l6.953-6.953l30.133,30.133c3.841,3.841,10.068,3.841,13.908,0
		c3.841-3.841,3.841-10.068,0-13.908l-30.133-30.133l6.953-6.953c3.841-3.841,3.841-10.068,0-13.908
		C359.017,108.445,352.79,108.445,348.949,112.286z"/>
	<path style="fill:#644D2D;" d="M158.877,302.358c-3.841,3.841-3.841,10.068,0,13.908l37.087,37.087
		c3.841,3.841,10.068,3.841,13.908,0s3.841-10.068,0-13.908l-37.087-37.087C168.945,298.517,162.718,298.517,158.877,302.358z"/>
	<path style="fill:#644D2D;" d="M273.02,239.21v-27.253c0-5.431-4.403-9.834-9.834-9.834c-5.431,0-9.834,4.403-9.834,9.834v31.889
		l-11.027-11.027c-3.841-3.841-10.068-3.841-13.908,0c-3.841,3.841-3.841,10.068,0,13.908l37.087,37.087
		c3.841,3.841,10.068,3.841,13.908,0c3.841-3.841,3.841-10.068,0-13.908l-6.391-6.391v-4.637h27.253c2.716,0,5.174-1.1,6.953-2.881
		c1.779-1.779,2.881-4.238,2.881-6.953c0-5.431-4.403-9.834-9.834-9.834H273.02z"/>
	<path style="fill:#644D2D;" d="M210.799,278.405c3.075-3.075,7.165-4.769,11.513-4.769c5.431,0,9.834-4.403,9.834-9.834
		c0-5.431-4.403-9.834-9.834-9.834c-19.823,0-35.949,16.127-35.95,35.95c0.001,19.822,16.128,35.949,35.95,35.95
		c9.912,0,18.899-4.032,25.409-10.541c6.509-6.509,10.541-15.497,10.541-25.408c0-5.431-4.403-9.834-9.834-9.834
		c-5.431,0-9.834,4.403-9.834,9.834c0,4.349-1.694,8.438-4.769,11.513c-3.075,3.075-7.163,4.769-11.511,4.768
		c-8.978,0-16.282-7.305-16.283-16.282C206.03,285.569,207.724,281.48,210.799,278.405z"/>
	<path style="fill:#644D2D;" d="M288.682,172.552c-14.059,14.059-14.059,36.936,0,50.995c14.059,14.059,36.936,14.059,50.995,0
		c4.48-4.48,7.71-10.072,9.339-16.169c1.402-5.248-1.716-10.637-6.964-12.038c-5.248-1.4-10.637,1.716-12.038,6.964
		c-0.737,2.76-2.204,5.297-4.243,7.336c-3.784,3.784-8.971,5.328-13.902,4.63l27.81-27.81c3.841-3.841,3.841-10.068,0-13.908
		C325.618,158.493,302.741,158.493,288.682,172.552z M297.959,200.362c-0.698-4.93,0.847-10.119,4.63-13.902
		c3.783-3.783,8.971-5.328,13.902-4.63L297.959,200.362z"/>
</g>
<g>
	<path style="fill:#9E7325;" d="M111.61,274.403l8.76,4.672l6.955-6.955c2.398-2.398,6.519-0.337,6.092,3.047l-1.286,10.18
		l9.101,4.854c3.089,1.648,2.303,6.258-1.143,6.694l-9.569,1.209l-1.209,9.569c-0.435,3.446-5.046,4.233-6.694,1.143l-4.854-9.101
		l-10.18,1.286c-3.384,0.427-5.447-3.694-3.047-6.092l6.955-6.955l-4.672-8.76C105.154,276.075,108.489,272.74,111.61,274.403z"/>
	<path style="fill:#9E7325;" d="M167.24,218.773l8.76,4.672l6.955-6.955c2.398-2.398,6.519-0.337,6.092,3.047l-1.286,10.18
		l9.101,4.854c3.089,1.648,2.303,6.258-1.143,6.694l-9.569,1.209l-1.209,9.569c-0.435,3.446-5.046,4.233-6.694,1.143l-4.854-9.101
		l-10.18,1.286c-3.384,0.427-5.447-3.694-3.047-6.092l6.955-6.955l-4.672-8.76C160.784,220.445,164.12,217.109,167.24,218.773z"/>
	<path style="fill:#9E7325;" d="M222.872,163.143l8.76,4.672l6.955-6.955c2.398-2.398,6.519-0.337,6.092,3.047l-1.286,10.18
		l9.101,4.854c3.089,1.648,2.303,6.258-1.143,6.694l-9.569,1.209l-1.209,9.569c-0.435,3.446-5.046,4.233-6.694,1.143l-4.854-9.101
		l-10.18,1.286c-3.384,0.427-5.447-3.694-3.047-6.092l6.955-6.955l-4.672-8.76C216.415,164.813,219.75,161.478,222.872,163.143z"/>
	<path style="fill:#9E7325;" d="M278.502,107.511l8.76,4.672l6.955-6.955c2.398-2.398,6.519-0.337,6.092,3.047l-1.286,10.18
		l9.101,4.854c3.089,1.648,2.303,6.258-1.143,6.694l-9.569,1.209l-1.209,9.569c-0.435,3.446-5.046,4.233-6.694,1.143l-4.854-9.101
		l-10.18,1.286c-3.384,0.427-5.447-3.694-3.047-6.092l6.955-6.955l-4.672-8.76C272.046,109.183,275.381,105.847,278.502,107.511z"/>
	<path style="fill:#9E7325;" d="M213.6,376.394l8.76,4.672l6.955-6.955c2.398-2.398,6.519-0.337,6.092,3.047l-1.286,10.18
		l9.101,4.854c3.089,1.648,2.303,6.259-1.143,6.694l-9.569,1.209l-1.209,9.569c-0.435,3.446-5.046,4.233-6.694,1.143l-4.854-9.101
		l-10.18,1.286c-3.384,0.427-5.447-3.694-3.047-6.092l6.955-6.955l-4.672-8.76C207.142,378.065,210.478,374.73,213.6,376.394z"/>
	<path style="fill:#9E7325;" d="M269.23,320.763l8.76,4.672l6.955-6.955c2.398-2.398,6.519-0.337,6.092,3.047l-1.286,10.18
		l9.101,4.854c3.089,1.648,2.303,6.259-1.143,6.694l-9.569,1.209l-1.209,9.569c-0.435,3.446-5.046,4.233-6.694,1.143l-4.854-9.101
		l-10.18,1.286c-3.384,0.427-5.447-3.694-3.047-6.092l6.955-6.955l-4.672-8.76C262.774,322.434,266.11,319.098,269.23,320.763z"/>
	<path style="fill:#9E7325;" d="M324.861,265.132l8.76,4.672l6.955-6.955c2.398-2.398,6.519-0.337,6.092,3.047l-1.286,10.18
		l9.101,4.854c3.089,1.648,2.303,6.258-1.143,6.694l-9.569,1.209l-1.209,9.571c-0.435,3.446-5.046,4.233-6.694,1.143l-4.854-9.101
		l-10.18,1.286c-3.384,0.427-5.447-3.694-3.047-6.092l6.955-6.955l-4.672-8.76C318.404,266.804,321.74,263.468,324.861,265.132z"/>
	<path style="fill:#9E7325;" d="M380.492,209.502l8.76,4.672l6.955-6.955c2.398-2.398,6.519-0.337,6.092,3.047l-1.286,10.18
		l9.101,4.854c3.089,1.648,2.303,6.258-1.143,6.694l-9.569,1.209l-1.209,9.571c-0.435,3.446-5.046,4.233-6.694,1.143l-4.854-9.101
		l-10.18,1.286c-3.384,0.427-5.447-3.694-3.047-6.092l6.955-6.955l-4.672-8.76C374.036,211.173,377.371,207.838,380.492,209.502z"/>
</g>
<path d="M508.888,225.866c-23.849-23.849-23.992-63.199-0.32-87.719c3.727-3.859,3.671-9.992-0.121-13.785l-9.295-9.294
	c-3.841-3.841-10.068-3.839-13.907,0c-1.278,1.278-3.358,1.278-4.637,0c-1.278-1.278-1.278-3.358,0-4.637
	c3.841-3.841,3.841-10.068,0-13.907l-9.272-9.272c-3.841-3.841-10.068-3.841-13.907,0c-0.835,0.835-1.811,0.96-2.318,0.96
	c-0.507,0-1.483-0.125-2.318-0.96c-0.835-0.835-0.96-1.811-0.96-2.318s0.125-1.482,0.96-2.318c3.841-3.841,3.841-10.068,0-13.907
	l-9.272-9.272c-1.844-1.845-4.345-2.881-6.953-2.881c-2.608,0-5.11,1.036-6.953,2.881c-0.835,0.835-1.811,0.96-2.318,0.96
	c-0.507,0-1.482-0.125-2.318-0.96c-0.837-0.835-0.96-1.811-0.96-2.318c0-0.507,0.125-1.483,0.96-2.318
	c3.841-3.841,3.841-10.068,0-13.907l-9.272-9.272c-3.841-3.841-10.068-3.841-13.907,0c-1.278,1.278-3.359,1.278-4.637,0
	s-1.278-3.358,0-4.637c3.841-3.841,3.841-10.066,0-13.907l-9.295-9.295c-3.791-3.792-9.922-3.847-13.782-0.123
	c-24.267,23.416-63.41,23.066-87.257-0.78c-3.841-3.841-10.068-3.841-13.907,0L3.111,272.688c-3.841,3.841-3.841,10.068,0,13.907
	c24.284,24.285,24.284,63.798,0,88.082c-1.845,1.845-2.881,4.345-2.881,6.953s1.036,5.11,2.881,6.955l9.272,9.272
	c3.841,3.841,10.068,3.839,13.907,0c0.835-0.835,1.811-0.96,2.318-0.96c0.507,0,1.483,0.125,2.318,0.96
	c0.835,0.835,0.96,1.811,0.96,2.318s-0.125,1.483-0.96,2.318c-3.841,3.841-3.841,10.068,0,13.907l9.272,9.272
	c3.841,3.841,10.068,3.841,13.907,0c0.835-0.835,1.811-0.96,2.318-0.96s1.483,0.125,2.318,0.96s0.96,1.811,0.96,2.318
	s-0.125,1.483-0.96,2.318c-3.841,3.841-3.841,10.068,0,13.907l9.272,9.272c3.841,3.841,10.068,3.841,13.907,0
	c1.278-1.278,3.359-1.277,4.637,0c1.278,1.278,1.278,3.358,0,4.637c-3.841,3.841-3.841,10.068,0,13.907l9.272,9.272
	c3.841,3.841,10.068,3.841,13.907,0c0.835-0.835,1.811-0.96,2.318-0.96c0.507,0,1.483,0.125,2.318,0.96
	c1.278,1.278,1.278,3.359,0,4.637c-3.841,3.841-3.841,10.066,0,13.907l9.272,9.272c1.845,1.845,4.345,2.881,6.955,2.881
	c2.609,0,5.11-1.036,6.953-2.881c11.899-11.899,27.672-18.495,44.414-18.571c16.738-0.108,32.381,6.354,44.132,18.107
	c1.844,1.845,4.345,2.881,6.953,2.881s5.11-1.036,6.953-2.881l268.884-268.881C512.728,235.932,512.728,229.705,508.888,225.866z
	 M232.638,488.206c-14.299-11.241-31.85-17.328-50.377-17.328c-0.127,0-0.256,0-0.383,0c-17.022,0.077-33.275,5.286-46.985,14.886
	c0.611-6.568-1.592-13.351-6.611-18.37c-5.891-5.891-14.211-7.901-21.768-6.037c0.445-1.795,0.673-3.656,0.673-5.552
	c0-6.13-2.386-11.892-6.72-16.226c-4.334-4.335-10.096-6.72-16.226-6.72c-1.897,0-3.758,0.228-5.553,0.673
	c1.867-7.553-0.146-15.876-6.037-21.768c-5.895-5.895-14.228-7.905-21.782-6.033c1.874-7.557-0.138-15.888-6.033-21.783
	c-4.334-4.335-10.096-6.72-16.226-6.72c-0.733,0-1.459,0.034-2.179,0.101c20.32-29.285,19.366-68.968-2.872-97.274l256.73-256.726
	c14.185,11.165,31.572,17.299,49.886,17.449c16.845,0.146,32.87-4.758,46.496-13.98c-0.089,0.826-0.135,1.664-0.135,2.507
	c0,6.129,2.386,11.892,6.72,16.226c5.891,5.891,14.214,7.904,21.768,6.037c-0.444,1.795-0.673,3.657-0.673,5.553
	c0,6.129,2.388,11.892,6.721,16.225c4.334,4.335,10.096,6.721,16.225,6.721c1.892,0,3.747-0.227,5.539-0.669
	c-0.442,1.79-0.669,3.647-0.669,5.537c0,6.13,2.386,11.892,6.72,16.226c4.334,4.335,10.096,6.72,16.226,6.72
	c1.896,0,3.758-0.228,5.552-0.673c-1.866,7.553,0.146,15.876,6.037,21.768c5.105,5.103,12.032,7.293,18.71,6.576
	c-9.346,13.726-14.349,29.916-14.288,46.787c0.066,18.407,6.155,35.856,17.319,50.067L232.638,488.206z"/>
<path d="M444.51,220.705L225.646,439.567c-23.482-8.974-49.226-10.432-73.728-4.164l-75.236-75.234
	c6.074-24.302,4.516-49.848-4.445-73.161L287.319,71.926c22.738,8.658,47.693,10.326,71.479,4.769l76.586,76.59
	c-4.067,17.018-4.477,34.905-1.156,52.093c1.031,5.333,6.184,8.818,11.52,7.79c5.333-1.031,8.821-6.188,7.79-11.52
	c-3.104-16.068-2.329-32.863,2.241-48.571c1.002-3.445,0.048-7.163-2.489-9.7l-84.559-84.563c-2.524-2.524-6.215-3.483-9.647-2.504
	c-23.232,6.615-48.118,4.854-70.068-4.955c-3.723-1.665-8.085-0.859-10.966,2.025L53.673,277.756
	c-2.891,2.891-3.691,7.268-2.011,10.996c10.121,22.448,11.758,47.832,4.608,71.478c-1.05,3.47-0.105,7.237,2.459,9.8
	c0.003,0.003,0.005,0.005,0.008,0.008c0.001,0.001,0.003,0.003,0.004,0.004l83.343,83.343c2.578,2.578,6.373,3.519,9.853,2.444
	c23.834-7.353,49.401-5.819,71.992,4.314c1.293,0.58,2.663,0.861,4.022,0.861c2.556,0,5.072-0.997,6.956-2.881l223.514-223.512
	c3.841-3.841,3.841-10.068,0-13.907C454.578,216.864,448.351,216.864,444.51,220.705z"/>
<g>
</g>
<g>
</g>
<g>
</g>
<g>
</g>
<g>
</g>
<g>
</g>
<g>
</g>
<g>
</g>
<g>
</g>
<g>
</g>
<g>
</g>
<g>
</g>
<g>
</g>
<g>
</g>
<g>
</g>
</svg>
