<?xml version="1.0" encoding="iso-8859-1"?>
<!-- Generator: Adobe Illustrator 19.0.0, SVG Export Plug-In . SVG Version: 6.00 Build 0)  -->
<svg version="1.1" id="Layer_1" xmlns="http://www.w3.org/2000/svg" xmlns:xlink="http://www.w3.org/1999/xlink" x="0px" y="0px"
	 viewBox="0 0 512 512" style="enable-background:new 0 0 512 512;" xml:space="preserve">
<g>
	<path style="fill:#dddddd;" d="M404.658,229.234C485.309,148.583,522.9,56.421,489.239,22.76s-125.823,3.93-206.474,84.582
		L404.658,229.234z"/>
	
		<rect x="93.687" y="332.976" transform="matrix(0.7071 -0.7071 0.7071 0.7071 -244.5809 198.6146)" style="fill:#777777;" width="47.544" height="123.133"/>
</g>
<path style="fill:#dddddd;" d="M135.429,498.463l18.709-18.709c4.117-4.117,4.117-10.792,0-14.909L47.156,357.861
	c-4.117-4.117-10.792-4.117-14.909,0l-18.709,18.709c-4.117,4.117-4.117,10.792,0,14.909L120.52,498.463
	C124.637,502.58,131.312,502.58,135.429,498.463z"/>
<rect x="90.891" y="186.822" transform="matrix(0.7071 -0.7071 0.7071 0.7071 -123.0508 248.9531)" style="fill:#bbbbbb;" width="296.193" height="172.38"/>
<path d="M272.639,192.29c-2.681,0-5.363-1.025-7.404-3.076c-4.072-4.09-4.059-10.705,0.031-14.777l0.118-0.118
	c4.09-4.071,10.705-4.057,14.777,0.032c4.072,4.09,4.059,10.705-0.031,14.777l-0.118,0.118
	C277.973,191.275,275.306,192.29,272.639,192.29z"/>
<path d="M147.715,317.244c-2.675,0-5.348-1.02-7.389-3.061c-4.08-4.08-4.08-10.697,0-14.777l95.875-95.878
	c4.082-4.08,10.696-4.081,14.778,0c4.08,4.08,4.08,10.697,0,14.777l-95.875,95.878C153.063,316.223,150.391,317.244,147.715,317.244
	z"/>
<path d="M496.628,15.372c-19.461-19.461-53.895-20.475-96.961-2.858c-40.215,16.452-84.356,47.506-124.29,87.44L65.931,309.399
	c-1.959,1.959-3.061,4.618-3.061,7.389c0,2.771,1.101,5.429,3.061,7.389l10.024,10.024l-18.841,18.84l-2.569-2.569
	c-3.964-3.964-9.236-6.148-14.843-6.148s-10.879,2.184-14.843,6.148L6.149,369.181C2.184,373.145,0,378.417,0,384.025
	c0,5.607,2.184,10.879,6.148,14.843l106.984,106.983c3.964,3.964,9.236,6.148,14.843,6.148c5.606,0,10.878-2.183,14.842-6.148h0.001
	l18.709-18.711c8.184-8.185,8.184-21.502,0-29.686l-2.569-2.57l18.841-18.841l10.024,10.024c2.041,2.041,4.715,3.061,7.389,3.061
	c2.674,0,5.348-1.02,7.389-3.061l209.44-209.441c0.002-0.002,0.003-0.003,0.005-0.005c39.935-39.935,70.988-84.075,87.441-124.291
	C517.104,69.267,516.09,34.832,496.628,15.372z M146.75,472.363l-18.708,18.709c-0.033,0.031-0.102,0.031-0.132,0L20.925,384.09
	c-0.03-0.031-0.03-0.1,0.001-0.131l18.709-18.711c0.016-0.016,0.04-0.023,0.066-0.023c0.024,0,0.05,0.007,0.066,0.023
	L146.75,472.233C146.787,472.269,146.787,472.328,146.75,472.363z M144.18,440.108l-36.144-36.144l-36.144-36.144l18.841-18.841
	l72.288,72.288L144.18,440.108z M195.212,423.903l-10.019-10.019c-0.002-0.002-0.003-0.003-0.005-0.005l-87.066-87.067
	c-0.002-0.002-0.003-0.003-0.005-0.005l-10.02-10.02l194.668-194.668l96.662,96.662l10.451,10.452L195.212,423.903z M480.144,104.42
	c-14.422,35.253-41.087,73.998-75.564,109.96l-10.525-10.525l-96.433-96.435c35.961-34.477,74.706-61.142,109.959-75.564
	c34.265-14.018,61.336-14.639,74.269-1.706C494.785,43.083,494.163,70.153,480.144,104.42z"/>
<g>
</g>
<g>
</g>
<g>
</g>
<g>
</g>
<g>
</g>
<g>
</g>
<g>
</g>
<g>
</g>
<g>
</g>
<g>
</g>
<g>
</g>
<g>
</g>
<g>
</g>
<g>
</g>
<g>
</g>
</svg>
