<?xml version="1.0" encoding="iso-8859-1"?>
<!-- Generator: Adobe Illustrator 19.0.0, SVG Export Plug-In . SVG Version: 6.00 Build 0)  -->
<svg version="1.1" id="Capa_1" xmlns="http://www.w3.org/2000/svg" xmlns:xlink="http://www.w3.org/1999/xlink" x="0px" y="0px"
	 viewBox="0 0 511.878 511.878" style="enable-background:new 0 0 511.878 511.878;" xml:space="preserve">
<g>
	<g transform="translate(1 1)">
		<path style="fill:#009688;" d="M272.945,417.012c1.536,24.038,5.547,60.493,16.128,85.333h-68.267
			c10.581-24.841,14.592-61.295,16.128-85.333H272.945z"/>
		<g>
			<path style="fill:#2E7D32;" d="M351.451,409.246c-16.384,26.709-42.923,26.795-64.853,23.125
				c12.974-3.178,24.078-11.536,30.72-23.125c15.872-25.941-3.499-76.971-21.333-113.323c13.751,6.847,27.916,12.832,42.411,17.92
				C353.158,347.55,364.849,387.316,351.451,409.246z"/>
			<path style="fill:#2E7D32;" d="M338.395,127.646c-14.495,5.088-28.659,11.073-42.411,17.92
				c17.835-36.352,37.205-87.381,21.333-113.323c-6.642-11.589-17.746-19.948-30.72-23.125c21.931-3.669,48.469-3.584,64.853,23.125
				C364.849,54.174,353.158,93.94,338.395,127.646z"/>
			<path style="fill:#2E7D32;" d="M460.592,220.745c0,17.579,25.771,70.144-17.152,96.512c-13.568,6.47-28.998,7.892-43.52,4.011
				c3.299-0.898,6.458-2.247,9.387-4.011c42.923-26.368,17.152-78.933,17.152-96.512s25.771-70.144-17.152-96.512
				c-2.929-1.763-6.088-3.113-9.387-4.011c14.522-3.881,29.952-2.459,43.52,4.011C486.363,150.601,460.592,203.166,460.592,220.745z
				"/>
		</g>
		<path style="fill:#4CAF50;" d="M426.459,220.745c0,17.579,25.771,70.144-17.152,96.512c-2.929,1.763-6.088,3.113-9.387,4.011
			c-24.266-5.394-47.729-13.913-69.803-25.344c2.816,5.632,5.632,11.691,8.277,17.92c-14.495-5.088-28.659-11.073-42.411-17.92
			c17.835,36.352,37.205,87.381,21.333,113.323c-6.642,11.589-17.746,19.948-30.72,23.125c-16.262,2.639-32.907,1.618-48.725-2.987
			c-15.818,4.605-32.463,5.625-48.725,2.987c-12.974-3.178-24.078-11.536-30.72-23.125c-15.872-25.941,3.499-76.971,21.333-113.323
			c-13.751,6.847-27.916,12.832-42.411,17.92c-22.357,7.68-44.971,12.032-61.525,7.424c-3.299-0.898-6.458-2.247-9.387-4.011
			c-42.923-26.368-17.152-78.933-17.152-96.512s-25.771-70.144,17.152-96.512c2.929-1.763,6.088-3.113,9.387-4.011
			c16.555-4.608,39.168-0.256,61.525,7.424c14.495,5.088,28.659,11.073,42.411,17.92c-17.835-36.352-37.205-87.381-21.333-113.323
			c6.642-11.589,17.746-19.948,30.72-23.125c16.262-2.639,32.907-1.618,48.725,2.987C253.69,7.5,270.336,6.48,286.598,9.118
			c12.974,3.178,24.078,11.536,30.72,23.125c15.872,25.941-3.499,76.971-21.333,113.323c13.751-6.848,27.916-12.832,42.411-17.92
			c-2.645,6.229-5.461,12.288-8.277,17.92c22.074-11.431,45.537-19.95,69.803-25.344c3.299,0.898,6.458,2.247,9.387,4.011
			C452.23,150.601,426.459,203.166,426.459,220.745z"/>
	</g>
	<path d="M62.966,117.954c-38.613,23.723-28.962,66.5-23.774,89.489c1.249,4.688,2.105,9.472,2.56,14.302
		c-0.455,4.83-1.311,9.614-2.56,14.302c-5.188,22.989-14.839,65.766,23.791,89.498c8.905,5.052,19.039,7.527,29.269,7.151
		c24.685-1.483,48.847-7.749,71.142-18.449c-19.891,46.404-23.689,80.145-11.247,100.471c11.242,18.876,32.027,29.959,53.965,28.774
		c7.483-0.088,14.942-0.848,22.289-2.27c-1.466,20.093-6.276,39.8-14.234,58.308c-1.322,2.646-1.18,5.788,0.376,8.303
		c1.556,2.515,4.303,4.046,7.261,4.045h68.267c2.965,0.016,5.727-1.508,7.293-4.026s1.713-5.669,0.387-8.321
		c-7.95-18.498-12.757-38.194-14.225-58.274c23.74,4.267,56.55,5.521,76.245-26.547c12.442-20.318,8.644-54.059-11.247-100.463
		c22.28,10.69,46.424,16.95,71.091,18.432c10.239,0.376,20.381-2.099,29.295-7.151c38.613-23.723,28.962-66.5,23.774-89.489
		c-1.248-4.685-2.104-9.466-2.56-14.293c0.455-4.83,1.311-9.614,2.56-14.302c5.188-22.989,14.839-65.766-23.791-89.498
		c-20.292-12.425-54.016-8.636-100.378,11.213c19.857-46.353,23.646-80.077,11.213-100.386C336.016-9.841,293.23-0.19,270.25,4.998
		c-4.691,1.248-9.478,2.104-14.31,2.56c-4.833-0.456-9.619-1.312-14.31-2.56c-22.98-5.188-65.775-14.822-89.481,23.782
		c-12.433,20.309-8.644,54.025,11.213,100.386C116.991,109.31,83.267,105.529,62.966,117.954z M234.606,494.812
		c6.024-18.573,9.811-37.797,11.281-57.267c3.296-0.834,6.66-1.374,10.052-1.613c3.383,0.238,6.738,0.774,10.027,1.604
		c1.477,19.474,5.273,38.701,11.307,57.276H234.606z M166.698,37.706c16-26.061,42.803-22.468,71.185-16.068
		c5.902,1.607,11.952,2.608,18.057,2.987c6.104-0.376,12.155-1.374,18.057-2.978c28.39-6.409,55.185-9.993,71.185,16.051
		c10.684,17.459,2.97,54.793-21.717,105.114c-11.255,22.921-21.999,40.107-22.101,40.277c-2.501,3.992-1.294,9.255,2.697,11.759
		c1.353,0.855,2.922,1.308,4.523,1.306c2.939,0.004,5.673-1.505,7.236-3.994c0.435-0.7,10.462-16.777,21.589-39.1
		c48.998-23.689,85.41-31.053,102.571-20.548c26.052,16,22.468,42.803,16.068,71.185c-1.607,5.899-2.608,11.946-2.987,18.048
		c0.376,6.104,1.374,12.155,2.978,18.057c6.4,28.382,9.984,55.185-16.051,71.185c-17.476,10.675-54.793,2.961-105.114-21.717
		c-22.929-11.255-40.107-21.99-40.277-22.101c-2.591-1.619-5.85-1.732-8.547-0.297c-2.698,1.435-4.425,4.2-4.531,7.253
		c-0.106,3.054,1.425,5.932,4.016,7.551c0.691,0.435,16.777,10.462,39.1,21.589c23.671,48.998,31.036,85.419,20.54,102.562
		c-15.991,26.061-42.803,22.468-71.185,16.068c-5.897-1.621-11.945-2.636-18.048-3.029c-6.104,0.376-12.155,1.374-18.057,2.978
		c-28.399,6.391-55.194,9.975-71.185-16.051c-10.684-17.459-2.97-54.793,21.717-105.114c11.255-22.921,21.999-40.107,22.101-40.277
		c2.448-3.988,1.227-9.204-2.737-11.692c-3.964-2.487-9.192-1.318-11.718,2.621c-0.435,0.7-10.462,16.777-21.589,39.1
		c-48.998,23.68-85.427,31.036-102.571,20.548c-26.052-15.991-22.468-42.795-16.068-71.177c1.607-5.902,2.608-11.952,2.987-18.057
		c-0.376-6.104-1.374-12.155-2.978-18.057c-6.4-28.382-9.984-55.185,16.051-71.185c17.476-10.675,54.793-2.97,105.114,21.717
		c22.929,11.255,40.107,21.99,40.277,22.101c2.591,1.619,5.85,1.732,8.547,0.297c2.698-1.435,4.425-4.2,4.531-7.253
		c0.106-3.054-1.425-5.932-4.016-7.551c-0.691-0.435-16.777-10.462-39.1-21.589C163.566,91.27,156.202,54.85,166.698,37.706z"/>
</g>
<g>
</g>
<g>
</g>
<g>
</g>
<g>
</g>
<g>
</g>
<g>
</g>
<g>
</g>
<g>
</g>
<g>
</g>
<g>
</g>
<g>
</g>
<g>
</g>
<g>
</g>
<g>
</g>
<g>
</g>
</svg>
