<?xml version="1.0" encoding="iso-8859-1"?>
<!-- Generator: Adobe Illustrator 19.0.0, SVG Export Plug-In . SVG Version: 6.00 Build 0)  -->
<svg version="1.1" id="Layer_1" xmlns="http://www.w3.org/2000/svg" xmlns:xlink="http://www.w3.org/1999/xlink" x="0px" y="0px"
	 viewBox="0 0 512.002 512.002" style="enable-background:new 0 0 512.002 512.002;" xml:space="preserve">
<path style="fill:#E0E0E2;" d="M293.828,316.592l119.567,119.566c6.395,6.395,14.505,10.799,23.351,12.679l29.397,6.25
	c5.916,1.258,11.166-3.993,9.908-9.908l-6.25-29.396c-1.881-8.846-6.285-16.956-12.679-23.351L337.555,272.864L293.828,316.592z"/>
<g>
	<path style="fill:#C6C5CA;" d="M293.828,316.592l119.567,119.566c6.395,6.395,14.505,10.799,23.351,12.679l29.397,6.25
		c2.958,0.629,5.749-0.369,7.644-2.264L315.692,294.727L293.828,316.592z"/>
	<polygon style="fill:#C6C5CA;" points="293.828,316.592 385.033,407.796 430.425,365.734 337.555,272.864 	"/>
</g>
<polygon style="fill:#ACABB1;" points="407.729,386.765 315.692,294.727 293.828,316.592 385.033,407.796 "/>
<path style="fill:#D80027;" d="M393.092,504.502L393.092,504.502c-6.907,0-12.558-5.651-12.558-12.558l0,0
	c0-6.907,5.651-12.558,12.558-12.558l0,0c6.907,0,12.558,5.651,12.558,12.558l0,0C405.649,498.851,399.998,504.502,393.092,504.502z
	"/>
<path style="fill:#FF0C38;" d="M476.052,445.159l-6.25-29.396c-7.404,2.779-15.192,4.064-22.978,4.314
	c-28.153,0.906-66.29-16.779-66.29-16.779v57.316c0,6.907,5.651,12.558,12.558,12.558l0,0c6.906,0,12.556-5.65,12.557-12.556v-7.076
	c0,0,0.116-10.025,12.558-10.025c12.515,0,12.558,10.025,12.558,10.025v34.641c0,6.907,5.651,12.558,12.558,12.558
	s12.558-5.651,12.558-12.558v-35.294l10.261,2.181C472.059,456.325,477.31,451.075,476.052,445.159z"/>
<path style="fill:#D80027;" d="M380.534,403.297v57.316c0,6.906,5.651,12.557,12.558,12.557l0,0c6.906,0,12.556-5.65,12.557-12.555
	v-7.076c0,0,0.116-10.024,12.558-10.024c0.258,0,0.502,0.01,0.75,0.019v-26.951C398.55,411.652,380.534,403.297,380.534,403.297z"/>
<path style="fill:#FF3F62;" d="M479.238,203.86c-21.681-66.83-103.329-85.425-155.97-38.892
	c-52.641-46.534-134.288-27.937-155.97,38.892c0,0-20.677,58.353,25.046,105.768l102.533,95.01c16.017,14.842,40.762,14.842,56.78,0
	l102.533-95.01C499.915,262.213,479.238,203.86,479.238,203.86z"/>
<path style="fill:#FF0C38;" d="M272.417,189.475c5.42-16.706,14.588-30.398,26.112-40.812
	c-50.551-23.729-112.727-1.837-131.232,55.198c0,0-20.677,58.353,25.046,105.768l102.533,95.01c16.017,14.842,40.763,14.842,56.78,0
	l31.932-29.589l-86.126-79.807C251.739,247.828,272.417,189.475,272.417,189.475z"/>
<path style="fill:#E0E0E2;" d="M238.121,174.987l-69.264-69.264l-42.531,42.531l68.592,68.592
	C199.204,195.388,216.433,178.613,238.121,174.987z"/>
<g>
	<path style="fill:#C6C5CA;" d="M209.915,189.311l-62.323-62.323l-21.265,21.265l68.592,68.592
		C197.053,206.156,202.404,196.633,209.915,189.311z"/>
	<path style="fill:#C6C5CA;" d="M168.857,105.723l-42.531,42.531l42.456,42.456c10.566-4.958,17.533-9.278,19.354-10.443
		c3.347-2.111,9.589-6.761,14.175-14.322l0.056-0.091c2.103-3.411,5.562-9.369,9.359-17.261L168.857,105.723z"/>
</g>
<path style="fill:#ACABB1;" d="M147.592,126.988l-21.265,21.265l42.456,42.456c10.566-4.958,17.532-9.277,19.354-10.443
	c1.783-1.125,4.391-2.979,7.13-5.603L147.592,126.988z"/>
<path style="fill:#FFD422;" d="M52.488,11.801L32.404,31.885c-5.74,5.74-5.74,15.132,0,20.871l0,0c5.74,5.74,15.132,5.74,20.871,0
	L73.36,32.672c5.74-5.74,5.74-15.132,0-20.871l0,0C67.62,6.061,58.228,6.061,52.488,11.801z"/>
<path style="fill:#FFCD00;" d="M55.821,33.661c-4.909-4.91-7.352-11.389-7.332-17.861L32.404,31.885
	c-5.74,5.74-5.74,15.132,0,20.871l0,0c5.74,5.74,15.132,5.74,20.871,0L66.151,39.88c-3.784-1.164-7.344-3.232-10.325-6.213
	L55.821,33.661z"/>
<path style="fill:#FF3F62;" d="M91.671,28.537l-42.53,42.531c0,0,27.96,55.527,77.186,77.186l41.743-0.788l0.788-41.743
	C147.198,56.498,91.671,28.537,91.671,28.537z"/>
<path style="fill:#FF0C38;" d="M72.607,47.602L49.141,71.069c0,0,27.96,55.527,77.186,77.186l41.743-0.788l0.191-10.14l-5.043,0.095
	C110.374,114.17,78.205,57.993,72.607,47.602z"/>
<path style="fill:#FFE477;" d="M188.283,48.816c-9.214,0.475-16.3,8.332-15.824,17.546c1.501,29.077-13.404,57.724-18.19,66.107
	c-8.384,4.785-37.029,19.691-66.107,18.19c-9.214-0.476-17.071,6.61-17.546,15.824c-0.476,9.215,6.609,17.071,15.825,17.546
	c45.312,2.34,86.552-23.75,88.286-24.862c0.325-0.208,3.885-2.356,6.24-6.24c1.068-1.761,27.202-42.975,24.862-88.286
	C205.354,55.426,197.499,48.34,188.283,48.816z"/>
<path style="fill:#FFDA44;" d="M205.83,64.642c-0.392-7.605-5.814-13.746-12.875-15.398c0.509,1.461-3.486,56.48-23.946,92.921
	c-2.224,3.962-5.906,6.048-6.24,6.24c-40.967,23.512-91.241,24.43-91.241,24.43c2.169,6.224,7.924,10.834,14.914,11.195
	c45.312,2.34,86.553-23.75,88.286-24.862c0.325-0.208,3.885-2.356,6.24-6.24C182.036,151.167,208.169,109.952,205.83,64.642z"/>
<path style="fill:#FFE477;" d="M90.712,29.497L50.1,70.109c-3.897,3.897-10.274,3.897-14.17,0l-0.007-0.006
	c-3.897-3.897-3.897-10.274,0-14.17L76.535,15.32c3.897-3.897,10.274-3.897,14.17,0l0.006,0.006
	C94.609,19.223,94.609,25.6,90.712,29.497z"/>
<path style="fill:#FFDA44;" d="M59.463,48.909c-3.49-3.49-4.677-8.432-3.591-12.925L35.923,55.933
	c-3.897,3.897-3.897,10.274,0,14.17l0.006,0.006c3.897,3.897,10.273,3.897,14.17,0l17.327-17.327
	C64.511,52.417,61.69,51.135,59.463,48.909L59.463,48.909z"/>
<g>
	<path style="fill:#FFE477;" d="M81.871,116.051l35.282-71.142c-8.871-6.62-16.53-11.301-21.079-13.902L64.298,95.08
		C69.083,101.611,74.967,108.866,81.871,116.051z"/>
	<path style="fill:#FFE477;" d="M117.811,144.065l33.26-67.067c-5.822-7.216-12.121-13.676-18.374-19.357l-35.83,72.247
		C103.262,135.11,110.253,139.959,117.811,144.065z"/>
</g>
<g>
	<path style="fill:#FFDA44;" d="M64.298,95.08c4.785,6.531,10.669,13.786,17.573,20.971l15.664-31.584
		c-6.873-8.459-12.436-16.432-16.612-22.91L64.298,95.08z"/>
	<path style="fill:#FFDA44;" d="M111.563,100.257l-14.695,29.63c6.394,5.224,13.385,10.072,20.943,14.177l13.066-26.346
		C123.849,112.189,117.406,106.256,111.563,100.257z"/>
</g>
<path d="M403.697,147.735c4.524,0.693,9.017,1.743,13.35,3.122c0.757,0.241,6.758,1.911,9.421-4.873
	c1.514-3.856-0.925-8.165-4.872-9.421c-5.076-1.615-10.334-2.845-15.629-3.655c-4.092-0.626-7.922,2.184-8.549,6.279
	C396.791,143.281,399.602,147.108,403.697,147.735z"/>
<path d="M444.179,412.608l-43.327-43.328l58.438-54.15c0.104-0.096,0.203-0.194,0.301-0.295
	c25.29-26.226,31.235-55.627,31.769-75.672c0.558-20.938-4.469-36.122-5.011-37.694c-7.972-24.51-23.653-44.015-45.354-56.407
	c-3.599-2.055-8.178-0.804-10.232,2.793c-2.055,3.597-0.804,8.178,2.793,10.232c18.427,10.523,31.757,27.151,38.549,48.088
	c0.017,0.053,0.04,0.122,0.059,0.174c0.048,0.138,4.792,13.969,4.185,32.981c-0.8,24.993-10.021,46.843-27.411,64.943
	l-102.376,94.864c-13.061,12.103-33.523,12.103-46.585,0l-102.375-94.864c-17.39-18.101-26.611-39.949-27.411-64.943
	c-0.549-17.197,3.279-30.154,4.046-32.561l12.908,12.908c-0.31,4.595-0.477,12.075,1.162,16.97c1.051,3.139,4.664,6.286,9.493,4.732
	c3.943-1.269,6.046-5.565,4.731-9.493c-0.765-2.285-0.715-8.943-0.192-13.887c3.766-18.182,18.514-32.437,36.825-35.583
	c2.585-0.27,8.812-0.25,11.781,1.531c3.552,2.131,8.159,0.98,10.29-2.572c2.131-3.552,0.979-8.159-2.573-10.29
	c-5.687-3.412-13.136-3.873-17.617-3.783l-15.193-15.193c30.919-11.43,66.356-4.588,92.448,18.478
	c1.419,1.254,3.193,1.881,4.968,1.881c1.775,0,3.549-0.627,4.968-1.881c16.214-14.333,35.834-22.542,56.738-23.736
	c4.136-0.236,7.297-3.78,7.061-7.916c-0.236-4.136-3.797-7.297-7.916-7.06c-22.192,1.269-43.103,9.304-60.855,23.324
	c-31.567-24.856-73.331-30.524-108.919-14.597l-12.726-12.726c6.73-17.092,12.932-39.79,11.701-63.622
	c-0.687-13.293-11.988-23.602-25.423-22.928c-13.33,0.688-23.615,12.093-22.928,25.423c0.267,5.165-0.041,10.333-0.733,15.371
	c-20.538-30.212-50.665-49.737-63.319-57.06c0.131-0.87,1.759-8.295-4.845-14.981c-0.021-0.021-0.041-0.042-0.062-0.063
	c-3.301-3.301-7.701-5.12-12.389-5.12c-1.964,0-3.872,0.337-5.676,0.951c-8.723-7.999-22.313-7.798-30.76,0.649L27.102,26.581
	c-4.193,4.193-6.502,9.782-6.502,15.74c0,5.633,2.086,10.922,5.855,15.026c-2.087,6.126-0.712,13.182,4.165,18.059
	c0.019,0.019,0.038,0.037,0.058,0.056c3.295,3.27,7.674,5.07,12.338,5.07c0.897,0,1.779-0.087,2.65-0.218
	c7.218,12.474,26.292,41.922,55.771,62.431c-3.014,0.333-6.067,0.52-9.129,0.52c-1.263,0-2.526-0.032-3.758-0.096
	c-13.423-0.688-24.736,9.635-25.423,22.927c-0.333,6.458,1.868,12.659,6.199,17.46c4.331,4.801,10.272,7.629,16.729,7.962
	c2.033,0.105,4.116,0.158,6.189,0.158c0.003,0,0.002,0,0.005,0c39.996,0,75.684-19.696,84.482-24.943l22.874,22.875
	c-3.223,4.033-5.943,8.483-8.06,13.257l-22.172-22.173c-2.929-2.929-7.677-2.93-10.607,0c-2.929,2.929-2.929,7.678,0,10.606
	l3.76,3.76c-0.835,2.108-1.632,4.243-2.337,6.41c-0.543,1.575-5.568,16.757-5.011,37.693c0.533,20.045,6.479,49.446,31.769,75.672
	c0.098,0.101,0.197,0.2,0.301,0.295l102.532,95.01c9.39,8.7,21.438,13.05,33.487,13.05c12.05,0,24.099-4.35,33.487-13.05
	l10.389-9.626l5.89,5.889v54.209c0,6.337,2.962,11.987,7.566,15.666c-4.604,3.678-7.566,9.328-7.566,15.666
	c0,11.06,8.998,20.058,20.058,20.058c11.061,0,20.059-8.998,20.059-20.058c0-6.337-2.962-11.987-7.566-15.666
	c4.603-3.678,7.565-9.327,7.566-15.664v-6.989c0.007-0.613,0.239-4.23,4.904-4.23c4.248,0,5.094,3.149,5.211,4.34v34.444
	c0,11.06,8.998,20.058,20.058,20.058c11.061,0,20.059-8.998,20.059-20.058v-26.032c0,0,3.419,0.607,4.53,0.607
	c0.001,0,0.001,0,0.001,0c4.783,0,9.266-2.148,12.298-5.893c3.019-3.728,4.176-8.563,3.176-13.263l-6.249-29.396
	c-0.008-0.039-0.022-0.076-0.031-0.114c-2.203-10.235-7.277-19.556-14.681-26.96l-29.49-29.49c-2.93-2.929-7.678-2.929-10.607,0
	s-2.929,7.678,0,10.606l29.491,29.491c3.749,3.749,6.65,8.186,8.614,13.044c-4.336,1.035-8.967,1.644-13.852,1.801
	C445.791,412.606,444.989,412.614,444.179,412.608z M223.859,171.333c-4.853,2.012-9.393,4.642-13.526,7.79l-22.707-22.708
	c1.412-2.305,4.225-7.11,7.504-13.812L223.859,171.333z M106.307,127.735l28.562-57.594c2.478,2.514,4.926,5.153,7.307,7.914
	l-27.508,55.467C111.785,131.695,108.998,129.755,106.307,127.735z M99.189,41.606c2.513,1.593,5.36,3.474,8.436,5.636
	l-27.551,55.555c-2.505-2.928-4.829-5.816-6.965-8.602L99.189,41.606z M63.279,80.256c-2.017-3.117-3.635-5.797-4.842-7.877
	l17.355-17.355L63.279,80.256z M119.796,56.462c1.196,0.976,2.403,1.981,3.617,3.021l-28.937,58.35
	c-1.182-1.095-2.342-2.199-3.474-3.31L119.796,56.462z M152.337,91.327c2.498,3.72,4.818,7.605,6.899,11.65
	c-3.551,10.601-7.887,19.247-10.479,23.98c-3.804,2.081-10.257,5.35-18.266,8.418L152.337,91.327z M37.708,37.188l20.084-20.083
	c1.359-1.359,3.182-2.108,5.132-2.108c0.974,0,1.917,0.187,2.785,0.543L36.143,45.105c-0.356-0.869-0.543-1.811-0.543-2.785
	C35.6,40.37,36.348,38.548,37.708,37.188z M41.204,64.777c-0.943-0.968-0.937-2.583,0.022-3.541l40.612-40.612
	c1.648-1.857,3.559-0.003,3.569,0.008c1.579,1.635,0.632,2.931-0.001,3.563l-40.61,40.612c-1.184,1.085-2.932,0.631-3.563,0
	C41.224,64.797,41.214,64.787,41.204,64.777z M174.555,149.038c-0.996,1.642-2.603,3.014-3.773,3.75
	c-0.019,0.012-0.086,0.054-0.104,0.066c-1.517,0.973-37.614,23.825-78.433,23.823c-1.817,0-3.64-0.047-5.418-0.139
	c-2.456-0.126-9.151-1.897-8.721-9.669c0.497-8.97,9.505-8.729,9.669-8.72c1.488,0.077,3.013,0.116,4.532,0.115
	c29.599-0.001,57.755-14.758,65.68-19.281c1.165-0.665,2.131-1.63,2.796-2.796c4.903-8.59,20.775-39.041,19.166-70.212
	c-0.262-5.07,3.65-9.408,8.721-9.669c5.108-0.279,9.407,3.661,9.669,8.721c2.06,39.886-19.33,76.782-23.639,83.773L174.555,149.038z
	 M389.84,379.483l29.466,29.466c-15.969-4.015-30.348-10.121-34.443-11.93l-6.708-6.708L389.84,379.483z M393.091,497.002
	c-2.741,0-5.058-2.316-5.058-5.058s2.316-5.058,5.058-5.058s5.059,2.316,5.059,5.058S395.833,497.002,393.091,497.002z
	 M464.165,425.318c0,0,7.265,19.952,3.748,22.437c-0.053,0.037-0.136-0.008-0.211-0.024l-10.261-2.182
	c-2.214-0.473-4.521,0.083-6.279,1.507c-1.759,1.424-2.78,3.566-2.78,5.829v35.294c0,2.742-2.316,5.058-5.059,5.058
	c-2.741,0-5.058-2.316-5.058-5.058v-34.673c-0.03-7.031-5.396-17.492-20.058-17.492c-14.567,0-19.976,10.428-20.058,17.524v7.075
	c0,2.741-2.316,5.057-5.058,5.057s-5.059-2.316-5.059-5.058v-46.038c13.835,5.401,38.615,13.664,59.031,12.998
	C453.051,427.38,458.774,426.624,464.165,425.318z"/>
<g>
</g>
<g>
</g>
<g>
</g>
<g>
</g>
<g>
</g>
<g>
</g>
<g>
</g>
<g>
</g>
<g>
</g>
<g>
</g>
<g>
</g>
<g>
</g>
<g>
</g>
<g>
</g>
<g>
</g>
</svg>
