<?xml version="1.0" encoding="iso-8859-1"?>
<!-- Generator: Adobe Illustrator 19.0.0, SVG Export Plug-In . SVG Version: 6.00 Build 0)  -->
<svg version="1.1" id="Layer_1" xmlns="http://www.w3.org/2000/svg" xmlns:xlink="http://www.w3.org/1999/xlink" x="0px" y="0px"
	 viewBox="0 0 511.996 511.996" style="enable-background:new 0 0 511.996 511.996;" xml:space="preserve">
<polygon style="fill:#434A54;" points="382.497,425.995 326.998,399.995 305.998,387.495 349.497,266.497 342.997,238.997 
	304.498,255.997 297.498,275.497 282.498,312.496 272.998,353.995 277.998,374.995 272.498,390.995 249.998,405.995 
	206.498,431.995 191.498,431.995 136.499,396.495 126.499,371.495 136.499,340.496 115.999,309.496 99.499,255.997 62.499,238.997 
	56.499,247.497 70.499,320.496 85.499,367.995 105.499,389.495 29.5,422.995 9,445.995 9,491.995 388.497,491.995 395.997,463.995 
	"/>
<polygon style="fill:#656D78;" points="334.67,194.654 298.67,125.311 276.67,105.311 255.998,97.311 216.67,87.311 184.67,87.311 
	128.015,101.982 100.671,132.654 75.343,179.981 64.671,233.326 176.014,289.324 202.014,294.668 244.67,286.668 322.67,241.997 
	339.342,233.326 "/>
<polygon style="fill:#ED5564;" points="445.996,109.998 302.67,479.323 339.342,489.323 503.324,93.998 "/>
<polygon style="fill:#F5F7FA;" points="302.67,267.997 223.998,300.996 211.248,304.746 180.248,302.996 155.748,283.746 
	100.999,264.247 121.499,312.496 137.749,350.745 126.249,381.995 156.248,412.245 208.248,433.495 278.498,387.745 
	276.248,360.745 278.998,324.496 "/>
<polygon style="fill:#FFCE54;" points="459.996,78.014 395.997,56.67 295.998,22.015 255.998,18.015 207.998,22.015 182.67,43.342 
	187.998,58.67 289.326,82.014 407.324,122.014 480.668,87.311 "/>
<path d="M383.388,411.59L511.996,91.107l-57.203-22.953l0,0l-76.265-30.609c-52.233-19.78-93.233-26.89-125.171-26.89
	c-81.046,0-103.765,45.718-103.765,45.718s18.468,1.719,80.499,20.594c-8.781-1.531-17.937-2.312-27.421-2.312
	c-56.312,0-100.562,27.172-127.952,78.562c-18.844,35.358-23.391,70.312-24.031,76.093c-2.047,8.719-14.688,73.03,33.297,157.045
	c-3.062,1.297-6.359,2.609-9.953,3.984c-9.766,3.719-17.188,9.375-39.125,15.266l-1.5,0.438C13.438,412.652,0,431.152,0,452.059
	v49.281h202.67h78.296h66.421h57.937v-49.281C405.324,435.479,396.856,420.401,383.388,411.59z M484.246,102.967L332.951,479.995
	h-20.438l147.076-366.497L484.246,102.967L484.246,102.967z M194.03,44.42c5.297-2.719,11.078-5.016,17.266-6.859
	c12.421-3.688,26.562-5.562,42.062-5.562c33.328,0,72.828,8.562,117.421,25.438l85.468,34.281l-51.734,22.109
	C321.984,83.671,255.109,61.405,205.64,47.593C201.483,46.435,197.623,45.373,194.03,44.42z M405.121,136.779l26.719-11.422
	L326.295,388.387c-1.719-0.688-3.375-1.359-4.953-2.016c46.249-80.921,36.108-143.67,33.483-155.904c0-0.125,0-0.25-0.016-0.375
	c-0.156-1.562-3.953-39-24.171-76.874c-16.219-30.438-38.359-52.344-65.406-65.188C300.904,99.592,346.716,115.326,405.121,136.779z
	 M259.904,329.371c-21.75,24.78-44.921,36.062-57.234,36.062c-12.328,0-35.5-11.281-57.25-36.062
	c-14.641-16.703-25.219-35.625-30.828-54.562c42.703,23.218,71.531,34.53,88.078,34.53c16.531,0,45.343-11.312,88.046-34.515
	C285.107,293.777,274.545,312.685,259.904,329.371z M138.983,372.87L138.983,372.87c0.328-0.656,0.578-1.203,0.766-1.641
	l1.766-3.953l0.031-4.5l0.047-6.75c20.39,19.016,43.078,30.75,61.078,30.75c17.984,0,40.671-11.734,61.062-30.75l0.047,6.75
	l0.031,4.531l1.781,3.938c0.188,0.438,0.438,1,0.75,1.625c1.109,2.125,2.625,4.578,5,7.312l-68.64,44.438l-68.703-44.438
	C136.358,377.448,137.89,374.995,138.983,372.87z M285.326,363.137c-0.078-0.172-0.141-0.328-0.219-0.5l-0.219-30.265
	c15.359-20.562,27.094-45.359,30.641-71.499c7.766-4.5,14.703-8.656,20.281-12.031c1.703,23-0.344,70.468-33.734,128.248
	C290.826,370.684,286.764,365.934,285.326,363.137z M93.546,163.247c23.781-44.624,60.5-67.249,109.125-67.249
	c48.406,0,85.031,22.438,108.859,66.702c13.719,25.484,19.219,51.406,21.141,63.078c-40.891,25.5-107.656,62.218-130,62.218
	c-22.359,0-89.093-36.733-129.952-62.218C74.609,214.216,79.999,188.686,93.546,163.247z M69.734,275.997
	c-0.938-11.031-0.766-20.25-0.25-27.219c5.578,3.375,12.516,7.531,20.297,12.062c3.562,26.155,15.281,50.952,30.656,71.53
	l-0.219,30.265c-0.078,0.172-0.141,0.328-0.219,0.5c-1.438,2.797-5.484,7.547-16.75,13.953
	C79.171,335.371,71.703,299.246,69.734,275.997z M202.67,479.995H21.328v-27.938c0-11.594,7.406-21.844,18.437-25.656l0.875-0.25
	c16.844-4.531,26.516-9.172,33.594-12.562c2.875-1.375,5.156-2.469,7.406-3.312c15.281-5.828,26.437-11.219,34.656-16.141
	l80.609,52.141c1.766,1.156,3.781,1.719,5.797,1.719s4.031-0.562,5.797-1.719l80.531-52.141c7.234,4.328,16.734,9.016,29.312,14.047
	l-28.812,71.812H202.67z M383.997,479.995h-28.062l19.219-47.891c5.516,5.031,8.844,12.203,8.844,19.953L383.997,479.995
	L383.997,479.995z"/>
<g>
</g>
<g>
</g>
<g>
</g>
<g>
</g>
<g>
</g>
<g>
</g>
<g>
</g>
<g>
</g>
<g>
</g>
<g>
</g>
<g>
</g>
<g>
</g>
<g>
</g>
<g>
</g>
<g>
</g>
</svg>
