<?xml version="1.0" encoding="iso-8859-1"?>
<!-- Generator: Adobe Illustrator 19.0.0, SVG Export Plug-In . SVG Version: 6.00 Build 0)  -->
<svg version="1.1" id="Layer_1" xmlns="http://www.w3.org/2000/svg" xmlns:xlink="http://www.w3.org/1999/xlink" x="0px" y="0px"
	 viewBox="0 0 511.997 511.997" style="enable-background:new 0 0 511.997 511.997;" xml:space="preserve">
<polygon style="fill:#ED5564;" points="370.65,134.031 336.339,94.203 293.651,62.875 262.659,55.547 216.488,55.547 
	180.269,74.438 146.332,110.969 127.988,145.203 130.66,212.218 135.004,241.218 156.003,283.89 189.332,323.218 216.488,343.545 
	265.659,346.889 292.651,339.546 329.245,301.78 368.65,247.53 371.994,191.531 "/>
<polygon style="fill:#DA4453;" points="439.993,393.029 365.994,366.029 342.994,344.529 339.495,290.53 295.995,330.53 
	265.487,344.029 221.487,343.529 185.988,320.53 163.488,300.53 156.488,339.53 89.489,387.029 43.989,399.529 16.489,420.029 
	16.489,502.029 484.993,502.029 484.993,419.529 "/>
<g>
	<polygon style="fill:#434A54;" points="226.487,312.03 248.487,365.029 278.495,308.03 	"/>
	<polygon style="fill:#434A54;" points="475.649,224.874 434.337,290.53 493.337,298.202 	"/>
</g>
<g>
	<path style="fill:#FFCE54;" d="M210.988,93.032l-38-23l-45-45v26.5l2.5,36c0,0,23,34.5,27,39s27.5,7.5,27.5,7.5l24-16l7.5-11.5
		L210.988,93.032z"/>
	<polygon style="fill:#FFCE54;" points="372.494,25.032 328.995,69.032 278.495,92.532 280.995,111.031 300.995,129.531 
		325.495,125.031 351.994,111.031 369.994,86.032 374.994,55.032 	"/>
</g>
<path d="M505.868,300.624l-17.625-84.312c-0.906-4.281-4.312-7.594-8.625-8.328c-4.281-0.75-8.625,1.203-10.906,4.922
	l-45.313,73.952c-1.844,3.016-2.094,6.734-0.625,9.969c1.469,3.219,4.406,5.516,7.906,6.109l21.812,3.781
	c-0.812,5.031-2.406,11.906-5.5,19.562c-7.312,18.124-19.594,32.624-36.562,43.218c-1.625-0.75-3.281-1.438-4.969-2.094
	c-41.78-15.922-52.655-27.405-55.437-32.812c-0.125-0.203-0.188-0.406-0.281-0.609l-0.25-36.516
	c22.344-29.937,38.344-67.281,38.344-105.984c0-30.516-7.188-57.484-19.688-79.765c10.406-14.156,17.062-31.953,19.625-52.875
	c3.281-26.844-1.312-49.406-1.531-50.343c-0.906-4.484-4.594-7.859-9.125-8.422c-4.531-0.547-8.938,1.859-10.906,5.953
	c-0.25,0.469-17.312,35.312-45.999,56.031c-20.5-12.25-44.406-18.906-69.945-18.906c-25.531,0-49.437,6.656-69.921,18.906
	c-28.687-20.719-45.765-55.562-46-56c-1.969-4.125-6.359-6.531-10.891-5.984c-4.547,0.547-8.234,3.922-9.156,8.422
	c-0.203,0.938-4.797,23.5-1.516,50.343c2.562,20.922,9.219,38.718,19.609,52.859c-12.484,22.297-19.672,49.265-19.672,79.781
	c0,38.703,15.969,76.047,38.344,105.984l-0.266,36.516c-0.094,0.203-0.172,0.406-0.266,0.609
	c-2.781,5.406-13.656,16.89-55.453,32.812c-11.781,4.5-20.734,11.312-47.203,18.422l-1.828,0.531
	c-24.093,7.953-40.296,30.297-40.296,55.516v70.125h244.516h244.537v-70.125c0-25.219-16.219-47.562-40.312-55.516l-1.812-0.531
	c-7.938-2.125-14.281-4.234-19.625-6.266c18.75-15.031,28.781-32.734,34.125-46.28c3.469-8.812,5.312-16.812,6.344-22.906
	l20.188,3.5c0.625,0.125,1.219,0.156,1.844,0.156c0.031,0,0.062,0,0.125,0c5.844-0.047,10.562-4.812,10.562-10.656
	C506.243,302.437,506.118,301.499,505.868,300.624z M317.401,88.688c0.312,0.906,0.688,1.844,1.094,2.812
	c3,6.812,8.594,15.031,19.031,21.125c-2.875,2.156-5.969,4.125-9.375,5.906c-4.125,2.125-8.188,3.203-12.156,3.203
	c-10.594,0-18.719-7.703-22.469-14.281c-3.031-5.328-2.906-9.109-2.5-9.953c0.125-0.062,0.469-0.219,1.094-0.328
	C301.151,95.594,309.589,92.594,317.401,88.688z M367.494,44.157c-0.562,16.219-3.906,35.969-14.688,52.218
	c-6.875-2.75-11.718-7-14.437-12.75c-1.188-2.5-1.812-4.938-2.125-6.906C349.057,66.782,359.557,54.844,367.494,44.157z
	 M182.035,91.5c0.422-0.969,0.797-1.906,1.125-2.812c7.812,3.906,16.234,6.906,25.266,8.484c0.625,0.109,0.969,0.266,1.109,0.328
	c0.391,0.844,0.516,4.625-2.516,9.953c-3.75,6.578-11.875,14.281-22.469,14.281c-3.953,0-8.047-1.078-12.141-3.203
	c-3.344-1.75-6.484-3.703-9.406-5.875C173.457,106.547,179.05,98.312,182.035,91.5z M164.316,76.719
	c-0.312,1.969-0.938,4.406-2.141,6.906c-2.734,5.766-7.609,10.031-14.5,12.781c-7.078-10.625-11.641-23.875-13.641-39.609
	c-0.562-4.359-0.859-8.609-1-12.641C140.988,54.844,151.473,66.766,164.316,76.719z M143.441,138.25
	c1.359-3.531,2.859-6.969,4.5-10.281c4.5,3.594,9.375,6.766,14.64,9.5c7.172,3.719,14.562,5.594,21.969,5.594l0,0
	c11.859,0,23.359-4.922,32.406-13.875c7.953-7.844,13.171-18.156,14-27.594c1.141-13.25-6.25-23.234-18.859-25.437
	c-2.906-0.5-5.734-1.219-8.5-2.094c14.343-6.281,30.156-9.594,46.671-9.594c16.531,0,32.352,3.312,46.695,9.594
	c-2.781,0.875-5.625,1.594-8.5,2.094c-12.625,2.203-20.023,12.188-18.867,25.437c0.812,9.422,6.055,19.75,13.992,27.594
	c9.031,8.953,20.562,13.875,32.406,13.875c7.406,0,14.812-1.875,21.969-5.594c5.249-2.734,10.155-5.906,14.655-9.5
	c1.625,3.312,3.125,6.75,4.5,10.281c6.219,16.203,9.375,34.125,9.375,53.234c0,35.14-15.969,73.5-43.843,105.265
	c-11.969,13.641-25.375,25.094-38.75,33.219l7.906-15.875c1.656-3.312,1.469-7.219-0.469-10.375
	c-1.938-3.141-5.375-5.062-9.062-5.062h-64.006c-3.687,0-7.125,1.922-9.062,5.062c-1.953,3.156-2.125,7.062-0.469,10.375
	l7.922,15.875c-13.406-8.125-26.781-19.578-38.75-33.219c-27.875-31.765-43.859-70.125-43.859-105.265
	C134.051,172.375,137.207,154.469,143.441,138.25z M235.534,319.999h29.484l-14.75,29.468L235.534,319.999z M448.149,406.717
	c15.156,5.188,25.312,19.266,25.312,35.156v48.781H250.269H27.083v-48.781c0-15.891,10.171-29.969,25.328-35.156l1.203-0.344
	c19.938-5.375,30.953-10.641,39.796-14.875c3.438-1.641,6.391-3.062,9.266-4.156c23.891-9.094,56.812-23.469,66.828-43
	c0.391-0.75,0.672-1.391,0.812-1.75l1.781-3.952l0.031-4.5l0.094-12.328c19.188,18.969,40.422,32.64,59.546,38.343l8.969,17.938
	c1.797,3.625,5.5,5.906,9.531,5.906c4.047,0,7.734-2.281,9.547-5.906l8.969-17.938c19.117-5.703,40.367-19.374,59.555-38.343
	l0.062,12.328l0.062,4.516l1.75,3.937c0.156,0.344,0.438,1,0.812,1.734c10.031,19.547,42.968,33.922,66.874,43.016
	c2.844,1.094,5.812,2.516,9.218,4.156c8.875,4.234,19.875,9.5,39.812,14.875L448.149,406.717z M449.806,284.608l23.062-37.641
	l9.031,43.219L449.806,284.608z"/>
<g>
</g>
<g>
</g>
<g>
</g>
<g>
</g>
<g>
</g>
<g>
</g>
<g>
</g>
<g>
</g>
<g>
</g>
<g>
</g>
<g>
</g>
<g>
</g>
<g>
</g>
<g>
</g>
<g>
</g>
</svg>
