<svg height="479pt" viewBox="-63 0 479 479.98591" width="479pt" xmlns="http://www.w3.org/2000/svg"><g fill="#d3843d"><path d="m208.492188 404c0 37.550781-32 68-32 68s-32-30.449219-32-68 32-76 32-76 32 38.449219 32 76zm0 0"/><path d="m72.492188 352c0 48.601562-32 88-32 88s-32-39.398438-32-88 32-88 32-88 32 39.398438 32 88zm0 0"/><path d="m344.492188 352c0 48.601562-32 88-32 88s-32-39.398438-32-88 32-88 32-88 32 39.398438 32 88zm0 0"/></g><path d="m176.492188 384c-4.417969 0-8-3.582031-8-8v-96c0-4.417969 3.582031-8 8-8 4.417968 0 8 3.582031 8 8v96c0 4.417969-3.582032 8-8 8zm0 0" fill="#dd3e46"/><path d="m176.492188 408-22.855469 32c5.894531 11.796875 13.609375 22.597656 22.855469 32 9.25-9.402344 16.960937-20.203125 22.855468-32zm0 0" fill="#66342e"/><path d="m40.492188 320c-4.417969 0-8-3.582031-8-8v-168c0-4.417969 3.582031-8 8-8 4.417968 0 8 3.582031 8 8v168c0 4.417969-3.582032 8-8 8zm0 0" fill="#dd3e46"/><path d="m17.71875 398.777344c5.601562 14.75 13.269531 28.628906 22.773438 41.222656 9.507812-12.59375 17.175781-26.472656 22.777343-41.222656l-22.777343-22.777344zm0 0" fill="#66342e"/><path d="m312.492188 320c-4.417969 0-8-3.582031-8-8v-168c0-4.417969 3.582031-8 8-8 4.417968 0 8 3.582031 8 8v168c0 4.417969-3.582032 8-8 8zm0 0" fill="#dd3e46"/><path d="m289.71875 398.777344c5.601562 14.75 13.269531 28.628906 22.773438 41.222656 9.507812-12.59375 17.175781-26.472656 22.777343-41.222656l-22.777343-22.777344zm0 0" fill="#66342e"/><path d="m74.664062 53.488281 11.316407-11.3125c6.246093-6.25 16.378906-6.25 22.625 0l169.707031 169.703125c6.25 6.25 6.25 16.378906 0 22.628906l-11.3125 11.3125c-6.25 6.25-16.378906 6.25-22.628906 0l-169.707032-169.703124c-6.246093-6.25-6.246093-16.378907 0-22.628907zm0 0" fill="#e97424"/><path d="m85.980469 245.828125-11.3125-11.316406c-6.25-6.246094-6.25-16.378907 0-22.625l169.703125-169.707031c6.25-6.246094 16.382812-6.246094 22.628906 0l11.3125 11.3125c6.25 6.25 6.25 16.378906 0 22.628906l-169.703125 169.707031c-6.25 6.246094-16.378906 6.246094-22.628906 0zm0 0" fill="#e97424"/><path d="m176.492188 8c-75.109376 0-136 60.890625-136 136s60.890624 136 136 136c75.113281 0 136-60.890625 136-136s-60.886719-136-136-136zm0 240c-57.4375 0-104-46.5625-104-104s46.5625-104 104-104 104 46.5625 104 104-46.5625 104-104 104zm0 0" fill="#ffd782"/><path d="m200.492188 144c0 13.253906-10.746094 24-24 24-13.253907 0-24-10.746094-24-24s10.746093-24 24-24c13.253906 0 24 10.746094 24 24zm0 0" fill="#ffd782"/><path d="m176.492188 32c-61.855469 0-112 50.144531-112 112s50.144531 112 112 112c61.855468 0 112-50.144531 112-112-.066407-61.828125-50.171876-111.933594-112-112zm78.160156 56.464844-47.351563 47.359375c-2.945312-11.050781-11.574219-19.683594-22.625-22.632813l47.351563-47.351562c8.746094 6.234375 16.390625 13.878906 22.625 22.625zm-78.160156 39.535156c8.835937 0 16 7.164062 16 16s-7.164063 16-16 16c-8.835938 0-16-7.164062-16-16s7.164062-16 16-16zm41.289062-70.535156-41.289062 41.277344-41.277344-41.277344c26.074218-12.621094 56.488281-12.621094 82.566406 0zm-96.800781 8.375 44.222656 44.222656-22.621094 22.625-44.25-44.222656c6.234375-8.746094 13.878907-16.390625 22.625-22.625zm-31 36.871094 41.265625 41.289062-41.289063 41.28125c-12.617187-26.078125-12.617187-56.492188 0-82.570312zm8.367187 96.800781 47.359375-47.351563c2.953125 11.046875 11.585938 19.675782 22.632813 22.625l-47.359375 47.351563c-8.75-6.226563-16.40625-13.863281-22.65625-22.601563zm36.890625 31 41.253907-41.253907 41.28125 41.277344c-26.074219 12.621094-56.488282 12.621094-82.558594 0zm96.796875-8.375-44.222656-44.214844 22.625-22.632813 44.230469 44.222657c-6.238281 8.753906-13.886719 16.40625-22.640625 22.648437zm31-36.878907-41.285156-41.257812 41.277344-41.28125c12.621094 26.074219 12.621094 56.488281 0 82.5625zm0 0"/><path d="m320.492188 261.28125v-117.28125c0-79.527344-64.46875-144-144-144-79.527344 0-144 64.472656-144 144v117.28125c-19.589844 26.308594-30.746094 57.941406-32 90.71875 0 50.855469 32.417968 91.34375 33.792968 93.039062 1.519532 1.871094 3.800782 2.953126 6.207032 2.953126 2.410156 0 4.691406-1.082032 6.207031-2.953126 1.378906-1.695312 33.792969-42.183593 33.792969-93.039062-1.25-32.777344-12.410157-64.410156-32-90.71875v-51.609375c23.355468 45.414063 69.015624 75.0625 120 77.921875v37.597656c-7.144532 9.207032-32 43.800782-32 78.792969 0 40.519531 33.082031 72.457031 34.488281 73.800781 3.089843 2.933594 7.9375 2.933594 11.023437 0 1.410156-1.328125 34.488282-33.265625 34.488282-73.785156 0-34.992188-24.855469-69.601562-32-78.792969v-37.597656c50.988281-2.859375 96.648437-32.507813 120-77.921875v51.59375c-19.589844 26.308594-30.746094 57.941406-32 90.71875 0 50.855469 32.417968 91.34375 33.792968 93.039062 1.519532 1.871094 3.800782 2.953126 6.207032 2.953126 2.410156 0 4.691406-1.082032 6.207031-2.953126 1.378906-1.695312 33.792969-42.183593 33.792969-93.039062-1.25-32.777344-12.410157-64.410156-32-90.71875zm-280 164.796875c-5.144532-8.089844-9.605469-16.601563-13.328126-25.4375l13.328126-13.328125 13.335937 13.328125c-3.722656 8.839844-8.183594 17.355469-13.335937 25.449219zm24-74.078125c-.09375 10.8125-1.695313 21.558594-4.75 31.929688l-13.601563-13.601563c-3.171875-3-8.136719-3-11.3125 0l-13.597656 13.601563c-3.050781-10.375-4.644531-21.117188-4.738281-31.929688.539062-21.03125 6.019531-41.640625 16-60.160156v20.160156c0 4.417969 3.582031 8 8 8 4.417968 0 8-3.582031 8-8v-20.160156c9.980468 18.519531 15.460937 39.128906 16 60.160156zm112 108.167969c-5.105469-6.074219-9.609376-12.628907-13.457032-19.566407l13.457032-18.832031 13.457031 18.832031c-3.84375 6.941407-8.351563 13.492188-13.457031 19.566407zm24-56.167969c-.070313 6.597656-1.132813 13.148438-3.152344 19.433594l-14.34375-20.082032c-1.5-2.097656-3.921875-3.339843-6.503906-3.339843-2.578126 0-5 1.242187-6.503907 3.339843l-14.34375 20.074219c-2.015625-6.28125-3.078125-12.828125-3.152343-19.425781 1.078124-17.707031 6.578124-34.863281 16-49.894531v21.894531c0 4.417969 3.582031 8 8 8 4.417968 0 8-3.582031 8-8v-21.9375c9.433593 15.042969 14.933593 32.214844 16 49.9375zm-24-132c-70.691407 0-128-57.308594-128-128s57.308593-128 128-128c70.691406 0 128 57.308594 128 128-.082032 70.65625-57.339844 127.917969-128 128zm128 19.839844v20.160156c0 4.417969 3.582031 8 8 8 4.417968 0 8-3.582031 8-8v-20.160156c9.980468 18.519531 15.460937 39.128906 16 60.160156-.09375 10.8125-1.695313 21.5625-4.75 31.9375l-13.601563-13.601562c-3.125-3.121094-8.1875-3.121094-11.3125 0l-13.597656 13.601562c-3.054688-10.375-4.648438-21.125-4.738281-31.9375.539062-21.03125 6.019531-41.640625 16-60.160156zm8 134.25c-5.148438-8.097656-9.605469-16.609375-13.328126-25.449219l13.328126-13.328125 13.328124 13.335938c-3.722656 8.835937-8.179687 17.347656-13.328124 25.441406zm0 0"/></svg>