<svg height="512pt" viewBox="0 -26 512.10507 512" width="512pt" xmlns="http://www.w3.org/2000/svg"><path d="m494.015625 174.644531c-1.472656 2.875-4.453125 4.664063-7.679687 4.609375h-460.460938c-3.480469.054688-6.648438-2.011718-8-5.222656s-.617188-6.917969 1.855469-9.371094l143.019531-141.054687c9.765625-9.65625 22.957031-15.058594 36.695312-15.019531h120.488282c11.714844.003906 23.085937 3.972656 32.257812 11.265624 1.910156 1.421876 3.707032 2.992188 5.375 4.691407l11.007813 11.433593 26.539062 27.5625 19.796875 20.566407 77.738282 80.726562c2.550781 2.621094 3.101562 6.59375 1.367187 9.8125zm0 0" fill="#795548"/><path d="m486.335938 179.253906h-307.03125l145.324218-152.492187 5.546875-5.800781c4.050781-3.3125 8.910157-5.492188 14.078125-6.316407 4.957032 2.539063 9.457032 5.882813 13.3125 9.898438l135.082032 140.289062c2.375 2.488281 3.023437 6.160157 1.640624 9.3125-1.378906 3.148438-4.515624 5.164063-7.953124 5.109375zm0 0" fill="#4e342e"/><path d="m469.4375 179.253906h-290.132812l145.324218-152.492187c2.617188 1.894531 5.074219 4.007812 7.335938 6.316406l135.085937 140.285156c1.523438 1.582031 2.378907 3.691407 2.386719 5.890625zm0 0" fill="#795548"/><path d="m469.4375 179.253906v264.53125c0 4.714844-3.820312 8.535156-8.53125 8.535156h-247.46875v-273.066406zm0 0" fill="#795548"/><path d="m443.839844 179.253906v264.53125c0 4.714844-3.820313 8.535156-8.535156 8.535156h-221.867188v-273.066406zm0 0" fill="#bfa885"/><path d="m213.4375 179.253906v273.066406h-162.132812c-4.710938 0-8.53125-3.820312-8.53125-8.535156v-264.53125zm0 0" fill="#bfa885"/><path d="m187.839844 179.253906v273.066406h-136.535156c-4.710938 0-8.53125-3.820312-8.53125-8.535156v-264.53125zm0 0" fill="#ffecb3"/><path d="m392.636719 324.320312v128h-102.398438v-128c.035157-23.316406 15.824219-43.664062 38.398438-49.492187 4.175781-1.136719 8.476562-1.710937 12.800781-1.707031 28.277344 0 51.199219 22.921875 51.199219 51.199218zm0 0" fill="#4e342e"/><path d="m367.039062 324.320312v128h-76.800781v-128c.035157-23.316406 15.824219-43.664062 38.398438-49.492187 22.578125 5.828125 38.363281 26.175781 38.402343 49.492187zm0 0" fill="#795548"/><path d="m111.039062 264.585938h34.132813c14.136719 0 25.601563 11.460937 25.601563 25.601562v42.664062c0 14.140626-11.464844 25.601563-25.601563 25.601563h-34.132813c-14.140624 0-25.601562-11.460937-25.601562-25.601563v-42.664062c0-14.140625 11.460938-25.601562 25.601562-25.601562zm0 0" fill="#0377bc"/><path d="m111.039062 264.585938h8.53125c14.140626 0 25.601563 11.460937 25.601563 25.601562v42.664062c0 14.140626-11.460937 25.601563-25.601563 25.601563h-8.53125c-14.140624 0-25.601562-11.460937-25.601562-25.601563v-42.664062c0-14.140625 11.460938-25.601562 25.601562-25.601562zm0 0" fill="#00bcd4"/><path d="m482.972656 187.785156 14.566406 14.566406c3.347657 3.234376 8.671876 3.1875 11.960938-.101562 3.292969-3.292969 3.339844-8.617188.105469-11.964844l-9.5-9.503906c5.226562-6.546875 4.65625-15.980469-1.3125-21.855469l-91.460938-95-43.628906-45.3125c-11.480469-11.851562-27.269531-18.5468748-43.769531-18.5585935h-120.53125c-15.972656-.0546875-31.3125 6.2187505-42.667969 17.4492185l-142.976563 141.105469c-4.925781 4.828125-6.433593 12.164063-3.8125 18.542969.570313 1.300781 1.300782 2.523437 2.175782 3.644531l-9.515625 9.488281c-2.21875 2.144532-3.109375 5.316406-2.328125 8.300782.78125 2.984374 3.113281 5.3125 6.09375 6.09375 2.984375.78125 6.15625-.109376 8.300781-2.328126l14.566406-14.566406h5v256h-25.601562c-4.710938 0-8.53125 3.820313-8.53125 8.535156 0 4.710938 3.820312 8.53125 8.53125 8.53125h494.933593c4.714844 0 8.535157-3.820312 8.535157-8.53125 0-4.714843-3.820313-8.535156-8.535157-8.535156h-25.597656v-256zm-13.535156-17.066406h-270.207031l61.390625-64.390625-12.570313 35.976563c-1.554687 4.449218.789063 9.316406 5.238281 10.871093 4.449219 1.554688 9.316407-.792969 10.871094-5.242187l24.996094-71.542969 22.757812-23.890625-13.058593 91.390625c-.429688 3.019531.777343 6.039063 3.175781 7.921875s5.617188 2.347656 8.449219 1.210938c2.828125-1.132813 4.839843-3.691407 5.273437-6.710938l16.441406-115.070312 4.175782-4.378907c1.355468-1.570312 3.351562-2.441406 5.425781-2.363281 2.0625.050781 4.011719.960938 5.375 2.507812.429687.398438.902344.75 1.410156 1.042969.613281.539063 1.289063 1.007813 1.867188 1.578125l16.675781 116.703125c.433594 3.015625 2.441406 5.574219 5.273438 6.710938 2.828124 1.132812 6.050781.671875 8.445312-1.214844 2.398438-1.882813 3.609375-4.902344 3.175781-7.921875l-13.347656-93.4375 22.820313 23.738281 25.179687 73.667969c1.183594 3.464844 4.441406 5.789062 8.101563 5.777344.9375 0 1.867187-.152344 2.753906-.460938 4.457031-1.523437 6.835937-6.371094 5.316406-10.828125l-13.355469-39.058593 64.855469 67.414062zm-300.730469-141.0625c8.171875-8.074219 19.207031-12.578125 30.695313-12.535156h2.695312l-26.847656 28.253906c-3.246094 3.414062-3.109375 8.816406.308594 12.066406 3.417968 3.246094 8.820312 3.109375 12.066406-.308594l38.007812-40.011718h36.199219l-36.976562 38.917968c-2.171875 2.195313-2.984375 5.394532-2.132813 8.363282.855469 2.96875 3.246094 5.242187 6.253906 5.945312 3.007813.707032 6.160157-.269531 8.246094-2.546875l48.144532-50.679687h34.566406c.667968 0 1.296875.167968 1.953125.195312l-46.503907 48.785156-99.730468 104.617188h-95.941406l26.847656-28.253906c2.101562-2.210938 2.863281-5.371094 2-8.296875-.867188-2.925781-3.222656-5.164063-6.1875-5.878907-2.964844-.714843-6.085938.207032-8.1875 2.417969l-38.007813 40.011719h-30.386719zm-117.402343 158.128906h35.261718l-8.226562 12.332032c-1.691406 2.535156-1.902344 5.78125-.554688 8.515624 1.351563 2.734376 4.058594 4.539063 7.101563 4.738282 3.042969.195312 5.960937-1.246094 7.652343-3.78125l14.53125-21.804688h13.652344l-8.226562 12.332032c-1.691406 2.535156-1.902344 5.78125-.550782 8.515624 1.351563 2.734376 4.058594 4.539063 7.101563 4.738282 3.042969.195312 5.957031-1.246094 7.648437-3.78125l14.507813-21.804688h13.652344l-8.222657 12.332032c-2.617187 3.921874-1.558593 9.21875 2.363282 11.835937 3.917968 2.613281 9.21875 1.558594 11.835937-2.363281l14.503907-21.804688h29.570312v256h-153.601562zm247.46875 256v-119.464844c0-23.566406 19.101562-42.667968 42.664062-42.667968 23.566406 0 42.667969 19.101562 42.667969 42.667968v119.464844zm162.132812 0h-59.734375v-119.464844c0-32.992187-26.742187-59.734374-59.734375-59.734374-32.988281 0-59.734375 26.742187-59.734375 59.734374v119.464844h-59.730469v-256h25.597656v17.066406c0 4.714844 3.820313 8.535157 8.535157 8.535157 4.710937 0 8.53125-3.820313 8.53125-8.535157v-17.066406h17.066406v17.066406c0 4.714844 3.824219 8.535157 8.535156 8.535157 4.714844 0 8.535157-3.820313 8.535157-8.535157v-17.066406h17.066406v17.066406c0 4.714844 3.820312 8.535157 8.53125 8.535157 4.714844 0 8.535156-3.820313 8.535156-8.535157v-17.066406h17.066406v17.066406c0 4.714844 3.820313 8.535157 8.53125 8.535157 4.714844 0 8.535156-3.820313 8.535156-8.535157v-17.066406h17.066407v17.066406c0 4.714844 3.820312 8.535157 8.53125 8.535157 4.714843 0 8.535156-3.820313 8.535156-8.535157v-17.066406h17.066406v17.066406c0 4.714844 3.820313 8.535157 8.535157 8.535157 4.710937 0 8.53125-3.820313 8.53125-8.535157v-17.066406h25.601562zm0 0"/><path d="m144.097656 153.441406c3.414063 3.242188 8.8125 3.101563 12.054688-.308594l50.671875-53.332031c2.101562-2.210937 2.863281-5.375 2-8.300781-.863281-2.921875-3.222657-5.164062-6.1875-5.878906-2.964844-.714844-6.085938.207031-8.183594 2.417968l-50.664063 53.335938c-1.558593 1.640625-2.402343 3.832031-2.347656 6.09375.058594 2.265625 1.015625 4.410156 2.65625 5.972656zm0 0"/><path d="m130.765625 113.121094c2.339844 0 4.578125-.960938 6.1875-2.65625l20.269531-21.332032c2.167969-2.195312 2.984375-5.394531 2.128906-8.363281-.851562-2.964843-3.246093-5.242187-6.25-5.945312-3.007812-.703125-6.160156.269531-8.246093 2.550781l-20.265625 21.332031c-2.351563 2.472657-3.003906 6.105469-1.660156 9.242188 1.34375 3.132812 4.425781 5.167969 7.835937 5.171875zm0 0"/><path d="m145.171875 256.054688h-34.132813c-18.851562 0-34.132812 15.28125-34.132812 34.132812v42.664062c0 18.851563 15.28125 34.132813 34.132812 34.132813h34.132813c18.851563 0 34.132813-15.28125 34.132813-34.132813v-42.664062c0-18.851562-15.28125-34.132812-34.132813-34.132812zm17.066406 76.796874c0 9.425782-7.640625 17.066407-17.066406 17.066407h-34.132813c-9.425781 0-17.066406-7.640625-17.066406-17.066407v-42.664062c0-9.425781 7.640625-17.066406 17.066406-17.066406h34.132813c9.425781 0 17.066406 7.640625 17.066406 17.066406zm0 0"/></svg>