<?xml version="1.0" encoding="iso-8859-1"?>
<!-- Generator: Adobe Illustrator 19.0.0, SVG Export Plug-In . SVG Version: 6.00 Build 0)  -->
<svg version="1.1" id="Capa_1" xmlns="http://www.w3.org/2000/svg" xmlns:xlink="http://www.w3.org/1999/xlink" x="0px" y="0px"
	 viewBox="0 0 512.001 512.001" style="enable-background:new 0 0 512.001 512.001;" xml:space="preserve">
<path style="fill:#FFC342;" d="M473.589,136.161l-4.242-4.242c23.443-23.443,23.443-61.455,0-84.898s-61.455-23.443-84.898,0
	l-4.242-4.242c-33.239-33.239-87.21-38.732-123.52-8.875c-41.654,34.249-43.875,96.185-6.664,133.396l21.222,21.222L151.516,307.829
	l-56.602-56.592c-0.162,0.162-77.833,77.823-84.908,84.898l56.602,56.602l-42.444,42.444c-7.814,7.814-7.814,20.492,0,28.306
	l28.296,28.296c7.814,7.814,20.482,7.814,28.306,0l247.08-246.66l21.222,21.222c37.211,37.211,99.146,34.99,133.396-6.664
	C512.321,223.371,506.828,169.4,473.589,136.161z M441.05,103.623c-7.814,7.814-20.492,7.814-28.306,0s-7.814-20.492,0-28.306
	s20.492-7.814,28.306,0C448.865,83.131,448.865,95.808,441.05,103.623z"/>
<path d="M445.193,174.373c0,5.523,4.483,10.006,10.006,10.006c5.523,0,10.006-4.483,10.006-10.006
	c0-5.523-4.483-10.006-10.006-10.006C449.675,164.367,445.193,168.85,445.193,174.373z"/>
<path d="M341.994,51.163c-5.523,0-10.006,4.483-10.006,10.006s4.483,10.006,10.006,10.006c5.523,0,10.006-4.483,10.006-10.006
	S347.517,51.163,341.994,51.163z"/>
<path d="M179.812,326.129c-5.523,0-10.006,4.483-10.006,10.006c0,5.523,4.483,10.006,10.006,10.006
	c5.523,0,10.006-4.483,10.006-10.006C189.818,330.612,185.335,326.129,179.812,326.129z"/>
<path d="M300.249,45.361c-11.245,2.513-21.468,8.175-29.558,16.369c-23.292,23.567-23.06,61.606,0.513,84.9
	c3.926,3.881,10.264,3.851,14.15-0.083c3.885-3.931,3.847-10.266-0.083-14.15c-15.704-15.52-15.868-40.895-0.343-56.604
	c5.39-5.459,12.196-9.229,19.685-10.902c5.393-1.205,8.788-6.554,7.583-11.947C310.991,47.551,305.64,44.154,300.249,45.361z"/>
<path d="M451.981,211.572c-1.676,7.15-5.294,13.694-10.464,18.926c-15.499,15.691-40.891,15.867-56.598,0.345
	c-3.93-3.885-10.267-3.85-14.15,0.083c-3.885,3.931-3.847,10.266,0.083,14.15c23.548,23.272,61.609,23.066,84.901-0.513
	c7.76-7.854,13.195-17.683,15.712-28.423c1.262-5.38-2.078-10.764-7.458-12.026C458.628,202.852,453.242,206.192,451.981,211.572z"
	/>
<path d="M448.125,110.699c11.728-11.73,11.734-30.724,0-42.456c-11.729-11.731-30.723-11.733-42.457-0.001
	c-11.704,11.705-11.705,30.749,0.001,42.457C417.377,122.403,436.42,122.402,448.125,110.699z M419.819,82.392
	c3.908-3.908,10.244-3.912,14.156,0c3.908,3.908,3.909,10.245-0.001,14.155c-3.901,3.903-10.252,3.902-14.155,0.001
	C415.917,92.645,415.917,86.295,419.819,82.392z"/>
<path d="M482.963,131.456c20.555-27.414,18.376-66.594-6.541-91.511c-24.918-24.917-64.096-27.097-91.511-6.541
	c-17.645-16.59-40.423-26.748-64.507-28.698c-25.812-2.089-50.696,5.534-70.074,21.468C203.113,65,202.475,133.901,242.947,174.374
	l14.141,14.141L151.629,293.794l-49.641-49.632c-3.906-3.907-10.24-3.907-14.148-0.001C23.071,308.921,42.915,289.079,2.93,329.06
	c-3.907,3.907-3.907,10.243,0,14.151l49.557,49.557l-35.398,35.338c-11.73,11.73-11.733,30.723,0,42.457l28.296,28.294
	c11.699,11.701,30.741,11.701,42.45,0.007l240.006-239.597l14.153,14.154c40.478,40.478,109.376,39.829,148.2-7.384
	c15.933-19.377,23.556-44.263,21.467-70.074C509.711,171.879,499.555,149.102,482.963,131.456z M38.311,321.98l21.22,21.228
	c3.904,3.907,10.241,3.911,14.15,0.003c3.908-3.906,3.909-10.242,0.002-14.15L52.46,307.83l14.15-14.148l21.229,21.222
	c3.907,3.906,10.243,3.906,14.15-0.002s3.905-10.244-0.002-14.151l-21.226-21.218l14.151-14.149l42.452,42.445l-70.756,70.758
	l-42.452-42.452L38.311,321.98z M474.736,253.326c-31.003,37.706-86.117,38.419-118.591,5.943l-21.222-21.222
	c-3.905-3.904-10.235-3.906-14.145-0.006L73.695,484.703c-3.907,3.902-10.259,3.905-14.16,0.004l-28.296-28.295
	c-3.866-3.866-3.947-10.208-0.006-14.15l247.08-246.661c3.911-3.905,3.914-10.246,0.006-14.156l-21.222-21.222
	c-32.44-32.44-31.792-87.564,5.943-118.592c14.028-11.534,31.456-17.183,49.162-17.183c21.86,0,44.14,8.617,60.929,25.405
	l4.24,4.241c1.877,1.877,4.422,2.932,7.075,2.932c0.001,0,0.001,0,0.001,0c2.654,0,5.198-1.055,7.075-2.931
	c19.504-19.503,51.244-19.505,70.748,0c19.505,19.505,19.505,51.243,0,70.748c-1.876,1.877-2.931,4.423-2.931,7.076
	s1.055,5.198,2.932,7.075l4.241,4.24C496.899,173.622,500.511,221.98,474.736,253.326z"/>
<path d="M144.441,357.356l-56.602,56.601c-3.907,3.907-3.908,10.243,0,14.151c3.908,3.907,10.243,3.907,14.15,0l56.602-56.601
	c3.907-3.907,3.908-10.243,0-14.151C154.684,353.451,148.349,353.45,144.441,357.356z"/>
<g>
</g>
<g>
</g>
<g>
</g>
<g>
</g>
<g>
</g>
<g>
</g>
<g>
</g>
<g>
</g>
<g>
</g>
<g>
</g>
<g>
</g>
<g>
</g>
<g>
</g>
<g>
</g>
<g>
</g>
</svg>
