<?xml version="1.0" encoding="iso-8859-1"?>
<!-- Generator: Adobe Illustrator 19.0.0, SVG Export Plug-In . SVG Version: 6.00 Build 0)  -->
<svg version="1.1" id="Layer_1" xmlns="http://www.w3.org/2000/svg" xmlns:xlink="http://www.w3.org/1999/xlink" x="0px" y="0px"
	 viewBox="0 0 511.999 511.999" style="enable-background:new 0 0 511.999 511.999;" xml:space="preserve">
<path style="fill:#BDAA81;" d="M161.998,256.086l-57.974-6.044c-29.32-3.056-55.567,18.218-58.625,47.517l-5.629,53.924l0,0
	c-19.57-2.04-33.778-19.547-31.738-39.103l3.279-31.413c3.988-38.207,38.215-65.948,76.448-61.962l48.223,5.027
	C152.023,225.704,163.671,240.055,161.998,256.086L161.998,256.086z"/>
<path style="fill:#948565;" d="M25.894,326.081l3.279-31.413c3.988-38.207,38.215-65.948,76.448-61.962l48.223,5.027
	c1.521,0.159,3.002,0.433,4.437,0.81c-4.514-7.849-12.599-13.5-22.299-14.51l-48.223-5.027
	c-38.233-3.985-72.459,23.756-76.448,61.962L8.031,312.38c-1.752,16.789,8.478,32.06,23.79,37.337
	C27.284,343.02,24.989,334.753,25.894,326.081z"/>
<path style="fill:#968767;" d="M447.476,62.316L447.476,62.316c3.641,1.61,5.116,5.997,3.186,9.477L439.26,92.358
	c-7.331,13.222-23.549,18.666-37.381,12.548l-14.893-6.587l30.217-30.328C425.147,60.021,437.183,57.764,447.476,62.316z"/>
<g>
	<path style="fill:#BDAA81;" d="M370.06,444.983l-2.974,15.059c-0.387,1.96-2.098,3.369-4.091,3.369h-44.302
		c-2.515,0-4.477-2.169-4.237-4.661l2.421-25.061l12.439-128.63l56.313-21.254l-31.684,143.377
		c-0.104,0.501-0.125,1.001-0.042,1.491c0.146,1.106,0.741,2.107,1.67,2.785l12.847,9.345
		C369.736,441.75,370.383,443.387,370.06,444.983z"/>
	<path style="fill:#BDAA81;" d="M234.631,463.411H198.95c-1.534,0-2.943-0.823-3.695-2.148l-13.807-24.247l-19.819-34.801
		c-0.167-0.292-0.293-0.615-0.387-0.938l-10.008-35.187l-9.528-38.181l73.376-13.819l-15.182,73.284
		c-0.157,0.73-0.115,1.481,0.125,2.19l12.398,37.67c0.021,0.073,0.052,0.146,0.084,0.219c0.366,0.959,1.075,1.742,1.973,2.221
		l18.065,9.47c1.075,0.563,1.847,1.554,2.149,2.732l4.059,16.248C239.431,460.814,237.397,463.411,234.631,463.411z"/>
</g>
<g>
	<path style="fill:#968767;" d="M234.631,463.411H198.95c-1.534,0-2.943-0.823-3.695-2.148l-13.807-24.247l31.057-9.563
		c0.366,0.959,1.075,1.742,1.973,2.221l18.065,9.47c1.075,0.563,1.847,1.554,2.149,2.732l4.059,16.248
		C239.431,460.814,237.397,463.411,234.631,463.411z"/>
	<path style="fill:#968767;" d="M370.06,444.983l-2.974,15.059c-0.387,1.96-2.098,3.369-4.091,3.369h-44.302
		c-2.515,0-4.477-2.169-4.237-4.661l2.421-25.061l37.027-5.017c0.146,1.106,0.741,2.107,1.67,2.785l12.847,9.345
		C369.736,441.75,370.383,443.387,370.06,444.983z"/>
</g>
<path style="fill:#F2E5CB;" d="M504.163,125.407v3.312c0,13.918-9.3,41.19-23.218,41.19l-30.992,10.125
	c0,0-3.041,44.178-14.2,81.711c-2.309,7.784-4.984,15.297-8.046,22.058c-21.316,47.083,9.665,138.491,9.665,138.491
	c0.042,0.313,0.115,0.606,0.219,0.888c0.334,0.919,0.972,1.703,1.818,2.215l20.396,12.016c1.275,0.773,2.069,2.152,2.069,3.647
	l-2.727,18.098c0,2.341-1.902,4.253-4.253,4.253h-44.805c-1.964,0-3.678-1.358-4.127-3.26l-6.249-26.028l-20.689-86.277
	c-0.439-1.849-2.079-3.187-3.992-3.26c0,0-54.648,3.835-97.855-11.463c-38.296-13.563-93.675,4.723-93.675,4.723
	c-1.128-0.042-2.226,0.366-3.051,1.128l-56.132,52.088c-0.794,0.731-1.829,1.139-2.905,1.139H85.87
	c-2.351,0-4.253,1.902-4.253,4.253v34.011c0,0.449,0.073,0.888,0.209,1.296c0.261,0.836,0.784,1.578,1.494,2.1l9.853,7.387
	c0.784,0.585,1.337,1.421,1.567,2.372l3.636,14.503c0.669,2.685-1.358,5.287-4.127,5.287H59.298c-2.351,0-4.263-1.902-4.263-4.253
	v-90.812c0-1.651,0.951-3.156,2.445-3.856l29.132-13.646c1.494-0.7,2.456-2.205,2.456-3.856v-57.877
	c0-34.617,25.767-63.833,60.123-68.18l115.054-24.022l33.855-7.074c8.265-1.735,15.381-6.917,19.55-14.252
	c0,0,51.137-69.057,65.233-87.082c1.693-2.163,4.295-3.427,7.053-3.427h29.153c7.356,0,14.409,2.936,19.592,8.14l5.998,6.04
	c5.172,5.204,12.236,16.165,19.581,16.165l35.725,5.81C502.293,121.227,504.163,123.098,504.163,125.407z"/>
<g>
	<path style="fill:#D1C1A1;" d="M107.654,338.197c1.492-0.699,2.452-2.201,2.452-3.848v-45.237
		c0-26.255,14.832-54.064,36.984-67.869c-33.298,5.252-58.022,33.967-58.022,67.869v57.792L107.654,338.197z"/>
	<path style="fill:#D1C1A1;" d="M76.074,459.156V355.78l-18.596,8.712c-1.492,0.699-2.442,2.201-2.442,3.848v90.815
		c0,2.35,1.906,4.255,4.258,4.255h21.038C77.981,463.411,76.074,461.506,76.074,459.156z"/>
	<path style="fill:#D1C1A1;" d="M426.998,460.146l-6.241-26.02l-20.694-86.278c-0.439-1.857-2.077-3.191-3.986-3.264
		c0,0-7.614,0.534-19.402,0.409c1.154,0.537,2.046,1.564,2.351,2.856l20.694,86.278l6.241,26.02c0.449,1.909,2.17,3.264,4.133,3.264
		h21.038C429.169,463.411,427.447,462.055,426.998,460.146z"/>
</g>
<g>
	<path style="fill:#968767;" d="M94.255,463.411H59.283c-2.348,0-4.248-1.908-4.248-4.255v-23.997l26.789-3.4
		c0.261,0.834,0.783,1.575,1.492,2.107l9.851,7.383c0.783,0.584,1.346,1.419,1.576,2.368l3.632,14.506
		C99.045,460.814,97.021,463.411,94.255,463.411z"/>
	<path style="fill:#968767;" d="M461.876,441.061l-2.724,18.094c0,2.347-1.91,4.255-4.258,4.255h-44.802
		c-1.962,0-3.684-1.355-4.133-3.264l-6.241-26.02l37.872-10.94c0.334,0.917,0.971,1.7,1.816,2.211l20.403,12.014
		C461.083,438.183,461.876,439.57,461.876,441.061z"/>
</g>
<path style="fill:#EDD4A0;" d="M504.163,125.407v3.312c0,13.918-9.3,41.19-23.218,41.19l-30.992,10.125
	c0,0-3.041,44.178-14.2,81.711l-15.433-21.985c-0.606-0.867-1.776-1.149-2.706-0.637l-29.957,16.175
	c-1.087,0.585-2.445,0.115-2.926-1.024l-13.281-31.389c-0.397-0.94-1.431-1.463-2.424-1.212l-36.352,9.017
	c-1.431,0.366-2.779-0.857-2.57-2.32l3.845-26.687c0.199-1.4-1.014-2.581-2.403-2.361c-15.005,2.393-47.146-0.303-67.302-2.414
	l33.855-7.074c8.265-1.735,15.381-6.917,19.55-14.252c0,0,51.137-69.057,65.233-87.082c1.693-2.163,4.295-3.427,7.053-3.427h29.153
	c7.356,0,14.409,2.936,19.592,8.14l5.998,6.04c5.172,5.204,12.236,16.165,19.581,16.165l35.725,5.81
	C502.293,121.227,504.163,123.098,504.163,125.407z"/>
<path style="fill:#BDAA81;" d="M411.488,48.586L411.488,48.586c3.982,0,7.106,3.414,6.752,7.378l-2.097,23.416
	c-1.349,15.056-13.973,26.594-29.1,26.594h-16.287l15.348-39.955C390.139,55.518,400.231,48.586,411.488,48.586z"/>
<path d="M53.196,298.375c2.032-19.549,16.133-34.979,34.275-39.462c-4.017,9.307-6.239,19.528-6.239,30.2
	c0,4.328,3.509,7.837,7.837,7.837s7.837-3.509,7.837-7.837c0-30.595,22.901-56.566,53.269-60.41
	c0.207-0.026,0.414-0.061,0.618-0.103l57.679-12.046c4.237-0.885,6.954-5.036,6.07-9.273c-0.885-4.237-5.037-6.952-9.273-6.069
	l-57.382,11.983c-4.445,0.582-8.755,1.555-12.913,2.856l-46.399-4.836c-20.576-2.149-40.751,3.84-56.815,16.862
	c-16.065,13.021-26.094,31.518-28.236,52.081l-3.278,31.38C0.083,313.033,0,314.58,0,316.132c0,22.289,16.749,40.837,38.959,43.144
	c0.276,0.028,0.549,0.043,0.819,0.043c3.962,0,7.363-2.996,7.784-7.023L53.196,298.375z M37.607,296.749l-4.703,45.024
	c-10.21-4.156-17.23-14.116-17.23-25.641c0-0.992,0.051-1.97,0.156-2.937l3.281-31.412c1.708-16.398,9.706-31.147,22.518-41.532
	c12.815-10.385,28.909-15.161,45.32-13.449l23.221,2.42c-4.683,3.736-8.904,8.01-12.591,12.711
	C66.785,242.325,40.84,265.656,37.607,296.749z"/>
<circle cx="429.056" cy="122.022" r="7.837"/>
<path d="M500.776,113.417l-35.259-5.734c-0.416-0.068-0.812-0.1-1.233-0.1c-2.19-0.218-7.41-6.325-9.639-8.932
	c-1.525-1.784-2.965-3.469-4.406-4.918l-1.781-1.793l9.057-16.339c1.985-3.575,2.378-7.849,1.077-11.728
	c-1.303-3.885-4.197-7.064-7.943-8.721c-7.89-3.492-16.673-3.814-24.638-1.333c-0.329-3.074-1.622-6.003-3.737-8.315
	c-2.763-3.02-6.694-4.752-10.788-4.752c-14.398,0-27.538,9.026-32.699,22.46l-13.715,35.704
	c-20.061,26.551-53.385,71.55-53.722,72.007c-0.188,0.253-0.359,0.517-0.515,0.791c-3.053,5.372-8.282,9.183-14.338,10.453
	l-47.898,10c-4.237,0.885-6.954,5.036-6.07,9.273c0.772,3.697,4.03,6.237,7.663,6.237c0.531,0,1.07-0.054,1.61-0.167l47.906-10.002
	c10.294-2.16,19.198-8.568,24.503-17.615c2.974-4.014,30.137-40.675,49.26-66.079h13.571c14.678,0,27.355-8.377,33.358-20.833
	c4.765,0.324,9.349,2.375,12.771,5.811l5.948,5.99c1.028,1.034,2.283,2.503,3.611,4.056c5.344,6.252,11.96,13.99,20.789,14.403
	l32.807,5.332v0.147c0,13.715-9.056,33.353-15.381,33.353c-0.827,0-1.648,0.131-2.434,0.388l-30.992,10.125
	c-3.035,0.992-5.166,3.726-5.384,6.912c-0.044,0.63-4.531,63.465-21.567,101.073c-8.449,18.657-10.372,45.23-5.714,78.983
	c0.542,3.925,3.901,6.767,7.753,6.767c0.356,0,0.718-0.024,1.081-0.074c4.287-0.591,7.284-4.547,6.691-8.835
	c-4.188-30.343-2.644-54.678,4.464-70.374c15.381-33.954,21.01-84.687,22.494-101.171l25.019-8.174
	c8.778-0.675,16.721-7.644,22.494-19.796c4.342-9.142,7.147-20.594,7.147-29.177v-3.312
	C512,119.048,507.034,113.825,500.776,113.417z M443.228,69.044l-7.004,12.634c-3.736-2.055-7.827-3.444-12.055-4.065l0.517-5.773
	C429.928,67.83,436.99,66.728,443.228,69.044z M387.042,98.137h-4.881l11.258-29.307c2.712-7.058,9.413-11.914,16.909-12.372
	l-1.991,22.223c-0.122,1.365-0.371,2.686-0.728,3.958c-0.024,0.074-0.047,0.148-0.069,0.224
	C404.917,91.808,396.736,98.137,387.042,98.137z"/>
<path d="M463.786,430.658l-19.115-11.255c-0.599-1.815-3.285-10.114-6.3-21.921c-1.071-4.194-5.337-6.726-9.533-5.654
	c-4.193,1.071-6.725,5.338-5.654,9.533c1.74,6.811,3.359,12.459,4.579,16.507l-22.338,6.453l-18.775-78.275
	c-1.243-5.264-5.896-9.085-11.314-9.293c-0.282-0.01-0.565-0.005-0.847,0.014c-0.532,0.037-53.502,3.552-94.695-11.031
	c-37.849-13.4-89.48,1.755-97.701,4.334c-2.587,0.264-5.011,1.353-6.966,3.159l-55.106,51.136H85.875
	c-6.67,0-12.095,5.424-12.095,12.092v28.423l-10.907,1.385v-55.646l27.065-12.68c4.233-1.981,6.967-6.278,6.967-10.946v-11.582
	c0-4.328-3.509-7.837-7.837-7.837s-7.837,3.509-7.837,7.837v9.299l-27.079,12.686c-4.225,1.979-6.955,6.275-6.955,10.945v66.818
	v23.997c0,6.667,5.421,12.092,12.084,12.092h0.01h34.961c0.468,0,0.931-0.026,1.389-0.078c3.203-0.364,6.111-1.98,8.128-4.56
	c2.308-2.952,3.114-6.733,2.207-10.388l-3.616-14.447c-0.655-2.71-2.257-5.127-4.493-6.795l-8.416-6.308v-28.632h31.967
	c3.046,0,5.961-1.139,8.232-3.229l17.547-16.283l6.525,22.936c0.277,0.949,0.649,1.836,1.1,2.626l19.768,34.715
	c0.017,0.029,0.028,0.062,0.045,0.091l13.801,24.236c0.461,0.813,1.024,1.543,1.645,2.214c0.095,0.102,0.178,0.217,0.276,0.317
	c0.169,0.171,0.359,0.319,0.538,0.479c0.218,0.195,0.427,0.401,0.658,0.58c0.07,0.054,0.148,0.096,0.22,0.149
	c1.622,1.199,3.527,1.997,5.562,2.271c0.368,0.05,0.744,0.06,1.118,0.075c0.165,0.007,0.326,0.033,0.492,0.033h0.001h35.681h0.001
	c2.175,0,4.249-0.586,6.064-1.642c0.143-0.083,0.293-0.154,0.432-0.242c0.018-0.011,0.033-0.025,0.05-0.037
	c1.125-0.727,2.139-1.645,2.99-2.738c2.305-2.959,3.101-6.743,2.188-10.365l-3.521-14.093l-0.55-2.204
	c-0.854-3.327-3.079-6.145-6.106-7.731l-16.759-8.781l-11.653-35.39l10.358-50.008c17.521-2.634,39.097-3.647,56.437,2.492
	c13.808,4.888,28.609,7.893,42.516,9.718l-10.428,107.77c-0.327,3.381,0.798,6.765,3.086,9.284c1.145,1.261,2.535,2.253,4.064,2.93
	c0.092,0.041,0.189,0.07,0.283,0.108c0.293,0.121,0.585,0.241,0.886,0.339c0.304,0.098,0.616,0.174,0.928,0.249
	c0.095,0.023,0.188,0.055,0.284,0.076c0.337,0.072,0.681,0.12,1.026,0.163c0.073,0.009,0.145,0.027,0.219,0.034
	c0.419,0.045,0.842,0.067,1.267,0.067l0,0h44.301h0.003c1.079,0,2.131-0.146,3.135-0.42c4.316-1.176,7.747-4.716,8.641-9.267
	l2.36-11.951l0.606-3.066c0.001-0.004,0.001-0.009,0.002-0.014l0.004-0.022c0.013-0.063,0.019-0.126,0.03-0.189
	c0.041-0.224,0.08-0.447,0.109-0.672c0.001-0.006,0.001-0.011,0.002-0.018c0.534-4.303-1.319-8.613-4.858-11.169l-10.91-7.936
	l13.288-60.154l22.923,95.569c1.208,5.137,5.535,8.822,10.714,9.262c0.345,0.029,0.695,0.044,1.047,0.044h44.802
	c6.423,0,11.693-5.031,12.073-11.36l2.658-17.66c0.059-0.387,0.087-0.776,0.087-1.166
	C469.713,436.86,467.475,432.893,463.786,430.658z M62.873,455.574v-13.511l15.665-1.987c0.026,0.021,0.053,0.041,0.08,0.061
	l8.836,6.623l2.207,8.815H62.873z M201.04,455.574l-7.942-13.946l17.226-5.304c0.168,0.1,0.341,0.197,0.515,0.29l16.64,8.723
	l0.425,1.701l2.131,8.536L201.04,455.574L201.04,455.574z M192.581,392.019l9.976,30.297l-17.404,5.359l-16.477-28.935
	l-8.585-30.176l24.788-23.002c0.365-0.065,0.725-0.156,1.078-0.272c0.178-0.059,6.225-2.015,15.51-4.122l-9.231,44.566
	C191.785,387.843,191.911,390.037,192.581,392.019z M322.636,455.574l1.445-14.954l26.015-3.524
	c0.278,0.245,0.567,0.478,0.869,0.697l10.953,7.967l-0.45,2.278l-1.489,7.536H322.636z M347.14,421.681l-21.51,2.914l7.039-72.741
	c11.705,0.915,22.056,1.077,29.675,0.998L347.14,421.681z M451.767,455.574h-38.845l-3.837-15.996l26.143-7.552
	c0.067,0.043,0.134,0.084,0.202,0.125l18.244,10.743L451.767,455.574z"/>
<g>
</g>
<g>
</g>
<g>
</g>
<g>
</g>
<g>
</g>
<g>
</g>
<g>
</g>
<g>
</g>
<g>
</g>
<g>
</g>
<g>
</g>
<g>
</g>
<g>
</g>
<g>
</g>
<g>
</g>
</svg>
