<?xml version="1.0" encoding="iso-8859-1"?>
<!-- Generator: Adobe Illustrator 19.0.0, SVG Export Plug-In . SVG Version: 6.00 Build 0)  -->
<svg version="1.1" id="Capa_1" xmlns="http://www.w3.org/2000/svg" xmlns:xlink="http://www.w3.org/1999/xlink" x="0px" y="0px"
	 viewBox="0 0 511.999 511.999" style="enable-background:new 0 0 511.999 511.999;" xml:space="preserve">
<polygon style="fill:#FFC9BD;" points="358.934,261.809 358.934,342.643 174.889,342.643 174.889,261.809 217.276,249.582 
	281.991,230.901 339.25,223.931 "/>
<polygon style="fill:#FCAFA2;" points="217.276,249.582 217.276,342.643 174.889,342.643 174.889,261.809 "/>
<polygon style="fill:#CF8BFC;" points="382.806,208.324 367.999,226.017 340.812,214.167 306.653,240.656 151.031,240.656 
	151.031,208.324 266.918,7.598 "/>
<polygon style="fill:#9966CC;" points="266.918,7.598 209.727,240.656 151.031,240.656 151.031,208.324 "/>
<g>
	<path style="fill:#EDE6F5;" d="M277.807,323.111h58.432c12.437,0,23.674,5.033,31.817,13.175
		c8.142,8.142,13.175,19.393,13.175,31.816H311.91c-12.422,0-23.674-5.033-31.817-13.175c-7.529-7.529-12.395-17.707-13.092-29.028"
		/>
	<path style="fill:#EDE6F5;" d="M381.233,368.102v37.768c0,10.526-8.52,19.066-19.046,19.066c-10.526,0-19.056-8.54-19.056-19.066
		v41.83c0,10.526-8.54,19.056-19.046,19.056c-10.526,0-19.066-8.53-19.066-19.056v37.646c0,5.268-2.127,10.019-5.572,13.484
		c-3.455,3.444-8.216,5.572-13.484,5.572c-10.516,0-19.046-8.53-19.046-19.056c0,5.268-2.127,10.019-5.572,13.484
		c-3.465,3.444-8.226,5.572-13.484,5.572c-10.526,0-19.056-8.53-19.056-19.056v-37.646c0,1.469-0.162,2.897-0.486,4.275
		c-1.935,8.469-9.503,14.781-18.56,14.781c-10.526,0-19.066-8.53-19.066-19.056v-41.83c0,10.526-8.53,19.066-19.046,19.066
		c-10.526,0-19.056-8.54-19.056-19.066v-37.768l14.578-14.578l61.149-16.918l38.679-10.708l73.529,22.399l19.806,19.806
		L381.233,368.102L381.233,368.102z"/>
</g>
<g>
	<path style="fill:#CEC1E8;" d="M228.318,336.605v115.369c-1.935,8.469-9.503,14.781-18.56,14.781
		c-10.526,0-19.066-8.53-19.066-19.056v-41.83c0,10.526-8.53,19.066-19.046,19.066c-10.526,0-19.056-8.54-19.056-19.066v-37.768
		l14.578-14.578L228.318,336.605z"/>
	<path style="fill:#CEC1E8;" d="M256.016,323.111h-58.432c-12.422,0-23.674,5.033-31.817,13.175
		c-8.142,8.142-13.175,19.393-13.175,31.816h69.335c12.422,0,23.674-5.033,31.817-13.175c7.529-7.529,12.395-17.707,13.092-29.028"
		/>
</g>
<g>
	<path style="fill:#EDE6F5;" d="M394.181,199.673c-9.199,2.82-15.271,11.603-15.271,21.225v0.007
		c0-12.32-9.988-22.308-22.308-22.308s-22.308,9.988-22.308,22.308l0,0c0,22.587,18.31,40.897,40.897,40.897h3.718h3.718
		c22.587,0,40.897-18.31,40.897-40.897l0,0C423.526,206.303,409.496,194.978,394.181,199.673z"/>
	<path style="fill:#EDE6F5;" d="M244.148,220.904c0-12.32-9.988-22.308-22.308-22.308c-12.32,0-22.308,9.988-22.308,22.308
		c0-12.32-9.988-22.308-22.308-22.308s-22.308,9.988-22.308,22.308v-0.007c0-9.621-6.072-18.404-15.271-21.225
		c-15.315-4.696-29.344,6.63-29.344,21.231c0,22.587,18.31,40.897,40.897,40.897h3.718h138.482c22.587,0,40.897-18.31,40.897-40.897
		h-90.147V220.904z"/>
</g>
<path style="fill:#EF8C33;" d="M259.669,271.1l-12.195,21.124c-8.641,14.965,2.16,33.673,19.441,33.673l0,0
	c17.281,0,28.081-18.706,19.441-33.673L274.16,271.1C270.938,265.523,262.888,265.523,259.669,271.1z"/>
<path style="fill:#F9D366;" d="M457.379,92.274l6.042-1.225c7.974-1.617,7.974-13.013,0-14.63l-6.042-1.225
	c-15.221-3.086-27.117-14.982-30.203-30.203l-1.225-6.042c-1.617-7.974-13.013-7.974-14.63,0l-1.225,6.042
	c-3.086,15.221-14.982,27.117-30.203,30.203l-6.042,1.225c-7.974,1.617-7.974,13.013,0,14.63l6.042,1.225
	c15.221,3.086,27.117,14.982,30.203,30.203l1.225,6.042c1.617,7.974,13.013,7.974,14.63,0l1.225-6.042
	C430.262,107.256,442.157,95.36,457.379,92.274z"/>
<path d="M418.984,196.846c-7.732-5.716-17.581-7.333-27.03-4.437c-2.696,0.827-5.205,2.055-7.488,3.594L273.498,3.799
	C272.141,1.448,269.633,0,266.918,0c-2.715,0-5.222,1.448-6.58,3.799L188.783,127.74c-2.098,3.634-0.853,8.281,2.781,10.379
	c3.634,2.098,8.28,0.853,10.379-2.781l64.976-112.544l97.752,169.313c-2.567-0.72-5.272-1.108-8.067-1.108
	c-13.865,0-25.554,9.485-28.924,22.308h-76.912c-3.37-12.822-15.062-22.308-28.927-22.308c-8.857,0-16.826,3.87-22.308,10.008
	c-5.481-6.138-13.451-10.008-22.308-10.008c-2.79,0-5.492,0.386-8.056,1.104l17.214-29.816c2.098-3.634,0.853-8.281-2.781-10.379
	c-3.634-2.099-8.281-0.853-10.379,2.781l-23.855,41.318c-2.284-1.542-4.796-2.772-7.494-3.598
	c-9.447-2.896-19.297-1.279-27.03,4.437c-7.601,5.621-12.14,14.615-12.14,24.059c0,26.74,21.755,48.495,48.495,48.495h100.678
	l-10.984,19.025c-4.873,8.44-5.359,18.346-1.488,27.089h-41.822c-5.19,0-10.262,0.751-15.1,2.192v-30.571
	c0-4.196-3.402-7.598-7.598-7.598s-7.598,3.402-7.598,7.598v37.98c-2.432,1.721-4.743,3.648-6.893,5.798
	c-9.931,9.931-15.401,23.139-15.401,37.189v37.77c0,14.699,11.958,26.657,26.657,26.657c4.095,0,7.977-0.929,11.447-2.587v17.757
	c0,14.699,11.958,26.657,26.657,26.657c4.095,0,7.977-0.929,11.447-2.587v13.574c0,14.699,11.958,26.657,26.657,26.657
	c7.107,0,13.799-2.767,18.866-7.813c0.069-0.069,0.138-0.139,0.206-0.209c4.839,4.947,11.585,8.022,19.034,8.022
	c7.107,0,13.799-2.767,18.866-7.813c5.024-5.045,7.792-11.736,7.792-18.844v-13.578c3.474,1.66,7.361,2.591,11.461,2.591
	c14.691,0,26.643-11.958,26.643-26.657v-17.761c3.474,1.66,7.361,2.591,11.461,2.591c14.691,0,26.643-11.958,26.643-26.657v-37.77
	c0-14.05-5.47-27.258-15.401-37.189c-2.15-2.15-4.461-4.077-6.893-5.798v-37.98c0-4.196-3.402-7.598-7.598-7.598
	s-7.598,3.402-7.598,7.598v30.571c-4.837-1.442-9.91-2.192-15.1-2.192H294.42c3.871-8.742,3.386-18.648-1.488-27.089l-10.984-19.025
	h11.448c17.173,0,32.279-8.981,40.897-22.484c8.619,13.503,23.724,22.484,40.897,22.484h7.436c26.741,0,48.496-21.755,48.496-48.495
	C431.124,211.461,426.585,202.466,418.984,196.846z M266.913,318.298c-5.368,0-10.176-2.776-12.86-7.425
	c-2.685-4.649-2.684-10.201,0-14.851l12.195-21.124l0,0c0.066-0.115,0.222-0.384,0.665-0.384c0.444,0,0.599,0.269,0.666,0.384
	l12.195,21.124c2.684,4.649,2.684,10.201,0,14.85C277.09,315.522,272.282,318.298,266.913,318.298z M171.14,341.659
	c7.061-7.061,16.452-10.95,26.444-10.95h56.624c1.288,0.597,2.62,1.1,3.992,1.509c-1.634,6.517-5.008,12.515-9.829,17.336
	c-7.061,7.061-16.452,10.95-26.443,10.95h-60.971C162.412,353.412,165.904,346.895,171.14,341.659z M373.632,375.701v30.171
	c0,6.32-5.135,11.461-11.447,11.461c-6.32,0-11.461-5.141-11.461-11.461c0-4.196-3.402-7.598-7.598-7.598s-7.598,3.402-7.598,7.598
	v41.827c0,6.32-5.135,11.461-11.447,11.461c-6.32,0-11.461-5.141-11.461-11.461v-21.378c0-4.196-3.402-7.598-7.598-7.598
	s-7.598,3.402-7.598,7.598v21.378v37.644c0,3.059-1.194,5.944-3.34,8.099c-2.177,2.168-5.061,3.362-8.121,3.362
	c-6.311,0-11.447-5.141-11.447-11.461c0-4.196-3.402-7.598-7.598-7.598s-7.598,3.402-7.598,7.598c0,3.059-1.194,5.944-3.34,8.099
	c-2.177,2.168-5.061,3.362-8.121,3.362c-6.32,0-11.461-5.141-11.461-11.461v-37.644v-21.378c0-4.196-3.402-7.598-7.598-7.598
	c-4.196,0-7.598,3.402-7.598,7.598v21.378c0,6.32-5.135,11.461-11.447,11.461c-6.32,0-11.461-5.141-11.461-11.461v-41.827
	c0-4.196-3.402-7.598-7.598-7.598s-7.598,3.402-7.598,7.598c0,6.32-5.135,11.461-11.447,11.461c-6.32,0-11.461-5.141-11.461-11.461
	v-30.171h61.737c14.05,0,27.257-5.47,37.188-15.401c3.02-3.02,5.627-6.374,7.803-9.97c2.176,3.595,4.783,6.95,7.803,9.97
	c9.931,9.931,23.139,15.401,37.189,15.401H373.632z M362.683,341.659c5.236,5.236,8.728,11.753,10.182,18.845H311.91
	c-9.991,0-19.382-3.889-26.444-10.95c-4.821-4.821-8.195-10.82-9.829-17.339c1.369-0.408,2.699-0.912,3.983-1.507h56.619
	C346.23,330.709,355.621,334.598,362.683,341.659z M293.398,254.204h-142.2c-18.361,0-33.299-14.938-33.299-33.299
	c0-4.716,2.179-9.031,5.978-11.84c2.574-1.903,5.561-2.874,8.702-2.874c1.584,0,3.208,0.247,4.837,0.747
	c5.829,1.787,9.901,7.528,9.9,13.967c0,0.056,0,0.111,0.002,0.167c0,0.01,0,0.019,0,0.028c0.104,4.106,3.465,7.402,7.596,7.402
	c4.196,0,7.598-3.402,7.598-7.598c0-8.111,6.599-14.71,14.71-14.71c8.111,0,14.71,6.598,14.71,14.71
	c0,4.196,3.402,7.598,7.598,7.598s7.598-3.402,7.598-7.598c0-8.111,6.599-14.71,14.71-14.71c8.111,0,14.71,6.598,14.71,14.71
	c0,4.196,3.402,7.598,7.598,7.598h81.676C322.376,243.214,309.147,254.204,293.398,254.204z M382.628,254.204h-7.436
	c-18.361,0-33.299-14.938-33.299-33.299c0-8.111,6.599-14.71,14.71-14.71c8.111,0,14.71,6.598,14.71,14.71
	c0,4.196,3.402,7.598,7.598,7.598s7.598-3.402,7.598-7.598c0-0.002,0-0.005,0-0.007c0-6.432,4.072-12.173,9.901-13.96
	c4.859-1.49,9.668-0.735,13.541,2.127c3.799,2.809,5.978,7.124,5.978,11.84C415.928,239.266,400.99,254.204,382.628,254.204z"/>
<path d="M257.816,96.51c1.641,2.552,4.851,3.821,7.801,3.232c3.313-0.662,5.84-3.514,6.086-6.888
	c0.488-6.719-7.757-10.694-12.72-6.143C256.268,89.199,255.751,93.45,257.816,96.51z"/>
<path d="M232.915,160.313c1.678,2.457,4.676,3.795,7.624,3.265c3.137-0.563,5.624-3.043,6.177-6.184
	c0.585-3.326-1.18-6.725-4.233-8.164c-2.66-1.255-5.91-0.829-8.158,1.069C231.406,152.761,230.824,157.138,232.915,160.313z"/>
<path d="M297.781,137.752c1.735,2.634,5.111,3.924,8.163,3.148c3.275-0.833,5.657-3.797,5.741-7.179
	c0.167-6.704-8.218-10.304-12.962-5.563C296.178,130.701,295.81,134.758,297.781,137.752z"/>
<path d="M294.509,175.824c-5.042,4.897-0.728,13.659,6.157,12.924c6.69-0.714,9.175-9.523,3.801-13.612
	C301.482,172.864,297.158,173.177,294.509,175.824z"/>
<path d="M464.931,68.972l-6.043-1.225c-12.256-2.485-21.781-12.01-24.266-24.266l-1.225-6.042
	c-1.441-7.106-7.511-12.069-14.761-12.07l0,0c-7.251,0-13.321,4.963-14.762,12.07l-1.225,6.042
	c-2.485,12.256-12.01,21.781-24.266,24.266l-6.042,1.225c-7.106,1.441-12.069,7.511-12.069,14.762s4.963,13.321,12.069,14.762
	l6.042,1.225c12.256,2.485,21.781,12.01,24.266,24.266l1.225,6.043c1.441,7.106,7.512,12.069,14.763,12.069
	c7.251,0,13.32-4.963,14.761-12.069l1.225-6.043c2.485-12.256,12.009-21.781,24.266-24.266l6.043-1.225
	c7.106-1.441,12.069-7.511,12.069-14.762S472.037,70.413,464.931,68.972z M455.868,84.827L455.868,84.827
	c-18.254,3.701-32.44,17.887-36.139,36.141l-1.093,5.393l-1.093-5.393c-3.701-18.254-17.887-32.44-36.141-36.14l-5.393-1.093
	l5.393-1.093c18.254-3.701,32.44-17.886,36.141-36.141l1.093-5.393l1.093,5.393c3.701,18.254,17.886,32.439,36.139,36.139
	l5.394,1.093L455.868,84.827z"/>
<path d="M79.768,296.705c-4.196,0-7.598,3.402-7.598,7.598v20.135c0,4.196,3.402,7.598,7.598,7.598c4.196,0,7.598-3.402,7.598-7.598
	v-20.135C87.366,300.106,83.964,296.705,79.768,296.705z"/>
<path d="M79.768,350.913c-4.196,0-7.598,3.402-7.598,7.598v20.135c0,4.196,3.402,7.598,7.598,7.598c4.196,0,7.598-3.402,7.598-7.598
	v-20.135C87.366,354.315,83.964,350.913,79.768,350.913z"/>
<path d="M116.938,333.876H96.805c-4.196,0-7.598,3.402-7.598,7.598c0,4.196,3.402,7.598,7.598,7.598h20.135
	c4.196,0,7.598-3.402,7.598-7.598C124.538,337.278,121.135,333.876,116.938,333.876z"/>
<path d="M62.731,333.876H42.596c-4.196,0-7.598,3.402-7.598,7.598c0,4.196,3.402,7.598,7.598,7.598h20.135
	c4.196,0,7.598-3.402,7.598-7.598C70.329,337.278,66.927,333.876,62.731,333.876z"/>
<g>
</g>
<g>
</g>
<g>
</g>
<g>
</g>
<g>
</g>
<g>
</g>
<g>
</g>
<g>
</g>
<g>
</g>
<g>
</g>
<g>
</g>
<g>
</g>
<g>
</g>
<g>
</g>
<g>
</g>
</svg>
