<svg height="512pt" viewBox="-75 0 512 512" width="512pt" xmlns="http://www.w3.org/2000/svg"><path d="m221.496094 48.382812c0 22.574219-18.300782 40.878907-40.878906 40.878907-22.578126 0-40.882813-18.304688-40.882813-40.878907 0-22.578124 18.304687-40.882812 40.882813-40.882812 22.578124 0 40.878906 18.304688 40.878906 40.882812zm0 0" fill="#b2b9bf"/><path d="m180.617188 41.171875c-69.292969 2.09375-124.726563 51.433594-124.726563 112 0 106.003906 55.433594 125.367187 124.726563 126.152344 69.292968-.785157 124.726562-20.148438 124.726562-126.152344 0-60.566406-55.433594-109.90625-124.726562-112zm0 0" fill="#d7dee3"/><path d="m180.617188 41.171875c-8.199219.246094-16.203126 1.164063-23.945313 2.675781 57.691406 11.257813 100.785156 55.921875 100.785156 109.324219 0 93.460937-43.09375 119.570313-100.785156 124.976563 7.742187.726562 15.746094 1.085937 23.945313 1.175781 69.292968-.785157 124.726562-20.148438 124.726562-126.152344 0-60.566406-55.433594-109.90625-124.726562-112zm0 0" fill="#ccd2d6"/><g fill="#fed6a6"><path d="m322.210938 348.105469c-23.660157-12.011719-48.464844-20.824219-73.804688-26.449219-17.804688-3.949219-30.546875-19.625-30.546875-37.863281v-33.398438h-74.488281v33.398438c0 18.238281-12.738282 33.914062-30.546875 37.863281-25.339844 5.625-50.144531 14.4375-73.800781 26.449219-19.339844 9.816406-31.523438 29.664062-31.523438 51.351562v95.34375c0 5.355469 4.339844 9.699219 9.695312 9.699219h326.835938c5.359375 0 9.699219-4.34375 9.699219-9.699219v-95.34375c0-21.6875-12.183594-41.535156-31.519531-51.351562zm0 0"/><path d="m101.804688 153.289062h-13.542969c-11.492188 0-20.796875 9.316407-20.796875 20.808594v9.84375c0 11.488282 9.304687 20.808594 20.796875 20.808594h13.542969zm0 0"/><path d="m259.429688 153.289062h13.542968c11.492188 0 20.796875 9.316407 20.796875 20.808594v9.84375c0 11.488282-9.304687 20.808594-20.796875 20.808594h-13.542968zm0 0"/></g><path d="m247.875 140.082031c-59.441406 0-67.222656-32.585937-67.222656-32.585937h-.074219s-7.78125 32.585937-67.21875 32.585937c-10.28125 0-18.644531 8.273438-18.625 18.554688.039063 21.019531.097656 51.589843.097656 51.589843 0 53.113282 53.777344 81.019532 85.777344 81.019532h.007813.007812c32 0 85.777344-27.90625 85.777344-81.019532 0 0 .0625-30.570312.101562-51.589843.015625-10.28125-8.347656-18.554688-18.628906-18.554688zm0 0" fill="#ffe3c2"/><path d="m247.875 140.082031c-11.863281 0-21.660156-1.300781-29.757812-3.378906-.03125 29.832031-.066407 73.523437-.066407 73.523437 0 41.105469-32.210937 67.109376-61.609375 76.769532 8.585938 2.820312 16.933594 4.25 24.167969 4.25h.007813.007812c32 0 85.777344-27.90625 85.777344-81.019532 0 0 .058594-30.570312.097656-51.589843.019531-10.28125-8.34375-18.554688-18.625-18.554688zm0 0" fill="#fed6a6"/><path d="m322.210938 348.105469c-14.742188-7.484375-29.925782-13.722657-45.40625-18.726563-31.316407-9.726562-30.304688 26.15625-96.1875 26.15625-61.109376 0-64.875-35.882812-96.1875-26.15625-15.484376 5.003906-30.667969 11.242188-45.40625 18.722656-19.339844 9.820313-31.523438 29.667969-31.523438 51.355469v95.34375c0 5.355469 4.34375 9.699219 9.699219 9.699219h326.835937c5.355469 0 9.695313-4.34375 9.695313-9.699219v-95.34375c0-21.6875-12.183594-41.535156-31.519531-51.351562zm0 0" fill="#fc6a58"/><path d="m344.035156 504.5c5.355469 0 9.695313-4.34375 9.695313-9.699219v-95.34375c0-21.6875-12.183594-41.535156-31.519531-51.351562-14.742188-7.484375-29.925782-13.722657-45.40625-18.726563-26.589844-8.257812-29.882813 16.363282-70.601563 23.980469 23.203125 5.644531 45.914063 13.972656 67.652344 25.007813 19.339843 9.816406 31.523437 29.667968 31.523437 51.355468v74.777344zm0 0" fill="#e35052"/><path d="m180.617188 355.535156c-61.109376 0-64.875-35.878906-96.1875-26.15625-4.164063 1.34375-8.304688 2.785156-12.421876 4.3125-2.027343 5.746094-1.203124 11.542969 1.78125 14.765625 3.917969 4.503907 11.515626 6.585938 18.976563 1.644531.96875-.640624 2.171875.3125 1.769531 1.402344-3.1875 8.660156-.257812 17.421875 5.640625 20.675782 5.832031 3.925781 15.496094 3.488281 22.195313-3.972657.769531-.855469 2.171875-.230469 2.050781.914063-1.058594 9.972656 5.277344 17.703125 12.71875 19.746094 7.582031 2.289062 17.683594-1.058594 22.34375-10.511719.519531-1.054688 2.042969-.835938 2.246094.324219 1.804687 10.332031 10.660156 16.339843 18.855469 16.242187 8.191406.097656 17.050781-5.910156 18.855468-16.242187.203125-1.15625 1.730469-1.378907 2.25-.324219 4.65625 9.453125 14.757813 12.800781 22.339844 10.515625 7.441406-2.042969 13.777344-9.777344 12.722656-19.75-.121094-1.144532 1.28125-1.769532 2.050782-.910156 6.699218 7.460937 16.359374 7.894531 22.195312 3.972656 5.546875-3.976563 8.972656-12 5.679688-20.699219-.410157-1.085937.789062-2.042969 1.761718-1.410156 7.433594 4.816406 15.601563 3.351562 18.949219-1.613281 2.625-3.640626 3.726563-9.164063 1.828125-14.769532-.027344-.007812-.050781-.019531-.074219-.027344-1.824219-.675781-5.972656-2.144531-6.214843-2.230468-2.039063-.703125-4.082032-1.390625-6.128907-2.050782-31.3125-9.730468-30.300781 26.152344-96.183593 26.152344zm0 0" fill="#c35f58"/><path d="m289.21875 333.6875c-.023438-.007812-.046875-.015625-.070312-.027344-.292969-.105468-.589844-.214844-.886719-.324218-1.371094-.5-3.238281-1.164063-4.363281-1.5625-.4375-.152344-.875-.304688-1.3125-.457032-1.921876-.664062-3.84375-1.3125-5.777344-1.9375 0 0-.003906 0-.007813 0-26.585937-8.257812-29.878906 16.359375-70.597656 23.980469 18.65625 4.535156 36.996094 10.8125 54.769531 18.835937.007813-.003906.019532-.007812.027344-.015624 5.546875-3.976563 8.972656-11.996094 5.679688-20.699219-.410157-1.085938.789062-2.039063 1.761718-1.40625 7.433594 4.816406 15.601563 3.347656 18.949219-1.617188 2.625-3.636719 3.726563-9.164062 1.828125-14.769531zm0 0" fill="#b24d4b"/><path d="m248.40625 321.65625c-17.804688-3.949219-30.546875-19.625-30.546875-37.863281v-2.128907c-12.949219 6.351563-26.351563 9.582032-37.238281 9.582032 0 0-.003906 0-.007813 0 0 0-.003906 0-.007812 0-3.472657 0-7.207031-.328125-11.097657-.984375v23.792969c0 18.242187 12.738282 33.917968 30.546876 37.867187 2.050781.457031 4.101562.941406 6.144531 1.4375 40.722656-7.617187 44.015625-32.238281 70.601562-23.980469-9.367187-3.027344-18.839843-5.601562-28.394531-7.722656zm0 0" fill="#efc79c"/><path d="m206.191406 244.113281c1.398438-3.898437-.625-8.195312-4.523437-9.59375-3.898438-1.398437-8.191407.625-9.59375 4.523438-.960938 2.675781-5.511719 5.449219-11.457031 5.449219-5.949219 0-10.496094-2.773438-11.460938-5.449219-1.398438-3.898438-5.691406-5.921875-9.59375-4.523438-3.898438 1.398438-5.921875 5.695313-4.523438 9.59375 3.304688 9.199219 13.582032 15.378907 25.578126 15.378907 11.992187 0 22.269531-6.179688 25.574218-15.378907zm0 0"/><path d="m172.375 195.285156c0-.175781-.003906-.347656-.007812-.523437h.007812c0-4.546875 3.695312-8.242188 8.242188-8.242188 4.542968 0 8.242187 3.695313 8.242187 8.242188h.007813c-.007813.175781-.007813.347656-.007813.523437 0 13.058594 14.335937 23.28125 32.636719 23.28125 18.304687 0 32.640625-10.226562 32.640625-23.28125 0-10.179687-8.722657-18.640625-21.242188-21.875v-3.015625c0-4.140625-3.359375-7.5-7.5-7.5-4.144531 0-7.5 3.359375-7.5 7.5v1.746094c-7.945312.59375-14.953125 3.144531-20.09375 6.984375-4.253906-4.671875-10.382812-7.605469-17.183593-7.605469-6.800782 0-12.929688 2.933594-17.183594 7.605469-5.140625-3.839844-12.148438-6.390625-20.09375-6.984375v-1.746094c0-4.140625-3.355469-7.5-7.5-7.5-4.144532 0-7.5 3.359375-7.5 7.5v3.015625c-12.523438 3.234375-21.242188 11.695313-21.242188 21.875 0 13.058594 14.335938 23.28125 32.640625 23.28125 18.296875 0 32.636719-10.226562 32.636719-23.28125zm49.121094-8.28125c10.605468 0 17.640625 4.984375 17.640625 8.28125 0 3.300782-7.035157 8.28125-17.640625 8.28125-10.601563 0-17.636719-4.980468-17.636719-8.28125 0-3.296875 7.035156-8.28125 17.636719-8.28125zm-81.761719 16.5625c-10.601563 0-17.640625-4.980468-17.640625-8.28125 0-3.296875 7.035156-8.28125 17.640625-8.28125s17.640625 4.984375 17.640625 8.28125c0 3.300782-7.035156 8.28125-17.640625 8.28125zm0 0"/><path d="m325.601562 341.417969c-14.886718-7.5625-65.804687-24.914063-75.570312-27.082031-13.734375-3.046876-23.554688-14.445313-24.582031-28.15625 3.140625-1.714844 6.207031-3.582032 9.160156-5.59375 25.03125-6.675782 43.46875-19.039063 56.34375-37.773438 14.730469-21.433594 21.890625-50.753906 21.890625-89.640625 0-19.503906-5.488281-38.859375-15.871094-55.972656-2.148437-3.542969-6.761718-4.671875-10.300781-2.523438-3.542969 2.148438-4.671875 6.761719-2.523437 10.304688 9.089843 14.976562 13.695312 31.191406 13.695312 48.191406 0 2.46875-.03125 4.890625-.089844 7.269531-4.824218-8.730468-14.125-14.65625-24.78125-14.65625h-2.34375c-1.136718-2-2.550781-3.855468-4.21875-5.527344-4.9375-4.949218-11.523437-7.675781-18.535156-7.675781-51.300781 0-59.433594-25.113281-59.9375-26.875-.738281-3.457031-3.816406-5.710937-7.355469-5.710937-3.472656 0-6.488281 2.382812-7.296875 5.757812-.0625.269532-7.863281 26.828125-59.925781 26.828125-7.011719 0-13.597656 2.726563-18.535156 7.675781-1.667969 1.671876-3.082031 3.53125-4.21875 5.527344h-2.34375c-10.65625 0-19.957031 5.925782-24.78125 14.65625-.058594-2.378906-.089844-4.804687-.089844-7.269531 0-27.082031 12.03125-52.773437 33.882813-72.339844 22.03125-19.730469 51.621093-31.148437 83.34375-32.15625 31.226562.996094 60.492187 12.121094 82.421874 31.339844 3.117188 2.730469 7.855469 2.417969 10.585938-.695313 2.726562-3.117187 2.417969-7.855468-.699219-10.585937-12.832031-11.246094-27.867187-20.011719-44.257812-25.976563-2.800781-24.027343-23.3125-42.757812-48.050781-42.757812-24.734376 0-45.246094 18.726562-48.050782 42.746094-16.835937 6.125-32.238281 15.210937-45.300781 26.910156-25.070313 22.453125-38.878906 52.109375-38.878906 83.515625 0 38.886719 7.160156 68.210937 21.890625 89.640625 12.875 18.734375 31.316406 31.097656 56.34375 37.773438 2.953125 2.011718 6.019531 3.878906 9.160156 5.59375-1.027344 13.710937-10.84375 25.109374-24.582031 28.15625-9.761719 2.167968-60.644531 19.503906-75.570313 27.082031-21.976562 11.15625-35.628906 33.394531-35.628906 58.042969v18.191406c0 4.144531 3.355469 7.5 7.5 7.5s7.5-3.355469 7.5-7.5v-18.191406c0-18.96875 10.507812-36.082032 27.417969-44.667969 7.023437-3.566407 14.214843-6.871094 21.515625-9.890625.714844 3.28125 2.15625 6.242187 4.273437 8.5625 4.007813 4.546875 10.496094 7.488281 17.578125 6.886718.46875 7.699219 4.222656 14.628907 10.472656 18.230469 6.5 4.230469 14.734376 4.601563 22.003907 1.554688 2.890625 8.230469 9.675781 13.949219 16.804687 15.9375 7.261719 2.15625 16.644532.734375 23.824219-5.121094 4.878906 6.96875 12.839844 11.46875 21.484375 11.46875h.421875c8.644531 0 16.605469-4.503906 21.484375-11.46875 7.183594 5.859375 16.5625 7.28125 23.828125 5.121094 7.128906-1.988281 13.914063-7.707031 16.804687-15.9375 7.367188 3.089843 15.734376 2.664062 22.273438-1.730469.0625-.042969.121094-.085938.183594-.128906 5.199218-3.726563 9.425781-10.136719 10.054687-17.882813 7.230469.800781 14.160157-1.859375 18.113281-7.644531 1.699219-2.378906 2.886719-5.078125 3.542969-7.9375 7.378907 3.046875 14.640625 6.378906 21.734375 9.980469 16.910156 8.585937 27.417969 25.699219 27.417969 44.667969v95.34375c0 1.210937-.988281 2.195312-2.199219 2.195312h-40.109375v-49.800781c0-4.140625-3.359375-7.5-7.5-7.5-4.144531 0-7.5 3.359375-7.5 7.5v49.800781h-216.617187v-49.800781c0-4.144531-3.355469-7.5-7.5-7.5-4.144532 0-7.5 3.355469-7.5 7.5v49.800781h-40.109375c-1.214844 0-2.199219-.984375-2.199219-2.199219v-42.378906c0-4.140625-3.355469-7.5-7.5-7.5s-7.5 3.359375-7.5 7.5v42.378906c0 9.484375 7.714844 17.199219 17.199219 17.199219h326.835937c9.480469 0 17.195313-7.714844 17.195313-17.199219v-95.34375c0-24.644531-13.652344-46.886719-35.628907-58.039062zm-144.984374-326.417969c14.699218 0 27.238281 9.589844 31.667968 22.839844-10.164062-2.429688-20.703125-3.839844-31.441406-4.164063-.152344-.007812-.304688-.007812-.453125 0-10.746094.324219-21.285156 1.730469-31.441406 4.15625 4.433593-13.246093 16.96875-22.832031 31.667969-22.832031zm93.378906 145.828125c6.855468.523437 12.273437 6.273437 12.273437 13.269531v9.84375c0 7.015625-5.457031 12.78125-12.34375 13.273438zm-.121094 51.40625c6.867188-.21875 13.125-2.890625 17.917969-7.175781-3.148438 11.308594-7.539063 21.019531-13.203125 29.261718-4.402344 6.40625-9.628906 11.933594-15.734375 16.621094 6.898437-11.78125 10.6875-24.90625 11.019531-38.707031zm-198.910156-38.136719c0-6.996094 5.417968-12.746094 12.273437-13.269531l.070313 36.386719c-6.890625-.492188-12.34375-6.257813-12.34375-13.273438zm7.675781 60.21875c-5.664063-8.238281-10.054687-17.949218-13.203125-29.257812 4.792969 4.28125 11.050781 6.957031 17.917969 7.175781.335937 13.800781 4.125 26.929687 11.023437 38.707031-6.109375-4.6875-11.332031-10.214844-15.738281-16.625zm47.695313 30.425782c-12.773438-9.972657-28.003907-27.523438-28.003907-54.527344 0 0-.097656-51.574219-.097656-51.589844-.011719-5.96875 5.027344-11.042969 11.125-11.042969 39.53125 0 58.445313-13.765625 67.257813-24.8125 8.808593 11.046875 27.722656 24.8125 67.253906 24.8125 5.980468 0 11.140625 5.074219 11.128906 11.042969l-.101562 51.601562c0 26.992188-15.226563 44.546876-28 54.515626-14.792969 11.546874-34.527344 19.007812-50.289063 19.007812-15.75-.003906-35.484375-7.460938-50.273437-19.007812zm19.683593 27.960937c10.363281 3.890625 20.941407 6.042969 30.601563 6.042969 9.65625 0 20.230468-2.152344 30.589844-6.042969 3.273437 16.945313 15.757812 30.722656 32.808593 35.574219-1.128906.730468-2.253906 1.480468-3.386719 2.230468-11.753906 7.808594-26.378906 17.523438-60.019531 17.523438-30.425781 0-45.5625-9.484375-57.726562-17.105469-1.585938-.992187-3.15625-1.976562-4.738281-2.925781 16.570312-5.085938 28.65625-18.664062 31.871093-35.296875zm131.289063 51.363281c-.046875.066406-.09375.132813-.136719.199219-.863281 1.277344-4.488281 2.210937-8.648437-.484375-3.167969-2.054688-7.261719-1.84375-10.191407.515625-2.925781 2.359375-3.996093 6.308594-2.667969 9.839844 1.988282 5.253906-.027343 9.730469-2.9375 11.878906-2.613281 1.683594-8.09375 1.910156-12.339843-2.816406-2.523438-2.8125-6.535157-3.671875-9.984375-2.140625-3.449219 1.53125-5.5 5.085937-5.105469 8.851562.648437 6.144532-3.25 10.628906-7.25 11.726563-.0625.015625-.121094.035156-.179687.050781-4.351563 1.320312-10.574219-.8125-13.445313-6.644531-1.671875-3.390625-5.296875-5.3125-9.03125-4.777344-3.734375.53125-6.679687 3.394531-7.332031 7.125-1.144532 6.539063-6.636719 10.035156-11.269532 10.035156-.066406 0-.132812 0-.203124-.003906-.066407 0-.132813.003906-.199219.003906-4.632813 0-10.125-3.496093-11.265625-10.035156-.652344-3.726563-3.59375-6.589844-7.324219-7.125-3.730469-.539063-7.363281 1.382813-9.039063 4.777344-2.875 5.832031-9.097656 7.964843-13.449218 6.648437-.0625-.019531-.121094-.035156-.179688-.054687-4-1.097657-7.898437-5.582031-7.246094-11.726563.394532-3.757812-1.652343-7.3125-5.101562-8.847656-3.445312-1.535156-7.460938-.675781-9.992188 2.136719-4.292968 4.78125-9.851562 4.492187-12.425781 2.761719-.183593-.125-.371093-.238282-.5625-.34375-2.253906-1.246094-4.28125-5.941407-2.226562-11.519532 1.304687-3.542968.195312-7.488281-2.757813-9.824218-2.949218-2.335938-7.046875-2.503907-10.1875-.421876-4.464844 2.953126-7.867187 1.1875-9.179687-.316406-.050781-.058594-.105469-.117187-.160157-.175781-.550781-.597656-1.007812-2.066406-.875-4.019531 2.738282-.972656 5.484376-1.90625 8.238282-2.796875 11.328125-3.519531 17.34375.253906 28.269531 7.097656 13.0625 8.183594 30.953125 19.394531 65.695313 19.394531 38.164062 0 55.589843-11.574218 68.316406-20.027344 9.851562-6.546874 14.796875-9.832031 25.5625-6.488281 2.734375.882813 5.457031 1.804688 8.171875 2.769531.023437 2.050782-.617188 3.75-1.359375 4.777344zm0 0"/></svg>