<svg height="512pt" viewBox="0 0 512.02363 512" width="512pt" xmlns="http://www.w3.org/2000/svg"><path d="m419.242188 328.546875c0 96.59375-84.992188 174.929687-209.917969 174.929687-4.4375 0-8.789063-.082031-13.058594-.339843-106.835937-4.777344-174.933594-68.609375-186.109375-150.441407l10.496094-14.421874 13.480468-82.261719c6.386719-3.183594 13.195313-5.425781 20.222657-6.65625 18.175781-2.523438 36.691406.449219 53.164062 8.535156 4.160157 1.882813 8.15625 4.109375 11.945313 6.65625 9.996094-6 21.070312-9.972656 32.597656-11.691406 16.535156-2.757813 33.519531-.15625 48.472656 7.421875l21.332032 45.484375 8.53125 19.027343c21.335937 27.5625 31.402343 45.996094 60.417968 49.835938 4.09375.609375 8.234375.894531 12.371094.851562 42.070312 0 70.402344-22.953124 89.941406-58.535156 6.183594-11.292968 11.40625-23.082031 15.617188-35.246094h2.132812c5.566406 14.992188 8.398438 30.859376 8.363282 46.851563zm0 0" fill="#558b30"/><path d="m393.644531 328.546875c0 93.351563-79.363281 169.640625-197.378906 174.589844-106.835937-4.777344-174.933594-68.609375-186.109375-150.441407l10.496094-14.421874 13.480468-82.261719c6.386719-3.183594 13.195313-5.425781 20.222657-6.65625 14.070312 2.3125 27.515625 7.480469 39.511719 15.191406 4.3125-2.679687 8.886718-4.910156 13.652343-6.65625 14.136719-5.613281 29.511719-7.351563 44.542969-5.035156 7.957031 1.296875 15.667969 3.800781 22.871094 7.421875l21.332031 45.484375 8.535156 19.027343c24.148438 31.148438 33.875 50.6875 72.789063 50.6875 4.421875.027344 8.84375-.257812 13.226562-.851562 4.09375.609375 8.234375.894531 12.371094.851562 42.070312 0 70.402344-22.953124 89.941406-58.535156.34375 3.839844.515625 7.679688.515625 11.605469zm0 0" fill="#8bc34a"/><path d="m197.886719 41.058594c-20.773438-20.839844-48.996094-32.539063-78.421875-32.511719-4.277344-.007813-8.550782.25-12.796875.765625-55.929688 6.496094-98.121094 53.863281-98.132813 110.164062l-.003906 136.535157c-.023438-2.882813.347656-5.753907 1.113281-8.535157 3.867188-15.074218 17.457031-25.609374 33.023438-25.597656h153.597656c2.882813-.027344 5.753906.347656 8.535156 1.109375 12.011719 3.097657 21.394531 12.476563 24.488281 24.488281.761719 2.78125 1.136719 5.652344 1.113282 8.535157l-.003906-136.535157c.027343-29.421874-11.671876-57.644531-32.511719-78.417968zm0 0" fill="#c52828"/><path d="m172.289062 41.058594c-17.648437-17.710938-40.785156-28.902344-65.621093-31.746094-55.929688 6.496094-98.121094 53.863281-98.132813 110.164062v103.511719c2.777344-.761719 5.648438-1.136719 8.53125-1.109375h153.601563c15.5625-.011718 29.15625 10.523438 33.023437 25.597656.761719 2.78125 1.132813 5.652344 1.109375 8.535157v-136.535157c.023438-29.421874-11.675781-57.644531-32.511719-78.417968zm0 0" fill="#f44335"/><path d="m93.867188 159.304688h51.199218v91.023437h-51.199218zm0 0" fill="#bfa885"/><path d="m230.398438 256.011719v95.0625l-57.683594 57.683593c-6.65625 6.617188-17.40625 6.617188-24.0625 0-.273438-.246093-.503906-.53125-.683594-.851562-6.035156-6.699219-5.734375-16.960938.683594-23.296875l47.613281-47.617187v-72.445313c-13.578125-7.089844-29.167969-9.347656-44.203125-6.402344-11.910156 2.273438-23.09375 7.398438-32.597656 14.933594-3.941406-3.203125-8.234375-5.953125-12.796875-8.191406-20.007813-10.519531-43.882813-10.648438-64-.339844v72.445313l47.613281 47.617187c6.125 6.730469 5.886719 17.082031-.535156 23.527344-6.421875 6.445312-16.773438 6.71875-23.527344.621093l-57.683594-57.683593v-95.0625c-.027344-2.882813.34375-5.753907 1.109375-8.535157 3.867188-15.074218 17.457031-25.609374 33.023438-25.597656h153.597656c15.566406-.011718 29.15625 10.523438 33.023437 25.597656.761719 2.78125 1.136719 5.652344 1.109376 8.535157zm0 0" fill="#bfa885"/><path d="m503.464844 205.410156c-3.921875 77.824219-84.394532 76.882813-92.585938 76.285156h-2.132812c-3.671875.144532-7.347656.058594-11.007813-.253906-24.40625-1.707031-78.847656-13.3125-82.003906-76.628906-.125-2.300781.734375-4.542969 2.363281-6.171875 1.625-1.628906 3.871094-2.488281 6.167969-2.363281h65.023437c2.238282.019531 4.382813.90625 5.976563 2.476562l1.789063 3.414063 9.816406 18.429687c.777344.820313 1.855468 1.28125 2.984375 1.28125 1.128906 0 2.210937-.460937 2.988281-1.28125l11.605469-21.84375c1.59375-1.570312 3.734375-2.457031 5.972656-2.476562h64.511719c2.363281.011718 4.621094 1 6.234375 2.726562 1.617187 1.726563 2.445312 4.046875 2.296875 6.40625zm0 0" fill="#2e7d32"/><path d="m204.800781 256.011719v95.0625l-56.832031 56.832031c-6.035156-6.699219-5.734375-16.960938.683594-23.296875l47.613281-47.617187v-72.445313c-13.578125-7.089844-29.167969-9.347656-44.203125-6.402344-18.941406-3.753906-22.183594 1.453125-32.597656 6.742188-18.496094-7.207031-38.539063-9.527344-58.195313-6.742188-12.457031-2.472656-2.046875-1.875-18.601562 6.402344v72.445313l47.613281 47.617187c3.210938 3.183594 5.023438 7.511719 5.035156 12.03125 0 4.097656-24.148437 18.347656-27.050781 21.503906l-58.109375-65.449219-1.621094-1.621093v-95.0625c-.027344-2.882813.34375-5.753907 1.109375-8.535157 3.867188-15.074218 17.457031-25.609374 33.023438-25.597656h128c15.5625-.011718 29.15625 10.523438 33.023437 25.597656.761719 2.78125 1.132813 5.652344 1.109375 8.535157zm0 0" fill="#ffecb3"/><path d="m477.867188 205.410156c-3.15625 62.292969-55.210938 74.066406-80.128907 76.03125-24.40625-1.707031-78.847656-13.3125-82.003906-76.628906-.125-2.300781.734375-4.542969 2.363281-6.171875 1.625-1.628906 3.871094-2.488281 6.167969-2.363281h39.425781c2.234375.019531 4.378906.90625 5.972656 2.476562l11.605469 21.84375c.777344.820313 1.859375 1.28125 2.988281 1.28125 1.128907 0 2.207032-.460937 2.984376-1.28125l9.8125-18.429687 9.816406 18.429687c.777344.820313 1.855468 1.28125 2.984375 1.28125 1.128906 0 2.210937-.460937 2.988281-1.28125l11.605469-21.84375c1.59375-1.570312 3.734375-2.457031 5.972656-2.476562h38.910156c2.367188.011718 4.621094 1 6.238281 2.726562 1.613282 1.726563 2.445313 4.046875 2.296876 6.40625zm0 0" fill="#4caf50"/><path d="m341.332031 68.277344c0 9.425781-7.640625 17.066406-17.066406 17.066406s-17.066406-7.640625-17.066406-17.066406c0-9.425782 7.640625-17.066406 17.066406-17.066406s17.066406 7.640624 17.066406 17.066406zm0 0" fill="#00bcd4"/><path d="m460.800781 110.945312c0 9.425782-7.640625 17.066407-17.066406 17.066407s-17.066406-7.640625-17.066406-17.066407c0-9.425781 7.640625-17.066406 17.066406-17.066406s17.066406 7.640625 17.066406 17.066406zm0 0" fill="#00bcd4"/><path d="m179.199219 107.875v20.136719c0 32.988281-26.742188 59.734375-59.734375 59.734375-32.988282 0-59.730469-26.746094-59.730469-59.734375v-20.136719c52.648437-12.800781 59.730469-48.128906 59.730469-48.128906s7.085937 35.328125 59.734375 48.128906zm0 0" fill="#ffecb3"/><path d="m2.023438 356.398438c13.523437 92.910156 94.949218 155.613281 207.289062 155.613281 124.535156 0 218.453125-78.875 218.453125-183.464844.007813-13.019531-1.761719-25.980469-5.261719-38.519531 22.84375-.960938 44.773438-9.238282 62.554688-23.613282 17.007812-15.566406 26.769531-37.507812 26.941406-60.5625.246094-4.730468-1.457031-9.355468-4.710938-12.796874-3.203124-3.410157-7.679687-5.332032-12.355468-5.308594h-64.53125c-4.5.011718-8.816406 1.800781-12.003906 4.984375-.597657.59375-1.105469 1.277343-1.503907 2.019531l-7.046875 13.277344-7.074218-13.277344c-.398438-.742188-.902344-1.425781-1.503907-2.019531-3.183593-3.175781-7.492187-4.96875-11.988281-4.984375h-65.015625c-4.746094-.066406-9.308594 1.839844-12.601563 5.265625-3.113281 3.285156-4.730468 7.710937-4.464843 12.226562.203125 23.105469 10.003906 45.089844 27.050781 60.6875 17.679688 14.429688 39.503906 22.839844 62.292969 24.007813-21.078125 52.460937-50.941407 77.011718-93.363281 77.011718-30.207032 0-39.550782-12.390624-58.179688-37.070312-1.910156-2.558594-3.976562-5.238281-6.066406-7.960938v-202.4375c0-65.976562-53.488282-119.4648432-119.46875-119.4648432-65.976563 0-119.464844 53.4882812-119.464844 119.4648432v231.597657c.00390625 1.117187.230469 2.226562.65625 3.257812.351562.753907.8125 1.449219 1.367188 2.066407zm66.242187-241.996094c20.679687-5.101563 38.84375-17.445313 51.199219-34.792969 12.359375 17.347656 30.523437 29.691406 51.203125 34.792969v13.609375c0 28.277343-22.925781 51.199219-51.203125 51.199219-28.273438 0-51.199219-22.921876-51.199219-51.199219zm51.199219 81.875c5.761718-.019532 11.496094-.773438 17.070312-2.242188v19.308594h-34.136718v-19.308594c5.570312 1.46875 11.308593 2.222656 17.066406 2.242188zm76.800781 34.132812c11.738281-.003906 21.972656 7.988282 24.808594 19.378906.554687 2.027344.820312 4.121094.792969 6.222657v91.527343l-55.1875 55.1875c-3.378907 2.953126-8.472657 2.78125-11.644532-.394531-3.175781-3.175781-3.347656-8.265625-.394531-11.648437l47.660156-47.632813c1.59375-1.613281 2.488281-3.789062 2.5-6.058593v-80.980469c.015625-3.960938-2.710937-7.410157-6.570312-8.304688-3.863281-.890625-7.824219 1.007813-9.550781 4.574219-23.398438-7.542969-48.980469-3.777344-69.214844 10.191406-20.234375-13.953125-45.804688-17.714844-69.203125-10.179687-1.71875-3.578125-5.6875-5.488281-9.554688-4.59375-3.863281.890625-6.597656 4.34375-6.574219 8.3125v80.980469c.015626 2.265624.910157 4.433593 2.5 6.042968l47.660157 47.660156c2.417969 2.089844 3.460937 5.355469 2.707031 8.464844-.75 3.105469-3.179688 5.527344-6.285156 6.28125-3.105469.75-6.375-.296875-8.464844-2.714844l-53.910156-53.914062c-.820313-6.726562-1.246094-13.492188-1.273438-20.265625v-72.535156c-.019531-2.171875.269532-4.335938.855469-6.425781 2.886719-11.300782 13.082031-19.199219 24.746094-19.175782zm128-25.597656h64.523437l10.570313 19.789062c.367187.683594.824219 1.3125 1.359375 1.875 5.085938 5.003907 13.246094 5.003907 18.335938 0 .535156-.558593.992187-1.191406 1.355468-1.875l10.472656-19.789062 64.050782.171875c-.015625 18.445313-7.683594 36.058594-21.179688 48.636719-24.535156 21.675781-61.925781 19.628906-62.292968 19.558594h-.640626c-.355468 0-.707031.019531-1.058593.070312-.472657-.058594-.949219-.074219-1.425781-.042969h-.238282c-.359375 0-37.65625 2.011719-62.558594-20.035156-13.464843-12.492187-21.164062-29.992187-21.273437-48.359375zm-21.085937 179.199219c47.011718 0 81.605468-25.890625 105.328124-78.832031 1.445313 7.707031 2.175782 15.527343 2.183594 23.367187 0 94.863281-86.570312 166.398437-201.386718 166.398437-92.296876 0-161.859376-45.515624-184.40625-115.4375l35.289062 35.285157c6.363281 6.914062 16.007812 9.785156 25.117188 7.480469 9.113281-2.308594 16.226562-9.421876 18.535156-18.535157 2.304687-9.109375-.566406-18.753906-7.480469-25.121093l-45.160156-45.15625v-63.335938c21.050781-8.359375 44.96875-4.773438 62.644531 9.386719.460938.335937.957031.621093 1.476562.855469.296876.203124.605469.390624.929688.554687 1.015625.4375 2.109375.671875 3.214844.691406 1.109375-.015625 2.203125-.25 3.21875-.683593.320312-.164063.632812-.351563.929687-.554688.519531-.234375 1.015625-.519531 1.476563-.855469 17.722656-14.054687 41.578125-17.628906 62.644531-9.386719v63.328126l-45.160156 45.15625c-9.292969 10.101562-8.972657 25.734374.734375 35.441406 9.707031 9.703125 25.339844 10.027344 35.4375.734375l57.6875-57.6875c.789062-.792969 1.417968-1.734375 1.84375-2.773438.425781-1.03125.652344-2.140625.65625-3.257812v-1.042969c15.847656 20.199219 30.71875 33.980469 64.246094 33.980469zm-183.714844-366.933594c56.539062.039063 102.363281 45.863281 102.402344 102.398437v102.445313c-7.382813-5.546875-16.367188-8.542969-25.601563-8.535156h-42.664063v-25.640625c0-.222656-.113281-.410156-.128906-.625 21.167969-12.160156 34.230469-34.695313 34.261719-59.109375v-9.832031c2.472656.429687 4.847656.90625 7.472656 1.230468.351563.046875.707031.070313 1.058594.066406 4.5-.011718 8.214844-3.515624 8.492187-8.003906.277344-4.492187-2.980468-8.425781-7.441406-8.992187-60.527344-7.570313-69.121094-42.804688-69.503906-44.476563 0-.203125-.179688-.347656-.230469-.546875-.222656-.875-.578125-1.714843-1.058593-2.480469-.425782-.554687-.917969-1.050781-1.46875-1.476562-.261719-.308594-.546876-.59375-.851563-.855469-1.890625-1.273437-4.214844-1.730469-6.441406-1.261719-1.101563.226563-2.144531.664063-3.074219 1.289063-.40625.328125-.777344.699219-1.109375 1.101563-.445313.359374-.847656.769531-1.203125 1.21875-.628906.925781-1.066406 1.96875-1.289062 3.0625-.074219.367187-8.039063 36.695312-69.496094 44.375-3.042969.191406-5.753906 1.992187-7.113282 4.726562-1.355468 2.734375-1.152343 5.984375.539063 8.527344 1.6875 2.539062 4.605469 3.988281 7.652344 3.792968.355469.003907.710937-.019531 1.066406-.066406 2.628906-.324218 5-.800781 7.472656-1.230468v9.832031c.03125 24.414062 13.09375 46.949219 34.261719 59.109375 0 .214844-.125.402344-.125.625v25.597656h-42.675781c-9.234375 0-18.214844 2.996094-25.601563 8.535156v-102.402344c.0625-56.527343 45.871094-102.335937 102.398438-102.398437zm0 0"/><path d="m102.398438 128.011719c0 4.714843-3.820313 8.535156-8.53125 8.535156-4.714844 0-8.535157-3.820313-8.535157-8.535156 0-4.710938 3.820313-8.535157 8.535157-8.535157 4.710937 0 8.53125 3.824219 8.53125 8.535157zm0 0"/><path d="m153.601562 128.011719c0 4.714843-3.820312 8.535156-8.535156 8.535156-4.710937 0-8.53125-3.820313-8.53125-8.535156 0-4.710938 3.820313-8.535157 8.53125-8.535157 4.714844 0 8.535156 3.824219 8.535156 8.535157zm0 0"/><path d="m110.933594 162.144531h17.066406c4.710938 0 8.535156-3.820312 8.535156-8.53125 0-4.714843-3.824218-8.535156-8.535156-8.535156h-17.066406c-4.714844 0-8.535156 3.820313-8.535156 8.535156 0 4.710938 3.820312 8.53125 8.535156 8.53125zm0 0"/><path d="m107.117188 291-5.613282 2.816406c-4.8125 2.386719-10.464844 2.386719-15.273437 0l-5.617188-2.816406c-4.21875-2.109375-9.34375-.398438-11.449219 3.820312-2.109374 4.21875-.394531 9.347657 3.820313 11.453126l5.617187 2.808593c9.617188 4.777344 20.914063 4.777344 30.53125 0l5.613282-2.808593c2.730468-1.363282 4.523437-4.078126 4.707031-7.121094.1875-3.046875-1.269531-5.957032-3.8125-7.636719-2.542969-1.683594-5.792969-1.878906-8.523437-.515625zm0 0"/><path d="m175.386719 439.128906-5.617188 2.816406c-4.808593 2.390626-10.460937 2.390626-15.273437 0l-5.613282-2.816406c-4.21875-2.105468-9.347656-.394531-11.453124 3.824219-2.105469 4.214844-.394532 9.34375 3.824218 11.449219l5.613282 2.808594c9.617187 4.777343 20.914062 4.777343 30.53125 0l5.617187-2.808594c2.726563-1.363282 4.523437-4.078125 4.707031-7.121094s-1.269531-5.957031-3.816406-7.636719c-2.542969-1.683593-5.792969-1.878906-8.519531-.515625zm0 0"/><path d="m234.214844 396.460938c-4.21875-2.105469-9.34375-.394532-11.453125 3.824218-2.105469 4.21875-.394531 9.34375 3.824219 11.453125l5.613281 2.804688c9.617187 4.78125 20.917969 4.78125 30.535156 0l5.613281-2.804688c2.730469-1.363281 4.523438-4.078125 4.707032-7.125.183593-3.042969-1.269532-5.953125-3.8125-7.636719-2.546876-1.679687-5.792969-1.878906-8.523438-.515624l-5.613281 2.816406c-4.8125 2.390625-10.464844 2.390625-15.277344 0zm0 0"/><path d="m243.898438 453.175781-5.621094 2.816407c-4.808594 2.386718-10.460938 2.386718-15.265625 0l-5.617188-2.816407c-4.21875-2.109375-9.34375-.394531-11.449219 3.820313-2.109374 4.21875-.398437 9.347656 3.820313 11.453125l5.617187 2.808593c9.613282 4.777344 20.910157 4.777344 30.523438 0l5.621094-2.808593c4.21875-2.105469 5.929687-7.234375 3.824218-11.453125-2.105468-4.214844-7.234374-5.929688-11.453124-3.820313zm0 0"/><path d="m286.566406 428.804688 5.613282 2.804687c9.613281 4.78125 20.910156 4.78125 30.523437 0l5.625-2.804687c4.21875-2.109376 5.929687-7.234376 3.824219-11.453126-2.109375-4.21875-7.234375-5.929687-11.453125-3.824218l-5.621094 2.816406c-4.808594 2.390625-10.460937 2.390625-15.269531 0l-5.613282-2.816406c-4.21875-2.105469-9.34375-.394532-11.453124 3.824218-2.105469 4.21875-.394532 9.34375 3.824218 11.453126zm0 0"/><path d="m160.332031 334.722656 5.617188-2.808594c4.214843-2.105468 5.929687-7.230468 3.820312-11.449218-2.105469-4.21875-7.234375-5.929688-11.449219-3.824219l-5.617187 2.816406c-4.808594 2.390625-10.460937 2.390625-15.273437 0l-5.617188-2.816406c-4.214844-2.105469-9.34375-.394531-11.449219 3.824219s-.394531 9.34375 3.824219 11.449218l5.613281 2.808594c9.617188 4.78125 20.914063 4.78125 30.53125 0zm0 0"/><path d="m324.265625 93.878906c14.140625 0 25.601563-11.460937 25.601563-25.601562 0-14.136719-11.460938-25.597656-25.601563-25.597656-14.136719 0-25.597656 11.460937-25.597656 25.597656 0 14.140625 11.460937 25.601562 25.597656 25.601562zm0-34.132812c4.714844 0 8.535156 3.820312 8.535156 8.53125 0 4.714844-3.820312 8.535156-8.535156 8.535156-4.710937 0-8.53125-3.820312-8.53125-8.535156 0-4.710938 3.820313-8.53125 8.53125-8.53125zm0 0"/><path d="m443.734375 136.546875c14.136719 0 25.597656-11.464844 25.597656-25.601563 0-14.136718-11.460937-25.601562-25.597656-25.601562-14.140625 0-25.601563 11.464844-25.601563 25.601562 0 14.136719 11.460938 25.601563 25.601563 25.601563zm0-34.136719c4.710937 0 8.53125 3.820313 8.53125 8.535156 0 4.710938-3.820313 8.53125-8.53125 8.53125-4.714844 0-8.535156-3.820312-8.535156-8.53125 0-4.714843 3.820312-8.535156 8.535156-8.535156zm0 0"/><path d="m315.734375 110.945312c0 4.710938-3.820313 8.53125-8.535156 8.53125-4.710938 0-8.53125-3.820312-8.53125-8.53125 0-4.714843 3.820312-8.535156 8.53125-8.535156 4.714843 0 8.535156 3.820313 8.535156 8.535156zm0 0"/><path d="m384 68.277344c0 4.714844-3.820312 8.535156-8.535156 8.535156-4.710938 0-8.53125-3.820312-8.53125-8.535156 0-4.710938 3.820312-8.53125 8.53125-8.53125 4.714844 0 8.535156 3.820312 8.535156 8.53125zm0 0"/></svg>