<?xml version="1.0" encoding="iso-8859-1"?>
<!-- Generator: Adobe Illustrator 19.0.0, SVG Export Plug-In . SVG Version: 6.00 Build 0)  -->
<svg version="1.1" id="Layer_1" xmlns="http://www.w3.org/2000/svg" xmlns:xlink="http://www.w3.org/1999/xlink" x="0px" y="0px"
	 viewBox="0 0 512 512" style="enable-background:new 0 0 512 512;" xml:space="preserve">
<path style="fill:#F0D3A3;" d="M363.483,357.315c0,81.042-65.696,146.738-146.738,146.738S70.009,438.356,70.009,357.315v-70.098
	c0-81.04,65.696-146.738,146.738-146.738s146.738,65.696,146.738,146.738v70.098H363.483z"/>
<path style="opacity:0.05;enable-background:new    ;" d="M177.295,472.232c-0.92,0-1.855-0.161-2.769-0.5
	c-23.828-8.86-44.829-25.39-59.134-46.546c-2.458-3.636-1.503-8.576,2.132-11.034c3.636-2.457,8.576-1.502,11.034,2.132
	c12.465,18.436,30.758,32.838,51.507,40.553c4.113,1.529,6.208,6.104,4.679,10.217C183.555,470.254,180.521,472.232,177.295,472.232
	z"/>
<path style="opacity:0.05;enable-background:new    ;" d="M125.594,371.51c-4.145,0-7.636-3.215-7.921-7.41
	c-0.153-2.248-0.229-4.531-0.229-6.784c0-4.389,3.558-7.947,7.946-7.947s7.946,3.558,7.946,7.947c0,1.897,0.065,3.819,0.193,5.711
	c0.297,4.379-3.013,8.169-7.392,8.465C125.956,371.503,125.774,371.51,125.594,371.51z"/>
<path style="opacity:0.05;enable-background:new    ;" d="M145.432,422.291c-2.33,0-4.637-1.019-6.207-2.978
	c-7.852-9.801-13.701-20.819-17.385-32.751c-1.295-4.194,1.056-8.643,5.249-9.937c4.194-1.292,8.643,1.055,9.937,5.249
	c3.092,10.015,8.005,19.269,14.601,27.502c2.744,3.424,2.192,8.426-1.232,11.171C148.929,421.72,147.174,422.291,145.432,422.291z"
	/>
<path style="opacity:0.05;enable-background:new    ;" d="M231.649,492.841c-81.042,0-146.738-65.696-146.738-146.738v-70.098
	c0-44.605,19.908-84.556,51.316-111.469c-39.884,26.23-66.22,71.376-66.22,122.68v70.098c0,81.042,65.696,146.738,146.738,146.738
	c36.436,0,69.765-13.285,95.421-35.269C289.05,483.987,261.386,492.841,231.649,492.841z"/>
<g>
	<path style="fill:#272F37;" d="M108.243,329.888H85.557c-11.533,0-20.882-9.349-20.882-20.882v-87.297h43.568V329.888z"/>
	<path style="fill:#272F37;" d="M114.72,329.888L114.72,329.888c-3.577,0-6.477-2.9-6.477-6.477V221.71h47.579v67.077
		C155.823,311.486,137.421,329.888,114.72,329.888z"/>
</g>
<path style="fill:#00A155;" d="M469.46,246.605c0,21.12-15.153,39.07-21.442,45.61c-1.47,1.528-3.899,1.528-5.369,0
	c-6.287-6.539-21.442-24.49-21.442-45.61s15.153-39.07,21.442-45.61c1.47-1.528,3.899-1.528,5.369,0
	C454.307,207.534,469.46,225.485,469.46,246.605z"/>
<path style="fill:#C39774;" d="M469.028,375.137c14.316,0,25.923-11.606,25.923-25.923c0-14.316-11.606-25.923-25.923-25.923
	H291.116c-14.316,0-25.923,11.606-25.923,25.923c0,14.316,11.606,25.923,25.923,25.923H469.028z"/>
<path style="opacity:0.05;enable-background:new    ;" d="M319.508,352.651h-25.845c-4.39,0-7.946-3.558-7.946-7.947
	s3.557-7.947,7.946-7.947h25.845c4.39,0,7.947,3.558,7.947,7.947C327.454,349.094,323.896,352.651,319.508,352.651z"/>
<path style="opacity:0.05;enable-background:new    ;" d="M417.045,360.959h-55.937c-4.39,0-7.947-3.558-7.947-7.947
	s3.557-7.947,7.947-7.947h55.937c4.39,0,7.946,3.558,7.946,7.947S421.435,360.959,417.045,360.959z"/>
<path style="fill:#C39774;" d="M231.646,390.232c-5.97,0-10.486,5.427-9.382,11.295c5.292,28.124,29.985,49.401,59.646,49.401
	c29.662,0,54.354-21.276,59.646-49.401c1.104-5.868-3.412-11.295-9.382-11.295H231.646z"/>
<path style="opacity:0.1;enable-background:new    ;" d="M249.105,416.705c-7.085,0-13.965,0.861-20.563,2.445
	c10.276,18.925,30.32,31.776,53.369,31.776c10.87,0,21.066-2.867,29.89-7.87C295.864,426.801,273.668,416.705,249.105,416.705z"/>
<path style="fill:#C39774;" d="M108.243,282.32c0-3.898-3.41-6.967-7.276-6.467c-27.627,3.569-48.971,27.181-48.971,55.78
	c0,28.598,21.343,52.212,48.971,55.78c3.866,0.499,7.276-2.569,7.276-6.467V282.32z"/>
<path style="opacity:0.2;enable-background:new    ;" d="M216.746,140.479c-57.497,0-107.261,33.074-131.328,81.23H64.675v46.372
	h297.568C352.865,196.083,291.301,140.479,216.746,140.479z"/>
<path style="fill:#DE2A4E;" d="M369.972,256.488H64.097c-15.323,0-24.992-16.479-17.52-29.856l0,0
	C80.219,166.409,89.49,95.579,72.482,28.726l0,0C69.131,15.553,82.116,4.129,94.754,9.13l87.025,34.437
	c88.136,34.877,161.074,99.84,205.878,183.368l0,0C394.828,240.303,385.142,256.488,369.972,256.488z"/>
<path style="opacity:0.1;enable-background:new    ;" d="M69.691,235.673c33.885-68.655,40.157-147.688,17.526-220.829l0,0
	c-0.713-2.304-0.956-4.582-0.811-6.765C77.124,9.333,69.88,18.499,72.481,28.724l0,0c17.009,66.853,7.737,137.684-25.906,197.907
	l0,0c-7.473,13.377,2.197,29.855,17.519,29.855h6.178C66.845,250.437,66.181,242.787,69.691,235.673L69.691,235.673z
	 M312.107,256.488h57.865c4.34,0,8.228-1.329,11.404-3.533L312.107,256.488z"/>
<path style="fill:#FDD05F;" d="M83.441,99.023c27.93,27.93,41.107,63.725,46.898,85.286c2.434,9.06-5.857,17.351-14.917,14.917
	c-21.561-5.792-57.357-18.968-85.286-46.898c-0.766-0.766-1.52-1.537-2.264-2.314c-33.615-35.126,18.131-86.871,53.255-53.255
	C81.903,97.503,82.676,98.257,83.441,99.023z"/>
<path style="opacity:0.15;enable-background:new    ;" d="M89.849,166.682c-2.033,0-4.068-0.776-5.619-2.328l-32.186-32.186
	c-3.103-3.103-3.103-8.135,0-11.237c3.103-3.103,8.135-3.103,11.237,0l32.186,32.186c3.103,3.103,3.103,8.135,0,11.237
	C93.916,165.906,91.882,166.682,89.849,166.682z"/>
<path d="M469.028,315.345h-33.262l15.964-15.964c0.727-0.476,1.409-1.026,2.017-1.658c7.114-7.398,23.659-27.189,23.659-51.118
	c0-23.928-16.546-43.719-23.659-51.117c-2.19-2.279-5.256-3.585-8.413-3.585c-3.156,0-6.222,1.306-8.412,3.585
	c-7.114,7.399-23.66,27.19-23.66,51.117c0,21.101,12.864,38.978,20.784,47.983l-20.756,20.757h-41.859v-28.127
	c0-7.622-0.575-15.25-1.69-22.782h0.23c9.947,0,18.933-5.095,24.041-13.63c5.107-8.535,5.35-18.863,0.647-27.627
	c-45.631-85.069-120.194-151.48-209.957-187L97.679,1.741C89.04-1.677,79.345,0.012,72.374,6.147
	c-6.973,6.135-9.882,15.537-7.593,24.538c4.225,16.609,6.797,33.632,7.694,50.782C54.632,73.723,35.42,79.671,23.103,91.99
	C7.42,107.672,2.05,134.526,22.132,155.509c0.782,0.817,1.577,1.629,2.385,2.438c10.319,10.318,21.599,18.717,32.974,25.559
	c-4.857,13.534-10.845,26.712-17.851,39.251c-4.898,8.77-4.788,19.178,0.296,27.841c3.801,6.476,9.808,10.999,16.795,12.871v29.929
	c-7.984,10.748-12.678,24.019-12.678,38.233c0,17.802,7.365,34.123,19.334,45.859C73.387,454.379,138.801,512,216.748,512
	c75.785,0,140.15-54.94,152.536-128.917h99.745c18.675,0,33.869-15.194,33.869-33.869
	C502.897,330.538,487.703,315.345,469.028,315.345z M429.155,246.605c0-15.43,9.716-29.262,16.18-36.756
	c6.463,7.493,16.179,21.326,16.179,36.756c0,15.431-9.715,29.263-16.179,36.756C438.871,275.868,429.155,262.035,429.155,246.605z
	 M35.758,146.713c-0.726-0.727-1.441-1.458-2.146-2.193c-13.703-14.319-9.508-31.056,0.728-41.292
	c6.685-6.685,13.936-9.426,20.817-9.426c7.741,0,15.014,3.471,20.477,8.699c0.734,0.704,1.464,1.417,2.188,2.141
	c27.229,27.229,39.783,62.894,44.843,81.729c0.572,2.131-0.573,3.568-1.093,4.088c-0.519,0.52-1.954,1.667-4.088,1.093
	C98.648,186.492,62.984,173.938,35.758,146.713z M53.642,242.555c-2.2-3.749-2.247-8.252-0.128-12.047
	c7.025-12.576,13.071-25.761,18.066-39.295c15.084,7.482,29.698,12.442,41.781,15.689c1.768,0.475,3.553,0.708,5.314,0.708
	c5.242,0,10.283-2.059,14.136-5.912c5.147-5.147,7.093-12.418,5.203-19.449c-6.685-24.882-20.603-60.493-48.954-88.844
	c-0.112-0.112-0.227-0.22-0.34-0.333c-0.17-22.387-3.033-44.675-8.537-66.306c-0.823-3.235,0.181-6.483,2.688-8.688
	c2.507-2.206,5.855-2.788,8.958-1.56l87.025,34.436c86.273,34.14,157.941,97.971,201.799,179.736
	c2.065,3.848,1.963,8.206-0.28,11.954c-2.243,3.749-6.034,5.897-10.402,5.897H64.097C59.749,248.541,55.842,246.304,53.642,242.555z
	 M111.265,271.437c-3.105-2.729-7.229-3.995-11.316-3.466c-10.061,1.3-19.338,4.922-27.327,10.276v-13.813h75.254v24.351
	c0,17.79-14.084,32.346-31.686,33.119V282.32C116.19,278.154,114.395,274.187,111.265,271.437z M59.943,331.632
	c0-23.639,17.23-43.829,40.353-47.65v14.978c-14.72,3.581-25.683,16.867-25.683,32.673c0,15.806,10.964,29.093,25.683,32.673v14.978
	C77.173,375.461,59.943,355.272,59.943,331.632z M100.297,315.797v31.669c-5.796-2.921-9.79-8.914-9.79-15.835
	C90.507,324.711,94.501,318.719,100.297,315.797z M216.746,496.107c-64.868,0-120.059-44.471-134.88-105.956
	c5.628,2.546,11.694,4.32,18.083,5.144c0.61,0.078,1.221,0.118,1.83,0.118c3.466,0,6.845-1.261,9.486-3.583
	c3.13-2.752,4.925-6.719,4.925-10.884v-43.147c26.368-0.782,47.579-22.459,47.579-49.012v-24.351h189.889
	c0.77,4.664,1.302,9.375,1.597,14.102c-5.752-3.841-12.656-6.085-20.076-6.085c-19.988,0-36.25,16.262-36.25,36.25
	c0,2.78,1.429,5.222,3.591,6.643h-11.404c-18.675,0-33.869,15.194-33.869,33.869c0,16.174,11.398,29.728,26.583,33.071h-52.184
	c-5.223,0-10.132,2.307-13.467,6.329c-3.331,4.017-4.688,9.259-3.724,14.382c6.093,32.377,34.462,55.878,67.456,55.878
	c16.73,0,32.264-6.051,44.315-16.23C300.674,475.349,260.87,496.107,216.746,496.107z M355.537,308.702v6.643h-44.305
	c2.161-1.42,3.591-3.863,3.591-6.643c0-11.225,9.132-20.357,20.357-20.357C346.405,288.345,355.537,297.477,355.537,308.702z
	 M333.749,400.057c-4.682,24.871-26.482,42.924-51.838,42.924c-25.356,0-47.157-18.052-51.838-42.925
	c-0.112-0.599,0.122-1.035,0.339-1.297c0.22-0.265,0.612-0.581,1.233-0.581h100.53c0.621,0,1.013,0.316,1.233,0.581
	C333.626,399.021,333.86,399.458,333.749,400.057z M349.538,397.788c-0.378-3.334-1.696-6.524-3.896-9.174
	c-2.201-2.653-5.093-4.54-8.301-5.531h15.797C352.199,388.09,350.994,392.996,349.538,397.788z M469.028,367.19H291.116
	c-9.912,0-17.976-8.064-17.976-17.976c0-9.912,8.063-17.976,17.976-17.976h177.911c9.911,0,17.976,8.064,17.976,17.976
	C487.004,359.126,478.939,367.19,469.028,367.19z M453.281,256.97v-20.731c0-4.389-3.557-7.946-7.947-7.946
	s-7.947,3.558-7.947,7.946v20.731c0,4.389,3.557,7.946,7.947,7.946S453.281,261.359,453.281,256.97z M238.573,308.702
	c0,4.389,3.558,7.947,7.946,7.947s7.947-3.558,7.947-7.947c0-19.988-16.262-36.25-36.25-36.25s-36.25,16.262-36.25,36.25
	c0,4.389,3.558,7.947,7.947,7.947c4.389,0,7.946-3.558,7.946-7.947c0-11.225,9.132-20.357,20.357-20.357
	C229.442,288.345,238.573,297.477,238.573,308.702z"/>
<g>
</g>
<g>
</g>
<g>
</g>
<g>
</g>
<g>
</g>
<g>
</g>
<g>
</g>
<g>
</g>
<g>
</g>
<g>
</g>
<g>
</g>
<g>
</g>
<g>
</g>
<g>
</g>
<g>
</g>
</svg>
