<svg height="480pt" viewBox="0 -4 480.00001 480" width="480pt" xmlns="http://www.w3.org/2000/svg"><path d="m232 207.96875h-56v-136h104l8 136" fill="#f0cfb1"/><path d="m296 39.96875h-120v72c0 8.839844 7.164062 16 16 16s16-7.160156 16-16v-40h88c8.835938 0 16-7.160156 16-16 0-8.835938-7.164062-16-16-16zm0 0" fill="#ad2943"/><path d="m176 207.96875h32v32h-32zm0 0" fill="#f0cfb1"/><path d="m228.425781 168.816406 31.996094-16 7.15625 14.3125-32 16zm0 0" fill="#ad2943"/><path d="m320 395.472656v68.496094h-200v-192c0-17.671875 14.328125-32 32-32h88l1.921875-.320312zm0 0" fill="#127bab"/><path d="m291.28125 239.96875h44.71875c17.671875 0 32 14.328125 32 32v8c.007812 3.042969-.5625 6.054688-1.679688 8.882812l-47.441406 118.640626-.558594 1.359374c-3.640624 9.136719-12.484374 15.128907-22.320312 15.117188-.800781 0-1.601562 0-2.398438-.078125-10.605468-1.105469-19.226562-9.042969-21.203124-19.519531l-30.476563-164.722656-5.121094-27.679688c-1.183593-6.257812.175781-12.734375 3.777344-17.988281 3.605469-5.257813 9.15625-8.859375 15.421875-10.011719 1.453125-.25 2.925781-.382812 4.398438-.398438 11.5625-.003906 21.480468 8.234376 23.601562 19.601563zm0 0" fill="#168fba"/><path d="m160 303.96875h16v160h-16zm0 0" fill="#168fba"/><path d="m283.4375 241.53125 15.683594-3.125 20.71875 103.996094-15.683594 3.125zm0 0" fill="#127bab"/><g fill="#4e4e4e"><path d="m408 103.96875h-16v-8.613281c.097656-14.363281 7.8125-27.589844 20.265625-34.746094 9.777344-5.792969 14.152344-17.652344 10.472656-28.410156-3.675781-10.757813-14.394531-17.457031-25.675781-16.054688-10.574219 1.355469-19.007812 9.484375-20.75 20-.199219 1.265625-.304688 2.546875-.3125 3.824219h-16c0-2.105469.164062-4.207031.488281-6.285156 2.929688-18.3125 18.058594-32.210938 36.554688-33.574219 18.496093-1.367187 35.5 10.160156 41.085937 27.84375 5.585938 17.683594-1.71875 36.886719-17.640625 46.394531-7.601562 4.285156-12.355469 12.28125-12.488281 21.007813zm0 0"/><path d="m392 119.96875h16v16h-16zm0 0"/><path d="m24 191.96875c-.035156-10.914062 6.027344-20.9375 15.710938-25.972656 6.074218-3.328125 9.304687-10.195313 8-16.992188-1.257813-6.476562-6.324219-11.542968-12.800782-12.800781-4.679687-.867187-9.5.394531-13.15625 3.441406-3.65625 3.050781-5.765625 7.566407-5.753906 12.324219h-16c-.015625-15.613281 11.242188-28.957031 26.636719-31.574219 15.390625-2.617187 30.425781 6.257813 35.574219 20.996094 5.148437 14.742187-1.09375 31.046875-14.769532 38.578125-4.375 2.113281-7.230468 6.453125-7.441406 11.304688zm0 0"/><path d="m24 207.96875h16v16h-16zm0 0"/><path d="m440 279.96875c-.035156-10.914062 6.027344-20.9375 15.710938-25.972656 6.074218-3.328125 9.304687-10.195313 8-16.992188-1.257813-6.476562-6.324219-11.542968-12.800782-12.800781-4.679687-.867187-9.5.394531-13.15625 3.441406-3.65625 3.050781-5.765625 7.566407-5.753906 12.324219h-16c.003906-15.605469 11.273438-28.933594 26.660156-31.539062 15.390625-2.605469 30.414063 6.277343 35.554688 21.015624 5.140625 14.738282-1.101563 31.035157-14.773438 38.566407-4.359375 2.101562-7.21875 6.425781-7.441406 11.261719zm0 0"/><path d="m440 295.96875h16v16h-16zm0 0"/><path d="m112 71.96875h-16v-2.101562c.230469-9.402344 4.964844-18.121094 12.726562-23.433594 3.042969-2.230469 4.117188-6.28125 2.574219-9.722656-1.542969-3.441407-5.277343-5.339844-8.96875-4.554688-3.6875.785156-6.328125 4.042969-6.332031 7.8125h-16c0-11.320312 7.910156-21.097656 18.980469-23.46875 11.066406-2.367188 22.285156 3.320312 26.917969 13.648438 4.632812 10.332031 1.417968 22.492187-7.714844 29.183593-3.597656 2.347657-5.886719 6.246094-6.183594 10.535157zm0 0"/><path d="m96 87.472656h16v16h-16zm0 0"/></g><path d="m112 271.96875v192c0 4.417969 3.582031 8 8 8h200c4.417969 0 8-3.582031 8-8v-56h-.734375l46.445313-116.117188c1.511718-3.78125 2.285156-7.8125 2.289062-11.882812v-8c-.027344-22.078125-17.917969-39.972656-40-40h-38.144531l-4.800781-24.292969 2.945312-.175781-7.519531-127.53125h7.519531c13.253906 0 24-10.742188 24-24 0-13.253906-10.746094-24-24-24h-120c-4.417969 0-8 3.582031-8 8v192h-16c-22.082031.027344-39.972656 17.921875-40 40zm64 184v-152h-16v152h-32v-184c0-13.253906 10.746094-24 24-24h83.304688l29.222656 157.832031c2.644531 13.980469 14.164062 24.5625 28.320312 26.007813 1.046875.109375 2.101563.164062 3.152344.160156 5.625-.011719 11.144531-1.511719 16-4.351562v28.351562zm53.375-240 2.960938 16h-16.335938v-16zm90.625 32h16c13.253906 0 24 10.746094 24 24v8c.003906 2.042969-.390625 4.0625-1.152344 5.953125l-48 120c-2.648437 6.609375-9.34375 10.675781-16.429687 9.972656-7.085938-.703125-12.855469-6.003906-14.152344-13.003906l-35.632813-192.398437c-1.582031-8.699219 4.191407-17.03125 12.886719-18.609376 8.699219-1.582031 17.027344 4.191407 18.609375 12.886719l28 140.800781 15.679688-3.121093-18.769532-94.480469zm-41.601562-66.816406c-8.652344-5.925782-19.667969-7.222656-29.460938-3.464844s-17.117188 12.085938-19.585938 22.28125h-45.351562v-65.46875c2.5625.945312 5.269531 1.445312 8 1.46875 13.253906 0 24-10.742188 24-24v-32h56.457031zm-94.398438-101.183594h16v32c0 4.417969-3.582031 8-8 8s-8-3.582031-8-8zm0-32h112c4.417969 0 8 3.582031 8 8s-3.582031 8-8 8h-112zm0 168h16v16h-16zm0 0"/><path d="m228.425781 168.816406 31.996094-16 7.15625 14.3125-32 16zm0 0"/><path d="m376.296875 36.121094c1.742187-10.515625 10.175781-18.644532 20.75-20 6.851563-.875 13.746094 1.269531 18.890625 5.882812 5.726562 5.082032 8.6875 12.597656 7.960938 20.222656-.726563 7.625-5.046876 14.445313-11.632813 18.359376-12.460937 7.160156-20.175781 20.398437-20.265625 34.769531v8.613281h16v-8.613281c.132812-8.710938 4.875-16.695313 12.457031-20.984375 15.921875-9.507813 23.226563-28.710938 17.640625-46.394532-5.585937-17.683593-22.59375-29.207031-41.085937-27.84375-18.496094 1.363282-33.625 15.261719-36.554688 33.574219-.3125 2.074219-.464843 4.167969-.457031 6.261719h16c0-1.285156.101562-2.574219.296875-3.847656zm0 0"/><path d="m392 119.96875h16v16h-16zm0 0"/><path d="m21.71875 139.707031c3.671875-3.085937 8.535156-4.359375 13.25-3.472656 6.476562 1.261719 11.539062 6.324219 12.800781 12.800781 1.300781 6.800782-1.929687 13.664063-8 16.992188-9.699219 5.015625-15.78125 15.027344-15.769531 25.941406l16-.695312c.222656-4.835938 3.082031-9.160157 7.441406-11.261719 13.671875-7.53125 19.914063-23.828125 14.773438-38.566407-5.140625-14.738281-20.164063-23.621093-35.554688-21.015624-15.386718 2.605468-26.65624975 15.933593-26.660156 31.539062h16c0-4.730469 2.09375-9.222656 5.71875-12.261719zm0 0"/><path d="m24 207.96875h16v16h-16zm0 0"/><path d="m416 239.96875h16c-.003906-4.765625 2.117188-9.285156 5.785156-12.328125 3.667969-3.039063 8.5-4.289063 13.183594-3.40625 6.476562 1.261719 11.539062 6.324219 12.800781 12.800781 1.300781 6.800782-1.929687 13.664063-8 16.992188-9.699219 5.015625-15.78125 15.027344-15.769531 25.941406l16-.695312c.222656-4.835938 3.082031-9.160157 7.441406-11.261719 13.671875-7.53125 19.914063-23.828125 14.773438-38.566407-5.140625-14.738281-20.164063-23.621093-35.554688-21.015624-15.386718 2.605468-26.65625 15.933593-26.660156 31.539062zm0 0"/><path d="m440 295.96875h16v16h-16zm0 0"/><path d="m104 31.96875c3.464844-.003906 6.542969 2.222656 7.617188 5.515625 1.078124 3.292969-.089844 6.90625-2.890626 8.949219-7.761718 5.3125-12.496093 14.03125-12.726562 23.433594v2.101562h16v-2.101562c.296875-4.289063 2.585938-8.1875 6.183594-10.535157 9.132812-6.691406 12.347656-18.851562 7.714844-29.183593-4.632813-10.328126-15.851563-16.015626-26.917969-13.648438-11.070313 2.371094-18.980469 12.148438-18.980469 23.46875h16c0-4.417969 3.582031-8 8-8zm0 0"/><path d="m96 87.472656h16v16h-16zm0 0"/></svg>