<svg height="512pt" viewBox="-30 0 512 512.00018" width="512pt" xmlns="http://www.w3.org/2000/svg"><path d="m383.914062 337.921875c.058594 15.375-6.726562 29.976563-18.515624 39.847656l-133.378907 112.984375c-9.726562 8.179688-22.019531 12.679688-34.730469 12.710938-12.699218.027344-25.011718-4.378906-34.8125-12.457032l-134.316406-111.957031c-11.84375-9.824219-18.746094-24.378906-18.859375-39.765625l-.765625-245.417968c.039063-13.65625 10.535156-25.007813 24.148438-26.113282 47.359375-4.011718 101.714844-28.671875 139.261718-52.480468 3.339844-2.117188 6.957032-3.753907 10.753907-4.863282 4.050781-1.171875 8.242187-1.800781 12.457031-1.875h.34375c8.222656-.003906 16.285156 2.269532 23.292969 6.570313 37.71875 23.550781 92.078125 49.152343 139.523437 52.820312 13.644532.976563 24.261719 12.257813 24.402344 25.941407zm0 0" fill="#7f34a9"/><path d="m358.316406 337.921875c.054688 15.375-6.730468 29.976563-18.519531 39.847656l-133.375 112.984375c-6.695313 4.929688-14.164063 8.707032-22.101563 11.175782-8.046874-1.847657-15.539062-5.59375-21.84375-10.921876l-134.316406-111.957031c-11.84375-9.824219-18.746094-24.378906-18.859375-39.765625l-.765625-245.417968c.039063-13.65625 10.535156-25.007813 24.148438-26.113282 47.359375-4.011718 101.714844-28.671875 139.261718-52.480468 3.339844-2.117188 6.957032-3.753907 10.753907-4.863282 3.6875 1.105469 7.214843 2.679688 10.496093 4.695313 37.714844 23.550781 92.074219 49.152343 139.519532 52.820312 13.648437.976563 24.261718 12.257813 24.40625 25.941407zm0 0" fill="#ae44bd"/><path d="m347.136719 102.398438.332031 55.640624.851562 180.050782c.03125 5.433594-2.34375 10.605468-6.484374 14.125l-133.390626 112.921875c-.5.421875-1.027343.8125-1.570312 1.175781-6.445312 4.433594-15.058594 4.007812-21.035156-1.042969l-122.796875-102.449219-11.425781-9.539062c-4.21875-3.480469-6.660157-8.664062-6.65625-14.132812l-.765626-236.75c55.003907-5.792969 109.550782-34.625 147.371094-58.664063 1.199219-.660156 2.539063-1.027344 3.90625-1.066406 1.363282.003906 2.699219.386719 3.859375 1.109375 38.066407 23.679687 92.753907 53.230468 147.804688 58.621094zm0 0" fill="#00b7f6"/><path d="m347.46875 158.039062.851562 180.050782c.03125 5.433594-2.34375 10.605468-6.484374 14.125l-133.390626 112.921875c-.5.421875-1.027343.8125-1.570312 1.175781-6.445312 4.433594-15.058594 4.007812-21.035156-1.042969l-122.796875-102.449219c19.875-70.519531 83.140625-186.179687 284.425781-204.78125zm0 0" fill="#008ac7"/><path d="m443.734375 392.535156v34.132813c0 4.710937-3.820313 8.53125-8.535156 8.53125h-51.199219c-4.710938 0-8.535156 3.820312-8.535156 8.535156v51.199219c0 4.710937-3.820313 8.53125-8.53125 8.53125h-34.132813c-4.714843 0-8.535156-3.820313-8.535156-8.53125v-51.199219c0-4.714844-3.820313-8.535156-8.53125-8.535156h-51.199219c-4.714844 0-8.535156-3.820313-8.535156-8.53125v-34.132813c0-4.714844 3.820312-8.535156 8.535156-8.535156h51.199219c4.710937 0 8.53125-3.820312 8.53125-8.535156v-51.199219c0-4.710937 3.820313-8.53125 8.535156-8.53125h34.132813c4.710937 0 8.53125 3.820313 8.53125 8.53125v51.199219c0 4.714844 3.824218 8.535156 8.535156 8.535156h51.199219c4.714843 0 8.535156 3.820312 8.535156 8.535156zm0 0" fill="#388c41"/><path d="m418.132812 392.535156v34.132813c0 4.710937-3.820312 8.53125-8.53125 8.53125h-51.203124c-4.710938 0-8.53125 3.820312-8.53125 8.535156v51.199219c0 4.710937-3.820313 8.53125-8.535157 8.53125h-8.53125c-4.714843 0-8.535156-3.820313-8.535156-8.53125v-51.199219c0-4.714844-3.820313-8.535156-8.53125-8.535156h-51.199219c-4.714844 0-8.535156-3.820313-8.535156-8.53125v-34.132813c0-4.714844 3.820312-8.535156 8.535156-8.535156h51.199219c4.710937 0 8.53125-3.820312 8.53125-8.535156v-51.199219c0-4.710937 3.820313-8.53125 8.535156-8.53125h8.53125c4.714844 0 8.535157 3.820313 8.535157 8.53125v51.199219c0 4.714844 3.820312 8.535156 8.53125 8.535156h51.203124c4.710938 0 8.53125 3.820312 8.53125 8.535156zm0 0" fill="#5ab862"/><path d="m267.28125 243.652344 14.320312-64.453125-41.4375 41.4375c-2.09375 2.09375-5.117187 2.953125-7.996093 2.273437-2.878907-.679687-5.203125-2.800781-6.136719-5.609375l-29.765625-89.300781-29.761719 89.300781c-.9375 2.808594-3.257812 4.929688-6.136718 5.609375-2.878907.679688-5.90625-.179687-7.996094-2.273437l-41.4375-41.4375 14.320312 64.453125c.601563 2.765625-.203125 5.648437-2.152344 7.699218-1.949218 2.050782-4.785156 3-7.578124 2.539063l-38.722657-6.425781 35.164063 35.167968c4.804687 4.804688 11.316406 7.5 18.109375 7.5h132.386719c6.789062 0 13.304687-2.695312 18.105468-7.5l35.167969-35.167968-38.726563 6.453125c-2.796874.464843-5.640624-.492188-7.589843-2.546875-1.949219-2.058594-2.75-4.953125-2.136719-7.71875zm0 0" fill="#ffc900"/><path d="m366.933594 512h-34.132813c-9.425781 0-17.066406-7.640625-17.066406-17.066406v-51.199219h-51.199219c-9.425781 0-17.070312-7.640625-17.070312-17.066406v-34.132813c0-9.425781 7.644531-17.070312 17.070312-17.070312h51.199219v-51.199219c0-9.425781 7.640625-17.066406 17.066406-17.066406h34.132813c9.425781 0 17.066406 7.640625 17.066406 17.066406v51.199219h51.199219c9.425781 0 17.066406 7.644531 17.066406 17.070312v34.132813c0 9.425781-7.640625 17.066406-17.066406 17.066406h-51.199219v51.199219c0 9.425781-7.640625 17.066406-17.066406 17.066406zm-102.398438-119.464844v34.132813h51.199219c9.425781 0 17.066406 7.640625 17.066406 17.066406v51.199219h34.132813v-51.199219c0-9.425781 7.640625-17.066406 17.066406-17.066406h51.199219v-34.132813h-51.199219c-9.425781 0-17.066406-7.644531-17.066406-17.070312v-51.199219h-34.132813v51.199219c0 9.425781-7.640625 17.070312-17.066406 17.070312zm0 0"/><path d="m196.265625 477.867188c-1.703125.0625-3.40625-.179688-5.023437-.71875-3.304688-1.597657-6.34375-3.683594-9.019532-6.195313l-138.242187-112.425781c-6.125-4.824219-9.742188-12.15625-9.847657-19.949219l.222657-237.3125c.003906-4.355469 3.289062-8.007813 7.621093-8.472656 62.90625-6.761719 125.277344-41.261719 149.171876-55.773438l.742187-.460937c2.710937-1.640625 6.109375-1.640625 8.820313 0l.761718.46875c23.894532 14.503906 86.1875 48.996094 149.121094 55.765625 4.328125.464843 7.613281 4.117187 7.617188 8.472656l.136718 180.335937c0 4.710938-3.820312 8.53125-8.53125 8.53125-4.714844 0-8.535156-3.820312-8.535156-8.53125l-.160156-172.792968c-60.585938-8.480469-118.785156-39.492188-144.855469-54.988282-26.945313 15.964844-84.75 46.582032-144.851563 54.988282l-.214843 229.777344c.121093 2.660156 1.425781 5.128906 3.558593 6.722656l138.242188 112.4375c1.433594 1.160156 2.507812 1.988281 3.273438 2.558594.753906-.5625 1.835937-1.398438 3.289062-2.558594l16.929688-13.773438c2.355468-2 5.609374-2.570312 8.503906-1.492187 2.898437 1.082031 4.984375 3.644531 5.453125 6.699219.46875 3.058593-.75 6.128906-3.1875 8.027343l-16.933594 13.765625c-2.667969 2.480469-5.683594 4.566406-8.949219 6.1875-.632812.246094-1.292968.425782-1.964844.527344-1.042968.136719-2.09375.199219-3.148437.179688zm0 0"/><path d="m196.265625 512c-13.3125.035156-26.101563-5.175781-35.601563-14.507812l-138.203124-112.46875c-14.125-11.289063-22.382813-28.363282-22.460938-46.445313l.230469-244.710937c.378906-18.316407 14.6875-33.308594 32.964843-34.542969 59.125-4.609375 122.238282-40.550781 140.175782-51.480469 6.621094-4.570312 14.34375-7.277344 22.367187-7.84375h1.058594c8.015625.558594 15.738281 3.261719 22.355469 7.824219 17.921875 10.914062 81.066406 46.875 140.1875 51.484375 18.285156 1.234375 32.59375 16.234375 32.964844 34.558594l.175781 187.734374c0 4.710938-3.820313 8.53125-8.53125 8.53125-4.714844 0-8.535157-3.820312-8.535157-8.53125l-.175781-187.734374c-.339843-9.421876-7.808593-17.027344-17.222656-17.535157-62.90625-4.90625-128.972656-42.507812-147.71875-53.914062-4.109375-3.011719-8.957031-4.863281-14.03125-5.351563-5.070313.488282-9.917969 2.332032-14.027344 5.34375-18.773437 11.40625-84.8125 49.003906-147.722656 53.910156-9.414063.511719-16.882813 8.125-17.21875 17.546876l-.230469 244.71875c.09375 12.941406 6.035156 25.148437 16.164063 33.203124l138.238281 112.425782c6.449219 6.835937 15.429688 10.710937 24.828125 10.710937s18.378906-3.875 24.828125-10.710937l26.453125-21.496094c2.347656-2.050781 5.628906-2.660156 8.558594-1.582031 2.929687 1.074219 5.035156 3.664062 5.496093 6.75.460938 3.085937-.800781 6.175781-3.285156 8.058593l-26.453125 21.503907c-9.496093 9.355469-22.300781 14.585937-35.628906 14.550781zm0 0"/><path d="m262.460938 298.667969h-132.386719c-9.058594.023437-17.753907-3.578125-24.140625-10.003907l-35.167969-35.164062c-2.617187-2.625-3.242187-6.636719-1.546875-9.933594 1.695312-3.292968 5.324219-5.117187 8.980469-4.511718l38.722656 6.449218-14.316406-64.453125c-.820313-3.703125.898437-7.5 4.222656-9.328125 3.324219-1.824218 7.457031-1.234375 10.136719 1.445313l41.441406 41.429687 29.761719-89.292968c1.152343-3.503907 4.421875-5.871094 8.105469-5.871094 3.6875 0 6.957031 2.367187 8.109374 5.871094l29.761719 89.292968 41.441407-41.429687c2.679687-2.679688 6.8125-3.269531 10.136718-1.445313 3.324219 1.828125 5.042969 5.625 4.222656 9.328125l-14.320312 64.480469 38.734375-6.476562c3.652344-.582032 7.265625 1.230468 8.984375 4.503906 1.699219 3.296875 1.074219 7.316406-1.550781 9.941406l-35.167969 35.164062c-6.394531 6.433594-15.097656 10.035157-24.164062 10.003907zm-160.804688-38.402344 16.34375 16.34375c3.195312 3.207031 7.542969 5.003906 12.074219 4.992187h132.386719c4.53125.007813 8.875-1.792968 12.074218-5.003906l16.339844-16.332031-12.464844 2.074219c-5.59375.929687-11.285156-.980469-15.183594-5.097656-3.898437-4.113282-5.5-9.898438-4.273437-15.433594l7.960937-35.839844-20.71875 20.710938c-4.183593 4.179687-10.230468 5.898437-15.984374 4.539062-5.753907-1.355469-10.398438-5.59375-12.269532-11.203125l-21.675781-65.035156-21.671875 65.015625c-1.875 5.613281-6.515625 9.855468-12.273438 11.214844-5.757812 1.355468-11.808593-.363282-15.992187-4.546876l-20.707031-20.710937 7.960937 35.839844c1.226563 5.535156-.375 11.320312-4.277343 15.4375-3.902344 4.117187-9.59375 6.023437-15.1875 5.09375zm0 0"/><path d="m273.066406 332.800781h-153.601562c-4.710938 0-8.53125-3.820312-8.53125-8.535156 0-4.710937 3.820312-8.53125 8.53125-8.53125h153.601562c4.714844 0 8.535156 3.820313 8.535156 8.53125 0 4.714844-3.820312 8.535156-8.535156 8.535156zm0 0"/></svg>