<svg height="512pt" viewBox="-26 0 512 512.10611" width="512pt" xmlns="http://www.w3.org/2000/svg"><path d="m251.914062 435.304688h-140.925781v34.132812h187.730469v-3.625c-18.335938-5.183594-34.660156-15.824219-46.804688-30.507812zm0 0" fill="#bfa885"/><path d="m401.121094 204.90625c.1875 32.53125-8.230469 64.53125-24.40625 92.757812-6.292969-4.234374-13.085938-7.675781-20.222656-10.242187 12.660156-25.65625 19.175781-53.90625 19.027343-82.515625-.007812-103.484375-80.367187-189.179688-183.636719-195.839844 54.1875-3.589844 107.441407 15.433594 147.089844 52.542969 39.648438 37.109375 62.148438 88.992187 62.148438 143.296875zm0 0" fill="#bfa885"/><path d="m375.519531 204.90625c.148438 28.609375-6.367187 56.859375-19.027343 82.515625-10.304688-3.785156-21.195313-5.722656-32.171876-5.714844-4.3125-.03125-8.621093.28125-12.886718.9375-33.679688 4.667969-62.199219 27.183594-74.558594 58.859375-12.359375 31.675782-6.621094 67.558594 14.996094 93.800782h-140.882813c-14.140625 0-25.601562-11.460938-25.601562-25.597657v-34.390625c-.101563-12.242187-5.480469-23.84375-14.761719-31.828125-39.554688-34.683593-62.175781-84.78125-62.039062-137.386719-.160157-101.539062 76.789062-186.613281 177.835937-196.609374 1.792969-.171876 3.667969-.339844 5.460937-.425782 103.269532 6.660156 183.628907 92.355469 183.636719 195.839844zm0 0" fill="#ffe0b2"/><path d="m356.492188 287.421875c-1.621094 3.5-3.414063 6.914063-5.378907 10.242187-11.878906-8.019531-25.464843-13.160156-39.679687-15.019531 4.265625-.65625 8.574218-.96875 12.886718-.9375 10.976563-.007812 21.867188 1.929688 32.171876 5.714844zm0 0" fill="#bfa885"/><path d="m187.789062 231.785156c0 50.089844-34.136718 58.453125-59.734374 58.453125-3.367188.035157-6.722657-.367187-9.984376-1.195312-10.410156-2.898438-15.617187-10.835938-15.617187-23.890625.722656-27.074219 18.875-50.574219 44.886719-58.113282 20.566406-6.144531 40.449218.597657 40.449218 24.746094zm0 0" fill="#4e342e"/><path d="m307.253906 265.152344c.6875 7.582031-2.292968 15.035156-8.019531 20.050781-4.527344 1.25-8.949219 2.847656-13.230469 4.78125-1.449218.085937-2.8125.253906-4.351562.253906-5.980469.039063-11.953125-.503906-17.832032-1.621093-21.25-4.179688-41.898437-17.832032-41.898437-56.832032-1.097656-10.628906 4.949219-20.710937 14.847656-24.746094 24.488281-9.726562 70.484375 15.191407 70.484375 58.113282zm0 0" fill="#4e342e"/><path d="m162.1875 231.785156c0 40.363282-22.101562 53.589844-44.117188 57.257813-10.410156-2.898438-15.617187-10.835938-15.617187-23.890625.722656-27.074219 18.875-50.574219 44.886719-58.113282 9.898437 4.035157 15.945312 14.117188 14.847656 24.746094zm0 0" fill="#795548"/><path d="m281.652344 265.152344c.6875 7.582031-2.292969 15.035156-8.019532 20.050781-3.34375.921875-6.621093 2.0625-9.8125 3.414063-21.25-4.179688-41.898437-17.832032-41.898437-56.832032-1.097656-10.628906 4.949219-20.710937 14.847656-24.746094 26.011719 7.539063 44.160157 31.039063 44.882813 58.113282zm0 0" fill="#795548"/><path d="m298.71875 469.4375c.011719 9.058594-3.578125 17.746094-9.984375 24.148438-6.402344 6.40625-15.089844 10-24.148437 9.988281h-119.464844c-18.851563 0-34.132813-15.285157-34.132813-34.136719zm0 0" fill="#bfa885"/><path d="m273.121094 469.4375c.011718 9.058594-3.582032 17.746094-9.984375 24.148438-6.40625 6.40625-15.09375 10-24.148438 9.988281h-93.867187c-18.851563 0-34.132813-15.285157-34.132813-34.136719zm0 0" fill="#ffe0b2"/><path d="m418.1875 375.574219c.011719 24.898437-9.871094 48.78125-27.476562 66.386719-17.609376 17.605468-41.492188 27.492187-66.390626 27.476562-4.285156.035156-8.566406-.277344-12.800781-.9375-46.441406-6.371094-81.050781-46.050781-81.050781-92.925781 0-46.878907 34.609375-86.558594 81.050781-92.929688 4.234375-.65625 8.515625-.972656 12.800781-.9375 24.898438-.015625 48.78125 9.871094 66.390626 27.476563 17.605468 17.605468 27.488281 41.488281 27.476562 66.390625zm0 0" fill="#37474f"/><path d="m392.585938 375.574219c0-51.324219-36.292969-92.929688-81.066407-92.929688-44.769531 0-81.066406 41.605469-81.066406 92.929688 0 51.320312 36.296875 92.925781 81.066406 92.925781 44.773438 0 81.066407-41.605469 81.066407-92.925781zm0 0" fill="#607d8b"/><path d="m324.320312 392.640625c-20.136718 13.394531-24.40625 21.589844-25.34375 36.949219-8.679687-4.027344-16.257812-10.085938-22.101562-17.664063 0 0-.085938 0 0-.085937-19.554688-25.546875-15.367188-61.988282 9.472656-82.433594 6.207032-5.03125 13.335938-8.796875 20.992188-11.09375 2.558594 25.261719 41.726562 57.773438 16.980468 74.328125zm0 0" fill="#bfa885"/><path d="m299.0625 389.824219c-9.378906 5.027343-17.085938 12.675781-22.1875 22.015625-19.554688-25.546875-15.367188-61.988282 9.472656-82.433594 10.152344 22.359375 33.109375 46.765625 12.714844 60.417969zm0 0" fill="#ffe0b2"/><path d="m384.054688 375.574219c0 1.652343-.085938 3.304687-.257813 4.949219-.417969 6.101562-1.832031 12.097656-4.179687 17.746093-9.210938 22.421875-31.058594 37.054688-55.296876 37.035157-8.769531.011718-17.429687-1.941407-25.34375-5.714844.9375-15.359375 5.207032-23.554688 25.34375-36.949219.175782-.066406.324219-.183594.425782-.34375 5.199218-3.1875 8.164062-9.023437 7.679687-15.101563-.9375-17.238281-23.210937-40.109374-25.085937-58.882812 5.507812-1.648438 11.230468-2.484375 16.980468-2.472656 15.84375 0 31.035157 6.292968 42.238282 17.496094 11.203125 11.199218 17.496094 26.394531 17.496094 42.238281zm0 0" fill="#00bcd4"/><path d="m447.320312 474.441406-45.6875-45.6875c-6.507812 9.445313-14.6875 17.625-24.132812 24.128906l45.6875 45.6875c6.695312 6.46875 17.339844 6.378907 23.925781-.207031 6.582031-6.582031 6.675781-17.226562.207031-23.921875zm0 0" fill="#dc6c33"/><path d="m170.71875 477.972656c-4.710938 0-8.53125-3.820312-8.53125-8.535156v-68.265625c0-4.710937 3.820312-8.53125 8.53125-8.53125 4.714844 0 8.535156 3.820313 8.535156 8.53125v68.265625c0 4.714844-3.820312 8.535156-8.535156 8.535156zm0 0"/><path d="m204.855469 477.972656c-4.714844 0-8.535157-3.820312-8.535157-8.535156v-59.730469c0-4.714843 3.820313-8.535156 8.535157-8.535156 4.710937 0 8.53125 3.820313 8.53125 8.535156v59.730469c0 4.714844-3.820313 8.535156-8.53125 8.535156zm0 0"/><path d="m179.253906 358.507812c-3.105468-.003906-5.964844-1.691406-7.464844-4.410156s-1.40625-6.035156.246094-8.664062c4.546875-6.09375 7.070313-13.457032 7.21875-21.0625 0-4.710938 3.820313-8.53125 8.535156-8.53125 4.710938 0 8.53125 3.820312 8.53125 8.53125-.152343 10.8125-3.582031 21.324218-9.839843 30.140625-1.5625 2.488281-4.289063 3.996093-7.226563 3.996093zm0 0"/><path d="m230.453125 358.507812c-2.9375 0-5.671875-1.507812-7.234375-3.996093-6.253906-8.820313-9.683594-19.328125-9.832031-30.140625 0-4.710938 3.820312-8.53125 8.535156-8.53125 4.710937 0 8.53125 3.820312 8.53125 8.53125.148437 7.605468 2.675781 14.96875 7.226563 21.0625 1.652343 2.628906 1.746093 5.949218.246093 8.667968-1.503906 2.71875-4.367187 4.40625-7.472656 4.40625zm0 0"/><path d="m110.988281 195.519531c-3.753906.003907-7.066406-2.445312-8.167969-6.035156-1.097656-3.589844.277344-7.472656 3.386719-9.574219 21.84375-15.410156 49.183594-20.875 75.273438-15.042968 4.550781 1.230468 7.242187 5.917968 6.011719 10.464843-1.230469 4.550781-5.914063 7.242188-10.464844 6.011719-21.304688-4.539062-43.535156.074219-61.269532 12.714844-1.410156.953125-3.070312 1.460937-4.769531 1.460937zm0 0"/><path d="m44.246094 323.324219c-3.285156 0-6.277344-1.890625-7.695313-4.855469s-1.003906-6.480469 1.058594-9.039062c16.324219-20.492188 26.214844-45.363282 28.414063-71.472657.390624-3.027343 2.359374-5.613281 5.171874-6.789062 2.8125-1.179688 6.039063-.765625 8.464844 1.082031 2.425782 1.847656 3.683594 4.847656 3.296875 7.875-2.652343 29.234375-13.800781 57.054688-32.070312 80.03125-1.621094 2.003906-4.0625 3.167969-6.640625 3.167969zm0 0"/><path d="m99.511719 198.234375c-5.980469-.007813-11.847657-1.628906-16.984375-4.6875-8.921875-5.191406-14.847656-14.3125-15.964844-24.574219-3.753906-33.902344-12.261719-66.246094-21.667969-82.398437-2.242187-4.058594-.832031-9.167969 3.175781-11.503907 4.011719-2.332031 9.148438-1.035156 11.570313 2.917969 12.757813 21.90625 20.703125 60.390625 23.894531 89.097657.546875 4.917968 3.398438 9.285156 7.679688 11.769531 4.4375 2.640625 9.863281 3.019531 14.625 1.023437.78125-.335937 1.535156-.734375 2.246094-1.195312 21.515624-14.515625 48.0625-19.515625 73.386718-13.824219 4.550782 1.230469 7.242188 5.914063 6.011719 10.464844s-5.917969 7.242187-10.464844 6.011719c-20.671875-4.453126-42.265625-.230469-59.734375 11.683593-1.566406 1.023438-3.222656 1.898438-4.949218 2.621094-4.0625 1.699219-8.421876 2.582031-12.824219 2.59375zm0 0"/><path d="m128.054688 298.773438c-21.691407 0-34.132813-12.246094-34.132813-33.589844 1.035156-36.96875 30.320313-66.929688 67.257813-68.8125 9.007812-.316406 17.804687 2.785156 24.621093 8.6875 7.214844 6.957031 11.054688 16.707031 10.519531 26.71875 0 43.203125-24.242187 66.996094-68.265624 66.996094zm33.125-85.335938c-27.515626 1.847656-49.1875 24.1875-50.191407 51.746094 0 12.042968 4.625 16.523437 17.066407 16.523437 34.925781 0 51.199218-15.863281 51.199218-49.929687.429688-5.203125-1.378906-10.339844-4.976562-14.121094-3.707032-2.953125-8.363282-4.449219-13.097656-4.21875zm0 0"/><path d="m128.054688 332.90625c-13.609376.222656-27.007813-3.382812-38.664063-10.402344-2.59375-1.617187-4.125-4.496094-4.019531-7.546875.105468-3.054687 1.832031-5.816406 4.527344-7.253906 2.695312-1.433594 5.953124-1.324219 8.542968.292969 8.929688 5.367187 19.199219 8.085937 29.613282 7.84375 5.328124.007812 10.648437-.335938 15.929687-1.023438 3.046875-.457031 6.101563.761719 7.996094 3.191406 1.890625 2.429688 2.328125 5.691407 1.144531 8.53125-1.1875 2.84375-3.8125 4.824219-6.871094 5.1875-6.03125.796876-12.113281 1.191407-18.199218 1.179688zm0 0"/><path d="m298.71875 195.519531c-1.699219 0-3.359375-.507812-4.769531-1.460937-17.734375-12.640625-39.964844-17.253906-61.269531-12.714844-4.550782 1.230469-9.234376-1.460938-10.464844-6.011719-1.230469-4.546875 1.460937-9.234375 6.011718-10.464843 26.089844-5.835938 53.425782-.375 75.273438 15.035156 3.117188 2.097656 4.5 5.988281 3.398438 9.582031-1.097657 3.59375-4.417969 6.042969-8.179688 6.035156zm0 0"/><path d="m346.933594 292.988281c-3.410156 0-6.496094-2.03125-7.84375-5.164062-6.335938-15.238281-10.492188-31.300781-12.335938-47.699219-.601562-4.675781 2.703125-8.953125 7.378906-9.550781 4.675782-.597657 8.953126 2.707031 9.550782 7.382812 1.65625 14.816407 5.390625 29.332031 11.09375 43.109375 1.863281 4.324219-.128906 9.34375-4.457032 11.210938-1.066406.46875-2.21875.710937-3.386718.710937zm0 0"/><path d="m310.199219 198.234375c-4.417969.003906-8.792969-.867187-12.871094-2.5625-1.726563-.722656-3.382813-1.601563-4.949219-2.628906-17.46875-11.910157-39.0625-16.128907-59.730468-11.671875-4.550782 1.230468-9.238282-1.460938-10.46875-6.011719-1.230469-4.550781 1.460937-9.234375 6.011718-10.464844 25.320313-5.6875 51.867188-.691406 73.386719 13.8125.710937.46875 1.457031.871094 2.238281 1.203125 4.761719 2.003906 10.195313 1.625 14.632813-1.023437 4.285156-2.476563 7.140625-6.84375 7.679687-11.765625 3.191406-28.707032 11.09375-67.191406 23.894532-89.097656 2.421874-3.957032 7.5625-5.25 11.570312-2.917969 4.007812 2.335937 5.417969 7.441406 3.175781 11.503906-9.386719 16.152344-17.921875 48.492187-21.675781 82.398437-1.109375 10.261719-7.035156 19.386719-15.957031 24.574219-5.128907 3.039063-10.976563 4.644531-16.9375 4.652344zm0 0"/><path d="m204.855469 145.171875c-4.714844 0-8.535157-3.820313-8.535157-8.53125v-12.519531c.011719-5.171875 2.066407-10.132813 5.71875-13.796875l4.367188-4.371094c.519531-.519531.78125-1.246094.707031-1.980469-.074219-.730468-.46875-1.390625-1.082031-1.800781-5.550781-3.714844-8.816406-10.011719-8.65625-16.6875.160156-6.679687 3.71875-12.8125 9.441406-16.257813l2.183594-1.316406c.882812-.527344 1.34375-1.550781 1.152344-2.5625-.191406-1.011718-.988282-1.796875-2.003906-1.96875-7.847657-1.308594-14.679688-6.101562-18.585938-13.035156-3.902344-6.933594-4.460938-15.257812-1.511719-22.648438l8.882813-22.1875c1.816406-4.273437 6.71875-6.308593 11.03125-4.582031 4.308594 1.726563 6.445312 6.585938 4.808594 10.929688l-8.875 22.1875c-1.035157 2.59375-.839844 5.511719.527343 7.945312 1.371094 2.433594 3.769531 4.113281 6.519531 4.574219 8.070313 1.347656 14.445313 7.582031 15.96875 15.621094 1.523438 8.035156-2.125 16.171875-9.140624 20.378906l-2.191407 1.316406c-.722656.433594-1.167969 1.207032-1.1875 2.046875-.019531.839844.394531 1.632813 1.09375 2.097657 4.863281 3.246093 8.015625 8.503906 8.589844 14.320312.578125 5.820312-1.488281 11.59375-5.621094 15.726562l-4.371093 4.371094c-.449219.453125-.703126 1.066406-.714844 1.707032v12.492187c0 4.703125-3.8125 8.523437-8.515625 8.53125zm0 0"/><path d="m264.585938 512.105469h-119.464844c-23.554688-.027344-42.640625-19.113281-42.667969-42.667969 0-4.710938 3.820313-8.53125 8.535156-8.53125h187.730469c4.714844 0 8.535156 3.820312 8.535156 8.53125-.027344 23.554688-19.113281 42.640625-42.667968 42.667969zm-143.605469-34.132813c3.628906 10.21875 13.292969 17.054688 24.140625 17.066406h119.464844c10.847656-.011718 20.511718-6.847656 24.140624-17.066406zm0 0"/><path d="m324.320312 477.972656c-41.417968 0-78.753906-24.949218-94.605468-63.214844-15.847656-38.261718-7.089844-82.308593 22.199218-111.59375 29.285157-29.285156 73.328126-38.046874 111.59375-22.195312 38.265626 15.847656 63.210938 53.1875 63.210938 94.605469-.058594 56.527343-45.871094 102.335937-102.398438 102.398437zm0-187.734375c-47.128906 0-85.332031 38.207031-85.332031 85.335938 0 47.125 38.203125 85.332031 85.332031 85.332031 47.128907 0 85.332032-38.207031 85.332032-85.332031-.050782-47.109375-38.226563-85.28125-85.332032-85.335938zm0 0"/><path d="m324.320312 443.839844c-37.703124 0-68.265624-30.566406-68.265624-68.265625 0-37.703125 30.5625-68.269531 68.265624-68.269531 37.703126 0 68.265626 30.566406 68.265626 68.269531-.042969 37.683593-30.582032 68.222656-68.265626 68.265625zm0-119.46875c-20.707031 0-39.378906 12.476562-47.300781 31.609375-7.925781 19.132812-3.546875 41.152343 11.097657 55.796875 14.640624 14.640625 36.664062 19.023437 55.796874 11.097656 19.132813-7.925781 31.605469-26.59375 31.605469-47.300781-.027343-28.265625-22.933593-51.171875-51.199219-51.203125zm0 0"/><path d="m435.253906 512.105469c-6.796875.019531-13.316406-2.683594-18.109375-7.5l-45.675781-45.679688c-1.792969-1.792969-2.699219-4.289062-2.464844-6.8125.230469-2.523437 1.570313-4.8125 3.65625-6.25 8.597656-5.917969 16.035156-13.355469 21.949219-21.949219 1.4375-2.089843 3.730469-3.429687 6.253906-3.660156 2.527344-.207031 5.015625.691406 6.828125 2.464844l45.679688 45.679688c7.328125 7.324218 9.519531 18.339843 5.550781 27.910156-3.964844 9.570312-13.308594 15.804687-23.667969 15.796875zm-44.835937-58.359375 38.804687 38.792968c3.371094 3.226563 8.6875 3.226563 12.0625 0 3.332032-3.332031 3.332032-8.734374 0-12.066406l-38.789062-38.800781c-3.6875 4.351563-7.726563 8.390625-12.078125 12.074219zm0 0"/><path d="m281.652344 298.773438c-44.023438 0-68.265625-23.792969-68.265625-66.996094-.535157-10.011719 3.304687-19.761719 10.523437-26.71875 6.8125-5.902344 15.609375-9.003906 24.617188-8.6875 36.9375 1.882812 66.222656 31.84375 67.261718 68.8125.742188 10.210937-3.449218 20.164062-11.273437 26.761718-.886719.691407-1.898437 1.203126-2.980469 1.503907-4.128906 1.136719-8.167968 2.582031-12.082031 4.324219-.839844.375-1.730469.613281-2.644531.710937-1.710938.183594-3.433594.277344-5.15625.289063zm-33.125-85.335938c-4.734375-.230469-9.390625 1.265625-13.097656 4.21875-3.597657 3.78125-5.40625 8.917969-4.976563 14.121094 0 34.066406 16.273437 49.929687 51.199219 49.929687.742187 0 1.445312-.050781 2.136718-.113281 3.679688-1.574219 7.449219-2.9375 11.289063-4.078125 2.804687-3.460937 4.117187-7.898437 3.640625-12.332031-1.003906-27.558594-22.675781-49.898438-50.191406-51.746094zm0 0"/><path d="m251.914062 443.839844h-140.925781c-18.851562 0-34.132812-15.28125-34.132812-34.132813v-34.40625c-.140625-9.785156-4.46875-19.039062-11.886719-25.414062-41.398438-36.265625-65.070312-88.675781-64.9140625-143.710938-.2304685-106.003906 80.1171875-194.835937 185.6171875-205.214843 57.515625-5.609376 114.699219 13.546874 157.234375 52.667968 42.46875 38.839844 66.683594 93.722656 66.746094 151.277344.242187 34.042969-8.59375 67.53125-25.597656 97.023438-1.183594 2.050781-3.164063 3.515624-5.46875 4.046874-2.308594.53125-4.730469.082032-6.691407-1.238281-35.175781-23.605469-82.339843-17.835937-110.785156 13.550781-28.445313 31.390626-29.558594 78.894532-2.613281 111.582032 2.101562 2.546875 2.546875 6.082031 1.140625 9.070312-1.410157 2.992188-4.417969 4.898438-7.722657 4.898438zm-46.855468-426.667969c-5.90625 0-11.851563.285156-17.835938.855469-96.667968 9.519531-170.292968 90.910156-170.101562 188.046875-.15625 50.160156 21.402344 97.933593 59.117187 131.003906 11.109375 9.609375 17.550781 23.535156 17.683594 38.222656v34.40625c0 9.425781 7.640625 17.066407 17.066406 17.066407h124.652344c-22.960937-39.757813-16.652344-89.941407 15.433594-122.78125 32.089843-32.835938 82.109375-40.304688 122.390625-18.265626 12.761718-25.019531 19.320312-52.738281 19.121094-80.820312-.054688-52.757812-22.253907-103.070312-61.183594-138.675781-34.433594-31.679688-79.554688-49.203125-126.34375-49.058594zm0 0"/><path d="m298.71875 477.972656h-187.730469c-4.714843 0-8.535156-3.820312-8.535156-8.535156v-34.132812c0-4.710938 3.820313-8.53125 8.535156-8.53125h140.925781c2.546876 0 4.957032 1.136718 6.582032 3.097656 11.019531 13.367187 25.867187 23.042968 42.546875 27.734375 3.671875 1.035156 6.210937 4.390625 6.210937 8.207031v3.625c0 4.714844-3.820312 8.535156-8.535156 8.535156zm-179.199219-17.066406h148.214844c-7.28125-4.820312-13.914063-10.554688-19.734375-17.066406h-128.480469zm0 0"/><path d="m298.976562 438.105469h-.519531c-4.703125-.285157-8.289062-4.324219-8.003906-9.027344 1.140625-19.226563 7.941406-29.398437 29.132813-43.519531 7.601562-5.070313 5-12.65625-6.707032-32.890625-6.898437-10.097657-11.660156-21.503907-13.988281-33.507813-.304687-3.035156 1.03125-6 3.507813-7.78125 2.472656-1.78125 5.710937-2.105468 8.488281-.851562 2.78125 1.25 4.679687 3.890625 4.984375 6.925781 2.257812 9.53125 6.25 18.566406 11.785156 26.648437 9.96875 17.230469 23.613281 40.824219 1.398438 55.628907-18.71875 12.476562-20.871094 18.527343-21.570313 30.335937-.261719 4.507813-3.992187 8.03125-8.507813 8.039063zm0 0"/><path d="m352.855469 401.804688c-9.347657.175781-18.515625-2.621094-26.171875-7.988282-3.859375-2.714844-4.785156-8.046875-2.070313-11.90625 2.71875-3.859375 8.050781-4.789062 11.910157-2.070312 11.75 8.292968 26.179687 4.625 43.84375-1.03125 4.492187-1.4375 9.296874 1.039062 10.730468 5.53125 1.433594 4.492187-1.042968 9.296875-5.535156 10.730468-10.488281 3.914063-21.523438 6.183594-32.707031 6.734376zm0 0"/><path d="m238.988281 477.972656c-4.714843 0-8.535156-3.820312-8.535156-8.535156v-54.714844c0-4.710937 3.820313-8.53125 8.535156-8.53125 4.710938 0 8.53125 3.820313 8.53125 8.53125v54.714844c0 4.714844-3.820312 8.535156-8.53125 8.535156zm0 0"/></svg>