<?xml version="1.0" encoding="iso-8859-1"?>
<!-- Generator: Adobe Illustrator 19.0.0, SVG Export Plug-In . SVG Version: 6.00 Build 0)  -->
<svg version="1.1" id="Capa_1" xmlns="http://www.w3.org/2000/svg" xmlns:xlink="http://www.w3.org/1999/xlink" x="0px" y="0px"
	 viewBox="0 0 512.001 512.001" style="enable-background:new 0 0 512.001 512.001;" xml:space="preserve">
<path style="fill:#BF6015;" d="M371.781,433.89c-23.23-11.61-42.06-30.44-53.67-53.67l-2.11-4.22h-120l-2.11,4.22
	c-11.61,23.23-30.44,42.06-53.67,53.67l-4.22,2.11h60v40l40-20l20,46l20-46l40,20v-40h60L371.781,433.89z"/>
<path style="fill:#3D4370;" d="M502.001,166c0,60.75-9.25,110-70,110c-54.58,0-132.17-39.75-147.36-91.88
	c-3.864-13.254-3.263-28.546,0.22-40.95c5.28-18.85,17.63-30.38,34.6-37.31c19.36-7.93,44.74-9.86,72.54-9.86
	c27.8,0,53.18,1.93,72.54,9.86C487.501,115.24,502.001,133.04,502.001,166z"/>
<polygon style="fill:#BF6015;" points="442.001,50 422.001,10 392.001,50 362.001,10 342.001,50 302.001,30 319.461,105.85 
	319.461,105.86 464.541,105.86 464.541,105.85 482.001,30 "/>
<path style="fill:#7FD5EB;" d="M392.001,136c70,0,70,13.91,70,30c0,70-13.91,70-30,70c-47.29,0-110-39.9-110-70
	C322.001,149.91,322.001,136,392.001,136z"/>
<path style="fill:#3D4370;" d="M227.361,184.12c-15.19,52.13-92.78,91.88-147.36,91.88c-60.75,0-70-49.25-70-110
	c0-60.743,49.25-70,110-70c44.663,0,95.034,3.949,107.14,47.17C230.684,155.787,231.171,171.051,227.361,184.12z"/>
<path style="fill:#FFC478;" d="M316.291,296l-31.95-111.8l0.52-41.03c-6.48-4.52-20.36-7.17-28.86-7.17
	c-8.5,0-22.38,2.65-28.86,7.17l0.22,40.95l0.3,0.08L195.711,296c-33.01,0.16-59.71,26.96-59.71,60c0,11.05,8.95,20,20,20
	c22.034,0,39.805,0,61.84,0l0.01-0.01c10.521,7.607,23.87,12.29,38.15,12.29c14.263,0,27.615-4.673,38.15-12.29l0.01,0.01
	c22.035,0,39.806,0,61.84,0c11.05,0,20-8.95,20-20C376.001,322.96,349.301,296.16,316.291,296z"/>
<polygon style="fill:#BF6015;" points="170.001,50 150.001,10 120.001,50 90.001,10 70.001,50 30.001,30 47.461,105.85 
	47.461,105.86 192.541,105.86 192.541,105.85 210.001,30 "/>
<path style="fill:#7FD5EB;" d="M120.001,136c70,0,70,13.91,70,30c0,30.1-62.71,70-110,70c-16.09,0-30,0-30-70
	C50.001,149.91,50.001,136,120.001,136z"/>
<path d="M275.001,325.938c5.929,0.589,10.99-4.031,10.99-9.938c0-5.53-4.452-9.99-9.99-9.99c-5.53,0-9.99,4.452-9.99,9.99
	C266.011,321.143,269.881,325.43,275.001,325.938z"/>
<path d="M255.001,365.938c5.929,0.589,10.99-4.031,10.99-9.938c0-5.53-4.452-9.99-9.99-9.99c-5.53,0-9.99,4.452-9.99,9.99
	C246.011,361.143,249.881,365.43,255.001,365.938z"/>
<path d="M226.011,316c0,5.143,3.869,9.43,8.99,9.938c5.929,0.589,10.99-4.031,10.99-9.938c0-5.53-4.452-9.99-9.99-9.99
	C230.472,306.01,226.011,310.462,226.011,316z"/>
<path d="M186.565,136.495c-11.571-7.258-32.1-10.495-66.564-10.495s-54.993,3.237-66.564,10.495
	C40.001,144.923,40.001,157.607,40.001,166c0,34.464,3.237,54.993,10.495,66.564C58.924,246,71.608,246,80.001,246
	c49.569,0,120-41.375,120-80C200.001,157.607,200.001,144.923,186.565,136.495z M147.367,203.85
	c-21.47,13.662-47.283,22.149-67.365,22.149c-8.244,0-10.233-0.35-12.563-4.064c-4.935-7.867-7.438-26.686-7.438-55.935
	c0-8.244,0.35-10.233,4.064-12.563c7.868-4.935,26.687-7.438,55.936-7.438s48.068,2.502,55.936,7.438
	c3.714,2.33,4.064,4.318,4.064,12.563C180.001,176.219,166.887,191.43,147.367,203.85z"/>
<path d="M476.096,100.234l15.651-67.991c0.869-3.773-0.519-7.708-3.561-10.102c-3.043-2.395-7.195-2.817-10.656-1.085
	l-31.056,15.528L430.946,5.528c-1.55-3.1-4.595-5.176-8.046-5.487c-3.452-0.315-6.818,1.187-8.898,3.959l-22,29.333L370.001,4
	c-2.08-2.772-5.451-4.272-8.898-3.959c-3.452,0.311-6.497,2.388-8.046,5.487l-15.528,31.056l-31.056-15.528
	c-3.461-1.731-7.613-1.308-10.656,1.085c-3.042,2.395-4.43,6.329-3.561,10.102l15.652,67.996
	c-13.16,6.999-22.766,16.869-28.693,29.478c-8.354-2.634-17.637-3.718-23.214-3.718s-14.86,1.083-23.214,3.718
	c-5.928-12.612-15.534-22.482-28.692-29.479l15.652-67.995c0.869-3.773-0.519-7.708-3.561-10.102
	c-3.043-2.395-7.195-2.817-10.656-1.085l-31.056,15.528L158.946,5.528c-1.55-3.1-4.595-5.176-8.046-5.487
	c-3.453-0.315-6.818,1.187-8.898,3.959l-22,29.333L98.001,4c-2.08-2.772-5.448-4.272-8.898-3.959
	c-3.452,0.311-6.497,2.388-8.046,5.487L65.529,36.583L34.474,21.056c-3.461-1.731-7.613-1.308-10.656,1.085
	c-3.042,2.395-4.43,6.329-3.561,10.102l15.651,67.991C12.071,112.915,0.001,134.998,0.001,166c0,27.483,1.576,58.746,13.266,82.236
	C25.737,273.294,48.189,286,80.001,286c28.842,0,63.795-10.377,93.501-27.76c10.594-6.199,20.098-13.004,28.387-20.258
	l-13.853,48.481c-34.835,3.981-62.035,33.703-62.035,69.537c0,16.542,13.458,29.9,30,29.9h23.078
	c-10.652,16.527-25.704,30.236-43.33,39.046l-4.22,2.11c-4.148,2.074-6.326,6.728-5.261,11.242s5.095,7.703,9.732,7.703h50v30
	c0,3.466,1.794,6.685,4.743,8.506c2.948,1.822,6.63,1.988,9.729,0.438l30.563-15.282l15.793,36.325
	c1.587,3.651,5.189,6.013,9.171,6.013c3.981,0,7.583-2.362,9.171-6.013l15.793-36.325l30.563,15.282
	c3.101,1.55,6.781,1.384,9.729-0.438s4.743-5.041,4.743-8.506v-30h50c4.638,0,8.667-3.189,9.732-7.703s-1.112-9.168-5.261-11.242
	l-4.221-2.11c-17.624-8.809-32.676-22.418-43.329-38.945h23.082c16.542,0,30-13.458,30-30c0-35.818-27.176-65.53-62.03-69.531
	l-13.856-48.484c8.289,7.253,17.791,14.057,28.384,20.255c29.706,17.383,64.66,27.76,93.501,27.76
	c31.812,0,54.264-12.706,66.734-37.764c11.69-23.49,13.266-54.753,13.266-82.236C512.001,134.998,499.932,112.915,476.096,100.234z
	 M337.529,58.944c4.938,2.469,10.946,0.467,13.417-4.472l12.764-25.528L384.001,56c1.889,2.518,4.853,4,8,4s6.111-1.482,8-4
	l20.292-27.056l12.764,25.528c2.471,4.94,8.478,6.943,13.417,4.472l21.023-10.512l-10.223,44.41
	c-20.96-5.959-45.405-6.843-65.273-6.843c-19.87,0-44.318,0.884-65.273,6.842l-10.223-44.409L337.529,58.944z M273.38,148.829
	c-0.911,5.381-1.279,11.122-1.279,17.171c0,2.429-0.243,10.898,0.284,12.744c0.365,1.277,31.519,110.291,36.063,126.189
	c0.04,0.139,0.082,0.276,0.128,0.413c7.774,23.292-0.812,48.595-20.284,62.54c-8.918,6.449-20.299,10.394-32.291,10.394
	c-11.591,0-23.031-3.699-32.328-10.42c-19.839-14.206-27.975-39.33-20.245-62.518c0.134-0.404,28.038-98.069,36.189-126.598
	c0.527-1.846,0.284-10.315,0.284-12.744c0-6.049-0.368-11.79-1.279-17.171c5.119-1.63,12.005-2.829,17.379-2.829
	C261.376,146,268.262,147.199,273.38,148.829z M65.529,58.944c4.938,2.469,10.946,0.467,13.417-4.472L91.71,28.944L112.001,56
	c4.002,5.336,12.007,5.324,16,0l20.292-27.056l12.764,25.528c2.47,4.94,8.477,6.943,13.417,4.472l21.023-10.512l-10.223,44.41
	c-20.96-5.959-45.405-6.843-65.273-6.843c-19.869,0-44.317,0.884-65.273,6.842L44.506,48.433L65.529,58.944z M80.001,266
	c-24.257,0-39.772-8.476-48.829-26.674C21.271,219.429,20.001,189.687,20.001,166c0-26.363,9.635-42.056,31.25-50.886
	c19.721-8.078,47.1-9.114,68.75-9.114s49.028,1.036,68.759,9.118c15.514,6.335,24.65,16.106,28.751,30.75
	c0,0.002,0.001,0.003,0.001,0.005C219.163,151.753,220,158.525,220,166c0,5.067-0.754,10.222-2.241,15.323
	C204.093,228.228,131.223,266,80.001,266z M146.001,356c0-22.693,15.276-41.947,36.053-48.007
	c-2.588,12.744-1.826,25.847,2.289,38.375c2.325,7.08,5.629,13.666,9.783,19.632h-38.125C150.487,366,146.001,361.514,146.001,356z
	 M341.766,426h-25.765c-5.523,0-10,4.477-10,10v23.82l-25.528-12.764c-2.456-1.228-5.308-1.393-7.887-0.455
	c-2.58,0.938-4.661,2.895-5.756,5.412l-10.829,24.907l-10.829-24.907c-1.095-2.517-3.176-4.474-5.756-5.412
	c-2.579-0.937-5.431-0.772-7.887,0.455l-25.528,12.764V436c0-5.523-4.477-10-10-10h-25.764c13.12-11.063,24.052-24.696,31.923-40
	h12.614c12.368,8.095,26.823,12.28,41.227,12.28c14.379,0,28.836-4.169,41.229-12.28h12.612
	C317.714,401.304,328.645,414.937,341.766,426z M366.001,356c0,5.514-4.486,10-10,10h-38.162
	c11.58-16.619,16.231-37.505,12.103-58.001C350.736,314.066,366.001,333.314,366.001,356z M480.83,239.326
	C471.774,257.524,456.258,266,432.001,266c-51.221,0-124.091-37.771-137.76-84.679c-1.486-5.099-2.24-10.253-2.24-15.321
	c0-7.475,0.837-14.247,2.489-20.133c4.102-14.643,13.238-24.414,28.761-30.753c19.721-8.078,47.1-9.114,68.75-9.114
	s49.028,1.036,68.75,9.114c0.003,0.001,0.006,0.002,0.008,0.003c21.607,8.827,31.242,24.52,31.242,50.883
	C492.001,189.687,490.731,219.429,480.83,239.326z"/>
<path d="M458.565,136.495c-11.571-7.258-32.1-10.495-66.564-10.495s-54.993,3.237-66.564,10.495
	c-13.436,8.428-13.436,21.112-13.436,29.505c0,38.625,70.431,80,120,80c8.393,0,21.077,0,29.505-13.436
	c7.258-11.571,10.495-32.1,10.495-66.564C472.001,157.607,472.001,144.923,458.565,136.495z M444.564,221.936
	c-2.33,3.714-4.318,4.064-12.562,4.064c-20.082,0-45.895-8.487-67.365-22.149c-19.521-12.421-32.636-27.632-32.636-37.851
	c0-8.244,0.35-10.233,4.064-12.563c7.868-4.935,26.687-7.438,55.936-7.438s48.068,2.502,55.936,7.438
	c3.714,2.33,4.064,4.318,4.064,12.563C452.001,195.249,449.499,214.068,444.564,221.936z"/>
<g>
</g>
<g>
</g>
<g>
</g>
<g>
</g>
<g>
</g>
<g>
</g>
<g>
</g>
<g>
</g>
<g>
</g>
<g>
</g>
<g>
</g>
<g>
</g>
<g>
</g>
<g>
</g>
<g>
</g>
</svg>
