<svg height="511pt" viewBox="-153 1 511 511.9995" width="511pt" xmlns="http://www.w3.org/2000/svg"><path d="m95.617188 10.101562-83.671876 70.335938c-2.957031 2.488281-4.40625 6.335938-3.820312 10.15625l35.558594 232.335938h118.121094l35.5625-232.335938c.582031-3.820312-.867188-7.667969-3.824219-10.15625l-83.671875-70.335938c-4.121094-3.464843-10.132813-3.464843-14.253906 0zm0 0" fill="#d67046"/><path d="m193.542969 80.4375-15.046875-12.648438-34.691406 226.644532h-104.484376l4.363282 28.496094h118.121094l35.5625-232.335938c.582031-3.820312-.867188-7.667969-3.824219-10.15625zm0 0" fill="#bd633e"/><path d="m171.460938 376.496094h-137.429688c-8.441406 0-15.285156-6.84375-15.285156-15.28125v-23c0-8.441406 6.84375-15.285156 15.285156-15.285156h137.429688c8.4375 0 15.28125 6.84375 15.28125 15.285156v23c0 8.4375-6.84375 15.28125-15.28125 15.28125zm0 0" fill="#da9783"/><path d="m171.460938 322.929688h-27c8.441406 0 15.28125 6.84375 15.28125 15.285156v23c0 8.4375-6.839844 15.28125-15.28125 15.28125h27c8.4375 0 15.28125-6.84375 15.28125-15.28125v-23c0-8.441406-6.84375-15.285156-15.28125-15.285156zm0 0" fill="#ba8170"/><path d="m115.328125 504.496094h-25.167969c-14.589844 0-26.414062-11.828125-26.414062-26.417969v-101.582031h77.996094v101.582031c0 14.589844-11.824219 26.417969-26.414063 26.417969zm0 0" fill="#d67046"/><path d="m123.53125 376.496094v83.371094c0 14.589843-11.824219 26.414062-26.414062 26.414062h-25.167969c-2.496094 0-4.910157-.351562-7.199219-1 3.132812 11.085938 13.320312 19.214844 25.414062 19.214844h25.164063c14.589844 0 26.417969-11.828125 26.417969-26.417969v-101.582031zm0 0" fill="#bd633e"/><path d="m102.746094 291.941406c-9.390625 0-17-7.609375-17-17v-184.660156c0-9.390625 7.609375-17 17-17 9.386718 0 17 7.609375 17 17v184.660156c0 9.390625-7.613282 17-17 17zm0 0" fill="#da9783"/><path d="m127.246094 274.949219v-184.664063c0-13.511718-10.992188-24.5-24.5-24.5-13.511719 0-24.5 10.988282-24.5 24.5v184.664063c0 13.507812 10.988281 24.5 24.5 24.5 13.507812 0 24.5-10.992188 24.5-24.5zm-34 0v-184.664063c0-5.238281 4.261718-9.5 9.5-9.5 5.238281 0 9.5 4.261719 9.5 9.5v184.664063c0 5.238281-4.261719 9.5-9.5 9.5-5.238282 0-9.5-4.261719-9.5-9.5zm0 0"/><path d="m198.371094 74.703125-83.671875-70.335937c-6.929688-5.824219-16.980469-5.824219-23.910157 0l-83.667968 70.335937c-4.929688 4.140625-7.382813 10.664063-6.410156 17.03125l8.910156 58.21875c.625 4.09375 4.457031 6.90625 8.546875 6.277344 4.097656-.625 6.90625-4.453125 6.28125-8.546875-8.433594-59.347656-10.585938-59.054688-7.679688-61.5l83.671875-70.335938c1.335938-1.121094 3.269532-1.121094 4.605469 0l83.671875 70.335938c2.945312 2.476562 2.511719-9.601563-33.351562 229.25h-105.242188l-21.390625-139.75c-.628906-4.09375-4.441406-6.898438-8.550781-6.28125-4.09375.628906-6.902344 4.453125-6.277344 8.550781l21.042969 137.484375h-.917969c-12.5625 0-22.785156 10.21875-22.785156 22.78125v23c0 12.5625 10.222656 22.785156 22.785156 22.785156h22.214844v94.078125c0 18.703125 15.214844 33.917969 33.914062 33.917969h25.167969c18.699219 0 33.914063-15.214844 33.914063-33.917969v-23.582031c0-4.140625-3.355469-7.5-7.5-7.5-4.140626 0-7.5 3.359375-7.5 7.5v23.582031c0 10.433594-8.484376 18.917969-18.914063 18.917969h-25.167969c-10.429687 0-18.914062-8.484375-18.914062-18.917969v-94.078125h62.996094v42.496094c0 4.144531 3.359374 7.5 7.5 7.5 4.144531 0 7.5-3.355469 7.5-7.5v-42.496094h22.21875c12.5625 0 22.78125-10.222656 22.78125-22.785156v-23c0-12.5625-10.21875-22.78125-22.78125-22.78125h-.921876l34.242188-223.707031c.972656-6.363281-1.484375-12.886719-6.410156-17.027344zm-26.910156 255.734375c4.289062 0 7.78125 3.488281 7.78125 7.78125v23c0 4.292969-3.492188 7.785156-7.78125 7.785156h-137.429688c-4.292969 0-7.785156-3.492187-7.785156-7.785156v-23c0-4.292969 3.492187-7.78125 7.785156-7.78125zm0 0"/></svg>