<?xml version="1.0" encoding="iso-8859-1"?>
<!-- Generator: Adobe Illustrator 19.0.0, SVG Export Plug-In . SVG Version: 6.00 Build 0)  -->
<svg version="1.1" id="Capa_1" xmlns="http://www.w3.org/2000/svg" xmlns:xlink="http://www.w3.org/1999/xlink" x="0px" y="0px"
	 viewBox="0 0 511.998 511.998" style="enable-background:new 0 0 511.998 511.998;" xml:space="preserve">
<g>
	<path style="fill:#F2BB80;" d="M179.2,324.249H85.333l-76.8-42.667v-59.733l51.2-119.467h85.333l-8.533,42.667H93.867l0,0
		l-8.533,93.867l0,0c0-23.561,19.106-42.667,42.667-42.667l0,0c9.481,0,18.62,3.558,25.6,9.984l25.6,24.149v93.867H179.2z"/>
	<path style="fill:#F2BB80;" d="M332.8,324.249h93.867l76.8-42.667v-59.733l-51.2-119.467h-85.333l8.533,42.667h42.667l0,0
		l8.533,93.867l0,0c0-23.561-19.106-42.667-42.667-42.667l0,0c-9.481,0-18.62,3.558-25.6,9.984l-25.6,24.149L332.8,324.249
		L332.8,324.249z"/>
</g>
<g>
	<path style="fill:#E39D54;" d="M145.067,281.582h-32.119c-11.375,0.034-22.212-4.873-29.679-13.457
		c-2.893-3.243-2.62-8.218,0.623-11.11c0.503-0.452,1.067-0.836,1.673-1.143l1.357-0.683c3.302-1.536,7.228-0.674,9.574,2.116
		c4.224,4.617,10.197,7.236,16.452,7.211h32.119V281.582z"/>
	<path style="fill:#E39D54;" d="M399.053,281.582h-32.119v-17.067h32.119c6.255,0.026,12.228-2.594,16.452-7.211
		c2.347-2.79,6.272-3.652,9.574-2.116l1.357,0.683c3.874,1.971,5.41,6.707,3.439,10.581c-0.307,0.606-0.691,1.169-1.143,1.673
		C421.265,276.709,410.428,281.616,399.053,281.582z"/>
</g>
<path style="fill:#DE4C3C;" d="M256,409.582L148.608,298.777c-21.478-22.153-22.946-56.883-3.413-80.768l0,0
	c21.239-25.975,59.52-29.807,85.495-8.567c1.57,1.28,3.072,2.645,4.506,4.079L256,234.299l20.787-20.779
	c23.723-23.731,62.191-23.74,85.922-0.017c1.434,1.434,2.79,2.935,4.079,4.506l0,0c19.533,23.885,18.065,58.615-3.413,80.768
	L256,409.582z"/>
<path style="fill:#CF4737;" d="M366.788,218c-4.087-5.001-8.943-9.327-14.387-12.8c10.991,22.903,6.562,50.227-11.093,68.489
	l-108.51,111.898L256,409.582l107.392-110.805C384.87,276.616,386.33,241.885,366.788,218z"/>
<g>
	<path style="fill:#8C421C;" d="M256,334.856c-11.87,0.026-23.262-4.693-31.633-13.107c-3.277-3.388-3.183-8.789,0.213-12.066
		c3.311-3.191,8.55-3.191,11.853,0c10.948,10.453,28.186,10.453,39.134,0c3.388-3.277,8.789-3.183,12.066,0.205
		c3.191,3.311,3.191,8.55,0,11.861C279.262,330.162,267.87,334.881,256,334.856z"/>
	<path style="fill:#8C421C;" d="M200.533,281.582c-7.066,0-12.8-5.734-12.8-12.8s5.734-12.8,12.8-12.8c7.066,0,12.8,5.734,12.8,12.8
		S207.599,281.582,200.533,281.582z"/>
	<path style="fill:#8C421C;" d="M311.467,281.582c-7.066,0-12.8-5.734-12.8-12.8s5.734-12.8,12.8-12.8c7.066,0,12.8,5.734,12.8,12.8
		S318.532,281.582,311.467,281.582z"/>
</g>
<path d="M460.109,99.02c-1.348-3.14-4.429-5.171-7.842-5.171h-85.333c-4.71,0-8.533,3.823-8.533,8.533
	c0,0.572,0.06,1.143,0.171,1.707l8.533,42.667c0.811,3.977,4.309,6.827,8.363,6.827h34.876l4.011,44.126
	c-8.781-6.502-19.422-10.001-30.353-9.993c-10.18,0.051-20.062,3.473-28.092,9.737c-27.281-16.794-62.524-12.646-85.154,10.027
	L256,222.233l-14.754-14.754c-22.63-22.673-57.873-26.82-85.154-10.027c-8.03-6.263-17.911-9.685-28.092-9.737
	c-10.931-0.009-21.581,3.499-30.37,10.001l4.002-44.134h34.901c4.053,0,7.552-2.85,8.363-6.827l8.533-42.667
	c0.939-4.617-2.039-9.122-6.656-10.069c-0.563-0.111-1.135-0.171-1.707-0.171H59.733c-3.413,0-6.494,2.031-7.842,5.171
	l-51.2,119.467C0.23,219.545,0,220.697,0,221.849v59.733c0,3.098,1.681,5.956,4.386,7.458l76.8,42.667
	c1.271,0.708,2.697,1.075,4.147,1.075h84.343l80.213,82.773c3.277,3.388,8.687,3.465,12.066,0.188
	c0.06-0.06,0.128-0.128,0.188-0.188l80.213-82.773h84.309c1.451,0,2.876-0.367,4.147-1.075l76.8-42.667
	c2.705-1.502,4.386-4.361,4.386-7.458v-59.733c0-1.161-0.23-2.304-0.691-3.362L460.109,99.02z M87.543,315.715l-70.477-39.159
	v-52.958l48.29-112.683h69.299l-5.12,25.6H102.4c0-4.71-3.823-8.533-8.533-8.533s-8.533,3.823-8.533,8.533v8.149l-7.757,85.333
	c-0.521,2.944-0.777,5.931-0.777,8.917c-0.009,4.565,3.584,8.329,8.149,8.533c4.591,0.282,8.559-3.174,8.917-7.757l0.657-7.305
	c3.149-16.009,17.161-27.563,33.476-27.605c5.001,0.026,9.907,1.34,14.259,3.806c-1.246,1.306-2.5,2.56-3.652,4.011
	c-11.895,14.524-17.374,33.271-15.164,51.917h-10.496c-6.255,0.026-12.228-2.594-16.452-7.211c-2.347-2.79-6.272-3.652-9.574-2.116
	l-1.357,0.683c-3.874,1.971-5.41,6.707-3.439,10.581c0.307,0.606,0.691,1.169,1.143,1.673c7.467,8.585,18.304,13.491,29.679,13.457
	H127.7c3.337,8.627,8.371,16.495,14.805,23.134l10.633,10.999L87.543,315.715L87.543,315.715z M256,397.32L154.735,292.829
	c-20.079-20.719-19.558-53.786,1.161-73.856c9.097-8.815,21.094-14.029,33.749-14.66c0.853,0,1.707-0.06,2.56-0.06
	c13.858,0.009,27.145,5.504,36.949,15.292l20.787,20.787c3.328,3.328,8.738,3.328,12.066,0l20.787-20.787
	c20.352-20.446,53.427-20.523,73.865-0.171c20.284,20.19,20.54,52.949,0.58,73.455L256,397.32z M494.933,276.556l-70.477,39.159
	H358.86l10.633-10.999c6.434-6.639,11.469-14.507,14.805-23.134h14.754c11.375,0.034,22.212-4.873,29.679-13.457
	c2.893-3.243,2.62-8.218-0.623-11.11c-0.503-0.452-1.067-0.836-1.673-1.143l-1.357-0.683c-3.302-1.536-7.228-0.674-9.574,2.116
	c-4.224,4.617-10.197,7.236-16.452,7.211h-10.496c2.202-18.645-3.268-37.385-15.164-51.908c-1.152-1.408-2.406-2.714-3.652-4.011
	c4.343-2.475,9.259-3.789,14.259-3.814c16.316,0.026,30.345,11.571,33.502,27.58l0.666,7.33c0.341,4.582,4.301,8.038,8.883,7.757
	c4.565-0.205,8.158-3.968,8.149-8.533c0-2.995-0.256-5.982-0.777-8.934l-7.757-84.932v-8.533c0-4.71-3.823-8.533-8.533-8.533
	s-8.533,3.823-8.533,8.533h-27.136l-5.12-25.6h69.299l48.29,112.683L494.933,276.556L494.933,276.556z"/>
<path d="M275.567,309.682c-10.948,10.453-28.186,10.453-39.134,0c-3.388-3.277-8.789-3.183-12.066,0.213
	c-3.191,3.311-3.191,8.55,0,11.853c17.459,17.468,45.781,17.476,63.249,0.017c0.009-0.009,0.009-0.009,0.017-0.017
	c3.277-3.388,3.183-8.789-0.205-12.066C284.117,306.491,278.878,306.491,275.567,309.682z"/>
<path d="M200.533,255.982c-7.066,0-12.8,5.734-12.8,12.8c0,7.066,5.734,12.8,12.8,12.8c7.066,0,12.8-5.734,12.8-12.8
	C213.333,261.716,207.599,255.982,200.533,255.982z M200.533,273.049c-2.355,0-4.267-1.911-4.267-4.267s1.911-4.267,4.267-4.267
	s4.267,1.911,4.267,4.267S202.889,273.049,200.533,273.049z"/>
<path d="M311.467,255.982c-7.066,0-12.8,5.734-12.8,12.8c0,7.066,5.734,12.8,12.8,12.8c7.066,0,12.8-5.734,12.8-12.8
	S318.532,255.982,311.467,255.982z M311.467,273.049c-2.355,0-4.267-1.911-4.267-4.267s1.911-4.267,4.267-4.267
	c2.355,0,4.267,1.911,4.267,4.267S313.822,273.049,311.467,273.049z"/>
<g>
</g>
<g>
</g>
<g>
</g>
<g>
</g>
<g>
</g>
<g>
</g>
<g>
</g>
<g>
</g>
<g>
</g>
<g>
</g>
<g>
</g>
<g>
</g>
<g>
</g>
<g>
</g>
<g>
</g>
</svg>
