<svg height="512pt" viewBox="0 0 512 512.07937" width="512pt" xmlns="http://www.w3.org/2000/svg"><path d="m494.972656 427.257812v17.066407h-307.199218v-17.066407l18.347656-30.550781c1.53125-2.539062 4.285156-4.089843 7.25-4.089843 2.96875 0 5.722656 1.550781 7.253906 4.089843l18.347656 30.550781 18.347656-30.550781c1.535157-2.539062 4.285157-4.089843 7.253907-4.089843 2.964843 0 5.71875 1.550781 7.253906 4.089843l18.34375 30.550781 18.347656-30.550781c1.535157-2.539062 4.285157-4.089843 7.253907-4.089843s5.71875 1.550781 7.253906 4.089843l18.34375 30.550781 18.347656-30.550781c1.535156-2.539062 4.285156-4.089843 7.253906-4.089843s5.71875 1.550781 7.253906 4.089843l18.347657 30.550781 18.34375-30.550781c1.535156-2.539062 4.289062-4.089843 7.253906-4.089843 2.96875 0 5.71875 1.550781 7.253906 4.089843l18.347657 30.550781 18.347656-30.550781c1.53125-2.539062 4.285156-4.089843 7.25-4.089843 2.96875 0 5.722656 1.550781 7.253906 4.089843zm0 0" fill="#cfd8dc"/><path d="m123.945312 101.199219-30.550781 18.347656 30.550781 18.347656c2.539063 1.53125 4.089844 4.285157 4.089844 7.25 0 2.96875-1.550781 5.71875-4.089844 7.253907l-30.550781 18.347656 30.550781 18.347656c2.539063 1.53125 4.089844 4.285156 4.089844 7.253906 0 2.964844-1.550781 5.71875-4.089844 7.25l-30.550781 18.347656 30.550781 18.347657c2.539063 1.535156 4.089844 4.285156 4.089844 7.253906s-1.550781 5.71875-4.089844 7.253906l-30.550781 18.34375 30.550781 18.347657c2.539063 1.535156 4.089844 4.285156 4.089844 7.253906s-1.550781 5.71875-4.089844 7.253906l-30.550781 18.347656h-25.601562v-307.203125h25.601562l30.550781 18.347657c2.539063 1.535156 4.089844 4.285156 4.089844 7.253906s-1.550781 5.71875-4.089844 7.253906l-30.550781 18.347656 30.550781 18.34375c2.539063 1.535156 4.089844 4.285156 4.089844 7.253906s-1.550781 5.71875-4.089844 7.253907zm0 0" fill="#cfd8dc"/><path d="m85.371094 17.144531v392.535157h-25.597656l-23.894532-31.828126c-1.089844-1.488281-1.6875-3.277343-1.707031-5.121093v-338.519531c.027344-9.414063 7.652344-17.035157 17.066406-17.066407zm0 0" fill="#1566c0"/><path d="m59.773438 17.144531v392.535157l-23.894532-31.828126c-1.089844-1.488281-1.6875-3.277343-1.707031-5.121093v-338.519531c.027344-9.414063 7.652344-17.035157 17.066406-17.066407zm0 0" fill="#2296f3"/><path d="m494.972656 435.28125v34.132812c-.027344 9.414063-7.652344 17.039063-17.066406 17.066407h-338.515625c-1.84375-.019531-3.636719-.617188-5.121094-1.707031l-31.828125-23.894532v-25.597656zm0 0" fill="#0377bc"/><path d="m477.90625 435.28125v34.132812c-.027344 9.414063-7.652344 17.039063-17.066406 17.066407h-321.449219c-1.84375-.019531-3.636719-.617188-5.121094-1.707031l-31.828125-23.894532v-25.597656zm0 0" fill="#02a9f4"/><path d="m110.972656 452.347656c0 28.273438-22.921875 51.199219-51.199218 51.199219-4.316407-.015625-8.617188-.558594-12.800782-1.621094-22.605468-5.816406-38.40625-26.195312-38.40625-49.535156 0-23.34375 15.800782-43.722656 38.40625-49.539063 4.171875-1.132812 8.476563-1.707031 12.800782-1.707031 28.277343 0 51.199218 22.925781 51.199218 51.203125zm0 0" fill="#283593"/><path d="m85.371094 452.347656c-.054688 23.328125-15.824219 43.691406-38.398438 49.578125-22.605468-5.816406-38.40625-26.195312-38.40625-49.535156 0-23.34375 15.800782-43.722656 38.40625-49.539063 22.578125 5.832032 38.363282 26.175782 38.398438 49.496094zm0 0" fill="#3f51b5"/><path d="m76.839844 452.347656c0 9.425782-7.640625 17.066406-17.066406 17.066406-9.425782 0-17.066407-7.640624-17.066407-17.066406 0-9.425781 7.640625-17.066406 17.066407-17.066406 9.425781 0 17.066406 7.640625 17.066406 17.066406zm0 0" fill="#2296f3"/><path d="m247.507812 435.792969c-3 0-5.777343-1.570313-7.324218-4.140625l-18.277344-30.507813-18.269531 30.507813c-2.46875 3.945312-7.640625 5.183594-11.628907 2.789062-3.988281-2.398437-5.320312-7.546875-2.996093-11.578125l18.300781-30.507812c3.09375-5.117188 8.632812-8.242188 14.609375-8.242188 5.980469 0 11.519531 3.125 14.609375 8.242188l18.304688 30.5c1.589843 2.636719 1.632812 5.929687.117187 8.609375-1.519531 2.679687-4.367187 4.332031-7.445313 4.328125zm0 0"/><path d="m298.707031 435.792969c-3 0-5.777343-1.570313-7.324219-4.140625l-18.277343-30.507813-18.269531 30.507813c-2.46875 3.945312-7.640626 5.183594-11.628907 2.789062-3.988281-2.398437-5.320312-7.546875-2.996093-11.578125l18.304687-30.507812c3.089844-5.117188 8.628906-8.242188 14.609375-8.242188 5.976562 0 11.515625 3.125 14.609375 8.242188l18.300781 30.5c1.589844 2.636719 1.636719 5.929687.117188 8.609375-1.519532 2.679687-4.367188 4.332031-7.445313 4.328125zm0 0"/><path d="m298.707031 435.792969c-3 0-5.777343-1.570313-7.324219-4.140625l-18.277343-30.507813-18.269531 30.507813c-2.46875 3.945312-7.640626 5.183594-11.628907 2.789062-3.988281-2.398437-5.320312-7.546875-2.996093-11.578125l18.304687-30.507812c3.089844-5.117188 8.628906-8.242188 14.609375-8.242188 5.976562 0 11.515625 3.125 14.609375 8.242188l18.300781 30.5c1.589844 2.636719 1.636719 5.929687.117188 8.609375-1.519532 2.679687-4.367188 4.332031-7.445313 4.328125zm0 0"/><path d="m349.90625 435.792969c-2.996094 0-5.777344-1.570313-7.320312-4.140625l-18.28125-30.507813-18.269532 30.507813c-2.46875 3.945312-7.640625 5.183594-11.628906 2.789062-3.988281-2.398437-5.320312-7.546875-2.996094-11.578125l18.304688-30.507812c3.089844-5.117188 8.632812-8.242188 14.609375-8.242188 5.976562 0 11.519531 3.125 14.609375 8.242188l18.304687 30.5c1.585938 2.636719 1.632813 5.929687.113281 8.609375-1.519531 2.679687-4.363281 4.332031-7.445312 4.328125zm0 0"/><path d="m401.105469 435.792969c-2.996094 0-5.777344-1.570313-7.320313-4.140625l-18.277344-30.507813-18.269531 30.507813c-2.46875 3.945312-7.644531 5.183594-11.632812 2.789062-3.984375-2.398437-5.320313-7.546875-2.996094-11.578125l18.304687-30.507812c3.089844-5.117188 8.632813-8.242188 14.609376-8.242188 5.976562 0 11.519531 3.125 14.609374 8.242188l18.304688 30.5c1.589844 2.636719 1.632812 5.929687.113281 8.609375-1.519531 2.679687-4.363281 4.332031-7.445312 4.328125zm0 0"/><path d="m452.304688 435.792969c-2.996094 0-5.777344-1.570313-7.320313-4.140625l-18.277344-30.507813-18.269531 30.507813c-1.542969 2.671875-4.40625 4.304687-7.492188 4.269531-3.085937-.035156-5.910156-1.734375-7.390624-4.441406-1.476563-2.707031-1.382813-6 .253906-8.617188l18.304687-30.507812c3.089844-5.117188 8.632813-8.242188 14.609375-8.242188 5.976563 0 11.519532 3.125 14.609375 8.242188l18.304688 30.5c1.589843 2.636719 1.632812 5.929687.113281 8.609375-1.515625 2.679687-4.363281 4.332031-7.445312 4.328125zm0 0"/><path d="m503.507812 435.792969c-3 0-5.777343-1.570313-7.324218-4.140625l-18.277344-30.507813-18.269531 30.507813c-2.46875 3.945312-7.640625 5.183594-11.628907 2.789062-3.988281-2.398437-5.320312-7.546875-2.996093-11.578125l18.300781-30.507812c3.09375-5.117188 8.632812-8.242188 14.609375-8.242188 5.980469 0 11.519531 3.125 14.609375 8.242188l18.304688 30.5c1.589843 2.636719 1.632812 5.929687.117187 8.609375-1.519531 2.679687-4.367187 4.332031-7.445313 4.328125zm0 0"/><path d="m59.773438 512.078125c-32.988282 0-59.7343755-26.742187-59.7343755-59.730469 0-32.992187 26.7460935-59.734375 59.7343755-59.734375 32.988281 0 59.734374 26.742188 59.734374 59.734375-.039062 32.972656-26.761718 59.695313-59.734374 59.730469zm0-102.398437c-23.566407 0-42.667969 19.101562-42.667969 42.667968 0 23.5625 19.101562 42.664063 42.667969 42.664063 23.5625 0 42.667968-19.101563 42.667968-42.664063-.03125-23.554687-19.117187-42.640625-42.667968-42.667968zm0 0"/><path d="m324.042969 119.546875c-2.277344 0-4.457031-.90625-6.058594-2.519531-42.734375-43.007813-76.800781-58.324219-132.59375-74.621094-4.523437-1.324219-7.117187-6.0625-5.796875-10.585938 1.320312-4.527343 6.0625-7.121093 10.585938-5.800781 57.410156 16.769531 94.8125 33.589844 139.945312 78.976563 2.433594 2.449218 3.152344 6.125 1.820312 9.308594-1.332031 3.1875-4.449218 5.253906-7.902343 5.242187zm0 0"/><path d="m324.304688 196.347656c-2.457032-.003906-4.796876-1.0625-6.414063-2.910156-38.425781-44.359375-87.066406-78.699219-141.722656-100.0625-4.394531-1.710938-6.570313-6.660156-4.859375-11.054688 1.710937-4.394531 6.660156-6.570312 11.054687-4.859374 57.214844 22.359374 108.128907 58.296874 148.359375 104.71875 2.214844 2.519531 2.746094 6.101562 1.363282 9.152343-1.382813 3.054688-4.425782 5.015625-7.78125 5.015625zm0 0"/><path d="m315.882812 273.144531c-3 .007813-5.785156-1.566406-7.328124-4.136719-33.203126-55.023437-82.515626-98.507812-141.261719-124.5625-2.910157-1.128906-4.96875-3.757812-5.367188-6.855468-.402343-3.09375.917969-6.160156 3.441407-7.996094 2.523437-1.835938 5.847656-2.148438 8.667968-.816406 62.011719 27.476562 114.078125 73.355468 149.144532 131.414062 1.59375 2.636719 1.648437 5.925782.136718 8.609375-1.511718 2.683594-4.351562 4.34375-7.433594 4.34375zm0 0"/><path d="m59.773438 477.945312c-14.140626 0-25.601563-11.460937-25.601563-25.597656 0-14.140625 11.460937-25.601562 25.601563-25.601562 14.136718 0 25.597656 11.460937 25.597656 25.601562 0 14.136719-11.460938 25.597656-25.597656 25.597656zm0-34.132812c-4.714844 0-8.535157 3.820312-8.535157 8.535156 0 4.710938 3.820313 8.53125 8.535157 8.53125 4.710937 0 8.53125-3.820312 8.53125-8.53125 0-4.714844-3.820313-8.535156-8.53125-8.535156zm0 0"/><path d="m486.441406 495.011719h-338.492187c-3.691407-.007813-7.285157-1.203125-10.242188-3.414063l-31.855469-23.890625c-2.148437-1.613281-3.410156-4.140625-3.410156-6.828125v-25.597656c0-4.714844 3.820313-8.535156 8.53125-8.535156h392.535156c4.710938 0 8.53125 3.820312 8.53125 8.535156v34.132812c0 14.136719-11.460937 25.597657-25.597656 25.597657zm-366.933594-38.398438 28.449219 21.332031h338.484375c4.710938 0 8.53125-3.820312 8.53125-8.53125v-25.601562h-375.464844zm0 0"/><path d="m93.402344 324.347656c-3.835938 0-7.199219-2.554687-8.226563-6.25-1.027343-3.695312.539063-7.621094 3.824219-9.597656l30.507812-18.289062-30.515624-18.269532c-2.675782-1.539062-4.308594-4.402344-4.269532-7.488281.035156-3.085937 1.730469-5.910156 4.441406-7.390625 2.707032-1.480469 6-1.382812 8.617188.253906l30.507812 18.304688c5.113282 3.089844 8.242188 8.632812 8.242188 14.609375 0 5.976562-3.128906 11.519531-8.242188 14.609375l-30.507812 18.304687c-1.324219.789063-2.835938 1.203125-4.378906 1.203125zm0 0"/><path d="m93.402344 273.144531c-3.835938.003907-7.199219-2.550781-8.226563-6.246093-1.027343-3.695313.539063-7.621094 3.824219-9.597657l30.507812-18.289062-30.515624-18.269531c-3.945313-2.46875-5.183594-7.640626-2.789063-11.628907 2.398437-3.988281 7.546875-5.320312 11.578125-2.996093l30.507812 18.304687c5.113282 3.089844 8.242188 8.628906 8.242188 14.609375 0 5.976562-3.128906 11.515625-8.242188 14.609375l-30.507812 18.300781c-1.324219.789063-2.835938 1.207032-4.378906 1.203125zm0 0"/><path d="m93.402344 273.144531c-3.835938.003907-7.199219-2.550781-8.226563-6.246093-1.027343-3.695313.539063-7.621094 3.824219-9.597657l30.507812-18.289062-30.515624-18.269531c-3.945313-2.46875-5.183594-7.640626-2.789063-11.628907 2.398437-3.988281 7.546875-5.320312 11.578125-2.996093l30.507812 18.304687c5.113282 3.089844 8.242188 8.628906 8.242188 14.609375 0 5.976562-3.128906 11.515625-8.242188 14.609375l-30.507812 18.300781c-1.324219.789063-2.835938 1.207032-4.378906 1.203125zm0 0"/><path d="m93.402344 221.945312c-3.835938.003907-7.199219-2.554687-8.226563-6.246093-1.027343-3.695313.539063-7.625 3.824219-9.597657l30.507812-18.289062-30.515624-18.269531c-3.945313-2.46875-5.183594-7.640625-2.789063-11.628907 2.398437-3.988281 7.546875-5.320312 11.578125-2.996093l30.507812 18.300781c5.113282 3.09375 8.242188 8.632812 8.242188 14.609375 0 5.980469-3.128906 11.519531-8.242188 14.609375l-30.507812 18.304688c-1.324219.789062-2.835938 1.207031-4.378906 1.203124zm0 0"/><path d="m93.402344 170.746094c-3.835938.003906-7.199219-2.554688-8.226563-6.25-1.027343-3.695313.539063-7.621094 3.824219-9.597656l30.507812-18.285157-30.515624-18.269531c-2.675782-1.542969-4.308594-4.40625-4.269532-7.492188.035156-3.085937 1.730469-5.910156 4.441406-7.390624 2.707032-1.476563 6-1.382813 8.617188.253906l30.507812 18.304687c5.113282 3.089844 8.242188 8.632813 8.242188 14.609375 0 5.976563-3.128906 11.519532-8.242188 14.609375l-30.507812 18.304688c-1.324219.789062-2.835938 1.203125-4.378906 1.203125zm0 0"/><path d="m93.402344 119.546875c-3.835938 0-7.199219-2.554687-8.226563-6.25-1.027343-3.695313.539063-7.621094 3.824219-9.597656l30.507812-18.285157-30.507812-18.289062c-3.945312-2.46875-5.183594-7.640625-2.789062-11.628906 2.398437-3.988282 7.546874-5.320313 11.578124-2.996094l30.507813 18.304688c5.117187 3.089843 8.242187 8.628906 8.242187 14.609374 0 5.976563-3.125 11.519532-8.242187 14.609376l-30.507813 18.300781c-1.324218.796875-2.839843 1.21875-4.386718 1.222656zm0 0"/><path d="m93.402344 68.347656c-3.835938 0-7.199219-2.554687-8.226563-6.25-1.027343-3.695312.539063-7.621094 3.824219-9.597656l30.507812-18.289062-30.507812-18.285157c-2.671875-1.542969-4.304688-4.40625-4.269531-7.492187.035156-3.082032 1.734375-5.910156 4.441406-7.386719 2.707031-1.480469 6-1.382813 8.617187.253906l30.507813 18.304688c5.117187 3.089843 8.242187 8.628906 8.242187 14.605469 0 5.980468-3.125 11.519531-8.242187 14.609374l-30.507813 18.304688c-1.324218.796875-2.839843 1.21875-4.386718 1.222656zm0 0"/><path d="m85.371094 409.679688h-25.597656c-2.6875 0-5.214844-1.265626-6.828126-3.414063l-23.890624-31.863281c-2.214844-2.957032-3.410157-6.546875-3.414063-10.238282v-338.484374c0-14.140626 11.460937-25.601563 25.597656-25.601563h34.132813c4.714844 0 8.535156 3.820313 8.535156 8.535156v392.53125c0 4.714844-3.820312 8.535157-8.535156 8.535157zm-21.332032-17.066407h12.800782v-375.46875h-25.601563c-4.710937 0-8.53125 3.820313-8.53125 8.535157v338.492187zm0 0"/></svg>