<?xml version="1.0" encoding="iso-8859-1"?>
<!-- Generator: Adobe Illustrator 19.0.0, SVG Export Plug-In . SVG Version: 6.00 Build 0)  -->
<svg version="1.1" id="Layer_1" xmlns="http://www.w3.org/2000/svg" xmlns:xlink="http://www.w3.org/1999/xlink" x="0px" y="0px"
	 viewBox="0 0 511.997 511.997" style="enable-background:new 0 0 511.997 511.997;" xml:space="preserve">
<circle style="fill:#FFCE54;" cx="400.259" cy="114.128" r="94.27"/>
<g>
	<path style="fill:#E6E9ED;" d="M262.475,144.64l-29.141,1.906l6-32l-5.336-26.672l-81.999,72.124l-4.664-4.797l-25.336,10.672
		l-45.328,47.469l-62,64.531l28,11.327l-0.672,22l-21.328,55.999l22,19.344c0,0,26,68,28,70.656s30.664-12,30.664-12
		s43.336,52.672,46,53.344s32-32.672,33.335-35.344s32,14,32,14l25.328-62.656l18.672-8c0,0-9.336-54-12-58.672
		s-20-87.998-20-87.998l-0.672-46.531c0,0,2-6.797,22-42.141C255.966,153.577,260.467,146.905,262.475,144.64z"/>
	<path style="fill:#E6E9ED;" d="M262.475,144.64l1.523-0.094C263.998,144.546,264.498,142.374,262.475,144.64z"/>
</g>
<path style="fill:#F6BB42;" d="M394.669,74.03c0,12.781-10.375,23.156-23.172,23.156s-23.156-10.375-23.156-23.156
	c0-12.797,10.359-23.172,23.156-23.172S394.669,61.233,394.669,74.03z"/>
<path d="M268.123,129.905c-2.859-1.984-6.508-2.453-9.781-1.25l-10.985,4.031l4.734-13.031c0.828-2.266,0.859-4.75,0.094-7.031
	l-9.555-28.656c-1.164-3.5-4.031-6.125-7.602-7c-3.562-0.875-7.328,0.156-9.953,2.719l-62.445,60.75l-30.867,9.344
	c-1.234,0.375-2.398,0.984-3.422,1.781c-0.859,0.656-21.43,16.562-47.382,40.608c-35.031,32.453-61.695,62.766-79.257,90.046
	c-2.117,3.281-2.266,7.469-0.398,10.891s5.461,5.547,9.367,5.547h22.21c-9.718,16.25-21.664,42.594-22.21,74.499
	c-0.07,4.094,2.219,7.875,5.891,9.719l15.781,7.891c1.273,14.297,7.227,48.016,34.797,75.453c3.172,3.156,7.977,4,12.031,2.125
	l20.265-9.453c3.625,5.438,8.82,13.047,14.445,20.734c19.797,27.078,27.992,32.375,35.453,32.375c8.578,0,17-7.25,30.039-25.875
	c2.953-4.219,5.695-8.406,7.961-12l19.688,14.469c4.102,3.016,9.766,2.719,13.523-0.734c20.875-19.156,24.82-45.859,25.172-61.203
	h10.281c5.766,0,10.493-4.562,10.665-10.344c1.453-48.594-26.446-117.343-31.985-130.468l0.492-79.421l35.563-50.297
	c1.266-1.812,1.953-3.968,1.953-6.155v-11.312C272.686,135.186,270.982,131.905,268.123,129.905z M215.811,196.842
	c-1.258,1.781-1.938,3.906-1.953,6.094l-0.477,77.874c-14.18,7.109-26.008,21.031-33.516,31.625
	c-11.141-12.094-32.289-28.656-67.82-34.937c-5.797-1.031-11.336,2.843-12.359,8.64s2.852,11.328,8.648,12.359
	c46.039,8.125,61.929,35.875,62.859,37.562c1.781,3.531,5.328,5.702,9.281,5.78c0.062,0,0.133,0,0.195,0
	c3.883,0,7.438-2.187,9.312-5.593c4.047-7.344,15.68-24.969,28.437-33.719c7.969,20.25,24.68,66.483,26.75,102.812h-10.5
	c-3.07,0-6,1.297-8.023,3.594c-2.023,2.312-2.961,5.375-2.562,8.406c0.039,0.312,3.273,28.141-12.14,48.406l-21.336-15.688
	c-2.438-1.781-5.531-2.453-8.492-1.844c-2.961,0.625-5.523,2.469-7.047,5.094c-8.906,15.344-19.82,30.562-25.554,35.953
	c-3.031-2.766-9.203-9.422-20.398-24.969c-9.07-12.609-16.766-24.609-16.844-24.719c-2.016-3.141-5.445-4.922-8.984-4.922
	c-1.516,0-3.047,0.328-4.5,1l-21.585,10.062c-23.734-27.75-23.867-61.281-23.867-61.594c0.047-4.094-2.242-7.844-5.898-9.656
	L32.313,366.9c2.562-33.187,19.383-59.03,26.195-68.249h5.688c5.891,0,10.664-4.766,10.664-10.656s-4.773-10.655-10.664-10.655
	H53.319H31.124c38.531-51.312,98.492-99.625,108.742-107.719l2.477-0.75l-5.797,9.031c-3.18,4.953-1.742,11.562,3.219,14.734
	c1.781,1.141,3.773,1.703,5.75,1.703c3.508,0,6.945-1.75,8.984-4.906l19.75-30.781c0.492-0.328,0.969-0.688,1.398-1.125
	l52.117-50.702l3.016,9.031l-11.312,31.141c-1.422,3.906-0.445,8.265,2.5,11.187c2.938,2.938,7.312,3.891,11.203,2.469l11.133-4.094
	L215.811,196.842z"/>
<path d="M405.324,0C346.512,0,298.67,47.843,298.67,106.655c0,58.827,47.843,106.687,106.654,106.687
	c58.812,0,106.672-47.859,106.672-106.687C511.996,47.843,464.137,0,405.324,0z M405.324,191.998
	c-47.046,0-85.326-38.28-85.326-85.343c0-47.031,38.28-85.312,85.326-85.312c47.062,0,85.344,38.28,85.344,85.312
	C490.668,153.718,452.387,191.998,405.324,191.998z"/>
<path d="M469.324,95.999c-5.891,0-10.656,4.781-10.656,10.656c0,5.906,4.766,10.688,10.656,10.688s10.672-4.781,10.672-10.688
	C479.996,100.78,475.215,95.999,469.324,95.999z"/>
<path d="M405.324,138.655c-5.89,0-10.655,4.781-10.655,10.688c0,5.874,4.766,10.655,10.655,10.655
	c5.891,0,10.672-4.781,10.672-10.655C415.996,143.436,411.215,138.655,405.324,138.655z"/>
<path d="M405.324,74.655c0-17.625-14.343-32-31.999-32c-17.641,0-31.999,14.375-31.999,32c0,17.656,14.358,32,31.999,32
	C390.981,106.655,405.324,92.311,405.324,74.655z M373.325,85.343c-5.875,0-10.656-4.797-10.656-10.688
	c0-5.875,4.781-10.656,10.656-10.656c5.891,0,10.672,4.781,10.672,10.656C383.997,80.546,379.216,85.343,373.325,85.343z"/>
<g>
</g>
<g>
</g>
<g>
</g>
<g>
</g>
<g>
</g>
<g>
</g>
<g>
</g>
<g>
</g>
<g>
</g>
<g>
</g>
<g>
</g>
<g>
</g>
<g>
</g>
<g>
</g>
<g>
</g>
</svg>
